<?xml version="1.0" encoding="utf-8"?>
<!DOCTYPE svg PUBLIC "-//W3C//DTD SVG 1.1//EN" "http://www.w3.org/Graphics/SVG/1.1/DTD/svg11.dtd">
<svg version="1.1" xmlns="http://www.w3.org/2000/svg" width="350" height="198" viewBox="0 0 350 198">
  <defs>
    <pattern id="pattern-no-results" width="50" height="50" patternUnits="userSpaceOnUse">
      <rect width="50" height="50" fill="#ddd"/>
      <path d="M-5,5L5,-5M-5,55L55,-5M45,55L55,45" stroke-width="10" stroke="#666666"/>
    </pattern>
  </defs>
  <g class="counties" transform="scale(0.1)">
    <path data-fips-int="2068" data-name="Denali Borough" d="M2268,731l0,1 0,-1 0,1 46,0 15,79 -110,33 -101,67 -52,12 24,-47 -25,-47 28,-3 5,-37 33,-3 19,-40Z"/>
    <path data-fips-int="2090" data-name="Fairbanks North Star Borough" d="M2427,625l5,39 -91,62 -27,6 -46,0 0,-1 0,1 0,-1 -2,-1 -5,-4 -2,-2 0,-1 0,-1 -1,0 1,0 -1,-1 0,1 0,-1 0,-2 -2,0 2,0 -2,0 0,-1 0,1 0,-1 -2,0 -3,-2 0,-1 0,1 0,-1 0,1 0,-1 -3,-2 0,-1 0,1 0,-1 -10,-2 0,1 0,-1 -10,-62 78,-23 12,-15 38,33Z"/>
    <path data-fips-int="2170" data-name="Matanuska-Susitna Borough" d="M2357,837l20,93 -23,4 13,78 -71,17 -38,1 0,-1 -30,29 -49,10 0,2 0,-2 -19,-20 -82,8 -7,-89 -5,-44 52,-12 101,-67 110,-33Z"/>
    <path data-fips-int="2240" data-name="Southeast Fairbanks Census Area" d="M2527,518l0,1 108,388 -40,10 -20,-59 -33,-10 -2,0 -18,-2 -10,-6 2,-3 0,-1 0,1 0,-1 -5,-25 -152,26 -28,-26 -15,-79 27,-6 91,-62 15,-2 4,-13 1,0 -1,0 1,0 2,-5 0,-1 0,1 0,-1 -3,-1 8,-26 0,-1 0,1 0,-1 2,0 0,-2 0,2 0,-2 3,-3 2,-1 6,-7 2,-6 -2,-6 -1,0 1,0 -1,-1 0,1 0,-1 -2,0 0,-1 0,1 0,-1 23,-21 2,0 3,0 0,1 0,-1 0,1 5,-2 3,-6 5,-6 10,-26 0,-1 0,1 0,-1 7,-8Z"/>
    <path data-fips-int="2290" data-name="Yukon-Koyukuk Census Area" d="M2456,257l71,261 0,1 -7,8 0,1 0,-1 0,1 -10,26 -5,6 -3,6 -5,2 0,-1 0,1 0,-1 -3,0 -2,0 -23,21 0,1 0,-1 0,1 2,0 0,1 0,-1 1,1 -1,0 1,0 2,6 -2,6 -6,7 -2,1 -3,3 0,2 0,-2 0,2 -2,0 0,1 0,-1 0,1 -8,26 3,1 0,1 0,-1 0,1 -2,5 -1,0 1,0 -1,0 -4,13 -15,2 -5,-39 -71,18 -38,-33 -12,15 -78,23 10,62 0,1 0,-1 10,2 0,1 0,-1 0,1 3,2 0,1 0,-1 0,1 0,-1 0,1 3,2 2,0 0,1 0,-1 0,1 2,0 -2,0 2,0 0,2 0,1 0,-1 1,1 -1,0 1,0 0,1 0,1 2,2 5,4 2,1 -118,15 -19,40 -33,3 -5,37 -28,3 25,47 -24,47 5,44 -33,30 -156,9 -70,-9 -35,18 -60,-1 -20,-1 8,-108 7,-54 47,-25 -10,-98 16,-17 0,-62 2,-44 70,-17 0,-37 95,15 0,-27 51,-18 0,-45 -50,-83 203,-19 148,-26 -10,-47Z"/>
    <path data-fips-int="2013" data-name="Aleutians East Borough" d="M1511,1709l16,41 -86,18 30,-51ZM1794,1533l0,1 0,7 -57,31 0,62 18,2 0,15 0,8 -23,-19 -35,35 -40,11 -18,-28 -23,52 -42,-20 -30,9 87,-70 35,-9 14,8 87,-76 5,-2 0,-1Z"/>
    <path data-fips-int="2020" data-name="Anchorage Municipality" d="M2258,1029l0,1 38,-1 -3,72 1,0 -1,0 -15,-8 -55,-25 33,-38 2,0Z"/>
    <path data-fips-int="2050" data-name="Bethel Census Area" d="M1459,1199l-10,8 -8,1 -17,0 -56,-43 50,-13 36,13ZM1526,1140l-9,5 -3,1 3,1 2,1 0,5 -5,1 0,1 -2,0 0,2 0,3 0,2 -3,1 -2,4 -1,2 -33,-30 26,-25ZM1657,1303l-1,-1 -30,-112 0,-1 -2,-1 0,1 0,-1 -2,0 10,-39 0,-1 -18,58 -83,15 -25,-52 1,-2 2,-4 3,-1 0,-2 0,-3 0,-2 2,0 0,-1 5,-1 0,-5 -2,-1 -3,-1 3,-1 9,-5 40,-28 -52,3 -16,-12 -9,2 9,-2 9,-2 4,0 11,3 87,-53 40,8 85,-33 -17,-12 60,1 35,-18 70,9 156,-9 33,-30 7,89 -22,2 5,53 -123,7 -146,4 -23,26 -32,87 -43,56 -14,40 0,2 -14,8 -19,17 9,-55 1,0Z"/>
    <path data-fips-int="2060" data-name="Bristol Bay Borough" d="M1880,1355l13,-29 35,-1 2,29Z"/>
    <path data-fips-int="2070" data-name="Dillingham Census Area" d="M1784,1333l-2,1 2,2 0,-2 16,26 0,1 -31,-21 -77,-12 -12,3 14,-40 43,-56 32,-87 23,-26 146,-4 5,126 -63,47 5,39 -47,24 -21,-45 0,-1 0,1Z"/>
    <path data-fips-int="2185" data-name="North Slope Borough" d="M1685,176l2,0 42,-20 0,-1 30,1 1,8 -1,-34 30,-25 0,1 48,-1 33,-46 55,18 10,26 55,-9 0,1 2,0 0,-1 6,1 3,1 2,2 0,-1 0,-1 15,26 2,0 53,8 2,1 1,0 2,1 2,3 0,2 0,1 -4,2 2,3 2,-2 1,-1 0,-1 2,-1 2,-1 0,-1 1,-1 2,0 2,-1 1,-1 0,-1 49,-6 0,1 1,0 -1,0 1,0 0,1 9,-1 19,5 2,1 3,1 2,1 20,5 87,5 0,-1 21,-9 7,-4 -2,-1 2,0 0,1 2,0 0,-1 -2,-1 0,-1 2,2 1,-2 7,-5 2,2 3,-5 20,0 1,0 25,12 9,3 1,0 9,2 5,1 1,1 4,1 1,1 2,1 3,3 17,0 32,112 -182,44 10,47 -148,26 -203,19 -71,-19 -112,0 -166,-10 -33,18 -32,-40 0,1 0,-1 8,-50 74,2 43,-46 2,-2 3,-29 3,-4 0,-1 0,-1 2,0 0,-1 33,-35Z"/>
    <path data-fips-int="2188" data-name="Northwest Arctic Borough" d="M1933,393l50,83 0,45 -51,18 0,27 -95,-15 0,37 -70,17 -2,44 -8,9 -166,-8 -17,-37 0,-81 10,39 0,1 2,1 8,13 3,0 73,10 5,-1 2,-1 0,-1 0,-1 0,1 0,-1 28,-8 0,1 0,1 0,1 -1,0 0,-1 -2,1 0,1 2,0 1,-1 2,-1 2,-5 0,-1 1,-1 -1,-1 -22,-25 55,-2 0,-2 -5,-12 -35,3 0,1 -2,2 -16,-46 -40,-7 0,-1 -3,1 -34,-9 -30,-66 0,-1 0,-1 0,-1 -1,-1 0,-1 -2,-1 -23,-27 33,-18 166,10 112,0Z"/>
    <path data-fips-int="2270" data-name="Wade Hampton Census Area" d="M1626,875l26,28 53,2 -8,108 20,1 17,12 -85,33 -40,-8 -87,53 -11,-3 -4,0 -9,2 -9,2 10,-55 3,-1 -3,-1 -20,39 -23,-31 2,-1 -2,0 2,0 0,-1 0,-1 0,1 0,-1 0,-1 13,-67 46,-44 0,-3 45,11 0,-1 0,2 0,-1 0,-2 0,-1 -1,-5 0,-1 0,-2 0,-1 0,-4 0,-7 0,-1 -2,-4 -5,-3 0,-1 0,-2 0,-2 0,-2 7,-4 1,1 4,0 1,0 0,-1 2,-1 0,-2 2,0 0,-2 0,-3 0,-2 6,-4 7,-5 42,-13Z"/>
    <path data-fips-int="2164" data-name="Lake and Peninsula Borough" d="M2061,1111l-1,115 -34,57 -18,1 10,62 17,-1 -12,33 -40,17 2,32 -53,38 1,37 -5,6 -3,6 -88,51 -25,29 0,-1 10,24 -67,19 2,0 0,1 2,1 -4,13 0,8 0,-8 0,-15 -18,-2 0,-62 57,-31 11,-14 53,-69 20,-61 0,1 2,0 2,0 -2,-1 0,-42 50,-1 -2,-29 -35,1 0,-4 -8,8 -5,-39 63,-47 -5,-126Z"/>
    <path data-fips-int="2150" data-name="Kodiak Island Borough" d="M2120,1412l8,4 2,1 0,-1 0,-2 16,9 -1,1 -2,1 2,11 0,1 6,24 -46,26 -2,0 -2,0 -40,25 -8,7 0,2 -35,-35 40,-41 12,22 0,-7 0,-2 0,-1 -2,-1 -5,-16 0,-1 20,-8 8,1 0,2 0,1 4,1 0,-1 0,-1 -2,-2 3,-5 2,0 2,-4 0,-1ZM2143,1359l3,3 0,1 12,21 -42,21 -1,-1 -2,0 -5,-3 -2,-2 -1,-2 11,-22 2,0 2,0 -2,-2 3,-15 0,1 2,0 0,-1 0,-1 10,10 0,1 2,0 0,-1 3,1 0,1 2,0 0,-1 1,-8ZM2088,1319l-2,1 -1,0 -30,49 -17,12 2,1 0,-1 3,-2 0,-1 -38,35 0,-1 -2,0 -2,1 -76,72 8,8 -1,0 1,9 -1,-37 53,-38 -2,-32 40,-17 12,-33 50,-25 1,0Z"/>
    <path data-fips-int="2122" data-name="Kenai Peninsula Borough" d="M2278,1093l15,8 1,0 4,0 0,5 1,2 2,17 2,4 11,52 -5,2 -31,6 0,-1 0,-2 -9,18 0,1 -11,-14 0,2 0,26 -15,-14 -10,37 -5,-10 0,1 -24,36 -49,-9 19,-19 0,-1 10,-6 2,0 -35,-13 18,-50 -6,-51 48,-37ZM2086,1320l-1,0 -50,25 -17,1 -10,-62 18,-1 34,-57 1,-115 -5,-53 22,-2 82,-8 19,20 0,2 -34,31 -37,108 -35,31 -38,56 25,4 1,0 24,20Z"/>
    <path data-fips-int="2261" data-name="Valdez-Cordova Census Area" d="M2336,1119l-4,36 0,1 -1,2 -2,1 0,1 -1,0 -14,21 -5,2 5,-2 -11,-52ZM2341,1085l-10,-5 -2,-1 -5,-3 -26,25 -4,0 -1,0 3,-72 71,-17 -13,-78 23,-4 -20,-93 152,-26 5,25 0,1 0,-1 0,1 -2,3 10,6 18,2 2,0 33,10 20,59 40,-10 40,149 -108,15 -22,59 -58,-27 2,-3 2,-5 0,-1 0,-2 -2,0 -2,-2 0,-1 0,-1 -6,1 -2,1 0,1 0,2 0,1 0,1 -2,3 0,1 0,1 -1,3 -2,2 0,1 -2,3 -1,1 0,1 -2,1 -30,-25 -10,-2 2,-2 0,-1 -4,3 -20,1 -35,-20 0,-1 -25,14 -8,3 2,1 0,1Z"/>
    <path data-fips-int="2130" data-name="Ketchikan Gateway Borough" d="M3355,1361l-18,-3 0,-1 -13,0 0,-1 0,-2 0,-1 3,20 -3,-1 -15,-18 0,-1 3,-3 -10,-31 2,-3 2,-1 1,-2 0,-1 42,16ZM3364,1268l5,20 13,8 30,41 -13,60 0,1 -2,4 -2,1 -1,-1 0,-2 0,-1 0,-1 -37,-51 0,-2 -2,-1 0,-1 -48,-36 0,-1 0,-2 0,2 -1,0 0,2 -2,1 -2,2 0,1 -1,2 0,1 -4,6 -5,8 -10,27 -1,0 1,0 4,-9 1,0 4,-40 1,0 15,-3 0,-45Z"/>
    <path data-fips-int="2110" data-name="Juneau City and Borough" d="M3014,1097l30,-11 89,55 -9,28 -1,10 -4,6 -1,0 -49,-31 0,-1 -5,-2 -1,-1 -7,-1 -2,2 -1,0 -20,-16 -7,-5 -3,-4 -4,-15 0,-1 0,-1 0,-2 0,-3 -1,-2 0,-1 -2,0 0,-2 -2,-1Z"/>
    <path data-fips-int="2100" data-name="Haines Borough" d="M3044,1086l-30,11 0,1 -10,3 -23,-30 0,-1 17,-7ZM2980,1069l1,2 14,22 -7,-4 0,-1 11,23 17,24 -2,0 0,2 2,1 0,1 2,0 15,28 1,3 0,1 0,1 -1,1 0,1 0,-1 0,1 -25,-14 -2,-3 0,-3 -2,-1 0,-1 -18,-18 2,-18 -22,-19 -16,-1 -9,1 -10,0 -3,0 -3,-35 26,-23Z"/>
    <path data-fips-int="2220" data-name="Sitka City and Borough" d="M3091,1313l0,-1 0,-2 -3,1 0,2 -5,7 0,-3 0,-3 0,-1 0,-2 -2,-2 -2,0 0,1 -1,2 -4,1 -3,-1 -2,-1 0,-1 -3,-16 -2,-6 -1,0 -9,-10 -1,-7 -4,1 -3,3 -2,-2 -1,-1 0,-1 -5,-2 -4,-4 4,-7 0,-3 0,-1 0,-1 0,-3 30,-2 8,8 3,3 0,-1 49,92 0,1 1,3 2,5 -2,-4ZM2988,1235l-3,-2 16,-7 0,-1 2,-18 3,1 15,25 2,2 10,5 5,10 0,3 0,1 0,1 0,3 -4,7 -33,-22 0,-1 0,-1 -2,0 -8,-4 0,-1 -1,1Z"/>
    <path data-fips-int="2282" data-name="Yakutat City and Borough" d="M2782,1130l-22,-10 2,-4 1,0 4,-16 -2,-1 -5,-23 0,-1 -28,39 -125,-9 -62,25 22,-59 108,-15 57,5 36,-29 2,27 106,59 14,30 -17,17 -33,-19 1,-1 -1,0 -47,-11Z"/>
    <path data-fips-int="2180" data-name="Nome Census Area" d="M1236,788l5,3 14,7 0,1 21,-9 67,48 -38,34 -47,-60 0,-1 -2,1ZM1704,709l0,1 -50,21 -30,35 -40,-28 -57,9 -49,-20 -20,-57 21,-13 -68,-40 13,-17 2,-1 0,1 -2,0 0,1 0,1 12,-6 0,-1 15,-7 20,-10 8,-6 43,-1 0,-1 -1,-19 1,-1 7,-3 5,-2 27,-9 13,-4 0,81 17,37 166,8 8,-9 0,62 -16,17 10,98 -47,25 -7,54 -53,-2 -26,-28 28,-22 -2,4 0,1 4,1 56,-32 -23,-65 15,-52 1,-2Z"/>
    <path data-fips-int="2232" data-name="Hoonah-Angoon Census Area" d="M3204,1200l-53,40 -3,-24 -25,-42 1,-3 0,-2 9,-28ZM3103,1194l0,-1 -9,-9 -1,-2 -9,-7 0,-1 -1,0 1,8 2,2 0,3 0,1 13,8 24,26 -5,16 -4,17 0,2 -26,-23 -2,-3 2,1 0,-1 0,-1 0,-2 -2,0 0,1 -32,-50 0,-2 0,2 22,-13 0,-1 5,-5ZM3011,1199l0,1 2,1 -7,5 0,1 0,-1 0,1 2,-1 13,-16 5,-4 20,30 -40,-8 -3,-1 -2,18 -2,0 -1,-1 -2,0 -5,-2 0,-2 -1,0 -17,-10 0,-8 -2,-8 15,-4 2,0 23,9ZM2988,1160l-2,-1 0,-2 -5,-4 -8,-11 0,-1 0,-1 -7,-6 7,-11 0,-3 -3,1 0,2 -7,16 0,1 8,20 2,1 -10,29 -3,0 0,-1 -5,12 -59,-26 -23,-10 17,-17 38,-51 3,0 10,0 9,-1 16,1 22,19 -2,18 18,18 0,1 2,1 0,3 2,3 -20,2 0,-1Z"/>
    <path data-fips-int="2275" data-name="Wrangell-Petersburg City and Borough" d="M3307,1259l0,45 -15,3 -1,0 -4,40 -1,0 -4,9 -1,0 -7,-7 0,-1 -2,-1 4,-32 0,-2 0,-1 -5,-18 -2,-1 -2,-2 -1,-1 0,-1 -2,-2 -7,-2 0,1 -23,-21 2,0 0,-2 0,-2 0,-1 0,-1 0,1 -2,1 0,1 0,1 -2,1 -3,0 0,1 -2,0 -6,-1 15,-27Z"/>
    <path data-fips-int="2280" data-name="Petersburg Census Area" d="M3149,1288l0,-6 2,0 10,10 0,1 0,-1 0,1 2,1 1,0 2,3 -3,35 0,1 -17,-10 8,0 0,-1 -5,-2 -10,-12 0,-1 0,1 0,-1 -1,0 0,1 -4,1 0,-1 -11,-20 1,1 2,-1 -2,-1 -1,0 -4,-2 30,7 0,1 0,-1 0,-1 0,-2ZM3196,1261l0,1 -2,2 2,1 0,1 1,3 0,1 4,3 0,1 1,1 0,1 0,6 -1,1 -20,-11 0,3 16,15 4,2 0,1 -10,10 -25,-6 -2,-3 -1,0 0,-2 -2,-5 0,-1 0,1 0,-1 -2,-1 -1,-5 0,-1 -4,1 -8,-8 -2,-1 -1,-1ZM3204,1200l32,37 -15,27 -27,-21 2,1 -45,-4Z"/>
    <path data-fips-int="2198" data-name="Prince of Wales-Hyder Census Area" d="M3212,1323l2,6 7,7 1,-1 4,1 0,2 1,0 0,-1 5,-2 34,24 0,1 -7,-1 0,1 7,0 26,12 -28,-3 0,13 -3,1 21,-8 -6,8 0,1 20,11 0,1 0,1 6,-1 5,12 0,1 2,0 0,5 3,0 0,-1 4,-4 1,1 2,1 2,10 0,1 -12,21 0,-1 0,-1 -2,-2 0,-5 0,-1 -5,-3 -5,-1 0,1 0,1 -5,1 0,-4 0,-1 0,-1 0,1 0,1 -20,-24 0,-1 0,1 -1,9 -5,-1 -2,-3 -3,1 0,1 -2,1 -2,1 -5,-3 -1,1 -2,1 -7,1 -1,-12 1,0 9,-1 3,-1 -3,0 -5,-1 -4,-2 -5,-3 0,-10 0,-3 0,-1 -1,0 -2,0 -8,6 -7,-1 -2,-1 -3,-7 3,-3 0,-1 4,-3 -2,-12 -2,-1 -5,-2 0,-1 -6,-15 -4,-6 -1,0 0,1 -5,1 0,1 -2,1 0,-1 -5,0 0,1 -7,-2Z"/>
  </g>
  <g class="cities">
    <circle r="3" cx="223.2" cy="106.1"/>
    <text x="223.2" y="106.1">Anchorage</text>
    <circle r="3" cx="227.3" cy="68.0"/>
    <text x="227.3" y="68.0">Fairbanks</text>
    <circle r="3" cx="306.7" cy="115.2"/>
    <text x="306.7" y="115.2">Juneau</text>
  </g>
</svg>