<?xml version="1.0" encoding="utf-8"?>
<!DOCTYPE svg PUBLIC "-//W3C//DTD SVG 1.1//EN" "http://www.w3.org/Graphics/SVG/1.1/DTD/svg11.dtd">
<svg version="1.1" xmlns="http://www.w3.org/2000/svg" width="350" height="198" viewBox="0 0 350 198">
  <defs>
    <pattern id="pattern-no-results" width="50" height="50" patternUnits="userSpaceOnUse">
      <rect width="50" height="50" fill="#ddd"/>
      <path d="M-5,5L5,-5M-5,55L55,-5M45,55L55,45" stroke-width="10" stroke="#666666"/>
    </pattern>
  </defs>
  <g class="counties" transform="scale(0.1)">
    <path data-fips-int="2068" data-name="Denali Borough" d="M2268,732l13,6 33,-6 9,42 7,36 -47,10 2,14 -66,10 -101,68 0,7 -51,4 22,-47 -1,-14 -18,-3 -5,-30 27,-3 -1,-17 8,-1 -1,-18 10,-2 0,-7 10,-2 7,7 6,-2 19,-38 71,-8 0,1Z"/>
    <path data-fips-int="2090" data-name="Fairbanks North Star Borough" d="M2432,664l-20,13 -18,7 -3,8 -11,5 -6,7 -10,-2 -9,9 -10,6 -8,9 -5,2 -18,4 -33,6 -13,-6 -2,-2 -3,-3 -1,0 -1,-1 -1,0 1,0 -1,-1 0,1 0,-1 -2,-4 -1,-1 0,-1 -3,-1 -1,-1 -1,0 1,0 -1,-1 0,1 -1,-1 1,0 -1,0 -1,0 0,-1 0,1 0,-1 -2,-3 -1,0 -1,-2 -1,0 0,-1 0,1 0,-1 -1,0 -7,2 -10,-63 46,-7 8,-8 18,-3 16,-13 -2,-5 14,-6 8,3 -4,11 3,6 18,3 4,4 -6,7 6,3 18,-7 12,-9 20,3 4,-6 14,-4 4,6 -6,5 5,3 -1,20Z"/>
    <path data-fips-int="2170" data-name="Matanuska-Susitna Borough" d="M2357,838l4,21 3,1 14,70 -26,5 10,43 6,35 -13,1 1,6 -59,9 -36,6 -2,-5 -8,-2 -12,4 -10,12 0,13 -26,5 -7,-3 -17,11 -1,-6 -17,2 -2,-18 -81,8 -7,-88 -4,-45 51,-4 0,-7 101,-68 66,-10 -2,-14 47,-10 21,-4Z"/>
    <path data-fips-int="2240" data-name="Southeast Fairbanks Census Area" d="M2527,518l27,94 68,245 13,49 -38,11 -6,-23 -8,-2 -8,-34 -7,2 -3,-9 -8,2 -2,-8 -19,2 -2,12 -9,1 -7,-2 3,-13 -8,-8 4,-8 -9,-18 -64,15 -26,3 -2,-8 -43,8 0,4 -16,5 -6,-32 -21,4 -7,-36 -9,-42 18,-4 5,-2 8,-9 10,-6 9,-9 10,2 6,-7 11,-5 3,-8 18,-7 20,-13 12,1 2,-1 1,-1 5,-20 -2,-14 2,-6 8,-8 0,-1 0,1 3,-3 2,-3 8,-12 -1,-3 0,-2 -1,-2 -1,-1 -1,-1 4,-9 8,-2 0,-1 0,1 0,-1 10,-9 5,0 8,-1 6,-9 1,-3 3,-3 0,-3 5,-17 2,-3 2,-6 2,-1 2,-3Z"/>
    <path data-fips-int="2290" data-name="Yukon-Koyukuk Census Area" d="M2456,257l39,144 8,30 24,87 -2,3 -2,1 -2,6 -2,3 -5,17 0,3 -3,3 -1,3 -6,9 -8,1 -5,0 -10,9 0,1 0,-1 0,1 -8,2 -4,9 1,1 1,1 1,2 0,2 1,3 -8,12 -2,3 -3,3 0,-1 0,1 -8,8 -2,6 2,14 -5,20 -1,1 -2,1 -12,-1 -6,-10 1,-20 -5,-3 6,-5 -4,-6 -14,4 -4,6 -20,-3 -12,9 -18,7 -6,-3 6,-7 -4,-4 -18,-3 -3,-6 4,-11 -8,-3 -14,6 2,5 -16,13 -18,3 -8,8 -46,7 10,63 7,-2 1,0 0,1 0,-1 0,1 1,0 1,2 1,0 2,3 0,1 0,-1 0,1 1,0 1,0 -1,0 1,1 0,-1 1,1 -1,0 1,0 1,1 3,1 0,1 1,1 2,4 0,1 0,-1 1,1 -1,0 1,0 1,1 1,0 3,3 2,2 -47,7 0,-1 -71,8 -19,38 -6,2 -7,-7 -10,2 0,7 -10,2 1,18 -8,1 1,17 -27,3 5,30 18,3 1,14 -22,47 4,45 -3,9 -15,1 1,9 -16,1 1,10 -53,3 -105,4 0,-10 -69,3 0,9 -35,0 0,8 -60,-1 -18,-1 1,-26 -7,0 2,-36 2,0 1,-34 7,-12 1,-27 8,0 0,-27 9,0 0,-7 18,0 0,-9 8,0 0,-9 10,0 -1,-27 -10,0 1,-71 8,0 0,-18 9,1 0,-36 8,1 0,-27 -8,0 0,-44 26,0 0,-17 44,0 0,-36 34,-1 0,18 18,-1 0,-17 17,-1 0,8 8,0 1,9 17,-1 0,-27 27,-1 -1,-15 26,-2 2,-9 -2,-36 -7,0 -1,-9 -17,1 -1,-26 2,-9 -9,0 -1,-9 -8,1 -1,-9 -8,0 1,-23 87,-6 130,-14 81,-14 53,-9 -9,-48 30,-9 98,-21Z"/>
    <path data-fips-int="2013" data-name="Aleutians East Borough" d="M1564,1769l11,5 3,7 -14,-3ZM1596,1721l2,11 -4,4 -7,-10ZM1510,1708l13,1 5,8 6,24 8,-2 8,9 -22,-5 0,7 -10,3 -27,-3 -18,8 -6,10 -14,3 -12,-4 -2,-19 14,-6 10,-21 9,-3 10,3 6,-6ZM1624,1702l10,6 -6,7 -9,-11ZM1719,1726l9,-12 -2,-11 15,3 -3,8ZM1710,1687l1,11 -12,-6ZM1689,1682l6,8 4,18 -14,-5 -3,7 -2,-16ZM1794,1533l0,1 0,7 -8,5 0,9 -14,-1 0,10 -18,-1 0,9 -17,0 0,18 5,0 0,34 -4,10 17,0 0,25 -3,7 -7,-4 7,-19 -13,-5 -7,3 -9,14 -16,7 -7,13 -5,-13 -4,14 -14,-6 -4,7 -14,9 -16,-1 2,-13 10,-11 -15,-3 -8,9 1,12 -13,17 -7,0 2,13 -6,3 -9,-5 2,7 -14,1 -5,-9 6,0 -5,-13 -10,-3 4,11 0,22 -5,-10 -1,8 -9,4 -8,-16 -11,-7 -2,11 10,9 -12,11 -8,1 6,-24 -8,-2 14,-9 20,0 -2,-8 15,-11 8,1 1,-9 -8,1 12,-10 12,-15 25,-18 30,-8 11,2 12,-3 3,6 -11,4 13,18 0,-16 18,4 0,6 13,3 1,-8 -13,-8 -5,-9 13,-29 21,-16 9,-10 25,-10Z"/>
    <path data-fips-int="2016" data-name="Aleutians West Census Area" d="M399,1823l15,11 2,11 10,14 -12,-11 -3,-10 -13,-10ZM708,1897l-3,11 -7,-1 4,-13ZM600,1860l8,2 5,15 -5,10 -7,2 -9,-6 12,-3 -13,-18ZM648,1896l-27,-6 31,-5 4,-11 6,5 -14,17ZM674,1894l8,-4 -4,-9 18,-1 -9,12 11,3 -1,11 -11,3 -16,-4 -8,6 -2,-6ZM468,1806l6,8 -11,7 -6,-5 0,-9ZM724,1875l8,11 -6,4 -8,-5ZM352,1753l2,5 -13,8 -15,5 -7,-5 19,-2ZM884,1911l0,5 33,9 -38,-3 0,-2 -22,-6 -2,-7ZM956,1902l6,8 -16,4 -5,-4ZM852,1875l7,15 -6,6 -8,-3 4,11 -22,-2 -18,5 -16,-6 -16,-1 22,-6 0,3 19,3 4,-7 13,2 8,-7 -10,-4 7,-7ZM143,1626l-7,14 -5,-7 -14,-7 17,-3ZM1069,1892l2,10 -12,5 0,-11ZM1127,1883l6,2 -5,10 -15,-11ZM112,1557l15,8 -2,6 10,5 -13,9 -4,-6 -10,4 -10,-9 7,-7 -11,-3 4,-4 -11,-5 15,-3ZM1168,1895l15,-9 8,-11 1,-12 12,-8 15,4 -4,-7 3,-10 16,-10 12,1 10,5 -4,12 -19,10 -9,0 -18,20 -15,7ZM1361,1818l-8,13 -4,-10ZM1335,1812l0,-1 11,-6 9,3 -25,20 17,-6 3,9 -17,4 -5,11 -3,-5 -8,13 -13,-6 -6,5 -14,3 -21,10 -13,-9 24,-9 9,5 9,-11 7,2 -5,-9 8,1 1,-11 21,0 -18,-5 -8,-9 6,-9 12,-5 15,0 -1,14ZM1375,1781l15,14 -24,3 0,-14ZM1403,1776l-4,8 7,1 -10,6 -5,-9 4,-7ZM1192,1509l14,4 -7,6ZM1182,1443l-11,10 -6,-8Z"/>
    <path data-fips-int="2020" data-name="Anchorage Municipality" d="M2259,1030l2,5 36,-6 8,59 -13,2 1,12 -14,2 -2,-11 -8,-10 -8,3 -14,-3 -24,-15 6,-6 8,-18 20,-14Z"/>
    <path data-fips-int="2050" data-name="Bethel Census Area" d="M1433,1150l2,11 12,-1 7,5 -3,25 6,9 -1,7 -19,1 -11,4 3,8 -18,-13 -7,0 -15,-14 -19,-13 -2,-14 12,-2 17,4 2,-7 12,-2 5,-6 5,5ZM1104,1077l1,13 13,14 8,2 7,8 -25,-10 -7,-14 -6,-4ZM1520,1152l-2,1 -2,1 -2,1 -2,0 0,1 -3,7 -1,0 0,1 0,2 -4,5 -9,-3 -11,-13 10,-9 -21,0 22,-21 -3,-6 16,-10 3,9 19,4 2,12 -9,9 -8,3ZM1656,1303l0,-1 -13,-1 -4,5 -7,-17 4,-13 14,-12 -8,-17 0,-6 -15,-34 2,-13 -6,-6 -8,-8 8,-9 8,-22 -4,-2 -8,24 -10,8 7,12 -3,16 -4,4 -10,-2 -1,5 -20,9 -22,3 -16,-1 -12,-7 -1,-18 -9,-6 -5,-12 -7,-6 2,-10 0,-2 0,-1 1,0 3,-7 0,-1 2,0 2,-1 2,-1 2,-1 8,-15 7,-1 6,-10 13,2 -3,13 8,5 13,-14 -7,-9 -18,-6 12,0 8,-4 -12,-3 -9,7 -2,-18 -7,7 3,8 -22,1 -4,-9 -10,3 -2,-5 -14,1 8,-4 18,0 4,5 20,-7 2,-10 10,-8 -2,-17 16,5 7,-1 9,-12 8,3 16,-3 5,-5 13,-1 21,9 45,-10 12,-12 23,-9 10,-2 -12,-3 -4,-9 60,1 0,-8 35,0 0,-9 69,-3 0,10 105,-4 53,-3 -1,-10 16,-1 -1,-9 15,-1 3,-9 7,88 -22,2 2,29 4,24 -45,3 -78,5 -60,1 0,-9 -17,0 0,9 -9,1 1,9 -10,0 0,-8 -52,0 -4,18 -8,0 0,9 -9,-1 -1,18 -3,9 -9,-1 0,18 -8,0 -4,11 0,14 -8,1 -1,17 -12,0 0,18 -9,0 -3,27 -9,0 -1,8 -8,0 -4,27 -8,-1 -1,17 -2,2 -15,-1 1,9 -2,7 -17,10 -2,-6 -10,-3 9,-15 -3,-23Z"/>
    <path data-fips-int="2060" data-name="Bristol Bay Borough" d="M1880,1356l10,-13 4,-16 35,-2 0,29Z"/>
    <path data-fips-int="2070" data-name="Dillingham Census Area" d="M1700,1336l-11,22 -10,3 2,-15ZM1680,1333l-14,8 -1,-9ZM1784,1333l-2,1 2,1 0,-1 10,5 6,22 4,7 -4,9 -15,-1 -13,-28 -7,-11 -11,-5 2,-8 -6,0 -3,12 -6,3 -4,-9 -14,-3 0,-12 -5,-6 -26,19 -10,3 1,-17 8,1 4,-27 8,0 1,-8 9,0 3,-27 9,0 0,-18 12,0 1,-17 8,-1 0,-14 4,-11 8,0 0,-18 9,1 3,-9 1,-18 9,1 0,-9 8,0 4,-18 52,0 0,8 10,0 -1,-9 9,-1 0,-9 17,0 0,9 60,-1 5,125 -9,1 1,9 -18,0 1,9 -9,0 -5,19 -17,0 0,8 -8,0 0,19 4,0 1,21 -53,26 -8,-5 -5,-11 -8,-4 3,-5 4,-22 -1,-1 -1,1 1,0 -9,17 -8,1 0,15 -4,-6 -8,3Z"/>
    <path data-fips-int="2185" data-name="North Slope Borough" d="M1686,176l8,1 8,-9 10,0 19,-13 14,-11 8,-10 9,0 -4,21 6,14 -1,-19 4,-6 -7,-14 -5,1 15,-16 19,-9 -8,7 7,5 2,-6 15,3 21,-5 10,-6 14,-14 16,-28 4,-3 8,7 12,1 0,7 17,0 2,9 -6,9 -19,7 11,3 -1,7 17,-4 -1,-9 8,-7 3,-9 6,9 5,-9 9,10 0,17 7,-2 7,6 8,-12 28,-5 1,1 11,3 3,7 4,-10 11,5 -6,20 4,3 1,-1 9,3 -16,0 -2,4 29,-4 -2,13 10,-1 12,5 2,-8 11,-5 7,5 0,1 -3,4 -1,1 1,3 1,-1 4,-4 4,-3 4,-2 14,-11 25,-1 10,5 0,1 2,1 9,0 8,7 8,-5 17,12 25,0 14,-6 25,1 -2,-4 26,13 20,-2 6,-6 14,-8 1,1 0,-1 -1,-1 10,-6 14,-4 19,3 27,13 23,7 8,8 6,-7 6,2 32,112 -53,15 -98,21 -30,9 9,48 -53,9 -81,14 -130,14 -87,6 0,-3 -36,2 -1,-10 -34,2 0,-9 -74,0 -24,-1 0,-6 -15,-1 1,7 -37,-1 0,-7 -16,-1 0,7 -17,-1 -1,-7 -27,-3 -1,8 -66,-5 -2,21 -33,-3 -18,-11 -7,-12 -15,-14 10,-4 -4,-3 8,-14 4,-32 21,5 14,1 35,-4 25,-15 21,-26 4,-12 1,-21 3,-8 0,-1 18,-16 1,-9 17,-17 3,-7 3,14Z"/>
    <path data-fips-int="2188" data-name="Northwest Arctic Borough" d="M1933,393l-1,23 8,0 1,9 8,-1 1,9 9,0 -2,9 1,26 17,-1 1,9 7,0 2,36 -2,9 -26,2 1,15 -27,1 0,27 -17,1 -1,-9 -8,0 0,-8 -17,1 0,17 -18,1 0,-18 -34,1 0,36 -44,0 0,17 -26,0 0,44 -9,0 0,9 -60,-2 -70,-4 -36,-2 1,-17 -8,-1 1,-18 -11,0 2,-36 -2,0 2,-35 -2,-11 22,0 3,14 -5,7 0,13 -5,4 7,15 0,1 1,1 1,-1 15,-1 8,4 8,-3 11,3 0,5 27,-4 4,6 0,1 5,-2 0,-1 11,-19 9,-3 10,9 -1,5 -1,1 -1,0 -1,1 1,0 4,-2 0,-3 1,-1 1,-1 0,-1 0,-1 1,-1 -1,0 -4,-13 -16,-7 -16,3 2,-15 -12,-20 -12,-4 -4,-15 14,-6 10,17 -3,13 6,11 14,12 16,-10 13,17 9,2 16,-3 1,-9 0,-1 0,-1 -6,-12 -12,3 -8,-8 -12,2 -3,7 -1,2 -9,2 -15,-19 0,-10 8,-14 6,-4 -11,-7 -26,5 -11,-7 -14,0 -22,-8 -3,-27 -10,-26 -14,-13 -30,-33 33,3 2,-21 66,5 1,-8 27,3 1,7 17,1 0,-7 16,1 0,7 37,1 -1,-7 15,1 0,6 24,1 74,0 0,9 34,-2 1,10 36,-2Z"/>
    <path data-fips-int="2270" data-name="Wade Hampton Census Area" d="M1536,920l-15,15 -1,-5 0,-5 0,-2 -1,-7ZM1553,905l0,-1 3,14 6,12 -2,11 -5,-11 -19,-10 -8,-1 -8,-8 11,-18 15,2ZM1580,893l-10,6 0,2 1,2 0,1 -1,2 0,1 -2,-1 -1,2 -4,0 -2,-1 -8,-3 0,1 -8,-11 -7,-2 -2,-9 10,-9 15,-3 15,7ZM1627,874l10,1 0,9 8,0 0,9 8,1 0,8 52,3 -7,12 -1,34 -2,0 -2,36 7,0 -1,26 18,1 4,9 12,3 -10,2 -23,9 -12,12 -45,10 -21,-9 -13,1 -5,5 -16,3 -8,-3 -9,12 -7,1 -16,-5 2,17 -10,8 -2,10 -20,7 -4,-5 -18,0 -8,4 -2,-7 13,0 -9,-15 -10,-7 6,-6 8,-16 7,-4 -9,3 -1,7 -12,15 0,13 -9,-2 -3,-15 3,-7 -11,-2 -2,-6 0,-1 0,-1 0,-2 8,-8 -8,-7 -10,5 0,-14 19,-3 -11,-6 -2,-10 23,-1 -5,-9 1,-15 36,-43 10,1 -1,6 13,5 -12,-15 17,-13 14,3 15,25 -3,-12 1,-15 -6,-8 0,-9 5,-2 2,1 4,0 1,-2 2,1 0,-1 1,-2 0,-1 -1,-2 0,-2 10,-6 6,-5 4,9 15,-2 10,-14 12,-7Z"/>
    <path data-fips-int="2164" data-name="Lake and Peninsula Borough" d="M2062,1111l3,8 3,36 -7,1 3,35 -6,1 2,34 -6,1 0,9 -8,1 1,18 -8,0 0,9 -14,1 1,18 -17,2 0,18 4,-1 2,35 3,9 17,-1 2,19 -8,10 -14,7 -14,2 -3,6 -14,5 1,32 -10,9 -8,1 -4,13 -7,0 2,7 -11,2 -3,8 -13,-1 -5,5 -3,15 -5,0 -7,18 22,-1 -6,5 0,1 -8,7 4,5 -11,-1 -4,10 -6,-5 -7,13 -9,6 -8,-9 -2,9 -7,3 5,12 -12,2 -4,-7 -10,4 -12,12 18,-4 -2,9 -17,-4 2,5 -12,-1 -9,13 17,6 -10,8 -8,24 -5,-13 8,-9 -12,5 0,20 -10,-7 -4,9 -18,3 -13,9 -4,-5 2,10 -4,12 0,-25 -17,0 4,-10 0,-34 -5,0 0,-18 17,0 0,-9 18,1 0,-10 14,1 0,-9 8,-5 15,4 -4,-22 13,-23 8,-9 17,-12 3,-7 12,-10 7,9 -1,-14 -5,1 5,-52 3,-7 13,-1 1,-1 -9,0 -7,-10 5,-20 10,-11 49,-2 0,-29 -35,2 0,-7 -9,10 -1,-21 -4,0 0,-19 8,0 0,-8 17,0 5,-19 9,0 -1,-9 18,0 -1,-9 9,-1 -5,-125 78,-5Z"/>
    <path data-fips-int="2150" data-name="Kodiak Island Borough" d="M1983,1643l-8,0 8,-14ZM2040,1554l-5,11 -10,10 3,-12ZM2062,1554l-8,10 -6,-8 12,-5ZM2105,1487l19,4 -18,9 -7,8 -3,-10ZM2086,1411l11,7 3,8 -18,-10ZM2128,1416l0,1 2,-1 0,-1 13,2 1,7 0,12 -2,7 16,-4 -7,22 -33,-6 18,9 -4,14 -6,1 -10,-7 -10,4 13,5 -9,6 -8,-2 -10,12 -14,7 10,5 -17,25 -14,4 3,-10 12,-10 -6,-3 7,-21 -14,21 -2,-9 8,-8 -15,-2 -14,6 8,5 2,-6 11,-2 -1,18 -8,4 -13,-7 -2,-19 -5,-8 -7,-2 0,-15 18,-23 19,-1 8,22 8,11 -5,-21 -3,-14 14,0 -17,-5 -2,-11 11,-9 10,12 13,5 0,-1 -10,-11 15,4 -2,-11 11,7 -9,-11 14,-3 7,3 -5,8 10,2ZM2098,1395l6,2 8,10 -15,-6 -11,0 6,-9ZM2142,1359l7,8 5,-4 8,14 -4,8 -14,-8 4,11 -16,5 -2,-12 -2,16 -6,8 -15,-5 -11,-10 2,-6 16,4 -12,-8 2,-6 13,1 3,-5 -8,-6 9,-5 11,-4 1,13 5,-1 0,1 2,2 0,-1 2,-10ZM2123,1346l16,-8 -4,14 -1,1 -11,-2ZM2088,1319l-2,1 -1,0 -5,15 -7,8 -17,4 0,11 -8,3 6,9 -14,11 0,-1 4,-1 3,9 -10,7 2,8 -9,-10 1,10 -8,-4 3,9 -25,2 -5,18 -10,3 -2,12 -13,-7 2,13 -8,4 0,8 -16,-1 -2,13 -6,-4 -18,16 10,0 -3,12 3,5 -22,1 7,-18 5,0 3,-15 5,-5 13,1 3,-8 11,-2 -2,-7 7,0 4,-13 8,-1 10,-9 -1,-32 14,-5 3,-6 14,-2 14,-7 8,-10 -2,-19 26,-2 -1,-9 19,-2 -1,-12 7,0 1,0Z"/>
    <path data-fips-int="2122" data-name="Kenai Peninsula Borough" d="M2277,1093l2,11 14,-2 5,0 1,6 3,17 0,4 5,3 7,49 -4,2 -22,0 2,-8 -7,1 -4,16 -7,-24 1,14 -8,9 -2,10 -6,-8 -3,8 4,12 -8,-2 -4,13 -3,-3 -10,20 -2,-7 4,-21 -7,19 -1,0 -10,4 2,11 -7,1 -7,14 1,5 -16,-4 6,8 -10,2 -6,-4 -15,12 -14,-8 3,-18 12,-8 10,0 -1,-6 9,-7 13,-22 -8,2 -17,17 -8,0 -13,-11 5,-28 14,-23 -1,-13 4,-2 -1,-17 -8,-17 16,-9 16,-18 14,-11 10,10 7,1 10,-7ZM2086,1320l-1,0 -7,0 1,12 -19,2 1,9 -26,2 -17,1 -3,-9 -2,-35 -4,1 0,-18 17,-2 -1,-18 14,-1 0,-9 8,0 -1,-18 8,-1 0,-9 6,-1 -2,-34 6,-1 -3,-35 7,-1 -3,-36 -3,-8 -4,-24 -2,-29 22,-2 81,-8 2,18 17,-2 1,6 -7,16 -15,5 -14,17 6,15 -7,-2 -8,6 -3,10 -10,10 5,11 -7,11 -11,9 -15,-1 13,6 6,8 -4,17 -17,5 -12,9 15,-2 -2,11 -8,9 -10,0 3,-9 -5,-3 -6,22 -12,2 6,10 -15,7 -5,8 -1,29 5,-5 17,-1 23,13 1,7Z"/>
    <path data-fips-int="2261" data-name="Valdez-Cordova Census Area" d="M2529,1135l-14,23 5,-16ZM2336,1151l-3,18 -7,-6ZM2379,1128l11,4 -12,17 -6,29 -18,14 -5,-1 4,-14 15,-20ZM2406,1108l7,-1 3,7 11,-3 -2,9 -9,3 -10,12 -4,-5 7,-8 -10,2 0,-8ZM2342,1143l4,-9 -3,-10 11,-1 -3,29ZM2310,1183l4,-2 -7,-49 -5,-3 9,-10 10,4 7,-12 9,16 -9,6 -1,13 6,8 -8,7 -10,19ZM2440,1090l0,5 -18,14 -5,-6ZM2302,1125l-3,-17 5,-10 7,-3 3,12 2,-11 7,14 -6,9 -6,-4ZM2325,1077l7,10 -10,4ZM2340,1084l-5,2 -10,-9 3,-18 7,-18 -10,17 -3,11 -5,-9 -1,15 -5,0 2,13 -15,14 -5,0 -1,-12 13,-2 -8,-59 59,-9 -1,-6 13,-1 -6,-35 -10,-43 26,-5 -14,-70 -3,-1 -4,-21 16,-5 0,-4 43,-8 2,8 26,-3 64,-15 9,18 -4,8 8,8 -3,13 7,2 9,-1 2,-12 19,-2 2,8 8,-2 3,9 7,-2 8,34 8,2 6,23 38,-11 41,149 -11,-1 -28,7 -2,-8 -66,16 -24,56 1,5 -22,-14 -9,3 -11,-2 -10,-8 -7,3 0,-8 2,-4 0,-8 -2,-2 -8,-1 0,1 0,1 0,1 -1,3 -8,16 -25,-9 -6,4 6,-17 -3,-3 -13,4 3,-9 -4,3 -12,5 7,-8 -7,-2 -8,7 -12,3 20,-21 -10,6 -12,1 -8,-11 5,-15 17,-3 -2,-4 -16,3 -13,21 -9,-5 -10,14 -8,0 -1,-17 -4,-6 -1,11 3,18 -9,-8 2,9 0,1Z"/>
    <path data-fips-int="2130" data-name="Ketchikan Gateway Borough" d="M3358,1394l0,1 5,10 -4,4 -12,-3ZM3323,1373l3,16 -5,2 -9,-12 -1,-11ZM3336,1357l-2,6 -8,-10 -2,0 7,11 -2,9 -21,-9 3,-11 -9,-17 5,-5 -8,-5 9,-2 -6,-8 15,-13 15,9 16,17 9,37 -5,9 -9,-2 1,-17 -4,2 4,9 -10,4 4,-17 -13,-16ZM3364,1268l5,8 -6,9 6,3 12,7 0,1 9,16 22,25 -3,9 1,28 -7,21 -5,1 0,1 -1,6 -2,0 -1,-4 -7,7 -6,-3 -12,-21 -10,-8 5,-19 -5,-7 0,-1 0,-1 -1,-1 -1,-2 -12,-24 -27,-18 -8,6 -2,-1 -2,0 -11,18 5,21 -2,19 -10,-2 -6,-6 8,-8 -1,-12 -7,-5 4,-9 -2,-9 6,-11 14,3 6,-3 -9,-9 7,-11 8,-2 2,-11 -9,-10 16,-3 13,6 8,-2 7,8Z"/>
    <path data-fips-int="2110" data-name="Juneau City and Borough" d="M3061,1166l14,-1 1,1 -9,7 -4,9 -8,-5 -2,-6 0,-1 0,-2 0,-4ZM3065,1152l12,6 -18,3 -4,-10ZM3015,1097l30,-11 8,9 25,4 11,9 23,11 -3,5 24,17 -8,28 -3,10 -2,6 -1,0 -29,-22 -7,-16 4,-6 -5,-7 1,16 -5,6 -13,-4 -21,-5 -4,-7 -13,-11 -1,0 -9,-28 0,-1ZM3018,1111l1,9 -9,-6 -6,-13 10,-4 3,3 0,1Z"/>
    <path data-fips-int="2100" data-name="Haines Borough" d="M3045,1086l-30,11 -1,0 -10,4 -10,-15 -10,-9 -2,-8 16,-6 5,5 14,-2 3,5 12,2ZM2980,1069l2,12 -7,1 15,11 6,17 20,21 -3,5 11,10 10,17 0,7 -1,3 -9,1 -19,-22 9,-3 -18,-15 -13,-1 0,-11 6,-6 -16,-18 -11,-3 -32,2 -7,-20 9,-3 0,-10 -8,-2 18,-13 8,-11Z"/>
    <path data-fips-int="2220" data-name="Sitka City and Borough" d="M3037,1270l3,4 1,0 9,9 0,15 -10,5 -12,-33ZM3090,1313l1,0 0,-2 -7,11 -3,-13 -11,2 3,-8 -8,-6 7,-9 -8,0 -1,0 -4,-4 -2,-16 -4,3 -1,0 -5,4 -12,-11 11,-2 -8,-3 -1,-11 5,-7 8,5 18,1 9,-3 5,10 -3,5 8,6 30,48 11,32 0,6 3,8 -34,-27 0,-8 -9,-2ZM2988,1235l-4,-3 1,0 17,-6 0,-1 0,-17 33,9 12,6 12,-11 15,23 -1,5 -11,4 -7,-4 -41,-12 20,12 5,14 -5,11 -22,-9 -12,-12 0,-3Z"/>
    <path data-fips-int="2282" data-name="Yakutat City and Borough" d="M2782,1129l-1,0 -25,-6 5,-7 9,-15 -14,-16 4,-11 14,13 2,-4 -18,-15 -2,12 -8,15 -19,19 -29,4 -32,-7 7,-7 -11,-21 -7,6 11,10 -16,8 -10,-2 -34,0 -15,3 -12,7 -16,4 -19,11 -1,-5 24,-56 66,-16 2,8 28,-7 11,1 3,8 25,3 1,-10 26,6 10,-19 29,-11 2,28 9,7 20,3 5,9 10,7 60,32 13,23 2,8 -18,16 -2,-6 -10,-7 -21,-7 -6,-10 -6,10 -16,-7 -30,-9Z"/>
    <path data-fips-int="2180" data-name="Nome Census Area" d="M1637,838l3,9 -15,-2 2,-6ZM1242,791l12,7 18,-7 15,1 7,10 0,12 18,9 2,7 13,4 2,6 10,-4 13,6 -11,15 -18,-7 -14,11 1,8 -11,1 3,-10 -8,-10 -12,-9 0,-8 -13,-14 -11,-7 -20,3 -10,6 -11,-9 -2,-15 8,-14 2,-12 7,20ZM1705,708l-1,0 -5,0 -11,16 -13,-4 -10,10 -12,2 -2,6 -14,8 -5,15 -7,5 -2,-18 -16,-15 -5,6 13,8 -4,10 -13,-14 -9,-4 -29,-1 -19,3 -11,6 -19,-8 -32,-11 -8,-8 -2,-16 5,-1 -1,-11 -11,-8 -6,-14 16,-1 7,-11 14,4 6,15 9,4 16,-11 -16,1 -15,-5 -3,-10 -28,-12 -23,-6 -28,-23 3,-10 12,-6 -1,1 -8,5 0,7 9,-7 13,-1 -1,-9 11,-5 4,4 14,-6 -3,-4 13,-10 19,-8 6,7 16,2 8,-4 -15,-8 9,-12 15,-6 12,0 13,-9 14,-4 2,11 -2,35 2,0 -2,36 11,0 -1,18 8,1 -1,17 36,2 70,4 60,2 0,-9 9,0 8,0 0,27 -8,-1 0,36 -9,-1 0,18 -8,0 -1,71 10,0 1,27 -10,0 0,9 -8,0 0,9 -18,0 0,7 -9,0 0,27 -8,0 -1,27 -52,-3 0,-8 -8,-1 0,-9 -8,0 0,-9 -10,-1 16,-20 1,-6 9,9 2,2 26,-1 13,-4 6,-12 11,-14 1,-6 -7,-24 -1,-19 -13,-16 -8,-3 0,-9 17,2 13,-13 -4,-20 -10,-9 6,-2Z"/>
    <path data-fips-int="2232" data-name="Hoonah-Angoon Census Area" d="M2998,1225l4,1 -17,6 -1,0 -1,1 -1,0 -3,-14 0,-1 0,-2 0,-1ZM2979,1215l0,1 0,2 0,1 1,13 -9,-4 -4,-18ZM3204,1200l-18,-1 -11,13 0,17 -13,0 -9,11 -1,-3 0,-1 -1,-8 16,-8 -16,2 0,-6 -11,-6 1,-10 -8,4 -6,-6 2,-8 26,5 -8,-6 -20,-4 -4,-11 1,-4 1,-1 8,-28 11,12 16,11 29,26ZM3093,1182l-9,-8 -3,5 8,9 36,31 -12,1 15,9 -3,8 -12,1 7,5 -6,14 -5,16 -6,2 -10,-19 2,-8 -4,-8 6,-1 -7,-8 -1,-3 -2,1 -16,-17 -3,-11 -12,-16 -1,-8 8,5 4,-9 9,-7 7,-6 -2,4 28,24 2,13ZM3011,1200l1,1 -4,6 1,0 9,-4 4,-18 4,1 14,-1 13,6 -2,10 -13,-1 19,8 -11,8 -16,-4 -28,-4 0,17 -4,0 -25,-15 -3,-4 5,-13 6,5 5,-8 4,2 7,-14 19,6 -1,13ZM3051,1162l2,2 0,4 0,2 0,1 2,7 -11,-10 -9,-17ZM2988,1160l-1,-1 0,-1 -5,-5 -10,-13 -8,-8 14,-12 -8,3 -3,5 -17,-18 12,20 0,9 -18,-1 -8,-12 -1,7 -17,0 -2,7 14,-2 9,9 7,-1 20,8 4,9 10,7 0,9 -21,1 9,8 -16,0 8,6 -17,0 -2,-6 -12,4 -32,-12 5,-8 -11,4 -18,-11 18,-16 25,-37 12,-4 2,-11 32,-2 11,3 16,18 -6,6 0,11 13,1 18,15 -9,3 5,12 -10,-2 -12,9 0,-9 -1,-1 0,-1Z"/>
    <path data-fips-int="2230" data-name="Skagway Municipality" d="M2998,1063l-16,6 -2,0 -30,-31 10,-10 15,5 15,9 1,14Z"/>
    <path data-fips-int="2275" data-name="Wrangell-Petersburg City and Borough" d="M3266,1317l0,1 6,7 -10,9 -9,-10 -13,-6 2,8 0,1 -11,-13 5,-5 0,-10 6,-4 6,10 20,5ZM3222,1291l8,4 2,12 -10,8 -14,-5 2,-14ZM3260,1305l-9,-2 -13,-23 19,6 5,0 10,10 -3,13ZM3309,1259l9,10 -2,11 -8,2 -7,11 9,9 -6,3 -14,-3 -6,11 2,9 -4,9 7,5 1,12 -8,8 -8,-7 0,-1 -1,0 -1,-1 6,-1 -2,-20 5,-8 -9,-16 9,-8 -9,1 -9,-10 -6,1 -19,-9 -3,-17 -1,1 0,1 -1,0 0,1 -1,1 -1,-1 -1,1 -10,-1 8,-2 2,-21 6,-3 15,3 11,18 12,-7 8,4Z"/>
    <path data-fips-int="2280" data-name="Petersburg Census Area" d="M3203,1280l-8,-15 8,-4 23,13 -11,15 -7,2ZM3151,1288l0,-6 7,0 1,31 6,3 -3,8 7,3 -2,6 4,13 -3,7 -8,-12 6,23 -8,-5 -10,-17 2,-8 -5,-8 10,-4 -20,-8 9,-12 -10,7 -10,-9 -5,-12 6,0 -2,-1 -1,-5 11,3 -9,-8 15,2 11,13 1,-4ZM3195,1265l8,15 -1,3 -19,-8 17,17 -2,10 -11,-1 -6,9 -7,2 -12,-20 -1,-6 -1,-1 -16,-14 -13,-6 6,-10 30,-3 14,-5 14,11ZM3204,1200l11,10 -1,14 19,-3 3,16 -6,3 -2,21 -8,2 2,-4 -19,-3 -14,-10 7,-2 -5,-3 -24,1 -14,-2 9,-11 13,0 0,-17 11,-13Z"/>
    <path data-fips-int="2198" data-name="Prince of Wales-Hyder Census Area" d="M3282,1435l11,14 -13,-7ZM3273,1416l1,1 4,12 -8,-3 -6,-11ZM3248,1413l10,9 1,10 24,12 11,13 -9,3 -28,-17 -7,-9 -7,-16ZM3335,1386l-7,-10 17,5 5,14 -14,6ZM3232,1409l10,10 -11,5 -4,-11ZM3208,1370l8,1 -7,9 -13,-5 6,-8ZM3381,1295l0,1 0,-1 -12,-7 -6,-3 6,-9 -5,-8 6,-5 10,8 3,8ZM3198,1333l6,-1 5,12 -3,5 -2,-4 -11,11 -1,8 -8,-2 2,-14 9,-6 0,-7ZM3213,1321l2,13 11,3 2,0 5,-3 16,6 13,9 2,11 -4,-1 11,-1 11,13 -18,-2 -1,14 12,-11 10,4 -9,7 10,-4 16,10 -6,6 -1,0 9,0 4,-8 4,8 0,20 6,-5 4,11 -1,0 -1,0 8,8 -5,14 -13,-1 -8,-12 -3,0 -1,0 0,1 -6,-4 -6,2 -1,-16 -27,-1 -2,-4 -16,5 -3,-10 15,-3 -15,-7 0,-13 0,-1 -3,0 -6,6 -10,-2 -1,-1 1,-9 4,-5 0,-14 -5,2 -13,-25 -6,2 -3,2 -12,-1 -4,-15 23,-6Z"/>
  </g>
  <g class="cities">
    <circle r="3" cx="223.1" cy="106.1"/>
    <text x="223.1" y="106.1">Anchorage</text>
    <circle r="3" cx="227.4" cy="68.0"/>
    <text x="227.4" y="68.0">Fairbanks</text>
    <circle r="3" cx="306.6" cy="115.2"/>
    <text x="306.6" y="115.2">Juneau</text>
  </g>
</svg>