<?xml version="1.0" encoding="utf-8"?>
<!DOCTYPE svg PUBLIC "-//W3C//DTD SVG 1.1//EN" "http://www.w3.org/Graphics/SVG/1.1/DTD/svg11.dtd">
<svg version="1.1" xmlns="http://www.w3.org/2000/svg" width="1000" height="564" viewBox="0 0 1000 564">
  <path class="state" d="M650,311l-11,-5 -3,-1 -1,-1 2,-2v-1v-3l5,-3 3,-2h-5v1l-4,8h-8v-1h-1v-2l-4,5 -11,9 -6,13 -2,13 -6,11 -11,6 -5,15 7,-1 7,6h-1l-16,25 -8,1 -22,21 3,5 -13,12 -19,8 -4,16 -14,2 -1,7 -8,-5 -19,12 -6,-8 -7,15 -9,2 -2,-7 1,7 -14,5 2,-8 13,-7 13,-15h21l3,-10 23,-17v2l8,-14 11,-8 2,-27 4,-4 4,-8 -3,1 -16,7 -4,-10 -9,4 4,8 -4,4 -7,-13 -12,-6 -7,5 -3,1v1l-5,2h-7l5,-11 -7,-3 3,-7 -5,-22 -3,4 -15,6 -10,-1 -5,-12 2,-8 9,-13 -17,-1 -9,-13v-1l-4,-4 9,-9 -1,-7 11,-13 8,-4 7,5 -2,-10 15,-4 6,-5 7,-5h10l7,-8 -2,-15 -7,-5 10,-5 -3,-10 -23,13 -7,-5 -21,4 -13,-6 -6,-16 5,-5 -19,-11 29,-18 18,-6h7l-2,15 1,1 21,2 5,-7 5,5 1,-3 9,-8 -6,-5 -12,-1 3,-11 -24,-3 -3,-15 -12,-13 -14,-12h4l3,-14 21,1 12,-11 2,-13 10,-10 22,-12v8l-1,-9 21,-6 11,-14 11,4 9,9 14,-4 9,2v7l4,4 12,-2 1,1 -1,1v2l8,-6 10,1 16,4 15,-2 13,3 6,-4 2,-2h10l19,6 1,1v2l2,5v1l1,3 1,4v1l1,4 1,2 1,4v1l2,4 1,6v2l1,5 2,4v3l3,11h1l5,18 1,3 1,4v2h1v1l1,6 1,1v1l1,4 1,2v2l1,4 1,4v1v1l1,1 2,6 1,4v2v1l1,3v1v2l2,2v2l1,1v1v1l1,4 1,2 2,6 1,5v1l1,3 2,4v3v1l2,6 1,7 1,4h1v1l1,6v1l2,2v2v1l2,6 1,2v1l1,2v2l1,2 1,4 1,2 1,5 2,8 1,3 2,5v2l3,14 1,2h1l7,-1h5l4,-5 9,-3 1,8 29,16 2,4 2,3v2h1l3,-5 3,-3 4,-3 1,-4v-1v-5h1l-2,-4 1,-1h1l1,-2 1,-1 1,-1 1,-1h10v-1l3,6h2l-1,1v1h1l1,1 3,-1v1l7,3 1,2h1l1,2 1,1 5,1 3,1h1l1,2h1h1l5,3 -1,1 2,1 5,4 7,7 14,10v1l2,6 5,-1 1,4v1h2h3v2l2,2 5,-1 1,1h2l3,1h1h2l10,1 1,1 1,1h2h2l5,1v2v5l6,8 2,17 -8,6 -7,-8v-9l-10,-15 -10,11 -2,7 -1,-2v-15l-12,-10h-1v1h-4l-19,-7 -8,-19 1,-1 -1,3 -1,1 -17,-10 -10,-6 -3,-8v-1v1l1,4 -4,-4 -6,-9h-1l-1,4 16,21 -8,-1 -5,3v-1l-1,-2 -13,-6 12,11 -3,5 -13,1 -15,-7 -6,-6 -19,-5 -6,-3 -1,-12 -7,11 -10,1 -27,-4 -17,7 -17,-4 1,-4 -15,2 3,-7 -15,2 5,-5 -6,-4h1v-1h-2h-1v-1v1v1v-1v1l-1,1 -2,2h-2l-3,2 -3,1v1v-1v1h-1l-1,1h-1h-1l-4,-6 -2,8h-1l-1,1h-1v1h-1l1,3v4v1h10l-7,16 -11,-3h-1v1l-3,10 -9,6 -10,12h-12l13,-17v-1l-1,1v-1l-11,4 5,-23 -1,-4 9,-12ZM432,487l5,4 -4,9 -10,-1 -11,6 -1,-7 6,-7ZM380,512l7,5 -9,11 -18,4 14,-12 -2,-6ZM334,541l17,-19 6,6ZM433,328l-3,5 -10,-7 12,-10 5,3ZM410,327l5,5 -2,12 -13,-1 -9,-11ZM446,247l6,5 -8,6 -6,-7ZM612,387l4,8 -10,5 -7,-4 12,-6 1,-3ZM607,403l6,1 -1,11 -8,4 -13,19v-12l-6,10 -8,-13 1,-7 11,-11ZM948,372l7,5 3,14 -13,-2 -3,-11ZM880,330l1,8 12,11 -5,14 -6,-13 -9,-15 -1,-2 1,2h-1v-1h-1v-1h-1v1v-1l2,-1h6ZM882,374l-13,-12 -1,-8 11,3 11,16 4,12 1,2 -13,-13ZM854,352l-1,-1h-1l6,-2 -9,-5 7,-9 4,6 -1,2 5,-6h7l-1,10 -12,-3 10,4 7,-2v8l-13,-4 5,10ZM351,219l1,6h16l2,6 15,9 -12,8 -14,-18 -8,3 -4,-8ZM902,366l-6,-9 17,1 1,13 -8,3ZM900,367l1,11 -9,-8v-6ZM922,381l14,9 -5,4 2,3 4,-5 8,3 6,15 -9,-2 -2,-1 -10,-8h1l-7,-6 -8,-14Z"/>
  <g class="subcounties">
    <path data-geo-id="2034" data-name="State House District 34" d="M861,312l7,-2 2,-1 1,2h1l-4,10h1l2,1v1v1h1h-1h1h2h1v1v-1h1h-1l-1,3 -10,-6 -3,-8Z"/>
    <path data-geo-id="2006" data-name="State House District 6" d="M567,228l1,-2h1l2,-2h1l1,-1h1v-1l2,-8h-2l-2,-1 -4,-8 2,-3v-1l-1,-1 1,-1 2,-1 3,-2v-2l-1,-3 1,-2v-1v-1v1v-1v-1v-1h1v-1h1h1l1,-1v-1l1,-1 1,-1v-1v-1h1v-1h1v-1v1v-1h1v-1h-1h1v-1v-1v-1v1v-1h-1v-1h1v-1h-1v-1h1l-2,-8 7,-2v-2v-1v1v-1h1v-4l2,-3h2l2,-2 1,1 1,-1h5h1v-1h1v-1v1l1,-1v1v-1l2,-1v-1v1v-1h1l2,-1h1l1,1h1l3,-6 12,-8 1,-2h1h1h2l1,-1 1,1h1h2h-2h2h2h2l2,-4v-1v-1l2,-1v-1l1,-2 1,-1 1,-1h1l1,-1v-15l-1,-5v-2l-1,-5 -1,-2h1l4,-1 2,-1 3,-1 7,-2h1h3h1h1l1,-1 4,-1h1h3l2,-1h1l2,-1h1h3l2,-1h1l1,-1h2l1,-1h1l2,-1h2l1,6v2l1,5 2,4v3l3,11h1l5,18 1,3 1,4v2h1v1l1,6 1,1v1l1,4 1,2v2l1,4 1,4v1v1l1,1 2,6 1,4v2v1l1,3v1v2l2,2v2l1,1v1v1l1,4 1,2 2,6 1,5v1l1,3 2,4v3v1l2,6 1,7 1,4h1v1l1,6v1l2,2v2v1l2,6 1,2v1l1,2v2l1,2 1,4 1,2 1,5 2,8 1,3 2,5v2l3,14h-3v-1l-5,2h-2l-4,-2 -12,1 -2,-5 -13,1 -1,-6 -10,3 -7,-4 1,-6 -4,-3 -3,-2 -7,-12 -5,-28 -3,-4 1,-1h2h1h1v-1h1v-1v1l1,1 1,-1v1l1,-2 -1,-1v1v-1v1h-1v-17l-4,-6h-1l-2,-4h1h1h1h-1h1h1h1h1v-1l-2,-11h-1h-1l-2,1v1l-5,4v1h-2h-1h-1h-1l-3,2 -2,3v1h-1h-1l-1,1h-1h-1v-1l-1,-1h-1l-3,-5 -2,-2h-1l-1,-2h1l-1,-3v-1h-1h-1l-2,-1 -2,-3v-1l-6,-4 -7,1 1,3v1v9l2,2v1v2v-1h1h1l1,1v1h1v1h1h1v1v1v1h1h1v1h1h1v1h1h1v1l10,-2 1,2 1,4v3v1l1,1v1v2v1v2v2v1v1h1v1h-1v1h-1h-1h-1h-1l-2,1h-2h-1l-2,1h-1v1v1v1v1h-1h-1h-1l-3,1h-2h-1h-1l-2,1h-1h-2h-1h-1v1h-1l-1,1h-1l-1,1h-1v1h-1l-1,1h-1l-1,1 -2,1v1h-1l-1,1 -2,1 -2,1 -1,1v1h-1h-1l-3,2 -1,1 -1,1h-1v1h-1l-2,1v1h-1v2h-2v1h-1h-1h-1h-2h-1h-1h-1h-1h-1h-2h-1l1,-1v-1l1,-1v-1l1,-2 1,-2 1,-2 1,-1v-1l1,-1h-1v-1v-1v-1v-1h-1h-1l-1,-1h-1h-1v-2v-1h-1v-1v-2v-1l-1,-1h2l1,-1h1h1h1h1h1h1l-1,-4v-1h2h1v-1l-1,-1v-1v-1v-1v-1l-32,4Z"/>
    <path data-geo-id="2031" data-name="State House District 31" d="M620,326h5l5,-1h1h2l1,1h1v-1l2,-1 2,1v1v1h1h1l2,1 -6,19 -9,-3 -1,1v1v-1v1l-1,-1 -11,4 5,-23Z"/>
    <path data-geo-id="2037" data-name="State House District 37" d="M480,379v-3v-2h1h2v-2h1v-2v-3h2h1v-1v-2h2v-2l1,-1v-3v-1h1h1v-2v-3h4v-1v-1v-1v-2h1h1v-1h1v-4h1v-1v-1h2v-1v-1v-2v-1v-1h2h1v-1v-1h1v-1v-1v-2v-1h1h1h1v-1v-1h1v-3h1v-2v-1h1h1h2h2h1h1h1h3h2h2v2h1h1v-2v-1v1v-1l1,-4v-1v-1l-1,-1h-1v-1v-1l-2,-3v-1v1v-1h-1h-1h-1v1h-1h-2l-2,-2 -1,-3 11,-11v-1v1l2,-2h1v-1l2,-3 -2,-1h-1h-1h-1h-1l-3,1h-1h-1h-2h-1h-2v2v1h-2h-2h-1h-1h-2h-1v2h-1h-2h-1h-1h-1h-1h-1h-1h-1h-1h-1h-1h-1h-2h-1h-1l-1,-1h-1h-1h-1h-1v-1v-1v-2l1,-3 -2,-6v-3h1h1h-1h1h-1h1v1h1h1h1h-1h1h1l5,-1 4,-15 11,-27 37,-1 20,-1 32,-4v1v1v1v1l1,1v1h-1h-2v1l1,4h-1h-1h-1h-1h-1h-1l-1,1h-2l1,1v1v2v1h1v1v2h1h1l1,1h1h1v1v1v1v1h1l-1,1v1l-1,1 -1,2 -1,2 -1,2v1l-1,1v1l-1,1v1v1v1v2l1,3v3v2v1v3l1,1v1v1v2v2v1v1v1v1h1v1v1v1v2v1v1v1v2v1h-1h-2h-1h-1h-1v2v1v1v2v3h1v1v1v1v1v1v1l1,3 1,5v3v2l-1,10 -2,1v1v1v1v1h1v1v4h-1v2v1h-2v1v1v1v2h-2h-1v1l1,2h-3l-2,1 1,4 -5,1h-1l1,5h1v2v2v1v5h1v2v1l5,-1v2l1,2v1h-1v2h-1v1h-1v1h-1v1h-3l-2,1h-2v1h-1v1h-2v1h-1v3v1v1v1v1v2v1h-1v1h-2v1h-2v2h-1v1v1h-1h-1v1l1,1h-1v1l-2,-1 -1,1h-1v1l-1,1v-1h-1h-1l-1,1v1h-1v1h-1v1v1h-1l1,1h-1v1h-1v1v1h-2l4,2h1h2l-13,12 -19,8 -4,16 -14,2 -1,7 -8,-5 -19,12 -6,-8 -7,15 -9,2 -2,-7 1,7 -14,5 2,-8 13,-7 13,-15h21l3,-10 23,-17v2l8,-14 11,-8 2,-27 4,-4 4,-8 -3,1 -16,7 -4,-10 -9,4 4,8 -4,4 -7,-13 -12,-6 -7,5ZM432,487l5,4 -4,9 -10,-1 -11,6 -1,-7 6,-7ZM380,512l7,5 -9,11 -18,4 14,-12 -2,-6ZM334,541l17,-19 6,6Z"/>
    <path data-geo-id="2040" data-name="State House District 40" d="M692,40l1,1v2l2,5v1l1,3 1,4v1l1,4 1,2 1,4v1l2,4h-2l-2,1h-1l-1,1h-2l-1,1h-1l-2,1h-3h-1l-2,1h-1l-2,1h-3h-1l-4,1 -1,1h-1h-1h-3h-1l-7,2 -3,1 -2,1 -4,1h-1l1,2 1,5v2l1,5v15l-1,1h-1l-1,1 -1,1 -1,2v1l-2,1v1v1l-2,4h-2h-2h-2h2h-2h-1l-1,-1 -1,1h-2h-1h-1l-1,2 -12,8 -3,6h-1l-1,-1h-1l-2,1h-1v1v-1v1l-2,1v1v-1l-1,1v-1v1h-1v1h-1h-5l-1,1 -1,-1 -2,2h-2l-2,3v4h-1v1v-1v1v2l-7,2 -1,2h-1h1v-1h-1l-1,1h-1v1v-1v1v-1v1h-1v1v-1l-1,4 1,-1v1v1h-1h-1v1h-1v1h-1h-1h1h-1h-1l-1,1h-1h-1h-1l-1,1v-1l-2,1 -3,2h-1l-5,-3h-2l-3,-2 -6,-1h1h-1v-1v-1l-1,-1v-1h-1h1h-1v-1v-1v1v-1h-1v-1l-2,-1 -5,-2 -3,-3h-1h-1h-3h-1v11h-14l-1,4h-5l-3,13v3h-3l-14,-1h-4h-4h-2l-9,-1h-1h-3h-5l-3,-1 -2,-10h-2v-5v-2l1,-3h-1v-2v-8v-3h7l-2,15 1,1 21,2 5,-7 5,5 1,-3 9,-8 -6,-5 -12,-1 3,-11 -24,-3 -3,-15 -12,-13 -14,-12h4l3,-14 21,1 12,-11 2,-13 10,-10 22,-12v8l-1,-9 21,-6 11,-14 11,4 9,9 14,-4 9,2v7l4,4 12,-2 1,1 -1,1v2l8,-6 10,1 16,4 15,-2 13,3 6,-4 2,-2h10Z"/>
    <path data-geo-id="2009" data-name="State House District 9" d="M631,260l1,-1v-1h1v-1l6,-18h1l2,-1h1h1h2l3,-1h1h1h1v-1v-1v-1v-1h1l2,-1h1h2l2,-1h1h1h1h1v-1h1v-1h-1v-1v-1v-2v-2v-1v-2v-1l-1,-1v-1v-3l-1,-4 -1,-2 3,-1h1h1l1,-1h1h1v-1l2,-3 3,-2h1h1h1h2v-1l5,-4v-1l2,-1h1h1l2,11v1h-1h-1h-1h-1h1h-1h-1h-1l2,4h1l4,6v17h1v-1v1v-1l1,1 -1,2v-1l-1,1 -1,-1v-1v1h-1v1h-1h-1h-2l-1,1 3,4 5,28 7,12 3,2 4,3 -1,6v2v1v-1l-8,3h-1l-2,1 -10,4h-2h-1v-1v1v1v-1v1v-1v1v-1v1l-1,1 -2,2h-2l-3,2 -3,1v1v-1v1h-1l-1,1h-1h-1l-4,-6 -2,8h-1l-1,1h-1v1h-1h-1v-1v-1l2,-1 1,-5 -1,-2 -1,-7v-3l-1,-1 -6,-3 -1,-1 -3,1h-1v-8v-1l-2,-5h-1l-1,-1 1,-4 -1,-1 -5,-1v-1v-2l-3,-1Z"/>
    <path data-geo-id="2033" data-name="State House District 33" d="M820,332l5,-5h1l3,-5 3,-3 4,-3 1,-4v-1v-5h1l-2,-4 1,-1h1l1,-2 1,-1 1,-1 1,-1h10v-1l3,6h2l-1,1v1h1l1,1 3,-1v1l7,3 1,2h1l-2,1 -7,2 -3,1 -6,-9h-1l-1,4 16,21 -8,-1 -5,3v-1l-1,-2 -13,-6 12,11 -3,5 -13,1ZM874,327l1,-3h1h-1v1v-1h-1h-2h-1h1h-1v-1v-1l-2,-1h-1l4,-10v1l5,1 3,1h1l1,2h1h1l5,3 -1,1 2,1 5,4 -2,8 -1,3 -1,1Z"/>
    <path data-geo-id="2036" data-name="State House District 36" d="M930,399h1v-1h2v-1l4,-5 8,3 6,15 -9,-2 -2,-1 -10,-8ZM919,360l1,-1h2v-1h1v-1h-1v-3l1,-2h1v1h2h3v2l2,2 5,-1 1,1h2l3,1h1h2l10,1 1,1 1,1h2h2l5,1v2v5l6,8 2,17 -8,6 -7,-8v-9l-10,-15 -10,11 -2,7 -1,-2v-15l-12,-10h-1v1ZM948,372l7,5 3,14 -13,-2 -3,-11Z"/>
    <path data-geo-id="2004" data-name="State House District 4" d="M636,184l7,-1 6,4v1l2,3v1h-1h-2l-1,1 -4,4 -4,2 -2,-2v-9v-1Z"/>
    <path data-geo-id="2028" data-name="State House District 28" d="M637,305h2l1,-1v-1h1l5,1 1,1 4,-1 6,-1 1,2 -1,5 -2,1v1v1l-1,1 -4,-3 -11,-5 -2,-1Z"/>
    <path data-geo-id="2012" data-name="State House District 12" d="M640,293h1v-2h2h2l4,-2 6,3 1,1v3l1,7 -6,1 -6,-6h-3v-1v-1v-1l3,-2h-5Z"/>
    <path data-geo-id="2035" data-name="State House District 35" d="M873,335v1h1h1l1,-1v-1h1l1,-1v-1l2,-1v-1l1,8 12,11 -5,14 -6,-13ZM892,334l1,-1 2,-8 7,7 14,10v1l2,6 5,-1 1,4h-1l-1,2v3h1v1h-1v1h-2l-1,1 -19,-7ZM933,397v1h-2v1h-1h1l-7,-6 -8,-14 6,2 14,9 -5,4 2,3ZM882,374l-13,-12 -1,-8 11,3 11,16 4,12 1,2 -13,-13ZM854,352l-1,-1h-1l6,-2 -9,-5 7,-9 4,6 -1,2 5,-6h7l-1,10 -12,-3 10,4 7,-2v8l-13,-4 5,10ZM902,366l-6,-9 17,1 1,13 -8,3ZM900,367l1,11 -9,-8v-6Z"/>
    <path data-geo-id="2038" data-name="State House District 38" d="M425,314h1h1v-1v1h1l1,-1h1h1h1v1v-1v1h1v1l1,-1h1h1h1h1v-1h1v-1v-1h-1v-1l1,-1v1h1v-1h1v-1h1v-1h1v-1h-1v-1v-1v-1h1h1h1l1,1h1h1h1v-1l1,-1v-1l1,-1v1h1l1,1 1,-1h1h1h1h1v-3l-1,-1h-1v-1v-1l-1,-1v-4h1h1l12,-8 1,2 1,2h1h1l1,1v1v-1v1h1h1l3,-1v-1h1v-1v1v-1h1h2l2,1v1v1h1h1h1h1l1,1h1h1h2h1h1h1h1h1h1h1h1h1h1h1h2h1v-2h1h2h1h1h2h2v-1v-2h2h1h2h1h1l3,-1h1h1h1h1l2,1 -2,3v1h-1l-2,2v-1v1l-11,11 1,3 2,2h2h1v-1h1h1h1v1v-1v1l2,3v1v1h1l1,1v1v1l-1,4v1v-1v1v2h-1h-1v-2h-2h-2h-3h-1h-1h-1h-2h-2h-1h-1v1v2h-1v3h-1v1v1h-1h-1h-1v1v2v1v1h-1v1v1h-1h-2v1v1v2v1v1h-2v1v1h-1v4h-1v1h-1h-1v2v1v1v1h-4v3v2h-1h-1v1v3l-1,1v2h-2v2v1h-1h-2v3v2h-1v2h-2h-1v2v3v1l-3,-1h-2v2v1h-7l5,-11 -7,-3 3,-7 -5,-22 -3,4 -15,6 -10,-1 -5,-12 2,-8 9,-13ZM433,328l-3,5 -10,-7 12,-10 5,3ZM410,327l5,5 -2,12 -13,-1 -9,-11Z"/>
    <path data-geo-id="2039" data-name="State House District 39" d="M450,151v3v8v2h1l-1,3v2v5h2l2,10 3,1h5h3h1l9,1h2h4h4l14,1h3v-3l3,-13h5l1,-4h14v-11h1h3h1h1l3,3 5,2 2,1v1h1v1v-1v1v1h1h-1h1v1l1,1v1v1h1h-1l6,1 3,2h2l5,3h1l3,-2 2,-1v1l1,-1h1h1h1l1,-1h1h1h-1h1h1v-1h1v-1h1h1v-1v-1l-1,1 1,-4v1v-1h1v-1v1v-1v1v-1h1l1,-1h1v1h-1h1l1,-2 2,8h-1v1h1v1h-1v1h1v1v-1v1v1v1h-1h1v1h-1v1v-1v1h-1v1h-1v1v1l-1,1 -1,1v1l-1,1h-1h-1v1h-1v1v1v1v-1v1v1l-1,2 1,3v2l-3,2 -2,1 -1,1 1,1v1l-2,3 4,8 2,1h2l-2,8v1h-1l-1,1h-1l-2,2h-1l-1,2 -20,1 -37,1 -11,27 -4,15 -5,1h-1h-1h1h-1h-1h-1v-1h-1h1h-1h1h-1h-1v3l2,6 -1,3v2l-2,-1h-2h-1v1v-1v1h-1v1l-3,1h-1h-1v-1v1v-1l-1,-1h-1h-1l-1,-2 -1,-2 -12,8h-1h-1v4l1,1v1v1h1l1,1v3h-1h-1h-1h-1l-1,1 -1,-1h-1v-1l-1,1v1l-1,1v1h-1h-1h-1l-1,-1h-1h-1h-1v1v1v1h1v1h-1v1h-1v1h-1v1h-1v-1l-1,1v1h1v1v1h-1v1h-1h-1h-1h-1l-1,1v-1h-1v-1v1v-1h-1h-1h-1l-1,1h-1v-1v1h-1h-1l-9,-13v-1l-4,-4 9,-9 -1,-7 11,-13 8,-4 7,5 -2,-10 15,-4 6,-5 7,-5h10l7,-8 -2,-15 -7,-5 10,-5 -3,-10 -23,13 -7,-5 -21,4 -13,-6 -6,-16 5,-5 -19,-11 29,-18ZM446,247l6,5 -8,6 -6,-7ZM351,219l1,6h16l2,6 15,9 -12,8 -14,-18 -8,3 -4,-8Z"/>
    <path data-geo-id="2032" data-name="State House District 32" d="M545,426h2v-1v-1h1v-1h1l-1,-1h1v-1v-1h1v-1h1v-1l1,-1h1h1v1l1,-1v-1h1l1,-1 2,1v-1h1l-1,-1v-1h1h1v-1v-1h1v-2h2v-1h2v-1h1v-1v-2v-1v-1v-1v-1v-3h1v-1h2v-1h1v-1h2l2,-1h3v-1h1v-1h1v-1h1v-2h1v-1l-1,-2v-2l-5,1v-1v-2h-1v-5v-1v-2v-2h-1l-1,-5h1l5,-1 -1,-4 2,-1h3l-1,-2v-1h1h2v-2v-1v-1v-1h2v-1v-2h1v-4v-1h-1v-1v-1v-1v-1l2,-1 1,-10v-2v-3l-1,-5 -1,-3v-1v-1v-1v-1v-1v-1h-1v-3v-2v-1v-1v-2h1h1h1h2h1h1h1h2l1,-1h1h1h1h1h1l1,-1h2h1h1h1h1h1h1h1v-1h1h1h2v1v2v1v1h1h2h2v1h1l-11,9 -6,13 -2,13 -6,11 -11,6 -5,15 7,-1 7,6h-1l-16,25 -8,1 -22,21 3,5h-2h-1ZM627,346v-1l1,-1 9,3 6,-19 3,4 2,3v-1v1l-3,10 -9,6 -10,12h-12ZM649,334v-2l2,-2 7,-8 -1,-1h10l-7,16ZM683,301h1v-1l10,-4 2,-1h1l8,-3v1v-1v-2l7,4 10,-3 1,6 13,-1 2,5 12,-1 4,2h2l5,-2v1h3l1,2h1l7,-1h5l4,-5 9,-3 1,8 29,16 2,4 2,3v2l-5,5 -6,-6 -19,-5 -6,-3 -1,-12 -7,11 -10,1 -27,-4 -17,7 -17,-4 1,-4 -15,2 3,-7 -15,2 5,-5 -6,-4ZM612,387l4,8 -10,5 -7,-4 12,-6 1,-3ZM607,403l6,1 -1,11 -8,4 -13,19v-12l-6,10 -8,-13 1,-7 11,-11Z"/>
    <path data-geo-id="2029" data-name="State House District 29" d="M650,311l4,3 1,-1h1l1,3v2v1v1v1l1,1 -7,8 -2,2v2h-1v1l-2,-3 -3,-4 -2,-1h-1h-1v-1v-1l-2,-1 -2,1v1h-1l-1,-1h-2h-1l-5,1v-1l-6,-3 9,-12Z"/>
    <path data-geo-id="2010" data-name="State House District 10" d="M592,281v-1l-1,-1v-3v-1v-2v-3l-1,-3v-2v-1v-1v-1h1h2h1h1h1h1h1h2h1h1h1v-1h2v-2h1v-1l2,-1h1v-1h1l1,-1 1,-1 3,-2h1h1v-1l1,-1 2,-1 2,-1 1,-1h1v-1l2,-1 1,-1h1l1,-1h1v-1h1l1,-1h1l1,-1h1v-1h1h1h2l-6,18v1h-1v1l-1,1 1,4 3,1v2v1l5,1 1,1 -1,4 1,1h1l2,5v1v8h1h-1l-3,1 -1,1 -1,-1v-1h-2l-3,2h-1h-1h-1l-2,1 -2,7 -4,5h-1v-1h-2h-2h-1v-1v-1v-2v-1h-2h-1h-1v1h-1h-1h-1h-1h-1h-1h-1h-2l-1,1h-1h-1h-1h-1h-1l-1,1h-2h-1h-1v-1v-2v-1v-1v-1v-2v-1v-1v-1h-1v-1v-1v-1v-1v-2v-2Z"/>
    <path data-geo-id="2008" data-name="State House District 8" d="M627,299l2,-7 2,-1h1h1h1l3,-2h2v1l1,1v1l1,-1v2h-1v1l-4,8h-8v-1h-1Z"/>
    <path data-geo-id="2005" data-name="State House District 5" d="M639,200v-1l4,-2 4,-4 1,-1v1l1,1v-1l2,1h1l1,-1 1,1 1,2 1,2h1l2,2 3,5h1l1,1v1l-3,1 -10,2v-1h-1h-1v-1h-1h-1v-1h-1h-1v-1v-1v-1h-1h-1v-1h-1v-1l-1,-1h-1h-1v1Z"/>
  </g>
  <path class="mesh" d="M930,399h1v-1h2v-1M872,311l-4,10h1l2,1v1v1h1h-1h1h2h1v1v-1h1h-1l-1,3M705,290l1,-6 -4,-3 -3,-2 -7,-12 -5,-28 -3,-4 1,-1h2h1h1v-1h1v-1v1l1,1 1,-1v1l1,-2 -1,-1v1v-1v1h-1v-17l-4,-6h-1l-2,-4h1h1h1h1h1h1v-1l-2,-11h-1h-1l-2,1v1l-5,4v1h-2h-1h-1h-1l-3,2 -2,3v1h-1h-1l-1,1h-1h-1v-1l-1,-1h-1l-3,-5 -2,-2h-1l-1,-2M485,272h1v1h1h1h1h-1M656,313h-1v-1v-1l2,-1 1,-5 -1,-2 -1,-7v-3l-1,-1 -6,-3M655,313l-1,1 -4,-3M640,293h1v-2M582,161l7,-2v-2v-1h1v-4l2,-3h2l2,-2 1,1 1,-1h5h1v-1h1v-1v1l1,-1v1v-1l2,-1v-1v1M590,262v1v1v1v2l1,3v3v2v1v3l1,1v1v1v2v2v1v1v1v1h1v1v1v1v2v1v1v1v2v1h-1h-2h-1h-1h-1v2v1v1v2v3h1v1v1v1v1v1v1l1,3 1,5v3v2l-1,10 -2,1v1v1v1v1h1v1v4h-1v2v1h-2v1v1v1v2h-2h-1v1l1,2h-3l-2,1 1,4 -5,1h-1l1,5h1v2v2v1v5h1v2v1l5,-1v2l1,2v1h-1v2h-1v1h-1v1h-1v1h-3l-2,1h-2v1h-1v1h-2v1h-1v3v1v1v1v1v2v1h-1v1h-2v1h-2v2h-1v1v1h-1h-1v1l1,1h-1v1l-2,-1 -1,1h-1v1l-1,1v-1h-1h-1l-1,1v1h-1v1h-1v1v1h-1l1,1h-1v1h-1v1v1h-2l4,2h1h2M578,163v1h-1v1v-1l-1,4 1,-1v1v1h-1h-1v1h-1v1h-1h-1h1M572,171h-1l-1,1h-1h-1h-1l-1,1v-1l-2,1 -3,2h-1l-5,-3h-2l-3,-2 -6,-1h1h-1v-1v-1l-1,-1v-1h-1h1h-1v-1v-1h-1v-1l-2,-1 -5,-2 -3,-3h-1h-1h-3h-1v11h-14l-1,4h-5l-3,13v3h-3l-14,-1h-4h-4h-2l-9,-1h-1h-3h-5l-3,-1 -2,-10h-2v-5v-2l1,-3h-1v-2v-8v-3M645,289h-1v-8v-1l-2,-5h-1l-1,-1 1,-4 -1,-1 -5,-1v-1v-2l-3,-1 -1,-4 1,-1v-1h1v-1l6,-18M661,208l3,-1M764,301h-3v-1l-5,2h-2l-4,-2 -12,1 -2,-5 -13,1 -1,-6 -10,3 -7,-4v2v1v-1l-8,3h-1l-2,1 -10,4M647,119l1,-2 1,-1 1,-1h1l1,-1v-15l-1,-5v-2l-1,-5 -1,-2h1l4,-1 2,-1 3,-1 7,-2h1h3h1h1l1,-1 4,-1h1h3l2,-1h1l2,-1h1h3l2,-1h1l1,-1h2l1,-1h1l2,-1h2M645,206v1h1h1v1h1h1v1h1h1v1l10,-2 1,2 1,4v3v1l1,1v1v2v1v2v2v1v1h1v1h-1v1h-1h-1h-1h-1l-2,1h-2h-1l-2,1h-1v1v1v1v1h-1h-1h-1l-3,1h-2h-1h-1l-2,1h-1h-2h-1h-1v1h-1l-1,1h-1l-1,1h-1v1h-1l-1,1h-1l-1,1 -2,1v1h-1l-1,1 -2,1 -2,1 -1,1v1h-1h-1l-3,2 -1,1 -1,1h-1v1h-1l-2,1v1h-1v2h-2v1h-1h-1h-1h-2h-1h-1h-1h-1h-1h-2h-1l1,-1v-1l1,-1v-1l1,-2 1,-2 1,-2 1,-1v-1l1,-1h-1v-1v-1v-1v-1h-1h-1l-1,-1h-1h-1v-2v-1h-1v-1v-2v-1l-1,-1h2l1,-1h1h1h1h1h1h1l-1,-4v-1h2h1v-1l-1,-1v-1v-1v-1v-1l-32,4M820,332l5,-5M895,325l-2,8M919,360l1,-1h2v-1h1v-1h-1v-3l1,-2h1M648,192l-1,1 -4,4 -4,2M651,304l6,-1M427,314v-1v1M625,326l5,-1h1h2l1,1h1v-1l2,-1 2,1v1v1h1h1l2,1 -6,19 -9,-3 -1,1v1M488,273h1h1l5,-1 4,-15 11,-27 37,-1 20,-1 1,-2h1l2,-2h1l1,-1h1v-1l2,-8h-2l-2,-1 -4,-8 2,-3v-1l-1,-1 1,-1 2,-1 3,-2v-2l-1,-3 1,-2v-1v-1v1M861,312l7,-2 2,-1M584,170h-1v-1h1l-2,-8 -1,2h-1h1v-1h-1l-1,1h-1v1M425,314h1h1h1l1,-1h1h1h1v1v-1v1h1v1l1,-1h1h1h1h1v-1h1v-1v-1h-1v-1l1,-1v1h1v-1h1v-1h1v-1h1v-1h-1v-1v-1v-1h1h1h1l1,1h1h1h1v-1l1,-1v-1l1,-1v1h1l1,1 1,-1h1h1h1h1v-3l-1,-1h-1v-1v-1l-1,-1v-4h1h1l12,-8 1,2 1,2h1h1l1,1v1h1h1l3,-1v-1h1v-1h1h2l2,1M686,205h1M651,191l-2,-3v-1l-6,-4 -7,1 1,3v1v9l2,2v1v2v-1h1h1l1,1v1h1v1h1h1v1v1M593,301h1h1h2l1,-1h1h1h1h1h1l1,-1h2h1h1h1h1h1h1h1v-1h1h1h2v1v2v1v1h1h2h2v1h1M643,328l3,4 2,3v-1M649,334v-2l2,-2 7,-8 -1,-1M575,187v-1v-1h1v-1h1h1l1,-1v-1l1,-1 1,-1v-1v-1h1v-1h1v-1M480,379v-3v-2h1h2v-2h1v-2v-3h2h1v-1v-2h2v-2l1,-1v-3v-1h1h1v-2v-3h4v-1v-1v-1v-2h1h1v-1h1v-4h1v-1v-1h2v-1v-1v-2v-1v-1h2h1v-1v-1h1v-1v-1v-2v-1h1h1h1v-1v-1h1v-3h1v-2v-1h1h1h2h2h1h1h1h3h2h2v2h1h1v-2v-1l1,-4v-1v-1l-1,-1h-1v-1v-1l-2,-3v-1h-1h-1h-1v1h-1h-2l-2,-2 -1,-3 11,-11v-1v1l2,-2h1v-1l2,-3 -2,-1h-1h-1h-1h-1l-3,1h-1h-1h-2h-1h-2v2v1h-2h-2h-1h-1h-2h-1v2h-1h-2h-1h-1h-1h-1h-1h-1h-1h-1h-1h-1h-1h-2h-1h-1l-1,-1h-1h-1h-1h-1v-1v-1v-2l1,-3 -2,-6v-3h1h1h-1h1M640,291l-1,-1v-1h-2l-3,2h-1h-1h-1l-2,1 -2,7M583,177v-1h1v-1h-1h1v-1v-1v-1M608,143h1l2,-1h1l1,1h1l3,-6 12,-8 1,-2h1h1h2l1,-1 1,1h1h2M637,127h2h2h2l2,-4v-1v-1l2,-1v-1M584,173v-1h-1v-1h1v-1"/>
  <g class="cities">
    <circle r="7" cx="637" cy="302"/>
    <text x="637" y="302">Anchorage</text>
    <circle r="7" cx="650" cy="193"/>
    <text x="650" y="193">Fairbanks</text>
    <circle r="7" cx="876" cy="328"/>
    <text x="876" y="328">Juneau</text>
  </g>
</svg>