<?xml version="1.0" encoding="utf-8"?>
<!DOCTYPE svg PUBLIC "-//W3C//DTD SVG 1.1//EN" "http://www.w3.org/Graphics/SVG/1.1/DTD/svg11.dtd">
<svg version="1.1" xmlns="http://www.w3.org/2000/svg" width="350" height="198" viewBox="0 0 350 198">
  <path class="state" transform="scale(0.1)" d="M2268,731M1168,1895l63,-63 25,6 -46,40 -42,17M1336,1811l17,-9 -35,52 -47,12 -21,-7 41,-11 7,-36 38,-1M1509,1709l15,1 25,41h-63l-42,19 -6,-21 30,-31 41,-9M1709,582v-1v1M1571,903l-2,1v2v1v-1l-2,2h-5l-1,-1 -9,-2 -15,-13 24,-21 23,17 -13,15M2070,1462v-4l-7,-18 7,-20 25,16 -2,-29 35,9h2l15,21 13,2 -25,38 -32,10 -33,50 -33,-22 -17,-29 22,-39 30,15v-4v4M2143,1359l13,26 -56,10 3,-19 30,-8 7,1 3,-10h-2h2M3355,1361l-3,14 -45,-11 -8,-38 17,-22 33,24 6,33M3013,1098l3,2 -3,-3v1M1423,1208l-20,-2 -37,-42 68,-14 20,15v41l-31,2M1509,1163l-15,5 -21,-29 20,-20 38,3 -22,41M3089,1313v-2h-18l-18,-40 -14,-28 29,5 10,-4 38,66 12,41 3,8 -42,-46M1255,798l25,-9 33,42 31,7 -36,24 -50,-51 -42,1 12,-31 27,17M3011,1200l-3,6v1l18,-21h22l5,28 -50,-7 45,15 11,22 -40,-13 20,23 -13,11 -35,-29 -3,-1 -3,-3 16,-6v-1l-30,-17 15,-18 25,9v1M3094,1184l22,23 -2,48 -13,19 -12,-43v-3l-33,-51 18,-11v-1l9,-5 11,24M3182,1275l15,27 -25,10 -8,-18 -1,-2 -2,-6 -25,-31 45,-7 1,27M3151,1289v-1v-6l13,12 -11,29v-1l-19,-13 -8,-21 -5,-1 30,2M3264,1369h-2v14l20,-8 39,46 8,19 -33,-11v1l-4,-3 -20,-24 -13,9 -2,1 -20,-30v-3l-21,3v-27v-27l11,9v-1l32,23 3,9h2M2075,131l3,1v11l2,-1 6,-6v-1l19,-13 35,4v1h1v1l33,6 22,6 50,-4 37,11 30,-16 -2,-2 2,1 -2,-1 3,-1 7,-5 60,12h1l42,10 32,112 71,261 108,389 42,149 53,5 40,-29 2,27 104,59 14,30 40,-51 -5,-35 25,-23 38,2 8,22 47,23 70,32 20,23 71,59 32,37 26,21 47,1 55,9 5,20 13,8 30,41 -13,60 -5,2 -12,6 -25,-36v-22v-1v-1l-10,-26 -41,-11 -12,16 5,41 -20,-9 -5,-7 8,-30 -25,-33 -25,-25v1v1v-1l-1,2h-10l-25,-20 -43,-4v-18l-25,-21 -7,-27 2,-3v-2l-2,10v6h-2l-36,-30 -40,-5 -17,-20 -7,-19 -3,-10 2,11 -14,-11 -24,-31v-1l11,34 43,67 -30,-18 -16,8 -2,-1 2,1 -2,-1 -6,-6v24l-20,23 -89,-35 -21,-19 -58,-12 -10,-4 -22,-14v-40l-30,38 -28,4 -43,-12 -54,-1 -60,25 -56,-20v-10l2,-5 -4,-5 -8,1v4l-8,16 -49,-33 -61,-14 -22,19 2,2 -25,-22 -18,38 1,7 2,17 2,4 25,2 -5,45 -14,7 -26,-7 -25,17 -30,39 -24,37 -20,-6 -19,18 -15,-15 24,-19 -23,-26 18,-50 -6,-49 46,-40 69,11 -55,-25 35,-38 -20,2 -10,26 -49,12 -58,76 -1,23 -27,8 20,14 -28,49 -22,2 -23,30 -2,32 25,-5 23,21 2,-1 -2,1h-1l-29,27 -13,32v-1l-5,23 -33,12 -35,23 -48,51 11,15 -96,63 -22,24 7,28 -62,23 -5,20 -18,-23 -47,39 -48,8 9,-21 -50,53 -29,-26 -1,33 -39,12 12,-36 82,-68 74,-4 9,-30 33,-31 52,-33v1v7l31,-50 33,-33 10,-90 12,-13 13,-29 -8,4 -47,24 -26,-15 5,-31 -33,25v3l16,25 -16,15 -20,-40 -40,-10 -5,-17 -29,19 -8,3 -2,2 -14,8 -24,-30 15,-8 -23,-4 17,-36 -27,-74v-1l8,-39 -18,22v35l-45,19 -42,-7 -18,-55 38,-39 5,22 15,-32 -51,1 -27,-10 -35,-49v-1h4h-4v1l4,-4 18,-44 -5,-23 46,-45 19,-18 28,31 -3,-46 1,1h5l2,-2v1v-1v-2l2,-1 33,-8 23,-20 29,-16 38,-5 18,-27 -25,-78 27,-9 -10,-32 -50,23 -30,35 -40,-28 -57,9 -49,-20 -20,-57 20,-12 28,25 11,-12 -86,-36 -18,-18 13,-18 3,-1 -3,2 42,-12 10,-16 94,-40h22l2,54 74,10 4,-1 13,-22 18,13v1h-1v-1l-2,1v1l3,-2v-3v-1h4h-4v1v3l4,-6 1,-1 -38,-18 2,-16 43,16 25,-10v-2l-5,-12 -35,3 -2,3 -23,-15 5,-31 -40,-8 -38,-11v-29l-55,-67 -40,-36 8,-4 10,-50 74,2 45,-41 5,-42h3l31,-35 44,-18 60,-53v13l48,-13 35,-48 53,20 17,30 48,-13 2,1 29,5 -1,22 15,15 38,-7h2v1"/>
  <g class="counties" transform="scale(0.1)">
    <path data-fips-int="2068" data-name="Denali Borough" d="M2268,731l8,5 38,-4 15,79 -46,8 1,14 -65,11 -101,67 -52,12 24,-47 -20,-17 -5,-30 28,-3 5,-37 33,-3 19,-40Z"/>
    <path data-fips-int="2090" data-name="Fairbanks North Star Borough" d="M2432,664l-38,20 -53,42h-5l-5,3 -17,3 -38,4 -8,-5 -2,-1 -3,-2v-1l-2,-1 -2,-4h-1v-1v-1l-2,-1v-1h-2l-1,-2 -2,-1h-2v-1l-1,-1 -2,-3 -2,-1h-1l-15,-61 46,-8 62,-30 20,33 73,-21Z"/>
    <path data-fips-int="2170" data-name="Matanuska-Susitna Borough" d="M2357,837l20,93 -23,4 13,78 -71,17 -38,1 -20,2 -10,26 -49,12 -19,-22 -82,8 -7,-89 -5,-44 52,-12 101,-67 65,-11 -1,-14 46,-8 22,-5Z"/>
    <path data-fips-int="2240" data-name="Southeast Fairbanks Census Area" d="M2635,907l-38,10 -23,-59 -19,-13 -38,13 -10,-47 -90,19 -1,-10 -59,17 -6,-31 -22,5 -15,-79 17,-3 5,-3h5l53,-42 38,-20 15,-1 7,-20 5,-28 2,-1 11,-12v-8v-5h-1h-2l13,-12 10,-10h2h2l18,-18 6,-21v-1h2l2,-6 3,-3Z"/>
    <path data-fips-int="2290" data-name="Yukon-Koyukuk Census Area" d="M2456,257l71,261 -3,3 -2,6h-2v1l-6,21 -18,18h-2h-2l-10,10 -13,12h2h1v5v8l-11,12 -2,1 -5,28 -7,20 -15,1 -3,-42 -73,21 -20,-33 -62,30 -46,8 15,61h1l2,1 2,3 1,1v1h2l2,1 1,2h2v1l2,1v1v1h1l2,4 2,1v1l3,2 2,1 -118,15 -19,40 -33,3 -5,37 -28,3 5,30 20,17 -24,47 5,44 -33,30 -156,9v-10l-70,1 -35,18 -60,-1 -20,-1 -3,-57 11,-51 9,-54 45,-25 -10,-26v-72l16,-17 10,-53 -10,-9 2,-44 25,-17h45v-37h50l45,15v-27l51,-18v-45l-25,-8v-36l-26,-15 1,-24 203,-19 148,-26 -10,-47Z"/>
    <path data-fips-int="2013" data-name="Aleutians East Borough" d="M1509,1709l15,1 25,41h-63l-42,19 -6,-21 30,-31ZM1794,1533v1v7l-7,14 -50,17v62l18,26 -18,-23 -47,39 -48,8 9,-21 -50,53 -29,-26 -1,33 -39,12 12,-36 82,-68 74,-4 9,-30 33,-31Z"/>
    <path data-fips-int="2016" data-name="Aleutians West Census Area" d="M1168,1895l63,-63 25,6 -46,40ZM1336,1811l17,-9 -35,52 -47,12 -21,-7 41,-11 7,-36Z"/>
    <path data-fips-int="2020" data-name="Anchorage Municipality" d="M2258,1030l38,-1 8,58 -10,14 -16,-8 -55,-25Z"/>
    <path data-fips-int="2050" data-name="Bethel Census Area" d="M1657,1303l-23,-4 17,-36 -27,-74v-1l8,-39 -18,22v35l-45,19 -42,-7 -18,-55 38,-39 5,22 15,-32 -51,1 -27,-10 48,-5 10,-36 24,4 51,-17 29,8 83,-33 -17,-12 60,1 35,-18 70,-1v10l156,-9 33,-30 7,89 -22,2 5,53 -123,7 -146,4 -23,26 -32,87h-12l-13,44 -18,12 -12,40 -2,2 -14,8 -24,-30ZM1423,1208l-20,-2 -37,-42 68,-14 20,15v41ZM1509,1163l-15,5 -21,-29 20,-20 38,3Z"/>
    <path data-fips-int="2060" data-name="Bristol Bay Borough" d="M1880,1355l13,-29 35,-1 2,29Z"/>
    <path data-fips-int="2070" data-name="Dillingham Census Area" d="M1784,1333v3l16,25 -16,15 -20,-40 -40,-10 -5,-17 -29,19 -8,3 12,-40 18,-12 13,-44h12l32,-87 23,-26 146,-4 5,126 -25,10 -13,27 -25,10 5,39 -47,24 -26,-15 5,-31Z"/>
    <path data-fips-int="2185" data-name="North Slope Borough" d="M1789,105v13l48,-13 35,-48 53,20 17,30 48,-13 2,1 29,5 -1,22 15,15 38,-7h2v1l3,1v11l2,-1 6,-6v-1l19,-13 35,4v1h1v1l33,6 22,6 50,-4 37,11 30,-16 -2,-2 2,1 -2,-1 3,-1 7,-5 60,12h1l42,10 32,112 -182,44 10,47 -148,26 -203,19 -36,-1 -35,-18h-112l-166,-10 -2,21 -33,-3 -40,-36 8,-4 10,-50 74,2 45,-41 5,-42h3l31,-35 44,-18Z"/>
    <path data-fips-int="2188" data-name="Northwest Arctic Borough" d="M1709,582h-4v1v3l4,-6 1,-1 -38,-18 2,-16 43,16 25,-10v-2l-5,-12 -35,3 -2,3 -23,-15 5,-31 -40,-8 -38,-11v-29l-55,-67 33,3 2,-21 166,10h112l35,18 36,1 -1,24 26,15v36l25,8v45l-51,18v27l-45,-15h-50v37h-45l-25,17 -2,44 -8,9 -166,-8 -19,-37v-80v-1h22l2,54 74,10 4,-1 13,-22 18,13v1h-1v-1l-2,1v1l3,-2v-3v-1h4v-1Z"/>
    <path data-fips-int="2270" data-name="Wade Hampton Census Area" d="M1458,1052l18,-44 -5,-23 46,-45 19,-18 28,31 -3,-46 1,1h5l2,-2v1v-1v-2l2,-1 33,-8 23,-20 24,28 54,2 -11,51 3,57 20,1 17,12 -83,33 -29,-8 -51,17 -24,-4 -10,36 -48,5 -35,-49v-1h4h-4v1l4,-4ZM1571,903l-2,1v2v1v-1l-2,2h-5l-1,-1 -9,-2 -15,-13 24,-21 23,17Z"/>
    <path data-fips-int="2164" data-name="Lake and Peninsula Borough" d="M2061,1111l7,44 -8,71 -34,57 -18,1 10,62 17,-1 -12,33 -40,17 2,32 -25,30 -28,8 -20,37h21l-96,63 -22,24 7,28 -62,23 -5,20 -18,-26v-62l50,-17 7,-14 31,-50 33,-33 10,-90 12,-13 50,-1 -2,-29 -35,1 -8,4 -5,-39 25,-10 13,-27 25,-10 -5,-126Z"/>
    <path data-fips-int="2150" data-name="Kodiak Island Borough" d="M2070,1462v-4l-7,-18 7,-20 25,16 -2,-29 35,9h2l15,21 13,2 -25,38 -32,10 -33,50 -33,-22 -17,-29 22,-39 30,15v-4ZM2088,1319l-2,1h-1l-29,27 -13,32v-1l-5,23 -33,12 -35,23 -48,51 11,15h-21l20,-37 28,-8 25,-30 -2,-32 40,-17 12,-33 26,-2 24,-23h1ZM2143,1359l13,26 -56,10 3,-19 30,-8 7,1 3,-10h-2Z"/>
    <path data-fips-int="2122" data-name="Kenai Peninsula Borough" d="M2278,1093l16,8h4l1,7 2,17 2,4 6,54 -26,-7 -25,17 -30,39 -24,37 -20,-6 -19,18 -15,-15 24,-19 -23,-26 18,-50 -6,-49 46,-40ZM2086,1320h-1l-24,23 -26,2 -17,1 -10,-62 18,-1 34,-57 8,-71 -7,-44 -5,-53 22,-2 82,-8 19,22 -58,76 -1,23 -27,8 20,14 -28,49 -22,2 -23,30 -2,32 25,-5Z"/>
    <path data-fips-int="2261" data-name="Valdez-Cordova Census Area" d="M2309,1183l-6,-54 25,2 -5,45ZM2341,1085l-25,-22 -18,38h-4l10,-14 -8,-58 71,-17 -13,-78 23,-4 -20,-93 59,-17 1,10 90,-19 10,47 38,-13 19,13 23,59 38,-10 42,149 -42,-3 -66,18 -24,59 -56,-20v-10l2,-5 -4,-5 -8,1v4l-8,16 -49,-33 -61,-14 -22,19Z"/>
    <path data-fips-int="2130" data-name="Ketchikan Gateway Borough" d="M3364,1268l5,20 13,8 30,41 -13,60 -5,2 -12,6 -25,-36v-22v-1v-1l-10,-26 -41,-11 -12,16 5,41 -20,-9 12,-55 28,-32 -10,-10ZM3355,1361l-3,14 -45,-11 -8,-38 17,-22 33,24Z"/>
    <path data-fips-int="2110" data-name="Juneau City and Borough" d="M3018,1112l-14,-11 9,-3 3,2 -3,-3 30,-11 70,32 20,23 -10,28 -2,10v6h-2l-36,-30 -40,-5 -17,-20 -7,-19 -3,-10Z"/>
    <path data-fips-int="2100" data-name="Haines Borough" d="M3043,1086l-30,11v1l-9,3 -24,-31 16,-7ZM2980,1069l11,34 43,67 -30,-18 -23,-18 -8,-36 -43,-1 -5,-35 25,-23Z"/>
    <path data-fips-int="2220" data-name="Sitka City and Borough" d="M3089,1313v-2h-18l-18,-40 -14,-28 29,5 10,-4 38,66 12,41 3,8ZM2988,1235l-3,-3 16,-6v-1l2,-18 45,15 11,22 -40,-13 20,23 -13,11 -35,-29Z"/>
    <path data-fips-int="2282" data-name="Yakutat City and Borough" d="M2782,1130l-22,-14v-40l-30,38 -28,4 -43,-12 -54,-1 -60,25 24,-59 66,-18 42,3 53,5 40,-29 2,27 104,59 14,30 -19,17 -21,-19 -58,-12Z"/>
    <path data-fips-int="2180" data-name="Nome Census Area" d="M1255,798l25,-9 33,42 31,7 -36,24 -50,-51 -42,1 12,-31ZM1704,708l-50,23 -30,35 -40,-28 -57,9 -49,-20 -20,-57 20,-12 28,25 11,-12 -86,-36 -18,-18 13,-18 3,-1 -3,2 42,-12 10,-16 94,-40v1v80l19,37 166,8 8,-9 10,9 -10,53 -16,17v72l10,26 -45,25 -9,54 -54,-2 -24,-28 29,-16 38,-5 18,-27 -25,-78 27,-9Z"/>
    <path data-fips-int="2232" data-name="Hoonah-Angoon Census Area" d="M3011,1200l-3,6v1l18,-21h22l5,28 -50,-7 -2,18 -30,-17 15,-18 25,9ZM3204,1200l-17,-2 -13,32 -21,10v-18l-25,-21 -7,-27 2,-3v-2l10,-28ZM3094,1184l22,23 -2,48 -13,19 -12,-43v-3l-33,-51 18,-11v-1l9,-5ZM2988,1160l-2,-1 2,1 -2,-1 -6,-6v24l-20,23 -89,-35 19,-17 40,-51 43,1 8,36 23,18Z"/>
    <path data-fips-int="2230" data-name="Skagway Municipality" d="M2996,1063l-16,7v-1l-30,-30 38,2Z"/>
    <path data-fips-int="2275" data-name="Wrangell-Petersburg City and Borough" d="M3231,1264h-10l15,-27 26,21 47,1 10,10 -28,32 -12,55 -5,-7 8,-30 -25,-33 -25,-25v1v1v-1l-1,2Z"/>
    <path data-fips-int="2280" data-name="Petersburg Census Area" d="M3182,1275l15,27 -25,10 -8,-18 -1,-2 -2,-6 -25,-31 45,-7ZM3151,1289v-1v-6l13,12 -11,29v-1l-19,-13 -8,-21 -5,-1ZM3204,1200l32,37 -15,27 -25,-20 -43,-4 21,-10 13,-32Z"/>
    <path data-fips-int="2198" data-name="Prince of Wales-Hyder Census Area" d="M3264,1369h-2v14l20,-8 39,46 8,19 -33,-11v1l-4,-3 -20,-24 -13,9 -2,1 -20,-30v-3l-21,3v-27v-27l11,9v-1l32,23 3,9h2Z"/>
  </g>
  <path class="mesh" transform="scale(0.1)" d="M2329,811l-46,8 1,14 -65,11 -101,67 -52,12 24,-47 -20,-17 -5,-30 28,-3 5,-37 33,-3 19,-40 118,-15 8,5 38,-4 15,79 22,-5 6,31 20,93 -23,4 13,78 -71,17 -38,1M2635,907l-38,10 -23,-59 -19,-13 -38,13 -10,-47 -90,19 -1,-10 -59,17M2268,731l-2,-1 -3,-2v-1l-2,-1 -2,-4h-1v-1v-1l-2,-1v-1h-2l-1,-2 -2,-1h-2v-1l-1,-1 -2,-3 -2,-1h-1l-15,-61 46,-8 62,-30 20,33 73,-21 3,42 -38,20 -53,42h-5l-5,3 -17,3M2432,664l15,-1 7,-20 5,-28 2,-1 11,-12v-8v-5h-1h-2l13,-12 10,-10h2h2l18,-18 6,-21v-1h2l2,-6 3,-3M2071,967l-33,30 -156,9v-10l-70,1 -35,18 -60,-1 -20,-1 -3,-57 11,-51 9,-54 45,-25 -10,-26v-72l16,-17 10,-53 -10,-9 2,-44 25,-17h45v-37h50l45,15v-27l51,-18v-45l-25,-8v-36l-26,-15 1,-24 203,-19 148,-26 -10,-47 182,-44M1794,1541l-7,14 -50,17v62l18,26M2296,1029l8,58 -10,14 -16,-8M1489,1105l48,-5 10,-36 24,4 51,-17 29,8 83,-33 -17,-12M2078,1056l-22,2 5,53 -123,7 -146,4 -23,26 -32,87h-12l-13,44 -18,12 -12,40M1893,1326l35,-1 2,29 -50,1M1938,1118l5,126 -25,10 -13,27 -25,10 5,39M1933,393l-36,-1 -35,-18h-112l-166,-10 -2,21 -33,-3M1765,649l-8,9 -166,-8 -19,-37v-80v-1M1627,875l24,28 54,2M2061,1111l7,44 -8,71 -34,57 -18,1 10,62 17,-1 -12,33 -40,17 2,32 -25,30 -28,8 -20,37h21M2035,1345l26,-2 24,-23h1M2294,1101h4M2303,1129l6,54M2677,1056l-42,-3 -66,18 -24,59M3279,1356l12,-55 28,-32 -10,-10M3004,1101l9,-3M3013,1097l30,-11M3133,1141l-10,28M2980,1070l16,-7M3004,1152l-23,-18 -8,-36 -43,-1M2950,1039l30,30M3001,1225l2,-18M2890,1148l-19,17M3204,1200l-17,-2 -13,32 -21,10M3221,1264l15,-27M2179,1070l-19,-22 -82,8 -7,-89 -5,-44"/>
  <g class="cities">
    <circle r="3" cx="223.2" cy="106.1"/>
    <text x="223.2" y="106.1">Anchorage</text>
    <circle r="3" cx="227.3" cy="68.0"/>
    <text x="227.3" y="68.0">Fairbanks</text>
    <circle r="3" cx="306.7" cy="115.2"/>
    <text x="306.7" y="115.2">Juneau</text>
  </g>
</svg>