<?xml version="1.0" encoding="utf-8"?>
<!DOCTYPE svg PUBLIC "-//W3C//DTD SVG 1.1//EN" "http://www.w3.org/Graphics/SVG/1.1/DTD/svg11.dtd">
<svg version="1.1" xmlns="http://www.w3.org/2000/svg" width="350" height="198" viewBox="0 0 350 198">
  <path class="state" transform="scale(0.1)" d="M1800,1361l-13,13 -18,-34 -45,-14 -5,-17 -27,19 -12,3 0,2 -14,8 -19,17 -8,-12 17,-43 1,0 -1,-1 -22,-3 15,-36 -23,-73 0,-1 -2,-1 0,NaN 135,NaN -4,13 0,8 -23,-19 -35,35 -40,11 -18,-28 -23,52 -15,6 -27,-26 -13,35 -30,10 13,-36 87,-70 35,-9 14,8 20,-1 10,-33 57,-42 5,-2 -3,2 3,-3 22,-16 0,1 0,7 11,-14 53,-69 5,-53 15,-8 2,0 2,1 -2,-1 -15,-7 15,-35 13,-29 0,-4 -8,8 -47,24 -26,-15 5,-30 0,NaN 221,NaN -33,12 0,-1 0,1 -4,0 2,-1 -2,1 -18,30 -58,42 8,8 -1,0 1,9 -5,6 -3,6 -88,51 -25,29 0,-1 10,24 -67,19 2,0 0,NaN 447,NaN -39,12 -10,-21 19,-19 0,-1 10,-6 2,0 -35,-13 18,-50 -6,-51 48,-37 67,10 -55,-25 33,-38 2,0 0,-1 -30,29 -49,10 0,2 -34,31 -34,76 -3,32 -35,31 -30,28 -8,28 25,4 1,0 24,20 -30,49 -17,12 2,1 -2,-1 2,0 3,-2 0,NaN 102,NaN 6,24 -46,26 -2,0 -2,0 -15,30 -28,20 3,-25 -8,7 0,2 -35,-35 22,-39 18,-2 12,22 -2,-11 2,1 -2,-1 -5,-16 0,NaN 697,NaN -2,-4 2,0 2,0 1,0 4,-16 -2,-1 -5,-23 0,-1 -28,39 -30,4 -43,-12 -52,-1 -62,25 -58,-27 2,-3 2,-5 0,-1 0,-2 -2,0 -2,-2 -1,0 0,NaN -162,NaN 5,3 2,1 10,5 0,NaN 673,NaN 40,NaN 22,-13 0,-1 5,-5 22,34 0,-1 -9,-9 -1,-2 -9,-7 -1,-1 1,0 -1,0 1,8 2,2 0,3 0,1 13,8 24,26 -5,16 -4,17 0,2 -13,17 -13,-40 -2,-3 0,-1 2,0 0,-2 -2,0 0,NaN 238,NaN 0,-2 0,-1 3,20 -3,-1 -15,-18 0,-1 3,-3 -10,-31 2,-3 2,-1 1,-2 -1,2 -2,1 -3,-1 -4,6 -5,8 7,36 -17,-9 -1,0 -7,-7 0,NaN -125,NaN 0,-6 2,0 10,10 0,1 2,1 1,0 2,3 -3,35 0,1 -17,-10 8,0 -5,-2 0,-1 5,2 -5,-2 -10,-12 0,-1 -1,0 1,0 -1,1 -4,1 0,NaN 163,NaN 0,1 -5,1 0,-4 -20,-24 -1,9 -5,-1 -2,-3 -3,1 0,2 3,3 -5,-2 -2,0 2,-1 2,-1 -2,1 -2,1 -5,-3 -1,1 -2,1 -7,1 -1,-12 1,0 9,-1 3,-1 -3,0 -5,-1 -4,-2 -5,-3 0,-10 0,-3 -1,1 -2,-2 -8,6 -7,-1 -2,-1 -3,-7 3,-3 0,-1 4,-3 -2,-12 -2,-1 -5,-2 0,-1 -6,-15 -4,-6 -1,0 0,1 -5,1 0,1 -2,1 0,2 2,-3 0,-1 5,-1 0,-1 1,0 4,6 1,10 -1,1 -5,1 -10,15 0,-25 3,-1 -3,1 1,-3 2,-1 -2,0 2,-1 -5,0 2,1 1,0 0,1 -1,0 -2,-1 -7,-2 30,-11 2,6 7,7 1,-1 4,1 -2,-2 3,3 0,1 -1,0 1,0 0,-1 5,-2 34,24 0,NaN -953,NaN 1,-2 7,-5 2,2 3,-5 20,0 1,0 25,12 9,3 -9,-3 10,3 4,0 0,1 -4,-1 9,2 5,1 1,1 4,1 1,1 2,1 3,3 17,0 32,112 71,261 0,NaN -269,NaN 1,1 0,1 0,1 2,2 5,4 2,NaN -566,NaN -2,2 -23,-15 7,-31 -40,-7 0,-1 -3,1 -34,-9 -15,-55 -15,-11 0,-2 -3,-4 2,1 -2,-1 -23,-27 -32,-40 0,1 0,-1 8,-50 74,2 43,-46 2,-2 3,-29 3,-4 0,-1 0,1 -3,-1 3,NaN 439,NaN -3,0 -3,-4 -12,2 -38,7 -15,-15 -2,0 -15,-26 -2,0 2,1 0,1 -2,-2 -3,-1 -6,-1 -2,0 -30,14 -25,-5 -10,-26 -32,32 14,-36 -37,-14 -33,46 -48,13 0,-12 0,-1 -30,25 1,34 -1,-8 -7,-21 -23,20 0,1 -42,20 -2,0 2,-1 -33,35 0,1 -2,NaN -130,NaN 5,40 -41,1 -45,17 30,-51 40,NaN -60,NaN 20,-10 8,-6 43,-1 0,-1 -1,-19 1,-1 7,-3 5,-2 27,-9 13,-4 27,12 -17,27 2,2 -2,-1 2,1 8,13 3,0 73,10 5,-1 2,-1 -2,1 2,NaN -51,NaN 0,1 -4,-2 10,-39 0,-1 -18,23 0,35 -45,19 -38,-4 -25,-52 1,-2 2,-4 3,-1 0,-2 0,2 -3,1 -2,4 -1,2 -33,-30 26,-25 32,8 -5,18 -9,5 -3,1 3,-1 9,-5 40,-28 -52,3 -16,-12 -9,2 -8,-28 18,-27 3,-1 -3,-1 -20,39 -23,-31 2,NaN 81,NaN -22,15 0,3 -46,44 -3,41 -22,1 12,25 0,1 0,-1 -2,NaN 702,NaN -42,21 -1,-1 -2,0 -5,-3 -2,-2 -1,-2 11,-22 2,-2 0,2 2,0 -2,-2 3,-15 2,0 0,-1 10,10 2,0 3,1 2,0 1,-8 2,-1 3,3 0,NaN 191,NaN -9,8 1,0 -1,0 -14,21 -5,2 -31,6 0,-1 0,1 0,-3 -9,18 0,1 -11,NaN 40,NaN 1,2 2,17 2,4 33,-10 -4,36 5,NaN 94,NaN -4,3 -20,1 -18,-36 -17,16 0,-1 -25,14 -8,3 2,1 0,NaN 50,NaN -19,50 -23,5 30,NaN 296,NaN 57,5 36,-29 2,27 106,59 14,30 38,-51 -3,-35 26,-23 9,-12 38,36 46,23 69,32 20,23 71,59 32,37 25,21 46,1 57,9 5,20 13,8 30,41 -13,60 0,1 -2,4 -2,1 -1,-1 0,-2 0,NaN -2046,NaN 1,2 -39,23 0,2 -39,13 -21,-7 41,-11 25,-19 0,-1 -18,-16 36,0 2,-1 12,12 1,NaN 2008,NaN -2,-1 2,3 0,27 25,31 12,-7 0,NaN -380,NaN 2,NaN -1826,NaN 41,-33 25,6 -46,40 -42,NaN 2093,NaN -4,-19 -23,-21 2,0 -2,0 -5,6 -7,-3 -1,0 0,-1 1,-1 5,-1 2,0 0,-1 0,1 -2,0 -6,-1 -27,-21 2,1 -45,-4 -3,-24 -25,-42 1,-3 0,-2 -1,10 -4,6 -1,0 -49,-31 0,-1 -5,-2 -1,-1 -7,-1 -2,2 -1,0 -20,-16 -7,-5 -3,-4 -4,-15 -1,1 -14,-11 -23,-30 0,-1 -1,-1 1,2 14,22 -7,-4 0,-1 11,23 17,24 -2,0 0,2 2,1 2,1 -2,0 2,0 15,28 1,NaN -79,NaN -59,-26 -23,-10 -33,-19 1,-1 -1,0 -47,-11 -11,-4 -22,-10 2,-4 -2,NaN -1505,NaN 21,-9 39,41 28,7 -38,34 -10,-22 -37,NaN -17,NaN -5,-3 -21,9 16,23 25,-8 2,NaN 261,NaN 2,-7 1,1 5,2 -5,-2 -1,-1 13,-22 12,4 3,2 2,1 0,2 0,-2 -2,-1 -3,-2 -10,-7 0,-3 0,-1 0,1 0,-2 25,-14 23,17 -7,5 7,-5 18,7 24,-20 28,-22 -2,4 0,1 4,1 38,-5 18,-27 -23,-65 23,-22 -8,-30 -50,21 -30,35 -40,-28 -57,9 -49,-20 -20,-57 21,-13 27,26 16,-11 -83,-33 -28,-22 13,-17 2,-1 2,-1 8,NaN 1565,NaN -2,0 -1,-1 1,1 2,NaN -13,NaN 23,9 0,1 2,1 -7,5 2,0 13,-16 5,-4 22,0 -2,30 -40,-8 -3,-1 3,1 42,14 13,22 -40,-11 2,2 10,5 5,10 0,3 0,-3 30,-2 8,8 3,3 0,-1 37,52 12,40 0,1 1,3 2,5 -2,-4 -38,-29 0,-13 -3,0 -5,7 0,-3 0,-3 0,-1 0,1 -2,1 -2,2 -1,-2 0,-3 1,-2 -1,2 -4,1 -3,-1 -2,-1 0,-1 -3,-16 -2,-6 -1,0 -9,-10 -1,-7 -4,1 -3,3 -2,-2 -1,-1 1,1 2,2 -3,1 -4,-1 4,1 5,6 -12,-13 2,0 5,2 -5,-2 -4,-4 4,-7 0,-3 0,-1 0,1 0,3 -4,7 -33,-22 -2,5 -3,-5 3,-2 -8,-4 0,-1 -1,1 -2,-2 -3,-2 -2,0 -2,1 0,-11 0,-1 -1,-2 1,2 0,1 -8,-13 7,NaN 54,NaN -1,1 1,0 0,-1 0,-1 0,3 -1,0 -25,-14 -2,-3 0,-3 -2,-1 0,-1 0,1 2,1 0,3 2,3 -20,2 -5,3 0,-4 0,2 2,-1 0,-1 1,-1 2,1 0,-1 -2,NaN 168,NaN -8,-8 -2,-1 -1,-1 -9,-15 47,-7 15,13 30,13 -20,15 -5,NaN -1752,NaN -8,1 -17,0 -21,-2 -35,-41 50,-13 36,13 5,NaN 1068,NaNZ"/>
  <g class="counties" transform="scale(0.1)">
    <path data-fips-int="2068" data-name="Denali Borough" d="M2268,732l46,0 15,79 -46,8 1,14 -65,11 -101,67 -52,12 24,-47 -20,-17 -5,-30 28,-3 5,-37 33,-3 19,-40Z"/>
    <path data-fips-int="2090" data-name="Fairbanks North Star Borough" d="M2248,712l-10,-2 -10,-62 46,-8 32,-15 12,-15 38,33 26,-16 45,-2 5,39 -36,19 -55,43 -27,6Z"/>
    <path data-fips-int="2170" data-name="Matanuska-Susitna Borough" d="M2357,837l20,93 -23,4 13,78 -71,17 -38,1 0,-1 -30,29 -49,10 0,2 0,-2 -19,-20 -82,8 -7,-89 -5,-44 52,-12 101,-67 65,-11 -1,-14 46,-8 22,-5Z"/>
    <path data-fips-int="2240" data-name="Southeast Fairbanks Census Area" d="M2514,836l-5,-25 -92,19 -1,-10 -59,17 -6,-31 -22,5 -15,-79 27,-6 55,-43 36,-19 15,-2ZM2514,837l-2,3 10,6 18,2 2,0 33,10 20,59 40,-10 -108,-388Z"/>
    <path data-fips-int="2290" data-name="Yukon-Koyukuk Census Area" d="M2258,719l0,2 1,1 0,1 0,1 2,2 5,4 2,1 -118,15 -19,40 -33,3 -5,37 -28,3 5,30 20,17 -24,47 5,44 -33,30 -156,9 0,-10 -70,1 -35,18 -60,-1 -20,-1 -3,-57 11,-51 7,-54 47,-25 -10,-26 0,-72 16,-17 10,-62 -10,0 2,-44 25,-17 45,0 0,-37 50,0 45,15 0,-27 51,-18 0,-45 -25,-8 0,-36 -26,-15 1,-24 203,-19 148,-26 -10,-47 182,-44 71,261 0,1ZM2451,649l-4,13 -15,2 -5,-39 -45,2 -26,16 -38,-33 -12,15 -32,15 -46,8 10,62Z"/>
    <path data-fips-int="2013" data-name="Aleutians East Borough" d="M1511,1709l11,1 5,40 -41,1 -45,17 30,-51ZM1794,1533l0,1 0,7 -7,14 -50,17 0,62 18,2 0,15 0,8 -23,-19 -35,35 -40,11 -18,-28 -23,52 -15,6 -27,-26 -13,35 -30,10 13,-36 87,-70 35,-9 14,8 20,-1 10,-33 57,-42 5,-2 -3,2 3,-3Z"/>
    <path data-fips-int="2016" data-name="Aleutians West Census Area" d="M1349,1828l-1,-2 1,2 -39,23 0,2 -39,13 -21,-7 41,-11 25,-19 0,-1 -18,-16 36,0 2,-1 12,12ZM1168,1895l22,-30 41,-33 25,6 -46,40Z"/>
    <path data-fips-int="2020" data-name="Anchorage Municipality" d="M2258,1030l38,-1 8,58 -11,14 -15,-8 -55,-25 33,-38Z"/>
    <path data-fips-int="2050" data-name="Bethel Census Area" d="M1624,1189l2,0 0,1 -4,-2 10,-39 0,-1 -18,23 0,35 -45,19 -38,-4 -25,-52 1,-2 2,-4 3,-1 0,-2 0,2 -3,1 -2,4 -1,2 -33,-30 26,-25 32,8 -5,18 -9,5 -3,1 3,-1 9,-5 40,-28 -52,3 -16,-12 -9,2 9,-2 9,-2 4,0 11,3 49,-36 38,-17 40,8 85,-33 -17,-12 60,1 35,-18 70,-1 0,10 156,-9 33,-30 7,89 -22,2 5,53 -123,7 -146,4 -23,26 -32,87 -12,0 -13,44 -18,12 -14,40 0,2 -14,8 -19,17 -8,-12 17,-43 1,0 -1,-1 -22,-3 15,-36 -23,-73 0,-1 -2,-1ZM1459,1199l-10,8 -8,1 -17,0 -21,-2 -35,-41 50,-13 36,13Z"/>
    <path data-fips-int="2060" data-name="Bristol Bay Borough" d="M1880,1355l13,-29 35,-1 2,29Z"/>
    <path data-fips-int="2070" data-name="Dillingham Census Area" d="M1800,1361l-13,13 -18,-34 -45,-14 -5,-17 -27,19 -12,3 14,-40 18,-12 13,-44 12,0 32,-87 23,-26 146,-4 5,126 -25,10 -13,27 -25,10 5,39 -47,24 -26,-15 5,-30Z"/>
    <path data-fips-int="2185" data-name="North Slope Borough" d="M2311,130l2,0 1,-2 7,-5 2,2 3,-5 20,0 1,0 25,12 9,3 -9,-3 10,3 4,0 0,1 -4,-1 9,2 5,1 1,1 4,1 1,1 2,1 3,3 17,0 32,112 -182,44 10,47 -148,26 -203,19 -36,-1 -35,-18 -112,0 -166,-10 -2,21 -31,-3 -32,-40 0,1 0,-1 8,-50 74,2 43,-46 2,-2 3,-29 3,-4 0,-1 0,1 -3,-1ZM2090,133l1,-1 -3,0 -3,-4 -12,2 -38,7 -15,-15 -2,0 -15,-26 -2,0 2,1 0,1 -2,-2 -3,-1 -6,-1 -2,0 -30,14 -25,-5 -10,-26 -32,32 14,-36 -37,-14 -33,46 -48,13 0,-12 0,-1 -30,25 1,34 -1,-8 -7,-21 -23,20 0,1 -42,20 -2,0 2,-1 -33,35 0,1Z"/>
    <path data-fips-int="2188" data-name="Northwest Arctic Borough" d="M1702,541l-2,2 -23,-15 7,-31 -40,-7 0,-1 -3,1 -34,-9 -15,-55 -15,-11 0,-2 -3,-4 2,1 -2,-1 -23,-27 31,3 2,-21 166,10 112,0 35,18 36,1 -1,24 26,15 0,36 25,8 0,45 -51,18 0,27 -45,-15 -50,0 0,37 -45,0 -25,17 -2,44 -8,9 -166,-8 -17,-37 0,-81 27,12 -17,27 2,2 -2,-1 2,1 8,13 3,0 73,10 5,-1 2,-1 -2,1Z"/>
    <path data-fips-int="2270" data-name="Wade Hampton Census Area" d="M1519,923l0,-1 2,-7 1,1 5,2 -5,-2 -1,-1 13,-22 12,4 3,2 2,1 0,2 0,-2 -2,-1 -3,-2 -10,-7 0,-3 0,-1 0,1 0,-2 25,-14 23,17 -7,5 7,-5 18,7 24,-20 26,28 53,2 -11,51 3,57 20,1 17,12 -85,33 -40,-8 -38,17 -49,36 -11,-3 -4,0 -9,2 -9,2 -8,-28 18,-27 3,-1 -3,-1 -20,39 -23,-31ZM1562,949l-23,-26 -22,15 0,3 -46,44 -3,41 -22,1 12,25 0,1 0,-1Z"/>
    <path data-fips-int="2164" data-name="Lake and Peninsula Borough" d="M1757,1637l2,1 -4,13 0,8 0,-8 0,-15 -18,-2 0,-62 50,-17 7,-14 11,-14 53,-69 5,-53 15,-8 2,0 2,1 -2,-1 -15,-7 15,-35 50,-1 -2,-29 -35,1 0,-4 -8,8 -5,-39 25,-10 13,-27 25,-10 -5,-126 123,-7 7,44 -8,71 -34,57 -18,1 10,62 17,-1 -12,33 -40,17 2,32 -25,30 -28,8 -20,37 21,0 -5,6 -3,6 -88,51 -25,29 0,-1 10,24 -67,19 2,0Z"/>
    <path data-fips-int="2150" data-name="Kodiak Island Borough" d="M2043,1378l-5,23 -33,12 0,-1 0,1 -4,0 2,-1 -2,1 -18,30 -58,42 8,8 -1,0 1,9 -21,0 20,-37 28,-8 25,-30 -2,-32 40,-17 12,-33 26,-2 24,-23 -30,49 -17,12 2,1 -2,-1 2,0 3,-2ZM2145,1437l6,24 -46,26 -2,0 -2,0 -15,30 -28,20 3,-25 -8,7 0,2 -35,-35 22,-39 18,-2 12,22 -2,-11 2,1 -2,-1 -5,-16ZM2146,1363l12,21 -42,21 -1,-1 -2,0 -5,-3 -2,-2 -1,-2 11,-22 2,-2 0,2 2,0 -2,-2 3,-15 2,0 0,-1 10,10 2,0 3,1 2,0 1,-8 2,-1 3,3Z"/>
    <path data-fips-int="2122" data-name="Kenai Peninsula Borough" d="M2228,1233l-24,36 -39,12 -10,-21 19,-19 0,-1 10,-6 2,0 -35,-13 18,-50 -6,-51 48,-37 67,10 15,8 1,0 4,0 0,5 1,2 2,17 2,4 11,52 -5,2 -31,6 0,-1 0,1 0,-3 -9,18 0,1ZM2085,1320l-24,23 -26,2 -17,1 -10,-62 18,-1 34,-57 8,-71 -7,-44 -5,-53 22,-2 82,-8 19,20 0,2 -34,31 -34,76 -3,32 -35,31 -30,28 -8,28 25,4 1,0 24,20Z"/>
    <path data-fips-int="2261" data-name="Valdez-Cordova Census Area" d="M2337,1152l-9,8 1,0 -1,0 -14,21 -5,2 5,-2 -11,-52 33,-10 -4,36ZM2514,837l-2,3 10,6 18,2 2,0 33,10 20,59 40,-10 40,149 -40,-3 -68,18 -22,59 -58,-27 2,-3 2,-5 0,-1 0,-2 -2,0 -2,-2 -1,0ZM2514,836l-5,-25 -92,19 -1,-10 -59,17 20,93 -23,4 13,78 -71,17 8,58 -11,14 1,0 4,0 26,-25 5,3 2,1 10,5ZM2431,1082l-4,3 -20,1 -18,-36 -17,16 0,-1 -25,14 -8,3 2,1ZM2379,1128l12,1 -19,50 -23,5Z"/>
    <path data-fips-int="2130" data-name="Ketchikan Gateway Borough" d="M3324,1356l0,-2 0,-1 3,20 -3,-1 -15,-18 0,-1 3,-3 -10,-31 2,-3 2,-1 1,-2 -1,2 -2,1 -3,-1 -4,6 -5,8 7,36 -17,-9 4,-9 1,0 4,-40 1,0 15,-3 0,-45 57,9 5,20 13,8 30,41 -13,60 0,1 -2,4 -2,1 -1,-1 0,-2ZM3355,1344l2,1 -2,-1 2,3 0,27 25,31 12,-7Z"/>
    <path data-fips-int="2110" data-name="Juneau City and Borough" d="M3016,1099l-2,-1 0,-1 30,-11 69,32 20,23 -9,28 -1,10 -4,6 -1,0 -49,-31 0,-1 -5,-2 -1,-1 -7,-1 -2,2 -1,0 -20,-16 -7,-5 -3,-4 -4,-15 -1,1 -14,-11 10,-3Z"/>
    <path data-fips-int="2100" data-name="Haines Borough" d="M3034,1171l0,1 -1,1 1,0 0,-1 0,-1 0,3 -1,0 -25,-14 -2,-3 0,-3 -2,-1 0,-1 -18,-18 2,-18 -22,-19 -16,-1 -9,1 -10,0 -3,0 -3,-35 26,-23 29,30 1,2 14,22 -7,-4 0,-1 11,23 17,24 -2,0 0,2 2,1 2,1 -2,0 2,0 15,28ZM3044,1086l-30,11 0,1 -10,3 -23,-30 0,-1 17,-7Z"/>
    <path data-fips-int="2220" data-name="Sitka City and Borough" d="M3088,1313l-5,7 0,-3 0,-3 0,-1 0,1 -2,1 -2,2 -1,-2 0,-3 1,-2 -1,2 -4,1 -3,-1 -2,-1 0,-1 -3,-16 -2,-6 -1,0 -9,-10 -1,-7 -4,1 -3,3 -2,-2 -1,-1 1,1 2,2 -3,1 -4,-1 4,1 5,6 -12,-13 2,0 5,2 -5,-2 -4,-4 4,-7 0,-3 0,-1 0,1 0,3 -4,7 -33,-22 -2,5 -3,-5 3,-2 -8,-4 0,-1 -1,1 -2,-2 -3,-2 16,-7 0,-1 2,-18 3,1 42,14 13,22 -40,-11 2,2 10,5 5,10 0,3 0,-3 30,-2 8,8 3,3 0,-1 37,52 12,40 0,1 1,3 2,5 -2,-4 -38,-29 0,-13Z"/>
    <path data-fips-int="2282" data-name="Yakutat City and Borough" d="M2760,1117l0,3 -2,-4 2,0 2,0 1,0 4,-16 -2,-1 -5,-23 0,-1 -28,39 -30,4 -43,-12 -52,-1 -62,25 22,-59 68,-18 40,3 57,5 36,-29 2,27 106,59 14,30 -17,17 -33,-19 1,-1 -1,0 -47,-11 -11,-4 -22,-10 2,-4 -2,0Z"/>
    <path data-fips-int="2180" data-name="Nome Census Area" d="M1255,799l21,-9 39,41 28,7 -38,34 -10,-22ZM1255,798l-14,-7 -5,-3 -21,9 16,23 25,-8ZM1436,595l15,-7 20,-10 8,-6 43,-1 0,-1 -1,-19 1,-1 7,-3 5,-2 27,-9 13,-4 0,81 17,37 166,8 8,-9 10,0 -10,62 -16,17 0,72 10,26 -47,25 -7,54 -53,-2 -26,-28 28,-22 -2,4 0,1 4,1 38,-5 18,-27 -23,-65 23,-22 -8,-30 -50,21 -30,35 -40,-28 -57,9 -49,-20 -20,-57 21,-13 27,26 16,-11 -83,-33 -28,-22 13,-17 2,-1 2,-1Z"/>
    <path data-fips-int="2232" data-name="Hoonah-Angoon Census Area" d="M3086,1229l-32,-50 22,-13 0,-1 5,-5 22,34 0,-1 -9,-9 -1,-2 -9,-7 -1,-1 1,0 -1,0 1,8 2,2 0,3 0,1 13,8 24,26 -5,16 -4,17 0,2 -13,17 -13,-40 -2,-3 0,-1 2,0 0,-2 -2,0ZM2986,1190l2,0 23,9 0,1 2,1 -7,5 2,0 13,-16 5,-4 22,0 -2,30 -40,-8 -3,-1 -2,18 -2,0 -1,-1 1,1 2,1 -16,7 -2,0 -2,1 0,-11 0,-1 -1,-2 1,2 0,1 -8,-13ZM3204,1200l-22,0 -8,30 -23,10 -3,-24 -25,-42 1,-3 0,-2 9,-28ZM2960,1189l-5,12 -59,-26 -23,-10 17,-17 38,-51 3,0 10,0 9,-1 16,1 22,19 -2,18 18,18 0,1 2,1 0,3 2,3 -20,2 -5,3 0,-4 0,2 2,-1 0,-1 1,-1 2,1 0,-1Z"/>
    <path data-fips-int="2230" data-name="Skagway Municipality" d="M2998,1063l-17,7 -1,-1 -29,-30 9,-12Z"/>
    <path data-fips-int="2275" data-name="Wrangell-Petersburg City and Borough" d="M3261,1305l-4,-19 -23,-21 2,0 -2,0 -5,6 -7,-3 -1,0 0,-1 1,-1 5,-1 2,0 0,-1 0,1 -2,0 -6,-1 15,-27 25,21 46,1 0,45 -15,3 -1,0 -4,40 -1,0 -4,9 -1,0 -7,-7Z"/>
    <path data-fips-int="2280" data-name="Petersburg Census Area" d="M3149,1288l0,-6 2,0 10,10 0,1 2,1 1,0 2,3 -3,35 0,1 -17,-10 8,0 -5,-2 0,-1 5,2 -5,-2 -10,-12 0,-1 -1,0 1,0 -1,1 -4,1ZM3158,1279l-4,1 -8,-8 -2,-1 -1,-1 -9,-15 47,-7 15,13 30,13 -20,15ZM3204,1200l32,37 -15,27 -27,-21 2,1 -45,-4 23,-10 8,-30Z"/>
    <path data-fips-int="2198" data-name="Prince of Wales-Hyder Census Area" d="M3297,1431l0,-1 0,1 -5,1 0,-4 -20,-24 -1,9 -5,-1 -2,-3 -3,1 0,2 3,3 -5,-2 -2,0 2,-1 2,-1 -2,1 -2,1 -5,-3 -1,1 -2,1 -7,1 -1,-12 1,0 9,-1 3,-1 -3,0 -5,-1 -4,-2 -5,-3 0,-10 0,-3 -1,1 -2,-2 -8,6 -7,-1 -2,-1 -3,-7 3,-3 0,-1 4,-3 -2,-12 -2,-1 -5,-2 0,-1 -6,-15 -4,-6 -1,0 0,1 -5,1 0,1 -2,1 0,2 2,-3 0,-1 5,-1 0,-1 1,0 4,6 1,10 -1,1 -5,1 -10,15 0,-25 3,-1 -3,1 1,-3 2,-1 -2,0 2,-1 -5,0 2,1 1,0 0,1 -1,0 -2,-1 -7,-2 30,-11 2,6 7,7 1,-1 4,1 -2,-2 3,3 0,1 -1,0 1,0 0,-1 5,-2 34,24Z"/>
  </g>
  <g class="cities">
    <circle r="3" cx="223.2" cy="106.1"/>
    <text x="223.2" y="106.1">Anchorage</text>
    <circle r="3" cx="227.3" cy="68.0"/>
    <text x="227.3" y="68.0">Fairbanks</text>
    <circle r="3" cx="306.7" cy="115.2"/>
    <text x="306.7" y="115.2">Juneau</text>
  </g>
</svg>