<?xml version="1.0" encoding="utf-8"?>
<!DOCTYPE svg PUBLIC "-//W3C//DTD SVG 1.1//EN" "http://www.w3.org/Graphics/SVG/1.1/DTD/svg11.dtd">
<svg version="1.1" xmlns="http://www.w3.org/2000/svg" width="222" height="350" viewBox="0 0 222 350">
  <defs>
    <pattern id="pattern-no-results" width="50" height="50" patternUnits="userSpaceOnUse">
      <rect width="50" height="50" fill="#ddd"/>
      <path d="M-5,5L5,-5M-5,55L55,-5M45,55L55,45" stroke-width="10" stroke="#ffffff"/>
    </pattern>
  </defs>
  <g class="counties" transform="scale(0.1)">
    <path data-fips-int="1001" data-name="Autauga County" d="M1268,1687l1,206 -28,4 -21,43 -28,-15 -30,3 -12,-30 -17,0 -21,35 -19,-5 -7,-31 -34,10 5,31 -13,25 -11,-21 -18,-44 13,-15 -35,-40 -15,-36 -1,-55 -3,-35 118,2 0,-30Z"/>
    <path data-fips-int="1005" data-name="Barbour County" d="M1984,2125l82,3 -13,83 -31,35 -4,38 9,52 -9,-5 -2,0 2,0 -2,0 -9,1 -26,19 -6,28 -117,-2 0,60 -195,4 -1,0 1,0 18,-30 6,-55 12,-10 9,-9 -3,-66 8,-13 41,-82 44,-11 49,-2 0,-85 9,-7 90,-1Z"/>
    <path data-fips-int="1007" data-name="Bibb County" d="M995,1451l1,148 -83,-2 -174,4 0,-30 -59,0 0,-90 62,-2 3,-56 17,-32 49,3 0,-46 27,-25 28,8 23,-20 22,4 1,54 32,5 0,42 20,25Z"/>
    <path data-fips-int="1009" data-name="Blount County" d="M1243,613l85,108 -17,43 -1,40 -20,30 25,-2 -7,15 -4,27 -48,43 -85,10 2,28 -41,-6 -65,-47 -73,-3 -40,20 -5,-29 23,-15 -2,-20 51,-31 38,-8 35,-59 4,-21 51,-24 29,-40 24,-43Z"/>
    <path data-fips-int="1011" data-name="Bullock County" d="M1585,1987l-1,3 10,25 249,-4 4,62 9,-2 -9,7 0,85 -49,2 -44,11 -41,82 -78,1 0,-60 -55,0 -6,-56 -61,-2 -2,-138 8,-15 37,-1 14,-22Z"/>
    <path data-fips-int="1013" data-name="Butler County" d="M1218,2507l-119,2 -81,-2 -19,-28 -21,-47 0,-83 0,-53 -1,-92 31,0 240,-1 1,214 -31,0Z"/>
    <path data-fips-int="1017" data-name="Chambers County" d="M1952,1404l32,173 35,60 -7,17 -87,2 -6,10 -173,4 -3,-262Z"/>
    <path data-fips-int="1019" data-name="Cherokee County" d="M1848,812l-55,4 -20,13 0,-10 -120,-8 -34,-99 -26,0 -2,-63 0,-28 41,-12 77,-75 25,-43 9,-36 36,-32 42,226Z"/>
    <path data-fips-int="1021" data-name="Chilton County" d="M1207,1471l0,63 41,55 -7,23 49,44 1,1 -24,0 1,30 -176,2 0,30 -118,-2 -59,2 0,-47 -2,-75 83,2 -1,-148 0,-17 157,2 -3,12 40,25Z"/>
    <path data-fips-int="1023" data-name="Choctaw County" d="M293,2179l1,0 1,22 -30,7 16,18 -22,12 -30,58 21,48 22,-7 9,44 -221,-2 -3,-140 34,-282 288,1 -28,2 -25,25 8,61 -19,27 -4,43 -43,19 0,28Z"/>
    <path data-fips-int="1025" data-name="Clarke County" d="M532,2181l-1,80 27,5 0,30 71,-2 -11,10 1,82 -30,0 0,100 -33,24 32,24 -4,33 -20,20 -21,-13 -38,16 -10,39 -18,-10 -19,20 12,23 -36,11 -30,57 -43,3 9,-23 -26,-30 34,-50 19,-15 -30,-11 17,-30 4,-47 -23,-27 -45,-16 -30,-30 -9,-73 -9,-44 -22,7 -21,-48 30,-58 22,-12 -16,-18 30,-7 -1,-22 -1,0 1,0Z"/>
    <path data-fips-int="1027" data-name="Clay County" d="M1590,1137l-20,21 55,0 15,-21 71,1 -3,270 -187,3 -19,8 0,-8 -96,0 0,-63 30,1 1,-71 80,0 2,-58 30,-12 11,-70Z"/>
    <path data-fips-int="1029" data-name="Cleburne County" d="M1848,812l59,333 -28,-7 -168,0 -71,-1 -15,21 -55,0 20,-21 32,-40 29,0 2,-30 50,-20 9,-15 0,-87 30,-20 0,-30 -30,0 0,-20 60,-10 1,-36 20,-13Z"/>
    <path data-fips-int="1031" data-name="Coffee County" d="M1637,2441l2,292 -238,4 -1,-173 -2,-60 31,-7 -2,-55Z"/>
    <path data-fips-int="1033" data-name="Colbert County" d="M687,235l6,25 -22,50 4,25 -21,3 -27,58 -233,-6 -116,-7 28,-216 34,-10 47,26 19,45 45,45 41,9 31,-25 111,-44Z"/>
    <path data-fips-int="1035" data-name="Conecuh County" d="M999,2479l19,28 81,2 0,58 16,0 5,50 -21,12 0,108 -42,-7 5,-40 -393,0 41,-40 39,-60 51,-36 26,-45 17,-83 47,-25 3,-29 39,0 46,-23 0,83Z"/>
    <path data-fips-int="1037" data-name="Coosa County" d="M1502,1419l0,187 4,16 -1,4 -2,28 -213,2 -49,-44 7,-23 -41,-55 0,-63 2,-47 13,-13 184,0 96,0Z"/>
    <path data-fips-int="1039" data-name="Covington County" d="M1400,2564l1,173 4,138 -298,0 -8,-4 0,-134 0,-108 21,-12 -5,-50 -16,0 0,-58 119,-2 59,-2 9,49 50,-49 12,0 2,50Z"/>
    <path data-fips-int="1041" data-name="Crenshaw County" d="M1400,2201l6,65 -11,57 30,0 1,88 -19,26 20,5 2,55 -31,7 2,60 -50,-9 -2,-50 -12,0 -50,49 -9,-49 -59,2 0,-90 31,0 -1,-214 25,0 0,-60 60,0 1,60Z"/>
    <path data-fips-int="1043" data-name="Cullman County" d="M1168,581l60,0 15,32 -41,16 -24,43 -29,40 -51,24 -4,21 -35,59 -38,8 -51,31 2,20 -23,15 -25,-23 -48,0 5,-12 -33,-43 -6,-16 21,1 3,-213 0,-10Z"/>
    <path data-fips-int="1045" data-name="Dale County" d="M1858,2437l2,212 0,19 -40,0 0,29 -74,-19 -38,12 -9,15 -12,28 -48,0 -2,-292 25,0 1,0Z"/>
    <path data-fips-int="1047" data-name="Dallas County" d="M974,1717l3,35 1,55 15,36 35,40 -13,15 18,44 -29,48 25,31 -51,0 0,124 -159,0 -43,-67 -29,-17 -36,-21 -13,-19 -33,-31 -17,3 0,-30 29,0 0,-121 184,-4 16,-56 25,-18 -3,-29 16,-63 0,47Z"/>
    <path data-fips-int="1049" data-name="DeKalb County" d="M1736,192l43,231 -36,32 -9,36 -25,43 -77,75 -41,12 0,28 -150,0 -4,-154 30,-34 43,-8 25,-27 87,-70 52,-83 17,-5 20,-55Z"/>
    <path data-fips-int="1051" data-name="Elmore County" d="M1566,1719l10,116 -2,32 -22,-5 -56,25 0,-2 -12,10 -47,-18 -42,-5 -20,-34 -46,14 -5,36 -20,-11 -35,16 -1,-206 -1,-30 24,0 -1,-1 213,-2 68,0Z"/>
    <path data-fips-int="1053" data-name="Escambia County" d="M1099,2737l0,134 8,4 -179,-4 -362,0 -10,0 1,-171 40,10 35,-20 37,0 393,0 -5,40Z"/>
    <path data-fips-int="1055" data-name="Etowah County" d="M1591,649l2,63 26,0 34,99 -2,23 -40,-10 -50,5 0,26 -40,-6 -15,35 -40,15 -26,-44 -18,5 -15,-44 -18,-17 -32,17 -21,-14 -21,30 -25,2 20,-30 1,-40 17,-43 60,-55 53,-17Z"/>
    <path data-fips-int="1057" data-name="Fayette County" d="M563,847l-1,32 60,3 1,121 61,2 -1,62 -120,-7 -20,20 0,40 -102,-3 -61,0 0,-275Z"/>
    <path data-fips-int="1059" data-name="Franklin County" d="M627,396l-1,183 -60,-3 -214,-7 -95,-6 21,-180 116,7Z"/>
    <path data-fips-int="1061" data-name="Geneva County" d="M1820,2870l-227,5 -188,0 -4,-138 238,-4 48,0 133,-5Z"/>
    <path data-fips-int="1063" data-name="Greene County" d="M510,1478l-18,21 10,20 -24,33 -30,10 -5,79 14,16 -17,22 21,15 -2,58 28,-3 8,18 -29,2 -15,41 -24,-5 -44,-70 -75,25 -13,-31 23,-35 -41,0 16,-14 -10,-59 -50,-82 16,-28 -3,-28 12,-32 40,0 21,5 4,-17 35,-13 30,-30 52,-22 3,94 70,0Z"/>
    <path data-fips-int="1065" data-name="Hale County" d="M680,1481l0,90 0,30 -29,0 -2,119 -30,0 -1,122 -119,0 0,-30 -48,-2 15,-41 29,-2 -8,-18 -28,3 2,-58 -21,-15 17,-22 -14,-16 5,-79 30,-10 24,-33 -10,-20 18,-21Z"/>
    <path data-fips-int="1067" data-name="Henry County" d="M2016,2331l2,0 -2,0 2,0 9,5 1,46 42,54 9,68 -28,111 3,35 -194,-1 -2,-212 0,-60 117,2 6,-28 26,-19Z"/>
    <path data-fips-int="1069" data-name="Houston County" d="M2054,2650l-14,22 5,61 43,54 21,76 -156,2 -133,5 0,-142 -133,5 12,-28 9,-15 38,-12 74,19 0,-29 40,0 0,-19Z"/>
    <path data-fips-int="1071" data-name="Jackson County" d="M1736,192l-25,21 -20,55 -17,5 -52,83 -87,70 -25,27 -43,8 -17,7 -7,-33 -27,-5 -1,-54 -97,0 -1,0 -2,0 -2,0 -18,-25 0,-69 10,-7 6,-60 -11,-28 22,-30 -9,-15 38,-7 -29,-30 371,0 30,0Z"/>
    <path data-fips-int="1073" data-name="Jefferson County" d="M1173,955l18,-1 11,76 -16,25 0,42 20,10 -51,55 -40,0 -25,34 -20,-1 -15,36 -30,4 0,20 -30,0 -50,45 -34,15 -22,-4 0,-18 -56,-22 -10,-25 -31,-16 1,-20 -31,-32 -29,-10 3,-26 26,8 11,-22 46,-26 -10,-15 15,-29 50,-10 31,-38 8,-61 32,-9 9,-21 40,-20 73,3 65,47Z"/>
    <path data-fips-int="1075" data-name="Lamar County" d="M380,842l0,275 -189,-9 44,-362 126,5 20,21Z"/>
    <path data-fips-int="1077" data-name="Lauderdale County" d="M811,99l-3,126 -36,25 10,15 -26,0 -17,-27 -52,-3 -53,-22 -111,44 -31,25 -41,-9 -45,-45 -19,-45 -47,-26 -34,10 -32,-20 -27,-60 273,5Z"/>
    <path data-fips-int="1079" data-name="Lawrence County" d="M782,265l24,-2 44,25 20,29 -4,257 0,10 -240,-5 1,-183 27,-58 21,-3 -4,-25 22,-50 -6,-25 52,3 17,27Z"/>
    <path data-fips-int="1081" data-name="Lee County" d="M2093,1817l-35,0 2,26 -161,5 2,40 -60,2 -3,-60 -30,0 -121,-58 -1,-12 -1,-68 61,-22 173,-4 6,-10 87,-2 29,58 11,55Z"/>
    <path data-fips-int="1083" data-name="Limestone County" d="M1053,104l-4,306 -72,-22 -107,-71 -20,-29 -44,-25 -24,2 -10,-15 36,-25 3,-126Z"/>
    <path data-fips-int="1085" data-name="Lowndes County" d="M1220,1940l8,20 2,30 41,18 2,135 0,60 -25,0 -240,1 0,-59 -30,0 0,-124 51,0 -25,-31 29,-48 11,21 13,-25 -5,-31 34,-10 7,31 19,5 21,-35 17,0 12,30 30,-3Z"/>
    <path data-fips-int="1087" data-name="Macon County" d="M1841,1890l2,121 -249,4 -10,-25 1,-3 -15,-22 -14,22 -37,-42 -23,-58 0,-2 0,2 56,-25 22,5 2,-32 52,-2 -1,-59 59,-14 1,12 121,58 30,0Z"/>
    <path data-fips-int="1089" data-name="Madison County" d="M1322,105l29,30 -38,7 9,15 -22,30 11,28 -6,60 -10,7 0,69 18,25 2,0 2,0 1,0 5,42 -26,12 -41,30 -43,-5 -27,-42 -16,-25 -37,23 -37,-28 -47,27 4,-306Z"/>
    <path data-fips-int="1091" data-name="Marengo County" d="M451,1810l48,2 0,30 119,0 -1,121 31,0 0,30 -30,5 0,87 -60,0 0,88 -26,8 -238,-2 -1,0 -25,-16 0,-28 43,-19 4,-43 19,-27 -8,-61 25,-25 28,-2 -22,-23 -43,-20 6,-42 35,-16 39,-45 33,-7Z"/>
    <path data-fips-int="1093" data-name="Marion County" d="M566,576l-3,211 0,60 -183,-5 1,-70 -20,-21 -126,-5 22,-183 95,6Z"/>
    <path data-fips-int="1095" data-name="Marshall County" d="M1467,461l-30,34 4,154 -53,17 -60,55 -85,-108 -15,-32 -60,0 0,-40 18,-128 27,42 43,5 41,-30 26,-12 -5,-42 -1,0 -2,0 -2,0 2,0 2,0 1,0 97,0 1,54 27,5 7,33Z"/>
    <path data-fips-int="1099" data-name="Monroe County" d="M978,2296l0,53 -46,23 -39,0 -3,29 -47,25 -17,83 -26,45 -51,36 -39,60 -41,40 -37,0 -35,20 -40,-10 -34,-12 -21,-29 -32,3 -12,-23 19,-20 18,10 10,-39 38,-16 21,13 20,-20 4,-33 -32,-24 33,-24 0,-100 30,0 -1,-82 11,-10Z"/>
    <path data-fips-int="1101" data-name="Montgomery County" d="M1496,1885l0,2 23,58 37,42 -37,1 -8,15 2,138 1,58 -114,2 -66,2 -1,-60 -60,0 -2,-135 -41,-18 -2,-30 -8,-20 21,-43 28,-4 35,-16 20,11 5,-36 46,-14 20,34 42,5 47,18Z"/>
    <path data-fips-int="1103" data-name="Morgan County" d="M1049,410l47,-27 37,28 37,-23 16,25 -18,128 0,40 -302,-7 4,-257 107,71Z"/>
    <path data-fips-int="1105" data-name="Perry County" d="M913,1597l2,75 -16,63 3,29 -25,18 -16,56 -184,4 0,121 -29,0 -31,0 1,-121 1,-122 30,0 2,-119 29,0 0,-30 59,0 0,30Z"/>
    <path data-fips-int="1107" data-name="Pickens County" d="M380,1117l61,0 -1,257 -52,22 -30,30 -35,13 -4,17 -21,-5 -40,0 -12,32 -99,0 44,-375Z"/>
    <path data-fips-int="1109" data-name="Pike County" d="M1713,2258l-8,13 3,66 -9,9 -12,10 -6,55 -18,30 -1,0 -25,0 -210,1 -20,-5 19,-26 -1,-88 -30,0 11,-57 -6,-65 114,-2 -1,-58 61,2 6,56 55,0 0,60Z"/>
    <path data-fips-int="1111" data-name="Randolph County" d="M1907,1145l45,259 -209,4 -35,0 3,-270 168,0Z"/>
    <path data-fips-int="1113" data-name="Russell County" d="M2093,1817l4,40 20,18 -24,72 39,15 30,26 -45,48 -28,10 -27,35 4,47 -82,-3 -38,-55 -90,1 -9,2 -4,-62 -2,-121 60,-2 -2,-40 161,-5 -2,-26Z"/>
    <path data-fips-int="1115" data-name="Saint Clair County" d="M1466,899l13,53 -59,43 0,18 -34,-6 22,30 -11,38 -21,2 18,30 -40,38 -14,-12 -11,34 -43,46 0,-76 -59,0 0,-30 -21,0 -20,-10 0,-42 16,-25 -11,-76 -18,1 -2,-28 85,-10 48,-43 4,-27 7,-15 21,-30 21,14 32,-17 18,17 15,44 18,-5Z"/>
    <path data-fips-int="1117" data-name="Shelby County" d="M1286,1213l22,25 -11,35 -61,52 2,23 -24,13 26,35 -18,15 -13,13 -2,47 -18,2 -40,-25 3,-12 -157,-2 0,17 -31,-10 -20,-25 0,-42 -32,-5 -1,-54 34,-15 50,-45 30,0 0,-20 30,-4 15,-36 20,1 25,-34 40,0 51,-55 21,0 0,30 59,0Z"/>
    <path data-fips-int="1119" data-name="Sumter County" d="M427,1805l-33,7 -39,45 -35,16 -6,42 43,20 22,23 -288,-1 22,-173 34,-301 99,0 3,28 -16,28 50,82 10,59 -16,14 41,0 -23,35 13,31 75,-25Z"/>
    <path data-fips-int="1121" data-name="Talladega County" d="M1420,1013l55,4 17,50 15,10 115,0 0,20 -32,40 -30,1 -11,70 -30,12 -2,58 -80,0 -1,71 -30,-1 0,63 -184,0 18,-15 -26,-35 24,-13 -2,-23 61,-52 11,-35 -22,-25 43,-46 11,-34 14,12 40,-38 -18,-30 21,-2 11,-38 -22,-30Z"/>
    <path data-fips-int="1123" data-name="Tallapoosa County" d="M1743,1408l3,262 -61,22 1,68 -59,14 1,59 -52,2 -10,-116 5,-65 -68,0 2,-28 1,-4 -4,-16 0,-187 19,-8 187,-3Z"/>
    <path data-fips-int="1125" data-name="Tuscaloosa County" d="M683,1067l61,10 0,50 29,1 -11,22 -26,-8 -3,26 29,10 31,32 -1,20 31,16 10,25 56,22 0,18 -23,20 -28,-8 -27,25 0,46 -49,-3 -17,32 -3,56 -62,2 -170,-3 3,-10 -70,0 -3,-94 1,-257 102,3 0,-40 20,-20Z"/>
    <path data-fips-int="1127" data-name="Walker County" d="M842,796l6,16 33,43 -5,12 48,0 25,23 5,29 -9,21 -32,9 -8,61 -31,38 -50,10 -15,29 10,15 -46,26 -29,-1 0,-50 -61,-10 1,-62 -61,-2 -1,-121 -60,-3 1,-32 0,-60 121,5Z"/>
    <path data-fips-int="1129" data-name="Washington County" d="M384,2574l-17,30 30,11 -19,15 -34,50 26,30 -9,23 -15,20 -31,14 -182,-2 0,20 -60,-2 -13,-404 221,2 9,73 30,30 45,16 23,27Z"/>
    <path data-fips-int="1131" data-name="Wilcox County" d="M648,1993l17,-3 33,31 13,19 36,21 29,17 43,67 159,0 30,0 0,59 -31,0 1,92 -349,-2 -71,2 0,-30 -27,-5 1,-80 26,-8 0,-88 60,0 0,-87Z"/>
    <path data-fips-int="1133" data-name="Winston County" d="M626,579l240,5 -3,213 -21,-1 -158,-4 -121,-5 3,-211Z"/>
    <path data-fips-int="1003" data-name="Baldwin County" d="M470,2662l32,-3 21,29 34,12 -1,171 10,0 6,24 -24,80 49,48 6,20 75,51 9,32 -33,85 18,38 16,5 -37,35 -19,35 -16,-7 -19,32 -31,-10 -17,15 33,21 -54,12 -115,17 -69,-4 16,-21 27,16 76,-16 4,-22 -43,-41 3,-42 -18,25 -30,-23 -18,-50 22,-44 -7,-74 -13,-44 9,-26 -43,28 -15,-23 0,-15 11,-14 35,-31 -25,-23 20,-42 17,-7 -24,-21 16,-57 -21,-23 21,-47 -18,-10 15,-20 43,-3 30,-57Z"/>
    <path data-fips-int="1097" data-name="Mobile County" d="M254,3369l20,18 -105,2 76,-10ZM314,3028l0,15 4,41 -12,9 -5,-45ZM325,3014l-26,32 6,62 -13,-5 -6,46 -25,58 -3,92 -13,25 -39,13 4,-33 -68,-13 -20,-15 -36,11 -13,-504 60,2 0,-20 182,2 31,-14 18,10 -21,47 21,23 -16,57 24,21 -17,7 -20,42 25,23Z"/>
    <path data-fips-int="1015" data-name="Calhoun County" d="M1622,1097l0,-20 -115,0 -15,-10 -17,-50 -55,-4 0,-18 59,-43 -13,-53 40,-15 15,-35 40,6 0,-26 50,-5 40,10 2,-23 120,8 0,10 -1,36 -60,10 0,20 30,0 0,30 -30,20 0,87 -9,15 -50,20 -2,30Z"/>
  </g>
  <g class="cities">
    <circle r="3" cx="104.2" cy="112.4"/>
    <text x="104.2" y="112.4">Birmingham</text>
    <circle r="3" cx="133.5" cy="192.4"/>
    <text x="133.5" y="192.4">Montgomery</text>
    <circle r="3" cx="30.0" cy="307.8"/>
    <text x="30.0" y="307.8">Mobile</text>
  </g>
</svg>