<?xml version="1.0" encoding="utf-8"?>
<!DOCTYPE svg PUBLIC "-//W3C//DTD SVG 1.1//EN" "http://www.w3.org/Graphics/SVG/1.1/DTD/svg11.dtd">
<svg version="1.1" xmlns="http://www.w3.org/2000/svg" width="222" height="350" viewBox="0 0 222 350">
  <path class="state" transform="scale(0.1)" d="M255,3369l19,20h-84l65,-20M72,2783l-13,-404 -2,-140 35,-282 37,-306 18,-167 43,-376 45,-362 22,-183 21,-180 28,-214 -32,-22 -28,-60 274,7 291,5 242,5h268h372l30,3 13,85 43,233 40,213 29,174 58,333 46,259 33,175 34,58 -7,17 11,3 8,67 21,43 41,50 4,40 20,18 -24,72 39,15 30,26 -45,48 -28,10 -28,32 5,50 -13,85 -20,21 -15,50 9,52 1,46 41,52 10,70 -28,111 3,35 -14,23 11,80 36,35 21,75 -155,2 -133,5 -227,5h-188h-298l-178,-5h-363l6,25 -28,66 11,24 42,39 9,24 72,46 8,32 -32,85 18,36 -40,77 -16,-7 -19,32 -22,3 -16,-41 -2,43 25,20 -54,15 -115,15 -69,-4 16,-21 27,16 76,-16 5,-22 -44,-41 3,-42 -17,25 -33,-25 -16,-48 22,-42 -7,-78 -13,-42 8,-25 -42,27 -15,-23v-15l10,-15 -25,31 7,59 -14,1 -6,47 -23,56 -5,92 -13,25 -37,15 2,-35 -68,-13 -35,-15 -21,11 -14,-504"/>
  <g class="counties" transform="scale(0.1)">
    <path data-fips-int="1001" data-name="Autauga County" d="M1268,1687l1,206 -28,4 -21,43 -71,-23 -16,-19 -21,35 -19,-5 -5,-31 -36,10 5,31 -13,25 -11,-21 -18,-44 13,-15 -23,-23 -26,-53 6,-23 -11,-67 117,2v-30Z"/>
    <path data-fips-int="1005" data-name="Barbour County" d="M2066,2128l-13,85 -20,21 -15,50 9,52 -20,-5 -26,20 -6,28 -117,-2v60l-196,4 18,-30 10,-59 18,-15 -4,-63 9,-16v-5l41,-77 44,-11 49,-2v-85l9,-7 90,-1 40,58Z"/>
    <path data-fips-int="1007" data-name="Bibb County" d="M995,1451l2,148 -83,-3 -175,5v-30h-60v-90l63,-3 3,-55 18,-32 48,3v-48l27,-23 27,7 24,-17h22l1,55 32,6v42l21,23Z"/>
    <path data-fips-int="1009" data-name="Blount County" d="M1243,613l85,109 -16,37 -2,42 -20,33 25,-2 -8,37 -51,46 -85,12 2,28 -41,-6 -65,-47 -73,-2 -40,19 -5,-29 25,-10 -4,-23 51,-31h27l51,-64 -1,-26 55,-24 52,-96Z"/>
    <path data-fips-int="1011" data-name="Bullock County" d="M1584,1990l-1,8 11,17 249,-4 4,62 9,-2 -9,7v85l-49,2 -44,11 -41,77v5l-78,1v-60h-55l-6,-56 -61,-2 -2,-138 8,-15 38,-1 13,-22Z"/>
    <path data-fips-int="1013" data-name="Butler County" d="M1218,2507l-119,2 -81,-2 -14,-13 -26,-62v-83v-53l-1,-92h31l240,-1 1,214h-31Z"/>
    <path data-fips-int="1017" data-name="Chambers County" d="M1952,1404l33,175 34,58 -7,17 -88,2 -4,11 -175,3 -2,-262Z"/>
    <path data-fips-int="1019" data-name="Cherokee County" d="M1848,812l-55,5 -20,12v-12l-120,-8 -34,-88 2,-22 -28,13 -3,-61v-30l42,-12 77,-75 26,-43 8,-36 36,-30 40,213Z"/>
    <path data-fips-int="1021" data-name="Chilton County" d="M1207,1471v61l41,55 -7,25 49,44 -23,1 1,30 -177,2v30l-117,-2 -59,2v-47l-1,-76 83,3 -2,-148v-17l157,2 -3,10 40,27Z"/>
    <path data-fips-int="1023" data-name="Choctaw County" d="M293,2179l1,22 -30,7 17,18 -23,12 -29,58 21,48 22,-7 9,44 -222,-2 -2,-140 35,-282 287,1 -29,2 -23,25 7,61 -19,27 -17,57 -30,5 1,31Z"/>
    <path data-fips-int="1025" data-name="Clarke County" d="M532,2181l-1,80 26,5v30l72,-2 -11,10 1,82h-30v100l-33,24 35,29 -27,48 -20,-15 -39,18 -10,40 -18,-11 -19,18 12,25 -36,11 -15,50 -58,10 10,-23 -27,-30 30,-30 23,-35 -26,-56 17,-32 -23,-27 -46,-16 -30,-30 -8,-73 -9,-44 -22,7 -21,-48 29,-58 23,-12 -17,-18 30,-7 -1,-22Z"/>
    <path data-fips-int="1027" data-name="Clay County" d="M1590,1137l-20,21h55l16,-21 70,1 -4,187 1,83 -186,3 -21,10v-10h-95v-65l29,3 2,-71 80,2 2,-60 30,-12 11,-70Z"/>
    <path data-fips-int="1029" data-name="Cleburne County" d="M1848,812l58,333 -27,-7h-168l-70,-1 -16,21h-55l20,-21 33,-40h29l1,-30 59,-35v-87l30,-20v-30h-30v-20l60,-11 1,-35 20,-12Z"/>
    <path data-fips-int="1031" data-name="Coffee County" d="M1637,2441l2,292 -239,5v-173l-2,-61 31,-7 -2,-55Z"/>
    <path data-fips-int="1033" data-name="Colbert County" d="M686,235l-1,63 -11,37 -19,3 -28,58 -233,-6 -116,-7 28,-214 35,-10 35,16 30,55 45,43 42,7 29,-23 112,-44Z"/>
    <path data-fips-int="1035" data-name="Conecuh County" d="M1099,2509v60h16l5,48 -21,13v108l-42,-10 5,-38h-394l42,-40 39,-60 51,-36 26,-45 17,-83 47,-25 3,-29h39l46,-23v83l26,62 14,13Z"/>
    <path data-fips-int="1037" data-name="Coosa County" d="M1501,1421l3,233 -214,2 -49,-44 7,-25 -41,-55v-61l2,-48 13,-10 184,-2h95Z"/>
    <path data-fips-int="1039" data-name="Covington County" d="M1400,2565v173l5,137h-298l-8,-5v-132v-108l21,-13 -5,-48h-16v-60l119,-2 59,-2 1,54 70,-54 2,50Z"/>
    <path data-fips-int="1041" data-name="Crenshaw County" d="M1400,2201l9,23 -4,70 -10,29h30l1,88 -19,33 20,-2 2,55 -31,7 2,61 -50,-10 -2,-50 -70,54 -1,-54 -59,2v-90h31l-1,-214h25v-60h60v60Z"/>
    <path data-fips-int="1043" data-name="Cullman County" d="M1168,581h60l15,32 -38,3 -52,96 -55,24 1,26 -51,64h-27l-51,31 4,23 -25,10 -25,-21 -48,-2 3,-20 -30,-35 -7,-16 22,1 1,-213v-10Z"/>
    <path data-fips-int="1045" data-name="Dale County" d="M1858,2437l2,212v18h-40v30l-67,-17h-38l-28,53h-48l-2,-292h25Z"/>
    <path data-fips-int="1047" data-name="Dallas County" d="M974,1717l11,67 -6,23 26,53 23,23 -13,15 18,44 -29,48 25,31h-51v124h-159l-43,-67 -18,-2 -25,-38 -21,3 -15,-28 -32,-23 -17,3v-30h29v-121l184,-4 16,-56 24,-18 -2,-29 16,-63v47Z"/>
    <path data-fips-int="1049" data-name="DeKalb County" d="M1736,192l43,233 -36,30 -8,36 -26,43 -77,75 -42,12v30h-149l-2,-156 29,-34 31,-3 124,-102 50,-83 18,-5 23,-56Z"/>
    <path data-fips-int="1051" data-name="Elmore County" d="M1576,1835l-2,32 -49,-5 -29,23 -13,10 -46,-18 -39,1 -13,-30 -32,-18 -33,38 -51,25 -1,-206 -1,-30 23,-1 214,-2h67l-10,36 13,35 -4,39Z"/>
    <path data-fips-int="1053" data-name="Escambia County" d="M1099,2738v132l8,5 -178,-5h-363h-10l1,-172 40,12 35,-20h36h394l-5,38Z"/>
    <path data-fips-int="1055" data-name="Etowah County" d="M1590,651l3,61 28,-13 -2,22 34,88 -1,25 -62,-10 -29,5v26l-40,-6 -15,35 -41,16 -24,-41 -17,3 -17,-45 -32,-16 -18,15 -21,-14 -21,30 -25,2 20,-33 2,-42 16,-37 60,-54 54,-7 -1,-10Z"/>
    <path data-fips-int="1057" data-name="Fayette County" d="M563,847l-1,32 60,3 1,121 61,2 -1,62 -120,-7 -20,20v40l-102,-3h-61v-277Z"/>
    <path data-fips-int="1059" data-name="Franklin County" d="M627,396l-1,183 -60,-3 -214,-7 -95,-6 21,-180 116,7Z"/>
    <path data-fips-int="1061" data-name="Geneva County" d="M1820,2870l-227,5h-188l-5,-137 239,-5h48l133,-5Z"/>
    <path data-fips-int="1063" data-name="Greene County" d="M510,1478l-20,16 12,23 -27,19 -35,55 5,51 15,37 -1,73 28,-3 8,18 -29,2 -15,41 -24,-5 -27,-41 27,1 -2,-21 -42,-9 -76,25 -13,-31 16,-2 1,-38 -18,-9 -14,-43h19l-32,-43 -23,5 -17,-70 18,-3 2,-43 12,-29h40l60,-28h7l18,-27 57,-25 3,95h70Z"/>
    <path data-fips-int="1065" data-name="Hale County" d="M679,1481v90v30h-29l-1,121h-30l-1,120h-119v-30l-48,-2 15,-41 29,-2 -8,-18 -28,3 1,-73 -15,-37 -5,-51 35,-55 27,-19 -12,-23 20,-16Z"/>
    <path data-fips-int="1067" data-name="Henry County" d="M2027,2336l1,46 41,52 10,70 -28,111 3,35 -194,-1 -2,-212v-60l117,2 6,-28 26,-20Z"/>
    <path data-fips-int="1069" data-name="Houston County" d="M2054,2650l-14,23 11,80 36,35 21,75 -155,2 -133,5v-142l-133,5 28,-53h38l67,17v-30h40v-18Z"/>
    <path data-fips-int="1071" data-name="Jackson County" d="M1736,192l-22,20 -23,56 -18,5 -50,83 -124,102 -31,3 -18,7 -7,-33 -27,-5 -1,-54h-95h-3h-4l-18,-23v-73l10,-5v-105l8,-28 38,-8 -30,-30h372l30,3Z"/>
    <path data-fips-int="1073" data-name="Jefferson County" d="M1173,955l18,-1 11,76 -16,25v42l20,10 -51,55h-40l-25,34 -20,-1 -15,36 -30,4v20h-30l-50,43 -34,15h-22v-20l-57,-22 -9,-25 -31,-16 -12,-35 -47,-27 3,-26 27,8 10,-22 46,-26 -10,-15 15,-29 50,-10 31,-38 9,-61 31,-9 9,-21 40,-19 73,2 65,47Z"/>
    <path data-fips-int="1075" data-name="Lamar County" d="M380,840v277l-190,-9 45,-362 126,5 20,21Z"/>
    <path data-fips-int="1077" data-name="Lauderdale County" d="M811,99l-3,124 -36,27 10,13 -26,4 -19,-32h-51l-52,-22 -112,44 -29,23 -42,-7 -45,-43 -30,-55 -35,-16 -35,10 -32,-22 -28,-60 274,7Z"/>
    <path data-fips-int="1079" data-name="Lawrence County" d="M782,263h24l47,29 17,25 -5,257v10l-239,-5 1,-183 28,-58 19,-3 11,-37 1,-63h51l19,32Z"/>
    <path data-fips-int="1081" data-name="Lee County" d="M2093,1817h-35l2,26 -161,5 3,40 -61,2 -3,-60h-30l-121,-58 -1,-12 -1,-70 60,-20 175,-3 4,-11 88,-2 11,3 8,67 21,43Z"/>
    <path data-fips-int="1083" data-name="Limestone County" d="M1053,104l-4,304 -72,-20 -107,-71 -17,-25 -47,-29h-24l-10,-13 36,-27 3,-124Z"/>
    <path data-fips-int="1085" data-name="Lowndes County" d="M1220,1940l3,30 46,36 4,137v60h-25l-240,1v-59h-30v-124h51l-25,-31 29,-48 11,21 13,-25 -5,-31 36,-10 5,31 19,5 21,-35 16,19Z"/>
    <path data-fips-int="1087" data-name="Macon County" d="M1841,1890l2,121 -249,4 -11,-17 1,-8 -14,-25 -13,22 -43,-52 -18,-50 29,-23 49,5 2,-32 52,-2 -2,-59 60,-14 1,12 121,58h30Z"/>
    <path data-fips-int="1089" data-name="Madison County" d="M1321,104l30,30 -38,8 -8,28v105l-10,5v73l18,23h4h3l-8,60 -36,-6 -18,30 -45,-4 -27,-43 -16,-25 -37,23 -37,-28 -47,25 4,-304Z"/>
    <path data-fips-int="1091" data-name="Marengo County" d="M451,1810l48,2v30h119l-1,121h31v30l-30,5v87h-61v88l-25,8 -239,-2 -24,-13 -1,-31 30,-5 17,-57 19,-27 -7,-61 23,-25 29,-2 -23,-23 -42,-20 5,-42 48,-26 27,-35 33,-7Z"/>
    <path data-fips-int="1093" data-name="Marion County" d="M566,576l-3,210v61l-183,-7 1,-68 -20,-21 -126,-5 22,-183 95,6Z"/>
    <path data-fips-int="1095" data-name="Marshall County" d="M1468,461l-29,34 2,156 1,10 -54,7 -60,54 -85,-109 -15,-32h-60v-40l18,-128 27,43 45,4 18,-30 36,6 8,-60h-3h-4h4h3h95l1,54 27,5 7,33Z"/>
    <path data-fips-int="1099" data-name="Monroe County" d="M978,2296v53l-46,23h-39l-3,29 -47,25 -17,83 -26,45 -51,36 -39,60 -42,40h-36l-35,20 -40,-12 -35,-10 -23,-29 -29,3 -12,-25 19,-18 18,11 10,-40 39,-18 20,15 27,-48 -35,-29 33,-24v-100h30l-1,-82 11,-10Z"/>
    <path data-fips-int="1101" data-name="Montgomery County" d="M1496,1885l18,50 43,52 -38,1 -8,15 2,138 1,58 -114,2 -67,2v-60h-60l-4,-137 -46,-36 -3,-30 21,-43 28,-4 51,-25 33,-38 32,18 13,30 39,-1 46,18Z"/>
    <path data-fips-int="1103" data-name="Morgan County" d="M1049,408l47,-25 37,28 37,-23 16,25 -18,128v40l-303,-7 5,-257 107,71Z"/>
    <path data-fips-int="1105" data-name="Perry County" d="M914,1596l1,76 -16,63 2,29 -24,18 -16,56 -184,4v121h-29h-31l1,-121 1,-120h30l1,-121h29v-30h60v30Z"/>
    <path data-fips-int="1107" data-name="Pickens County" d="M380,1117h61l-1,257 -57,25 -18,27h-7l-60,28h-40l-12,29 -99,1 43,-376Z"/>
    <path data-fips-int="1109" data-name="Pike County" d="M1713,2258l-9,16 4,63 -18,15 -10,59 -18,30h-25l-210,1 -20,2 19,-33 -1,-88h-30l10,-29 4,-70 -9,-23 114,-2 -1,-58 61,2 6,56h55v60Z"/>
    <path data-fips-int="1111" data-name="Randolph County" d="M1906,1145l46,259 -209,4h-35l-1,-83 4,-187h168Z"/>
    <path data-fips-int="1113" data-name="Russell County" d="M2093,1817l4,40 20,18 -24,72 39,15 30,26 -45,48 -28,10 -28,32 5,50h-80l-40,-58 -90,1 -9,2 -4,-62 -2,-121 61,-2 -3,-40 161,-5 -2,-26Z"/>
    <path data-fips-int="1115" data-name="Saint Clair County" d="M1465,900l12,49 -57,46 1,18 -35,-6 23,38 -33,32 18,30 -28,36 -26,-10 -10,34 -45,46v-76h-58v-30h-21l-20,-10v-42l16,-25 -11,-76 -18,1 -2,-28 85,-12 51,-46 8,-37 21,-30 21,14 18,-15 32,16 17,45 17,-3Z"/>
    <path data-fips-int="1117" data-name="Shelby County" d="M1285,1213l12,67 -61,46 2,20 -24,18 26,32 -18,17 -13,10 -2,48 -18,2 -40,-27 3,-10 -157,-2v17l-30,-12 -21,-23v-42l-32,-6 -1,-55 34,-15 50,-43h30v-20l30,-4 15,-36 20,1 25,-34h40l51,-55h21v30h58Z"/>
    <path data-fips-int="1119" data-name="Sumter County" d="M427,1805l-33,7 -27,35 -48,26 -5,42 42,20 23,23 -287,-1 37,-306 18,-167 99,-1 -2,43 -18,3 17,70 23,-5 32,43h-19l14,43 18,9 -1,38 -16,2 13,31 76,-25 42,9 2,21 -27,-1Z"/>
    <path data-fips-int="1121" data-name="Talladega County" d="M1421,1013l54,4 17,50 15,10h116v20l-33,40 -30,1 -11,70 -30,12 -2,60 -80,-2 -2,71 -29,-3v65l-184,2 18,-17 -26,-32 24,-18 -2,-20 61,-46 -12,-67 45,-46 10,-34 26,10 28,-36 -18,-30 33,-32 -23,-38Z"/>
    <path data-fips-int="1123" data-name="Tallapoosa County" d="M1743,1408l2,262 -60,20 1,70 -60,14 2,59 -52,2 -6,-71 4,-39 -13,-35 10,-36h-67l-3,-233 21,-10 186,-3Z"/>
    <path data-fips-int="1125" data-name="Tuscaloosa County" d="M683,1067l61,10v50l29,1 -10,22 -27,-8 -3,26 47,27 12,35 31,16 9,25 57,22v20l-24,17 -27,-7 -27,23v48l-48,-3 -18,32 -3,55 -63,3 -169,-3 3,-9h-70l-3,-95 1,-257 102,3v-40l20,-20Z"/>
    <path data-fips-int="1127" data-name="Walker County" d="M842,796l7,16 30,35 -3,20 48,2 25,21 5,29 -9,21 -31,9 -9,61 -31,38 -50,10 -15,29 10,15 -46,26 -29,-1v-50l-61,-10 1,-62 -61,-2 -1,-121 -60,-3 1,-32v-61l122,8Z"/>
    <path data-fips-int="1129" data-name="Washington County" d="M361,2733l-15,20 -31,14 -182,-2v20l-61,-2 -13,-404 222,2 8,73 30,30 46,16 23,27 -17,32 26,56 -23,35 -30,30 27,30Z"/>
    <path data-fips-int="1131" data-name="Wilcox County" d="M648,1993l17,-3 32,23 15,28 21,-3 25,38 18,2 43,67h159h30v59h-31l1,92 -349,-2 -72,2v-30l-26,-5 1,-80 25,-8v-88h61v-87Z"/>
    <path data-fips-int="1133" data-name="Winston County" d="M626,579l239,5 -1,213 -22,-1 -157,-2 -122,-8 3,-210Z"/>
    <path data-fips-int="1003" data-name="Baldwin County" d="M470,2662l29,-3 23,29 35,10 -1,172h10l6,25 -28,66 11,24 42,39 9,24 72,46 8,32 -32,85 18,36 -40,77 -16,-7 -19,32 -22,3 -16,-41 -2,43 25,20 -54,15 -115,15 -69,-4 16,-21 27,16 76,-16 5,-22 -44,-41 3,-42 -17,25 -33,-25 -16,-48 22,-42 -7,-78 -13,-42 8,-25 -42,27 -15,-23v-15l10,-15 36,-32 -25,-21 36,-54 -23,-16 16,-57 -21,-25 21,-46 -18,-9 15,-20 58,-10 15,-50Z"/>
    <path data-fips-int="1097" data-name="Mobile County" d="M255,3369l19,20h-84ZM324,3013l-25,31 7,59 -14,1 -6,47 -23,56 -5,92 -13,25 -37,15 2,-35 -68,-13 -35,-15 -21,11 -14,-504 61,2v-20l182,2 31,-14 18,9 -21,46 21,25 -16,57 23,16 -36,54 25,21Z"/>
    <path data-fips-int="1015" data-name="Calhoun County" d="M1623,1097v-20h-116l-15,-10 -17,-50 -54,-4 -1,-18 57,-46 -12,-49 41,-16 15,-35 40,6v-26l29,-5 62,10 1,-25 120,8v12l-1,35 -60,11v20h30v30l-30,20v87l-59,35 -1,30Z"/>
  </g>
  <path class="mesh" transform="scale(0.1)" d="M1713,2258v-5l41,-77 44,-11 49,-2v-85l9,-7 90,-1 40,58h80M949,890l-25,-21 -48,-2 3,-20 -30,-35 -7,-16 22,1 1,-213v-10l303,7h60l15,32 85,109 -16,37 -2,42 -20,33 25,-2 -8,37 -51,46 -85,12 2,28 -41,-6 -65,-47 -73,-2 -40,19 -5,-29 25,-10 -4,-23 51,-31h27l51,-64 -1,-26 55,-24 52,-96 38,-3M1858,2437l-196,4 18,-30 10,-59 18,-15 -4,-63 9,-16 -78,1v-60h-55l-6,-56 -61,-2 -2,-138 8,-15 38,-1 13,-22 14,25 -1,8 11,17 249,-4 4,62 9,-2M2012,1654l-88,2 -4,11 -175,3 -2,-262 209,-4M1848,812l-55,5 -20,12v-12l-120,-8 -34,-88 2,-22 -28,13 -3,-61v-30l42,-12 77,-75 26,-43 8,-36 36,-30M974,1717l-59,2v-47l-1,-76M92,1957l287,1 -29,2 -23,25 7,61 -19,27 -17,57 -30,5 1,31 24,13 1,22 -30,7 17,18 -23,12 -29,58 21,48 22,-7 9,44 -222,-2M293,2179l239,2 -1,80 26,5v30l72,-2 -11,10 1,82h-30v100l-33,24 35,29 -27,48 -20,-15 -39,18 -10,40 -18,-11 -19,18 12,25 -36,11 -15,50 -58,10 10,-23 -27,-30 30,-30 23,-35 -26,-56 17,-32 -23,-27 -46,-16 -30,-30 -8,-73M1906,1145l-27,-7h-168M1590,1137l-20,21h55l16,-21 70,1 -4,187 1,83 -186,3 -21,10v-10h-95v-65l29,3 2,-71 80,2 2,-60 30,-12 11,-70 30,-1 33,-40h29l1,-30 59,-35v-87l30,-20v-30h-30v-20l60,-11 1,-35M306,169l35,-10 35,16 30,55 45,43 42,7 29,-23 112,-44 52,22 -1,63 -11,37 -19,3 -28,58 -233,-6 -116,-7M1099,2509v60h16l5,48 -21,13v108l-42,-10 5,-38h-394l42,-40 39,-60 51,-36 26,-45 17,-83 47,-25 3,-29h39l46,-23M1501,1421l3,233 -214,2M1207,1471l2,-48 13,-10 184,-2M1400,2738l5,137M1107,2875l-8,-5v-132M1218,2507l-119,2 -81,-2 -14,-13 -26,-62v-83v-53l-1,-92h31l240,-1 1,214h-31v90l59,-2 1,54 70,-54 2,50 50,10M1248,2203h25v-60h60v60l67,-2 9,23 -4,70 -10,29h30l1,88 -19,33 20,-2M2027,2336l-20,-5 -26,20 -6,28 -117,-2v60l2,212v18h-40v30l-67,-17h-38l-28,53h-48M1033,1942l-29,48 25,31h-51v124h-159l-43,-67 -18,-2 -25,-38 -21,3 -15,-28 -32,-23 -17,3v-30h29v-121l184,-4 16,-56 24,-18 -2,-29 16,-63M1590,651h-149l-2,-156 29,-34 31,-3 124,-102 50,-83 18,-5 23,-56 22,-20M566,2870h-10l1,-172 40,12 35,-20h36M1653,809l-1,25 -62,-10 -29,5v26l-40,-6 -15,35 -41,16 -24,-41 -17,3 -17,-45 -32,-16 -18,15 -21,-14 -21,30M1328,722l60,-54 54,-7 -1,-10M566,576l-3,210v61l-1,32 60,3 1,121 61,2 -1,62 -120,-7 -20,20v40l-102,-3h-61v-277l183,7M627,396l-1,183 -60,-3 -214,-7 -95,-6M1687,2733l133,-5v142M679,1571v30h-29l-1,121h-30l-1,120h-119v-30l-48,-2M510,1478l-20,16 12,23 -27,19 -35,55 5,51 15,37 -1,73 28,-3 8,18 -29,2 -15,41 -24,-5 -27,-41 27,1 -2,-21 -42,-9 -76,25 -13,-31 16,-2 1,-38 -18,-9 -14,-43h19l-32,-43 -23,5 -17,-70 18,-3 2,-43 12,-29h40l60,-28h7l18,-27 57,-25 3,95h70l-3,9 169,3M2054,2650l-194,-1M1468,461l-18,7 -7,-33 -27,-5 -1,-54h-95h-3h-4l-18,-23v-73l10,-5v-105l8,-28 38,-8 -30,-30M1173,955l18,-1 11,76 -16,25v42l20,10 -51,55h-40l-25,34 -20,-1 -15,36 -30,4v20h-30l-50,43 -34,15M889,1313v-20l-57,-22 -9,-25 -31,-16 -12,-35 -47,-27 3,-26 27,8 10,-22 46,-26 -10,-15 15,-29 50,-10 31,-38 9,-61 31,-9 9,-21M380,1117l-190,-9M235,746l126,5 20,21 -1,68M811,99l-3,124 -36,27 10,13 -26,4 -19,-32h-51M782,263h24l47,29 17,25 -5,257M865,584l-239,-5M2093,1817h-35l2,26 -161,5 3,40 -61,2 -3,-60h-30l-121,-58 -1,-12 -1,-70 60,-20M1053,104l-4,304 -72,-20 -107,-71M1504,1654h67l-10,36 13,35 -4,39 6,71 -2,32 -49,-5 -29,23 -13,10 -46,-18 -39,1 -13,-30 -32,-18 -33,38 -51,25 -28,4 -21,43 -71,-23 -16,-19 -21,35 -19,-5 -5,-31 -36,10 5,31 -13,25 -11,-21 -18,-44 13,-15 -23,-23 -26,-53 6,-23 -11,-67 117,2v-30l177,-2 1,206M1220,1940l3,30 46,36 4,137M1008,2204v-59h-30M1841,1890l2,121M1557,1987l-43,-52 -18,-50M1576,1835l52,-2 -2,-59 60,-14M1313,376h4h3l-8,60 -36,-6 -18,30 -45,-4 -27,-43 -16,-25 -37,23 -37,-28 -47,25M618,1842l-1,121h31M648,1993l-30,5v87h-61v88l-25,8M379,1958l-23,-23 -42,-20 5,-42 48,-26 27,-35 33,-7M1168,581v-40l18,-128M557,2698l-35,-10 -23,-29 -29,3M629,2294l349,2M1513,2141l1,58 -114,2M441,1117l-1,257M246,1483l-99,1M1743,1408h-35M1465,900l12,49 -57,46 1,18 -35,-6 23,38 -33,32 18,30 -28,36 -26,-10 -10,34 -45,46v-76h-58v-30h-21M1285,1213l12,67 -61,46 2,20 -24,18 26,32 -18,17M1421,1013l54,4 17,50 15,10h116v20M683,1067l61,10v50l29,1M563,786l122,8 157,2M361,2733l-15,20 -31,14 -182,-2v20l-61,-2M324,3013l36,-32 -25,-21 36,-54 -23,-16 16,-57 -21,-25 21,-46 -18,-9M995,1451l2,148 -83,-3 -175,5v-30h-60v-90l63,-3 3,-55 18,-32 48,3v-48l27,-23 27,7 24,-17h22l1,55 32,6v42l21,23 30,12v-17l157,2 -3,10 40,27 18,-2v61l41,55 -7,25 49,44 -23,1 1,30M1637,2441l2,292 -239,5v-173l-2,-61 31,-7 -2,-55 210,-1h25"/>
  <g class="cities">
    <circle r="3" cx="104.2" cy="112.4"/>
    <text x="104.2" y="112.4">Birmingham</text>
    <circle r="3" cx="133.5" cy="192.4"/>
    <text x="133.5" y="192.4">Montgomery</text>
    <circle r="3" cx="30.0" cy="307.8"/>
    <text x="30.0" y="307.8">Mobile</text>
  </g>
</svg>