<?xml version="1.0" encoding="utf-8"?>
<!DOCTYPE svg PUBLIC "-//W3C//DTD SVG 1.1//EN" "http://www.w3.org/Graphics/SVG/1.1/DTD/svg11.dtd">
<svg version="1.1" xmlns="http://www.w3.org/2000/svg" width="633" height="1000" viewBox="0 0 633 1000">
  <path class="state" d="M495,55l12,66 15,81 4,30 18,95 13,74 3,23 9,37 7,6 -3,5 4,1 2,19 5,11 12,16 6,13 -5,24 11,4 8,8 -12,13 -8,3 -8,10v13l-1,19 -10,16 -2,10 3,15 1,15 11,13 3,15 -5,15 -3,32 -3,6 2,22 11,11 6,22 -82,1 -118,2h-86l-5,-1h-138l-11,-1 1,10 -8,16 18,26 20,12 3,8 -3,13 -5,7v12l7,11 -24,22 -10,-2 -4,4 10,2 -16,8 -25,4h-34l11,-7 7,5 19,-3 8,-9 -12,-6 -18,-19 -4,-12 6,-11 -2,-23 -7,-18 -10,6 -1,-6v-5l4,-3 -7,9 1,18 -9,16 -3,12 -1,25 -4,9 -11,4 2,-10 -31,-8 -5,3 -3,-76 -1,-68 -2,-77 -2,-38 -1,-41 10,-80 8,-66 8,-69 3,-31 10,-77 3,-30 9,-73 7,-53 6,-51 7,-62 -9,-5 -7,-17h62h50l49,2 69,2h76h73h42Z"/>
  <g class="counties">
    <path data-fips-int="1001" data-name="Autauga County" d="M361,482v59l-8,1 -5,12 -20,-6 -7,-5 -5,9 -5,-2 -1,-8 -9,2 -4,17 -3,-7 -14,-37 -3,-27 34,1v-9Z"/>
    <path data-fips-int="1005" data-name="Barbour County" d="M588,607l-1,19 -10,16 -2,10 3,15 -5,-2 -13,14h-31l1,17 -56,1 5,-6 2,-18 6,-6 -2,-18 3,-4 12,-23 13,-4h13v-19l3,-8h26l12,17Z"/>
    <path data-fips-int="1007" data-name="Bibb County" d="M283,414l1,42h-24l-50,1v-8h-16v-26l17,-1 1,-17 5,-8 14,1v-13l8,-9 7,4 7,-5h6v16l9,1 1,12Z"/>
    <path data-fips-int="1009" data-name="Blount County" d="M354,175l24,31 -4,9 -1,15 -5,8h7l-3,10 -14,13 -24,4v7l-12,-1 -19,-14h-20l-11,5 -2,-8 7,-4v-7l13,-7 12,-3 10,-13 1,-9 14,-8 9,-11 7,-16Z"/>
    <path data-fips-int="1011" data-name="Bullock County" d="M525,574l4,17 -3,8v19h-13l-13,4 -12,23h-22v-17h-15l-2,-16 -18,-1v-39l2,-5h11l7,-3 4,11h55Z"/>
    <path data-fips-int="1013" data-name="Butler County" d="M347,716l-34,1 -23,-1 -12,-21 1,-24 -1,-15v-27h9h68l1,61h-9Z"/>
    <path data-fips-int="1017" data-name="Chambers County" d="M557,401l3,23 9,37 7,6 -3,5h-23l-1,4 -52,1v-75Z"/>
    <path data-fips-int="1019" data-name="Cherokee County" d="M526,232l-20,5v-3l-35,-2 1,-5 -11,-21 -7,-3v-17v-9l12,-3 22,-23 6,-11 6,-15 7,-4 15,81Z"/>
    <path data-fips-int="1021" data-name="Chilton County" d="M344,420v18l11,13 -1,10 13,11 -6,1v9h-50v9l-34,-1h-17v-13v-21h24l-1,-42v-4l42,1 11,9Z"/>
    <path data-fips-int="1023" data-name="Choctaw County" d="M83,623v6l-9,1 6,6 -7,3 -10,18 7,12 7,-1 3,12h-64l-1,-41 10,-80h82l-15,5 2,22 -6,6v13l-12,4 1,11Z"/>
    <path data-fips-int="1025" data-name="Clarke County" d="M151,623v22l8,2v9l19,-1 -2,27h-8v28l-10,8 10,6 -7,15 -7,-4 -10,5 -3,12 -6,-6 -5,9 3,6 -8,-4 -6,15 -12,10 -5,-1 3,-7 -8,-9 3,-7 9,-3 3,-12 -7,-2 5,-20 -7,-7 -15,-6 -8,-9v-19l-3,-12 -7,1 -7,-12 10,-18 7,-3 -6,-6 9,-1v-6Z"/>
    <path data-fips-int="1027" data-name="Clay County" d="M454,325l-6,6h17l3,-6h20l-1,48v29l-53,1 -6,3v-3h-27v-18h9v-20h22l1,-17 8,-3 4,-20Z"/>
    <path data-fips-int="1029" data-name="Cleburne County" d="M526,232l18,95h-1l-7,-2h-48h-20l-3,6h-17l6,-6 9,-11h8l1,-10 13,-5 3,-4v-25l9,-6v-9h-9l6,-9h11l1,-9Z"/>
    <path data-fips-int="1031" data-name="Coffee County" d="M467,697v84h-68v-48v-18l8,-3v-14Z"/>
    <path data-fips-int="1033" data-name="Colbert County" d="M195,67l2,7 -19,39 -71,-2 -28,-2 7,-62 12,-2 11,7 6,12 17,16h7l9,-9 33,-10Z"/>
    <path data-fips-int="1035" data-name="Conecuh County" d="M313,717v17h5l1,12 -6,5v31l-12,-1 1,-13h-111l11,-11 11,-17 15,-11 6,-11 6,-25 13,-7 -1,-6 13,-2 14,-7 -1,24 12,21Z"/>
    <path data-fips-int="1037" data-name="Coosa County" d="M428,406l1,66h-62l-13,-11 1,-10 -11,-13v-18l1,-14 3,-2 53,-1h27Z"/>
    <path data-fips-int="1039" data-name="Covington County" d="M399,733v48l2,40h-86l-2,-1v-38v-31l6,-5 -1,-12h-5v-17l34,-1h17v15l20,-16 1,14Z"/>
    <path data-fips-int="1041" data-name="Crenshaw County" d="M399,628l3,17 -4,19h8l1,24 -6,8 6,2v14l-8,3v18l-14,-4 -1,-14 -20,16v-15h-17v-26h9l-1,-61h8v-17l17,-1v18Z"/>
    <path data-fips-int="1043" data-name="Cullman County" d="M333,165l17,1 4,9 -11,1 -7,16 -9,11 -14,8 -1,9 -10,13 -12,3 -13,7v7l-7,4 -8,-6h-13l2,-4 -12,-17h7v-61v-3l41,2Z"/>
    <path data-fips-int="1045" data-name="Dale County" d="M530,696v61v5h-11v8l-29,-5 -9,16h-14v-84h7Z"/>
    <path data-fips-int="1047" data-name="Dallas County" d="M277,490l3,27 14,37 -8,15 7,8h-15v35h-45l-12,-19h-5l-7,-10 -8,-2 -12,-13 -5,1v-8h9v-35h49l8,-17 6,-4v-9l4,-19v13Z"/>
    <path data-fips-int="1049" data-name="DeKalb County" d="M507,121l-7,4 -6,15 -6,11 -22,23 -12,3v9h-43l-1,-45 9,-10 10,-2 33,-27 14,-22 6,-3 5,-14 8,-8Z"/>
    <path data-fips-int="1051" data-name="Elmore County" d="M449,524l2,8 -17,-1 -8,8 -21,-1 -12,-12 -14,-1v15l-6,-4 -12,5v-59v-9l6,-1h62h19l-3,16Z"/>
    <path data-fips-int="1053" data-name="Escambia County" d="M313,782v38l2,1 -5,-1h-138l-11,-1h-3l1,-48 11,3 10,-6h11h111l-1,13Z"/>
    <path data-fips-int="1055" data-name="Etowah County" d="M454,186v17l7,3 11,21 -1,5 -1,6 -25,-1v7l-11,-2 -5,11 -11,4 -7,-12 -6,1 -4,-13 -5,-5 -9,5 -6,-4 -6,9h-7l5,-8 1,-15 4,-9 19,-17 14,-3Z"/>
    <path data-fips-int="1057" data-name="Fayette County" d="M160,242v9l17,1v34l17,1v17l-31,-1 -9,5v12l-29,-1h-18l1,-79Z"/>
    <path data-fips-int="1059" data-name="Franklin County" d="M178,113v52l-18,-1 -43,-1 -44,-3 6,-51 28,2Z"/>
    <path data-fips-int="1061" data-name="Geneva County" d="M519,819l-118,2 -2,-40h68h14l38,-1Z"/>
    <path data-fips-int="1063" data-name="Greene County" d="M145,422l-6,5 2,9 -16,14 2,14 -8,6 11,2 2,34 -4,11 -7,-2 -12,-20 -22,8 -4,-5 6,-15 -9,2 3,-8 -8,-22 -8,1 -1,-25 3,-8 4,-9 18,2 3,-6 31,-17v26h20Z"/>
    <path data-fips-int="1065" data-name="Hale County" d="M194,423v26v8h-9l-1,34h-8l-1,35h-33v-9h-14l4,-11 -2,-34 -11,-2 8,-6 -2,-14 16,-14 -2,-9 6,-5Z"/>
    <path data-fips-int="1067" data-name="Henry County" d="M578,667l1,15 11,13 3,15 -5,15 -3,32h-55v-61l-1,-17h31l13,-14Z"/>
    <path data-fips-int="1069" data-name="Houston County" d="M585,757l-3,6 2,22 11,11 6,22 -82,1v-39l-38,1 9,-16 29,5v-8h11v-5Z"/>
    <path data-fips-int="1071" data-name="Jackson County" d="M495,55l-8,8 -5,14 -6,3 -14,22 -33,27 -10,2 -6,3 -3,-13 -6,1v-15h-30l-5,-6v-21l5,-19 -3,-4 4,-17h11l-10,-11h73h42Z"/>
    <path data-fips-int="1073" data-name="Jefferson County" d="M334,272h5l3,22 -4,19 5,2 -14,17h-11l-8,9h-5l-4,11 -18,6 -7,10 -17,7h-6v-7l-16,-5 -6,-10 -6,-1 -2,-10 -11,-6 -3,-10 7,3 4,-7 9,-5 5,-15 15,-3 8,-11 3,-17 12,-9 11,-5h20l19,14Z"/>
    <path data-fips-int="1075" data-name="Lamar County" d="M108,240l-1,79 -53,-3 3,-30 9,-73 34,1 8,6Z"/>
    <path data-fips-int="1077" data-name="Lauderdale County" d="M231,27l-1,36 -11,8 3,5 -6,1 -6,-10h-15l-14,-6 -33,10 -9,9h-7l-17,-16 -6,-12 -11,-7 -12,2 -9,-5 -7,-17h62h50Z"/>
    <path data-fips-int="1079" data-name="Lawrence County" d="M222,76l8,-1 12,6 6,9 -2,73v3l-68,-1v-52l19,-39 -2,-7h15l6,10Z"/>
    <path data-fips-int="1081" data-name="Lee County" d="M596,519h-9v8l-46,1v11l-16,1 -1,-17h-8l-29,-14 -6,-6v-20l16,-6 52,-1 1,-4h23l4,1 2,19 5,11Z"/>
    <path data-fips-int="1083" data-name="Limestone County" d="M300,29l-1,88 -9,-1 -19,-10 -23,-16 -6,-9 -12,-6 -8,1 -3,-5 11,-8 1,-36Z"/>
    <path data-fips-int="1085" data-name="Lowndes County" d="M348,554l3,3 -2,9 13,7 1,39v17h-8h-68v-17h-9v-35h15l-7,-8 8,-15 3,7 4,-17 9,-2 1,8 5,2 5,-9 7,5Z"/>
    <path data-fips-int="1087" data-name="Macon County" d="M525,540v34l-15,1h-55l-4,-11 -7,3 -12,-12 -6,-16 8,-8 17,1 -2,-8h15v-17l17,-4 6,6 29,14h8Z"/>
    <path data-fips-int="1089" data-name="Madison County" d="M376,29l10,11h-11l-4,17 3,4 -5,19v21l5,6 4,1 -5,17 -3,-3 -13,7 -10,2 -9,-13 -5,-8 -14,7 -5,-8 -15,8 1,-88Z"/>
    <path data-fips-int="1091" data-name="Marengo County" d="M128,517h14v9h33v35h9v8l-9,1v25h-16v25l-8,3h-68l-6,-3 -1,-11 12,-4v-13l6,-6 -2,-22 15,-5 -6,-7 -13,-5 3,-13 10,-4 11,-13 9,-2Z"/>
    <path data-fips-int="1093" data-name="Marion County" d="M160,164v61v17l-52,-2v-20l-8,-6 -34,-1 7,-53 44,3Z"/>
    <path data-fips-int="1095" data-name="Marshall County" d="M419,131l-9,10 1,45 -14,3 -19,17 -24,-31 -4,-9 -17,-1v-16l5,-31 9,13 10,-2 13,-7 3,3 5,-17 -4,-1h30v15l6,-1 3,13Z"/>
    <path data-fips-int="1099" data-name="Monroe County" d="M278,656l1,15 -14,7 -13,2 1,6 -13,7 -6,25 -6,11 -15,11 -11,17 -11,11h-11l-10,6 -11,-3 -11,-3 -6,-8 -9,1 -3,-6 5,-9 6,6 3,-12 10,-5 7,4 7,-15 -10,-6 10,-8v-28h8l2,-27 47,1Z"/>
    <path data-fips-int="1101" data-name="Montgomery County" d="M426,539l6,16 12,12h-11l-2,5v39l1,17h-33l-19,1v-18l-17,1 -1,-39 -13,-7 2,-9 -3,-3 5,-12 8,-1 12,-5 6,4v-15l14,1 12,12Z"/>
    <path data-fips-int="1103" data-name="Morgan County" d="M299,117l15,-8 5,8 14,-7 5,8 -5,31v16h-46l-41,-2 2,-73 23,16 19,10Z"/>
    <path data-fips-int="1105" data-name="Perry County" d="M260,456v21l-4,19v9l-6,4 -8,17h-49v35h-9h-9v-35l1,-35h8l1,-34h9v-8h16v8Z"/>
    <path data-fips-int="1107" data-name="Pickens County" d="M107,319h18v74l-31,17 -3,6 -18,-2 -4,9 -28,1 3,-31 10,-77Z"/>
    <path data-fips-int="1109" data-name="Pike County" d="M488,645l-3,4 2,18 -6,6 -2,18 -5,6h-7l-60,1 -6,-2 6,-8 -1,-24h-8l4,-19 -3,-17h33l-1,-17 18,1 2,16h15v17Z"/>
    <path data-fips-int="1111" data-name="Randolph County" d="M543,327h1l13,74 -60,1h-10v-29l1,-48h48Z"/>
    <path data-fips-int="1113" data-name="Russell County" d="M596,519l6,13 -5,24 11,4 8,8 -12,13 -8,3 -8,10v13l-21,1 -12,-17h-26l-4,-17v-34l16,-1v-11l46,-1v-8Z"/>
    <path data-fips-int="1115" data-name="Saint Clair County" d="M418,257l3,15 -15,10 -1,7 -10,-2 6,9 -3,19 -12,12 -3,-5 -4,11 -13,14 1,-23h-18v-9h-6l-5,-2 4,-19 -3,-22h-5v-7l24,-4 14,-13 3,-10 6,-9 6,4 9,-5 5,5 4,13 6,-1Z"/>
    <path data-fips-int="1117" data-name="Shelby County" d="M366,347l4,18 -13,3v8l-9,8 5,16 -5,4 -3,2 -1,14h-8l-11,-9 -42,-1v4l-14,-10 -1,-12 -9,-1v-16l17,-7 7,-10 18,-6 4,-11h5l8,-9h11l14,-17h6v9h18Z"/>
    <path data-fips-int="1119" data-name="Sumter County" d="M121,515l-9,2 -11,13 -10,4 -3,13 13,5 6,7h-82l8,-66 8,-69 28,-1 -3,8 1,25 8,-1 8,22 -3,8 9,-2 -6,15 4,5 22,-8Z"/>
    <path data-fips-int="1121" data-name="Talladega County" d="M405,289l15,1 9,18 34,-1v7l-9,11h-9l-4,20 -8,3 -1,17h-22v20h-9v18l-53,1 5,-4 -5,-16 9,-8v-8l13,-3 -4,-18 13,-14 4,-11 3,5 12,-12 3,-19 -6,-9Z"/>
    <path data-fips-int="1123" data-name="Tallapoosa County" d="M497,402v75l-16,6v20l-17,4v17h-15l-4,-36 3,-16h-19l-1,-66 6,-3 53,-1Z"/>
    <path data-fips-int="1125" data-name="Tuscaloosa County" d="M194,304l18,3v15h8l-4,7 -7,-3 3,10 11,6 2,10 6,1 6,10 16,5v7l-7,5 -7,-4 -8,9v13l-14,-1 -5,8 -1,17 -17,1 -49,-1v-3h-20v-26v-74l29,1v-12l9,-5Z"/>
    <path data-fips-int="1127" data-name="Walker County" d="M239,227l12,17 -2,4h13l8,6 2,8 -12,9 -3,17 -8,11 -15,3 -5,15 -9,5h-8v-15l-18,-3v-17l-17,-1v-34l-17,-1v-9v-17Z"/>
    <path data-fips-int="1129" data-name="Washington County" d="M102,781l-4,5 -9,4h-47l-7,5h-15l-2,-77 -2,-38h64v19l8,9 15,6 7,7 -5,20 7,2 -3,12 -9,3 -3,7 8,9Z"/>
    <path data-fips-int="1131" data-name="Wilcox County" d="M184,569l5,-1 12,13 8,2 7,10h5l12,19h45h9v17h-9v27h-53l-47,-1 -19,1v-9l-8,-2v-22l8,-3v-25h16v-25Z"/>
    <path data-fips-int="1133" data-name="Winston County" d="M178,165l68,1v61h-7l-79,-2v-61Z"/>
    <path data-fips-int="1003" data-name="Baldwin County" d="M133,761l9,-1 6,8 11,3 -1,48h3l1,10 -8,16 18,26 20,12 3,8 -3,13 -5,7v12l7,11 -24,22 -10,-2 -4,4 10,2 -16,8 -25,4h-34l11,-7 7,5 19,-3 8,-9 -12,-6 -18,-19 -4,-12 6,-11 -2,-23 -7,-18 -10,6 -1,-6v-5l4,-3 10,-8 -7,-11 6,-9 -3,-8 4,-21 -5,-4 6,-11 -5,-3 4,-5 5,1 12,-10 6,-15Z"/>
    <path data-fips-int="1097" data-name="Mobile County" d="M92,861l-7,9 1,18 -9,16 -3,12 -1,25 -4,9 -11,4 2,-10 -31,-8 -5,3 -3,-76 -1,-68h15l7,-5h47l9,-4 5,3 -6,11 5,4 -4,21 3,8 -6,9 7,11Z"/>
    <path data-fips-int="1015" data-name="Calhoun County" d="M463,314v-7l-34,1 -9,-18 -15,-1 1,-7 15,-10 -3,-15 11,-4 5,-11 11,2v-7l25,1 1,-6 35,2v3l-1,9h-11l-6,9h9v9l-9,6v25l-3,4 -13,5 -1,10Z"/>
  </g>
  <path class="mesh" d="M578,667l-5,-2 -13,14h-31l1,17 -56,1 5,-6 2,-18 6,-6 -2,-18 3,-4 12,-23 13,-4h13v-19l3,-8h26l12,17 21,-1M270,254l-8,-6h-13l2,-4 -12,-17h7v-61v-3l41,2h46l17,1 4,9 24,31 -4,9 -1,15 -5,8h7l-3,10 -14,13 -24,4v7l-12,-1 -19,-14h-20l-11,5 -2,-8 7,-4v-7l13,-7 12,-3 10,-13 1,-9 14,-8 9,-11 7,-16 11,-1M488,645h-22v-17h-15l-2,-16 -18,-1v-39l2,-5h11l7,-3 4,11h55l15,-1 4,17M573,472h-23l-1,4 -52,1v-75l60,-1M526,232l-20,5v-3l-35,-2 1,-5 -11,-21 -7,-3v-17v-9l12,-3 22,-23 6,-11 6,-15 7,-4M294,554l-14,-37 -3,-27h-17v-13v-21M25,559h82l-15,5 2,22 -6,6v13l-12,4 1,11 6,3v6l-9,1 6,6 -7,3 -10,18 7,12 7,-1 3,12h-64M83,623h68v22l8,2v9l19,-1 -2,27h-8v28l-10,8 10,6 -7,15 -7,-4 -10,5 -3,12 -6,-6 -5,9 3,6 -8,-4 -6,15 -12,10 -5,-1 3,-7 -8,-9 3,-7 9,-3 3,-12 -7,-2 5,-20 -7,-7 -15,-6 -8,-9v-19M544,327h-1l-7,-2h-48M454,325l-6,6h17l3,-6h20l-1,48v29l-53,1 -6,3v-3h-27v-18h9v-20h22l1,-17 8,-3 4,-20h9l9,-11h8l1,-10 13,-5 3,-4v-25l9,-6v-9h-9l6,-9h11l1,-9M86,47l12,-2 11,7 6,12 17,16h7l9,-9 33,-10 14,6 2,7 -19,39 -71,-2 -28,-2M313,717v17h5l1,12 -6,5v31l-12,-1 1,-13h-111l11,-11 11,-17 15,-11 6,-11 6,-25 13,-7 -1,-6 13,-2 14,-7M428,406l1,66h-62M344,420l1,-14 3,-2 53,-1M399,781l2,40M315,821l-2,-1v-38M347,716l-34,1 -23,-1 -12,-21 1,-24 -1,-15v-27h9h68l1,61h-9v26h17v15l20,-16 1,14 14,4M355,629h8v-17l17,-1v18l19,-1 3,17 -4,19h8l1,24 -6,8 6,2M530,696v61v5h-11v8l-29,-5 -9,16h-14M467,697v84h-68v-48v-18l8,-3v-14l60,-1h7M283,414l1,42h-24l-50,1v-8h-16v-26l17,-1 1,-17 5,-8 14,1v-13l8,-9 7,4 7,-5h6v16l9,1 1,12 14,10v-4l42,1 11,9h8v18l11,13 -1,10 13,11 -6,1v9v59l-8,1 -5,12 -20,-6 -7,-5 -5,9 -5,-2 -1,-8 -9,2 -4,17 -3,-7 -8,15 7,8h-15v35h-45l-12,-19h-5l-7,-10 -8,-2 -12,-13 -5,1v-8h9v-35h49l8,-17 6,-4v-9l4,-19M454,186h-43l-1,-45 9,-10 10,-2 33,-27 14,-22 6,-3 5,-14 8,-8M429,472h19l-3,16 4,36 2,8 -17,-1 -8,8 -21,-1 -12,-12 -14,-1v15l-6,-4 -12,5M161,819h-3l1,-48 11,3 10,-6h11M471,232l-1,6 -25,-1v7l-11,-2 -5,11 -11,4 -7,-12 -6,1 -4,-13 -5,-5 -9,5 -6,-4 -6,9M378,206l19,-17 14,-3M160,164v61v17v9l17,1v34l17,1v17l-31,-1 -9,5v12l-29,-1h-18l1,-79 52,2M178,113v52l-18,-1 -43,-1 -44,-3M481,781l38,-1v39M194,449v8h-9l-1,34h-8l-1,35h-33v-9h-14M145,422l-6,5 2,9 -16,14 2,14 -8,6 11,2 2,34 -4,11 -7,-2 -12,-20 -22,8 -4,-5 6,-15 -9,2 3,-8 -8,-22 -8,1 -1,-25 3,-8 4,-9 18,2 3,-6 31,-17v26h20v3l49,1M585,757h-55M419,131l-6,3 -3,-13 -6,1v-15h-30l-5,-6v-21l5,-19 -3,-4 4,-17h11l-10,-11M334,272h5l3,22 -4,19 5,2 -14,17h-11l-8,9h-5l-4,11 -18,6 -7,10 -17,7M253,375v-7l-16,-5 -6,-10 -6,-1 -2,-10 -11,-6 -3,-10 7,3 4,-7 9,-5 5,-15 15,-3 8,-11 3,-17 12,-9M107,319l-53,-3M66,213l34,1 8,6v20M231,27l-1,36 -11,8 3,5 -6,1 -6,-10h-15M222,76l8,-1 12,6 6,9 -2,73M246,166l-68,-1M596,519h-9v8l-46,1v11l-16,1 -1,-17h-8l-29,-14 -6,-6v-20l16,-6M300,29l-1,88 -9,-1 -19,-10 -23,-16M277,490l34,1v-9h50M348,554l3,3 -2,9 13,7 1,39M287,629v-17h-9M525,540v34M444,567l-12,-12 -6,-16M449,524h15v-17l17,-4M374,107l4,1 -5,17 -3,-3 -13,7 -10,2 -9,-13 -5,-8 -14,7 -5,-8 -15,8M175,526v35h9M184,569l-9,1v25h-16v25l-8,3M107,559l-6,-7 -13,-5 3,-13 10,-4 11,-13 9,-2M333,165v-16l5,-31M159,771l-11,-3 -6,-8 -9,1M178,655l47,1h53M431,611l1,17h-33M125,319v74M69,423l-28,1M497,402h-10M418,257l3,15 -15,10 -1,7 -10,-2 6,9 -3,19 -12,12 -3,-5 -4,11 -13,14 1,-23h-18v-9h-6M366,347l4,18 -13,3v8l-9,8 5,16 -5,4M405,289l15,1 9,18 34,-1v7M194,304l18,3v15h8M160,225l79,2M102,781l-4,5 -9,4h-47l-7,5h-15M92,861l10,-8 -7,-11 6,-9 -3,-8 4,-21 -5,-4 6,-11 -5,-3"/>
  <g class="cities">
    <circle r="7" cx="297" cy="321"/>
    <text x="297" y="321">Birmingham</text>
    <circle r="7" cx="381" cy="550"/>
    <text x="381" y="550">Montgomery</text>
    <circle r="7" cx="85" cy="880"/>
    <text x="85" y="880">Mobile</text>
  </g>
</svg>