<?xml version="1.0" encoding="utf-8"?>
<!DOCTYPE svg PUBLIC "-//W3C//DTD SVG 1.1//EN" "http://www.w3.org/Graphics/SVG/1.1/DTD/svg11.dtd">
<svg version="1.1" xmlns="http://www.w3.org/2000/svg" width="350" height="307" viewBox="0 0 350 307">
  <path class="state" transform="scale(0.1)" d="M122,407l-5,-31 -30,-298 78,3 423,8h104l275,6 294,3h217l251,2 8,-2h461h28l203,-1 211,-5 418,-6 10,60 53,34 -10,49 3,37 -26,16 -5,26 -42,25 -22,14 -6,32 -58,47 -9,36 -28,43 60,-2 387,-11 -1,33 40,31 6,25 -26,5 -39,-16 -16,29 40,27 -15,27 -40,11 -20,32 -37,11 -21,-14 -30,22v38l23,27 45,-10 -3,31 -62,29 10,33 20,8v23l-20,1 -32,-35 -36,12 -2,47 18,19 -6,33 -25,18v-48l-28,-9 -24,35 -16,11 -5,33 26,4 -6,-23 23,-5 27,21 -25,35 1,32 -35,7 7,33h32l23,27 -25,45 27,12 -9,27 -35,-9 -23,12 -28,77 -55,-11 -8,36 43,47 1,22 -44,32v26l-22,-12 -43,24 -37,-50 -17,28 20,35 -11,11 16,47 -11,16 -37,-3 15,-36 -10,-21 -23,16 8,25 -21,23 23,22 41,-4 7,22 -40,39 -20,-9 9,-35 -10,-14 -24,22 4,26 1,32 29,36 -27,37 -5,36 10,47 -47,26 -15,25 9,28 -25,-2 10,-41 -52,3 -10,21 20,30 -18,22 -42,6 -10,48 -21,3 -24,-26 -18,6 13,35 20,11 49,-1 -9,36 -55,-22 -30,40 25,22 34,5 -12,46 -68,11 18,31 -23,14 -15,-30 -40,13 -10,20 45,19 5,15 -32,38 12,48 33,13 5,22 -76,3 -22,-10 -7,43 20,21 34,-9 23,36 -38,12 -50,-41 -30,6 -15,25 63,38 2,26 -65,26 33,53 -37,49 47,-11 2,-38 33,29 -10,28 -53,19 43,21 23,-10 17,-49 22,20 -57,67v41l30,47 8,-27 24,-13 5,22 -32,34 3,67 -43,8 -25,-8 -10,27 57,40 -32,46h-205h-422l-639,-10 -351,-4 -216,-5 -166,-3 8,-441 -27,-21 -51,9v-22h-53l-29,27 -11,-21 -14,25 -18,-19 -12,25 -21,-2 -33,-41 -25,-10 15,-32 -24,5 12,-251 7,-207 21,-446 10,-169 20,-385 -35,-300 -33,-286"/>
  <g class="counties" transform="scale(0.1)">
    <path data-fips-int="5001" data-name="Arkansas County" d="M2258,1700l58,1 -3,27 24,1 5,32 30,9 -3,31 23,-9 10,32 22,9 20,40 35,13 -12,34 9,35 -22,66 10,27 -25,19 -53,40v30l43,61 -18,16 -35,-10 -14,-20 -13,17 -23,-14 -15,13 -35,-5 25,-24 -18,-9 -32,20 -20,-26 -17,-55 -6,-45 -43,-8 -9,-61 -48,-10 -77,-2 4,-207 18,2h57v-73Z"/>
    <path data-fips-int="5003" data-name="Ashley County" d="M2209,2672v319h-422l-28,-20 -22,-58 22,-47 -22,-3 8,-38 29,-14 41,-41 35,-22 -8,-39 20,-27 -20,-14 189,4Z"/>
    <path data-fips-int="5005" data-name="Baxter County" d="M1729,100l-2,195 -3,73 -35,-3 11,35 -3,62 -70,-1 -1,73 -72,-3 2,-71v-84l-39,-13 -3,-64 -48,-10 15,-28 -35,-5 28,-35 -40,-6 42,-24 2,-93Z"/>
    <path data-fips-int="5007" data-name="Benton County" d="M588,89v83l-22,16 53,60h-36l-2,60 -12,-1 -36,-2 -22,23 -239,-10 -4,58h-36l-2,35 -108,-4 -5,-31 -30,-298 78,3Z"/>
    <path data-fips-int="5009" data-name="Boone County" d="M1261,98v26l-20,-20 -5,143 -1,169 -35,-2 -238,-7 5,-201v-111Z"/>
    <path data-fips-int="5011" data-name="Bradley County" d="M1850,2414v144h-21l-4,67 17,43 20,14 -20,27 8,39 -35,22 -41,41 -29,14 -8,38 -47,-32 -11,-44h-30l-18,-22 -15,15 -30,-16 6,-16 -20,-12v-51l27,-30 18,-66 -10,-103 -3,-75Z"/>
    <path data-fips-int="5015" data-name="Carroll County" d="M967,95v111l-5,201 -122,-4 -44,-3 -2,-24h-23l-17,-26 -3,-60 -32,-14 5,-23 -105,-5 -53,-60 22,-16v-83h104Z"/>
    <path data-fips-int="5017" data-name="Chicot County" d="M2366,2529l33,53 -37,49 47,-11 2,-38 33,29 -10,28 -53,19 43,21 23,-10 17,-49 22,20 -57,67v41l30,47 8,-27 24,-13 5,22 -32,34 3,67 -43,8 -25,-8 -10,27 57,40 -32,46h-205v-319l2,-143h72v37l73,1Z"/>
    <path data-fips-int="5019" data-name="Clark County" d="M870,1882l35,2v48l108,4 -1,23 75,3 38,9 5,63 96,4 -6,143 -39,-3 10,45 19,12v45l13,4 -5,41 -25,-10 -7,19 -49,19 -39,-12 -25,10 -23,-32 -28,12 -28,-25 -47,-11 -7,-43 -50,-52 -6,-22 -35,-55 -14,-69 -1,-67 -30,-1 2,-34 15,2 1,-73Z"/>
    <path data-fips-int="5021" data-name="Clay County" d="M3041,333l-88,1v-48l-47,2 -277,-3v-18l36,5v-110l-21,-9 6,-43 -10,-18 418,-6 10,60 53,34 -10,49 3,37 -26,16 -5,26Z"/>
    <path data-fips-int="5023" data-name="Cleburne County" d="M1942,754l31,-3 -1,146 -2,65 -37,16 -3,65 -173,-3h-95l8,-290 109,4Z"/>
    <path data-fips-int="5025" data-name="Cleveland County" d="M1850,2341v73l-246,-3v-73l-5,-36 -38,-39 -2,-22 -42,-50h-10l2,-70 93,-1 72,-2 191,-3v73h-15Z"/>
    <path data-fips-int="5027" data-name="Columbia County" d="M1062,2620l-2,59 97,3 -9,299 -351,-4 10,-201 28,3 22,-89 33,-66 100,4v-13Z"/>
    <path data-fips-int="5029" data-name="Conway County" d="M1507,1035l-3,78 -20,17 -8,51 18,15 -18,51h-22l-41,29 -9,-29 -36,30 -19,3 -222,-6 15,-35 25,3 39,-43 20,-2 27,-1 5,-241 251,7Z"/>
    <path data-fips-int="5031" data-name="Craighead County" d="M2983,750l-153,-5 -60,5h-291l2,-148 108,2 13,-72 311,-1 5,-26 60,-2Z"/>
    <path data-fips-int="5033" data-name="Crawford County" d="M430,958l-40,-7 -17,19 18,36 -35,-1 -26,27 -50,3 -30,-24 -3,-37 -24,-22 -28,15 -5,26 -35,-300 241,11 7,-11 110,6 35,1 -2,23 -35,-1 -15,60 -60,-5 -3,75 37,1 -14,37 7,20 -18,25 18,13Z"/>
    <path data-fips-int="5035" data-name="Crittenden County" d="M2986,965l98,2 -16,11 -5,33 26,4 -6,-23 23,-5 27,21 -25,35 1,32 -35,7 7,33h32l23,27 -25,45 27,12 -9,27 -35,-9 -23,12 -28,77 -55,-11 -8,36 43,47 1,22 -44,32v26l-22,-12 -43,24 -2,-62 3,-201 -70,5 -3,-28v-219Z"/>
    <path data-fips-int="5037" data-name="Cross County" d="M2843,965v219l3,28 -365,1v-170v-73h79l137,-9 71,6Z"/>
    <path data-fips-int="5039" data-name="Dallas County" d="M1368,2044l123,4 46,16 54,45 11,11 -93,1 -2,70h10l42,50 2,22 38,39 5,36 -173,-5 -213,-8 5,-41 -13,-4v-45l-19,-12 -10,-45 39,3 6,-143Z"/>
    <path data-fips-int="5041" data-name="Desha County" d="M2550,2066l25,22 34,5 -12,46 -68,11 18,31 -23,14 -15,-30 -40,13 -10,20 45,19 5,15 -32,38 12,48 33,13 5,22 -76,3 -22,-10 -7,43 20,21 34,-9 23,36 -38,12 -50,-41 -30,6 -15,25 63,38 2,26 -65,26 -10,38 -73,-1v-37h-72l2,-179 -75,-3 7,-160 56,1v-25l30,-7 20,26 32,-20 18,9 -25,24 35,5 15,-13 23,14 13,-17 14,20 35,10 18,-16 -43,-61v-30l53,-40Z"/>
    <path data-fips-int="5043" data-name="Drew County" d="M2138,2347l75,3 -2,179 -2,143h-178l-189,-4 -17,-43 4,-67h21v-144v-73h228Z"/>
    <path data-fips-int="5045" data-name="Faulkner County" d="M1662,1040h95l-5,245 -2,45 -71,-2 -2,73 -130,-4 -20,25 -26,-44h-38l-24,-10 -11,-37 33,-32 -7,-52h22l18,-51 -18,-15 8,-51 20,-17 3,-78Z"/>
    <path data-fips-int="5047" data-name="Franklin County" d="M692,696l-16,325 -27,8 -36,-51 -4,94 -73,-6 -3,74 -73,-3v15l-37,-3 7,-191 33,-10 -18,-13 18,-25 -7,-20 14,-37 -37,-1 3,-75 60,5 15,-60 35,1 2,-23v-12Z"/>
    <path data-fips-int="5049" data-name="Fulton County" d="M2198,98l-2,134 -75,-1v73l-83,-3 -206,-2 -105,-4 2,-195 8,-2Z"/>
    <path data-fips-int="5051" data-name="Garland County" d="M1102,1525h71v71l-8,43 71,3 -1,36h46l10,25 -1,48 -82,-3 2,48h-25v48l-313,-9 5,-233 7,-54v-24h73Z"/>
    <path data-fips-int="5053" data-name="Grant County" d="M1666,1760l24,1 -3,217h-13v140l-72,2 -11,-11 -54,-45 -46,-16 -123,-4 8,-219h30l25,-35 126,5v-37Z"/>
    <path data-fips-int="5055" data-name="Greene County" d="M3041,333l-22,14 -6,32 -58,47 -9,36 -28,43 -5,26 -311,1 18,-91 22,-12 26,-47h-41l2,-97 277,3 47,-2v48Z"/>
    <path data-fips-int="5057" data-name="Hempstead County" d="M751,2195l31,15 50,-12 -3,110h-8l-12,288 -165,-6 -21,-30 -14,16 -15,-54 -21,-9 1,-30 -51,-34 -30,-7 -18,-69 10,-8 88,4 8,-217 52,3 43,20Z"/>
    <path data-fips-int="5059" data-name="Hot Spring County" d="M1290,1751h40v25h36l-2,49h12l-8,219 -142,-6 -96,-4 -5,-63 -38,-9 -75,-3 1,-23 -108,-4v-48l-35,-2 2,-47 313,9v-48h25l-2,-48Z"/>
    <path data-fips-int="5061" data-name="Howard County" d="M509,1868l-3,72h10l-2,63 72,4 -5,145 -8,217 -88,-4 -12,-56 -50,-57 -10,-62v-41l-17,-57 10,-41 -15,-10 5,-44 -99,-3 -7,-68 2,-67Z"/>
    <path data-fips-int="5063" data-name="Independence County" d="M2263,601l106,-2 -7,9 -25,44 10,13 -38,25 -43,61 20,60 -28,-2v94l-143,-3 -143,-3 1,-146 -31,3v-35l-20,-19 -4,-35 15,-44 64,-62 29,1 165,3v36Z"/>
    <path data-fips-int="5065" data-name="Izard County" d="M2038,301l7,74v136h-19v49l-29,-1 -64,62 -28,-10 -47,-46 -41,16 -17,-22 -45,6 20,-27 -6,-43 25,-9 -34,-24 -23,-45 -33,6 -4,-23 -11,-35 35,3 3,-73 105,4Z"/>
    <path data-fips-int="5067" data-name="Jackson County" d="M2481,602l-2,148 2,220v73l-144,-2 -1,-73 -63,6 -160,-1 2,-73 143,3v-94l28,2 -20,-60 43,-61 38,-25 -10,-13 25,-44 7,-9Z"/>
    <path data-fips-int="5069" data-name="Jefferson County" d="M1812,1764l223,4 -4,207 77,2 48,10 9,61 43,8 6,45 -33,6 -28,-22 -50,10 -3,-34 -24,-5 -41,-32 -15,1 1,90 -13,-24 -143,1v23l-191,3v-140h13l3,-217Z"/>
    <path data-fips-int="5071" data-name="Johnson County" d="M692,696l117,4v23l95,8 144,3 -3,107 -37,-1 -1,108 -50,-2 -3,118 -24,-10 -35,8 -36,-81 -32,22 -30,-10 -23,18 -40,7 -27,-22 -31,25Z"/>
    <path data-fips-int="5073" data-name="Lafayette County" d="M809,2596v25l81,3 -33,66 -22,89 -28,-3 -10,201 -216,-5 -38,-62 8,-44 43,-12 4,18 25,-54 30,-13 -17,-41 32,-13 -7,-26 20,-12 -30,-12 7,-22 -25,-72 11,-17Z"/>
    <path data-fips-int="5075" data-name="Lawrence County" d="M2627,382h41l-26,47 -22,12 -18,91 -13,72 -108,-2 -112,-3 -106,2 5,-222 -2,-61 12,-11 48,1v-12l25,27 45,21 15,31 28,10 12,26 20,-29Z"/>
    <path data-fips-int="5077" data-name="Lee County" d="M2913,1408l2,62 -37,-50 -17,28 20,35 -11,11 16,47 -11,16 -37,-3 15,-36 -10,-21 -23,16 8,25 -21,23 23,22 41,-4 7,22 -40,39 -20,-9 9,-35 -10,-14 -24,22 4,26h-318l2,-74h-37v-110v-38l81,5h182Z"/>
    <path data-fips-int="5079" data-name="Lincoln County" d="M2214,2101l17,55 -30,7v25l-56,-1 -7,160 -60,-6h-228v-153h15v-73v-23l143,-1 13,24 -1,-90 15,-1 41,32 24,5 3,34 50,-10 28,22Z"/>
    <path data-fips-int="5081" data-name="Little River County" d="M485,2365l-10,8 18,69 30,7 51,34 -26,-2 -22,29 -30,-3v25l-28,-25 3,27 -25,-16 -23,10 -27,-21 -51,9v-22h-53l-29,27 -11,-21 -14,25 -18,-19 -12,25 -21,-2 -33,-41 -25,-10 15,-32 -24,5 12,-251 45,12 20,-9 -7,35 38,14 19,41 53,26 30,-8v19l98,7v25Z"/>
    <path data-fips-int="5083" data-name="Logan County" d="M676,1021l31,-25 27,22 40,-7 23,-18 30,10 32,-22 36,81 35,-8 24,10 15,9 -4,86 -120,-3 -49,57 -90,-3 -30,10v95l-250,-9v-23l-46,-3 1,-36 2,-35 73,3 4,-60v-15l73,3 3,-74 73,6 4,-94 36,51Z"/>
    <path data-fips-int="5085" data-name="Lonoke County" d="M1857,1298l60,23 50,-6v91l74,1 -5,204 40,29 -13,50 20,26 -30,31v23l-18,-2 -223,-4 2,-109 -59,-2 12,-65 13,-25 4,-232 -34,-1 2,-45 72,-5Z"/>
    <path data-fips-int="5087" data-name="Madison County" d="M619,248l105,5 -5,23 32,14 3,60 17,26h23l2,24 44,3v35l24,1 -5,93 -37,35 -13,37v96l-117,-4 -144,-8v12l-35,-1 8,-60 8,-213 40,-119 12,1 2,-60Z"/>
    <path data-fips-int="5089" data-name="Marion County" d="M1556,460l-286,-8 1,-36h-36l1,-169 5,-143 20,20v-26h217l-2,93 -42,24 40,6 -28,35 35,5 -15,28 48,10 3,64 39,13Z"/>
    <path data-fips-int="5091" data-name="Miller County" d="M644,2590l-11,17 25,72 -7,22 30,12 -20,12 7,26 -32,13 17,41 -30,13 -25,54 -4,-18 -43,12 -8,44 38,62 -166,-3 8,-441 23,-10 25,16 -3,-27 28,25v-25l30,3 22,-29 26,2 -1,30 21,9 15,54 14,-16Z"/>
    <path data-fips-int="5093" data-name="Mississippi County" d="M3084,967l-98,-2 -3,-215 -5,-247 387,-11 -1,33 40,31 6,25 -26,5 -39,-16 -16,29 40,27 -15,27 -40,11 -20,32 -37,11 -21,-14 -30,22v38l23,27 45,-10 -3,31 -62,29 10,33 20,8v23l-20,1 -32,-35 -36,12 -2,47 18,19 -6,33 -25,18v-48l-28,-9Z"/>
    <path data-fips-int="5095" data-name="Monroe County" d="M2409,1336v72h23l12,38v110h37l-2,74v146h36v110h-36l-35,-13 -20,-40 -22,-9 -10,-32 -23,9 3,-31 -30,-9 -5,-32 -24,-1 3,-27 -58,-1v-23l-49,-14v-49l50,1 2,-204h50l2,-62h36l2,-15Z"/>
    <path data-fips-int="5097" data-name="Montgomery County" d="M668,1541l216,7 -7,54 -5,233 -2,47 -48,-1 -313,-13 9,-261 35,1 6,-39 60,-5Z"/>
    <path data-fips-int="5099" data-name="Nevada County" d="M890,2200l50,52 7,43 47,11 28,25 28,-12 23,32 -11,269 -72,-5v13l-100,-4 -81,-3v-25l12,-288h8l3,-110Z"/>
    <path data-fips-int="5101" data-name="Newton County" d="M962,407l238,7 3,37 -7,214 -5,73 -143,-4 -144,-3 -95,-8v-23v-96l13,-37 37,-35 5,-93 -24,-1v-35Z"/>
    <path data-fips-int="5103" data-name="Ouachita County" d="M1218,2325l213,8v55l-47,61 -51,10 -2,29 13,15 -44,69 5,17 31,3 12,48 31,-4 12,33 15,-11 37,35 -79,7 -28,-22 -41,9 -138,-5 -97,-3 2,-59 11,-269 25,-10 39,12 49,-19 7,-19Z"/>
    <path data-fips-int="5105" data-name="Perry County" d="M1454,1247l7,52 -33,32 11,37 24,10v14l-72,-3v25l-70,-1 9,48 -29,10 -35,-13 -163,-3 -1,70 -145,-1v-73l-12,-12 49,-35 36,-48 52,-34 45,-48 222,6 19,-3 36,-30 9,29Z"/>
    <path data-fips-int="5107" data-name="Phillips County" d="M2797,1630l1,32 29,36 -27,37 -5,36 10,47 -47,26 -15,25 9,28 -25,-2 10,-41 -52,3 -10,21 20,30 -18,22 -42,6 -10,48 -21,3 -24,-26 -18,6 13,35 20,11 49,-1 -9,36 -55,-22 -30,40 -111,1 25,-19 -10,-27 22,-66 -9,-35 12,-34h36v-110h-36v-146Z"/>
    <path data-fips-int="5109" data-name="Pike County" d="M822,1881l-1,73 -15,-2 -2,34 30,1 1,67 14,69 35,55 6,22 -58,-2 -50,12 -31,-15 -75,-20 -43,-20 -52,-3 5,-145 -72,-4 2,-63h-10l3,-72Z"/>
    <path data-fips-int="5111" data-name="Poinsett County" d="M2983,750l3,215h-143l-75,2 -71,-6 -137,9h-79l-2,-220h291l60,-5Z"/>
    <path data-fips-int="5113" data-name="Polk County" d="M509,1868l-217,-9 -2,67 7,68 -158,-1 21,-446 95,4v24l203,8 60,12v12Z"/>
    <path data-fips-int="5115" data-name="Pope County" d="M1191,738l97,3 -5,143h-23l-2,71 -5,241 -27,1 -36,-4 -53,10 -2,29 -23,9 -20,-18 11,-33 -33,3 -18,-48 -30,-34 -32,-3 -21,-35 -15,-9 3,-118 50,2 1,-108 37,1 3,-107Z"/>
    <path data-fips-int="5117" data-name="Prairie County" d="M2194,1266l5,30h65l-3,115 -2,204 -50,-1v49l49,14v23l-148,-3v73h-57v-23l30,-31 -20,-26 13,-50 -40,-29 5,-204 -74,-1v-91l66,-26 43,13 2,15 37,3v-56Z"/>
    <path data-fips-int="5119" data-name="Pulaski County" d="M1750,1330l34,1 -4,232 -13,25 -12,65 59,2 -2,109 -122,-3 -24,-1 1,-72 -71,-1v-37l-67,-1 2,-37 -73,-14 -4,-61 -66,-2 1,-73 -59,-1 -9,-48 70,1v-25l72,3v-14h38l26,44 20,-25 130,4 2,-73Z"/>
    <path data-fips-int="5121" data-name="Randolph County" d="M2640,92l10,18 -6,43 21,9v110l-36,-5v18l-2,97h-156l-20,29 -12,-26 -28,-10 -15,-31 -45,-21 -25,-27v-61l-12,-38 -23,-11 2,-25h-29l-8,-42 -30,-21 203,-1Z"/>
    <path data-fips-int="5123" data-name="Saint Francis County" d="M2846,1212l70,-5 -3,201 -206,5h-182l-81,-5v38l-12,-38h-23v-72h72v-123Z"/>
    <path data-fips-int="5125" data-name="Saline County" d="M1330,1461l59,1 -1,73 66,2 4,61 73,14 -2,37 67,1v37l71,1 -1,72 -109,-2v37l-126,-5 -25,35h-30h-12l2,-49h-36v-25h-40l1,-48 -10,-25h-46l1,-36 -71,-3 8,-43v-71h-71l1,-70 163,3 35,13Z"/>
    <path data-fips-int="5127" data-name="Scott County" d="M381,1244l-1,36 46,3v23l250,9 -8,226 -49,23 -60,5 -6,39 -35,-1v-12l-60,-12 -203,-8v-24l-95,-4 10,-169 148,-26 4,-73 -15,-8Z"/>
    <path data-fips-int="5129" data-name="Searcy County" d="M1556,460l-2,71 -2,156 -144,-3v58l-120,-1 -97,-3 5,-73 7,-214 -3,-37 35,2h36l-1,36Z"/>
    <path data-fips-int="5131" data-name="Sebastian County" d="M430,958l-7,191 37,3 -4,60 -73,-3 -2,35 -74,27 15,8 -4,73 -148,26 20,-385 5,-26 28,-15 24,22 3,37 30,24 50,-3 26,-27 35,1 -18,-36 17,-19Z"/>
    <path data-fips-int="5133" data-name="Sevier County" d="M413,2190l10,62 50,57 12,56 -57,-3v-25l-98,-7v-19l-30,8 -53,-26 -19,-41 -38,-14 7,-35 -20,9 -45,-12 7,-207 158,1 99,3 -5,44 15,10 -10,41 17,57Z"/>
    <path data-fips-int="5135" data-name="Sharp County" d="M2226,98l30,21 8,42h29l-2,25 23,11 12,38v61v12l-48,-1 -12,11 2,61 -5,222 -72,-2v-36l-165,-3v-49h19v-136l-7,-74 83,3v-73l75,1 2,-134Z"/>
    <path data-fips-int="5137" data-name="Stone County" d="M1933,621l-15,44 4,35 20,19v35h-163l-109,-4 -121,-3 3,-60 2,-156 72,3 1,-73 70,1 3,-62 4,23 33,-6 23,45 34,24 -25,9 6,43 -20,27 45,-6 17,22 41,-16 47,46Z"/>
    <path data-fips-int="5139" data-name="Union County" d="M1443,2693l23,8 3,32 32,-7 25,44 45,-5 21,-17 -6,16 30,16 15,-15 18,22h30l11,44 47,32 22,3 -22,47 22,58 28,20 -639,-10 9,-299 138,5 41,-9 28,22Z"/>
    <path data-fips-int="5141" data-name="Van Buren County" d="M1552,687l-3,60 121,3 -8,290 -155,-5 2,-73 -251,-7 2,-71h23l5,-143 120,1v-58Z"/>
    <path data-fips-int="5143" data-name="Washington County" d="M513,699l-110,-6 -7,11 -241,-11 -33,-286 108,4 2,-35h36l4,-58 239,10 22,-23 36,2 -40,119 -8,213Z"/>
    <path data-fips-int="5145" data-name="White County" d="M2115,900l-2,73 160,1 -7,26 -55,35v51h18v34l24,32 -49,76 17,26 -27,12 -79,-2v56l-37,-3 -2,-15 -43,-13 -66,26 -50,6 -60,-23 -33,-18 -72,5 5,-245 173,3 3,-65 37,-16 2,-65Z"/>
    <path data-fips-int="5147" data-name="Woodruff County" d="M2481,1043v170v123h-72l-58,-2 -2,15h-36l-2,62h-50l3,-115h-65l-5,-30 27,-12 -17,-26 49,-76 -24,-32v-34h-18v-51l55,-35 7,-26 63,-6 1,73Z"/>
    <path data-fips-int="5149" data-name="Yell County" d="M1226,1197l-20,2 -39,43 -25,-3 -15,35 -45,48 -52,34 -36,48 -49,35 12,12v73h-73v24l-216,-7 8,-226v-95l30,-10 90,3 49,-57 120,3 4,-86 21,35 32,3 30,34 18,48 33,-3 -11,33 20,18 23,-9 2,-29 53,-10Z"/>
    <path data-fips-int="5013" data-name="Calhoun County" d="M1604,2411l3,75 10,103 -18,66 -27,30v51l20,12 -21,17 -45,5 -25,-44 -32,7 -3,-32 -23,-8 -37,-35 -15,11 -12,-33 -31,4 -12,-48 -31,-3 -5,-17 44,-69 -13,-15 2,-29 51,-10 47,-61v-55l173,5Z"/>
  </g>
  <path class="mesh" transform="scale(0.1)" d="M1729,100l-2,195 -3,73 -35,-3 11,35 -3,62 -70,-1 -1,73 -72,-3 2,-71v-84l-39,-13 -3,-64 -48,-10 15,-28 -35,-5 28,-35 -40,-6 42,-24 2,-93M588,89v83l-22,16 53,60h-36l-2,60 -12,-1 -36,-2 -22,23 -239,-10 -4,58h-36l-2,35 -108,-4M1261,98v26l-20,-20 -5,143 -1,169 -35,-2 -238,-7 5,-201v-111M962,407l-122,-4 -44,-3 -2,-24h-23l-17,-26 -3,-60 -32,-14 5,-23 -105,-5M1787,2991l-28,-20 -22,-58 22,-47 -22,-3 -47,-32 -11,-44h-30l-18,-22 -15,15 -30,-16 6,-16 -20,-12v-51l27,-30 18,-66 -10,-103 -3,-75 246,3v144h-21l-4,67 17,43 189,4h178l2,-143h72v37l73,1 10,-38M3041,333l-88,1v-48l-47,2 -277,-3v-18l36,5v-110l-21,-9 6,-43 -10,-18M1604,2411v-73l-5,-36 -38,-39 -2,-22 -42,-50h-10l2,-70 93,-1 72,-2 191,-3v73h-15v153v73M797,2977l10,-201 28,3 22,-89 33,-66 100,4v-13l72,5 -2,59 97,3 -9,299M2978,503l5,247 -153,-5 -60,5h-291l2,-148 108,2 13,-72 311,-1 5,-26M155,693l241,11 7,-11 110,6 35,1 -2,23 -35,-1 -15,60 -60,-5 -3,75 37,1 -14,37 7,20 -18,25 18,13 -33,10 -40,-7 -17,19 18,36 -35,-1 -26,27 -50,3 -30,-24 -3,-37 -24,-22 -28,15 -5,26M2915,1470l-2,-62 3,-201 -70,5 -3,-28v-219h143l98,2M2846,1212l-365,1v-170v-73h79l137,-9 71,6 75,-2M1226,2038l142,6 123,4 46,16 54,45 11,11M1604,2338l-173,-5 -213,-8M2211,2529l2,-179 -75,-3 7,-160 56,1v-25l30,-7M2439,2067l111,-1M1850,2341h228l60,6M1757,1040l-5,245 -2,45 -71,-2 -2,73 -130,-4 -20,25 -26,-44h-38l-24,-10 -11,-37 33,-32 -7,-52M1507,1035l-3,78 -20,17 -8,51 18,15 -18,51h-22l-41,29 -9,-29 -36,30 -19,3 -222,-6 15,-35 25,3 39,-43 20,-2 27,-1 5,-241 251,7 -2,73 155,5M548,700v-12l144,8 -16,325 -27,8 -36,-51 -4,94 -73,-6 -3,74 -73,-3v15l-37,-3 7,-191M2198,98l-2,134 -75,-1v73l-83,-3 -206,-2 -105,-4M1463,1378v14l-72,-3v25l-70,-1 9,48 -29,10 -35,-13 -163,-3 -1,70h71v71l-8,43 71,3 -1,36h46l10,25 -1,48 -82,-3 2,48h-25v48l-313,-9 5,-233 7,-54v-24h73l145,1M1368,2044l8,-219h30l25,-35 126,5v-37l109,2 24,1 -3,217h-13v140M2602,532l18,-91 22,-12 26,-47h-41l2,-97M751,2195l31,15 50,-12 -3,110h-8l-12,288 -165,-6 -21,-30 -14,16 -15,-54 -21,-9 1,-30 -51,-34 -30,-7 -18,-69 10,-8 88,4 8,-217 52,3 43,20 75,20M1290,1751h40v25h36l-2,49h12M870,1882l35,2v48l108,4 -1,23 75,3 38,9 5,63 96,4 -6,143 -39,-3 10,45 19,12v45l13,4 -5,41 -25,-10 -7,19 -49,19 -39,-12 -25,10 -23,-32 -28,12 -28,-25 -47,-11 -7,-43 -50,-52 -6,-22 -35,-55 -14,-69 -1,-67 -30,-1 2,-34 15,2 1,-73 48,1 2,-47M132,2200l45,12 20,-9 -7,35 38,14 19,41 53,26 30,-8v19l98,7v25l57,3 -12,-56 -50,-57 -10,-62v-41l-17,-57 10,-41 -15,-10 5,-44 -99,-3 -7,-68 2,-67 217,9 -3,72h10l-2,63 72,4 -5,145M2209,2672v319M1942,754l31,-3 -1,146 -2,65 -37,16 -3,65 -173,-3h-95l8,-290 109,4h163v-35l-20,-19 -4,-35 15,-44 64,-62 29,1 165,3v36l72,2 106,-2 -7,9 -25,44 10,13 -38,25 -43,61 20,60 -28,-2v94l-143,-3 -143,-3M2038,301l7,74v136h-19v49M1933,621l-28,-10 -47,-46 -41,16 -17,-22 -45,6 20,-27 -6,-43 25,-9 -34,-24 -23,-45 -33,6 -4,-23M2479,750l2,220M2481,1043l-144,-2 -1,-73 -63,6 -160,-1 2,-73M2369,599l112,3M1690,1761l122,3 223,4M2214,2101l-33,6 -28,-22 -50,10 -3,-34 -24,-5 -41,-32 -15,1 1,90 -13,-24 -143,1v23M692,696l117,4v23l95,8 144,3 -3,107 -37,-1 -1,108 -50,-2 -3,118 -24,-10 -35,8 -36,-81 -32,22 -30,-10 -23,18 -40,7 -27,-22 -31,25M809,2596v25l81,3M581,2972l-38,-62 8,-44 43,-12 4,18 25,-54 30,-13 -17,-41 32,-13 -7,-26 20,-12 -30,-12 7,-22 -25,-72 11,-17M2263,601l5,-222 -2,-61 12,-11 48,1v-12l25,27 45,21 15,31 28,10 12,26 20,-29h156M2797,1630h-318l2,-74h-37v-110v-38l81,5h182l206,-5M574,2483l-26,-2 -22,29 -30,-3v25l-28,-25 3,27 -25,-16 -23,10M954,1064l15,9 -4,86 -120,-3 -49,57 -90,-3 -30,10v95l-250,-9v-23l-46,-3 1,-36 2,-35 73,3 4,-60M1752,1285l72,-5 33,18 60,23 50,-6v91l74,1 -5,204 40,29 -13,50 20,26 -30,31v23M1812,1764l2,-109 -59,-2 12,-65 13,-25 4,-232 -34,-1M840,403v35l24,1 -5,93 -37,35 -13,37v96M513,699l8,-60 8,-213 40,-119M1556,460l-286,-8 1,-36h-36M2986,965l-3,-215M2258,1700l58,1 -3,27 24,1 5,32 30,9 -3,31 23,-9 10,32 22,9 20,40 35,13 -12,34 9,35 -22,66 10,27 -25,19 -53,40v30l43,61 -18,16 -35,-10 -14,-20 -13,17 -23,-14 -15,13 -35,-5 25,-24 -18,-9 -32,20 -20,-26 -17,-55 -6,-45 -43,-8 -9,-61 -48,-10 -77,-2 4,-207 18,2h57v-73l148,3v-23l-49,-14v-49l50,1 2,-204h50l2,-62h36l2,-15 58,2v72h23l12,38M2479,1630v146h36v110h-36M822,1881l-313,-13 9,-261 35,1 6,-39 60,-5 49,-23 216,7M1073,2351l-11,269M832,2198l58,2M1200,414l3,37 -7,214 -5,73 -143,-4M1737,2863l8,-38 29,-14 41,-41 35,-22 -8,-39 20,-27 -20,-14M1431,2333v55l-47,61 -51,10 -2,29 13,15 -44,69 5,17 31,3 12,48 31,-4 12,33 15,-11 37,35 -79,7 -28,-22 -41,9 -138,-5M957,1524v-73l-12,-12 49,-35 36,-48 52,-34 45,-48M297,1994l-158,-1M160,1547l95,4v24l203,8 60,12v12M1191,738l97,3 -5,143h-23l-2,71M1226,1197l-36,-4 -53,10 -2,29 -23,9 -20,-18 11,-33 -33,3 -18,-48 -30,-34 -32,-3 -21,-35M1967,1315l66,-26 43,13 2,15 37,3v-56l79,2 5,30h65l-3,115M1666,1760l1,-72 -71,-1v-37l-67,-1 2,-37 -73,-14 -4,-61 -66,-2 1,-73 -59,-1M2326,296v-61l-12,-38 -23,-11 2,-25h-29l-8,-42 -30,-21M2409,1336h72v-123M676,1315l-8,226M170,1378l148,-26 4,-73 -15,-8 74,-27M1554,531l-2,156 -144,-3v58l-120,-1M1670,750l-121,-3 3,-60M1443,2693l23,8 3,32 32,-7 25,44 45,-5 21,-17M2273,974l-7,26 -55,35v51h18v34l24,32 -49,76 17,26 -27,12"/>
  <g class="cities">
    <circle r="3" cx="163.6" cy="155.2"/>
    <text x="163.6" y="155.2">Little Rock</text>
    <circle r="3" cx="21.2" cy="100.4"/>
    <text x="21.2" y="100.4">Fort Smith</text>
    <circle r="3" cx="38.7" cy="44.7"/>
    <text x="38.7" y="44.7">Fayetteville</text>
  </g>
</svg>