<?xml version="1.0" encoding="utf-8"?>
<!DOCTYPE svg PUBLIC "-//W3C//DTD SVG 1.1//EN" "http://www.w3.org/Graphics/SVG/1.1/DTD/svg11.dtd">
<svg version="1.1" xmlns="http://www.w3.org/2000/svg" width="1000" height="877" viewBox="0 0 1000 877">
  <path class="state" d="M728,590l17,8 -6,15h-17l5,13h-7l-3,-7 -14,4v6l13,5 -9,14 -1,8 16,12 -5,6 -7,-3 -18,2v10l6,5 9,-3 8,7 -10,7 -17,-12 -8,2 -4,7 13,7 6,11 -19,9 9,13 -10,16 11,-1v-12l10,4 2,7 -18,9 12,7 10,-7 1,-11h7l-1,8 -15,16v13l9,13 1,-8 8,-1v7l-9,7 2,18 -4,3 -16,-3 -2,9 16,11 -10,12h-268l-3,-1h-87l-3,-1 -100,-1 -63,-2h-46l1,-95 1,-31 -8,-6 -15,2 1,-5 -22,1 -2,6 -23,3 -7,-11 -8,-3 5,-11 -8,1 3,-71 3,-59 4,-68v-39l2,-20 1,-49 4,-45 3,-65 -9,-70 -1,-15 -4,-35 -5,-47 -8,-54 -2,-40h52l32,2h58l90,1 19,2 84,1h276l105,-1 13,-2 102,-1h18l4,20 14,6 -3,28 -7,1 -6,13 -7,2 -7,5 -3,12 -9,4 -16,29 17,-1 111,-4 -3,9 15,10 -5,10 -14,-5 -3,9 11,6 -3,8 -11,1 -8,11 -10,4 -7,-4 -8,5 1,15 12,5 6,-4 -1,10 -16,7 1,10 7,9 -10,-2 -7,-8 -11,11 7,11 -7,15 -2,-14 -8,-3 -7,11 -6,12 7,2 1,-9 12,7 -7,10v9l-10,1 2,10 10,1 6,6 -9,8 10,9 -3,8 -12,-2 -5,4 -6,21 -18,-4 -2,10 12,13 1,8 -20,14 -11,5 -5,-9 -9,-3 -1,6 5,10 -4,5 5,10 -4,7 -8,-1v-17l-8,4 4,9 -6,3 6,9 12,-1 1,7 -10,10 -7,-5 4,-7 -9,1 1,8 -1,7 9,13 -9,14 4,14 -2,6 -16,9 1,12h-7l3,-11 -15,1 -3,6 6,9 -5,6 -13,2 -3,15 -14,-9 -4,4 11,12 14,-1 1,6 -11,5 -9,-7Z"/>
  <g class="counties">
    <path data-fips-int="5001" data-name="Arkansas County" d="M645,485l17,1 7,17 9,1 -2,9 11,2 11,20 10,3 -3,33h-3l1,14 -6,5 -11,6 -5,11 13,21 -15,1 -6,-6 -5,6 -19,-1 7,-10 -13,5 -6,-8 -5,-15 -2,-13 -8,1 -6,-11v-9l-14,-4h-22l1,-59h22v-20Z"/>
    <path data-fips-int="5003" data-name="Ashley County" d="M631,763v90h-121l-8,-5 -5,-18 6,-9 -7,-3 5,-15 12,-7 2,-6 13,-6 -1,-10 3,-9 -4,-3Z"/>
    <path data-fips-int="5005" data-name="Baxter County" d="M494,28l-1,56 -1,21 -10,-1 4,10 -1,18h-20l-1,20h-20v-21l1,-17 -13,-16v-13l-14,-2 5,-9 -10,-5 9,-6 -11,-4 10,-5 1,-26Z"/>
    <path data-fips-int="5007" data-name="Benton County" d="M167,24v24l-6,5 16,18 -11,-2v19h-4l-18,1 2,5 -69,-4v17l-11,1 -2,10 -29,-2 -8,-54 -2,-40h52l32,2Z"/>
    <path data-fips-int="5009" data-name="Boone County" d="M360,28l-6,1v14l-1,75h-11l-67,-2 1,-89Z"/>
    <path data-fips-int="5011" data-name="Bradley County" d="M528,689v42h-6l4,31 4,3 -3,9 1,10 -13,6 -2,6 -12,7 -5,15 -14,-10 -3,-12 -17,-2 -8,-9 -5,-9 1,-9 11,-22 -3,-57 6,1Z"/>
    <path data-fips-int="5015" data-name="Carroll County" d="M276,27l-1,89 -35,-2h-14l-12,-18v-13l-8,-12h-29l-16,-18 6,-5v-24l90,1Z"/>
    <path data-fips-int="5017" data-name="Chicot County" d="M676,723l9,13 -10,16 11,-1v-12l10,4 2,7 -18,9 12,7 10,-7 1,-11h7l-1,8 -15,16v13l9,13 1,-8 8,-1v7l-9,7 2,18 -4,3 -16,-3 -2,9 16,11 -10,12h-58v-130l21,-1 5,11h16Z"/>
    <path data-fips-int="5019" data-name="Clark County" d="M248,538h10v13l31,2v6l32,3 -2,20h31l-1,41 -12,-1 9,31 6,4 -4,7 -4,-2 -16,10 -22,-1 -7,-8 -8,2 -7,-7h-8l-9,-9 2,-6 -15,-15 1,-2 -13,-19 -4,-34 -8,-6 4,-9 1,-21Z"/>
    <path data-fips-int="5021" data-name="Clay County" d="M869,94l-26,1v-13l-92,-2 10,-2v-33h-4l1,-14 -4,-6 102,-1h18l4,20 14,6 -3,28 -7,1 -6,13Z"/>
    <path data-fips-int="5023" data-name="Cleburne County" d="M554,216l10,-2 -1,42v18l-11,5 -1,19 -49,-2h-28l3,-82 71,1Z"/>
    <path data-fips-int="5025" data-name="Cleveland County" d="M528,668v21h-64l-6,-1v-20l-2,-11 -10,-10 -5,-14 -10,-7 1,-20 25,-1 20,-2h55v22h-4Z"/>
    <path data-fips-int="5027" data-name="Columbia County" d="M303,748l-1,17 29,1 -2,31 -1,54 -100,-1 2,-55 8,-2 1,-7 15,-38 26,2 2,-2Z"/>
    <path data-fips-int="5029" data-name="Conway County" d="M431,295l-1,22 -10,12 6,12v9l-10,6 -18,8 4,-8 -12,9 -68,-2 1,-8 27,-13 8,-1 1,-68 72,1Z"/>
    <path data-fips-int="5031" data-name="Craighead County" d="M853,213h-145v-41l32,1 2,-21h88l4,-8 17,-1Z"/>
    <path data-fips-int="5033" data-name="Crawford County" d="M123,273h-16l5,11 -10,2 -6,8 -21,-1 -4,-15 -12,-6 -5,11 -9,-70 -1,-15 70,2v-2l32,1 10,1v7l-12,-1 -3,17h-17l-1,20h11Z"/>
    <path data-fips-int="5035" data-name="Crittenden County" d="M854,276h27l-6,12 7,2 1,-9 12,7 -7,10v9l-10,1 2,10 10,1 6,6 -9,8 10,9 -3,8 -12,-2 -5,4 -6,21 -18,-4 -2,10 12,13 1,8 -20,14 -11,5 -1,-16 1,-58 -20,1 -1,-8v-63Z"/>
    <path data-fips-int="5037" data-name="Cross County" d="M812,275v63l1,8h-86l-19,1v-71l83,-2Z"/>
    <path data-fips-int="5039" data-name="Dallas County" d="M391,583l36,2 17,7 10,11 3,2 -25,1 -1,20 10,7 5,14 10,10 2,11 -49,-3 -61,-1 4,-7 -6,-4 -9,-31 12,1 1,-41Z"/>
    <path data-fips-int="5041" data-name="Desha County" d="M728,590l17,8 -6,15h-17l5,13h-7l-3,-7 -14,4v6l13,5 -9,14 -1,8 16,12 -5,6 -7,-3 -18,2v10l6,5 9,-3 8,7 -10,7 -17,-12 -8,2 -4,7 13,7 6,11 -19,9 -3,10h-16l-5,-11 -21,1 1,-52 -22,-1 2,-47 16,2v-7l9,-3 6,8 13,-5 -7,10 19,1 5,-6 6,6 15,-1 -13,-21 5,-11 11,-6Z"/>
    <path data-fips-int="5043" data-name="Drew County" d="M610,670l22,1 -1,52v40l-105,-1 -4,-31h6v-63h65Z"/>
    <path data-fips-int="5045" data-name="Faulkner County" d="M474,296h28l-2,71v12h-21v21l-36,-1 -7,6 -4,-8 -15,-4 -9,-7v-7l9,-8 -1,-15 10,-6v-9l-6,-12 10,-12 1,-22Z"/>
    <path data-fips-int="5047" data-name="Franklin County" d="M198,198l-5,94 -9,1 -9,-14 -1,27 -21,-2 -1,21 -21,-1v4h-10l2,-55 11,-30h-11l1,-20h17l3,-17 12,1v-7l2,-3Z"/>
    <path data-fips-int="5049" data-name="Fulton County" d="M627,28l-1,38h-20v21l-24,-1 -89,-2 1,-56Z"/>
    <path data-fips-int="5051" data-name="Garland County" d="M315,436h20l-2,32h20v11h13l2,21 -23,-1v14h-7v14l-60,-3h-29l1,-62 2,-20v-7h20Z"/>
    <path data-fips-int="5053" data-name="Grant County" d="M475,503h8l-1,62h-5v38l-20,2 -3,-2 -10,-11 -17,-7 -36,-2 2,-32v-30h10l4,-9 38,1v-11Z"/>
    <path data-fips-int="5055" data-name="Greene County" d="M869,94l-7,5 -3,12 -9,4 -16,29 -4,8h-88l2,-4 -2,-5 6,-18 6,-2 8,-15h-12l1,-28 92,2v13Z"/>
    <path data-fips-int="5057" data-name="Hempstead County" d="M238,628l-1,31 -3,5 -3,78 -48,-3 -9,-4 -11,-16v-10l-17,-13 -10,-1v-17l2,-3 25,1 3,-62 14,1 13,6 30,7Z"/>
    <path data-fips-int="5059" data-name="Hot Spring County" d="M368,500h11v7h11l3,14v30l-2,32 -41,-1h-31l2,-20 -32,-3v-6l-31,-2v-13h-10l1,-14h29l60,3v-14h7v-14Z"/>
    <path data-fips-int="5061" data-name="Howard County" d="M144,533v20l3,1 -1,17 21,2 -1,41 -3,62 -25,-1 -2,-14 -15,-18 -3,-7v-23l-4,-15 2,-12 -3,-16 -29,-1 -1,-38Z"/>
    <path data-fips-int="5063" data-name="Independence County" d="M646,171h31l-8,17 -17,17 -6,11 7,15h-8v27l-41,-2h-41l1,-42 -10,2v-11l-6,-6 4,-21 18,-20h9l47,2v11Z"/>
    <path data-fips-int="5065" data-name="Izard County" d="M582,86l4,10 -2,11v39h-5v12h-9l-18,20 -8,-4 -15,-14 -10,6 -2,-6 -12,3 -1,-19 7,-8 -9,-4 -7,-14 -8,3 -1,-7 -4,-10 10,1 1,-21Z"/>
    <path data-fips-int="5067" data-name="Jackson County" d="M708,172v126h-41v-22l-18,2h-45v-22l41,2v-27h8l-7,-15 6,-11 17,-17 8,-17Z"/>
    <path data-fips-int="5069" data-name="Jefferson County" d="M518,503l63,2 -1,59h22l14,4v9l6,11 8,-1 2,13 -12,2 -5,-7 -10,3 -5,-4 5,-6 -12,-1 -16,-9v25l-4,-6 -41,1v5h-55v-38h5l1,-62Z"/>
    <path data-fips-int="5071" data-name="Johnson County" d="M198,198l33,2v7l24,1 44,1 -1,31h-10l-2,30h-12l-2,33 -19,-1 -7,-22 -11,6 -5,-3 -14,7 -14,-6 -9,8Z"/>
    <path data-fips-int="5073" data-name="Lafayette County" d="M231,742v6h23l-15,38 -1,7 -8,2 -2,55 -63,-2 -11,-16 5,-14 23,-8 -4,-5 11,-17 -3,-15 2,-8 -7,-10 2,-16Z"/>
    <path data-fips-int="5075" data-name="Lawrence County" d="M750,108h12l-8,15 -6,2 -6,18 2,5 -2,4 -2,21 -32,-1 -31,-1h-31l1,-80 17,-7 6,7 14,7 4,9 17,2Z"/>
    <path data-fips-int="5077" data-name="Lee County" d="M832,403l1,16 -5,-9 -9,-3 -1,6 5,10 -4,5 5,10 -4,7 -8,-1v-17l-8,4 4,9 -6,3 6,9 12,-1 1,7 -10,10 -7,-5 4,-7 -9,1 1,8 -47,1 -45,-1v-21h-10v-41h24Z"/>
    <path data-fips-int="5079" data-name="Lincoln County" d="M632,600l5,15 -9,3v7l-16,-2 -2,47 -17,-2h-65v-43h4v-27l41,-1 4,6v-25l16,9 12,1 -5,6 5,4 10,-3 5,7Z"/>
    <path data-fips-int="5081" data-name="Little River County" d="M138,675l-2,3v17l10,1 17,13 -7,-1 -6,9 -8,-2 -2,8 -6,-8 -1,11 -6,-7 -6,3 -8,-6 -15,2 1,-5 -22,1 -2,6 -23,3 -7,-11 -8,-3 5,-11 -8,1 3,-71 13,4 4,7 17,10 4,5 18,11h17l12,3 -1,6Z"/>
    <path data-fips-int="5083" data-name="Logan County" d="M193,292l9,-8 14,6 14,-7 5,3 11,-6 7,22 19,1 4,3v25l-35,-1 -14,16 -26,-1 -8,3v28l-72,-3v-7h-13l1,-11v-10l20,1 2,-18v-4l21,1 1,-21 21,2 1,-27 9,14Z"/>
    <path data-fips-int="5085" data-name="Lonoke County" d="M562,375v25l21,2 -1,57 10,10 -3,12 6,9 -8,8v7h-6l-63,-2v-30l-16,-1 3,-20 4,-5v-68h-9v-12l16,-2 31,12Z"/>
    <path data-fips-int="5087" data-name="Madison County" d="M177,71h29l8,12v13l12,18h14l-1,11h7l-1,27 -10,10 -4,10v28l-33,-2 -40,-1 -2,3 -10,-1 3,-20 2,-58 11,-33h4v-19Z"/>
    <path data-fips-int="5089" data-name="Marion County" d="M444,131l-80,-3 -1,-10h-10l1,-75v-14l6,-1h62l-1,26 -10,5 11,4 -9,6 10,5 -5,9 14,2v13l13,16Z"/>
    <path data-fips-int="5091" data-name="Miller County" d="M183,739l-2,16 7,10 -2,8 3,15 -11,17 4,5 -23,8 -5,14 11,16h-46l1,-95 1,-31 6,-3 6,7 1,-11 6,8 2,-8 8,2 6,-9 7,1v10l11,16Z"/>
    <path data-fips-int="5093" data-name="Mississippi County" d="M881,276h-27l-1,-63 -2,-70 111,-4 -3,9 15,10 -5,10 -14,-5 -3,9 11,6 -3,8 -11,1 -8,11 -10,4 -7,-4 -8,5 1,15 12,5 6,-4 -1,10 -16,7 1,10 7,9 -10,-2 -7,-8 -11,11 7,11 -7,15 -2,-14 -8,-3Z"/>
    <path data-fips-int="5095" data-name="Monroe County" d="M688,381v22h7l3,10v31h10v63h11v31h-11l-10,-3 -11,-20 -11,-2 2,-9 -9,-1 -7,-17 -17,-1v-7l-14,-3v-14h14v-38l4,-12 -4,-8h15l1,-18 10,-4Z"/>
    <path data-fips-int="5097" data-name="Montgomery County" d="M191,441l61,1 -2,20 -1,62 -1,14 -13,-1 -91,-4 3,-47v-28l11,1 2,-11h10l7,-5Z"/>
    <path data-fips-int="5099" data-name="Nevada County" d="M254,628l15,15 -2,6 9,9h8l7,7 8,-2 7,8 -1,46 -2,31h-21l-2,2 -26,-2h-23v-6l3,-78 3,-5 1,-31Z"/>
    <path data-fips-int="5101" data-name="Newton County" d="M275,116l67,2 1,10 -1,50 -2,32 -41,-1 -44,-1 -24,-1v-35l4,-10 10,-10 1,-27h-7l1,-11Z"/>
    <path data-fips-int="5103" data-name="Ouachita County" d="M348,664l61,1v17l-6,7 -8,10 -14,2 -2,10 5,3 -1,11 -10,3v11l9,2 2,12h11l1,9 12,-1 4,8 -12,1 -29,-3 -40,-1 -29,-1 1,-17 2,-31 1,-46 22,1 16,-10Z"/>
    <path data-fips-int="5105" data-name="Perry County" d="M416,356l1,15 -9,8v7l9,7v5l-20,-1v6h-21l3,14 -8,3 -11,-4 -45,-1v21l-43,-1v-21l4,-10 22,-16 11,-15 13,-10 68,2 12,-9 -4,8Z"/>
    <path data-fips-int="5107" data-name="Phillips County" d="M800,465l-1,7 9,13 -9,14 4,14 -2,6 -16,9 1,12h-7l3,-11 -15,1 -3,6 6,9 -5,6 -13,2 -3,15 -14,-9 -4,4 11,12 14,-1 1,6 -11,5 -9,-7 -9,12h-31l6,-5 -1,-14h3l3,-33h11v-31h-11v-42l45,1Z"/>
    <path data-fips-int="5109" data-name="Pike County" d="M235,537l-1,21 -4,9 8,6 4,34 13,19 -1,2h-31l-30,-7 -13,-6 -14,-1 1,-41 -21,-2 1,-17 -3,-1v-20Z"/>
    <path data-fips-int="5111" data-name="Poinsett County" d="M853,213l1,63 -42,-1 -21,-1 -83,2v-63Z"/>
    <path data-fips-int="5113" data-name="Polk County" d="M144,533l-61,-2 1,38h-44l4,-68v-39l2,-20h26l-1,7 60,3 17,3 -1,3v28Z"/>
    <path data-fips-int="5115" data-name="Pope County" d="M340,210l28,1 -1,42 -8,-1v21l-1,68 -8,1 -10,-2 -16,4 -4,10 -8,-4 3,-12 -9,3 -7,-16 -8,-8h-8l-7,-11 -4,-3 2,-33h12l2,-30h10l1,-31Z"/>
    <path data-fips-int="5117" data-name="Prairie County" d="M626,361l2,8h18l-1,34 4,8 -4,12v38h-14v14l14,3v7h-42v20h-16v-7l8,-8 -6,-9 3,-12 -10,-10 1,-57 -21,-2v-25l16,-7 26,8v-15Z"/>
    <path data-fips-int="5119" data-name="Pulaski County" d="M500,379h9v68l-4,5 -3,20 16,1v30h-43l1,-21h-21l1,-11h-20l1,-11 -21,-4v-17l-20,-1 1,-20 -18,-1 -3,-14h21v-6l20,1v-5l15,4 4,8 7,-6 36,1v-21Z"/>
    <path data-fips-int="5121" data-name="Randolph County" d="M754,25l4,6 -1,14h4v33l-10,2 -1,28 -45,1 -17,-2 -4,-9 -14,-7 -6,-7v-17l-9,-22h-9l-1,-12 -9,-5 105,-1Z"/>
    <path data-fips-int="5123" data-name="Saint Francis County" d="M813,346l20,-1 -1,58h-134v10l-3,-10h-7v-22h20v-34l19,-1Z"/>
    <path data-fips-int="5125" data-name="Saline County" d="M379,417l18,1 -1,20 20,1v17l21,4 -1,11h20l-1,11h21l-1,21 -30,-1v11l-38,-1 -4,9h-10l-3,-14h-11v-7h-11l-2,-21h-13v-11h-20l2,-32h-20v-21l45,1 11,4Z"/>
    <path data-fips-int="5127" data-name="Scott County" d="M109,355l-1,11h13v7l72,3 -2,65 -14,2 -7,5h-10l-2,11 -11,-1 1,-3 -17,-3 -60,-3 1,-7h-26l1,-49 16,-6 7,3 21,-4v-20l-4,-3Z"/>
    <path data-fips-int="5129" data-name="Searcy County" d="M444,131v21l-1,43h-41v18l-34,-2 -28,-1 2,-32 1,-50 -1,-10h21l1,10Z"/>
    <path data-fips-int="5131" data-name="Sebastian County" d="M123,273l-2,55h10l-2,18 -20,-1v10l-22,8 4,3v20l-21,4 -7,-3 -16,6 4,-45 3,-65 5,-11 12,6 4,15 21,1 6,-8 10,-2 -5,-11Z"/>
    <path data-fips-int="5133" data-name="Sevier County" d="M138,675l-17,-1 1,-6 -12,-3h-17l-18,-11 -4,-5 -17,-10 -4,-7 -13,-4 3,-59h44l29,1 3,16 -2,12 4,15v23l3,7 15,18Z"/>
    <path data-fips-int="5135" data-name="Sharp County" d="M636,28l9,5 1,12h9l9,22v17l-17,7 -1,80h-20v-11l-47,-2v-12h5v-39l2,-11 -4,-10 24,1v-21h20l1,-38Z"/>
    <path data-fips-int="5137" data-name="Stone County" d="M552,178l-4,21 6,6v11l-6,-1 -71,-1 -34,-1v-18l1,-43h20l1,-20h20l1,-18 1,7 8,-3 7,14 9,4 -7,8 1,19 12,-3 2,6 10,-6 15,14Z"/>
    <path data-fips-int="5139" data-name="Union County" d="M412,769l6,3 1,7 11,-1 5,12h14l5,-5 8,9 17,2 3,12 14,10 7,3 -6,9 5,18 8,5h-89l-3,-1h-87l-3,-1 1,-54 2,-31 40,1 29,3Z"/>
    <path data-fips-int="5141" data-name="Van Buren County" d="M443,195v18l34,1 -3,82 -43,-1v-21l-72,-1v-21l8,1 1,-42 34,2v-18Z"/>
    <path data-fips-int="5143" data-name="Washington County" d="M146,199l-32,-1v2l-70,-2 -4,-35 -5,-47 29,2 2,-10 11,-1v-17l69,4 -2,-5 18,-1 -11,33 -2,58Z"/>
    <path data-fips-int="5145" data-name="White County" d="M604,256v22h45l-15,16 -3,17 6,-1v9l7,12 -10,5v14l-8,11h-22v15l-26,-8 -16,7 -15,2 -31,-12 -16,2 2,-71 49,2 1,-19 11,-5v-18Z"/>
    <path data-fips-int="5147" data-name="Woodruff County" d="M708,298v83h-37l-10,4 -1,18h-15l1,-34h-18l-2,-8 8,-11v-14l10,-5 -7,-12v-9l-6,1 3,-17 15,-16 18,-2v22Z"/>
    <path data-fips-int="5149" data-name="Yell County" d="M350,342l-27,13 -1,8 -13,10 -11,15 -22,16 -4,10v21h-20v7l-61,-1 2,-65v-28l8,-3 26,1 14,-16 35,1v-25l7,11h8l8,8 7,16 9,-3 -3,12 8,4 4,-10 16,-4Z"/>
    <path data-fips-int="5013" data-name="Calhoun County" d="M458,688l3,57 -11,22 -1,9 5,9 -5,5h-14l-5,-12 -11,1 -1,-7 -6,-3 -4,-8 -12,1 -1,-9h-11l-2,-12 -9,-2v-11l10,-3 1,-11 -5,-3 2,-10 14,-2 8,-10 6,-7v-17l49,3Z"/>
  </g>
  <path class="mesh" d="M510,853l-8,-5 -5,-18 6,-9 -7,-3 5,-15 12,-7 2,-6 13,-6 -1,-10 3,-9 -4,-3 105,1v90M494,28l-1,56 -1,21 -10,-1 4,10 -1,18h-20l-1,20h-20v-21l1,-17 -13,-16v-13l-14,-2 5,-9 -10,-5 9,-6 -11,-4 10,-5 1,-26M167,24v24l-6,5 16,18 -11,-2v19h-4l-18,1 2,5 -69,-4v17l-11,1 -2,10 -29,-2M360,28l-6,1v14l-1,75h-11l-67,-2 1,-89M496,818l-14,-10 -3,-12 -17,-2 -8,-9 -5,-9 1,-9 11,-22 -3,-57 6,1h64v42h-6l4,31M275,116l-35,-2h-14l-12,-18v-13l-8,-12h-29M631,763v-40l21,-1 5,11h16l3,-10M869,94l-26,1v-13l-92,-2 10,-2v-33h-4l1,-14 -4,-6M458,688v-20l-2,-11 -10,-10 -5,-14 -10,-7 1,-20 25,-1 20,-2h55v22h-4v64M228,850l2,-55 8,-2 1,-7 15,-38 26,2 2,-2h21l-1,17 29,1 -2,31 -1,54M851,143l2,70h-145v-41l32,1 2,-21h88l4,-8M44,198l70,2v-2l32,1 10,1v7l-12,-1 -3,17h-17l-1,20h11l-11,30h-16l5,11 -10,2 -6,8 -21,-1 -4,-15 -12,-6 -5,11M833,419l-1,-16 1,-58 -20,1 -1,-8v-63l42,1h27M813,346h-86l-19,1v-71l83,-2 21,1M350,582l41,1 36,2 17,7 10,11 3,2M458,668l-49,-3 -61,-1M697,590h31M528,668h65l17,2M502,296l-2,71v12h-21v21l-36,-1 -7,6 -4,-8 -15,-4 -9,-7v-7l9,-8 -1,-15M431,295l-1,22 -10,12 6,12v9l-10,6 -18,8 4,-8 -12,9 -68,-2 1,-8 27,-13 8,-1 1,-68 72,1v21l43,1M156,200l2,-3 40,1 -5,94 -9,1 -9,-14 -1,27 -21,-2 -1,21 -21,-1v4h-10l2,-55M627,28l-1,38h-20v21l-24,-1 -89,-2M417,393v5l-20,-1v6h-21l3,14 -8,3 -11,-4 -45,-1v21h20l-2,32h20v11h13l2,21 -23,-1v14h-7v14l-60,-3h-29l1,-62 2,-20v-7h20l43,1M391,583l2,-32v-30h10l4,-9 38,1v-11l30,1h8l-1,62h-5v38M742,152l2,-4 -2,-5 6,-18 6,-2 8,-15h-12l1,-28M368,500h11v7h11l3,14M248,538h10v13l31,2v6l32,3 -2,20h31l-1,41 -12,-1 9,31 6,4 -4,7 -4,-2 -16,10 -22,-1 -7,-8 -8,2 -7,-7h-8l-9,-9 2,-6 -15,-15 1,-2 -13,-19 -4,-34 -8,-6 4,-9 1,-21 13,1 1,-14M37,628l13,4 4,7 17,10 4,5 18,11h17l12,3 -1,6 17,1 -2,-14 -15,-18 -3,-7v-23l-4,-15 2,-12 -3,-16 -29,-1 -1,-38 61,2v20l3,1 -1,17 21,2 -1,41M554,216l10,-2 -1,42v18l-11,5 -1,19 -49,-2h-28l3,-82 71,1 6,1v-11l-6,-6 4,-21 18,-20h9l47,2v11h51l-8,17 -17,17 -6,11 7,15h-8v27l-41,-2h-41M582,86l4,10 -2,11v39h-5v12M552,178l-8,-4 -15,-14 -10,6 -2,-6 -12,3 -1,-19 7,-8 -9,-4 -7,-14 -8,3 -1,-7M708,213v63M708,298h-41v-22l-18,2h-45v-22M677,171l31,1M632,600l-12,2 -5,-7 -10,3 -5,-4 5,-6 -12,-1 -16,-9v25l-4,-6 -41,1v5M198,198l33,2v7l24,1 44,1 -1,31h-10l-2,30h-12l-2,33 -19,-1 -7,-22 -11,6 -5,-3 -14,7 -14,-6 -9,8M231,742v6h23M165,848l-11,-16 5,-14 23,-8 -4,-5 11,-17 -3,-15 2,-8 -7,-10 2,-16M646,171l1,-80 17,-7 6,7 14,7 4,9 17,2 45,-1M800,465l-47,1 -45,-1v-21h-10v-41h134M163,709l-7,-1 -6,9 -8,-2 -2,8 -6,-8 -1,11 -6,-7 -6,3M272,303l4,3v25l-35,-1 -14,16 -26,-1 -8,3v28l-72,-3v-7h-13l1,-11v-10l20,1 2,-18M500,367l16,-2 31,12 15,-2v25l21,2 -1,57 10,10 -3,12 6,9 -8,8v7h16v-20h42l17,1 7,17 9,1 -2,9 11,2 11,20 10,3 -3,33h-3l1,14 -6,5 -11,6 -5,11 13,21 -15,1 -6,-6 -5,6 -19,-1 7,-10 -13,5 -6,-8M518,503v-30l-16,-1 3,-20 4,-5v-68h-9M240,114l-1,11h7l-1,27 -10,10 -4,10v28M146,199l3,-20 2,-58 11,-33M444,131l-80,-3 -1,-10h-10M854,276l-1,-63M645,485v-7l-14,-3v-14h14v-38l4,-12 -4,-8h15l1,-18 10,-4h17v22h7l3,10M708,465v42h11v31h-11M235,537l-91,-4 3,-47v-28l11,1 2,-11h10l7,-5 14,-2 61,1M306,671l-1,46 -2,31M238,628l-1,31 -3,5 -3,78 -48,-3 -9,-4 -11,-16v-10l-17,-13 -10,-1v-17l2,-3 25,1 3,-62 14,1 13,6 30,7h31M342,118l1,10 -1,50 -2,32 -41,-1M483,503h35l63,2h6M409,665v17l-6,7 -8,10 -14,2 -2,10 5,3 -1,11 -10,3v11l9,2 2,12h11l1,9 12,-1 4,8 -12,1 -29,-3 -40,-1M272,435v-21l4,-10 22,-16 11,-15 13,-10M84,569h-44M46,442h26l-1,7 60,3 17,3 -1,3M340,210l28,1 -1,42 -8,-1v21M350,342l-10,-2 -16,4 -4,10 -8,-4 3,-12 -9,3 -7,-16 -8,-8h-8l-7,-11M562,375l16,-7 26,8v-15h22l2,8h18l-1,34M475,503l1,-21h-21l1,-11h-20l1,-11 -21,-4v-17l-20,-1 1,-20 -18,-1M664,84v-17l-9,-22h-9l-1,-12 -9,-5M688,381h20v-34M193,376l-2,65M47,393l16,-6 7,3 21,-4v-20l-4,-3 22,-8M444,152l-1,43h-41v18l-34,-2M477,214l-34,-1v-18M412,769l6,3 1,7 11,-1 5,12h14l5,-5M649,278l-15,16 -3,17 6,-1v9l7,12 -10,5v14l-8,11M631,723l1,-52 -22,-1 2,-47 16,2v-7l9,-3 -5,-15 -2,-13 -8,1 -6,-11v-9l-14,-4h-22l1,-59"/>
  <g class="cities">
    <circle r="7" cx="467" cy="443"/>
    <text x="467" y="443">Little Rock</text>
    <circle r="7" cx="61" cy="287"/>
    <text x="61" y="287">Fort Smith</text>
    <circle r="7" cx="111" cy="128"/>
    <text x="111" y="128">Fayetteville</text>
  </g>
</svg>