<?xml version="1.0" encoding="utf-8"?>
<!DOCTYPE svg PUBLIC "-//W3C//DTD SVG 1.1//EN" "http://www.w3.org/Graphics/SVG/1.1/DTD/svg11.dtd">
<svg version="1.1" xmlns="http://www.w3.org/2000/svg" width="350" height="307" viewBox="0 0 350 307">
  <g class="counties" transform="scale(0.1)">
    <path data-fips-int="5001" data-name="Arkansas County" d="M2257,1700l60,1 -6,25 27,5 -3,19 9,0 -2,11 10,1 7,7 7,-6 7,6 -9,12 11,7 -9,2 3,11 9,-4 7,5 11,-10 4,15 8,0 2,13 -6,6 10,7 10,0 4,17 17,12 -3,9 11,9 12,0 14,6 3,18 -6,8 2,13 -10,-4 -4,11 2,10 7,3 0,12 -8,4 8,6 0,13 4,5 -5,4 -5,14 -9,-4 -4,21 8,13 -5,4 5,12 -10,1 0,8 -8,-2 -6,11 -2,10 -14,-4 -5,6 1,16 -11,-7 -15,10 -1,17 -6,8 1,14 8,5 -1,9 11,3 9,17 -1,13 6,2 11,13 -4,11 -8,7 -7,-5 -2,-9 -8,-4 -12,5 -13,-2 0,-9 -7,-8 -8,0 -12,17 -8,-1 -4,-10 -9,-3 -16,11 -30,5 -6,-5 8,-9 9,-2 9,-12 -5,-13 -13,0 -20,19 -9,3 -8,-16 -15,-13 -10,-8 -2,-10 3,-17 -8,-20 9,-6 -5,-4 -2,-17 -7,-17 -18,-1 -10,6 -1,-16 -14,4 -4,-18 4,-6 -10,-9 2,-8 -2,-20 -7,-7 -15,-1 -11,3 -9,8 -5,-3 3,-10 -10,-2 -71,-2 2,-74 0,-78 2,-54 18,0 46,2 10,-1 1,-72Z"/>
    <path data-fips-int="5003" data-name="Ashley County" d="M2209,2674l0,56 0,163 0,6 0,92 -362,0 -61,0 -6,-7 -2,-12 -16,1 -8,-15 5,-3 -4,-16 -10,0 -6,-23 6,-17 7,0 4,-13 -4,-9 8,1 -2,-11 -19,-4 5,-14 -5,-7 6,-17 10,1 0,-12 7,3 12,-7 -2,-7 14,-5 -3,-8 21,-6 -3,-5 8,-6 -4,-4 8,-6 4,7 17,-10 -6,-9 6,-5 13,5 4,-7 0,-18 -9,-17 6,2 9,-9 -2,-9 5,-12 -17,-4 -2,-9 82,1 71,2 50,0 50,1 66,0Z"/>
    <path data-fips-int="5005" data-name="Baxter County" d="M1731,98l-1,77 -1,40 -2,20 -2,48 2,13 -3,72 -36,-1 -1,34 14,1 -2,61 -72,-2 -2,72 -71,-1 2,-73 2,-59 -12,0 0,-12 12,-1 -2,-10 -12,-5 -9,4 -17,-14 -8,-16 13,-17 -10,-5 3,-23 -16,-2 -16,-9 -12,5 -7,-5 16,-19 -1,-10 -17,-10 -16,6 3,-13 9,-11 15,6 2,-18 -29,7 -8,-2 -4,-11 27,-18 2,-6 11,0 3,-52 0,-41 69,1 159,0Z"/>
    <path data-fips-int="5007" data-name="Benton County" d="M587,88l-1,78 2,6 -10,-1 -9,7 -2,10 3,6 17,10 3,15 12,13 6,3 2,8 8,5 -35,0 -1,59 -13,0 -36,-1 -10,3 -1,8 -7,-7 -4,5 1,17 -7,-8 -16,-2 6,-7 -4,-6 -14,6 5,13 -145,-7 -66,-3 -3,60 -36,-1 -1,36 -108,-5 -8,-65 -11,-96 -8,-85 -9,-84 74,1 116,2 138,5 62,0Z"/>
    <path data-fips-int="5009" data-name="Boone County" d="M1262,97l0,28 -12,-8 -9,-14 -1,53 -1,26 -1,53 -1,11 0,90 -2,79 -36,0 -36,-2 -48,-1 -10,-2 -37,1 -107,-4 0,-26 2,-74 3,-97 1,-115 69,0 97,2Z"/>
    <path data-fips-int="5011" data-name="Bradley County" d="M1851,2414l-1,13 0,106 1,26 -23,0 6,14 1,10 -7,11 6,11 -10,14 1,8 15,9 -7,17 8,15 2,9 17,4 -5,12 2,9 -9,9 -6,-2 9,17 0,18 -4,7 -13,-5 -6,5 6,9 -17,10 -4,-7 -8,6 4,4 -8,6 3,5 -21,6 3,8 -14,5 2,7 -12,7 -7,-3 0,12 -10,-1 -6,17 5,7 -5,14 -16,-5 -8,-18 -6,1 2,-12 -2,-8 -11,10 -17,-6 0,-11 7,-2 -16,-8 7,-9 0,-8 -10,-3 -6,6 -6,-5 -9,1 0,-8 -17,0 0,-12 -10,12 -13,2 -1,-14 -7,3 -14,-5 6,-14 -3,-6 -15,-6 -3,-10 1,-28 5,-7 -3,-8 10,-1 9,-26 5,-4 2,-17 7,-8 0,-12 6,-10 -2,-12 6,-6 0,-18 -6,-9 4,-13 -1,-19 -5,-6 3,-14 -5,-13 0,-11 6,-11 -4,-28 4,-11 -7,-25 30,2 64,1Z"/>
    <path data-fips-int="5015" data-name="Carroll County" d="M967,95l-1,115 -3,97 -2,74 0,26 -120,-5 -48,-1 1,-24 -23,-1 0,-26 -18,-1 1,-11 -7,0 3,-48 -15,-9 6,-8 -6,-3 -15,6 4,-8 0,-15 -62,-2 -44,-3 -8,-5 -2,-8 -6,-3 -12,-13 -3,-15 -17,-10 -3,-6 2,-10 9,-7 10,1 -2,-6 1,-78 106,1 33,2 113,1Z"/>
    <path data-fips-int="5017" data-name="Chicot County" d="M2365,2530l-1,6 8,17 25,20 2,9 -10,9 -8,16 -16,10 -3,14 16,5 24,-8 6,-9 -5,-28 7,-9 24,16 10,15 0,10 -10,15 -30,11 -18,0 -5,10 13,13 16,8 14,1 19,-9 15,-17 3,-30 11,-9 10,2 4,6 -1,18 -12,17 -11,8 -23,29 -9,7 -2,18 1,26 11,16 -2,8 6,5 7,14 7,7 14,-37 9,-4 10,2 6,12 -4,16 -23,25 -6,0 8,36 -4,31 -11,7 -17,3 -16,-2 -9,-10 -19,4 -8,11 1,14 14,8 7,9 14,5 18,14 4,7 -4,16 -25,14 -3,13 -144,0 -61,0 0,-92 0,-6 0,-163 0,-56 2,-145 72,0 0,36 3,-11 9,0 6,12 54,0 1,-36Z"/>
    <path data-fips-int="5019" data-name="Clark County" d="M870,1882l36,1 -2,49 109,4 -1,24 75,3 6,8 32,-1 -3,9 7,12 0,9 -6,5 -4,12 1,20 7,-4 56,4 43,1 -4,77 -2,66 -38,-3 -9,11 10,10 3,-6 9,17 -4,13 19,13 0,8 8,1 -12,11 7,9 -3,16 12,3 8,11 0,7 -11,2 3,9 -8,7 4,5 -8,-2 -7,-7 -17,8 -2,8 -19,11 -15,4 0,4 -31,5 -22,-15 -11,10 -13,0 -16,-13 0,-6 -8,-14 -4,6 -8,-4 -15,11 -6,-11 -14,-8 -8,1 -10,-8 -16,1 -5,-8 -16,-4 -7,-10 -5,-22 6,-8 -9,-12 -6,0 -4,-10 -7,2 -4,-17 -6,2 -15,-20 -4,-12 0,-13 -9,-12 -8,-3 -6,-24 -13,-11 -2,-19 -6,-30 1,-12 -8,-8 -2,-11 6,4 5,-7 -7,-7 0,-18 5,-3 -8,-9 7,-5 -8,-7 -21,-2 -7,-5 0,-32 15,0 2,-73Z"/>
    <path data-fips-int="5021" data-name="Clay County" d="M3041,332l-87,3 0,-49 -42,1 -93,0 -46,-2 -100,-2 -45,2 0,-18 16,3 10,-2 11,3 0,-105 -15,-3 6,-11 -10,1 6,-5 -8,-6 4,-7 4,-24 -12,-18 185,-3 76,-2 85,0 73,-2 -2,15 11,4 6,32 -6,5 6,14 13,6 25,4 6,6 5,18 -2,10 -7,9 2,11 -5,11 12,15 -9,11 2,8 -6,7 -19,6 -8,30 -11,2 -9,12 -4,-1Z"/>
    <path data-fips-int="5023" data-name="Cleburne County" d="M1941,756l20,0 12,-6 0,71 -2,76 -2,65 -16,6 -6,-4 -6,12 -8,3 -1,64 -55,-1 -59,0 -61,-2 -96,-1 2,-43 1,-97 3,-7 1,-72 1,-9 1,-61 65,3 105,2Z"/>
    <path data-fips-int="5025" data-name="Cleveland County" d="M1850,2341l1,73 -151,0 -64,-1 -30,-2 -4,-16 -2,-22 7,-15 -3,-19 -5,-38 -8,-10 -19,-13 -10,-13 -4,-24 -14,-22 -10,-6 -10,-11 -4,-10 -13,0 3,-70 32,-1 61,-1 70,-2 57,-2 112,0 24,0 0,72 -16,0 0,21Z"/>
    <path data-fips-int="5027" data-name="Columbia County" d="M1063,2619l-3,60 97,3 -4,108 0,51 -4,104 -1,36 -118,-2 -163,-2 -68,-1 4,-88 3,-79 2,-33 27,2 7,-14 -2,-12 9,-8 -2,-14 22,-62 -1,-6 22,-38 100,5 0,-12Z"/>
    <path data-fips-int="5029" data-name="Conway County" d="M1507,1035l-3,77 -6,8 -14,7 8,9 -6,1 -2,10 -9,2 4,8 -4,9 -1,17 20,13 -4,30 -7,6 -3,12 -10,1 -5,-9 -8,10 -11,0 -22,24 -7,4 -22,3 4,-10 11,-6 0,-12 -10,-1 -7,5 -20,22 -15,4 -51,1 -101,-4 -79,-2 10,-11 -1,-7 -9,-9 15,-7 7,3 18,-1 2,-13 16,-7 5,-8 18,-16 18,-1 28,-1 2,-147 2,-94 38,1 81,3 46,1 26,1 59,1Z"/>
    <path data-fips-int="5031" data-name="Craighead County" d="M2984,749l-81,0 -63,-3 -68,3 -76,0 -58,1 -118,0 -41,-1 1,-24 0,-95 1,-27 59,2 49,0 0,-36 6,1 0,-27 6,-10 123,0 0,-1 95,0 64,0 29,-1 0,-19 6,-7 60,-1 4,94 1,55 0,52Z"/>
    <path data-fips-int="5033" data-name="Crawford County" d="M432,959l-6,2 -28,-7 -10,-4 -15,14 1,8 13,13 4,12 -5,15 -18,1 -14,-9 -6,6 -4,17 -16,5 -11,-2 -16,1 -10,-4 -11,8 -16,-7 -3,-11 -12,-10 -2,-10 4,-9 -2,-10 -27,-26 -15,-1 -6,17 -6,-1 0,15 -5,12 -11,-80 -7,-79 -12,-99 -5,-43 168,8 79,4 2,-11 108,5 35,1 13,1 -1,12 -12,-1 -1,13 -35,-2 -1,23 -12,0 -2,36 -60,-3 -3,72 36,2 -1,14 -8,4 -4,18 7,19 -14,11 6,10 -9,7 18,11 -12,1Z"/>
    <path data-fips-int="5035" data-name="Crittenden County" d="M2988,966l93,-1 4,2 -17,11 -7,33 11,6 19,-2 -4,-8 -2,-15 8,-8 14,4 12,13 12,6 -10,22 -12,14 5,21 -4,10 -21,6 -6,-4 -10,6 -3,14 12,19 7,3 25,-2 6,4 15,22 -10,9 -4,14 -8,-3 -7,4 7,21 10,9 17,3 2,11 -11,15 -14,1 -17,-7 -11,-1 -17,10 -15,49 -2,20 -10,9 -34,-7 -2,-4 -21,0 -9,26 0,12 9,16 34,25 4,12 -2,15 -9,14 -34,17 5,15 -7,11 -19,-12 -8,6 -18,5 -20,12 0,-59 -2,-82 4,0 0,-41 0,-79 -44,3 -25,1 0,-29 -4,0 0,-172 -1,-46Z"/>
    <path data-fips-int="5037" data-name="Cross County" d="M2842,965l1,46 0,172 4,0 0,29 -28,0 -103,0 -103,-1 -59,1 -7,2 -66,0 0,-86 0,-39 0,-46 -1,-74 80,0 62,-4 70,0 6,-4 71,0 0,6Z"/>
    <path data-fips-int="5039" data-name="Dallas County" d="M1368,2044l94,3 32,2 2,9 16,0 14,9 15,-1 10,9 4,-2 22,25 -1,9 15,3 12,10 -61,1 -32,1 -3,70 13,0 4,10 10,11 10,6 14,22 4,24 10,13 19,13 8,10 5,38 -26,-2 -146,-4 -163,-6 -51,-2 -4,-5 8,-7 -3,-9 11,-2 0,-7 -8,-11 -12,-3 3,-16 -7,-9 12,-11 -8,-1 0,-8 -19,-13 4,-13 -9,-17 -3,6 -10,-10 9,-11 38,3 2,-66 4,-77 46,4Z"/>
    <path data-fips-int="5041" data-name="Desha County" d="M2550,2066l8,9 17,12 18,-4 11,3 3,15 -9,15 -1,23 -6,5 -29,3 -24,0 -9,3 5,17 13,14 -2,11 -7,5 -16,-3 -13,-30 -19,14 -20,0 -9,8 -2,11 7,7 19,3 19,11 4,16 -11,14 -20,22 -5,14 3,12 15,22 16,8 16,5 8,9 -7,16 -16,5 -21,-13 -24,3 -13,5 -14,-10 -5,0 -7,11 0,35 10,12 9,6 14,0 20,-10 17,12 10,17 -4,8 -29,12 -10,0 -28,-14 -20,-26 -36,8 -9,10 -1,12 6,8 23,6 11,5 25,21 4,12 -2,10 -13,11 -17,0 -17,10 -16,2 -5,6 -9,0 -1,36 -54,0 -6,-12 -9,0 -3,11 0,-36 -72,0 0,-112 1,-67 -48,0 -26,-2 1,-55 5,-89 0,-16 57,0 0,-24 14,0 0,4 16,1 0,-13 15,13 8,16 9,-3 20,-19 13,0 5,13 -9,12 -9,2 -8,9 6,5 30,-5 16,-11 9,3 4,10 8,1 12,-17 8,0 7,8 0,9 13,2 12,-5 8,4 2,9 7,5 8,-7 4,-11 -11,-13 -6,-2 1,-13 -9,-17 -11,-3 1,-9 -8,-5 -1,-14 6,-8 1,-17 15,-10 11,7 -1,-16 5,-6 14,4 2,-10 25,-1Z"/>
    <path data-fips-int="5043" data-name="Drew County" d="M2138,2348l26,2 48,0 -1,67 0,112 -2,145 -49,-2 -66,0 -50,-1 -50,0 -71,-2 -82,-1 -8,-15 7,-17 -15,-9 -1,-8 10,-14 -6,-11 7,-11 -1,-10 -6,-14 23,0 -1,-26 0,-106 1,-13 -1,-73 143,0 72,0Z"/>
    <path data-fips-int="5045" data-name="Faulkner County" d="M1661,1039l96,1 -1,34 -1,66 -2,86 -2,59 -1,45 -72,-2 -1,73 -129,-4 2,12 -22,11 0,16 4,13 -4,9 8,13 -14,-10 -4,-8 8,-28 -14,-38 -18,-8 -18,2 -13,-2 -22,-11 -12,-17 -2,-12 11,-19 20,-16 8,-23 0,-14 -9,-21 8,-10 5,9 10,-1 3,-12 7,-6 4,-30 -20,-13 1,-17 4,-9 -4,-8 9,-2 2,-10 6,-1 -8,-9 14,-7 6,-8 3,-77 36,0 55,3Z"/>
    <path data-fips-int="5047" data-name="Franklin County" d="M692,696l-7,163 -6,113 -2,49 -5,4 -23,4 -5,-9 -16,-13 -10,-14 -6,-17 -4,95 -71,-5 -4,74 -73,-3 -1,14 -11,0 -2,11 -11,0 1,-12 -13,-1 3,-62 0,-32 6,-96 20,-11 12,-1 -18,-11 9,-7 -6,-10 14,-11 -7,-19 4,-18 8,-4 1,-14 -36,-2 3,-72 60,3 2,-36 12,0 1,-23 35,2 1,-13 12,1 1,-12 -13,-1 0,-11 24,0 97,5Z"/>
    <path data-fips-int="5049" data-name="Fulton County" d="M2197,98l-1,34 -1,101 -30,-1 -44,0 0,72 -47,-2 -37,0 -96,-2 -90,-1 -124,-3 -2,-13 2,-48 2,-20 1,-40 1,-77 203,0 85,-1 151,0Z"/>
    <path data-fips-int="5051" data-name="Garland County" d="M1101,1527l72,0 -1,72 -6,0 -1,40 71,2 -1,37 47,0 -1,24 12,1 -1,47 -84,-2 0,47 -22,0 -1,49 -60,-1 -35,-2 -80,-1 -21,-2 -46,-1 -47,-2 -25,0 2,-86 2,-17 1,-74 2,-62 5,-1 1,-47 0,-24 72,0 24,1Z"/>
    <path data-fips-int="5053" data-name="Grant County" d="M1665,1760l26,1 -1,110 -1,34 -2,73 -13,0 0,114 -1,26 -70,2 -12,-10 -15,-3 1,-9 -22,-25 -4,2 -10,-9 -15,1 -14,-9 -16,0 -2,-9 -32,-2 -94,-3 2,-74 2,0 4,-145 35,0 -4,-10 8,-3 16,-21 126,4 1,-37Z"/>
    <path data-fips-int="5055" data-name="Greene County" d="M3041,332l-13,16 -6,-1 -9,20 2,11 -16,19 -27,10 -3,12 -13,7 0,13 -8,6 -2,17 -9,7 -1,10 -18,26 -6,7 0,19 -29,1 -64,0 -95,0 0,1 -123,0 8,-9 -12,-10 1,-9 13,-19 -2,-12 9,-14 4,-20 19,-11 3,-9 10,-4 -2,-13 17,-21 -42,0 1,-97 45,-2 100,2 46,2 93,0 42,-1 0,49Z"/>
    <path data-fips-int="5057" data-name="Hempstead County" d="M731,2192 12,4 13,-1 16,8 10,-2 0,7 21,0 10,-8 20,-5 0,4 -4,109 -8,0 -4,81 -1,52 -3,67 -4,89 -96,-4 -69,-3 -9,-15 -13,-13 9,-10 -3,-5 -13,15 6,11 -11,3 -4,-22 -12,-13 8,-6 -2,-8 -5,10 -8,2 7,-10 -3,-9 -18,-3 8,-16 2,-15 -9,-4 -9,-5 -10,2 -4,-11 -12,-6 -6,5 -4,-10 -17,8 8,-10 1,-9 -10,-11 -9,2 1,8 -10,4 -1,-8 -13,-9 2,-11 -3,-17 11,-4 -3,-6 2,-11 -8,11 -3,-11 7,-9 1,-10 88,4 6,-163 3,-53 50,3 19,9 15,1 12,10 25,1 0,3 25,17Z"/>
    <path data-fips-int="5059" data-name="Hot Spring County" d="M1292,1750l37,1 0,25 36,0 -2,48 13,1 -4,145 -2,0 -2,74 -96,-2 -46,-4 -43,-1 -56,-4 -7,4 -1,-20 4,-12 6,-5 0,-9 -7,-12 3,-9 -32,1 -6,-8 -75,-3 1,-24 -109,-4 2,-49 -36,-1 1,-47 25,0 47,2 46,1 21,2 80,1 35,2 60,1 1,-49 22,0 0,-47Z"/>
    <path data-fips-int="5061" data-name="Howard County" d="M509,1868l-1,72 8,0 -2,64 39,1 33,2 -3,86 -1,59 -3,53 -6,163 -88,-4 -8,-13 8,-8 -4,-14 -9,-20 -7,-2 -9,-18 -11,-8 1,-16 -22,-11 -14,-40 5,-12 -1,-12 4,0 0,-10 -6,-25 -11,-27 3,-10 -2,-10 8,-4 -10,-15 5,-18 -7,-8 8,-11 -15,-8 7,-17 -6,-3 9,-22 -5,-4 -56,-3 -44,0 1,-64 -8,0 2,-72 39,2 28,2 40,1 67,2Z"/>
    <path data-fips-int="5063" data-name="Independence County" d="M2263,600l107,0 -12,6 1,13 -12,27 -11,1 12,7 -20,18 8,5 -15,6 -6,-1 -5,9 4,7 -6,6 -12,-1 -1,8 -15,14 4,4 -7,19 -3,-6 -7,8 -1,14 5,4 0,20 7,1 -1,10 11,10 -19,2 -12,-2 0,93 -93,0 -50,-2 -49,-2 -61,-1 -33,0 2,-76 0,-71 -12,6 -20,0 1,-36 -11,-13 -9,-6 -3,-36 14,-25 0,-19 64,-62 29,1 42,1 123,2 0,36Z"/>
    <path data-fips-int="5065" data-name="Izard County" d="M2037,302l0,36 12,0 0,32 -4,5 0,117 -6,4 5,15 -17,0 -1,49 -29,-1 -64,62 -10,-11 -17,1 -31,-26 -16,-20 -16,-2 -11,14 -14,4 -5,-4 -3,-16 -10,-2 -18,13 -20,-1 -6,-9 4,-12 15,-12 -1,-16 -8,-11 0,-10 6,-7 18,-4 4,-6 -12,-14 -10,-7 -10,0 -8,-6 -17,-40 -8,-1 -10,10 -16,-3 1,-15 -3,-6 -14,-1 1,-34 36,1 3,-72 124,3 90,1Z"/>
    <path data-fips-int="5067" data-name="Jackson County" d="M2481,603l-1,27 0,95 -1,24 0,134 1,1 0,85 1,74 -69,-1 -74,0 -2,-74 -64,2 1,5 -90,0 -71,-2 2,-73 50,2 93,0 0,-93 12,2 19,-2 -11,-10 1,-10 -7,-1 0,-20 -5,-4 1,-14 7,-8 3,6 7,-19 -4,-4 15,-14 1,-8 12,1 6,-6 -4,-7 5,-9 6,1 15,-6 -8,-5 20,-18 -12,-7 11,-1 12,-27 -1,-13 12,-6 50,0Z"/>
    <path data-fips-int="5069" data-name="Jefferson County" d="M1812,1764l75,0 84,4 64,1 -2,54 0,78 -2,74 71,2 10,2 -3,10 5,3 9,-8 11,-3 15,1 7,7 2,20 -2,8 10,9 -4,6 4,18 14,-4 1,16 10,-6 18,1 7,17 2,17 5,4 -9,6 -9,-8 -22,12 -14,-1 -16,-19 -17,-5 -20,17 -13,-2 -2,-12 3,-11 16,-8 -5,-6 -16,4 -5,-5 -16,-1 -20,-19 -23,-13 -14,1 0,90 -12,0 0,-24 -44,-1 -14,1 -85,1 0,24 -24,0 -112,0 -57,2 1,-26 0,-114 13,0 2,-73 1,-34 1,-110Z"/>
    <path data-fips-int="5071" data-name="Johnson County" d="M692,696l81,4 38,1 -1,24 31,1 67,4 49,0 68,2 24,1 -2,60 -2,49 -35,-2 -2,60 -2,48 -48,-1 -4,117 -24,-10 -15,6 -17,2 -15,-9 1,-21 -9,-10 -8,-20 0,-14 -7,-6 -19,4 -14,17 -13,2 -5,-9 -9,-3 -11,10 -15,7 -28,8 -12,-1 -13,-6 -10,-13 -7,-2 -8,19 -7,5 -12,1 2,-49 6,-113Z"/>
    <path data-fips-int="5073" data-name="Lafayette County" d="M809,2597l-1,24 82,3 -22,38 1,6 -22,62 2,14 -9,8 2,12 -7,14 -27,-2 -2,33 -3,79 -4,88 -103,-2 -115,-2 -3,-9 -13,-4 0,-21 -2,-6 -19,-18 4,-17 -1,-14 4,-16 7,-3 11,15 5,-3 -5,-15 16,-9 9,2 1,14 9,3 -2,-17 13,-2 14,9 0,-10 -15,-1 1,-14 6,0 3,10 8,2 6,-8 -11,-11 -4,-11 28,-13 4,-6 -17,6 -2,-8 19,-12 -3,-9 -16,-13 2,-9 9,-3 4,9 9,2 7,-7 2,-11 -11,-10 3,-8 13,-1 6,-4 0,-9 -10,-5 -15,2 -3,-12 8,-17 14,0 4,-6 -8,-5 -16,-3 -7,-13 -9,-8 -2,-7 14,-3 4,-8 -8,-4 -8,10 -10,2 1,-8 9,0 1,-6 -7,-12 10,-9 2,-10 69,3Z"/>
    <path data-fips-int="5075" data-name="Lawrence County" d="M2436,384 9,-1 -2,16 9,14 6,-3 -1,-20 14,-7 156,-1 42,0 -17,21 2,13 -10,4 -3,9 -19,11 -4,20 -9,14 2,12 -13,19 -1,9 12,10 -8,9 -6,10 0,27 -6,-1 0,36 -49,0 -59,-2 -61,-3 -50,0 -107,0 2,-98 2,-50 0,-65 -2,-8 1,-61 11,0 1,-11 47,1 2,-12 11,0 0,26 4,-14 7,14 18,3 7,11 19,5 11,19 2,10 14,10Z"/>
    <path data-fips-int="5077" data-name="Lee County" d="M2914,1410l0,59 -9,-1 -4,-7 -2,-25 -6,-10 -15,-5 -13,7 -2,16 19,33 -2,8 -10,13 4,16 11,20 0,14 -13,11 -21,0 -11,-5 -4,-16 13,-10 4,-8 -10,-24 -16,4 -6,10 6,33 -17,9 -2,10 15,17 17,4 28,-4 12,11 -2,12 -31,33 -14,6 -10,-4 -6,-7 2,-15 9,-11 0,-8 -13,-13 -15,11 -6,11 4,24 -28,1 -291,0 1,-73 -36,-1 0,-2 0,-107 0,-37 37,-1 64,4 60,-1 55,1 102,-2 112,0Z"/>
    <path data-fips-int="5079" data-name="Lincoln County" d="M2214,2101l8,20 -3,17 2,10 10,8 0,13 -16,-1 0,-4 -14,0 0,24 -57,0 0,16 -5,89 -1,55 -73,-7 -72,0 -143,0 0,-132 0,-21 16,0 0,-72 0,-24 85,-1 14,-1 44,1 0,24 12,0 0,-90 14,-1 23,13 20,19 16,1 5,5 16,-4 5,6 -16,8 -3,11 2,12 13,2 20,-17 17,5 16,19 14,1 22,-12Z"/>
    <path data-fips-int="5081" data-name="Little River County" d="M237,2268 -4,5 16,1 -2,17 7,4 -3,6 14,-6 9,10 10,-1 1,6 15,8 7,-10 3,6 18,-3 -1,21 13,-3 20,8 13,-9 24,8 32,1 -1,24 57,3 -1,10 -7,9 3,11 8,-11 -2,11 3,6 -11,4 3,17 -2,11 13,9 1,8 10,-4 -1,-8 9,-2 10,11 -1,9 -8,10 17,-8 4,10 6,-5 12,6 4,11 10,-2 9,5 -7,6 -11,-7 -11,3 -2,12 -16,3 -1,10 -11,0 -8,-6 -8,2 -6,9 5,13 -9,6 -10,-13 1,-12 -12,0 4,17 -5,16 -13,-3 6,-11 -5,-9 -9,0 -7,6 -16,4 -15,1 -6,-6 12,-6 -17,-9 -21,7 -32,1 -3,-7 3,-14 -22,1 -9,7 -10,1 3,12 -7,7 -15,1 -1,-11 9,-11 -1,-8 -6,-1 -14,9 -8,19 -12,-5 8,-10 -5,-7 -10,11 0,8 -13,9 -5,-4 -3,-14 -6,-3 -8,11 4,6 -6,8 -22,-2 -8,-7 0,-10 14,-3 -2,-12 -13,12 -13,-7 -4,-11 -15,-1 -15,-12 11,-9 -4,-13 10,-7 -8,-4 -3,4 -15,1 0,-39 8,-142 2,-24 1,-46 7,-3 12,14 12,-3 14,5 -5,-15 21,4 5,8 -10,11 6,1 -2,17 18,8 -7,7 23,-3 -1,12 5,7Z"/>
    <path data-fips-int="5083" data-name="Logan County" d="M677,1021l12,-1 7,-5 8,-19 7,2 10,13 13,6 12,1 28,-8 15,-7 11,-10 9,3 5,9 13,-2 14,-17 19,-4 7,6 0,14 8,20 9,10 -1,21 15,9 17,-2 15,-6 24,10 14,9 -2,86 -24,1 -96,-4 0,6 -11,-1 -7,6 -1,18 -6,5 -12,0 0,12 -12,-1 -1,13 -90,-4 0,12 -30,-1 -2,72 2,0 -1,23 -71,-2 -47,-3 -28,0 -44,-3 -59,-2 0,-23 -46,-2 2,-36 2,-37 73,4 2,-61 1,-14 73,3 4,-74 71,5 4,-95 6,17 10,14 16,13 5,9 23,-4Z"/>
    <path data-fips-int="5085" data-name="Lonoke County" d="M1842,1291 14,7 10,5 21,1 10,12 18,4 36,-6 16,1 -1,10 0,80 74,2 0,36 -2,78 -1,85 12,12 8,3 9,14 10,5 -6,29 -6,5 -3,14 22,15 -1,12 -28,28 -5,17 4,9 -18,0 -64,-1 -84,-4 -75,0 1,-110 -57,-1 10,-30 -2,-10 6,-35 10,-15 1,-88 2,-45 0,-57 1,-42 -34,-1 1,-45 21,2 9,-9 15,6 27,-7 7,11Z"/>
    <path data-fips-int="5087" data-name="Madison County" d="M618,248l44,3 62,2 0,15 -4,8 15,-6 6,3 -6,8 15,9 -3,48 7,0 -1,11 18,1 0,26 23,1 -1,24 48,1 -1,36 23,1 -2,23 -2,71 -12,0 0,12 -12,0 -1,23 -12,0 -1,36 -12,-1 -2,49 6,0 -2,49 -38,-1 -81,-4 -24,-2 -97,-5 -24,0 0,11 -35,-1 3,-60 6,0 4,-86 4,-124 14,-43 9,-26 17,-53 13,0 1,-59Z"/>
    <path data-fips-int="5089" data-name="Marion County" d="M1556,459l-53,0 -74,-2 -36,0 -31,-2 -67,-1 -25,-2 1,-36 -36,-1 2,-79 0,-90 1,-11 1,-53 1,-26 1,-53 9,14 12,8 0,-28 10,1 206,0 0,41 -3,52 -11,0 -2,6 -27,18 4,11 8,2 29,-7 -2,18 -15,-6 -9,11 -3,13 16,-6 17,10 1,10 -16,19 7,5 12,-5 16,9 16,2 -3,23 10,5 -13,17 8,16 17,14 9,-4 12,5 2,10 -12,1 0,12 12,0Z"/>
    <path data-fips-int="5091" data-name="Miller County" d="M644,2590l-2,10 -10,9 7,12 -1,6 -9,0 -1,8 10,-2 8,-10 8,4 -4,8 -14,3 2,7 9,8 7,13 16,3 8,5 -4,6 -14,0 -8,17 3,12 15,-2 10,5 0,9 -6,4 -13,1 -3,8 11,10 -2,11 -7,7 -9,-2 -4,-9 -9,3 -2,9 16,13 3,9 -19,12 2,8 17,-6 -4,6 -28,13 4,11 11,11 -6,8 -8,-2 -3,-10 -6,0 -1,14 15,1 0,10 -14,-9 -13,2 2,17 -9,-3 -1,-14 -9,-2 -16,9 5,15 -5,3 -11,-15 -7,3 -4,16 1,14 -4,17 19,18 2,6 0,21 13,4 3,9 -166,-3 7,-331 1,-110 16,-4 7,-6 9,0 5,9 -6,11 13,3 5,-16 -4,-17 12,0 -1,12 10,13 9,-6 -5,-13 6,-9 8,-2 8,6 11,0 1,-10 16,-3 2,-12 11,-3 11,7 7,-6 9,4 -2,15 -8,16 18,3 3,9 -7,10 8,-2 5,-10 2,8 -8,6 12,13 4,22 11,-3 -6,-11 13,-15 3,5 -9,10 13,13Z"/>
    <path data-fips-int="5093" data-name="Mississippi County" d="M3085,967l-4,-2 -93,1 0,-57 -2,-67 0,-60 -2,-33 -1,-44 0,-52 -1,-55 -4,-94 62,-2 131,-5 131,-3 66,-3 -5,4 -4,22 6,8 18,10 22,21 7,15 -2,7 -11,10 -15,-2 -17,-12 -21,-3 -12,12 -3,16 3,6 23,12 17,14 -3,11 -10,9 -12,3 -11,-5 -16,5 -9,10 -3,15 -14,17 -17,1 -7,8 -14,3 -4,-10 -15,-4 -17,10 -15,11 -3,10 3,28 12,18 9,10 17,4 8,-2 9,-12 6,-3 9,9 -3,23 -25,14 -12,-1 -21,13 -9,15 12,22 18,6 2,9 6,4 -4,12 -9,2 -18,-3 -5,-5 -2,-13 -12,-10 -13,-5 -21,6 -8,6 -7,24 5,22 18,22 -8,32 -6,3 -11,17 11,5 -9,6 -11,-15 5,-6 -6,-7 -3,-13 4,-21 -10,-11 -11,0 -12,7 -7,24Z"/>
    <path data-fips-int="5095" data-name="Monroe County" d="M2410,1335l-2,75 25,0 -1,37 12,0 0,107 0,2 36,1 -1,73 0,145 37,1 -1,32 0,78 -36,0 -14,-6 -12,0 -11,-9 3,-9 -17,-12 -4,-17 -10,0 -10,-7 6,-6 -2,-13 -8,0 -4,-15 -11,10 -7,-5 -9,4 -3,-11 9,-2 -11,-7 9,-12 -7,-6 -7,6 -7,-7 -10,-1 2,-11 -9,0 3,-19 -27,-5 6,-25 -60,-1 1,-24 -25,-1 1,-12 -25,0 0,-48 50,0 2,-131 -5,-7 3,-7 9,-4 -3,-18 14,-4 -14,-8 -6,-12 2,-13 51,0 1,-61 37,0 0,-16Z"/>
    <path data-fips-int="5097" data-name="Montgomery County" d="M669,1543l16,1 199,4 -1,47 -5,1 -2,62 -1,74 -2,17 -2,86 -1,47 -48,-2 -11,0 -83,-4 -38,-1 -49,-3 -60,0 -72,-4 2,-52 3,-87 3,-123 36,2 1,-21 5,0 0,-19 37,2 0,-5 24,0 0,-12 24,1 0,-12Z"/>
    <path data-fips-int="5099" data-name="Nevada County" d="M890,2199l15,20 6,-2 4,17 7,-2 4,10 6,0 9,12 -6,8 5,22 7,10 16,4 5,8 16,-1 10,8 8,-1 14,8 6,11 15,-11 8,4 4,-6 8,14 0,6 16,13 -2,43 -2,83 -6,126 0,16 -73,-2 0,12 -100,-5 -82,-3 1,-24 4,-89 3,-67 1,-52 4,-81 8,0 4,-109 18,0 8,4 20,0Z"/>
    <path data-fips-int="5101" data-name="Newton County" d="M961,407l107,4 37,-1 10,2 48,1 36,2 -1,35 5,0 -3,68 0,40 -4,107 -2,0 -2,73 -143,-5 -24,-1 -68,-2 -49,0 -67,-4 -31,-1 1,-24 2,-49 -6,0 2,-49 12,1 1,-36 12,0 1,-23 12,0 0,-12 12,0 2,-71 2,-23 -23,-1 1,-36Z"/>
    <path data-fips-int="5103" data-name="Ouachita County" d="M1218,2325l51,2 163,6 -3,57 -8,7 0,11 -10,5 -15,11 -13,25 -23,3 -13,7 -7,-5 -7,3 0,11 -8,11 7,12 8,4 3,20 -4,25 -8,-10 -16,16 -9,-8 -8,2 -1,11 13,5 -2,12 -8,4 8,7 -4,10 9,6 8,1 3,-9 15,10 -3,13 -5,-2 7,14 11,-3 -4,20 23,1 12,-4 13,17 2,14 10,-9 6,5 14,0 6,7 -2,9 5,10 5,-7 3,11 -21,-5 -1,10 -16,2 -18,-8 -8,10 -10,-1 -7,-8 -22,-3 -4,-12 -19,0 -8,-3 -13,12 -35,0 -55,-3 -48,-2 -97,-3 3,-60 0,-16 6,-126 2,-83 2,-43 13,0 11,-10 22,15 31,-5 0,-4 15,-4 19,-11 2,-8 17,-8 7,7Z"/>
    <path data-fips-int="5105" data-name="Perry County" d="M1457,1246l9,21 0,14 -8,23 -20,16 -11,19 2,12 12,17 22,11 -1,14 -70,-3 -1,24 -71,0 -1,46 11,1 -1,21 -9,-11 -20,1 -11,-8 -12,1 -8,-6 -88,-4 -78,0 -2,72 -121,-2 -24,-1 1,-73 -12,0 1,-12 11,0 1,-11 11,0 1,-12 12,0 0,-12 12,0 0,-11 12,0 0,-13 12,0 0,-12 12,0 1,-12 14,1 0,-12 12,0 1,-12 12,1 0,-13 12,2 1,-14 12,0 0,-11 12,0 0,-12 12,0 1,-12 7,0 79,2 101,4 51,-1 15,-4 20,-22 7,-5 10,1 0,12 -11,6 -4,10 22,-3 7,-4 22,-24Z"/>
    <path data-fips-int="5107" data-name="Phillips County" d="M2798,1629l-3,19 13,28 20,23 -1,11 -8,11 -17,14 -7,24 4,20 13,17 -2,15 -10,12 -26,17 -24,11 3,3 -8,19 7,17 -3,11 -12,2 -9,-8 0,-13 6,-12 4,-15 -28,6 -26,-3 -5,5 -2,13 15,18 2,14 -8,15 -11,8 -21,-2 -16,5 -5,8 -10,44 -22,-1 -14,-9 -3,-12 -11,-4 -12,10 2,14 13,17 20,12 19,-4 23,1 10,4 2,14 -12,18 -8,3 -15,-1 -14,-8 -10,-10 -10,-3 -4,5 -17,9 -8,10 -2,15 -87,0 -25,1 6,-11 8,2 0,-8 10,-1 -5,-12 5,-4 -8,-13 4,-21 9,4 5,-14 5,-4 -4,-5 0,-13 -8,-6 8,-4 0,-12 -7,-3 -2,-10 4,-11 10,4 -2,-13 6,-8 -3,-18 36,0 0,-78 1,-32 -37,-1 0,-145 291,0Z"/>
    <path data-fips-int="5109" data-name="Pike County" d="M822,1880l-2,73 -15,0 0,32 7,5 21,2 8,7 -7,5 8,9 -5,3 0,18 7,7 -5,7 -6,-4 2,11 8,8 -1,12 6,30 2,19 13,11 6,24 8,3 9,12 0,13 4,12 -11,4 -20,0 -8,-4 -18,0 0,-4 -20,5 -10,8 -21,0 0,-7 -10,2 -16,-8 -13,1 -12,-4 -3,4 -25,-17 0,-3 -25,-1 -12,-10 -15,-1 -19,-9 -50,-3 1,-59 3,-86 -33,-2 -39,-1 2,-64 -8,0 1,-72 72,4 60,0 49,3 38,1 83,4Z"/>
    <path data-fips-int="5111" data-name="Poinsett County" d="M2984,749l2,33 0,60 2,67 0,57 -146,-1 -73,2 0,-6 -71,0 -6,4 -70,0 -62,4 -80,0 0,-85 -1,-1 0,-134 41,1 118,0 58,-1 76,0 68,-3 63,3Z"/>
    <path data-fips-int="5113" data-name="Polk County" d="M509,1868l-44,-2 -67,-2 -40,-1 -28,-2 -39,-2 -2,72 8,0 -1,64 -77,0 -79,-2 4,-79 6,-113 3,-57 5,-126 3,-71 94,4 0,24 203,8 0,8 60,4 -1,11 -3,123 -3,87Z"/>
    <path data-fips-int="5115" data-name="Pope County" d="M1192,738l95,2 -1,73 -2,22 0,49 -24,0 -2,71 -2,94 -2,147 -28,1 -16,-4 -18,0 -13,5 -7,-2 -35,8 -3,4 2,21 -7,9 -16,2 -14,-7 -7,-14 6,-17 6,-8 -4,-8 -11,8 -18,-2 -9,-14 0,-9 -13,-29 -27,-28 -19,-1 -15,-6 -1,-13 -9,-12 -10,-7 -14,-9 4,-117 48,1 2,-48 2,-60 35,2 2,-49 2,-60Z"/>
    <path data-fips-int="5117" data-name="Prairie County" d="M2195,1265l13,18 -12,3 -7,-3 -2,9 12,3 13,-7 -1,7 45,0 8,1 0,37 -2,23 -1,55 -2,13 6,12 14,8 -14,4 3,18 -9,4 -3,7 5,7 -2,131 -50,0 0,48 25,0 -1,12 25,1 -1,24 -147,-2 -1,72 -10,1 -46,-2 -4,-9 5,-17 28,-28 1,-12 -22,-15 3,-14 6,-5 6,-29 -10,-5 -9,-14 -8,-3 -12,-12 1,-85 2,-78 0,-36 -74,-2 0,-80 1,-10 0,-9 6,2 10,-6 22,-1 14,-7 20,-6 7,7 16,0 14,8 2,15 9,-1 11,6 3,-4 13,-2 0,-53Z"/>
    <path data-fips-int="5119" data-name="Pulaski County" d="M1750,1330l34,1 -1,42 0,57 -2,45 -1,88 -10,15 -6,35 2,10 -10,30 57,1 -1,110 -121,-3 -26,-1 2,-72 -72,-2 2,-35 -67,-2 1,-37 -39,-1 1,-12 -36,-2 2,-59 -72,-3 3,-72 -60,-2 -11,-1 1,-46 71,0 1,-24 70,3 1,-14 13,2 18,-2 18,8 14,38 -8,28 4,8 14,10 -8,-13 4,-9 -4,-13 0,-16 22,-11 -2,-12 129,4 1,-73Z"/>
    <path data-fips-int="5121" data-name="Randolph County" d="M2640,93l12,18 -4,24 -4,7 8,6 -6,5 10,-1 -6,11 15,3 0,105 -11,-3 -10,2 -16,-3 0,18 -1,97 -156,1 -14,7 1,20 -6,3 -9,-14 2,-16 -9,1 -16,-4 -14,-10 -2,-10 -11,-19 -19,-5 -7,-11 -18,-3 -7,-14 -4,14 0,-26 -11,0 -1,-61 -11,0 0,-35 -12,-2 1,-11 -13,0 1,-26 -27,-1 -3,-24 -6,-18 -13,0 0,-5 -12,0 -5,-15 97,-1 66,0 146,-3 52,0Z"/>
    <path data-fips-int="5123" data-name="Saint Francis County" d="M2847,1212l25,-1 44,-3 0,79 0,41 -4,0 2,82 -40,1 -112,0 -102,2 -55,-1 -60,1 -64,-4 -37,1 0,37 -12,0 1,-37 -25,0 2,-75 70,1 1,-24 0,-98 66,0 7,-2 59,-1 103,1 103,0Z"/>
    <path data-fips-int="5125" data-name="Saline County" d="M1330,1461l60,2 -3,72 72,3 -2,59 36,2 -1,12 39,1 -1,37 67,2 -2,35 72,2 -2,72 -107,-2 -1,37 -126,-4 -16,21 -8,3 4,10 -35,0 -13,-1 2,-48 -36,0 0,-25 -37,-1 1,-47 -12,-1 1,-24 -47,0 1,-37 -71,-2 1,-40 6,0 1,-72 -72,0 2,-72 78,0 88,4 8,6 12,-1 11,8 20,-1 9,11Z"/>
    <path data-fips-int="5127" data-name="Scott County" d="M382,1245l-2,36 46,2 0,23 59,2 44,3 28,0 47,3 71,2 -1,60 -2,22 0,61 -3,84 -25,-1 0,12 -24,-1 0,12 -24,0 0,5 -37,-2 0,19 -5,0 -1,21 -36,-2 1,-11 -60,-4 0,-8 -203,-8 0,-24 -94,-4 2,-36 6,-93 0,-41 14,3 16,-15 10,5 12,-5 3,-10 7,0 6,12 14,-5 24,2 20,-3 23,-9 4,-74 -14,0 -2,-7 19,-5 1,-6 18,1 0,-6 10,1 3,-6 12,0 1,-6Z"/>
    <path data-fips-int="5129" data-name="Searcy County" d="M1556,459l-2,73 -2,71 1,25 -1,58 -66,0 -77,-2 -2,60 -34,-1 -86,-3 -95,-2 2,-73 2,0 4,-107 0,-40 3,-68 -5,0 1,-35 36,0 36,1 -1,36 25,2 67,1 31,2 36,0 74,2Z"/>
    <path data-fips-int="5131" data-name="Sebastian County" d="M432,959l-6,96 0,32 -3,62 13,1 -1,12 11,0 2,-11 11,0 -2,61 -73,-4 -2,37 -12,-1 -1,6 -12,0 -3,6 -10,-1 0,6 -18,-1 -1,6 -19,5 2,7 14,0 -4,74 -23,9 -20,3 -24,-2 -14,5 -6,-12 -7,0 -3,10 -12,5 -10,-5 -16,15 -14,-3 4,-39 10,-215 6,-89 -1,-21 2,-19 5,-12 0,-15 6,1 6,-17 15,1 27,26 2,10 -4,9 2,10 12,10 3,11 16,7 11,-8 10,4 16,-1 11,2 16,-5 4,-17 6,-6 14,9 18,-1 5,-15 -4,-12 -13,-13 -1,-8 15,-14 10,4 28,7Z"/>
    <path data-fips-int="5133" data-name="Sevier County" d="M412,2155 6,25 0,10 -4,0 1,12 -5,12 14,40 22,11 -1,16 11,8 9,18 7,2 9,20 4,14 -8,8 8,13 -57,-3 1,-24 -32,-1 -24,-8 -13,9 -20,-8 -13,3 1,-21 -18,3 -3,-6 -7,10 -15,-8 -1,-6 -10,1 -9,-10 -14,6 3,-6 -7,-4 2,-17 -16,-1 4,-5 -8,1 -5,-7 1,-12 -23,3 7,-7 -18,-8 2,-17 -6,-1 10,-11 -5,-8 -21,-4 5,15 -14,-5 -12,3 -12,-14 -7,3 1,-45 7,-111 1,-50 79,2 77,0 44,0 56,3 5,4 -9,22 6,3 -7,17 15,8 -8,11 7,8 -5,18 10,15 -8,4 2,10 -3,10Z"/>
    <path data-fips-int="5135" data-name="Sharp County" d="M2226,98l5,15 12,0 0,5 13,0 6,18 3,24 27,1 -1,26 13,0 -1,11 12,2 0,35 11,0 1,61 -2,12 -47,-1 -1,11 -11,0 -1,61 2,8 0,65 -2,50 -2,98 -72,-1 0,-36 -123,-2 -42,-1 1,-49 17,0 -5,-15 6,-4 0,-117 4,-5 0,-32 -12,0 0,-36 37,0 47,2 0,-72 44,0 30,1 1,-101 1,-34Z"/>
    <path data-fips-int="5137" data-name="Stone County" d="M1933,621l0,19 -14,25 3,36 9,6 11,13 -1,36 -101,-1 -105,-2 -65,-3 -120,-3 2,-61 1,-58 -1,-25 2,-71 71,1 2,-72 72,2 2,-61 3,6 -1,15 16,3 10,-10 8,1 17,40 8,6 10,0 10,7 12,14 -4,6 -18,4 -6,7 0,10 8,11 1,16 -15,12 -4,12 6,9 20,1 18,-13 10,2 3,16 5,4 14,-4 11,-14 16,2 16,20 31,26 17,-1Z"/>
    <path data-fips-int="5139" data-name="Union County" d="M1442,2693l24,9 -2,8 10,25 12,-9 9,9 7,-9 8,11 -2,7 8,3 -10,6 19,10 1,7 8,3 37,-6 21,-17 -6,14 14,5 7,-3 1,14 13,-2 10,-12 0,12 17,0 0,8 9,-1 6,5 6,-6 10,3 0,8 -7,9 16,8 -7,2 0,11 17,6 11,-10 2,8 -2,12 6,-1 8,18 16,5 19,4 2,11 -8,-1 4,9 -4,13 -7,0 -6,17 6,23 10,0 4,16 -5,3 8,15 16,-1 2,12 6,7 -106,-1 -85,-1 -121,-2 -143,-2 -117,-3 -66,-1 1,-36 4,-104 0,-51 4,-108 48,2 55,3 35,0 13,-12 8,3 19,0 4,12 22,3 7,8 10,1 8,-10 18,8 16,-2 1,-10Z"/>
    <path data-fips-int="5141" data-name="Van Buren County" d="M1552,686l-2,61 120,3 -1,61 -1,9 -1,72 -3,7 -1,97 -2,43 -63,-1 -55,-3 -36,0 1,-73 -59,-1 -26,-1 -46,-1 -81,-3 -38,-1 2,-71 24,0 0,-49 2,-22 1,-73 86,3 34,1 2,-60 77,2Z"/>
    <path data-fips-int="5143" data-name="Washington County" d="M512,699l-108,-5 -2,11 -79,-4 -168,-8 -7,-64 -7,-58 -2,-29 -8,-63 -8,-71 108,5 1,-36 36,1 3,-60 66,3 145,7 -5,-13 14,-6 4,6 -6,7 16,2 7,8 -1,-17 4,-5 7,7 1,-8 10,-3 36,1 -17,53 -9,26 -14,43 -4,124 -4,86 -6,0Z"/>
    <path data-fips-int="5145" data-name="White County" d="M2114,900l-2,73 71,2 90,0 -7,9 7,2 -1,11 -9,-1 -2,-14 -5,10 2,9 -21,12 12,14 -6,1 -8,-9 -14,7 0,5 10,5 -5,3 -9,-8 -6,4 11,8 -15,8 2,5 12,6 -2,20 -8,4 2,8 6,2 10,-9 1,32 7,1 8,10 7,-3 0,-10 6,7 -9,10 -2,14 6,4 -8,19 8,4 0,7 -8,-1 -4,-16 -9,0 -4,14 -8,0 4,11 -14,12 -10,-4 -5,10 18,3 7,13 -5,3 -11,-5 0,6 9,14 -4,10 12,-5 0,7 -17,0 1,11 -10,0 -81,-1 0,53 -13,2 -3,4 -11,-6 -9,1 -2,-15 -14,-8 -16,0 -7,-7 -20,6 -14,7 -22,1 -10,6 -6,-2 0,9 -16,-1 -36,6 -18,-4 -10,-12 -21,-1 -10,-5 -14,-7 -12,-3 -7,-11 -27,7 -15,-6 -9,9 -21,-2 2,-59 2,-86 1,-66 1,-34 61,2 59,0 55,1 1,-64 8,-3 6,-12 6,4 16,-6 2,-65 33,0 61,1Z"/>
    <path data-fips-int="5147" data-name="Woodruff County" d="M2481,1043l0,46 0,39 0,86 0,98 -1,24 -70,-1 -60,-1 0,16 -37,0 -1,61 -51,0 1,-55 2,-23 0,-37 -8,-1 -45,0 1,-7 -13,7 -12,-3 2,-9 7,3 12,-3 -13,-18 10,0 -1,-11 17,0 0,-7 -12,5 4,-10 -9,-14 0,-6 11,5 5,-3 -7,-13 -18,-3 5,-10 10,4 14,-12 -4,-11 8,0 4,-14 9,0 4,16 8,1 0,-7 -8,-4 8,-19 -6,-4 2,-14 9,-10 -6,-7 0,10 -7,3 -8,-10 -7,-1 -1,-32 -10,9 -6,-2 -2,-8 8,-4 2,-20 -12,-6 -2,-5 15,-8 -11,-8 6,-4 9,8 5,-3 -10,-5 0,-5 14,-7 8,9 6,-1 -12,-14 21,-12 -2,-9 5,-10 2,14 9,1 1,-11 -7,-2 7,-9 -1,-5 64,-2 2,74 74,0Z"/>
    <path data-fips-int="5149" data-name="Yell County" d="M1226,1197l-18,1 -18,16 -5,8 -16,7 -2,13 -18,1 -7,-3 -15,7 9,9 1,7 -10,11 -7,0 -1,12 -12,0 0,12 -12,0 0,11 -12,0 -1,14 -12,-2 0,13 -12,-1 -1,12 -12,0 0,12 -14,-1 -1,12 -12,0 0,12 -12,0 0,13 -12,0 0,11 -12,0 0,12 -12,0 -1,12 -11,0 -1,11 -11,0 -1,12 12,0 -1,73 -72,0 0,24 -199,-4 -16,-1 3,-84 0,-61 2,-22 1,-60 1,-23 -2,0 2,-72 30,1 0,-12 90,4 1,-13 12,1 0,-12 12,0 6,-5 1,-18 7,-6 11,1 0,-6 96,4 24,-1 2,-86 10,7 9,12 1,13 15,6 19,1 27,28 13,29 0,9 9,14 18,2 11,-8 4,8 -6,8 -6,17 7,14 14,7 16,-2 7,-9 -2,-21 3,-4 35,-8 7,2 13,-5 18,0Z"/>
    <path data-fips-int="5013" data-name="Calhoun County" d="M1606,2411l7,25 -4,11 4,28 -6,11 0,11 5,13 -3,14 5,6 1,19 -4,13 6,9 0,18 -6,6 2,12 -6,10 0,12 -7,8 -2,17 -5,4 -9,26 -10,1 3,8 -5,7 -1,28 3,10 15,6 3,6 -21,17 -37,6 -8,-3 -1,-7 -19,-10 10,-6 -8,-3 2,-7 -8,-11 -7,9 -9,-9 -12,9 -10,-25 2,-8 -24,-9 -3,-11 -5,7 -5,-10 2,-9 -6,-7 -14,0 -6,-5 -10,9 -2,-14 -13,-17 -12,4 -23,-1 4,-20 -11,3 -7,-14 5,2 3,-13 -15,-10 -3,9 -8,-1 -9,-6 4,-10 -8,-7 8,-4 2,-12 -13,-5 1,-11 8,-2 9,8 16,-16 8,10 4,-25 -3,-20 -8,-4 -7,-12 8,-11 0,-11 7,-3 7,5 13,-7 23,-3 13,-25 15,-11 10,-5 0,-11 8,-7 3,-57 146,4 26,2 3,19 -7,15 2,22Z"/>
  </g>
  <g class="cities">
    <circle r="3" cx="163.6" cy="155.1"/>
    <text x="163.6" y="155.1">Little Rock</text>
    <circle r="3" cx="21.3" cy="100.4"/>
    <text x="21.3" y="100.4">Fort Smith</text>
    <circle r="3" cx="38.7" cy="44.7"/>
    <text x="38.7" y="44.7">Fayetteville</text>
  </g>
</svg>