<?xml version="1.0" encoding="utf-8"?>
<!DOCTYPE svg PUBLIC "-//W3C//DTD SVG 1.1//EN" "http://www.w3.org/Graphics/SVG/1.1/DTD/svg11.dtd">
<svg version="1.1" xmlns="http://www.w3.org/2000/svg" width="350" height="307" viewBox="0 0 350 307">
  <defs>
    <pattern id="pattern-no-results" width="50" height="50" patternUnits="userSpaceOnUse">
      <rect width="50" height="50" fill="#ddd"/>
      <path d="M-5,5L5,-5M-5,55L55,-5M45,55L55,45" stroke-width="10" stroke="#666666"/>
    </pattern>
  </defs>
  <g class="counties" transform="scale(0.1)">
    <path data-fips-int="5001" data-name="Arkansas County" d="M2258,1700l58,1 28,62 28,3 72,107 35,13 -12,34 -3,128 -25,19 -53,40 0,30 43,61 -53,6 -100,-9 -45,-39 -17,-55 -6,-45 -30,2 -22,-71 -125,-12 4,-207 18,2 57,0 0,-73Z"/>
    <path data-fips-int="5003" data-name="Ashley County" d="M2209,2674l0,317 -422,0 -28,-20 -22,-54 22,-50 -22,-4 5,-17 108,-98 12,-66 -20,-14Z"/>
    <path data-fips-int="5005" data-name="Baxter County" d="M1729,100l-2,195 -3,71 -35,0 11,35 -3,61 -71,-1 0,73 -72,-3 0,-71 0,-84 -43,-33 3,-44 -48,-10 -18,-32 30,-35 -42,-9 40,-23 3,-92Z"/>
    <path data-fips-int="5007" data-name="Benton County" d="M588,89l-2,78 -20,21 53,60 -36,0 -14,59 -86,13 0,7 -213,-9 -2,60 -36,-2 -4,37 -104,-6 -37,-329Z"/>
    <path data-fips-int="5009" data-name="Boone County" d="M1261,98l-20,6 -6,312 -35,-3 -238,-6 5,-312Z"/>
    <path data-fips-int="5011" data-name="Bradley County" d="M1850,2414l0,144 -25,69 17,41 20,14 -12,66 -108,98 -5,17 -48,-32 -10,-44 -63,-6 -24,-33 -21,-12 6,-54 40,-103 -11,-168Z"/>
    <path data-fips-int="5015" data-name="Carroll County" d="M967,95l-5,312 -122,-6 -44,0 -44,-51 -1,-60 -27,-37 -105,-5 -53,-60 20,-21 2,-78Z"/>
    <path data-fips-int="5017" data-name="Chicot County" d="M2366,2529l31,44 -35,58 47,-13 2,-36 33,30 -10,25 -48,12 6,23 55,-3 25,-54 14,26 -57,66 0,41 35,61 3,69 -68,0 -10,27 57,40 -32,46 -205,0 0,-317 2,-145 72,0 0,35 73,3Z"/>
    <path data-fips-int="5019" data-name="Clark County" d="M870,1882l35,2 0,48 108,4 -1,23 113,12 2,63 99,4 -6,143 -32,19 30,45 2,60 -2,20 -2,2 -28,-3 -21,17 -52,9 -42,1 -43,-24 -22,-11 -29,-8 1,1 -1,-1 -32,-13 -35,-76 -13,-10 -9,-9 -3,-16 -2,-6 0,-3 -36,-52 -14,-75 7,-54 -38,-8 17,-32 1,-73Z"/>
    <path data-fips-int="5021" data-name="Clay County" d="M3039,331l-86,3 0,-48 -324,-1 35,-13 0,-108 -19,-11 -6,-61 420,-6 14,70 50,22 1,69 -41,61Z"/>
    <path data-fips-int="5023" data-name="Cleburne County" d="M1942,754l31,-4 -1,147 0,1 -2,64 -37,16 -3,65 -173,-3 -95,0 8,-290Z"/>
    <path data-fips-int="5025" data-name="Cleveland County" d="M1850,2341l0,73 -244,-3 0,-13 -4,-9 0,-51 -3,-32 -7,-10 0,-1 0,1 0,-1 -61,-86 -2,-2 -22,-16 2,-70 93,-1 72,-2 191,-3 0,73 -15,0Z"/>
    <path data-fips-int="5027" data-name="Columbia County" d="M1062,2618l-2,61 97,3 -9,299 -349,-4 8,-201 28,1 24,-87 31,-67 100,5Z"/>
    <path data-fips-int="5029" data-name="Conway County" d="M1507,1035l-11,83 -17,44 12,34 -15,51 -20,-2 0,2 0,-2 -62,31 10,-29 -56,33 -221,-6 3,-29 37,-3 59,-45 27,-1 5,-241 251,7Z"/>
    <path data-fips-int="5031" data-name="Craighead County" d="M2983,750l-504,0 2,-148 108,2 13,-72 309,-1 7,-26 58,-2Z"/>
    <path data-fips-int="5033" data-name="Crawford County" d="M431,958l-60,6 20,42 -48,22 -63,7 -30,-55 -43,-28 -17,41 -35,-300 248,13 0,-12 110,5 35,1 -37,22 -15,60 -61,-5 -2,75 37,1 -7,50Z"/>
    <path data-fips-int="5035" data-name="Crittenden County" d="M2843,965l143,0 98,2 -21,44 43,-24 27,21 -24,67 -36,7 8,33 53,27 -23,45 18,39 -60,3 -26,77 -55,-13 0,54 38,53 -113,70 -2,-62 4,-201 -69,5Z"/>
    <path data-fips-int="5037" data-name="Cross County" d="M2843,965l3,247 -365,1 0,-170 0,-73 287,-9Z"/>
    <path data-fips-int="5039" data-name="Dallas County" d="M1368,2044l141,13 22,7 10,2 36,41 25,13 -93,1 -2,70 22,16 2,2 61,86 0,1 0,-1 0,1 7,10 3,32 -169,-5 -215,-8 2,-20 -2,-60 -30,-45 32,-19 6,-143Z"/>
    <path data-fips-int="5041" data-name="Desha County" d="M2550,2066l57,27 -10,46 -68,11 -70,48 50,34 -32,38 12,48 41,22 -23,22 -78,-16 -7,43 54,12 23,36 -38,12 -50,-41 -45,31 63,38 5,20 -68,32 -10,38 -73,-3 0,-35 -72,0 2,-179 -75,-3 7,-160 56,1 30,-32 45,39 100,9 53,-6 -43,-61 0,-30 53,-40Z"/>
    <path data-fips-int="5043" data-name="Drew County" d="M2138,2347l75,3 -2,179 -2,145 -367,-6 -17,-41 25,-69 0,-144 0,-73 228,0Z"/>
    <path data-fips-int="5045" data-name="Faulkner County" d="M1662,1040l95,0 -5,246 -2,44 -71,-2 -2,72 -131,-3 -19,25 9,48 -30,-89 -43,-2 -35,-46 31,-35 -3,-51 0,-2 20,2 15,-51 -12,-34 17,-44 11,-83Z"/>
    <path data-fips-int="5047" data-name="Franklin County" d="M692,696l-15,325 -28,8 -36,-51 0,-2 0,2 -4,94 -73,-6 -3,74 -73,-3 0,15 -37,-3 8,-191 32,-55 7,-50 -37,-1 2,-75 61,5 15,-60 37,-22 0,-13Z"/>
    <path data-fips-int="5049" data-name="Fulton County" d="M2198,98l-2,134 -75,-3 0,75 -83,-3 -311,-6 2,-195Z"/>
    <path data-fips-int="5051" data-name="Garland County" d="M1102,1525l71,0 -8,114 71,3 -1,36 46,0 10,73 -83,-3 2,48 -25,0 0,48 -313,-9 3,-233 9,-54 0,-24 73,0Z"/>
    <path data-fips-int="5053" data-name="Grant County" d="M1666,1760l23,1 -2,217 -13,0 0,140 -72,2 -25,-13 -36,-41 -10,-2 -22,-7 -141,-13 8,-219 28,0 27,-35 126,5 0,-37Z"/>
    <path data-fips-int="5055" data-name="Greene County" d="M3039,331l-33,59 -51,35 -37,80 -7,26 -309,1 18,-87 9,-9 20,-17 19,-37 -41,0 2,-97 324,1 0,48Z"/>
    <path data-fips-int="5057" data-name="Hempstead County" d="M704,2179l15,11 12,3 20,2 1,0 -1,0 1,0 4,0 63,6 13,-3 -11,110 -12,290 -166,-8 -34,-14 -35,-93 -18,-5 -45,-13 3,-29 -38,-9 9,-51 1,-11 87,4 8,-217 52,3Z"/>
    <path data-fips-int="5059" data-name="Hot Spring County" d="M1291,1751l73,25 12,49 -8,219 -142,-6 -99,-4 -2,-63 -113,-12 1,-23 -108,-4 0,-48 -35,-2 2,-47 313,9 0,-48 25,0 -2,-48Z"/>
    <path data-fips-int="5061" data-name="Howard County" d="M509,1868l5,135 72,4 -5,145 -8,217 -87,-4 -1,0 -5,-16 1,-5 2,0 -2,0 2,0 0,-9 -38,-71 -14,-7 -8,-8 0,-2 -5,-66 -22,-89 0,-95 -99,-3 -5,-135Z"/>
    <path data-fips-int="5063" data-name="Independence County" d="M2263,601l106,-2 -22,65 -33,19 -48,67 20,61 -28,-2 0,94 -143,-3 -143,-2 0,-1 1,-147 -31,4 -24,-90 15,-43 64,-62 29,1 165,3 0,36Z"/>
    <path data-fips-int="5065" data-name="Izard County" d="M2038,301l7,210 -19,49 -29,-1 -64,62 -75,-56 -41,16 -17,-22 -45,6 35,-86 -38,-22 -15,-40 -37,-16 -11,-35 35,0 3,-71Z"/>
    <path data-fips-int="5067" data-name="Jackson County" d="M2481,602l-2,148 2,220 0,73 -144,-2 -1,-73 -63,6 -160,-1 2,-73 143,3 0,-94 28,2 -20,-61 48,-67 33,-19 22,-65Z"/>
    <path data-fips-int="5069" data-name="Jefferson County" d="M1812,1764l223,4 -4,207 125,12 22,71 30,-2 6,45 -40,7 -38,-28 -33,15 -3,-34 -80,-36 1,90 -13,-24 -143,1 0,23 -191,3 0,-140 13,0 2,-217Z"/>
    <path data-fips-int="5071" data-name="Johnson County" d="M692,696l119,6 0,23 237,9 -3,107 -37,-1 -1,108 -50,-2 -3,118 -57,-2 -38,-81 -38,25 -22,-13 -52,25 -38,-22 -32,25Z"/>
    <path data-fips-int="5073" data-name="Lafayette County" d="M809,2598l0,23 81,2 -31,67 -24,87 -28,-1 -8,201 -218,-5 -38,-62 8,-44 65,-15 47,-90 -5,-80 -25,-74 10,-17Z"/>
    <path data-fips-int="5075" data-name="Lawrence County" d="M2342,309l50,30 14,32 40,11 181,0 41,0 -19,37 -20,17 -9,9 -18,87 -13,72 -108,-2 -112,-3 -106,2 3,-283 60,-22Z"/>
    <path data-fips-int="5077" data-name="Lee County" d="M2911,1408l2,62 -35,-50 -17,26 24,95 -35,19 -7,-63 -25,16 4,66 51,0 5,22 -38,39 -43,-10 -318,0 2,-74 -37,0 0,-110 0,-38 263,5Z"/>
    <path data-fips-int="5079" data-name="Lincoln County" d="M2214,2101l17,55 -30,32 -56,-1 -7,160 -60,-6 -228,0 0,-153 15,0 0,-73 0,-23 143,-1 13,24 -1,-90 80,36 3,34 33,-15 38,28Z"/>
    <path data-fips-int="5081" data-name="Little River County" d="M485,2365l1,0 -1,11 -9,51 38,9 -3,29 45,13 18,5 -48,27 -58,-3 -45,21 -27,-21 -51,9 0,-22 -60,-1 -22,28 -76,8 -68,-78 11,-251 67,3 -5,36 33,10 40,46 67,35 96,7 0,25Z"/>
    <path data-fips-int="5083" data-name="Logan County" d="M677,1021l32,-25 38,22 52,-25 22,13 38,-25 38,81 57,2 15,9 -4,86 -121,-3 -48,57 -90,-3 -32,10 0,95 -248,-9 0,-23 -46,-3 0,-36 3,-35 72,3 5,-60 0,-15 73,3 3,-74 73,6 4,-94 0,-2 0,2 36,51Z"/>
    <path data-fips-int="5085" data-name="Lonoke County" d="M1857,1298l60,23 50,-6 0,91 74,1 -5,204 40,29 -15,45 22,31 -30,54 -18,-2 -223,-4 2,-109 -59,-2 25,-90 4,-233 -34,0 2,-44 72,-6Z"/>
    <path data-fips-int="5087" data-name="Madison County" d="M619,248l105,5 27,37 1,60 44,51 44,0 24,38 -5,93 -50,72 2,98 -119,-6 -144,-9 0,13 -35,-1 8,-60 8,-214 40,-118 14,-59Z"/>
    <path data-fips-int="5089" data-name="Marion County" d="M1554,460l-284,-8 1,-36 -36,0 6,-312 20,-6 218,0 -3,92 -40,23 42,9 -30,35 18,32 48,10 -3,44 43,33Z"/>
    <path data-fips-int="5091" data-name="Miller County" d="M643,2590l-10,17 25,74 5,80 -47,90 -65,15 -8,44 38,62 -168,-3 10,-441 45,-21 58,3 48,-27 35,93Z"/>
    <path data-fips-int="5093" data-name="Mississippi County" d="M3084,967l-98,-2 -3,-215 -7,-247 389,-11 -8,23 53,66 -65,-11 -16,29 40,27 -55,38 -20,32 -58,-2 -30,21 23,65 45,-9 -3,30 -62,29 30,41 -20,24 -32,-35 -36,12 16,66 -33,51 0,-48 -26,-9Z"/>
    <path data-fips-int="5095" data-name="Monroe County" d="M2409,1336l0,72 35,38 0,110 37,0 -2,74 0,146 36,0 0,110 -36,0 -35,-13 -72,-107 -28,-3 -28,-62 -58,-1 0,-23 -49,-14 0,-49 50,1 2,-131 17,-38 -17,-35 50,0 2,-61Z"/>
    <path data-fips-int="5097" data-name="Montgomery County" d="M669,1541l215,7 -9,54 -3,233 -2,47 -48,-1 -313,-13 9,-261 35,1 6,-39 60,-5Z"/>
    <path data-fips-int="5099" data-name="Nevada County" d="M890,2200l9,9 13,10 35,76 32,13 1,1 -1,-1 29,8 22,11 43,24 -11,267 -72,10 -100,-5 -81,-2 0,-23 12,-290 11,-110Z"/>
    <path data-fips-int="5101" data-name="Newton County" d="M962,407l238,6 3,38 -12,287 -143,-4 -237,-9 0,-23 -2,-98 50,-72 5,-93 -24,-38Z"/>
    <path data-fips-int="5103" data-name="Ouachita County" d="M1216,2327l2,-2 215,8 -2,55 -47,61 -51,9 -2,30 13,15 -44,71 26,12 20,51 38,0 59,54 -82,3 -63,-12 -141,0 -97,-3 2,-61 11,-267 42,-1 52,-9 21,-17Z"/>
    <path data-fips-int="5105" data-name="Perry County" d="M1456,1247l3,51 -31,35 35,46 -70,10 -2,25 -70,-1 9,48 0,20 -64,-23 -163,-3 -1,70 -145,-1 -12,-85 49,-35 36,-50 97,-80 221,6 56,-33 -10,29 62,-31Z"/>
    <path data-fips-int="5107" data-name="Phillips County" d="M2797,1630l30,68 -27,37 7,83 -70,36 -52,3 8,51 -58,28 -10,48 -63,-17 33,46 57,15 -37,20 -35,-22 -30,40 -111,1 25,-19 3,-128 12,-34 36,0 0,-110 -36,0 0,-146Z"/>
    <path data-fips-int="5109" data-name="Pike County" d="M822,1881l-1,73 -17,32 38,8 -7,54 14,75 36,52 0,3 2,6 3,16 -58,-2 -13,3 -63,-6 -4,0 -1,0 1,0 -1,0 -20,-2 -12,-3 -15,-11 -71,-24 -52,-3 5,-145 -72,-4 -5,-135Z"/>
    <path data-fips-int="5111" data-name="Poinsett County" d="M2983,750l3,215 -143,0 -75,-4 -287,9 -2,-220Z"/>
    <path data-fips-int="5113" data-name="Polk County" d="M509,1868l-217,-9 5,135 -157,-1 22,-446 93,4 0,24 203,8 60,24Z"/>
    <path data-fips-int="5115" data-name="Pope County" d="M1191,738l95,3 -3,143 -23,0 -2,71 -5,241 -27,1 -89,6 -2,29 -43,-9 11,-33 -33,3 -48,-82 -32,-3 -21,-35 -15,-9 3,-118 50,2 1,-108 37,1 3,-107Z"/>
    <path data-fips-int="5117" data-name="Prairie County" d="M2194,1266l2,30 68,0 -3,115 17,35 -17,38 -2,131 -50,-1 0,49 49,14 0,23 -148,-3 0,73 -57,0 30,-54 -22,-31 15,-45 -40,-29 5,-204 -74,-1 0,-91 5,-9 74,-13 69,27 0,-56Z"/>
    <path data-fips-int="5119" data-name="Pulaski County" d="M1750,1330l34,0 -4,233 -25,90 59,2 -2,109 -123,-3 -23,-1 0,-72 -72,-1 3,-37 -68,-1 2,-37 -73,-14 -2,-61 -68,-2 0,-73 -58,-1 -9,-48 70,1 2,-25 70,-10 43,2 30,89 -9,-48 19,-25 131,3 2,-72Z"/>
    <path data-fips-int="5121" data-name="Randolph County" d="M2639,92l6,61 19,11 0,108 -35,13 -2,97 -181,0 -40,-11 -14,-32 -50,-30 -16,-13 0,-61 -33,-74 -29,0 -8,-42 -30,-21Z"/>
    <path data-fips-int="5123" data-name="Saint Francis County" d="M2846,1212l69,-5 -4,201 -204,5 -263,-5 0,38 -35,-38 0,-72 72,0 0,-123Z"/>
    <path data-fips-int="5125" data-name="Saline County" d="M1330,1461l58,1 0,73 68,2 2,61 73,14 -2,37 68,1 -3,37 72,1 0,72 -109,-2 0,37 -126,-5 -27,35 -28,0 -12,-49 -73,-25 -10,-73 -46,0 1,-36 -71,-3 8,-114 -71,0 1,-70 163,3 64,23Z"/>
    <path data-fips-int="5127" data-name="Scott County" d="M380,1244l0,36 46,3 0,23 248,9 -5,226 -50,23 -60,5 -6,39 -35,-1 -60,-24 -203,-8 0,-24 -93,-4 8,-171 147,-23 3,-74Z"/>
    <path data-fips-int="5129" data-name="Searcy County" d="M1554,460l0,71 -2,156 -144,-3 0,58 -122,-1 -95,-3 12,-287 -3,-38 35,3 36,0 -1,36Z"/>
    <path data-fips-int="5131" data-name="Sebastian County" d="M431,958l-8,191 37,3 -5,60 -72,-3 -3,35 -60,35 -3,74 -147,23 20,-383 17,-41 43,28 30,55 63,-7 48,-22 -20,-42Z"/>
    <path data-fips-int="5133" data-name="Sevier County" d="M418,2181l5,66 0,2 8,8 14,7 38,71 0,9 -2,0 2,0 -2,0 -1,5 5,16 -57,-3 0,-25 -96,-7 -67,-35 -40,-46 -33,-10 5,-36 -67,-3 10,-207 157,1 99,3 0,95Z"/>
    <path data-fips-int="5135" data-name="Sharp County" d="M2226,98l30,21 8,42 29,0 33,74 0,61 -60,22 -3,283 -72,-2 0,-36 -165,-3 19,-49 -7,-210 83,3 0,-75 75,3 2,-134Z"/>
    <path data-fips-int="5137" data-name="Stone County" d="M1933,621l-15,43 24,90 -272,-4 -119,-3 1,-60 2,-156 72,3 0,-73 71,1 3,-61 37,16 15,40 38,22 -35,86 45,-6 17,22 41,-16Z"/>
    <path data-fips-int="5139" data-name="Union County" d="M1361,2694l82,-3 25,39 36,-4 22,44 66,-22 24,33 63,6 10,44 48,32 22,4 -22,50 22,54 28,20 -639,-10 9,-299 141,0Z"/>
    <path data-fips-int="5141" data-name="Van Buren County" d="M1552,687l-1,60 119,3 -8,290 -155,-5 2,-73 -251,-7 2,-71 23,0 3,-143 122,1 0,-58Z"/>
    <path data-fips-int="5143" data-name="Washington County" d="M513,699l-110,-5 0,12 -248,-13 -31,-286 104,6 4,-37 36,2 2,-60 213,9 0,-7 86,-13 -40,118 -8,214Z"/>
    <path data-fips-int="5145" data-name="White County" d="M2115,900l-2,73 160,1 -60,57 30,127 -39,64 19,30 -29,14 -79,-2 0,56 -69,-27 -74,13 -5,9 -50,6 -60,-23 -33,-18 -72,6 5,-246 173,3 3,-65 37,-16 2,-64 0,-1 0,1Z"/>
    <path data-fips-int="5147" data-name="Woodruff County" d="M2481,1043l0,170 0,123 -72,0 -96,14 -2,61 -50,0 3,-115 -68,0 -2,-30 29,-14 -19,-30 39,-64 -30,-127 60,-57 63,-6 1,73Z"/>
    <path data-fips-int="5149" data-name="Yell County" d="M1226,1197l-59,45 -37,3 -3,29 -97,80 -36,50 -49,35 12,85 -73,0 0,24 -215,-7 5,-226 0,-95 32,-10 90,3 48,-57 121,3 4,-86 21,35 32,3 48,82 33,-3 -11,33 43,9 2,-29Z"/>
    <path data-fips-int="5013" data-name="Calhoun County" d="M1602,2389l4,9 0,13 11,168 -40,103 -6,54 21,12 -66,22 -22,-44 -36,4 -25,-39 -59,-54 -38,0 -20,-51 -26,-12 44,-71 -13,-15 2,-30 51,-9 47,-61 2,-55 169,5Z"/>
  </g>
  <g class="cities">
    <circle r="3" cx="163.6" cy="155.2"/>
    <text x="163.6" y="155.2">Little Rock</text>
    <circle r="3" cx="21.2" cy="100.4"/>
    <text x="21.2" y="100.4">Fort Smith</text>
    <circle r="3" cx="38.7" cy="44.7"/>
    <text x="38.7" y="44.7">Fayetteville</text>
  </g>
</svg>