<?xml version="1.0" encoding="utf-8"?>
<!DOCTYPE svg PUBLIC "-//W3C//DTD SVG 1.1//EN" "http://www.w3.org/Graphics/SVG/1.1/DTD/svg11.dtd">
<svg version="1.1" xmlns="http://www.w3.org/2000/svg" width="350" height="307" viewBox="0 0 350 307">
  <path class="state" transform="scale(0.1)" d="M124,407l-37,-329 501,11 379,6 294,3h218l250,2 8,-2h461h28l203,-1 210,-5 420,-6 14,70 50,22 -12,56 13,13 -31,30 -10,31 -44,23 -20,16 -13,43 -51,35 -10,37 -27,43 58,-2 389,-11 -8,23 43,36 10,30 -26,5 -39,-16 -16,29 40,27 -15,27 -40,11 -20,32 -37,13 -21,-15 -30,21v38l23,27 45,-9 -3,30 -62,29 10,33 20,8v23l-20,1 -32,-35 -36,12 -2,47 18,19 -6,33 -27,18v-48l-26,-9 -24,35 -16,11 -5,33 28,4 -8,-23 23,-5 27,21 -25,35 1,32 -36,7 8,33h32l21,27 -23,45 30,23 -12,16 -35,-9 -25,12 -26,77 -55,-13 -10,28 10,26 35,29 3,24 -46,32 -2,26 -20,-12 -45,24 -35,-50 -17,26 19,37 -9,11 14,47 -35,19 -14,-19 15,-23 -8,-21 -25,16 10,25 -20,23 14,18h51l5,22 -38,39 -23,-9 10,-35 -10,-14 -24,22 4,26 1,32 29,36 -27,37 -5,36 12,47 -57,32 2,47 -22,4 7,-47 -52,3 -10,21 18,30 -15,22 -43,6 -10,48 -23,3 -20,-26 -20,6 12,35 21,11 44,-3 13,18 -37,20 -35,-22 -30,40 24,22 33,5 -10,46 -68,11 18,35 -23,10 -15,-30 -40,13 -10,20 40,15 10,19 -32,38 12,48 41,22 -23,22 -23,-13 -35,7 -20,-10 -7,43 35,21 19,-9 23,36 -38,12 -50,-41 -30,6 -15,25 63,38 5,20 -68,32 31,44 -35,58 47,-13 2,-36 33,30 -10,25 -48,12 6,23 32,9 23,-12 25,-54 14,26 -57,66v41l30,47 18,-40 20,10 -10,30 -23,14 3,69 -43,8 -25,-8 -10,27 57,40 -32,46h-205h-422l-250,-3 -389,-7 -349,-4 -218,-5 -168,-3 10,-441 -27,-21 -51,9v-22l-42,8 -13,23 -5,-32 -22,28 -76,8 -30,-39 -28,-12 16,-32 -26,5 11,-251 10,-207 22,-446 8,-171 20,-383 -35,-300 -31,-286"/>
  <g class="counties" transform="scale(0.1)">
    <path data-fips-int="5001" data-name="Arkansas County" d="M2258,1700l58,1 -3,27 24,1 7,34 28,3 -3,35 23,-9 52,81 35,13 -12,34 9,35 -5,45 -17,21 10,27 -25,19 -53,40v30l43,61 -53,6 -20,-16 -15,15 -65,-8 25,-17 -18,-16 -24,22 -28,-28 -17,-55 -6,-45 -30,2 -22,-39v-32l-48,-10 -77,-2 4,-207 18,2h57v-73Z"/>
    <path data-fips-int="5003" data-name="Ashley County" d="M2209,2674v317h-422l-28,-20 -22,-54 22,-50 -22,-4 5,-17 3,-22 29,-15 41,-39 35,-22 -5,-37 17,-29 -20,-14 189,4Z"/>
    <path data-fips-int="5005" data-name="Baxter County" d="M1729,100l-2,195 -3,71h-35l11,35 -3,61 -71,-1v73l-72,-3v-71v-84l-23,-2 -20,-31 3,-44 -48,-10 15,-28 -33,-4 30,-35 -35,6 -7,-15 40,-23 3,-92Z"/>
    <path data-fips-int="5007" data-name="Benton County" d="M588,89l-2,78 -20,21 53,60h-36l-2,60 -12,-1 -36,-2 -50,15v7l-213,-9 -2,60 -36,-2 -4,37 -104,-6 -37,-329Z"/>
    <path data-fips-int="5009" data-name="Boone County" d="M1261,98v26l-20,-20 -5,143 -1,169 -35,-3 -238,-6 5,-201v-111Z"/>
    <path data-fips-int="5011" data-name="Bradley County" d="M1850,2414v144h-21l6,25 -10,44 17,41 20,14 -17,29 5,37 -35,22 -41,39 -29,15 -3,22 -5,17 -48,-32 -10,-44h-30l-18,-22 -15,16 -30,-19 6,-14 -21,-12 6,-54 22,-27 18,-76 -10,-93 -1,-75Z"/>
    <path data-fips-int="5015" data-name="Carroll County" d="M967,95v111l-5,201 -122,-6h-44l-4,-25h-21l-19,-26 -1,-60 -27,-37 -105,-5 -53,-60 20,-21 2,-78Z"/>
    <path data-fips-int="5017" data-name="Chicot County" d="M2366,2529l31,44 -35,58 47,-13 2,-36 33,30 -10,25 -48,12 6,23 32,9 23,-12 25,-54 14,26 -57,66v41l30,47 18,-40 20,10 -10,30 -23,14 3,69 -43,8 -25,-8 -10,27 57,40 -32,46h-205v-317l2,-145h72v35l73,3Z"/>
    <path data-fips-int="5019" data-name="Clark County" d="M870,1882l35,2v48l108,4 -1,23 75,3 38,9 2,63 99,4 -6,143 -39,-3 7,22 3,23 27,22 -12,13 14,47 -2,20 -2,2 -28,-3 -21,17 -52,9 -42,1 -23,-32 -20,8 -22,-11 -29,-8 1,1 -1,-1 -32,-13 -7,-43 -28,-33 -13,-10 -9,-9 -3,-16 -2,-6v-3l-36,-52 -14,-75 7,-54 -38,-8v-34l17,2 1,-73Z"/>
    <path data-fips-int="5021" data-name="Clay County" d="M3039,331l-86,3v-48l-47,2 -241,-5 -36,2v-18l35,5v-108l-19,-11 5,-49 -11,-12 420,-6 14,70 50,22 -12,56 13,13 -31,30 -10,31Z"/>
    <path data-fips-int="5023" data-name="Cleburne County" d="M1942,754l31,-4 -1,147v1l-2,64 -37,16 -3,65 -173,-3h-95l8,-290 109,4Z"/>
    <path data-fips-int="5025" data-name="Cleveland County" d="M1850,2341v73l-244,-3v-13l-4,-9v-51l-3,-32 -7,-10v-1l-31,-32 -2,-22 -28,-32 -2,-2 -22,-16 2,-70 93,-1 72,-2 191,-3v73h-15Z"/>
    <path data-fips-int="5027" data-name="Columbia County" d="M1062,2618l-2,61 97,3 -9,299 -349,-4 8,-201 28,1 24,-87 31,-67 100,5v-11Z"/>
    <path data-fips-int="5029" data-name="Conway County" d="M1507,1035l-3,78 -8,5 -17,44 12,34 -15,51 -20,-2 -33,26 -29,5 10,-29 -35,30 -21,3 -221,-6 3,-29 37,-3 39,-43 20,-2 27,-1 5,-241 251,7Z"/>
    <path data-fips-int="5031" data-name="Craighead County" d="M2983,750l-135,-5 -78,5h-291l2,-148 108,2 13,-72 309,-1 7,-26 58,-2Z"/>
    <path data-fips-int="5033" data-name="Crawford County" d="M431,958l-41,-7 -19,13 20,42 -40,-1 -8,23 -63,7 -33,-36 3,-19 -43,-28 -17,41 -35,-300 248,13v-12l110,5 35,1 -2,25 -35,-3 -15,60 -61,-5 -2,75 37,1 -7,50 -18,30 18,15Z"/>
    <path data-fips-int="5035" data-name="Crittenden County" d="M2843,965h143l98,2 -16,11 -5,33 28,4 -8,-23 23,-5 27,21 -25,35 1,32 -36,7 8,33h32l21,27 -23,45 30,23 -12,16 -35,-9 -25,12 -26,77 -55,-13 -10,28 10,26 35,29 3,24 -46,32 -2,26 -20,-12 -45,24 -2,-62 4,-201 -69,5 -3,-28Z"/>
    <path data-fips-int="5037" data-name="Cross County" d="M2843,965v219l3,28 -365,1v-170v-73h79l208,-9Z"/>
    <path data-fips-int="5039" data-name="Dallas County" d="M1368,2044l123,4 18,9 22,7 10,2 36,41 25,13 -93,1 -2,70 22,16 2,2 28,32 2,22 31,32v1l7,10 3,32 -169,-5 -215,-8 2,-20 -14,-47 12,-13 -27,-22 -3,-23 -7,-22 39,3 6,-143Z"/>
    <path data-fips-int="5041" data-name="Desha County" d="M2550,2066l24,22 33,5 -10,46 -68,11 18,35 -23,10 -15,-30 -40,13 -10,20 40,15 10,19 -32,38 12,48 41,22 -23,22 -23,-13 -35,7 -20,-10 -7,43 35,21 19,-9 23,36 -38,12 -50,-41 -30,6 -15,25 63,38 5,20 -68,32 -10,38 -73,-3v-35h-72l2,-179 -75,-3 7,-160 56,1v-25l30,-7 28,28 24,-22 18,16 -25,17 65,8 15,-15 20,16 53,-6 -43,-61v-30l53,-40Z"/>
    <path data-fips-int="5043" data-name="Drew County" d="M2138,2347l75,3 -2,179 -2,145 -178,-2 -189,-4 -17,-41 10,-44 -6,-25h21v-144v-73h228Z"/>
    <path data-fips-int="5045" data-name="Faulkner County" d="M1662,1040h95l-5,246 -2,44 -71,-2 -2,72 -131,-3 -19,25 9,48 -19,-19 9,-28 -20,-42 -43,-2 -22,-11 -13,-35 31,-35 -3,-51v-2l20,2 15,-51 -12,-34 17,-44 8,-5 3,-78Z"/>
    <path data-fips-int="5047" data-name="Franklin County" d="M692,696l-15,325 -28,8 -36,-51v-2v2l-4,94 -73,-6 -3,74 -73,-3v15l-37,-3 8,-191 32,-10 -18,-15 18,-30 7,-50 -37,-1 2,-75 61,5 15,-60 35,3 2,-25v-13Z"/>
    <path data-fips-int="5049" data-name="Fulton County" d="M2198,98l-2,134 -75,-3v75l-83,-3 -206,-2 -105,-4 2,-195 8,-2Z"/>
    <path data-fips-int="5051" data-name="Garland County" d="M1102,1525h71v71l-8,43 71,3 -1,36h46l12,25 -2,48 -83,-3 2,48h-25v48l-313,-9 3,-233 9,-54v-24h73Z"/>
    <path data-fips-int="5053" data-name="Grant County" d="M1666,1760l23,1 -2,217h-13v140l-72,2 -25,-13 -36,-41 -10,-2 -22,-7 -18,-9 -123,-4 8,-219h28l27,-35 126,5v-37Z"/>
    <path data-fips-int="5055" data-name="Greene County" d="M3039,331l-20,16 -13,43 -51,35 -10,37 -27,43 -7,26 -309,1 -5,-17 23,-70 9,-9 20,-17 19,-37h-41l2,-97 36,-2 241,5 47,-2v48Z"/>
    <path data-fips-int="5057" data-name="Hempstead County" d="M752,2195h4l26,15 37,-9 13,-3 -3,110h-8l-12,290 -166,-8 -20,-32 -14,18 -15,-54 -21,-9 1,-30 -18,-5 -12,-16 -33,3 3,-29 -38,-9 9,-51 1,-11 87,4 8,-217 52,3 71,24 15,11 12,3Z"/>
    <path data-fips-int="5059" data-name="Hot Spring County" d="M1291,1751h39v25h34v49h12l-8,219 -142,-6 -99,-4 -2,-63 -38,-9 -75,-3 1,-23 -108,-4v-48l-35,-2 2,-47 313,9v-48h25l-2,-48Z"/>
    <path data-fips-int="5061" data-name="Howard County" d="M509,1868l-3,72h10l-2,63 72,4 -5,145 -8,217 -87,-4h-1l-5,-16 1,-5h2v-9l-38,-55v-16l-14,-7 -8,-8v-2l-12,-27 7,-39 -22,-89 10,-41 -15,-10 5,-44 -99,-3 -7,-68 2,-67Z"/>
    <path data-fips-int="5063" data-name="Independence County" d="M2263,601l106,-2 -22,65 -33,19 -48,67 20,61 -28,-2v94l-143,-3 -143,-2v-1l1,-147 -31,4v-35l-17,-13 -7,-42 15,-43 64,-62 29,1 165,3v36Z"/>
    <path data-fips-int="5065" data-name="Izard County" d="M2038,301l7,74v136h-19v49l-29,-1 -64,62 -28,-10 -47,-46 -41,16 -17,-22 -45,6 20,-27 -10,-26 25,-33 -38,-22 -15,-40 -33,8 -4,-24 -11,-35h35l3,-71 105,4Z"/>
    <path data-fips-int="5067" data-name="Jackson County" d="M2481,602l-2,148 2,220v73l-144,-2 -1,-73 -63,6 -160,-1 2,-73 143,3v-94l28,2 -20,-61 48,-67 33,-19 22,-65Z"/>
    <path data-fips-int="5069" data-name="Jefferson County" d="M1812,1764l223,4 -4,207 77,2 48,10v32l22,39 30,-2 6,45 -40,7 -38,-28 -33,15 -3,-34 -24,-5 -41,-32 -15,1 1,90 -13,-24 -143,1v23l-191,3v-140h13l2,-217Z"/>
    <path data-fips-int="5071" data-name="Johnson County" d="M692,696l119,6v23l93,6 144,3 -3,107 -37,-1 -1,108 -50,-2 -3,118 -24,-10 -33,8 -38,-81 -38,25 -22,-13 -52,25 -38,-22 -32,25Z"/>
    <path data-fips-int="5073" data-name="Lafayette County" d="M809,2598v23l81,2 -31,67 -24,87 -28,-1 -8,201 -218,-5 -38,-62 8,-44 23,10 7,-23 35,-2 23,-11 -16,-24 40,-55v-38l18,-10 -32,-12 9,-20 -25,-74 10,-17Z"/>
    <path data-fips-int="5075" data-name="Lawrence County" d="M2342,309l50,30 14,32 40,11v25l25,-25h156h41l-19,37 -20,17 -9,9 -23,70 5,17 -13,72 -108,-2 -112,-3 -106,2 5,-223 -2,-60 12,-11 48,1v-12Z"/>
    <path data-fips-int="5077" data-name="Lee County" d="M2911,1408l2,62 -35,-50 -17,26 19,37 -9,11 14,47 -35,19 -14,-19 15,-23 -8,-21 -25,16 10,25 -20,23 14,18h51l5,22 -38,39 -23,-9 10,-35 -10,-14 -24,22 4,26h-318l2,-74h-37v-110v-38l81,5h182Z"/>
    <path data-fips-int="5079" data-name="Lincoln County" d="M2214,2101l17,55 -30,7v25l-56,-1 -7,160 -60,-6h-228v-153h15v-73v-23l143,-1 13,24 -1,-90 15,-1 41,32 24,5 3,34 33,-15 38,28Z"/>
    <path data-fips-int="5081" data-name="Little River County" d="M485,2365h1l-1,11 -9,51 38,9 -3,29 33,-3 12,16 18,5h-30l-18,27 -30,-3v25l-28,-25 3,27 -26,-16 -22,10 -27,-21 -51,9v-22l-42,8 -13,23 -5,-32 -22,28 -76,8 -30,-39 -28,-12 16,-32 -26,5 11,-251 45,10 22,-7 -5,36 33,10 40,46 35,24 28,-8 4,19 96,7v25Z"/>
    <path data-fips-int="5083" data-name="Logan County" d="M677,1021l32,-25 38,22 52,-25 22,13 38,-25 38,81 33,-8 24,10 15,9 -4,86 -121,-3 -48,57 -90,-3 -32,10v95l-248,-9v-23l-46,-3v-36l3,-35 72,3 5,-60v-15l73,3 3,-74 73,6 4,-94v-2v2l36,51Z"/>
    <path data-fips-int="5085" data-name="Lonoke County" d="M1857,1298l60,23 50,-6v91l74,1 -5,204 40,29 -15,45 22,31 -25,22 -5,32 -18,-2 -223,-4 2,-109 -59,-2 14,-73 11,-17 4,-233h-34l2,-44 72,-6Z"/>
    <path data-fips-int="5087" data-name="Madison County" d="M619,248l105,5 27,37 1,60 19,26h21l4,25h44v37l24,1 -5,93 -37,35 -13,37 2,98 -119,-6 -144,-9v13l-35,-1 8,-60 8,-214 40,-118 12,1 2,-60Z"/>
    <path data-fips-int="5089" data-name="Marion County" d="M1554,460l-284,-8 1,-36h-36l1,-169 5,-143 20,20v-26h218l-3,92 -40,23 7,15 35,-6 -30,35 33,4 -15,28 48,10 -3,44 20,31 23,2Z"/>
    <path data-fips-int="5091" data-name="Miller County" d="M643,2590l-10,17 25,74 -9,20 32,12 -18,10v38l-40,55 16,24 -23,11 -35,2 -7,23 -23,-10 -8,44 38,62 -168,-3 10,-441 22,-10 26,16 -3,-27 28,25v-25l30,3 18,-27h30l-1,30 21,9 15,54 14,-18Z"/>
    <path data-fips-int="5093" data-name="Mississippi County" d="M3084,967l-98,-2 -3,-215 -7,-247 389,-11 -8,23 43,36 10,30 -26,5 -39,-16 -16,29 40,27 -15,27 -40,11 -20,32 -37,13 -21,-15 -30,21v38l23,27 45,-9 -3,30 -62,29 10,33 20,8v23l-20,1 -32,-35 -36,12 -2,47 18,19 -6,33 -27,18v-48l-26,-9Z"/>
    <path data-fips-int="5095" data-name="Monroe County" d="M2409,1336v72h23l12,38v110h37l-2,74v146h36v110h-36l-35,-13 -52,-81 -23,9 3,-35 -28,-3 -7,-34 -24,-1 3,-27 -58,-1v-23l-49,-14v-49l50,1 2,-131 17,-38 -17,-35h50l2,-61h36l2,-16Z"/>
    <path data-fips-int="5097" data-name="Montgomery County" d="M669,1541l215,7 -9,54 -3,233 -2,47 -48,-1 -313,-13 9,-261 35,1 6,-39 60,-5 24,-23Z"/>
    <path data-fips-int="5099" data-name="Nevada County" d="M890,2200l9,9 13,10 28,33 7,43 32,13 1,1 -1,-1 29,8 22,11 20,-8 23,32 -11,267 -72,-1v11l-100,-5 -81,-2v-23l12,-290h8l3,-110Z"/>
    <path data-fips-int="5101" data-name="Newton County" d="M962,407l238,6 3,38 -12,287 -143,-4 -144,-3 -93,-6v-23l-2,-98 13,-37 37,-35 5,-93 -24,-1v-37Z"/>
    <path data-fips-int="5103" data-name="Ouachita County" d="M1216,2327l2,-2 215,8 -2,55 -47,61 -51,9 -2,30 13,15 -44,71 26,12 20,51h38l7,32 13,-11 39,33 -82,3 -27,-18 -36,6 -57,5 -84,-5 -97,-3 2,-61 11,-267 42,-1 52,-9 21,-17Z"/>
    <path data-fips-int="5105" data-name="Perry County" d="M1456,1247l3,51 -31,35 13,35 22,11v13l-70,-3 -2,25 -70,-1 9,48v20l-64,-23 -163,-3 -1,70 -145,-1v-73l-12,-12 49,-35 36,-50 65,-46 32,-34 221,6 21,-3 35,-30 -10,29 29,-5 33,-26Z"/>
    <path data-fips-int="5107" data-name="Phillips County" d="M2797,1630l1,32 29,36 -27,37 -5,36 12,47 -57,32 2,47 -22,4 7,-47 -52,3 -10,21 18,30 -15,22 -43,6 -10,48 -23,3 -20,-26 -20,6 12,35 21,11 44,-3 13,18 -37,20 -35,-22 -30,40 -111,1 25,-19 -10,-27 17,-21 5,-45 -9,-35 12,-34h36v-110h-36v-146Z"/>
    <path data-fips-int="5109" data-name="Pike County" d="M751,2195l-20,-2 -12,-3 -15,-11 -71,-24 -52,-3 5,-145 -72,-4 2,-63h-10l3,-72 313,13 -1,73 -17,-2v34l38,8 -7,54 14,75 36,52v3l2,6 3,16 -58,-2 -13,3 -37,9 -26,-15Z"/>
    <path data-fips-int="5111" data-name="Poinsett County" d="M2983,750l3,215h-143l-75,-4 -208,9h-79l-2,-220h291l78,-5Z"/>
    <path data-fips-int="5113" data-name="Polk County" d="M509,1868l-217,-9 -2,67 7,68 -157,-1 22,-446 93,4v24l203,8 60,12v12Z"/>
    <path data-fips-int="5115" data-name="Pope County" d="M1191,738l95,3 -3,143h-23l-2,71 -5,241 -27,1 -36,-4 -53,10 -2,29 -23,9 -20,-18 11,-33 -33,3 -18,-48 -30,-34 -32,-3 -21,-35 -15,-9 3,-118 50,2 1,-108 37,1 3,-107Z"/>
    <path data-fips-int="5117" data-name="Prairie County" d="M2194,1266l2,30h68l-3,115 17,35 -17,38 -2,131 -50,-1v49l49,14v23l-148,-3v73h-57l5,-32 25,-22 -22,-31 15,-45 -40,-29 5,-204 -74,-1v-91l5,-9 56,-19 18,6 29,22 40,5v-56Z"/>
    <path data-fips-int="5119" data-name="Pulaski County" d="M1750,1330h34l-4,233 -11,17 -14,73 59,2 -2,109 -123,-3 -23,-1v-72l-72,-1 3,-37 -68,-1 2,-37 -73,-14 -2,-61 -68,-2v-73l-58,-1 -9,-48 70,1 2,-25 70,3v-13l43,2 20,42 -9,28 19,19 -9,-48 19,-25 131,3 2,-72Z"/>
    <path data-fips-int="5121" data-name="Randolph County" d="M2639,92l11,12 -5,49 19,11v108l-35,-5v18l-2,97h-156l-25,25v-25l-40,-11 -14,-32 -50,-30 -16,-13v-61l-12,-36 -23,-12 2,-26h-29l-8,-42 -30,-21 203,-1Z"/>
    <path data-fips-int="5123" data-name="Saint Francis County" d="M2846,1212l69,-5 -4,201 -204,5h-182l-81,-5v38l-12,-38h-23v-72h72v-123Z"/>
    <path data-fips-int="5125" data-name="Saline County" d="M1330,1461l58,1v73l68,2 2,61 73,14 -2,37 68,1 -3,37 72,1v72l-109,-2v37l-126,-5 -27,35h-28h-12v-49h-34v-25h-39l2,-48 -12,-25h-46l1,-36 -71,-3 8,-43v-71h-71l1,-70 163,3 64,23Z"/>
    <path data-fips-int="5127" data-name="Scott County" d="M380,1244v36l46,3v23l248,9 -5,226h-26l-24,23 -60,5 -6,39 -35,-1v-12l-60,-12 -203,-8v-24l-93,-4 8,-171 147,-23 3,-74 -13,-8Z"/>
    <path data-fips-int="5129" data-name="Searcy County" d="M1554,460v71l-2,156 -144,-3v58l-122,-1 -95,-3 12,-287 -3,-38 35,3h36l-1,36Z"/>
    <path data-fips-int="5131" data-name="Sebastian County" d="M431,958l-8,191 37,3 -5,60 -72,-3 -3,35 -73,27 13,8 -3,74 -147,23 20,-383 17,-41 43,28 -3,19 33,36 63,-7 8,-23 40,1 -20,-42 19,-13Z"/>
    <path data-fips-int="5133" data-name="Sevier County" d="M418,2181l-7,39 12,27v2l8,8 14,7v16l38,55v9h-2l-1,5 5,16 -57,-3v-25l-96,-7 -4,-19 -28,8 -35,-24 -40,-46 -33,-10 5,-36 -22,7 -45,-10 10,-207 157,1 99,3 -5,44 15,10 -10,41Z"/>
    <path data-fips-int="5135" data-name="Sharp County" d="M2226,98l30,21 8,42h29l-2,26 23,12 12,36v61v12l-48,-1 -12,11 2,60 -5,223 -72,-2v-36l-165,-3v-49h19v-136l-7,-74 83,3v-75l75,3 2,-134Z"/>
    <path data-fips-int="5137" data-name="Stone County" d="M1933,621l-15,43 7,42 17,13v35h-163l-109,-4 -119,-3 1,-60 2,-156 72,3v-73l71,1 3,-61 4,24 33,-8 15,40 38,22 -25,33 10,26 -20,27 45,-6 17,22 41,-16 47,46Z"/>
    <path data-fips-int="5139" data-name="Union County" d="M1361,2694l82,-3 23,10 2,29 36,-4 22,44 45,-3 21,-19 -6,14 30,19 15,-16 18,22h30l10,44 48,32 22,4 -22,50 22,54 28,20 -250,-3 -389,-7 9,-299 84,5 57,-5 36,-6Z"/>
    <path data-fips-int="5141" data-name="Van Buren County" d="M1552,687l-1,60 119,3 -8,290 -155,-5 2,-73 -251,-7 2,-71h23l3,-143 122,1v-58Z"/>
    <path data-fips-int="5143" data-name="Washington County" d="M513,699l-110,-5v12l-248,-13 -31,-286 104,6 4,-37 36,2 2,-60 213,9v-7l50,-15 36,2 -40,118 -8,214Z"/>
    <path data-fips-int="5145" data-name="White County" d="M2115,900l-2,73 160,1 1,15 -61,42 30,127 -39,64 19,30 -29,14 -79,-2v56l-40,-5 -29,-22 -18,-6 -56,19 -5,9 -50,6 -60,-23 -33,-18 -72,6 5,-246 173,3 3,-65 37,-16 2,-64Z"/>
    <path data-fips-int="5147" data-name="Woodruff County" d="M2481,1043v170v123h-72l-58,-2 -2,16h-36l-2,61h-50l3,-115h-68l-2,-30 29,-14 -19,-30 39,-64 -30,-127 61,-42 -1,-15 63,-6 1,73Z"/>
    <path data-fips-int="5149" data-name="Yell County" d="M1226,1197l-20,2 -39,43 -37,3 -3,29 -32,34 -65,46 -36,50 -49,35 12,12v73h-73v24l-215,-7 5,-226v-95l32,-10 90,3 48,-57 121,3 4,-86 21,35 32,3 30,34 18,48 33,-3 -11,33 20,18 23,-9 2,-29 53,-10Z"/>
    <path data-fips-int="5013" data-name="Calhoun County" d="M1602,2389l4,9v13l1,75 10,93 -18,76 -22,27 -6,54 21,12 -21,19 -45,3 -22,-44 -36,4 -2,-29 -23,-10 -39,-33 -13,11 -7,-32h-38l-20,-51 -26,-12 44,-71 -13,-15 2,-30 51,-9 47,-61 2,-55 169,5Z"/>
  </g>
  <path class="mesh" transform="scale(0.1)" d="M1729,100l-2,195 -3,71h-35l11,35 -3,61 -71,-1v73l-72,-3v-71v-84l-23,-2 -20,-31 3,-44 -48,-10 15,-28 -33,-4 30,-35 -35,6 -7,-15 40,-23 3,-92M3039,331l-86,3v-48l-47,2 -241,-5 -36,2v-18l35,5v-108l-19,-11 5,-49 -11,-12M588,89l-2,78 -20,21 53,60h-36l-2,60 -12,-1 -36,-2 -50,15v7l-213,-9 -2,60 -36,-2 -4,37 -104,-6M799,2977l8,-201 28,1 24,-87 31,-67 100,5v-11l72,1 -2,61 97,3 -9,299M1261,98v26l-20,-20 -5,143 -1,169 -35,-3 -238,-6 5,-201v-111M2976,503l7,247 -135,-5 -78,5h-291l2,-148 108,2 13,-72 309,-1 7,-26M155,693l248,13v-12l110,5 35,1 -2,25 -35,-3 -15,60 -61,-5 -2,75 37,1 -7,50 -18,30 18,15 -32,10 -41,-7 -19,13 20,42 -40,-1 -8,23 -63,7 -33,-36 3,-19 -43,-28 -17,41M2913,1470l-2,-62 4,-201 -69,5 -3,-28v-219h143l98,2M2846,1212l-365,1v-170v-73h79l208,-9 75,4M1606,2411l244,3M1226,2038l-6,143 -39,-3 7,22 3,23 27,22 -12,13 14,47 -2,20 -2,2 -28,-3 -21,17 -52,9 -42,1 -23,-32 -20,8 -22,-11 -29,-8 1,1 -1,-1 -32,-13 -7,-43 -28,-33 -13,-10 -9,-9 -3,-16 -2,-6v-3l-36,-52 -14,-75 7,-54 -38,-8v-34l17,2 1,-73 48,1 35,2v48l108,4 -1,23 75,3 38,9 2,63 99,4 142,6 123,4 18,9 22,7 10,2 36,41 25,13M2439,2067l111,-1M1850,2341h228l60,6M1757,1040l-5,246 -2,44 -71,-2 -2,72 -131,-3 -19,25 9,48 -19,-19 9,-28 -20,-42 -43,-2 -22,-11 -13,-35 31,-35 -3,-51v-2M1507,1035l-3,78 -8,5 -17,44 12,34 -15,51 -20,-2 -33,26 -29,5 10,-29 -35,30 -21,3 -221,-6 3,-29 37,-3 39,-43 20,-2 27,-1 5,-241 251,7 -2,73 155,5M962,407l-122,-6h-44l-4,-25h-21l-19,-26 -1,-60 -27,-37 -105,-5M548,700v-13l144,9 -15,325 -28,8 -36,-51v-2v2l-4,94 -73,-6 -3,74 -73,-3v15l-37,-3 8,-191M2198,98l-2,134 -75,-3v75l-83,-3 -206,-2 -105,-4M1463,1379v13l-70,-3 -2,25 -70,-1 9,48v20l-64,-23 -163,-3 -1,70h71v71l-8,43 71,3 -1,36h46l12,25 -2,48 -83,-3 2,48h-25v48l-313,-9 3,-233 9,-54v-24h73l145,1M1368,2044l8,-219h28l27,-35 126,5v-37l109,2 23,1 -2,217h-13v140M2211,2529h72v35l73,3 10,-38M2602,532l-5,-17 23,-70 9,-9 20,-17 19,-37h-41l2,-97M752,2195h4l26,15 37,-9 13,-3 -3,110h-8l-12,290 -166,-8 -20,-32 -14,18 -15,-54 -21,-9 1,-30 -18,-5 -12,-16 -33,3 3,-29 -38,-9 9,-51 1,-11 87,4 8,-217 52,3 71,24 15,11 12,3 20,2M1291,1751h39v25h34v49h12M870,1882l2,-47M486,2365h-1l-5,-16 1,-5h2v-9l-38,-55v-16l-14,-7 -8,-8v-2l-12,-27 7,-39 -22,-89 10,-41 -15,-10 5,-44 -99,-3 -7,-68 2,-67 217,9 -3,72h10l-2,63 72,4 -5,145M2209,2674v317M1942,754l31,-4 -1,147v1l-2,64 -37,16 -3,65 -173,-3h-95l8,-290 109,4h163v-35l-17,-13 -7,-42 15,-43 64,-62 29,1 165,3v36l72,2 106,-2 -22,65 -33,19 -48,67 20,61 -28,-2v94l-143,-3 -143,-2M2038,301l7,74v136h-19v49M1933,621l-28,-10 -47,-46 -41,16 -17,-22 -45,6 20,-27 -10,-26 25,-33 -38,-22 -15,-40 -33,8 -4,-24M2479,750l2,220M2481,1043l-144,-2 -1,-73 -63,6 -160,-1 2,-73M2369,599l112,3M1689,1761l123,3 223,4M2214,2101l-40,7 -38,-28 -33,15 -3,-34 -24,-5 -41,-32 -15,1 1,90 -13,-24 -143,1v23M692,696l119,6v23l93,6 144,3 -3,107 -37,-1 -1,108 -50,-2 -3,118 -24,-10 -33,8 -38,-81 -38,25 -22,-13 -52,25 -38,-22 -32,25M809,2598v23l81,2M581,2972l-38,-62 8,-44 23,10 7,-23 35,-2 23,-11 -16,-24 40,-55v-38l18,-10 -32,-12 9,-20 -25,-74 10,-17M2263,601l5,-223 -2,-60 12,-11 48,1v-12l16,13 50,30 14,32 40,11v25l25,-25h156M2797,1630h-318l2,-74h-37v-110v-38l81,5h182l204,-5M574,2483h-30l-18,27 -30,-3v25l-28,-25 3,27 -26,-16 -22,10M130,2200l45,10 22,-7 -5,36 33,10 40,46 35,24 28,-8 4,19 96,7v25l57,3M954,1064l15,9 -4,86 -121,-3 -48,57 -90,-3 -32,10v95l-248,-9v-23l-46,-3v-36l3,-35 72,3 5,-60M1752,1286l72,-6 33,18 60,23 50,-6v91l74,1 -5,204 40,29 -15,45 22,31 -25,22 -5,32M1812,1764l2,-109 -59,-2 14,-73 11,-17 4,-233h-34M840,401v37l24,1 -5,93 -37,35 -13,37 2,98M513,699l8,-60 8,-214 40,-118M1554,460l-284,-8 1,-36h-36M2986,965l-3,-215M1737,2863l5,-17 3,-22 29,-15 41,-39 35,-22 -5,-37 17,-29 -20,-14 189,4 178,2 2,-145 2,-179 -75,-3 7,-160 56,1v-25l30,-7 -17,-55 -6,-45 -30,2 -22,-39v-32l-48,-10 -77,-2 4,-207 18,2h57v-73l148,3v-23l-49,-14v-49l50,1 2,-131 17,-38 -17,-35h50l2,-61h36l2,-16 58,2v72h23l12,38M2479,1630v146h36v110h-36l-12,34 9,35 -5,45 -17,21 10,27 -25,19 -53,40v30l43,61 -53,6 -20,-16 -15,15 -65,-8 25,-17 -18,-16 -24,22 -28,-28M822,1881l-313,-13 9,-261 35,1 6,-39 60,-5 24,-23h26l215,7M1073,2351l-11,267M832,2198l58,2M1200,413l3,38 -12,287 -143,-4M2258,1700l58,1 -3,27 24,1 7,34 28,3 -3,35 23,-9 52,81 35,13M1433,2333l-2,55 -47,61 -51,9 -2,30 13,15 -44,71 26,12 20,51h38l7,32 13,-11 39,33 -82,3 -27,-18 -36,6 -57,5 -84,-5M957,1524v-73l-12,-12 49,-35 36,-50 65,-46 32,-34M297,1994l-157,-1M162,1547l93,4v24l203,8 60,12v12M1191,738l95,3 -3,143h-23l-2,71M1226,1197l-36,-4 -53,10 -2,29 -23,9 -20,-18 11,-33 -33,3 -18,-48 -30,-34 -32,-3 -21,-35M1967,1315l5,-9 56,-19 18,6 29,22 40,5v-56l79,2 2,30h68l-3,115M1666,1760v-72l-72,-1 3,-37 -68,-1 2,-37 -73,-14 -2,-61 -68,-2v-73l-58,-1M2326,296v-61l-12,-36 -23,-12 2,-26h-29l-8,-42 -30,-21M2409,1336h72v-123M674,1315l-5,226M170,1376l147,-23 3,-74 -13,-8 73,-27M1554,531l-2,156 -144,-3v58l-122,-1M1670,750l-119,-3 1,-60M1443,2691l23,10 2,29 36,-4 22,44 45,-3 21,-19M2273,974l1,15 -61,42 30,127 -39,64 19,30 -29,14M1602,2338l-169,-5 -215,-8M1787,2991l-28,-20 -22,-54 22,-50 -22,-4 -48,-32 -10,-44h-30l-18,-22 -15,16 -30,-19 6,-14 -21,-12 6,-54 22,-27 18,-76 -10,-93 -1,-75v-13l-4,-9v-51l-3,-32 -7,-10v-1l-31,-32 -2,-22 -28,-32 -2,-2 -22,-16 2,-70 93,-1 72,-2 191,-3v73h-15v153v73v144h-21l6,25 -10,44 17,41"/>
  <g class="cities">
    <circle r="3" cx="163.6" cy="155.2"/>
    <text x="163.6" y="155.2">Little Rock</text>
    <circle r="3" cx="21.2" cy="100.4"/>
    <text x="21.2" y="100.4">Fort Smith</text>
    <circle r="3" cx="38.7" cy="44.7"/>
    <text x="38.7" y="44.7">Fayetteville</text>
  </g>
</svg>