<?xml version="1.0" encoding="utf-8"?>
<!DOCTYPE svg PUBLIC "-//W3C//DTD SVG 1.1//EN" "http://www.w3.org/Graphics/SVG/1.1/DTD/svg11.dtd">
<svg version="1.1" xmlns="http://www.w3.org/2000/svg" width="823" height="1000" viewBox="0 0 823 1000">
  <path class="state" d="M387,858l2,-7 14,-8 16,-1 8,4 6,17 10,-5 29,1 7,7v20l-11,11h-26l-13,-15 -1,-8 -13,4 -15,-1 -12,-12ZM112,880l13,-1 12,-9 5,15h6l16,-17h3l-1,18 13,5 1,13h-27l-7,10 -15,11 -8,1 -25,-14 -9,-14 10,-12ZM20,38l12,-13 20,2 2,18 -9,9 -19,-2ZM770,957l7,-12 12,-3 11,9 2,11 -7,12h-18Z"/>
  <g class="counties">
    <path data-fips-int="60020" data-name="Manu'a" d="M387,858l2,-7 14,-8 16,-1 8,4 6,17 10,-5 29,1 7,7v20l-11,11h-26l-13,-15 -1,-8 -13,4 -15,-1 -12,-12Z"/>
    <path data-fips-int="60050" data-name="Western Samoa" d="M112,880l18,15 16,19 -15,11 -8,1 -25,-14 -9,-14 10,-12Z"/>
    <path data-fips-int="60040" data-name="Swains Island" d="M20,38l12,-13 20,2 2,18 -9,9 -19,-2Z"/>
    <path data-fips-int="60010" data-name="Eastern Samoa" d="M112,880l13,-1 12,-9 5,15h6l16,-17h3l-1,18 13,5 1,13h-27l-7,10 -16,-19Z"/>
    <path data-fips-int="60030" data-name="Rose Island" d="M770,957l7,-12 12,-3 11,9 2,11 -7,12h-18Z"/>
  </g>
  <path class="mesh" d="M112,880l18,15 16,19"/>
  <g class="cities">
    <circle r="7" cx="465" cy="874"/>
    <text x="465" y="874">Fitiuta</text>
    <circle r="7" cx="138" cy="889"/>
    <text x="138" y="889">Pago Pago</text>
    <circle r="7" cx="35" cy="40"/>
    <text x="35" y="40">Taulaga</text>
  </g>
</svg>