<?xml version="1.0" encoding="utf-8"?>
<!DOCTYPE svg PUBLIC "-//W3C//DTD SVG 1.1//EN" "http://www.w3.org/Graphics/SVG/1.1/DTD/svg11.dtd">
<svg version="1.1" xmlns="http://www.w3.org/2000/svg" width="288" height="350" viewBox="0 0 288 350">
  <path class="state" transform="scale(0.1)" d="M1355,3006l21,-41 37,-12 55,-3 35,20 12,53 43,-17 94,3 25,30 -6,79 -41,23 -49,5 -36,-8 -39,-47 -8,-33 -30,15 -72,-7 -39,-38ZM395,3083l45,-5 39,-35 15,51 27,4 62,-60v50l38,23 10,53 -44,-3 -51,6 -22,34 -52,38 -45,-2 -44,-40 -37,-10 -21,-38 35,-50ZM72,134l3,-17 39,-30 68,12 9,45 -19,43 -38,5 -55,-19ZM2696,3350l13,-33 48,-21 30,13 18,45 -23,55 -40,3 -30,-12Z"/>
  <g class="counties" transform="scale(0.1)">
    <path data-fips-int="60020" data-name="Manu'a" d="M1355,3006l21,-41 37,-12 55,-3 35,20 12,53 43,-17 94,3 25,30 -6,79 -41,23 -49,5 -36,-8 -39,-47 -8,-33 -30,15 -72,-7 -39,-38Z"/>
    <path data-fips-int="60050" data-name="Western Samoa" d="M395,3083l62,51 57,67 -52,38 -45,-2 -44,-40 -37,-10 -21,-38 35,-50Z"/>
    <path data-fips-int="60040" data-name="Swains Island" d="M72,134l3,-17 39,-30 68,12 9,45 -19,43 -38,5 -55,-19Z"/>
    <path data-fips-int="60010" data-name="Eastern Samoa" d="M395,3083l45,-5 39,-35 15,51 27,4 62,-60v50l38,23 10,53 -44,-3 -51,6 -22,34 -57,-67Z"/>
    <path data-fips-int="60030" data-name="Rose Island" d="M2696,3350l13,-33 48,-21 30,13 18,45 -23,55 -40,3 -30,-12Z"/>
  </g>
  <path class="mesh" transform="scale(0.1)" d="M395,3083l62,51 57,67"/>
  <g class="cities">
    <circle r="3" cx="162.7" cy="305.9"/>
    <text x="162.7" y="305.9">Fitiuta</text>
    <circle r="3" cx="48.4" cy="311.2"/>
    <text x="48.4" y="311.2">Pago Pago</text>
    <circle r="3" cx="12.2" cy="14.1"/>
    <text x="12.2" y="14.1">Taulaga</text>
  </g>
</svg>