<?xml version="1.0" encoding="utf-8"?>
<!DOCTYPE svg PUBLIC "-//W3C//DTD SVG 1.1//EN" "http://www.w3.org/Graphics/SVG/1.1/DTD/svg11.dtd">
<svg version="1.1" xmlns="http://www.w3.org/2000/svg" width="301" height="350" viewBox="0 0 301 350">
  <path class="state" transform="scale(0.1)" d="M232,2409l-70,-5 -23,-42 17,-46 3,-45 -29,-27 18,-23 -13,-33 40,-9 27,-49 33,-27 -7,-23 24,-64 -16,-91 13,-12 -14,-30 48,-53 6,-43 86,-45 57,-73 -17,-28 -24,-10 -50,-50h-20l-2,-49 -26,-38 -14,-68 -24,-15 -53,-83v-90l19,-20 -19,-18 31,-19 -5,-116 -39,-105 14,-61 -21,-55 6,-72 15,-25 -30,-41 6,-53 -17,-30 63,-34 57,-3v13l60,-6 59,73 48,-2 42,-91 10,-7 2,-105v-198l5,-168 481,9h223h85h337h250l163,-5 128,1 220,-1 446,-12 22,737 3,211 5,93 10,403 13,436 9,339 8,258 5,191 8,288 9,351 -516,10 -187,5 -309,1 -144,-53 -420,-153 -103,-40 -365,-133 -87,-35 -108,-40 -428,-168 -188,-71 11,-37 -9,-38 23,-13 35,-59 57,7 27,-12 -1,-20 31,-30 3,-38 -23,-68"/>
  <g class="counties" transform="scale(0.1)">
    <path data-fips-int="4001" data-name="Apache County" d="M2894,1967l-147,3 -3,30 -44,11 -22,34 -14,20 -38,5 -75,81 -64,-51 -3,-123h16l-3,-198 3,-29 -2,-183 -10,-43 6,-51v-195l-7,-318 7,-10 -1,-75 -82,2 -16,-778 446,-12 22,737 3,211 5,93 10,403Z"/>
    <path data-fips-int="4003" data-name="Cochise County" d="M2883,2757l33,-2 8,288 9,351 -516,10 -187,5 -3,-165 3,-68 -2,-306 -4,-100 390,-8Z"/>
    <path data-fips-int="4005" data-name="Coconino County" d="M2047,99l1,223 7,618 6,373v123l4,261 -28,-23 -13,23 -63,-28 -20,-27 -104,-30 -12,-20 -74,15 -1,29 -16,-40 -14,18 -26,-18 23,-9 -40,-6v-193h-107v-105l-268,5v-102l-50,-1 2,-65 -16,13 -50,-3 -20,-30 -61,-7 -93,-28 -10,-20 -86,-55 -9,-15 -45,-16 -35,1 3,-174 12,-39 -12,-11 9,-37 -15,-46 13,-24 46,4 13,-37 36,-10 52,-40 55,-8 11,-15 40,-4 30,-34 25,3 21,-28 -7,-30 11,-25 -18,-35 20,-40 -7,-45 7,-55 43,-98 -5,-28h85h337h250Z"/>
    <path data-fips-int="4007" data-name="Gila County" d="M1717,1587l-23,9 26,18 14,-18 16,40 1,-29 74,-15 12,20 104,30 20,27 63,28 13,-23 28,23 2,156 363,-5 4,247 2,65 -83,1 -93,42 -39,10 4,85 18,21 -23,2 -26,5 -43,31 -43,14 -17,40 -33,36 -83,-154 -12,-54 -33,-73 -56,-121 -36,41 -51,-48 -27,-37 7,-39 -39,-59 9,-40 -30,-6 15,-42 -10,-46h-111l23,-95 3,-43 50,-30v-20Z"/>
    <path data-fips-int="4009" data-name="Graham County" d="M2678,2045l8,336 82,134 35,10 -7,35 15,7 20,8 5,69 -10,49 57,64 -269,5 -390,8v-52v-144l-4,-253 23,-2 -18,-21 -4,-85 39,-10 93,-42 83,-1 -2,-65 53,5 64,51 75,-81 38,-5Z"/>
    <path data-fips-int="4011" data-name="Greenlee County" d="M2894,1967l9,339 8,258 5,191 -33,2 -57,-64 10,-49 -5,-69 -20,-8 -15,-7 7,-35 -35,-10 -82,-134 -8,-336 22,-34 44,-11 3,-30Z"/>
    <path data-fips-int="4012" data-name="La Paz County" d="M821,1667l-3,185 -6,364 -303,-7v-49l-151,-4 -5,243 -8,10h-113l-70,-5 -23,-42 17,-46 3,-45 -29,-27 18,-23 -13,-33 40,-9 27,-49 33,-27 -7,-23 24,-64 -16,-91 13,-12 -14,-30 48,-53 6,-43 86,-45 57,-73 34,5 15,20 90,6 5,17 52,-8 11,16 49,-11 34,-44 84,10Z"/>
    <path data-fips-int="4013" data-name="Maricopa County" d="M1707,1857l30,6 -9,40 39,59 -7,39 27,37 51,48 36,-41 56,121 -263,2 -2,153h-244l-53,-35 -6,-25 -1,467h-270l-286,-3 3,-116 4,-393 6,-364 286,3 224,70 16,-13 40,-83 210,28Z"/>
    <path data-fips-int="4015" data-name="Mohave County" d="M1212,104l5,28 -43,98 -7,55 7,45 -20,40 18,35 -11,25 7,30 -21,28 -25,-3 -30,34 -40,4 -11,15 -55,8 -52,40 -36,10 -13,37 -46,-4 -13,24 15,46 -9,37 12,11 -12,39 -3,174 -8,707 -15,13 -84,-10 -34,44 -49,11 -11,-16 -52,8 -5,-17 -90,-6 -15,-20 -34,-5 -17,-28 -24,-10 -50,-50h-20l-2,-49 -26,-38 -14,-68 -24,-15 -53,-83v-90l19,-20 -19,-18 31,-19 -5,-116 -39,-105 14,-61 -21,-55 6,-72 15,-25 -30,-41 6,-53 -17,-30 63,-34 57,-3v13l60,-6 59,73 48,-2 42,-91 10,-7 2,-105v-198l5,-168 481,9Z"/>
    <path data-fips-int="4017" data-name="Navajo County" d="M2395,99l16,778 82,-2 1,75 -7,10 7,318v195l-6,51 10,43 2,183 -3,29 3,198h-16l3,123 -53,-5 -4,-247 -363,5 -2,-156 -4,-261v-123l-6,-373 -7,-618 -1,-223 128,1Z"/>
    <path data-fips-int="4019" data-name="Pima County" d="M2224,2718v52l4,100 2,306 -200,1v4l-153,1 1,120h-101v55l-420,-153 -103,-40 -365,-133 -87,-35 3,-271 286,3h270h313v2l203,-2v-5h153Z"/>
    <path data-fips-int="4021" data-name="Pinal County" d="M1930,2166l33,73 12,54 83,154 33,-36 17,-40 43,-14 43,-31 26,-5 4,253v144l-194,5h-153v5l-203,2v-2h-313l1,-467 6,25 53,35h244l2,-153Z"/>
    <path data-fips-int="4023" data-name="Santa Cruz County" d="M2230,3176l-3,68 3,165 -309,1 -144,-53v-55h101l-1,-120 153,-1v-4Z"/>
    <path data-fips-int="4025" data-name="Yavapai County" d="M1677,1581v20l-50,30 -3,43 -23,95h111l10,46 -15,42h-113l-210,-28 -40,83 -16,13 -224,-70 -286,-3 3,-185 8,-707 35,-1 45,16 9,15 86,55 10,20 93,28 61,7 20,30 50,3 16,-13 -2,65 50,1v102l268,-5v105h107Z"/>
    <path data-fips-int="4027" data-name="Yuma County" d="M812,2216l-4,393 -3,116 -3,271 -108,-40 -428,-168 -188,-71 11,-37 -9,-38 23,-13 35,-59 57,7 27,-12 -1,-20 31,-30 3,-38 -23,-68h113l8,-10 5,-243 151,4v49Z"/>
  </g>
  <path class="mesh" transform="scale(0.1)" d="M2230,3409l-3,-165 3,-68 -2,-306 -4,-100 390,-8 269,-5 33,-2M2047,99l1,223 7,618 6,373v123l4,261 -28,-23 -13,23 -63,-28 -20,-27 -104,-30 -12,-20 -74,15 -1,29 -16,-40 -14,18 -26,-18 23,-9 -40,-6v-193h-107v-105l-268,5v-102l-50,-1 2,-65 -16,13 -50,-3 -20,-30 -61,-7 -93,-28 -10,-20 -86,-55 -9,-15 -45,-16 -35,1 3,-174 12,-39 -12,-11 9,-37 -15,-46 13,-24 46,4 13,-37 36,-10 52,-40 55,-8 11,-15 40,-4 30,-34 25,3 21,-28 -7,-30 11,-25 -18,-35 20,-40 -7,-45 7,-55 43,-98 -5,-28M2065,1697l2,156 363,-5 4,247 2,65 -83,1 -93,42 -39,10 4,85 18,21 -23,2 -26,5 -43,31 -43,14 -17,40 -33,36 -83,-154 -12,-54 -33,-73 -56,-121 -36,41 -51,-48 -27,-37 7,-39 -39,-59 9,-40 -30,-6 15,-42 -10,-46h-111l23,-95 3,-43 50,-30v-20M2894,1967l-147,3 -3,30 -44,11 -22,34 -14,20 -38,5 -75,81 -64,-51 -3,-123h16l-3,-198 3,-29 -2,-183 -10,-43 6,-51v-195l-7,-318 7,-10 -1,-75 -82,2 -16,-778M2678,2045l8,336 82,134 35,10 -7,35 15,7 20,8 5,69 -10,49 57,64M2224,2770v-52v-144l-4,-253M2434,2095l53,5M432,1669l34,5 15,20 90,6 5,17 52,-8 11,16 49,-11 34,-44 84,10 15,-13 -3,185 -6,364 -303,-7v-49l-151,-4 -5,243 -8,10h-113M1930,2166l-263,2 -2,153h-244l-53,-35 -6,-25 -1,467h-270l-286,-3 3,-116 4,-393M818,1852l286,3 224,70 16,-13 40,-83 210,28h113M829,960l-8,707M2230,3176l-200,1v4l-153,1 1,120h-101v55M802,2996l3,-271M1361,2728h313v2l203,-2v-5h153l194,-5"/>
  <g class="cities">
    <circle r="3" cx="142.7" cy="218.0"/>
    <text x="142.7" y="218.0">Phoenix</text>
    <circle r="3" cx="199.3" cy="289.4"/>
    <text x="199.3" y="289.4">Tucson</text>
    <circle r="3" cx="17.4" cy="258.4"/>
    <text x="17.4" y="258.4">Yuma</text>
  </g>
</svg>