<?xml version="1.0" encoding="utf-8"?>
<!DOCTYPE svg PUBLIC "-//W3C//DTD SVG 1.1//EN" "http://www.w3.org/Graphics/SVG/1.1/DTD/svg11.dtd">
<svg version="1.1" xmlns="http://www.w3.org/2000/svg" width="301" height="350" viewBox="0 0 301 350">
  <defs>
    <pattern id="pattern-no-results" width="50" height="50" patternUnits="userSpaceOnUse">
      <rect width="50" height="50" fill="#ddd"/>
      <path d="M-5,5L5,-5M-5,55L55,-5M45,55L55,45" stroke-width="10" stroke="#666666"/>
    </pattern>
  </defs>
  <g class="counties" transform="scale(0.1)">
    <path data-fips-int="4001" data-name="Apache County" d="M2894,1967l-146,3 -2,30 -46,11 -22,34 -78,43 -49,63 -23,-13 -41,-40 0,2 0,-2 -3,-121 16,0 -2,-410 -11,-607 6,-85 -82,0 -16,-776 446,-12 38,1291Z"/>
    <path data-fips-int="4003" data-name="Cochise County" d="M2883,2755l33,-2 17,641 -703,15 0,-233 -2,-305 -4,-103Z"/>
    <path data-fips-int="4005" data-name="Coconino County" d="M2047,100l1,223 13,1113 4,261 -27,-23 -7,10 -7,5 1,3 -7,5 -3,0 -70,-48 -13,-8 -1,0 1,0 -1,0 -6,-4 -5,0 -18,-11 -11,0 -27,-9 0,4 0,-4 0,4 -42,-30 -31,15 -17,1 0,-1 0,-7 -14,3 -2,0 2,0 -2,0 0,4 -7,3 6,15 -16,2 -1,0 8,-24 3,-3 -7,-2 -10,2 -3,0 -17,15 0,-5 1,-7 2,0 -2,0 -1,0 1,0 -1,0 -7,0 -7,9 -10,-9 5,-5 -1,-3 1,3 15,-6 4,0 1,-2 -27,-3 9,-5 1,-5 2,-10 -6,8 -14,12 -3,-5 0,-193 -107,0 0,-103 -269,3 0,-102 -49,-1 2,-65 -66,10 -51,-40 -30,3 -98,-31 -5,-17 -140,-86 -35,1 3,-173 13,-38 -20,-91 14,-29 46,4 13,-37 83,-47 110,-28 46,-41 24,-49 0,-5 -4,-41 0,-5 -2,-5 7,-20 5,-4 5,-86 5,-10 0,-2 0,2 0,-2 35,-149 422,1Z"/>
    <path data-fips-int="4007" data-name="Gila County" d="M1700,1566l-2,10 -1,5 -9,5 27,3 -1,2 -4,0 -15,6 -1,-3 1,3 -5,5 10,9 7,-9 7,0 1,0 -1,0 1,0 2,0 -2,0 -1,7 0,5 17,-15 3,0 10,-2 7,2 -3,3 -8,24 1,0 16,-2 -6,-15 7,-3 0,-4 2,0 -2,0 2,0 14,-3 0,7 0,1 17,-1 31,-15 42,30 0,-4 0,4 0,-4 27,9 11,0 18,11 5,0 6,4 1,0 -1,0 1,0 13,8 70,48 3,0 7,-5 -1,-3 7,-5 7,-10 27,23 2,156 363,-5 4,247 2,65 -83,1 -10,13 -73,10 -49,29 -1,110 0,-2 -55,26 -51,20 -56,80 -83,-154 -45,-127 -56,-123 -34,43 -79,-83 3,-40 -10,-35 -4,-3 0,-22 -32,-50 -11,4 15,-35 -10,-53 -111,0 3,-17 23,-121 31,-20 19,-30 3,5 14,-12Z"/>
    <path data-fips-int="4009" data-name="Graham County" d="M2678,2045l8,336 82,136 35,8 -7,35 40,35 -10,95 57,65 -659,13 0,-50 -4,-395 0,-2 0,2 1,-110 49,-29 73,-10 10,-13 83,-1 -2,-65 53,5 0,-2 41,40 23,13 49,-63Z"/>
    <path data-fips-int="4011" data-name="Greenlee County" d="M2894,1967l22,786 -33,2 -57,-65 10,-95 -40,-35 7,-35 -35,-8 -82,-136 -8,-336 22,-34 46,-11 2,-30Z"/>
    <path data-fips-int="4012" data-name="La Paz County" d="M821,1666l-3,186 -6,364 -303,-7 0,-49 -150,-4 -6,243 -10,10 -111,0 -73,-5 -20,-42 17,-46 -3,-55 -23,-17 5,-58 41,-7 59,-76 -7,-23 24,-64 -17,-133 48,-53 6,-43 84,-45 62,-48 -3,-25 49,25 105,18 82,7 53,-49 85,10Z"/>
    <path data-fips-int="4013" data-name="Maricopa County" d="M1707,1857l11,-4 32,50 0,22 4,3 10,35 -3,40 79,83 34,-43 56,123 -263,2 -2,153 -246,0 -54,-43 -3,-17 0,467 -557,-5 7,-507 6,-364 286,3 224,70 17,-18 39,-78 210,28Z"/>
    <path data-fips-int="4015" data-name="Mohave County" d="M1212,104l-35,149 0,2 0,-2 0,2 -5,10 -5,86 -5,4 -7,20 2,5 0,5 4,41 0,5 -24,49 -46,41 -110,28 -83,47 -13,37 -46,-4 -14,29 20,91 -13,38 -3,173 -8,706 -15,14 -85,-10 -53,49 -82,-7 -105,-18 -49,-25 -94,-92 -59,-151 -40,-33 -34,-57 -6,-138 37,-23 -20,-155 -24,-66 13,-55 -23,-55 1,-83 22,-14 -33,-41 7,-52 -17,-35 61,-30 59,10 64,-6 57,73 46,-2 52,-98 7,-471 481,9Z"/>
    <path data-fips-int="4017" data-name="Navajo County" d="M2395,99l16,776 82,0 -6,85 11,607 2,410 -16,0 3,121 0,2 -53,-5 -4,-247 -363,5 -2,-156 -4,-261 -13,-1113 -1,-223Z"/>
    <path data-fips-int="4019" data-name="Pima County" d="M2224,2718l0,50 4,103 2,305 -353,5 1,121 -101,0 0,55 -523,-193 -365,-133 -87,-35 3,-273 557,5 515,2 0,-8Z"/>
    <path data-fips-int="4021" data-name="Pinal County" d="M1930,2166l45,127 83,154 56,-80 51,-20 55,-26 0,2 4,395 -347,4 0,8 -515,-2 0,-467 3,17 54,43 246,0 2,-153Z"/>
    <path data-fips-int="4023" data-name="Santa Cruz County" d="M2230,3176l0,233 -309,1 -144,-53 0,-55 101,0 -1,-121Z"/>
    <path data-fips-int="4025" data-name="Yavapai County" d="M1677,1581l-19,30 -31,20 -23,121 -3,17 111,0 10,53 -15,35 -113,0 -210,-28 -39,78 -17,18 -224,-70 -286,-3 3,-186 8,-706 35,-1 140,86 5,17 98,31 30,-3 51,40 66,-10 -2,65 49,1 0,102 269,-3 0,103 107,0Z"/>
    <path data-fips-int="4027" data-name="Yuma County" d="M812,2216l-7,507 -3,273 -107,-40 -617,-239 2,-75 49,-62 66,-1 57,-64 3,-38 -23,-68 111,0 10,-10 6,-243 150,4 0,49Z"/>
  </g>
  <g class="cities">
    <circle r="3" cx="142.7" cy="218.0"/>
    <text x="142.7" y="218.0">Phoenix</text>
    <circle r="3" cx="199.3" cy="289.4"/>
    <text x="199.3" y="289.4">Tucson</text>
    <circle r="3" cx="154.9" cy="219.5"/>
    <text x="154.9" y="219.5">Mesa</text>
  </g>
</svg>