<?xml version="1.0" encoding="utf-8"?>
<!DOCTYPE svg PUBLIC "-//W3C//DTD SVG 1.1//EN" "http://www.w3.org/Graphics/SVG/1.1/DTD/svg11.dtd">
<svg version="1.1" xmlns="http://www.w3.org/2000/svg" width="860" height="1000" viewBox="0 0 860 1000">
  <path class="state" d="M802,24h9v39h2v58l2,2v57l1,1v58l2,2v58l2,3v52l1,3v54l2,8v52l2,2v59l1,2v54l2,3v55l1,5v55l2,2v58l2,5v55l1,3v62l1,1v27l1,1v32l1,3v14l-29,1h-6l-14,1h-23l-16,1h-37l-66,2h-98l-40,-15 -5,-2 -21,-7 -16,-6 -15,-6 -16,-5 -30,-11 -47,-18 -20,-7 -22,-9 -17,-6 -15,-5 -38,-15 -6,-2 -11,-4 -65,-25 -16,-7 -39,-15h-2l-12,-5 -8,-4 -23,-8 -10,-4 -29,-11 -4,-1v-3h2l-2,-1v-2h2v-4h2v-3v1h-2l-2,-1 2,-1v-7l2,-1v1v-1l2,-1 1,-1 1,-1v-1l1,-1v-1l1,-2v-1l2,-1 1,-1v-2l2,-3 1,-2v-1l2,-1v1h1v1h5l1,1h2l2,1h1v-1h5v-2h2v-1h3v-1h2v-2l-1,-2v-2l1,-2 2,-2 1,-1h3l2,-3 1,-5v-2l1,-2v-3l-1,-1h-1v-4l1,-1v-4h-2v1l-1,-1v-2h-1v-4l-1,-1v-1l-1,-1 -1,-1 -5,-1h-3v1h-1l-2,1 -4,-2 -2,-1v-1l-1,1 -1,1 -2,-1v-1h-1v-2l-1,-1v-3l-2,-1 4,-16v-8h-1l-1,-3h1l1,-1h1v-2h-1l-1,-2h-4l-2,-5 2,-1 1,-2v-1l2,-1v-4l-2,-2v-3h-1v-1l1,-1h2v-1l1,-1h1l4,1 4,-3v-4l1,-1 1,-1 3,-3v-2l2,-2h1l1,-1v-1l1,-1 4,-3 1,-1h-1v-1l-1,-1v-2h-1v-3l1,-1 1,-3v-2l2,-5h-1l3,-5 1,-1 1,-1v-2l-1,-1 -1,-2v-7l-1,-1v-3h-1v-3l1,-1 -1,-3 -1,-1v-2h3v-1h1v-3h-2v-3l1,1v-3l-3,-2v-4h1l2,-2v1l2,-1 1,-1 1,-1 1,-1v-1l1,-1h2v-1l3,-4v-5l1,-7 1,-1h1l1,-1h3l1,-1 3,-1 1,-2h4v-1h1l1,-1v-2h2v-1l3,-1h2l1,-1 1,-1 2,-1v-1l5,-4 2,-3h1v-1l1,-1 1,-1h3v-8l-1,-1 -2,-3 -1,-1v-2h-1v-1h-2l-1,-1 -2,-1h-2l-1,-1v-2h-1l-1,-1v-1l-2,-1v-1h-3l-1,-2v-1l-1,-1v-1h-2l-1,-1 -1,-1v-1h-6l-1,-3 1,-1v-7l-7,-18 -1,-1v-2l-1,-2 -1,-1v-1h1v-1h-1v-2h-1l-1,-2v-3h-1l-2,-1 -1,-1v-1l-1,-1 -1,-1 -1,-1h-1l-1,-1 -1,-2 -1,-1 -1,-1v-1l-1,-1v-1h-1v-3h-1v-2l-1,-1v-2l-1,-1h-1l-1,-1 -2,-9v-12l1,-1v-2l-1,-1v-1l4,-11v-1h-1l-2,-2h-2v-1l1,-3 2,-1h1l6,-3v-11h-1v-6l-4,-22 -2,-5v-1l-4,-9 -2,-4v-2l2,-3 1,-1v-17l-3,-3 -2,-10 1,-9 -1,-6v-8l5,-4h1v-1l-4,-4 -1,-1 -1,-1v-5l-4,-3v-6l3,-6v-1l-3,-1v-9l4,-2h1l1,-1h3v1v-1l2,-1 11,-5 10,2v2h8l11,-2v1l2,2v1l3,3h1l1,1v1l1,2v1h-1v1l3,2h1l2,3v1l1,1 2,1 1,1h2l10,-2 5,-11 -1,-1 3,-3v-1l8,-13v-31l1,-3v-83l1,-18 4,1h7l67,1 64,2h270l5,-2h111l4,-1h40l8,-1h11Z"/>
  <g class="subcounties">
    <path data-geo-id="404" data-name="Congressional District 4" d="M48,176l4,-2h1l1,-1h3v1v-1l2,-1 11,-5 10,2v2h8l11,-2v1l2,2v1l3,3h1l1,1v1l1,2v1h-1v1l3,2h1l2,3v1l1,1 2,1 1,1h2l10,-2 5,-11 -1,-1 3,-3v-1l8,-13v-31l1,-3v-83l1,-18 4,1h7l67,1 64,2h20l1,29 30,1v4h-3v1h-1v2l1,1h-1v2h1h-1l1,1v1v-1h-1v1h1h-1v1h1h-1v2l1,1h-1v5l-1,1v2h1h-1v2l1,1h-1h1v14h-1v1h1v1h-1v-1h-1v1h-1l-1,1v1h1l-1,1h-1v1h1l-1,1v1h1v3h1v1h1v1h-1l1,1v-1l1,1h-1h1v2v-2h1v5l-2,1v1h-1h1v1h1l-1,1v-1v1v-1h-1v1h1v2h1l1,-1v7h-2l-1,2 -1,2v1h-1l-1,2h-1l-1,2v-2h-1v-2h-1l-1,2h-3v2l1,1v1l-1,1 -1,-1h-2l-1,-1v3h-5v5l-1,-1h-4l-1,1v1h-1l-1,-1h-3v1h-1v2l-1,1 -1,1h-1v-1h-3v1l-1,2h-3v1h-5l-1,-1h-2v1h-1l-1,1h-1v1h-1v1h-1l-1,1h-1l-1,1h-2v1l-1,1h-1l-1,1h-1v1h-1v1h-1l-1,1h-1v-1h-1v-1l-1,1h-1v1h-1v1h-1v1h-1l-1,1v2h-1l1,2v1l-1,1h-1v1l-1,1v1h-10l-2,-1 -1,1 -1,1v3h-1l-1,1 -1,1 -1,1v6h1v1l1,1v4h3v3h-1v6h-1v3h1v1h1v1l1,1v1h-1v5h-1v4h-1v3l-1,1 -6,9 -18,-3 -13,-15 -4,6 -10,-11v-8l-9,-10 -3,-10 -13,-7 -1,51 -5,4 -3,-3 -10,8 7,3 6,12 5,-8 10,3v-4l28,34h36l2,-2 1,-1v-2h10l1,1 1,1h2l2,1h5v1h1v1l1,1h1v2h1v1h1v1h4v2h2l2,1 10,8h1v1h2l1,1h1v1l1,1v1l1,3 1,1h3l1,1h4l1,1h2l2,1 2,1h3l1,1h1l2,1v1v-1h1v1h3v1h5l3,-1 2,1h1v1h1l1,2h1v-1l1,-1h2l1,1 1,1v3l1,1h1v1l2,1 1,1 1,1h3l1,1 3,-1h6l1,-1 1,-1h1v-1h1l1,-1v3l-1,1v15h15v30h45l-10,15 3,13 21,-3 2,19 -6,5 -2,6 4,15 18,13 3,16 13,12v-2h1v-2h-1v-4l1,-1v-1h1l-1,-1v-2h1v-1h2v-1v1h1v-1h1l1,-1h1l1,-1v-2h4v-2h2v-1h1v-6v1h1v1v-1h1v-1v1v-1h2v-1h1h-1h1h-1v-3h1v1h1v-1h1h-1v4v-1v2h-3v1h-1v1h2v-1h1v1h1v-1h2v-1l1,1v-1h1v1h1v-1v2h-1h1h-3v1h-1v1h-1v1v-1h-1v-1h-1l1,1v-1v4h-1v-1h-1v-1v2h-1v-1v1l-1,1v1h5v-1l1,-1v1h1v-3v1l2,-1v1v-1h1v1v-1h1l-1,1v1h-1h1v1v-1v1h-1h1v1h-1h2v1v-3h2v-2h1v1v-2l1,1v-2l1,1v-1h1l1,1v-1v1h1v-1v1h1h-1v2v-1h-1v1v-1h-1v2l-1,1h1h-1h1v1h-1h1v3l-1,1v1h1v-1v1h1v-1v2h1v-1v1h1l1,-1 1,-1v1v-1h1h-1v-1h-3v-2l1,-1v-3v1h2v-1h1h-1h1v-1h1v-1v1h2v-1h1v2h-1h1v1h-1h5v-1l1,1v-2h1v1h1v-1h2v-1h1v-1l1,1v-1v1h1v-1h1v-1h1v2h1v2h2v2h1v2v-1h2v1h2v-1l1,1v1h2v-1v1h2v4h1v-2v1l2,-1v1v-1h2v1h1v-1h-1h1v-1h3v2v-1h2l-2,1h2v1h2v-1v1h1l-1,1h1v-1h2v1h-2v2l-1,-1v1l1,1v1h4v-1h-2v-1h2h-2v-1h2v-1v1h3v1h-2h2v1v-1v2h2v1h1v2h1l2,1h1v1h5v2h2v1l1,1v2h2v1h2v1l1,-1v1v-1v1h2v-1h2v-1h-2l2,-1 1,-1h-1h1l-1,-1v-1h-2v-2h-2h2v2h3v1v-1h2v-2v3v-1h2v-2v3v-1l1,-2v78l7,25 -8,7h-9l-14,12 -5,-7 -6,-23 -5,-9 -5,14 -18,11 -1,2h-4v2h1v1l1,1v1h1v1h1v-1l1,1v1h2v2h1v-2l2,-1v-3l2,-1 5,-5h1v3l2,2 2,3v2l1,1v3l2,1v2l1,1v3l2,1v2l2,1v2l1,2 2,4v2l2,3 1,4 2,1 2,6v2l1,2 3,2v4l1,6v1l-20,-5 5,15v4h-13v17l-21,1 2,12 -6,5h-15l-9,-5v-17h-24v-14h15v-44l-14,-6 5,-7 3,-29 -8,-7 -12,1v-10h-10l1,-6 -1,-8 -14,5 -1,-5h-16l-4,-13 -8,10v1v-1v1l-13,2 -6,14 1,12 -6,-1v-2l-10,1h-7v-9h-10l1,11h-9l-7,17h20l2,30 -19,6 -42,-12 -45,-10 -15,-2v31l-1,8v93h-41l-17,7v4l-29,5 -2,12 -56,-1v-6h-26l-8,5 -4,-5 3,-17v-1h5v-2h2v-1h3v-1h2v-2l-1,-2v-2l1,-2 2,-2 1,-1h3l2,-3 1,-5v-2l1,-2v-3l-1,-1h-1v-4l1,-1v-4h-2v1l-1,-1v-2h-1v-4l-1,-1v-1l-1,-1 -1,-1 -5,-1h-3v1h-1l-2,1 -4,-2 -2,-1v-1l-1,1 -1,1 -2,-1v-1h-1v-2l-1,-1v-3l-2,-1 4,-16v-8h-1l-1,-3h1l1,-1h1v-2h-1l-1,-2h-4l-2,-5 2,-1 1,-2v-1l2,-1v-4l-2,-2v-3h-1v-1l1,-1h2v-1l1,-1h1l4,1 4,-3v-4l1,-1 1,-1 3,-3v-2l2,-2h1l1,-1v-1l1,-1 4,-3 1,-1h-1v-1l-1,-1v-2h-1v-3l1,-1 1,-3v-2l2,-5h-1l3,-5 1,-1 1,-1v-2l-1,-1 -1,-2v-7l-1,-1v-3h-1v-3l1,-1 -1,-3 -1,-1v-2h3v-1h1v-3h-2v-3l1,1v-3l-3,-2v-4h1l2,-2v1l2,-1 1,-1 1,-1 1,-1v-1l1,-1h2v-1l3,-4v-5l1,-7 1,-1h1l1,-1h3l1,-1 3,-1 1,-2h4v-1h1l1,-1v-2h2v-1l3,-1h2l1,-1 1,-1 2,-1v-1l5,-4 2,-3h1v-1l1,-1 1,-1h3v-8l-1,-1 -2,-3 -1,-1v-2h-1v-1h-2l-1,-1 -2,-1h-2l-1,-1v-2h-1l-1,-1v-1l-2,-1v-1h-3l-1,-2v-1l-1,-1v-1h-2l-1,-1 -1,-1v-1h-6l-1,-3 1,-1v-7l-7,-18 -1,-1v-2l-1,-2 -1,-1v-1h1v-1h-1v-2h-1l-1,-2v-3h-1l-2,-1 -1,-1v-1l-1,-1 -1,-1 -1,-1h-1l-1,-1 -1,-2 -1,-1 -1,-1v-1l-1,-1v-1h-1v-3h-1v-2l-1,-1v-2l-1,-1h-1l-1,-1 -2,-9v-12l1,-1v-2l-1,-1v-1l4,-11v-1h-1l-2,-2h-2v-1l1,-3 2,-1h1l6,-3v-11h-1v-6l-4,-22 -2,-5v-1l-4,-9 -2,-4v-2l2,-3 1,-1v-17l-3,-3 -2,-10 1,-9 -1,-6v-8l5,-4h1v-1l-4,-4 -1,-1 -1,-1v-5l-4,-3v-6l3,-6v-1l-3,-1v-6Z"/>
    <path data-geo-id="403" data-name="Congressional District 3" d="M21,773h2l-2,-1v-2h2v-4h2v-3v1h-2l-2,-1 2,-1v-7l2,-1v1v-1l2,-1 1,-1 1,-1v-1l1,-1v-1l1,-2v-1l2,-1 1,-1v-2l2,-3 1,-2v-1l2,-1v1h1v1h5l1,1h2l2,1h1l-3,17 4,5 8,-5h26v6l56,1 2,-12 29,-5v-4l17,-7h41v-93l1,-8v-31l15,2 45,10 42,12 19,-6 3,6h13l3,-13 7,-1h4l1,7 -7,6 10,1 -3,6 -10,1h1v23h14v94l7,-7h14v-7h25v-4h14l5,11 -8,7v30h30l3,1h1l1,-1h27l7,8 1,10 9,-1v5l14,-2v8h8l1,4 4,9h14v8l8,8 3,6v-1v1l2,7h-10v11l-10,2 2,7h-11l-3,8 1,12 2,19h29v-1h16l5,-1h37v18l-2,2v17l2,3v27h-89l-40,-15 -5,-2 -21,-7 -16,-6 -15,-6 -16,-5 -30,-11 -47,-18 -20,-7 -22,-9 -17,-6 -15,-5 -38,-15 -6,-2 -11,-4 -65,-25 -16,-7 -39,-15h-2l-12,-5 -8,-4 -23,-8 -10,-4 -29,-11 -4,-1v-1Z"/>
    <path data-geo-id="408" data-name="Congressional District 8" d="M347,573l-1,-11h10v9h7l10,-1v2l6,1 -1,-12 6,-14 13,-2v-1v1v-1l8,-10 4,13h5v17l-11,3 -3,1 -4,18v19h-15l2,7h-4l-7,1 -3,13h-13l-3,-6 -2,-30h-20l7,-17Z"/>
    <path data-geo-id="407" data-name="Congressional District 7" d="M383,612l-2,-7h15l5,2 6,10h13v17l-5,9 -18,3 -13,-14 3,-6 -10,-1 7,-6Z"/>
    <path data-geo-id="409" data-name="Congressional District 9" d="M397,646l18,-3 5,-9v-17h-13l-6,-10 3,-6 8,3 20,13 -3,8 12,-5 4,14h-5l2,14h-43Z"/>
    <path data-geo-id="406" data-name="Congressional District 6" d="M403,567l11,-3v-17h11l1,5 14,-5 1,8 -1,6h10v10l12,-1 8,7 -3,29 -5,7 -8,3 -13,4 -12,5 3,-8 -20,-13 -8,-3 -3,6 -5,-2v-19l4,-18Z"/>
    <path data-geo-id="405" data-name="Congressional District 5" d="M432,648h10l-2,-14h5l-4,-14 13,-4 8,-3 14,6v44h-44Z"/>
    <path data-geo-id="401" data-name="Congressional District 1" d="M152,231l3,3 5,-4 1,-51 13,7 3,10 9,10v8l10,11 4,-6 13,15 18,3 6,-9 1,-1v-3h1v-4h1v-5h1v-1l-1,-1v-1h-1v-1h-1v-3h1v-6h1v-3h-3v-4l-1,-1v-1h-1v-6l1,-1 1,-1 1,-1h1v-3l1,-1 1,-1 2,1h10v-1l1,-1v-1h1l1,-1v-1l-1,-2h1v-2l1,-1h1v-1h1v-1h1v-1h1l1,-1v1h1v1h1l1,-1h1v-1h1v-1h1l1,-1h1l1,-1v-1h2l1,-1h1l1,-1h1v-1h1v-1h1l1,-1h1v-1h2l1,1h5v-1h3l1,-2v-1h3v1h1l1,-1 1,-1v-2h1v-1h3l1,1h1v-1l1,-1h4l1,1v-5h5v-3l1,1h2l1,1 1,-1v-1l-1,-1v-2h3l1,-2h1v2h1v2l1,-2h1l1,-2h1v-1l1,-2 1,-2h2v-7l-1,1h-1v-2h-1v-1h1v1v-1v1l1,-1h-1v-1h-1h1v-1l2,-1v-5h-1v2v-2h-1h1l-1,-1v1l-1,-1h1v-1h-1v-1h-1v-3h-1v-1l1,-1h-1v-1h1l1,-1h-1v-1l1,-1h1v-1h1v1h1v-1h-1v-1h1v-14h-1h1l-1,-1v-2h1h-1v-2l1,-1v-5h1l-1,-1v-2h1h-1v-1h1h-1v-1h1v1v-1l-1,-1h1h-1v-2h1l-1,-1v-2h1v-1h3v-4l-30,-1 -1,-29h250l5,-2h111l4,-1h40l8,-1h11l66,-1h9v39h2v58l2,2v57l1,1v58l2,2v58l2,3v52l1,3v54l2,8v52l2,2v59l1,2v54l2,3v55l1,5v55l2,2v58l2,5v16h-26l-4,1h-38l-5,1h-40l-18,1h-25l-5,1h-35l-2,-1v-13h-42l-5,1h-11l-5,17h-5l-3,9 -8,-4 -8,-2v8h4v4l-4,2 -1,-4h-8v-8l-14,2v-5l-9,1 -1,-10 -7,-8h-27l-1,1h-1l-3,-1h-30v-30l8,-7 -5,-11h-14v4h-25v7h-14l-7,7v-94h-14v-23h-1l10,-1 13,14 2,2h33v15h29v14h24v17l9,5h15l6,-5 -2,-12 21,-1v-17h13v-4l-5,-15 20,5v-1l-1,-6v-4l-3,-2 -1,-2v-2l-2,-6 -2,-1 -1,-4 -2,-3v-2l-2,-4 -1,-2v-2l-2,-1v-2l-2,-1v-3l-1,-1v-2l-2,-1v-3l-1,-1v-2l-2,-3 -2,-2v-3h-1l-5,5 -2,1v3l-2,1v2h-1v-2h-2v-1l-1,-1v1h-1v-1h-1v-1l-1,-1v-1h-1v-2h4l1,-2 18,-11 5,-14 5,9 6,23 5,7 14,-12h9l8,-7 -7,-25v-78l-1,2v1v-3v2h-2v1v-3v2h-2v1v-1h-3v-2h-2h2v2h2v1l1,1h-1h1l-1,1 -2,1h2v1h-2v1h-2v-1v1v-1l-1,1v-1h-2v-1h-2v-2l-1,-1v-1h-2v-2h-5v-1h-1l-2,-1h-1v-2h-1v-1h-2v-2v1v-1h-2h2v-1h-3v-1v1h-2v1h2h-2v1h2v1h-4v-1l-1,-1v-1l1,1v-2h2v-1h-2v1h-1l1,-1h-1v-1v1h-2v-1h-2l2,-1h-2v1v-2h-3v1h-1h1v1h-1v-1h-2v1v-1l-2,1v-1v2h-1v-4h-2v-1v1h-2v-1l-1,-1v1h-2v-1h-2v1v-2h-1v-2h-2v-2h-1v-2h-1v1h-1v1h-1v-1v1l-1,-1v1h-1v1h-2v1h-1v-1h-1v2l-1,-1v1h-5h1v-1h-1h1v-2h-1v1h-2v-1v1h-1v1h-1h1h-1v1h-2v-1v3l-1,1v2h3v1h1h-1v1v-1l-1,1 -1,1h-1v-1v1h-1v-2v1h-1v-1v1h-1v-1l1,-1v-3h-1h1v-1h-1h1h-1l1,-1v-2h1v1v-1h1v1v-2h1h-1v-1v1h-1v-1v1l-1,-1h-1v1l-1,-1v2l-1,-1v2v-1h-1v2h-2v3v-1h-2h1v-1h-1h1v-1v1v-1h-1h1v-1l1,-1h-1v1v-1h-1v1v-1l-2,1v-1v3h-1v-1l-1,1v1h-5v-1l1,-1v-1v1h1v-2v1h1v1h1v-4v1l-1,-1h1v1h1v1v-1h1v-1h1v-1h3h-1h1v-2v1h-1v-1h-1v1l-1,-1v1h-2v1h-1v-1h-1v1h-2v-1h1v-1h3v-2v1v-4h1h-1v1h-1v-1h-1v3h1h-1h1h-1v1h-2v1v-1v1h-1v1v-1h-1v-1v6h-1v1h-2v2h-4v2l-1,1h-1l-1,1h-1v1h-1v-1v1h-2v1h-1v2l1,1h-1v1l-1,1v4h1v2h-1v2l-13,-12 -3,-16 -18,-13 -4,-15 2,-6 6,-5 -2,-19 -21,3 -3,-13 10,-15h-45v-30h-15v-15l1,-1v-3l-1,1h-1v1h-1l-1,1 -1,1h-6l-3,1 -1,-1h-3l-1,-1 -1,-1 -2,-1v-1h-1l-1,-1v-3l-1,-1 -1,-1h-2l-1,1v1h-1l-1,-2h-1v-1h-1l-2,-1 -3,1h-5v-1h-3v-1h-1v1v-1l-2,-1h-1l-1,-1h-3l-2,-1 -2,-1h-2l-1,-1h-4l-1,-1h-3l-1,-1 -1,-3v-1l-1,-1v-1h-1l-1,-1h-2v-1h-1l-10,-8 -2,-1h-2v-2h-4v-1h-1v-1h-1v-2h-1l-1,-1v-1h-1v-1h-5l-2,-1h-2l-1,-1 -1,-1h-10v2l-1,1 -2,2h-36l-28,-34v4l-10,-3 -5,8 -6,-12 -7,-3Z"/>
    <path data-geo-id="402" data-name="Congressional District 2" d="M577,843v-1v1l-3,-6 -8,-8v-8h-14l-4,-9 4,-2v-4h-4v-8l8,2 8,4 3,-9h5l5,-17h11l5,-1h42v13l2,1h35l5,-1h25l18,-1h40l5,-1h38l4,-1h26v39l1,3v62l1,1v27l1,1v32l1,3v14l-29,1h-6l-14,1h-23l-16,1h-37l-66,2h-9v-27l-2,-3v-17l2,-2v-18h-37l-5,1h-16v1h-29l-2,-19 -1,-12 3,-8h11l-2,-7 10,-2v-11h10Z"/>
  </g>
  <path class="mesh" d="M537,465v1v-1M518,456v-1v1h1v-1h1v-1h1v2h1v2h2v2h1v2v-1h2v1h2v-1l1,1v1h2M498,466v-1v2h1v-1v1h1l1,-1 1,-1v1v-1h1h-1v-1h-3v-2l1,-1v-3v1h2v-1h1h-1h1v-1h1v-1v1h2v-1h1v2h-1h1v1h-1h5v-1l1,1v-2h1v1h1v-1h2v-1h1v-1l1,1M575,485v-1v1M548,468v-1h2v1h-2v2l-1,-1v1l1,1v1h4v-1h-2v-1h2h-2v-1h2v-1v1h3v1h-2h2v1v-1v2h2v1h1v2h1l2,1h1v1h5v2h2v1l1,1v2h2v1h2v1l1,-1v1h2v-1h2v-1h-2l2,-1 1,-1h-1h1l-1,-1v-1h-2v-2h-2h2M479,452v-1v1M487,458v-1v1M489,457v1v-1M577,479h3v1v-1h2v-2v3v-1h2v-2v3v-1l1,-2v78l7,25 -8,7h-9l-14,12 -5,-7 -6,-23 -5,-9 -5,14 -18,11 -1,2h-4v2h1v1l1,1v1h1v1h1v-1l1,1v1h2v2h1v-2l2,-1v-3l2,-1 5,-5h1v3l2,2 2,3v2l1,1v3l2,1v2l1,1v3l2,1v2l2,1v2l1,2 2,4v2l2,3 1,4 2,1 2,6v2l1,2 3,2v4l1,6v1l-20,-5 5,15v4h-13v17l-21,1 2,12 -6,5h-15l-9,-5v-17h-24v-14h15v-44l-14,-6 5,-7 3,-29 -8,-7 -12,1v-10h-10l1,-6 -1,-8 -14,5 -1,-5h-16l-4,-13 -8,10v1v-1v1l-13,2 -6,14 1,12 -6,-1v-2l-10,1h-7v-9h-10l1,11h-9l-7,17h20l2,30 -19,6 -42,-12 -45,-10 -15,-2v31l-1,8v93h-41l-17,7v4l-29,5 -2,12 -56,-1v-6h-26l-8,5 -4,-5 3,-17M307,29l1,29 30,1v4h-3v1h-1v2l1,1h-1v2h1h-1l1,1v1v-1h-1v1h1h-1v1h1h-1v2l1,1h-1v5l-1,1v2h1h-1v2l1,1h-1h1v14h-1v1h1v1h-1v-1h-1v1h-1l-1,1v1h1l-1,1h-1v1h1l-1,1v1h1v3h1v1h1v1h-1l1,1v-1l1,1h-1h1v2v-2h1v5l-2,1v1h-1h1v1M353,620l3,6h13l3,-13 7,-1h4l1,7 -7,6 10,1 -3,6 -10,1h1v23h14v94l7,-7h14v-7h25v-4h14l5,11 -8,7v30h30l3,1h1l1,-1h27l7,8 1,10 9,-1v5l14,-2v8h8l1,4 4,9h14v8l8,8 3,6v-1v1l2,7h-10v11l-10,2 2,7h-11l-3,8 1,12 2,19h29v-1h16l5,-1h37v18l-2,2v17l2,3v27M414,547v17l-11,3 -3,1 -4,18v19h-15l2,7M396,605l5,2 6,10h13v17l-5,9 -18,3 -13,-14M401,607l3,-6 8,3 20,13 -3,8 12,-5 4,14h-5l2,14h-43l-2,-2M462,613l-8,3 -13,4M461,663h-29v-15M497,465v1v-1M332,122h1l-1,1v-1h-1v1h1v2h1l1,-1v7h-2l-1,2 -1,2v1h-1l-1,2h-1l-1,2v-2h-1v-2h-1l-1,2h-3v2l1,1v1l-1,1 -1,-1h-2l-1,-1v3h-5v5l-1,-1h-4l-1,1v1h-1l-1,-1h-3v1h-1v2l-1,1 -1,1h-1v-1h-3v1l-1,2h-3v1h-5l-1,-1h-2v1h-1l-1,1h-1v1h-1v1h-1l-1,1h-1l-1,1h-2v1l-1,1h-1l-1,1h-1v1h-1v1h-1l-1,1h-1v-1h-1v-1l-1,1h-1v1h-1v1h-1v1h-1l-1,1v2h-1l1,2v1l-1,1h-1v1l-1,1v1h-10l-2,-1 -1,1 -1,1v3h-1l-1,1 -1,1 -1,1v6h1v1l1,1v4h3v3h-1v6h-1v3h1v1h1v1l1,1v1h-1v5h-1v4h-1v3l-1,1 -6,9 -18,-3 -13,-15 -4,6 -10,-11v-8l-9,-10 -3,-10 -13,-7 -1,51 -5,4 -3,-3 -10,8 7,3 6,12 5,-8 10,3v-4l28,34h36l2,-2 1,-1v-2h10l1,1 1,1h2l2,1h5v1h1v1l1,1h1v2h1v1h1v1h4v2h2l2,1 10,8h1v1h2l1,1h1v1l1,1v1l1,3 1,1h3l1,1h4l1,1h2l2,1 2,1h3l1,1h1l2,1v1v-1h1v1h3v1h5l3,-1 2,1h1v1h1l1,2h1v-1l1,-1h2l1,1 1,1v3l1,1h1v1l2,1 1,1 1,1h3l1,1 3,-1h6l1,-1 1,-1h1v-1h1l1,-1v3l-1,1v15h15v30h45l-10,15 3,13 21,-3 2,19 -6,5 -2,6 4,15 18,13 3,16 13,12v-2h1v-2h-1v-4l1,-1v-1h1l-1,-1v-2h1v-1h2v-1v1h1v-1h1l1,-1h1l1,-1v-2h4v-2h2v-1h1v-5h1v1v-1h1v-1v1v-1h2v-1h1h-1h1h-1v-3h1v1h1v-1h1h-1v4v-1v2h-3v1h-1v1h2v-1h1v1h1v-1h2v-1l1,1v-1h1v1h1v-1v2h-1h1h-3v1h-1v1h-1v1v-1h-1v-1h-1l1,1v-1v4h-1v-1h-1v-1v2h-1v-1v1l-1,1v1h5v-1l1,-1v1h1v-2l2,-1h1v1v-1h1l-1,1v1h-1h1v1h-1h1v-1v2h-1h2v1v-3h2v-2h1v1v-2l1,1v-2l1,1v-1h1l1,1v-1v1h1v-1v1h1h-1v2v-1h-1v1v-1h-1v2l-1,1h1h-1h1v1h-1h1v3l-1,1v1h2M833,787h-26l-4,1h-38l-5,1h-40l-18,1h-25l-5,1h-35l-2,-1v-13h-42l-5,1h-11l-5,17h-5l-3,9 -8,-4 -8,-2v8h4v4l-4,2M532,463v-1v1h2v4h1v-2v1l2,-1h2v1h1v-1h-1h1v-1h3v2v-1h2l-2,1h2v1h2v-1v1h1l-1,1h1M577,477M577,477M577,477M577,479M577,479M577,479M577,479M577,479M577,479M577,477M577,477M577,477M577,477M577,477M577,477M577,477M577,479M577,477v2"/>
  <g class="cities">
    <circle r="7" cx="408" cy="623"/>
    <text x="408" y="623">Phoenix</text>
    <circle r="7" cx="569" cy="827"/>
    <text x="569" y="827">Tucson</text>
    <circle r="7" cx="50" cy="738"/>
    <text x="50" y="738">Yuma</text>
  </g>
</svg>