<?xml version="1.0" encoding="utf-8"?>
<!DOCTYPE svg PUBLIC "-//W3C//DTD SVG 1.1//EN" "http://www.w3.org/Graphics/SVG/1.1/DTD/svg11.dtd">
<svg version="1.1" xmlns="http://www.w3.org/2000/svg" width="860" height="1000" viewBox="0 0 860 1000">
  <path class="state" d="M826,562l5,145 2,80 1,42v62l2,29 1,49 -88,3 -112,2h-57h-32l-40,-15 -84,-30 -59,-23 -111,-40 -25,-10 -71,-27 -137,-53 2,-22 8,-6 8,-14 17,3 16,-18v-22l-6,-9 -23,-4 -4,-10 4,-8 2,-17 -8,-8 5,-10 -3,-7 11,-1 2,-7 14,-16v-19l6,-6 -5,-26 4,-4 -4,-11 14,-12 3,-14 8,-1 19,-13 12,-18 -22,-22 -11,-3 1,-13 -7,-11 -5,-20 -13,-12 -9,-15v-26l5,-5 -3,-11 8,-2 1,-9 -6,-33 -6,-10 2,-29 -4,-10 -2,-29 6,-2 -10,-13 -1,-25 33,-9v4l19,-2 16,22 13,-2 1,-7 14,-21 1,-35v-83l1,-18 50,2h63l1,2h87h211l27,-2h89l10,-1h39l36,-2h53l2,69 2,59 3,89v30l2,57v26l5,119Z"/>
  <g class="counties">
    <path data-fips-int="4001" data-name="Apache County" d="M826,562l-42,1v8l-13,3 -6,10 -10,4 -24,20 -3,6 -18,-14 -1,-35h4v-15v-103l-3,-10 2,-23v-85l-2,-55h2v-24h-24l-2,-88 -1,-128 -2,-8h39l36,-2h53l2,69 2,59 3,89v30l2,57v26l5,119Z"/>
    <path data-fips-int="4003" data-name="Cochise County" d="M823,787h10l1,42v62l2,29 1,49 -88,3 -112,2 -2,-47 2,-20v-88l-2,-28Z"/>
    <path data-fips-int="4005" data-name="Coconino County" d="M584,27l1,33v69v4v68l2,1v68v4v67l1,3v66v5v68l2,3 -6,-7 -7,6 -18,-9 -4,-7 -30,-8 -4,-7 -9,5 -15,-2 -7,4 -9,-3 9,-4 -11,-3v-55h-31v-29l-76,1v-30h-15l1,-19 -18,4 -6,-9 -19,-2 -27,-9 -2,-6 -24,-14 -4,-6 -21,-3v-46l4,-14 -6,-27 5,-8 13,1 5,-11 5,-1 15,-10 14,-2 8,-7 11,-1 9,-10 6,2 8,-9v-14l-5,-12 5,-6 -1,-18 1,-17 13,-26 -1,-9h211Z"/>
    <path data-fips-int="4007" data-name="Gila County" d="M490,454l-9,4 9,3 7,-4 15,2 9,-5 4,7 30,8 4,7 18,9 7,-6 6,7v43l17,-1h63h23l2,70v19h-23l-5,5 -19,2 -15,8v19l7,13 -7,-1 -16,9h-10l-20,27 -21,-40 -5,-20 -11,-20 -15,-35 -10,12 -16,-16 -6,-14 -4,-23 -5,1v-15l-7,1 5,-10 -2,-15h-33l2,-15 5,-9v-15l15,-9v-6Z"/>
    <path data-fips-int="4009" data-name="Graham County" d="M765,584l2,97 23,38 10,2 -2,10 10,5 2,19 -3,15 16,17 -188,4v-14v-65l-2,-49 7,1 -7,-13v-19l15,-8 19,-2 5,-5h23v-19l15,2 18,14 3,-6 24,-20Z"/>
    <path data-fips-int="4011" data-name="Greenlee County" d="M826,562l5,145 2,80h-10l-16,-17 3,-15 -2,-19 -10,-5 2,-10 -10,-2 -23,-38 -2,-97 6,-10 13,-3v-8Z"/>
    <path data-fips-int="4012" data-name="La Paz County" d="M234,476l-1,52 -1,105 -7,-1 -80,-1 1,-14 -44,-1 -1,41v31h-35l-23,-4 -4,-10 4,-8 2,-17 -8,-8 5,-10 -3,-7 11,-1 2,-7 14,-16v-19l6,-6 -5,-26 4,-4 -4,-11 14,-12 3,-14 8,-1 19,-13 12,-18 14,8 41,4 5,5 12,-3 10,-11 26,1Z"/>
    <path data-fips-int="4013" data-name="Maricopa County" d="M487,530l7,-1v15l5,-1 4,23 6,14 16,16 10,-12 15,35h-74v44h-71v-4l-14,-6 -2,-8v135h-60l-8,-1h-91l1,-82 1,-64 1,-105 5,1h78l5,3 58,17 12,-15 4,-11h7l53,7Z"/>
    <path data-fips-int="4015" data-name="Mohave County" d="M346,29l1,9 -13,26 -1,17 1,18 -5,6 5,12v14l-8,9 -6,-2 -9,10 -11,1 -8,7 -14,2 -15,10 -5,1 -5,11 -13,-1 -5,8 6,27 -4,14v46l-1,3v70l-1,57 -1,72 -3,4 -26,-1 -10,11 -12,3 -5,-5 -41,-4 -14,-8 -22,-22 -11,-3 1,-13 -7,-11 -5,-20 -13,-12 -9,-15v-26l5,-5 -3,-11 8,-2 1,-9 -6,-33 -6,-10 2,-29 -4,-10 -2,-29 6,-2 -10,-13 -1,-25 33,-9v4l19,-2 16,22 13,-2 1,-7 14,-21 1,-35v-83l1,-18 50,2h63l1,2Z"/>
    <path data-fips-int="4017" data-name="Navajo County" d="M683,26l2,8 1,128 2,88h24v24h-2l2,55v85l-2,23 3,10v103v15h-4l1,35 -15,-2 -2,-70h-23h-63l-17,1v-43l-2,-3v-68v-5v-66l-1,-3v-67v-4v-68l-2,-1v-68v-4v-69l-1,-33h89Z"/>
    <path data-fips-int="4019" data-name="Pima County" d="M635,777v14l2,28v88h-37l-21,2h-44v34h-27v16l-84,-30 -59,-23 -111,-40 -25,-10 1,-77h91l8,1h60h146v-2h53Z"/>
    <path data-fips-int="4021" data-name="Pinal County" d="M550,619l11,20 5,20 21,40 20,-27h10l16,-9 2,49v65l-47,1h-53v2h-146v-135l2,8 14,6v4h71v-44Z"/>
    <path data-fips-int="4023" data-name="Santa Cruz County" d="M637,907l-2,20 2,47h-57h-32l-40,-15v-16h27v-34h44l21,-2Z"/>
    <path data-fips-int="4025" data-name="Yavapai County" d="M479,451v6l-15,9v15l-5,9 -2,15h33l2,15 -5,10h-32l-53,-7h-7l-4,11 -12,15 -58,-17 -5,-3h-78l-5,-1 1,-52 1,-72 1,-57v-70l1,-3 21,3 4,6 24,14 2,6 27,9 19,2 6,9 18,-4 -1,19h15v30l76,-1v29h31Z"/>
    <path data-fips-int="4027" data-name="Yuma County" d="M232,633l-1,64 -1,82 -1,77 -71,-27 -137,-53 2,-22 8,-6 8,-14 17,3 16,-18v-22l-6,-9h35v-31l1,-41 44,1 -1,14 80,1Z"/>
  </g>
  <path class="mesh" d="M826,562l-42,1v8l-13,3 -6,10 -10,4 -24,20 -3,6 -18,-14 -1,-35h4v-15v-103l-3,-10 2,-23v-85l-2,-55h2v-24h-24l-2,-88 -1,-128 -2,-8M637,974l-2,-47 2,-20v-88l-2,-28 188,-4h10M584,27l1,33v69v4v68l2,1v68v4v67l1,3v66v5v68l2,3 -6,-7 -7,6 -18,-9 -4,-7 -30,-8 -4,-7 -9,5 -15,-2 -7,4 -9,-3 9,-4 -11,-3v-55h-31v-29l-76,1v-30h-15l1,-19 -18,4 -6,-9 -19,-2 -27,-9 -2,-6 -24,-14 -4,-6 -21,-3v-46l4,-14 -6,-27 5,-8 13,1 5,-11 5,-1 15,-10 14,-2 8,-7 11,-1 9,-10 6,2 8,-9v-14l-5,-12 5,-6 -1,-18 1,-17 13,-26 -1,-9M590,486v43l17,-1h63h23l2,70v19h-23l-5,5 -19,2 -15,8v19l7,13 -7,-1 -16,9h-10l-20,27 -21,-40 -5,-20 -11,-20 -15,-35 -10,12 -16,-16 -6,-14 -4,-23 -5,1v-15l-7,1 5,-10 -2,-15h-33l2,-15 5,-9v-15l15,-9v-6M765,584l2,97 23,38 10,2 -2,10 10,5 2,19 -3,15 16,17M635,791v-14v-65l-2,-49M695,598l15,2M123,476l14,8 41,4 5,5 12,-3 10,-11 26,1 3,-4 -1,52 -1,105 -7,-1 -80,-1 1,-14 -44,-1 -1,41v31h-35M550,619h-74v44h-71v-4l-14,-6 -2,-8v135h-60l-8,-1h-91l1,-82 1,-64M233,528l5,1h78l5,3 58,17 12,-15 4,-11h7l53,7h32M237,274l-1,3v70l-1,57 -1,72M637,907h-37l-21,2h-44v34h-27v16M229,856l1,-77M389,780h146v-2h53l47,-1"/>
  <g class="cities">
    <circle r="7" cx="408" cy="623"/>
    <text x="408" y="623">Phoenix</text>
    <circle r="7" cx="569" cy="827"/>
    <text x="569" y="827">Tucson</text>
    <circle r="7" cx="50" cy="738"/>
    <text x="50" y="738">Yuma</text>
  </g>
</svg>