<?xml version="1.0" encoding="utf-8"?>
<!DOCTYPE svg PUBLIC "-//W3C//DTD SVG 1.1//EN" "http://www.w3.org/Graphics/SVG/1.1/DTD/svg11.dtd">
<svg version="1.1" xmlns="http://www.w3.org/2000/svg" width="301" height="350" viewBox="0 0 301 350">
  <path class="state" transform="scale(0.1)" d="M232,2409l-73,-5 -20,-42 17,-46 -3,-55 -23,-17 18,-33 -13,-25 41,-7 10,-26 49,-50 -7,-23 24,-64 -16,-91 13,-12 -14,-30 48,-53 6,-43 70,-43 14,-2 62,-48 -3,-25 -94,-92 -23,-3 4,-43 -40,-105 -40,-33 -17,-45 -17,-12 -2,-98 18,-20 -22,-20 37,-23v-35l-20,-120 -14,-17 -10,-49 13,-55 -23,-55 1,-83 22,-14 -33,-41 7,-52 -17,-35 61,-30 59,-3v13l64,-6 30,36 -5,14 32,23 46,-2 42,-91 10,-7 2,-105v-196l5,-170 481,9h223l85,1h337l250,-1 163,-4h128l220,-1 446,-12 20,737 6,211 12,343 4,204 11,385 9,339 7,208 6,239 11,396 6,245 -347,6 -356,9 -309,1 -144,-53 -419,-153 -104,-40 -365,-133 -87,-35 -107,-40 -559,-219 -58,-20 11,-37 -9,-38 32,-23 17,-39 66,-1 27,-15 -1,-19 31,-30 3,-38 -23,-68Z"/>
  <g class="counties" transform="scale(0.1)">
    <path data-fips-int="4001" data-name="Apache County" d="M2894,1967l-146,3 -2,30 -46,11 -22,34 -20,20 -58,23 -49,63 -23,-13 -41,-40 -3,-121h16l-3,-198 3,-29 -2,-183 -10,-45 6,-49v-195l-7,-318 7,-10 -1,-75h-82l-6,-322 -10,-454 446,-12 20,737 6,211 12,343 4,204Z"/>
    <path data-fips-int="4003" data-name="Cochise County" d="M2883,2755l33,-2 11,396 6,245 -347,6 -356,9 -3,-165 3,-68 -2,-305 -4,-103h147Z"/>
    <path data-fips-int="4005" data-name="Coconino County" d="M1758,1602v4l-7,3 6,15 -16,2h-1l8,-24 3,-3 -7,-2 -10,2h-3l-17,15v-5l1,-7h2h-2h-1h-7l-7,9 -10,-9 5,-5 -1,-3 1,3 15,-6h4l1,-2 -27,-3 9,-5 1,-5 2,-10 -6,8 -14,12 -3,-5v-193h-107v-103l-269,3v-102l-49,-1 2,-65 -16,12 -50,-2 -51,-40 -30,3 -98,-31 -5,-17 -86,-55 -9,-15 -45,-16 -35,1 3,-173 13,-38 -13,-13 9,-39 -16,-39 14,-29 46,4 13,-37 36,-10 47,-37 41,-3 30,-23 39,-2 46,-41 10,6 24,-36 -10,-19v-5l11,-23 -15,-18v-5l-2,-5 7,-20 5,-4 5,-86 5,-10v-2l20,-88 20,-41 -5,-20 85,1h337l250,-1 163,-4 1,223 7,617 3,125 3,371 4,261 -27,-23 -7,10 -7,5 1,3 -7,5h-3l-70,-48ZM1864,1621l-42,-30 -31,15 -17,1v-1v-7Z"/>
    <path data-fips-int="4007" data-name="Gila County" d="M1932,1641l13,8 70,48h3l7,-5 -1,-3 7,-5 7,-10 27,23 2,156 363,-5 4,247 2,65 -83,1 -10,13 -73,10 -5,15 -44,14 4,85 -5,25v-2l-55,26 -51,20 -26,25 2,22 -32,33 -83,-154 -12,-54 -33,-73 -56,-123 -34,43 -53,-48 -26,-35 3,-40 -10,-35 -4,-3v-22h-22l9,-36 -19,-14 -11,4 15,-35 -10,-53h-111l3,-17 4,-42 16,-36 3,-43 31,-20 19,-30 3,5 14,-12 6,-8 -2,10 -1,5 -9,5 27,3 -1,2h-4l-15,6 -1,-3 1,3 -5,5 10,9 7,-9h7h1h2h-2l-1,7v5l17,-15h3l10,-2 7,2 -3,3 -8,24h1l16,-2 -6,-15 7,-3ZM1864,1621l-42,-30 -31,15 -17,1v-1v-7Z"/>
    <path data-fips-int="4009" data-name="Graham County" d="M2678,2045l8,336 82,136 35,8 -7,35 35,17 5,18 -10,95 57,65 -512,13h-147v-50v-143l-4,-252 5,-25 -4,-85 44,-14 5,-15 73,-10 10,-13 83,-1 -2,-65 53,5v-2l41,40 23,13 49,-63 58,-23Z"/>
    <path data-fips-int="4011" data-name="Greenlee County" d="M2894,1967l9,339 7,208 6,239 -33,2 -57,-65 10,-95 -5,-18 -35,-17 7,-35 -35,-8 -82,-136 -8,-336 22,-34 46,-11 2,-30Z"/>
    <path data-fips-int="4012" data-name="La Paz County" d="M821,1666l-3,186 -6,364 -303,-7v-49l-150,-4 -6,243 -10,10h-111l-73,-5 -20,-42 17,-46 -3,-55 -23,-17 18,-33 -13,-25 41,-7 10,-26 49,-50 -7,-23 24,-64 -16,-91 13,-12 -14,-30 48,-53 6,-43 70,-43 14,-2 62,-48 -3,-25 49,25 90,6 15,12 42,-3 17,18 23,-8 21,-4 32,-45 85,10Z"/>
    <path data-fips-int="4013" data-name="Maricopa County" d="M1707,1857l11,-4 19,14 -9,36h22v22l4,3 10,35 -3,40 26,35 53,48 34,-43 56,123 -263,2 -2,153h-246l-54,-43 -3,-17v467h-271l-286,-5 7,-507 6,-364 286,3 224,70 17,-18 2,-25 20,-10 17,-43 210,28Z"/>
    <path data-fips-int="4015" data-name="Mohave County" d="M1212,104l5,20 -20,41 -20,88v2l-5,10 -5,86 -5,4 -7,20 2,5v5l15,18 -11,23v5l10,19 -24,36 -10,-6 -46,41 -39,2 -30,23 -41,3 -47,37 -36,10 -13,37 -46,-4 -14,29 16,39 -9,39 13,13 -13,38 -3,173 -1,225 -7,481 -15,14 -85,-10 -32,45 -21,4 -23,8 -17,-18 -42,3 -15,-12 -90,-6 -49,-25 -94,-92 -23,-3 4,-43 -40,-105 -40,-33 -17,-45 -17,-12 -2,-98 18,-20 -22,-20 37,-23v-35l-20,-120 -14,-17 -10,-49 13,-55 -23,-55 1,-83 22,-14 -33,-41 7,-52 -17,-35 61,-30 59,-3v13l64,-6 30,36 -5,14 32,23 46,-2 42,-91 10,-7 2,-105v-196l5,-170 481,9Z"/>
    <path data-fips-int="4017" data-name="Navajo County" d="M2395,99l10,454 6,322h82l1,75 -7,10 7,318v195l-6,49 10,45 2,183 -3,29 3,198h-16l3,121v2l-53,-5 -4,-247 -363,5 -2,-156 -4,-261 -3,-371 -3,-125 -7,-617 -1,-223h128Z"/>
    <path data-fips-int="4019" data-name="Pima County" d="M2224,2718v50l4,103 2,305 -200,1v4h-153l1,121h-101v55l-419,-153 -104,-40 -365,-133 -87,-35 3,-273 286,5h271h312v4l203,-2v-8h153Z"/>
    <path data-fips-int="4021" data-name="Pinal County" d="M1930,2166l33,73 12,54 83,154 32,-33 -2,-22 26,-25 51,-20 55,-26v2l4,252v143l-194,4h-153v8l-203,2v-4h-312v-467l3,17 54,43h246l2,-153Z"/>
    <path data-fips-int="4023" data-name="Santa Cruz County" d="M2230,3176l-3,68 3,165 -309,1 -144,-53v-55h101l-1,-121h153v-4Z"/>
    <path data-fips-int="4025" data-name="Yavapai County" d="M1677,1581l-19,30 -31,20 -3,43 -16,36 -4,42 -3,17h111l10,53 -15,35h-113l-210,-28 -17,43 -20,10 -2,25 -17,18 -224,-70 -286,-3 3,-186 7,-481 1,-225 35,-1 45,16 9,15 86,55 5,17 98,31 30,-3 51,40 50,2 16,-12 -2,65 49,1v102l269,-3v103h107Z"/>
    <path data-fips-int="4027" data-name="Yuma County" d="M812,2216l-7,507 -3,273 -107,-40 -559,-219 -58,-20 11,-37 -9,-38 32,-23 17,-39 66,-1 27,-15 -1,-19 31,-30 3,-38 -23,-68h111l10,-10 6,-243 150,4v49Z"/>
  </g>
  <g class="cities">
    <circle r="3" cx="142.7" cy="218.0"/>
    <text x="142.7" y="218.0">Phoenix</text>
    <circle r="3" cx="199.3" cy="289.4"/>
    <text x="199.3" y="289.4">Tucson</text>
    <circle r="3" cx="17.4" cy="258.4"/>
    <text x="17.4" y="258.4">Yuma</text>
  </g>
</svg>