<?xml version="1.0" encoding="utf-8"?>
<!DOCTYPE svg PUBLIC "-//W3C//DTD SVG 1.1//EN" "http://www.w3.org/Graphics/SVG/1.1/DTD/svg11.dtd">
<svg version="1.1" xmlns="http://www.w3.org/2000/svg" width="301" height="350" viewBox="0 0 301 350">
  <defs>
    <pattern id="pattern-no-results" width="50" height="50" patternUnits="userSpaceOnUse">
      <rect width="50" height="50" fill="#ddd"/>
      <path d="M-5,5L5,-5M-5,55L55,-5M45,55L55,45" stroke-width="10" stroke="#ffffff"/>
    </pattern>
  </defs>
  <g class="counties" transform="scale(0.1)">
    <path data-fips-int="4001" data-name="Apache County" d="M2894,1967l-146,3 -2,30 -46,11 -22,34 -20,20 -58,23 -49,63 -23,-13 -41,-40 -3,-121 16,0 -3,-198 3,-29 -2,-183 -10,-45 6,-49 0,-195 -7,-318 7,-10 -1,-75 -82,0 -6,-322 -10,-454 446,-12 20,737 6,211 12,343 4,204Z"/>
    <path data-fips-int="4003" data-name="Cochise County" d="M2883,2755l33,-2 11,396 6,245 -347,6 -356,9 -3,-165 3,-68 -2,-305 -4,-103 147,0Z"/>
    <path data-fips-int="4005" data-name="Coconino County" d="M1758,1602l0,4 -7,3 6,15 -16,2 -1,0 8,-24 3,-3 -7,-2 -10,2 -3,0 -17,15 0,-5 1,-7 2,0 -2,0 -1,0 -7,0 -7,9 -10,-9 5,-5 -1,-3 1,3 15,-6 4,0 1,-2 -27,-3 9,-5 1,-5 2,-10 -6,8 -14,12 -3,-5 0,-193 -107,0 0,-103 -269,3 0,-102 -49,-1 2,-65 -16,12 -50,-2 -51,-40 -30,3 -98,-31 -5,-17 -86,-55 -9,-15 -45,-16 -35,1 3,-173 13,-38 -13,-13 9,-39 -16,-39 14,-29 46,4 13,-37 36,-10 47,-37 41,-3 30,-23 39,-2 46,-41 10,6 24,-36 -10,-19 0,-5 11,-23 -15,-18 0,-5 -2,-5 7,-20 5,-4 5,-86 5,-10 0,-2 20,-88 20,-41 -5,-20 85,1 337,0 250,-1 163,-4 1,223 7,617 3,125 3,371 4,261 -27,-23 -7,10 -7,5 1,3 -7,5 -3,0 -70,-48ZM1864,1621l-42,-30 -31,15 -17,1 0,-1 0,-7Z"/>
    <path data-fips-int="4007" data-name="Gila County" d="M1932,1641l13,8 70,48 3,0 7,-5 -1,-3 7,-5 7,-10 27,23 2,156 363,-5 4,247 2,65 -83,1 -10,13 -73,10 -5,15 -44,14 4,85 -5,25 0,-2 -55,26 -51,20 -26,25 2,22 -32,33 -83,-154 -12,-54 -33,-73 -56,-123 -34,43 -53,-48 -26,-35 3,-40 -10,-35 -4,-3 0,-22 -22,0 9,-36 -19,-14 -11,4 15,-35 -10,-53 -111,0 3,-17 4,-42 16,-36 3,-43 31,-20 19,-30 3,5 14,-12 6,-8 -2,10 -1,5 -9,5 27,3 -1,2 -4,0 -15,6 -1,-3 1,3 -5,5 10,9 7,-9 7,0 1,0 2,0 -2,0 -1,7 0,5 17,-15 3,0 10,-2 7,2 -3,3 -8,24 1,0 16,-2 -6,-15 7,-3ZM1864,1621l-42,-30 -31,15 -17,1 0,-1 0,-7Z"/>
    <path data-fips-int="4009" data-name="Graham County" d="M2678,2045l8,336 82,136 35,8 -7,35 35,17 5,18 -10,95 57,65 -512,13 -147,0 0,-50 0,-143 -4,-252 5,-25 -4,-85 44,-14 5,-15 73,-10 10,-13 83,-1 -2,-65 53,5 0,-2 41,40 23,13 49,-63 58,-23Z"/>
    <path data-fips-int="4011" data-name="Greenlee County" d="M2894,1967l9,339 7,208 6,239 -33,2 -57,-65 10,-95 -5,-18 -35,-17 7,-35 -35,-8 -82,-136 -8,-336 22,-34 46,-11 2,-30Z"/>
    <path data-fips-int="4012" data-name="La Paz County" d="M821,1666l-3,186 -6,364 -303,-7 0,-49 -150,-4 -6,243 -10,10 -111,0 -73,-5 -20,-42 17,-46 -3,-55 -23,-17 18,-33 -13,-25 41,-7 10,-26 49,-50 -7,-23 24,-64 -16,-91 13,-12 -14,-30 48,-53 6,-43 70,-43 14,-2 62,-48 -3,-25 49,25 90,6 15,12 42,-3 17,18 23,-8 21,-4 32,-45 85,10Z"/>
    <path data-fips-int="4013" data-name="Maricopa County" d="M1707,1857l11,-4 19,14 -9,36 22,0 0,22 4,3 10,35 -3,40 26,35 53,48 34,-43 56,123 -263,2 -2,153 -246,0 -54,-43 -3,-17 0,467 -271,0 -286,-5 7,-507 6,-364 286,3 224,70 17,-18 2,-25 20,-10 17,-43 210,28Z"/>
    <path data-fips-int="4015" data-name="Mohave County" d="M1212,104l5,20 -20,41 -20,88 0,2 -5,10 -5,86 -5,4 -7,20 2,5 0,5 15,18 -11,23 0,5 10,19 -24,36 -10,-6 -46,41 -39,2 -30,23 -41,3 -47,37 -36,10 -13,37 -46,-4 -14,29 16,39 -9,39 13,13 -13,38 -3,173 -1,225 -7,481 -15,14 -85,-10 -32,45 -21,4 -23,8 -17,-18 -42,3 -15,-12 -90,-6 -49,-25 -94,-92 -23,-3 4,-43 -40,-105 -40,-33 -17,-45 -17,-12 -2,-98 18,-20 -22,-20 37,-23 0,-35 -20,-120 -14,-17 -10,-49 13,-55 -23,-55 1,-83 22,-14 -33,-41 7,-52 -17,-35 61,-30 59,-3 0,13 64,-6 30,36 -5,14 32,23 46,-2 42,-91 10,-7 2,-105 0,-196 5,-170 481,9Z"/>
    <path data-fips-int="4017" data-name="Navajo County" d="M2395,99l10,454 6,322 82,0 1,75 -7,10 7,318 0,195 -6,49 10,45 2,183 -3,29 3,198 -16,0 3,121 0,2 -53,-5 -4,-247 -363,5 -2,-156 -4,-261 -3,-371 -3,-125 -7,-617 -1,-223 128,0Z"/>
    <path data-fips-int="4019" data-name="Pima County" d="M2224,2718l0,50 4,103 2,305 -200,1 0,4 -153,0 1,121 -101,0 0,55 -419,-153 -104,-40 -365,-133 -87,-35 3,-273 286,5 271,0 312,0 0,4 203,-2 0,-8 153,0Z"/>
    <path data-fips-int="4021" data-name="Pinal County" d="M1930,2166l33,73 12,54 83,154 32,-33 -2,-22 26,-25 51,-20 55,-26 0,2 4,252 0,143 -194,4 -153,0 0,8 -203,2 0,-4 -312,0 0,-467 3,17 54,43 246,0 2,-153Z"/>
    <path data-fips-int="4023" data-name="Santa Cruz County" d="M2230,3176l-3,68 3,165 -309,1 -144,-53 0,-55 101,0 -1,-121 153,0 0,-4Z"/>
    <path data-fips-int="4025" data-name="Yavapai County" d="M1677,1581l-19,30 -31,20 -3,43 -16,36 -4,42 -3,17 111,0 10,53 -15,35 -113,0 -210,-28 -17,43 -20,10 -2,25 -17,18 -224,-70 -286,-3 3,-186 7,-481 1,-225 35,-1 45,16 9,15 86,55 5,17 98,31 30,-3 51,40 50,2 16,-12 -2,65 49,1 0,102 269,-3 0,103 107,0Z"/>
    <path data-fips-int="4027" data-name="Yuma County" d="M812,2216l-7,507 -3,273 -107,-40 -559,-219 -58,-20 11,-37 -9,-38 32,-23 17,-39 66,-1 27,-15 -1,-19 31,-30 3,-38 -23,-68 111,0 10,-10 6,-243 150,4 0,49Z"/>
  </g>
  <g class="cities">
    <circle r="3" cx="142.7" cy="218.0"/>
    <text x="142.7" y="218.0">Phoenix</text>
    <circle r="3" cx="199.3" cy="289.4"/>
    <text x="199.3" y="289.4">Tucson</text>
    <circle r="3" cx="154.9" cy="219.5"/>
    <text x="154.9" y="219.5">Mesa</text>
  </g>
</svg>