<?xml version="1.0" encoding="utf-8"?>
<!DOCTYPE svg PUBLIC "-//W3C//DTD SVG 1.1//EN" "http://www.w3.org/Graphics/SVG/1.1/DTD/svg11.dtd">
<svg version="1.1" xmlns="http://www.w3.org/2000/svg" width="301" height="350" viewBox="0 0 301 350">
  <g class="counties" transform="scale(0.1)">
    <path data-fips-int="4001" data-name="Apache County" d="M2894,1967l-52,0 -35,2 -59,2 -8,22 7,6 -13,3 -16,10 -14,-3 -11,13 -8,2 0,20 -6,1 -11,8 -6,13 -14,-5 -13,9 -10,0 2,6 -10,11 -10,-1 -11,4 -8,21 -13,11 -10,2 -6,22 -10,6 -9,-1 -7,-7 -6,3 3,-12 -7,-3 -2,-10 -14,-6 -15,-19 -5,2 -2,-122 15,-1 -2,-134 -2,-69 5,0 -1,-60 -2,-145 -10,-48 6,-52 -2,-102 3,-5 -1,-79 -2,-30 0,-89 -4,-120 -1,-83 8,0 -2,-84 -82,1 -3,-187 -4,-154 -3,-180 -2,-90 0,-30 -3,-138 134,-4 49,0 73,-3 25,0 77,-2 88,-2 2,101 5,165 3,125 1,21 2,84 1,18 2,85 2,61 2,82 3,85 3,127 2,52 1,58 5,139 5,208 3,124 1,43 4,145 3,78Z"/>
    <path data-fips-int="4003" data-name="Cochise County" d="M2883,2756l33,0 2,83 5,157 2,131 2,16 2,85 2,92 2,73 -69,2 -163,4 -249,4 -223,5 0,-78 -1,-16 -1,-70 4,0 0,-68 -2,-51 1,-36 -2,-62 0,-55 1,-11 -1,-89 -2,-9 -1,-94 138,-1 26,-1 94,-2 35,-1 125,-3 82,-1 102,-1 1,-1Z"/>
    <path data-fips-int="4005" data-name="Coconino County" d="M2047,100l1,130 1,59 2,196 0,45 3,200 1,97 2,151 0,97 2,50 1,146 1,106 0,43 2,102 1,95 1,82 -8,-2 4,-7 -3,-7 -11,-4 -2,-6 -9,8 -17,-6 12,10 -12,14 -18,-8 -8,-14 -29,-6 -7,-12 -12,-6 -2,-7 -12,-3 -1,12 -14,-8 10,-9 -3,-5 -16,0 -5,-9 -17,7 -9,4 -9,-16 -18,0 -20,-15 -6,-12 -6,5 -16,3 -7,5 -21,2 1,-7 -9,-1 -6,5 -8,3 -1,16 9,6 -16,6 -3,-8 -1,-20 9,-2 4,-8 -13,-3 -8,5 -17,16 3,-10 -14,1 -8,9 -16,-4 16,-6 -1,-9 7,4 15,-14 -13,2 -19,2 13,-8 -1,-12 -7,12 -10,4 -2,-6 0,-26 0,-167 -45,1 -37,-2 -26,1 0,-103 -15,2 -86,0 -28,1 -93,0 -44,1 0,-102 -51,-1 0,-29 1,-36 -15,13 -16,-2 -16,3 -18,-4 -10,-13 -10,-6 -3,-14 -7,-1 -9,5 -8,-9 -13,-3 -22,4 -24,-12 -73,-19 -4,-15 -58,-42 -30,-16 -9,-14 -15,-5 -9,2 -22,-13 -32,1 0,-36 2,-87 0,-34 4,-26 8,-13 0,-17 -12,-12 5,-13 -1,-11 4,-11 -10,-7 -4,-21 0,-18 11,-13 6,-15 18,2 10,5 15,-1 11,-16 -2,-9 3,-11 24,-12 4,5 22,-16 19,-8 9,-12 10,-6 15,4 20,-5 8,-10 12,2 13,-16 10,3 17,-6 10,2 1,-8 11,-4 8,-12 14,2 -1,-14 15,-4 2,6 8,-1 7,-9 2,-12 10,-6 2,-10 -6,-20 -3,-7 7,-6 4,-11 -7,0 -5,-15 -4,-3 0,-13 1,-12 10,-7 5,-13 -3,-37 -4,-11 12,-39 -4,-17 3,-16 5,-1 3,-14 10,-24 3,-16 8,-8 4,-19 8,-8 -8,-24 3,-4 143,0 2,1 223,0 27,-1 194,0 71,-1 20,-1 96,0Z"/>
    <path data-fips-int="4007" data-name="Gila County" d="M1703,1588 13,-2 -15,14 -7,-4 1,9 -16,6 16,4 8,-9 14,-1 -3,10 17,-16 8,-5 13,3 -4,8 -9,2 1,20 3,8 16,-6 -9,-6 1,-16 8,-3 6,-5 9,1 -1,7 21,-2 7,-5 16,-3 6,-5 6,12 20,15 18,0 9,16 9,-4 17,-7 5,9 16,0 3,5 -10,9 14,8 1,-12 12,3 2,7 12,6 7,12 29,6 8,14 18,8 12,-14 -12,-10 17,6 9,-8 2,6 11,4 3,7 -4,7 8,2 2,155 60,-2 45,0 172,-2 85,-2 1,47 3,123 1,77 1,65 -82,2 0,8 -24,10 -4,-6 -9,5 -15,-2 -8,6 -10,-2 -13,4 -5,14 -5,3 -16,-3 -8,2 -3,8 -12,5 -2,18 1,19 -4,19 9,27 8,5 10,17 -18,7 -6,-4 -8,7 -17,-2 -13,7 -3,8 -6,-5 -1,9 -16,4 -8,8 -5,-5 -13,0 -11,18 -4,-5 -6,7 -2,12 -5,7 -8,-4 -6,10 4,13 -7,12 -16,13 -3,10 -8,0 -39,-76 -41,-76 -14,-54 -34,-74 -37,-80 -19,-43 -13,10 -13,17 1,6 -9,11 -13,-13 -6,2 -11,-21 -23,-18 -2,-17 -9,-11 -15,-7 -1,-13 5,-12 -5,-6 7,-13 -11,-9 5,-12 -12,-13 -1,-11 4,-10 -11,-4 -5,6 -7,-2 2,-13 -3,-12 9,-10 -3,-10 -13,-5 -13,3 1,-22 9,-2 0,-10 6,-5 -12,-17 6,-9 -5,-12 -5,-1 8,-10 -114,0 -4,-6 7,-7 8,-15 -7,-7 3,-21 10,-13 -3,-8 9,-1 -9,-8 10,-12 -2,-15 5,-14 -1,-10 22,-11 7,-9 12,-2 9,-9 0,-20 2,6 10,-4 7,-12 1,12 -13,8Z"/>
    <path data-fips-int="4009" data-name="Graham County" d="M2679,2045l0,42 6,234 2,59 54,90 28,46 31,7 3,8 4,8 -9,4 -2,16 11,10 6,-4 18,13 2,29 -4,10 7,26 -8,8 5,19 -7,20 4,10 11,4 1,8 6,0 5,19 12,1 11,22 7,2 -55,2 -1,1 -102,1 -82,1 -125,3 -35,1 -94,2 -26,1 -138,1 -1,-51 0,-92 -2,-131 -2,-68 -1,-105 6,4 18,-7 -10,-17 -8,-5 -9,-27 4,-19 -1,-19 2,-18 12,-5 3,-8 8,-2 16,3 5,-3 5,-14 13,-4 10,2 8,-6 15,2 9,-5 4,6 24,-10 0,-8 82,-2 -1,-65 19,-3 0,4 19,4 4,-6 11,5 5,-2 15,19 14,6 2,10 7,3 -3,12 6,-3 7,7 9,1 10,-6 6,-22 10,-2 13,-11 8,-21 11,-4 10,1 10,-11 -2,-6 10,0 13,-9 14,5 6,-13Z"/>
    <path data-fips-int="4011" data-name="Greenlee County" d="M2894,1967l2,66 5,161 2,108 2,62 0,22 3,58 3,101 0,22 5,189 -33,0 -7,-2 -11,-22 -12,-1 -5,-19 -6,0 -1,-8 -11,-4 -4,-10 7,-20 -5,-19 8,-8 -7,-26 4,-10 -2,-29 -18,-13 -6,4 -11,-10 2,-16 9,-4 -4,-8 -3,-8 -31,-7 -28,-46 -54,-90 -2,-59 -6,-234 0,-42 6,-1 0,-20 8,-2 11,-13 14,3 16,-10 13,-3 -7,-6 8,-22 59,-2 35,-2Z"/>
    <path data-fips-int="4012" data-name="La Paz County" d="M820,1666l-1,70 -2,116 0,78 -3,118 0,59 -1,58 0,50 -41,0 -36,-1 -39,0 -110,-3 -78,-1 0,-50 -45,-2 -51,0 -55,-1 -1,50 -3,100 -1,103 -51,-1 0,1 -70,-1 -27,-7 -9,6 -19,-3 -9,-11 -6,9 -7,-4 -1,-10 -6,-15 -10,-4 7,-24 9,-17 3,-38 -7,-12 8,-6 -7,-13 -17,-5 -3,-11 10,-9 7,-22 -4,-14 -10,-12 27,-9 11,4 10,-9 4,-16 16,-26 12,-5 4,-12 17,-12 -6,-11 -1,-12 9,-11 -5,-22 10,-6 -9,-6 4,-10 15,-7 0,-12 -8,-9 4,-13 -11,-34 4,-8 -4,-18 7,0 6,-9 -10,-16 8,-3 -12,-11 6,-18 6,0 26,-24 -3,-8 10,-2 5,-12 -2,-10 4,-20 9,-12 23,-5 7,-9 10,0 10,-6 9,-12 18,-3 13,-8 2,-8 29,-28 1,-6 16,0 -3,-25 13,5 10,-2 11,5 17,19 4,-5 7,8 17,-2 24,6 18,0 7,-3 10,2 5,15 23,-5 9,4 21,-6 4,10 9,7 19,-1 11,-8 18,-1 8,-8 3,-9 17,-18 4,-10 12,-2 6,5 13,-1 29,6 8,-3 9,5 11,-2Z"/>
    <path data-fips-int="4013" data-name="Maricopa County" d="M1707,1856l13,-3 13,5 3,10 -9,10 3,12 -2,13 7,2 5,-6 11,4 -4,10 1,11 12,13 -5,12 11,9 -7,13 5,6 -5,12 1,13 15,7 9,11 2,17 23,18 11,21 6,-2 13,13 9,-11 -1,-6 13,-17 13,-10 19,43 37,80 -40,2 -130,0 -16,0 -76,0 0,51 -3,0 2,102 -94,0 -1,0 -146,0 -8,-2 2,-8 -12,-3 -18,-16 -19,-5 -4,-8 2,-12 -5,-8 1,12 0,133 -2,36 0,143 0,2 0,143 -208,0 -29,0 -76,0 -77,-2 -56,0 -111,-1 3,-128 1,-123 3,-157 -1,-27 2,-75 0,-50 1,-58 0,-59 3,-118 0,-78 161,2 125,1 105,33 20,6 101,31 8,-13 8,-1 5,-16 -4,-13 6,2 16,-14 6,-22 11,-3 0,-16 131,17 77,10Z"/>
    <path data-fips-int="4015" data-name="Mohave County" d="M1212,104l-3,4 8,24 -8,8 -4,19 -8,8 -3,16 -10,24 -3,14 -5,1 -3,16 4,17 -12,39 4,11 3,37 -5,13 -10,7 -1,12 0,13 4,3 5,15 7,0 -4,11 -7,6 3,7 6,20 -2,10 -10,6 -2,12 -7,9 -8,1 -2,-6 -15,4 1,14 -14,-2 -8,12 -11,4 -1,8 -10,-2 -17,6 -10,-3 -13,16 -12,-2 -8,10 -20,5 -15,-4 -10,6 -9,12 -19,8 -22,16 -4,-5 -24,12 -3,11 2,9 -11,16 -15,1 -10,-5 -18,-2 -6,15 -11,13 0,18 4,21 10,7 -4,11 1,11 -5,13 12,12 0,17 -8,13 -4,26 0,34 -2,87 0,36 -2,118 0,90 -2,88 -1,81 0,39 -2,71 -1,87 0,44 -2,88 -11,13 -11,2 -9,-5 -8,3 -29,-6 -13,1 -6,-5 -12,2 -4,10 -17,18 -3,9 -8,8 -18,1 -11,8 -19,1 -9,-7 -4,-10 -21,6 -9,-4 -23,5 -5,-15 -10,-2 -7,3 -18,0 -24,-6 -17,2 -7,-8 -4,5 -17,-19 -11,-5 -10,2 -13,-5 -8,-9 -10,-18 -10,-8 -13,-2 -18,-21 -12,-5 -3,-8 -14,-9 -6,-8 -18,2 -6,-8 5,-28 -1,-13 -10,-23 -15,-17 6,-8 -7,-6 0,-12 -8,-9 3,-5 -9,-28 -22,-14 -19,-22 -13,-39 -18,-13 -5,-18 4,-10 0,-22 -2,-11 3,-16 -4,-18 7,-13 8,-6 3,-8 -7,-10 -14,-9 14,-12 19,-2 6,-20 -1,-22 -4,-5 -1,-29 -6,-22 1,-23 -9,-27 -4,-18 -17,-21 -1,-12 -6,-17 1,-10 10,-14 -2,-16 -6,-9 11,-9 1,-8 -12,-19 -5,-6 3,-22 -10,-12 5,-14 0,-31 -6,-11 8,-14 -2,-14 19,-10 -22,-25 1,-9 -11,-9 1,-11 -6,-14 1,-14 9,-11 -9,-7 4,-11 -9,-14 9,-12 24,-2 11,-4 16,-15 5,7 23,-11 26,0 7,6 0,9 15,-7 12,8 15,-12 19,3 30,36 -4,14 19,7 6,13 11,7 11,-1 18,-6 11,2 8,-12 2,-14 10,-16 -3,-11 9,-3 16,-35 11,-7 0,-45 1,-44 2,-43 0,-195 4,-145 146,4 159,2 103,2 60,0 86,0Z"/>
    <path data-fips-int="4017" data-name="Navajo County" d="M2396,98l3,138 0,30 2,90 3,180 4,154 3,187 82,-1 2,84 -8,0 1,83 4,120 0,89 2,30 1,79 -3,5 2,102 -6,52 10,48 2,145 1,60 -5,0 2,69 2,134 -15,1 2,122 -11,-5 -4,6 -19,-4 0,-4 -19,3 -1,-77 -3,-123 -1,-47 -85,2 -172,2 -45,0 -60,2 -2,-155 -1,-82 -1,-95 -2,-102 0,-43 -1,-106 -1,-146 -2,-50 0,-97 -2,-151 -1,-97 -3,-200 0,-45 -2,-196 -1,-59 -1,-130 74,-1 45,-1 10,4 105,-2 74,-2Z"/>
    <path data-fips-int="4019" data-name="Pima County" d="M2224,2718l1,51 1,94 2,9 1,89 -1,11 0,55 2,62 -1,36 2,51 -107,1 -3,0 -91,1 0,3 -153,2 0,51 1,68 -101,1 0,55 -26,-9 -84,-31 -145,-54 -117,-43 -47,-17 -143,-53 -30,-11 -80,-30 -56,-20 -30,-12 -129,-47 -88,-34 1,-73 1,-83 1,-116 111,1 56,0 77,2 76,0 29,0 208,0 312,0 0,3 135,0 68,-1 0,-6 116,0 38,-2 77,-2Z"/>
    <path data-fips-int="4021" data-name="Pinal County" d="M1929,2166l34,74 14,54 41,76 39,76 8,0 3,-10 16,-13 7,-12 -4,-13 6,-10 8,4 5,-7 2,-12 6,-7 4,5 11,-18 13,0 5,5 8,-8 16,-4 1,-9 6,5 3,-8 13,-7 17,2 8,-7 1,105 2,68 2,131 0,92 -116,2 -77,2 -38,2 -116,0 0,6 -68,1 -135,0 0,-3 -312,0 0,-143 0,-2 0,-143 2,-36 0,-133 -1,-12 5,8 -2,12 4,8 19,5 18,16 12,3 -2,8 8,2 146,0 1,0 94,0 -2,-102 3,0 0,-51 76,0 16,0 130,0Z"/>
    <path data-fips-int="4023" data-name="Santa Cruz County" d="M2231,3176l0,68 -4,0 1,70 1,16 0,78 -67,1 -74,0 -92,2 -73,1 -102,-37 -44,-17 0,-55 101,-1 -1,-68 0,-51 153,-2 0,-3 91,-1 3,0Z"/>
    <path data-fips-int="4025" data-name="Yavapai County" d="M1677,1580l0,20 -9,9 -12,2 -7,9 -22,11 1,10 -5,14 2,15 -10,12 9,8 -9,1 3,8 -10,13 -3,21 7,7 -8,15 -7,7 4,6 114,0 -8,10 5,1 5,12 -6,9 12,17 -6,5 0,10 -9,2 -1,22 -114,0 -77,-10 -131,-17 0,16 -11,3 -6,22 -16,14 -6,-2 4,13 -5,16 -8,1 -8,13 -101,-31 -20,-6 -105,-33 -125,-1 -161,-2 2,-116 1,-70 2,-88 0,-44 1,-87 2,-71 0,-39 1,-81 2,-88 0,-90 2,-118 32,-1 22,13 9,-2 15,5 9,14 30,16 58,42 4,15 73,19 24,12 22,-4 13,3 8,9 9,-5 7,1 3,14 10,6 10,13 18,4 16,-3 16,2 15,-13 -1,36 0,29 51,1 0,102 44,-1 93,0 28,-1 86,0 15,-2 0,103 26,-1 37,2 45,-1 0,167Z"/>
    <path data-fips-int="4027" data-name="Yuma County" d="M813,2215l-2,75 1,27 -3,157 -1,123 -3,128 -1,116 -1,83 -1,73 -228,-89 -88,-33 -17,-8 -86,-32 -79,-32 -113,-43 -114,-44 -1,-9 6,-4 -5,-5 4,-13 8,-5 0,-8 -9,6 6,-20 -5,-14 23,-16 26,-50 7,-8 5,5 36,7 1,-4 15,0 10,-8 12,0 6,-5 -2,-19 11,-15 8,-3 13,-13 4,-32 -8,-22 6,-9 -2,-12 -10,1 -5,-26 -5,-6 70,1 0,-1 51,1 1,-103 3,-100 1,-50 55,1 51,0 45,2 0,50 78,1 110,3 39,0 36,1Z"/>
  </g>
  <g class="cities">
    <circle r="3" cx="142.7" cy="217.9"/>
    <text x="142.7" y="217.9">Phoenix</text>
    <circle r="3" cx="199.2" cy="289.3"/>
    <text x="199.2" y="289.3">Tucson</text>
    <circle r="3" cx="154.9" cy="219.5"/>
    <text x="154.9" y="219.5">Mesa</text>
  </g>
</svg>