<?xml version="1.0" encoding="utf-8"?>
<!DOCTYPE svg PUBLIC "-//W3C//DTD SVG 1.1//EN" "http://www.w3.org/Graphics/SVG/1.1/DTD/svg11.dtd">
<svg version="1.1" xmlns="http://www.w3.org/2000/svg" width="300" height="350" viewBox="0 0 300 350">
  <defs>
    <pattern id="pattern-no-results" width="50" height="50" patternUnits="userSpaceOnUse">
      <rect width="50" height="50" fill="#ddd"/>
      <path d="M-5,5L5,-5M-5,55L55,-5M45,55L55,45" stroke-width="10" stroke="#666666"/>
    </pattern>
  </defs>
  <g class="counties" transform="scale(0.1)">
    <path data-fips-int="6001" data-name="Alameda County" d="M812,1571l6,101 16,15 -131,2 -1,0 1,0 -1,0 -10,0 -35,-14 -32,-86 1,0 3,-3 -1,-4 -5,-5 -1,-1 -2,0 -4,-2 -1,0 -10,-3 1,-35 93,66Z"/>
    <path data-fips-int="6003" data-name="Alpine County" d="M1357,1266l-10,35 13,70 -19,28 -33,-31 -34,20 -37,-30 -14,-24 0,-66 54,-58 -7,-22Z"/>
    <path data-fips-int="6005" data-name="Amador County" d="M1222,1268l1,0 0,66 -98,14 -55,45 -100,38 -7,-27 0,-73 57,-16 1,0 50,21 67,-13 31,-5Z"/>
    <path data-fips-int="6007" data-name="Butte County" d="M957,952l-62,27 -29,61 -59,13 -77,-5 7,-26 4,-23 0,-17 6,-13 -37,0 14,-70 -25,-24 -6,-5 9,-26 61,3 44,-33 17,-42 38,-15 19,15 -12,82Z"/>
    <path data-fips-int="6009" data-name="Calaveras County" d="M1223,1334l14,24 -41,21 -57,84 -78,106 -74,-86 -17,-52 100,-38 55,-45Z"/>
    <path data-fips-int="6011" data-name="Colusa County" d="M737,1022l-7,26 -9,40 3,24 3,3 6,10 0,2 14,54 -136,-3 -39,-50 -6,-51 -39,-4 -29,-33 10,-27Z"/>
    <path data-fips-int="6015" data-name="Del Norte County" d="M339,95l-35,40 -2,7 -13,70 0,30 3,66 -27,-30 -77,-3 -17,-92 -27,-23 15,-73Z"/>
    <path data-fips-int="6017" data-name="El Dorado County" d="M1243,1140l27,48 7,22 -54,58 -1,0 -53,50 -31,5 -67,13 -50,-21 -1,0 -57,16 -31,-71 25,-54 15,-16 4,-4 65,-26 47,33 33,-26 4,-14Z"/>
    <path data-fips-int="6019" data-name="Fresno County" d="M1578,1700l34,114 52,24 28,55 0,57 -172,2 0,30 -88,0 -1,29 -46,0 -30,30 -27,20 -79,10 -2,77 -101,95 -92,-70 -9,-57 25,-21 0,-57 -89,-90 107,-103 27,67 40,28 122,-27 100,-103 48,-20 6,-53 78,-80Z"/>
    <path data-fips-int="6021" data-name="Glenn County" d="M699,875l25,24 -14,70 37,0 -6,13 0,17 -4,23 -229,-9 3,-68 -41,-1 -10,-77Z"/>
    <path data-fips-int="6025" data-name="Imperial County" d="M2371,3372l-2,-279 422,-22 -27,15 22,126 60,17 -14,78 -57,17Z"/>
    <path data-fips-int="6027" data-name="Inyo County" d="M1838,1697l137,125 487,436 -24,6 -224,9 -312,6 -105,5 7,-50 -37,-99 2,-47 -31,-28 -39,-85 -7,-25 0,-57 -28,-55 -52,-24 -34,-114Z"/>
    <path data-fips-int="6029" data-name="Kern County" d="M1902,2279l6,340 -10,0 -349,5 4,8 -105,-7 -9,-25 -47,-5 -10,0 0,-61 -54,-65 -41,-2 -20,-60 -33,-1 -24,-60 -31,-2 1,-60 185,0 432,0Z"/>
    <path data-fips-int="6031" data-name="Kings County" d="M1365,2284l-185,0 -5,0 -29,-41 101,-95 2,-77 79,-10 27,-20 27,30 -14,47Z"/>
    <path data-fips-int="6033" data-name="Lake County" d="M508,1013l-10,27 29,33 39,4 6,51 39,50 -16,20 -6,27 -18,30 -41,10 -47,-60 0,-2 0,2 0,-2 -3,-3 -34,-20 -36,-58 23,-59 -11,-94 48,-25 41,1Z"/>
    <path data-fips-int="6035" data-name="Lassen County" d="M1250,403l-4,509 -40,5 11,-82 -27,-51 -34,-12 -62,-58 -50,-12 -28,39 -46,-10 -4,-75 -70,0 4,-258Z"/>
    <path data-fips-int="6037" data-name="Los Angeles County" d="M1634,3088l69,26 20,30 -48,-1ZM1898,2619l10,188 -38,118 -54,0 -40,71 0,-5 -4,0 2,4 2,1 -30,0 0,-5 -1,-1 -6,0 -6,1 -3,5 -1,2 0,1 -44,-11 10,-25 -37,-67 -82,12 -42,-15 46,-45 34,0 10,-38 -71,-178 -4,-8Z"/>
    <path data-fips-int="6039" data-name="Madera County" d="M1442,1602l23,4 44,51 -78,80 -6,53 -48,20 -100,103 -122,27 -40,-28 -27,-67 68,-36 70,-12 80,-80 29,0 20,-51 76,-75Z"/>
    <path data-fips-int="6043" data-name="Mariposa County" d="M1431,1591l-76,75 -20,51 -29,0 -80,80 -38,-30 -54,-128 2,-15 19,5 -10,-22 75,-36 36,23 75,-10 34,-38Z"/>
    <path data-fips-int="6045" data-name="Mendocino County" d="M301,791l0,8 163,5 4,17 -8,46 10,77 -48,25 11,94 -23,59 36,58 34,20 -195,20 -52,-65 14,-38 -29,-87 16,-83 -17,-103 -43,-60Z"/>
    <path data-fips-int="6047" data-name="Merced County" d="M1226,1797l-70,12 -68,36 -107,103 -61,-33 -20,-45 -1,0 0,-61 71,-69 -6,-20 170,-81 54,128Z"/>
    <path data-fips-int="6049" data-name="Modoc County" d="M1250,403l-350,-5 -29,0 5,-284 105,5 271,0Z"/>
    <path data-fips-int="6051" data-name="Mono County" d="M1838,1697l-260,3 -69,-43 -44,-51 -23,-4 17,-50 -28,-54 -89,-52 -1,-47 19,-28 -13,-70 10,-35Z"/>
    <path data-fips-int="6053" data-name="Monterey County" d="M780,1890l1,0 -1,0 1,2 47,73 41,28 3,37 80,85 8,-9 33,-1 31,35 2,-39 19,15 9,57 92,70 29,41 -320,-8 -102,-143 -46,-37 -24,-98 47,-28 6,-67Z"/>
    <path data-fips-int="6055" data-name="Napa County" d="M643,1260l27,63 7,70 -34,11 -28,42 -3,0 -28,0 4,-55 -50,-86 -8,-40 41,-10 18,-30 6,-27 28,10Z"/>
    <path data-fips-int="6057" data-name="Nevada County" d="M1077,980l32,27 135,1 -1,45 -188,4 -44,38 -11,7 -38,55 -64,-10 5,-84 39,-35 11,-5 17,0 3,-1 0,-2 38,-8Z"/>
    <path data-fips-int="6061" data-name="Placer County" d="M1243,1053l0,87 -118,13 -4,14 -33,26 -47,-33 -65,26 -4,4 -15,16 -25,54 -93,-10 22,-90 37,-13 64,10 38,-55 11,-7 44,-38Z"/>
    <path data-fips-int="6063" data-name="Plumas County" d="M896,656l70,0 4,75 46,10 28,-39 50,12 62,58 34,12 27,51 -11,82 -135,0 -60,-27 -37,49 -17,13 -88,-98 12,-82 -19,-15 20,-65 -31,-38Z"/>
    <path data-fips-int="6065" data-name="Riverside County" d="M2791,3071l-422,22 -337,8 -37,-25 -43,0 27,-53 -35,-19 -40,-54 31,-57 181,7 1,-12 465,-17 0,-15 254,-13 -27,58 16,79 -6,48Z"/>
    <path data-fips-int="6067" data-name="Sacramento County" d="M963,1331l0,73 -107,22 -17,-10 -28,52 1,5 -1,0 -30,5 -23,16 -2,0 -3,-3 12,-15 6,0 3,-5 14,-28 17,-47 22,-17 4,-84 -23,-45 31,0 93,10Z"/>
    <path data-fips-int="6069" data-name="San Benito County" d="M899,1870l1,0 20,45 61,33 89,90 0,57 -25,21 -19,-15 -2,39 -31,-35 -33,1 -8,9 -80,-85 -3,-37 -41,-28 -47,-73 0,-2 17,0 27,-28Z"/>
    <path data-fips-int="6071" data-name="San Bernardino County" d="M2836,2843l-254,13 0,15 -465,17 -1,12 -181,-7 -31,57 -34,-25 38,-118 -10,-188 10,0 -6,-340 312,-6 224,-9 24,-6 300,269 4,48 47,50 46,90 61,63Z"/>
    <path data-fips-int="6077" data-name="San Joaquin County" d="M963,1404l7,27 17,52 0,111 -33,5 -4,-2 -15,5 -19,10 -6,4 -1,0 1,0 -1,0 -75,71 -16,-15 -6,-101 -4,-17 4,-23 -1,-10 1,-22 -4,-8 0,-8 3,-10 1,0 -1,-5 28,-52 17,10Z"/>
    <path data-fips-int="6079" data-name="San Luis Obispo County" d="M1175,2284l5,0 -1,60 31,2 24,60 33,1 20,60 41,2 54,65 0,61 -179,-75 -11,7 -30,23 -16,42 -38,-32 -44,7 -17,-2 3,-58 -71,-36 17,-27 -17,-43 -30,-7 -94,-118Z"/>
    <path data-fips-int="6081" data-name="San Mateo County" d="M582,1601l7,41 66,47 -20,8 8,53 -1,25 -46,9 6,28 -33,-47 6,-45 -30,-54 7,-65Z"/>
    <path data-fips-int="6085" data-name="Santa Clara County" d="M834,1687l15,33 -1,79 51,10 0,61 1,0 -1,0 -74,-8 -27,28 -11,-13 0,-2 0,2 0,-2 -30,-18 -24,-35 -47,-20 -43,-52 -8,-53 20,-8 37,0 10,0 1,0 -1,0 1,0Z"/>
    <path data-fips-int="6087" data-name="Santa Cruz County" d="M757,1857l30,18 0,2 0,-2 0,2 11,13 -17,0 0,2 -1,-2 1,0 -1,0 -44,13 -29,-41 -48,6 -57,-56 -6,-28 46,-9 1,-25 43,52 47,20Z"/>
    <path data-fips-int="6089" data-name="Shasta County" d="M871,398l29,0 -4,258 -45,-2 -142,4 -43,13 -92,-2 -30,17 -61,-7 -2,0 2,0 -2,0 -17,10 -30,8 -1,-1 20,-47 82,-50 -13,-41 40,-90 41,-48 -10,-30Z"/>
    <path data-fips-int="6091" data-name="Sierra County" d="M1206,917l40,-5 -2,96 -135,-1 -32,-27 -66,32 -38,8 0,2 -3,1 -4,-41 8,-43 37,-49 60,27Z"/>
    <path data-fips-int="6093" data-name="Siskiyou County" d="M876,114l-5,284 -278,-8 8,-50 -27,-13 -59,53 -41,5 9,66 -80,-30 -48,-41 -22,-70 -41,-2 -3,-66 0,-30 13,-70 2,-7 35,-40 266,5Z"/>
    <path data-fips-int="6095" data-name="Solano County" d="M805,1396l-17,47 -50,36 -1,-1 -1,0 -34,0 -3,-2 -9,-5 -38,17 -30,-20 -7,-22 28,-42 34,-11 -7,-70 111,-2 -1,73Z"/>
    <path data-fips-int="6097" data-name="Sonoma County" d="M480,1200l3,3 0,2 0,-2 0,2 47,60 8,40 50,86 -4,55 -27,13 -2,-1 -1,-7 -9,-8 -7,-10 -16,1 -71,-48 -29,5 -47,-70 -42,-30 -48,-71Z"/>
    <path data-fips-int="6099" data-name="Stanislaus County" d="M1061,1569l73,70 -170,81 6,20 -71,69 -51,-10 1,-79 -15,-33 75,-71 1,0 -1,0 1,0 6,-4 19,-10 15,-5 4,2 33,-5 0,-111Z"/>
    <path data-fips-int="6101" data-name="Sutter County" d="M807,1053l0,12 0,12 0,8 7,80 47,-5 -22,90 -31,0 -11,-14 -32,-33 -8,0 -10,-22 -14,-54 0,-2 -6,-10 -3,-3 -3,-24 9,-40Z"/>
    <path data-fips-int="6103" data-name="Tehama County" d="M851,654l31,38 -20,65 -38,15 -17,42 -44,33 -61,-3 -9,26 6,5 -239,-8 8,-46 -4,-17 -7,-38 -1,-17 -22,-52 -1,-1 1,1 30,-8 17,-10 2,0 -2,0 2,0 61,7 30,-17 92,2 43,-13Z"/>
    <path data-fips-int="6105" data-name="Trinity County" d="M593,390l10,30 -41,48 -40,90 13,41 -82,50 -20,47 1,1 22,52 1,17 7,38 -163,-5 0,-8 13,-248 -5,-42 -1,-5 -2,-3 42,-70 7,-43 48,41 80,30 -9,-66 41,-5 59,-53 27,13Z"/>
    <path data-fips-int="6107" data-name="Tulare County" d="M1699,1975l39,85 31,28 -2,47 37,99 -7,50 -432,0 3,-166 14,-47 -27,-30 30,-30 46,0 1,-29 88,0 0,-30 172,-2Z"/>
    <path data-fips-int="6109" data-name="Tuolumne County" d="M1341,1399l1,47 89,52 28,54 -17,50 -11,-11 -66,-45 -34,38 -75,10 -36,-23 -75,36 10,22 -19,-5 -2,15 -73,-70 78,-106 57,-84 41,-21 37,30 34,-20Z"/>
    <path data-fips-int="6113" data-name="Yolo County" d="M747,1181l10,22 8,0 32,33 11,14 23,45 -4,84 -22,17 -25,-2 1,-73 -111,2 -27,-63 -20,-52 -28,-10 16,-20Z"/>
    <path data-fips-int="6115" data-name="Yuba County" d="M970,1023l-17,0 -11,5 -39,35 -5,84 -37,13 -47,5 -7,-80 0,-8 0,-12 0,-12 59,-13 29,-61 62,-27 17,-13 -8,43Z"/>
    <path data-fips-int="6013" data-name="Contra Costa County" d="M808,1483l0,8 4,8 -1,22 1,10 -4,23 4,17 -113,31 -93,-66 -14,-40 132,-5 9,3 48,-16Z"/>
    <path data-fips-int="6023" data-name="Humboldt County" d="M292,308l41,2 22,70 -7,43 -42,70 2,3 1,5 5,42 -13,248 -127,-7 -21,-37 -67,-58 0,-88 67,-100 14,-66 -10,-50 31,-110 77,3Z"/>
    <path data-fips-int="6041" data-name="Marin County" d="M522,1434l16,-1 7,10 9,8 1,7 2,1 -12,102 -79,-67 -49,-3 17,-45 -12,-55 29,-5Z"/>
    <path data-fips-int="6073" data-name="San Diego County" d="M2369,3093l2,279 -298,40 0,-48 -36,-34 2,0 4,2 2,0 0,-3 0,-2 0,-3 0,3 0,-3 -6,3 -2,0 -1,2 0,1 -30,-126 -78,-86 24,-42 43,0 37,25Z"/>
    <path data-fips-int="6083" data-name="Santa Barbara County" d="M1215,2895l24,33 -44,15 -34,-38ZM1259,2880l101,30 -50,13 -44,-10ZM1382,2595l10,0 -1,173 -9,10 -24,-13 -91,2 -35,-19 -133,4 -54,-47 15,-38 -13,-102 17,2 44,-7 38,32 16,-42 30,-23 11,-7Z"/>
    <path data-fips-int="6111" data-name="Ventura County" d="M1534,2893l-81,-43 0,-4 0,2 0,2 -12,-33 -59,-39 9,-10 1,-173 47,5 9,25 105,7 71,178 -10,38 -34,0Z"/>
    <path data-fips-int="6059" data-name="Orange County" d="M1870,2925l34,25 40,54 35,19 -27,53 -24,42 -85,-75 -5,0 -1,-4 -4,-1 -2,0 2,1 3,4 2,0 2,1 3,0 -67,-48 40,-71Z"/>
  </g>
  <g class="cities">
    <circle r="3" cx="173.8" cy="289.0"/>
    <text x="173.8" y="289.0">Los Angeles</text>
    <circle r="3" cx="206.2" cy="334.9"/>
    <text x="206.2" y="334.9">San Diego</text>
    <circle r="3" cx="71.6" cy="173.4"/>
    <text x="71.6" y="173.4">San Jose</text>
  </g>
</svg>