<?xml version="1.0" encoding="utf-8"?>
<!DOCTYPE svg PUBLIC "-//W3C//DTD SVG 1.1//EN" "http://www.w3.org/Graphics/SVG/1.1/DTD/svg11.dtd">
<svg version="1.1" xmlns="http://www.w3.org/2000/svg" width="300" height="350" viewBox="0 0 300 350">
  <defs>
    <pattern id="pattern-no-results" width="50" height="50" patternUnits="userSpaceOnUse">
      <rect width="50" height="50" fill="#ddd"/>
      <path d="M-5,5L5,-5M-5,55L55,-5M45,55L55,45" stroke-width="10" stroke="#666666"/>
    </pattern>
  </defs>
  <g class="counties" transform="scale(0.1)">
    <path data-fips-int="6001" data-name="Alameda County" d="M627,1582l-1,6 -25,-11 -1,-6 15,3ZM813,1570l-3,96 16,7 7,14 -60,-1 -48,-2 -17,10 -6,-5 -11,2 -18,-2 -2,-12 -14,-2 0,-9 -9,-19 -3,-29 -11,-16 -3,4 -12,-16 14,1 -6,-9 -5,-7 -22,-5 10,-10 -4,-24 13,-2 20,24 1,6 13,6 25,3 13,13 -4,5 14,11Z"/>
    <path data-fips-int="6003" data-name="Alpine County" d="M1357,1266l-9,16 -2,19 7,6 2,14 12,18 -8,23 0,11 -13,2 3,11 -7,5 -1,8 -17,-13 -2,-18 -13,0 -12,5 -22,15 -38,-28 -15,-3 0,-22 1,-67 36,-30 17,-26 0,-12 -6,-12Z"/>
    <path data-fips-int="6005" data-name="Amador County" d="M1223,1268l-1,67 -11,4 -24,-2 -11,6 -24,7 -25,-3 -7,6 -16,4 -7,8 -21,7 -6,21 -30,10 -4,6 -18,2 -20,21 -9,-3 -11,4 -8,-2 -7,-26 1,-52 -1,-21 22,-5 6,3 27,-15 28,4 14,11 11,5 32,-2 22,-5 14,-6 17,1 12,-6 12,-10 4,-15 20,-2 9,-24Z"/>
    <path data-fips-int="6007" data-name="Butte County" d="M956,952l-7,10 -12,4 0,10 -25,0 -1,4 -16,-2 -3,15 -9,8 3,10 -8,7 -2,12 -10,10 -31,6 -12,5 -12,-6 -4,9 -1,-4 -38,0 -38,-1 7,-27 5,-28 -1,-18 7,-8 -37,1 -3,-10 3,-24 6,-7 -6,-8 14,-6 -2,-15 -7,0 -18,-23 -5,-15 8,-15 63,1 15,-6 1,-12 12,-16 15,1 6,-19 8,-5 3,-16 23,0 5,-7 8,0 2,-10 11,0 -1,13 8,2 -1,20 -6,0 -6,13 3,19 -3,10 3,21 12,5 12,21 12,10 5,10 10,5 1,9 10,4 8,22 11,2Z"/>
    <path data-fips-int="6009" data-name="Calaveras County" d="M1222,1335l0,22 15,3 -3,5 -16,7 -16,4 -7,5 -8,15 -20,24 -19,33 -34,51 -19,11 5,12 -8,12 -26,21 -5,10 -73,-88 -4,-3 -14,-48 8,2 11,-4 9,3 20,-21 18,-2 4,-6 30,-10 6,-21 21,-7 7,-8 16,-4 7,-6 25,3 24,-7 11,-6 24,2Z"/>
    <path data-fips-int="6011" data-name="Colusa County" d="M737,1022l-7,27 -10,22 4,14 -4,7 6,13 7,22 14,6 2,18 9,6 -7,3 -5,11 1,11 -96,-4 -41,0 -18,-14 0,-19 -9,-3 -12,-11 1,-14 -4,-10 8,-7 -11,-23 -13,2 -18,-8 -8,2 -4,-8 -20,-16 -5,-12 10,-14 1,-9 47,1 93,3 21,0 0,-9 37,1 -1,10Z"/>
    <path data-fips-int="6015" data-name="Del Norte County" d="M339,94l-4,4 0,12 -8,18 -9,0 -4,8 -8,-4 -10,19 -7,2 3,8 1,18 5,12 -1,9 -8,8 3,13 -5,-1 -6,14 9,1 -4,13 11,6 3,20 6,12 -9,9 -5,13 -28,-1 1,-29 -77,-3 -3,-16 -4,-33 -8,-19 -3,-26 -12,-6 -12,-11 13,-39 2,-27 -1,-11 46,3 50,2 7,2Z"/>
    <path data-fips-int="6017" data-name="El Dorado County" d="M1243,1141l0,24 27,23 6,12 0,12 -17,26 -36,30 -10,-2 -9,24 -20,2 -4,15 -12,10 -12,6 -17,-1 -14,6 -22,5 -32,2 -11,-5 -14,-11 -28,-4 -27,15 -6,-3 -22,5 -24,-73 -7,1 3,0 10,-26 0,-10 10,-10 0,-13 8,-11 10,-1 16,-14 22,3 3,-9 23,-10 11,3 5,7 17,13 13,2 8,8 19,-9 6,-8 10,-22 53,2 0,-2 21,-2 5,-11Z"/>
    <path data-fips-int="6019" data-name="Fresno County" d="M1578,1701l4,10 -8,14 6,12 -3,9 11,6 4,-3 17,22 -6,7 4,26 5,8 18,3 6,7 9,0 19,16 9,3 9,36 12,23 0,16 -10,5 7,10 1,19 -51,0 0,3 -21,0 -94,0 -5,-1 0,30 -8,-1 -81,0 -1,30 -46,0 -31,30 -24,24 -1,-3 -21,4 -3,6 -56,0 -2,76 -37,35 -30,27 -33,33 -13,-21 -13,-4 -8,3 -18,-20 -8,0 -6,-9 -12,-9 0,-6 -15,-6 -7,-19 12,-16 -13,-14 0,-6 -1,-10 6,-7 12,-1 7,-8 0,-51 -5,-4 -84,-86 42,-40 65,-64 -1,7 10,6 7,12 2,12 6,8 -4,9 18,24 6,2 2,10 40,7 8,-7 4,4 3,-9 20,-3 6,-4 15,4 2,-4 22,-3 4,-5 22,-4 10,3 6,-16 10,-6 6,-11 -1,-8 13,-15 10,-1 2,-10 8,7 4,-16 10,2 9,-12 -9,-6 2,-9 11,5 2,-7 13,13 2,-12 10,-7 11,5 12,-14 6,-20 -4,-22 6,-14 80,-82 14,10 7,-3 24,23 3,9 15,-5Z"/>
    <path data-fips-int="6021" data-name="Glenn County" d="M698,876l18,23 7,0 2,15 -14,6 6,8 -6,7 -3,24 3,10 37,-1 -7,8 1,18 -5,28 -32,-2 1,-10 -37,-1 0,9 -21,0 -93,-3 -47,-1 4,-47 0,-22 -42,-2 2,-45 -5,0 -2,-14 -5,0 0,-16 37,0 83,4 88,2Z"/>
    <path data-fips-int="6025" data-name="Imperial County" d="M2371,3374l-1,-36 2,-1 -2,-52 -4,-69 7,-1 -4,-122 116,-6 41,-1 121,-6 145,-8 -8,9 -10,-2 -10,5 8,17 -1,9 -7,9 2,6 12,4 -1,10 4,7 0,22 -7,26 6,2 9,17 3,-6 9,7 13,-4 18,4 7,18 7,0 -3,13 5,7 0,24 -18,19 2,12 -25,11 -26,-4 -4,9 -97,13 -36,4 -222,28Z"/>
    <path data-fips-int="6027" data-name="Inyo County" d="M1838,1697l154,139 34,30 68,61 147,132 17,16 133,119 71,64 -24,1 1,6 -136,4 -60,2 -77,2 -173,4 -91,2 -81,0 0,4 -23,1 0,-27 6,-2 -3,-26 -7,-6 4,-8 -9,-10 -10,-28 -2,-16 4,-11 -14,-16 -5,-22 1,-10 6,-8 -17,-20 6,-10 -5,-5 -16,-1 -1,-8 -9,-8 2,-15 -15,-12 5,-13 -5,-3 -12,-16 -8,-15 8,-5 -10,-13 -1,-19 -7,-10 10,-5 0,-16 -12,-23 -9,-36 -9,-3 -19,-16 -9,0 -6,-7 -18,-3 -5,-8 -4,-26 6,-7 -17,-22 -4,3 -11,-6 3,-9 -6,-12 8,-14 -4,-10 194,-2Z"/>
    <path data-fips-int="6029" data-name="Kern County" d="M1902,2279l1,30 -5,0 0,12 10,-1 0,10 -5,0 4,202 1,86 -10,0 -52,2 -173,2 -79,0 -45,2 3,9 -27,0 0,-7 -77,-2 0,-14 -10,0 1,-7 -31,0 0,-8 -16,0 -9,0 0,-62 -5,-5 -20,1 2,-31 -32,1 0,-30 -41,-1 0,-30 -20,0 0,-31 -33,-1 -14,-25 -11,-5 1,-31 -31,-1 1,-60 29,1 156,0 269,0 29,-2 90,0 45,1 23,-1 0,-4Z"/>
    <path data-fips-int="6031" data-name="Kings County" d="M1365,2285l-156,0 -29,-1 -6,0 -2,-11 -10,-9 5,-11 -10,-10 -10,0 33,-33 30,-27 37,-35 2,-76 56,0 3,-6 21,-4 1,3 24,-24 15,0 0,31 14,0 0,46 -14,0 0,46 -3,0Z"/>
    <path data-fips-int="6033" data-name="Lake County" d="M508,1014l-1,9 -10,14 5,12 20,16 4,8 8,-2 18,8 13,-2 11,23 -8,7 4,10 -1,14 12,11 9,3 0,19 18,14 -17,-1 -5,7 6,14 6,14 -26,41 -45,12 -5,-14 -13,-3 -3,-12 -10,-15 0,-5 -18,-17 -6,-6 -14,-6 -5,-7 -9,0 0,-8 -8,-8 -2,-18 -11,0 -7,-9 -3,-16 -7,-2 3,-8 2,-28 9,0 2,-6 13,-14 -2,-15 -4,0 0,-15 -4,-15 -5,-6 1,-10 -5,0 3,-15 2,-18 11,-5 22,2 1,-6 12,1 1,-18 42,2 0,22Z"/>
    <path data-fips-int="6035" data-name="Lassen County" d="M1250,402l-1,200 -2,228 -2,82 -4,5 -35,0 0,-10 6,0 4,-10 1,-60 -14,-11 0,-5 -10,-11 -2,-25 -10,0 -5,-10 -20,0 -15,-10 -5,-10 -8,-2 -2,-10 -8,-1 -7,-14 -17,-6 0,-8 -12,0 -8,-8 -30,-3 -9,5 0,8 -10,2 0,6 -11,4 0,15 -14,2 -5,-10 -15,0 -10,-5 -5,-8 1,-66 -70,-1 3,-77 2,-82 -3,-1 2,-97 242,4 4,0Z"/>
    <path data-fips-int="6037" data-name="Los Angeles County" d="M1640,3246l8,2 6,15 17,20 7,5 33,30 -12,-1 -10,8 -22,-17 -2,-10 -10,-10 -11,-23ZM1634,3090l21,1 12,12 4,-3 11,7 21,6 1,7 18,21 1,7 -10,3 -13,-7 -23,-1 -8,-11 4,-9 -6,-14 -23,-6ZM1739,2989l2,13 -7,4 -5,-8ZM1898,2618l2,92 8,95 -23,93 -11,0 -9,18 5,8 -55,1 0,15 -23,20 -1,10 -10,14 2,7 -6,5 -4,-6 -1,3 -18,-1 2,8 -17,-11 -10,3 1,15 -4,3 -27,-12 -9,0 -6,-12 11,-10 0,-13 -14,-35 -8,-13 -12,-14 -10,-6 -38,0 -21,2 -18,11 -13,-11 -27,-4 2,-10 44,-33 34,0 0,-25 10,0 0,-15 -72,-177 -3,-9 45,-2 79,0 173,-2Z"/>
    <path data-fips-int="6039" data-name="Madera County" d="M1441,1605l14,8 6,-8 18,1 19,19 1,8 8,11 2,14 -80,82 -6,14 4,22 -6,20 -12,14 -11,-5 -10,7 -2,12 -13,-13 -2,7 -11,-5 -2,9 9,6 -9,12 -10,-2 -4,16 -8,-7 -2,10 -10,1 -13,15 1,8 -6,11 -10,6 -6,16 -10,-3 -22,4 -4,5 -22,3 -2,4 -15,-4 -6,4 -20,3 -3,9 -4,-4 -8,7 -40,-7 -2,-10 -6,-2 -18,-24 4,-9 -6,-8 -2,-12 -7,-12 -10,-6 1,-7 19,-18 32,-8 19,-11 24,-4 25,0 19,-7 13,-14 66,-66 31,0 0,-15 10,0 0,-12 8,0 0,-23 5,-5 71,-70Z"/>
    <path data-fips-int="6043" data-name="Mariposa County" d="M1430,1592l-71,70 -5,5 0,23 -8,0 0,12 -10,0 0,15 -31,0 -66,66 -13,14 -13,-13 -10,-4 -15,-12 -1,-12 -5,-6 -20,-35 1,-9 -10,-26 -20,-41 4,-6 -5,-11 11,3 7,10 6,-6 -11,-21 24,-3 6,-11 13,0 4,-11 13,6 13,-16 32,16 8,7 34,3 19,-10 21,-6 2,-11 20,-15 0,-5 14,-5 10,13 7,4 5,-5 13,5 2,8 8,-2 5,10 12,6Z"/>
    <path data-fips-int="6045" data-name="Mendocino County" d="M301,790l0,9 76,3 87,3 3,22 -9,2 -3,24 5,15 0,16 5,0 2,14 5,0 -2,45 -1,18 -12,-1 -1,6 -22,-2 -11,5 -2,18 -3,15 5,0 -1,10 5,6 4,15 0,15 4,0 2,15 -13,14 -2,6 -9,0 -2,28 -3,8 7,2 3,16 7,9 11,0 2,18 8,8 0,8 9,0 5,7 14,6 6,6 -71,-3 0,4 -16,0 0,10 -63,-2 -1,10 -35,-2 -9,4 -30,-30 -3,-8 -17,-17 -4,-12 11,-11 5,-16 -7,-36 -13,-22 1,-7 -5,-21 0,-9 -8,-17 2,-4 1,-28 12,-26 5,-16 -4,-18 -1,-25 -9,-13 -5,-39 -12,-8 -7,-20 -7,-6 -5,-12 -12,-15 74,3Z"/>
    <path data-fips-int="6047" data-name="Merced County" d="M1226,1797l-19,7 -25,0 -24,4 -19,11 -32,8 -19,18 -65,64 -42,40 -3,-4 -57,-30 -4,-11 -10,-16 -9,0 -3,-6 5,-11 -8,-9 0,-14 10,-14 -8,-10 7,-9 -2,-6 59,-57 14,-13 -4,-20 65,-31 100,-49 20,41 10,26 -1,9 20,35 5,6 1,12 15,12 10,4Z"/>
    <path data-fips-int="6049" data-name="Modoc County" d="M1250,402l-104,0 -4,0 -242,-4 -30,0 2,-117 2,-90 -2,0 2,-60 2,-17 83,2 24,2 47,0 41,2 46,0 47,0 88,0 -1,34 0,123Z"/>
    <path data-fips-int="6051" data-name="Mono County" d="M1838,1697l-66,2 -194,2 -6,-9 -15,5 -3,-9 -24,-23 -7,3 -14,-10 -2,-14 -8,-11 -1,-8 -19,-19 -18,-1 -6,8 -14,-8 19,-23 -4,-5 5,-23 -32,-24 -2,-6 5,-19 -13,-21 -13,-8 -18,4 -12,-20 0,6 -11,-3 -23,-19 2,-10 6,-3 -3,-8 -10,-10 4,-14 1,-8 7,-5 -3,-11 13,-2 0,-11 8,-23 -12,-18 -2,-14 -7,-6 2,-19 9,-16 68,61 88,79 86,76 138,125Z"/>
    <path data-fips-int="6053" data-name="Monterey County" d="M781,1891l0,8 37,41 7,-3 8,14 -9,4 4,10 14,5 3,6 13,1 11,16 -3,19 8,5 -4,13 19,-1 4,11 52,54 3,22 10,-3 2,-7 8,5 9,-11 21,9 3,7 19,16 2,5 16,-1 -3,-18 -7,-18 18,16 0,6 13,14 -12,16 7,19 15,6 0,6 12,9 6,9 8,0 18,20 8,-3 13,4 13,21 10,0 10,10 -5,11 10,9 2,11 -132,-2 -28,-1 -148,-4 -11,0 -12,-10 -6,-10 -14,-14 -1,-11 -9,-28 -18,-7 -18,-35 -23,-28 -33,-19 -1,-7 -10,-8 -8,-23 -4,-36 -8,-22 8,0 0,-11 -11,-5 4,-15 9,-9 9,12 7,-1 10,-12 8,-25 0,-13 6,-21 -5,-15 6,-10 17,-10 17,1Z"/>
    <path data-fips-int="6055" data-name="Napa County" d="M670,1323 -7,30 9,13 7,20 -1,6 -39,-1 5,15 -8,4 6,14 -6,15 5,8 -27,-1 -2,0 -29,-1 10,0 4,-8 -2,-23 -8,-10 1,-11 -5,-12 -11,-11 3,-4 -13,-16 5,-8 -13,-7 -6,-16 -8,-13 -10,-4 -7,-13 6,-9 0,-15 45,-12 26,-41 -6,-14 9,9 20,1 16,40 1,11 14,14 0,13 4,-2 5,10Z"/>
    <path data-fips-int="6057" data-name="Nevada County" d="M1244,1008l-2,46 -99,-1 -72,-1 -22,9 -17,16 -19,12 -4,10 -7,0 -14,12 -8,11 -17,33 -8,4 -10,-3 -9,-9 -14,8 -18,-5 -6,-3 1,-67 4,-15 13,-4 4,-12 14,-11 8,-11 11,-4 17,0 11,-8 14,1 25,-8 7,2 19,-9 17,-19 3,-2 29,2 6,19 8,6 123,1Z"/>
    <path data-fips-int="6061" data-name="Placer County" d="M1242,1054l1,87 -38,-1 -5,11 -21,2 0,2 -53,-2 -10,22 -6,8 -19,9 -8,-8 -13,-2 -17,-13 -5,-7 -11,-3 -23,10 -3,9 -22,-3 -16,14 -10,1 -8,11 0,13 -10,10 0,10 -10,26 -3,0 -92,-10 4,-5 2,-61 15,0 0,-25 15,-12 15,-6 7,6 6,3 18,5 14,-8 9,9 10,3 8,-4 17,-33 8,-11 14,-12 7,0 4,-10 19,-12 17,-16 22,-9 72,1Z"/>
    <path data-fips-int="6063" data-name="Plumas County" d="M896,655l70,1 -1,66 5,8 10,5 15,0 5,10 14,-2 0,-15 11,-4 0,-6 10,-2 0,-8 9,-5 30,3 8,8 12,0 0,8 17,6 7,14 8,1 2,10 8,2 5,10 15,10 20,0 5,10 10,0 2,25 10,11 0,5 14,11 -1,60 -4,10 -6,0 0,10 -20,-1 -115,0 -8,10 -9,-10 -10,-5 -8,3 -7,-4 -16,-20 -17,13 -1,17 -12,14 -8,4 -19,14 -5,-9 -11,-2 -8,-22 -10,-4 -1,-9 -10,-5 -5,-10 -12,-10 -12,-21 -12,-5 -3,-21 3,-10 -3,-19 6,-13 6,0 1,-20 -8,-2 1,-13 -11,0 2,-16 9,2 10,-7 5,-22 -7,-8 8,-5 -8,-9 -23,-4 -4,-6 2,-22 -5,-6Z"/>
    <path data-fips-int="6065" data-name="Riverside County" d="M2792,3072l-145,8 -121,6 -41,1 -116,6 -40,0 -72,4 -71,1 -46,2 -47,1 -18,-2 -44,2 0,-6 -38,-15 2,-4 -42,1 0,-10 26,-45 -17,-14 -18,-3 0,-16 -13,-3 -28,-36 5,-6 0,-13 12,-1 0,-16 16,-6 -1,-15 52,-1 1,5 43,-1 0,5 86,-2 0,-10 98,-3 114,-4 194,-7 60,-3 -1,-15 131,-7 123,-7 0,21 -5,10 -14,15 -7,12 6,3 -3,7 7,7 -8,7 2,13 7,20 -1,9 5,13 -10,8 6,6 -6,3 4,13 -5,7 5,13 -9,8 -18,27Z"/>
    <path data-fips-int="6067" data-name="Sacramento County" d="M752,1494l-9,2 -5,-14 10,4ZM963,1332l1,21 -1,52 -12,-1 -8,7 -17,3 -4,5 -35,6 -27,3 -8,-9 -11,-3 -11,17 -7,6 2,8 -17,19 3,2 -11,0 -7,6 -9,-2 -7,15 -14,8 -11,-4 0,-8 14,-7 7,0 8,-22 7,-12 10,-3 6,-10 1,-33 22,-16 2,-15 -4,-10 8,-3 0,-9 -12,-4 -1,-12 7,-2 4,-9 -2,-6 4,-12 -10,0 -7,-18 -6,2 -11,-17 9,-15 32,0 92,10 7,-1Z"/>
    <path data-fips-int="6069" data-name="San Benito County" d="M900,1871l-5,11 3,6 9,0 10,16 4,11 57,30 3,4 84,86 5,4 0,51 -7,8 -12,1 -6,7 1,10 -18,-16 7,18 3,18 -16,1 -2,-5 -19,-16 -3,-7 -21,-9 -9,11 -8,-5 -2,7 -10,3 -3,-22 -52,-54 -4,-11 -19,1 4,-13 -8,-5 3,-19 -11,-16 -13,-1 -3,-6 -14,-5 -4,-10 9,-4 -8,-14 -7,3 -37,-41 0,-8 5,-5 12,4 20,-16 7,-12 10,-2 9,10Z"/>
    <path data-fips-int="6071" data-name="San Bernardino County" d="M2836,2843l-123,7 -131,7 1,15 -60,3 -194,7 -114,4 -98,3 0,10 -86,2 0,-5 -43,1 -1,-5 -52,1 1,15 -16,6 0,16 -12,1 0,13 -5,6 -33,-26 -5,-8 9,-18 11,0 23,-93 -8,-95 -2,-92 10,0 -1,-86 -4,-202 5,0 0,-10 -10,1 0,-12 5,0 -1,-30 91,-2 173,-4 77,-2 60,-2 136,-4 -1,-6 24,-1 4,3 121,109 89,80 37,32 50,45 3,47 14,12 8,20 13,12 14,8 6,16 -2,3 11,15 -4,6 10,8 8,17 -1,22 14,2 18,16 4,0 12,12 14,4 12,16 2,16 -9,0 -17,26 -16,6 -9,12 -9,2 -11,10 -7,0Z"/>
    <path data-fips-int="6077" data-name="San Joaquin County" d="M963,1405l7,26 14,48 4,3 -1,100 -1,20 -16,-8 -12,6 -8,-4 -6,5 -10,-1 -3,5 -9,1 -7,11 -5,-3 -77,73 -7,-14 -16,-7 3,-96 5,-11 -12,-9 7,-17 -6,-23 6,-10 -5,-8 3,-11 5,4 -5,-17 -3,-2 17,-19 -2,-8 7,-6 11,-17 11,3 8,9 27,-3 35,-6 4,-5 17,-3 8,-7Z"/>
    <path data-fips-int="6079" data-name="San Luis Obispo County" d="M1174,2284l6,0 -1,60 31,1 -1,31 11,5 14,25 33,1 0,31 20,0 0,30 41,1 0,30 32,-1 -2,31 20,-1 5,5 0,62 -18,0 -23,-18 -16,-8 -21,0 -24,-11 -6,-9 -14,-2 -11,-6 -46,-21 -18,12 -7,16 -25,4 -16,9 12,17 -2,13 -40,-32 -5,0 -43,8 -9,4 -4,-6 7,-28 -1,-22 -5,-9 -15,-9 -13,-2 -3,6 -7,-6 -20,-11 -12,-16 9,-21 8,-3 -7,-28 -11,-16 -12,0 -15,-5 -28,-32 -6,-15 -12,-16 -8,2 -7,-7 -18,-4 -2,-12 -6,-6 0,-14 -8,-14 11,0 148,4 28,1Z"/>
    <path data-fips-int="6081" data-name="San Mateo County" d="M581,1602l6,15 -7,8 8,4 -3,8 16,6 3,6 14,2 2,7 13,4 9,15 8,-4 6,16 -14,4 -8,7 0,13 -4,10 13,27 -1,25 -25,-1 0,9 -21,1 1,13 6,15 -10,-2 -10,-20 -11,-10 -3,-18 7,-38 -12,-29 -1,-14 -8,-9 -5,3 -4,-9 0,-26 5,-2 3,-19 -2,-19Z"/>
    <path data-fips-int="6085" data-name="Santa Clara County" d="M833,1687l-4,3 7,12 -3,6 4,10 12,2 -3,11 4,17 -15,10 3,14 8,10 3,20 13,-10 17,7 5,-7 15,17 2,6 -7,9 8,10 -10,14 0,14 8,9 -56,-1 -9,-10 -10,2 -7,12 -20,16 0,-7 -10,-7 -8,2 -5,-11 -7,-1 -17,-30 -14,-6 -4,-8 -20,-7 -26,-13 -10,-8 -1,-9 -20,-16 -13,-19 -13,-27 4,-10 0,-13 8,-7 14,-4 13,7 11,-5 11,0 11,-2 6,5 17,-10 48,2Z"/>
    <path data-fips-int="6087" data-name="Santa Cruz County" d="M798,1890l-12,-4 -5,5 -6,-6 -17,-1 -17,10 -6,10 -1,1 -14,-30 -11,-11 -9,-4 -11,8 -13,-3 -12,5 -19,-8 -9,-7 -23,-26 -10,-17 -6,-15 -1,-13 21,-1 0,-9 25,1 1,-25 13,19 20,16 1,9 10,8 26,13 20,7 4,8 14,6 17,30 7,1 5,11 8,-2 10,7Z"/>
    <path data-fips-int="6089" data-name="Shasta County" d="M870,398l30,0 -2,97 3,1 -2,82 -3,77 -45,-1 -18,0 -7,4 -15,-1 -7,-6 -16,4 -20,-3 -19,2 -16,8 -17,-5 -7,3 -18,0 -8,5 -27,3 -21,6 -37,-2 -15,-7 -21,7 -11,10 -14,3 -16,-13 -32,6 -6,-1 -11,13 -15,-3 -24,9 2,-21 12,-8 5,-16 11,-1 8,-8 8,0 16,-20 13,-2 2,-10 11,-4 6,-7 7,2 -3,-22 -10,-19 8,-2 5,-11 -4,-5 14,-11 4,-12 -2,-7 7,-7 11,-18 -3,-8 7,-21 13,-6 5,-20 -4,-4 7,-6 15,-2 4,-22 -14,-8 26,1 39,0 31,1 43,2 78,2Z"/>
    <path data-fips-int="6091" data-name="Sierra County" d="M1206,917l35,0 4,-5 -1,96 -12,0 -123,-1 -8,-6 -6,-19 -29,-2 -3,2 -17,19 -19,9 -7,-2 -25,8 -14,-1 -11,8 -2,-42 -7,-9 9,-7 5,-27 8,-4 12,-14 1,-17 17,-13 16,20 7,4 8,-3 10,5 9,10 8,-10 115,0Z"/>
    <path data-fips-int="6093" data-name="Siskiyou County" d="M876,114l-2,17 -2,60 2,0 -2,90 -2,117 -59,-2 -78,-2 -43,-2 -31,-1 -39,0 -26,-1 -5,-10 1,-25 11,-13 -7,-8 -8,0 -4,-8 -9,2 -1,11 -16,1 -2,10 -15,6 -4,9 -13,5 -7,10 -25,-2 -11,9 -7,-1 3,12 -7,12 1,8 11,6 8,16 -7,11 -11,-6 -20,2 -2,-12 -22,-16 -29,-1 -14,-22 -14,-9 -7,4 -7,-9 -6,-16 -5,-6 3,-12 -8,-20 1,-12 -5,-6 -43,-2 5,-13 9,-9 -6,-12 -3,-20 -11,-6 4,-13 -9,-1 6,-14 5,1 -3,-13 8,-8 1,-9 -5,-12 -1,-18 -3,-8 7,-2 10,-19 8,4 4,-8 9,0 8,-18 0,-12 4,-4 44,4 57,-2 22,3 106,3 53,0 72,4 50,3Z"/>
    <path data-fips-int="6095" data-name="Solano County" d="M612,1446l4,12 10,16 -8,3 -11,-17 -24,-15ZM805,1396l-1,33 -6,10 -10,3 -8,8 -4,11 -11,11 -16,10 -12,-4 -19,8 -1,-12 -16,4 -9,-10 6,-5 -4,-8 -16,0 -3,11 -19,21 -7,-1 -8,-8 -10,0 -12,-16 2,-10 -7,-6 27,1 -5,-8 6,-15 -6,-14 8,-4 -5,-15 39,1 1,-6 -7,-20 -9,-13 7,-30 13,0 11,9 20,-15 23,-1 11,5 14,0 15,-4 4,5 -2,73Z"/>
    <path data-fips-int="6097" data-name="Sonoma County" d="M480,1199l18,17 0,5 10,15 3,12 13,3 5,14 0,15 -6,9 7,13 10,4 8,13 6,16 13,7 -5,8 13,16 -3,4 11,11 5,12 -1,11 8,10 2,23 -4,8 -10,0 2,7 -12,7 -16,0 -12,-16 -2,-4 -3,-4 -21,0 -26,-11 -43,-41 -25,3 -3,5 -16,-14 0,12 -4,-8 3,-14 -15,-32 -17,-14 -10,-5 -19,-19 -8,-5 -27,-46 -24,-26 9,-4 35,2 1,-10 63,2 0,-10 16,0 0,-4Z"/>
    <path data-fips-int="6099" data-name="Stanislaus County" d="M1061,1570l72,69 -100,49 -65,31 4,20 -14,13 -59,57 -15,-17 -5,7 -17,-7 -13,10 -3,-20 -8,-10 -3,-14 15,-10 -4,-17 3,-11 -12,-2 -4,-10 3,-6 -7,-12 4,-3 77,-73 5,3 7,-11 9,-1 3,-5 10,1 6,-5 8,4 12,-6 16,8 1,-20 1,-100Z"/>
    <path data-fips-int="6101" data-name="Sutter County" d="M807,1054l-3,12 4,11 0,21 8,29 -8,10 6,23 3,25 9,-18 24,-8 11,0 0,25 -15,0 -2,61 -4,5 -32,0 3,-8 -9,-10 -2,6 -10,3 -7,-15 -7,-2 -1,-19 -8,-3 -7,4 -9,-10 4,-11 -8,-3 -1,-11 5,-11 7,-3 -9,-6 -2,-18 -14,-6 -7,-22 -6,-13 4,-7 -4,-14 10,-22 38,1 38,0Z"/>
    <path data-fips-int="6103" data-name="Tehama County" d="M851,654l5,6 -2,22 4,6 23,4 8,9 -8,5 7,8 -5,22 -10,7 -9,-2 -2,16 -2,10 -8,0 -5,7 -23,0 -3,16 -8,5 -6,19 -15,-1 -12,16 -1,12 -15,6 -63,-1 -8,15 5,15 -30,-2 -88,-2 -83,-4 -37,0 -5,-15 3,-24 9,-2 -3,-22 -5,-7 1,-22 -4,-27 -5,-4 6,-13 -1,-19 -11,-8 -7,-1 -5,-8 24,-9 15,3 11,-13 6,1 32,-6 16,13 14,-3 11,-10 21,-7 15,7 37,2 21,-6 27,-3 8,-5 18,0 7,-3 17,5 16,-8 19,-2 20,3 16,-4 7,6 15,1 7,-4Z"/>
    <path data-fips-int="6105" data-name="Trinity County" d="M594,390l14,8 -4,22 -15,2 -7,6 4,4 -5,20 -13,6 -7,21 3,8 -11,18 -7,7 2,7 -4,12 -14,11 4,5 -5,11 -8,2 10,19 3,22 -7,-2 -6,7 -11,4 -2,10 -13,2 -16,20 -8,0 -8,8 -11,1 -5,16 -12,8 -2,21 5,8 7,1 11,8 1,19 -6,13 5,4 4,27 -1,22 5,7 -87,-3 -76,-3 0,-9 5,-102 7,-145 -4,-46 -6,-6 -8,-25 10,1 8,-8 4,7 15,6 10,-10 6,-20 5,-2 -5,-18 -8,-3 9,-17 0,-15 6,-5 7,9 7,-4 14,9 14,22 29,1 22,16 2,12 20,-2 11,6 7,-11 -8,-16 -11,-6 -1,-8 7,-12 -3,-12 7,1 11,-9 25,2 7,-10 13,-5 4,-9 15,-6 2,-10 16,-1 1,-11 9,-2 4,8 8,0 7,8 -11,13 -1,25Z"/>
    <path data-fips-int="6107" data-name="Tulare County" d="M1798,2284l-45,-1 -90,0 -29,2 -269,0 1,-121 3,0 0,-46 14,0 0,-46 -14,0 0,-31 -15,0 31,-30 46,0 1,-30 81,0 8,1 0,-30 5,1 94,0 21,0 0,-3 51,0 10,13 -8,5 8,15 12,16 5,3 -5,13 15,12 -2,15 9,8 1,8 16,1 5,5 -6,10 17,20 -6,8 -1,10 5,22 14,16 -4,11 2,16 10,28 9,10 -4,8 7,6 3,26 -6,2Z"/>
    <path data-fips-int="6109" data-name="Tuolumne County" d="M1341,1399l-4,14 10,10 3,8 -6,3 -2,10 23,19 11,3 0,-6 12,20 18,-4 13,8 13,21 -5,19 2,6 32,24 -5,23 4,5 -19,23 -11,-13 0,-6 -12,-6 -5,-10 -8,2 -2,-8 -13,-5 -5,5 -7,-4 -10,-13 -14,5 0,5 -20,15 -2,11 -21,6 -19,10 -34,-3 -8,-7 -32,-16 -13,16 -13,-6 -4,11 -13,0 -6,11 -24,3 11,21 -6,6 -7,-10 -11,-3 5,11 -4,6 -72,-69 5,-10 26,-21 8,-12 -5,-12 19,-11 34,-51 19,-33 20,-24 8,-15 7,-5 16,-4 16,-7 3,-5 38,28 22,-15 12,-5 13,0 2,18Z"/>
    <path data-fips-int="6113" data-name="Yolo County" d="M747,1182l8,3 -4,11 9,10 7,-4 8,3 1,19 7,2 7,15 10,-3 2,-6 9,10 -3,8 -9,15 11,17 6,-2 7,18 10,0 -4,12 2,6 -4,9 -7,2 1,12 12,4 0,9 -8,3 4,10 -2,15 -22,16 -26,-1 2,-73 -4,-5 -15,4 -14,0 -11,-5 -23,1 -20,15 -11,-9 -13,0 -7,-29 -5,-10 -4,2 0,-13 -14,-14 -1,-11 -16,-40 -20,-1 -9,-9 -6,-14 5,-7 17,1 41,0Z"/>
    <path data-fips-int="6115" data-name="Yuba County" d="M970,1023l-17,0 -11,4 -8,11 -14,11 -4,12 -13,4 -4,15 -1,67 -7,-6 -15,6 -15,12 -11,0 -24,8 -9,18 -3,-25 -6,-23 8,-10 -8,-29 0,-21 -4,-11 3,-12 4,-9 12,6 12,-5 31,-6 10,-10 2,-12 8,-7 -3,-10 9,-8 3,-15 16,2 1,-4 25,0 0,-10 12,-4 7,-10 19,-14 -5,27 -9,7 7,9Z"/>
    <path data-fips-int="6013" data-name="Contra Costa County" d="M808,1492l5,8 -6,10 6,23 -7,17 12,9 -5,11 -112,32 -14,-11 4,-5 -13,-13 -25,-3 -13,-6 -1,-6 -20,-24 -13,2 -11,-6 -3,3 -13,-11 -4,-9 8,3 16,-17 11,-3 16,-16 18,6 7,8 22,-9 16,-3 19,4 35,12 23,0 6,5 7,-3 -11,-4 15,-11 -1,-9 14,-1 6,-5 8,10 -17,10 8,9Z"/>
    <path data-fips-int="6023" data-name="Humboldt County" d="M292,308l43,2 5,6 -1,12 8,20 -3,12 5,6 6,16 -6,5 0,15 -9,17 8,3 5,18 -5,2 -6,20 -10,10 -15,-6 -4,-7 -8,8 -10,-1 8,25 6,6 4,46 -7,145 -5,102 -54,-3 -74,-3 -12,-8 -1,-15 -7,-14 -21,-11 -5,-8 -21,-18 -18,-20 5,-18 -6,-29 -8,-18 23,-57 17,-31 13,6 3,-20 5,-2 5,-16 24,-7 3,-10 -16,-6 -7,9 -9,19 -9,5 12,-16 16,-34 9,-39 -11,-14 0,-26 4,0 11,-29 12,-48 4,-34 77,3 -1,29Z"/>
    <path data-fips-int="6041" data-name="Marin County" d="M543,1439 2,4 15,19 1,12 -5,19 14,10 -14,6 5,9 -7,6 17,16 -6,6 -11,-12 6,14 0,12 -14,2 -9,-12 -18,-12 -9,-10 -10,6 -8,-4 -2,-8 -13,-8 -10,-18 -13,-10 -14,-1 -4,-5 6,-8 -9,1 3,9 -13,12 -9,2 20,-51 1,-8 -9,-26 20,31 19,24 3,-2 -20,-27 -26,-46 3,-5 25,-3 43,41 26,11 21,0Z"/>
    <path data-fips-int="6073" data-name="San Diego County" d="M2369,3093l4,122 -7,1 4,69 2,52 -2,1 1,36 -11,2 -104,13 -80,10 -104,13 -4,-32 -8,-14 -9,-7 -9,2 7,-12 10,6 1,8 15,30 4,-11 -7,-13 1,-5 -17,-14 0,-5 -12,-1 -5,5 -1,17 -5,-11 -1,-16 4,-7 9,-2 0,-8 -9,2 -3,11 -2,-15 -7,-7 9,-19 -9,-46 -15,-36 -7,-14 -31,-43 -17,-20 -25,-17 4,-23 7,0 13,-6 0,-12 42,-1 -2,4 38,15 0,6 44,-2 18,2 47,-1 46,-2 71,-1 72,-4Z"/>
    <path data-fips-int="6075" data-name="San Francisco County" d="M581,1602l-29,-2 -3,-25 15,-8 14,-1 7,7 -1,9 6,12Z"/>
    <path data-fips-int="6083" data-name="Santa Barbara County" d="M1215,2895l3,15 16,4 6,14 -14,2 -11,8 -14,2 -6,4 -17,-12 -13,-21 -7,-4 9,-3 12,2 12,-7 17,1ZM1126,2889l14,5 1,7 -15,2 -14,-7 -12,1 10,-10 4,2 12,-8ZM1258,2882l14,2 11,6 17,-1 14,5 7,8 20,1 3,-8 11,-5 14,7 -10,13 -31,3 -16,9 -15,1 -23,-3 -11,-15 3,-8 -13,-10ZM1383,2595l9,0 -1,17 0,141 -1,13 -8,13 -27,-15 -12,-3 -18,2 -16,8 -18,-8 -24,4 -14,-11 -8,0 -16,-9 -23,0 -13,-4 -47,1 -20,4 -30,2 -1,-8 -10,-18 -20,-12 -12,1 -6,-8 1,-9 12,-31 0,-6 -10,-17 8,-28 0,-7 -11,-15 -6,-1 6,-26 4,6 9,-4 43,-8 5,0 40,32 2,-13 -12,-17 16,-9 25,-4 7,-16 18,-12 46,21 11,6 14,2 6,9 24,11 21,0 16,8 23,18Z"/>
    <path data-fips-int="6111" data-name="Ventura County" d="M1364,3158l22,10 9,10 -12,5 -22,-6 -10,-16ZM1534,2893l-42,-20 -12,0 -24,-16 -2,-10 -3,2 -13,-34 -7,-1 -19,-17 -6,0 -11,-12 -13,-6 8,-13 1,-13 0,-141 1,-17 16,0 0,8 31,0 -1,7 10,0 0,14 77,2 0,7 27,0 72,177 0,15 -10,0 0,25 -34,0 -44,33Z"/>
    <path data-fips-int="6059" data-name="Orange County" d="M1870,2924l33,26 28,36 13,3 0,16 18,3 17,14 -26,45 0,10 0,12 -13,6 -7,0 -4,23 -5,-9 -19,-16 -11,0 -4,-8 -18,-20 -5,-1 -24,-21 -1,-1 -3,0 -1,0 -6,-2 8,4 -30,-17 -20,-20 -13,-11 6,-5 -2,-7 10,-14 1,-10 23,-20 0,-15Z"/>
  </g>
  <g class="cities">
    <circle r="3" cx="173.8" cy="289.0"/>
    <text x="173.8" y="289.0">Los Angeles</text>
    <circle r="3" cx="206.2" cy="335.0"/>
    <text x="206.2" y="335.0">San Diego</text>
    <circle r="3" cx="71.5" cy="173.5"/>
    <text x="71.5" y="173.5">San Jose</text>
  </g>
</svg>