<?xml version="1.0" encoding="utf-8"?>
<!DOCTYPE svg PUBLIC "-//W3C//DTD SVG 1.1//EN" "http://www.w3.org/Graphics/SVG/1.1/DTD/svg11.dtd">
<svg version="1.1" xmlns="http://www.w3.org/2000/svg" width="855" height="1000" viewBox="0 0 855 1000">
  <path class="state" d="M196,483l-9,-4 -4,-18 -12,-12v-11l-5,-1 1,-9 9,-5 8,4 17,-3 18,4 3,-7 7,5 1,-7 -11,3 5,-10 -10,11 -5,-1h-10l-6,-7 -7,10 -8,-3 -5,-10 4,9 -12,-9h-11l4,5v28l-4,1 -9,-9h-6l-7,-10 -8,-4 -7,4 6,-18 -4,-12 -5,-2 -3,-13 -12,-8 -19,-26 -15,-18 4,-7 -8,-42 4,-9 -4,-31 -13,-18 -24,-27 -3,-17 8,-22 8,-4 9,-33v-11l5,-31 -5,-28 -7,-5 5,-20h52l55,4h38l21,2h39l41,3h67l-1,9v71l-1,58v70l-1,18v28l-1,13v25l9,13 24,22 61,55 77,69 72,65 106,95 49,44 37,33v13l16,18 12,23 16,13 -15,18 -8,5v7l-8,9 4,24 -1,14 -8,12 -8,2 5,15 1,21 14,1 4,5 1,14 -13,12 -62,8 -23,2 -39,6 -85,11 1,-6 -9,-20 -6,-22 -15,-26 -13,-10 -24,-22 -3,-1 -16,-12 -1,-2h-13v5l-10,-2 1,-12 -10,-17 -20,-1 -5,3 -11,-4 -23,-9 -5,-14 -16,-9 -7,-5 -25,1 -12,-6 -23,-1 -13,2 -4,-7 -12,-5 4,-12 -3,-28 2,-13 -13,-6 -10,-10 5,-9 -3,-10 -9,-1 -12,-18 -8,-2 -7,-14 -9,-8 -2,-10 -7,-5 -4,-9 -16,-13 -8,-24v-15l9,-1 3,-21 -8,-13 -16,2 -14,-16 -8,-8v-17l-9,-16 2,-19 -1,-7 8,-3 2,10 1,12 10,2 10,11ZM466,882l19,7 6,10 -13,-1 -3,-10ZM467,927l19,19 -11,-1ZM358,823l18,6 14,-2 -16,8 -12,-1ZM345,827l7,5 -12,9 -10,-10Z"/>
  <g class="counties">
    <path data-fips-int="6001" data-name="Alameda County" d="M231,449l-1,26 6,7 -30,-1 -10,2 -9,-4 -4,-18 -12,-12v-11h5l9,11h7l7,8Z"/>
    <path data-fips-int="6003" data-name="Alpine County" d="M386,361l-2,12 4,5v14l-6,7 -5,-8 -14,5 -11,-7 -4,-8v-19l15,-16 -1,-7Z"/>
    <path data-fips-int="6005" data-name="Amador County" d="M348,362v19l-29,4 -13,7 -3,6 -14,5 -5,6h-9l-2,-8v-21l23,-4 8,5 29,-5 3,-6Z"/>
    <path data-fips-int="6007" data-name="Butte County" d="M272,272l-10,6 -8,1 -5,15 -20,7 -22,-2 2,-7 3,-16h-10v-14l4,-1 -8,-11 1,-9h20l10,-8 5,-13 11,-4 6,6 -6,19Z"/>
    <path data-fips-int="6009" data-name="Calaveras County" d="M348,381l4,8 -10,4 -18,23 -11,20 -12,13 -20,-26 -6,-14h9l5,-6 14,-5 3,-6 13,-7Z"/>
    <path data-fips-int="6011" data-name="Colusa County" d="M209,292l-2,7 -2,16 7,8v14l-39,-1 -6,-3 -7,-26h-10l-9,-9 3,-8 46,1 11,-3Z"/>
    <path data-fips-int="6015" data-name="Del Norte County" d="M96,25l-4,10 -10,9v14l-3,8 5,5 -2,17 -8,-1v-8l-23,-1 -5,-28 -7,-5 5,-20h23Z"/>
    <path data-fips-int="6017" data-name="El Dorado County" d="M353,326l9,13 1,7 -15,16 -12,8 -3,6 -29,5 -8,-5 -23,4 -8,-20 7,-20 26,-8 13,8 8,-10 21,-1Z"/>
    <path data-fips-int="6019" data-name="Fresno County" d="M449,486l1,9 8,11 1,12 17,7 7,18 -1,14 -49,1v8h-25v8h-14l-8,9 -15,9 -16,-1v22l-29,28 -3,-7 -14,-6 -9,-8 1,-9 -4,-7 7,-5 1,-17 -26,-26 31,-29 6,20 12,7 39,-7 6,-13 16,-12 -1,-5h13l4,-5v-12l25,-27Z"/>
    <path data-fips-int="6021" data-name="Glenn County" d="M198,250l8,11 -4,1v14h10l-3,16 -8,-4 -11,3 -46,-1v-20l-11,-1 -4,-21Z"/>
    <path data-fips-int="6025" data-name="Imperial County" d="M676,964l-2,-46h3l-2,-35 121,-5 -8,2 5,15 1,21 14,1 4,5 1,14 -13,12 -62,8 -23,2Z"/>
    <path data-fips-int="6027" data-name="Inyo County" d="M524,485l72,65 106,95 -6,1 -154,5 -31,1 3,-15 -3,-2 -3,-21 -4,-4v-14l-9,-8 -13,-31 1,-14 -7,-18 -17,-7 -1,-12 -8,-11 -1,-9Z"/>
    <path data-fips-int="6029" data-name="Kern County" d="M542,651l1,14 1,83h-3l-43,1h-57l1,3 -30,-2 -2,-7 -13,-1h-4l1,-19 -7,-1 1,-10 -10,2v-9l-12,-1 -5,-17h-10l-6,-8v-9l-9,-1v-17h175Z"/>
    <path data-fips-int="6031" data-name="Kings County" d="M388,652h-54l-8,-11 29,-28v-22l16,1 15,-9 8,8v14h-5Z"/>
    <path data-fips-int="6033" data-name="Lake County" d="M144,290l-3,8 9,9h10l7,26 6,3 -5,6 2,6 -9,10 -12,3 -13,-19 -12,-9 -9,-14 2,-10 7,-6 -5,-27 13,-1 1,-6 11,1Z"/>
    <path data-fips-int="6035" data-name="Lassen County" d="M356,114l-1,58v70l-1,18 -11,1 3,-6v-17l-10,-17 -13,-3 -7,-11 -19,-7 -13,13 -9,-7v-19h-21l2,-29v-45l2,1h53Z"/>
    <path data-fips-int="6037" data-name="Los Angeles County" d="M541,748v26l3,19 -1,14 -10,29h-15l-12,20 -1,-2h-13v5l-10,-2 1,-12 -10,-17 -20,-1 -5,3 -11,-4 13,-12h10l2,-12 -20,-50 -1,-3h57ZM466,882l19,7 6,10 -13,-1 -3,-10ZM467,927l19,19 -11,-1Z"/>
    <path data-fips-int="6039" data-name="Madera County" d="M410,458l13,1 7,14 -25,27v12l-4,5h-13l1,5 -16,12 -6,13 -39,7 -12,-7 -6,-20 19,-11 20,-3 22,-23h9l7,-16 20,-20Z"/>
    <path data-fips-int="6043" data-name="Mariposa County" d="M407,454l-20,20 -7,16h-9l-22,23 -11,-8 -15,-37 3,-9 18,-6 2,-3 11,5h15l18,-13Z"/>
    <path data-fips-int="6045" data-name="Mendocino County" d="M85,225v3l46,2 -2,18 4,21 -1,6 -13,1 5,27 -7,6 -2,10 9,14 12,9h-25v3h-19l-12,3 -15,-18 4,-7 -8,-42 4,-9 -4,-31 -13,-18Z"/>
    <path data-fips-int="6047" data-name="Merced County" d="M349,513l-20,3 -19,11 -31,29 -17,-8 -6,-14 -1,-17 21,-21 -1,-6 28,-13 20,-9 15,37Z"/>
    <path data-fips-int="6049" data-name="Modoc County" d="M356,114h-98l-2,-1h-9l1,-11v-65l1,-6 41,3h67l-1,9Z"/>
    <path data-fips-int="6051" data-name="Mono County" d="M524,485l-75,1 -19,-13 -7,-14 -13,-1 6,-6v-9l-9,-6 -2,-13 -17,-6 -6,-19 6,-7v-14l-4,-5 2,-12 61,55Z"/>
    <path data-fips-int="6053" data-name="Monterey County" d="M222,540l1,5 13,10 -2,5 11,6 2,14 7,3 14,15 2,7 12,-4 10,10 5,-7 4,7 -1,9 9,8 14,6 3,7 8,11h-33l-58,-2 -9,-8 -2,-10 -7,-5 -4,-9 -16,-13 -8,-24v-15l9,-1 3,-21 5,-6Z"/>
    <path data-fips-int="6055" data-name="Napa County" d="M190,376l-2,11 5,10h-13v15h-15l3,-8 -2,-10 -17,-23v-10l12,-3 9,-10 -2,-6 9,5Z"/>
    <path data-fips-int="6057" data-name="Nevada County" d="M354,288l-1,13 -48,-1 -4,1 -24,19 -2,9 -8,-1h-12l2,-25 14,-11h5l21,-5 6,-8h7l4,8Z"/>
    <path data-fips-int="6061" data-name="Placer County" d="M353,301v25l-13,3 -21,1 -8,10 -13,-8 -26,8 -7,20 -26,-3 2,-19 4,-7 10,-3h12l8,1 2,-9 24,-19 4,-1Z"/>
    <path data-fips-int="6063" data-name="Plumas County" d="M254,187h21v19l9,7 13,-13 19,7 7,11 13,3 10,17v17l-3,6h-38l-4,3 -14,-10 -10,14 -5,4 -27,-31 6,-19 -6,-6 6,-6 2,-11 -10,-3 -2,-10Z"/>
    <path data-fips-int="6065" data-name="Riverside County" d="M796,878l-121,5 -41,2h-55l-10,-7h-12l7,-15 -11,-5 -10,-16 9,-16 52,2v-3l40,-1 92,-4v-4l73,-4v7l-8,9 4,24 -1,14Z"/>
    <path data-fips-int="6067" data-name="Sacramento County" d="M273,380v21l-24,7 -11,-4 -8,15 -11,3 5,-10 4,-13 8,-12 -4,-8 4,-9 -9,-9 2,-5 10,1 26,3Z"/>
    <path data-fips-int="6069" data-name="San Benito County" d="M256,534l6,14 17,8 26,26 -1,17 -7,5 -5,7 -10,-10 -12,4 -2,-7 -14,-15 -7,-3 -2,-14 -11,-6 2,-5 -13,-10 -1,-5h5l7,-9Z"/>
    <path data-fips-int="6071" data-name="San Bernardino County" d="M809,812l-73,4v4l-92,4 -40,1v3l-52,-2 -9,16 -10,-6 10,-29 1,-14 -3,-19v-26h3l-1,-83 -1,-14 154,-5 6,-1 49,44 37,33v13l16,18 12,23 16,13 -15,18Z"/>
    <path data-fips-int="6077" data-name="San Joaquin County" d="M273,401l2,8 6,14 -1,34 -12,-1 -10,5 -22,21 -6,-7 1,-26 -2,-23 1,-7 8,-15 11,4Z"/>
    <path data-fips-int="6079" data-name="San Luis Obispo County" d="M334,652h2v17l9,1v9l6,8h10l5,17 12,1v9l10,-2 -1,10 7,1 -1,19 -22,-8 -26,-14 -10,8 -11,1 2,11 -11,-9 -17,2 2,-13 -13,-6 -10,-10 5,-9 -3,-10 -9,-1 -12,-18 -8,-2 -7,-14 58,2Z"/>
    <path data-fips-int="6081" data-name="San Mateo County" d="M165,457l1,12 10,2 10,11 -6,4 3,14 -1,7 -14,2 3,8 -8,-8v-17l-9,-16 2,-19Z"/>
    <path data-fips-int="6085" data-name="Santa Clara County" d="M236,482l5,17 -4,3 6,13 9,-3 3,5 1,17 -22,-3 -7,9 -18,-20 -13,-5 -13,-15 -3,-14 6,-4 10,1 10,-2Z"/>
    <path data-fips-int="6087" data-name="Santa Cruz County" d="M227,540h-5l-8,-2 -5,6 -8,-13 -16,2 -14,-16 -3,-8 14,-2 1,-7 13,15 13,5Z"/>
    <path data-fips-int="6089" data-name="Shasta County" d="M247,113h9v45l-2,29 -13,-1 -44,2 -13,4 -21,-1 -9,5 -7,-4 -25,7 6,-14 8,-2 15,-12 -3,-12 6,-7 4,-19 13,-13 -3,-9Z"/>
    <path data-fips-int="6091" data-name="Sierra County" d="M343,261l11,-1v28l-40,-1 -4,-8h-7l-6,8 -21,5 1,-24 10,-14 14,10 4,-3Z"/>
    <path data-fips-int="6093" data-name="Siskiyou County" d="M249,31l-1,6v65l-1,11 -79,-2v-16l-5,-3 -17,16 -12,2 -2,10 5,7h-10l-5,-7h-10l-13,-11 -3,-20 -14,-1 2,-17 -5,-5 3,-8v-14l10,-9 4,-10 55,4h38l21,2Z"/>
    <path data-fips-int="6095" data-name="Solano County" d="M228,399l-4,13 -10,11 -5,-1h-10l-6,-7 -7,10 -8,-3 -5,-10h7v-15h13l-5,-10 2,-11h32l-1,22Z"/>
    <path data-fips-int="6097" data-name="Sonoma County" d="M136,342l13,19v10l17,23 2,10 -3,8h-11v-1l-1,-2 -15,-3 -10,-11 -9,2 -5,-2 -3,-13 -12,-8 -19,-26 12,-3h19v-3Z"/>
    <path data-fips-int="6099" data-name="Stanislaus County" d="M301,449l22,19 -20,9 -28,13 1,6 -21,21 -3,-5 -9,3 -6,-13 4,-3 -5,-17 22,-21 10,-5 12,1 1,-34Z"/>
    <path data-fips-int="6101" data-name="Sutter County" d="M229,301v3l3,31 13,-4 -4,7 -2,19 -10,-1 -6,-2 -3,-10 -8,-7v-14l-7,-8 2,-16Z"/>
    <path data-fips-int="6103" data-name="Tehama County" d="M241,186l2,10 10,3 -2,11 -6,6 -11,4 -5,13 -10,8h-20l-1,9 -69,-2 2,-18 -3,-28 -6,-3 25,-7 7,4 9,-5 21,1 13,-4Z"/>
    <path data-fips-int="6105" data-name="Trinity County" d="M168,111l3,9 -13,13 -4,19 -6,7 3,12 -15,12 -8,2 -6,14 6,3 3,28 -46,-2v-3l2,-58v-36l6,4 6,-10 -3,-5 3,-11 13,11h10l5,7h10l-5,-7 2,-10 12,-2 17,-16 5,3Z"/>
    <path data-fips-int="6107" data-name="Tulare County" d="M511,652h-123l1,-47h5v-14l-8,-8 8,-9h14v-8h25v-8l49,-1 13,31 9,8v14l4,4 3,21 3,2Z"/>
    <path data-fips-int="6109" data-name="Tuolumne County" d="M382,399l6,19 17,6 2,13 9,6v9l-6,6 -3,-4 -17,-12 -18,13h-15l-11,-5 -2,3 -18,6 -3,9 -22,-19 12,-13 11,-20 18,-23 10,-4 11,7 14,-5Z"/>
    <path data-fips-int="6113" data-name="Yolo County" d="M212,337l8,7 3,10 6,2 -2,5 9,9 -4,9 4,8 -8,12 -7,-1 1,-22h-32l-13,-29 -9,-5 5,-6Z"/>
    <path data-fips-int="6115" data-name="Yuba County" d="M276,292h-5l-14,11 -2,25 -10,3 -13,4 -3,-31v-3l20,-7 5,-15 8,-1 10,-6 5,-4Z"/>
    <path data-fips-int="6013" data-name="Contra Costa County" d="M229,426l2,23 -32,8 -7,-8h-7l-9,-11h-5l-5,-1 1,-9 9,-5 8,4 17,-3 18,4 3,-7Z"/>
    <path data-fips-int="6023" data-name="Humboldt County" d="M82,88l14,1 3,20 -3,11 3,5 -6,10 -6,-4v36l-2,58 -37,-2 -24,-27 -3,-17 8,-22 8,-4 9,-33v-11l5,-31 23,1v8Z"/>
    <path data-fips-int="6041" data-name="Marin County" d="M153,409l1,2v1l4,5v28l-4,1 -9,-9h-6l-7,-10 -8,-4 -7,4 6,-18 -4,-12 9,-2 10,11Z"/>
    <path data-fips-int="6073" data-name="San Diego County" d="M675,883l2,35h-3l2,46 -85,11 1,-6 -9,-20 -6,-22 -15,-26 -13,-10 8,-13h12l10,7h55Z"/>
    <path data-fips-int="6075" data-name="San Francisco County" d="M165,457h-9l-1,-7 8,-3Z"/>
    <path data-fips-int="6083" data-name="Santa Barbara County" d="M393,742h4l-1,49 -3,3 -7,-5 -25,1 -12,-6 -23,-1 -13,2 -4,-7 -12,-5 4,-12 -3,-28 17,-2 11,9 -2,-11 11,-1 10,-8 26,14ZM358,823l18,6 14,-2 -16,8 -12,-1ZM345,827l7,5 -12,9 -10,-10Z"/>
    <path data-fips-int="6111" data-name="Ventura County" d="M437,826l-23,-9 -5,-14 -16,-9 3,-3 1,-49 13,1 2,7 30,2 20,50 -2,12h-10Z"/>
    <path data-fips-int="6059" data-name="Orange County" d="M533,836l10,6 10,16 11,5 -7,15 -8,13 -24,-22 -3,-1 -16,-12 12,-20Z"/>
  </g>
  <path class="mesh" d="M343,261h-38l-4,3 -14,-10 -10,14 -5,4 -10,6 -8,1 -5,15 -20,7 -22,-2 2,-7 3,-16h-10v-14l4,-1 -8,-11 1,-9h20l10,-8 5,-13 11,-4 6,6 -6,19 27,31M386,361l-2,12 4,5v14l-6,7 -5,-8 -14,5 -11,-7 -10,4 -18,23 -11,20 -12,13 -20,-26 -6,-14M207,299l-2,16 7,8v14l-39,-1 -6,-3 -7,-26h-10l-9,-9 3,-8 46,1 11,-3 8,4M96,25l-4,10 -10,9v14l-3,8 5,5 -2,17 -8,-1v-8l-23,-1M273,380l-8,-20 7,-20 26,-8 13,8 8,-10 21,-1 13,-3M144,290v-20l-11,-1 -4,-21 69,2M676,964l-2,-46h3l-2,-35 121,-5M702,645l-6,1 -154,5 -31,1 3,-15 -3,-2 -3,-21 -4,-4v-14l-9,-8 -13,-31M449,486l1,9 8,11 1,12 17,7 7,18 -1,14 -49,1v8h-25v8h-14l-8,9 -15,9 -16,-1v22l-29,28 -3,-7 -14,-6 -9,-8 1,-9 -4,-7 7,-5 1,-17 -26,-26 31,-29 6,20 12,7 39,-7 6,-13 16,-12 -1,-5h13l4,-5v-12l25,-27 19,13 75,-1M542,651l1,14 1,83h-3l-43,1h-57l1,3 -30,-2 -2,-7 -13,-1h-4l1,-19 -7,-1 1,-10 -10,2v-9l-12,-1 -5,-17h-10l-6,-8v-9l-9,-1v-17h175M336,652h-2l-8,-11M386,583l8,8v14h-5l-1,47M173,336l-5,6 2,6 -9,10 -12,3 -13,-19 -12,-9 -9,-14 2,-10 7,-6 -5,-27 13,-1 1,-6M354,260l-11,1 3,-6v-17l-10,-17 -13,-3 -7,-11 -19,-7 -13,13 -9,-7v-19h-21l2,-29v-45l2,1h98M541,748v26l3,19 -1,14 -10,29h-15l-12,20M437,826l13,-12h10l2,-12 -20,-50M310,527l19,-11 20,-3 22,-23h9l7,-16 20,-20 3,4 13,1 7,14M349,513l-11,-8 -15,-37 3,-9 18,-6 2,-3 11,5h15l18,-13 17,12M48,223l37,2v3l46,2 -2,18M136,342h-25v3h-19l-12,3M301,449l22,19M256,113h-9l1,-11v-65l1,-6M209,544l5,-6 8,2 1,5 13,10 -2,5 11,6 2,14 7,3 14,15 2,7 12,-4 10,10 5,-7M334,652h-33l-58,-2M168,342l9,5 13,29 -2,11 5,10h-13v15h-7M165,412l3,-8 -2,-10 -17,-23v-10M171,438h5l9,11h7l7,8 32,-8 -1,26 6,7 -30,-1 -10,2M353,301l-48,-1 -4,1 -24,19 -2,9 -8,-1h-12l2,-25 14,-11h5l21,-5 6,-8h7l4,8 40,1M265,360l-26,-3 2,-19 4,-7 10,-3M245,216l6,-6 2,-11 -10,-3 -2,-10 13,1M675,883l-41,2h-55l-10,-7h-12l7,-15 -11,-5 -10,-16 9,-16 52,2v-3l40,-1 92,-4v-4l73,-4M273,401l-24,7 -11,-4 -8,15M224,412l4,-13 8,-12 -4,-8 4,-9 -9,-9 2,-5 10,1M222,540h5l7,-9 22,3M543,842l-10,-6M231,449l-2,-23M393,742l-22,-8 -26,-14 -10,8 -11,1 2,11 -11,-9 -17,2M186,482l-6,4 3,14 -1,7 -14,2 3,8M156,457h9M281,423l-1,34 -12,-1 -10,5 -22,21 5,17 -4,3 6,13 9,-3 3,5M227,540l-18,-20 -13,-5 -13,-15M241,186l-44,2 -13,4 -21,-1 -9,5 -7,-4 -25,7 6,-14 8,-2 15,-12 -3,-12 6,-7 4,-19 13,-13 -3,-9 79,2M276,292l1,-24M168,111v-16l-5,-3 -17,16 -12,2 -2,10 5,7h-10l-5,-7h-10l-13,-11 -3,-20 -14,-1M190,376h32l-1,22 7,1M154,412v-1l-1,-2 -15,-3 -10,-11 -9,2M348,381v-19l15,-16 -1,-7M229,301v3l3,31 13,-4M229,356l-6,-2 -3,-10 -8,-7M131,230l-3,-28 -6,-3M85,225l2,-58v-36l6,4 6,-10 -3,-5 3,-11M549,891l8,-13M397,742l-1,49 -3,3M279,556l-17,-8 -6,-14 -1,-17 21,-21 -1,-6 28,-13 20,-9M410,458l6,-6v-9l-9,-6 -2,-13 -17,-6 -6,-19M352,389l-4,-8 -29,4 -13,7 -3,6 -14,5 -5,6h-9l-2,-8v-21l23,-4 8,5 29,-5 3,-6 12,-8"/>
  <g class="cities">
    <circle r="7" cx="495" cy="826"/>
    <text x="495" y="826">Los Angeles</text>
    <circle r="7" cx="588" cy="957"/>
    <text x="588" y="957">San Diego</text>
    <circle r="7" cx="203" cy="496"/>
    <text x="203" y="496">San Jose</text>
  </g>
</svg>