<?xml version="1.0" encoding="utf-8"?>
<!DOCTYPE svg PUBLIC "-//W3C//DTD SVG 1.1//EN" "http://www.w3.org/Graphics/SVG/1.1/DTD/svg11.dtd">
<svg version="1.1" xmlns="http://www.w3.org/2000/svg" width="350" height="254" viewBox="0 0 350 254">
  <g class="counties" transform="scale(0.1)">
    <path data-fips-int="8001" data-name="Adams County" d="M2586,679l3,123 0,33 -30,1 -156,2 -40,2 -96,2 -166,0 -51,0 2,-9 11,0 0,-8 13,-3 22,0 21,3 0,-24 -5,6 -8,-3 1,-11 39,-1 4,4 21,-6 0,-28 6,-1 3,-14 -16,0 0,-4 -32,0 -2,4 -10,0 0,32 -27,2 0,26 -35,1 0,-9 -8,0 0,9 -8,0 0,8 -11,-4 -58,0 0,-72 17,-5 0,-36 8,0 5,8 2,-19 10,0 162,-2 73,-1 134,-1Z"/>
    <path data-fips-int="8003" data-name="Alamosa County" d="M1790,2026l0,18 -10,8 1,18 -12,48 8,11 -7,11 -39,40 -76,80 -122,0 -17,0 0,-26 0,-116 0,-4 0,-78 1,-9 52,0 142,-1Z"/>
    <path data-fips-int="8005" data-name="Arapahoe County" d="M2589,835l2,73 0,30 -4,0 -332,7 -101,0 -74,0 -104,1 -3,0 1,-29 0,-10 8,0 1,-17 13,0 2,-4 12,0 9,8 10,0 9,9 0,9 12,-1 0,-9 18,-12 -26,-4 5,-18 12,-4 -9,-22 51,0 166,0 96,-2 40,-2 156,-2Z"/>
    <path data-fips-int="8007" data-name="Archuleta County" d="M1001,2214l0,19 90,1 107,-1 0,-4 16,0 -2,104 38,21 4,32 40,65 13,23 -146,-1 -41,-1 -3,-4 -133,-2 -151,-3 -4,-1 2,-48 0,-70 2,-64 2,-69 49,1Z"/>
    <path data-fips-int="8009" data-name="Baca County" d="M3397,2057l4,79 9,264 2,44 -16,1 -213,5 -267,6 -3,-104 0,-71 -1,-51 4,0 -2,-21 -2,-115 -2,-20 105,-3 50,-1 148,-5 41,-2 103,-4Z"/>
    <path data-fips-int="8011" data-name="Bent County" d="M3056,1699l3,84 6,179 -3,2 1,38 2,68 -50,1 -105,3 -67,1 -66,3 -21,0 0,-63 -2,-43 2,0 -2,-32 0,-55 -5,-177 108,-2Z"/>
    <path data-fips-int="8013" data-name="Boulder County" d="M1971,533l0,8 0,147 2,0 0,26 -8,0 -2,8 -18,7 2,-11 -8,-2 0,9 -9,6 0,9 -72,0 -42,1 0,-13 -26,1 -101,0 -8,-6 5,-30 -3,-14 12,0 10,-10 2,-7 -6,-8 5,-5 3,-17 -1,-11 4,-8 -4,-11 -15,-8 -1,-15 -3,-2 10,-43 59,0 60,2 8,-2 38,-1 91,0Z"/>
    <path data-fips-int="8014" data-name="Broomfield County" d="M2015,688l-10,0 -2,19 -5,-8 -8,0 0,36 -17,5 -12,8 -10,-1 -4,-8 -17,1 0,8 9,0 0,6 -17,0 0,-13 8,-1 0,-9 9,-6 0,-9 8,2 -2,11 18,-7 2,-8 8,0 0,-26 20,0 8,-4 -3,-11 8,-3 0,-8 9,0Z"/>
    <path data-fips-int="8015" data-name="Chaffee County" d="M1451,1249l4,11 -6,11 13,16 8,-3 18,7 2,8 -4,10 1,9 21,5 4,-5 14,-1 14,16 14,5 -6,8 2,7 15,-2 8,9 -9,11 1,7 17,20 -4,10 -12,11 1,10 -5,7 1,15 -11,14 11,2 11,8 -2,7 8,7 -4,12 15,9 3,11 -6,8 3,12 -8,11 -3,25 -14,1 -34,34 -4,-5 -19,0 1,7 -8,11 -7,1 -74,-1 2,-9 -10,-2 -18,-22 -3,-10 -9,1 -8,-11 3,-6 -6,-12 5,-15 -7,-16 -3,-14 -8,-4 2,-8 -10,-1 -14,-7 -2,-19 -7,-10 4,-6 9,0 4,-10 -1,-25 2,-18 -4,-6 3,-9 8,1 24,-19 13,-22 -3,-11 -14,-2 -8,4 -3,-11 -9,9 -10,-11 -17,11 -5,-2 -27,-26 0,-15 -11,-10 -11,5 -10,-5 4,-16 -3,-12 9,-7 106,2Z"/>
    <path data-fips-int="8017" data-name="Cheyenne County" d="M3363,1224l10,257 -190,7 -76,4 -86,1 -111,3 -60,3 -1,-46 4,0 -2,-86 0,-29 -3,-91 49,-3 64,-1 90,-4 3,1 111,-5 46,-4 55,-3Z"/>
    <path data-fips-int="8019" data-name="Clear Creek County" d="M1816,839l0,108 -54,0 -21,-2 -61,2 -62,0 -4,-5 15,-6 11,-9 3,-7 -8,-15 -11,1 -2,-5 -11,-1 -9,-13 -8,5 -20,-9 1,-16 9,-17 10,-5 2,-13 -6,-16 4,-7 15,5 14,0 9,-8 17,4 13,-7 9,-17 9,-2 3,-7 26,5 2,7 12,8 12,-1 -1,8 15,12 0,7 22,10 32,1 3,6Z"/>
    <path data-fips-int="8021" data-name="Conejos County" d="M1516,2234l0,26 17,0 122,0 -5,8 8,23 8,8 -1,9 -9,13 -3,14 4,23 4,8 -4,8 2,9 -7,9 3,22 -14,20 0,13 13,17 8,-1 5,12 -288,0 -72,-1 -13,-23 -40,-65 -4,-32 -38,-21 2,-104 90,2 0,2 55,-1Z"/>
    <path data-fips-int="8023" data-name="Costilla County" d="M1933,2298l0,100 1,77 -263,0 -4,0 -5,-12 -8,1 -13,-17 0,-13 14,-20 -3,-22 7,-9 -2,-9 4,-8 -4,-8 -4,-23 3,-14 9,-13 1,-9 -8,-8 -8,-23 5,-8 76,-80 39,-40 7,-11 15,-8 4,-13 22,-2 13,-14 19,-2 16,-9 6,8 22,13 11,-2 13,5 -15,22 8,4 10,15 3,17 -3,23 3,15 9,0 8,33 -9,1 -5,7 0,30 1,27Z"/>
    <path data-fips-int="8025" data-name="Crowley County" d="M2698,1560l0,65 0,39 4,7 0,38 -4,0 2,56 -52,1 1,35 -102,2 -14,-9 -15,3 -36,-4 -8,-8 -17,4 -13,-4 -1,-58 1,-11 -2,-96 0,-59 43,-1 66,0 96,-2 0,2Z"/>
    <path data-fips-int="8027" data-name="Custer County" d="M1980,1724l1,58 0,146 -6,-1 -2,-16 -5,-6 -15,6 -8,-5 -3,-14 -7,-6 0,-12 -10,-8 -14,9 0,7 -8,13 -11,5 -10,15 -2,10 -9,13 -15,-24 -26,13 -20,16 -11,-4 -17,0 -13,-15 -3,-8 -12,-12 -11,3 -13,-11 2,-3 -11,-19 4,-4 -14,-31 -14,-15 -8,-29 0,-11 -11,-5 -14,-20 -14,-11 -1,-6 -14,-9 -4,-13 106,1 97,3Z"/>
    <path data-fips-int="8029" data-name="Delta County" d="M841,1471l-121,-3 -106,-3 -16,0 -164,-5 3,-95 112,-43 2,-12 8,-1 16,-23 -4,-7 20,-20 7,-1 6,-8 21,-17 34,1 21,-11 10,1 21,10 10,11 23,-14 7,-10 9,-1 13,-14 10,-17 11,-9 11,-5 13,-10 11,0 0,-7 20,-14 -2,47 -1,86 -1,38 -1,58Z"/>
    <path data-fips-int="8031" data-name="Denver County" d="M2050,842l9,22 -12,4 -5,18 26,4 -18,12 0,9 -12,1 0,-9 -9,-9 -10,0 -9,-8 -12,0 -2,4 -13,0 -1,17 -8,0 0,10 -26,0 0,-12 14,-1 5,-13 -6,-7 7,0 6,-10 -1,-62 58,0 11,4 0,-8 8,0 0,-9 8,0 0,9 35,-1 0,-26 27,-2 0,-32 10,0 2,-4 32,0 0,4 16,0 -3,14 -6,1 0,28 -21,6 -4,-4 -39,1 -1,11 8,3 5,-6 0,24 -21,-3 -22,0 -13,3 0,8 -11,0Z"/>
    <path data-fips-int="8033" data-name="Dolores County" d="M661,1998l-1,11 -6,10 0,11 -14,1 -16,9 -8,-3 -7,7 -1,9 6,18 -8,6 -72,-1 -17,1 -83,0 -154,-6 0,1 -119,-4 -27,38 -36,47 4,-74 4,-86 3,-75 104,3 2,-8 169,6 38,2 55,1 8,11 12,33 22,-7 11,0 14,-12 13,9 9,-6 3,6 14,-8 19,0 8,14 10,-1 5,8 8,-1 15,16 1,7Z"/>
    <path data-fips-int="8035" data-name="Douglas County" d="M2154,945l0,15 0,113 2,132 -171,1 -33,0 -104,0 9,-20 11,-9 2,-13 10,-6 -2,-10 6,-9 8,-2 11,-28 6,-12 14,-29 -3,-27 14,-9 7,-8 -3,-15 3,-11 18,-9 6,-30 11,-13 104,-1Z"/>
    <path data-fips-int="8037" data-name="Eagle County" d="M1343,732l2,9 -1,27 21,58 8,8 8,-3 26,31 13,3 1,12 10,1 2,11 8,4 16,2 3,23 -4,6 -9,-2 -5,19 8,13 -6,3 -1,9 -6,0 -5,-10 -5,2 -4,15 4,4 -6,11 6,3 -2,15 12,18 -3,11 13,11 -2,11 -9,-1 -12,13 -20,4 -4,-6 -22,4 -9,-4 -4,-9 -10,-3 -11,12 -34,-1 -111,-1 -106,-4 -65,-1 1,-61 0,-39 2,-73 0,-33 2,-92 0,-31 38,1 44,1 118,0 23,1 0,-3Z"/>
    <path data-fips-int="8039" data-name="Elbert County" d="M2587,938l2,48 0,49 1,25 0,40 2,65 0,34 -2,2 1,96 2,57 -43,1 -112,1 0,-57 -1,-43 0,-54 -77,0 -204,3 -2,-132 0,-113 0,-15 101,0Z"/>
    <path data-fips-int="8041" data-name="El Paso County" d="M2156,1205l204,-3 77,0 0,54 1,43 0,57 3,95 0,69 1,41 -174,5 -95,1 -39,1 -105,0 0,-77 1,-32 -1,-56 -42,0 -19,-1 2,-42 17,0 1,-4 0,-85 -3,-65Z"/>
    <path data-fips-int="8043" data-name="Fremont County" d="M2029,1491l0,77 1,81 1,74 -51,1 -146,0 -97,-3 -106,-1 -11,-5 -24,-22 -7,-18 -15,-15 -11,-7 -7,-14 -12,-11 -4,0 -9,-12 1,-4 34,-34 14,-1 3,-25 8,-11 -3,-12 6,-8 -3,-11 -15,-9 4,-12 -8,-7 2,-7 -11,-8 -11,-2 165,0 58,-2 74,0 43,0 -2,30 75,-1 18,-2Z"/>
    <path data-fips-int="8045" data-name="Garfield County" d="M1071,732l-38,-1 0,31 -2,92 0,33 -2,73 0,39 -1,61 -146,-3 -76,-2 -324,-8 -84,-3 -177,-6 -82,-3 0,-18 6,-158 71,4 0,6 94,3 62,2 1,-26 112,3 42,2 19,0 90,3 18,0 2,-77 70,1 42,-2 120,4 1,-53 51,3 1,-53 1,0 1,-52 127,2 -1,52 3,1Z"/>
    <path data-fips-int="8047" data-name="Gilpin County" d="M1816,741l0,98 -10,1 -3,-6 -32,-1 -22,-10 0,-7 -15,-12 1,-8 -12,1 -12,-8 -2,-7 -26,-5 -5,-23 11,-25 101,0 26,-1Z"/>
    <path data-fips-int="8049" data-name="Grand County" d="M1699,534l-10,43 3,2 1,15 15,8 4,11 -4,8 1,11 -3,17 -5,5 6,8 -2,7 -10,10 -12,0 3,14 -5,30 8,6 -11,25 5,23 -3,7 -9,2 -9,17 -13,7 -17,-4 -9,8 -14,0 -15,-5 -4,7 6,16 -2,13 -10,5 -9,17 -31,8 -13,-2 -8,-14 -9,-6 -2,-18 -11,-33 -19,-21 -6,2 -14,-4 -12,-10 -13,-21 -13,-10 -17,1 -46,-1 0,-6 -18,0 -87,-1 0,-46 -4,0 0,-83 3,-32 1,-87 -9,0 1,-61 10,13 8,26 10,-2 15,3 9,7 4,-11 15,-15 8,4 -2,8 6,6 4,13 6,7 10,-4 15,5 9,-7 8,1 8,10 16,5 4,-16 10,-2 15,22 20,-1 9,-11 16,8 15,-13 8,4 32,-15 2,6 11,-1 7,9 14,-10 -3,-7 12,-14 7,1 6,-46 17,-6 21,7 1,17 -5,15 11,14 0,7 10,16 18,15 12,6 1,8 7,4 2,19Z"/>
    <path data-fips-int="8051" data-name="Gunnison County" d="M898,1123l8,5 -1,29 11,15 15,5 11,8 6,20 99,2 10,11 26,18 -4,22 14,3 7,8 19,14 14,-1 0,-6 8,-2 7,14 9,4 12,0 7,-4 1,-9 17,-15 0,-9 25,-7 4,5 13,1 3,13 16,15 7,0 10,5 11,-5 11,10 0,15 27,26 5,2 17,-11 10,11 9,-9 3,11 8,-4 14,2 3,11 -13,22 -24,19 -8,-1 -3,9 4,6 -2,18 1,25 -4,10 -9,0 -4,6 7,10 2,19 14,7 10,1 -2,8 8,4 3,14 7,16 -5,15 6,12 -3,6 8,11 9,-1 3,10 18,22 10,2 -2,9 -59,-1 -104,-1 -88,-2 -99,-1 -1,48 -1,66 -1,51 -116,-2 -149,-3 3,-4 -7,-41 -4,-17 -10,-6 -11,-25 63,1 4,-159 0,-58 3,-98 1,-58 1,-38 1,-86 2,-47 6,-5 16,-2 10,-5 1,-10Z"/>
    <path data-fips-int="8053" data-name="Hinsdale County" d="M1068,1785l-1,70 0,44 -4,5 -10,-4 -12,1 -2,-5 -25,10 -12,1 -1,44 1,22 -6,91 10,1 -2,44 -3,105 -117,-2 -49,-1 2,-128 2,-77 6,2 5,-9 -5,-18 -10,-8 -12,-3 0,-16 -8,-11 6,-17 -6,-10 2,-15 -14,-8 -2,-4 -10,-4 2,-17 6,-4 12,4 5,-6 0,-14 13,-16 -8,-10 -10,-1 -7,-12 2,-9 -5,-13 2,-7 149,3Z"/>
    <path data-fips-int="8055" data-name="Huerfano County" d="M1981,1928l8,5 -1,7 10,8 172,-13 139,48 -8,8 -41,34 1,4 -43,79 0,20 -33,27 -3,12 -10,9 -18,0 -4,7 0,27 -10,3 -16,12 0,5 -18,3 -8,-1 -18,3 -19,7 -22,-6 -26,14 -4,-2 -14,12 0,9 -8,1 -16,13 -9,2 -11,11 -18,2 -5,1 -1,-27 0,-30 5,-7 9,-1 -8,-33 -9,0 -3,-15 3,-23 -3,-17 -10,-15 -8,-4 15,-22 -13,-5 -11,2 -22,-13 -6,-8 -16,9 -19,2 -13,14 -22,2 -4,13 -15,8 -8,-11 12,-48 -1,-18 10,-8 0,-18 4,-18 -3,-8 9,-5 3,-29 -10,-16 -12,0 1,-11 17,0 11,4 20,-16 26,-13 15,24 9,-13 2,-10 10,-15 11,-5 8,-13 0,-7 14,-9 10,8 0,12 7,6 3,14 8,5 15,-6 5,6 2,16Z"/>
    <path data-fips-int="8057" data-name="Jackson County" d="M1459,95l3,25 -1,13 12,14 12,7 -1,13 12,8 9,18 15,12 4,13 6,6 9,24 9,8 0,10 8,9 0,9 11,23 3,20 6,2 1,14 7,12 2,28 10,-5 14,10 -1,11 -17,6 -6,46 -7,-1 -12,14 3,7 -14,10 -7,-9 -11,1 -2,-6 -32,15 -8,-4 -15,13 -16,-8 -9,11 -20,1 -15,-22 -10,2 -4,16 -16,-5 -8,-10 -8,-1 -9,7 -15,-5 -10,4 -6,-7 -4,-13 -6,-6 2,-8 -8,-4 -15,15 -4,11 -9,-7 -15,-3 -10,2 -8,-26 -10,-13 -2,-16 1,-22 -8,-9 2,-5 -7,-8 -8,-19 4,-10 -5,-15 10,-16 -1,-22 8,-7 -3,-25 6,-4 -3,-12 16,-16 0,-13 -10,-7 2,-13 -11,-13 -6,-12 -5,6 -16,3 -2,-12 -8,-2 -9,-7 -9,6 -10,-20 -12,3 -9,-25 1,-9 9,-6 -4,-6 204,3Z"/>
    <path data-fips-int="8059" data-name="Jefferson County" d="M1961,748 12,-8 0,72 1,62 -6,10 -7,0 6,7 -5,13 -14,1 0,12 26,0 -1,29 3,0 -11,13 -6,30 -18,9 -3,11 3,15 -7,8 -14,9 3,27 -14,29 -6,12 -11,28 -8,2 -6,9 2,10 -10,6 -2,13 -11,9 -9,20 -32,1 0,-227 0,-33 0,-108 0,-98 42,-1 72,0 -8,1 0,13 17,0 0,-6 -9,0 0,-8 17,-1 4,8Z"/>
    <path data-fips-int="8061" data-name="Kiowa County" d="M3373,1481l8,206 -103,4 -102,4 -52,2 -68,2 -199,7 -108,2 -47,1 0,-38 -4,-7 0,-39 0,-65 -1,-4 93,-2 61,-3 -1,-52 60,-3 111,-3 86,-1 76,-4Z"/>
    <path data-fips-int="8063" data-name="Kit Carson County" d="M3363,1224l-97,4 -55,3 -46,4 -111,5 -3,-1 -90,4 -64,1 -49,3 -1,-54 3,0 0,-27 -2,-51 -2,-77 -2,-105 100,-5 61,-1 106,-5 14,-1 80,-2 144,-8 4,89 2,60 8,157Z"/>
    <path data-fips-int="8065" data-name="Lake County" d="M1445,1057l33,0 -7,7 4,17 -5,11 -8,-1 -7,7 -1,22 3,15 5,10 -7,15 4,41 -16,17 14,3 2,12 -8,9 0,7 -73,0 -106,-2 -2,-25 9,-4 1,-29 20,-3 5,-4 7,-17 2,-18 -4,-10 7,-9 -10,-18 3,-8 9,-7 3,3 21,-9 -3,-8 4,-14 11,-12 10,3 4,9 9,4 22,-4 4,6 20,-4 12,-13Z"/>
    <path data-fips-int="8067" data-name="La Plata County" d="M837,2083l-2,128 -2,69 -2,64 0,70 -2,48 -18,0 -167,-4 -175,-4 -67,-2 4,-18 9,2 4,-13 7,-4 6,-21 6,-8 0,-15 10,-9 -3,-16 4,-29 9,-4 12,-12 7,-15 10,-13 -1,-9 7,-8 -3,-5 5,-12 12,-6 6,2 10,-6 16,-4 1,-15 13,-13 0,-6 12,1 10,-16 2,-32 -2,-8 6,-6 3,-15 -2,-14 24,-28 13,0 166,5Z"/>
    <path data-fips-int="8069" data-name="Larimer County" d="M1971,533l-16,0 -91,0 -38,1 -8,2 -60,-2 -59,0 -12,-7 -2,-19 -7,-4 -1,-8 -12,-6 -18,-15 -10,-16 0,-7 -11,-14 5,-15 -1,-17 -21,-7 1,-11 -14,-10 -10,5 -2,-28 -7,-12 -1,-14 -6,-2 -3,-20 -11,-23 0,-9 -8,-9 0,-10 -9,-8 -9,-24 -6,-6 -4,-13 -15,-12 -9,-18 -12,-8 1,-13 -12,-7 -12,-14 1,-13 -3,-25 80,0 111,0 130,0 239,0 0,20 0,111 1,3 0,149 1,1 0,102 -51,0Z"/>
    <path data-fips-int="8071" data-name="Las Animas County" d="M2756,2078l21,0 66,-3 67,-1 2,20 2,115 2,21 -4,0 1,51 0,71 3,104 -78,3 -199,5 -105,3 -97,2 -148,4 -62,0 -77,2 -95,0 -62,1 -59,-1 -1,-77 0,-100 18,-2 11,-11 9,-2 16,-13 8,-1 0,-9 14,-12 4,2 26,-14 22,6 19,-7 18,-3 8,1 18,-3 0,-5 16,-12 10,-3 0,-27 4,-7 18,0 10,-9 3,-12 33,-27 0,-20 43,-79 -1,-4 41,-34 8,-8 137,47 2,53 4,1 52,-1 37,-1 52,0 123,-3Z"/>
    <path data-fips-int="8073" data-name="Lincoln County" d="M2844,933l2,105 2,77 2,51 0,27 -3,0 1,54 3,91 0,29 2,86 -4,0 1,46 1,52 -61,3 -93,2 1,4 -51,0 0,-2 -96,2 -66,0 -43,1 -1,-41 0,-69 -3,-95 112,-1 43,-1 -2,-57 -1,-96 2,-2 0,-34 -2,-65 0,-40 -1,-25 0,-49 -2,-48 4,0 129,-2 51,-2Z"/>
    <path data-fips-int="8075" data-name="Logan County" d="M3051,222l2,27 -6,0 1,49 2,40 1,70 -51,1 -50,1 -105,5 -16,0 -89,3 -50,1 -2,-52 -53,1 -1,-52 0,-54 3,0 -3,-103 -1,-75 89,-3 128,-3 21,-1 175,-5 3,62Z"/>
    <path data-fips-int="8077" data-name="Mesa County" d="M882,1057l0,10 -15,21 6,6 17,7 7,-1 1,9 8,2 -8,12 -16,-1 -1,10 -10,5 -16,2 -6,5 -20,14 0,7 -11,0 -13,10 -11,5 -11,9 -10,17 -13,14 -9,1 -7,10 -23,14 -10,-11 -21,-10 -10,-1 -21,11 -34,-1 -21,17 -6,8 -7,1 -20,20 4,7 -16,23 -8,1 -2,12 -112,43 -3,95 -3,100 -139,-4 -178,-7 4,-103 2,-52 4,-52 12,-226 3,-81 82,3 177,6 84,3 324,8Z"/>
    <path data-fips-int="8079" data-name="Mineral County" d="M1210,1973l-2,68 0,33 -8,0 0,61 -2,94 0,4 -107,1 -90,-1 0,-19 3,-105 2,-44 -10,-1 6,-91 -1,-22 1,-44 12,-1 25,-10 2,5 12,-1 10,4 4,-5 16,-10 10,12 13,-8 9,-1 24,30 21,3 12,17 9,3 9,-4 10,10 10,-1Z"/>
    <path data-fips-int="8081" data-name="Moffat County" d="M953,85l-1,188 -2,52 -26,-1 0,34 -26,0 -1,43 -3,80 -5,0 0,66 -12,2 -76,-4 -70,-1 -89,-2 -95,-3 -133,-4 -92,-3 -164,-6 7,-189 4,-50 0,-18 3,-76 4,-129 9,0 165,6 94,3 238,6 8,1 227,5Z"/>
    <path data-fips-int="8083" data-name="Montezuma County" d="M606,2077l-24,28 2,14 -3,15 -6,6 2,8 -2,32 -10,16 -12,-1 0,6 -13,13 -1,15 -16,4 -10,6 -6,-2 -12,6 -5,12 3,5 -7,8 1,9 -10,13 -7,15 -12,12 -9,4 -4,29 3,16 -10,9 0,15 -6,8 -6,21 -7,4 -4,13 -9,-2 -4,18 -244,-8 -71,-3 3,-58 0,-35 4,-121 4,-74 36,-47 27,-38 119,4 0,-1 154,6 83,0 17,-1Z"/>
    <path data-fips-int="8085" data-name="Montrose County" d="M841,1471l0,58 -4,159 -63,-1 0,-18 -107,-2 -51,-2 -73,-1 4,11 8,0 0,18 8,0 0,17 35,1 12,4 0,9 22,9 -1,27 -5,0 0,13 -8,0 -35,-2 -70,-1 -165,-6 -89,-3 -49,-2 -95,-3 1,-7 -6,-46 0,-33 4,-121 178,7 139,4 3,-100 164,5 16,0 106,3Z"/>
    <path data-fips-int="8087" data-name="Morgan County" d="M2635,368l53,-1 2,52 1,51 -3,0 1,93 2,48 1,66 -20,1 -86,1 -202,5 -1,-69 -1,-49 -2,-88 2,-2 0,-52 -2,-52 114,-1 25,-1 76,0Z"/>
    <path data-fips-int="8089" data-name="Otero County" d="M2749,1708l5,177 0,55 2,32 -2,0 2,43 0,63 -40,1 -123,3 -52,0 -37,1 -52,1 -4,-1 -2,-53 0,-92 -2,-153 13,4 17,-4 8,8 36,4 15,-3 14,9 102,-2 -1,-35 52,-1 -2,-56 4,0Z"/>
    <path data-fips-int="8091" data-name="Ouray County" d="M774,1687l11,25 10,6 4,17 7,41 -3,4 -2,7 5,13 -2,9 7,12 10,1 8,10 -13,16 0,14 -5,6 -12,-4 -6,4 -2,17 10,4 -34,-1 -2,16 3,8 -13,11 -20,6 -15,-7 3,-16 -7,-13 -14,-5 -7,-16 -25,-3 4,-7 -17,-2 -11,-12 4,-10 2,-43 -28,-1 0,-17 -6,-4 8,0 0,-13 5,0 1,-27 -22,-9 0,-9 -12,-4 -35,-1 0,-17 -8,0 0,-18 -8,0 -4,-11 73,1 51,2 107,2Z"/>
    <path data-fips-int="8093" data-name="Park County" d="M1816,947l0,33 0,227 32,-1 1,112 0,145 -74,0 -58,2 -165,0 11,-14 -1,-15 5,-7 -1,-10 12,-11 4,-10 -17,-20 -1,-7 9,-11 -8,-9 -15,2 -2,-7 6,-8 -14,-5 -14,-16 -14,1 -4,5 -21,-5 -1,-9 4,-10 -2,-8 -18,-7 -8,3 -13,-16 6,-11 -4,-11 0,-7 8,-9 -2,-12 -14,-3 16,-17 -4,-41 7,-15 -5,-10 -3,-15 1,-22 7,-7 8,1 5,-11 -4,-17 7,-7 17,1 19,12 18,-4 0,-12 19,-14 11,-3 -7,-14 11,-2 1,-9 13,-1 10,-15 6,0 11,-13 -6,-8 4,-8 6,4 10,-3 4,-12 -7,-9 62,0 61,-2 21,2Z"/>
    <path data-fips-int="8095" data-name="Phillips County" d="M3322,213l3,89 2,35 2,60 -134,5 -40,1 -104,5 -1,-70 -2,-40 -1,-49 6,0 -2,-27 80,-2 42,-2 88,-2Z"/>
    <path data-fips-int="8097" data-name="Pitkin County" d="M1344,1067l-4,14 3,8 -21,9 -3,-3 -9,7 -3,8 10,18 -7,9 4,10 -2,18 -7,17 -5,4 -20,3 -1,29 -9,4 2,25 -9,7 3,12 -4,16 -7,0 -16,-15 -3,-13 -13,-1 -4,-5 -25,7 0,9 -17,15 -1,9 -7,4 -12,0 -9,-4 -7,-14 -8,2 0,6 -14,1 -19,-14 -7,-8 -14,-3 4,-22 -26,-18 -10,-11 -99,-2 -6,-20 -11,-8 -15,-5 -11,-15 1,-29 -8,-5 8,-12 -8,-2 -1,-9 -7,1 -17,-7 -6,-6 15,-21 0,-10 146,3 65,1 106,4 111,1Z"/>
    <path data-fips-int="8099" data-name="Prowers County" d="M3381,1687l8,181 0,7 8,182 -40,2 -103,4 -41,2 -148,5 -2,-68 -1,-38 3,-2 -6,-179 -3,-84 68,-2 52,-2 102,-4Z"/>
    <path data-fips-int="8101" data-name="Pueblo County" d="M2442,1561l0,59 2,96 -1,11 1,58 2,153 0,92 -137,-47 -139,-48 -172,13 -10,-8 1,-7 -8,-5 0,-146 -1,-58 51,-1 -1,-74 -1,-81 105,0 39,-1 95,-1Z"/>
    <path data-fips-int="8103" data-name="Rio Blanco County" d="M1070,629l-127,-2 -1,52 -1,0 -1,53 -51,-3 -1,53 -120,-4 -42,2 -70,-1 -2,77 -18,0 -90,-3 -19,0 -42,-2 -112,-3 -1,26 -62,-2 -94,-3 0,-6 -71,-4 7,-170 6,-163 164,6 92,3 133,4 95,3 89,2 70,1 76,4 12,-2 79,2 81,0 22,1Z"/>
    <path data-fips-int="8105" data-name="Rio Grande County" d="M1517,2027l-1,9 0,78 0,4 0,116 -157,-2 -55,1 0,-2 -90,-2 -16,0 2,-94 0,-61 8,0 0,-33 2,-68 50,0 0,52 102,1 51,1Z"/>
    <path data-fips-int="8107" data-name="Routt County" d="M1174,132 10,20 9,-6 9,7 8,2 2,12 16,-3 5,-6 6,12 11,13 -2,13 10,7 0,13 -16,16 3,12 -6,4 3,25 -8,7 1,22 -10,16 5,15 -4,10 8,19 7,8 -2,5 8,9 -1,22 2,16 -1,61 9,0 -1,87 -3,32 0,83 4,0 0,46 0,3 -23,-1 -118,0 -44,-1 1,-50 -3,-1 1,-52 1,-79 -22,-1 -81,0 -79,-2 0,-66 5,0 3,-80 1,-43 26,0 0,-34 26,1 2,-52 1,-188 96,2 110,2 4,6 -9,6 -1,9 9,25Z"/>
    <path data-fips-int="8109" data-name="Saguache County" d="M1532,1612l-1,4 9,12 4,0 12,11 7,14 11,7 15,15 7,18 24,22 11,5 4,13 14,9 1,6 14,11 14,20 11,5 0,11 8,29 14,15 14,31 -4,4 11,19 -2,3 13,11 11,-3 12,12 3,8 13,15 -1,11 12,0 10,16 -3,29 -9,5 3,8 -4,18 -79,0 -142,1 -52,0 -104,0 -51,-1 -102,-1 0,-52 -50,0 0,-23 -10,1 -10,-10 -9,4 -9,-3 -12,-17 -21,-3 -24,-30 -9,1 -13,8 -10,-12 -16,10 0,-44 1,-70 1,-51 1,-66 1,-48 99,1 88,2 104,1 59,1 74,1 7,-1 8,-11 -1,-7 19,0Z"/>
    <path data-fips-int="8113" data-name="San Miguel County" d="M618,1773l6,4 0,17 28,1 -2,43 -4,10 11,12 17,2 -4,7 25,3 7,16 14,5 7,13 -3,16 -17,22 -3,11 -8,15 -16,8 4,8 -10,13 -9,-1 -12,-7 -1,-7 -15,-16 -8,1 -5,-8 -10,1 -8,-14 -19,0 -14,8 -3,-6 -9,6 -13,-9 -14,12 -11,0 -22,7 -12,-33 -8,-11 -55,-1 -38,-2 -169,-6 -2,8 -104,-3 1,-60 5,-102 95,3 49,2 89,3 165,6 70,1Z"/>
    <path data-fips-int="8115" data-name="Sedgwick County" d="M3322,213l-61,3 -88,2 -42,2 -80,2 -2,-88 -3,-62 33,-1 135,-5 102,-3Z"/>
    <path data-fips-int="8117" data-name="Summit County" d="M1575,867l-1,16 20,9 8,-5 9,13 11,1 2,5 11,-1 8,15 -3,7 -11,9 -15,6 4,5 7,9 -4,12 -10,3 -6,-4 -4,8 6,8 -11,13 -6,0 -10,15 -13,1 -1,9 -11,2 7,14 -11,3 -19,14 0,12 -18,4 -19,-12 -17,-1 -33,0 2,-11 -13,-11 3,-11 -12,-18 2,-15 -6,-3 6,-11 -4,-4 4,-15 5,-2 5,10 6,0 1,-9 6,-3 -8,-13 5,-19 9,2 4,-6 -3,-23 -16,-2 -8,-4 -2,-11 -10,-1 -1,-12 -13,-3 -26,-31 -8,3 -8,-8 -21,-58 1,-27 -2,-9 18,0 0,6 46,1 17,-1 13,10 13,21 12,10 14,4 6,-2 19,21 11,33 2,18 9,6 8,14 13,2Z"/>
    <path data-fips-int="8119" data-name="Teller County" d="M2029,1491l-46,-1 -18,2 -75,1 2,-30 -43,0 0,-145 -1,-112 104,0 33,0 3,65 0,85 -1,4 -17,0 -2,42 19,1 42,0 1,56Z"/>
    <path data-fips-int="8121" data-name="Washington County" d="M3000,409l1,52 -6,0 3,78 0,31 4,98 -6,0 5,94 3,95 0,38 1,32 -61,1 -100,5 -73,1 -51,2 -129,2 0,-30 -2,-73 0,-33 -3,-123 86,-1 20,-1 -1,-66 -2,-48 -1,-93 3,0 -1,-51 50,-1 89,-3 16,0 105,-5Z"/>
    <path data-fips-int="8123" data-name="Weld County" d="M2635,368l-40,2 -76,0 -25,1 -114,1 2,52 0,52 -2,2 2,88 1,49 1,69 -134,1 -73,1 -162,2 0,-26 -9,0 0,8 -8,3 3,11 -8,4 -20,0 -2,0 0,-147 0,-8 -1,-52 51,0 0,-102 -1,-1 0,-149 -1,-3 0,-111 0,-20 78,-2 204,-2 192,-4 89,-2 51,-1 1,75 3,103 -3,0 0,54Z"/>
    <path data-fips-int="8125" data-name="Yuma County" d="M3349,911l-144,8 -80,2 -14,1 -106,5 -1,-32 0,-38 -3,-95 -5,-94 6,0 -4,-98 0,-31 -3,-78 6,0 -1,-52 51,-1 104,-5 40,-1 134,-5 3,60 11,308Z"/>
    <path data-fips-int="8111" data-name="San Juan County" d="M801,1889l2,4 14,8 -2,15 6,10 -6,17 8,11 0,16 12,3 10,8 5,18 -5,9 -6,-2 -2,77 -52,-1 -166,-5 -13,0 8,-6 -6,-18 1,-9 7,-7 8,3 16,-9 14,-1 0,-11 6,-10 1,-11 9,1 10,-13 -4,-8 16,-8 8,-15 3,-11 17,-22 15,7 20,-6 13,-11 -3,-8 2,-16Z"/>
  </g>
  <g class="cities">
    <circle r="3" cx="200.5" cy="84.4"/>
    <text x="200.5" y="84.4">Denver</text>
    <circle r="3" cx="208.4" cy="138.1"/>
    <text x="208.4" y="138.1">Colorado Springs</text>
    <circle r="3" cx="207.5" cy="84.9"/>
    <text x="207.5" y="84.9">Aurora</text>
  </g>
</svg>