<?xml version="1.0" encoding="utf-8"?>
<!DOCTYPE svg PUBLIC "-//W3C//DTD SVG 1.1//EN" "http://www.w3.org/Graphics/SVG/1.1/DTD/svg11.dtd">
<svg version="1.1" xmlns="http://www.w3.org/2000/svg" width="350" height="254" viewBox="0 0 350 254">
  <path class="state" transform="scale(0.1)" d="M3349,912l13,312 10,257 10,206 15,370 15,388 -496,12 -336,9 -321,8 -326,1h-267l-360,-1 -186,-2 -3,-4 -288,-5 -426,-11 -316,-11 12,-289 10,-235 6,-162 -5,-85 5,-121 5,-178 10,-158 9,-178 6,-175 12,-333 10,-224 8,-239 270,10 287,7 222,4 206,3 299,5 45,3h456l58,-3 221,-1 393,-8 414,-13 270,-8 6,150 7,184 20,515"/>
  <g class="counties" transform="scale(0.1)">
    <path data-fips-int="8001" data-name="Adams County" d="M2585,679l4,157 -298,6 -241,1 26,-21 44,3 -12,-32 63,-3 8,-44 -59,1v31l-27,3v27l-52,8 -68,-3v-74l17,-4v-36l25,-11 369,-5Z"/>
    <path data-fips-int="8003" data-name="Alamosa County" d="M1790,2026l-21,91 8,11 -121,132h-142v-27l3,-206Z"/>
    <path data-fips-int="8005" data-name="Arapahoe County" d="M2589,836l1,102h-3l-432,7 -178,2 -4,-29 10,-28 30,-4 25,26 30,-22 -27,-5 19,-22 -10,-20 241,-1Z"/>
    <path data-fips-int="8007" data-name="Archuleta County" d="M1002,2214l6,19h190v-4l15,1v104l37,20 3,30 53,90 -186,-2 -3,-4 -288,-5 5,-251Z"/>
    <path data-fips-int="8009" data-name="Baca County" d="M3397,2057l15,388 -496,12 -5,-82 2,-197 -2,-104 155,-5Z"/>
    <path data-fips-int="8011" data-name="Bent County" d="M3054,1699l7,114 5,256 -155,5 -156,4 -2,-202 -3,-168Z"/>
    <path data-fips-int="8013" data-name="Boulder County" d="M1709,632l-17,-38 2,-36 3,-24 275,-1 1,155v26l-31,3 -12,23h-115v-12l-126,1 -9,-50 20,-3Z"/>
    <path data-fips-int="8014" data-name="Broomfield County" d="M2015,688l-25,11v36l-17,4 -43,1 12,-23 31,-3v-26l33,-19v-1Z"/>
    <path data-fips-int="8015" data-name="Chaffee County" d="M1451,1250l8,37 29,4 -2,26h40l55,81 -29,68 19,7 23,43 -13,61 -50,35 -22,-6 -11,20 -75,-1h-4l-43,-50 2,-37 -17,-40 -23,-9 -12,-28 17,-16 3,-59h15l27,-51 -27,-8 -38,7 -55,-48 -7,-4 12,-36Z"/>
    <path data-fips-int="8017" data-name="Cheyenne County" d="M3362,1224l10,257 -266,11 -200,4 -58,3 5,-45 -5,-207 268,-9Z"/>
    <path data-fips-int="8019" data-name="Clear Creek County" d="M1815,839v108l-198,1 25,-23 -20,-23 -48,-19 2,-16 18,-22 -3,-30 71,-12 18,-27 20,2 49,45Z"/>
    <path data-fips-int="8021" data-name="Conejos County" d="M1514,2233v27h142l10,37 -9,21 4,63 -19,70 24,24 -360,-1 -53,-90 -3,-30 -37,-20v-104Z"/>
    <path data-fips-int="8023" data-name="Costilla County" d="M1933,2297v178h-267l-24,-24 19,-70 -4,-63 9,-21 -10,-37 121,-132 18,-20 70,-27 53,24 -15,20 22,38 -2,37 20,32 -15,9Z"/>
    <path data-fips-int="8025" data-name="Crowley County" d="M2697,1560l5,149 -2,56 -51,1v35l-97,3 -108,-18 -2,-224Z"/>
    <path data-fips-int="8027" data-name="Custer County" d="M1980,1724l2,204 -14,-23 -23,1 -12,-34h-20l-43,66 -13,-23 -45,27 -30,-2 -53,-49 -35,-73 -7,-28 -56,-70 186,4Z"/>
    <path data-fips-int="8029" data-name="Delta County" d="M842,1470l-103,-1 -304,-8v-96l114,-44 22,-42 53,-46 73,-4 27,16 13,-12 40,-39 72,-49Z"/>
    <path data-fips-int="8031" data-name="Denver County" d="M2050,843l10,20 -19,22 27,5 -30,22 -25,-26 -30,4 -10,28h-25l25,-44v-61l68,3 52,-8v-27l27,-3v-31l59,-1 -8,44 -63,3 12,32 -44,-3Z"/>
    <path data-fips-int="8033" data-name="Dolores County" d="M661,1998l-7,33 -16,2 -29,10 -3,35h-138l-306,-10 -63,84 10,-235 104,4v-8l263,9 20,45 48,-20 57,1Z"/>
    <path data-fips-int="8035" data-name="Douglas County" d="M2155,945v260l-170,1h-137l30,-60 14,-7 31,-72 -3,-26 22,-16 -4,-23 20,-13 19,-42Z"/>
    <path data-fips-int="8037" data-name="Eagle County" d="M1341,732v29l23,65 19,5 50,58 23,6 -13,72 -10,-11 -9,50 20,50 -20,13 -81,-3 -315,-6 5,-329 39,1 184,-1Z"/>
    <path data-fips-int="8039" data-name="Elbert County" d="M2587,938l3,120v228l4,69 -157,1v-155l-282,4v-260Z"/>
    <path data-fips-int="8041" data-name="El Paso County" d="M2155,1205l282,-4v155l5,206 -412,6 -2,-77 2,-88 -62,-1 2,-41h18l-3,-155Z"/>
    <path data-fips-int="8043" data-name="Fremont County" d="M2028,1491l2,77 1,156h-51h-163l-186,-4 -34,-26 -66,-82 50,-35 13,-61 -23,-43 -19,-7 296,-3h44l-2,29Z"/>
    <path data-fips-int="8045" data-name="Garfield County" d="M1072,732l-39,-1 -5,329 -146,-4 -150,-2 -341,-10 -252,-9 6,-175 72,8 154,6v-25l283,7 2,-78h141l90,4v-53l53,3 4,-105 126,2Z"/>
    <path data-fips-int="8047" data-name="Gilpin County" d="M1815,740v99l-66,-16 -49,-45 -20,-2 9,-47 126,-1Z"/>
    <path data-fips-int="8049" data-name="Grand County" d="M1709,633l-9,43 -20,3 9,50 -9,47 -18,27 -71,12 3,30 -18,22 -45,7 -17,-22 -8,-41 -23,-30 -32,-12 -23,-29 -87,-8 -85,-1 -5,-46 5,-202h-10l2,-61 18,39 37,8 5,-14 13,-13 17,36 45,-3 25,17h68l60,-26 18,15 32,-30 3,-42 20,-9 22,8 -5,30 59,78 12,18 -3,24 -2,36Z"/>
    <path data-fips-int="8051" data-name="Gunnison County" d="M887,1123h10l8,35 37,26 5,20 100,3 36,29 -5,22 42,25 22,-9 33,15 40,-42 46,35 7,4 55,48 38,-7 27,8 -27,51h-15l-3,59 -17,16 12,28 23,9 17,40 -2,37 43,50 -347,-5 -4,166 -264,-7 -8,-59 -24,-32 63,1 7,-219 7,-325 11,-8Z"/>
    <path data-fips-int="8053" data-name="Hinsdale County" d="M1068,1786l-1,113 -32,-4 -33,12 -5,157h10l-5,150 -168,-2 1,-130 4,-76 11,-14 -26,-19 -10,-33 2,-41 -15,-11 28,-57 -18,-9 -7,-43Z"/>
    <path data-fips-int="8055" data-name="Huerfano County" d="M1982,1928l16,19 171,-12 140,47 -48,43 -43,83v20l-47,47h-16l-5,34 -25,21 -117,18 -56,48 -19,1 -5,-56 15,-9 -20,-32 2,-37 -22,-38 15,-20 -53,-24 -70,27 -18,20 -8,-11 21,-91 14,-61 -22,-25 30,2 45,-27 13,23 43,-66h20l12,34 23,-1Z"/>
    <path data-fips-int="8057" data-name="Jackson County" d="M1459,93v39l32,41 31,35 24,47 38,97 2,30 23,18 -20,9 -3,42 -32,30 -18,-15 -60,26h-68l-25,-17 -45,3 -17,-36 -13,13 -5,14 -37,-8 -18,-39 -2,-40 -21,-64 18,-47v-40l15,-15 -25,-59 -22,10 -49,-32 -2,-35v-12Z"/>
    <path data-fips-int="8059" data-name="Jefferson County" d="M1973,739v74v61l-25,44h25l4,29 -19,42 -20,13 4,23 -22,16 3,26 -31,72 -14,7 -30,60h-31l-2,-259v-108v-99h115Z"/>
    <path data-fips-int="8061" data-name="Kiowa County" d="M3372,1481l10,206 -328,12 -304,9 -48,1 -5,-149v-4l153,-5 -2,-52 58,-3 200,-4Z"/>
    <path data-fips-int="8063" data-name="Kit Carson County" d="M3362,1224l-246,14 -268,9v-54l-5,-261 161,-5 345,-15Z"/>
    <path data-fips-int="8065" data-name="Lake County" d="M1424,1069l20,-13h34l-22,41 3,104 -16,20 8,29 -178,-4 5,-57 23,-3 17,-58 -10,-23 33,-12 2,-27Z"/>
    <path data-fips-int="8067" data-name="La Plata County" d="M470,2305l26,-63 43,-13 10,-27 25,-19 9,-78 21,-23 2,-4 229,4 -1,130 -5,251 -426,-11 23,-33 22,-53 -3,-41Z"/>
    <path data-fips-int="8069" data-name="Larimer County" d="M1972,533l-275,1 -12,-18 -59,-78 5,-30 -22,-8 -23,-18 -2,-30 -38,-97 -24,-47 -31,-35 -32,-41v-39l45,3h456l58,-3 2,29v359h-50Z"/>
    <path data-fips-int="8071" data-name="Las Animas County" d="M2755,2078l156,-4 2,104 -2,197 5,82 -336,9 -321,8 -326,1v-178l19,-1 56,-48 117,-18 25,-21 5,-34h16l47,-47v-20l43,-83 48,-43 137,49 3,53Z"/>
    <path data-fips-int="8073" data-name="Lincoln County" d="M2843,932l5,261v54l5,207 -5,45 2,52 -153,5v4l-255,2 -5,-206 157,-1 -4,-69v-228l-3,-120h3Z"/>
    <path data-fips-int="8075" data-name="Logan County" d="M3051,222l-3,39 3,146 -52,2 -309,10 -3,-52 -52,1 2,-149 -5,-135 414,-13Z"/>
    <path data-fips-int="8077" data-name="Mesa County" d="M882,1056l-10,38 32,17 -7,12h-10l-27,14 -11,8 -72,49 -40,39 -13,12 -27,-16 -73,4 -53,46 -22,42 -114,44v96l-4,99 -316,-11 5,-178 10,-158 9,-178 252,9 341,10Z"/>
    <path data-fips-int="8079" data-name="Mineral County" d="M1210,1973l-2,101h-8l-2,155v4h-190l-6,-19 5,-150h-10l5,-157 33,-12 32,4 50,-6 21,29 35,20 37,6Z"/>
    <path data-fips-int="8081" data-name="Moffat County" d="M954,85l-4,240 -26,-1v35l-27,-1 -10,189 -309,-6 -421,-14 10,-224 8,-239 270,10 287,7Z"/>
    <path data-fips-int="8083" data-name="Montezuma County" d="M470,2306l-25,19 3,41 -22,53 -23,33 -316,-11 12,-289 63,-84 306,10h138l-2,4 -21,23 -9,78 -25,19 -10,27 -43,13Z"/>
    <path data-fips-int="8085" data-name="Montrose County" d="M842,1470l-7,219 -63,-1v-18l-229,-6 20,45 35,2 30,18 -10,43 -328,-9 -175,-8 -5,-85 5,-121 316,11 4,-99 304,8Z"/>
    <path data-fips-int="8087" data-name="Morgan County" d="M2635,368l52,-1 3,52 -2,137 2,121 -105,2 -201,4 -3,-144v-168Z"/>
    <path data-fips-int="8089" data-name="Otero County" d="M2750,1708l3,168 2,202 -306,6 -3,-53 -2,-245 108,18 97,-3v-35l51,-1 2,-56Z"/>
    <path data-fips-int="8091" data-name="Ouray County" d="M772,1688l24,32 8,59 7,43 18,9 -28,57h-34v27l-26,15 -20,-8 -25,-50 -43,-13v-64l-29,-1 -6,-22 10,-43 -30,-18 -35,-2 -20,-45 229,6Z"/>
    <path data-fips-int="8093" data-name="Park County" d="M1815,947l2,259h31v257l-296,3 29,-68 -55,-81h-40l2,-26 -29,-4 -8,-37 -8,-29 16,-20 -3,-104 22,-41 36,14 48,-33 60,-70 -5,-19Z"/>
    <path data-fips-int="8095" data-name="Phillips County" d="M3322,213l7,184 -278,10 -3,-146 3,-39Z"/>
    <path data-fips-int="8097" data-name="Pitkin County" d="M1343,1066l-2,27 -33,12 10,23 -17,58 -23,3 -5,57 -12,36 -46,-35 -40,42 -33,-15 -22,9 -42,-25 5,-22 -36,-29 -100,-3 -5,-20 -37,-26 -8,-35 7,-12 -32,-17 10,-38 146,4Z"/>
    <path data-fips-int="8099" data-name="Prowers County" d="M3382,1687l15,370 -331,12 -5,-256 -7,-114Z"/>
    <path data-fips-int="8101" data-name="Pueblo County" d="M2442,1562l2,224 2,245 -137,-49 -140,-47 -171,12 -16,-19 -2,-204h51l-1,-156Z"/>
    <path data-fips-int="8103" data-name="Rio Blanco County" d="M1070,629l-126,-2 -4,105 -53,-3v53l-90,-4h-141l-2,78 -283,-7v25l-154,-6 -72,-8 12,-333 421,14 309,6 185,2Z"/>
    <path data-fips-int="8105" data-name="Rio Grande County" d="M1517,2027l-3,206 -301,-3 -15,-1 2,-155h8l2,-101 50,1v52Z"/>
    <path data-fips-int="8107" data-name="Routt County" d="M1160,100l2,35 49,32 22,-10 25,59 -15,15v40l-18,47 21,64 2,40 -2,61h10l-5,202 5,46 -184,1 -2,-103 2,-80 -185,-2 10,-189 27,1v-35l26,1 4,-240 206,3Z"/>
    <path data-fips-int="8109" data-name="Saguache County" d="M1531,1612l66,82 34,26 56,70 7,28 35,73 53,49 22,25 -14,61 -273,1 -257,-1v-52l-50,-1v-25l-37,-6 -35,-20 -21,-29 -50,6 1,-113 4,-166 347,5h4l75,1 11,-20Z"/>
    <path data-fips-int="8113" data-name="San Miguel County" d="M618,1772l6,22 29,1v64l43,13 25,50 -29,48 -31,28 -60,-50 -57,-1 -48,20 -20,-45 -263,-9v8l-104,-4 6,-162 175,8Z"/>
    <path data-fips-int="8115" data-name="Sedgwick County" d="M3322,213l-271,9 -5,-151 270,-8Z"/>
    <path data-fips-int="8117" data-name="Summit County" d="M1576,867l-2,16 48,19 20,23 -25,23 5,19 -60,70 -48,33 -36,-14h-34l-20,-50 9,-50 10,11 13,-72 -23,-6 -50,-58 -19,-5 -23,-65v-29l87,8 23,29 32,12 23,30 8,41 17,22Z"/>
    <path data-fips-int="8119" data-name="Teller County" d="M2028,1491l-138,1 2,-29h-44v-257h137l3,155h-18l-2,41 62,1Z"/>
    <path data-fips-int="8121" data-name="Washington County" d="M2999,409l-4,52 6,207h-5l8,259 -161,5 -253,6 -1,-102 -4,-157 105,-2 -2,-121 2,-137Z"/>
    <path data-fips-int="8123" data-name="Weld County" d="M2635,368l-254,3v168l3,144 -369,5 -9,-20v1l-33,19 -1,-155 -2,-52h50v-359l-2,-29 221,-1 393,-8 5,135Z"/>
    <path data-fips-int="8125" data-name="Yuma County" d="M3349,912l-345,15 -8,-259h5l-6,-207 4,-52 52,-2 278,-10Z"/>
    <path data-fips-int="8111" data-name="San Juan County" d="M801,1888l15,11 -2,41 10,33 26,19 -11,14 -4,76 -229,-4 3,-35 29,-10 16,-2 7,-33 31,-28 29,-48 20,8 26,-15v-27Z"/>
  </g>
  <path class="mesh" transform="scale(0.1)" d="M2916,2457l-5,-82 2,-197 -2,-104 155,-5 331,-12M2911,2074l-156,4 -2,-202 -3,-168 304,-9 7,114 5,256M1709,632l-17,-38 2,-36 3,-24 275,-1 1,155v26l-31,3 -12,23h-115v-12l-126,1 -9,-50 20,-3 9,-43M1973,739l17,-4v-36l25,-11 369,-5 201,-4 4,157 -298,6 -241,1 26,-21 44,3 -12,-32 63,-3 8,-44 -59,1v31l-27,3v27l-52,8 -68,-3v-74l-43,1M1444,1056h34l-22,41 3,104 -16,20 8,29 8,37 29,4 -2,26h40l55,81 -29,68 19,7 23,43 -13,61 -50,35 -22,-6 -11,20 -75,-1h-4l-43,-50 2,-37 -17,-40 -23,-9 -12,-28 17,-16 3,-59h15l27,-51 -27,-8 -38,7 -55,-48 -7,-4 12,-36 178,4M3372,1481l-266,11 -200,4 -58,3 5,-45 -5,-207 268,-9 246,-14M1815,740v99v108l-198,1 25,-23 -20,-23 -48,-19 2,-16 18,-22 -3,-30 71,-12 18,-27 20,2 49,45 66,16M1777,2128l-121,132 10,37 -9,21 4,63 -19,70 24,24M1656,2260h-142v-27l3,-206 273,-1 -21,91 8,11 18,-20 70,-27 53,24 -15,20 22,38 -2,37 20,32 -15,9 5,56v178M2030,1568l1,156h-51l2,204 -14,-23 -23,1 -12,-34h-20l-43,66 -13,-23 -45,27 -30,-2 -53,-49 -35,-73 -7,-28 -56,-70 186,4h163M1419,1625l-347,-5 -4,166 -264,-7 -8,-59 -24,-32 63,1 7,-219 -103,-1 -304,-8v-96l114,-44 22,-42 53,-46 73,-4 27,16 13,-12 40,-39 72,-49 -7,325M2155,945l-178,2 -4,-29h-25l25,-44v-61M109,1917l104,4v-8l263,9 20,45 48,-20 57,1 60,50 -7,33 -16,2 -29,10 -3,35h-138l-306,-10 -63,84M1576,867l-45,7 -17,-22 -8,-41 -23,-30 -32,-12 -23,-29 -87,-8v29l23,65 19,5 50,58 23,6 -13,72 -10,-11 -9,50 20,50 -20,13 -81,-3 -315,-6 5,-329 39,1 184,-1 85,1M2589,836l1,102h-3l3,120v228l4,69 -157,1v-155l-282,4M2437,1356l5,206 -412,6 -2,-77 2,-88 -62,-1 2,-41h18l-3,-155M1631,1720l-34,-26 -66,-82M1552,1466l296,-3h44l-2,29 138,-1M1028,1060l-146,-4 -150,-2 -341,-10 -252,-9M145,860l72,8 154,6v-25l283,7 2,-78h141l90,4v-53l53,3 4,-105 126,2 2,103M1680,776l9,-47M1256,731l-5,-46 5,-202h-10l2,-61 18,39 37,8 5,-14 13,-13 17,36 45,-3 25,17h68l60,-26 18,15 32,-30 3,-42 20,-9 22,8 -5,30 59,78 12,18M849,1145l11,-8 27,-14h10l8,35 37,26 5,20 100,3 36,29 -5,22 42,25 22,-9 33,15 40,-42 46,35M829,2463l5,-251 1,-130 4,-76 11,-14 -26,-19 -10,-33 2,-41 -15,-11 28,-57 -18,-9 -7,-43M1982,1928l16,19 171,-12 140,47 -48,43 -43,83v20l-47,47h-16l-5,34 -25,21 -117,18 -56,48 -19,1M1790,2026l14,-61 -22,-25M1459,93v39l32,41 31,35 24,47 38,97 2,30 23,18M1973,918l10,-28 30,-4 25,26 30,-22 -27,-5 19,-22 -10,-20M1248,422l-2,-40 -21,-64 18,-47v-40l15,-15 -25,-59 -22,10 -49,-32 -2,-35v-12M1848,1206h-31l-2,-259M3382,1687l-328,12M2750,1708l-48,1M2697,1560l5,149 -2,56 -51,1v35l-97,3 -108,-18 -2,-224 255,-2v-4l153,-5 -2,-52M2848,1247v-54l-5,-261 161,-5 345,-15M1273,1246l5,-57 23,-3 17,-58 -10,-23 33,-12 2,-27M1068,1786l-1,113 -32,-4 -33,12 -5,157h10l-5,150 6,19h190v-4l15,1 301,3M1213,2230v104l37,20 3,30 53,90M470,2305l26,-63 43,-13 10,-27 25,-19 9,-78 21,-23 2,-4 229,4M403,2452l23,-33 22,-53 -3,-41 25,-19M2018,93l2,29v359h-50l2,52M2309,1982l137,49 3,53 306,-6M2590,938l253,-6M3046,71l5,151 -3,39 3,146 -52,2 -309,10 -3,-52 -52,1 2,-149 -5,-135M882,1056l-10,38 32,17 -7,12M435,1461l-4,99 -316,-11M1067,1899l50,-6 21,29 35,20 37,6v25l-2,101h-8l-2,155M954,85l-4,240 -26,-1v35l-27,-1 -10,189 -309,-6 -421,-14M772,1688v-18l-229,-6 20,45 35,2 30,18 -10,43 -328,-9 -175,-8M2690,419l-2,137 2,121 -105,2M2384,683l-3,-144v-168l254,-3M2446,2031l-2,-245M801,1888h-34v27l-26,15 -20,-8 -25,-50 -43,-13v-64l-29,-1 -6,-22M1848,1206v257M1478,1056l36,14 48,-33 60,-70 -5,-19M3329,397l-278,10M3051,222l271,-9M887,547l185,2 -2,80M1210,1973l50,1v52l257,1M721,1922l-29,48 -31,28M2999,409l-4,52 6,207h-5l8,259M1973,688l33,-19v-1l9,20M2587,938l-432,7v260l-170,1h-137l30,-60 14,-7 31,-72 -3,-26 22,-16 -4,-23 20,-13 19,-42M834,2212l168,2"/>
  <g class="cities">
    <circle r="3" cx="200.5" cy="84.3"/>
    <text x="200.5" y="84.3">Denver</text>
    <circle r="3" cx="208.3" cy="138.2"/>
    <text x="208.3" y="138.2">Colorado Springs</text>
    <circle r="3" cx="195.7" cy="34.1"/>
    <text x="195.7" y="34.1">Fort Collins</text>
  </g>
</svg>