<?xml version="1.0" encoding="utf-8"?>
<!DOCTYPE svg PUBLIC "-//W3C//DTD SVG 1.1//EN" "http://www.w3.org/Graphics/SVG/1.1/DTD/svg11.dtd">
<svg version="1.1" xmlns="http://www.w3.org/2000/svg" width="350" height="254" viewBox="0 0 350 254">
  <path class="state" transform="scale(0.1)" d="M3349,912l13,312 10,257 10,206 15,370 15,388 -496,12 -657,17 -326,1h-266l-361,-1 -186,-3 -3,-3 -288,-5 -426,-11 -316,-11 12,-289 10,-235 6,-162 -5,-120 5,-86 2,-82 10,-149 12,-283 5,-175 15,-333 10,-224 6,-229 10,-10 260,10 286,7 223,4 206,2 299,6 45,1h456l58,-1 221,-1 395,-10 410,-9 272,-10 6,150 7,184 20,515"/>
  <g class="counties" transform="scale(0.1)">
    <path data-fips-int="8001" data-name="Adams County" d="M2585,680l4,156 -298,6 -241,1 26,-21 44,3 -12,-32 63,-3 8,-44 -59,1v32l-27,1v28l-52,8 -68,-3v-74l17,-4v-36l18,-12h7l369,-4Z"/>
    <path data-fips-int="8003" data-name="Alamosa County" d="M1790,2026l-21,90 8,12 -121,132h-140v-27l1,-206Z"/>
    <path data-fips-int="8005" data-name="Arapahoe County" d="M2589,836l1,102h-3l-309,7h-123l-178,2 -4,-29 10,-28 30,-4 25,26 30,-22 -27,-5 9,-42 241,-1Z"/>
    <path data-fips-int="8007" data-name="Archuleta County" d="M1002,2214l6,19h190v-4l15,1v104l37,20 3,30 53,90 -186,-3 -3,-3 -288,-5 5,-251Z"/>
    <path data-fips-int="8009" data-name="Baca County" d="M3397,2057l15,388 -496,12 -3,-90 2,-142 -4,-151 155,-5Z"/>
    <path data-fips-int="8011" data-name="Bent County" d="M3056,1699l3,114 7,256 -155,5 -154,4 -2,-202 -5,-168Z"/>
    <path data-fips-int="8013" data-name="Boulder County" d="M1972,533l1,154v27l-43,26h-115v-12l-126,1 -7,-49 18,-4 10,-55 -21,-44 8,-43Z"/>
    <path data-fips-int="8014" data-name="Broomfield County" d="M2015,687h-7l-18,12v36l-17,4 -43,1 43,-26v-27l33,-17Z"/>
    <path data-fips-int="8015" data-name="Chaffee County" d="M1451,1250l10,37 25,2v28h40l46,44 9,37 -29,68 20,7 22,45 -13,59 -49,35 -31,13h-78l-47,-50v-37l-15,-41 -23,-8 -10,-28 16,-16 2,-61 15,2 27,-51h-62l-31,-43 -34,-10 12,-36Z"/>
    <path data-fips-int="8017" data-name="Cheyenne County" d="M3362,1224l10,257 -266,11 -200,4 -56,2 3,-46 -5,-205 268,-9Z"/>
    <path data-fips-int="8019" data-name="Clear Creek County" d="M1815,839v108l-196,1 22,-39 -69,-26 4,-16 18,-22 -3,-30 71,-12 20,-27 27,6 40,41Z"/>
    <path data-fips-int="8021" data-name="Conejos County" d="M1516,2233v27h140l10,37 -12,47 5,37 -17,70 25,24 -361,-1 -53,-90 -3,-30 -37,-20v-104Z"/>
    <path data-fips-int="8023" data-name="Costilla County" d="M1933,2297v178h-266l-25,-24 17,-70 -5,-37 12,-47 -10,-37 121,-132 18,-20 70,-27 52,23 -14,23 22,35 -2,38 22,27 -13,9Z"/>
    <path data-fips-int="8025" data-name="Crowley County" d="M2697,1560l5,149 -4,56 -49,1v35l-100,3 -7,-8 -98,-12 -2,-222Z"/>
    <path data-fips-int="8027" data-name="Custer County" d="M1980,1724l2,204 -14,-23 -23,1 -20,-40 -32,33 -20,37 -16,-21 -45,27 -30,-2 -38,-33 -50,-89 -4,-31 -59,-67 186,4Z"/>
    <path data-fips-int="8029" data-name="Delta County" d="M840,1470l-101,-1 -304,-8 1,-96 113,-43 22,-43 53,-46 60,-10 37,21 56,-50 72,-49Z"/>
    <path data-fips-int="8031" data-name="Denver County" d="M2050,843l-9,42 27,5 -30,22 -25,-26 -30,4 -10,28h-25l25,-44v-61l68,3 52,-8v-28l27,-1v-32l59,-1 -8,44 -63,3 12,32 -44,-3Z"/>
    <path data-fips-int="8033" data-name="Dolores County" d="M661,1998l-8,33 -37,7 -10,40 -198,-2 -248,-8 -61,84 10,-235 104,4 39,-8 226,9 18,45 48,-20 57,1Z"/>
    <path data-fips-int="8035" data-name="Douglas County" d="M2155,945v260l-170,1h-137l62,-109 10,-56 22,-16 35,-78Z"/>
    <path data-fips-int="8037" data-name="Eagle County" d="M1343,732v29l21,65 19,5 48,58 23,4 -11,74 -20,-5v44l21,50 -38,17 -62,-7 -316,-6 5,-329 39,1 184,-1Z"/>
    <path data-fips-int="8039" data-name="Elbert County" d="M2587,938l3,120v228l4,69 -157,1v-155l-282,4v-260h123Z"/>
    <path data-fips-int="8041" data-name="El Paso County" d="M2155,1205l282,-4v155l5,206 -412,6 -2,-77 2,-88 -62,-1 2,-41h18l-3,-155Z"/>
    <path data-fips-int="8043" data-name="Fremont County" d="M2028,1491l2,77 1,156h-51h-163l-186,-4 -99,-108 49,-35 13,-59 -22,-45 -20,-7 296,-3h44l-2,29Z"/>
    <path data-fips-int="8045" data-name="Garfield County" d="M1072,732l-39,-1 -5,329 -146,-4 -148,-2 -343,-10 -252,-9 5,-175 73,8 154,6 2,-25 280,7 3,-77h141l90,3 2,-53 51,3 4,-105 126,2Z"/>
    <path data-fips-int="8047" data-name="Gilpin County" d="M1815,740v99l-66,-16 -40,-41 -27,-6 7,-47 126,-1Z"/>
    <path data-fips-int="8049" data-name="Grand County" d="M1697,534l-8,43 21,44 -10,55 -18,4 7,49 -7,47 -20,27 -71,12 3,30 -18,22 -45,7 -17,-22 -8,-41 -22,-31 -35,-11 -20,-29 -86,-8 -87,-1 -5,-46 5,-202h-10l2,-61 18,39 37,8 18,-27 17,36 45,-3 25,17h73l45,-23 35,13 26,-31v-42l22,-9 22,7 -5,31 21,37 32,23Z"/>
    <path data-fips-int="8051" data-name="Gunnison County" d="M889,1123h6l10,16 10,33 32,32 100,3 36,29 -5,22 42,25 22,-9 33,15 40,-42 46,35 34,10 31,43h62l-27,51 -15,-2 -2,61 -16,16 10,28 23,8 15,41v37l47,50 -351,-5 -4,164 -264,-5 -7,-48 -23,-43 63,1 3,-219 9,-325Z"/>
    <path data-fips-int="8053" data-name="Hinsdale County" d="M1068,1784l-1,115 -65,8 -5,157h10l-5,150 -168,-2 3,-130 2,-76 11,-14 -24,-19 -12,-33 3,-40 -16,-12 28,-58 -20,-8 -5,-43Z"/>
    <path data-fips-int="8055" data-name="Huerfano County" d="M1982,1928l16,19 171,-12 140,47 -43,38 -48,88v20l-47,47h-16l-5,34 -25,21 -117,18 -56,48 -19,1 -1,-61 13,-9 -22,-27 2,-38 -22,-35 14,-23 -52,-23 -70,27 -18,20 -8,-12 21,-90 14,-61 -22,-25 30,2 45,-27 16,21 20,-37 32,-33 20,40 23,-1Z"/>
    <path data-fips-int="8057" data-name="Jackson County" d="M1459,93l2,40 61,76 25,46 37,97v28l25,20 -22,9v42l-26,31 -35,-13 -45,23h-73l-25,-17 -45,3 -17,-36 -18,27 -37,-8 -18,-39 -2,-39 -16,-28 -4,-42 15,-40 15,-75 -23,-41 -15,10 -65,-51 7,-29Z"/>
    <path data-fips-int="8059" data-name="Jefferson County" d="M1973,739v74v61l-25,44h25l4,29 -35,78 -22,16 -10,56 -62,109h-31l-2,-259v-108v-99h115Z"/>
    <path data-fips-int="8061" data-name="Kiowa County" d="M3372,1481l10,206 -326,12 -306,9 -48,1 -5,-149v-4l154,-5 -1,-53 56,-2 200,-4Z"/>
    <path data-fips-int="8063" data-name="Kit Carson County" d="M3362,1224l-246,14 -268,9 2,-54 -7,-261 161,-5 345,-15Z"/>
    <path data-fips-int="8065" data-name="Lake County" d="M1444,1056h34l-24,41 5,104 -16,20 8,29 -178,-4 7,-57 20,-3 18,-58 -10,-23 33,-12 3,-27 62,7Z"/>
    <path data-fips-int="8067" data-name="La Plata County" d="M837,2082l-3,130 -5,251 -426,-11 23,-33 22,-53 -2,-41 42,-48 3,-28 48,-20 14,-34 21,-12 9,-78 23,-27Z"/>
    <path data-fips-int="8069" data-name="Larimer County" d="M1972,533l-275,1 -18,-36 -32,-23 -21,-37 5,-31 -22,-7 -25,-20v-28l-37,-97 -25,-46 -61,-76 -2,-40 45,1h456l58,-1 2,29v359h-50Z"/>
    <path data-fips-int="8071" data-name="Las Animas County" d="M2757,2078l154,-4 4,151 -2,142 3,90 -657,17 -326,1v-178l19,-1 56,-48 117,-18 25,-21 5,-34h16l47,-47v-20l48,-88 43,-38 137,49 3,53Z"/>
    <path data-fips-int="8073" data-name="Lincoln County" d="M2843,932l7,261 -2,54 5,205 -3,46 1,53 -154,5v4l-255,2 -5,-206 157,-1 -4,-69v-228l-3,-120h3Z"/>
    <path data-fips-int="8075" data-name="Logan County" d="M3051,221l-3,40 3,146 -52,2 -309,10 -3,-52h-10l-42,1v-106l-1,-180 410,-9Z"/>
    <path data-fips-int="8077" data-name="Mesa County" d="M882,1056l-10,38 33,17 -10,12h-6l-40,22 -72,49 -56,50 -37,-21 -60,10 -53,46 -22,43 -113,43 -1,96 -5,99 -315,-11 2,-82 10,-149 12,-283 252,9 343,10Z"/>
    <path data-fips-int="8079" data-name="Mineral County" d="M1210,1973l-2,101h-8l-2,155v4h-190l-6,-19 5,-150h-10l5,-157 65,-8 50,-6 21,29 35,20 37,6Z"/>
    <path data-fips-int="8081" data-name="Moffat County" d="M954,85l-4,239h-26v34h-29l-6,189 -311,-6 -419,-14 10,-224 6,-229 10,-10 260,10 286,7Z"/>
    <path data-fips-int="8083" data-name="Montezuma County" d="M606,2078l-23,27 -9,78 -21,12 -14,34 -48,20 -3,28 -42,48 2,41 -22,53 -23,33 -316,-11 12,-289 61,-84 248,8Z"/>
    <path data-fips-int="8085" data-name="Montrose County" d="M840,1470l-3,219 -63,-1v-17l-231,-7 20,45 35,2 30,18 -10,43 -328,-9 -175,-8 -5,-120 5,-86 315,11 5,-99 304,8Z"/>
    <path data-fips-int="8087" data-name="Morgan County" d="M2635,368l42,-1h10l3,52 -2,137 4,120 -107,4 -201,3 -3,-144v-167Z"/>
    <path data-fips-int="8089" data-name="Otero County" d="M2750,1708l5,168 2,202 -308,6 -3,-53 -2,-247 98,12 7,8 100,-3v-35l49,-1 4,-56Z"/>
    <path data-fips-int="8091" data-name="Ouray County" d="M774,1688l23,43 7,48 5,43 20,8 -28,58h-35v27l-25,15 -20,-8 -25,-50 -43,-13v-64l-29,-1 -6,-22 10,-43 -30,-18 -35,-2 -20,-45 231,7Z"/>
    <path data-fips-int="8093" data-name="Park County" d="M1815,947l2,259h31v257l-296,3 29,-68 -9,-37 -46,-44h-40v-28l-25,-2 -10,-37 -8,-29 16,-20 -5,-104 24,-41 36,14 48,-33 60,-70 -3,-19Z"/>
    <path data-fips-int="8095" data-name="Phillips County" d="M3322,213l7,184 -278,10 -3,-146 3,-40Z"/>
    <path data-fips-int="8097" data-name="Pitkin County" d="M1344,1066l-3,27 -33,12 10,23 -18,58 -20,3 -7,57 -12,36 -46,-35 -40,42 -33,-15 -22,9 -42,-25 5,-22 -36,-29 -100,-3 -32,-32 -10,-33 -10,-16 10,-12 -33,-17 10,-38 146,4Z"/>
    <path data-fips-int="8099" data-name="Prowers County" d="M3382,1687l15,370 -331,12 -7,-256 -3,-114Z"/>
    <path data-fips-int="8101" data-name="Pueblo County" d="M2442,1562l2,222 2,247 -137,-49 -140,-47 -171,12 -16,-19 -2,-204h51l-1,-156Z"/>
    <path data-fips-int="8103" data-name="Rio Blanco County" d="M1070,629l-126,-2 -4,105 -51,-3 -2,53 -90,-3h-141l-3,77 -280,-7 -2,25 -154,-6 -73,-8 15,-333 419,14 311,6 183,2Z"/>
    <path data-fips-int="8105" data-name="Rio Grande County" d="M1517,2027l-1,206 -303,-3 -15,-1 2,-155h8l2,-101 50,1v52Z"/>
    <path data-fips-int="8107" data-name="Routt County" d="M1248,422l-2,61h10l-5,202 5,46 -184,1 -2,-103 2,-80 -183,-2 6,-189h29v-34h26l4,-239 206,2 -7,29 65,51 15,-10 23,41 -15,75 -15,40 4,42 16,28Z"/>
    <path data-fips-int="8109" data-name="Saguache County" d="M1532,1612l99,108 59,67 4,31 50,89 38,33 22,25 -14,61 -273,1 -257,-1v-52l-50,-1v-25l-37,-6 -35,-20 -21,-29 -50,6 1,-115 4,-164 351,5h78Z"/>
    <path data-fips-int="8113" data-name="San Miguel County" d="M618,1772l6,22 29,1v64l43,13 25,50 -42,66 -18,10 -60,-50 -57,-1 -48,20 -18,-45 -226,-9 -39,8 -104,-4 6,-162 175,8Z"/>
    <path data-fips-int="8115" data-name="Sedgwick County" d="M3322,213l-271,8 -7,-148 272,-10Z"/>
    <path data-fips-int="8117" data-name="Summit County" d="M1576,867l-4,16 69,26 -22,39 3,19 -60,70 -48,33 -36,-14h-34l-21,-50v-44l20,5 11,-74 -23,-4 -48,-58 -19,-5 -21,-65v-29l86,8 20,29 35,11 22,31 8,41 17,22Z"/>
    <path data-fips-int="8119" data-name="Teller County" d="M2028,1491l-138,1 2,-29h-44v-257h137l3,155h-18l-2,41 62,1Z"/>
    <path data-fips-int="8121" data-name="Washington County" d="M2999,409l-4,52 6,208h-5l8,258 -161,5 -253,6 -1,-102 -4,-156 107,-4 -4,-120 2,-137Z"/>
    <path data-fips-int="8123" data-name="Weld County" d="M2635,368l-254,4v167l3,144 -369,4 -9,-17 -33,17 -1,-154 -2,-52h50v-359l-2,-29 221,-1 395,-10 1,180Z"/>
    <path data-fips-int="8125" data-name="Yuma County" d="M3349,912l-345,15 -8,-258h5l-6,-208 4,-52 52,-2 278,-10Z"/>
    <path data-fips-int="8111" data-name="San Juan County" d="M801,1888l16,12 -3,40 12,33 24,19 -11,14 -2,76 -231,-4 10,-40 37,-7 8,-33 18,-10 42,-66 20,8 25,-15v-27Z"/>
  </g>
  <path class="mesh" transform="scale(0.1)" d="M829,2463l5,-251 168,2 6,19h190v-4l15,1v104l37,20 3,30 53,90M2916,2457l-3,-90 2,-142 -4,-151 155,-5 331,-12M2911,2074l-154,4 -2,-202 -5,-168 306,-9 3,114 7,256M2018,93l2,29v359h-50l2,52 1,154v27l-43,26h-115v-12l-126,1 -7,-49 18,-4 10,-55 -21,-44 8,-43 275,-1M1973,687l33,-17 9,17 369,-4 201,-3 4,156 -298,6 -241,1 26,-21 44,3 -12,-32 63,-3 8,-44 -59,1v32l-27,1v28l-52,8 -68,-3v-74l-43,1M1444,1056h34l-24,41 5,104 -16,20 8,29 10,37 25,2v28h40l46,44 9,37 -29,68 20,7 22,45 -13,59 -49,35 -31,13h-78l-47,-50v-37l-15,-41 -23,-8 -10,-28 16,-16 2,-61 15,2 27,-51h-62l-31,-43 -34,-10 12,-36 178,4M3372,1481l-266,11 -200,4 -56,2 3,-46 -5,-205 268,-9 246,-14M1815,740v99v108l-196,1 22,-39 -69,-26 4,-16 18,-22 -3,-30 71,-12 20,-27 27,6 40,41 66,16M1656,2260l10,37 -12,47 5,37 -17,70 25,24M1213,2230l303,3M1777,2128l18,-20 70,-27 52,23 -14,23 22,35 -2,38 22,27 -13,9 1,61v178M2030,1568l1,156h-51l2,204 -14,-23 -23,1 -20,-40 -32,33 -20,37 -16,-21 -45,27 -30,-2 -38,-33 -50,-89 -4,-31 -59,-67 186,4h163M1423,1625l-351,-5 -4,164 -264,-5 -7,-48 -23,-43 63,1 3,-219 -101,-1 -304,-8 1,-96 113,-43 22,-43 53,-46 60,-10 37,21 56,-50 72,-49 -9,325M109,1917l104,4 39,-8 226,9 18,45 48,-20 57,1 60,50 -8,33 -37,7 -10,40 -198,-2 -248,-8 -61,84M2155,945v260l-170,1h-137l62,-109 10,-56 22,-16 35,-78M1576,867l-45,7 -17,-22 -8,-41 -22,-31 -35,-11 -20,-29 -86,-8v29l21,65 19,5 48,58 23,4 -11,74 -20,-5v44l21,50 -38,17 -62,-7 -316,-6 5,-329 39,1 184,-1 87,1M2587,938l3,120v228l4,69 -157,1v-155l-282,4M2437,1356l5,206 -412,6 -2,-77 2,-88 -62,-1 2,-41h18l-3,-155M1631,1720l-99,-108M1552,1466l296,-3h44l-2,29 138,-1M1028,1060l-146,-4 -148,-2 -343,-10 -252,-9M144,860l73,8 154,6 2,-25 280,7 3,-77h141l90,3 2,-53 51,3 4,-105 126,2 2,103M1682,776l7,-47M1256,731l-5,-46 5,-202h-10l2,-61 18,39 37,8 18,-27 17,36 45,-3 25,17h73l45,-23 35,13 26,-31v-42l22,-9 22,7 -5,31 21,37 32,23 18,36M849,1145l40,-22h6l10,16 10,33 32,32 100,3 36,29 -5,22 42,25 22,-9 33,15 40,-42 46,35M1068,1784l-1,115 -65,8 -5,157h10l-5,150M834,2212l3,-130 2,-76 11,-14 -24,-19 -12,-33 3,-40 -16,-12 28,-58 -20,-8 -5,-43M1982,1928l16,19 171,-12 140,47 -43,38 -48,88v20l-47,47h-16l-5,34 -25,21 -117,18 -56,48 -19,1M1790,2026l-21,90 8,12 -121,132h-140v-27l1,-206 273,-1 14,-61 -22,-25M1459,93l2,40 61,76 25,46 37,97v28l25,20M1248,422l-2,-39 -16,-28 -4,-42 15,-40 15,-75 -23,-41 -15,10 -65,-51 7,-29M1848,1206h-31l-2,-259M3382,1687l-326,12M2750,1708l-48,1M2697,1560l5,149 -4,56 -49,1v35l-100,3 -7,-8 -98,-12 -2,-222 255,-2v-4l154,-5 -1,-53M2848,1247l2,-54 -7,-261 161,-5 345,-15M1273,1246l7,-57 20,-3 18,-58 -10,-23 33,-12 3,-27M403,2452l23,-33 22,-53 -2,-41 42,-48 3,-28 48,-20 14,-34 21,-12 9,-78 23,-27 231,4M2309,1982l137,49 3,53 308,-6M2590,938l253,-6M1973,739l17,-4v-36l18,-12h7M3044,73l7,148 -3,40 3,146 -52,2 -309,10 -3,-52h-10l-42,1v-106l-1,-180M882,1056l-10,38 33,17 -10,12M435,1461l-5,99 -315,-11M1067,1899l50,-6 21,29 35,20 37,6v25l-2,101h-8l-2,155M954,85l-4,239h-26v34h-29l-6,189 -311,-6 -419,-14M774,1688v-17l-231,-7 20,45 35,2 30,18 -10,43 -328,-9 -175,-8M2690,419l-2,137 4,120 -107,4M2384,683l-3,-144v-167l254,-4M2446,2031l-2,-247M801,1888h-35v27l-25,15 -20,-8 -25,-50 -43,-13v-64l-29,-1 -6,-22M1848,1206v257M1478,1056l36,14 48,-33 60,-70 -3,-19M3329,397l-278,10M3051,221l271,-8M889,547l183,2 -2,80M1210,1973l50,1v52l257,1M721,1922l-42,66 -18,10M2999,409l-4,52 6,208h-5l8,258M1973,918h-25l25,-44v-61M2589,836l1,102M2590,938h-3M2587,938l-309,7h-123M2155,945l-178,2M1977,947l-4,-29M1973,918l10,-28 30,-4 25,26 30,-22 -27,-5 9,-42"/>
  <g class="cities">
    <circle r="3" cx="200.5" cy="84.3"/>
    <text x="200.5" y="84.3">Denver</text>
    <circle r="3" cx="208.3" cy="138.2"/>
    <text x="208.3" y="138.2">Colorado Springs</text>
    <circle r="3" cx="195.7" cy="34.1"/>
    <text x="195.7" y="34.1">Fort Collins</text>
  </g>
</svg>