<?xml version="1.0" encoding="utf-8"?>
<!DOCTYPE svg PUBLIC "-//W3C//DTD SVG 1.1//EN" "http://www.w3.org/Graphics/SVG/1.1/DTD/svg11.dtd">
<svg version="1.1" xmlns="http://www.w3.org/2000/svg" width="1000" height="726" viewBox="0 0 1000 726">
  <path class="state" d="M552,707h-76l-103,-1h-54l-6,-2h-76l-122,-4 -90,-2v-63l2,-21 3,-66 1,-46 -1,-39 1,-21 6,-81v-17l2,-49 3,-49 2,-96 2,-48 2,-19 2,-65 133,5h89l59,2 85,2h55h105l64,-2h50l62,-2 118,-2 77,-3 2,43 2,52 3,62 2,85 4,73v17l3,73 3,59 2,53 3,53 1,43 2,67 -96,3 -45,1 -170,4Z"/>
  <g class="counties">
    <path data-fips-int="8001" data-name="Adams County" d="M739,194l1,45 -65,1h-76l-13,1 7,-7 13,1 -4,-9h18l3,-13h-17v10h-8v7l-34,2v-21l4,-11 7,-3 106,-2Z"/>
    <path data-fips-int="8003" data-name="Alamosa County" d="M511,579l-5,22 2,6 -36,39h-38l-2,-8 1,-59Z"/>
    <path data-fips-int="8005" data-name="Arapahoe County" d="M740,239v29h-1l-71,2h-53h-50l-1,-8 3,-8 8,-1 7,7 8,-6 -7,-1 3,-12 13,-1h76Z"/>
    <path data-fips-int="8007" data-name="Archuleta County" d="M286,633v5h56v-1h5l-1,29 11,6 2,12 14,22h-54l-6,-2h-76l1,-72Z"/>
    <path data-fips-int="8009" data-name="Baca County" d="M971,588l1,43 2,67 -96,3 -45,1 -1,-18v-89l-1,-2 45,-2Z"/>
    <path data-fips-int="8011" data-name="Bent County" d="M873,485l2,39v53l1,14 -45,2h-44v-55l-2,-50 64,-2Z"/>
    <path data-fips-int="8013" data-name="Boulder County" d="M563,152l1,45 -3,9 -10,5 -33,1v-4h-36v-14l5,-3 2,-18 -7,-8 4,-13h77Z"/>
    <path data-fips-int="8014" data-name="Broomfield County" d="M575,197l-7,3 -4,11h-13l10,-5 3,-9Z"/>
    <path data-fips-int="8015" data-name="Chaffee County" d="M414,357l-1,7 13,7 -1,6 10,-1 13,10 3,13 -8,20 11,12 -3,19 -14,10 -8,4h-23l-14,-18 -3,-18 -7,-2 2,-30h5l7,-15h-19l-7,-12 -10,-3 3,-10Z"/>
    <path data-fips-int="8017" data-name="Cheyenne County" d="M960,350l3,73 -76,3 -57,1 -16,1 1,-13 -1,-59Z"/>
    <path data-fips-int="8019" data-name="Clear Creek County" d="M519,239l-1,31h-56l7,-11 -19,-11 5,-7 -1,-9 17,-1 8,-9 27,16Z"/>
    <path data-fips-int="8021" data-name="Conejos County" d="M432,638l2,8h38l3,13 -3,5 2,16 -5,18 7,9 -103,-1 -14,-22 -2,-12 -11,-6 1,-29Z"/>
    <path data-fips-int="8023" data-name="Costilla County" d="M552,656v51h-76l-7,-9 5,-18 -2,-16 3,-5 -3,-13 36,-39 5,-5 17,-6 18,5Z"/>
    <path data-fips-int="8025" data-name="Crowley County" d="M770,446l2,42 -1,16h-14v11l-44,-2 -15,-3v-64Z"/>
    <path data-fips-int="8027" data-name="Custer County" d="M566,493v58l-11,-7 -3,-10 -6,1 -11,18 -5,-6 -13,8 -8,-1 -4,-7 -11,-5 -2,-9 -8,-13 -1,-9 -17,-20 53,2Z"/>
    <path data-fips-int="8029" data-name="Delta County" d="M240,420l-117,-3 1,-27 31,-12 13,-19 10,-7 20,-2 8,6 20,-19 16,-11 -1,15Z"/>
    <path data-fips-int="8031" data-name="Denver County" d="M586,241l-3,12 7,1 -8,6 -7,-7 -8,1 -3,8h-8l8,-12v-18l34,-2v-7h8v-10h17l-3,13h-18l4,9 -13,-1Z"/>
    <path data-fips-int="8033" data-name="Dolores County" d="M189,571l-3,9 -12,3 -1,10h-52l-75,-2 -19,23 3,-66h31v-2l75,3 5,12 15,-5 15,1Z"/>
    <path data-fips-int="8035" data-name="Douglas County" d="M615,270v74h-48h-39l15,-23 6,-16 -1,-8 6,-4 11,-23Z"/>
    <path data-fips-int="8037" data-name="Eagle County" d="M384,209v11l6,16 6,3 13,14 6,2 -3,21 -5,-1v13l5,13 -3,3h-25h-43l-47,-1 1,-39v-53l11,-2 52,-1Z"/>
    <path data-fips-int="8039" data-name="Elbert County" d="M739,268l1,10v91l1,18h-45v-44l-81,1v-74h53Z"/>
    <path data-fips-int="8041" data-name="El Paso County" d="M615,344l81,-1v44l2,59 -118,2 -1,-22 1,-25 -18,-1 1,-12h4v-44Z"/>
    <path data-fips-int="8043" data-name="Fremont County" d="M579,426l1,22v45h-14h-47l-53,-2 -11,-8 -18,-23 14,-10 3,-19 -11,-12 85,-1h12v8Z"/>
    <path data-fips-int="8045" data-name="Garfield County" d="M306,209l-11,2v53l-1,39 -42,-2 -132,-3 -81,-3 3,-49 20,2 44,2v-8l81,2v-22l67,1v-15l14,1 1,-30h36Z"/>
    <path data-fips-int="8047" data-name="Gilpin County" d="M518,212l1,27 -13,-1 -27,-16 3,-14h36Z"/>
    <path data-fips-int="8049" data-name="Grand County" d="M486,152l-4,13 7,8 -2,18 -5,3v14l-3,14 -8,9 -17,1 1,9 -5,7 -13,2 -7,-20 -14,-7 -8,-12 -24,-2 -26,-1 -1,-43 1,-27 -2,-17 5,11h12l4,-6 5,10 13,-1 15,6 13,-1 14,-7 9,3 7,-8v-11l6,-3 7,2 -1,9 6,11Z"/>
    <path data-fips-int="8051" data-name="Gunnison County" d="M257,321l5,15 9,8 28,1 10,10 -1,4 11,7 7,-2 9,4 6,-10 7,-2 12,10 10,3 7,12h19l-7,15h-5l-2,30 7,2 3,18 14,18h-59l-41,-2 -1,48 -76,-2 -2,-17 -6,-9h17l2,-62 1,-79 1,-15Z"/>
    <path data-fips-int="8053" data-name="Hinsdale County" d="M305,510l-1,32 -18,3 -1,40 2,5 -1,43 -48,-1v-37l3,-29 -6,-4 -3,-20 -4,-3 8,-17 -6,-4 -1,-10Z"/>
    <path data-fips-int="8055" data-name="Huerfano County" d="M566,551l4,5 50,-3 40,13 -13,11 -14,25 -1,7 -12,12h-6v10l-8,6 -33,5 -4,7 -17,7 -4,-55 -18,-5 -17,6 -5,5 -2,-6 5,-22 4,-17 -6,-8 8,1 13,-8 5,6 11,-18 6,-1 3,10Z"/>
    <path data-fips-int="8057" data-name="Jackson County" d="M416,27v11l12,16 5,3 19,44v8l7,5 -6,3v11l-7,8 -9,-3 -14,7 -13,1 -15,-6 -13,1 -5,-10 -4,6h-12l-5,-11 -1,-13 -5,-20 9,-30 -6,-13 -16,-2 -8,-11 2,-7Z"/>
    <path data-fips-int="8059" data-name="Jefferson County" d="M564,211v21v18l-8,12h8l1,8 -11,23 -6,4 1,8 -6,16 -15,23h-9v-67l-1,-7 1,-31 -1,-27 33,-1Z"/>
    <path data-fips-int="8061" data-name="Kiowa County" d="M963,423l3,59 -56,2 -37,1 -24,1 -64,2h-13l-2,-42v-2l45,-1 -1,-15 16,-1 57,-1Z"/>
    <path data-fips-int="8063" data-name="Kit Carson County" d="M960,350l-146,6v-43l-2,-47 46,-1 33,-2 36,-1 29,-2 4,73Z"/>
    <path data-fips-int="8065" data-name="Lake County" d="M412,301h10l-7,12 1,15 -2,29 -51,-1 4,-18h5l4,-17 -3,-6 10,-3 1,-8h25Z"/>
    <path data-fips-int="8067" data-name="La Plata County" d="M238,595v37l-1,72 -122,-4 6,-9 6,-17v-10l7,-5 7,-19 13,-3 9,-12 3,-24 7,-8Z"/>
    <path data-fips-int="8069" data-name="Larimer County" d="M563,152h-77l-15,-16 -6,-11 1,-9 -7,-2 -7,-5v-8l-19,-44 -5,-3 -12,-16v-11h55h105l1,7v102h-14Z"/>
    <path data-fips-int="8071" data-name="Las Animas County" d="M787,593h44l1,2v89l1,18 -170,4 -111,1v-51l17,-7 4,-7 33,-5 8,-6v-10h6l12,-12 1,-7 14,-25 13,-11 39,13 1,16Z"/>
    <path data-fips-int="8073" data-name="Lincoln County" d="M812,266l2,47v43l1,59 -1,13 1,15 -45,1v2h-72l-2,-59h45l-1,-18v-91l-1,-10h1Z"/>
    <path data-fips-int="8075" data-name="Logan County" d="M872,63l-1,18 1,35h-15l-41,3h-48l-1,-14h-14l-1,-17 1,-43 -1,-22 118,-2Z"/>
    <path data-fips-int="8077" data-name="Mesa County" d="M252,301l-4,11 9,3v6l-15,5 -16,11 -20,19 -8,-6 -20,2 -10,7 -13,19 -31,12 -1,27 -1,29 -91,-4 6,-81v-17l2,-49 81,3Z"/>
    <path data-fips-int="8079" data-name="Mineral County" d="M345,564v29h-3v44v1h-56v-5l1,-43 -2,-5 1,-40 18,-3 14,-2 7,9 20,7Z"/>
    <path data-fips-int="8081" data-name="Moffat County" d="M272,23v63l-8,6 -2,10h-5l-3,55 -32,-2 -104,-2 -74,-3 2,-48 2,-19 2,-65 133,5Z"/>
    <path data-fips-int="8083" data-name="Montezuma County" d="M173,593l-7,8 -3,24 -9,12 -13,3 -7,19 -7,5v10l-6,17 -6,9 -90,-2v-63l2,-21 19,-23 75,2Z"/>
    <path data-fips-int="8085" data-name="Montrose County" d="M240,420l-2,62h-17v-5l-66,-2 5,13h11l9,7 -4,11 -145,-4 -1,-39 1,-21 91,4 1,-29Z"/>
    <path data-fips-int="8087" data-name="Morgan County" d="M753,105h14l1,14v60l1,14 -30,1 -58,1 -1,-89Z"/>
    <path data-fips-int="8089" data-name="Otero County" d="M785,488l2,50v55l-87,2 -1,-16 -1,-69 15,3 44,2v-11h14l1,-16Z"/>
    <path data-fips-int="8091" data-name="Ouray County" d="M221,482l6,9 2,17 1,10 6,4 -8,17h-10l1,7 -14,3 -6,-15 -13,-3v-18h-8l-2,-7 4,-11 -9,-7h-11l-5,-13 66,2Z"/>
    <path data-fips-int="8093" data-name="Park County" d="M518,270l1,7v67h9v74l-85,1 8,-20 -3,-13 -13,-10 -10,1 1,-6 -13,-7 1,-7 2,-29 -1,-15 7,-12 10,5 14,-10 18,-21 -2,-5Z"/>
    <path data-fips-int="8095" data-name="Phillips County" d="M949,61l2,52 -79,3 -1,-35 1,-18Z"/>
    <path data-fips-int="8097" data-name="Pitkin County" d="M384,304l-1,8 -10,3 3,6 -4,17h-5l-4,18 -3,10 -12,-10 -7,2 -6,10 -9,-4 -7,2 -11,-7 1,-4 -10,-10 -28,-1 -9,-8 -5,-15v-6l-9,-3 4,-11 42,2 47,1Z"/>
    <path data-fips-int="8099" data-name="Prowers County" d="M966,482l2,53 3,53 -95,3 -1,-14v-53l-2,-39 37,-1Z"/>
    <path data-fips-int="8101" data-name="Pueblo County" d="M698,446v64l1,69 -39,-13 -40,-13 -50,3 -4,-5v-58h14v-45Z"/>
    <path data-fips-int="8103" data-name="Rio Blanco County" d="M305,179h-36l-1,30 -14,-1v15l-67,-1v22l-81,-2v8l-44,-2 -20,-2 2,-96 74,3 104,2 32,2h51Z"/>
    <path data-fips-int="8105" data-name="Rio Grande County" d="M433,579l-1,59 -85,-1h-5v-44h3v-29h14v14Z"/>
    <path data-fips-int="8107" data-name="Routt County" d="M356,121l2,17 -1,27 1,43 -52,1 -1,-30v-22h-51l3,-55h5l2,-10 8,-6v-63l59,2 -2,7 8,11 16,2 6,13 -9,30 5,20Z"/>
    <path data-fips-int="8109" data-name="Saguache County" d="M437,460l18,23 11,8 17,20 1,9 8,13 2,9 11,5 4,7 6,8 -4,17h-78l-74,-1v-14h-14v-8l-20,-7 -7,-9 -14,2 1,-32 1,-48 41,2h59h23Z"/>
    <path data-fips-int="8113" data-name="San Miguel County" d="M176,506l2,7h8v18l13,3 6,15 -16,22 -18,-14 -15,-1 -15,5 -5,-12 -75,-3v2h-31l1,-46Z"/>
    <path data-fips-int="8115" data-name="Sedgwick County" d="M949,61l-77,2 -2,-42 77,-3Z"/>
    <path data-fips-int="8117" data-name="Summit County" d="M450,248l19,11 -7,11 2,5 -18,21 -14,10 -10,-5h-10l-5,-13v-13l5,1 3,-21 -6,-2 -13,-14 -6,-3 -6,-16v-11l24,2 8,12 14,7 7,20Z"/>
    <path data-fips-int="8119" data-name="Teller County" d="M579,426h-39v-8h-12v-74h39v44h-4l-1,12 18,1Z"/>
    <path data-fips-int="8121" data-name="Washington County" d="M857,116v102l1,47 -46,1 -72,2v-29l-1,-45 30,-1 -1,-14v-60h48Z"/>
    <path data-fips-int="8123" data-name="Weld County" d="M753,105l-73,1 1,89 -106,2h-11l-1,-45v-16h14v-102l-1,-7 64,-2h50l62,-2 1,22 -1,43Z"/>
    <path data-fips-int="8125" data-name="Yuma County" d="M956,260l-29,2 -36,1 -33,2 -1,-47v-102h15l79,-3 3,62Z"/>
    <path data-fips-int="8111" data-name="San Juan County" d="M228,539l4,3 3,20 6,4 -3,29 -65,-2 1,-10 12,-3 3,-9 16,-22 14,-3 -1,-7Z"/>
  </g>
  <path class="mesh" d="M237,704l1,-72 48,1v5h56v-1h5l-1,29 11,6 2,12 14,22M833,702l-1,-18v-89l-1,-2 45,-2 95,-3M831,593h-44v-55l-2,-50 64,-2 24,-1 2,39v53l1,14M576,27l1,7v102h-14v16l1,45 -3,9 -10,5 -33,1v-4h-36v-14l5,-3 2,-18 -7,-8 4,-13h77M564,211h-13M564,197h11M412,301h10l-7,12 1,15 -2,29 -1,7 13,7 -1,6 10,-1 13,10 3,13 -8,20 11,12 -3,19 -14,10 -8,4h-23l-14,-18 -3,-18 -7,-2 2,-30h5l7,-15h-19l-7,-12 -10,-3 3,-10 51,1M963,423l-76,3 -57,1 -16,1 1,-13 -1,-59 146,-6M518,212l1,27 -1,31h-56l7,-11 -19,-11 5,-7 -1,-9 17,-1 8,-9 27,16 13,1M472,646l3,13 -3,5 2,16 -5,18 7,9M347,637l85,1M508,607l5,-5 17,-6 18,5 4,55v51M580,448v45h-14v58l-11,-7 -3,-10 -6,1 -11,18 -5,-6 -13,8 -8,-1 -4,-7 -11,-5 -2,-9 -8,-13 -1,-9 -17,-20 53,2h47M406,464h-59l-41,-2 -1,48 -76,-2 -2,-17 -6,-9h17l2,-62 -117,-3 1,-27 31,-12 13,-19 10,-7 20,-2 8,6 20,-19 16,-11 -1,15 -1,79M564,262h-8l8,-12v-18M30,548h31v-2l75,3 5,12 15,-5 15,1 18,14 -3,9 -12,3 -1,10h-52l-75,-2 -19,23M615,270v74h-48h-39l15,-23 6,-16 -1,-8 6,-4 11,-23M450,248l-13,2 -7,-20 -14,-7 -8,-12 -24,-2v11l6,16 6,3 13,14 6,2 -3,21 -5,-1v13l5,13 -3,3h-25h-43l-47,-1 1,-39v-53l11,-2 52,-1 26,1M739,268l1,10v91l1,18h-45v-44l-81,1M696,387l2,59 -118,2 -1,-22 1,-25 -18,-1 1,-12h4v-44M466,491l-11,-8 -18,-23M443,419l85,-1h12v8h39M294,303l-42,-2 -132,-3 -81,-3M42,246l20,2 44,2v-8l81,2v-22l67,1v-15l14,1 1,-30h36l1,30M479,222l3,-14M358,208l-1,-43 1,-27 -2,-17 5,11h12l4,-6 5,10 13,-1 15,6 13,-1 14,-7 9,3 7,-8v-11l6,-3 7,2 -1,9 6,11 15,16M242,326l15,-5 5,15 9,8 28,1 10,10 -1,4 11,7 7,-2 9,4 6,-10 7,-2 12,10M305,510l-1,32 -18,3 -1,40 2,5 -1,43M238,632v-37l3,-29 -6,-4 -3,-20 -4,-3 8,-17 -6,-4 -1,-10M566,551l4,5 50,-3 40,13 -13,11 -14,25 -1,7 -12,12h-6v10l-8,6 -33,5 -4,7 -17,7M511,579l-5,22 2,6 -36,39h-38l-2,-8 1,-59h78l4,-17 -6,-8M416,27v11l12,16 5,3 19,44v8l7,5M356,121l-1,-13 -5,-20 9,-30 -6,-13 -16,-2 -8,-11 2,-7M528,344h-9v-67l-1,-7M966,482l-56,2 -37,1M785,488h-13M770,446l2,42 -1,16h-14v11l-44,-2 -15,-3v-64h72v-2l45,-1 -1,-15M740,239v29h-1l-71,2h-53h-50l-1,-8 3,-8 8,-1 7,7 8,-6 -7,-1 3,-12 7,-7 13,1 -4,-9h18l3,-13h-17v10h-8v7l-34,2v-21l4,-11 7,-3 106,-2 58,-1 1,45 -65,1h-76l-13,1M814,356v-43l-2,-47 46,-1 33,-2 36,-1 29,-2M363,356l4,-18h5l4,-17 -3,-6 10,-3 1,-8M115,700l6,-9 6,-17v-10l7,-5 7,-19 13,-3 9,-12 3,-24 7,-8 65,2M660,566l39,13 1,16 87,-2M740,268l72,-2M870,21l2,42 -1,18 1,35h-15l-41,3h-48l-1,-14h-14l-1,-17 1,-43 -1,-22M252,301l-4,11 9,3v6M123,417l-1,29 -91,-4M304,542l14,-2 7,9 20,7v8v29h-3v44M272,23v63l-8,6 -2,10h-5l-3,55 -32,-2 -104,-2 -74,-3M221,482v-5l-66,-2 5,13h11l9,7 -4,11 -145,-4M768,119v60l1,14 -30,1M681,195l-1,-89 73,-1M699,579l-1,-69M228,539h-10l1,7 -14,3 -6,-15 -13,-3v-18h-8l-2,-7M528,344v74M422,301l10,5 14,-10 18,-21 -2,-5M951,113l-79,3M872,63l77,-2M254,157h51v22M345,564h14v14l74,1M205,549l-16,22M857,116v102l1,47"/>
  <g class="cities">
    <circle r="7" cx="573" cy="241"/>
    <text x="573" y="241">Denver</text>
    <circle r="7" cx="596" cy="395"/>
    <text x="596" y="395">Colorado Springs</text>
    <circle r="7" cx="559" cy="98"/>
    <text x="559" y="98">Fort Collins</text>
  </g>
</svg>