<?xml version="1.0" encoding="utf-8"?>
<!DOCTYPE svg PUBLIC "-//W3C//DTD SVG 1.1//EN" "http://www.w3.org/Graphics/SVG/1.1/DTD/svg11.dtd">
<svg version="1.1" xmlns="http://www.w3.org/2000/svg" width="350" height="254" viewBox="0 0 350 254">
  <defs>
    <pattern id="pattern-no-results" width="50" height="50" patternUnits="userSpaceOnUse">
      <rect width="50" height="50" fill="#ddd"/>
      <path d="M-5,5L5,-5M-5,55L55,-5M45,55L55,45" stroke-width="10" stroke="#666666"/>
    </pattern>
  </defs>
  <g class="counties" transform="scale(0.1)">
    <path data-fips-int="8001" data-name="Adams County" d="M2585,679l4,157 -298,6 -241,1 70,-18 -12,-32 63,-3 8,-44 -59,1 -27,61 -120,5 0,-74 42,-51 369,-5Z"/>
    <path data-fips-int="8003" data-name="Alamosa County" d="M1790,2026l-13,102 -121,132 -142,0 0,-27 3,-206Z"/>
    <path data-fips-int="8005" data-name="Arapahoe County" d="M2589,836l1,102 -3,0 -432,7 -178,2 -4,-29 40,-32 25,26 12,-69 241,-1Z"/>
    <path data-fips-int="8007" data-name="Archuleta County" d="M1002,2214l6,19 190,-4 15,1 0,104 37,20 3,30 53,90 -477,-11 5,-251Z"/>
    <path data-fips-int="8009" data-name="Baca County" d="M3397,2057l15,388 -496,12 -5,-383 155,-5Z"/>
    <path data-fips-int="8011" data-name="Bent County" d="M3054,1699l12,370 -155,5 -156,4 -5,-370Z"/>
    <path data-fips-int="8013" data-name="Boulder County" d="M1972,533l1,155 -31,29 -12,23 -115,0 0,-12 -126,1 -9,-50 29,-46 0,-1 0,1 0,-1 -15,-74 3,-24Z"/>
    <path data-fips-int="8014" data-name="Broomfield County" d="M2015,688l-42,51 -43,1 12,-23 31,-29 33,-19 0,-1Z"/>
    <path data-fips-int="8015" data-name="Chaffee County" d="M1451,1250l35,67 40,0 55,81 -29,68 42,50 -13,61 -50,35 -33,14 -75,-1 -4,0 -43,-50 -15,-77 -35,-37 20,-75 42,-51 -27,-8 -38,7 -55,-48 -7,-4 12,-36Z"/>
    <path data-fips-int="8017" data-name="Cheyenne County" d="M3362,1224l10,257 -524,18 0,-252 268,-9Z"/>
    <path data-fips-int="8019" data-name="Clear Creek County" d="M1815,839l0,108 -198,1 5,-46 -46,-35 15,-52 71,-12 18,-27 69,47Z"/>
    <path data-fips-int="8021" data-name="Conejos County" d="M1514,2233l0,27 142,0 5,121 -19,70 24,24 -360,-1 -53,-90 -3,-30 -37,-20 0,-104Z"/>
    <path data-fips-int="8023" data-name="Costilla County" d="M1933,2297l0,178 -267,0 -24,-24 19,-70 -5,-121 121,-132 88,-47 53,24Z"/>
    <path data-fips-int="8025" data-name="Crowley County" d="M2697,1560l5,149 -2,56 -51,1 0,35 -97,3 -108,-18 -2,-224Z"/>
    <path data-fips-int="8027" data-name="Custer County" d="M1980,1724l2,204 -69,-56 -43,66 -13,-23 -75,25 -53,-49 -42,-101 -56,-70Z"/>
    <path data-fips-int="8029" data-name="Delta County" d="M842,1470l-407,-9 0,-96 114,-44 22,-42 53,-46 73,-4 40,4 112,-88Z"/>
    <path data-fips-int="8031" data-name="Denver County" d="M2050,843l-12,69 -25,-26 -40,32 -25,0 25,-44 0,-61 120,-5 27,-61 59,-1 -8,44 -63,3 12,32Z"/>
    <path data-fips-int="8033" data-name="Dolores County" d="M661,1998l-23,35 -32,45 -138,0 -306,-10 -63,84 10,-235 104,-4 263,9 20,45 48,-20 57,1Z"/>
    <path data-fips-int="8035" data-name="Douglas County" d="M2155,945l0,260 -170,1 -137,0 75,-139 -3,-26 38,-52 19,-42Z"/>
    <path data-fips-int="8037" data-name="Eagle County" d="M1341,732l23,94 69,63 23,6 -32,111 20,50 -20,13 -81,-3 -315,-6 5,-329 39,1 184,-1Z"/>
    <path data-fips-int="8039" data-name="Elbert County" d="M2587,938l7,417 -157,1 0,-155 -282,4 0,-260Z"/>
    <path data-fips-int="8041" data-name="El Paso County" d="M2155,1205l282,-4 0,155 5,206 -412,6 -2,-77 2,-88 -62,-1 20,-41 -3,-155Z"/>
    <path data-fips-int="8043" data-name="Fremont County" d="M2028,1491l2,77 1,156 -51,0 -349,-4 -34,-26 -66,-82 50,-35 13,-61 -42,-50 296,-3 44,0 -2,29Z"/>
    <path data-fips-int="8045" data-name="Garfield County" d="M1072,732l-39,-1 -5,329 -146,-4 -491,-12 -252,-9 6,-175 226,14 0,-25 283,7 2,-78 231,4 0,-53 53,3 4,-105 126,2Z"/>
    <path data-fips-int="8047" data-name="Gilpin County" d="M1815,740l0,99 -66,-16 -69,-47 9,-47 126,-1Z"/>
    <path data-fips-int="8049" data-name="Grand County" d="M1685,516l12,18 -3,24 15,74 0,1 0,-1 0,1 -29,46 9,50 -9,47 -18,27 -71,12 -15,52 -45,7 -48,-93 -55,-41 -87,-8 -85,-1 -5,-46 5,-202 -8,-61 18,39 42,-6 30,23 138,14 60,-26 18,15 55,-81 17,38Z"/>
    <path data-fips-int="8051" data-name="Gunnison County" d="M887,1123l10,0 8,35 42,46 100,3 31,51 42,25 55,6 40,-42 46,35 7,4 55,48 38,-7 27,8 -42,51 -20,75 35,37 15,77 43,50 4,0 -4,0 -347,-5 -4,166 -264,-7 -8,-59 -24,-32 63,1 7,-219 7,-325 11,-8Z"/>
    <path data-fips-int="8053" data-name="Hinsdale County" d="M1068,1786l-1,113 -65,8 -5,157 10,0 -5,150 -168,-2 1,-130 4,-76 -23,-107 -15,-11 28,-57 -25,-52Z"/>
    <path data-fips-int="8055" data-name="Huerfano County" d="M1982,1928l16,19 171,-12 140,47 -48,43 -43,103 -93,102 -117,18 -75,49 -15,-192 -53,-24 -88,47 13,-102 14,-61 -22,-25 75,-25 13,23 43,-66Z"/>
    <path data-fips-int="8057" data-name="Jackson County" d="M1459,93l0,39 32,41 55,82 63,145 -55,81 -18,-15 -60,26 -138,-14 -30,-23 -42,6 -18,-39 -23,-104 33,-102 -25,-59 -22,10 -49,-32 -2,-35 0,-12Z"/>
    <path data-fips-int="8059" data-name="Jefferson County" d="M1973,739l0,74 0,61 -25,44 25,0 4,29 -19,42 -38,52 3,26 -75,139 -31,0 -2,-259 0,-108 0,-99 115,0Z"/>
    <path data-fips-int="8061" data-name="Kiowa County" d="M3372,1481l10,206 -328,12 -304,9 -48,1 -5,-149 153,-9 -2,-52Z"/>
    <path data-fips-int="8063" data-name="Kit Carson County" d="M3362,1224l-246,14 -268,9 -5,-315 161,-5 345,-15Z"/>
    <path data-fips-int="8065" data-name="Lake County" d="M1424,1069l20,-13 34,0 -22,41 3,104 -8,49 -178,-4 5,-57 23,-3 7,-81 35,-39Z"/>
    <path data-fips-int="8067" data-name="La Plata County" d="M835,2082l-1,130 -5,251 -426,-11 67,-146 0,-1 0,1 0,-1 26,-63 43,-13 10,-27 25,-19 9,-78 21,-23 2,-4Z"/>
    <path data-fips-int="8069" data-name="Larimer County" d="M1972,533l-275,1 -12,-18 -59,-78 -17,-38 -63,-145 -55,-82 -32,-41 0,-39 559,0 2,388 -50,0Z"/>
    <path data-fips-int="8071" data-name="Las Animas County" d="M2755,2078l156,-4 5,383 -657,17 -326,1 0,-178 75,-49 117,-18 93,-102 43,-103 48,-43 137,49 3,53Z"/>
    <path data-fips-int="8073" data-name="Lincoln County" d="M2843,932l5,315 0,252 2,52 -153,9 -255,2 -5,-206 157,-1 -7,-417 3,0Z"/>
    <path data-fips-int="8075" data-name="Logan County" d="M3051,222l0,185 -52,2 -309,10 -3,-52 -52,1 -3,-284 414,-13Z"/>
    <path data-fips-int="8077" data-name="Mesa County" d="M882,1056l-10,38 32,17 -7,12 -10,0 -27,14 -11,8 -112,88 -40,-4 -73,4 -53,46 -22,42 -114,44 0,96 -4,99 -316,-11 24,-514 252,9Z"/>
    <path data-fips-int="8079" data-name="Mineral County" d="M1210,1973l-10,101 -2,155 -190,4 -6,-19 5,-150 -10,0 5,-157 65,-8 50,-6 21,29 72,26Z"/>
    <path data-fips-int="8081" data-name="Moffat County" d="M954,85l-4,240 -53,33 -10,189 -309,-6 -421,-14 18,-463 270,10Z"/>
    <path data-fips-int="8083" data-name="Montezuma County" d="M606,2078l-2,4 -21,23 -9,78 -25,19 -10,27 -43,13 -26,63 0,1 0,-1 0,1 -67,146 -316,-11 12,-289 63,-84 306,10Z"/>
    <path data-fips-int="8085" data-name="Montrose County" d="M842,1470l-7,219 -63,-1 0,-18 -229,-6 20,45 65,20 -10,43 -503,-17 -5,-85 5,-121 316,11 4,-99Z"/>
    <path data-fips-int="8087" data-name="Morgan County" d="M2635,368l52,-1 3,52 0,258 -105,2 -201,4 -3,-312Z"/>
    <path data-fips-int="8089" data-name="Otero County" d="M2750,1708l5,370 -306,6 -3,-53 -2,-245 108,18 97,-3 0,-35 51,-1 2,-56Z"/>
    <path data-fips-int="8091" data-name="Ouray County" d="M772,1688l24,32 8,59 25,52 -28,57 -80,34 -25,-50 -43,-13 0,-64 -35,-23 10,-43 -65,-20 -20,-45 229,6Z"/>
    <path data-fips-int="8093" data-name="Park County" d="M1815,947l2,259 31,0 0,257 -296,3 29,-68 -55,-81 -40,0 -35,-67 8,-49 -3,-104 22,-41 36,14 48,-33 60,-70 -5,-19Z"/>
    <path data-fips-int="8095" data-name="Phillips County" d="M3322,213l7,184 -278,10 0,-185Z"/>
    <path data-fips-int="8097" data-name="Pitkin County" d="M1343,1066l-35,39 -7,81 -23,3 -5,57 -12,36 -46,-35 -40,42 -55,-6 -42,-25 -31,-51 -100,-3 -42,-46 -8,-35 7,-12 -32,-17 10,-38 146,4Z"/>
    <path data-fips-int="8099" data-name="Prowers County" d="M3382,1687l15,370 -331,12 -12,-370Z"/>
    <path data-fips-int="8101" data-name="Pueblo County" d="M2442,1562l2,224 2,245 -137,-49 -140,-47 -171,12 -16,-19 -2,-204 51,0 -1,-156Z"/>
    <path data-fips-int="8103" data-name="Rio Blanco County" d="M1070,629l-126,-2 -4,105 -53,-3 0,53 -231,-4 -2,78 -283,-7 0,25 -226,-14 12,-333 421,14 309,6 185,2Z"/>
    <path data-fips-int="8105" data-name="Rio Grande County" d="M1517,2027l-3,206 -301,-3 -15,-1 2,-155 10,-101 50,1 0,52Z"/>
    <path data-fips-int="8107" data-name="Routt County" d="M1160,100l2,35 49,32 22,-10 25,59 -33,102 23,104 8,61 -5,202 5,46 -184,1 -2,-103 2,-80 -185,-2 10,-189 53,-33 4,-240 206,3Z"/>
    <path data-fips-int="8109" data-name="Saguache County" d="M1531,1612l66,82 34,26 56,70 42,101 53,49 22,25 -14,61 -273,1 -257,-1 0,-52 -50,-1 0,-25 -72,-26 -21,-29 -50,6 1,-113 4,-166 347,5 4,0 75,1Z"/>
    <path data-fips-int="8113" data-name="San Miguel County" d="M618,1772l35,23 0,64 43,13 25,50 -60,76 -60,-50 -57,-1 -48,20 -20,-45 -263,-9 -104,4 6,-162Z"/>
    <path data-fips-int="8115" data-name="Sedgwick County" d="M3322,213l-271,9 -5,-151 270,-8Z"/>
    <path data-fips-int="8117" data-name="Summit County" d="M1576,867l46,35 -5,46 5,19 -60,70 -48,33 -36,-14 -34,0 -20,-50 32,-111 -23,-6 -69,-63 -23,-94 87,8 55,41 48,93Z"/>
    <path data-fips-int="8119" data-name="Teller County" d="M2028,1491l-138,1 2,-29 -44,0 0,-257 137,0 3,155 -20,41 62,1Z"/>
    <path data-fips-int="8121" data-name="Washington County" d="M2999,409l-4,52 6,207 -5,0 8,259 -161,5 -253,6 -1,-102 -4,-157 105,-2 0,-258Z"/>
    <path data-fips-int="8123" data-name="Weld County" d="M2635,368l-254,3 3,312 -369,5 -9,-20 0,1 -33,19 -1,-155 -2,-52 50,0 -2,-388 614,-9Z"/>
    <path data-fips-int="8125" data-name="Yuma County" d="M3349,912l-345,15 -8,-259 5,0 -6,-207 4,-52 52,-2 278,-10Z"/>
    <path data-fips-int="8111" data-name="San Juan County" d="M801,1888l15,11 23,107 -4,76 -229,-4 32,-45 23,-35 60,-76Z"/>
  </g>
  <g class="cities">
    <circle r="3" cx="200.5" cy="84.3"/>
    <text x="200.5" y="84.3">Denver</text>
    <circle r="3" cx="208.3" cy="138.2"/>
    <text x="208.3" y="138.2">Colorado Springs</text>
    <circle r="3" cx="207.5" cy="84.9"/>
    <text x="207.5" y="84.9">Aurora</text>
  </g>
</svg>