<?xml version="1.0" encoding="utf-8"?>
<!DOCTYPE svg PUBLIC "-//W3C//DTD SVG 1.1//EN" "http://www.w3.org/Graphics/SVG/1.1/DTD/svg11.dtd">
<svg version="1.1" xmlns="http://www.w3.org/2000/svg" width="350" height="255" viewBox="0 0 350 255">
  <path class="state" transform="scale(0.1)" d="M2316,1499l2,53 13,27 51,7 24,39 -22,24 15,48 28,-5 27,38 -10,71 12,20 -30,3 -7,21 48,7 -58,9 -18,12 -19,-38 -96,-4 -20,23 -35,-4 -38,32 -18,-32 -47,17 5,9 13,9 -13,15 -60,-52 -62,-1 -74,15 -10,-13 -35,30 -7,23 -33,10 8,-28 -23,-14 -25,14 -35,-7 -10,-23 -52,8 -54,42 -14,-39 -15,36 -10,-24 -16,22 -50,15 -42,-15 18,-24 -21,-25 8,-70 -23,11 -32,59 20,5 -23,23 -47,17 -21,39 -20,-4 -30,32 -18,38 -40,5 -14,-19 -65,42 -38,45 -25,-34 22,-32v-70l-12,14 5,58 -20,30 4,34 21,12 7,35 -43,11 -74,-28 19,-15 -32,-5 -81,57 -14,-5 -13,39 -33,23 -42,-25 -40,31 -36,11 -24,-10 -16,27 -42,-19 18,34 -20,-1 -29,30 -17,-34 -3,59 -19,-8 -26,21v23l-42,10 -20,-17 -20,48 -23,-22 -60,67 -5,-34 -20,-1 -57,63 7,-26 -38,11 7,-64 -15,52 -49,35 -26,-14 -24,41 4,-51 -125,-205 72,-44 252,-148 100,-61 -116,-189 35,-456 11,-131 19,-260 54,-762 5,-114h107l632,28 73,2 331,6 -6,88 84,-10 27,-62 -8,-14 113,-2 138,14 1,13h44l15,-12 108,-10 263,4 351,1 76,4 72,3h158l109,4h170l7,52 1,124 7,184 10,192 10,324 -5,285 -7,226 -33,-8 -43,22 2,44 21,26 -15,37 17,51 -55,43 -37,-53 -21,27 -25,4 -2,-27 -18,36 -28,-21 -27,11 -30,-37 -18,31 -14,47 -23,-9 -3,29 -24,-17v-31l-18,36 -43,-26 -22,18 -25,-30 -23,-180v-50l-12,82 20,72 -15,63 17,28 -7,26 -31,28 -57,-8 -18,-26 -15,22 -23,-40 -25,-1 -22,37 3,43 -13,6 -23,-32h-43l-25,40 -108,11 -32,-53 7,-63 -39,-32 -21,-47 -5,-52 -50,-10 -20,-18 -20,-58"/>
  <g class="counties" transform="scale(0.1)">
    <path data-fips-int="9003" data-name="Hartford County" d="M2178,105l28,199 -35,5 -8,201 36,-7 -16,115 53,-8 18,146 30,176 32,22 35,72 -2,66 -12,26 -84,15 -67,-144 -213,32 5,-16 -148,29v53l-66,28 1,31 -83,13 -31,43 -14,-37 -36,7 8,52 -42,-9 -21,-34 -112,15 20,-127 -8,-72 -75,9 -55,-362 115,-18 22,-77 -24,-7 -6,-25 23,-94 40,-3 51,-174 -242,13 36,-165 331,6 -6,88 84,-10 27,-62 -8,-14 113,-2 138,14 1,13h44l15,-12Z"/>
    <path data-fips-int="9005" data-name="Litchfield County" d="M1331,94l-36,165 242,-13 -51,174 -40,3 -23,94 6,25 24,7 -22,77 -115,18 55,362 -35,26 -31,3 6,29 -30,-2 -38,18 2,41 -44,6 -16,37 -90,29 -35,1 15,98 -86,12 -74,-10 -121,19 -12,43 27,38 -23,-1 -89,-53v-20l-25,-29 -86,51 -5,-72 -17,-57 -69,-206 21,-23 -16,-32 -40,-12 54,-762 5,-114h107l632,28Z"/>
    <path data-fips-int="9009" data-name="New Haven County" d="M1765,1146l15,219 17,-5 -8,106 -14,36 157,-34 21,18 -11,28 30,13 33,58 8,38 -12,90 40,17 17,44 65,67 -5,26 5,9 13,9 -13,15 -60,-52 -62,-1 -74,15 -10,-13 -35,30 -7,23 -33,10 8,-28 -23,-14 -25,14 -35,-7 -10,-23 -52,8 -54,42 -14,-39 -15,36 -10,-24 -16,22 -50,15 -42,-15 18,-24 -21,-25 8,-70 -23,11 -32,59 20,5 -23,23 -47,17 -21,39 -20,-4 -30,32 -18,38 -40,5 -14,-19 -65,42 -38,45 -25,-34 22,-32v-70l36,-49 5,-64 34,-37 -25,-32 -62,-45 -18,-35 -57,-74 -48,-39 3,-25 -54,-51 -37,6 -13,-30 -19,13 -31,-44 -40,10 3,-38 -23,-9 -27,-38 12,-43 121,-19 74,10 86,-12 -15,-98 35,-1 90,-29 16,-37 44,-6 -2,-41 38,-18 30,2 -6,-29 31,-3 35,-26 75,-9 8,72 -20,127 112,-15 21,34 42,9 -8,-52 36,-7 14,37 31,-43Z"/>
    <path data-fips-int="9013" data-name="Tolland County" d="M2868,114l7,160h-162l-38,3v281h90l15,186 -52,2 -18,56 -93,1 23,31 -43,51 -17,3 10,44 -16,-1 -44,41 -51,25 17,57 -5,30 -49,18 -35,-10 -15,29 -43,-29 2,-66 -35,-72 -32,-22 -30,-176 -18,-146 -53,8 16,-115 -36,7 8,-201 35,-5 -28,-199 263,4 351,1Z"/>
    <path data-fips-int="9015" data-name="Windham County" d="M3412,997l-120,-9 -156,24 -45,-7 -248,-53 -56,-7 -7,16 -52,-41 -88,-86 -23,-31 93,-1 18,-56 52,-2 -15,-186h-90v-281l38,-3h162l-7,-160 72,3h158l109,4h170l7,52 1,124 7,184 10,192Z"/>
    <path data-fips-int="9001" data-name="Fairfield County" d="M809,1394l23,9 -3,38 40,-10 31,44 19,-13 13,30 37,-6 54,51 -3,25 48,39 57,74 18,35 62,45 25,32 -34,37 -5,64 -36,49 -12,14 5,58 -20,30 4,34 21,12 7,35 -43,11 -74,-28 19,-15 -32,-5 -81,57 -14,-5 -13,39 -33,23 -42,-25 -40,31 -36,11 -24,-10 -16,27 -42,-19 18,34 -20,-1 -29,30 -17,-34 -3,59 -19,-8 -26,21v23l-42,10 -20,-17 -20,48 -23,-22 -60,67 -5,-34 -20,-1 -57,63 7,-26 -38,11 7,-64 -15,52 -49,35 -26,-14 -24,41 4,-51 -125,-205 72,-44 252,-148 100,-61 -116,-189 35,-456 11,-131 19,-260 40,12 16,32 -21,23 69,206 17,57 5,72 86,-51 25,29v20l89,53Z"/>
    <path data-fips-int="9007" data-name="Middlesex County" d="M2253,1133l63,136 183,-23v36l20,92 11,95 -206,31 -8,-1 2,53 13,27 51,7 24,39 -22,24 15,48 28,-5 27,38 -10,71 12,20 -30,3 -7,21 48,7 -58,9 -18,12 -19,-38 -96,-4 -20,23 -35,-4 -38,32 -18,-32 -47,17 5,-26 -65,-67 -17,-44 -40,-17 12,-90 -8,-38 -33,-58 -30,-13 11,-28 -21,-18 -157,34 14,-36 8,-106 -17,5 -15,-219 -1,-31 66,-28v-53l148,-29 -5,16 213,-32Z"/>
    <path data-fips-int="9011" data-name="New London County" d="M3412,997l-5,285 -7,226 -33,-8 -43,22 2,44 21,26 -15,37 17,51 -55,43 -37,-53 -21,27 -25,4 -2,-27 -18,36 -28,-21 -27,11 -30,-37 -18,31 -14,47 -23,-9 -3,29 -24,-17v-31l-18,36 -43,-26 -22,18 -25,-30 -23,-180v-50l-12,82 20,72 -15,63 17,28 -7,26 -31,28 -57,-8 -18,-26 -15,22 -23,-40 -25,-1 -22,37 3,43 -13,6 -23,-32h-43l-25,40 -108,11 -32,-53 7,-63 -39,-32 -21,-47 -5,-52 -50,-10 -20,-18 -20,-58 8,1 206,-31 -11,-95 -20,-92v-36l-183,23 -63,-136 84,-15 12,-26 43,29 15,-29 35,10 49,-18 5,-30 -17,-57 51,-25 44,-41 16,1 -10,-44 17,-3 43,-51 88,86 52,41 7,-16 56,7 248,53 45,7 156,-24Z"/>
  </g>
  <path class="mesh" transform="scale(0.1)" d="M2178,105l28,199 -35,5 -8,201 36,-7 -16,115 53,-8 18,146 30,176 32,22 35,72 -2,66 -12,26 -84,15 -67,-144 -213,32 5,-16 -148,29v53l-66,28 1,31 -83,13 -31,43 -14,-37 -36,7 8,52 -42,-9 -21,-34 -112,15 20,-127 -8,-72 -75,9 -55,-362 115,-18 22,-77 -24,-7 -6,-25 23,-94 40,-3 51,-174 -242,13 36,-165M1371,1006l-35,26 -31,3 6,29 -30,-2 -38,18 2,41 -44,6 -16,37 -90,29 -35,1 15,98 -86,12 -74,-10 -121,19 -12,43 27,38 -23,-1 -89,-53v-20l-25,-29 -86,51 -5,-72 -17,-57 -69,-206 21,-23 -16,-32 -40,-12M1765,1146l15,219 17,-5 -8,106 -14,36 157,-34 21,18 -11,28 30,13 33,58 8,38 -12,90 40,17 17,44 65,67 -5,26M1155,1937l36,-49 5,-64 34,-37 -25,-32 -62,-45 -18,-35 -57,-74 -48,-39 3,-25 -54,-51 -37,6 -13,-30 -19,13 -31,-44 -40,10 3,-38 -23,-9M2868,114l7,160h-162l-38,3v281h90l15,186 -52,2 -18,56 -93,1 23,31 -43,51 -17,3 10,44 -16,-1 -44,41 -51,25 17,57 -5,30 -49,18 -35,-10 -15,29 -43,-29M3412,997l-120,-9 -156,24 -45,-7 -248,-53 -56,-7 -7,16 -52,-41 -88,-86M2253,1133l63,136 183,-23v36l20,92 11,95 -206,31 -8,-1"/>
  <g class="cities">
    <circle r="3" cx="98.7" cy="208.5"/>
    <text x="98.7" y="208.5">Bridgeport</text>
    <circle r="3" cx="146.5" cy="176.5"/>
    <text x="146.5" y="176.5">New Haven</text>
    <circle r="3" cx="188.1" cy="72.5"/>
    <text x="188.1" y="72.5">Hartford</text>
  </g>
</svg>