<?xml version="1.0" encoding="utf-8"?>
<!DOCTYPE svg PUBLIC "-//W3C//DTD SVG 1.1//EN" "http://www.w3.org/Graphics/SVG/1.1/DTD/svg11.dtd">
<svg version="1.1" xmlns="http://www.w3.org/2000/svg" width="350" height="255" viewBox="0 0 350 255">
  <g class="counties" transform="scale(0.1)">
    <path data-fips-int="9003" data-name="Hartford County" d="M2178,106l28,197 -34,5 -3,90 -5,112 35,-7 -17,115 53,-8 20,145 14,87 4,29 12,61 32,22 23,52 2,10 8,10 1,18 -2,48 -11,26 -63,12 -22,3 -13,-25 -13,-30 -40,-88 -46,7 -167,24 4,-15 -82,16 -65,12 -3,12 7,9 -7,29 2,4 -26,6 -3,13 -37,8 2,31 -49,7 -35,6 -7,15 -24,28 -12,-4 1,-19 -7,4 4,-19 -36,8 8,52 -41,-10 -3,-12 -8,-12 -17,-10 -34,5 -72,11 22,-114 -9,-86 -36,5 -12,3 -28,2 -4,-22 -9,-62 -20,-130 -11,-70 -12,-78 116,-18 21,-78 -11,-6 -14,1 -4,-13 0,-13 11,-40 11,-54 43,-4 27,-97 22,-77 -93,5 -21,1 -80,4 -48,5 15,-77 21,-88 64,1 185,2 25,2 56,1 -5,88 2,1 83,-13 1,-10 8,-5 -3,-7 6,-9 -10,-7 8,-6 5,3 10,-21 -10,-7 3,-7 102,-1 31,3 59,7 60,4 1,13 40,1 19,-13 75,-10Z"/>
    <path data-fips-int="9005" data-name="Litchfield County" d="M1331,95l-21,88 -15,77 48,-5 80,-4 21,-1 93,-5 -22,77 -27,97 -43,4 -11,54 -11,40 0,13 4,13 14,-1 11,6 -21,78 -116,18 12,78 11,70 20,130 9,62 4,22 -35,26 -30,3 5,30 -31,-3 -36,19 -5,13 4,29 -41,3 -18,38 -59,20 -31,8 -33,2 14,87 0,11 -82,12 -65,-10 -11,1 -90,13 -29,3 -15,25 3,7 -3,13 10,18 18,20 -7,3 -18,-4 -25,-17 -32,-13 -13,-11 -8,-2 -10,-10 0,-20 -18,-11 0,-21 -26,13 -26,16 -23,9 -18,15 -5,-40 3,-12 -5,-24 -14,-42 -1,-10 -42,-122 -14,-39 -15,-45 1,-12 10,-8 10,-3 -9,-13 -7,-19 -6,6 -12,-9 -3,-7 -19,-3 3,-52 5,-55 6,-103 19,-250 6,-62 3,-60 8,-103 7,-112 3,-76 83,-2 106,4 85,3 163,9 138,5 164,7Z"/>
    <path data-fips-int="9009" data-name="New Haven County" d="M1766,1146l4,72 11,146 16,-5 -7,78 -2,30 -12,34 109,-24 7,0 39,-10 5,8 6,-2 11,16 -12,20 8,9 22,10 5,22 7,5 0,6 22,25 -3,7 11,29 -2,15 -5,2 -1,27 2,16 -6,29 6,8 19,4 5,-6 11,14 8,-4 0,15 -5,5 7,20 26,23 26,36 10,-2 8,16 -3,7 -1,20 5,8 13,10 -1,9 -11,6 -47,-45 -14,-7 -9,0 -23,6 -30,-7 -19,2 -16,9 -24,5 -15,0 -11,-15 -7,12 -5,-1 -10,8 0,18 -12,-5 -7,22 -9,6 -24,4 -12,-9 20,-18 -6,-11 -12,11 -9,-4 4,-12 -25,16 -10,-4 -4,-12 -14,9 -7,-1 -3,-16 -6,-6 -12,2 -15,9 -10,-4 -14,0 -9,12 -6,-1 -19,10 -10,16 -12,4 0,-15 -8,-5 11,-9 5,6 10,-9 -6,-8 -16,8 -10,-6 -15,36 -9,-6 0,-15 -15,1 0,17 -16,10 -31,3 -6,3 -11,-5 -13,4 -17,-14 3,-8 15,-11 0,-6 -9,-15 -11,-9 4,-16 -6,-12 2,-24 11,-15 -11,-6 -1,8 -17,9 -19,32 -18,0 3,18 4,6 19,2 1,3 -23,23 -32,9 -15,8 -15,31 -6,8 -20,-4 -9,26 -21,6 -8,26 -11,13 -8,-1 -6,-6 -18,2 -7,9 -14,-19 -5,-1 -18,10 -10,18 -13,4 -18,11 -12,13 -15,24 -11,8 -18,-8 -8,-8 2,-20 13,-8 7,-23 -3,-14 5,-22 -3,-32 11,-19 19,-15 6,-12 -2,-46 8,-22 22,-13 10,-16 -4,-16 -13,-10 -6,-14 -13,-7 -12,-14 -36,-25 -14,-23 -5,-11 -17,-10 -4,-7 -2,-17 -20,-20 -13,-20 1,-9 -23,-1 -20,-18 -9,-16 5,-9 -3,-17 -17,-4 -35,-41 -14,-3 -19,9 -9,-8 0,-17 -6,-5 -22,13 -11,-7 -3,-16 -13,-20 -18,2 -12,8 -10,-1 -4,-17 4,-20 -4,-12 -6,-3 -10,5 -18,-20 -10,-18 3,-13 -3,-7 15,-25 29,-3 90,-13 11,-1 65,10 82,-12 0,-11 -14,-87 33,-2 31,-8 59,-20 18,-38 41,-3 -4,-29 5,-13 36,-19 31,3 -5,-30 30,-3 35,-26 28,-2 12,-3 36,-5 9,86 -22,114 72,-11 34,-5 17,10 8,12 3,12 41,10 -8,-52 36,-8 -4,19 7,-4 -1,19 12,4 24,-28 7,-15 35,-6Z"/>
    <path data-fips-int="9013" data-name="Tolland County" d="M2869,114l3,99 3,61 -123,-1 -39,1 -39,3 1,80 0,139 0,62 90,0 1,14 14,171 -13,9 -7,-6 -6,9 -16,-17 -10,2 2,6 -5,13 -9,10 -2,14 8,11 -15,8 -90,0 -1,7 10,4 4,14 10,7 -14,12 6,6 -12,6 -1,11 -6,-3 -10,6 -9,15 -12,-5 -2,5 9,12 6,19 -4,15 -18,-2 -42,41 -52,24 8,32 9,25 -6,30 -26,15 -22,3 -8,-7 -18,3 -8,-4 -4,12 -4,1 -7,15 -27,-13 -17,-16 2,-48 -1,-18 -8,-10 -2,-10 -23,-52 -32,-22 -12,-61 -4,-29 -14,-87 -20,-145 -53,8 17,-115 -35,7 5,-112 3,-90 34,-5 -28,-197 105,0 135,2 49,1 51,1 120,0 163,1Z"/>
    <path data-fips-int="9015" data-name="Windham County" d="M3412,997l-120,-8 -46,7 -115,16 -38,-7 -165,-34 -67,-15 -74,-12 -7,18 -50,-42 -40,-39 -12,-10 -38,-37 -10,-7 -4,-14 -10,-4 1,-7 90,0 15,-8 -8,-11 2,-14 9,-10 5,-13 -2,-6 10,-2 16,17 6,-9 7,6 13,-9 -14,-171 -1,-14 -90,0 0,-62 0,-139 -1,-80 39,-3 39,-1 123,1 -3,-61 -3,-99 53,2 148,0 156,5 115,0 39,0 3,36 1,43 3,134 3,72 0,16 4,75 3,90 3,48 3,97 3,56 1,57 5,108Z"/>
    <path data-fips-int="9001" data-name="Fairfield County" d="M614,2356l-6,-1 14,-16 8,8ZM811,1394l10,-5 6,3 4,12 -4,20 4,17 10,1 12,-8 18,-2 13,20 3,16 11,7 22,-13 6,5 0,17 9,8 19,-9 14,3 35,41 17,4 3,17 -5,9 9,16 20,18 23,1 -1,9 13,20 20,20 2,17 4,7 17,10 5,11 14,23 36,25 12,14 13,7 6,14 13,10 4,16 -10,16 -22,13 -8,22 2,46 -6,12 -19,15 -11,19 -11,13 4,16 -1,23 3,19 -18,24 -6,19 1,14 5,7 11,2 11,11 0,23 12,6 -4,6 -23,0 -22,10 -15,-4 -41,-20 -17,-4 6,-7 9,-1 3,7 8,0 -6,-15 -22,-5 -6,-9 -9,-6 -2,6 6,10 -8,6 -4,12 -17,0 -24,14 -9,12 -3,-12 -6,3 -11,22 -13,-5 -9,22 -4,16 -17,7 -17,17 -24,-10 -3,-7 -14,-7 -22,7 0,11 -18,12 -4,-4 -14,3 -18,11 -24,-10 -4,14 -11,14 -17,-7 -13,-10 0,-13 -12,11 -3,8 11,14 8,1 1,11 -19,-1 -9,4 -21,27 -10,-11 1,-8 -9,-15 -12,5 5,7 -2,12 5,11 1,22 -8,2 -9,-9 -10,5 -3,17 -9,4 -5,-5 0,23 -9,1 -15,-6 -18,14 -9,-2 6,-7 -6,-8 -10,0 4,10 -6,16 -11,15 0,10 -8,0 -6,-19 -12,11 -1,-11 -9,-4 -14,13 -1,11 -9,-6 -13,-2 -6,3 0,13 9,7 -10,21 -11,6 -2,-25 -7,-11 -17,1 -1,15 -6,9 -7,-6 -10,17 -16,12 -3,25 -31,1 0,-11 6,-6 11,7 7,-8 0,-18 -8,-4 -20,16 -10,-1 0,-13 4,-11 -1,-20 7,-19 -5,1 -5,18 -11,15 3,17 -13,11 -16,9 -14,-5 0,11 -4,9 -8,-6 -10,4 -10,-13 -6,18 -17,24 -5,-10 -1,-14 8,-27 -65,-108 -43,-73 -15,-25 55,-32 75,-46 91,-53 58,-35 45,-26 46,-28 54,-31 -70,-117 -45,-73 3,-25 -1,-28 12,-127 4,-69 6,-56 4,-39 1,-34 12,-167 3,-22 4,-64 9,-110 2,-42 4,-65 19,3 3,7 12,9 6,-6 7,19 9,13 -10,3 -10,8 -1,12 15,45 14,39 42,122 1,10 14,42 5,24 -3,12 5,40 18,-15 23,-9 26,-16 26,-13 0,21 18,11 0,20 10,10 8,2 13,11 32,13 25,17 18,4Z"/>
    <path data-fips-int="9007" data-name="Middlesex County" d="M2136,1885l-13,-10 23,-16 10,-4 0,8 -20,13ZM2424,1672l-5,5 -7,-17ZM2253,1133l26,58 36,78 73,-9 59,-9 52,-5 0,37 14,91 5,0 13,95 -208,30 -7,0 -10,-1 14,27 -2,27 12,27 52,8 15,20 9,18 -2,17 -4,8 -4,-25 -4,-2 -3,21 -5,5 13,9 0,18 -10,-4 12,24 12,-14 16,10 11,15 7,19 9,4 1,8 -11,63 -15,-5 -1,16 10,1 10,-7 8,7 -1,8 -10,5 -19,-2 -8,13 0,9 19,-2 6,-4 19,-4 7,10 -1,6 -24,0 -20,12 -15,-2 -19,11 -18,-38 -9,-4 -25,2 -12,8 -19,-9 -21,-3 -9,2 -16,10 -5,13 -35,-4 -26,14 -12,18 -16,-4 -3,-28 -26,5 -20,12 1,-20 3,-7 -8,-16 -10,2 -26,-36 -26,-23 -7,-20 5,-5 0,-15 -8,4 -11,-14 -5,6 -19,-4 -6,-8 6,-29 -2,-16 1,-27 5,-2 2,-15 -11,-29 3,-7 -22,-25 0,-6 -7,-5 -5,-22 -22,-10 -8,-9 12,-20 -11,-16 -6,2 -5,-8 -39,10 -7,0 -109,24 12,-34 2,-30 7,-78 -16,5 -11,-146 -4,-72 -2,-31 37,-8 3,-13 26,-6 -2,-4 7,-29 -7,-9 3,-12 65,-12 82,-16 -4,15 167,-24 46,-7 40,88 13,30Z"/>
    <path data-fips-int="9011" data-name="New London County" d="M3121,1683l-4,33 -6,11 -5,0 -9,-15 0,-9 8,-20ZM3412,997l-1,52 -3,128 -2,127 -2,71 -3,58 0,74 -17,1 -9,-6 -15,0 -6,8 -16,9 -14,3 0,11 4,10 -2,22 11,4 3,7 -2,12 8,5 -5,24 -8,11 -1,10 6,15 7,6 4,19 -6,8 -20,18 -7,2 -12,13 -10,5 -4,-10 -9,-3 0,-13 -6,-6 -13,-3 -4,-19 -19,20 -4,7 -11,0 -4,16 -10,-11 -2,-28 -5,-8 -11,4 -1,7 9,2 -3,25 -5,6 -11,-10 -7,0 -13,-11 -26,11 5,-10 -3,-7 -10,7 -4,-6 0,-15 -15,-7 -9,6 0,8 -11,17 -13,49 -7,-15 -17,5 -3,29 -10,1 -1,-11 -12,-8 8,-9 -9,-21 -7,0 3,17 -12,11 -2,7 -10,-1 -12,-13 13,-22 3,-13 -4,-2 -8,14 -13,15 -12,-2 -13,12 -2,7 -7,-2 -15,-14 -8,-16 0,-13 -5,-17 1,-17 -4,-12 -1,-30 -6,-21 2,-21 -10,-31 -2,-18 10,-16 -10,-34 9,-18 -15,-2 2,10 -8,19 5,6 2,24 -3,4 0,17 -4,15 8,17 -3,13 1,19 6,22 9,9 -3,17 -7,11 6,14 -11,19 16,29 -7,27 -12,14 -13,6 -6,7 -10,-4 -30,3 -17,-7 -7,-17 -12,-9 -14,5 4,14 -4,2 -15,-10 -2,-18 -6,-11 -12,-4 -12,3 -18,17 -4,21 3,28 -4,20 -11,0 -5,-15 -9,-1 -8,-16 -12,8 -7,-10 -10,0 -19,7 2,6 -4,14 -11,12 -8,3 -10,-4 -12,0 -14,7 -18,1 -7,4 -15,-1 -7,4 -17,-2 -7,3 -17,-15 -15,-39 2,-44 5,-19 -3,-5 -17,-11 -3,-7 -15,-8 -11,-26 -10,-10 -2,-12 10,-27 -12,-12 -2,-14 -6,-4 -22,-5 -22,0 -12,-7 -8,-10 -4,-19 2,-5 -18,-35 7,0 208,-30 -13,-95 -5,0 -14,-91 0,-37 -52,5 -59,9 -73,9 -36,-78 -26,-58 22,-3 63,-12 11,-26 17,16 27,13 7,-15 4,-1 4,-12 8,4 18,-3 8,7 22,-3 26,-15 6,-30 -9,-25 -8,-32 52,-24 42,-41 18,2 4,-15 -6,-19 -9,-12 2,-5 12,5 9,-15 10,-6 6,3 1,-11 12,-6 -6,-6 14,-12 38,37 12,10 40,39 50,42 7,-18 74,12 67,15 165,34 38,7 115,-16 46,-7Z"/>
  </g>
  <g class="cities">
    <circle r="3" cx="98.8" cy="208.5"/>
    <text x="98.8" y="208.5">Bridgeport</text>
    <circle r="3" cx="146.4" cy="176.4"/>
    <text x="146.4" y="176.4">New Haven</text>
    <circle r="3" cx="188.1" cy="72.4"/>
    <text x="188.1" y="72.4">Hartford</text>
  </g>
</svg>