<?xml version="1.0" encoding="utf-8"?>
<!DOCTYPE svg PUBLIC "-//W3C//DTD SVG 1.1//EN" "http://www.w3.org/Graphics/SVG/1.1/DTD/svg11.dtd">
<svg version="1.1" xmlns="http://www.w3.org/2000/svg" width="350" height="255" viewBox="0 0 350 255">
  <defs>
    <pattern id="pattern-no-results" width="50" height="50" patternUnits="userSpaceOnUse">
      <rect width="50" height="50" fill="#ddd"/>
      <path d="M-5,5L5,-5M-5,55L55,-5M45,55L55,45" stroke-width="10" stroke="#666666"/>
    </pattern>
  </defs>
  <g class="counties" transform="scale(0.1)">
    <path data-fips-int="9003" data-name="Hartford County" d="M2178,105l28,199 -35,5 -8,201 36,-7 -16,115 53,-8 18,146 30,176 32,22 35,72 -2,66 -12,26 -84,15 -67,-144 -213,32 5,-16 -148,29 0,53 -66,28 1,31 -85,13 -31,43 -12,-37 -36,7 8,52 -42,-9 -21,-34 -112,15 22,-127 -8,-72 -77,9 -55,-362 115,-18 20,-77 -28,-32 23,-94 42,-3 49,-174 -242,13 36,-165 331,6 -6,88 84,-10 19,-76 113,-2 138,14 1,13Z"/>
    <path data-fips-int="9005" data-name="Litchfield County" d="M1331,94l-36,165 242,-13 -49,174 -42,3 -23,94 28,32 -20,77 -115,18 55,362 -65,29 5,29 -68,16 2,41 -44,6 -16,37 -125,30 15,98 -81,12 -79,-10 -123,19 -10,43 29,38 -27,0 -87,-54 -25,-49 -86,51 -5,-72 -86,-263 21,-23 -16,-32 -40,-12 54,-762 5,-114 107,0 632,28Z"/>
    <path data-fips-int="9009" data-name="New Haven County" d="M1765,1146l15,219 17,-5 -8,106 -14,36 157,-34 10,46 30,13 41,96 -12,90 49,15 -4,27 77,87 -5,25 5,9 13,9 -13,15 -60,-52 -62,-1 -74,15 -10,-13 -42,53 -33,10 -15,-42 -60,7 -10,-23 -50,8 -55,42 -15,-39 -15,36 -76,13 -42,-15 7,-119 -28,15 -32,83 -88,52 -48,70 -54,-14 -65,42 -38,45 -25,-34 22,-32 0,-70 36,-49 5,-64 34,-37 -87,-77 -75,-109 -48,-39 3,-25 -54,-51 -37,6 -13,-30 -32,7 -20,-38 -36,10 -20,-47 -29,-38 10,-43 123,-19 79,10 81,-12 -15,-98 125,-30 16,-37 44,-6 -2,-41 68,-16 -5,-29 65,-29 77,-9 8,72 -22,127 112,-15 21,34 42,9 -8,-52 36,-7 12,37 31,-43Z"/>
    <path data-fips-int="9013" data-name="Tolland County" d="M2868,114l7,160 -200,3 0,281 90,0 15,186 -18,3 -32,-1 -20,56 -93,1 23,31 -66,97 -44,41 -51,25 12,87 -49,18 -35,-10 -15,29 -43,-29 2,-66 -35,-72 -32,-22 -30,-176 -18,-146 -53,8 16,-115 -36,7 8,-201 35,-5 -28,-199 614,5Z"/>
    <path data-fips-int="9015" data-name="Windham County" d="M3412,997l-120,-9 -158,24 -291,-60 -58,-7 -5,16 -140,-127 -23,-31 93,-1 20,-56 32,1 18,-3 -15,-186 -90,0 0,-281 200,-3 -7,-160 339,7 170,0 7,52 8,308 10,192Z"/>
    <path data-fips-int="9001" data-name="Fairfield County" d="M811,1394l20,47 36,-10 20,38 32,-7 13,30 37,-6 54,51 -3,25 48,39 75,109 87,77 -34,37 -5,64 -36,49 -23,136 28,47 -43,11 -74,-28 -13,-20 -81,57 -62,57 -40,-25 -40,31 -60,1 -16,27 -42,-19 17,34 -48,29 -17,-34 -3,59 -45,13 0,23 -62,-7 -20,48 -25,-22 -58,67 -25,-35 -57,63 5,-26 -44,-1 -49,35 -26,-14 -25,41 5,-51 -125,-205 424,-253 -116,-189 28,-354 37,-493 40,12 16,32 -21,23 86,263 5,72 86,-51 25,49 87,54Z"/>
    <path data-fips-int="9007" data-name="Middlesex County" d="M2253,1133l63,136 183,-23 31,223 -214,30 15,80 51,7 24,39 -22,24 15,48 28,-5 27,38 -10,71 12,20 -37,24 48,7 -76,21 -19,-38 -96,-4 -93,51 -18,-32 -47,17 5,-25 -77,-87 4,-27 -49,-15 12,-90 -41,-96 -30,-13 -10,-46 -157,34 14,-36 8,-106 -17,5 -15,-219 -1,-31 66,-28 0,-53 148,-29 -5,16 213,-32Z"/>
    <path data-fips-int="9011" data-name="New London County" d="M3412,997l-12,511 -33,-8 -43,22 23,70 -15,37 17,51 -57,43 -35,-53 -66,40 -57,-10 -26,-37 -34,78 -26,20 -85,-38 -22,18 -23,-30 -25,-180 -13,32 21,72 -15,63 10,54 -31,28 -105,-23 -33,-30 -22,37 3,43 -36,-26 -42,0 -26,40 -108,11 -32,-53 7,-63 -40,-34 -25,-97 -70,-28 -20,-58 214,-30 -31,-223 -183,23 -63,-136 84,-15 12,-26 43,29 15,-29 35,10 49,-18 -12,-87 51,-25 44,-41 66,-97 140,127 5,-16 58,7 291,60 158,-24Z"/>
  </g>
  <g class="cities">
    <circle r="3" cx="98.7" cy="208.5"/>
    <text x="98.7" y="208.5">Bridgeport</text>
    <circle r="3" cx="146.5" cy="176.5"/>
    <text x="146.5" y="176.5">New Haven</text>
    <circle r="3" cx="188.1" cy="72.5"/>
    <text x="188.1" y="72.5">Hartford</text>
  </g>
</svg>