<?xml version="1.0" encoding="utf-8"?>
<!DOCTYPE svg PUBLIC "-//W3C//DTD SVG 1.1//EN" "http://www.w3.org/Graphics/SVG/1.1/DTD/svg11.dtd">
<svg version="1.1" xmlns="http://www.w3.org/2000/svg" width="350" height="255" viewBox="0 0 350 255">
  <defs>
    <pattern id="pattern-no-results" width="50" height="50" patternUnits="userSpaceOnUse">
      <rect width="50" height="50" fill="#ddd"/>
      <path d="M-5,5L5,-5M-5,55L55,-5M45,55L55,45" stroke-width="10" stroke="#ffffff"/>
    </pattern>
  </defs>
  <g class="counties" transform="scale(0.1)">
    <path data-fips-int="9003" data-name="Hartford County" d="M2178,105l28,199 -35,5 -8,201 36,-7 -16,115 53,-8 18,146 30,176 32,22 35,72 -2,66 -12,26 -84,15 -67,-144 -213,32 5,-16 -148,29 0,53 -66,28 1,31 -85,13 -31,43 -12,-37 -36,7 8,52 -42,-9 -21,-34 -112,15 22,-127 -8,-72 -77,9 -55,-362 115,-18 20,-77 -23,-7 -5,-25 23,-94 42,-3 49,-174 -242,13 36,-165 331,6 -6,88 84,-10 27,-62 -8,-14 113,-2 138,14 1,13 44,0 15,-12Z"/>
    <path data-fips-int="9005" data-name="Litchfield County" d="M1331,94l-36,165 242,-13 -49,174 -42,3 -23,94 5,25 23,7 -20,77 -115,18 55,362 -37,26 -28,3 5,29 -30,-2 -38,18 2,41 -44,6 -16,37 -90,29 -35,1 15,98 -81,12 -79,-10 -123,19 -10,43 29,38 -27,0 -87,-54 0,-20 -25,-29 -86,51 -5,-72 -17,-57 -69,-206 21,-23 -16,-32 -40,-12 54,-762 5,-114 107,0 632,28Z"/>
    <path data-fips-int="9009" data-name="New Haven County" d="M1765,1146l15,219 17,-5 -8,106 -14,36 157,-34 21,18 -11,28 30,13 33,58 8,38 -12,90 49,15 -4,27 57,71 20,16 -5,25 5,9 13,9 -13,15 -60,-52 -62,-1 -74,15 -10,-13 -35,30 -7,23 -33,10 8,-28 -23,-14 -25,14 -35,-7 -10,-23 -50,8 -55,42 -15,-39 -15,36 -10,-24 -15,22 -51,15 -42,-15 18,-24 -20,-25 9,-70 -28,15 -29,55 20,5 -23,23 -47,17 -21,39 -20,-4 -30,32 -18,38 -40,5 -14,-19 -65,42 -38,45 -25,-34 22,-32 0,-70 36,-49 5,-64 34,-37 -25,-32 -62,-45 -18,-35 -57,-74 -48,-39 3,-25 -54,-51 -37,6 -13,-30 -32,7 -20,-38 -36,10 1,-38 -21,-9 -29,-38 10,-43 123,-19 79,10 81,-12 -15,-98 35,-1 90,-29 16,-37 44,-6 -2,-41 38,-18 30,2 -5,-29 28,-3 37,-26 77,-9 8,72 -22,127 112,-15 21,34 42,9 -8,-52 36,-7 12,37 31,-43Z"/>
    <path data-fips-int="9013" data-name="Tolland County" d="M2868,114l7,160 -162,0 -38,3 0,281 90,0 15,186 -18,3 -32,-1 -20,56 -93,1 23,31 -41,51 -19,3 9,44 -15,-1 -44,41 -51,25 17,57 -5,30 -49,18 -35,-10 -15,29 -43,-29 2,-66 -35,-72 -32,-22 -30,-176 -18,-146 -53,8 16,-115 -36,7 8,-201 35,-5 -28,-199 263,4 351,1Z"/>
    <path data-fips-int="9015" data-name="Windham County" d="M3412,997l-120,-9 -158,24 -43,-7 -248,-53 -58,-7 -5,16 -50,-41 -90,-86 -23,-31 93,-1 20,-56 32,1 18,-3 -15,-186 -90,0 0,-281 38,-3 162,0 -7,-160 72,3 158,0 109,4 170,0 7,52 1,124 7,184 10,192Z"/>
    <path data-fips-int="9001" data-name="Fairfield County" d="M811,1394l21,9 -1,38 36,-10 20,38 32,-7 13,30 37,-6 54,51 -3,25 48,39 57,74 18,35 62,45 25,32 -34,37 -5,64 -36,49 -12,14 5,58 -20,30 4,34 21,12 7,35 -43,11 -74,-28 19,-15 -32,-5 -81,57 -14,-5 -13,39 -35,23 -40,-25 -40,31 -36,11 -24,-10 -16,27 -42,-19 17,34 -19,-1 -29,30 -17,-34 -3,59 -19,-8 -26,21 0,23 -42,10 -20,-17 -20,48 -25,-22 -58,67 -5,-34 -20,-1 -57,63 5,-26 -36,11 8,-64 -16,52 -49,35 -26,-14 -25,41 5,-51 -125,-205 70,-44 254,-148 100,-61 -116,-189 16,-224 12,-130 7,-102 11,-131 19,-260 40,12 16,32 -21,23 69,206 17,57 5,72 86,-51 25,29 0,20 87,54Z"/>
    <path data-fips-int="9007" data-name="Middlesex County" d="M2253,1133l63,136 183,-23 0,36 20,92 11,95 -206,31 -8,-1 2,53 13,27 51,7 24,39 -22,24 15,48 28,-5 27,38 -10,71 12,20 -30,3 -7,21 48,7 -58,9 -18,12 -19,-38 -96,-4 -20,23 -35,-4 -38,32 -18,-32 -47,17 5,-25 -20,-16 -57,-71 4,-27 -49,-15 12,-90 -8,-38 -33,-58 -30,-13 11,-28 -21,-18 -157,34 14,-36 8,-106 -17,5 -15,-219 -1,-31 66,-28 0,-53 148,-29 -5,16 213,-32Z"/>
    <path data-fips-int="9011" data-name="New London County" d="M3412,997l-5,285 -7,226 -33,-8 -43,22 0,44 23,26 -15,37 17,51 -57,43 -35,-53 -21,27 -25,4 -2,-27 -18,36 -28,-21 -29,11 -26,-37 -20,31 -14,47 -23,-9 -3,29 -24,-17 0,-31 -18,36 -43,-26 -22,18 -23,-30 -25,-180 0,-50 -13,82 21,72 -15,63 17,28 -7,26 -31,28 -57,-8 -18,-26 -30,11 -8,-29 -25,-1 -22,37 3,43 -13,6 -23,-32 -42,0 -26,40 -108,11 -32,-53 7,-63 -40,-34 -20,-45 -5,-52 -50,-10 -20,-18 -20,-58 8,1 206,-31 -11,-95 -20,-92 0,-36 -183,23 -63,-136 84,-15 12,-26 43,29 15,-29 35,10 49,-18 5,-30 -17,-57 51,-25 44,-41 15,1 -9,-44 19,-3 41,-51 90,86 50,41 5,-16 58,7 248,53 43,7 158,-24Z"/>
  </g>
  <g class="cities">
    <circle r="3" cx="98.7" cy="208.5"/>
    <text x="98.7" y="208.5">Bridgeport</text>
    <circle r="3" cx="146.5" cy="176.5"/>
    <text x="146.5" y="176.5">New Haven</text>
    <circle r="3" cx="188.1" cy="72.5"/>
    <text x="188.1" y="72.5">Hartford</text>
  </g>
</svg>