<?xml version="1.0" encoding="utf-8"?>
<!DOCTYPE svg PUBLIC "-//W3C//DTD SVG 1.1//EN" "http://www.w3.org/Graphics/SVG/1.1/DTD/svg11.dtd">
<svg version="1.1" xmlns="http://www.w3.org/2000/svg" width="1000" height="729" viewBox="0 0 1000 729">
  <path class="state" d="M444,28h30l-2,26 13,-2 8,-1h4v-4h3v-5l1,-1h-2v-1h-1v-2h4l2,-4 -1,-3 -1,-2 1,-1h30l41,5v3h13l1,-2h1l2,-1 5,-2h3l23,-2h35l19,2h93l50,2h68l36,1h32l11,1v15l1,9v35l1,2v23l1,17v3l1,6v16l1,2v19l1,2v16l1,11v22l1,5v20l1,12v36l-1,7v45l-1,1v32l-1,5v28l-1,6 -11,-1h-1l-1,2 -1,1 -3,2h-4v11l1,2 2,1 1,1 1,5v8l-3,3v4l2,3h1v2l1,6 -9,8 -6,4 -10,-15 -13,13 -3,-14 -3,12 -9,-5 -7,3 -8,-11 -2,1 -6,15 -9,4v8l-21,-10 -10,5 -8,-17 -2,-29 -3,-9 2,-25h-1l-7,8 3,1 1,23 -1,3 5,14 -5,18 5,8 -6,12 -2,1 -14,2 -10,-9 -4,6 -7,-10v-1l-7,-1 -6,7v18l-10,-9h-13l-4,10h-9l-25,5 -9,-16 2,-19 -10,-8h-1l-6,-12 3,-9 -7,-9 -11,-1 -7,-7 -4,-15h-2l3,13 -1,2 3,8 17,3 1,2 4,8 -6,7 4,14 5,-3 1,1 10,12 -3,27 -7,5 7,2 -15,6 -7,-13h-7l-2,2 -17,-2 -9,7 -7,-1 -9,9 -7,-9 -13,5 1,2 4,3v2h-1v1l-3,1 -13,-12 -9,-2h-18l-3,2 -3,1 -12,-2v-1h-1v1l-1,1v1h-1l-2,1 -6,7v2l-12,4 4,-7 -17,-3 -2,-1 -22,-2 -17,12 -3,-12 -5,10 -3,-6 -9,9 -19,-1h-1l-1,-2v-1l1,-1 1,-1 1,-1 -3,-8v-6l-1,-3 3,-13 -13,12v1l-3,1h-1l-2,2v1l1,2 1,1 6,1v1l-17,10v1l-10,12h-1l-3,-2 -11,13v3l-1,1 -2,3h-3l-5,-2v1l-4,3 -6,-6 -3,2 -9,7 -4,3v1l-3,2 -4,5v2l-1,1 -1,1 -2,1 -8,-5 7,-14v-20l-4,4 2,17 -7,16 9,8v7l-12,4 -17,-7 1,-3 1,-3 -9,-5 -3,9h-8l-12,12 -4,-3v1l-4,11 -9,6 -13,-6 -4,2h-1l-6,7h-16l-5,7 -9,-5 -4,9 -2,2 -6,7 -8,-9 1,15 -5,-1 -10,13 -4,-2 -9,2 -5,11 -10,-7v1l-13,6 2,5 -6,8v-10l-10,4 -2,2 -10,11 2,-6 -14,-1 -13,10 -10,-4 -4,12 -1,-17 -1,-1v-1l-1,-1 -1,-1v-1h-1v-2l-1,-1 -2,-1 -6,-11 -2,-3v-2h-1l-1,-4 -2,-2 -5,-7v-1l-4,-5 -2,-2v-4h-2l-1,-2 -1,-3v-2l10,-6h2l3,-3 15,-9 13,-8 1,-1h1l2,-1 4,-2 4,-2 6,-5h1l2,-1 21,-12 1,-1 13,-8h1l6,-4 2,-2h1l7,-4h2l1,-1v-2l-3,-7 -5,-8 -3,-7 -2,-2 -2,-3 -2,-1 -1,-4 -1,-1 -1,-1 -6,-11 -5,-9 1,-13v-11l3,-27v-2l1,-7v-12l1,-2 1,-10v-5l1,-4v-24l1,-2v-2l2,-25 1,-13v-9l2,-31 2,-7v-23l2,-13 4,-56v-3l1,-21v-1l4,-40v-4l2,-42 2,-18v-5l3,-34v-6l1,-18v-2h33l38,2 21,1h4l27,1h13l34,2h4l25,2h12l21,1h5Z"/>
  <g class="subcounties">
    <path data-geo-id="900715350" data-name="Clinton" d="M586,503l26,-18 10,-3 13,46h-1l-9,9 -7,-9 -13,5v-5l-1,-7 -1,1h-2l-1,-1v-2l-2,-2 -1,-1h-1v-1l-2,-2 -7,-7Z"/>
    <path data-geo-id="900946940" data-name="Middlebury" d="M303,341h10l2,-2 4,-1 1,-1h6l1,-1 3,-1 5,-2 2,-1 2,17 10,20h-13l-4,16h-26l1,-16v-1l-1,-6 -1,-5v-3Z"/>
    <path data-geo-id="900947535" data-name="Milford" d="M330,553l1,-2 7,-7 1,-2 1,-2v-1l-1,-4v-8l1,-3 28,16 19,5 2,6h1l-11,13v3l-1,1 -2,3h-3l-5,-2v1l-4,3 -6,-6 -3,2 -9,7 -4,3v1l-3,2 -4,5v2l-1,1 -1,1 -2,1 -8,-5 7,-14Z"/>
    <path data-geo-id="900958300" data-name="Oxford" d="M281,430l21,-18 4,-9v-18h26v4l13,12 -8,34 5,6 -13,4 -2,7 -16,13 -2,-2 -2,-3 -1,-1 -9,-5 -3,-5 -1,-10Z"/>
    <path data-geo-id="901157040" data-name="Old Lyme" d="M694,481l14,-9 29,-7 9,26 5,18h-1l-4,10h-9l-25,5 -9,-16 2,-19 -10,-8Z"/>
    <path data-geo-id="901173770" data-name="Stonington" d="M887,475l5,-25 -1,-7v-9l9,-14 50,16v9l1,2 2,1 1,1 1,5v8l-3,3v4l2,3h1v2l1,5 -9,9 -6,4 -10,-15 -13,13 -3,-14 -3,12 -9,-5 -7,3 -8,-11Z"/>
    <path data-geo-id="901567400" data-name="Scotland" d="M816,217l4,1 13,6 12,3 -2,21 2,8 -5,22 -3,-1 -11,-2 -5,-1h-2l-1,-1h-1l-4,-1 -1,-1 -1,-34Z"/>
    <path data-geo-id="900944560" data-name="Madison" d="M540,422l4,-1h1l1,-1 6,-1 1,2 1,-1 1,1v1l1,2h1l1,1 -1,1 -3,7 9,3 4,8 3,6 2,2 2,10 -1,15 -2,11 9,2 1,1 2,4h1l2,2 -2,2 2,4 1,3 7,7 2,2v1h1l1,1 2,2v2l1,1h2l1,-1 1,7v5l1,2 4,3v2h-1l-2,1 2,-1v1l-3,1 -13,-12 -9,-2h-18l-3,2 -3,1 -8,1v-1l3,-15 8,-6v-9l-17,-16 -6,-13Z"/>
    <path data-geo-id="900969640" data-name="Southbury" d="M227,375l6,-1 4,-1h2l5,-1 8,-1 6,-1h9l4,1h5l1,1h4l2,1 3,-1 9,-1h2l2,-1 7,-1h1l-1,16v18l-4,9 -21,18 -3,-3 -6,-3 -5,2 -4,-8 -5,2h-5v-2l-3,-7 -1,-2 -12,2v-14h-4v1h-3l-1,-1 -6,-8Z"/>
    <path data-geo-id="900962290" data-name="Prospect" d="M374,365l19,-8 5,2 10,5 7,10 -9,28 -24,-4Z"/>
    <path data-geo-id="900502760" data-name="Barkhamsted" d="M368,74h2l5,-1 9,-1h9l9,-1h24l9,-1h4l-2,6 -1,3 -1,2 -1,5 -1,4 -1,2v5l-2,6v2l-5,15h-7l-5,1h-1l-55,4Z"/>
    <path data-geo-id="901152350" data-name="New London" d="M824,452v1l5,14 -5,18 5,8 -6,12 -5,-25 -8,-8v-7l8,-11Z"/>
    <path data-geo-id="900901220" data-name="Ansonia" d="M360,470l4,22 -12,1 -17,-10 -2,-9 3,-4Z"/>
    <path data-geo-id="900907310" data-name="Branford" d="M469,497l12,-4 14,13 13,-4 7,28 -4,5 -1,-1 -22,-2 -17,12 -3,-12 -5,10 -3,-6 -9,9 4,-12 -5,-4 3,-14 8,-5 1,-8Z"/>
    <path data-geo-id="900904580" data-name="Bethany" d="M363,430l5,1 3,-26 10,-2 1,-5 24,4h3l-8,17 5,13 6,4 -7,11 -37,4 -9,-4Z"/>
    <path data-geo-id="900934950" data-name="Guilford" d="M520,426l5,-1h3l5,-2h1l6,-1v50l6,13 17,16v9l-8,6 -3,15v1v-1l-4,-2v-1h-1v1l-1,1v1h-1l-2,1 -6,7v2l-10,4h-2l4,-7 -17,-3h-1l4,-5 -7,-28 1,-8 -3,-49Z"/>
    <path data-geo-id="900914160" data-name="Cheshire" d="M400,355l4,-12 6,-2 14,-2h1l6,-1 1,-1h10l4,5v1l4,4 5,1 -3,13 4,7 2,8 -20,37 -15,-8 -14,-3h-3l9,-28 -7,-10 -10,-5Z"/>
    <path data-geo-id="900919550" data-name="Derby" d="M333,474l2,9 17,10 12,-1 -1,8 -9,1 -4,7 -4,-2 -1,-2 -1,-3 -2,-1h-1l-1,-1 -1,-1 -4,-3 -8,-7 -3,-5 -2,-1v-3Z"/>
    <path data-geo-id="900922910" data-name="East Haven" d="M432,544v-2l6,-2v-24l7,-11 6,-19 16,-5 1,-12 4,-1 -3,29 -7,5 -1,8 -8,5 -3,14 5,4 -4,12Z"/>
    <path data-geo-id="900345820" data-name="Marlborough" d="M625,282l3,-10 9,-3 2,-12 11,-2v1l1,2 1,7 2,2 4,2 4,3 1,2 2,7 3,6 3,16v9l-3,5 -1,2h-1l-3,1 -1,1h-3l-5,1 -5,1h-5l-1,-2 -2,-3 -1,-1 -1,-4 -3,-5 -5,-9 -2,-6 -4,-10Z"/>
    <path data-geo-id="900302060" data-name="Avon" d="M422,177l25,-4 35,-6v13l1,30 -49,-4 -6,-7 -6,-3 -4,-15Z"/>
    <path data-geo-id="900304300" data-name="Berlin" d="M461,334l7,-12 2,-23 4,-16 31,-3 17,-1v15l2,7v2l-2,7 -7,2 -2,5h-5l-4,2v8l-8,1h-1l-3,1h-2l-10,2 -3,4 -1,2 -5,7 -3,-2 1,-4v-1h-2l1,-5h-1Z"/>
    <path data-geo-id="900305910" data-name="Bloomfield" d="M482,167l7,-1v-19l11,-33 11,9 -2,9 25,8 2,41 -15,-2 -39,1Z"/>
    <path data-geo-id="900308490" data-name="Bristol" d="M384,240l49,-7 2,17 5,31 -27,4h-7l-3,1h-2l-1,1h-8l-1,-5v-1l-2,-9v-4l-1,-5v-2l-1,-5v-2l-2,-6v-6Z"/>
    <path data-geo-id="900310100" data-name="Burlington" d="M375,184l9,-1h1l3,-1h3l5,-1 9,-2h4l12,-2h1l-4,4 4,15 6,3 5,34 -49,7v-3l-2,-11 -2,-11Z"/>
    <path data-geo-id="900322070" data-name="East Granby" d="M499,61l27,8 -4,16 13,1 -4,17 -12,-4 -8,24 -11,-9 -4,-8h-8Z"/>
    <path data-geo-id="900325990" data-name="Enfield" d="M567,95l4,-6 5,-31 -2,-22h13l1,-2h1l2,-1 5,-2h3l23,-2 1,2 1,13 1,1v5l1,3v12h1v4l1,4v2l2,12h-6l-4,1Z"/>
    <path data-geo-id="900327600" data-name="Farmington" d="M428,199l6,7 49,4 7,8v9l9,-3v12l1,4 -13,2 -14,14 -38,-6 -2,-17Z"/>
    <path data-geo-id="900331240" data-name="Glastonbury" d="M561,232l31,-6 53,-8v6l1,6v3l2,7v4l1,5v2l1,2v2l-11,2 -2,12 -9,3 -3,10 -5,1h-3l-2,1 -4,1h-5l-11,2 -5,1 -5,1 -9,1h-3l-8,2h-1l1,-5 2,-19 7,-4 -4,-8 -9,-2 9,-9 -16,-12Z"/>
    <path data-geo-id="900337070" data-name="Hartford" d="M521,179l15,2 20,-2v12l-9,10v5l10,14 -2,10 -28,2 -5,1Z"/>
    <path data-geo-id="900322630" data-name="East Hartford" d="M556,184l31,-2 5,44 -31,6 -6,-2 2,-10 -10,-14v-5l9,-10Z"/>
    <path data-geo-id="900344700" data-name="Manchester" d="M587,182l38,-12h-1v7l2,-1h2l1,-1h5l5,-1 1,8v2l1,5v4l1,3v6l1,2v3l2,11 -53,8Z"/>
    <path data-geo-id="900350440" data-name="New Britain" d="M473,256l14,-14 13,-2 5,40 -31,3 -5,-6v-9Z"/>
    <path data-geo-id="900337140" data-name="Hartland" d="M373,58v-3l7,-28h5l59,1h7l-12,42h-4l-9,1h-24l-9,1h-9l-9,1 -5,1Z"/>
    <path data-geo-id="900352140" data-name="Newington" d="M499,236l23,-3 5,-1 -1,12 3,20 -2,5 1,9 -6,1 -17,1 -5,-40Z"/>
    <path data-geo-id="900360120" data-name="Plainville" d="M435,250l38,6 -4,12v9l-29,4Z"/>
    <path data-geo-id="900368940" data-name="Simsbury" d="M444,104l44,2h8l4,8 -11,33v19l-7,1 -35,6 -2,-24Z"/>
    <path data-geo-id="900370550" data-name="Southington" d="M410,341v-2l3,-20 1,-5 1,-2v-7l-1,-5v-3l-1,-10v-2l27,-4 29,-4 5,6 -4,16 -2,23 -7,12 -4,1 1,8v2l1,2v1l-1,1h-2l-1,-1 -5,-1 -4,-4v-1l-4,-5h-10l-1,1 -6,1h-1Z"/>
    <path data-geo-id="900371390" data-name="South Windsor" d="M556,179l3,-15 7,-9 2,-16 50,-2v9h2l2,-1 6,-2v2l-2,15v1l-1,6v3l-38,12 -31,2Z"/>
    <path data-geo-id="900382590" data-name="West Hartford" d="M482,180l39,-1 1,54 -23,3v-12l-9,3v-9l-7,-8Z"/>
    <path data-geo-id="900384900" data-name="Wethersfield" d="M527,232l28,-2 6,2 -7,1 16,12 -9,9 9,2 -23,5 -2,7 -18,1 2,-5 -3,-20Z"/>
    <path data-geo-id="900387000" data-name="Windsor" d="M511,123l8,-24 12,4 13,5 15,11 8,-5 1,25 -2,16 -7,9 -3,15 -20,2 -2,-41 -25,-8Z"/>
    <path data-geo-id="900387070" data-name="Windsor Locks" d="M531,103l4,-17 36,3 -4,6v19l-8,5 -15,-11Z"/>
    <path data-geo-id="900312270" data-name="Canton" d="M406,151v-3l1,-1 3,-10v-3l2,-10v-3h1l5,-1h7l5,-15v-2l14,1 1,45 2,24 -25,4h-1l-12,2 2,-9 1,-4v-2l1,-4 1,-1v-3l-8,-4Z"/>
    <path data-geo-id="900967610" data-name="Seymour" d="M311,465l16,-13 2,-7 13,-4 10,-13 11,2 -4,17 1,23h-24l-3,4 -11,5 -6,-4 -1,-1v-5Z"/>
    <path data-geo-id="900949950" data-name="Naugatuck" d="M349,369l25,-4 8,33 -1,5 -10,2 -14,-6 -5,8 -7,-6 -13,-12v-4l4,-16Z"/>
    <path data-geo-id="900714300" data-name="Chester" d="M608,430l43,-8 9,6 3,13 -1,2 -12,12 -34,4Z"/>
    <path data-geo-id="900324800" data-name="East Windsor" d="M567,95l53,-7v21l-1,5v21l-1,2 -50,2 -1,-25Z"/>
    <path data-geo-id="901540500" data-name="Killingly" d="M910,136l12,-9 46,-15v7l1,17v3l1,6v16l1,2v19l1,2v13l-23,4 -38,6 5,-13 8,-3 2,-8 -11,-13 1,-7 -8,-15Z"/>
    <path data-geo-id="901142390" data-name="Lebanon" d="M708,285l1,-1 13,-6 5,-4v-1l1,-1h1l2,-3 4,-4h4l1,2 1,-3v-1l-1,-5 -3,-4v-1h4v1l1,-1v-2h1v-2l2,-2 4,-2h1l1,-2v-3l1,-2h3l1,2 2,2 3,3 2,3h1v1l2,1 1,1h1l1,1 7,6 1,1 3,4h1v1l2,1h1l1,2 1,1v1l2,1 1,1 4,3 1,1 -17,44 -13,33 -27,-30 -25,-21 -1,-5 -1,-2 -1,-7Z"/>
    <path data-geo-id="901143230" data-name="Lisbon" d="M848,315l6,-9 -3,-13 5,-12 6,1h1l8,3h4l4,1 2,1h2l-4,16 -2,32 -12,-3 -3,10 -13,-1 2,-17Z"/>
    <path data-geo-id="900365370" data-name="Rocky Hill" d="M522,279l6,-1 -1,-9 18,-1 2,-7 23,-5 4,8 -7,4 -2,19h-1l-2,1 -7,1 -1,1h-1l-11,2 -6,1h-1l-6,1h-7Z"/>
    <path data-geo-id="900374540" data-name="Suffield" d="M493,51h4v-4h3v-5l1,-1h-2v-1h-1v-2h4l2,-4 -1,-3 -1,-2 1,-1h30l41,5v3l2,22 -5,31 -36,-3 -13,-1 4,-16 -27,-8 -8,-1Z"/>
    <path data-geo-id="900718080" data-name="Cromwell" d="M524,303v-2l-2,-7h7l6,-1h1l6,-1 11,-2h1l1,-1 7,-1 2,-1h1l-1,5 5,18 -9,7 -6,13 -8,-7 -2,-9 -22,-4Z"/>
    <path data-geo-id="900720810" data-name="Durham" d="M508,429l2,-9v-1l1,-8v-9l1,-2v-2l1,-9 28,-8 21,-2 3,11 -4,13 13,13 -22,3 -6,1 -1,1h-1l-4,1 -6,1h-1l-5,2h-3l-5,1 -8,1 -2,1 -2,1Z"/>
    <path data-geo-id="901142600" data-name="Ledyard" d="M828,418l10,-17 8,-14 47,-2 7,35 -9,14v9h-64l2,-25Z"/>
    <path data-geo-id="900935650" data-name="Hamden" d="M405,447l7,-11 -6,-4 -5,-13 8,-17 14,3 15,8 17,9 -15,7 -2,19 -10,17 12,4 5,8 -8,11 -6,3 -7,-4 -19,-2 2,-7h-11l-2,-8Z"/>
    <path data-geo-id="900946520" data-name="Meriden" d="M455,348l1,1h2l1,-1v-1l-1,-2v-2l-1,-8 4,-1 6,-2h1l-1,5h2v1l-1,4 3,2 5,-7 1,-2 3,-4 10,-2h2l3,-1h1l8,-1 1,4v9l1,8v2l1,10v5l1,5v10l-12,2 -17,-8 -23,-6 -4,-7Z"/>
    <path data-geo-id="901316400" data-name="Columbia" d="M697,247l13,-25 13,9 18,5 9,-3 1,1v2h1l1,1v1h1h-2l-1,2v3l-1,2h-1l-4,2 -2,2v2h-1v2l-1,1v-1h-4v1l3,4 1,5v1l-1,3 -1,-2h-4l-4,4 -2,3h-1l-1,1v1l-5,4 -13,6 -1,1Z"/>
    <path data-geo-id="901317800" data-name="Coventry" d="M664,166l56,-8 -1,1 -2,20 11,6 10,16 2,17 6,11v2h3l1,1v1l-9,3 -18,-5 -13,-9 -11,-17h-29l-4,-28Z"/>
    <path data-geo-id="901344910" data-name="Mansfield" d="M719,159h71v9l1,2 2,24v8l1,2v9h-1l-3,1v-1h-2v1l-1,1h-1v-1h-1l-1,1v-3l-1,-1h-4v2h1v1h-1v3h-1v1h-1l-1,1v1l-1,1v2l1,1 2,2 -3,1h-1v2h-28l-6,-11 -2,-17 -10,-16 -11,-6Z"/>
    <path data-geo-id="901301080" data-name="Andover" d="M664,227l10,-1 -4,-21h29l11,17 -13,25 -21,3Z"/>
    <path data-geo-id="900566420" data-name="Salisbury" d="M144,83v-5l3,-34v-6l1,-18v-2h33l38,2 -6,13 -2,17 -4,2 -4,23 5,30 -66,-4Z"/>
    <path data-geo-id="900565930" data-name="Roxbury" d="M213,316l40,-6 4,40 3,20h-2l-6,1 -8,1 -5,1h-2l-4,1 -6,1h-6l-5,-40Z"/>
    <path data-geo-id="900952070" data-name="New Haven" d="M396,478h11l-2,7 19,2 7,4 6,-3 14,-2 -6,19 -7,11v24l-6,2v2h-1l-1,-2v-1l1,-1 1,-1 1,-1 -2,-9 -1,1 1,-1 -1,-5 -1,-3 3,-13 -13,12v1l-3,1h-4l-6,-9 -2,-11 -16,-1 -4,-1v-6Z"/>
    <path data-geo-id="900953890" data-name="North Branford" d="M469,497l3,-29v-23l36,-16 2,-1 2,-1 8,-1 -14,19 3,49 -1,8 -13,4 -14,-13Z"/>
    <path data-geo-id="900954870" data-name="North Haven" d="M455,422l2,5 8,1h1l2,18 4,-1v23l-4,1 -1,12 -16,5 -14,2 8,-11 -5,-8 -12,-4 10,-17 2,-19Z"/>
    <path data-geo-id="900957600" data-name="Orange" d="M340,524l1,-3 2,-1 1,-1 2,-1 2,-1 1,-1 2,-3v-4l-1,-1 4,-7 9,-1h21l4,1 3,6 -4,22v16l-19,-5Z"/>
    <path data-geo-id="900978740" data-name="Wallingford" d="M456,368l23,6 17,8 12,-2 1,10 4,-1 -1,9v2l-1,2v9l-1,8v1l-2,9 -36,16 -4,1 -2,-18h-1l-8,-1 -2,-5 -17,-9 20,-37Z"/>
    <path data-geo-id="900980070" data-name="Waterbury" d="M337,332h1l1,-3h1v-2l1,-1v-2l2,-1 3,-2h6l3,-13 3,-1 2,-1 7,-3 7,1 2,19 17,21 11,-1 -4,12 -2,4 -5,-2 -19,8 -25,4 -10,-20Z"/>
    <path data-geo-id="900982870" data-name="West Haven" d="M387,545v-16l4,-22 -3,-6 16,1 2,11 6,9 1,2v1l1,2 1,1 6,1v1l-17,10v1l-10,12h-1l-4,-2Z"/>
    <path data-geo-id="900987700" data-name="Woodbridge" d="M359,447l9,4 37,-4 -11,23 2,8 -12,16v6h-21l1,-8 -4,-22Z"/>
    <path data-geo-id="900332640" data-name="Granby" d="M432,97v-5l1,-2 1,-4 1,-5 1,-2 1,-3 2,-6 12,-42h23l-2,26 13,-2 8,-1 -2,9 8,1 -11,45 -44,-2 -14,-1Z"/>
    <path data-geo-id="901536000" data-name="Hampton" d="M825,161h23l11,2 4,14 -4,31 -11,19h-3l-12,-3 -13,-6 3,-14Z"/>
    <path data-geo-id="900781680" data-name="Westbrook" d="M621,479l7,-1 13,9 17,1 6,5 -3,8 7,21 -1,2 -17,-2 -9,7 -6,-1 -13,-46Z"/>
    <path data-geo-id="900719130" data-name="Deep River" d="M616,459l34,-4 12,-12 3,8 17,3 1,2 -13,5 -6,6 -21,12 -2,8 -13,-9 -7,1Z"/>
    <path data-geo-id="900722280" data-name="East Haddam" d="M637,365l10,-10 5,9 10,-2h7l13,-3h6l10,-2h10l6,-1v12l1,2v5l1,4 2,14h1l3,15v12h-5l-8,2h-1l-2,1 -10,1h-1l-10,1 -2,1 -10,1h-1l-6,1 -2,1h-1l-1,-1h-2l-9,-6 -14,-28 2,-8 -6,-9Z"/>
    <path data-geo-id="900722490" data-name="East Hampton" d="M606,285h5l4,-1 2,-1h3l5,-1v1l4,10 2,6 5,9 3,5 1,4 1,1 2,3 1,2 1,3 1,5 2,3v2l1,1 2,4 1,3 1,2 9,16 -10,2 -5,-9 -10,10 -36,6 2,-16 -5,-11 1,-17 7,-11v-13l7,-1Z"/>
    <path data-geo-id="901106820" data-name="Bozrah" d="M761,365l3,-13 13,-33 24,8 4,5 2,14 -4,5 2,24h-3l-14,-6 -12,1Z"/>
    <path data-geo-id="901115910" data-name="Colchester" d="M644,323h5l5,-1 5,-1h3l1,-1 3,-1h1l1,-2 3,-5h1l3,4 9,5 5,-9 2,1h2l3,1h7l1,-1 2,-1h1l2,-2 1,-1h1l1,-2v-6l25,21 27,30 -50,14v-10l-6,1h-10l-10,2h-6l-13,3h-7l-9,-16 -1,-2 -1,-3 -2,-4 -1,-1v-2l-2,-3 -1,-5Z"/>
    <path data-geo-id="901123400" data-name="East Lyme" d="M737,417l17,-2 11,20 14,24 2,20 5,15 -7,-1 -6,7v18l-10,-9h-12l-5,-18 -9,-26 -2,-16Z"/>
    <path data-geo-id="901133900" data-name="Griswold" d="M883,287h2l7,2h5l3,-1h2l7,-1 7,-1 11,-1 11,81 -19,-2 -25,-31 -17,2 2,-32Z"/>
    <path data-geo-id="901134250" data-name="Groton" d="M827,443h64l1,7 -5,25 -1,1 -6,15 -9,4v8l-21,-10 -10,5 -8,-17 -2,-29Z"/>
    <path data-geo-id="901129910" data-name="Franklin" d="M794,275l3,-7 15,3 1,1 7,40 -10,24 -5,-4 -4,-5 -24,-8Z"/>
    <path data-geo-id="901144210" data-name="Lyme" d="M662,428l1,1h1l2,-1 6,-1h1l10,-1 2,-1 10,-1h1l10,-1 2,-1h1l8,-2h5l15,-3 -2,32 2,16 -29,7 -14,9 -6,-12 3,-9 -7,-9 -11,-1 -7,-7 -4,-15h-2Z"/>
    <path data-geo-id="901148900" data-name="Montville" d="M754,415l9,-2 5,-7 -3,-28 -4,-13 15,5 12,-1 14,6h3l14,1 13,6 6,19 -10,17 -7,8 -2,-1 -44,9 -10,1Z"/>
    <path data-geo-id="901155500" data-name="North Stonington" d="M919,364l19,2 35,7v18l-1,5v28l-1,6 -11,-1h-1l-1,2 -1,1 -3,2h-4v2l-50,-16 -7,-35 -5,-27Z"/>
    <path data-geo-id="901156270" data-name="Norwich" d="M805,332l5,4 10,-24 20,-5 8,8 3,9 -2,17 -2,7 5,9 -10,12 -3,-4 -2,18 -5,-1 -13,-6 -14,-1 -2,-24 4,-5Z"/>
    <path data-geo-id="900735230" data-name="Haddam" d="M562,379l39,-8 36,-6 -4,12 6,9 -2,8 14,28 -43,8 -15,4 -19,-18 -13,-13 4,-13Z"/>
    <path data-geo-id="900740710" data-name="Killingworth" d="M552,419l22,-3 19,18 15,-4 8,29 5,20 1,3 -10,3 -26,18 -2,-4 2,-2 -2,-2h-1l-2,-4 -1,-1 -9,-2 2,-11 1,-15 -2,-10 -2,-2 -3,-6 -4,-8 -9,-3 3,-7 1,-1 -1,-1h-1l-1,-2v-1l-1,-1 -1,1Z"/>
    <path data-geo-id="900726270" data-name="Essex" d="M683,456l4,8 -6,7 4,14 5,-3h1l-6,6 -21,5 -6,-5 -17,-1 2,-8 21,-12 6,-6Z"/>
    <path data-geo-id="901162150" data-name="Preston" d="M832,382l5,1 2,-18 3,4 10,-12 -5,-9 2,-7 13,1 3,-10 12,3 17,-2 25,31 -31,-6 5,27 -47,2 -8,14Z"/>
    <path data-geo-id="900757320" data-name="Old Saybrook" d="M664,493l21,-5 6,-6v1l10,12 -3,27 -7,5 7,2 -15,6 -7,-13h-8l-7,-21Z"/>
    <path data-geo-id="900747080" data-name="Middlefield" d="M506,350l26,-4 7,16 2,19 -28,8 -4,1 -1,-10v-10l-1,-5v-5Z"/>
    <path data-geo-id="900761800" data-name="Portland" d="M564,292h1l8,-2h3l9,-1 5,-1 5,-1 11,-2 7,17 -7,1v13l-7,11 -1,17 -24,-7 -16,1 -4,-8 6,-13 9,-7Z"/>
    <path data-geo-id="900747360" data-name="Middletown" d="M504,319l4,-2h5l2,-5 7,-2 22,4 2,9 8,7 4,8 16,-1 24,7 5,11 -2,16 -39,8 -21,2 -2,-19 -7,-16 -26,4v-2l-1,-8v-9l-1,-4Z"/>
    <path data-geo-id="901325360" data-name="Ellington" d="M618,137l1,-2v-21l1,-5v-21l4,-1h6l42,-8 -1,11h50v8l-61,9 2,27 -33,5 -1,4 -6,2 -2,1h-2Z"/>
    <path data-geo-id="901337910" data-name="Hebron" d="M646,230l18,-3 12,23 21,-3 11,38 1,2 1,7 1,2 1,5v6l-1,2h-1l-1,1 -2,2h-1l-2,1 -1,1h-7l-3,-1h-2l-2,-1 -5,9 -9,-5 -3,-4h-1v-9l-3,-16 -3,-6 -2,-7 -1,-2 -4,-3 -4,-2 -2,-2 -1,-7 -1,-2v-3l-1,-2v-2l-1,-5v-4l-2,-7Z"/>
    <path data-geo-id="901372090" data-name="Stafford" d="M672,79l4,-48h93l-10,40 -4,8 -1,11h-83Z"/>
    <path data-geo-id="901369220" data-name="Somers" d="M656,29h1l19,2 -4,48 -42,8 -2,-12v-2l-1,-4v-4h-1v-12l-1,-3v-5l-1,-1 -1,-13 -1,-2Z"/>
    <path data-geo-id="901306260" data-name="Bolton" d="M640,184l26,-7 4,28 4,21 -10,1 -18,3 -1,-6v-6l-2,-11v-3l-1,-2v-6l-1,-3v-4l-1,-5Z"/>
    <path data-geo-id="901376290" data-name="Tolland" d="M721,98l7,21 -10,15 4,15 -2,9 -56,8 -2,-32 -2,-27Z"/>
    <path data-geo-id="901377830" data-name="Union" d="M769,31l50,2v15l1,8v11l1,11h-52l-6,1h-8l4,-8Z"/>
    <path data-geo-id="901378250" data-name="Vernon" d="M624,174v-4h1v-3l1,-6v-1l2,-15v-2l1,-4 33,-5 2,32 2,11 -26,7v-2l-1,-8 -5,1h-5l-1,1h-2l-2,1Z"/>
    <path data-geo-id="901385950" data-name="Willington" d="M721,98v-8h33l1,-11h8v10l1,5v65h-45l1,-1 2,-9 -4,-15 10,-15Z"/>
    <path data-geo-id="900504930" data-name="Bethlehem" d="M256,271l44,-3 6,37 -47,4Z"/>
    <path data-geo-id="900508210" data-name="Bridgewater" d="M216,335l5,40h6l-4,14 6,8 1,1h1l-1,1 -9,-3 -22,-12 -4,-15 -1,-1 -6,-4 -2,-14 15,-15Z"/>
    <path data-geo-id="900510940" data-name="Canaan" d="M207,52l4,-2 55,6 -9,51 -49,-2 -5,-30Z"/>
    <path data-geo-id="900516050" data-name="Colebrook" d="M311,78l11,-54 25,2h12l21,1 -7,28v3l-3,16h-2Z"/>
    <path data-geo-id="901501430" data-name="Ashford" d="M764,141v-47l-1,-5v-10l6,-1h27l4,22 15,30v31l-25,-2h-26Z"/>
    <path data-geo-id="901509190" data-name="Brooklyn" d="M863,177h11v-8l7,-6h35l-1,7 11,13 -2,8 -8,3 -5,13 2,12 -54,-11Z"/>
    <path data-geo-id="901512130" data-name="Canterbury" d="M840,278l5,-22 -2,-8 2,-21h3l11,-19 54,11 -16,12 -5,-2 -5,8 5,22 4,4 -3,26h-1l-7,-2h-4l-2,-1 -4,-1h-4l-8,-3h-1l-6,-1 -12,-3h-3Z"/>
    <path data-geo-id="901513810" data-name="Chaplin" d="M790,159l25,2h10l-2,43 -3,14 -4,-1 -22,-5v-8l-1,-2v-8l-2,-24 -1,-2v-6Z"/>
    <path data-geo-id="900517240" data-name="Cornwall" d="M184,189l19,-22 -3,-10 1,-15 6,-5 3,-12 -2,-20 49,2 -20,89 -22,-1 -19,-1h-15Z"/>
    <path data-geo-id="900532290" data-name="Goshen" d="M257,107l47,2 -3,12 -17,68 -46,7h-1Z"/>
    <path data-geo-id="900537280" data-name="Harwinton" d="M325,198l9,-13 12,-1h29l5,31 2,11 2,11v1l-28,4 -6,1 -10,-7 -13,-16Z"/>
    <path data-geo-id="900540290" data-name="Kent" d="M135,212v-3l1,-21v-1l48,2 -3,5h15l-8,17 1,13 10,23 -1,11 -60,9 -2,2 -5,-1Z"/>
    <path data-geo-id="900549460" data-name="Morris" d="M315,265l-15,3 -44,3 1,-13 -8,-7v-9l37,-2 21,-2Z"/>
    <path data-geo-id="901521860" data-name="Eastford" d="M796,78h25v29h27v54h-33v-31l-15,-30Z"/>
    <path data-geo-id="901559980" data-name="Plainfield" d="M913,219l-2,-12 38,-6 -9,81 -9,2 -4,1 -11,1 -7,1 -7,1h-2l-3,1h-4l3,-26 -4,-4 -5,-22 5,-8 5,2Z"/>
    <path data-geo-id="901561030" data-name="Pomfret" d="M848,107l53,-2 9,31 -2,12 8,15h-35l-7,6v8h-11l-4,-14 -11,-2Z"/>
    <path data-geo-id="900543370" data-name="Litchfield" d="M238,196l46,-7 20,-3 2,5 19,7 2,22 13,16 10,7 -35,22 -8,-27 -21,2 -37,2v9l-9,-9Z"/>
    <path data-geo-id="900551350" data-name="New Hartford" d="M346,184l3,-9 8,-50 55,-4v3l-2,10v3l-3,10 -1,1v4l8,4v3l-1,1 -1,4v2l-1,4 -2,9h-4l-9,2 -5,1h-3l-3,1h-1l-9,1Z"/>
    <path data-geo-id="900552630" data-name="New Milford" d="M136,269l2,-2 60,-9 1,16 9,7 5,35 3,19h-15l-15,15 2,14 6,4v1h-3l-1,1 -2,1 -2,1 -4,2 -1,1h-1v1l-5,2h-2v1l-3,1 -1,1v1h-1l-1,1 -1,-5v-7l1,-2 -1,-6 -3,-8 -3,-9 -2,-9 -4,-9v-2l-4,-14h-1l-5,-11v-1l-1,-5 -2,-8v-1l1,-4 1,-1h4l-1,-1 -2,-2v-1l-1,-1v-2l-1,-2h-1v1h-1l-2,-1v-1h-2Z"/>
    <path data-geo-id="900554030" data-name="North Canaan" d="M219,20l21,1h4l27,1 -5,34 -55,-6 2,-17Z"/>
    <path data-geo-id="900567960" data-name="Sharon" d="M140,147v-4l2,-42 66,4 2,20 -3,12 -6,5 -1,15 3,10 -19,22 -48,-2Z"/>
    <path data-geo-id="900575730" data-name="Thomaston" d="M315,265l35,-22 6,-1 -4,43 6,22 -3,1h-1v-8l-8,-7 -2,-12 -16,-8 -9,-1 -4,-7Z"/>
    <path data-geo-id="900553470" data-name="Norfolk" d="M266,56l5,-34h13l34,2h4l-11,54 -7,31 -47,-2Z"/>
    <path data-geo-id="900576570" data-name="Torrington" d="M284,189l17,-68 9,4v10l47,-10 -8,50 -3,9 -12,1 -9,13 -19,-7 -2,-5Z"/>
    <path data-geo-id="900579510" data-name="Warren" d="M196,194l19,1 22,1h1l2,46 -23,7 -18,-2 -10,-23 -1,-13Z"/>
    <path data-geo-id="900579720" data-name="Washington" d="M199,247l18,2 23,-7 9,9 8,7 -1,13 3,38 -6,1 -40,6 -5,-35 -9,-7 -1,-16Z"/>
    <path data-geo-id="900580490" data-name="Watertown" d="M300,268l15,-3 4,7 9,1 16,8 2,12 8,7v8h1l-3,13h-6l-3,2 -2,1v2l-1,1v2h-1l-1,3h-1l-2,1 -5,2 -3,1 -1,1h-6l-1,1 -4,1 -2,2 -7,-36Z"/>
    <path data-geo-id="900587910" data-name="Woodbury" d="M253,310l6,-1 47,-4 7,36h-10l2,13v3l1,5 1,6v1h-1l-7,1 -2,1h-2l-9,1 -3,1 -2,-1h-4l-1,-1h-5l-4,-1h-7l-3,-20Z"/>
    <path data-geo-id="900586440" data-name="Winchester" d="M304,109l7,-31 57,-4 -11,51 -47,10v-10l-9,-4Z"/>
    <path data-geo-id="900987560" data-name="Wolcott" d="M373,295l8,-1h1l2,-1 8,-6h8l1,-1h2l3,-1h7v2l1,10v3l1,5v7l-1,2 -1,5 -3,20v2l-6,2 -11,1 -17,-21 -2,-19Z"/>
    <path data-geo-id="901575870" data-name="Thompson" d="M923,34h32l11,1v15l1,9v35l-65,1 -15,-62Z"/>
    <path data-geo-id="901588190" data-name="Woodstock" d="M857,33h30l15,62 -1,10 -53,2h-27v-29l-1,-11v-11l-1,-8v-15Z"/>
    <path data-geo-id="901573420" data-name="Sterling" d="M940,282l9,-81 23,-4v3l1,11v22l1,5v20l1,12v15h-4l-11,-2 -2,1 -12,-2h-5Z"/>
    <path data-geo-id="900903250" data-name="Beacon Falls" d="M345,401l7,6 5,-8 14,6 -3,26 -5,-1 -11,-2 -10,13 -5,-6Z"/>
    <path data-geo-id="901171670" data-name="Sprague" d="M817,273h1l1,1h2l5,1 11,2 3,1h4l12,3 -5,12 3,13 -6,9 -8,-8 -20,5 -7,-40Z"/>
    <path data-geo-id="901178600" data-name="Voluntown" d="M927,285l4,-1 9,-2h6l12,2 2,-1 11,2h4v21l-1,7v45l-1,1v14l-35,-7Z"/>
    <path data-geo-id="901180280" data-name="Waterford" d="M765,435l10,-1 44,-9 2,1 3,1 1,23 -1,2 -6,2 -8,11v7l8,8 5,25 -2,1 -14,2 -10,-9 -4,6 -7,-10v-1l-5,-15 -2,-20Z"/>
    <path data-geo-id="901166210" data-name="Salem" d="M714,366l50,-14 -3,13 4,13 3,28 -5,7 -9,2 -17,2 -15,3v-12l-3,-15h-1l-2,-14 -1,-4v-5l-1,-2v-2Z"/>
    <path data-geo-id="901562710" data-name="Putnam" d="M902,95l65,-1 1,2v16l-46,15 -12,9 -9,-31Z"/>
    <path data-geo-id="901586790" data-name="Windham" d="M746,229h28v-2h1l3,-1 -2,-2 -1,-1v-2l1,-1v-1l1,-1h1v-1h1v-3h1v-1h-1v-2h4l1,1v3l1,-1h1v1h1l1,-1v-1h2v1l3,-1h1v-1l22,5 -5,20 1,34 -15,-3 -3,7 -1,-1 -4,-3 -1,-1 -2,-1v-1l-1,-1 -1,-2h-1l-2,-1v-1h-1l-3,-4 -1,-1 -7,-6 -1,-1h-1l-1,-1 -2,-1v-1h-1l-2,-3 -3,-3 -2,-2 -1,-2h-2v-1l-1,-1h-1v-2l-1,-1v-1l-1,-1h-3Z"/>
    <path data-geo-id="900560750" data-name="Plymouth" d="M356,242l28,-4v2l1,2v6l2,6v2l1,5v2l1,5v4l2,9v1l1,5 -8,6 -2,1h-1l-8,1 1,9 -7,-1 -7,3 -2,1 -6,-22Z"/>
    <path data-geo-id="900156060" data-name="Norwalk" d="M149,628l13,-25 31,-10 -1,15 4,17 -2,18 -6,7 -8,-9 1,15 -5,-1 -10,13 -4,-2v-18Z"/>
    <path data-geo-id="900104720" data-name="Bethel" d="M184,425l14,4 15,46 -38,10 -5,-26 17,-18Z"/>
    <path data-geo-id="900108070" data-name="Bridgeport" d="M263,556l23,-1 12,5 7,-5 -2,9 4,22 -4,10 -9,-5 -3,9h-8l-12,12 -4,-3v1l-1,-7 7,-7 1,-22Z"/>
    <path data-geo-id="900108980" data-name="Brookfield" d="M167,383l1,-1h1v-1l1,-1 3,-1v-1h2l5,-2v-1h1l1,-1 4,-2 2,-1 2,-1 1,-1h3v-1l1,1 4,15 22,12 -23,33 -14,-4 -4,-2 -5,-22 -9,-5Z"/>
    <path data-geo-id="900118500" data-name="Danbury" d="M117,457l1,-7v-12l1,-2 1,-10v-5l1,-4v-1l54,-15 5,22 4,2 3,16 -17,18 5,26 -23,5 -8,-19 -8,-4 -1,-10 -18,2v-1Z"/>
    <path data-geo-id="900118850" data-name="Darien" d="M136,628h13l13,20v18l-9,2 -5,11 -10,-7v1l-11,-19 4,-22Z"/>
    <path data-geo-id="900123890" data-name="Easton" d="M201,524l32,-14 -10,-16 10,-6 16,8 1,5 -2,12v6l19,30 -7,4 -6,13 -8,-10 -11,9h-14v-12Z"/>
    <path data-geo-id="900126620" data-name="Fairfield" d="M217,577l4,-12h14l11,-9 8,10 6,-13 3,3 11,18 -1,22 -7,7 1,7 -4,11 -9,6 -13,-6 -4,2h-1v-14l-5,-4Z"/>
    <path data-geo-id="900133620" data-name="Greenwich" d="M35,630h2l3,-3 15,-9 13,-8 1,-1h2l31,54 8,25h-1l-10,11 2,-6 -14,-1 -13,10 -10,-4 -4,12 -1,-17 -1,-1v-1l-1,-1 -1,-1v-1h-1v-2l-1,-1 -2,-1 -6,-11 -2,-3v-2h-1l-1,-4 -2,-2 -5,-7v-1l-4,-5 -2,-2v-4h-2l-1,-2 -1,-3v-2Z"/>
    <path data-geo-id="900148620" data-name="Monroe" d="M294,449l3,5 9,5 -8,14 -2,11 -14,25 -34,4 2,-12 -1,-5 -16,-8 37,-25 6,4 8,-5 3,-11Z"/>
    <path data-geo-id="900150580" data-name="New Canaan" d="M124,577h1l6,-4 2,-2h1l7,-4h2l1,-1v-1l7,12 3,21 8,5 -13,25h-24l-4,-26 -11,-16 1,-1Z"/>
    <path data-geo-id="900150860" data-name="New Fairfield" d="M121,414v-21l1,-2v-2l2,-25 39,-9 3,8 1,6 -1,2v7l1,5 -1,13 9,5 -54,15Z"/>
    <path data-geo-id="900152980" data-name="Newtown" d="M198,429l23,-33 9,3 1,-1h2v-1h4v14l12,-2 1,2 3,7v2h5l5,-2 4,8 5,-2 6,3 3,3 12,9 1,10 -7,2 -3,11 -8,5 -6,-4 -37,25 -10,6 -4,3 -6,-22Z"/>
    <path data-geo-id="900163970" data-name="Ridgefield" d="M114,497v-11l3,-27 18,-2 1,10 8,4 8,19 2,9 7,7 2,16 5,9 -32,18 -3,-7 -2,-2 -2,-3 -2,-1 -1,-4 -1,-1 -1,-1 -6,-11 -5,-9Z"/>
    <path data-geo-id="900168170" data-name="Shelton" d="M306,459l1,1 2,3 2,2 4,4v5l1,1 6,4v3l2,1 3,5 8,7 4,3 1,1 1,1h1l2,1 1,3 1,2 4,2 1,1v4l-2,3 -1,1 -2,1 -2,1 -1,1 -2,1 -1,3 -1,3v8l1,4 -10,-7 -19,6 -4,-9h-10l-15,-20 14,-25 2,-11Z"/>
    <path data-geo-id="900168310" data-name="Sherman" d="M125,351v-9l2,-31 2,-7v-23l2,-13 5,1v2h2v1l2,1h1v-1h1l1,2v2l1,1v1l2,2 1,1h-4l-1,1 -1,4v1l2,8 1,5v1l5,11h1l4,14v2l4,9 2,9 3,9 -39,9Z"/>
    <path data-geo-id="900173070" data-name="Stamford" d="M72,608l4,-2 4,-2 6,-5h1l2,-1 21,-12 11,16 4,26h11l-5,4 -4,22 11,19 -13,6 2,5 -6,8v-10l-10,4 -1,2 -8,-25 -31,-54Z"/>
    <path data-geo-id="900174190" data-name="Stratford" d="M301,602l1,-3 1,-3 4,-10 -4,-22 2,-9 9,-6 -3,-11 19,-6 10,7v1l-1,2 -1,2 -7,7 -1,2 -4,4 2,17 -7,16 9,8v7l-12,4Z"/>
    <path data-geo-id="900177200" data-name="Trumbull" d="M248,513l34,-4 15,20h10l4,9 3,11 -9,6 -7,5 -12,-5 -23,1 -3,-3 7,-4 -19,-30Z"/>
    <path data-geo-id="900183430" data-name="Weston" d="M172,537l29,-13 20,29v12l-4,12 -18,13 -3,-8Z"/>
    <path data-geo-id="900183500" data-name="Westport" d="M193,593l3,-11 3,8 18,-13 14,28 5,4v14l-6,7h-16l-5,7 -9,-5 -4,9 -2,2 2,-18 -4,-17Z"/>
    <path data-geo-id="900186370" data-name="Wilton" d="M168,531l4,6 24,45 -3,11 -31,10 -8,-5 -3,-21 -7,-12v-1l-3,-7 -5,-8Z"/>
    <path data-geo-id="900163480" data-name="Redding" d="M152,490l23,-5 38,-10 6,22 4,-3 10,16 -32,14 -29,13 -4,-6 -5,-9 -2,-16 -7,-7Z"/>
  </g>
  <path class="mesh" d="M330,553l1,-2 7,-7 1,-2 1,-2v-1l-1,-4v-8l1,-3 28,16 19,5 2,6M605,533v-5l-1,-7 -1,1h-2l-1,-1v-2l-2,-2 -1,-1h-1v-1l-2,-2 -7,-7 -1,-3 26,-18 10,-3 13,46M332,385v4l13,12 -8,34 5,6 -13,4 -2,7 -16,13 -2,-2 -2,-3 -1,-1 -9,-5 -3,-5 -1,-10 -12,-9 21,-18 4,-9v-18M694,481l14,-9 29,-7 9,26 5,18M887,475l5,-25 -1,-7v-9l9,-14 50,16M552,532v-1l3,-15 8,-6v-9l-17,-16 -6,-13v-50l4,-1h1l1,-1 6,-1 1,2 1,-1 1,1v1l1,2h1l1,1 -1,1 -3,7 9,3 4,8 3,6 2,2 2,10 -1,15 -2,11 9,2 1,1 2,4h1l2,2 -2,2 2,4M327,336l3,-1 5,-2 2,-1 2,17 10,20h-13l-4,16h-26l1,-16v-1l-1,-6 -1,-5v-3l-2,-13h10l2,-2 4,-1 1,-1h6l1,-1M281,430l-3,-3 -6,-3 -5,2 -4,-8 -5,2h-5v-2l-3,-7 -1,-2 -12,2v-14h-4v1h-3l-1,-1 -6,-8 4,-14 6,-1 4,-1h2l5,-1 8,-1 6,-1h9l4,1h5l1,1h4l2,1 3,-1 9,-1h2l2,-1 7,-1h1M349,369l25,-4 19,-8 5,2 10,5 7,10 -9,28 -24,-4 -8,-33M823,505l-5,-25 -8,-8v-7l8,-11 6,-2M359,447l1,23 4,22 -12,1 -17,-10 -2,-9 3,-4h24M451,545l4,-12 -5,-4 3,-14 8,-5 1,-8 7,-5 12,-4 14,13 13,-4 7,28 -4,5M406,402h3l-8,17 5,13 6,4 -7,11 -37,4 -9,-4 4,-17 5,1 3,-26 10,-2 1,-5M508,502l1,-8 -3,-49 14,-19 5,-1h3l5,-2h1l6,-1M398,359l2,-4 4,-12 6,-2 14,-2h1l6,-1 1,-1h10l4,5v1l4,4 5,1 -3,13 4,7 2,8 -20,37 -15,-8 -14,-3M364,492l-1,8 -9,1 -4,7 -4,-2 -1,-2 -1,-3 -2,-1h-1l-1,-1 -1,-1 -4,-3 -8,-7 -3,-5 -2,-1v-3l11,-5M432,542l6,-2v-24l7,-11 6,-19 16,-5 1,-12 4,-1 -3,29M384,240v-3l-2,-11 -2,-11 -5,-31 9,-1h1l3,-1h3l5,-1 9,-2h4l12,-2h1l25,-4 35,-6v13l1,30 -49,-4 -6,-7 -6,-3 -4,-15 4,-4M482,167l7,-1v-19l11,-33 11,9 -2,9 25,8 2,41 -15,-2 -39,1M428,199l5,34M500,114l-4,-8h-8l11,-45 27,8 -4,16 13,1 -4,17 -12,-4 -8,24M622,29l1,2 1,13 1,1v5l1,3v12h1v4l1,4v2l2,12h-6l-4,1 -53,7 4,-6 5,-31 -2,-22M483,210l7,8v9l9,-3v12l1,4 -13,2 -14,14 -38,-6M625,282l3,-10 9,-3 2,-12 11,-2v1l1,2 1,7 2,2 4,2 4,3 1,2 2,7 3,6 3,16v9l-3,5 -1,2h-1l-3,1 -1,1h-3l-5,1 -5,1h-5l-1,-2 -2,-3 -1,-1 -1,-4 -3,-5 -5,-9 -2,-6 -4,-10v-1l-5,1h-3l-2,1 -4,1h-5l-11,2 -5,1 -5,1 -9,1h-3l-8,2h-1l1,-5 2,-19 7,-4 -4,-8 -9,-2 9,-9 -16,-12 7,-1 31,-6 53,-8v6l1,6v3l2,7v4l1,5v2l1,2v2M536,181l20,-2v12l-9,10v5l10,14 -2,10 -28,2 -5,1 -1,-54M556,184l31,-2 5,44M561,232l-6,-2M587,182l38,-12h-1v7l2,-1h2l1,-1h5l5,-1 1,8v2l1,5v4l1,3v6l1,2v3l2,11M500,240l5,40M474,283l-5,-6v-9l4,-12M370,74l3,-16v-3l7,-28M451,28l-12,42M499,236l23,-3M527,232l-1,12 3,20 -2,5 1,9 -6,1M469,277l-29,4M447,173l-2,-24 -1,-45 44,2M461,334l-4,1 1,8v2l1,2v1l-1,1h-2l-1,-1M556,179l3,-15 7,-9 2,-16 50,-2v9h2l2,-1 6,-2v2l-2,15v1l-1,6v3M570,256l-23,5 -2,7 -18,1M531,103l13,5 15,11 8,-5 1,25M535,86l36,3M567,95v19M409,179l2,-9 1,-4v-2l1,-4 1,-1v-3l-8,-4v-4l1,-1 3,-10v-3l2,-10v-3M430,103l14,1M342,441l10,-13 11,2M322,479l-6,-4 -1,-1v-5l-4,-4M371,405l-14,-6 -5,8 -7,-6M651,422l-14,-28 2,-8 -6,-9 4,-12 10,-10 5,9 10,-2h7l13,-3h6l10,-2h10l6,-1v12l1,2v5l1,4 2,14h1l3,15v12h-5l-8,2h-1l-2,1 -10,1h-1l-10,1 -2,1 -10,1h-1l-6,1 -2,1h-1l-1,-1h-2M620,88v21l-1,5v21l-1,2M972,197l-23,4 -38,6 5,-13 8,-3 2,-8 -11,-13 1,-7 -8,-15 2,-12 12,-9 46,-15M410,341v-2l3,-20 1,-5 1,-2v-7l-1,-5v-3l-1,-10v-2M820,312l20,-5 8,8 6,-9 -3,-13 5,-12 6,1h1l8,3h4l4,1 2,1h2l-4,16 -2,32 -12,-3 -3,10 -13,-1 2,-17 -3,-9M565,287h-1l-2,1 -7,1 -1,1h-1l-11,2 -6,1h-1l-6,1h-7M499,61l-8,-1 2,-9M564,292l5,18 -9,7 -6,13 -8,-7 -2,-9 -22,-4M520,426l-8,1 -2,1 -2,1 2,-9v-1l1,-8v-9l1,-2v-2l1,-9 28,-8 21,-2 3,11 -4,13 13,13 -22,3M828,418l10,-17 8,-14 47,-2 7,35M891,443h-64M438,413l17,9 -15,7 -2,19 -10,17 12,4 5,8 -8,11 -6,3 -7,-4 -19,-2 2,-7h-11l-2,-8 11,-23M504,327l1,4v9l1,8v2l1,10v5l1,5v10l-12,2 -17,-8 -23,-6M708,285l-11,-38 13,-25 13,9 18,5 9,-3 1,1v2h1l1,1v1h1M710,222l-11,-17h-29l-4,-28 -2,-11 56,-8 -1,1 -2,20 11,6 10,16 2,17 6,11v2h3l1,1v1M719,159h71v9l1,2 2,24v8l1,2v9h-1l-3,1v-1h-2v1l-1,1h-1v-1h-1l-1,1v-3l-1,-1h-4v2h1v1h-1v3h-1v1h-1l-1,1v1l-1,1v2l1,1 2,2 -3,1h-1v2h-28M697,247l-21,3 -12,-23 10,-1 -4,-21M219,20l-6,13 -2,17 -4,2 -4,23 5,30 -66,-4M227,375h-6l-5,-40 -3,-19 40,-6 4,40 3,20M437,488l14,-2M412,522l-6,-9 -2,-11 -16,-1 -4,-1v-6l12,-16M472,468v-23l36,-16M455,422l2,5 8,1h1l2,18 4,-1M340,524l1,-3 2,-1 1,-1 2,-1 2,-1 1,-1 2,-3v-4l-1,-1M363,500h21M388,501l3,6 -4,22v16M508,380l1,10 4,-1M337,332h1l1,-3h1v-2l1,-1v-2l2,-1 3,-2h6l3,-13 3,-1 2,-1 7,-3 7,1 2,19 17,21 11,-1M820,218l3,-14 2,-43h23l11,2 4,14 -4,31 -11,19h-3M622,482l-1,-3 7,-1 13,9 17,1 6,5 -3,8 7,21M683,456l-13,5 -6,6 -21,12 -2,8M621,479l-5,-20M644,323l1,3 1,5 2,3v2l1,1 2,4 1,3 1,2 9,16M637,365l-36,6 2,-16 -5,-11 1,-17 7,-11v-13l7,-1 -7,-17M671,312h1l3,4 9,5 5,-9 2,1h2l3,1h7l1,-1 2,-1h1l2,-2 1,-1h1l1,-2v-6M777,319l24,8 4,5 2,14 -4,5 2,24h-3l-14,-6 -12,1 -15,-5 3,-13 -50,14M737,465l-2,-16 2,-32 17,-2 11,20 14,24 2,20 5,15M883,287h2l7,2h5l3,-1h2l7,-1 7,-1 11,-1 11,81 -19,-2 -25,-31 -17,2M794,275l3,-7 15,3M813,272l7,40 -10,24 -5,-4M722,420l15,-3M754,415l9,-2 5,-7 -3,-28 -4,-13M805,375l14,1 13,6 6,19M821,426l-2,-1 -44,9 -10,1M938,366l35,7M893,385l-5,-27 31,6M849,341l-2,7 5,9 -10,12 -3,-4 -2,18 -5,-1M562,379l39,-8M608,430l-15,4 -19,-18M691,482l-6,6 -21,5M506,350l26,-4 7,16 2,19M598,344l-24,-7 -16,1 -4,-8M391,281l-2,-9v-4l-1,-5v-2l-1,-5v-2l-2,-6v-6l-1,-2 49,-7 2,17 5,31 -27,4h-7l-3,1h-2l-1,1h-8l-1,-5v-1M630,87l42,-8 -1,11h50v8l-61,9 2,27 -33,5 -1,4M646,230l18,-3M672,79l4,-48M769,31l-10,40 -4,8 -1,11h-33M640,184l26,-7M721,98l7,21 -10,15 4,15 -2,9M664,166l-2,-32M763,79h-8M819,33v15l1,8v11l1,11h-52l-6,1v10l1,5v65M231,398l-1,1 -9,-3 -22,-12 -4,-15 -1,-1 -6,-4 -2,-14 15,-15h15M257,107l-20,89 -22,-1 -19,-1h-15l3,-5 19,-22 -3,-10 1,-15 6,-5 3,-12 -2,-20M368,74h2l5,-1 9,-1h9l9,-1h24l9,-1h4l-2,6 -1,3 -1,2 -1,5 -1,4 -1,2v5l-2,6v2l-5,15h-7l-5,1h-1l-55,4 11,-51 -57,4 11,-54M796,78l4,22 15,30v31l-25,-2M863,177h11v-8l7,-6h35M911,207l2,12 -54,-11M913,219l-16,12 -5,-2 -5,8 5,22 4,4 -3,26M856,281l-12,-3h-4M815,161h10M816,217l4,1 13,6 12,3 -2,21 2,8 -5,22 -3,-1 -11,-2 -5,-1h-2l-1,-1h-1l-4,-1 -1,-1 -1,-34 5,-20 -22,-5M257,107l47,2 -3,12 -17,68 -46,7h-1M384,238l-28,4 -6,1 -10,-7 -13,-16 -2,-22 9,-13 12,-1h29M136,187l48,2M196,194l-8,17 1,13 10,23 -1,11 -60,9 -2,2 -5,-1M256,271l44,-3 6,37 -47,4 -3,-38 1,-13 -8,-7v-9l37,-2 21,-2 8,27 -15,3M821,78v29h27v54M949,201l-9,81 -9,2 -4,1M848,107l53,-2 9,31M284,189l20,-3 2,5 19,7M355,308h-1v-8l-8,-7 -2,-12 -16,-8 -9,-1 -4,-7M249,251l-9,-9 -2,-46M301,121l9,4v10l47,-10M194,368v1h-3l-1,1 -2,1 -2,1 -4,2 -1,1h-1v1l-5,2h-2v1l-3,1 -1,1v1h-1l-1,1 -1,-5v-7l1,-2 -1,-6 -3,-8 -3,-9 -2,-9 -4,-9v-2l-4,-14h-1l-5,-11v-1l-1,-5 -2,-8v-1l1,-4 1,-1h4l-1,-1 -2,-2v-1l-1,-1v-2l-1,-2h-1v1h-1l-2,-1v-1h-2v-2M198,258l1,16 9,7 5,35M468,342l1,-4v-1h-2l1,-5h-1l-6,2 7,-12 2,-23 4,-16 31,-3 17,-1v15l2,7v2l-2,7 -7,2 -2,5h-5l-4,2v8l-8,1h-1l-3,1h-2l-10,2 -3,4 -1,2 -5,7 -3,-2M271,22l-5,34M356,242l-4,43 6,22M311,78l-7,31M240,242l-23,7 -18,-2M259,309l-6,1M313,341l-7,-36M374,304l-1,-9 8,-1h1l2,-1 8,-6M967,94l-65,1 -15,-62M902,95l-1,10M975,285h-4l-11,-2 -2,1 -12,-2h-6M162,666v-18l-13,-20 13,-25 31,-10 -1,15 4,17 -2,18M267,610l-1,-7 7,-7 1,-22 -11,-18 23,-1 12,5 7,-5 -2,9 4,22 -4,10M221,396l-23,33M184,425l14,4 15,46 -38,10 -5,-26 17,-18 -3,-16 -4,-2 -5,-22 -9,-5 1,-13M121,416l54,-15M175,485l-23,5 -8,-19 -8,-4 -1,-10 -18,2M138,673l-11,-19 4,-22 5,-4h13M758,242l3,3 2,3h1v1l2,1 1,1h1l1,1 7,6 1,1 3,4h1v1l2,1h1l1,2 1,1v1l2,1 1,1 4,3 1,1 -17,44 -13,33 -27,-30 -25,-21 -1,-5 -1,-2 -1,-7 -1,-2 1,-1 13,-6 5,-4v-1l1,-1h1l2,-3 4,-4h4l1,2 1,-3v-1l-1,-5 -3,-4v-1h4v1l1,-1v-2h1v-2l2,-2 4,-2h1l1,-2v-3l1,-2h3l1,2 2,2M217,577l-18,13 -3,-8 -24,-45 29,-13 32,-14 -10,-16 10,-6 16,8 1,5 -2,12v6l19,30 -7,4 -6,13 -8,-10 -11,9h-14v-12l-20,-29M236,623v-14l-5,-4 -14,-28 4,-12M260,553l3,3M71,609l31,54 8,25M306,459l-8,14 -2,11 -14,25 -34,4M233,488l37,-25 6,4 8,-5 3,-11 7,-2M144,565l7,12 3,21 8,5M136,628h-11l-4,-26 -11,-16M124,364l39,-9M223,494l-4,3 -6,-22M152,490l2,9 7,7 2,16 5,9 -32,18M340,539l-10,-7 -19,6 -4,-9h-10l-15,-20M305,555l9,-6 -3,-11M193,593l3,-11M168,531l4,6M662,443l-12,12 -34,4 -8,-29 43,-8 9,6M211,50l55,6 -9,51 -49,-2M350,243l-35,22M346,184l3,-9 8,-50"/>
  <g class="cities">
    <circle r="7" cx="282" cy="596"/>
    <text x="282" y="596">Bridgeport</text>
    <circle r="7" cx="418" cy="504"/>
    <text x="418" y="504">New Haven</text>
    <circle r="7" cx="537" cy="207"/>
    <text x="537" y="207">Hartford</text>
  </g>
</svg>