<?xml version="1.0" encoding="utf-8"?>
<!DOCTYPE svg PUBLIC "-//W3C//DTD SVG 1.1//EN" "http://www.w3.org/Graphics/SVG/1.1/DTD/svg11.dtd">
<svg version="1.1" xmlns="http://www.w3.org/2000/svg" width="1000" height="729" viewBox="0 0 1000 729">
  <path class="state" d="M622,29l82,2h98l17,2h72l30,1h44l2,23v38l6,114 2,76 -1,73 -2,71h-12l-10,5 5,23 -3,8 4,14 -15,13 -10,-15 -15,9 -1,-10 -3,12 -9,-5 -7,3 -8,-11 -8,16 -9,4v8l-21,-10 -10,5 -8,-17 -1,-18 -5,-26 3,-5 -5,-14v41l5,8 -5,18 5,8 -3,9 -7,6 -17,-2 -5,-7 -4,6 -7,-11 -7,-1 -6,7 1,16 -11,-7 -14,1 -3,9h-9l-25,5 -9,-16 2,-19 -11,-8 -6,-12 3,-9 -7,-9 -11,-1 -7,-7 -4,-15v15l3,8 16,2 5,9 -5,9 14,14 6,10 -3,27 -7,5 7,2 -15,6 -7,-13 -11,3 -15,-3 -5,8 -11,-2 -9,9 -7,-9 -13,5 1,2 4,3 -4,4 -13,-12 -26,-2 -17,4 -3,-4 -14,17 -11,-1 7,-6h-14l-11,-7 -16,1 -17,12 -3,-12 -5,10 -3,-6 -9,9 -17,1 -4,-16 -1,-17 -7,2 -8,13 7,2 -19,10 -8,13 -13,7 -6,11 -15,-4 -21,15 -5,8 -11,-3 7,-14v-20l-4,4 2,17 -7,16 9,8v7l-12,4 -21,-9 6,-4 -10,-5 -2,9h-8l-16,9 -4,12 -9,6 -13,-6 -11,9h-16l-5,7 -13,-3 5,7 -7,2 -6,7 -8,-9 1,15 -12,5v7h-16l-5,11 -10,-7 -13,7 2,5 -6,8v-10l-22,17 2,-6 -14,-1 -13,10 -10,-4 -4,12v-15l-15,-23 -20,-36 35,-21 83,-48 1,-3 -31,-54 1,-25 4,-47 3,-33v-14l10,-123 3,-48 4,-54 4,-65 2,-24 4,-59h33l199,9 94,1 -2,26 25,-3 1,-13 5,-10h33l38,3v5l17,-3Z"/>
  <g class="counties">
    <path data-fips-int="9003" data-name="Hartford County" d="M622,29l8,58 -10,1 -2,58 10,-3 -4,34 15,-3 3,28 10,63 10,7 10,22 -1,18 -4,7 -23,4 -19,-41 -61,10 1,-5 -43,7v16l-18,9v8l-24,4 -9,13 -3,-12 -11,3 2,14 -11,-2 -6,-10 -32,4 5,-29 -2,-27 -21,2 -4,-28 -13,-75 34,-5 5,-23 -7,-1 -1,-7 6,-27 13,-1 14,-50 -37,1 -32,3 10,-47 94,1 -2,26 25,-3 1,-13 5,-10h33l38,3v5l17,-3Z"/>
    <path data-fips-int="9005" data-name="Litchfield County" d="M380,27l-10,47 32,-3 37,-1 -14,50 -13,1 -6,27 1,7 7,1 -5,23 -34,5 13,75 4,28 -10,7 -9,1 1,9 -8,-1 -12,5v13h-11l-5,11 -25,9h-10l4,28 -24,4 -25,-3 -31,5 -4,12 8,11 -23,-8 -17,-21 -24,14 -1,-20 -25,-76 6,-6 -5,-9 -11,-4 3,-48 4,-54 4,-65 2,-24 4,-59h33Z"/>
    <path data-fips-int="9009" data-name="New Haven County" d="M504,327l5,63 4,-1 -3,31 -2,9 43,-10 6,7 -3,6 8,4 10,16 3,13 -4,24 9,1 7,17 19,19 -1,7 1,2 4,3 -4,4 -13,-12 -26,-2 -17,4 -3,-4 -14,17 -11,-1 7,-6h-14l-11,-7 -16,1 -17,12 -3,-12 -5,10 -3,-6 -9,9 -17,1 -4,-16 -1,-17 -7,2 -8,13 7,2 -19,10 -8,13 -13,7 -6,11 -15,-4 -21,15 -5,8 -11,-3 7,-14v-20l10,-13 1,-19 10,-12 -25,-21 -4,-9 -14,-17 -3,-8 -13,-7 1,-6 -16,-16 -14,-1v-6l-10,2 -4,-11 -13,1 2,-9 -7,-3 -8,-11 4,-12 31,-5 25,3 24,-4 -4,-28h10l25,-9 5,-11h11v-13l12,-5 8,1 -1,-9 9,-1 10,-7 21,-2 2,27 -5,29 32,-4 6,10 11,2 -2,-14 11,-3 3,12 9,-13Z"/>
    <path data-fips-int="9013" data-name="Tolland County" d="M819,33l2,45h-38l-20,1 1,15v65h26l4,54 -15,-2 -6,18h-27l8,9 -19,27 -14,14 -12,5 3,17 -1,8 -15,5 -9,-2 -3,8 -13,-8 1,-18 -10,-22 -10,-7 -10,-63 -3,-28 -15,3 4,-34 -10,3 2,-58 10,-1 -8,-58 82,2h98Z"/>
    <path data-fips-int="9015" data-name="Windham County" d="M975,285l-35,-3 -43,7 -101,-20 -2,6 -40,-37 -8,-9h27l6,-18 15,2 -4,-54h-26v-65l-1,-15 20,-1h38l-2,-45h72l30,1h44l2,23v38l6,114Z"/>
    <path data-fips-int="9001" data-name="Fairfield County" d="M231,398l7,3 -2,9 13,-1 4,11 10,-2v6l14,1 16,16 -1,6 13,7 3,8 14,17 4,9 25,21 -10,12 -1,19 -10,13 -4,4 2,17 -7,16 9,8v7l-12,4 -21,-9 6,-4 -10,-5 -2,9h-8l-16,9 -4,12 -9,6 -13,-6 -11,9h-16l-5,7 -13,-3 5,7 -7,2 -6,7 -8,-9 1,15 -12,5v7h-16l-5,11 -10,-7 -13,7 2,5 -6,8v-10l-22,17 2,-6 -14,-1 -13,10 -10,-4 -4,12v-15l-15,-23 -20,-36 35,-21 83,-48 1,-3 -31,-54 1,-25 4,-47 3,-33v-14l10,-123 11,4 5,9 -6,6 25,76 1,20 24,-14 17,21Z"/>
    <path data-fips-int="9007" data-name="Middlesex County" d="M644,323l17,39 53,-6 4,37 4,27 -60,8v15l3,8 16,2 5,9 -5,9 14,14 6,10 -3,27 -7,5 7,2 -15,6 -7,-13 -11,3 -15,-3 -5,8 -11,-2 -9,9 -7,-9 -13,5 1,-7 -19,-19 -7,-17 -9,-1 4,-24 -3,-13 -10,-16 -8,-4 3,-6 -6,-7 -43,10 2,-9 3,-31 -4,1 -5,-63v-8l18,-9v-16l43,-7 -1,5 61,-10Z"/>
    <path data-fips-int="9011" data-name="New London County" d="M975,285l-1,73 -2,71h-12l-10,5 5,23 -3,8 4,14 -15,13 -10,-15 -15,9 -1,-10 -3,12 -9,-5 -7,3 -8,-11 -8,16 -9,4v8l-21,-10 -10,5 -8,-17 -1,-18 -5,-26 3,-5 -5,-14v41l5,8 -5,18 5,8 -3,9 -7,6 -17,-2 -5,-7 -4,6 -7,-11 -7,-1 -6,7 1,16 -11,-7 -14,1 -3,9h-9l-25,5 -9,-16 2,-19 -11,-8 -6,-12 3,-9 -7,-9 -11,-1 -7,-7 -4,-15 60,-8 -4,-27 -4,-37 -53,6 -17,-39 23,-4 4,-7 13,8 3,-8 9,2 15,-5 1,-8 -3,-17 12,-5 14,-14 19,-27 40,37 2,-6 101,20 43,-7Z"/>
  </g>
  <path class="mesh" d="M622,29l8,58 -10,1 -2,58 10,-3 -4,34 15,-3 3,28 10,63 10,7 10,22 -1,18 -4,7 -23,4 -19,-41 -61,10 1,-5 -43,7v16l-18,9v8l-24,4 -9,13 -3,-12 -11,3 2,14 -11,-2 -6,-10 -32,4 5,-29 -2,-27 -21,2 -4,-28 -13,-75 34,-5 5,-23 -7,-1 -1,-7 6,-27 13,-1 14,-50 -37,1 -32,3 10,-47M392,287l-10,7 -9,1 1,9 -8,-1 -12,5v13h-11l-5,11 -25,9h-10l4,28 -24,4 -25,-3 -31,5 -4,12 8,11 -23,-8 -17,-21 -24,14 -1,-20 -25,-76 6,-6 -5,-9 -11,-4M504,327l5,63 4,-1 -3,31 -2,9 43,-10 6,7 -3,6 8,4 10,16 3,13 -4,24 9,1 7,17 19,19 -1,7M330,553l10,-13 1,-19 10,-12 -25,-21 -4,-9 -14,-17 -3,-8 -13,-7 1,-6 -16,-16 -14,-1v-6l-10,2 -4,-11 -13,1 2,-9 -7,-3M819,33l2,45h-38l-20,1 1,15v65h26l4,54 -15,-2 -6,18h-27l8,9 -19,27 -14,14 -12,5 3,17 -1,8 -15,5 -9,-2 -3,8 -13,-8M975,285l-35,-3 -43,7 -101,-20 -2,6 -40,-37M644,323l17,39 53,-6 4,37 4,27 -60,8"/>
  <g class="cities">
    <circle r="7" cx="282" cy="596"/>
    <text x="282" y="596">Bridgeport</text>
    <circle r="7" cx="418" cy="504"/>
    <text x="418" y="504">New Haven</text>
    <circle r="7" cx="537" cy="207"/>
    <text x="537" y="207">Hartford</text>
  </g>
</svg>