<?xml version="1.0" encoding="utf-8"?>
<!DOCTYPE svg PUBLIC "-//W3C//DTD SVG 1.1//EN" "http://www.w3.org/Graphics/SVG/1.1/DTD/svg11.dtd">
<svg version="1.1" xmlns="http://www.w3.org/2000/svg" width="1000" height="1000" viewBox="0 0 1000 1000">
  <path class="state" d="M382,783l-3,4 8,12 20,8 15,9 11,18 11,2 20,-2 -1,-5 10,-9 -12,-4 3,-7 12,-7 6,-15 23,-2 9,-3 36,5 12,-4 5,6 38,-5v13h6l-1,10 -14,9 14,-3 21,1 8,18h9l-10,9 4,7 -14,10 4,3 -14,15 -9,4 -15,10 -27,7 -35,1 -13,-1 8,-11 -10,-6 2,-8 -12,-7 -15,-1 -11,-5 -5,9 -13,3 3,10 -23,-4 -17,-4 -21,-18 6,-10h-16l3,-14 11,-7v-8l-27,-17 -4,-9ZM327,753l8,1 -10,8 -4,-12ZM744,870l-9,10 -12,6v-6ZM563,956h-13l17,-6 11,-7 20,-1ZM558,965l-43,1 26,-8 18,1ZM704,564l-6,19 -16,32 -11,-1 -1,-10 8,-15 2,-14 8,-2 12,-12ZM930,677l-8,21 -11,24 -31,51 -44,53 -18,18 -29,19 -18,10 -23,6 4,-11 26,-25 20,-16 12,-16 18,-19 10,-17 -5,-14 -5,3 -1,-11 -6,1 3,-12 13,-12 9,-14 14,-28 15,-25 17,-1 24,-34 2,13 16,-23 1,21 -12,21 -4,21 -8,23 5,-9 27,-51ZM897,549l6,-1 8,19 -3,2 -19,-21 2,-7ZM954,513v23l5,-16 5,13 2,37 -4,31 -16,64 1,-15 9,-35 1,-10 -8,15 3,-33 3,-23 -6,-35 4,-3 -6,-17ZM938,486l-1,10h-8l-2,8h7l-4,12 1,22 -4,-7 -2,16 -1,-23 5,-36ZM891,540h-3l-13,-48 -13,-27 7,1 19,33 6,23ZM922,484v22l-6,23 -12,-7 -3,-26 2,-11 8,-10 5,-32 6,10 -1,20ZM932,420l3,27 -9,-22ZM820,465l-4,1 -3,-21 7,12ZM897,344l8,15 5,23 -14,-37ZM223,395l12,8 -12,4ZM206,375l12,16h-11v-10l-10,-10ZM783,158l10,5 27,33 -6,-3 8,14 19,22 -12,-9 -17,-23 -5,-12 -27,-25 -22,-16 9,1ZM727,124l17,8 -4,2 -17,-7ZM342,267v16l-18,-6ZM686,114l7,-2 15,9 -36,-9ZM479,282l-9,1 1,-7 13,-3ZM492,258l2,9 10,19 -16,3 -4,-20 3,-11ZM358,186l-4,10 -9,-2ZM470,228l1,4 -13,6 -9,-3 2,-9ZM499,83v9l-32,-6 8,-3ZM376,172l-11,9 15,-6v7l-11,4 -6,-2 -41,6 -14,13 1,20 -12,13 5,2 8,-10 16,-5 5,-8 16,-11 6,13 -10,12 15,-5 -11,17 3,14 -4,7 -20,3 -9,-5v7l-8,14 11,-3 -1,6 -21,3v-7l-15,6 -2,6h-14l-11,11 -8,11 -25,14 -10,25 -6,7 6,-27 -13,-9 -4,6 -11,-9 -15,12 -14,27 -3,21 3,6 12,-3 5,-10h10l-15,29 11,4 2,7 -6,20 6,16 6,-5 9,7 6,-10 16,-8 -3,8 31,5 19,23 16,4 10,20 -3,5 23,8 1,5 19,1 11,9 7,1 3,16 -13,20v22l-5,23 -10,3 -9,8 -2,21 -4,24 -9,7 4,7 -2,10 -9,3 5,7 -6,3 8,7v20l9,2 4,17 7,5 1,10 -13,-2 -23,-22 -26,-44 -18,-48 -13,-47 -25,-16 -24,-53 4,-12 -4,-1 2,-18 11,-16v-16l-4,-14 -3,8 -12,-6 -5,-9 -2,-19 -10,-10 -5,-15 -6,2 -6,-10 -6,-24 5,-13 7,-35 19,-44 -8,6 -20,52 9,-38 4,-4 8,-19 11,-15 6,-15 9,-13 25,-28 15,-11 25,-14 1,3 28,-25 36,-20 19,-6 11,-8 36,-17 20,-22 3,6 30,-6 13,1 -7,10 16,-5 7,2 -18,4 20,2 -16,12 -12,1 -36,13 -4,11 -27,18 4,6 -8,8 4,8 22,-8ZM401,143l-6,9 -24,9 2,-13 5,-5 21,-3ZM400,168l5,3 -9,12v7l-7,4v11l-11,4 2,-7 -13,14 -2,-8 -6,5 4,-10 17,-11 6,-8 -1,-14ZM395,138l7,-6 13,1 -11,9ZM589,196h-13l-9,-18 3,-5 10,19ZM499,92v-9h9l-6,-7h22l17,-3 5,3 34,4 3,-5h25l24,6 -14,5 -45,-3 5,3 39,10 25,15 43,17 -9,-10 9,-1 27,10 18,10 22,15 11,11 32,33 9,2 15,12 -2,6 -22,-15 4,15 -11,-11 17,24 5,-9 12,22 18,11 13,14 18,40 3,17 -1,17 -7,4 2,22 13,17 11,29 -6,26 -2,-9 -9,-14 -7,2 1,15 6,17 10,16 4,25h-3l-7,-18 -6,-22 -5,-10 -5,-27 -11,-23 -6,9 -3,-13 -20,-23 -7,11 2,8 -8,25 -3,3 5,31 -6,14 -22,-42 -10,-27 -6,4 -5,-7 -16,-13 -15,5 -25,-3 -14,-5 -8,-9 -7,2 22,25 7,-1 5,-12 8,11 10,5 -2,18 -18,18 -25,16h-7l-7,-22 -15,-16 -4,-11 -17,-17 -4,2 -9,-9 25,32 5,15 8,12 18,15 7,9 23,-8v8l-6,23 -7,12 -14,12 -17,23 -1,16 5,10 -1,20 -6,9 -9,3 -13,12 3,8 -5,10 -10,4 -3,11 -19,19 -33,6 -5,-13 -9,-21 -1,-20 -10,-24 10,-19 -2,-16 -5,-14 -13,-18 4,-18 -5,-7 -12,2 -7,-9 -26,7 -16,-1 -10,2 -19,-12 -5,-10 -12,-12 -3,-11 7,-14 -3,-12 5,-12 13,-16 15,-10 4,-13 11,-10 14,2 10,-5 31,-4 8,16 16,4 15,8 8,-12 26,7 20,-3 5,-16 -5,-7 -20,4 -8,-2 -7,-11 26,-14 11,3 10,-7 -21,-10v-6l-20,4 -4,17 5,5 -17,3 4,10 -7,7 -11,-13 -1,-7 -25,-14v5l17,15 -2,6 -28,-22 -6,7h-13l-9,18 -8,8 -13,3 -12,-4 1,-25 5,-3 20,2 3,-10 -11,-11h9l17,-11 3,-7 10,-3 -3,-10 6,-4 3,14h10l18,-8 -3,-8 7,1 -15,-19 6,-11 -4,-3 -9,14 6,9 -5,15 -6,3 -11,-14 -10,4 -3,-13 12,-10 10,-20 13,-7 28,6 2,8 -9,-2 6,9 9,-10 -4,-9 11,6 12,-18 12,-2 -15,-7 -4,-9 19,10 8,1 -20,-8 -16,-28 -9,-6 6,-7 12,5 -1,-13 -8,-2 12,-5 -15,-8 -8,1 -12,-13 -13,-3v-6l-38,-2ZM662,310l7,17 16,-1 -13,-20 -14,-9 6,-6 -4,-6 -9,3 -3,11ZM461,161v2h-25l-17,4 -1,-6 15,-1 16,-7ZM482,169l-4,4 11,4 -11,7 -8,17 -9,3 -13,14 -8,-1 -21,6 -13,8 -9,10 -8,-9 12,-23 20,-17 9,-13 -6,-5 10,-7 9,2 13,-6Z"/>
  <g class="counties">
    <path data-fips-int="0" data-name="" d="M382,783l-3,4 8,12 20,8 15,9 11,18 11,2 20,-2 -1,-5 10,-9 -12,-4 3,-7 12,-7 6,-15 23,-2 9,-3 36,5 12,-4 5,6 38,-5v13h6l-1,10 -14,9 14,-3 21,1 8,18h9l-10,9 4,7 -14,10 4,3 -14,15 -9,4 -15,10 -27,7 -35,1 -13,-1 8,-11 -10,-6 2,-8 -12,-7 -15,-1 -11,-5 -5,9 -13,3 3,10 -23,-4 -17,-4 -21,-18 6,-10h-16l3,-14 11,-7v-8l-27,-17 -4,-9Z"/>
    <path data-fips-int="0" data-name="" d="M327,753l8,1 -10,8 -4,-12Z"/>
    <path data-fips-int="0" data-name="" d="M744,870l-9,10 -12,6v-6Z"/>
    <path data-fips-int="0" data-name="" d="M563,956h-13l17,-6 11,-7 20,-1Z"/>
    <path data-fips-int="0" data-name="" d="M558,965l-43,1 26,-8 18,1Z"/>
    <path data-fips-int="0" data-name="" d="M704,564l-6,19 -16,32 -11,-1 -1,-10 8,-15 2,-14 8,-2 12,-12Z"/>
    <path data-fips-int="0" data-name="" d="M930,677l-8,21 -11,24 -31,51 -44,53 -18,18 -29,19 -18,10 -23,6 4,-11 26,-25 20,-16 12,-16 18,-19 10,-17 -5,-14 -5,3 -1,-11 -6,1 3,-12 13,-12 9,-14 14,-28 15,-25 17,-1 24,-34 2,13 16,-23 1,21 -12,21 -4,21 -8,23 5,-9 27,-51Z"/>
    <path data-fips-int="0" data-name="" d="M897,549l6,-1 8,19 -3,2 -19,-21 2,-7Z"/>
    <path data-fips-int="0" data-name="" d="M954,513v23l5,-16 5,13 2,37 -4,31 -16,64 1,-15 9,-35 1,-10 -8,15 3,-33 3,-23 -6,-35 4,-3 -6,-17Z"/>
    <path data-fips-int="0" data-name="" d="M938,486l-1,10h-8l-2,8h7l-4,12 1,22 -4,-7 -2,16 -1,-23 5,-36Z"/>
    <path data-fips-int="0" data-name="" d="M891,540h-3l-13,-48 -13,-27 7,1 19,33 6,23Z"/>
    <path data-fips-int="0" data-name="" d="M922,484v22l-6,23 -12,-7 -3,-26 2,-11 8,-10 5,-32 6,10 -1,20Z"/>
    <path data-fips-int="0" data-name="" d="M932,420l3,27 -9,-22Z"/>
    <path data-fips-int="0" data-name="" d="M820,465l-4,1 -3,-21 7,12Z"/>
    <path data-fips-int="0" data-name="" d="M897,344l8,15 5,23 -14,-37Z"/>
    <path data-fips-int="0" data-name="" d="M223,395l12,8 -12,4Z"/>
    <path data-fips-int="0" data-name="" d="M206,375l12,16h-11v-10l-10,-10Z"/>
    <path data-fips-int="0" data-name="" d="M783,158l10,5 27,33 -6,-3 8,14 19,22 -12,-9 -17,-23 -5,-12 -27,-25 -22,-16 9,1Z"/>
    <path data-fips-int="0" data-name="" d="M727,124l17,8 -4,2 -17,-7Z"/>
    <path data-fips-int="0" data-name="" d="M342,267v16l-18,-6Z"/>
    <path data-fips-int="0" data-name="" d="M686,114l7,-2 15,9 -36,-9Z"/>
    <path data-fips-int="0" data-name="" d="M479,282l-9,1 1,-7 13,-3Z"/>
    <path data-fips-int="0" data-name="" d="M492,258l2,9 10,19 -16,3 -4,-20 3,-11Z"/>
    <path data-fips-int="0" data-name="" d="M358,186l-4,10 -9,-2Z"/>
    <path data-fips-int="0" data-name="" d="M470,228l1,4 -13,6 -9,-3 2,-9Z"/>
    <path data-fips-int="0" data-name="" d="M499,83v9l-32,-6 8,-3Z"/>
    <path data-fips-int="0" data-name="" d="M376,172l-11,9 15,-6v7l-11,4 -6,-2 -41,6 -14,13 1,20 -12,13 5,2 8,-10 16,-5 5,-8 16,-11 6,13 -10,12 15,-5 -11,17 3,14 -4,7 -20,3 -9,-5v7l-8,14 11,-3 -1,6 -21,3v-7l-15,6 -2,6h-14l-11,11 -8,11 -25,14 -10,25 -6,7 6,-27 -13,-9 -4,6 -11,-9 -15,12 -14,27 -3,21 3,6 12,-3 5,-10h10l-15,29 11,4 2,7 -6,20 6,16 6,-5 9,7 6,-10 16,-8 -3,8 31,5 19,23 16,4 10,20 -3,5 23,8 1,5 19,1 11,9 7,1 3,16 -13,20v22l-5,23 -10,3 -9,8 -2,21 -4,24 -9,7 4,7 -2,10 -9,3 5,7 -6,3 8,7v20l9,2 4,17 7,5 1,10 -13,-2 -23,-22 -26,-44 -18,-48 -13,-47 -25,-16 -24,-53 4,-12 -4,-1 2,-18 11,-16v-16l-4,-14 -3,8 -12,-6 -5,-9 -2,-19 -10,-10 -5,-15 -6,2 -6,-10 -6,-24 5,-13 7,-35 19,-44 -8,6 -20,52 9,-38 4,-4 8,-19 11,-15 6,-15 9,-13 25,-28 15,-11 25,-14 1,3 28,-25 36,-20 19,-6 11,-8 36,-17 20,-22 3,6 30,-6 13,1 -7,10 16,-5 7,2 -18,4 20,2 -16,12 -12,1 -36,13 -4,11 -27,18 4,6 -8,8 4,8 22,-8Z"/>
    <path data-fips-int="0" data-name="" d="M401,143l-6,9 -24,9 2,-13 5,-5 21,-3Z"/>
    <path data-fips-int="0" data-name="" d="M400,168l5,3 -9,12v7l-7,4v11l-11,4 2,-7 -13,14 -2,-8 -6,5 4,-10 17,-11 6,-8 -1,-14Z"/>
    <path data-fips-int="0" data-name="" d="M395,138l7,-6 13,1 -11,9Z"/>
    <path data-fips-int="0" data-name="" d="M589,196h-13l-9,-18 3,-5 10,19Z"/>
    <path data-fips-int="0" data-name="" d="M499,92v-9h9l-6,-7h22l17,-3 5,3 34,4 3,-5h25l24,6 -14,5 -45,-3 5,3 39,10 25,15 43,17 -9,-10 9,-1 27,10 18,10 22,15 11,11 32,33 9,2 15,12 -2,6 -22,-15 4,15 -11,-11 17,24 5,-9 12,22 18,11 13,14 18,40 3,17 -1,17 -7,4 2,22 13,17 11,29 -6,26 -2,-9 -9,-14 -7,2 1,15 6,17 10,16 4,25h-3l-7,-18 -6,-22 -5,-10 -5,-27 -11,-23 -6,9 -3,-13 -20,-23 -7,11 2,8 -8,25 -3,3 5,31 -6,14 -22,-42 -10,-27 -6,4 -5,-7 -16,-13 -15,5 -25,-3 -14,-5 -8,-9 -7,2 22,25 7,-1 5,-12 8,11 10,5 -2,18 -18,18 -25,16h-7l-7,-22 -15,-16 -4,-11 -17,-17 -4,2 -9,-9 25,32 5,15 8,12 18,15 7,9 23,-8v8l-6,23 -7,12 -14,12 -17,23 -1,16 5,10 -1,20 -6,9 -9,3 -13,12 3,8 -5,10 -10,4 -3,11 -19,19 -33,6 -5,-13 -9,-21 -1,-20 -10,-24 10,-19 -2,-16 -5,-14 -13,-18 4,-18 -5,-7 -12,2 -7,-9 -26,7 -16,-1 -10,2 -19,-12 -5,-10 -12,-12 -3,-11 7,-14 -3,-12 5,-12 13,-16 15,-10 4,-13 11,-10 14,2 10,-5 31,-4 8,16 16,4 15,8 8,-12 26,7 20,-3 5,-16 -5,-7 -20,4 -8,-2 -7,-11 26,-14 11,3 10,-7 -21,-10v-6l-20,4 -4,17 5,5 -17,3 4,10 -7,7 -11,-13 -1,-7 -25,-14v5l17,15 -2,6 -28,-22 -6,7h-13l-9,18 -8,8 -13,3 -12,-4 1,-25 5,-3 20,2 3,-10 -11,-11h9l17,-11 3,-7 10,-3 -3,-10 6,-4 3,14h10l18,-8 -3,-8 7,1 -15,-19 6,-11 -4,-3 -9,14 6,9 -5,15 -6,3 -11,-14 -10,4 -3,-13 12,-10 10,-20 13,-7 28,6 2,8 -9,-2 6,9 9,-10 -4,-9 11,6 12,-18 12,-2 -15,-7 -4,-9 19,10 8,1 -20,-8 -16,-28 -9,-6 6,-7 12,5 -1,-13 -8,-2 12,-5 -15,-8 -8,1 -12,-13 -13,-3v-6l-38,-2ZM662,310l7,17 16,-1 -13,-20 -14,-9 6,-6 -4,-6 -9,3 -3,11Z"/>
    <path data-fips-int="0" data-name="" d="M461,161v2h-25l-17,4 -1,-6 15,-1 16,-7Z"/>
    <path data-fips-int="0" data-name="" d="M482,169l-4,4 11,4 -11,7 -8,17 -9,3 -13,14 -8,-1 -21,6 -13,8 -9,10 -8,-9 12,-23 20,-17 9,-13 -6,-5 10,-7 9,2 13,-6Z"/>
  </g>
  <path class="mesh" d="M499,83v9"/>
</svg>