<?xml version="1.0" encoding="utf-8"?>
<!DOCTYPE svg PUBLIC "-//W3C//DTD SVG 1.1//EN" "http://www.w3.org/Graphics/SVG/1.1/DTD/svg11.dtd">
<svg version="1.1" xmlns="http://www.w3.org/2000/svg" width="350" height="350" viewBox="0 0 350 350">
  <path class="state" transform="scale(0.1)" d="M1398,2839l9,30 -49,-43ZM1338,2742l-6,20 26,40 31,6 79,40 25,45 -11,17 71,17 71,-5 34,-49 -43,-15 10,-26 34,-19 25,-53 64,-1 62,-17 72,8 3,7 62,-2 20,-9 17,21 31,-10 95,-7 14,5v40l28,18 -68,34 4,11 48,-14 72,4 17,21 6,44 36,3 -30,24 14,27 -46,34 7,10 -48,59 -85,45 -92,21 -167,8 22,-26 -4,-27 -28,-10 11,-25 -72,-29 -23,6 -28,-25 -11,20 -60,18 16,23 -9,19 -26,-13 -52,5 -68,-23 -71,-62 21,-36 -56,-1 18,-18 -16,-27 48,-28v-28l-90,-55 -19,-43ZM1146,2641l30,3 -11,23 -39,-10 -2,-29ZM2604,3048l-41,38 -49,15 18,-20ZM1973,3348l-44,3 115,-51 52,-3ZM1959,3377l-155,5 73,-21 83,-3ZM2464,1974l2,28 -78,152 -39,-3 5,-58 16,-19 12,-61 48,-24 25,-40ZM3258,2371l-27,76 -63,119 -68,112 -95,130 -115,121 -95,75 -82,47 -95,22 17,-32 90,-88 42,-32 64,-64 5,-18 62,-63 35,-62 -4,-44 -31,5 -3,-34 -21,3 11,-43 36,-32 42,-63 41,-87 60,-94 59,-4 86,-115 4,40 58,-92 -6,102 -28,49 -49,163 5,-2 57,-101 56,-134ZM3141,1925l31,12 19,49 -57,-37 -22,-29 10,-23ZM3340,1794l2,89 20,-61 21,119 -7,133 -40,166 -31,104 42,-188 3,-35 -25,54 5,-66 -11,-16 15,-35 11,-84 -27,-192 12,-18ZM3283,1703l-5,32 -31,8 15,154 -12,2 -4,-61 -8,79 -7,-7 15,-178 6,-24ZM3119,1896l-27,-45 -33,-145 -39,-79 22,2 68,117 18,81ZM3228,1696l-1,78 -15,90 -22,-31 -25,-6 -9,-113 32,-50 18,-112 24,37 -8,66ZM3262,1471l10,95 -22,-64 -10,-2 16,-57ZM2867,1627l-8,5 -13,-75 25,43ZM3140,1205l22,29 25,83 -21,-19ZM780,1381l43,33 -43,3ZM723,1311l43,61 -43,-2v-34l-35,-41ZM2743,554l34,22 94,111 -22,-14 36,67 50,45 -34,-14 -58,-79 -19,-43 -91,-90 -78,-52 11,-4ZM2545,437v-15l59,44v9l-67,-29ZM1196,935l2,56 -59,-19 59,-45ZM2404,398l41,19 -106,-24ZM1678,988l-32,5 7,-29 31,-16ZM1723,903l6,37 25,40 1,29 -68,8 31,-45 -26,-45ZM1257,655l-21,37 -31,-13ZM1646,798l1,18 -44,14 -31,-29ZM1749,292v32l-53,-13 -59,-3 37,-21ZM1319,604l-40,29 57,-16 -7,19 -37,19 -21,-11 -125,18 -38,17 -22,36 -14,53 11,16 -43,42 22,4 25,-32 46,-9 25,-34 60,-40 21,14 -1,31 -33,41 49,-16 -36,60 12,35 -15,37 -57,13 -47,-19 -77,32 61,-16 -15,48 35,18 -76,16 32,-21 -66,5 -21,32 -40,-3 -49,40 -25,38 -81,40 -23,34 -18,61 -22,28 18,-97 -49,-29 -7,20 -39,-31 -43,26 -54,98 -15,85 9,19 32,-5 34,-41 28,3 -34,66 -14,46 40,8 8,20 -25,75 18,50 25,-16 28,24 30,-45 42,-19 -3,27 34,-8 6,19 68,8 62,81 57,11 21,21 16,53 20,21 72,35 47,8 40,31 31,9 4,55 -47,79 3,91 -19,56 -55,23 -18,32 8,45 -31,109h-44l35,28 3,30 -43,23 21,27 -25,14 29,18 -6,19 11,50 25,8 15,61 28,52 -45,-8 -79,-77 -90,-156 -19,-58 -40,-85 -34,-134 -18,-54 -82,-57 -90,-183 14,-42 -11,-8 7,-59 15,-13 25,-85 -11,-56 -17,21 -31,-15 -34,-106 -33,-29 -20,-58 -19,7 -40,-87 1,-58 24,-54 10,-82 31,-95 31,-53 6,-24 -31,45 -72,184 9,-59 65,-148 59,-99 8,-33 89,-107 79,-69 123,-71 7,8 59,-56 126,-73 70,-27 22,-16 96,-50 80,-53 23,-38 57,-29 -45,38 140,-17 17,21 -39,14 99,-5 -63,16 67,7 -54,41 -40,5 -121,40 -19,42 -81,58 -2,31 -32,51 96,-29ZM1404,504l-20,29 -58,29 -28,2 7,-44 79,-32ZM1398,589l19,8 -42,82h-14l-3,39 -50,18 -41,25 -9,-27 13,-51 17,14 35,-14 33,-47 -17,-34 37,-19ZM1382,485l27,-19 45,4 -40,29ZM2063,686h-44l-27,-40 3,-39 36,66ZM1475,548l-46,46 -1,-30ZM1749,324v-32l9,-16 136,-13 97,19 80,-19 146,23 -52,17 -190,-16 -25,7 78,5 -5,9 139,24 87,58 68,24 79,37 -17,-42 113,34 65,37 95,68 19,28 68,60 44,51 45,16 36,37 21,42 -67,-58 -41,-14 25,46 -41,-37 44,74 31,8 4,-24 37,69 62,36 59,79 50,112 13,64 -11,68 -18,6 6,76 54,72 30,90 -19,88 -6,-32 -36,-46 -26,-21 9,82 28,67 28,45 7,85 -22,-33 -28,-105 -16,-21 -8,-72 -48,-116 -21,29 -13,-46 -64,-82 -2,24 -28,17 7,15 -25,87 -15,25 18,108 -19,48 -15,-16 -43,-104 -16,-24 -38,-95 -14,14 -82,-72 -53,19 -52,-3 -12,-19 -23,13 -46,-16 -30,-34 -25,6 22,32 39,21 16,36 27,-7 16,-40 9,24 53,31 -9,61 -25,37 -77,59 -68,27 -20,-66 -59,-67 -17,-37 -59,-64 -33,-7 73,95 19,56 31,41 64,53 15,30 91,-30 -13,88 -37,66 -89,88 -23,53 19,79 -3,63 -22,30 -31,11 -44,44 7,26 -13,36 -37,17 -9,38 -69,63 -36,14 -39,-3 -40,11 -16,-14 4,-32 -32,-69 -6,-66 -33,-69 14,-68 16,-22 -3,-53 -18,-53 -47,-61 15,-63 -20,-27 -39,9 -24,-30 -50,4 -46,20 -29,-8 -52,13 -23,-8 -51,-36 -17,-35 -43,-45 -4,-37 17,-48 -10,-44 43,-77 70,-53 17,-46 38,-37 46,9 48,-21 121,-8 6,55 55,13 56,27 26,-40 101,22 13,-9 54,-2 3,-71 -56,-6 -50,5 -28,-39 30,-29 63,-20 41,11 33,-15 -9,-16 -66,-29 11,-32 -48,27 -34,-4 -15,61 21,16 -70,19 21,31 -24,22 -38,-48 -1,-21 -84,-51 -11,16 40,35 44,21 -23,35 -12,-29 -34,-16 -52,-42 -25,18 -42,2 -25,29 -11,32 -26,30 -86,-4 2,-87 17,-10 71,5 9,-35 -38,-39 34,2 57,-41 9,-20 37,-13 -6,-42 29,40 31,2 65,-24 -10,-23 28,-5 -18,-30 37,-7 -4,-14 -40,14 -28,-41 3,-37 -30,45 19,35 -11,53 -25,13 -36,-53 -40,13 -10,-44 40,-33 41,-73 44,-24 46,16 60,10 -2,22 -34,-1 25,27 31,-10 -6,-49 26,11 45,-72 42,3 -54,-24 -12,-31 90,45 4,-6 -69,-31 -1,-24 -24,-11 -32,-56 -29,-25 29,-22 30,16 -2,-43 -24,-12 38,-19 -54,-26 -27,2 -41,-26 -5,-16 -42,-13v-16l-87,-8ZM2318,1089l27,56 54,-1 -38,-57 18,-6 -74,-43 21,-16 -33,-21 -25,45ZM1813,636l11,35 -39,-32ZM1616,562l-7,13 -141,11 -3,-24 53,-3 50,-21ZM1689,591l-22,13 45,16 -57,51 -3,29 -27,8 -13,37 -99,31 -47,6 -47,27 -30,31 -26,-18 15,-51 26,-39 30,-21 70,-75 -17,-24 26,-24 95,-10 26,13Z"/>
  <g class="counties" transform="scale(0.1)">
    <path data-fips-int="0" data-name="" d="M1398,2839l9,30 -49,-43Z"/>
    <path data-fips-int="0" data-name="" d="M1338,2742l-6,20 26,40 31,6 79,40 25,45 -11,17 71,17 71,-5 34,-49 -43,-15 10,-26 34,-19 25,-53 64,-1 62,-17 72,8 3,7 62,-2 20,-9 17,21 31,-10 95,-7 14,5v40l28,18 -68,34 4,11 48,-14 72,4 17,21 6,44 36,3 -30,24 14,27 -46,34 7,10 -48,59 -85,45 -92,21 -167,8 22,-26 -4,-27 -28,-10 11,-25 -72,-29 -23,6 -28,-25 -11,20 -60,18 16,23 -9,19 -26,-13 -52,5 -68,-23 -71,-62 21,-36 -56,-1 18,-18 -16,-27 48,-28v-28l-90,-55 -19,-43Z"/>
    <path data-fips-int="0" data-name="" d="M1146,2641l30,3 -11,23 -39,-10 -2,-29Z"/>
    <path data-fips-int="0" data-name="" d="M2604,3048l-41,38 -49,15 18,-20Z"/>
    <path data-fips-int="0" data-name="" d="M1973,3348l-44,3 115,-51 52,-3Z"/>
    <path data-fips-int="0" data-name="" d="M1959,3377l-155,5 73,-21 83,-3Z"/>
    <path data-fips-int="0" data-name="" d="M2464,1974l2,28 -78,152 -39,-3 5,-58 16,-19 12,-61 48,-24 25,-40Z"/>
    <path data-fips-int="0" data-name="" d="M3258,2371l-27,76 -63,119 -68,112 -95,130 -115,121 -95,75 -82,47 -95,22 17,-32 90,-88 42,-32 64,-64 5,-18 62,-63 35,-62 -4,-44 -31,5 -3,-34 -21,3 11,-43 36,-32 42,-63 41,-87 60,-94 59,-4 86,-115 4,40 58,-92 -6,102 -28,49 -49,163 5,-2 57,-101 56,-134Z"/>
    <path data-fips-int="0" data-name="" d="M3141,1925l31,12 19,49 -57,-37 -22,-29 10,-23Z"/>
    <path data-fips-int="0" data-name="" d="M3340,1794l2,89 20,-61 21,119 -7,133 -40,166 -31,104 42,-188 3,-35 -25,54 5,-66 -11,-16 15,-35 11,-84 -27,-192 12,-18Z"/>
    <path data-fips-int="0" data-name="" d="M3283,1703l-5,32 -31,8 15,154 -12,2 -4,-61 -8,79 -7,-7 15,-178 6,-24Z"/>
    <path data-fips-int="0" data-name="" d="M3119,1896l-27,-45 -33,-145 -39,-79 22,2 68,117 18,81Z"/>
    <path data-fips-int="0" data-name="" d="M3228,1696l-1,78 -15,90 -22,-31 -25,-6 -9,-113 32,-50 18,-112 24,37 -8,66Z"/>
    <path data-fips-int="0" data-name="" d="M3262,1471l10,95 -22,-64 -10,-2 16,-57Z"/>
    <path data-fips-int="0" data-name="" d="M2867,1627l-8,5 -13,-75 25,43Z"/>
    <path data-fips-int="0" data-name="" d="M3140,1205l22,29 25,83 -21,-19Z"/>
    <path data-fips-int="0" data-name="" d="M780,1381l43,33 -43,3Z"/>
    <path data-fips-int="0" data-name="" d="M723,1311l43,61 -43,-2v-34l-35,-41Z"/>
    <path data-fips-int="0" data-name="" d="M2743,554l34,22 94,111 -22,-14 36,67 50,45 -34,-14 -58,-79 -19,-43 -91,-90 -78,-52 11,-4Z"/>
    <path data-fips-int="0" data-name="" d="M2545,437v-15l59,44v9l-67,-29Z"/>
    <path data-fips-int="0" data-name="" d="M1196,935l2,56 -59,-19 59,-45Z"/>
    <path data-fips-int="0" data-name="" d="M2404,398l41,19 -106,-24Z"/>
    <path data-fips-int="0" data-name="" d="M1678,988l-32,5 7,-29 31,-16Z"/>
    <path data-fips-int="0" data-name="" d="M1723,903l6,37 25,40 1,29 -68,8 31,-45 -26,-45Z"/>
    <path data-fips-int="0" data-name="" d="M1257,655l-21,37 -31,-13Z"/>
    <path data-fips-int="0" data-name="" d="M1646,798l1,18 -44,14 -31,-29Z"/>
    <path data-fips-int="0" data-name="" d="M1749,292v32l-53,-13 -59,-3 37,-21Z"/>
    <path data-fips-int="0" data-name="" d="M1319,604l-40,29 57,-16 -7,19 -37,19 -21,-11 -125,18 -38,17 -22,36 -14,53 11,16 -43,42 22,4 25,-32 46,-9 25,-34 60,-40 21,14 -1,31 -33,41 49,-16 -36,60 12,35 -15,37 -57,13 -47,-19 -77,32 61,-16 -15,48 35,18 -76,16 32,-21 -66,5 -21,32 -40,-3 -49,40 -25,38 -81,40 -23,34 -18,61 -22,28 18,-97 -49,-29 -7,20 -39,-31 -43,26 -54,98 -15,85 9,19 32,-5 34,-41 28,3 -34,66 -14,46 40,8 8,20 -25,75 18,50 25,-16 28,24 30,-45 42,-19 -3,27 34,-8 6,19 68,8 62,81 57,11 21,21 16,53 20,21 72,35 47,8 40,31 31,9 4,55 -47,79 3,91 -19,56 -55,23 -18,32 8,45 -31,109h-44l35,28 3,30 -43,23 21,27 -25,14 29,18 -6,19 11,50 25,8 15,61 28,52 -45,-8 -79,-77 -90,-156 -19,-58 -40,-85 -34,-134 -18,-54 -82,-57 -90,-183 14,-42 -11,-8 7,-59 15,-13 25,-85 -11,-56 -17,21 -31,-15 -34,-106 -33,-29 -20,-58 -19,7 -40,-87 1,-58 24,-54 10,-82 31,-95 31,-53 6,-24 -31,45 -72,184 9,-59 65,-148 59,-99 8,-33 89,-107 79,-69 123,-71 7,8 59,-56 126,-73 70,-27 22,-16 96,-50 80,-53 23,-38 57,-29 -45,38 140,-17 17,21 -39,14 99,-5 -63,16 67,7 -54,41 -40,5 -121,40 -19,42 -81,58 -2,31 -32,51 96,-29Z"/>
    <path data-fips-int="0" data-name="" d="M1404,504l-20,29 -58,29 -28,2 7,-44 79,-32Z"/>
    <path data-fips-int="0" data-name="" d="M1398,589l19,8 -42,82h-14l-3,39 -50,18 -41,25 -9,-27 13,-51 17,14 35,-14 33,-47 -17,-34 37,-19Z"/>
    <path data-fips-int="0" data-name="" d="M1382,485l27,-19 45,4 -40,29Z"/>
    <path data-fips-int="0" data-name="" d="M2063,686h-44l-27,-40 3,-39 36,66Z"/>
    <path data-fips-int="0" data-name="" d="M1475,548l-46,46 -1,-30Z"/>
    <path data-fips-int="0" data-name="" d="M1749,324v-32l9,-16 136,-13 97,19 80,-19 146,23 -52,17 -190,-16 -25,7 78,5 -5,9 139,24 87,58 68,24 79,37 -17,-42 113,34 65,37 95,68 19,28 68,60 44,51 45,16 36,37 21,42 -67,-58 -41,-14 25,46 -41,-37 44,74 31,8 4,-24 37,69 62,36 59,79 50,112 13,64 -11,68 -18,6 6,76 54,72 30,90 -19,88 -6,-32 -36,-46 -26,-21 9,82 28,67 28,45 7,85 -22,-33 -28,-105 -16,-21 -8,-72 -48,-116 -21,29 -13,-46 -64,-82 -2,24 -28,17 7,15 -25,87 -15,25 18,108 -19,48 -15,-16 -43,-104 -16,-24 -38,-95 -14,14 -82,-72 -53,19 -52,-3 -12,-19 -23,13 -46,-16 -30,-34 -25,6 22,32 39,21 16,36 27,-7 16,-40 9,24 53,31 -9,61 -25,37 -77,59 -68,27 -20,-66 -59,-67 -17,-37 -59,-64 -33,-7 73,95 19,56 31,41 64,53 15,30 91,-30 -13,88 -37,66 -89,88 -23,53 19,79 -3,63 -22,30 -31,11 -44,44 7,26 -13,36 -37,17 -9,38 -69,63 -36,14 -39,-3 -40,11 -16,-14 4,-32 -32,-69 -6,-66 -33,-69 14,-68 16,-22 -3,-53 -18,-53 -47,-61 15,-63 -20,-27 -39,9 -24,-30 -50,4 -46,20 -29,-8 -52,13 -23,-8 -51,-36 -17,-35 -43,-45 -4,-37 17,-48 -10,-44 43,-77 70,-53 17,-46 38,-37 46,9 48,-21 121,-8 6,55 55,13 56,27 26,-40 101,22 13,-9 54,-2 3,-71 -56,-6 -50,5 -28,-39 30,-29 63,-20 41,11 33,-15 -9,-16 -66,-29 11,-32 -48,27 -34,-4 -15,61 21,16 -70,19 21,31 -24,22 -38,-48 -1,-21 -84,-51 -11,16 40,35 44,21 -23,35 -12,-29 -34,-16 -52,-42 -25,18 -42,2 -25,29 -11,32 -26,30 -86,-4 2,-87 17,-10 71,5 9,-35 -38,-39 34,2 57,-41 9,-20 37,-13 -6,-42 29,40 31,2 65,-24 -10,-23 28,-5 -18,-30 37,-7 -4,-14 -40,14 -28,-41 3,-37 -30,45 19,35 -11,53 -25,13 -36,-53 -40,13 -10,-44 40,-33 41,-73 44,-24 46,16 60,10 -2,22 -34,-1 25,27 31,-10 -6,-49 26,11 45,-72 42,3 -54,-24 -12,-31 90,45 4,-6 -69,-31 -1,-24 -24,-11 -32,-56 -29,-25 29,-22 30,16 -2,-43 -24,-12 38,-19 -54,-26 -27,2 -41,-26 -5,-16 -42,-13v-16l-87,-8ZM2318,1089l27,56 54,-1 -38,-57 18,-6 -74,-43 21,-16 -33,-21 -25,45Z"/>
    <path data-fips-int="0" data-name="" d="M1813,636l11,35 -39,-32Z"/>
    <path data-fips-int="0" data-name="" d="M1616,562l-7,13 -141,11 -3,-24 53,-3 50,-21Z"/>
    <path data-fips-int="0" data-name="" d="M1689,591l-22,13 45,16 -57,51 -3,29 -27,8 -13,37 -99,31 -47,6 -47,27 -30,31 -26,-18 15,-51 26,-39 30,-21 70,-75 -17,-24 26,-24 95,-10 26,13Z"/>
  </g>
  <path class="mesh" transform="scale(0.1)" d="M1749,292v32"/>
</svg>