<?xml version="1.0" encoding="utf-8"?>
<!DOCTYPE svg PUBLIC "-//W3C//DTD SVG 1.1//EN" "http://www.w3.org/Graphics/SVG/1.1/DTD/svg11.dtd">
<svg version="1.1" xmlns="http://www.w3.org/2000/svg" width="878" height="1000" viewBox="0 0 878 1000">
  <path class="state" d="M651,751l-4,5 -70,71 -47,46 -60,61 -10,10 -29,29 -13,-2 -11,4 -12,-10 -10,-22 6,-71 9,-23 5,-40 9,-29 21,-51 6,-8 17,-9 30,-46 27,5 11,-2 30,-22 22,-11 11,-4 15,-7 11,-19 18,-20 8,-13 7,-24 -2,-13 -11,24 -24,36 -4,8 -5,7 -6,8 -32,11 -19,11 -20,16 -35,-8 -16,7 -23,38 -10,2 -7,8 -11,3 -4,-63 -14,-18 -23,-20 -11,-2 8,13 15,14 7,14 7,23 1,33 -4,15 -14,-22 -9,-21 -19,-33 -21,-20 -7,-9 -10,-3 -35,-36 -12,-20 -7,-15 -4,-28 -20,-8 -11,-8 -14,-3 -30,-5 -10,-1 -12,2 -29,-11 -17,-11 -8,-2 -2,10 -15,-16 -13,-17 -5,-14 -5,-9 -10,-15 -11,-10 -11,-15 -5,-6 -5,-9 -4,-14 -8,-12 17,-19 56,-54 11,-9 49,-51 12,-11 44,-44 2,-3 72,-70 49,-49 21,19 30,31 54,52 15,16 29,29 14,16 31,30 2,1 65,67 18,17 44,47 61,58 6,6 2,2 12,12 13,14 34,35 53,53 16,18 -67,66 -44,45 -13,12 -43,45ZM284,604l26,27 -7,8 -5,-2 -4,-12 -11,-14 -22,-5 -5,-15 -13,-24h12l15,21ZM262,555l-1,5 -10,-6 -16,-27v-15l10,-1 10,5 4,12Z"/>
  <g class="subcounties">
    <path data-geo-id="11018" data-name="Ward 8" d="M647,756l-70,71 -47,46 -60,61 -10,10 -29,29 -13,-2 -11,4 -12,-10 -10,-22 6,-71 9,-23 5,-40 9,-29 21,-51 6,-8 17,-9 30,-46 27,5 11,-2 30,-22 22,-11 8,-3 5,7 14,9 7,-3v25l2,13 -2,9 10,19v11l9,17 13,16Z"/>
    <path data-geo-id="11016" data-name="Ward 6" d="M425,436l10,38h6v8l36,-16 61,32 19,11 32,7 -3,29h9l3,16 -12,2v36l3,7h18l-5,5 -6,8 -32,11 -19,11 -20,16 -35,-8 -16,7 -23,38 -10,2 -7,8 -11,3 -4,-63 -14,-18 -23,-20 -11,-2 -5,-4 4,-10v-16h91v-23h-20v-38l-31,-13v-18l-9,-8v-12h-12v-23h24l1,-8Z"/>
    <path data-geo-id="11017" data-name="Ward 7" d="M647,756h-3l-13,-16 -9,-17v-11l-10,-19 2,-9 -2,-13v-25l-7,3 -14,-9 -5,-7 3,-1 15,-7 11,-19 18,-20 8,-13 7,-24 -2,-13 -11,24 -24,36 -4,8v2h-18l-3,-7v-36l12,-2 -3,-16h-9l3,-29 26,7 32,3 -1,-15 8,-13 12,-26 9,-16 5,-19 27,-3 19,-18 12,12 13,14 34,35 53,53 16,18 -67,66 -44,45 -13,12 -43,45 -36,35Z"/>
    <path data-geo-id="11012" data-name="Ward 2" d="M389,439v23h12v12l9,8v18l31,13v38h20v23h-91v16l-4,10 5,4 8,13 15,14 7,14 7,23 1,33 -4,15 -14,-22 -9,-21 -19,-33 -21,-20 -7,-9 -10,-3 -35,-36 -12,-20 -7,-15 -4,-28 -20,-8 -11,-8 -14,-3 -30,-5h-7l4,-23 -16,-40h23l4,5h21l10,-11 30,1 4,4 15,-11 15,-1 2,-7 6,13 5,2 5,20 20,-13h37v15ZM284,604l26,27 -7,8 -5,-2 -4,-12 -11,-14 -22,-5 -5,-15 -13,-24h12l15,21ZM262,555l-1,5 -10,-6 -16,-27v-15l10,-1 10,5 4,12Z"/>
    <path data-geo-id="11011" data-name="Ward 1" d="M421,320l-1,14 6,33 10,9h12v26l-11,4 3,28 -9,5 -6,-3 -11,-5 -1,8h-43v-15h-37l-20,13 -5,-20 -5,-2 -6,-13 7,-6 -5,-28 14,11 7,-14 -10,-14 -15,-8 9,-9 12,-6 17,-1 19,-11 44,16 4,-6Z"/>
    <path data-geo-id="11015" data-name="Ward 5" d="M726,416l-19,18 -27,3 -5,19 -9,16 -12,26 -8,13 1,15 -32,-3 -26,-7 -32,-7 -19,-11 -61,-32 -36,16v-8h-6l-10,-38 6,3 9,-5 -3,-28 11,-4v-26h-12l-10,-9 -6,-33 1,-14 6,-2 23,-34 12,-10 -1,-42 24,-7 11,4 9,-10h25l65,67 18,17 44,47 61,58 6,6Z"/>
    <path data-geo-id="11013" data-name="Ward 3" d="M304,334l-9,9 15,8 10,14 -7,14 -14,-11 5,28 -7,6 -2,7 -15,1 -15,11 -4,-4 -30,-1 -10,11h-21l-4,-5h-23l16,40 -4,23 -3,-1 -12,2 -29,-11 -17,-11 -8,-2 -2,10 -15,-16 -13,-17 -5,-14 -5,-9 -10,-15 -11,-10 -11,-15 -5,-6 -5,-9 -3,-14 -9,-12 73,-73 11,-9 49,-51 12,-11 44,-44 2,-3 6,12 20,58 20,3 10,5 5,-8v-14l22,-4 10,7 18,-4 11,10 -5,7v16l-20,25v8l11,3 -6,10h-9l-13,22 -3,18 15,3Z"/>
    <path data-geo-id="11014" data-name="Ward 4" d="M529,219h-24l-9,10 -11,-4 -24,7 1,42 -12,10 -23,34 -6,2 -21,6 -4,6 -44,-16 -19,11 -17,1 -12,6 1,-13 -15,-3 3,-18 13,-22h9l6,-10 -11,-3v-8l20,-25v-16l5,-7 -11,-10 -18,4 -10,-7 -22,4v14l-5,8 -10,-5 -20,-3 -20,-58 -6,-12 72,-70 49,-49 21,19 30,31 54,52 15,16 29,29 14,16 31,30Z"/>
  </g>
  <path class="mesh" d="M586,633l5,7 14,9 7,-3v25l2,13 -2,9 10,19v11l9,17 13,16h3M371,604l-5,-4 4,-10v-16h91v-23h-20v-38l-31,-13v-18l-9,-8v-12h-12v-23h24l1,-8 11,5 10,38h6v8l36,-16 61,32 19,11 32,7 -3,29h9l3,16 -12,2v36l3,7h18M589,516l26,7 32,3 -1,-15 8,-13 12,-26 9,-16 5,-19 27,-3 19,-18M185,485l4,-23 -16,-40h23l4,5h21l10,-11 30,1 4,4 15,-11 15,-1 2,-7 6,13 5,2 5,20 20,-13h37v15h19M297,402l7,-6 -5,-28 14,11 7,-14 -10,-14 -15,-8 9,-9 12,-6 17,-1 19,-11 44,16 4,-6 21,-6 -1,14 6,33 10,9h12v26l-11,4 3,28 -9,5 -6,-3M421,320l6,-2 23,-34 12,-10 -1,-42 24,-7 11,4 9,-10h24M213,144l6,12 20,58 20,3 10,5 5,-8v-14l22,-4 10,7 18,-4 11,10 -5,7v16l-20,25v8l11,3 -6,10h-9l-13,22 -3,18 15,3 -1,13"/>
  <g class="cities">
    <circle r="7" cx="353" cy="536"/>
    <text x="353" y="536">Washington</text>
  </g>
</svg>