<?xml version="1.0" encoding="utf-8"?>
<!DOCTYPE svg PUBLIC "-//W3C//DTD SVG 1.1//EN" "http://www.w3.org/Graphics/SVG/1.1/DTD/svg11.dtd">
<svg version="1.1" xmlns="http://www.w3.org/2000/svg" width="878" height="1000" viewBox="0 0 878 1000">
  <path class="state" d="M769,461l16,16 53,53 16,18 -111,111 -13,12 -43,45 -24,23 -25,25 -33,33 -28,30 -12,10 -44,45 -90,90 -13,-1 -11,4 -12,-10 -10,-22 6,-71 9,-23 5,-40 9,-29 21,-51 6,-8 17,-9 30,-46 27,5 11,-2 30,-22 48,-22 11,-19 18,-20 8,-13 7,-24 -2,-13 -11,24 -24,36 -15,23 -32,11 -19,11 -20,16 -35,-8 -16,7 -23,38 -10,2 -7,8 -11,3 -4,-63 -14,-18 -23,-20 -11,-2 8,13 15,14 7,14 7,23 1,33 -4,15 -14,-22 -9,-21 -19,-33 -21,-20 -7,-9 -10,-3 -35,-36 -12,-20 -7,-15 -4,-28 -20,-8 -11,-8 -14,-3 -40,-6 -12,2 -29,-11 -17,-11 -8,-2 -2,10 -27,-28 -2,-11 -19,-32 -22,-25 -10,-15 -4,-14 -8,-12 17,-19 67,-63 92,-93 87,-86 49,-49 21,19 30,31 58,57 54,56 45,45 53,53 18,17 44,47 61,58ZM284,604l26,27 -7,8 -5,-2 -4,-12 -11,-14 -22,-5 -5,-15 -13,-24h12l15,21ZM262,555l-1,5 -10,-6 -16,-27v-15l10,-1 10,5 4,12Z"/>
  <g class="counties">
    <path data-fips-int="11001" data-name="District of Columbia" d="M769,461l16,16 53,53 16,18 -111,111 -13,12 -43,45 -24,23 -25,25 -33,33 -28,30 -12,10 -44,45 -90,90 -13,-1 -11,4 -12,-10 -10,-22 6,-71 9,-23 5,-40 9,-29 21,-51 6,-8 17,-9 30,-46 27,5 11,-2 30,-22 48,-22 11,-19 18,-20 8,-13 7,-24 -2,-13 -11,24 -24,36 -15,23 -32,11 -19,11 -20,16 -35,-8 -16,7 -23,38 -10,2 -7,8 -11,3 -4,-63 -14,-18 -23,-20 -11,-2 8,13 15,14 7,14 7,23 1,33 -4,15 -14,-22 -9,-21 -19,-33 -21,-20 -7,-9 -10,-3 -35,-36 -12,-20 -7,-15 -4,-28 -20,-8 -11,-8 -14,-3 -40,-6 -12,2 -29,-11 -17,-11 -8,-2 -2,10 -27,-28 -2,-11 -19,-32 -22,-25 -10,-15 -4,-14 -8,-12 17,-19 67,-63 92,-93 87,-86 49,-49 21,19 30,31 58,57 54,56 45,45 53,53 18,17 44,47 61,58ZM284,604l26,27 -7,8 -5,-2 -4,-12 -11,-14 -22,-5 -5,-15 -13,-24h12l15,21ZM262,555l-1,5 -10,-6 -16,-27v-15l10,-1 10,5 4,12Z"/>
  </g>

  <g class="cities">
    <circle r="7" cx="353" cy="536"/>
    <text x="353" y="536">Washington</text>
  </g>
</svg>