<?xml version="1.0" encoding="utf-8"?>
<!DOCTYPE svg PUBLIC "-//W3C//DTD SVG 1.1//EN" "http://www.w3.org/Graphics/SVG/1.1/DTD/svg11.dtd">
<svg version="1.1" xmlns="http://www.w3.org/2000/svg" width="307" height="350" viewBox="0 0 307 350">
  <defs>
    <pattern id="pattern-no-results" width="50" height="50" patternUnits="userSpaceOnUse">
      <rect width="50" height="50" fill="#ddd"/>
      <path d="M-5,5L5,-5M-5,55L55,-5M45,55L55,45" stroke-width="10" stroke="#666666"/>
    </pattern>
  </defs>
  <g class="counties" transform="scale(0.1)">
    <path data-fips-int="11001" data-name="District of Columbia" d="M994,2115l92,96 -45,20 -13,-43 -40,-47 -74,-21 -64,-137 43,0 50,77ZM920,1945l-40,-3 -55,-99 -3,-48 68,14ZM2694,1616l299,301 -311,309 -225,228 -710,710 -238,240 -85,8 -45,-33 -35,-77 19,-208 34,-123 22,-138 29,-103 74,-176 80,-58 37,-47 46,-92 24,-23 92,17 45,-9 99,-74 172,-82 38,-61 91,-117 22,-85 -8,-46 -35,83 -137,206 -144,57 -105,76 -124,-26 -56,25 -83,133 -92,46 -19,-223 -46,-61 -84,-73 -39,-7 29,48 79,95 22,85 6,111 -16,53 -47,-74 -31,-75 -68,-115 -100,-101 -30,-10 -129,-125 -59,-123 -18,-100 -108,-53 -112,-27 -121,-5 -99,-33 -89,-47 -5,39 -96,-102 -37,-95 -36,-55 -76,-81 -79,-147 12,-18 255,-246 254,-256 571,-569 46,42 183,184 253,250 73,78 569,572 307,301Z"/>
  </g>
  <g class="cities">
    <circle r="3" cx="123.2" cy="187.7"/>
    <text x="123.2" y="187.7">Washington</text>
  </g>
</svg>