<?xml version="1.0" encoding="utf-8"?>
<!DOCTYPE svg PUBLIC "-//W3C//DTD SVG 1.1//EN" "http://www.w3.org/Graphics/SVG/1.1/DTD/svg11.dtd">
<svg version="1.1" xmlns="http://www.w3.org/2000/svg" width="307" height="350" viewBox="0 0 307 350">
  <defs>
    <pattern id="pattern-no-results" width="50" height="50" patternUnits="userSpaceOnUse">
      <rect width="50" height="50" fill="#ddd"/>
      <path d="M-5,5L5,-5M-5,55L55,-5M45,55L55,45" stroke-width="10" stroke="#ffffff"/>
    </pattern>
  </defs>
  <g class="counties" transform="scale(0.1)">
    <path data-fips-int="11001" data-name="District of Columbia" d="M994,2115l92,96 -26,27 -19,-7 -13,-43 -40,-47 -52,-6 -22,-15 -18,-49 -46,-88 2,-11 41,11 50,77ZM920,1945l-3,17 -37,-20 -55,-99 -3,-48 35,-3 33,17 16,43ZM2694,1616l220,219 79,82 -234,234 -77,75 -225,228 -106,105 -181,183 -423,422 -238,240 -47,-5 -38,13 -45,-33 -35,-77 19,-208 7,-41 27,-82 22,-138 29,-103 74,-176 25,-30 55,-28 37,-47 46,-92 24,-23 92,17 45,-9 99,-74 172,-82 38,-61 64,-74 27,-43 22,-85 -8,-46 -27,46 -8,37 -137,206 -87,30 -57,27 -105,76 -124,-26 -56,25 -83,133 -35,6 -25,29 -32,11 -19,-223 -46,-61 -84,-73 -39,-7 29,48 51,52 28,43 22,85 6,111 -16,53 -47,-74 -31,-75 -68,-115 -76,-72 -24,-29 -30,-10 -129,-125 -39,-72 -20,-51 -18,-100 -108,-53 -112,-27 -79,-7 -42,2 -99,-33 -60,-38 -29,-9 -5,39 -96,-102 -7,-35 -30,-60 -36,-55 -76,-81 -36,-62 -15,-45 -28,-40 12,-18 178,-174 77,-72 124,-123 130,-133 323,-323 118,-116 130,-130 46,42 183,184 134,130 119,120 73,78 359,359 210,213 307,301Z"/>
  </g>
  <g class="cities">
    <circle r="3" cx="123.2" cy="187.7"/>
    <text x="123.2" y="187.7">Washington</text>
  </g>
</svg>