<?xml version="1.0" encoding="utf-8"?>
<!DOCTYPE svg PUBLIC "-//W3C//DTD SVG 1.1//EN" "http://www.w3.org/Graphics/SVG/1.1/DTD/svg11.dtd">
<svg version="1.1" xmlns="http://www.w3.org/2000/svg" width="307" height="350" viewBox="0 0 307 350">
  <defs>
    <pattern id="pattern-no-results" width="50" height="50" patternUnits="userSpaceOnUse">
      <rect width="50" height="50" fill="#ddd"/>
      <path d="M-5,5L5,-5M-5,55L55,-5M45,55L55,45" stroke-width="10" stroke="#666666"/>
    </pattern>
  </defs>
  <g class="counties" transform="scale(0.1)">
    <path data-fips-int="11001" data-name="District of Columbia" d="M993,2116l76,72 17,23 -9,16 -17,11 -19,-7 -5,-24 -8,-19 -39,-46 -18,-9 -35,2 -13,-3 -9,-13 -5,-18 -12,-30 -21,-35 -26,-53 3,-11 30,5 9,6 12,16 14,25 25,36 32,38ZM920,1945l-4,16 -21,-17 -15,-3 -17,-21 -8,-19 -31,-57 -3,-49 36,-3 33,17 16,43 -1,3 6,48ZM2693,1615l58,58 105,105 82,84 32,30 23,24 -128,128 -22,22 -32,32 -120,121 -32,31 -27,28 -128,128 -36,37 -63,63 -99,98 -59,60 -32,31 -43,43 -123,123 -49,50 -120,121 -97,97 -64,64 -75,76 -135,136 -47,-6 -38,13 -20,-17 -23,-16 -15,-45 -20,-32 8,-31 -1,-27 8,-121 3,-28 6,-43 12,-38 16,-43 4,-45 18,-92 10,-39 20,-65 28,-71 43,-106 26,-29 55,-29 37,-47 47,-90 22,-24 55,6 38,10 23,1 23,-9 27,-23 71,-51 45,-24 37,-17 64,-25 27,-15 20,-31 17,-31 41,-51 24,-22 25,-44 13,-46 10,-39 -7,-47 -28,47 -7,37 -30,45 -57,82 -29,55 -22,24 -38,14 -50,17 -22,8 -34,18 -33,22 -45,36 -28,18 -27,-6 -34,-10 -63,-11 -56,27 -28,42 -28,51 -26,38 -35,7 -24,29 -34,11 -6,-53 0,-46 -6,-81 -4,-43 -18,-14 -31,-47 -43,-43 -38,-31 -40,-7 28,48 30,29 22,23 27,45 14,46 10,37 3,70 1,43 -17,53 -45,-75 -32,-75 -38,-70 -31,-45 -38,-40 -37,-31 -24,-31 -30,-9 -19,-17 -48,-46 -39,-38 -22,-25 -9,-27 -31,-43 -21,-52 -1,-30 -17,-70 -67,-30 -40,-24 -37,-10 -74,-15 -42,-5 -37,-2 -44,3 -45,-17 -54,-18 -32,-16 -27,-23 -28,-8 -5,38 -11,-10 -43,-47 -44,-44 -6,-34 -30,-61 -37,-55 -74,-81 -20,-27 -15,-30 -17,-50 -14,-24 -14,-16 12,-17 24,-22 26,-27 47,-47 35,-34 67,-67 28,-27 39,-35 114,-113 55,-55 63,-64 38,-38 35,-36 66,-65 21,-22 38,-37 40,-40 96,-96 75,-76 42,-39 60,-61 29,-28 42,-43 58,53 66,67 130,131 33,32 80,79 16,14 61,63 88,87 24,28 30,29 64,65 111,112 19,19 80,82 19,18 85,85 48,48 55,56 90,90 222,218 16,18 37,35 48,54Z"/>
  </g>
  <g class="cities">
    <circle r="3" cx="123.3" cy="187.7"/>
    <text x="123.3" y="187.7">Washington</text>
  </g>
</svg>