<?xml version="1.0" encoding="utf-8"?>
<!DOCTYPE svg PUBLIC "-//W3C//DTD SVG 1.1//EN" "http://www.w3.org/Graphics/SVG/1.1/DTD/svg11.dtd">
<svg version="1.1" xmlns="http://www.w3.org/2000/svg" width="307" height="350" viewBox="0 0 307 350">
  <path class="state" transform="scale(0.1)" d="M2694,1616l220,219 79,82 -148,146 -240,243 -34,31 -729,734 -95,93 -238,240 -47,-5 -39,13 -44,-33 -33,-77 16,-208 7,-41 29,-82 22,-136 28,-107 74,-174 25,-30 55,-28 37,-47 46,-92 24,-23 92,17 45,-9 99,-74 172,-82 38,-61 64,-74 27,-43 22,-85 -8,-46 -27,46 -8,37 -71,105 -44,76 -22,25 -87,30 -57,27 -105,76 -124,-26 -56,25 -83,133 -35,6 -25,29 -32,11 -17,-223 -48,-61 -82,-73 -41,-7 29,48 51,52 28,43 23,85 3,111 -14,53 -47,-74 -32,-75 -67,-115 -76,-72 -24,-29 -30,-10 -129,-125 -39,-72 -20,-51 -18,-100 -108,-53 -112,-27 -79,-7 -42,2 -99,-33 -60,-38 -29,-9 -5,39 -96,-102 -7,-37 -30,-58 -36,-55 -76,-81 -36,-62 -16,-45 -27,-40 12,-18 178,-174 76,-72 125,-123 130,-133 323,-323 118,-115 130,-131 71,68 411,408 73,78 619,620 255,253ZM994,2115l92,96 -26,27 -19,-7 -13,-43 -40,-47 -52,-6 -22,-15 -18,-49 -46,-88 2,-11 41,11 50,77ZM920,1945l-3,17 -37,-20 -55,-99 -3,-48 35,-3 33,17 16,43Z"/>
  <g class="counties" transform="scale(0.1)">
    <path data-fips-int="11001" data-name="District of Columbia" d="M2694,1616l220,219 79,82 -148,146 -240,243 -34,31 -729,734 -95,93 -238,240 -47,-5 -39,13 -44,-33 -33,-77 16,-208 7,-41 29,-82 22,-136 28,-107 74,-174 25,-30 55,-28 37,-47 46,-92 24,-23 92,17 45,-9 99,-74 172,-82 38,-61 64,-74 27,-43 22,-85 -8,-46 -27,46 -8,37 -71,105 -44,76 -22,25 -87,30 -57,27 -105,76 -124,-26 -56,25 -83,133 -35,6 -25,29 -32,11 -17,-223 -48,-61 -82,-73 -41,-7 29,48 51,52 28,43 23,85 3,111 -14,53 -47,-74 -32,-75 -67,-115 -76,-72 -24,-29 -30,-10 -129,-125 -39,-72 -20,-51 -18,-100 -108,-53 -112,-27 -79,-7 -42,2 -99,-33 -60,-38 -29,-9 -5,39 -96,-102 -7,-37 -30,-58 -36,-55 -76,-81 -36,-62 -16,-45 -27,-40 12,-18 178,-174 76,-72 125,-123 130,-133 323,-323 118,-115 130,-131 71,68 411,408 73,78 619,620 255,253ZM994,2115l92,96 -26,27 -19,-7 -13,-43 -40,-47 -52,-6 -22,-15 -18,-49 -46,-88 2,-11 41,11 50,77ZM920,1945l-3,17 -37,-20 -55,-99 -3,-48 35,-3 33,17 16,43Z"/>
  </g>

  <g class="cities">
    <circle r="3" cx="123.2" cy="187.7"/>
    <text x="123.2" y="187.7">Washington</text>
  </g>
</svg>