<?xml version="1.0" encoding="utf-8"?>
<!DOCTYPE svg PUBLIC "-//W3C//DTD SVG 1.1//EN" "http://www.w3.org/Graphics/SVG/1.1/DTD/svg11.dtd">
<svg version="1.1" xmlns="http://www.w3.org/2000/svg" width="145" height="350" viewBox="0 0 145 350">
  <g class="counties" transform="scale(0.1)">
    <path data-fips-int="10001" data-name="Kent County" d="M914,2216l-13,-6 -12,11 -8,-5 -14,11 -8,-3 2,-11 -6,-8 -7,18 -5,0 -8,-9 -1,-7 -8,-7 -10,8 -3,-12 -7,-5 -17,-2 -4,15 -11,3 -3,-5 -5,9 -14,12 3,18 -6,7 10,3 3,7 -10,5 2,13 -6,7 2,12 -12,-6 -1,9 -13,-3 -3,8 -23,2 -8,7 -12,-6 -10,1 -23,8 -12,-4 -14,8 -26,11 -5,14 1,12 -12,12 -5,11 -13,3 -7,8 -23,53 -30,14 1,5 -11,12 -10,1 -14,16 -29,2 -79,2 -66,4 -76,2 -51,2 -13,4 -7,-116 -2,-41 -10,-172 -4,-69 -5,-98 -7,-106 -1,-35 -3,-29 -3,-68 -7,-119 -4,-62 -12,-206 43,-3 41,-2 55,5 17,15 16,2 10,-4 22,-3 3,-8 12,-12 17,-1 14,-7 10,-13 11,4 37,0 8,-10 2,6 25,-20 6,-2 6,-21 7,-7 14,-3 6,-6 -10,-24 5,-8 4,8 8,2 0,-10 -7,-6 8,-9 6,10 7,-9 16,9 3,-9 11,2 -3,-10 9,-5 6,3 8,-13 7,-2 14,18 15,9 4,6 -5,14 -14,14 0,8 11,-9 3,9 -4,15 8,14 9,-11 9,9 -3,-17 -6,0 5,-12 -10,-10 8,-2 21,17 14,7 6,0 12,10 3,13 7,5 20,9 4,14 -1,18 8,23 11,13 30,42 8,8 12,25 -2,20 -13,4 10,3 8,9 1,24 -9,19 19,15 8,33 -5,36 -5,-2 -11,24 -9,10 -1,16 2,16 -9,20 6,14 5,41 0,19 12,58 -1,52 2,16 -2,8 5,6 3,14 10,11 16,10 27,22 29,29 16,13 16,22 15,30 17,26 7,17 6,33 -1,38Z"/>
    <path data-fips-int="10005" data-name="Sussex County" d="M914,2216l2,17 -6,10 0,20 23,44 37,39 23,30 26,26 37,55 29,32 13,10 17,19 9,15 13,15 12,19 12,6 18,15 7,1 15,10 39,18 23,3 20,-2 22,-7 11,-6 8,-12 0,-10 -5,-14 11,5 7,25 3,18 7,25 1,29 6,60 5,32 5,44 9,56 6,45 2,43 -1,25 4,49 -1,7 -20,-4 3,-14 10,4 -1,-15 -15,-12 8,-5 -6,-14 -7,0 -6,-12 1,-14 5,-12 10,-6 -6,-8 6,-4 1,-23 -8,-55 -4,-8 -22,2 0,13 -30,-10 -1,8 -16,-5 -6,-8 0,21 -7,-5 -18,-3 -7,-8 -28,-5 26,31 9,24 -4,12 12,28 -6,11 9,15 -8,3 -20,-9 -2,-13 -11,-5 2,23 17,8 9,1 4,11 13,2 6,8 18,-11 2,4 12,-3 2,6 -11,12 13,-2 10,15 -1,5 -12,6 -13,-5 -14,11 -11,-2 -17,11 -17,0 -10,5 -16,-5 2,11 -7,13 -17,5 -8,7 -25,10 -14,-3 -4,4 -15,-9 -16,10 -21,5 -10,-4 -7,9 10,2 9,6 7,-13 5,5 17,-2 -4,6 21,4 8,-8 6,0 15,12 -7,5 3,6 -7,9 -20,7 -1,9 7,0 -1,7 10,-4 0,-7 15,3 19,-19 24,-6 9,-18 18,-3 21,-16 4,3 31,3 11,7 6,11 -5,5 0,11 5,-7 16,2 -4,19 6,15 11,8 -6,13 8,-6 -1,-19 -12,-14 13,-13 3,-9 6,6 11,-9 4,-13 9,4 -2,19 8,1 12,-11 -2,-13 -9,-11 4,-13 -11,-1 4,-7 -7,-8 11,-4 15,0 2,45 4,31 0,48 5,28 4,89 4,37 1,27 2,48 -2,19 -48,0 -4,-14 -13,-8 -1,6 -16,-3 -5,-9 -3,6 13,10 9,12 -52,0 -137,0 -7,1 -82,0 -3,-1 -91,0 -12,0 -80,0 -5,-1 -110,0 -64,-1 -78,-3 -78,-1 -184,-8 -90,-3 -67,-4 -5,-80 -6,-115 -14,-235 -7,-94 1,-7 -18,-310 -3,-42 13,-4 51,-2 76,-2 66,-4 79,-2 29,-2 14,-16 10,-1 11,-12 -1,-5 30,-14 23,-53 7,-8 13,-3 5,-11 12,-12 -1,-12 5,-14 26,-11 14,-8 12,4 23,-8 10,-1 12,6 8,-7 23,-2 3,-8 13,3 1,-9 12,6 -2,-12 6,-7 -2,-13 10,-5 -3,-7 -10,-3 6,-7 -3,-18 14,-12 5,-9 3,5 11,-3 4,-15 17,2 7,5 3,12 10,-8 8,7 1,7 8,9 5,0 7,-18 6,8 -2,11 8,3 14,-11 8,5 12,-11Z"/>
    <path data-fips-int="10003" data-name="New Castle County" d="M446,688l-3,10 -21,-12 0,-18 9,1 13,11ZM464,644l-12,3 -16,-33 6,-21 17,-4 0,23ZM539,1227l-8,13 -6,-3 -9,5 3,10 -11,-2 -3,9 -16,-9 -7,9 -6,-10 -8,9 7,6 0,10 -8,-2 -4,-8 -5,8 10,24 -6,6 -14,3 -7,7 -6,21 -6,2 -25,20 -2,-6 -8,10 -37,0 -11,-4 -10,13 -14,7 -17,1 -12,12 -3,8 -22,3 -10,4 -16,-2 -17,-15 -55,-5 -41,2 -43,3 -10,-168 -1,-24 -7,-113 -2,-75 -2,-40 -3,-21 -5,-61 -1,-15 -5,-102 -2,-8 -1,-45 -4,-44 -1,-40 -6,-87 2,-44 -2,-33 1,-20 0,-80 28,0 25,-60 15,-27 28,-40 28,-32 37,-32 37,-27 36,-20 28,-12 46,-14 26,-7 58,-8 29,2 40,-1 27,3 57,13 42,14 38,18 47,28 -14,9 -13,0 -34,24 -29,27 -22,37 -4,16 -13,22 -12,15 -15,42 -5,18 -35,-11 -4,-15 7,-6 -10,-6 0,26 11,10 24,11 1,4 -12,33 -6,2 -39,54 -11,15 -22,33 -6,0 -38,15 -17,27 -12,13 -17,29 -6,3 -1,11 5,12 -4,12 3,21 13,18 9,0 20,16 8,13 36,29 7,10 -22,7 17,1 -8,35 2,35 -5,19 -7,10 -3,21 -21,27 0,15 -10,29 4,28 3,13 17,25 -3,8 7,1 14,10 -9,12 17,4 27,22 9,14 15,12 5,16 24,42 5,11 2,15 8,8 -1,15 -5,4Z"/>
  </g>
  <g class="cities">
    <circle r="1" cx="48.4" cy="31.2"/>
    <text x="48.4" y="31.2">Wilmington</text>
    <circle r="1" cx="52.3" cy="171.9"/>
    <text x="52.3" y="171.9">Dover</text>
    <circle r="1" cx="10.9" cy="45.9"/>
    <text x="10.9" y="45.9">Newark</text>
  </g>
</svg>