<?xml version="1.0" encoding="utf-8"?>
<!DOCTYPE svg PUBLIC "-//W3C//DTD SVG 1.1//EN" "http://www.w3.org/Graphics/SVG/1.1/DTD/svg11.dtd">
<svg version="1.1" xmlns="http://www.w3.org/2000/svg" width="145" height="350" viewBox="0 0 145 350">
  <path class="state" transform="scale(0.1)" d="M914,2216l-6,35 21,52 90,98 48,70 31,28 51,68 86,48 70,-3 28,-30 14,60 8,96 24,170 5,125 -35,-73 17,-32 -12,-98 -22,15 -53,-15v21l-60,-21 23,25 24,95 -40,-2 49,32 34,-4 11,30 -94,25 -22,20 -68,23 -14,-10 -28,17 68,15 -31,27 5,18 68,-35 48,-35 41,8 24,44 51,-37 18,10 -20,-53 24,-4 20,278 1,93 -48,2 -4,-15 -37,-8 21,21 -333,2 -260,-2 -426,-13 -121,-8 -51,-882 -67,-1121 -17,-318 -3,-83 -9,-101 -8,-170 -12,-181 1,-168h27l22,-53 52,-79 52,-53 45,-31 89,-42 94,-20h83l74,13 60,22 73,43 -26,8 -63,50 -51,92 -44,105 -72,104 -44,14 -53,85 4,45 93,84 -11,77 -15,51 -22,27 -8,45 6,42 27,54 43,27 25,33 43,85 -1,33 40,32 -8,25 7,40 18,-2 -6,-41 52,33 34,33 8,50 62,88 -2,80 22,40 -4,43 -25,32 3,126 12,53 -1,80 16,30 86,72 52,81 13,50ZM464,644l-29,-30 24,-25Z"/>
  <g class="counties" transform="scale(0.1)">
    <path data-fips-int="10001" data-name="Kent County" d="M914,2216l-66,7 -42,-32 -54,32 9,30 -10,40 -61,20h-64l-33,16 -3,25 -38,37 -23,51 -30,15 -33,34 -159,8 -127,3 -28,5 -67,-1121 85,-5 55,5 17,13 46,-1 17,-22 51,-17 48,-3 58,-53 -4,-27 18,-26 25,10 38,-34 40,32 -8,25 7,40 18,-2 -6,-41 52,33 34,33 8,50 62,88 -2,80 22,40 -4,43 -25,32 3,126 12,53 -1,80 16,30 86,72 52,81 13,50Z"/>
    <path data-fips-int="10005" data-name="Sussex County" d="M914,2216l-6,35 21,52 90,98 48,70 31,28 51,68 86,48 70,-3 28,-30 14,60 8,96 24,170 5,125 -35,-73 17,-32 -12,-98 -22,15 -53,-15v21l-60,-21 23,25 24,95 -40,-2 49,32 34,-4 11,30 -94,25 -22,20 -68,23 -14,-10 -28,17 68,15 -31,27 5,18 68,-35 48,-35 41,8 24,44 51,-37 18,10 -20,-53 24,-4 20,278 1,93 -48,2 -4,-15 -37,-8 21,21 -333,2 -260,-2 -426,-13 -121,-8 -51,-882 28,-5 127,-3 159,-8 33,-34 30,-15 23,-51 38,-37 3,-25 33,-16h64l61,-20 10,-40 -9,-30 54,-32 42,32Z"/>
    <path data-fips-int="10003" data-name="New Castle County" d="M539,1226l-38,34 -25,-10 -18,26 4,27 -58,53 -48,3 -51,17 -17,22 -46,1 -17,-13 -55,-5 -85,5 -17,-318 -3,-83 -9,-101 -8,-170 -12,-181 1,-168h27l22,-53 52,-79 52,-53 45,-31 89,-42 94,-20h83l74,13 60,22 73,43 -26,8 -63,50 -51,92 -44,105 -72,104 -44,14 -53,85 4,45 93,84 -11,77 -15,51 -22,27 -8,45 6,42 27,54 43,27 25,33 43,85ZM464,644l-29,-30 24,-25Z"/>
  </g>
  <path class="mesh" transform="scale(0.1)" d="M914,2216l-66,7 -42,-32 -54,32 9,30 -10,40 -61,20h-64l-33,16 -3,25 -38,37 -23,51 -30,15 -33,34 -159,8 -127,3 -28,5M85,1386l85,-5 55,5 17,13 46,-1 17,-22 51,-17 48,-3 58,-53 -4,-27 18,-26 25,10 38,-34"/>
  <g class="cities">
    <circle r="3" cx="48.4" cy="31.2"/>
    <text x="48.4" y="31.2">Wilmington</text>
    <circle r="3" cx="52.3" cy="171.9"/>
    <text x="52.3" y="171.9">Dover</text>
    <circle r="3" cx="10.9" cy="46.0"/>
    <text x="10.9" y="46.0">Newark</text>
  </g>
</svg>