<?xml version="1.0" encoding="utf-8"?>
<!DOCTYPE svg PUBLIC "-//W3C//DTD SVG 1.1//EN" "http://www.w3.org/Graphics/SVG/1.1/DTD/svg11.dtd">
<svg version="1.1" xmlns="http://www.w3.org/2000/svg" width="415" height="1000" viewBox="0 0 415 1000">
  <path class="state" d="M261,633l-2,10 8,16 24,26 15,22 24,28 27,13 19,-4 4,-9 5,22 1,20 8,47 1,42 -9,-21 4,-19 -3,-19 -6,6 -9,-3 -6,4 -18,-7 7,9 7,26h-12l27,16 -27,8 -6,6 -19,6h-18l4,5 21,1 -9,8 3,5 21,-16 10,-4 14,3 7,12 10,-12 8,4 -6,-16h7l2,38 5,57 -1,11h-219l-1,-1 -62,-1 -63,-4 -7,-120 -2,-29 -6,-103 -10,-166 -8,-155 -15,-239 1,-52h8l14,-29 23,-26 24,-14 27,-9 22,-1h21l23,6 29,15 -13,6 -12,11 -15,26 -13,32 -19,27 -13,6 -15,20 1,15 26,26 -3,23 -10,21 -2,19 13,22 13,12 14,27v12l11,8v18l4,-8 11,3 10,9 5,17 18,26 1,17 5,23 -8,15v34l4,19v21l3,8 27,23 13,22 4,14ZM133,184l-9,-10 7,-6Z"/>
  <g class="counties">
    <path data-fips-int="10001" data-name="Kent County" d="M261,633l-12,3 -4,-7 -4,6 -5,-7 -11,-3 -10,9 -2,18 -11,7 -21,1 -12,5 -6,15 -5,3 -7,15 -22,14 -68,2 -18,2 -10,-166 -8,-155h39l5,5 13,-1 5,-6 11,-6 11,2 15,-8 10,-11v-13l10,2 10,-8 11,8v18l4,-8 11,3 10,9 5,17 18,26 1,17 5,23 -8,15v34l4,19v21l3,8 27,23 13,22 4,14Z"/>
    <path data-fips-int="10005" data-name="Sussex County" d="M261,633l-2,10 8,16 24,26 15,22 24,28 27,13 19,-4 4,-9 5,22 1,20 8,47 1,42 -9,-21 4,-19 -3,-19 -6,6 -9,-3 -6,4 -18,-7 7,9 7,26h-12l27,16 -27,8 -6,6 -19,6h-18l4,5 21,1 -9,8 3,5 21,-16 10,-4 14,3 7,12 10,-12 8,4 -6,-16h7l2,38 5,57 -1,11h-219l-1,-1 -62,-1 -63,-4 -7,-120 -2,-29 -6,-103 18,-2 68,-2 22,-14 7,-15 5,-3 6,-15 12,-5 21,-1 11,-7 2,-18 10,-9 11,3 5,7 4,-6 4,7Z"/>
    <path data-fips-int="10003" data-name="New Castle County" d="M154,351l-10,8 -10,-2v13l-10,11 -15,8 -11,-2 -11,6 -5,6 -13,1 -5,-5h-39l-15,-239 1,-52h8l14,-29 23,-26 24,-14 27,-9 22,-1h21l23,6 29,15 -13,6 -12,11 -15,26 -13,32 -19,27 -13,6 -15,20 1,15 26,26 -3,23 -10,21 -2,19 13,22 13,12 14,27ZM133,184l-9,-10 7,-6Z"/>
  </g>
  <path class="mesh" d="M261,633l-12,3 -4,-7 -4,6 -5,-7 -11,-3 -10,9 -2,18 -11,7 -21,1 -12,5 -6,15 -5,3 -7,15 -22,14 -68,2 -18,2M25,395h39l5,5 13,-1 5,-6 11,-6 11,2 15,-8 10,-11v-13l10,2 10,-8"/>
  <g class="cities">
    <circle r="7" cx="139" cy="89"/>
    <text x="139" y="89">Wilmington</text>
    <circle r="7" cx="150" cy="491"/>
    <text x="150" y="491">Dover</text>
    <circle r="7" cx="32" cy="131"/>
    <text x="32" y="131">Newark</text>
  </g>
</svg>