<?xml version="1.0" encoding="utf-8"?>
<!DOCTYPE svg PUBLIC "-//W3C//DTD SVG 1.1//EN" "http://www.w3.org/Graphics/SVG/1.1/DTD/svg11.dtd">
<svg version="1.1" xmlns="http://www.w3.org/2000/svg" width="145" height="350" viewBox="0 0 145 350">
  <defs>
    <pattern id="pattern-no-results" width="50" height="50" patternUnits="userSpaceOnUse">
      <rect width="50" height="50" fill="#ddd"/>
      <path d="M-5,5L5,-5M-5,55L55,-5M45,55L55,45" stroke-width="10" stroke="#ffffff"/>
    </pattern>
  </defs>
  <g class="counties" transform="scale(0.1)">
    <path data-fips-int="10001" data-name="Kent County" d="M914,2216l-66,7 -42,-32 -55,35 10,27 -10,40 -61,20 -64,0 -33,16 -3,25 -38,37 -23,51 -30,15 -33,34 -159,8 -127,3 -28,5 -40,-667 -2,-45 -25,-409 85,-7 55,7 17,15 46,-5 17,-20 51,-18 53,-4 53,-51 -4,-27 18,-26 25,10 38,-34 40,32 -8,27 7,38 18,-2 -6,-43 82,63 12,55 62,87 -2,79 22,44 -4,41 -25,32 3,126 12,53 -1,80 16,30 45,33 49,47 44,73 13,50Z"/>
    <path data-fips-int="10005" data-name="Sussex County" d="M914,2216l-6,35 21,52 90,98 48,70 31,28 51,66 86,50 70,-3 28,-30 14,60 8,95 24,171 5,125 -35,-73 17,-32 -12,-98 -22,15 -47,-7 -6,12 -60,-20 29,38 27,113 34,-6 -1,38 -82,18 -22,20 -68,23 -14,-10 -28,17 68,15 -31,28 5,17 68,-33 48,-39 41,10 24,45 51,-38 18,10 -20,-53 24,-5 20,279 1,93 -48,2 -12,-25 -29,0 21,23 -333,2 -260,-2 -426,-13 -121,-8 -31,-524 -20,-358 28,-5 127,-3 159,-8 33,-34 30,-15 23,-51 38,-37 3,-25 33,-16 64,0 61,-20 10,-40 -10,-27 55,-35 42,32Z"/>
    <path data-fips-int="10003" data-name="New Castle County" d="M464,643l-29,-29 24,-25ZM539,1226l-38,34 -25,-10 -18,26 4,27 -53,51 -53,4 -51,18 -17,20 -46,5 -17,-15 -55,-7 -85,7 -17,-318 -3,-83 -9,-100 -8,-171 -12,-181 1,-167 27,0 22,-54 37,-60 39,-45 54,-47 108,-55 94,-18 83,0 74,13 85,35 48,30 -26,8 -63,52 -51,90 -44,106 -72,103 -44,14 -53,85 4,43 93,86 -11,79 -15,49 -22,27 -8,45 6,42 27,54 43,27 25,33 43,85Z"/>
  </g>
  <g class="cities">
    <circle r="3" cx="48.4" cy="31.2"/>
    <text x="48.4" y="31.2">Wilmington</text>
    <circle r="3" cx="52.3" cy="171.9"/>
    <text x="52.3" y="171.9">Dover</text>
    <circle r="3" cx="10.9" cy="46.0"/>
    <text x="10.9" y="46.0">Newark</text>
  </g>
</svg>