<?xml version="1.0" encoding="utf-8"?>
<!DOCTYPE svg PUBLIC "-//W3C//DTD SVG 1.1//EN" "http://www.w3.org/Graphics/SVG/1.1/DTD/svg11.dtd">
<svg version="1.1" xmlns="http://www.w3.org/2000/svg" width="145" height="350" viewBox="0 0 145 350">
  <defs>
    <pattern id="pattern-no-results" width="50" height="50" patternUnits="userSpaceOnUse">
      <rect width="50" height="50" fill="#ddd"/>
      <path d="M-5,5L5,-5M-5,55L55,-5M45,55L55,45" stroke-width="10" stroke="#666666"/>
    </pattern>
  </defs>
  <g class="counties" transform="scale(0.1)">
    <path data-fips-int="10001" data-name="Kent County" d="M914,2216l-66,7 -42,-32 -55,35 0,67 -61,20 -64,0 -74,78 -23,51 -63,49 -286,11 -28,5 -40,-667 -27,-454 140,0 63,10 17,-20 104,-22 53,-51 14,-53 25,10 38,-34 51,52 82,63 12,55 62,87 -2,79 22,44 -29,73 3,126 11,133 16,30 94,80 44,73Z"/>
    <path data-fips-int="10005" data-name="Sussex County" d="M914,2216l-6,35 21,52 90,98 48,70 82,94 86,50 70,-3 28,-30 46,326 5,125 -35,-73 17,-32 -12,-98 -75,20 -60,-20 29,38 27,113 34,-6 -1,38 -82,18 -22,20 -110,30 68,15 -26,45 116,-72 41,10 24,45 51,-38 -2,-43 24,-5 20,279 1,93 -401,2 -260,-2 -426,-13 -121,-8 -51,-882 28,-5 286,-11 63,-49 23,-51 74,-78 64,0 61,-20 0,-67 55,-35 42,32Z"/>
    <path data-fips-int="10003" data-name="New Castle County" d="M539,1226l-38,34 -25,-10 -14,53 -53,51 -104,22 -17,20 -63,-10 -140,0 -49,-853 1,-167 27,0 59,-114 93,-92 108,-55 94,-18 83,0 74,13 133,65 -89,60 -51,90 -44,106 -72,103 -44,14 -53,85 4,43 93,86 -26,128 -30,72 33,96 43,27 68,118Z"/>
  </g>
  <g class="cities">
    <circle r="3" cx="48.4" cy="31.2"/>
    <text x="48.4" y="31.2">Wilmington</text>
    <circle r="3" cx="52.3" cy="171.9"/>
    <text x="52.3" y="171.9">Dover</text>
    <circle r="3" cx="10.9" cy="46.0"/>
    <text x="10.9" y="46.0">Newark</text>
  </g>
</svg>