<?xml version="1.0" encoding="utf-8"?>
<!DOCTYPE svg PUBLIC "-//W3C//DTD SVG 1.1//EN" "http://www.w3.org/Graphics/SVG/1.1/DTD/svg11.dtd">
<svg version="1.1" xmlns="http://www.w3.org/2000/svg" width="350" height="343" viewBox="0 0 350 343">
  <defs>
    <pattern id="pattern-no-results" width="50" height="50" patternUnits="userSpaceOnUse">
      <rect width="50" height="50" fill="#ddd"/>
      <path d="M-5,5L5,-5M-5,55L55,-5M45,55L55,45" stroke-width="10" stroke="#666666"/>
    </pattern>
  </defs>
  <g class="counties" transform="scale(0.1)">
    <path data-fips-int="12001" data-name="Alachua County" d="M2329,647l43,27 82,13 17,26 5,12 13,21 2,123 -14,22 -1,0 1,0 -1,0 -4,1 0,2 0,1 0,-1 0,1 0,-1 0,-2 -20,3 -5,-1 -5,0 -13,1 -8,-19 1,-2 7,0 0,2 0,-2 -3,-3 0,-2 0,2 0,-2 -2,2 2,0 -2,0 -87,-6 -64,3 0,-28 -44,-16 -3,-130 55,-56 0,-1 0,1Z"/>
    <path data-fips-int="12003" data-name="Baker County" d="M2486,425l1,44 0,43 0,22 -40,0 -136,5 -3,-223 106,7 3,78 17,26Z"/>
    <path data-fips-int="12007" data-name="Bradford County" d="M2487,534l4,212 -2,0 -13,-21 -5,-12 -17,-26 -82,-13 -43,-27 50,-18 68,-95Z"/>
    <path data-fips-int="12019" data-name="Clay County" d="M2642,508l2,91 36,25 2,58 -90,4 -53,45 -48,15 -4,-212 0,-22Z"/>
    <path data-fips-int="12023" data-name="Columbia County" d="M2308,316l3,223 -43,62 13,36 0,1 0,-1 0,1 -55,56 -61,-52 1,-202 2,5 28,-2 3,5 30,-44 -10,-21 -21,-57 1,-2 -1,2 1,-2 10,-14Z"/>
    <path data-fips-int="12027" data-name="DeSoto County" d="M2727,2085l-220,3 -2,-88 0,-65 217,-5Z"/>
    <path data-fips-int="12033" data-name="Escambia County" d="M292,92l-4,3 -13,10 -17,6 -20,18 -11,65 0,2 0,-2 0,2 1,34 4,0 15,49 31,41 -5,61 -58,43 -2,0 -56,6 13,-42 33,-8 -38,-31 17,-98 -40,-24 -55,-73 18,-65Z"/>
    <path data-fips-int="12039" data-name="Gadsden County" d="M1275,253l247,16 -20,42 -3,2 -16,10 -24,55 -48,13 -7,2 -1,0 -2,0 2,0 -2,0 -22,13 -11,8 -58,-34 0,-30 -44,-9 -21,-34Z"/>
    <path data-fips-int="12041" data-name="Gilchrist County" d="M2226,694l3,130 -123,-10 -5,-83 12,-34 18,-31 -1,0 1,0 34,-24Z"/>
    <path data-fips-int="12043" data-name="Glades County" d="M2999,1990l5,5 10,5 4,10 1,0 -1,0 1,0 14,6 -4,99 -25,95 -276,6 -1,-131 131,-4 -2,-44 45,-1 -1,-44Z"/>
    <path data-fips-int="12047" data-name="Hamilton County" d="M1950,295l259,15 -10,14 -1,2 1,-2 -1,2 21,57 10,21 -30,44 -3,-5 -28,2 -2,-5 -66,-31 -82,-11 -15,19 0,2 0,-2 -5,-11 -16,-8 -32,-103 -7,-3Z"/>
    <path data-fips-int="12049" data-name="Hardee County" d="M2722,1930l-217,5 -1,-153 218,-5Z"/>
    <path data-fips-int="12051" data-name="Hendry County" d="M3038,2428l0,36 -173,3 -4,-127 -129,3 -4,-127 276,-6 25,-95Z"/>
    <path data-fips-int="12053" data-name="Hernando County" d="M2404,1273l2,0 -2,0 25,47 68,24 0,22 -86,1 0,21 -183,2 15,-129 94,-1Z"/>
    <path data-fips-int="12055" data-name="Highlands County" d="M2906,1776l2,0 -2,1 2,5 0,2 0,-2 0,2 -23,39 -5,18 1,0 -1,0 1,0 0,3 0,10 4,0 -4,0 4,0 6,3 7,11 3,0 0,2 0,-2 0,2 9,14 3,10 42,21 1,0 -1,0 1,0 2,7 10,23 7,16 0,2 0,-2 0,2 8,9 0,2 0,-2 -2,2 2,0 -2,0 2,5 8,8 5,-3 3,6 -99,2 1,44 -45,1 2,44 -131,4 -5,-155 0,-153Z"/>
    <path data-fips-int="12059" data-name="Holmes County" d="M1005,108l-45,81 -11,44 -45,0 -40,-24 -4,31 -1,3 -4,2 -1,8 -83,-2 1,-146Z"/>
    <path data-fips-int="12063" data-name="Jackson County" d="M1275,253l-30,54 -100,-2 -3,21 -92,-2 -22,-1 4,-109 -22,-21 -50,-4 45,-81 211,2 29,57 3,58Z"/>
    <path data-fips-int="12065" data-name="Jefferson County" d="M1814,285l3,35 -57,34 5,39 -36,44 -5,22 -44,30 -31,78 -37,-5 0,-88 2,-81 15,-43 27,0 -14,-74Z"/>
    <path data-fips-int="12067" data-name="Lafayette County" d="M1970,487l10,67 66,14 80,98 4,0 1,0 -18,31 -173,2 -22,-33 0,-187 52,0Z"/>
    <path data-fips-int="12069" data-name="Lake County" d="M2705,1001l2,0 1,2 2,3 25,46 55,48 10,26 2,5 -7,30 -12,17 -8,30 -107,5 5,216 -131,3 -3,-307 128,-3 8,-44 -3,-114Z"/>
    <path data-fips-int="12073" data-name="Leon County" d="M1642,276l14,74 -27,0 -15,43 -2,81 -71,0 -2,-15 -201,0 30,-45 11,-8 22,-13 2,0 -2,0 2,0 1,0 7,-2 48,-13 24,-55 16,-10 3,-2 20,-42Z"/>
    <path data-fips-int="12077" data-name="Liberty County" d="M1368,414l-30,45 0,25 33,89 33,30 5,1 -199,-3 -9,21 -46,-36 8,-78 25,-29 15,-60 15,-70 27,-42 21,34 44,9 0,30Z"/>
    <path data-fips-int="12079" data-name="Madison County" d="M1943,292l7,3 32,103 16,8 5,11 0,2 -33,60 -52,0 -43,-20 -151,0 5,-22 36,-44 -5,-39 57,-34 -3,-35Z"/>
    <path data-fips-int="12083" data-name="Marion County" d="M2627,889l32,28 13,47 3,114 -8,44 -128,3 -157,1 -73,-45 -25,5 -1,-86 58,0 -4,-135 87,6 2,0 -2,0 2,-2 0,2 0,-2 0,2 3,3 0,2 0,-2 -7,0 -1,2 8,19 13,-1 5,0 5,1 20,-3 0,2 0,1 0,-1 0,1 0,-1 0,-2 4,-1 1,0 -1,0 1,0 14,-22 64,-21 0,-3 0,3 0,-3 57,15Z"/>
    <path data-fips-int="12093" data-name="Okeechobee County" d="M3026,1774l42,-2 1,43 44,-2 5,176 1,42 -90,84 4,-99 -14,-6 -1,0 1,0 -1,0 -4,-10 -10,-5 -5,-5 -3,-6 -5,3 -8,-8 -2,-5 2,0 -2,0 2,-2 0,2 0,-2 -8,-9 0,-2 0,2 0,-2 -7,-16 -10,-23 -2,-7 -1,0 1,0 -1,0 -42,-21 -3,-10 -9,-14 0,-2 0,2 0,-2 -3,0 -7,-11 -6,-3 -4,0 4,0 -4,0 0,-10 0,-3 -1,0 1,0 -1,0 5,-18 23,-39 0,-2 0,2 0,-2 -2,-5 2,-1 -2,0 2,0 2,0Z"/>
    <path data-fips-int="12095" data-name="Orange County" d="M2775,1208l-20,73 60,11 148,-3 2,0 16,8 2,0 -2,0 2,0 0,2 3,10 20,58 0,20 17,34 -350,8 -5,-216Z"/>
    <path data-fips-int="12097" data-name="Osceola County" d="M3023,1421l3,262 0,91 -116,2 -2,0 -2,0 4,-2 -2,2 2,0 0,-2 1,0 0,-2 0,2 0,-2 -16,-40 -32,-57 -20,-2 -7,-5 -1,-3 1,0 0,3 0,-3 -1,0 -20,-36 -17,-26 -5,-5 19,-37 -47,-5 -32,-26 -15,-59 -45,2 0,-44Z"/>
    <path data-fips-int="12101" data-name="Pasco County" d="M2497,1366l2,81 -22,71 -239,4 -60,0 38,-127 12,-5 183,-2 0,-21Z"/>
    <path data-fips-int="12105" data-name="Polk County" d="M2673,1429l0,44 45,-2 15,59 32,26 47,5 -19,37 5,5 17,26 20,36 1,0 0,3 0,-3 -1,0 1,3 7,5 20,2 32,57 16,40 0,2 0,-2 0,2 -1,0 0,2 -2,0 2,-2 -4,2 -184,1 -218,5 -5,-264 -22,0 22,-71 43,-15Z"/>
    <path data-fips-int="12119" data-name="Sumter County" d="M2539,1125l3,307 -43,15 -2,-81 0,-22 -68,-24 -25,-47 2,0 40,-65 -64,-82Z"/>
    <path data-fips-int="12121" data-name="Suwannee County" d="M2100,409l66,31 -1,202 -34,24 -1,0 -4,0 -80,-98 -66,-14 -10,-67 0,-8 33,-60 0,-2 15,-19Z"/>
    <path data-fips-int="12123" data-name="Taylor County" d="M1918,479l0,187 22,33 -13,65 -19,11 -3,-3 -76,-42 -37,-74 -113,-62 -30,-27 31,-78 44,-30 151,0Z"/>
    <path data-fips-int="12125" data-name="Union County" d="M2329,647l-48,-9 0,-1 -13,-36 43,-62 136,-5 -68,95Z"/>
    <path data-fips-int="12131" data-name="Walton County" d="M772,105l-1,146 83,2 -12,19 -18,35 11,29 -8,47 -40,24 0,2 -3,60 -83,-36 -88,-22 0,-10 64,-15 47,28 8,-26 -38,-26 -80,10 9,-269Z"/>
    <path data-fips-int="12133" data-name="Washington County" d="M1028,323l-21,0 -2,65 -161,-3 -57,22 0,2 0,-2 40,-24 8,-47 -11,-29 18,-35 12,-19 1,-8 4,-2 1,-3 4,-31 40,24 45,0 11,-44 50,4 22,21Z"/>
    <path data-fips-int="12005" data-name="Bay County" d="M984,570l28,28 31,-7 2,51 -42,-23 -86,-77ZM1050,324l-5,183 -2,81 -38,3 -3,-32 -105,-43 -12,-63 -38,8 32,65 -95,-57 3,-60 0,-2 57,-22 161,3 2,-65 21,0Z"/>
    <path data-fips-int="12009" data-name="Brevard County" d="M3124,1437l-1,0 3,-54 13,4 -5,55 17,88 60,130 -29,-37 -41,-98ZM3023,1200l15,81 33,114 121,265 -3,13 -5,7 -158,3 -3,-262 -17,-34 0,-20 -20,-58 -3,-10 0,-2 -2,0 2,0 -2,0 -16,-8 6,-88ZM3049,1198l52,63 -32,-63 5,0 72,102 23,66 -30,21 -13,-4 20,-56 -13,-18 -30,100 -17,-4 -5,-106 -28,-16 21,-41 -41,-42 -5,0 5,0Z"/>
    <path data-fips-int="12011" data-name="Broward County" d="M3399,2423l-15,174 -78,11 -173,5 -87,-9 -8,-140 0,-36 286,-8Z"/>
    <path data-fips-int="12015" data-name="Charlotte County" d="M2451,2203l-67,-39 -8,-31 43,0 0,-27 33,34ZM2727,2085l1,131 -221,4 2,-54 -90,-64 0,-13 88,-1Z"/>
    <path data-fips-int="12017" data-name="Citrus County" d="M2188,1110l51,-11 45,-13 25,-5 73,45 64,82 -40,65 -2,0 -67,-13 -94,1 -15,-37 0,-2 -2,-1 -3,0 -2,1 -18,-44 28,-16 2,0 1,2 4,3 3,0 -2,-2 -1,-3 -2,0 -17,-11Z"/>
    <path data-fips-int="12021" data-name="Collier County" d="M3038,2464l8,140 2,87 -212,5 -74,-40 0,-2 -20,-3 -2,0 -10,5 -2,-2 -6,-3 -2,0 -3,-2 -2,-6 2,0 3,-2 0,-2 -7,-1 -1,3 0,2 0,1 -17,-16 -8,-3 -2,0 -17,-10 -4,-5 1,0 -1,0 -7,3 -2,-21 -10,-11 -1,0 -2,0 -2,-2 -1,-3 0,-3 0,-4 0,-1 0,-2 -7,-13 -2,0 0,2 -23,-117 83,4 -2,-52 45,-1 -1,-46 129,-3 4,127Z"/>
    <path data-fips-int="12029" data-name="Dixie County" d="M2113,697l-12,34 5,83 -21,62 -52,71 -2,2 -5,2 -1,0 -2,-2 -8,8 -40,-65 -67,-42 -3,-78 3,3 19,-11 13,-65Z"/>
    <path data-fips-int="12031" data-name="Duval County" d="M2748,422l2,5 0,3 3,13 2,2 0,8 3,3 0,3 -3,10 -2,2 0,5 0,73 -68,-10 -28,-1 15,-53 -18,-42 21,-36ZM2777,474l-24,2 0,-5 2,-2 3,-10 0,-3 -3,-3 0,-8 -2,-2 -3,-13 0,-3 -2,-5 20,-19ZM2677,323l3,-3 3,0 2,0 0,3 -2,5 0,1 2,2 15,2 3,8 2,5 0,4 0,2 2,-2 6,0 2,0 2,2 1,-2 2,0 2,0 1,0 0,-6 0,-3 -1,-8 -2,-4 -2,-5 20,17 -3,5 3,9 2,2 0,3 0,5 2,2 0,16 0,2 0,3 -7,3 -8,2 -4,3 -58,13 3,34 -34,16 8,49 -155,4 0,-43 132,-136 0,-2 0,-3 1,-4 2,-1 0,-3 20,0 7,3 3,1Z"/>
    <path data-fips-int="12035" data-name="Flagler County" d="M2840,770l8,0 2,5 3,0 2,3 13,39 2,0 3,2 2,3 3,8 2,2 1,8 9,20 5,11 8,13 -18,5 1,76 -116,5 -8,-68 -2,0 -38,-49 -2,-63 87,-4Z"/>
    <path data-fips-int="12037" data-name="Franklin County" d="M1195,725l10,5 3,4 12,12 -103,14 61,-37 12,-3ZM1409,604l42,18 5,0 43,16 -1,23 -80,-10 -102,62 -60,26 15,-31 -63,26 -3,-4 -10,-5 -4,-5 10,-98 9,-21Z"/>
    <path data-fips-int="12045" data-name="Gulf County" d="M1163,508l-8,78 46,36 -10,98 -1,0 -12,3 -61,37 -42,4 7,-61 -37,-61 -2,-51 0,-3 2,-81Z"/>
    <path data-fips-int="12057" data-name="Hillsborough County" d="M2477,1518l22,0 5,264 -220,3 73,-89 -8,-31 -38,-18 7,49 -34,-15 7,-44 -52,-39 -1,-76Z"/>
    <path data-fips-int="12061" data-name="Indian River County" d="M3244,1758l2,1 0,2 10,49 -143,3 -44,2 -1,-43 -42,2 0,-91 158,-3 5,-7Z"/>
    <path data-fips-int="12071" data-name="Lee County" d="M2728,2216l4,127 1,46 -45,1 2,52 -83,-4 -5,-59 -32,2 -1,-2 -9,-3 -3,-2 -38,-32 -23,-77 11,-45Z"/>
    <path data-fips-int="12075" data-name="Levy County" d="M2229,824l44,16 0,28 64,-3 4,135 -58,0 1,86 -45,13 -51,11 3,-14 -2,0 2,0 -28,-27 0,-43 -88,1 -25,-19 -2,-7 -2,-1 -31,-43 8,-8 2,2 1,0 5,-2 2,-2 52,-71 21,-62Z"/>
    <path data-fips-int="12081" data-name="Manatee County" d="M2504,1782l1,153 0,65 -86,2 -2,-90 -138,0 -41,-26 46,-101Z"/>
    <path data-fips-int="12085" data-name="Martin County" d="M3292,1984l32,3 33,47 0,2 3,5 4,5 3,9 2,5 11,25 0,1 4,13 -10,0 -2,0 -5,0 -3,0 -2,0 2,0 -2,0 -5,8 -328,8 90,-84 -1,-42 174,-5 0,-2Z"/>
    <path data-fips-int="12086" data-name="Miami-Dade County" d="M3384,2634l-2,0 -27,69 -49,76 -14,80 15,42 -28,33 -2,1 -21,33 -4,0 -23,15 0,1 -43,0 -55,31 -68,-11 -10,-93 -5,-220 -2,-87 87,9 173,-5 78,-11Z"/>
    <path data-fips-int="12089" data-name="Nassau County" d="M2690,245l-7,1 0,2 0,2 2,1 2,0 3,-1 12,3 3,0 7,0 0,-3 0,-2 5,0 1,0 2,-2 30,4 -2,94 -13,-31 -2,20 -3,-4 -30,4 -15,-2 -2,-2 0,-1 2,-5 0,-3 -2,0 -3,0 -3,3 -25,1 -3,-1 -7,-3 -20,0 0,3 -2,1 -1,4 0,3 0,2 -132,136 -1,-44 16,-112 -15,-81 38,-43 99,43Z"/>
    <path data-fips-int="12091" data-name="Okaloosa County" d="M623,103l-9,269 -25,-18 -66,44 -83,-5 13,-295Z"/>
    <path data-fips-int="12099" data-name="Palm Beach County" d="M3362,2099l2,0 23,13 2,0 18,83 0,129 -8,99 -75,-3 -286,8 -9,-313 328,-8Z"/>
    <path data-fips-int="12107" data-name="Putnam County" d="M2718,721l2,69 2,63 38,49 2,0 -2,0 -60,26 -35,-23 -11,-62 -5,-8 1,-23 0,-4 30,0 -8,-52ZM2682,682l20,30 -32,34 7,60 -27,2 0,4 -1,23 5,8 3,70 2,4 -32,-28 -15,-29 -57,-15 0,3 0,-3 0,3 -64,21 -2,-123 2,0 48,-15 53,-45Z"/>
    <path data-fips-int="12109" data-name="Saint Johns County" d="M2780,544l3,8 2,8 0,23 27,55 0,48 28,53 3,7 3,5 2,5 0,3 2,3 0,2 -2,0 -8,6 -33,16 -87,4 -2,-69 -30,-65 12,-42 -46,-42 31,-33 68,10 0,-73 0,1 2,2 3,0 2,6 2,5 1,7 7,28 2,3 5,10ZM2785,583l0,-23 -2,-8 -3,-8 -3,-6 -5,-10 -2,-3 -7,-28 -1,-7 -2,-5 -2,-6 -3,0 -2,-2 0,-1 24,-2 40,171Z"/>
    <path data-fips-int="12111" data-name="Saint Lucie County" d="M3256,1810l58,144 -22,18 0,10 0,2 -174,5 -5,-176Z"/>
    <path data-fips-int="12113" data-name="Santa Rosa County" d="M453,98l-13,295 -122,11 62,-37 -42,-43 -13,43 -37,-65 -10,18 -31,-41 -15,-49 -4,0 -1,-34 0,-2 0,2 0,-2 11,-65 20,-18 17,-6 13,-10 4,-3Z"/>
    <path data-fips-int="12115" data-name="Sarasota County" d="M2279,1912l138,0 2,90 86,-2 2,88 -88,1 0,13 0,4 0,27 -43,0 -52,-83 0,-3 -1,-5 0,-1 -10,-23 -17,-38 -2,-1 -1,-2 -4,-8Z"/>
    <path data-fips-int="12117" data-name="Seminole County" d="M2888,1203l35,-15 40,101 2,0 -2,0 -148,3 -60,-11 20,-73 8,-30 12,-17Z"/>
    <path data-fips-int="12127" data-name="Volusia County" d="M2911,910l57,122 7,21 1,3 0,2 9,8 1,0 4,0 1,0 17,54 5,6 3,9 33,63 -16,2 -5,0 -5,0 -52,1 -6,88 -2,0 -40,-101 -35,15 -93,-42 7,-30 -2,-5 -10,-26 -55,-48 -25,-46 -2,-3 -1,-2 -2,0 15,-45 -20,-28 60,-26 2,0 8,68 116,-5 -1,-76 18,-5 0,2 2,6 1,3 5,10Z"/>
    <path data-fips-int="12129" data-name="Wakulla County" d="M1612,474l0,88 -45,13 -40,-21 -38,24 0,41 -33,3 -5,0 -42,-18 -5,-1 -33,-30 -33,-89 0,-25 201,0 2,15Z"/>
    <path data-fips-int="12087" data-name="Monroe County" d="M3284,3005l-2,5 0,2 -1,1 -4,2 -8,13 -3,7 -7,-17 15,-22 2,-4 0,-5 11,-39 45,-27ZM3048,2691l5,220 10,93 -19,19 -64,7 -60,-44 23,-60 0,1 2,0 8,0 3,3 2,0 8,25 0,3 0,5 0,2 0,3 2,0 2,0 1,3 2,2 2,1 0,2 1,2 4,0 1,0 2,0 2,0 1,3 5,0 2,0 3,3 30,-21 -2,-5 -1,0 -15,-28 -2,0 -16,-1 -10,6 0,-1 -5,-5 -2,0 -13,-8 -4,0 -1,0 -2,0 -3,-4 -2,0 -48,-74 26,-33 2,0 5,-6 2,0 3,3 2,0 0,3 1,0 2,2 0,5 2,0 15,9 5,0 8,-1 -2,-4 0,-1 -6,-5 0,-2 -2,-1 2,1 -2,-1 -20,-5 0,-2 0,-3 -2,-2 -11,0 -2,4 -2,3 -33,13 -23,-47 0,-4 -2,-9 10,-15 2,-3 6,-2 17,7 2,0 3,-5 0,-2 -2,0 -10,-8 -3,3 3,-3 -23,-10 -2,0 -6,8 -2,2 -27,-36Z"/>
    <path data-fips-int="12103" data-name="Pinellas County" d="M2238,1522l1,76 -33,36 57,42 -22,82 -20,-7 -2,-2 -20,-16 0,-1 0,-5 0,-5 -18,-5 -30,-39 20,-47 7,-109Z"/>
    <path data-fips-int="12013" data-name="Calhoun County" d="M1245,307l-27,42 -15,70 -15,60 -25,29 -118,-1 5,-183 92,2 3,-21Z"/>
  </g>
  <g class="cities">
    <circle r="3" cx="265.7" cy="43.7"/>
    <text x="265.7" y="43.7">Jacksonville</text>
    <circle r="3" cx="335.4" cy="269.8"/>
    <text x="335.4" y="269.8">Miami</text>
    <circle r="3" cx="232.5" cy="163.3"/>
    <text x="232.5" y="163.3">Tampa</text>
  </g>
</svg>