<?xml version="1.0" encoding="utf-8"?>
<!DOCTYPE svg PUBLIC "-//W3C//DTD SVG 1.1//EN" "http://www.w3.org/Graphics/SVG/1.1/DTD/svg11.dtd">
<svg version="1.1" xmlns="http://www.w3.org/2000/svg" width="1000" height="979" viewBox="0 0 1000 979">
  <path class="state" d="M659,90l30,1 1,23 5,7 15,-1 4,-16v-19l-5,-7 3,-19 9,-6 18,6 10,6 21,8 15,-2 -1,23 -10,-4 -1,6 -9,-5 8,8 9,-3 2,16h-18l-4,4 1,10 -9,5 2,13 -1,22 3,7 8,4 1,18 6,7 -3,10 -8,6 4,11h-8v23l3,9 3,14 5,11 6,1 3,-15 -6,-8 -13,-12 -1,-22 10,-1 -4,-15h8l6,-8 -10,-23 2,-8 -11,-9 4,-13 5,1 -8,-1 4,-12 -5,-10 6,-4 -1,-11 12,4 9,-2 2,17 14,36 2,22 13,24h-1l-3,2 10,16 8,16 1,11 6,7 10,25 25,48 14,17 4,-3 -12,-14h1l19,27 8,19 -8,8 -2,-20 -7,16v23l-7,-14 -1,-31 -8,-4 5,-15 -12,-9h-2l5,24 11,34 12,30 21,43 -1,4 1,-2 12,20 6,21 6,22 11,19 3,7 -10,-1v3l10,1 5,6 12,26h-7l9,4 6,20v37l-4,31 -4,35v16l-1,10 -7,9 -1,12 -6,5 -12,36 5,14 -9,9v3v-2l-6,10h-1l-7,3v1l-11,-4 -21,14 -15,-4 -5,4 -22,3 -14,-13 3,-17h7l3,13 9,5h10l3,-6 -12,-13 -20,-6 -3,-13 -6,-6 10,-6 11,5 -1,-6 -10,-6 -6,9 -7,-1 -6,-20 8,-3 -8,-4 -1,6 -12,-8 4,-6 -16,-12h-14l-20,-14 -10,-16 -6,-31 1,-8 -5,-8 -18,-6 12,-9 -15,2 -5,-18 2,-15 1,-16 -5,-7 13,-6 -17,1 -5,5 -12,-11v1l10,9 3,13 -12,5 -8,-6 -5,-13 -13,-16 -7,-25 -5,-6 -3,-17 -14,-7v-11h8l7,-18 20,-26 -1,-7 -11,-7 2,15 -8,-2 -1,-18 -13,-8 -3,-2 -7,14 12,4 4,10 -6,20 -12,-8 -14,-16 6,-12 3,-15 -1,-17 4,-8 2,-14 8,-16 3,-13 -2,-18 4,-6 -8,-5 -3,-20 7,-5 -12,-13 1,-7 -9,-4 1,-13h-28l-4,-12 -12,-5 7,-6h-6l-10,-15 -20,-11v-22l-8,-1 -12,-9 -5,-12 -10,-13 -13,-10h-7l-20,-16 -10,-1 -12,4 -12,-6v8l-11,1v12l-11,-1 15,6 -1,5 -15,-5 -10,3 -27,18 -18,7 4,-8 -9,7 -13,-5 7,9 -16,-1 -12,3 -13,2 3,-18 -11,-17 -12,-7 -25,-21h9l16,15 12,-1v-1h-11l-5,-14 -10,2 -15,-10 5,-9 -19,-7 -2,9 10,-2 3,11h-6l-24,-15 -32,-13 -17,-3 -14,-1 2,-5 12,3 34,3v-7l-15,-8 -18,3 -8,-4 -18,12 -25,-1h-27l12,-8 -11,-7 -11,8 1,-11 -9,-4 1,12 -13,14 -18,7 -5,-1 2,-12 11,-2 -11,-7v-12l5,-10v-8l-17,-11 -10,-17 4,-19h54l46,2 49,3 43,1h126l8,17 2,18 7,7 71,4 34,1 49,3 37,2 34,3 42,2ZM893,409l7,29 14,28 -16,-26ZM793,135l9,41 -7,-12 1,-7 -9,-22 -1,-21 4,3ZM829,251l-13,-27 -1,-7 15,34 18,41 -13,-25ZM332,217l-2,9 -11,-7ZM701,675l17,1 -2,7ZM704,642l5,3 6,25h-5ZM951,831l-14,29 -23,26 2,-7 15,-15 5,-11ZM780,942l3,-6 4,-7 5,9Z"/>
  <g class="counties">
    <path data-fips-int="12001" data-name="Alachua County" d="M665,183l4,6 13,6 19,1 4,8 6,8v40l-11,3 -8,-1v-8h-25l-16,2 -2,-9 -12,-3 -1,-39 9,-5 6,-10Z"/>
    <path data-fips-int="12003" data-name="Baker County" d="M710,120v32h-11l-39,2v-64h-1l30,1 1,23 5,7Z"/>
    <path data-fips-int="12007" data-name="Bradford County" d="M710,152l1,5v55l-6,-8 -4,-8 -19,-1 -13,-6 -4,-6 15,-4 4,-10 11,-7 4,-10Z"/>
    <path data-fips-int="12019" data-name="Clay County" d="M755,144l-1,22 3,7 8,4 1,18h-25l-13,6 -3,7 -14,4v-55l-1,-5v-8Z"/>
    <path data-fips-int="12023" data-name="Columbia County" d="M659,90h1v64l-14,17 5,11 -6,10 -9,5 -10,-3 -8,-11 1,-8 -1,-50 10,3 9,-11 -11,-17 5,-13Z"/>
    <path data-fips-int="12027" data-name="DeSoto County" d="M779,595h-63v-43l62,-1Z"/>
    <path data-fips-int="12033" data-name="Escambia County" d="M80,90l1,12 -13,14 -18,7 -5,-1 2,-12 11,-2 -11,-7v-12l5,-10v-8l-17,-11 -10,-17 4,-19h54l-16,13 -4,10v18l6,2 1,13Z"/>
    <path data-fips-int="12039" data-name="Gadsden County" d="M435,76l-5,13 -6,1 -3,14 -20,7 -10,7 -9,-10h-9v-8l-12,-3v-11h-6l9,-14Z"/>
    <path data-fips-int="12041" data-name="Gilchrist County" d="M636,197l1,39 -35,-4 -5,-5 5,-11 -2,-9 4,-9 4,-9 10,-6 8,11Z"/>
    <path data-fips-int="12043" data-name="Glades County" d="M865,604l-7,27 -71,1 -8,1v-38l38,-1 -1,-12 12,-3v-10l29,-1 9,7Z"/>
    <path data-fips-int="12047" data-name="Hamilton County" d="M631,87l-5,13 11,17 -9,11 -10,-3h-5l-18,-12 -18,-1 -5,6 -9,-12 -2,-19 -6,-5 34,3Z"/>
    <path data-fips-int="12049" data-name="Hardee County" d="M778,551l-62,1 -1,-44 62,-1Z"/>
    <path data-fips-int="12051" data-name="Hendry County" d="M868,693v10l-49,2 -1,-37 -38,1 -1,-36 8,-1 71,-1 7,-27 1,58Z"/>
    <path data-fips-int="12053" data-name="Hernando County" d="M687,363l6,13h8l11,13 -24,1 -5,6h-47l3,-13 -2,-18 4,-6h26v4Z"/>
    <path data-fips-int="12055" data-name="Highlands County" d="M830,506l-6,23 11,14h6l6,12 10,13 -29,1v10l-12,3 1,12 -38,1 -1,-44 -1,-44Z"/>
    <path data-fips-int="12059" data-name="Holmes County" d="M287,30l-5,4 -8,19 -3,13 -14,-1 -11,-6 -3,13 -24,-1 2,-41Z"/>
    <path data-fips-int="12063" data-name="Jackson County" d="M364,72l-9,14 -28,-1 -1,7 -26,-1h-6l1,-30 -7,-8h-14l8,-19 5,-4h60l8,17 2,18Z"/>
    <path data-fips-int="12065" data-name="Jefferson County" d="M518,80l1,10 -17,12 2,11 -9,5 -3,12 -12,9 -10,21 -10,-1 1,-24v-24l4,-11h7l-3,-23Z"/>
    <path data-fips-int="12067" data-name="Lafayette County" d="M608,189l-4,9 -50,1 -6,-10v-52l15,-2 4,24 15,1 16,14Z"/>
    <path data-fips-int="12069" data-name="Lake County" d="M774,287l7,12 5,1 10,11 4,10 -1,9 -6,14h-30v64l-38,1v-88l-1,-1h37l2,-17v-28l5,11Z"/>
    <path data-fips-int="12073" data-name="Leon County" d="M469,77l3,23h-7l-4,11v24h-17l-5,-5h-57l9,-12 10,-7 20,-7 3,-14 6,-1 5,-13Z"/>
    <path data-fips-int="12077" data-name="Liberty County" d="M391,118l-9,12 5,16v8l9,16 6,2 -56,-1 -3,6 -13,-10v-21l3,-2 5,-7 5,-25 5,-14 7,-12h6v11l12,3v8h9Z"/>
    <path data-fips-int="12079" data-name="Madison County" d="M555,82l6,5 2,19 9,12h-1l-8,17 -15,2h-14v-7h-42l3,-12 9,-5 -2,-11 17,-12 -1,-10Z"/>
    <path data-fips-int="12083" data-name="Marion County" d="M760,261l3,14v28l-2,17h-37l-43,1 -21,-14 -8,2v-24h16l-1,-39h25v8l8,1 11,-3v-4l6,-5 19,-2 10,4 4,17Z"/>
    <path data-fips-int="12093" data-name="Okeechobee County" d="M864,506l13,-1v12h12l2,51v12l-26,24 1,-29 -9,-7 -10,-13 -6,-12h-6l-11,-14 6,-23Z"/>
    <path data-fips-int="12095" data-name="Orange County" d="M793,344l-6,11v10h17v4l43,-1 13,15 -1,17 4,4 -7,2 -93,2v-64Z"/>
    <path data-fips-int="12097" data-name="Osceola County" d="M863,404v60l1,16v26h-34l-1,-10 -9,-17 -11,-3 -1,-9 -9,-11 -10,-5 11,-4 -11,-3v-8h-8l-5,-16h-13v-12l93,-2Z"/>
    <path data-fips-int="12101" data-name="Pasco County" d="M712,389l2,24 -7,8v13h-85l4,-8 2,-14 8,-16h47l5,-6Z"/>
    <path data-fips-int="12105" data-name="Polk County" d="M763,408v12h13l5,16h8v8l11,3 -11,4 10,5 9,11 1,9 11,3 9,17 1,10 -53,1 -62,1 -1,-75 -7,1v-13l7,-8h12l-1,-4Z"/>
    <path data-fips-int="12119" data-name="Sumter County" d="M724,320l1,1v88l1,4h-12l-2,-24 -11,-13h-8l-6,-13 1,-8 9,-6v-9l-13,-11 -3,-8Z"/>
    <path data-fips-int="12121" data-name="Suwannee County" d="M618,125l1,50 -1,8 -10,6 -10,-15 -16,-14 -15,-1 -4,-24 8,-17h1l5,-6 18,1 18,12Z"/>
    <path data-fips-int="12123" data-name="Taylor County" d="M548,137v52l6,10 -6,23 -3,-1 -8,-1 -12,-9 -5,-12 -10,-13 -13,-10h-7l-20,-16 10,-21 12,-9h42v7Z"/>
    <path data-fips-int="12125" data-name="Union County" d="M665,183l-14,-1 -5,-11 14,-17 39,-2 -4,10 -11,7 -4,10Z"/>
    <path data-fips-int="12131" data-name="Walton County" d="M221,30l-2,41 24,1 -7,6 3,27 -10,3 -5,8v17l-32,-13 -17,-3v-3l34,3v-7l-15,-8 -18,3 2,-76Z"/>
    <path data-fips-int="12133" data-name="Washington County" d="M294,91h-7v19l-46,-1 -2,4 -15,3 5,-8 10,-3 -3,-27 7,-6 3,-13 11,6 14,1 3,-13h14l7,8Z"/>
    <path data-fips-int="12005" data-name="Bay County" d="M300,91l-2,52v25h-11l-5,-14 -10,2 -15,-10 5,-9 -19,-7 -2,9 10,-2 3,11h-6l-24,-15v-17l15,-3 2,-4 46,1v-19h7ZM298,169v14l-12,-7 -25,-21h9l16,15Z"/>
    <path data-fips-int="12009" data-name="Brevard County" d="M893,409l7,29 14,28 -16,-26ZM863,342l5,24 11,34 12,30 21,43 -1,4 -1,2 -46,1 -1,-16v-60l-4,-4 1,-17 -13,-15 2,-25ZM871,342l14,17 4,-3 -12,-14h1l19,27 8,19 -8,8 -2,-20 -7,16v23l-7,-14 -1,-31 -8,-4 5,-15 -12,-9Z"/>
    <path data-fips-int="12011" data-name="Broward County" d="M971,691l-4,35v16h-23l-13,3h-30l-6,-3 -25,1 -2,-40v-10l65,-2Z"/>
    <path data-fips-int="12015" data-name="Charlotte County" d="M779,595v38h-60l-3,1 1,-16 -5,-7 13,-6 -17,1 -5,5 -12,-11v-4l25,-1ZM679,609h12v-8l10,9 3,13 -12,5 -8,-6Z"/>
    <path data-fips-int="12017" data-name="Citrus County" d="M625,316l6,-5 13,4 8,-6 8,-2 21,14 3,8 13,11v9l-9,6 -1,8h-20v-4h-26l-8,-5 -3,-20 7,-5Z"/>
    <path data-fips-int="12021" data-name="Collier County" d="M868,703l2,40 1,25 -30,1h-31l-16,-12h-14l-20,-14 -10,-16 -6,-31 24,1v-15h13l-1,-13 38,-1 1,37Z"/>
    <path data-fips-int="12029" data-name="Dixie County" d="M604,198l-4,9 2,9 -5,11 5,5 -5,5 -6,23 -10,9h-6l-10,-15 -20,-11v-22l3,1 6,-23Z"/>
    <path data-fips-int="12031" data-name="Duval County" d="M793,135h-6l-1,-21 4,3ZM786,135v21l-19,-2 -8,-1 4,-12 -5,-10 6,-4 -1,-11 12,4 9,-2ZM764,91l8,8 9,-3 2,16h-18l-4,4 1,10 -9,5 2,13h-45v-11l34,-35 5,-8Z"/>
    <path data-fips-int="12035" data-name="Flagler County" d="M830,251h-1l-13,-27 -1,-7ZM811,219l10,16 8,16 -6,3 1,21 -33,1 -3,-19 -5,1 -5,-14 -1,-19 24,-1Z"/>
    <path data-fips-int="12037" data-name="Franklin County" d="M402,172l12,5 15,6 -1,5 -15,-5 -10,3 -27,18 -18,7 4,-8 -9,7 -13,-5 -1,-19 4,-9 3,-6ZM319,216l14,-11h7l7,9 -16,-1ZM332,217l-2,9 -11,-7Z"/>
    <path data-fips-int="12045" data-name="Gulf County" d="M333,144l-3,2v21l13,10 -4,9 1,19h-7l-14,11 -13,2 3,-18 -11,-17v-40Z"/>
    <path data-fips-int="12057" data-name="Hillsborough County" d="M707,434l7,-1 1,75 -63,1 20,-26 -1,-7 -11,-7 2,15 -8,-2 -1,-18 -13,-8 -1,-22Z"/>
    <path data-fips-int="12061" data-name="Indian River County" d="M930,516l-41,1h-12v-12l-13,1v-26l46,-1 1,-2 1,-2 12,20Z"/>
    <path data-fips-int="12071" data-name="Lee County" d="M779,633l1,36 1,13h-13v15l-24,-1 1,-8 -5,-8 -18,-6 12,-9 -15,2 -5,-18 2,-15 3,-1ZM701,675l17,1 -2,7ZM704,642l5,3 6,25h-5Z"/>
    <path data-fips-int="12075" data-name="Levy County" d="M637,236l12,3 2,9 16,-2 1,39h-16v24l-8,6 -13,-4 -6,5 1,-7 -9,-4 1,-13h-28l-4,-12 -12,-5 7,-6 10,-9 6,-23 5,-5Z"/>
    <path data-fips-int="12081" data-name="Manatee County" d="M715,508l1,44v18l-25,1 -1,-26h-39l-14,-7v-11h8l7,-18Z"/>
    <path data-fips-int="12085" data-name="Martin County" d="M967,599h-7l-15,3 -80,2 26,-24v-12l49,-2 10,1 5,6Z"/>
    <path data-fips-int="12086" data-name="Miami-Dade County" d="M966,752l-7,9 -1,12 -6,5 -12,36 5,14 -9,9v1l-6,10h-1l-7,3v1l-11,-4 -21,14 -15,-4 -1,-27h-2l-1,-63 -1,-25 25,-1 6,3h30l13,-3h23Z"/>
    <path data-fips-int="12089" data-name="Nassau County" d="M764,91l-15,-1 -5,8 -34,35v-13l4,-16v-19l-5,-7 3,-19 9,-6 18,6 10,6 21,8 15,-2 -1,23 -10,-4 -1,6Z"/>
    <path data-fips-int="12091" data-name="Okaloosa County" d="M178,29l-2,76 -8,-4 -18,12 -25,-1 4,-86Z"/>
    <path data-fips-int="12099" data-name="Palm Beach County" d="M960,599l9,4 6,20v37l-4,31h-38l-65,2 -2,-31 -1,-58 80,-2Z"/>
    <path data-fips-int="12107" data-name="Putnam County" d="M777,206v19l1,19 5,14 5,-1 -17,7 -13,-12 -1,-22 10,-1 -4,-15h8ZM766,195l6,7 -3,10 -8,6 4,11h-8v23l3,9 -10,1 -4,-17 -10,-4 -19,2 -6,5v-36l14,-4 3,-7 13,-6Z"/>
    <path data-fips-int="12109" data-name="Saint Johns County" d="M815,217h-1l-3,2 -10,5 -24,1v-19l-10,-23 2,-8 -11,-9 4,-13 5,1 19,2v-21l14,36 2,22ZM787,135h6l9,41 -7,-12 1,-7Z"/>
    <path data-fips-int="12111" data-name="Saint Lucie County" d="M930,516l6,22 11,19 -7,6v3l-49,2 -2,-51Z"/>
    <path data-fips-int="12113" data-name="Santa Rosa County" d="M129,26l-4,86h-27l12,-8 -11,-7 -11,8 1,-11 -9,-4 -10,-10 -1,-13 -6,-2v-18l4,-10 16,-13Z"/>
    <path data-fips-int="12115" data-name="Sarasota County" d="M651,545h39l1,26 25,-1v25l-25,1v13h-12l-13,-16 -7,-25 -5,-6Z"/>
    <path data-fips-int="12117" data-name="Seminole County" d="M847,368l-43,1v-4h-17v-10l6,-11 6,-14 5,7h13l10,6 4,-6 8,7Z"/>
    <path data-fips-int="12127" data-name="Volusia County" d="M871,342h-8l-14,1 -2,25 -8,-24 -8,-7 -4,6 -10,-6h-13l-5,-7 1,-9 -4,-10 -10,-11 -5,-1 -7,-12 3,-15 -6,-8 17,-7 3,19 33,-1 -1,-21 6,-3 1,11 6,7 10,25ZM830,251l18,41 -13,-25 -6,-16Z"/>
    <path data-fips-int="12129" data-name="Wakulla County" d="M461,135l-1,24 -12,4 -12,-6v8l-11,1v12l-11,-1 -12,-5 -6,-2 -9,-16v-8l-5,-16h57l5,5Z"/>
    <path data-fips-int="12087" data-name="Monroe County" d="M951,831l-14,29 -23,26 2,-7 15,-15 5,-11ZM875,858l-5,4 -22,3 -14,-13 3,-17h7l3,13 9,5h10l3,-6 -12,-13 -20,-6 -3,-13 -6,-6 10,-6 11,5 -1,-6 -10,-6 -6,9 -7,-1 -6,-20 8,-3 -8,-4 -1,6 -12,-8 4,-6h31l30,-1 1,63h2ZM780,942l3,-6 4,-7 5,9Z"/>
    <path data-fips-int="12103" data-name="Pinellas County" d="M639,434l1,22 -3,-2 -7,14 12,4 4,10 -6,20 -12,-8 -14,-16 6,-12 3,-15 -1,-17Z"/>
    <path data-fips-int="12013" data-name="Calhoun County" d="M355,86l-7,12 -5,14 -5,25 -5,7 -35,-1 2,-52 26,1 1,-7Z"/>
  </g>
  <path class="mesh" d="M710,120v32h-11l-39,2v-64h-1M636,197l9,-5 6,-10 14,1 15,-4 4,-10 11,-7 4,-10M710,144h45M660,154l-14,17 5,11M637,236l-1,-39 -10,-3 -8,-11 1,-8 -1,-50 10,3 9,-11 -11,-17 5,-13M83,24l-16,13 -4,10v18l6,2 1,13 10,10M435,76l-5,13 -6,1 -3,14 -20,7 -10,7 -9,-10h-9v-8l-12,-3v-11h-6l9,-14M724,320l-43,1 -21,-14 -8,2v-24h16l-1,-39 -16,2 -2,-9 -12,-3 -35,-4 -5,-5 5,-11 -2,-9 4,-9 4,-9 10,-6M618,125h-5l-18,-12 -18,-1 -5,6 -9,-12 -2,-19 -6,-5M716,552l-1,-44 62,-1 1,44M641,359h26v4h20l6,13h8l11,13 -24,1 -5,6h-47M777,507l53,-1 -6,23 11,14h6l6,12 10,13M287,30l-5,4 -8,19 -3,13 -14,-1 -11,-6 -3,13 -24,-1 2,-41M382,130l5,16v8l9,16 6,2 -56,-1 -3,6 -13,-10v-21l3,-2 5,-7 5,-25 5,-14 7,-12 -28,-1 -1,7 -26,-1h-6l1,-30 -7,-8h-14M518,80l1,10 -17,12 2,11 -9,5 -3,12 -12,9 -10,21M460,159l1,-24v-24l4,-11h7l-3,-23M604,198l-50,1 -6,-10v-52l15,-2 4,24 15,1 16,14 10,15M774,287l7,12 5,1 10,11 4,10 -1,9 -6,14h-30v64l-38,1v-88l-1,-1h37l2,-17v-28M461,135h-17l-5,-5h-57l9,-12M665,183l4,6 13,6 19,1 4,8 6,8M572,118h-1l-8,17M548,137h-14v-7h-42M711,248l6,-5 19,-2 10,4 4,17 10,-1M830,506l-1,-10 -9,-17 -11,-3 -1,-9 -9,-11 -10,-5 11,-4 -11,-3v-8h-8l-5,-16h-13v-12M863,404v60l1,16v26M712,389l2,24 -7,8v13h-85M715,508l-1,-75 -7,1M714,413h12l-1,-4M687,363l1,-8 9,-6v-9l-13,-11 -3,-8M554,199l-6,23 -3,-1M243,72l-7,6 3,27 -10,3 -5,8v17M176,105l2,-76M294,91h-7v19l-46,-1 -2,4 -15,3M300,91l-2,52v25M298,169v14M911,477l-1,2 -46,1M799,330l5,7h13l10,6 4,-6 8,7 8,24 2,-25 14,-1M865,342h6M967,742h-23l-13,3h-30l-6,-3 -25,1 -2,-40M868,693l65,-2h38M830,506h34l13,-1v12h12l2,51v12l-26,24 -7,27 -71,1 -8,1v-38h-63v-43l62,-1 1,44 38,-1 -1,-12 12,-3v-10l29,-1 9,7 -1,29 1,58 2,31v10l-49,2 -1,-37 -38,1 -1,-36h-60l-3,1M691,600v-4l25,-1M679,609h12v-8M625,316l6,-5 13,4 8,-6M870,743l1,25 -30,1h-31M744,696l24,1v-15h13l-1,-13M602,232l-5,5 -6,23 -10,9M793,135h-6M786,135v21l-19,-2M710,133l34,-35 5,-8 15,1M830,251h-1l-6,3 1,21 -33,1 -3,-19 -5,1 -5,-14 -1,-19 24,-1 10,-5M402,172l12,5M319,216l14,-11h7l-1,-19 4,-9M298,143l35,1M715,508l-63,1M640,456l-1,-22M930,516l-41,1M716,570l-25,1 -1,-26h-39M960,599l-15,3 -80,2M891,568l49,-2M875,858l-1,-27h-2l-1,-63M125,112l4,-86M777,206v19M788,257l-17,7M710,152l1,5v55M766,195h-25l-13,6 -3,7 -14,4v40l-11,3 -8,-1v-8h-25M793,344l-6,11v10h17v4l43,-1 13,15 -1,17 4,4 -7,2 -93,2"/>
  <g class="cities">
    <circle r="7" cx="759" cy="124"/>
    <text x="759" y="124">Jacksonville</text>
    <circle r="7" cx="958" cy="771"/>
    <text x="958" y="771">Miami</text>
    <circle r="7" cx="664" cy="466"/>
    <text x="664" y="466">Tampa</text>
  </g>
</svg>