<?xml version="1.0" encoding="utf-8"?>
<!DOCTYPE svg PUBLIC "-//W3C//DTD SVG 1.1//EN" "http://www.w3.org/Graphics/SVG/1.1/DTD/svg11.dtd">
<svg version="1.1" xmlns="http://www.w3.org/2000/svg" width="350" height="343" viewBox="0 0 350 343">
  <g class="counties" transform="scale(0.1)">
    <path data-fips-int="12001" data-name="Alachua County" d="M2330,646l13,21 24,1 3,5 19,11 19,-3 11,3 10,-2 5,5 20,0 7,23 10,5 6,3 10,13 1,15 3,1 -2,23 1,100 0,15 -14,6 -3,4 -3,-9 -6,5 -8,-3 -8,6 -20,1 -6,-5 0,-16 8,2 -9,-12 -83,1 -39,0 0,4 -26,-1 -1,-29 -43,2 0,-15 -2,-108 -1,-24 8,1 9,-16 6,3 10,-12 -4,-5 7,-4 6,-16 9,-1 4,-6 20,0 6,6 15,-2Z"/>
    <path data-fips-int="12003" data-name="Baker County" d="M2486,425l1,44 0,43 1,22 -40,1 -94,2 0,1 -43,1 0,-74 -1,-51 0,-50 -1,-48 105,7 -8,5 -3,10 5,13 12,12 -2,37 6,17 10,10 24,-5 14,5Z"/>
    <path data-fips-int="12007" data-name="Bradford County" d="M2488,534l4,204 -1,8 -3,0 -1,-15 -10,-13 -6,-3 -10,-5 -7,-23 -20,0 -5,-5 -10,2 -11,-3 -19,3 -19,-11 -3,-5 -24,-1 -13,-21 12,-2 19,-8 1,-9 13,3 14,-16 9,-21 15,-4 19,-18 4,-15 10,-5 2,-16Z"/>
    <path data-fips-int="12019" data-name="Clay County" d="M2642,507l-1,19 -9,-1 -12,8 -9,12 7,6 2,-7 12,-3 2,-11 5,0 4,13 0,26 -9,14 9,8 7,19 20,3 8,8 4,12 -7,7 -2,13 9,29 -89,4 -22,17 -20,5 -14,23 -14,0 -14,4 -9,11 -9,0 1,-8 -4,-204 -1,-22 44,0 76,-3Z"/>
    <path data-fips-int="12023" data-name="Columbia County" d="M2309,316l1,48 0,50 1,51 0,74 1,18 -23,10 -11,16 -1,14 -14,6 2,18 15,7 1,10 -4,6 -9,1 -6,16 -7,4 4,5 -10,12 -6,-3 -9,16 -8,-1 -15,-2 -17,-11 -9,-12 -7,-25 -13,-1 5,-11 11,-5 1,-11 -15,0 -1,-175 0,5 13,-2 7,7 9,-9 4,7 14,-9 -1,-7 10,-9 7,-19 -5,-15 -6,-3 -3,-14 -10,-1 2,-8 -8,-7 -6,-13 5,-6 -5,-8 16,-20Z"/>
    <path data-fips-int="12027" data-name="DeSoto County" d="M2727,2084l-88,2 -102,0 -3,2 -27,0 -1,-88 -1,-65 88,0 0,-2 65,-1 66,-2 2,97Z"/>
    <path data-fips-int="12033" data-name="Escambia County" d="M217,427l-46,13 -43,8 22,-8 8,0 5,-7 12,6ZM387,407l0,2 -114,21 -24,3 -20,-2 0,-5 20,5 33,-4ZM238,232 4,8 0,19 5,21 -2,5 9,8 11,21 13,6 -3,9 10,5 0,25 -7,20 -5,-2 -8,9 -16,6 -18,12 8,10 -2,4 -18,0 -4,6 -30,3 -8,8 -10,-4 -13,2 -16,-2 21,-1 15,-14 -12,-10 7,-8 0,-10 14,0 21,-9 3,-4 -6,-11 -26,-5 -6,-6 0,-14 -6,-16 16,-26 6,-13 1,-22 -4,-10 -22,-12 -10,-11 -6,-1 -14,-11 -6,-19 -15,-17 -8,-5 -11,-13 -3,-11 7,-9 14,-38 -4,-16 35,1 77,1 48,1 27,0 -18,15 -10,4 -12,15 -13,2 -1,19 -4,1 -9,19 4,0 4,18 -9,12 0,26 7,9Z"/>
    <path data-fips-int="12039" data-name="Gadsden County" d="M1524,269l-6,1 -2,22 -9,9 -4,10 0,1 0,-1 0,1 -19,11 -6,13 0,12 -6,9 2,13 -10,9 -32,1 -15,11 -16,3 -10,11 -13,0 -11,11 -14,0 0,-15 -15,0 0,-21 -28,0 0,-29 -15,0 0,-7 -29,-2 0,-35 -21,-1 12,-8 7,-20 13,-16 -3,-8 111,7Z"/>
    <path data-fips-int="12041" data-name="Gilchrist County" d="M2226,694l1,24 2,108 -44,2 0,-8 -7,-4 -36,1 0,-4 -36,1 -7,2 -8,-11 0,-9 7,-6 0,-31 8,0 -6,-13 6,-9 -5,-4 5,-17 8,-5 -8,-6 7,-8 12,-1 2,-13 5,-6 -2,-11 8,-12 14,-3 13,-8 13,1 7,25 9,12 17,11Z"/>
    <path data-fips-int="12043" data-name="Glades County" d="M3000,1990l4,6 10,3 5,11 9,0 5,7 -4,98 -11,42 -14,54 -96,2 -79,1 -43,1 0,-7 -11,0 0,7 -47,1 0,-78 -1,-54 94,-1 37,-1 -1,-45 44,-1 -1,-43 74,-3Z"/>
    <path data-fips-int="12047" data-name="Hamilton County" d="M2209,310l-16,20 5,8 -5,6 6,13 8,7 -2,8 10,1 3,14 6,3 5,15 -7,19 -10,9 1,7 -14,9 -4,-7 -9,9 -7,-7 -13,2 0,-5 -16,-4 -6,2 -21,-16 -24,-13 -3,-6 -12,-3 -10,-7 -3,4 -9,-3 -18,3 -2,-7 -17,3 -15,7 -7,17 -4,-13 -16,-4 -4,-24 -8,-4 2,-20 -10,-33 2,-2 -7,-21 -15,-3 111,7 55,4Z"/>
    <path data-fips-int="12049" data-name="Hardee County" d="M2724,1930l-66,2 -65,1 0,2 -88,0 -1,-154 120,-1 33,-1 64,-1Z"/>
    <path data-fips-int="12051" data-name="Hendry County" d="M3038,2428l2,36 -174,7 -3,-57 -2,-75 -60,2 -29,2 -41,1 -3,-82 0,-46 47,-1 0,-7 11,0 0,7 43,-1 79,-1 96,-2 14,-54 11,-42 1,42 4,173Z"/>
    <path data-fips-int="12053" data-name="Hernando County" d="M2405,1272l-5,6 8,3 3,10 19,29 5,-2 13,6 13,-1 4,10 8,0 7,10 9,-4 8,6 0,21 -87,1 1,21 -7,1 -177,3 3,-25 -3,-10 8,-6 -6,-7 7,-1 1,-17 -4,-5 6,-6 -5,-6 1,-13 -4,-1 -1,-19 7,0 6,-15 94,-2 0,15Z"/>
    <path data-fips-int="12055" data-name="Highlands County" d="M2907,1775l0,24 -7,12 -15,12 -5,1 -3,12 5,4 1,8 -2,5 10,2 8,14 11,10 2,13 1,1 15,14 17,-1 15,14 -2,2 -5,6 9,13 5,4 2,1 6,3 1,17 6,12 10,9 8,3 -26,0 -74,3 1,43 -44,1 1,45 -37,1 -94,1 -1,-57 -2,-97 -3,-152 115,-3Z"/>
    <path data-fips-int="12059" data-name="Holmes County" d="M1004,108l-14,12 0,18 -6,2 -17,24 -5,12 -2,15 -2,17 -8,12 0,14 -50,-2 1,-14 -7,-1 0,-7 -29,-1 -6,16 4,11 -10,17 -82,-2 0,-56 3,-89 53,2 120,0Z"/>
    <path data-fips-int="12063" data-name="Jackson County" d="M1274,254l3,8 -13,16 -7,20 -12,8 -29,0 -72,-1 -2,21 -92,-3 -21,0 0,-32 2,-45 0,-31 -21,-2 0,-21 -50,-1 2,-15 5,-12 17,-24 6,-2 0,-18 14,-12 143,0 69,1 -1,13 11,7 -2,13 6,3 12,20 7,23 -6,11 4,24 8,12Z"/>
    <path data-fips-int="12065" data-name="Jefferson County" d="M1813,286l3,6 0,29 -7,0 0,7 -7,0 0,7 -15,0 0,7 -14,0 0,8 -9,0 -5,7 4,10 0,19 3,8 -14,14 -2,11 -11,3 -4,-6 -7,11 2,10 7,12 -14,6 0,4 -8,12 -17,6 -16,12 -1,13 -5,15 -9,1 -4,17 -14,28 -3,-5 -33,3 0,-87 0,-80 15,-14 0,-29 27,0 -8,-25 -4,-19 0,-32 76,5Z"/>
    <path data-fips-int="12067" data-name="Lafayette County" d="M2130,666l2,11 -5,6 -2,13 -12,1 -66,0 -106,2 -16,0 0,-32 -7,-3 0,-151 1,-32 52,-1 -2,15 5,2 -5,14 2,11 6,4 -3,8 7,8 -1,12 13,4 5,5 9,-7 14,6 27,7 -1,6 13,8 12,10 5,13 9,0 8,8 5,16 9,1 2,18 8,16 6,-6Z"/>
    <path data-fips-int="12069" data-name="Lake County" d="M2710,1006l10,6 13,27 1,14 15,-1 3,10 13,16 14,6 12,19 8,4 -6,9 6,8 2,29 -6,8 -6,11 -15,15 1,20 -99,2 -7,4 0,25 2,68 4,4 -4,10 2,109 -58,1 0,-8 -30,1 0,8 -44,0 0,-117 -1,-31 0,-72 -2,-87 84,-2 45,0 -1,-43 9,-1 -2,-51 -1,-64 3,16 7,9 1,9 9,6 10,-3Z"/>
    <path data-fips-int="12073" data-name="Leon County" d="M1643,275l0,32 4,19 8,25 -27,0 0,29 -15,14 0,80 -71,0 -3,-15 -122,0 -79,1 5,-8 -6,-8 14,-9 1,-9 15,-10 11,-11 13,0 10,-11 16,-3 15,-11 32,-1 10,-9 -2,-13 6,-9 0,-12 6,-13 19,-11 0,-1 0,1 0,-1 4,-10 9,-9 2,-22 6,-1 75,4Z"/>
    <path data-fips-int="12077" data-name="Liberty County" d="M1367,416l-15,10 -1,9 -14,9 6,8 -5,8 -7,7 -4,11 16,9 0,7 8,7 2,15 5,8 -2,23 9,11 10,21 5,-1 10,17 15,5 5,5 -55,-1 -77,0 -68,-2 -8,21 -2,-8 -9,-1 -3,-8 -18,-5 -15,-15 0,-19 -8,-4 2,-11 8,-4 -6,-3 6,-10 -2,-17 9,-10 14,-14 2,-11 8,-5 2,-21 10,-4 -7,-14 5,-19 10,-4 -5,-6 -2,-12 5,-6 16,-4 -7,-8 6,-7 -8,-3 5,-6 0,-15 14,-22 -2,-8 10,-1 5,-12 21,1 0,35 29,2 0,7 15,0 0,29 28,0 0,21 15,0 0,15Z"/>
    <path data-fips-int="12079" data-name="Madison County" d="M1943,294l15,3 7,21 -2,2 10,33 -2,20 8,4 4,24 16,4 4,13 -10,6 1,11 -9,2 2,18 -10,8 -6,17 -52,1 -44,0 0,-22 -13,0 -139,0 0,-4 14,-6 -7,-12 -2,-10 7,-11 4,6 11,-3 2,-11 14,-14 -3,-8 0,-19 -4,-10 5,-7 9,0 0,-8 14,0 0,-7 15,0 0,-7 7,0 0,-7 7,0 0,-29 -3,-6 77,4Z"/>
    <path data-fips-int="12083" data-name="Marion County" d="M2659,917l5,11 -8,5 -2,8 6,11 6,0 6,11 1,64 2,51 -9,1 1,43 -45,0 -84,2 -63,1 -43,1 -50,0 -4,-6 -18,-10 -2,-5 -22,-4 -13,-13 -12,-5 -27,2 -1,-84 57,-2 -2,-71 0,-63 83,-1 9,12 -8,-2 0,16 6,5 20,-1 8,-6 8,3 6,-5 3,9 3,-4 14,-6 0,-15 10,-11 13,-5 17,-1 13,-7 32,0 7,-3 0,18 29,-2 2,30 14,-1 1,29Z"/>
    <path data-fips-int="12093" data-name="Okeechobee County" d="M3026,1773l42,-1 1,42 44,-1 0,22 5,154 1,42 -20,19 -48,43 -22,22 4,-98 -5,-7 -9,0 -5,-11 -10,-3 -4,-6 -8,-3 -10,-9 -6,-12 -1,-17 -6,-3 -2,-1 -5,-4 -9,-13 5,-6 2,-2 -15,-14 -17,1 -15,-14 -1,-1 -2,-13 -11,-10 -8,-14 -10,-2 2,-5 -1,-8 -5,-4 3,-12 5,-1 15,-12 7,-12 0,-24Z"/>
    <path data-fips-int="12095" data-name="Orange County" d="M2775,1207l-2,23 -10,13 -6,0 0,37 58,0 0,14 149,-5 19,9 5,13 1,14 13,15 8,0 4,12 2,7 -9,3 2,9 -5,7 8,18 -2,6 8,6 4,13 -60,0 -10,2 -66,0 -59,2 -66,1 -14,1 -74,2 -2,-109 4,-10 -4,-4 -2,-68 0,-25 7,-4Z"/>
    <path data-fips-int="12097" data-name="Osceola County" d="M3022,1421l3,98 0,33 -3,0 4,131 -6,1 2,44 3,0 1,45 -119,2 2,0 3,-8 -7,-7 0,-18 -10,-11 -2,-14 -12,-15 -5,-14 -9,-11 -24,-3 -7,-7 -8,-21 1,-7 -14,-8 2,-2 -4,-11 -12,-7 -6,-13 -12,3 -12,-18 -7,-2 1,-9 6,-2 3,9 23,10 8,-9 -1,-15 9,-1 0,-7 -49,0 -1,-28 -29,0 -1,-29 -15,-28 -45,0 0,-43 74,-2 14,-1 66,-1 59,-2 66,0 10,-2Z"/>
    <path data-fips-int="12101" data-name="Pasco County" d="M2497,1366l1,83 1,26 -22,0 0,44 -107,2 -133,0 -58,1 -7,-6 9,-12 12,-11 4,-25 4,-6 0,-16 14,-25 0,-19 12,-10 177,-3 7,-1 -1,-21Z"/>
    <path data-fips-int="12105" data-name="Polk County" d="M2673,1429l0,43 45,0 15,28 1,29 29,0 1,28 49,0 0,7 -9,1 1,15 -8,9 -23,-10 -3,-9 -6,2 -1,9 7,2 12,18 12,-3 6,13 12,7 4,11 -2,2 14,8 -1,7 8,21 7,7 24,3 9,11 5,14 12,15 2,14 10,11 0,18 7,7 -3,8 -2,0 -71,0 -115,3 -64,1 -33,1 -120,1 -1,-54 0,-53 -2,-49 -2,-65 0,-41 -22,0 0,-44 22,0 -1,-26 13,-6 9,0 9,8 12,-1 0,-19 44,0 0,-8 30,-1 0,8Z"/>
    <path data-fips-int="12119" data-name="Sumter County" d="M2538,1124l2,87 0,72 1,31 0,117 0,19 -12,1 -9,-8 -9,0 -13,6 -1,-83 0,-21 -8,-6 -9,4 -7,-10 -8,0 -4,-10 -13,1 -13,-6 -5,2 -19,-29 -3,-10 -8,-3 5,-6 6,-17 -1,-7 19,-21 9,-1 -1,-10 8,-9 -5,-13 -22,-16 -5,-10 -14,-10 -11,-27 -6,-5 50,0 43,-1Z"/>
    <path data-fips-int="12121" data-name="Suwannee County" d="M2166,441l1,175 15,0 -1,11 -11,5 -5,11 -13,8 -14,3 -8,12 -6,-7 -6,6 -8,-16 -2,-18 -9,-1 -5,-16 -8,-8 -9,0 -5,-13 -12,-10 -13,-8 1,-6 -27,-7 -14,-6 -9,7 -5,-5 -13,-4 1,-12 -7,-8 3,-8 -6,-4 -2,-11 5,-14 -5,-2 2,-15 6,-17 10,-8 -2,-18 9,-2 -1,-11 10,-6 7,-17 15,-7 17,-3 2,7 18,-3 9,3 3,-4 10,7 12,3 3,6 24,13 21,16 6,-2Z"/>
    <path data-fips-int="12123" data-name="Taylor County" d="M1919,481l-1,32 0,151 7,3 0,32 16,0 0,22 -8,9 -6,25 0,8 -8,15 -9,-2 -1,-1 -14,1 -21,-8 -9,-12 -17,-7 -12,-10 -12,-29 0,-10 -14,-10 -8,-22 -22,-19 -31,-19 -13,-11 -1,4 -16,-4 -10,-9 -10,-5 -32,-24 -16,-8 -2,-10 14,-28 4,-17 9,-1 5,-15 1,-13 16,-12 17,-6 8,-12 139,0 13,0 0,22Z"/>
    <path data-fips-int="12125" data-name="Union County" d="M2330,646l-8,-4 -15,2 -6,-6 -20,0 -1,-10 -15,-7 -2,-18 14,-6 1,-14 11,-16 23,-10 -1,-18 43,-1 0,-1 94,-2 -2,16 -10,5 -4,15 -19,18 -15,4 -9,21 -14,16 -13,-3 -1,9 -19,8Z"/>
    <path data-fips-int="12131" data-name="Walton County" d="M774,106l-3,89 0,56 82,2 -5,2 -7,18 -18,12 -1,21 9,5 1,10 5,5 1,12 -4,2 7,11 4,4 -8,15 -4,-3 -6,16 -22,-2 -13,7 -5,12 0,8 -2,60 -50,-21 -75,-27 -30,-7 -18,-2 1,-10 13,6 14,0 7,-16 7,9 25,7 5,-6 -15,-9 9,-5 19,16 14,8 21,2 0,-16 -6,-5 6,-4 -14,-2 -5,-13 -8,2 -12,-17 -5,6 -14,-6 -20,6 -7,-3 -33,12 4,-80 0,-57 2,-66 2,-14 1,-52 39,0 39,0 40,2Z"/>
    <path data-fips-int="12133" data-name="Washington County" d="M1029,323l-23,0 -1,65 -74,-2 -31,0 -53,-2 -11,14 -13,3 -5,-6 -18,3 -13,10 0,-8 5,-12 13,-7 22,2 6,-16 4,3 8,-15 -4,-4 -7,-11 4,-2 -1,-12 -5,-5 -1,-10 -9,-5 1,-21 18,-12 7,-18 5,-2 10,-17 -4,-11 6,-16 29,1 0,7 7,1 -1,14 50,2 0,-14 8,-12 2,-17 50,1 0,21 21,2 0,31 -2,45Z"/>
    <path data-fips-int="12005" data-name="Bay County" d="M1044,592l0,51 -9,-7 -19,-8 -11,0 -9,-9 8,0 -18,-17 -8,-10 -18,-13 7,14 -15,-17 -33,-15 -19,-14 30,18 20,6 -34,-26 8,-10 2,8 13,4 6,-4 -2,11 9,6 18,-1 2,6 9,1 -1,10 12,5 2,8 17,10 13,0 -2,-8 7,-6ZM1050,323l-1,69 -2,15 0,68 -2,32 -1,82 -20,-13 -8,15 -10,0 -6,-17 2,-14 -14,0 0,-15 -18,-4 -2,6 -18,-4 -2,-6 -14,1 -3,-10 -20,-6 -14,-10 7,-3 10,-13 5,-1 3,-14 29,-3 7,-6 5,-19 11,-13 1,-10 -17,18 -2,19 -11,1 -9,6 -1,-12 -7,10 -14,-1 -5,14 -6,3 -4,-21 -14,-12 -6,6 -32,0 -3,19 6,10 12,4 0,-9 9,-4 11,4 0,8 11,7 -5,19 12,5 7,8 -5,5 -23,-13 21,16 -4,3 -15,-15 -24,-17 -40,-26 -32,-17 2,-60 13,-10 18,-3 5,6 13,-3 11,-14 53,2 31,0 74,2 1,-65 23,0Z"/>
    <path data-fips-int="12009" data-name="Brevard County" d="M3124,1437l3,-18 4,0 2,-22 -8,-9 17,0 -5,21 -2,24 1,22 6,38 9,37 20,51 26,53 14,24 -11,-4 2,-8 -5,-12 -8,-2 -7,-11 1,-9 -9,-13 2,-5 -14,-23 -10,-21 -7,-21 -5,-5 -6,-18 -3,-36 4,-10 -2,-17ZM3022,1199l16,72 0,10 6,3 4,30 7,11 0,14 10,21 8,35 19,42 18,45 4,14 11,20 7,19 16,34 9,14 35,78 -3,12 -4,7 -88,1 -71,2 -4,-131 3,0 0,-33 -3,-98 -4,-13 -8,-6 2,-6 -8,-18 5,-7 -2,-9 9,-3 -2,-7 -4,-12 -8,0 -13,-15 -1,-14 -5,-13 -19,-9 10,0 -3,-88ZM3050,1198l9,17 37,43 18,7 -1,-7 -12,-19 -10,-6 -2,-9 -18,-26 2,0 21,31 13,17 20,29 19,24 10,37 13,27 -15,8 -10,15 -17,0 8,-5 1,-19 6,-18 3,-18 -2,-14 -4,11 0,-19 -7,0 -3,19 -14,30 -6,36 2,25 -1,19 -3,-21 -10,-8 16,64 20,42 -18,-35 -31,-80 -2,-16 1,-20 -6,-9 2,-26 3,-12 5,1 -6,-14 20,2 9,-3 -2,-7 9,-2 3,7 5,-6 -8,-6 -13,5 5,7 -9,3 -29,-6 -18,-10 8,-9 -8,-10 0,-16 16,-7 0,-8 -13,-15 -13,-5 4,-4 -18,-10Z"/>
    <path data-fips-int="12011" data-name="Broward County" d="M3399,2423l-2,31 -4,19 -4,37 0,27 -2,4 -2,55 -79,5 0,8 -26,0 -147,4 0,-11 -87,2 -3,-73 -2,-23 -1,-44 -2,-36 49,-2 93,-2 28,-2 76,-1 47,-2 10,3 34,-1Z"/>
    <path data-fips-int="12015" data-name="Charlotte County" d="M2376,2133l44,0 -1,-27 7,15 25,16 11,34 6,35 -8,8 -3,-8 2,-14 -9,11 -18,-5 -8,2 4,-12 -7,8 -3,-7 -22,-10 -3,-17 -7,-17ZM2727,2084l1,54 0,78 -138,2 -82,1 5,-22 -5,-16 3,-10 -4,-8 -12,-3 -5,-13 3,-5 12,0 4,-7 22,-7 8,-8 -5,-8 -8,7 -17,2 -4,6 -24,-5 -8,19 -8,1 -17,-21 -9,4 -9,-6 -2,-14 -9,-2 0,-14 88,-1 27,0 3,-2 102,0Z"/>
    <path data-fips-int="12017" data-name="Citrus County" d="M2189,1110l18,-17 10,-1 21,5 11,6 7,-9 11,0 17,-9 27,-2 12,5 13,13 22,4 2,5 18,10 4,6 6,5 11,27 14,10 5,10 22,16 5,13 -8,9 1,10 -9,1 -19,21 1,7 -6,17 -68,2 0,-15 -94,2 -13,-11 -8,3 -3,-9 18,-9 3,-8 -11,2 0,-7 -8,1 -5,-19 6,-7 9,-1 8,17 -2,-16 4,-5 -28,8 -9,-6 -4,-16 10,-8 1,8 8,-6 10,7 6,-2 -4,-13 6,2 -6,-11 -13,-2 4,-5 -12,-7 -16,-22 2,-10Z"/>
    <path data-fips-int="12021" data-name="Collier County" d="M2805,2686l8,0 -12,9 -6,-8ZM2784,2673l13,0 -13,16 -3,-9 -7,-6 4,-6ZM2761,2655l-2,6 6,8 4,-6 7,5 -5,8 -10,-6 -1,10 -8,-15 1,-13ZM2741,2661l-1,-11 9,11 -5,2 -4,2ZM2671,2653l11,5 8,10 -5,10ZM2664,2620l6,0 10,10 4,-4 12,4 7,18 -23,2 6,-3 0,-10 -7,-4 0,11 -17,3 0,-10 -10,-11ZM2643,2585l-2,-4 3,0 9,7 -5,6ZM2638,2566l1,3 2,12 2,4 -9,-12 -4,-18ZM3040,2464l1,44 2,23 3,73 1,59 1,28 -113,3 -62,1 -36,1 -2,-8 -32,-21 -19,-2 -8,-13 -15,3 0,-7 -12,2 -5,-10 -6,3 8,5 -18,6 -6,-4 -8,-4 15,-5 -16,-7 0,-8 -6,9 6,3 -2,5 -13,-9 -8,-8 -12,-4 8,-4 4,4 4,-9 -13,2 -6,-4 -4,7 -1,-10 -12,5 10,-8 -8,-2 0,-17 -16,-5 -5,-12 -1,-3 -2,-24 -6,-5 4,14 -4,4 -2,0 -9,-69 -12,-48 11,-1 1,7 72,-2 -2,-51 44,-2 -2,-45 41,-1 29,-2 60,-2 2,75 3,57Z"/>
    <path data-fips-int="12029" data-name="Dixie County" d="M2113,697l-7,8 8,6 -8,5 -5,17 5,4 -6,9 6,13 -8,0 0,31 -7,6 0,9 8,11 7,-2 -4,16 -14,13 -2,33 -7,2 -9,16 -1,17 -18,12 -2,11 5,2 -17,5 -4,6 -13,0 -11,13 -4,-4 9,-7 -9,-4 -2,-17 -10,-5 -6,-21 -10,-9 -18,0 -12,-10 -4,-11 -6,0 -12,-12 -17,-10 -5,-37 4,-3 -4,-10 2,-17 5,-7 -1,-1 1,1 9,2 8,-15 0,-8 6,-25 8,-9 0,-22 106,-2Z"/>
    <path data-fips-int="12031" data-name="Duval County" d="M2754,475l-2,0 2,73 -45,2 -1,-8 -12,1 -9,-4 -15,-5 -14,3 -8,-6 2,-8 8,-4 7,-12 -5,-5 8,-5 2,-10 -19,-24 4,-7 -1,-14 12,6 10,-5 -3,-18 -5,-12 6,-5 32,16 6,-6 -4,-10 23,-2 3,7 10,4 3,23 7,4 2,23ZM2776,474l-21,1 4,-16 -2,-15 -5,-4 -3,-27 5,-12 15,2 -1,30ZM2717,401l1,3 -18,4 6,-12ZM2756,388l4,9 -14,12 -6,-3 11,-5 -8,-12 3,-10ZM2742,347l10,11 8,1 3,31 -6,-10 -11,-3 -6,-13 2,-6 -8,-10ZM2724,351l-8,0 -4,-5 -6,4 -3,-9 11,-10 10,13ZM2678,323l7,-3 -2,9 7,6 8,-5 6,21 12,0 8,0 2,-7 -4,-17 16,15 0,13 6,22 -5,5 3,10 -13,-3 -12,-10 3,7 -1,12 -10,-6 -7,6 -4,10 -10,-10 -10,-3 -11,10 -11,0 -11,-11 8,13 12,3 7,14 -3,18 -17,-1 -25,29 11,-7 4,16 12,4 -1,11 -6,-1 -5,14 -35,2 -76,3 -44,0 0,-43 102,-108 6,-10 6,1 6,-7 0,-9 12,0 1,-11 6,-7 15,2 9,8 6,-13 11,-5 11,8Z"/>
    <path data-fips-int="12035" data-name="Flagler County" d="M2839,770l10,1 18,45 2,2 12,15 12,39 10,12 -21,9 4,72 -26,2 -91,3 -2,-70 -6,1 0,1 -18,2 -3,-11 -7,-8 1,-13 -12,-19 -2,-63 70,-3 17,0 -1,-14 20,1 7,-8ZM2905,884l-2,0 -8,-13 -12,-34 -9,-18 -5,-1 -9,-20 -7,-34 2,0 22,56Z"/>
    <path data-fips-int="12037" data-name="Franklin County" d="M1162,764l17,8 -10,19 -13,3 -25,-18 -14,-9 22,-1 7,5 7,-7ZM1336,736l-24,25 -13,7 -40,16 -24,16 -19,7 -26,8 -8,-11 23,5 19,-7 16,-9 5,-8 9,0 10,-8 33,-9 25,-22ZM1117,761l5,-9 42,-32 14,4 8,-9 4,5 29,24 -5,7 -20,1 -14,-3 -19,0ZM1395,697l0,10 -20,7ZM1410,605l7,1 6,9 11,2 8,-7 9,14 4,6 11,-2 13,2 21,9 1,10 -7,13 -9,-8 -31,-8 -13,1 -8,8 -7,-3 -12,3 -29,16 -15,12 -25,12 -32,21 -25,14 -20,8 -8,9 -6,-5 7,-16 12,-13 -1,-5 -10,8 -16,1 -12,19 -8,-2 -1,-6 -8,12 -26,-22 13,-15 -6,-9 -4,-25 -5,-12 13,-23 0,-11 8,-21 68,2 77,0Z"/>
    <path data-fips-int="12045" data-name="Gulf County" d="M1164,508l-9,10 2,17 -6,10 6,3 -8,4 -2,11 8,4 0,19 15,15 18,5 3,8 9,1 2,8 0,11 -13,23 5,12 4,25 6,9 -13,15 -1,2 -4,-5 -8,9 -14,-4 -42,32 -5,9 -18,4 -25,1 -15,9 -10,-11 -10,-27 -7,-36 0,-15 5,-14 6,-2 -8,20 2,33 4,2 2,18 11,24 23,-5 2,-13 0,-24 2,-20 -8,-19 -8,-7 -9,-21 -12,-15 0,-51 0,-3 1,-82Z"/>
    <path data-fips-int="12057" data-name="Hillsborough County" d="M2477,1519l22,0 0,41 2,65 2,49 0,53 1,54 -10,1 -107,0 -75,2 -28,0 8,-15 8,3 -2,-12 13,-8 16,1 -8,-4 -2,-15 13,-5 11,-12 6,-16 6,-2 -1,-14 5,-9 -8,4 1,-13 -8,-11 -7,2 13,-24 -14,2 3,12 -3,6 -12,-4 1,-12 -14,11 5,17 -3,8 8,10 -2,12 -24,-7 -9,-13 8,-5 -5,-6 5,-10 -1,-13 -9,-18 -21,-6 -22,-20 -2,-77 133,0Z"/>
    <path data-fips-int="12061" data-name="Indian River County" d="M3256,1810l-48,0 -95,3 -44,1 -1,-42 -42,1 -1,-45 -3,0 -2,-44 6,-1 71,-2 88,-1 4,-7 4,-9 37,65 16,33 0,15ZM3271,1809l-5,1 -2,-18 -12,-19 -4,-11 2,-9 -9,-8 -5,-17 6,7 -10,-25 -13,-11 3,-8 -8,-4 6,-5 -9,-22 25,49 7,15 17,57 6,9Z"/>
    <path data-fips-int="12071" data-name="Lee County" d="M2590,2400l-6,0 -13,-15 -17,-9 13,2 13,9ZM2455,2364l4,-6 14,9 6,-1 25,16 5,-13 20,10 -20,12 -16,1 -14,-7ZM2487,2285l12,2 7,16 -3,11 -5,0 -8,-10ZM2465,2252l14,3 9,16 -2,22 5,16 14,28 -2,7 8,13 -16,3 -4,-6 0,-13 -9,-20 1,-8 -10,-21 0,-9 -15,-18 -4,-8ZM2429,2279l-9,-13 4,-15ZM2728,2216l0,46 3,82 2,45 -44,2 2,51 -72,2 -1,-7 -11,1 -10,-23 4,-1 4,15 6,-3 -6,-36 -10,-19 -7,12 -9,-1 0,-11 -8,11 -10,-16 0,6 -12,-7 -18,-6 9,-3 -7,-5 3,-10 9,7 17,-10 9,-16 9,-8 6,-24 28,-28 14,-8 -6,-3 -15,5 -20,18 -5,0 -9,15 0,12 -14,32 -12,-1 -28,9 -12,-20 6,-3 2,-17 -16,-30 1,-27 5,-9 3,-16 82,-1Z"/>
    <path data-fips-int="12075" data-name="Levy County" d="M2229,826l0,15 43,-2 1,29 26,1 0,-4 39,0 0,63 2,71 -57,2 1,84 -17,9 -11,0 -7,9 -11,-6 -21,-5 -10,1 -18,17 -2,1 -3,-2 11,-12 -9,-7 3,-11 -9,-1 -6,-8 -13,0 -3,-11 16,-8 -7,0 1,-10 -5,-14 -10,4 -8,-6 -15,3 -6,-4 -16,1 -21,-6 -13,8 -6,-1 -10,-10 -4,4 0,-19 -8,-2 12,-7 -8,-2 -2,-12 -17,-8 -20,-5 8,-16 12,3 2,-5 4,-6 17,-5 -5,-2 2,-11 18,-12 1,-17 9,-16 7,-2 2,-33 14,-13 4,-16 36,-1 0,4 36,-1 7,4 0,8Z"/>
    <path data-fips-int="12081" data-name="Manatee County" d="M2247,1913l-2,0 -8,-11 -14,-13 16,9ZM2211,1847l14,38 -2,0 -11,-29 -12,-18ZM2504,1781l1,154 1,65 -88,1 0,-88 -139,0 -7,-13 -17,-6 -32,-24 16,5 6,-3 -1,-15 -9,7 -10,-2 1,-11 19,-5 6,5 21,8 20,-4 7,11 9,0 -10,-10 7,-9 25,-1 -11,-6 -16,4 -3,4 -20,5 -18,-4 -17,-9 12,0 4,5 17,-20 -7,-2 -12,8 -10,2 25,-27 13,0 -8,-8 5,-14 28,0 75,-2 107,0Z"/>
    <path data-fips-int="12085" data-name="Martin County" d="M3387,2099l-1,0 -14,-38 -3,-2 -12,-33 -17,-22 9,0 7,20 10,19 15,37ZM3384,2099l-10,0 -1,0 -6,1 -4,0 -4,7 -45,1 -64,1 -13,1 -208,5 22,-22 48,-43 20,-19 -1,-42 71,-2 101,-2 2,-2 8,2 -2,8 9,15 -3,-21 17,-4 9,18 9,3 14,18 16,40 4,5ZM3329,1955l19,36 3,10 -7,-1 3,-7 -5,-11 -6,-2 0,-9 -11,-16ZM3314,1956l22,39 0,4 -11,-21 -7,-2 -16,7 -10,-11 0,-16Z"/>
    <path data-fips-int="12086" data-name="Miami-Dade County" d="M3354,2873l7,-29 -2,-9 6,-4 0,12ZM3372,2741l1,6 -10,-6 5,-13 7,-6ZM3383,2635l3,15 0,28 -4,24 -9,-14 6,-8 2,-21 -7,-1 7,-10 -5,0 1,-9ZM3383,2635l-2,-13 2,-11 -6,0 4,20 -18,19 -4,17 -3,39 -11,11 -11,5 -2,15 -10,21 -1,8 -12,7 -4,9 3,19 -6,15 -6,6 -4,16 4,28 5,2 -3,20 9,13 -13,19 -10,3 -6,12 -1,0 -9,7 -10,15 -3,13 -3,0 -11,0 -16,7 4,5 0,3 -5,4 -9,-12 9,-2 -28,-8 -11,7 -1,14 11,-10 9,4 -11,2 -16,11 0,-6 -22,5 -4,9 6,3 -1,10 -11,4 9,-8 -1,-6 -8,3 -2,-6 -12,14 -16,3 -8,-9 -16,-1 0,-8 -14,10 -4,-6 -11,-1 -1,-33 -2,-2 -1,-59 -5,0 -2,-88 -1,-54 -2,-78 -1,-28 -1,-59 87,-2 0,11 147,-4 26,0 0,-8 79,-5Z"/>
    <path data-fips-int="12089" data-name="Nassau County" d="M2709,241l11,0 -22,14 -2,-6 10,-1ZM2678,323l0,-5 -11,-8 -11,5 -6,13 -9,-8 -15,-2 -6,7 -1,11 -12,0 0,9 -6,7 -6,-1 -6,10 -102,108 -1,-44 5,-5 -3,-17 5,-8 -3,-7 9,-19 0,-31 5,-15 -5,-18 -5,-2 -11,-35 6,-22 -4,-5 4,-12 10,-5 -5,-12 8,-3 10,8 9,-9 -2,-11 6,-5 10,5 16,-4 4,11 18,8 15,-3 15,14 0,-7 13,5 8,11 26,-6 4,13 6,-3 13,9 9,-4 2,10 10,-2 4,10 14,-11 13,-5 11,15 -10,13 8,-3 2,-17 15,0 0,11 -5,37 0,22 3,23 -13,-14 -2,-12 -4,1 6,14 -12,-15 -14,3 1,12 -7,6 -4,-10 -7,4 -9,-4 2,-7Z"/>
    <path data-fips-int="12091" data-name="Okaloosa County" d="M439,403l1,-3 29,-5 29,0 43,6 12,0 8,4 -50,-5 -32,0ZM613,401l-1,10 -18,-3 -27,-1 -5,-6 12,-11 15,6ZM623,104l-1,52 -2,14 -2,66 0,57 -4,80 -11,0 -9,-15 -1,-8 12,-4 -14,-1 -1,8 -7,4 -5,-13 -8,-6 9,20 -3,8 -11,4 -14,2 -7,11 -13,-4 0,15 -8,3 -53,-5 -7,3 -23,-3 2,-37 2,-63 2,-18 2,-65 3,-57 2,-54 50,2 32,0 32,2Z"/>
    <path data-fips-int="12099" data-name="Palm Beach County" d="M3384,2099l3,8 -5,4 -8,-12ZM3363,2100l6,14 22,-1 16,58 -6,-7 1,33 3,27 0,29 2,8 -2,56 3,-12 2,-29 0,-36 -3,-1 0,-36 3,-5 2,33 -1,20 1,42 -8,60 -5,70 -24,-2 -34,1 -10,-3 -47,2 -76,1 -28,2 -93,2 -49,2 -4,-98 -4,-173 -1,-42 208,-5 13,-1 64,-1 45,-1Z"/>
    <path data-fips-int="12107" data-name="Putnam County" d="M2670,932l-4,-11 3,-11 9,10ZM2718,722l2,68 2,63 12,19 -1,13 7,8 3,11 18,-2 0,-1 0,1 -8,10 -53,16 -10,-12 -10,0 -14,-10 2,-17 -14,-4 6,-11 -5,-7 -1,-24 -11,-12 9,-22 18,-3 5,6 16,-17 -3,-15 -9,1 0,-8 -7,-17 3,-4 23,1 10,-9ZM2682,682l13,25 7,4 0,9 -6,22 -25,4 -9,7 2,11 9,7 0,16 16,0 -2,11 -13,8 -4,-3 -18,1 -9,18 -1,12 11,10 -3,14 4,2 -6,9 -1,14 15,8 0,17 -11,1 8,8 -31,0 -1,-29 -14,1 -2,-30 -29,2 0,-18 -7,3 -32,0 -13,7 -17,1 -13,5 -10,11 -1,-100 2,-23 -3,-1 3,0 9,0 9,-11 14,-4 14,0 14,-23 20,-5 22,-17Z"/>
    <path data-fips-int="12109" data-name="Saint Johns County" d="M2827,662l8,49 13,32 -7,-3 -4,-20 -7,-12 -4,-12 -12,-13 -3,-14 4,-8 -3,-10 11,8 -6,-12 6,-2ZM2851,764l-2,0 -10,6 -6,-4 -7,8 -20,-1 1,14 -17,0 -70,3 -2,-68 0,-14 -12,-8 -4,-19 3,-9 -7,-2 -9,-13 -3,-14 10,-8 -5,-7 4,-9 -3,-11 -12,-1 -2,-7 -19,-13 -3,2 -3,-15 5,-11 9,-9 -3,-9 6,-7 17,1 9,4 12,-1 1,8 45,-2 -2,-73 2,0 9,19 8,34 12,24 -2,14 3,20 15,16 2,17 5,3 5,18 -2,9 4,12 -4,14 16,32 2,10 5,0 3,17 14,21ZM2755,475l21,-1 9,35 12,49 6,33 10,38 6,15 -3,0 -7,-19 -8,-10 4,-10 -12,-53 -2,0 11,55 -16,-21 -3,-20 2,-13 -16,-31 -5,-26Z"/>
    <path data-fips-int="12111" data-name="Saint Lucie County" d="M3329,1955l-4,0 -3,-11 -6,-1 2,-10 -15,-21 -5,-26 -8,-12 -6,-2 1,-15 -11,2 12,-7 16,43 12,21ZM3271,1809l15,42 -6,1 -8,-9 -4,-14 4,-8 -8,-5 2,-6ZM3256,1810l12,41 14,39 29,61 3,5 -22,0 0,16 -16,-7 14,13 2,5 -2,2 -101,2 -71,2 -5,-154 0,-22 95,-3Z"/>
    <path data-fips-int="12113" data-name="Santa Rosa County" d="M440,400l-1,3 -52,6 0,-2ZM453,98l-2,54 -3,57 -2,65 -2,18 -2,63 -2,37 -64,4 -38,5 -36,7 -25,8 -3,4 -8,-9 7,-4 19,0 5,-7 19,-8 28,0 19,-8 19,-17 9,8 15,1 -14,-4 -7,-8 -17,-6 -22,-16 4,-9 8,0 -3,-13 8,-12 -9,-4 -10,-14 0,7 10,12 -5,11 -9,3 -6,19 -10,27 -11,4 -3,-5 4,-12 -2,-23 -13,-6 1,-8 -9,-14 -16,-3 3,18 -13,-6 -11,-21 -9,-8 2,-5 -5,-21 0,-19 -4,-8 -8,0 -7,-9 0,-26 9,-12 -4,-18 -4,0 9,-19 4,-1 1,-19 13,-2 12,-15 10,-4 18,-15 64,2 11,2Z"/>
    <path data-fips-int="12115" data-name="Sarasota County" d="M2285,1959l14,27 -21,-18ZM2279,1913l139,0 0,88 88,-1 1,88 -88,1 0,14 0,3 1,27 -44,0 -16,-22 -10,-10 -10,-14 -15,-39 -2,-16 -11,-15 2,-4 -7,-22 -17,-20 1,-21ZM2245,1913l2,0 19,23 1,6 -13,-15Z"/>
    <path data-fips-int="12117" data-name="Seminole County" d="M2964,1289l-149,5 0,-14 -58,0 0,-37 6,0 10,-13 2,-23 -1,-20 15,-15 6,-11 7,7 -3,7 18,7 14,-1 26,1 6,14 7,6 8,-2 -1,7 20,-5 8,-18 19,4 10,19 -2,15 19,28 -3,5 7,10 -2,9Z"/>
    <path data-fips-int="12127" data-name="Volusia County" d="M3029,1129l-6,4 -1,13 -8,-21 4,4 6,-6ZM3053,1165l-19,-23 -3,-13 -18,-9 -3,-22 -10,1 4,-5 -10,-4 -3,-7 5,-12 20,33 20,31ZM2978,1058l4,7 10,3 2,9 -5,5 6,15 14,23 11,27 16,31 14,20 -21,1 -7,0 -51,2 3,88 -10,0 -11,-15 2,-9 -7,-10 3,-5 -19,-28 2,-15 -10,-19 -19,-4 -8,18 -20,5 1,-7 -8,2 -7,-6 -6,-14 -26,-1 -14,1 -18,-7 3,-7 -7,-7 6,-8 -2,-29 -6,-8 6,-9 -8,-4 -12,-19 -14,-6 -13,-16 -3,-10 -15,1 -1,-14 -13,-27 -10,-6 -6,-7 10,-3 8,-7 -2,-18 -6,-4 6,-15 -7,-3 -13,-21 53,-16 8,-10 0,-1 6,-1 2,70 91,-3 26,-2 -4,-72 21,-9 9,22 -5,15 5,-2 19,45 15,27 8,22 9,20 4,-2ZM2905,884l19,46 38,80 15,29 13,17 -4,2 -18,-26 -1,-8 -12,-21 -29,-58 -23,-61Z"/>
    <path data-fips-int="12129" data-name="Wakulla County" d="M1498,588l5,2 -9,12 -2,-9ZM1613,474l0,87 -27,6 -8,7 -10,0 4,-15 -5,6 -9,-10 -1,6 -15,6 -2,-9 -13,6 1,12 -11,6 -11,-11 -9,7 -8,1 -3,18 -7,-6 0,17 9,-1 4,19 -17,-7 -16,-2 -8,7 -9,-14 -8,7 -11,-2 -6,-9 -7,-1 -5,-5 -15,-5 -10,-17 -5,1 -10,-21 -9,-11 2,-23 -5,-8 -2,-15 -8,-7 0,-7 -16,-9 4,-11 7,-7 79,-1 122,0 3,15Z"/>
    <path data-fips-int="12087" data-name="Monroe County" d="M2644,3312l6,8 19,-15 6,13 -3,4 -36,7ZM2494,3305l9,4 2,9 -4,4 1,-12 -12,-1ZM2711,3299l0,9 -13,10 -20,4 6,-8 -4,-7 18,-9ZM2734,3279l2,10 -10,0 -5,-6ZM2821,3273l-10,2 2,-10 8,2ZM2730,3301l0,-6 10,3 14,-15 -10,-4 0,-13 8,-12 17,14 3,18 -21,8 -2,3 -22,10ZM2823,3257l5,2 2,11 -5,0ZM2775,3249l12,10 2,14 -11,-7 -6,4 -5,-6 4,-17ZM2850,3244l9,2 4,14 -14,-12ZM2990,3228l-18,10 -4,11 -14,0 -4,-8 22,-6 6,-6ZM2833,3238l17,23 -1,5 -14,5 2,-5 -12,-19 -4,-15 3,-7ZM2823,3257l0,10 -8,-16 -5,3 -3,-10 -10,-7 2,-12 14,23ZM2990,3228l21,-8 12,-11 8,1 -17,13 -7,0 -14,13ZM3091,3183l4,3 -17,1 10,-8ZM3276,3016l1,-1 1,-1 1,-1 3,-2 -5,15 -12,9 15,-18ZM3229,2985l0,-3 12,-4 5,10 6,1 0,10 -10,9 8,-16 -12,-11ZM2967,2968l0,-3 1,-1 1,0 13,5 -7,5ZM2992,2966l4,-2 8,17 11,2 -18,3 -2,-6 -9,-1 -9,-4ZM2977,2940l0,8 -11,4 -2,-8ZM3282,3011l-3,2 -1,1 -1,1 -1,1 -8,8 -17,26 -5,-1 -17,20 -1,8 -14,12 -19,23 -16,7 6,-13 10,2 13,-21 -2,-5 11,2 9,-17 24,-25 5,-11 7,-5 -2,-9 8,1 8,-30 16,-6 6,-15 0,-13 -12,-6 8,-6 6,2 17,-15 7,-16 10,3 -24,42 -16,31 -10,13ZM2875,2724l9,2 6,8 -15,13 -11,-2 -1,-11ZM3048,2691l2,78 1,54 2,88 5,0 1,59 2,2 1,33 -17,6 -1,13 -8,-2 -13,6 -12,-1 -15,5 -9,-3 -29,7 -14,-17 -10,-2 4,-4 13,10 10,-2 -15,-8 -26,-28 4,-37 11,-24 23,8 -5,3 3,14 10,6 1,10 0,3 9,9 16,4 4,7 12,3 22,-2 10,-13 -4,-17 -11,9 5,-17 -6,8 -1,1 2,-5 -9,-12 -4,-16 -6,5 -4,-12 -5,6 -18,9 -10,-16 -9,3 -12,-4 -5,0 0,-12 -13,-1 0,-15 -11,-21 0,-13 -5,2 -14,-15 10,-22 10,-2 12,-15 7,5 -1,6 9,2 17,14 8,-6 -5,-13 -11,-6 -11,2 -3,-6 0,-1 -7,-6 9,-6 -10,-6 -7,23 -8,12 -22,3 -8,-9 6,-2 -10,-13 -2,-15 -13,-10 3,-8 -8,-6 27,-22 6,5 4,13 10,-6 -7,-13 -11,-1 1,-8 -9,-2 -13,-15 2,12 -14,13 2,9 -5,6 -17,-9 -3,-13 3,-8 -18,-4 12,-8 -12,-3 12,-4 2,7 6,-1 -6,-10 36,-1 62,-1Z"/>
    <path data-fips-int="12103" data-name="Pinellas County" d="M2194,1738l-3,-9 15,23 -3,8ZM2189,1728l5,10 -13,-20 8,-3ZM2165,1600l-3,24 -2,-24 4,-13ZM2237,1521l2,77 -6,10 -1,-15 -11,0 6,13 -12,20 -6,4 -1,10 21,12 8,1 4,9 7,1 15,13 4,17 -5,0 -11,-13 8,15 8,4 -15,14 -3,19 2,13 -6,11 -7,2 -17,-7 0,-13 -8,2 -14,-17 -6,-11 0,-21 -6,17 -9,-4 -6,-9 -11,-6 -1,4 21,24 -18,-17 -11,-23 1,-28 2,17 13,-27 8,-32 1,-16 6,-11 -3,-13 3,-10 -3,-18 -7,-17 6,0Z"/>
    <path data-fips-int="12013" data-name="Calhoun County" d="M1245,306l-5,12 -10,1 2,8 -14,22 0,15 -5,6 8,3 -6,7 7,8 -16,4 -5,6 2,12 5,6 -10,4 -5,19 7,14 -10,4 -2,21 -8,5 -2,11 -14,14 -119,-1 2,-32 0,-68 2,-15 1,-69 92,3 2,-21 72,1Z"/>
  </g>
  <g class="cities">
    <circle r="1" cx="265.7" cy="43.8"/>
    <text x="265.7" y="43.8">Jacksonville</text>
    <circle r="1" cx="335.5" cy="269.9"/>
    <text x="335.5" y="269.9">Miami</text>
    <circle r="1" cx="232.4" cy="163.3"/>
    <text x="232.4" y="163.3">Tampa</text>
  </g>
</svg>