<?xml version="1.0" encoding="utf-8"?>
<!DOCTYPE svg PUBLIC "-//W3C//DTD SVG 1.1//EN" "http://www.w3.org/Graphics/SVG/1.1/DTD/svg11.dtd">
<svg version="1.1" xmlns="http://www.w3.org/2000/svg" width="350" height="343" viewBox="0 0 350 343">
  <defs>
    <pattern id="pattern-no-results" width="50" height="50" patternUnits="userSpaceOnUse">
      <rect width="50" height="50" fill="#ddd"/>
      <path d="M-5,5L5,-5M-5,55L55,-5M45,55L55,45" stroke-width="10" stroke="#ffffff"/>
    </pattern>
  </defs>
  <g class="counties" transform="scale(0.1)">
    <path data-fips-int="12001" data-name="Alachua County" d="M2426,869l-2,2 2,0 -2,0 -2,-6 -85,0 -64,3 0,-28 -44,0 0,-16 -3,-130 28,-15 27,-41 48,9 43,27 82,13 17,26 5,12 13,21 2,123 -14,22 -1,0 -4,1 -20,3 -5,-1 -5,0 -13,1 -8,-19 1,-2 7,0 0,2 0,-2Z"/>
    <path data-fips-int="12003" data-name="Baker County" d="M2486,425l1,44 0,43 0,22 -40,0 -136,5 -3,-223 106,7 -12,16 19,23 -4,39 17,26Z"/>
    <path data-fips-int="12007" data-name="Bradford County" d="M2487,534l4,212 -2,0 -13,-21 -5,-12 -17,-26 -82,-13 -43,-27 50,-18 18,-36 50,-42 0,-17Z"/>
    <path data-fips-int="12019" data-name="Clay County" d="M2642,508l-32,43 29,-22 5,70 36,25 2,58 -90,4 -43,22 -10,23 -48,15 -4,-212 0,-22Z"/>
    <path data-fips-int="12023" data-name="Columbia County" d="M2281,638l-27,41 -28,15 -15,-2 -46,-50 16,-15 -15,-28 0,-159 2,5 28,-2 3,5 30,-44 -10,-21 -26,-39 5,-18 1,-2 10,-14 99,6 3,223 -43,62Z"/>
    <path data-fips-int="12027" data-name="DeSoto County" d="M2727,2085l-220,3 -2,-88 0,-65 217,-5Z"/>
    <path data-fips-int="12033" data-name="Escambia County" d="M292,92l-4,3 -13,10 -17,6 -20,18 -11,65 0,2 1,34 4,0 15,49 31,41 10,26 -15,35 -58,43 -2,3 0,-3 -56,6 13,-42 33,-8 -6,-20 -32,-11 -3,-26 25,-41 -5,-31 -40,-24 -55,-73 18,-38 0,-27Z"/>
    <path data-fips-int="12039" data-name="Gadsden County" d="M1401,393l-22,13 -11,8 -30,-13 0,-21 -28,0 0,-30 -44,-9 0,-34 -21,0 30,-54 247,16 -20,42 -3,2 -16,10 -10,49 -14,6 -48,13 -7,2Z"/>
    <path data-fips-int="12041" data-name="Gilchrist County" d="M2226,694l3,130 -45,3 -6,-11 -72,-2 -10,0 5,-83 12,-34 18,-31 34,-24 46,50Z"/>
    <path data-fips-int="12043" data-name="Glades County" d="M3019,2010l14,6 -4,99 -25,95 -276,6 -1,-131 131,-4 -2,-44 45,-1 -1,-44 99,-2 5,5 10,5Z"/>
    <path data-fips-int="12047" data-name="Hamilton County" d="M1950,295l259,15 -10,14 -1,2 -5,18 26,39 10,21 -30,44 -3,-5 -28,2 -2,-5 -21,0 -45,-31 -57,-18 -25,7 -15,19 -5,-11 -16,-8 -32,-103 -7,-3Z"/>
    <path data-fips-int="12049" data-name="Hardee County" d="M2722,1930l-217,5 -1,-153 218,-5Z"/>
    <path data-fips-int="12051" data-name="Hendry County" d="M3038,2428l0,36 -127,6 -46,-3 -4,-127 -129,3 -4,-127 276,-6 25,-95 2,145Z"/>
    <path data-fips-int="12053" data-name="Hernando County" d="M2404,1273l25,47 68,24 0,22 -86,1 0,21 -183,2 -2,-33 13,-42 -8,-41 12,-13 94,-1 0,14Z"/>
    <path data-fips-int="12055" data-name="Highlands County" d="M2975,1963l8,9 -2,2 2,5 8,8 5,-3 3,6 -99,2 1,44 -45,1 2,44 -131,4 -5,-155 0,-153 184,-1 2,0 -2,1 2,5 0,2 -23,39Z"/>
    <path data-fips-int="12059" data-name="Holmes County" d="M1005,108l-38,54 -7,27 -11,44 -45,0 -10,-22 -30,-2 -4,31 -1,3 -4,2 -1,8 -83,-2 1,-146Z"/>
    <path data-fips-int="12063" data-name="Jackson County" d="M1275,253l-30,54 -100,-2 -3,21 -92,-2 -22,-1 4,-109 -22,-21 -50,-4 7,-27 38,-54 211,2 29,57 3,58Z"/>
    <path data-fips-int="12065" data-name="Jefferson County" d="M1814,285l3,35 -57,34 5,39 -36,44 -5,22 -44,30 -31,78 -37,-5 0,-88 2,-81 15,-43 27,0 -14,-74Z"/>
    <path data-fips-int="12067" data-name="Lafayette County" d="M1970,487l10,67 66,14 62,64 18,34 4,0 1,0 -18,31 -173,2 -15,0 -7,-33 0,-187 52,0Z"/>
    <path data-fips-int="12069" data-name="Lake County" d="M2705,1001l2,0 1,2 2,3 25,46 55,48 10,26 2,5 -7,30 -12,17 -8,30 -107,5 5,216 -131,3 -3,-307 128,-3 8,-44 -3,-114 13,37Z"/>
    <path data-fips-int="12073" data-name="Leon County" d="M1403,393l1,0 7,-2 48,-13 14,-6 10,-49 16,-10 3,-2 20,-42 120,7 14,74 -27,0 -15,43 -2,81 -71,0 -2,-15 -201,0 30,-45 11,-8Z"/>
    <path data-fips-int="12077" data-name="Liberty County" d="M1368,414l-30,45 0,25 20,34 13,55 33,30 5,1 -199,-3 -9,21 -46,-36 -5,-40 13,-38 25,-29 15,-60 18,-47 -3,-23 27,-42 21,0 0,34 44,9 0,30 28,0 0,21Z"/>
    <path data-fips-int="12079" data-name="Madison County" d="M1943,292l7,3 32,103 16,8 5,11 0,2 -33,60 -52,0 -43,0 0,-20 -151,0 5,-22 36,-44 -5,-39 57,-34 -3,-35Z"/>
    <path data-fips-int="12083" data-name="Marion County" d="M2555,845l57,15 15,29 0,29 32,-1 -5,24 18,23 3,114 -8,44 -128,3 -157,1 -73,-45 -25,5 -1,-86 58,0 -4,-135 85,0 2,6 2,0 -2,0ZM2426,871l3,3 0,2 0,-2 -7,0 -1,2 8,19 13,-1 5,0 5,1 20,-3 4,-1 1,0 14,-22 16,-14Z"/>
    <path data-fips-int="12093" data-name="Okeechobee County" d="M2880,1841l5,-18 23,-39 0,-2 -2,-5 2,-1 2,0 116,-2 42,-2 1,43 44,-2 5,176 1,42 -90,84 4,-99Z"/>
    <path data-fips-int="12095" data-name="Orange County" d="M2983,1297l0,2 3,10 27,34 -7,24 0,20 17,34 -350,8 -5,-216 107,-5 -20,36 0,37 60,-2 0,13 148,-3 2,0Z"/>
    <path data-fips-int="12097" data-name="Osceola County" d="M2911,1772l-16,-40 -32,-57 -20,-2 -7,-5 -1,-3 1,0 -1,0 -20,-36 -17,-26 -5,-5 19,-37 -47,-5 -2,-28 -30,2 -15,-59 -45,2 0,-44 350,-8 3,262 0,91 -116,2 0,-2Z"/>
    <path data-fips-int="12101" data-name="Pasco County" d="M2497,1366l2,81 0,28 -22,1 0,42 -239,4 -60,0 15,-28 23,-99 12,-5 183,-2 0,-21Z"/>
    <path data-fips-int="12105" data-name="Polk County" d="M2911,1774l-1,0 0,2 -2,0 2,-2 -4,2 -184,1 -218,5 -5,-264 -22,0 0,-42 22,-1 0,-28 43,3 0,-18 131,-3 0,44 45,-2 15,59 30,-2 2,28 47,5 -19,37 5,5 17,26 20,36 1,0 -1,0 1,3 7,5 20,2 32,57Z"/>
    <path data-fips-int="12119" data-name="Sumter County" d="M2539,1125l3,307 0,18 -43,-3 -2,-81 0,-22 -68,-24 -25,-47 2,0 5,-26 35,-39 -64,-82Z"/>
    <path data-fips-int="12121" data-name="Suwannee County" d="M2100,409l45,31 21,0 0,159 15,28 -16,15 -34,24 -1,0 -4,0 -18,-34 -62,-64 -66,-14 -10,-67 0,-8 33,-60 0,-2 15,-19 25,-7Z"/>
    <path data-fips-int="12123" data-name="Taylor County" d="M1918,479l0,187 7,33 15,0 -13,65 -19,11 -3,-3 -25,0 -51,-42 -4,-28 -33,-46 -55,-35 -58,-27 -30,-27 31,-78 44,-30 151,0 0,20Z"/>
    <path data-fips-int="12125" data-name="Union County" d="M2329,647l-48,-9 0,-1 -13,-36 43,-62 136,-5 0,17 -50,42 -18,36Z"/>
    <path data-fips-int="12131" data-name="Walton County" d="M772,105l-1,146 83,2 -12,19 -18,35 11,29 9,23 -17,24 -23,-2 -17,26 0,2 -3,60 -83,-36 -88,-22 0,-10 28,6 8,-19 30,19 -2,-21 47,28 8,-26 -38,-26 -51,0 -29,10 9,-269Z"/>
    <path data-fips-int="12133" data-name="Washington County" d="M1028,323l-21,0 -2,65 -161,-3 -5,11 -52,11 17,-26 23,2 17,-24 -9,-23 -11,-29 18,-35 12,-19 1,-8 4,-2 1,-3 4,-31 30,2 10,22 45,0 11,-44 50,4 22,21Z"/>
    <path data-fips-int="12005" data-name="Bay County" d="M984,570l28,28 31,-7 2,51 -42,-23 -86,-77ZM1050,324l-5,183 -2,81 -38,3 -3,-32 -50,-13 -55,-30 22,-37 -17,8 -17,-34 -38,8 13,34 15,-13 17,21 -13,23 -95,-57 3,-60 0,-2 52,-11 5,-11 161,3 2,-65 21,0Z"/>
    <path data-fips-int="12009" data-name="Brevard County" d="M3124,1437l-1,0 3,-54 13,4 -5,55 17,88 13,36 47,94 -29,-37 -6,-30 -35,-68ZM2981,1297l-16,-8 10,0 -4,-88 52,-1 15,81 33,114 45,104 76,161 -3,13 -5,7 -158,3 -3,-262 -17,-34 0,-20 7,-24 -27,-34 -3,-10ZM3049,1198l52,63 13,-3 -45,-60 5,0 72,102 23,66 -30,21 -13,-4 20,-56 -13,-18 -22,60 -8,40 6,56 -23,-60 -8,-54 3,-52 -28,-16 -2,-33 23,-8 -41,-42 -5,0 5,0Z"/>
    <path data-fips-int="12011" data-name="Broward County" d="M3399,2423l-15,174 -72,3 -6,8 -173,5 0,-11 -87,2 -8,-140 0,-36 286,-8Z"/>
    <path data-fips-int="12015" data-name="Charlotte County" d="M2451,2203l-25,-1 -42,-38 -8,-31 43,0 0,-27 33,34 14,73ZM2727,2085l1,131 -221,4 2,-54 -18,-21 48,-31 -58,10 -15,19 -47,-41 0,-13 88,-1Z"/>
    <path data-fips-int="12017" data-name="Citrus County" d="M2233,1162l1,2 4,3 3,0 -2,-2 -1,-3 -2,0 -17,-11 -31,-41 20,-18 31,7 45,-13 25,-5 73,45 64,82 -35,39 -5,26 -2,0 -67,1 0,-14 -94,1 -24,-21 9,-16 -7,-2 2,-1 3,0 2,1 -2,-1 -3,0 -2,1 0,-27 -18,-17 28,-16 -2,-1Z"/>
    <path data-fips-int="12021" data-name="Collier County" d="M2740,2664l0,-2 0,-2 0,-9 -10,5 -2,-2 -6,-3 -5,-2 3,2 -3,-2 -2,-6 -3,1 -17,-16 -8,-3 8,3 5,21 -10,2 -28,-5 -10,-21 33,0 -17,-10 -4,-5 1,0 3,5 -4,-5 -7,3 -2,-21 -10,-11 10,11 -3,3 0,5 0,-5 3,9 2,3 0,6 -5,-8 -22,-50 -23,-117 83,4 -2,-52 45,-1 -1,-46 129,-3 4,127 46,3 127,-6 8,140 2,87 -212,5 -21,-24 -53,-16 0,-2 -20,-3 8,5 2,6 -2,0 -2,0 -5,0 0,2Z"/>
    <path data-fips-int="12029" data-name="Dixie County" d="M2113,697l-12,34 -5,83 10,0 -18,28 -3,34 -34,62 -18,9 -2,2 -5,2 -1,0 -2,-2 -8,8 -40,-65 -22,-1 -45,-41 -3,-78 3,3 19,-11 13,-65Z"/>
    <path data-fips-int="12031" data-name="Duval County" d="M2777,474l-24,2 0,-5 2,-2 3,-10 0,-3 -3,-3 3,3 0,3 -3,10 -2,2 0,5 0,73 -45,2 -23,-12 -28,-1 15,-53 -18,-42 21,-3 0,-33 32,17 6,-17 35,15 2,5 -2,-5 20,-19ZM2720,329l2,4 1,8 -1,-8 -2,-4 -2,-5 20,17 -3,5 3,9 2,2 0,3 0,5 2,2 0,16 5,-5 1,2 5,1 -5,-1 -1,-2 -5,-11 -2,-2 0,-5 0,-3 -2,-2 -3,-9 3,-5 -1,5 16,11 0,24 -11,7 0,-3 0,3 -7,3 -8,2 -4,3 -58,13 3,34 -34,16 16,25 -8,24 -155,4 0,-43 108,-117 24,-19 0,-2 0,-3 1,-4 2,-1 0,-3 20,0 7,3 3,1 25,-1 3,-3 3,0 2,0 0,3 -2,5 0,1 2,2 15,2 3,8 2,5 -2,-5Z"/>
    <path data-fips-int="12035" data-name="Flagler County" d="M2853,775l2,3 13,39 -13,-39 -2,-3 0,-11 2,0 50,120 -2,0 -8,-13 -5,-11 -9,-20 -1,-8 1,8 9,20 5,11 8,13 -18,5 1,76 -116,5 -8,-68 -2,0 -15,3 -23,-52 -2,-63 87,-4 33,-16 8,0 2,5 -2,-5 0,-6 2,0Z"/>
    <path data-fips-int="12037" data-name="Franklin County" d="M1162,764l8,27 -53,-24ZM1195,725l10,5 3,4 12,12 -58,3 -45,11 48,-40 13,3 12,-3ZM1409,604l42,18 5,0 43,16 -1,23 -39,-14 -41,4 -102,62 -60,26 15,-31 -45,30 -18,-4 -3,-4 -10,-5 -4,-5 0,-70 10,-28 9,-21Z"/>
    <path data-fips-int="12045" data-name="Gulf County" d="M1163,508l-13,38 5,40 46,36 -10,28 0,70 -1,0 -12,3 -13,-3 -48,40 -42,4 7,-61 -37,-61 -2,-51 0,-3 2,-81Z"/>
    <path data-fips-int="12057" data-name="Hillsborough County" d="M2477,1518l22,0 5,264 -220,3 35,-34 38,-55 -8,-31 -38,-18 7,49 -34,-15 7,-44 -52,-39 -1,-76Z"/>
    <path data-fips-int="12061" data-name="Indian River County" d="M3244,1758l2,1 -2,-1 0,-7 3,5 -3,-5 -12,-39 -3,-2 3,2 -3,-2 -18,-50 30,57 30,93 -5,0 -19,-51 -1,2 10,49 -143,3 -44,2 -1,-43 -42,2 0,-91 158,-3 5,-7 3,-10Z"/>
    <path data-fips-int="12071" data-name="Lee County" d="M2486,2288l1,5 2,5 2,6 -2,-6 -2,-5 -1,-5 16,3 -8,20 -2,-2 -1,-3 1,3 2,2 13,47 -11,2 -22,-77 -18,-18 15,-13ZM2728,2216l4,127 1,46 -45,1 2,52 -83,-4 -5,-59 -32,2 -1,-2 -9,-3 -3,-2 -25,-24 38,-18 17,-46 42,-34 -47,23 -23,58 -40,9 -7,-51 -16,-26 11,-45Z"/>
    <path data-fips-int="12075" data-name="Levy County" d="M2191,1096l-28,-27 0,-43 -88,1 -25,-19 -2,-7 -2,-1 0,-22 -31,-21 8,-8 2,2 1,0 5,-2 2,-2 18,-9 34,-62 3,-34 18,-28 72,2 6,11 45,-3 0,16 44,0 0,28 64,-3 4,135 -58,0 1,86 -45,13 -31,-7 -20,18 3,-14Z"/>
    <path data-fips-int="12081" data-name="Manatee County" d="M2504,1782l1,153 0,65 -86,2 -2,-90 -138,0 -41,-26 23,-37 23,-64Z"/>
    <path data-fips-int="12085" data-name="Martin County" d="M3292,1984l32,3 33,47 30,65 -2,0 -5,-13 4,13 -10,0 -2,0 -5,0 -3,0 -2,0 -5,8 -328,8 90,-84 -1,-42Z"/>
    <path data-fips-int="12086" data-name="Miami-Dade County" d="M3384,2634l-2,0 -20,17 -7,52 -21,19 -28,57 -14,80 15,42 -28,33 -2,1 -21,33 -4,0 -23,15 0,1 -40,-16 -3,16 -55,31 -68,-11 -10,-93 -5,-220 -2,-87 87,-2 0,11 173,-5 6,-8 72,-3Z"/>
    <path data-fips-int="12089" data-name="Nassau County" d="M2690,245l-7,1 7,-1 30,1 -2,2 2,-2 30,4 -2,94 -13,-31 -2,20 -3,-4 -30,4 -15,-2 -2,-2 0,-1 2,-5 0,-3 -2,0 -3,0 -3,3 -25,1 -3,-1 -7,-3 -20,0 0,3 -2,1 -1,4 0,3 0,2 -24,19 -108,117 -1,-44 13,-55 3,-57 -18,-34 3,-47 38,-43 62,20 37,23Z"/>
    <path data-fips-int="12091" data-name="Okaloosa County" d="M613,401l0,10 -47,-4 7,-16ZM623,103l-9,269 -25,-18 -66,44 -83,-5 13,-295Z"/>
    <path data-fips-int="12099" data-name="Palm Beach County" d="M3362,2099l2,0 23,13 0,-1 -10,-7 -2,-2 -1,-3 10,0 3,7 -2,-7 2,0 2,13 18,83 0,129 -8,99 -75,-3 -286,8 -7,-168 -2,-145 328,-8Z"/>
    <path data-fips-int="12107" data-name="Putnam County" d="M2718,721l2,69 2,63 23,52 15,-3 -60,26 -35,-23 -11,-62 -5,-8 1,-23 0,-4 30,0 10,-26 -18,-26 26,-5ZM2555,848l-48,7 -16,14 -2,-123 2,0 48,-15 10,-23 43,-22 90,-4 20,30 -12,34 -20,0 7,60 -27,2 0,4 -1,23 5,8 -7,41 10,29 2,4 -32,1 0,-29 -15,-29Z"/>
    <path data-fips-int="12109" data-name="Saint Johns County" d="M2785,583l0,-23 -2,-8 -3,-8 -3,-6 -5,-10 -2,-3 -7,-28 -1,-7 -2,-5 2,5 1,7 7,28 2,3 5,10 3,6 3,8 2,8 0,23 27,55 0,48 28,53 3,7 3,5 2,5 0,3 2,3 -2,-3 0,-3 -2,-5 9,13 -2,0 -3,0 -2,0 -8,6 -33,16 -87,4 -2,-69 -30,-65 12,-42 -20,-6 -26,-36 16,-34 15,1 23,12 45,-2 0,-73 24,-2 40,171ZM2843,741l-3,-2 -28,-88 11,-6Z"/>
    <path data-fips-int="12111" data-name="Saint Lucie County" d="M3256,1810l18,61 40,83 -22,18 0,10 0,2 -174,5 -5,-176Z"/>
    <path data-fips-int="12113" data-name="Santa Rosa County" d="M453,98l-13,295 -122,11 -45,15 42,-26 25,0 40,-26 -34,-26 17,-33 -25,16 -13,43 -15,5 3,-36 -25,-34 -10,18 -31,-41 -15,-49 -4,0 -1,-34 0,-2 11,-65 20,-18 17,-6 13,-10 4,-3Z"/>
    <path data-fips-int="12115" data-name="Sarasota County" d="M2279,1912l138,0 2,90 86,-2 2,88 -88,1 0,13 0,4 0,27 -43,0 -32,-40 -20,-43 0,-3 -1,-5 1,5 0,3 -1,-8 -19,-39 0,-1 2,1 7,15 10,23 -10,-23 -17,-38 -2,-1 -1,-2 -4,-8Z"/>
    <path data-fips-int="12117" data-name="Seminole County" d="M2888,1203l35,-15 40,101 -148,3 0,-13 -60,2 0,-37 20,-36 8,-30 12,-17 3,14 60,7Z"/>
    <path data-fips-int="12127" data-name="Volusia County" d="M2905,884l76,171 0,-2 -13,-21 -57,-122 0,-5 -5,-10 -1,-3 -2,-6 2,6 1,3 5,10 0,5 25,67 32,55 7,21 1,3 4,-1 1,0 4,8 5,0 1,3 17,54 5,6 3,9 33,63 -16,2 -5,0 -5,0 -52,1 4,88 -10,0 -2,0 -40,-101 -35,15 -30,-21 -60,-7 -3,-14 7,-30 -2,-5 -10,-26 -55,-48 -25,-46 -2,-3 -1,-2 -2,0 17,-11 -2,-34 -20,-28 60,-26 2,0 8,68 116,-5 -1,-76 18,-5ZM3039,1151l-31,-39 -12,-20 -6,-29Z"/>
    <path data-fips-int="12129" data-name="Wakulla County" d="M1612,474l0,88 -45,13 -40,-21 -6,27 -32,-3 0,41 -33,3 -5,0 -42,-18 -5,-1 -33,-30 -13,-55 -20,-34 0,-25 201,0 2,15Z"/>
    <path data-fips-int="12087" data-name="Monroe County" d="M2730,3300l0,-5 13,-16 10,-26 20,32ZM3276,2987l15,-3 -4,-36 45,-27 -48,84 -2,5 2,-5 5,0 -23,30 3,-7 8,-13 -8,13 -3,7 -59,52 54,-59 -2,-10 15,-22 2,-4 -2,4 -30,-20 8,-8 4,0ZM2940,2810l1,0 2,2 0,5 0,-5 2,5 15,9 5,0 8,-1 -2,-4 2,4 -8,1 -5,0 11,-6 -6,-5 -2,-3 2,1 -2,-1 -20,-5 -2,0 2,-2 0,-3 -2,-2 -11,0 -2,4 -2,3 -33,13 -23,-47 0,-4 -2,-9 10,-15 2,-3 6,-2 17,7 3,-7 2,0 -2,0 -10,-8 -3,3 -3,0 -4,5 -6,2 -2,3 -15,-13 2,-2 6,-8 2,0 17,10 6,0 -23,-10 -2,0 -6,8 -2,2 -22,8 -5,-44 212,-5 5,220 10,93 -19,19 -64,7 -60,-44 8,-56 15,-4 0,1 2,0 8,0 3,3 2,0 8,25 0,3 0,-3 2,-5 2,-2 3,0 -3,10 -2,3 -2,-3 0,5 2,-2 2,-3 0,5 -2,2 2,-2 3,10 -2,-2 -1,-3 -2,0 2,0 1,3 2,2 2,1 0,2 1,2 -1,-2ZM2940,2807l-2,0 2,0 1,3 0,-3 -1,0 -2,0 -3,-3 -4,-4 -1,0 -2,4 3,-2 2,2 -5,6 -2,-3 0,3 -26,33 48,74 0,4 3,0 2,0 -3,-4 3,4 2,0 1,0 4,0 -4,0 4,0 13,8 2,0 5,5 -12,1 2,0 -2,0 2,4 3,-2 7,-2 10,-6 16,1 2,0 15,28 0,3 -2,2 2,-2 3,2 -2,-5 2,5 3,24 -33,-3 -3,-3 3,3 -1,-18Z"/>
    <path data-fips-int="12103" data-name="Pinellas County" d="M2238,1522l1,76 -33,36 57,42 -22,82 -20,-7 -2,-2 -20,-16 -1,2 -5,-8 6,-5 0,5 0,5 0,-5 0,-5 -6,-29 -12,24 -30,-39 20,-47 10,-86 -3,-23Z"/>
    <path data-fips-int="12013" data-name="Calhoun County" d="M1245,307l-27,42 3,23 -18,47 -15,60 -25,29 -118,-1 5,-183 92,2 3,-21Z"/>
  </g>
  <g class="cities">
    <circle r="3" cx="265.7" cy="43.7"/>
    <text x="265.7" y="43.7">Jacksonville</text>
    <circle r="3" cx="335.4" cy="269.8"/>
    <text x="335.4" y="269.8">Miami</text>
    <circle r="3" cx="232.5" cy="163.3"/>
    <text x="232.5" y="163.3">Tampa</text>
  </g>
</svg>