<?xml version="1.0" encoding="utf-8"?>
<!DOCTYPE svg PUBLIC "-//W3C//DTD SVG 1.1//EN" "http://www.w3.org/Graphics/SVG/1.1/DTD/svg11.dtd">
<svg version="1.1" xmlns="http://www.w3.org/2000/svg" width="350" height="343" viewBox="0 0 350 343">
  <path class="state" transform="scale(0.1)" d="M2308,316l106,5 3,80 17,26 52,-3 18,-103 -20,-45 3,-46 38,-39 62,18 38,21 58,20h67v91l-35,-23 -8,19 -30,-16 41,29 19,-13 5,57h-57l-20,12 2,37 -35,15 18,26 -8,24 -32,36 29,-15 5,70 36,25 2,58 20,30 -10,34h-22v40l17,12 -37,5 -3,81 18,8 -6,25 -5,24 18,23 13,37 25,5 10,-55 -22,-23 -33,-23 -13,-94 28,-3 10,-26 -18,-26 25,-4 21,-31 -30,-66 15,-36 -48,-29 15,-52 17,1 -30,-1 15,-54 -18,-41 21,-1v-35l32,17 6,-17 32,9 10,60 28,76 2,34 27,52v44l39,82h-1l-10,6 63,114 3,11 30,82 52,106 61,115 52,63 13,-3 -43,-60h3l70,99 23,64 -31,21 5,-75 -30,62 -10,55 -15,-19 -8,-54 1,-55 -26,-13 -2,-33 23,-8 -46,-42h-5l15,79 30,101 45,111 79,169 -3,13 5,-8 52,94 10,51 18,61 40,83 10,23 -32,-5v10l30,2 45,71 17,44 3,10 -13,-10h-2h-5h-3l25,13 18,143 -8,168 -15,174v37l-22,15 -5,54 -27,24 -38,125 15,49 -28,31 -2,10v-3v-4l-21,35 18,26 -22,-26 -23,13 12,-5 -12,6 -25,-16 -73,49 -68,-13 -20,19 -83,13 -42,-50 17,-64 30,44 33,23 36,-3 -31,-65 -23,14 -20,-14 -32,-18 2,-21 -30,-39 35,-36 38,18 -42,-38 -13,31 -22,3 -30,-69 27,-18 -18,-17 -17,33 -31,-46 9,-8 -21,-24 -38,-20 -65,-11 -17,-11 -50,-49 -6,-12 -12,-14 -20,-117 -7,-59 -26,3 -44,-24 50,-42 27,-61 -30,26 -17,52 -43,9 -3,-46 -15,-24 8,-52 3,-49 -18,-15 47,-36 -58,4 -9,18 -53,-40v4l33,34 15,68 -66,-27 -25,-48 -42,-55 -26,-88 -15,-13 -14,-65 -55,-37 20,-18h54l-34,-13 20,-59 73,-89 -21,-39 11,-25 -38,15 9,49 -27,-5v-54l-52,-39 -33,34 57,43 -15,78 -49,-20v-11l-48,-44 18,-42 14,-78 -5,-36 26,-64 12,-62 12,-4 -2,-35 13,-42 -8,-41 12,-13 -15,-37 -7,-2 -12,-52 22,-8 -43,-52 3,-29 -28,-12 3,-47 -98,4 -17,-10 -5,-39 -35,-13 22,-17 -20,2 -25,-49 -35,-9 -45,-41 2,-75 -30,-3 -53,-44 -2,-26 -26,-38 -44,-32 -65,-31 -41,-37 -37,-2 -35,13 -21,-23 -29,2 -6,27 -32,-3 -15,41 -23,5 47,13v23l-39,-15 -41,8 -160,94 3,-31 -43,23 -27,-19v-2v2h-1l30,27 -58,2 -45,11 -42,5 7,-63 -37,-59 -37,-19 -93,-82 54,17 43,40 31,-8v-3l-40,2 -14,-51 -22,8 -72,-31 24,-35 -17,6 -15,-37 -40,11 -3,20 46,16 -11,29 -95,-57 -128,-50 -43,-8 -47,-4 8,-17 39,11 28,6 8,-17 30,17 -3,-22 38,26 25,-4 -47,-45h-49l-29,11 -21,-18 -67,30 5,9 -91,-1 -122,11 -45,15 42,-26 25,1 40,-26 -42,-44 -13,44 -15,4 3,-36 -25,-34 -10,18 10,27 -10,31 -36,16 -7,23 -76,13 11,-42 32,-8 -32,-26 -6,-33 23,-39 -7,-31 -38,-23 -55,-76 22,-49 -5,-14 188,4 159,4 172,6 151,3h231l211,4 29,55 3,60 27,29 249,15 118,7 172,9 129,7 266,18ZM3124,1437l2,-50h17l-9,55 17,86 -18,-29 1,-49ZM2695,2630l-31,17v-32ZM2777,474l41,171 -31,-59 -2,-32 -30,-78 -7,-65 20,-8ZM2903,884l-35,-67 -15,-53h2l50,120 70,151 1,13 -70,-153ZM1162,764l-7,29 -38,-26ZM3271,1810h-7l-50,-145 30,60ZM2491,2304l19,54 -18,-2 -15,-62 -21,-29 23,-10ZM2828,663l7,49 -20,-26 -2,-36ZM3282,3012l-5,1 -86,101 16,-27 55,-61 12,-30 18,-13 7,-41 31,-20ZM2728,3300l15,-21 10,-26 20,32Z"/>
  <g class="counties" transform="scale(0.1)">
    <path data-fips-int="12001" data-name="Alachua County" d="M2329,645l28,23 15,6 82,13 17,28 18,31 2,123 -15,22 -4,3h-25l-25,-2v-23l-85,-4 -64,3v-28h-44v-15l-3,-133 28,-13 27,-41Z"/>
    <path data-fips-int="12003" data-name="Baker County" d="M2486,424l1,45v43v22h-40l-136,5 -3,-223 106,5 3,80 17,26Z"/>
    <path data-fips-int="12007" data-name="Bradford County" d="M2487,534l4,212h-2l-18,-31 -17,-28 -82,-13 -15,-6 -28,-23 50,-16 18,-36 35,-21 15,-38Z"/>
    <path data-fips-int="12019" data-name="Clay County" d="M2642,508l-32,36 29,-15 5,70 36,25 2,58 -88,4 -45,21 -10,23 -48,16 -4,-212v-22Z"/>
    <path data-fips-int="12023" data-name="Columbia County" d="M2308,316l3,223 2,18 -50,46 18,35 -27,41 -28,13 -32,-11 -29,-38 16,-16 -15,-28v-157l45,1 18,-39 -25,-36 -11,-39 16,-19Z"/>
    <path data-fips-int="12027" data-name="DeSoto County" d="M2727,2085l-220,3 -2,-88v-65l218,-5Z"/>
    <path data-fips-int="12033" data-name="Escambia County" d="M257,110l-34,55 5,65h12l5,55 33,35 10,27 -10,31 -36,16 -7,23 -76,13 11,-42 32,-8 -32,-26 -6,-33 23,-39 -7,-31 -38,-23 -55,-76 22,-49 -5,-14 188,4Z"/>
    <path data-fips-int="12039" data-name="Gadsden County" d="M1524,269l-23,42 -15,9 -20,58 -45,7 -53,31 -32,-15v-21h-26v-30l-44,-8v-35h-21l30,-53Z"/>
    <path data-fips-int="12041" data-name="Gilchrist County" d="M2226,692l3,133 -45,2 -6,-11 -72,-4h-10l5,-87 12,-28 17,-31 35,-23 29,38Z"/>
    <path data-fips-int="12043" data-name="Glades County" d="M2999,1990l34,26 -4,99 -25,95 -276,6 -1,-131 131,-4 -3,-44 46,-1 -1,-44Z"/>
    <path data-fips-int="12047" data-name="Hamilton County" d="M2209,310l-16,19 11,39 25,36 -18,39 -45,-1 -21,-2 -50,-37 -52,-13 -40,29 -31,-46 -14,-76 -15,-5Z"/>
    <path data-fips-int="12049" data-name="Hardee County" d="M2723,1930l-218,5 -1,-153 218,-5Z"/>
    <path data-fips-int="12051" data-name="Hendry County" d="M3038,2428l1,36 -126,6 -48,-3 -4,-127 -131,3 -2,-127 276,-6 25,-95 2,145Z"/>
    <path data-fips-int="12053" data-name="Hernando County" d="M2406,1273l5,18 18,29 65,20 3,24 -86,3v20l-183,5 -2,-35 13,-42 -8,-41 12,-13 94,-1v14Z"/>
    <path data-fips-int="12055" data-name="Highlands County" d="M2906,1776l2,8 -8,27 -22,26 20,31 12,23 48,31 17,41 16,24 8,3 -99,2 1,44 -46,1 3,44 -131,4 -4,-155 -1,-153Z"/>
    <path data-fips-int="12059" data-name="Holmes County" d="M1005,106l-15,13 -30,72 -11,42h-45l-10,-22 -30,-2 -2,28 -10,16 -81,-2 3,-145Z"/>
    <path data-fips-int="12063" data-name="Jackson County" d="M1275,254l-30,53 -100,-2 -3,21 -92,-2 -22,-3 4,-109 -22,-21h-50l30,-72 15,-13 211,4 29,55 3,60Z"/>
    <path data-fips-int="12065" data-name="Jefferson County" d="M1814,285l3,36 -57,33 5,40 -38,33 -3,31 -42,31 -33,75 -37,-2v-88l2,-80 13,-44h29l-14,-74Z"/>
    <path data-fips-int="12067" data-name="Lafayette County" d="M2130,666l-17,31h-173l-15,3 -7,-34v-185h52l10,73 66,14 62,64Z"/>
    <path data-fips-int="12069" data-name="Lake County" d="M2710,1006l52,72 38,29v19l-7,35 -18,47 -102,3 -6,2 6,216 -131,3 -3,-307 126,-3 10,-44 -3,-114 13,37Z"/>
    <path data-fips-int="12073" data-name="Leon County" d="M1642,276l14,74h-29l-13,44 -2,80h-71l-2,-16h-203l32,-42 53,-31 45,-7 20,-58 15,-9 23,-42Z"/>
    <path data-fips-int="12077" data-name="Liberty County" d="M1368,416l-32,42 -8,19 30,41 -4,29 35,49 19,8 -198,-3 -9,21 -46,-36 -8,-24 16,-54 25,-29 13,-81 20,-25 -3,-26 27,-40h21v35l44,8v30h26v21Z"/>
    <path data-fips-int="12079" data-name="Madison County" d="M1943,292l15,5 14,76 31,46 -33,62h-52h-43v-23h-151l3,-31 38,-33 -5,-40 57,-33 -3,-36Z"/>
    <path data-fips-int="12083" data-name="Marion County" d="M2659,917l-5,24 18,23 3,114 -10,44 -126,3 -157,1 -74,-45 -24,5 -1,-86h58l-4,-135 85,4v23l25,2h25l4,-3 15,-22 16,-14 75,-12v17h30l15,58Z"/>
    <path data-fips-int="12093" data-name="Okeechobee County" d="M3026,1774l42,-2 1,43 44,-2 5,176 1,42 -90,84 4,-99 -34,-26 -8,-3 -16,-24 -17,-41 -48,-31 -12,-23 -20,-31 22,-26 8,-27 -2,-8Z"/>
    <path data-fips-int="12095" data-name="Orange County" d="M2775,1208l-18,36v35h58v15l150,-7 48,64 -9,26 19,42 -350,10 -6,-216 6,-2Z"/>
    <path data-fips-int="12097" data-name="Osceola County" d="M3023,1419l3,264v91l-120,2 -11,-44 -32,-57 -22,-2 -5,-8 -6,-26 -47,-38 -15,-30 29,22 15,-35h-47l-3,-30h-29l-15,-57h-45v-42Z"/>
    <path data-fips-int="12101" data-name="Pasco County" d="M2497,1364l2,85v26l-22,1v42l-239,4h-60l26,-64 12,-62 12,-4 183,-5v-20Z"/>
    <path data-fips-int="12105" data-name="Polk County" d="M2673,1429v42h45l15,57h29l3,30h47l-15,35 -29,-22 15,30 47,38 6,26 5,8 22,2 32,57 11,44 -184,1 -218,5 -5,-264h-22v-42l22,-1v-26l43,1v-18Z"/>
    <path data-fips-int="12119" data-name="Sumter County" d="M2539,1125l3,307v18l-43,-1 -2,-85 -3,-24 -65,-20 -18,-29 -5,-18 5,-26 35,-39 -45,-47 -19,-35Z"/>
    <path data-fips-int="12121" data-name="Suwannee County" d="M2166,442v157l15,28 -16,16 -35,23 -22,-34 -62,-64 -66,-14 -10,-73 33,-62 40,-29 52,13 50,37Z"/>
    <path data-fips-int="12123" data-name="Taylor County" d="M1918,481v185l7,34 15,-3 -18,80 -12,-2 -30,-3 -53,-44 -2,-26 -26,-38 -44,-32 -65,-31 -41,-37 33,-75 42,-31h151v23Z"/>
    <path data-fips-int="12125" data-name="Union County" d="M2329,645l-48,-7 -18,-35 50,-46 -2,-18 136,-5 -15,38 -35,21 -18,36Z"/>
    <path data-fips-int="12131" data-name="Walton County" d="M774,106l-3,145 81,2 -28,31 16,66 -13,33 -23,-2 -18,28 -2,60 -128,-50 -43,-8v-10l28,6 8,-17 30,17 -3,-22 38,26 25,-4 -47,-45h-49l-29,11 9,-270Z"/>
    <path data-fips-int="12133" data-name="Washington County" d="M1028,321h-21l-2,67 -161,-3 -58,24 18,-28 23,2 13,-33 -16,-66 28,-31 10,-16 2,-28 30,2 10,22h45l11,-42h50l22,21Z"/>
    <path data-fips-int="12005" data-name="Bay County" d="M1050,324l-5,183 -2,81 -40,2 -14,-51 -22,8 -72,-31 24,-35 -17,6 -15,-37 -40,11 -3,20 46,16 -11,29 -95,-57 2,-60 58,-24 161,3 2,-67h21ZM1043,591l2,52 -37,-19 -93,-82 54,17 43,40Z"/>
    <path data-fips-int="12009" data-name="Brevard County" d="M3124,1437l2,-50h17l-9,55 17,86 -18,-29 1,-49ZM3023,1200l15,79 30,101 45,111 79,169 -3,13 -5,7 -158,3 -3,-264 -19,-42 9,-26 -48,-64h10l-4,-86ZM3049,1198l52,63 13,-3 -43,-60h3l70,99 23,64 -31,21 5,-75 -30,62 -10,55 -15,-19 -8,-54 1,-55 -26,-13 -2,-33 23,-8 -46,-42Z"/>
    <path data-fips-int="12011" data-name="Broward County" d="M3399,2423l-15,174 -72,3 -6,8 -173,5v-11h-89l-5,-138 -1,-36 286,-8Z"/>
    <path data-fips-int="12015" data-name="Charlotte County" d="M2727,2085l1,131 -221,4 3,-49 -18,-15 47,-36 -58,4 -9,18 -53,-40v-13l88,-1ZM2376,2133h43v-27l33,34 15,68 -66,-27Z"/>
    <path data-fips-int="12017" data-name="Citrus County" d="M2188,1110l20,-18 41,12 35,-18 24,-5 74,45 19,35 45,47 -35,39 -5,26 -69,1v-14l-94,1 -15,-37 -7,-2 -12,-52 22,-8Z"/>
    <path data-fips-int="12021" data-name="Collier County" d="M3039,2464l5,138 4,89 -212,5 -21,-24 -38,-20 -65,-11 -17,-11 -50,-49 -6,-12 -12,-14 -20,-117 83,4 -2,-52 45,-1 -3,-46 131,-3 4,127 48,3ZM2695,2630l-31,17v-32Z"/>
    <path data-fips-int="12029" data-name="Dixie County" d="M2113,697l-12,28 -5,87h10l-18,30 -18,68 -37,37 -20,2 -25,-49 -35,-9 -45,-41 2,-75 12,2 18,-80Z"/>
    <path data-fips-int="12031" data-name="Duval County" d="M2777,474l-22,2 -7,-65 20,-8ZM2755,476l-2,73 -45,2 -21,-12 -30,-1 15,-54 -18,-41 21,-1v-35l32,17 6,-17 32,9ZM2677,321l41,29 19,-13 5,57h-57l-20,12 2,37 -35,15 18,26 -8,24 -155,4v-43l133,-143 55,-16Z"/>
    <path data-fips-int="12035" data-name="Flagler County" d="M2905,884h-2l-35,-67 -15,-53h2ZM2840,770l63,114 -18,5 1,76 -116,5 -10,-68 -15,3 -23,-52 -2,-63 87,-4Z"/>
    <path data-fips-int="12037" data-name="Franklin County" d="M1408,604l43,20 47,13v23l-39,-15 -41,8 -160,94 3,-31 -43,23 -27,-19v-2l5,-41 5,-55 9,-21ZM1117,760l48,-40h25l30,27 -58,2ZM1162,764l-7,29 -38,-26Z"/>
    <path data-fips-int="12045" data-name="Gulf County" d="M1163,508l-16,54 8,24 46,36 -5,55 -5,41v2h-1h-25l-48,40 -42,5 7,-63 -37,-59 -2,-52v-3l2,-81Z"/>
    <path data-fips-int="12057" data-name="Hillsborough County" d="M2477,1518h22l5,264 -220,3 73,-89 -21,-39 11,-25 -38,15 9,49 -27,-5v-54l-52,-39 -1,-76Z"/>
    <path data-fips-int="12061" data-name="Indian River County" d="M3271,1810h-7l-50,-145 30,60ZM3256,1810l-143,3 -44,2 -1,-43 -42,2v-91l158,-3 5,-7 5,-8 52,94Z"/>
    <path data-fips-int="12071" data-name="Lee County" d="M2728,2216l2,127 3,46 -45,1 2,52 -83,-4 -7,-59 -26,3 -44,-24 50,-42 27,-61 -30,26 -17,52 -43,9 -3,-46 -15,-24 8,-52ZM2491,2304l19,54 -18,-2 -15,-62 -21,-29 23,-10Z"/>
    <path data-fips-int="12075" data-name="Levy County" d="M2229,825v15h44v28l64,-3 4,135h-58l1,86 -35,18 -41,-12 -20,18 3,-29 -28,-12 3,-47 -98,4 -17,-10 -5,-39 -35,-13 22,-17 37,-37 18,-68 18,-30 72,4 6,11Z"/>
    <path data-fips-int="12081" data-name="Manatee County" d="M2504,1782l1,153v65l-86,2 -2,-90h-138l-55,-37 20,-18h54l-34,-13 20,-59Z"/>
    <path data-fips-int="12085" data-name="Martin County" d="M3367,2055l17,44h-10h-2h-5h-3l-7,8 -328,8 90,-84 -1,-42 166,-4 8,-3 30,2Z"/>
    <path data-fips-int="12086" data-name="Miami-Dade County" d="M3384,2634l-22,15 -5,54 -27,24 -38,125 15,49 -28,31 -2,3 -21,35h-4l-23,13v1l-25,-16 -73,49 -68,-13 -10,-93 -5,-220 -4,-89h89v11l173,-5 6,-8 72,-3Z"/>
    <path data-fips-int="12089" data-name="Nassau County" d="M2683,250h67v91l-35,-23 -8,19 -30,-16 -2,-11 -55,16 -133,143 -1,-45 18,-103 -20,-45 3,-46 38,-39 62,18 38,21Z"/>
    <path data-fips-int="12091" data-name="Okaloosa County" d="M623,103l-9,270 -21,-18 -67,30 5,9 -91,-1 11,-296ZM613,401v10l-47,-4 8,-17Z"/>
    <path data-fips-int="12099" data-name="Palm Beach County" d="M3364,2099l25,13 18,143 -8,168 -75,-3 -286,8 -7,-168 -2,-145 328,-8Z"/>
    <path data-fips-int="12107" data-name="Putnam County" d="M2718,721l2,69 2,63 23,52 15,-3 -62,26 -33,-23 -13,-94 28,-3 10,-26 -18,-26 25,-4ZM2682,682l20,30 -10,34h-22v40l17,12 -37,5 -3,81 18,8 -6,25 -32,1 -15,-58h-30v-17l-75,12 -16,14 -2,-123h2l48,-16 10,-23 45,-21Z"/>
    <path data-fips-int="12109" data-name="Saint Johns County" d="M2851,764h-1l-10,6 -33,16 -87,4 -2,-69 -30,-66 15,-36 -48,-29 15,-52 17,1 21,12 45,-2 2,-73 28,76 2,34 27,52v44ZM2828,663l7,49 -20,-26 -2,-36ZM2755,476l22,-2 41,171 -31,-59 -2,-32Z"/>
    <path data-fips-int="12111" data-name="Saint Lucie County" d="M3256,1810l18,61 40,83 -22,18v10l-8,3 -166,4 -5,-176Z"/>
    <path data-fips-int="12113" data-name="Santa Rosa County" d="M451,97l-11,296 -122,11 -45,15 42,-26 25,1 40,-26 -42,-44 -13,44 -15,4 3,-36 -25,-34 -10,18 -33,-35 -5,-55h-12l-5,-65 34,-55 35,-17Z"/>
    <path data-fips-int="12115" data-name="Sarasota County" d="M2279,1912h138l2,90 86,-2 2,88 -88,1v13v4v27h-43l-42,-55 -26,-88 -15,-13Z"/>
    <path data-fips-int="12117" data-name="Seminole County" d="M2965,1287l-150,7v-15h-58v-35l18,-36 18,-47 5,14 60,7 20,26 28,-25 22,9 25,82Z"/>
    <path data-fips-int="12127" data-name="Volusia County" d="M3049,1198l-21,2h-5l-52,1 4,86h-10l-12,-13 -25,-82 -22,-9 -28,25 -20,-26 -60,-7 -5,-14 7,-35v-19l-38,-29 -52,-72 10,-55 -22,-23 62,-26 10,68 116,-5 -1,-76 18,-5 3,11 30,82 52,106ZM2905,884l70,151 1,13 -70,-153 -3,-11Z"/>
    <path data-fips-int="12129" data-name="Wakulla County" d="M1612,474v88l-35,13 -21,-23 -29,2 -6,27 -32,-3 -15,41 -23,5 -43,-20 -19,-8 -35,-49 4,-29 -30,-41 8,-19h203l2,16Z"/>
    <path data-fips-int="12087" data-name="Monroe County" d="M3282,3012l-5,1 -86,101 16,-27 55,-61 12,-30 18,-13 7,-41 31,-20ZM3048,2691l5,220 10,93 -20,19 -83,13 -42,-50 17,-64 30,44 33,23 36,-3 -31,-65 -23,14 -20,-14 -32,-18 2,-21 -30,-39 35,-36 38,18 -42,-38 -13,31 -22,3 -30,-69 27,-18 -18,-17 -17,33 -31,-46 9,-8ZM2728,3300l15,-21 10,-26 20,32Z"/>
    <path data-fips-int="12103" data-name="Pinellas County" d="M2238,1522l1,76 -33,34 57,43 -15,78 -49,-20v-11l-48,-44 18,-42 14,-78 -5,-36Z"/>
    <path data-fips-int="12013" data-name="Calhoun County" d="M1245,307l-27,40 3,26 -20,25 -13,81 -25,29 -118,-1 5,-183 92,2 3,-21Z"/>
  </g>
  <path class="mesh" transform="scale(0.1)" d="M2710,1006l52,72 38,29v19l-7,35 -18,47 -102,3 -6,2 6,216 -131,3 -3,-307 126,-3 10,-44 -3,-114M2487,469l133,-143 55,-16 2,11M2486,424l1,45v43l155,-4M2229,825l-3,-133 -32,-11 -29,-38 16,-16 -15,-28v-157l45,1 18,-39 -25,-36 -11,-39 16,-19M292,93l-35,17 -34,55 5,65h12l5,55 33,35M1524,269l-23,42 -15,9 -20,58 -45,7 -53,31 -32,-15v-21h-26v-30l-44,-8v-35h-21l30,-53M2226,692l28,-13 27,-41 48,7 28,23 15,6 82,13 17,28 18,31 2,123 -15,22 -4,3h-25l-25,-2v-23l-85,-4 -64,3v-28h-44v-15l-45,2 -6,-11 -72,-4h-10l5,-87 12,-28 17,-31 35,-23M2722,1777l184,-1 2,8 -8,27 -22,26 20,31 12,23 48,31 17,41 16,24 8,3 34,26 -4,99 -25,95 -276,6 -1,-131 -220,3 -2,-88v-65l218,-5 4,155 131,-4 -3,-44 46,-1 -1,-44 99,-2M2166,442l-21,-2 -50,-37 -52,-13 -40,29 -31,-46 -14,-76 -15,-5M2505,1935l-1,-153 218,-5 1,153M2243,1261l94,-1v14l69,-1 5,18 18,29 65,20 3,24 -86,3v20l-183,5M1005,106l-15,13 -30,72 -11,42h-45l-10,-22 -30,-2 -2,28 -10,16 -81,-2 3,-145M1336,458l-8,19 30,41 -4,29 35,49 19,8 -198,-3 -9,21 -46,-36 -8,-24 16,-54 25,-29 13,-81 20,-25 -3,-26 27,-40 -100,-2 -3,21 -92,-2 -22,-3 4,-109 -22,-21h-50M1814,285l3,36 -57,33 5,40 -38,33 -3,31 -42,31 -33,75M1612,562v-88l2,-80 13,-44h29l-14,-74M2113,697h-173l-15,3 -7,-34v-185h52l10,73 66,14 62,64 22,34M1612,474h-71l-2,-16h-203l32,-42M2003,419l-33,62M1918,481h-43v-23h-151M2539,1125l-157,1 -74,-45 -24,5 -1,-86h58l-4,-135M2491,869l16,-14 75,-12v17h30l15,58 32,-1M2906,1776l-11,-44 -32,-57 -22,-2 -5,-8 -6,-26 -47,-38 -15,-30 29,22 15,-35h-47l-3,-30h-29l-15,-57h-45v-42M3023,1419l3,264v91M2497,1364l2,85v26l-22,1v42l-239,4h-60M2504,1782l-5,-264h-22M2499,1449l43,1v-18M2406,1273l5,-26 35,-39 -45,-47 -19,-35M1940,697l-18,80 -12,-2M2487,512v22h-40l-136,5 2,18 -50,46 18,35M852,253l-28,31 16,66 -13,33 -23,-2 -18,28 -2,60M613,411v-10M614,373l9,-270M1028,321h-21l-2,67 -161,-3 -58,24M1050,324l-5,183 -2,81M1043,591l2,52M3189,1673l-5,7 -158,3M2311,539l-3,-223M2793,1161l5,14 60,7 20,26 28,-25 22,9 25,82 12,13h10l-4,-86 52,-1M3028,1200l21,-2M3384,2597l-72,3 -6,8 -173,5v-11h-89l-5,-138M3038,2428l286,-8 75,3M2906,1776l120,-2 42,-2 1,43 44,-2 5,176 1,42 -90,84 2,145 7,168 1,36 -126,6 -48,-3 -4,-127 -131,3 -2,-127 -221,4M2419,2102v-13l88,-1M2376,2133h43v-27M2188,1110l20,-18 41,12 35,-18M3044,2602l4,89 -212,5M2607,2438l83,4 -2,-52 45,-1 -3,-46M2106,812l-18,30 -18,68 -37,37M2777,474l-22,2 -2,73 -45,2 -21,-12M2487,534l4,212h-2M2905,884h-2l-18,5 1,76 -116,5 -10,-68 -15,3 -23,-52 -2,-63 87,-4 33,-16M1408,604l43,20M2329,645l50,-16 18,-36 35,-21 15,-38M1191,720v-2l5,-41 5,-55M1117,760l48,-40h25M1045,507l118,1M2504,1782l-220,3M2239,1598l-1,-76M3256,1810l-143,3M2505,2000l-86,2 -2,-90h-138M3364,2099l-7,8 -328,8M3118,1989l166,-4 8,-3M3063,3004l-10,-93 -5,-220M440,393l11,-296M2718,721l2,69M2760,902l-62,26M2682,682l-88,4 -45,21 -10,23 -48,16M2775,1208l-18,36v35h58v15l150,-7 48,64 -9,26 19,42 -350,10"/>
  <g class="cities">
    <circle r="3" cx="265.7" cy="43.7"/>
    <text x="265.7" y="43.7">Jacksonville</text>
    <circle r="3" cx="335.4" cy="269.9"/>
    <text x="335.4" y="269.9">Miami</text>
    <circle r="3" cx="232.4" cy="163.4"/>
    <text x="232.4" y="163.4">Tampa</text>
  </g>
</svg>