<?xml version="1.0" encoding="utf-8"?>
<!DOCTYPE svg PUBLIC "-//W3C//DTD SVG 1.1//EN" "http://www.w3.org/Graphics/SVG/1.1/DTD/svg11.dtd">
<svg version="1.1" xmlns="http://www.w3.org/2000/svg" width="300" height="350" viewBox="0 0 300 350">
  <path class="state" transform="scale(0.1)" d="M1971,3252l-101,-6 -341,-22 -108,-8h-17l-10,-2 -239,-15 -209,-15 -184,-12 -296,-19 -35,-34 -10,-50 4,-41 -41,-63 1,-29 -17,-45 -31,-61 -13,-2 3,-51 -9,-32 20,-27 -2,-38 15,-45 -4,-26 17,-35 -7,-75 -40,-52 -8,-61v-44l46,-88v-18l15,-71 -9,-30 51,-57 34,-12 22,-25 -27,-25 -44,-18 22,-38 6,-33 -18,-20 -3,-47 -49,-66 -18,-59 -6,-58 -22,-28 4,-33 -16,-12 -28,-185 -32,-214 -21,-162 -25,-179 -20,-128 -19,-148 -35,-217 -3,-25 -36,-259 141,3h58h168l98,4 113,1 287,4h114h186l41,-4 262,-5 -9,35 -50,50 -24,2 -14,43 -34,22 -16,53 7,20 70,56 36,2v20l34,30 31,32 28,13 62,-8 21,20 13,69 24,10 16,40 18,27 17,73 21,12 17,38 35,37 17,51h1l31,15 52,48 49,25 42,42 24,56 23,47 34,27 18,-5 48,36 33,45 37,32 -20,50 24,33 23,5 20,30 -10,18 27,23 24,-3 3,42 36,28 99,52 30,26 -6,53 29,62 21,8 -5,48 25,80 -17,20 20,24 38,25 27,1 49,63 -3,22 35,68 15,4 4,43 -13,35 14,18 5,62 32,23 37,-2 -27,42 27,16 -5,30 29,34 19,3 -36,37 -75,-24 -20,-31 -35,10 -15,23 29,-5 27,30 -20,26 11,65 -64,-23 -7,-27 -28,-6 28,11 2,25 31,15 20,20 -6,19h-47l-4,18 -40,3 51,2 29,15 15,36 -38,20 -43,4 42,20 -40,40 -3,71 28,-3 3,31 -51,-10h-65l1,2 17,5 36,33 -44,75 18,32 -18,16 -40,-49 -3,36 62,33 5,29 -36,1 -43,-26 30,18 29,38 -27,19 38,16 -44,45 21,32 -35,-4 28,34 -3,50 -21,15 -122,-25 -46,-29 -38,-1 -23,-25 -35,8 -12,28 -35,22 -5,68 23,40 -1,87 -17,51 5,23 -84,10 -24,-53 6,-38 -24,-42 15,-16ZM2589,2993l3,18 -31,88 4,52 -18,-13 4,-79 -24,-28 30,-20 32,-50ZM2840,2179l81,42 -46,7ZM2887,2258l-17,5 -2,-34 41,9ZM2820,2176l50,43 -7,30 -23,19 -17,-14 4,-25 -30,-21ZM2752,2334l52,27 -20,33 -37,32 -30,-52ZM2716,2283l24,6 27,39 -31,-2ZM2631,2725h4l34,10 -11,55 -41,48 -33,8 -13,-63 30,-33 -4,-28ZM2747,2444l3,48 -25,53 -13,-79 17,5ZM2675,2471l37,5 5,38ZM2710,2559l13,13 -60,101 -32,-69 41,-15Z"/>
  <g class="counties" transform="scale(0.1)">
    <path data-fips-int="13001" data-name="Appling County" d="M2082,2299l54,2v13l54,45 -19,-2 -32,40 3,217 -13,1 -46,-43 -8,-18 -78,-54 -94,-56v-90h54l-2,-93 36,18 50,-1Z"/>
    <path data-fips-int="13003" data-name="Atkinson County" d="M1839,2693l-6,64 -37,-2 -1,38 18,30h-183h-47l7,-70 -14,-35 -26,-16 -24,-50 108,3 3,10 75,2 11,26Z"/>
    <path data-fips-int="13005" data-name="Bacon County" d="M2083,2572l-45,28 -26,45 -44,10h-38l-10,-36h-63v-65h-18v-82h64v-28l94,56 78,54Z"/>
    <path data-fips-int="13007" data-name="Baker County" d="M738,2637l134,2 44,-4 -71,77 -53,21 -18,47 -22,27 -47,29 -17,59 -21,-2 4,-126 -64,-5 4,-125 89,7 28,-19Z"/>
    <path data-fips-int="13009" data-name="Baldwin County" d="M1445,1389l106,27 -12,52 11,18 28,-20 -10,41 12,25 -14,29 -47,-44 -124,59 -19,-67 -25,-118 67,8Z"/>
    <path data-fips-int="13011" data-name="Banks County" d="M1334,463l38,15 9,22 -6,74 31,45 -8,29 -29,18 -47,-47 -54,4 -27,-27 -29,-52 32,-48 46,-41Z"/>
    <path data-fips-int="13013" data-name="Barrow County" d="M1287,832l-63,40 -18,-8 -50,18 -23,-25 -39,-60 29,-81 29,43 122,25Z"/>
    <path data-fips-int="13015" data-name="Bartow County" d="M624,746l-47,-4 -109,-1 -76,-2 2,-10 1,-81 15,-4 2,-95 10,-31 151,-2 58,-10Z"/>
    <path data-fips-int="13017" data-name="Ben Hill County" d="M1503,2347l28,27 83,22 -1,76 -109,-3 -1,20 -54,-2v-18l-37,-2v-53l-78,-2 -14,-65Z"/>
    <path data-fips-int="13019" data-name="Berrien County" d="M1523,2617l3,35 24,50 26,16 14,35 -7,70 5,27h-76l-2,60h-20v26l-58,-3v-35l-17,-15 11,-38 -20,-27v-36l-31,-12 -31,-42 1,-25 40,-36 1,-45 18,-8Z"/>
    <path data-fips-int="13021" data-name="Bibb County" d="M1301,1634l10,28 -50,48 -18,27 7,27 -63,-20 -69,-32 -44,-81 109,-75 30,46h37Z"/>
    <path data-fips-int="13023" data-name="Bleckley County" d="M1526,1937l-20,-22 -80,80 13,11 -38,39 -91,-93v-37l163,-95Z"/>
    <path data-fips-int="13025" data-name="Brantley County" d="M2388,2712l-20,116 -23,12 -23,40h-43l-14,36 -77,-18 -12,45 -32,2 -47,-54 -1,-61 -45,-15 -2,-23 58,15 22,-14 25,-36 63,-4 3,-25 -22,-46 81,20 66,-14Z"/>
    <path data-fips-int="13027" data-name="Brooks County" d="M1321,2931l28,60 -9,28 48,20 3,34 -54,11 -5,37 -18,12 28,44 27,7 25,30 -239,-15 5,-271 100,2v-32l14,18Z"/>
    <path data-fips-int="13029" data-name="Bryan County" d="M2585,2161l16,33 37,32 13,43 32,37 29,-5 27,30 -20,26 11,65 -64,-23 -7,-27 -28,-6 -37,-32 -17,-65 -32,-1 -5,-17 -57,10 -50,-67 -45,-25 -25,-11 -14,-35 208,-65Z"/>
    <path data-fips-int="13031" data-name="Bulloch County" d="M2486,1880l7,38 33,75 12,2 19,63 -208,65 -23,-60 -44,-25 -48,3 30,-104 -34,-37v-32l-34,-18 15,-50 97,-31 23,3 65,66 48,17Z"/>
    <path data-fips-int="13033" data-name="Burke County" d="M2295,1341l27,23 24,-3 3,42 36,28 99,52 -135,99 -54,-33 -58,23 -76,7 -25,23 -13,52 -41,5 -61,-20 25,-75 -11,-78 13,-75 20,-52 -20,-29 61,-22 38,46 67,2 64,-26Z"/>
    <path data-fips-int="13035" data-name="Butts County" d="M1057,1203l37,55 19,50 3,83 -21,-15h-110h-49l14,-68 24,-10 17,-33 41,-12 -4,-23Z"/>
    <path data-fips-int="13043" data-name="Candler County" d="M2196,1850l34,18v32l34,37 -30,104 -34,-6 -125,-27 -15,-23 40,-58 22,-62 42,-30Z"/>
    <path data-fips-int="13045" data-name="Carroll County" d="M530,1105l-25,45 -54,53 -26,-17 -20,24 -168,-5 -21,-162h30l85,-31 19,6 37,-16 8,-70 83,25 -6,148Z"/>
    <path data-fips-int="13047" data-name="Catoosa County" d="M346,247l-35,-5 2,-57h-37l1,-95h168l-27,64 -24,26v32l-40,-2Z"/>
    <path data-fips-int="13049" data-name="Charlton County" d="M2277,2918l2,50 13,10 -14,33 14,7 -7,55 -35,8 -12,28 -35,22 -5,68 23,40 -1,87 -17,51 5,23 -84,10 -24,-53 6,-38 -24,-42 15,-16 39,-155 -19,-5 -149,-2 3,-156 173,2 32,-2 12,-45 77,18Z"/>
    <path data-fips-int="13053" data-name="Chattahoochee County" d="M623,1850l-13,28 -3,188h-161l22,-25 -27,-25 -44,-18 22,-38h22l41,-25 60,-5 24,-53 21,-15Z"/>
    <path data-fips-int="13055" data-name="Chattooga County" d="M365,376l-45,107 -94,48 -30,58 -44,-1 -35,-217Z"/>
    <path data-fips-int="13057" data-name="Cherokee County" d="M865,531l-2,33 -1,107h-42l-18,40 -36,18v22l-142,-5 7,-240h42v23Z"/>
    <path data-fips-int="13059" data-name="Clarke County" d="M1455,807l-12,40 22,28 -22,40 -28,-3 -56,-52 -54,-3 -18,-25 23,-23 10,3 74,-33Z"/>
    <path data-fips-int="13061" data-name="Clay County" d="M419,2389l8,115h76l-1,85 -77,-2 -51,10 -10,-23 -7,-75 -40,-52 -8,-61 69,8Z"/>
    <path data-fips-int="13063" data-name="Clayton County" d="M803,1055l42,2 17,46 -19,35 -7,70h-35l-2,60 -21,-2 4,-76 -44,-65 1,-70Z"/>
    <path data-fips-int="13065" data-name="Clinch County" d="M1813,2823l50,118 44,39h18l-2,103h37l4,148 7,21 -101,-6 3,-70 -13,-15 -57,-17 -47,2 -41,-37 -16,-40 -69,-21v-225Z"/>
    <path data-fips-int="13067" data-name="Cobb County" d="M766,751l25,73 -43,43 -9,52 -69,66 -29,-43 -58,-2 1,-101h-8l1,-97 47,4Z"/>
    <path data-fips-int="13069" data-name="Coffee County" d="M1839,2472v82h18v65h-18v74h-116l-11,-26 -75,-2 -3,-10 -108,-3 -3,-35 17,-2 36,-66v-32l27,-17 10,-28 1,-76 72,-5 25,-17v100Z"/>
    <path data-fips-int="13071" data-name="Colquitt County" d="M1212,2718l86,2 2,87 -20,20 -20,71v32l-100,-2 -163,-5v-25l4,-185Z"/>
    <path data-fips-int="13073" data-name="Columbia County" d="M2065,1023l23,47 34,27 18,-5 48,36 -157,138 -25,-45 -29,-33 -26,-56 7,-32 -18,-30 11,-15 71,-38Z"/>
    <path data-fips-int="13075" data-name="Cook County" d="M1432,2898v35l-111,-2 -47,-15 -14,-18 20,-71 20,-20 -2,-87 30,2 17,-19 -1,25 31,42 31,12v36l20,27 -11,38Z"/>
    <path data-fips-int="13077" data-name="Coweta County" d="M647,1158l-6,68 19,32 31,20 20,56 -3,25 -207,-3 -8,23 2,-23 -47,-2 -43,-144 20,-24 26,17 54,-53 136,2Z"/>
    <path data-fips-int="13079" data-name="Crawford County" d="M1074,1631l44,81 69,32 -39,-2 -143,116 -41,-46 9,-28 -29,-29 -58,-13 33,-78 15,-2v-35Z"/>
    <path data-fips-int="13081" data-name="Crisp County" d="M1241,2219l-2,123v37h-116l-32,-23 -52,-10 12,-43 -23,-87Z"/>
    <path data-fips-int="13083" data-name="Dade County" d="M219,90l-43,79 -11,76 -26,48v20l-25,33 -36,-259Z"/>
    <path data-fips-int="13085" data-name="Dawson County" d="M906,373l-2,45 47,50 77,38 -3,27 17,33 -179,-2 2,-33 1,-61h-37l-16,-69 15,-16 39,11v-20l35,-15Z"/>
    <path data-fips-int="13087" data-name="Decatur County" d="M667,2893l21,2h80v109l-6,168 -296,-19 9,-44 24,-6 26,-37 10,-38 2,-112 15,-18Z"/>
    <path data-fips-int="13089" data-name="DeKalb County" d="M850,834l9,28 60,45 49,58 32,17 -22,21 -34,79 -41,-24 -58,-1 -42,-2 5,-228Z"/>
    <path data-fips-int="13091" data-name="Dodge County" d="M1681,2098l7,10 -34,33 -169,170 -12,-28 -35,-27 -15,-52 3,-28 -20,-13 27,-52 -48,-51 16,-15 38,-39 -13,-11 80,-80 20,22 89,196Z"/>
    <path data-fips-int="13093" data-name="Dooly County" d="M1239,2031h5l-3,124v64l-213,-3 -30,-63 -10,-38 39,-55 71,-30Z"/>
    <path data-fips-int="13095" data-name="Dougherty County" d="M991,2487l13,18 -2,130h-86l-44,4 -134,-2 11,-13 -25,-65 4,-54 92,2h155Z"/>
    <path data-fips-int="13097" data-name="Douglas County" d="M670,985l-44,42 -6,20 -54,16 -36,42h-58l6,-148 105,-5v-12l58,2Z"/>
    <path data-fips-int="13099" data-name="Early County" d="M502,2589h14l3,46 92,2 -4,125 -38,6 -130,-6 -5,133 -66,-4 -31,-61 -13,-2 3,-51 -9,-32 20,-27 -2,-38 15,-45 -4,-26 17,-35 10,23 51,-10Z"/>
    <path data-fips-int="13101" data-name="Echols County" d="M1870,3246l-341,-22 2,-121 18,-7 10,-33h42l29,-15 69,21 16,40 41,37 47,-2 57,17 13,15Z"/>
    <path data-fips-int="13103" data-name="Effingham County" d="M2733,2065l-33,-7 -115,103 -28,-103 -19,-63 -12,-2 -33,-75 -7,-38 5,-13 90,-63 38,25 27,1 49,63 -3,22 35,68 15,4 4,43Z"/>
    <path data-fips-int="13105" data-name="Elbert County" d="M1866,837h1h-1l-47,-20 -80,10 -97,-30 -21,-23 -33,-37 -20,-40 -21,-10 14,-39 36,-9 21,17 40,-27 83,-30 18,27 17,73 21,12 17,38 35,37Z"/>
    <path data-fips-int="13107" data-name="Emanuel County" d="M2021,1639l61,20 41,-5 38,105 50,41 -15,50 -32,-15 -42,30 -22,62 -40,58 15,23 -29,18 -45,2 -33,-45 14,-60 -65,-41 -94,-10 48,-19 -15,-29 77,-50 -22,-29 29,-23 10,-32 15,-3 -5,-31Z"/>
    <path data-fips-int="13109" data-name="Evans County" d="M2234,2041l48,-3 44,25 23,60 14,35 25,11 -26,30 -80,-1 -54,-24 -28,-139Z"/>
    <path data-fips-int="13111" data-name="Fannin County" d="M943,99l-29,23 42,48 -23,30 3,25 28,7 -7,53 -33,56 -18,32 -4,-12v-16l-32,-23v-32l-37,-65 -61,-33 -116,-2v-95Z"/>
    <path data-fips-int="13113" data-name="Fayette County" d="M778,1266l3,25 -33,43h-37l-20,-56 -31,-20 -19,-32 6,-68 10,-11 81,-22 44,65Z"/>
    <path data-fips-int="13115" data-name="Floyd County" d="M387,376l-12,32 -1,58h-13l14,45 47,7 -10,31 -2,95 -15,4 -1,81 -124,-5 -1,15 -98,-3 -19,-148 44,1 30,-58 94,-48 45,-107Z"/>
    <path data-fips-int="13117" data-name="Forsyth County" d="M1042,566l15,40 -39,62h-37l-3,16 -32,70 11,15 -48,-15 -47,-28v-55l1,-107Z"/>
    <path data-fips-int="13119" data-name="Franklin County" d="M1577,455l-27,61 1,43 -11,52 -33,25 -39,-2 -36,-16 -34,30 8,-29 -31,-45 6,-74 -9,-22 13,-7 115,-5 46,-43Z"/>
    <path data-fips-int="13121" data-name="Fulton County" d="M862,671v55l47,28 48,15 -43,15 -7,23 -28,-6 -29,33 -42,-7 -5,228h-64l-1,70 -81,22 -10,11 -6,-6 -136,-2 25,-45 36,-42 54,-16 6,-20 44,-42 69,-66 9,-52 43,-43 -25,-73v-22l36,-18 18,-40Z"/>
    <path data-fips-int="13123" data-name="Gilmer County" d="M902,361l-35,15v20l-39,-11 -15,16 -14,10 -168,-3v-23v-105l10,-35 36,-33 -21,-22 116,2 61,33 37,65v32l32,23Z"/>
    <path data-fips-int="13125" data-name="Glascock County" d="M1948,1325l-91,74 4,37 -49,-5 -46,-32 -7,-48 -4,-10 42,-13 33,-28 41,-12Z"/>
    <path data-fips-int="13129" data-name="Gordon County" d="M631,385v23v98l-58,10 -151,2 -47,-7 -14,-45h13l1,-58 12,-32 11,-23 74,5 7,-13 30,20 70,-4Z"/>
    <path data-fips-int="13131" data-name="Grady County" d="M927,2896l-1,79 25,36 -5,173 -184,-12 6,-168v-109Z"/>
    <path data-fips-int="13133" data-name="Greene County" d="M1611,1027l27,23 -38,58 17,42 -16,36 -91,84 -20,-30 -22,-5 -26,-59 -6,-41 -35,-40 -34,-72 68,-26 7,-18 95,43 47,-9Z"/>
    <path data-fips-int="13135" data-name="Gwinnett County" d="M1123,716l-29,81 39,60 -109,102 -24,23 -32,-17 -49,-58 -60,-45 -9,-28 29,-33 28,6 7,-23 43,-15 -11,-15 32,-70 116,52Z"/>
    <path data-fips-int="13137" data-name="Habersham County" d="M1399,295l7,20 -14,7 -58,141 -44,-8 -46,41 -30,-50 29,-38 -12,-47 -15,-21 24,-57 -6,-28 -28,-22 17,-15 31,-5 39,65 34,10 24,-16Z"/>
    <path data-fips-int="13139" data-name="Hall County" d="M1214,446l30,50 -32,48 29,52 -118,120 -29,20 -116,-52 3,-16h37l39,-62 -15,-40 -17,-33 3,-27 81,-61Z"/>
    <path data-fips-int="13141" data-name="Hancock County" d="M1696,1205l18,11 17,54 7,56 17,15 4,10 -60,28 -24,44 -51,23 -20,20h-26l-28,20 -11,-18 12,-52 -106,-27 11,-51 64,-35 -10,-33 91,-84 17,17Z"/>
    <path data-fips-int="13143" data-name="Haralson County" d="M395,932l-8,70 -37,16 -19,-6 -85,31h-30l-25,-179 103,5 94,-2h9Z"/>
    <path data-fips-int="13145" data-name="Harris County" d="M587,1627l5,10 -3,178 -130,-1 2,-19 -106,-1 -18,-59 -6,-58 -22,-28 4,-33 -16,-12 194,3 66,4Z"/>
    <path data-fips-int="13147" data-name="Hart County" d="M1741,599l-83,30 -40,27 -21,-17 -36,9 -21,-37 11,-52 -1,-43 27,-61 28,13 62,-8 21,20 13,69 24,10Z"/>
    <path data-fips-int="13149" data-name="Heard County" d="M405,1210l43,144 -90,37 -89,28 -32,-214Z"/>
    <path data-fips-int="13151" data-name="Henry County" d="M903,1058l33,60 49,27 9,23 48,7 15,28 -29,27 4,23 -41,12 -17,33 -24,10 -30,-28h-57v-12h-64l2,-60h35l7,-70 19,-35 -17,-46Z"/>
    <path data-fips-int="13153" data-name="Houston County" d="M1250,1764l31,28 -3,43 32,80v37l-20,3 -51,76 -141,-1 7,-65 -6,-62 30,15v-35l47,-23 1,-76 10,-40Z"/>
    <path data-fips-int="13155" data-name="Irwin County" d="M1613,2472l-10,28 -27,17v32l-36,66 -17,2 -119,-3 -23,-5 -26,-50 -50,-12v-18l6,-72h20l3,-45 78,2v53l37,2v18l54,2 1,-20Z"/>
    <path data-fips-int="13157" data-name="Jackson County" d="M1369,666l25,26 2,32 -17,48 15,7 -74,33 -10,-3 -23,23 -13,-48 -122,-25 -29,-43 118,-120 27,27 54,-4Z"/>
    <path data-fips-int="13159" data-name="Jasper County" d="M1290,1211l-9,188 -160,29 -5,-37 -3,-83 -19,-50 9,-33 69,-49h25l5,-29Z"/>
    <path data-fips-int="13161" data-name="Jeff Davis County" d="M1955,2261l2,93h-54v90v28h-64l-128,2v-100l35,-37 80,-41 62,-28 35,6 1,-15Z"/>
    <path data-fips-int="13163" data-name="Jefferson County" d="M2048,1330l20,29 -20,52 -13,75 11,78 -25,75 -61,17 5,31 -15,3 -53,-41 6,-68 -17,-22 -8,-52 -28,-9 -38,-67 49,5 -4,-37 91,-74 30,-27h17Z"/>
    <path data-fips-int="13165" data-name="Jenkins County" d="M2349,1582l-58,163 17,24 -97,31 -50,-41 -38,-105 13,-52 25,-23 76,-7 58,-23Z"/>
    <path data-fips-int="13167" data-name="Johnson County" d="M1950,1690l-10,32 -29,23 22,29 -77,50 15,29 -48,19 -14,-7 1,-65 -75,-33 4,-22 -45,-18 -59,5 6,-37 88,-36 23,28 50,-20 8,10 87,-28Z"/>
    <path data-fips-int="13169" data-name="Jones County" d="M1351,1391l25,118 19,67 -30,20 -64,38 -51,-32h-37l-30,-46 -7,-55 -55,-73 160,-29Z"/>
    <path data-fips-int="13171" data-name="Lamar County" d="M985,1376l-2,183 -6,12 -43,-2 -1,-42 -86,-1 13,-33 2,-109 74,7v-15Z"/>
    <path data-fips-int="13173" data-name="Lanier County" d="M1630,2823v225l-29,15 -15,-70 -84,-2v-55h-12v-26h20l2,-60h76l-5,-27Z"/>
    <path data-fips-int="13175" data-name="Laurens County" d="M1779,2016l-80,82h-18l-66,35 -89,-196 -53,-117 162,-88 59,-5 45,18 -4,22 75,33 -1,65 14,7 9,15 -32,21 -25,79Z"/>
    <path data-fips-int="13177" data-name="Lee County" d="M1051,2303l-12,43 -39,31 8,34 -23,26 6,50 -16,20h-155l9,-121 14,-30 -18,-24 -27,-6v-30l209,3Z"/>
    <path data-fips-int="13181" data-name="Lincoln County" d="M1866,837h1l31,15 52,48 49,25 42,42 24,56 -43,-6 -71,38 -33,8 -58,-106 -41,-140Z"/>
    <path data-fips-int="13183" data-name="Long County" d="M2530,2446l-41,84 -62,32 -24,-33 -91,-65 -38,-37 1,-15 -37,-26 -7,-12 37,-40 21,-40 -4,-25 39,-46 15,25 30,3v81l68,67Z"/>
    <path data-fips-int="13185" data-name="Lowndes County" d="M1432,2933l58,3h12v55l84,2 15,70h-42l-10,33 -18,7 -2,121 -108,-8h-17l-10,-2 -25,-30 -27,-7 -28,-44 18,-12 5,-37 54,-11 -3,-34 -48,-20 9,-28 -28,-60Z"/>
    <path data-fips-int="13187" data-name="Lumpkin County" d="M1103,290l-11,28 6,93 11,34 -81,61 -77,-38 -47,-50 2,-45 18,-32 13,-11 60,16 31,-53 26,-18Z"/>
    <path data-fips-int="13189" data-name="McDuffie County" d="M1918,1063l33,-8 -11,15 18,30 -7,32 26,56 29,33 25,45 -36,32h-17l-40,-20 -52,-12 -10,-41 -20,-27 -39,-111 42,-32 22,10 20,-15Z"/>
    <path data-fips-int="13193" data-name="Macon County" d="M995,1875h53l51,28 6,62 -7,65 -71,30 -39,55 -62,-14 -2,-28 -28,-2h-24l1,-46h-23l2,-55 1,-18 34,-2 53,-82Z"/>
    <path data-fips-int="13195" data-name="Madison County" d="M1561,648l-14,39 21,10 20,40 33,37 -41,22 -47,-22 -57,33h-21l-61,-28 -15,-7 17,-48 -2,-32 -25,-26 29,-18 34,-30 36,16 39,2 33,-25Z"/>
    <path data-fips-int="13197" data-name="Marion County" d="M769,1938v85l-13,47 -11,-2 -1,48v24l-59,-2 -21,-40 -23,-2 -11,-30h-17h-6l3,-188 13,-28 27,10 18,-17 34,4 37,-15 6,50 16,6Z"/>
    <path data-fips-int="13199" data-name="Meriwether County" d="M708,1359l3,27 -11,27 2,45 -15,35 4,46 11,63 -37,25h-78l-30,-16 -66,-4 2,-228 8,-23Z"/>
    <path data-fips-int="13201" data-name="Miller County" d="M607,2762l64,5 -4,126 -115,5 -118,-3 5,-133 130,6Z"/>
    <path data-fips-int="13205" data-name="Mitchell County" d="M1002,2635l-1,78 -4,185 -70,-2 -159,-1h-80l17,-59 47,-29 22,-27 18,-47 53,-21 71,-77Z"/>
    <path data-fips-int="13207" data-name="Monroe County" d="M1116,1391l5,37 55,73 7,55 -109,75 -140,-4v-58l43,2 6,-12 2,-183h110Z"/>
    <path data-fips-int="13209" data-name="Montgomery County" d="M1924,2259l-1,15 -35,-6 -35,-44 -9,-28v-65l-11,-30 -3,-56 -11,-20 4,-10 145,-32 -18,45v47Z"/>
    <path data-fips-int="13211" data-name="Morgan County" d="M1367,1023l34,72 35,40 6,41 -152,35 -88,-64 1,-52 102,-158 33,43 4,25Z"/>
    <path data-fips-int="13213" data-name="Murray County" d="M656,95v95l21,22 -36,33 -10,35v105l-52,-24 -70,4 -30,-20 -14,-30h30l-27,-22h41l-4,-58 15,-43 17,-12 -12,-41 18,-45Z"/>
    <path data-fips-int="13215" data-name="Muscogee County" d="M589,1815l15,15 -17,32 -21,15 -24,53 -60,5 -41,25h-22l6,-33 -18,-20 -3,-47 -49,-66 106,1 -2,19Z"/>
    <path data-fips-int="13217" data-name="Newton County" d="M1203,1095l-1,52 -5,29h-25l-69,49 -9,33 -37,-55 -15,-28 -48,-7 -9,-23 66,-85 13,-71Z"/>
    <path data-fips-int="13219" data-name="Oconee County" d="M1443,915l-1,64 -7,18 -68,26 -25,-18 -4,-25 -33,-43 -38,-22 -9,-23 -34,-20 63,-40 18,25 54,3 56,52Z"/>
    <path data-fips-int="13221" data-name="Oglethorpe County" d="M1621,774l21,23 97,30 -41,23 -56,65 -27,49 23,35 -27,28 -27,-14 -47,9 -95,-43 1,-64 22,-40 -22,-28 12,-40h21l57,-33 47,22Z"/>
    <path data-fips-int="13223" data-name="Paulding County" d="M577,742l-1,97h8l-1,101v12l-105,5 -83,-25 2,-65h-9l2,-35 44,2 34,-93Z"/>
    <path data-fips-int="13225" data-name="Peach County" d="M1099,1903l-51,-28h-53l10,-17 143,-116 39,2 -10,40 -1,76 -47,23v35Z"/>
    <path data-fips-int="13227" data-name="Pickens County" d="M813,401l16,69h37l-1,61 -192,-2v-23h-42v-98l168,3Z"/>
    <path data-fips-int="13229" data-name="Pierce County" d="M2142,2614l24,-9 25,24 -3,28 10,25 22,46 -3,25 -63,4 -25,36 -22,14 -58,-15h-17l-45,-52 -2,-48 -17,-37 44,-10 26,-45 45,-28 46,43Z"/>
    <path data-fips-int="13231" data-name="Pike County" d="M862,1384l-2,109 -13,33 -133,-2 -23,15 -4,-46 15,-35 -2,-45 11,-27 30,-18h33l11,16Z"/>
    <path data-fips-int="13233" data-name="Polk County" d="M394,729l-2,10 76,2 -34,93 -44,-2 -2,35 -94,2 -103,-5 -20,-128 98,3 1,-15Z"/>
    <path data-fips-int="13235" data-name="Pulaski County" d="M1310,1952l91,93 -16,15 48,51 -27,52 -14,-18 -47,10h-104l3,-124h-5l51,-76Z"/>
    <path data-fips-int="13237" data-name="Putnam County" d="M1510,1270l10,33 -64,35 -11,51 -27,10 -67,-8 -70,8 9,-188 152,-35 26,59 22,5Z"/>
    <path data-fips-int="13239" data-name="Quitman County" d="M454,2284l-5,107 -30,-2 -41,5 -69,-8v-44l46,-88v-18l16,12h50l3,25Z"/>
    <path data-fips-int="13241" data-name="Rabun County" d="M1399,295l-48,-23 -24,16 -34,-10 -39,-65 -31,5 -2,-41 32,-43 32,-4 -1,-35 262,-5 -9,35 -50,50 -24,2 -14,43 -34,22Z"/>
    <path data-fips-int="13243" data-name="Randolph County" d="M606,2291h32l-2,106h22l19,65 -9,43 -61,-16 -6,16 -98,-1h-76l-8,-115 30,2 5,-107Z"/>
    <path data-fips-int="13245" data-name="Richmond County" d="M2295,1341l-17,-11 -64,26 -67,-2 -38,-46 -61,22 -53,-32 36,-32 157,-138 33,45 37,32 -20,50 24,33 23,5 20,30Z"/>
    <path data-fips-int="13247" data-name="Rockdale County" d="M985,1145l-49,-27 -33,-60 41,24 34,-79 22,-21 24,-23 40,30 -13,71Z"/>
    <path data-fips-int="13249" data-name="Schley County" d="M852,1970l-2,55h23l-1,46h24l-2,52 -150,-7 1,-48 11,2 13,-47v-85l42,14v16Z"/>
    <path data-fips-int="13251" data-name="Screven County" d="M2581,1804l-90,63 -5,13 -42,-25 -48,-17 -65,-66 -23,-3 -17,-24 58,-163 135,-99 30,26 -6,53 29,62 21,8 -5,48 25,80 -17,20Z"/>
    <path data-fips-int="13253" data-name="Seminole County" d="M552,2898l-15,18 -2,112 -10,38 -26,37 -24,6 -9,44 -35,-34 -10,-50 4,-41 -41,-63 1,-29 -17,-45 66,4Z"/>
    <path data-fips-int="13255" data-name="Spalding County" d="M950,1308l-14,68v15l-74,-7h-77l-11,-16h-33l-30,18 -3,-27 3,-25h37l33,-43 -3,-25 21,2h64v12h57Z"/>
    <path data-fips-int="13257" data-name="Stephens County" d="M1546,423l-46,43 -115,5 -13,7 -38,-15 58,-141 14,-7 70,56 36,2v20Z"/>
    <path data-fips-int="13259" data-name="Stewart County" d="M613,2066l4,5 -3,135 -7,7 -1,78 -152,-7 -30,-11 -3,-25h-50l-16,-12 15,-71 -9,-30 51,-57 34,-12h161Z"/>
    <path data-fips-int="13261" data-name="Sumter County" d="M988,2115l10,38 30,63 23,87 -44,-4 -209,-3v30l-63,-67 9,-119v-24l150,7 2,-52 28,2 2,28Z"/>
    <path data-fips-int="13263" data-name="Talbot County" d="M835,1700l-30,19 -26,63 -18,17v34l-22,-1 -37,15 -34,-4 -18,17 -27,-10 -36,12 17,-32 -15,-15 3,-178 -5,-10h78l37,-25 62,40 8,30Z"/>
    <path data-fips-int="13265" data-name="Taliaferro County" d="M1799,1093l-40,64 -38,-7 -30,38 5,17 -78,-2 -17,-17 16,-36 -17,-42 38,-58 -27,-23 27,-28 34,69 49,-13Z"/>
    <path data-fips-int="13267" data-name="Tattnall County" d="M2200,2035l28,139 54,24 80,1 -38,24 -39,46 4,25 -21,40 -37,40 7,12 -48,-27 -54,-45v-13l-54,-2 11,-123 12,-70 -15,-21 -15,-77Z"/>
    <path data-fips-int="13269" data-name="Taylor County" d="M886,1742l58,13 29,29 -9,28 41,46 -10,17 -55,-7 -53,82 -34,2 -1,18 -41,-2v-16l-42,-14 -8,-50 -16,-6 -6,-50 22,1v-34l18,-17 26,-63 30,-19 42,22Z"/>
    <path data-fips-int="13271" data-name="Telfair County" d="M1736,2216l39,17 20,31 31,32 -80,41 -35,37 -25,17 -72,5 -83,-22 -28,-27 -18,-36 169,-170 18,33Z"/>
    <path data-fips-int="13273" data-name="Terrell County" d="M798,2326l27,6 18,24 -14,30 -9,121 -92,-2h-60l9,-43 -19,-65h-22l2,-106 90,2 7,-34Z"/>
    <path data-fips-int="13275" data-name="Thomas County" d="M997,2898v25l163,5 -5,271 -209,-15 5,-173 -25,-36 1,-79Z"/>
    <path data-fips-int="13277" data-name="Tift County" d="M1305,2529v18l50,12 26,50 23,5 -18,8 -1,45 -40,36 -17,19 -30,-2 -86,-2 4,-171v-20Z"/>
    <path data-fips-int="13279" data-name="Toombs County" d="M2075,2008l15,77 15,21 -12,70 -11,123 -41,-21 -50,1 -36,-18 -31,-2 26,-184v-47l18,-45 33,45 45,-2Z"/>
    <path data-fips-int="13281" data-name="Towns County" d="M1284,95l1,35 -32,4 -32,43 2,41 -17,15 -58,5 -16,-46v-33l-27,1 -36,-16 -12,-45h186Z"/>
    <path data-fips-int="13283" data-name="Treutlen County" d="M1968,1983l-145,32 -4,10 -40,-9 -4,-29 25,-79 32,-21 -9,-15 94,10 65,41Z"/>
    <path data-fips-int="13285" data-name="Troup County" d="M493,1379l-2,228 -194,-3 -28,-185 89,-28 90,-37 47,2Z"/>
    <path data-fips-int="13287" data-name="Turner County" d="M1320,2347l14,65 -3,45h-20l-6,72 -89,-2v20l-41,-38h-49l-3,-130h116v-37Z"/>
    <path data-fips-int="13289" data-name="Twiggs County" d="M1473,1820l-163,95 -32,-80 3,-43 -31,-28 -7,-27 18,-27 50,-48 -10,-28 64,-38Z"/>
    <path data-fips-int="13291" data-name="Union County" d="M1057,99l12,45 36,16 27,-1v33l16,46 -27,9 -2,36 -16,7 -49,-15 -26,18 -31,53 -60,-16 -13,11 33,-56 7,-53 -28,-7 -3,-25 23,-30 -42,-48 29,-23Z"/>
    <path data-fips-int="13293" data-name="Upson County" d="M847,1526l86,1 1,42v58v35l-15,2 -33,78 -9,-20 -42,-22 -63,-28 -8,-30 -62,-40 -11,-63 23,-15Z"/>
    <path data-fips-int="13295" data-name="Walker County" d="M346,247l-16,33 68,3v70l-11,23h-22l-248,-5 -3,-25 25,-33v-20l26,-48 11,-76 43,-79h58l-1,95h37l-2,57Z"/>
    <path data-fips-int="13297" data-name="Walton County" d="M1156,882l50,-18 18,8 34,20 9,23 38,22 -102,158 -139,-106 -40,-30 109,-102Z"/>
    <path data-fips-int="13299" data-name="Ware County" d="M1968,2655l17,37 2,48 45,52h17l2,23 45,15 1,61 47,54 -173,-2 -3,156 149,2 19,5 -39,155 -126,-9 -7,-21 -4,-148h-37l2,-103h-18l-44,-39 -50,-118 -18,-30 1,-38 37,2 6,-64v-74h18h63l10,36Z"/>
    <path data-fips-int="13301" data-name="Warren County" d="M1817,1087l39,111 20,27 10,41 52,12 40,20 -30,27 -77,-37 -41,12 -33,28 -42,13 -17,-15 -7,-56 -17,-54 -18,-11 -5,-17 30,-38 38,7 40,-64Z"/>
    <path data-fips-int="13303" data-name="Washington County" d="M1759,1351l7,48 46,32 38,67 28,9 8,52 17,22 -6,68 -87,28 -8,-10 -50,20 -23,-28 -88,36 -24,-68 -24,-1 -27,-65 14,-29 -12,-25 10,-41h26l20,-20 51,-23 24,-44Z"/>
    <path data-fips-int="13305" data-name="Wayne County" d="M2190,2359l48,27 37,26 -1,15 38,37 91,65 24,33 3,22 29,28 -7,12 -64,88 -43,-24 -66,14 -81,-20 -10,-25 3,-28 -25,-24 -24,9 -3,-217 32,-40Z"/>
    <path data-fips-int="13307" data-name="Webster County" d="M744,2140l-9,119 -7,34 -90,-2h-32l1,-78 7,-7 3,-135 -4,-5h17l11,30 23,2 21,40Z"/>
    <path data-fips-int="13309" data-name="Wheeler County" d="M1819,2025l11,20 3,56 11,30v65l9,28 35,44 -62,28 -31,-32 -20,-31 -39,-17 -64,-42 -18,-33 34,-33 -7,-10h18l80,-82Z"/>
    <path data-fips-int="13311" data-name="White County" d="M1206,233l28,22 6,28 -24,57 15,21 12,47 -29,38 -105,-1 -11,-34 -6,-93 11,-28 16,-7 2,-36 27,-9Z"/>
    <path data-fips-int="13313" data-name="Whitfield County" d="M543,94l-18,45 12,41 -17,12 -15,43 4,58h-41l27,22h-30l14,30 -7,13 -74,-5v-70l-68,-3 16,-33 8,-37 40,2v-32l24,-26 27,-64Z"/>
    <path data-fips-int="13315" data-name="Wilcox County" d="M1406,2163l20,13 -3,28 15,52 35,27 12,28 18,36h-183l-81,-5 2,-123v-64h104l47,-10Z"/>
    <path data-fips-int="13317" data-name="Wilkes County" d="M1819,817l41,140 58,106 -17,-13 -20,15 -22,-10 -42,32 -18,6 -78,-38 -49,13 -34,-69 -23,-35 27,-49 56,-65 41,-23Z"/>
    <path data-fips-int="13319" data-name="Wilkinson County" d="M1566,1561l27,65 24,1 24,68 -6,37 -162,88 -108,-224 30,-20 124,-59Z"/>
    <path data-fips-int="13321" data-name="Worth County" d="M1039,2346l52,10 32,23 3,130h49l41,38 -4,171 -211,-5 1,-78 2,-130 -13,-18 -6,-50 23,-26 -8,-34Z"/>
    <path data-fips-int="13039" data-name="Camden County" d="M2589,2993l3,18 -31,88 4,52 -18,-13 4,-79 -24,-28 30,-20 32,-50ZM2434,2861l16,9 37,-15 11,35 30,18 29,38 -27,19 38,16 -44,45 21,32 -35,-4 28,34 -3,50 -21,15 -122,-25 -46,-29 -38,-1 -23,-25 7,-55 -14,-7 14,-33 -13,-10 -2,-50 -12,-2 14,-36h43l23,-40 23,-12 47,32Z"/>
    <path data-fips-int="13051" data-name="Chatham County" d="M2840,2179l81,42 -46,7ZM2887,2258l-17,5 -2,-34 41,9ZM2820,2176l50,43 -7,30 -23,19 -17,-14 4,-25 -30,-21ZM2683,2306l-32,-37 -13,-43 -37,-32 -16,-33 115,-103 33,7 14,18 5,62 32,23 37,-2 -27,42 27,16 -5,30 29,34 19,3 -36,37 -75,-24 -20,-31 -35,10ZM2752,2334l52,27 -20,33 -37,32 -30,-52ZM2716,2283l24,6 27,39 -31,-2Z"/>
    <path data-fips-int="13127" data-name="Glynn County" d="M2631,2725h4l34,10 -11,55 -41,48 -33,8 -13,-63 30,-33 -4,-28ZM2543,2703l1,2 17,5 36,33 -44,75 18,32 -18,16 -40,-49 -3,36 62,33 5,29 -36,1 -43,-26 -11,-35 -37,15 -16,-9 -19,-1 -47,-32 20,-116 64,-88 28,38Z"/>
    <path data-fips-int="13179" data-name="Liberty County" d="M2747,2444l3,48 -25,53 -13,-79 17,5ZM2675,2471l37,5 5,38ZM2692,2417l20,20 -6,19h-47l-4,18 -40,3 -53,10 -32,-41 -93,-47 -68,-67v-81l-30,-3 -15,-25 38,-24 26,-30 45,25 50,67 57,-10 5,17 32,1 17,65 37,32 28,11 2,25Z"/>
    <path data-fips-int="13191" data-name="McIntosh County" d="M2710,2559l13,13 -60,101 -32,-69 41,-15ZM2615,2477l51,2 29,15 15,36 -38,20 -43,4 42,20 -40,40 -3,71 28,-3 3,31 -51,-10h-65l-63,-41 -28,-38 7,-12 -29,-28 -3,-22 62,-32 41,-84 32,41Z"/>
    <path data-fips-int="13037" data-name="Calhoun County" d="M668,2505h60l-4,54 25,65 -11,13 -10,-12 -28,19 -89,-7 -92,-2 -3,-46h-14l1,-85 98,1 6,-16Z"/>
  </g>
  <path class="mesh" transform="scale(0.1)" d="M1406,315l-14,7 -58,141 38,15 9,22 -6,74 31,45 -8,29 -29,18 -47,-47 -54,4 -27,-27 -29,-52 32,-48 46,-41 44,8M631,408v98h42v23l192,2 -2,33 -1,107h-42l-18,40 -36,18v22l-142,-5 -47,-4 -109,-1 -76,-2 2,-10 1,-81 15,-4 2,-95 10,-31 151,-2 58,-10 -7,240M1395,1576l-30,20 -64,38 10,28 -50,48 -18,27 7,27 -63,-20 -69,-32 -44,-81 109,-75 30,46h37l51,32M2427,2562l3,22 29,28 -7,12 -64,88 -20,116 -23,12 -23,40h-43l-14,36 -77,-18 -12,45 -32,2 -47,-54 -1,-61 -45,-15 -2,-23 58,15 22,-14 25,-36 63,-4 3,-25 -22,-46 81,20 66,-14 43,24M1155,3199l5,-271 100,2v-32l14,18 47,15 28,60 -9,28 48,20 3,34 -54,11 -5,37 -18,12 28,44 27,7 25,30M2631,2366l-37,-32 -17,-65 -32,-1 -5,-17 -57,10 -50,-67 -45,-25 -25,-11 -14,-35 208,-65 28,103 16,33 37,32 13,43 32,37M2349,2123l-23,-60 -44,-25 -48,3 30,-104 -34,-37v-32l-34,-18 15,-50 97,-31 23,3 65,66 48,17 42,25 7,38 33,75 12,2 19,63M2484,1483l-135,99 -54,-33 -58,23 -76,7 -25,23 -13,52 -41,5 -61,-20 25,-75 -11,-78 13,-75 20,-52 -20,-29 61,-22 38,46 67,2 64,-26 17,11M903,1058l33,60 49,27 9,23 48,7 15,28 37,55 19,50 3,83 -21,-15h-110h-49l14,-68 24,-10 17,-33 41,-12 -4,-23 29,-27M2234,2041l-34,-6 -125,-27 -15,-23 40,-58 22,-62 42,-30 32,15M216,1043h30l85,-31 19,6 37,-16 8,-70 83,25 -6,148h58l-25,45 -54,53 -26,-17 -20,24 -168,-5M445,90l-27,64 -24,26v32l-40,-2 -8,37 -35,-5 2,-57h-37l1,-95M2265,2916l12,2 2,50 13,10 -14,33 14,7 -7,55M2097,3261l39,-155 -19,-5 -149,-2 3,-156 173,2M419,1960h22l41,-25 60,-5 24,-53 21,-15 36,-12 -13,28 -3,188h-161M117,371l248,5 -45,107 -94,48 -30,58 -44,-1M1621,774l-41,22 -47,-22 -57,33h-21l-12,40 22,28 -22,40 -28,-3 -56,-52 -54,-3 -18,-25 -63,40 -18,-8 -50,18 -23,-25 -39,-60 29,-81 29,43 122,25 13,48 23,-23 10,3 74,-33 61,28M309,2386l69,8 41,-5 8,115h76l-1,85 -77,-2 -51,10 -10,-23M1857,2619h-18v74l-6,64 -37,-2 -1,38 18,30 50,118 44,39h18l-2,103h37l4,148 7,21M766,751l25,73 -43,43 -9,52 -69,66 -29,-43 -58,-2 1,-101h-8l1,-97M1523,2617l17,-2 36,-66v-32l27,-17 10,-28M1614,2396l72,-5 25,-17v100l128,-2M1160,2928l-163,-5v-25l4,-185 211,5 86,2 2,87 -20,20 -20,71M2188,1128l-157,138 -25,-45 -29,-33 -26,-56 7,-32 -18,-30 11,-15 71,-38 43,6M1432,2933l-111,-2M1298,2720l30,2 17,-19M505,1150l136,2 6,6 -6,68 19,32 31,20 20,56 -3,25 -207,-3 -8,23 2,-23 -47,-2 -43,-144M1866,837h1M1098,2030l7,-65 -6,-62 30,15v-35l47,-23 1,-76 10,-40 -39,-2 -143,116 -41,-46 9,-28 -29,-29 -58,-13 33,-78 15,-2v-35l140,4M1028,2216l-30,-63 -10,-38 39,-55 71,-30 141,1h5l-3,124v64l-2,123v37h-116l-32,-23 -52,-10 12,-43 -23,-87 213,3M219,90l-43,79 -11,76 -26,48v20l-25,33M865,531l1,-61h-37l-16,-69 15,-16 39,11v-20l35,-15 4,12 -2,45 47,50 77,38 -3,27 17,33 -179,-2M688,2895h80v109l-6,168M466,3153l9,-44 24,-6 26,-37 10,-38 2,-112 15,-18 115,-5M803,1055l42,2 17,46 -19,35 -7,70h-35l-2,60 -21,-2 4,-76 -44,-65 1,-70h64l5,-228 42,7 9,28 60,45 49,58 32,17 -22,21 -34,79 -41,-24 -58,-1M1526,1937l-20,-22 -80,80 13,11 -38,39 -91,-93v-37l163,-95 53,117 89,196 66,-35 7,10 -34,33 -169,170 -12,-28 -35,-27 -15,-52 3,-28 -20,-13 27,-52 -48,-51 16,-15M738,2637l134,2 44,-4 -71,77 -53,21 -18,47 -22,27 -47,29 -17,59 -21,-2 4,-126 -64,-5 4,-125 89,7 28,-19 10,12 11,-13 -25,-65 4,-54 92,2h155l16,-20 13,18 -2,130h-86M670,985l-44,42 -6,20 -54,16 -36,42M478,957l105,-5v-12M502,2589h14l3,46 92,2M607,2762l-38,6 -130,-6 -5,133 -66,-4M1529,3224l2,-121 18,-7 10,-33h42l29,-15M2733,2065l-33,-7 -115,103M2486,1880l5,-13 90,-63M1866,837l-47,-20 -80,10 -97,-30 -21,-23 -33,-37 -20,-40 -21,-10 14,-39 36,-9 21,17 40,-27 83,-30M2123,1654l38,105 50,41M2082,2299l54,2v13l54,45 -19,-2 -32,40 3,217 -13,1 -46,-43 -8,-18 -78,-54 -94,-56v-90h54l-2,-93 36,18 50,-1 41,21 11,-123 12,-70 -15,-21 -15,-77 -29,18 -45,2 -33,-45 14,-60 -65,-41 -94,-10 48,-19 -15,-29 77,-50 -22,-29 29,-23 10,-32 15,-3 -5,-31 61,-17M2388,2169l-26,30 -80,-1 -54,-24 -28,-139M943,99l-29,23 42,48 -23,30 3,25 28,7 -7,53 -33,56 -18,32M902,361v-16l-32,-23v-32l-37,-65 -61,-33 -116,-2v-95M778,1266l3,25 -33,43h-37M647,1158l10,-11 81,-22M365,376h22l-12,32 -1,58h-13l14,45 47,7M394,729l-124,-5 -1,15 -98,-3M1042,566l15,40 -39,62h-37l-3,16 -32,70 11,15 -48,-15 -47,-28v-55M1577,455l-27,61 1,43 -11,52 -33,25 -39,-2 -36,-16 -34,30M1372,478l13,-7 115,-5 46,-43M957,769l-43,15 -7,23 -28,-6 -29,33M813,401l-14,10 -168,-3v-23v-105l10,-35 36,-33 -21,-22M387,376l11,-23 74,5 7,-13 30,20 70,-4 52,24M768,2895l159,1 -1,79 25,36 -5,173M1739,827l-41,23 -56,65 -27,49 23,35 -27,28 27,23 -38,58 17,42 -16,36 -91,84 -20,-30 -22,-5 -26,-59 -6,-41 -35,-40 -34,-72 68,-26 7,-18 95,43 47,-9 27,14M1133,857l-109,102 -24,23M1241,596l-118,120M1244,496l-30,-50 29,-38 -12,-47 -15,-21 24,-57 -6,-28 -28,-22 17,-15 31,-5 39,65 34,10 24,-16 48,23M1028,506l81,-61 105,1M1601,1186l17,17 78,2 18,11 17,54 7,56 17,15M1759,1351l-60,28 -24,44 -51,23 -20,20h-26M1445,1389l106,27 -12,52 11,18 28,-20 -10,41 12,25 -14,29 -47,-44 -124,59 -19,-67 -25,-118 67,8 27,-10 11,-51 64,-35 -10,-33M191,864l103,5 94,-2h9l-2,65M297,1604l194,3 66,4 30,16 5,10 -3,178 -130,-1 2,-19 -106,-1M1561,648l-21,-37M448,1354l-90,37 -89,28M950,1308l-30,-28h-57v-12h-64M1250,1764l31,28 -3,43 32,80M1310,1952l-20,3 -51,76M1404,2614l-23,-5 -26,-50 -50,-12v-18l6,-72h20l3,-45M1369,666l25,26 2,32 -17,48 15,7M1094,1258l9,-33 69,-49h25l5,-29 88,64 -9,188 -160,29 -5,-37M1711,2374l35,-37 80,-41 62,-28 35,6 1,-15 31,2M1950,1690l-53,-41 6,-68 -17,-22 -8,-52 -28,-9 -38,-67M1948,1325l-91,74 4,37 -49,-5 -46,-32 -7,-48 -4,-10 42,-13 33,-28 41,-12 77,37 30,-27h17l53,32M2349,1582l-58,163 17,24M1823,1872l-14,-7 1,-65 -75,-33 4,-22 -45,-18 -59,5 6,-37 88,-36 23,28 50,-20 8,10 87,-28M1183,1556l-7,-55 -55,-73M1281,1399l70,-8M985,1376l-2,183 -6,12 -43,-2 -1,-42 -86,-1 13,-33 2,-109 74,7v-15M1601,3063l-15,-70 -84,-2v-55h-12M1823,1872l9,15 -32,21 -25,79 4,29 -80,82h-18M1365,1596l108,224 162,-88M1039,2346l-39,31 8,34 -23,26 6,50M820,2507l9,-121 14,-30 -18,-24 -27,-6v-30l209,3 44,4M1951,1055l-33,8 -58,-106 -41,-140M2615,2477l-53,10 -32,-41 -41,84 -62,32 -24,-33 -91,-65 -38,-37 1,-15 -37,-26 -7,-12 37,-40 21,-40 -4,-25 39,-46 15,25 30,3v81l68,67 93,47M924,341l13,-11 60,16 31,-53 26,-18 49,15 -11,28 6,93 11,34M2031,1266l-36,32M1978,1298l-40,-20 -52,-12 -10,-41 -20,-27 -39,-111 42,-32 22,10 20,-15 17,13M988,2115l-62,-14 -2,-28 -28,-2h-24l1,-46h-23l2,-55 1,-18 34,-2 53,-82 55,7h53l51,28M623,1850l27,10 18,-17 34,4 37,-15 6,50 16,6 8,50v85l-13,47 -11,-2 -1,48v24l-59,-2 -21,-40 -23,-2 -11,-30h-17h-6M708,1359l3,27 -11,27 2,45 -15,35 4,46 11,63 -37,25h-78M491,1607l2,-228M552,2898l-118,-3M1002,2635l-1,78M997,2898l-70,-2M934,1627v-58M1888,2268l-35,-44 -9,-28v-65l-11,-30 -3,-56 -11,-20 4,-10 145,-32 -18,45v47l-26,184M1442,1176l-152,35M1202,1147l1,-52 102,-158 33,43 4,25 25,18M479,345l-14,-30h30l-27,-22h41l-4,-58 15,-43 17,-12 -12,-41 18,-45M589,1815l15,15 -17,32M985,1145l66,-85 13,-71 139,106M1443,915l-1,64M1305,937l-38,-22 -9,-23 -34,-20M388,867l2,-35 44,2 34,-93M995,1875l10,-17M2142,2614l24,-9 25,24 -3,28 10,25M2049,2792h-17l-45,-52 -2,-48 -17,-37h-38l-10,-36h-63v-65h-18v-82h64v-28M847,1526l-133,-2 -23,15M711,1386l30,-18h33l11,16h77M1406,2163l-14,-18 -47,10h-104M355,2236l16,12h50l3,25 30,11 -5,107 -30,-2M1223,218l-2,-41 32,-43 32,-4 -1,-35M454,2284l152,7h32l-2,106h22l19,65 -9,43 -61,-16 -6,16 -98,-1M1024,959l40,30M896,2071l-2,52 -150,-7M769,1938l42,14v16l41,2M613,2066l4,5 -3,135 -7,7 -1,78M798,2326l-63,-67 9,-119M702,1602l62,40 8,30 63,28 -30,19 -26,63 -18,17v34l-22,-1M1638,999l34,69 49,-13 78,38 -40,64 -38,-7 -30,38 5,17M2362,2199l-38,24M2238,2386l-48,-27M835,1700l42,22 9,20M1583,2823l7,-70 -14,-35 -26,-16 -24,-50 108,3 3,10 75,2 11,26h116M1654,2141l18,33 64,42 39,17 20,31 31,32M1503,2347l28,27 83,22 -1,76 -109,-3 -1,20 -54,-2v-18l-37,-2v-53l-78,-2 -14,-65h183l-18,-36M728,2505h-60M638,2291l90,2 7,-34M1212,2718l4,-171v-20l89,2M1206,233l-58,5 -16,-46v-33l-27,1 -36,-16 -12,-45M1819,2025l-40,-9M1216,2547l-41,-38h-49l-3,-130M1239,2342l81,5M1148,238l-27,9 -2,36 -16,7M346,247l-16,33 68,3v70M1799,1093l18,-6M1641,1695l-24,-68 -24,-1 -27,-65M2083,2572l-45,28 -26,45 -44,10M2368,2828l47,32 19,1 16,9 37,-15 11,35M2452,2624l28,38 63,41M1870,3246l3,-70 -13,-15 -57,-17 -47,2 -41,-37 -16,-40 -69,-21v-225M1813,2823h-183h-47l5,27h-76l-2,60h-20v26l-58,-3v-35l-17,-15 11,-38 -20,-27v-36l-31,-12 -31,-42 1,-25 40,-36 1,-45 18,-8 119,3 3,35M978,684l116,52 29,-20"/>
  <g class="cities">
    <circle r="3" cx="78.3" cy="98.4"/>
    <text x="78.3" y="98.4">Atlanta</text>
    <circle r="3" cx="41.1" cy="190.1"/>
    <text x="41.1" y="190.1">Columbus</text>
    <circle r="3" cx="276.3" cy="216.7"/>
    <text x="276.3" y="216.7">Savannah</text>
  </g>
</svg>