<?xml version="1.0" encoding="utf-8"?>
<!DOCTYPE svg PUBLIC "-//W3C//DTD SVG 1.1//EN" "http://www.w3.org/Graphics/SVG/1.1/DTD/svg11.dtd">
<svg version="1.1" xmlns="http://www.w3.org/2000/svg" width="300" height="350" viewBox="0 0 300 350">
  <defs>
    <pattern id="pattern-no-results" width="50" height="50" patternUnits="userSpaceOnUse">
      <rect width="50" height="50" fill="#ddd"/>
      <path d="M-5,5L5,-5M-5,55L55,-5M45,55L55,45" stroke-width="10" stroke="#666666"/>
    </pattern>
  </defs>
  <g class="counties" transform="scale(0.1)">
    <path data-fips-int="13001" data-name="Appling County" d="M2082,2299l0,-1 67,18 39,43 2,0 -2,0 -49,38 3,217 -33,-15 -26,-27 -75,-65 -105,-63 0,-90 54,0 -2,-93 36,18 54,-1Z"/>
    <path data-fips-int="13003" data-name="Atkinson County" d="M1839,2693l0,65 -43,-5 17,70 -183,0 -47,0 -7,-105 -50,-64 108,1 78,13 11,25Z"/>
    <path data-fips-int="13005" data-name="Bacon County" d="M2083,2572l-45,27 -26,46 -44,10 -38,0 -10,-36 -63,0 0,-65 -18,0 0,-82 64,0 0,-28 105,63Z"/>
    <path data-fips-int="13007" data-name="Baker County" d="M738,2639l178,-2 -71,75 -53,21 -40,75 -48,28 -16,59 -23,-2 6,-126 -64,-4 4,-124Z"/>
    <path data-fips-int="13009" data-name="Baldwin County" d="M1445,1388l106,28 -11,52 38,-2 -12,95 -9,-7 0,3 0,-3 -38,-37 -124,59 -43,-185 66,10Z"/>
    <path data-fips-int="13011" data-name="Banks County" d="M1335,463l36,13 3,98 34,45 -10,29 -30,18 -46,-47 -48,7 -33,-30 -29,-52 32,-48 46,-41Z"/>
    <path data-fips-int="13013" data-name="Barrow County" d="M1234,772l36,12 18,48 -64,42 -49,5 -42,-24 -39,-53 29,-88 29,45Z"/>
    <path data-fips-int="13015" data-name="Bartow County" d="M624,746l-47,-2 -109,-3 -73,-12 2,-81 13,-2 12,-128 151,-2 58,-10Z"/>
    <path data-fips-int="13017" data-name="Ben Hill County" d="M1503,2347l40,27 3,-2 -3,2 3,-2 68,24 -1,76 -109,-3 -1,20 -54,-2 -37,-20 0,-53 -77,-2 -15,-65Z"/>
    <path data-fips-int="13019" data-name="Berrien County" d="M1523,2617l3,37 50,64 7,105 0,5 5,20 -76,0 -2,62 -20,26 -58,-1 -3,-39 -6,-48 -15,-66 -34,-14 -27,-65 38,-35 20,-54Z"/>
    <path data-fips-int="13021" data-name="Bibb County" d="M1301,1634l12,28 -66,47 3,55 -63,-20 -2,0 -67,-32 -44,-81 109,-77 30,48 37,0Z"/>
    <path data-fips-int="13023" data-name="Bleckley County" d="M1526,1937l-20,-22 -80,80 -25,50 -91,-93 0,-37 5,-3 158,-92Z"/>
    <path data-fips-int="13025" data-name="Brantley County" d="M2388,2712l-23,118 1,-2 2,0 -2,0 -1,2 -43,50 -43,0 -14,36 -77,-20 -12,47 -32,0 -47,-52 -1,-61 -45,-15 -2,-23 58,15 47,-52 66,-5 -22,-67 64,19 83,-14Z"/>
    <path data-fips-int="13027" data-name="Brooks County" d="M1321,2931l1,4 26,53 -6,35 46,15 3,33 -54,13 -13,72 70,56 -239,-15 5,-269 100,0 0,-32Z"/>
    <path data-fips-int="13029" data-name="Bryan County" d="M2578,2123l7,38 27,43 2,0 20,20 51,82 42,2 -10,49 12,65 -64,-23 -33,-33 -38,-32 -26,-60 -60,-15 -44,-6 -31,-59 -45,-25 -39,-46 208,-65Z"/>
    <path data-fips-int="13031" data-name="Bulloch County" d="M2426,1853l4,-1 56,28 4,53 34,55 33,70 -208,65 -23,-60 -44,-25 -48,3 30,-104 -14,-14 -22,-56 -32,-17 15,-50 97,-31Z"/>
    <path data-fips-int="13033" data-name="Burke County" d="M2295,1341l51,20 3,42 36,30 99,50 -135,99 -54,-31 -58,23 -76,3 -38,77 -41,7 -61,-22 25,-73 -11,-95 33,-113 -20,-28 52,-22 47,46 73,2 38,-23Z"/>
    <path data-fips-int="13035" data-name="Butts County" d="M1057,1203l37,55 28,90 -6,45 -21,-15 -110,-2 -49,0 14,-68 41,-43 41,-12Z"/>
    <path data-fips-int="13043" data-name="Candler County" d="M2196,1850l32,17 22,56 14,14 -30,104 -34,-6 -125,-27 -15,-23 40,-58 22,-62 45,-30Z"/>
    <path data-fips-int="13045" data-name="Carroll County" d="M530,1105l-25,45 -57,53 -43,7 -168,-5 -21,-162 30,0 142,-41 9,-70 81,25 -6,148Z"/>
    <path data-fips-int="13047" data-name="Catoosa County" d="M346,248l-35,-6 2,-57 -37,0 1,-95 168,0 -50,90 0,32 -41,-2Z"/>
    <path data-fips-int="13049" data-name="Charlton County" d="M2265,2916l19,9 -3,23 11,68 -7,55 -41,38 -31,-6 -15,94 27,62 -19,145 -82,6 -24,-55 6,-36 -24,-43 15,-15 39,-155 -168,-7 3,-156 173,0 32,0 12,-47Z"/>
    <path data-fips-int="13053" data-name="Chattahoochee County" d="M623,1850l-13,28 -3,188 -161,0 22,-20 -70,-48 21,-38 2,0 61,-25 60,-5 14,-27 4,-11 3,-5 7,-17 17,-8Z"/>
    <path data-fips-int="13055" data-name="Chattooga County" d="M364,376l-47,110 -91,45 -30,58 -44,-1 -34,-217Z"/>
    <path data-fips-int="13057" data-name="Cherokee County" d="M865,531l-2,33 -1,107 -42,0 -54,80 -142,-5 7,-240 42,23Z"/>
    <path data-fips-int="13059" data-name="Clarke County" d="M1455,807l-12,40 22,28 -22,40 -28,-5 -16,-15 -40,-35 -52,-5 -19,-23 106,-53Z"/>
    <path data-fips-int="13061" data-name="Clay County" d="M419,2389l8,115 76,0 -1,85 -128,6 -11,-20 -5,-71 -41,-57 -7,-61 -1,0 1,0Z"/>
    <path data-fips-int="13063" data-name="Clayton County" d="M803,1055l42,2 17,46 -19,35 -7,70 -35,0 -2,60 -21,-2 4,-76 -44,-65 1,-70Z"/>
    <path data-fips-int="13065" data-name="Clinch County" d="M1813,2823l48,117 64,40 -2,103 37,0 11,169 -101,-8 -4,-78 -63,-22 -47,2 -41,-37 -9,-38 -76,-23 0,-225Z"/>
    <path data-fips-int="13067" data-name="Cobb County" d="M766,751l16,53 9,20 -43,43 -9,52 -69,66 -27,-43 -60,-2 -6,-196 47,2Z"/>
    <path data-fips-int="13069" data-name="Coffee County" d="M1839,2472l0,82 18,0 0,65 -18,0 0,74 -116,0 -11,-25 -78,-13 -108,-1 -3,-37 17,-2 36,-66 0,-32 37,-45 1,-76 70,-4 27,-18 0,100Z"/>
    <path data-fips-int="13071" data-name="Colquitt County" d="M1212,2718l86,2 0,3 2,85 -36,73 0,4 0,-4 0,4 -4,11 0,32 -100,0 -163,-5 0,-27 4,-183Z"/>
    <path data-fips-int="13073" data-name="Columbia County" d="M2065,1023l23,47 52,22 46,38 2,-2 -2,2 -155,136 -29,-35 -51,-99 0,-77 71,-38Z"/>
    <path data-fips-int="13075" data-name="Cook County" d="M1423,2848l6,48 3,39 -111,-4 -61,-35 4,-11 0,-4 0,4 0,-4 36,-73 -2,-85 0,-3 49,-17 27,65 34,14Z"/>
    <path data-fips-int="13077" data-name="Coweta County" d="M648,1158l-11,32 23,71 34,22 18,51 -2,24 -209,-2 -8,23 2,-23 -47,-2 -43,-144 43,-7 57,-53Z"/>
    <path data-fips-int="13079" data-name="Crawford County" d="M1074,1631l44,81 67,32 2,0 -2,0 -37,-2 -143,116 -3,-6 -38,-40 9,-30 -36,-32 -14,-3 -37,-5 48,-113Z"/>
    <path data-fips-int="13081" data-name="Crisp County" d="M1241,2219l-2,123 0,37 -116,0 -84,-33 12,-43 -23,-87Z"/>
    <path data-fips-int="13083" data-name="Dade County" d="M218,90l-42,77 -11,78 -53,101 -34,-259Z"/>
    <path data-fips-int="13085" data-name="Dawson County" d="M906,371l-2,47 52,53 72,35 14,60 -179,-2 2,-33 1,-61 -37,0 -16,-70 7,-10 19,0 63,-27Z"/>
    <path data-fips-int="13087" data-name="Decatur County" d="M665,2893l23,2 80,0 -6,277 -296,-18 9,-45 48,-43 12,-37 2,-111 15,-22Z"/>
    <path data-fips-int="13089" data-name="DeKalb County" d="M850,834l9,28 141,120 -56,100 -41,-24 -58,-1 -42,-2 5,-228Z"/>
    <path data-fips-int="13091" data-name="Dodge County" d="M1681,2098l-27,43 -169,170 0,-3 -6,-12 -47,-58 0,-4 -6,-46 0,-4 3,0 -3,0 -15,-18 -5,-3 26,-52 -47,-51 16,-15 25,-50 80,-80 20,22 89,196Z"/>
    <path data-fips-int="13093" data-name="Dooly County" d="M1239,2031l2,124 0,64 -213,-3 -1,-5 -39,-96 39,-55 71,-30Z"/>
    <path data-fips-int="13095" data-name="Dougherty County" d="M991,2487l13,18 -2,130 -86,2 -178,2 11,-17 -27,-63 5,-54 93,2 155,0Z"/>
    <path data-fips-int="13097" data-name="Douglas County" d="M670,985l-140,120 -58,0 6,-148 105,-5 0,-12 60,2Z"/>
    <path data-fips-int="13099" data-name="Early County" d="M502,2589l17,46 92,4 -4,124 -168,0 -5,132 -67,-4 -41,-63 -5,-85 42,-168 11,20Z"/>
    <path data-fips-int="13101" data-name="Echols County" d="M1870,3244l-341,-20 2,-121 28,-40 42,0 29,-15 76,23 9,38 41,37 47,-2 63,22Z"/>
    <path data-fips-int="13103" data-name="Effingham County" d="M2733,2065l-33,-7 -115,103 -7,-38 -21,-65 -33,-70 -34,-55 -4,-53 94,-76 71,34 44,55 -3,22 55,103Z"/>
    <path data-fips-int="13105" data-name="Elbert County" d="M1866,835l1,0 -1,0 -47,-16 0,-3 -80,11 -81,-28 -37,-23 -53,-79 -7,-49 57,8 40,-27 83,-30 34,98 28,20 46,67Z"/>
    <path data-fips-int="13107" data-name="Emanuel County" d="M2021,1639l61,22 41,-7 38,105 50,41 -15,50 -29,-15 -45,30 -22,62 -40,58 15,23 -74,20 -33,-45 14,-61 -69,-42 -90,-8 27,-2 6,-46 75,-49 -20,-28 39,-55 10,-36Z"/>
    <path data-fips-int="13109" data-name="Evans County" d="M2234,2041l48,-3 44,25 23,60 39,46 -26,30 -80,-1 -51,-20 -31,-143Z"/>
    <path data-fips-int="13111" data-name="Fannin County" d="M943,99l-29,25 42,46 -20,57 28,5 -7,53 -31,55 -2,0 -18,31 -4,-8 -69,-136 -61,-35 -118,-2 0,-95Z"/>
    <path data-fips-int="13113" data-name="Fayette County" d="M778,1266l-30,68 -36,0 -18,-51 -34,-22 -23,-71 11,-32 90,-33 44,65Z"/>
    <path data-fips-int="13115" data-name="Floyd County" d="M388,378l-13,32 0,101 35,2 12,5 -12,128 -13,2 -2,81 -125,-5 -1,15 -97,-3 -20,-148 44,1 30,-58 91,-45 47,-110Z"/>
    <path data-fips-int="13117" data-name="Forsyth County" d="M1042,566l3,13 6,15 -26,69 -47,23 -32,71 11,12 -95,-43 0,-55 1,-107Z"/>
    <path data-fips-int="13119" data-name="Franklin County" d="M1577,455l-27,61 -10,95 -33,25 -78,-18 -28,28 -3,2 10,-29 -34,-45 -3,-98 129,-11 46,-42Z"/>
    <path data-fips-int="13121" data-name="Fulton County" d="M862,671l0,55 95,43 -78,32 -29,33 -42,-7 -5,228 -64,0 -1,70 -90,33 -143,-8 25,-45 140,-120 69,-66 9,-52 43,-43 -9,-20 -16,-53 54,-80Z"/>
    <path data-fips-int="13123" data-name="Gilmer County" d="M902,363l-63,27 -19,0 -7,10 -45,10 -137,-2 0,-23 0,-105 46,-68 -2,0 2,0 -2,-2 0,2 0,-2 -5,-8 -16,-12 118,2 61,35Z"/>
    <path data-fips-int="13125" data-name="Glascock County" d="M1948,1325l-91,74 6,34 -51,0 -13,-9 -36,-38 -4,-33 0,-2 -4,-10 116,-53Z"/>
    <path data-fips-int="13129" data-name="Gordon County" d="M631,385l0,23 0,98 -58,10 -151,2 -12,-5 -35,-2 0,-101 13,-32 10,-27 74,7 7,-13 30,20 88,-7Z"/>
    <path data-fips-int="13131" data-name="Grady County" d="M927,2896l-1,79 25,38 -5,169 -184,-10 6,-277Z"/>
    <path data-fips-int="13133" data-name="Greene County" d="M1611,1027l27,23 -37,58 16,42 -14,36 -2,0 -91,84 -68,-94 6,-38 -46,-45 -37,-70 70,-26 7,-18 95,44 41,-13Z"/>
    <path data-fips-int="13135" data-name="Gwinnett County" d="M1123,714l-29,88 39,53 -109,104 -24,23 -141,-120 -9,-28 29,-33 78,-32 -11,-12 32,-71 116,50Z"/>
    <path data-fips-int="13137" data-name="Habersham County" d="M1399,295l9,20 -16,8 -57,140 -45,-8 -46,41 -30,-51 27,-27 2,-5 -10,-17 -17,-56 21,-80 -31,-27 17,-16 37,0 18,48 44,23 32,-18Z"/>
    <path data-fips-int="13139" data-name="Hall County" d="M1214,445l30,51 -32,48 29,52 -118,118 -29,22 -116,-50 47,-23 26,-69 -6,-15 -3,-13 -14,-60 81,-61Z"/>
    <path data-fips-int="13141" data-name="Hancock County" d="M1696,1205l59,136 4,10 0,2 -60,26 -25,47 -70,40 -26,0 -38,2 11,-52 -106,-28 11,-50 64,-35 -10,-33 91,-84 2,0 15,17Z"/>
    <path data-fips-int="13143" data-name="Haralson County" d="M397,932l-9,70 -142,41 -30,0 -27,-179 201,3Z"/>
    <path data-fips-int="13145" data-name="Harris County" d="M587,1629l2,186 -130,-1 2,-19 -106,-1 -22,-117 -36,-71 194,1 66,4Z"/>
    <path data-fips-int="13147" data-name="Hart County" d="M1741,599l-83,30 -40,27 -57,-8 -21,-37 10,-95 27,-61 27,13 63,-8 21,20 13,69Z"/>
    <path data-fips-int="13149" data-name="Heard County" d="M405,1210l43,144 -179,65 -32,-214Z"/>
    <path data-fips-int="13151" data-name="Henry County" d="M903,1058l30,57 52,30 0,3 20,20 52,35 -25,50 -41,12 -41,43 -30,-30 -121,-10 2,-60 35,0 7,-70 19,-35 -17,-46Z"/>
    <path data-fips-int="13153" data-name="Houston County" d="M1250,1764l28,16 6,27 0,36 31,69 -5,3 0,37 -16,0 -55,79 -141,-1 1,-127 30,15 0,-35 46,-18 12,-121Z"/>
    <path data-fips-int="13155" data-name="Irwin County" d="M1613,2472l-37,45 0,32 -36,66 -17,2 -118,-3 -24,-4 -27,-51 -47,-30 6,-72 22,-45 77,2 0,53 37,20 54,2 1,-20Z"/>
    <path data-fips-int="13157" data-name="Jackson County" d="M1368,666l28,58 -2,55 -106,53 -18,-48 -36,-12 -82,-13 -29,-45 118,-118 33,30 48,-7Z"/>
    <path data-fips-int="13159" data-name="Jasper County" d="M1290,1211l-7,188 -162,29 -5,-35 6,-45 -28,-90 9,-33 89,-58 10,-20Z"/>
    <path data-fips-int="13161" data-name="Jeff Davis County" d="M1955,2261l2,93 -54,0 0,90 0,28 -64,0 -128,2 0,-100 111,-80 1,0 3,2 62,-28 36,-9Z"/>
    <path data-fips-int="13163" data-name="Jefferson County" d="M2048,1330l20,28 -33,113 11,95 -25,73 -61,17 -10,36 -53,-43 6,-68 -25,-74 -28,-9 -38,-65 51,0 -6,-34 91,-74 29,-27 1,0 17,0 2,-3 1,0Z"/>
    <path data-fips-int="13165" data-name="Jenkins County" d="M2349,1582l-58,165 17,22 -97,31 -50,-41 -38,-105 38,-77 76,-3 58,-23Z"/>
    <path data-fips-int="13167" data-name="Johnson County" d="M1950,1692l-39,55 20,28 -75,49 -6,46 -27,2 -17,-10 4,-62 -75,-33 -41,-40 -59,5 6,-37 87,-38 24,30 145,-38Z"/>
    <path data-fips-int="13169" data-name="Jones County" d="M1352,1391l43,185 -30,18 -64,40 -51,-32 -37,0 -30,-48 -6,-48 -56,-78 162,-29Z"/>
    <path data-fips-int="13171" data-name="Lamar County" d="M985,1376l-2,183 -49,10 -1,-42 -86,-1 13,-35 2,-107 74,9 0,-17Z"/>
    <path data-fips-int="13173" data-name="Lanier County" d="M1630,2823l0,225 -29,15 -15,-72 -84,0 -12,-55 20,-26 2,-62 76,0 -5,-20 0,-5Z"/>
    <path data-fips-int="13175" data-name="Laurens County" d="M1775,1980l-2,3 6,33 -83,84 -15,-2 -66,35 -89,-196 -53,-117 162,-88 59,-5 41,40 75,33 -4,62 17,10Z"/>
    <path data-fips-int="13177" data-name="Lee County" d="M1051,2303l-12,43 -22,31 -32,60 6,50 -16,20 -155,0 9,-121 14,-30 -45,-30 0,-30Z"/>
    <path data-fips-int="13181" data-name="Lincoln County" d="M1866,835l1,0 158,114 40,74 -43,-6 -71,38 -33,8 -57,-103 -42,-141 0,-3 0,3Z"/>
    <path data-fips-int="13183" data-name="Long County" d="M2530,2446l-41,84 -62,32 -24,-33 -92,-58 -36,-59 -37,-26 -1,0 52,-92 -4,-25 39,-46 45,28 -8,62 76,86Z"/>
    <path data-fips-int="13185" data-name="Lowndes County" d="M1432,2935l58,1 12,55 84,0 15,72 -42,0 -28,40 -2,121 -108,-10 -17,0 -10,-2 -70,-56 13,-72 54,-13 -3,-33 -46,-15 6,-35 -26,-53 -1,-4Z"/>
    <path data-fips-int="13187" data-name="Lumpkin County" d="M1095,287l8,3 -11,30 17,125 -81,61 -72,-35 -52,-53 2,-47 18,-31 2,0 5,0 66,6 57,-71Z"/>
    <path data-fips-int="13189" data-name="McDuffie County" d="M1918,1063l33,-8 0,77 51,99 29,35 -33,29 -1,0 -2,3 -17,0 -1,0 -56,-20 -35,-12 -69,-179 5,-5Z"/>
    <path data-fips-int="13193" data-name="Macon County" d="M995,1875l53,0 51,28 -1,127 -71,30 -39,55 -62,-14 -30,-30 -24,0 1,-46 -23,0 2,-55 35,-20 46,-75Z"/>
    <path data-fips-int="13195" data-name="Madison County" d="M1561,648l7,49 53,79 -43,20 -47,-24 -76,35 -61,-28 2,-55 -28,-58 30,-18 3,-2 28,-28 78,18 33,-25Z"/>
    <path data-fips-int="13197" data-name="Marion County" d="M769,1938l0,85 -24,45 -1,48 0,24 -59,-2 -22,-40 -50,-32 -6,0 3,-188 13,-28 31,10 85,-28Z"/>
    <path data-fips-int="13199" data-name="Meriwether County" d="M710,1358l2,28 -11,25 -9,128 12,63 -39,27 -78,0 -30,-18 -66,-4 2,-228 8,-23Z"/>
    <path data-fips-int="13201" data-name="Miller County" d="M607,2763l64,4 -6,126 -113,3 -118,-1 5,-132Z"/>
    <path data-fips-int="13205" data-name="Mitchell County" d="M1002,2635l-1,78 -4,183 -70,0 -159,-1 -80,0 16,-59 48,-28 40,-75 53,-21 71,-75Z"/>
    <path data-fips-int="13207" data-name="Monroe County" d="M1116,1393l5,35 56,78 6,48 -109,77 -140,-2 0,-60 49,-10 2,-183 110,2Z"/>
    <path data-fips-int="13209" data-name="Montgomery County" d="M1924,2259l-36,9 2,-7 -36,-33 -10,-97 -25,-106 4,-10 145,-32 -18,92Z"/>
    <path data-fips-int="13211" data-name="Morgan County" d="M1321,949l44,74 37,70 46,45 -6,38 -152,35 -88,-64 1,-52 104,-158Z"/>
    <path data-fips-int="13213" data-name="Murray County" d="M654,95l0,95 16,12 5,8 0,2 0,-2 2,2 -2,0 2,0 -46,68 0,105 -34,-27 -88,7 -30,-20 -4,-58 34,6 -7,-51 24,-59 4,-26 13,-65Z"/>
    <path data-fips-int="13215" data-name="Muscogee County" d="M589,1815l-2,47 -17,8 -7,17 -3,5 -4,11 -14,27 -60,5 -61,25 -2,0 -19,-105 -45,-61 106,1 -2,19Z"/>
    <path data-fips-int="13217" data-name="Newton County" d="M1203,1095l-1,52 -10,20 -89,58 -9,33 -37,-55 -52,-35 -20,-20 0,-3 66,-85 13,-71Z"/>
    <path data-fips-int="13219" data-name="Oconee County" d="M1399,895l16,15 28,5 -1,64 -7,18 -70,26 -44,-74 -14,-12 -80,-63 -3,0 64,-42 19,23 52,5Z"/>
    <path data-fips-int="13221" data-name="Oglethorpe County" d="M1621,776l37,23 81,28 -41,23 -83,114 23,35 -27,28 -33,-17 -41,13 -95,-44 1,-64 22,-40 -22,-28 12,-40 76,-35 47,24Z"/>
    <path data-fips-int="13223" data-name="Paulding County" d="M577,744l6,196 0,12 -105,5 -81,-25 -7,-65 1,-35 43,2 34,-93Z"/>
    <path data-fips-int="13225" data-name="Peach County" d="M1099,1903l-51,-28 -53,0 10,-17 143,-116 37,2 2,0 -12,121 -46,18 0,35Z"/>
    <path data-fips-int="13227" data-name="Pickens County" d="M768,410l45,-10 16,70 37,0 -1,61 -192,-2 -42,-23 0,-98Z"/>
    <path data-fips-int="13229" data-name="Pierce County" d="M2109,2599l33,15 42,3 4,40 10,26 22,67 -66,5 -47,52 -58,-15 -62,-54 -19,-83 44,-10 26,-46 45,-27Z"/>
    <path data-fips-int="13231" data-name="Pike County" d="M862,1384l-2,107 -13,35 -132,-4 -23,17 9,-128 11,-25 29,-17 44,15Z"/>
    <path data-fips-int="13233" data-name="Polk County" d="M395,729l73,12 -34,93 -43,-2 -1,35 -201,-3 -17,-128 97,3 1,-15Z"/>
    <path data-fips-int="13235" data-name="Pulaski County" d="M1310,1952l91,93 -16,15 47,51 -26,52 -11,0 -154,-8 -2,-124 55,-79Z"/>
    <path data-fips-int="13237" data-name="Putnam County" d="M1510,1270l10,33 -64,35 -11,50 -27,13 -66,-10 -69,8 7,-188 152,-35Z"/>
    <path data-fips-int="13239" data-name="Quitman County" d="M454,2284l-5,107 -30,-2 -109,-3 -1,0 0,-44 46,-106 66,12Z"/>
    <path data-fips-int="13241" data-name="Rabun County" d="M1399,295l-45,-25 -32,18 -44,-23 -18,-48 -37,0 -2,-40 32,-42 31,-5 0,-35 262,-5 -22,55 -61,32 -14,41 -34,24Z"/>
    <path data-fips-int="13243" data-name="Randolph County" d="M606,2291l34,0 -4,106 21,0 20,69 -9,39 -61,-16 -6,16 -98,-1 -76,0 -8,-115 30,2 5,-107Z"/>
    <path data-fips-int="13245" data-name="Richmond County" d="M2295,1341l-37,-8 -38,23 -73,-2 -47,-46 -52,22 -50,-35 -1,0 -2,3 2,-3 1,0 33,-29 155,-136 2,-2 70,77 -14,68 41,20Z"/>
    <path data-fips-int="13247" data-name="Rockdale County" d="M985,1145l-52,-30 -30,-57 41,24 56,-100 24,-23 40,30 -13,71Z"/>
    <path data-fips-int="13249" data-name="Schley County" d="M852,1970l-2,55 23,0 -1,46 24,0 -2,52 -150,-7 1,-48 24,-45 0,-85Z"/>
    <path data-fips-int="13251" data-name="Screven County" d="M2580,1804l-94,76 -56,-28 -4,1 -118,-84 -17,-22 58,-165 135,-99 30,28 -6,51 29,62 21,8 -1,97Z"/>
    <path data-fips-int="13253" data-name="Seminole County" d="M552,2896l-15,22 -2,111 -12,37 -48,43 -9,45 -39,-46 -2,-79 -44,-69 -14,-69 67,4Z"/>
    <path data-fips-int="13255" data-name="Spalding County" d="M950,1308l-14,68 0,17 -74,-9 -77,0 -44,-15 -29,17 -2,-28 2,-24 36,0 30,-68 21,2 121,10Z"/>
    <path data-fips-int="13257" data-name="Stephens County" d="M1546,423l-46,42 -129,11 -36,-13 57,-140 16,-8Z"/>
    <path data-fips-int="13259" data-name="Stewart County" d="M613,2066l1,140 -8,85 -152,-7 -33,-36 -66,-12 13,-71 -8,-30 52,-57 34,-12 161,0Z"/>
    <path data-fips-int="13261" data-name="Sumter County" d="M988,2115l39,96 1,5 23,87 -253,-7 0,30 -63,-67 9,-119 0,-24 150,7 2,-52 30,30Z"/>
    <path data-fips-int="13263" data-name="Talbot County" d="M835,1700l-30,19 -44,114 -22,-1 -85,28 -31,-10 -36,12 2,-47 -2,-186 78,0 39,-27 30,40 28,0 17,37Z"/>
    <path data-fips-int="13265" data-name="Taliaferro County" d="M1755,1080l21,3 23,10 -40,64 -38,-7 -25,55 -78,-2 -15,-17 -2,0 2,0 14,-36 -16,-42 37,-58 -27,-23 27,-28 34,69 43,-15Z"/>
    <path data-fips-int="13267" data-name="Tattnall County" d="M2200,2035l31,143 51,20 80,1 -38,24 -39,46 4,25 -52,92 1,0 -1,0 -47,-27 -2,0 -39,-43 -67,-18 0,1 0,-1 23,-192 -20,-51 -3,-7 -6,-28 -1,-12Z"/>
    <path data-fips-int="13269" data-name="Taylor County" d="M886,1742l37,5 14,3 36,32 -9,30 38,40 3,6 -10,17 -62,0 -46,75 -35,20 -83,-32 -30,-106 22,1 44,-114 30,-19Z"/>
    <path data-fips-int="13271" data-name="Telfair County" d="M1795,2263l27,31 1,0 3,2 -3,-2 -1,0 -111,80 -27,18 -70,4 -68,-24 -3,2 3,-2 -3,2 -40,-27 -13,-24 -5,-12 169,-170 44,53 77,39Z"/>
    <path data-fips-int="13273" data-name="Terrell County" d="M798,2326l45,30 -14,30 -9,121 -93,-2 -59,0 9,-39 -20,-69 -21,0 4,-106 87,2 8,-34Z"/>
    <path data-fips-int="13275" data-name="Thomas County" d="M997,2896l0,27 163,5 -5,269 -209,-15 5,-169 -25,-38 1,-79Z"/>
    <path data-fips-int="13277" data-name="Tift County" d="M1307,2529l47,30 27,51 24,4 -20,54 -38,35 -49,17 -86,-2 4,-171 0,-20Z"/>
    <path data-fips-int="13279" data-name="Toombs County" d="M2075,2008l1,12 6,28 3,7 20,51 -23,192 0,1 -37,-21 -54,1 -36,-18 -31,-2 26,-184 18,-92 33,45Z"/>
    <path data-fips-int="13281" data-name="Towns County" d="M1284,95l0,35 -31,5 -32,42 2,40 -17,16 -58,5 -16,-81 -63,-13 -12,-45Z"/>
    <path data-fips-int="13283" data-name="Treutlen County" d="M1968,1983l-145,32 -4,10 -2,-2 -7,5 -31,-12 -6,-33 2,-3 48,-108 90,8 69,42Z"/>
    <path data-fips-int="13285" data-name="Troup County" d="M493,1379l-2,228 -194,-1 -28,-187 179,-65 47,2Z"/>
    <path data-fips-int="13287" data-name="Turner County" d="M1320,2347l15,65 -22,45 -6,72 -91,-2 0,20 -41,-38 -49,0 -3,-130 116,0 0,-37Z"/>
    <path data-fips-int="13289" data-name="Twiggs County" d="M1473,1820l-158,92 -5,3 5,-3 -31,-69 0,-36 -6,-27 -28,-16 -3,-55 66,-47 -12,-28 64,-40Z"/>
    <path data-fips-int="13291" data-name="Union County" d="M1057,99l12,45 63,13 16,81 -45,52 -8,-3 -41,-12 -57,71 -66,-6 -5,0 -2,0 2,0 31,-55 7,-53 -28,-5 20,-57 -42,-46 29,-25Z"/>
    <path data-fips-int="13293" data-name="Upson County" d="M847,1526l86,1 1,42 0,60 -48,113 -51,-42 -56,-21 -17,-37 -28,0 -30,-40 -12,-63 23,-17Z"/>
    <path data-fips-int="13295" data-name="Walker County" d="M346,248l-15,34 67,1 0,68 -10,27 -24,-2 -246,-5 -6,-25 53,-101 11,-78 42,-77 59,0 -1,95 37,0 -2,57Z"/>
    <path data-fips-int="13297" data-name="Walton County" d="M1175,879l49,-5 3,0 80,63 -104,158 -139,-106 -40,-30 109,-104Z"/>
    <path data-fips-int="13299" data-name="Ware County" d="M1968,2655l19,83 62,54 2,23 45,15 1,61 47,52 -173,0 -3,156 168,7 -39,155 -126,-9 -11,-169 -37,0 2,-103 -64,-40 -48,-117 -17,-70 43,5 0,-65 0,-74 18,0 63,0 10,36Z"/>
    <path data-fips-int="13301" data-name="Warren County" d="M1817,1087l69,179 35,12 56,20 1,0 -1,0 -29,27 -77,-37 -116,53 -59,-136 25,-55 38,7 40,-64Z"/>
    <path data-fips-int="13303" data-name="Washington County" d="M1759,1353l0,-2 0,2 4,33 36,38 13,9 38,65 28,9 25,74 -6,68 -145,38 -24,-30 -87,38 -1,0 1,0 -1,0 -10,-41 -37,-28 -27,-65 12,-95 26,0 70,-40 25,-47Z"/>
    <path data-fips-int="13305" data-name="Wayne County" d="M2188,2359l2,0 47,27 1,0 37,26 36,59 92,58 24,33 25,62 -64,88 -43,-24 -83,14 -64,-19 -10,-26 -4,-40 -42,-3 -3,-217Z"/>
    <path data-fips-int="13307" data-name="Webster County" d="M744,2140l-9,119 -8,34 -87,-2 -34,0 8,-85 -1,-140 50,32 22,40Z"/>
    <path data-fips-int="13309" data-name="Wheeler County" d="M1810,2028l7,-5 2,2 25,106 10,97 36,33 -2,7 -62,28 -3,-2 -1,0 -27,-31 -20,-30 -77,-39 -44,-53 27,-43 15,2 83,-84Z"/>
    <path data-fips-int="13311" data-name="White County" d="M1206,233l31,27 -21,80 17,56 10,17 -2,5 -27,27 -105,0 -17,-125 11,-30 45,-52Z"/>
    <path data-fips-int="13313" data-name="Whitfield County" d="M543,92l-13,65 -4,26 -24,59 7,51 -34,-6 4,58 -7,13 -74,-7 0,-68 -67,-1 15,-34 8,-38 41,2 0,-32 50,-90Z"/>
    <path data-fips-int="13315" data-name="Wilcox County" d="M1395,2163l11,0 5,3 15,18 3,0 -3,0 0,4 6,46 0,4 47,58 6,12 0,3 5,12 13,24 -183,0 -81,-5 2,-123 0,-64Z"/>
    <path data-fips-int="13317" data-name="Wilkes County" d="M1819,816l0,3 42,141 57,103 -96,19 -5,5 -18,6 -23,-10 -21,-3 -40,-27 -43,15 -34,-69 -23,-35 83,-114 41,-23Z"/>
    <path data-fips-int="13319" data-name="Wilkinson County" d="M1557,1554l0,3 0,-3 9,7 27,65 37,28 10,41 1,0 -1,0 1,0 -6,37 -162,88 -108,-226 30,-18 124,-59Z"/>
    <path data-fips-int="13321" data-name="Worth County" d="M1039,2346l84,33 3,130 49,0 41,38 -4,171 -211,-5 1,-78 2,-130 -13,-18 -6,-50 32,-60Z"/>
    <path data-fips-int="13039" data-name="Camden County" d="M2589,2991l-29,137 -12,-77 -21,-20ZM2498,2890l49,38 1,0 0,3 -1,4 0,5 -17,25 37,18 -33,30 -1,56 2,70 -42,5 -98,-15 -110,-58 7,-55 -11,-68 3,-23 -19,-9 14,-36 43,0 43,-50 1,-2 2,0 82,42 37,-15Z"/>
    <path data-fips-int="13051" data-name="Chatham County" d="M2752,2334l52,20 -57,72 -30,-52ZM2826,2179l7,2 4,2 1,6 2,2 17,13 4,9 -21,55 -47,-64 3,-3 10,-12 1,-10 3,-1 0,-2 4,-3ZM2814,2173l-4,3 0,2 -3,1 -1,10 -10,12 -3,3 23,50 47,39 -30,33 -80,-22 -20,-31 -48,33 -51,-82 -20,-20 -2,0 -27,-43 115,-103 33,7 20,35 -1,45Z"/>
    <path data-fips-int="13127" data-name="Glynn County" d="M2631,2723l4,0 34,12 -11,55 -41,48 -30,-16 -15,-20 29,-82ZM2538,2703l5,0 1,0 18,7 5,-3 22,46 -18,40 -9,9 -4,3 -1,5 -3,8 -1,47 -22,-25 -21,13 57,27 5,6 2,4 0,1 1,4 -4,25 -73,-30 -11,-35 -37,15 -82,-42 -2,0 -1,2 23,-118 64,-88 28,38Z"/>
    <path data-fips-int="13179" data-name="Liberty County" d="M2712,2476l34,-24 4,40 -27,53ZM2692,2417l6,42 -81,18 -53,10 -34,-41 -93,-47 -76,-86 8,-62 -45,-28 38,-24 26,-30 45,25 31,59 44,6 60,15 26,60 38,32Z"/>
    <path data-fips-int="13191" data-name="McIntosh County" d="M2710,2559l13,13 -60,101 -31,-69ZM2617,2477l51,2 42,48 -37,23 -41,64 -6,71 33,28 -97,-10 -7,-1 3,-4 -1,-5 -12,5 -2,4 0,1 -5,0 -58,-41 -28,-38 -25,-62 62,-32 41,-84 34,41Z"/>
    <path data-fips-int="13037" data-name="Calhoun County" d="M668,2505l59,0 -5,54 27,63 -11,17 -127,0 -92,-4 -17,-46 1,-85 98,1 6,-16Z"/>
  </g>
  <g class="cities">
    <circle r="3" cx="78.3" cy="98.4"/>
    <text x="78.3" y="98.4">Atlanta</text>
    <circle r="3" cx="41.1" cy="190.1"/>
    <text x="41.1" y="190.1">Columbus</text>
    <circle r="3" cx="276.3" cy="216.7"/>
    <text x="276.3" y="216.7">Savannah</text>
  </g>
</svg>