<?xml version="1.0" encoding="utf-8"?>
<!DOCTYPE svg PUBLIC "-//W3C//DTD SVG 1.1//EN" "http://www.w3.org/Graphics/SVG/1.1/DTD/svg11.dtd">
<svg version="1.1" xmlns="http://www.w3.org/2000/svg" width="300" height="350" viewBox="0 0 300 350">
  <path class="state" transform="scale(0.1)" d="M1995,1298l2,-3 -2,NaN -169,NaN -3,NaN 768,NaN -24,70 -7,47 -12,-77 -21,-20 50,-43 12,NaN 215,NaN -13,30 -44,42 -30,-52 35,NaN -12,NaN 27,39 -32,-2 -19,NaN 165,NaN 4,-2 24,12 -22,20 -17,5 4,-32 -13,-18 -4,-9 -17,-13 -2,-2 -1,-6 -4,-2 75,38 -23,NaN -250,NaN 34,12 -11,55 -41,48 -33,8 3,-24 -15,-20 17,-34 12,-48 30,NaN 78,NaN -40,-24h43l34,-24 4,40 -27,53 -11,NaN -145,NaN 31,36 -9,10 -18,40 -9,9 -4,3 -1,5 -3,8 17,30 -18,17 -22,-25 -21,-27v40l57,27 5,6 2,4 -2,-4 -5,-6 20,-20 2,41 -9,34 -5,-40 -1,-4 1,4 -4,25 -73,-30 49,38h1h-1v12v-5l1,-4 -1,4v5l-17,25 37,18 -33,30 -8,23 19,20 -12,13 2,70 -42,5 -98,-15 -49,-30 -38,-1 -23,-27 -28,3 -13,35 -31,-6 -10,28 -5,66 27,62 -5,68 -13,25 -1,52 -82,6 -24,-55 6,-36 -24,-43 15,-15 -126,-9 -101,-8 -341,-20 -108,-10h-17l-10,-2 -239,-15 -209,-15 -184,-10 -296,-18 -39,-46 -2,-79 -44,-69 6,-24 -20,-45 -23,-55 -18,-8 -5,-85 17,-25 -4,-33 17,-48 -4,-27 16,-35 -5,-71 -41,-57 -7,-61h-1v-44l18,-49 21,-20 7,-37 13,-71 -8,-30 52,-57 34,-12 22,-20 -27,-30 -43,-18 21,-38 6,-33 -18,-20 -7,-52 -45,-61 -2,-37 -16,-22 -4,-58 -24,-28 4,-33 -16,-10 -28,-187 -32,-214 -21,-162 -27,-179 -17,-128 -20,-148 -34,-217 -6,-25 -34,-259 140,3h59h168l98,2 111,3 289,4h114l186,1 41,-5 262,-5 -22,55 -37,30 -24,2 -14,41 -34,24 -16,53 9,20 68,56 31,12 39,40 31,32 27,13 63,-8 21,20 13,69 24,10 16,40 18,27 16,71 28,20 11,30 35,37 17,51h1l20,9 63,55 22,8 53,42 37,53 3,21 23,47 34,27 18,-5 46,38 2,-2 33,45 37,32 -18,46 4,22 41,20 10,48 29,25 22,-5 3,42 36,30 99,50 30,28 -6,51 29,62 21,8 -5,48h12l-8,49 21,31 -16,20 18,24 71,34 44,55 -3,22 55,103 -21,32 7,15 20,35 -1,45 21,23 41,5 -4,3 4,-3 12,6 7,2 4,2 1,6 2,2 17,13 4,9 2,36 -23,19 -17,-14 4,-25 -34,-25 3,-3 10,-12 1,-10 3,-1 -3,1 -1,10 -10,12 -3,3 28,20 -5,30 47,39 -30,33 -80,-22 -20,-31 -35,10 -13,23 42,2 12,24 -22,25 12,65 -64,-23v-18l-33,-15 27,11v22l33,18 20,19 -14,23 -39,-3 -6,18 -36,3 51,2 27,15 15,33 -37,23h-52l31,19 19,-5 -39,50 7,36 -13,35 30,-3 3,31 -97,-10 -7,-1 7,1 3,2 -3,NaN -18,NaN -1,-1 2,-4 12,-5 1,5 -1,-5 -12,5 -2,4vNaNl180,NaN -60,101 -31,-69 78,-45Z"/>
  <g class="counties" transform="scale(0.1)">
    <path data-fips-int="13001" data-name="Appling County" d="M2082,2299v-1l67,18 39,43 -22,3 -27,35 3,217 -33,-15 -26,-27 -8,-18 -42,-20 -25,-27 -105,-63v-90h54l-2,-93 36,18 54,-1Z"/>
    <path data-fips-int="13003" data-name="Atkinson County" d="M1839,2693v65l-43,-5 -1,42 18,28h-183h-47l5,-55 -12,-50 -26,-16 -24,-48 108,1 3,12 75,1 11,25Z"/>
    <path data-fips-int="13005" data-name="Bacon County" d="M2083,2572l-45,27 -26,46 -44,10h-38l-10,-36h-63v-65h-18v-82h64v-28l105,63 25,27 42,20Z"/>
    <path data-fips-int="13007" data-name="Baker County" d="M738,2639l134,1 44,-3 -71,75 -53,21 -17,47 -23,28 -48,28 -16,59 -23,-2 6,-126 -64,-4 4,-124 90,5 26,-19Z"/>
    <path data-fips-int="13009" data-name="Baldwin County" d="M1445,1388l106,28 -11,52 10,20 28,-22 -10,41 12,27 -14,27 -9,-7v3v-3l-38,-37 -124,59 -19,-67 -24,-118 66,10Z"/>
    <path data-fips-int="13011" data-name="Banks County" d="M1335,463l36,13 10,24 -7,74 34,45 -10,29 -30,18 -46,-47 -48,7 -33,-30 -29,-52 32,-48 46,-41Z"/>
    <path data-fips-int="13013" data-name="Barrow County" d="M1234,772l36,12 18,48 -64,42 -18,-9 -31,14 -42,-24 -39,-53 29,-88 29,45Z"/>
    <path data-fips-int="13015" data-name="Bartow County" d="M624,746l-47,-2 -109,-3 -74,-2 1,-10 2,-81 13,-2 2,-97 10,-31 151,-2 58,-10Z"/>
    <path data-fips-int="13017" data-name="Ben Hill County" d="M1503,2347l40,27 3,-2 -3,2 3,-2 47,25 21,-1 -1,76 -109,-3 -1,20 -54,-2v-18l-37,-2v-53l-77,-2 -15,-65Z"/>
    <path data-fips-int="13019" data-name="Berrien County" d="M1523,2617l3,37 24,48 26,16 12,50 -5,55v5l5,20h-76l-2,62h-20v26l-58,-1 -3,-39 -14,-15 8,-33 -15,-31v-35l-34,-14 -32,-45 5,-20 38,-35 1,-46 19,-8Z"/>
    <path data-fips-int="13021" data-name="Bibb County" d="M1301,1634l12,28 -52,48 -14,-1 3,55 -63,-20h-2l-67,-32 -46,-63 2,-18 109,-77 30,48h37Z"/>
    <path data-fips-int="13023" data-name="Bleckley County" d="M1526,1937l-20,-22 -80,80 12,11 -37,39 -91,-93v-37l5,-3 158,-92Z"/>
    <path data-fips-int="13025" data-name="Brantley County" d="M2388,2712l-23,118 1,-2 -1,2 -43,50h-43l-14,36 -77,-20 -12,47h-32l-47,-52 -1,-61 -45,-15 -2,-23 58,15 47,-52 66,-5 -22,-67 64,19 83,-14Z"/>
    <path data-fips-int="13027" data-name="Brooks County" d="M1321,2931l1,4 26,53 -6,35 46,15 3,33 -54,13 -3,34 -21,15 11,23 70,56 -239,-15 5,-269h100v-32l14,17Z"/>
    <path data-fips-int="13029" data-name="Bryan County" d="M2578,2123l7,38 27,43h2l20,20 17,45 34,37 42,2 12,24 -22,25 12,65 -64,-23v-18l-33,-15 -38,-32 -26,-60 -28,-23 -32,8 -44,-6 -31,-59 -45,-25 -25,-11 -14,-35 94,-27 114,-38Z"/>
    <path data-fips-int="13031" data-name="Bulloch County" d="M2426,1853l4,-1 56,28 14,32 -10,21 34,55 14,7 19,63 -114,38 -94,27 -23,-60 -44,-25 -48,3 30,-104 -14,-14 -22,-28v-28l-32,-17 15,-50 97,-31h20l20,30Z"/>
    <path data-fips-int="13033" data-name="Burke County" d="M2295,1341l29,25 22,-5 3,42 36,30 99,50 -135,99 -54,-31 -58,23 -76,3 -24,24 -14,53 -41,7 -61,-22 25,-73 -11,-95 10,-52 23,-61 -20,-28 52,-22 27,15 20,31 22,-8 51,10 38,-23Z"/>
    <path data-fips-int="13035" data-name="Butts County" d="M1057,1203l37,55 28,90 -6,45 -21,-15 -110,-2h-49l14,-68 24,-8 17,-35 41,-12 -4,-23Z"/>
    <path data-fips-int="13043" data-name="Candler County" d="M2196,1850l32,17v28l22,28 14,14 -30,104 -34,-6 -125,-27 -15,-23 40,-58 22,-62 45,-30Z"/>
    <path data-fips-int="13045" data-name="Carroll County" d="M530,1105l-25,45 -57,53 -20,-15 -23,22 -168,-5 -21,-162h30l95,-31 47,-10 9,-70 81,25 -6,148Z"/>
    <path data-fips-int="13047" data-name="Catoosa County" d="M346,248l-35,-6 2,-57h-37l1,-95h168l-27,62 -23,28v32l-41,-2Z"/>
    <path data-fips-int="13049" data-name="Charlton County" d="M2265,2916l19,9 -3,23 11,68 -7,55 -28,3 -13,35 -31,-6 -10,28 -5,66 27,62 -5,68 -13,25 -1,52 -82,6 -24,-55 6,-36 -24,-43 15,-15 39,-155 -19,-5 -149,-2 3,-156h173h32l12,-47Z"/>
    <path data-fips-int="13053" data-name="Chattahoochee County" d="M623,1850l-13,28 -3,188h-161l22,-20 -27,-30 -43,-18 21,-38h2l61,-25 60,-5 14,-27 4,-11 3,-5 7,-17 17,-8Z"/>
    <path data-fips-int="13055" data-name="Chattooga County" d="M364,376l-47,110 -91,45 -30,58 -44,-1 -34,-217Z"/>
    <path data-fips-int="13057" data-name="Cherokee County" d="M865,531l-2,33 -1,107h-42l-18,15 -1,28 -33,12 -2,25 -142,-5 7,-240h42v23Z"/>
    <path data-fips-int="13059" data-name="Clarke County" d="M1455,807l-12,40 22,28 -22,40 -28,-5 -16,-15 -40,-35 -52,-5 -19,-23 106,-53Z"/>
    <path data-fips-int="13061" data-name="Clay County" d="M419,2389l8,115h76l-1,85 -75,-2 -53,8 -11,-20 -5,-71 -41,-57 -7,-61 68,8Z"/>
    <path data-fips-int="13063" data-name="Clayton County" d="M803,1055l42,2 17,46 -19,35 -7,70h-35l-2,60 -21,-2 -7,-48 11,-28 -21,-25 -10,-40h-13l1,-70Z"/>
    <path data-fips-int="13065" data-name="Clinch County" d="M1813,2823l48,117 46,40h18l-2,103h37l4,146 7,23 -101,-8 -4,-78 -63,-22 -47,2 -41,-37 -9,-38 -76,-23v-225Z"/>
    <path data-fips-int="13067" data-name="Cobb County" d="M766,751l16,53 9,20 -43,43 -9,52 -69,66 -27,-43 -60,-2 1,-101h-8l1,-95 47,2Z"/>
    <path data-fips-int="13069" data-name="Coffee County" d="M1839,2472v82h18v65h-18v74h-116l-11,-25 -75,-1 -3,-12 -108,-1 -3,-37 17,-2 36,-66v-32l27,-17 10,-28 1,-76 70,-4 27,-18v100Z"/>
    <path data-fips-int="13071" data-name="Colquitt County" d="M1212,2718l86,2v3l2,85 -22,19 -14,54v4v-4v4l-4,11v32h-100l-163,-5v-27l4,-183Z"/>
    <path data-fips-int="13073" data-name="Columbia County" d="M2065,1023l23,47 34,27 18,-5 46,38 2,-2 -2,2 -155,136 -29,-35 -51,-99 7,-32 -18,-30 11,-15 71,-38Z"/>
    <path data-fips-int="13075" data-name="Cook County" d="M1423,2848l-8,33 14,15 3,39 -111,-4 -47,-18 -14,-17 4,-11v-4v4v-4l14,-54 22,-19 -2,-85v-3l32,2 17,-19 -5,20 32,45 34,14v35Z"/>
    <path data-fips-int="13077" data-name="Coweta County" d="M648,1158l-11,32 23,71 34,22 18,51 -2,24 -209,-2 -8,23 2,-23 -47,-2 -43,-144 23,-22 20,15 57,-53 135,2Z"/>
    <path data-fips-int="13079" data-name="Crawford County" d="M1074,1631l-2,18 46,63 67,32h2h-2l-37,-2 -143,116 -3,-6 -38,-40 9,-30 -36,-32 -14,-3 -37,-5 33,-78 15,-2v-33Z"/>
    <path data-fips-int="13081" data-name="Crisp County" d="M1241,2219l-2,123v37h-116l-32,-23 -52,-10 12,-43 -23,-87Z"/>
    <path data-fips-int="13083" data-name="Dade County" d="M218,90l-42,77 -11,78 -24,48v20l-29,33 -34,-259Z"/>
    <path data-fips-int="13085" data-name="Dawson County" d="M906,371l-2,47 52,53 72,35 -3,27 17,33 -179,-2 2,-33 1,-61h-37l-16,-70 7,-10h19l28,6v-20l35,-13Z"/>
    <path data-fips-int="13087" data-name="Decatur County" d="M665,2893l23,2h80v109l-6,168 -296,-18 9,-45 38,-18 10,-25 12,-37 2,-111 15,-22Z"/>
    <path data-fips-int="13089" data-name="DeKalb County" d="M850,834l9,28 60,45 49,58 32,17 -22,21 -34,79 -41,-24 -58,-1 -42,-2 5,-228Z"/>
    <path data-fips-int="13091" data-name="Dodge County" d="M1681,2098l7,10 -34,33 -169,170v-3l-6,-12 -27,-22 -20,-36v-4l-6,-46v-4l-15,-18 -5,-3 26,-52 -47,-51 16,-15 37,-39 -12,-11 80,-80 20,22 89,196Z"/>
    <path data-fips-int="13093" data-name="Dooly County" d="M1239,2031h5l-3,124v64l-213,-3 -1,-5 -10,-45 -19,-13 -10,-38 39,-55 71,-30Z"/>
    <path data-fips-int="13095" data-name="Dougherty County" d="M991,2487l13,18 -2,130 -86,2 -44,3 -134,-1 11,-17 -27,-63 5,-54 93,2h155Z"/>
    <path data-fips-int="13097" data-name="Douglas County" d="M670,985l-44,42 -6,20 -30,6 -60,52h-58l6,-148 105,-5v-12l60,2Z"/>
    <path data-fips-int="13099" data-name="Early County" d="M502,2589h14l3,46 92,4 -4,124 -31,5 -137,-5 -5,132 -67,-4 -23,-55 -18,-8 -5,-85 17,-25 -4,-33 17,-48 -4,-27 16,-35 11,20 53,-8Z"/>
    <path data-fips-int="13101" data-name="Echols County" d="M1870,3244l-341,-20 2,-121 18,-7 10,-33h42l29,-15 76,23 9,38 41,37 47,-2 63,22Z"/>
    <path data-fips-int="13103" data-name="Effingham County" d="M2733,2065l-33,-7 -115,103 -7,-38 -21,-65 -19,-63 -14,-7 -34,-55 10,-21 -14,-32 5,-13 89,-63 71,34 44,55 -3,22 55,103 -21,32Z"/>
    <path data-fips-int="13105" data-name="Elbert County" d="M1866,835l-47,-16v-3l-80,11 -81,-28 -37,-23 -33,-39 -20,-40 -21,-10 14,-39 36,-9 21,17 40,-27 83,-30 18,27 16,71 28,20 11,30 35,37Z"/>
    <path data-fips-int="13107" data-name="Emanuel County" d="M2021,1639l61,22 41,-7 38,105 50,41 -15,50 -29,-15 -45,30 -22,62 -40,58 15,23 -29,18 -45,2 -33,-45 14,-61 -69,-42 -90,-8 27,-2 23,-13 -17,-33 75,-49 -20,-28 29,-27 10,-28 21,-12 -11,-24Z"/>
    <path data-fips-int="13109" data-name="Evans County" d="M2234,2041l48,-3 44,25 23,60 14,35 25,11 -26,30 -80,-1 -51,-20 -31,-143Z"/>
    <path data-fips-int="13111" data-name="Fannin County" d="M943,99l-29,25 42,46 -23,30 3,27 28,5 -7,53 -31,55h-2l-18,31 -4,-8 -32,-43v-30l-37,-63 -61,-35 -118,-2v-95Z"/>
    <path data-fips-int="13113" data-name="Fayette County" d="M778,1266l3,25 -33,43h-36l-18,-51 -34,-22 -23,-71 11,-32 9,-11 81,-22h13l10,40 21,25 -11,28Z"/>
    <path data-fips-int="13115" data-name="Floyd County" d="M388,378l-13,32 -1,55h-14l15,46 35,2 12,5 -10,31 -2,97 -13,2 -2,81 -125,-5 -1,15 -97,-3 -20,-148 44,1 30,-58 91,-45 47,-110Z"/>
    <path data-fips-int="13117" data-name="Forsyth County" d="M1042,566l3,13 6,15 -4,39 -22,30 -44,6 -3,17 -8,3 -24,68 11,12 -48,-13 -47,-30v-55l1,-107Z"/>
    <path data-fips-int="13119" data-name="Franklin County" d="M1577,455l-27,61 1,43 -11,52 -33,25 -39,-2 -39,-16 -28,28 -3,2 10,-29 -34,-45 7,-74 -10,-24 14,-5 115,-6 46,-42Z"/>
    <path data-fips-int="13121" data-name="Fulton County" d="M862,671v55l47,30 48,13 -43,15 -7,23 -28,-6 -29,33 -42,-7 -5,228h-64l-1,70 -81,22 -9,11 -8,-6 -135,-2 25,-45 60,-52 30,-6 6,-20 44,-42 69,-66 9,-52 43,-43 -9,-20 -16,-53 2,-25 33,-12 1,-28 18,-15Z"/>
    <path data-fips-int="13123" data-name="Gilmer County" d="M902,363l-35,13v20l-28,-6h-19l-7,10 -45,10 -137,-2v-23v-105l12,-37 34,-31 -2,-2 -5,-8 -16,-12 118,2 61,35 37,63v30Z"/>
    <path data-fips-int="13125" data-name="Glascock County" d="M1948,1325l-91,74 6,34h-51l-13,-9 -36,-38 -4,-33v-2l-4,-10 50,-16 25,-24 41,-13Z"/>
    <path data-fips-int="13129" data-name="Gordon County" d="M631,385v23v98l-58,10 -151,2 -12,-5 -35,-2 -15,-46h14l1,-55 13,-32 10,-27 74,7 7,-13 30,20 88,-7Z"/>
    <path data-fips-int="13131" data-name="Grady County" d="M927,2896l-1,79 25,38 -5,169 -184,-10 6,-168v-109Z"/>
    <path data-fips-int="13133" data-name="Greene County" d="M1611,1027l27,23 -37,58 16,42 -14,36h-2l-91,84 -28,-25 -40,-69 6,-38 -46,-45 -37,-70 70,-26 7,-18 95,44 41,-13Z"/>
    <path data-fips-int="13135" data-name="Gwinnett County" d="M1123,714l-29,88 39,53 -109,104 -24,23 -32,-17 -49,-58 -60,-45 -9,-28 29,-33 28,6 7,-23 43,-15 -11,-12 24,-68 8,-3 116,50Z"/>
    <path data-fips-int="13137" data-name="Habersham County" d="M1399,295l9,20 -16,8 -57,140 -45,-8 -46,41 -30,-51 27,-27 2,-5 -10,-17 -17,-56 11,-12 10,-68 -31,-27 17,-16h37l18,48 44,23 32,-18Z"/>
    <path data-fips-int="13139" data-name="Hall County" d="M1214,445l30,51 -32,48 29,52 -118,118 -29,22 -116,-50 3,-17 44,-6 22,-30 4,-39 -6,-15 -3,-13 -17,-33 3,-27 81,-61Z"/>
    <path data-fips-int="13141" data-name="Hancock County" d="M1696,1205l35,65 7,53 17,18 4,10v2l-17,-2 -43,28 -25,47 -70,40h-26l-28,22 -10,-20 11,-52 -106,-28 11,-50 64,-35 -10,-33 91,-84h2l15,17Z"/>
    <path data-fips-int="13143" data-name="Haralson County" d="M397,932l-9,70 -47,10 -95,31h-30l-27,-179 105,3h96h8Z"/>
    <path data-fips-int="13145" data-name="Harris County" d="M587,1629l5,8 -3,178 -130,-1 2,-19 -106,-1 -2,-37 -16,-22 -4,-58 -24,-28 4,-33 -16,-10 194,1 66,4Z"/>
    <path data-fips-int="13147" data-name="Hart County" d="M1741,599l-83,30 -40,27 -21,-17 -36,9 -21,-37 11,-52 -1,-43 27,-61 27,13 63,-8 21,20 13,69 24,10Z"/>
    <path data-fips-int="13149" data-name="Heard County" d="M405,1210l43,144 -90,37 -89,28 -32,-214Z"/>
    <path data-fips-int="13151" data-name="Henry County" d="M903,1058l30,57 52,30v3l20,20 37,7 15,28 -29,27 4,23 -41,12 -17,35 -24,8 -30,-30h-57v-10h-64l2,-60h35l7,-70 19,-35 -17,-46Z"/>
    <path data-fips-int="13153" data-name="Houston County" d="M1250,1764l28,16 6,27v36v20l31,30v19l-5,3v37h-16l-55,79 -141,-1 -6,-65h13l-6,-62 30,15v-35l46,-18 2,-81 10,-40Z"/>
    <path data-fips-int="13155" data-name="Irwin County" d="M1613,2472l-10,28 -27,17v32l-36,66 -17,2 -118,-3 -24,-4 -27,-51 -49,-12 2,-18 6,-72 22,-8v-37l77,2v53l37,2v18l54,2 1,-20Z"/>
    <path data-fips-int="13157" data-name="Jackson County" d="M1368,666l24,23 4,35 -17,47 15,8 -106,53 -18,-48 -36,-12 -82,-13 -29,-45 118,-118 33,30 48,-7Z"/>
    <path data-fips-int="13159" data-name="Jasper County" d="M1290,1211l-7,188 -162,29 -5,-35 6,-45 -28,-90 9,-33 89,-58 10,-20Z"/>
    <path data-fips-int="13161" data-name="Jeff Davis County" d="M1955,2261l2,93h-54v90v28h-64l-128,2v-100l57,-48 54,-32h1l3,2 62,-28 35,6 1,-15Z"/>
    <path data-fips-int="13163" data-name="Jefferson County" d="M2048,1330l20,28 -23,61 -10,52 11,95 -25,73 -61,17 11,24 -21,12 -53,-43 6,-68 -17,-22 -8,-52 -28,-9 -38,-65h51l-6,-34 91,-74 29,-27h1h17l2,-3h1Z"/>
    <path data-fips-int="13165" data-name="Jenkins County" d="M2349,1582l-58,165 17,22 -97,31 -50,-41 -38,-105 14,-53 24,-24 76,-3 58,-23Z"/>
    <path data-fips-int="13167" data-name="Johnson County" d="M1950,1692l-10,28 -29,27 20,28 -75,49 17,33 -23,13 -27,2 -17,-10 4,-62 -75,-33 4,-20 -45,-20 -59,5 6,-37 87,-38 24,30 50,-21 8,11 87,-28Z"/>
    <path data-fips-int="13169" data-name="Jones County" d="M1352,1391l24,118 19,67 -30,18 -64,40 -51,-32h-37l-30,-48 -6,-48 -56,-78 162,-29Z"/>
    <path data-fips-int="13171" data-name="Lamar County" d="M985,1376l-2,183 -6,12 -43,-2 -1,-42 -86,-1 13,-35 2,-107 74,9v-17Z"/>
    <path data-fips-int="13173" data-name="Lanier County" d="M1630,2823v225l-29,15 -15,-72h-84v-55h-12v-26h20l2,-62h76l-5,-20v-5Z"/>
    <path data-fips-int="13175" data-name="Laurens County" d="M1775,1980l-2,3 6,33 -83,84 -15,-2 -66,35 -89,-196 -53,-117 162,-88 59,-5 45,20 -4,20 75,33 -4,62 17,10 1,28 -24,8Z"/>
    <path data-fips-int="13177" data-name="Lee County" d="M1051,2303l-12,43 -22,31h-17l8,34 -23,26 6,50 -16,20h-155l9,-121 14,-30 -45,-30v-30l209,3Z"/>
    <path data-fips-int="13181" data-name="Lincoln County" d="M1866,835h1l20,9 63,55 22,8 53,42 37,53 3,21 -43,-6 -71,38 -33,8 -57,-103 -42,-141Z"/>
    <path data-fips-int="13183" data-name="Long County" d="M2530,2446l-41,84 -62,32 -24,-33 -67,-50 -25,-8 -36,-59 -37,-26h-1l52,-92 -4,-25 39,-46 15,25 30,3 -8,62 76,86Z"/>
    <path data-fips-int="13185" data-name="Lowndes County" d="M1432,2935l58,1h12v55h84l15,72h-42l-10,33 -18,7 -2,121 -108,-10h-17l-10,-2 -70,-56 -11,-23 21,-15 3,-34 54,-13 -3,-33 -46,-15 6,-35 -26,-53 -1,-4Z"/>
    <path data-fips-int="13187" data-name="Lumpkin County" d="M1095,287l8,3 -11,30 6,91 11,34 -81,61 -72,-35 -52,-53 2,-47 18,-31h2h5l6,-8 60,14 31,-53 26,-18Z"/>
    <path data-fips-int="13189" data-name="McDuffie County" d="M1918,1063l33,-8 -11,15 18,30 -7,32 51,99 29,35 -33,29h-1l-2,3h-17h-1l-56,-20 -35,-12 -10,-41 -20,-27 -39,-111 5,-5 59,-17 20,-15Z"/>
    <path data-fips-int="13193" data-name="Macon County" d="M995,1875h53l51,28 6,62h-13l6,65 -71,30 -39,55 -62,-14 -2,-28 -28,-2h-24l1,-46h-23l2,-55 1,-18 34,-2 46,-75 41,-12Z"/>
    <path data-fips-int="13195" data-name="Madison County" d="M1561,648l-14,39 21,10 20,40 33,39 -43,20 -47,-24 -55,35h-21l-61,-28 -15,-8 17,-47 -4,-35 -24,-23 30,-18 3,-2 28,-28 39,16 39,2 33,-25Z"/>
    <path data-fips-int="13197" data-name="Marion County" d="M769,1938v85l-13,47 -11,-2 -1,48v24l-59,-2 -22,-40 -20,-2 -13,-30h-17h-6l3,-188 13,-28 31,10 14,-17 33,4 38,-15 6,50 16,6Z"/>
    <path data-fips-int="13199" data-name="Meriwether County" d="M710,1358l2,28 -11,25 -4,65 -10,15 5,48 12,63 -39,27h-78l-30,-18 -66,-4 2,-228 8,-23Z"/>
    <path data-fips-int="13201" data-name="Miller County" d="M607,2763l64,4 -6,126 -113,3 -118,-1 5,-132 137,5Z"/>
    <path data-fips-int="13205" data-name="Mitchell County" d="M1002,2635l-1,78 -4,183h-70l-159,-1h-80l16,-59 48,-28 23,-28 17,-47 53,-21 71,-75Z"/>
    <path data-fips-int="13207" data-name="Monroe County" d="M1116,1393l5,35 56,78 6,48 -109,77 -140,-2v-60l43,2 6,-12 2,-183 110,2Z"/>
    <path data-fips-int="13209" data-name="Montgomery County" d="M1924,2259l-1,15 -35,-6 2,-7 -36,-33 -10,-97 -21,-68 -4,-38 4,-10 145,-32 -18,45v47Z"/>
    <path data-fips-int="13211" data-name="Morgan County" d="M1321,949l21,56 23,18 37,70 46,45 -6,38 -152,35 -88,-64 1,-52 104,-158Z"/>
    <path data-fips-int="13213" data-name="Murray County" d="M654,95v95l16,12 5,8 2,2 -34,31 -12,37v105l-34,-27 -88,7 -30,-20 -4,-58 34,6 -7,-51 24,-59 4,-26 -5,-13 18,-52Z"/>
    <path data-fips-int="13215" data-name="Muscogee County" d="M589,1815l15,15 -17,32 -17,8 -7,17 -3,5 -4,11 -14,27 -60,5 -61,25h-2l6,-33 -18,-20 -7,-52 -45,-61 106,1 -2,19Z"/>
    <path data-fips-int="13217" data-name="Newton County" d="M1203,1095l-1,52 -10,20 -89,58 -9,33 -37,-55 -15,-28 -37,-7 -20,-20v-3l66,-85 13,-71Z"/>
    <path data-fips-int="13219" data-name="Oconee County" d="M1399,895l16,15 28,5 -1,64 -7,18 -70,26 -23,-18 -21,-56 -14,-12 -40,-22 -6,-21 -34,-20h-3l64,-42 19,23 52,5Z"/>
    <path data-fips-int="13221" data-name="Oglethorpe County" d="M1621,776l37,23 81,28 -41,23 -56,65 -27,49 23,35 -27,28 -33,-17 -41,13 -95,-44 1,-64 22,-40 -22,-28 12,-40h21l55,-35 47,24Z"/>
    <path data-fips-int="13223" data-name="Paulding County" d="M577,744l-1,95h8l-1,101v12l-105,5 -81,-25 1,-65h-8l1,-35 43,2 34,-93Z"/>
    <path data-fips-int="13225" data-name="Peach County" d="M1099,1903l-51,-28h-53l10,-17 143,-116 37,2h2l-10,40 -2,81 -46,18v35Z"/>
    <path data-fips-int="13227" data-name="Pickens County" d="M768,410l45,-10 16,70h37l-1,61 -192,-2v-23h-42v-98Z"/>
    <path data-fips-int="13229" data-name="Pierce County" d="M2109,2599l33,15 42,3 4,40 10,26 22,67 -66,5 -47,52 -58,-15h-17l-45,-54 -2,-48 -17,-35 44,-10 26,-46 45,-27Z"/>
    <path data-fips-int="13231" data-name="Pike County" d="M862,1384l-2,107 -13,35 -132,-4 -23,17 -5,-48 10,-15 4,-65 11,-25 29,-17h34l10,15Z"/>
    <path data-fips-int="13233" data-name="Polk County" d="M395,729l-1,10 74,2 -34,93 -43,-2 -1,35h-96l-105,-3 -17,-128 97,3 1,-15Z"/>
    <path data-fips-int="13235" data-name="Pulaski County" d="M1310,1952l91,93 -16,15 47,51 -26,52h-11l-3,-18 -45,10h-106l3,-124h-5l55,-79Z"/>
    <path data-fips-int="13237" data-name="Putnam County" d="M1510,1270l10,33 -64,35 -11,50 -27,13 -66,-10 -69,8 7,-188 152,-35 40,69Z"/>
    <path data-fips-int="13239" data-name="Quitman County" d="M454,2284l-5,107 -30,-2 -41,5 -68,-8h-1v-44l18,-49 21,-20 7,-37 15,12h51l3,25Z"/>
    <path data-fips-int="13241" data-name="Rabun County" d="M1399,295l-45,-25 -32,18 -44,-23 -18,-48h-37l-2,-40 32,-42 31,-5v-35l262,-5 -22,55 -37,30 -24,2 -14,41 -34,24Z"/>
    <path data-fips-int="13243" data-name="Randolph County" d="M606,2291h34l-4,106h21l20,69 -9,39 -61,-16 -6,16 -98,-1h-76l-8,-115 30,2 5,-107Z"/>
    <path data-fips-int="13245" data-name="Richmond County" d="M2295,1341l-37,-8 -38,23 -51,-10 -22,8 -20,-31 -27,-15 -52,22 -50,-35 33,-29 155,-136 2,-2 33,45 37,32 -18,46 4,22 41,20Z"/>
    <path data-fips-int="13247" data-name="Rockdale County" d="M985,1145l-52,-30 -30,-57 41,24 34,-79 22,-21 24,-23 40,30 -13,71Z"/>
    <path data-fips-int="13249" data-name="Schley County" d="M852,1970l-2,55h23l-1,46h24l-2,52 -150,-7 1,-48 11,2 13,-47v-85l42,14v16Z"/>
    <path data-fips-int="13251" data-name="Screven County" d="M2580,1804l-89,63 -5,13 -56,-28 -4,1 -78,-54 -20,-30h-20l-17,-22 58,-165 135,-99 30,28 -6,51 29,62 21,8 -5,48h12l-8,49 21,31 -16,20Z"/>
    <path data-fips-int="13253" data-name="Seminole County" d="M552,2896l-15,22 -2,111 -12,37 -10,25 -38,18 -9,45 -39,-46 -2,-79 -44,-69 6,-24 -20,-45 67,4Z"/>
    <path data-fips-int="13255" data-name="Spalding County" d="M950,1308l-14,68v17l-74,-9h-77l-10,-15h-34l-29,17 -2,-28 2,-24h36l33,-43 -3,-25 21,2h64v10h57Z"/>
    <path data-fips-int="13257" data-name="Stephens County" d="M1546,423l-46,42 -115,6 -14,5 -36,-13 57,-140 16,-8 68,56 31,12Z"/>
    <path data-fips-int="13259" data-name="Stewart County" d="M613,2066l4,5 -3,135 -7,7 -1,78 -152,-7 -30,-11 -3,-25h-51l-15,-12 13,-71 -8,-30 52,-57 34,-12h161Z"/>
    <path data-fips-int="13261" data-name="Sumter County" d="M988,2115l10,38 19,13 10,45 1,5 23,87 -44,-4 -209,-3v30l-63,-67 9,-119v-24l150,7 2,-52 28,2 2,28Z"/>
    <path data-fips-int="13263" data-name="Talbot County" d="M835,1700l-30,19 -26,63 -18,17v34l-22,-1 -38,15 -33,-4 -14,17 -31,-10 -36,12 17,-32 -15,-15 3,-178 -5,-8h78l39,-27 30,40h28l17,37Z"/>
    <path data-fips-int="13265" data-name="Taliaferro County" d="M1755,1080l21,3 23,10 -12,5 -28,59 -38,-7 -30,38 5,17 -78,-2 -15,-17 14,-36 -16,-42 37,-58 -27,-23 27,-28 34,69 43,-15Z"/>
    <path data-fips-int="13267" data-name="Tattnall County" d="M2200,2035l31,143 51,20 80,1 -38,24 -39,46 4,25 -52,92h1h-1l-47,-27h-2l-39,-43 -67,-18 15,-163 8,-29 -20,-51 -3,-7 -6,-28 -1,-12Z"/>
    <path data-fips-int="13269" data-name="Taylor County" d="M886,1742l37,5 14,3 36,32 -9,30 38,40 3,6 -10,17 -21,-12 -41,12 -46,75 -34,2 -1,18 -41,-2v-16l-42,-14 -8,-50 -16,-6 -6,-50 22,1v-34l18,-17 26,-63 30,-19 28,7Z"/>
    <path data-fips-int="13271" data-name="Telfair County" d="M1795,2263l27,31 -54,32 -57,48 -27,18 -70,4 -21,1 -47,-25 -3,2 3,-2 -3,2 -40,-27 -13,-24 -5,-12 169,-170 44,53 34,12 10,18 33,9Z"/>
    <path data-fips-int="13273" data-name="Terrell County" d="M798,2326l45,30 -14,30 -9,121 -93,-2h-59l9,-39 -20,-69h-21l4,-106 87,2 8,-34Z"/>
    <path data-fips-int="13275" data-name="Thomas County" d="M997,2896v27l163,5 -5,269 -209,-15 5,-169 -25,-38 1,-79Z"/>
    <path data-fips-int="13277" data-name="Tift County" d="M1307,2529l-2,18 49,12 27,51 24,4 -19,8 -1,46 -38,35 -17,19 -32,-2 -86,-2 4,-171v-20Z"/>
    <path data-fips-int="13279" data-name="Toombs County" d="M2075,2008l1,12 6,28 3,7 20,51 -8,29 -15,163v1l-37,-21 -54,1 -36,-18 -31,-2 26,-184v-47l18,-45 33,45 45,-2Z"/>
    <path data-fips-int="13281" data-name="Towns County" d="M1284,95v35l-31,5 -32,42 2,40 -17,16 -58,5 -18,-48 2,-33 -27,5 -36,-18 -12,-45 186,1Z"/>
    <path data-fips-int="13283" data-name="Treutlen County" d="M1968,1983l-145,32 -4,10 -2,-2 -7,5 -31,-12 -6,-33 2,-3 25,-72 24,-8 -1,-28 90,8 69,42Z"/>
    <path data-fips-int="13285" data-name="Troup County" d="M493,1379l-2,228 -194,-1 -28,-187 89,-28 90,-37 47,2Z"/>
    <path data-fips-int="13287" data-name="Turner County" d="M1320,2347l15,65v37l-22,8 -6,72 -91,-2v20l-41,-38h-49l-3,-130h116v-37Z"/>
    <path data-fips-int="13289" data-name="Twiggs County" d="M1473,1820l-158,92 -5,3 5,-3v-19l-31,-30v-20v-36l-6,-27 -28,-16 -3,-55 14,1 52,-48 -12,-28 64,-40Z"/>
    <path data-fips-int="13291" data-name="Union County" d="M1057,99l12,45 36,18 27,-5 -2,33 18,48 -26,10 -3,35 -16,7 -8,-3 -41,-12 -26,18 -31,53 -60,-14 -6,8h-5l31,-55 7,-53 -28,-5 -3,-27 23,-30 -42,-46 29,-25Z"/>
    <path data-fips-int="13293" data-name="Upson County" d="M847,1526l86,1 1,42v60v33l-15,2 -33,78 -23,-35 -28,-7 -56,-21 -17,-37h-28l-30,-40 -12,-63 23,-17Z"/>
    <path data-fips-int="13295" data-name="Walker County" d="M346,248l-15,34 67,1v68l-10,27 -24,-2 -246,-5 -6,-25 29,-33v-20l24,-48 11,-78 42,-77h59l-1,95h37l-2,57Z"/>
    <path data-fips-int="13297" data-name="Walton County" d="M1175,879l31,-14 18,9h3l34,20 6,21 40,22 -104,158 -139,-106 -40,-30 109,-104Z"/>
    <path data-fips-int="13299" data-name="Ware County" d="M1968,2655l17,35 2,48 45,54h17l2,23 45,15 1,61 47,52h-173l-3,156 149,2 19,5 -39,155 -126,-9 -7,-23 -4,-146h-37l2,-103h-18l-46,-40 -48,-117 -18,-28 1,-42 43,5v-65v-74h18h63l10,36Z"/>
    <path data-fips-int="13301" data-name="Warren County" d="M1817,1087l39,111 20,27 10,41 35,12 56,20 -29,27 -77,-37 -41,13 -25,24 -50,16 -17,-18 -7,-53 -35,-65 -5,-17 30,-38 38,7 28,-59 12,-5Z"/>
    <path data-fips-int="13303" data-name="Washington County" d="M1759,1353l4,33 36,38 13,9 38,65 28,9 8,52 17,22 -6,68 -87,28 -8,-11 -50,21 -24,-30 -87,38h-1l-10,-41 -37,-28 -27,-65 14,-27 -12,-27 10,-41h26l70,-40 25,-47 43,-28Z"/>
    <path data-fips-int="13305" data-name="Wayne County" d="M2188,2359h2l47,27h1l37,26 36,59 25,8 67,50 24,33 3,22 29,28 -7,12 -64,88 -43,-24 -83,14 -64,-19 -10,-26 -4,-40 -42,-3 -3,-217 27,-35Z"/>
    <path data-fips-int="13307" data-name="Webster County" d="M744,2140l-9,119 -8,34 -87,-2h-34l1,-78 7,-7 3,-135 -4,-5h17l13,30 20,2 22,40Z"/>
    <path data-fips-int="13309" data-name="Wheeler County" d="M1810,2028l7,-5 2,2 4,38 21,68 10,97 36,33 -2,7 -62,28 -3,-2h-1l-27,-31 -20,-30 -33,-9 -10,-18 -34,-12 -44,-53 34,-33 -7,-10 15,2 83,-84Z"/>
    <path data-fips-int="13311" data-name="White County" d="M1206,233l31,27 -10,68 -11,12 17,56 10,17 -2,5 -27,27h-105l-11,-34 -6,-91 11,-30 16,-7 3,-35 26,-10Z"/>
    <path data-fips-int="13313" data-name="Whitfield County" d="M543,92l-18,52 5,13 -4,26 -24,59 7,51 -34,-6 4,58 -7,13 -74,-7v-68l-67,-1 15,-34 8,-38 41,2v-32l23,-28 27,-62Z"/>
    <path data-fips-int="13315" data-name="Wilcox County" d="M1395,2163h11l5,3 15,18v4l6,46v4l20,36 27,22 6,12v3l5,12 13,24h-183l-81,-5 2,-123v-64h106l45,-10Z"/>
    <path data-fips-int="13317" data-name="Wilkes County" d="M1819,816v3l42,141 57,103 -17,-13 -20,15 -59,17 -5,5 -18,6 -23,-10 -21,-3 -40,-27 -43,15 -34,-69 -23,-35 27,-49 56,-65 41,-23Z"/>
    <path data-fips-int="13319" data-name="Wilkinson County" d="M1557,1554v3v-3l9,7 27,65 37,28 10,41h1l-6,37 -162,88 -108,-226 30,-18 124,-59Z"/>
    <path data-fips-int="13321" data-name="Worth County" d="M1039,2346l52,10 32,23 3,130h49l41,38 -4,171 -211,-5 1,-78 2,-130 -13,-18 -6,-50 23,-26 -8,-34h17Z"/>
    <path data-fips-int="13039" data-name="Camden County" d="M2589,2991l2,20 -24,70 -7,47 -12,-77 -21,-20 50,-43ZM2498,2890l49,38h1h-1v12v-5l1,-4 -1,4v5l-17,25 37,18 -33,30 -8,23 19,20 -12,13 2,70 -42,5 -98,-15 -49,-30 -38,-1 -23,-27 7,-55 -11,-68 3,-23 -19,-9 14,-36h43l43,-50 1,-2h2l47,32 35,10 37,-15Z"/>
    <path data-fips-int="13051" data-name="Chatham County" d="M2752,2334l52,20 -13,30 -44,42 -30,-52ZM2716,2283l24,6 27,39 -32,-2ZM2885,2226l-4,2 4,-2 24,12 -22,20 -17,5 4,-32 -13,-18 -4,-9 -17,-13 -2,-2 -1,-6 -4,-2 75,38ZM2814,2173l-4,3 4,-3 12,6 7,2 4,2 1,6 2,2 17,13 4,9 2,36 -23,19 -17,-14 4,-25 -34,-25 3,-3 10,-12 1,-10 3,-1 -3,1 -1,10 -10,12 -3,3 28,20 -5,30 47,39 -30,33 -80,-22 -20,-31 -35,10 -13,23 -34,-37 -17,-45 -20,-20h-2l-27,-43 115,-103 33,7 20,35 -1,45 21,23Z"/>
    <path data-fips-int="13127" data-name="Glynn County" d="M2538,2703h5h1l18,7 5,-3 31,36 -9,10 -18,40 -9,9 -4,3 -1,5 -3,8 17,30 -18,17 -22,-25 -21,-27v40l57,27 5,6 2,4 -2,-4 -5,-6 20,-20 2,41 -9,34 -5,-40 -1,-4 1,4 -4,25 -73,-30 -11,-35 -37,15 -35,-10 -47,-32h-2l-1,2 23,-118 64,-88 28,38ZM2631,2723h4l34,12 -11,55 -41,48 -33,8 3,-24 -15,-20 17,-34 12,-48Z"/>
    <path data-fips-int="13179" data-name="Liberty County" d="M2712,2476l-3,24 -40,-24ZM2712,2476l34,-24 4,40 -27,53ZM2692,2417l20,19 -14,23 -39,-3 -6,18 -36,3 -53,10 -34,-41 -93,-47 -76,-86 8,-62 -30,-3 -15,-25 38,-24 26,-30 45,25 31,59 44,6 32,-8 28,23 26,60 38,32 27,11v22Z"/>
    <path data-fips-int="13191" data-name="McIntosh County" d="M2617,2477l51,2 27,15 15,33 -37,23h-52l31,19 19,-5 -39,50 7,36 -13,35 30,-3 3,31 -97,-10 -7,-1 7,1 3,2 -3,5 -18,-7 -1,-1 2,-4 12,-5 1,5 -1,-5 -12,5 -2,4v1h-5l-58,-41 -28,-38 7,-12 -29,-28 -3,-22 62,-32 41,-84 34,41ZM2710,2559l13,13 -60,101 -31,-69Z"/>
    <path data-fips-int="13037" data-name="Calhoun County" d="M668,2505h59l-5,54 27,63 -11,17 -11,-14 -26,19 -90,-5 -92,-4 -3,-46h-14l1,-85 98,1 6,-16Z"/>
  </g>
  <g class="cities">
    <circle r="3" cx="78.3" cy="98.4"/>
    <text x="78.3" y="98.4">Atlanta</text>
    <circle r="3" cx="41.1" cy="190.1"/>
    <text x="41.1" y="190.1">Columbus</text>
    <circle r="3" cx="276.3" cy="216.7"/>
    <text x="276.3" y="216.7">Savannah</text>
  </g>
</svg>