<?xml version="1.0" encoding="utf-8"?>
<!DOCTYPE svg PUBLIC "-//W3C//DTD SVG 1.1//EN" "http://www.w3.org/Graphics/SVG/1.1/DTD/svg11.dtd">
<svg version="1.1" xmlns="http://www.w3.org/2000/svg" width="290" height="350" viewBox="0 0 290 350">
  <path class="state" transform="scale(0.1)" d="M565,3084l42,-10 57,-33 -12,-13 -87,56M641,2620l16,52 29,5 -33,31 3,25 29,27 6,63 -9,25 14,20 56,33 25,54 40,3 17,-13 7,25 37,8 42,23 43,5 44,-10 29,-20 30,32 44,-32 43,-76 22,1 4,-26 -26,1 73,-33 -15,-30 9,-15 28,25 34,-26 25,-32 4,-45 24,-13 28,-62 -6,-83 11,-76 -17,-52 -65,-15 -13,22 -22,-17 -36,47 7,20 -53,-4 -27,35 -21,3 -12,34 -33,38 -40,28 -44,-13 -32,40 -63,-17 -58,32 -92,-188 202,-100 -15,-10 6,-33 18,-10v-28l27,-5 69,6v-66v-127l-130,-191 -8,18 -49,32 -55,-25 -47,-92 -52,-49v-59l-244,-50 -21,-8 -37,45 37,63 57,22 33,23 7,60 52,43h47l31,40 16,53 -17,60 -25,22 -31,58 4,38 -18,62 -61,120 -24,13 50,18 54,72 -15,31 45,34 -23,13 11,48M74,1725l12,-78 14,-43 55,-88 52,-62 49,-38 38,-20 74,-66 86,-35 117,-14 85,9 33,8 22,-17 101,-48 62,-22 74,-5 26,5 100,-16 71,-77 81,-51 44,-83 16,-59 31,-55 56,-63 21,-36 11,-79 11,-33 3,-56 37,-152 33,-56 56,-65 28,-55 35,-52 94,-79 112,-50 93,-7 90,17 88,33 110,70 62,55 41,66 81,77 22,35 90,1 79,20 84,39 108,106 26,38 20,70 16,103 -14,65 -22,45 -25,27 -4,38 -22,58 -34,45 -28,113 -34,63 -22,82 -50,83 -84,93 -60,40 -73,22 -29,40 -80,79 -58,35 -40,15 -66,80 -81,67 -29,8 -25,37 -58,54 -77,44 -31,48 -79,50 -12,90 -12,171 -12,43 6,83 -6,47 6,91 -18,102 -58,115 -30,26 -11,59 -26,16 -43,50 -52,37 -22,50 -57,71 -66,63 -60,42 -59,26 -68,17 -60,-7 -64,17 -62,5 -68,-5 -66,17 -61,-2 -69,28 -93,12 -87,-8 -76,-34 -85,-74 -51,-82 -21,-86 5,-79 24,-68 35,-68 51,-62 -29,-66 -4,-90 -60,-40 -66,-90 -26,-81 -5,-80 11,-83 15,-42 5,-46 18,-68 36,-49 11,-38 -65,-57 -53,-61 -31,-53 -31,-123 -3,-59M1409,1512l80,-39 52,-19 50,-35 66,-35 9,-23 -41,-116 -23,-112 -16,-16 -39,53 8,23 1,68 17,4 -6,30 -42,58 -57,15 -30,-24 -59,9 -35,43 4,27 31,13 -5,38 -39,48v4l33,-17 41,3M1116,1552l-22,-23 -35,10 -35,25 -65,-17v29l15,63 -11,12 22,146 59,-22 48,-26 29,26h29l17,34 48,1v-61l-48,-75 -11,-33 13,-5 6,-40 -59,-44"/>
  <g class="counties" transform="scale(0.1)">
    <path data-fips-int="66010" data-name="Guam" d="M74,1725l12,-78 14,-43 55,-88 52,-62 49,-38 38,-20 74,-66 86,-35 117,-14 85,9 33,8 22,-17 101,-48 62,-22 74,-5 26,5 100,-16 71,-77 81,-51 44,-83 16,-59 31,-55 56,-63 21,-36 11,-79 11,-33 3,-56 37,-152 33,-56 56,-65 28,-55 35,-52 94,-79 112,-50 93,-7 90,17 88,33 110,70 62,55 41,66 81,77 22,35 90,1 79,20 84,39 108,106 26,38 20,70 16,103 -14,65 -22,45 -25,27 -4,38 -22,58 -34,45 -28,113 -34,63 -22,82 -50,83 -84,93 -60,40 -73,22 -29,40 -80,79 -58,35 -40,15 -66,80 -81,67 -29,8 -25,37 -58,54 -77,44 -31,48 -79,50 -12,90 -12,171 -12,43 6,83 -6,47 6,91 -18,102 -58,115 -30,26 -11,59 -26,16 -43,50 -52,37 -22,50 -57,71 -66,63 -60,42 -59,26 -68,17 -60,-7 -64,17 -62,5 -68,-5 -66,17 -61,-2 -69,28 -93,12 -87,-8 -76,-34 -85,-74 -51,-82 -21,-86 5,-79 24,-68 35,-68 51,-62 -29,-66 -4,-90 -60,-40 -66,-90 -26,-81 -5,-80 11,-83 15,-42 5,-46 18,-68 36,-49 11,-38 -65,-57 -53,-61 -31,-53 -31,-123ZM565,3084l42,-10 57,-33 -12,-13ZM641,2620l16,52 29,5 -33,31 3,25 29,27 6,63 -9,25 14,20 56,33 25,54 40,3 17,-13 7,25 37,8 42,23 43,5 44,-10 29,-20 30,32 44,-32 43,-76 22,1 4,-26 -26,1 73,-33 -15,-30 9,-15 28,25 34,-26 25,-32 4,-45 24,-13 28,-62 -6,-83 11,-76 -17,-52 -65,-15 -13,22 -22,-17 -36,47 7,20 -53,-4 -27,35 -21,3 -12,34 -33,38 -40,28 -44,-13 -32,40 -63,-17 -58,32 -92,-188 202,-100 -15,-10 6,-33 18,-10v-28l27,-5 69,6v-66v-127l-130,-191 -8,18 -49,32 -55,-25 -47,-92 -52,-49v-59l-244,-50 -21,-8 -37,45 37,63 57,22 33,23 7,60 52,43h47l31,40 16,53 -17,60 -25,22 -31,58 4,38 -18,62 -61,120 -24,13 50,18 54,72 -15,31 45,34 -23,13 11,48ZM1409,1512l80,-39 52,-19 50,-35 66,-35 9,-23 -41,-116 -23,-112 -16,-16 -39,53 8,23 1,68 17,4 -6,30 -42,58 -57,15 -30,-24 -59,9 -35,43 4,27 31,13 -5,38 -39,48v4l33,-17ZM1116,1552l-22,-23 -35,10 -35,25 -65,-17v29l15,63 -11,12 22,146 59,-22 48,-26 29,26h29l17,34 48,1v-61l-48,-75 -11,-33 13,-5 6,-40Z"/>
  </g>

  <g class="cities">
    <circle r="3" cx="177.5" cy="128.2"/>
    <text x="177.5" y="128.2">Dededo</text>
    <circle r="3" cx="141.8" cy="147.3"/>
    <text x="141.8" y="147.3">Tamuning-Tumon-Harmon</text>
  </g>
</svg>