<?xml version="1.0" encoding="utf-8"?>
<!DOCTYPE svg PUBLIC "-//W3C//DTD SVG 1.1//EN" "http://www.w3.org/Graphics/SVG/1.1/DTD/svg11.dtd">
<svg version="1.1" xmlns="http://www.w3.org/2000/svg" width="290" height="350" viewBox="0 0 290 350">
  <path class="state" transform="scale(0.1)" d="M74,1725l12,-78 14,-41 55,-92 76,-80 63,-38 73,-65 87,-38 117,-10 84,7 34,10 22,-17 101,-50 62,-22 74,-5 26,5 100,-16 71,-77 81,-51 44,-83 18,-59 27,-55 58,-63 21,-36 11,-79 11,-34 3,-55 37,-152 33,-56 56,-67 28,-53 35,-50 94,-80 112,-53 93,-5 90,18 88,32 110,70 62,53 41,68 81,75 22,37 90,3 79,18 84,39 108,106 26,40 19,68 18,102 -15,66 -43,70 -30,98 -34,45 -13,67 -23,64 -26,45 -21,82 -52,83 -83,93 -60,40 -73,22 -29,40 -80,79 -58,37 -40,13 -66,80 -81,67 -29,8 -25,37 -58,54 -77,44 -31,48 -79,50 -12,90 -12,171 -12,43 6,83 -6,47 6,91 -18,102 -58,115 -30,28 -11,57 -26,16 -43,48 -52,39 -21,50 -56,73 -69,63 -59,40 -59,26 -68,17 -60,-7 -64,15 -62,7 -68,-7 -66,20 -61,-3 -69,28 -93,12 -87,-8 -76,-34 -85,-73 -51,-85 -21,-84 5,-79 24,-66 35,-72 51,-61 -28,-65 -5,-90 -60,-40 -67,-91 -25,-80 -5,-80 9,-83 18,-42 3,-46 19,-68 36,-49 11,-38 -66,-57 -52,-61 -29,-53 -33,-123 -3,NaN 533,NaN 59,-35 -15,-10 -86,NaN 514,NaN -2,2 43,-33 33,-68 22,1 4,-26 -26,1 78,-46 -11,-32 28,25 37,-31 25,-37 1,-35 22,-15 30,-60 -5,-83 10,-76 -17,-52 -52,-8 -15,13 -33,-15 -36,47 7,20 -53,-4 -27,35 -21,3 -12,34 -33,36 -43,30 -26,-26 -47,55 -63,-17 -58,31 -92,-189 202,-100 -15,-10 6,-33 18,-10v-28l57,-5 39,6v-66v-127l-130,-191 -8,18 -49,32 -55,-25 -47,-92 -51,-49 -1,-59 -244,-51 -21,-5 -37,43 19,45 109,68 22,73 25,-1 22,21 36,5 33,40 12,60 -15,53 -29,32 -22,43v37l-56,151 -36,62 41,8 51,63 -15,38 45,34 -23,15 10,46 2,2 15,2v48l31,3 -35,32 2,26 30,27 11,108 56,35 25,52 40,3 17,-15 7,27 37,6 42,25 43,5 44,-10 19,-20 37,30 16,-8 -2,NaN 412,NaN 66,-25 36,-29 66,-35 9,-21 -41,-118 -23,-112 -16,-16 -39,53 8,23 1,68 17,4 -9,35 -26,39 -62,30 -38,-23 -59,7 -27,25 -4,46 31,12 -5,38 -41,48v4l36,-17 40,NaN -315,NaN -35,10 -35,23 -47,-5 -15,-15 -3,34 15,56 -11,20 22,145 59,-22 48,-26 29,26h29l17,34 48,1v-61l-48,-74 -14,-23 16,-18 6,-40 -59,-42Z"/>
  <g class="counties" transform="scale(0.1)">
    <path data-fips-int="66010" data-name="Guam" d="M74,1725l12,-78 14,-41 55,-92 76,-80 63,-38 73,-65 87,-38 117,-10 84,7 34,10 22,-17 101,-50 62,-22 74,-5 26,5 100,-16 71,-77 81,-51 44,-83 18,-59 27,-55 58,-63 21,-36 11,-79 11,-34 3,-55 37,-152 33,-56 56,-67 28,-53 35,-50 94,-80 112,-53 93,-5 90,18 88,32 110,70 62,53 41,68 81,75 22,37 90,3 79,18 84,39 108,106 26,40 19,68 18,102 -15,66 -43,70 -30,98 -34,45 -13,67 -23,64 -26,45 -21,82 -52,83 -83,93 -60,40 -73,22 -29,40 -80,79 -58,37 -40,13 -66,80 -81,67 -29,8 -25,37 -58,54 -77,44 -31,48 -79,50 -12,90 -12,171 -12,43 6,83 -6,47 6,91 -18,102 -58,115 -30,28 -11,57 -26,16 -43,48 -52,39 -21,50 -56,73 -69,63 -59,40 -59,26 -68,17 -60,-7 -64,15 -62,7 -68,-7 -66,20 -61,-3 -69,28 -93,12 -87,-8 -76,-34 -85,-73 -51,-85 -21,-84 5,-79 24,-66 35,-72 51,-61 -28,-65 -5,-90 -60,-40 -67,-91 -25,-80 -5,-80 9,-83 18,-42 3,-46 19,-68 36,-49 11,-38 -66,-57 -52,-61 -29,-53 -33,-123ZM565,3084l42,-10 59,-35 -15,-10ZM1077,3001l2,-2 -2,2 43,-33 33,-68 22,1 4,-26 -26,1 78,-46 -11,-32 28,25 37,-31 25,-37 1,-35 22,-15 30,-60 -5,-83 10,-76 -17,-52 -52,-8 -15,13 -33,-15 -36,47 7,20 -53,-4 -27,35 -21,3 -12,34 -33,36 -43,30 -26,-26 -47,55 -63,-17 -58,31 -92,-189 202,-100 -15,-10 6,-33 18,-10v-28l57,-5 39,6v-66v-127l-130,-191 -8,18 -49,32 -55,-25 -47,-92 -51,-49 -1,-59 -244,-51 -21,-5 -37,43 19,45 109,68 22,73 25,-1 22,21 36,5 33,40 12,60 -15,53 -29,32 -22,43v37l-56,151 -36,62 41,8 51,63 -15,38 45,34 -23,15 10,46 2,2 15,2v48l31,3 -35,32 2,26 30,27 11,108 56,35 25,52 40,3 17,-15 7,27 37,6 42,25 43,5 44,-10 19,-20 37,30 16,-8ZM1409,1512l80,-39 66,-25 36,-29 66,-35 9,-21 -41,-118 -23,-112 -16,-16 -39,53 8,23 1,68 17,4 -9,35 -26,39 -62,30 -38,-23 -59,7 -27,25 -4,46 31,12 -5,38 -41,48v4l36,-17ZM1116,1552l-22,-23 -35,10 -35,23 -47,-5 -15,-15 -3,34 15,56 -11,20 22,145 59,-22 48,-26 29,26h29l17,34 48,1v-61l-48,-74 -14,-23 16,-18 6,-40Z"/>
  </g>
  <g class="cities">
    <circle r="3" cx="177.5" cy="128.2"/>
    <text x="177.5" y="128.2">Dededo</text>
    <circle r="3" cx="141.8" cy="147.3"/>
    <text x="141.8" y="147.3">Tamuning-Tumon-Harmon</text>
    <circle r="3" cx="208.4" cy="116.7"/>
    <text x="208.4" y="116.7">Yigo</text>
  </g>
</svg>