<?xml version="1.0" encoding="utf-8"?>
<!DOCTYPE svg PUBLIC "-//W3C//DTD SVG 1.1//EN" "http://www.w3.org/Graphics/SVG/1.1/DTD/svg11.dtd">
<svg version="1.1" xmlns="http://www.w3.org/2000/svg" width="350" height="229" viewBox="0 0 350 229">
  <defs>
    <pattern id="pattern-no-results" width="50" height="50" patternUnits="userSpaceOnUse">
      <rect width="50" height="50" fill="#ddd"/>
      <path d="M-5,5L5,-5M-5,55L55,-5M45,55L55,45" stroke-width="10" stroke="#666666"/>
    </pattern>
  </defs>
  <g class="counties" transform="scale(0.1)">
    <path data-fips-int="15001" data-name="Hawaii County" d="M2764,1344l26,7 18,9 5,-2 25,19 -1,8 50,26 8,12 21,7 6,8 10,0 14,-5 26,10 10,1 26,8 34,15 42,24 33,12 25,20 18,9 32,26 21,23 3,8 16,13 6,8 0,11 -5,18 4,17 -2,31 5,6 12,0 13,-9 13,3 11,-2 7,9 8,21 -2,31 5,6 19,7 0,13 8,4 15,16 46,22 13,5 4,7 -7,12 -3,17 -39,38 -25,15 -3,6 -21,15 -5,10 -41,19 -14,4 -14,10 -26,17 -15,5 -32,6 -20,-7 -13,-2 -19,5 -14,14 -11,5 -8,14 -15,9 -10,2 -15,9 -26,25 -34,12 0,5 -9,5 -10,16 -9,7 2,18 -6,14 -10,8 -8,15 -4,18 -13,1 -8,17 -10,10 -19,10 -3,-18 -24,-18 -21,-7 -20,-15 -5,-7 -33,-5 -18,-11 -2,-11 -14,-16 -7,-21 -1,-16 4,-10 2,-34 5,-5 0,-30 6,-26 -1,-16 3,-9 -7,-28 -9,-13 3,-8 -8,-12 -6,-21 5,-11 -18,-5 -1,-15 -8,-36 -9,-29 -6,-7 -3,-12 -7,-1 -18,-10 3,-16 -14,-15 0,-9 -7,-7 4,-7 2,-23 31,-32 12,-15 8,-6 17,1 11,-5 -2,-9 11,-12 3,-11 8,-7 0,-10 5,-1 16,-22 12,-4 6,-30 -2,-9 -25,-29 -16,-31 -6,-25 -3,-21 3,-24 11,-17Z"/>
    <path data-fips-int="15005" data-name="Kalawao County" d="M2110,761l-2,4 13,11 -1,10 -10,2 -12,-16 -10,0 -19,-17 -11,1 -8,-5 14,1 8,-21 11,5 10,22Z"/>
    <path data-fips-int="15003" data-name="Honolulu County" d="M1461,406l9,1 20,23 2,12 8,6 -2,13 7,12 6,3 9,17 6,4 0,11 13,-1 11,20 0,11 -11,5 7,13 2,16 12,2 5,13 11,4 5,12 10,-4 5,-13 -12,-7 9,-9 12,5 13,-4 -9,10 -5,14 5,14 12,5 7,11 0,17 9,13 20,13 4,8 -22,15 -3,8 -11,1 0,-13 -4,-1 -27,5 -18,13 -16,-1 -4,-11 -18,-12 -10,-3 2,-7 -10,-6 -5,1 -1,-12 -16,13 8,6 -26,0 1,-8 -9,-2 -4,-20 18,-12 -5,-9 -14,-2 1,10 -14,-9 3,9 7,3 2,15 -16,-9 -11,-14 -4,11 25,8 5,8 -2,13 -28,7 -48,7 -6,-4 -15,-45 -13,-15 -12,-7 -2,-17 -5,-10 -25,-26 1,-30 -12,-17 -18,-13 16,-3 21,1 16,-3 15,3 23,-2 15,-9 -1,-5 19,-15 7,-9 3,-12 13,-14 24,-17Z"/>
    <path data-fips-int="15007" data-name="Kauai County" d="M189,208l15,1 3,12 -6,1 -9,14 -5,19 6,16 -14,12 -27,6 -15,11 -13,21 -10,21 -1,8 -17,-8 -9,-16 1,-20 9,-12 1,-13 11,-8 15,-18 31,-14 7,-5 7,-12 2,-12 12,-8ZM606,62l20,11 8,-1 10,12 12,8 4,23 7,1 -2,28 -11,17 -3,12 -9,6 -3,17 5,37 -3,7 -11,-3 -2,19 -16,8 -14,17 -24,16 -27,-12 -38,-2 -24,-11 -7,8 -19,-14 -9,-14 -13,-14 -21,-3 -5,-5 -28,-10 -7,-15 -7,-7 -2,-9 3,-24 24,-20 8,-28 6,-6 16,-9 18,-4 21,-14 20,-11 10,-9 22,0 3,7 14,-1 9,8 3,-12 7,-6 15,4Z"/>
    <path data-fips-int="15009" data-name="Maui County" d="M2323,1129l10,7 8,10 -5,7 -4,20 12,1 -6,14 -8,-4 -17,7 -9,-10 -3,6 -14,2 -8,4 -4,-6 -6,7 -14,0 -2,-6 -10,-6 1,-7 13,-15 18,-4 22,-17 21,-10ZM2068,917l8,3 34,3 21,10 25,24 11,13 10,17 0,9 -15,27 -27,14 -19,5 -34,3 -12,-14 -6,-19 2,-21 -13,-24 -26,-14 -6,-10 4,-14 22,-10ZM2301,849l8,1 4,8 14,3 14,18 6,0 1,13 17,22 11,21 16,1 16,-8 6,1 20,-6 8,-8 19,-6 7,-4 14,3 14,-4 6,7 6,-3 21,7 1,8 43,37 16,0 2,11 8,10 18,-1 17,13 12,0 22,9 10,13 4,11 -5,31 -13,16 -12,4 -12,18 -9,3 -9,-3 -19,8 -11,10 -11,-1 -18,3 -9,-5 -11,3 -34,17 -23,11 -28,0 -12,5 -21,-3 -24,-16 2,-7 -9,-12 6,-18 -3,-35 -5,-12 -4,-29 -6,-7 -16,-6 -11,6 -5,7 -10,2 -17,-11 -9,-1 -14,-9 -9,0 -20,-21 -22,-28 2,-12 -8,-17 19,-51 9,0 8,-5 -1,-8 18,2ZM2050,751l8,5 11,-1 19,17 10,0 12,16 10,-2 1,-10 -13,-11 2,-4 8,4 10,-5 11,4 14,-3 8,2 18,-7 4,4 16,-6 18,3 1,9 15,-1 1,8 -8,13 -14,15 -34,26 -8,0 -12,7 -11,-1 -13,7 -11,-5 -35,-6 -48,-16 -5,-5 -24,-5 -27,2 -17,6 -44,1 -16,3 -35,-7 10,-33 22,-20 3,-17 -7,-7 3,-7 8,4 18,-1 13,10 21,4 16,-1 22,3 26,6 4,-2Z"/>
  </g>
  <g class="cities">
    <circle r="3" cx="147.5" cy="60.7"/>
    <text x="147.5" y="60.7">Pearl City</text>
    <circle r="3" cx="323.8" cy="169.5"/>
    <text x="323.8" y="169.5">Hilo</text>
    <circle r="3" cx="160.8" cy="60.9"/>
    <text x="160.8" y="60.9">Kailua</text>
  </g>
</svg>