<?xml version="1.0" encoding="utf-8"?>
<!DOCTYPE svg PUBLIC "-//W3C//DTD SVG 1.1//EN" "http://www.w3.org/Graphics/SVG/1.1/DTD/svg11.dtd">
<svg version="1.1" xmlns="http://www.w3.org/2000/svg" width="1000" height="653" viewBox="0 0 1000 653">
  <path class="state" d="M789,383l14,4 6,8 26,15 6,-1 21,6 42,23 20,19v25l16,-1 3,18 18,15 13,6 -1,8 -28,25 -37,17 -19,-1 -9,10 -26,14 -10,11v7l-21,25 -5,-8 -17,-11 -15,-4 -6,-14 5,-41 -6,-28h-5l-8,-29 -6,-3 -6,-13 2,-10 12,-13 10,-2 7,-15 9,-8v-11l-7,-7 -6,-16v-13ZM603,216l30,-1 5,5 -13,14 -15,5 -33,-10 -36,2 -7,-1 10,-15 -1,-8 12,3 31,4 7,-6ZM416,115l8,5 4,11 15,18 -3,12 14,10 -1,-9 9,2 -4,7 7,12 9,9 -23,8 -19,-13 -10,4 -3,-6 6,-8 -10,-2 3,14 -24,3 -3,-13 -8,-7 -10,-15 -4,-18h24l15,-19ZM173,17l14,7 3,16 -8,10 1,17 -19,16 -30,-6 -10,-10 -14,-4 -6,-9 1,-8 10,-14 26,-15 14,4 2,-5ZM54,58l5,1 -6,12 1,6 -15,7 -8,15 -6,-7 1,-12ZM657,242l13,8 9,16 17,-3 8,-6 15,2 21,15 2,6 19,5 4,14 -10,12 -16,7 -14,-1 -14,8h-21l-5,-4 -1,-23 -3,-12 -12,3 -18,-10 -8,-9 -1,-14 8,-13ZM664,321l4,4v13l-23,3 -3,-8ZM590,261l16,3 14,13 2,7 -15,13 -16,-2 -1,-14 -11,-9 -1,-8Z"/>
  <g class="counties">
    <path data-fips-int="15001" data-name="Hawaii County" d="M789,383l14,4 6,8 26,15 6,-1 21,6 42,23 20,19v25l16,-1 3,18 18,15 13,6 -1,8 -28,25 -37,17 -19,-1 -9,10 -26,14 -10,11v7l-21,25 -5,-8 -17,-11 -15,-4 -6,-14 5,-41 -6,-28h-5l-8,-29 -6,-3 -6,-13 2,-10 12,-13 10,-2 7,-15 9,-8v-11l-7,-7 -6,-16v-13Z"/>
    <path data-fips-int="15005" data-name="Kalawao County" d="M603,216l3,8 -20,-10 7,-6Z"/>
    <path data-fips-int="15003" data-name="Honolulu County" d="M416,115l8,5 4,11 15,18 -3,12 14,10 -1,-9 9,2 -4,7 7,12 9,9 -23,8 -19,-13 -10,4 -3,-6 6,-8 -10,-2 3,14 -24,3 -3,-13 -8,-7 -10,-15 -4,-18h24l15,-19Z"/>
    <path data-fips-int="15007" data-name="Kauai County" d="M173,17l14,7 3,16 -8,10 1,17 -19,16 -30,-6 -10,-10 -14,-4 -6,-9 1,-8 10,-14 26,-15 14,4 2,-5ZM54,58l5,1 -6,12 1,6 -15,7 -8,15 -6,-7 1,-12Z"/>
    <path data-fips-int="15009" data-name="Maui County" d="M657,242l13,8 9,16 17,-3 8,-6 15,2 21,15 2,6 19,5 4,14 -10,12 -16,7 -14,-1 -14,8h-21l-5,-4 -1,-23 -3,-12 -12,3 -18,-10 -8,-9 -1,-14 8,-13ZM664,321l4,4v13l-23,3 -3,-8ZM586,214l20,10 -3,-8 30,-1 5,5 -13,14 -15,5 -33,-10 -36,2 -7,-1 10,-15 -1,-8 12,3ZM590,261l16,3 14,13 2,7 -15,13 -16,-2 -1,-14 -11,-9 -1,-8Z"/>
  </g>
  <path class="mesh" d="M603,216l3,8 -20,-10"/>
  <g class="cities">
    <circle r="7" cx="422" cy="173"/>
    <text x="422" y="173">Pearl City</text>
    <circle r="7" cx="925" cy="484"/>
    <text x="925" y="484">Hilo</text>
    <circle r="7" cx="680" cy="270"/>
    <text x="680" y="270">Kahului</text>
  </g>
</svg>