<?xml version="1.0" encoding="utf-8"?>
<!DOCTYPE svg PUBLIC "-//W3C//DTD SVG 1.1//EN" "http://www.w3.org/Graphics/SVG/1.1/DTD/svg11.dtd">
<svg version="1.1" xmlns="http://www.w3.org/2000/svg" width="350" height="229" viewBox="0 0 350 229">
  <path class="state" transform="scale(0.1)" d="M2765,1344l73,32v10l75,43 37,5 89,32 77,36 86,65 37,43 -3,78 53,-2 15,29v35l68,56 38,14 -6,30 -42,43 -66,53 -42,15 -37,26 -40,12 -63,-3 -33,34 -42,18 -26,27 -27,5 -30,41v18l-50,72 -26,19 -22,-32 -53,-32 -52,-17 -23,-50 20,-144 -23,-92 -20,-6 -10,-65 -15,-34 -23,-8 -14,-81 43,-47 34,-9 20,-45 35,-31 6,-30 -45,-68 -5,-65 32,-30M1522,665l-59,-1 -79,13 -16,-45 -58,-76v-36l-32,-26 100,-5 48,-64 42,-18 30,54 51,62 -5,43 33,35 14,-30h26l-8,38 25,45 28,22 -36,26 -5,-17 -59,19 -40,-39M187,208l18,2 -18,38 6,26 -54,23 -25,52 -27,-17 12,-51 63,-44 25,-29M606,63l50,28 10,51 -25,36 2,58 -69,61 -35,-13 -58,-5 -40,-38 -58,-20 -13,-54 30,-49 106,-55 35,15 10,-19 55,4M2323,1129l18,17 -4,41 -33,-6 -50,12 5,-34 64,-30M2068,917l52,9 43,38 15,25 -23,40 -30,14 -45,-1 -17,-29 -7,-43 -33,-21 2,-21 43,-11M2301,849l46,29 29,58 40,-8 56,-25 57,12 75,67 71,30v45l-35,38 -55,20 -35,-5 -61,31 -47,5 -40,-16 -5,-75 -13,-47 -43,8 -50,-21 -42,-49 -6,-24 18,-56 40,-17M2051,751l30,-17 29,27 31,4 70,-10 23,18 -58,54 -41,13 -135,-38 -93,13 -39,-11 34,-45 3,-34 38,13 108,13"/>
  <g class="counties" transform="scale(0.1)">
    <path data-fips-int="15001" data-name="Hawaii County" d="M2765,1344l73,32v10l75,43 37,5 89,32 77,36 86,65 37,43 -3,78 53,-2 15,29v35l68,56 38,14 -6,30 -42,43 -66,53 -42,15 -37,26 -40,12 -63,-3 -33,34 -42,18 -26,27 -27,5 -30,41v18l-50,72 -26,19 -22,-32 -53,-32 -52,-17 -23,-50 20,-144 -23,-92 -20,-6 -10,-65 -15,-34 -23,-8 -14,-81 43,-47 34,-9 20,-45 35,-31 6,-30 -45,-68 -5,-65Z"/>
    <path data-fips-int="15005" data-name="Kalawao County" d="M2110,761l-2,4v23l-23,-22 -27,-10h-2l-5,-5 30,-17Z"/>
    <path data-fips-int="15003" data-name="Honolulu County" d="M1522,665l-59,-1 -79,13 -16,-45 -58,-76v-36l-32,-26 100,-5 48,-64 42,-18 30,54 51,62 -5,43 33,35 14,-30h26l-8,38 25,45 28,22 -36,26 -5,-17 -59,19Z"/>
    <path data-fips-int="15007" data-name="Kauai County" d="M187,208l18,2 -18,38 6,26 -54,23 -25,52 -27,-17 12,-51 63,-44ZM606,63l50,28 10,51 -25,36 2,58 -69,61 -35,-13 -58,-5 -40,-38 -58,-20 -13,-54 30,-49 106,-55 35,15 10,-19Z"/>
    <path data-fips-int="15009" data-name="Maui County" d="M2323,1129l18,17 -4,41 -33,-6 -50,12 5,-34ZM2068,917l52,9 43,38 15,25 -23,40 -30,14 -45,-1 -17,-29 -7,-43 -33,-21 2,-21ZM2301,849l46,29 29,58 40,-8 56,-25 57,12 75,67 71,30v45l-35,38 -55,20 -35,-5 -61,31 -47,5 -40,-16 -5,-75 -13,-47 -43,8 -50,-21 -42,-49 -6,-24 18,-56ZM2051,751l5,5h2l27,10 23,22v-23l2,-4 31,4 70,-10 23,18 -58,54 -41,13 -135,-38 -93,13 -39,-11 34,-45 3,-34 38,13Z"/>
  </g>
  <path class="mesh" transform="scale(0.1)" d="M2110,761l-2,4v23l-23,-22 -27,-10h-2l-5,-5"/>
  <g class="cities">
    <circle r="3" cx="147.5" cy="60.7"/>
    <text x="147.5" y="60.7">Pearl City</text>
    <circle r="3" cx="323.8" cy="169.5"/>
    <text x="323.8" y="169.5">Hilo</text>
    <circle r="3" cx="238.0" cy="94.7"/>
    <text x="238.0" y="94.7">Kahului</text>
  </g>
</svg>