<?xml version="1.0" encoding="utf-8"?>
<!DOCTYPE svg PUBLIC "-//W3C//DTD SVG 1.1//EN" "http://www.w3.org/Graphics/SVG/1.1/DTD/svg11.dtd">
<svg version="1.1" xmlns="http://www.w3.org/2000/svg" width="350" height="229" viewBox="0 0 350 229">
  <defs>
    <pattern id="pattern-no-results" width="50" height="50" patternUnits="userSpaceOnUse">
      <rect width="50" height="50" fill="#ddd"/>
      <path d="M-5,5L5,-5M-5,55L55,-5M45,55L55,45" stroke-width="10" stroke="#666666"/>
    </pattern>
  </defs>
  <g class="counties" transform="scale(0.1)">
    <path data-fips-int="15001" data-name="Hawaii County" d="M2765,1344l148,85 126,37 77,36 86,65 37,43 -3,78 53,-2 15,64 68,56 38,14 -6,30 -108,96 -119,53 -63,-3 -33,34 -95,50 -80,131 -26,19 -22,-32 -105,-49 -23,-50 20,-144 -23,-92 -20,-6 -25,-99 -23,-8 -14,-81 43,-47 34,-9 61,-106 -45,-68 -5,-65Z"/>
    <path data-fips-int="15005" data-name="Kalawao County" d="M2110,761l-2,4 -23,1 -27,-10 -2,0 2,0 -2,0 -5,-5 30,-17Z"/>
    <path data-fips-int="15003" data-name="Honolulu County" d="M1522,665l-138,12 -16,-45 -58,-76 0,-36 -32,-26 100,-5 48,-64 42,-18 30,54 51,62 -5,43 33,35 40,-30 -8,38 53,67 -100,28Z"/>
    <path data-fips-int="15007" data-name="Kauai County" d="M187,208l18,2 -12,64 -54,23 -25,52 -27,-17 12,-51ZM606,63l50,28 10,51 -25,36 2,58 -69,61 -93,-18 -40,-38 -58,-20 -13,-54 30,-49 106,-55Z"/>
    <path data-fips-int="15009" data-name="Maui County" d="M2323,1129l14,58 -83,6 5,-34ZM2068,917l52,9 58,63 -23,40 -75,13 -24,-72 -31,-42ZM2301,849l46,29 29,58 96,-33 57,12 75,67 71,30 0,45 -35,38 -90,15 -61,31 -87,-11 -18,-122 -43,8 -50,-21 -48,-73 18,-56ZM2051,751l5,5 2,0 -2,0 2,0 27,10 23,-1 2,-4 101,-6 23,18 -58,54 -41,13 -135,-38 -93,13 -39,-11 37,-79Z"/>
  </g>
  <g class="cities">
    <circle r="3" cx="147.5" cy="60.7"/>
    <text x="147.5" y="60.7">Pearl City</text>
    <circle r="3" cx="323.8" cy="169.5"/>
    <text x="323.8" y="169.5">Hilo</text>
    <circle r="3" cx="160.8" cy="60.9"/>
    <text x="160.8" y="60.9">Kailua</text>
  </g>
</svg>