<?xml version="1.0" encoding="utf-8"?>
<!DOCTYPE svg PUBLIC "-//W3C//DTD SVG 1.1//EN" "http://www.w3.org/Graphics/SVG/1.1/DTD/svg11.dtd">
<svg version="1.1" xmlns="http://www.w3.org/2000/svg" width="350" height="230" viewBox="0 0 350 230">
  <path class="state" transform="scale(0.1)" d="M1923,88l237,-2 237,-3 237,-6 197,-3 -6,35 16,26 -6,33 58,37 23,35 -58,90 2,34 18,86v35l23,15 20,90 45,37 42,14 98,24 35,66 3,50 38,17 7,17 40,23 32,40 -5,27 20,39 96,48 23,19 9,63 8,16 -12,40 7,35 -12,65 -48,29 -18,28 -12,51 2,41 -37,22 -25,31 -68,10 -30,36 -68,7 -35,2 -35,21 -30,-6 -31,12 -17,59 -18,65 41,51 29,11 19,52v84l-71,90 -7,89 -38,42h-35l-53,23 -27,39 24,33 -4,79 -58,6 -23,-22v-30l-29,-7 -21,-49 -33,-9 -20,-30 -5,-9 -238,12 -241,9 -242,6 -241,4 -243,3 -239,-1 -233,-7 -241,-9 -206,-7 6,-17 -23,-39 -22,-9 -23,-46 27,-21 -4,-63 19,-26 -12,-14 7,-36 -22,-22 5,-55 -8,-52 11,-20 -28,2 -5,-80 30,7 -13,-22 -32,-15 23,-76 -43,-15 5,-24 -50,-19 5,-36 -15,-12 10,-40 -10,-26 27,-75 -35,-43v-78l-50,-22 12,-17 -27,-12 5,-44 -42,-40 -1,-32 18,-11 -22,-56 -18,-17 -3,-48 20,-29 -15,-29 -35,-2 -10,-50 -2,-48 -58,-56 -5,-19 23,-55 25,-17 7,-47 23,-66 -10,-22 32,-18 10,-40 -10,-14 -4,-48 -44,-11 3,-24 20,-92 -33,-31 -4,-45 371,11 240,8 238,3 236,6 238,2 237,1h238"/>
  <g class="counties" transform="scale(0.1)">
    <path data-fips-int="19001" data-name="Adair County" d="M1298,1469l-3,240 -119,-2 -121,-2 5,-239Z"/>
    <path data-fips-int="19003" data-name="Adams County" d="M1055,1705l121,2 -3,179 -239,-4 3,-179Z"/>
    <path data-fips-int="19005" data-name="Allamakee County" d="M2860,364l-218,5 -2,-182h-5l-1,-110 197,-3 -6,35 16,26 -6,33 58,37 23,35 -58,90Z"/>
    <path data-fips-int="19007" data-name="Appanoose County" d="M2133,1889l2,213 -242,6 -1,-217Z"/>
    <path data-fips-int="19009" data-name="Audubon County" d="M1040,1217l-2,180 22,1v68l-176,-3v-68l-29,-1 5,-181Z"/>
    <path data-fips-int="19011" data-name="Benton County" d="M2544,1216l-241,3 -4,-302 120,-1 120,-3v191Z"/>
    <path data-fips-int="19013" data-name="Black Hawk County" d="M2406,677l1,120 10,1 2,118 -120,1 -121,3 -2,-121h-10v-59l-1,-60Z"/>
    <path data-fips-int="19015" data-name="Boone County" d="M1459,981l122,1v240l-62,-1 -180,-1 2,-240Z"/>
    <path data-fips-int="19017" data-name="Bremer County" d="M2404,493l2,184 -241,3 -2,-183Z"/>
    <path data-fips-int="19019" data-name="Buchanan County" d="M2659,912l-120,1 -120,3 -2,-118 -10,-1 -1,-120 243,-5v104l6,17Z"/>
    <path data-fips-int="19021" data-name="Buena Vista County" d="M965,489l-3,243 -241,-6 5,-241Z"/>
    <path data-fips-int="19023" data-name="Butler County" d="M2163,497l2,183 1,60 -241,1v-243Z"/>
    <path data-fips-int="19027" data-name="Carroll County" d="M985,975l118,2 -3,241 -60,-1 -180,-4 7,-240Z"/>
    <path data-fips-int="19029" data-name="Cass County" d="M884,1463l176,3 -5,239 -118,-2 -118,-2 5,-241Z"/>
    <path data-fips-int="19031" data-name="Cedar County" d="M3023,1146l3,121 3,120 -242,7 -4,-182 -1,-61Z"/>
    <path data-fips-int="19033" data-name="Cerro Gordo County" d="M1923,257l2,30v211h-241l1,-241Z"/>
    <path data-fips-int="19035" data-name="Cherokee County" d="M726,485l-5,241 -182,-5 -59,-1 6,-241Z"/>
    <path data-fips-int="19037" data-name="Chickasaw County" d="M2401,281l1,91 2,121 -241,4 -2,-212Z"/>
    <path data-fips-int="19039" data-name="Clarke County" d="M1652,1708v183h-241l3,-180 117,-4Z"/>
    <path data-fips-int="19041" data-name="Clay County" d="M970,251l-5,238 -239,-4 5,-240Z"/>
    <path data-fips-int="19043" data-name="Clayton County" d="M2860,364l18,86v35l23,15 20,90 45,37 42,14v21l-118,3 -241,7 -7,-303Z"/>
    <path data-fips-int="19045" data-name="Clinton County" d="M3404,1074l8,16 -12,40 7,35 -12,65 -48,29 -18,28 -57,-5 -25,-24 -56,12 -42,-3 -26,23 -39,-24 -58,1 -3,-121 -2,-60Z"/>
    <path data-fips-int="19047" data-name="Crawford County" d="M747,970l120,3 -7,240 -239,-5 -60,-1 8,-242Z"/>
    <path data-fips-int="19049" data-name="Dallas County" d="M1519,1221v183l12,1v60l-55,6 -178,-2v-68h-20l2,-181h59Z"/>
    <path data-fips-int="19051" data-name="Davis County" d="M2376,2093l-241,9 -2,-213 241,-4Z"/>
    <path data-fips-int="19053" data-name="Decatur County" d="M1652,1891v221l-243,3 2,-224Z"/>
    <path data-fips-int="19055" data-name="Delaware County" d="M2898,907l-120,3 -119,2 -4,-119 -6,-17v-104l241,-7 1,121Z"/>
    <path data-fips-int="19057" data-name="Des Moines County" d="M3014,1752v84l-71,90 -7,89 -48,-15 -48,-36 -62,-26h20l-5,-182Z"/>
    <path data-fips-int="19059" data-name="Dickinson County" d="M974,79l-4,172 -239,-6 5,-169Z"/>
    <path data-fips-int="19061" data-name="Dubuque County" d="M3229,838l-95,3v60l-118,3 -118,3 -7,-121 -1,-121 118,-3v-21l98,24 35,66 3,50 38,17 7,17Z"/>
    <path data-fips-int="19063" data-name="Emmet County" d="M1210,85l-2,169 -238,-3 4,-172Z"/>
    <path data-fips-int="19065" data-name="Fayette County" d="M2642,369l7,303 -243,5 -2,-184 -2,-121Z"/>
    <path data-fips-int="19067" data-name="Floyd County" d="M2161,285l2,212 -238,1v-211Z"/>
    <path data-fips-int="19069" data-name="Franklin County" d="M1925,498v243l-241,-1v-242Z"/>
    <path data-fips-int="19071" data-name="Fremont County" d="M696,2098l-206,-7 6,-17 -23,-39 -22,-9 -23,-46 27,-21 -4,-63 19,-26 224,7 -2,119h5Z"/>
    <path data-fips-int="19073" data-name="Greene County" d="M1341,980l-2,240h-59l-180,-2 3,-241 120,3Z"/>
    <path data-fips-int="19075" data-name="Grundy County" d="M2166,740v59h10l2,121 -120,1v60l-120,1 -1,-182h-12v-59Z"/>
    <path data-fips-int="19077" data-name="Guthrie County" d="M1280,1220l-2,181h20v68l-238,-3v-68l-22,-1 2,-180 60,1Z"/>
    <path data-fips-int="19079" data-name="Hamilton County" d="M1684,740v60l18,2v180h-121l-122,-1 4,-182h-20v-60Z"/>
    <path data-fips-int="19081" data-name="Hancock County" d="M1685,257l-1,241h-240l2,-242Z"/>
    <path data-fips-int="19083" data-name="Hardin County" d="M1925,741v59h12l1,182 -118,1 -118,-1v-180l-18,-2v-60Z"/>
    <path data-fips-int="19085" data-name="Harrison County" d="M561,1207l60,1 -5,179 32,1 -2,68 -258,-8 -50,-19 5,-36 -15,-12 10,-40 -10,-26 27,-75 -35,-43Z"/>
    <path data-fips-int="19087" data-name="Henry County" d="M2732,1696h61v60l5,182h-20l-163,3v-60l-3,-182Z"/>
    <path data-fips-int="19089" data-name="Howard County" d="M2401,281l-240,4 -1,-199 237,-3Z"/>
    <path data-fips-int="19091" data-name="Humboldt County" d="M1444,498l-1,181 -240,-2 2,-182Z"/>
    <path data-fips-int="19093" data-name="Ida County" d="M721,726l-2,60 33,1 -5,183 -178,-5 5,-182 -36,-1 1,-61Z"/>
    <path data-fips-int="19095" data-name="Iowa County" d="M2544,1216v131l5,111 -60,2 -183,4 -3,-245Z"/>
    <path data-fips-int="19097" data-name="Jackson County" d="M3229,838l32,40 -5,27 20,39 96,48 23,19 9,63 -383,12 -5,-182 118,-3v-60Z"/>
    <path data-fips-int="19099" data-name="Jasper County" d="M1820,1222l241,-1v164l7,82h-60l-236,1 -3,-64h-9v-182Z"/>
    <path data-fips-int="19101" data-name="Jefferson County" d="M2492,1701l120,-2 3,182 -241,4 -3,-182Z"/>
    <path data-fips-int="19103" data-name="Johnson County" d="M2783,1212l4,182 3,121 -60,1 -23,-60 -158,2 -5,-111v-131Z"/>
    <path data-fips-int="19105" data-name="Jones County" d="M2898,907l118,-3 5,182 2,60 -241,5 -4,-241Z"/>
    <path data-fips-int="19107" data-name="Keokuk County" d="M2489,1460l3,241 -121,2 -120,2 -5,-240 60,-1Z"/>
    <path data-fips-int="19109" data-name="Kossuth County" d="M1448,87l-2,169 -2,242 -239,-3 3,-241 2,-169Z"/>
    <path data-fips-int="19111" data-name="Lee County" d="M2778,1938l62,26 48,36 48,15 -38,42h-35l-53,23 -27,39 24,33 -4,79 -58,6 -23,-22v-30l-29,-7 -21,-49 -33,-9 -20,-30 -4,-149Z"/>
    <path data-fips-int="19113" data-name="Linn County" d="M2659,912l119,-2 4,241 1,61 -239,4 -5,-112v-191Z"/>
    <path data-fips-int="19115" data-name="Louisa County" d="M2790,1515v60l153,-2 -18,65 41,51 29,11 19,52 -221,4v-60h-61l-2,-180Z"/>
    <path data-fips-int="19117" data-name="Lucas County" d="M1772,1709l120,-1v183h-240v-183Z"/>
    <path data-fips-int="19119" data-name="Lyon County" d="M496,68l-3,170 -230,-7 -121,-6 20,-92 -33,-31 -4,-45Z"/>
    <path data-fips-int="19121" data-name="Madison County" d="M1531,1707l-117,4 -119,-2 3,-240 178,2 55,-6Z"/>
    <path data-fips-int="19123" data-name="Mahaska County" d="M2251,1705l-121,2 -119,1 -3,-241h60l178,-2Z"/>
    <path data-fips-int="19125" data-name="Marion County" d="M2011,1708h-119l-120,1v-229v-12l236,-1Z"/>
    <path data-fips-int="19127" data-name="Marshall County" d="M2058,981l3,240 -241,1v-239l118,-1Z"/>
    <path data-fips-int="19129" data-name="Mills County" d="M697,1697l-3,180 -224,-7 -12,-14 7,-36 -22,-22 5,-55 -8,-52Z"/>
    <path data-fips-int="19131" data-name="Mitchell County" d="M2161,285l-236,2 -2,-30v-169l237,-2Z"/>
    <path data-fips-int="19133" data-name="Monona County" d="M569,965l-8,242 -241,-10v-78l-50,-22 12,-17 -27,-12 5,-44 -42,-40 -1,-32Z"/>
    <path data-fips-int="19135" data-name="Monroe County" d="M2130,1707l3,182 -241,2v-183h119Z"/>
    <path data-fips-int="19137" data-name="Montgomery County" d="M819,1701l118,2 -3,179 -240,-5 3,-180Z"/>
    <path data-fips-int="19139" data-name="Muscatine County" d="M3029,1387l60,-2 2,100 -35,2 -35,21 -30,-6 -31,12 -17,59 -153,2v-60l-3,-121Z"/>
    <path data-fips-int="19141" data-name="O'Brien County" d="M731,245l-5,240 -240,-6 7,-241Z"/>
    <path data-fips-int="19143" data-name="Osceola County" d="M736,76l-5,169 -238,-7 3,-170Z"/>
    <path data-fips-int="19145" data-name="Page County" d="M934,1882l-2,119 7,7 -2,99 -241,-9 1,-102h-5l2,-119Z"/>
    <path data-fips-int="19147" data-name="Palo Alto County" d="M1208,254l-3,241 -240,-6 5,-238Z"/>
    <path data-fips-int="19149" data-name="Plymouth County" d="M486,479l-6,241 -328,-10 -2,-48 -58,-56 -5,-19 23,-55 25,-17 7,-47Z"/>
    <path data-fips-int="19151" data-name="Pocahontas County" d="M1205,495l-2,182 -2,60 -239,-5 3,-243Z"/>
    <path data-fips-int="19153" data-name="Polk County" d="M1581,1222h179v182h9l3,64v12l-60,-12 -181,-3v-60l-12,-1v-183Z"/>
    <path data-fips-int="19155" data-name="Pottawattamie County" d="M646,1456l178,4 -5,241 -122,-4 -257,-6 11,-20 -28,2 -5,-80 30,7 -13,-22 -32,-15 23,-76 -43,-15 5,-24Z"/>
    <path data-fips-int="19157" data-name="Poweshiek County" d="M2306,1464l-60,1 -178,2 -7,-82v-164l242,-2Z"/>
    <path data-fips-int="19159" data-name="Ringgold County" d="M1411,1891l-2,224 -239,-1 3,-228Z"/>
    <path data-fips-int="19161" data-name="Sac County" d="M962,732l-2,60 30,1 -5,182 -118,-2 -120,-3 5,-183 -33,-1 2,-60Z"/>
    <path data-fips-int="19163" data-name="Scott County" d="M3329,1287l-12,51 2,41 -37,22 -25,31 -68,10 -30,36 -68,7 -2,-100 -60,2 -3,-120 58,-1 39,24 26,-23 42,3 56,-12 25,24Z"/>
    <path data-fips-int="19165" data-name="Shelby County" d="M860,1213l-5,181 29,1v68l-60,-3 -178,-4 2,-68 -32,-1 5,-179Z"/>
    <path data-fips-int="19167" data-name="Sioux County" d="M493,238l-7,241 -344,-11 23,-66 -10,-22 32,-18 10,-40 -10,-14 -4,-48 -44,-11 3,-24 121,6Z"/>
    <path data-fips-int="19169" data-name="Story County" d="M1702,982l118,1v239h-60h-179v-240Z"/>
    <path data-fips-int="19171" data-name="Tama County" d="M2303,1219l-242,2 -3,-240v-60l120,-1 121,-3Z"/>
    <path data-fips-int="19173" data-name="Taylor County" d="M1173,1886l-3,228 -233,-7 2,-99 -7,-7 2,-119Z"/>
    <path data-fips-int="19175" data-name="Union County" d="M1295,1709l119,2 -3,180 -238,-5 3,-179Z"/>
    <path data-fips-int="19177" data-name="Van Buren County" d="M2615,1881v60l4,149 -5,-9 -238,12 -2,-208Z"/>
    <path data-fips-int="19179" data-name="Wapello County" d="M2371,1703l3,182 -241,4 -3,-182 121,-2Z"/>
    <path data-fips-int="19181" data-name="Warren County" d="M1772,1480v229l-120,-1 -121,-1v-242l181,3Z"/>
    <path data-fips-int="19183" data-name="Washington County" d="M2730,1516l2,180 -120,3 -120,2 -3,-241 60,-2 158,-2Z"/>
    <path data-fips-int="19185" data-name="Wayne County" d="M1892,1891l1,217 -241,4v-221Z"/>
    <path data-fips-int="19187" data-name="Webster County" d="M1443,679v60v60h20l-4,182 -118,-1h-118l2,-184h-24v-59l2,-60Z"/>
    <path data-fips-int="19189" data-name="Winnebago County" d="M1685,88v169l-239,-1 2,-169Z"/>
    <path data-fips-int="19191" data-name="Winneshiek County" d="M2634,77l1,110h5l2,182 -240,3 -1,-91 -4,-198Z"/>
    <path data-fips-int="19193" data-name="Woodbury County" d="M480,720l59,1 -1,61 36,1 -5,182 -352,-13 18,-11 -22,-56 -18,-17 -3,-48 20,-29 -15,-29 -35,-2 -10,-50Z"/>
    <path data-fips-int="19195" data-name="Worth County" d="M1923,257h-238v-169h238Z"/>
    <path data-fips-int="19197" data-name="Wright County" d="M1684,498v242l-241,-1v-60l1,-181Z"/>
    <path data-fips-int="19025" data-name="Calhoun County" d="M1201,737v59h24l-2,184 -120,-3 -118,-2 5,-182 -30,-1 2,-60Z"/>
  </g>
  <path class="mesh" transform="scale(0.1)" d="M1176,1707l-3,179 -239,-4 3,-179 118,2M2860,364l-218,5 -2,-182h-5l-1,-110M1893,2108l-1,-217 241,-2 2,213M860,1213l7,-240 118,2 118,2 -3,241 -60,-1 -2,180 22,1v68l-176,-3v-68l-29,-1 5,-181 180,4M2299,917l-121,3 -2,-121h-10v-59l-1,-60 241,-3 1,120 10,1 2,118M2165,680l-2,-183 241,-4 2,184 243,-5v104l6,17 4,119 -120,1M1205,495l-240,-6M937,1703l-118,-2 5,-241 60,3M2166,740l-241,1v-243l238,-1 -2,-212 240,-4 1,91 2,121M2402,372l240,-3M3329,1287l-57,-5 -25,-24 -56,12 -42,-3 -26,23 -39,-24 -58,1M3023,1146l3,121 3,120 -242,7 -4,-182 -1,-61 241,-5 -2,-60 383,-12M860,1213l-239,-5 -60,-1 8,-242 178,5 120,3M1519,1221v183l12,1v60l-55,6 -178,-2 -3,240 -119,-2 -121,-2 5,-239 238,3v-68h-20l2,-181h59M2130,1707l3,182 241,-4 2,208M1652,1708v183h-241l3,-180 117,-4 121,1 120,1 120,-1v183h-240v221M1170,2114l3,-228 238,5M2890,665l1,121 7,121 -120,3 -119,2M2936,2015l-48,-15 -48,-36 -62,-26h20l-5,-182 221,-4M1210,85l-2,169 -238,-3M142,468l344,11 7,-241 238,7 5,-169M3229,838l-95,3v60l-118,3 -118,3M470,1870l224,7 -2,119h5l-1,102M1280,1220l-180,-2M1103,977l120,3h118M1459,981l122,1v240l-62,-1 -180,-1 2,-240 118,1 4,-182h-20v-60l241,1v60l18,2v180h-121M1685,88v169M1938,982l-118,1 -118,-1M621,1208l-5,179 32,1 -2,68 -258,-8M320,1197l241,10M2778,1938l-163,3v-60l-3,-182 120,-3h61v60M1925,287l236,-2 -1,-199M2397,83l4,198M1444,498l-1,181 -240,-2 2,-182 239,3M721,726l-2,60 33,1 -5,183M217,952l352,13 5,-182 -36,-1 1,-61M2058,981l3,240 242,-2M3021,1086l-5,-182M2615,1881l-241,4 -3,-182 121,-2 120,-2M2787,1394l3,121 -60,1 -23,-60 -158,2M2544,1216l239,-4M2782,1151l-4,-241M2489,1460l3,241M2371,1703l-120,2 -5,-240 60,-1M1448,87l-2,169M1205,495l3,-241M2619,2090l-4,-149M2790,1515v60l153,-2M2732,1696l-2,-180M496,68l-3,170 -230,-7 -121,-6M1414,1711l-119,-2M1772,1480l-60,-12 -181,-3v242M2251,1705l-121,2 -119,1 -3,-241M2068,1467l178,-2M2011,1708h-119M1772,1709v-229v-12M1820,1222l241,-1v164l7,82h-60l-236,1 -3,-64h-9v-182h60v-239M934,1882l-240,-5M1923,257l2,30v211h-241l1,-241h238v-169M697,1697l122,4M3029,1387l60,-2 2,100M934,1882l-2,119 7,7 -2,99M480,720l-328,-10M1581,1222h179M646,1456l178,4M1203,677l-2,60 -239,-5 -2,60 30,1 -5,182M1443,679v60M1223,980l2,-184h-24v-59M3008,641v21l-118,3 -241,7 -7,-303M1409,2115l2,-224M974,79l-4,172M2178,920l-120,1v60l-120,1 -1,-182h-12v-59l-241,-1v-242h-240l2,-242 239,1M440,1691l257,6 -3,180M2544,1216l-241,3M2303,1219l-4,-302M2299,917l120,-1M2419,916l120,-3M2539,913v191l5,112M965,489l-3,243M962,732l-241,-6M721,726l5,-241M726,485l239,4M721,726l-182,-5M539,721l-59,-1M480,720l6,-241M486,479l240,6M970,251l-5,238M726,485l5,-240M731,245l239,6M2544,1216v131l5,111M2549,1458l-60,2M2489,1460l-183,4M2306,1464l-3,-245"/>
  <g class="cities">
    <circle r="3" cx="162.6" cy="140.4"/>
    <text x="162.6" y="140.4">Des Moines</text>
    <circle r="3" cx="263.9" cy="111.3"/>
    <text x="263.9" y="111.3">Cedar Rapids</text>
    <circle r="3" cx="319.8" cy="143.4"/>
    <text x="319.8" y="143.4">Davenport</text>
  </g>
</svg>