<?xml version="1.0" encoding="utf-8"?>
<!DOCTYPE svg PUBLIC "-//W3C//DTD SVG 1.1//EN" "http://www.w3.org/Graphics/SVG/1.1/DTD/svg11.dtd">
<svg version="1.1" xmlns="http://www.w3.org/2000/svg" width="225" height="350" viewBox="0 0 225 350">
  <path class="state" transform="scale(0.1)" d="M181,2051l24,-41 -3,-45 41,-53 16,-60 4,-22 52,-111 23,-29 -44,-79 -62,-37 -24,-35 -24,-68 -11,-5 22,-40 -20,-65 -23,-27 11,-31 0,-57 10,-276 4,-113 9,-288 11,-211 6,-199 4,-72 306,7 -7,236 -5,248 44,65 17,8 6,35 33,28 10,48 -23,17 38,47 -27,14 53,37 8,25 64,20 24,52 52,49 11,37 29,17 4,36 58,55 4,22 27,-20 23,50 38,0 36,-17 15,8 -12,70 -15,2 7,42 -14,59 -15,7 8,48 -22,0 17,34 -8,49 24,5 8,47 -43,20 -15,27 22,38 -23,70 11,-7 48,32 13,21 22,-10 10,-31 19,3 85,-73 11,35 32,8 -10,38 22,0 -5,34 17,28 -2,30 49,66 4,27 43,33 4,47 -19,6 15,40 38,37 31,-18 40,21 29,69 -13,14 27,34 -6,18 19,30 53,22 -9,-24 19,-28 104,2 32,11 6,-38 24,-17 65,20 77,-21 16,25 38,-25 30,3 36,-7 4,-68 51,-15 41,52 -2,21 62,47 9,231 10,228 8,226 9,240 10,241 -162,7 -212,6 -312,5 -225,7 -225,0 -266,-3 -499,-10 -200,-10 17,-519 11,-271 4,-77 15,-18 18,-70 -12,-27 27,-30 -24,-23 0,-22 -25,7 -17,-25 -24,10 -16,-18 10,-23 -16,-25 7,-37 27,-30 41,-98 35,-17 13,-25Z"/>
  <g class="counties" transform="scale(0.1)">
    <path data-fips-int="16001" data-name="Ada County" d="M374,2547l102,103 -6,226 -99,-1 -40,-40 -14,-48 -28,1 0,-1 2,-79 14,0 2,-83 -15,0 4,-81Z"/>
    <path data-fips-int="16003" data-name="Adams County" d="M437,1933l15,25 -19,52 -13,30 -4,10 -5,43 16,30 -9,56 7,42 -20,-5 -29,30 -37,-2 -39,-23 1,-58 -24,-2 -6,-21 2,-84 -92,-5 24,-41 -3,-45 41,-53 16,-60 114,3 12,37 -1,40Z"/>
    <path data-fips-int="16005" data-name="Bannock County" d="M1822,2918l-7,33 -22,27 10,35 -5,31 13,27 46,-12 3,19 17,30 17,93 -5,76 -31,-13 -49,0 -1,0 -23,-30 -26,12 -22,3 11,-43 -32,-40 -13,0 13,-68 -14,0 -36,-69 -1,-59 -10,-10 -19,-10 -45,25 -4,-5 -2,-15 24,-34Z"/>
    <path data-fips-int="16007" data-name="Bear Lake County" d="M2165,3156l16,-10 10,241 -162,7 -7,-37 -25,-7 -12,-46 20,-40 -3,-27 -4,-20 -8,-11 0,-7 -14,-73 10,-10 84,-2 29,17 13,-25 4,58Z"/>
    <path data-fips-int="16009" data-name="Benewah County" d="M405,842l-5,185 -42,-9 -121,-1 -41,-42 -23,-5 4,-113 131,0 14,-20Z"/>
    <path data-fips-int="16011" data-name="Bingham County" d="M1657,2635l1,62 1,33 139,-2 25,5 1,22 76,-3 1,40 81,-2 3,123 -163,5 -213,3 -24,34 -23,43 -66,1 -2,-118 -1,-83 21,0 3,-78 41,0 -1,-40 41,-5 0,-36Z"/>
    <path data-fips-int="16013" data-name="Blaine County" d="M1221,2668l33,-9 12,43 20,3 -8,58 93,-1 0,40 122,-4 1,83 -81,2 4,163 21,0 0,42 -20,21 0,4 -24,-4 -24,-26 -34,10 -1,-85 20,0 -1,-167 -103,0 -227,2 -8,-61 -48,-2 -3,-50 10,-27 -24,-28 -33,-18 8,-33 -13,-69 -53,7 2,-12 -47,-20 7,-38 31,-25 22,0 0,30 47,2 40,38 16,-25 77,7 2,25 70,45 14,-20 20,35 36,26Z"/>
    <path data-fips-int="16015" data-name="Boise County" d="M714,2301l39,22 3,43 33,16 25,40 -18,25 22,12 -3,28 -31,-1 -20,-15 -13,-52 -37,73 -76,23 -15,42 -21,7 -4,25 -2,1 -22,25 -62,37 -36,-2 -102,-103 2,0 5,-163 22,0 19,2 14,-15 4,-27 138,5 79,-2Z"/>
    <path data-fips-int="16017" data-name="Bonner County" d="M506,330l-5,248 -16,-17 -42,-28 -31,25 0,60 -57,-2 2,-48 -41,5 -130,-4 11,-211 6,-199 78,3 -5,163Z"/>
    <path data-fips-int="16019" data-name="Bonneville County" d="M1961,2627l79,0 54,-2 10,30 60,25 8,226 -187,7 -3,-123 -81,2 -1,-40 -76,3 -1,-22 -25,-5 -139,2 -1,-33 -1,-62 192,-3Z"/>
    <path data-fips-int="16021" data-name="Boundary County" d="M506,330l-230,-5 5,-163 -78,-3 4,-72 306,7Z"/>
    <path data-fips-int="16023" data-name="Butte County" d="M1338,2510l-1,-46 12,-28 0,-82 32,-2 110,-1 2,125 101,-2 4,165 0,36 -41,5 1,40 -41,0 -3,78 -21,0 -122,4 0,-40 -93,1 8,-58 -20,-3 -12,-43 -33,9 13,-26 78,-45 29,-32 24,-10 3,5Z"/>
    <path data-fips-int="16025" data-name="Camas County" d="M951,2675l24,28 -10,27 3,50 48,2 8,61 -76,0 -170,-2 4,-191 17,-8 8,-35 -11,-23 19,-54 47,20 -2,12 53,-7 13,69 -8,33Z"/>
    <path data-fips-int="16027" data-name="Canyon County" d="M228,2542l68,2 -4,81 15,0 -2,83 -14,0 -2,79 -24,-7 -67,-87 -19,-53 -23,-3 -17,-32 -21,-6 4,-77 15,-18 9,21 33,22Z"/>
    <path data-fips-int="16029" data-name="Caribou County" d="M2164,3156l-48,8 -4,-58 -13,25 -29,-17 -84,2 -10,10 14,73 -47,-5 -1,3 0,2 -48,2 -17,-93 -17,-30 -3,-19 -46,12 -13,-27 5,-31 -10,-35 22,-27 7,-33 163,-5 187,-7 9,240Z"/>
    <path data-fips-int="16031" data-name="Cassia County" d="M1418,3113l0,-4 22,20 59,0 3,122 3,154 -225,7 -225,0 -1,-200 75,0 0,-46 24,-5 23,-5 59,-7 38,7 28,-53 35,-10 34,-10 24,26Z"/>
    <path data-fips-int="16033" data-name="Clark County" d="M1953,2191l1,70 -58,3 1,39 -21,1 0,62 -18,20 -41,1 1,42 -41,0 -183,3 0,42 -101,2 -2,-125 62,1 -2,-69 -9,-24 19,-28 104,2 32,11 6,-38 24,-17 65,20 77,-21 16,25 38,-25Z"/>
    <path data-fips-int="16035" data-name="Clearwater County" d="M840,1077l4,36 58,55 4,22 27,-20 23,50 -337,71 -2,17 -32,50 -14,25 -11,5 -13,-9 -42,-5 -29,-33 -33,-7 -7,-18 -39,-1 -18,-27 -26,-12 1,-65 40,2 3,-145 233,7Z"/>
    <path data-fips-int="16037" data-name="Custer County" d="M1368,2555l0,5 -3,-5 -24,10 -29,32 -78,45 -13,26 -24,-38 -36,-26 -20,-35 -14,20 -70,-45 -2,-25 -77,-7 -16,25 -40,-38 -47,-2 0,-30 -22,0 -31,25 -7,-5 3,-28 -22,-12 18,-25 -25,-40 -33,-16 -3,-43 -39,-22 23,-53 -22,-45 -1,-9 9,-21 38,-25 3,-13 22,-37 18,17 28,8 46,-42 4,14 -6,18 29,43 35,0 20,37 39,-17 21,-26 20,-64 44,-30 3,19 -5,13 0,5 -4,20 45,-5 22,48 1,0 47,53 23,25 105,29 20,-9 25,44 15,54 -32,2 0,82 -12,28Z"/>
    <path data-fips-int="16039" data-name="Elmore County" d="M784,2486l31,1 7,5 -7,38 -19,54 11,23 -8,35 -17,8 -4,191 -2,135 18,2 -1,66 -146,-1 5,-77 -28,-6 -37,-7 -45,7 -8,-15 -44,-7 -17,17 -44,-20 -58,-60 99,1 6,-226 36,2 62,-37 22,-25 2,-1 4,-25 21,-7 15,-42 76,-23 37,-73 13,52Z"/>
    <path data-fips-int="16041" data-name="Franklin County" d="M1990,3199l0,7 8,11 4,20 3,27 -20,40 12,46 25,7 7,37 -212,6 -2,-79 13,-34 -19,-23 49,0 31,13 5,-76 48,-2 0,-2 1,-3Z"/>
    <path data-fips-int="16043" data-name="Fremont County" d="M1985,2496l-3,9 -95,-3 -3,-13 -44,0 -1,-20 -61,2 -1,-42 41,0 -1,-42 41,-1 18,-20 0,-62 21,-1 -1,-39 58,-3 -1,-70 36,-7 4,-68 51,-15 41,52 -2,21 62,47 9,231 -43,24 -42,10 -17,-10 -16,10 -47,6Z"/>
    <path data-fips-int="16045" data-name="Gem County" d="M425,2221l0,80 -20,2 -2,81 -22,0 -5,163 -2,0 -78,-3 -68,-2 2,-83 48,3 14,-40 28,0 2,-40 31,0 5,-35 -1,-5 8,-68 11,-28 29,-30Z"/>
    <path data-fips-int="16047" data-name="Gooding County" d="M948,2843l-1,165 -9,0 0,95 -66,-10 -13,-37 -29,-10 10,-45 -18,-21 -27,-4 -1,2 -18,-2 2,-135Z"/>
    <path data-fips-int="16049" data-name="Idaho County" d="M964,1729l-33,40 -44,-12 0,27 66,68 -33,46 -243,-1 -183,-4 3,-5 -60,45 -53,-1 1,-40 -12,-37 -114,-3 4,-22 52,-111 23,-29 -44,-79 -62,-37 19,-25 13,-42 21,-18 32,20 10,-61 22,-32 86,22 13,-27 27,0 17,-5 -25,-20 -24,-52 33,7 29,33 42,5 13,9 11,-5 14,-25 32,-50 2,-17 337,-71 38,0 36,-17 15,8 -12,70 -15,2 7,42 -14,59 -15,7 8,48 -22,0 17,34 -8,49 24,5 8,47 -43,20 -15,27 22,38Z"/>
    <path data-fips-int="16051" data-name="Jefferson County" d="M1777,2429l1,42 61,-2 1,20 0,83 23,-3 44,31 4,7 50,5 0,15 -112,5 -192,3 -59,4 -4,-165 0,-42Z"/>
    <path data-fips-int="16053" data-name="Jerome County" d="M1176,3046l0,110 -23,5 -42,11 -44,-28 -44,-20 -32,0 -53,-21 0,-95 9,0 79,0 7,20 103,0 0,18Z"/>
    <path data-fips-int="16055" data-name="Kootenai County" d="M412,618l-7,224 -83,-5 -14,20 -131,0 9,-288 130,4 41,-5 -2,48Z"/>
    <path data-fips-int="16057" data-name="Latah County" d="M400,1027l-3,41 -3,145 -40,-2 -62,4 -25,35 -104,-4 10,-276 23,5 41,42 121,1Z"/>
    <path data-fips-int="16059" data-name="Lemhi County" d="M1551,2283l2,69 -62,-1 -110,1 -15,-54 -25,-44 -20,9 -105,-29 -23,-25 -47,-53 -1,0 -22,-48 -45,5 4,-20 0,-5 5,-13 -3,-19 -44,30 -20,64 -21,26 -39,17 -20,-37 -35,0 -29,-43 6,-18 -4,-14 30,-38 3,-138 9,-7 33,-46 -66,-68 0,-27 44,12 33,-40 11,-7 48,32 13,21 22,-10 10,-31 19,3 85,-73 11,35 32,8 -10,38 22,0 -5,34 17,28 -2,30 49,66 4,27 43,33 4,47 -19,6 15,40 38,37 31,-18 40,21 29,69 -13,14 27,34 -6,18 19,30Z"/>
    <path data-fips-int="16061" data-name="Lewis County" d="M379,1288l18,27 39,1 7,18 24,52 25,20 -17,5 -27,0 -13,27 -86,-22 -22,32 -10,61 -32,-20 -21,18 2,-154 73,1 42,-16 -18,-52Z"/>
    <path data-fips-int="16063" data-name="Lincoln County" d="M1251,2841l1,167 -18,0 1,38 -59,0 -40,0 0,-18 -103,0 -7,-20 -79,0 1,-165 76,0Z"/>
    <path data-fips-int="16065" data-name="Madison County" d="M1986,2496l3,-4 47,-6 4,141 -79,0 0,-15 -50,-5 -4,-7 -44,-31 -23,3 0,-83 44,0 3,13 95,3Z"/>
    <path data-fips-int="16067" data-name="Minidoka County" d="M1336,3093l-35,10 -28,53 -38,-7 -59,7 0,-110 59,0 -1,-38 18,0 -1,-167 103,0 1,167 -20,0Z"/>
    <path data-fips-int="16069" data-name="Nez Perce County" d="M354,1211l-1,65 26,12 -16,-2 18,52 -42,16 -73,-1 -2,154 -13,42 -19,25 -24,-35 -24,-68 -11,-5 22,-40 -20,-65 -23,-27 11,-31 0,-57 104,4 25,-35Z"/>
    <path data-fips-int="16071" data-name="Oneida County" d="M1703,3166l13,0 32,40 -11,43 22,-3 26,-12 23,30 1,0 19,23 -13,34 2,79 -312,5 -3,-154 121,-2 -1,-42 55,0 -2,-41Z"/>
    <path data-fips-int="16073" data-name="Owyhee County" d="M118,2599l21,6 17,32 23,3 19,53 67,87 24,7 0,1 28,-1 14,48 40,40 58,60 44,20 17,-17 44,7 8,15 45,-7 37,7 28,6 -5,77 146,1 -4,365 -499,-10 -200,-10 17,-519Z"/>
    <path data-fips-int="16075" data-name="Payette County" d="M322,2382l-2,40 -28,0 -14,40 -48,-3 -2,83 -49,5 -33,-22 -9,-21 18,-70 -12,-27 27,-30Z"/>
    <path data-fips-int="16077" data-name="Power County" d="M1494,2881l2,118 66,-1 23,-43 2,15 4,5 45,-25 19,10 10,10 1,59 36,69 14,0 -13,68 -28,0 2,41 -55,0 1,42 -121,2 -3,-122 -59,0 -22,-20 20,-21 0,-42 -21,0 -4,-163Z"/>
    <path data-fips-int="16079" data-name="Shoshone County" d="M485,561l16,17 44,65 17,8 6,35 33,28 10,48 -23,17 38,47 -27,14 53,37 8,25 64,20 24,52 52,49 11,37 29,17 -210,-2 -233,-7 3,-41 5,-185 7,-224 0,-60 31,-25Z"/>
    <path data-fips-int="16081" data-name="Teton County" d="M2154,2452l10,228 -60,-25 -10,-30 -54,2 -4,-141 16,-10 17,10 42,-10Z"/>
    <path data-fips-int="16083" data-name="Twin Falls County" d="M938,3103l53,21 32,0 44,20 44,28 42,-11 -24,5 0,46 -75,0 1,200 -266,-3 4,-365 1,-66 1,-2 27,4 18,21 -10,45 29,10 13,37Z"/>
    <path data-fips-int="16085" data-name="Valley County" d="M920,1898l-9,7 -3,138 -30,38 -46,42 -28,-8 -18,-17 -22,37 -3,13 -38,25 -9,21 1,9 22,45 -23,53 -57,46 -79,2 -138,-5 -4,27 -14,15 -19,-2 2,-81 20,-2 0,-80 -7,-42 9,-56 -16,-30 5,-43 4,-10 13,-30 19,-52 -15,-25 60,-45 -3,5 183,4Z"/>
    <path data-fips-int="16087" data-name="Washington County" d="M376,2246l-11,28 -8,68 1,5 -5,35 -31,0 -152,-5 -24,-23 0,-22 -25,7 -17,-25 -24,10 -16,-18 10,-23 -16,-25 7,-37 27,-30 41,-98 35,-17 13,-25 92,5 -2,84 6,21 24,2 -1,58 39,23Z"/>
  </g>
  <g class="cities">
    <circle r="3" cx="40.0" cy="263.9"/>
    <text x="40.0" y="263.9">Boise</text>
    <circle r="3" cx="182.5" cy="269.6"/>
    <text x="182.5" y="269.6">Idaho Falls</text>
    <circle r="3" cx="169.1" cy="299.2"/>
    <text x="169.1" y="299.2">Pocatello</text>
  </g>
</svg>