<?xml version="1.0" encoding="utf-8"?>
<!DOCTYPE svg PUBLIC "-//W3C//DTD SVG 1.1//EN" "http://www.w3.org/Graphics/SVG/1.1/DTD/svg11.dtd">
<svg version="1.1" xmlns="http://www.w3.org/2000/svg" width="642" height="1000" viewBox="0 0 642 1000">
  <path class="state" d="M442,652l-2,-7 10,-10 33,6 9,-15 10,3 21,-1 10,-3 5,7 11,-7 8,1h14l-6,-8 3,-12 15,-6 12,15 -1,5 18,14 3,67 2,64 3,65 3,68 2,70 -46,2 -61,2 -89,2 -42,1h-86l-77,-1h-37l-50,-2 -62,-1 -51,-2 8,-211 2,-16v-21l4,-6 5,-13 -3,-10 8,-13 -7,-12 -7,1 -6,-7 -10,-1 3,-8 -5,-7 2,-12 6,-6 12,-29 11,-4 4,-8 7,-13 -1,-12 11,-16 5,-17 14,-31 9,-15 -7,-10v-7l-12,-5 -12,-10 -6,-10 -7,-20 3,-12 -9,-25 -1,-28 4,-79 1,-31 2,-83 6,-117 1,-20 87,1 -2,68 -2,70 18,32 11,6 2,23 5,11 -11,2 19,13 2,6 19,5 2,10 10,8 10,15 2,7 8,6 4,14 14,9v8l11,-4 5,13 23,-4 -1,22h-5l2,12 -4,17 -4,2 2,14 -2,24h4l4,15 -12,4 -6,11 7,12 -7,5v11h9l12,14 7,-3 2,-9 6,1 24,-21 4,11 8,2 -2,10h6l-2,10 5,17 28,36v13l-5,2 7,14 9,8 7,-5 12,6 9,19 -4,5 7,9 4,13Z"/>
  <g class="counties">
    <path data-fips-int="16001" data-name="Ada County" d="M106,727l29,30 -2,64 -27,-1 -12,-10 -1,-11 -11,-2v-23l5,-3v-21h-4v-24Z"/>
    <path data-fips-int="16003" data-name="Adams County" d="M124,552l5,5 -3,15 -7,10 -2,16 4,36 -6,-2 -8,9h-12l-10,-7v-16l-7,-1 -2,-30 -25,-1 7,-13 -1,-12 11,-16 5,-17 33,1 3,22Z"/>
    <path data-fips-int="16005" data-name="Bannock County" d="M519,833l1,5 -8,11 1,21 3,7 13,-3 6,13 5,27 -1,22 -23,-3 -7,-9 -8,5 -6,-4 3,-14 -12,-7 4,-19h-5l-7,-12 -3,-24 -8,-8 -11,8 -4,-5 7,-9Z"/>
    <path data-fips-int="16007" data-name="Bear Lake County" d="M623,898l2,70 -46,2 -2,-11 -9,-4 -2,-11 6,-24 -4,-6 2,-5 -6,-14 3,-5 38,1 -2,13Z"/>
    <path data-fips-int="16009" data-name="Benewah County" d="M115,240l-2,53 -11,-2h-36l-10,-7 -7,-8 1,-31h37l4,-6Z"/>
    <path data-fips-int="16011" data-name="Bingham County" d="M473,753v27l47,1v5h22v12l23,-1 1,35 -47,1 -60,2 -7,9 -6,13h-19l-1,-34v-23h6v-22h12v-13l12,-1v-10Z"/>
    <path data-fips-int="16013" data-name="Blaine County" d="M348,762l9,-2 4,12h5l-2,17h27v11h35v23h-23l1,48 6,-1v12l-6,7 -9,-2 -4,-7 -10,3v-25h6l-1,-46h-94l-2,-17 -14,-1 -5,-31 -9,-4 1,-20 -3,-10 -15,3 1,-4 -14,-6 2,-10 9,-8h6v8l15,2 8,10 6,-6 21,1 2,7 18,14 7,-6 5,9 10,8Z"/>
    <path data-fips-int="16015" data-name="Boise County" d="M203,657l11,7 2,13 14,7 -3,12 5,14 -8,1 -6,-6 -4,-14 -13,21 -19,6 -3,10 -6,1 -5,13 -22,15h-11l-29,-30 1,-1 2,-45h5l10,1 1,-13 58,2 11,-4 4,-11Z"/>
    <path data-fips-int="16017" data-name="Bonner County" d="M144,94l-2,70 -16,-12 -9,7v17h-16v-14h-49l6,-117h22l-2,48Z"/>
    <path data-fips-int="16019" data-name="Bonneville County" d="M560,750h38l3,11 16,4 3,65 -54,2 -1,-35 -23,1v-12h-22v-5l-47,-1v-27l52,-1Z"/>
    <path data-fips-int="16021" data-name="Boundary County" d="M144,94l-66,-1 2,-48h-22l1,-20 87,1Z"/>
    <path data-fips-int="16023" data-name="Butte County" d="M425,671l1,36 29,-1 1,48v10l-12,1v13h-12v22h-41v-11h-27l2,-17h-5l-4,-12 -9,2 5,-8 17,-9 19,-16 -8,-8v-25h4v-24h9Z"/>
    <path data-fips-int="16025" data-name="Camas County" d="M292,812h-71l2,-55 4,-2v-16l5,-17 14,6 -1,4 15,-3 3,10 -1,20 9,4 5,31 14,1Z"/>
    <path data-fips-int="16027" data-name="Canyon County" d="M63,726h20v24h4v21l-5,3v23l-6,-2 -20,-25 -5,-16 -7,-1 -10,-11v-21l4,-6 3,7 10,5Z"/>
    <path data-fips-int="16029" data-name="Caribou County" d="M566,832l54,-2 3,68 -20,6 2,-13 -38,-1 -3,5 6,14 -2,5h-28l-5,-27 -6,-13 -13,3 -3,-7 -1,-21 8,-11 -1,-5Z"/>
    <path data-fips-int="16031" data-name="Cassia County" d="M404,889l6,5h18v35l1,45 -42,1h-86l-2,-58h23v-13l7,-1 6,-2 14,-3 5,5 10,-3 6,-13 11,-4 10,-3 4,7Z"/>
    <path data-fips-int="16033" data-name="Clark County" d="M557,626v19l-16,1v12h-6v17l-6,7h-11l1,11 -12,1 -52,1v11l-29,1 -1,-36 18,1 -1,-20 -2,-7 10,-10 33,6 9,-15 10,3 21,-1 10,-3 5,7 11,-7Z"/>
    <path data-fips-int="16035" data-name="Clearwater County" d="M239,308l4,14 14,9v8l11,-4 5,13 -50,11 -47,9 -9,15 -5,13 -19,-3 -7,-10 -10,-2 -2,-6h-11l-5,-7 -8,-4v-18h12l1,-41 62,1 2,1Z"/>
    <path data-fips-int="16037" data-name="Custer County" d="M394,672h-9v24h-4v25l8,8 -19,16 -17,9 -5,8 -7,-11 -10,-8 -5,-9 -7,6 -18,-14 -2,-7 -21,-1 -6,6 -8,-10 -15,-2v-8h-6l-9,8 -2,-2 -5,-14 3,-12 -14,-7 -2,-13 -11,-7 7,-10 -1,-14 -6,-9 10,-5 10,-19 17,5 10,-11 -1,10 9,12 9,-1 7,11 10,-4 7,-8 -2,-10 16,-17h4l-2,17 13,-2 9,18 14,12 19,12 15,2 4,-4 9,14Z"/>
    <path data-fips-int="16039" data-name="Elmore County" d="M232,710l2,2 -2,10 -5,17v16l-4,2 -2,55v38h5v20l-42,-1 2,-22 -32,-2 -16,-8 -3,7 -19,-9 -10,-15 27,1 2,-64h11l22,-15 5,-13 6,-1 3,-10 19,-6 13,-21 4,14 6,6Z"/>
    <path data-fips-int="16041" data-name="Franklin County" d="M568,914l4,6 -6,24 2,11 9,4 2,11 -61,2v-24l3,-10 -5,-5 23,3 1,-22Z"/>
    <path data-fips-int="16043" data-name="Fremont County" d="M615,701l-13,6 -21,3h-13l-3,6 -26,-2v-4l-14,1v-6h-18v-11l12,-1 -1,-11h11l6,-7v-17h6v-12l16,-1v-19h14l-6,-8 3,-12 15,-6 12,15 -1,5 18,14Z"/>
    <path data-fips-int="16045" data-name="Gem County" d="M121,634v24h-6l-1,23h-5l-2,45 -1,1 -23,-1h-20l2,-23h13l5,-11h8v-11h9l2,-24 5,-16 8,-9Z"/>
    <path data-fips-int="16047" data-name="Gooding County" d="M270,812v46h-2l-1,28 -20,-3 -2,-11 -9,-2 4,-12 -6,-8h-13v-38Z"/>
    <path data-fips-int="16049" data-name="Idaho County" d="M274,493l-7,11 -15,-3 4,12 15,15 -9,14h-72l-50,-1 -13,4 -3,7 -15,-1 -3,-22 -33,-1 14,-31 9,-15 -7,-10v-7l-12,-5 -12,-10 7,-6 -2,-8 5,-5 10,-5 6,5 2,-19 6,-8 24,7 4,-8 12,-3 -10,-8 -3,-11 10,2 7,10 19,3 5,-13 9,-15 47,-9 50,-11 23,-4 -1,22h-5l2,12 -4,17 -4,2 2,14 -2,24h4l4,15 -12,4 -6,11 7,12 -7,5Z"/>
    <path data-fips-int="16051" data-name="Jefferson County" d="M507,694v11h18v29l35,16 -35,2 -52,1 -17,1 -1,-48v-11Z"/>
    <path data-fips-int="16053" data-name="Jerome County" d="M335,871v30l-6,2 -16,4 -4,-7 -27,-7 -15,-7 1,-28h24l3,6 29,1v6Z"/>
    <path data-fips-int="16055" data-name="Kootenai County" d="M117,176l-2,64 -24,-1 -4,6h-37l2,-83h49v14Z"/>
    <path data-fips-int="16057" data-name="Latah County" d="M113,293v12l-1,41h-25l-11,10 -31,-1 4,-79 7,8 10,7h36Z"/>
    <path data-fips-int="16059" data-name="Lemhi County" d="M442,652l1,20 -18,-1 -31,1 -4,-16 -9,-14 -4,4 -15,-2 -19,-12 -14,-12 -9,-18 -13,2 2,-17h-4l-16,17 2,10 -7,8 -10,4 -7,-11 -9,1 -9,-12 1,-10 8,-9 1,-37 3,-6 9,-14 -15,-15 -4,-12 15,3 7,-11h9l12,14 7,-3 2,-9 6,1 24,-21 4,11 8,2 -2,10h6l-2,10 5,17 28,36v13l-5,2 7,14 9,8 7,-5 12,6 9,19 -4,5 7,9 4,13Z"/>
    <path data-fips-int="16061" data-name="Lewis County" d="M108,368l5,7h11l2,6 3,11 10,8 -12,3 -4,8 -24,-7 -6,8 -2,19 -6,-5 -10,5v-46l21,2 12,-3 -4,-16Z"/>
    <path data-fips-int="16063" data-name="Lincoln County" d="M357,812v47h-5v12h-28v-6l-29,-1 -3,-6h-22v-46h22Z"/>
    <path data-fips-int="16065" data-name="Madison County" d="M581,710l1,40h-22l-35,-16v-23l14,-1v4l26,2 3,-6Z"/>
    <path data-fips-int="16067" data-name="Minidoka County" d="M381,883l-11,4 -6,13 -10,3 -5,-5 -14,3v-30h17v-12h5v-47h29l1,46h-6Z"/>
    <path data-fips-int="16069" data-name="Nez Perce County" d="M100,346v18l8,4h-4l4,16 -12,3 -21,-2v46l-5,5 2,8 -7,6 -6,-10 -7,-20 3,-12 -9,-25 -1,-28 31,1 11,-10Z"/>
    <path data-fips-int="16071" data-name="Oneida County" d="M486,904l12,7 -3,14 6,4 8,-5 7,9 5,5 -3,10v24l-89,2 -1,-45 35,-1v-12h15v-12Z"/>
    <path data-fips-int="16073" data-name="Owyhee County" d="M34,742l10,11 7,1 5,16 20,25 6,2 11,2 1,11 12,10 10,15 19,9 3,-7 16,8 32,2 -2,22 42,1 -2,104h-37l-50,-2 -62,-1 -51,-2 8,-211Z"/>
    <path data-fips-int="16075" data-name="Payette County" d="M91,681v11h-8l-5,11h-13l-2,23 -12,1 -10,-5 -3,-7 5,-13 -3,-10 8,-13Z"/>
    <path data-fips-int="16077" data-name="Power County" d="M426,823l1,34h19l6,-13 4,5 11,-8 8,8 3,24 7,12h5l-4,19h-8v12h-15v12l-35,1v-35h-18l-6,-5 6,-7v-12l-6,1 -1,-48Z"/>
    <path data-fips-int="16079" data-name="Shoshone County" d="M142,164l18,32 11,6 2,23 5,11 -11,2 19,13 2,6 19,5 2,10 10,8 10,15 2,7 8,6 -62,-1 -2,-1 -62,-1v-12l2,-53 2,-64v-17l9,-7Z"/>
    <path data-fips-int="16081" data-name="Teton County" d="M615,701l2,64 -16,-4 -3,-11h-16l-1,-40 21,-3Z"/>
    <path data-fips-int="16083" data-name="Twin Falls County" d="M267,886l15,7 27,7 4,7 16,-4 -7,1v13h-23l2,58 -77,-1 2,-104v-20h8l6,8 -4,12 9,2 2,11Z"/>
    <path data-fips-int="16085" data-name="Valley County" d="M262,542l-3,6 -1,37 -8,9 -10,11 -17,-5 -10,19 -10,5 6,9 1,14 -7,10 -5,-1 -4,11 -11,4 -58,-2 -1,13 -10,-1 1,-23h6v-24l-4,-36 2,-16 7,-10 3,-15 -5,-5 3,-7 13,-4 50,1Z"/>
    <path data-fips-int="16087" data-name="Washington County" d="M107,641l-5,16 -2,24h-9l-43,-2 -7,-12 -7,1 -6,-7 -10,-1 3,-8 -5,-7 2,-12 6,-6 12,-29 11,-4 4,-8 25,1 2,30 7,1v16l10,7Z"/>
  </g>
  <path class="mesh" d="M73,528l33,1 3,22 15,1 5,5 -3,15 -7,10 -2,16 4,36 -6,-2 -8,9h-12l-10,-7v-16l-7,-1 -2,-30 -25,-1M452,844l-6,13h-19l-1,-34v-23h6v-22h12v-13l12,-1v-10l17,-1v27l47,1v5h22v12l23,-1 1,35 -47,1 1,5 -8,11 1,21 3,7 13,-3 6,13 5,27 -1,22 -23,-3 -7,-9 -8,5 -6,-4 3,-14 -12,-7 4,-19h-5l-7,-12 -3,-24 -8,-8 -11,8 -4,-5 7,-9 60,-2M579,970l-2,-11 -9,-4 -2,-11 6,-24 -4,-6 2,-5 -6,-14 3,-5 38,1 -2,13 20,-6M50,245h37l4,-6 24,1 -2,53 -11,-2h-36l-10,-7 -7,-8M426,823h-23l1,48 6,-1v12l-6,7 -9,-2 -4,-7 -10,3v-25h6l-1,-46h-94l-2,-17 -14,-1 -5,-31 -9,-4 1,-20 -3,-10 -15,3 1,-4 -14,-6 2,-10 9,-8h6v8l15,2 8,10 6,-6 21,1 2,7 18,14 7,-6 5,9 10,8 7,11 9,-2 4,12h5l-2,17h27v11h35M142,164l-16,-12 -9,7v17h-16v-14h-49M58,45h22l-2,48 66,1M473,753l52,-1 35,-2h38l3,11 16,4M620,830l-54,2M348,762l5,-8 17,-9 19,-16 -8,-8v-25h4v-24h9l31,-1 1,36 29,-1 1,48M292,812h-71l2,-55 4,-2v-16l5,-17M38,715l3,7 10,5 12,-1h20M82,797l-6,-2 -20,-25 -5,-16 -7,-1 -10,-11M568,914h-28M404,889l6,5h18v35l1,45M301,975l-2,-58h23v-13l7,-1 6,-2 14,-3 5,5 10,-3 6,-13 11,-4M557,626v19l-16,1v12h-6v17l-6,7h-11l1,11 -12,1 -52,1v11M425,671l18,1 -1,-20M106,727l29,30M273,348l-50,11 -47,9 -9,15 -5,13 -19,-3 -7,-10 -10,-2 -2,-6h-11l-5,-7 -8,-4v-18h12l1,-41 62,1 2,1 62,1M234,712l-2,-2M203,657l11,7 2,13 14,7 -3,12 5,14 -8,1 -6,-6 -4,-14 -13,21 -19,6 -3,10 -6,1 -5,13 -22,15h-11l-2,64 -27,-1 -12,-10 -1,-11 -11,-2v-23l5,-3v-21h-4v-24l23,1 1,-1 2,-45h5l10,1 1,-13 58,2 11,-4 4,-11 5,1 7,-10 -1,-14 -6,-9 10,-5 10,-19 17,5 10,-11 -1,10 9,12 9,-1 7,11 10,-4 7,-8 -2,-10 16,-17h4l-2,17 13,-2 9,18 14,12 19,12 15,2 4,-4 9,14 4,16M221,812v38h5v20l-42,-1 2,-22 -32,-2 -16,-8 -3,7 -19,-9 -10,-15M518,972v-24l3,-10 -5,-5M615,701l-13,6 -21,3h-13l-3,6 -26,-2v-4l-14,1v-6h-18v-11M121,634v24h-6l-1,23M63,726l2,-23h13l5,-11h8v-11h9l2,-24 5,-16M270,812v46h-2l-1,28 -20,-3 -2,-11 -9,-2 4,-12 -6,-8h-8M274,493l-7,11 -15,-3 4,12 15,15 -9,14h-72l-50,-1 -13,4 -3,7M65,450l7,-6 -2,-8 5,-5 10,-5 6,5 2,-19 6,-8 24,7 4,-8 12,-3 -10,-8 -3,-11M525,711v23l35,16M270,858h22l3,6 29,1v6h11v30M329,903l-16,4 -4,-7 -27,-7 -15,-7M117,176l-2,64M113,293v12M100,346h-13l-11,10 -31,-1M250,594l8,-9 1,-37 3,-6M75,431v-46l21,2 12,-3 -4,-16h4M357,812v47h-5v12h-17M581,710l1,40M428,929l35,-1v-12h15v-12h8M226,870l-2,104M48,679l43,2"/>
  <g class="cities">
    <circle r="7" cx="111" cy="756"/>
    <text x="111" y="756">Boise City</text>
    <circle r="7" cx="521" cy="770"/>
    <text x="521" y="770">Idaho Falls</text>
    <circle r="7" cx="483" cy="855"/>
    <text x="483" y="855">Pocatello</text>
  </g>
</svg>