<?xml version="1.0" encoding="utf-8"?>
<!DOCTYPE svg PUBLIC "-//W3C//DTD SVG 1.1//EN" "http://www.w3.org/Graphics/SVG/1.1/DTD/svg11.dtd">
<svg version="1.1" xmlns="http://www.w3.org/2000/svg" width="225" height="350" viewBox="0 0 225 350">
  <path class="state" transform="scale(0.1)" d="M181,2051l24,-41 -3,-45 41,-53 16,-60 7,-30 40,-62 9,-41 23,-29 -24,-38 -1,-25 -39,-16 -42,-37 -21,-25 -27,-78 -11,-5 22,-38 -20,-69 -23,-23 11,-30v-60l10,-276 4,-113 9,-288 11,-211 6,-199 4,-72 306,7 -7,236 -5,248 67,106 33,30 9,47 -22,23 20,8 16,35 -25,13 53,37 8,25 64,20 24,52 21,10 42,76 29,17 3,35 59,48 -6,25 44,-12 16,47 78,-17 11,8 -12,70h-15l7,44 -14,59 -15,5 8,50h-22l17,34 -8,48 24,8 8,47 -43,18 -15,28 22,37 -22,31 -1,39 11,-7 48,32 13,21 22,-10 10,-31 19,3 52,-53 15,-25 18,5 11,35 32,8 -10,38h22l-3,50 31,77 31,31 4,27 43,33 2,50 -17,3 15,40 38,37 31,-18 40,21 29,69 -13,14 28,37v32l55,45 10,-10 -7,-24 17,-28 104,2 28,13 13,-43 21,-14 65,20 77,-21 16,25 38,-25 30,3 36,-7 4,-68 51,-15 41,52 -2,21 62,47 9,231 10,226 8,228 9,240 10,241 -162,7 -212,6 -312,5 -225,7h-225l-266,-3 -214,-4 -347,-8 -138,-8 17,-519 11,-271 4,-77 15,-18 18,-70 -12,-27 27,-30 -24,-23v-22l-25,7 -23,-25 -34,-8 10,-23 -16,-22 8,-45 26,-25 31,-88 45,-27 13,-25"/>
  <g class="counties" transform="scale(0.1)">
    <path data-fips-int="16001" data-name="Ada County" d="M374,2547l100,107 2,-4 -6,226 -99,-1 -39,-37 -15,-53 -28,2 2,-79h14l2,-83h-15l4,-81Z"/>
    <path data-fips-int="16003" data-name="Adams County" d="M437,1933l17,22 -38,93 -5,37 16,38 -9,55 7,43 -20,-5 -29,30 -37,-2 -39,-23 1,-58 -24,-2 -6,-21 2,-84 -92,-5 24,-41 -3,-45 41,-53 16,-60 114,3 12,37 -1,40Z"/>
    <path data-fips-int="16005" data-name="Bannock County" d="M1822,2918l-7,33 -22,27 12,35 -7,31 13,27 46,-12 20,49 17,93 -5,76 -31,-13 -50,2 -23,-32 -48,15 10,-62 -44,-21 13,-70h-14l-36,-67 -1,-59 -22,-25 -40,16 -18,-5 24,-35Z"/>
    <path data-fips-int="16007" data-name="Bear Lake County" d="M2181,3146l10,241 -162,7 -3,-29 -29,-15 -13,-54 21,-30 2,-39 -17,-28 6,-17 -20,-56 10,-10 84,-2 29,17 13,-25 4,58 38,-1Z"/>
    <path data-fips-int="16009" data-name="Benewah County" d="M405,842l-5,185 -42,-9 -121,-1 -41,-42 -23,-5 4,-113h131l14,-18Z"/>
    <path data-fips-int="16011" data-name="Bingham County" d="M1657,2634l2,96 139,-2 25,5 1,22 76,-2 1,39 81,-2 3,123 -163,5 -213,3 -24,35 -23,42 -66,1 -2,-119 -1,-80h21l3,-78h41l-1,-44 41,-1v-38Z"/>
    <path data-fips-int="16013" data-name="Blaine County" d="M1221,2668l36,-6 9,40 20,3 -8,58 93,-1v40l122,-2 1,80 -81,3 4,165h21v40l-20,23h-24l-25,-30 -33,12 -1,-85h20l-1,-167h-103l-227,2 -8,-60 -48,-3 -7,-78 -12,-32 -31,-13 8,-33 -13,-69 -53,7 2,-12 -47,-20 7,-38 31,-25h22v30l47,2 50,38 6,-25 77,7 3,26 61,44 22,-20 20,33 36,28Z"/>
    <path data-fips-int="16015" data-name="Boise County" d="M714,2301l39,22 10,49 41,15 10,30 -18,20 22,22 -3,28 -28,4 -23,-20 -13,-52 -38,75 -57,13 -27,22 1,20 -28,15 -14,36 -76,52 -36,-2 -2,4 -100,-107h2l5,-163h22l33,3 4,-43 198,5 25,-5Z"/>
    <path data-fips-int="16017" data-name="Bonner County" d="M506,330l-5,248 -58,-45 -31,25v60l-57,-2 2,-48 -41,5 -130,-4 11,-211 6,-199 78,1 -5,165Z"/>
    <path data-fips-int="16019" data-name="Bonneville County" d="M1961,2627h79l54,-2 15,37 55,16 8,228 -187,7 -3,-123 -81,2 -1,-39 -76,2 -1,-22 -25,-5 -139,2 -2,-96 192,-4Z"/>
    <path data-fips-int="16021" data-name="Boundary County" d="M506,330l-230,-5 5,-165 -78,-1 4,-72 306,7Z"/>
    <path data-fips-int="16023" data-name="Butte County" d="M1491,2351l2,125 101,-2 4,165v38l-41,1 1,44h-41l-3,78h-21l-122,2v-40l-93,1 8,-58 -20,-3 -9,-40 -36,6 13,-26 63,-33 68,-54 1,-5 -29,-26 -2,-88h14v-82l32,-2Z"/>
    <path data-fips-int="16025" data-name="Camas County" d="M1024,2843h-76l-170,-2 4,-191 17,-6 8,-39 -11,-20 19,-55 47,20 -2,12 53,-7 13,69 -8,33 31,13 12,32 7,78 48,3Z"/>
    <path data-fips-int="16027" data-name="Canyon County" d="M228,2542l68,2 -4,81h15l-2,83h-14l-2,79 -24,-7 -14,-32 -53,-51 -19,-57 -23,-5 -17,-31 -21,-5 4,-77 15,-18 42,43Z"/>
    <path data-fips-int="16029" data-name="Caribou County" d="M1985,2913l187,-7 9,240 -27,17 -38,1 -4,-58 -13,25 -29,-17 -84,2 -10,10 20,56 -6,17 -48,-2 -48,4 -17,-93 -20,-49 -46,12 -13,-27 7,-31 -12,-35 22,-27 7,-33Z"/>
    <path data-fips-int="16031" data-name="Cassia County" d="M1418,3111l22,17h59l3,123 3,154 -225,7h-225l-1,-200h75v-46l24,-5 23,-5 59,-7 38,7 28,-53 35,-10 33,-12 25,30Z"/>
    <path data-fips-int="16033" data-name="Clark County" d="M1953,2191l1,70 -58,3 1,39 -21,1v62l-18,20 -41,1 1,42h-41l-183,3v42l-101,2 -2,-125 62,1 -2,-69 -7,-24 17,-28 104,2 28,13 13,-43 21,-14 65,20 77,-21 16,25 38,-25Z"/>
    <path data-fips-int="16035" data-name="Clearwater County" d="M840,1077l3,35 59,48 -6,25 44,-12 16,47 -337,71 -2,19 -32,33 -16,45 -64,-14 -29,-33 -33,-5 -7,-20 -39,-3 -18,-23 -26,-14 1,-65 40,2 3,-145 233,7Z"/>
    <path data-fips-int="16037" data-name="Custer County" d="M1381,2352l-32,2v82h-14l2,88 29,26 -1,5 -68,54 -63,33 -13,26 -24,-38 -36,-28 -20,-33 -22,20 -61,-44 -3,-26 -77,-7 -6,25 -50,-38 -47,-2v-30h-22l-31,25 -7,-5 3,-28 -22,-22 18,-20 -10,-30 -41,-15 -10,-49 -39,-22 24,-38v-34l-23,-18 6,-38 38,-18 5,-37 27,-18 23,26 16,-3 48,-42 -2,32 29,43h35l20,37 31,-9 29,-34 20,-64 44,-30 -6,57 45,-5 27,57 66,69 103,30 17,-15 30,49Z"/>
    <path data-fips-int="16039" data-name="Elmore County" d="M815,2487l7,5 -7,38 -19,55 11,20 -8,39 -17,6 -4,191 -1,132 18,3 -2,68 -146,-1 5,-77 -53,-3 -12,-10 -45,7 -8,-15 -51,-15 -24,25 -68,-52 -20,-28 99,1 6,-226 36,2 76,-52 14,-36 28,-15 -1,-20 27,-22 57,-13 38,-75 13,52 23,20Z"/>
    <path data-fips-int="16041" data-name="Franklin County" d="M1990,3199l17,28 -2,39 -21,30 13,54 29,15 3,29 -212,6 -2,-79 13,-34 -20,-21 50,-2 31,13 5,-76 48,-4Z"/>
    <path data-fips-int="16043" data-name="Fremont County" d="M2154,2452l-46,27 -72,7 -46,3 -8,16 -95,-5 -3,-11h-44l-1,-20 -61,2 -1,-42h41l-1,-42 41,-1 18,-20v-62l21,-1 -1,-39 58,-3 -1,-70 36,-7 4,-68 51,-15 41,52 -2,21 62,47Z"/>
    <path data-fips-int="16045" data-name="Gem County" d="M425,2221v80l-20,2 -2,81h-22l-5,163h-2l-78,-3 -68,-2 2,-83 48,3 14,-40h28l2,-40h31l6,-79 17,-57 29,-30Z"/>
    <path data-fips-int="16047" data-name="Gooding County" d="M948,2843l-1,165h-9v95l-66,-9 -17,-45 -25,-3 10,-43 -18,-27h-27l-18,-3 1,-132Z"/>
    <path data-fips-int="16049" data-name="Idaho County" d="M964,1729l-37,40 -40,-17v32l40,35 22,33 -29,46 -243,-1 -183,-4 -51,17 -6,23 -53,-1 1,-40 -12,-37 -114,-3 7,-30 40,-62 9,-41 23,-29 -24,-38 -1,-25 -39,-16 -42,-37 17,-10 -3,-35 18,-23 21,-17 32,20 10,-61 22,-32 80,23 19,-26 44,-9 -36,-33 -13,-35 33,5 29,33 64,14 16,-45 32,-33 2,-19 337,-71 78,-17 11,8 -12,70h-15l7,44 -14,59 -15,5 8,50h-22l17,34 -8,48 24,8 8,47 -43,18 -15,28 22,37 -22,31Z"/>
    <path data-fips-int="16051" data-name="Jefferson County" d="M1777,2429l1,42 61,-2 1,20v81l24,-3 41,33 56,27 -112,3 -192,4 -59,5 -4,-165v-42Z"/>
    <path data-fips-int="16053" data-name="Jerome County" d="M1176,3048v108l-23,5 -42,11 -44,-29 -44,-17h-32l-53,-23v-95h9h79l7,20h103v20Z"/>
    <path data-fips-int="16055" data-name="Kootenai County" d="M412,618l-7,224 -83,-3 -14,18h-131l9,-288 130,4 41,-5 -2,48Z"/>
    <path data-fips-int="16057" data-name="Latah County" d="M400,1027l-3,41 -3,145 -40,-2h-58l-29,39 -104,-4 10,-276 23,5 41,42 121,1Z"/>
    <path data-fips-int="16059" data-name="Lemhi County" d="M1551,2283l2,69 -62,-1 -110,1 -15,-54 -30,-49 -17,15 -103,-30 -66,-69 -27,-57 -45,5 6,-57 -44,30 -20,64 -29,34 -31,9 -20,-37h-35l-29,-43 2,-32 28,-33 1,-130 13,-20 29,-46 -22,-33 -40,-35v-32l40,17 37,-40 11,-7 48,32 13,21 22,-10 10,-31 19,3 52,-53 15,-25 18,5 11,35 32,8 -10,38h22l-3,50 31,77 31,31 4,27 43,33 2,50 -17,3 15,40 38,37 31,-18 40,21 29,69 -13,14 28,37v32l55,45Z"/>
    <path data-fips-int="16061" data-name="Lewis County" d="M379,1290l18,23 39,3 7,20 13,35 36,33 -44,9 -19,26 -80,-23 -22,32 -10,61 -32,-20 -21,17 2,-153 73,1 39,-6Z"/>
    <path data-fips-int="16063" data-name="Lincoln County" d="M1251,2841l1,167h-18l1,40h-59h-40v-20h-103l-7,-20h-79l1,-165h76Z"/>
    <path data-fips-int="16065" data-name="Madison County" d="M2036,2486l4,141h-79l-56,-27 -41,-33 -24,3v-81h44l3,11 95,5 8,-16Z"/>
    <path data-fips-int="16067" data-name="Minidoka County" d="M1336,3093l-35,10 -28,53 -38,-7 -59,7v-108h59l-1,-40h18l-1,-167h103l1,167h-20Z"/>
    <path data-fips-int="16069" data-name="Nez Perce County" d="M354,1211l-1,65 26,14 -1,58 -39,6 -73,-1 -2,153 -18,23 3,35 -17,10 -21,-25 -27,-78 -11,-5 22,-38 -20,-69 -23,-23 11,-30v-60l104,4 29,-39Z"/>
    <path data-fips-int="16071" data-name="Oneida County" d="M1703,3166l44,21 -10,62 48,-15 23,32 20,21 -13,34 2,79 -312,5 -3,-154 121,-2 -1,-42h55l-2,-41Z"/>
    <path data-fips-int="16073" data-name="Owyhee County" d="M118,2599l21,5 17,31 23,5 19,57 53,51 14,32 24,7 28,-2 15,53 39,37 20,28 68,52 24,-25 51,15 8,15 45,-7 12,10 53,3 -5,77 146,1 -4,365 -214,-4 -347,-8 -138,-8 17,-519Z"/>
    <path data-fips-int="16075" data-name="Payette County" d="M322,2382l-2,40h-28l-14,40 -48,-3 -2,83 -49,5 -42,-43 18,-70 -12,-27 27,-30Z"/>
    <path data-fips-int="16077" data-name="Power County" d="M1494,2880l2,119 66,-1 23,-42 18,5 40,-16 22,25 1,59 36,67h14l-13,70h-28l2,41h-55l1,42 -121,2 -3,-123h-59l-22,-17 20,-23v-40h-21l-4,-165Z"/>
    <path data-fips-int="16079" data-name="Shoshone County" d="M501,578l67,106 33,30 9,47 -22,23 20,8 16,35 -25,13 53,37 8,25 64,20 24,52 21,10 42,76 29,17 -210,-2 -233,-7 3,-41 5,-185 7,-224v-60l31,-25Z"/>
    <path data-fips-int="16081" data-name="Teton County" d="M2154,2452l10,226 -55,-16 -15,-37 -54,2 -4,-141 72,-7Z"/>
    <path data-fips-int="16083" data-name="Twin Falls County" d="M938,3103l53,23h32l44,17 44,29 42,-11 -24,5v46h-75l1,200 -266,-3 4,-365 2,-68h27l18,27 -10,43 25,3 17,45Z"/>
    <path data-fips-int="16085" data-name="Valley County" d="M920,1898l-13,20 -1,130 -28,33 -48,42 -16,3 -23,-26 -27,18 -5,37 -38,18 -6,38 23,18v34l-24,38 -51,43 -25,5 -198,-5 -4,43 -33,-3 2,-81 20,-2v-80l-7,-43 9,-55 -16,-38 5,-37 38,-93 -17,-22 6,-23 51,-17 183,4Z"/>
    <path data-fips-int="16087" data-name="Washington County" d="M376,2246l-17,57 -6,79h-31l-152,-5 -24,-23v-22l-25,7 -23,-25 -34,-8 10,-23 -16,-22 8,-45 26,-25 31,-88 45,-27 13,-25 92,5 -2,84 6,21 24,2 -1,58 39,23Z"/>
  </g>
  <path class="mesh" transform="scale(0.1)" d="M259,1852l114,3 12,37 -1,40 53,1 17,22 -38,93 -5,37 16,38 -9,55 7,43 -20,-5 -29,30 -37,-2 -39,-23 1,-58 -24,-2 -6,-21 2,-84 -92,-5M1585,2956l-23,42 -66,1 -2,-119 -1,-80h21l3,-78h41l-1,-44 41,-1v-38l59,-5 2,96 139,-2 25,5 1,22 76,-2 1,39 81,-2 3,123 -163,5 -7,33 -22,27 12,35 -7,31 13,27 46,-12 20,49 17,93 -5,76 -31,-13 -50,2 -23,-32 -48,15 10,-62 -44,-21 13,-70h-14l-36,-67 -1,-59 -22,-25 -40,16 -18,-5 24,-35 213,-3M2029,3394l-3,-29 -29,-15 -13,-54 21,-30 2,-39 -17,-28 6,-17 -20,-56 10,-10 84,-2 29,17 13,-25 4,58 38,-1 27,-17M177,857h131l14,-18 83,3 -5,185 -42,-9 -121,-1 -41,-42 -23,-5M1494,2880l-81,3 4,165h21v40l-20,23h-24l-25,-30 -33,12 -1,-85h20l-1,-167h-103l-227,2 -8,-60 -48,-3 -7,-78 -12,-32 -31,-13 8,-33 -13,-69 -53,7 2,-12 -47,-20 7,-38 31,-25h22v30l47,2 50,38 6,-25 77,7 3,26 61,44 22,-20 20,33 36,28 24,38 36,-6 9,40 20,3 -8,58 93,-1v40l122,-2M501,578l-58,-45 -31,25v60l-57,-2 2,-48 -41,5 -130,-4M203,159l78,1 -5,165 230,5M1657,2634l192,-4 112,-3h79l54,-2 15,37 55,16M2172,2906l-187,7M1221,2668l13,-26 63,-33 68,-54 1,-5 -29,-26 -2,-88h14v-82l32,-2 110,-1 2,125 101,-2 4,165M1024,2843h-76l-170,-2 4,-191 17,-6 8,-39 -11,-20 19,-55M289,2787l2,-79h14l2,-83h-15l4,-81 78,3h2l5,-163h22l33,3 4,-43 198,5 25,-5 51,-43 39,22 10,49 41,15 10,30 -18,20 22,22 -3,28 -28,4 -23,-20 -13,-52 -38,75 -57,13 -27,22 1,20 -28,15 -14,36 -76,52 -36,-2 -6,226 -99,-1 -39,-37 -15,-53 -28,2 -24,-7 -14,-32 -53,-51 -19,-57 -23,-5 -17,-31 -21,-5M1990,3199l-48,-2 -48,4M1418,3111l22,17h59l3,123 3,154M1055,3412l-1,-200h75v-46l24,-5 23,-5 59,-7 38,7 28,-53 35,-10M1953,2191l1,70 -58,3 1,39 -21,1v62l-18,20 -41,1 1,42h-41l-183,3v42M1491,2351l62,1 -2,-69M956,1220l-337,71 -2,19 -32,33 -16,45 -64,-14 -29,-33 -33,-5 -7,-20 -39,-3 -18,-23 -26,-14 1,-65 40,2 3,-145 233,7 210,2M822,2492l-7,-5M714,2301l24,-38v-34l-23,-18 6,-38 38,-18 5,-37 27,-18 23,26 16,-3 48,-42 -2,32 29,43h35l20,37 31,-9 29,-34 20,-64 44,-30 -6,57 45,-5 27,57 66,69 103,30 17,-15 30,49 15,54M778,2841l-1,132 18,3 -2,68 -146,-1 5,-77 -53,-3 -12,-10 -45,7 -8,-15 -51,-15 -24,25 -68,-52 -20,-28M1817,3400l-2,-79 13,-34 -20,-21M2154,2452l-46,27 -72,7 -46,3 -8,16 -95,-5 -3,-11h-44l-1,-20 -61,2 -1,-42M425,2221v80l-20,2 -2,81M228,2542l2,-83 48,3 14,-40h28l2,-40h31l6,-79 17,-57M948,2843l-1,165h-9v95l-66,-9 -17,-45 -25,-3 10,-43 -18,-27h-27M964,1729l-37,40 -40,-17v32l40,35 22,33 -29,46 -243,-1 -183,-4 -51,17 -6,23M232,1574l17,-10 -3,-35 18,-23 21,-17 32,20 10,-61 22,-32 80,23 19,-26 44,-9 -36,-33 -13,-35M1840,2489v81l24,-3 41,33 56,27M947,3008h79l7,20h103v20h40v108M1153,3161l-42,11 -44,-29 -44,-17h-32l-53,-23M412,618l-7,224M400,1027l-3,41M354,1211h-58l-29,39 -104,-4M878,2081l28,-33 1,-130 13,-20M264,1506l2,-153 73,1 39,-6 1,-58M1251,2841l1,167h-18l1,40h-59M2036,2486l4,141M1502,3251l121,-2 -1,-42h55l-2,-41h28M793,3044l-4,365M170,2377l152,5M137,2504l42,43 49,-5 68,2M374,2547l100,107 2,-4"/>
  <g class="cities">
    <circle r="3" cx="40.0" cy="263.9"/>
    <text x="40.0" y="263.9">Boise</text>
    <circle r="3" cx="182.5" cy="269.6"/>
    <text x="182.5" y="269.6">Idaho Falls</text>
    <circle r="3" cx="26.6" cy="71.3"/>
    <text x="26.6" y="71.3">Coeur d'Alene</text>
  </g>
</svg>