<?xml version="1.0" encoding="utf-8"?>
<!DOCTYPE svg PUBLIC "-//W3C//DTD SVG 1.1//EN" "http://www.w3.org/Graphics/SVG/1.1/DTD/svg11.dtd">
<svg version="1.1" xmlns="http://www.w3.org/2000/svg" width="225" height="350" viewBox="0 0 225 350">
  <g class="counties" transform="scale(0.1)">
    <path data-fips-int="16001" data-name="Ada County" d="M374,2546l101,107 1,-3 0,54 -2,46 0,42 -3,43 -1,42 -99,-2 -12,-4 -12,-22 -5,0 -11,-14 4,-18 -9,-15 -1,-9 -7,-6 -29,1 2,-80 13,0 3,-82 -14,0 3,-82Z"/>
    <path data-fips-int="16003" data-name="Adams County" d="M437,1933l1,14 17,8 -6,4 1,8 -10,7 -2,11 7,10 -6,17 -8,-1 -2,20 -9,6 -4,11 -4,46 9,8 -1,12 8,10 -5,22 -1,18 -4,14 7,43 -10,2 -10,-8 -7,21 -7,-1 -15,10 -31,0 -11,-4 -33,-20 1,-59 -25,0 1,-11 -8,-12 3,-83 -92,-4 1,-8 11,-5 12,-29 -8,-24 5,-9 -1,-10 14,-14 9,-12 0,-8 10,-9 9,-14 8,-36 8,-22 114,4 12,39 0,9 5,18 -6,9Z"/>
    <path data-fips-int="16005" data-name="Bannock County" d="M1821,2917l5,13 -13,10 2,12 -15,2 -7,23 4,7 3,20 4,8 -7,7 2,27 15,25 13,-10 30,-1 4,15 5,5 1,19 8,1 2,7 1,44 7,0 1,16 4,0 0,21 4,13 -7,1 1,35 0,40 -30,1 0,-14 -50,2 -11,-4 -12,-27 -24,1 -2,10 -9,6 -12,-3 -2,-9 12,-21 -1,-32 -17,4 -1,-9 -12,-7 -1,-10 -13,0 1,-30 9,0 0,-27 3,-11 -14,0 0,-13 -7,0 0,-10 -7,0 0,-17 -14,0 -1,-27 -6,0 -1,-56 -11,-14 -4,-10 -14,-6 -15,16 -21,3 -4,9 -12,2 6,-14 -6,-4 5,-20 9,0 9,-10 9,-4 58,-1 31,-1 66,-1Z"/>
    <path data-fips-int="16007" data-name="Bear Lake County" d="M2181,3146l5,138 5,103 -103,5 -59,2 -2,-27 -4,-8 -10,-1 -16,-7 -2,-7 3,-14 -8,-8 -6,-17 4,-26 17,-15 -8,-5 -2,-16 12,-15 -7,-7 -4,-12 -5,1 0,-12 6,-6 -13,-39 -7,-15 -1,-12 10,-10 26,0 58,-2 8,1 -1,8 22,8 11,-25 9,15 -4,30 -4,6 5,8 25,0 2,-7 11,4 5,-5 13,0Z"/>
    <path data-fips-int="16009" data-name="Benewah County" d="M404,842l-4,185 -41,-1 -1,-7 -20,0 -80,-3 -20,2 -20,-23 -10,-2 -5,7 -10,-10 3,-14 -11,-7 -12,1 4,-113 73,3 0,-7 25,-2 0,7 33,1 1,-13 13,0 1,-7 49,3Z"/>
    <path data-fips-int="16011" data-name="Bingham County" d="M1658,2635l2,96 143,-4 0,7 20,0 0,20 76,-2 2,40 80,-2 1,53 3,71 -76,1 -23,1 -65,1 -49,2 -66,1 -31,1 -58,1 -9,4 -9,10 -9,0 -5,20 -4,13 -6,5 -2,12 -8,2 -3,10 -66,1 -1,-117 -2,-83 21,0 0,-38 3,-1 -1,-38 42,0 -1,-42 20,-2 20,0 0,-40 20,-2Z"/>
    <path data-fips-int="16013" data-name="Blaine County" d="M1221,2668l15,-3 2,-7 16,2 6,26 7,8 -3,6 22,6 6,10 -15,7 0,40 77,0 17,-2 0,40 122,-2 2,83 -79,1 -2,4 0,120 2,0 1,41 20,0 1,40 -21,1 1,23 -24,-1 -24,-28 -13,7 -21,2 -1,-84 21,-1 -2,-166 -103,1 -44,1 -184,0 1,-28 -8,0 1,-31 -13,-5 -11,4 -6,-4 -18,0 3,-30 -7,0 0,-19 11,-9 3,-10 -4,-7 -15,-2 -12,-16 3,-14 -17,-6 -5,-10 -10,2 0,-11 7,-20 -9,-14 3,-20 5,-5 -9,-7 0,-16 -8,-14 -15,12 -8,-6 -14,6 -10,0 2,-13 -28,-11 -8,-7 -12,-2 5,-4 -7,-23 8,-10 9,-6 4,-8 21,-12 20,0 0,31 45,0 12,6 21,19 1,12 18,2 4,-7 2,-17 34,1 18,10 5,-7 17,1 5,5 -1,18 13,13 22,10 5,6 8,1 14,17 10,-1 12,-18 10,6 11,28 21,17 2,9 11,0 15,23 6,3Z"/>
    <path data-fips-int="16015" data-name="Boise County" d="M714,2302l7,11 21,6 3,10 8,-6 7,24 -6,5 3,15 12,5 8,10 8,-2 7,7 11,1 4,9 -11,9 15,19 -11,6 -4,15 10,12 6,-4 6,4 -1,10 6,4 -8,15 -16,-4 -10,8 -22,-19 -3,-8 -3,-24 -7,-18 -20,-6 11,13 -13,31 -5,4 -8,16 -1,9 -13,6 -1,1 -13,4 -8,-2 -31,13 -9,1 -15,21 1,14 -4,12 -12,-3 -11,7 -5,14 -3,20 -11,7 -7,11 -15,3 -5,8 -9,-2 -10,11 -26,17 -8,-4 -7,3 -5,-8 -15,7 -1,3 -101,-107 3,1 2,-49 3,-114 21,0 33,3 -2,-13 6,-29 198,5 5,-4 16,0 11,-11 8,4 5,-14 12,-7 -2,-19 12,-3Z"/>
    <path data-fips-int="16017" data-name="Bonner County" d="M507,330l-3,98 -3,150 -5,-9 -12,-8 -7,-9 -11,5 -15,-13 -7,-11 -17,6 -15,18 2,18 -1,42 -58,-1 2,-48 -41,-1 0,6 -70,-2 -59,-2 2,-76 4,-47 3,-84 7,-181 2,-22 76,2 -2,68 0,22 -3,74 67,1 49,2 35,0Z"/>
    <path data-fips-int="16019" data-name="Bonneville County" d="M1963,2628l21,1 57,-2 53,-1 6,6 4,23 6,9 9,-4 11,2 10,7 14,-1 10,12 3,66 6,161 -92,3 -33,0 -63,4 -3,-71 -1,-53 -80,2 -2,-40 -76,2 0,-20 -20,0 0,-7 -143,4 -2,-96 69,-1 56,-2 54,-1 63,-2Z"/>
    <path data-fips-int="16021" data-name="Boundary County" d="M507,330l-80,-2 -35,0 -49,-2 -67,-1 3,-74 0,-22 2,-68 -76,-2 2,-72 142,4 105,3 58,2Z"/>
    <path data-fips-int="16023" data-name="Butte County" d="M1491,2352l2,123 102,-2 1,52 1,113 0,40 -20,0 -20,2 1,42 -42,0 1,38 -3,1 0,38 -21,0 -122,2 0,-40 -17,2 -77,0 0,-40 15,-7 -6,-10 -22,-6 3,-6 -7,-8 -6,-26 -16,-2 -2,7 -15,3 17,-28 9,0 17,-18 28,-14 4,0 22,-19 8,-2 14,-17 1,-15 11,-5 14,6 2,3 -1,0 1,0 -1,-4 0,-2 -3,-6 -12,-18 -14,-6 2,-18 0,-33 -5,-22 0,-14 14,0 -1,-82 33,-1Z"/>
    <path data-fips-int="16025" data-name="Camas County" d="M1023,2843l-75,0 -16,0 -98,0 -56,-2 1,-81 1,-2 1,-108 7,2 11,-9 -1,-26 9,-10 0,-10 -11,-14 9,-36 5,-4 5,-13 12,2 8,7 28,11 -2,13 10,0 14,-6 8,6 15,-12 8,14 0,16 9,7 -5,5 -3,20 9,14 -7,20 0,11 10,-2 5,10 17,6 -3,14 12,16 15,2 4,7 -3,10 -11,9 0,19 7,0 -3,30 18,0 6,4 11,-4 13,5 -1,31 8,0Z"/>
    <path data-fips-int="16027" data-name="Canyon County" d="M228,2542l68,2 -3,82 14,0 -3,82 -13,0 -2,80 -3,-4 -20,-5 -14,-30 -15,-8 -27,-35 -11,-10 1,-23 -11,-24 -11,-9 -8,2 -13,-6 -7,-12 -7,-4 -5,-16 -19,-7 3,-75 5,-10 10,-1 0,-7 10,1 -1,20 14,1 6,14 14,0 0,7 20,1 14,-7Z"/>
    <path data-fips-int="16029" data-name="Caribou County" d="M1985,2914l63,-4 33,0 92,-3 5,111 3,128 -9,11 -13,0 -5,5 -11,-4 -2,7 -25,0 -5,-8 4,-6 4,-30 -9,-15 -11,25 -22,-8 1,-8 -8,-1 -58,2 -26,0 -10,10 1,12 7,15 13,39 -6,6 -40,2 -2,-7 -10,7 -45,1 -4,-13 0,-21 -4,0 -1,-16 -7,0 -1,-44 -2,-7 -8,-1 -1,-19 -5,-5 -4,-15 -30,1 -13,10 -15,-25 -2,-27 7,-7 -4,-8 -3,-20 -4,-7 7,-23 15,-2 -2,-12 13,-10 -5,-13 65,-1 23,-1Z"/>
    <path data-fips-int="16031" data-name="Cassia County" d="M1418,3112l15,-4 7,3 0,18 60,0 2,123 2,155 -24,1 -174,3 -147,1 -105,0 1,-159 -2,0 0,-41 76,0 0,-41 4,-6 14,0 5,-4 6,-4 19,0 13,-7 8,0 13,7 15,-11 8,3 9,13 14,2 17,-9 8,-20 8,-8 9,-22 9,-7 21,-8 7,2 21,-2 13,-7 24,28Z"/>
    <path data-fips-int="16033" data-name="Clark County" d="M1952,2191l2,70 -58,3 1,39 -21,1 1,35 -1,26 -18,1 0,20 -40,1 0,41 -41,1 -134,3 -49,1 1,40 -102,2 -2,-123 62,0 -2,-69 -1,-11 -8,-12 14,-17 6,-12 20,-9 20,9 20,-3 6,4 12,-2 17,10 9,-8 13,12 15,2 11,-21 0,-20 11,-2 11,-14 19,1 1,8 16,7 6,-4 11,1 8,8 17,-8 8,3 0,-8 13,5 8,-1 7,-10 27,-4 9,18 7,8 6,-8 14,-1 6,-7 10,-2 3,-8Z"/>
    <path data-fips-int="16035" data-name="Clearwater County" d="M840,1077l11,7 -4,10 2,10 -5,8 6,3 2,12 7,2 2,10 10,-4 10,14 14,0 7,12 0,7 -8,13 13,7 3,-6 10,-2 3,-11 12,1 14,14 -7,14 2,10 6,1 7,11 -214,45 -38,9 -84,16 -9,26 -10,13 -11,4 -6,10 0,16 -7,8 2,6 -11,15 -12,0 -10,-8 -17,-4 -26,-3 -11,-10 -12,-19 -18,-5 -8,5 -12,-9 -3,-14 -7,-5 -34,-1 -5,-13 -15,-13 0,-16 -24,0 -2,4 0,-65 41,1 4,-130 0,-14 73,1 169,5 75,1Z"/>
    <path data-fips-int="16037" data-name="Custer County" d="M1120,2108 3,0 12,22 0,8 14,22 0,4 14,10 15,23 24,18 14,19 12,0 31,10 5,7 32,6 6,6 17,1 8,-12 9,-3 14,26 2,8 15,18 7,12 6,21 -3,10 4,9 -33,1 1,82 -14,0 0,14 5,22 0,33 -2,18 14,6 12,18 3,6 0,2 1,4 -1,0 1,0 -2,-3 -14,-6 -11,5 -1,15 -14,17 -8,2 -22,19 -4,0 -28,14 -17,18 -9,0 -17,28 -5,-13 -6,-3 -15,-23 -11,0 -2,-9 -21,-17 -11,-28 -10,-6 -12,18 -10,1 -14,-17 -8,-1 -5,-6 -22,-10 -13,-13 1,-18 -5,-5 -17,-1 -5,7 -18,-10 -34,-1 -2,17 -4,7 -18,-2 -1,-12 -21,-19 -12,-6 -45,0 0,-31 -20,0 -21,12 -4,8 -9,6 -6,-6 8,-15 -6,-4 1,-10 -6,-4 -6,4 -10,-12 4,-15 11,-6 -15,-19 11,-9 -4,-9 -11,-1 -7,-7 -8,2 -8,-10 -12,-5 -3,-15 6,-5 -7,-24 -8,6 -3,-10 -21,-6 -7,-11 17,-23 6,-17 -2,-21 3,-10 -7,-15 -11,1 -6,-16 -1,-14 8,-14 26,-5 11,-11 11,-31 -4,-8 21,-20 17,10 10,18 2,-6 16,3 9,-6 5,-11 27,-22 7,-2 5,6 -8,24 7,13 5,1 16,21 -2,8 29,-3 9,4 11,15 -2,12 11,9 9,-2 7,-10 8,-1 6,5 8,-8 7,-19 16,-9 5,-18 -11,-6 3,-15 11,1 10,-23 11,-10 8,-1 7,-14 11,-6 9,1 1,19 -4,11 -3,26 21,0 6,7Z"/>
    <path data-fips-int="16039" data-name="Elmore County" d="M815,2487l6,6 -8,10 7,23 -5,4 -5,13 -5,4 -9,36 11,14 0,10 -9,10 1,26 -11,9 -7,-2 -1,108 -1,2 -1,81 -1,135 18,1 -1,3 -2,65 -84,-1 -60,-1 1,-39 4,0 1,-38 -21,2 -10,-8 -11,4 -13,-2 -8,-9 -19,7 -26,0 -13,-6 0,-10 -23,-1 -9,-7 -11,2 -6,-9 -11,8 0,19 -15,-2 -8,-7 -6,-11 -14,-2 -9,-12 -9,0 2,-8 -23,-11 6,-14 -16,-6 -10,-8 99,2 1,-42 3,-43 0,-42 2,-46 0,-54 15,-7 5,8 7,-3 8,4 26,-17 10,-11 9,2 5,-8 15,-3 7,-11 11,-7 3,-20 5,-14 11,-7 12,3 4,-12 -1,-14 15,-21 9,-1 31,-13 8,2 13,-4 1,-1 13,-6 1,-9 8,-16 5,-4 13,-31 -11,-13 20,6 7,18 3,24 3,8 22,19 10,-8Z"/>
    <path data-fips-int="16041" data-name="Franklin County" d="M1991,3198l0,12 5,-1 4,12 7,7 -12,15 2,16 8,5 -17,15 -4,26 6,17 8,8 -3,14 2,7 16,7 10,1 4,8 2,27 -203,7 -9,0 -2,-81 14,0 -1,-33 -10,-15 -10,-6 50,-2 0,14 30,-1 0,-40 -1,-35 7,-1 45,-1 10,-7 2,7Z"/>
    <path data-fips-int="16043" data-name="Fremont County" d="M2154,2452l-23,8 -23,18 -18,-7 -11,5 -11,10 -7,-2 -3,-8 -8,-3 -14,12 -9,6 -14,-2 -4,-6 -18,6 -9,8 0,9 -47,1 0,-7 -48,1 0,-13 -48,1 0,-20 -61,1 -1,-41 41,-1 0,-41 40,-1 0,-20 18,-1 1,-26 -1,-35 21,-1 -1,-39 58,-3 -2,-70 9,-6 16,2 10,10 16,-4 -14,-10 -7,-18 8,-11 -5,-8 8,-3 7,-15 -7,-9 19,-10 6,5 5,-6 2,-15 13,12 6,-3 14,14 0,5 10,12 -4,5 9,2 12,13 -6,6 5,16 15,3 0,7 17,9 1,15 8,6 20,6 8,203Z"/>
    <path data-fips-int="16045" data-name="Gem County" d="M425,2221l2,0 -2,82 -21,0 -1,81 -21,0 -3,114 -2,49 -3,-1 -78,-2 -68,-2 2,-82 48,2 0,-14 14,0 1,-26 27,1 1,-41 32,1 1,-27 5,-4 -2,-13 3,-15 -3,-5 2,-16 10,-32 0,-14 7,-12 15,-10 7,1 7,-21 10,8Z"/>
    <path data-fips-int="16047" data-name="Gooding County" d="M948,2843l-1,164 -8,0 0,95 -14,-6 -35,-5 -6,4 -16,-4 -1,-15 -9,-5 1,-14 -15,-10 -14,0 -3,-13 4,-14 5,-2 5,-15 -20,-27 -13,-2 -13,3 -18,-1 1,-135 56,2 98,0Z"/>
    <path data-fips-int="16049" data-name="Idaho County" d="M964,1728l-11,12 -11,6 -11,23 -10,-10 -14,1 -11,-10 -6,-1 -3,19 0,16 8,2 3,10 14,8 7,12 7,3 2,11 22,22 3,0 -22,22 -11,24 -65,0 -132,-1 -53,-2 -90,0 -30,-1 -47,0 -9,-12 -13,14 -11,5 -10,10 -16,-2 -7,24 -53,-2 6,-9 -5,-18 0,-9 -12,-39 -114,-4 5,-7 0,-18 19,-36 8,-7 3,-13 11,-10 0,-20 12,-20 20,-25 -7,-22 -15,-20 0,-21 -18,-22 -22,0 -11,-19 -13,-4 -10,4 -8,-8 -1,-10 15,-6 7,-12 -8,-23 2,-9 16,-16 18,1 0,-17 4,-2 18,4 16,14 6,-18 1,-43 12,4 0,-10 11,-25 6,-3 9,6 23,4 7,8 17,-2 19,10 4,-12 18,-17 11,3 20,-2 9,-5 -11,-13 -14,-6 -12,-16 -13,-36 12,9 8,-5 18,5 12,19 11,10 26,3 17,4 10,8 12,0 11,-15 -2,-6 7,-8 0,-16 6,-10 11,-4 10,-13 9,-26 84,-16 38,-9 214,-45 17,-8 24,9 4,-8 10,-6 22,-3 11,9 0,18 -7,9 4,6 -6,13 0,19 -17,4 0,12 11,20 -6,11 -12,12 4,9 -2,16 -5,10 1,13 -13,6 0,10 5,4 3,34 -12,4 -12,-2 -3,9 2,10 15,6 4,7 -2,17 -8,4 -5,11 11,6 -5,6 5,6 16,3 7,14 -10,10 15,22 -7,18 -10,-6 -13,8 -7,-2 -5,12 -17,25 7,6 -1,8 14,10 3,10 -6,7 5,8 -8,9 -13,6 8,14 -7,10Z"/>
    <path data-fips-int="16051" data-name="Jefferson County" d="M1777,2429l1,41 61,-1 0,20 2,62 -2,20 13,1 6,-7 19,13 5,9 10,0 13,12 11,11 15,5 32,0 0,13 -63,1 -63,2 -54,1 -56,2 -69,1 -41,1 -20,2 -1,-113 -1,-52 -1,-40 49,-1Z"/>
    <path data-fips-int="16053" data-name="Jerome County" d="M1176,3048l1,109 -19,0 -6,4 -14,-2 -27,16 -11,-1 -11,-18 -25,-12 -11,0 -16,-5 -14,-12 -23,1 -9,-2 -19,-15 -28,-5 -5,-4 0,-95 8,0 79,1 0,12 7,7 22,1 80,0 0,20Z"/>
    <path data-fips-int="16055" data-name="Kootenai County" d="M413,617l-5,164 -3,20 -1,41 -32,0 -49,-3 -1,7 -13,0 -1,13 -33,-1 0,-7 -25,2 0,7 -73,-3 10,-288 59,2 70,2 0,-6 41,1 -2,48Z"/>
    <path data-fips-int="16057" data-name="Latah County" d="M400,1027l-2,42 0,14 -4,130 -41,-1 -46,-1 -7,-1 -13,8 -15,16 -5,16 -61,-2 -43,-2 7,-225 3,-51 12,-1 11,7 -3,14 10,10 5,-7 10,2 20,23 20,-2 80,3 20,0 1,7Z"/>
    <path data-fips-int="16059" data-name="Lemhi County" d="M1551,2283l2,69 -62,0 -110,1 -4,-9 3,-10 -6,-21 -7,-12 -15,-18 -2,-8 -14,-26 -9,3 -8,12 -17,-1 -6,-6 -32,-6 -5,-7 -31,-10 -12,0 -14,-19 -24,-18 -15,-23 -14,-10 0,-4 -14,-22 0,-8 -12,-22 -3,0 -14,12 -6,-7 -21,0 3,-26 4,-11 -1,-19 -9,-1 -11,6 -7,14 -8,1 -11,10 -10,23 -11,-1 -3,15 11,6 -5,18 -16,9 -7,19 -8,8 -6,-5 -8,1 -7,10 -9,2 -11,-9 2,-12 -11,-15 -9,-4 -29,3 2,-8 -16,-21 -5,-1 -7,-13 8,-24 -5,-6 6,-12 9,-4 1,-16 10,-2 3,-32 -3,-11 5,-32 -4,-26 4,-13 -3,-15 6,-17 7,-4 11,-24 22,-22 -3,0 -22,-22 -2,-11 -7,-3 -7,-12 -14,-8 -3,-10 -8,-2 0,-16 3,-19 6,1 11,10 14,-1 10,10 11,-23 11,-6 11,-12 13,-6 8,7 10,-4 3,10 10,7 1,8 13,4 8,6 6,14 5,1 18,-11 9,-18 1,-11 14,4 8,-7 15,-4 4,-12 12,-3 8,-19 16,-13 -5,-8 13,-14 7,7 10,-3 2,12 12,13 -3,9 6,4 8,-4 18,10 3,10 -7,8 -5,21 20,-1 5,20 -8,12 8,15 -5,4 13,10 3,18 -4,12 20,23 -4,9 12,10 6,13 16,17 5,23 7,6 14,0 -2,10 11,9 0,5 12,2 -2,9 7,16 -3,4 0,21 -18,4 4,12 5,5 6,21 9,5 2,8 15,0 7,8 6,16 31,-18 18,10 10,10 11,4 -2,8 12,12 2,15 10,8 1,15 5,9 -13,15 17,14 -2,10 14,13 -7,10 7,20 13,14 27,9 3,12 12,10Z"/>
    <path data-fips-int="16061" data-name="Lewis County" d="M379,1289l15,13 5,13 34,1 7,5 3,14 13,36 12,16 14,6 11,13 -9,5 -20,2 -11,-3 -18,17 -4,12 -19,-10 -17,2 -7,-8 -23,-4 -9,-6 -6,3 -11,25 0,10 -12,-4 -1,43 -6,18 -16,-14 -18,-4 -4,2 0,17 -18,-1 4,-114 6,-3 -4,-20 -5,-8 2,-10 72,2 -1,-7 8,-5 11,3 21,1 2,-4 -1,-30 -11,-14 -3,-10Z"/>
    <path data-fips-int="16063" data-name="Lincoln County" d="M1251,2842l0,103 1,63 -18,0 0,40 -58,0 -41,0 0,-20 -80,0 -22,-1 -7,-7 0,-12 -79,-1 1,-164 75,0 184,0Z"/>
    <path data-fips-int="16065" data-name="Madison County" d="M2036,2485l0,39 5,103 -57,2 -21,-1 0,-13 -32,0 -15,-5 -11,-11 -13,-12 -10,0 -5,-9 -19,-13 -6,7 -13,-1 2,-20 -2,-62 48,-1 0,13 48,-1 0,7 47,-1 0,-9 9,-8 18,-6 4,6 14,2Z"/>
    <path data-fips-int="16067" data-name="Minidoka County" d="M1336,3092l-7,-2 -21,8 -9,7 -9,22 -8,8 -8,20 -17,9 -14,-2 -9,-13 -8,-3 -15,11 -13,-7 -8,0 -13,7 -1,-109 58,0 0,-40 18,0 -1,-63 0,-103 103,-1 2,166 -21,1Z"/>
    <path data-fips-int="16069" data-name="Nez Perce County" d="M353,1212l0,65 2,-4 24,0 0,16 -14,0 3,10 11,14 1,30 -2,4 -21,-1 -11,-3 -8,5 1,7 -72,-2 -2,10 5,8 4,20 -6,3 -4,114 -16,16 -2,9 8,23 -7,12 -15,6 -7,-12 -9,-6 -8,-13 -1,-17 -14,-21 -3,-19 -8,-18 -8,-4 9,-9 12,-31 -13,-16 3,-14 -3,-11 -8,-10 3,-9 -13,-11 0,-8 -10,-6 -1,-10 5,-6 3,-21 2,-56 43,2 61,2 5,-16 15,-16 13,-8 7,1Z"/>
    <path data-fips-int="16071" data-name="Oneida County" d="M1703,3165l13,0 1,10 12,7 1,9 17,-4 1,32 -12,21 2,9 12,3 9,-6 2,-10 24,-1 12,27 11,4 10,6 10,15 1,33 -14,0 2,81 -51,1 -158,3 -104,2 -2,-155 121,-3 -1,-41 55,-1 -1,-41Z"/>
    <path data-fips-int="16073" data-name="Owyhee County" d="M119,2597l19,7 5,16 7,4 7,12 13,6 8,-2 11,9 11,24 -1,23 11,10 27,35 15,8 14,30 20,5 3,4 29,-1 7,6 1,9 9,15 -4,18 11,14 5,0 12,22 12,4 10,8 16,6 -6,14 23,11 -2,8 9,0 9,12 14,2 6,11 8,7 15,2 0,-19 11,-8 6,9 11,-2 9,7 23,1 0,10 13,6 26,0 19,-7 8,9 13,2 11,-4 10,8 21,-2 -1,38 -4,0 -1,39 60,1 84,1 -1,203 -1,40 -1,121 -131,-2 -125,-2 -133,-4 -280,-8 -30,-2 5,-121 6,-180 4,-93 4,-110 0,-38Z"/>
    <path data-fips-int="16075" data-name="Payette County" d="M321,2382l-1,41 -27,-1 -1,26 -14,0 0,14 -48,-2 -2,82 -14,-1 -14,7 -20,-1 0,-7 -14,0 -6,-14 -14,-1 1,-20 -10,-1 2,-17 5,0 2,-18 -6,-4 15,-11 -1,-22 -11,-9 1,-17 9,-2 6,-6 11,-22 50,3Z"/>
    <path data-fips-int="16077" data-name="Power County" d="M1495,2882l1,117 66,-1 3,-10 8,-2 2,-12 6,-5 4,-13 6,4 -6,14 12,-2 4,-9 21,-3 15,-16 14,6 4,10 11,14 1,56 6,0 1,27 14,0 0,17 7,0 0,10 7,0 0,13 14,0 -3,11 0,27 -9,0 -1,30 -27,1 1,41 -55,1 1,41 -121,3 -2,-123 -60,0 0,-18 -7,-3 -15,4 -1,-23 21,-1 -1,-40 -20,0 -1,-41 -2,0 0,-120 2,-4Z"/>
    <path data-fips-int="16079" data-name="Shoshone County" d="M501,578l12,13 12,24 5,3 15,24 8,-2 8,10 1,20 6,16 10,-3 5,7 3,13 5,-1 10,12 -5,19 14,17 1,11 -22,22 19,10 -5,2 8,18 18,3 -6,11 -23,1 -9,5 -4,9 13,-1 18,12 5,11 12,-1 17,14 7,25 23,10 10,-1 6,8 11,-1 17,5 -1,5 8,10 -1,18 13,3 5,15 7,0 11,10 5,11 10,4 0,6 9,17 7,2 7,23 5,12 16,0 13,18 -125,-1 -75,-1 -169,-5 -73,-1 2,-42 4,-185 1,-41 3,-20 5,-164 1,-42 -2,-18 15,-18 17,-6 7,11 15,13 11,-5 7,9 12,8Z"/>
    <path data-fips-int="16081" data-name="Teton County" d="M2154,2452l3,53 7,175 -10,-12 -14,1 -10,-7 -11,-2 -9,4 -6,-9 -4,-23 -6,-6 -53,1 -5,-103 0,-39 14,-12 8,3 3,8 7,2 11,-10 11,-5 18,7 23,-18Z"/>
    <path data-fips-int="16083" data-name="Twin Falls County" d="M939,3102l5,4 28,5 19,15 9,2 23,-1 14,12 16,5 11,0 25,12 11,18 11,1 27,-16 14,2 -5,4 -14,0 -4,6 0,41 -76,0 0,41 2,0 -1,159 -41,-1 -95,-2 -33,-1 -96,1 1,-121 1,-40 1,-203 2,-65 1,-3 13,-3 13,2 20,27 -5,15 -5,2 -4,14 3,13 14,0 15,10 -1,14 9,5 1,15 16,4 6,-4 35,5Z"/>
    <path data-fips-int="16085" data-name="Valley County" d="M920,1898l-7,4 -6,17 3,15 -4,13 4,26 -5,32 3,11 -3,32 -10,2 -1,16 -9,4 -6,12 -7,2 -27,22 -5,11 -9,6 -16,-3 -2,6 -10,-18 -17,-10 -21,20 4,8 -11,31 -11,11 -26,5 -8,14 1,14 6,16 11,-1 7,15 -3,10 2,21 -6,17 -17,23 -9,-6 -12,3 2,19 -12,7 -5,14 -8,-4 -11,11 -16,0 -5,4 -198,-5 -6,29 2,13 -33,-3 1,-81 21,0 2,-82 -2,0 -7,-43 4,-14 1,-18 5,-22 -8,-10 1,-12 -9,-8 4,-46 4,-11 9,-6 2,-20 8,1 6,-17 -7,-10 2,-11 10,-7 -1,-8 6,-4 -17,-8 -1,-14 7,-24 16,2 10,-10 11,-5 13,-14 9,12 47,0 30,1 90,0 53,2 132,1Z"/>
    <path data-fips-int="16087" data-name="Washington County" d="M376,2245l-7,12 0,14 -10,32 -2,16 3,5 -3,15 2,13 -5,4 -1,27 -32,-1 -101,-3 -50,-3 2,-8 -10,-10 -16,-4 1,-19 -20,-5 -6,9 -12,-13 -5,-11 -5,-1 -9,10 -8,0 -11,-8 -8,-12 11,-15 -1,-8 -13,-13 -2,-10 7,-6 4,-19 -3,-17 6,-1 9,-17 12,-7 0,-12 8,-8 3,-18 7,-9 1,-12 13,-19 6,-18 16,-5 9,-8 12,-4 1,-9 12,-17 92,4 -3,83 8,12 -1,11 25,0 -1,59 33,20 11,4Z"/>
  </g>
  <g class="cities">
    <circle r="1" cx="40.0" cy="263.9"/>
    <text x="40.0" y="263.9">Boise</text>
    <circle r="1" cx="39.0" cy="264.6"/>
    <text x="39.0" y="264.6">Boise City</text>
    <circle r="1" cx="27.1" cy="265.2"/>
    <text x="27.1" y="265.2">Nampa</text>
  </g>
</svg>