<?xml version="1.0" encoding="utf-8"?>
<!DOCTYPE svg PUBLIC "-//W3C//DTD SVG 1.1//EN" "http://www.w3.org/Graphics/SVG/1.1/DTD/svg11.dtd">
<svg version="1.1" xmlns="http://www.w3.org/2000/svg" width="225" height="350" viewBox="0 0 225 350">
  <defs>
    <pattern id="pattern-no-results" width="50" height="50" patternUnits="userSpaceOnUse">
      <rect width="50" height="50" fill="#ddd"/>
      <path d="M-5,5L5,-5M-5,55L55,-5M45,55L55,45" stroke-width="10" stroke="#666666"/>
    </pattern>
  </defs>
  <g class="counties" transform="scale(0.1)">
    <path data-fips-int="16001" data-name="Ada County" d="M374,2547l102,103 -6,226 -99,-1 -40,-40 -14,-48 -28,1 0,-1 2,-79 14,0 2,-83 -15,0 4,-81Z"/>
    <path data-fips-int="16003" data-name="Adams County" d="M437,1933l15,25 -19,52 -13,30 -4,10 11,73 -2,98 -49,25 -76,-25 1,-58 -30,-23 2,-84 -92,-5 24,-41 -3,-45 41,-53 16,-60 114,3 11,77Z"/>
    <path data-fips-int="16005" data-name="Bannock County" d="M1822,2918l-29,60 18,93 49,7 17,30 17,93 -5,76 -80,-13 -1,0 -23,-30 -26,12 -11,-40 -45,-40 -1,-68 -36,-69 -11,-69 -19,-10 -45,25 -4,-5 -2,-15 24,-34Z"/>
    <path data-fips-int="16007" data-name="Bear Lake County" d="M2164,3156l1,0 -1,0 1,0 16,-10 10,241 -162,7 -44,-90 17,-67 -4,-20 -8,-11 0,-7 -4,-83 84,-2 46,50Z"/>
    <path data-fips-int="16009" data-name="Benewah County" d="M405,842l-5,185 -163,-10 -64,-47 4,-113 131,0 14,-20Z"/>
    <path data-fips-int="16011" data-name="Bingham County" d="M1657,2635l1,62 1,33 139,-2 26,27 76,-3 1,40 81,-2 3,123 -163,5 -213,3 -24,34 -23,43 -66,1 -2,-118 -1,-83 21,0 3,-78 41,0 -1,-40 41,-5 0,-36Z"/>
    <path data-fips-int="16013" data-name="Blaine County" d="M1221,2668l33,-9 32,46 -8,58 93,-1 0,40 122,-4 1,83 -81,2 4,163 21,0 -20,63 0,4 -48,-30 -34,10 -1,-85 20,0 -1,-167 -103,0 -227,2 -8,-61 -48,-2 7,-77 -24,-28 -33,-18 -5,-102 -98,-25 7,-38 53,-25 0,30 47,2 40,38 16,-25 77,7 2,25 70,45 14,-20Z"/>
    <path data-fips-int="16015" data-name="Boise County" d="M714,2301l39,22 3,43 33,16 29,77 -3,28 -31,-1 -33,-67 -37,73 -76,23 -36,49 -4,25 -2,1 -84,62 -36,-2 -102,-103 7,-163 22,0 19,2 14,-15 4,-27 217,3Z"/>
    <path data-fips-int="16017" data-name="Bonner County" d="M506,330l-5,248 -16,-17 -42,-28 -31,25 0,60 -57,-2 2,-48 -171,1 17,-410 78,3 -5,163Z"/>
    <path data-fips-int="16019" data-name="Bonneville County" d="M1961,2627l79,0 54,-2 10,30 60,25 8,226 -187,7 -3,-123 -81,2 -1,-40 -76,3 -26,-27 -139,2 -1,-33 -1,-62Z"/>
    <path data-fips-int="16021" data-name="Boundary County" d="M506,330l-230,-5 5,-163 -78,-3 4,-72 306,7Z"/>
    <path data-fips-int="16023" data-name="Butte County" d="M1491,2351l2,125 101,-2 4,165 0,36 -41,5 1,40 -41,0 -3,78 -21,0 -122,4 0,-40 -93,1 8,-58 -32,-46 -33,9 13,-26 78,-45 29,-32 24,-10 3,5 0,-5 -1,0 1,0 -1,0 -2,-6 -1,-2 -27,-37 1,0 -1,0 1,0 -1,-46 12,-110 32,-2Z"/>
    <path data-fips-int="16025" data-name="Camas County" d="M951,2675l24,28 -7,77 48,2 8,61 -76,0 -170,-2 4,-191 25,-43 8,-77 98,25 5,102Z"/>
    <path data-fips-int="16027" data-name="Canyon County" d="M228,2542l68,2 -4,81 15,0 -2,83 -14,0 -2,79 0,1 0,-1 -24,-7 -67,-87 -19,-53 -61,-41 4,-77 15,-18 42,43Z"/>
    <path data-fips-int="16029" data-name="Caribou County" d="M1985,2913l187,-7 9,240 -16,10 -1,0 1,0 -1,0 -48,8 -46,-50 -84,2 4,83 -47,-5 -1,3 0,2 -48,2 -17,-93 -17,-30 -49,-7 -18,-93 29,-60Z"/>
    <path data-fips-int="16031" data-name="Cassia County" d="M1418,3113l0,-4 22,20 59,0 3,122 3,154 -225,7 -225,0 -1,-200 75,0 0,-46 24,-5 23,-5 97,0 28,-53 35,-10 34,-10Z"/>
    <path data-fips-int="16033" data-name="Clark County" d="M1953,2191l1,70 -58,3 -20,40 0,62 -59,21 1,42 -41,0 -183,3 0,42 -101,2 -2,-125 62,1 -2,-69 10,-52 104,2 32,11 30,-55 65,20 77,-21 16,25Z"/>
    <path data-fips-int="16035" data-name="Clearwater County" d="M840,1077l4,36 58,55 31,2 23,50 -337,71 -2,17 -32,50 -14,25 -11,5 -13,-9 -42,-5 -62,-40 -64,-46 -26,-12 1,-65 40,2 3,-145 233,7Z"/>
    <path data-fips-int="16037" data-name="Custer County" d="M1087,2075l-5,13 0,5 41,15 22,48 1,0 47,53 23,25 105,29 20,-9 40,98 -32,2 -12,110 1,46 -1,0 1,0 -1,0 27,37 1,2 2,6 1,0 -1,0 1,0 0,5 -3,-5 -24,10 -29,32 -78,45 -13,26 -80,-99 -14,20 -70,-45 -2,-25 -77,-7 -16,25 -40,-38 -47,-2 0,-30 -53,25 -7,-5 3,-28 -29,-77 -33,-16 -3,-43 -39,-22 23,-53 -22,-45 -1,-9 47,-46 3,-13 22,-37 18,17 28,8 46,-42 4,14 23,61 35,0 20,37 60,-43 20,-64Z"/>
    <path data-fips-int="16039" data-name="Elmore County" d="M784,2486l31,1 7,5 -7,38 -8,77 -25,43 -4,191 -2,135 18,2 1,-2 -1,2 -1,66 -146,-1 5,-77 -28,-6 -82,0 -52,-22 -17,17 -44,-20 -58,-60 99,1 6,-226 36,2 84,-62 2,-1 4,-25 36,-49 76,-23 37,-73Z"/>
    <path data-fips-int="16041" data-name="Franklin County" d="M1990,3199l0,7 8,11 4,20 -17,67 44,90 -212,6 -8,-136 -1,0 1,0 80,13 5,-76 48,-2 0,-2 1,-3Z"/>
    <path data-fips-int="16043" data-name="Fremont County" d="M2154,2452l-43,24 -59,0 -16,10 -47,6 -3,4 -1,0 1,0 -1,0 -98,6 -47,-13 -1,-20 -61,2 -1,-42 41,0 -1,-42 59,-21 0,-62 20,-40 58,-3 -1,-70 36,-7 4,-68 51,-15 41,52 -2,21 62,47Z"/>
    <path data-fips-int="16045" data-name="Gem County" d="M425,2221l0,80 -20,2 -2,81 -22,0 -7,163 -78,-3 -68,-2 2,-83 48,3 14,-40 28,0 2,-40 31,0 5,-35 -1,-5 8,-68 11,-28Z"/>
    <path data-fips-int="16047" data-name="Gooding County" d="M948,2843l-1,165 -9,95 -66,-10 -13,-37 -29,-10 10,-45 -45,-25 -1,2 -18,-2 2,-135Z"/>
    <path data-fips-int="16049" data-name="Idaho County" d="M964,1729l-33,40 -44,-12 0,27 66,68 -33,46 -426,-5 3,-5 -60,45 -53,-1 -11,-77 -114,-3 56,-133 23,-29 -44,-79 -62,-37 19,-25 13,-42 21,-18 32,20 10,-61 22,-32 86,22 40,-27 -32,-77 62,40 42,5 13,9 11,-5 14,-25 32,-50 2,-17 337,-71 89,-9 -34,173 -20,138 24,5 8,47 -58,47 22,38Z"/>
    <path data-fips-int="16051" data-name="Jefferson County" d="M1777,2429l1,42 61,-2 1,20 0,83 23,-3 44,31 4,7 50,20 -304,8 -59,4 -4,-165 0,-42Z"/>
    <path data-fips-int="16053" data-name="Jerome County" d="M1176,3046l0,110 -23,5 -42,11 -88,-48 -85,-21 9,-95 79,0 7,20 103,0Z"/>
    <path data-fips-int="16055" data-name="Kootenai County" d="M412,618l-7,224 -83,-5 -14,20 -131,0 9,-288 171,-1 -2,48Z"/>
    <path data-fips-int="16057" data-name="Latah County" d="M400,1027l-3,41 -3,145 -40,-2 -62,4 -25,35 -104,-4 10,-276 64,47Z"/>
    <path data-fips-int="16059" data-name="Lemhi County" d="M1551,2283l2,69 -62,-1 -110,1 -40,-98 -20,9 -105,-29 -23,-25 -47,-53 -1,0 -22,-48 -41,-15 0,-5 5,-13 -47,11 -20,64 -60,43 -20,-37 -35,0 -23,-61 -4,-14 30,-38 3,-138 9,-7 33,-46 -66,-68 0,-27 44,12 33,-40 11,-7 61,53 136,-111 11,35 32,8 -10,38 32,92 53,93 43,33 0,93 38,37 31,-18 40,21 56,165Z"/>
    <path data-fips-int="16061" data-name="Lewis County" d="M379,1288l64,46 32,77 -40,27 -86,-22 -22,32 -10,61 -32,-20 -21,18 2,-154 73,1 42,-16Z"/>
    <path data-fips-int="16063" data-name="Lincoln County" d="M1251,2841l1,167 -17,38 -59,0 -40,-18 -103,0 -7,-20 -79,0 1,-165 76,0Z"/>
    <path data-fips-int="16065" data-name="Madison County" d="M2036,2486l4,141 -79,0 -50,-20 -4,-7 -44,-31 -23,3 0,-83 47,13 98,-6 1,0 -1,0 1,0 3,-4Z"/>
    <path data-fips-int="16067" data-name="Minidoka County" d="M1336,3093l-35,10 -28,53 -97,0 0,-110 59,0 17,-38 -1,-167 103,0 1,167 -20,0Z"/>
    <path data-fips-int="16069" data-name="Nez Perce County" d="M354,1211l-1,65 26,12 2,50 -42,16 -73,-1 -2,154 -13,42 -19,25 -48,-103 11,-45 -20,-65 -23,-27 11,-88 104,4 25,-35Z"/>
    <path data-fips-int="16071" data-name="Oneida County" d="M1703,3166l45,40 11,40 26,-12 23,30 1,0 8,136 -312,5 -3,-154 121,-2 -1,-42 55,0 -2,-41Z"/>
    <path data-fips-int="16073" data-name="Owyhee County" d="M118,2599l61,41 19,53 67,87 24,7 0,1 28,-1 14,48 40,40 58,60 44,20 17,-17 52,22 82,0 28,6 -5,77 146,1 -4,365 -499,-10 -200,-10Z"/>
    <path data-fips-int="16075" data-name="Payette County" d="M322,2382l-2,40 -28,0 -14,40 -48,-3 -2,83 -49,5 -42,-43 18,-70 -12,-27 27,-30Z"/>
    <path data-fips-int="16077" data-name="Power County" d="M1494,2881l2,118 66,-1 23,-43 2,15 4,5 45,-25 19,10 11,69 36,69 1,68 -28,0 2,41 -55,0 1,42 -121,2 -3,-122 -59,0 -22,-20 0,4 0,-4 20,-63 -21,0 -4,-163Z"/>
    <path data-fips-int="16079" data-name="Shoshone County" d="M485,561l16,17 67,108 33,28 10,48 -23,17 38,47 -27,14 53,37 8,25 64,20 24,52 92,103 -210,-2 -233,-7 3,-41 5,-185 7,-224 0,-60 31,-25Z"/>
    <path data-fips-int="16081" data-name="Teton County" d="M2154,2452l10,228 -60,-25 -10,-30 -54,2 -4,-141 16,-10 59,0Z"/>
    <path data-fips-int="16083" data-name="Twin Falls County" d="M938,3103l85,21 88,48 42,-11 -24,5 0,46 -75,0 1,200 -266,-3 4,-365 1,-66 1,-2 45,25 -10,45 29,10 13,37Z"/>
    <path data-fips-int="16085" data-name="Valley County" d="M920,1898l-9,7 -3,138 -30,38 -46,42 -28,-8 -18,-17 -22,37 -3,13 -47,46 1,9 22,45 -23,53 -57,46 -217,-3 -4,27 -14,15 -19,-2 2,-81 20,-2 0,-80 2,-98 -11,-73 4,-10 13,-30 19,-52 -15,-25 60,-45 -3,5Z"/>
    <path data-fips-int="16087" data-name="Washington County" d="M376,2246l-11,28 -8,68 1,5 -5,35 -31,0 -152,-5 -66,-63 -24,10 -22,-66 75,-165 48,-42 92,5 -2,84 30,23 -1,58Z"/>
  </g>
  <g class="cities">
    <circle r="3" cx="40.0" cy="263.9"/>
    <text x="40.0" y="263.9">Boise</text>
    <circle r="3" cx="39.1" cy="264.6"/>
    <text x="39.1" y="264.6">Boise City</text>
    <circle r="3" cx="27.1" cy="265.2"/>
    <text x="27.1" y="265.2">Nampa</text>
  </g>
</svg>