<?xml version="1.0" encoding="utf-8"?>
<!DOCTYPE svg PUBLIC "-//W3C//DTD SVG 1.1//EN" "http://www.w3.org/Graphics/SVG/1.1/DTD/svg11.dtd">
<svg version="1.1" xmlns="http://www.w3.org/2000/svg" width="213" height="350" viewBox="0 0 213 350">
  <path class="state" transform="scale(0.1)" d="M308,1948l-41,-25 -33,-60 -20,-3 -13,-30 -88,-83 2,-18 -5,-32 -32,-40 14,-33 -33,-63 -3,-98 22,-85 46,-35 2,-52 -19,-33 25,-37 44,-18h33l29,-18 16,-92 60,-61 7,-85 -22,-57 -17,-3 -33,-43 20,-57 12,-46 31,-14 24,9 32,-19 89,-3 27,-30 55,-3 34,-32 25,-8 2,-38 15,-55 29,-24 25,-11 18,-78 6,-44 -9,-59 -25,-32 -44,-25 -47,-38 3,-37 -24,-38 -75,-52 2,-23 316,3 231,5 205,4 103,1 226,-5h173l348,-8 -20,95 -54,347 -142,4 1,31 2,142 1,103 4,173 7,311 4,364 5,245 2,76 -41,30 21,52 -24,35 -11,30 18,1 22,30 -4,38 31,19 -15,60 9,3 17,66 -19,39 -28,8 -24,58 -9,37 -30,16 -2,42 -77,87 -12,-15 -25,23 2,30 36,26 -50,37h26l-34,87 11,39h-38h1l32,37 -31,7 30,11 -17,37 -44,43 13,55 33,35 -2,22 -110,21 -31,27 -23,-12 -29,22 -16,76 31,34 11,30 -16,48 -15,3 -33,-3 -33,-28 -48,-14 -33,-25 -63,-23 -33,2 -41,35 -40,59 -5,57 -39,-57 -25,-1 24,26 -9,22 -47,-32 -2,-38 -23,-25 -41,-83 16,-32 24,-6 5,-30 -45,-85 -2,-20 22,-13 -19,-25 2,-30 -72,-40 -5,-32 -84,-61 -25,23 -33,-32 17,-28 -27,4 -52,-40 -15,-24 -30,-15h-1l-72,-83 -4,-65 40,-58 11,-53 32,-42 8,-40 -14,-38 42,-45 4,-33 -74,-42 -82,-28 -54,60 -24,-5 -20,-32 -19,-66 11,-30 -13,-37 -6,-61 -19,-29 -77,-63"/>
  <g class="counties" transform="scale(0.1)">
    <path data-fips-int="17001" data-name="Adams County" d="M56,1463l272,10 -2,53 -4,154 -1,54 -206,-5 -5,-32 -32,-40 14,-33 -33,-63Z"/>
    <path data-fips-int="17003" data-name="Alexander County" d="M1090,3194l22,13 -13,22 -11,48 -8,37 15,25 34,16 -5,57 -39,-57 -25,-1 24,26 -9,22 -47,-32 -2,-38 -23,-25 -41,-83 16,-32Z"/>
    <path data-fips-int="17005" data-name="Bond County" d="M1089,2178l-2,173 -161,-2v-78h-18l-1,-75 25,-18Z"/>
    <path data-fips-int="17007" data-name="Boone County" d="M1329,100l2,203 -104,2 -1,-206Z"/>
    <path data-fips-int="17009" data-name="Brown County" d="M422,1539l46,50 -2,13 42,-3 -11,42 -21,25 4,21 -158,-7 4,-154 100,3Z"/>
    <path data-fips-int="17011" data-name="Bureau County" d="M1127,643l1,168 -51,-7 -27,12 -9,39h-51v52h-77v-52l-98,-1 -1,-211h103Z"/>
    <path data-fips-int="17015" data-name="Carroll County" d="M894,275v163l-207,-3 6,-44 -9,-59 -25,-32 -44,-25 176,3Z"/>
    <path data-fips-int="17017" data-name="Cass County" d="M582,1517l20,9v3l10,25h48h1l24,-2 16,-6 4,-2 4,-2 22,-11 16,-2v123l-1,18 -270,-4 21,-25 11,-42 38,-22 3,-23Z"/>
    <path data-fips-int="17019" data-name="Champaign County" d="M1690,1351l3,105h-6l5,208 -240,2 -1,-242 -1,-70Z"/>
    <path data-fips-int="17021" data-name="Christian County" d="M1104,1707l35,8 1,87 53,2 1,184 -54,-1h-181l-1,-107v-70h26l-1,-26h25l9,-34Z"/>
    <path data-fips-int="17023" data-name="Clark County" d="M1884,1902l2,76 -41,30 21,52 -24,35 -60,-12 -90,3h-26l-4,-123 -1,-60 24,-1 127,-5Z"/>
    <path data-fips-int="17025" data-name="Clay County" d="M1503,2246v37l49,1 1,70 -12,18 -2,35 19,25 -211,-1 1,-132v-53Z"/>
    <path data-fips-int="17027" data-name="Clinton County" d="M1087,2351l54,3 -2,140 -101,-5 -3,7 -44,13 -74,1 -32,29 -9,5 -1,-142 52,-1 -1,-52Z"/>
    <path data-fips-int="17029" data-name="Coles County" d="M1685,1902l-24,1 1,60 -77,5 -135,2v-45l-2,-121 189,-4 -1,-16 45,-4Z"/>
    <path data-fips-int="17031" data-name="Cook County" d="M1556,302l195,-2 36,43 6,13v2l16,55v10h1l5,18 5,29 2,6 -2,-6 2,6 19,43 -2,2 -1,2h1h-1l1,-2v2l19,26 3,15 2,142 -119,3 -1,-53 -53,2 -2,-52 -51,2 -1,-27 50,-20 -5,-166 -153,5v-49h12l-1,-49Z"/>
    <path data-fips-int="17033" data-name="Crawford County" d="M1842,2095l-11,30 18,1 22,30 -4,38 31,19 -15,60 9,3 -176,5h-19l-5,-195 90,-3Z"/>
    <path data-fips-int="17035" data-name="Cumberland County" d="M1666,2086l-164,5h-50l-1,-26 -1,-95 135,-2 77,-5Z"/>
    <path data-fips-int="17037" data-name="DeKalb County" d="M1383,303l-6,52 1,208v53l-150,3 -1,-158v-156l104,-2Z"/>
    <path data-fips-int="17039" data-name="De Witt County" d="M1398,1426l-52,83v27h-26l1,26h-1l-183,4 -2,-140Z"/>
    <path data-fips-int="17041" data-name="Douglas County" d="M1692,1664l1,51h-14l2,65 -45,4 1,16 -189,4 -1,-85 5,-53Z"/>
    <path data-fips-int="17043" data-name="DuPage County" d="M1636,581l-1,-27 -103,5h-1l-3,-159 153,-5 5,166Z"/>
    <path data-fips-int="17045" data-name="Edgar County" d="M1884,1902l-72,-5 -127,5 -4,-122 -2,-65h14l-1,-51 187,-7Z"/>
    <path data-fips-int="17047" data-name="Edwards County" d="M1696,2449l6,63 -15,52 14,51 -13,7 -7,13 -75,4 -1,-188Z"/>
    <path data-fips-int="17049" data-name="Effingham County" d="M1451,2065l1,26h50l1,155h-155l-52,2v-183Z"/>
    <path data-fips-int="17051" data-name="Fayette County" d="M1140,2065h156v183l52,-2v53l-207,2v53l-54,-3 2,-173v-113Z"/>
    <path data-fips-int="17053" data-name="Ford County" d="M1688,1300l2,51 -240,3 -1,-131 102,-2 -8,-224 51,-3 11,306Z"/>
    <path data-fips-int="17055" data-name="Franklin County" d="M1346,2720v128v28l-210,2v-53h-12l21,-58 7,-24 -6,-23Z"/>
    <path data-fips-int="17057" data-name="Fulton County" d="M754,1167l-1,53h52v66l-22,47h-2l-51,35 -16,50 -23,33 -37,32 -115,-4 1,-53 5,-211 2,-52Z"/>
    <path data-fips-int="17059" data-name="Gallatin County" d="M1636,2856h1l32,37 -31,7 30,11 -17,37 -44,43 13,55 -21,-13h-94l-2,-185 114,-2Z"/>
    <path data-fips-int="17061" data-name="Greene County" d="M603,1880l68,2 1,154 -25,2v20h-52v30l-118,-7 -17,39 6,-47 -11,-90 3,-30 16,-75Z"/>
    <path data-fips-int="17063" data-name="Grundy County" d="M1543,872l-3,53 -151,5 -6,-209 155,-7Z"/>
    <path data-fips-int="17065" data-name="Hamilton County" d="M1503,2640v208h-157v-128l1,-80Z"/>
    <path data-fips-int="17067" data-name="Hancock County" d="M336,1205l-6,213 -2,55 -272,-10 22,-85 46,-35 2,-52 -19,-33 25,-37 44,-18h33Z"/>
    <path data-fips-int="17069" data-name="Hardin County" d="M1505,3033h94l21,13 33,35 -2,22 -110,21 -31,27 -23,-12v-106Z"/>
    <path data-fips-int="17071" data-name="Henderson County" d="M395,949l-6,259 -53,-3 -127,-2 29,-18 16,-92 60,-61 7,-85Z"/>
    <path data-fips-int="17073" data-name="Henry County" d="M814,643l1,211 -5,51h-53l-204,-3 2,-106 3,-77 45,-35 60,-13 6,-28Z"/>
    <path data-fips-int="17075" data-name="Iroquois County" d="M1868,982l7,311 -187,7h-83l-11,-306Z"/>
    <path data-fips-int="17077" data-name="Jackson County" d="M1124,2825h12v53l-1,156h-142l-6,20 -27,-3 22,-13 -19,-25 2,-30 -72,-40 -5,-32 -3,-10 41,-79Z"/>
    <path data-fips-int="17079" data-name="Jasper County" d="M1697,2281l-145,3 -49,-1v-37l-1,-155 164,-5h26Z"/>
    <path data-fips-int="17081" data-name="Jefferson County" d="M1347,2509v131l-1,80h-200l-8,-53 1,-157Z"/>
    <path data-fips-int="17083" data-name="Jersey County" d="M672,2036l-1,157h-58l-2,46 -82,-28 -33,8 -20,-20 -16,-79 17,-39 118,7v-30h52v-20Z"/>
    <path data-fips-int="17085" data-name="Jo Daviess County" d="M790,90l1,188 -176,-3 -47,-38 3,-37 -24,-38 -75,-52 2,-23Z"/>
    <path data-fips-int="17087" data-name="Johnson County" d="M1346,3034v158h-92l-12,20 -32,-3 -23,-12 1,-161Z"/>
    <path data-fips-int="17089" data-name="Kane County" d="M1539,302l1,49h-12v49l3,159 -153,4 -1,-208 6,-52Z"/>
    <path data-fips-int="17091" data-name="Kankakee County" d="M1864,809l4,173 -274,12 -51,3 -3,-72 3,-53 103,-5 -1,-51Z"/>
    <path data-fips-int="17093" data-name="Kendall County" d="M1532,559l6,155 -155,7 -5,-105v-53l153,-4Z"/>
    <path data-fips-int="17095" data-name="Knox County" d="M757,905l-1,105 -2,157 -207,-4 4,-209 2,-52Z"/>
    <path data-fips-int="17097" data-name="Lake County" d="M1728,100v62l-9,43 9,50 23,45 -195,2 -1,-207h173Z"/>
    <path data-fips-int="17099" data-name="La Salle County" d="M1378,616l5,105 6,209 -156,2v106l-53,2v-106h-51l-1,-123 -1,-168 -1,-24h102Z"/>
    <path data-fips-int="17101" data-name="Lawrence County" d="M1838,2447l-122,2v-168l176,-5 17,66 -19,39 -28,8Z"/>
    <path data-fips-int="17103" data-name="Lee County" d="M1227,461l1,158h-102l1,24h-210l1,-188h122v8Z"/>
    <path data-fips-int="17105" data-name="Livingston County" d="M1540,925l3,72 8,224 -102,2 -53,2 -5,-85 -157,3 -1,-105v-106l156,-2Z"/>
    <path data-fips-int="17107" data-name="Logan County" d="M1135,1426l2,140 1,80h-35h-79l-42,-12 -1,-25h-42v-68l-11,-19 -1,-119 155,-2 1,27Z"/>
    <path data-fips-int="17109" data-name="McDonough County" d="M389,1208l156,7 -5,211 -210,-8 6,-213Z"/>
    <path data-fips-int="17111" data-name="McHenry County" d="M1555,95l1,207h-17l-156,1h-52l-2,-203Z"/>
    <path data-fips-int="17113" data-name="McLean County" d="M1449,1223l1,131 1,70 -53,2h-263l-52,2 -1,-27 -2,-161 62,-2 40,-18v-22l28,-2 -1,-51 25,-2 157,-3 5,85Z"/>
    <path data-fips-int="17115" data-name="Macon County" d="M1320,1562l1,158 -5,30h-25l1,54h-99l-53,-2 -1,-87 -35,-8 -1,-61h35l-1,-80Z"/>
    <path data-fips-int="17117" data-name="Macoupin County" d="M880,1882v314l-209,-3 1,-157 -1,-154h106Z"/>
    <path data-fips-int="17119" data-name="Madison County" d="M671,2193l209,3h27l1,75h18v78l1,52 -52,1 -222,-5 -14,-38 42,-45 4,-33 -74,-42 2,-46Z"/>
    <path data-fips-int="17121" data-name="Marion County" d="M1348,2299l-1,132v78l-208,1v-16l2,-140v-53Z"/>
    <path data-fips-int="17123" data-name="Marshall County" d="M990,907h63l-12,27h88h51v106l-193,3 12,-31h-86v-105Z"/>
    <path data-fips-int="17125" data-name="Mason County" d="M927,1403l1,119 -37,-18 -12,3 -10,5 -36,9h-7l-37,-7h-22l-3,-2 -8,5 -5,4 -4,8 -16,2 -22,11 -4,2 -4,2 -16,6 -24,2h-1h-48l-10,-25v-3l-20,-9 39,-18 27,3 6,-19 37,-32 23,-33 16,-50 51,-35h2l93,1 1,70Z"/>
    <path data-fips-int="17127" data-name="Massac County" d="M1346,3192l107,105v55l-33,-3 -33,-28 -48,-14 -33,-25 -63,-23 -1,-47 12,-20Z"/>
    <path data-fips-int="17129" data-name="Menard County" d="M928,1522l11,19v68l-56,2 -2,35 -32,8 -102,-2v-123l4,-8 5,-4 8,-5 3,2h22l37,7h7l36,-9 10,-5 12,-3Z"/>
    <path data-fips-int="17131" data-name="Mercer County" d="M555,796l-2,106 -2,52 -156,-5 -74,-2 -22,-57 -17,-3 -33,-43 20,-57 151,5Z"/>
    <path data-fips-int="17133" data-name="Monroe County" d="M783,2662l-64,-3v53l-80,26h-1l-72,-83 -4,-65 40,-58 11,-53 55,58 52,72 58,1Z"/>
    <path data-fips-int="17135" data-name="Montgomery County" d="M958,1880l1,107h181v78h-51v113h-157l-25,18h-27v-314Z"/>
    <path data-fips-int="17137" data-name="Morgan County" d="M746,1670l4,94 28,96 -1,22h-106l-68,-2 2,-70 -34,-18 1,-52h-52l1,-21 -53,-2 13,-30h-1l-4,-21Z"/>
    <path data-fips-int="17139" data-name="Moultrie County" d="M1321,1720l126,-1 1,85 2,121h-49l-31,-43h-35v-35h-42l-1,-43 -1,-54h25Z"/>
    <path data-fips-int="17141" data-name="Ogle County" d="M1227,305v156l-187,2v-8h-122l-24,-17v-163h130l99,-2v34Z"/>
    <path data-fips-int="17143" data-name="Peoria County" d="M913,1012h86l-12,31 1,15 -34,45 -3,44v29l-18,9 -31,51 3,15 -56,12 -44,23v-66h-52l1,-53 2,-157Z"/>
    <path data-fips-int="17145" data-name="Perry County" d="M927,2664l211,3 8,53 6,23 -7,24 -21,58 -198,-3Z"/>
    <path data-fips-int="17147" data-name="Piatt County" d="M1451,1424l1,242 -5,53 -126,1 -1,-158h1l-1,-26h26v-27l52,-83Z"/>
    <path data-fips-int="17149" data-name="Pike County" d="M480,1687h1l-13,30 -22,57 25,63 3,41 -16,75 -150,-5 -41,-25 -33,-60 -20,-3 -13,-30 -88,-83 2,-18 206,5 1,-54Z"/>
    <path data-fips-int="17151" data-name="Pope County" d="M1487,3033v106l-29,22 -16,76 31,34 11,30 -16,48 -15,3v-55l-107,-105v-158Z"/>
    <path data-fips-int="17153" data-name="Pulaski County" d="M1187,3197l23,12 32,3 1,47 -33,2 -41,35 -40,59 -34,-16 -15,-25 8,-37 11,-48 13,-22 -22,-13Z"/>
    <path data-fips-int="17155" data-name="Putnam County" d="M1128,811l1,123h-88l12,-27h-63v-52h51l9,-39 27,-12Z"/>
    <path data-fips-int="17157" data-name="Randolph County" d="M783,2662l93,2h51l-1,158 -41,79 3,10 -84,-61 -25,23 -33,-32 17,-28 -27,4 -52,-40 -15,-24 -30,-15 80,-26v-53Z"/>
    <path data-fips-int="17159" data-name="Richland County" d="M1697,2281h19v168h-20l-91,2v-17l-47,-2 -19,-25 2,-35 12,-18 -1,-70Z"/>
    <path data-fips-int="17161" data-name="Rock Island County" d="M650,578l30,30v16l-11,19 -6,28 -60,13 -45,35 -3,77 -135,-4 -151,-5 12,-46 31,-14 24,9 32,-19 89,-3 27,-30 55,-3 34,-32 25,-8 2,-38 15,-55 29,-24Z"/>
    <path data-fips-int="17163" data-name="Saint Clair County" d="M875,2402l1,142v120l-93,-2 -5,-52 -58,-1 -52,-72 -55,-58 32,-42 8,-40Z"/>
    <path data-fips-int="17165" data-name="Saline County" d="M1503,2848l2,185h-18l-141,1v-158v-28Z"/>
    <path data-fips-int="17167" data-name="Sangamon County" d="M1103,1646l1,61 -87,43 -9,34h-25l1,26h-26v70l-78,2h-103l1,-22 -28,-96 -4,-94 1,-18 102,2 32,-8 2,-35 56,-2h42l1,25 42,12Z"/>
    <path data-fips-int="17169" data-name="Schuyler County" d="M540,1426l-1,53 115,4 -6,19 -27,-3 -39,18 -33,37 -3,23 -38,22 -42,3 2,-13 -46,-50 4,-10 -100,-3 2,-53 2,-55Z"/>
    <path data-fips-int="17171" data-name="Scott County" d="M603,1880l-129,-2 -3,-41 -25,-63 22,-57 53,2 -1,21h52l-1,52 34,18Z"/>
    <path data-fips-int="17173" data-name="Shelby County" d="M1292,1804l1,43h42v35h35l31,43h49v45l1,95h-155h-156v-78l54,1 -1,-184Z"/>
    <path data-fips-int="17175" data-name="Stark County" d="M815,854l98,1v52v105l-157,-2 1,-105h53Z"/>
    <path data-fips-int="17177" data-name="Stephenson County" d="M894,275l-103,3 -1,-188 231,5 3,180Z"/>
    <path data-fips-int="17179" data-name="Tazewell County" d="M1080,1240l2,161 -155,2 -50,1 -1,-70 -93,-1h-2h2l22,-47 44,-23 56,-12 -3,-15 31,-51 18,-9v-29h101l2,79Z"/>
    <path data-fips-int="17181" data-name="Union County" d="M1135,3034l53,2 -1,161 -97,-3 -112,-2 24,-6 5,-30 -45,-85 -2,-20 27,3 6,-20Z"/>
    <path data-fips-int="17183" data-name="Vermilion County" d="M1875,1293l4,364 -187,7 -5,-208h6l-3,-105 -2,-51Z"/>
    <path data-fips-int="17185" data-name="Wabash County" d="M1696,2449h20l122,-2 -9,37 -30,16 -2,42 -77,87 -12,-15 -25,23 -2,-2 7,-13 13,-7 -14,-51 15,-52Z"/>
    <path data-fips-int="17187" data-name="Warren County" d="M551,954l-4,209 -2,52 -156,-7 6,-259Z"/>
    <path data-fips-int="17189" data-name="Washington County" d="M1139,2494v16l-1,157 -211,-3h-51v-120l9,-5 32,-29 74,-1 44,-13 3,-7Z"/>
    <path data-fips-int="17191" data-name="Wayne County" d="M1558,2432l47,2v17l1,188 -103,1h-156v-131v-78Z"/>
    <path data-fips-int="17193" data-name="White County" d="M1681,2635l2,2 2,30 36,26 -50,37h26l-34,87 11,39h-38l-19,-10 -114,2v-208l103,-1Z"/>
    <path data-fips-int="17195" data-name="Whiteside County" d="M894,438l24,17 -1,188h-103h-145l11,-19v-16l-30,-30 -6,-54 25,-11 18,-78Z"/>
    <path data-fips-int="17197" data-name="Will County" d="M1636,581l1,27 51,-2 2,52 53,-2 1,53 119,-3 1,103 -219,7 1,51 -103,5 -5,-158 -6,-155 103,-5Z"/>
    <path data-fips-int="17199" data-name="Williamson County" d="M1346,2876v158l-158,2 -53,-2 1,-156Z"/>
    <path data-fips-int="17201" data-name="Winnebago County" d="M1226,99l1,206 -104,2v-34l-99,2 -3,-180Z"/>
    <path data-fips-int="17203" data-name="Woodford County" d="M1234,1143l-25,2 1,51 -28,2v22l-40,18 -62,2 -26,-14 -2,-79h-101l3,-44 34,-45 -1,-15 193,-3 53,-2Z"/>
    <path data-fips-int="17013" data-name="Calhoun County" d="M458,1953l-3,30 11,90 -6,47 16,79 20,20 33,-8 -54,60 -24,-5 -20,-32 -19,-66 11,-30 -13,-37 -6,-61 -19,-29 -77,-63Z"/>
  </g>
  <path class="mesh" transform="scale(0.1)" d="M1329,100l2,203 -104,2 -1,-206M615,275l176,3 103,-3v163l-207,-3M508,1599l38,-22 3,-23 33,-37 20,9v3l10,25h48h1l24,-2 16,-6 4,-2 4,-2 22,-11 16,-2v123l-1,18 -270,-4M1450,1354l-1,-131 102,-2 -8,-224 51,-3 11,306h83l2,51 3,105h-6l5,208 -240,2 -1,-242 -1,-70 240,-3M1842,2095l-60,-12 -90,3h-26l-4,-123 -1,-60 24,-1 127,-5 72,5M1502,2091l1,155v37l49,1 1,70 -12,18 -2,35 19,25 -211,-1 1,-132v-53h155M1662,1963l-77,5 -135,2v-45l-2,-121 189,-4 -1,-16 45,-4 4,122M1863,706l-119,3 -1,-53 -53,2 -2,-52 -51,2 -1,-27 50,-20 -5,-166 -153,5v-49h12l-1,-49h17l195,-2M1892,2276l-176,5h-19l-5,-195M1666,2086l-164,5h-50l-1,-26 -1,-95M894,275h130l99,-2v34l104,-2M1451,1424l-53,2 -52,83v27h-26l1,26h-1l-183,4 -2,-140h263M1692,1664l1,51h-14l2,65M1448,1804l-1,-85 5,-53M1636,581l-1,-27 -103,5h-1l-3,-159M1692,1664l187,-7M1716,2449h-20l6,63 -15,52 14,51 -13,7 -7,13 -75,4 -1,-188 91,-2M1348,2246l-52,2v-183h155M1089,2178l-2,173 54,3 -2,140 -101,-5 -3,7 -44,13 -74,1 -32,29 -9,5 -1,-142 52,-1 -1,-52v-78h-18l-1,-75 25,-18h157v-113h51h156M1348,2299l-207,2v53M1861,564l-3,-15 -19,-26v-2l-1,2h1h-1l1,-2 2,-2 -19,-43 -2,-6 2,6 -2,-6 -5,-29 -5,-18h-1v-10l-16,-55v-2l-6,-13 -36,-43 -23,-45 -9,-50 9,-43v-62v-5M757,905l-1,105 -2,157 -1,53h52v66l-22,47h-2l-51,35 -16,50 -23,33 -37,32 -115,-4 1,-53 5,-211 2,-52 207,4M1620,3046l-21,-13h-94l-2,-185 114,-2 19,10M1346,2720v128v28l-210,2v-53h-12l21,-58 7,-24 -6,-23h200l1,-80h156v208h-157M1487,3139v-106h18M321,947l74,2 -6,259 -53,-3M815,854l-5,51h-53l-204,-3 2,-106 3,-77 45,-35 60,-13 6,-28h145M1875,1293l-187,7M1594,994l274,-12M1136,2878l-1,156h-142l-6,20 -27,-3M888,2911l-3,-10 41,-79 198,3M1697,2281l-145,3M1146,2720l-8,-53 1,-157 208,-1v131M672,2036l-1,157h-58l-2,46M529,2211l-33,8 -20,-20 -16,-79M790,90l1,188M1531,559l-153,4M1383,303l156,-1M1543,997l-3,-72M1543,872l-3,53 -151,5 -6,-209 155,-7 5,158 103,-5 -1,-51 219,-7M1532,559l6,155M1383,721l-5,-105M547,1163l4,-209 2,-52M1556,302l-1,-207M1389,930l-156,2v106l-53,2v-106h-51l-1,-123M1127,643l1,168 -51,-7 -27,12 -9,39h-51v52h-77v-52l-98,-1 -1,-211h103h210l-1,-24h102M1838,2447l-122,2v-168M917,643l1,-188h122v8l187,-2M1449,1223l-53,2 -5,-85 -157,3 -1,-105M1137,1566l1,80h-35h-79l-42,-12 -1,-25h-42v-68l-11,-19 -1,-119 155,-2 1,27 52,-2M389,1208l156,7M540,1426l-210,-8M1082,1401l-2,-161 62,-2 40,-18v-22l28,-2 -1,-51 25,-2M1320,1562l1,158 -5,30h-25l1,54h-99M1104,1707l35,8 1,87 53,2 1,184 -54,-1h-181l-1,-107v-70h26l-1,-26h25l9,-34 87,-43 -1,-61M671,1882h106h103v314l-209,-3M880,2196h27M875,2402l-222,-5M1347,2431v78M1139,2510v-16M326,1526l-4,154 -1,54 -206,-5M990,907h63l-12,27h88M1180,1040l-193,3 12,-31h-86v-105M978,3192l112,2 22,13 -13,22 -11,48 -8,37 15,25 34,16M928,1522l-37,-18 -12,3 -10,5 -36,9h-7l-37,-7h-22l-3,-2 -8,5 -5,4 -4,8M582,1517l39,-18 27,3 6,-19M781,1333h2l93,1 1,70 50,-1M1346,3192l107,105v55M1243,3259l-1,-47M939,1609l-56,2 -2,35 -32,8 -102,-2M551,954l-156,-5M269,787l151,5 135,4M613,2479l55,58 52,72 58,1 5,52 -64,-3v53l-80,26M1140,1987v78M880,1882l78,-2M746,1670l4,94 28,96 -1,22M603,1880l68,2 1,154 -25,2v20h-52v30l-118,-7 -17,39 6,-47 -11,-90 3,-30 16,-75 129,2 2,-70 -34,-18 1,-52h-52l1,-21 -53,-2 13,-30h-1M1321,1720l126,-1M1450,1925h-49l-31,-43h-35v-35h-42l-1,-43M918,455l-24,-17M987,1043l1,15 -34,45 -3,44v29l-18,9 -31,51 3,15 -56,12 -44,23M756,1010l157,2M926,2822l1,-158 211,3M468,1717l-22,57 25,63 3,41M458,1953l-150,-5M1346,3034v158h-92l-12,20 -32,-3 -23,-12 1,-161 158,-2 141,-1M1090,3194l97,3M783,2662l93,2h51M1605,2451v-17l-47,-2M1087,2351l-161,-2M644,524l6,54 30,30v16l-11,19M876,2544v120M1346,3034v-158M1021,95l3,180M951,1147h101l2,79 26,14M1135,3034l53,2M1683,2637l-2,-2M1606,2639l-103,1M1331,303h52l-6,52 1,208v53l-150,3 -1,-158v-156M56,1463l272,10M209,1203l127,2 -6,213 -2,55 -2,53 100,3 -4,10 46,50 -2,13 42,-3 -11,42 -21,25 4,21 -158,-7"/>
  <g class="cities">
    <circle r="3" cx="180.4" cy="48.0"/>
    <text x="180.4" y="48.0">Chicago</text>
    <circle r="3" cx="150.6" cy="53.8"/>
    <text x="150.6" y="53.8">Aurora</text>
    <circle r="3" cx="115.9" cy="23.4"/>
    <text x="115.9" y="23.4">Rockford</text>
  </g>
</svg>