<?xml version="1.0" encoding="utf-8"?>
<!DOCTYPE svg PUBLIC "-//W3C//DTD SVG 1.1//EN" "http://www.w3.org/Graphics/SVG/1.1/DTD/svg11.dtd">
<svg version="1.1" xmlns="http://www.w3.org/2000/svg" width="196" height="350" viewBox="0 0 196 350">
  <path class="state" transform="scale(0.1)" d="M111,1729l-4,-32 -28,-23 9,-48 -32,-64 -2,-99 22,-87 40,-23 6,-62 -16,-41 21,-29 44,-16h34l30,-20 16,-92 58,-60 8,-86 -20,-55 -20,-2 -33,-46 20,-55 16,-52 53,-1 28,-20 92,-2 44,-38 43,3 55,-43 14,-88 31,-24 26,-15 14,-73 6,-48 -9,-66 -22,-20 -47,-25 -34,-20 -15,-34 6,-23 -23,-35 -81,-61 6,-17h234l81,3 233,5h204h103l226,-1 174,-4 1,69 -12,53 34,85 36,43 38,145 37,64 2,153 3,104 4,173 7,311 5,366 5,242 2,79 -26,6 -9,32 17,40 -25,36 -13,14 41,46v43l30,19 -15,35 8,25 17,43 -18,61 -39,24 -13,45 3,35 -44,18 -1,43 -27,27 -25,55 -11,-20 -12,23 -13,-18 -12,38 -13,-12 7,37 29,21 -29,60 -27,5 11,54 -5,43h-31l29,40 -13,50 -46,46 13,53 34,37 -11,25 -95,13 -40,32 -21,-13 -23,11 -23,83 29,32 14,38 -17,47 -14,1 -33,-3 -23,-21 -61,-19 -33,-28 -60,-22 -29,4 -46,35 -39,59 -12,50 -29,-53 -26,2 24,30 -9,18 -49,-32 -3,-38 -37,-56v-32l-27,-23 16,-27 25,-7 -5,-56 -35,-58 -3,-22 21,-15 -18,-25v-31l-71,-35 -4,-32 -57,-33 -23,-29 -27,20 -25,-8 -10,-25 17,-23 -28,2 -47,-37 -12,-20 -39,-18 -69,-78 -7,-72 35,-52 16,-59 31,-42 9,-42 -15,-31 42,-50 8,-27 -78,-50 -82,-26 -46,56 -32,-1 -21,-34 -19,-66 12,-28 -22,-104 -17,-23 -76,-63 -42,-25 -33,-60 -25,-7 -13,-33 -20,-10 -57,-58Z"/>
  <g class="counties" transform="scale(0.1)">
    <path data-fips-int="17001" data-name="Adams County" d="M325,1474l-2,53 -3,155v53l-209,-6 -4,-32 -28,-23 9,-48 -32,-64 -2,-99Z"/>
    <path data-fips-int="17003" data-name="Alexander County" d="M1092,3194l21,12 -30,53 1,70 47,26 -12,50 -29,-53 -26,2 24,30 -9,18 -49,-32 -3,-38 -37,-56v-32l-27,-23 16,-27Z"/>
    <path data-fips-int="17005" data-name="Bond County" d="M1088,2178l-1,171h-162v-78l-18,-3 -1,-72 25,-18Z"/>
    <path data-fips-int="17007" data-name="Boone County" d="M1322,95l3,207 -104,1 -2,-208Z"/>
    <path data-fips-int="17009" data-name="Brown County" d="M507,1599l-12,42 -22,25 6,23 -159,-7 3,-155 100,2 8,32 29,15 3,26Z"/>
    <path data-fips-int="17011" data-name="Bureau County" d="M1121,644l2,165 -42,-8 -35,13 -9,41 -51,-3v53h-77v-53h-98v-168l-2,-40h104Z"/>
    <path data-fips-int="17015" data-name="Carroll County" d="M888,275l1,161h-209l6,-48 -9,-66 -22,-20 -47,-25h178Z"/>
    <path data-fips-int="17017" data-name="Cass County" d="M580,1517l19,7 13,37 69,-5 40,-27h24v125v16h-109l-163,-4 22,-25 12,-42 36,-18 3,-24Z"/>
    <path data-fips-int="17019" data-name="Champaign County" d="M1686,1349l5,104h-6l6,206 -242,7 -2,-243v-70Z"/>
    <path data-fips-int="17021" data-name="Christian County" d="M1102,1705l35,9 1,88h53l1,185 -53,-2 -180,2 -2,-107 -1,-70h26v-26h24v-47l14,13 64,-41Z"/>
    <path data-fips-int="17023" data-name="Clark County" d="M1882,1898l2,79 -26,6 -9,32 17,40 -25,36 -54,-11 -95,5h-27l-3,-123 -3,-62h25l123,-5Z"/>
    <path data-fips-int="17025" data-name="Clay County" d="M1503,2244l1,37 46,2 3,69h-12l5,44 -9,20 21,15 -211,-2v-131l1,-54Z"/>
    <path data-fips-int="17027" data-name="Clinton County" d="M1087,2349l54,3 -2,140 -98,-6 -26,16 -49,10 -47,-2 -43,34 -1,-142 52,-1 -2,-52Z"/>
    <path data-fips-int="17029" data-name="Coles County" d="M1684,1900h-25l3,62 -213,6v-45l-3,-121 189,-3v-19l44,-3Z"/>
    <path data-fips-int="17031" data-name="Cook County" d="M1550,298l195,-1 36,43 38,145 37,64 2,153 -118,4 -2,-53h-52l-3,-50 -51,1 -1,-26 50,-20 -5,-165 -153,7 -1,-49 11,-3v-50Z"/>
    <path data-fips-int="17033" data-name="Crawford County" d="M1841,2091l-13,14 41,46v43l30,19 -15,35 8,25 -177,5 -18,1 -5,-194 95,-5Z"/>
    <path data-fips-int="17035" data-name="Cumberland County" d="M1665,2085l-163,5h-51l-1,-27 -1,-95 213,-6Z"/>
    <path data-fips-int="17037" data-name="DeKalb County" d="M1377,302l-5,51 1,208 1,53 -150,4 -3,-158v-157l104,-1Z"/>
    <path data-fips-int="17039" data-name="De Witt County" d="M1395,1423l-51,84v25h-26l1,29 -185,3 -1,-138Z"/>
    <path data-fips-int="17041" data-name="Douglas County" d="M1691,1659l1,55h-14l1,63 -44,3v19l-189,3 -1,-85 4,-51Z"/>
    <path data-fips-int="17043" data-name="DuPage County" d="M1631,578l-2,-25 -103,3 -3,-156 153,-7 5,165Z"/>
    <path data-fips-int="17045" data-name="Edgar County" d="M1882,1898l-75,-3 -123,5 -5,-123 -1,-63h14l-1,-55 186,-3Z"/>
    <path data-fips-int="17047" data-name="Edwards County" d="M1696,2447l8,63 -16,50 13,54 -19,20 -75,1 -1,-186Z"/>
    <path data-fips-int="17049" data-name="Effingham County" d="M1450,2063l1,27h51l1,154h-155l-53,2 -1,-181Z"/>
    <path data-fips-int="17051" data-name="Fayette County" d="M1139,2065h155l1,181 53,-2 -1,54 -206,3v51l-54,-3 1,-171v-113Z"/>
    <path data-fips-int="17053" data-name="Ford County" d="M1685,1296l1,53 -239,4 -2,-132 102,-1 -9,-226 53,-2 11,306Z"/>
    <path data-fips-int="17055" data-name="Franklin County" d="M1347,2718v132v25l-210,3v-55h-13l28,-63 -6,-40Z"/>
    <path data-fips-int="17057" data-name="Fulton County" d="M751,1167l-2,51 52,2 1,66 -24,45 -51,37 -15,48 -27,42 -33,25 -116,-5 1,-52 5,-210 1,-53Z"/>
    <path data-fips-int="17059" data-name="Gallatin County" d="M1639,2855l29,40 -13,50 -46,46 13,53 -21,-13h-95l-2,-185h106Z"/>
    <path data-fips-int="17061" data-name="Greene County" d="M601,1882h67l3,154 -27,2 1,20h-51v30h-81l-44,-7 -11,40 7,-50 -10,-116 17,-77Z"/>
    <path data-fips-int="17063" data-name="Grundy County" d="M1538,870l-2,52 -151,5 -7,-208 154,-7Z"/>
    <path data-fips-int="17065" data-name="Hamilton County" d="M1504,2637v209l-157,4v-132v-79Z"/>
    <path data-fips-int="17067" data-name="Hancock County" d="M333,1206l-6,213 -2,55 -271,-11 22,-87 40,-23 6,-62 -16,-41 21,-29 44,-16h34Z"/>
    <path data-fips-int="17069" data-name="Hardin County" d="M1506,3031h95l21,13 34,37 -11,25 -95,13 -40,32 -21,-13v-107Z"/>
    <path data-fips-int="17071" data-name="Henderson County" d="M391,949l-6,261 -52,-4 -128,-1 30,-20 16,-92 58,-60 8,-86Z"/>
    <path data-fips-int="17073" data-name="Henry County" d="M809,644l2,40v168l-6,53h-52l-205,-3 3,-105 2,-78 45,-35 62,-16 5,-25h-1h1Z"/>
    <path data-fips-int="17075" data-name="Iroquois County" d="M1865,979l7,311 -187,6 -83,2 -11,-306Z"/>
    <path data-fips-int="17077" data-name="Jackson County" d="M1124,2823h13v55l-1,156h-141l-8,24 -26,-7 21,-15 -18,-25v-31l-71,-35 -4,-32 38,-91Z"/>
    <path data-fips-int="17079" data-name="Jasper County" d="M1697,2279l-147,4 -46,-2 -1,-37 -1,-154 163,-5h27Z"/>
    <path data-fips-int="17081" data-name="Jefferson County" d="M1348,2509l-1,130v79l-201,2 -8,-55 1,-155Z"/>
    <path data-fips-int="17083" data-name="Jersey County" d="M671,2036v158h-59l-2,45 -82,-26 -33,6 -22,-21 -15,-77 11,-40 44,7h81v-30h51l-1,-20Z"/>
    <path data-fips-int="17085" data-name="Jo Daviess County" d="M782,90l4,187h-178l-34,-20 -15,-34 6,-23 -23,-35 -81,-61 6,-17h234Z"/>
    <path data-fips-int="17087" data-name="Johnson County" d="M1348,3034v157l-92,1 -12,20 -55,-16 1,-160Z"/>
    <path data-fips-int="17089" data-name="Kane County" d="M1533,298v50l-11,3 1,49 3,156 -153,5 -1,-208 5,-51Z"/>
    <path data-fips-int="17091" data-name="Kankakee County" d="M1861,806l4,173 -274,13 -53,2 -2,-72 2,-52 105,-6 -2,-50Z"/>
    <path data-fips-int="17093" data-name="Kendall County" d="M1526,556l6,156 -154,7 -4,-105 -1,-53 153,-5Z"/>
    <path data-fips-int="17095" data-name="Knox County" d="M753,905l-1,105 -1,157 -208,-4 4,-209 1,-52Z"/>
    <path data-fips-int="17097" data-name="Lake County" d="M1745,297l-195,1 -2,-204 174,-4 1,69 -12,53Z"/>
    <path data-fips-int="17099" data-name="La Salle County" d="M1378,719l7,208 -156,3v107l-52,1 -1,-106h-52l-1,-123 -2,-165v-26h103l150,-4Z"/>
    <path data-fips-int="17101" data-name="Lawrence County" d="M1839,2446h-123l-1,-168 177,-5 17,43 -18,61 -39,24Z"/>
    <path data-fips-int="17103" data-name="Lee County" d="M1221,460l3,158h-103v26h-208v-189l92,-5 29,11Z"/>
    <path data-fips-int="17105" data-name="Livingston County" d="M1536,922l2,72 9,226 -102,1 -52,2 -6,-85 -156,4 -2,-105v-107l156,-3Z"/>
    <path data-fips-int="17107" data-name="Logan County" d="M1133,1426l1,138 1,78h-33h-87l-36,-6v-27h-43l-1,-70 -10,-18v-118l154,-4 1,27Z"/>
    <path data-fips-int="17109" data-name="McDonough County" d="M385,1210l157,6 -5,210 -210,-7 6,-213Z"/>
    <path data-fips-int="17111" data-name="McHenry County" d="M1548,94l2,204h-17l-156,4h-52l-3,-207Z"/>
    <path data-fips-int="17113" data-name="McLean County" d="M1445,1221l2,132v70h-52l-262,3h-53l-1,-27 -2,-161 61,-2 41,-18v-22l27,-1 -1,-52 26,-1 156,-4 6,85Z"/>
    <path data-fips-int="17115" data-name="Macon County" d="M1319,1561v158l-6,31 -24,-1 1,53h-99h-53l-1,-88 -35,-9v-63h33l-1,-78Z"/>
    <path data-fips-int="17117" data-name="Macoupin County" d="M879,1880l1,316 -209,-2v-158l-3,-154h106Z"/>
    <path data-fips-int="17119" data-name="Madison County" d="M671,2194l209,2h26l1,72 18,3v78l2,52 -52,1 -222,-5 -15,-31 42,-50 8,-27 -78,-50 2,-45Z"/>
    <path data-fips-int="17121" data-name="Marion County" d="M1347,2298v131l1,80 -209,1v-18l2,-140v-51Z"/>
    <path data-fips-int="17123" data-name="Marshall County" d="M986,905h63l-12,27h87h52l1,106 -192,4 11,-32h-87v-105Z"/>
    <path data-fips-int="17125" data-name="Mason County" d="M925,1403v118l-15,-20 -81,21 -73,-13 -11,20h-24l-40,27 -69,5 -13,-37 -19,-7 37,-16 26,3 9,-21 33,-25 27,-42 15,-48 51,-37h95l1,72Z"/>
    <path data-fips-int="17127" data-name="Massac County" d="M1455,3350l-33,-3 -23,-21 -61,-19 -33,-28 -60,-22 -1,-45 12,-20 92,-1 106,103Z"/>
    <path data-fips-int="17129" data-name="Menard County" d="M925,1521l10,18 1,70h-56l-1,37 -31,8h-103v-125l11,-20 73,13 81,-21Z"/>
    <path data-fips-int="17131" data-name="Mercer County" d="M551,797l-3,105 -1,52 -156,-5 -74,-2 -20,-55 -20,-2 -33,-46 20,-55Z"/>
    <path data-fips-int="17133" data-name="Monroe County" d="M784,2662l-64,-2 -1,53 -81,29 -69,-78 -7,-72 35,-52 16,-59 46,46 61,80 58,2Z"/>
    <path data-fips-int="17135" data-name="Montgomery County" d="M957,1880l2,107 180,-2v80h-51v113h-157l-25,18h-26l-1,-316Z"/>
    <path data-fips-int="17137" data-name="Morgan County" d="M745,1670l3,94 28,96 -2,22h-106h-67l1,-70 -33,-18 1,-54h-51v-21l-53,-2 13,-28 -6,-23 163,4Z"/>
    <path data-fips-int="17139" data-name="Moultrie County" d="M1319,1719l126,-2 1,85 3,121 -53,2 -28,-45h-35v-35h-42l-1,-43 -1,-53 24,1Z"/>
    <path data-fips-int="17141" data-name="Ogle County" d="M1221,303v157l-187,1 -29,-11 -92,5 -24,-19 -1,-161 130,-2 100,-1v33Z"/>
    <path data-fips-int="17143" data-name="Peoria County" d="M909,1010h87l-11,32 -28,50 -11,55 1,28 -23,15 -25,45 1,20 -55,8 -43,23 -1,-66 -52,-2 2,-51 1,-157Z"/>
    <path data-fips-int="17145" data-name="Perry County" d="M928,2664l210,1 8,55 6,40 -28,63 -197,-1Z"/>
    <path data-fips-int="17147" data-name="Piatt County" d="M1447,1423l2,243 -4,51 -126,2v-158l-1,-29h26v-25l51,-84Z"/>
    <path data-fips-int="17149" data-name="Pike County" d="M479,1689l-13,28 -22,43 32,108 -4,10 -17,77 -148,-5 -42,-25 -33,-60 -25,-7 -13,-33 -20,-10 -57,-58 -6,-28 209,6v-53Z"/>
    <path data-fips-int="17151" data-name="Pope County" d="M1489,3031v107l-23,11 -23,83 29,32 14,38 -17,47 -14,1 -1,-56 -106,-103v-157Z"/>
    <path data-fips-int="17153" data-name="Pulaski County" d="M1189,3196l55,16 1,45 -29,4 -46,35 -39,59 -47,-26 -1,-70 30,-53 -21,-12Z"/>
    <path data-fips-int="17155" data-name="Putnam County" d="M1123,809l1,123h-87l12,-27h-63v-53l51,3 9,-41 35,-13Z"/>
    <path data-fips-int="17157" data-name="Randolph County" d="M784,2662l92,2h52l-1,158 -38,91 -57,-33 -23,-29 -27,20 -25,-8 -10,-25 17,-23 -28,2 -47,-37 -12,-20 -39,-18 81,-29 1,-53Z"/>
    <path data-fips-int="17159" data-name="Richland County" d="M1697,2279l18,-1 1,168 -20,1 -90,2 -1,-17 -47,-1 -21,-15 9,-20 -5,-44h12l-3,-69Z"/>
    <path data-fips-int="17161" data-name="Rock Island County" d="M664,643h1l-5,25 -62,16 -45,35 -2,78 -287,-8 16,-52 53,-1 28,-20 92,-2 44,-38 43,3 55,-43 14,-88 31,-24 3,64 33,20Z"/>
    <path data-fips-int="17163" data-name="Saint Clair County" d="M875,2402l1,142v120l-92,-2 -6,-53 -58,-2 -61,-80 -46,-46 31,-42 9,-42Z"/>
    <path data-fips-int="17165" data-name="Saline County" d="M1504,2846l2,185h-17l-141,3 -1,-159v-25Z"/>
    <path data-fips-int="17167" data-name="Sangamon County" d="M1102,1642v63l-18,4 -64,41 -14,-13v47h-24v26h-26l1,70h-78l-105,2 2,-22 -28,-96 -3,-94v-16h103l31,-8 1,-37h56h43v27l36,6Z"/>
    <path data-fips-int="17169" data-name="Schuyler County" d="M537,1426l-1,52 116,5 -9,21 -26,-3 -37,16 -34,40 -3,24 -36,18 -44,3 -3,-26 -29,-15 -8,-32 -100,-2 2,-53 2,-55Z"/>
    <path data-fips-int="17171" data-name="Scott County" d="M601,1882l-129,-4 4,-10 -32,-108 22,-43 53,2v21h51l-1,54 33,18Z"/>
    <path data-fips-int="17173" data-name="Shelby County" d="M1290,1802l1,43h42v35h35l28,45 53,-2v45l1,95 -156,2h-155v-80l53,2 -1,-185Z"/>
    <path data-fips-int="17175" data-name="Stark County" d="M811,852h98v53v105h-157l1,-105h52Z"/>
    <path data-fips-int="17177" data-name="Stephenson County" d="M888,275l-102,2 -4,-187 233,5 3,178Z"/>
    <path data-fips-int="17179" data-name="Tazewell County" d="M1077,1238l2,161 -154,4h-51l-1,-72h-95l24,-45 43,-23 55,-8 -1,-20 25,-45 23,-15 -1,-28h103l2,78Z"/>
    <path data-fips-int="17181" data-name="Union County" d="M1136,3034l54,2 -1,160 -97,-2h-113l25,-7 -5,-56 -35,-58 -3,-22 26,7 8,-24Z"/>
    <path data-fips-int="17183" data-name="Vermilion County" d="M1872,1290l5,366 -186,3 -6,-206h6l-5,-104 -1,-53Z"/>
    <path data-fips-int="17185" data-name="Wabash County" d="M1696,2447l20,-1h123l3,35 -44,18 -1,43 -27,27 -25,55 -11,-20 -12,23 -13,-18 -12,38 -13,-12 -2,-1 19,-20 -13,-54 16,-50Z"/>
    <path data-fips-int="17187" data-name="Warren County" d="M547,954l-4,209 -1,53 -157,-6 6,-261Z"/>
    <path data-fips-int="17189" data-name="Washington County" d="M1139,2492v18l-1,155 -210,-1h-52v-120l43,-34 47,2 49,-10 26,-16Z"/>
    <path data-fips-int="17191" data-name="Wayne County" d="M1558,2431l47,1 1,17 1,186 -103,2 -157,2 1,-130 -1,-80Z"/>
    <path data-fips-int="17193" data-name="White County" d="M1682,2634l2,1 7,37 29,21 -29,60 -27,5 11,54 -5,43h-31l-29,-9h-106v-209l103,-2Z"/>
    <path data-fips-int="17195" data-name="Whiteside County" d="M889,436l24,19v189h-104l-144,-1h-1l12,-35 -33,-20 -3,-64 26,-15 14,-73Z"/>
    <path data-fips-int="17197" data-name="Will County" d="M1631,578l1,26 51,-1 3,50h52l2,53 118,-4 3,104 -220,8 2,50 -105,6 -6,-158 -6,-156 103,-3Z"/>
    <path data-fips-int="17199" data-name="Williamson County" d="M1347,2875l1,159 -158,2 -54,-2 1,-156Z"/>
    <path data-fips-int="17201" data-name="Winnebago County" d="M1219,95l2,208 -103,2v-33l-100,1 -3,-178Z"/>
    <path data-fips-int="17203" data-name="Woodford County" d="M1231,1142l-26,1 1,52 -27,1v22l-41,18 -61,2 -26,-13 -2,-78h-103l11,-55 28,-50 192,-4 52,-1Z"/>
    <path data-fips-int="17013" data-name="Calhoun County" d="M455,1955l10,116 -7,50 15,77 22,21 33,-6 -46,56 -32,-1 -21,-34 -19,-66 12,-28 -22,-104 -17,-23 -76,-63Z"/>
  </g>
  <path class="mesh" transform="scale(0.1)" d="M979,3194h113l21,12 -30,53 1,70 47,26M1322,95l3,207 -104,1 -2,-208M608,277h178l102,-2 1,161h-209M507,1599l36,-18 3,-24 34,-40 19,7 13,37 69,-5 40,-27h24v125v16h-109l-163,-4M1447,1353l-2,-132 102,-1 -9,-226 53,-2 11,306 83,-2 1,53 5,104h-6l6,206 -242,7 -2,-243v-70l239,-4M1841,2091l-54,-11 -95,5h-27l-3,-123 -3,-62h25l123,-5 75,3M1502,2090l1,154 1,37 46,2 3,69h-12l5,44 -9,20 21,15 -211,-2v-131l1,-54h155M1087,2349l54,3 -2,140 -98,-6 -26,16 -49,10 -47,-2 -43,34 -1,-142 52,-1 -2,-52M1662,1962l-213,6v-45l-3,-121 189,-3v-19l44,-3 5,123M1858,702l-118,4 -2,-53h-52l-3,-50 -51,1 -1,-26 50,-20 -5,-165 -153,7 -1,-49 11,-3v-50h17l195,-1M1892,2273l-177,5 -18,1 -5,-194M1665,2085l-163,5h-51l-1,-27 -1,-95M888,275l130,-2 100,-1v33l103,-2M1447,1423h-52l-51,84v25h-26l1,29 -185,3 -1,-138 262,-3M1691,1659l1,55h-14l1,63M1446,1802l-1,-85 4,-51M1631,578l-2,-25 -103,3 -3,-156M1691,1659l186,-3M1716,2446l-20,1 8,63 -16,50 13,54 -19,20 -75,1 -1,-186 90,-2M1348,2244l-53,2 -1,-181 156,-2M1088,2178l-1,171h-162v-78l-18,-3 -1,-72 25,-18h157v-113h51h155M1347,2298l-206,3v51M753,905l-1,105 -1,157 -2,51 52,2 1,66 -24,45 -51,37 -15,48 -27,42 -33,25 -116,-5 1,-52 5,-210 1,-53 208,4M323,1527l-3,155v53l-209,-6M1622,3044l-21,-13h-95l-2,-185h106l29,9M54,1463l271,11 -2,53 100,2 8,32 29,15 3,26 44,-3 -12,42 -22,25 6,23 -159,-7M1347,2718v132v25l-210,3v-55h-13l28,-63 -6,-40 201,-2v-79l157,-2v209l-157,4M205,1205l128,1 -6,213 -2,55M1489,3138v-107h17M317,947l74,2 -6,261 -52,-4M640,524l3,64 33,20 -12,35M665,643l144,1M1872,1290l-187,6M1591,992l274,-13M1137,2878l-1,156h-141l-8,24 -26,-7M889,2913l38,-91 197,1M1697,2279l-147,4M1146,2720l-8,-55 1,-155 209,-1 -1,130M671,2036v158h-59l-2,45M528,2213l-33,6 -22,-21 -15,-77M782,90l4,187M1526,556l-153,5M1377,302l156,-4M1538,994l-2,-72M1538,870l-2,52 -151,5 -7,-208 154,-7 6,158 105,-6 -2,-50 220,-8M1526,556l6,156M1378,719l-4,-105M543,1163l4,-209 1,-52M1550,298l-2,-204M1385,927l-156,3v107l-52,1 -1,-106h-52l-1,-123M1121,644l2,165 -42,-8 -35,13 -9,41 -51,-3v53h-77v-53h-98v-168l-2,-40h104h208v-26h103M1839,2446h-123l-1,-168M913,644v-189l92,-5 29,11 187,-1M1445,1221l-52,2 -6,-85 -156,4 -2,-105M1134,1564l1,78h-33h-87l-36,-6v-27h-43l-1,-70 -10,-18v-118l154,-4 1,27h53M385,1210l157,6M537,1426l-210,-7M1079,1399l-2,-161 61,-2 41,-18v-22l27,-1 -1,-52 26,-1M1319,1561v158l-6,31 -24,-1 1,53h-99M1102,1705l35,9 1,88h53l1,185 -53,-2 -180,2 -2,-107 -1,-70h26v-26h24v-47l14,13 64,-41 18,-4v-63M668,1882h106l105,-2 1,316 -209,-2M880,2196h26M875,2402l-222,-5M1347,2429l1,80M1139,2510v-18M986,905h63l-12,27h87M1177,1038l-192,4 11,-32h-87v-105M925,1521l-15,-20 -81,21 -73,-13 -11,20M580,1517l37,-16 26,3 9,-21M778,1331h95l1,72h51M1245,3257l-1,-45M1348,3191l106,103 1,56M936,1609h-56l-1,37 -31,8h-103M547,954l-156,-5M264,789l287,8M613,2481l46,46 61,80 58,2 6,53 -64,-2 -1,53 -81,29M1139,1985v80M879,1880h78M745,1670l3,94 28,96 -2,22M601,1882h67l3,154 -27,2 1,20h-51v30h-81l-44,-7 -11,40 7,-50 -10,-116 17,-77 129,4 1,-70 -33,-18 1,-54h-51v-21l-53,-2 13,-28M1319,1719l126,-2M1449,1923l-53,2 -28,-45h-35v-35h-42l-1,-43M913,455l-24,-19M985,1042l-28,50 -11,55 1,28 -23,15 -25,45 1,20 -55,8 -43,23M752,1010h157M927,2822l1,-158 210,1M466,1717l-22,43 32,108 -4,10M455,1955l-148,-5M1348,3034v157l-92,1 -12,20 -55,-16 1,-160 158,-2 141,-3M1092,3194l97,2M784,2662l92,2h52M1606,2449l-1,-17 -47,-1M876,2544v120M1348,3034l-1,-159M1015,95l3,178M946,1147h103l2,78 26,13M1136,3034l54,2M1684,2635l-2,-1M1607,2635l-103,2M1325,302h52l-5,51 1,208 1,53 -150,4 -3,-158v-157M811,852l-6,53h-52l-205,-3 3,-105 2,-78 45,-35 62,-16 5,-25h-1"/>
  <g class="cities">
    <circle r="3" cx="179.9" cy="47.7"/>
    <text x="179.9" y="47.7">Chicago</text>
    <circle r="3" cx="115.3" cy="23.2"/>
    <text x="115.3" y="23.2">Rockford</text>
    <circle r="3" cx="90.6" cy="171.4"/>
    <text x="90.6" y="171.4">Springfield</text>
  </g>
</svg>