<?xml version="1.0" encoding="utf-8"?>
<!DOCTYPE svg PUBLIC "-//W3C//DTD SVG 1.1//EN" "http://www.w3.org/Graphics/SVG/1.1/DTD/svg11.dtd">
<svg version="1.1" xmlns="http://www.w3.org/2000/svg" width="213" height="350" viewBox="0 0 213 350">
  <g class="counties" transform="scale(0.1)">
    <path data-fips-int="17000" data-name="null" d="M1861,564l-4,-25 -11,-8 -5,-12 -15,-26 -4,-10 -7,-41 -9,-26 2,-2 -1,0 1,0 -8,-18 -7,-23 -2,-16 -4,-15 -14,-10 -22,-33 -19,-34 -13,-37 0,-23 -1,-6 3,-26 1,0 6,-12 -1,0 1,0 2,-4 -1,-23 2,-32 -3,-7 348,-8 -20,94 -54,348 -141,4Z"/>
    <path data-fips-int="17001" data-name="Adams County" d="M328,1473l-1,53 -5,155 0,54 -78,-2 -83,-2 -46,-2 1,-20 -6,-12 -26,-20 -6,-19 2,-10 12,-19 -21,-37 -12,-32 2,-10 -8,-42 2,-20 -2,-14 4,-12 60,2 95,5 57,1Z"/>
    <path data-fips-int="17003" data-name="Alexander County" d="M1090,3194l12,2 8,8 2,17 -4,5 -13,6 -5,6 -4,19 -5,2 6,20 -5,5 -2,16 5,0 -6,21 3,7 12,11 20,2 9,12 6,2 -8,16 6,19 17,16 -15,6 -9,-1 -7,-25 -15,-13 -11,-21 -2,4 -24,-3 2,13 13,7 9,10 -2,11 -7,7 -6,-2 -13,-12 -29,-16 -3,-10 3,-21 -5,-10 -8,-6 -12,-16 -12,-26 -6,-18 4,-20 -14,0 -13,-20 4,-18 12,-13 1,1Z"/>
    <path data-fips-int="17005" data-name="Bond County" d="M1089,2179l-2,171 -79,0 -29,1 -52,-2 -1,-78 -17,0 -1,-67 -1,-9 25,0 1,-17Z"/>
    <path data-fips-int="17007" data-name="Boone County" d="M1329,99l1,70 1,134 -104,1 -1,-34 0,-171 65,2Z"/>
    <path data-fips-int="17009" data-name="Brown County" d="M509,1599l0,14 -8,10 -3,16 -8,11 -12,8 -2,7 0,14 5,8 -55,0 -27,-2 -68,-1 -9,-3 5,-155 66,0 33,2 -4,12 15,2 -3,18 7,2 4,9 11,6 9,-5 -4,11 7,5 -2,14 18,-1 20,1Z"/>
    <path data-fips-int="17011" data-name="Bureau County" d="M1126,644l0,63 2,103 -28,-2 -13,-5 -37,12 0,12 -9,29 -50,-1 0,51 -77,0 0,-51 -99,0 0,-42 1,-128 -2,-41 104,0Z"/>
    <path data-fips-int="17015" data-name="Carroll County" d="M894,277l1,33 0,95 -1,33 -17,-1 -123,-1 -68,1 -5,-17 11,-23 -5,-21 -6,-7 -1,-20 4,-18 -5,-11 -12,-3 -5,-14 -18,-12 -11,-3 -19,-11 43,0 97,0 37,0 77,0Z"/>
    <path data-fips-int="17017" data-name="Cass County" d="M583,1518l17,4 7,16 5,20 10,-2 34,6 5,-8 4,4 11,-5 8,3 2,-6 23,-8 16,-14 3,5 17,0 3,-4 -2,124 0,18 -77,-2 -41,0 -72,-2 -80,-2 2,-7 12,-8 8,-11 3,-16 8,-10 0,-14 3,-5 22,-7 12,-8 2,-23 17,-12 0,-8 10,-18Z"/>
    <path data-fips-int="17019" data-name="Champaign County" d="M1690,1351l2,44 2,61 -7,0 2,58 3,149 -94,1 -34,1 -52,0 -61,2 -1,-88 -1,-119 1,-35 0,-70 79,-2 99,-2Z"/>
    <path data-fips-int="17021" data-name="Christian County" d="M1104,1707l14,-2 21,10 1,87 53,1 0,53 0,132 -53,-2 -181,0 -1,-105 -1,-71 27,1 -1,-26 25,0 0,-46 7,10 8,0 15,-14 15,0 10,-5 7,-10 15,-9 4,-10Z"/>
    <path data-fips-int="17023" data-name="Clark County" d="M1884,1901l1,78 -7,-2 -5,8 -9,-2 -12,18 -8,4 11,6 -5,8 2,13 13,9 2,14 -5,13 -9,9 -7,1 0,8 -9,2 5,6 -13,0 0,-8 -42,0 1,-4 -63,3 -32,1 -27,1 -4,-123 -1,-61 24,-1 18,0 64,-4 45,-1 -1,6Z"/>
    <path data-fips-int="17025" data-name="Clay County" d="M1503,2247l0,35 49,2 1,70 -12,0 0,30 4,16 -5,7 -5,5 6,10 16,11 -52,-1 -57,0 -35,-2 -65,1 0,-88 0,-44 1,-53 6,-1 79,0Z"/>
    <path data-fips-int="17027" data-name="Clinton County" d="M1087,2350l54,4 -1,100 -1,39 -56,-4 -25,0 -18,-2 -8,10 -16,1 -3,5 -8,-7 -19,15 -10,1 -35,-7 -23,6 -6,12 -8,7 -9,-3 -3,10 -16,7 -1,-142 53,0 -1,-53 52,2 29,-1Z"/>
    <path data-fips-int="17029" data-name="Coles County" d="M1685,1902l-24,1 1,61 -88,4 -124,1 0,-44 -2,-122 78,-1 42,-1 68,-1 0,-17 17,-3 28,0 2,59Z"/>
    <path data-fips-int="17031" data-name="Cook County" d="M1556,301l89,0 3,-1 81,0 22,-1 22,33 14,10 4,15 2,16 7,23 8,18 -1,0 1,0 -2,2 9,26 7,41 4,10 15,26 5,12 11,8 4,25 2,142 -69,2 -49,0 -2,-53 -53,2 -2,-52 -52,2 -1,-26 21,0 10,-4 21,-16 -5,-95 -1,-70 -57,1 -28,3 -67,2 -1,-48 11,0 0,-53Z"/>
    <path data-fips-int="17033" data-name="Crawford County" d="M1842,2094l-11,5 -2,7 11,14 -9,4 17,2 -1,10 12,4 11,14 -4,9 6,11 -4,15 8,2 -6,6 21,7 8,10 -4,9 1,10 -3,13 -9,7 5,8 -8,10 10,5 -21,1 -50,0 -31,3 -74,1 -17,0 0,-50 -2,-65 -3,-80 32,-1 63,-3 -1,4 42,0 0,8Z"/>
    <path data-fips-int="17035" data-name="Cumberland County" d="M1666,2087l-71,3 -93,0 -51,1 0,-26 -1,-96 124,-1 88,-4Z"/>
    <path data-fips-int="17037" data-name="DeKalb County" d="M1383,303l1,52 -6,0 0,75 1,133 0,53 -39,1 -76,0 -36,2 -1,-54 0,-104 -1,-104 1,-1 0,-52 104,-1Z"/>
    <path data-fips-int="17039" data-name="De Witt County" d="M1397,1425l-51,85 0,26 -26,0 0,26 -74,1 -50,3 -59,0 0,-59 -2,-80 12,-1 142,0 0,-1Z"/>
    <path data-fips-int="17041" data-name="Douglas County" d="M1692,1663l2,53 -15,0 2,64 -28,0 -17,3 0,17 -68,1 -42,1 -78,1 -1,-84 5,0 -1,-52 61,-2 52,0 34,-1Z"/>
    <path data-fips-int="17043" data-name="DuPage County" d="M1635,581l-1,-26 -59,3 -44,1 -1,-61 -1,-96 67,-2 28,-3 57,-1 1,70 5,95 -21,16 -10,4Z"/>
    <path data-fips-int="17045" data-name="Edgar County" d="M1884,1901l-73,2 1,-6 -45,1 -64,4 -18,0 -2,-63 -2,-59 -2,-64 15,0 -2,-53 62,-2 29,0 58,-2 -1,8 28,0 -12,-8 22,-1 1,56Z"/>
    <path data-fips-int="17047" data-name="Edwards County" d="M1696,2449l-2,5 8,19 -6,9 2,21 5,10 -4,27 -9,10 -3,15 11,22 2,29 -10,10 -7,0 -1,9 -18,2 -57,1 0,-66 -1,-121 58,-2Z"/>
    <path data-fips-int="17049" data-name="Effingham County" d="M1451,2065l0,26 51,-1 1,122 0,35 -69,-2 -79,0 -6,1 -53,2 0,-172 -1,-11Z"/>
    <path data-fips-int="17051" data-name="Fayette County" d="M1140,2064l29,2 126,-1 1,11 0,172 53,-2 -1,53 -62,2 -65,0 -80,0 0,53 -54,-4 2,-171 0,-114Z"/>
    <path data-fips-int="17053" data-name="Ford County" d="M1688,1300l2,51 -62,0 -99,2 -79,2 -1,-131 102,-2 -2,-48 -4,-93 -2,-85 52,-2 4,154 5,96 1,56 48,-1Z"/>
    <path data-fips-int="17055" data-name="Franklin County" d="M1346,2718l0,132 0,26 -64,1 -50,1 -96,0 0,-53 -13,0 11,-10 7,-20 1,-14 -4,-5 7,-15 7,-2 0,-21 -10,-5 4,-13 44,0 67,-2Z"/>
    <path data-fips-int="17057" data-name="Fulton County" d="M755,1167l-2,52 52,1 0,67 -5,7 -2,16 -8,15 -9,7 -12,8 -16,19 -23,9 -8,18 1,7 -8,13 0,10 -12,17 -6,3 -8,20 -20,9 -4,9 -11,9 -62,-3 -53,-2 1,-51 2,-50 1,-60 2,-101 1,-53 38,2 83,0Z"/>
    <path data-fips-int="17059" data-name="Gallatin County" d="M1636,2857l1,0 7,7 5,15 17,8 1,9 -14,2 -9,-5 -6,4 6,11 8,3 10,-6 6,3 -6,23 -9,16 -27,17 -19,29 1,19 8,20 4,15 -9,1 -13,-16 -93,1 0,-69 -2,-115 0,-1 8,-1 105,0 0,-5Z"/>
    <path data-fips-int="17061" data-name="Greene County" d="M603,1881l68,1 0,104 2,51 -27,1 1,20 -52,0 0,30 -43,0 -38,-2 -5,9 -2,-13 -25,-4 -13,15 0,12 -6,3 -3,12 -5,-14 1,-16 10,-16 -2,-15 -5,-5 -1,-19 4,-21 -3,-5 -6,-37 5,-19 -1,-20 3,-18 8,-15 6,-22 58,1Z"/>
    <path data-fips-int="17063" data-name="Grundy County" d="M1543,873l2,51 -5,1 -28,1 -84,4 -39,0 -1,-79 -4,-81 -1,-49 99,-3 55,-2 2,47Z"/>
    <path data-fips-int="17065" data-name="Hamilton County" d="M1503,2639l0,87 0,122 0,1 -72,1 -85,0 0,-132 1,-78 108,0Z"/>
    <path data-fips-int="17067" data-name="Hancock County" d="M337,1205l-4,91 -1,68 -2,54 -2,55 -59,-3 -57,-1 -95,-5 -60,-2 0,-21 7,-15 -1,-10 15,-38 9,-13 11,-8 20,-5 6,-8 -7,-21 2,-13 5,-13 0,-19 -7,-12 -10,-7 2,-11 10,-8 13,-20 18,-9 30,-9 29,2 57,2 66,0Z"/>
    <path data-fips-int="17069" data-name="Hardin County" d="M1505,3033l93,-1 13,16 9,-1 15,12 7,12 8,4 5,16 -4,11 -7,6 -26,1 -26,6 -40,5 -26,16 -15,16 -15,-12 -9,-1 0,-106Z"/>
    <path data-fips-int="17071" data-name="Henderson County" d="M395,949l-4,138 -2,121 -52,-3 -5,1 -66,0 -57,-2 28,-18 7,-24 -2,-11 3,-15 8,-17 -2,-15 3,-11 15,-13 9,-17 5,-2 13,-18 14,-6 9,-21 -3,-13 4,-11 4,-24 -3,-22Z"/>
    <path data-fips-int="17073" data-name="Henry County" d="M814,644l2,41 -1,128 0,42 -5,2 0,48 -52,0 -51,-1 -40,-2 -114,0 3,-106 2,-78 5,0 21,-14 2,-9 15,-10 8,3 7,-6 23,-2 14,-8 14,-6 5,-16 -3,-7 61,1Z"/>
    <path data-fips-int="17075" data-name="Iroquois County" d="M1868,982l3,97 1,115 2,100 -71,3 -37,0 -78,3 -35,-1 -48,1 -1,-56 -5,-96 -4,-154 200,-9Z"/>
    <path data-fips-int="17077" data-name="Jackson County" d="M1123,2825l13,0 0,53 0,70 -1,87 -25,1 -117,-1 0,13 -7,9 -26,-6 1,-6 12,2 9,-5 -1,-6 -18,-23 0,-34 -32,-13 -6,-10 -10,-10 -15,1 -9,-8 3,-17 -6,-10 -3,-11 8,-4 3,-16 30,-60 140,4Z"/>
    <path data-fips-int="17079" data-name="Jasper County" d="M1698,2281l-43,0 -46,3 -57,0 -49,-2 0,-35 0,-35 -1,-122 93,0 71,-3 27,-1 3,80 2,65Z"/>
    <path data-fips-int="17081" data-name="Jefferson County" d="M1348,2509l0,105 -1,26 -1,78 -89,0 -67,2 -44,0 -10,0 2,-52 1,-157 59,0 38,-2 29,0Z"/>
    <path data-fips-int="17083" data-name="Jersey County" d="M673,2037l0,97 -2,59 -59,0 -1,46 -16,-1 -36,-21 -30,-6 -17,0 -13,8 -13,-7 -13,-20 -2,-24 -6,-8 2,-12 -7,-28 3,-12 6,-3 0,-12 13,-15 25,4 2,13 5,-9 38,2 43,0 0,-30 52,0 -1,-20Z"/>
    <path data-fips-int="17085" data-name="Jo Daviess County" d="M790,92l1,124 0,61 -37,0 -97,0 -43,0 -27,-14 -17,-22 -5,-18 5,-16 0,-12 -10,-16 -16,-18 -33,-18 -6,-15 -25,-11 -13,-12 0,-8 6,-10 121,3 138,0Z"/>
    <path data-fips-int="17087" data-name="Johnson County" d="M1346,3034l0,158 -8,1 -84,0 -1,0 1,0 3,11 -15,9 -12,3 -18,-8 -11,0 -14,10 0,-22 0,-96 2,-63 97,-1 6,-2Z"/>
    <path data-fips-int="17089" data-name="Kane County" d="M1539,301l0,53 -11,0 1,48 1,96 1,61 -113,4 -39,0 -1,-133 0,-75 6,0 -1,-52 69,-1 74,0Z"/>
    <path data-fips-int="17091" data-name="Kankakee County" d="M1865,809l3,173 -73,3 -200,9 -52,2 -3,-71 5,-1 -2,-51 104,-4 -2,-52 43,-2 127,-4Z"/>
    <path data-fips-int="17093" data-name="Kendall County" d="M1531,559l1,46 5,111 -55,2 -99,3 -4,-105 0,-53 39,0 113,-4Z"/>
    <path data-fips-int="17095" data-name="Knox County" d="M758,905l-2,105 0,96 -1,61 -88,-2 -83,0 -38,-2 6,-209 1,-52 114,0 40,2Z"/>
    <path data-fips-int="17097" data-name="Lake County" d="M1728,161l-1,0 1,0 -6,12 -1,0 -3,26 1,6 0,23 13,37 19,34 -22,1 -81,0 -3,1 -89,0 0,-72 -3,-131 2,-1 25,-1 107,0 41,-1 3,7 -2,32 1,23Z"/>
    <path data-fips-int="17099" data-name="La Salle County" d="M1379,616l4,105 1,49 4,81 1,79 -90,2 -66,0 0,107 -53,1 0,-107 -51,0 -1,-123 -2,-103 0,-63 0,-25 76,1 26,-1 36,-2 76,0Z"/>
    <path data-fips-int="17101" data-name="Lawrence County" d="M1838,2448l-20,0 -102,0 1,-2 -2,-165 74,-1 31,-3 50,0 21,-1 2,21 16,20 -9,9 8,1 -3,10 4,5 -10,16 0,10 -10,12 -17,4 -11,7 -8,13 1,11 -5,9 8,11 -11,-2 -2,11Z"/>
    <path data-fips-int="17103" data-name="Lee County" d="M1227,461l0,104 1,54 -26,1 -76,-1 0,25 -208,0 -2,-91 3,0 0,-98 66,0 6,-7 21,4 -4,7 8,5 5,-9 19,0 -1,8 41,0 45,-1Z"/>
    <path data-fips-int="17105" data-name="Livingston County" d="M1540,925l3,71 2,85 4,93 2,48 -102,2 -53,0 0,-32 -4,0 -1,-52 -105,3 -51,0 -2,-104 0,-107 66,0 90,-2 39,0 84,-4Z"/>
    <path data-fips-int="17107" data-name="Logan County" d="M1135,1427l2,80 0,59 1,79 -34,0 -85,0 -1,-9 -36,-1 -1,-26 -43,0 0,-69 -10,0 0,-18 -1,-58 1,0 0,-61 82,-2 73,0 0,26Z"/>
    <path data-fips-int="17109" data-name="McDonough County" d="M389,1208l65,4 43,1 48,3 -2,101 -1,60 -2,50 -34,-3 -124,-3 -52,-3 2,-54 1,-68 4,-91Z"/>
    <path data-fips-int="17111" data-name="McHenry County" d="M1555,97l-2,1 3,131 0,72 -17,0 -13,1 -74,0 -69,1 -52,0 -1,-134 -1,-70 36,-1 90,0Z"/>
    <path data-fips-int="17113" data-name="McLean County" d="M1449,1224l1,131 0,70 -53,0 -108,0 0,1 -142,0 -12,1 -52,0 0,-26 -1,-71 -2,-91 62,-1 0,-9 14,-1 1,-8 25,-1 0,-22 28,-1 -2,-52 27,-1 51,0 105,-3 1,52 4,0 0,32Z"/>
    <path data-fips-int="17115" data-name="Macon County" d="M1320,1562l1,158 -6,0 1,31 -25,-1 0,53 -26,1 -72,-1 -53,-1 -1,-87 -21,-10 -14,2 0,-62 34,0 -1,-79 59,0 50,-3Z"/>
    <path data-fips-int="17117" data-name="Macoupin County" d="M880,1881l1,105 -2,0 0,46 1,74 0,89 -95,0 -85,0 -29,-2 2,-59 0,-97 -2,-51 0,-104 106,-1Z"/>
    <path data-fips-int="17119" data-name="Madison County" d="M671,2193l29,2 85,0 95,0 27,0 1,9 1,67 17,0 1,78 1,53 -53,0 -64,-1 -57,-2 -101,-2 -2,-9 -12,-22 4,-14 12,-9 6,-14 20,-14 7,-26 -5,-8 -40,-25 -22,-15 -10,-2 1,-46Z"/>
    <path data-fips-int="17121" data-name="Marion County" d="M1348,2299l0,44 0,88 0,78 -83,0 -29,0 -38,2 -59,0 0,-18 1,-39 1,-100 0,-53 80,0 65,0Z"/>
    <path data-fips-int="17123" data-name="Marshall County" d="M991,906l62,1 -5,21 -8,6 87,0 2,-1 51,0 0,107 -29,-1 -74,2 -21,1 -68,1 8,-10 4,-21 -87,0 1,-106Z"/>
    <path data-fips-int="17125" data-name="Mason County" d="M928,1403l0,61 -1,0 1,58 -15,-19 -7,-3 -16,2 -3,8 -10,-2 -17,11 -11,-3 -17,6 -13,-6 -13,1 -1,-5 -13,6 -13,-8 -8,6 -12,-7 -6,18 -5,2 -3,4 -17,0 -3,-5 -16,14 -23,8 -2,6 -8,-3 -11,5 -4,-4 -5,8 -34,-6 -10,2 -5,-20 -7,-16 -17,-4 8,-7 14,-2 18,-9 15,3 12,-1 4,-19 11,-9 4,-9 20,-9 8,-20 6,-3 12,-17 0,-10 8,-13 -1,-7 8,-18 23,-9 16,-19 12,-8 34,2 60,-1 1,7 1,63Z"/>
    <path data-fips-int="17127" data-name="Massac County" d="M1453,3352l-17,1 -17,-6 -14,-13 -19,-13 -33,-13 -13,1 -17,-11 -21,-17 -15,-5 -44,-18 -1,-45 15,-9 -3,-11 -1,0 1,0 84,0 8,-1 11,10 42,43 53,53Z"/>
    <path data-fips-int="17129" data-name="Menard County" d="M928,1522l0,18 10,0 0,69 -55,1 -2,35 -31,0 0,8 -94,0 -10,0 2,-124 5,-2 6,-18 12,7 8,-6 13,8 13,-6 1,5 13,-1 13,6 17,-6 11,3 17,-11 10,2 3,-8 16,-2 7,3Z"/>
    <path data-fips-int="17131" data-name="Mercer County" d="M556,796l-3,106 -1,52 -45,0 -38,-3 -74,-2 -74,-3 1,-15 -18,-36 -6,-5 -16,-2 -12,-19 -21,-26 0,-7 17,-29 3,-19 70,1 77,4 54,1 42,2Z"/>
    <path data-fips-int="17133" data-name="Monroe County" d="M783,2662l-65,-2 0,52 -80,28 -17,-14 -14,-28 -11,-10 -17,-9 -13,-25 -5,-34 1,-28 14,-33 24,-24 13,-52 0,-4 56,58 0,9 51,53 0,9 57,1 5,17 -11,4 4,13 10,12Z"/>
    <path data-fips-int="17135" data-name="Montgomery County" d="M958,1881l1,105 181,0 0,78 -51,1 0,114 -156,-1 -1,17 -25,0 -27,0 0,-89 -1,-74 0,-46 2,0 -1,-105Z"/>
    <path data-fips-int="17137" data-name="Morgan County" d="M746,1671l0,52 4,0 0,40 28,97 -1,21 -106,1 -68,-1 1,-70 -17,-1 0,-17 -16,-1 2,-51 -52,-1 0,-22 -53,-1 15,-22 -2,-8 -5,-8 0,-14 80,2 72,2 41,0Z"/>
    <path data-fips-int="17139" data-name="Moultrie County" d="M1321,1720l22,-1 104,0 1,84 2,122 -53,1 0,-18 -9,0 0,-9 -8,0 -1,-8 -9,0 0,-9 -35,0 0,-35 -42,0 -2,-44 0,-53 25,1 -1,-31Z"/>
    <path data-fips-int="17141" data-name="Ogle County" d="M1227,304l0,52 -1,1 1,104 -102,1 -45,1 -41,0 1,-8 -19,0 -5,9 -8,-5 4,-7 -21,-4 -6,7 -66,0 -2,-17 -23,0 1,-33 0,-95 -1,-33 9,-1 90,0 31,-1 99,-1 0,32Z"/>
    <path data-fips-int="17143" data-name="Peoria County" d="M913,1012l87,0 -4,21 -8,10 -2,20 -32,39 -7,23 4,22 3,18 -3,11 -17,9 -12,13 3,6 -23,32 1,19 -11,9 -8,-6 -18,7 -15,-2 -19,8 -27,16 0,-67 -52,-1 2,-52 1,-61 0,-96 48,0 46,1Z"/>
    <path data-fips-int="17145" data-name="Perry County" d="M928,2662l78,4 34,1 49,-1 49,2 -2,52 10,0 -4,13 10,5 0,21 -7,2 -7,15 4,5 -1,14 -7,20 -11,10 -57,0 -140,-4 2,-103Z"/>
    <path data-fips-int="17147" data-name="Piatt County" d="M1450,1425l-1,35 1,119 1,88 1,52 -5,0 -104,0 -22,1 -1,-158 0,-26 26,0 0,-26 51,-85Z"/>
    <path data-fips-int="17149" data-name="Pike County" d="M481,1687l2,8 -15,22 -10,29 -10,14 -3,10 7,20 9,16 2,9 13,41 2,12 -4,10 -6,22 -8,15 -3,18 1,20 -46,-1 -67,-3 -37,0 -29,-17 -13,-9 -14,-17 -2,-16 -16,-26 -24,-6 -8,-12 -2,-16 -5,-7 -19,-9 -20,-27 -13,-9 -30,-31 2,-18 46,2 83,2 78,2 0,-54 9,3 68,1 27,2Z"/>
    <path data-fips-int="17151" data-name="Pope County" d="M1487,3033l0,106 -18,8 -11,14 -5,28 -11,23 -2,11 2,13 13,12 6,13 12,10 7,25 4,5 -10,33 -6,14 -15,4 -1,-54 -53,-53 -42,-43 -11,-10 0,-158 76,0Z"/>
    <path data-fips-int="17153" data-name="Pulaski County" d="M1187,3196l0,22 14,-10 11,0 18,8 12,-3 1,45 -33,4 -25,18 -18,18 -9,24 -23,24 -6,9 -6,-2 -9,-12 -20,-2 -12,-11 -3,-7 6,-21 -5,0 2,-16 5,-5 -6,-20 5,-2 4,-19 5,-6 13,-6 4,-5 -2,-17 -8,-8 -12,-2 73,1Z"/>
    <path data-fips-int="17155" data-name="Putnam County" d="M1128,810l1,123 -2,1 -87,0 8,-6 5,-21 -62,-1 0,-51 50,1 9,-29 0,-12 37,-12 13,5Z"/>
    <path data-fips-int="17157" data-name="Randolph County" d="M783,2662l93,0 52,0 0,56 -2,103 -30,60 -3,16 -8,4 3,11 -22,-13 -9,-12 -23,-5 -4,-15 -22,-16 -17,15 -11,7 -16,-4 -13,-17 -5,-15 14,-10 4,-9 -6,-5 -22,3 -23,-25 -29,-15 -7,-15 -10,-8 -13,-1 -16,-12 80,-28 0,-52Z"/>
    <path data-fips-int="17159" data-name="Richland County" d="M1698,2281l17,0 2,165 -1,2 -20,1 -32,0 -58,2 -1,-17 -48,-1 -16,-11 -6,-10 5,-5 5,-7 -4,-16 0,-30 12,0 -1,-70 57,0 46,-3Z"/>
    <path data-fips-int="17161" data-name="Rock Island County" d="M669,643l3,7 -5,16 -14,6 -14,8 -23,2 -7,6 -8,-3 -15,10 -2,9 -21,14 -5,0 -2,78 -44,0 -42,-2 -54,-1 -77,-4 -70,-1 4,-23 5,-8 6,-21 28,-8 15,7 10,0 31,-17 10,-2 37,5 41,-7 24,-19 5,-10 26,-9 13,4 21,-2 13,-16 15,-12 26,-10 1,-8 -1,-25 5,-22 8,-8 0,-21 2,-8 15,-15 16,-9 -3,21 6,7 -5,21 8,5 0,11 17,7 13,12 -2,28Z"/>
    <path data-fips-int="17163" data-name="Saint Clair County" d="M875,2402l1,142 0,118 -93,0 2,-7 -10,-12 -4,-13 11,-4 -5,-17 -57,-1 0,-9 -51,-53 0,-9 -56,-58 18,-29 12,-10 7,-11 5,-15 -2,-17 101,2 57,2Z"/>
    <path data-fips-int="17165" data-name="Saline County" d="M1503,2849l2,115 0,69 -18,0 -65,1 -76,0 1,-99 -1,-59 0,-26 85,0Z"/>
    <path data-fips-int="17167" data-name="Sangamon County" d="M1104,1645l0,62 -15,-6 -4,10 -15,9 -7,10 -10,5 -15,0 -15,14 -8,0 -7,-10 0,46 -25,0 1,26 -27,-1 1,71 -78,0 -103,0 1,-21 -28,-97 0,-40 -4,0 0,-52 0,-18 10,0 94,0 0,-8 31,0 2,-35 55,-1 43,0 1,26 36,1 1,9Z"/>
    <path data-fips-int="17169" data-name="Schuyler County" d="M540,1427l-1,51 53,2 62,3 -4,19 -12,1 -15,-3 -18,9 -14,2 -8,7 -8,0 -10,18 0,8 -17,12 -2,23 -12,8 -22,7 -3,5 -5,3 -20,-1 -18,1 2,-14 -7,-5 4,-11 -9,5 -11,-6 -4,-9 -7,-2 3,-18 -15,-2 4,-12 -33,-2 -66,0 1,-53 2,-55 52,3 124,3Z"/>
    <path data-fips-int="17171" data-name="Scott County" d="M603,1881l-71,-2 -58,-1 4,-10 -2,-12 -13,-41 -2,-9 -9,-16 -7,-20 3,-10 10,-14 10,-29 53,1 0,22 52,1 -2,51 16,1 0,17 17,1Z"/>
    <path data-fips-int="17173" data-name="Shelby County" d="M1291,1803l2,44 42,0 0,35 35,0 0,9 9,0 1,8 8,0 0,9 9,0 0,18 53,-1 0,44 1,96 -156,0 -126,1 -29,-2 0,-78 53,2 0,-132 0,-53 72,1Z"/>
    <path data-fips-int="17175" data-name="Stark County" d="M815,855l99,0 0,51 -1,106 -63,-1 -46,-1 -48,0 2,-105 52,0 0,-48Z"/>
    <path data-fips-int="17177" data-name="Stephenson County" d="M894,277l-26,0 -77,0 0,-61 -1,-124 113,1 69,2 50,1 1,56 1,123 -31,1 -90,0Z"/>
    <path data-fips-int="17179" data-name="Tazewell County" d="M1080,1239l2,91 1,71 -73,0 -82,2 -51,0 -1,-63 -1,-7 -60,1 -34,-2 9,-7 8,-15 2,-16 5,-7 27,-16 19,-8 15,2 18,-7 8,6 11,-9 -1,-19 23,-32 -3,-6 12,-13 17,-9 3,-11 -3,-18 101,0 1,52 1,27 26,0Z"/>
    <path data-fips-int="17181" data-name="Union County" d="M1135,3035l54,2 -2,63 0,96 -24,-1 -73,-1 -111,0 -1,-1 17,-2 9,-8 4,-20 -7,-26 -18,-24 -9,-16 -12,-25 -2,-21 26,6 7,-9 0,-13 117,1Z"/>
    <path data-fips-int="17183" data-name="Vermilion County" d="M1874,1294l2,214 2,150 -22,1 12,8 -28,0 1,-8 -58,2 -29,0 -62,2 -3,-149 -2,-58 7,0 -2,-61 -2,-44 -2,-51 78,-3 37,0Z"/>
    <path data-fips-int="17185" data-name="Wabash County" d="M1696,2449l20,-1 102,0 20,0 1,6 -9,9 10,22 -11,-1 -6,9 -14,8 -11,0 -8,12 12,6 -4,8 -2,16 -14,22 -14,7 -8,10 -5,13 0,22 -10,7 -5,-8 3,-8 -9,-3 -4,14 -11,11 -4,-6 6,-9 -12,-3 -9,16 4,4 -7,16 -14,-11 -1,-2 1,-9 7,0 10,-10 -2,-29 -11,-22 3,-15 9,-10 4,-27 -5,-10 -2,-21 6,-9 -8,-19Z"/>
    <path data-fips-int="17187" data-name="Warren County" d="M552,954l-6,209 -1,53 -48,-3 -43,-1 -65,-4 2,-121 4,-138 74,2 38,3Z"/>
    <path data-fips-int="17189" data-name="Washington County" d="M1139,2493l0,18 -1,157 -49,-2 -49,1 -34,-1 -78,-4 -52,0 0,-118 16,-7 3,-10 9,3 8,-7 6,-12 23,-6 35,7 10,-1 19,-15 8,7 3,-5 16,-1 8,-10 18,2 25,0Z"/>
    <path data-fips-int="17191" data-name="Wayne County" d="M1557,2433l48,1 1,17 1,121 0,66 -63,0 -41,1 -48,1 -108,0 1,-26 0,-105 0,-78 65,-1 35,2 57,0Z"/>
    <path data-fips-int="17193" data-name="White County" d="M1682,2635l1,2 4,12 -2,13 5,11 17,13 3,11 3,-9 6,7 -15,20 -9,-4 -4,13 -19,5 1,11 25,-9 2,8 -6,12 -15,9 -16,0 0,12 9,-2 3,5 -7,9 6,21 -2,9 -9,3 3,16 -6,4 -6,-6 -3,10 20,2 3,12 -20,2 -14,-9 -4,9 1,0 -1,0 -20,-15 0,5 -105,0 -8,1 0,-122 0,-87 41,-1 63,0 57,-1Z"/>
    <path data-fips-int="17195" data-name="Whiteside County" d="M894,438l23,0 2,17 0,98 -3,0 2,91 -104,0 -84,0 -61,-1 10,-7 2,-28 -13,-12 -17,-7 0,-11 -8,-5 5,-21 -6,-7 3,-21 24,-12 4,-5 -2,-13 8,-27 6,-14 1,-16 68,-1 123,1Z"/>
    <path data-fips-int="17197" data-name="Will County" d="M1635,581l1,26 52,-2 2,52 53,-2 2,53 49,0 69,-2 2,57 0,46 -50,2 -127,4 -43,2 2,52 -104,4 -4,-110 -2,-47 -5,-111 -1,-46 44,-1 59,-3Z"/>
    <path data-fips-int="17199" data-name="Williamson County" d="M1346,2876l1,59 -1,99 -54,0 -6,2 -97,1 -54,-2 1,-87 0,-70 96,0 50,-1Z"/>
    <path data-fips-int="17201" data-name="Winnebago County" d="M1226,99l0,171 1,34 -104,2 0,-32 -99,1 -1,-123 -1,-56Z"/>
    <path data-fips-int="17203" data-name="Woodford County" d="M1235,1143l-27,1 2,52 -28,1 0,22 -25,1 -1,8 -14,1 0,9 -62,1 0,-13 -26,0 -1,-27 -1,-52 -101,0 -4,-22 7,-23 32,-39 2,-20 68,-1 21,-1 74,-2 29,1 53,-1Z"/>
    <path data-fips-int="17013" data-name="Calhoun County" d="M458,1953l-5,19 6,37 3,5 -4,21 1,19 5,5 2,15 -10,16 -1,16 5,14 7,28 -2,12 6,8 2,24 13,20 13,7 13,-8 17,0 -9,4 -6,13 -12,13 -7,15 -14,13 -19,2 -10,-5 -12,-22 -10,-10 -5,-19 -1,-21 -12,-26 1,-17 10,-13 -2,-20 -11,-18 1,-12 -7,-49 -10,-8 -10,-20 -8,-8 -13,-6 -19,-20 -15,-7 -21,-21 37,0 67,3Z"/>
  </g>
  <g class="cities">
    <circle r="1" cx="180.4" cy="48.0"/>
    <text x="180.4" y="48.0">Chicago</text>
    <circle r="1" cx="150.5" cy="53.8"/>
    <text x="150.5" y="53.8">Aurora</text>
    <circle r="1" cx="115.9" cy="23.4"/>
    <text x="115.9" y="23.4">Rockford</text>
  </g>
</svg>