<?xml version="1.0" encoding="utf-8"?>
<!DOCTYPE svg PUBLIC "-//W3C//DTD SVG 1.1//EN" "http://www.w3.org/Graphics/SVG/1.1/DTD/svg11.dtd">
<svg version="1.1" xmlns="http://www.w3.org/2000/svg" width="560" height="1000" viewBox="0 0 560 1000">
  <path class="state" d="M31,494l-1,-9 -9,-11 4,-10 -9,-15 -2,-18 1,-13 2,-14 6,-13 11,-7v-19l-5,-5 7,-11 22,-5 8,-5 4,-25 19,-23 1,-21 -5,-15 -7,-1 -8,-13 4,-16 6,-15h15l10,-6h23l14,-11 12,1 15,-11 4,-25 9,-9 8,-5 4,-20 2,-11 -3,-22 -20,-12 -9,-5 -5,-11 2,-8 -11,-11 -19,-17 2,-2h157l58,1h30l64,-1h50l-3,37 9,22 11,13 14,51 7,10 1,42v30l1,49 2,89 1,73 1,31 2,70v23l-10,6 4,16 -7,10h-1l-3,4 13,13 -1,12 9,7 -2,16 5,13 -4,16 -9,3 -7,18v9l-12,6v11l-15,18 -15,13 -2,-3 2,10 7,6 -12,10 7,5 -11,4 4,28h-11l9,11 -4,15 -13,13 4,15 10,9v6l-34,8 -7,6 -7,-2 -8,5 -5,16 12,25 -4,13 -5,1h-7l-12,-9 -14,-3 -6,-6 -21,-8 -11,2 -9,8 -12,17 -2,7 6,8 -7,2 -9,-18 -8,1 6,13 -15,-8v-9l-7,-9 -12,-24 4,-9 9,-9 -8,-15 -6,-16 6,-2 -5,-10v-8l-14,-11h-6l-1,-9 -16,-9 -8,-8 -6,5 -11,-7 5,-9h-8l-20,-18 -8,-4 -10,-13 -10,-8 -2,-20 11,-17 3,-16 11,-12 1,-12 -4,-8 12,-14 2,-9 -22,-13 -23,-8 -13,16 -10,-1 -6,-8 -5,-20 3,-8 -6,-29 -7,-10 -20,-15 -16,-12 -5,-13 -34,-30Z"/>
  <g class="counties">
    <path data-fips-int="17001" data-name="Adams County" d="M93,421l-1,15 -1,45v14l-60,-1 -1,-9 -9,-11 4,-10 -9,-15 -2,-18 1,-13Z"/>
    <path data-fips-int="17003" data-name="Alexander County" d="M312,912l6,8 -6,5 -1,20 2,9 10,4 -2,7 6,8 -7,2 -9,-18 -8,1 6,13 -15,-8v-9l-7,-9 -12,-24 4,-9Z"/>
    <path data-fips-int="17005" data-name="Bond County" d="M311,622l-1,49h-46v-23h-5l-1,-21 7,-5Z"/>
    <path data-fips-int="17007" data-name="Boone County" d="M378,26v59l-30,1v-60Z"/>
    <path data-fips-int="17009" data-name="Brown County" d="M144,457l-9,18 1,7 -45,-1 1,-45h28l3,10 8,4 1,8Z"/>
    <path data-fips-int="17011" data-name="Bureau County" d="M320,183l1,48 -15,-2 -8,4 -2,11h-14v14h-22v-14l-29,-1v-60h30Z"/>
    <path data-fips-int="17015" data-name="Carroll County" d="M253,79l1,45h-60l2,-11 -3,-22 -20,-12h51Z"/>
    <path data-fips-int="17017" data-name="Cass County" d="M165,433l10,12 19,-1 19,-8 -1,36v5l-75,-1 -2,-1 9,-18 11,-6v-6Z"/>
    <path data-fips-int="17019" data-name="Champaign County" d="M482,385l-1,30 2,59 -69,1 -1,-69v-21Z"/>
    <path data-fips-int="17021" data-name="Christian County" d="M314,487l10,3 1,23h15v54h-67v-50h7v-8h7l4,-9Z"/>
    <path data-fips-int="17023" data-name="Clark County" d="M538,542v23l-10,6 4,16 -7,10h-1l-14,-3 -27,1h-8l-1,-35v-17h7l36,-2Z"/>
    <path data-fips-int="17025" data-name="Clay County" d="M429,641v10l14,1 1,19 -4,1v18l5,4h-60v-53Z"/>
    <path data-fips-int="17027" data-name="Clinton County" d="M310,671l15,1v40l-29,-1 -16,6h-18l-12,9 -1,-40 15,-1v-14Z"/>
    <path data-fips-int="17029" data-name="Coles County" d="M481,543h-7v17l-25,2h-35l-1,-13v-36h54v-4l13,-1Z"/>
    <path data-fips-int="17031" data-name="Cook County" d="M442,85l2,-1h54l11,13 14,51 7,10 1,42 -34,1 -1,-15 -15,1v-15h-14l-2,-7 15,-5 -1,-48 -44,2v-14l3,-15Z"/>
    <path data-fips-int="17033" data-name="Crawford County" d="M524,597h1h-1l-3,4 13,13 -1,12 9,7 -2,16 -50,1 -5,1 -2,-56 27,-1Z"/>
    <path data-fips-int="17035" data-name="Cumberland County" d="M475,595l-46,2h-15v-35h35l25,-2Z"/>
    <path data-fips-int="17037" data-name="DeKalb County" d="M393,85l-1,22v53l1,15 -44,1 -1,-45v-45l30,-1Z"/>
    <path data-fips-int="17039" data-name="De Witt County" d="M398,407l-15,24v7h-7l1,8 -53,1 -1,-40Z"/>
    <path data-fips-int="17041" data-name="Douglas County" d="M483,474v16h-4l1,18 -13,1v4h-54v-23l1,-15Z"/>
    <path data-fips-int="17043" data-name="DuPage County" d="M465,165v-7l-29,1 -1,-45 44,-2 1,48Z"/>
    <path data-fips-int="17045" data-name="Edgar County" d="M538,542l-21,-1 -36,2 -1,-35 -1,-18h4v-16l53,-2Z"/>
    <path data-fips-int="17047" data-name="Edwards County" d="M485,699l1,25 -4,8 4,11 -6,9 -21,1 -1,-53Z"/>
    <path data-fips-int="17049" data-name="Effingham County" d="M414,589v8h15v44h-44l-15,1v-53Z"/>
    <path data-fips-int="17051" data-name="Fayette County" d="M325,589h45v53l15,-1v15l-60,1v15l-15,-1 1,-49v-33Z"/>
    <path data-fips-int="17053" data-name="Ford County" d="M481,371l1,14h-69v-36l29,-1 -3,-64 15,-1 3,88Z"/>
    <path data-fips-int="17055" data-name="Franklin County" d="M385,777v44h-61v-14h-3l5,-8 3,-18 -2,-4Z"/>
    <path data-fips-int="17057" data-name="Fulton County" d="M214,334v14h15v19l-7,13 -15,11 -2,8 -9,17 -10,8 -33,-2v-14l1,-61 1,-14h58Z"/>
    <path data-fips-int="17059" data-name="Gallatin County" d="M467,816l9,11 -4,15 -13,13 4,15 -5,-4h-28v-53h32Z"/>
    <path data-fips-int="17061" data-name="Greene County" d="M171,537h20v45l-7,5h-15v9l-35,-2 -3,12 1,-14 -2,-34 5,-22Z"/>
    <path data-fips-int="17063" data-name="Grundy County" d="M439,248l-1,14 -43,3 -1,-61 44,-1Z"/>
    <path data-fips-int="17065" data-name="Hamilton County" d="M429,754l1,59 -45,1v-60Z"/>
    <path data-fips-int="17067" data-name="Hancock County" d="M95,344l-2,61v16l-78,-3 2,-14 6,-13 11,-7v-19l-5,-5 7,-11 22,-5Z"/>
    <path data-fips-int="17069" data-name="Hardin County" d="M430,866h28l5,4 10,9v6l-34,8 -7,6 -7,-2v-31Z"/>
    <path data-fips-int="17071" data-name="Henderson County" d="M111,271l-1,74 -15,-1h-37l8,-5 4,-25 19,-23 1,-21Z"/>
    <path data-fips-int="17073" data-name="Henry County" d="M231,183v60l-1,15h-15l-59,-1 1,-30v-23l12,-8 19,-5 1,-8Z"/>
    <path data-fips-int="17075" data-name="Iroquois County" d="M532,279l2,89 -53,3h-24l-3,-88Z"/>
    <path data-fips-int="17077" data-name="Jackson County" d="M321,807h3v60h-39l-4,7 -7,-2 6,-2 -5,-10v-8l-14,-11h-6l-1,-9 10,-26Z"/>
    <path data-fips-int="17079" data-name="Jasper County" d="M485,651l-42,1 -14,-1v-54l46,-2h8Z"/>
    <path data-fips-int="17081" data-name="Jefferson County" d="M385,717v60h-58l-2,-16v-44Z"/>
    <path data-fips-int="17083" data-name="Jersey County" d="M191,582v44h-17v14l-23,-8 -8,2 -8,-8 -4,-20 3,-12 35,2v-9h15Z"/>
    <path data-fips-int="17085" data-name="Jo Daviess County" d="M223,25l1,54h-51l-9,-5 -5,-11 2,-8 -11,-11 -19,-17 2,-2h26Z"/>
    <path data-fips-int="17087" data-name="Johnson County" d="M385,866v46h-26l-4,5 -16,-4 1,-46Z"/>
    <path data-fips-int="17089" data-name="Kane County" d="M438,85l-3,15v14l1,45 -44,1v-53l1,-22Z"/>
    <path data-fips-int="17091" data-name="Kankakee County" d="M531,230l1,49 -78,4 -15,1 -1,-22 1,-14 30,-2v-14Z"/>
    <path data-fips-int="17093" data-name="Kendall County" d="M436,159l2,44 -44,1 -1,-29 -1,-15 44,-1Z"/>
    <path data-fips-int="17095" data-name="Knox County" d="M215,258l-1,30v46l-1,-1h-58l1,-61v-15Z"/>
    <path data-fips-int="17097" data-name="Lake County" d="M498,84h-54l-2,1v-60h50l-3,37Z"/>
    <path data-fips-int="17099" data-name="La Salle County" d="M394,204l1,61h-44v31h-15v-31h-15v-34l-1,-48v-7h29l44,-1Z"/>
    <path data-fips-int="17101" data-name="Lawrence County" d="M525,699h-35v-49l50,-1 5,13 -4,16 -9,3Z"/>
    <path data-fips-int="17103" data-name="Lee County" d="M348,131l1,45h-29v7h-59v-54h34v3Z"/>
    <path data-fips-int="17105" data-name="Livingston County" d="M438,262l1,22 3,64 -29,1h-15l-2,-24 -44,1 -1,-30v-31h44Z"/>
    <path data-fips-int="17107" data-name="Logan County" d="M323,407l1,40v22h-34l-10,-2 -1,-8h-12v-20l-3,-5v-34l44,-1v8Z"/>
    <path data-fips-int="17109" data-name="McDonough County" d="M110,345l44,2 -1,61 -60,-3 2,-61Z"/>
    <path data-fips-int="17111" data-name="McHenry County" d="M442,25v60h-64v-59Z"/>
    <path data-fips-int="17113" data-name="McLean County" d="M413,349v57l-15,1h-90v-8l-1,-45h14l16,-6 7,-7v-15h8l44,-1 2,24Z"/>
    <path data-fips-int="17115" data-name="Macon County" d="M377,446v44l-2,10h-7v13h-43l-1,-23 -10,-3v-18h10v-22Z"/>
    <path data-fips-int="17117" data-name="Macoupin County" d="M251,537v90l-60,-1v-89h30Z"/>
    <path data-fips-int="17119" data-name="Madison County" d="M191,626l60,1h7l1,21h5v37l-15,1 -63,-2 -4,-8 12,-14 2,-9 -22,-13v-14Z"/>
    <path data-fips-int="17121" data-name="Marion County" d="M385,656v61h-60v-60Z"/>
    <path data-fips-int="17123" data-name="Marshall County" d="M282,258h17l-3,7h40v31l-55,1 3,-8h-24v-31Z"/>
    <path data-fips-int="17125" data-name="Mason County" d="M264,400v34l-5,-5 -13,4h-19l-12,-2 -2,5 -19,8 -19,1 -10,-12 21,-9 10,-8 9,-17 2,-8 15,-11 27,1v20Z"/>
    <path data-fips-int="17127" data-name="Massac County" d="M415,957h-7l-12,-9 -14,-3 -6,-6 -21,-8v-14l4,-5h26l30,29Z"/>
    <path data-fips-int="17129" data-name="Menard County" d="M264,434l3,5v20l-16,1v9l-9,3h-30l1,-36 2,-5 12,2h19l13,-4Z"/>
    <path data-fips-int="17131" data-name="Mercer County" d="M157,227l-1,30v15l-45,-1 -21,-1 -5,-15 -7,-1 -8,-13 4,-16 49,2Z"/>
    <path data-fips-int="17133" data-name="Monroe County" d="M223,761l-18,-1v15l-23,7 -10,-13 -10,-8 -2,-20 11,-17 3,-16 13,13 18,24h17Z"/>
    <path data-fips-int="17135" data-name="Montgomery County" d="M273,537v30h52v22h-14v33h-46l-7,5h-7v-90Z"/>
    <path data-fips-int="17137" data-name="Morgan County" d="M212,477l1,27 8,26v7h-50l1,-20 -10,-5 1,-15h-15v-7h-16l4,-8 -1,-7 2,1Z"/>
    <path data-fips-int="17139" data-name="Moultrie County" d="M377,490h36v59h-15l-7,-12h-10v-10h-12l-1,-14v-13h7Z"/>
    <path data-fips-int="17141" data-name="Ogle County" d="M348,86v45l-53,1v-3h-34l-7,-5 -1,-45 37,-1h29v8Z"/>
    <path data-fips-int="17143" data-name="Peoria County" d="M260,289h24l-3,8 -10,16 -1,14 -14,26 1,5 -22,5 -6,4v-19h-15v-60Z"/>
    <path data-fips-int="17145" data-name="Perry County" d="M265,761h60l2,16 2,4 -3,18 -5,8 -57,-1Z"/>
    <path data-fips-int="17147" data-name="Piatt County" d="M413,406l1,69 -1,15h-36v-44l-1,-8h7v-7l15,-24Z"/>
    <path data-fips-int="17149" data-name="Pike County" d="M136,482l-4,8 -6,15 5,10 4,21 -5,22 -43,-1 -16,-12 -5,-13 -34,-30 -1,-8 60,1v-14Z"/>
    <path data-fips-int="17151" data-name="Pope County" d="M425,866v31l-8,5 -5,16 12,25 -4,13 -5,1v-16l-30,-29v-46Z"/>
    <path data-fips-int="17153" data-name="Pulaski County" d="M339,913l16,4v14l-11,2 -9,8 -12,17 -10,-4 -2,-9 1,-20 6,-5 -6,-8Z"/>
    <path data-fips-int="17155" data-name="Putnam County" d="M321,231v34h-25l3,-7h-17v-14h14l2,-11 8,-4Z"/>
    <path data-fips-int="17157" data-name="Randolph County" d="M223,761h42l-1,45 -10,26 -16,-9 -8,-8 -6,5 -11,-7 5,-9h-8l-20,-18 -8,-4 23,-7v-15Z"/>
    <path data-fips-int="17159" data-name="Richland County" d="M485,651l5,-1v49h-5l-27,1v-6h-13l-5,-4v-18l4,-1 -1,-19Z"/>
    <path data-fips-int="17161" data-name="Rock Island County" d="M189,183l-1,8 -19,5 -12,8v23h-34l-49,-2 6,-15h15l10,-6h23l14,-11 12,1 15,-11 4,-25 9,-9v14l11,11Z"/>
    <path data-fips-int="17163" data-name="Saint Clair County" d="M249,686l1,40v35h-27l-1,-16h-17l-18,-24 -13,-13 11,-12 1,-12Z"/>
    <path data-fips-int="17165" data-name="Saline County" d="M430,813v53h-45v-52Z"/>
    <path data-fips-int="17167" data-name="Sangamon County" d="M314,469v18l-23,13 -4,9h-7v8h-7v20h-52v-7l-8,-26 -1,-27v-5h30l9,-3v-9l16,-1h12l1,8 10,2Z"/>
    <path data-fips-int="17169" data-name="Schuyler County" d="M153,408v14l33,2 -21,9 -10,12v6l-11,6 -12,1 -1,-8 -8,-4 -3,-10h-28l1,-15v-16Z"/>
    <path data-fips-int="17171" data-name="Scott County" d="M171,537l-36,-1 -4,-21 -5,-10 6,-15h16v7h15l-1,15 10,5Z"/>
    <path data-fips-int="17173" data-name="Shelby County" d="M368,513l1,14h12v10h10l7,12h15l1,13v27h-89v-22h15v-54Z"/>
    <path data-fips-int="17175" data-name="Stark County" d="M231,243l29,1v45l-46,-1 1,-30h15Z"/>
    <path data-fips-int="17177" data-name="Stephenson County" d="M253,79h-29l-1,-54h67v53Z"/>
    <path data-fips-int="17179" data-name="Tazewell County" d="M307,354l1,45 -44,1 -15,1v-20l-27,-1 7,-13 6,-4 22,-5 -1,-5 14,-26h29l1,23Z"/>
    <path data-fips-int="17181" data-name="Union County" d="M324,867h16l-1,46 -27,-1h-33l9,-9 -8,-15 -6,-16 7,2 4,-7Z"/>
    <path data-fips-int="17183" data-name="Vermilion County" d="M534,368l1,73 1,31 -53,2 -2,-59 1,-30 -1,-14Z"/>
    <path data-fips-int="17185" data-name="Wabash County" d="M485,699h40v9l-12,6v11l-15,18 -15,13 -2,-3 -1,-1 6,-9 -4,-11 4,-8Z"/>
    <path data-fips-int="17187" data-name="Warren County" d="M156,272l-1,61 -1,14 -44,-2 1,-74Z"/>
    <path data-fips-int="17189" data-name="Washington County" d="M325,712v49h-75v-35l12,-9h18l16,-6Z"/>
    <path data-fips-int="17191" data-name="Wayne County" d="M445,694h13v6l1,53 -30,1h-44v-60Z"/>
    <path data-fips-int="17193" data-name="White County" d="M480,752l1,1 2,10 7,6 -12,10 7,5 -11,4 4,28h-11l-5,-3h-32l-1,-59 30,-1Z"/>
    <path data-fips-int="17195" data-name="Whiteside County" d="M254,124l7,5v54h-72l4,-9 -11,-11v-14l8,-5 4,-20Z"/>
    <path data-fips-int="17197" data-name="Will County" d="M465,165l2,7h14v15l15,-1 1,15 34,-1v30l-62,2v14l-30,2 -1,-45 -2,-44 29,-1Z"/>
    <path data-fips-int="17199" data-name="Williamson County" d="M385,821v45l-45,1h-16v-46Z"/>
    <path data-fips-int="17201" data-name="Winnebago County" d="M348,26v60h-29v-8h-29v-53Z"/>
    <path data-fips-int="17203" data-name="Woodford County" d="M352,326h-8v15l-7,7 -16,6h-14l-7,-4 -1,-23h-29l1,-14 10,-16 55,-1h15Z"/>
    <path data-fips-int="17013" data-name="Calhoun County" d="M130,558l2,34 -1,14 4,20 8,8 8,-2 -13,16 -10,-1 -6,-8 -5,-20 3,-8 -6,-29 -7,-10 -20,-15Z"/>
  </g>
  <path class="mesh" d="M279,912h33l6,8 -6,5 -1,20 2,9 10,4M378,26v59l-30,1v-60M173,79h80l1,45h-60M144,457l11,-6v-6l10,-12 10,12 19,-1 19,-8 -1,36v5l-75,-1 -2,-1M413,385v-36l29,-1 -3,-64 15,-1 3,88h24l1,14 -1,30 2,59 -69,1 -1,-69v-21h69M525,597h-1l-14,-3 -27,1h-8l-1,-35v-17h7l36,-2 21,1M429,597v54l14,1 1,19 -4,1v18l5,4h-60v-53h44M310,671l15,1v40l-29,-1 -16,6h-18l-12,9 -1,-40 15,-1v-14M474,560l-25,2h-35l-1,-13v-36h54v-4l13,-1 1,35M531,200l-34,1 -1,-15 -15,1v-15h-14l-2,-7 15,-5 -1,-48 -44,2v-14l3,-15h4l2,-1h54M540,649l-50,1 -5,1 -2,-56M475,595l-46,2h-15v-35M253,79l37,-1h29v8h29M413,406l-15,1 -15,24v7h-7l1,8 -53,1 -1,-40h75M483,474v16h-4l1,18M413,513v-23l1,-15M465,165v-7l-29,1 -1,-45M483,474l53,-2M490,699h-5l1,25 -4,8 4,11 -6,9 -21,1 -1,-53 27,-1M385,641l-15,1v-53h44M311,622l-1,49h-46v-23h-5l-1,-21 7,-5h46v-33h59M385,656l-60,1v15M215,258l-1,30v60h15v19l-7,13 -15,11 -2,8 -9,17 -10,8 -33,-2v-14l1,-61 1,-14h58l1,1M92,436l-1,45v14l-60,-1M463,870l-5,-4h-28v-53h32l5,3M385,777v44h-61v-14h-3l5,-8 3,-18 -2,-4h58v-23h44l1,59 -45,1M58,344h37l-2,61v16M425,897v-31h5M90,270l21,1 -1,74 -15,-1M231,243l-1,15h-15l-59,-1 1,-30v-23l12,-8 19,-5 1,-8h42M534,368l-53,3M454,283l78,-4M324,821v46h-39l-4,7 -7,-2M254,832l10,-26 57,1M485,651l-42,1M327,777l-2,-16v-44h60v37M191,582v44h-17v14M151,632l-8,2 -8,-8 -4,-20M223,25l1,54M436,159l-44,1M393,85h45M439,284l-1,-22M439,248l-1,14 -43,3 -1,-61 44,-1 1,45 30,-2v-14l62,-2M436,159l2,44M394,204l-1,-29M155,333l1,-61v-15M442,85v-60M395,265h-44v31h-15v-31h-15v-34M320,183l1,48 -15,-2 -8,4 -2,11h-14v14h-22v-14l-29,-1v-60h89v-7h29M525,699h-35v-49M261,183v-54h34v3l53,-1M413,349h-15l-2,-24 -44,1 -1,-30M324,447v22h-34l-10,-2 -1,-8h-12v-20l-3,-5v-34l44,-1v8h15M110,345l44,2M153,408l-60,-3M308,399l-1,-45h14l16,-6 7,-7v-15h8M377,446v44l-2,10h-7v13h-28M314,487l10,3 1,23h15v54h-67v-50h7v-8h7l4,-9 23,-13v-18M191,537h60v90l-60,-1M251,627h7M249,686l-63,-2M385,694v23M325,717v-5M282,258h17l-3,7h25M336,296l-55,1 3,-8h-24v-31M264,434l-5,-5 -13,4h-19l-12,-2 -2,5M165,433l21,-9M222,380l27,1v20l15,-1M355,931v-14M385,912l30,29v16M267,459l-16,1v9l-9,3h-30M156,272l-45,-1M74,225l49,2h34M174,708l13,13 18,24h17l1,16 -18,-1v15l-23,7M325,567v22M251,537h22M212,477l1,27 8,26v7M171,537h20v45l-7,5h-15v9l-35,-2 -3,12 1,-14 -2,-34 5,-22 36,1 1,-20 -10,-5 1,-15h-15v-7h-16l4,-8M377,490h36M413,549h-15l-7,-12h-10v-10h-12l-1,-14M261,129l-7,-5M281,297l-10,16 -1,14 -14,26 1,5 -22,5 -6,4M214,288l46,1M264,806l1,-45h60M132,490l-6,15 5,10 4,21M130,558l-43,-1M385,866v46h-26l-4,5 -16,-4 1,-46 45,-1h40M312,912l27,1M223,761h42M458,700v-6h-13M182,149v14l11,11 -4,9M250,726v35M385,866v-45M290,25v53M270,327h29l1,23 7,4M324,867h16M481,753l-1,-1M459,753l-30,1M15,418l78,3 -1,15h28l3,10 8,4 1,8 12,-1 -9,18 1,7 -45,-1M378,85h15l-1,22v53l1,15 -44,1 -1,-45v-45"/>
  <g class="cities">
    <circle r="7" cx="514" cy="136"/>
    <text x="514" y="136">Chicago</text>
    <circle r="7" cx="429" cy="153"/>
    <text x="429" y="153">Aurora</text>
    <circle r="7" cx="329" cy="66"/>
    <text x="329" y="66">Rockford</text>
  </g>
</svg>