<?xml version="1.0" encoding="utf-8"?>
<!DOCTYPE svg PUBLIC "-//W3C//DTD SVG 1.1//EN" "http://www.w3.org/Graphics/SVG/1.1/DTD/svg11.dtd">
<svg version="1.1" xmlns="http://www.w3.org/2000/svg" width="213" height="350" viewBox="0 0 213 350">
  <path class="state" transform="scale(0.1)" d="M308,1948l-42,-25 -32,-60 -20,-3 -13,-30 -31,-21 -56,-64 1,-16 -5,-32 -33,-38 15,-35 -33,-63 -3,-98 21,-87 47,-32 2,-61 -20,-30 26,-32 44,-18h33l28,-18 13,-82 28,-40 36,-31 7,-85 -22,-57 -17,-1 -33,-45 20,-58 12,-45 31,-14 19,9 37,-20 89,-2 28,-30 54,-3 34,-32 25,-8 2,-38 15,-55 30,-24 23,-11 18,-77 7,-43 -11,-60 -23,-33 -44,-23 -47,-42 3,-35 -24,-36 -79,-60 6,-17 316,3 231,5 205,4h103l226,-4h173l348,-8 -21,93 -53,349 -142,4 1,31 2,142 1,103 4,173 7,311 4,366 5,243 2,76 -27,9 -10,31 17,42 -24,35 -11,30 39,28 -2,43 31,22 -16,55 9,3 17,40 -19,65 -37,21 -15,45 3,37 -42,16 -2,42 -39,42 -3,31 -16,-13 -47,47 -9,-14 2,30 36,25 -27,60 -31,10 11,45 -11,12 11,38h-37l32,38 -31,7 30,11 -14,34 -29,20 -19,31 14,48 29,29 -6,33 -102,17 -31,30 -23,-15 -29,23 -19,61 45,79 -17,48 -14,3 -33,-3 -22,-23 -59,-17 -37,-30 -59,-20 -33,3 -41,32 -40,61 -5,57 -39,-57 -24,-1 23,26 -9,22 -47,-32 1,-31 -38,-57 -5,-40 -24,-18 16,-32 24,-8 5,-30 -45,-81 -2,-22 21,-13 -18,-27 2,-30 -72,-36 -5,-32 -84,-62 -24,20 -34,-31 17,-27 -27,4 -54,-40 -14,-24 -30,-13 -72,-85 -4,-65 40,-58 11,-53 34,-43 6,-39 -14,-38 41,-45 4,-33 -73,-42 -82,-28 -43,55 -24,5 -31,-37 -19,-66 11,-30 -13,-37 -6,-61 -19,-29 -77,-63"/>
  <g class="counties" transform="scale(0.1)">
    <path data-fips-int="17001" data-name="Adams County" d="M327,1473l-2,53 -4,156v52l-206,-5 -5,-32 -33,-38 15,-35 -33,-63 -3,-98Z"/>
    <path data-fips-int="17003" data-name="Alexander County" d="M1090,3194l19,33 -28,32 5,20 1,56 42,20 -5,57 -39,-57 -24,-1 23,26 -9,22 -47,-32 1,-31 -38,-57 -5,-40 -24,-18 16,-32Z"/>
    <path data-fips-int="17005" data-name="Bond County" d="M1089,2178l-2,173 -161,-2v-78h-19l-1,-75 26,-18Z"/>
    <path data-fips-int="17007" data-name="Boone County" d="M1329,99l2,204 -104,2 -1,-206Z"/>
    <path data-fips-int="17009" data-name="Brown County" d="M508,1599l-11,42 -21,25 4,21 -159,-5 4,-156 101,1 8,32 33,13 -1,30Z"/>
    <path data-fips-int="17011" data-name="Bureau County" d="M1127,644l1,165 -51,-5 -27,12 -9,39h-50v52h-78v-52l-98,-3 -1,-208h104Z"/>
    <path data-fips-int="17015" data-name="Carroll County" d="M894,277v161l-208,-2 7,-43 -11,-60 -23,-33 -44,-23 176,1Z"/>
    <path data-fips-int="17017" data-name="Cass County" d="M582,1517l24,30 49,14 92,-32v122l-1,19 -270,-4 21,-25 11,-42 38,-20 3,-23Z"/>
    <path data-fips-int="17019" data-name="Champaign County" d="M1690,1351l3,103h-6l5,210 -240,3 -1,-244 -1,-69Z"/>
    <path data-fips-int="17021" data-name="Christian County" d="M1104,1705l35,9 1,88 53,2 1,184 -54,-1h-181l-1,-107v-70h25l-1,-26h26v-47l15,13 29,-15 37,-35Z"/>
    <path data-fips-int="17023" data-name="Clark County" d="M1884,1902l2,76 -27,9 -10,31 17,42 -24,35 -60,-12 -90,3h-26l-4,-123 -1,-60 24,-1 127,-5Z"/>
    <path data-fips-int="17025" data-name="Clay County" d="M1503,2246v37l49,1 1,70 -12,2v65l17,11 -211,-1 1,-132v-53Z"/>
    <path data-fips-int="17027" data-name="Clinton County" d="M1087,2351l54,3 -2,140 -95,-8 -65,28 -61,-4 -42,34 -1,-142 52,-1 -1,-52Z"/>
    <path data-fips-int="17029" data-name="Coles County" d="M1685,1902l-24,1 1,60 -77,5 -135,2v-45l-2,-121 189,-4 -1,-16 45,-4Z"/>
    <path data-fips-int="17031" data-name="Cook County" d="M1556,302l195,-2 36,41 35,144 19,34 20,45 2,142 -119,1 -1,-51 -53,2 -2,-52 -51,2 -1,-27 50,-20 -5,-166 -153,6v-48h12l-1,-51Z"/>
    <path data-fips-int="17033" data-name="Crawford County" d="M1842,2095l-11,30 39,28 -2,43 31,22 -16,55 9,3 -176,5h-19l-5,-195 90,-3Z"/>
    <path data-fips-int="17035" data-name="Cumberland County" d="M1666,2086l-164,5h-50l-1,-26 -1,-95 135,-2 77,-5Z"/>
    <path data-fips-int="17037" data-name="DeKalb County" d="M1383,303l-5,50 1,210v53l-151,3 -1,-158v-156l104,-2Z"/>
    <path data-fips-int="17039" data-name="De Witt County" d="M1398,1426l-52,83v27h-26l1,26 -184,2 -2,-138Z"/>
    <path data-fips-int="17041" data-name="Douglas County" d="M1692,1664l1,50h-14l2,66 -45,4 1,16 -189,4 -1,-85 5,-52Z"/>
    <path data-fips-int="17043" data-name="DuPage County" d="M1636,581l-1,-27 -103,5h-1l-3,-158 153,-6 5,166Z"/>
    <path data-fips-int="17045" data-name="Edgar County" d="M1884,1902l-72,-5 -127,5 -4,-122 -2,-66h14l-1,-50 187,-5Z"/>
    <path data-fips-int="17047" data-name="Edwards County" d="M1696,2449l7,66 -16,50 10,50 -16,20 -75,2 -1,-186Z"/>
    <path data-fips-int="17049" data-name="Effingham County" d="M1451,2065l1,26h50l1,155h-155l-52,2v-183Z"/>
    <path data-fips-int="17051" data-name="Fayette County" d="M1140,2065h156v183l52,-2v53l-207,2v53l-54,-3 2,-173v-113Z"/>
    <path data-fips-int="17053" data-name="Ford County" d="M1688,1298l2,53 -240,3 -1,-131 102,-2 -8,-224 51,-3 11,304Z"/>
    <path data-fips-int="17055" data-name="Franklin County" d="M1346,2720v130v26l-210,2v-55h-12l17,-36 5,-67Z"/>
    <path data-fips-int="17057" data-name="Fulton County" d="M754,1167l-1,53h52v66l-23,45 -52,37 -15,50 -24,35 -37,30 -115,-5 1,-52 5,-211 2,-52Z"/>
    <path data-fips-int="17059" data-name="Gallatin County" d="M1637,2855l32,38 -31,7 30,11 -14,34 -29,20 -19,31 14,48 -21,-11h-94l-2,-185 114,-2Z"/>
    <path data-fips-int="17061" data-name="Greene County" d="M603,1880l67,2 1,154 -24,2v20h-52v30l-80,-2 -38,-11 -17,45 -2,-167 16,-75Z"/>
    <path data-fips-int="17063" data-name="Grundy County" d="M1543,872l-3,53 -151,5 -6,-209 155,-5Z"/>
    <path data-fips-int="17065" data-name="Hamilton County" d="M1503,2639v209l-157,2v-130l1,-81Z"/>
    <path data-fips-int="17067" data-name="Hancock County" d="M336,1205l-7,213 -2,55 -271,-10 21,-87 47,-32 2,-61 -20,-30 26,-32 44,-18h33Z"/>
    <path data-fips-int="17069" data-name="Hardin County" d="M1505,3033h94l21,11 29,29 -6,33 -102,17 -31,30 -23,-15v-105Z"/>
    <path data-fips-int="17071" data-name="Henderson County" d="M395,949l-6,259 -53,-3 -127,-2 28,-18 13,-82 28,-40 36,-31 7,-85Z"/>
    <path data-fips-int="17073" data-name="Henry County" d="M814,644l1,208 -5,53h-54l-204,-3 3,-106 3,-77 45,-35 60,-13 5,-28Z"/>
    <path data-fips-int="17075" data-name="Iroquois County" d="M1868,982l7,311 -187,5h-83l-11,-304Z"/>
    <path data-fips-int="17077" data-name="Jackson County" d="M1124,2823h12v55l-1,156h-142l-5,22 -28,-5 21,-13 -18,-27 2,-30 -72,-36 -5,-32 38,-91Z"/>
    <path data-fips-int="17079" data-name="Jasper County" d="M1697,2281l-145,3 -49,-1v-37l-1,-155 164,-5h26Z"/>
    <path data-fips-int="17081" data-name="Jefferson County" d="M1347,2509v130l-1,81h-200l-8,-55 1,-155Z"/>
    <path data-fips-int="17083" data-name="Jersey County" d="M671,2036l-1,157h-57l-2,46 -82,-28 -33,8 -20,-20 -16,-79 17,-45 38,11 80,2v-30h52v-20Z"/>
    <path data-fips-int="17085" data-name="Jo Daviess County" d="M790,90l1,188 -176,-1 -47,-42 3,-35 -24,-36 -79,-60 6,-17Z"/>
    <path data-fips-int="17087" data-name="Johnson County" d="M1346,3034v158h-92l-12,20 -55,-15 1,-161Z"/>
    <path data-fips-int="17089" data-name="Kane County" d="M1539,302l1,51h-12v48l3,158 -152,4 -1,-210 5,-50Z"/>
    <path data-fips-int="17091" data-name="Kankakee County" d="M1864,809l4,173 -274,12 -51,3 -3,-72 3,-53 104,-3 -1,-52Z"/>
    <path data-fips-int="17093" data-name="Kendall County" d="M1532,559l6,157 -155,5 -4,-105v-53l152,-4Z"/>
    <path data-fips-int="17095" data-name="Knox County" d="M756,905l-1,105 -1,157 -207,-4 4,-209 1,-52Z"/>
    <path data-fips-int="17097" data-name="Lake County" d="M1728,160l-10,60 33,80 -195,2 -1,-207h173Z"/>
    <path data-fips-int="17099" data-name="La Salle County" d="M1383,721l6,209 -156,2v106l-53,2v-106h-51l-1,-125 -1,-165 -1,-25h102l151,-3Z"/>
    <path data-fips-int="17101" data-name="Lawrence County" d="M1838,2447l-122,2v-168l176,-5 17,40 -19,65 -37,21Z"/>
    <path data-fips-int="17103" data-name="Lee County" d="M1227,461l1,158h-102l1,25h-209l1,-189h121v8Z"/>
    <path data-fips-int="17105" data-name="Livingston County" d="M1540,925l3,72 8,224 -102,2 -53,2 -5,-85 -157,3 -1,-105v-106l156,-2Z"/>
    <path data-fips-int="17107" data-name="Logan County" d="M1135,1426l2,138 1,82h-35h-79l-43,-10 -1,-27h-41v-68l-11,-19 -1,-119 155,-4 1,29Z"/>
    <path data-fips-int="17109" data-name="McDonough County" d="M389,1208l156,7 -5,211 -211,-8 7,-213Z"/>
    <path data-fips-int="17111" data-name="McHenry County" d="M1555,95l1,207h-17l-156,1h-52l-2,-204Z"/>
    <path data-fips-int="17113" data-name="McLean County" d="M1449,1223l1,131 1,69 -53,3h-263l-52,2 -1,-29 -2,-159 62,-2 40,-18v-22l28,-2 -1,-51 25,-2 157,-3 5,85Z"/>
    <path data-fips-int="17115" data-name="Macon County" d="M1321,1562v158l-5,30h-25l1,54h-99l-53,-2 -1,-88 -35,-9 -1,-59h35l-1,-82Z"/>
    <path data-fips-int="17117" data-name="Macoupin County" d="M880,1882v314l-210,-3 1,-157 -1,-154h107Z"/>
    <path data-fips-int="17119" data-name="Madison County" d="M670,2193l210,3h26l1,75h19v78l1,52 -52,1 -222,-5 -14,-38 41,-45 4,-33 -73,-42 2,-46Z"/>
    <path data-fips-int="17121" data-name="Marion County" d="M1348,2299l-1,132v78l-208,1v-16l2,-140v-53Z"/>
    <path data-fips-int="17123" data-name="Marshall County" d="M991,907h61l-11,27h88h51v106l-192,3 11,-31h-86v-105Z"/>
    <path data-fips-int="17125" data-name="Mason County" d="M927,1403l1,119 -15,-21 -36,8 -45,13 -74,-13 -11,20 -92,32 -49,-14 -24,-30 39,-16h27l6,-18 37,-30 24,-35 15,-50 52,-37 94,3 1,70Z"/>
    <path data-fips-int="17127" data-name="Massac County" d="M1453,3352l-33,-3 -22,-23 -59,-17 -37,-30 -59,-20 -1,-47 12,-20h92l107,104Z"/>
    <path data-fips-int="17129" data-name="Menard County" d="M928,1522l11,19v68l-56,2 -2,35 -31,8 -103,-3v-122l11,-20 74,13 45,-13 36,-8Z"/>
    <path data-fips-int="17131" data-name="Mercer County" d="M555,796l-3,106 -1,52 -156,-5 -74,-2 -22,-57 -17,-1 -33,-45 20,-58 151,8Z"/>
    <path data-fips-int="17133" data-name="Monroe County" d="M784,2662l-65,-2v52l-81,28 -72,-85 -4,-65 40,-58 11,-53 54,58 53,70 59,2Z"/>
    <path data-fips-int="17135" data-name="Montgomery County" d="M958,1880l1,107h181v78h-51v113h-157l-26,18h-26v-314Z"/>
    <path data-fips-int="17137" data-name="Morgan County" d="M746,1670l4,94 28,96 -1,22h-107l-67,-2 2,-70 -34,-18 1,-52h-51l1,-21 -54,-2 12,-30 -4,-21Z"/>
    <path data-fips-int="17139" data-name="Moultrie County" d="M1321,1720l126,-1 1,85 2,121h-49l-30,-43h-36v-35h-42l-1,-43 -1,-54h25Z"/>
    <path data-fips-int="17141" data-name="Ogle County" d="M1227,305v156l-187,2v-8h-121l-25,-17v-161l130,-2 99,-2v34Z"/>
    <path data-fips-int="17143" data-name="Peoria County" d="M913,1012h86l-11,31 -41,82 4,22 -49,89 2,15 -54,12 -45,23v-66h-52l1,-53 1,-157Z"/>
    <path data-fips-int="17145" data-name="Perry County" d="M927,2664l211,1 8,55 -5,67 -17,36 -198,-1Z"/>
    <path data-fips-int="17147" data-name="Piatt County" d="M1451,1423l1,244 -5,52 -126,1v-158l-1,-26h26v-27l52,-83Z"/>
    <path data-fips-int="17149" data-name="Pike County" d="M480,1687l-12,30 -22,57 30,79 -2,25 -16,75 -150,-5 -42,-25 -32,-60 -20,-3 -13,-30 -31,-21 -56,-64 1,-16 206,5v-52Z"/>
    <path data-fips-int="17151" data-name="Pope County" d="M1487,3033v105l-29,23 -19,61 45,79 -17,48 -14,3v-56l-107,-104v-158Z"/>
    <path data-fips-int="17153" data-name="Pulaski County" d="M1187,3197l55,15 1,47 -33,3 -41,32 -40,61 -42,-20 -1,-56 -5,-20 28,-32 -19,-33Z"/>
    <path data-fips-int="17155" data-name="Putnam County" d="M1128,809l1,125h-88l11,-27h-61v-52h50l9,-39 27,-12Z"/>
    <path data-fips-int="17157" data-name="Randolph County" d="M784,2662l92,2h51l-1,158 -38,91 -84,-62 -24,20 -34,-31 17,-27 -27,4 -54,-40 -14,-24 -30,-13 81,-28v-52Z"/>
    <path data-fips-int="17159" data-name="Richland County" d="M1697,2281h19v168h-20l-91,2v-17l-47,-2 -17,-11v-65l12,-2 -1,-70Z"/>
    <path data-fips-int="17161" data-name="Rock Island County" d="M668,643l-5,28 -60,13 -45,35 -3,77 -135,-2 -151,-8 12,-45 31,-14 19,9 37,-20 89,-2 28,-30 54,-3 34,-32 25,-8 2,-38 15,-55 30,-24 -2,49 36,35Z"/>
    <path data-fips-int="17163" data-name="Saint Clair County" d="M875,2402l1,142v120l-92,-2 -5,-53 -59,-2 -53,-70 -54,-58 34,-43 6,-39Z"/>
    <path data-fips-int="17165" data-name="Saline County" d="M1503,2848l2,185h-18l-141,1v-158v-26Z"/>
    <path data-fips-int="17167" data-name="Sangamon County" d="M1103,1646l1,59 -15,-5 -37,35 -29,15 -15,-13v47h-26l1,26h-25v70l-78,2h-103l1,-22 -28,-96 -4,-94 1,-19 103,3 31,-8 2,-35 56,-2h41l1,27 43,10Z"/>
    <path data-fips-int="17169" data-name="Schuyler County" d="M540,1426l-1,52 115,5 -6,18h-27l-39,16 -33,39 -3,23 -38,20 -42,3 1,-30 -33,-13 -8,-32 -101,-1 2,-53 2,-55Z"/>
    <path data-fips-int="17171" data-name="Scott County" d="M603,1880l-129,-2 2,-25 -30,-79 22,-57 54,2 -1,21h51l-1,52 34,18Z"/>
    <path data-fips-int="17173" data-name="Shelby County" d="M1292,1804l1,43h42v35h36l30,43h49v45l1,95h-155h-156v-78l54,1 -1,-184Z"/>
    <path data-fips-int="17175" data-name="Stark County" d="M815,852l98,3v52v105l-158,-2 1,-105h54Z"/>
    <path data-fips-int="17177" data-name="Stephenson County" d="M894,277l-103,1 -1,-188 231,5 3,180Z"/>
    <path data-fips-int="17179" data-name="Tazewell County" d="M1080,1240l2,159 -155,4 -50,1 -1,-70 -94,-3 23,-45 45,-23 54,-12 -2,-15 49,-89h101l1,79Z"/>
    <path data-fips-int="17181" data-name="Union County" d="M1135,3034l53,2 -1,161 -97,-3 -112,-2 24,-8 5,-30 -45,-81 -2,-22 28,5 5,-22Z"/>
    <path data-fips-int="17183" data-name="Vermilion County" d="M1875,1293l4,366 -187,5 -5,-210h6l-3,-103 -2,-53Z"/>
    <path data-fips-int="17185" data-name="Wabash County" d="M1696,2449h20l122,-2 3,37 -42,16 -2,42 -39,42 -3,31 -16,-13 -47,47 -9,-14h-2l16,-20 -10,-50 16,-50Z"/>
    <path data-fips-int="17187" data-name="Warren County" d="M551,954l-4,209 -2,52 -156,-7 6,-259Z"/>
    <path data-fips-int="17189" data-name="Washington County" d="M1139,2494v16l-1,155 -211,-1h-51v-120l42,-34 61,4 65,-28Z"/>
    <path data-fips-int="17191" data-name="Wayne County" d="M1558,2432l47,2v17l1,186 -103,2h-156v-130v-78Z"/>
    <path data-fips-int="17193" data-name="White County" d="M1681,2635h2l2,30 36,25 -27,60 -31,10 11,45 -11,12 11,38h-37l-20,-9 -114,2v-209l103,-2Z"/>
    <path data-fips-int="17195" data-name="Whiteside County" d="M894,438l25,17 -1,189h-104l-146,-1 11,-35 -36,-35 2,-49 23,-11 18,-77Z"/>
    <path data-fips-int="17197" data-name="Will County" d="M1636,581l1,27 51,-2 2,52 53,-2 1,51 119,-1 1,103 -218,8 1,52 -104,3 -5,-156 -6,-157 103,-5Z"/>
    <path data-fips-int="17199" data-name="Williamson County" d="M1346,2876v158l-158,2 -53,-2 1,-156Z"/>
    <path data-fips-int="17201" data-name="Winnebago County" d="M1226,99l1,206 -104,2v-34l-99,2 -3,-180Z"/>
    <path data-fips-int="17203" data-name="Woodford County" d="M1234,1143l-25,2 1,51 -28,2v22l-40,18 -62,2 -27,-14 -1,-79h-101l-4,-22 41,-82 192,-3 53,-2Z"/>
    <path data-fips-int="17013" data-name="Calhoun County" d="M458,1953l2,167 16,79 20,20 33,-8 -43,55 -24,5 -31,-37 -19,-66 11,-30 -13,-37 -6,-61 -19,-29 -77,-63Z"/>
  </g>
  <path class="mesh" transform="scale(0.1)" d="M1863,706l-119,1 -1,-51 -53,2 -2,-52 -51,2 -1,-27 50,-20 -5,-166 -153,6v-48h12l-1,-51h17l195,-2 -33,-80 10,-60v-65M56,1463l271,10 -2,53 -4,156v52l-206,-5M978,3192l112,2 19,33 -28,32 5,20 1,56 42,20M1329,99l2,204 -104,2 -1,-206M325,1526l101,1 8,32 33,13 -1,30 42,-3 -11,42 -21,25 4,21 -159,-5M615,277l176,1 103,-1v161l-208,-2M508,1599l38,-20 3,-23 33,-39 24,30 49,14 92,-32v122l-1,19 -270,-4M1450,1354l-1,-131 102,-2 -8,-224 51,-3 11,304h83l2,53 3,103h-6l5,210 -240,3 -1,-244 -1,-69 240,-3M1842,2095l-60,-12 -90,3h-26l-4,-123 -1,-60 24,-1 127,-5 72,5M1502,2091l1,155v37l49,1 1,70 -12,2v65l17,11 -211,-1 1,-132v-53h155M1087,2351l54,3 -2,140 -95,-8 -65,28 -61,-4 -42,34 -1,-142 52,-1 -1,-52M1662,1963l-77,5 -135,2v-45l-2,-121 189,-4 -1,-16 45,-4 4,122M1892,2276l-176,5h-19l-5,-195M1666,2086l-164,5h-50l-1,-26 -1,-95M894,277l130,-2 99,-2v34l104,-2M1451,1423l-53,3 -52,83v27h-26l1,26 -184,2 -2,-138h263M1692,1664l1,50h-14l2,66M1448,1804l-1,-85 5,-52M1636,581l-1,-27 -103,5h-1l-3,-158M1692,1664l187,-5M1716,2449h-20l7,66 -16,50 10,50 -16,20 -75,2 -1,-186 91,-2M1348,2246l-52,2v-183h155M1089,2178l-2,173 -161,-2v-78h-19l-1,-75 26,-18h157v-113h51h156M1348,2299l-207,2v53M756,905l-1,105 -1,157 -1,53h52v66l-23,45 -52,37 -15,50 -24,35 -37,30 -115,-5 1,-52 5,-211 2,-52 207,4M1620,3044l-21,-11h-94l-2,-185 114,-2 20,9M1346,2720v130v26l-210,2v-55h-12l17,-36 5,-67h200l1,-81h156v209l-157,2M209,1203l127,2 -7,213 -2,55M1487,3138v-105h18M321,947l74,2 -6,259 -53,-3M815,852l-5,53h-54l-204,-3 3,-106 3,-77 45,-35 60,-13 5,-28 146,1M1875,1293l-187,5M1594,994l274,-12M1136,2878l-1,156h-142l-5,22 -28,-5M888,2913l38,-91 198,1M1697,2281l-145,3M1146,2720l-8,-55 1,-155 208,-1v130M671,2036l-1,157h-57l-2,46M529,2211l-33,8 -20,-20 -16,-79M790,90l1,188M1531,559l-152,4M1383,303l156,-1M1543,997l-3,-72M1543,872l-3,53 -151,5 -6,-209 155,-5 5,156 104,-3 -1,-52 218,-8M1532,559l6,157M1383,721l-4,-105M547,1163l4,-209 1,-52M1556,302l-1,-207M1389,930l-156,2v106l-53,2v-106h-51l-1,-125M1127,644l1,165 -51,-5 -27,12 -9,39h-50v52h-78v-52l-98,-3 -1,-208h104h209l-1,-25h102M1838,2447l-122,2v-168M918,644l1,-189h121v8l187,-2M1449,1223l-53,2 -5,-85 -157,3 -1,-105M1137,1564l1,82h-35h-79l-43,-10 -1,-27h-41v-68l-11,-19 -1,-119 155,-4 1,29 52,-2M389,1208l156,7M540,1426l-211,-8M1082,1399l-2,-159 62,-2 40,-18v-22l28,-2 -1,-51 25,-2M1321,1562v158l-5,30h-25l1,54h-99M1104,1705l35,9 1,88 53,2 1,184 -54,-1h-181l-1,-107v-70h25l-1,-26h26v-47l15,13 29,-15 37,-35 15,5 -1,-59M670,1882h107h103v314l-210,-3M880,2196h26M875,2402l-222,-5M1347,2431v78M1139,2510v-16M991,907h61l-11,27h88M1180,1040l-192,3 11,-31h-86v-105M1861,564l-20,-45 -19,-34 -35,-144 -36,-41M928,1522l-15,-21 -36,8 -45,13 -74,-13 -11,20M582,1517l39,-16h27l6,-18M782,1331l94,3 1,70 50,-1M1243,3259l-1,-47M1346,3192l107,104v56M939,1609l-56,2 -2,35 -31,8 -103,-3M551,954l-156,-5M269,786l151,8 135,2M613,2479l54,58 53,70 59,2 5,53 -65,-2v52l-81,28M1140,1987v78M880,1882l78,-2M746,1670l4,94 28,96 -1,22M603,1880l67,2 1,154 -24,2v20h-52v30l-80,-2 -38,-11 -17,45 -2,-167 16,-75 129,2 2,-70 -34,-18 1,-52h-51l1,-21 -54,-2 12,-30M1321,1720l126,-1M1450,1925h-49l-30,-43h-36v-35h-42l-1,-43M919,455l-25,-17M988,1043l-41,82 4,22 -49,89 2,15 -54,12 -45,23M755,1010l158,2M926,2822l1,-158 211,1M468,1717l-22,57 30,79 -2,25M458,1953l-150,-5M1346,3034v158h-92l-12,20 -55,-15 1,-161 158,-2 141,-1M1090,3194l97,3M784,2662l92,2h51M1605,2451v-17l-47,-2M645,524l-2,49 36,35 -11,35M876,2544v120M1346,3034v-158M1021,95l3,180M951,1147h101l1,79 27,14M1135,3034l53,2M1683,2635h-2M1606,2637l-103,2M1331,303h52l-5,50 1,210v53l-151,3 -1,-158v-156"/>
  <g class="cities">
    <circle r="3" cx="180.4" cy="48.0"/>
    <text x="180.4" y="48.0">Chicago</text>
    <circle r="3" cx="115.9" cy="23.4"/>
    <text x="115.9" y="23.4">Rockford</text>
    <circle r="3" cx="90.9" cy="171.4"/>
    <text x="90.9" y="171.4">Springfield</text>
  </g>
</svg>