<?xml version="1.0" encoding="utf-8"?>
<!DOCTYPE svg PUBLIC "-//W3C//DTD SVG 1.1//EN" "http://www.w3.org/Graphics/SVG/1.1/DTD/svg11.dtd">
<svg version="1.1" xmlns="http://www.w3.org/2000/svg" width="228" height="350" viewBox="0 0 228 350">
  <defs>
    <pattern id="pattern-no-results" width="50" height="50" patternUnits="userSpaceOnUse">
      <rect width="50" height="50" fill="#ddd"/>
      <path d="M-5,5L5,-5M-5,55L55,-5M45,55L55,45" stroke-width="10" stroke="#666666"/>
    </pattern>
  </defs>
  <g class="counties" transform="scale(0.1)">
    <path data-fips-int="18000" data-name="null" d="M841,137l-69,34 -47,19 -8,-2 -16,4 -3,6 -38,9 -20,2 -37,0 -3,-2 -23,-3 -36,-13 -4,1 -9,-10 16,-14 2,-9 -10,-8 -11,9 1,13 -5,-17 -13,9 -23,-15 -10,-16 -2,2 1,-44 60,0 375,3 -40,23 -13,5 -5,9Z"/>
    <path data-fips-int="18001" data-name="Adams County" d="M2179,785l2,93 0,24 3,175 -49,1 -119,5 -2,-61 0,-39 -2,-46 -4,-146 39,0 31,-2 56,-2Z"/>
    <path data-fips-int="18003" data-name="Allen County" d="M2179,785l-45,2 -56,2 -31,2 -39,0 -65,3 -82,0 -18,1 -1,-74 -1,-59 -2,-86 18,0 -1,-60 1,-11 72,-1 77,-2 81,-4 58,-2 28,-2 2,118Z"/>
    <path data-fips-int="18005" data-name="Bartholomew County" d="M1635,2103l-1,58 0,78 1,47 -73,2 1,50 -12,-2 -19,9 -10,9 0,8 -141,4 -1,-12 -1,-166 -3,-78 86,-4 47,-2 58,-1Z"/>
    <path data-fips-int="18007" data-name="Benton County" d="M625,947l107,1 0,4 0,101 1,40 1,72 -94,0 -39,-2 -84,0 -58,-2 2,-140 1,-76 139,1Z"/>
    <path data-fips-int="18009" data-name="Blackford County" d="M1932,1085l1,73 -4,1 1,81 -8,2 -57,2 -85,0 -3,-93 0,-64 53,-1Z"/>
    <path data-fips-int="18011" data-name="Boone County" d="M1273,1413l1,49 1,142 1,21 -55,2 -80,0 -6,0 -150,0 0,-200 0,-13 142,2 68,-1 18,-1Z"/>
    <path data-fips-int="18013" data-name="Brown County" d="M1380,2354l-32,2 -70,0 -51,0 -34,0 0,-79 -2,-89 -5,-1 0,-73 83,-2 42,0 65,-2 3,78Z"/>
    <path data-fips-int="18015" data-name="Carroll County" d="M1058,950l36,0 0,36 96,0 0,109 -1,49 0,59 -16,1 -131,0 -56,-1 0,-108 -48,-1 0,-72 -2,-12 11,-1 10,-13 -12,2 8,-8 -9,-10 9,-14 -6,-9 7,-9Z"/>
    <path data-fips-int="18017" data-name="Cass County" d="M1130,805l5,0 163,0 21,0 0,21 0,112 2,6 0,66 1,84 -132,1 0,-109 -96,0 0,-36 -36,0 1,-54 0,-92Z"/>
    <path data-fips-int="18019" data-name="Clark County" d="M1807,2738l8,18 0,15 -6,15 -24,13 -7,7 -5,15 -12,16 -20,10 -30,3 -20,13 -8,12 -12,35 1,16 -9,27 -14,23 -6,6 -38,23 -13,-3 -12,-14 -8,0 -2,-22 7,-4 -9,-11 18,-8 5,-6 -30,-45 -104,1 0,-6 -18,0 -1,-6 1,-58 25,-1 -1,-11 47,-2 0,-12 12,0 0,-25 12,0 0,-11 17,0 0,-12 17,-13 0,-11 23,-1 67,0 56,-2 47,0 1,12 12,-1 0,5Z"/>
    <path data-fips-int="18021" data-name="Clay County" d="M780,1892l-2,109 48,0 -2,37 0,73 -72,-1 -1,48 0,97 -61,-1 -59,-3 0,-72 3,-218 25,0 1,-72 61,2Z"/>
    <path data-fips-int="18023" data-name="Clinton County" d="M1189,1203l42,0 0,37 18,0 0,12 24,0 0,131 0,30 -60,1 -18,1 -68,1 -142,-2 0,-31 1,-180 56,1 131,0Z"/>
    <path data-fips-int="18025" data-name="Crawford County" d="M1269,2878l-6,11 7,3 1,8 -7,1 11,6 -10,1 2,16 6,2 -3,8 -12,-5 -3,9 1,25 -6,-4 -4,7 13,8 11,12 -3,8 -11,2 -2,45 -12,19 -7,4 -7,11 0,7 -8,-3 -17,-14 -12,4 -3,8 2,14 9,5 14,1 12,6 -3,15 -7,5 -25,-2 -7,5 -6,13 -5,4 -19,-18 -12,-1 -7,5 1,-71 -73,-1 1,-49 -46,3 -26,0 -1,-52 0,-58 69,-1 99,0 76,2 0,-24Z"/>
    <path data-fips-int="18027" data-name="Daviess County" d="M832,2808l-8,0 -7,13 -6,-11 -13,0 -12,-9 -16,5 -18,-3 -10,8 -7,-12 -9,2 3,-6 -16,-14 -6,0 -5,10 -8,-6 0,12 -10,2 -1,-11 -12,-3 -4,-12 -19,-5 -9,11 -14,-6 4,-3 -8,-9 8,-1 -7,-7 6,-6 -7,-7 1,-12 -4,-10 10,-2 -10,-18 9,4 4,-6 -5,-8 2,-9 -8,3 -5,-3 8,-14 -8,7 -10,-12 9,-5 -12,-4 8,-7 -2,-7 9,-8 -4,-9 8,2 1,-13 5,2 -7,-12 3,-8 -7,-4 2,-8 8,0 2,-7 -2,-21 11,0 2,8 6,-12 7,-4 9,2 10,-14 -6,-7 21,3 7,-16 15,-9 -5,-10 6,-2 -4,-8 16,-7 32,2 94,-1 -1,72 -11,0 -2,131 0,70Z"/>
    <path data-fips-int="18029" data-name="Dearborn County" d="M2034,2134l109,0 50,-1 0,50 2,116 -8,4 -17,20 -19,9 -5,12 13,18 -14,15 -8,-4 -27,20 -10,2 -18,-3 -2,15 -13,-3 -2,6 -9,0 -13,15 -2,8 -13,-1 -10,12 -10,0 -5,-7 0,-10 -8,7 20,-153 10,-79Z"/>
    <path data-fips-int="18031" data-name="Decatur County" d="M1883,2015l1,50 1,103 -11,9 -81,53 -79,53 -3,1 -76,2 -1,-47 0,-78 1,-58 34,-1 0,-85 3,0 85,0 46,-2Z"/>
    <path data-fips-int="18033" data-name="DeKalb County" d="M2173,494l-28,2 -58,2 -81,4 -77,2 -1,-37 0,-71 -2,-65 -1,-45 28,-1 95,-2 120,-4 2,49Z"/>
    <path data-fips-int="18035" data-name="Delaware County" d="M1780,1244l85,0 57,-2 2,60 5,192 -99,2 -95,0 -36,0 -1,-92 -2,-94 -1,-66Z"/>
    <path data-fips-int="18037" data-name="Dubois County" d="M990,2791l0,110 0,58 1,52 0,13 -74,-2 1,37 -65,0 -17,1 -66,-1 -37,0 0,-24 2,-79 0,-106 0,-51 7,12 10,-8 18,3 16,-5 12,9 13,0 6,11 7,-13 8,0 8,8 9,-4 13,5 5,-9 13,-4 15,-13Z"/>
    <path data-fips-int="18039" data-name="Elkhart County" d="M1633,94l2,74 1,53 2,70 1,72 -84,3 -170,0 0,-36 -1,-79 0,-82 -1,-74 220,0Z"/>
    <path data-fips-int="18041" data-name="Fayette County" d="M2048,1794l1,56 0,65 1,36 -61,0 -82,3 -25,0 -3,-82 -1,-88 -1,-48 51,-1 24,-1 0,61 6,-1Z"/>
    <path data-fips-int="18043" data-name="Floyd County" d="M1438,2881l1,6 18,0 0,6 104,-1 30,45 -5,6 -18,8 9,11 -7,4 2,22 -24,10 -4,8 -3,23 -8,15 -18,15 -14,22 0,-7 -37,-2 1,-17 0,-43 -12,0 0,-12 -12,0 -2,-22 -13,0 -1,-24 -11,0 -1,-73Z"/>
    <path data-fips-int="18045" data-name="Fountain County" d="M734,1256l-2,127 0,71 0,138 0,9 -44,-1 -105,0 -61,0 -13,-7 6,-7 3,-14 -4,-7 -1,-28 7,-11 -5,-6 10,-10 6,-38 1,-18 1,-12 -18,-10 -3,-13 15,-21 14,-7 22,-6 17,-14 10,-16 13,-7 14,-24 17,-14 2,-7 8,-1 17,-10 15,-5 7,-5 25,-4Z"/>
    <path data-fips-int="18047" data-name="Franklin County" d="M2050,1951l8,2 55,-2 79,1 0,8 1,173 -50,1 -109,0 0,-2 -41,0 -58,2 -50,34 -1,-103 -1,-50 -1,-61 25,0 82,-3Z"/>
    <path data-fips-int="18049" data-name="Fulton County" d="M1375,585l2,73 35,-1 0,37 47,-1 -1,37 -46,0 -66,2 -27,0 0,73 -21,0 -163,0 -5,0 1,-218 84,0 2,-1 135,0Z"/>
    <path data-fips-int="18051" data-name="Gibson County" d="M574,3022l-1,37 -97,0 -1,30 -84,-4 -61,-1 0,-27 -73,-2 0,-22 -63,-1 -57,-2 3,-9 -5,-14 4,1 10,17 5,-3 3,-11 8,-6 -7,-9 9,-8 1,-10 10,-5 10,5 -8,15 8,5 13,-13 5,-18 11,-3 0,26 11,3 6,-8 4,-15 -1,-17 6,-17 14,-16 16,-6 23,-31 0,-4 28,-5 14,-9 9,1 -3,-14 6,-7 17,2 -1,7 20,-1 6,-4 12,-26 -5,-11 5,-4 5,9 21,-2 -5,-16 6,-6 7,6 -2,11 8,-4 12,7 5,-6 14,-10 6,-15 -1,57 12,0 0,24 24,0 0,51 25,-2 10,-5 9,5 16,-2Z"/>
    <path data-fips-int="18053" data-name="Grant County" d="M1774,1015l3,72 0,64 3,93 -85,0 -43,0 -28,2 -109,0 -1,-23 0,-36 -2,-96 -1,-72 65,-1 78,-1Z"/>
    <path data-fips-int="18055" data-name="Greene County" d="M751,2255l111,1 33,1 96,2 0,66 0,78 -1,73 -143,0 -94,1 -32,-2 -20,0 0,-3 -73,0 1,-48 0,-65 2,-108 59,3Z"/>
    <path data-fips-int="18057" data-name="Hamilton County" d="M1515,1379l0,125 1,22 1,83 0,12 -48,2 -4,0 -137,0 -52,2 -1,-21 -1,-142 -1,-49 0,-30 83,-2Z"/>
    <path data-fips-int="18059" data-name="Hancock County" d="M1699,1605l1,62 -13,0 1,72 -24,0 1,73 -99,0 -33,2 -46,0 -26,1 -2,-144 10,0 0,-48 48,-2 0,-12 119,-3Z"/>
    <path data-fips-int="18061" data-name="Harrison County" d="M1413,2881l1,73 11,0 1,24 13,0 2,22 12,0 0,12 12,0 0,43 -1,17 37,2 0,7 -5,14 0,18 3,29 -1,15 -7,18 -4,33 -11,13 -8,4 -17,1 -30,8 -7,6 1,16 -3,8 -7,0 -8,-9 -12,-26 -19,-11 -19,-2 -23,6 -27,-12 -36,-27 -7,-19 0,-16 5,-29 -11,-21 -20,-12 -8,-7 8,3 0,-7 7,-11 7,-4 12,-19 2,-45 11,-2 3,-8 -11,-12 -13,-8 4,-7 6,4 -1,-25 3,-9 12,5 3,-8 -6,-2 -2,-16 10,-1 -11,-6 7,-1 -1,-8 -7,-3 6,-11 113,3Z"/>
    <path data-fips-int="18063" data-name="Hendricks County" d="M1221,1627l0,43 -2,5 2,102 0,93 -23,1 -67,1 0,24 -97,0 -25,-1 9,-13 0,-10 -29,-1 1,-100 0,-95 -5,-1 0,-48 150,0 6,0Z"/>
    <path data-fips-int="18065" data-name="Henry County" d="M1929,1494l2,60 7,0 2,52 0,57 -12,0 0,72 -51,1 -90,1 -33,1 -66,1 -1,-72 13,0 -1,-62 0,-109 36,0 95,0Z"/>
    <path data-fips-int="18067" data-name="Howard County" d="M1514,1223l-79,1 -125,3 -37,0 0,25 -24,0 0,-12 -18,0 0,-37 -42,0 0,-59 1,-49 132,-1 91,-1 99,-2 2,96Z"/>
    <path data-fips-int="18069" data-name="Huntington County" d="M1842,721l1,74 4,219 -73,1 -120,2 -3,-152 0,-65 -3,-74 109,-3 15,-2Z"/>
    <path data-fips-int="18071" data-name="Jackson County" d="M1563,2338l0,46 2,58 2,114 -8,11 2,12 -9,2 -9,14 -6,17 -11,8 -16,4 -4,-7 -9,-16 -6,6 -11,-3 1,-5 -25,-4 -2,6 -11,-4 1,-8 -20,10 -5,-9 -2,9 -9,-4 -16,-14 -7,4 -12,-9 -6,16 -9,-1 -12,4 -18,-11 -6,2 -7,-8 -10,7 -15,-3 -12,10 -15,-3 -8,5 -1,-99 -3,-91 -24,0 0,-48 51,0 70,0 32,-2 1,12 141,-4 0,-8 10,-9 19,-9Z"/>
    <path data-fips-int="18073" data-name="Jasper County" d="M841,531l-1,54 0,97 -1,53 0,67 -36,0 0,62 -71,-1 0,85 -107,-1 1,-21 0,-125 -5,0 1,-94 1,-110 1,-52 31,-14 5,-5 16,-19 39,-18 6,0 39,14 30,25 27,17 18,-7Z"/>
    <path data-fips-int="18075" data-name="Jay County" d="M2184,1077l1,56 0,67 2,96 -76,1 -31,1 -156,4 -2,-60 8,-2 -1,-81 4,-1 -1,-73 30,0 54,-2 119,-5Z"/>
    <path data-fips-int="18077" data-name="Jefferson County" d="M1950,2463l1,32 0,60 2,93 -16,-11 -14,-23 -19,-7 -19,0 -30,10 -15,0 -26,-5 -13,7 -11,16 -1,24 10,18 0,43 8,18 -33,0 0,-5 -12,1 -1,-12 -47,0 -1,-60 -24,0 -1,-25 -24,0 0,-17 -12,0 0,-6 -12,0 -1,-65 0,-8 47,0 0,-25 24,0 0,-24 23,-1 -1,-24 61,-1Z"/>
    <path data-fips-int="18079" data-name="Jennings County" d="M1793,2466l-61,1 1,24 -23,1 0,24 -24,0 0,25 -47,0 0,8 -16,-3 -5,-8 -10,1 -5,6 -10,0 -10,8 -16,3 -2,-114 -2,-58 0,-46 -1,-50 73,-2 76,-2 3,-1 79,-53 0,85 -1,5 0,122Z"/>
    <path data-fips-int="18081" data-name="Johnson County" d="M1461,1864l0,91 1,18 -1,113 1,20 -86,4 -65,2 -42,0 0,-143 1,-101 85,-1 43,-2Z"/>
    <path data-fips-int="18083" data-name="Knox County" d="M721,2475l-16,7 4,8 -6,2 5,10 -15,9 -7,16 -21,-3 6,7 -10,14 -9,-2 -7,4 -6,12 -2,-8 -11,0 2,21 -2,7 -8,0 -2,8 7,4 -3,8 7,12 -5,-2 -1,13 -8,-2 4,9 -9,8 2,7 -8,7 12,4 -9,5 10,12 8,-7 -8,14 5,3 8,-3 -2,9 5,8 -4,6 -9,-4 10,18 -10,2 4,10 -1,12 7,7 -6,6 7,7 -8,1 8,9 -4,3 -8,8 -1,6 -21,14 -10,1 -2,-7 -18,-9 -13,-12 -10,1 5,14 -5,12 -7,-4 0,-16 -17,-6 -6,14 -9,-14 -2,11 -20,-4 -6,15 -14,10 -5,6 -12,-7 -8,4 2,-11 -7,-6 -6,6 5,16 -21,2 -5,-9 -5,4 5,11 -12,26 -6,4 -20,1 1,-7 -17,-2 -6,7 3,14 -9,-1 -14,9 -28,5 3,-19 6,-5 -2,-8 -12,-2 -2,-7 12,-14 16,1 15,-8 11,-14 8,4 10,-5 -15,-30 11,-9 0,-9 9,-7 4,-16 5,5 10,-2 -9,-7 -1,-9 7,-12 -2,-15 7,-3 7,-16 9,-6 27,-6 11,-8 6,-13 0,-9 14,-23 -4,-6 5,-12 -11,-2 11,-15 -20,-28 4,-9 -4,-19 -14,-6 5,-6 -4,-7 8,-2 -6,-15 15,-6 36,0 80,2 66,0 0,-4 73,0 0,3Z"/>
    <path data-fips-int="18085" data-name="Kosciusko County" d="M1639,363l1,86 1,33 0,97 -21,0 1,57 2,53 -116,4 -48,0 -47,1 0,-37 -35,1 -2,-73 15,0 -4,-145 -1,-74 170,0Z"/>
    <path data-fips-int="18087" data-name="LaGrange County" d="M1925,286l-84,1 -32,1 -70,1 -101,2 -2,-70 -1,-53 -2,-74 228,-3 60,0 2,59Z"/>
    <path data-fips-int="18089" data-name="Lake County" d="M660,207l1,83 0,64 -1,84 0,88 -5,5 -31,14 -6,3 -29,27 -10,0 -21,8 -8,8 -14,0 -20,-10 -7,3 -43,3 2,-151 1,-24 1,-78 1,-37 1,-136 1,-25 2,-2 10,16 23,15 13,-9 5,17 -1,-13 11,-9 10,8 -2,9 -16,14 9,10 4,-1 36,13 23,3 3,2 37,0Z"/>
    <path data-fips-int="18091" data-name="LaPorte County" d="M1096,97l-2,90 24,2 1,65 -7,8 -2,34 -15,1 0,72 -74,0 -18,15 -18,10 -5,20 -10,15 -7,19 -3,14 -14,11 -13,18 -20,10 -16,2 -5,4 -16,2 -29,16 -6,6 0,-97 1,-79 0,-73 -1,-15 0,-130 10,-5 5,-9 13,-5 40,-23 43,1 88,0Z"/>
    <path data-fips-int="18093" data-name="Lawrence County" d="M1227,2404l24,0 3,91 1,99 -8,9 -3,15 -11,2 0,36 -39,1 -129,0 -75,0 0,-145 0,-36 1,-73 73,1 82,0 5,0Z"/>
    <path data-fips-int="18095" data-name="Madison County" d="M1695,1244l1,66 2,94 1,92 0,109 -63,1 -119,3 -1,-83 -1,-22 0,-125 1,-62 -1,-71 109,0 28,-2Z"/>
    <path data-fips-int="18097" data-name="Marion County" d="M1469,1623l0,48 -10,0 2,144 0,49 -63,1 -43,2 -85,1 -49,2 0,-93 -2,-102 2,-5 0,-43 55,-2 52,-2 137,0Z"/>
    <path data-fips-int="18099" data-name="Marshall County" d="M1385,330l0,36 1,74 4,145 -15,0 -23,1 -135,0 -2,1 -84,0 0,-218 0,-37 41,0 72,-2Z"/>
    <path data-fips-int="18101" data-name="Martin County" d="M990,2476l0,36 0,145 0,134 -95,0 -15,13 -13,4 -5,9 -13,-5 -9,4 -8,-8 1,-59 0,-70 2,-131 11,0 1,-72Z"/>
    <path data-fips-int="18103" data-name="Miami County" d="M1458,730l2,57 2,105 1,83 1,45 47,-1 1,72 -99,2 -91,1 -1,-84 0,-66 -2,-6 0,-112 0,-21 0,-73 27,0 66,-2Z"/>
    <path data-fips-int="18105" data-name="Monroe County" d="M1186,2114l0,73 5,1 2,89 0,79 34,0 0,48 -76,0 -5,0 -82,0 -73,-1 0,-78 0,-66 -2,-143 14,6 6,-3 -2,-9 4,-10 14,7 0,6 52,1 88,0Z"/>
    <path data-fips-int="18107" data-name="Montgomery County" d="M985,1383l0,31 0,13 0,200 0,48 -82,0 -49,-1 -70,-1 -53,0 1,-72 0,-9 0,-138 0,-71 54,0 127,0Z"/>
    <path data-fips-int="18109" data-name="Morgan County" d="M1270,1868l-1,101 0,143 -83,2 -21,0 -88,0 -52,-1 0,-6 0,-61 -1,-41 -35,0 0,-44 15,-13 8,-11 -5,-22 2,-20 25,1 97,0 0,-24 67,-1 23,-1Z"/>
    <path data-fips-int="18111" data-name="Newton County" d="M625,947l-24,-1 -139,-1 1,-78 0,-53 2,-82 0,-42 1,-103 43,-3 7,-3 20,10 14,0 8,-8 21,-8 10,0 29,-27 6,-3 -1,52 -1,110 -1,94 5,0 0,125Z"/>
    <path data-fips-int="18113" data-name="Noble County" d="M1925,286l1,45 2,65 0,71 1,37 -72,1 -134,0 -10,0 1,-24 -73,1 -1,-33 -1,-86 -1,-72 101,-2 70,-1 32,-1Z"/>
    <path data-fips-int="18115" data-name="Ohio County" d="M2165,2470l-49,2 -126,0 3,-22 2,-16 8,-7 0,10 5,7 10,0 10,-12 13,1 2,-8 13,-15 9,0 2,-6 13,3 2,-15 18,3 10,-2 27,-20 8,4 14,-15 14,16 13,20 5,16 -2,7 -21,22 -7,11Z"/>
    <path data-fips-int="18117" data-name="Orange County" d="M1233,2656l1,8 0,214 0,24 -76,-2 -99,0 -69,1 0,-110 0,-134 75,0 129,0Z"/>
    <path data-fips-int="18119" data-name="Owen County" d="M989,2005l35,0 1,41 0,61 -14,-7 -4,10 2,9 -6,3 -14,-6 2,143 -96,-2 -33,-1 -111,-1 0,-97 1,-48 72,1 0,-73 2,-37 37,2 69,0 9,2Z"/>
    <path data-fips-int="18121" data-name="Parke County" d="M732,1601l-1,72 53,0 -3,126 -1,93 -59,-1 -61,-2 -70,-2 -47,0 1,-8 -7,-15 -2,-18 4,-6 -1,-10 6,-14 1,-14 -2,-8 4,-18 -1,-20 4,-19 -7,-17 2,-24 7,-1 11,-21 -15,-9 6,-8 -8,-18 -15,-5 -5,-6 3,-9 -7,3 -9,-8 9,-14 61,0 105,0Z"/>
    <path data-fips-int="18123" data-name="Perry County" d="M1134,3129l-3,12 4,9 17,8 2,7 -4,14 -18,12 -32,2 -8,13 0,52 9,18 2,14 -13,8 -10,2 -15,-5 -14,0 -9,15 2,28 -5,11 -22,12 -9,1 -6,-8 0,-9 11,-27 -2,-13 -22,-4 -24,19 -9,-2 -7,-8 -23,-39 -11,-32 -13,-8 11,-14 4,9 13,5 -3,-20 4,-5 -11,-10 3,-2 2,-9 7,-4 -7,-16 8,-12 -4,-11 -4,3 -10,-13 -8,-1 8,-6 -6,-18 6,-8 -5,-12 2,-8 6,0 0,-20 -1,-37 74,2 0,-13 26,0 46,-3 -1,49 73,1Z"/>
    <path data-fips-int="18125" data-name="Pike County" d="M735,2799l0,51 0,106 -2,79 -110,1 -37,-2 0,-12 -12,0 2,-112 -16,2 -9,-5 -10,5 -25,2 0,-51 -24,0 0,-24 -12,0 1,-57 20,4 2,-11 9,14 6,-14 17,6 0,16 7,4 5,-12 -5,-14 10,-1 13,12 18,9 2,7 10,-1 21,-14 1,-6 8,-8 14,6 9,-11 19,5 4,12 12,3 1,11 10,-2 0,-12 8,6 5,-10 6,0 16,14 -3,6Z"/>
    <path data-fips-int="18127" data-name="Porter County" d="M841,531l-6,7 -18,7 -27,-17 -30,-25 -39,-14 -6,0 -39,18 -16,19 0,-88 1,-84 0,-64 -1,-83 38,-9 3,-6 16,-4 8,2 47,-19 69,-34 0,130 1,15 0,73 -1,79Z"/>
    <path data-fips-int="18129" data-name="Posey County" d="M330,3084l-1,37 -5,0 -3,102 -3,87 -7,3 -19,-1 -15,3 -15,11 -16,2 -18,-4 -22,-36 -15,-6 -6,2 -23,29 -2,12 3,9 17,20 4,19 -2,10 -19,8 -7,18 -9,2 -9,-11 -26,-14 -10,1 -5,-8 -21,8 -16,-14 0,-6 9,-6 14,8 19,-4 0,-11 -18,-6 -7,-7 -7,-20 -11,-12 -2,-9 8,-1 20,13 27,-1 -4,-19 -21,-1 -11,-10 9,-5 13,8 4,-5 -4,-22 11,-2 6,-15 -9,-27 5,-11 7,-5 -6,-5 -11,3 -5,-6 8,-12 19,2 23,-13 7,-16 -2,-11 -28,12 -7,-1 0,-15 9,-4 16,0 6,-20 13,6 14,-14 10,-20 -9,-4 0,8 -6,5 -4,-16 -19,-14 -11,-18 2,-14 57,2 63,1 0,22 73,2Z"/>
    <path data-fips-int="18131" data-name="Pulaski County" d="M1131,587l-1,218 -71,-1 -48,-1 -70,-1 -102,0 0,-67 1,-53 0,-97 30,1 158,0 1,1Z"/>
    <path data-fips-int="18133" data-name="Putnam County" d="M985,1675l5,1 0,95 -1,100 29,1 0,10 -9,13 -2,20 5,22 -8,11 -15,13 0,44 -48,0 -9,-2 -69,0 -37,-2 -48,0 2,-109 1,-93 3,-126 70,1 49,1Z"/>
    <path data-fips-int="18135" data-name="Randolph County" d="M2187,1296l0,254 -52,0 -21,1 -91,1 -24,2 -61,0 -7,0 -2,-60 -5,-192 156,-4 31,-1Z"/>
    <path data-fips-int="18137" data-name="Ripley County" d="M2034,2134l-9,68 -10,79 -20,153 -2,16 -43,1 0,12 -157,3 -1,-24 0,-122 1,-5 0,-85 81,-53 11,-9 50,-34 58,-2 41,0Z"/>
    <path data-fips-int="18139" data-name="Rush County" d="M1882,1954l1,61 -80,0 -46,2 -85,0 -3,0 -1,-50 -2,-93 -1,-62 -1,-73 24,0 66,-1 33,-1 90,-1 1,48 1,88Z"/>
    <path data-fips-int="18141" data-name="Saint Joseph County" d="M1385,330l-141,0 -72,2 -41,0 0,37 -36,0 0,-72 15,-1 2,-34 7,-8 -1,-65 -24,-2 2,-90 185,-2 102,0 1,74 0,82Z"/>
    <path data-fips-int="18143" data-name="Scott County" d="M1639,2549l1,65 12,0 0,6 12,0 0,17 24,0 1,25 24,0 1,60 -56,2 -67,0 -23,1 0,11 -17,13 0,12 -17,0 -1,-12 -24,0 -1,-55 -1,-6 -1,-71 4,7 16,-4 11,-8 6,-17 9,-14 9,-2 -2,-12 8,-11 16,-3 10,-8 10,0 5,-6 10,-1 5,8Z"/>
    <path data-fips-int="18145" data-name="Shelby County" d="M1665,1812l1,62 2,93 1,50 0,85 -34,1 -68,0 -58,1 -47,2 -1,-20 1,-113 -1,-18 0,-91 0,-49 26,-1 46,0 33,-2Z"/>
    <path data-fips-int="18147" data-name="Spencer County" d="M918,3059l0,20 -6,0 -2,8 5,12 -6,8 6,18 -8,6 8,1 10,13 4,-3 4,11 -8,12 7,16 -7,4 -2,9 -3,2 11,10 -4,5 3,20 -13,-5 -4,-9 -11,14 -6,-1 -23,11 -18,18 -11,15 -11,8 -33,3 -33,15 -13,11 -5,8 2,22 -5,10 -12,41 -20,16 -12,2 -8,-3 -8,-26 -9,-15 -7,-7 -9,1 -26,-6 -23,-15 -9,-10 1,-39 16,-21 7,2 2,-15 36,-31 4,-12 11,-4 -9,-7 8,0 1,-18 4,-5 9,4 6,9 23,-5 -6,-6 5,-24 11,-12 1,-14 36,0 1,-72 66,1 17,-1Z"/>
    <path data-fips-int="18149" data-name="Starke County" d="M1131,369l0,218 -102,0 -1,-1 -158,0 -30,-1 1,-54 6,-6 29,-16 16,-2 5,-4 16,-2 20,-10 13,-18 14,-11 3,-14 7,-19 10,-15 5,-20 18,-10 18,-15 74,0Z"/>
    <path data-fips-int="18151" data-name="Steuben County" d="M2168,279l-120,4 -95,2 -28,1 -2,-136 -2,-59 129,-2 30,0 84,-2 2,106Z"/>
    <path data-fips-int="18153" data-name="Sullivan County" d="M631,2179l0,72 -2,108 0,65 -1,48 0,4 -66,0 -80,-2 -36,0 -3,-14 5,-3 -1,-15 6,-12 -11,-14 -29,-12 9,-5 -12,-7 6,-19 -6,-16 5,-12 -15,-19 -12,-2 -4,-8 1,-11 -19,0 -1,-10 11,-2 -14,-12 2,-14 9,-16 13,-2 -1,-11 7,1 16,-14 8,-17 -3,-20 5,-5 -8,-3 -7,6 -6,-10 50,1 52,0Z"/>
    <path data-fips-int="18155" data-name="Switzerland County" d="M2165,2470l5,3 22,0 19,4 9,8 -1,17 -19,17 -7,9 2,11 11,20 -2,8 -11,1 -19,-7 -19,-2 -33,17 -32,-3 -36,26 -18,7 -17,12 -28,26 -19,7 -19,-3 -2,-93 0,-60 -1,-32 0,-12 43,-1 -3,22 126,0Z"/>
    <path data-fips-int="18157" data-name="Tippecanoe County" d="M938,1094l48,1 0,108 -1,180 -72,0 -127,0 -54,0 2,-127 0,-91 -1,-72 41,0 37,1 65,1Z"/>
    <path data-fips-int="18159" data-name="Tipton County" d="M1514,1223l1,23 1,71 -1,62 -159,2 -83,2 0,-131 0,-25 37,0 125,-3Z"/>
    <path data-fips-int="18161" data-name="Union County" d="M2190,1782l2,170 -79,-1 -55,2 -8,-2 -1,-36 0,-65 -1,-56 0,-12 42,1Z"/>
    <path data-fips-int="18163" data-name="Vanderburgh County" d="M475,3089l-1,36 -3,0 -1,72 15,0 -1,54 -1,25 -16,10 -19,17 -32,-15 -6,-7 -8,-17 0,-13 -7,-5 -10,2 -6,23 -9,8 -3,11 5,14 18,16 2,20 -17,25 -20,5 -15,-1 -7,-6 -3,-10 4,-15 9,-12 -1,-13 -6,-7 -9,-1 -9,5 3,-87 3,-102 5,0 1,-37 61,1Z"/>
    <path data-fips-int="18165" data-name="Vermillion County" d="M532,1454l-1,18 -6,38 -10,10 5,6 -7,11 1,28 4,7 -3,14 -6,7 13,7 -9,14 9,8 7,-3 -3,9 5,6 15,5 8,18 -6,8 15,9 -11,21 -7,1 -2,24 7,17 -4,19 1,20 -4,18 2,8 -1,14 -6,14 1,10 -4,6 2,18 7,15 -1,8 -76,0 -20,-1 2,-235 1,-48 3,-167 26,0 0,17Z"/>
    <path data-fips-int="18167" data-name="Vigo County" d="M660,1889l-1,72 -25,0 -3,218 -132,-2 -52,0 -50,-1 2,-11 -6,-10 9,-10 -6,-6 -10,0 10,-7 12,-18 8,-6 11,2 9,-12 8,4 2,-71 0,-58 1,-87 20,1 76,0 47,0Z"/>
    <path data-fips-int="18169" data-name="Wabash County" d="M1623,689l1,37 24,0 3,74 0,65 3,152 -78,1 -65,1 -47,1 -1,-45 -1,-83 -2,-105 -2,-57 1,-37 48,0Z"/>
    <path data-fips-int="18171" data-name="Warren County" d="M734,1165l0,91 -26,22 -25,4 -7,5 -15,5 -17,10 -8,1 -2,7 -17,14 -14,24 -13,7 -10,16 -17,14 -22,6 -14,7 -15,21 3,13 18,10 -1,12 -53,-1 0,-17 -26,0 2,-83 2,-91 2,-101 58,2 84,0 39,2Z"/>
    <path data-fips-int="18173" data-name="Warrick County" d="M733,3035l0,24 37,0 -1,72 -36,0 -1,14 -11,12 -5,24 6,6 -23,5 -6,-9 -9,-4 -4,5 -1,18 -8,0 9,7 -11,4 -4,12 -36,31 -2,15 -7,-2 -16,21 -1,39 -19,-15 -17,-9 -15,-4 -24,-22 -19,-7 -26,4 1,-25 1,-54 -15,0 1,-72 3,0 1,-36 1,-30 97,0 1,-37 12,0 0,12 37,2Z"/>
    <path data-fips-int="18175" data-name="Washington County" d="M1506,2617l1,71 1,6 1,55 24,0 1,12 0,11 -12,0 0,25 -12,0 0,12 -47,2 1,11 -25,1 -1,58 -25,0 -31,0 -113,-3 -35,0 0,-214 -1,-8 0,-36 11,-2 3,-15 8,-9 8,-5 15,3 12,-10 15,3 10,-7 7,8 6,-2 18,11 12,-4 9,1 6,-16 12,9 7,-4 16,14 9,4 2,-9 5,9 20,-10 -1,8 11,4 2,-6 25,4 -1,5 11,3 6,-6Z"/>
    <path data-fips-int="18177" data-name="Wayne County" d="M2187,1550l1,101 0,70 2,61 -100,1 -42,-1 0,12 -90,0 -6,1 0,-61 -24,1 0,-72 12,0 0,-57 -2,-52 61,0 24,-2 91,-1 21,-1Z"/>
    <path data-fips-int="18179" data-name="Wells County" d="M2008,791l4,146 2,46 0,39 2,61 -54,2 -30,0 -102,1 -53,1 -3,-72 73,-1 -4,-219 18,-1 82,0Z"/>
    <path data-fips-int="18181" data-name="White County" d="M1059,804l0,92 -1,54 -104,-2 -7,9 6,9 -9,14 9,10 -8,8 12,-2 -10,13 -11,1 2,12 0,72 -62,1 -65,-1 -37,-1 -41,0 -1,-40 0,-101 0,-4 0,-85 71,1 0,-62 36,0 102,0 70,1Z"/>
    <path data-fips-int="18183" data-name="Whitley County" d="M1857,505l-1,11 1,60 -18,0 2,86 1,59 -70,0 -15,2 -109,3 -24,0 -1,-37 -2,-53 -1,-57 21,0 0,-97 73,-1 -1,24 10,0Z"/>
  </g>
  <g class="cities">
    <circle r="3" cx="132.9" cy="175.6"/>
    <text x="132.9" y="175.6">Indianapolis</text>
    <circle r="3" cx="197.1" cy="61.6"/>
    <text x="197.1" y="61.6">Fort Wayne</text>
    <circle r="3" cx="41.5" cy="324.7"/>
    <text x="41.5" y="324.7">Evansville</text>
  </g>
</svg>