<?xml version="1.0" encoding="utf-8"?>
<!DOCTYPE svg PUBLIC "-//W3C//DTD SVG 1.1//EN" "http://www.w3.org/Graphics/SVG/1.1/DTD/svg11.dtd">
<svg version="1.1" xmlns="http://www.w3.org/2000/svg" width="228" height="350" viewBox="0 0 228 350">
  <defs>
    <pattern id="pattern-no-results" width="50" height="50" patternUnits="userSpaceOnUse">
      <rect width="50" height="50" fill="#ddd"/>
      <path d="M-5,5L5,-5M-5,55L55,-5M45,55L55,45" stroke-width="10" stroke="#ffffff"/>
    </pattern>
  </defs>
  <g class="counties" transform="scale(0.1)">
    <path data-fips-int="18001" data-name="Adams County" d="M2178,784l6,293 -168,6 -8,-291Z"/>
    <path data-fips-int="18003" data-name="Allen County" d="M2178,784l-170,8 -165,0 0,-71 -5,-145 18,0 0,-72 73,0 244,-9Z"/>
    <path data-fips-int="18005" data-name="Bartholomew County" d="M1635,2103l0,183 -75,2 2,51 -48,23 -134,4 0,-12 -4,-244 87,-4Z"/>
    <path data-fips-int="18007" data-name="Benton County" d="M626,947l106,0 0,146 2,72 -275,-3 3,-217Z"/>
    <path data-fips-int="18009" data-name="Blackford County" d="M1931,1085l-1,156 -8,0 -142,2 -3,-156Z"/>
    <path data-fips-int="18011" data-name="Boone County" d="M1273,1411l2,213 -55,2 -235,0 0,-212 204,2Z"/>
    <path data-fips-int="18013" data-name="Brown County" d="M1380,2354l-153,2 -34,0 -1,-158 -6,-85 83,-2 107,-1Z"/>
    <path data-fips-int="18015" data-name="Carroll County" d="M1059,950l36,0 -2,37 97,-2 0,110 -1,108 -204,0 0,-108 -47,0 -1,-85 15,-61Z"/>
    <path data-fips-int="18017" data-name="Cass County" d="M1130,804l189,0 3,289 -132,2 0,-110 -97,2 2,-37 -36,0 0,-146Z"/>
    <path data-fips-int="18019" data-name="Clark County" d="M1807,2737l1,48 -29,20 -15,31 -70,22 -22,50 -8,43 -19,30 -43,25 -30,-18 4,-28 15,-24 -31,-45 -103,2 -18,-13 0,-57 24,-11 47,-2 24,-48 47,-40 133,0 49,0 11,15Z"/>
    <path data-fips-int="18021" data-name="Clay County" d="M780,1892l-2,109 48,0 -2,110 -72,-1 -3,146 -119,-5 1,-73 3,-218 25,2 1,-74Z"/>
    <path data-fips-int="18023" data-name="Clinton County" d="M1189,1203l42,0 0,37 42,11 0,132 0,28 -84,5 -204,-2 0,-30 0,-181Z"/>
    <path data-fips-int="18025" data-name="Crawford County" d="M1269,2878l1,55 -12,-5 -3,111 -35,40 -17,-15 -9,30 28,7 -2,18 -37,5 -13,19 -36,-14 1,-73 -73,0 0,-50 -71,5 0,-110 242,0 0,-23Z"/>
    <path data-fips-int="18027" data-name="Daviess County" d="M833,2808l-13,10 -35,-16 -44,10 -6,-12 -23,-20 -17,17 -48,-29 -22,5 -7,-55 10,-3 -23,-56 24,-70 -2,-39 33,-3 47,-43 13,-28 127,0 0,73 -13,5Z"/>
    <path data-fips-int="18029" data-name="Dearborn County" d="M2034,2135l158,-2 4,165 -50,46 13,18 -52,32 -25,-2 -40,40 -47,2Z"/>
    <path data-fips-int="18031" data-name="Decatur County" d="M1883,2015l2,153 -91,61 -83,55 -76,2 0,-183 34,0 0,-87Z"/>
    <path data-fips-int="18033" data-name="DeKalb County" d="M2173,495l-244,9 -4,-219 244,-7Z"/>
    <path data-fips-int="18035" data-name="Delaware County" d="M1780,1243l142,-2 2,62 5,191 -230,2 -5,-251Z"/>
    <path data-fips-int="18037" data-name="Dubois County" d="M990,2792l1,109 0,110 1,12 -75,0 1,36 -148,0 -38,0 0,-25 3,-234 6,12 44,-10 35,16 13,-10 29,9 27,-25Z"/>
    <path data-fips-int="18039" data-name="Elkhart County" d="M1632,95l6,197 1,71 -92,3 -161,0 0,-38 -3,-233Z"/>
    <path data-fips-int="18041" data-name="Fayette County" d="M2048,1794l3,158 -169,3 -6,-220 52,-1 24,0 0,61Z"/>
    <path data-fips-int="18043" data-name="Floyd County" d="M1439,2880l18,13 103,-2 31,45 -15,24 -4,28 -22,7 -13,43 -35,41 -38,-8 1,-58 -51,-58 0,-75Z"/>
    <path data-fips-int="18045" data-name="Fountain County" d="M734,1256l-2,127 0,218 -211,-2 -8,-63 12,-25 7,-57 -20,-35 14,-23 45,-17 71,-76 66,-25Z"/>
    <path data-fips-int="18047" data-name="Franklin County" d="M2051,1952l141,0 0,181 -158,2 -100,0 -49,33 -2,-153 -1,-60Z"/>
    <path data-fips-int="18049" data-name="Fulton County" d="M1375,586l1,72 37,0 0,36 45,-2 0,37 -139,3 0,72 -189,0 1,-218Z"/>
    <path data-fips-int="18051" data-name="Gibson County" d="M574,3023l0,36 -99,0 -1,29 -144,-4 0,-28 -68,-2 -4,-21 -122,-4 29,-23 7,-31 13,24 23,-34 17,30 32,-75 40,-42 95,-30 11,-25 57,-10 14,-20 7,-10 0,55 12,25 23,0 2,48 58,0Z"/>
    <path data-fips-int="18053" data-name="Grant County" d="M1774,1015l3,72 3,156 -86,2 -180,1 0,-23 -2,-133 -1,-72 143,-1Z"/>
    <path data-fips-int="18055" data-name="Greene County" d="M749,2256l242,2 0,144 0,74 -144,0 -127,0 -91,-5 1,-220Z"/>
    <path data-fips-int="18057" data-name="Hamilton County" d="M1516,1379l1,230 0,12 -48,1 -194,2 -2,-213 0,-28Z"/>
    <path data-fips-int="18059" data-name="Hancock County" d="M1700,1606l0,60 -13,0 1,71 -24,0 1,75 -205,3 -2,-145 11,0 0,-48 48,-1 0,-12Z"/>
    <path data-fips-int="18061" data-name="Harrison County" d="M1414,2880l0,75 51,58 -1,58 38,8 0,2 -4,77 -23,64 -47,7 -23,35 -18,-32 -25,-15 -35,5 -65,-40 -3,-64 -39,-39 35,-40 3,-111 12,5 -1,-55Z"/>
    <path data-fips-int="18063" data-name="Hendricks County" d="M1220,1626l1,244 -90,2 0,25 -122,-2 9,-23 -28,0 0,-197 -6,0 1,-49Z"/>
    <path data-fips-int="18065" data-name="Henry County" d="M1929,1494l9,60 2,108 -14,2 2,70 -52,1 -188,2 -1,-71 13,0 0,-60 -1,-110Z"/>
    <path data-fips-int="18067" data-name="Howard County" d="M1514,1223l-238,3 -3,25 -42,-11 0,-37 -42,0 1,-108 132,-2 190,-3Z"/>
    <path data-fips-int="18069" data-name="Huntington County" d="M1843,721l0,71 4,221 -73,2 -120,2 -5,-291Z"/>
    <path data-fips-int="18071" data-name="Jackson County" d="M1562,2339l5,216 -24,49 -25,18 -6,0 -6,-5 0,3 -13,-15 -49,-16 -21,8 -30,-17 -47,14 -29,-15 -62,15 -5,-190 -23,0 0,-48 153,-2 0,12 134,-4Z"/>
    <path data-fips-int="18073" data-name="Jasper County" d="M840,531l0,55 -2,216 -35,0 0,62 -71,0 0,83 -106,0 0,-146 -5,0 3,-257 35,-18 54,-36 45,13 58,43Z"/>
    <path data-fips-int="18075" data-name="Jay County" d="M2184,1077l2,216 -262,10 -2,-62 8,0 1,-156 85,-2Z"/>
    <path data-fips-int="18077" data-name="Jefferson County" d="M1950,2464l3,185 -30,-35 -39,-7 -28,10 -43,-5 -22,23 16,102 -33,0 -11,-15 -49,0 -1,-60 -24,0 0,-23 -50,-25 0,-65 47,-10 0,-24 24,0 0,-23 23,0 -1,-25 61,-1Z"/>
    <path data-fips-int="18079" data-name="Jennings County" d="M1793,2466l-61,1 1,25 -23,0 0,23 -24,0 0,24 -47,10 -15,-7 -57,13 -5,-216 -2,-51 75,-2 76,-2 83,-55Z"/>
    <path data-fips-int="18081" data-name="Johnson County" d="M1460,1863l3,243 -87,4 -107,1 1,-243Z"/>
    <path data-fips-int="18083" data-name="Knox County" d="M720,2476l-13,28 -47,43 -33,3 2,39 -24,70 23,56 -10,3 7,55 -30,29 -53,-27 -61,8 -7,10 -14,20 -57,10 -11,25 -95,30 0,-51 65,-27 -16,-27 38,-38 -9,-17 19,-46 36,-10 31,-55 1,-35 -34,-62 18,-36 158,2 25,-5Z"/>
    <path data-fips-int="18085" data-name="Kosciusko County" d="M1639,363l2,118 0,98 -21,0 3,110 -165,3 -45,2 0,-36 -37,0 -1,-72 15,-2 -4,-218 161,0Z"/>
    <path data-fips-int="18087" data-name="LaGrange County" d="M1925,285l-287,7 -6,-197 289,-5Z"/>
    <path data-fips-int="18089" data-name="Lake County" d="M618,207l42,0 -1,319 -35,18 -34,30 -55,17 -15,-10 -54,7 7,-451 36,28 27,-15 -8,35 54,20Z"/>
    <path data-fips-int="18091" data-name="LaPorte County" d="M1096,95l-3,92 25,0 0,68 -8,42 -15,0 0,71 -74,0 -36,23 -29,74 -48,38 -30,3 -38,25 2,-163 -1,-231 15,-13 52,-29Z"/>
    <path data-fips-int="18093" data-name="Lawrence County" d="M1227,2404l23,0 5,190 -22,28 0,35 -243,2 1,-183 0,-74Z"/>
    <path data-fips-int="18095" data-name="Madison County" d="M1694,1245l5,251 1,110 -183,3 -1,-230 -2,-133Z"/>
    <path data-fips-int="18097" data-name="Marion County" d="M1469,1622l0,48 -11,0 2,145 0,48 -190,5 -49,2 -1,-244 55,-2Z"/>
    <path data-fips-int="18099" data-name="Marshall County" d="M1386,328l0,38 4,218 -15,2 -244,0 0,-218 0,-35Z"/>
    <path data-fips-int="18101" data-name="Martin County" d="M991,2476l-1,183 0,133 -101,0 -27,25 -29,-9 1,-254 13,-5 0,-73Z"/>
    <path data-fips-int="18103" data-name="Miami County" d="M1458,729l6,291 47,-2 1,72 -190,3 -3,-289 0,-72Z"/>
    <path data-fips-int="18105" data-name="Monroe County" d="M1186,2113l6,85 1,158 34,0 0,48 -236,-2 0,-144 -1,-142 13,5 22,-15 0,7Z"/>
    <path data-fips-int="18107" data-name="Montgomery County" d="M985,1384l0,30 0,212 -1,49 -200,-1 -53,-2 1,-71 0,-218Z"/>
    <path data-fips-int="18109" data-name="Morgan County" d="M1270,1868l-1,243 -83,2 -161,0 0,-7 -1,-101 -34,0 -2,-43 19,-20 2,-47 122,2 0,-25 90,-2Z"/>
    <path data-fips-int="18111" data-name="Newton County" d="M626,947l-164,-2 4,-357 54,-7 15,10 55,-17 34,-30 -3,257 5,0Z"/>
    <path data-fips-int="18113" data-name="Noble County" d="M1925,285l4,219 -73,0 -142,0 0,-23 -73,0 -2,-118 -1,-71Z"/>
    <path data-fips-int="18115" data-name="Ohio County" d="M2165,2471l-173,0 1,-22 2,-15 47,-2 40,-40 25,2 52,-32 31,44 -30,50Z"/>
    <path data-fips-int="18117" data-name="Orange County" d="M1233,2657l0,221 0,23 -242,0 -1,-109 0,-133Z"/>
    <path data-fips-int="18119" data-name="Owen County" d="M990,2005l34,0 1,101 -22,15 -13,-5 1,142 -242,-2 3,-146 72,1 2,-110Z"/>
    <path data-fips-int="18121" data-name="Parke County" d="M732,1601l-1,71 53,2 -4,218 -120,-4 -118,-1 -7,-42 15,-111 -6,-37 19,-20 -10,-25 -40,-35 8,-18Z"/>
    <path data-fips-int="18123" data-name="Perry County" d="M1134,3129l19,43 -62,32 4,65 8,22 -55,6 -3,42 -24,21 -20,-15 8,-41 -53,15 -53,-90 10,-12 17,12 -10,-35 12,-43 -24,-40 10,-52 -1,-36 75,0 -1,-12 71,-5 0,50 73,0Z"/>
    <path data-fips-int="18125" data-name="Pike County" d="M735,2800l-3,234 -146,0 -12,-11 2,-112 -58,0 -2,-48 -23,0 -12,-25 0,-55 61,-8 53,27 30,-29 22,-5 48,29 17,-17Z"/>
    <path data-fips-int="18127" data-name="Porter County" d="M840,531l-24,15 -58,-43 -45,-13 -54,36 1,-319 57,-20 31,-5 93,-45 1,231Z"/>
    <path data-fips-int="18129" data-name="Posey County" d="M330,3084l-6,35 -6,188 -56,20 -32,-3 -30,-40 -15,0 -26,40 23,33 0,27 -35,28 -53,-33 -19,8 -6,-27 35,-3 -25,-12 -22,-38 56,0 -14,-51 16,-15 -15,-64 45,-11 6,-27 -37,0 47,-23 23,-30 -48,-37 0,-20 122,4 4,21 68,2Z"/>
    <path data-fips-int="18131" data-name="Pulaski County" d="M1131,586l-1,218 -71,0 -221,-2 2,-216Z"/>
    <path data-fips-int="18133" data-name="Putnam County" d="M984,1675l6,0 0,197 28,0 -9,23 -2,47 -19,20 2,43 -164,-4 -48,0 2,-109 4,-218Z"/>
    <path data-fips-int="18135" data-name="Randolph County" d="M2186,1293l2,256 -250,5 -9,-60 -5,-191Z"/>
    <path data-fips-int="18137" data-name="Ripley County" d="M2034,2135l-39,299 -2,15 -43,2 0,13 -157,2 1,-237 91,-61 49,-33Z"/>
    <path data-fips-int="18139" data-name="Rush County" d="M1882,1955l1,60 -214,1 -4,-204 -1,-75 24,0 188,-2Z"/>
    <path data-fips-int="18141" data-name="Saint Joseph County" d="M1386,328l-255,5 0,35 -36,0 0,-71 15,0 8,-42 0,-68 -25,0 3,-92 287,0Z"/>
    <path data-fips-int="18143" data-name="Scott County" d="M1624,2542l15,7 0,65 50,25 0,23 24,0 1,60 -133,0 -47,40 -25,-12 -3,-130 0,-3 6,5 6,0 25,-18 24,-49Z"/>
    <path data-fips-int="18145" data-name="Shelby County" d="M1665,1812l4,204 0,87 -34,0 -172,3 -3,-243 0,-48Z"/>
    <path data-fips-int="18147" data-name="Spencer County" d="M918,3059l-10,52 24,40 -12,43 10,35 -17,-12 -10,12 -24,8 -50,47 -33,2 -47,33 -12,66 -43,22 -25,-50 -35,-3 -31,-25 1,-40 51,-55 28,-55 34,-2 15,-46 37,0 1,-72Z"/>
    <path data-fips-int="18149" data-name="Starke County" d="M1131,368l0,218 -291,0 0,-55 38,-25 30,-3 48,-38 29,-74 36,-23 74,0Z"/>
    <path data-fips-int="18151" data-name="Steuben County" d="M2169,278l-244,7 -4,-195 243,-3Z"/>
    <path data-fips-int="18153" data-name="Sullivan County" d="M631,2178l-1,73 -1,220 -25,5 -158,-2 7,-45 -43,-28 5,-55 -28,-42 -22,0 -3,-23 53,-67 -18,-38Z"/>
    <path data-fips-int="18155" data-name="Switzerland County" d="M2165,2471l56,16 -28,48 11,30 -50,-6 -29,16 -39,-1 -64,41 -33,30 -36,4 -3,-185 0,-13 43,-2 -1,22Z"/>
    <path data-fips-int="18157" data-name="Tippecanoe County" d="M938,1095l47,0 0,108 0,181 -253,-1 2,-127 0,-91 -2,-72Z"/>
    <path data-fips-int="18159" data-name="Tipton County" d="M1514,1223l0,23 2,133 -243,4 0,-132 3,-25Z"/>
    <path data-fips-int="18161" data-name="Union County" d="M2189,1782l3,170 -141,0 -3,-158 0,-12Z"/>
    <path data-fips-int="18163" data-name="Vanderburgh County" d="M474,3088l-4,109 15,0 -2,79 -36,28 -38,-23 -21,-37 -22,42 24,33 -15,46 -37,4 -8,-24 8,-38 -20,0 6,-188 6,-35Z"/>
    <path data-fips-int="18165" data-name="Vermillion County" d="M532,1454l-7,57 -12,25 8,63 -8,18 40,35 10,25 -19,20 6,37 -15,111 7,42 -95,0 0,-115 6,-336 26,15Z"/>
    <path data-fips-int="18167" data-name="Vigo County" d="M660,1888l-1,74 -25,-2 -3,218 -234,-2 -8,-35 18,-28 38,-10 2,-216 95,0Z"/>
    <path data-fips-int="18169" data-name="Wabash County" d="M1623,689l1,37 25,0 5,291 -143,1 -47,2 -6,-291 0,-37Z"/>
    <path data-fips-int="18171" data-name="Warren County" d="M734,1165l0,91 -26,22 -66,25 -71,76 -45,17 -14,23 20,35 -53,-3 -26,-15 6,-274Z"/>
    <path data-fips-int="18173" data-name="Warrick County" d="M732,3034l0,25 38,0 -1,72 -37,0 -15,46 -34,2 -28,55 -51,55 -1,40 -92,-57 -28,4 2,-79 -15,0 4,-109 1,-29 99,0 0,-36 12,11Z"/>
    <path data-fips-int="18175" data-name="Washington County" d="M1493,2605l13,15 0,-3 0,3 3,130 25,12 -24,48 -47,2 -24,11 0,57 -25,0 -145,-2 -36,0 0,-221 0,-35 22,-28 62,-15 29,15 47,-14 30,17 21,-8Z"/>
    <path data-fips-int="18177" data-name="Wayne County" d="M2188,1549l1,233 -141,0 0,12 -96,1 0,-61 -24,0 -2,-70 14,-2 -2,-108Z"/>
    <path data-fips-int="18179" data-name="Wells County" d="M2008,792l8,291 -85,2 -154,2 -3,-72 73,-2 -4,-221Z"/>
    <path data-fips-int="18181" data-name="White County" d="M1059,804l0,146 -107,-1 -15,61 1,85 -206,-2 0,-146 0,-83 71,0 0,-62 35,0Z"/>
    <path data-fips-int="18183" data-name="Whitley County" d="M1856,504l0,72 -18,0 5,145 -194,5 -25,0 -1,-37 -3,-110 21,0 0,-98 73,0 0,23Z"/>
  </g>
  <g class="cities">
    <circle r="3" cx="132.9" cy="175.6"/>
    <text x="132.9" y="175.6">Indianapolis</text>
    <circle r="3" cx="197.1" cy="61.5"/>
    <text x="197.1" y="61.5">Fort Wayne</text>
    <circle r="3" cx="41.5" cy="324.8"/>
    <text x="41.5" y="324.8">Evansville</text>
  </g>
</svg>