<?xml version="1.0" encoding="utf-8"?>
<!DOCTYPE svg PUBLIC "-//W3C//DTD SVG 1.1//EN" "http://www.w3.org/Graphics/SVG/1.1/DTD/svg11.dtd">
<svg version="1.1" xmlns="http://www.w3.org/2000/svg" width="228" height="350" viewBox="0 0 228 350">
  <path class="state" transform="scale(0.1)" d="M2189,1782l3,170v181l4,165 -50,46 13,18 31,44 -28,43 3,22 51,10 5,13 -28,41v34l-36,-10 -32,15 -39,-2 -64,43 -28,27 -41,7 -30,-35 -39,-9 -28,12 -43,-5 -22,23 16,103 1,49 -31,20 -20,31 -65,22 -20,48 -10,48 -17,24 -43,26 -30,-18 -22,7 -13,43 -35,43 -4,77 -23,64 -47,9 -23,31 -18,-31 -25,-15 -35,6 -35,-15 -37,-40 4,-48 -39,-40 -17,-15 -9,30 28,7 -2,20h-30l-20,22 -36,-14 20,34 -11,21 -52,20 4,65 8,22 -50,3 -15,55 -31,13 2,-58 -53,15 -53,-88 -34,13 -28,33 -45,9 -47,33 -18,78 -37,8 -25,-48 -35,-3 -31,-25 -70,-47 -50,-6 -36,28 -27,-13 -32,-45 -22,40 24,33 -15,46 -37,4 5,-43 -25,-17 -56,17h-32l-30,-42h-15l-26,42 23,31v27l-25,25 -63,-30 -19,8 -6,-27 35,-3 -25,-12 -22,-38h56l-34,-18 23,-13 13,-35 -15,-64 45,-11 6,-28 -35,13 68,-65 -31,-17 -17,-41 29,-20 7,-33 13,24 23,-34 17,30 32,-77 40,-40 -8,-33 73,-45 -16,-27 35,-36 -2,-44 15,-21 36,-10 31,-57 1,-33 -34,-62 18,-36 7,-38 -39,-32 1,-58 -28,-42h-22l9,-53 41,-37 -18,-38 -8,-35 26,-33 30,-5 2,-216v-115l6,-336 6,-274 3,-217 4,-357 7,-451 1,-47 434,5h188h287h249l289,-5 243,-3 5,191 4,217 5,291 6,291 2,218 2,254 1,233"/>
  <g class="counties" transform="scale(0.1)">
    <path data-fips-int="18001" data-name="Adams County" d="M2178,786l6,291 -168,6 -8,-291Z"/>
    <path data-fips-int="18003" data-name="Allen County" d="M2178,786l-170,6 -165,2v-73l-5,-145h18v-72h73l244,-9Z"/>
    <path data-fips-int="18005" data-name="Bartholomew County" d="M1635,2103v183l-75,2 2,51 -48,23 -134,4v-12l-4,-244 87,-4Z"/>
    <path data-fips-int="18007" data-name="Benton County" d="M626,947h106v146l2,72 -275,-3 3,-217Z"/>
    <path data-fips-int="18009" data-name="Blackford County" d="M1931,1085l-1,156h-8l-142,2 -3,-156Z"/>
    <path data-fips-int="18011" data-name="Boone County" d="M1273,1413l2,211 -55,3h-235v-213l204,2Z"/>
    <path data-fips-int="18013" data-name="Brown County" d="M1380,2354l-153,2h-34l-1,-158 -6,-85 83,-2 107,-1Z"/>
    <path data-fips-int="18015" data-name="Carroll County" d="M1059,950h36l-2,37 97,-2v110l-1,108h-204v-108h-47l-1,-85 15,-61Z"/>
    <path data-fips-int="18017" data-name="Cass County" d="M1130,806h189l3,287 -132,2v-110l-97,2 2,-37h-36v-146Z"/>
    <path data-fips-int="18019" data-name="Clark County" d="M1807,2738l1,49 -31,20 -20,31 -65,22 -20,48 -10,48 -17,24 -43,26 -30,-18 -2,-40 21,-12 -31,-45 -103,2 -18,-12v-58l24,-11 47,-4 24,-48 47,-37 133,-1h49l11,16Z"/>
    <path data-fips-int="18021" data-name="Clay County" d="M780,1892l-2,109h48l-2,110 -72,-1 -3,146 -119,-5 1,-73 3,-218 25,2 1,-74Z"/>
    <path data-fips-int="18023" data-name="Clinton County" d="M1189,1203h42v37l42,11v132v30l-84,3 -204,-2v-30v-181Z"/>
    <path data-fips-int="18025" data-name="Crawford County" d="M1269,2878l-12,85 -2,78 -35,38 -17,-15 -9,30 28,7 -2,20h-30l-20,22 -36,-14 1,-71h-73v-50l-71,3v-110h242v-23Z"/>
    <path data-fips-int="18027" data-name="Daviess County" d="M833,2807l-13,13 -35,-18 -44,10 -6,-12 -24,-20 -16,17 -29,-24h-41l-8,-75 13,-1 -28,-48 34,-90 50,-32 34,-51h127v73l-13,5Z"/>
    <path data-fips-int="18029" data-name="Dearborn County" d="M2034,2135l158,-2 4,165 -50,46 13,18 -48,30h-29l-62,50 -25,-8Z"/>
    <path data-fips-int="18031" data-name="Decatur County" d="M1883,2015l2,153 -91,61 -83,55 -76,2v-183h34v-87Z"/>
    <path data-fips-int="18033" data-name="DeKalb County" d="M2173,495l-244,9 -4,-219 244,-7Z"/>
    <path data-fips-int="18035" data-name="Delaware County" d="M1780,1243l142,-2 2,62 5,191h-230l-5,-249Z"/>
    <path data-fips-int="18037" data-name="Dubois County" d="M990,2792l1,109v110l1,12h-75l1,35h-148h-38v-24l3,-234 6,12 44,-10 35,18 13,-13 29,10 27,-25Z"/>
    <path data-fips-int="18039" data-name="Elkhart County" d="M1632,95l6,197 1,69 -92,4h-161v-35l-3,-235Z"/>
    <path data-fips-int="18041" data-name="Fayette County" d="M2048,1794l3,158 -169,3 -6,-220 52,-1h24v61Z"/>
    <path data-fips-int="18043" data-name="Floyd County" d="M1439,2881l18,12 103,-2 31,45 -21,12 2,40 -22,7 -13,43 -35,43 -38,-8 1,-62 -51,-56v-74Z"/>
    <path data-fips-int="18045" data-name="Fountain County" d="M734,1256l-2,127v218l-211,-2 -8,-63 12,-27 7,-55 -19,-25 13,-31 36,-12 42,-40 30,-41 71,-25Z"/>
    <path data-fips-int="18047" data-name="Franklin County" d="M2051,1952h141v181l-158,2h-100l-49,33 -2,-153 -1,-60Z"/>
    <path data-fips-int="18049" data-name="Fulton County" d="M1375,586l1,73 37,-1v34h45v37l-139,2v75h-189l1,-220Z"/>
    <path data-fips-int="18051" data-name="Gibson County" d="M574,3023v35h-99l-1,31 -144,-5v-26l-68,-2 -4,-23 -122,-5 29,-20 7,-33 13,24 23,-34 17,30 32,-77 40,-40 95,-28 17,-33 51,-4 21,-30v55l12,25h23l2,50 58,-2Z"/>
    <path data-fips-int="18053" data-name="Grant County" d="M1774,1015l3,72 3,156 -86,2 -180,1v-23l-2,-133 -1,-72 143,-1Z"/>
    <path data-fips-int="18055" data-name="Greene County" d="M749,2256l242,2v144v74h-144h-127l-91,-5 1,-220Z"/>
    <path data-fips-int="18057" data-name="Hamilton County" d="M1516,1379l1,230v10l-48,3 -194,2 -2,-211v-30Z"/>
    <path data-fips-int="18059" data-name="Hancock County" d="M1700,1604v63h-13l1,70h-24l1,75 -205,3 -2,-145h11v-48l48,-3v-10Z"/>
    <path data-fips-int="18061" data-name="Harrison County" d="M1414,2881v74l51,56 -1,62 38,8 -4,77 -23,64 -47,9 -23,31 -18,-31 -25,-15 -35,6 -35,-15 -37,-40 4,-48 -39,-40 35,-38 2,-78 12,-85Z"/>
    <path data-fips-int="18063" data-name="Hendricks County" d="M1220,1627l1,243 -90,2v25l-122,-2 9,-23h-28v-198h-6l1,-47Z"/>
    <path data-fips-int="18065" data-name="Henry County" d="M1929,1494l9,60 2,108 -14,2 2,70 -52,1 -188,2 -1,-70h13v-63l-1,-110Z"/>
    <path data-fips-int="18067" data-name="Howard County" d="M1514,1223l-238,3 -3,25 -42,-11v-37h-42l1,-108 132,-2 190,-3Z"/>
    <path data-fips-int="18069" data-name="Huntington County" d="M1843,721v73l4,219 -73,2 -120,2 -5,-291Z"/>
    <path data-fips-int="18071" data-name="Jackson County" d="M1562,2339l5,216 -39,65 -22,-3 -36,-22 -47,4 -53,-22 -24,17 -35,-17 -56,17 -5,-190h-23v-48l153,-2v12l134,-4Z"/>
    <path data-fips-int="18073" data-name="Jasper County" d="M840,531v55l-2,216h-35v62h-71v83h-106v-146h-5l3,-257 35,-18 54,-36 45,13 58,43Z"/>
    <path data-fips-int="18075" data-name="Jay County" d="M2184,1077l2,218 -262,8 -2,-62h8l1,-156 85,-2Z"/>
    <path data-fips-int="18077" data-name="Jefferson County" d="M1950,2464l3,185 -30,-35 -39,-9 -28,12 -43,-5 -22,23 16,103h-33l-11,-16h-49l-1,-60h-24v-25l-50,-23v-65l47,-10v-24h24v-23h23l-1,-25 61,-1Z"/>
    <path data-fips-int="18079" data-name="Jennings County" d="M1793,2466l-61,1 1,25h-23v23h-24v24l-47,10 -31,-9 -41,15 -5,-216 -2,-51 75,-2 76,-2 83,-55Z"/>
    <path data-fips-int="18081" data-name="Johnson County" d="M1460,1863l3,243 -87,4 -107,1 1,-243Z"/>
    <path data-fips-int="18083" data-name="Knox County" d="M720,2476l-34,51 -50,32 -34,90 28,48 -13,1 8,75 -30,29 -53,-27 -61,8 -21,30 -51,4 -17,33 -95,28 -8,-33 73,-45 -16,-27 35,-36 -2,-44 15,-21 36,-10 31,-57 1,-33 -34,-62 18,-36 158,2 25,-5Z"/>
    <path data-fips-int="18085" data-name="Kosciusko County" d="M1639,361l2,120v98h-21l3,110 -165,3h-45v-34l-37,1 -1,-73 15,-2 -4,-219h161Z"/>
    <path data-fips-int="18087" data-name="LaGrange County" d="M1925,285l-287,7 -6,-197 289,-5Z"/>
    <path data-fips-int="18089" data-name="Lake County" d="M660,208l-1,318 -35,18 -34,30 -55,17 -15,-10 -54,7 7,-451 36,28 27,-15 -8,35 72,25Z"/>
    <path data-fips-int="18091" data-name="LaPorte County" d="M1096,95l-3,93h25v67l-8,42h-15v71h-74l-36,25 -24,65 -26,30 -57,18 -38,25 2,-163 -1,-231 15,-10 52,-32Z"/>
    <path data-fips-int="18093" data-name="Lawrence County" d="M1227,2404h23l5,190 -22,28v35l-243,2 1,-183v-74Z"/>
    <path data-fips-int="18095" data-name="Madison County" d="M1694,1245l5,249 1,110 -183,5 -1,-230 -2,-133Z"/>
    <path data-fips-int="18097" data-name="Marion County" d="M1469,1622v48h-11l2,145v48l-190,5 -49,2 -1,-243 55,-3Z"/>
    <path data-fips-int="18099" data-name="Marshall County" d="M1386,330v35l4,219 -15,2h-244v-218v-35Z"/>
    <path data-fips-int="18101" data-name="Martin County" d="M991,2476l-1,183v133h-101l-27,25 -29,-10 1,-253 13,-5v-73Z"/>
    <path data-fips-int="18103" data-name="Miami County" d="M1458,729l6,291 47,-2 1,72 -190,3 -3,-287v-75Z"/>
    <path data-fips-int="18105" data-name="Monroe County" d="M1186,2113l6,85 1,158h34v48l-236,-2v-144l-1,-142 35,-10v7Z"/>
    <path data-fips-int="18107" data-name="Montgomery County" d="M985,1384v30v213l-1,47h-200l-53,-2 1,-71v-218Z"/>
    <path data-fips-int="18109" data-name="Morgan County" d="M1270,1868l-1,243 -83,2h-161v-7l-1,-101h-34l-2,-43 23,-27 -2,-40 122,2v-25l90,-2Z"/>
    <path data-fips-int="18111" data-name="Newton County" d="M626,947l-164,-2 4,-357 54,-7 15,10 55,-17 34,-30 -3,257h5Z"/>
    <path data-fips-int="18113" data-name="Noble County" d="M1925,285l4,219h-73h-142v-23h-73l-2,-120 -1,-69Z"/>
    <path data-fips-int="18115" data-name="Ohio County" d="M2165,2471h-173l1,-22 2,-15 25,8 62,-50h29l48,-30 31,44 -28,43Z"/>
    <path data-fips-int="18117" data-name="Orange County" d="M1233,2657v221v23h-242l-1,-109v-133Z"/>
    <path data-fips-int="18119" data-name="Owen County" d="M990,2005h34l1,101 -35,10 1,142 -242,-2 3,-146 72,1 2,-110Z"/>
    <path data-fips-int="18121" data-name="Parke County" d="M732,1601l-1,71 53,2 -4,218 -120,-4 -118,-1 -7,-42 15,-111 -6,-37 19,-20 -18,-40 -32,-23 8,-15Z"/>
    <path data-fips-int="18123" data-name="Perry County" d="M1134,3129l20,34 -11,21 -52,20 4,65 8,22 -50,3 -15,55 -31,13 2,-58 -53,15 -53,-88h27l-10,-37 12,-41 -24,-42 10,-53 -1,-35h75l-1,-12 71,-3v50h73Z"/>
    <path data-fips-int="18125" data-name="Pike County" d="M735,2800l-3,234h-146l-12,-11 2,-112 -58,2 -2,-50h-23l-12,-25v-55l61,-8 53,27 30,-29h41l29,24 16,-17Z"/>
    <path data-fips-int="18127" data-name="Porter County" d="M840,531l-24,15 -58,-43 -45,-13 -54,36 1,-318 88,-28 93,-43 1,231Z"/>
    <path data-fips-int="18129" data-name="Posey County" d="M330,3084l-6,37 -6,188 -56,17h-32l-30,-42h-15l-26,42 23,31v27l-25,25 -63,-30 -19,8 -6,-27 35,-3 -25,-12 -22,-38h56l-34,-18 23,-13 13,-35 -15,-64 45,-11 6,-28 -35,13 68,-65 -31,-17 -17,-41 122,5 4,23 68,2Z"/>
    <path data-fips-int="18131" data-name="Pulaski County" d="M1131,586l-1,220 -71,-2 -221,-2 2,-216Z"/>
    <path data-fips-int="18133" data-name="Putnam County" d="M984,1674h6v198h28l-9,23 2,40 -23,27 2,43 -164,-4h-48l2,-109 4,-218Z"/>
    <path data-fips-int="18135" data-name="Randolph County" d="M2186,1295l2,254 -250,5 -9,-60 -5,-191Z"/>
    <path data-fips-int="18137" data-name="Ripley County" d="M2034,2135l-39,299 -2,15 -43,2v13l-157,2 1,-237 91,-61 49,-33Z"/>
    <path data-fips-int="18139" data-name="Rush County" d="M1882,1955l1,60 -214,1 -4,-204 -1,-75h24l188,-2Z"/>
    <path data-fips-int="18141" data-name="Saint Joseph County" d="M1386,330l-255,3v35h-36v-71h15l8,-42v-67h-25l3,-93h287Z"/>
    <path data-fips-int="18143" data-name="Scott County" d="M1639,2549v65l50,23v25h24l1,60 -133,1 -47,37 -25,-10 -3,-133 22,3 39,-65 41,-15Z"/>
    <path data-fips-int="18145" data-name="Shelby County" d="M1665,1812l4,204v87h-34l-172,3 -3,-243v-48Z"/>
    <path data-fips-int="18147" data-name="Spencer County" d="M918,3058l-10,53 24,42 -12,41 10,37h-27l-34,13 -28,33 -45,9 -47,33 -18,78 -37,8 -25,-48 -35,-3 -31,-25 1,-40 24,-32 50,-43 1,-32 38,-1 15,-50h37l1,-73Z"/>
    <path data-fips-int="18149" data-name="Starke County" d="M1131,368v218h-291v-55l38,-25 57,-18 26,-30 24,-65 36,-25h74Z"/>
    <path data-fips-int="18151" data-name="Steuben County" d="M2169,278l-244,7 -4,-195 243,-3Z"/>
    <path data-fips-int="18153" data-name="Sullivan County" d="M631,2178l-1,73 -1,220 -25,5 -158,-2 7,-38 -39,-32 1,-58 -28,-42h-22l9,-53 41,-37 -18,-38Z"/>
    <path data-fips-int="18155" data-name="Switzerland County" d="M2165,2471l51,10 5,13 -28,41v34l-36,-10 -32,15 -39,-2 -64,43 -28,27 -41,7 -3,-185v-13l43,-2 -1,22Z"/>
    <path data-fips-int="18157" data-name="Tippecanoe County" d="M938,1095h47v108v181l-253,-1 2,-127v-91l-2,-72Z"/>
    <path data-fips-int="18159" data-name="Tipton County" d="M1514,1223v23l2,133 -243,4v-132l3,-25Z"/>
    <path data-fips-int="18161" data-name="Union County" d="M2189,1782l3,170h-141l-3,-158v-12Z"/>
    <path data-fips-int="18163" data-name="Vanderburgh County" d="M474,3089l-4,108h15l-2,79 -36,28 -27,-13 -32,-45 -22,40 24,33 -15,46 -37,4 5,-43 -25,-17 6,-188 6,-37Z"/>
    <path data-fips-int="18165" data-name="Vermillion County" d="M532,1454l-7,55 -12,27 8,63 -8,15 32,23 18,40 -19,20 6,37 -15,111 7,42h-95v-115l6,-336 26,17Z"/>
    <path data-fips-int="18167" data-name="Vigo County" d="M660,1888l-1,74 -25,-2 -3,218 -234,-2 -8,-35 26,-33 30,-5 2,-216h95Z"/>
    <path data-fips-int="18169" data-name="Wabash County" d="M1623,689l1,37h25l5,291 -143,1 -47,2 -6,-291v-37Z"/>
    <path data-fips-int="18171" data-name="Warren County" d="M734,1165v91l-29,24 -71,25 -30,41 -42,40 -36,12 -13,31 19,25 -53,-1 -26,-17 6,-274Z"/>
    <path data-fips-int="18173" data-name="Warrick County" d="M732,3034v24h38l-1,73h-37l-15,50 -38,1 -1,32 -50,43 -24,32 -1,40 -70,-47 -50,-6 2,-79h-15l4,-108 1,-31h99v-35l12,11Z"/>
    <path data-fips-int="18175" data-name="Washington County" d="M1506,2617l3,133 25,10 -24,48 -47,4 -24,11v58h-25l-145,-3h-36v-221v-35l22,-28 56,-17 35,17 24,-17 53,22 47,-4Z"/>
    <path data-fips-int="18177" data-name="Wayne County" d="M2188,1549l1,233h-141v12l-96,1v-61h-24l-2,-70 14,-2 -2,-108Z"/>
    <path data-fips-int="18179" data-name="Wells County" d="M2008,792l8,291 -85,2 -154,2 -3,-72 73,-2 -4,-219Z"/>
    <path data-fips-int="18181" data-name="White County" d="M1059,804v146l-107,-1 -15,61 1,85 -206,-2v-146v-83h71v-62h35Z"/>
    <path data-fips-int="18183" data-name="Whitley County" d="M1856,504v72h-18l5,145 -194,5h-25l-1,-37 -3,-110h21v-98h73v23Z"/>
  </g>
  <path class="mesh" transform="scale(0.1)" d="M908,95l-52,32 -15,10 -93,43 -88,28 -60,2 -72,-25 8,-35 -27,15 -36,-28M2184,1077l-168,6 -8,-291 170,-6M2008,792l-165,2v-73l-5,-145h18v-72h73l244,-9M462,945l164,2h106v146l2,72 -275,-3M1189,1203h42v37l42,11v132v30l2,211 -55,3h-235v-213l204,2 84,-3M1380,2354l-153,2h-34l-1,-158 -6,-85 83,-2 107,-1M1059,950h36l-2,37 97,-2v110l-1,108h-204v-108h-47l-1,-85 15,-61 107,1v-146l71,2h189l3,287 -132,2M1572,2988l-2,-40 21,-12 -31,-45 -103,2 -18,-12v-58l24,-11 47,-4 24,-48 47,-37 133,-1h49l11,16h33M784,1674l-4,218 -2,109h48l-2,110 -72,-1 -3,146 -119,-5 1,-73 3,-218 25,2 1,-74 120,4M985,1414v-30v-181M1134,3129l1,-71h-73v-50l-71,3v-110h242v-23h36l-12,85 -2,78 -35,38M2159,2362l-48,30h-29l-62,50 -25,-8 39,-299 158,-2M1635,2103v183l-75,2 2,51 -48,23 -134,4v-12l-4,-244 87,-4 172,-3h34v-87l214,-1 2,153 -91,61 -83,55 -76,2M1929,504l-4,-219 244,-7M1922,1241l2,62 5,191h-230l-5,-249 86,-2M833,2807l-13,13 -35,-18 -44,10 -6,-12 -24,-20 -16,17 -29,-24h-41l-8,-75 13,-1 -28,-48 34,-90 50,-32 34,-51h127v73l-13,5 -1,253 29,10 27,-25h101l1,109M991,3011l1,12h-75l1,35h-148h-38v-24l3,-234M1632,95l6,197 1,69 -92,4h-161v-35l-3,-235M1502,3081l-38,-8 1,-62 -51,-56v-74h25M2051,1952h141M2034,2135h-100l-49,33M1883,2015l-1,-60M1130,806l1,-220h244l1,73 37,-1v34h45v37l-139,2v75M297,2878l95,-28 17,-33 51,-4 21,-30v55l12,25h23l2,50 58,-2 -2,112v35h-99l-1,31 -144,-5v-26l-68,-2 -4,-23 -122,-5M1694,1245l-180,1v-23l-2,-133 -1,-72 143,-1 120,-2 3,72M749,2256l242,2v144v74h-144M720,2476l-91,-5 1,-220M1273,1383l243,-4 1,230v10l-48,3 -194,2M1517,1609l183,-5v63h-13l1,70h-24l1,75 -205,3 -2,-145h11v-48M1269,2878l145,3M1220,1627l1,243 -90,2v25l-122,-2 9,-23h-28v-198h-6l1,-47M1929,1494l9,60 2,108 -14,2 2,70M1876,1735l-188,2M1700,1604l-1,-110M1514,1223l-238,3 -3,25M1322,1093l190,-3M1843,794l4,219 -73,2M1654,1017l-5,-291 194,-5M1562,2339l5,216 -39,65 -22,-3 -36,-22 -47,4 -53,-22 -24,17 -35,-17 -56,17 -5,-190h-23v-48M626,947v-146h-5l3,-257 35,-18 54,-36 45,13 58,43 24,-15v55l-2,216h-35v62h-71v83M2186,1295l-262,8M1931,1085l-1,156h-8l-142,2 -3,-156 154,-2 85,-2M1714,2722l-1,-60h-24v-25l-50,-23v-65l47,-10v-24h24v-23h23l-1,-25 61,-1 157,-2 3,185M1639,2549l-31,-9 -41,15M1794,2229l-1,237M1269,2111l1,-243 190,-5 3,243M625,2773l-30,29 -53,-27 -61,8M446,2474l158,2 25,-5M1639,361l2,120v98h-21l3,110 -165,3M1375,586l15,-2 -4,-219M1921,90l4,195 -287,7M660,208l-1,318M624,544l-34,30 -55,17 -15,-10 -54,7M1096,95l-3,93h25v67l-8,42h-15v71h-74l-36,25 -24,65 -26,30 -57,18 -38,25 2,-163 -1,-231M1255,2594l-22,28v35l-243,2 1,-183M991,2402l236,2M1516,1379l-2,-133M1460,1815v48M1270,1868l-49,2M840,586h291v-218v-35l255,-3M990,2659v133M1458,729l6,291 47,-2M991,2258l-1,-142 35,-10v7h161M984,1674h-200l-53,-2 1,-71M732,1383l253,1M1025,2106l-1,-101h-34l-2,-43 23,-27 -2,-40M1856,504h-142v-23h-73M2165,2471h-173l1,-22 2,-15M1233,2657v221M826,2001l164,4M660,1888l-118,-1 -7,-42 15,-111 -6,-37 19,-20 -18,-40 -32,-23 8,-15M903,3231h27l-10,-37 12,-41 -24,-42 10,-53M732,3034h-146l-12,-11M330,3084l-6,37 -6,188M1059,804l-221,-2M2188,1549l-250,5M1993,2449l-43,2v13M1669,2016l-4,-204M1131,368h-36M1534,2760l-25,-10 -3,-133M603,3329l1,-40 24,-32 50,-43 1,-32 38,-1 15,-50h37l1,-73M397,2176l234,2M734,1256l-2,127v218l-211,-2 -8,-63 12,-27 7,-55 -19,-25 13,-31 36,-12 42,-40 30,-41 71,-25 29,-24v-91M732,1093l206,2M2048,1794l3,158 -169,3 -6,-220 52,-1h24v61l96,-1v-12h141M474,3089l-4,108h15l-2,79M542,1887h-95M453,1436l26,17 53,1M1623,689l1,37h25"/>
  <g class="cities">
    <circle r="3" cx="132.9" cy="175.6"/>
    <text x="132.9" y="175.6">Indianapolis</text>
    <circle r="3" cx="197.1" cy="61.5"/>
    <text x="197.1" y="61.5">Fort Wayne</text>
    <circle r="3" cx="41.5" cy="324.8"/>
    <text x="41.5" y="324.8">Evansville</text>
  </g>
</svg>