<?xml version="1.0" encoding="utf-8"?>
<!DOCTYPE svg PUBLIC "-//W3C//DTD SVG 1.1//EN" "http://www.w3.org/Graphics/SVG/1.1/DTD/svg11.dtd">
<svg version="1.1" xmlns="http://www.w3.org/2000/svg" width="228" height="350" viewBox="0 0 228 350">
  <path class="state" transform="scale(0.1)" d="M2177,786l7,291 2,218 1,254 2,233 3,170v181l3,161 -50,47 14,21 30,44 -29,46 5,19 43,5 11,24 -27,35 12,32 -51,-7 -29,14 -39,-2 -108,78 -25,-1 -29,-35 -39,-9 -28,12 -44,-5 -21,23 15,103 2,49 -29,18 -15,31 -54,14 -28,25 -21,83 -18,22 -42,26 -29,-18 -22,7 -14,43 -35,43 -4,77 -24,64 -45,9 -17,31 -49,-46 -36,6 -64,-38 -3,-65 -39,-40 -28,-11 -2,21 32,12 -2,20h-30l-20,22 -36,-14 20,34 -19,28 -43,13 3,65 8,22 -50,3 -8,45 -25,21 -20,-15 10,-41 -43,15 -20,-10 -44,-78 -24,6 -38,40 -45,9 -41,23 -24,88 -37,8 -25,-48 -35,-3 -31,-25 -92,-57 -28,4 -40,28 -33,-22 -22,-36 -22,40 24,33 -15,46 -43,-1 10,-38 -24,-17 -56,17h-32l-31,-42h-14l-25,42 21,31v27l-28,28 -59,-33 -19,8 -7,-27 36,-3 -24,-12 -23,-46 56,10 -14,-53 15,-15 -13,-64 44,-11 -3,-37 42,-43 -31,-17 -17,-41 29,-20 6,-33 15,24 22,-34 16,30 33,-77 40,-40v-51l65,-27 -16,-27 38,-38 -9,-17 19,-46 36,-10 30,-57 2,-33 -34,-62 18,-36 7,-38 -43,-35 6,-55 -29,-42h-22l9,-53 41,-37 -18,-38 -8,-35 18,-28 38,-10 2,-216 1,-221 5,-230 6,-274 3,-217 4,-357 6,-355v-96l37,28 27,-15 -8,35 85,27 47,-4 87,-28 94,-43 67,-42h188h287h249l288,-5 243,-3 6,191 3,217Z"/>
  <g class="counties" transform="scale(0.1)">
    <path data-fips-int="18001" data-name="Adams County" d="M2177,786l7,291 -168,6 -9,-291Z"/>
    <path data-fips-int="18003" data-name="Allen County" d="M2177,786l-170,6 -165,2v-73l-4,-145h19v-72h71l244,-9Z"/>
    <path data-fips-int="18005" data-name="Bartholomew County" d="M1635,2103v183l-75,2 2,51 -41,22 -142,5v-12l-3,-244 86,-4Z"/>
    <path data-fips-int="18007" data-name="Benton County" d="M626,947h106l1,146 1,72 -275,-3 3,-217Z"/>
    <path data-fips-int="18009" data-name="Blackford County" d="M1931,1085l-2,156h-7l-143,2 -3,-156Z"/>
    <path data-fips-int="18011" data-name="Boone County" d="M1273,1413l2,211 -55,3h-235v-213l204,2Z"/>
    <path data-fips-int="18013" data-name="Brown County" d="M1379,2354l-152,2h-34l-1,-158 -6,-85 83,-2 107,-1Z"/>
    <path data-fips-int="18015" data-name="Carroll County" d="M1059,950h36l-2,37 97,-2v110l-1,108h-203v-108h-48l-1,-85 15,-61Z"/>
    <path data-fips-int="18017" data-name="Cass County" d="M1130,806h189l3,287 -132,2v-110l-97,2 2,-37h-36v-146Z"/>
    <path data-fips-int="18019" data-name="Clark County" d="M1806,2738l2,49 -29,18 -15,31 -54,14 -28,25 -21,83 -18,22 -42,26 -29,-18 -3,-40 21,-12 -30,-45 -103,2 -19,-12v-58l24,-11 47,-4 24,-48 48,-37 134,-1h46l12,16Z"/>
    <path data-fips-int="18021" data-name="Clay County" d="M780,1892l-2,109h47l-1,110 -72,-1 -2,146 -120,-5 1,-73 3,-218 25,2 1,-74Z"/>
    <path data-fips-int="18023" data-name="Clinton County" d="M1189,1203h42v37l42,11v132v30l-84,3 -204,-2v-30l1,-181Z"/>
    <path data-fips-int="18025" data-name="Crawford County" d="M1269,2878l5,62 -16,-10 -3,111 -35,38 -28,-11 -2,21 32,12 -2,20h-30l-20,22 -36,-14 1,-71h-73l1,-50 -72,3v-110h242v-23Z"/>
    <path data-fips-int="18027" data-name="Daviess County" d="M833,2807l-13,13 -34,-18 -45,10 -6,-12 -24,-20 -28,18 -16,-25h-42l-8,-75 13,-1 -28,-48 19,-25 -5,-37 20,-28 53,-32 32,-51h126v73l-13,5Z"/>
    <path data-fips-int="18029" data-name="Dearborn County" d="M2033,2135l159,-2 3,161 -50,47 14,21 -45,29 -33,1 -63,52 -24,-10Z"/>
    <path data-fips-int="18031" data-name="Decatur County" d="M1883,2015l1,153 -90,61 -84,55 -75,2v-183h33v-87Z"/>
    <path data-fips-int="18033" data-name="DeKalb County" d="M2172,495l-244,9 -3,-219 244,-7Z"/>
    <path data-fips-int="18035" data-name="Delaware County" d="M1779,1243l143,-2 1,62 5,191h-230l-4,-249Z"/>
    <path data-fips-int="18037" data-name="Dubois County" d="M990,2792l1,109v110v12h-74l1,35h-148h-37v-24l2,-234 6,12 45,-10 34,18 13,-13 29,10 27,-25Z"/>
    <path data-fips-int="18039" data-name="Elkhart County" d="M1632,95l6,197v69l-91,4h-161v-35l-3,-235Z"/>
    <path data-fips-int="18041" data-name="Fayette County" d="M2048,1794l3,158 -170,3 -6,-220 53,-1h24v61Z"/>
    <path data-fips-int="18043" data-name="Floyd County" d="M1438,2881l19,12 103,-2 30,45 -21,12 3,40 -22,7 -14,43 -35,43 -37,-8v-62l-51,-56v-74Z"/>
    <path data-fips-int="18045" data-name="Fountain County" d="M734,1256l-1,127 -1,218 -210,-2 -7,-82 17,-63 -20,-35 14,-21 36,-12 54,-61Z"/>
    <path data-fips-int="18047" data-name="Franklin County" d="M2051,1952h141v181l-159,2h-99l-50,33 -1,-153 -2,-60Z"/>
    <path data-fips-int="18049" data-name="Fulton County" d="M1374,586l2,73 37,-1v34h44v37l-138,2v75h-189l1,-220Z"/>
    <path data-fips-int="18051" data-name="Gibson County" d="M574,3023v35h-99l-1,31 -144,-5v-26l-72,-4v-21l-122,-5 29,-20 6,-33 15,24 22,-34 16,30 33,-77 40,-40 95,-28 17,-33 51,-4 20,-30v55l13,25h23l-1,52 61,-4Z"/>
    <path data-fips-int="18053" data-name="Grant County" d="M1773,1015l3,72 3,156 -85,2 -179,1v-23l-4,-133v-72l142,-1Z"/>
    <path data-fips-int="18055" data-name="Greene County" d="M750,2256l241,2v144v74h-144h-126l-92,-5 1,-220Z"/>
    <path data-fips-int="18057" data-name="Hamilton County" d="M1515,1379l1,230v10l-47,3 -194,2 -2,-211v-30Z"/>
    <path data-fips-int="18059" data-name="Hancock County" d="M1700,1604v63h-14l2,70h-24l1,75 -205,3 -3,-145h12v-48l47,-3v-10Z"/>
    <path data-fips-int="18061" data-name="Harrison County" d="M1413,2881v74l51,56v62l37,8 -4,77 -24,64 -45,9 -17,31 -49,-46 -36,6 -64,-38 -3,-65 -39,-40 35,-38 3,-111 16,10 -5,-62Z"/>
    <path data-fips-int="18063" data-name="Hendricks County" d="M1220,1627l1,243 -90,2v25l-122,-2 9,-23h-28v-198h-6l1,-47Z"/>
    <path data-fips-int="18065" data-name="Henry County" d="M1928,1494l10,60 2,108 -14,2 2,70 -53,1 -187,2 -2,-70h14v-63l-2,-110Z"/>
    <path data-fips-int="18067" data-name="Howard County" d="M1515,1223l-239,3 -3,25 -42,-11v-37h-42l1,-108 132,-2 189,-3Z"/>
    <path data-fips-int="18069" data-name="Huntington County" d="M1842,721v73l5,219 -74,2 -120,2 -4,-291Z"/>
    <path data-fips-int="18071" data-name="Jackson County" d="M1562,2339l4,216 -39,65 -21,-3 -5,-13 -58,-15 -21,10 -54,-22 -23,17 -28,-17 -62,17 -5,-190h-23v-48l152,-2v12l142,-5Z"/>
    <path data-fips-int="18073" data-name="Jasper County" d="M840,531v55l-1,216h-36v62h-71v83h-106v-146h-5l3,-257 35,-18 54,-36 44,13 58,43Z"/>
    <path data-fips-int="18075" data-name="Jay County" d="M2184,1077l2,218 -263,8 -1,-62h7l2,-156 85,-2Z"/>
    <path data-fips-int="18077" data-name="Jefferson County" d="M1950,2464l2,185 -29,-35 -39,-9 -28,12 -44,-5 -21,23 15,103h-33l-12,-16h-46l-2,-60h-24v-25l-51,-23v-65l48,-10v-24h24v-23h23l-2,-25 62,-1Z"/>
    <path data-fips-int="18079" data-name="Jennings County" d="M1793,2466l-62,1 2,25h-23v23h-24v24l-48,10 -18,-12 -54,18 -4,-216 -2,-51 75,-2 75,-2 84,-55Z"/>
    <path data-fips-int="18081" data-name="Johnson County" d="M1460,1863l2,243 -86,4 -107,1 1,-243Z"/>
    <path data-fips-int="18083" data-name="Knox County" d="M721,2476l-32,51 -53,32 -20,28 5,37 -19,25 28,48 -13,1 8,75 -30,29 -53,-27 -62,8 -20,30 -51,4 -17,33 -95,28v-51l65,-27 -16,-27 38,-38 -9,-17 19,-46 36,-10 30,-57 2,-33 -34,-62 18,-36 158,2 25,-5Z"/>
    <path data-fips-int="18085" data-name="Kosciusko County" d="M1638,361l2,120v98h-20l3,110 -166,3h-44v-34l-37,1 -2,-73 15,-2 -3,-219h161Z"/>
    <path data-fips-int="18087" data-name="LaGrange County" d="M1925,285l-287,7 -6,-197 288,-5Z"/>
    <path data-fips-int="18089" data-name="Lake County" d="M660,208l-1,318 -35,18 -34,30 -40,17 -31,-10 -53,7 6,-355v-96l37,28 27,-15 -8,35 85,27Z"/>
    <path data-fips-int="18091" data-name="LaPorte County" d="M1096,95l-3,93h24v67l-7,42h-15v71h-75l-34,25 -25,65 -29,33 -54,15 -38,25 2,-163 -1,-231 67,-42Z"/>
    <path data-fips-int="18093" data-name="Lawrence County" d="M1227,2404h23l5,190 -22,28v35l-243,2 1,-183v-74Z"/>
    <path data-fips-int="18095" data-name="Madison County" d="M1694,1245l4,249 2,110 -184,5 -1,-230v-133Z"/>
    <path data-fips-int="18097" data-name="Marion County" d="M1469,1622v48h-12l3,145v48l-190,5 -49,2 -1,-243 55,-3Z"/>
    <path data-fips-int="18099" data-name="Marshall County" d="M1386,330v35l3,219 -15,2h-243v-218v-35Z"/>
    <path data-fips-int="18101" data-name="Martin County" d="M991,2476l-1,183v133h-101l-27,25 -29,-10 1,-253 13,-5v-73Z"/>
    <path data-fips-int="18103" data-name="Miami County" d="M1457,729l7,291 47,-2v72l-189,3 -3,-287v-75Z"/>
    <path data-fips-int="18105" data-name="Monroe County" d="M1186,2113l6,85 1,158h34v48l-236,-2v-144l-1,-142 35,-10v7Z"/>
    <path data-fips-int="18107" data-name="Montgomery County" d="M985,1384v30v213l-1,47h-200l-53,-2 1,-71 1,-218Z"/>
    <path data-fips-int="18109" data-name="Morgan County" d="M1270,1868l-1,243 -83,2h-161v-7l-1,-101h-34l-2,-43 22,-27 -1,-40 122,2v-25l90,-2Z"/>
    <path data-fips-int="18111" data-name="Newton County" d="M626,947l-164,-2 4,-357 53,-7 31,10 40,-17 34,-30 -3,257h5Z"/>
    <path data-fips-int="18113" data-name="Noble County" d="M1925,285l3,219h-71h-144v-23h-73l-2,-120v-69Z"/>
    <path data-fips-int="18115" data-name="Ohio County" d="M2165,2471h-174l1,-22 2,-15 24,10 63,-52 33,-1 45,-29 30,44 -29,46Z"/>
    <path data-fips-int="18117" data-name="Orange County" d="M1233,2657v221v23h-242l-1,-109v-133Z"/>
    <path data-fips-int="18119" data-name="Owen County" d="M990,2005h34l1,101 -35,10 1,142 -241,-2 2,-146 72,1 1,-110Z"/>
    <path data-fips-int="18121" data-name="Parke County" d="M732,1601l-1,71 53,2 -4,218 -120,-4 -118,-1 -7,-42 15,-111 -6,-37 19,-20 -15,-36 -35,-27 9,-15Z"/>
    <path data-fips-int="18123" data-name="Perry County" d="M1134,3129l20,34 -19,28 -43,13 3,65 8,22 -50,3 -8,45 -25,21 -20,-15 10,-41 -43,15 -20,-10 -44,-78h27l-10,-35 12,-43 -24,-42 10,-53 -1,-35h74v-12l72,-3 -1,50h73Z"/>
    <path data-fips-int="18125" data-name="Pike County" d="M735,2800l-2,234h-147l-12,-11 2,-112 -61,4 1,-52h-23l-13,-25v-55l62,-8 53,27 30,-29h42l16,25 28,-18Z"/>
    <path data-fips-int="18127" data-name="Porter County" d="M840,531l-25,15 -58,-43 -44,-13 -54,36 1,-318 87,-28 94,-43 1,231Z"/>
    <path data-fips-int="18129" data-name="Posey County" d="M330,3084l-7,37 -5,188 -56,17h-32l-31,-42h-14l-25,42 21,31v27l-28,28 -59,-33 -19,8 -7,-27 36,-3 -24,-12 -23,-46 56,10 -14,-53 15,-15 -13,-64 44,-11 -3,-37 42,-43 -31,-17 -17,-41 122,5v21l72,4Z"/>
    <path data-fips-int="18131" data-name="Pulaski County" d="M1131,586l-1,220 -71,-2 -220,-2 1,-216Z"/>
    <path data-fips-int="18133" data-name="Putnam County" d="M984,1674h6v198h28l-9,23 1,40 -22,27 2,43 -165,-4h-47l2,-109 4,-218Z"/>
    <path data-fips-int="18135" data-name="Randolph County" d="M2186,1295l1,254 -249,5 -10,-60 -5,-191Z"/>
    <path data-fips-int="18137" data-name="Ripley County" d="M2033,2135l-39,299 -2,15 -42,2v13l-157,2 1,-237 90,-61 50,-33Z"/>
    <path data-fips-int="18139" data-name="Rush County" d="M1881,1955l2,60 -215,1 -3,-204 -1,-75h24l187,-2Z"/>
    <path data-fips-int="18141" data-name="Saint Joseph County" d="M1386,330l-255,3v35h-36v-71h15l7,-42v-67h-24l3,-93h287Z"/>
    <path data-fips-int="18143" data-name="Scott County" d="M1638,2549v65l51,23v25h24l2,60 -134,1 -48,37 -24,-10 -3,-133 21,3 39,-65 54,-18Z"/>
    <path data-fips-int="18145" data-name="Shelby County" d="M1665,1812l3,204v87h-33l-173,3 -2,-243v-48Z"/>
    <path data-fips-int="18147" data-name="Spencer County" d="M918,3058l-10,53 24,42 -12,43 10,35h-27l-24,6 -38,40 -45,9 -41,23 -24,88 -37,8 -25,-48 -35,-3 -31,-25 1,-40 24,-32 49,-43 6,-35 39,8 11,-56h36l1,-73Z"/>
    <path data-fips-int="18149" data-name="Starke County" d="M1131,368v218h-291v-55l38,-25 54,-15 29,-33 25,-65 34,-25h75Z"/>
    <path data-fips-int="18151" data-name="Steuben County" d="M2169,278l-244,7 -5,-195 243,-3Z"/>
    <path data-fips-int="18153" data-name="Sullivan County" d="M631,2178l-1,73 -1,220 -25,5 -158,-2 7,-38 -43,-35 6,-55 -29,-42h-22l9,-53 41,-37 -18,-38Z"/>
    <path data-fips-int="18155" data-name="Switzerland County" d="M2165,2471l43,5 11,24 -27,35 12,32 -51,-7 -29,14 -39,-2 -108,78 -25,-1 -2,-185v-13l42,-2 -1,22Z"/>
    <path data-fips-int="18157" data-name="Tippecanoe County" d="M938,1095h48v108l-1,181 -252,-1 1,-127v-91l-1,-72Z"/>
    <path data-fips-int="18159" data-name="Tipton County" d="M1515,1223v23v133l-242,4v-132l3,-25Z"/>
    <path data-fips-int="18161" data-name="Union County" d="M2189,1782l3,170h-141l-3,-158v-12Z"/>
    <path data-fips-int="18163" data-name="Vanderburgh County" d="M474,3089l-4,108h15l-2,79 -40,28 -33,-22 -22,-36 -22,40 24,33 -15,46 -43,-1 10,-38 -24,-17 5,-188 7,-37Z"/>
    <path data-fips-int="18165" data-name="Vermillion County" d="M532,1454l-17,63 7,82 -9,15 35,27 15,36 -19,20 6,37 -15,111 7,42h-95l1,-221 5,-230 26,17Z"/>
    <path data-fips-int="18167" data-name="Vigo County" d="M660,1888l-1,74 -25,-2 -3,218 -234,-2 -8,-35 18,-28 38,-10 2,-216h95Z"/>
    <path data-fips-int="18169" data-name="Wabash County" d="M1623,689v37h26l4,291 -142,1 -47,2 -7,-291v-37Z"/>
    <path data-fips-int="18171" data-name="Warren County" d="M734,1165v91l-118,69 -54,61 -36,12 -14,21 20,35 -53,-1 -26,-17 6,-274Z"/>
    <path data-fips-int="18173" data-name="Warrick County" d="M733,3034v24h37l-1,73h-36l-11,56 -39,-8 -6,35 -49,43 -24,32 -1,40 -92,-57 -28,4 2,-79h-15l4,-108 1,-31h99v-35l12,11Z"/>
    <path data-fips-int="18175" data-name="Washington County" d="M1506,2617l3,133 24,10 -24,48 -47,4 -24,11v58h-25l-144,-3h-36v-221v-35l22,-28 62,-17 28,17 23,-17 54,22 21,-10 58,15Z"/>
    <path data-fips-int="18177" data-name="Wayne County" d="M2187,1549l2,233h-141v12l-96,1v-61h-24l-2,-70 14,-2 -2,-108Z"/>
    <path data-fips-int="18179" data-name="Wells County" d="M2007,792l9,291 -85,2 -155,2 -3,-72 74,-2 -5,-219Z"/>
    <path data-fips-int="18181" data-name="White County" d="M1059,804v146l-107,-1 -15,61 1,85 -205,-2 -1,-146v-83h71v-62h36Z"/>
    <path data-fips-int="18183" data-name="Whitley County" d="M1857,504v72h-19l4,145 -193,5h-26v-37l-3,-110h20v-98h73v23Z"/>
  </g>
  <path class="mesh" transform="scale(0.1)" d="M2184,1077l-168,6 -9,-291 170,-6M2007,792l-165,2v-73l-4,-145h19v-72h71l244,-9M462,945l164,2h106l1,146 1,72 -275,-3M1189,1203h42v37l42,11v132v30l2,211 -55,3h-235v-213l204,2 84,-3M1379,2354l-152,2h-34l-1,-158 -6,-85 83,-2 107,-1M1059,950h36l-2,37 97,-2v110l-1,108h-203v-108h-48l-1,-85 15,-61 107,1v-146l71,2h189l3,287 -132,2M1572,2988l-3,-40 21,-12 -30,-45 -103,2 -19,-12v-58l24,-11 47,-4 24,-48 48,-37 134,-1h46l12,16h33M784,1674l-4,218 -2,109h47l-1,110 -72,-1 -2,146 -120,-5 1,-73 3,-218 25,2 1,-74 120,4M985,1414v-30l1,-181M1134,3129l1,-71h-73l1,-50 -72,3v-110h242v-23h36l5,62 -16,-10 -3,111 -35,38M2159,2362l-45,29 -33,1 -63,52 -24,-10 39,-299 159,-2M1635,2103v183l-75,2 2,51 -41,22 -142,5v-12l-3,-244 86,-4 173,-3h33v-87l215,-1 1,153 -90,61 -84,55 -75,2M1928,504l-3,-219 244,-7M1922,1241l1,62 5,191h-230l-4,-249 85,-2M833,2807l-13,13 -34,-18 -45,10 -6,-12 -24,-20 -28,18 -16,-25h-42l-8,-75 13,-1 -28,-48 19,-25 -5,-37 20,-28 53,-32 32,-51h126v73l-13,5 -1,253 29,10 27,-25h101l1,109M991,3011v12h-74l1,35h-148h-37v-24l2,-234M1632,95l6,197v69l-91,4h-161v-35l-3,-235M1501,3081l-37,-8v-62l-51,-56v-74h25M2051,1952h141M2033,2135h-99l-50,33M1883,2015l-2,-60M1130,806l1,-220h243l2,73 37,-1v34h44v37l-138,2v75M297,2878l95,-28 17,-33 51,-4 20,-30v55l13,25h23l-1,52 61,-4 -2,112v35h-99l-1,31 -144,-5v-26l-72,-4v-21l-122,-5M1694,1245l-179,1v-23l-4,-133v-72l142,-1 120,-2 3,72M750,2256l241,2v144v74h-144M721,2476l-92,-5 1,-220M1273,1383l242,-4 1,230v10l-47,3 -194,2M1516,1609l184,-5v63h-14l2,70h-24l1,75 -205,3 -3,-145h12v-48M1269,2878l144,3M1220,1627l1,243 -90,2v25l-122,-2 9,-23h-28v-198h-6l1,-47M1928,1494l10,60 2,108 -14,2 2,70M1875,1735l-187,2M1700,1604l-2,-110M1515,1223l-239,3 -3,25M1322,1093l189,-3M1842,794l5,219 -74,2M1653,1017l-4,-291 193,-5M1562,2339l4,216 -39,65 -21,-3 -5,-13 -58,-15 -21,10 -54,-22 -23,17 -28,-17 -62,17 -5,-190h-23v-48M626,947v-146h-5l3,-257 35,-18 54,-36 44,13 58,43 25,-15v55l-1,216h-36v62h-71v83M2186,1295l-263,8M1931,1085l-2,156h-7l-143,2 -3,-156 155,-2 85,-2M1715,2722l-2,-60h-24v-25l-51,-23v-65l48,-10v-24h24v-23h23l-2,-25 62,-1 157,-2 2,185M1638,2549l-18,-12 -54,18M1794,2229l-1,237M1269,2111l1,-243 190,-5 2,243M625,2773l-30,29 -53,-27 -62,8M446,2474l158,2 25,-5M1638,361l2,120v98h-20l3,110 -166,3M1374,586l15,-2 -3,-219M1920,90l5,195 -287,7M660,208l-1,318M624,544l-34,30 -40,17 -31,-10 -53,7M1096,95l-3,93h24v67l-7,42h-15v71h-75l-34,25 -25,65 -29,33 -54,15 -38,25 2,-163 -1,-231M1255,2594l-22,28v35l-243,2 1,-183M991,2402l236,2M1515,1379v-133M1460,1815v48M1270,1868l-49,2M840,586h291v-218v-35l255,-3M990,2659v133M1457,729l7,291 47,-2M991,2258l-1,-142 35,-10v7h161M984,1674h-200l-53,-2 1,-71M733,1383l252,1M1025,2106l-1,-101h-34l-2,-43 22,-27 -1,-40M1857,504h-144v-23h-73M2165,2471h-174l1,-22 2,-15M1233,2657v221M825,2001l165,4M660,1888l-118,-1 -7,-42 15,-111 -6,-37 19,-20 -15,-36 -35,-27 9,-15M903,3231h27l-10,-35 12,-43 -24,-42 10,-53M733,3034h-147l-12,-11M330,3084l-7,37 -5,188M1059,804l-220,-2M2187,1549l-249,5M1992,2449l-42,2v13M1668,2016l-3,-204M1131,368h-36M1533,2760l-24,-10 -3,-133M603,3329l1,-40 24,-32 49,-43 6,-35 39,8 11,-56h36l1,-73M397,2176l234,2M734,1256l-1,127 -1,218 -210,-2 -7,-82 17,-63 -20,-35 14,-21 36,-12 54,-61 118,-69v-91M733,1093l205,2M2048,1794l3,158 -170,3 -6,-220 53,-1h24v61l96,-1v-12h141M474,3089l-4,108h15l-2,79M542,1887h-95M453,1436l26,17 53,1M1623,689v37h26"/>
  <g class="cities">
    <circle r="3" cx="132.9" cy="175.7"/>
    <text x="132.9" y="175.7">Indianapolis</text>
    <circle r="3" cx="197.1" cy="61.5"/>
    <text x="197.1" y="61.5">Fort Wayne</text>
    <circle r="3" cx="41.5" cy="324.7"/>
    <text x="41.5" y="324.7">Evansville</text>
  </g>
</svg>