<?xml version="1.0" encoding="utf-8"?>
<!DOCTYPE svg PUBLIC "-//W3C//DTD SVG 1.1//EN" "http://www.w3.org/Graphics/SVG/1.1/DTD/svg11.dtd">
<svg version="1.1" xmlns="http://www.w3.org/2000/svg" width="1000" height="517" viewBox="0 0 1000 517">
  <path class="state" d="M802,499h-11l-5,1h-42l-2,1h-52l-2,1h-69l-3,1h-216l-15,-1h-60v-1h-44v-1h-52l-7,-1h-68v-1h-37l-5,-1h-33l-1,-1h-32v-1h-21v-43l1,-21v-13l3,-29v-48l2,-15v-37l3,-31 1,-18v-39l2,-14v-21l1,-3v-42l2,-31v-19l2,-18v-11l1,-26 4,-3h14l43,2h1l9,1h9l35,1h22l22,1h23l5,1h58l13,1h18l3,1h351l13,-1h28v-1h67l3,-1h36l9,-1h24l5,-1h13v1l5,4 8,8v2h4l4,2v2l1,1h2l3,2 3,-1h1l4,-3v-3h9l3,2v1l-1,1v1h-1v3l2,1 3,1h1l2,1v1l1,1v1l-1,1v1h-1v1h-5v1h-1v2h1l1,1v1h3v-1h1v-1h4v5l-1,1h-1v1h-1l-1,1h-2l-1,-1h-1v-1h-1l-1,-1h-1v-1v1h-1l-1,1v9h-1v1h-5v1h-1v1h-1v2h-1v1l-1,1v5h1v3h-1v1l-1,1h-3v-1h-1v1h-2v7h1l7,5v4h1v2l9,4v2l1,1 2,1v3l2,1h7v2l-3,2 -1,1v4l1,1v3l1,1 1,1 2,1v1h1l4,2v1h1v1h1v2l-1,2v2l3,1h3l1,1v2h1v1l2,1 2,1h9v1l1,1 4,-1h3l1,2v2l-1,1 -1,1v10h1v26h1v28l1,1v31l1,5v20l1,4v20h1v28l1,1v29h1v29h1v21l1,1v24h1v25l1,1v22l1,1v13h-13l-5,1h-14l-16,1h-24l-1,1h-27l-1,1h-33v1h-39Z"/>
  <g class="subcounties">
    <path data-geo-id="2001" data-name="Congressional District 1" d="M47,13h14l43,2h1l9,1h9l35,1h22l22,1h23l5,1h58l13,1h18l3,1h351l13,-1h28v-1h43v14l-23,1 -5,9 -9,5h-33v42h48l2,-1h42v-1h4v28l1,3v40h1l2,1v-1h1v-1h2v1h-2v1l1,1h1l4,1 2,1v12h1v35h1v54l1,4v30h-1v9h1v5h-49l-2,1v14h-44l-1,1h-55v-8h-1v-6h-36v1h-6l-2,-1v1h-24v53l1,5v12h-8v1h-89v-15h-1v-68l-1,-2h-54v2l-1,3v37h-10l-1,-1h-30v-28l-14,-2 -28,-1v59h1v70l-1,1h2v61h-20v-1h-44v-1h-52l-7,-1h-68v-1h-37l-5,-1h-33l-1,-1h-32v-1h-21v-43l1,-21v-13l3,-29v-48l2,-15v-37l3,-31 1,-18v-39l2,-14v-21l1,-3v-42l2,-31v-19l2,-18v-11l1,-26Z"/>
    <path data-geo-id="2004" data-name="Congressional District 4" d="M343,369v-58l28,1 14,2v28h30l1,1h10v-37l1,-3v-2h54l1,2v68h1v15h89v-1h8v-12l-1,-5v-53h24v-1l2,1h6v-1h36v6h1v8h55l1,-1h44v-14l2,-1h49v31l1,1v90l1,3h-1v9h1v36l1,4v13h-11l-5,1h-42l-2,1h-52l-2,1h-69l-3,1h-216l-15,-1h-40v-61h-2l1,-1v-70h-1Z"/>
    <path data-geo-id="2002" data-name="Congressional District 2" d="M687,57v-9h33l9,-5 5,-9 23,-1v-14h24l3,-1h36l9,-1h24l5,-1h13v1l5,4 8,8v2h4l4,2v2l1,1h2l3,2 3,-1h1l4,-3v-3h9l3,2v1l-1,1v1h-1v3l2,1 3,1h1l2,1v1l1,1v1l-1,1v1h-1v1h-5v1h-1v2h1l1,1v1h3v-1h1v-1h4v5l-1,1h-1v1h-1l-1,1h-2l-1,-1h-1v-1h-1l-1,-1h-1v-1v1h-1l-1,1v9h-1v1h-5v1h-1v1h-1v2h-1v1l-1,1v5h1v3h-1v1l-1,1h-3v-1h-1v1h-2v7h1l7,5v4h1v2l9,4v2l1,1 2,1v3l2,1h7v2l-3,2 -1,1v4l1,1v3l1,1 1,1 2,1v1h1l4,2v1h1v1h1v2l-1,2v2l3,1h3l1,1h-16v7l1,1v4h-1v23h-1v-2h-2l-1,2 -2,1 -7,-2 -1,1v1l-1,1h-3v-1v7h1v27h1v5h15l2,-1h1l9,5 4,16h13l5,9h7v4l1,5v20l1,4v20h1v28l1,1v29h1v29h1v21l1,1v24h1v25l1,1v22l1,1v13h-13l-5,1h-14l-16,1h-24l-1,1h-27l-1,1h-33v1h-39v-13l-1,-4v-36h-1v-9h1l-1,-3v-90l-1,-1v-36h-1v-9h1v-30l-1,-4v-54h-1v-35h-1v-12l-2,-1 -4,-1h-1l-1,-1v-1h2v-1h-2v1h-1v1l-2,-1h-1v-40l-1,-3v-28h-4v1h-42l-2,1h-48v-28Z"/>
    <path data-geo-id="2003" data-name="Congressional District 3" d="M907,181v-3v1h3l1,-1v-1l1,-1 7,2 2,-1 1,-2h2v2h1v-23h1v-4l-1,-1v-7h16v2h1v1l2,1 2,1h9v1l1,1 4,-1h3l1,2v2l-1,1 -1,1v10h1v26h1v28l1,1v27h-7l-5,-9h-13l-4,-16 -9,-5h-1l-2,1h-15v-5h-1v-27h-1v-3Z"/>
  </g>
  <path class="mesh" d="M757,19v14l-23,1 -5,9 -9,5h-33v42h48l2,-1h42v-1h4v28l1,3v40h1l2,1v-1h1v-1h2v1h-2v1l1,1h1l4,1 2,1v12h1v35h1v54l1,4v30h-1v9h1v5h-49l-2,1v14h-44l-1,1h-55v-8h-1v-6h-36v1h-6l-2,-1v1h-24v53l1,5v12h-8v1h-89v-15h-1v-68l-1,-2h-54v2l-1,3v37h-10l-1,-1h-30v-28l-14,-2 -28,-1v59h1v70l-1,1h2v61M799,312v31l1,1v90l1,3h-1v9h1v36l1,4v13M941,142h-16v7l1,1v4h-1v23h-1v-2h-2l-1,2 -2,1 -7,-2 -1,1v1l-1,1h-3v-1v7h1v27h1v5h15l2,-1h1l9,5 4,16h13l5,9h7"/>
  <g class="cities">
    <circle r="7" cx="626" cy="392"/>
    <text x="626" y="392">Wichita</text>
    <circle r="7" cx="956" cy="177"/>
    <text x="956" y="177">Overland Park</text>
    <circle r="7" cx="830" cy="171"/>
    <text x="830" y="171">Topeka</text>
  </g>
</svg>