<?xml version="1.0" encoding="utf-8"?>
<!DOCTYPE svg PUBLIC "-//W3C//DTD SVG 1.1//EN" "http://www.w3.org/Graphics/SVG/1.1/DTD/svg11.dtd">
<svg version="1.1" xmlns="http://www.w3.org/2000/svg" width="1000" height="517" viewBox="0 0 1000 517">
  <path class="state" d="M802,499l-72,2 -79,1 -84,1h-70h-84l-68,-1 -71,-2 -70,-1 -55,-1 -62,-1 -62,-2 1,-64 3,-56 2,-84 4,-51v-18l3,-70 2,-70 3,-69 78,3 83,2 69,1 67,2h69h68h71h70l68,-1 71,-1 55,-1 55,-2 17,10v5l21,6 11,-6v8l9,5 -8,5 10,2 -4,8 -9,-2v9l-10,9 -7,15 19,18 10,4 -2,14 17,16 8,5 15,1 -1,18 1,49 2,56 3,57v29l2,29 2,54 2,54 -59,2 -58,2Z"/>
  <g class="counties">
    <path data-fips-int="20001" data-name="Allen County" d="M910,329v50l-55,1v-49Z"/>
    <path data-fips-int="20003" data-name="Anderson County" d="M910,273v56l-55,2 -1,-2v-54Z"/>
    <path data-fips-int="20005" data-name="Atchison County" d="M904,75l-7,15 19,18 -27,1 -48,1 -1,-37 28,-1 29,-1Z"/>
    <path data-fips-int="20007" data-name="Barber County" d="M483,428v14h14v61h-84l-1,-62v-14Z"/>
    <path data-fips-int="20009" data-name="Barton County" d="M480,231l1,28v42h-54h-15v-14v-56Z"/>
    <path data-fips-int="20011" data-name="Bourbon County" d="M969,328v29l2,29 -60,2 -1,-9v-50Z"/>
    <path data-fips-int="20013" data-name="Brown County" d="M867,16l1,56 -28,1h-27l-1,-55Z"/>
    <path data-fips-int="20015" data-name="Butler County" d="M687,328l40,-1 1,21v56l1,20 -80,2 -1,-70v-28Z"/>
    <path data-fips-int="20017" data-name="Chase County" d="M746,256l2,56v15h-21l-40,1v-43h2v-27Z"/>
    <path data-fips-int="20019" data-name="Chautauqua County" d="M801,451l1,48 -72,2v-49Z"/>
    <path data-fips-int="20021" data-name="Cherokee County" d="M973,440l2,54 -59,2 -1,-54Z"/>
    <path data-fips-int="20023" data-name="Cheyenne County" d="M121,16v42l-2,27 -79,-3 3,-69Z"/>
    <path data-fips-int="20025" data-name="Clark County" d="M344,427l1,14v61l-71,-2v-75Z"/>
    <path data-fips-int="20027" data-name="Clay County" d="M669,91v55v14l-50,1v-28l-1,-42Z"/>
    <path data-fips-int="20029" data-name="Cloud County" d="M618,91l1,42h-70l-1,-41v-14l70,-1Z"/>
    <path data-fips-int="20031" data-name="Coffey County" d="M854,268v7v54l1,2 -56,1v-20v-42Z"/>
    <path data-fips-int="20033" data-name="Comanche County" d="M413,503l-68,-1v-61h67Z"/>
    <path data-fips-int="20035" data-name="Cowley County" d="M729,424l1,28v49l-79,1 -1,-8v-54l-1,-14Z"/>
    <path data-fips-int="20037" data-name="Crawford County" d="M971,386l2,54 -58,2 -2,-8 -2,-46Z"/>
    <path data-fips-int="20039" data-name="Decatur County" d="M273,19l-2,70 -67,-1h-2v-35l2,-35Z"/>
    <path data-fips-int="20041" data-name="Dickinson County" d="M669,160l1,27 4,-2 1,17h4l-4,10v32h-55l-1,-55v-28Z"/>
    <path data-fips-int="20043" data-name="Doniphan County" d="M904,75l-7,-4 -29,1 -1,-56 17,10v5l21,6 11,-6v8l9,5 -8,5 10,2 -4,8 -9,-2v9Z"/>
    <path data-fips-int="20045" data-name="Douglas County" d="M891,169v13l16,-4 2,39 -56,2v-21l-1,-30 8,-2 10,5Z"/>
    <path data-fips-int="20047" data-name="Edwards County" d="M412,342v28h1v16l-69,-1 -1,-29v-28h28l1,14Z"/>
    <path data-fips-int="20049" data-name="Elk County" d="M800,403l1,34v14l-71,1 -1,-28 -1,-20Z"/>
    <path data-fips-int="20051" data-name="Ellis County" d="M411,161h1l-1,70 -68,-1h-2l1,-61 1,-9Z"/>
    <path data-fips-int="20053" data-name="Ellsworth County" d="M549,203l1,42v13l-69,1 -1,-28v-28Z"/>
    <path data-fips-int="20055" data-name="Finney County" d="M203,297l55,2h2v41l-56,-1v43l-54,-2 -1,-15 2,-70Z"/>
    <path data-fips-int="20057" data-name="Ford County" d="M343,356l1,29v42l-70,-2 -15,-1 1,-41 -1,-29Z"/>
    <path data-fips-int="20059" data-name="Franklin County" d="M909,217v55l1,1 -56,2v-7l-1,-49Z"/>
    <path data-fips-int="20061" data-name="Geary County" d="M727,173v28l-48,1h-4l-1,-17 -4,2 -1,-27v-14h15v21l43,2Z"/>
    <path data-fips-int="20063" data-name="Gove County" d="M202,158l70,1h2l-2,70 -12,-1 -56,-1 -16,-1 2,-27 1,-42Z"/>
    <path data-fips-int="20065" data-name="Graham County" d="M342,91l-1,69 -67,-1h-2l2,-70 65,2Z"/>
    <path data-fips-int="20067" data-name="Grant County" d="M150,380l-2,56 -55,-2 2,-56Z"/>
    <path data-fips-int="20069" data-name="Gray County" d="M260,340l-1,14 1,29 -1,41 -55,-1v-41v-43Z"/>
    <path data-fips-int="20071" data-name="Greeley County" d="M92,294l-61,-3 4,-51v-18l60,1Z"/>
    <path data-fips-int="20073" data-name="Greenwood County" d="M748,312h51v20l1,50v21l-72,1v-56l-1,-21h21Z"/>
    <path data-fips-int="20075" data-name="Hamilton County" d="M96,294l-3,69 2,15 -66,-3 2,-84 61,3Z"/>
    <path data-fips-int="20077" data-name="Harper County" d="M567,503h-70v-61l70,-1Z"/>
    <path data-fips-int="20079" data-name="Harvey County" d="M648,328v28l-69,1v-42l42,-1h26Z"/>
    <path data-fips-int="20081" data-name="Haskell County" d="M204,382v41v14l-53,-1h-3l2,-56Z"/>
    <path data-fips-int="20083" data-name="Hodgeman County" d="M342,300l1,28v28l-84,-2 1,-14v-41Z"/>
    <path data-fips-int="20085" data-name="Jackson County" d="M840,73l1,37 -2,33 -55,1 -1,-56h31l-1,-15Z"/>
    <path data-fips-int="20087" data-name="Jefferson County" d="M889,109l2,28v32l-21,2 -10,-5 -8,2 -13,-1v-24l2,-33Z"/>
    <path data-fips-int="20089" data-name="Jewell County" d="M548,21v57v14h-68h-3v-71Z"/>
    <path data-fips-int="20091" data-name="Johnson County" d="M963,166l1,49 -55,2 -2,-39 19,-2 2,-10Z"/>
    <path data-fips-int="20093" data-name="Kearny County" d="M150,380l-55,-2 -2,-15 3,-69 52,1h3l-2,70Z"/>
    <path data-fips-int="20095" data-name="Kingman County" d="M566,386v41l1,14 -70,1h-14v-14v-42Z"/>
    <path data-fips-int="20097" data-name="Kiowa County" d="M413,386l-1,41v14h-67l-1,-14v-42Z"/>
    <path data-fips-int="20099" data-name="Labette County" d="M913,434l2,8 1,54 -58,2v-62Z"/>
    <path data-fips-int="20101" data-name="Lane County" d="M260,228l-1,2v59l-1,10 -55,-2 1,-70Z"/>
    <path data-fips-int="20103" data-name="Leavenworth County" d="M916,108l10,4 -2,14 17,16h-16l1,34 -19,2 -16,4v-13v-32l-2,-28Z"/>
    <path data-fips-int="20105" data-name="Lincoln County" d="M549,147v42v14h-69v-42v-14Z"/>
    <path data-fips-int="20107" data-name="Linn County" d="M966,271l3,57 -59,1v-56Z"/>
    <path data-fips-int="20109" data-name="Logan County" d="M191,157l-1,42 -2,27 -38,-1 -45,-1 3,-70 12,1Z"/>
    <path data-fips-int="20111" data-name="Lyon County" d="M798,220l1,50v42h-51l-2,-56v-34Z"/>
    <path data-fips-int="20113" data-name="McPherson County" d="M620,244v70h1l-42,1h-28l-1,-57v-13Z"/>
    <path data-fips-int="20115" data-name="Marion County" d="M675,244v14h14v27h-2v43h-39l-1,-14h-26h-1v-70Z"/>
    <path data-fips-int="20117" data-name="Marshall County" d="M757,19l1,70 -42,1h-29v-64l-1,-6Z"/>
    <path data-fips-int="20119" data-name="Meade County" d="M259,424l15,1v75l-70,-1v-62v-14Z"/>
    <path data-fips-int="20121" data-name="Miami County" d="M964,215l2,56 -56,2 -1,-1v-55Z"/>
    <path data-fips-int="20123" data-name="Mitchell County" d="M548,92l1,41v14h-69v-55Z"/>
    <path data-fips-int="20125" data-name="Montgomery County" d="M857,436h1v62l-56,1 -1,-48v-14Z"/>
    <path data-fips-int="20127" data-name="Morris County" d="M727,201l1,7h14v12l4,2v34l-57,2h-14v-14v-32l4,-10Z"/>
    <path data-fips-int="20129" data-name="Morton County" d="M89,434l-2,63 -62,-2 1,-64Z"/>
    <path data-fips-int="20131" data-name="Nemaha County" d="M812,18l1,55 1,15h-31l-25,1 -1,-70Z"/>
    <path data-fips-int="20133" data-name="Neosho County" d="M910,379l1,9 2,46 -55,2h-1l-2,-56Z"/>
    <path data-fips-int="20135" data-name="Ness County" d="M272,229l69,1h2l-1,56v14l-82,-1h-2l1,-10v-59l1,-2Z"/>
    <path data-fips-int="20137" data-name="Norton County" d="M340,21l-1,70 -65,-2h-3l2,-70Z"/>
    <path data-fips-int="20139" data-name="Osage County" d="M853,198v21l1,49 -55,2 -1,-50 -1,-20Z"/>
    <path data-fips-int="20141" data-name="Osborne County" d="M477,92h3v55v14h-68h-1l1,-70Z"/>
    <path data-fips-int="20143" data-name="Ottawa County" d="M619,133v28v28h-70v-42v-14Z"/>
    <path data-fips-int="20145" data-name="Pawnee County" d="M412,287v14h15l-1,42 -14,-1h-40l-1,-14h-28l-1,-28v-14Z"/>
    <path data-fips-int="20147" data-name="Phillips County" d="M409,21v70h-67h-3l1,-70Z"/>
    <path data-fips-int="20149" data-name="Pottawatomie County" d="M758,89l25,-1 1,56v15l-5,-11 -20,-2 -13,8 -5,-1 -21,-1 -4,-9 -17,-26v-8l6,-4 11,-15Z"/>
    <path data-fips-int="20151" data-name="Pratt County" d="M482,371l1,15v42l-71,-1 1,-41v-16Z"/>
    <path data-fips-int="20153" data-name="Rawlins County" d="M204,18l-2,35v35l-81,-3h-2l2,-27v-42Z"/>
    <path data-fips-int="20155" data-name="Reno County" d="M551,315h28v42l1,28 -14,1h-83l-1,-15v-56Z"/>
    <path data-fips-int="20157" data-name="Republic County" d="M618,21v56l-70,1v-57Z"/>
    <path data-fips-int="20159" data-name="Rice County" d="M550,258l1,57h-69l-1,-14v-42Z"/>
    <path data-fips-int="20161" data-name="Riley County" d="M716,90l-11,15 -6,4v8l17,26 4,9 21,1v20h-14v-4l-43,-2v-21h-15v-55l18,-1Z"/>
    <path data-fips-int="20163" data-name="Rooks County" d="M412,91l-1,70 -68,-1h-2l1,-69h67Z"/>
    <path data-fips-int="20165" data-name="Rush County" d="M411,231h1v56l-70,-1 1,-56Z"/>
    <path data-fips-int="20167" data-name="Russell County" d="M480,161v42v28h-68h-1l1,-70Z"/>
    <path data-fips-int="20169" data-name="Saline County" d="M619,189l1,55 -70,1 -1,-42v-14Z"/>
    <path data-fips-int="20171" data-name="Scott County" d="M188,226l16,1 -1,70 -52,-2h-3l1,-61 1,-9Z"/>
    <path data-fips-int="20173" data-name="Sedgwick County" d="M648,356l1,70 -83,1v-41l14,-1 -1,-28Z"/>
    <path data-fips-int="20175" data-name="Seward County" d="M204,437v62l-55,-1 2,-62Z"/>
    <path data-fips-int="20177" data-name="Shawnee County" d="M839,143v24l13,1 1,30 -56,2 -1,-37 -12,-4v-15Z"/>
    <path data-fips-int="20179" data-name="Sheridan County" d="M271,89h3l-2,70 -70,-1 2,-70Z"/>
    <path data-fips-int="20181" data-name="Sherman County" d="M119,85h2l-1,70 -12,-1 -70,-2 2,-70Z"/>
    <path data-fips-int="20183" data-name="Smith County" d="M477,21v71l-65,-1h-3v-70Z"/>
    <path data-fips-int="20185" data-name="Stafford County" d="M481,301l1,14v56l-69,-1h-1v-28l14,1 1,-42Z"/>
    <path data-fips-int="20187" data-name="Stanton County" d="M95,378l-2,56h-4l-63,-3 3,-56Z"/>
    <path data-fips-int="20189" data-name="Stevens County" d="M148,436h3l-2,62 -62,-1 2,-63h4Z"/>
    <path data-fips-int="20191" data-name="Sumner County" d="M649,426l1,14v54l1,8 -84,1v-62l-1,-14Z"/>
    <path data-fips-int="20193" data-name="Thomas County" d="M202,88h2l-2,70 -11,-1 -71,-2 1,-70Z"/>
    <path data-fips-int="20195" data-name="Trego County" d="M341,160h2l-1,9 -1,61 -69,-1 2,-70Z"/>
    <path data-fips-int="20197" data-name="Wabaunsee County" d="M784,159l12,4 1,37 1,20 -52,2 -4,-2v-12h-14l-1,-7v-28h14v-20l5,1 13,-8 20,2Z"/>
    <path data-fips-int="20199" data-name="Wallace County" d="M108,154l-3,70 -10,-1 -60,-1 3,-70Z"/>
    <path data-fips-int="20201" data-name="Washington County" d="M686,20l1,6v64l-18,1h-51v-14v-56Z"/>
    <path data-fips-int="20203" data-name="Wichita County" d="M150,225l-1,9 -1,61 -52,-1h-4l3,-71 10,1Z"/>
    <path data-fips-int="20205" data-name="Wilson County" d="M855,380l2,56 -56,1 -1,-34v-21Z"/>
    <path data-fips-int="20207" data-name="Woodson County" d="M855,331v49l-55,2 -1,-50Z"/>
    <path data-fips-int="20209" data-name="Wyandotte County" d="M941,142l8,5 15,1 -1,18h-35l-2,10 -1,-34Z"/>
  </g>
  <path class="mesh" d="M916,108l-27,1 -48,1 -1,-37 28,-1 29,-1 7,4M413,503l-1,-62v-14l71,1v14h14v61M971,386l-60,2 -1,-9M855,331l-1,-2v-54l56,-2v56v50l-55,1v-49l55,-2 59,-1M867,16l1,56M840,73h-27l-1,-55M687,328l40,-1 1,21v56l1,20 -80,2 -1,-70v-28h39v-43h2v-27l57,-2 2,56v15h-21M730,501v-49l71,-1 1,48M916,496l-1,-54 58,-2M121,16v42l-2,27 -79,-3M274,500v-75l70,2 1,14v61M619,133h-70l-1,-41v-14l70,-1v14M855,331l-56,1v-20v-42l55,-2v7M345,441h67M729,424l1,28M915,442l-2,-8 -2,-46M273,19l-2,70 -67,-1h-2v-35l2,-35M669,160l1,27 4,-2 1,17h4l-4,10v32h-55l-1,-55v-28M889,109l2,28v32v13l16,-4 2,39 -56,2v-21l-1,-30 8,-2 10,5 21,-2M427,301l-1,42 -14,-1v28h1v16l-69,-1 -1,-29v-28h28l1,14h40M728,404l72,-1 1,34v14M480,231l1,28v42h-54h-15v-14v-56h68v-28h69l1,42v13l-69,1M344,385v42M274,425l-15,-1 1,-41 -1,-29 84,2M854,268l-1,-49M669,146h15v21l43,2v4v28l-48,1M272,159l2,-70 65,2h3l-1,69 -67,-1M150,380l-2,56 -55,-2 2,-56 55,2M260,340l-1,14M259,424l-55,-1v-41M35,222l60,1 -3,71 -61,-3M748,312h51M799,332l1,50v21M92,294h4l-3,69 2,15 -66,-3M497,442l70,-1v62M648,356l-69,1v-42l42,-1h26l1,14M204,423v14l-53,-1h-3M260,299l82,1 1,28M841,110l-2,33 -55,1 -1,-56h31l-1,-15M852,168l-13,-1v-24M548,21v57M548,92h-68h-3v-71M907,178l19,-2 2,-10h35M96,294l52,1h3M483,428v-42h83v41l1,14M413,386l-1,41M858,498v-62l55,-2M260,228l-1,2v59l-1,10M203,297l55,2h2v41l-56,-1v43l-54,-2 -1,-15 2,-70 52,2 1,-70M941,142h-16l1,34M480,203v-42v-14h69v42v14M964,215l-55,2v55l1,1 56,-2M188,226l-38,-1 -45,-1 3,-70 12,1 71,2M746,256v-34l52,-2 1,50M550,245l70,-1v70h1M579,315h-28l-1,-57M675,244v14h14M757,19l1,70 -42,1h-29v-64l-1,-6M204,499v-62M549,133v14M480,147v-55M801,437l56,-1h1M727,201l1,7h14v12l4,2M26,431l63,3 -2,63M783,88l-25,1M800,382l55,-2M272,229l69,1M343,230l-1,56v14M340,21l-1,70M274,89h-3M798,220l-1,-20 56,-2M480,161h-68M411,161h1l-1,70 -68,-1h-2l1,-61 1,-9 68,1 1,-70 65,1M619,189h-70M342,286l70,1M409,21v70h-67M784,144v15l-5,-11 -20,-2 -13,8 -5,-1 -21,-1 -4,-9 -17,-26v-8l6,-4 11,-15M413,370l69,1 1,15M202,88l-81,-3h-2M579,357l1,28 -14,1M482,371v-56h69M618,21v56M482,315l-1,-14M741,153v20h-14M669,91v55v14l-50,1v-28l-1,-42h51l18,-1M343,160h-2M409,91h3M411,231h1M148,295l1,-61 1,-9M651,502l-1,-8v-54l-1,-14 -83,1M149,498l2,-62M797,200l-1,-37 -12,-4M202,158l70,1h2l-2,70 -12,-1 -56,-1 -16,-1 2,-27 1,-42 11,1 2,-70M121,85l-1,70M108,154l-70,-2M93,434h-4M105,224l-10,-1M857,436l-2,-56"/>
  <g class="cities">
    <circle r="7" cx="626" cy="392"/>
    <text x="626" y="392">Wichita</text>
    <circle r="7" cx="956" cy="177"/>
    <text x="956" y="177">Overland Park</text>
    <circle r="7" cx="830" cy="171"/>
    <text x="830" y="171">Topeka</text>
  </g>
</svg>