<?xml version="1.0" encoding="utf-8"?>
<!DOCTYPE svg PUBLIC "-//W3C//DTD SVG 1.1//EN" "http://www.w3.org/Graphics/SVG/1.1/DTD/svg11.dtd">
<svg version="1.1" xmlns="http://www.w3.org/2000/svg" width="350" height="152" viewBox="0 0 350 152">
  <path class="state" transform="scale(0.1)" d="M1947,266h35l16,23 27,-1 53,-37 55,-19 35,5 6,-39 -1,-20 -33,-16 20,-31 -29,-39 29,-29 41,-23 47,37 50,-11 18,-15 23,41 42,16 35,77 1,26 10,13 49,15 49,-7 32,8 47,36 10,24 53,10 6,-19 47,-17 85,33 8,20 32,-15 33,3 52,-60 61,-18 22,93 50,12 26,28 24,16 8,72 12,10 -12,43 -12,60 39,35 24,69 75,95v14l17,39 71,39 2,21 75,5 -165,157 -41,14 -48,27 -69,45v42l-61,39 3,40 -63,31 -27,-3 -25,61 -25,3 -116,44 -25,-1 -58,27 -17,21h-106h-130l-243,-3 -86,-5 -142,-5 -63,5 -235,-6 -192,-14h-155l-132,2 -121,-2h-156l-70,2 1,-18 -98,-11 15,83 -10,18 -191,-7 -145,-7h-8l-200,-9 -56,2 23,-65 23,-4 30,37 34,-48 -9,-35 35,-36 -21,-31 16,-4 17,-52 -32,-36v-26l45,-59 32,-26 35,-4 58,24 32,25 41,12 27,23 46,5 15,-40 -36,-80 18,-53 30,-19 22,12 35,-26 86,-9 8,-16 -31,-39 -9,-49 44,-40 13,-32 37,15 19,-22 -8,-50 22,-11 15,26 66,-13 5,40 27,-1 10,-30 -17,-20 17,-28 38,38 23,-19 29,3 35,22 58,31 20,34 21,-10 12,-52 28,-18 27,-3 25,-26 30,-1 26,52 37,-8 -5,36 23,-12 5,-31 35,-4 -5,-60 12,-4 75,-58 20,6v44l45,29 36,2 15,25 22,-21 23,-5 18,-42 -3,-42 38,-65 37,6 28,-18 15,-43 17,-35 31,-7 40,-37 9,-22 -19,-64 9,-26ZM122,1458l-23,1 -9,-42 35,2Z"/>
  <g class="counties" transform="scale(0.1)">
    <path data-fips-int="21001" data-name="Adair County" d="M2023,1046l47,29 6,39 -53,85 -28,59 -97,-7 -23,-38 -10,-56 77,-45 35,-39 34,-6Z"/>
    <path data-fips-int="21003" data-name="Allen County" d="M1586,1253l8,21 30,2 18,73 27,21 11,31 -10,20 -192,-14 3,-68Z"/>
    <path data-fips-int="21005" data-name="Anderson County" d="M2150,604l6,40 23,39 -36,18 -22,-8 -41,34 -54,-2 -6,-42 28,-35 23,-20 10,-30 59,17Z"/>
    <path data-fips-int="21007" data-name="Ballard County" d="M425,1221l-60,11 -43,-6 -22,-4 -32,-36v-26l45,-59 32,-26 35,-4Z"/>
    <path data-fips-int="21009" data-name="Barren County" d="M1772,1305l-35,13 -68,52 -27,-21 -18,-73 -30,-2 -8,-21 23,-70 17,5 8,-62 61,10 74,-12 -12,16 12,74Z"/>
    <path data-fips-int="21011" data-name="Bath County" d="M2678,556l19,9 -5,25 15,-13 31,52 -30,-3 -3,26 -35,-8 -43,16 -55,-73 -38,-12 -4,-19 55,-57 62,15 3,35Z"/>
    <path data-fips-int="21013" data-name="Bell County" d="M2750,1239l8,24 -8,47 25,78 -25,-1 -58,27 -17,21h-106l-12,-31 33,-24 55,-65 73,-56 -5,-29Z"/>
    <path data-fips-int="21015" data-name="Boone County" d="M2248,77l11,103 -6,47 -20,14 -59,-43 -1,-20 -33,-16 20,-31 -29,-39 29,-29 41,-23Z"/>
    <path data-fips-int="21017" data-name="Bourbon County" d="M2519,540l11,16 -43,44 -88,28 -40,-23 8,-46 -20,-8 -16,-41 30,2 40,-20 35,-32 33,54Z"/>
    <path data-fips-int="21019" data-name="Boyd County" d="M3121,511l-42,-7 -40,11 4,-55 -15,-15 15,-31 46,-44 24,16 8,72 12,10Z"/>
    <path data-fips-int="21021" data-name="Boyle County" d="M2203,824l21,9 17,34 2,8 -83,41 -22,8 -62,-7 4,-47 3,-26Z"/>
    <path data-fips-int="21023" data-name="Bracken County" d="M2557,240l-37,97 -31,-6 -40,29 -20,-15 -12,-134 10,13 49,15 49,-7Z"/>
    <path data-fips-int="21025" data-name="Breathitt County" d="M2853,836l55,32 17,-13 31,25 -1,19 31,25 -65,-7 -18,34 7,28 -32,-3 -8,-17 -73,61 -39,-21 -31,24 3,-47 -18,-47 23,-73 30,1 27,-36Z"/>
    <path data-fips-int="21027" data-name="Breckinridge County" d="M1594,779l-55,113 -32,16 -54,-15 -10,-17 -44,30 -18,-29 2,-24 -17,-71 10,-28 23,-12 5,-31 35,-4 -5,-60 12,-4 111,95Z"/>
    <path data-fips-int="21029" data-name="Bullitt County" d="M1880,673l-18,15 -20,45 -43,37 -25,3 -45,-38 -5,-36 -24,2 -13,-31 33,-26 64,-22 68,7 55,-24 -17,12 -20,48Z"/>
    <path data-fips-int="21031" data-name="Butler County" d="M1484,1124l-21,10 -20,-22 -57,4 2,26 -27,74 -71,-32 -44,-8 22,-11 -13,-28 11,-39 40,-43 22,-7 63,-49 55,18 8,24Z"/>
    <path data-fips-int="21033" data-name="Caldwell County" d="M869,1015l3,61 53,51 -15,70 -10,10 -16,15 -47,7 -51,-75 -20,-44 -24,-4 17,-28 116,-78Z"/>
    <path data-fips-int="21035" data-name="Calloway County" d="M731,1344l16,36 15,83 -10,18 -191,-7 7,-138Z"/>
    <path data-fips-int="21037" data-name="Campbell County" d="M2416,185l-80,39 -18,-26 10,-29 -12,-22 15,-20 -25,-19 -8,-42 18,-15 23,41 42,16Z"/>
    <path data-fips-int="21039" data-name="Carlisle County" d="M426,1225l-3,95 -108,-3 -27,-8 -21,-31 16,-4 17,-52 22,4 43,6 60,-11Z"/>
    <path data-fips-int="21041" data-name="Carroll County" d="M2116,305l-60,36 -40,6 -19,-11 -50,-70h35l16,23 27,-1 53,-37Z"/>
    <path data-fips-int="21043" data-name="Carter County" d="M3028,445l15,15 -4,55 -23,31 -31,9 -54,-2 -48,-44 -37,40 -28,-19 -15,-49 47,-11 -4,-49 30,-44 50,21 35,38Z"/>
    <path data-fips-int="21045" data-name="Casey County" d="M2160,916v66l56,35 2,68 -78,67 -29,5 -35,-43 -6,-39 -47,-29 13,-38 27,-19h12l1,-72 62,7Z"/>
    <path data-fips-int="21047" data-name="Christian County" d="M1077,1126l31,47 -38,234h-156l10,-63 8,-117 -32,-20 10,-10 15,-70 69,25 16,-11 48,-3Z"/>
    <path data-fips-int="21049" data-name="Clark County" d="M2539,699l-15,51 -33,-7 -47,-13 -33,2 -7,-21 -25,12 5,-59 15,-36 88,-28Z"/>
    <path data-fips-int="21051" data-name="Clay County" d="M2737,1064l8,12 -17,38 7,66 15,59 -37,-9 -63,-23 -18,-19 -42,-9 -6,-35 -17,6 -22,-32 10,-46 69,-55h63l16,28Z"/>
    <path data-fips-int="21053" data-name="Clinton County" d="M2068,1294l27,58 -5,34 20,41 -142,-5 35,-125 8,-10 32,23Z"/>
    <path data-fips-int="21055" data-name="Crittenden County" d="M817,944v39l38,-6 20,23 -116,78 -17,28 -20,14 -23,4 -10,-73 -33,-49 -23,-22 35,-26 86,-9 8,-16 29,-22v21Z"/>
    <path data-fips-int="21057" data-name="Cumberland County" d="M1995,1258l-18,15 26,24 -35,125 -63,5 -25,-39 12,-23h-22l-35,-48 40,-27 23,-39Z"/>
    <path data-fips-int="21059" data-name="Daviess County" d="M1303,810l-20,15 22,20 -59,24 -38,37 -43,-8 -117,-62 7,-21 32,-10 21,-23 -20,-21 9,-42 58,31 20,34 21,-10 12,-52 28,-18 -3,18 32,-3v37l25,-2Z"/>
    <path data-fips-int="21061" data-name="Edmonson County" d="M1591,1033l46,66 -3,27 -8,62 -17,-5 -45,-23 -28,13 -52,-49 -30,-83Z"/>
    <path data-fips-int="21063" data-name="Elliott County" d="M2985,555l16,32 -56,61 -79,-1 -28,-24v-31l20,-12 -12,-31 37,-40 48,44Z"/>
    <path data-fips-int="21065" data-name="Estill County" d="M2524,750l43,44 57,-2 23,23 -43,29 -35,68 -27,-21 -53,10 -17,-44 12,-7 -12,-86 19,-21Z"/>
    <path data-fips-int="21067" data-name="Fayette County" d="M2399,628l-15,36 -5,59 -43,26 -18,-50 -80,-35 15,-61 1,-8 93,-44 20,8 -8,46Z"/>
    <path data-fips-int="21069" data-name="Fleming County" d="M2755,448l-20,18 -2,44 -55,46 -28,-7 -3,-35 -62,-15 2,-14 -32,-22 -28,-42 22,-29 28,19 95,-41 25,24v29Z"/>
    <path data-fips-int="21071" data-name="Floyd County" d="M3116,800l33,18 -15,4 -8,97 17,13 -12,51 -20,8 -2,36 -18,12 -17,-12 -8,-65 -30,9 2,-29 -42,-10 20,-29 -30,-97 15,7 58,-31Z"/>
    <path data-fips-int="21073" data-name="Franklin County" d="M2136,473l10,-1 55,2 8,86 -59,30v14l-10,11 -59,-17 10,-82 17,-30 -17,-2Z"/>
    <path data-fips-int="21075" data-name="Fulton County" d="M408,1467l-200,-9 -56,2 23,-65 23,-4 30,37 34,-48 65,36 53,10ZM122,1458l-23,1 -9,-42 35,2Z"/>
    <path data-fips-int="21077" data-name="Gallatin County" d="M2233,241l-49,7 -5,25 -63,32 -38,-54 55,-19 35,5 6,-39Z"/>
    <path data-fips-int="21079" data-name="Garrard County" d="M2298,792l68,97 11,28 -11,37 -32,-7 -90,-70 -3,-10 -17,-34 -21,-9 25,-17 -14,-39 19,-7 48,52Z"/>
    <path data-fips-int="21081" data-name="Grant County" d="M2289,232l25,136 -3,18 -32,10 -10,11 -16,-5 -24,-41 -43,-33 -7,-55 5,-25 49,-7 20,-14Z"/>
    <path data-fips-int="21083" data-name="Graves County" d="M571,1232l-3,104 -7,138 -145,-7 7,-147 3,-95Z"/>
    <path data-fips-int="21085" data-name="Grayson County" d="M1539,892l33,10 39,7 28,62 7,13 -19,42 -36,7 -137,8 -8,-24 -55,-18 -23,-88 31,-5 44,-30 10,17 54,15Z"/>
    <path data-fips-int="21087" data-name="Green County" d="M1840,960v21l47,37 55,94 -77,45 -40,-6 -30,-33 4,-57 -9,-9 19,-66 10,-27Z"/>
    <path data-fips-int="21089" data-name="Greenup County" d="M3089,370l-46,44 -15,31 -67,-9 -35,-38 -50,-21 39,-48 18,-51 -3,-23 61,-18 22,93 50,12Z"/>
    <path data-fips-int="21091" data-name="Hancock County" d="M1376,754l-10,28 17,71 -80,-43 -13,-56 -25,2v-37l-32,3 3,-18 27,-3 25,-26 30,-1 26,52 37,-8Z"/>
    <path data-fips-int="21093" data-name="Hardin County" d="M1687,670l13,31 24,-2 5,36 45,38 25,43 -25,44 -25,14 -4,11 -31,34 -9,57 -66,-5 -28,-62 -39,-7 -33,-10 55,-113 62,-10 14,-34 -11,-65 23,-5Z"/>
    <path data-fips-int="21095" data-name="Harlan County" d="M2916,1201l-10,26 93,-36 29,21 3,40 -63,31 -27,-3 -25,61 -25,3 -116,44 -25,-78 8,-47 34,2 5,-16 61,-29 33,-29Z"/>
    <path data-fips-int="21097" data-name="Harrison County" d="M2449,360l-8,28 33,23 -38,49 -35,32 -40,20 -30,-2 -10,-56 -28,-25 -14,-33 32,-10 3,-18 115,-23Z"/>
    <path data-fips-int="21099" data-name="Hart County" d="M1705,976l104,10 -19,66 9,9 -4,57 -26,6 -74,12 -61,-10 3,-27 -46,-66 36,-7 19,-42 -7,-13Z"/>
    <path data-fips-int="21101" data-name="Henderson County" d="M1097,719l-9,42 20,21 -21,23 -32,10 -7,21 -38,20 -103,3 -12,-69 -6,4 -17,-7 -45,-75 22,-11 15,26 66,-13 5,40 27,-1 10,-30 -17,-20 17,-28 38,38 23,-19 29,3Z"/>
    <path data-fips-int="21103" data-name="Henry County" d="M2146,472l-10,1 -45,11 -123,-11 -26,-54 13,-20 15,-2 46,-50 40,-6 32,25 -10,24 63,50Z"/>
    <path data-fips-int="21105" data-name="Hickman County" d="M423,1320l-7,147h-8l-28,-41 -53,-10 -65,-36 -9,-35 35,-36 27,8Z"/>
    <path data-fips-int="21107" data-name="Hopkins County" d="M1095,997l-20,44 -18,14 -2,9 28,46 -6,16 -19,12 -48,3 -16,11 -69,-25 -53,-51 -3,-61 96,-58 43,-14 54,-44 10,24 -2,56Z"/>
    <path data-fips-int="21109" data-name="Jackson County" d="M2569,912l8,14 35,81 12,10 -69,55 -50,-8 -34,-28v-13l-30,-76 1,-22 24,-24h23l53,-10Z"/>
    <path data-fips-int="21111" data-name="Jefferson County" d="M1890,513l27,12 -9,63 -1,17 -55,24 -68,-7 -64,22 -33,26 -5,-5 18,-42 -3,-42 38,-65 37,6 28,-18 15,-43Z"/>
    <path data-fips-int="21113" data-name="Jessamine County" d="M2336,749l-10,25 -28,18 -17,21 -48,-52 -19,7 4,-25 20,-79 80,35Z"/>
    <path data-fips-int="21115" data-name="Johnson County" d="M3123,713l-24,51 17,36 -57,-18 -58,31 -15,-7 -6,-43 -25,-34 15,-22 -9,-36 19,-19 48,15 68,39Z"/>
    <path data-fips-int="21117" data-name="Kenton County" d="M2298,66l8,42 25,19 -15,20 12,22 -10,29 18,26 -47,8 -36,-5 6,-47 -11,-103Z"/>
    <path data-fips-int="21119" data-name="Knott County" d="M2986,924l10,8 42,10 -2,29 30,-9 8,65 17,12 -8,8 -57,14 -13,19 -38,23 -7,-10 -30,-28 -25,7 3,-52 -6,-41 -7,-28 18,-34Z"/>
    <path data-fips-int="21121" data-name="Knox County" d="M2713,1230l5,29 -73,56 -55,65 -48,-39 3,-20 -38,-31 -15,-55 27,-18 33,5 15,-33 23,-10 42,9 18,19Z"/>
    <path data-fips-int="21123" data-name="Larue County" d="M1835,926l32,-12 25,48 -52,-2 -21,-1 -10,27 -104,-10 9,-57 31,-34 4,-11 25,-14 25,-44 31,17Z"/>
    <path data-fips-int="21125" data-name="Laurel County" d="M2555,1072l-10,46 22,32 17,-6 6,35 -23,10 -15,33 -33,-5 -27,18 -38,10 -32,-18 -18,15 -27,-7 20,-26 -6,-34 20,-18 -5,-28 31,-70 34,-23 34,28Z"/>
    <path data-fips-int="21127" data-name="Lawrence County" d="M3121,511l-12,60 39,35 24,69 -36,-4 -13,42 -27,-7 -68,-39 -48,-15 -19,19 -16,-23 56,-61 -16,-32 31,-9 23,-31 40,-11Z"/>
    <path data-fips-int="21129" data-name="Lee County" d="M2652,815l40,26 43,15 -23,73 -35,-16 -38,24 -37,5 -25,-16 -8,-14 35,-68 43,-29Z"/>
    <path data-fips-int="21131" data-name="Leslie County" d="M2891,1191l-33,29 -61,29 -5,16 -34,-2 -8,-24 -15,-59 -7,-66 17,-38 10,-23 37,-18 21,6 14,39 53,26 -10,22 26,18Z"/>
    <path data-fips-int="21133" data-name="Letcher County" d="M3083,1047l28,24 18,-12 29,27 -69,45v42l-61,39 -29,-21 -93,36 10,-26 30,-9 -3,-53 25,-46 7,10 38,-23 13,-19Z"/>
    <path data-fips-int="21135" data-name="Lewis County" d="M2876,377l-30,44 4,49 -47,11 -31,-42 -17,9 -58,-25v-29l-25,-24 6,-47 -11,-13 6,-19 47,-17 85,33 8,20 32,-15 33,3 52,-60 3,23 -18,51Z"/>
    <path data-fips-int="21137" data-name="Lincoln County" d="M2334,947l-23,87 -23,-14 -70,65 -2,-68 -56,-35v-66l83,-41 -2,-8 3,10Z"/>
    <path data-fips-int="21139" data-name="Livingston County" d="M633,980l23,22 33,49 10,73 -15,30 -5,60 -28,-37 -28,-10 -50,21 -35,-33 46,5 15,-40 -36,-80 18,-53 30,-19Z"/>
    <path data-fips-int="21141" data-name="Logan County" d="M1391,1280l-37,22 -26,63 -5,42 -132,2 7,-228 48,-5 44,8 71,32Z"/>
    <path data-fips-int="21143" data-name="Lyon County" d="M837,1229l-63,29 -62,19 -13,-37 -20,-26 5,-60 15,-30 23,-4 20,-14 24,4 20,44Z"/>
    <path data-fips-int="21145" data-name="McCracken County" d="M538,1155l35,33 -2,44 -145,-7 -1,-4 -45,-150 58,24 32,25 41,12Z"/>
    <path data-fips-int="21147" data-name="McCreary County" d="M2377,1235l27,7 -25,73 22,73 38,47 -243,-3 45,-74 42,-45 -2,-26 70,-44Z"/>
    <path data-fips-int="21149" data-name="McLean County" d="M1208,906l-32,48 4,32 -47,17 -38,-6 -25,-18 2,-56 -10,-24 -47,-17 -5,-26 38,-20 117,62Z"/>
    <path data-fips-int="21151" data-name="Madison County" d="M2491,743l-19,21 12,86 -12,7 17,44h-23l-24,24 -65,-8 -11,-28 -68,-97 28,-18 10,-25 43,-26 25,-12 7,21 33,-2Z"/>
    <path data-fips-int="21153" data-name="Magoffin County" d="M2955,729l25,34 6,43 30,97 -20,29 -10,-8 -31,-25 1,-19 -31,-25 -17,13 -55,-32 -7,-23 -6,-31 68,-55 -8,-15Z"/>
    <path data-fips-int="21155" data-name="Marion County" d="M1918,817l27,43 37,11 98,-1 -4,47 -1,72h-12l-45,-26 -41,26 -37,-30 -48,3 -25,-48 28,-68 23,-29Z"/>
    <path data-fips-int="21157" data-name="Marshall County" d="M679,1214l20,26 13,37 19,67 -163,-8 3,-104 2,-44 50,-21 28,10Z"/>
    <path data-fips-int="21159" data-name="Martin County" d="M3172,675l75,95v14l-33,18 12,11 -77,5 -33,-18 -17,-36 24,-51 13,-42Z"/>
    <path data-fips-int="21161" data-name="Mason County" d="M2667,310l11,13 -6,47 -95,41 -28,-19 -29,-55 37,-97 47,36 10,24Z"/>
    <path data-fips-int="21163" data-name="Meade County" d="M1659,670l11,65 -14,34 -62,10 -37,-41 -111,-95 75,-58 20,6v44l45,29 36,2 15,25Z"/>
    <path data-fips-int="21165" data-name="Menifee County" d="M2738,629l29,9 -2,49 -22,46 -16,20 -42,1 -61,-49 3,-45 43,-16 35,8 3,-26Z"/>
    <path data-fips-int="21167" data-name="Mercer County" d="M2218,743l-4,25 14,39 -25,17 -120,20 8,-98 -11,-19 41,-34 22,8 36,-18 -10,32 20,3 7,32Z"/>
    <path data-fips-int="21169" data-name="Metcalfe County" d="M1865,1157l10,56 23,38 -23,39 -40,27 -63,-12 -3,-91 -12,-74 12,-16 26,-6 30,33Z"/>
    <path data-fips-int="21171" data-name="Monroe County" d="M1772,1305l63,12 35,48h22l-12,23 25,39 -235,-6 10,-20 -11,-31 68,-52Z"/>
    <path data-fips-int="21173" data-name="Montgomery County" d="M2627,660l-3,45 -49,9 -36,-15 -52,-99 43,-44 4,19 38,12Z"/>
    <path data-fips-int="21175" data-name="Morgan County" d="M2838,592v31l28,24 79,1 16,23 9,36 -15,22 -55,-17 8,15 -68,55 6,31 -54,-55 -49,-25 22,-46 2,-49Z"/>
    <path data-fips-int="21177" data-name="Muhlenberg County" d="M1266,1098l-11,39 13,28 -22,11 -48,5 -86,9 -4,-17 -31,-47 6,-16 -28,-46 2,-9 18,-14 20,-44 38,6 47,-17 3,21 45,29 2,25Z"/>
    <path data-fips-int="21179" data-name="Nelson County" d="M2020,683l6,42 -63,36 -45,56 -23,29 -28,68 -32,12 -5,-93 -31,-17 -25,-43 25,-3 43,-37 20,-45 18,-15 40,29Z"/>
    <path data-fips-int="21181" data-name="Nicholas County" d="M2527,421l28,42 32,22 -2,14 -55,57 -11,-16 -50,-26 -33,-54 38,-49Z"/>
    <path data-fips-int="21183" data-name="Ohio County" d="M1383,853l-2,24 18,29 -31,5 23,88 -63,49 -22,7 -40,43 -36,-37 -2,-25 -45,-29 -3,-21 -4,-32 32,-48 38,-37 59,-24 -22,-20 20,-15Z"/>
    <path data-fips-int="21185" data-name="Oldham County" d="M1955,399l-13,20 26,54 -16,26 -62,14 -75,-52 17,-35 31,-7 40,-37Z"/>
    <path data-fips-int="21187" data-name="Owen County" d="M2179,273l7,55 43,33 24,41 16,5 -68,67 -55,-2 -5,-32 -63,-50 10,-24 -32,-25 60,-36Z"/>
    <path data-fips-int="21189" data-name="Owsley County" d="M2712,929l18,47 -3,47 10,41 -34,-19 -16,-28h-63l-12,-10 -35,-81 25,16 37,-5 38,-24Z"/>
    <path data-fips-int="21191" data-name="Pendleton County" d="M2429,345l-115,23 -25,-136 47,-8 80,-39 1,26Z"/>
    <path data-fips-int="21193" data-name="Perry County" d="M2910,979l6,41 -3,52 25,-7 30,28 -25,46 3,53 -30,9 -25,-10 5,-45 -26,-18 10,-22 -53,-26 -14,-39 -21,-6 -37,18 -10,23 -8,-12 -10,-41 31,-24 39,21 73,-61 8,17Z"/>
    <path data-fips-int="21195" data-name="Pike County" d="M3158,1086l-29,-27 -18,12 -28,-24 8,-8 18,-12 2,-36 20,-8 12,-51 -17,-13 8,-97 15,-4 77,-5 -12,-11 33,-18 17,39 71,39 2,21 75,5 -165,157 -41,14Z"/>
    <path data-fips-int="21197" data-name="Powell County" d="M2624,705l61,49 -33,61h-5l-23,-23 -57,2 -43,-44 15,-51 36,15Z"/>
    <path data-fips-int="21199" data-name="Pulaski County" d="M2377,1235l-26,8 -70,44 -43,-61 -42,12 -28,-21 -32,-31 4,-34 78,-67 70,-65 23,14 95,95 5,28 -20,18 6,34Z"/>
    <path data-fips-int="21201" data-name="Robertson County" d="M2520,337l29,55 -22,29 -53,-10 -33,-23 8,-28 40,-29Z"/>
    <path data-fips-int="21203" data-name="Rockcastle County" d="M2442,925l-1,22 30,76v13l-34,23 -31,70 -95,-95 23,-87 32,7 11,-37Z"/>
    <path data-fips-int="21205" data-name="Rowan County" d="M2803,481l15,49 28,19 12,31 -20,12 -71,46 -29,-9 -31,-52 -15,13 5,-25 -19,-9 55,-46 2,-44 20,-18 17,-9Z"/>
    <path data-fips-int="21207" data-name="Russell County" d="M2140,1152l-4,34 32,31 -100,77 -25,16 -32,-23 -8,10 -26,-24 18,-15 28,-59 53,-85 35,43Z"/>
    <path data-fips-int="21209" data-name="Scott County" d="M2293,429l28,25 10,56 16,41 -93,44 -1,8 -25,-37 -19,-6 -8,-86 68,-67 10,-11Z"/>
    <path data-fips-int="21211" data-name="Shelby County" d="M2081,598l-10,30 -23,20 -140,-60 9,-63 -27,-12 62,-14 16,-26 123,11 17,2 -17,30Z"/>
    <path data-fips-int="21213" data-name="Simpson County" d="M1478,1407h-155l5,-42 26,-63 37,-22 12,29 80,13 -2,17Z"/>
    <path data-fips-int="21215" data-name="Spencer County" d="M2048,648l-28,35 -100,19 -40,-29 -10,-8 20,-48 17,-12 1,-17Z"/>
    <path data-fips-int="21217" data-name="Taylor County" d="M1892,962l48,-3 37,30 41,-26 45,26 -27,19 -13,38 -12,21 -34,6 -35,39 -55,-94 -47,-37v-21Z"/>
    <path data-fips-int="21219" data-name="Todd County" d="M1198,1181l-7,228 -121,-2 38,-234 4,17Z"/>
    <path data-fips-int="21221" data-name="Trigg County" d="M914,1407l-70,2 1,-18 -98,-11 -16,-36 -19,-67 62,-19 63,-29 47,-7 16,-15 32,20 -8,117Z"/>
    <path data-fips-int="21223" data-name="Trimble County" d="M1947,266l50,70 19,11 -46,50 -15,2 -52,-17 9,-22 -19,-64 9,-26Z"/>
    <path data-fips-int="21225" data-name="Union County" d="M889,794l6,-4 12,69 -90,85 -26,-16v-21l-29,22 -31,-39 -9,-49 44,-40 13,-32 37,15 19,-22 -8,-50 45,75Z"/>
    <path data-fips-int="21227" data-name="Warren County" d="M1484,1124l52,49 28,-13 45,23 -23,70 -105,86 2,-17 -80,-13 -12,-29 -30,-64 27,-74 -2,-26 57,-4 20,22Z"/>
    <path data-fips-int="21229" data-name="Washington County" d="M2080,727l11,19 -8,98 -3,26 -98,1 -37,-11 -27,-43 45,-56 63,-36Z"/>
    <path data-fips-int="21231" data-name="Wayne County" d="M2281,1287l2,26 -42,45 -45,74 -86,-5 -20,-41 5,-34 -27,-58 100,-77 28,21 42,-12Z"/>
    <path data-fips-int="21233" data-name="Webster County" d="M1062,899l-54,44 -43,14 -96,58 6,-15 -20,-23 -38,6v-39l90,-85 103,-3 5,26Z"/>
    <path data-fips-int="21235" data-name="Whitley County" d="M2492,1235l15,55 38,31 -3,20 48,39 -33,24 12,31h-130l-38,-47 -22,-73 25,-73 18,-15 32,18Z"/>
    <path data-fips-int="21237" data-name="Wolfe County" d="M2846,813l7,23 -61,-15 -27,36 -30,-1 -43,-15 -40,-26 33,-61 42,-1 16,-20 49,25Z"/>
    <path data-fips-int="21239" data-name="Woodford County" d="M2253,603l-15,61 -20,79 -22,7 -7,-32 -20,-3 10,-32 -23,-39 -6,-40v-14l59,-30 19,6Z"/>
  </g>
  <path class="mesh" transform="scale(0.1)" d="M2585,499l2,-14 -32,-22 -28,-42 22,-29 28,19 95,-41 25,24v29l58,25 -20,18 -2,44 -55,46 19,9 -5,25 15,-13 31,52 -30,-3 -3,26 -35,-8 -43,16 -55,-73 -38,-12 -4,-19 55,-57 62,15 3,35 28,7M2569,1435l-12,-31 33,-24 55,-65 73,-56 -5,-29 37,9 8,24 -8,47 25,78M2248,77l11,103 -6,47 -20,14 -59,-43M2519,540l11,16 -43,44 -88,28 -40,-23 8,-46 -20,-8 -16,-41 30,2 40,-20 35,-32 33,54 50,26M3121,511l-42,-7 -40,11 4,-55 -15,-15 15,-31 46,-44M2557,240l-37,97 -31,-6 -40,29 -20,-15 -12,-134M1446,643l111,95 37,41 -55,113 -32,16 -54,-15 -10,-17 -44,30 -18,-29 2,-24 -17,-71 10,-28M1609,1183l-45,-23 -28,13 -52,-49 -21,10 -20,-22 -57,4 2,26 -27,74 -71,-32 -44,-8 22,-11 -13,-28 11,-39 40,-43 22,-7 63,-49 55,18 8,24 30,83M561,1474l7,-138 163,8 16,36M2416,185l-80,39 -18,-26 10,-29 -12,-22 15,-20 -25,-19 -8,-42M425,1221l1,4 -3,95 -108,-3 -27,-8M2078,251l38,54 -60,36 -40,6 -19,-11 -50,-70M3039,515l-23,31 -31,9 -54,-2 -48,-44 -37,40 -28,-19 -15,-49 47,-11 -4,-49 30,-44 50,21 35,38 67,9M1995,1258l-97,-7 -23,-38 -10,-56 77,-45 35,-39 34,-6 12,-21 13,-38 27,-19h12l1,-72M925,1127l69,25 16,-11 48,-3 19,-12 31,47 -38,234M914,1407l10,-63 8,-117 -32,-20M2487,600l52,99 -15,51 -33,-7 -47,-13 -33,2 -7,-21 -25,12 5,-59 15,-36M2713,1230l-63,-23 -18,-19 -42,-9 -6,-35 -17,6 -22,-32 10,-46 69,-55h63l16,28 34,19 8,12 -17,38 7,66 15,59M1968,1422l35,-125 8,-10 32,23 25,-16 27,58 -5,34 20,41M762,929l29,-22v21l26,16v39l38,-6 20,23M742,1106l-20,14 -23,4 -10,-73 -33,-49 -23,-22M2023,1046l47,29 6,39 -53,85 -28,59 -18,15 26,24M1905,1427l-25,-39 12,-23h-22l-35,-48 40,-27 23,-39M1236,704l-3,18 32,-3v37l25,-2 13,56 -20,15 22,20 -59,24 -38,37 -43,-8 -117,-62 7,-21 32,-10 21,-23 -20,-21 9,-42M1454,1041l137,-8 46,66 -3,27M2985,555l16,32 -56,61 -79,-1 -28,-24v-31l20,-12 -12,-31M2524,750l43,44 57,-2 23,23 -43,29 -35,68 -27,-21 -53,10 -17,-44 12,-7 -12,-86 19,-21M2379,723l-43,26 -18,-50 -80,-35 15,-61 1,-8 93,-44M2986,806l-6,-43 -25,-34 15,-22 -9,-36 19,-19 48,15 68,39 27,7 -24,51 17,36 33,18 -15,4 -8,97 17,13 -12,51 -20,8 -2,36 -18,12 -17,-12 -8,-65 -30,9 2,-29 -42,-10 20,-29 -30,-97 15,7 58,-31 57,18M1478,1407l3,-68 105,-86 8,21 30,2 18,73 27,21 11,31 -10,20M262,1380l65,36 53,10 28,41M2233,241l-49,7 -5,25 -63,32M2203,824l21,9 17,34 2,8 -83,41 -22,8 -62,-7 4,-47 3,-26 120,-20 25,-17 -14,-39 19,-7 48,52 17,-21 68,97 11,28 -11,37 -32,-7 -90,-70 -3,-10M2253,227l36,5 25,136 -3,18 -32,10 -10,11 -16,-5 -24,-41 -43,-33 -7,-55M426,1225l145,7 -3,104M416,1467l7,-147M1539,892l33,10 39,7 28,62 7,13 -19,42 -36,7M1391,999l-23,-88 31,-5M1865,1157l-40,-6 -30,-33 4,-57 -9,-9 19,-66 10,-27 21,1v21l47,37 55,94M2876,377l39,-48 18,-51 -3,-23M1383,853l-80,-43M1774,773l25,43 -25,44 -25,14 -4,11 -31,34 -9,57 -66,-5M1594,779l62,-10 14,-34 -11,-65M1682,665l5,5M2758,1263l34,2 5,-16 61,-29 33,-29 25,10 -10,26 93,-36 29,21M2449,360l-8,28 33,23 -38,49M2331,510l-10,-56 -28,-25 -14,-33M2314,368l115,-23M1705,976l104,10M1795,1118l-26,6M1048,836l-38,20 -103,3 -12,-69 -6,4 -17,-7 -45,-75M2091,484l-123,-11 -26,-54 13,-20 15,-2 46,-50M2056,341l32,25 -10,24 63,50 5,32M2081,598l10,-82 17,-30 -17,-2 45,-11 10,-1 55,2 8,86 -59,30v14l6,40 23,39 -36,18 -22,-8 -41,34 -54,-2 -6,-42 28,-35 23,-20 10,-30 59,17 10,-11M869,1015l3,61 53,51 -15,70 -10,10 -16,15 -47,7 -51,-75 -20,-44 -24,-4 17,-28 116,-78 -6,15 96,-58 43,-14 54,-44 10,24 -2,56 25,18 -20,44 -18,14 -2,9 28,46 -6,16M2569,912l8,14 35,81 12,10M2555,1072l-50,-8 -34,-28v-13l-30,-76 1,-22 24,-24h23M1815,461l75,52 27,12 -9,63 -1,17M2336,749l-10,25 -28,18M2214,768l4,-25 20,-79M2336,224l-47,8M2986,924l10,8M3091,1039l-8,8 -57,14 -13,19 -38,23 -7,-10 -30,-28 -25,7 3,-52 -6,-41M2590,1380l-48,-39 3,-20 -38,-31 -15,-55 27,-18 33,5 15,-33 23,-10M380,1071l45,150 -60,11 -43,-6 -22,-4M1799,816l31,17 5,93 32,-12 25,48 -52,-2M2492,1235l-38,10 -32,-18 -18,15 -27,-7 20,-26 -6,-34 20,-18 -5,-28 31,-70 34,-23M3172,675l-36,-4 -13,42M2961,671l-16,-23M2647,815h5l40,26 43,15M2712,929l-35,-16 -38,24 -37,5 -25,-16M2745,1076l10,-23 37,-18 21,6 14,39 53,26 -10,22 26,18 -5,45M3083,1047l28,24 18,-12 29,27M2916,1201l30,-9 -3,-53 25,-46M2803,481l-31,-42 -17,9M2672,370l6,-47 -11,-13M2334,947l-23,87 -23,-14 -70,65M699,1124l-15,30 -5,60 -28,-37 -28,-10 -50,21 -35,-33M1361,1216l30,64 -37,22 -26,63 -5,42M1191,1409l7,-228 48,-5M837,1229l-63,29 -62,19 -13,-37 -20,-26M573,1188l-2,44M2404,1242l-25,73 22,73 38,47M2196,1432l45,-74 42,-45 -2,-26 70,-44 26,-8M1208,906l-32,48 4,32 -47,17 -38,-6M1062,899l-47,-17 -5,-26M2442,925l-65,-8M2853,836l55,32 17,-13 31,25 -1,19 31,25 -65,-7 -18,34 7,28 -32,-3 -8,-17 -73,61 -39,-21 -31,24 3,-47 -18,-47 23,-73 30,1 27,-36 61,15 -7,-23 -6,-31 68,-55 -8,-15 55,17M1867,914l28,-68 23,-29 27,43 37,11 98,-1M2063,989l-45,-26 -41,26 -37,-30 -48,3M1586,1253l23,-70 17,5 8,-62 61,10 74,-12 -12,16 12,74 3,91 -35,13 -68,52M712,1277l19,67M3247,784l-33,18 12,11 -77,5M2549,392l-29,-55M2738,629l29,9 -2,49 -22,46 -16,20 -42,1 -61,-49 3,-45M2083,844l8,-98 -11,-19M2179,683l-10,32 20,3 7,32 22,-7M1835,1317l-63,-12M2624,705l-49,9 -36,-15M2846,813l-54,-55 -49,-25M2767,638l71,-46M1198,1181l-86,9 -4,-17M1180,986l3,21 45,29 2,25 36,37M2026,725l-63,36 -45,56M1880,673l-18,15 -20,45 -43,37 -25,3 -45,-38 -5,-36 -24,2 -13,-31 33,-26 64,-22 68,7 55,-24 -17,12 -20,48 10,8 40,29 100,-19M2474,411l53,10M1968,473l-16,26 -62,14M1903,382l52,17M2269,407l-68,67M2727,1023l10,41M2685,754l-33,61M2281,1287l-43,-61 -42,12 -28,-21 -32,-31 4,-34M2311,1034l95,95M2168,1217l-100,77M2253,603l-25,-37 -19,-6M2048,648l-140,-60M1391,1280l12,29 80,13 -2,17M907,859l-90,85M2160,916v66l56,35 2,68 -78,67 -29,5 -35,-43"/>
  <g class="cities">
    <circle r="3" cx="176.4" cy="53.1"/>
    <text x="176.4" y="53.1">Louisville</text>
    <circle r="3" cx="232.6" cy="63.9"/>
    <text x="232.6" y="63.9">Lexington</text>
    <circle r="3" cx="146.5" cy="122.2"/>
    <text x="146.5" y="122.2">Bowling Green</text>
  </g>
</svg>