<?xml version="1.0" encoding="utf-8"?>
<!DOCTYPE svg PUBLIC "-//W3C//DTD SVG 1.1//EN" "http://www.w3.org/Graphics/SVG/1.1/DTD/svg11.dtd">
<svg version="1.1" xmlns="http://www.w3.org/2000/svg" width="350" height="152" viewBox="0 0 350 152">
  <g class="counties" transform="scale(0.1)">
    <path data-fips-int="21001" data-name="Adair County" d="M2023,1046l23,16 24,13 2,34 4,5 -21,36 -14,20 -18,29 -17,20 -11,39 -96,-7 4,-9 -27,-28 -8,-33 -2,-24 40,-19 25,-15 10,-11 16,-18 1,-8 19,-13 21,0 14,-7 1,-17Z"/>
    <path data-fips-int="21003" data-name="Allen County" d="M1586,1253l2,6 -7,5 9,4 2,-11 14,22 4,11 5,-18 10,-1 2,13 -3,6 3,13 7,7 -7,11 11,2 4,15 -7,2 6,8 16,2 9,10 3,9 -1,4 12,29 0,7 -10,12 -144,-10 -49,-3 -3,-14 4,-19 -2,-11 4,-25 63,-52 -1,-12 14,-2 4,-8 4,5 7,-18 4,8Z"/>
    <path data-fips-int="21005" data-name="Anderson County" d="M2150,604l3,14 7,-6 6,11 -6,5 4,9 -7,3 7,10 -2,13 9,4 -3,11 12,6 -38,16 -21,-7 -17,11 -3,11 -22,13 -16,-3 -1,6 -16,-4 0,-9 -8,-5 -7,15 -5,-3 -7,-41 2,-10 15,-4 1,-13 10,-9 8,-2 13,-19 6,-24 7,-6 12,1 17,10 19,8 11,-1Z"/>
    <path data-fips-int="21007" data-name="Ballard County" d="M426,1221l-16,0 -40,10 -4,1 -17,5 -5,-4 -19,0 -8,-6 -4,11 -8,-16 -4,1 1,-11 -9,-11 -6,0 -13,-11 -6,-10 -1,-12 3,-10 27,-27 14,-27 17,-17 14,-11 16,-5 20,0 22,67Z"/>
    <path data-fips-int="21009" data-name="Barren County" d="M1772,1304l-14,3 -15,8 -74,54 -3,-9 -9,-10 -16,-2 -6,-8 7,-2 -4,-15 -11,-2 7,-11 -7,-7 -3,-13 3,-6 -2,-13 -10,1 -5,18 -4,-11 -14,-22 -2,11 -9,-4 7,-5 -2,-6 23,-69 17,4 8,-62 28,5 37,5 22,-1 23,-7 26,-4 -14,18 3,15 6,1 -1,22 4,34Z"/>
    <path data-fips-int="21011" data-name="Bath County" d="M2678,556l11,6 2,-6 7,9 -10,5 -3,7 3,9 10,-1 8,-7 10,8 -2,10 10,-4 5,5 -4,10 9,9 6,-4 11,2 2,5 -14,11 -33,-4 1,21 -3,5 -13,3 -6,-9 -16,-2 -12,9 -12,5 -10,-3 -9,6 2,-4 -20,-19 -7,-20 -26,-29 -4,-3 -32,-8 -7,-7 -1,-14 45,-50 10,-9 11,-2 4,10 7,-5 16,3 13,-5 -4,13 12,1 -3,9 10,5 2,7 -4,12 7,-4 5,10 6,-3 5,16Z"/>
    <path data-fips-int="21013" data-name="Bell County" d="M2749,1239l0,8 9,3 -6,11 6,2 -2,17 5,10 -11,21 11,13 -5,27 7,13 11,7 0,18 -14,-3 -17,3 -19,14 -17,4 -15,9 -18,20 -105,-1 2,-8 -13,-25 33,-18 0,-3 0,-1 2,-11 8,1 10,-10 0,-11 9,-3 4,-20 5,-8 21,-5 21,-15 3,-11 18,-7 3,-11 7,1 3,-7 13,-4 5,-19 -9,-9Z"/>
    <path data-fips-int="21015" data-name="Boone County" d="M2247,78l10,91 2,16 -7,42 -11,2 -8,12 -39,-30 -4,-9 -14,-4 4,-13 -8,-7 -28,-3 -5,-8 4,-9 16,-17 1,-9 -14,-22 -16,-20 4,-7 12,-6 15,-15 15,-5 9,-14 10,-5 11,5 13,19 16,6Z"/>
    <path data-fips-int="21017" data-name="Bourbon County" d="M2531,557l-6,10 -38,33 -88,28 -14,-14 -3,4 -24,-14 5,-7 -3,-19 8,-11 -1,-9 -9,-9 -10,2 -7,-3 -2,-23 -9,-15 11,-3 19,5 3,-9 9,6 16,-13 11,-3 37,-33 12,9 18,32 4,13 9,7 3,-8 4,9 10,0 -2,12 15,8 8,0 9,9 -1,-9 9,5Z"/>
    <path data-fips-int="21019" data-name="Boyd County" d="M3121,511l-2,-9 -10,-2 -29,4 -17,15 -10,1 -13,-4 4,-58 3,-8 -19,-5 2,-11 14,-13 3,-10 43,-41 6,7 16,10 5,7 4,21 3,26 -1,15 10,14 -3,14 3,17 -4,10Z"/>
    <path data-fips-int="21021" data-name="Boyle County" d="M2203,824l1,9 18,-1 1,9 9,3 -9,5 10,8 6,-1 2,11 3,5 -15,6 -16,13 -28,9 -25,15 -22,9 -45,0 -1,-7 -16,0 4,-47 2,-26 10,0 85,-15 5,-7Z"/>
    <path data-fips-int="21023" data-name="Bracken County" d="M2557,241l-26,67 -10,29 -18,6 -5,-9 -17,1 -15,19 -10,8 -8,-2 -3,-3 -17,5 2,-18 -16,-130 2,-3 5,8 9,6 19,3 35,13 12,0 23,-8 18,-1 10,7Z"/>
    <path data-fips-int="21025" data-name="Breathitt County" d="M2853,836l19,13 5,-2 14,6 13,16 7,-3 11,-12 12,12 3,10 8,4 11,0 -1,18 13,15 12,2 6,8 -12,3 -24,-3 -14,-11 -3,5 -11,0 1,11 -18,23 5,28 -25,-2 -7,-2 -7,-15 -24,24 -17,12 -10,0 -6,9 -4,-2 -11,16 -10,0 -22,-21 -9,0 -12,20 -14,7 -4,-2 5,-11 -7,-13 5,-23 -7,-7 1,-18 -7,-3 -7,-19 23,-73 12,-4 1,14 14,-6 13,-30 17,-9 11,8 15,5 6,-5 21,1Z"/>
    <path data-fips-int="21027" data-name="Breckinridge County" d="M1594,779l-54,113 -10,4 -4,-4 -20,3 1,12 -10,4 -7,-7 -9,2 -15,-12 -13,-1 1,-8 -16,-10 -11,4 -3,8 8,0 -6,7 -17,-5 2,9 -10,9 -11,-13 -9,-17 2,-24 6,4 -23,-76 5,-23 5,-4 9,-1 16,-13 0,-23 5,-6 21,3 14,-7 -8,-19 0,-36 6,-8 8,-1 33,31 75,62 29,33Z"/>
    <path data-fips-int="21029" data-name="Bullitt County" d="M1880,673l-18,15 4,5 -12,17 -15,9 4,14 -16,8 1,6 -18,16 -30,10 -7,0 -2,-6 -13,-11 -17,-8 -12,-14 6,-10 -1,-9 -9,-4 -4,-13 -20,3 2,-15 -3,-12 -13,-4 10,-6 4,-11 10,-6 73,-25 68,7 54,-25 -3,9 -14,4 -20,47Z"/>
    <path data-fips-int="21031" data-name="Butler County" d="M1484,1124l-5,9 -14,-7 0,6 -10,1 -13,-21 -13,7 -36,-5 -7,3 5,15 -28,84 -74,-32 -42,-8 21,-10 -4,-13 2,-9 -8,1 -3,-10 1,-20 9,-2 1,-15 14,-20 7,0 11,-17 1,-8 7,1 -5,-15 9,-7 12,5 6,11 65,-49 54,19 8,22Z"/>
    <path data-fips-int="21033" data-name="Caldwell County" d="M869,1016l-10,4 -7,13 15,8 -1,-8 11,0 -6,14 6,2 -5,27 20,18 10,15 11,2 2,9 10,7 -15,70 -10,10 -14,15 -41,12 -8,-5 -42,-60 -28,-59 -24,-4 6,-2 -3,-19 17,-10 112,-75 -12,14Z"/>
    <path data-fips-int="21035" data-name="Calloway County" d="M732,1343l13,25 2,13 11,42 5,34 -4,17 -6,6 -57,-1 -135,-5 4,-72 2,-65 135,4Z"/>
    <path data-fips-int="21037" data-name="Campbell County" d="M2416,185l-63,33 -17,6 -4,-12 -7,5 -7,-16 9,-32 -10,-23 7,-2 7,-13 -4,-6 -6,11 -6,-7 6,-8 -16,-15 -2,-26 -6,-14 10,-12 10,-3 11,13 1,21 10,7 20,2 15,8 9,11 5,21 6,12 20,28Z"/>
    <path data-fips-int="21039" data-name="Carlisle County" d="M427,1225l-3,95 -84,-2 -27,-1 1,-8 -17,-7 -9,7 -19,-5 -4,-7 0,-16 10,-7 8,0 10,-21 8,-30 4,-1 8,16 4,-11 8,6 19,0 5,4 17,-5 4,-1 40,-10 16,0Z"/>
    <path data-fips-int="21041" data-name="Carroll County" d="M2117,305l-1,6 -14,1 -4,8 -16,2 -4,10 -18,4 -3,5 -40,7 -18,3 -2,-13 -6,-13 -44,-54 -1,-5 11,-4 19,2 7,4 10,16 15,8 21,-6 15,-15 34,-20 26,44Z"/>
    <path data-fips-int="21043" data-name="Carter County" d="M3028,445l19,5 -3,8 -4,58 -12,6 0,14 -15,10 -11,-3 -17,12 -9,4 -14,-2 -6,-10 -10,-7 -15,7 -12,-7 -4,-9 -23,-11 -9,-11 -8,-1 -4,8 -14,8 0,16 -10,9 -10,1 -8,-12 -7,3 -5,-24 -14,-36 12,-8 12,4 16,-3 8,-8 -4,-7 2,-9 -2,-29 12,-8 8,-15 -1,-15 10,-5 12,3 14,9 4,-1 20,9 36,38 7,-4 17,0Z"/>
    <path data-fips-int="21045" data-name="Casey County" d="M2160,915l-4,11 0,38 4,18 23,19 32,17 8,31 -7,7 1,29 -38,34 -40,33 -7,5 -16,3 -8,-6 -32,-40 -4,-5 -2,-34 -24,-13 -23,-16 14,-27 0,-11 14,-10 5,1 6,-9 13,0 0,-52 1,-21 16,0 1,7 45,0Z"/>
    <path data-fips-int="21047" data-name="Christian County" d="M1076,1126l0,14 13,14 8,-1 3,19 8,1 -1,11 -16,94 -20,130 -158,0 11,-65 0,-36 4,-50 4,-30 -32,-20 10,-10 15,-70 13,2 23,11 32,12 19,-11 46,-3 7,-2 0,-10Z"/>
    <path data-fips-int="21049" data-name="Clark County" d="M2539,700l-12,9 -1,20 -7,11 5,11 -6,3 -10,-1 -8,-7 0,8 -8,5 -2,-15 0,-1 -15,1 -6,-8 -16,3 -7,-9 -15,5 -9,-9 -12,6 2,-10 -8,-11 -26,13 -4,-3 4,-23 6,-9 0,-25 17,-11 -2,-25 88,-28 16,29 22,41Z"/>
    <path data-fips-int="21051" data-name="Clay County" d="M2736,1064l8,2 2,10 -10,3 11,14 -19,21 0,27 8,8 -7,13 7,5 -2,12 13,25 -5,3 7,32 -35,-8 -12,-4 -11,2 -9,-9 -14,-3 -19,-13 -4,-10 -14,6 0,-12 -21,6 0,-7 -15,-1 -5,-7 -8,-11 11,-9 -2,-7 -9,-8 -17,5 -9,-21 -11,-10 12,-19 -1,-27 9,-6 9,4 8,-29 9,0 17,-14 12,0 4,-10 30,5 16,1 4,-10 8,-2 13,23 11,12 6,-2 8,16 10,-1Z"/>
    <path data-fips-int="21053" data-name="Clinton County" d="M2068,1293l3,14 15,15 10,28 -8,21 0,13 9,9 1,29 11,5 -25,-2 -54,-2 -63,-1 22,-65 14,-60 0,-5 -10,-11 4,-3 21,13 27,20Z"/>
    <path data-fips-int="21055" data-name="Crittenden County" d="M800,932 4,9 -7,5 9,2 13,-5 -5,9 2,22 3,9 11,5 15,-3 10,-8 1,14 -7,8 8,3 10,-7 8,5 -112,75 -17,10 3,19 -6,2 -5,8 -10,11 -10,-3 -4,8 -12,3 -1,-10 2,-8 -13,-12 10,-17 -2,-11 -6,-21 -20,-24 -14,-12 -2,-15 -2,-3 4,-6 -8,-10 -12,2 -5,-6 22,-20 23,-7 28,-2 24,-5 21,0 10,-9 2,-9 6,-6 6,2 8,-18 8,2 0,20Z"/>
    <path data-fips-int="21057" data-name="Cumberland County" d="M1995,1258l-19,15 12,10 3,12 12,2 -14,60 -22,65 -61,4 -26,-38 11,-22 -7,-4 -12,2 -11,-14 -2,-9 -11,2 -9,-4 -3,-22 9,-11 -11,-19 9,2 8,10 11,-6 12,-3 15,-15 10,-24Z"/>
    <path data-fips-int="21059" data-name="Daviess County" d="M1303,811l-19,15 21,20 -22,13 -11,3 -12,10 -6,0 -8,-2 -26,28 -12,8 -10,-6 -15,3 -18,-5 -9,-7 -39,-17 -68,-37 5,-10 1,-13 10,-7 22,-2 14,-10 8,-11 -10,-2 -6,-9 3,-5 -9,-5 10,-43 19,16 17,12 23,4 11,16 4,14 15,1 12,-11 10,-33 0,-15 10,-11 19,-9 1,8 -4,12 22,-8 9,4 1,8 7,3 -6,7 -3,16 5,5 21,-5 4,11 11,16Z"/>
    <path data-fips-int="21061" data-name="Edmonson County" d="M1590,1033l47,66 -3,27 -8,62 -17,-4 -34,-9 -12,-15 -13,8 -14,5 -52,-49 -29,-84 61,-2 52,-3 8,2Z"/>
    <path data-fips-int="21063" data-name="Elliott County" d="M2985,555l7,10 1,13 8,11 -7,9 -5,-2 -10,13 -5,15 -12,0 -17,24 -15,5 0,-4 -19,-2 -18,8 -14,-10 -8,3 -12,-8 -1,-10 -19,-7 0,-30 7,-10 11,-1 7,-24 -17,0 -9,-6 9,-3 10,-9 0,-16 14,-8 4,-8 8,1 9,11 23,11 4,9 12,7 15,-7 10,7 6,10 14,2Z"/>
    <path data-fips-int="21065" data-name="Estill County" d="M2518,754 6,-3 4,-6 13,2 0,24 26,22 11,3 17,-5 8,9 9,-7 10,0 6,10 18,5 1,7 -12,1 -13,15 -18,13 6,16 -13,0 -12,11 4,4 -20,37 -15,-16 -11,-5 -35,11 -19,-2 -10,-21 -7,-22 16,-11 -5,-7 4,-7 0,-18 3,-23 -11,-5 14,-14 -12,-7 -6,5 -2,-6 7,-13 6,2 4,-9 0,-1 0,1 2,15 8,-5 0,-8 8,7Z"/>
    <path data-fips-int="21067" data-name="Fayette County" d="M2399,628l2,25 -17,11 0,25 -6,9 -4,23 4,3 -2,5 -13,-10 -5,4 8,18 -11,8 -11,-14 -8,14 1,-12 -8,-20 -8,-8 -5,-11 -49,-25 -29,-9 15,-61 2,-8 93,-44 10,-2 9,9 1,9 -8,11 3,19 -5,7 24,14 3,-4Z"/>
    <path data-fips-int="21069" data-name="Fleming County" d="M2754,448l-2,12 -16,6 0,14 -7,17 4,13 -22,18 -1,10 -12,1 -11,14 -9,3 -5,9 -5,-16 -6,3 -5,-10 -7,4 4,-12 -2,-7 -10,-5 3,-9 -12,-1 4,-13 -13,5 -16,-3 -7,5 -4,-10 -11,2 6,-9 -9,-9 -2,-12 -7,-5 -11,8 2,-10 -9,1 -3,-11 -12,-21 -14,-9 4,-13 17,-16 31,19 57,-27 36,-13 5,2 3,10 10,1 10,24 0,15 24,11 4,-4 6,8 6,-2Z"/>
    <path data-fips-int="21071" data-name="Floyd County" d="M3115,800l34,19 -12,2 -10,6 8,15 -9,67 1,9 9,-1 6,17 1,16 -5,3 -7,30 -15,3 -5,7 8,8 -6,6 -4,20 -12,4 -4,8 -6,-1 -2,-9 -11,-3 0,-15 -5,-7 4,-27 -6,-14 -14,0 -6,9 -11,-2 4,-13 -3,-15 -42,-7 1,-3 7,-3 5,-10 2,-31 -6,-6 -2,-34 -3,-7 -14,-10 1,-25 14,2 3,5 13,-15 11,0 24,-10 8,2 2,-8 12,6 6,-2 16,10Z"/>
    <path data-fips-int="21073" data-name="Franklin County" d="M2146,472l14,0 19,10 22,-8 6,79 2,7 -59,30 0,14 -10,11 -11,1 -19,-8 -17,-10 -12,-1 8,-16 -1,-9 2,-27 1,-27 18,-32 -18,-2 39,-21 6,10Z"/>
    <path data-fips-int="21075" data-name="Fulton County" d="M124,1458l-26,1 -9,-20 -2,-14 5,-8 14,-3 19,6 7,20ZM326,1415 0,1 37,2 7,7 10,1 29,42 -77,-3 -125,-7 -55,3 9,-29 7,-12 8,-25 15,-6 13,10 3,11 13,15 15,1 13,-13 3,-17 10,-16 14,3Z"/>
    <path data-fips-int="21077" data-name="Gallatin County" d="M2233,241l-51,7 -2,25 -20,5 -5,8 -6,-2 -13,13 -19,8 -13,-10 -26,-44 13,-10 22,2 24,-11 29,6 3,-5 -8,-16 2,-9 13,-10 14,4 4,9Z"/>
    <path data-fips-int="21079" data-name="Garrard County" d="M2299,792l14,16 3,17 14,9 -5,3 14,18 3,10 6,3 -4,6 9,2 1,8 10,4 2,12 11,17 -5,13 2,9 -8,15 -32,-7 -11,-4 -64,-54 -14,-12 6,-3 -10,-7 -2,-11 -6,1 -10,-8 9,-5 -9,-3 -1,-9 -18,1 -1,-9 25,-16 -7,-3 4,-6 -8,-4 4,-15 -6,-12 14,-8 4,5 -1,16 4,4 9,-4 -6,-8 6,-2 17,5 -15,5 0,8 14,5 -2,11 14,-3 -1,10 7,3 6,-11Z"/>
    <path data-fips-int="21081" data-name="Grant County" d="M2289,232l-1,1 14,77 12,58 -4,19 -15,0 -16,9 -10,11 -16,-4 -9,-12 -2,-9 -13,-8 4,-5 -7,-9 -41,-32 -5,-55 2,-25 51,-7 8,-12 11,-2 8,6Z"/>
    <path data-fips-int="21083" data-name="Graves County" d="M571,1232l-1,37 -3,68 -2,65 -4,72 -12,-1 -133,-5 3,-83 2,-15 -1,-41 4,-9 3,-95 44,2 5,2Z"/>
    <path data-fips-int="21085" data-name="Grayson County" d="M1540,892l4,2 9,-7 5,15 11,-1 9,10 10,-7 9,7 13,-3 21,31 6,17 -7,11 9,4 2,4 0,21 7,6 -17,2 -2,19 -6,6 -9,-5 -1,11 -5,-5 -17,-2 -1,5 -14,4 -8,-2 -52,3 -61,2 -8,-22 -54,-19 -22,-81 0,-7 7,1 10,-6 12,15 8,-5 -7,-9 10,-9 -2,-9 17,5 6,-7 -8,0 3,-8 11,-4 16,10 -1,8 13,1 15,12 9,-2 7,7 10,-4 -1,-12 20,-3 4,4Z"/>
    <path data-fips-int="21087" data-name="Green County" d="M1840,960 0,20 45,37 22,33 18,32 -9,9 3,5 14,0 8,16 -10,11 -25,15 -40,19 -28,-3 -18,-5 -13,-10 -11,-21 2,-43 0,-15 -7,-7 3,-28 8,-15 8,-7 -2,-17 -4,-8 12,-9 2,-10Z"/>
    <path data-fips-int="21089" data-name="Greenup County" d="M3090,370l-43,41 -3,10 -14,13 -2,11 -42,-13 -17,0 -7,4 -36,-38 -20,-9 -4,1 -14,-9 -12,-3 11,-18 10,-2 10,-23 7,-9 -4,-8 3,-12 9,-4 1,-13 11,-12 -6,-6 2,-16 22,0 30,-16 9,-2 7,13 -2,23 7,13 5,29 4,12 10,8 14,7 25,0 18,12Z"/>
    <path data-fips-int="21091" data-name="Hancock County" d="M1376,754l-5,4 -5,23 23,76 -6,-4 -80,-42 2,-30 -11,-16 -4,-11 -21,5 -5,-5 3,-16 6,-7 -7,-3 -1,-8 -9,-4 -22,8 4,-12 -1,-8 25,-3 6,-3 20,-23 17,-8 12,8 2,8 16,33 8,9 6,1 16,-12 14,3 2,7 -8,19Z"/>
    <path data-fips-int="21093" data-name="Hardin County" d="M1687,670l13,4 3,12 -2,15 20,-3 4,13 9,4 1,9 -6,10 12,14 17,8 13,11 2,6 -1,12 10,7 17,22 -1,2 -26,45 -16,6 1,5 -12,5 3,5 -8,12 -3,8 -24,17 -7,57 -67,-5 -9,-4 7,-11 -6,-17 -21,-31 -13,3 -9,-7 -10,7 -9,-10 -11,1 -5,-15 -9,7 -4,-2 54,-113 63,-10 13,-31 -9,-68 21,-5Z"/>
    <path data-fips-int="21095" data-name="Harlan County" d="M2918,1201l-12,9 0,17 49,-18 8,3 5,-8 18,-5 12,-9 31,22 6,24 -9,12 5,5 -17,14 -28,10 -12,1 -3,5 -9,-4 -20,1 -1,8 -12,7 2,8 -10,15 -5,1 4,13 -4,9 -27,4 -39,15 -27,8 -16,8 -4,5 -16,7 -13,1 0,-18 -11,-7 -7,-13 5,-27 -11,-13 11,-21 -5,-10 2,-17 16,2 20,0 5,-6 -2,-11 32,-11 16,-8 22,-18 6,-12 17,0 1,-9 10,0Z"/>
    <path data-fips-int="21097" data-name="Harrison County" d="M2448,360l-6,11 -2,20 8,-3 -4,9 9,-2 2,7 7,-4 13,13 -39,49 -37,33 -11,3 -16,13 -9,-6 -3,9 -19,-5 -11,3 4,-11 -13,-28 2,-12 -14,-20 -16,-11 0,-10 -8,-6 -6,-16 16,-9 15,0 4,-19 18,4 10,-17 4,3 84,-14 -2,18 17,-5Z"/>
    <path data-fips-int="21099" data-name="Hart County" d="M1706,976l62,5 7,3 33,2 2,17 -8,7 -8,15 -3,28 7,7 0,15 -2,43 -26,6 -26,4 -23,7 -22,1 -37,-5 -28,-5 3,-27 -47,-66 1,-5 17,2 5,5 1,-11 9,5 6,-6 2,-19 17,-2 -7,-6 0,-21 -2,-4Z"/>
    <path data-fips-int="21101" data-name="Henderson County" d="M1097,720l-10,43 9,5 -3,5 6,9 10,2 -8,11 -14,10 -22,2 -10,7 -1,13 -5,10 -5,7 -23,2 -10,10 -104,3 -9,-18 2,-4 0,-30 -6,-11 -13,-4 2,-7 -10,3 -46,-75 8,-11 7,-4 10,6 15,23 18,1 14,-8 21,-1 12,-6 8,7 0,8 -8,11 6,17 23,-2 11,-15 -2,-17 -10,-8 -4,-12 8,-10 5,-16 11,3 -1,8 10,16 21,10 24,-19 17,0 11,4 20,16Z"/>
    <path data-fips-int="21103" data-name="Henry County" d="M2146,472l-10,1 -6,-10 -39,21 -122,-11 -19,-26 -3,-21 -6,-9 14,-18 2,-4 13,2 17,-21 30,-28 40,-7 1,12 5,5 10,-4 15,12 -10,15 3,10 7,-6 11,2 -4,14 10,5 5,7 -4,16 10,4 0,-13 8,-6 4,8 -6,9 19,7 -7,16 1,8 12,4Z"/>
    <path data-fips-int="21105" data-name="Hickman County" d="M424,1320l-4,9 1,41 -2,15 -3,83 -7,0 -29,-42 -10,-1 -7,-7 -37,-2 0,-1 -51,-32 -14,-3 8,-6 -4,-14 -13,-15 2,-13 13,-10 20,4 4,-11 -3,-6 9,-7 17,7 -1,8 27,1Z"/>
    <path data-fips-int="21107" data-name="Hopkins County" d="M1070,922 3,8 -5,7 3,41 24,19 -5,14 -17,22 2,7 -12,-3 -5,3 -1,15 -4,15 18,19 -2,4 19,14 -12,19 -11,0 0,10 -7,2 -46,3 -19,11 -32,-12 -23,-11 -13,-2 -10,-7 -2,-9 -11,-2 -10,-15 -20,-18 5,-27 -6,-2 6,-14 -11,0 1,8 -15,-8 7,-13 10,-4 69,-42 28,-17 42,-14 54,-44Z"/>
    <path data-fips-int="21109" data-name="Jackson County" d="M2569,912l9,14 1,22 9,14 7,2 10,20 7,22 12,11 -4,10 -12,0 -17,14 -9,0 -8,29 -9,-4 -9,6 -27,-1 -23,-7 2,-7 -9,-2 -16,-13 -4,-14 -7,8 -4,-6 0,-12 5,-2 -17,-15 4,-19 -4,-2 -16,-35 2,-20 11,-19 13,-4 23,-2 19,2 35,-11 11,5Z"/>
    <path data-fips-int="21111" data-name="Jefferson County" d="M1890,513l26,12 -8,63 -2,16 -54,25 -68,-7 -73,25 -10,6 -4,11 -10,6 -5,-5 11,-10 8,-47 -2,-27 6,-15 19,-18 6,-13 4,-17 16,-7 22,11 25,-15 11,-15 8,-20 0,-11Z"/>
    <path data-fips-int="21113" data-name="Jessamine County" d="M2336,749l-11,2 -4,-5 -6,9 11,18 -10,2 -5,8 -12,5 0,4 -14,12 -6,11 -7,-3 1,-10 -14,3 2,-11 -14,-5 0,-8 15,-5 -17,-5 -6,2 6,8 -9,4 -4,-4 1,-16 -4,-5 -14,8 -3,-10 13,-6 2,-7 -9,-2 20,-79 29,9 49,25 5,11 8,8 8,20Z"/>
    <path data-fips-int="21115" data-name="Johnson County" d="M3125,713l-20,12 -5,6 11,9 -12,24 10,5 -2,11 10,16 -2,4 -20,-4 -16,-10 -6,2 -12,-6 -2,8 -8,-2 -24,10 -11,0 -13,15 -3,-5 -14,-2 -4,-1 -2,-41 -15,-9 -1,-16 -9,-10 7,-7 0,-15 10,3 1,-11 -11,-16 -2,-12 8,-14 13,-6 27,11 20,5 36,23 33,17Z"/>
    <path data-fips-int="21117" data-name="Kenton County" d="M2297,66l6,14 2,26 16,15 -6,8 6,7 6,-11 4,6 -7,13 -7,2 10,23 -9,32 7,16 7,-5 4,12 -47,8 -29,1 -8,-6 7,-42 -2,-16 -10,-91 22,-5 9,-10 11,4Z"/>
    <path data-fips-int="21119" data-name="Knott County" d="M2986,923l10,9 -1,3 42,7 3,15 -4,13 11,2 6,-9 14,0 6,14 -4,27 5,7 0,15 11,3 2,9 6,1 -10,8 -30,6 -7,-3 -24,15 0,6 -20,18 -16,6 -6,8 -12,-11 -2,-5 -21,-4 -7,-17 -7,0 -7,6 -12,0 1,-29 5,-6 0,-11 -8,-47 -5,-28 18,-23 -1,-11 11,0 3,-5 14,11 24,3Z"/>
    <path data-fips-int="21121" data-name="Knox County" d="M2714,1231l9,9 -5,19 -13,4 -3,7 -7,-1 -3,11 -18,7 -3,11 -21,15 -21,5 -5,8 -4,20 -9,3 0,11 -10,10 -8,-1 -2,11 0,1 0,-1 -36,-21 -5,-18 -8,1 4,-10 -3,-13 -7,0 -3,-8 -8,-1 -8,-10 1,-7 -11,-2 2,-7 -4,-13 -7,-7 0,-17 -5,-12 14,-11 8,-1 4,-6 33,5 11,-10 5,-23 6,3 16,-13 5,7 15,1 0,7 21,-6 0,12 14,-6 4,10 19,13 14,3 9,9 11,-2Z"/>
    <path data-fips-int="21123" data-name="Larue County" d="M1836,926 14,4 7,-20 11,4 10,3 5,25 5,5 4,15 -11,-1 -4,-8 -12,15 -22,-6 -3,-2 -22,-1 -2,10 -12,9 4,8 -33,-2 -7,-3 -62,-5 7,-57 24,-17 3,-8 8,-12 -3,-5 12,-5 -1,-5 16,-6 26,-45 15,9 3,11 14,-2 6,3 -3,31 12,0 -1,11 -18,1 10,7 -6,7 1,14 -9,12 8,-3Z"/>
    <path data-fips-int="21125" data-name="Laurel County" d="M2556,1072l1,27 -12,19 11,10 9,21 17,-5 9,8 2,7 -11,9 8,11 -16,13 -6,-3 -5,23 -11,10 -33,-5 -4,6 -8,1 -14,11 -13,-7 -5,5 -7,-4 -4,13 -10,3 -17,-11 -6,10 -3,-7 -15,-4 -9,9 -27,4 0,-11 6,-5 -3,-11 16,-6 -7,-16 7,3 5,-8 -7,-2 -3,-11 11,-15 6,0 2,-15 -6,-16 2,-4 -5,-10 15,-7 -7,-8 9,-5 2,-18 6,6 5,-11 5,3 1,-21 3,2 12,-9 20,-9 0,-6 7,-8 4,14 16,13 9,2 -2,7 23,7Z"/>
    <path data-fips-int="21127" data-name="Lawrence County" d="M3121,511l-2,8 6,10 -6,24 -13,1 3,17 23,16 1,10 14,9 17,36 12,3 2,15 5,7 -10,8 -16,-9 -14,6 -6,-1 0,13 -8,5 2,17 -6,7 -28,-6 -33,-17 -36,-23 -20,-5 -27,-11 -13,6 -8,14 -11,-4 -4,-19 17,-24 12,0 5,-15 10,-13 5,2 7,-9 -8,-11 -1,-13 -7,-10 17,-12 11,3 15,-10 0,-14 12,-6 13,4 10,-1 17,-15 29,-4 10,2Z"/>
    <path data-fips-int="21129" data-name="Lee County" d="M2653,815l35,20 4,6 42,15 -23,73 -18,-2 -4,-14 -12,0 -10,14 -9,2 -13,-7 -6,7 1,8 -37,5 -25,-16 -9,-14 20,-37 -4,-4 12,-11 13,0 -6,-16 18,-13 13,-15 12,-1Z"/>
    <path data-fips-int="21131" data-name="Leslie County" d="M2891,1190l-1,9 -17,0 -6,12 -22,18 -16,8 -32,11 2,11 -5,6 -20,0 -16,-2 -6,-2 6,-11 -9,-3 0,-8 -7,-32 5,-3 -13,-25 2,-12 -7,-5 7,-13 -8,-8 0,-27 19,-21 -11,-14 10,-3 10,-10 -2,-12 7,-8 16,0 2,-8 13,-6 21,10 7,12 6,26 7,-2 16,14 8,-1 10,10 13,5 1,5 -11,6 0,11 9,4 5,10 12,4 -3,10 5,6 -6,6Z"/>
    <path data-fips-int="21133" data-name="Letcher County" d="M3083,1047l4,8 11,0 -2,8 15,8 18,-12 14,11 2,7 13,9 -25,18 -4,6 -26,13 -14,10 2,39 -8,1 -1,7 -9,4 -6,8 -21,3 -6,11 -11,6 -31,-22 -12,9 -18,5 -5,8 -8,-3 -49,18 0,-17 12,-9 5,4 24,-15 2,-6 -10,-7 6,-11 4,2 3,-12 -10,-20 11,-21 -1,-5 16,-18 12,11 6,-8 16,-6 20,-18 0,-6 24,-15 7,3Z"/>
    <path data-fips-int="21135" data-name="Lewis County" d="M2876,378l-10,5 1,15 -8,15 -12,8 2,29 -2,9 4,7 -8,8 -16,3 -12,-4 -12,8 -10,-5 0,-8 -6,-10 -10,-7 -6,-12 -17,9 -14,-12 -6,2 -6,-8 -4,4 -24,-11 0,-15 -10,-24 -10,-1 -3,-10 -5,-2 6,-47 -9,-14 3,-16 10,-9 16,-2 6,-5 16,-4 9,2 15,12 42,8 17,10 9,20 9,3 10,-13 13,-4 15,5 16,-2 14,-10 10,-21 23,-13 8,-16 -2,16 6,6 -11,12 -1,13 -9,4 -3,12 4,8 -7,9 -10,23 -10,2Z"/>
    <path data-fips-int="21137" data-name="Lincoln County" d="M2334,947l-23,87 -23,-15 -71,66 -1,-29 7,-7 -8,-31 -32,-17 -23,-19 -4,-18 0,-38 4,-11 25,-15 28,-9 16,-13 15,-6 -3,-5 10,7 -6,3 14,12 64,54Z"/>
    <path data-fips-int="21139" data-name="Livingston County" d="M633,980l5,6 12,-2 8,10 -4,6 2,3 2,15 14,12 20,24 6,21 2,11 -10,17 13,12 -2,8 -9,12 -2,16 -7,5 7,18 -6,14 8,16 -14,10 -30,-39 -22,-8 -34,9 -7,8 -12,4 -16,-4 -20,-22 0,-6 18,8 19,-1 10,-3 16,-43 -9,-28 -9,-8 -15,-25 -4,-15 11,-22 7,-31 11,-12 19,-8 17,14Z"/>
    <path data-fips-int="21141" data-name="Logan County" d="M1391,1280l-19,3 -17,18 -7,19 -16,30 -4,15 -6,43 -130,1 1,-57 4,-11 -3,-20 2,-72 2,-69 34,-6 15,2 42,8 74,32Z"/>
    <path data-fips-int="21143" data-name="Lyon County" d="M837,1229l-6,0 -38,21 -17,7 -63,20 -10,-18 -3,-19 -22,-26 14,-10 -8,-16 6,-14 -7,-18 7,-5 2,-16 9,-12 1,10 12,-3 4,-8 10,3 10,-11 5,-8 24,4 28,59Z"/>
    <path data-fips-int="21145" data-name="McCracken County" d="M537,1156l0,6 20,22 16,4 -2,18 0,26 -95,-3 -5,-2 -44,-2 -1,-4 -26,-83 -22,-67 8,0 52,24 27,23 17,2 33,15Z"/>
    <path data-fips-int="21147" data-name="McCreary County" d="M2377,1235l0,11 27,-4 -6,8 4,11 -9,10 4,18 -13,12 12,2 -16,12 4,4 -2,15 12,11 1,19 9,30 10,15 18,15 6,11 -19,1 -102,-2 -8,1 -114,-2 44,-73 0,-14 19,-5 5,-13 18,-12 2,-6 -8,-8 10,-3 -9,-10 6,-2 70,-44Z"/>
    <path data-fips-int="21149" data-name="McLean County" d="M1208,906l-5,5 -23,39 -8,7 6,3 2,25 -5,3 -25,-2 -17,17 -38,-6 -24,-19 -3,-41 5,-7 -3,-8 -8,-23 -9,-11 -29,-3 -8,-4 -7,-15 2,-10 10,-10 23,-2 5,-7 68,37 39,17 9,7 18,5 15,-3Z"/>
    <path data-fips-int="21151" data-name="Madison County" d="M2490,743l0,1 -4,9 -6,-2 -7,13 2,6 6,-5 12,7 -14,14 11,5 -3,23 0,18 -4,7 5,7 -16,11 7,22 10,21 -23,2 -13,4 -11,19 -10,-2 -20,6 -14,-3 -8,-8 -13,-1 -11,-17 -2,-12 -10,-4 -1,-8 -9,-2 4,-6 -6,-3 -3,-10 -14,-18 5,-3 -14,-9 -3,-17 -14,-16 0,-4 12,-5 5,-8 10,-2 -11,-18 6,-9 4,5 11,-2 8,-14 11,14 11,-8 -8,-18 5,-4 13,10 2,-5 26,-13 8,11 -2,10 12,-6 9,9 15,-5 7,9 16,-3 6,8Z"/>
    <path data-fips-int="21153" data-name="Magoffin County" d="M2955,729l9,10 1,16 15,9 2,41 4,1 -1,25 14,10 3,7 2,34 6,6 -2,31 -5,10 -7,3 -10,-9 -6,-8 -12,-2 -13,-15 1,-18 -11,0 -8,-4 -3,-10 -12,-12 -11,12 -7,3 -13,-16 -14,-6 -5,2 -19,-13 -5,-6 7,-10 -9,-8 8,-17 -12,-12 19,-17 7,-13 13,-1 2,-6 25,-18 -8,-16 18,1 10,10 11,-1 3,-8 5,12Z"/>
    <path data-fips-int="21155" data-name="Marion County" d="M1919,817l12,15 1,16 13,12 13,0 23,11 99,-1 -4,47 -1,21 0,52 -13,0 -18,-13 -7,-9 -5,3 -13,-9 -6,8 -15,3 -11,13 -11,2 -3,-9 -18,-9 -9,-10 -18,2 -9,-5 -16,-2 -11,7 -4,-15 -5,-5 -5,-25 -10,-3 29,-73Z"/>
    <path data-fips-int="21157" data-name="Marshall County" d="M678,1214l22,26 3,19 10,18 12,36 7,30 -30,-2 -135,-4 3,-68 1,-37 0,-26 2,-18 12,-4 7,-8 34,-9 22,8Z"/>
    <path data-fips-int="21159" data-name="Martin County" d="M3173,675l1,10 12,12 8,-3 14,13 3,22 17,23 28,19 -8,13 -18,2 -16,15 12,8 -8,14 -2,-4 -20,7 -4,-8 -13,2 -11,-8 -19,7 -34,-19 2,-4 -10,-16 2,-11 -10,-5 12,-24 -11,-9 5,-6 20,-12 6,-7 -2,-17 8,-5 0,-13 6,1 14,-6Z"/>
    <path data-fips-int="21161" data-name="Mason County" d="M2669,310l9,14 -6,47 -36,13 -57,27 -31,-19 -13,-22 -4,-27 -10,-6 10,-29 26,-67 20,8 11,22 19,6 8,24 20,5 24,10Z"/>
    <path data-fips-int="21163" data-name="Meade County" d="M1661,670l9,68 -13,31 -63,10 -10,-10 -29,-33 -75,-62 -33,-31 18,-2 9,-10 0,-8 -14,-10 3,-13 12,0 10,10 10,-12 22,-1 5,-10 -6,-5 -14,-2 -5,-6 5,-13 5,-1 17,14 12,8 7,11 -3,27 4,16 20,17 19,10 26,-2 16,7 7,15 9,9 4,-15Z"/>
    <path data-fips-int="21165" data-name="Menifee County" d="M2739,630l15,0 -6,10 13,6 6,-8 -3,51 -22,29 -4,11 5,4 -9,6 -3,11 -15,6 -14,2 -4,-6 -9,-2 -4,4 -14,-4 -2,-10 -40,-26 -5,-9 -4,-11 0,-29 6,-4 9,-6 10,3 12,-5 12,-9 16,2 6,9 13,-3 3,-5 -1,-21Z"/>
    <path data-fips-int="21167" data-name="Mercer County" d="M2218,743l9,2 -2,7 -13,6 3,10 6,12 -4,15 8,4 -4,6 7,3 -25,16 -21,-2 -5,7 -85,15 -10,0 8,-75 -3,-1 5,-20 -4,-3 -9,-17 22,-13 3,-11 17,-11 21,7 38,-16 -10,10 10,9 -12,6 2,7 8,-4 0,12 4,4 11,0 4,8 -6,5 4,10Z"/>
    <path data-fips-int="21169" data-name="Metcalfe County" d="M1866,1157l2,24 8,33 27,28 -4,9 -10,24 -15,15 -12,3 -11,6 -8,-10 -9,-2 11,19 -9,11 -8,-8 -56,-5 -4,-90 -4,-34 1,-22 -6,-1 -3,-15 14,-18 26,-6 11,21 13,10 18,5Z"/>
    <path data-fips-int="21171" data-name="Monroe County" d="M1772,1304l56,5 8,8 3,22 9,4 11,-2 2,9 11,14 12,-2 7,4 -11,22 26,38 -23,2 -148,-4 -65,-3 10,-12 0,-7 -12,-29 1,-4 74,-54 15,-8Z"/>
    <path data-fips-int="21173" data-name="Montgomery County" d="M2626,661l-6,4 0,29 4,11 -19,10 -29,-2 0,-4 -13,-2 -22,-9 -2,2 -14,-30 -22,-41 -16,-29 38,-33 6,-10 1,14 7,7 32,8 4,3 26,29 7,20 20,19Z"/>
    <path data-fips-int="21175" data-name="Morgan County" d="M2839,593l0,30 19,7 1,10 12,8 8,-3 14,10 18,-8 19,2 0,4 15,-5 4,19 11,4 2,12 11,16 -1,11 -10,-3 0,15 -7,7 -8,-3 -5,-12 -3,8 -11,1 -10,-10 -18,-1 8,16 -25,18 -2,6 -13,1 -7,13 -19,17 12,12 -8,17 -8,-2 -3,-14 -8,0 -12,-7 3,-11 -19,-12 -8,0 -1,-8 -18,-2 -11,-13 -11,2 -7,-12 -5,-4 4,-11 22,-29 3,-51 7,-7 7,5 13,-18 9,2 6,-10 16,-5 0,-4Z"/>
    <path data-fips-int="21177" data-name="Muhlenberg County" d="M1266,1098l-1,15 -9,2 -1,20 3,10 8,-1 -2,9 4,13 -21,10 -15,-2 -34,6 -28,9 -58,1 -5,-6 6,-1 -2,-12 -3,2 -8,-1 -3,-19 -8,1 -13,-14 0,-14 12,-19 -19,-14 2,-4 -18,-19 4,-15 1,-15 5,-3 12,3 -2,-7 17,-22 5,-14 38,6 17,-17 25,2 5,-3 3,22 -14,9 -4,15 9,5 5,-3 6,-17 7,-5 16,3 9,7 13,17 2,17 -2,10 6,9 6,-2 4,11 16,4 -4,4Z"/>
    <path data-fips-int="21179" data-name="Nelson County" d="M2019,684l7,41 -2,6 -18,-9 3,20 -5,11 -6,-4 1,-10 -16,2 4,10 -23,10 -7,15 2,6 -21,6 0,14 -8,-4 1,13 -12,6 -22,24 -29,73 -11,-4 -7,20 -14,-4 -6,-9 -8,3 9,-12 -1,-14 6,-7 -10,-7 18,-1 1,-11 -12,0 3,-31 -6,-3 -14,2 -3,-11 -15,-9 1,-2 -17,-22 -10,-7 1,-12 7,0 30,-10 18,-16 -1,-6 16,-8 -4,-14 15,-9 12,-17 -4,-5 18,-15 13,13 16,6 10,10Z"/>
    <path data-fips-int="21181" data-name="Nicholas County" d="M2506,421 13,9 8,-9 14,9 12,21 3,11 9,-1 -2,10 11,-8 7,5 2,12 9,9 -6,9 -10,9 -45,50 3,-10 -9,-5 1,9 -9,-9 -8,0 -15,-8 2,-12 -10,0 -4,-9 -3,8 -9,-7 -4,-13 -18,-32 -12,-9 39,-49 12,1Z"/>
    <path data-fips-int="21183" data-name="Ohio County" d="M1383,853l-2,24 9,17 11,13 7,9 -8,5 -12,-15 -10,6 -7,-1 0,7 22,81 -65,49 -6,-11 -12,-5 -9,7 5,15 -7,-1 -1,8 -11,17 -7,0 -14,20 -8,-7 4,-4 -16,-4 -4,-11 -6,2 -6,-9 2,-10 -2,-17 -13,-17 -9,-7 -16,-3 -7,5 -6,17 -5,3 -9,-5 4,-15 14,-9 -3,-22 -2,-25 -6,-3 8,-7 23,-39 5,-5 12,-8 26,-28 8,2 6,0 12,-10 11,-3 22,-13 -21,-20 19,-15Z"/>
    <path data-fips-int="21185" data-name="Oldham County" d="M1955,399l-14,18 6,9 3,21 19,26 -18,26 -12,4 -14,-2 -18,2 0,5 -12,-3 -5,8 -74,-52 7,-24 15,-15 24,-3 13,-6 12,-21 16,-10 3,3 21,0Z"/>
    <path data-fips-int="21187" data-name="Owen County" d="M2180,273l5,55 41,32 7,9 -4,5 13,8 2,9 9,12 16,4 -18,24 -11,7 -24,26 -15,10 -22,8 -19,-10 -14,0 1,-6 -12,-4 -1,-8 7,-16 -19,-7 6,-9 -4,-8 -8,6 0,13 -10,-4 4,-16 -5,-7 -10,-5 4,-14 -11,-2 -7,6 -3,-10 10,-15 -15,-12 -10,4 -5,-5 -1,-12 3,-5 18,-4 4,-10 16,-2 4,-8 14,-1 1,-6 19,-8 13,-13 6,2 5,-8Z"/>
    <path data-fips-int="21189" data-name="Owsley County" d="M2711,929l7,19 7,3 -1,18 7,7 -5,23 7,13 -5,11 -2,26 14,7 -4,8 -6,-5 -10,1 -8,-16 -6,2 -11,-12 -13,-23 -8,2 -4,10 -16,-1 -30,-5 -12,-11 -7,-22 -10,-20 -7,-2 -9,-14 -1,-22 25,16 37,-5 -1,-8 6,-7 13,7 9,-2 10,-14 12,0 4,14Z"/>
    <path data-fips-int="21191" data-name="Pendleton County" d="M2430,344l-84,14 -4,-3 -10,17 -18,-4 -12,-58 -14,-77 1,-1 47,-8 17,-6 63,-33 0,26 -2,3Z"/>
    <path data-fips-int="21193" data-name="Perry County" d="M2910,979l8,47 0,11 -5,6 -1,29 12,0 7,-6 7,0 7,17 21,4 2,5 -16,18 1,5 -11,21 10,20 -3,12 -4,-2 -6,11 10,7 -2,6 -24,15 -5,-4 -17,-11 -10,0 1,-22 6,-6 -5,-6 3,-10 -12,-4 -5,-10 -9,-4 0,-11 11,-6 -1,-5 -13,-5 -10,-10 -8,1 -16,-14 -7,2 -6,-26 -7,-12 -21,-10 -13,6 -2,8 -16,0 -7,8 2,12 -10,10 -2,-10 -8,-2 4,-8 -14,-7 2,-26 4,2 14,-7 12,-20 9,0 22,21 10,0 11,-16 4,2 6,-9 10,0 17,-12 24,-24 7,15 7,2Z"/>
    <path data-fips-int="21195" data-name="Pike County" d="M3158,1086l-13,-9 -2,-7 -14,-11 -18,12 -15,-8 2,-8 -11,0 -4,-8 10,-8 4,-8 12,-4 4,-20 6,-6 -8,-8 5,-7 15,-3 7,-30 5,-3 -1,-16 -6,-17 -9,1 -1,-9 9,-67 -8,-15 10,-6 12,-2 19,-7 11,8 13,-2 4,8 20,-7 2,4 8,-14 -12,-8 16,-15 18,-2 7,5 9,16 -2,14 9,1 12,10 6,-3 11,10 2,9 12,-2 -2,-9 6,-2 -3,13 8,1 4,16 11,-1 3,10 -7,2 8,11 4,-5 18,3 4,9 11,4 -1,-10 15,6 16,-7 2,4 -35,33 -14,15 -58,54 -39,36 -4,8 -8,1 -5,9 -12,3 -45,18 -19,14Z"/>
    <path data-fips-int="21197" data-name="Powell County" d="M2624,705l5,9 40,26 2,10 14,4 -32,61 -6,0 -1,-7 -18,-5 -6,-10 -10,0 -9,7 -8,-9 -17,5 -11,-3 -26,-22 0,-24 -13,-2 -4,6 -5,-11 7,-11 1,-20 12,-9 2,-2 22,9 13,2 0,4 29,2Z"/>
    <path data-fips-int="21199" data-name="Pulaski County" d="M2377,1235l-25,8 -70,44 -18,-14 -27,-48 -11,-1 -14,10 -15,3 -7,-10 -22,-10 -12,-6 -19,-21 -1,-22 3,-16 40,-33 38,-34 71,-66 23,15 29,31 19,16 47,48 -2,4 6,16 -2,15 -6,0 -11,15 3,11 7,2 -5,8 -7,-3 7,16 -16,6 3,11Z"/>
    <path data-fips-int="21201" data-name="Robertson County" d="M2521,337l10,6 4,27 13,22 -17,16 -4,13 -8,9 -13,-9 -19,-9 -12,-1 -13,-13 -7,4 -2,-7 -9,2 4,-9 -8,3 2,-20 6,-11 8,2 10,-8 15,-19 17,-1 5,9Z"/>
    <path data-fips-int="21203" data-name="Rockcastle County" d="M2442,925l-2,20 16,35 4,2 -4,19 17,15 -5,2 0,12 4,6 0,6 -20,9 -12,9 -3,-2 -1,21 -5,-3 -5,11 -6,-6 -2,18 -9,5 7,8 -15,7 5,10 -47,-48 -19,-16 -29,-31 23,-87 32,7 8,-15 -2,-9 5,-13 13,1 8,8 14,3 20,-6Z"/>
    <path data-fips-int="21205" data-name="Rowan County" d="M2803,481l14,36 5,24 7,-3 8,12 10,-1 -9,3 9,6 17,0 -7,24 -11,1 -7,10 -14,8 0,4 -16,5 -6,10 -9,-2 -13,18 -7,-5 -7,7 -6,8 -13,-6 6,-10 -15,0 14,-11 -2,-5 -11,-2 -6,4 -9,-9 4,-10 -5,-5 -10,4 2,-10 -10,-8 -8,7 -10,1 -3,-9 3,-7 10,-5 -7,-9 -2,6 -11,-6 9,-3 11,-14 12,-1 1,-10 22,-18 -4,-13 7,-17 0,-14 16,-6 2,-12 17,-9 6,12 10,7 6,10 0,8Z"/>
    <path data-fips-int="21207" data-name="Russell County" d="M2139,1152l-3,16 1,22 19,21 12,6 -32,29 -5,-6 -13,0 -5,23 -23,14 -22,16 -23,18 -27,-20 -21,-13 -4,3 10,11 0,5 -12,-2 -3,-12 -12,-10 19,-15 11,-39 17,-20 18,-29 14,-20 21,-36 32,40 8,6 16,-3Z"/>
    <path data-fips-int="21209" data-name="Scott County" d="M2293,428 16,11 14,20 -2,12 13,28 -4,11 9,15 2,23 7,3 -93,44 -2,8 -4,-3 -2,-16 -8,-6 4,-8 -8,-3 -10,6 0,-5 -12,2 -4,-10 -2,-7 -6,-79 15,-10 24,-26 11,-7 18,-24 10,-11 6,16 8,6Z"/>
    <path data-fips-int="21211" data-name="Shelby County" d="M2081,597l-7,6 -6,24 -13,19 -8,2 -56,-28 -83,-32 8,-63 -26,-12 5,-8 12,3 0,-5 18,-2 14,2 12,-4 18,-26 122,11 18,2 -18,32 -1,27 -2,27 1,9Z"/>
    <path data-fips-int="21213" data-name="Simpson County" d="M1477,1408l-42,-1 -25,9 -11,-9 -77,1 6,-43 4,-15 16,-30 7,-19 17,-18 19,-3 12,29 79,13 -2,17 -4,25 2,11 -4,19Z"/>
    <path data-fips-int="21215" data-name="Spencer County" d="M2047,648l-10,9 -1,13 -15,4 -2,10 -100,18 -10,-10 -16,-6 -13,-13 -11,-9 20,-47 14,-4 3,-9 2,-16 83,32Z"/>
    <path data-fips-int="21217" data-name="Taylor County" d="M1892,962l11,-7 16,2 9,5 18,-2 9,10 18,9 3,9 11,-2 11,-13 15,-3 6,-8 13,9 5,-3 7,9 18,13 -6,9 -5,-1 -14,10 0,11 -14,27 -10,3 -1,17 -14,7 -21,0 -19,13 -1,8 -16,18 -8,-16 -14,0 -3,-5 9,-9 -18,-32 -22,-33 -45,-37 0,-20 3,2 22,6 12,-15 4,8Z"/>
    <path data-fips-int="21219" data-name="Todd County" d="M1107,1184l5,6 58,-1 28,-9 -2,69 -2,72 3,20 -4,11 -1,57 -121,-1 20,-130 16,-94 1,-11 3,-2 2,12Z"/>
    <path data-fips-int="21221" data-name="Trigg County" d="M913,1408l-70,0 2,-16 -65,-9 -33,-2 -2,-13 -13,-25 -7,-30 -12,-36 63,-20 17,-7 38,-21 6,0 8,5 41,-12 14,-15 32,20 -4,30 -4,50 0,36Z"/>
    <path data-fips-int="21223" data-name="Trimble County" d="M1946,266l1,5 44,54 6,13 2,13 18,-3 -30,28 -17,21 -13,-2 -2,4 -28,-14 -21,0 -3,-3 8,-16 -2,-11 -8,-18 0,-30 -8,-16 2,-10 8,-12 11,-4 15,4Z"/>
    <path data-fips-int="21225" data-name="Union County" d="M907,859l-42,42 -46,42 -13,5 -9,-2 7,-5 -4,-9 -9,-4 0,-20 -8,-2 -8,18 -6,-2 -6,6 -6,-14 -27,-31 0,-8 -7,-20 1,-15 17,-26 24,-14 7,-9 8,-22 15,0 15,13 7,1 5,-13 11,-5 3,-6 -3,-14 -11,-14 -1,-11 6,-7 46,75 10,-3 -2,7 13,4 6,11 0,30 -2,4Z"/>
    <path data-fips-int="21227" data-name="Warren County" d="M1484,1124l52,49 14,-5 13,-8 12,15 34,9 -23,69 -11,7 -4,-8 -7,18 -4,-5 -4,8 -14,2 1,12 -63,52 2,-17 -79,-13 -12,-29 -28,-64 28,-84 -5,-15 7,-3 36,5 13,-7 13,21 10,-1 0,-6 14,7Z"/>
    <path data-fips-int="21229" data-name="Washington County" d="M2079,728l9,17 4,3 -5,20 3,1 -8,75 -2,26 -99,1 -23,-11 -13,0 -13,-12 -1,-16 -12,-15 12,-6 -1,-13 8,4 0,-14 21,-6 -2,-6 7,-15 23,-10 -4,-10 16,-2 -1,10 6,4 5,-11 -3,-20 18,9 2,-6 5,3 7,-15 8,5 0,9 16,4 1,-6Z"/>
    <path data-fips-int="21231" data-name="Wayne County" d="M2282,1287l-6,2 9,10 -10,3 8,8 -2,6 -18,12 -5,13 -19,5 0,14 -44,73 -44,-2 -42,-4 -11,-5 -1,-29 -9,-9 0,-13 8,-21 -10,-28 -15,-15 -3,-14 22,-16 23,-14 5,-23 13,0 5,6 32,-29 22,10 7,10 15,-3 14,-10 11,1 27,48Z"/>
    <path data-fips-int="21233" data-name="Webster County" d="M1062,899l-54,44 -42,14 -28,17 -69,42 -6,-2 12,-14 -8,-5 -10,7 -8,-3 7,-8 -1,-14 -10,8 -15,3 -11,-5 -3,-9 -2,-22 5,-9 46,-42 42,-42 104,-3 -2,10 7,15 8,4 29,3Z"/>
    <path data-fips-int="21235" data-name="Whitley County" d="M2493,1235l5,12 0,17 7,7 4,13 -2,7 11,2 -1,7 8,10 8,1 3,8 7,0 3,13 -4,10 8,-1 5,18 36,21 0,1 0,3 -33,18 13,25 -2,8 -31,0 -100,0 -6,-11 -18,-15 -10,-15 -9,-30 -1,-19 -12,-11 2,-15 -4,-4 16,-12 -12,-2 13,-12 -4,-18 9,-10 -4,-11 6,-8 9,-9 15,4 3,7 6,-10 17,11 10,-3 4,-13 7,4 5,-5Z"/>
    <path data-fips-int="21237" data-name="Wolfe County" d="M2846,812l9,8 -7,10 5,6 -9,-6 -21,-1 -6,5 -15,-5 -11,-8 -17,9 -13,30 -14,6 -1,-14 -12,4 -42,-15 -4,-6 -35,-20 32,-61 4,-4 9,2 4,6 14,-2 15,-6 3,-11 9,-6 7,12 11,-2 11,13 18,2 1,8 8,0 19,12 -3,11 12,7 8,0 3,14Z"/>
    <path data-fips-int="21239" data-name="Woodford County" d="M2253,603l-15,61 -20,79 -23,8 -4,-10 6,-5 -4,-8 -11,0 -4,-4 0,-12 -8,4 -2,-7 12,-6 -10,-9 10,-10 -12,-6 3,-11 -9,-4 2,-13 -7,-10 7,-3 -4,-9 6,-5 -6,-11 -7,6 -3,-14 0,-14 59,-30 4,10 12,-2 0,5 10,-6 8,3 -4,8 8,6 2,16Z"/>
  </g>
  <g class="cities">
    <circle r="3" cx="176.4" cy="53.1"/>
    <text x="176.4" y="53.1">Louisville</text>
    <circle r="3" cx="232.6" cy="63.9"/>
    <text x="232.6" y="63.9">Lexington</text>
    <circle r="3" cx="146.5" cy="122.2"/>
    <text x="146.5" y="122.2">Bowling Green</text>
  </g>
</svg>