<?xml version="1.0" encoding="utf-8"?>
<!DOCTYPE svg PUBLIC "-//W3C//DTD SVG 1.1//EN" "http://www.w3.org/Graphics/SVG/1.1/DTD/svg11.dtd">
<svg version="1.1" xmlns="http://www.w3.org/2000/svg" width="350" height="152" viewBox="0 0 350 152">
  <path class="state" transform="scale(0.1)" d="M2532,555v-1M124,1458l-25,1 -9,-42 34,2v39M1108,1173l-1,10 6,-6M1108,1173l5,3M2406,1129v-1v1M2439,1435l-243,-3 -86,-5 -142,-5 -63,5 -235,-6 -192,-14h-155l-132,2 -121,-2h-156l-70,2v-18l-97,-11 14,83 -9,18 -191,-7 -145,-7h-6l-203,-9 -55,2 23,-65 22,-4 31,37 32,-48 -7,-35 35,-36 -23,-31 18,-4 17,-52 -27,-32 -5,-30 45,-59 32,-26 35,-4 55,22 30,25 46,14 27,23 46,5 15,-40 -36,-80 18,-53 30,-19 22,13v-1l33,-25 83,-10 15,-16 -32,-39 -11,-35 20,-42 25,-12 23,-35 25,18 21,-22 -8,-49v-1l22,-11 18,26 63,-13 5,40 37,-14 -17,-37 17,-28 35,39 45,-21 45,26 58,31 20,34 21,-10 12,-52 28,-18 27,-3 45,-34 31,55 40,-4 -3,36 25,-12 3,-31 37,-4 -7,-60 14,-4 38,-33 28,-12 -16,-23 11,-14 33,30v44l44,29 36,2 15,25 24,-21 19,-5 20,-42 -3,-42 38,-65 34,7 31,-19 15,-43 17,-35 31,-7 40,-37 9,-22 -19,-64 9,-26 45,-4h35l36,25 60,-40 55,-19 35,5 6,-39 5,-14 -39,-22 20,-31 -29,-39 29,-29 41,-23 47,37 50,-11 30,-5 4,29 49,18 35,77 1,26 7,11 58,18 43,-8 32,8 48,36 9,24 54,10 5,-19 47,-17 60,20 42,35 23,-17 33,3 50,-60 63,-18 23,93 49,12 28,28 22,16 10,72 10,10 -14,43 -10,60 67,73 -4,31 35,31 39,78 20,39 69,39 2,21 75,5 -161,155 -45,16 -48,27 -70,45 3,42 -62,39 2,41 -63,30 -27,-3 -25,40v21l-25,3 -116,44 -25,-1 -45,20 -32,28h-106h-128"/>
  <g class="counties" transform="scale(0.1)">
    <path data-fips-int="21001" data-name="Adair County" d="M2023,1046l47,29 6,39 -71,108 -10,36 -97,-7 -23,-38 -10,-56 77,-45 25,-30 13,-8 31,-7Z"/>
    <path data-fips-int="21003" data-name="Allen County" d="M1586,1253l40,34 16,62 27,21 11,31 -10,20 -192,-14 3,-68 73,-70Z"/>
    <path data-fips-int="21005" data-name="Anderson County" d="M2150,604l6,37 23,42 -36,18 -22,-8 -30,26 -11,11v-3l-4,2h-1l-4,-4 -13,5 -2,-3 -30,-2 -6,-42 1,-16h10l4,3 5,-13 8,-9 23,-20 10,-30 50,18Z"/>
    <path data-fips-int="21007" data-name="Ballard County" d="M351,1235l-33,-8 -18,-5 -27,-32 -5,-30 45,-59 32,-26 35,-4 43,150 -10,2 -3,-1Z"/>
    <path data-fips-int="21009" data-name="Barren County" d="M1772,1305l-35,13 -68,52 -27,-21 -16,-62 -40,-34 23,-70 17,5 8,-62 61,10 74,-12 -12,16 12,74Z"/>
    <path data-fips-int="21011" data-name="Bath County" d="M2635,516l19,13 24,27h12v2l5,1 -5,31 22,-11 1,3 2,2 22,45 -30,-3 -4,26h-3l-30,-8 -25,13 -8,-2 -10,7v-2l-53,-73 -40,-12v1v-1l-2,-18 -2,-1 2,-1v-1l53,-55 45,5Z"/>
    <path data-fips-int="21013" data-name="Bell County" d="M2750,1239l8,24 -8,47 25,78 -25,-1 -45,20 -32,28h-106l-10,-31 17,-9 16,-15 30,-33 10,-30 19,1 38,-36 23,-21 3,-31Z"/>
    <path data-fips-int="21015" data-name="Boone County" d="M2248,77l11,103 -6,47 -20,14 -59,-43 5,-14 -39,-22 20,-31 -29,-39 29,-29 41,-23Z"/>
    <path data-fips-int="21017" data-name="Bourbon County" d="M2466,501l43,44 23,8 -2,3 -43,44 -20,7 -68,21 -8,-10 -32,-13 8,-46 -18,-7 -2,-1 -3,-2 -13,-39 41,-2 64,-48Z"/>
    <path data-fips-int="21019" data-name="Boyd County" d="M3119,511l-8,-12 -43,16h-25h-5l5,-55 -15,-15 15,-24 48,-51 22,16 10,72 10,10Z"/>
    <path data-fips-int="21021" data-name="Boyle County" d="M2203,824l11,11 27,32 -2,5 -5,4 -74,40 -22,8 -62,-7 4,-47 3,-26Z"/>
    <path data-fips-int="21023" data-name="Bracken County" d="M2557,240l-37,97 -1,5 -30,-7 -28,23 -12,2 -18,2 -2,-17 -12,-134 7,11 58,18 43,-8Z"/>
    <path data-fips-int="21025" data-name="Breathitt County" d="M2795,825l7,4h3h2l10,4 31,3h5l23,12 4,3 5,-1 8,7 32,-2 16,21 15,11 7,23 23,14h-26l-29,-7 -3,-1 -3,-1 -20,36 5,28 -17,-2 -22,-18 -30,28 -31,16 -5,11 -37,-16 -26,21 -4,1 -11,3 1,-29 -10,-47 -6,-11v-7l23,-73 18,6 39,-41Z"/>
    <path data-fips-int="21027" data-name="Breckinridge County" d="M1594,779l-55,113 -12,3 -5,1 -11,-3 -4,15 -56,-15 -8,-17 -42,30 -22,-29 4,-24 -17,-71 10,-28 25,-12 3,-31 37,-4 -7,-60 14,-4 109,95Z"/>
    <path data-fips-int="21029" data-name="Bullitt County" d="M1880,673l-18,15 -20,45 -32,28v1l-21,10 -15,1 -45,-38 -5,-36 -24,2 -13,-31 13,-16 84,-32 68,7 55,-24 -17,12 -20,48Z"/>
    <path data-fips-int="21031" data-name="Butler County" d="M1483,1124l-24,10 -18,-21 -55,3 5,16 -28,83 -73,-31 -44,-8v-2l4,-3 16,-8 -11,-26v-1l10,-27 1,-11 29,-36 6,-8h2l23,-6 67,-49 55,18 6,24Z"/>
    <path data-fips-int="21033" data-name="Caldwell County" d="M852,1033l23,40 12,28 27,12 11,14 -15,70 -11,10 -14,15 -50,7 -38,-58 -30,-61 -23,-4 15,-28 116,-78 -8,15Z"/>
    <path data-fips-int="21035" data-name="Calloway County" d="M731,1344l16,36 14,83 -9,18 -191,-7 7,-138Z"/>
    <path data-fips-int="21037" data-name="Campbell County" d="M2416,185l-80,39 -13,-8 5,-47 -12,-22 15,-15 -25,-24 -8,-42 30,-5 4,29 49,18Z"/>
    <path data-fips-int="21039" data-name="Carlisle County" d="M396,1225l14,-3 3,1 10,-2 3,4 -3,95 -108,-3 -27,-8 -23,-31 18,-4 17,-52 18,5Z"/>
    <path data-fips-int="21041" data-name="Carroll County" d="M2116,305l-60,36 -40,6 -19,-11 -50,-70h35l36,25 60,-40Z"/>
    <path data-fips-int="21043" data-name="Carter County" d="M2876,377l24,11 20,9 28,29 15,10 12,-4 53,13 15,15 -5,55 -12,21 -15,9 -26,10 -15,1 -25,-16 -17,14 -47,-45 -35,41 -6,1 -7,-3 -2,-5 -14,-26 -7,-14 -8,-22 26,-3 5,-2 8,-3h2l3,-2v-50l14,-15 1,-1 12,-27Z"/>
    <path data-fips-int="21045" data-name="Casey County" d="M2160,916v65l56,36 2,68 -78,67 -24,8 -40,-46 -6,-39 -47,-29 13,-38 17,-10 10,-9h2h10l1,-72 62,7Z"/>
    <path data-fips-int="21047" data-name="Christian County" d="M1077,1126l1,14 29,33h1l-1,10 -37,224h-156l10,-63 8,-117 -33,-20 11,-10 15,-70 70,25 15,-11 48,-3Z"/>
    <path data-fips-int="21049" data-name="Clark County" d="M2539,699l-4,2 -3,3 -15,37 3,2 4,7 -33,-5v-1v-1h-10l-37,-13 -33,2 -7,-21 -25,12 5,-59 15,-36 68,-21 20,-7Z"/>
    <path data-fips-int="21051" data-name="Clay County" d="M2697,1035l33,24 7,5 10,12 -19,38 17,91 5,34 -37,-9 -11,-2 -30,-11 -13,-7 -14,-16h-33l-22,-15 -18,-31h-3l-24,-30 10,-46 4,-4 15,1 50,-52Z"/>
    <path data-fips-int="21053" data-name="Clinton County" d="M2045,1310l23,-16 27,58 -4,34 12,38 7,3 -142,-5 35,-125 8,-10Z"/>
    <path data-fips-int="21055" data-name="Crittenden County" d="M658,1017l-9,-33 -16,-3v-1l33,-25 83,-10 15,-16 27,-22v21l28,15v1v39l36,19 20,-2 -116,78 -15,28 -15,12 -8,6h-20l-9,-26 5,-9 -5,-35Z"/>
    <path data-fips-int="21057" data-name="Cumberland County" d="M1995,1258l-18,15 26,24 -35,125 -63,5 -25,-39 8,-26 -36,-21 -17,-24 40,-27 23,-39Z"/>
    <path data-fips-int="21059" data-name="Daviess County" d="M1255,872l-47,34 -13,-5 -83,-29 -64,-36 7,-21 33,-10 20,-23 -20,-21 9,-42 58,31 20,34 21,-10 12,-52 28,-18 37,26 -8,26 25,-2 13,56 -18,15 20,20 -27,14v2l-3,1 -10,7Z"/>
    <path data-fips-int="21061" data-name="Edmonson County" d="M1591,1033l46,66 -3,27 -8,62 -17,-5 -47,-23 -26,13 -53,-49 -29,-83Z"/>
    <path data-fips-int="21063" data-name="Elliott County" d="M2901,651l-15,-3 -6,-4 -32,-18 -10,-13 2,-21 13,-10 7,-24h-12l-8,-7 5,2 1,-4v1l35,-41 47,45 17,-14 25,16 15,-1 16,32 -58,61 -7,4 -20,-4Z"/>
    <path data-fips-int="21065" data-name="Estill County" d="M2524,750l5,-5 38,48 28,-2 9,9 18,-8 25,23 -43,34 -15,26 -22,37 -25,-21 -53,10 -17,-44 12,-7 10,-78 -22,-8 19,-19v-1v1Z"/>
    <path data-fips-int="21067" data-name="Fayette County" d="M2391,618l8,10 -15,36 -5,59 -43,26 -18,-50 -80,-35 15,-61 1,-8 93,-44 2,1 18,7 -8,46Z"/>
    <path data-fips-int="21069" data-name="Fleming County" d="M2675,372l22,22 1,29 20,6 27,10 8,9 -16,29 -4,33 -45,38 -6,5 -4,3 -24,-27 -19,-13 -5,-12 -45,-5 4,-21 -34,-15 -28,-42 22,-29 30,19 93,-41Z"/>
    <path data-fips-int="21071" data-name="Floyd County" d="M3071,788l30,9 15,3 8,7 5,2 20,9 -15,15 -8,86 17,13 -12,51 -20,8 -2,36 -16,12 -19,-12 -8,-65 -30,9 2,-29 -42,-10 20,-29 -21,-64 -9,-33 5,-1Z"/>
    <path data-fips-int="21073" data-name="Franklin County" d="M2136,473l10,-1h14l41,2 8,86 -59,30v14l-19,12 -50,-18 10,-82 17,-30 -17,-2Z"/>
    <path data-fips-int="21075" data-name="Fulton County" d="M124,1458l-25,1 -9,-42 34,2ZM327,1415l53,11 30,41 -203,-9 -55,2 23,-65 22,-4 31,37 32,-48Z"/>
    <path data-fips-int="21077" data-name="Gallatin County" d="M2233,241l-49,7 -5,25 -53,28 -5,-1 -5,5 -38,-54 55,-19 35,5 6,-39Z"/>
    <path data-fips-int="21079" data-name="Garrard County" d="M2298,792l16,23 17,16 3,16h2v3l-2,6 32,33 11,28 -11,37 -32,-7 -5,-4 -85,-66 -3,-10 -27,-32 -11,-11 25,-17 -14,-39 42,5 -7,18 32,22Z"/>
    <path data-fips-int="21081" data-name="Grant County" d="M2289,232l25,136 -3,18 -32,10 -10,11 -38,-39 -43,-37 -9,-58 5,-25 49,-7 20,-14Z"/>
    <path data-fips-int="21083" data-name="Graves County" d="M571,1232l-3,104 -7,138 -145,-7 7,-147 3,-95Z"/>
    <path data-fips-int="21085" data-name="Grayson County" d="M1511,893l11,3 5,-1 12,-3 5,3 25,8 42,6 23,34 5,28 2,5v27l-24,33 -23,-8h-3v5l-137,8 -6,-24 -55,-18 -24,-88 30,9 5,-4 -3,-10 42,-30 8,17 56,15Z"/>
    <path data-fips-int="21087" data-name="Green County" d="M1825,961l15,-1v1v20l47,37 55,94 -77,45 -40,-6 -30,-33v-98l15,-15 -1,-19 1,-14Z"/>
    <path data-fips-int="21089" data-name="Greenup County" d="M2923,289l10,-11 -5,-23 63,-18 23,93 49,12 28,28 -48,51 -15,24 -53,-13 -12,4 -15,-10 -28,-29 -20,-9 -24,-11 14,-16 23,-32Z"/>
    <path data-fips-int="21091" data-name="Hancock County" d="M1376,754l-10,28 17,71 -80,-43 -13,-56 -25,2 8,-26 -37,-26 27,-3 45,-34 31,55 40,-4Z"/>
    <path data-fips-int="21093" data-name="Hardin County" d="M1797,814l2,2 -25,44 -29,15 -8,28 -25,16 -7,57 -66,-5 -5,-28 -23,-34 -42,-6 -25,-8 -5,-3 55,-113 62,-10 13,-27 -8,-72 19,-5 7,5 13,31 24,-2 5,36 45,38 21,30Z"/>
    <path data-fips-int="21095" data-name="Harlan County" d="M2911,1199h5l2,2 -13,25 65,-22 3,-2 25,-11 31,21 2,41 -63,30 -27,-3 -25,40v21l-25,3 -116,44 -25,-78 8,-47 15,6 12,-4 12,-16 61,-29 33,-29Z"/>
    <path data-fips-int="21097" data-name="Harrison County" d="M2431,362l18,-2 -8,28 21,14 12,9 -38,49 -64,48 -41,2 -12,-60 -21,-18 -19,-36 32,-10 3,-18 12,4 8,-3 12,-11 83,-13Z"/>
    <path data-fips-int="21099" data-name="Hart County" d="M1705,976l104,10 1,19 -15,15v98l-26,6 -74,12 -61,-10 3,-27 -46,-66v-5h3l23,8 24,-33v-27l-2,-5Z"/>
    <path data-fips-int="21101" data-name="Henderson County" d="M1097,719l-9,42 20,21 -20,23 -33,10 -7,21 -38,20 -103,3 -10,-69 -10,4 -15,-7 -45,-74v-1l22,-11 18,26 63,-13 5,40 37,-14 -17,-37 17,-28 35,39 45,-21Z"/>
    <path data-fips-int="21103" data-name="Henry County" d="M2136,473l-45,11 -123,-11 -26,-54 13,-20v-1l15,-1 46,-50 40,-6 32,25 -10,24 63,50 5,32Z"/>
    <path data-fips-int="21105" data-name="Hickman County" d="M423,1320l-7,147h-6l-30,-41 -53,-11 -67,-35 -7,-35 35,-36 27,8Z"/>
    <path data-fips-int="21107" data-name="Hopkins County" d="M852,1033l15,-18 98,-58 43,-14 54,-44 10,24 -2,56 25,18 -5,10 2,4 -9,9 -23,27 -3,4v3l1,1h-1l-2,9 27,39 3,6 -5,12 -3,5 -19,12 -48,3 -15,11 -70,-25 -11,-14 -27,-12 -12,-28Z"/>
    <path data-fips-int="21109" data-name="Jackson County" d="M2567,912l12,14v1l16,42v1l24,42 5,5 -50,52 -15,-1 -4,4 -53,-18 -5,1 -13,-14v-3l-5,-10 -8,8v-26l-30,-63 1,-22 24,-24h23l53,-10Z"/>
    <path data-fips-int="21111" data-name="Jefferson County" d="M1890,513l27,12 -9,63 -1,17 -55,24 -68,-7 -84,32 -13,16 -7,-5 20,-42 -3,-42 38,-65 34,7 31,-19 15,-43Z"/>
    <path data-fips-int="21113" data-name="Jessamine County" d="M2336,749l-38,43 -17,21 -32,-22 7,-18 -42,-5 4,-25 20,-79 80,35Z"/>
    <path data-fips-int="21115" data-name="Johnson County" d="M3124,712v1l-10,5 -11,17 6,6 2,2 -8,10 13,47 -15,-3 -30,-9 -80,17 -5,1 -6,-43 -25,-34 18,-19 -13,-39 21,-19 47,15 68,39Z"/>
    <path data-fips-int="21117" data-name="Kenton County" d="M2298,66l8,42 25,24 -15,15 12,22 -5,47 13,8 -47,8 -36,-5 6,-47 -11,-103Z"/>
    <path data-fips-int="21119" data-name="Knott County" d="M3013,1081l-38,22 -7,-11 -30,-27 -27,7 7,-34 -8,-59 -5,-28 20,-36 3,1 3,1 29,7h26l4,6 6,2 42,10 -2,29 30,-9 8,65 19,12 -10,8 -29,6 -6,-2 -34,29Z"/>
    <path data-fips-int="21121" data-name="Knox County" d="M2645,1194l14,16 13,7 30,11 11,2 -3,31 -23,21 -38,36 -19,-1 -10,30 -30,33 -35,-20 -23,-49 -22,-19 -18,-57 38,-17 4,2 30,-8 26,-33 22,15Z"/>
    <path data-fips-int="21123" data-name="Larue County" d="M1838,877l-1,10 -2,38 20,2 12,-13 1,-1 24,48v1l-4,-1 -5,1 -5,-8 -20,14 -18,-7v-1l-15,1 -15,11 -1,14 -104,-10 7,-57 25,-16 8,-28 29,-15 25,-44 38,21Z"/>
    <path data-fips-int="21125" data-name="Laurel County" d="M2484,1038v3l13,14 5,-1 53,18 -10,46 24,30h3l18,31 -26,33 -30,8 -4,-2 -38,17 -3,-3 -8,-3 -39,11 -38,2 -27,-7 22,-37 -8,-23 16,-30 -1,-16v-1v-2l-4,-3 35,-64 25,-12 9,-11 8,-8Z"/>
    <path data-fips-int="21127" data-name="Lawrence County" d="M3119,511l-10,60 67,73 -4,31 -23,-8 -15,4 -10,41 -28,-6 -68,-39 -47,-15 -21,19 -17,-23 58,-61 -16,-32 26,-10 15,-9 12,-21h5h25l43,-16Z"/>
    <path data-fips-int="21129" data-name="Lee County" d="M2654,815l36,26 45,15 -23,73 -14,-4 -5,2 -11,-16 -15,16 -63,15 -25,-15v-1l-12,-14 22,-37 15,-26 43,-34Z"/>
    <path data-fips-int="21131" data-name="Leslie County" d="M2813,1048l14,32 26,13 22,23 6,22 12,35 -2,18 -33,29 -61,29 -12,16 -12,4 -15,-6 -8,-24 -5,-34 -17,-91 19,-38 6,-23 40,-24Z"/>
    <path data-fips-int="21133" data-name="Letcher County" d="M3013,1080h1l34,-29 6,2 29,-6 13,7v8l33,-3 20,21 9,6 -70,45 3,42 -62,39 -31,-21 -25,11 -3,2 -65,22 13,-25 22,-24 8,-33 3,-34 17,-17v-1l7,11Z"/>
    <path data-fips-int="21135" data-name="Lewis County" d="M2775,442l-7,-2 -15,8 -8,-9 -27,-10 -20,-6 -1,-29 -22,-22 -3,-2 6,-47 -10,-13 5,-19 47,-17 60,20 42,35 23,-17 33,3 50,-60 5,23ZM2775,442l23,38 4,1 26,-3 5,-2 8,-3h2l3,-2v-50l14,-15 1,-1 12,-27 3,-1 14,-16 23,-32Z"/>
    <path data-fips-int="21137" data-name="Lincoln County" d="M2329,943l5,4 -23,86 -23,-13 -70,65 -2,-68 -56,-36v-65l74,-40 5,-4 2,-5 3,10Z"/>
    <path data-fips-int="21139" data-name="Livingston County" d="M658,1018l34,36 5,35 -5,9 9,26 -19,31 -3,59 -31,-40 -25,-7 -50,21 -35,-33 46,5 15,-40 -36,-80 18,-53 30,-19 22,13 16,3Z"/>
    <path data-fips-int="21141" data-name="Logan County" d="M1391,1280l-37,22 -28,63 -3,42 -132,2 7,-228 48,-5 44,8 73,31v1Z"/>
    <path data-fips-int="21143" data-name="Lyon County" d="M835,1229l-123,48 -11,-37 -22,-26 3,-59 19,-31h20l8,-6 15,-12 23,4 30,61Z"/>
    <path data-fips-int="21145" data-name="McCracken County" d="M538,1155l35,33 -2,44 -145,-7 -3,-4 -43,-150 55,22 30,25 46,14Z"/>
    <path data-fips-int="21147" data-name="McCreary County" d="M2377,1235l27,7 -8,60 -17,15 25,78 35,40 -243,-3 63,-101 10,-7 4,-4h3l5,-33 68,-43Z"/>
    <path data-fips-int="21149" data-name="McLean County" d="M1180,986h-30l-18,18 -7,-1 -30,-6 -25,-18 2,-56 -10,-24 -47,-17 -5,-26 38,-20 64,36 83,29 13,5 -32,48Z"/>
    <path data-fips-int="21151" data-name="Madison County" d="M2481,743h10v1v1l-19,19 22,8 -10,78 -12,7 17,44h-23l-24,24 -65,-8 -11,-28 -32,-33 2,-6v-3h-2l-3,-16 -17,-16 -16,-23 38,-43 43,-26 25,-12 7,21 33,-2Z"/>
    <path data-fips-int="21153" data-name="Magoffin County" d="M2950,726l5,3 25,34 6,43 9,33 21,64 -20,29 -6,-2 -4,-6 -23,-14 -7,-23 -15,-11 -16,-21 -32,2 -8,-7 -5,1 -4,-3 -23,-12 -5,-10v-11l-2,-2 4,-40 21,-20 37,-26 -8,-15Z"/>
    <path data-fips-int="21155" data-name="Marion County" d="M1918,817l2,1 25,42 37,11 98,-1 -4,47 -1,72h-10h-2l-38,-26 -19,8 -29,18 -40,-29 -4,1 -1,-1 -25,-5 -15,6 -24,-48 -1,1 1,-1 27,-67Z"/>
    <path data-fips-int="21157" data-name="Marshall County" d="M679,1214l22,26 11,37 19,67 -163,-8 3,-104 2,-44 50,-21 25,7Z"/>
    <path data-fips-int="21159" data-name="Martin County" d="M3172,675l35,31 39,78 -34,18 12,11 -75,5 -20,-9 -5,-2 -8,-7 -13,-47 8,-10 -2,-2 -6,-6 11,-17 10,-5v-1l10,-41 15,-4Z"/>
    <path data-fips-int="21161" data-name="Mason County" d="M2668,310l10,13 -6,47 -93,41 -30,-19 -29,-55 37,-97 48,36 9,24Z"/>
    <path data-fips-int="21163" data-name="Meade County" d="M1661,670l8,72 -13,27 -62,10 -37,-41 -109,-95 38,-33 28,-12 -16,-23 11,-14 33,30v44l44,29 36,2 15,25Z"/>
    <path data-fips-int="21165" data-name="Menifee County" d="M2737,629l30,10v-1v1l-2,48 -27,43 5,3v1l-20,19 -38,3v-2l-61,-49 3,-43 10,-7 8,2 25,-13 30,8h3l4,-26Z"/>
    <path data-fips-int="21167" data-name="Mercer County" d="M2218,743l-4,25 14,39 -25,17 -120,20 8,-98 -11,-19v3l11,-11 30,-26 22,8 36,-18 -10,32 20,3 7,32Z"/>
    <path data-fips-int="21169" data-name="Metcalfe County" d="M1865,1157l10,56 23,38 -23,39 -40,27 -63,-12 -3,-91 -12,-74 12,-16 26,-6 30,33Z"/>
    <path data-fips-int="21171" data-name="Monroe County" d="M1772,1305l63,12 17,24 36,21 -8,26 25,39 -235,-6 10,-20 -11,-31 68,-52Z"/>
    <path data-fips-int="21173" data-name="Montgomery County" d="M2540,699h-1l-52,-99 43,-44 2,1 2,18v1v-1l40,12 53,73v2l-3,43 -17,9h-12h-5l-6,-2Z"/>
    <path data-fips-int="21175" data-name="Morgan County" d="M2911,647l5,1 20,4 7,-4 17,23 13,39 -18,19 -5,-3 -50,-14 8,15 -37,26 -21,20 -4,40 -46,-47 -38,-20 -19,-12v-1l-5,-3 27,-43 2,-48v-1l13,-4 13,-11 47,-31 -2,21 10,13 32,18 6,4Z"/>
    <path data-fips-int="21177" data-name="Muhlenberg County" d="M1180,986l3,21 45,29 2,31 36,31 -1,11 -10,27v1l11,26 -16,8 -4,3v2l-48,5 -31,8 -60,-6ZM1180,986h-30l-18,18 -7,-1 -30,-6 -5,10 2,4 -9,9 -23,27 -3,4v3l1,1h-1l-2,9 27,39 3,6 -5,12 -3,5 1,14 29,33h1Z"/>
    <path data-fips-int="21179" data-name="Nelson County" d="M1797,813l-2,-10 -21,-30 15,-1 21,-10v-1l32,-28 20,-45 18,-15 13,13 27,16 100,-19 6,42v4l-1,1 -22,23 -5,-13 -25,12 -53,65h-2l-23,29 -27,67 -1,1 -12,13 -20,-2 2,-38ZM1838,877l-1,-40 -38,-21Z"/>
    <path data-fips-int="21181" data-name="Nicholas County" d="M2532,555l-2,1 2,-3 -23,-8 -43,-44 -30,-41 38,-49 53,10 28,42 34,15 -4,21Z"/>
    <path data-fips-int="21183" data-name="Ohio County" d="M1261,870l4,-1 10,-7 3,-1v-2l27,-14 -20,-20 18,-15 80,43 -4,24 22,29 3,10 -5,4 -30,-9 24,88 -67,49 -23,6h-2l-6,8 -29,36 -36,-31 -2,-31 -45,-29 -3,-21 -4,-32 32,-48Z"/>
    <path data-fips-int="21185" data-name="Oldham County" d="M1955,398v1l-13,20 26,54 -16,26 -55,8 -5,2 -2,4 -75,-52 17,-35 31,-7 40,-37Z"/>
    <path data-fips-int="21187" data-name="Owen County" d="M2179,273l9,58 43,37 38,39 -68,67 -41,-2h-14l-5,-32 -63,-50 10,-24 -32,-25 60,-36 5,-5 5,1Z"/>
    <path data-fips-int="21189" data-name="Owsley County" d="M2693,927l5,-2 14,4v7l6,11 10,47 -1,29 10,33v8l-7,-5 -33,-24 -73,-18 -5,-5 -24,-42v-1l-16,-42 25,15 63,-15 15,-16Z"/>
    <path data-fips-int="21191" data-name="Pendleton County" d="M2429,345l-83,13 -12,11 -8,3 -12,-4 -25,-136 47,-8 80,-39 1,26Z"/>
    <path data-fips-int="21193" data-name="Perry County" d="M2893,977l17,2 8,59 -7,34 27,-7 30,27v1l-17,17 -3,34 -8,33 -22,24 -2,-2h-5l-20,-8 2,-18 -12,-35 -6,-22 -22,-23 -26,-13 -14,-32 -20,-19 -40,24 -6,23 -10,-12v-8l-10,-33 11,-3 4,-1 26,-21 37,16 5,-11 31,-16 30,-28Z"/>
    <path data-fips-int="21195" data-name="Pike County" d="M3158,1086l-9,-6 -20,-21 -33,3v-8l-13,-7 10,-8 16,-12 2,-36 20,-8 12,-51 -17,-13 8,-86 15,-15 75,-5 -12,-11 34,-18 20,39 69,39 2,21 75,5 -161,155 -45,16Z"/>
    <path data-fips-int="21197" data-name="Powell County" d="M2540,699l44,13 6,2h5h12l17,-9 61,49v2l-31,59h-7l-25,-23 -18,8 -9,-9 -28,2 -38,-48 -5,5 -4,-7 -3,-2 15,-37 3,-3 4,-2Z"/>
    <path data-fips-int="21199" data-name="Pulaski County" d="M2407,1145l-16,30 8,23 -22,37 -28,9 -68,43 -43,-61 -42,12 -28,-21 -32,-31 4,-34 78,-67 70,-65 23,13v1l91,89 4,3v2v1Z"/>
    <path data-fips-int="21201" data-name="Robertson County" d="M2489,335l30,7 1,-5 29,55 -22,29 -53,-10 -12,-9 -21,-14 8,-28 12,-2Z"/>
    <path data-fips-int="21203" data-name="Rockcastle County" d="M2442,925l-1,22 30,63v26l-9,11 -25,12 -35,64 4,3 -4,-3 -91,-89v-1l23,-86 32,7 11,-37Z"/>
    <path data-fips-int="21205" data-name="Rowan County" d="M2775,442l23,38 4,1 8,22 7,14 14,26 2,5 7,3 6,-1v-1l-1,4 -5,-2 8,7h12l-7,24 -13,10 -47,31 -13,11 -13,4v1l-30,-10 -22,-45 -2,-2 -1,-3 -22,11 5,-31 -5,-1v-2h-12l4,-3 6,-5 45,-38 4,-33 16,-29 15,-8Z"/>
    <path data-fips-int="21207" data-name="Russell County" d="M2140,1152l-4,34 32,31 -100,77 -23,16 -34,-23 -8,10 -26,-24 18,-15 10,-36 71,-108 40,46Z"/>
    <path data-fips-int="21209" data-name="Scott County" d="M2279,396l19,36 21,18 12,60 13,39 3,2 -93,44 -1,8 -7,-18 -17,-19 -21,-3 1,-3 -8,-86 68,-67Z"/>
    <path data-fips-int="21211" data-name="Shelby County" d="M2081,598l-10,30 -23,20 -140,-60 9,-63 -27,-12 2,-4 5,-2 55,-8 16,-26 123,11 17,2 -17,30Z"/>
    <path data-fips-int="21213" data-name="Simpson County" d="M1478,1407h-155l3,-42 28,-63 37,-22 12,29 80,13 -2,17Z"/>
    <path data-fips-int="21215" data-name="Spencer County" d="M2048,648l-8,9 -5,13 -4,-3h-10l-1,16 -100,19 -27,-16 -13,-13 -10,-8 20,-48 17,-12 1,-17Z"/>
    <path data-fips-int="21217" data-name="Taylor County" d="M1878,954l5,8 5,-1 4,1v-1l15,-6 25,5 1,1 4,-1 40,29 29,-18 19,-8 38,26 -10,9 -17,10 -13,38 -12,21 -31,7 -13,8 -25,30 -55,-94 -47,-37v-20l18,7Z"/>
    <path data-fips-int="21219" data-name="Todd County" d="M1107,1183l60,6 31,-8 -7,228 -121,-2Z"/>
    <path data-fips-int="21221" data-name="Trigg County" d="M914,1407l-70,2v-18l-97,-11 -16,-36 -19,-67 123,-48 50,-7 14,-15 33,20 -8,117Z"/>
    <path data-fips-int="21223" data-name="Trimble County" d="M1947,266l50,70 19,11 -46,50 -15,1 -52,-16 9,-22 -19,-64 9,-26Z"/>
    <path data-fips-int="21225" data-name="Union County" d="M887,794l10,-4 10,69 -88,84 -28,-15v-21l-27,22 -32,-39 -11,-35 20,-42 25,-12 23,-35 25,18 21,-22 -8,-49 45,74Z"/>
    <path data-fips-int="21227" data-name="Warren County" d="M1459,1134l24,-10 53,49 26,-13 47,23 -23,70 -32,16 -73,70 2,-17 -80,-13 -12,-29 -28,-64v-1l28,-83 -5,-16 55,-3Z"/>
    <path data-fips-int="21229" data-name="Washington County" d="M2056,727l2,3 13,-5 4,4h1l4,-2 11,19 -8,98 -3,26 -98,1 -37,-11 -25,-42 -2,-1h2l53,-65 25,-12 5,13 22,-23 1,-1v-4Z"/>
    <path data-fips-int="21231" data-name="Wayne County" d="M2281,1287l-5,33h-3l-4,4 -10,7 -63,101 -86,-5 -7,-3 -12,-38 4,-34 -27,-58 100,-77 28,21 42,-12Z"/>
    <path data-fips-int="21233" data-name="Webster County" d="M1062,899l-54,44 -43,14 -98,58 8,-15 -20,2 -36,-19v-39v-1l88,-84 103,-3 5,26Z"/>
    <path data-fips-int="21235" data-name="Whitley County" d="M2442,1240l39,-11 8,3 3,3 18,57 22,19 23,49 35,20 -16,15 -17,9 10,31h-128l-35,-40 -25,-78 17,-15 8,-60Z"/>
    <path data-fips-int="21237" data-name="Wolfe County" d="M2762,746l38,20 46,47 2,2v11l5,10h-5l-31,-3 -10,-4h-2h-3l-7,-4 -3,-4 -39,41 -18,-6 -45,-15 -36,-26 31,-59 38,-3 20,-19Z"/>
    <path data-fips-int="21239" data-name="Woodford County" d="M2209,560l-1,3 21,3 17,19 7,18 -15,61 -20,79 -22,7 -7,-32 -20,-3 10,-32 -23,-42 -6,-37v-14Z"/>
  </g>
  <path class="mesh" transform="scale(0.1)" d="M2248,77l11,103 -6,47 -20,14 -59,-43M852,1033l23,40 12,28 27,12 11,14 70,25 15,-11 48,-3 19,-12 1,14 29,33h1M1107,1183l-37,224M2487,600l52,99 -4,2 -3,3 -15,37 3,2 4,7 -33,-5v-1v-1h-10l-37,-13 -33,2 -7,-21 -25,12 5,-59 15,-36M2466,501l43,44 23,8 -2,3 -43,44 -20,7 -68,21 -8,-10 -32,-13 8,-46 -18,-7 -2,-1 -3,-2 -13,-39 41,-2 64,-48 30,41M1968,1422l35,-125 8,-10 34,23 23,-16 27,58 -4,34 12,38 7,3M658,1017l-9,-33 -16,-3M3119,511l-8,-12 -43,16h-25h-5l5,-55 -15,-15 15,-24 48,-51M835,1229l-38,-58 -30,-61 -23,-4 -15,12 -8,6h-20l-9,-26 5,-9 -5,-35 -34,-36M2023,1046l47,29 6,39 -71,108 -10,36 -18,15 26,24M1586,1253l40,34 16,62 27,21 11,31 -10,20M1255,872l-47,34 -13,-5 -83,-29 -64,-36 7,-21 33,-10 20,-23 -20,-21 9,-42M1236,704l37,26 -8,26 25,-2 13,56 -18,15 20,20 -27,14v2l-3,1 -10,7 -4,1M2901,651l-15,-3 -6,-4 -32,-18 -10,-13 2,-21 13,-10 7,-24h-12l-8,-7 5,2 1,-4v1M3038,515l-12,21 -15,9 -26,10 16,32 -58,61 -7,4 -20,-4 -5,-1M2557,240l-37,97 -1,5 -30,-7 -28,23 -12,2 -18,2 -2,-17 -12,-134M2524,750l5,-5 38,48 28,-2 9,9 18,-8 25,23 -43,34 -15,26 -22,37 -25,-21 -53,10 -17,-44 12,-7 10,-78 -22,-8 19,-19v-1M2379,723l-43,26 -18,-50 -80,-35 15,-61 1,-8 93,-44M351,1235l-33,-8 -18,-5M3071,788l30,9 15,3 8,7 5,2 20,9 -15,15 -8,86 17,13 -12,51 -20,8 -2,36 -16,12 -19,-12 -8,-65 -30,9 2,-29 -42,-10 20,-29 -21,-64 -9,-33 5,-1 80,-17M2081,598l10,-82 17,-30 -17,-2 45,-11M380,1071l43,150 -10,2 -3,-1 -14,3M260,1380l67,35 53,11 30,41M1609,1183l17,5 8,-62 61,10 74,-12 -12,16 12,74 3,91 -35,13 -68,52M2203,824l25,-17 -14,-39 42,5 -7,18 32,22 17,-21 16,23 17,16 3,16h2v3l-2,6 32,33 11,28 -11,37 -32,-7 -5,-4 -85,-66 -3,-10M2253,227l36,5 25,136 -3,18 -32,10 -10,11 -38,-39 -43,-37 -9,-58M1448,643l109,95 37,41 -55,113 5,3 25,8 42,6 23,34 5,28 2,5v27l-24,33 -23,-8h-3v5M2923,289l10,-11 -5,-23M2985,555l-15,1 -25,-16 -17,14 -47,-45 -35,41 -6,1 -7,-3 -2,-5 -14,-26 -7,-14 -8,-22 26,-3 5,-2 8,-3h2l3,-2v-50l14,-15 1,-1 12,-27 3,-1 14,-16 23,-32 10,-40M1539,892l-12,3 -5,1 -11,-3 -4,15 -56,-15 -8,-17 -42,30 -22,-29 4,-24 -80,-43M1797,814l2,2 -25,44 -29,15 -8,28 -25,16 -7,57 -66,-5M1594,779l62,-10 13,-27 -8,-72M1774,773l-45,-38 -5,-36 -24,2 -13,-31 13,-16 84,-32 68,7 55,-24 -17,12 -20,48 10,8 -18,15 -20,45 -32,28v1l-21,10 -15,1 21,30 2,10M2713,1230l-11,-2 -30,-11 -13,-7 -14,-16h-33l-22,-15 -18,-31h-3l-24,-30 10,-46 4,-4 15,1 50,-52 73,18 33,24 7,5 10,12 -19,38 17,91 5,34 8,24 15,6 12,-4 12,-16 61,-29 33,-29 20,8h5l2,2 -13,25 65,-22 3,-2 25,-11 31,21M2449,360l-8,28 21,14 12,9 -38,49M2331,510l-12,-60 -21,-18 -19,-36M2314,368l12,4 8,-3 12,-11 83,-13M1705,976l104,10M1795,1118l-26,6M1048,836l-38,20 -103,3 -10,-69 -10,4 -15,-7 -45,-74M2233,241l-49,7 -5,25 -53,28 -5,-1 -5,5 -60,36 32,25 -10,24 63,50 5,32M744,1106l15,-28 116,-78 -8,15 98,-58 43,-14 54,-44 10,24 -2,56 25,18 -5,10 2,4 -9,9 -23,27 -3,4v3l1,1h-1l-2,9 27,39 3,6 -5,12 -3,5M2567,912l12,14v1l16,42v1l24,42 5,5M2795,825l7,4h3h2l10,4 31,3h5l23,12 4,3 5,-1 8,7 32,-2 16,21 15,11 7,23 23,14h-26l-29,-7 -3,-1 -3,-1 -20,36 5,28 -17,-2 -22,-18 -30,28 -31,16 -5,11 -37,-16 -26,21 -4,1 -11,3 1,-29 -10,-47 -6,-11v-7l23,-73 18,6 39,-41 3,4M2555,1072l-53,-18 -5,1 -13,-14v-3l-5,-10 -8,8v-26l-30,-63 1,-22 24,-24h23M2336,749l-38,43M2214,768l4,-25 20,-79M2986,806l-6,-43 -25,-34 18,-19 -13,-39 21,-19 47,15 68,39 28,6v1l-10,5 -11,17 6,6 2,2 -8,10 13,47M2416,185l-80,39 -47,8M3013,1081l-38,22 -7,-11 -30,-27 -27,7 7,-34 -8,-59M2986,924l4,6 6,2M1383,853l-17,-71 10,-28M3093,1039l-10,8 -29,6 -6,-2 -34,29h-1M2567,1435l-10,-31 17,-9 16,-15 -35,-20 -23,-49 -22,-19 -18,-57 38,-17 4,2 30,-8 26,-33M1838,877l-1,10 -2,38 20,2 12,-13 1,-1 24,48v1l-4,-1 -5,1 -5,-8 -20,14 -18,-7M1799,816l38,21 1,40M2492,1235l-3,-3 -8,-3 -39,11 -38,2 -27,-7 22,-37 -8,-23 16,-30 -1,-16M2406,1128v-2l-4,-3 35,-64 25,-12 9,-11M3172,675l-23,-8 -15,4 -10,41M2960,671l-17,-23M2647,815h7l36,26 45,15M2712,929l-14,-4 -5,2 -11,-16 -15,16 -63,15 -25,-15M2747,1076l6,-23 40,-24 20,19 14,32 26,13 22,23 6,22 12,35 -2,18M1865,1157l77,-45 25,-30 13,-8 31,-7 12,-21 13,-38 17,-10 10,-9h2h10l1,-72M1478,1407l3,-68 73,-70 32,-16 23,-70 -47,-23 -26,13 -53,-49 -24,10 -18,-21 -55,3 5,16 -28,83 -73,-31 -44,-8v-2l4,-3 16,-8 -11,-26v-1l10,-27 1,-11 29,-36 6,-8h2l23,-6 67,-49 -24,-88 30,9 5,-4 -3,-10M3083,1047l13,7v8l33,-3 20,21 9,6M1393,999l55,18 6,24 137,-8 46,66 -3,27M1454,1041l29,83M2918,1201l22,-24 8,-33 3,-34 17,-17v-1M2585,499l45,5 5,12 19,13 24,27h12v2l5,1 -5,31 22,-11 1,3 2,2 22,45 -30,-3 -4,26h-3l-30,-8 -25,13 -8,-2 -10,7v-2l-53,-73 -40,-12v1v-1l-2,-18 -2,-1 2,-1M2775,442l-7,-2 -15,8M2672,370l6,-47 -10,-13M2775,442l23,38 4,1M2334,947l-23,86 -23,-13 -70,65M701,1124l-19,31 -3,59 -31,-40 -25,-7 -50,21 -35,-33M1363,1215v1l28,64 -37,22 -28,63 -3,42M1191,1409l7,-228 48,-5M925,1127l-15,70 -11,10 -14,15 -50,7 -123,48 -11,-37 -22,-26M573,1188l-2,44M2404,1242l-8,60 -17,15 25,78 35,40M2532,554l53,-55 4,-21 -34,-15 -28,-42 22,-29 30,19 93,-41 3,2 22,22 1,29 20,6 27,10 8,9 -16,29 -4,33 -45,38 -6,5 -4,3M2196,1432l63,-101 10,-7 4,-4h3l5,-33 68,-43 28,-9M1180,986h-30l-18,18 -7,-1 -30,-6M1062,899l-47,-17 -5,-26M2442,925l-65,-8M2853,836l-5,-10v-11l-2,-2 4,-40 21,-20 37,-26 -8,-15 50,14 5,3M867,1015l-15,18M561,1474l7,-138 163,8 16,36M1867,914l1,-1 27,-67 23,-29 2,1 25,42 37,11 98,-1M2336,224l-13,-8 5,-47 -12,-22 15,-15 -25,-24 -8,-42M423,1221l3,4 145,7 -3,104M426,1225l-3,95 -108,-3 -27,-8M2063,989l-38,-26 -19,8 -29,18 -40,-29 -4,1 -1,-1 -25,-5 -15,6M712,1277l19,67M3246,784l-34,18 12,11 -75,5M2549,392l-29,-55M2056,341l-40,6 -19,-11 -50,-70M2737,629l30,10v-1v1l-2,48 -27,43 5,3v1l-20,19 -38,3v-2l-61,-49 3,-43M2083,844l8,-98 -11,-19M2179,683l-10,32 20,3 7,32 22,-7M1835,1317l-63,-12M2540,699h-1M2078,251l38,54M2624,705l-17,9h-12h-5l-6,-2 -44,-13M2846,813l-46,-47 -38,-20 -19,-12M2758,1263l-8,47 25,78M2767,638l13,-4 13,-11 47,-31M1208,906l-32,48 4,32 3,21 45,29 2,31 36,31M1198,1181l-31,8 -60,-6M1880,673l13,13 27,16 100,-19M2136,473l10,-1h14l41,2 8,86 -59,30v14l6,37 23,42 -36,18 -22,-8 -30,26 -11,11v-3l-4,2h-1l-4,-4 -13,5 -2,-3 -30,-2 -6,-42 1,-16h10l4,3 5,-13 8,-9 23,-20 10,-30 50,18 19,-12M2876,377l24,11 20,9 28,29 15,10 12,-4 53,13M2026,725v4l-1,1 -22,23 -5,-13 -25,12 -53,65h-2M2474,411l53,10M1968,473l-16,26 -55,8 -5,2 -2,4M1903,382l52,16M2269,407l-68,67M2590,1380l30,-33 10,-30 19,1 38,-36 23,-21 3,-31 37,9M2727,1023l10,33v8M2685,756l-31,59M2281,1287l-43,-61 -42,12 -28,-21 -32,-31 4,-34M2311,1033v1l91,89 4,3M2168,1217l-100,77M2253,603l-7,-18 -17,-19 -21,-3 1,-3M2048,648l-140,-60M1391,1280l12,29 80,13 -2,17M907,859l-88,84M914,1407l10,-63 8,-117 -33,-20M764,929l27,-22v21l28,15v1v39l36,19 20,-2M1905,1427l-25,-39 8,-26 -36,-21 -17,-24 40,-27 23,-39 -23,-38 -10,-56 -40,-6 -30,-33v-98l15,-15 -1,-19 1,-14 15,-11 15,-1v1v20l47,37 55,94M2160,916l-22,8 -62,-7 4,-47 3,-26 120,-20 11,11 27,32 -2,5 -5,4 -74,40v65l56,36 2,68 -78,67 -24,8 -40,-46M416,1467l7,-147M1680,665l7,5M2091,484l-123,-11 -26,-54 13,-20v-1l15,-1 46,-50M1815,461l75,52 27,12 -9,63 -1,17M1995,1258l-97,-7"/>
  <g class="cities">
    <circle r="3" cx="176.4" cy="53.1"/>
    <text x="176.4" y="53.1">Louisville</text>
    <circle r="3" cx="232.6" cy="63.8"/>
    <text x="232.6" y="63.8">Lexington</text>
    <circle r="3" cx="146.5" cy="122.2"/>
    <text x="146.5" y="122.2">Bowling Green</text>
  </g>
</svg>