<?xml version="1.0" encoding="utf-8"?>
<!DOCTYPE svg PUBLIC "-//W3C//DTD SVG 1.1//EN" "http://www.w3.org/Graphics/SVG/1.1/DTD/svg11.dtd">
<svg version="1.1" xmlns="http://www.w3.org/2000/svg" width="1000" height="434" viewBox="0 0 1000 434">
  <path class="state" d="M556,75h10l3,6 10,1 14,-11 16,-5 10,1 2,-11 -9,-7 5,-12 -9,-13 18,-14 16,12 14,-4 8,-2 1,9 13,3 12,24v8l17,8 17,-2 6,2 14,11 4,8 14,1 1,-5 15,-5 17,5 11,10 6,-5 9,2 16,-18 18,-5 5,26 15,4 7,8 8,6 5,34h-3l-4,18 19,21 -1,8 10,9v7l13,10 -1,5 5,12 15,6 6,11 11,4 9,-4 -10,12 -35,34 -27,12 -20,12 1,12 -18,12 -2,13 -14,7 -9,-1 -7,11 1,6 -42,14 -7,-1 -16,8 -6,7h-29h-38l-69,-1 -24,-2 -41,-1 -17,1 -9,1 -59,-2 -55,-4h-46h-36h-34h-46h-20l1,-5 -27,-3 4,18 -3,11 -55,-2 -41,-2h-2l-58,-3 -15,1 6,-19 6,-1 7,10 7,-3 4,-10 -3,-10 10,-11 -6,-3 5,-6 5,-15 -8,-10 -1,-7 12,-17 12,-9 8,-1 18,8 7,6 15,5 5,6h14l4,-9 -11,-25 5,-14 9,-6 6,3 8,-7 24,-2 6,-5 -10,-13 -2,-13 12,-10 4,-10 10,4 6,-5 -2,-15 6,-3 4,7 21,-3v11l10,-4 -4,-12 4,-7 12,11 7,-5 17,7 17,9 7,10 5,-4 3,-15 8,-4 7,-1 12,-9 13,16 8,-3v11l7,-4v-7l12,-2 -3,-10 4,-9 25,-18 2,15 11,9 9,-1 9,9 5,-6 6,-1 4,-3 2,-24 8,-15 11,1 9,-5 4,-13 8,-11 10,-3 8,-8 -1,-33ZM35,416h-8l-2,-9 10,-2Z"/>
  <g class="counties">
    <path data-fips-int="21001" data-name="Adair County" d="M578,298l13,9 2,11 -20,29 -4,12 -27,-2 -10,-27 19,-9 3,-4 11,-11 9,-1Z"/>
    <path data-fips-int="21003" data-name="Allen County" d="M452,358l8,11 4,-5 3,19 9,8 1,15 -55,-4 1,-20Z"/>
    <path data-fips-int="21005" data-name="Anderson County" d="M614,172l5,21 4,2 -14,5 -3,-3 -12,10 -15,-1 -2,-11 8,-10 9,-15 17,5Z"/>
    <path data-fips-int="21007" data-name="Ballard County" d="M121,348l-23,4 -13,-3 -8,-10 -1,-7 12,-17 12,-9 8,-1Z"/>
    <path data-fips-int="21009" data-name="Barren County" d="M507,372l-11,4 -20,15 -9,-8 -3,-19 -4,5 -8,-11 7,-20 5,1 3,-18 23,3 16,-3 -4,4Z"/>
    <path data-fips-int="21011" data-name="Bath County" d="M765,159l3,8 18,8 -4,5 -9,-2v8l-12,-2 -11,4 -7,-11 -21,-18 17,-17 13,3 6,10Z"/>
    <path data-fips-int="21013" data-name="Bell County" d="M785,354l3,6 -1,26 5,10 -7,-1 -16,8 -6,7h-29l-4,-10 10,-6 8,-9 3,-9 12,-6 14,-11 -2,-8Z"/>
    <path data-fips-int="21015" data-name="Boone County" d="M642,22l3,21 -1,21 -7,4 -16,-12 -9,-7 5,-12 -9,-13 18,-14Z"/>
    <path data-fips-int="21017" data-name="Bourbon County" d="M722,159l-12,12 -25,7 -12,-6 3,-13 -6,-2 -5,-12h13l18,-14 9,15Z"/>
    <path data-fips-int="21019" data-name="Boyd County" d="M892,145l-3,-3 -13,6 -8,-1 2,-19 -6,-2 6,-9 12,-12 8,6 5,34Z"/>
    <path data-fips-int="21021" data-name="Boyle County" d="M629,235l11,12 -23,14 -7,3 -17,-2 1,-14 1,-7Z"/>
    <path data-fips-int="21023" data-name="Bracken County" d="M730,68l-10,27 -9,-1 -12,8 -5,-4 -4,-38 17,8 17,-2Z"/>
    <path data-fips-int="21025" data-name="Breathitt County" d="M815,238l21,6 8,7 2,9 7,3 -18,-2 -5,9 1,9 -12,-5 -5,7 -17,10 -6,-6 -12,7 -1,-21 -3,-6 6,-21h9l6,-10Z"/>
    <path data-fips-int="21027" data-name="Breckinridge County" d="M455,222l-15,32 -9,5 -12,-2 -7,-7 -12,8 -6,-15 -4,-20 3,-8 7,-4v-7l12,-2 -3,-10 4,-9 32,28Z"/>
    <path data-fips-int="21029" data-name="Bullitt County" d="M537,192l-11,18 -8,7 -11,3 -14,-11 -1,-10 -6,1 -4,-9 5,-6 22,-8 20,2 16,-7 -6,4 -5,13Z"/>
    <path data-fips-int="21031" data-name="Butler County" d="M424,321l-28,-3 -6,29 -22,-9 -12,-2 6,-3 -4,-9 4,-7 -1,-4 9,-8 2,-10 7,4 18,-14 16,5 2,7Z"/>
    <path data-fips-int="21033" data-name="Caldwell County" d="M248,290l4,22 11,9 -6,24 -19,6 -14,-22 -5,-12 -7,-1 2,-8 36,-23Z"/>
    <path data-fips-int="21035" data-name="Calloway County" d="M209,383l5,11 4,18 -3,11 -55,-2 1,-40Z"/>
    <path data-fips-int="21037" data-name="Campbell County" d="M690,52l-23,11 -4,-3 1,-13 -8,-29 8,-2 1,9 13,3Z"/>
    <path data-fips-int="21039" data-name="Carlisle County" d="M121,349v28l-32,-1 -8,-3 -6,-3 5,-6 5,-15 13,3 23,-4Z"/>
    <path data-fips-int="21041" data-name="Carroll County" d="M605,87l-18,10 -11,2 -20,-24h10l3,6 10,1 14,-11Z"/>
    <path data-fips-int="21043" data-name="Carter County" d="M864,126l6,2 -2,19 -7,8 -8,3 -20,-5 -12,-8 -8,11 -7,-2 -6,-17 14,-3 -1,-14 8,-13 14,6 11,11Z"/>
    <path data-fips-int="21045" data-name="Casey County" d="M617,261v19l16,10v20l-22,19 -8,1 -10,-12 -2,-11 -13,-9 4,-11 7,-5h3l1,-20 17,2Z"/>
    <path data-fips-int="21047" data-name="Christian County" d="M307,321l9,14 -8,49 -2,18h-46l3,-17 3,-35 -9,-5 6,-24 21,8Z"/>
    <path data-fips-int="21049" data-name="Clark County" d="M725,199l-4,15 -10,-2 -23,-3 -1,-6 -7,3 1,-17 4,-11 25,-7Z"/>
    <path data-fips-int="21051" data-name="Clay County" d="M781,303l3,4 -4,11v18l5,18 -10,-3 -35,-15 -2,-10 -6,1 -5,-10 3,-11 19,-16 14,1Z"/>
    <path data-fips-int="21053" data-name="Clinton County" d="M590,369l8,14 1,23 4,1 -41,-1 10,-36 12,4Z"/>
    <path data-fips-int="21055" data-name="Crittenden County" d="M234,269l-1,10 17,6 -36,23 -2,8 -6,3 -6,1 -2,-20 -11,-14 -7,-7 8,-7 24,-2 6,-5 5,-7 6,13Z"/>
    <path data-fips-int="21057" data-name="Cumberland County" d="M569,359l-4,5 7,6 -10,36 -17,1 -7,-8 1,-10 -14,-7 -1,-6 15,-12 3,-7Z"/>
    <path data-fips-int="21059" data-name="Daviess County" d="M372,231l-5,6 6,4 -18,7 -10,10 -11,-2 -35,-17 4,-9 13,-7 -5,-5 2,-13 17,9 7,10 5,-4 3,-15 8,-4 10,7 -2,7h7Z"/>
    <path data-fips-int="21061" data-name="Edmonson County" d="M454,295l14,18 -1,8 -3,18 -5,-1 -12,-7 -9,3 -14,-13 -9,-24Z"/>
    <path data-fips-int="21063" data-name="Elliott County" d="M853,158l4,10 -16,17 -22,-1 -8,-6v-9l7,-10 -5,-3 8,-11 12,8Z"/>
    <path data-fips-int="21065" data-name="Estill County" d="M721,214l18,13 17,5 -10,8 -12,20 -8,-6 -15,3 -5,-11 4,-5 1,-29Z"/>
    <path data-fips-int="21067" data-name="Fayette County" d="M685,178l-4,11 -1,17 -13,7 -5,-14 -23,-10 5,-17v-2l26,-13 6,2 -3,13Z"/>
    <path data-fips-int="21069" data-name="Fleming County" d="M786,128l-5,5v12l-16,14 -7,-4 -6,-10 -13,-3 -17,-22 6,-8 9,5 26,-11 7,6 1,9Z"/>
    <path data-fips-int="21071" data-name="Floyd County" d="M890,228l9,5 -5,2 -1,27 4,10 -8,10 -6,14 -5,-3 -1,-18 -10,2 1,-8 -12,-3 5,-8 -8,-28 5,2 17,-9Z"/>
    <path data-fips-int="21073" data-name="Franklin County" d="M613,135h15l3,24 -17,9v4l-3,3 -17,-5 3,-32 11,-7Z"/>
    <path data-fips-int="21075" data-name="Fulton County" d="M117,419l-58,-3 -15,1 6,-19 6,-1 7,10 7,-3 4,-10 16,9 18,4ZM35,416h-8l-2,-9 10,-2Z"/>
    <path data-fips-int="21077" data-name="Gallatin County" d="M637,68l-14,2v7l-18,10 -12,-16 16,-5 10,1 2,-11Z"/>
    <path data-fips-int="21079" data-name="Garrard County" d="M650,232l6,-6 5,4 18,32 -3,10 -10,-2 -23,-18 -3,-5 -11,-12 6,-2 -3,-14 14,3 -4,3Z"/>
    <path data-fips-int="21081" data-name="Grant County" d="M654,66l7,39 -10,8 -3,3 -5,-2 -7,-11 -11,-9 -2,-17v-7l14,-2 7,-4Z"/>
    <path data-fips-int="21083" data-name="Graves County" d="M162,352l-1,29 -1,40 -41,-2 2,-42v-28Z"/>
    <path data-fips-int="21085" data-name="Grayson County" d="M440,254l11,6 9,-2 8,19 2,9 -4,6 -12,3 -39,2 -2,-7 -16,-5 -5,-25 8,-2 12,-8 7,7 12,2Z"/>
    <path data-fips-int="21087" data-name="Green County" d="M526,274l-1,5 14,12 15,26 -3,4 -19,9 -12,-2 -8,-9v-27l3,-11Z"/>
    <path data-fips-int="21089" data-name="Greenup County" d="M882,105l-12,12 -6,9 -18,-2 -11,-11 -14,-6 8,-7 8,-28 18,-5 5,26 15,4Z"/>
    <path data-fips-int="21091" data-name="Hancock County" d="M393,215l-3,8 4,20 -22,-12 -4,-16h-7l2,-7 -10,-7 7,-1 12,-9 13,16 8,-3Z"/>
    <path data-fips-int="21093" data-name="Hardin County" d="M482,191l4,9 6,-1 1,10 14,11 6,13 -6,13 -9,4 -9,14 -2,15 -19,-2 -8,-19 -9,2 -11,-6 15,-32 18,-3 3,-10 -2,-18 6,-1Z"/>
    <path data-fips-int="21095" data-name="Harlan County" d="M834,343l-4,7 16,-4 10,-6 9,6 -2,13 -14,7 -9,-1 -7,11 1,6 -42,14 -5,-10 1,-26 25,-9 13,-11Z"/>
    <path data-fips-int="21097" data-name="Harrison County" d="M699,102l-1,11 8,4 -10,14 -18,14h-13l-2,-17 -8,-5 -4,-10 10,-8 3,2 1,-1 7,-5 22,-3Z"/>
    <path data-fips-int="21099" data-name="Hart County" d="M487,279l28,2 -3,11v27l-6,2 -16,3 -23,-3 1,-8 -14,-18 12,-3 4,-6 -2,-9Z"/>
    <path data-fips-int="21101" data-name="Henderson County" d="M313,205l-2,13 5,5 -13,7 -4,9 -10,5 -31,1 -2,-20 -8,-1 -12,-21 6,-3 4,7 21,-3v11l10,-4 -4,-12 4,-7 12,11 7,-5Z"/>
    <path data-fips-int="21103" data-name="Henry County" d="M613,135l-5,-4 -11,7 -35,-3 -8,-16 4,-5 5,-1 13,-14 11,-2 9,6 6,20 9,1Z"/>
    <path data-fips-int="21105" data-name="Hickman County" d="M121,377l-2,42h-2l-9,-12 -18,-4 -16,-9 -3,-10 10,-11 8,3Z"/>
    <path data-fips-int="21107" data-name="Hopkins County" d="M313,284l-11,12 -1,9 9,10 -3,6 -23,8 -21,-8 -11,-9 -4,-22 29,-18 11,-3 15,-13 2,20Z"/>
    <path data-fips-int="21109" data-name="Jackson County" d="M734,260l3,4v6l12,20 -19,16 -14,-2 -11,-8v-8l-8,-18 1,-6 3,-6 10,-1 15,-3Z"/>
    <path data-fips-int="21111" data-name="Jefferson County" d="M540,146l8,3 -3,19v4l-16,7 -20,-2 -22,8 -5,6 -2,-1 4,-3 2,-24 8,-15 11,1 9,-5 4,-13Z"/>
    <path data-fips-int="21113" data-name="Jessamine County" d="M667,213l-11,13 -6,6 -8,-7 4,-3 -14,-3 1,-7 6,-23 23,10Z"/>
    <path data-fips-int="21115" data-name="Johnson County" d="M893,203l-8,5 5,20 -15,-5 -17,9 -5,-2 -2,-12 -7,-10 4,-7 -3,-10 5,-6 16,6 18,10Z"/>
    <path data-fips-int="21117" data-name="Kenton County" d="M656,18l8,29 -1,13 4,3 -13,3 -10,-2 1,-21 -3,-21Z"/>
    <path data-fips-int="21119" data-name="Knott County" d="M853,263l3,3 12,3 -1,8 10,-2 1,18 5,3 -3,3 -10,1 -20,15 -2,-3 -9,-8 -7,1 -1,-26 -1,-9 5,-9Z"/>
    <path data-fips-int="21121" data-name="Knox County" d="M775,351l2,8 -14,11 -12,6 -3,9 -8,9 -10,-6 -3,-11 -6,-3 -9,-13v-9l7,-5 10,2 4,-10 7,-3Z"/>
    <path data-fips-int="21123" data-name="Larue County" d="M533,260l7,14h-14l-11,7 -28,-2 2,-15 9,-14 9,-4 6,-13 11,5 -2,24Z"/>
    <path data-fips-int="21125" data-name="Laurel County" d="M730,306l-3,11 5,10 6,-1 2,10 -7,3 -4,10 -10,-2 -7,5 -26,2 -7,-2 5,-8 -1,-9 4,-13 2,-11 16,-15 11,8Z"/>
    <path data-fips-int="21127" data-name="Lawrence County" d="M892,145l-4,18 19,21 -1,8 -10,-1 -3,12 -9,-2 -18,-10 -16,-6 -5,6 -4,-6 16,-17 -4,-10 8,-3 7,-8 8,1 13,-6Z"/>
    <path data-fips-int="21129" data-name="Lee County" d="M758,232l23,12 -6,21 -10,-5 -4,5 -18,3 -6,-4 -3,-4 12,-20 10,-8Z"/>
    <path data-fips-int="21131" data-name="Leslie County" d="M826,340l-13,11 -25,9 -3,-6 -5,-18v-18l4,-11 11,-12 8,2 2,9 16,10 6,10Z"/>
    <path data-fips-int="21133" data-name="Letcher County" d="M880,299l7,6 8,-2 7,7 -20,12 1,12 -18,12 -9,-6 -10,6 -16,4 4,-7 7,-3 -1,-17 8,-11 2,3 20,-15Z"/>
    <path data-fips-int="21135" data-name="Lewis County" d="M821,107l-8,13 1,14 -14,3 -8,-12 -6,3 -15,-7 -1,-9 -7,-6 -1,-18 1,-5 15,-5 17,5 11,10 6,-5 9,2 16,-18 -8,28Z"/>
    <path data-fips-int="21137" data-name="Lincoln County" d="M666,270l-6,25 -6,-4 -21,19v-20l-16,-10v-19l23,-14 3,5Z"/>
    <path data-fips-int="21139" data-name="Livingston County" d="M180,279l7,7 11,14 2,20 -4,5 -2,21 -9,-11 -7,-2 -15,6 -10,-9h14l4,-9 -11,-25 5,-14 9,-6Z"/>
    <path data-fips-int="21141" data-name="Logan County" d="M397,365l-10,6 -7,14 -4,17h-36l2,-66h14l12,2 22,9Z"/>
    <path data-fips-int="21143" data-name="Lyon County" d="M238,351l-35,13 -9,-18 2,-21 4,-5 6,-1 6,-3 7,1 5,12Z"/>
    <path data-fips-int="21145" data-name="McCracken County" d="M153,330l10,9 -1,13 -41,-3v-1l-13,-43 18,8 7,6 15,5Z"/>
    <path data-fips-int="21147" data-name="McCreary County" d="M679,352l7,2 -6,21 5,22 11,13 -69,-1 13,-22 12,-12 -1,-8 20,-13Z"/>
    <path data-fips-int="21149" data-name="McLean County" d="M345,258l-10,14 2,9 -13,4 -11,-1 -8,-8 -2,-20 -13,-4 -1,-8 10,-5 35,17Z"/>
    <path data-fips-int="21151" data-name="Madison County" d="M711,212l-1,29 -4,5 5,11 -10,1 -3,6 -19,-2 -18,-32 -5,-4 11,-13 13,-7 7,-3 1,6Z"/>
    <path data-fips-int="21153" data-name="Magoffin County" d="M844,208l7,10 2,12 8,28 -5,8 -3,-3 -7,-3 -2,-9 -8,-7 -21,-6 -2,-6 -1,-8 7,-9 12,-8 -3,-4Z"/>
    <path data-fips-int="21155" data-name="Marion County" d="M548,233l3,9 15,6h28l-1,14 -1,20h-3l-11,-7 -11,6 -11,-7h-16l-7,-14 9,-20 6,-7Z"/>
    <path data-fips-int="21157" data-name="Marshall County" d="M194,346l9,18 6,19 -48,-2 1,-29 1,-13 15,-6 7,2Z"/>
    <path data-fips-int="21159" data-name="Martin County" d="M906,192l10,9v7l13,10 -1,5 -10,4 1,7 -20,-1 -9,-5 -5,-20 8,-5 3,-12Z"/>
    <path data-fips-int="21161" data-name="Mason County" d="M762,88l1,18 -26,11 -9,-5 -8,-17 10,-27 14,11 4,8Z"/>
    <path data-fips-int="21163" data-name="Meade County" d="M474,191l2,18 -3,10 -18,3 -10,-11 -32,-28 25,-18 2,15 11,9 9,-1 9,9Z"/>
    <path data-fips-int="21165" data-name="Menifee County" d="M782,180l8,2v12l-7,15 -3,5 -13,1 -18,-14 1,-13 11,-4 12,2v-8Z"/>
    <path data-fips-int="21167" data-name="Mercer County" d="M633,212l-1,7 3,14 -6,2 -34,6 2,-28 -3,-6 12,-10 3,3 14,-5 -1,13 5,6Z"/>
    <path data-fips-int="21169" data-name="Metcalfe County" d="M532,330l10,27 -3,7 -15,12 -17,-4 -5,-47 4,-4 6,-2 8,9Z"/>
    <path data-fips-int="21171" data-name="Monroe County" d="M507,372l17,4 1,6 14,7 -1,10 7,8 -9,1 -59,-2 -1,-15 20,-15Z"/>
    <path data-fips-int="21173" data-name="Montgomery County" d="M750,188l-1,13 -12,2 -12,-4 -15,-28 12,-12 21,18Z"/>
    <path data-fips-int="21175" data-name="Morgan County" d="M811,169v9l8,6 22,1 4,6 3,10 -4,7 -16,-5 3,4 -12,8 -7,9 1,8 -9,-11 -21,-12 7,-15v-12Z"/>
    <path data-fips-int="21177" data-name="Muhlenberg County" d="M361,313l1,4 -4,7 4,9 -6,3h-14l-25,4 -1,-5 -9,-14 3,-6 -9,-10 1,-9 11,-12 11,1 13,-4 -2,15 5,-8 11,8 2,10Z"/>
    <path data-fips-int="21179" data-name="Nelson County" d="M577,195l2,11 -6,7 -7,-2 -6,12 -12,10 -6,7 -9,20 -11,2 2,-24 -11,-5 -6,-13 11,-3 8,-7 11,-18 13,8Z"/>
    <path data-fips-int="21181" data-name="Nicholas County" d="M722,120l17,22 -17,17 -17,-13 -9,-15 10,-14Z"/>
    <path data-fips-int="21183" data-name="Ohio County" d="M394,243l6,15 -8,2 5,25 -18,14 -7,-4 -2,10 -9,8 -8,-7 -2,-10 -11,-8 -5,8 2,-15 -2,-9 10,-14 10,-10 18,-7 -6,-4 5,-6Z"/>
    <path data-fips-int="21185" data-name="Oldham County" d="M558,114l-4,5 8,16 -5,7 -17,4 -22,-15 8,-11 10,-3 8,-8Z"/>
    <path data-fips-int="21187" data-name="Owen County" d="M623,77l2,17 11,9 7,11 5,2 -20,19h-15l-2,-11 -9,-1 -6,-20 -9,-6 18,-10Z"/>
    <path data-fips-int="21189" data-name="Owsley County" d="M775,265l3,6 1,21 2,11 -18,-12 -14,-1 -12,-20v-6l6,4 18,-3 4,-5Z"/>
    <path data-fips-int="21191" data-name="Pendleton County" d="M694,98l-22,3 -7,5 -1,1 -3,-2 -7,-39 13,-3 23,-11v8Z"/>
    <path data-fips-int="21193" data-name="Perry County" d="M831,279l1,26 7,-1 9,8 -8,11 1,17 -7,3 -8,-3 1,-14 -6,-10 -16,-10 -2,-9 -8,-2 -11,12 -3,-4 -2,-11 12,-7 6,6 17,-10 5,-7Z"/>
    <path data-fips-int="21195" data-name="Pike County" d="M902,310l-7,-7 -8,2 -7,-6 3,-3 6,-14 8,-10 -4,-10 1,-27 5,-2 20,1 -1,-7 10,-4 5,12 15,6 6,11 11,4 9,-4 -10,12 -35,34Z"/>
    <path data-fips-int="21197" data-name="Powell County" d="M749,201l18,14 -9,17h-2l-17,-5 -18,-13 4,-15 12,4Z"/>
    <path data-fips-int="21199" data-name="Pulaski County" d="M679,352l-8,2 -20,13 -12,-18 -9,4 -11,-6 -9,-7 1,-11 22,-19 21,-19 6,4 27,27 -4,13 1,9Z"/>
    <path data-fips-int="21201" data-name="Robertson County" d="M720,95l8,17 -6,8 -16,-3 -8,-4 1,-11 12,-8Z"/>
    <path data-fips-int="21203" data-name="Rockcastle County" d="M698,264l-1,6 8,18v8l-16,15 -2,11 -27,-27 6,-25 10,2 3,-10Z"/>
    <path data-fips-int="21205" data-name="Rowan County" d="M800,137l6,17 7,2 5,3 -7,10 -21,13 -8,-2 4,-5 -18,-8 -3,-8 16,-14v-12l5,-5 6,-3Z"/>
    <path data-fips-int="21207" data-name="Russell County" d="M611,329l-1,11 9,7 -29,22 -6,5 -12,-4 -7,-6 4,-5 4,-12 20,-29 10,12Z"/>
    <path data-fips-int="21209" data-name="Scott County" d="M665,145l5,12 -26,13v2l-5,-11 -8,-2 -3,-24 20,-19 3,-3 4,10 8,5Z"/>
    <path data-fips-int="21211" data-name="Shelby County" d="M594,170l-9,15 -40,-17 3,-19 -8,-3 17,-4 5,-7 35,3Z"/>
    <path data-fips-int="21213" data-name="Simpson County" d="M422,402h-46l4,-17 7,-14 10,-6 3,8 23,4v5Z"/>
    <path data-fips-int="21215" data-name="Spencer County" d="M585,185l-8,10 -27,5 -13,-8 -3,-3 5,-13 6,-4v-4Z"/>
    <path data-fips-int="21217" data-name="Taylor County" d="M540,274h16l11,7 11,-6 11,7 -7,5 -4,11 -4,7 -9,1 -11,11 -15,-26 -14,-12 1,-5Z"/>
    <path data-fips-int="21219" data-name="Todd County" d="M342,336l-2,66h-34l2,-18 8,-49 1,5Z"/>
    <path data-fips-int="21221" data-name="Trigg County" d="M260,402h-20l1,-5 -27,-3 -5,-11 -6,-19 35,-13 19,-6 9,5 -3,35Z"/>
    <path data-fips-int="21223" data-name="Trimble County" d="M556,75l20,24 -13,14 -5,1 -14,-5 -1,-33Z"/>
    <path data-fips-int="21225" data-name="Union County" d="M258,245l-24,24 -5,2 -6,-13 -5,7 -10,-13 -2,-13 12,-10 4,-10 10,4 6,-5 -2,-15 12,21 8,1Z"/>
    <path data-fips-int="21227" data-name="Warren County" d="M424,321l14,13 9,-3 12,7 -7,20 -29,24v-5l-23,-4 -3,-8 -7,-18 6,-29Z"/>
    <path data-fips-int="21229" data-name="Washington County" d="M594,207l3,6 -2,28 -1,7h-28l-15,-6 -3,-9 12,-10 6,-12 7,2 6,-7Z"/>
    <path data-fips-int="21231" data-name="Wayne County" d="M651,367l1,8 -12,12 -13,22 -24,-2 -4,-1 -1,-23 -8,-14 29,-22 11,6 9,-4Z"/>
    <path data-fips-int="21233" data-name="Webster County" d="M303,256l-15,13 -11,3 -29,18 2,-5 -17,-6 1,-10 24,-24 31,-1 1,8Z"/>
    <path data-fips-int="21235" data-name="Whitley County" d="M712,352v9l9,13 6,3 3,11 10,6 -10,6 4,10h-38l-11,-13 -5,-22 6,-21Z"/>
    <path data-fips-int="21237" data-name="Wolfe County" d="M813,232l2,6 -19,-4 -6,10h-9l-23,-12 9,-17 13,-1 3,-5 21,12Z"/>
    <path data-fips-int="21239" data-name="Woodford County" d="M644,172l-5,17 -6,23 -6,2 -5,-6 1,-13 -4,-2 -5,-21v-4l17,-9 8,2Z"/>
  </g>
  <path class="mesh" d="M594,170l3,-32 11,-7 5,4h15l3,24 -17,9v4l5,21 4,2 -14,5 -3,-3 -12,10 -15,-1 -2,-11 8,-10 9,-15 17,5 3,-3M108,305l13,43 -23,4 -13,-3M739,142l-17,-22 6,-8 9,5 26,-11 7,6 1,9 15,7 -5,5v12l-16,14 3,8 18,8 -4,5 -9,-2v8l-12,-2 -11,4 -7,-11 -21,-18 17,-17 13,3 6,10 7,4M734,410l-4,-10 10,-6 8,-9 3,-9 12,-6 14,-11 -2,-8 10,3 3,6 -1,26 5,10M642,22l3,21 -1,21 -7,4 -16,-12M722,159l-12,12 -25,7 -12,-6 3,-13 -6,-2 -5,-12h13l18,-14 9,15 17,13M892,145l-3,-3 -13,6 -8,-1 2,-19 -6,-2 6,-9 12,-12M730,68l-10,27 -9,-1 -12,8 -5,-4 -4,-38M413,183l32,28 10,11 -15,32 -9,5 -12,-2 -7,-7 -12,8 -6,-15 -4,-20 3,-8M459,338l-12,-7 -9,3 -14,-13 -28,-3 -6,29 -22,-9 -12,-2 6,-3 -4,-9 4,-7 -1,-4 9,-8 2,-10 7,4 18,-14 16,5 2,7 9,24M160,421l1,-40 48,2 5,11M690,52l-23,11 -4,-3 1,-13 -8,-29M121,348v1v28l-32,-1 -8,-3M593,71l12,16 -18,10 -11,2 -20,-24M868,147l-7,8 -8,3 -20,-5 -12,-8 -8,11 -7,-2 -6,-17 14,-3 -1,-14 8,-13 14,6 11,11 18,2M532,330l19,-9 3,-4 11,-11 9,-1 4,-7 4,-11 7,-5h3l1,-20M263,321l21,8 23,-8 9,14 -8,49 -2,18M260,402l3,-17 3,-35 -9,-5M710,171l15,28 -4,15 -10,-2 -23,-3 -1,-6 -7,3 1,-17 4,-11M775,351l-35,-15 -2,-10 -6,1 -5,-10 3,-11 19,-16 14,1 18,12 3,4 -4,11v18l5,18M562,406l10,-36 12,4 6,-5 8,14 1,23 4,1M218,265l5,-7 6,13 5,-2 -1,10 17,6M212,316l-6,3 -6,1 -2,-20 -11,-14 -7,-7M569,359l-4,5 7,6M353,201l10,7 -2,7h7l4,16 -5,6 6,4 -18,7 -10,10 -11,-2 -35,-17 4,-9 13,-7 -5,-5 2,-13M415,297l39,-2 14,18 -1,8M853,158l4,10 -16,17 -22,-1 -8,-6v-9l7,-10 -5,-3M721,214l18,13 17,5 -10,8 -12,20 -8,-6 -15,3 -5,-11 4,-5 1,-29M680,206l-13,7 -5,-14 -23,-10 5,-17v-2l26,-13M853,230l-2,-12 -7,-10 4,-7 -3,-10 5,-6 16,6 18,10 9,2 -8,5 5,20 9,5 -5,2 -1,27 4,10 -8,10 -6,14 -5,-3 -1,-18 -10,2 1,-8 -12,-3 5,-8 -8,-28 5,2 17,-9 15,5M74,394l16,9 18,4 9,12M637,68l-14,2v7l-18,10M629,235l11,12 -23,14 -7,3 -17,-2 1,-14 1,-7 34,-6 6,-2 -3,-14 14,3 -4,3 8,7 6,-6 5,4 18,32 -3,10 -10,-2 -23,-18 -3,-5M644,64l10,2 7,39 -10,8 -3,3 -5,-2 -7,-11 -11,-9 -2,-17M121,349l41,3 -1,29M119,419l2,-42M440,254l11,6 9,-2 8,19 2,9 -4,6 -12,3M397,285l-5,-25 8,-2M821,107l8,-7 8,-28M394,243l-22,-12M507,220l6,13 -6,13 -9,4 -9,14 -2,15 -19,-2M455,222l18,-3 3,-10 -2,-18M480,190l2,1M788,360l25,-9 13,-11 8,3 -4,7 16,-4 10,-6 9,6M699,102l-1,11 8,4 -10,14M665,145l-2,-17 -8,-5 -4,-10M661,105l3,2 1,-1 7,-5 22,-3M487,279l28,2M512,319l-6,2M299,239l-10,5 -31,1 -2,-20 -8,-1 -12,-21M597,138l-35,-3 -8,-16 4,-5 5,-1 13,-14M587,97l9,6 6,20 9,1 2,11M248,290l4,22 11,9 -6,24 -19,6 -14,-22 -5,-12 -7,-1 2,-8 36,-23 -2,5 29,-18 11,-3 15,-13 2,20 8,8 -11,12 -1,9 9,10 -3,6M734,260l3,4v6l12,20M730,306l-14,-2 -11,-8v-8l-8,-18 1,-6 3,-6 10,-1M518,131l22,15 8,3 -3,19v4M667,213l-11,13M632,219l1,-7 6,-23M667,63l-13,3M853,263l3,3M883,296l-3,3 -10,1 -20,15 -2,-3 -9,-8 -7,1 -1,-26M452,358l8,11 4,-5 3,19 9,8 1,15M740,394l-10,-6 -3,-11 -6,-3 -9,-13v-9l7,-5 10,2 4,-10 7,-3M513,233l11,5 -2,24 11,-2 7,14h-14M712,352l-26,2 -7,-2 5,-8 -1,-9 4,-13 2,-11 16,-15M906,192l-10,-1 -3,12M845,191l-4,-6M756,232h2l23,12M775,265l-10,-5 -4,5 -18,3 -6,-4M784,307l11,-12 8,2 2,9 16,10 6,10 -1,14M880,299l7,6 8,-2 7,7M834,343l7,-3 -1,-17 8,-11M800,137l-8,-12 -6,3M763,106l-1,-18M666,270l-6,25 -6,-4 -21,19M200,320l-4,5 -2,21 -9,-11 -7,-2 -15,6 -10,-9M390,347l7,18 -10,6 -7,14 -4,17M340,402l2,-66h14M238,351l-35,13 -9,-18M163,339l-1,13M686,354l-6,21 5,22 11,13M627,409l13,-22 12,-12 -1,-8 20,-13 8,-2M345,258l-10,14 2,9 -13,4 -11,-1M303,256l-13,-4 -1,-8M698,264l-19,-2M815,238l21,6 8,7 2,9 7,3 -18,-2 -5,9 1,9 -12,-5 -5,7 -17,10 -6,-6 -12,7 -1,-21 -3,-6 6,-21h9l6,-10 19,4 -2,-6 -1,-8 7,-9 12,-8 -3,-4 16,5M533,260l9,-20 6,-7 3,9 15,6h28M589,282l-11,-7 -11,6 -11,-7h-16M422,402l1,-20 29,-24 7,-20 5,1 3,-18 23,3 16,-3 -4,4 5,47 -11,4 -20,15M203,364l6,19M928,223l-10,4 1,7 -20,-1M728,112l-8,-17M782,180l8,2v12l-7,15 -3,5 -13,1 -18,-14 1,-13M595,241l2,-28 -3,-6M623,195l-1,13 5,6 6,-2M524,376l-17,-4M749,201l-12,2 -12,-4M813,232l-9,-11 -21,-12M790,182l21,-13M342,336l-25,4 -1,-5M337,281l-2,15 5,-8 11,8 2,10 8,7M579,206l-6,7 -7,-2 -6,12 -12,10M537,192l-11,18 -8,7 -11,3 -14,-11 -1,-10 -6,1 -4,-9 5,-6 22,-8 20,2 16,-7 -6,4 -5,13 3,3 13,8 27,-5M706,117l16,3M562,135l-5,7 -17,4M544,109l14,5M648,116l-20,19M779,292l2,11M767,215l-9,17M651,367l-12,-18 -9,4 -11,-6 -9,-7 1,-11M660,295l27,27M619,347l-29,22M644,172l-5,-11 -8,-2M585,185l-40,-17M397,365l3,8 23,4v5M258,245l-24,24M617,261v19l16,10v20l-22,19 -8,1 -10,-12 -20,29 -4,12 -27,-2M545,407l-7,-8 1,-10 -14,-7 -1,-6 15,-12 3,-7 -10,-27 -12,-2 -8,-9v-27l3,-11 11,-7 -1,5 14,12 15,26M578,298l13,9 2,11"/>
  <g class="cities">
    <circle r="7" cx="504" cy="151"/>
    <text x="504" y="151">Louisville</text>
    <circle r="7" cx="664" cy="182"/>
    <text x="664" y="182">Lexington</text>
    <circle r="7" cx="419" cy="349"/>
    <text x="419" y="349">Bowling Green</text>
  </g>
</svg>