<?xml version="1.0" encoding="utf-8"?>
<!DOCTYPE svg PUBLIC "-//W3C//DTD SVG 1.1//EN" "http://www.w3.org/Graphics/SVG/1.1/DTD/svg11.dtd">
<svg version="1.1" xmlns="http://www.w3.org/2000/svg" width="350" height="152" viewBox="0 0 350 152">
  <defs>
    <pattern id="pattern-no-results" width="50" height="50" patternUnits="userSpaceOnUse">
      <rect width="50" height="50" fill="#ddd"/>
      <path d="M-5,5L5,-5M-5,55L55,-5M45,55L55,45" stroke-width="10" stroke="#666666"/>
    </pattern>
  </defs>
  <g class="counties" transform="scale(0.1)">
    <path data-fips-int="21001" data-name="Adair County" d="M2023,1046l47,29 6,39 -71,108 -10,36 -97,-7 -33,-94 77,-45 25,-30 13,-8Z"/>
    <path data-fips-int="21003" data-name="Allen County" d="M1586,1253l40,34 16,62 27,21 1,51 -192,-14 3,-68 73,-70Z"/>
    <path data-fips-int="21005" data-name="Anderson County" d="M2150,604l29,79 -58,10 -30,26 -11,11 0,-3 -4,2 -1,0 -4,-4 -13,5 -2,-3 -30,-2 -6,-42 1,-16 10,0 4,3 5,-13 8,-9 33,-50Z"/>
    <path data-fips-int="21007" data-name="Ballard County" d="M423,1221l-10,2 -3,-1 -14,3 0,1 0,-1 0,1 -1,0 0,-1 0,1 0,-1 -9,2 -1,0 -2,0 -7,0 -8,3 -2,2 -1,1 -7,0 0,1 0,-1 0,1 -7,0 0,1 0,-1 0,1 -33,-8 -18,-5 -32,-62 77,-85 35,-4Z"/>
    <path data-fips-int="21009" data-name="Barren County" d="M1772,1305l-103,65 -27,-21 -16,-62 -40,-34 23,-70 17,5 8,-62 61,10 74,-12 -12,16Z"/>
    <path data-fips-int="21011" data-name="Bath County" d="M2635,516l19,13 24,27 12,0 0,1 0,1 0,-1 0,-1 0,2 5,1 -5,31 22,-11 1,3 2,2 -2,-2 2,2 22,45 -34,23 -3,0 -55,5 -8,-2 -10,7 0,-2 -53,-73 -40,-12 0,1 0,-1 -2,-18 -2,-1 2,-1 0,-1 53,-55Z"/>
    <path data-fips-int="21013" data-name="Bell County" d="M2750,1239l8,24 -8,47 25,78 -70,19 -32,28 -106,0 7,-40 16,-15 40,-63 19,1 38,-36 23,-21 3,-31Z"/>
    <path data-fips-int="21015" data-name="Boone County" d="M2248,77l11,103 -6,47 -20,14 -59,-43 -34,-36 20,-31 -29,-39 70,-52Z"/>
    <path data-fips-int="21017" data-name="Bourbon County" d="M2466,501l66,52 0,1 0,1 0,-1 0,-1 -2,3 -43,44 -20,7 -68,21 -8,-10 -32,-13 -10,-53 -2,-1 -3,-2 -13,-39 41,-2 64,-48Z"/>
    <path data-fips-int="21019" data-name="Boyd County" d="M3119,511l-51,4 -25,0 -5,0 -10,-70 15,-24 48,-51 22,16Z"/>
    <path data-fips-int="21021" data-name="Boyle County" d="M2203,824l11,11 27,32 -2,5 -5,4 -74,40 -84,1 4,-47 3,-26Z"/>
    <path data-fips-int="21023" data-name="Bracken County" d="M2557,240l-37,97 -1,5 -30,-7 -28,23 -12,2 -18,2 -2,-17 -12,-134 65,29Z"/>
    <path data-fips-int="21025" data-name="Breathitt County" d="M2795,825l7,4 3,0 2,0 10,4 31,3 5,0 23,12 4,3 5,-1 8,7 48,19 15,11 7,23 23,14 -26,0 -29,-7 -3,-1 -3,-1 -15,64 -17,-2 -22,-18 -30,28 -31,16 -5,11 -37,-16 -26,21 -4,1 -11,3 1,-29 -10,-47 -6,-11 0,-7 23,-73 18,6 39,-41Z"/>
    <path data-fips-int="21027" data-name="Breckinridge County" d="M1594,779l-55,113 -12,3 -5,1 -11,-3 -4,15 -64,-32 -42,30 -18,-53 -17,-71 10,-28 28,-43 37,-4 7,-64Z"/>
    <path data-fips-int="21029" data-name="Bullitt County" d="M1880,673l-70,88 0,1 -21,10 -15,1 -45,-38 -5,-36 -37,-29 97,-48 68,7 55,-24Z"/>
    <path data-fips-int="21031" data-name="Butler County" d="M1483,1124l-24,10 -18,-21 -55,3 -23,99 0,1 0,-1 -117,-39 0,-2 4,-3 16,-8 -11,-26 0,-1 0,1 0,-1 10,-27 1,-11 29,-36 6,-8 2,0 90,-55 55,18 6,24Z"/>
    <path data-fips-int="21033" data-name="Caldwell County" d="M867,1015l-15,18 23,40 39,40 11,14 -26,80 -64,22 -68,-119 -23,-4 15,-28 116,-78Z"/>
    <path data-fips-int="21035" data-name="Calloway County" d="M731,1344l16,36 14,83 -9,18 -191,-7 7,-138Z"/>
    <path data-fips-int="21037" data-name="Campbell County" d="M2416,185l-80,39 -13,-8 8,-84 -33,-66 83,42Z"/>
    <path data-fips-int="21039" data-name="Carlisle County" d="M426,1225l-3,95 -135,-11 12,-87 18,5 33,8 0,-1 0,1 0,-1 7,0 0,-1 0,1 0,-1 7,0 1,-1 2,-2 8,-3 7,0 2,0 1,0 9,-2 0,1 0,-1 0,1 1,0 0,-1 0,1 0,-1 14,-3 3,1 10,-2Z"/>
    <path data-fips-int="21041" data-name="Carroll County" d="M2116,305l-60,36 -40,6 -69,-81 71,25 60,-40Z"/>
    <path data-fips-int="21043" data-name="Carter County" d="M2876,377l24,11 20,9 28,29 15,10 12,-4 53,13 10,70 -12,21 -15,9 -26,10 -15,1 -25,-16 -17,14 -47,-45 -35,41 0,-1 0,1 -6,1 -7,-3 -2,-5 -14,-26 -7,-14 -8,-22 26,-3 5,-2 8,-3 2,0 3,-2 14,-65 1,-1 12,-27Z"/>
    <path data-fips-int="21045" data-name="Casey County" d="M2160,916l0,65 56,36 2,68 -78,67 -24,8 -40,-46 -6,-39 -47,-29 30,-48 10,-9 2,0 11,-72Z"/>
    <path data-fips-int="21047" data-name="Christian County" d="M1077,1126l1,14 29,33 0,-2 0,2 1,0 -1,10 -37,224 -156,0 18,-180 -33,-20 26,-80 70,25Z"/>
    <path data-fips-int="21049" data-name="Clark County" d="M2539,699l-4,2 -3,3 -15,37 3,2 4,7 -33,-5 0,-1 0,-1 -10,0 -102,-20 20,-95 68,-21 20,-7Z"/>
    <path data-fips-int="21051" data-name="Clay County" d="M2697,1035l33,24 7,5 10,12 -19,38 17,91 5,34 -37,-9 -11,-2 -30,-11 -13,-7 -14,-16 -55,-15 -18,-31 -3,0 -24,-30 10,-46 4,-4 15,1 50,-52Z"/>
    <path data-fips-int="21053" data-name="Clinton County" d="M2045,1310l23,-16 27,58 -4,34 12,38 7,3 -142,-5 35,-125Z"/>
    <path data-fips-int="21055" data-name="Crittenden County" d="M819,943l0,1 0,39 36,19 20,-2 -116,78 -15,28 -15,12 -8,6 -20,0 -9,-26 5,-9 -39,-71 0,-1 0,1 0,-1 -25,-36 0,-1 33,-25 83,-10 15,-16Z"/>
    <path data-fips-int="21057" data-name="Cumberland County" d="M1995,1258l8,39 -35,125 -63,5 -17,-65 -36,-21 -17,-24 63,-66Z"/>
    <path data-fips-int="21059" data-name="Daviess County" d="M1303,810l-25,49 0,2 -3,1 -10,7 -4,1 0,1 0,-1 0,1 -5,1 -1,0 -47,34 -13,-5 -83,-29 -64,-36 60,-54 -20,-21 9,-42 99,55 12,-52 28,-18 54,50Z"/>
    <path data-fips-int="21061" data-name="Edmonson County" d="M1591,1033l46,66 -3,27 -8,62 -17,-5 -47,-23 -26,13 -53,-49 -29,-83Z"/>
    <path data-fips-int="21063" data-name="Elliott County" d="M2945,540l25,16 15,-1 16,32 -58,61 -7,4 -20,-4 -5,-1 0,1 0,-1 0,1 -10,4 0,-1 0,1 0,-1 -15,-3 -6,-4 -32,-18 -10,-13 2,-21 13,-10 7,-24 -12,0 -8,-7 5,2 1,-4 0,1 35,-41 47,45Z"/>
    <path data-fips-int="21065" data-name="Estill County" d="M2524,750l5,-5 38,48 28,-2 9,9 18,-8 25,23 -58,60 -22,37 -25,-21 -53,10 2,-156 0,-1 0,-1 0,1 0,1Z"/>
    <path data-fips-int="21067" data-name="Fayette County" d="M2391,618l8,10 -20,95 -43,26 -18,-50 -80,-35 15,-61 94,-52 2,1 10,53Z"/>
    <path data-fips-int="21069" data-name="Fleming County" d="M2675,372l43,57 27,10 8,9 -16,29 -4,33 -45,38 -6,5 -4,3 -24,-27 -19,-13 -50,-17 -58,-78 22,-29 30,19 93,-41Z"/>
    <path data-fips-int="21071" data-name="Floyd County" d="M3071,788l30,9 15,3 8,7 5,2 20,9 -15,15 -8,86 17,13 -12,51 -38,56 -19,-12 -8,-65 -70,-30 20,-29 -21,-64 -9,-33 5,-1Z"/>
    <path data-fips-int="21073" data-name="Franklin County" d="M2136,473l10,-1 14,0 41,2 8,86 -59,44 -69,-6 10,-114Z"/>
    <path data-fips-int="21075" data-name="Fulton County" d="M124,1458l-25,1 -9,-42 34,2ZM327,1415l53,11 30,41 -258,-7 23,-65 53,33 32,-48Z"/>
    <path data-fips-int="21077" data-name="Gallatin County" d="M2233,241l-49,7 -5,25 -53,28 -5,-1 -5,5 -38,-54 90,-14 6,-39Z"/>
    <path data-fips-int="21079" data-name="Garrard County" d="M2298,792l16,23 17,16 3,16 2,0 0,3 -2,6 43,61 -11,37 -32,-7 -5,-4 -88,-76 -27,-32 -11,-11 25,-17 -14,-39 42,5 25,40Z"/>
    <path data-fips-int="21081" data-name="Grant County" d="M2289,232l25,136 -35,28 -10,11 -38,-39 -43,-37 -9,-58 5,-25 49,-7 20,-14Z"/>
    <path data-fips-int="21083" data-name="Graves County" d="M571,1232l-3,104 -7,138 -145,-7 7,-147 3,-95Z"/>
    <path data-fips-int="21085" data-name="Grayson County" d="M1511,893l11,3 5,-1 12,-3 5,3 25,8 42,6 23,34 5,28 2,5 0,27 -47,25 -3,0 0,5 -137,8 -6,-24 -55,-18 -24,-88 30,9 5,-4 -3,-10 42,-30 64,32Z"/>
    <path data-fips-int="21087" data-name="Green County" d="M1825,961l15,-1 0,1 47,57 55,94 -77,45 -40,-6 -30,-33 0,-98 15,-15 -1,-19 1,-14Z"/>
    <path data-fips-int="21089" data-name="Greenup County" d="M3091,370l-48,51 -15,24 -53,-13 -12,4 -15,-10 -28,-29 -20,-9 -24,-11 14,-16 33,-72 10,-11 -5,-23 63,-18 23,93 49,12Z"/>
    <path data-fips-int="21091" data-name="Hancock County" d="M1376,754l-10,28 17,71 -80,-43 -13,-56 -54,-50 72,-37 31,55 40,-4Z"/>
    <path data-fips-int="21093" data-name="Hardin County" d="M1687,670l37,29 5,36 45,38 21,30 2,10 0,1 0,-1 0,1 2,2 -25,44 -62,59 -7,57 -66,-5 -5,-28 -23,-34 -42,-6 -25,-8 -5,-3 55,-113 62,-10 13,-27 -8,-72 19,-5Z"/>
    <path data-fips-int="21095" data-name="Harlan County" d="M2911,1199l5,0 2,2 -13,25 65,-22 3,-2 56,10 2,41 -63,30 -27,-3 -25,61 -141,47 -25,-78 8,-47 15,6 12,-4 106,-74Z"/>
    <path data-fips-int="21097" data-name="Harrison County" d="M2431,362l18,-2 13,42 12,9 -38,49 -64,48 -41,2 -12,-60 -21,-18 -19,-36 35,-28 12,4 0,2 0,-2 8,-3 95,-24Z"/>
    <path data-fips-int="21099" data-name="Hart County" d="M1705,976l104,10 1,19 -15,15 0,98 -26,6 -74,12 -61,-10 3,-27 -46,-66 0,-5 3,0 47,-25 0,-27 -2,-5Z"/>
    <path data-fips-int="21101" data-name="Henderson County" d="M1097,719l-9,42 20,21 -60,54 -38,20 -103,3 -20,-65 -60,-81 0,-1 40,15 63,-13 5,40 37,-14 -17,-37 17,-28 35,39 45,-21Z"/>
    <path data-fips-int="21103" data-name="Henry County" d="M2146,472l-10,1 -45,11 -123,-11 -26,-54 13,-20 0,-1 61,-51 40,-6 32,25 -10,24 63,50Z"/>
    <path data-fips-int="21105" data-name="Hickman County" d="M423,1320l-7,147 -6,0 -30,-41 -53,-11 -67,-35 -7,-35 35,-36Z"/>
    <path data-fips-int="21107" data-name="Hopkins County" d="M1095,997l-5,10 2,4 -9,9 -23,27 -3,4 0,3 1,1 -1,0 0,-1 0,1 -2,9 27,39 3,6 -5,12 -3,5 -82,26 -70,-25 -11,-14 -39,-40 -23,-40 15,-18 98,-58 43,-14 54,-44 8,80Z"/>
    <path data-fips-int="21109" data-name="Jackson County" d="M2567,912l12,14 0,1 16,42 0,1 0,-1 0,1 24,42 5,5 -50,52 -15,-1 -4,4 -53,-18 -5,1 -13,-14 0,-3 -5,-10 -8,8 0,-26 -29,-85 47,-24 53,-10Z"/>
    <path data-fips-int="21111" data-name="Jefferson County" d="M1890,513l27,12 -9,63 -1,17 -55,24 -68,-7 -97,48 -7,-5 17,-84 38,-65 65,-12 15,-43Z"/>
    <path data-fips-int="21113" data-name="Jessamine County" d="M2336,749l-38,43 -17,21 -25,-40 -42,-5 4,-25 20,-79 80,35Z"/>
    <path data-fips-int="21115" data-name="Johnson County" d="M3124,712l0,1 -10,5 -11,17 6,6 2,2 -8,10 13,47 -15,-3 -30,-9 -80,17 -5,1 -31,-77 5,-58 21,-19Z"/>
    <path data-fips-int="21117" data-name="Kenton County" d="M2298,66l33,66 -8,84 13,8 -47,8 -36,-5 6,-47 -11,-103Z"/>
    <path data-fips-int="21119" data-name="Knott County" d="M2960,924l26,0 4,6 6,2 70,30 8,65 19,12 -10,8 -29,6 -6,-2 -34,29 -1,0 0,1 0,-1 0,1 -45,11 0,1 0,-1 -57,-20 -1,-93 15,-64 3,1 3,1Z"/>
    <path data-fips-int="21121" data-name="Knox County" d="M2645,1194l14,16 13,7 30,11 11,2 -3,31 -23,21 -38,36 -19,-1 -40,63 -35,-20 -23,-49 -22,-19 -18,-57 38,-17 4,2 30,-8 26,-33Z"/>
    <path data-fips-int="21123" data-name="Larue County" d="M1838,877l-1,10 -2,38 20,2 12,-13 1,-1 24,48 0,1 -4,-1 -5,1 -5,-8 -20,14 -18,-7 0,-1 -15,1 -15,11 -1,14 -104,-10 7,-57 62,-59 25,-44 38,21Z"/>
    <path data-fips-int="21125" data-name="Laurel County" d="M2484,1038l0,3 13,14 5,-1 53,18 -10,46 24,30 3,0 18,31 -26,33 -30,8 -4,-2 -38,17 -3,-3 -8,-3 -39,11 -38,2 -27,-7 30,-90 -1,-16 0,-1 0,-2 -4,-3 35,-64 25,-12 9,-11 8,-8Z"/>
    <path data-fips-int="21127" data-name="Lawrence County" d="M3119,511l-10,60 67,73 -4,31 -23,-8 -25,45 0,1 0,-1 -143,-60 -21,19 -17,-23 58,-61 -16,-32 26,-10 15,-9 12,-21 5,0 25,0Z"/>
    <path data-fips-int="21129" data-name="Lee County" d="M2654,815l81,41 -23,73 -14,-4 -5,2 -11,-16 -78,31 -25,-15 0,-1 -12,-14 22,-37 58,-60Z"/>
    <path data-fips-int="21131" data-name="Leslie County" d="M2813,1048l14,32 26,13 22,23 6,22 12,35 -2,18 -106,74 -12,4 -15,-6 -8,-24 -5,-34 -17,-91 19,-38 46,-47Z"/>
    <path data-fips-int="21133" data-name="Letcher County" d="M3083,1047l13,7 0,8 53,18 9,6 -70,45 3,42 -62,39 -56,-10 -3,2 -65,22 13,-25 22,-24 8,-33 3,-34 17,-17 0,-1 45,-11 0,-1 0,1 0,-1 1,0 34,-29 6,2Z"/>
    <path data-fips-int="21135" data-name="Lewis County" d="M2933,278l-10,11 -33,72 -14,16 -3,1 -12,27 -1,1 -14,65 -3,2 -2,0 -8,3 -5,2 -26,3 -4,-1 -23,-38 -7,-2 -15,8 -8,-9 -27,-10 -43,-57 -3,-2 -4,-60 52,-36 60,20 42,35 56,-14 50,-60Z"/>
    <path data-fips-int="21137" data-name="Lincoln County" d="M2329,943l5,4 -23,86 0,1 0,-1 -23,-13 -70,65 -2,-68 -56,-36 0,-65 74,-40 5,-4 2,-5Z"/>
    <path data-fips-int="21139" data-name="Livingston County" d="M633,981l0,-1 0,1 25,36 0,1 0,-1 0,1 39,71 -5,9 9,26 -22,90 -56,-47 -50,21 -35,-33 46,5 15,-40 -36,-80 18,-53Z"/>
    <path data-fips-int="21141" data-name="Logan County" d="M1391,1280l-37,22 -31,105 -132,2 7,-228 48,-5 117,39 0,1Z"/>
    <path data-fips-int="21143" data-name="Lyon County" d="M835,1229l-123,48 -33,-63 22,-90 20,0 8,-6 15,-12 23,4Z"/>
    <path data-fips-int="21145" data-name="McCracken County" d="M538,1155l35,33 -2,44 -145,-7 -3,-4 -43,-150 55,22Z"/>
    <path data-fips-int="21147" data-name="McCreary County" d="M2377,1235l27,7 -25,75 25,78 35,40 -243,-3 63,-101 10,-7 4,-4 3,0 5,-33Z"/>
    <path data-fips-int="21149" data-name="McLean County" d="M1195,901l13,5 -32,48 4,32 -48,18 -7,-1 -30,-6 -25,-18 -8,-80 -47,-17 -5,-26 38,-20 64,36Z"/>
    <path data-fips-int="21151" data-name="Madison County" d="M2481,743l10,0 0,1 0,1 -2,156 -47,24 -65,-8 -43,-61 2,-6 0,-3 -2,0 -3,-16 -17,-16 -16,-23 38,-43 43,-26Z"/>
    <path data-fips-int="21153" data-name="Magoffin County" d="M2950,726l5,3 31,77 9,33 21,64 -20,29 -6,-2 -4,-6 -23,-14 -7,-23 -15,-11 -48,-19 -8,-7 -5,1 -4,-3 -23,-12 -5,-10 0,-11 -2,-2 4,-40 21,-20Z"/>
    <path data-fips-int="21155" data-name="Marion County" d="M1918,817l2,1 0,-1 0,1 25,42 37,11 98,-1 -4,47 -11,72 -2,0 -57,-18 -29,18 -40,-29 -4,1 -1,-1 -25,-5 -15,6 0,1 0,-1 -24,-48 -1,1 1,-1Z"/>
    <path data-fips-int="21157" data-name="Marshall County" d="M679,1214l33,63 19,67 -163,-8 3,-104 2,-44 50,-21Z"/>
    <path data-fips-int="21159" data-name="Martin County" d="M3172,675l35,31 39,78 -22,29 -75,5 -20,-9 -5,-2 -8,-7 -13,-47 8,-10 -2,-2 -6,-6 11,-17 10,-5 0,-1 25,-45Z"/>
    <path data-fips-int="21161" data-name="Mason County" d="M2668,310l4,60 -93,41 -30,-19 -29,-55 37,-97 57,60Z"/>
    <path data-fips-int="21163" data-name="Meade County" d="M1661,670l8,72 -13,27 -62,10 -146,-136 66,-45 -5,-37 33,30 0,44 95,56Z"/>
    <path data-fips-int="21165" data-name="Menifee County" d="M2737,629l30,10 0,-1 0,1 -2,48 -27,43 5,3 0,1 -20,19 -38,3 0,-2 -61,-49 3,-43 0,-2 0,2 10,-7 8,2 55,-5 3,0Z"/>
    <path data-fips-int="21167" data-name="Mercer County" d="M2218,743l-4,25 14,39 -25,17 -120,20 8,-98 -11,-19 0,3 11,-11 30,-26 58,-10 -10,32Z"/>
    <path data-fips-int="21169" data-name="Metcalfe County" d="M1865,1157l33,94 -63,66 -63,-12 -15,-165 12,-16 26,-6 30,33Z"/>
    <path data-fips-int="21171" data-name="Monroe County" d="M1772,1305l63,12 17,24 36,21 17,65 -235,-6 -1,-51Z"/>
    <path data-fips-int="21173" data-name="Montgomery County" d="M2532,557l2,18 0,1 0,-1 40,12 53,73 0,2 -3,43 -17,9 -12,0 -5,0 -6,-2 -44,-13 -1,0 -52,-99 43,-44Z"/>
    <path data-fips-int="21175" data-name="Morgan County" d="M2840,592l-2,21 10,13 32,18 6,4 15,3 0,1 0,-1 0,1 10,-4 0,-1 0,1 0,-1 5,1 20,4 7,-4 17,23 -5,58 -5,-3 -79,27 -21,20 -4,40 -46,-47 -38,-20 -19,-12 0,-1 -5,-3 27,-43 2,-48 0,-1 13,-4 13,-11Z"/>
    <path data-fips-int="21177" data-name="Muhlenberg County" d="M1180,986l48,50 2,31 36,31 -1,11 -10,27 0,1 0,-1 0,1 11,26 -16,8 -4,3 0,2 -48,5 -91,2 6,-6 0,-1 0,1 0,-1 -5,-3 -1,0 0,-2 0,2 -29,-33 -1,-14 3,-5 5,-12 -3,-6 -27,-39 2,-9 0,-1 0,1 1,0 -1,-1 0,-3 3,-4 23,-27 9,-9 -2,-4 5,-10 30,6 7,1 48,-18Z"/>
    <path data-fips-int="21179" data-name="Nelson County" d="M1893,686l27,16 100,-19 6,42 0,4 -1,1 -22,23 -5,-13 -78,77 -2,0 -50,96 -1,1 -12,13 -20,-2 2,-38 1,-10 -1,-40 -38,-21 -2,-2 0,-1 0,1 0,-1 -2,-10 -21,-30 15,-1 21,-10 0,-1 70,-88Z"/>
    <path data-fips-int="21181" data-name="Nicholas County" d="M2527,421l58,78 -53,55 0,1 -2,1 2,-3 0,1 0,1 0,-1 0,-1 -66,-52 -30,-41 38,-49Z"/>
    <path data-fips-int="21183" data-name="Ohio County" d="M1383,853l18,53 3,10 -5,4 -30,-9 24,88 -90,55 -2,0 -6,8 -29,36 -36,-31 -2,-31 -48,-50 -4,-32 32,-48 47,-34 1,0 5,-1 0,-1 0,1 0,-1 4,-1 10,-7 3,-1 0,-2 25,-49Z"/>
    <path data-fips-int="21185" data-name="Oldham County" d="M1955,398l0,1 -13,20 26,54 -16,26 -55,8 -5,2 -2,4 -75,-52 17,-35 71,-44Z"/>
    <path data-fips-int="21187" data-name="Owen County" d="M2179,273l9,58 43,37 38,39 -68,67 -41,-2 -14,0 -5,-32 -63,-50 10,-24 -32,-25 60,-36 5,-5 5,1Z"/>
    <path data-fips-int="21189" data-name="Owsley County" d="M2693,927l5,-2 14,4 0,7 6,11 10,47 -1,29 10,33 0,8 -7,-5 -33,-24 -73,-18 -5,-5 -24,-42 0,-1 0,1 0,-1 -16,-42 0,-1 0,1 25,15 78,-31Z"/>
    <path data-fips-int="21191" data-name="Pendleton County" d="M2429,345l-95,24 -8,3 0,2 0,-2 -12,-4 -25,-136 47,-8 80,-39 1,26Z"/>
    <path data-fips-int="21193" data-name="Perry County" d="M2893,977l17,2 1,93 57,20 0,1 -17,17 -3,34 -8,33 -22,24 -2,-2 -5,0 -20,-8 2,-18 -12,-35 -6,-22 -22,-23 -26,-13 -14,-32 -20,-19 -46,47 -10,-12 0,-8 -10,-33 11,-3 4,-1 26,-21 37,16 5,-11 31,-16 30,-28Z"/>
    <path data-fips-int="21195" data-name="Pike County" d="M3158,1086l-9,-6 -53,-18 0,-8 -13,-7 10,-8 38,-56 12,-51 -17,-13 8,-86 15,-15 75,-5 22,-29 20,39 69,39 2,21 75,5 -161,155Z"/>
    <path data-fips-int="21197" data-name="Powell County" d="M2584,712l6,2 5,0 12,0 17,-9 61,49 0,2 -31,59 -7,0 -25,-23 -18,8 -9,-9 -28,2 -38,-48 -5,5 -4,-7 -3,-2 15,-37 3,-3 4,-2 1,0Z"/>
    <path data-fips-int="21199" data-name="Pulaski County" d="M2407,1145l-30,90 -96,52 -43,-61 -42,12 -28,-21 -32,-31 4,-34 78,-67 70,-65 23,13 0,1 91,89 4,3 0,2 0,1Z"/>
    <path data-fips-int="21201" data-name="Robertson County" d="M2489,335l30,7 1,-5 29,55 -22,29 -53,-10 -12,-9 -13,-42 12,-2Z"/>
    <path data-fips-int="21203" data-name="Rockcastle County" d="M2442,925l29,85 0,26 -9,11 -25,12 -35,64 4,3 0,2 0,1 0,-1 0,-2 -4,-3 -91,-89 0,-1 23,-86 32,7 11,-37Z"/>
    <path data-fips-int="21205" data-name="Rowan County" d="M2775,442l23,38 4,1 8,22 7,14 14,26 2,5 7,3 6,-1 0,-1 -1,4 -5,-2 8,7 12,0 -7,24 -13,10 -47,31 -13,11 -13,4 0,1 -30,-10 -22,-45 -2,-2 2,2 -2,-2 -1,-3 -22,11 5,-31 -5,-1 0,-2 0,1 0,1 0,-1 0,-1 -12,0 4,-3 6,-5 45,-38 4,-33 16,-29 15,-8Z"/>
    <path data-fips-int="21207" data-name="Russell County" d="M2140,1152l-4,34 32,31 -100,77 -23,16 -42,-13 -8,-39 10,-36 71,-108 40,46Z"/>
    <path data-fips-int="21209" data-name="Scott County" d="M2279,396l19,36 21,18 12,60 13,39 3,2 -94,52 -7,-18 -17,-19 -21,-3 1,-3 -8,-86 68,-67Z"/>
    <path data-fips-int="21211" data-name="Shelby County" d="M2081,598l-33,50 -140,-60 9,-63 -27,-12 2,-4 5,-2 55,-8 16,-26 123,11Z"/>
    <path data-fips-int="21213" data-name="Simpson County" d="M1478,1407l-155,0 31,-105 37,-22 12,29 80,13 -2,17Z"/>
    <path data-fips-int="21215" data-name="Spencer County" d="M2048,648l-8,9 -5,13 -4,-3 -10,0 -1,16 -100,19 -27,-16 -13,-13 27,-68 1,-17Z"/>
    <path data-fips-int="21217" data-name="Taylor County" d="M1878,954l5,8 5,-1 4,1 0,-1 15,-6 25,5 1,1 4,-1 40,29 29,-18 57,18 -10,9 -30,48 -43,28 -13,8 -25,30 -55,-94 -47,-57 0,-1 0,1 18,7Z"/>
    <path data-fips-int="21219" data-name="Todd County" d="M1113,1176l0,1 0,-1 0,1 -6,6 91,-2 -7,228 -121,-2 37,-224 1,-10Z"/>
    <path data-fips-int="21221" data-name="Trigg County" d="M914,1407l-70,2 0,-18 -97,-11 -16,-36 -19,-67 123,-48 64,-22 33,20Z"/>
    <path data-fips-int="21223" data-name="Trimble County" d="M1947,266l69,81 -61,51 0,1 0,-1 -52,-16 -1,-112Z"/>
    <path data-fips-int="21225" data-name="Union County" d="M887,794l20,65 -88,84 0,1 0,-1 -55,-14 -43,-74 20,-42 48,-47 46,-4 -8,-49 0,-1 0,1Z"/>
    <path data-fips-int="21227" data-name="Warren County" d="M1459,1134l24,-10 53,49 26,-13 47,23 -23,70 -32,16 -73,70 2,-17 -80,-13 -12,-29 -28,-64 0,-1 23,-99 55,-3Z"/>
    <path data-fips-int="21229" data-name="Washington County" d="M2056,727l2,3 13,-5 4,4 1,0 4,-2 11,19 -8,98 -3,26 -98,1 -37,-11 -25,-42 0,-1 0,1 -2,-1 2,0 78,-77 5,13 22,-23 1,-1 0,-4Z"/>
    <path data-fips-int="21231" data-name="Wayne County" d="M2281,1287l-5,33 -3,0 -4,4 -10,7 -63,101 -86,-5 -7,-3 -12,-38 4,-34 -27,-58 100,-77 28,21 42,-12Z"/>
    <path data-fips-int="21233" data-name="Webster County" d="M1062,899l-54,44 -43,14 -98,58 8,-15 -20,2 -36,-19 0,-39 0,-1 88,-84 103,-3 5,26Z"/>
    <path data-fips-int="21235" data-name="Whitley County" d="M2442,1240l39,-11 8,3 3,3 18,57 22,19 23,49 35,20 -16,15 -7,40 -128,0 -35,-40 -25,-78 25,-75Z"/>
    <path data-fips-int="21237" data-name="Wolfe County" d="M2762,746l38,20 46,47 2,2 0,11 5,10 -5,0 -31,-3 -10,-4 -2,0 -3,0 -7,-4 -3,-4 -39,41 -18,-6 -81,-41 31,-59 0,-2 0,2 38,-3 20,-19 0,-1 0,1Z"/>
    <path data-fips-int="21239" data-name="Woodford County" d="M2209,560l-1,3 21,3 17,19 7,18 -15,61 -20,79 -49,-28 10,-32 -29,-79Z"/>
  </g>
  <g class="cities">
    <circle r="3" cx="176.4" cy="53.1"/>
    <text x="176.4" y="53.1">Louisville</text>
    <circle r="3" cx="232.6" cy="63.8"/>
    <text x="232.6" y="63.8">Lexington</text>
    <circle r="3" cx="146.5" cy="122.2"/>
    <text x="146.5" y="122.2">Bowling Green</text>
  </g>
</svg>