<?xml version="1.0" encoding="utf-8"?>
<!DOCTYPE svg PUBLIC "-//W3C//DTD SVG 1.1//EN" "http://www.w3.org/Graphics/SVG/1.1/DTD/svg11.dtd">
<svg version="1.1" xmlns="http://www.w3.org/2000/svg" width="350" height="321" viewBox="0 0 350 321">
  <defs>
    <pattern id="pattern-no-results" width="50" height="50" patternUnits="userSpaceOnUse">
      <rect width="50" height="50" fill="#ddd"/>
      <path d="M-5,5L5,-5M-5,55L55,-5M45,55L55,45" stroke-width="10" stroke="#ffffff"/>
    </pattern>
  </defs>
  <g class="counties" transform="scale(0.1)">
    <path data-fips-int="22001" data-name="Acadia Parish" d="M1205,2215l-10,10 -12,6 -40,42 -41,30 -47,-11 -38,-32 -53,11 -2,-24 25,-41 -22,-39 0,-67 -1,-41 23,-30 -23,-47 88,1 158,2 1,33 44,0 0,64 21,38 -70,69Z"/>
    <path data-fips-int="22003" data-name="Allen Parish" d="M984,1939l-19,38 -1,0 -92,-2 -2,39 -184,-3 -43,10 3,-129 95,0 5,-208 98,4 0,-11 66,-6 79,3 -2,234Z"/>
    <path data-fips-int="22005" data-name="Ascension Parish" d="M2078,2087l13,1 27,18 27,46 34,23 19,29 10,8 25,-43 11,9 -6,40 -175,41 -32,35 0,1 -71,-12 -20,14 0,-34 22,-39 33,-121 30,-18Z"/>
    <path data-fips-int="22007" data-name="Assumption Parish" d="M2031,2295l4,64 21,0 0,32 27,-1 0,23 -35,77 -43,64 -48,67 -15,-12 3,-42 5,-77 -25,-25 -33,-7 -47,-93 -3,-22 23,-19 75,-27 20,-14Z"/>
    <path data-fips-int="22009" data-name="Avoyelles Parish" d="M1366,1358l-10,34 20,41 43,-53 57,20 0,1 26,32 74,28 -27,36 10,26 -13,44 -17,20 -38,30 5,78 -8,18 -255,-1 -15,0 0,-34 -28,-32 1,-21 45,0 -15,-125 2,-140 5,-5 28,0 12,23 47,-29 1,2 38,-6Z"/>
    <path data-fips-int="22011" data-name="Beauregard Parish" d="M746,1684l-5,208 -95,0 -3,129 0,15 -163,-3 1,-65 -65,0 0,64 -164,-3 26,-20 -15,-108 32,-12 -2,-37 30,-23 20,-32 -5,-32 40,-55 -2,-24 4,-8 0,2 0,-2 0,2 11,-3 7,1 12,8 48,-9 161,1Z"/>
    <path data-fips-int="22013" data-name="Bienville Parish" d="M824,417l0,97 63,2 0,148 -25,77 -78,-1 -156,-3 -12,-31 -5,-33 -135,-2 15,-36 -11,-18 13,-42 -13,-13 34,-20 85,1 0,-32 57,0 -18,-96Z"/>
    <path data-fips-int="22015" data-name="Bossier Parish" d="M430,88l3,12 -10,20 48,90 -13,71 17,0 -5,140 1,121 43,0 -34,20 13,13 -13,42 11,18 -15,36 -26,-1 -22,-32 -17,-29 -51,-23 -12,-33 -31,-5 16,-23 -18,-17 -3,-35 -25,-10 -19,-60 14,-20 -22,-79 -27,-3 27,-32 -8,-21 8,-47 -22,-29 12,-26 -23,-8 18,-20 2,-35Z"/>
    <path data-fips-int="22017" data-name="Caddo Parish" d="M247,83l-2,35 -18,20 23,8 -12,26 22,29 -8,47 8,21 -27,32 27,3 22,79 -14,20 19,60 25,10 3,35 18,17 -16,23 31,5 12,33 51,23 17,29 22,32 -90,-2 -5,-35 -27,-26 -33,0 -40,-19 -43,38 -7,27 -56,40 -59,0 5,-326 10,-285Z"/>
    <path data-fips-int="22019" data-name="Calcasieu Parish" d="M643,2036l0,17 63,2 0,88 21,0 0,78 65,0 -5,35 9,20 -70,0 0,32 -85,0 0,-11 -381,-6 -8,-26 21,-23 -10,-76 7,-55 -28,-24 -4,-44 14,-14 164,3 0,-64 65,0 -1,65Z"/>
    <path data-fips-int="22021" data-name="Caldwell Parish" d="M1441,743l10,49 -23,21 8,47 7,19 -10,32 -64,0 -193,-2 2,-161 0,-98 175,2 26,0 -10,54Z"/>
    <path data-fips-int="22023" data-name="Cameron Parish" d="M726,2308l166,3 2,0 76,0 0,175 -5,166 -75,-26 -129,-65 -52,-23 -111,-35 -65,-3 -37,12 -90,-9 -159,19 -70,34 -53,-93 51,-40 27,-62 58,-70 381,6 0,11Z"/>
    <path data-fips-int="22025" data-name="Catahoula Parish" d="M1641,946l-2,64 18,32 -1,22 -32,-30 -22,26 -28,-12 -22,48 5,29 -18,19 -25,-25 -33,40 5,26 25,20 -17,36 45,12 2,26 -47,-4 -16,-48 -20,25 6,39 48,23 -38,3 -18,28 2,30 25,9 -7,16 -57,-20 -43,53 -20,-41 10,-34 0,-278 3,-169 64,0 10,-32 23,10 5,0 25,47 46,10 39,-32 13,-34 32,0 0,66Z"/>
    <path data-fips-int="22027" data-name="Claiborne Parish" d="M925,100l-1,189 -65,0 0,33 -25,28 1,35 -11,32 -186,-2 0,-51 -4,-48 -31,0 3,-224Z"/>
    <path data-fips-int="22029" data-name="Concordia Parish" d="M1657,1042l108,3 -1,10 -12,19 -2,67 -45,-3 -13,-17 -15,26 20,18 40,-8 8,23 -43,26 -22,-1 -3,57 30,46 -5,20 -32,-12 -9,-37 -19,12 15,52 23,22 -1,28 -38,13 -40,-6 -10,21 41,44 -25,49 40,36 -13,34 -33,17 -17,21 2,-17 0,-38 -40,0 13,-44 -10,-26 27,-36 -74,-28 -26,-32 0,-1 7,-16 -25,-9 -2,-30 18,-28 38,-3 -48,-23 -6,-39 20,-25 16,48 47,4 -2,-26 -45,-12 17,-36 -25,-20 -5,-26 33,-40 25,25 18,-19 -5,-29 22,-48 28,12 22,-26 32,30Z"/>
    <path data-fips-int="22031" data-name="De Soto Parish" d="M360,668l11,23 39,9 13,46 -20,21 40,37 -2,20 24,30 41,20 13,24 -54,14 -2,49 -276,-5 -12,-39 -50,-22 -25,-51 -13,0 3,-151 59,0 56,-40 7,-27 43,-38 40,19 33,0 27,26Z"/>
    <path data-fips-int="22033" data-name="East Baton Rouge Parish" d="M2068,1857l-3,4 -32,35 0,2 0,-2 -2,2 -11,7 3,90 8,60 47,32 -53,-2 -30,18 -78,0 -34,-18 -26,3 0,-23 25,-42 -7,-67 -40,13 15,-24 -13,-27 -27,0 7,-57 0,-1 20,-32 6,-8 258,-12Z"/>
    <path data-fips-int="22035" data-name="East Carroll Parish" d="M1957,440l-39,18 -203,0 5,-32 32,-21 0,-63 35,-41 2,-85 20,-11 5,-52 13,-1 10,-41 60,1 -30,60 26,18 25,-23 -3,-30 25,-14 22,56 -7,20 -45,44 -7,41 14,29 48,6 -10,31 -48,29 20,44 43,-17 17,-29 13,16 -18,33Z"/>
    <path data-fips-int="22037" data-name="East Feliciana Parish" d="M2116,1601l-21,39 1,5 10,75 -3,6 0,59 0,23 -2,0 -258,12 -6,8 -20,32 -3,0 -5,-35 53,-84 -5,-8 30,-85 0,-28 6,-19Z"/>
    <path data-fips-int="22039" data-name="Evangeline Parish" d="M1058,1977l-6,6 -88,-1 1,-5 19,-38 3,-31 2,-234 36,-2 10,3 2,2 1,-2 4,0 21,-16 0,-26 49,-31 3,-1 13,-3 2,3 30,24 31,0 -1,21 28,32 0,34 15,0 3,47 22,12 0,69 -18,15 -7,64 -33,0 0,23 -105,0 -7,1 -3,0 -10,7 -3,7 -2,8 2,1 -9,6Z"/>
    <path data-fips-int="22041" data-name="Franklin Parish" d="M1704,557l15,26 -14,38 -36,20 10,49 15,15 -9,47 10,37 -15,55 12,10 -22,35 10,22 -39,35 -15,0 0,-66 -32,0 -13,34 -39,32 -46,-10 -25,-47 -5,0 -23,-10 -7,-19 -8,-47 23,-21 -10,-49 37,-18 13,-32 26,-28 5,-56 40,-6 0,-22 44,-24Z"/>
    <path data-fips-int="22043" data-name="Grant Parish" d="M1143,1007l17,25 -22,46 2,31 10,25 -22,4 50,22 0,29 22,13 -4,22 52,20 -296,63 -22,-14 10,-29 -23,-52 -52,-61 -68,-21 5,-26 -41,-15 -4,-22 223,2 2,-64Z"/>
    <path data-fips-int="22045" data-name="Iberia Parish" d="M1433,2615l35,3 44,42 40,12 -35,24 -15,31 -38,3 -68,-43 -50,-23 18,-30 40,-2ZM1772,2300l65,0 28,24 -23,19 3,22 -140,11 -98,9 -56,73 -93,80 -17,-6 17,-37 10,17 8,-41 -40,-6 -17,15 -36,-14 -14,-113 19,-38 8,-27 50,4 37,19 34,-49 20,-9 44,7 41,58 58,0 15,-18Z"/>
    <path data-fips-int="22047" data-name="Iberville Parish" d="M1689,1974l8,0 107,114 5,15 108,0 78,0 -33,121 -22,39 0,34 -75,27 -28,-24 -65,0 -13,-32 -47,0 -8,-94 -57,-10 -36,-48 -19,-45 15,-25 -13,-32 -35,-40 75,0 0,11Z"/>
    <path data-fips-int="22049" data-name="Jackson Parish" d="M1178,650l0,98 -316,-7 25,-77 0,-148 98,1 0,-32 130,2 0,66 63,64Z"/>
    <path data-fips-int="22053" data-name="Jefferson Davis Parish" d="M965,2100l0,67 22,39 -25,41 2,24 -70,40 -2,0 -166,-3 0,-32 70,0 -9,-20 5,-35 -65,0 0,-78 -21,0 0,-88 -63,-2 0,-17 0,-15 43,-10 184,3 2,-39 92,2 1,0 -1,5 23,47 -23,30Z"/>
    <path data-fips-int="22055" data-name="Lafayette Parish" d="M1205,2213l1,-24 70,-69 65,-53 33,1 25,16 -11,15 11,38 -16,12 11,37 -15,23 37,-5 10,24 -30,60 -8,27 -65,-27 -15,-41 -27,9 -45,-20 -53,-5 12,-6Z"/>
    <path data-fips-int="22059" data-name="La Salle Parish" d="M1366,1358l-12,-13 -38,6 -1,-2 3,-23 -42,-28 -8,-49 -20,-5 -52,-20 4,-22 -22,-13 0,-29 -50,-22 22,-4 -10,-25 -2,-31 22,-46 -17,-25 15,-22 9,-24 1,-2 2,-21 1,-2 5,-27 193,2 -3,169Z"/>
    <path data-fips-int="22061" data-name="Lincoln Parish" d="M1117,421l-2,66 -130,-2 0,32 -98,-1 -63,-2 0,-97 11,-32 -1,-35 25,-28 0,-33 65,0 60,0 33,11 21,19 14,35 65,2Z"/>
    <path data-fips-int="22063" data-name="Livingston Parish" d="M2284,1858l0,122 22,49 10,7 12,26 4,8 40,52 20,6 -53,17 -31,44 -29,7 -35,-18 -11,-9 -25,43 -10,-8 -19,-29 -34,-23 -27,-46 -27,-18 -13,-1 -47,-32 -8,-60 -3,-90 11,-7 2,-2 0,2 0,-2 32,-35Z"/>
    <path data-fips-int="22065" data-name="Madison Parish" d="M1983,767l-13,-1 -3,-43 36,26ZM1925,699l-10,-28 -30,5 -30,24 -35,-6 -18,12 -108,-1 -15,-15 -10,-49 36,-20 14,-38 -15,-26 -7,-53 18,-46 203,0 39,-18 -2,12 40,21 6,26 -23,-6 -35,-44 -15,43 22,32 35,12 38,-2 -25,52 60,18 3,20 -41,41 -17,51 -21,-39Z"/>
    <path data-fips-int="22067" data-name="Morehouse Parish" d="M1729,111l0,1 0,2 0,-2 0,2 -9,7 -28,75 -30,11 -38,65 5,29 -22,21 -5,40 -21,41 -27,0 -25,38 -22,-3 -18,-1 -13,32 -28,-16 -20,28 -12,-113 -22,-36 -23,0 -28,15 0,-26 -7,-2 5,-41 -15,-85 -1,-64 9,-23Z"/>
    <path data-fips-int="22069" data-name="Natchitoches Parish" d="M784,740l30,87 2,38 -15,97 -29,-4 0,50 -11,6 -4,53 4,22 41,15 -5,26 68,21 52,61 -62,55 -36,17 -48,53 -22,0 0,-3 -43,-14 -118,-1 1,-128 -65,0 2,-131 -65,-2 2,-97 2,-49 54,-14 24,32 48,-10 2,-51 71,2 -21,-29 0,-2 0,-4 15,-26 -30,-73Z"/>
    <path data-fips-int="22071" data-name="Orleans Parish" d="M2891,2219l-35,37 -1,23 -30,12 8,24 -63,-12 -27,32 -43,11 -41,0 -14,33 60,22 5,33 -28,-24 -33,6 -34,-37 -8,20 -43,0 8,-40 10,-163 72,31 63,-35 43,6 23,26 29,-20 36,0Z"/>
    <path data-fips-int="22073" data-name="Ouachita Parish" d="M1343,321l0,26 28,-15 23,0 22,36 12,113 -59,102 -16,69 -175,-2 0,-33 -63,-64 0,-66 2,-66 89,4 114,-78 16,-28Z"/>
    <path data-fips-int="22077" data-name="Pointe Coupee Parish" d="M1586,1605l-2,17 10,32 -13,37 25,29 46,-5 -11,-37 -25,-16 38,0 25,36 -15,57 -38,32 35,13 51,-3 40,-17 20,8 23,66 15,7 -58,60 -10,42 -45,11 -8,0 -55,11 0,-11 -75,0 -37,0 17,-17 -17,-35 17,-74 -20,-84 -28,-25 -3,-26 8,-18 -5,-78 38,-30 32,-2Z"/>
    <path data-fips-int="22079" data-name="Rapides Parish" d="M1248,1244l20,5 8,49 42,28 -3,23 1,2 -1,-2 -47,29 -12,-23 -28,0 -5,5 -2,140 15,125 -45,0 -31,0 -30,-24 -2,-3 -13,3 -3,1 -49,31 0,26 -21,16 -4,0 -1,2 -2,-2 -10,-3 -36,2 -79,-3 -66,6 0,-271 -32,-26 0,-22 -63,-21 22,0 48,-53 36,-17 62,-55 23,52 -10,29 22,14Z"/>
    <path data-fips-int="22081" data-name="Red River Parish" d="M616,706l12,31 30,73 -15,26 0,4 0,2 21,29 -71,-2 -2,51 -48,10 -24,-32 -13,-24 -41,-20 -24,-30 2,-20 -40,-37 20,-21 -13,-46 -39,-9 -11,-23 90,2 26,1 135,2Z"/>
    <path data-fips-int="22083" data-name="Richland Parish" d="M1720,426l-5,32 -18,46 7,53 -98,0 -44,24 0,22 -40,6 -5,56 -26,28 -13,32 -37,18 -72,-37 10,-54 -26,0 16,-69 59,-102 20,-28 28,16 13,-32 18,1 22,3 25,-38 27,0 21,-41 24,0 5,64Z"/>
    <path data-fips-int="22085" data-name="Sabine Parish" d="M463,961l-2,97 65,2 -2,131 65,0 -1,128 -98,-2 -35,67 -59,-1 -11,29 1,6 -1,32 -25,14 -32,-77 -28,-27 13,-38 -15,-63 -35,-22 25,-32 -43,-10 -38,-53 15,-14 -4,-44 20,-21 -25,-38 9,-17 -35,-52Z"/>
    <path data-fips-int="22089" data-name="Saint Charles Parish" d="M2507,2567l-76,0 -17,-49 -37,-11 -30,-26 -1,-24 -42,-35 2,-93 56,-12 110,-148 0,195 7,44 20,34 46,41Z"/>
    <path data-fips-int="22091" data-name="Saint Helena Parish" d="M2281,1599l3,259 -219,3 3,-4 33,-49 2,0 0,-23 0,-59 3,-6 -10,-75 -1,-5 21,-39Z"/>
    <path data-fips-int="22093" data-name="Saint James Parish" d="M2231,2423l-83,-22 0,10 -65,2 0,-23 -27,1 0,-32 -21,0 -4,-64 0,-1 32,-35 175,-41 -12,87 -15,9Z"/>
    <path data-fips-int="22095" data-name="Saint John the Baptist Parish" d="M2472,2169l-110,148 -56,12 -2,93 -73,1 -20,-109 15,-9 12,-87 6,-40 35,18 29,-7 31,-44 53,-17 67,-6Z"/>
    <path data-fips-int="22097" data-name="Saint Landry Parish" d="M1058,1975l5,-3 9,-6 -2,-1 2,-8 3,-7 10,-7 3,0 7,-1 105,0 0,-23 33,0 7,-64 18,-15 0,-69 -22,-12 -3,-47 255,1 3,26 28,25 20,84 -17,74 17,35 -17,17 49,76 -85,0 -37,-17 -41,17 -29,-7 -5,25 -33,-1 -65,53 -21,-38 0,-64 -44,0 -1,-33 -158,-2Z"/>
    <path data-fips-int="22099" data-name="Saint Martin Parish" d="M1945,2567l-22,-19 -51,-19 -88,-11 -24,-14 9,-33 -27,-58 -37,-37 140,-11 47,93 33,7 25,25ZM1772,2300l-77,0 -15,18 -58,0 -41,-58 -44,-7 -20,9 -34,49 -37,-19 -50,-4 30,-60 -10,-24 -37,5 15,-23 -11,-37 16,-12 -11,-38 11,-15 -25,-16 5,-25 29,7 41,-17 37,17 85,0 -49,-76 37,0 35,40 13,32 -15,25 19,45 36,48 57,10 8,94 47,0Z"/>
    <path data-fips-int="22103" data-name="Saint Tammany Parish" d="M2486,1855l0,-27 -4,-17 162,32 103,-2 18,23 3,51 37,48 41,31 4,41 36,49 -6,22 16,63 32,30 -37,20 -43,-15 -36,0 -29,20 -23,-26 -43,-6 -63,35 -72,-31 -88,-22 -3,-278 -2,-1 0,-6 0,-3 -2,-13 2,-10 2,-3 -2,-2Z"/>
    <path data-fips-int="22105" data-name="Tangipahoa Parish" d="M2487,1855l2,3 2,2 -2,3 -2,10 2,13 0,3 0,6 2,1 3,278 -22,-5 -13,-47 -67,6 -20,-6 -40,-52 -4,-8 -12,-26 -10,-7 -22,-49 0,-122 -3,-259 141,-1 0,70 20,10 34,102 1,4 2,0 3,27 4,17Z"/>
    <path data-fips-int="22107" data-name="Tensas Parish" d="M1925,699l-27,13 2,48 70,6 13,1 -43,55 -27,-26 -5,26 42,12 -12,31 -40,6 -16,33 8,14 -57,44 15,20 -23,12 -6,-33 -35,14 -10,60 50,-9 5,22 -55,-3 -10,10 1,-10 -108,-3 -18,-32 2,-64 39,-35 -10,-22 22,-35 -12,-10 15,-55 -10,-37 9,-47 108,1 18,-12 35,6 30,-24 30,-5Z"/>
    <path data-fips-int="22111" data-name="Union Parish" d="M1334,106l-9,23 1,64 15,85 -5,41 -16,28 -114,78 -89,-4 0,-65 -65,-2 -14,-35 -21,-19 -33,-11 -60,0 1,-189Z"/>
    <path data-fips-int="22113" data-name="Vermilion Parish" d="M1183,2231l53,5 45,20 27,-9 15,41 65,27 -19,38 14,113 -4,26 -69,30 -39,31 5,-40 -25,22 -25,-6 44,38 30,-3 -22,30 17,37 48,-16 -25,26 16,11 -56,-2 -75,34 -41,4 -52,-13 -145,-23 5,-166 0,-175 -76,0 70,-40 53,-11 38,32 47,11 41,-30Z"/>
    <path data-fips-int="22115" data-name="Vernon Parish" d="M749,1334l0,3 63,21 0,22 32,26 0,271 0,11 -98,-4 -127,-6 -161,-1 -48,9 -12,-8 -7,-1 -11,3 0,-2 0,2 0,-2 -4,8 -10,-15 29,-26 0,-28 -27,-9 12,-23 30,-18 -27,-38 13,-79 -11,0 1,-32 -1,-6 11,-29 59,1 35,-67 98,2 118,1Z"/>
    <path data-fips-int="22117" data-name="Washington Parish" d="M2747,1841l-103,2 -162,-32 -3,-27 -2,0 -1,-4 -34,-102 -20,-10 0,-70 378,-6 17,21 -19,21 -33,114 -12,7Z"/>
    <path data-fips-int="22119" data-name="Webster Parish" d="M606,92l-3,224 31,0 4,48 0,51 18,96 -57,0 0,32 -85,-1 -43,0 -1,-121 5,-140 -17,0 13,-71 -48,-90 10,-20 -3,-12Z"/>
    <path data-fips-int="22121" data-name="West Baton Rouge Parish" d="M1917,2103l-108,0 -5,-15 -107,-114 45,-11 10,-42 58,-60 -15,-7 19,6 3,0 0,1 -7,57 27,0 13,27 -15,24 40,-13 7,67 -25,42 0,23 26,-3Z"/>
    <path data-fips-int="22123" data-name="West Carroll Parish" d="M1837,111l-10,41 -13,1 -5,52 -20,11 -2,85 -35,41 0,63 -32,21 -89,0 -5,-64 -24,0 5,-40 22,-21 -5,-29 38,-65 30,-11 28,-75 9,-7 0,-2 0,2 0,-2 0,-1Z"/>
    <path data-fips-int="22125" data-name="West Feliciana Parish" d="M1887,1620l0,28 -30,85 5,8 -53,84 5,35 -19,-6 -23,-66 -20,-8 -40,17 -51,3 -35,-13 38,-32 15,-57 -25,-36 -38,0 25,16 11,37 -46,5 -25,-29 13,-37 -10,-32 17,-21 292,0ZM1586,1605l-25,-20 -32,2 17,-20 40,0Z"/>
    <path data-fips-int="22127" data-name="Winn Parish" d="M862,741l316,7 -2,161 -5,27 -1,2 -2,21 -1,2 -9,24 -15,22 -161,-2 -2,64 -223,-2 4,-53 11,-6 0,-50 29,4 15,-97 -2,-38 -30,-87Z"/>
    <path data-fips-int="22075" data-name="Plaquemines Parish" d="M2845,2798l40,-1 16,23 -38,36 -85,-11ZM2886,2594l-5,18 -56,14 28,56 35,17 13,23 22,-14 28,35 -16,23 23,25 43,-14 58,11 -11,24 33,17 30,-19 20,8 13,30 35,-28 35,38 15,32 -2,36 24,11 -12,29 38,17 -10,18 -38,-18 10,24 -30,6 -28,38 -38,-65 0,39 -104,101 74,-139 21,-14 -18,-53 -15,-8 -7,46 -15,17 7,-55 -17,31 -5,-39 -26,29 -22,-3 -40,-50 25,-6 -18,-47 -72,-20 2,-21 -28,-6 -92,3 -15,-22 -23,-4 23,-26 -31,-14 -5,21 -37,-36 -5,24 -28,5 -2,-95 -25,-65 -33,-46 0,-72 20,-10 17,-35 33,-6 28,24 28,56 37,-6 12,29 59,6 14,28 36,26 32,9 5,0 5,3 -33,3 -40,-18Z"/>
    <path data-fips-int="22087" data-name="Saint Bernard Parish" d="M3023,2378l-15,15 30,12 15,-12 15,38 -42,40 48,18 -36,14 -40,-42 -27,-3 42,60 -22,11 35,27 -31,-3 -37,-43 -17,19 -16,-16 -15,17 -32,-11 2,31 48,32 -32,-9 -36,-26 -14,-28 -59,-6 -12,-29 -37,6 -28,-56 -5,-33 -60,-22 14,-33 41,0 43,-11 25,50 49,-1 0,21 43,31 35,0 23,-19 8,-80 55,-35 4,-26 29,32 -16,32 45,18ZM3148,2282l21,13 -71,-13 15,-9 21,-34Z"/>
    <path data-fips-int="22109" data-name="Terrebonne Parish" d="M2018,2922l23,-2 -16,38 -28,-3ZM1858,2812l14,35 35,0 -7,62 23,-9 4,23 -49,-1 -48,-20 -38,-46 40,-14ZM2284,2905l-23,-5 3,28 -18,-9 -2,19 -45,49 -33,-1 -5,24 -28,-31 -15,5 -32,14 -38,-34 23,-33 30,9 34,-29 -40,-20 -42,-1 27,-25 -25,-3 -17,-27 -43,35 31,7 27,23 -32,14 4,-26 -27,20 -20,36 10,-56 -21,21 11,37 -26,1 -29,-36 2,-40 50,-6 0,-24 23,-9 -41,-11 15,26 -37,21 -7,-30 -48,-29 -10,-44 -27,-9 -5,-68 34,-38 85,-29 48,-67 81,-1 0,-21 27,0 23,-20 24,55 38,21 36,49 19,1 33,31 3,18 68,64 4,14 48,45 2,63 -10,17 -2,-39 -20,-25 -33,50 -18,-47 -10,50 -49,-24Z"/>
    <path data-fips-int="22057" data-name="Lafourche Parish" d="M2627,2762l-13,24 21,30 -10,23 24,17 -44,2 2,-2 12,-9 -35,-15 20,39 -17,8 32,49 -2,3 -13,20 0,4 -4,2 -16,21 -69,41 -13,-40 -13,0 -7,-41 -23,-56 -23,-31 -20,13 -4,44 -18,12 0,-11 0,-4 3,-9 0,-3 2,0 2,-3 10,-17 -2,-63 -48,-45 -4,-14 -68,-64 -3,-18 -33,-31 -19,-1 -36,-49 -38,-21 -24,-55 -23,20 -27,0 0,21 -81,1 43,-64 35,-77 65,-2 0,-10 83,22 73,-1 42,35 1,24 30,26 37,11 17,49 76,0 37,6 -4,48 12,35 -28,5 -12,46 67,41 50,0Z"/>
    <path data-fips-int="22051" data-name="Jefferson Parish" d="M2582,2196l-10,163 -8,40 43,0 8,-20 34,37 -17,35 -20,10 0,72 33,46 25,65 2,95 -13,-20 -114,-56 39,-28 -10,-53 -30,-9 -37,-6 38,-84 -46,-41 -20,-34 -7,-44 0,-195 22,5Z"/>
    <path data-fips-int="22101" data-name="Saint Mary Parish" d="M1945,2567l-3,42 15,12 -85,29 -35,28 -5,29 -12,4 -30,9 -30,-24 -18,9 3,-29 -89,25 14,-19 -21,-70 -43,8 3,-79 -73,-11 -29,5 -51,29 2,-26 93,-80 56,-73 98,-9 37,37 27,58 -9,33 24,14 88,11 51,19Z"/>
  </g>
  <g class="cities">
    <circle r="3" cx="260.4" cy="237.2"/>
    <text x="260.4" y="237.2">New Orleans</text>
    <circle r="3" cx="190.9" cy="200.9"/>
    <text x="190.9" y="200.9">Baton Rouge</text>
    <circle r="3" cx="26.7" cy="46.6"/>
    <text x="26.7" y="46.6">Shreveport</text>
  </g>
</svg>