<?xml version="1.0" encoding="utf-8"?>
<!DOCTYPE svg PUBLIC "-//W3C//DTD SVG 1.1//EN" "http://www.w3.org/Graphics/SVG/1.1/DTD/svg11.dtd">
<svg version="1.1" xmlns="http://www.w3.org/2000/svg" width="350" height="321" viewBox="0 0 350 321">
  <defs>
    <pattern id="pattern-no-results" width="50" height="50" patternUnits="userSpaceOnUse">
      <rect width="50" height="50" fill="#ddd"/>
      <path d="M-5,5L5,-5M-5,55L55,-5M45,55L55,45" stroke-width="10" stroke="#666666"/>
    </pattern>
  </defs>
  <g class="counties" transform="scale(0.1)">
    <path data-fips-int="22001" data-name="Acadia Parish" d="M1052,1983l158,2 1,33 44,0 0,64 21,38 -70,69 -1,24 0,2 0,-2 0,2 -10,10 -12,6 -40,42 -41,30 -47,-11 -38,-32 -53,11 23,-65 -22,-39 0,-67 -1,-41 23,-30 -23,-47Z"/>
    <path data-fips-int="22003" data-name="Allen Parish" d="M984,1939l-19,38 -1,0 -92,-2 -2,39 -184,-3 -43,10 3,-129 95,0 5,-208 98,4 0,-11 145,-3Z"/>
    <path data-fips-int="22005" data-name="Ascension Parish" d="M2078,2087l13,1 107,116 46,-26 -6,40 -175,41 -32,35 0,1 -71,-12 -20,14 55,-194 30,-18Z"/>
    <path data-fips-int="22007" data-name="Assumption Parish" d="M2031,2295l0,-1 0,1 4,64 48,54 -35,77 -43,64 -48,67 -12,-54 5,-77 -58,-32 -47,-93 20,-41 75,-27 20,-14Z"/>
    <path data-fips-int="22009" data-name="Avoyelles Parish" d="M1366,1358l10,75 43,-53 57,20 0,1 26,32 74,28 -27,36 -3,70 -17,20 -38,30 -3,96 -255,-1 -43,-66 1,-21 45,0 -15,-125 7,-145 40,23 47,-29 1,2Z"/>
    <path data-fips-int="22011" data-name="Beauregard Parish" d="M746,1684l-5,208 -95,0 -3,129 0,15 -163,-3 1,-65 -65,0 0,64 -164,-3 26,-20 -15,-108 32,-12 -2,-37 50,-55 -5,-32 40,-55 -2,-24 4,-8 0,2 0,-2 0,2 11,-3 7,1 12,8 48,-9Z"/>
    <path data-fips-int="22013" data-name="Bienville Parish" d="M824,417l0,97 63,2 0,148 -25,77 -78,-1 -156,-3 -12,-31 -5,-33 -135,-2 17,-96 21,-33 85,1 0,-32 57,0 -18,-96Z"/>
    <path data-fips-int="22015" data-name="Bossier Parish" d="M430,88l3,12 -10,20 48,90 -13,71 17,0 -4,261 43,0 -21,33 -17,96 -26,-1 -22,-32 -17,-29 -51,-23 -12,-33 -36,-80 -25,-10 -19,-60 14,-20 -22,-79 0,-103 -33,-63 20,-55Z"/>
    <path data-fips-int="22017" data-name="Caddo Parish" d="M247,83l-20,55 33,63 0,103 22,79 -14,20 19,60 25,10 36,80 12,33 51,23 17,29 22,32 -90,-2 -32,-61 -73,-19 -50,65 -56,40 -59,0 15,-611Z"/>
    <path data-fips-int="22019" data-name="Calcasieu Parish" d="M643,2036l0,17 63,2 0,88 21,0 0,78 65,0 -5,35 9,20 -70,0 0,32 -85,-11 -381,-6 13,-49 -10,-76 7,-55 -28,-24 10,-58 164,3 0,-64 65,0 -1,65Z"/>
    <path data-fips-int="22021" data-name="Caldwell Parish" d="M1441,743l10,49 -23,21 8,47 7,19 -10,32 -64,0 -193,-2 2,-161 0,-98 175,2 26,0 -10,54Z"/>
    <path data-fips-int="22023" data-name="Cameron Parish" d="M726,2308l166,3 2,0 76,0 -5,341 -75,-26 -181,-88 -111,-35 -102,9 -90,-9 -159,19 -70,34 -53,-93 51,-40 27,-62 58,-70 381,6Z"/>
    <path data-fips-int="22025" data-name="Catahoula Parish" d="M1641,946l-2,64 18,32 -83,6 -35,96 -25,-25 -33,40 30,46 -17,36 45,12 2,26 -47,-4 -16,-48 -14,64 48,23 -56,31 20,55 0,1 0,-1 -57,-20 -43,53 -10,-75 3,-447 64,0 10,-32 23,10 5,0 25,47 46,10 52,-66 32,0Z"/>
    <path data-fips-int="22027" data-name="Claiborne Parish" d="M925,100l-1,189 -65,0 -25,61 -10,67 -186,-2 0,-51 -4,-48 -31,0 3,-224Z"/>
    <path data-fips-int="22029" data-name="Concordia Parish" d="M1657,1042l108,3 -1,10 -14,86 -73,6 60,10 8,23 -65,25 -3,57 30,46 -37,8 -28,-25 37,102 -78,7 -10,21 41,44 -25,49 40,36 -46,51 -17,21 2,-17 0,-38 -40,0 3,-70 27,-36 -74,-28 -26,-32 0,-1 -20,-55 56,-31 -48,-23 14,-64 16,48 47,4 -2,-26 -45,-12 17,-36 -30,-46 33,-40 25,25 35,-96Z"/>
    <path data-fips-int="22031" data-name="De Soto Parish" d="M360,668l50,32 13,46 -20,21 40,37 22,50 54,44 -54,14 -2,49 -276,-5 -12,-39 -50,-22 -38,-51 3,-151 59,0 56,-40 50,-65 73,19Z"/>
    <path data-fips-int="22033" data-name="East Baton Rouge Parish" d="M2068,1857l-3,4 -32,35 0,2 -2,0 2,0 0,-2 -2,2 -11,7 11,150 47,32 -53,-2 -30,18 -78,0 -60,-15 25,-65 -7,-67 -65,-38 7,-57 0,-1 20,-32 6,-8 258,-12 2,0 -2,0Z"/>
    <path data-fips-int="22035" data-name="East Carroll Parish" d="M1957,440l-39,18 -203,0 5,-32 32,-21 0,-63 35,-41 2,-85 48,-105 60,1 -30,60 26,18 47,-67 22,56 -52,64 7,70 48,6 -10,31 -48,29 20,44 73,-30Z"/>
    <path data-fips-int="22037" data-name="East Feliciana Parish" d="M2116,1601l-21,39 1,5 10,75 -3,6 0,59 0,23 -2,0 -258,12 -6,8 -20,32 0,1 0,-1 -3,0 -5,-35 53,-84 25,-121 6,-19Z"/>
    <path data-fips-int="22039" data-name="Evangeline Parish" d="M1128,1598l2,3 61,24 -1,21 43,66 25,59 0,69 -18,15 -7,64 -33,23 -105,0 -7,1 -3,0 -10,7 -3,7 -2,8 2,1 -9,6 -5,3 0,2 0,-2 0,2 -6,6 -88,-1 1,-5 -1,0 1,0 19,-38 5,-265 36,-2 10,3 2,2 1,-2 4,0 21,-42 49,-31 3,-1Z"/>
    <path data-fips-int="22041" data-name="Franklin Parish" d="M1704,557l1,64 -36,20 25,64 1,84 -25,100 10,22 -39,35 -15,-66 -32,0 -52,66 -46,-10 -25,-47 -5,0 -23,-10 -7,-19 -8,-47 23,-21 -10,-49 50,-50 26,-28 5,-56 84,-52Z"/>
    <path data-fips-int="22043" data-name="Grant Parish" d="M1143,1007l17,25 -20,77 -12,29 50,22 18,64 52,20 -296,63 -35,-95 -52,-61 -68,-21 5,-26 -45,-37 223,2 2,-64Z"/>
    <path data-fips-int="22045" data-name="Iberia Parish" d="M1433,2615l35,3 44,42 40,12 -50,55 -38,3 -118,-66 18,-30ZM1772,2300l65,0 28,24 -20,41 -140,11 -98,9 -56,73 -93,80 -17,-6 35,-61 -57,9 -36,-14 -14,-113 19,-38 8,-27 87,23 34,-49 64,-2 41,58 58,0 15,-18Z"/>
    <path data-fips-int="22047" data-name="Iberville Parish" d="M1689,1974l8,0 107,114 5,15 108,0 78,0 -55,194 -75,27 -28,-24 -65,0 -13,-32 -47,0 -8,-94 -57,-10 -55,-93 15,-25 -48,-72Z"/>
    <path data-fips-int="22049" data-name="Jackson Parish" d="M1178,650l0,98 -316,-7 25,-77 0,-148 98,1 0,-32 130,2 0,66 63,64Z"/>
    <path data-fips-int="22053" data-name="Jefferson Davis Parish" d="M965,2100l0,67 22,39 -23,65 -70,40 -2,0 -166,-3 0,-32 70,0 -9,-20 5,-35 -65,0 0,-78 -21,0 0,-88 -63,-2 0,-17 0,-15 43,-10 184,3 2,-39 92,2 1,0 -1,5 23,47 -23,30Z"/>
    <path data-fips-int="22055" data-name="Lafayette Parish" d="M1374,2068l25,69 -16,12 33,55 10,24 -30,60 -8,27 -65,-27 -15,-41 -27,9 -98,-25 12,-6 10,-10 0,-2 0,2 0,-2 1,-24 70,-69 65,-53Z"/>
    <path data-fips-int="22059" data-name="La Salle Parish" d="M1366,1358l-50,-7 -1,-2 -67,-105 -52,-20 -18,-64 -50,-22 12,-29 20,-77 -17,-25 15,-22 9,-24 1,-2 2,-21 1,-2 5,-27 193,2Z"/>
    <path data-fips-int="22061" data-name="Lincoln Parish" d="M1117,421l-2,66 -130,-2 0,32 -98,-1 -63,-2 0,-97 10,-67 25,-61 65,0 93,11 21,19 14,35 65,2Z"/>
    <path data-fips-int="22063" data-name="Livingston Parish" d="M2284,1858l0,122 22,49 10,7 12,26 4,8 60,58 -53,17 -31,44 -64,-11 -46,26 -107,-116 -13,-1 -47,-32 -11,-150 11,-7 2,-2 0,2 -2,0 2,0 0,-2 32,-35Z"/>
    <path data-fips-int="22065" data-name="Madison Parish" d="M1925,699l-10,-28 -60,29 -35,-6 -18,12 -108,-1 -25,-64 36,-20 -1,-64 -7,-53 18,-46 203,0 39,-18 38,33 -17,20 -35,-44 -15,43 22,32 73,10 -25,52 60,18 -55,112 -21,-39Z"/>
    <path data-fips-int="22067" data-name="Morehouse Parish" d="M1729,111l0,1 0,2 0,-2 0,2 -9,7 -28,75 -30,11 -38,65 5,29 -27,61 -21,41 -52,38 -22,-3 -31,31 -28,-16 -20,28 -12,-113 -45,-36 -28,-11 -7,-2 5,-41 -15,-85 8,-87Z"/>
    <path data-fips-int="22069" data-name="Natchitoches Parish" d="M784,740l32,125 -15,97 -29,-4 0,50 -15,59 45,37 -5,26 68,21 52,61 -98,72 -48,53 -22,0 0,-3 -43,-14 -118,-1 1,-128 -65,0 2,-131 -65,-2 2,-97 2,-49 54,-14 24,32 48,-10 2,-51 71,2 -21,-29 0,-2 0,2 0,-2 0,-4 15,-26 -30,-73Z"/>
    <path data-fips-int="22071" data-name="Orleans Parish" d="M2891,2219l-66,72 8,24 -63,-12 -27,32 -43,11 -41,0 -14,33 60,22 5,33 -61,-18 -34,-37 -51,20 18,-203 72,31 63,-35 66,32 29,-20Z"/>
    <path data-fips-int="22073" data-name="Ouachita Parish" d="M1343,321l28,11 45,36 12,113 -59,102 -16,69 -175,-2 0,-33 -63,-64 0,-66 2,-66 89,4 114,-78 16,-28Z"/>
    <path data-fips-int="22077" data-name="Pointe Coupee Parish" d="M1586,1605l-2,17 -3,69 25,29 46,-5 2,-53 25,36 -15,57 -38,32 35,13 111,-12 23,66 15,7 -58,60 -10,42 -45,11 -8,0 -130,0 -37,0 17,-126 -20,-84 -31,-51 3,-96 38,-30Z"/>
    <path data-fips-int="22079" data-name="Rapides Parish" d="M1248,1244l67,105 1,2 -1,-2 -47,29 -40,-23 -7,145 15,125 -45,0 -61,-24 -2,-3 -13,3 -3,1 -49,31 -21,42 -4,0 -1,2 -2,-2 -10,-3 -36,2 -145,3 0,-271 -32,-48 -63,-21 0,-3 0,3 22,0 48,-53 98,-72 35,95Z"/>
    <path data-fips-int="22081" data-name="Red River Parish" d="M616,706l12,31 30,73 -15,26 0,4 0,2 0,-2 0,2 21,29 -71,-2 -2,51 -48,10 -24,-32 -54,-44 -22,-50 -40,-37 20,-21 -13,-46 -50,-32 90,2 26,1 135,2Z"/>
    <path data-fips-int="22083" data-name="Richland Parish" d="M1720,426l-5,32 -18,46 7,53 -98,0 -84,52 -5,56 -26,28 -50,50 -72,-37 10,-54 -26,0 16,-69 59,-102 20,-28 28,16 31,-31 22,3 52,-38 21,-41 24,0 5,64Z"/>
    <path data-fips-int="22085" data-name="Sabine Parish" d="M463,961l-2,97 65,2 -2,131 65,0 -1,128 -98,-2 -35,67 -59,-1 -11,29 1,6 -1,32 -25,14 -32,-77 -28,-27 13,-38 -15,-63 -35,-22 25,-32 -43,-10 -38,-53 31,-79 -16,-55 -35,-52Z"/>
    <path data-fips-int="22089" data-name="Saint Charles Parish" d="M2507,2567l-76,0 -17,-49 -67,-37 -43,-59 2,-93 56,-12 110,-148 0,195 27,78 46,41Z"/>
    <path data-fips-int="22091" data-name="Saint Helena Parish" d="M2281,1599l3,259 -219,3 3,-4 33,-49 2,0 0,-23 0,-59 3,-6 -10,-75 -1,-5 21,-39Z"/>
    <path data-fips-int="22093" data-name="Saint James Parish" d="M2231,2423l-83,-22 -65,12 -48,-54 -4,-64 0,-1 32,-35 175,-41 -12,87 -15,9Z"/>
    <path data-fips-int="22095" data-name="Saint John the Baptist Parish" d="M2472,2169l-110,148 -56,12 -2,93 -73,1 -20,-109 15,-9 12,-87 6,-40 64,11 31,-44 53,-17 67,-6Z"/>
    <path data-fips-int="22097" data-name="Saint Landry Parish" d="M1488,1713l31,51 20,84 -17,126 49,76 -85,0 -37,-17 -75,35 -33,-1 -65,53 -21,-38 0,-64 -44,0 -1,-33 -158,-2 6,-6 0,-2 0,2 0,-2 5,-3 9,-6 -2,-1 2,-8 3,-7 10,-7 3,0 7,-1 105,0 33,-23 7,-64 18,-15 0,-69 -25,-59Z"/>
    <path data-fips-int="22099" data-name="Saint Martin Parish" d="M1945,2567l-73,-38 -88,-11 -42,-105 -37,-37 140,-11 47,93 58,32ZM1772,2300l-77,0 -15,18 -58,0 -41,-58 -64,2 -34,49 -87,-23 30,-60 -10,-24 -33,-55 16,-12 -25,-69 75,-35 37,17 85,0 -49,-76 37,0 48,72 -15,25 55,93 57,10 8,94 47,0Z"/>
    <path data-fips-int="22103" data-name="Saint Tammany Parish" d="M2747,1841l21,74 78,79 4,41 36,49 10,85 32,30 -37,20 -79,-15 -29,20 -66,-32 -63,35 -72,-31 -88,-22 -3,-278 0,-1 0,1 -2,-1 2,0 -2,0 0,-6 0,-3 -2,-13 2,-10 2,-3 -2,0 2,0 -2,-2 0,2 0,-2 -2,-3 -1,0 1,0 -1,0 0,-27 -4,-17 162,32Z"/>
    <path data-fips-int="22105" data-name="Tangipahoa Parish" d="M2422,1598l0,70 20,10 34,102 1,4 2,0 -2,0 2,0 3,27 4,17 0,27 1,0 -1,0 1,0 2,3 0,2 0,-2 2,2 -2,0 2,0 -2,3 -2,10 2,13 0,3 0,6 2,0 -2,0 2,1 0,-1 0,1 3,278 -22,-5 -13,-47 -67,6 -60,-58 -4,-8 -12,-26 -10,-7 -22,-49 0,-122 -3,-259Z"/>
    <path data-fips-int="22107" data-name="Tensas Parish" d="M1925,699l-27,13 2,48 70,6 13,1 -43,55 -2,43 -40,6 -8,47 -57,44 -49,13 -10,60 50,-9 5,22 -65,7 1,-10 -108,-3 -18,-32 2,-64 39,-35 -10,-22 25,-100 -1,-84 108,1 18,-12 35,6 60,-29Z"/>
    <path data-fips-int="22111" data-name="Union Parish" d="M1334,106l-8,87 15,85 -5,41 -16,28 -114,78 -89,-4 0,-65 -65,-2 -14,-35 -21,-19 -93,-11 1,-189Z"/>
    <path data-fips-int="22113" data-name="Vermilion Parish" d="M1183,2231l98,25 27,-9 15,41 65,27 -19,38 14,113 -4,26 -108,61 5,-40 -50,16 44,38 25,64 23,10 -115,43 -41,4 -197,-36 5,-341 -76,0 -2,0 2,0 70,-40 53,-11 38,32 47,11 41,-30Z"/>
    <path data-fips-int="22115" data-name="Vernon Parish" d="M749,1334l0,3 63,21 32,48 0,271 0,11 -98,-4 -288,-7 -48,9 -12,-8 -7,-1 -11,3 0,-2 0,2 0,-2 -4,8 19,-69 -27,-9 42,-41 -27,-38 2,-79 1,-32 -1,-6 11,-29 59,1 35,-67 98,2 118,1Z"/>
    <path data-fips-int="22117" data-name="Washington Parish" d="M2747,1841l-103,2 -162,-32 -3,-27 -2,0 2,0 -2,0 -1,-4 -34,-102 -20,-10 0,-70 378,-6 -2,42 -33,114Z"/>
    <path data-fips-int="22119" data-name="Webster Parish" d="M606,92l-3,224 31,0 4,48 0,51 18,96 -57,0 0,32 -85,-1 -43,0 4,-261 -17,0 13,-71 -48,-90 10,-20 -3,-12Z"/>
    <path data-fips-int="22121" data-name="West Baton Rouge Parish" d="M1917,2103l-108,0 -5,-15 -107,-114 45,-11 10,-42 58,-60 -15,-7 19,6 3,0 0,1 -7,57 65,38 7,67 -25,65Z"/>
    <path data-fips-int="22123" data-name="West Carroll Parish" d="M1837,111l-48,105 -2,85 -35,41 0,63 -32,21 -89,0 -5,-64 -24,0 27,-61 -5,-29 38,-65 30,-11 28,-75 9,-7 0,-2 0,2 0,-2 0,-1Z"/>
    <path data-fips-int="22125" data-name="West Feliciana Parish" d="M1887,1620l-25,121 -53,84 5,35 -19,-6 -23,-66 -111,12 -35,-13 38,-32 15,-57 -25,-36 -2,53 -46,5 -25,-29 3,-69 17,-21 292,0ZM1586,1605l-57,-18 17,-20 40,0Z"/>
    <path data-fips-int="22127" data-name="Winn Parish" d="M862,741l316,7 -2,161 -5,27 -1,2 -2,21 -1,2 -9,24 -15,22 -161,-2 -2,64 -223,-2 15,-59 0,-50 29,4 15,-97 -32,-125Z"/>
    <path data-fips-int="22075" data-name="Plaquemines Parish" d="M2845,2798l56,22 -38,36 -85,-11ZM2886,2594l-5,18 -56,14 28,56 48,40 22,-14 28,35 7,48 43,-14 58,11 -11,24 33,17 30,-19 33,38 35,-28 35,38 25,108 28,35 -58,12 -28,38 -38,-65 0,39 -104,101 74,-139 21,-14 -33,-61 -22,63 -15,-63 -48,26 -40,-50 25,-6 -18,-47 -72,-20 -26,-27 -92,3 -15,-22 0,-30 -36,7 -37,-36 -33,29 -2,-95 -58,-111 0,-72 37,-45 61,18 28,56 37,-6 12,29 59,6 14,28 68,35 5,0 5,3Z"/>
    <path data-fips-int="22087" data-name="Saint Bernard Parish" d="M3023,2378l15,27 30,26 -42,40 48,18 -36,14 -67,-45 42,60 -18,35 -37,-43 -17,19 -63,-10 2,31 48,32 5,0 15,9 -7,-6 -3,0 -5,-3 -5,0 -68,-35 -14,-28 -59,-6 -12,-29 -37,6 -28,-56 -5,-33 -60,-22 14,-33 41,0 43,-11 25,50 49,-1 43,52 58,-19 8,-80 55,-35 33,6 -16,32 45,18Z"/>
    <path data-fips-int="22109" data-name="Terrebonne Parish" d="M1858,2812l14,35 35,0 -7,62 -22,13 -48,-20 -38,-46ZM2284,2905l-20,23 -18,-9 -47,68 -38,23 -43,-26 -32,14 -38,-34 23,-33 30,9 34,-29 -82,-21 -15,-55 -43,35 30,18 -47,56 10,-56 -36,59 -29,-36 2,-40 50,-6 23,-33 -63,36 -7,-30 -48,-29 -10,-44 -27,-9 -5,-68 34,-38 85,-29 48,-67 81,-1 0,-21 50,-20 24,55 38,21 36,49 175,173 -8,80 -22,-64 -33,50 -18,-47 -10,50 -49,-24Z"/>
    <path data-fips-int="22057" data-name="Lafourche Parish" d="M2627,2762l-2,77 -20,19 2,-2 -20,23 32,49 -2,3 -13,20 0,4 -4,2 -85,62 -26,-40 -30,-97 -23,-31 -42,69 0,-11 0,-4 3,-9 0,-3 2,0 2,-3 8,-80 -175,-173 -36,-49 -38,-21 -24,-55 -50,20 0,21 -81,1 43,-64 35,-77 65,-12 83,22 73,-1 43,59 67,37 17,49 76,0 37,6 8,83 -28,5 -12,46Z"/>
    <path data-fips-int="22051" data-name="Jefferson Parish" d="M2582,2196l-18,203 51,-20 34,37 -37,45 0,72 58,111 2,95 -13,-20 -114,-56 39,-28 -10,-53 -30,-9 -37,-6 38,-84 -46,-41 -27,-78 0,-195 22,5Z"/>
    <path data-fips-int="22101" data-name="Saint Mary Parish" d="M1945,2567l12,54 -85,29 -40,57 -12,4 -30,9 -45,-44 -89,25 14,-19 -21,-70 -43,8 3,-79 -73,-11 -80,34 2,-26 93,-80 56,-73 98,-9 37,37 42,105 88,11Z"/>
  </g>
  <g class="cities">
    <circle r="3" cx="260.4" cy="237.2"/>
    <text x="260.4" y="237.2">New Orleans</text>
    <circle r="3" cx="190.9" cy="200.9"/>
    <text x="190.9" y="200.9">Baton Rouge</text>
    <circle r="3" cx="26.7" cy="46.6"/>
    <text x="26.7" y="46.6">Shreveport</text>
  </g>
</svg>