<?xml version="1.0" encoding="utf-8"?>
<!DOCTYPE svg PUBLIC "-//W3C//DTD SVG 1.1//EN" "http://www.w3.org/Graphics/SVG/1.1/DTD/svg11.dtd">
<svg version="1.1" xmlns="http://www.w3.org/2000/svg" width="1000" height="916" viewBox="0 0 1000 916">
  <path class="state" d="M541,456h110l40,-1h30l83,-2 -3,17 -4,5 -9,26 -4,24 10,26 21,21 -1,8 5,11 8,28 7,8 8,-3 -9,9h-7l-10,10v7l-9,3 2,8 -18,-4 -8,9 8,15 13,-2 8,13 17,2 8,-20 -2,-6 16,-11 1,-7 8,3 -2,22 5,3 -4,6 9,2 14,6 -18,13 14,5 -12,5 -9,-12 -2,6 5,9 -5,4 9,7 -6,3 -13,-15 -6,5 -18,-3v8l21,11h-3l-15,2 -1,5 -16,5 12,14 -3,2 23,12v17l11,2 7,-5 16,3 -2,9 21,-1 10,9 6,-7 14,18 -4,4 10,10 -3,9 11,5h-13v10l-16,8 -10,-16v12l-17,15 -7,12 -2,-6 20,-28 3,-20 -6,-6 -11,10 -2,-11 -7,8 -6,-1 -12,-13 -3,4 -14,-4 24,-2 -1,-10 -9,-8 -15,-1 -2,-10 -31,3 -5,-6 -6,-1 -1,-12 -5,6 -8,-12 -4,10h-7l-27,-19 -10,-2 12,-10 -1,-14 -11,-2 -1,13 4,10h-8l-4,12 16,13 18,1 -1,4 -4,19 4,4 7,7 -13,-2 -5,6 9,13 -5,9 -12,11 -16,6 2,-8 -6,-3 3,-1 -10,-24 -9,-13 -6,7v11l-5,3v-8h1v-11l-5,-8 -13,13 1,-12 -5,-2 -1,16 -14,-6 4,14 -6,7 -4,-3 -14,20 -13,5 -10,-7 -11,4 -9,-9 6,-9 9,2 9,-10 -13,-1 -9,-8 4,-9 -9,-2 -10,6 15,12 -13,2 -9,12h-8l-7,-7 -1,-14 17,-4 4,-8h-14l8,9 -10,2 -4,-10 -12,-6 -5,-15 -6,-2 -2,-18 9,-11 -9,8 -3,8 -12,4 -1,-5 -22,-7h-10l-6,-20 -16,2 4,-6v-18l-18,1 -11,-1 -12,8 -2,-7 -4,-1 10,-18 -14,-1 -3,4 -11,-4 -1,7 -25,12 -1,-4 -15,1 10,13 6,17h19l-11,3 5,4h-21l-20,10 -64,-10 -35,-13 -40,-20 -36,-12 -23,5 -18,-3 -41,3 -15,3 -18,10 -15,-27 10,-7 11,-14 5,-16 13,-13 4,-12v-38l-11,-8 4,-16 9,-7 -5,-30 8,-5v-9l9,-6 4,-15 12,-19 -1,-7 -3,-5 9,-8 -9,-10 1,-8 9,-2v-12h-5l3,-10 -3,-12 -7,4 -4,-23h-5l-5,-11 1,-15 -6,-4 2,-6 -10,-6 6,-10 -13,-3 -8,-17 3,-2v-34l-11,-15 -3,-10 -14,-7 -10,-15v-103l4,-115 41,1 52,1 51,1 90,3 118,2h95l17,1h49l-7,9 -1,9h14l-1,-12 8,-2 5,17 -14,16 -1,19 16,4 -2,7 -14,9 3,13 15,-4 4,-9 2,10 -10,8 -1,3 16,10 -9,2 -10,-12 -4,15 16,9 8,-3 3,6 -7,13 16,4 -1,9h-11l-1,20 -10,-8 -15,6 -5,2 -3,13 12,4h10l-1,-12 9,4 -4,8 -10,9 1,7 -10,-7 -3,7 12,4 -4,8 -11,2 -3,13 -15,15 -15,1 -1,19 13,-4 1,7 -18,1 -4,10v15l-7,1 -11,-7 -3,8 7,6 13,-2v4l-13,9h-7v17l9,12 -7,6 -6,-13h-6l4,17 8,7 -2,8 -19,2 -6,5 12,14 -7,13 11,10v6l-13,8 58,1ZM409,745l10,2 13,11 12,4 -12,7v8l-10,3 -37,-19 6,-10h10ZM812,799h12l5,6 -10,8 -25,-1ZM889,649l7,-10 3,12ZM576,833l7,5 -5,7 -8,-1 3,-15ZM530,803l8,12 7,-3 -2,19 -6,3 -16,-7 -10,-10 9,-2 4,-10Z"/>
  <g class="counties">
    <path data-fips-int="22001" data-name="Acadia Parish" d="M300,566h46v10h12v18l6,11 -6,12h-6l-14,19 -18,19h-17l-11,-11 -16,4v-12l6,-12 -6,-5 1,-33 4,-10 -7,-11Z"/>
    <path data-fips-int="22003" data-name="Allen Parish" d="M276,564l-27,-1v12l-53,-1 -13,2 1,-36h28l1,-59h28v-3l19,-2 22,1 -1,67 3,3Z"/>
    <path data-fips-int="22005" data-name="Ascension Parish" d="M593,596l11,3 3,10 13,8 6,12 15,-8 -2,12 -43,10 -16,12 -20,-4 -6,5 3,-20 3,-1 9,-35 5,-4Z"/>
    <path data-fips-int="22007" data-name="Assumption Parish" d="M580,655l1,18h6v10l8,-1v7l-8,17 -15,23 -13,19 -4,-16 1,-23 -15,-7 -14,-27 5,-12 22,-7 6,-5Z"/>
    <path data-fips-int="22009" data-name="Avoyelles Parish" d="M390,387l4,22 10,-2 -1,-13 7,-1 11,7 4,6 14,8h10l-5,9 -3,24 -5,6 -8,7 -3,28h-73l-12,-18v-7h12l-3,-29v-47l8,-1 4,6 14,-7 12,-2Z"/>
    <path data-fips-int="22011" data-name="Beauregard Parish" d="M213,481l-1,59h-28l-1,36v4h-47l2,-18h-19v18l-48,-1 9,-7 -5,-30 8,-5v-9l9,-6 4,-15 12,-19 -1,-7 14,1 10,-4 53,1Z"/>
    <path data-fips-int="22013" data-name="Bienville Parish" d="M236,118l-1,28h19v47l-5,5 -3,13h-67l-4,-20h-39l4,-2 -4,-14 5,-11 -3,-8 8,-2 25,1v-10h16l-5,-28Z"/>
    <path data-fips-int="22015" data-name="Bossier Parish" d="M122,24l1,18 8,5 -2,6 6,26 -1,57 1,18h11l-8,2 3,8 -5,11 4,14 -4,2h-9l-7,-8 -2,-10 -16,-7 -2,-10 -8,-6 -3,-15 -12,-10 6,-10 -12,-30 4,-28 -7,-5 3,-11 -1,-18Z"/>
    <path data-fips-int="22017" data-name="Caddo Parish" d="M70,23l1,18 -3,11 7,5 -4,28 12,30 -6,10 12,10 3,15 8,6 2,10 16,7 2,10 7,8 -25,-1v-9l-9,-9 -9,1 -13,-7 -10,11 -2,8 -16,13h-18v-61l4,-115Z"/>
    <path data-fips-int="22019" data-name="Calcasieu Parish" d="M183,580v6h18v25h6v22h19l-3,8 4,9h-20v8h-25v-3h-51l-57,-2 4,-12v-38l-11,-8 4,-16 48,1v-18h19l-2,18Z"/>
    <path data-fips-int="22021" data-name="Caldwell Parish" d="M412,211l3,13 -10,4 6,7 1,15 -2,9h-75l1,-47v-28l49,1h8l3,23Z"/>
    <path data-fips-int="22023" data-name="Cameron Parish" d="M207,658l48,1h22v84l-1,14 -35,-13 -40,-20 -36,-12 -23,5 -18,-3 -41,3 -15,3 -18,10 -15,-27 10,-7 11,-14 5,-16 13,-13 57,2h51v3Z"/>
    <path data-fips-int="22025" data-name="Catahoula Parish" d="M469,269l-1,18 6,10v6l-11,-9 -6,8h-11l-1,18 -7,6 -6,-7 -9,10v7l9,7 -5,10 12,4 1,8 -14,-2 -2,-10 -7,-2v15l15,10h-12l-5,14 8,3 -2,7 -11,-7 -7,1 1,13 -10,2 -4,-22 1,-50v-78h19l2,-9 8,3 7,13 14,3 10,-9 4,-9h10v18Z"/>
    <path data-fips-int="22027" data-name="Claiborne Parish" d="M263,28v54h-18v9l-7,5 -2,22 -54,-1 -1,-28h-9l1,-64Z"/>
    <path data-fips-int="22029" data-name="Concordia Parish" d="M474,297l30,1v2l-4,10v15l-7,1 -11,-7 -3,8 7,6 13,-2v4l-13,9h-7v17l9,12 -7,6 -6,-13h-6l4,17 8,7 -2,8 -19,2 -6,5 12,14 -7,13 11,10v6l-13,8 -5,6 1,-4 2,-10 -14,-1 3,-24 5,-9h-10l-14,-8 -4,-6 2,-7 -8,-3 5,-14h12l-15,-10v-15l7,2 2,10 14,2 -1,-8 -12,-4 5,-10 -9,-7v-7l9,-10 6,7 7,-6 1,-18h11l6,-8 11,9Z"/>
    <path data-fips-int="22031" data-name="De Soto Parish" d="M102,190l3,6 12,3 4,14 -7,5 12,11 6,14 8,1 8,12 -15,2 -1,16 -80,-2 -3,-10 -14,-7 -10,-15v-42h18l16,-13 2,-8 10,-11 13,7 9,-1 9,9Z"/>
    <path data-fips-int="22033" data-name="East Baton Rouge Parish" d="M589,531l-12,11 -2,27 10,22 8,5h-19l-5,4h-21l-10,-5 -7,1 -1,-7 7,-9v-20l-15,2 7,-8 -4,-7h-10l4,-16 8,-12 73,-4h1h-1v5Z"/>
    <path data-fips-int="22035" data-name="East Carroll Parish" d="M559,125l-14,5h-55l2,-9 8,-5v-19l10,-14v-22l5,-1 3,-18 7,-11h17l-7,9 -1,9h14l-1,-12 8,-2 5,17 -14,16 -1,19 16,4 -2,7 -14,9 3,13 15,-4 4,-9 2,10Z"/>
    <path data-fips-int="22037" data-name="East Feliciana Parish" d="M605,456l-6,11 3,21 -1,20v7h-1l-73,4 -8,12 -1,-1 -3,-10 5,-3 11,-21 6,-28 4,-12Z"/>
    <path data-fips-int="22039" data-name="Evangeline Parish" d="M340,463v7l12,18 1,13 6,4v20l-5,3 -2,20h-9l-1,6h-31l-11,12 -26,-1 2,-1 8,-17 -3,-3 1,-67 16,1 5,-12 13,-9Z"/>
    <path data-fips-int="22041" data-name="Franklin Parish" d="M487,158l4,8 -7,2 3,9 -10,3 -4,20 11,1 -4,23 4,1 -7,28 3,6 -11,10h-4v-18h-10l-4,9 -10,9 -14,-3 -7,-13 -8,-3 -1,-15 -6,-7 10,-4 -3,-13 9,-4 5,-10 7,-6 2,-18 11,-2 1,-6 11,-7Z"/>
    <path data-fips-int="22043" data-name="Grant Parish" d="M327,286l2,21 -6,18 13,6 5,20 15,3 -37,8 -35,9 -19,-1 2,-10 -7,-14 -14,-19 -19,-5 2,-8 -11,-3 -2,-7 64,1v-19Z"/>
    <path data-fips-int="22045" data-name="Iberia Parish" d="M506,657h19l7,6 -5,12 -40,3 -28,1 -17,24 -26,21 -4,-1 10,-18 -14,-1 -3,4 -11,-4 -2,-26 4,-17 3,-8 13,1 11,5 13,-16 16,2 11,17h17l4,-5ZM409,745l10,2 13,11 12,4 -12,7v8l-10,3 -37,-19 6,-10h10Z"/>
    <path data-fips-int="22047" data-name="Iberville Parish" d="M485,563l5,4 25,33h54l-9,35 -3,1 -3,20 -22,7 -7,-6h-19l-4,-11h-13l-3,-27 -17,-2 -10,-14 -3,-28 -11,-12Z"/>
    <path data-fips-int="22049" data-name="Jackson Parish" d="M336,184v28l-90,-1 3,-13 5,-5v-47h27v-9l37,1v19l18,18Z"/>
    <path data-fips-int="22053" data-name="Jefferson Davis Parish" d="M276,648l-2,4 -19,7 -48,-1v-8h20l-4,-9 3,-8h-19v-22h-6v-25h-18v-10l13,-2 53,1v-12l27,1 -2,1 7,11 -4,10 -1,33 6,5 -6,12Z"/>
    <path data-fips-int="22055" data-name="Lafayette Parish" d="M393,590l6,2 -3,7 3,11 -6,20h13v7l-7,16 -3,8 -20,-10 -3,-10 -7,2 -12,-5 -16,-2 14,-19h6l6,-12 10,-8 6,-10Z"/>
    <path data-fips-int="22059" data-name="La Salle Parish" d="M390,387l-3,-4 -12,2 3,-1 -16,-19 -6,-11 -15,-3 -5,-20 -13,-6 6,-18 -2,-21 4,-3 4,-24h56v78Z"/>
    <path data-fips-int="22061" data-name="Lincoln Parish" d="M318,120v18l-37,-1v9h-46l1,-28 2,-22 7,-5v-9h36l19,8v11h18Z"/>
    <path data-fips-int="22063" data-name="Livingston Parish" d="M652,530v35l4,11 6,4 2,11 19,16h1h-1l-16,5 -10,14 -16,-5 -15,8 -6,-12 -13,-8 -3,-10 -11,-3 -8,-5 -10,-22 2,-27 12,-11 2,-1Z"/>
    <path data-fips-int="22065" data-name="Madison Parish" d="M549,199l-1,-8 -11,1 -8,7 -7,-3 -8,5h-30l-11,-1 4,-20 10,-3 -3,-9 7,-2 -4,-8 -2,-21 5,-7h55l14,-5 -1,3 16,10 -9,2 -10,-12 -4,15 16,9 8,-3 3,6 -7,13 16,4 -1,9h-11l-1,20 -10,-8ZM567,218h-4l-1,-12 9,4Z"/>
    <path data-fips-int="22067" data-name="Morehouse Parish" d="M493,31l-13,27h-6l-10,18 1,10 -6,5 -2,12 -5,11h-7l-7,11 -10,-2 -11,10 -6,-3 -3,7 -3,-18 3,-16h-6l-4,-9 -13,4 -4,-8 3,-14 -6,-17v-21l3,-8h95Z"/>
    <path data-fips-int="22069" data-name="Natchitoches Parish" d="M223,211l7,13 3,14 -3,35h-10v15l-4,16 2,7 11,3 -2,8 19,5 14,19 -16,15 -10,5 -8,11 -12,4 -10,-4 -37,-1 1,-37h-18v-37l-18,-1v-27l1,-16 15,-2 2,8 19,-2v-15l21,1 -7,-12 5,-7 -9,-18Z"/>
    <path data-fips-int="22071" data-name="Orleans Parish" d="M826,633l-10,10v7l-9,3 2,8 -18,-4 -8,9 -24,4 -3,9 13,4 5,12 -7,-7 -11,2 -8,-11 -15,7 2,-13 3,-46 20,9 23,-12 12,11 11,-6Z"/>
    <path data-fips-int="22073" data-name="Ouachita Parish" d="M408,137l-16,26 -7,22 -49,-1v-9l-18,-18v-37h28l29,-21 6,-9 4,8 13,-4 4,9h6l-3,16Z"/>
    <path data-fips-int="22077" data-name="Pointe Coupee Parish" d="M453,458l-1,4 3,8 -2,18 18,2 -2,-12 -8,-4h13l5,8 -4,19 -10,5 9,8 11,-4 6,3 13,-5 8,20 3,6 -15,14 -3,12 -12,3h-50l4,-45 -7,-17 -6,-4 -1,-9 3,-28 8,-7h15Z"/>
    <path data-fips-int="22079" data-name="Rapides Parish" d="M356,354l6,11 16,19 -3,1 -14,7 -4,-6 -8,1v47l3,29h-12l-24,-6 -13,9 -5,12 -16,-1 -22,-1 -19,2 -1,-77 -8,-8v-6l-18,-6 12,-4 8,-11 10,-5 16,-15 7,14 -2,10 19,1 35,-9Z"/>
    <path data-fips-int="22081" data-name="Red River Parish" d="M179,211l9,18 -5,7 7,12 -21,-1v15l-19,2 -2,-8 -8,-12 -8,-1 -6,-14 -12,-11 7,-5 -4,-14 -12,-3 -3,-6 25,1h48Z"/>
    <path data-fips-int="22083" data-name="Richland Parish" d="M492,121l-2,9 -5,7 2,21h-29l-11,7 -1,6 -11,2 -2,18 -7,6 -5,10 -9,4 -16,-3 -3,-23h-8l7,-22 16,-26 3,-7 6,3 11,-10 10,2 7,-11h7l5,-11h8v18Z"/>
    <path data-fips-int="22085" data-name="Sabine Parish" d="M132,274v27l18,1v37h18l-1,37h-27l-11,18h-16l-4,20 -7,4 -4,-23h-5l-5,-11 1,-15 -6,-4 2,-6 -10,-6 6,-10 -13,-3 -8,-17 3,-2v-34l-11,-15Z"/>
    <path data-fips-int="22089" data-name="Saint Charles Parish" d="M716,733h-21l-6,-15 -18,-8 -5,-13 -8,-6 1,-27 16,-3 31,-43v60l3,12 8,9 10,6Z"/>
    <path data-fips-int="22091" data-name="Saint Helena Parish" d="M651,456l1,8v66h-61l-2,1 11,-11v-5h1v-7l1,-20 -3,-21 6,-11Z"/>
    <path data-fips-int="22093" data-name="Saint James Parish" d="M637,691l-24,-6 -18,4v-7l-8,1v-10h-6l-1,-18 16,-12 43,-10 -3,24 -5,2Z"/>
    <path data-fips-int="22095" data-name="Saint John the Baptist Parish" d="M706,618l-31,43 -16,3 -1,27h-21l-6,-32 5,-2 3,-24 2,-12 16,5 10,-14 16,-5h1l19,-2Z"/>
    <path data-fips-int="22097" data-name="Saint Landry Parish" d="M425,488l1,9 6,4 7,17 -4,45 15,22h-25l-8,-5 -13,4 -10,-2 -1,8 -13,-3 -6,10 -10,8 -6,-11v-18h-12v-10h-46l11,-12h31l1,-6h9l2,-20 5,-3v-20l-6,-4 -1,-13Z"/>
    <path data-fips-int="22099" data-name="Saint Martin Parish" d="M555,732l-6,-5 -46,-12 2,-12 -8,-14 -10,-11 40,-3 14,27 15,7ZM506,657h-22l-4,5h-17l-11,-17 -16,-2 -13,16 -11,-5 -13,-1 7,-16v-7h-13l6,-20 -3,-11 3,-7 -6,-2 1,-8 10,2 13,-4 8,5h25l-15,-22h10l11,12 3,28 10,14 17,2 3,27h13Z"/>
    <path data-fips-int="22103" data-name="Saint Tammany Parish" d="M784,525l10,26 21,21 -1,8 5,11 8,28 7,8 8,-3 -9,9h-7l-22,-4 -11,6 -12,-11 -23,12 -20,-9 -26,-7v-50l-2,-41 -1,-9v-4l46,10Z"/>
    <path data-fips-int="22105" data-name="Tangipahoa Parish" d="M691,455l1,20 6,4 4,17 5,8 2,12v4l1,9 2,41v50l-6,-2 -3,-13 -19,2h-1l-19,-16 -2,-11 -6,-4 -4,-11v-101l-1,-8Z"/>
    <path data-fips-int="22107" data-name="Tensas Parish" d="M549,199l-5,2 -3,13 12,4h14l-10,9 1,7 -10,-7 -3,7 12,4 -4,8 -11,2 -3,13 -15,15 -15,1 -1,19 13,-4 1,7 -18,1v-2l-30,-1 -6,-10 1,-18 11,-10 -3,-6 7,-28 -4,-1 4,-23h30l8,-5 7,3 8,-7 11,-1Z"/>
    <path data-fips-int="22111" data-name="Union Parish" d="M381,30l-3,8v21l6,17 -3,14 -6,9 -29,21h-28v-19h-18v-11l-19,-8h-18v-54Z"/>
    <path data-fips-int="22113" data-name="Vermilion Parish" d="M338,636l16,2 12,5 7,-2 3,10 20,10 -4,17 2,26 -1,7 -25,12 -1,-4 -15,1 10,13 6,17h19l-11,3 5,4h-21l-20,10 -64,-10 1,-14v-84h-22l19,-7 2,-4 16,-4 11,11h17Z"/>
    <path data-fips-int="22115" data-name="Vernon Parish" d="M214,381l18,6v6l8,8 1,77v3h-28l-29,-2 -53,-1 -10,4 -14,-1 -3,-5 9,-8 -9,-10 1,-8 9,-2v-12h-5l3,-10 -3,-12 4,-20h16l11,-18h27l37,1Z"/>
    <path data-fips-int="22117" data-name="Washington Parish" d="M784,525l-29,1 -46,-10 -2,-12 -5,-8 -4,-17 -6,-4 -1,-20h30l83,-2 -3,17 -4,5 -9,26Z"/>
    <path data-fips-int="22119" data-name="Webster Parish" d="M173,25l-1,64h9l1,28 5,28h-16v10l-25,-1h-11l-1,-18 1,-57 -6,-26 2,-6 -8,-5 -1,-18Z"/>
    <path data-fips-int="22121" data-name="West Baton Rouge Parish" d="M548,600h-33l-25,-33 -5,-4 12,-3 3,-12 15,-14 -3,-6 6,2 1,1 -4,16h10l4,7 -7,8 15,-2v20l-7,9 1,7 7,-1Z"/>
    <path data-fips-int="22123" data-name="West Carroll Parish" d="M525,31l-7,11 -3,18 -5,1v22l-10,14v19l-8,5h-27v-18h-8l2,-12 6,-5 -1,-10 10,-18h6l13,-27Z"/>
    <path data-fips-int="22125" data-name="West Feliciana Parish" d="M537,468l-6,28 -11,21 -5,3 3,10 -6,-2 -8,-20 -13,5 -6,-3 -11,4 -9,-8 10,-5 4,-19 -5,-8h-13l8,4 2,12 -18,-2 2,-18 -3,-8 5,-6 58,1 26,-1ZM453,458l-2,-5h-15l5,-6 14,1Z"/>
    <path data-fips-int="22127" data-name="Winn Parish" d="M246,211l90,1 -1,47 -4,24 -4,3h-47v19l-64,-1 4,-16v-15h10l3,-35 -3,-14 -7,-13Z"/>
    <path data-fips-int="22075" data-name="Plaquemines Parish" d="M782,784l-8,-12 -4,10h-7l-1,-30 -6,-16 -10,-12 -1,-21 8,-5 3,-8 11,-2 7,7 7,15 12,-1 4,8h13l6,8 23,13 -15,2 -1,5 -16,5 12,14 -3,2 23,12v17l11,2 7,-5 16,3 -2,9 21,-1 10,9 6,-7 14,18 -4,4 10,10 -3,9 11,5h-13v10l-16,8 -10,-16v12l-17,15 -7,12 -2,-6 20,-28 3,-20 -6,-6 -11,10 -2,-11 -7,8 -6,-1 -12,-13 -3,4 -14,-4 24,-2 -1,-10 -9,-8 -15,-1 -2,-10 -31,3 -5,-6 -6,-1 -1,-12ZM812,799h12l5,6 -10,8 -25,-1Z"/>
    <path data-fips-int="22087" data-name="Saint Bernard Parish" d="M889,649l7,-10 3,12ZM860,718l-5,4 9,7 -6,3 -13,-15 -6,5 -18,-3v8l21,11h-3l-23,-13 -6,-8h-13l-4,-8 -12,1 -7,-15 -5,-12 -13,-4 3,-9 24,-4 8,15 13,-2 8,13 17,2 8,-20 -2,-6 16,-11 1,-7 8,3 -2,22 5,3 -4,6 9,2 14,6 -18,13 14,5 -12,5 -9,-12 -2,6Z"/>
    <path data-fips-int="22109" data-name="Terrebonne Parish" d="M605,851l-11,4 -9,-9 6,-9 9,2 9,-10 -13,-1 -9,-8 4,-9 -9,-2 -10,6 15,12 -13,2 -9,12h-8l-7,-7 -1,-14 17,-4 4,-8h-14l8,9 -10,2 -4,-10 -12,-6 -5,-15 -6,-2 -2,-18 9,-11 25,-9 13,-19h24v-6l13,-7 8,17 28,20 15,20 10,9 11,15 7,5v18l-3,5v-11l-5,-8 -13,13 1,-12 -5,-2 -1,16 -14,-6 4,14 -6,7 -4,-3 -14,20 -13,5ZM576,833l7,5 -5,7 -8,-1 3,-15ZM530,803l8,12 7,-3 -2,19 -6,3 -16,-7 -10,-10 9,-2 4,-10Z"/>
    <path data-fips-int="22057" data-name="Lafourche Parish" d="M711,850l3,-1 -10,-24 -9,-13 -6,7v11l-5,3v-8h1l3,-5v-18l-7,-5 -11,-15 -10,-9 -15,-20 -28,-20 -8,-17 -13,7v6h-24l15,-23 8,-17 18,-4 24,6h21l8,6 5,13 18,8 6,15h21l10,2 -1,13 4,10h-8l-4,12 16,13 18,1 -1,4 -4,19 4,4 7,7 -13,-2 -5,6 9,13 -5,9 -12,11 -16,6 2,-8Z"/>
    <path data-fips-int="22051" data-name="Jefferson Parish" d="M738,627l-3,46 -2,13 15,-7 8,11 -3,8 -8,5 1,21 10,12 6,16 1,30 -27,-19 -10,-2 12,-10 -1,-14 -11,-2 -10,-2 11,-28 -10,-6 -8,-9 -3,-12v-60l6,2Z"/>
    <path data-fips-int="22101" data-name="Saint Mary Parish" d="M555,732l4,16 -25,9 -9,8 -3,8 -12,4 -1,-5 -22,-7h-10l-6,-20 -16,2 4,-6v-18l-18,1 -11,-1 -12,8 -2,-7 26,-21 17,-24 28,-1 10,11 8,14 -2,12 46,12Z"/>
  </g>
  <path class="mesh" d="M600,515v5l-11,11 -12,11 -2,27 10,22 8,5 11,3 3,10 13,8 6,12 15,-8 -2,12 -43,10 -16,12 -20,-4 -6,5 3,-20 3,-1 9,-35 5,-4h19M580,655l1,18h6v10l8,-1v7l-8,17 -15,23 -13,19 -4,-16 1,-23 -15,-7 -14,-27 5,-12 22,-7M352,488l1,13 6,4v20l-5,3 -2,20h-9l-1,6h-31l-11,12h46v10h12v18l6,11 -6,12h-6l-14,19 -18,19h-17l-11,-11 -16,4v-12l6,-12 -6,-5 1,-33 4,-10 -7,-11 2,-1 -27,-1v12l-53,-1 -13,2v4h-47l2,-18h-19v18l-48,-1M107,481l14,1 10,-4 53,1 29,2M263,28v54h-18v9l-7,5 -2,22 -1,28h19v47l-5,5 -3,13h-67l-4,-20h-39l4,-2 -4,-14 5,-11 -3,-8 8,-2 25,1v-10h16l-5,-28 54,1M122,24l1,18 8,5 -2,6 6,26 -1,57 1,18h11M136,191h-9l-7,-8 -2,-10 -16,-7 -2,-10 -8,-6 -3,-15 -12,-10 6,-10 -12,-30 4,-28 -7,-5 3,-11 -1,-18M127,191l-25,-1v-9l-9,-9 -9,1 -13,-7 -10,11 -2,8 -16,13h-18M183,580v6h18v25h6v22h19l-3,8 4,9h-20v8h-25v-3h-51l-57,-2M207,658l48,1h22v84l-1,14M412,250l8,3 7,13 14,3 10,-9 4,-9h10v18h4l-1,18 6,10v6l-11,-9 -6,8h-11l-1,18 -7,6 -6,-7 -9,10v7l9,7 -5,10 12,4 1,8 -14,-2 -2,-10 -7,-2v15l15,10h-12l-5,14 8,3 -2,7M390,387l4,22 10,-2 -1,-13 7,-1 11,7 4,6 14,8h10l-5,9 -3,24 -5,6 -8,7 -3,28h-73l-12,-18v-7h12l-3,-29v-47l8,-1 4,6 14,-7 12,-2 3,4 1,-50v-78M182,117l-1,-28h-9l1,-64M474,297l30,1v2M457,456l-5,6 1,-4 2,-10 -14,-1M102,190l3,6 12,3 4,14 -7,5 12,11 6,14 8,1 8,12 -15,2 -1,16 -80,-2M605,456l-6,11 3,21 -1,20v7M559,125l-14,5h-55l2,-9 8,-5v-19l10,-14v-22l5,-1 3,-18 7,-11M519,531l-1,-1 -3,-10 5,-3 11,-21 6,-28 4,-12M282,477l16,1 5,-12 13,-9 24,6M412,211l3,13 -10,4 6,7 1,15 -2,9h-75l1,-47v-28l49,1h8l3,23 16,3 9,-4 5,-10 7,-6 2,-18 11,-2 1,-6 11,-7h29l4,8 -7,2 3,9 -10,3 -4,20 11,1 -4,23 4,1 -7,28 3,6 -11,10M394,704l-2,-26 4,-17 3,-8 13,1 11,5 13,-16 16,2 11,17h17l4,-5h41l7,6M527,675l-40,3 -28,1 -17,24 -26,21M506,657l-4,-11h-13l-3,-27 -17,-2 -10,-14 -3,-28 -11,-12h40l5,4 25,33h33M336,212l-90,-1M254,146h27v-9l37,1v19l18,18v9M276,648l-2,4 -19,7M364,605l10,-8 6,-10 13,3 6,2 -3,7 3,11 -6,20h13v7l-7,16M396,661l-20,-10 -3,-10 -7,2 -12,-5 -16,-2M375,385l3,-1 -16,-19 -6,-11M327,286l2,21 -6,18 13,6 5,20 15,3 -37,8 -35,9 -19,-1 2,-10 -7,-14 -14,-19 -19,-5 2,-8 -11,-3 -2,-7 64,1v-19h47l4,-3 4,-24M263,82h18l19,8v11h18v37M683,607l-16,5 -10,14 -16,-5M549,199l-1,-8 -11,1 -8,7 -7,-3 -8,5h-30M487,158l-2,-21 5,-7M567,218h-4M493,31l-13,27h-6l-10,18 1,10 -6,5 -2,12 -5,11h-7l-7,11 -10,-2 -11,10 -6,-3 -3,7 -3,-18 3,-16h-6l-4,-9 -13,4 -4,-8 3,-14 -6,-17v-21l3,-8M223,211l7,13 3,14 -3,35h-10v15l-4,16M260,346l-16,15 -10,5 -8,11 -12,4 -10,-4 -37,-1 1,-37h-18v-37l-18,-1v-27M148,256l2,8 19,-2v-15l21,1 -7,-12 5,-7 -9,-18M783,666l-24,4 -3,9 13,4 5,12 -7,-7 -11,2 -8,-11 -15,7 2,-13 3,-46 20,9 23,-12 12,11 11,-6 22,4M408,137l-16,26 -7,22M318,120h28l29,-21 6,-9M452,462l3,8 -2,18 18,2 -2,-12 -8,-4h13l5,8 -4,19 -10,5 9,8 11,-4 6,3 13,-5 8,20 3,6 -15,14 -3,12 -12,3M445,563h-10l4,-45 -7,-17 -6,-4 -1,-9M436,453h15l2,5M241,478l-1,-77 -8,-8v-6l-18,-6M457,103h8v18h27M167,376h-27l-11,18h-16l-4,20M651,456l1,8v66M639,633l-3,24 -5,2 6,32 -24,-6 -18,4M658,691h-21M712,620l-6,-2M435,563l15,22h-25l-8,-5 -13,4 -10,-2 -1,8M555,732l-6,-5 -46,-12 2,-12 -8,-14 -10,-11M274,565l26,1M738,627l-26,-7v-50l-2,-41 -1,-9v-4l46,10 29,-1M691,455l1,20 6,4 4,17 5,8 2,12M512,528l6,2M763,782l-1,-30 -6,-16 -10,-12 -1,-21 8,-5 3,-8M774,695l7,15 12,-1 4,8h13l6,8 23,13M534,757l25,-9M572,729h24v-6l13,-7 8,17 28,20 15,20 10,9 11,15 7,5v18l-3,5M716,733h-21l-6,-15 -18,-8 -5,-13 -8,-6 1,-27 16,-3 31,-43v60l3,12 8,9 10,6 -11,28 10,2M569,600h-21l-10,-5 -7,1 -1,-7 7,-9v-20l-15,2 7,-8 -4,-7h-10l4,-16 8,-12 73,-4h1M589,531l2,-1h61v35l4,11 6,4 2,11 19,16h1l19,-2 3,13M183,576l1,-36h28l1,-59M213,481h28v-3M241,478l19,-2 22,1M282,477l-1,67 3,3 -8,17"/>
  <g class="cities">
    <circle r="7" cx="744" cy="677"/>
    <text x="744" y="677">New Orleans</text>
    <circle r="7" cx="546" cy="573"/>
    <text x="546" y="573">Baton Rouge</text>
    <circle r="7" cx="76" cy="133"/>
    <text x="76" y="133">Shreveport</text>
  </g>
</svg>