<?xml version="1.0" encoding="utf-8"?>
<!DOCTYPE svg PUBLIC "-//W3C//DTD SVG 1.1//EN" "http://www.w3.org/Graphics/SVG/1.1/DTD/svg11.dtd">
<svg version="1.1" xmlns="http://www.w3.org/2000/svg" width="350" height="321" viewBox="0 0 350 321">
  <path class="state" transform="scale(0.1)" d="M1431,2615l37,3 44,42 40,12 -35,21 -16,35 -38,3 -67,-46 -52,-21 17,-27 45,-5 25,-17M2845,2798l40,-1 16,23 -38,36 -86,-12 68,-46M3148,2282l-35,-9 23,-34 12,43M2018,2922h25l-18,36 -28,-3 21,-33M1858,2812l14,35 35,-2 -19,45 35,10 4,23h-40l-55,-20 -40,-47 40,-15 26,-29M1458,2538l-19,-6 24,-40 13,17v-38l-40,-6 -17,15 -36,-14 -4,26 -69,30 -39,31 7,-40 -20,22 -32,-6 44,39 28,-3 -20,29 18,37 48,-16 -26,26 16,11h-71l-63,30 -38,5 -52,-12 -145,-23 -105,-40 -111,-58 -151,-51 -65,-3 -42,12 -85,-9 -159,19 -70,34 -55,-93 45,-32 30,-44 5,-26 58,-70 -8,-26 21,-23v-129l-26,-10 -12,-30 17,-44 26,-20 -5,-66 -18,-16 47,-87 26,-15 10,-55 38,-50v-34l-11,-15 30,-26v-28l-27,-9 5,-30 35,-11 -25,-38 10,-35 -8,-44 -24,14 -33,-78 -28,-26 13,-37 -15,-64 -35,-22 25,-32 -43,-10 -37,-53 15,-20 2,-79 -3,-35 -35,-52 -10,-36 -50,-25 -27,-51 -13,-2 3,-149 5,-328 9,-283 143,1 183,5 176,4 319,8 409,6 395,5h108l60,1 -30,58 26,18 25,-21 -3,-30 25,-13 22,55 -7,19 -45,45 -7,41 14,29 48,8 -10,29 -48,29 20,44 43,-17 15,-29 15,17 -18,31 -25,15 -2,12 40,21 6,26 -23,-6 -35,-44 -15,43 17,29 40,15 38,-2 -22,58 57,12 3,20 -26,23 -20,-8v57l-33,-19 -57,23 -27,12 2,48 70,6 -3,-43 36,26 -20,18 -43,55 -27,-26 -5,26 42,12 -12,31 -40,6 -21,55 -42,42 -10,26 -6,-33 -35,14 -10,60 50,-9 5,22 -55,-3 -10,10 -12,19 -2,67 -45,-3 -15,-17 -13,26 20,18 40,-8 8,23 -43,26 -22,-1 -3,57 28,48 -3,20 -32,-13 -11,-38 -17,9v32l40,45 -3,27 -38,15 -40,-6 -14,14 45,50 -25,40 40,45 -11,34 -35,17h292h223l165,-2 141,-1 378,-6 17,21 -19,21 -33,114 -12,7 -8,86 27,80 33,42 41,31 5,41 35,49 -6,22 16,63 27,30 -8,23 -24,-3 -36,37v23l-32,12 12,24 -63,-12 -29,32 7,35 18,15 49,-1v21l43,31h35l21,-19 14,-65 -7,-12 57,-38 5,-26 28,32 -17,32 47,18 -19,20 -15,15 29,12 33,-8 -13,54 -27,12 43,26 -36,14 -35,-38 -32,-7 40,60 -18,9 33,29 -8,12 -60,-55 -17,16 -55,-20 -5,41 67,41 -7,-5h-3l-52,8 -3,18 -60,14 47,70 31,28 17,-11 32,30 -17,23 25,25 43,-14 42,6 5,26 33,20 30,-20 27,14 6,25 32,-30 40,40 35,77 -12,31 40,15 -12,20 -31,-12 -7,29 -20,-3 -27,36 -39,-67v41l-102,101 65,-118 28,-35 -18,-53 -15,-8 -7,46 -15,17 7,-55 -17,31 -5,-39 -25,29 -23,-3 -38,-50 23,-6 -20,-49 -68,-18 2,-21 -75,-3 -10,-13 -38,13 -15,-22 -20,-12 18,-20 -30,-10 -3,19 -34,-29 -11,23 -25,-1 -28,-32 -99,-44 39,-28 -12,-53 -28,-8 -4,47 12,35 -28,5 -12,46 65,41h53l-3,14 -13,24 21,30 -10,22 25,23 -46,-3 15,-13 -37,-16 22,41 -17,9 32,49 -15,23 -2,6 -18,21 -62,38 -18,2 -2,-40h-13l13,-5 -66,-140 -42,87v-11v-4l5,-12 2,-3 -2,-39 -18,-24 -35,49 -14,-18 9,-28h-22l10,31 -31,15 10,-28 -37,5 13,52 -23,-5 3,28 -18,-9 -2,19 -45,48 -33,-2 -33,15 -15,-16 -32,15 -38,-37 23,-30 30,9 29,-29 -72,-32 -20,-46 -40,40 28,4 27,23 -32,14 4,-26 -27,20 -20,36 10,-56 -21,21 11,37 -26,1 -29,-36 2,-38 50,-6v-28l23,-9 -31,-10 -19,10 24,15 -30,25 -14,-34 -48,-27 -10,-44 -27,-9 -5,-66 34,-40 -35,26 -4,28 -43,18 -30,-27 -18,9 3,-28 -75,5 -19,-69 -47,8 3,-87 -58,6 -42,-4 -53,29 4,-26"/>
  <g class="counties" transform="scale(0.1)">
    <path data-fips-int="22001" data-name="Acadia Parish" d="M1052,1983l158,2 1,33h44v64l21,38 -70,69 -3,29 -20,13 -61,63 -20,9 -47,-11 -32,-32 -59,11 -2,-24 25,-57 -22,-21v-69l-1,-41 21,-38 -21,-39Z"/>
    <path data-fips-int="22003" data-name="Allen Parish" d="M964,1977l-92,-2 -2,39 -186,-3 -41,10 1,-129h98l4,-208 98,4v-11l66,-6 79,3 -4,268Z"/>
    <path data-fips-int="22005" data-name="Ascension Parish" d="M2078,2087l40,19 12,32 39,25 39,49 25,-43 11,9 -6,40 -175,41 -32,35 -71,-11 -20,14v-34l22,-39 33,-121 21,-16Z"/>
    <path data-fips-int="22007" data-name="Assumption Parish" d="M2031,2294l4,65h21v32l27,-1v23l-25,58 -53,83 -48,67 -15,-12 3,-42 5,-75 -12,-20 -46,-14 -47,-93 -3,-22 23,-19 75,-27 20,-14Z"/>
    <path data-fips-int="22009" data-name="Avoyelles Parish" d="M1366,1358l-8,19 21,36 17,5 23,-38 57,23 25,30 75,26 -27,38 10,26 -13,44 -17,20 -36,30 1,78 -8,18 -253,-1h-15v-34l-28,-32 1,-21h42l-12,-125 2,-140 33,-5 12,20 47,-24 39,-6Z"/>
    <path data-fips-int="22011" data-name="Beauregard Parish" d="M746,1684l-4,208h-98l-1,129v15l-163,-3 1,-65h-65v64l-164,-3 26,-20 -5,-66 -18,-16 47,-87 26,-15 10,-55 38,-50v-34l19,-9 31,15 32,-15 161,1Z"/>
    <path data-fips-int="22013" data-name="Bienville Parish" d="M824,417v97l65,2v146l-19,34 -8,47 -78,-2 -156,-4 -17,-64 -133,-2 13,-36 -11,-18 13,-42 -8,-27 29,-6 85,1v-32h57l-18,-96Z"/>
    <path data-fips-int="22015" data-name="Bossier Parish" d="M430,88l-7,32 48,90 -13,71h17l-5,195 1,66h43l-29,6 8,27 -13,42 11,18 -13,36 -28,-1 -42,-40 3,-21 -51,-23 -10,-37 -33,-7 16,-17 -18,-17 -3,-35 -24,-10 -11,-34 13,-18 -22,-11 12,-24 -23,-34 5,-35 -27,-10 28,-39 -25,-9 22,-18 -20,-61 10,-24 -25,-12 22,-51Z"/>
    <path data-fips-int="22017" data-name="Caddo Parish" d="M247,83l-22,51 25,12 -10,24 20,61 -22,18 25,9 -28,39 27,10 -5,35 23,34 -12,24 22,11 -13,18 11,34 24,10 3,35 18,17 -16,17 33,7 10,37 51,23 -3,21 42,40 -90,-2 -7,-35 -25,-26h-33l-40,-19 -37,35 -11,29 -58,42 -59,-1 5,-328 9,-283Z"/>
    <path data-fips-int="22019" data-name="Calcasieu Parish" d="M643,2036v17l64,2 -1,88h21v78h65l-10,32 14,23h-70v32h-85v-11l-381,-6 -8,-26 21,-23v-129l-26,-10 -12,-30 17,-44 164,3v-64h65l-1,65Z"/>
    <path data-fips-int="22021" data-name="Caldwell Parish" d="M1439,744l14,48 -30,9 20,78 -12,32h-63l-192,-2 2,-161v-100l175,2h26l-8,37 17,10 -2,35 17,-4Z"/>
    <path data-fips-int="22023" data-name="Cameron Parish" d="M726,2308l166,3h78v182l-5,159 -105,-40 -111,-58 -151,-51 -65,-3 -42,12 -85,-9 -159,19 -70,34 -55,-93 45,-32 30,-44 5,-26 58,-70 381,6v11Z"/>
    <path data-fips-int="22025" data-name="Catahoula Parish" d="M1641,946l1,71 17,25 -2,22 -33,-30 -22,26 -30,-12 -20,48 4,32 -17,16 -23,-26 -22,13 -13,45 28,29 -15,36 45,12 2,26 -47,-4 -13,-43 -20,2 2,57 49,25 -51,12 -7,44 30,11 -8,20 -57,-23 -23,38 -17,-5 -21,-36 8,-19v-278l2,-169h63l12,-32 23,9 28,47 47,11 40,-32 15,-34h31v66Z"/>
    <path data-fips-int="22027" data-name="Claiborne Parish" d="M925,100l-1,189h-65v35l-25,26 3,35 -13,32 -186,-2 -4,-99h-31l3,-224Z"/>
    <path data-fips-int="22029" data-name="Concordia Parish" d="M1659,1042l106,3 -1,10 -12,19 -2,67 -45,-3 -15,-17 -13,26 20,18 40,-8 8,23 -43,26 -22,-1 -3,57 28,48 -3,20 -32,-13 -11,-38 -17,9v32l40,45 -3,27 -38,15 -40,-6 -14,14 45,50 -25,40 40,45 -11,34 -35,17 -17,21 3,-18 -1,-37h-40l13,-44 -10,-26 27,-38 -75,-26 -25,-30 8,-20 -30,-11 7,-44 51,-12 -49,-25 -2,-57 20,-2 13,43 47,4 -2,-26 -45,-12 15,-36 -28,-29 13,-45 22,-13 23,26 17,-16 -4,-32 20,-48 30,12 22,-26 33,30Z"/>
    <path data-fips-int="22031" data-name="De Soto Parish" d="M360,668l11,23 37,11 17,44 -22,21 38,37 22,50 43,20 13,24 -56,14v49l-276,-5 -10,-36 -50,-25 -27,-51 -13,-2 3,-149 59,1 58,-42 11,-29 37,-35 40,19h33l25,26Z"/>
    <path data-fips-int="22033" data-name="East Baton Rouge Parish" d="M2065,1861l-17,20 -25,41 2,72 -12,4 18,57 47,32h-62l-21,16h-78l-34,-18 -26,3v-23l25,-42 -7,-67 -45,13 20,-24 -13,-27h-27l7,-57 26,-41 258,-12Z"/>
    <path data-fips-int="22035" data-name="East Carroll Parish" d="M1957,440l-39,18h-204l8,-33 30,-20v-63l35,-41 -3,-62 25,-35 5,-52h13l10,-41 60,1 -30,58 26,18 25,-21 -3,-30 25,-13 22,55 -7,19 -45,45 -7,41 14,29 48,8 -10,29 -48,29 20,44 43,-17 15,-29 15,17 -18,31Z"/>
    <path data-fips-int="22037" data-name="East Feliciana Parish" d="M2116,1601l-16,36 -4,6 10,64 -3,77v24h-2l-258,12 -26,41 -3,-1 -12,-37 18,-11 42,-71 -5,-8 30,-113 6,-19Z"/>
    <path data-fips-int="22039" data-name="Evangeline Parish" d="M1191,1625l-1,21 28,32v34h15l2,43 23,16v69l-18,15 -7,64h-33v23l-120,1 -28,40 -88,-1v-5l21,-35 4,-268 63,-2 11,-39 65,-35 32,27Z"/>
    <path data-fips-int="22041" data-name="Franklin Parish" d="M1704,557l15,26 -50,58 10,49 15,16 -9,45 10,38 -13,53 8,23 -20,20 10,26 -39,35h-14v-66h-31l-15,34 -40,32 -47,-11 -28,-47 -23,-9 -20,-78 30,-9 -14,-48 37,-18 10,-27 30,-22 8,-68 38,-6 2,-22 40,-24Z"/>
    <path data-fips-int="22043" data-name="Grant Parish" d="M1143,1007l17,25 -23,45 16,4 -25,57 50,22 -8,14 30,28 -7,25 55,17 -296,64 -22,-15 10,-29 -25,-52 -51,-61 -67,-21 5,-26 -40,-15 -5,-22 223,2 2,-64Z"/>
    <path data-fips-int="22045" data-name="Iberia Parish" d="M1431,2615l37,3 44,42 40,12 -35,21 -16,35 -38,3 -67,-46 -52,-21 17,-27 45,-5ZM1772,2300h65l28,24 -23,19 3,22 -140,11 -98,9 -58,73 -91,80 -19,-6 24,-40 13,17v-38l-40,-6 -17,15 -36,-14 -15,-113 21,-38 9,-27 48,4 37,19 34,-49 27,-9 37,7 41,58h60l13,-18Z"/>
    <path data-fips-int="22047" data-name="Iberville Parish" d="M1697,1974l107,114 5,15h108h78l-33,121 -22,39v34l-75,27 -28,-24h-65l-13,-32h-47l-8,-94 -57,-10 -36,-48 -19,-45 15,-25 -13,-32 -35,-40h75v11Z"/>
    <path data-fips-int="22049" data-name="Jackson Parish" d="M1178,648v100l-316,-5 8,-47 19,-34v-146l96,1v-32l130,2v66l63,64Z"/>
    <path data-fips-int="22053" data-name="Jefferson Davis Parish" d="M965,2100v69l22,21 -25,57 2,24 -72,40 -166,-3v-32h70l-14,-23 10,-32h-65v-78h-21l1,-88 -64,-2v-17v-15l41,-10 186,3 2,-39 92,2v5l21,39 -21,38Z"/>
    <path data-fips-int="22055" data-name="Lafayette Parish" d="M1374,2068l25,16 -10,15 10,38 -16,12 11,37 -15,23 37,-7 10,26 -28,60 -9,27 -66,-27 -15,-41 -27,9 -45,-20 -53,-5 20,-13 3,-29 70,-69 58,-61 10,16Z"/>
    <path data-fips-int="22059" data-name="La Salle Parish" d="M1366,1358l-12,-13 -39,6v-25l-39,-28 -8,-49 -20,-5 -55,-17 7,-25 -30,-28 8,-14 -50,-22 25,-57 -16,-4 23,-45 -17,-25 33,-74v-24l192,2 -2,169Z"/>
    <path data-fips-int="22061" data-name="Lincoln Parish" d="M1117,421l-2,66 -130,-2v32l-96,-1 -65,-2v-97l13,-32 -3,-35 25,-26v-35h65h58l38,9 32,21v37l65,2Z"/>
    <path data-fips-int="22063" data-name="Livingston Parish" d="M2284,1858v122l14,41 28,31v21l46,49 20,6 -63,24 -21,37 -29,7 -35,-18 -11,-9 -25,43 -39,-49 -39,-25 -12,-32 -40,-19 -47,-32 -18,-57 12,-4 -2,-72 25,-41 17,-20Z"/>
    <path data-fips-int="22065" data-name="Madison Parish" d="M1983,767l-13,-1 -3,-43 36,26ZM1925,700l-5,-27 -35,3 -30,26 -40,-8 -13,14 -108,-2 -15,-16 -10,-49 50,-58 -15,-26 -7,-53 17,-46h204l39,-18 -2,12 40,21 6,26 -23,-6 -35,-44 -15,43 17,29 40,15 38,-2 -22,58 57,12 3,20 -26,23 -20,-8v57l-33,-19Z"/>
    <path data-fips-int="22067" data-name="Morehouse Parish" d="M1729,111l-39,85 -28,9 -38,66 3,30 -25,37v24l-20,41 -21,-1 -22,39 -38,-7 -40,36 -15,-17 -17,28 -11,-76 5,-44 -29,-31 -58,-11 5,-89 -13,-37 -3,-56 9,-31Z"/>
    <path data-fips-int="22069" data-name="Natchitoches Parish" d="M784,741l30,86 -8,33 16,29 -21,73 -24,-3 2,31 -17,24 -5,53 5,22 40,15 -5,26 67,21 51,61 -60,55 -38,17 -25,36 -43,16 -43,-14 -118,-2 1,-129h-65l2,-131 -65,-2 2,-97v-49l56,-14 2,25 22,7 48,-10 2,-51h73l-23,-29 1,-4 15,-26 -31,-73Z"/>
    <path data-fips-int="22071" data-name="Orleans Parish" d="M2891,2219l-36,37v23l-32,12 12,24 -63,-12 -29,32 -58,17 -26,-6 -14,33 60,22 5,33 -28,-24 -33,6 -34,-37 -10,20h-41l8,-40 10,-163 68,31 80,-38 30,9 23,26 29,-20h38Z"/>
    <path data-fips-int="22073" data-name="Ouachita Parish" d="M1429,481l-61,102 -15,67 -175,-2v-31l-63,-64v-66l2,-66 84,4 119,-78 16,-28 58,11 29,31 -5,44Z"/>
    <path data-fips-int="22077" data-name="Pointe Coupee Parish" d="M1587,1604l-3,18 12,32 -15,46 13,16 57,4 -10,-42 -25,-16h38l25,36 -15,57 -37,32 32,13 55,-3 38,-17 20,8 23,66 15,7 -58,60 -10,42 -45,11 -63,11v-11h-75h-35l15,-17 -17,-35 17,-102 -53,-107 8,-18 -1,-78 36,-30 32,-2Z"/>
    <path data-fips-int="22079" data-name="Rapides Parish" d="M1248,1244l20,5 8,49 39,28v25l-47,24 -12,-20 -33,5 -2,140 12,125h-42h-31l-32,-27 -65,35 -11,39 -63,2 -79,-3 -66,6v-270l-32,-27v-22l-53,-10 -10,-12 43,-16 25,-36 38,-17 60,-55 25,52 -10,29 22,15Z"/>
    <path data-fips-int="22081" data-name="Red River Parish" d="M628,737l31,73 -15,26 -1,4 23,29h-73l-2,51 -48,10 -22,-7 -2,-25 -13,-24 -43,-20 -22,-50 -38,-37 22,-21 -17,-44 -37,-11 -11,-23 90,2 28,1 133,2Z"/>
    <path data-fips-int="22083" data-name="Richland Parish" d="M1722,425l-8,33 -17,46 7,53h-100l-40,24 -2,22 -38,6 -8,68 -30,22 -10,27 -37,18 -36,-16 -17,4 2,-35 -17,-10 8,-37h-26l15,-67 61,-102 17,-28 15,17 40,-36 38,7 22,-39 21,1 20,-41h25l4,63Z"/>
    <path data-fips-int="22085" data-name="Sabine Parish" d="M463,961l-2,97 65,2 -2,131h65l-1,129 -98,-1 -35,64 -59,-2 -11,69 -24,14 -33,-78 -28,-26 13,-37 -15,-64 -35,-22 25,-32 -43,-10 -37,-53 15,-20 2,-79 -3,-35 -35,-52Z"/>
    <path data-fips-int="22089" data-name="Saint Charles Parish" d="M2507,2568h-76l-17,-50 -37,-11 -30,-26 -1,-24 -42,-35 2,-93 56,-12 110,-148v195l7,44 20,34 46,30Z"/>
    <path data-fips-int="22091" data-name="Saint Helena Parish" d="M2281,1599l3,259 -219,3 36,-53h2v-24l3,-77 -10,-64 4,-6 16,-36Z"/>
    <path data-fips-int="22093" data-name="Saint James Parish" d="M2231,2423l-37,-4 -46,-8 -65,2v-23l-27,1v-32h-21l-4,-65 32,-35 175,-41 -12,87 -17,10 14,41Z"/>
    <path data-fips-int="22095" data-name="Saint John the Baptist Parish" d="M2472,2169l-110,148 -56,12 -2,93 -73,1 -8,-67 -14,-41 17,-10 12,-87 6,-40 35,18 29,-7 21,-37 63,-24 67,-6Z"/>
    <path data-fips-int="22097" data-name="Saint Landry Parish" d="M1486,1713l53,107 -17,102 17,35 -15,17 48,76h-86l-37,-17 -41,17 -27,-11 -7,29 -30,7 -10,-16 -58,61 -21,-38v-64h-44l-1,-33 -158,-2 28,-40 120,-1v-23h33l7,-64 18,-15v-69l-23,-16 -2,-43Z"/>
    <path data-fips-int="22099" data-name="Saint Martin Parish" d="M1945,2567l-22,-19 -51,-19 -88,-11 -24,-14 9,-33 -27,-58 -37,-37 140,-11 47,93 46,14 12,20ZM1772,2300h-77l-13,18h-60l-41,-58 -37,-7 -27,9 -34,49 -37,-19 -48,-4 28,-60 -10,-26 -37,7 15,-23 -11,-37 16,-12 -10,-38 10,-15 -25,-16 7,-29 27,11 41,-17 37,17h86l-48,-76h35l35,40 13,32 -15,25 19,45 36,48 57,10 8,94h47Z"/>
    <path data-fips-int="22103" data-name="Saint Tammany Parish" d="M2745,1841l27,80 33,42 41,31 5,41 35,49 -6,22 16,63 27,30 -8,23 -24,-3 -41,-15h-38l-29,20 -23,-26 -30,-9 -80,38 -68,-31 -88,-22 -3,-279 -4,-5 2,-4 -3,-11 -4,-64 162,32Z"/>
    <path data-fips-int="22105" data-name="Tangipahoa Parish" d="M2422,1598v70l20,10 15,63 20,32 5,38 4,64 3,11 -2,4 4,5 3,279 -22,-5 -13,-47 -67,6 -20,-6 -46,-49v-21l-28,-31 -14,-41v-122l-3,-259Z"/>
    <path data-fips-int="22107" data-name="Tensas Parish" d="M1925,700l-27,12 2,48 70,6 13,1 -43,55 -27,-26 -5,26 42,12 -12,31 -40,6 -21,55 -42,42 -10,26 -6,-33 -35,14 -10,60 50,-9 5,22 -55,-3 -10,10 1,-10 -106,-3 -17,-25 -1,-71 39,-35 -10,-26 20,-20 -8,-23 13,-53 -10,-38 9,-45 108,2 13,-14 40,8 30,-26 35,-3Z"/>
    <path data-fips-int="22111" data-name="Union Parish" d="M1334,106l-9,31 3,56 13,37 -5,89 -16,28 -119,78 -84,-4v-63l-65,-2v-37l-32,-21 -38,-9h-58l1,-189Z"/>
    <path data-fips-int="22113" data-name="Vermilion Parish" d="M1183,2231l53,5 45,20 27,-9 15,41 66,27 -21,38 15,113 -4,26 -69,30 -39,31 7,-40 -20,22 -32,-6 44,39 28,-3 -20,29 18,37 48,-16 -26,26 16,11h-71l-63,30 -38,5 -52,-12 -145,-23 5,-159v-182h-78l72,-40 59,-11 32,32 47,11 20,-9Z"/>
    <path data-fips-int="22115" data-name="Vernon Parish" d="M749,1336l10,12 53,10v22l32,27v270v11l-98,-4 -127,-6 -161,-1 -32,15 -31,-15 -19,9 -11,-15 30,-26v-28l-27,-9 5,-30 35,-11 -25,-38 10,-35 -8,-44 11,-69 59,2 35,-64 98,1 118,2Z"/>
    <path data-fips-int="22117" data-name="Washington Parish" d="M2745,1841l-101,2 -162,-32 -5,-38 -20,-32 -15,-63 -20,-10v-70l378,-6 17,21 -19,21 -33,114 -12,7Z"/>
    <path data-fips-int="22119" data-name="Webster Parish" d="M606,92l-3,224h31l4,99 18,96h-57v32l-85,-1h-43l-1,-66 5,-195h-17l13,-71 -48,-90 7,-32Z"/>
    <path data-fips-int="22121" data-name="West Baton Rouge Parish" d="M1917,2103h-108l-5,-15 -107,-114 45,-11 10,-42 58,-60 -15,-7 19,6 3,1 -7,57h27l13,27 -20,24 45,-13 7,67 -25,42v23l26,-3Z"/>
    <path data-fips-int="22123" data-name="West Carroll Parish" d="M1837,111l-10,41h-13l-5,52 -25,35 3,62 -35,41v63l-30,20h-91l-4,-63h-25v-24l25,-37 -3,-30 38,-66 28,-9 39,-85Z"/>
    <path data-fips-int="22125" data-name="West Feliciana Parish" d="M1887,1620l-30,113 5,8 -42,71 -18,11 12,37 -19,-6 -23,-66 -20,-8 -38,17 -55,3 -32,-13 37,-32 15,-57 -25,-36h-38l25,16 10,42 -57,-4 -13,-16 15,-46 -12,-32 17,-21h292ZM1587,1604l-26,-19 -32,2 17,-20h40Z"/>
    <path data-fips-int="22127" data-name="Winn Parish" d="M862,743l316,5 -2,161v24l-33,74 -161,-2 -2,64 -223,-2 5,-53 17,-24 -2,-31 24,3 21,-73 -16,-29 8,-33 -30,-86Z"/>
    <path data-fips-int="22075" data-name="Plaquemines Parish" d="M2845,2798l40,-1 16,23 -38,36 -86,-12ZM2886,2594l-3,18 -60,14 47,70 31,28 17,-11 32,30 -17,23 25,25 43,-14 42,6 5,26 33,20 30,-20 27,14 6,25 32,-30 40,40 35,77 -12,31 40,15 -12,20 -31,-12 -7,29 -20,-3 -27,36 -39,-67v41l-102,101 65,-118 28,-35 -18,-53 -15,-8 -7,46 -15,17 7,-55 -17,31 -5,-39 -25,29 -23,-3 -38,-50 23,-6 -20,-49 -68,-18 2,-21 -75,-3 -10,-13 -38,13 -15,-22 -20,-12 18,-20 -30,-10 -3,19 -34,-29 -11,23 -25,-1 -5,-89 -22,-70 -33,-47 -3,-68 26,-19 14,-30 33,-6 28,24 30,56 30,-7 18,30 57,5 15,29 38,27 40,12Z"/>
    <path data-fips-int="22087" data-name="Saint Bernard Parish" d="M3024,2378l-15,15 29,12 33,-8 -13,54 -27,12 43,26 -36,14 -35,-38 -32,-7 40,60 -18,9 33,29 -8,12 -60,-55 -17,16 -55,-20 -5,41 67,41 -7,-5h-3l-40,-12 -38,-27 -15,-29 -57,-5 -18,-30 -30,7 -30,-56 -5,-33 -60,-22 14,-33 26,6 58,-17 7,35 18,15 49,-1v21l43,31h35l21,-19 14,-65 -7,-12 57,-38 5,-26 28,32 -17,32 47,18ZM3148,2282l-35,-9 23,-34Z"/>
    <path data-fips-int="22109" data-name="Terrebonne Parish" d="M2018,2922h25l-18,36 -28,-3ZM1858,2812l14,35 35,-2 -19,45 35,10 4,23h-40l-55,-20 -40,-47 40,-15ZM2284,2905l-23,-5 3,28 -18,-9 -2,19 -45,48 -33,-2 -33,15 -15,-16 -32,15 -38,-37 23,-30 30,9 29,-29 -72,-32 -20,-46 -40,40 28,4 27,23 -32,14 4,-26 -27,20 -20,36 10,-56 -21,21 11,37 -26,1 -29,-36 2,-38 50,-6v-28l23,-9 -31,-10 -19,10 24,15 -30,25 -14,-34 -48,-27 -10,-44 -27,-9 -5,-66 34,-40 85,-29 48,-67 81,-1v-21h27l20,-23 27,59 38,21 35,46 20,3 33,31 23,38 48,44 4,14 48,45 5,40 -13,40 -2,-39 -18,-24 -35,49 -14,-18 9,-28h-22l10,31 -31,15 10,-28 -37,5Z"/>
    <path data-fips-int="22057" data-name="Lafourche Parish" d="M2627,2762l-13,24 21,30 -10,22 25,23 -46,-3 15,-13 -37,-16 22,41 -17,9 32,49 -15,23 -2,6 -18,21 -62,38 -18,2 -2,-40h-13l13,-5 -66,-140 -42,87v-11v-4l5,-12 2,-3 13,-40 -5,-40 -48,-45 -4,-14 -48,-44 -23,-38 -33,-31 -20,-3 -35,-46 -38,-21 -27,-59 -20,23h-27v21l-81,1 53,-83 25,-58 65,-2 46,8 37,4 73,-1 42,35 1,24 30,26 37,11 17,50h76l37,6 -4,47 12,35 -28,5 -12,46 65,41h53Z"/>
    <path data-fips-int="22051" data-name="Jefferson Parish" d="M2582,2196l-10,163 -8,40h41l10,-20 34,37 -14,30 -26,19 3,68 33,47 22,70 5,89 -28,-32 -99,-44 39,-28 -12,-53 -28,-8 -37,-6 38,-96 -46,-30 -20,-34 -7,-44v-195l22,5Z"/>
    <path data-fips-int="22101" data-name="Saint Mary Parish" d="M1945,2567l-3,42 15,12 -85,29 -35,26 -4,28 -43,18 -30,-27 -18,9 3,-28 -75,5 -19,-69 -47,8 3,-87 -58,6 -42,-4 -53,29 4,-26 91,-80 58,-73 98,-9 37,37 27,58 -9,33 24,14 88,11 51,19Z"/>
  </g>
  <path class="mesh" transform="scale(0.1)" d="M964,1982v-5l-92,-2 -2,39 -186,-3 -41,10v15l-163,-3 1,-65h-65v64l-164,-3M925,100l-1,189h-65v35l-25,26 3,35 -13,32v97l65,2v146l-19,34 -8,47 -78,-2 -156,-4 -17,-64 -133,-2 13,-36 -11,-18 13,-42 -8,-27 29,-6 85,1v-32h57l-18,-96 186,2M430,88l-7,32 48,90 -13,71h17l-5,195 1,66h43M478,671l-28,-1 -42,-40 3,-21 -51,-23 -10,-37 -33,-7 16,-17 -18,-17 -3,-35 -24,-10 -11,-34 13,-18 -22,-11 12,-24 -23,-34 5,-35 -27,-10 28,-39 -25,-9 22,-18 -20,-61 10,-24 -25,-12 22,-51M450,670l-90,-2 -7,-35 -25,-26h-33l-40,-19 -37,35 -11,29 -58,42 -59,-1M643,2036v17l64,2 -1,88h21v78h65l-10,32 14,23h-70v32h-85v-11l-381,-6M726,2308l166,3h78v182l-5,159M1443,879l23,9 28,47 47,11 40,-32 15,-34h31v66h14l1,71 17,25 -2,22 -33,-30 -22,26 -30,-12 -20,48 4,32 -17,16 -23,-26 -22,13 -13,45 28,29 -15,36 45,12 2,26 -47,-4 -13,-43 -20,2 2,57 49,25 -51,12 -7,44 30,11 -8,20M1366,1358l-8,19 21,36 17,5 23,-38 57,23 25,30 75,26 -27,38 10,26 -13,44 -17,20 -36,30 1,78 -8,18 -253,-1h-15v-34l-28,-32 1,-21h42l-12,-125 2,-140 33,-5 12,20 47,-24 39,-6 12,13v-278l2,-169M638,415l-4,-99h-31l3,-224M1659,1042l106,3 -1,10M1601,1601l-17,21 3,-18 -1,-37h-40M360,668l11,23 37,11 17,44 -22,21 38,37 22,50 43,20 13,24 -56,14v49l-276,-5M1957,440l-39,18h-204l8,-33 30,-20v-63l35,-41 -3,-62 25,-35 5,-52h13l10,-41M2116,1601l-16,36 -4,6 10,64 -3,77v24h-2M1233,1712l2,43 23,16v69l-18,15 -7,64h-33v23l-120,1 -28,40 158,2 1,33h44v64l21,38 -70,69 -3,29 -20,13 -61,63 -20,9 -47,-11 -32,-32 -59,11 -2,-24 25,-57 -22,-21v-69l-1,-41 21,-38 -21,-39 88,1M1817,1861l-3,-1 -12,-37 18,-11 42,-71 -5,-8 30,-113 6,-19M643,2021l1,-129h98l4,-208 98,4v-11l66,-6 79,3 63,-2 11,-39 65,-35 32,27h31M1439,744l14,48 -30,9 20,78 -12,32h-63l-192,-2 2,-161v-100l175,2h26l-8,37 17,10 -2,35 17,-4 36,16 37,-18 10,-27 30,-22 8,-68 38,-6 2,-22 40,-24h100l15,26 -50,58 10,49 15,16 -9,45 10,38 -13,53 8,23 -20,20 10,26 -39,35M1383,2466l-15,-113 21,-38 9,-27 48,4 37,19 34,-49 27,-9 37,7 41,58h60l13,-18h77h65l28,24M1845,2365l-140,11 -98,9 -58,73 -91,80M1772,2300l-13,-32h-47l-8,-94 -57,-10 -36,-48 -19,-45 15,-25 -13,-32 -35,-40h75v11l63,-11 107,114 5,15h108M1178,748l-316,-5M889,516l96,1v-32l130,2v66l63,64v31M964,2271l-72,40M1276,2120l58,-61 10,16 30,-7 25,16 -10,15 10,38 -16,12 11,37 -15,23 37,-7 10,26 -28,60M1389,2315l-66,-27 -15,-41 -27,9 -45,-20 -53,-5M1315,1351v-25l-39,-28 -8,-49 -20,-5M1143,1007l17,25 -23,45 16,4 -25,57 50,22 -8,14 30,28 -7,25 55,17 -296,64 -22,-15 10,-29 -25,-52 -51,-61 -67,-21 5,-26 -40,-15 -5,-22 223,2 2,-64 161,2 33,-74v-24M924,289h58l38,9 32,21v37l65,2v63l-2,66M1983,767l-13,-1M1925,700l-5,-27 -35,3 -30,26 -40,-8 -13,14 -108,-2M1704,557l-7,-53 17,-46M1729,111l-39,85 -28,9 -38,66 3,30 -25,37v24l-20,41 -21,-1 -22,39 -38,-7 -40,36 -15,-17 -17,28 -11,-76 5,-44 -29,-31 -58,-11 5,-89 -13,-37 -3,-56 9,-31M784,741l30,86 -8,33 16,29 -21,73 -24,-3 2,31 -17,24 -5,53M915,1212l-60,55 -38,17 -25,36 -43,16 -43,-14 -118,-2 1,-129h-65l2,-131 -65,-2 2,-97M519,898l2,25 22,7 48,-10 2,-51h73l-23,-29 1,-4 15,-26 -31,-73M989,1674l-4,268 -21,35M2743,2335l-58,17 -26,-6 -14,33 60,22 5,33 -28,-24 -33,6 -34,-37 -10,20h-41l8,-40 10,-163 68,31 80,-38 30,9 23,26 29,-20h38l41,15M1429,481l-61,102 -15,67M1117,421l84,4 119,-78 16,-28M1584,1622l12,32 -15,46 13,16 57,4 -10,-42 -25,-16h38l25,36 -15,57 -37,32 32,13 55,-3 38,-17 20,8 23,66 15,7 -58,60 -10,42 -45,11M1559,1974h-35l15,-17 -17,-35 17,-102 -53,-107M1529,1587l32,-2 26,19M844,1677v-270l-32,-27v-22l-53,-10 -10,-12M1602,362h25l4,63h91M588,1320l-98,-1 -35,64 -59,-2 -11,69M2281,1599l3,259M2304,2422l-73,1M2494,2174l-22,-5M1524,1974l48,76h-86l-37,-17 -41,17 -27,-11 -7,29M1945,2567l-22,-19 -51,-19 -88,-11 -24,-14 9,-33 -27,-58 -37,-37M2238,2218l-175,41 -32,35 -71,-11 -20,14v-34l22,-39 33,-121h-78l-34,-18 -26,3v-23l25,-42 -7,-67 -45,13 20,-24 -13,-27h-27l7,-57 26,-41 258,-12 -36,53 -17,20 -25,41 2,72 -12,4 18,57 47,32 40,19 12,32 39,25 39,49 25,-43 11,9 -6,40 -12,87 -17,10 14,41 8,67 -37,-4 -46,-8 -65,2 -25,58 -53,83 -48,67 -15,-12 3,-42 5,-75 -12,-20 -46,-14 -47,-93 -3,-22 23,-19 75,-27M1995,2103l21,-16h62M2031,2294l4,65h21v32l27,-1v23M2582,2196l-88,-22 -3,-279 -4,-5 2,-4 -3,-11 -4,-64 162,32 101,-2M2422,1598v70l20,10 15,63 20,32 5,38M1795,1854l19,6M2672,2739l-5,-89 -22,-70 -33,-47 -3,-68 26,-19 14,-30M2710,2434l30,56 30,-7 18,30 57,5 15,29 38,27 40,12M1872,2650l85,-29M2005,2554l81,-1v-21h27l20,-23 27,59 38,21 35,46 20,3 33,31 23,38 48,44 4,14 48,45 5,40 -13,40M2507,2568h-76l-17,-50 -37,-11 -30,-26 -1,-24 -42,-35 2,-93 56,-12 110,-148v195l7,44 20,34 46,30 -38,96 37,6M376,1686l19,-9 31,15 32,-15 161,1 127,6M2065,1861l219,-3v122l14,41 28,31v21l46,49 20,6 -63,24 -21,37 -29,7 -35,-18M2392,2128l67,-6 13,47"/>
  <g class="cities">
    <circle r="3" cx="260.4" cy="237.2"/>
    <text x="260.4" y="237.2">New Orleans</text>
    <circle r="3" cx="190.9" cy="200.9"/>
    <text x="190.9" y="200.9">Baton Rouge</text>
    <circle r="3" cx="26.7" cy="46.6"/>
    <text x="26.7" y="46.6">Shreveport</text>
  </g>
</svg>