<?xml version="1.0" encoding="utf-8"?>
<!DOCTYPE svg PUBLIC "-//W3C//DTD SVG 1.1//EN" "http://www.w3.org/Graphics/SVG/1.1/DTD/svg11.dtd">
<svg version="1.1" xmlns="http://www.w3.org/2000/svg" width="350" height="321" viewBox="0 0 350 321">
  <g class="counties" transform="scale(0.1)">
    <path data-fips-int="22001" data-name="Acadia Parish" d="M1052,1984l158,1 1,32 43,1 0,64 12,0 0,22 10,0 0,16 0,11 -12,0 1,11 -11,0 0,21 -22,0 0,11 -18,6 -8,11 2,14 -2,10 -6,3 -10,14 -6,0 -5,2 -6,10 -15,6 -5,15 -10,12 -19,15 -15,4 -7,7 -15,0 -14,-9 -18,-2 -7,-8 -16,-10 -9,-14 -22,-3 -9,11 -9,-2 -12,8 -7,-3 5,-8 -7,-17 5,-16 9,-8 -7,-12 17,-3 3,-18 -9,-2 -16,-19 4,-8 0,-28 -4,-14 1,-17 5,-7 -4,-10 -2,-27 17,-10 -1,-13 6,-6 -1,-7 -14,-19 -8,-20 30,1Z"/>
    <path data-fips-int="22003" data-name="Allen Parish" d="M964,1977l-91,-1 -2,38 -80,-2 -50,0 -55,-2 -1,11 -42,0 3,-130 96,1 4,-144 -1,-63 100,3 -1,-11 30,1 36,-2 1,-5 44,0 33,1 0,2 -1,67 -1,74 0,94 8,7 -5,19 -20,20 6,8Z"/>
    <path data-fips-int="22005" data-name="Ascension Parish" d="M2077,2086l21,4 15,11 13,25 3,11 17,-3 -4,11 3,7 9,4 4,9 12,-2 11,15 10,26 8,0 6,8 6,-5 4,-20 19,-18 10,8 -6,41 -69,16 -49,12 -57,13 -13,20 -18,15 -13,1 -14,-10 -32,6 -12,-8 -10,4 0,10 -10,0 -1,-34 11,-1 0,-33 10,-5 3,-17 19,-64 13,-37 -1,-2 4,-10 25,-9 14,1 9,4 13,-4 6,4Z"/>
    <path data-fips-int="22007" data-name="Assumption Parish" d="M2032,2294l1,22 2,0 0,44 21,-1 1,32 25,0 1,22 0,21 -15,0 -10,37 -29,51 -24,33 -24,34 -24,31 -6,-9 -9,-3 4,-13 -1,-29 -4,-25 8,-3 3,-13 -7,-13 5,-21 -12,-19 -13,-8 -11,0 -22,-6 -12,-12 -4,-27 -6,-8 -10,-7 2,-11 -14,-17 -3,-11 -3,-22 15,0 8,-18 76,-28 10,0 0,-10 10,-4 12,8 32,-6 14,10Z"/>
    <path data-fips-int="22009" data-name="Avoyelles Parish" d="M1365,1357l0,12 8,9 -15,0 -3,9 13,12 8,-2 -8,11 9,7 -9,5 9,4 1,10 8,-1 13,-16 5,5 0,13 11,-6 -11,-28 5,-13 11,-8 21,4 14,9 7,11 14,-1 13,12 1,9 22,11 10,0 10,7 3,6 12,4 10,-7 10,6 9,11 -4,15 -11,2 -7,9 -6,14 2,10 8,6 -2,10 -6,3 -1,9 5,3 -8,25 -17,19 -13,8 -4,12 -18,10 0,27 2,10 0,39 -2,9 -11,1 4,10 -38,0 -133,-2 -82,0 -16,0 0,-32 -28,-33 0,-21 41,0 6,2 -5,-22 -11,-104 7,-9 -6,-5 1,-69 0,-59 9,-7 8,3 8,-4 10,6 0,8 10,10 22,-3 20,-15 6,-7 3,9 32,-15 6,10Z"/>
    <path data-fips-int="22011" data-name="Beauregard Parish" d="M745,1685l1,63 -4,144 -96,-1 -3,130 0,15 -84,-2 -79,0 1,-65 -65,-2 0,65 -72,-1 -93,-2 20,-22 7,2 3,-6 -6,-13 5,-1 -8,-9 -3,-18 7,-12 -17,-15 -4,-9 8,-3 3,-11 -3,-10 9,-4 2,-7 13,-4 0,7 8,-6 -6,-13 5,-23 14,-14 20,-13 4,-10 -1,-6 11,-17 -7,-14 7,-4 -4,-5 15,-7 5,-9 1,-19 14,-4 -2,-6 7,-13 -8,-7 6,-7 0,-12 2,-6 17,-2 18,12 13,4 14,-5 15,-11 6,-1 71,2 43,0 72,2 -1,3Z"/>
    <path data-fips-int="22013" data-name="Bienville Parish" d="M825,417l-1,97 64,2 0,30 0,113 0,18 -10,16 -7,3 2,7 -4,17 -12,11 5,12 -79,-1 -40,-2 -115,-1 -4,-24 -9,-7 -5,-13 4,-11 -2,-11 -135,-2 13,-10 1,-25 -8,-1 1,-9 -5,-9 6,-12 8,-29 -14,-15 6,-13 19,5 10,-11 86,2 0,-33 56,0 0,-18 -10,-17 -4,-18 2,-17 -6,-26 72,1 61,1Z"/>
    <path data-fips-int="22015" data-name="Bossier Parish" d="M430,88l4,7 -11,32 7,3 3,18 13,14 9,-3 5,15 -8,0 3,14 8,6 0,7 8,9 -10,6 8,20 -6,18 -8,10 6,10 -3,6 15,1 -1,87 -2,54 -1,53 3,2 -1,65 43,0 -10,11 -19,-5 -6,13 14,15 -8,29 -6,12 5,9 -1,9 8,1 -1,25 -13,10 -27,-2 6,-9 -7,2 -8,-7 5,11 -6,-1 -2,-17 -12,-8 -10,2 8,-11 -2,-8 -14,7 0,-10 8,-6 -22,-7 0,-9 -12,3 -4,-15 -18,0 -2,-6 11,-14 -2,-4 -10,14 -6,-9 5,-16 -6,-2 -6,12 -4,-5 9,-6 -19,-8 2,14 -14,-5 -1,-10 15,-7 -18,-4 8,-8 3,9 9,-5 -19,-18 7,-8 -13,-14 2,-13 -14,-8 -7,0 -7,-8 0,-9 -8,-4 10,-6 -2,-11 -6,-4 12,-10 -2,-9 -12,2 -6,-6 16,-5 -10,-1 7,-16 -8,-12 -6,4 -9,-5 12,-8 -12,-11 0,-16 3,-12 -3,-14 -11,0 -7,9 -4,-2 -2,-13 20,-17 6,-12 2,-11 -4,-8 -8,-1 -8,11 -6,-8 19,-13 7,-21 0,-14 -8,8 -11,-4 7,-5 2,-9 -11,-7 -1,-17 6,-8 2,-18 -11,-5 -9,0 10,-15 12,4 2,-10 -12,5 4,-7 -7,-23 9,-8Z"/>
    <path data-fips-int="22017" data-name="Caddo Parish" d="M247,85l-9,8 7,23 -4,7 12,-5 -2,10 -12,-4 -10,15 9,0 11,5 -2,18 -6,8 1,17 11,7 -2,9 -7,5 11,4 8,-8 0,14 -7,21 -19,13 6,8 8,-11 8,1 4,8 -2,11 -6,12 -20,17 2,13 4,2 7,-9 11,0 3,14 -3,12 0,16 12,11 -12,8 9,5 6,-4 8,12 -7,16 10,1 -16,5 6,6 12,-2 2,9 -12,10 6,4 2,11 -10,6 8,4 0,9 7,8 7,0 14,8 -2,13 13,14 -7,8 19,18 -9,5 -3,-9 -8,8 18,4 -15,7 1,10 14,5 -2,-14 19,8 -9,6 4,5 6,-12 6,2 -5,16 6,9 10,-14 2,4 -11,14 2,6 18,0 4,15 12,-3 0,9 22,7 -8,6 0,10 14,-7 2,8 -8,11 10,-2 12,8 2,17 6,1 -5,-11 8,7 7,-2 -6,9 -91,-1 -1,-12 2,-8 -5,-14 -9,-5 -5,-11 -13,-11 -16,-1 -15,2 -5,-10 -6,3 -11,-13 -20,-1 -14,11 -4,14 -24,14 -5,6 -1,18 -22,18 -37,27 -58,-2 2,-69 0,-29 2,-89 1,-62 3,-50 1,-121 3,-82 0,-29 2,-80Z"/>
    <path data-fips-int="22019" data-name="Calcasieu Parish" d="M643,2036l-1,17 65,1 -1,89 22,0 -2,77 67,1 2,12 -10,8 -2,13 5,1 7,21 -69,0 0,32 -82,-1 -4,-11 -98,0 -51,-2 -121,-1 -48,-2 -63,-1 4,-10 3,8 8,-3 -1,-7 -10,0 -11,-11 7,-1 0,-8 14,-16 0,-12 6,-1 -2,-14 -6,3 4,-13 -11,-25 3,-6 4,-28 4,-11 -4,-4 3,-18 -15,-5 -7,-5 -7,-19 -10,-3 0,-8 10,-12 -4,-18 10,-14 93,2 72,1 0,-65 65,2 -1,65 79,0Z"/>
    <path data-fips-int="22021" data-name="Caldwell Parish" d="M1439,745l0,9 17,15 -4,8 5,13 -14,0 -7,11 -7,-7 -14,13 8,1 14,21 -2,9 4,8 -4,14 7,19 -9,0 0,32 -64,0 -57,0 -27,-1 -109,0 2,-163 0,-98 40,1 53,0 7,14 29,0 0,-14 46,0 25,1 2,9 -8,27 6,0 3,10 7,-1 -17,10 4,8 14,-9 -4,9 4,10 -3,9 25,-6 5,7 15,-2 11,5Z"/>
    <path data-fips-int="22023" data-name="Cameron Parish" d="M726,2308l59,1 86,0 21,2 78,1 0,20 0,165 -2,28 0,45 -2,66 -1,15 -19,-4 -60,-23 -75,-37 -43,-23 -64,-28 -18,-5 -46,-17 -3,1 -31,-10 -25,-5 -33,-1 -19,2 -30,8 -3,3 -59,-9 -25,0 -39,3 -24,5 -39,2 -39,5 -32,7 -16,5 -31,15 -15,10 -19,-33 -12,-5 0,-14 -6,-8 -17,-14 1,-18 9,-10 38,-25 12,-17 12,-23 9,-31 11,-22 12,-4 10,-15 10,-6 3,-11 9,-9 63,1 48,2 121,1 51,2 98,0 4,11Z"/>
    <path data-fips-int="22025" data-name="Catahoula Parish" d="M1641,945l-2,14 5,1 0,31 -5,17 6,13 14,21 7,11 -7,10 -6,0 -11,-10 -7,-15 -14,-2 -8,14 -8,8 -18,2 -13,-12 -12,14 -1,16 -8,19 5,26 -4,7 -16,14 -13,-8 -4,-14 -6,-4 -21,13 -13,30 1,16 8,12 16,10 8,12 -6,16 -11,9 -1,11 16,6 27,0 9,12 -2,10 -9,4 -18,0 -11,-7 -16,0 0,-9 -9,-27 -13,-10 -8,7 1,11 -6,10 6,34 13,13 8,5 19,0 9,9 -8,8 -12,2 -14,-7 -8,2 -12,14 -3,20 2,19 6,7 21,4 -2,12 -6,7 -14,1 -7,-11 -14,-9 -21,-4 -11,8 -5,13 11,28 -11,6 0,-13 -5,-5 -13,16 -8,1 -1,-10 -9,-4 9,-5 -9,-7 8,-11 -8,2 -13,-12 3,-9 15,0 -8,-9 0,-12 1,-49 0,-234 1,-66 2,-18 0,-79 64,0 0,-32 9,0 17,9 13,2 -4,9 19,20 11,-1 -2,18 16,4 0,13 14,-10 16,3 9,-11 7,0 15,-21 10,-2 6,-16 6,-4 1,-12 31,0 0,65Z"/>
    <path data-fips-int="22027" data-name="Claiborne Parish" d="M926,100l-2,103 0,43 -6,0 0,11 6,0 -1,32 -64,0 0,35 -8,1 -8,14 -7,2 -3,11 5,31 -5,19 -9,4 1,11 -54,0 -61,-1 -72,-1 -2,-11 5,-26 -4,-14 4,-5 -7,-9 0,-33 -32,-1 3,-161 1,-62 154,2Z"/>
    <path data-fips-int="22029" data-name="Concordia Parish" d="M1659,1042l72,1 21,-2 2,5 11,0 -1,9 -11,18 -2,14 3,38 -4,15 -13,7 -10,-2 -21,-8 -14,-15 -14,11 0,14 9,11 10,7 18,-1 24,-6 10,5 -5,18 -18,15 -25,10 -20,-1 -7,8 5,13 -2,29 5,22 20,24 7,19 -8,9 -16,0 -7,-3 -11,-18 -4,-16 2,-6 -8,-7 -14,9 -5,15 7,17 8,-6 4,29 26,24 0,17 -7,12 -18,8 -17,3 -28,-5 -16,1 -7,7 7,17 12,5 17,17 5,10 0,11 -6,11 -16,20 -2,13 8,9 13,10 19,18 0,21 -12,13 -34,16 -17,21 3,-17 9,-22 -2,-10 -10,-6 -20,4 -18,-3 8,-25 -5,-3 1,-9 6,-3 2,-10 -8,-6 -2,-10 6,-14 7,-9 11,-2 4,-15 -9,-11 -10,-6 -10,7 -12,-4 -3,-6 -10,-7 -10,0 -22,-11 -1,-9 -13,-12 6,-7 2,-12 -21,-4 -6,-7 -2,-19 3,-20 12,-14 8,-2 14,7 12,-2 8,-8 -9,-9 -19,0 -8,-5 -13,-13 -6,-34 6,-10 -1,-11 8,-7 13,10 9,27 0,9 16,0 11,7 18,0 9,-4 2,-10 -9,-12 -27,0 -16,-6 1,-11 11,-9 6,-16 -8,-12 -16,-10 -8,-12 -1,-16 13,-30 21,-13 6,4 4,14 13,8 16,-14 4,-7 -5,-26 8,-19 1,-16 12,-14 13,12 18,-2 8,-8 8,-14 14,2 7,15 11,10 6,0 7,-10Z"/>
    <path data-fips-int="22031" data-name="De Soto Parish" d="M359,668l11,13 3,11 23,11 12,-2 8,13 1,24 8,10 -9,4 -12,16 17,14 9,17 12,5 -1,19 13,8 1,10 12,14 10,4 10,-4 2,5 20,16 4,19 6,2 -14,0 -14,11 -6,-1 -5,-12 -15,15 2,6 -3,12 -1,33 -119,-3 -157,-1 -6,-10 5,-6 -13,-8 4,-12 -19,2 3,-12 -3,-6 -17,1 -3,-10 -6,3 -8,-15 -22,-31 0,-9 -15,0 2,-76 1,-75 58,2 37,-27 22,-18 1,-18 5,-6 24,-14 4,-14 14,-11 20,1 11,13 6,-3 5,10 15,-2 16,1 13,11 5,11 9,5 5,14 -2,8Z"/>
    <path data-fips-int="22033" data-name="East Baton Rouge Parish" d="M2064,1861l-10,8 -14,26 -7,-1 -12,12 -6,13 8,1 2,22 -8,7 11,20 -5,27 -10,4 9,17 -3,12 12,3 4,10 -9,1 6,11 8,-4 2,11 10,6 1,8 17,0 7,11 -11,4 -6,-4 -13,4 -9,-4 -14,-1 -25,9 -4,10 -6,5 -22,-3 -22,0 -11,5 -12,-1 -5,-7 -8,-11 -26,-7 -17,5 -9,-2 -4,-10 3,-10 14,-17 10,-19 2,-14 0,-51 -8,-12 -34,14 -12,-1 -2,-7 19,-13 7,-8 0,-7 -7,-10 -11,-5 -22,0 -7,-8 3,-15 12,-20 -3,-14 6,-21 11,-2 4,-14 6,-4 258,-12 4,10 -12,12 -4,-3Z"/>
    <path data-fips-int="22035" data-name="East Carroll Parish" d="M1957,440l-24,-1 0,5 -13,8 -2,6 -203,0 10,-3 6,-16 -8,-14 12,-13 18,-7 -4,-5 0,-18 5,-4 -5,-26 3,-8 14,2 -1,-13 13,-25 8,-7 2,-52 -4,-2 4,-28 7,-9 6,6 6,-20 -1,-15 6,-12 -4,-6 6,-9 12,-3 8,-19 -4,-8 7,-4 -1,-10 61,1 -2,10 -20,22 1,8 -7,8 -1,12 10,13 12,4 20,-3 9,-17 -4,-19 4,-8 -3,-11 17,-7 11,5 6,15 -1,11 12,20 -3,19 -21,26 -6,1 -18,16 -8,23 -2,26 6,21 11,8 27,-3 18,10 -8,25 -6,6 -28,11 -16,15 -2,13 6,19 10,12 12,-3 37,-13 9,-23 6,-6 8,5 6,12 -2,14 -16,17Z"/>
    <path data-fips-int="22037" data-name="East Feliciana Parish" d="M2117,1600l-11,9 0,14 -12,26 7,20 2,16 -7,12 1,8 9,3 2,12 -6,6 11,13 -9,11 4,19 -6,14 1,9 6,5 -7,11 -258,12 -6,4 -4,14 -11,2 -6,21 -4,-2 -1,-15 -10,-18 6,-9 12,-5 -2,-7 6,-8 0,-9 7,-8 6,1 19,-28 -5,-6 11,-8 -5,-7 7,-18 -4,-5 7,-9 1,-19 7,0 -1,-19 4,-1 10,-14 -6,-6 2,-19 6,-2 4,-19 123,0Z"/>
    <path data-fips-int="22039" data-name="Evangeline Parish" d="M1190,1625l0,21 28,33 0,32 16,0 0,42 2,6 23,13 -1,70 -18,13 -2,23 -5,5 0,37 -33,0 -1,22 -4,-1 -87,0 -27,3 -7,5 -4,24 -11,3 -7,8 -59,-1 -30,-1 1,-5 11,-14 -6,-8 20,-20 5,-19 -8,-7 0,-94 1,-74 1,-67 27,-2 18,0 1,5 19,-6 9,-10 1,-28 14,-2 6,-7 24,-11 4,-11 12,-5 30,17 -2,7 8,-3 0,8Z"/>
    <path data-fips-int="22041" data-name="Franklin Parish" d="M1703,556l-5,6 7,11 13,10 1,6 -9,8 -7,-1 -4,-10 -11,14 5,6 12,0 0,16 -17,0 -2,17 -11,-7 -6,9 4,12 0,17 -10,-4 -10,4 8,10 14,2 8,-6 -9,17 -9,0 -6,11 34,3 0,35 -8,7 0,23 3,7 -5,6 12,4 0,9 -7,9 -1,17 -5,19 9,7 -1,14 -11,5 2,7 -10,9 9,6 1,19 -8,11 -14,2 -13,12 -5,10 -14,0 0,-65 -31,0 -1,12 -6,4 -6,16 -10,2 -15,21 -7,0 -9,11 -16,-3 -14,10 0,-13 -16,-4 2,-18 -11,1 -19,-20 4,-9 -13,-2 -17,-9 -7,-19 4,-14 -4,-8 2,-9 -14,-21 -8,-1 14,-13 7,7 7,-11 14,0 -5,-13 4,-8 -17,-15 0,-9 6,-11 8,-6 16,1 8,-3 7,-13 4,-14 17,-10 3,-9 8,-3 3,-11 -3,-15 4,-3 6,-22 -1,-17 23,0 6,-6 7,0 3,-20 12,-2 0,-9 19,-4 9,-12Z"/>
    <path data-fips-int="22043" data-name="Grant Parish" d="M1144,1007l1,11 4,0 11,15 -14,13 5,4 -6,12 -6,-1 4,19 9,0 1,5 -8,6 6,2 -4,7 -6,-1 3,22 -5,8 10,-4 1,9 -11,-1 0,6 -8,-3 10,11 13,8 24,6 -5,8 9,8 -1,15 13,3 -3,5 10,6 -9,19 4,6 13,0 5,-8 6,4 -6,11 22,-4 2,8 9,2 -51,12 -17,2 -51,11 -60,15 -47,10 -50,12 -19,2 -6,-13 -3,6 -11,-1 -1,-7 11,-5 -10,-12 7,-12 -9,2 -6,-5 0,-14 10,-2 -6,-14 10,-1 -2,-6 -9,5 -11,-18 -26,-22 4,-7 -20,-16 -8,-14 -26,-4 -17,-12 -10,1 -16,-7 0,-8 5,-16 -13,-4 -5,-11 -11,1 -10,-3 2,-15 -8,-7 74,2 86,0 64,0 1,-64 96,0Z"/>
    <path data-fips-int="22045" data-name="Iberia Parish" d="M1432,2615l4,4 17,-3 0,4 14,-1 0,7 11,11 13,1 3,10 10,-5 7,4 1,12 18,1 8,-6 -3,14 20,-6 -5,13 -30,21 -3,-2 -6,18 4,10 -14,6 -9,-3 -13,8 -16,-3 -5,-14 -5,-4 -14,2 -15,-13 -6,-1 -23,-13 -6,5 -6,-9 -36,-19 -6,-8 9,2 2,-12 9,-10 16,-7 8,5 21,-3 5,-18 8,3 9,-6ZM1772,2300l64,-1 9,16 9,7 7,-10 5,3 -1,10 -8,18 -15,0 3,22 -140,11 -98,9 -55,73 -78,65 -17,15 -4,-7 -12,0 21,-39 1,11 6,8 9,-10 0,-19 -2,-11 -22,2 -13,-7 -14,1 -8,13 -15,0 -15,-7 -6,-7 -13,-112 7,-4 12,-35 8,-27 29,1 6,11 14,-7 36,17 13,-16 -1,-3 18,-14 6,-15 24,-10 8,4 10,-2 14,11 10,-3 20,28 11,3 3,17 5,9 60,0 8,-6 4,-13Z"/>
    <path data-fips-int="22047" data-name="Iberville Parish" d="M1697,1975l16,19 4,-3 38,49 0,10 21,10 16,22 11,6 5,16 47,-1 62,0 5,7 12,1 11,-5 22,0 22,3 6,-5 1,2 -13,37 -19,64 -3,17 -10,5 0,33 -11,1 1,34 -76,28 1,-10 -5,-3 -7,10 -9,-7 -9,-16 -64,1 -2,-17 -12,-15 -45,0 -8,-10 8,-11 -8,-10 3,-4 -3,-29 -7,-5 -4,-9 9,-17 -22,-8 -36,-2 -14,-11 0,-12 -21,-26 -5,-16 2,-8 -3,-11 -11,-8 12,-8 2,-13 -2,-16 -7,-9 0,-10 -14,-14 -8,-10 -7,-1 -10,-16 75,1 0,10 17,0 0,-4 20,-6Z"/>
    <path data-fips-int="22049" data-name="Jackson Parish" d="M1178,649l0,98 -141,-1 -88,-2 -87,-1 -5,-12 12,-11 4,-17 -2,-7 7,-3 10,-16 0,-18 0,-113 0,-30 98,1 0,-32 129,2 0,65 64,65Z"/>
    <path data-fips-int="22053" data-name="Jefferson Davis Parish" d="M965,2101 -1,17 4,14 0,28 -4,8 16,19 9,2 -3,18 -17,3 7,12 -9,8 -5,16 7,17 -5,8 -8,15 -23,1 -7,8 -25,7 -9,9 -21,-2 -86,0 -59,-1 0,-32 69,0 -7,-21 -5,-1 2,-13 10,-8 -2,-12 -67,-1 2,-77 -22,0 1,-89 -65,-1 1,-17 0,-15 42,0 1,-11 55,2 50,0 80,2 2,-38 91,1 -1,5 8,20 14,19 1,7 -6,6 1,13 -17,10 2,27 4,10Z"/>
    <path data-fips-int="22055" data-name="Lafayette Parish" d="M1375,2068l21,8 -1,18 -6,9 6,11 4,23 -17,12 11,18 10,0 -10,18 -12,1 -2,21 11,5 6,-8 13,3 8,-4 9,16 1,10 -18,25 -12,34 -8,27 -66,-27 -8,-25 -5,-3 -1,-13 -25,9 -48,-20 -16,4 -10,-5 -10,3 -16,-6 6,0 10,-14 6,-3 2,-10 -2,-14 8,-11 18,-6 0,-11 22,0 0,-21 11,0 -1,-11 12,0 0,-11 31,-23 5,-6 2,-16 10,-5 11,-11 10,14 5,2 7,-8 9,5Z"/>
    <path data-fips-int="22059" data-name="La Salle Parish" d="M1365,1357l-8,-3 -6,-10 -32,15 -3,-9 7,-4 0,-10 -18,-17 -3,4 -4,-9 -20,-15 -9,-26 3,-10 -8,-3 4,-12 -10,-2 -7,5 -4,-7 -9,-2 -2,-8 -22,4 6,-11 -6,-4 -5,8 -13,0 -4,-6 9,-19 -10,-6 3,-5 -13,-3 1,-15 -9,-8 5,-8 -24,-6 -13,-8 -10,-11 8,3 0,-6 11,1 -1,-9 -10,4 5,-8 -3,-22 6,1 4,-7 -6,-2 8,-6 -1,-5 -9,0 -4,-19 6,1 6,-12 -5,-4 14,-13 -11,-15 -4,0 -1,-11 15,-16 -2,-11 8,-12 -5,-2 10,-8 -1,-18 7,-7 0,-23 109,0 27,1 57,0 0,79 -2,18 -1,66 0,234Z"/>
    <path data-fips-int="22061" data-name="Lincoln Parish" d="M1116,422l-1,65 -129,-2 0,32 -98,-1 -64,-2 1,-97 -1,-11 9,-4 5,-19 -5,-31 3,-11 7,-2 8,-14 8,-1 0,-35 64,0 61,0 8,6 10,-2 9,6 9,0 13,21 18,-1 1,38 65,0Z"/>
    <path data-fips-int="22063" data-name="Livingston Parish" d="M2284,1859l0,79 1,42 6,1 3,10 4,30 13,9 8,9 0,11 7,3 2,9 -2,10 7,-4 1,8 8,0 3,16 20,23 15,10 12,4 -10,4 -24,4 -27,13 -18,31 -11,12 -13,5 -12,-3 -13,-15 -20,-3 -10,-8 -19,18 -4,20 -6,5 -6,-8 -8,0 -10,-26 -11,-15 -12,2 -4,-9 -9,-4 -3,-7 4,-11 -17,3 -3,-11 -13,-25 -15,-11 -21,-4 -7,-11 -17,0 -1,-8 -10,-6 -2,-11 -8,4 -6,-11 9,-1 -4,-10 -12,-3 3,-12 -9,-17 10,-4 5,-27 -11,-20 8,-7 -2,-22 -8,-1 6,-13 12,-12 7,1 14,-26 10,-8 80,-2 87,0Z"/>
    <path data-fips-int="22065" data-name="Madison Parish" d="M1983,768l-14,-3 2,-25 -5,-17 27,15 8,-1 1,14 -11,13ZM1925,701l1,-22 -8,-7 -20,4 -16,1 -20,11 -7,13 -21,-11 -29,10 -4,7 -108,0 -34,-3 6,-11 9,0 9,-17 -8,6 -14,-2 -8,-10 10,-4 10,4 0,-17 -4,-12 6,-9 11,7 2,-17 17,0 0,-16 -12,0 -5,-6 11,-14 4,10 7,1 9,-8 -1,-6 -13,-10 -7,-11 5,-6 -6,-5 0,-16 10,-4 -8,-23 -2,-13 12,-28 6,-9 203,0 2,-6 13,-8 0,-5 24,1 -6,4 4,8 17,12 23,9 14,15 -8,11 -23,-6 -7,-6 -16,-26 -12,-11 -6,9 -8,33 2,10 14,18 22,11 18,4 21,-13 9,3 8,10 -2,13 -15,10 -7,23 3,11 12,5 43,8 7,-8 6,-16 10,2 -15,27 -1,9 -8,12 -21,15 -11,-10 -9,3 -2,17 6,15 -5,24 -6,15 -5,5 -2,-23 -12,-11 -16,-3 -9,17 -9,-7 -9,2 -11,13Z"/>
    <path data-fips-int="22067" data-name="Morehouse Parish" d="M1729,110l-2,12 -7,5 8,1 -13,13 -4,10 -10,9 3,9 -14,16 2,11 -15,11 -14,0 -16,15 -4,10 0,12 -11,14 1,8 -10,9 6,9 0,16 -14,20 -8,4 -5,13 9,4 2,11 -10,10 -6,19 -15,22 -8,-3 -4,6 -14,-3 -10,10 -7,15 -2,14 -9,-1 -8,5 -18,-12 -12,2 0,10 -8,2 -6,8 0,16 -12,0 -17,-19 -8,6 -1,16 -9,6 7,-9 -1,-8 -9,-11 -5,-17 -3,-31 7,-12 -2,-15 9,-6 -1,-7 -11,-3 -3,6 -18,-16 -8,-24 -14,5 -6,-3 -12,5 -6,-8 -5,5 9,6 -12,9 4,-11 -8,3 -2,-7 7,-11 -11,-1 0,-10 8,0 -6,-17 6,-16 0,-13 -9,-25 7,-4 -14,-21 -3,-13 4,-39 0,-15 -5,-7 7,-7 -4,-5 6,-5 2,-16 124,2 183,1 72,0Z"/>
    <path data-fips-int="22069" data-name="Natchitoches Parish" d="M783,742l8,25 14,17 -4,14 8,13 2,14 4,8 0,10 -9,17 11,5 0,23 6,5 -6,3 -8,17 2,9 -6,8 -4,19 6,7 -8,7 -26,-5 8,25 -8,-3 2,12 -4,20 -10,2 -2,12 2,24 -4,17 8,7 -2,15 10,3 11,-1 5,11 13,4 -5,16 0,8 16,7 10,-1 17,12 26,4 8,14 20,16 -4,7 26,22 -27,23 0,8 -11,-1 0,6 -11,10 -11,0 0,10 -11,0 0,6 -10,0 0,11 -16,0 0,11 -11,0 0,10 -16,0 0,16 -22,0 0,16 -21,-1 -7,-10 -26,0 0,-3 -84,-2 -45,0 2,-57 0,-72 -64,-1 2,-131 -66,-2 2,-53 0,-44 1,-33 3,-12 -2,-6 15,-15 5,12 6,1 14,-11 14,0 -3,8 9,12 -4,5 22,8 8,-6 7,6 17,-4 8,-13 9,7 1,-51 73,1 -9,-8 -10,-16 -3,-11 0,-6 11,-9 3,-9 -4,-14 -12,-10 0,-10 7,-5 -21,-33 115,1Z"/>
    <path data-fips-int="22071" data-name="Orleans Parish" d="M2891,2219l-8,9 -12,19 -14,10 -2,19 -8,6 -16,3 -6,6 0,9 9,15 -11,4 -10,-11 -20,-6 -24,2 -27,31 -13,12 -3,-7 -11,-5 -9,3 -15,14 -9,-1 -12,-10 -11,5 -14,32 17,12 11,4 22,0 9,6 12,23 -5,12 -5,-1 -11,-17 -15,-7 -20,-2 0,12 -12,-4 -1,-3 -32,-34 -1,11 -7,9 -19,6 -19,-1 -6,-7 0,-20 9,-18 7,-121 4,-42 23,12 16,1 11,4 19,14 54,-29 25,-10 7,7 25,5 6,7 3,14 11,3 28,-20 8,1 14,11 22,-11 20,12Z"/>
    <path data-fips-int="22073" data-name="Ouachita Parish" d="M1429,481l-11,10 -14,37 -19,21 -12,24 -6,25 -5,38 -9,14 -46,0 0,14 -29,0 -7,-14 -53,0 -40,-1 1,-32 -64,-65 0,-65 1,-65 68,1 6,-4 16,5 13,-5 16,-2 2,-14 52,-38 0,-10 13,1 14,-7 19,-29 11,1 -7,11 2,7 8,-3 -4,11 12,-9 -9,-6 5,-5 6,8 12,-5 6,3 14,-5 8,24 18,16 3,-6 11,3 1,7 -9,6 2,15 -7,12 3,31 5,17 9,11 1,8Z"/>
    <path data-fips-int="22077" data-name="Pointe Coupee Parish" d="M1587,1605l-3,17 4,14 8,18 -8,15 -7,22 0,9 13,16 15,3 22,-5 18,7 3,-8 -3,-19 -12,-19 -9,-4 -11,3 -2,-13 33,0 18,10 12,23 -1,17 -14,45 -10,9 -21,6 -5,15 15,11 17,3 32,-10 12,1 11,6 23,-7 16,-9 11,-1 12,14 7,18 2,16 7,24 4,3 1,4 13,2 -7,12 -29,34 0,13 -23,0 -6,22 -3,0 0,22 -43,0 -2,11 -26,0 -20,6 0,4 -17,0 0,-10 -75,-1 -35,-1 4,-8 9,1 2,-9 -6,-7 -10,-25 4,-30 -2,-8 9,-12 -4,-21 10,-9 -3,-6 1,-19 -15,-27 1,-15 -7,-17 -26,-22 7,-12 -11,-14 -4,-10 11,-1 2,-9 0,-39 -2,-10 0,-27 18,-10 4,-12 13,-8 23,9 7,-9 7,-1 13,7Z"/>
    <path data-fips-int="22079" data-name="Rapides Parish" d="M1247,1244l4,7 7,-5 10,2 -4,12 8,3 -3,10 9,26 20,15 4,9 3,-4 18,17 0,10 -7,4 -6,7 -20,15 -22,3 -10,-10 0,-8 -10,-6 -8,4 -8,-3 -9,7 0,59 -1,69 6,5 -7,9 11,104 5,22 -6,-2 -41,0 -31,1 0,-8 -8,3 2,-7 -30,-17 -12,5 -4,11 -24,11 -6,7 -14,2 -1,28 -9,10 -19,6 -1,-5 -18,0 -27,2 0,-2 -33,-1 -44,0 -1,5 -36,2 -30,-1 1,-90 -2,0 0,-118 1,-61 -11,-1 0,-15 -10,-1 0,-10 -10,-1 0,-21 -11,0 0,-6 -21,0 0,-5 -22,-1 0,-5 -10,0 0,-6 21,1 0,-16 22,0 0,-16 16,0 0,-10 11,0 0,-11 16,0 0,-11 10,0 0,-6 11,0 0,-10 11,0 11,-10 0,-6 11,1 0,-8 27,-23 11,18 9,-5 2,6 -10,1 6,14 -10,2 0,14 6,5 9,-2 -7,12 10,12 -11,5 1,7 11,1 3,-6 6,13 19,-2 50,-12 47,-10 60,-15 51,-11 17,-2Z"/>
    <path data-fips-int="22081" data-name="Red River Parish" d="M628,739l21,33 -7,5 0,10 12,10 4,14 -3,9 -11,9 0,6 3,11 10,16 9,8 -73,-1 -1,51 -9,-7 -8,13 -17,4 -7,-6 -8,6 -22,-8 4,-5 -9,-12 3,-8 -6,-2 -4,-19 -20,-16 -2,-5 -10,4 -10,-4 -12,-14 -1,-10 -13,-8 1,-19 -12,-5 -9,-17 -17,-14 12,-16 9,-4 -8,-10 -1,-24 -8,-13 -12,2 -23,-11 -3,-11 -11,-13 91,1 27,2 135,2 2,11 -4,11 5,13 9,7Z"/>
    <path data-fips-int="22083" data-name="Richland Parish" d="M1723,425l8,14 -6,16 -10,3 -6,9 -12,28 2,13 8,23 -10,4 0,16 6,5 -99,0 -9,12 -19,4 0,9 -12,2 -3,20 -7,0 -6,6 -23,0 1,17 -6,22 -4,3 3,15 -3,11 -8,3 -3,9 -17,10 -4,14 -7,13 -8,3 -16,-1 -8,6 -6,11 3,-8 -11,-5 -15,2 -5,-7 -25,6 3,-9 -4,-10 4,-9 -14,9 -4,-8 17,-10 -7,1 -3,-10 -6,0 8,-27 -2,-9 -25,-1 9,-14 5,-38 6,-25 12,-24 19,-21 14,-37 11,-10 9,-6 1,-16 8,-6 17,19 12,0 0,-16 6,-8 8,-2 0,-10 12,-2 18,12 8,-5 9,1 2,-14 7,-15 10,-10 14,3 4,-6 8,3 15,-22 6,-19 25,1 1,62Z"/>
    <path data-fips-int="22085" data-name="Sabine Parish" d="M463,961l0,44 -2,53 66,2 -2,131 64,1 0,72 -2,57 -98,-2 -34,65 -58,-2 -1,19 -13,7 7,29 -6,13 -24,15 -8,-12 1,-15 -4,-3 8,-11 -1,-8 -14,-2 4,-15 -4,-13 -14,1 -4,-12 -6,3 -6,-13 -12,-9 9,-10 3,-22 14,-3 5,-11 -19,5 0,-21 -21,-15 8,-20 -10,-1 3,-10 -17,-2 -12,-9 2,-12 6,1 10,-7 0,-6 8,-8 -17,-1 -7,-13 -4,4 -19,-1 -22,-24 1,-10 -8,-7 -4,-20 14,-13 0,-18 -5,-9 2,-8 12,-8 6,-14 -14,-4 2,-17 -13,-16 6,-6 3,-10 -10,-6 0,-15 -9,0 -11,-10 -5,-22 157,1Z"/>
    <path data-fips-int="22089" data-name="Saint Charles Parish" d="M2508,2568l-73,1 -12,-11 -1,-22 -7,-8 -1,-11 -22,-9 -15,-1 -17,-13 -13,-14 -2,-24 -13,-15 -10,1 -12,-18 -5,-2 4,-25 -5,-10 -1,-34 -4,0 0,-13 6,0 1,-11 28,-10 7,1 22,-4 31,-43 78,-105 0,9 0,184 4,33 5,17 16,17 2,14 47,32 -3,11 -21,44Z"/>
    <path data-fips-int="22091" data-name="Saint Helena Parish" d="M2281,1599l2,77 0,108 1,14 0,61 -53,0 -87,0 -80,2 26,-34 4,3 12,-12 -4,-10 7,-11 -6,-5 -1,-9 6,-14 -4,-19 9,-11 -11,-13 6,-6 -2,-12 -9,-3 -1,-8 7,-12 -2,-16 -7,-20 12,-26 0,-14 11,-9Z"/>
    <path data-fips-int="22093" data-name="Saint James Parish" d="M2231,2424l-8,0 -13,-6 -27,-6 1,-4 -20,-2 -16,-6 0,11 -65,2 -1,-22 -25,0 -1,-32 -21,1 0,-44 -2,0 -1,-22 18,-15 13,-20 57,-13 49,-12 69,-16 -7,53 -11,1 7,32 -18,11 14,41 1,11 -6,1 1,10 5,0 1,31Z"/>
    <path data-fips-int="22095" data-name="Saint John the Baptist Parish" d="M2472,2168l-78,105 -31,43 -22,4 -7,-1 -28,10 -1,11 -6,0 0,13 4,0 1,34 5,10 -4,25 -35,-1 -10,7 -1,-5 -15,-3 -13,4 -6,-15 -1,-31 -5,0 -1,-10 6,-1 -1,-11 -14,-41 18,-11 -7,-32 11,-1 7,-53 6,-41 20,3 13,15 12,3 13,-5 11,-12 18,-31 27,-13 24,-4 10,-4 16,1 17,-10 19,-2 15,4Z"/>
    <path data-fips-int="22097" data-name="Saint Landry Parish" d="M1487,1713l11,14 -7,12 26,22 7,17 -1,15 15,27 -1,19 3,6 -10,9 4,21 -9,12 2,8 -4,30 10,25 6,7 -2,9 -9,-1 -4,8 1,10 11,25 9,0 6,15 10,13 2,9 10,5 -21,1 -66,-1 -13,-9 -9,0 -13,-8 -44,17 -17,-12 -9,2 -2,19 -4,9 -9,4 -9,-5 -7,8 -5,-2 -10,-14 -11,11 -10,5 -2,16 -5,6 -31,23 0,-16 -10,0 0,-22 -12,0 0,-64 -43,-1 -1,-32 -158,-1 7,-8 11,-3 4,-24 7,-5 27,-3 87,0 4,1 1,-22 33,0 0,-37 5,-5 2,-23 18,-13 1,-70 -23,-13 -2,-6 0,-42 82,0 133,2Z"/>
    <path data-fips-int="22099" data-name="Saint Martin Parish" d="M1945,2566l-8,-2 -14,-16 -16,0 -13,-3 -23,-17 -9,2 -45,-12 -34,-1 -23,-12 8,-38 -18,-31 -5,-20 -40,-34 0,-6 140,-11 3,11 14,17 -2,11 10,7 6,8 4,27 12,12 22,6 11,0 13,8 12,19 -5,21 7,13 -3,13 -8,3ZM1772,2300l-77,0 -4,13 -8,6 -60,0 -5,-9 -3,-17 -11,-3 -20,-28 -10,3 -14,-11 -10,2 -8,-4 -24,10 -6,15 -18,14 1,3 -13,16 -36,-17 -14,7 -6,-11 -29,-1 12,-34 18,-25 -1,-10 -9,-16 -8,4 -13,-3 -6,8 -11,-5 2,-21 12,-1 10,-18 -10,0 -11,-18 17,-12 -4,-23 -6,-11 6,-9 1,-18 -21,-8 4,-9 2,-19 9,-2 17,12 44,-17 13,8 9,0 13,9 66,1 21,-1 -10,-5 -2,-9 -10,-13 -6,-15 -9,0 -11,-25 -1,-10 35,1 10,16 7,1 8,10 14,14 0,10 7,9 2,16 -2,13 -12,8 11,8 3,11 -2,8 5,16 21,26 0,12 14,11 36,2 22,8 -9,17 4,9 7,5 3,29 -3,4 8,10 -8,11 8,10 45,0 12,15Z"/>
    <path data-fips-int="22103" data-name="Saint Tammany Parish" d="M2747,1841l0,11 6,-4 8,8 -1,31 5,5 0,9 4,13 14,-1 -6,9 10,9 18,31 21,10 11,17 14,10 3,29 -3,5 18,37 12,6 8,25 -9,5 1,14 5,6 -1,16 12,10 2,19 9,5 9,17 11,6 13,-9 9,-2 6,13 -21,-2 -17,22 -25,-4 -2,2 -16,-2 -20,-12 -22,11 -14,-11 -8,-1 -28,20 -11,-3 -3,-14 -6,-7 -25,-5 -7,-7 -25,10 -54,29 -19,-14 -11,-4 -16,-1 -23,-12 -44,-9 -28,-11 -17,-3 -1,-115 -2,-38 -1,-111 1,-12 -4,-6 1,-6 -1,-4 2,-19 -1,-5 -1,0 1,0 -1,-1 0,1 0,-1 -3,-13 2,-20 -4,-12 132,25 35,8 59,-1Z"/>
    <path data-fips-int="22105" data-name="Tangipahoa Parish" d="M2422,1597l0,71 12,2 0,9 8,0 -1,12 6,14 8,8 4,15 -2,13 9,8 5,17 4,3 0,12 7,19 0,11 4,12 -2,20 3,13 0,1 0,-1 1,1 -1,0 1,0 1,5 -2,19 1,4 -1,6 4,6 -1,12 1,111 2,38 1,115 -21,-9 -1,4 -13,-46 -15,-4 -19,2 -17,10 -16,-1 -12,-4 -15,-10 -20,-23 -3,-16 -8,0 -1,-8 -7,4 2,-10 -2,-9 -7,-3 0,-11 -8,-9 -13,-9 -4,-30 -3,-10 -6,-1 -1,-42 0,-79 0,-61 -1,-14 0,-108 -2,-77 81,-1Z"/>
    <path data-fips-int="22107" data-name="Tensas Parish" d="M1925,701l-7,-1 -19,14 -5,21 0,14 6,10 33,6 5,5 5,-9 12,-1 14,5 14,3 -2,15 -30,18 2,19 -12,1 -10,-6 -11,-16 -7,-2 -12,13 8,12 36,8 10,15 -14,17 -9,4 -31,4 -16,17 -3,18 6,2 2,11 -13,7 -22,24 -19,9 -1,10 14,14 -8,16 -16,-4 -4,-9 -3,-24 -27,7 -5,6 -12,50 0,12 19,0 31,-9 14,4 2,5 -10,11 -24,-3 -22,0 -14,2 -6,9 1,-9 -11,0 -2,-5 -21,2 -72,-1 -14,-21 -6,-13 5,-17 0,-31 -5,-1 2,-14 5,-10 13,-12 14,-2 8,-11 -1,-19 -9,-6 10,-9 -2,-7 11,-5 1,-14 -9,-7 5,-19 1,-17 7,-9 0,-9 -12,-4 5,-6 -3,-7 0,-23 8,-7 0,-35 108,0 4,-7 29,-10 21,11 7,-13 20,-11 16,-1 20,-4 8,7Z"/>
    <path data-fips-int="22111" data-name="Union Parish" d="M1334,107l-2,16 -6,5 4,5 -7,7 5,7 0,15 -4,39 3,13 14,21 -7,4 9,25 0,13 -6,16 6,17 -8,0 0,10 -19,29 -14,7 -13,-1 0,10 -52,38 -2,14 -16,2 -13,5 -16,-5 -6,4 -68,-1 1,-65 -65,0 -1,-38 -18,1 -13,-21 -9,0 -9,-6 -10,2 -8,-6 -61,0 1,-32 -6,0 0,-11 6,0 0,-43 2,-103 20,0 240,6Z"/>
    <path data-fips-int="22113" data-name="Vermilion Parish" d="M1184,2232l16,6 10,-3 10,5 16,-4 48,20 25,-9 1,13 5,3 8,25 66,27 -12,35 -7,4 13,112 -10,12 5,9 -3,8 -34,10 -25,14 -24,15 -20,19 -4,-7 7,-3 9,-12 0,-12 -10,-5 -11,13 -3,-9 -8,2 1,15 -19,-10 -4,6 6,14 20,17 13,7 6,-5 24,1 0,5 -21,21 6,10 3,13 9,16 2,-5 25,0 20,-10 18,14 -26,-1 -16,12 2,5 14,1 -8,7 -29,-3 -36,3 -35,14 -25,17 -21,5 -20,-1 -54,-13 -12,-1 -36,-7 -57,-8 -37,-8 1,-15 2,-66 0,-45 2,-28 0,-165 0,-20 -78,-1 9,-9 25,-7 7,-8 23,-1 8,-15 7,3 12,-8 9,2 9,-11 22,3 9,14 16,10 7,8 18,2 14,9 15,0 7,-7 15,-4 19,-15 10,-12 5,-15 15,-6 6,-10Z"/>
    <path data-fips-int="22115" data-name="Vernon Parish" d="M749,1336l0,6 10,0 0,5 22,1 0,5 21,0 0,6 11,0 0,21 10,1 0,10 10,1 0,15 11,1 -1,61 0,118 2,0 -1,90 1,11 -100,-3 -99,-2 1,-3 -72,-2 -43,0 -71,-2 -6,1 -15,11 -14,5 -13,-4 -18,-12 -17,2 -2,6 -10,-13 5,-6 11,-1 -6,-11 7,-11 3,4 11,-6 -3,-22 -26,-12 5,-12 -8,-7 7,-10 8,7 10,-3 4,-9 16,-6 -10,-7 2,-5 -7,-8 9,-7 -5,-6 -15,-5 -8,-11 8,-4 7,-12 -5,-30 8,-2 -4,-9 5,-11 -11,0 6,-13 -7,-29 13,-7 1,-19 58,2 34,-65 98,2 45,0 84,2 0,3 26,0Z"/>
    <path data-fips-int="22117" data-name="Washington Parish" d="M2747,1841l-39,2 -59,1 -35,-8 -132,-25 0,-11 -7,-19 0,-12 -4,-3 -5,-17 -9,-8 2,-13 -4,-15 -8,-8 -6,-14 1,-12 -8,0 0,-9 -12,-2 0,-71 226,-3 151,-3 15,-2 1,18 -5,11 -13,17 9,15 -3,7 -10,1 6,8 -11,2 -4,17 8,8 -3,9 -7,-2 -5,17 6,0 -2,13 -8,2 -13,23 -6,-1 2,35 -7,5 5,10 -8,-2 -2,9 6,5 -6,22Z"/>
    <path data-fips-int="22119" data-name="Webster Parish" d="M606,93l-1,62 -3,161 32,1 0,33 7,9 -4,5 4,14 -5,26 2,11 6,26 -2,17 4,18 10,17 0,18 -56,0 0,33 -86,-2 -43,0 1,-65 -3,-2 1,-53 2,-54 1,-87 -15,-1 3,-6 -6,-10 8,-10 6,-18 -8,-20 10,-6 -8,-9 0,-7 -8,-6 -3,-14 8,0 -5,-15 -9,3 -13,-14 -3,-18 -7,-3 11,-32 -4,-7Z"/>
    <path data-fips-int="22121" data-name="West Baton Rouge Parish" d="M1917,2103l-62,0 -47,1 -5,-16 -11,-6 -16,-22 -21,-10 0,-10 -38,-49 -4,3 -16,-19 2,-11 43,0 0,-22 3,0 6,-22 23,0 0,-13 29,-34 7,-12 -13,-2 -1,-4 17,4 4,2 3,14 -12,20 -3,15 7,8 22,0 11,5 7,10 0,7 -7,8 -19,13 2,7 12,1 34,-14 8,12 0,51 -2,14 -10,19 -14,17 -3,10 4,10 9,2 17,-5 26,7Z"/>
    <path data-fips-int="22123" data-name="West Carroll Parish" d="M1836,110l1,10 -7,4 4,8 -8,19 -12,3 -6,9 4,6 -6,12 1,15 -6,20 -6,-6 -7,9 -4,28 4,2 -2,52 -8,7 -13,25 1,13 -14,-2 -3,8 5,26 -5,4 0,18 4,5 -18,7 -12,13 -94,0 -1,-62 -25,-1 10,-10 -2,-11 -9,-4 5,-13 8,-4 14,-20 0,-16 -6,-9 10,-9 -1,-8 11,-14 0,-12 4,-10 16,-15 14,0 15,-11 -2,-11 14,-16 -3,-9 10,-9 4,-10 13,-13 -8,-1 7,-5 2,-12Z"/>
    <path data-fips-int="22125" data-name="West Feliciana Parish" d="M1813,1859l-17,-4 -4,-3 -7,-24 -2,-16 -7,-18 -12,-14 -11,1 -16,9 -23,7 -11,-6 -12,-1 -32,10 -17,-3 -15,-11 5,-15 21,-6 10,-9 14,-45 1,-17 -12,-23 -18,-10 -33,0 2,13 11,-3 9,4 12,19 3,19 -3,8 -18,-7 -22,5 -15,-3 -13,-16 0,-9 7,-22 8,-15 -8,-18 -4,-14 17,-21 293,0 -4,19 -6,2 -2,19 6,6 -10,14 -4,1 1,19 -7,0 -1,19 -7,9 4,5 -7,18 5,7 -11,8 5,6 -19,28 -6,-1 -7,8 0,9 -6,8 2,7 -12,5 -6,9 10,18ZM1587,1605l-8,-12 -13,-7 -7,1 -7,9 -23,-9 17,-19 18,3 20,-4 10,6 2,10Z"/>
    <path data-fips-int="22127" data-name="Winn Parish" d="M862,743l87,1 88,2 141,1 -2,163 0,23 -7,7 1,18 -10,8 5,2 -8,12 2,11 -15,16 -66,-2 -96,0 -1,64 -64,0 -86,0 -74,-2 4,-17 -2,-24 2,-12 10,-2 4,-20 -2,-12 8,3 -8,-25 26,5 8,-7 -6,-7 4,-19 6,-8 -2,-9 8,-17 6,-3 -6,-5 0,-23 -11,-5 9,-17 0,-10 -4,-8 -2,-14 -8,-13 4,-14 -14,-17 -8,-25Z"/>
    <path data-fips-int="22075" data-name="Plaquemines Parish" d="M3267,2932l6,0 -4,9 -11,-5ZM2746,2846l-10,2 -8,-5 -10,3 11,-9 13,0ZM2767,2836l-6,-10 10,-6 2,-10 15,5 1,11 -7,0ZM2844,2798l7,8 12,-2 9,-7 13,0 12,13 5,10 -5,5 4,9 -6,3 -5,-6 -10,6 -9,12 6,16 -11,-4 -3,-15 -16,2 -4,6 -15,-4 -53,-6 10,-4 31,-20 7,10 6,0 -5,-14 5,-10ZM3066,2788l8,3 -7,5 -10,-12ZM2955,2771l5,-12 9,8 -9,8ZM2741,2746l-3,10 -7,1 -2,-7ZM2698,2757l-3,-12 15,2ZM2724,2746l-8,3 9,-12 9,3ZM2878,2683l-5,12 -10,-6 4,-6ZM2934,2669l-5,14 -14,17 0,-20 -3,-4 9,-9ZM2882,2641l4,7 -7,3 -4,-9ZM2884,2613l12,-5 -2,12 10,6 -14,-3ZM2887,2594l20,2 -8,6ZM2887,2594l0,4 -15,1 12,14 -11,2 -4,-4 -12,0 0,9 -20,0 4,6 -16,0 10,17 16,16 4,12 6,0 4,11 -12,1 20,17 9,-5 15,17 4,12 11,-6 -8,-1 2,-6 14,-2 0,11 13,12 -1,-8 8,12 14,8 -1,5 -11,-6 -4,7 12,12 -17,6 1,10 6,6 11,0 8,6 15,2 27,-15 15,9 16,-2 -4,11 5,1 14,-11 1,12 7,-13 4,3 -13,23 17,14 12,-1 6,5 4,-11 12,1 13,-11 15,11 6,-3 6,8 -4,5 11,21 5,-7 7,6 8,-16 5,5 7,-23 21,25 -1,9 20,11 -1,13 6,9 -16,5 25,-4 0,7 -16,7 8,2 1,7 7,2 2,9 -5,10 6,6 7,-8 10,11 0,13 -7,-2 -6,11 3,8 12,6 20,5 7,-4 1,11 -16,21 -2,-11 -8,-8 -32,-8 9,7 9,18 -12,8 0,8 -18,-1 7,5 -6,4 3,7 -7,7 -9,1 6,11 2,10 16,18 -4,0 -20,-15 -10,-14 -6,-1 -11,-17 0,-8 -14,-13 -15,-26 -5,10 6,17 -2,16 -18,3 4,6 -9,5 -22,29 -4,1 -16,23 -1,5 -26,25 -10,1 21,-42 13,-10 12,-25 -3,-7 10,-5 -1,-6 12,-2 6,-11 -2,-12 11,0 1,-5 -7,-15 7,-2 3,-8 6,5 6,-8 -7,-14 4,-11 -3,-10 -11,-19 -8,-7 -8,0 0,10 -6,16 -7,-5 5,23 -6,14 -8,3 0,-8 6,-39 -5,-2 -11,26 -14,10 -5,-6 13,-9 5,-9 -4,-10 3,-12 -4,-3 -23,29 -8,-13 -8,2 -8,8 -12,-14 -12,-23 4,-6 7,6 5,-5 -6,-5 -14,4 -10,-7 -8,10 -1,7 -55,-16 2,-8 9,7 10,2 11,-6 2,9 20,5 4,-13 28,-3 -4,-12 2,-12 -15,-24 -10,-3 -11,-10 -20,-10 7,14 -12,1 -17,-3 -8,-8 6,-10 -7,-16 -15,-6 -8,-7 -3,11 -29,-1 -14,4 -13,-11 -10,8 -27,6 10,-13 -7,-9 -20,16 -10,0 12,-18 2,-12 -16,11 -7,-3 11,-9 -11,1 7,-6 0,-8 11,5 3,-9 -8,-10 -9,-3 -11,2 -5,-6 3,19 -6,5 -5,-4 0,-11 -14,0 11,-13 -5,-4 -13,10 -7,-6 2,-14 -10,2 6,5 -6,14 3,12 7,2 -25,2 -13,-2 -2,-55 -4,-2 -2,-17 4,-15 -4,-31 -10,-1 -9,-38 -11,-12 -6,-14 -17,-23 1,-7 -6,-16 9,-10 -7,-18 2,-15 27,-19 1,-10 10,-20 12,4 0,-12 20,2 15,7 11,17 5,1 10,26 10,14 5,13 10,2 18,-7 10,1 18,21 -3,8 6,4 38,-2 12,4 8,11 4,13 25,13 14,16 18,3 23,11 -13,3 -7,-5 -17,3 -8,-15 -13,3 -11,-7 -5,5 8,5 -4,6 6,8 7,-3Z"/>
    <path data-fips-int="22087" data-name="Saint Bernard Parish" d="M2954,2586l4,-2 15,11 4,10 -3,-2 -9,-10 -2,-1ZM3004,2569l10,7 -8,7ZM2960,2548l5,10 7,3 -12,2 -6,-10ZM3074,2488l1,-6 8,10 23,-9 4,19 4,4 -12,3 -15,-14ZM3062,2470l-7,-5 7,-5 11,5 -6,7ZM3091,2455l-4,5 -6,-8 8,-7ZM3100,2429l-5,11 -8,-5ZM3109,2427l13,0 0,14 -18,-12ZM3109,2388l12,-13 12,5ZM3051,2386l-11,5 2,6 -14,-8 17,-4 3,-12ZM3115,2365l-10,7 0,-7 8,-14 8,1ZM3081,2347l-10,3 6,-14ZM3386,2299l9,14 8,21 8,29 1,31 -3,31 -6,30 -3,-3 7,-26 0,-18 2,-29 -1,-13 -8,-4 7,-5 -6,-10 0,-11 -4,-13 -8,-8ZM3043,2296l16,-3 -9,7 3,7 -17,3 -4,3 -7,-10 19,3ZM3024,2378l-8,5 -5,-7 -2,13 5,12 10,8 -12,4 13,8 7,-7 7,6 5,-6 -11,-4 5,-5 8,0 -2,-6 7,-6 6,13 1,10 9,-3 4,-16 9,3 -12,21 9,-2 1,6 11,3 -4,7 -16,-3 -12,19 -11,6 -18,5 -1,9 19,1 9,7 19,9 2,4 -14,4 -9,-10 -11,3 -8,15 -8,-10 -10,-5 2,-10 -16,-8 0,-6 -18,-2 -9,-7 -5,4 12,4 3,7 17,5 -9,2 11,23 14,4 -5,12 -11,0 -10,12 34,26 -6,1 1,8 -5,4 -14,-3 5,-3 -7,-10 -6,1 -11,-20 -6,4 -7,-10 -8,-1 -4,-16 -12,3 0,10 -8,7 -14,-17 -4,7 -8,0 -2,10 -8,-10 -15,-12 2,8 -10,4 -2,9 5,20 15,1 2,7 8,-4 4,13 -8,-2 -8,5 13,6 6,-5 16,8 4,5 10,-2 4,10 -7,-5 -4,0 -23,-11 -18,-3 -14,-16 -25,-13 -4,-13 -8,-11 -12,-4 -38,2 -6,-4 3,-8 -18,-21 -10,-1 -18,7 -10,-2 -5,-13 -10,-14 -10,-26 5,-12 -12,-23 -9,-6 -22,0 -11,-4 -17,-12 14,-32 11,-5 12,10 9,1 15,-14 9,-3 11,5 3,7 13,-12 9,34 7,10 11,6 16,1 30,-9 12,-11 10,9 -22,14 2,16 16,12 4,7 14,9 28,5 28,-8 9,-11 0,-23 8,-16 -2,-8 6,-9 0,-14 -4,-12 15,-4 2,-4 36,-22 3,-5 -5,-14 8,-13 16,13 9,-1 6,8 -4,2 4,10 8,-2 0,8 -8,-1 -8,4 -8,24 10,-2 1,6 -7,5 -10,-9 0,14 6,5 -10,8 17,0 11,-10 8,-3 -2,7 21,-3 1,22 -11,-8ZM3148,2282l3,11 5,-8 15,5 -6,12 -9,-9 -13,12 1,-16 -14,-1 -11,-7 -21,2 -15,9 -2,12 -4,-16 24,-15 10,5 2,-5 5,-6 -9,-10 28,-16 -3,13 13,11 -6,15ZM3155,2234l-8,7 -3,-6 7,-6ZM3023,2229l-9,8 -6,-12 8,4 3,-8Z"/>
    <path data-fips-int="22109" data-name="Terrebonne Parish" d="M2185,3044l21,-2 -13,7 -19,3ZM2132,3043l10,0 -3,6 -21,4 -14,-7 27,2ZM2125,3021l-6,16 -13,-7 10,-10ZM2323,3022l25,11 35,7 -19,3 -36,-12 -21,-13ZM2127,2990l1,12 -12,7 -12,-2 2,9 -15,-13 9,-5 11,1ZM2199,2988l5,6 -6,7 -7,-12ZM2386,2932l-5,-11 10,-1ZM2068,2924l-8,19 -11,13 -7,-2 -10,-13 10,-4 2,-11 8,3 13,-9ZM2089,2908l17,8 -13,8 -5,-9ZM2019,2921l1,13 17,-16 5,3 -3,14 -8,1 -6,12 9,6 -12,5 -17,0 -2,-7 -7,3 3,-13 17,-5 -6,-11 -5,0 -12,11 0,-14 7,2 8,-20 10,7ZM2372,2883l8,8 -12,17 -2,-24ZM1858,2812l0,12 14,24 14,8 11,-11 10,4 -4,6 -2,27 -9,3 -9,-14 -6,9 10,15 3,-7 11,-1 12,9 -8,1 -5,10 14,-1 9,-6 -2,12 5,11 -4,4 -12,-4 -19,0 -27,-7 -34,-14 -10,-7 -34,-43 7,5 18,3 12,-6 -1,-6 10,-8 0,-9 6,-13 22,-9ZM2284,2905l7,11 4,13 -12,-17 -6,0 -8,-9 -14,-10 -1,11 10,-1 0,25 -9,-18 -10,9 -3,-9 -4,7 -5,-10 -2,11 14,26 -2,5 -10,-6 -3,-8 -1,-24 -4,0 3,21 -3,9 4,11 -16,13 8,2 -10,22 -12,-1 0,-6 -15,2 -6,17 -11,-5 -7,6 2,9 -10,-5 5,-7 -5,-5 5,-9 -23,16 -3,-5 3,-17 -11,8 -6,-3 -6,12 -13,-2 -10,6 -14,-15 -26,-21 5,-13 5,-2 16,-18 18,8 -9,7 5,3 7,-11 7,2 13,-13 3,-9 4,5 9,-2 5,-14 -13,1 -8,-10 -9,7 -2,-9 -16,6 1,-11 -6,5 -12,-3 -5,-5 -12,3 4,-12 19,0 2,-12 -19,1 -4,-5 16,-21 -7,-2 -9,9 -7,-9 -11,-5 -17,10 -7,-4 -3,15 -17,1 -1,5 7,11 15,-5 4,8 6,-6 -12,-14 12,6 6,6 -4,10 13,9 10,-2 2,15 -19,13 -12,2 10,-13 -11,2 1,-13 14,3 -10,-6 -10,3 -4,12 -12,4 -2,10 -5,1 -2,13 -4,-4 -9,17 6,-33 -5,-6 13,-8 4,-10 -8,1 -20,25 6,4 -5,13 8,0 2,16 -9,6 -21,-8 -18,-17 -6,-12 1,-13 10,-7 -4,-13 -6,-9 16,1 14,-12 20,5 4,-9 -4,-6 0,-11 20,2 2,-11 -9,-5 -9,1 -13,-8 -13,4 -4,7 6,7 15,8 5,14 -8,4 -8,-6 -23,12 -7,-3 4,-8 -8,-25 -12,-3 2,-7 -9,-6 -24,-8 -1,-11 -12,-7 5,-22 -6,-8 -8,1 -16,-8 -6,-22 0,-14 5,-12 -5,-19 16,-2 7,-9 11,-27 8,-8 17,-8 6,12 17,-12 10,1 5,-8 22,-7 24,-31 24,-34 82,-2 -1,-22 26,0 0,-10 8,-3 1,-9 13,0 2,16 10,5 14,39 15,14 11,0 13,8 19,20 13,22 9,5 15,2 12,19 18,10 4,17 8,1 13,14 -1,8 10,7 11,14 13,11 12,6 13,26 18,20 15,8 9,11 2,13 -4,15 7,17 -5,17 -10,15 1,-10 -7,2 8,-13 -2,-14 -18,-10 -3,-19 -9,-1 -10,10 6,6 0,8 -8,6 -8,22 -10,-4 -7,-13 8,-20 -1,-10 -13,-2 -4,-9 -4,13 6,8 0,13 6,-12 5,7 -6,12 3,7 -15,-8 -3,5 9,11 -5,4 -5,-11 -7,-2 0,12 -15,-5 9,-13 6,1 0,-10 -6,0 -7,13 -7,-9 -8,-4 -6,24 -6,-9 -6,11 12,6 1,-6 8,3 1,8 -6,12Z"/>
    <path data-fips-int="22057" data-name="Lafourche Parish" d="M2450,3027l12,5 -12,5 -6,-2ZM2436,2985l6,6 -4,5 -31,11 -1,-2 23,-8 1,-10ZM2443,2940l-9,16 -2,-8ZM2624,2840l11,-10 -1,10ZM2626,2762l10,9 -8,0 -8,-9ZM2626,2762l-10,-14 -1,12 7,10 0,9 -8,4 10,13 -4,4 19,-1 -9,7 4,11 -10,12 -2,-9 -13,2 8,12 2,-6 5,12 2,10 9,6 14,1 0,8 -12,6 3,-6 -8,-2 -1,-9 -14,2 -3,6 -9,-3 3,-7 10,-6 -8,-9 -5,6 -14,-15 -6,5 7,4 -3,14 8,13 8,5 -8,2 0,7 -8,-1 3,26 17,11 3,12 6,1 -17,21 2,9 -8,10 -23,19 -27,19 -30,14 -12,-1 2,-7 -8,-8 10,-2 2,-12 -9,-10 -11,0 12,-6 -14,-11 6,-7 -16,2 -3,-6 8,-13 1,-8 -11,-17 0,-9 -7,3 2,-11 -7,-15 -14,7 4,-16 -17,5 1,-9 9,-5 -1,-12 -6,-7 0,-7 -6,-8 -2,6 8,24 -21,8 -1,12 6,7 -12,10 4,12 -8,-3 -10,15 0,-11 0,-4 4,-14 2,-2 10,-15 5,-17 -7,-17 4,-15 -2,-13 -9,-11 -15,-8 -18,-20 -13,-26 -12,-6 -13,-11 -11,-14 -10,-7 1,-8 -13,-14 -8,-1 -4,-17 -18,-10 -12,-19 -15,-2 -9,-5 -13,-22 -19,-20 -13,-8 -11,0 -15,-14 -14,-39 -10,-5 -2,-16 -13,0 -1,9 -8,3 0,10 -26,0 1,22 -82,2 24,-33 29,-51 10,-37 15,0 0,-21 65,-2 0,-11 16,6 20,2 -1,4 27,6 13,6 8,0 13,-4 15,3 1,5 10,-7 35,1 5,2 12,18 10,-1 13,15 2,24 13,14 17,13 15,1 22,9 1,11 7,8 1,22 12,11 73,-1 22,1 5,7 8,-2 4,15 -8,15 5,7 -2,17 10,13 -5,9 4,7 -28,4 -12,25 5,6 9,-2 4,7 -19,0 -3,5 6,6 14,3 12,20 20,-3 4,11 11,2 4,7 7,-3 31,2 10,-2 5,11Z"/>
    <path data-fips-int="22051" data-name="Jefferson Parish" d="M2603,2957l-2,-9 17,-21 2,3 -3,18ZM2682,2886l11,-4 -5,11 -41,27 -14,13 -3,-2 19,-21 28,-19ZM2682,2865l-4,9 -14,-5ZM2675,2837l3,4 -2,16 -4,-3ZM2672,2818l-4,11 -17,-6ZM2656,2757l-8,-7 -10,-14 -16,1 -4,-9 24,1 7,14 11,-11 6,9 1,14 -7,9ZM2607,2701l3,8 7,-3 15,13 14,1 -1,8 -15,-2 1,-4 -11,-6 -21,1 6,9 9,-6 3,4 -13,3 -9,7 -2,-17 -12,-2 3,-9ZM2565,2638l-6,-11 2,-31 10,-1 -1,16 -5,12 5,6ZM2583,2196l-4,42 -7,121 -9,18 0,20 6,7 19,1 19,-6 7,-9 1,-11 32,34 1,3 -10,20 -1,10 -27,19 -2,15 7,18 -9,10 6,16 -1,7 17,23 6,14 11,12 9,38 10,1 4,31 -4,15 2,17 4,2 2,55 -6,-2 -6,-16 -10,1 -2,-11 -17,3 -11,-11 -6,0 -6,-10 -13,-7 -6,1 -14,-14 -6,2 -8,11 -10,-3 2,-11 -8,-7 11,-4 -1,-8 14,1 14,-20 -2,-16 1,-20 -9,-16 -8,7 -6,-5 2,-9 -6,-4 -12,3 -8,2 -5,-7 -22,-1 14,-39 21,-44 3,-11 -47,-32 -2,-14 -16,-17 -5,-17 -4,-33 0,-184 0,-9 1,-4 21,9 17,3 28,11Z"/>
    <path data-fips-int="22101" data-name="Saint Mary Parish" d="M1835,2714l-5,14 -10,4 -13,-4 3,-10 24,-10ZM1945,2566l1,29 -4,13 9,3 6,9 -22,7 -5,8 -10,-1 -17,12 -6,-12 -17,8 -8,8 -8,-10 -3,7 -9,-13 -2,4 6,11 2,23 -12,7 -10,-3 -10,17 8,13 -24,11 -4,7 -16,-2 -6,-4 2,-6 -15,-12 -11,1 -14,-3 -3,7 -8,-5 0,-7 8,-1 -1,-9 5,-8 -12,0 -4,9 -19,-3 -25,8 -32,11 14,-16 2,-8 -8,-11 0,-11 -10,-37 -12,-6 -35,9 -15,-6 14,-14 3,-34 4,-8 -3,-17 3,-18 -10,12 -25,-2 -31,5 -11,-8 -19,3 -11,-8 3,9 -52,30 -13,-10 14,-11 0,-5 17,-15 78,-65 55,-73 98,-9 0,6 40,34 5,20 18,31 -8,38 23,12 34,1 45,12 9,-2 23,17 13,3 16,0 14,16Z"/>
  </g>
  <g class="cities">
    <circle r="3" cx="260.5" cy="237.2"/>
    <text x="260.5" y="237.2">New Orleans</text>
    <circle r="3" cx="190.9" cy="200.9"/>
    <text x="190.9" y="200.9">Baton Rouge</text>
    <circle r="3" cx="26.8" cy="46.7"/>
    <text x="26.8" y="46.7">Shreveport</text>
  </g>
</svg>