<?xml version="1.0" encoding="utf-8"?>
<!DOCTYPE svg PUBLIC "-//W3C//DTD SVG 1.1//EN" "http://www.w3.org/Graphics/SVG/1.1/DTD/svg11.dtd">
<svg version="1.1" xmlns="http://www.w3.org/2000/svg" width="350" height="216" viewBox="0 0 350 216">
  <defs>
    <pattern id="pattern-no-results" width="50" height="50" patternUnits="userSpaceOnUse">
      <rect width="50" height="50" fill="#ddd"/>
      <path d="M-5,5L5,-5M-5,55L55,-5M45,55L55,45" stroke-width="10" stroke="#666666"/>
    </pattern>
  </defs>
  <g class="counties" transform="scale(0.1)">
    <path data-fips-int="25003" data-name="Berkshire County" d="M549,233l-1,48 63,-2 -40,41 37,8 5,31 -24,106 5,19 -41,200 -50,-12 0,74 58,22 -2,77 -33,134 -33,-6 -3,67 16,68 -411,-20 -8,-47 240,-817Z"/>
    <path data-fips-int="25005" data-name="Bristol County" d="M2417,1269l19,62 -59,63 10,46 99,-16 33,39 40,162 -72,-10 -5,123 -46,2 -5,37 -49,13 -20,-75 -15,54 -34,-39 16,53 -26,7 -20,-134 8,-66 -60,-19 57,-78 11,-46 -51,81 -45,-4 -34,-49 -56,-32 -23,-56 6,-95 -40,7 0,-114 15,-1 265,-139 28,165Z"/>
    <path data-fips-int="25011" data-name="Franklin County" d="M1218,620l-23,45 0,71 -14,31 -21,-18 -23,-109 -99,14 -5,-31 -198,31 4,-57 -157,-43 -3,-70 -90,-19 24,-106 -5,-31 -37,-8 40,-41 -63,2 1,-48 677,32 10,58 39,14 1,62 -36,17 -2,84 22,24 -44,42Z"/>
    <path data-fips-int="25013" data-name="Hampden County" d="M1280,860l-40,76 60,39 59,-11 -1,164 -576,-12 -10,42 -46,5 3,-48 -223,-7 -16,-68 3,-67 33,6 33,-134 2,-77 43,-38 62,13 5,86 -30,32 36,29 15,-30 59,5 10,46 88,22 -5,-37 31,-18 24,-58 31,-4 -23,55 27,28 176,-24 8,58 50,-41Z"/>
    <path data-fips-int="25015" data-name="Hampshire County" d="M1181,767l14,-31 28,-10 8,62 55,-10 -6,82 -112,32 -50,41 -8,-58 -176,24 -27,-28 23,-55 -31,4 -24,58 -31,18 5,37 -88,-22 -10,-46 -59,-5 -15,30 -36,-29 30,-32 -5,-86 -62,-13 -43,38 -58,-22 0,-74 50,12 41,-200 -5,-19 90,19 3,70 157,43 -4,57 198,-31 5,31 99,-14 23,109Z"/>
    <path data-fips-int="25017" data-name="Middlesex County" d="M2382,609l-23,65 -22,3 10,27 -1,1 -35,22 -25,-26 -35,15 12,38 -7,31 -25,28 -33,-46 -40,-10 -55,21 25,79 -27,-1 -11,60 -55,16 -68,40 -24,-44 -75,-5 -18,-27 15,-52 75,-7 18,-81 -60,2 -31,20 -37,-48 62,-78 8,-100 10,-62 -86,-3 -4,26 -40,-8 14,-101 -102,-40 -76,12 0,-51 -39,-46 556,17 35,-49 15,76 -14,23 110,71 72,-12 21,29 -36,67 31,7 -11,63Z"/>
    <path data-fips-int="25021" data-name="Norfolk County" d="M2569,832l38,30 -38,49 -25,-47ZM2231,813l57,68 38,-54 45,-15 40,20 43,-12 18,35 14,27 -7,85 -143,78 -265,139 -15,1 0,-42 -108,2 -3,-125 22,-48 68,-40 55,-16 11,-60 27,1 -25,-79 55,-21 40,10ZM2256,785l7,-31 45,-26 -40,70Z"/>
    <path data-fips-int="25027" data-name="Worcester County" d="M1577,279l39,46 0,51 76,-12 102,40 -14,101 40,8 4,-26 86,3 -10,62 -8,100 -62,78 37,48 31,-20 60,-2 -18,81 -75,7 -15,52 18,27 75,5 24,44 -22,48 3,125 -279,12 -3,-20 -308,-9 1,-164 -59,11 -60,-39 40,-76 6,-82 -55,10 -8,-62 -28,10 0,-71 23,-45 -2,-54 44,-42 -22,-24 2,-84 36,-17 -1,-62 -39,-14 -10,-58Z"/>
    <path data-fips-int="25001" data-name="Barnstable County" d="M3347,1721l8,-78 19,-49 -14,112ZM2975,1627l-32,4 -42,80 -131,21 -33,33 -19,-17 30,-65 -10,-100 35,-19 -8,-87 -12,-20 64,-31 24,-30 59,56 60,25 108,9 -52,15 33,18 52,-4 38,-38 88,-22 95,-39 18,-27 0,-108 -31,-30 -35,26 -18,-153 -59,-48 -46,49 -42,-53 32,-20 88,17 60,39 63,105 43,141 15,115 -33,-29 -28,68 46,12 -15,63 -38,-21 -221,51 -68,10 -25,-12Z"/>
    <path data-fips-int="25007" data-name="Dukes County" d="M2792,1843l30,-23 -4,52 62,46 53,4 -7,49 -126,-1 -141,23 -29,42 -61,-58 30,-12 35,30 1,-29 60,-97 90,-63ZM2690,1767l28,6 -76,41 -28,38 -14,-24Z"/>
    <path data-fips-int="25009" data-name="Essex County" d="M2421,626l-17,0 -22,-17 -26,-38 11,-63 -31,-7 36,-67 -21,-29 -72,12 -110,-71 14,-23 -15,-76 68,-2 -5,-66 50,-39 61,18 30,-65 92,-34 43,3 32,26 30,-11 6,79 39,126 -54,-69 15,64 64,34 -15,41 38,-18 36,18 30,-53 47,71 -30,15 -23,49 -15,-34 -27,42 -65,7 -100,42 -1,42 35,-17 -47,73 -25,-8Z"/>
    <path data-fips-int="25019" data-name="Nantucket County" d="M3345,1960l44,84 -5,44 -39,14 -94,-2 -97,-39 18,-28 97,5 7,16 79,-69Z"/>
    <path data-fips-int="25023" data-name="Plymouth County" d="M2569,832l-25,32 25,47 38,-49 12,-16 48,56 1,57 77,100 0,46 -67,48 54,67 63,2 43,30 15,83 -12,61 -24,30 -64,31 12,20 -50,24 -61,-5 28,30 -4,39 -43,-46 5,77 -61,-4 21,31 -41,2 -40,-162 -33,-39 -99,16 -10,-46 59,-63 -19,-62 -53,-59 -28,-165 143,-78 7,-85 -14,-27 50,-5 -13,-69 31,44Z"/>
    <path data-fips-int="25025" data-name="Suffolk County" d="M2346,705l51,38 -33,20 7,49 -45,15 -38,54 -57,-68 25,-28 12,13 40,-70 -45,26 -12,-38 35,-15 25,26ZM2404,626l17,0 11,73 -30,33 -43,-58 23,-65Z"/>
  </g>
  <g class="cities">
    <circle r="3" cx="235.1" cy="71.8"/>
    <text x="235.1" y="71.8">Boston</text>
    <circle r="3" cx="166.8" cy="84.0"/>
    <text x="166.8" y="84.0">Worcester</text>
    <circle r="3" cx="93.7" cy="103.7"/>
    <text x="93.7" y="103.7">Springfield</text>
  </g>
</svg>