<?xml version="1.0" encoding="utf-8"?>
<!DOCTYPE svg PUBLIC "-//W3C//DTD SVG 1.1//EN" "http://www.w3.org/Graphics/SVG/1.1/DTD/svg11.dtd">
<svg version="1.1" xmlns="http://www.w3.org/2000/svg" width="350" height="216" viewBox="0 0 350 216">
  <g class="counties" transform="scale(0.1)">
    <path data-fips-int="25003" data-name="Berkshire County" d="M549,233l-1,48 63,-2 2,17 -42,24 37,8 5,31 -24,106 5,19 -41,200 -50,-12 0,74 35,28 23,-6 -2,77 -33,134 -33,-6 8,38 -11,29 16,68 -299,-17 -112,-3 -8,-47 120,-410 80,-267 40,-140Z"/>
    <path data-fips-int="25005" data-name="Bristol County" d="M2417,1269l19,62 -59,63 22,21 -12,25 99,-16 16,42 17,-3 40,143 0,19 -20,-2 20,43 -10,17 -12,-52 -32,0 -18,-16 22,58 -22,-27 -10,41 -16,-5 21,56 -25,17 -21,-15 -5,37 -49,13 -13,-16 -7,-59 -15,-9 9,48 -9,15 -34,-39 16,53 -26,7 -9,-100 -11,-34 8,-66 -60,-19 57,-78 11,-46 -31,61 -20,20 -45,-4 -34,-49 -56,-32 -23,-56 6,-95 -40,7 0,-114 15,-1 265,-139 28,165 33,26Z"/>
    <path data-fips-int="25011" data-name="Franklin County" d="M1218,620l-23,45 0,71 -14,31 -26,18 5,-36 -23,-109 -99,14 -5,-31 -198,31 4,-57 -52,7 0,-18 -105,-32 -3,-70 -90,-19 24,-106 -5,-31 -37,-8 42,-24 -2,-17 -63,2 1,-48 677,32 10,58 39,14 1,62 -36,17 -9,30 7,54 22,24 -44,42Z"/>
    <path data-fips-int="25013" data-name="Hampden County" d="M1280,860l-40,55 0,21 58,28 2,11 59,-11 -1,164 -368,-7 -71,3 -137,-8 -10,42 -46,5 3,-48 -223,-7 -16,-68 11,-29 -8,-38 33,6 33,-134 2,-77 43,-38 54,4 8,9 5,86 -30,32 36,29 15,-30 59,5 10,46 88,22 -5,-37 31,-18 24,-58 31,-4 -23,55 27,28 176,-24 8,58 29,-4 21,-37Z"/>
    <path data-fips-int="25015" data-name="Hampshire County" d="M1181,767l14,-31 28,-10 8,62 55,-10 10,24 -16,58 -112,32 -21,37 -29,4 -8,-58 -176,24 -27,-28 23,-55 -31,4 -24,58 -31,18 5,37 -88,-22 -10,-46 -59,-5 -15,30 -36,-29 30,-32 -5,-86 -8,-9 -54,-4 -43,38 -23,6 -35,-28 0,-74 50,12 41,-200 -5,-19 90,19 3,70 105,32 0,18 52,-7 -4,57 198,-31 5,31 99,-14 23,109 -5,36Z"/>
    <path data-fips-int="25017" data-name="Middlesex County" d="M2382,609l5,9 -28,56 -22,3 10,27 -1,1 -35,22 -25,-26 -35,15 12,38 -20,19 13,12 -25,28 -33,-46 -40,-10 -55,21 25,79 -27,-1 -11,60 -55,16 -68,40 -19,-13 -5,-31 -75,-5 -18,-27 15,-52 75,-7 18,-81 -60,2 -31,20 -37,-48 42,-46 -22,-13 42,-19 15,-61 -7,-39 17,-35 -7,-27 -38,-10 -48,7 -4,26 -40,-8 14,-101 -102,-40 0,8 -76,4 0,-51 -39,-46 120,5 436,12 35,-49 15,76 -14,23 110,71 72,-12 21,29 -21,15 -15,52 31,7 5,25 -16,38Z"/>
    <path data-fips-int="25021" data-name="Norfolk County" d="M2569,832l38,30 -3,23 -35,26 -25,-47ZM2231,813l42,34 15,34 38,-54 45,-15 16,-7 24,27 43,-12 0,34 18,1 14,27 -7,85 -143,78 -265,139 -15,1 0,-42 -108,2 -3,-125 22,-18 0,-30 68,-40 55,-16 11,-60 27,1 -25,-79 55,-21 40,10ZM2256,785l-13,-12 20,-19 45,-26 -9,33 -31,37Z"/>
    <path data-fips-int="25027" data-name="Worcester County" d="M1577,279l39,46 0,51 76,-4 0,-8 102,40 -14,101 40,8 4,-26 48,-7 38,10 7,27 -17,35 7,39 -15,61 -42,19 22,13 -42,46 37,48 31,-20 60,-2 -18,81 -75,7 -15,52 18,27 75,5 5,31 19,13 0,30 -22,18 3,125 -28,4 -251,8 -3,-20 -252,-5 -56,-4 1,-164 -59,11 -2,-11 -58,-28 0,-21 40,-55 16,-58 -10,-24 -55,10 -8,-62 -28,10 0,-71 23,-45 -2,-54 44,-42 -22,-24 -7,-54 9,-30 36,-17 -1,-62 -39,-14 -10,-58Z"/>
    <path data-fips-int="25001" data-name="Barnstable County" d="M3347,1721l-13,-5 21,-37 0,-36 19,-49 -14,72 0,40ZM2975,1627l-5,-15 -27,19 -10,36 -23,-6 11,25 -20,25 -40,12 0,-40 -13,33 -78,16 -33,33 -19,-17 30,-65 -10,-35 2,-45 28,-15 -30,-5 35,-19 -8,-87 -12,-20 64,-31 24,-30 59,56 60,25 108,9 -52,15 33,18 52,-4 38,-38 70,-25 18,3 95,-39 18,-27 -8,-84 8,-24 -31,-30 -22,0 -13,26 -7,-96 -11,-57 -22,-28 -37,-20 -26,7 -20,42 -42,-53 32,-20 88,17 60,39 63,105 43,141 -15,28 24,21 6,66 -33,-29 -2,34 -23,10 -3,24 46,12 0,36 -15,27 -38,-21 -70,10 -55,18 -53,4 -43,19 -33,-21 1,19 -36,12 -25,-12 -53,36Z"/>
    <path data-fips-int="25007" data-name="Dukes County" d="M2557,1870l-48,15 41,-36ZM2792,1843l-5,27 35,-50 13,23 -17,29 62,46 6,52 30,-1 -35,-23 32,-36 20,12 -7,49 -126,-1 -113,12 -28,11 -29,42 -43,-31 -18,-27 30,-12 35,30 1,-29 52,-68 8,-29 27,-9 13,-26 50,-28ZM2690,1767l28,6 -33,24 -43,17 -2,21 -26,17 -14,-24 55,-44Z"/>
    <path data-fips-int="25009" data-name="Essex County" d="M2421,626l-17,0 -22,-17 -26,-38 16,-38 -5,-25 -31,-7 15,-52 21,-15 -21,-29 -72,12 -110,-71 14,-23 -15,-76 26,-13 42,11 -5,-66 50,-39 61,18 30,-65 60,-14 32,-20 43,3 32,26 30,-11 3,60 -45,9 13,18 35,-8 14,71 25,55 -27,-19 -27,-50 15,64 64,34 -15,41 35,0 3,-18 36,18 -1,-19 31,-34 24,3 -2,35 20,0 5,33 -30,15 -23,49 -15,-34 -27,42 -65,7 -100,42 -34,-16 31,31 2,27 35,-17 -10,33 -37,40 -25,-8 -11,61 -5,-46Z"/>
    <path data-fips-int="25019" data-name="Nantucket County" d="M3345,1960l44,84 -5,44 -39,14 -94,-2 -97,-39 18,-28 97,5 7,16 36,-23 43,-46Z"/>
    <path data-fips-int="25023" data-name="Plymouth County" d="M2569,832l-25,32 25,47 35,-26 3,-23 12,-16 18,36 30,20 1,57 77,100 0,46 -28,4 -7,27 -32,17 12,24 42,43 41,14 22,-12 43,30 -7,17 22,66 -15,34 3,27 -24,30 -64,31 12,20 -50,24 -32,-5 10,-20 -39,20 28,30 -14,3 10,36 -43,-46 5,77 -61,-4 21,31 -41,2 0,-19 -40,-143 -17,3 -16,-42 -99,16 12,-25 -22,-21 59,-63 -19,-62 -20,-33 -33,-26 -28,-165 143,-78 7,-85 -14,-27 15,-17 35,12 -13,-69 31,44Z"/>
    <path data-fips-int="25025" data-name="Suffolk County" d="M2346,705l51,38 -33,20 7,49 -45,15 -38,54 -15,-34 -42,-34 25,-28 12,13 31,-37 9,-33 -45,26 -12,-38 35,-15 25,26ZM2404,626l17,0 -7,30 18,43 -30,33 -33,-23 -10,-35 28,-56 -5,-9Z"/>
  </g>
  <g class="cities">
    <circle r="3" cx="235.1" cy="71.8"/>
    <text x="235.1" y="71.8">Boston</text>
    <circle r="3" cx="166.8" cy="84.0"/>
    <text x="166.8" y="84.0">Worcester</text>
    <circle r="3" cx="93.7" cy="103.7"/>
    <text x="93.7" y="103.7">Springfield</text>
  </g>
</svg>