<?xml version="1.0" encoding="utf-8"?>
<!DOCTYPE svg PUBLIC "-//W3C//DTD SVG 1.1//EN" "http://www.w3.org/Graphics/SVG/1.1/DTD/svg11.dtd">
<svg version="1.1" xmlns="http://www.w3.org/2000/svg" width="350" height="216" viewBox="0 0 350 216">
  <path class="state" transform="scale(0.1)" d="M3347,1722l-3,1 -5,-1 -5,-13h3h2l3,-5 5,-9 2,-1 4,-7 3,-12v-2v-26v-2v-3l10,-4 -2,10v4l-3,15v6l-2,4 2,7v3l-2,3 -3,24 -9,8M2839,1888l29,15 17,67h30l-32,-26 -7,-22 56,6 2,36 -16,8 -118,-1 -114,11 -27,11 -37,40 -53,-53 29,-15 36,3 42,-58 22,-44 24,-6 12,-26 52,-28 4,65 30,-52 14,22 5,47M2693,1766l25,7 -78,42 -27,37 -17,-13 21,-26 76,-47M3344,1960l49,91 -7,35 -47,16 -92,-3 -89,-36 15,-31 96,6 63,-20 -8,-13 32,-20 -12,-25M2361,674l-17,-1v-1l-2,1 -2,2 -1,-15 -4,10 4,7 -2,3 -2,2v2l-2,2v1l-1,1 1,1h2h2v3l2,4v2l1,1 2,1h2h1l2,4v1l51,39 -36,12 9,56v-22l39,42 44,-11 -7,33h24l17,-16 30,16 14,-35 -20,-22 3,-21 25,49 29,7 36,31v-1l17,-14 15,34 29,20 8,68 7,-11 34,60 27,32 -8,19 8,33 -25,6 -7,45 -12,-15 -22,20 49,56 41,20 32,-11 41,28 -7,21 20,62 -15,37 5,25 9,9 3,4 2,4 1,2 4,4 3,3 2,1 10,7 7,9 12,9 15,9 8,3 9,4 15,6 2,2 3,1 9,2 3,1 4,1 8,1 5,1h2l13,3h4l12,1 3,1h7l15,1h5h9h15h7l6,1 2,1v4l9,4 -63,6 25,17 58,-8v-1l5,-4v-1l10,-7v-2v-2l5,-7 5,-3 7,-4 5,-4 4,-1 17,-9 5,-2 1,1h2h3l7,-3 4,-1 6,-2 11,-1 5,-2 3,-2 2,-1h7l6,1 4,1 3,-1 2,-2h3l5,-3 2,-2 3,-1 7,-2 2,-1 7,-2 15,-5h5l3,-1v-1l5,-3 4,-1 5,-3 3,-1 2,-2 7,-3 3,-3 7,-2 8,-13v-1l11,-14 -5,-87 -21,-22 29,-15 -58,-13 -11,26 -9,-107 -12,-49 -34,-34 -49,-4 -20,41 -31,-42 4,-24h67l43,13 49,30 20,23 5,10 6,8 1,6 12,17 2,5 3,5 2,4 2,2 3,7 2,4 1,3 2,5 3,4 6,12 1,3 43,142 -17,21 22,11 8,119v13v5v8l-12,-94 -22,-7 -3,40 -20,5 -2,26 44,14 2,34 -16,27 -20,-6 -3,-3 -4,-4 -5,-3 -5,-4 -25,4 -83,16h-4l-3,1 -2,1 -3,2 -4,1 -1,1h-2l-4,1h-3h-5l-3,-1 -39,5 -53,31 10,-21 -30,-13 -2,20 -41,11 -20,-11 -46,37 -5,-20 -5,-17 -32,40 -2,2 -5,14 -3,4 -7,15 -4,6 -8,11 -9,9 -6,2 -2,1 -15,3 -10,3 -2,1 -9,1 -8,-2 -3,-2 -12,3 -26,6 -8,-1 -7,1 -2,2 -3,1 -20,2 -11,3 -6,6 -5,5 -4,3v2l-30,-2 25,-25 12,-32 -10,-38 12,-25 -11,-28 28,-14 -28,-17 31,-4 -10,-70 5,-20 -29,41 -25,-18 -46,5 10,57 -46,-37 22,42 -18,-9 -4,45 -37,-13 5,22 -37,14 -14,7 2,1 2,11 1,3v31l-5,-1 -2,-7 -3,-6v-5l-2,-7 -1,-3 -2,-10v-4v-4l-9,-6 -6,-3 -2,-2h-3l-2,9 -10,1 -12,-49 -5,33 20,58 -20,-27 -15,45 10,46 -26,18 -22,-10 -5,31 -29,-1 -23,19 -16,-79 -13,53 -38,-38 17,53 -25,6v-9l-2,-2v-3v-2v-1v-6v-4l-1,-19 -2,-18 -2,-3v-1v-2v-2v-4v-2v-4l-2,-9 -1,-8 -7,-29v-1l-2,-2h-1v-11v-6v-6l1,-2 4,-4v-14l1,-4v-1v-13v-4v-2v-1l2,-1h-2h-1l-2,-1h-2h-1l-2,-1h-2h-1v-2h-2h-2l-2,-1h-1l-5,-1 -4,-1h-1l-6,-1v-1h-3l-2,-1v-3v-1h-1l-5,-1 -2,-2h-2h-1l-2,-1h-2h-2l-1,-1 57,-78 16,-34 -9,-32 5,19 -34,63 -34,25 -30,-27v17l-10,-12 -9,-13 -1,-4 -4,-7 -2,-1 -1,-2 -4,-6 -1,-3 -4,-1 -1,-1 -5,-2 -6,-5 -5,-2 -1,-1 -2,-1 -3,-2h-2l-4,-2 -3,-2 -5,-3 -5,-3 -2,-1 -3,-3 -4,-1 -3,-2 -7,-5 -1,-4 1,-4 -3,-3 -4,-5 -3,-1v-1l-2,-4v-1l2,-1v-3v-8v-1l-3,-5 -4,-11 7,-32v-44v-2v-5v-2v-2v-6h-3l-4,1h-1l-4,1h-1l-6,1h-5l-1,1h-4l-3,2h-2h-2v1h-3v-34v-3v-7v-2v-19v-4v-2v-2v-1v-3v-6v-4v-2v-2v-1v-7v-1v-3v-9v-2v-10v-2v-6v-1v-2v-7v-4v-11h-3h-4h-1h-5h-2h-2h-3h-7h-3h-2h-2h-2h-3h-2l-13,2h-2h-5h-3h-2h-5h-7h-7h-10h-2h-1l-2,1h-3h-2h-2h-1h-2h-2h-3h-2l-5,1h-2l-3,1h-2h-1h-6h-1h-5v1h-2h-2h-5h-3h-5h-9h-1h-2l-5,1h-2h-3h-5h-2h-2h-1h-4h-3h-7h-3l-2,1h-7h-3h-5h-2h-2h-8l-5,1h-5h-4h-2h-8h-2h-3l-5,1h-2h-3h-2h-2h-15h-3h-2h-5h-2l-3,1h-5h-4h-15h-8l-2,1h-3h-11h-5l-8,1h-5h-4l-10,-4v-3v-1v-9l-2,-1 -3,-1h-19h-5h-5h-1h-6h-3h-3h-2h-5h-5h-5l-5,-1h-7h-5h-2h-8h-2l-17,-1h-15h-4h-5l-5,-1h-7h-3h-5h-4l-6,-1h-14h-5h-7h-3h-4h-8h-5h-7h-3l-4,-1h-10h-5h-7h-5h-2l-10,-1h-3h-2h-5h-3h-2l-3,-1h-2h-5l-5,-1h-5h-2h-5h-5l-4,-1h-1h-5h-2h-2h-7h-5h-3h-2h-18l-9,-2h-7h-6h-14h-10h-2h-8l-19,-2h-8h-9h-10h-17h-3h-12h-4h-1h-9h-5h-10l-9,-1h-10h-7h-5l-28,-1h-4h-3h-5h-4h-3l-7,-1h-3h-38h-8l-7,-1h-3h-4h-3l-3,1h-7l-14,2h-7l-1,1h-12l-5,7 -2,1h-2h-3h-2h-10h-2h-1h-2l-2,-8h-5l-5,-1 -17,-1h-7l-11,-2 -5,-1 -9,-1 -5,-1h-9l-8,-1h-5h-2h-7h-3h-3h-4h-29h-3l2,5h1v1v1v1v2l-5,9 -1,-1v-1l-5,2v-1v2v1l3,2 2,1 -2,2v1l-3,2v1l3,3v1l-5,7 -4,1h-3l-20,2 -12,2 -5,2h-2l3,-49h-10h-1h-9l-24,-2h-1h-10h-9h-8l-6,-1h-22h-3h-2h-5l-32,-1h-10l-17,-1h-3h-9h-2h-1l-7,-1h-9h-6l-9,-1h-8h-2h-2l-17,-1 -12,-3 -28,-1h-7h-5h-4l-10,-1h-10h-7l-1,-1h-4l-18,-1h-11l-6,-1h-9h-3h-7v-1h-3h-4l-10,-1h-5h-2l-12,-1h-5h-10l-2,-1h-1h-7l-12,-1h-2l-15,-1h-8h-4h-5l-10,-1 -17,-1 -15,-1h-12l-7,-1h-2h-12h-1l-4,-1h-5h-27l-10,1 -5,-1 -3,1 -9,-1 -5,-10 -2,-16v-1l-3,-19v-1l8,-28 2,-8 2,-8 3,-6 4,-12v-3l3,-9 3,-9v-4l2,-8v-4l3,-2v-4l2,-4 5,-19 5,-14 5,-20 2,-3 3,-12 2,-4v-2l2,-13 3,-6v-3l5,-14 7,-20 2,-11 3,-9 12,-42 2,-2 3,-13v-2l2,-6 2,-2v-1l5,-17v-3l3,-7v-3l2,-6 1,-8 2,-2v-3l3,-9v-5v-4l4,-3 3,-14 2,-9v-2l3,-3 4,-9v-3l1,-4v-3l2,-4v-2l5,-16v-2l5,-16v-1l2,-2v-3v-3l5,-16v-1l5,-15v-1l4,-16 5,-13v-1l1,-5 12,-42 5,-14 2,-7 2,-6 1,-11 4,-7 3,-10 4,-11 1,-4v-4l27,-89 2,-5 2,-12 1,-4 2,-3 9,-27 45,1h2h5h7l17,2 58,2 42,2h2l42,2 88,3 231,12 96,4 50,2 47,2 5,1h2h2h3h5h3l4,1h15l9,1h10h1h2h2l5,1h15l10,2 16,1h18l29,2h9h1l12,1h7h13l9,1h8h6l11,1h17l16,1h1h2l25,1 17,1h2h12h20h4h1h5l14,2h5h5h2l5,1h3h7l12,1h5h4h3h7l5,1h1h2h10h5h17h5h2h12l7,2h5h12l10,1h2h10h10l22,2 24,1h10h5h10h5h7l12,2h3h14l2,1h3h10h9l25,1h12l10,1h2h5h15h7h2h5h3h2h7h1h7h2l8,2h16l30,1h5h4h1h2h2l15,1h7h8h5h4h1h5l11,1h8h3h4h2h6h2l2,1h6h6h1h9h3l14,1h27l5,1h5h12h5l13,1h14h20l5,-6 9,-12 3,-7 7,-11 2,-2 8,-10 5,-4 2,-3 3,-2 12,-4 9,-1 7,2 5,1 1,1h2h2l1,1 4,1h2l3,1 12,4 -2,-17v-4l-2,-14v-2v-14l-1,-15v-1v-1l1,-1 2,-3 7,-7 7,-8v-1l1,-1 16,-9 5,-3 10,-4 12,4h3l2,1 5,2 3,1 2,1 10,3 5,1 4,1 8,3 5,1h2l3,-7 2,-4 2,-8v-2l3,-8v-4l4,-9 5,-12 5,-5 3,-3 3,-3 2,-1 7,-1 7,-4 10,-1 7,-1 3,-2h2h1l2,-1h5h2l5,-2h3h4l3,-3 4,-2 3,-1 5,-4 12,-7 7,-4h1h2l10,-2h4h6h2l2,1 12,3 3,2v1l7,6 3,2h2v2l3,1 2,2 14,10h1l11,-5 3,-2 2,-1 1,-2h4v-2h1l9,60 -44,10 13,18 33,-10 3,-8 3,41 34,98 -25,-31 -12,-26 -12,-2 10,51 65,35 -38,14 33,2v2l-12,19 39,3 1,-18 33,12 17,-30 30,-19 7,39 25,5 5,27 -23,6 -34,62 -19,-35 -32,45h-37l-119,45 -7,35 22,-11 22,12 -51,63h-32l-49,36 22,-12 -27,39 22,66 -26,-29 9,28 -22,13 -29,-21 -8,-35"/>
  <g class="subcounties" transform="scale(0.1)">
    <path data-geo-id="2502328285" data-name="Hanover" d="M2515,972l-14,2 12,80 43,-10 35,-21 -46,-57Z"/>
    <path data-geo-id="2502338855" data-name="Marshfield" d="M2734,1070l8,-19 -27,-32 -9,-15h-1l-27,-40 -4,6 -1,-11 -36,-1 -27,9 3,49v1l27,24 63,49Z"/>
    <path data-geo-id="2502350145" data-name="Norwell" d="M2510,949l5,23 30,-6 46,57 22,-6v-1l-3,-49 27,-9 -24,-24 -56,-14Z"/>
    <path data-geo-id="2502372985" data-name="Wareham" d="M2666,1508v-3l46,-5 24,17 30,-40v-2l-4,-1v-2v-5l-1,-1 -2,-4 -3,-4v-1h-2l15,-54 -95,6 -22,1 -27,-30v21l-7,59 19,24Z"/>
    <path data-geo-id="2500300975" data-name="Alford" d="M163,782l-3,9 -2,11 -7,20 -5,14v3l-3,6 -2,13v2l-2,4 -3,12 -2,3 43,7 17,-15 -5,-42 3,-17Z"/>
    <path data-geo-id="2500334970" data-name="Lenox" d="M292,639l-39,53 5,22h37v36l43,-3 7,-48 11,-44Z"/>
    <path data-geo-id="2500351580" data-name="Otis" d="M409,910v22l70,-8 5,59 10,-1v-5v-4h1l2,1 15,2h2l4,1 6,1 2,1v-1l2,-4v-6l6,-27 12,-54 7,-25v-1l-76,4 -29,-24 -39,6Z"/>
    <path data-geo-id="2500359665" data-name="Sandisfield" d="M397,1101h4l1,1h7h10l10,1h4h5h7l28,1 12,3 17,1h2h2v-4v-1v-1v-2l-2,-1v-2l2,-1v-1v-2v-3v-5l-2,-2 -3,-2 1,-5v-1v-2v-1l-1,-2 -4,-1 -5,-20 -2,-9 -1,-13v-2l3,-4 -2,-2v-1l2,-2 2,-1 7,-3 -4,-7v-1v-2l-2,-3v-1v-3l-1,-1 1,-6 -1,-4v-2l-10,1 -5,-59 -70,8 -22,32Z"/>
    <path data-geo-id="2500344385" data-name="New Ashford" d="M328,366l-12,51 12,3 52,12v-33l27,10 2,-38Z"/>
    <path data-geo-id="2500379985" data-name="Williamstown" d="M404,227l-17,-2h-7h-5h-2l-45,-1 -9,27 -2,3 -1,4 -2,12 -2,5 -27,89 43,2 81,5 3,-40 -3,-64 9,1 1,-40Z"/>
    <path data-geo-id="2500516425" data-name="Dartmouth" d="M2394,1781l7,-6 29,1 5,-31 22,10 26,-18 -10,-46 11,-35 -1,-4 -41,-50 -7,-45 10,-61 -42,28 -61,31 37,74 -7,47 16,36 1,62Z"/>
    <path data-geo-id="2500525240" data-name="Freetown" d="M2302,1448l3,10 100,23 -2,43 42,-28 21,-14 18,-14 16,-9 -9,-19v-2l-3,-8v-2l-2,-4 -58,10 -40,6 8,-18v-2l4,-5 -4,-3 -10,-10 -2,-2 -6,-7 -48,-1 -24,49Z"/>
    <path data-geo-id="2500556060" data-name="Raynham" d="M2330,1176l5,42 -10,24 46,65 46,1 1,-27 2,-5 -2,-6v-1h-1v1l-2,-1v-7v-7l-4,-3 -20,-21 -20,-16 -5,-4 -5,-24 -2,-3Z"/>
    <path data-geo-id="2500568750" data-name="Swansea" d="M2120,1446l3,3 2,1 5,3 5,3 3,2 4,2h2l3,2 2,1 1,1 5,2 6,5 5,2 1,1 4,1 1,3 4,6 1,2 2,1 4,7 1,4 9,13 10,12v-17l23,21 11,-43 30,7 4,-63h-17l-5,-32 -17,-1 5,39 -97,12 -22,-1Z"/>
    <path data-geo-id="2501121780" data-name="Erving" d="M1030,418l-7,22 34,4 35,-38 61,16 -3,-18 -10,-37 -80,23 -25,20Z"/>
    <path data-geo-id="2501127100" data-name="Greenfield Town" d="M904,358l-15,84 12,-1 37,15 17,-15 -5,-20 29,-21 3,-34 7,-21 -41,6 -34,3Z"/>
    <path data-geo-id="2501342145" data-name="Monson" d="M1145,1124h10h5h9h1h4h12h3h17h10h9h8v-74l-3,-64 -43,-4 -13,-16 -49,9 6,61 12,87Z"/>
    <path data-geo-id="2501365825" data-name="Southwick" d="M774,1135l5,-2v1l1,1 5,-9v-2v-1v-1v-1h-1l-2,-5h3h29h4h3l9,-55 -121,-28v81v1h9h1h10l-3,49h2l5,-2 12,-2 20,-2h3l4,-1 5,-7v-1l-3,-3v-1l3,-2v-1l2,-2 -2,-1 -3,-2v-1Z"/>
    <path data-geo-id="2501552560" data-name="Pelham" d="M1040,655l8,71 60,-10 3,29 46,-6v-1v-1v-1h-2v-1v-1l-2,-1v-3v-1v-1h2v-1v-1v-1v-1v-3h-2v-2l2,-1v-1v-1v-1v-2l-2,-1v-3h2v-2h-2v-1l-1,-1v-1v-1v-2l-2,-1v-1v-2l-2,-3h2l-2,-2 -1,-1v-2h1l2,-1h-2l-1,-1v-2l1,-1 2,-2 -2,-2 -1,-1 1,-2 -1,-1v-1v-1v-2l-2,-1v-1v-2v-1v-1v-3l2,-1v-1v-2l-2,-1v-1l-2,-1v-1v-2v-1v-1v-1h-1v-1v-2v-1v-2h-2v-1l-2,-2v-1l2,-1 -43,8 -28,3 -7,1 -5,1h-2Z"/>
    <path data-geo-id="2502174175" data-name="Wellesley" d="M2105,774l-2,3 2,4v3l1,5 4,7 1,4 9,22 2,3v2l1,1 12,-3 61,-54 2,-2 -2,-2 -19,-3 -6,-3 -14,-5 -2,1 -8,4 -9,3h-1l-4,1 -1,1h-2l-3,2h-4l-3,2 -4,1h-1h-2l-2,1h-1h-2l-2,2Z"/>
    <path data-geo-id="2502773895" data-name="Webster" d="M1591,1136h7l5,1h5h5h5h2h3h3h6h1h5h5h19l-24,-85 -47,20Z"/>
    <path data-geo-id="2502730945" data-name="Hopedale" d="M1889,969l-8,20 39,49h27l-3,-7v-3l1,-1v-6Z"/>
    <path data-geo-id="2502734165" data-name="Lancaster" d="M1733,574l10,2v79l29,-33 29,8 19,-58v-59l-7,-1 -7,-1 -3,-2h-2l-7,-2 -10,-2h-3l-22,-4 -16,17Z"/>
    <path data-geo-id="2502728950" data-name="Harvard" d="M1820,493v20v59l79,37 6,-25 -7,-27 1,-1 2,-8 4,-5 8,-17 2,-3 3,-5h-2l-1,-4v-7l-2,-6 -2,-1 -1,-11 -14,-3 -3,-1 -19,-4 -3,-1 -5,4 -2,1 -5,3 -7,-2h-2h-1h-2l-2,-1h-2l-3,-3 -2,-1 -3,-3 -12,10Z"/>
    <path data-geo-id="2502725485" data-name="Gardner" d="M1443,416l7,29 17,10 17,29 20,18 19,-17 32,-59 -3,-10 -19,8 -34,-43Z"/>
    <path data-geo-id="2502753225" data-name="Phillipston" d="M1343,387l-29,92 78,83 2,-1 15,-14 -10,-45 -30,-54 -5,-51 -2,-1v-3l-2,-2 -3,-4Z"/>
    <path data-geo-id="2502753120" data-name="Petersham" d="M1194,673v1l2,1 -2,1 2,1v1v1l1,1v1v1v2v1v2h-1v2v1v2v1v1v2v1v1h1v1v1l-3,1v3v1h2v1l1,2 2,1 -2,3 -1,1v1l1,1v2v1l-1,-1v2v1v3v1l1,2 -1,2 -2,8 2,1h1l2,-1v-1l2,1v-1v-1l2,-1v1l1,-1 2,-2v-1h2l1,-1v1l2,-1 2,-1v-1h1h2v-1h2l22,-44 41,-10 15,-28 96,-82 -78,-83 -54,45 -5,7 -12,10 -8,7 -7,9 -12,9 9,49 -2,1 -2,1 -2,1v1h-1v1v1v1v2l-2,-1v1v3v1l-2,1 -1,1v1l-2,1v1l-2,1h-1v2v2v1l-2,1 -2,1h-1v2v1v2h-2v1v2l-2,1v2v1v2v1l-2,1 -1,1v1v1v2v1v2v1l-2,2v1v2Z"/>
    <path data-geo-id="2502728740" data-name="Hardwick" d="M1240,682l-22,44 5,3 2,17 1,8 2,16 3,19 12,-4h10l5,-1 6,-1 5,-1 20,-5v3l-2,2v3v3v2l-3,2v3v4h3l27,-15 22,-47 34,-25 -74,-68 -15,28Z"/>
    <path data-geo-id="2502741165" data-name="Milford" d="M1894,940l-5,29 56,52 21,-18 1,-28v-3v-13h-7h-6l-7,-14 -3,-17 -4,3 -15,-1 -31,8Z"/>
    <path data-geo-id="2502741585" data-name="Millville" d="M1862,1150h4h1h2h2h5h3h2l5,-1h2v-62l-26,1Z"/>
    <path data-geo-id="2502379530" data-name="Whitman" d="M2432,1055v20l24,13 39,-1 5,-31 -12,-17Z"/>
    <path data-geo-id="2502703740" data-name="Barre" d="M1392,562l-96,82 74,68 11,9 71,-59 25,-21 -83,-80Z"/>
    <path data-geo-id="2502775155" data-name="West Boylston" d="M1652,662l15,91 15,-11 16,36 3,-2 9,-87 13,-4 -20,-17Z"/>
    <path data-geo-id="2502375260" data-name="West Bridgewater" d="M2345,1102v5l2,5v2l12,70 2,3 67,-36 -6,-47 -34,8 -2,-16Z"/>
    <path data-geo-id="2502328495" data-name="Hanson" d="M2500,1056l-5,31 11,52 58,-1 -12,-34 4,-60 -43,10Z"/>
    <path data-geo-id="2502556585" data-name="Revere" d="M2423,676l-8,-24 27,-39 -22,12 21,-15h-6l-17,14 -1,-2h-4l-5,5h-3l-2,1h-2v-4l-5,-2v1l-1,-4 1,-1v-1l-1,-1 1,-3 -1,-1v-1l-2,-1v-1l-4,-4v-3l-1,2 -4,3v1l-1,1v1l5,7 -2,2v1v1l-2,4 -1,4 -2,4 -2,2 -1,5v1v1l-2,2v2v1l19,22 25,10Z"/>
    <path data-geo-id="2502340850" data-name="Middleborough" d="M2411,1252l4,3v7v7l2,1v-1h1v1l2,6 -2,5h2l3,1 66,34 -1,32 22,28v44l115,-19v-21l-8,-9v-1l-9,-10 -25,-90 -14,-17 -29,-34 -44,-13 -23,9 -11,33 -32,-10Z"/>
    <path data-geo-id="2502357600" data-name="Rochester" d="M2486,1424l2,4v2l3,8v2l9,19 1,6 19,2 2,6 3,15 9,30 5,19 62,-13 17,-64 7,-59 -115,19Z"/>
    <path data-geo-id="2502705490" data-name="Berlin" d="M1798,646l-17,35 1,31 48,18 2,-1 3,-2 12,-12 3,-6 5,-11 4,-5 3,-3 10,-6 -23,-13Z"/>
    <path data-geo-id="2500916250" data-name="Danvers" d="M2401,461l83,25 5,-3 -13,-59 -9,-24 -30,16 -29,35Z"/>
    <path data-geo-id="2500927900" data-name="Hamilton" d="M2478,383l1,2v1h-1l96,36 14,-2 -17,-57 -17,-11 -2,1 -20,-10 -41,-2 -7,37 -1,2 -4,2Z"/>
    <path data-geo-id="2500945175" data-name="Newbury" d="M2564,225l12,2 16,-5 -13,-36 -2,-34 -1,-2 -3,3 -26,17 -59,-1 -10,12 -46,36 7,7 34,22 62,-19Z"/>
    <path data-geo-id="2500932310" data-name="Ipswich" d="M2634,329v-2M2634,327l-33,-2M2601,325l38,-14 -65,-35 -4,-20 -38,6 -5,16 -77,36 -15,12 56,15 41,2 20,10 2,-1 17,11 10,-17h2v-1l1,-1 4,-1 13,-17ZM2588,253l25,31 -15,-44 -10,7v1Z"/>
    <path data-geo-id="2500941095" data-name="Middleton" d="M2350,405l2,6 2,2 18,20 4,9 2,3 -2,5 -4,2v7l29,2 7,-10 29,-35 -12,-27 -42,-25 -29,18Z"/>
    <path data-geo-id="2500945245" data-name="Newburyport" d="M2576,145l-3,8 3,-3ZM2573,153l-33,10 -13,-17 -9,1 -29,-24 -33,14 22,44 10,-12 59,1Z"/>
    <path data-geo-id="2500958405" data-name="Rowley" d="M2564,225l12,2M2570,256l-6,-31 -29,2 -62,19 -48,51 25,17 77,-36 5,-16ZM2576,227l12,26v-5v-1l10,-7 -6,-18Z"/>
    <path data-geo-id="2501513590" data-name="Chesterfield" d="M674,619l-23,3 16,113 61,3 -2,-18 42,-6 4,-54 -39,-3v-22l-29,-20Z"/>
    <path data-geo-id="2501526290" data-name="Goshen" d="M697,559l7,56 29,20v22l39,3 2,-53 11,-3 -5,-11 5,-7 -3,-4 -8,-2 -45,-13 -6,-1 -4,-1 -6,-1 -9,-2Z"/>
    <path data-geo-id="2501516040" data-name="Cummington" d="M575,576l-5,22 104,21 30,-4 -7,-56 -13,-3 -10,5 -90,-24v5l-2,3v3l-5,28Z"/>
    <path data-geo-id="2502104930" data-name="Bellingham" d="M1949,1146h1h2h2h3l2,-1h1h2h10h7h7l2,-22v-47l13,-78 -35,5 -21,18v6l-1,1v3l3,7 2,1 1,2v1l-1,7v1v1v12v22v3v12v1v7v20v3v5v3Z"/>
    <path data-geo-id="2502109175" data-name="Brookline" d="M2242,772l8,10 4,3 1,1v1l4,3 3,2 2,1 2,3 1,1 4,-2v-2l1,-1h2l4,-4 5,-7v-1l1,-4 2,-4 3,-4 4,-4 3,-1 4,-5v-1l1,-2v-2l2,-2v-1l2,-2v-1v-2v-5l5,-5 -2,-1v-1v-2v-1l-8,-3h-2l-5,-1 -2,1 -3,3h-2l-5,4v1l-2,1v1l-1,1 -2,1v1l-4,2v1v2h-1h-2l2,1 -2,1 -7,6 -5,5 -2,1v2l-5,3 -3,4v1l-2,1 -1,1Z"/>
    <path data-geo-id="2502111315" data-name="Canton" d="M2244,961l27,32 46,-11 30,-23 -34,-44 -25,-34h-2h-2l-3,2 -3,3 -2,9v6l-4,3 -6,16 -9,11Z"/>
    <path data-geo-id="2502114640" data-name="Cohasset" d="M2606,861l-1,1v1l-36,-31 -4,-1 -1,1h-3h-2l-2,1h-1v3v2h-2h-2h-1v2l-2,3 -2,6v2v2v1l4,1 -6,8v8l2,3 2,4 2,6 5,13 6,8 2,5 3,2 2,-2 4,-1 1,-1 2,-3 5,-3 7,-5 8,-7 4,-3 1,-1v-5l4,1v-1v-1v-2v-2l-4,-4 4,-1v-1v-1l3,-1 2,-1 -5,-5Z"/>
    <path data-geo-id="2502141515" data-name="Millis" d="M2035,931l2,12v1l23,53h2l32,-18 7,-13 2,-2v-3l7,-11 -17,-32 -2,-1 -2,-1 -12,5 -23,5 -2,1 -7,2h-1Z"/>
    <path data-geo-id="2502141690" data-name="Milton" d="M2288,881l25,34 19,-5 -10,-13 37,-18 -7,-17 27,-21 -12,-22h-6h-2l-3,2 3,4 -9,6 -1,-1 -2,-2v-1l-2,-1 -3,1h-2h-1l-6,1 -3,2v-1l-7,3h-1l-5,6 -2,1 -4,1h-1l-7,2 3,4v8l-1,1v3l-2,1h-2l-1,2 -4,2 -2,1 -3,2 3,5v1l-1,4h-2l-3,4Z"/>
    <path data-geo-id="2502144105" data-name="Needham" d="M2130,830l39,17 24,-4 1,-1 39,-27 -1,-2v-1v-3l-2,-1v-1l-2,-1h-1l-9,-1v-1l-2,-5v-4h-1v-2l-4,-3 2,-2 -2,-1 -1,-3h-2l-8,-2 -2,-4v-6l-2,-1 -61,54v1Z"/>
    <path data-geo-id="2502150250" data-name="Norwood" d="M2188,938l40,41 16,-18 13,-30 9,-11 -33,-21 -20,6Z"/>
    <path data-geo-id="2502155955" data-name="Randolph" d="M2313,915l34,44 10,14 19,22 12,-41 1,-7 -27,-41 -30,4Z"/>
    <path data-geo-id="2502167945" data-name="Stoughton" d="M2271,993l17,38 -7,43 10,-5 10,-7h2l2,-1 13,-6 5,-3 9,-5 3,-2 2,-1 2,-2 13,-6 -8,-38 13,-25 -10,-14 -30,23Z"/>
    <path data-geo-id="2502172495" data-name="Walpole" d="M2128,979l4,4v11l18,62 38,-23 12,-36 28,-18 -40,-41 -12,-25v-1l-17,4 -5,63Z"/>
    <path data-geo-id="2500546575" data-name="North Attleborough" d="M2057,1185v1v2v9v3v1v7v1v2v2v4v6v3v1v2v2v4v19v2v7v3v7l42,-32 62,-60 -17,-33 -16,7 -3,2 -3,2 -14,7v1l-3,1 -2,1 -5,2v1h-2l-2,1 -6,4 -7,3 -7,5h-2h-8h-4Z"/>
    <path data-geo-id="2500500520" data-name="Acushnet" d="M2466,1482l25,101 2,-1 52,-21v-5l-6,-19 -5,-19 -9,-30 -3,-15 -2,-6 -19,-2 -1,-6 -16,9Z"/>
    <path data-geo-id="2500516950" data-name="Dighton" d="M2239,1316l-16,-3 9,82 17,1 5,32h17l25,-2h5l10,-79 -20,-21Z"/>
    <path data-geo-id="2500502690" data-name="Attleboro" d="M2057,1273v27h3v-1h2h2l3,-2h4l1,-1h5l6,-1h1l4,-1h1l4,-1h3l36,-7 86,-6 -47,-82 -10,-17 -62,60Z"/>
    <path data-geo-id="2500538225" data-name="Mansfield" d="M2144,1148l17,33 10,17 91,-48 -8,-61 -10,5 -16,8 -15,8 -10,6 -10,5 -12,7 -7,4h-2l-5,3Z"/>
    <path data-geo-id="2500520100" data-name="Easton" d="M2254,1089l8,61 4,15 51,8 13,3 29,8 -12,-70v-2l-2,-5v-5l-1,-6v-1l-2,-14 -2,-4 -3,-18 -2,-14 -3,2 -9,5 -5,3 -13,6 -2,1h-2l-10,7 -10,5 -5,3Z"/>
    <path data-geo-id="2500545000" data-name="New Bedford" d="M2484,1656l4,-10 20,27 -20,-58 4,-27 -1,-5 -25,-101 -21,14 -10,61 7,45 41,50Z"/>
    <path data-geo-id="2500549970" data-name="Norton" d="M2171,1198l47,82 14,-4 32,-30 53,-73 -51,-8 -4,-15Z"/>
    <path data-geo-id="2500556375" data-name="Rehoboth" d="M2132,1286l8,160 97,-12 -5,-39 -9,-82 16,3 -7,-40 -14,4Z"/>
    <path data-geo-id="2500562430" data-name="Somerset" d="M2226,1527l7,6 34,-25 34,-63 1,3 4,-7 -5,-15h-5l-25,2 -4,63 -30,-7Z"/>
    <path data-geo-id="2501731540" data-name="Hudson" d="M1855,698l-5,11 117,-18 4,-11 -51,-8 -29,-20 -3,1h-2l-14,4 -1,1 -4,1 -17,12h-1l23,13 -10,6 -3,3Z"/>
    <path data-geo-id="2501737875" data-name="Malden" d="M2327,610l12,39 40,-14 2,-2 2,-4 1,-4 2,-4v-1v-1l2,-2 -5,-7 -53,1Z"/>
    <path data-geo-id="2500334340" data-name="Lanesborough" d="M278,523l119,25 15,-30 -32,-11 12,-24 -20,-5 8,-46 -52,-12Z"/>
    <path data-geo-id="2500938400" data-name="Marblehead" d="M2516,571l36,-45 -22,-12 -10,5 -22,40Z"/>
    <path data-geo-id="2501529265" data-name="Hatfield" d="M865,698l29,-5 3,32 44,-4 9,-85 -2,-1h-3l-12,3h-2l-5,2 -5,1 -12,3h-1l-34,5 -4,1h-1Z"/>
    <path data-geo-id="2502712715" data-name="Charlton" d="M1457,948l5,41 -22,9 5,29 5,5 36,12 5,32 76,-23 10,-16 -17,-109 -22,2 -73,7Z"/>
    <path data-geo-id="2500926150" data-name="Gloucester" d="M2664,445h7l32,-45 19,35 32,-59 -20,-6v-68l-22,13 -17,30 -33,-12 -1,18 -14,-1 -20,37 10,26Z"/>
    <path data-geo-id="2501737000" data-name="Lowell" d="M2066,341l-12,15 20,30 58,15v1l22,-30 -4,-25 -27,-12 -47,15Z"/>
    <path data-geo-id="2500927620" data-name="Groveland" d="M2349,251l13,-27h2h-2h2l19,-38 49,31 7,7 -65,44v1v-1Z"/>
    <path data-geo-id="2500103690" data-name="Barnstable Town" d="M2928,1673l1,-2 3,-4 5,-14 2,-2 32,-40 5,17 5,20 46,-37 20,11 41,-11 2,-20 5,2 8,-52 -1,-28 -2,-2 -53,8 -25,-17 63,-6 -9,-4v-1l-2,-3 -6,-2h-7h-15h-9h-5l-15,-1h-7l-3,-1 -12,-1h-4l-5,-1 -68,96 12,16 -3,43 -14,24Z"/>
    <path data-geo-id="2500107980" data-name="Brewster" d="M3352,1489v-1l-25,-68 -3,-3 -2,-1 -7,2 -3,3 -7,3 -2,2 -3,1 -5,3 -4,1 -5,3v1l-3,1h-5l-15,5 -7,2 -2,1 -7,2 -3,1 -2,2 -5,3h-3l-2,2 -3,1 -9,8 -1,2 -2,1 -4,1v1l7,52 38,-23 40,2Z"/>
    <path data-geo-id="2500123105" data-name="Falmouth" d="M2768,1588l-28,14 11,28 -12,25 10,38 -12,32 -25,25 30,2v-2l4,-3 5,-5 6,-6 11,-3 3,-1 5,-1h5h7l3,-1 2,-2 7,-1 8,1 7,-3 3,-1 16,-2 12,-3 3,2 7,1 27,-56 -26,-8 -13,-47 -27,-9 -46,-15Z"/>
    <path data-geo-id="2500151440" data-name="Orleans" d="M3352,1488l1,-6 20,-5 3,-40 22,7 7,52h4l-7,-103 -21,-11h-3l-17,27 -25,-8 -6,1v1l-6,13h-2l2,1 3,3Z"/>
    <path data-geo-id="2500174385" data-name="Wellfleet" d="M3378,1300l-24,-81 -1,-3 -6,-12 -3,-4 -2,-5 -1,-3 -72,13 6,72 11,-26 58,13 -29,15 21,22 1,3h2l3,1h2Z"/>
    <path data-geo-id="2500960015" data-name="Saugus" d="M2356,566v4l1,2 2,4 3,4 2,2v1l3,5v1l2,1v1l14,19v-1l1,-1v-1l4,-3 1,-2v3l4,4v1l2,1v1l1,1 -1,3 1,1v1l-1,1 1,4v-1l5,2v4h2l2,-1h3l5,-5h4l1,2 17,-14 -20,-19 -20,-53 -23,-4 -1,3 -4,1 -3,2h2v2v1l1,2 -1,3 -2,7 -7,3v1l-1,4v2Z"/>
    <path data-geo-id="2500970150" data-name="Topsfield" d="M2425,389l12,27 30,-16 11,-14 1,-1 -1,-2 1,-1 4,-2 1,-2 7,-37 -56,-15 -7,44Z"/>
    <path data-geo-id="2500977150" data-name="West Newbury" d="M2401,153l-18,33 49,31 46,-36 -22,-44 -26,1Z"/>
    <path data-geo-id="2500901465" data-name="Andover" d="M2169,346v1l7,3 1,1 7,3 4,4 5,4 3,2 14,8 3,1 3,4 6,3v1l6,4 2,1h2v1h1v1l4,1 5,4 3,5 -1,1 -4,2v1v1v1v1l-1,1 3,3 8,9 2,1 2,-6 3,-5v-4l2,-3v-2l3,-1 5,2 2,4 2,2v3l1,1 2,2 5,6h2l8,-1 4,-1 29,-4 11,-1 -54,-90 -46,1 -3,-26 -7,-2 -20,-3 -19,39Z"/>
    <path data-geo-id="2500907420" data-name="Boxford" d="M2349,251l-46,-3 59,72 21,44 42,25 3,-19 7,-44 15,-12 -25,-17 -15,-7 -29,-1 -7,-20v-1Z"/>
    <path data-geo-id="2500921850" data-name="Essex" d="M2647,350l-25,-2 12,-19v-2l-33,-2v1l-13,17 -4,1 -1,1v1h-2l-10,17 17,57 49,-7 -10,-26Z"/>
    <path data-geo-id="2500934550" data-name="Lawrence" d="M2279,265l-32,-1 -17,32 3,26 46,-1 -3,-14 -7,-13Z"/>
    <path data-geo-id="2500937490" data-name="Lynn" d="M2441,610l18,-14 2,-2 8,-5h19l-22,-37 -16,-6 -33,-21 -22,13 20,53 20,19Z"/>
    <path data-geo-id="2500937560" data-name="Lynnfield" d="M2335,502l5,5 2,2 2,2h1h2h2h3h17l-2,5v2l2,2v3l2,1v2v1v1l1,4v1v1l23,4 22,-13 -43,-51 -2,-15v-7h-1v-1l-4,-1 -15,-2 -7,16 -6,7v8v3l-2,11Z"/>
    <path data-geo-id="2500940710" data-name="Methuen Town" d="M2235,173l-2,3 -1,1v1v1l1,15v14v2l2,14v4l2,17 -12,-4 -3,-1h-2l-4,-1 -1,-1h-2h-2l-1,-1 -5,-1 -7,-2 -9,1 -12,4 -3,2 -2,3 -3,3 10,54v3l5,23v1v1v1l19,-39 20,3 7,2 17,-32 32,1 17,-25 -13,-26Z"/>
    <path data-geo-id="2500943580" data-name="Nahant" d="M2459,596l2,-2Z"/>
    <path data-geo-id="2500937995" data-name="Manchester-by-the-Sea" d="M2593,461l41,-16h30l-27,-32 -49,7 -14,2 5,11 14,25Z"/>
    <path data-geo-id="2501116670" data-name="Deerfield" d="M865,471l24,31 -9,74 67,4 27,-48 -12,-35 8,-52 -15,-4 -17,15 -37,-15Z"/>
    <path data-geo-id="2501142040" data-name="Monroe" d="M636,236l-88,-3v2v2v13v5l2,27h7h32l22,-3h3Z"/>
    <path data-geo-id="2500959105" data-name="Salem" d="M2520,519l-12,6 7,-33 -26,-9 -5,3 -3,23 -31,37 16,6 32,7Z"/>
    <path data-geo-id="2501135180" data-name="Leverett" d="M1006,526l-14,65 4,38 29,-5 6,-2h2l34,-5 12,-90 -17,-7Z"/>
    <path data-geo-id="2501352144" data-name="Palmer Town" d="M1118,932v2l7,41 49,-9 13,16 43,4 10,-50v-1v-3v-1v-1v-2v-1v-2v-4v-3v-1l2,-4 1,-4 4,-3 1,-2 5,-8 11,-13 15,-22v-1l-9,1 -15,3 -2,3 -6,12 -11,1 -1,-4v-6h-2v1h-2l-3,3 -14,2h-1l-17,7 -21,6 -1,1 -2,1h-2h-1v1h-2l-2,1v2l-1,1v1l1,2v1l-1,2v1h-2l-2,1 -2,2v1l-1,-1v-1l-2,-1 -2,1 -1,2v1h-2h-2l2,-1 -2,-1 -1,1v2v1v1l1,1v1v3v1v1h2l2,2v2h-2v2v2l2,1 1,1h-3l-3,1 -9,1h-3Z"/>
    <path data-geo-id="2501358650" data-name="Russell" d="M655,1005l39,12 37,-51 -41,-83 -10,-2 -1,8Z"/>
    <path data-geo-id="2501370045" data-name="Tolland" d="M506,1108h8l9,1h6h9l7,1h1h2h9h3l15,1 10,-51 -10,-73 -49,-8 -2,-1 -6,-1 -4,-1h-2l-15,-2 -2,-1h-1v4v5v2l1,4 -1,6 1,1v3v1l2,3v2v1l4,7 -7,3 -2,1 -2,2v1l2,2 -3,4v2l1,13 2,9 5,20 4,1 1,2v1v2v1l-1,5 3,2 2,2v5v3v2v1l-2,1v2l2,1v2v1v1Z"/>
    <path data-geo-id="2501135285" data-name="Leyden" d="M908,250l-39,-2 16,71 29,35 34,-3 -10,-100Z"/>
    <path data-geo-id="2501145490" data-name="New Salem" d="M1147,538l8,1 2,-59 79,2v4l2,14 5,6 9,10 8,8 -5,7 -12,10 -8,7 -7,9 -12,9 9,49 -2,1 -2,1 -2,1v1h-1v1v1v1v2l-2,-1v1v3v1l-2,1 -1,1v1l-2,1v1l-2,1h-1v2h-2h2v2v1l-2,1 -2,1h-1v2v1v2h-2v1v2l-2,1v2v1v2v1l-2,1 -1,1v1v1v2v1v2v1l-2,2v1v2v2v1l2,1 -2,1 2,1v1l1,1 -1,-1v1l1,1v1v1l2,2 -2,-2v2v1v2h-1v2v1v2v1v1v2v1v1h1v1v1l-3,1v3v1h2v1l1,2 2,1 -2,3 -1,1v1l1,1v2v1l-1,-1v2v1v3v1l1,2 -1,2 -2,8v2v2v2l-2,-2 -1,2v2l-2,1 -2,3 -1,1 1,1 -1,1 -2,2v2v1l2,1 -2,1 -2,-1v2v3v1v2v2l-1,1v-2h-2l-2,1v1l-2,1v1l-1,1 -2,1 -2,-1 -1,1v2l-2,2h-2v2l-1,2 -2,-2v-1l-2,1v2l2,1h-2l-2,1h2h2l-2,3v1v-2v-1h-2l-1,1v2h-2v1v-1v-1v-1h-2v-1v-1h-1v-1v-1l1,-2v-1h2v-1v-2v-2l2,-1v-1v-1v-2v-1h1v-2v-1v-1l-1,-1h1v-2h2v-1l-2,-1v-1v-1l2,-1v-1v-2h-2l2,-1v-1v-1v-1v-1l-2,-1v-2v-1l-1,-2v-1v-1v-1v-1h-2v-1v-1l-2,-1v-3v-1v-1h2v-1v-1v-1v-1v-3h-2v-2l2,-1v-1v-1v-1v-2l-2,-1v-3h2v-2h-2v-1l-1,-1v-1v-1v-2l-2,-1v-1v-2l-2,-3h2l-2,-2 -1,-1v-2h1l2,-1h-2l-1,-1v-2l1,-1 2,-2 -2,-2 -1,-1 1,-2 -1,-1v-1v-1v-2l-2,-1v-1v-2v-1v-1v-3l2,-1v-1v-2l-2,-1v-1l-2,-1v-1v-2v-1v-1v-1h-1v-1v-2v-1v-2h-2v-1l-2,-2v-1l2,-1 -7,-54h12Z"/>
    <path data-geo-id="2501151265" data-name="Orange" d="M1150,404l3,18 4,58 79,2 -1,-7v-6l-2,-5v-2l-2,-8v-9h2v-1v-1h2v2h1h2l5,2h2v-4l-3,-20v-7l3,1 2,-1 1,-4v-1h2v-1h3l-1,-8h1l5,-1 6,-1h1l2,-1 2,1 1,-1h4h1v-1l2,-1 -2,-1v-4l2,-2v-1l-3,-2 -2,-1 5,-3 2,-3v-1v-1v-4l-4,-4v-1l4,-1v-6l-15,-22 -7,-9h-7l-2,-8 -12,1 -45,53 1,21Z"/>
    <path data-geo-id="2501336300" data-name="Longmeadow" d="M919,1124l2,8h2h1h2h10h2h3h2l2,-1 5,-7h12l1,-1h7l14,-2h7l-5,-38 -48,-10Z"/>
    <path data-geo-id="2500726325" data-name="Gosnold" d="M2693,1766l-76,47 -21,26 17,13 27,-37 78,-42Z"/>
    <path data-geo-id="2500769940" data-name="Tisbury" d="M2742,1800l44,-31 41,3 -51,120 -42,-62 -26,-13Z"/>
    <path data-geo-id="2501105560" data-name="Bernardston" d="M1013,254l-50,-2 -25,-1 10,100 41,-6 47,-8 -5,-20Z"/>
    <path data-geo-id="2501705070" data-name="Belmont" d="M2220,647l-9,12 16,25 37,13 2,-31Z"/>
    <path data-geo-id="2501711000" data-name="Cambridge" d="M2347,705v-1l-2,-4h-1h-2l-2,-1h-1l-11,-1h-17l-28,-37 -17,5 -2,31 10,12 29,15 14,1 1,-1 10,-4 9,-6 3,-7 2,-1v-1h3Z"/>
    <path data-geo-id="2501713135" data-name="Chelmsford" d="M2020,350l27,130 52,-14 33,-65 -58,-15 -20,-30Z"/>
    <path data-geo-id="2501721990" data-name="Everett" d="M2339,660l1,15 2,-2 2,-1v1l16,1 1,-1 -2,-1 -2,-2 2,-1h3l2,-1 3,-3v-2h2v-2l2,-1v-1v-2l1,-1v-1v-3l2,-3 2,-1v-1v-1v-2l2,-2v-1v-1l1,-5 -40,14Z"/>
    <path data-geo-id="2501730700" data-name="Holliston" d="M1944,928l3,17 7,14h6h7v13h2l5,-2 42,-27v1h2h2h1h4h3l9,-1 -2,-12 9,-2h1l7,-2 -32,-58 -44,10 7,18Z"/>
    <path data-geo-id="2501112505" data-name="Charlemont" d="M609,342l3,17 -3,14 112,25 47,-12 41,-7v-8l-27,3 -5,-34 -46,26 -27,-15 -5,-32 -66,5Z"/>
    <path data-geo-id="2501114885" data-name="Colrain" d="M869,248h-2l-105,-5 15,97 5,34 27,-3 95,-13 10,-4 -29,-35Z"/>
    <path data-geo-id="2501743895" data-name="Natick" d="M2059,774l-22,27 10,26 54,31v-3l24,-13 -2,-14 -1,-1v-2l-2,-3 -9,-22 -1,-4 -4,-7 -1,-5v-3l-2,-4 2,-3 -2,-23 -15,21Z"/>
    <path data-geo-id="2501748955" data-name="North Reading" d="M2279,418v58h4v-1l5,-1 13,-9 7,-7 31,13 6,-7 7,-16 15,2 4,1v1h1l4,-2 2,-5 -2,-3 -4,-9 -18,-20 -2,-2 -2,-6 -6,2 -11,4 -11,1 -29,4 -4,1 -8,1Z"/>
    <path data-geo-id="2501752805" data-name="Pepperell" d="M1906,290h-1h-4h-5l-30,-1h-16l-8,-2h-2h-7h-1h-7h-2h-3h-5h-2h-7h-2l-5,67 53,32 22,-36 37,-11 -17,-15Z"/>
    <path data-geo-id="2501768260" data-name="Sudbury" d="M1967,691l-7,35 80,16 7,-32v-1v-1l3,-8 21,-21 -2,-29 -59,-29 -12,38 -24,6 -3,15Z"/>
    <path data-geo-id="2501769415" data-name="Tewksbury" d="M2150,347l4,25 -22,30 78,48 18,11 24,-42 -2,-1 -8,-9 -3,-3 1,-1v-1v-1v-1v-1l4,-2 1,-1 -3,-5 -5,-4 -4,-1v-1h-1v-1h-2l-2,-1 -6,-4v-1l-6,-3 -3,-4 -3,-1 -14,-8 -3,-2 -5,-4 -4,-4 -7,-3 -1,-1 -7,-3v-1Z"/>
    <path data-geo-id="2501771025" data-name="Tyngsborough" d="M2064,295l-5,-1h-27l-14,-1h-3h-9h-1h-6h-6l-2,-1h-2h-6l10,48 -44,14 1,43 70,-47 34,6 12,-15Z"/>
    <path data-geo-id="2501773440" data-name="Watertown Town" d="M2206,708v1l46,7 5,1 4,-1 6,-1h2l3,-5 2,-1 -10,-12 -37,-13Z"/>
    <path data-geo-id="2501773790" data-name="Wayland" d="M2047,710l-7,32 19,32 29,-2 15,-21 -5,-79 -29,-22 2,29 -21,21 -3,8v1Z"/>
    <path data-geo-id="2501780230" data-name="Wilmington" d="M2208,454l8,32 33,36 32,-18 -2,-28v-58l-5,-6 -2,-2 -1,-1v-3l-2,-2 -2,-4 -5,-2 -3,1v2l-2,3v4l-3,5 -2,6 -24,42 -18,-11Z"/>
    <path data-geo-id="2501761380" data-name="Sherborn" d="M2020,869l32,58 2,-1 23,-5 12,-5 -3,-6h-2l-1,-2v-1v-2l3,-6h5h2h1l2,-2 -2,-1 -1,-1 -2,-4v-1l2,-4 1,-2 4,-3 3,-3 2,-2v-2v-7v-2v-2v-1v-1v-2l-2,-1 -54,-31 -27,19Z"/>
    <path data-geo-id="2501761590" data-name="Shirley" d="M1784,481l-3,24h3l10,2 7,2h2l3,2 7,1 7,1v-20l3,-5 12,-10 10,-36 -35,-57 -12,-12 -4,31 -3,16v3v5l-2,2v10l-3,14v9Z"/>
    <path data-geo-id="2502308085" data-name="Bridgewater" d="M2361,1187l5,24 5,4 20,16 20,21 19,-14 32,10 11,-33 23,-9 7,-38h-10l-12,-15 -53,-2Z"/>
    <path data-geo-id="2502309000" data-name="Brockton" d="M2335,1045l2,14 3,18 2,4 2,14v1l1,6 41,-6 2,16 34,-8 10,-29v-20l-4,-34 -22,-15 -3,2 -3,3 -2,1 -3,2 -6,2 -1,1 -2,1 -2,1 -3,1 -2,1 -27,15 -13,6 -2,2Z"/>
    <path data-geo-id="2502311665" data-name="Carver" d="M2569,1253l14,17 25,90 9,10v1l8,9 27,30 22,-1 2,-21 32,-35 -68,-107 -6,-18Z"/>
    <path data-geo-id="2502330210" data-name="Hingham" d="M2527,832l-9,22 -30,-16 -16,15 7,26v4l2,-1 2,-1 1,1h2v2v3v5v1v4v2l-2,3v1v3v2l-1,8v6l-2,14v1v1v3v3v1l-2,3 -1,19 32,-18 47,-29 10,-8 -3,-2 -2,-5 -6,-8 -5,-13 -2,-6 -2,-4 -2,-3v-8l6,-8 -4,-1v-1v-2v-2l2,-6 2,-3v-2Z"/>
    <path data-geo-id="2502333920" data-name="Lakeville" d="M2378,1393l6,7 2,2 10,10 4,3 -4,5v2l-8,18 40,-6 58,-10 24,-4v-44l-22,-28 1,-32 -66,-34 2,4 2,9 1,10 2,1v4l2,4v1l2,5 -16,33 -5,5 -7,5v1l-1,2 -4,3 -22,23Z"/>
    <path data-geo-id="2502354310" data-name="Plymouth" d="M2842,1396l-5,-24 15,-37 -20,-62 7,-21 -41,-28 -32,11 -41,-20 -28,-32 -23,31 -34,32 68,107 -32,35 -2,21 95,-6 -15,54 3,-2 4,-1 1,-1v-1l6,-2 1,-1 2,-2 10,-5 5,-3 5,-1 2,-1 2,-1 5,-3 5,-2 8,-4 4,-1 3,-4 2,-2 1,-1 6,-7 5,-7 1,-1Z"/>
    <path data-geo-id="2502360330" data-name="Scituate" d="M2706,1004l-25,-45 -3,5 27,40ZM2673,959l-7,-57 -29,-20 -15,-34 -16,13 -1,1 5,5 -2,1 -3,1v1v1l-4,1 4,4v2v2v1v1l-4,-1v5l-1,1 -4,3 -8,7 -7,5 -5,3 -2,3 -1,1 -4,1 -2,2 -10,8 56,14 24,24Z"/>
    <path data-geo-id="2502354415" data-name="Plympton" d="M2590,1147l-16,36 -34,36 29,34 65,-25 -26,-38 -12,-44Z"/>
    <path data-geo-id="2501147835" data-name="Northfield" d="M1108,259l-9,-1h-15l-4,-1h-3h-5h-3h-2h-2l-5,-1 -47,-2 18,63 27,32 -22,21 -1,40 25,-20 80,-23Z"/>
    <path data-geo-id="2501129475" data-name="Hawley" d="M596,437l-7,28 12,2 17,4h1l17,5 5,1h2h2l6,2 16,3h1l11,2 25,-22 17,-64 -112,-25 -2,6 -5,28 -5,17Z"/>
    <path data-geo-id="2500701585" data-name="Aquinnah" d="M2515,1949l2,-10 81,-33 36,62 -12,30 -17,22 -87,71 22,-51 -27,-38Z"/>
    <path data-geo-id="2501531785" data-name="Huntington" d="M641,861l10,9 14,10 10,8 4,1 1,-8 5,-11 14,-11 34,-5 -2,-14 -3,-102 -61,-3 1,10v6v8l2,50v17v3l-13,14 -12,15 -4,2Z"/>
    <path data-geo-id="2502300170" data-name="Abington" d="M2427,995l-21,11 22,15 4,34 56,-16 -15,-20 -9,-44 -25,13Z"/>
    <path data-geo-id="2502317895" data-name="Duxbury" d="M2677,1159l21,-20 12,15 7,-45 25,-6 -8,-33 -31,20 -63,-49 -28,62 10,32 37,4 9,19Z"/>
    <path data-geo-id="2502318455" data-name="East Bridgewater" d="M2432,1075l-10,29 6,47 53,2 12,15h10l3,-29 -11,-52 -39,1Z"/>
    <path data-geo-id="2501504825" data-name="Belchertown" d="M1048,726l9,54 13,101 4,-1 15,-1 5,-1h17v4l7,50 17,-2h3l9,-1 3,-1h3l-1,-1 -2,-1v-2v-2h2v-2l-2,-2h-2v-1v-1v-3v-1l-1,-1v-1v-1v-2l1,-1 2,1 -2,1h2h2v-1l1,-2 2,-1 2,1v1l1,1v-1l2,-2 2,-1h2v-1l1,-2v-1l-1,-2v-1l1,-1v-2l2,-1h2v-1h1h2l2,-1 3,-66 -22,-37v-1v-1v-1h-2v-1v-1h-1v-1v-1l1,-2v-1h2v-1v-2v-2l2,-1v-1v-1v-2v-1h1v-2v-1v-1l-1,-1h1v-2h2v-1l-2,-1v-1v-1l2,-1v-1v-2h-2l2,-1v-1v-1v-1v-1l-2,-1v-2v-1l-1,-2v-1l-46,6 -3,-29Z"/>
    <path data-geo-id="2501519370" data-name="Easthampton Town" d="M804,807v9l22,1 12,22v1l29,41 10,-3 19,-50 1,-7 17,-14 4,-1 -4,-5 -52,-2Z"/>
    <path data-geo-id="2501527690" data-name="Hadley" d="M897,725l38,46 -21,30 4,5 3,1 20,-19 50,-4 3,-122 -10,-31 -15,2 -7,1h-4l-5,1 -3,1 -9,85Z"/>
    <path data-geo-id="2501572880" data-name="Ware" d="M1155,786v1l22,37 -3,66 1,-1 21,-6 17,-7h1l14,-2 3,-3h2v-1h2v6l1,4 11,-1 6,-12 2,-3 15,-3 9,-1 2,-6 5,1 3,3v-6v-1v-4l-3,-1h-2v-2v-3v-10l-3,-2h3h3v-6l2,-10v-2l3,-1 4,-7 -4,-2 -3,-2h-2h-3v-4v-3l3,-2v-2v-3v-3l2,-2v-3l-20,5 -5,1 -6,1 -5,1h-10l-12,4 -3,-19 -2,-16 -1,-8 -2,-17 -5,-3h-2v1h-2h-1v1l-2,1 -2,1v-1l-1,1h-2v1l-2,2 -1,1v-1l-2,1v1v1l-2,-1v1l-2,1h-1l-2,-1v2v2v2l-2,-2 -1,2v2l-2,1 -2,3 -1,1 1,1 -1,1 -2,2v2v1l2,1 -2,1 -2,-1v2v3v1v2v2l-1,1v-2h-2l-2,1v1l-2,1v1l-1,1 -2,1 -2,-1 -1,1v2l-2,2h-2v2l-1,2 -2,-2v-1l-2,1v2l2,1h-2l-2,1h2h2l-2,3v-1v-1h-2l-1,1v2Z"/>
    <path data-geo-id="2501579915" data-name="Williamsburg" d="M768,714l33,-5 64,-11 4,-48h-2l-5,1 -9,1 -8,1 -7,2 -2,-3 2,-29v-26l-7,1 -13,2 -9,1 -13,2h-2l-9,1 -11,3 -2,53Z"/>
    <path data-geo-id="2502327795" data-name="Halifax" d="M2503,1168l-7,38 44,13 34,-36 16,-36 -26,-9 -58,1Z"/>
    <path data-geo-id="2502331645" data-name="Hull" d="M2565,831l-25,-6 -25,-49 -3,21 20,22 -5,13 24,6h1h2h2v-2v-3h1l2,-1h2h3Z"/>
    <path data-geo-id="2502338540" data-name="Marion" d="M2633,1568l1,-10 18,9 -22,-42 46,37 -10,-54 -29,-24 -19,-24 -17,64 -3,29Z"/>
    <path data-geo-id="2502352630" data-name="Pembroke" d="M2556,1044l-4,60 12,34 26,9 6,-1 26,-11 -10,-32 28,-62 -27,-24 -22,6Z"/>
    <path data-geo-id="2502339450" data-name="Mattapoisett" d="M2560,1626h1l37,-14 -5,-22 37,13 3,-35 -35,-15 3,-29 -62,13 6,19v5l7,21 4,16 1,6 2,3Z"/>
    <path data-geo-id="2502357775" data-name="Rockland" d="M2464,975l9,44 15,20 12,17 13,-2 -12,-80 14,-2 -5,-23 -32,18Z"/>
    <path data-geo-id="2502333220" data-name="Kingston" d="M2697,1183l-21,-24h1l-9,-1 -9,-19 -37,-4 -26,11 12,44 26,38 6,18 34,-32Z"/>
    <path data-geo-id="2500523000" data-name="Fall River" d="M2305,1458l-16,34 -57,78 1,1h2h2l2,1h1h2l2,2 5,1h1v1v3l2,1h3v1l6,1h1l4,1 5,1h1l2,1h2h2v2h1h2l2,1h1h2l2,1h1h2l-2,1v1v2v4v13v1l-1,4v14l-4,4 -1,2v6v6v11h1l2,1 2,-27 18,-83 36,6 61,-31 2,-43Z"/>
    <path data-geo-id="2500569170" data-name="Taunton" d="M2232,1276l7,40 52,10 20,21 4,-22 25,-3 65,44 1,-2v-1l7,-5 5,-5 16,-33 -2,-5v-1l-2,-4v-4l-2,-1 -1,-10 -2,-9 -2,-4 -3,-1h-2l-1,27 -46,-1 -46,-65 10,-24 -5,-42 -13,-3 -53,73Z"/>
    <path data-geo-id="2500577570" data-name="Westport" d="M2286,1660v1l7,29 1,8 2,9v4v2v4v2v2v1l2,3 2,18 1,19v4v6v1v2v3l2,2v9l25,-6 -17,-53 38,38 13,-53 16,79 16,-13 -5,-7 -1,-62 -16,-36 7,-47 -37,-74 -36,-6 -18,83 -2,27Z"/>
    <path data-geo-id="2501731085" data-name="Hopkinton" d="M1854,885l25,39 14,3 1,4v4v1v1v1l31,-8 15,1 4,-3 39,-31 -7,-18 -51,-46 -15,5h-2l-5,-4 -2,-1h-2l-18,3h-2v2l-5,2 -12,13 -2,11Z"/>
    <path data-geo-id="2501745560" data-name="Newton" d="M2159,753l-2,3 14,5 6,3 19,3 2,2 -2,2 2,1v6l2,4 8,2h2l1,3 2,1 -2,2 4,3v2h1v4l2,5v1l9,1h1l2,1v1l2,1v3l3,-4 7,-11 10,-8 2,-1 1,-1v-1l-1,-1 -4,-3 -8,-10 2,-1 1,-1 2,-1v-1l3,-4 5,-3v-2l2,-1 5,-5 -12,-9 2,-6 -5,-8 -2,-2v-1l2,-2v-2l2,-2v-1l1,-1 2,-3 -46,-7 -39,16Z"/>
    <path data-geo-id="2501738715" data-name="Marlborough" d="M1830,730l2,1v2l5,5v1v1h1l5,5 2,1h2l3,3v8l2,1 2,4v2l1,3 2,1 2,2h1v1h2l2,3 3,4 2,-2 5,-4 31,-14 6,-1h2h2l8,-2h4h1l2,-1 5,2 3,1 9,-1 7,-1h3l3,-29 7,-35 -117,18 -3,6 -12,12 -3,2Z"/>
    <path data-geo-id="2501700380" data-name="Acton" d="M1947,588l30,16 33,17 40,-84 -13,-37 -26,6 -13,25 -29,11Z"/>
    <path data-geo-id="2501703005" data-name="Ayer" d="M1835,478l3,3 2,1 3,3h2l2,1h2h1h2l7,2 5,-3 2,-1 5,-4 3,1 19,4 3,1 14,3 25,-33 -90,-14Z"/>
    <path data-geo-id="2501701955" data-name="Ashby" d="M1684,282h-7h-5h-10h-5h-10l-24,-1 -22,-2h-10h-10h-2l7,15 13,14 2,1v1l2,1 6,2v2l9,17 -3,11v9v20v2h3l10,-3 63,1v-3v-6l3,-79Z"/>
    <path data-geo-id="2501702130" data-name="Ashland" d="M1925,833l51,46 44,-10v-23l-71,-41 -2,6 -2,2v2l-5,19v2Z"/>
    <path data-geo-id="2501701605" data-name="Arlington" d="M2239,621l-19,26 46,19 17,-5v-1l1,-13 -17,-26Z"/>
    <path data-geo-id="2502709105" data-name="Brookfield" d="M1347,940l5,25h3l2,-1 46,10 13,-19 12,-43 -12,-36 -35,-8 -17,22Z"/>
    <path data-geo-id="2501501325" data-name="Amherst" d="M984,631l10,31 -3,122 6,3 60,-7 -9,-54 -8,-71 -4,-11v-9l-1,-2v-4l-2,-7h-2l-6,2 -29,5Z"/>
    <path data-geo-id="2502507000" data-name="Boston" d="M2347,705v-1M2347,704l-2,-4M2345,700h-1M2344,700h-2M2342,700l-2,-1M2339,698v-2M2339,696l-2,-4M2337,692v-3M2337,689h-2M2335,689h-2M2333,689l-1,-1M2332,688l1,-1M2333,687v-1M2333,686l2,-2M2335,684v-2M2335,682l2,-2M2337,680l2,-3M2340,675l2,-2M2342,673l2,-1M2344,672v1M2371,812l-9,-56 36,-12 -51,-39h-2h-3v1l-2,1 -3,7 -9,6 -10,4 -1,1 -14,-1 -29,-15 -2,1 -3,5h-2l-6,1 -4,1 -5,-1 -2,3 -1,1v1l-2,2v2l-2,2v1l2,2 5,8 -2,6 12,9 7,-6 2,-1 -2,-1h2h1v-2v-1l4,-2v-1l2,-1 1,-1v-1l2,-1v-1l5,-4h2l3,-3 2,-1 5,1h2l8,3v1v2v1l2,1 -5,5v5v2v1l-2,2v1l-2,2v2l-1,2v1l-4,5 -3,1 -4,4 -3,4 -2,4 -1,4v1l-5,7 -4,4h-2l-1,1v2l-4,2 -1,-1 -2,-3 -2,-1 -3,-2 -4,-3 -1,1 -2,1 -10,8 -7,11 -3,4v1l1,2 11,6 5,12 3,5 2,1v1l1,1 2,2 2,1v1l2,2 1,-1 4,-2 5,1 1,2v1v2v1l2,2v1l2,11v1v2v3h2v1l1,1 2,3 5,4v1h2v-1l3,-4h2l1,-4v-1l-3,-5 3,-2 2,-1 4,-2 1,-2h2l2,-1v-3l1,-1v-8l-3,-4 7,-2h1l4,-1 2,-1 5,-6h1l7,-3v1l3,-2 6,-1h1h2l3,-1 2,1v1l2,2 1,1 9,-6 -3,-4 3,-2h2h6h2v-6h2ZM2340,699l-1,-1v1ZM2362,679l7,30 29,21 22,-13 -22,-8 13,-20 7,-8 2,-2 -25,-10Z"/>
    <path data-geo-id="2502581005" data-name="Winthrop Town" d="M2420,717l-9,-28 -13,20ZM2411,689l26,29 -14,-42 -3,3 -2,2Z"/>
    <path data-geo-id="2502513205" data-name="Chelsea" d="M2360,674h1l1,5 33,-10 -19,-22v1l-2,1 -2,3v3v1l-1,1v2v1l-2,1v2h-2v2l-3,3 -2,1h-3l-2,1 2,2 2,1Z"/>
    <path data-geo-id="2502745105" data-name="New Braintree" d="M1370,712l-34,25 -22,47 -27,15h2l39,-6 32,22 15,-26 72,-7 -66,-61Z"/>
    <path data-geo-id="2502746925" data-name="Northbridge" d="M1767,963v54l-12,24 24,-3 27,9 54,-23v-9l-11,-3 -34,-53Z"/>
    <path data-geo-id="2500304545" data-name="Becket" d="M412,799l-3,48 39,-6 29,24 76,-4 2,-11 3,-5 2,-15v-2v-7l2,-53 -2,1 -5,8h-4v-1l-1,-1 -2,-4h-3v1h-2l-3,-1h-2l-2,1 -2,-1 -5,-3 -1,-1 -2,-1 -2,-4v-1v-3l-6,1v-1l-2,-2 -5,-5h-2l-5,-3 -2,-15 -88,12v31Z"/>
    <path data-geo-id="2500334655" data-name="Lee" d="M295,750l-1,82 42,1 15,-26 61,-8 2,-23 -29,-19 -40,-58 -7,48Z"/>
    <path data-geo-id="2500360225" data-name="Savoy" d="M489,413l15,3 5,-70 48,4 13,18 42,-9 -3,14 -2,6 -5,28 -5,17 -1,13 -7,28 -4,17v1v-1l-100,-23Z"/>
    <path data-geo-id="2500371095" data-name="Tyringham" d="M336,833l-15,19 88,58v-63l3,-48 -61,8Z"/>
    <path data-geo-id="2500300555" data-name="Adams" d="M407,409l82,4 15,3 5,-70 2,-5 -99,-10 -3,40Z"/>
    <path data-geo-id="2500313345" data-name="Cheshire" d="M380,432l-8,46 20,5 -12,24 32,11 17,-37 38,5 18,-27 4,-46 -82,-4 -27,-10Z"/>
    <path data-geo-id="2502761800" data-name="Shrewsbury" d="M1701,776l-3,2 20,85 14,3 52,-14 5,-32 -17,-59 -10,-10Z"/>
    <path data-geo-id="2502763345" data-name="Southbridge Town" d="M1391,1131h3h5h2h3l10,1h2h5h7h5h10l4,1h3h7h5h8h4h3h7h5l2,-57 -5,-32 -36,-12 -5,-5 -12,35Z"/>
    <path data-geo-id="2502758580" data-name="Royalston" d="M1384,271h-12h-2l-17,-1 -25,-1h-2h-1l-16,-1h-17l-11,-1h-6h-8l-9,-1h-13h-7l-12,-1 5,29 5,30 12,-1 2,8h7l7,9 15,22v6l52,-8 12,27h14l22,-4Z"/>
    <path data-geo-id="2502755395" data-name="Princeton" d="M1515,610l71,64 52,-46 16,-13 -12,-62 -12,-29 -15,-6 -48,44 -10,-8v21Z"/>
    <path data-geo-id="2500314010" data-name="Clarksburg" d="M506,231h-2l-42,-2 -43,-1 -1,40 96,5 10,-41Z"/>
    <path data-geo-id="2500316180" data-name="Dalton" d="M397,548l-20,91 30,1 12,-50 31,1 8,-44 9,-61 -38,-5 -17,37Z"/>
    <path data-geo-id="2501526535" data-name="Granby" d="M997,787l-28,25 10,81 8,-1 9,-1 3,-1h2l8,-1 9,-1h1l6,-1 15,-2h3l12,-2 15,-2 -13,-101Z"/>
    <path data-geo-id="2502768155" data-name="Sturbridge" d="M1357,1129h5h5h2h5l5,1h5h2l3,1h2l42,-69 12,-35 -5,-29 22,-9 -5,-41 -41,7 -13,19 -46,-10v27v18v8v8v5v2v8v2v11v23v11v41Z"/>
    <path data-geo-id="2502768610" data-name="Sutton" d="M1642,986l29,56 20,-1 7,24 64,-16 17,-11 -24,3 12,-24v-54l-24,-12 -5,-23Z"/>
    <path data-geo-id="2500324120" data-name="Florida" d="M511,341l-2,5 48,4 13,18 42,-9 -3,-17 -8,-12 -24,-13h2v-1v-4v-1h11v-4l-1,-2 1,-3 2,-1 2,-3h2l6,3 9,-5 1,-1v-2v-4l-1,-2 3,-2v-1l2,-2v-3h-2h-3l-22,3h-32h-7l-2,-27v-5v-13v-2v-2l-24,-1 -10,41Z"/>
    <path data-geo-id="2500321360" data-name="Egremont" d="M134,879l-5,20 -5,14 -5,19 -2,4v4l-3,2v4l-2,8v3l49,43 23,-13 15,-34 -19,-3 -3,-64Z"/>
    <path data-geo-id="2500328180" data-name="Hancock" d="M285,364v4l-1,4 -4,11 -3,10 -4,7 -1,11 -2,6 -2,7 -5,14 -12,42 -1,5v1l-5,13 -4,16v1l-5,15v1l-5,16v3v3l-2,2v1l-5,16v2l-5,16v2l-2,4v3l-1,4v3l-4,9 -3,3v2l42,10 27,-108 50,-103 -12,-3 12,-51Z"/>
    <path data-geo-id="2500326815" data-name="Great Barrington" d="M189,829l5,42 -17,15 3,64 19,3 85,2 8,-17 -2,-29 31,-57 15,-19 -42,-1 -73,-3Z"/>
    <path data-geo-id="2500330315" data-name="Hinsdale" d="M458,547l-8,44 -31,-1 -12,50 31,2 -4,24 45,11 23,-119Z"/>
    <path data-geo-id="2500778235" data-name="West Tisbury" d="M2708,1817l26,13 42,62 7,33 7,109 -43,5 -5,-67 -52,-66 -22,-50Z"/>
    <path data-geo-id="2500750390" data-name="Oak Bluffs" d="M2827,1772l52,10 14,47 -54,59 -22,2 -41,2Z"/>
    <path data-geo-id="2502773090" data-name="Warren" d="M1240,921v4v2v1v2v1v1v3v1l7,4 6,2 2,1 7,4 27,14 10,13h7l7,-2 10,-2 5,-1 17,-3h2l5,-1 -5,-25 -31,-88h-27v6l-3,-3 -5,-1 -2,6v1l-15,22 -11,13 -5,8 -1,2 -4,3 -1,4 -2,4v1Z"/>
    <path data-geo-id="2502775400" data-name="West Brookfield" d="M1281,829l3,2v10v3v2h2l3,1v4v1h27l31,88 17,-50 17,-22 -21,-53 -32,-22 -39,6 3,2 4,2 -4,7 -3,1v2l-2,10v6h-3Z"/>
    <path data-geo-id="2502777010" data-name="Westminster" d="M1552,416l3,10 -32,59 -19,17 53,52 10,8 48,-44 15,6 3,-36 -24,-2 6,-104Z"/>
    <path data-geo-id="2500713800" data-name="Chilmark" d="M2518,2091l87,-71 17,-22 12,-30 -36,-62 42,-23 28,-27 22,50 52,66 5,67 -51,10 -28,38 -9,41 -22,23 -36,12 -39,-10 -28,-22Z"/>
    <path data-geo-id="2500721150" data-name="Edgartown" d="M2776,1892l41,-2 22,-2 54,-59 64,-3 28,23 11,42 -1,52 56,-27 52,-3 31,11 -63,-1 -64,36 -34,61 -80,37 -19,-22 -84,-1 -7,-109Z"/>
    <path data-geo-id="2500345420" data-name="New Marlborough" d="M282,1095h7h1l2,1h10h5l12,1h2h5l10,1h4h3v1h7h3h9l6,1h11l18,1 -10,-137 -36,5 -20,-25 -39,-6 -8,17 5,48 -12,17Z"/>
    <path data-geo-id="2500343300" data-name="Mount Washington" d="M112,957v1l-3,9 -3,9v3l-4,12 -3,6 -2,8 -2,8 -8,28v1l3,19v1l2,16 5,10 9,1 3,-1 5,1 10,-1h27l17,-67 -7,-21Z"/>
    <path data-geo-id="2500342460" data-name="Monterey" d="M321,852l-31,57 2,29 39,6 20,25 36,-5 22,-32v-22Z"/>
    <path data-geo-id="2500346225" data-name="North Adams" d="M418,268l-9,-1 3,64 99,10 3,-68Z"/>
    <path data-geo-id="2502702480" data-name="Athol" d="M1231,445v9l2,8v2l2,5v6l1,7v4l2,14 5,6 9,10 8,8 54,-45 29,-92 -12,-27 -52,8 -4,1v1l4,4v4v1v1l-2,3 -5,3 2,1 3,2v1l-2,2v4l2,1 -2,1v1h-1h-4l-1,1 -2,-1 -2,1h-1l-6,1 -5,1h-1l1,8h-3v1h-2v1l-1,4 -2,1 -3,-1v7l3,20v4h-2l-5,-2h-2h-1v-2h-2v1v1Z"/>
    <path data-geo-id="2502717685" data-name="Dudley" d="M1489,1133h14l6,1h4h5h3h7l5,1h5h4h15l17,1h2h8h2h5v-64l-24,-19 -76,23Z"/>
    <path data-geo-id="2500353050" data-name="Peru" d="M502,558l-23,119 18,5 9,-9 6,1 11,3 22,5 6,3 4,-11 2,-6v-2l1,-8 2,-10v-1l3,-15v-2l2,-1 5,-31 5,-22Z"/>
    <path data-geo-id="2500353960" data-name="Pittsfield" d="M251,631l41,8 64,16 21,-16 20,-91 -119,-25Z"/>
    <path data-geo-id="2500356795" data-name="Richmond" d="M209,621l-2,9 -3,14 -4,3v4v5l-3,9v3l-2,2 -1,8 -2,6v3l-3,7v3l-5,16 64,1h10l-5,-22 39,-53 -41,-8Z"/>
    <path data-geo-id="2500361065" data-name="Sheffield" d="M151,1088h5l4,1h1h12h2l7,1h12l15,1 17,1 10,1h5h4h8l15,1h2l12,1 -5,-75 12,-17 -5,-48 -85,-2 -15,34 -23,13 7,21Z"/>
    <path data-geo-id="2502763165" data-name="Southborough" d="M1867,778l5,7 29,48 2,1 5,4h2l15,-5 15,3v-2l5,-19v-2l2,-2 2,-6 3,-9v-1l5,-13 2,-7v-4v-5l-2,-11h-3l-7,1 -9,1 -3,-1 -5,-2 -2,1h-1h-4l-8,2h-2h-2l-6,1 -31,14 -5,4Z"/>
    <path data-geo-id="2502730560" data-name="Holden" d="M1586,674l-36,34 7,23 27,66 15,12 68,-56 -15,-91 -14,-34Z"/>
    <path data-geo-id="2502775015" data-name="Westborough" d="M1789,820l-5,32 24,6 5,26 41,1 6,-21 2,-11 12,-13 5,-2v-2h2l18,-3h2l-29,-48 -49,7Z"/>
    <path data-geo-id="2502782000" data-name="Worcester" d="M1591,815l24,69 45,-5 12,26 58,-35 2,-4 -14,-3 -20,-85 -16,-36 -15,11 -68,56Z"/>
    <path data-geo-id="2502771480" data-name="Upton" d="M1813,884l2,75 34,53 11,3 21,-26 8,-20 5,-29v-2v-1v-1v-1v-4l-1,-4 -14,-3 -25,-39Z"/>
    <path data-geo-id="2500377990" data-name="West Stockbridge" d="M184,713v1v1l-2,2 -2,6v2l-3,13 -2,2 -12,42 29,30 -3,17h32l5,-75 22,-40Z"/>
    <path data-geo-id="2500373335" data-name="Washington" d="M356,655l-11,44 40,58 29,19v-31l88,-12v-3v-10v-1v-1l-1,-8v-1v-2v-18l-4,-7 -18,-5 -45,-11 4,-24 -31,-2 -30,-1Z"/>
    <path data-geo-id="2500367595" data-name="Stockbridge" d="M248,714l-22,40 -5,75 73,3 1,-82v-36h-37Z"/>
    <path data-geo-id="2500380685" data-name="Windsor" d="M467,486l-9,61 44,11 73,18h2l5,-28v-3l2,-3v-5l3,-13 3,-22 4,-14 2,-3 -4,-1h-2l-1,-1h-2h-2v-1l-100,-23Z"/>
    <path data-geo-id="2502769275" data-name="Templeton" d="M1357,387l3,4 2,2v3l2,1 5,51 30,54 10,45 75,-63 -17,-29 -17,-10 -7,-29 -27,-30 -37,-3Z"/>
    <path data-geo-id="2501179110" data-name="Whately" d="M836,652l2,3 7,-2 8,-1 9,-1 5,-1h2h1l4,-1 34,-5h1l12,-3 5,-1 5,-2h2l12,-3h3l2,1 -3,-56 -67,-4v15l-42,6v26Z"/>
    <path data-geo-id="2501161905" data-name="Shutesbury" d="M1033,622l2,7v4l1,2v9l4,11 15,-3h2l5,-1 7,-1 28,-3 43,-8 -7,-54h12l2,-47 -68,-11 -12,90Z"/>
    <path data-geo-id="2501102095" data-name="Ashfield" d="M704,462l-25,22 1,18v16v21l4,17 13,3 7,3 9,2 6,1 4,1 6,1 45,13 8,2 27,-108 -8,-18 -24,-4Z"/>
    <path data-geo-id="2502117405" data-name="Dover" d="M2091,890v1l2,4 1,1 2,1h61l2,19 17,-4 17,-69 -24,4 -39,-17 5,-4v-1l-12,3 2,14 -24,13v3l2,1v2v1v1v2v2v7v2l-2,2 -3,3 -4,3 -1,2Z"/>
    <path data-geo-id="2502139975" data-name="Medway" d="M1967,975l-1,28 35,-5h5l49,2h2l3,-3 -23,-53v-1l-9,1h-3h-4h-1h-2h-2v-1l-42,27 -5,2h-2Z"/>
    <path data-geo-id="2502178690" data-name="Westwood" d="M2176,913l12,25 25,-33 20,-6 33,21 6,-16 -78,-62 -1,1 -17,69Z"/>
    <path data-geo-id="2502102935" data-name="Avon" d="M2357,973l-13,25 8,38 27,-15 2,-1 3,-1 2,-1 2,-1 1,-1 -13,-21Z"/>
    <path data-geo-id="2502154100" data-name="Plainville" d="M2057,1143v11v4v7v2v1v6v2v9h3h4h8h2l7,-5 7,-3 6,-4 2,-1h2v-1l5,-2 2,-1 3,-1v-1l14,-7 3,-2 3,-2 16,-7 -2,-38Z"/>
    <path data-geo-id="2502130455" data-name="Holbrook" d="M2376,995l13,21 6,-2 3,-2 2,-1 3,-3 3,-2 21,-11 3,-41h-42Z"/>
    <path data-geo-id="2502178972" data-name="Weymouth Town" d="M2472,853l-1,1h-24l2,-7 -12,20 -7,87 -3,41 12,-7 25,-13 14,-8 1,-19 2,-3v-1v-3v-3v-1v-1l2,-14v-6l1,-8v-2v-3v-1l2,-3v-2v-4v-1v-5v-3v-2h-2l-1,-1 -2,1 -2,1v-4Z"/>
    <path data-geo-id="2502160785" data-name="Sharon" d="M2228,979l-28,18 -12,36 56,61 10,-5 22,-12 5,-3 7,-43 -17,-38 -27,-32Z"/>
    <path data-geo-id="2502182315" data-name="Wrentham" d="M1986,1145h5h2h3h5h2l13,-2h2h3h2h2h2h3h7h3h2h2h5h1h4h3l85,-33 3,-48 -69,-7 -26,60 -62,8Z"/>
    <path data-geo-id="2501319645" data-name="East Longmeadow" d="M991,1121l3,-1h3h4h3l7,1h8h38h1l-10,-63 -1,-6 -63,10 2,21Z"/>
    <path data-geo-id="2500905595" data-name="Beverly" d="M2515,492v-2l78,-29v-3l-14,-25 -23,-7 -80,-2 13,59Z"/>
    <path data-geo-id="2500901260" data-name="Amesbury Town" d="M2479,57l-10,2h-2h-1l-7,4 -12,7 -5,4 -3,1 -4,2 -3,3h-4h-3l-5,2h-2h-5l-2,1h-1h-2l-3,2 -7,1 -2,1 34,51 26,-1 33,-14Z"/>
    <path data-geo-id="2500929405" data-name="Haverhill" d="M2352,125v4l-3,8v2l-2,8 -2,4 -3,7h-2l-5,-1 -8,-3 -4,-1 -5,-1 -10,-3 -2,-1 -3,-1 -5,-2 -2,-1h-3l-12,-4 -10,4 -5,3 -16,9 -1,1v1l-7,8 -7,7 48,41 13,26 7,8 46,3 13,-27h2l19,-38 18,-33Z"/>
    <path data-geo-id="2500925625" data-name="Georgetown" d="M2439,224l-65,44v1l7,20 29,1 15,7 48,-51Z"/>
    <path data-geo-id="2500946365" data-name="North Andover" d="M2279,265l-10,29 7,13 3,14 54,90 11,-4 6,-2 4,-23 29,-18 -21,-44 -59,-72 -7,-8Z"/>
    <path data-geo-id="2500957880" data-name="Rockport" d="M2754,376l2,-3 23,-6 -5,-27 -25,-5 -7,-39 -8,6v68Z"/>
    <path data-geo-id="2500940430" data-name="Merrimac" d="M2388,87l-7,4 -7,1 -2,1 -3,3 -3,3 -5,5 -5,12 -4,9 49,28 29,-15 -34,-51Z"/>
    <path data-geo-id="2500952490" data-name="Peabody" d="M2372,459l2,15 43,51 33,21 31,-37 3,-23 -83,-25Z"/>
    <path data-geo-id="2500968645" data-name="Swampscott" d="M2488,589h13l15,-18 -18,-12 -32,-7Z"/>
    <path data-geo-id="2500974595" data-name="Wenham" d="M2467,400l9,24 80,2 23,7 -5,-11 -96,-36ZM2478,386h1v-1Z"/>
    <path data-geo-id="2500959245" data-name="Salisbury" d="M2527,146v-1l44,-10 -9,-60h-1v2h-4l-1,2 -2,1 -3,2 -11,5h-1l-14,-10 -2,-2 -3,-1v-2h-2l-3,-2 -7,-6v-1l-3,-2 -12,-3 -2,-1h-2h-6h-4l10,66 29,24Z"/>
    <path data-geo-id="2501300840" data-name="Agawam Town" d="M821,1116h3h7h2h5l8,1h9l5,1 9,1 5,1 11,2h7l17,1 5,1h5l19,-51v-27l-12,9 -49,-15 -8,17 -31,-27 -8,31Z"/>
    <path data-geo-id="2502746820" data-name="Northborough" d="M1772,761l17,59 34,-28 49,-7 -5,-7 -3,-4 -2,-3h-2v-1h-1l-2,-2 -2,-1 -1,-3v-2l-2,-4 -2,-1v-8l-3,-3h-2l-2,-1 -5,-5h-1v-1v-1l-5,-5v-2l-2,-1 -48,-18Z"/>
    <path data-geo-id="2502701885" data-name="Ashburnham" d="M1579,279l-10,-1h-12h-5l-7,-2h-12h-2h-5h-17h-5h-1l-4,105 34,43 19,-8 63,-34v-5v-3v-2v-20v-9l3,-11 -9,-17v-2l-6,-2 -2,-1v-1l-2,-1 -13,-14Z"/>
    <path data-geo-id="2502702760" data-name="Auburn" d="M1581,927l34,39 23,-4 34,-57 -12,-26 -45,5Z"/>
    <path data-geo-id="2502706015" data-name="Blackstone" d="M1888,1149h1h9h5h3h5h2h2v-1h5h1h6h1h2l3,-1h2l5,-1h2h3h2h2v-7v-3v-5v-3v-20v-7v-1v-12v-3l-61,2Z"/>
    <path data-geo-id="2502706365" data-name="Bolton" d="M1801,630l-3,16 51,25h1l17,-12 4,-1 1,-1 14,-4h2l3,-1 3,-13 2,-7 3,-23 -79,-37Z"/>
    <path data-geo-id="2502714395" data-name="Clinton" d="M1737,680l44,1 17,-35 3,-16 -29,-8 -29,33Z"/>
    <path data-geo-id="2502707525" data-name="Boylston" d="M1723,685l-13,4 -9,87 61,-25 10,10 10,-49 -1,-31 -44,-1Z"/>
    <path data-geo-id="2502717300" data-name="Douglas" d="M1662,1137l3,1 2,1v9v1v3l10,4h4h5l8,-1h5h11h3l2,-1h8h15h4h5l3,-1h2h5h2h3h15h2l2,-78 -19,-26 -64,16 -7,-24 -20,1 -33,10Z"/>
    <path data-geo-id="2502726430" data-name="Grafton" d="M1730,870l8,58 5,23 24,12 48,-4 -2,-75 -5,-26 -24,-6 -52,14Z"/>
    <path data-geo-id="2502718560" data-name="East Brookfield" d="M1416,876l12,36 -12,43 41,-7 8,-11 -10,-76 -13,19Z"/>
    <path data-geo-id="2500560645" data-name="Seekonk" d="M2096,1293v6v2v2v5v2v44l-7,32 4,11 3,5v1v8v3l-2,1v1l2,4v1l3,1 4,5 3,3 -1,4 1,4 7,5 3,2h2l22,1 -8,-160Z"/>
    <path data-geo-id="2500505280" data-name="Berkley" d="M2311,1347l-10,79 5,15 24,-49 48,1 1,-1 22,-23 4,-3 -65,-44 -25,3Z"/>
    <path data-geo-id="2502731435" data-name="Hubbardston" d="M1394,561l83,80 38,-31 42,-35v-21l-53,-52 -20,-18 -75,63Z"/>
    <path data-geo-id="2502735075" data-name="Leominster" d="M1630,524l12,29 91,21 10,-56 16,-17 -39,-50 -17,12 -70,25Z"/>
    <path data-geo-id="2502740255" data-name="Mendon" d="M1860,1015v9l2,64 26,-1 61,-2v-22v-12v-1v-1l1,-7v-1l-1,-2 -2,-1h-27l-39,-49Z"/>
    <path data-geo-id="2502737420" data-name="Lunenburg" d="M1691,363v6v3l3,84 9,7 17,-12 39,50 22,4 3,-24 2,-18v-9l3,-14v-10l2,-2v-5v-3l3,-16 -27,-11 -7,-3 -6,-2 -16,-6 -6,-3 -22,-9 -7,-2 -2,-1 -7,-3Z"/>
    <path data-geo-id="2502741340" data-name="Millbury" d="M1638,962l4,24 96,-58 -8,-58 -58,35Z"/>
    <path data-geo-id="2500522130" data-name="Fairhaven" d="M2492,1588l1,-6 -2,1ZM2493,1582l12,49 10,-1 2,-9h3l2,2 6,3 9,6v4v4l2,10 1,3 2,7 3,11 2,7 5,1v-31l-1,-3 -2,-11 -2,-1 13,-7 -1,-19 -2,-3 -1,-6 -4,-16 -7,-21Z"/>
    <path data-geo-id="2501330665" data-name="Holland" d="M1299,1126l9,2h18h2h3h5h7h2h2h5h1l4,1v-1v-41v-11v-23l-53,-1Z"/>
    <path data-geo-id="2501546330" data-name="Northampton" d="M801,709l3,98 58,-8 52,2 21,-30 -38,-46 -3,-32 -29,5Z"/>
    <path data-geo-id="2501554030" data-name="Plainfield" d="M584,537l90,24 10,-5 -4,-17v-21v-16l-1,-18 -11,-2h-1l-16,-3 -6,-2h-2h-2l-5,-1 -17,-5h-1l-17,-4 -12,-2 -4,17v1h2h2l1,1h2l4,1 -2,3 -4,14 -3,22Z"/>
    <path data-geo-id="2501564145" data-name="South Hadley" d="M908,869v2l1,5 9,6 1,8 7,6v1h5l2,2h2h1l9,-2h5h3h2l3,-1h2l19,-3 -10,-81 28,-25 -6,-3 -50,4 -20,19h2h1l2,2 4,3v4v7l1,5 -1,3 -7,8 -10,14Z"/>
    <path data-geo-id="2501582175" data-name="Worthington" d="M557,668l-2,6 29,-4 22,60h13l10,1h7l4,2h3h7l7,1 11,11 -1,-10 -16,-113 23,-3 -104,-21 -5,31 -2,1v2l-3,15v1l-2,10 -1,8Z"/>
    <path data-geo-id="2501562745" data-name="Southampton" d="M731,840l2,14 19,11v2l10,23v21l34,9 6,2 17,4 12,3h2l3,1h2l7,2 3,2v-2v-1l2,-5 -2,-3v-6v-6l-2,-2v-8v-5l9,-1 10,-3 2,-11 -29,-41v-1l-12,-22 -22,-1v13Z"/>
    <path data-geo-id="2501576380" data-name="Westhampton" d="M768,714l-42,6 2,18 3,102 73,-11v-13v-9l-3,-98Z"/>
    <path data-geo-id="2502747135" data-name="North Brookfield" d="M1447,782l-72,7 -15,26 21,53 35,8 26,4 13,-19Z"/>
    <path data-geo-id="2502734795" data-name="Leicester" d="M1521,815l17,115 22,-2 21,-1 34,-43 -24,-69Z"/>
    <path data-geo-id="2502758825" data-name="Rutland" d="M1452,662l39,106 66,-37 -7,-23 36,-34 -71,-64 -38,31Z"/>
    <path data-geo-id="2502766105" data-name="Spencer" d="M1447,782l8,79 10,76 73,-7 -17,-115 -6,-37 -21,2Z"/>
    <path data-geo-id="2502750670" data-name="Oakham" d="M1381,721l66,61 47,-2 -3,-12 -39,-106Z"/>
    <path data-geo-id="2502752420" data-name="Paxton" d="M1557,731l-66,37 3,12 21,-2 6,37h70l8,-6 -15,-12Z"/>
    <path data-geo-id="2502751825" data-name="Oxford" d="M1560,928l17,109 -10,16 24,19 47,-20 33,-10 -29,-56 -4,-24 -23,4 -34,-39Z"/>
    <path data-geo-id="2501540990" data-name="Middlefield" d="M497,682l4,7v18v2v1l1,8v1v1v10v3l2,15 5,3h2l5,5 2,2v1l6,-1v3v1l2,4 2,1 1,1 5,3 2,1 2,-1h2l3,1h2v-1h3l2,4 1,1v1h4l5,-8 2,-1v-1l1,-1 2,-2 3,-2 7,-6 5,-5 4,-2v-1l5,-4 15,-14h2l-22,-60 -29,4 -4,11 -6,-3 -22,-5 -11,-3 -6,-1Z"/>
    <path data-geo-id="2502767385" data-name="Sterling" d="M1642,553l12,62 -16,13 14,34 51,6 20,17 14,-5 6,-25v-79l-10,-2Z"/>
    <path data-geo-id="2502771620" data-name="Uxbridge" d="M1779,1153h2h3h2l5,-1h3h2h8h2h4h5l5,-1h8h2h2h5h3h7l2,-1h3h7h3v-62l-2,-64 -54,23 -27,-9 -17,11 19,26Z"/>
    <path data-geo-id="2502780405" data-name="Winchendon" d="M1503,276h-9h-2h-1l-5,-1h-7h-3h-4h-5l-12,-1h-7h-3l-5,-1h-2h-5h-5l-14,-2h-5h-1h-4h-20l-5,112 37,3 27,30 56,-35Z"/>
    <path data-geo-id="2501377890" data-name="West Springfield Town" d="M850,959l-12,71 31,27 8,-17 49,15 12,-9 -30,-38 -4,-49Z"/>
    <path data-geo-id="2501306085" data-name="Blandford" d="M528,974l-2,4v1l49,8 80,18 24,-116 -4,-1 -10,-8 -14,-10 -10,-9 -83,-16 -3,5 -2,11v1l-7,25 -12,54 -6,27Z"/>
    <path data-geo-id="2501313660" data-name="Chicopee" d="M935,899l-29,35 -2,25 4,49 74,-41 24,-4 -7,-73 -3,1 -9,1 -8,1 -19,3h-2l-3,1h-2h-3h-5l-9,2Z"/>
    <path data-geo-id="2501328075" data-name="Hampden" d="M1058,1121h2l7,1h3h4h5h3h4l28,1h5h7h10h7l-12,-87 -35,16 -48,6Z"/>
    <path data-geo-id="2501326675" data-name="Granville" d="M575,1111h2h10l32,1h5h2h3h22l6,1h8h9h10h1l24,1v-81l-15,-16 -39,-12 -80,-18 10,73Z"/>
    <path data-geo-id="2501313485" data-name="Chester" d="M560,830l-2,15 83,16v-1l4,-2 12,-15 13,-14v-3v-17l-2,-50v-8v-6l-11,-11 -7,-1h-7h-3l-4,-2h-7l-10,-1h-13h-2l-15,14 -5,4v1l-4,2 -5,5 -7,6 -3,2 -2,2 -1,1v1l-2,53v7Z"/>
    <path data-geo-id="2501330840" data-name="Holyoke" d="M846,896v5v8l2,2v6v6l2,3 -2,5v1v2l2,25h54l2,-25 29,-35h-2l-2,-2h-5v-1l-7,-6 -1,-8 -9,-6 -1,-5v-2l5,-16 10,-14 7,-8 1,-3 -1,-5v-7v-4l-4,-3 -2,-2h-1h-2l-3,-1 -4,1 -17,14 -1,7 -19,50 -10,3 -2,11 -10,3Z"/>
    <path data-geo-id="2501337175" data-name="Ludlow" d="M999,890l7,73 29,5 68,6 15,-40v-2l-7,-50v-4h-17l-5,1 -15,1 -4,1 -15,2 -12,2h-3l-15,2 -6,1h-1l-9,1 -8,1Z"/>
    <path data-geo-id="2501342530" data-name="Montgomery" d="M680,881l10,2 41,83 31,-55v-21l-10,-23v-2l-19,-11 -34,5 -14,11Z"/>
    <path data-geo-id="2501367000" data-name="Springfield" d="M908,1008l30,38v27l48,10 -2,-21 63,-10 -12,-84 -29,-5 -24,4Z"/>
    <path data-geo-id="2501704615" data-name="Bedford" d="M2113,539l2,35 23,10 16,9 30,-39 7,-20 -15,-23 -53,6Z"/>
    <path data-geo-id="2501715060" data-name="Concord" d="M2010,621l59,29 47,-52 22,-14 -23,-10 -2,-35 -63,-2Z"/>
    <path data-geo-id="2501707350" data-name="Boxborough" d="M1898,557l7,27 42,4 22,-46 -51,-24 -3,5 -2,3 -8,17 -4,5 -2,8Z"/>
    <path data-geo-id="2501709840" data-name="Burlington" d="M2184,554l34,30 31,-26v-36l-33,-36 -25,48Z"/>
    <path data-geo-id="2501711525" data-name="Carlisle" d="M2037,500l13,37 63,2 10,-22 -24,-51 -52,14Z"/>
    <path data-geo-id="2500107175" data-name="Bourne" d="M2736,1517l1,1 29,-41ZM2766,1477l-5,20 10,70 -31,4 28,17 3,-1 46,15 25,-59 2,-35 13,-91v-1l-1,-2 -2,-4 -3,-4 -9,-9v-1l-7,8 -1,1 -5,7 -6,7 -1,1 -2,2 -3,4 -4,1 -8,4 -5,2 -5,3 -2,1 -2,1 -5,1 -5,3 -10,5 -2,2 -1,1 -6,2v1l-1,1 -4,1 -3,2h2v1l3,4 2,4 1,1v5v2l4,1Z"/>
    <path data-geo-id="2500139100" data-name="Mashpee" d="M2856,1722l1,1 9,-1 2,-1 10,-3 15,-3 2,-1 6,-2 9,-9 8,-11v-1l4,-5 6,-13 -15,-12 14,-24 3,-43 -12,-16 -35,-8 -15,-6 -24,47 13,47 26,8Z"/>
    <path data-geo-id="2500159735" data-name="Sandwich" d="M2978,1480h-2l-5,-1 -8,-1 -4,-1 -3,-1 -9,-2 -3,-1 -2,-2 -15,-6 -9,-4 -8,-3 -15,-9 -12,-9 -7,-9 -10,-7 -2,-1 -3,-3 -4,-3 -13,91 -2,35 -25,59 27,9 24,-47 15,6 35,8 68,-96Z"/>
    <path data-geo-id="2500182525" data-name="Yarmouth" d="M3095,1593l25,11 -10,21 53,-31 5,-1 29,-48 -39,-46h-2l-2,1h-2l-1,-1h-2l-3,-1 -24,-1 -2,1 -10,8 -5,4v1l-3,2 1,28Z"/>
    <path data-geo-id="2501308470" data-name="Brimfield" d="M1230,986l3,64 71,2 53,1v-11v-2v-8v-2v-5v-8v-8v-18v-27l-2,1h-3l-5,1h-2l-17,3 -5,1 -10,2 -7,2h-7l-10,-13 -27,-14 -7,-4 -2,-1 -6,-2 -7,-4Z"/>
    <path data-geo-id="2501376030" data-name="Westfield" d="M731,966l-37,51 15,16 121,28 8,-31 12,-71 -2,-25 -3,-2 -7,-2h-2l-3,-1h-2l-12,-3 -17,-4 -6,-2 -34,-9Z"/>
    <path data-geo-id="2501717475" data-name="Dracut" d="M2167,248l-8,10 -2,2 -7,11 -3,7 -9,12 -5,6h-20h-14l-13,-1h-5h-12h-5l2,46 10,9 47,-15 27,12 19,-1 15,-16v-1v-1v-1l-5,-23v-3l-10,-54Z"/>
    <path data-geo-id="2501724925" data-name="Framingham" d="M1952,796l-3,9 71,41 27,-19 -10,-26 22,-27 -19,-32 -80,-16 -3,29 2,11v5v4l-2,7 -5,13Z"/>
    <path data-geo-id="2501943790" data-name="Nantucket" d="M3344,1960l12,25 -32,20 8,13 -63,20 -96,-6 -15,31 89,36 92,3 47,-16 7,-35Z"/>
    <path data-geo-id="2501717825" data-name="Dunstable" d="M1983,292h-2h-4h-3h-8l-11,-1h-5h-1h-4h-5h-8h-7l-15,-1h-2h-2l-12,34 17,15 2,19 36,-4 44,-14Z"/>
    <path data-geo-id="2501142285" data-name="Montague" d="M979,400l-29,21 5,20 15,4 -8,52 12,35 32,-6 56,-6 7,-54 -12,-22 -34,-4 7,-22 -46,-1Z"/>
    <path data-geo-id="2501161135" data-name="Shelburne" d="M809,379l-2,30 17,22 12,25 29,15 36,-30 -12,1 15,-84 -95,13Z"/>
    <path data-geo-id="2501735425" data-name="Lincoln" d="M2069,650l29,22 47,-4 16,-32 -7,-43 -16,-9 -22,14Z"/>
    <path data-geo-id="2501735215" data-name="Lexington" d="M2154,593l7,43 50,23 9,-12 19,-26 -7,-17 -14,-20 -34,-30Z"/>
    <path data-geo-id="2501735950" data-name="Littleton" d="M1935,456l-25,33 1,11 2,1 2,6v7l1,4h2l51,24 29,-11 13,-25 -47,-35 -17,-24Z"/>
    <path data-geo-id="2502107740" data-name="Braintree Town" d="M2362,906l27,41 -1,7h42l7,-87 -59,13Z"/>
    <path data-geo-id="2502116495" data-name="Dedham" d="M2194,842l78,62 4,-3v-6l2,-9 3,-3 3,-2h2v-1l-5,-4 -2,-3 -1,-1v-1h-2v-3v-2v-1l-2,-11v-1l-2,-2v-1v-2v-1l-1,-2 -5,-1 -4,2 -1,1 -2,-2v-1l-2,-1 -2,-2 -1,-1v-1l-2,-1 -3,-5 -5,-12 -11,-6Z"/>
    <path data-geo-id="2502125172" data-name="Franklin Town" d="M1988,1123l62,-8 26,-60 -19,-55h-2l-49,-2h-5l-13,78Z"/>
    <path data-geo-id="2502146050" data-name="Norfolk" d="M2057,1000l19,55 69,7 5,-6 -18,-62v-11l-4,-4h-34l-32,18h-2Z"/>
    <path data-geo-id="2502155745" data-name="Quincy" d="M2449,847l5,-26 -44,11 -39,-42v22v1h-2v6h-2l12,22 -27,21 7,17 -37,18 10,13 30,-4 16,-26 59,-13Z"/>
    <path data-geo-id="2502139765" data-name="Medfield" d="M2083,907v1l1,2h2l3,6 2,1 2,1 17,32 -7,11v3l-2,2 -7,13h34h26l5,-63 -2,-19h-61l-2,2h-1h-2h-5l-3,6Z"/>
    <path data-geo-id="2501372390" data-name="Wales" d="M1233,1124l19,2h8h2h10h14h6h7l5,-74 -71,-2Z"/>
    <path data-geo-id="2500112995" data-name="Chatham" d="M3319,1567l25,-4 5,4 5,3 4,4 3,3 20,6 16,-27 -2,-34 -44,-14 1,-10 -32,27 -8,40ZM3405,1496l5,42v-8v-5v-13l-1,-16ZM3347,1722l9,-8 3,-24 2,-3v-3l-2,-7 2,-4v-6l3,-15v-4l2,-10 -10,4v3v2v26v2l-3,12 -4,7 -2,1 -5,9 -3,5h-2h-3l5,13 5,1Z"/>
    <path data-geo-id="2500129020" data-name="Harwich" d="M3237,1583l72,-15 1,-1h2l8,-42 32,-27v-9l-54,10 -40,-2 -38,23Z"/>
    <path data-geo-id="2500116775" data-name="Dennis" d="M3168,1593l24,-3 8,-1h2l3,1h5h2h1l4,-1h2l1,-1 4,-1 3,-2 2,-1 3,-1h4h1l-17,-63 -7,-52v-1l4,-1 2,-1 1,-2 9,-8 -4,-1 -6,-1h-7l-2,1 -3,2 -5,2 -11,1 -6,2 -4,1 -7,3h-3h-2l-1,-1 -5,2 -17,9 -4,1 -5,4 -7,4 -5,3 -5,7v2l2,1 24,1 3,1h2l1,1h2l2,-1h2l39,46Z"/>
    <path data-geo-id="2500155500" data-name="Provincetown" d="M3191,1058h-67l-4,24 31,42 20,-41 28,2 1,-2Z"/>
    <path data-geo-id="2500170605" data-name="Truro" d="M3341,1192l-2,-4 -3,-7 -2,-2 -2,-4 -3,-5 -2,-5 -12,-17 -1,-6 -6,-8 -5,-10 -20,-23 -49,-30 -43,-13 9,25 4,2 16,2 16,16 3,1 1,3 14,14 12,49 3,35Z"/>
    <path data-geo-id="2500119295" data-name="Eastham" d="M3381,1382h-1l17,-21 -19,-61 -34,5h-2l-3,-1h-2l-1,-3 5,87 -8,11 3,2 25,8 17,-27Z"/>
    <path data-geo-id="2501379740" data-name="Wilbraham" d="M1035,968l12,84 1,6 48,-6 35,-16 -6,-61 -7,-41 -15,40Z"/>
    <path data-geo-id="2502723875" data-name="Fitchburg" d="M1615,382l-6,104 24,2 70,-25 -9,-7 -3,-84 -63,-1 -10,3h-3v3Z"/>
    <path data-geo-id="2501762535" data-name="Somerville" d="M2339,698v-2l-2,-4v-3h-2h-2l-1,-1 1,-1v-1l2,-2v-2l2,-2 2,-3 -4,-7 -34,-4 -17,-19 -1,13v1l28,37h17l11,1Z"/>
    <path data-geo-id="2501739835" data-name="Medford" d="M2335,670l4,-10v-11l-12,-39 -31,-11 -29,22 17,26 17,19Z"/>
    <path data-geo-id="2501739625" data-name="Maynard" d="M1977,604l-11,17 8,44 24,-6 12,-38Z"/>
    <path data-geo-id="2501740115" data-name="Melrose" d="M2330,611l53,-1 -14,-19v-1l-2,-1v-1l-3,-5v-1l-2,-2 -3,-4 -2,-4 -1,-2 -23,4Z"/>
    <path data-geo-id="2501767665" data-name="Stoneham" d="M2294,541l9,33 -7,25 31,11 3,1 3,-37 -20,-36Z"/>
    <path data-geo-id="2501768050" data-name="Stow" d="M1891,652l29,20 51,8 3,-15 -8,-44 11,-17 -30,-16 -42,-4 -6,25 -3,23 -2,7Z"/>
    <path data-geo-id="2501772215" data-name="Wakefield" d="M2313,538l20,36 23,-4v-4v-1v-2l1,-4v-1l7,-3 2,-7 1,-3 -1,-2v-1v-2h-2l3,-2 4,-1 1,-3v-1v-1l-1,-4v-1v-1v-2l-2,-1v-3l-2,-2v-2l2,-5h-17h-3h-2h-2h-1l-2,-2 -2,-2 -5,-5Z"/>
    <path data-geo-id="2501780510" data-name="Winchester" d="M2232,604l7,17h28l29,-22 7,-25Z"/>
    <path data-geo-id="2501776135" data-name="Westford" d="M1950,397l-3,50 17,24 47,35 26,-6 10,-20 -27,-130Z"/>
    <path data-geo-id="2501781035" data-name="Woburn" d="M2218,584l14,20 71,-30 -9,-33 -13,-37 -32,18v36Z"/>
    <path data-geo-id="2501705805" data-name="Billerica" d="M2099,466l24,51 53,-6 15,23 25,-48 -8,-32 2,-4 -78,-48v-1Z"/>
    <path data-geo-id="2501727480" data-name="Groton" d="M1798,373l12,12 35,57 90,14 12,-9 3,-50 -1,-43 -36,4 -2,-19 -37,11 -22,36 -53,-32Z"/>
    <path data-geo-id="2501756130" data-name="Reading" d="M2279,476l2,28 13,37 19,-3 22,-36 2,-9 2,-11v-3v-8l-31,-13 -7,7 -13,9 -5,1v1Z"/>
    <path data-geo-id="2501770360" data-name="Townsend" d="M1804,287h-13h-5h-2l-10,-1h-12l-25,-1h-9h-10h-3l-2,-1h-14h-3h-2l-3,79 3,1 7,3 2,1 7,2 22,9 6,3 16,6 6,2 7,3 27,11 4,-31 1,-19Z"/>
    <path data-geo-id="2501772600" data-name="Waltham" d="M2161,636l-16,32 22,57 39,-16v-1l21,-24 -16,-25Z"/>
    <path data-geo-id="2501777255" data-name="Weston" d="M2098,672l5,79 2,23h1l2,-2h2h1l2,-1h2h1l4,-1 3,-2h4l3,-2h2l1,-1 4,-1h1l9,-3 8,-4 2,-1 2,-3 8,-28 -22,-57Z"/>
    <path data-geo-id="2501109595" data-name="Buckland" d="M721,398l-17,64 73,-10 24,4 23,-25 -17,-22 2,-30 -41,7Z"/>
    <path data-geo-id="2501115200" data-name="Conway" d="M780,593l5,11 9,-1h2l13,-2 9,-1 13,-2 7,-1 42,-6v-15l9,-74 -24,-31 -29,-15 -12,-25 -23,25 8,18 -27,108 3,4Z"/>
    <path data-geo-id="2501158335" data-name="Rowe" d="M577,317l24,13 8,12 24,-18 66,-5 -5,-80 -58,-3 -22,43h2v3l-2,2v1l-3,2 1,2v4v2l-1,1 -9,5 -6,-3h-2l-2,3 -2,1 -1,3 1,2v4h-11v1v4v1Z"/>
    <path data-geo-id="2501129650" data-name="Heath" d="M694,239l5,80 5,32 27,15 46,-26 -15,-97Z"/>
    <path data-geo-id="2502124820" data-name="Foxborough" d="M2145,1062l-3,48 2,38 23,-13 5,-3h2l7,-4 12,-7 10,-5 10,-6 15,-8 16,-8 -56,-61 -38,23Z"/>
    <path data-geo-id="2501168400" data-name="Sunderland" d="M947,580l3,56 3,-1 5,-1h4l7,-1 15,-2 12,-2 -4,-38 14,-65 -32,6Z"/>
    <path data-geo-id="2501125730" data-name="Gill" d="M979,400l5,17 46,1 5,-8 1,-40 22,-21 -27,-32 5,20 -47,8 -7,21Z"/>
    <path data-geo-id="2501174525" data-name="Wendell" d="M1057,444l12,22 -7,54 17,7 68,11 8,1 2,-59 -4,-58 -61,-16Z"/>
    <path data-geo-id="2501173265" data-name="Warwick" d="M1226,265h-1h-9l-29,-2h-18l-16,-1 -10,-2h-15l-5,-1h-2h-2h-1h-10l32,108 10,37 42,-6 -1,-21 45,-53 -5,-30Z"/>
  </g>
  <path class="mesh" transform="scale(0.1)" d="M2571,363l10,-17h2v-1l2,-1 3,-1 13,-17v-1M2545,1671l-3,-11M2545,1671l2,7 5,1M2552,1648l-2,-3 -1,-11 -2,-1M2338,698v-2l-1,-4v-3h-2h-2l-1,-1 1,-1v-1l2,-3v-1l2,-2 1,-3M2340,675l2,-2 2,-1v1M3319,1567l25,-4 5,4 5,3 4,4 3,3M3410,1538v-8v-5v-13M3354,1219l-2,-3 -5,-12 -3,-4 -2,-5 -1,-3 -2,-4 -3,-7 -2,-2 -2,-4 -3,-5 -2,-5 -12,-17 -2,-6 -5,-8 -5,-10M3352,1487l-25,-67 -3,-3 -2,-1 -7,2 -3,3 -7,3 -2,2 -3,1 -5,4 -4,1 -5,2v1l-3,1h-5M3263,1441l-7,2 -2,1 -7,2 -3,1 -2,2 -5,3h-3l-2,2M3122,1497l-2,-1M2986,1482l-8,-2h-2l-5,-1 -9,-1 -3,-1 -3,-1 -9,-2 -3,-1 -2,-2 -15,-6 -8,-4 -9,-3M2817,1602l25,-59 2,-34 13,-92v-1l-1,-2 -2,-4 -4,-4M3356,1642v3v2v26v2l-4,12 -3,7 -2,1 -5,9 -3,5h-2h-3l5,13 5,1 3,-1 9,-8 3,-24 2,-3v-3l-2,-7 2,-4v-6l3,-15v-4l2,-10M2637,958l-24,-24 -56,-14 -47,29 5,23 -14,2 12,80 43,-10 35,-21 -46,-57 -30,6M2706,1004h-1l-27,-40M2673,959l-36,-1 -27,9 3,49v1l27,24 63,49 31,-20M2591,1023l22,-6M2736,1517l30,-40v-2l-3,-1v-2v-5l-2,-1 -2,-4 -3,-4v-1h-2l15,-54 -95,6 -22,1 -27,-30v21l-7,59 19,24 29,23M134,879l43,7 17,-15 -5,-42 3,-17 -29,-30M251,631l41,8 -39,53 5,22h38v36l42,-3 7,-48 12,-44 -65,-16M336,833l-15,19 88,58v23l70,-9 5,59 10,-1v-5v-4h1l2,1 15,2h2l4,1 6,1 2,1v-1l2,-4v-6l7,-27 11,-54 7,-25v-1l-76,4 -29,-24 -39,6v63M506,1108v-4v-1v-1v-2l-2,-1v-2l2,-1v-1v-2v-3v-5l-2,-2 -3,-2 1,-5v-1v-2v-1l-1,-2 -4,-1 -5,-20 -2,-9 -1,-13v-2l3,-4 -2,-2v-1l2,-2 2,-1 7,-3 -4,-7v-1v-2l-2,-3v-1v-3l-1,-1 1,-6 -1,-4v-2M409,933l-22,31 10,137M285,364l43,2 -12,51 12,3 52,12v-33l27,10 2,-38 -81,-5M409,371l4,-40 -4,-64 9,1 1,-40M2484,1656l-1,-4 -41,-50 -7,-45 10,-61 -42,28 -61,31 37,74 -7,47 16,36 1,62 5,7M2305,1458l100,23 -2,43M2445,1496l21,-14 18,-14 16,-9 -9,-19v-2l-3,-7v-3l-2,-4 -58,10 -40,6 8,-18v-2l3,-5 -3,-2 -10,-11 -2,-2 -6,-6 -48,-1 -24,48 -4,7M2262,1150l4,15 51,8 13,3 5,42 -10,24 46,65 46,1 1,-27 2,-5 -2,-6v-1h-1v1l-2,-1v-7v-7l-3,-3 -21,-21 -20,-16 -5,-4 -5,-24 -2,-3 -29,-8M2226,1526l11,-42 30,7 4,-63h-17l-5,-32 -17,-1 5,39 -97,12 -22,-1M809,371l95,-13 -15,84 12,-1 37,15 17,-15 -5,-20 29,-21 3,-34 7,-21 -41,6 -34,3 -10,4M1233,1124v-74l-3,-64 -43,-4 -13,-16 -50,9 7,61 12,87M821,1116l9,-55 -121,-28v81M1662,1137l-24,-85 -47,20v64M1945,1021l21,-18 1,-28v-3v-13h-6h-7l-7,-14 -4,-17 -3,4 -15,-2 -31,8v2l-5,29 -8,20 39,49h27l-4,-7v-2l2,-2v-6l-56,-52M1642,553l91,21 10,2v79l29,-33 29,8 19,-58v-59l-7,-1 -7,-1 -3,-2h-2l-7,-2 -10,-2h-3l-22,-4 -16,17 -10,56M1820,572l80,37 5,-25 -7,-27 2,-1 1,-8 4,-5 8,-17 2,-3 3,-5h-2l-1,-4v-7l-2,-6 -2,-1 -1,-11 -14,-3 -3,-1 -19,-4 -3,-1 -6,4 -1,1 -5,3 -7,-2h-2h-1h-2l-2,-1h-1l-4,-3 -2,-1 -3,-3 -12,10 -3,5v20M1279,368l52,-8 12,27 -29,92 78,83 2,-1 15,-14 -10,-45 -30,-54 -5,-51 -2,-1v-3l-2,-2 -3,-4h-14M1314,479l-54,45 -5,7 -12,10 -8,7 -7,9 -12,9 9,49 -2,1 -2,1 -1,1v1h-2v1v1v1v2l-2,-1v1v3v1l-1,1 -2,1v1l-2,1v1l-2,1h-1v2v2v1l-2,1 -2,1h-1v2v1v2h-2v1v2l-2,1v2v1v2v1l-2,1 -1,1v1v1v2v1v1v2l-2,2v1v2v2v1l2,1 -2,1 2,1v1v1l1,1v1v1v1v2v2h-1v2v1v2v1v1v2v1v1h1v1v1l-3,1v3v1h2v1l1,2 2,1 -2,3 -1,1v1l1,1v2v1l-1,-1v2v1v2v2l1,2 -1,2 -2,8 2,1h1l2,-1v-1l2,1v-1v-1l2,-1v1l1,-1 2,-2v-1h2l1,-1v1l2,-1 2,-1v-1h2h1v-1h2l22,-44 41,-10 15,-28 96,-82M1218,726l5,3 2,17 1,8 2,16 3,19 12,-4h10l6,-1 5,-1 5,-1 20,-5v2l-2,3v3v3v2l-3,2v3v3h3l27,-14 23,-47 33,-25 -74,-68M1888,1149v-62l-26,1v62M1370,712l11,9 71,-59 25,-21 -83,-80M2361,1187l67,-36 -6,-47 -34,8 -2,-16 -40,6v5l1,5v2l12,70M2495,1087l11,52 58,-1 -12,-34 4,-60M2513,1054l-13,2M2441,610h-6l-17,14 -1,-2h-4l-5,5h-3l-2,1h-2v-4l-5,-2v1l-2,-4 2,-1v-1l-2,-1 2,-3 -2,-1v-1l-1,-1v-1l-4,-4v-3l-1,2 -4,2v2l-1,1v1l5,7 -2,2v1v1l-2,4 -1,4 -2,4 -2,2 -1,5v1v1l-2,2v2v1l18,22 26,10 3,-3M2722,692h-17M2656,694l-19,2M2418,1281h2l3,1 66,34 -1,32 22,28v44l115,-19M2625,1380l-8,-9v-1l-9,-10 -25,-90 -14,-17 -29,-34 -44,-13 -23,9 -11,33 -32,-10 -18,14M2500,1459l1,6 19,2 2,6 3,16 9,29 5,19 62,-13 17,-64M2510,1420l-24,4M1801,630l-3,16 -17,35 2,31 47,18 2,-1 3,-2 12,-12 3,-6 5,-11 4,-5 3,-3 10,-7 -23,-12 -51,-25M2437,416l-12,-27 -42,-25 -29,18 -3,23 1,6 2,3 18,20 4,8 2,3 -2,5 -4,3v6l29,2 83,25 5,-3 -13,-59 -8,-24 -31,16 -29,35 -7,10M2574,422l14,-2 -17,-57 -17,-11 -2,1 -20,-10 -41,-2 -7,37 -1,2 -4,2 -1,1 1,2v1M2576,152v-2l-3,3 -26,17 -59,-1 -10,12 -46,36 7,6 34,23 62,-19 29,-2 12,2 16,-5M2570,256l-38,5 -5,17 -77,36 -15,12 56,15M2598,240l-10,7v1v5M2576,150v-5M2527,146l-9,1 -29,-24 -34,14 23,44M2473,246l-48,51 25,17M697,559l-13,-3 -11,5 -89,-24v5l-2,3v3l-5,28h-2l-5,22 103,21 -21,3 15,113 61,3 -2,-18 43,-6 3,-54 -39,-3v-22l-29,-20 -31,4M772,660l2,-54 11,-2 -5,-11 5,-7 -3,-4 -8,-2 -45,-13 -6,-1 -4,-1 -6,-1 -9,-2 -7,-3 7,56M1986,1145l1,-22v-47l14,-78 -35,5M1947,1038l2,1 1,2v1l-1,7v1v1v12v22v3v12v1v7v20v3v5v3v7M2232,812l3,-4 7,-11 10,-8 2,-1 1,-1 4,3 3,2 2,1 2,3 1,1 4,-2v-2l1,-1h2l3,-4 5,-8v-1l2,-3 2,-4 4,-4 3,-4 3,-1 4,-5v-1l1,-2v-2l2,-2v-1l2,-2v-1v-2v-5l5,-5 -2,-1v-1v-2v-1l-8,-3h-2l-5,-1 -2,1 -3,3h-2l-5,4v1l-2,1v1l-2,1 -1,1v1l-4,1v2v2h-1h-2l2,1 -2,1 -7,6 -5,5 -2,1v1l-5,4 -3,4v1l-2,1 -1,1 -2,1 8,10 4,3 1,1v1M2266,920l-32,-21 -21,6 -25,33 40,41 16,-18 27,32 46,-11 30,-23 -34,-44 -25,-34h-2h-2l-3,2 -4,3 -1,9v6l-4,3 -6,16 -9,12 -13,29M2565,831l-1,1h-3h-2l-2,1h-1v3v1h-2h-2h-2v3l-1,3 -2,6v2v2v2l3,1 -5,7v8l2,4 2,3 1,6 6,13 6,8 2,5 3,3 2,-3 4,-1 1,-1 2,-3 5,-3 7,-5 8,-7 4,-3 1,-1v-5l4,1v-1v-1v-2v-2l-4,-4 4,-1v-1v-1l3,-1 2,-1 -5,-5 1,-1M1967,972h2l5,-1 42,-28v1h2h2h2h3h3l9,-1v1l24,53h1l32,-18 7,-13 2,-2v-3l7,-11 -17,-32 -2,-1 -2,-1 -11,5 -24,5 -2,1 -7,2h-2l-8,3 2,11M2313,915l19,-5 -10,-13 37,-18 -7,-17 27,-21 -12,-23h-6h-2l-3,3 3,4 -8,6 -2,-1 -2,-2v-1l-1,-1 -4,1h-2h-2l-5,1 -3,2v-1l-7,3h-1l-5,5 -2,1 -4,2h-1l-7,2 3,4v9l-1,1v2l-2,1h-2l-1,2 -4,2 -1,1 -4,2 4,5v1l-2,4h-2l-3,4v1M2135,825v1l-5,4 39,17 24,-4 1,-1 40,-27 -2,-2v-1v-3l-2,-1v-1l-2,-1h-1l-9,-1v-1l-2,-6v-3h-1v-2l-4,-3 2,-2 -2,-1 -1,-3h-2l-8,-2 -2,-4v-6l-2,-1M2347,959l10,14 19,22 12,-41 1,-7 -27,-41 -30,4M2271,993l17,38 -7,43 10,-5 10,-7h2l2,-1 13,-6 5,-3 9,-5 3,-2 2,-1 1,-2 14,-6 -8,-38 13,-25M2188,938l-12,-24v-1l-17,3 -5,63h-26l4,4v11l18,62 38,-23 12,-36 28,-18M2057,1273l42,-33 61,-59 -16,-33 -16,7 -3,2 -3,2 -14,7v1l-4,1 -1,1 -5,2v1h-2l-2,1 -6,4 -7,3 -7,5h-2h-8h-3h-4M2466,1482l25,101 2,-1 52,-21v-5l-6,-19M2271,1428l25,-2h5l10,-79 -20,-21 -52,-10 -16,-3 9,82M2096,1293l36,-7 86,-7 -47,-81 -11,-17M2346,1102l-2,-6v-1l-2,-14 -2,-4 -3,-18 -2,-14M2281,1074l-5,3 -22,12M2492,1588l-1,-5M2218,1279l14,-3 32,-30 53,-73M2132,1286l8,160M2239,1316l-7,-40M2306,1441l-5,-15M1850,709l117,-18 4,-11 -51,-8 -29,-20 -3,1h-2l-14,4 -1,1 -4,1 -17,12h-1M2435,610l-20,-19 -21,-53 -22,-4 -1,3 -4,1 -3,2h2v2v1l1,2 -1,3 -2,7 -7,3v1l-1,4v2v1v4l1,2 2,4 3,4 2,2v1l3,5v1l2,1v1l14,19 -53,1 -3,-1 11,39 41,-14M328,420l-50,103 119,25 16,-30 -33,-11 12,-24 -20,-5 8,-46M2520,519l-22,40 18,12M769,714l32,-5 64,-11 29,-5 3,32 44,-4 9,-85 -2,-1h-3l-12,3h-2l-5,2 -5,1 -12,3h-2l-33,5 -4,1h-1l-4,48M2754,376l-20,-6v-68M2647,350l-20,37 10,27 27,31M2374,268l-25,-17 13,-28h2l19,-37 49,31M2425,297l-15,-7 -29,-1 -7,-20M3095,1593l8,-52 -1,-28 -2,-2M3084,1496l-8,-4v-1l-2,-2v-1l-6,-2h-7h-15h-9h-5l-15,-1h-7l-3,-1 -12,-1h-4l-5,-1 -67,96 11,16 -3,43 -14,24 15,11M3229,1455l-9,8 -1,2 -2,1 -3,1v1l6,52 37,-23 41,2 54,-10M2856,1722l27,-56 -26,-8 -13,-47 -27,-9 -46,-15 -3,1M3405,1496h4M3380,1382h-2l-17,27 -25,-8 -5,1M3331,1403l-7,13h-2M3341,1192l-72,13M3336,1301l1,3h2l3,1h2l34,-5M2478,386l1,-1M2435,326l-7,44 -3,19M2455,137l-25,1 -29,15 -18,33M2349,251l-46,-3 59,71 21,45M2588,420l49,-6M2279,321l-3,-14 -7,-13 10,-29 -32,-1 -17,32M2459,596l2,-2M2488,589l-22,-37 -16,-6 -33,-21 -23,13M2372,453h-1v-2l-4,-1 -15,-2 -6,16 -8,8v7v3l-1,11 -2,9 5,5 2,2 2,2h2h1h2h3h17l-2,5v2l2,2v3l2,1v2v1v1l1,4v1v1M2417,525l-43,-51 -2,-15M2169,247l10,53v4l5,23v1v1v1M2279,265l17,-25 -14,-26 -47,-41M2574,422l5,12 14,24v3M901,441l-36,31 24,30 -9,74 66,4 28,-48 -12,-35 8,-52 -15,-4M548,233v2v2v13v5l2,26h6h33l22,-2h3l22,-43M2515,492l-26,-9M2484,486l-3,23 -31,37M2466,552l32,7M974,532l32,-6 -14,65 4,38 28,-5 7,-2h2l34,-5 12,-90 -17,-7 -56,6M1230,986l10,-50v-1v-2v-1v-2v-2v-1v-2v-4v-3v-1l1,-3 2,-5 4,-3 1,-2 5,-8 11,-13 15,-22v-1l-9,1 -15,3 -2,3 -6,12 -11,1 -1,-4v-6h-2v1h-2l-3,4 -13,1h-2l-17,7 -21,6 -1,1 -2,1h-2h-1v1h-2l-2,2v1l-1,1v1l1,2v1l-1,2v1h-2l-2,1 -1,2v1l-2,-1v-1l-2,-1 -2,1 -1,2v1h-2h-2l2,-1 -2,-1 -1,1v2v1v1l1,2v1v2v1v1h2l2,2v2h-2v2v2l2,1 1,1h-3l-3,1 -9,1h-3l-17,3v1l6,41M575,987l80,18 39,12 37,-51 -40,-83 -11,-2 -2,8 -23,116M575,1111l10,-51 -10,-73 -49,-8M869,248l16,70 29,36M948,351l-10,-100M1140,639l-7,-54h12l2,-47 8,1 2,-59 79,2v4l2,14 5,6 9,10 8,8M1194,736v2v2v1l-2,-1 -1,1v3l-2,1 -2,3 -1,1 1,1 -1,1 -2,2v2v1l2,1 -2,1 -2,-1v2v3v1v2v2l-2,1v-2h-1l-2,1v1l-2,1v1l-1,1 -2,1 -2,-1 -1,1v2l-2,2h-2v2l-1,1 -2,-1v-1l-2,1v1l2,1h-2l-1,2h1h2l-2,3M1174,890l3,-66 -22,-37M1155,786v-1v-1h-2v-1v-1h-1v-2v-1l1,-1v-1h2v-1v-2v-2l2,-1v-1v-1v-2v-1h2v-2v-1v-1l-2,-2h2v-1h1v-1l-1,-1v-1v-1l1,-1v-1v-2h-1l1,-1v-1v-1v-1v-1l-1,-1v-2v-2l-2,-1v-1M1153,422l4,58M1236,482l-1,-7v-6l-2,-5v-2l-2,-8v-9h2v-1v-1h2v2h1h2l5,2h2v-4l-4,-20v-7l4,1 2,-1 1,-4v-1h2v-1h3l-1,-8h1l6,-1 5,-1h1l2,-1 2,1 1,-1h4h2v-1l1,-1 -1,-1v-4l1,-2v-1l-3,-2 -2,-1 5,-3 2,-3v-1v-1v-4l-3,-4v-1l3,-1v-6l-15,-22 -7,-9h-7l-2,-8 -12,1 -45,53 1,21 -42,6M991,1121l-5,-38 -48,-10 -18,51M2827,1772l-51,120 -42,-62 -26,-14M989,345l48,-7 -6,-21 -18,-63M2282,661v-1l2,-13 -17,-26h-28l-19,26 -9,12 16,24 37,14 2,-31 -46,-19M2264,697l10,12 29,15 14,1 1,-1 10,-4 9,-6 3,-7 2,-1v-1h4h1v-1l-1,-4h-2h-2l-2,-1h-2l-10,-1h-17l-29,-37 -16,5M2054,357l-34,-7 27,130 52,-14 33,-65M2360,674l1,-1 -2,-1 -2,-2 2,-1h3l2,-1 3,-4v-1h2v-2l2,-1v-1v-2l1,-1v-1v-3l2,-3 2,-1v-1M2338,649v11M2052,927l-32,-58 -44,10 6,18 -39,31M762,242l15,98M2104,774l-1,3 1,3v4l2,5 4,7 1,3 9,23 2,3v2l1,1 12,-3 61,-54 2,-2 -2,-2 -18,-3 -7,-4 -14,-4 -2,1 -8,3 -8,4h-2l-4,1 -1,1h-2l-3,2h-4l-3,2 -3,1h-2h-2l-2,1h-1h-2l-2,2h-2l-1,-23 -15,21 -29,2 -22,27 10,26 54,31v-2l24,-14 -2,-14M2279,418v58h3v-1l6,-1 13,-9 7,-7 30,14M2351,405l-7,2 -11,4M1804,287l-5,67 53,32 22,-36 37,-11 -17,-15 12,-34M1967,691l-6,35 79,15 7,-31v-1v-1l3,-8 21,-21 -2,-29 -59,-29 -12,38 -24,5 -3,16M2132,402l78,48 18,11 24,-42M2169,346v1l7,3 2,1 6,3 4,4 5,4 3,2 14,8 3,1 3,4 5,3v1l7,4 2,1h2v1h2v1l3,1 5,4 3,5 -1,1 -4,2v1v1v1v1l-1,1 3,3 8,9 2,1 2,-5 3,-6v-4l2,-3v-2l3,-1 5,2 2,4 2,2v3l1,1 2,2 5,6h2l9,-1 3,-1 29,-4 11,-1 -54,-90 -45,1 -4,-26 -7,-2 -20,-3 -19,39 -15,16 -19,1M1982,292l11,48 -44,14 1,43 70,-47M2066,341l-12,16 20,29 58,15v1l22,-30 -4,-25 -27,-12 -47,15 -10,-9 -2,-46M2227,683l-21,25v1l46,7 5,1 4,-1 6,-1h2l3,-5 2,-1M2040,741l19,33M2210,450l-2,4 8,32 33,36 32,-18 -2,-28M2089,916l-3,-6h-2l-1,-2v-1v-2l3,-6h5h2h1l2,-2 -2,-1 -1,-1 -2,-4v-1l2,-4 1,-2 4,-3 3,-3 2,-2v-1v-8v-2v-2v-1v-1v-2l-2,-1M2047,827l-27,19v23M1835,478l10,-36 -35,-57 -12,-12 -4,31 -3,16v3v5l-2,2v10l-3,14v9l-2,18 -3,24M2496,1206l7,-38h-10l-12,-15 -53,-2M2422,1104l10,-29M2432,1055v20l23,13 40,-1 5,-31 -12,-17 -56,16 -4,-34 -21,-15 -4,2 -4,3 -1,1 -4,2 -5,2 -1,1 -2,1 -2,1 -3,1 -2,1 -27,15M2674,1409l2,-21 32,-35 -68,-107 -6,-18 -65,25M2472,853l7,26v4l2,-1 2,-1 1,1h2v2v3v5v2v3v2l-2,3v1v3v2l-1,8v6l-2,14v1v1v3v3v1l-2,3 -1,19 32,-18M2557,920l10,-7M2550,837l-23,-5M2423,1282l2,4 2,9 1,10 2,1v4l2,4v1l1,5 -15,33 -5,5 -6,5v1l-2,2 -4,3 -22,24 -1,1M2697,1183l-23,31 -34,32M2754,1457l3,-2 4,-1 2,-1v-1l5,-1 1,-2 2,-2 10,-5 5,-3 5,-1 2,-1 2,-1 5,-3 5,-1 8,-5 4,-1 3,-4 2,-2 2,-1 5,-6 5,-8 1,-1 7,-8M2634,1228l-26,-38 -12,-44 -6,1 -16,35 -34,37M1031,317l27,32 -21,21 -2,40M1140,367l-32,-108M609,373l-2,6 -5,28 -5,17 -1,13 -7,28 12,2 16,5h2l17,4 5,1h2h2l7,2 15,3h1l10,2 26,-22 17,-64M2598,1906l36,63 -12,29 -17,22 -87,71M667,735l1,10v6v8l2,50v17v3l-13,14 -12,15 -4,2v1l11,9 13,10 10,8 3,1M680,881l5,-11 14,-11 34,-4 -2,-15 -3,-102M2488,1039l-15,-20 -9,-44 -25,13 -12,7 -20,11M2640,1041l-29,62 11,32 37,4 8,19 10,1M2503,1168l3,-29M1048,726l9,53 13,102 4,-1 15,-1 5,-1h17v4l7,51M801,709l3,98v9l22,1 12,21v2l29,41 10,-3 19,-50 1,-7 17,-14 4,-1 -4,-5 -52,-3 -58,9M897,725l38,46 -21,30M1279,860l2,-5 5,1 3,2v-6v-1v-4l-3,-1h-2v-2v-3v-10l-3,-2h3h3v-6l2,-10v-2l3,-1 4,-7 -4,-2 -3,-3h-2M869,650h-2l-5,1 -9,1 -8,1 -7,2 -2,-3 2,-29v-26l-7,1 -13,2 -9,1 -14,2h-1l-9,1M2590,1147l-26,-9M2601,1524l-3,29 35,15M2596,1146l26,-11M2545,1561l7,21 4,16 1,7 2,2 1,19M2478,967l-14,8M2286,1659l2,-27 18,-83 36,6M2311,1347l4,-22 25,-3 65,44M1976,879l-51,-46 -15,4h-2l-5,-3 -2,-1h-1l-19,3h-2v1l-5,3 -12,13 -2,11 -6,21 25,39 14,3 1,5v3v1v1v1M2262,753l-12,-9 2,-6 -5,-8 -2,-2v-1l2,-2v-3l2,-1v-1l1,-1 2,-3M2206,709l-39,16 -8,28 -2,3M1830,730l2,1v2l5,5v1v1h1l6,5 1,1h2l3,3v8l2,1 2,4v2l1,3 2,1 2,2h1v1h2l2,3 3,4 2,-2 5,-4 31,-14 6,-1h2h2l8,-2h3h2l2,-1 5,2 3,1 9,-1 7,-1h3l4,-29M1905,584l42,4 30,16 33,17 40,-84 -13,-37 -26,6 -13,25 -29,11 -22,46M1910,489l25,-33 -90,-14M1579,279l7,15 13,14 2,1v1l2,1 7,2v2l8,17 -3,11v9v20v2h3l10,-3 63,1v-3v-6l3,-79M2020,846l-71,-41 -2,6 -2,2v2l-5,19v2l-15,-3M991,784l6,3 60,-8M1040,655l8,71 60,-10 3,29 46,-6v-1v-1v-1h-2v-1v-1l-2,-1v-3v-1v-1h2v-1v-1v-1v-1v-3h-2v-2l2,-1v-1v-1v-1v-2l-2,-1v-3h2v-2h-2v-1l-1,-1v-1v-2v-1l-2,-1v-1v-2l-2,-3h2l-2,-2 -1,-1v-2h1l2,-1h-2l-1,-1v-2l1,-2 2,-1 -2,-2 -1,-1 1,-2 -1,-1v-1v-1v-2l-2,-1v-1v-2v-1v-1v-3l2,-1v-1v-2l-2,-1v-1l-2,-1v-1v-2v-1v-1v-1h-2v-1v-2v-1v-2h-1v-1l-2,-2v-1l2,-1 -42,8 -29,3 -7,1 -5,1h-2l-15,3 -3,-11v-9l-2,-2v-4l-2,-7M996,629l-12,2M2234,815l10,6 5,12 3,4 2,1v2l1,1 2,2 2,1v1l2,2 1,-1 4,-2 5,1 1,2v1v2v1l2,2v2l2,10v1v2v3h1v1l2,2 2,2 5,4v1M2367,818h2v-5h2v-2M2338,698v1M2420,717l-22,-8 14,-20 6,-8 2,-2M2394,669l-32,10M1289,798l39,-5 32,22 16,-26 71,-7 -66,-61M553,861l2,-11 3,-5 2,-15v-2v-7l2,-53 -2,1 -5,8h-4v-1l-1,-1 -2,-4h-3v1h-2l-3,-1h-2l-2,1 -1,-1 -6,-3 -1,-1 -2,-1 -2,-4v-2v-2l-6,1v-1l-2,-2 -5,-5h-2l-5,-3 -2,-15 -88,12v31l-1,22 -4,49M296,750l-2,82 42,1 15,-26 62,-9M414,776l-29,-19 -40,-58M585,482l-100,-23 4,-45 15,2 5,-70 47,4 14,18 42,-9M584,537l3,-13 4,-22 3,-14 2,-3 -4,-1h-1l-2,-1h-2h-2M407,409l82,5M509,346l2,-5 -98,-10M413,518l16,-37 38,5 18,-27M1698,778l20,85 14,3 52,-14 5,-32 -17,-60 -10,-9 -61,25M1489,1133l2,-57M1445,1027l-12,35 -42,69M1226,265l5,29 5,30M1357,387l22,-4 5,-112M1477,641l38,-31 71,64 52,-46 15,-13 -11,-62 -12,-29 -15,-6 -48,44 -10,-8v21l-42,35M418,268l96,5 10,-41M397,548l-20,91 30,1 12,-50 31,1 8,-44 9,-61M997,787l-29,25 11,82 8,-2 9,-1 3,-1h2l8,-1 9,-1h1l5,-1 16,-2h3l12,-2 15,-2M1457,948l5,41 -22,9 5,29 5,5 36,12 5,32 76,-23 10,-16 -17,-109 -22,2 -73,7 -8,11 -41,7M1357,964v27v19v7v8v5v2v8v2v11v23v11v41v1M1767,963v54l-12,24 24,-3 27,9 54,-23v-9l-11,-3 -34,-53 -48,4 -24,-11 -5,-24 -96,58 29,56 20,-1 7,24 64,-16 17,-11M609,342l3,17 -3,14 112,25 48,-12 40,-7v-8l-27,3 -5,-34 -46,26 -27,-15 -5,-33 -66,6 -24,18 -8,-12 -24,-13h2v-1v-4v-1h12v-4l-2,-2 2,-3 1,-2 2,-2h2l6,2 9,-4 1,-1v-2v-4l-1,-2 3,-2v-1l2,-3v-2h-2M514,273l-3,68M112,957l49,43 23,-13 15,-34 -19,-3 -3,-64M209,621l42,10 27,-108M199,953l84,2 9,-17 -2,-29 31,-57M294,832l-73,-3h-32M407,640l31,2 -4,24 45,11 23,-119 -44,-11M2893,1829l-54,59 -22,2 -41,2 7,33 6,109M2747,2039l-5,-67 -52,-66 -23,-51M1240,936l7,4 6,2 2,1 7,4 27,14 10,13h7l7,-2 10,-1 5,-2 17,-3h2l5,-1M1347,940l5,25h3l2,-1 46,10 13,-19 12,-42 -12,-37 -35,-8 -17,22 -17,50 -31,-88h-27M1381,868l-21,-53M1504,502l53,52M1630,524l3,-36 -23,-2 5,-104 -63,34M3134,1924l-63,-1 -64,36 -34,61 -80,37M387,964l-36,5 -20,-25 -39,-6M283,955l6,48 -12,17 5,75M151,1088l17,-67 -7,-21M1591,1072l-24,-19M479,677l18,5 9,-9 6,1 11,3 22,5 6,3 4,-11 1,-6v-2l2,-8 2,-10v-1l3,-15v-2l2,-1 5,-31M575,576l-73,-18M357,655l20,-16M184,713l64,1h10M1867,778l5,7 29,48M1949,805l3,-9v-1l5,-13 2,-7v-4v-5l-2,-11M1586,674l-36,34 7,23 27,66 15,12 68,-56M1652,662l15,91 15,-12 16,37 3,-2 8,-87 14,-4 -20,-17 -51,-6 -14,-34M1784,852l24,6 5,26 41,1M1872,785l-49,7 -34,28M1599,809l-8,6 24,69 45,-5 12,26 58,-35 2,-4M1813,884l2,75M1860,1015l21,-26M221,829l5,-75 22,-40M502,733v-3v-10v-1v-1l-1,-8v-1v-2v-18l-4,-7M1409,547l75,-63M1443,416l7,29 17,10 17,29 20,18 19,-17 32,-59 -3,-10 -19,8 -34,-43 -56,35 -27,-30 -37,-3M918,806l3,1 20,-19 50,-4 3,-122 -10,-31 -16,2 -6,1h-4l-5,1 -3,1 -4,-56M880,576v15l-42,6M1147,538l-68,-11M678,484l2,18v16v21l4,17M782,582l27,-108 -8,-18 -24,-3 -73,9M2096,897h61l2,19M2176,913l17,-70M2001,998h5l49,2h2l4,-3M2272,904l-78,-62M2389,1016l-13,-21M2171,1198l91,-48 -8,-61 -10,5 -16,8 -15,8 -10,6 -10,5 -12,7 -7,4h-1l-6,3 -23,13 -2,-38 -85,33M2427,995l3,-41h-42M2449,847l-12,20 -7,87M2188,1033l56,61M2142,1110l3,-48 -69,-7 -26,60 -63,8M1058,1121l-10,-63 -1,-6 -63,10 2,21M2579,434l-23,-8 -80,-2M2396,87l34,51M2489,123l-10,-66M2296,240l7,8M2401,153l-49,-28M938,1073v-27l-12,9 -49,-15 -8,17 -31,-27 -8,31M1783,712l-11,48M1503,276l-4,105M1615,382v-5v-3M1615,884l-34,43 34,39 23,-4 34,-57M1949,1085l-61,2M1891,652l3,-13 2,-7 4,-23M1743,655l-6,25 44,1M1737,680l-14,5M1779,1153l2,-78 -19,-26M1671,1042l-33,10M1730,870l8,58M1465,937l-10,-76 -13,19 -26,-4M1759,501l-39,-50 -17,12 -70,25M1860,1024l2,64M1691,372l3,84 9,7M1794,404l-27,-11 -7,-3 -6,-2 -16,-6 -6,-3 -23,-9 -6,-2 -2,-1 -7,-3 -3,-1M1638,962l4,24M1357,1053l-53,-1 -5,74M921,807h2h2l1,2 4,3v4v7l1,5 -1,3 -7,7 -11,15 -5,16v2l2,5 9,6 2,8 6,6v1h5l2,2h2h1l9,-2h5h3h2l3,-1h2l19,-2M555,674l29,-4 22,60h13l10,1h7l4,2h3h7l7,1 11,11M733,855l19,10v2l10,23v21l33,9 8,2 16,4 12,3h2l3,1h2l7,3 3,1v-1v-1l2,-6 -2,-3v-6v-6l-2,-2v-8v-5l9,-1 10,-3 2,-11M804,816v13l-73,11M1521,815l-6,-37 -21,1 -47,3M1591,815h-70l17,115M1560,928l21,-1M1452,662l39,106 66,-37M1494,779l-3,-11M562,768v-1l1,-1 2,-2 3,-2 7,-6 5,-5 4,-2v-1l5,-4 15,-14h2M938,1046l-31,-38 -3,-49h-54l-12,71M641,861l-83,-16M935,899l-29,35 -2,25M907,1008l75,-41 24,-4 -7,-73M1131,1036l-35,16 -48,6M709,1033l-15,-16M848,934l2,25M1006,963l29,5 68,6 15,-40M731,966l31,-55M1047,1052l-12,-84M2103,751l-5,-79 -29,-22 48,-52 22,-14M2113,539l2,35 24,10 15,9 30,-39 7,-20 -15,-23 -53,6 -10,22 -63,-2M1969,542l-51,-24M2184,554l34,30 31,-26v-36M2216,486l-25,48M2123,517l-24,-51M2047,480l-10,20M2919,1578l-36,-8 -15,-6 -24,47M2895,1449l-12,-9 -7,-8 -10,-8 -2,-1 -3,-3 -4,-3M3168,1593l28,-48 -38,-46h-2l-2,1h-1l-2,-1h-2l-3,-1 -24,-1 -2,1 -10,8 -5,4v1l-3,2M3312,1567h-2l-1,1M3204,1085l-4,-2 -1,2M3240,1107l-1,-3 -3,-1M3336,1401l-3,-2M1233,1050l71,2M1911,339l2,19 36,-4M1062,520l7,-54 -12,-22M1030,418l-7,22 34,4 35,-38 61,16 -3,-18 -10,-37 -80,23 -25,20 -5,8 -46,-1 -5,-17M809,379l-1,30 16,22 12,25 29,16M2098,672l47,-4 15,-32 -6,-43M2160,636l51,23M2239,621l-7,-17 -14,-20M2011,506l-47,-34 -17,-25 -12,9M2437,867l-59,13 -16,26M2076,1055l-19,-55M2145,1062l5,-6M2128,979h-34M3351,1498l-31,27M3220,1520l17,63M3200,1083l-9,-25M2335,670l-34,-4 -17,-19M2327,610l-31,-11 -29,22M1977,604l-11,17 8,43M2356,570l-23,4 -3,37M2333,574l-20,-36 -18,3 8,33 -7,25M2335,502l-22,36M2303,574l-71,30M1950,397l-3,50M2295,541l-14,-37M1799,354l-1,19M2145,668l22,57M801,456l23,-25M699,318l-5,-79M2634,329v-2l-33,-2M2515,1630l2,-9h3l2,2 7,3 8,6v4v4l2,10 1,3 2,7M2439,223l-65,45v1M1160,784v-1h-1l-2,1v2h-2v1M589,465l-4,17v1M1455,861l-8,-79M3229,1455l-4,-1M3225,1454l-6,-1M3219,1453h-7M3212,1453l-2,1M3210,1454l-3,2M3207,1456l-5,2M3202,1458l-11,1M3191,1459l-6,2M3185,1461l-4,1M3181,1462l-7,3M3174,1465h-3M3171,1465h-2M3169,1465l-1,-1M3168,1464l-5,2M3163,1466l-17,9M3146,1475l-4,1M3142,1476l-5,4M3137,1480l-7,4M3130,1484l-5,3M3125,1487l-5,7M3120,1494v2"/>
  <g class="cities">
    <circle r="3" cx="235.3" cy="71.8"/>
    <text x="235.3" y="71.8">Boston</text>
    <circle r="3" cx="166.8" cy="84.0"/>
    <text x="166.8" y="84.0">Worcester</text>
    <circle r="3" cx="93.9" cy="103.6"/>
    <text x="93.9" y="103.6">Springfield</text>
  </g>
</svg>