<?xml version="1.0" encoding="utf-8"?>
<!DOCTYPE svg PUBLIC "-//W3C//DTD SVG 1.1//EN" "http://www.w3.org/Graphics/SVG/1.1/DTD/svg11.dtd">
<svg version="1.1" xmlns="http://www.w3.org/2000/svg" width="350" height="216" viewBox="0 0 350 216">
  <path class="state" transform="scale(0.1)" d="M504,231h2l7,1h6l20,1h10l85,4h2l25,1 76,2 5,2 40,1 85,4 35,2 58,3h5l47,2 55,3 41,2 35,2 7,1 76,3 57,3h8l93,2 94,6h8h5l10,1h3l75,2 103,3h13l92,4 7,1h11h20h4l76,3 78,2 80,3h5l65,1 15,-18 2,-3 18,-28 5,-4 25,-9 6,2 9,2 1,1 7,1 3,2 10,-14v-4v-14l-1,-3v-7v-7l-2,-14 2,-1v-2l1,-1 47,-35 17,5 44,13 4,-7 3,-13 2,-8 1,-6 4,-8 1,-5 4,-6 3,-3 8,-9 4,-1 5,-1 6,-3 10,-1h4l3,-1 5,-1 10,-4 5,-1 18,-6 4,-3 1,-2 9,-3 11,-7h2l10,-2h12h1l25,14h2v2h1l2,1 5,5 7,3 5,6 11,-6 10,-7h2l10,62 -45,9 -25,-14 2,3 48,30h2l5,-2 1,-3h4v-4l3,-2 2,4 3,-5 5,-8v1v6l13,71v2l5,14v3l12,45 -20,-35v-2l-10,-23 -13,-2v3v21v1l11,27 64,34 -39,14h4l28,2 3,2 -3,3 10,24 2,2v-4l3,-2 15,-18 35,18v-19l36,-30v-1h19l-2,35h23l2,33 -22,7 2,3 -33,54 -5,-31 -52,44v-5l-71,19v-3l-79,33 -28,-11 -5,-4 5,10 4,-3 16,12v-2h2v49l23,-30 20,13 -35,40 -2,2 -13,22 -25,-8 -6,8 -7,14 -3,-7 -5,-2 -22,13 -2,2 -11,17 1,46 2,4 13,42 4,2 -5,2 -7,-6 -18,-28 -7,4 3,1 -3,16h2l11,3 2,6 -17,14 -33,-23 8,-23v-3l-5,-2h-1h-2l-10,-7 -15,-1v-1l-2,1 -1,1 -2,-14 -3,9 1,8 24,9 -14,18 -1,1 51,38 -33,20 7,49 16,-7 24,27 43,-12 -12,34 2,6 28,-5 57,-24 1,3 -21,-53 31,44 27,7 38,17 -1,13h3l12,-16 18,36 28,20 7,50 -18,8 33,24 3,1 15,17 2,2 38,55 -10,11v2l30,58 10,18 -8,-3v-4l-32,-40 -57,55v3l12,18 7,6 33,37 43,14 20,-12 45,30 -7,13 22,70 -15,34 3,27 5,7 4,4 10,10 1,4 4,2 1,1 2,2 2,1 15,15 1,1 4,2 3,2 12,8 5,3 31,12 2,1 2,1 5,2 6,2 4,1h3l8,2 5,1h2l2,1 8,1 3,1h4l3,1h8l5,1h7l3,1h8h2h7h6h17h7l1,1 5,1v1v2l5,2 5,2 -68,6 28,18 57,-4h2l6,-9 2,-1v-1l10,-6v-3v-1l3,-6 4,-2 3,-2v-1l3,-2 4,-1v-3l5,-2h1l9,-4 10,-4 4,-3v2l7,-1 5,-1 3,-1 2,-3 7,-1h5h3l2,-1 5,-3 3,-3h2l1,2 5,-2h5l4,2h3l2,-2 1,-1h5l2,-2h3l2,-1 3,-1 7,-3 2,-1 3,-2h3l5,-1 4,-2 3,-2h3h5l4,-2 1,-1 5,-2 2,-1 2,-1 5,-1 1,-2 4,-2 6,-2 4,-5h5l1,-1 2,-5 2,-2v-3l4,-2v-2l4,-3v-97l3,-3v-2l7,-40 -23,10 -34,-16 -15,17 -5,-62v-4l-11,-78 -55,-46 -4,-2 -28,7 -18,42 -42,-53 32,-20 51,6 72,30 40,38 2,3 3,5 3,5 2,3 3,6 4,5 1,5 4,4 3,7 3,6 2,4 1,2 2,3 2,3 3,6v2l2,3 1,3 2,3 5,9v3l28,83 2,4 13,51 -3,31h-3l-2,-3 -27,23 -3,8 23,-31 24,21 6,92 2,3v7v3v4v23v3v3l-2,2v4v4l-3,2 2,-57v-3l-10,-48 -22,-5 -2,34 -23,13v3l-2,18h4l41,12v36l-15,27 -20,-6 -3,-3 -3,-3 -5,-5 -5,-3 -2,-1 -12,2 -13,2 -15,3 -65,14h-1h-4h-1l-2,1h-2l-5,2 -1,1 -2,1 -2,2h-3h-3h-4l-6,-2 -15,2 -17,4h-5l2,-3 1,-9 -4,2 -17,22 -5,4 -50,-14v-2l-2,17 -36,12 -25,-12 -53,36 1,-20 -6,-15 -27,19 -5,23 -2,3h-1l-5,13 -4,2 -10,-14v-5l5,29v4l-3,2 -2,4 -1,5 -5,5 -9,9 -5,3 -3,1 -15,3 -2,1 -11,2 -4,2 7,-26 -2,-1 -13,27 -3,-3 -4,-1h-3l-5,1h-3l-23,6 -4,2 -10,-1 -6,1 -2,2 -5,2h-12l-5,1 -11,4 -7,5 -2,2 -1,3 -2,3 -2,2 -1,4 -4,6 -1,3 -19,-17 20,-13 10,-41 -10,-46 2,-45 28,-15 -1,-2 -29,-3 35,-19 -11,-84 3,-3 -38,38 -44,-19 10,-20 -48,12 2,2 35,36 -17,3 13,36 -43,-46 17,51 -20,-9v5l8,30 -61,-4 20,31 -37,4 -2,-2 -15,6 2,3 2,1 1,3v4v3l4,3 1,2 5,16 -3,4 -3,2v2l-2,1v5v3l-7,-13 -1,-2 -2,-3v-4v-4l-3,-7v-3l-2,-3v-3v-4v-6l-2,-2 -3,-2 -3,-2 -4,-1 -3,-1 -3,-3 -2,2 -2,4 -1,3 -23,-30 3,-17 -2,-7 -1,-2 -4,42 22,58 -28,-25 -2,6 -12,33 15,51 -25,17 -21,-15 -5,37 -35,3 -2,4 -25,-10 -7,-59 -15,54 -34,-39 16,53 -26,7v-9v-1v-1v-1v-4l-2,-1v-8v-4l-3,-36 -2,-4v-1v-3v-7v-3l-2,-10v-7l-3,-17 -5,-12v-1l-2,-1v-1l-1,-12v-1l3,-14 2,-4 1,-12v-3v-1v-23h-1l-2,-1h-2h-1l-2,-1h-2l-3,-2h-2h-1h-2h-2l-3,-1 -3,-1 -4,-1h-3l-2,-1h-3l-2,-1v-3v-1h-1l-4,-1h-1l-2,-1h-2l-1,-1h-2l-3,-1h-2l57,-78 13,-34h3l4,-1 26,-45 -3,-6 -23,28 -5,-50 -5,38 -2,3 7,19 -35,63 -20,20 -19,-10 -26,6 -10,-13 -9,-14 -3,-5 -3,-4 -2,-4 -5,-6 -2,-3 -1,-1h-2l-5,-4 -6,-3 -4,-2 -1,-1 -2,-1 -2,-1 -3,-2 -5,-2 -2,-3h-1l-5,-3 -2,-1 -3,-1 -2,-1 -2,-1 -1,-1 -4,-2 -3,-2 -7,-6 -1,-3 1,-4 -1,-2h-2l-3,-6h-2l-2,-1v-2l-1,-2v-1l1,-3v-9v-1v-2l-3,-5 -3,-10 5,-27 1,-8 -1,-38v-1v-3v-1l1,-6v-1v-2v-7l-5,2h-1l-2,1h-2h-1h-2l-2,1h-3l-5,1h-2l-5,1 -5,1h-3h-2v-33v-6v-3v-3v-23v-2v-3v-1v-7v-5v-2v-2v-7v-1v-8v-5v-3v-11v-7v-1v-1v-22h-1h-2h-2h-3h-2h-1h-2h-3h-4h-6h-4h-1h-4h-3h-2l-13,1h-2h-6h-2h-3h-5h-7h-6h-10h-2v1h-2h-1h-2h-2h-1h-4h-3h-3l-5,2h-2h-2l-3,1h-2h-1h-4l-3,1h-5h-3h-2h-3h-2h-2h-6l-9,1h-1h-4h-1h-2h-5h-3h-2h-2h-1h-2h-3h-4l-6,1h-4h-1h-7h-3h-4h-1h-2h-1l-12,1h-5h-7h-1l-7,1h-3h-2h-3h-5h-2h-5l-17,1h-1h-2h-5h-2h-1h-4h-8l-13,1h-10h-4h-10h-3h-2l-6,1h-4h-5h-3l-8,-17 -3,-2h-2h-17h-1h-4h-1h-2h-3h-2h-2h-1h-4h-1h-4h-3h-5h-2h-5l-5,-1h-3h-7h-1h-4h-3l-27,-1h-16h-2l-7,-1h-5h-1h-2h-3h-4h-3l-5,-1h-8h-7h-5h-5h-6h-4h-3h-8h-5l-7,-1h-5h-2h-10h-6h-7h-5h-2l-10,-1h-5h-5l-3,-1h-3h-4h-3l-8,-1h-5l-7,-1h-3h-5h-2h-3h-2h-2h-8h-3h-3l-2,-1h-5h-12h-1h-7h-3h-9h-5l-25,-1h-1h-7h-13h-7h-17l-11,-1h-9h-23h-3l-10,-1h-5h-10h-20l-5,-1h-2h-3h-18h-2l-13,-1h-2h-2h-1h-4h-1h-5h-7h-3h-9l-28,-1h-8h-9h-1h-5h-3h-4l-20,2 -18,2 -2,2 -3,2 -2,2 -1,1h-2h-3h-2h-3l-7,-1h-2h-1h-5v-7h-4h-3h-2l-16,-1 -4,-1h-3l-18,-2 -10,-2h-7l-5,-1 -7,-1h-1h-2h-2h-6h-7h-1h-7h-7h-21h-4v1l4,9 -4,7 -3,1h-5v-1v1v1v1l3,3 2,1 -2,2v1l-3,1v1l3,4 -3,2 -2,1 -10,6 -15,3h-1l-12,2h-5l-3,1 3,-49h-10h-3h-5h-4l-8,-1h-10l-5,-1h-10h-3h-5h-8h-7l-22,-1h-1h-4h-5h-6l-25,-1h-10h-2l-17,-1h-1h-2h-8h-2h-2l-6,-1h-9h-6l-9,-1h-5h-3h-2h-3l-16,-1 -10,-1 -15,-1h-12h-3l-4,-1h-3h-8l-10,-1h-12l-8,-2h-4l-20,-2h-8h-3h-4h-8l-12,-1h-5l-11,-1h-7l-16,-1 -10,-1h-2h-7l-15,-1 -5,-1h-10h-1l-7,-1h-3h-2h-5l-10,-1h-15h-2l-16,-1 -12,-1h-5h-2l-13,-1h-1h-4h-3h-2h-28h-7h-5h-6h-5h-4l-1,-10 -4,-15v-1l-3,-19 25,-86v-2l22,-76 30,-98 18,-67v-2l10,-34 3,-2 15,-54 2,-2 13,-53 3,-9 14,-44 5,-15 38,-131v-4l42,-140 46,2h7h8l8,1 34,1h26h7l25,3ZM3347,1721l-3,2h-4l-1,-2 -4,-2 -1,-3v-7h3h2l3,-6 3,-3 2,-3 2,-3 1,-2 2,-3v-2v-4l2,-1 1,-3v-4v-3v-4v-5v-2v-4v-7v-3v-2v-2l2,-1 3,-15 9,-29 5,-4v9v9l-5,8 -2,18 -2,1v4v5l-1,4v4l-2,7 -2,3v2v5v2v8v4v19l-3,3v3l-2,2 -5,6ZM2790,1871v-3l32,-48 18,66 -2,2 -18,-3 61,33 5,52 30,-1 -33,-23 32,-36 18,12 -7,49 -126,-1 -35,3 -8,1 -27,2 -71,17 -30,42 -14,-10 -15,-9 -33,-39 30,-12 23,32h7l8,-31 48,-64 4,-4 8,-29 27,-9 15,-26h1l49,-28ZM2692,1767l26,6 -33,24 -43,17 -2,21 -26,17 -15,-24 56,-44ZM2557,1870l-48,15 41,-36ZM3345,1960l44,84 -5,44 -39,14 -94,-2 -97,-39 18,-28 97,5 63,-23 23,-25 -15,-21 -36,46 30,-76Z"/>
  <g class="subcounties" transform="scale(0.1)">
    <path data-geo-id="2502328285" data-name="Hanover" d="M2515,972l35,-7 14,32 26,26 -35,21 -41,9 -12,-77Z"/>
    <path data-geo-id="2502338855" data-name="Marshfield" d="M2627,966l10,-9 17,3 33,24 3,1 15,17 2,2 38,55 -10,11v1l-32,18 -61,-48 -27,-24 -3,-51Z"/>
    <path data-geo-id="2502350145" data-name="Norwell" d="M2510,949l47,-31 57,15 23,24 -10,9h-15l3,51 -25,6 -26,-26 -14,-32 -35,7Z"/>
    <path data-geo-id="2502372985" data-name="Wareham" d="M2619,1460l6,-60v-20l29,30 21,-1 93,-6 -13,54 2,1v1l1,3 2,4v2v3l2,1 3,1v2v2l-38,38 -44,-19 10,-20 -48,12v1l-26,-7Z"/>
    <path data-geo-id="2500300975" data-name="Alford" d="M164,781l28,31 -4,17 4,42 -15,15 -43,-7Z"/>
    <path data-geo-id="2500334970" data-name="Lenox" d="M292,640l66,14 -13,45 -4,15 -5,32 -39,4v-36h-40l-2,-22Z"/>
    <path data-geo-id="2500351580" data-name="Otis" d="M408,910l3,-63 39,6 25,11 51,-2 27,-2 -5,26 -4,11 -10,44 -1,9 -5,24 -2,2v2v1l-7,-2h-1h-4l-1,-1 -13,-2 -4,-1h-3v4l-2,1 2,3 -8,3 -5,-61 -72,10Z"/>
    <path data-geo-id="2500359665" data-name="Sandisfield" d="M408,933l72,-10 5,61 8,-3v2l2,1v4v5v2l1,3v1v1v1v3l4,1 1,2v4l-6,4 -2,1 -2,2v2l-3,6v2l2,1v11l3,8 7,21v1h1l2,2v3v1l1,8h2v1v2v4v2v1l-2,1v2v1v1l2,2v5v2h-2h-3l-16,-1 -10,-1 -15,-1h-12h-3l-4,-1h-3h-8l-10,-1h-12l-8,-2h-4l-11,-138Z"/>
    <path data-geo-id="2500344385" data-name="New Ashford" d="M327,365l81,6 -2,38 -26,-10 1,33 -51,-12 -15,-3Z"/>
    <path data-geo-id="2500379985" data-name="Williamstown" d="M327,224l46,2h7h8l8,1 24,1 -4,40 -3,64 -5,39 -81,-6 -42,-1Z"/>
    <path data-geo-id="2500516425" data-name="Dartmouth" d="M2342,1555l60,-31 44,-28 -10,59 6,48 37,50v-1v2l-12,33 15,51 -25,17 -21,-15 -5,37 -35,3 -2,3 -7,-72 -15,-30 7,-54 -37,-72Z"/>
    <path data-geo-id="2500525240" data-name="Freetown" d="M2332,1409l-3,-6v-11l50,1 17,20 3,2 -2,5 -1,2 -7,18 38,-6 59,-10 1,4v3l4,7 1,3 2,4 5,14 -15,10 -18,13 -20,14 -44,28 2,-43 -98,-23h2l26,-45Z"/>
    <path data-geo-id="2500556060" data-name="Raynham" d="M2329,1176l30,7 2,3 5,25 5,4 20,16 20,21 3,3v13v1l2,1 1,-1v-1l2,1v1v4v4l-2,3 2,22 -50,3 -45,-65 12,-23Z"/>
    <path data-geo-id="2500568750" data-name="Swansea" d="M2141,1447l97,-11 -5,-42 20,34h16l-1,62 -30,-5 -9,33 -26,6 -10,-13 -9,-14 -3,-5 -3,-4 -2,-4 -5,-6 -2,-3 -1,-1h-2l-5,-4 -6,-3 -4,-2 -1,-1 -2,-1 -2,-1 -3,-2 -5,-2 -2,-3h-1l-5,-3 -2,-1 -3,-1 -2,-1 -2,-1 -1,-1 -2,-2Z"/>
    <path data-geo-id="2501121780" data-name="Erving" d="M1028,417l7,-7 25,-20 80,-23 10,38 3,17 -60,-16 -36,39 -30,-4Z"/>
    <path data-geo-id="2501127100" data-name="Greenfield Town" d="M905,357l10,-1 34,-5 41,-7 -11,56 -29,21 4,20v1h-54h-11Z"/>
    <path data-geo-id="2501342145" data-name="Monson" d="M1123,975l39,-11 31,22h37l3,64v76h-17l-11,-1h-9h-23h-3l-10,-1h-5h-10h-2l-11,-88Z"/>
    <path data-geo-id="2501365825" data-name="Southwick" d="M707,1033l122,28 -8,55h-7h-7h-21h-4v1l4,9 -4,7 -3,1h-5v-1v1v1v1l3,3 2,1 -2,2v1l-3,1v1l3,4 -3,2 -2,1 -10,6 -15,3h-1l-12,2h-5l-3,1 3,-49h-10h-3h-5h-4Z"/>
    <path data-geo-id="2501552560" data-name="Pelham" d="M1055,653l2,-1h5l15,-3 63,-10 -2,1 2,3v1l2,1v1l-2,1 2,2v1l1,1v1v1v1v2l2,1v1l2,2v2l-2,2v1v2v2v3l2,1v1v2l1,1 -1,2 1,1v1h2l-2,3h-1v2l1,2h2h-2h-1v3l1,2 2,1 -2,1 2,2v2v1l2,1v4l1,1v1l2,1h2l-2,1h-2l2,3v1v2v1v3l-2,2 2,1v1v2v1v1v1h-2v1v1v1v1v1l2,1v1l2,1v2v1l-47,4 -3,-27 -59,9 -10,-71Z"/>
    <path data-geo-id="2502174175" data-name="Wellesley" d="M2105,775l1,-1h2l2,-1h1l2,-1h2l1,-1 4,-1 5,-2h1l4,-2h1l2,-1 3,-1h2l10,-4 3,-2h4l3,-1 40,12h-2v1v-1v1l2,2 -63,53 -12,2 -2,-2v-2l-10,-23 -1,-3 -5,-14v-2l-2,-3Z"/>
    <path data-geo-id="2502773895" data-name="Webster" d="M1592,1072l49,-21 23,86h-17h-1h-4h-1h-2h-3h-2h-2h-1h-4h-1h-4h-3h-5h-2h-5l-5,-1h-3h-7h-1Z"/>
    <path data-geo-id="2502730945" data-name="Hopedale" d="M1890,970l55,51v1l-2,7 4,8 -20,5 -47,-54Z"/>
    <path data-geo-id="2502734165" data-name="Lancaster" d="M1735,575l10,-57 14,-17 21,4 4,1 10,2h6h4l1,2h2l7,1 6,2v60l-20,56 -28,-7 -28,32v-78Z"/>
    <path data-geo-id="2502728950" data-name="Harvard" d="M1817,504l3,-11 7,-9 8,-8 3,4 2,3 3,1 2,2 3,1h4l6,2h2l3,-3 9,-6 6,1 12,3 2,2 5,1 11,2 2,1 2,10 1,8 4,9 1,1 -3,5 -2,2 -8,18 -7,12v1l7,29 -5,23 -80,-35v-60Z"/>
    <path data-geo-id="2502725485" data-name="Gardner" d="M1443,415l56,-35 53,36 -30,68 -18,17 -20,-17 -38,-39Z"/>
    <path data-geo-id="2502753225" data-name="Phillipston" d="M1336,424l8,-37h14l6,13 4,48 31,53 9,47 -17,12v2l-76,-83 8,-50Z"/>
    <path data-geo-id="2502753120" data-name="Petersham" d="M1193,673h2v-2v-2v-2v-1h1l-1,-1 1,-1v-2v-2v-3l2,-1 2,-2h-2v-2h2v-1v-2v-2h1v-1l2,-1 -2,-1 2,-1 -2,-3h2h2h1v-1l2,-1 -2,-1v-1h2v-2h2v-1l1,-1 2,-1v-1l2,-1 1,-1v-1v-2v-1l2,1v-2v-1v-1l-2,-1h2h2v-1v-1l1,-1h2v-2l-7,-49 12,-10 7,-7 1,-1 20,-18 4,-6 55,-45 76,83 -95,82 -13,28 -50,7 -13,43 -2,4h-2v1l-1,-1v1h-2l-2,1v1h-1l-2,1h-2v1l-1,1v1h-2h-2v1v1l-1,1v-1l-2,1h-2h-1l1,-10v-2l-1,-1 1,-2 -1,-2 1,-1v-2v-2v-1l2,-1v-1v-2l-2,-1v-1v-2h-1h-2l2,-1v-3l1,-1h2v-1l-2,-1v-1v-2l-1,-1 1,-2v-1l-1,-1v-2l1,-1v-1v-2l2,-1v-2l-2,-1v-2v1v-2h-1v-1v-2Z"/>
    <path data-geo-id="2502728740" data-name="Hardwick" d="M1220,722l13,-43 50,-7 13,-28 75,68 -35,26 -23,47 -27,14h-1v-3v-3l3,-4v-2v-3v-2v-2l2,-3h-2l-18,4 -7,1 -5,1 -15,1 -7,1 -8,-15 -2,-15 -1,-10 -2,-16 -5,-3Z"/>
    <path data-geo-id="2502741165" data-name="Milford" d="M1895,939l33,-8 14,-1 1,-2 4,17 6,14h9l5,1v8v4v3v9v18l-22,20v-1l-55,-51Z"/>
    <path data-geo-id="2502741585" data-name="Millville" d="M1862,1087h25l1,63h-1h-4h-1h-2h-5h-3h-2h-2h-1h-2h-3Z"/>
    <path data-geo-id="2502379530" data-name="Whitman" d="M2432,1054l55,-15 13,17 -4,30 -40,2 -24,-13Z"/>
    <path data-geo-id="2502703740" data-name="Barre" d="M1391,562v-2l87,80 -25,22 -72,59 -10,-9 -75,-68Z"/>
    <path data-geo-id="2502775155" data-name="West Boylston" d="M1651,662l51,5 20,17 -17,21 -3,71 -5,2 -17,-37 -13,13Z"/>
    <path data-geo-id="2502375260" data-name="West Bridgewater" d="M2346,1103l40,-7 3,16 33,-6 7,45 -68,35 -2,-3 -8,-49 -2,-11 -2,-9v-2l-1,-6Z"/>
    <path data-geo-id="2502328495" data-name="Hanson" d="M2500,1056l14,-3 41,-9 -3,62 12,32 -57,-8 -2,9 -9,-53Z"/>
    <path data-geo-id="2502556585" data-name="Revere" d="M2376,647v-1v-2l3,-4v-2v-1l2,-2h-2l2,-2v-1l1,-4 4,-6v-2v-1l-4,-9v-1v-1l2,-1 2,-1 1,-2 2,-2 2,3 1,3v1l2,2 2,1v1l-2,3 2,1v2v1v3h1v1v-1l4,1 1,4 2,-2h3h4l1,-3h5l2,2 2,1 1,46 2,4 -5,4 -25,-11 -8,-11 -10,-11Z"/>
    <path data-geo-id="2502340850" data-name="Middleborough" d="M2411,1252h1l17,-13 35,7 12,-33 20,-7 44,13 27,34 17,19 33,99v2l8,7v20l-116,20 1,-44 -23,-29 2,-31 -63,-35 -4,1 -1,-1 -2,1 -2,-1 2,-3v-4v-4v-1l-2,-1v1l-1,1 -2,-1v-1v-13Z"/>
    <path data-geo-id="2502357600" data-name="Rochester" d="M2486,1424l23,-4 116,-20 -6,60 -20,64 -39,11 -21,1 -5,-18 -15,-55 -17,3 -3,-7 -5,-14 -2,-4 -1,-3 -4,-7v-3l-1,-4Z"/>
    <path data-geo-id="2502705490" data-name="Berlin" d="M1780,681l17,-36 53,26 13,20 -8,6 -5,12 -3,7 -4,5 -13,8v1v-1l-46,-17Z"/>
    <path data-geo-id="2500916250" data-name="Danvers" d="M2402,461l15,-37 19,-8h1l30,-16 9,24 10,55 -4,-3 5,10 -3,2Z"/>
    <path data-geo-id="2500927900" data-name="Hamilton" d="M2482,379l2,-1h2h-2h2l6,-38h30l12,22 38,1 15,56 -12,3 -96,-36v-2Z"/>
    <path data-geo-id="2500945175" data-name="Newbury" d="M2432,218l45,-37 53,-18 22,2h2l5,-2 1,-2 2,-1h2v-2l3,-4 2,4 3,-5 5,-3v2l13,71 -13,4 -13,-2 -92,20 -33,-21Z"/>
    <path data-geo-id="2500932310" data-name="Ipswich" d="M2451,315l74,-37 9,-17 30,-12v1l11,27 64,34 -39,14h4l-9,9 -8,8 -3,2h-2h-2l-8,19 -38,-1 -12,-22h-30l-16,-12 -40,-2Z"/>
    <path data-geo-id="2500941095" data-name="Middleton" d="M2349,407l2,-2 3,-24 28,-17 44,25 10,27h1h-1l-19,8 -15,37 -30,-2v-6v-1l7,-4 -2,-1 -1,-5 -4,-8 -18,-21 -2,-2Z"/>
    <path data-geo-id="2500945245" data-name="Newburyport" d="M2456,138l16,-24 17,8 13,10 2,3 48,30 -22,-2 -53,18Z"/>
    <path data-geo-id="2500958405" data-name="Rowley" d="M2424,297l48,-52 92,-20v3v21l-30,12 -9,17 -74,37Z"/>
    <path data-geo-id="2501513590" data-name="Chesterfield" d="M674,620l30,-4 30,19 -3,22 41,3 -6,54 -40,6 1,18 -59,-3 -17,-112Z"/>
    <path data-geo-id="2501526290" data-name="Goshen" d="M697,560h7l2,2 6,2 7,1 5,1 58,17 4,21 -12,2 -2,54 -41,-3 3,-22 -30,-19Z"/>
    <path data-geo-id="2501516040" data-name="Cummington" d="M576,576l7,-28v-2v-4l1,-4v-1l90,23 10,-5 13,5 7,56 -30,4 -103,-22Z"/>
    <path data-geo-id="2502104930" data-name="Bellingham" d="M1943,1029l2,-7v-1v1l22,-20 33,-4v3l-12,75v47l-3,21h-7h-6h-10h-2v1h-2h-1h-2h-2h-1h-4v-1v-13v-3v-1v1v-1v-24v-2v-6v-8v-1v-21v-14v-1v-1l2,-3v-3v-1v-1v-2h-2l-1,-2 -4,-8Z"/>
    <path data-geo-id="2502109175" data-name="Brookline" d="M2243,773l1,-2 2,-1v-1l2,-1 1,-3 2,-1v-1l3,-2 2,-3h2l5,-4 6,-8v-1l2,-2h2l-2,-1 2,-1h3l2,-3 1,-2 2,-1 5,-4 2,-1 3,-2 2,-1 1,-1 4,1h1l7,1h2v1v1v1v1v1l1,1v1l-5,5v3v3v2l-1,2 -2,6v1l-2,1v3l-1,1 -5,2 -4,4 -3,5 -2,3 -1,2 -5,10 -2,2 -2,1 -1,2 -2,2v1h-2l-3,2v-1l-3,-2 -5,-8 -2,-2h-2l-3,-4Z"/>
    <path data-geo-id="2502111315" data-name="Canton" d="M2264,918l9,-14 3,-9 2,-5 8,-9h2l25,33 34,46 -26,20 -50,12 -27,-32Z"/>
    <path data-geo-id="2502114640" data-name="Cohasset" d="M2544,864l1,-2 5,-6 -3,-2v-1l2,-2 -2,-1 2,-4 1,-6v-2h2h2h1v-1l2,-3v-1l2,-1h1h4h1h2l38,17 -1,13h3h2v6l-2,1h-2l-1,2v1v4h1v2v1l2,2 -2,1 -1,-1v4l-4,1 -1,1 -10,9 -9,6v1l-6,5 -2,1 -3,2h-2h-2l-3,-5 -7,-9 -5,-12 -1,-9 -2,-2 -2,-3Z"/>
    <path data-geo-id="2502141515" data-name="Millis" d="M2035,932l8,-2 2,-1 8,-2 18,-5 19,-6v2l20,32 -7,3h-2l2,7 -5,16 -3,4 -34,17 -25,-53v-1Z"/>
    <path data-geo-id="2502141690" data-name="Milton" d="M2288,881v-2l3,-3 2,-1 1,-3 2,-10 5,-2 2,-1v-1l1,-1h2v-1l2,-1 -2,-5v-4l-2,-2 -1,-2 8,-2 5,-1v-1l7,-6 6,-3h2l3,-2h5h2l5,-1h1v1l2,3 2,1 6,-6 -1,-5 3,-2h2l6,1 12,23 -27,20 7,16 -36,19 9,13 -14,3 -5,1Z"/>
    <path data-geo-id="2502144105" data-name="Needham" d="M2131,829l4,-3v-1l63,-53v1v5l1,4 5,1h4h1h2v1l2,3v1l-2,2 3,5h2v1l2,3v5v1l11,2 2,2v3v1v1l2,1 1,1 -40,26 -1,2 -58,-10Z"/>
    <path data-geo-id="2502150250" data-name="Norwood" d="M2188,938l36,-39 40,19 -20,42 -15,19Z"/>
    <path data-geo-id="2502155955" data-name="Randolph" d="M2313,914l5,-1 14,-3 30,-4 29,25 -2,22 -13,42 -20,-22 -9,-13Z"/>
    <path data-geo-id="2502167945" data-name="Stoughton" d="M2271,992l50,-12 26,-20 9,13 -14,27 10,36 -13,7 -3,2h-2l-11,7 -5,2 -14,8 -1,1 -2,1 -7,4 -3,1 -10,5 7,-44Z"/>
    <path data-geo-id="2502172495" data-name="Walpole" d="M2128,980l27,1 5,-66 16,-2 12,25 41,41 -35,22 -6,32 -38,22 -19,-62 -1,-12Z"/>
    <path data-geo-id="2500546575" data-name="North Attleborough" d="M2056,1257v-3v-23v-2v-3v-1v-7v-5v-2v-2v-7v-1v-8v-5v-3h4h3l8,-1h2l8,-4 5,-3 12,-5v-1l7,-3 3,-1v-1l10,-5 5,-2 2,-1 5,-2 13,-7 18,32 -61,60 -44,31v-6v-6Z"/>
    <path data-geo-id="2500500520" data-name="Acushnet" d="M2466,1482l18,-13 15,-10 3,7 17,-3 15,55 5,18 6,21v4l-51,21 -2,-7Z"/>
    <path data-geo-id="2500516950" data-name="Dighton" d="M2238,1316l53,11 20,20 -8,38 -5,38 -2,3 -5,1 -22,1h-16l-20,-34 -10,-81Z"/>
    <path data-geo-id="2500502690" data-name="Attleboro" d="M2056,1272l44,-31 61,-60 8,17 49,82 -85,7 -37,5 -5,2h-1l-2,1h-2h-1h-2l-2,1h-3l-5,1h-2l-5,1 -5,1h-3h-2Z"/>
    <path data-geo-id="2500538225" data-name="Mansfield" d="M2143,1148l5,-3 10,-5 13,-7 3,-2 5,-3 14,-6v-1l10,-5 25,-13 16,-9 9,-5 10,61 -94,48 -8,-17 -18,-32Z"/>
    <path data-geo-id="2500520100" data-name="Easton" d="M2253,1089l23,-12 5,-3 10,-5 3,-1 7,-4 2,-1 1,-1 14,-8 5,-2 11,-7h2h-2l7,32v4l3,13v2l2,7v3l1,6v2l2,9 2,11 8,49 -30,-7 -11,-3 -52,-9 -3,-14Z"/>
    <path data-geo-id="2500545000" data-name="New Bedford" d="M2446,1496l20,-14 26,93 -1,-2 -4,42 22,58 -28,-25 -2,4v1l-37,-50 -6,-48Z"/>
    <path data-geo-id="2500549970" data-name="Norton" d="M2169,1198l94,-48 3,14 52,9 -45,61 -42,42 -13,4Z"/>
    <path data-geo-id="2500556375" data-name="Rehoboth" d="M2133,1287l85,-7 13,-4 7,40 -15,-3 10,81 5,42 -97,11Z"/>
    <path data-geo-id="2500562430" data-name="Somerset" d="M2229,1518l9,-33 30,5 1,-62 22,-1 5,-1 7,19 -35,63 -20,20Z"/>
    <path data-geo-id="2501731540" data-name="Hudson" d="M1855,697l8,-6 -13,-20 22,-14 13,-3 3,-1 4,-1 78,28 -2,11 -118,18Z"/>
    <path data-geo-id="2501737875" data-name="Malden" d="M2328,610h3l51,-1v1l4,9v1v2l-4,6 -1,4v1l-2,2 -40,14Z"/>
    <path data-geo-id="2500334340" data-name="Lanesborough" d="M278,523l52,-103 51,12 -10,46 22,6 -12,23 32,11 -17,32Z"/>
    <path data-geo-id="2500938400" data-name="Marblehead" d="M2509,542l23,-30 20,13 -35,40v1l-18,-8Z"/>
    <path data-geo-id="2501529265" data-name="Hatfield" d="M864,698l5,-47v-1l6,-1 30,-4h2l5,-1h2l8,-4h5l5,-1 2,-1 11,-3h4v1h1l-10,33 2,52 -42,3 -6,-30Z"/>
    <path data-geo-id="2502712715" data-name="Charlton" d="M1454,949l12,-12 73,-6 22,-2 15,97 -9,27 -76,23 -10,-30 -37,-19 -5,-29 22,-8Z"/>
    <path data-geo-id="2500926150" data-name="Gloucester" d="M2644,358v-1l3,-5 15,-18 35,18v-19l36,-30 -3,66 23,10 2,1 -33,54 -5,-31 -52,44v-3l-28,-30 -10,-24Z"/>
    <path data-geo-id="2501737000" data-name="Lowell" d="M2065,340l10,10 53,-16 23,13 -1,44 -19,11v-2l-58,-15 -18,-28Z"/>
    <path data-geo-id="2500927620" data-name="Groveland" d="M2349,250l15,-27 20,-37 48,32 7,6 -47,24 -18,21Z"/>
    <path data-geo-id="2500103690" data-name="Barnstable Town" d="M2925,1609l-9,-32 70,-95 5,1h4l3,1h3h2h1h5v1h2h2h3h2l3,1h7h1h2h7h6h4h1h5h7h7l1,1 4,1 1,1v2l5,2 4,1 1,1 -68,6 28,18 57,-4 -10,80v-1l-2,17 -36,12 -25,-12 -53,36 1,-20 -6,-15 -27,19 -5,23 -2,1v2h-1l-5,13 -2,1 -2,1 -10,-14v-4v-39v1v-1v1h-3Z"/>
    <path data-geo-id="2500107980" data-name="Brewster" d="M3214,1468l5,-2 3,-2v-1l7,-9 2,-2 1,-1h4h1v1h-1v2v1v2l1,1 -1,-1v-2v-1v-2h1v-1h-1h1l2,-2h2l3,-1 3,-1 2,-2h2h1l2,-1 2,-1 1,-1 2,-1h2h1h2l7,-3 3,-2h3h5l4,-2h1v-1h2l3,-2 2,-1 2,-1h3l2,-1v-1h1v-1h2v-2h2l6,-2 2,-2 2,-1v-2h5l1,-1 4,5 26,68 -33,5 -62,2 -36,24Z"/>
    <path data-geo-id="2500123105" data-name="Falmouth" d="M2768,1587l49,15 26,10 15,47 25,6 -15,32 -2,-1 -13,27 -3,-3h-2l-2,-1h-3l-7,1h-1l-23,6 -2,2h-2l-10,-1 -5,1h-1v2h-2l-5,2h-10h-2l-5,1 -8,2 -2,1 -1,1 -7,5 -2,2v1h-1v2l-2,3h-2v1v1l-1,4 -2,2 -2,4 -1,3 -19,-17 20,-13 10,-41 -10,-46 2,-45 28,-15Z"/>
    <path data-geo-id="2500151440" data-name="Orleans" d="M3322,1416h2l-2,-1 2,-4v-1l2,-1v-1v-1v-1l3,-2h1v-2h2l2,-2 1,1 7,-1 18,6 -3,7 23,-31 24,21 6,92 2,1 -3,-1v-2l-10,-48 -22,-5 -2,34 -23,13v2l-26,-68 -4,-5Z"/>
    <path data-geo-id="2500174385" data-name="Wellfleet" d="M3267,1205l75,-12v2v1l2,1v1l1,3 2,1v1v1l5,9v1v2l28,83 -38,6 -3,-1h-2l-2,-3 2,-2v-2l7,-40 -23,10 -34,-16 -15,17 -5,-62Z"/>
    <path data-geo-id="2500960015" data-name="Saugus" d="M2356,569v-3v-1v-2v-3l1,-2 7,-3 2,-5 1,-5 -1,-2v-2l-2,-1 3,-2 4,-1 1,-3 22,4 20,50 20,20 -2,1 -11,17 -2,-1 -2,-2h-5l-1,3h-4h-3l-2,2 -1,-4 -4,-1v1v-1h-1v-3v-1v-2l-2,-1 2,-3v-1l-2,-1 -2,-2v-1l-1,-3 -2,-3 -2,2 -1,2 -2,1 -2,1v1l-8,-12 -5,-7 -2,-1v-1l-1,-3 -2,-3 -2,-2 -3,-4 -2,-3 -1,-2Z"/>
    <path data-geo-id="2500970150" data-name="Topsfield" d="M2426,389l1,-17 9,-46 40,2 16,12 -6,38h-2h2h-2l-2,1 -3,5v2l-12,14 -30,16h-1Z"/>
    <path data-geo-id="2500977150" data-name="West Newbury" d="M2384,186l18,-33 29,-15h25l21,43 -45,37Z"/>
    <path data-geo-id="2500901465" data-name="Andover" d="M2168,346l16,-16 22,-40 17,4h1h-1h1l5,2 4,26 46,-1 55,90 -11,2 -20,2 -10,1h-4l-8,1h-2l-5,-4 -3,-4 -2,-3v-2l-1,-4 -5,-2 -4,1 -1,1v9l-4,5 -1,5 -2,-2 -10,-7 -3,-4h1h2v-1v-1v-1v-1v-2l2,-1 1,-1h2v-1l-3,-3 -7,-5 -2,-1 -1,-1v-1h-2l-2,-1 -6,-5h-2l-5,-3 -3,-2 -2,-3 -15,-8 -3,-2 -5,-4 -4,-2 -6,-4 -2,-1 -7,-5Z"/>
    <path data-geo-id="2500907420" data-name="Boxford" d="M2349,250l25,19 7,20 43,8 27,18 -15,11 -9,46 -1,17 -44,-25 -20,-44 -59,-73Z"/>
    <path data-geo-id="2500921850" data-name="Essex" d="M2572,363l8,-19h2h2l3,-2 8,-8 9,-9 28,2 3,2 -3,3 10,24 2,2 -17,32 10,24 -50,5Z"/>
    <path data-geo-id="2500934550" data-name="Lawrence" d="M2279,265l-8,28v-1v1v-1l5,7v8v1v-1v1l3,13 -46,1 -4,-26 17,-33Z"/>
    <path data-geo-id="2500937490" data-name="Lynn" d="M2394,538l23,-13 34,21 15,5 11,30 -6,8 -4,6h-8l-3,-1 -22,13v1l-20,-20Z"/>
    <path data-geo-id="2500937560" data-name="Lynnfield" d="M2336,501l1,-8v-12l2,-3v-7l5,-7 8,-15v-1v1h2h-2h2l13,2 5,2v6l27,52 18,14 -23,13 -22,-4v-1l-1,-4v-1v-3v-1l-2,-2v-2v-2h-2l-1,-2 3,-5h-17h-1l-2,-1h-5l-2,-2 -1,-1 -5,-6Z"/>
    <path data-geo-id="2500940710" data-name="Methuen Town" d="M2198,234l6,2 9,2 1,1 7,1 3,2 10,-14v-4v-14l-1,-3v-7v-7l-2,-14 2,-1v-2l1,-1 49,39 13,26 -17,25 -33,-2 -17,33 -5,-2h-1h1h-1l-17,-4 -22,40v-1v-2l-3,-17 -2,-11 -1,-7 -9,-46 4,-3Z"/>
    <path data-geo-id="2500937995" data-name="Manchester-by-the-Sea" d="M2575,422l12,-3 50,-5 28,30v-2l-71,19v-2v-6l-15,-20Z"/>
    <path data-geo-id="2501116670" data-name="Deerfield" d="M864,472l20,-3 16,-27h54v-1l16,5 -8,50 12,36 -29,49 -65,-5 9,-71Z"/>
    <path data-geo-id="2501142040" data-name="Monroe" d="M548,281v-31v-13v-2l1,-2 85,4h2l-22,42h-1h-2l-25,3h-5h-10l-22,-1Z"/>
    <path data-geo-id="2500959105" data-name="Salem" d="M2451,546l28,-32 5,-26 3,-2 4,-3 16,12v-2h2v49l-10,16 -33,-7Z"/>
    <path data-geo-id="2501135180" data-name="Leverett" d="M1005,525l57,-7 18,10 -12,89 -35,6h-1l-7,1 -12,2 -5,1 -13,1 -1,-38Z"/>
    <path data-geo-id="2501352144" data-name="Palmer Town" d="M1118,933l15,-2 14,-2h3l3,-1h-1l-2,-1v-4v-1h2v-1v-1l-2,-2h-2v-1v-1v-2v-3h-1v-1v-1v-2l1,-1 2,1 -2,1h2v1l2,-1 1,-1v-3h2h2v2l1,1 2,-1v-2h2v-1h1l2,-1v-2v-1v-2v-1v-1l2,-1v-1l1,-1h2h1h2v-1v-1h2l20,-7 16,-7 17,-2 3,-3h2v-2h2v6l5,4 13,-12 3,-5 14,-1 10,-1 -2,2 -15,21 -17,23 -3,4 -3,5v2v3v5l1,2v2l-1,1v2v1v1v2l-10,50h-37l-31,-22 -39,11 -5,-41Z"/>
    <path data-geo-id="2501358650" data-name="Russell" d="M653,1005l23,-115 5,-9h1l49,85 -39,51Z"/>
    <path data-geo-id="2501370045" data-name="Tolland" d="M488,1026l3,-6v-2l2,-2 2,-1 6,-4v-4l-1,-2 -4,-1v-3v-1v-1v-1l-1,-3v-2v-5v-4l-2,-1v-2l-2,-3 2,-1v-4h3l4,1 13,2 1,1h4h1l7,2 48,9 10,73 -8,50 -17,-1h-1h-2h-8h-2h-2l-6,-1h-9h-6l-9,-1h-5h-3v-2v-5l-2,-2v-1v-1v-2l2,-1v-1v-2v-4v-2v-1h-2l-1,-8v-1v-3l-2,-2h-1v-1l-7,-21 -3,-8v-11l-2,-1Z"/>
    <path data-geo-id="2501135285" data-name="Leyden" d="M867,247l35,2 35,2 12,100 -34,5 -26,-36Z"/>
    <path data-geo-id="2501145490" data-name="New Salem" d="M1147,538l10,-4v-54l79,3 7,23 10,10 7,8 -4,6 -20,18 -1,1 -7,7 -12,10 7,49v2h-2l-1,1v1v1h-2h-2l2,1v1v1v2l-2,-1v1v2v1l-1,1 -2,1v1l-2,1 -1,1v1h-2v2h-2v1l2,1 -2,1v1h-1h-2h-2l2,3 -2,1 2,1 -2,1v1h-1v2v2v1h-2v2h2l-2,2 -2,1v3v2v2l-1,1 1,1h-1v1v2v2v2h-2l2,1v2v1h1v2v-1v2l2,1v2l-2,1v2v1l-1,1v2l1,1v1l-1,2 1,1v2v1l2,1v1h-2l-1,1v3l-2,1h2h1v2v1l2,1v2v1l-2,1v1v2v2l-1,1 1,2 -1,2 1,1v2l-1,10v2v2l-2,1h-2l-1,2v2l-4,3v1v2l-1,2v1l-2,1v1l2,2h-2h-2v2l2,3v2l-2,2v1v-1l-1,-1 -4,1v1l-1,1v1v2h-2l-2,1 -1,-1 -2,1v1l-1,2v1l-2,1h-2h-1v-1l-2,1 2,2h-2v1l2,1v2v1h-2v-3l-2,1 -1,1v1h-2v-1v-1h-2v-1l-1,-1v-3h1l2,-1v-1v-2l2,-1v-2v-1v-1v-2v-1h1v-2v-1v-1v-1v-1h2v-2h-2l2,-1 -2,-2 2,-1v-1v-2v-1v-1l2,-1 -2,-2v-1l-2,-2v-1v-1v-1l-1,-1v-1v-2l-2,-1v-1l-2,-1v-1v-1v-1v-1v-1h2v-1v-1v-1v-2v-1l-2,-1 2,-2v-3v-1v-2v-1l-2,-3h2l2,-1h-2l-2,-1v-1l-1,-1v-4l-2,-1v-1v-2l-2,-2 2,-1 -2,-1 -1,-2v-3h1h2h-2l-1,-2v-2h1l2,-3h-2v-1l-1,-1 1,-2 -1,-1v-2v-1l-2,-1v-3v-2v-2v-1l2,-2v-2l-2,-2v-1l-2,-1v-2v-1v-1v-1l-1,-1v-1l-2,-2 2,-1v-1l-2,-1v-1l-2,-3 2,-1 -8,-54h13Z"/>
    <path data-geo-id="2501151265" data-name="Orange" d="M1150,405l43,-7 -3,-21 46,-54 14,9 13,8 15,22 2,6 -4,4h2v2v2v1v3v2l-2,2 -3,1v1l3,4v5v1v1v1v1h-1h-2v1h-2h-1h-2v-1l-2,1h-1h-2l-8,2 -4,1 2,7h-3l-2,2 -2,3 -1,1h-4h-1l5,25v1l-2,5 -3,-2h-2v1l-2,1 -1,-1v-2v-2h-2v3v1h-2v8l2,5v3v2l2,5v5l1,9 -79,-3 -4,-58Z"/>
    <path data-geo-id="2501336300" data-name="Longmeadow" d="M937,1072l50,12 3,37 -20,2 -18,2 -2,2 -3,2 -2,2 -1,1h-2h-3h-2h-3l-7,-1h-2h-1h-5v-7Z"/>
    <path data-geo-id="2500726325" data-name="Gosnold" d="M2692,1767l26,6 -33,24 -43,17 -2,21 -26,17 -15,-24 56,-44ZM2557,1870l-48,15 41,-36Z"/>
    <path data-geo-id="2500769940" data-name="Tisbury" d="M2790,1871l-17,-15 4,36 -39,-58 49,-28 3,65Z"/>
    <path data-geo-id="2501105560" data-name="Bernardston" d="M960,252h5l47,2 18,63 7,20 -47,7 -41,7 -12,-100Z"/>
    <path data-geo-id="2501705070" data-name="Belmont" d="M2219,647l47,19 -3,24 1,7 -36,-13 -17,-26Z"/>
    <path data-geo-id="2501711000" data-name="Cambridge" d="M2266,666l17,-6 28,38h28v1l2,1h1h2l3,4 -1,1h-4l-1,1v1l-7,11 -2,1 -13,5h-16l-4,-4 -18,-13 -7,2v-12h-10l-1,-7Z"/>
    <path data-geo-id="2501713135" data-name="Chelmsford" d="M2020,351l35,6 18,28 58,15v2l-31,64 -52,14Z"/>
    <path data-geo-id="2501721990" data-name="Everett" d="M2339,660v-11l40,-14h2l-2,2v1v2l-3,4v2v1l-2,3 -2,4v2l-1,1v3l-2,2v2l-2,1 -3,2 -2,2h-1h-2h-2v3l2,1v1l-15,-1v-1l-2,1 -1,1Z"/>
    <path data-geo-id="2501730700" data-name="Holliston" d="M1943,928l40,-31 -6,-19 43,-9 33,58 -8,2 -2,1 -8,2 1,11 -1,1h-7h-3h-5h-2h-2v1v-1v-1h-1l-48,29v-4v-8l-5,-1h-9l-6,-14Z"/>
    <path data-geo-id="2501112505" data-name="Charlemont" d="M609,342l39,-22 51,-1 20,49 58,-29 5,37 27,-5v8l-8,10 -74,-1 -6,10 -112,-24 4,-16Z"/>
    <path data-geo-id="2501114885" data-name="Colrain" d="M867,247l22,73 26,36 -10,1 -96,14 -27,5 -5,-37 -16,-97 21,1Z"/>
    <path data-geo-id="2501743895" data-name="Natick" d="M2058,774l13,-2 32,-19 2,22 -2,3 2,3v2l5,14 1,3 10,23v2l2,2 5,29h-27v1l-55,-30 -10,-27Z"/>
    <path data-geo-id="2501748955" data-name="North Reading" d="M2279,417h2l8,-1h4l10,-1 20,-2 11,-2 10,-4 7,-2 -2,2 3,4 2,2 18,21 4,8 1,5 2,1 -7,4v1l-5,-2 -13,-2h-2h2h-2v-1v1l-8,15 -5,7 -38,-6 -7,1 -8,7 -7,3v-1Z"/>
    <path data-geo-id="2501752805" data-name="Pepperell" d="M1800,356l5,-69h20h4l76,3 -12,20 17,29 -38,12 -14,34Z"/>
    <path data-geo-id="2501768260" data-name="Sudbury" d="M1968,691l2,-11 3,-15 25,-7 12,-36 58,29 5,27 -23,22 -4,9v2l-5,30 -79,-15Z"/>
    <path data-geo-id="2501769415" data-name="Tewksbury" d="M2151,347l17,-1h1l7,5 2,1 6,4 4,2 5,4 3,2 15,8 2,3 3,2 5,3h2l6,5 2,1h2v1l1,1 2,1 7,5 3,3v1h-2l-1,1 -2,1v2v1v1v1v1h-2h-1l3,4 10,7 2,2 -25,42 -17,-10v-2l-80,-47 19,-11Z"/>
    <path data-geo-id="2501771025" data-name="Tyngsborough" d="M1948,356l45,-17 -10,-47 80,3 2,45 -10,17 -35,-6 -70,46Z"/>
    <path data-geo-id="2501773440" data-name="Watertown Town" d="M2206,709l22,-25 36,13h10v12l-1,2 -4,4h-1l-7,1h-3h-5h-2l-45,-7Z"/>
    <path data-geo-id="2501773790" data-name="Wayland" d="M2046,711v-2l4,-9 23,-22 -5,-27 30,21 5,81 -32,19 -13,2 -17,-33Z"/>
    <path data-geo-id="2501780230" data-name="Wilmington" d="M2208,454l3,-3v-2v2l17,10 25,-42 1,-5 4,-5v-9l1,-1 4,-1 5,2 1,4v2l2,3 3,4 5,4v58v1l2,28 -32,18 -33,-35Z"/>
    <path data-geo-id="2501761380" data-name="Sherborn" d="M2020,869v-23l26,-19 55,30v1l2,2v2v12v1v1h-2l-3,6 -2,1 -1,2 -2,1 -2,5v1l4,4v1v2h-2h-2l-5,-2 -3,10v1l5,3 2,5 -19,6 -18,5Z"/>
    <path data-geo-id="2501761590" data-name="Shirley" d="M1782,487l2,-7v-5v-12l3,-4v-5l3,-24v-2v-5l2,-3 2,-16 3,-30 30,40 18,28 -10,34 -8,8 -7,9 -3,11 3,9 -6,-2 -7,-1h-2l-1,-2h-4h-6l-10,-2 -4,-1Z"/>
    <path data-geo-id="2502308085" data-name="Bridgewater" d="M2361,1186l68,-35 57,4 6,13 2,-1 -2,1 2,-1 10,1 -8,38 -20,7 -12,33 -35,-7 -17,13h-1l-20,-21 -20,-16 -5,-4Z"/>
    <path data-geo-id="2502309000" data-name="Brockton" d="M2336,1045l3,-2 13,-7 25,-13 2,-1 2,-1 1,-1 2,-1 2,-1 3,-1 8,-6 2,-1h2l6,-4 22,16 3,32v21l-10,31 -33,6 -3,-16 -40,7 -2,-7v-2l-3,-13v-4l-7,-32Z"/>
    <path data-geo-id="2502311665" data-name="Carver" d="M2567,1253l68,-26 5,19 68,108 -31,36 -2,19 -21,1 -29,-30 -8,-7v-2l-33,-99Z"/>
    <path data-geo-id="2502330210" data-name="Hingham" d="M2529,834l16,6 5,-2v2l-1,6 -2,4 2,1 -2,2v1l3,2 -5,6 -1,2 1,7 2,3 2,2 1,9 5,12 7,9 3,5h2l-10,7 -47,31 -31,18v-7l2,-12v-3v-1v-3v-2l1,-3 2,-28v-2v-3l2,-1v-3v-2v-3v-2l1,-7v-1l-1,-2 -2,1 -2,-1 -1,1 -2,-5 -7,-23 57,-24Z"/>
    <path data-geo-id="2502333920" data-name="Lakeville" d="M2379,1393l3,-3 20,-21 2,-3 2,-1v-1l10,-8 3,-3 15,-33 -2,-5 -1,-2v-3l-2,-4v-1v-1l-2,-8 -3,-11 -2,-3 4,-1 63,35 -2,31 23,29 -1,44 -23,4 -59,10 -38,6 7,-18 1,-2 2,-5 -3,-2Z"/>
    <path data-geo-id="2502354310" data-name="Plymouth" d="M2695,1182l2,1 33,37 43,14 20,-12 45,30 -7,13 22,70 -15,34 3,27 -6,8v1l-2,1 -5,7 -5,6 -1,2 -2,1 -7,6 -10,3h-1l-9,5 -1,1 -2,1h-3l-5,3 -12,7 -2,1 -1,1 -2,1 -3,1h-2v2h-2l-3,3 13,-54 -93,6 2,-19 31,-36 -68,-108Z"/>
    <path data-geo-id="2502360330" data-name="Scituate" d="M2557,918l10,-7h2l3,-2 2,-1 6,-5v-1l9,-6 10,-9 1,-1 4,-1v-4l1,1 2,-1 -2,-2v-1v-2h-1v-4v-1l1,-2h2l2,-1v-6h-2l12,-16 18,36 28,20 7,50 -18,8 -17,-3 -23,-24 -57,-15Z"/>
    <path data-geo-id="2502354415" data-name="Plympton" d="M2589,1147l6,-2 12,44 28,38 -68,26 -27,-34 35,-37Z"/>
    <path data-geo-id="2501147835" data-name="Northfield" d="M1012,254l55,3 41,2 32,108 -80,23 -25,20 2,-35 21,-27 -28,-31Z"/>
    <path data-geo-id="2501129475" data-name="Hawley" d="M601,407l7,-28 1,-5 112,24 -15,64 -27,22 -11,-1v-2l-15,-2 -9,-3h-3l-22,-5h-1l-19,-5 -10,-1Z"/>
    <path data-geo-id="2500701585" data-name="Aquinnah" d="M2622,1997l-17,21 -5,-2 -33,-39 30,-12 23,32Z"/>
    <path data-geo-id="2501531785" data-name="Huntington" d="M643,860l6,-7 4,-5 15,-18 3,-1v-3v-17l-3,-26v-25v-7v-8v-8l59,3 4,102v15h-2l-22,3 -8,1 -15,10 -3,12 -5,9 -10,-11 -2,-1 -11,-9 -10,-7 -2,-1Z"/>
    <path data-geo-id="2502300170" data-name="Abington" d="M2426,995l13,-7 17,-9 8,-4v1l23,63 -55,15 -3,-32 -22,-16Z"/>
    <path data-geo-id="2502317895" data-name="Duxbury" d="M2642,1041l61,48 32,-18v1l30,58 8,13h-6v-2l-32,-40 -57,55v3l-18,-20 -36,-5 -12,-30Z"/>
    <path data-geo-id="2502318455" data-name="East Bridgewater" d="M2432,1075l24,13 40,-2 9,53 -1,29 -10,-1 -2,1 2,-1 -2,1 -6,-13 -57,-4 -7,-45Z"/>
    <path data-geo-id="2501504825" data-name="Belchertown" d="M1048,725l59,-9 3,27 47,-4 1,1v1v1v1l2,2v1l2,2 -2,1v1v1v2v1l-2,1 2,2 -2,1h2v2h-2v1v1v1v1v2h-1v1v2v1v1v2l-2,1v2v1l-2,1h-1v3l1,1v1h2v1v1h2l21,40 -5,65v1v1h-2h-1h-2l-1,1v1l-2,1v1v1v2v1v2l-2,1h-1v1h-2v2l-2,1 -1,-1v-2h-2h-2v3l-1,1 -2,1v-1h-2l2,-1 -2,-1 -1,1v2v1v1h1v3v2v1v1h2l2,2v1v1h-2v1v4l2,1h1l-3,1h-3l-14,2 -15,2 -6,-50v-1v-6l-2,-1 -17,1 -3,2 -17,3h-3l-13,-103Z"/>
    <path data-geo-id="2501519370" data-name="Easthampton Town" d="M804,807l60,-9 51,2 4,6 -4,1v1l-16,12 -22,58 -10,3 -28,-42 1,-12 -36,-11Z"/>
    <path data-geo-id="2501527690" data-name="Hadley" d="M900,724l42,-3 -2,-52 10,-33 2,-1 7,-1h3l3,-1h4l5,-1 10,-1 11,31 -10,103 5,18 -48,5 -20,19 -3,-1 -4,-6 20,-29 9,-16Z"/>
    <path data-geo-id="2501572880" data-name="Ware" d="M1157,785v-1l1,-1 2,-1v3h2v-1v-2l-2,-1v-1h2l-2,-2 2,-1v1h1h2l2,-1v-1l1,-2v-1l2,-1 1,1 2,-1h2v-2v-1l1,-1v-1l4,-1 1,1v1v-1l2,-2v-2l-2,-3v-2h2h2l-2,-2v-1l2,-1v-1l1,-2v-2v-1l4,-3v-2l1,-2h2l2,-1v-2v-2h1h2l2,-1v1l1,-1v-1v-1h2h2v-1l1,-1v-1h2l2,-1h1v-1l2,-1h2v-1l1,1v-1h2l5,3 2,16 1,10 2,15 8,15 7,-1 15,-1 5,-1 7,-1 18,-4h2l-2,3v2v2v3v2l-3,4v3v3h1h2h2l1,1 5,2 -6,9 -2,2v10v6l-3,-2h-2v4l2,10v4v1h1l4,1v4v1v3v2l-4,-2h-1l-5,5 -10,1 -14,1 -3,5 -13,12 -5,-4v-6h-2v2h-2l-3,3 -17,2 -16,7 -20,7h-2v1v-1l5,-65Z"/>
    <path data-geo-id="2501579915" data-name="Williamsburg" d="M772,660l2,-54 12,-2 8,-1h2l13,-2 8,-1 12,-2 10,-1 -2,27 -2,29h17l8,-1 4,-1h5l-5,47 -63,11 -35,5Z"/>
    <path data-geo-id="2502327795" data-name="Halifax" d="M2504,1168l1,-29 2,-9 57,8 25,9 -14,35 -35,37 -44,-13Z"/>
    <path data-geo-id="2502331645" data-name="Hull" d="M2567,832h-2h-1h-4h-1l-2,1v1l-2,3v1h-1h-2h-2l-5,2 -16,-6h1l-21,-53 31,44Z"/>
    <path data-geo-id="2502338540" data-name="Marion" d="M2599,1524l20,-64v22l26,7 2,1 35,36 -17,3 13,36 -43,-46 17,51 -20,-9v4l-37,-12Z"/>
    <path data-geo-id="2502352630" data-name="Pembroke" d="M2555,1044l35,-21 25,-6 27,24 -30,63 12,30 -29,11 -6,2 -25,-9 -12,-32Z"/>
    <path data-geo-id="2502339450" data-name="Mattapoisett" d="M2539,1536l21,-1 39,-11 -4,29 37,12v1l8,30 -61,-4 20,31 -37,4 -2,-1 -15,-65v-4Z"/>
    <path data-geo-id="2502357775" data-name="Rockland" d="M2464,975l15,-8 31,-18 5,23 -13,4 12,77 -14,3 -13,-17 -23,-63Z"/>
    <path data-geo-id="2502333220" data-name="Kingston" d="M2624,1134l36,5 18,20 12,18 5,5 -55,64 -5,-19 -28,-38 -12,-44Z"/>
    <path data-geo-id="2500523000" data-name="Fall River" d="M2303,1459h1l2,-1 98,23 -2,43 -60,31 -36,-4 -20,109 -2,-1v-1l-1,-12v-1l3,-14 2,-4 1,-12v-3v-1v-23h-1l-2,-1h-2h-1l-2,-1h-2l-3,-2h-2h-1h-2h-2l-3,-1 -3,-1 -4,-1h-3l-2,-1h-3l-2,-1v-3v-1h-1l-4,-1h-1l-2,-1h-2l-1,-1h-2l-3,-1h-2l57,-78 13,-34Z"/>
    <path data-geo-id="2500569170" data-name="Taunton" d="M2231,1276l42,-42 45,-61 11,3 7,42 -12,23 45,65 50,-3 -2,-22 2,1 2,-1 1,1 2,3 3,11 2,8v1v1l2,4v3l1,2 2,5 -15,33 -3,3 -10,8v1l-65,-41 -30,23 -20,-20 -53,-11Z"/>
    <path data-geo-id="2500577570" data-name="Westport" d="M2286,1660l20,-109 36,4 37,72 -7,54 15,30 7,72v1l-25,-10 -7,-59 -15,54 -34,-39 16,53 -26,7v-9v-1v-1v-1v-4l-2,-1v-8v-4l-3,-36 -2,-4v-1v-3v-7v-3l-2,-10v-7l-3,-17 -5,-12Z"/>
    <path data-geo-id="2501731085" data-name="Hopkinton" d="M1853,885l20,-45 5,-2 2,-1h2l16,-3h2l8,4h2l15,-4 52,44 6,19 -40,31 -1,2 -14,1 -33,8v-2v-1l-2,-1v-1l2,-2 -3,-4 -14,-1 2,-2Z"/>
    <path data-geo-id="2501745560" data-name="Newton" d="M2166,725l40,-16 45,7h2l-4,3v1v1l-1,2 -2,2v1v2l5,10 2,3 -2,2 12,11 -5,4h-2l-2,3 -3,2v1l-2,1 -1,3 -2,1v1l-2,1 -1,2 8,8 3,4 -1,4 -4,2 -15,17 -3,4v-3l-2,-2 -11,-2v-1v-5l-2,-3v-1h-2l-3,-5 2,-2v-1l-2,-3v-1h-2h-1h-4l-5,-1 -1,-4v-5v-1l-2,-2v-1v1v-1h2l-40,-12Z"/>
    <path data-geo-id="2501738715" data-name="Marlborough" d="M1830,730v-1l13,-8 4,-5 3,-7 118,-18 -6,35 -4,29 -3,1 -8,1 -9,1 -3,-1 -5,-2h-2h-1v1h-4l-6,1h-2l-3,1h-7l-23,9 -2,1 -13,10 -5,-7 -2,-1 -3,-2v-1l-2,-3 -2,-3 -3,-4 -2,-2 2,-6 -3,-4h-2v-2h-2l-5,-3h-1v-1l-2,-1 -2,-2 -1,-3v-1l-2,-1Z"/>
    <path data-geo-id="2501700380" data-name="Acton" d="M1947,588l23,-45 41,-36 27,-7 13,37 -41,85 -32,-18Z"/>
    <path data-geo-id="2501703005" data-name="Ayer" d="M1835,476l10,-34 90,14 -27,33 -11,-2 -5,-1 -2,-2 -12,-3 -6,-1 -9,6 -3,3h-2l-6,-2h-4l-3,-1 -2,-2 -3,-1 -2,-3 -3,-4Z"/>
    <path data-geo-id="2501701955" data-name="Ashby" d="M1694,282l-4,81v1v5v3l-74,4v-4v-11l1,-9v-10v-8l-6,-15 -2,-4v-1l-7,-3 -1,-1v-1l-2,-1 -13,-14 -7,-15 103,3Z"/>
    <path data-geo-id="2501702130" data-name="Ashland" d="M1925,834h15v-8l3,-9 5,-12 72,41v23l-43,9Z"/>
    <path data-geo-id="2501701605" data-name="Arlington" d="M2238,621l30,1 16,25 -1,13 -17,6 -47,-19Z"/>
    <path data-geo-id="2502709105" data-name="Brookfield" d="M1348,939l33,-71 35,8 12,37 -12,42 -13,19 -44,-10h-5l-1,1Z"/>
    <path data-geo-id="2501501325" data-name="Amherst" d="M984,631l3,-1 8,-1v-1l13,-1 5,-1 12,-2 7,-1h1l2,6v4l2,11 1,10 10,71 9,53 -60,9 -7,-4 -5,-18 10,-103Z"/>
    <path data-geo-id="2502507000" data-name="Boston" d="M2231,812l3,-4 15,-17 4,-2 1,-4h2l2,2 5,8 3,2v1l3,-2h2v-1l2,-2 1,-2 2,-1 2,-2 5,-10 1,-2 2,-3 3,-5 4,-4 5,-2 1,-1v-3l2,-1v-1l2,-6 1,-2v-2v-3v-3l5,-5v-1l-1,-1v-1v-1v-1v-1v-1h-2l-7,-1h-1l-4,-1 -1,1 -2,1 -3,2 -2,1 -5,4 -2,1 -1,2 -2,3h-3l-2,1 2,1h-2l-2,2v1l-6,8 -12,-11 2,-2 -2,-3 -5,-10v-2v-1l2,-2 1,-2v-1v-1l4,-3h5h3l7,-1h1l4,-4 1,-2 7,-2 18,13 4,4h16l13,-5 2,-1 7,-11v-1l1,-1h4l51,38 -33,20 7,49v1l-2,2 -2,4 -6,-1h-2l-3,2 1,5 -6,6 -2,-1 -2,-3v-1h-1l-5,1h-2h-5l-3,2h-2l-6,3 -7,6v1l-5,1 -8,2 1,2 2,2v4l2,5 -2,1v1h-2l-1,1v1l-2,1 -5,2 -2,10 -1,3 -2,1 -3,3v2h-2v-2l-5,-4v-1l-2,-1h-1v-2h-2v-2v-1v-2l-2,-4v-6v-2l-1,-3v-1v-1v-2l-4,-2v-1l-5,2 -5,-1v-1h-1l-2,-2v-1l-2,-1 -1,-1v-1l-4,-4 -3,-4 -8,-10 -2,-4h-2l-1,-1 -2,-1v-1ZM2377,685l17,-16 25,11 -8,8 -7,4 2,1 -2,16h2l11,3 2,4v2l-17,14 -33,-23 8,-23Z"/>
    <path data-geo-id="2502513205" data-name="Chelsea" d="M2359,674v-1l-2,-1v-3h2h2h1l2,-2 3,-2 2,-1v-2l2,-2v-3l1,-1v-2l2,-4 2,-3 10,11 8,11 -17,16v-2l-5,-2h-1h-2Z"/>
    <path data-geo-id="2502745105" data-name="New Braintree" d="M1371,712l10,9 65,60 -70,7 -17,27 -31,-20 -38,4h-2h-2l27,-14 23,-47Z"/>
    <path data-geo-id="2502746925" data-name="Northbridge" d="M1769,963l46,-3 45,55v1v9l-53,23 -27,-11 -25,4 14,-24Z"/>
    <path data-geo-id="2500304545" data-name="Becket" d="M413,798v-22l2,-33 88,-10 6,18 4,3 3,3 3,1 5,3v1l2,4 7,6h5h3l2,1h1l2,-3 3,5 4,3 1,-1 5,-6v-2l2,-1 -2,52v7v2v16l-5,5 -1,10 -27,2 -51,2 -25,-11 -39,-6Z"/>
    <path data-geo-id="2500334655" data-name="Lee" d="M297,750l39,-4 5,-32 4,-15 40,59 28,18v22l-62,9 -16,26 -42,-1Z"/>
    <path data-geo-id="2500360225" data-name="Savoy" d="M490,415l14,1 5,-70 44,4 16,18 44,-10 -4,16 -1,5 -7,28 -12,58 -3,16 -2,2h2h-2l-96,-24Z"/>
    <path data-geo-id="2500371095" data-name="Tyringham" d="M335,833l16,-26 62,-9 -2,49 -3,63 -86,-57Z"/>
    <path data-geo-id="2500300555" data-name="Adams" d="M406,409l2,-38 5,-39 96,8v6l-5,70 -14,-1Z"/>
    <path data-geo-id="2500313345" data-name="Cheshire" d="M381,432l-1,-33 26,10 84,6 -2,44 -22,29 -36,-8 -17,38 -32,-11 12,-23 -22,-6Z"/>
    <path data-geo-id="2502761800" data-name="Shrewsbury" d="M1702,776l67,-19 3,4 17,58 -5,33 -52,14 -15,-5 -20,-83Z"/>
    <path data-geo-id="2502763345" data-name="Southbridge Town" d="M1391,1130l40,-67 3,1 10,-37 37,19 10,30 -2,57h-5h-6h-4h-3h-8h-5l-7,-1h-5h-2h-10h-6h-7h-5h-2l-10,-1h-5h-5Z"/>
    <path data-geo-id="2502758580" data-name="Royalston" d="M1291,268l93,2 -8,114 -18,3h-14l-11,-29 -53,10 -2,-6 -15,-22 -13,-8 -14,-9 -5,-29 -3,-16 -2,-13 57,3Z"/>
    <path data-geo-id="2502755395" data-name="Princeton" d="M1517,609l42,-34v-22l8,9 50,-44 14,6 11,29 7,51 -8,24 -54,46Z"/>
    <path data-geo-id="2500314010" data-name="Clarksburg" d="M416,268l4,-40h10h26h7l25,3h16h2l7,1h6h5l-10,42Z"/>
    <path data-geo-id="2500316180" data-name="Dalton" d="M376,639l20,-89 17,-32 17,-38 36,8 -6,60 -10,44 -30,-2 -12,50Z"/>
    <path data-geo-id="2501526535" data-name="Granby" d="M997,787l60,-9 13,103 -15,2 -12,2h-3l-17,3h-3h-3l-9,2 -8,1 -11,1 -5,1h-5l-10,-80Z"/>
    <path data-geo-id="2502768155" data-name="Sturbridge" d="M1358,1128v-29v-13v-28v-5v-1v-9v-3v-8v-2v-3v-2v-8l1,-26v-8v-4v-13v-2l44,10 13,-19 38,-6 7,41 -22,8 5,29 -10,37 -3,-1 -40,67h-3h-4h-3l-8,-1h-5l-7,-1h-3Z"/>
    <path data-geo-id="2502768610" data-name="Sutton" d="M1642,986l95,-58 7,23 25,12v54l-14,24 25,-4 -16,11 -67,17 -27,-22Z"/>
    <path data-geo-id="2500324120" data-name="Florida" d="M509,340l5,-66 10,-42 15,1h10l-1,2v2v13v31h1l22,1h10h5l25,-3h2h1l2,2 -2,1v2l-1,1v4v1v5l-9,4h-3l-7,-1 -5,7v3v3h-6l-4,1h-1l1,4v1h-1h-2l25,13 8,12 4,16 -44,10 -16,-18 -44,-4Z"/>
    <path data-geo-id="2500321360" data-name="Egremont" d="M134,879l43,7 3,64 18,2 -16,35 -22,13 -6,2 -42,-45v-2Z"/>
    <path data-geo-id="2500328180" data-name="Hancock" d="M228,558l14,-44 5,-15 38,-131v-4l42,1 -12,52 15,3 -52,103 -26,108 -42,-10 2,-1 13,-53Z"/>
    <path data-geo-id="2500326815" data-name="Great Barrington" d="M188,829h35l70,3 42,1 -13,20 -30,50v36l-9,16 -85,-3 -18,-2 -3,-64 15,-15Z"/>
    <path data-geo-id="2500330315" data-name="Hinsdale" d="M460,548l43,10 -25,119 -43,-11 3,-24 -30,-2 12,-50 30,2Z"/>
    <path data-geo-id="2500778235" data-name="West Tisbury" d="M2738,1834l39,58 8,79 -20,2 -8,1 -14,1 -30,-30 -28,-47h2l8,-29 27,-9 15,-26Z"/>
    <path data-geo-id="2500750390" data-name="Oak Bluffs" d="M2790,1871v-3l32,-48 18,66 -2,2 -18,-3 -43,7 -4,-36Z"/>
    <path data-geo-id="2502773090" data-name="Warren" d="M1240,920v-3v-2l3,-5 3,-4 17,-23 15,-21 2,-2 5,-5h1l4,2v-2v-3h26l32,87 5,26 -5,1h-4l-14,4 -9,1 -8,1 -8,2 -10,-11 -5,-3 -27,-14 -5,-1 -3,-1 -2,-1 -5,-4 -8,-3v-2v-1v-1v-2l1,-1v-2l-1,-2Z"/>
    <path data-geo-id="2502775400" data-name="West Brookfield" d="M1283,827h2l3,2v-6v-10l2,-2 6,-9 -5,-2 -1,-1 38,-4 31,20 22,53 -33,71 -32,-87h-26v-1v-4l-4,-1h-1v-1v-4l-2,-10Z"/>
    <path data-geo-id="2502777010" data-name="Westminster" d="M1552,416l64,-34 -5,106 23,1 -3,35 -14,-6 -50,44 -8,-9 -55,-52 18,-17Z"/>
    <path data-geo-id="2500713800" data-name="Chilmark" d="M2605,2018l17,-21h5l8,-31 48,-64 2,-4 28,47 30,30 -13,1 -71,17 -30,42 -14,-10Z"/>
    <path data-geo-id="2500721150" data-name="Edgartown" d="M2777,1892l43,-7 61,33 5,52 30,-1 -33,-23 32,-36 18,12 -7,49 -126,-1 -15,1Z"/>
    <path data-geo-id="2500345420" data-name="New Marlborough" d="M283,955l9,-16 38,5 21,26 34,-7 11,138 -20,-2h-8h-3h-4h-8l-12,-1h-5l-11,-1h-7l-16,-1 -10,-1h-2h-7l-3,-1 -3,-74 11,-18Z"/>
    <path data-geo-id="2500343300" data-name="Mount Washington" d="M112,957l42,45 6,-2 9,22 -17,66h-2h-28h-7h-5h-6h-5h-4l-1,-10 -4,-15v-1l-3,-19 25,-86Z"/>
    <path data-geo-id="2500342460" data-name="Monterey" d="M322,853l86,57v23l-23,30 -34,7 -21,-26 -38,-5v-36Z"/>
    <path data-geo-id="2500346225" data-name="North Adams" d="M416,268l98,6 -5,66 -96,-8Z"/>
    <path data-geo-id="2502702480" data-name="Athol" d="M1231,446h2v-1v-3h2v2v2l1,1 2,-1v-1h2l3,2 2,-5v-1l-5,-25h1h4l1,-1 2,-3 2,-2h3l-2,-7 4,-1 8,-2h2h1l2,-1v1h2h1h2v-1h2h1v-1v-1v-1v-1v-5l-3,-4v-1l3,-1 2,-2v-2v-3v-1v-2v-2h-2l4,-4 53,-10 11,29 -8,37 -13,5 -8,50 -55,45 -7,-8 -10,-10 -7,-23 -1,-9v-5l-2,-5v-2v-3l-2,-5Z"/>
    <path data-geo-id="2502717685" data-name="Dudley" d="M1491,1076l76,-23 25,19 -1,64h-4h-3l-27,-1h-16h-2l-7,-1h-5h-1h-2h-3h-4h-3l-5,-1h-8h-7h-5Z"/>
    <path data-geo-id="2500353050" data-name="Peru" d="M503,558l73,18 -5,22 -2,9 -5,23v2l-3,15h-2l-1,11 -2,8v1l-2,7 -1,10 -9,-3 -21,-4 -10,-3 -13,7 -22,-4Z"/>
    <path data-geo-id="2500353960" data-name="Pittsfield" d="M252,631l26,-108 118,27 -20,89 -18,15 -66,-14Z"/>
    <path data-geo-id="2500356795" data-name="Richmond" d="M192,678l3,-2 15,-54v-1l42,10 40,9 -37,52 2,22h-10l-65,-1v-1Z"/>
    <path data-geo-id="2500361065" data-name="Sheffield" d="M152,1088l17,-66 -9,-22 22,-13 16,-35 85,3 5,47 -11,18 3,74h-12l-5,-1h-10h-1l-7,-1h-3h-2h-5l-10,-1h-15h-2l-16,-1 -12,-1h-5h-2l-13,-1h-1h-4Z"/>
    <path data-geo-id="2502763165" data-name="Southborough" d="M1867,778l13,-10 2,-1 23,-9h7l3,-1h2l6,-1h4v-1h1h2l5,2 3,1 9,-1 8,-1 3,-1 2,11v5l-2,4v6l-1,4 -5,12 -4,8 -5,12 -3,9v8h-15l-15,4h-2l-8,-4 -28,-49Z"/>
    <path data-geo-id="2502730560" data-name="Holden" d="M1587,674l54,-46 10,34 16,92 -68,55 -15,-11 -25,-66 -10,-24Z"/>
    <path data-geo-id="2502775015" data-name="Westborough" d="M1789,819l33,-26 50,-8 28,49h-2l-16,3h-2l-2,1 -5,2 -20,45h-41l-3,-27 -25,-6Z"/>
    <path data-geo-id="2502782000" data-name="Worcester" d="M1591,816l8,-7 68,-55 13,-13 17,37 20,83 15,5 -3,3 -57,35 -13,-26 -42,6Z"/>
    <path data-geo-id="2502771480" data-name="Upton" d="M1812,885h41l27,40 -2,2 14,1 3,4 -2,2v1l2,1v1v2l-5,31 -10,18 -20,27v1v-1l-45,-55Z"/>
    <path data-geo-id="2500377990" data-name="West Stockbridge" d="M182,713l65,1 -24,41v74h-35l4,-17 -28,-31 18,-67Z"/>
    <path data-geo-id="2500373335" data-name="Washington" d="M358,654l18,-15 32,1 30,2 -3,24 43,11 22,4v7l1,19v2v3v6v2l2,13 -88,10 -2,33 -28,-18 -40,-59Z"/>
    <path data-geo-id="2500367595" data-name="Stockbridge" d="M247,714h10h40v36l-4,82 -70,-3v-74Z"/>
    <path data-geo-id="2500380685" data-name="Windsor" d="M466,488l22,-29 96,24h2l2,1h1h2h2h1l-3,17 -3,23 -4,11v2v1l-1,4v4v2l-7,28 -73,-18 -43,-10Z"/>
    <path data-geo-id="2502769275" data-name="Templeton" d="M1358,387l18,-3 42,3 25,28 3,30 38,39 -76,64 -9,-47 -31,-53 -4,-48 -6,-13Z"/>
    <path data-geo-id="2501179110" data-name="Whately" d="M835,653l2,-29 2,-27 41,-7v-14l65,5 5,55h-1v-1h-4l-11,3 -2,1 -5,1h-5l-8,4h-2l-5,1h-2l-30,4 -6,1v1h-5l-4,1 -8,1Z"/>
    <path data-geo-id="2501161905" data-name="Shutesbury" d="M1033,623l35,-6 12,-89 67,10 -2,47h-13l8,54 -63,10 -15,3h-5l-2,1 -17,1 -1,-10 -2,-11v-4Z"/>
    <path data-geo-id="2501102095" data-name="Ashfield" d="M706,462l60,-9 35,4 11,2 -30,124 -58,-17 -5,-1 -7,-1 -6,-2 -2,-2h-7l-13,-5 -3,-17v-13v-21l-2,-8v-12Z"/>
    <path data-geo-id="2502117405" data-name="Dover" d="M2091,891l2,-5 2,-1 1,-2 2,-1 3,-6h2v-1v-1v-12v-2l-2,-2v-1v-1h27l-5,-29 12,-2v1l-4,3 4,5 58,10 -17,69 -16,2 -2,-18h-63v-1l-4,-4Z"/>
    <path data-geo-id="2502139975" data-name="Medway" d="M1967,1002v-18v-9v-3l48,-29h1v1v1v-1h2h2h5h3h7l1,-1v1l25,53 -5,3 -36,-5 -20,3Z"/>
    <path data-geo-id="2502178690" data-name="Westwood" d="M2176,913l17,-69 1,-2 79,62 -9,14 -40,-19 -36,39Z"/>
    <path data-geo-id="2502102935" data-name="Avon" d="M2356,973l20,22 13,22 -3,1 -2,1 -2,1 -1,1 -2,1 -2,1 -25,13 -10,-36Z"/>
    <path data-geo-id="2502154100" data-name="Plainville" d="M2056,1165v-22l85,-33 2,38v1l-13,7 -5,2 -2,1 -5,2 -10,5v1l-3,1 -7,3v1l-12,5 -5,3 -8,4h-2l-8,1h-3h-4v-11v-7v-1Z"/>
    <path data-geo-id="2502130455" data-name="Holbrook" d="M2376,995l13,-42h42l-5,42 -19,11 -6,4h-2l-2,1 -8,6Z"/>
    <path data-geo-id="2502178972" data-name="Weymouth Town" d="M2431,953l6,-86 5,-11 2,4 28,-5 7,23 2,5 1,-1 2,1 2,-1 1,2v1l-1,7v2v3v2v3l-2,1v3v2l-2,28 -1,3v2v3v1v3l-2,12v7l-15,8 -8,4 -17,9 -13,7Z"/>
    <path data-geo-id="2502160785" data-name="Sharon" d="M2229,979l15,-19 27,32 17,38 -7,44 -5,3 -23,12 -9,5 -56,-61 6,-32Z"/>
    <path data-geo-id="2502182315" data-name="Wrentham" d="M1988,1123l63,-9 25,-60 70,10 -5,46 -85,33h-1h-2h-2h-3h-2h-1h-2h-3h-4h-6h-4h-1h-4h-3h-2l-13,1h-2h-6h-2h-3h-5Z"/>
    <path data-geo-id="2501319645" data-name="East Longmeadow" d="M1047,1052l1,7 10,63h-1h-9l-28,-1h-8h-9h-1h-5h-3h-4l-3,-37 -3,-22Z"/>
    <path data-geo-id="2500905595" data-name="Beverly" d="M2476,424h79l24,9 15,20v6v-1l-79,33 -28,-11 -1,-1Z"/>
    <path data-geo-id="2500901260" data-name="Amesbury Town" d="M2404,86l5,-1 10,-4 5,-1 18,-6 4,-3 1,-2 9,-3 11,-7h2l10,-2 10,65 -17,-8 -16,24h-25l-34,-51h4Z"/>
    <path data-geo-id="2500929405" data-name="Haverhill" d="M2298,145l44,13 4,-7 3,-13 2,-8 1,-6 50,29 -18,33 -20,37 -15,27 -46,-3 -7,-7 -13,-26 -49,-39 47,-35Z"/>
    <path data-geo-id="2500925625" data-name="Georgetown" d="M2439,224l33,21 -48,52 -43,-8 -7,-20 18,-21Z"/>
    <path data-geo-id="2500946365" data-name="North Andover" d="M2271,292v1v-1v1l8,-28 17,-25 7,7 59,73 20,44 -28,17 -3,24 -7,2 -10,4 -55,-90 -3,-13v-1v1v-1v-8Z"/>
    <path data-geo-id="2500957880" data-name="Rockport" d="M2733,303v-1h19l-2,35h23l2,33 -22,7v2l-23,-10Z"/>
    <path data-geo-id="2500940430" data-name="Merrimac" d="M2356,116l1,-5 4,-6 3,-3 8,-9 4,-1 5,-1 6,-3 10,-1 34,51 -29,15 -50,-29Z"/>
    <path data-geo-id="2500952490" data-name="Peabody" d="M2372,459l30,2 82,27 -5,26 -28,32 -34,-21 -18,-14 -27,-52Z"/>
    <path data-geo-id="2500968645" data-name="Swampscott" d="M2466,551l33,7 18,8 -2,1 -13,22 -25,-8Z"/>
    <path data-geo-id="2500974595" data-name="Wenham" d="M2467,400l12,-14 96,36 4,11 -24,-9h-79Z"/>
    <path data-geo-id="2500959245" data-name="Salisbury" d="M2479,57h12h1l25,14h2v2h1l2,1 5,5 7,3 5,6 11,-6 10,-7h2l10,62 -45,9 -25,-14 -13,-10Z"/>
    <path data-geo-id="2501300840" data-name="Agawam Town" d="M829,1061l11,-31 30,26 7,-16 50,15 12,-9 -2,26 -18,52h-4h-3h-2l-16,-1 -4,-1h-3l-18,-2 -10,-2h-7l-5,-1 -7,-1h-1h-2h-2h-6h-7h-1Z"/>
    <path data-geo-id="2502746820" data-name="Northborough" d="M1772,761l12,-49 46,17v1v1l2,1v1l1,3 2,2 2,1v1h1l5,3h2v2h2l3,4 -2,6 2,2 3,4 2,3 2,3v1l3,2 2,1 5,7 5,7 -50,8 -33,26Z"/>
    <path data-geo-id="2502701885" data-name="Ashburnham" d="M1499,380l2,-103h3l75,2 7,15 13,14 2,1v1l1,1 7,3v1l2,4 6,15v8v10l-1,9v11v4v6l-64,34Z"/>
    <path data-geo-id="2502702760" data-name="Auburn" d="M1581,927l36,-43 42,-6 13,26 -33,58 -23,4Z"/>
    <path data-geo-id="2502706015" data-name="Blackstone" d="M1887,1087l61,-1v1v8v6v2v24v1v-1v1v3v13v1h-3h-3l-5,2h-2h-2l-3,1h-2h-1h-4l-3,1h-5h-3h-2h-3h-2h-2h-6l-9,1Z"/>
    <path data-geo-id="2502706365" data-name="Bolton" d="M1800,629l20,-56 80,35 -5,24 -2,7 -1,13 -4,1 -3,1 -13,3 -22,14 -53,-26Z"/>
    <path data-geo-id="2502714395" data-name="Clinton" d="M1737,680l7,-26 28,-32 28,7 -3,16 -17,36Z"/>
    <path data-geo-id="2502707525" data-name="Boylston" d="M1722,684l15,-4 43,1 4,31 -12,49 -3,-4 -67,19 3,-71Z"/>
    <path data-geo-id="2502717300" data-name="Douglas" d="M1670,1043l27,22 67,-17 16,27 -1,78h-2l-17,1h-1h-2h-5h-2h-1h-4h-8l-13,1h-10h-4h-10h-3h-2l-6,1h-4h-5h-3l-8,-17 -3,-2h-2l-23,-86Z"/>
    <path data-geo-id="2502726430" data-name="Grafton" d="M1729,869l3,-3 52,-14 25,6 3,27 3,75 -46,3 -25,-12 -7,-23Z"/>
    <path data-geo-id="2502718560" data-name="East Brookfield" d="M1416,876l27,3 11,-19 12,77 -12,12 -38,6 12,-42Z"/>
    <path data-geo-id="2500560645" data-name="Seekonk" d="M2090,1386l5,-27 1,-8 -1,-38v-1v-3v-1l1,-6v-1v-2v-7l37,-5 8,160 -23,-2h-2l-3,-2 -7,-6 -1,-3 1,-4 -1,-2h-2l-3,-6h-2l-2,-1v-2l-1,-2v-1l1,-3v-9v-1v-2l-3,-5Z"/>
    <path data-geo-id="2500505280" data-name="Berkley" d="M2303,1385l8,-38 30,-23 65,41 -2,1 -2,3 -20,21 -3,3 -50,-1v11l3,6 -1,-2 -23,28Z"/>
    <path data-geo-id="2502731435" data-name="Hubbardston" d="M1391,560l17,-12 76,-64 20,17 55,52v22l-42,34 -39,31Z"/>
    <path data-geo-id="2502735075" data-name="Leominster" d="M1631,524l3,-35 70,-26 16,-12 39,50 -14,17 -10,57 -93,-22Z"/>
    <path data-geo-id="2502740255" data-name="Mendon" d="M1860,1015v1v-1l20,-27 47,54 20,-5 1,2h2v2v1v1v3l-2,3v1v1v14v21l-61,1h-25l-2,-62v-9Z"/>
    <path data-geo-id="2502737420" data-name="Lunenburg" d="M1690,363l4,1 8,4 17,6 18,8 15,6 8,2 7,2 27,12 -2,16 -2,3v5v2l-3,24v5l-3,4v12v5l-2,7 -2,18 -21,-4 -39,-50 -16,12 -10,-7 -4,-84v-3v-5Z"/>
    <path data-geo-id="2502741340" data-name="Millbury" d="M1639,962l33,-58 57,-35 8,59 -95,58Z"/>
    <path data-geo-id="2500522130" data-name="Fairhaven" d="M2494,1582l51,-21 15,65v-1l-15,6 2,1v2l2,1v1l1,3v2v4l4,4 1,1 5,16 -1,1 -4,5h-1v2l-2,1v5v2v1l-7,-13 -1,-2 -2,-3h2l-2,-4v-1v-3l-3,-7v-1v-2l-2,-1v-2v-1v-2v-2v-2v-1v-4v-1h-2v-2l-3,-2 -3,-2h-2v-1h-2l-1,-1h-2l-3,-3h1h-1v-1v1l-2,2v-2h-2h2v2v4h-2v1l-1,2 -23,-30Z"/>
    <path data-geo-id="2501330665" data-name="Holland" d="M1305,1051l53,1v1v5v28v13v29h-5h-2h-3h-2h-2h-8h-3h-3l-2,-1h-5h-12h-1h-7h-3Z"/>
    <path data-geo-id="2501546330" data-name="Northampton" d="M801,709l63,-11 30,-4 6,30 44,31 -9,16 -20,29 -51,-2 -60,9Z"/>
    <path data-geo-id="2501554030" data-name="Plainfield" d="M584,537v-2l4,-11 3,-23 3,-17h-1h-2h-2h-1l-2,-1h-2l2,-2 3,-16 10,1 19,5h1l22,5h3l9,3 15,2v2l11,1v12l2,8v21v13l3,17 -10,5Z"/>
    <path data-geo-id="2501564145" data-name="South Hadley" d="M907,869l7,-16 8,-14 8,-8v-4v-5v-6l-3,-4v-1l-2,-3 -3,-1 20,-19 48,-5 7,4 -28,26 10,80 -12,2 -8,1 -5,1h-4h-1h-4h-3l-5,2h-2h-1l-2,-2h-5l-2,-2 -6,-5 -4,-8 -5,-6Z"/>
    <path data-geo-id="2501582175" data-name="Worthington" d="M556,667v-1l2,-8 1,-11h2l3,-15v-2l5,-23 2,-9 103,22 -23,3 17,112v8l-7,2h-2v-11l-10,-1h-5h-3l-12,-1 -10,-1 -13,-1 -22,-61 -30,5Z"/>
    <path data-geo-id="2501562745" data-name="Southampton" d="M731,840l73,-11v-13l36,11 -1,12 28,42 -3,11 -9,2 -8,2 -2,3 2,12 2,6v5v9v2h-2l-8,-2h-2l-3,-1 -72,-19 -10,-21 -1,-23 -20,-11v-1Z"/>
    <path data-geo-id="2501576380" data-name="Westhampton" d="M766,714l35,-5 3,98v9v13l-73,11 -4,-102 -1,-18Z"/>
    <path data-geo-id="2502747135" data-name="North Brookfield" d="M1446,781l8,79 -11,19 -27,-3 -35,-8 -22,-53 17,-27Z"/>
    <path data-geo-id="2502734795" data-name="Leicester" d="M1521,815l70,1 26,68 -36,43 -20,2 -22,2Z"/>
    <path data-geo-id="2502758825" data-name="Rutland" d="M1453,662l25,-22 39,-31 70,65 -38,34 10,24 -68,36Z"/>
    <path data-geo-id="2502766105" data-name="Spencer" d="M1446,781l48,-3h20l7,37 18,116 -73,6 -12,-77Z"/>
    <path data-geo-id="2502750670" data-name="Oakham" d="M1381,721l72,-59 38,106 3,10 -48,3Z"/>
    <path data-geo-id="2502752420" data-name="Paxton" d="M1491,768l68,-36 25,66 15,11 -8,7 -70,-1 -7,-37h-20Z"/>
    <path data-geo-id="2502751825" data-name="Oxford" d="M1561,929l20,-2 35,39 23,-4 3,24 28,57 -29,8 -49,21 -25,-19 9,-27Z"/>
    <path data-geo-id="2501540990" data-name="Middlefield" d="M500,681l13,-7 10,3 21,4 9,3 1,-10 30,-5 22,61h-2l-15,13 -5,5 -1,1 -4,2 -5,6 -5,4 -3,3 -3,2v1l-2,1 -2,1v2l-5,6 -1,1 -4,-3 -3,-5 -2,3h-1l-2,-1h-3h-5l-7,-6 -2,-4v-1l-5,-3 -3,-1 -3,-3 -4,-3 -6,-18 -2,-13v-2v-6v-3v-2l-1,-19Z"/>
    <path data-geo-id="2502767385" data-name="Sterling" d="M1642,553l93,22 9,1v78l-7,26 -15,4 -20,-17 -51,-5 -10,-34 8,-24Z"/>
    <path data-geo-id="2502771620" data-name="Uxbridge" d="M1764,1048l16,-11 27,11 53,-23 2,62v63h-4l-6,1h-4h-1h-7h-3h-4h-1h-2h-1l-12,1h-5h-7h-1l-7,1h-3h-2h-3h-5h-2h-3l1,-78 -16,-27Z"/>
    <path data-geo-id="2502780405" data-name="Winchendon" d="M1384,270l94,6h8h5l10,1 -2,103 -56,35 -25,-28 -42,-3Z"/>
    <path data-geo-id="2501377890" data-name="West Springfield Town" d="M850,958l54,2 3,48 32,38 -12,9 -50,-15 -7,16 -30,-26Z"/>
    <path data-geo-id="2501306085" data-name="Blandford" d="M526,978v-2l2,-2 5,-24 1,-9 10,-44 4,-11 5,-26 1,-10 5,-5 82,16 2,1 10,7 11,9 2,1 10,11 -23,115 -79,-17 -48,-9Z"/>
    <path data-geo-id="2501313660" data-name="Chicopee" d="M935,899h2l5,-2h3h4h1h4l5,-1 8,-1 12,-2h5l5,-1 11,-1 7,72 -25,4 -75,41 -3,-48 3,-28Z"/>
    <path data-geo-id="2501328075" data-name="Hampden" d="M1048,1059l84,-23 11,88h-18l-5,-1h-2h-3h-18h-2l-13,-1h-2h-2h-1h-4h-1h-5h-7h-2Z"/>
    <path data-geo-id="2501326675" data-name="Granville" d="M574,988l79,17 39,12 15,16v82l-8,-1h-10l-5,-1h-10h-3h-5h-8h-7l-22,-1h-1h-4h-5h-6l-25,-1h-10h-2l8,-50Z"/>
    <path data-geo-id="2501313485" data-name="Chester" d="M559,829v-2v-7l2,-52 2,-1v-1l3,-2 3,-3 5,-4 5,-6 4,-2 1,-1 5,-5 15,-13h2l13,1 10,1 12,1h3h5l10,1v11h2l7,-2v8v7v25l3,26v17v3l-3,1 -15,18 -4,5 -6,7 -2,1 -82,-16Z"/>
    <path data-geo-id="2501330840" data-name="Holyoke" d="M847,896l8,-2 9,-2 3,-11 10,-3 22,-58 16,-12v-1l4,-1 3,1 3,1 2,3v1l3,4v6v5v4l-8,8 -8,14 -7,16 3,7 5,6 4,8 6,5 2,2h5l2,2h1l-28,33 -3,28 -54,-2 -1,-25v-2v-9v-5l-2,-6 -2,-12Z"/>
    <path data-geo-id="2501337175" data-name="Ludlow" d="M1000,891l8,-1 9,-2h3h3l17,-3h3l12,-2 15,-2h3l17,-3 3,-2 17,-1 2,1v6v1l6,50v1l-13,39 -70,-5 -28,-5Z"/>
    <path data-geo-id="2501342530" data-name="Montgomery" d="M681,881l3,-12 15,-10 8,-1 22,-3h2v1l20,11 1,23 10,21 -31,55 -49,-85h-1Z"/>
    <path data-geo-id="2501367000" data-name="Springfield" d="M907,1008l75,-41 25,-4 28,5 12,84 -63,10 3,22 -50,-12 2,-26Z"/>
    <path data-geo-id="2501704615" data-name="Bedford" d="M2113,539l10,-23 61,1 7,17 -8,20 -28,38 -15,-8 -30,-20Z"/>
    <path data-geo-id="2501715060" data-name="Concord" d="M2010,622l41,-85h2l60,2 -3,25 30,20 -24,14 -48,53Z"/>
    <path data-geo-id="2501707350" data-name="Boxborough" d="M1898,556v-1l7,-12 8,-18 2,-2 3,-5 52,25 -23,45 -42,-3Z"/>
    <path data-geo-id="2501709840" data-name="Burlington" d="M2191,534l25,-47 33,35v35l-31,27 -35,-30Z"/>
    <path data-geo-id="2501711525" data-name="Carlisle" d="M2038,500l10,-20 52,-14 23,50 -10,23 -60,-2h-2Z"/>
    <path data-geo-id="2500107175" data-name="Bourne" d="M2765,1477v-2v-2l-3,-1 -2,-1v-3v-2l-2,-4 -1,-3v-1l-2,-1 3,-3h2v-2h2l3,-1 2,-1 1,-1 2,-1 12,-7 5,-3h3l2,-1 1,-1 9,-5h1l10,-3 7,-6 2,-1 1,-2 5,-6 5,-7 2,-1v-1l6,-8 5,7 2,1v1l2,1v1l10,10 -24,147 -19,38 -49,-15 -1,-1 -29,-3 35,-19 -11,-84Z"/>
    <path data-geo-id="2500139100" data-name="Mashpee" d="M2843,1612l27,-49 11,7 19,-18 3,31 13,-6 9,32 -12,7h3v-1v1v-1v39v-1l5,29v4v1l-3,1 -2,4v3l-1,2 -2,2 -3,3 -9,9 -1,2h-2l-2,1 -3,1 -15,3 -2,1 -11,2h-4v2l7,-26 15,-32 -25,-6Z"/>
    <path data-geo-id="2500159735" data-name="Sandwich" d="M2860,1417l1,3v1l2,1 2,1 1,1 2,2 2,1 15,15 1,1 4,2h1l2,2 12,8 3,2v1h2l31,12 2,1 2,1 5,2 5,1 1,1 4,1h1l2,1 7,1h1h2l2,1h1h2l2,1h1l4,1h1l-70,95 -13,6 -3,-31 -19,18 -11,-7 -27,49 -26,-10 19,-38Z"/>
    <path data-geo-id="2500182525" data-name="Yarmouth" d="M3091,1595l10,-80h2l6,-9 2,-1v2h2l1,1v-1h2v1v-1h-2v1v-2h2v-1v1h-2l-1,1h-2v-2v-1l10,-6v-1l25,2h3l4,2h1l2,-3h2v1v-1v1l39,49 -30,35 -4,1 -17,22 -3,3h-2v1l-50,-14Z"/>
    <path data-geo-id="2501308470" data-name="Brimfield" d="M1230,986l10,-50 8,3 5,4 2,1 3,1 5,1 27,14 5,3 10,11 8,-2 8,-1 9,-1 14,-4h4l5,-1 1,-1h5v2v13v4v8l-1,26v8v2v3v2v8v3v9v1v-1l-53,-1 -72,-1Z"/>
    <path data-geo-id="2501376030" data-name="Westfield" d="M731,966l31,-55 72,19 3,1h2l8,2h2l1,25 -10,72 -11,31 -122,-28 -15,-16Z"/>
    <path data-geo-id="2501717475" data-name="Dracut" d="M2063,295h5l65,1 15,-18 2,-3 18,-28 1,-1 9,46 1,7 2,11 3,17v2v1l-16,16 -17,1 -23,-13 -53,16 -10,-10Z"/>
    <path data-geo-id="2501724925" data-name="Framingham" d="M1948,805l4,-8 5,-12 1,-4v-6l2,-4v-5l-2,-11 4,-29 79,15 17,33 -22,26 10,27 -26,19Z"/>
    <path data-geo-id="2501943790" data-name="Nantucket" d="M3345,1960l44,84 -5,44 -39,14 -94,-2 -97,-39 18,-28 97,5 63,-23 23,-25 -15,-21 -36,46 30,-76Z"/>
    <path data-geo-id="2501717825" data-name="Dunstable" d="M1905,290l78,2 10,47 -45,17 -33,2 -5,-19 -17,-29Z"/>
    <path data-geo-id="2501142285" data-name="Montague" d="M979,400l11,19 38,-2 -1,24 30,4 13,26 -8,47 -57,7 -31,7 -12,-36 8,-50 -16,-5v1v-1l-4,-20Z"/>
    <path data-geo-id="2501161135" data-name="Shelburne" d="M809,379v-8l96,-14 -16,85h11l-16,27 -20,3 -29,-28 -9,-13h-2h2l-20,-21Z"/>
    <path data-geo-id="2501735425" data-name="Lincoln" d="M2068,651l48,-53 24,-14 15,8 5,44 -14,31 -48,5Z"/>
    <path data-geo-id="2501735215" data-name="Lexington" d="M2155,592l28,-38 35,30 13,20 7,17 -19,26 -8,11 -51,-22Z"/>
    <path data-geo-id="2501735950" data-name="Littleton" d="M1935,456l12,-9 64,60 -41,36 -52,-25 -1,-1 -4,-9 -1,-8 -2,-10 -2,-1Z"/>
    <path data-geo-id="2502107740" data-name="Braintree Town" d="M2362,906l17,-27 58,-12 -6,86h-42l2,-22Z"/>
    <path data-geo-id="2502116495" data-name="Dedham" d="M2234,816h2l2,4 8,10 3,4 4,4v1l1,1 2,1v1l2,2h1v1l5,1 5,-2v1l4,2v2v1v1l1,3v2v6l2,4v2v1v2h2v2h1l2,1v1l5,4v2l-8,9 -2,5 -3,9 -79,-62Z"/>
    <path data-geo-id="2502125172" data-name="Franklin Town" d="M1988,1123v-47l12,-75v-3l20,-3 36,5 20,54 -25,60Z"/>
    <path data-geo-id="2502146050" data-name="Norfolk" d="M2056,1000l5,-3 34,-17h33l2,1 1,12 19,62 -4,9 -70,-10Z"/>
    <path data-geo-id="2502155745" data-name="Quincy" d="M2367,819l2,-4 2,-2v-1l16,-7 24,27 43,-12 -12,34v2l-5,11 -58,12 -17,27 -30,4 -9,-13 36,-19 -7,-16 27,-20Z"/>
    <path data-geo-id="2502139765" data-name="Medfield" d="M2083,907l3,-10 5,2h2h2v-2h63l2,18 -5,66 -27,-1h-33l3,-4 5,-16 -2,-7h2l7,-3 -20,-32v-2l-2,-5 -5,-3Z"/>
    <path data-geo-id="2501372390" data-name="Wales" d="M1233,1050l72,1 -5,76h-9h-5l-25,-1h-1h-7h-13h-7Z"/>
    <path data-geo-id="2500112995" data-name="Chatham" d="M3350,1508h4l41,12v36l-15,27 -20,-6 -3,-3 -3,-3 -5,-5 -5,-3h-2l-23,3h-2h-5l-1,-1v1h1l-1,1v-1v-1l8,-39ZM3374,1609l-2,7 -3,4 -2,11v7l-2,1v1v2v1v4v1l-1,4v2v1v1l-2,7v1v1l-2,1v2v4v1v1v1v8v2v2v19l-3,2v3l-2,3 -5,6 -3,1v2h-3h-4l-1,-2 -4,-2v-1l-1,-2v-7h1h2h2l3,-6 3,-2v-1l2,-3v-1l2,-1v-1l1,-2v-2l2,-1v-1v-1v-1v-3l2,-1 1,-3v-4v-1v-2v-4v-7v-4v-9v-1v-1v-1v-2l2,-1v-1l12,-26 1,-10 4,-10v-1v9Z"/>
    <path data-geo-id="2500129020" data-name="Harwich" d="M3221,1520l36,-24 62,-2 33,-5v1l-2,18 -31,18 -8,39v1v1l-9,2 -65,14v-1Z"/>
    <path data-geo-id="2500116775" data-name="Dennis" d="M3124,1488h2v-1l2,-1 3,-2v-1l3,-2h2h-2h2l2,-1v-3l5,-2h1l9,-4 10,-4v-1l4,-2v1v1l7,-1 5,-1 2,-1h1l2,-1v-2h3l4,-1h3h2h1h2l2,-1 5,-3 3,-3h2h1v2l5,-2h5h2l2,2h3l-7,9v1l-3,2 -5,2 7,52 16,62 -1,1h-4h-1v1h-2l-5,2h-2l-1,1v1h-2l-2,2h-1h-2h-2h-1h-4l-6,-2h-2l-13,2 -17,4h-2h-3l2,-3 1,-9v1l30,-35 -39,-49v-1v1v-1h-2l-2,3h-1l-4,-2h-3l-25,-2v-2v-1Z"/>
    <path data-geo-id="2500155500" data-name="Provincetown" d="M3192,1058l7,19 -2,-1 -28,7 -18,42 -42,-53 32,-20Z"/>
    <path data-geo-id="2500170605" data-name="Truro" d="M3304,1126v1l2,2 1,1v1v1l2,1v1l2,2 1,3 2,3 2,2 1,3v1l4,5 1,4 2,1 2,4 3,7 1,2 4,8 1,3 2,2 2,3 1,5 2,1 -75,12v-3l-11,-78 -55,-46 -2,-1 -7,-19 72,30 40,38Z"/>
    <path data-geo-id="2500119295" data-name="Eastham" d="M3335,1301l2,3h2l3,1 38,-6 2,4 13,51 -3,31 -3,-2 -2,-1 -27,23v1l-18,-6 -7,1 -1,-1v-1v-97Z"/>
    <path data-geo-id="2501379740" data-name="Wilbraham" d="M1035,968l70,5 13,-39 5,41 9,61 -84,23 -1,-7Z"/>
    <path data-geo-id="2502723875" data-name="Fitchburg" d="M1616,382v-6l74,-4 4,84 10,7 -70,26 -23,-1Z"/>
    <path data-geo-id="2501762535" data-name="Somerville" d="M2283,660l1,-13 30,24 22,-2 1,8 -1,4v2h-2v2l-2,2v1h2v2h2l1,3 2,2v3h-28Z"/>
    <path data-geo-id="2501739835" data-name="Medford" d="M2268,622l28,-23 32,11 11,39v11l-3,9 -22,2 -30,-24Z"/>
    <path data-geo-id="2501739625" data-name="Maynard" d="M1978,604l32,18 -12,36 -25,7 -6,-46Z"/>
    <path data-geo-id="2501740115" data-name="Melrose" d="M2331,610l3,-36 22,-3 1,2 2,3 3,4 2,2 2,3 1,3v1l2,1 5,7 8,12Z"/>
    <path data-geo-id="2501767665" data-name="Stoneham" d="M2294,541l19,-3 21,36 -3,36h-3l-32,-11 7,-25Z"/>
    <path data-geo-id="2501768050" data-name="Stow" d="M1892,652l1,-13 2,-7 5,-24 5,-23 42,3 31,16 -11,15 6,46 -3,15Z"/>
    <path data-geo-id="2501772215" data-name="Wakefield" d="M2313,538l23,-37 5,6 1,1 2,2h5l2,1h1h17l-3,5 1,2h2v2v2l2,2v1v3v1l1,4v1l-1,3 -4,1 -3,2 2,1v2l1,2 -1,5 -2,5 -7,3 -1,2v3v2v1v3v2l-22,3Z"/>
    <path data-geo-id="2501780510" data-name="Winchester" d="M2231,604l72,-30 -7,25 -28,23 -30,-1Z"/>
    <path data-geo-id="2501776135" data-name="Westford" d="M1950,397l70,-46 28,129 -10,20 -27,7 -64,-60Z"/>
    <path data-geo-id="2501781035" data-name="Woburn" d="M2218,584l31,-27v-35l32,-18 10,27 3,10 9,33 -72,30Z"/>
    <path data-geo-id="2501705805" data-name="Billerica" d="M2100,466l31,-64v-2v2l80,47v2l-3,3 8,33 -25,47 -7,-17 -61,-1Z"/>
    <path data-geo-id="2501727480" data-name="Groton" d="M1797,374l3,-18 58,29 14,-34 38,-12 5,19 33,-2 2,41 -3,50 -12,9 -90,-14 -18,-28Z"/>
    <path data-geo-id="2501756130" data-name="Reading" d="M2279,475v1l7,-3 8,-7 7,-1 38,6v7l-2,3v12l-1,8 -23,37 -19,3 -3,-10 -10,-27 -2,-28Z"/>
    <path data-geo-id="2501770360" data-name="Townsend" d="M1694,282h1l92,4 7,1h11l-5,69 -3,18 -3,30 -27,-12 -7,-2 -8,-2 -15,-6 -18,-8 -17,-6 -8,-4 -4,-1Z"/>
    <path data-geo-id="2501772600" data-name="Waltham" d="M2160,636l51,22 17,26 -22,25 -40,16 -20,-58Z"/>
    <path data-geo-id="2501777255" data-name="Weston" d="M2098,672l48,-5 20,58 -8,32 -3,1h-4l-3,2 -10,4h-2l-3,1 -2,1h-1l-4,2h-1l-5,2 -4,1 -1,1h-2l-2,1h-1l-2,1h-2l-1,1 -2,-22Z"/>
    <path data-geo-id="2501109595" data-name="Buckland" d="M721,398l6,-10 74,1 8,-10 -3,31 20,21h-2l-23,26 -35,-4 -60,9Z"/>
    <path data-geo-id="2501115200" data-name="Conway" d="M782,583l30,-124 -11,-2 23,-26h2l9,13 29,28 25,33 -9,71v14l-41,7 -10,1 -12,2 -8,1 -13,2h-2l-8,1Z"/>
    <path data-geo-id="2501158335" data-name="Rowe" d="M576,317h2h1v-1l-1,-4h1l4,-1h6v-3v-3l5,-7 7,1h3l9,-4v-5v-1v-4l1,-1v-2l2,-1 -2,-2 22,-42 25,1 31,1 7,80 -51,1 -39,22 -8,-12Z"/>
    <path data-geo-id="2501129650" data-name="Heath" d="M761,242l16,97 -58,29 -20,-49 -7,-80 45,1 5,2Z"/>
    <path data-geo-id="2502124820" data-name="Foxborough" d="M2146,1064l4,-9 38,-22 56,61 -16,9 -25,13 -10,5v1l-14,6 -5,3 -3,2 -13,7 -10,5 -5,3 -2,-38Z"/>
    <path data-geo-id="2501168400" data-name="Sunderland" d="M945,581l29,-49 31,-7 -11,65 1,38v1l-8,1 -3,1 -10,1 -5,1h-4l-3,1h-3l-7,1 -2,1Z"/>
    <path data-geo-id="2501125730" data-name="Gill" d="M979,400l11,-56 47,-7 -7,-20 28,31 -21,27 -2,35 -7,7 -38,2Z"/>
    <path data-geo-id="2501174525" data-name="Wendell" d="M1057,445l36,-39 60,16 4,58v54l-10,4 -67,-10 -18,-10 8,-47Z"/>
    <path data-geo-id="2501173265" data-name="Warwick" d="M1150,262l76,3 2,13 3,16 5,29 -46,54 3,21 -43,7 -10,-38 -32,-108 35,2Z"/>
  </g>
  <path class="mesh" transform="scale(0.1)" d="M2625,1400v-20l29,30 21,-1 93,-6 -13,54 2,1v1l1,3 2,4v2v3l2,1 3,1v2v2M2419,680l-25,-11 -8,-11 -10,-11v-1v-2l3,-4v-2v-1l2,-2h-2l2,-2v-1l1,-4 4,-6v-2v-1l-4,-9v-1v-1l2,-1 2,-1 1,-2 2,-2 2,3 1,3v1l2,2 2,1v1l-2,3 2,1v2v1v3h1v1M493,981v2l2,1v4v5v2l1,3v1v1v1v3l4,1 1,2v4l-6,4 -2,1 -2,2v2l-3,6v2l2,1v11l3,8 7,21v1h1l2,2v3v1l1,8h2v1v2v4v2v1l-2,1v2v1v1l2,2v5v2M420,228l-4,40 -3,64 -5,39M327,365l81,6 -2,38 -26,-10 1,33 -51,-12 -15,-3 12,-52 -42,-1M2394,1783l-7,-72 -15,-30 7,-54 -37,-72 60,-31 44,-28 -10,59 6,48 37,50v-1M636,237l-22,42h-1h-2l-25,3h-5h-10l-22,-1h-1v-31v-13v-2l1,-2M2332,1409l-3,-6v-11l50,1 17,20 3,2 -2,5 -1,2 -7,18 38,-6 59,-10 1,4v3l4,7 1,3 2,4 5,14 -15,10 -18,13 -20,14M2402,1524l2,-43 -98,-23M2118,1445l23,2 97,-11 -5,-42 20,34h16l-1,62 -30,-5 -9,33M979,400l11,19 38,-2 7,-7 25,-20 80,-23 10,38 3,17 -60,-16 -36,39 -30,-4 1,-24M1143,1124l-11,-88 -9,-61 39,-11 31,22h37l3,64v76M707,1115v-82l122,28 -8,55M1055,653l2,-1h5l15,-3 63,-10 -2,1 2,3v1l2,1v1l-2,1 2,2v1l1,1v1v1v1v2l2,1v1l2,2v2l-2,2v1v2v2v3l2,1v1v2l1,1 -1,2 1,1v1h2l-2,3h-1v2l1,2h2h-2h-1v3l1,2 2,1 -2,1 2,2v2v1l2,1v4l1,1v1l2,1h2l-2,1h-2l2,3v1v2v1v3l-2,2 2,1v1v2v1v1v1h-2v1v1v1v1v1l2,1v1l2,1v2v1l-47,4 -3,-27 -59,9 -10,-71 17,-1M1591,1136l1,-64 49,-21 23,86M1820,513l-3,-9 3,-11 7,-9 8,-8 3,4 2,3 3,1 2,2 3,1h4l6,2h2l3,-3 9,-6 6,1 12,3 2,2 5,1 11,2 2,1 2,10 1,8 4,9 1,1 -3,5 -2,2 -8,18 -7,12v1l7,29 -5,23 -80,-35M1376,384l42,3 25,28 56,-35 53,36 -30,68 -18,17 -20,-17 -38,-39 -3,-30M1336,424l8,-37h14l6,13 4,48 31,53 9,47 -17,12v2l-76,-83 8,-50 13,-5M1236,323l-5,-29 -3,-16 -2,-13M1140,639l-8,-54h13l2,-47 10,-4v-54l79,3 7,23 10,10 7,8 55,-45M1890,970l55,51v1l-2,7 4,8 -20,5 -47,-54 10,-18 5,-31 33,-8 14,-1 1,-2 4,17 6,14h9l5,1v8v4v3v9v18l-22,20M1862,1150v-63h25l1,63M2352,1036l25,-13 2,-1 2,-1 1,-1 2,-1 2,-1 3,-1 8,-6 2,-1h2l6,-4 22,16 3,32 55,-15 13,17 -4,30 -40,2 -24,-13v-21M1391,560l87,80 -25,22 -72,59 -10,-9M1641,628l10,34 51,5 20,17 -17,21 -3,71 -5,2 -17,-37 -13,13 -16,-92M2334,1045l7,32v4l3,13v2l2,7 40,-7 3,16 33,-6 7,45 -68,35M2555,1044l-41,9 -12,-77 13,-4 35,-7 14,32 26,26 -35,21 -3,62 12,32 -57,-8 -2,9 -9,-53M2645,1489l-26,-7v-22l6,-60 -116,20 1,-44 -23,-29 2,-31 -63,-35 -4,1 -1,-1 -2,1 -2,-1M2486,1424l23,-4M2619,1460l-20,64 -39,11 -21,1 -5,-18 -15,-55 -17,3 -3,-7M1962,726l-4,29 -3,1 -8,1 -9,1 -3,-1 -5,-2h-2h-1v1h-4l-6,1h-2l-3,1h-7l-23,9 -2,1 -13,10 -5,-7 -2,-1 -3,-2v-1l-2,-3 -2,-3 -3,-4 -2,-2 2,-6 -3,-4h-2v-2h-2l-5,-3h-1v-1l-2,-1 -2,-2 -1,-3v-1l-2,-1v-1M2487,486l-3,2 -82,-27 15,-37 19,-8h1l30,-16 9,24 10,55M1296,644l75,68 -35,26 -23,47 -27,14h-1v-3v-3l3,-4v-2v-3v-2v-2l2,-3h-2l-18,4 -7,1 -5,1 -15,1 -7,1 -8,-15 -2,-15 -1,-10 -2,-16 -5,-3M2484,378h2l6,-38h30l12,22 38,1 15,56 -12,3 -96,-36v-2l3,-5 2,-1h2M2564,225l-92,20 -33,-21 -7,-6 45,-37 53,-18 22,2M2492,340l-16,-12 -40,-2 15,-11 74,-37 9,-17 30,-12M2604,325l-9,9 -8,8 -3,2h-2h-2l-8,19M2402,461l-30,-2v-6v-1l7,-4 -2,-1 -1,-5 -4,-8 -18,-21 -2,-2 -3,-4 2,-2 3,-24 28,-17 44,25 10,27M2477,181l-21,-43 16,-24 17,8 13,10M2451,315l-27,-18 48,-52M786,604l-12,2 -2,54M704,616l-7,-56M1967,1002l33,-4v3l-12,75v47l-3,21M1948,1145v-1v-13v-3v-1v-24v-2v-6v-8v-1v-21v-14v-1v-1l2,-3v-3v-1v-1v-2h-2l-1,-2M2244,960l-15,19 -41,-41 36,-39 40,19 9,-14 3,-9 2,-5 8,-9h2l25,33 34,46 -26,20 -50,12 -27,-32 20,-42M2607,862h2v6l-2,1h-2l-1,2v1v4h1v2v1l2,2 -2,1 -1,-1v4l-4,1 -1,1 -10,9 -9,6v1l-6,5 -2,1 -3,2h-2h-2l-3,-5 -7,-9 -5,-12 -1,-9 -2,-2 -2,-3 -1,-7 1,-2 5,-6 -3,-2v-1l2,-2 -2,-1 2,-4 1,-6v-2h2h2h1v-1l2,-3v-1l2,-1h1h4h1h2M2035,932l8,-2 2,-1 8,-2 18,-5 19,-6v2l20,32 -7,3h-2l2,7 -5,16 -3,4 -34,17 -25,-53v-1l-1,-11M2288,881v-2l3,-3 2,-1 1,-3 2,-10 5,-2 2,-1v-1l1,-1h2v-1l2,-1 -2,-5v-4l-2,-2 -1,-2 8,-2 5,-1v-1l7,-6 6,-3h2l3,-2h5h2l5,-1h1v1l2,3 2,1 6,-6 -1,-5 3,-2h2l6,1 12,23 -27,20 7,16 -36,19 9,13 -14,3 -5,1M2135,826v-1M2198,772v1v5l1,4 5,1h4h1h2v1l2,3v1l-2,2 3,5h2v1l2,3v5v1l11,2 2,2v3v1v1l2,1 1,1 -40,26 -1,2 -58,-10 -4,-5M2332,910l30,-4 29,25 -2,22 -13,42 -20,-22 -9,-13M2356,973l-14,27 10,36 -13,7 -3,2h-2l-11,7 -5,2 -14,8 -1,1 -2,1 -7,4 -3,1 -10,5 7,-44 -17,-38M2229,979l-35,22 -6,32 -38,22 -19,-62 -1,-12 -2,-1 27,1 5,-66 16,-2 12,25M2113,772h2l1,-1 4,-1 5,-2h1l4,-2h1l2,-1 3,-1h2l10,-4 3,-2h4l3,-1 40,12h-2v1l2,2 -63,53 -12,2 -2,-2v-2l-10,-23 -1,-3 -5,-14v-2l-2,-3 2,-3 1,-1h2l2,-1h1l2,-1M2056,1185h4h3l8,-1h2l8,-4 5,-3 12,-5v-1l7,-3 3,-1v-1l10,-5 5,-2 2,-1 5,-2 13,-7 18,32 -61,60 -44,31M2539,1536l6,21v4l-51,21M2492,1575l-26,-93M2233,1394l-10,-81 15,3 53,11 20,20 -8,38M2296,1426l-5,1 -22,1M2161,1181l8,17 49,82 -85,7 -37,5M2143,1149v-1l5,-3 10,-5 13,-7 3,-2 5,-3 14,-6v-1l10,-5 25,-13 16,-9 9,-5 10,61 -94,48M2253,1089l23,-12 5,-3M2329,1176l-11,-3 -52,-9 -3,-14M2318,1173l-45,61 -42,42 -13,4M2231,1276l7,40M2141,1447l-8,-160M1850,671l22,-14 13,-3 3,-1 4,-1 78,28 -2,11 -118,18M381,432l-10,46 22,6 -12,23 32,11 -17,32 -118,-27 52,-103M2517,566l-18,-8 10,-16M1416,955l38,-6 12,-12 73,-6 22,-2 15,97 -9,27 -76,23 -10,-30 -37,-19 -5,-29 22,-8 -7,-41M2733,303l-3,66 23,10M2665,444l-28,-30 -10,-24 17,-32M2063,295l2,45 10,10 53,-16 23,13 -1,44 -19,11v-2l-58,-15 -18,-28 10,-17M2439,224l-47,24 -18,21 -25,-19 15,-27 20,-37 48,32M2916,1654v-39v1h-3l12,-7 -9,-32 70,-95M3101,1515l-10,80M2359,1183l-8,-49 -2,-11 -2,-9v-2l-1,-6v-3M3322,1416l4,5 26,68 -33,5 -62,2 -36,24 -7,-52 5,-2 3,-2v-1l7,-9M2768,1587l49,15 26,10 15,47 25,6 -15,32M3335,1401l7,-1 18,6M3267,1205l75,-12M1805,510h2l7,1 6,2v60l-20,56 -28,-7 -28,32v-78l-9,-1 10,-57 14,-17 21,4 4,1 10,2h6h4l1,2M3380,1299l-38,6 -3,-1h-2l-2,-3M2379,635l-40,14 -11,-39h3l51,-1 -8,-12 -5,-7 -2,-1v-1l-1,-3 -2,-3 -2,-2 -3,-4 -2,-3 -1,-2v-2v-3v-1v-2v-3l1,-2 7,-3 2,-5 1,-5 -1,-2v-2l-2,-1 3,-2 4,-1 1,-3 22,4 20,50 20,20M2426,389l1,-17 9,-46M2479,386l-12,14M2384,186l18,-33 29,-15h25M1694,282l-4,81v1v5v3l-74,4v-4v-11l1,-9v-10v-8l-6,-15 -2,-4v-1l-7,-3 -1,-1v-1l-2,-1 -13,-14 -7,-15M2151,347l17,-1 16,-16 22,-40 17,4h1l5,2 4,26 46,-1 55,90 -11,2 -20,2 -10,1h-4l-8,1h-2l-5,-4 -3,-4 -2,-3v-2l-1,-4 -5,-2 -4,1 -1,1v9l-4,5 -1,5 -2,-2 -10,-7 -3,-4h1h2v-1v-1v-1v-1v-2l2,-1 1,-1h2v-1l-3,-3 -7,-5 -2,-1 -1,-1v-1h-2l-2,-1 -6,-5h-2l-5,-3 -3,-2 -2,-3 -15,-8 -3,-2 -5,-4 -4,-2 -6,-4 -2,-1 -7,-5h-1M2374,269l7,20 43,8M2382,364l-20,-44 -59,-73 46,3M2637,414l-50,5M2276,307v1l3,13M2229,296l17,-33 33,2 -8,28v-1l5,7v8v1M2394,538l23,-13 34,21 15,5 11,30M2414,1269l2,1 1,-1v-1l2,1v1v4v4l-2,3 2,22 -50,3 -45,-65 12,-23 -7,-42 30,7 2,3 5,25 5,4 20,16 20,21 3,3v13v1M2352,449h2l13,2 5,2M2372,459l27,52 18,14M2372,534v-1l-1,-4v-1v-3v-1l-2,-2v-2v-2h-2l-1,-2 3,-5h-17h-1l-2,-1h-5l-2,-2 -1,-1 -5,-6 1,-8v-12l2,-3v-7l5,-7 8,-15v-1v1h2M2234,175l49,39 13,26 -17,25M2184,330v-1v-2l-3,-17 -2,-11 -1,-7 -9,-46M2594,459v-6l-15,-20 -4,-11M954,441l16,5 -8,50 12,36 -29,49 -65,-5 9,-71 -25,-33 20,-3 16,-27M2451,546l28,-32 5,-26M2499,558l-33,-7M1123,975l-5,-41v-1l15,-2 14,-2h3l3,-1h-1l-2,-1v-4v-1h2v-1v-1l-2,-2h-2v-1v-1v-2v-3h-1v-1v-1v-2l1,-1 2,1 -2,1h2v1l2,-1 1,-1v-3h2h2v2l1,1 2,-1v-2h2v-1h1l2,-1v-2v-1v-2v-1v-1l2,-1v-1l1,-1h2h1h2v-1v-1h2l20,-7 16,-7 17,-2 3,-3h2v-2h2v6l5,4 13,-12 3,-5 14,-1 10,-1 -2,2 -15,21 -17,23 -3,4 -3,5v2v3v5l1,2v2l-1,1v2v1v1v2l-10,50M408,910l3,-63 39,6 25,11 51,-2 27,-2 -5,26 -4,11 -10,44 -1,9 -5,24 -2,2v2v1l48,9 10,73 -8,50M937,251l12,100M915,356l-26,-36 -22,-73M2308,733l1,1v1l-5,5v3v3v2l-1,2 -2,6v1l-2,1v3l-1,1 -5,2 -4,4 -3,5 -2,3 -1,2 -5,10 -2,2 -2,1 -1,2 -2,2v1h-2l-3,2v-1l-3,-2 -5,-8 -2,-2h-2l-3,-4 -8,-8 1,-2 2,-1v-1l2,-1 1,-3 2,-1v-1l3,-2 2,-3h2l5,-4 6,-8v-1l2,-2h2l-2,-1 2,-1h3l2,-3 1,-2 2,-1 5,-4 2,-1 3,-2 2,-1 1,-1 4,1h1l7,1h2v1v1v1v1v1M2397,623l4,1 1,4 2,-2h3h4l1,-3h5l2,2 2,1M1391,562l-95,82 -13,28 -50,7 -13,43 -2,4h-2v1l-1,-1v1h-2l-2,1v1h-1l-2,1h-2v1l-1,1v1h-2h-2v1v1l-1,1v-1l-2,1h-2h-1v2v2l-2,1h-2l-1,2v2l-4,3v1v2l-1,2v1l-2,1v1l2,2h-2h-2v2l2,3v2l-2,2v1v-1l-1,-1 -4,1v1l-1,1v1v2h-2l-2,1 -1,-1 -2,1v1l-1,2v1l-2,1h-2h-1v-1l-2,1 2,2h-2v1l2,1v2v1h-2v-3l-2,1 -1,1v1h-2v-1v-1h-2v-1l-1,-1v-3h1l2,-1v-1v-2l2,-1v-2v-1v-1v-2v-1h1v-2v-1v-1v-1v-1h2v-2h-2l2,-1 -2,-2 2,-1v-1v-2v-1v-1l2,-1 -2,-2v-1l-2,-2v-1v-1v-1l-1,-1M1150,405l43,-7 -3,-21 46,-54 14,9 13,8 15,22 2,6 -4,4h2v2v2v1v3v2l-2,2 -3,1v1l3,4v5v1v1v1v1h-1h-2v1h-2h-1h-2v-1l-2,1h-1h-2l-8,2 -4,1 2,7h-3l-2,2 -2,3 -1,1h-4h-1l5,25v1l-2,5 -3,-2h-2v1l-2,1 -1,-1v-2v-2h-2v3v1h-2v8l2,5v3v2l2,5v5l1,9M1157,480l-4,-58M919,1124l18,-52 50,12 3,37M2790,1871l-17,-15 4,36 -39,-58M1012,254l18,63 7,20 -47,7M2266,666l17,-6 28,38h28M2346,705h-4l-1,1v1l-7,11 -2,1 -13,5h-16l-4,-4 -18,-13 -7,2v-12h-10M2253,419l-25,42 -17,-10v-2l-80,-47 -31,64 -52,14 -28,-129 35,6M2339,660v-11M2735,1071l-32,18 -61,-48 -27,-24 -3,-51h15l10,-9 17,3M2376,647l-2,3 -2,4v2l-1,1v3l-2,2v2l-2,1 -3,2 -2,2h-1h-2h-2v3l2,1v1M1943,928l40,-31 -6,-19 43,-9 33,58M2036,943l-1,1h-7h-3h-5h-2h-2v1M2016,944v-1h-1l-48,29M614,279l2,2 -2,1v2l-1,1v4v1v5l-9,4h-3l-7,-1 -5,7v3v3h-6l-4,1h-1l1,4v1h-1h-2l25,13 8,12 39,-22 51,-1 20,49 58,-29 5,37 27,-5v8l-8,10 -74,-1 -6,10 -112,-24 4,-16 -4,-16M905,357l10,-1 34,-5 41,-7 -11,56 -29,21 4,20v1h-54h-11l16,-85 -96,14M777,339l-16,-97M2123,827l5,29h-27v1l-55,-30 -10,-27 22,-26 13,-2 32,-19 2,22M2334,411l10,-4 7,-2M1195,736l1,-10v-2l-1,-1 1,-2 -1,-2 1,-1v-2v-2v-1l2,-1v-1v-2l-2,-1v-1v-2h-1h-2l2,-1v-3l1,-1h2v-1l-2,-1v-1v-2l-1,-1 1,-2v-1l-1,-1v-2l1,-1v-1v-2l2,-1v-2l-2,-1v-2v1v-2h-1v-1v-2l-2,-1h2v-2v-2v-2v-1h1l-1,-1 1,-1v-2v-2v-3l2,-1 2,-2h-2v-2h2v-1v-2v-2h1v-1l2,-1 -2,-1 2,-1 -2,-3h2h2h1v-1l2,-1 -2,-1v-1h2v-2h2v-1l1,-1 2,-1v-1l2,-1 1,-1v-1v-2v-1l2,1v-2v-1v-1l-2,-1h2h2v-1v-1l1,-1h2v-2l-7,-49 12,-10 7,-7 1,-1 20,-18 4,-6M2515,972l-5,-23 47,-31 57,15 23,24M2615,1017l-25,6M2339,471l-38,-6 -7,1 -8,7 -7,3v-1v-58M1905,290l-12,20 17,29 -38,12 -14,34 -58,-29 5,-69M1970,680l3,-15 25,-7 12,-36 58,29 5,27 -23,22 -4,9v2l-5,30 -79,-15 6,-35M2020,351l-70,46 -2,-41 45,-17 -10,-47M2274,709l-1,2 -4,4h-1l-7,1h-3h-5h-2l-45,-7 22,-25M2140,584l-24,14 -48,53 30,21 5,81M2058,774l-17,-33M2279,476l2,28 -32,18 -33,-35 -8,-33 3,-3M2020,869v-23l26,-19M2101,857v1l2,2v2v12v1v1h-2l-3,6 -2,1 -1,2 -2,1 -2,5v1l4,4v1v2h-2h-2l-5,-2 -3,10v1l5,3 2,5M1780,505l2,-18 2,-7v-5v-12l3,-4v-5l3,-24v-2v-5l2,-3 2,-16 3,-30 30,40 18,28 -10,34M2429,1151l57,4 6,13 2,-1 -2,1M2494,1167l10,1 -8,38M2432,1075l-10,31M2567,1253l68,-26 5,19 68,108 -31,36 -2,19M2529,834l16,6 5,-2M2567,911l-10,7M2510,949l-31,18v-7l2,-12v-3v-1v-3v-2l1,-3 2,-28v-2v-3l2,-1v-3v-2v-3v-2l1,-7v-1l-1,-2 -2,1 -2,-1 -1,1 -2,-5 -7,-23M164,781l28,31 -4,17 4,42 -15,15 -43,-7M2379,1393l3,-3 20,-21 2,-3 2,-1v-1l10,-8 3,-3 15,-33 -2,-5 -1,-2v-3l-2,-4v-1v-1l-2,-8 -3,-11 -2,-3M2841,1396l-6,8v1l-2,1 -5,7 -5,6 -1,2 -2,1 -7,6 -10,3h-1l-9,5 -1,1 -2,1h-3l-5,3 -12,7 -2,1 -1,1 -2,1 -3,1h-2v2h-2l-3,3M2640,1246l55,-64M2540,1219l35,-37 14,-35 6,-2 12,44 28,38M1108,259l32,108M1035,410l2,-35 21,-27 -28,-31M721,398l-15,64 -27,22 -11,-1v-2l-15,-2 -9,-3h-3l-22,-5h-1l-19,-5 -10,-1 12,-58 7,-28 1,-5M2622,1997l-17,21M668,743v-8M727,738l4,102v15h-2l-22,3 -8,1 -15,10 -3,12M2407,1006l19,-11 13,-7 17,-9 8,-4v1l23,63M2678,1159l-18,-20 -36,-5 -12,-30 30,-63M2505,1139l-1,29M1157,785l21,40 -5,65M1070,881l-13,-103 -9,-53M945,581l5,55 2,-1 7,-1h3l3,-1h4l5,-1 10,-1 11,31 -10,103 5,18 -48,5 -20,19M915,800l20,-29 9,-16 -44,-31M1286,799h2h2l1,1 5,2 -6,9 -2,2v10v6l-3,-2h-2v4l2,10v4v1h1l4,1v4v1v3v2l-4,-2h-1l-5,5M674,620l30,-4 30,19 -3,22 41,3 -6,54 -40,6 1,18 -59,-3 -17,-112 23,-3 -103,-22 5,-22 7,-28v-2v-4l1,-4v-1l90,23 10,-5 13,5h7l2,2 6,2 7,1 5,1 58,17 4,21 8,-1h2l13,-2 8,-1 12,-2 10,-1 -2,27 -2,29h17l8,-1 4,-1h5M864,698l5,-47v-1l6,-1 30,-4h2l5,-1h2l8,-4h5l5,-1 2,-1 11,-3h4v1h1l-10,33 2,52 -42,3 -6,-30 -30,4 -63,11 -35,5M2564,1138l25,9M2632,1565l-37,-12 4,-29M2624,1134l-29,11M2560,1626l-15,-65M2464,975l15,-8M2342,1555l-36,-4 -20,109M2406,1365l-65,-41 -30,23M1895,939v-2v-1l-2,-1v-1l2,-2 -3,-4 -14,-1 2,-2 -27,-40 20,-45 5,-2 2,-1h2l16,-3h2l8,4h2l15,-4 52,44M2158,757l8,-32 40,-16M2253,716l-4,3v1v1l-1,2 -2,2v1v2l5,10 2,3 -2,2 12,11M2254,785l-1,4 -4,2 -15,17 -3,4M1845,442l90,14 -27,33M1925,834h15v-8l3,-9 5,-12 72,41M2219,647l47,19 -3,24 1,7 -36,-13 -17,-26 8,-11 19,-26 30,1 16,25 -1,13M984,631l3,-1 8,-1v-1M1033,623l2,6v4l2,11 1,10M1057,778l-60,9 -7,-4M2371,812v1l-2,2 -2,4M2286,881v-2l-5,-4v-1l-2,-1h-1v-2h-2v-2v-1v-2l-2,-4v-6v-2l-1,-3v-1v-1v-2l-4,-2v-1l-5,2 -5,-1v-1h-1l-2,-2v-1l-2,-1 -1,-1v-1l-4,-4 -3,-4 -8,-10 -2,-4h-2M2377,685l17,-16M1381,721l65,60 -70,7 -17,27 -31,-20 -38,4M1780,1037l-16,11 -67,17 -27,-22 -28,-57 95,-58 7,23 25,12 46,-3 45,55v1v9l-53,23 -27,-11 -25,4 14,-24v-54M411,847l2,-49v-22l2,-33 88,-10 6,18 4,3 3,3 3,1 5,3v1l2,4 7,6h5h3l2,1h1l2,-3 3,5 4,3 1,-1 5,-6v-2l2,-1 -2,52v7v2v16l-5,5 -1,10M345,699l40,59 28,18M413,798l-62,9 -16,26 -42,-1 4,-82M584,483l-96,-24 2,-44 14,1 5,-70 44,4 16,18 44,-10M526,979l-7,-2h-1h-4l-1,-1 -13,-2 -4,-1h-3v4l-2,1 2,3 -8,3 -5,-61 -72,10v-23l-86,-57 13,-20M413,332l96,8v6M490,415l-84,-6M488,459l-22,29 -36,-8 -17,38M1702,776l67,-19 3,4 17,58 -5,33 -52,14 -15,-5 -20,-83M1391,1130l40,-67 3,1 10,-37M1491,1076l-2,57M1384,270l-8,114 -18,3M1344,387l-11,-29 -53,10M524,232l-10,42 -98,-6M466,488l-6,60 -10,44 -30,-2 -12,50 -32,-1 20,-89M1118,933l-6,-50v-1v-6l-2,-1 -17,1 -3,2 -17,3h-3l-15,2 -12,2h-3l-17,3h-3h-3l-9,2 -8,1 -11,1 -5,1h-5l-10,-80 28,-26M1358,1128v-29v-13v-28v-5v-1v-9v-3v-8v-2v-3v-2v-8l1,-26v-8v-4v-13v-2M509,340l5,-66M177,886l3,64 18,2 -16,35 -22,13 -6,2 -42,-45M278,523l-26,108 -42,-10M188,829h35l70,3M322,853l-30,50v36l-9,16 -85,-3M460,548l43,10 -25,119 -43,-11 3,-24 -30,-2M2820,1885l-43,7 8,79M2743,1975l-30,-30 -28,-47M1290,852h26l32,87M1353,965l-5,-26 33,-71 35,8 12,37 -12,42 -13,19 -44,-10h-5l-1,1 -5,1h-4l-14,4 -9,1 -8,1 -8,2 -10,-11 -5,-3 -27,-14 -5,-1 -3,-1 -2,-1 -5,-4 -8,-3M1359,815l22,53M1552,416l64,-34 -5,106 23,1 -3,35M1559,553l-55,-52M292,939l38,5 21,26 34,-7M280,1094l-3,-74 11,-18 -5,-47M160,1000l9,22 -17,66M1567,1053l25,19M503,558l73,18M500,681l-22,-4M376,639l-18,15M292,640l66,14 -13,45 -4,15 -5,32 -39,4v-36h-40l-2,-22 37,-52 -40,-9M257,714h-10l-65,-1M1958,755l2,11v5l-2,4v6l-1,4 -5,12 -4,8M1900,834l-28,-49 -5,-7M1667,754l-68,55 -15,-11 -25,-66 -10,-24 38,-34M1789,819l33,-26 50,-8M1853,885h-41l-3,-27 -25,-6M1732,866l-3,3 -57,35 -13,-26 -42,6 -26,-68 8,-7M1880,988l-20,27M1815,960l-3,-75M247,714l-24,41v74M571,598l-2,9 -5,23v2l-3,15h-2l-1,11 -2,8v1l-2,7 -1,10 -9,-3 -21,-4 -10,-3 -13,7v7l1,19v2v3v6v2l2,13M589,465l-3,16 -2,2h2l2,1h1h2h2h1l-3,17 -3,23 -4,11v2M1484,484l-76,64M839,597l41,-7v-14M1080,528l67,10M706,462l60,-9 35,4 11,2 -30,124M684,555l-3,-17v-13v-21l-2,-8v-12M2193,844l-17,69M2160,915l-2,-18h-63M2061,997l-5,3 -36,-5 -20,3M2194,842l79,62M2376,995l13,22M2056,1143l85,-33 2,38M2389,953h42l-5,42M2431,953l6,-86 5,-11M2244,1094l-56,-61M1988,1123l63,-9 25,-60 70,10 -5,46M987,1084l-3,-22 63,-10 1,7 10,63M2476,424h79l24,9M2479,57l10,65M2431,138l-34,-51M2352,124l50,29M2303,247l-7,-7M829,1061l11,-31 30,26 7,-16 50,15 12,-9 -2,26M1772,761l12,-49M1499,380l2,-103M1616,376v6M1672,904l-33,58 -23,4 -35,-39 36,-43M1887,1087l61,-1M1900,608l-5,24 -2,7 -1,13M1797,645l3,-16M1780,681l-43,-1 7,-26M1722,684l15,-4M1764,1048l16,27 -1,78M1641,1051l29,-8M1737,928l-8,-59M1416,876l27,3 11,-19 12,77M1517,609l42,-34v-22l8,9 50,-44 14,6 11,29 7,51 -8,24 -54,46 -70,-65 -39,31M1634,489l70,-26 16,-12 39,50M1735,575l-93,-22M1862,1087l-2,-62M1690,363l4,1 8,4 17,6 18,8 15,6 8,2 7,2 27,12M1704,463l-10,-7 -4,-84M1642,986l-3,-24M1300,1127l5,-76 53,1M804,807l60,-9 51,2 4,6 -4,1v1l-16,12 -22,58 -10,3 -28,-42 1,-12 -36,-11v-9l-3,-98M979,893l-12,2 -8,1 -5,1h-4h-1h-4h-3l-5,2h-2h-1l-2,-2h-5l-2,-2 -6,-5 -4,-8 -5,-6 -3,-7 7,-16 8,-14 8,-8v-4v-5v-6l-3,-4v-1l-2,-3 -3,-1 -3,-1M676,890l-10,-11 -2,-1 -11,-9 -10,-7 -2,-1 2,-1 6,-7 4,-5 15,-18 3,-1v-3v-17l-3,-26v-25v-7v-8l-7,2h-2v-11l-10,-1h-5h-3l-12,-1 -10,-1 -13,-1 -22,-61 -30,5M731,840l73,-11v-13M867,881l-3,11 -9,2 -8,2 -2,3 2,12 2,6v5v9v2h-2l-8,-2h-2l-3,-1 -72,-19 -10,-21 -1,-23 -20,-11v-1M1446,781l8,79M1539,931l-18,-116 70,1M1581,927l-20,2M1559,732l-68,36 -38,-106M1446,781l48,-3h20l7,37M1491,768l3,10M606,730h-2l-15,13 -5,5 -1,1 -4,2 -5,6 -5,4 -3,3 -3,2v1l-2,1M840,1030l10,-72 54,2 3,48 32,38M559,845l82,16M653,1005l23,-115 5,-9h1l49,85 -39,51 -39,-12 -79,-17M1000,891l7,72 -25,4 -75,41M904,960l3,-28 28,-33M1048,1059l84,-23M692,1017l15,16M850,958l-1,-25M1118,934l-13,39 -70,-5 -28,-5M762,911l-31,55M1035,968l12,84M2051,537h2l60,2 10,-23 61,1 7,17 -8,20 -28,38 -15,-8 -30,-20 3,-25M1918,518l52,25M1947,588l23,-45 41,-36 27,-7 13,37 -41,85 -32,-18 -31,-16 -42,-3M2191,534l25,-47M2249,522v35l-31,27 -35,-30M2038,500l10,-20M2100,466l23,50M2860,1417l-24,147 -19,38M2843,1612l27,-49 11,7 19,-18 3,31 13,-6M3121,1497l25,2h3l4,2h1l2,-3h2v1l39,49 -30,35M1305,1051l-72,-1M1948,356l-33,2 -5,-19M1057,445l13,26 -8,47M1005,525l57,-7 18,10 -12,89 -35,6h-1l-7,1 -12,2 -5,1 -13,1 -1,-38 11,-65 -31,7M826,431l-20,-21 3,-31M2155,592l5,44 -14,31 -48,5M2218,584l13,20 7,17M2211,658l-51,-22M1935,456l12,-9 64,60M2362,906l17,-27 58,-12M2056,1000l20,54M2095,980h33M2150,1055l-4,9M3311,1567v-1v-1l8,-39 31,-18M3237,1582l-16,-62M3192,1058l7,19M2284,647l30,24 22,-2M2268,622l28,-23 32,11M1973,665l-6,-46 11,-15M2331,610l3,-36 22,-3M2296,599l7,-25 -9,-33 19,-3 21,36M2313,538l23,-37M2231,604l72,-30M1947,447l3,-50M2281,504l10,27 3,10M1797,374l3,-18M2166,725l-20,-58M864,472l-29,-28 -9,-13h-2l-23,26M692,239l7,80M396,1101l-11,-138 23,-30M2500,1056l14,-3M2411,1252h1l17,-13 35,7 12,-33 20,-7 44,13 27,34 17,19 33,99v2l8,7M1830,729l-46,-17 -4,-31 17,-36 53,26 13,20 -8,6 -5,12 -3,7 -4,5 -13,8v1"/>
  <g class="cities">
    <circle r="3" cx="235.2" cy="71.8"/>
    <text x="235.2" y="71.8">Boston</text>
    <circle r="3" cx="166.7" cy="84.0"/>
    <text x="166.7" y="84.0">Worcester</text>
    <circle r="3" cx="93.8" cy="103.7"/>
    <text x="93.8" y="103.7">Springfield</text>
  </g>
</svg>