<?xml version="1.0" encoding="utf-8"?>
<!DOCTYPE svg PUBLIC "-//W3C//DTD SVG 1.1//EN" "http://www.w3.org/Graphics/SVG/1.1/DTD/svg11.dtd">
<svg version="1.1" xmlns="http://www.w3.org/2000/svg" width="1000" height="616" viewBox="0 0 1000 616">
  <path class="state" d="M143,65l14,1 23,1h1h7l23,1h1h11l23,2h11l17,1h2l26,2h2h1h11l10,1h3l21,1 16,1h2l27,1h27h2h1h1h3h1l21,2 30,1h3h26h2h1h2l5,1h2l22,1 23,1h22h1h19l4,-4 1,-2 5,-7 1,-2 7,-2h2l3,1 2,1h1l2,-4v-1v-4v-2v-2v-5v-1l12,-10 7,1 3,2 10,3 1,-3 1,-4v-2l1,-1 1,-3v-1l1,-2 1,-1 2,-2 1,-1 2,-1h2h2h1h1l2,-2h3h1h1l4,-3h1h1l2,-1 2,-1 1,-2h1h3h3h1l7,4h1v2h2l1,1 2,2 3,-2 3,-1h1l3,17 -13,2 -7,-4v2l14,8 2,-1h1v-1l2,-1v2l1,-3 1,-2v2l4,21 2,4v1l4,12 -7,-9v-1l-3,-6 -4,-1v1v6l9,15 12,2 5,7 -15,-2 9,1h1l-1,1 3,7v-1v-1l1,1 4,-5 13,4 -3,-5 11,-8 4,9h7l2,9 -8,3v1l-8,10 -6,-4 -11,12 -20,5v-1l-8,5 -23,1 -1,-1 1,3 1,-2 5,4h1v14l1,-1 4,-7 7,3 -10,11 -1,2 -3,5 -8,-2 -2,2 -2,5v-3h-1l-7,4 -4,5 1,13v2l4,11 1,1h-2l-1,-1 -6,-8 -2,1h1l-1,4 1,1 3,1 1,1 -6,4 -10,-9 4,-4v-1h-1h-1l-3,-2 -5,-1 -1,1v-4h-1v2v3l3,7 14,12 -8,2 1,17v-6l18,13 3,5v2l7,-2 17,-6v1l1,-5 11,4 9,9h1v-1l6,-3 3,9 8,6 2,13 -5,3 9,7h1l4,5 1,1 10,14 -2,4v1l9,17 3,5h-3v-2l-9,-11 -16,15v1l3,5 2,2 8,9 11,6 7,-3 12,7 7,26 -3,16 1,2 1,1 3,3 1,1h1v1v1l5,4 1,1h1l3,3h2l8,4 1,1h1h1l2,1h1h1l3,1h1h2h2l1,1h1h1h1l2,1h2h3h1h2h2h5h2h1v1l1,1 2,1 -18,1 6,5 17,-1 2,-3h1l2,-2 1,-1 1,-2h1l1,-1 1,-1 2,-2h2l3,-2 2,-1v1l3,-1h1h1l2,-1 1,-1 1,1v-1h2v-1h1h2h1l1,1h1l1,-1h1l2,-1h1l1,-1h1l1,-1h1h2l2,-1h1h1l1,-1 1,-1h1h1l1,-1h1l1,-1 2,-1 1,-1h1h1v-1l1,-1 1,-1v-1h1l1,-1 -1,-28 1,-1v-8l-9,-9 -9,9 -2,-19v-1l-3,-23 -16,-12 -12,5 -3,9 -11,-16 6,-5 18,1 10,3 15,10 6,7 1,1 1,1 1,2h1l1,2v1l1,2 1,1 1,2 1,2 1,1 1,2 1,2v1v1l1,1 1,3 9,24v2l3,23h-1v-1l-9,7 -1,2 7,-7 8,5 2,26v2v1v1v7v1v1v1l-1,1v-15v-1l-3,-14 -8,1 1,8 -7,3v1l-1,5h1l13,2v13l-10,5 -5,-4v-1l-4,1h-3l-5,1 -18,5 -1,-1 -1,1h-1h-1h-1v1h-1h-1h-1h-1h-2h-4l-5,2h-1v-2l1,-2 -2,1 -5,6 -1,1 -14,-4 -1,-1v5l-11,4 -7,-4 -14,11v-6l-10,1 -1,6v1v1h-1l-1,3 -1,1 -3,-4v-1l2,8v1l-1,1v1l-1,1 -2,2 -2,2 -2,1h-1l-1,1 -6,1h-2l2,-7v-1l-4,8h-1l-1,-1h-1l-1,1h-2l-6,1 -1,1h-3h-1h-1l-1,1h-4h-2l-3,2 -2,1 -1,1 -1,1v1l-1,1v2l-1,1 -6,-5 10,-16 -3,-26 9,-4 -1,-1 -2,-12 4,-9 -3,-9 1,-1 -14,7 -20,-4v1l9,9v11l-11,-11 4,12 -6,-1v1l2,9 -16,-2 4,6 -10,5 -1,-1 -4,2v1h1v1v1l1,2 2,5 -2,1v1v1v1v1l-2,-4h-1v-2h-1l1,-1 -1,-3h-1v-1v-1v-1v-2h-1v-1l-1,-1h-1l-1,-1h-1v2l-1,1 -6,-14v-2h-1l-1,11 6,13 -8,-3v2l-5,8 5,16 -5,9 -4,-7 -4,8 -11,2 -4,3 -15,-5 12,-2 -2,-15 -5,15 -13,-11 9,15 -8,3v-1v-2v-1l-1,-1v-1v-1v-1v-6l-1,-5v-1v-1v-1v-1v-1l-1,-1v-2v-2l-1,-5 -1,-3v-1h-1v-2v-2l1,-4v-5h1v-1v-6h-1h-1l-1,-1h-1h-1h-1h-1l-1,-1h-1h-1h-1v-2h-1h-1h-1v-1h-1h-2l17,-23 3,-9h1l1,-1 7,-12 -1,-2 -6,8 -1,-14 -2,10v2l2,5 -13,21h-8l-8,2 -3,-4 -2,-4 -1,-1 -1,-2v-1l-2,-2 -1,-1 -2,-1 -3,-1v-1h-1l-1,-1 -2,-1 -2,-1h-2v-1v-1h-1l-1,-1 -2,-1 -1,-1 1,-1 -1,-1 -1,-2h-1v-1h-1l1,-1v-3l-1,-2 -1,-3 1,-8 1,-2 -1,-11v-1l1,-1v-1v-1v-1h-2h-1h-1h-1h-1l-1,1h-2h-1h-1h-1v-9v-2v-1v-7v-1v-1v-2v-1v-1v-1v-2v-1v-1v-1v-1v-3v-3v-6h-1h-1h-1h-1h-1h-2h-1h-1h-1h-1h-4h-1h-2h-1h-1h-2h-2l-3,1h-1h-1h-1h-1h-1h-1h-1h-1h-1h-1h-1h-1h-1h-2h-1h-2l-3,1h-1h-1h-3h-1h-1h-1h-1h-2h-2h-2h-1h-1h-3h-2h-2h-2h-1h-1h-2h-1l-5,1h-1h-2h-1h-3h-4h-2h-1h-3h-2h-3h-1h-1l-3,-1v-1v-2l-1,-1h-5h-1h-1h-1h-1h-1h-2h-1h-1h-1h-1h-2h-3h-1h-1h-2h-5h-5l-2,-1h-1h-1h-1h-1h-1h-1h-7h-1h-2h-1h-1h-3h-1l-2,-1h-1h-1h-2h-2h-2h-2h-2h-2h-1h-1h-1h-1h-1h-2h-2h-2l-1,-1h-1h-2h-1h-2h-2h-1h-1h-4h-1h-1h-1h-3h-1h-7h-1h-2h-5h-5h-3h-5h-4h-1h-2l-5,-1h-3h-3h-2h-1h-8l-1,-1h-1h-1h-1h-2h-1h-1h-1h-2h-8h-2h-3h-2h-1h-3l-4,1h-1l-3,1h-1v1h-1h-1h-1h-1h-2h-1h-2v-2h-2h-2h-3v-1h-2h-4h-4l-1,-1h-3h-1h-1h-1h-3h-1h-4h-6h-1l1,3 -1,2h-1l-1,1v-1h-1h1l-1,1h1v1h1l-1,1v1v1h-1l-2,2 -5,1h-4l-2,1 1,-14h-4h-2l-3,-1h-3h-3h-2h-1h-2h-2h-7h-1h-1h-2h-8h-3l-4,-1h-1h-2h-1h-3h-2h-2h-2h-1l-2,-1h-1h-5h-2h-5h-4l-2,-1h-2h-1h-2h-3h-3h-1h-3h-3h-2l-1,-1h-4h-2h-2l-3,-1h-2h-5h-3h-3h-4l-5,-1h-1h-2h-1h-4h-3l-10,-1h-1h-3h-1h-1h-13h-2h-2h-1l-1,-3v-4v-6l6,-24v-1l7,-22 8,-28 6,-19 3,-10 5,-16v-1l3,-14 1,-3 4,-13 2,-4 10,-38 1,-1 12,-40 39,1ZM956,491h-1h-1l-1,-1v-3h1l1,-1v-1l1,-1v-1l1,-1v-1v-1h1v-1v-1v-1v-1v-2v-4v-1v-1l2,-4 2,-8 2,-1v2v3l-2,2 -1,5v2v1v1l-1,1v2v1v1v1l-1,1v2v1v6v1ZM797,534v-2l7,-13 7,19v1l-1,-1h-6l17,9 3,15h9l-10,-7 9,-10 6,17h-38h-10l-3,1 -6,1 -19,2 -16,11 -3,-2 -9,-9 7,-6 7,10h2l3,-10 13,-18 1,-1 3,-8 11,-10h1l14,-8 4,12ZM769,504l-4,10 -11,4 1,4 -12,6 -1,-7 18,-13ZM955,558l15,30 -2,6 -12,6 -28,-1 -14,-4 -16,-9 8,-6 28,2 1,4 11,-6 12,-12Z"/>
  <g class="subcounties">
    <path data-geo-id="2502328285" data-name="Hanover" d="M719,277l9,-2 4,8 8,8 -11,6 -11,3 -4,-23Z"/>
    <path data-geo-id="2502338855" data-name="Marshfield" d="M753,273h5l9,7h1l5,6 10,14 -2,4 -8,6 -19,-14 -8,-6 -1,-14Z"/>
    <path data-geo-id="2502350145" data-name="Norwell" d="M717,270l12,-8 9,-1 15,12 -8,3 1,14 -6,1 -8,-8 -4,-8 -9,2Z"/>
    <path data-geo-id="2502372985" data-name="Wareham" d="M748,417l1,-18 1,-6 8,9h6l25,-2 -2,15v1l1,1 1,1v2h1v1l-14,7 -20,-4v1Z"/>
    <path data-geo-id="2500300975" data-name="Alford" d="M46,222l8,14 1,12 -5,4 -12,-2Z"/>
    <path data-geo-id="2500334970" data-name="Lenox" d="M83,182l19,4 -4,13 -2,13 -12,2v-11h-12v-6Z"/>
    <path data-geo-id="2500351580" data-name="Otis" d="M117,259v-18l10,-2 9,7 22,-1 -6,25 -1,3v3l-1,2v1l-2,-1h-1h-1l-5,2h-3l-2,-18 -19,3v-6Z"/>
    <path data-geo-id="2500359665" data-name="Sandisfield" d="M117,265l19,-3 2,18h3v3v1v1l1,1 -1,2v2h-1l1,1 -1,5 2,8 1,1v1v1l1,1v3v1l-1,1 1,1v1h-1h-5h-2h-5h-4l-2,-1h-2h-1h-2h-3h-3h-1l-3,-40Z"/>
    <path data-geo-id="2500344385" data-name="New Ashford" d="M93,104l24,1 -1,11 -8,-3v9l-14,-3 -4,-1Z"/>
    <path data-geo-id="2500379985" data-name="Williamstown" d="M93,63l27,1 -1,12 -3,1 2,17 -1,11 -24,-1 -12,-1Z"/>
    <path data-geo-id="2500516425" data-name="Dartmouth" d="M669,443l17,-8 13,-8 -2,12 -1,12 7,16 5,4v1l-5,8 5,16 -5,9 -4,-7 -4,8 -11,2 -1,-9 -5,-22 2,-12Z"/>
    <path data-geo-id="2500525240" data-name="Freetown" d="M665,402v-5h14l6,6 -1,2 -1,6 27,-5v1v1l1,2 1,2 2,4 -5,2 1,1 -6,3 -5,5 -13,8v-13l-28,-7h1l7,-12Z"/>
    <path data-geo-id="2500556060" data-name="Raynham" d="M665,335l9,2v1l1,7 13,12 1,5h1h1l-1,3 1,7 -15,1 -11,-16Z"/>
    <path data-geo-id="2500568750" data-name="Swansea" d="M611,412l28,-2 -2,-13 11,10 -1,18 -8,-2 -2,10 -8,2 -3,-4 -2,-4 -1,-1 -1,-2v-1l-2,-2 -1,-1 -2,-1 -3,-1v-1h-1l-1,-1 -2,-1 -2,-1h-2v-1v-1h-1Z"/>
    <path data-geo-id="2501121780" data-name="Erving" d="M294,118l2,-1 7,-6 22,-7 4,11v4l-17,-4 -10,11 -10,-1Z"/>
    <path data-geo-id="2501127100" data-name="Greenfield Town" d="M258,101h3l10,-1 11,-2 -3,15 -8,6 1,6 -4,4 -11,-4h-3Z"/>
    <path data-geo-id="2501342145" data-name="Monson" d="M321,277l12,-2 7,6h11l1,18v22h-5h-3h-5h-4h-1h-2l-5,-1h-1l-3,-25Z"/>
    <path data-geo-id="2501365825" data-name="Southwick" d="M202,294l35,8 -2,16h-1h-4h-6h-1l1,3 -1,2h-1l-1,1v-1h-1h1l-1,1h1v1h1l-1,1v1v1h-1l-2,2 -5,1h-4l-2,1 1,-14h-4h-2Z"/>
    <path data-geo-id="2501552560" data-name="Pelham" d="M301,186l4,-1 20,-3v1h1v1v1v1h1h-1l1,1v1v1v1v1v1l1,1v1h-1l1,1v1h-1v1h1v1v1l1,1v1h1v1v1v1v1v1v1h-1h1l-1,1h1v1v1v1l-13,1 -1,-8 -17,3 -3,-21Z"/>
    <path data-geo-id="2502174175" data-name="Wellesley" d="M601,221l1,-1h1h1v-1h1h1v-1h1h1h1l1,-1h3l1,-1 1,-1h1l11,4 -18,16 -3,1v-1v-1l-5,-11Z"/>
    <path data-geo-id="2502773895" data-name="Webster" d="M455,305l14,-5 6,24h-5h-1h-1h-1h-1h-1h-2h-1h-1h-1h-1h-2h-3Z"/>
    <path data-geo-id="2502730945" data-name="Hopedale" d="M540,276l15,15v2l1,3 -6,1 -13,-16Z"/>
    <path data-geo-id="2502734165" data-name="Lancaster" d="M495,163l7,-21 7,1 3,1h3l1,1h2l2,1v17l-7,16 -7,-2 -8,9v-23Z"/>
    <path data-geo-id="2502728950" data-name="Harvard" d="M524,136h1l2,2h1l2,1 4,-3h2l6,2 3,1v3l2,2 1,3 -1,2 -3,5 -2,3 -1,6 3,3 -1,7 -23,-10v-17Z"/>
    <path data-geo-id="2502725485" data-name="Gardner" d="M412,118l16,-10 15,10 1,3 -14,22 -6,-5Z"/>
    <path data-geo-id="2502753225" data-name="Phillipston" d="M384,110h4l4,4 -1,13 8,14 3,15 -4,3h-1l-22,-23 1,-12Z"/>
    <path data-geo-id="2502753120" data-name="Petersham" d="M340,191h1v-1v-1v-1v-1h1v-1v-1h1v-1v-1v-1h1l1,-1h-1h1v-1h1v-1h1v-1v-1h1v-1h1v-1h1l-3,-14 6,-5 1,-2 4,-4 1,-1 16,-13 22,23 -27,24 -4,8 -11,1 -7,15h-1h-1l-1,1h-1l-1,1v-1v1v1h-1v-1v1h-1v-3v-1v-1v-1h1l-1,-1h1v-1v-1h-1v-1h1v-1l-1,-1v-1v-1v-1h1v-1l-1,-1v-1v-1Z"/>
    <path data-geo-id="2502728740" data-name="Hardwick" d="M370,183l22,20 -10,7 -7,13 -7,4h-1v-1v-1h1v-1v-2v-1l-6,1 -2,1h-1h-5v1h-2l-1,-2 -1,-7v-3l-1,-5h-1l7,-15 11,-1Z"/>
    <path data-geo-id="2502741165" data-name="Milford" d="M541,267l10,-2h4l1,4 1,4h1h2l2,4v8l-7,6 -15,-15Z"/>
    <path data-geo-id="2502741585" data-name="Millville" d="M531,310h8v18h-1h-1h-3h-1h-1h-1Z"/>
    <path data-geo-id="2502379530" data-name="Whitman" d="M695,300l15,-4 4,4 -2,10 -17,-4Z"/>
    <path data-geo-id="2502703740" data-name="Barre" d="M397,159h1l24,23 -8,6 -20,17 -2,-2 -22,-20Z"/>
    <path data-geo-id="2502775155" data-name="West Boylston" d="M471,188l16,2 4,4 -4,6 -1,21 -1,1 -5,-11 -4,3Z"/>
    <path data-geo-id="2502375260" data-name="West Bridgewater" d="M670,314l12,-2 10,3 2,13 -20,10v-1l-3,-17 -1,-3v-2Z"/>
    <path data-geo-id="2502328495" data-name="Hanson" d="M714,300h4l11,-3v14l3,13 -16,1 -4,-15Z"/>
    <path data-geo-id="2502556585" data-name="Revere" d="M679,184v-1l1,-2v-1v1v-1l1,-1 1,-3 -1,-3 1,-1h1l1,1v1v1v1v1h1v2l1,-1h1h1l2,-1h1v1l1,13v1l-1,1 -2,-2 -5,-1 -5,-6Z"/>
    <path data-geo-id="2502340850" data-name="Middleborough" d="M688,357h1l6,-4 8,2 3,-9 6,-3 13,5 9,9 5,8 6,25 5,3 -1,6 -32,6v-13l-7,-8 1,-9 -18,-10h-1h-1h-1l1,-3h-1h-1Z"/>
    <path data-geo-id="2502357600" data-name="Rochester" d="M710,406l7,-1 32,-6 -1,18 -6,18 -17,3 -2,-5 -3,-16 -5,1 -1,-2 -2,-4 -1,-2 -1,-2v-1v-1Z"/>
    <path data-geo-id="2502705490" data-name="Berlin" d="M513,183l15,8 6,4 -6,6 -5,7 -14,-5v-9Z"/>
    <path data-geo-id="2500916250" data-name="Danvers" d="M696,118l8,-5 3,8 3,15 -1,-1 1,3 -1,1 -23,-8 3,-9Z"/>
    <path data-geo-id="2500927900" data-name="Hamilton" d="M709,107h2l1,-11 23,6 4,17h-4l-27,-9Z"/>
    <path data-geo-id="2500945175" data-name="Newbury" d="M695,62l12,-12 3,-2 19,-2 2,-1h1l2,-2v2l1,-3h1l4,21 -4,1 -4,-1 -13,2 -5,1 -8,3 -9,-6Z"/>
    <path data-geo-id="2500932310" data-name="Ipswich" d="M700,89l23,-12 9,-7 9,15 12,2 5,7 -15,-2 -2,3 -6,7 -23,-6 -16,-4Z"/>
    <path data-geo-id="2500941095" data-name="Middleton" d="M671,115l1,-7 9,-5 12,7 3,8 -7,4 -3,9h-2l-6,-1v-2l1,-2v-1l-1,-2 -6,-6h-1Z"/>
    <path data-geo-id="2500945245" data-name="Newburyport" d="M702,38l9,-5 4,3v2l14,8 -19,2 -3,2Z"/>
    <path data-geo-id="2500958405" data-name="Rowley" d="M692,84l14,-15 8,-3 5,-1 13,-2v1v6l-9,7 -23,12Z"/>
    <path data-geo-id="2501513590" data-name="Chesterfield" d="M192,176l8,-1 9,5v7l11,1 -1,15 -12,2v5l-7,-1h-10l-4,-32Z"/>
    <path data-geo-id="2501526290" data-name="Goshen" d="M199,159h2l2,1 1,1h2l2,1 13,3 2,1 -1,4 2,2 -4,16 -11,-1v-7l-9,-5Z"/>
    <path data-geo-id="2501516040" data-name="Cummington" d="M164,163l2,-8v-1v-1l29,4 4,2 1,16 -8,1 -30,-6Z"/>
    <path data-geo-id="2502104930" data-name="Bellingham" d="M555,293v-2l7,-6 9,-1 -4,23v13v6h-2h-2l-3,1h-1h-1h-1h-1v-2v-10v-1v-4v-4v-3v-4l1,-3h-1Z"/>
    <path data-geo-id="2502109175" data-name="Brookline" d="M642,219v-1l1,-1h1l1,-1 1,-2 2,-2h1l-1,-1h2l1,-1 2,-2 2,-1 4,1 1,1v1l-2,1v1v1v1h-1v1v1l-2,1 -1,1 -1,2 -1,1 -2,3 -1,1 -1,1 -1,1v-1h-1l-2,-2 -1,-2Z"/>
    <path data-geo-id="2502111315" data-name="Canton" d="M646,261l2,-3 1,-1 1,-4v-1l3,-1v-1l8,10 9,13 -8,7 -14,3 -7,-10Z"/>
    <path data-geo-id="2502114640" data-name="Cohasset" d="M726,246l3,-1 -1,-2h-1v-1v-1l1,-2v-1h1v-1h2h1h2l9,9h1v-1v1l1,1 -1,1h-1v1h1v1v1l-1,-1v2h-1l-3,3 -2,2 -2,1 -1,1v1l-5,-5 -1,-3 -1,-2v-1v-1Z"/>
    <path data-geo-id="2502141515" data-name="Millis" d="M581,265h3l3,-1 10,-3 7,7 -4,5 -2,6 -10,5 -6,-15Z"/>
    <path data-geo-id="2502141690" data-name="Milton" d="M653,250l1,-1h1v-1l-1,-2 3,-1h1v-1l1,-1 1,-4h2v-1l2,-1 1,-1 2,-1h1h2v1h1l2,-1v-1l1,-1h2l3,8 -14,18 -4,1Z"/>
    <path data-geo-id="2502144105" data-name="Needham" d="M608,236l1,-1 18,-16v1v1l1,1 4,2 -1,1 2,1v2l4,2v1v1l-11,8Z"/>
    <path data-geo-id="2502150250" data-name="Norwood" d="M625,266l10,-10 11,5 -5,12 -4,6Z"/>
    <path data-geo-id="2502155955" data-name="Randolph" d="M661,260l4,-1 10,-1 8,7v7l-4,11 -6,-6 -3,-4Z"/>
    <path data-geo-id="2502167945" data-name="Stoughton" d="M648,283l14,-3 8,-7 3,4 -4,7 3,11 -4,2 -1,1h-1l-4,2 -4,3 -7,3 2,-14Z"/>
    <path data-geo-id="2502172495" data-name="Walpole" d="M607,279h8l2,-18 5,-1 3,6 12,13 -11,5 -1,10 -11,6Z"/>
    <path data-geo-id="2500546575" data-name="North Attleborough" d="M587,358v-7v-1v-1v-2v-1v-1v-1v-2v-1v-1v-1v-1h1h1h2h1l2,-2 2,-1h2l1,-1h1l1,-1 1,-1 3,-1 1,-1 6,-3 5,10 -30,26v-2v-2Z"/>
    <path data-geo-id="2500500520" data-name="Acushnet" d="M704,422l6,-3 -1,-1 5,-2 1,2 5,-1 3,16 2,5 1,6 1,1 -15,6v-2Z"/>
    <path data-geo-id="2500516950" data-name="Dighton" d="M639,375l17,4 4,5 -2,11 -2,10v2h-8l-11,-10 -2,-23Z"/>
    <path data-geo-id="2500502690" data-name="Attleboro" d="M587,363l30,-26 3,4 13,24 -25,2 -9,2h-2h-1h-1h-1h-1l-1,1h-2h-1h-1h-1Z"/>
    <path data-geo-id="2500538225" data-name="Mansfield" d="M612,327l17,-9 7,-4 5,-2 3,-2 2,18 -26,13 -3,-4Z"/>
    <path data-geo-id="2500520100" data-name="Easton" d="M644,310l6,-3 1,-1 7,-3 4,-3 4,-2 2,10 1,4 1,2v1v2l1,3 3,17 -9,-2 -3,-1 -13,-2 -3,-4Z"/>
    <path data-geo-id="2500545000" data-name="New Bedford" d="M697,439l2,-12 5,-5 8,27h-1l-1,11 6,13 -8,-3v1l-5,-4 -7,-16Z"/>
    <path data-geo-id="2500549970" data-name="Norton" d="M620,341l26,-13 3,4 13,2 -9,13 -16,17 -4,1Z"/>
    <path data-geo-id="2500556375" data-name="Rehoboth" d="M608,367l25,-2 4,-1 2,11 -4,-1 2,23 2,13 -28,2Z"/>
    <path data-geo-id="2500562430" data-name="Somerset" d="M637,433l2,-10 8,2 1,-18h8l2,5 -13,21h-8Z"/>
    <path data-geo-id="2501731540" data-name="Hudson" d="M528,191l5,-4h1l5,-1h1l23,7 -1,4 -34,4 6,-6Z"/>
    <path data-geo-id="2501737875" data-name="Malden" d="M664,173l1,1 16,-1 1,3 -1,3 -1,1v1l-12,3Z"/>
    <path data-geo-id="2500334340" data-name="Lanesborough" d="M80,149l14,-30 14,3 -3,14h7l-1,10 7,1 -5,9Z"/>
    <path data-geo-id="2500938400" data-name="Marblehead" d="M717,154l1,-1 4,-7 7,3 -10,11v1l-5,-2Z"/>
    <path data-geo-id="2501529265" data-name="Hatfield" d="M246,199l2,-14h2l8,-2h2h2l3,-1v-1h2l3,-1 1,1 -2,24 -12,1 -2,-9Z"/>
    <path data-geo-id="2502712715" data-name="Charlton" d="M416,270l2,-4 22,-1h6l5,31 -3,4 -22,7 -1,-7 -13,-7 5,-11Z"/>
    <path data-geo-id="2500926150" data-name="Gloucester" d="M755,101l1,-1 4,-5 13,4 -3,-5 11,-8 -1,17 6,4v1l-8,10 -6,-4 -11,12 -8,-9 -3,-7Z"/>
    <path data-geo-id="2501737000" data-name="Lowell" d="M589,97l19,-2 6,3 1,9 -7,7 -5,2 -12,-8 -4,-7Z"/>
    <path data-geo-id="2500927620" data-name="Groveland" d="M671,71l4,-8 6,-11 14,10 2,1 -20,8 1,5Z"/>
    <path data-geo-id="2500103690" data-name="Barnstable Town" d="M834,450l19,-28 2,1h1h1h1h1l1,1h1h1h3h1h2h2h1h2h2h2h1v1l2,1 1,1 -18,1 6,5 17,-1 -3,23 -1,-1v5l-11,4 -7,-4 -14,11v-6l-10,1 -1,6v1v1h-1l-1,3v1h-1l-3,-4v-1l4,-7Z"/>
    <path data-geo-id="2500107980" data-name="Brewster" d="M918,418h1l1,-1 2,-2 1,-1h1h1h-1v1h1l-1,1v-1v1v-1h1h-1v-1h1h-1l2,-1h1l1,-1h1h1v-1h1h2l1,-1h1h1h1l1,-1h1v-1h1h1l1,-1h1l1,-1 2,-1h1v-1h1h1l3,1 5,20 -15,3 -12,-1 -11,7Z"/>
    <path data-geo-id="2500123105" data-name="Falmouth" d="M791,453l1,-1 12,5 8,3 4,13 5,1 -2,10v-1l-4,8h-1v-1h-1h-1l-2,1h-1l-6,1 -1,1h-3h-1h-1l-1,1h-1h-1h-1h-1h-2l-1,1h-1l-1,1 -2,1 -1,1 -1,1v1l-1,1v2l-1,1 -6,-5 10,-16 -3,-26 9,-4Z"/>
    <path data-geo-id="2500151440" data-name="Orleans" d="M949,404v-1l1,-1v-1h1v-1h1h1h2l4,1 -1,2 7,-7 8,5 2,26h-1v-1l-3,-14 -8,1 1,8 -7,3v1l-5,-20 -3,-1Z"/>
    <path data-geo-id="2500174385" data-name="Wellfleet" d="M933,343l22,-3v1v1v1h1l1,3 9,24 -11,2h-1l-1,-1v-1v-8l-9,-9 -9,9 -2,-19Z"/>
    <path data-geo-id="2500960015" data-name="Saugus" d="M673,162v-1v-1v-1l2,-2 1,-1v-1l-1,-2h1l1,-1h1l6,1 6,17 5,3 -4,5v-1h-1l-2,1h-1h-1l-1,1v-2h-1v-1v-1v-1v-1l-1,-1h-1l-1,1 -5,-6 -1,-1v-2h-1l-1,-1v-1Z"/>
    <path data-geo-id="2500970150" data-name="Topsfield" d="M693,110l3,-18 16,4 -1,11h-2l-1,3 -4,3 -8,5Z"/>
    <path data-geo-id="2500977150" data-name="West Newbury" d="M681,52l5,-10 8,-4h8l5,12 -12,12Z"/>
    <path data-geo-id="2500901465" data-name="Andover" d="M619,98l5,-4 5,-12 6,1h2v8h14l15,26h-2l-9,1h-1h-3l-2,-1 -1,-1v-1l-1,-1 -1,-2 -1,1v1v2v1h-1v2l-1,-1 -3,-2v-1v-1l2,-2h-1v-1h-2l-2,-1v-1l-1,-1h-1h-1l-2,-2h-1l-4,-3 -1,-1 -1,-1h-1l-2,-1 -2,-2Z"/>
    <path data-geo-id="2500907420" data-name="Boxford" d="M671,71l7,5 2,5 12,3 8,5 -4,3 -3,18 -12,-7 -4,-9 -19,-24Z"/>
    <path data-geo-id="2500921850" data-name="Essex" d="M735,102l6,-7 2,-3 9,1h1l-1,1 3,7 -5,9 3,7 -14,2Z"/>
    <path data-geo-id="2500934550" data-name="Lawrence" d="M651,75l-3,8 2,4 1,4h-14v-8l5,-9Z"/>
    <path data-geo-id="2500937490" data-name="Lynn" d="M684,153l6,-4 10,6 4,2 3,8 -2,2 -1,2h-1h-1l-7,4 -5,-3Z"/>
    <path data-geo-id="2500937560" data-name="Lynnfield" d="M667,142v-2v-4l1,-3 1,-1 4,-4h3h1h1v2v5l12,14 -6,4 -6,-1v-1l-1,-1v-1h-1l1,-1 -1,-1v-1l-5,-1h-1h-1v-1h-1l-1,-1Z"/>
    <path data-geo-id="2500940710" data-name="Methuen Town" d="M627,66h2l3,1 2,1h1l2,-4v-1v-4v-2v-2v-5v-1l19,19 -5,7 -9,-1 -5,9h-2l-6,-1 -5,12v-1l-1,-8 -3,-15v-2Z"/>
    <path data-geo-id="2500937995" data-name="Manchester-by-the-Sea" d="M735,119h4l14,-2 8,9 -20,5 -4,-8Z"/>
    <path data-geo-id="2501116670" data-name="Deerfield" d="M246,134l11,-9 11,4 4,-4 6,6 -3,13 2,7 -7,14 -18,-2 2,-21Z"/>
    <path data-geo-id="2501142040" data-name="Monroe" d="M156,80l1,-9v-4v-1l23,1h1l-5,12h-1l-7,1h-2h-1h-3h-3h-2Z"/>
    <path data-geo-id="2500959105" data-name="Salem" d="M700,155l8,-9 1,-7 1,-1 1,-2 5,4h1v14l-3,5 -10,-2Z"/>
    <path data-geo-id="2501135180" data-name="Leverett" d="M287,150l16,-2 5,2 -3,26 -10,1 -5,1 -6,1 -1,-11Z"/>
    <path data-geo-id="2501352144" data-name="Palmer Town" d="M319,265h6h4v-1l-1,-1v-1h1v-1h-1v-1v-1l-1,-1h1h1l1,-1 1,1v-1h1h1v-1v-1v-1h1h1v-1l8,-3 9,-2h1v1v1h1h1l3,-3 6,-2h1l-8,10 -1,2 -1,1 -1,2v2v1v1v1v1l-3,15h-11l-7,-6 -12,2 -2,-12Z"/>
    <path data-geo-id="2501358650" data-name="Russell" d="M187,286l7,-33 1,-3v1l1,1 13,23 -11,15Z"/>
    <path data-geo-id="2501370045" data-name="Tolland" d="M141,291l-1,-1h1v-2l1,-2 -1,-1v-1v-1v-3l5,-2h1h1l2,1 14,2 3,21 -3,15 -4,-1h-1h-2h-1h-3h-2h-2h-2h-1l-2,-1v-1l-1,-1 1,-1v-1v-3l-1,-1v-1v-1l-1,-1 -2,-8Z"/>
    <path data-geo-id="2501135285" data-name="Leyden" d="M248,70h9l11,1 3,29 -10,1 -13,-22Z"/>
    <path data-geo-id="2501145490" data-name="New Salem" d="M327,153l4,-17h22l1,6v1l3,3 2,3 -1,1 -4,4 -1,2 -6,5 3,14h-1v1h-1v1h-1v1v1h-1v1h-1v1h-1h1l-1,1h-1v1v1v1h-1v1v1h-1v1v1v1v1h-1h1v1v1l1,1v1h-1v1v1v1l1,1v1h-1v1h1v1v1h-1l1,1h-1v1v1v1v3v1h-1h-1v1l-1,1 1,1h-1v1v1h-1v-1v1v1v1h-1h-1v1v1h-1v1h-1l-1,1v-1h-1l1,1h-1h1v1v1l-1,-1h-1v1v-1h-1v-1v-1h1v-1v-1h1h-1h1v-1h-1h1v-1v-1h1h-1v-1v-1h1h-1v-1h1v-1h-1v-1h-1v-1v-1v-1h-1l1,-1h-1h1v-1v-1v-1v-1v-1v-1h-1v-1l-1,-1v-1v-1h-1v-1h1v-1l-1,-1h1v-1l-1,-1v-1v-1v-1v-1v-1l-1,-1h1h-1v-1v-1v-1h-1v-1l-2,-16h4Z"/>
    <path data-geo-id="2501151265" data-name="Orange" d="M329,115l11,-2v-6l13,-16h3v3l5,2 4,6v2v2v1v1l-2,2 1,1v1v1h-1h-1l-4,1h-1v3h-1l-1,1h-1l1,9 -1,-1h-1h-1l1,6v3v1h-22l-2,-17Z"/>
    <path data-geo-id="2501336300" data-name="Longmeadow" d="M268,305l13,3 2,11h-3l-4,1h-1l-3,1h-1v1h-1h-1h-1h-1h-2h-1h-2v-2Z"/>
    <path data-geo-id="2500726325" data-name="Gosnold" d="M769,504l-4,10 -11,4 1,4 -12,6 -1,-7 18,-13Z"/>
    <path data-geo-id="2500769940" data-name="Tisbury" d="M797,534l-4,5 -12,-16h1l14,-8 4,12 -3,7Z"/>
    <path data-geo-id="2501105560" data-name="Bernardston" d="M274,71h2h13l6,18 1,6 -14,3 -11,2 -3,-29Z"/>
    <path data-geo-id="2501705070" data-name="Belmont" d="M634,184l13,5 -1,9 -10,-4 -5,-7Z"/>
    <path data-geo-id="2501711000" data-name="Cambridge" d="M647,189l5,-1 8,10 8,1h1l1,1h-1l-1,1 -6,5h-4l-1,-1 -6,-4 -2,1 -3,-4Z"/>
    <path data-geo-id="2501713135" data-name="Chelmsford" d="M577,100l10,1 4,7 12,8 5,-2 -8,18 -15,4Z"/>
    <path data-geo-id="2501721990" data-name="Everett" d="M668,188v-4l12,-3v-1v1l-1,2v1l-1,1v1v1h-1v1l-2,2h-1l-1,1h1v1l-5,-1 -1,1v-4Z"/>
    <path data-geo-id="2501730700" data-name="Holliston" d="M555,265l12,-10 -2,-5 12,-2 10,16 -3,1h-3l1,4h-1h-4h-1l-14,8 -2,-4h-2h-1l-1,-4Z"/>
    <path data-geo-id="2501112505" data-name="Charlemont" d="M174,97l6,-5 19,-2 1,10 9,4 12,-8 2,11 9,-2 -1,2 -27,5 -30,-6 1,-4Z"/>
    <path data-geo-id="2501114885" data-name="Colrain" d="M246,70h2v9l13,22h-3l-26,4 -9,2 -2,-11 -3,-28h5Z"/>
    <path data-geo-id="2501743895" data-name="Natick" d="M587,220h9l5,-6v7v2l5,11v1v1l1,7 -7,1 -15,-9 -3,-7Z"/>
    <path data-geo-id="2501748955" data-name="North Reading" d="M651,118h3h1l9,-1h2l3,-2h2v2h1l6,6 1,2v1l-1,2h-1h-1h-3l-4,4 -1,1 -9,-3 -5,3 -3,2Z"/>
    <path data-geo-id="2501752805" data-name="Pepperell" d="M513,101l2,-21 5,1h2l22,1 -3,9 4,5 -11,3 -6,11Z"/>
    <path data-geo-id="2501768260" data-name="Sudbury" d="M562,197l1,-4 1,-4 6,-2 4,-10 16,8 1,9 -6,8 -2,9 -23,-4Z"/>
    <path data-geo-id="2501769415" data-name="Tewksbury" d="M614,98h5h1l2,2 2,1h1l1,1 1,1 4,3h1l2,2h1h1l1,1v1l2,1h2v1h1l-2,2v1v1l3,2 1,1 -9,12 -4,-3 -3,-2 -20,-12 7,-7Z"/>
    <path data-geo-id="2501771025" data-name="Tyngsborough" d="M556,101l13,-6 -2,-12h22v14l-2,4 -10,-1 -20,12Z"/>
    <path data-geo-id="2501773440" data-name="Watertown Town" d="M630,201l6,-7 10,4 3,4 -4,2h-1h-1Z"/>
    <path data-geo-id="2501773790" data-name="Wayland" d="M585,202l6,-8 -1,-9 9,6 2,23 -5,6h-9l-4,-9Z"/>
    <path data-geo-id="2501780230" data-name="Wilmington" d="M629,132l1,-4h1l4,3 9,-12v-2h1v-1v-2v-1l1,-1 1,2 1,1v1l1,1 2,1v17v8l-9,5 -9,-10Z"/>
    <path data-geo-id="2501761380" data-name="Sherborn" d="M577,248v-7l8,-6 15,9 1,2v3l-2,2 -1,1 -1,1v1l1,1v1l-3,1v1l1,2 1,1 -10,3Z"/>
    <path data-geo-id="2501761590" data-name="Shirley" d="M509,132l1,-1v-5v-1l1,-4v-1v-1l1,-5 1,-8 14,19 -3,11 -4,10 -2,-1h-2l-1,-1h-3l-3,-1Z"/>
    <path data-geo-id="2502308085" data-name="Bridgewater" d="M674,338l20,-10 16,1 2,4h3l-3,10 -6,3 -3,9 -8,-2 -6,4h-1l-13,-12Z"/>
    <path data-geo-id="2502309000" data-name="Brockton" d="M666,298h1l1,-1 4,-2 8,-4 1,-1h1h1l1,-2h1l1,-1h1l8,13v6l-3,9 -10,-3 -12,2 -1,-2 -1,-4Z"/>
    <path data-geo-id="2502311665" data-name="Carver" d="M753,350l1,5 20,31 -8,6 -2,10h-6l-8,-9 -5,-3 -6,-25 -5,-8Z"/>
    <path data-geo-id="2502330210" data-name="Hingham" d="M722,238h6v1l-1,2v1v1h1l1,2 -3,1 1,2v1v1l1,2 1,3 5,5 -5,2 -12,8 -10,6 1,-6v-1v-1v-1l1,-1v-4v-2v-2v-1h1v-1v-1v-1v-2v-1h-1h-1v-1l-3,-7 17,-6Z"/>
    <path data-geo-id="2502333920" data-name="Lakeville" d="M679,397l7,-7 1,-1 3,-3 3,-3 2,-6v-1v-1l-1,-1v-1v-1l-1,-3 -1,-3v-1h1l18,10 -1,9 7,8v13l-7,1 -27,5 1,-6 1,-2Z"/>
    <path data-geo-id="2502354310" data-name="Plymouth" d="M770,337l8,9 11,6 7,-3 12,7 7,26 -3,16 -2,2 -1,1 -1,2 -2,1v1h-2l-1,2 -3,1 -1,1 -1,1h-1h-1l-1,1 -4,2 -1,1h-1h-1v1h-1l2,-15 -25,2 2,-10 8,-6 -20,-31Z"/>
    <path data-geo-id="2502360330" data-name="Scituate" d="M734,260v-1l1,-1 2,-1 2,-2 3,-3h1v-2l1,1v-1v-1h-1v-1h1l1,-1 -1,-1v-1l6,-3 3,9 8,6 2,13 -5,3h-5l-15,-12 -9,1Z"/>
    <path data-geo-id="2502354415" data-name="Plympton" d="M740,327h2l2,12 9,11 -19,7 -9,-9 11,-11Z"/>
    <path data-geo-id="2501147835" data-name="Northfield" d="M289,71l13,2h2h1h11l9,31 -22,7 -7,6v-11l6,-7 -7,-10Z"/>
    <path data-geo-id="2501129475" data-name="Hawley" d="M171,121l3,-14v-1l30,6 -3,19 -7,7 -3,-2h-1h-4l-2,-1h-1h-2l-4,-1 -1,-1 -5,-1h-3Z"/>
    <path data-geo-id="2500701585" data-name="Aquinnah" d="M749,570l-5,6 -1,-1 -9,-9 7,-6 7,10Z"/>
    <path data-geo-id="2501531785" data-name="Huntington" d="M183,245l5,-5 3,-5v-5v-14v-2v-2l-1,-3h10l7,1 2,29v4l-7,1 -7,6 -1,3 -4,-3h-1l-3,-2Z"/>
    <path data-geo-id="2502300170" data-name="Abington" d="M693,283l4,-2 6,-4v1l7,18 -15,4 -8,-13Z"/>
    <path data-geo-id="2502317895" data-name="Duxbury" d="M754,296l19,14 8,-6v1l9,17 2,4h-2v-1l-9,-11 -16,15v1l-16,-7 -3,-8Z"/>
    <path data-geo-id="2502318455" data-name="East Bridgewater" d="M695,306l17,4 4,15 -1,8h-3l-2,-4 -16,-1 -2,-13Z"/>
    <path data-geo-id="2501504825" data-name="Belchertown" d="M299,207l17,-3 1,8 13,-1h1v1h1v1h-1v1h1h-1v1v1h1h-1v1v1h-1h1v1h-1h1h-1v1v1h-1v1v1h1v1l6,11 -1,18v1h-1h-1v1v1v1h-1h-1v1l-1,-1 -1,1h-1h-1l1,1v1v1h1v1h-1v1l1,1v1h-4h-6l-2,-16 -4,1h-2h-5l-5,-28Z"/>
    <path data-geo-id="2501519370" data-name="Easthampton Town" d="M261,228l1,1h-1v1l-4,4 -6,16h-3h-2l-7,-13 -9,-5v-3Z"/>
    <path data-geo-id="2501527690" data-name="Hadley" d="M257,206l12,-1 2,-24h1l2,-1h1h1h1l3,-1 4,9 -2,13 1,22h-11l-10,6 -1,-1 9,-13Z"/>
    <path data-geo-id="2501572880" data-name="Ware" d="M330,224v-1h1l1,1v-1v-1h-1h1l-1,-1h1v1l1,-1h1v-1h1v-1v-1h1h1v-1v-1v-1v1h1v-1v-1h1l-1,-1 1,-1v-1h1h1v-1h1v-1v1h1v-1v-1v1l1,-1h1l1,-1h1h1h1l1,5v3l1,7 1,2h2v-1h5h1l2,-1 6,-1v1v2v1h-1v1v1h1l2,1v1l-2,2v3v2h-1h-1l1,3v2h1v1v1l-1,1 -2,1h-1l-6,2 -3,3h-1h-1v-1v-1h-1l-9,2 -8,3 1,-18 -6,-11Z"/>
    <path data-geo-id="2501579915" data-name="Williamsburg" d="M220,188l4,-16h2h1l2,-1h2l3,-1h3h2l-1,16h3h5v-1h2l-2,14 -17,2 -10,2Z"/>
    <path data-geo-id="2502327795" data-name="Halifax" d="M715,333l1,-8 16,-1 8,3 -4,10 -11,11 -13,-5Z"/>
    <path data-geo-id="2502338540" data-name="Marion" d="M742,435l6,-18 8,8 9,9v11l-11,-11 4,12 -6,-1v1l-10,-3Z"/>
    <path data-geo-id="2502352630" data-name="Pembroke" d="M729,297l11,-6 6,-1 8,6 -8,19 3,8 -7,4h-2l-8,-3 -3,-13Z"/>
    <path data-geo-id="2502339450" data-name="Mattapoisett" d="M725,438l17,-3v8l10,3 2,9 -16,-2 4,6 -10,5h-1v-6l-2,-4 -2,-9 -1,-1Z"/>
    <path data-geo-id="2502357775" data-name="Rockland" d="M703,277l4,-1 10,-6 2,7h-5l4,23h-4l-4,-4 -7,-18Z"/>
    <path data-geo-id="2502333220" data-name="Kingston" d="M749,323l16,7 3,5 2,2 -16,18 -1,-5 -9,-11 -2,-12Z"/>
    <path data-geo-id="2500523000" data-name="Fall River" d="M658,416v-1l28,7v13l-17,8 -10,-1 -6,31h-1v-2v-2l1,-4v-5h1v-1v-6h-1h-1l-1,-1h-1h-1h-1h-1l-1,-1h-1h-1h-1v-2h-1h-1h-1v-1h-1h-2l17,-23 3,-9Z"/>
    <path data-geo-id="2500569170" data-name="Taunton" d="M637,364l16,-17 9,-13 3,1v22l11,16 15,-1 -1,-7h1h1v1l1,3 1,3v1v1l1,1v1v1l-2,6 -3,3 -3,3 -23,-12 -4,7 -4,-5 -17,-4Z"/>
    <path data-geo-id="2500577570" data-name="Westport" d="M669,443l11,22 -2,12 5,22 1,9 -4,3 -15,-5 12,-2 -2,-15 -5,15 -13,-11 9,15 -8,3v-1v-2v-1l-1,-1v-1v-1v-1v-6l-1,-5v-1v-1v-1v-1v-1l-1,-1v-2v-2l-1,-5 -1,-3v-1l6,-31Z"/>
    <path data-geo-id="2501731085" data-name="Hopkinton" d="M529,252l5,-13 2,-1h1l3,-1 3,1h1l1,1v-1h4l16,12 2,5 -12,10h-4l-10,2v-1v-1l-1,-1 -6,-2Z"/>
    <path data-geo-id="2501745560" data-name="Newton" d="M619,206l11,-5 13,3h1l-1,1h-1v1v1l1,3 1,1h-1l3,3 -1,2 -1,1h-1l-1,1v1l1,3 1,2 -7,7v-1l-4,-2v-2l-2,-1 1,-1 -4,-2 -1,-1v-1v-1l-11,-4Z"/>
    <path data-geo-id="2501738715" data-name="Marlborough" d="M523,208l5,-7 34,-4 -2,10 -1,8h-1h-2h-3h-1h-2h-1h-2l-14,7 -2,-3 -1,-1 -1,-1 -1,-2v-2l-1,-1 -2,-1v-1h-1l-1,-2Z"/>
    <path data-geo-id="2501700380" data-name="Acton" d="M556,167l7,-13 11,-10 8,-2 4,10 -12,25 -9,-5Z"/>
    <path data-geo-id="2501703005" data-name="Ayer" d="M524,136l3,-11 25,4 -7,10 -3,-1 -6,-2h-2l-4,3 -2,-1h-1l-2,-2Z"/>
    <path data-geo-id="2501701955" data-name="Ashby" d="M484,80l-1,23v2l-22,2v-2l1,-3v-2v-3v-3l-3,-5v-1h-1l-1,-1 -2,-1 -2,-3 -2,-4 30,1Z"/>
    <path data-geo-id="2501702130" data-name="Ashland" d="M549,238l5,-3 1,-2 1,-4 21,12v7l-12,2Z"/>
    <path data-geo-id="2501701605" data-name="Arlington" d="M639,177h8l5,7v4l-5,1 -13,-5Z"/>
    <path data-geo-id="2502709105" data-name="Brookfield" d="M385,267l9,-20 11,2 3,11 -3,12 -4,5 -13,-3 -1,1h-2Z"/>
    <path data-geo-id="2501501325" data-name="Amherst" d="M280,179h4l6,-1 5,-1 1,2v1v3v3l3,21 2,15 -17,2 -1,-1 -1,-22 2,-13Z"/>
    <path data-geo-id="2502507000" data-name="Boston" d="M637,231l7,-7 2,2h1v1l1,-1 1,-1 1,-1 2,-3 1,-1 1,-2 1,-1 2,-1v-1v-1h1v-1v-1v-1l2,-1v-1l-1,-1 -4,-1 -2,1 -2,2 -1,1h-2l1,1h-1l-2,2 -3,-3h1l-1,-1 -1,-3v-1v-1h1l1,-1h1l4,-2 2,-1 6,4 1,1h4l6,-5 1,-1h1l14,12 -8,2 1,17v1l-1,1h-2l-1,1v1l-2,1h-1v-1h-2h-1l-2,1 -1,1 -2,1v1h-2l-1,4 -1,1v1h-1l-3,1 1,2v1h-1l-1,1 -2,-1h-1v-1v-1l-1,-1v-3v-1v-1h-1h-3v-1v-1h-1v-1h-1l-6,-6ZM679,195l5,-5 5,1 2,2 -3,3 -2,1h1l-1,5h1l3,1 1,1 -6,4 -10,-9 4,-4Z"/>
    <path data-geo-id="2502513205" data-name="Chelsea" d="M674,192v-1h-1l1,-1h1l2,-2v-1h1v-1v-1l1,-1 5,6 -5,5v-1h-1h-1Z"/>
    <path data-geo-id="2502745105" data-name="New Braintree" d="M392,203l2,2 18,17 -19,2 -5,8 -3,-4 -17,-1 7,-4 7,-13Z"/>
    <path data-geo-id="2502746925" data-name="Northbridge" d="M505,274l13,-1 13,15v4l-15,6 -7,-2h-7Z"/>
    <path data-geo-id="2500304545" data-name="Becket" d="M118,227v-6l1,-9 24,-4 3,6 1,1 1,1 2,1v1l2,1 1,1h1l2,-1h1v2h1l2,-2v-1v1v17v5h-1l-1,4 -22,1 -9,-7 -10,2Z"/>
    <path data-geo-id="2500334655" data-name="Lee" d="M84,214l12,-2 2,-13 11,16 9,6v6l-17,2 -5,8h-13Z"/>
    <path data-geo-id="2500360225" data-name="Savoy" d="M140,118h4v-20l15,1 2,5 14,-2 -1,4v1l-3,14 -3,11 -1,4 -29,-6Z"/>
    <path data-geo-id="2500371095" data-name="Tyringham" d="M96,237l5,-8 17,-2 -1,14v18l-25,-16Z"/>
    <path data-geo-id="2500300555" data-name="Adams" d="M116,116l1,-11 1,-11 26,2v2v20h-4Z"/>
    <path data-geo-id="2500313345" data-name="Cheshire" d="M108,122v-9l8,3 24,2 -2,12 -5,8 -11,-2 -4,11 -7,-1 1,-10h-7Z"/>
    <path data-geo-id="2502761800" data-name="Shrewsbury" d="M486,221l17,-7 3,3 4,16 -1,9 -15,4h-4l-5,-24Z"/>
    <path data-geo-id="2502763345" data-name="Southbridge Town" d="M397,322l15,-29 13,7 1,7 -1,16h-1h-2h-1h-1h-3h-1l-2,-1h-1h-1h-2h-2h-2h-2h-2h-2h-1h-1Z"/>
    <path data-geo-id="2502758580" data-name="Royalston" d="M366,76h2l27,1 -2,32 -5,1h-4l-4,-8 -15,2v-2l-4,-6 -5,-2v-3h-3l-2,-12 -1,-4Z"/>
    <path data-geo-id="2502755395" data-name="Princeton" d="M445,157l21,-8 3,8 3,18 -3,4 -16,12 -20,-18 12,-10Z"/>
    <path data-geo-id="2500314010" data-name="Clarksburg" d="M120,64h12l11,1 7,1 -4,11 -27,-1Z"/>
    <path data-geo-id="2500316180" data-name="Dalton" d="M113,156l5,-9 4,-11 11,2 -2,18 -4,12 -7,-1 -4,15 -9,-1Z"/>
    <path data-geo-id="2501526535" data-name="Granby" d="M284,224l17,-2 5,28 -5,1 -4,1h-1l-3,1h-1h-1h-5h-2l-2,1 -3,1 -3,-24Z"/>
    <path data-geo-id="2502768155" data-name="Sturbridge" d="M388,321v-14v-7v-3v-1v-2v-1v-1v-10v-3v-5l13,3 4,-5 11,-2 1,12 -5,11 -15,29h-1h-1h-2h-2h-2l-1,-1Z"/>
    <path data-geo-id="2502768610" data-name="Sutton" d="M469,281l28,-16 8,9 -3,22h7l-5,2 -19,5 -8,-6Z"/>
    <path data-geo-id="2500324120" data-name="Florida" d="M144,96l2,-19 4,-11h7v1v4l-1,9h1h2h3h3h1h2l7,-1h1v1h-1v1v2l-3,2 -3,-1 -1,2v2h-2h-1v1h-1l7,4 3,4 1,5 -14,2 -2,-5 -15,-1Z"/>
    <path data-geo-id="2500321360" data-name="Egremont" d="M38,250l12,2 1,18h6l-12,14 -14,-11v-1Z"/>
    <path data-geo-id="2500328180" data-name="Hancock" d="M64,159l4,-13 2,-4 10,-38 1,-1 12,1 -3,14 4,1 -14,30 -3,4 -6,26 -11,-2v-1l3,-14Z"/>
    <path data-geo-id="2500326815" data-name="Great Barrington" d="M54,236h9l20,1h13l-4,6 -9,14v10l-3,5 -23,-2h-6l-1,-18 5,-4Z"/>
    <path data-geo-id="2500330315" data-name="Hinsdale" d="M131,156l12,3 -7,34 -13,-4 2,-6 -9,-1 4,-15 7,1Z"/>
    <path data-geo-id="2500778235" data-name="West Tisbury" d="M781,523l12,16 3,23h-6l-3,1h-4l-10,-10 -6,-11v-1l3,-8 11,-10Z"/>
    <path data-geo-id="2500750390" data-name="Oak Bluffs" d="M797,534v-2l7,-13 7,19v1l-1,-1h-6l-11,1Z"/>
    <path data-geo-id="2502773090" data-name="Warren" d="M354,262v-2l1,-2 1,-1 1,-2 8,-10 2,-1 1,-1 7,-1 10,25v8h-1l-5,1 -5,1h-1h-2l-11,-8h-2h-1l-1,-2 -2,-1v-1v-1v-1Z"/>
    <path data-geo-id="2502775400" data-name="West Brookfield" d="M366,236h1h1v-2v-3l2,-2v-1l-2,-1 17,1 3,4 6,15 -9,20 -10,-25 -7,1v-1v-1h-1v-2l-1,-3Z"/>
    <path data-geo-id="2502777010" data-name="Westminster" d="M443,118l18,-10 -1,30 7,1 -1,10 -21,8 -15,-14 14,-22Z"/>
    <path data-geo-id="2500713800" data-name="Chilmark" d="M744,576l5,-6h1l3,-10 13,-18h1l6,11 10,10 -2,1 -19,2 -16,11Z"/>
    <path data-geo-id="2500721150" data-name="Edgartown" d="M793,539l11,-1 17,9 3,15h9l-10,-7 9,-10 6,17h-38h-4Z"/>
    <path data-geo-id="2500345420" data-name="New Marlborough" d="M80,272l3,-5 11,2 6,7 10,-2 3,40h-3h-3h-2l-1,-1h-4h-2h-2l-3,-1h-2h-5h-3h-3l-1,-22 4,-5Z"/>
    <path data-geo-id="2500343300" data-name="Mount Washington" d="M31,273l14,11 2,7 -3,19h-13h-2h-2h-1l-1,-3v-4v-6l6,-24Z"/>
    <path data-geo-id="2500342460" data-name="Monterey" d="M92,243l25,16v6l-7,9 -10,2 -6,-7 -11,-2v-10Z"/>
    <path data-geo-id="2500346225" data-name="North Adams" d="M119,76l27,1 -2,19 -26,-2 -2,-17Z"/>
    <path data-geo-id="2502702480" data-name="Athol" d="M352,126h1h1l1,1 -1,-9h1l1,-1h1v-3h1l4,-1h1h1v-1v-1l-1,-1 2,-2v-1v-1v-2l15,-2 4,8 -8,14 -1,12 -16,13 -2,-3 -3,-3v-1l-1,-6v-1v-3Z"/>
    <path data-geo-id="2502717685" data-name="Dudley" d="M426,307l22,-7 7,5 -1,19h-1h-1h-2h-5h-5l-2,-1h-1h-1h-1h-1h-1h-1h-7Z"/>
    <path data-geo-id="2500353050" data-name="Peru" d="M143,159l21,4 -2,7 -2,9v1v4v3l-1,2v1v2l-1,2h-2l-7,-1 -3,-1 -2,-1 -2,3 -6,-1Z"/>
    <path data-geo-id="2500353960" data-name="Pittsfield" d="M80,149l33,7 -6,25 -5,5 -19,-4 -12,-3 6,-26Z"/>
    <path data-geo-id="2500356795" data-name="Richmond" d="M55,193l5,-16 11,2 12,3 -11,15v6h-2h-18Z"/>
    <path data-geo-id="2500361065" data-name="Sheffield" d="M44,310l3,-19 -2,-7 12,-14 23,2 3,13 -4,5 1,22h-4l-5,-1h-1h-2h-1h-4h-3l-10,-1h-1h-3h-1h-1Z"/>
    <path data-geo-id="2502763165" data-name="Southborough" d="M533,222l14,-7h2h1h2h1h3h2h1l1,3v1l-1,2 -3,8 -1,4 -1,2 -5,3h-4v1l-1,-1h-1l-9,-14Z"/>
    <path data-geo-id="2502730560" data-name="Holden" d="M453,191l16,-12 2,9 5,26 -20,17 -11,-23 -2,-7Z"/>
    <path data-geo-id="2502775015" data-name="Westborough" d="M510,233l10,-7 14,-2 9,14 -3,-1 -3,1h-1l-2,1 -5,13h-12l-8,-10Z"/>
    <path data-geo-id="2502782000" data-name="Worcester" d="M454,232l2,-1 20,-17 4,-3 5,11 5,24h4v2l-17,9 -3,-7 -12,2Z"/>
    <path data-geo-id="2502771480" data-name="Upton" d="M517,252h12l5,10 6,2 1,1v1v1l-1,9 -3,5 -6,7 -13,-15Z"/>
    <path data-geo-id="2500377990" data-name="West Stockbridge" d="M52,203h18l-7,15v18h-9l-8,-14 6,-19Z"/>
    <path data-geo-id="2500373335" data-name="Washington" d="M102,186l5,-5 9,1 9,1 -2,6 13,4 6,1v2l1,6v1v2v3l-24,4 -1,9 -9,-6 -11,-16Z"/>
    <path data-geo-id="2500367595" data-name="Stockbridge" d="M70,203h2h12v11l-1,23 -20,-1v-18Z"/>
    <path data-geo-id="2500380685" data-name="Windsor" d="M133,138l5,-8 29,6h1v2h1h1l-1,1v4l-2,6v3l-1,1v1v1l-2,8 -21,-4 -12,-3Z"/>
    <path data-geo-id="2502769275" data-name="Templeton" d="M388,110l5,-1 12,1 7,8 12,20 -22,18 -3,-15 -8,-14 1,-13 -4,-4Z"/>
    <path data-geo-id="2501179110" data-name="Whately" d="M238,186l1,-16 12,-2 1,-5 18,2 1,16 -1,-1 -3,1h-2v1l-3,1h-2h-2l-8,2h-2h-2v1h-5Z"/>
    <path data-geo-id="2501161905" data-name="Shutesbury" d="M295,177l10,-1 3,-26 19,3v13h-4l2,16 -20,3 -4,1h-5v-3v-3v-1Z"/>
    <path data-geo-id="2501102095" data-name="Ashfield" d="M201,131l20,-3 7,2h3l-8,36 -2,-1 -13,-3 -2,-1h-2l-1,-1 -2,-1h-2l-4,-2v-4l-1,-10v-2v-3Z"/>
    <path data-geo-id="2502117405" data-name="Dover" d="M597,253l1,-1 1,-1 2,-2v-3l-1,-2 7,-1 -1,-7 3,-1 -1,1 18,4 -4,20 -5,1 -1,-6 -18,1v-1l-1,-1Z"/>
    <path data-geo-id="2502139975" data-name="Medway" d="M562,277l14,-8h1h4h1l6,15h-1h-16l-9,1Z"/>
    <path data-geo-id="2502178690" data-name="Westwood" d="M622,260l4,-20 23,17 -1,1 -2,3 -11,-5 -10,10Z"/>
    <path data-geo-id="2502102935" data-name="Avon" d="M673,277l6,6 4,7h-1h-1l-1,1 -8,4 -3,-11Z"/>
    <path data-geo-id="2502154100" data-name="Plainville" d="M587,332v-6l20,-8 4,-2 1,11 -6,3 -1,1 -3,1 -1,1 -1,1h-1l-1,1h-2l-2,1 -2,2h-1h-2h-1h-1v-3v-3Z"/>
    <path data-geo-id="2502130455" data-name="Holbrook" d="M679,283l4,-11h11l-1,11 -6,4h-1l-1,1h-1l-1,2Z"/>
    <path data-geo-id="2502178972" data-name="Weymouth Town" d="M694,272l2,-25 2,-3v1l7,-2 3,7v1h1h1v1v2v1v1v1h-1v1v2v2v4l-1,1v1v1v1l-1,6 -4,1 -6,4 -4,2Z"/>
    <path data-geo-id="2502160785" data-name="Sharon" d="M637,279l4,-6 7,10 5,9 -2,14 -1,1 -6,3 -3,2 -16,-18 1,-10Z"/>
    <path data-geo-id="2502182315" data-name="Wrentham" d="M567,326v-6l19,-2 7,-18 20,3 -2,13 -4,2 -20,8h-1h-1h-1h-1h-1h-2h-1h-1h-1h-1h-4h-1h-2h-1Z"/>
    <path data-geo-id="2501319645" data-name="East Longmeadow" d="M299,300v1l3,18h-1h-2h-8h-2h-3h-2h-1l-2,-11 -1,-5Z"/>
    <path data-geo-id="2500905595" data-name="Beverly" d="M707,121h22l8,2 4,8v-1l-8,5 -23,1Z"/>
    <path data-geo-id="2500901260" data-name="Amesbury Town" d="M686,24l2,-2h3h1h1l4,-3h1h1l2,-1 2,-1 1,-2h1h3l3,18 -9,5h-8l-10,-14h1Z"/>
    <path data-geo-id="2500929405" data-name="Haverhill" d="M656,40l3,2 10,3 1,-3 1,-4v-2l1,-1 14,7 -5,10 -6,11 -4,8 -13,-1 -2,-2 -19,-19 12,-10Z"/>
    <path data-geo-id="2500925625" data-name="Georgetown" d="M697,63l9,6 -14,15 -12,-3 -2,-5 -1,-5Z"/>
    <path data-geo-id="2500946365" data-name="North Andover" d="M651,75l5,-7 2,2 19,24 4,9 -9,5 -1,7h-2l-3,2 -15,-26 -1,-4 -2,-4Z"/>
    <path data-geo-id="2500957880" data-name="Rockport" d="M781,86l4,9h7l2,9 -8,3 -6,-4Z"/>
    <path data-geo-id="2500940430" data-name="Merrimac" d="M673,32v-1l1,-2 1,-1 2,-2 1,-1 2,-1h2h2l10,14 -8,4 -14,-7Z"/>
    <path data-geo-id="2500952490" data-name="Peabody" d="M678,130l6,1h2l23,8 -1,7 -8,9 -10,-6 -12,-14Z"/>
    <path data-geo-id="2500968645" data-name="Swampscott" d="M704,157l10,2 5,2 -1,1 -3,5 -8,-2Z"/>
    <path data-geo-id="2500974595" data-name="Wenham" d="M704,113l4,-3 27,9 2,4 -8,-2h-22Z"/>
    <path data-geo-id="2500959245" data-name="Salisbury" d="M708,15h3h1l7,4h1v2h2l1,1 2,2 3,-2 3,-1h1l3,17 -13,2 -7,-4 -4,-3Z"/>
    <path data-geo-id="2501300840" data-name="Agawam Town" d="M237,302l2,-9 7,7 4,-4 8,4 10,-2v7l-6,15h-2h-2h-3v-1h-2h-4h-4l-1,-1h-3h-1h-1h-1h-3Z"/>
    <path data-geo-id="2502746820" data-name="Northborough" d="M506,217l3,-14 14,5 1,2h1v1l2,1 1,1v2l1,2 1,1 1,1 2,3 1,2 -14,2 -10,7Z"/>
    <path data-geo-id="2502701885" data-name="Ashburnham" d="M428,108l1,-31h1l21,2 2,4 2,3 2,1 1,1h1v1l3,5v3v3v2l-1,3v2v1l-18,10Z"/>
    <path data-geo-id="2502702760" data-name="Auburn" d="M451,264l11,-12 12,-2 3,7 -8,16 -8,2Z"/>
    <path data-geo-id="2502706015" data-name="Blackstone" d="M539,310h17v4v1v10v2h-1h-1h-1h-1h-1h-1h-1h-1h-1h-2h-1h-2l-3,1Z"/>
    <path data-geo-id="2502706365" data-name="Bolton" d="M513,179l7,-16 23,10 -2,7v1l-1,5h-1l-5,1h-1l-5,4 -15,-8Z"/>
    <path data-geo-id="2502714395" data-name="Clinton" d="M496,193l2,-7 8,-9 7,2v4l-4,11Z"/>
    <path data-geo-id="2502707525" data-name="Boylston" d="M491,194l5,-1 13,1v9l-3,14 -3,-3 -17,7 1,-21Z"/>
    <path data-geo-id="2502717300" data-name="Douglas" d="M477,297l8,6 19,-5 5,8 -1,22 -5,1h-1h-2h-1h-3h-4h-2h-1h-3h-2h-3h-1h-1l-3,-1v-1v-2l-1,-1 -6,-24Z"/>
    <path data-geo-id="2502726430" data-name="Grafton" d="M494,248v-2l15,-4 8,10 1,21 -13,1 -8,-9Z"/>
    <path data-geo-id="2502718560" data-name="East Brookfield" d="M405,249l10,-4 3,21 -2,4 -11,2 3,-12Z"/>
    <path data-geo-id="2500560645" data-name="Seekonk" d="M597,395l1,-8 1,-2 -1,-11v-1l1,-1v-1v-1v-1l9,-2 3,45h-6l-1,-1 -2,-1 -1,-1 1,-1 -1,-1 -1,-2h-1v-1h-1l1,-1v-3l-1,-2Z"/>
    <path data-geo-id="2500505280" data-name="Berkley" d="M658,395l2,-11 4,-7 23,12 -1,1 -7,7h-14v5v-1l-6,8Z"/>
    <path data-geo-id="2502731435" data-name="Hubbardston" d="M402,156l22,-18 6,5 15,14v6l-12,10 -11,9 -24,-23Z"/>
    <path data-geo-id="2502735075" data-name="Leominster" d="M466,149l1,-10 20,-7 4,-4 11,14 -7,21 -26,-6Z"/>
    <path data-geo-id="2502740255" data-name="Mendon" d="M531,288l6,-7 13,16 6,-1h1l-1,3v4v3v4h-17h-8v-18Z"/>
    <path data-geo-id="2502737420" data-name="Lunenburg" d="M483,103h1l2,1 10,4 9,3 7,3 -1,5v1v1l-1,4v1v5l-1,1v11l-7,-1 -11,-14 -4,4 -3,-2 -1,-25Z"/>
    <path data-geo-id="2502741340" data-name="Millbury" d="M469,273l8,-16 17,-9 3,17 -28,16Z"/>
    <path data-geo-id="2500522130" data-name="Fairhaven" d="M712,451l15,-6 2,9 2,4v6v-1l-4,2 1,1v1v1l1,2 2,5v1l-2,1v3l-2,-4h-1v-1v-1v-1l-1,-3h-1v-1v-1v-1v-1v-1h-1v-1l-1,-1h-1l-1,-1h-1v1v1v1h-1l-6,-14Z"/>
    <path data-geo-id="2501330665" data-name="Holland" d="M373,300h15v7v14h-1h-2h-1h-2h-2h-1h-1h-4h-1h-1h-1Z"/>
    <path data-geo-id="2501546330" data-name="Northampton" d="M229,201l17,-2 9,-2 2,9 13,9 -9,13 -31,1Z"/>
    <path data-geo-id="2501554030" data-name="Plainfield" d="M166,153l1,-1v-3l2,-6v-4l1,-1h-1h-1v-2h-1l1,-4h3l5,1 1,1 4,1h2h1l2,1h4h1l3,2v3v2l1,10v4Z"/>
    <path data-geo-id="2501564145" data-name="South Hadley" d="M258,248l2,-5 2,-4 3,-3v-2v-3l-1,-1 -2,-1 10,-6h11l1,1 -8,7 3,24h-5h-2l-4,1h-1h-2v-1h-1l-2,-2v-2l-4,-2Z"/>
    <path data-geo-id="2501582175" data-name="Worthington" d="M159,190v-1l1,-2v-3v-4v-1l2,-9 30,6 -6,1 4,32 1,3h-2l-1,-1v-2h-3l-2,-1h-1h-1h-1h-3h-4l-6,-17 -8,1Z"/>
    <path data-geo-id="2501562745" data-name="Southampton" d="M209,239l21,-3v-4l9,5 7,13 -5,5 1,5v1v1v2v1h-1h-2h-1l-20,-5 -3,-7v-7l-6,1v-4Z"/>
    <path data-geo-id="2501576380" data-name="Westhampton" d="M219,203l10,-2 1,28v3v4l-21,3 -2,-29v-5Z"/>
    <path data-geo-id="2502747135" data-name="North Brookfield" d="M412,222l3,23 -10,4 -11,-2 -6,-15 5,-8Z"/>
    <path data-geo-id="2502734795" data-name="Leicester" d="M434,232h20l8,20 -11,12 -5,1h-6Z"/>
    <path data-geo-id="2502758825" data-name="Rutland" d="M414,188l8,-6 11,-9 20,18 -10,10 2,7 -19,10 -12,-30Z"/>
    <path data-geo-id="2502766105" data-name="Spencer" d="M412,222h15h5l2,10 6,33 -22,1 -3,-21Z"/>
    <path data-geo-id="2502750670" data-name="Oakham" d="M394,205l20,-17 12,30 1,4h-15Z"/>
    <path data-geo-id="2502752420" data-name="Paxton" d="M426,218l19,-10 11,23 -2,1h-20l-2,-10h-5Z"/>
    <path data-geo-id="2502751825" data-name="Oxford" d="M446,265l5,-1 10,11 8,-2v8l8,16 -8,3 -14,5 -7,-5 3,-4Z"/>
    <path data-geo-id="2501540990" data-name="Middlefield" d="M142,194l2,-3 2,1 3,1 7,1h2l1,-2 8,-1 6,17 -5,3 -1,1 -1,1 -2,2 -2,2h-1l-1,1v1l-2,2h-1v-2h-1l-2,1h-1l-1,-1 -2,-1v-1l-2,-1 -1,-1 -1,-1 -3,-6v-3v-2v-1l-1,-6Z"/>
    <path data-geo-id="2502767385" data-name="Sterling" d="M469,157l26,6h3v23l-2,7 -5,1 -4,-4 -16,-2 -2,-9 3,-4Z"/>
    <path data-geo-id="2502771620" data-name="Uxbridge" d="M504,298l5,-2 7,2 15,-6v18v18h-1h-2h-2h-2h-1h-1h-3h-2h-2h-2h-1h-1h-2h-1l1,-22 -5,-8Z"/>
    <path data-geo-id="2502780405" data-name="Winchendon" d="M395,77h27h2h1h1h3l-1,31 -16,10 -7,-8 -12,-1Z"/>
    <path data-geo-id="2501377890" data-name="West Springfield Town" d="M242,273h15l1,14 10,11 -10,2 -8,-4 -4,4 -7,-7Z"/>
    <path data-geo-id="2501306085" data-name="Blandford" d="M150,278l1,-2v-3l1,-3 6,-25 1,-4h1l23,4 3,3 3,2h1l4,3 -7,33 -23,-5 -14,-2Z"/>
    <path data-geo-id="2501313660" data-name="Chicopee" d="M267,256h1l4,-1h2h5l3,-1 2,-1 3,21 -7,2 -22,11 -1,-14 1,-8Z"/>
    <path data-geo-id="2501328075" data-name="Hampden" d="M299,301l24,-6 3,25h-2h-3h-2h-1h-8l-1,-1h-1h-1h-1h-2h-1h-1Z"/>
    <path data-geo-id="2501326675" data-name="Granville" d="M164,281l23,5 11,4 4,4v24l-3,-1h-3h-3h-2h-1h-2h-2h-7h-1h-1h-2h-8h-3l3,-15Z"/>
    <path data-geo-id="2501313485" data-name="Chester" d="M160,236v-17v-1l1,-1h1l2,-2 2,-2 1,-1 1,-1 5,-3h4h3h1h1h1l2,1h3v2l1,1h2v2v2v14v5l-3,5 -5,5 -23,-4Z"/>
    <path data-geo-id="2501330840" data-name="Holyoke" d="M241,255l5,-5h2h3l6,-16 4,-4v-1h1l2,1 1,1v3v2l-3,3 -2,4 -2,5v1l4,2v2l2,2h1v1h2l-9,9 -1,8h-15v-8v-1v-2v-1v-1Z"/>
    <path data-geo-id="2501337175" data-name="Ludlow" d="M286,253h5h1h1l3,-1h1l4,-1 5,-1h5h2l4,-1 2,16 -4,12 -19,-1 -9,-2 -3,-21Z"/>
    <path data-geo-id="2501342530" data-name="Montgomery" d="M195,250l7,-6 7,-1v4l6,-1v7l3,7 -9,15 -13,-23 -1,-1Z"/>
    <path data-geo-id="2501367000" data-name="Springfield" d="M258,287l22,-11 7,-2 9,2 3,24 -19,3 1,5 -13,-3v-7Z"/>
    <path data-geo-id="2501704615" data-name="Bedford" d="M604,153l2,-6 18,-1 2,6 -2,5 -9,12 -4,-3 -7,-3Z"/>
    <path data-geo-id="2501715060" data-name="Concord" d="M574,177l12,-25 18,1v10l7,3 -21,19Z"/>
    <path data-geo-id="2501707350" data-name="Boxborough" d="M542,157l2,-3 3,-5 1,-2 15,7 -7,13 -12,-1 -3,-3Z"/>
    <path data-geo-id="2501709840" data-name="Burlington" d="M626,152l7,-14 9,10 1,11 -10,7 -9,-9Z"/>
    <path data-geo-id="2501711525" data-name="Carlisle" d="M582,142l3,-6 15,-4 6,15 -2,6 -18,-1Z"/>
    <path data-geo-id="2500107175" data-name="Bourne" d="M790,421v-1h-1v-2l-1,-1 -1,-1v-1h1v-1h1h1l1,-1 4,-2 1,-1h1h1l1,-1 1,-1 3,-1 1,-2h2v-1l2,-1 1,-2 1,-1 2,-2 1,2h1v1l3,3 -5,26v11l-8,16 -12,-5 -1,1 -1,-1 -2,-12 4,-9 -3,-9Z"/>
    <path data-geo-id="2500139100" data-name="Mashpee" d="M812,460l7,-14 9,-4 6,8 3,15 -4,7 2,8v1l-1,1v1h-1l-1,1 -1,2 -2,2 -1,1h-1h-1l-8,2h-1l2,-7 2,-10 -5,-1 -4,-13Z"/>
    <path data-geo-id="2500159735" data-name="Sandwich" d="M812,430l5,-26v1h1h1v1v1l5,4 1,1h1l3,3h1h1l8,4h1v1h1h1l1,1h1h1h1l2,1h1h1h1h1h1l-19,28 -6,-8 -9,4 -7,14 -8,-3 8,-16Z"/>
    <path data-geo-id="2500182525" data-name="Yarmouth" d="M883,455l3,-23 2,-3h1h1v1v-1h-1h1h-1l2,-2h1h6l1,1h1l1,-1 12,13 -9,12h-1l-5,6 -1,1 -14,-4Z"/>
    <path data-geo-id="2501308470" data-name="Brimfield" d="M351,281l3,-15 2,1 1,2h1h2l11,8h2h1l5,-1 5,-1h1h2l1,-1v5v3v10v1v1v2v1v3h-15l-21,-1Z"/>
    <path data-geo-id="2501376030" data-name="Westfield" d="M209,275l9,-15 20,5h1h2h1v8l-3,20 -2,9 -35,-8 -4,-4Z"/>
    <path data-geo-id="2501717475" data-name="Dracut" d="M589,83h1h19l4,-4 1,-2 5,-7h1l3,15 1,8v1l-5,4h-5l-6,-3 -19,2Z"/>
    <path data-geo-id="2501724925" data-name="Framingham" d="M559,221l1,-2v-1l-1,-3 1,-8 23,4 4,9 -5,8 3,7 -8,6 -21,-12Z"/>
    <path data-geo-id="2501943790" data-name="Nantucket" d="M955,558l15,30 -2,6 -12,6 -28,-1 -14,-4 -16,-9 8,-6 28,2 1,4 11,-6 12,-12Z"/>
    <path data-geo-id="2501717825" data-name="Dunstable" d="M544,82l23,1 2,12 -13,6h-9l-2,-5 -4,-5Z"/>
    <path data-geo-id="2501142285" data-name="Montague" d="M279,113l2,6 13,-1 -2,7 10,1 3,6 -2,16 -16,2 -10,1 -2,-7 3,-13 -6,-6 -1,-6Z"/>
    <path data-geo-id="2501161135" data-name="Shelburne" d="M231,107l1,-2 26,-4 -4,24h3l-11,9 -10,-12Z"/>
    <path data-geo-id="2501735425" data-name="Lincoln" d="M590,185l21,-19 4,3 2,12 -4,9 -14,1Z"/>
    <path data-geo-id="2501735215" data-name="Lexington" d="M615,169l9,-12 9,9 4,6 2,5 -5,7 -3,3 -14,-6Z"/>
    <path data-geo-id="2501735950" data-name="Littleton" d="M552,129l4,-2 18,17 -11,10 -15,-7 -1,-3 -2,-2v-3Z"/>
    <path data-geo-id="2502107740" data-name="Braintree Town" d="M696,247l-2,25h-11v-7l-8,-7 4,-8Z"/>
    <path data-geo-id="2502116495" data-name="Dedham" d="M626,240l11,-8 6,6h1v1h1v1v1h3h1v1v1v3l1,1v1v1h1l2,1v1l-3,1v1l-1,4Z"/>
    <path data-geo-id="2502125172" data-name="Franklin Town" d="M567,320v-13l4,-23h16l6,16 -7,18Z"/>
    <path data-geo-id="2502146050" data-name="Norfolk" d="M587,284h1l10,-5h9l7,21 -1,3 -20,-3Z"/>
    <path data-geo-id="2502155745" data-name="Quincy" d="M676,233l1,-1v-1v-6l18,13 3,5v1l-2,3 -17,3 -4,8 -10,1 14,-18Z"/>
    <path data-geo-id="2502139765" data-name="Medfield" d="M595,258v-1l3,-1 18,-1 1,6 -2,18h-8h-9l2,-6 4,-5 -7,-7 -1,-1 -1,-2Z"/>
    <path data-geo-id="2501372390" data-name="Wales" d="M352,299l21,1 -2,21h-3h-1h-7h-1h-2h-5Z"/>
    <path data-geo-id="2500112995" data-name="Chatham" d="M957,430l13,2v13l-10,5 -5,-4h-7h-2v1v-1l2,-11ZM964,459l-1,2 -1,1v3l-1,2v1v1v1v1v1h-1v2v1v1v1h-1v1v2v1v6v1l-3,3h-1h-1l-1,-1v-3l2,-1v-1v-1h1v-1l1,-1v-1v-1h1v-2v-1v-1v-2v-4v-1v-1l6,-13v2Z"/>
    <path data-geo-id="2500129020" data-name="Harwich" d="M919,434l11,-7 12,1 15,-3 -1,5h1l-9,5 -2,11v1h-3l-18,5 -1,-1Z"/>
    <path data-geo-id="2500116775" data-name="Dennis" d="M893,424l2,-1v-1h1l2,-2h2l3,-2 2,-1v1l3,-1h1h1l1,-1h1h1v-1v1h1v-1h2v-1h1h2h1h1v1h1l-2,2 -1,1h-1l1,16 5,17v1h-1h-1h-1h-1v1h-1h-1h-1h-1h-2h-4l-5,2h-1v-2l1,-2 -1,1 9,-12 -12,-13 -1,1h-1l-1,-1h-6h-1l1,-1Z"/>
    <path data-geo-id="2500155500" data-name="Provincetown" d="M912,301l2,6 -12,5 -3,9 -11,-16 6,-5 18,1Z"/>
    <path data-geo-id="2500170605" data-name="Truro" d="M943,321h1v1h1v1l1,1v1h1v1v1h1v1l1,1v1l1,1 1,2v1l2,2v1l1,1 1,1v1l-22,3v-1l-3,-23 -16,-12 -2,-6 10,3 15,10 6,7Z"/>
    <path data-geo-id="2500119295" data-name="Eastham" d="M953,371l1,1h1l11,-2v2l3,23 -1,-1 -9,7 -4,-1h-2v-1l-1,-28Z"/>
    <path data-geo-id="2501379740" data-name="Wilbraham" d="M319,265l2,12 2,18 -24,6v-1l-3,-24 19,1Z"/>
    <path data-geo-id="2502723875" data-name="Fitchburg" d="M461,108v-1l22,-2 1,25 3,2 -20,7 -7,-1Z"/>
    <path data-geo-id="2501762535" data-name="Somerville" d="M652,188v-4l7,6h8v3v1h-1v1v1h1v1l1,1v1l-8,-1Z"/>
    <path data-geo-id="2501739835" data-name="Medford" d="M647,177l9,-7 8,3 4,11v4h-1v2h-8l-7,-6Z"/>
    <path data-geo-id="2501739625" data-name="Maynard" d="M565,172l9,5 -4,10 -6,2 -3,-12Z"/>
    <path data-geo-id="2501740115" data-name="Melrose" d="M665,174l1,-11 7,-1v1l1,1h1v2l1,1 5,6Z"/>
    <path data-geo-id="2501767665" data-name="Stoneham" d="M655,153h6l5,10 -1,11 -1,-1 -8,-3 2,-7Z"/>
    <path data-geo-id="2501768050" data-name="Stow" d="M540,186l1,-5v-1l2,-7 1,-7 12,1 9,5 -4,5 3,12 -1,4Z"/>
    <path data-geo-id="2501772215" data-name="Wakefield" d="M661,153l1,-2 5,-8v-1v1l1,1h1v1h1h1l5,1v1l1,1 -1,1h1v1l1,1v1h-1l-1,1h-1l1,2v1l-1,1 -2,2v1v1v1l-7,1Z"/>
    <path data-geo-id="2501780510" data-name="Winchester" d="M637,172l21,-9 -2,7 -9,7h-8Z"/>
    <path data-geo-id="2501776135" data-name="Westford" d="M557,112l20,-12 8,36 -3,6 -8,2 -18,-17Z"/>
    <path data-geo-id="2501781035" data-name="Woburn" d="M633,166l10,-7 -1,-11 9,-5 4,10 3,10 -21,9Z"/>
    <path data-geo-id="2501705805" data-name="Billerica" d="M600,132l8,-18 20,12 3,2h-1l-1,4 4,6 -7,14 -2,-6 -18,1Z"/>
    <path data-geo-id="2501727480" data-name="Groton" d="M513,101l15,9 6,-11 11,-3 2,5h9l1,11 -1,15 -4,2 -25,-4 -14,-19Z"/>
    <path data-geo-id="2501756130" data-name="Reading" d="M651,135l3,-2 5,-3 9,3 -1,3v4v2v1l-5,8 -1,2h-6l-4,-10Z"/>
    <path data-geo-id="2501770360" data-name="Townsend" d="M484,80h26h2h1h2l-2,21v5l-1,8 -7,-3 -9,-3 -10,-4 -2,-1h-1Z"/>
    <path data-geo-id="2501772600" data-name="Waltham" d="M617,181l14,6 5,7 -6,7 -11,5 -6,-16Z"/>
    <path data-geo-id="2501777255" data-name="Weston" d="M599,191l14,-1 6,16 -3,9h-1l-1,1 -1,1h-3l-1,1h-1h-1h-1v1h-1h-1v1h-1h-1l-1,1v-7Z"/>
    <path data-geo-id="2501109595" data-name="Buckland" d="M204,112l27,-5 5,15 -8,8 -7,-2 -20,3Z"/>
    <path data-geo-id="2501115200" data-name="Conway" d="M223,166l8,-36h-3l8,-8 10,12 8,8 -2,21 -1,5 -12,2h-2h-3l-3,1h-2l-2,1h-1h-2l-2,-2Z"/>
    <path data-geo-id="2501158335" data-name="Rowe" d="M164,89h1v-1h1h2v-2l1,-2 3,1 3,-2v-2v-1h1v-1l5,-12h7h10l1,23 -19,2 -6,5 -3,-4Z"/>
    <path data-geo-id="2501129650" data-name="Heath" d="M218,68l3,28 -12,8 -9,-4 -1,-10 -1,-23 13,1h1Z"/>
    <path data-geo-id="2502124820" data-name="Foxborough" d="M613,303l1,-3 11,-6 16,18 -5,2 -7,4 -17,9 -1,-11Z"/>
    <path data-geo-id="2501168400" data-name="Sunderland" d="M270,165l7,-14 10,-1 -4,18 1,11h-4l-3,1h-1h-1h-1l-2,1h-1Z"/>
    <path data-geo-id="2501125730" data-name="Gill" d="M279,113l3,-15 14,-3 -1,-6 7,10 -6,7v11l-2,1 -13,1Z"/>
    <path data-geo-id="2501174525" data-name="Wendell" d="M302,126l10,-11 17,4 2,17 -4,17 -19,-3 -5,-2 2,-16Z"/>
    <path data-geo-id="2501173265" data-name="Warwick" d="M329,74l21,1 1,4 2,12 -13,16v6l-11,2 -4,-11 -9,-31 10,1Z"/>
  </g>
  <path class="mesh" d="M181,67l-5,12h-1l-7,1h-2h-1h-3h-3h-2h-1l1,-9v-4v-1M749,399l1,-6 8,9h6l25,-2 -2,15v1l1,1 1,1v2h1v1M393,109l12,1 7,8 16,-10 15,10 1,3 -14,22 -6,-5 -12,-20M397,159l-27,24 -4,8 -11,1 -7,15h-1h-1l-1,1h-1l-1,1v-1v1v1h-1v-1v1h-1v-3v-1v-1v-1h1l-1,-1h1v-1v-1h-1v-1h1v-1l-1,-1v-1v-1v-1h1v-1l-1,-1v-1v-1h-1h1v-1v-1v-1v-1h1v-1v-1h1v-1v-1v-1h1l1,-1h-1h1v-1h1v-1h1v-1v-1h1v-1h1v-1h1l-3,-14 6,-5 1,-2 4,-4 1,-1 16,-13M484,80l-1,23v2l-22,2v-2l1,-3v-2v-3v-3l-3,-5v-1h-1l-1,-1 -2,-1 -2,-3 -2,-4M531,328v-18h8v18M672,295l8,-4 1,-1h1h1l1,-2h1l1,-1h1l8,13 15,-4 4,4 -2,10 -17,-4v-6M398,159l24,23 -8,6 -20,17 -2,-2M469,179l2,9 16,2 4,4 -4,6 -1,21 -1,1 -5,-11 -4,3 -5,-26M684,177h1v2l1,-1h1h1l2,-1h1v1M729,297l-11,3 -4,-23h5l9,-2 4,8 8,8 -11,6v14l3,13 -16,1 -4,-15M781,304l-8,6 -19,-14 -8,-6 -1,-14 8,-3h5M691,193l-2,-2 -5,-1 -5,-6v-1l1,-2v-1l1,-1 1,-3 -1,-3 1,-1h1l1,1v1v1v1v1M719,277l-2,-7 12,-8 9,-1 15,12M746,290l-6,1M665,402v-5h14l6,6 -1,2 -1,6 27,-5 7,-1M710,138l-1,1 -23,-8 3,-9 7,-4 8,-5 3,8 3,15M709,107h2l1,-11 23,6 4,17h-4l-27,-9 1,-3M732,63l-13,2 -5,1 -8,3 -9,-6 -2,-1 12,-12 3,-2 19,-2M712,96l-16,-4 4,-3 23,-12 9,-7M743,92l-2,3 -6,7M686,131h-2l-6,-1v-2l1,-2v-1l-1,-2 -6,-6h-1v-2l1,-7 9,-5 12,7 3,8M707,50l-5,-12 9,-5 4,3M700,89l-8,-5 14,-15M200,175l-1,-16h2l2,1 1,1h2l2,1 13,3 2,1 -1,4 2,2 -4,16M192,176l8,-1 9,5v7l11,1 -1,15 -12,2v5l-7,-1h-10l-4,-32 6,-1 -30,-6 2,-7 2,-8v-1v-1l29,4 4,2M562,285l9,-1 -4,23v13v6M46,222l8,14 1,12 -5,4 -12,-2M642,219v-1l1,-1h1l1,-1 1,-2 2,-2h1l-1,-1h2l1,-1 2,-2 2,-1 4,1 1,1v1l-2,1v1v1v1h-1v1v1l-2,1 -1,1 -1,2 -1,1 -2,3 -1,1 -1,1 -1,1v-1h-1l-2,-2 -1,-2 -1,-3M641,273l-4,6 -12,-13 10,-10 11,5 2,-3 1,-1 1,-4v-1l3,-1v-1l8,10 9,13 -8,7 -14,3 -7,-10 5,-12M744,245v1l1,1 -1,1h-1v1h1v1v1l-1,-1v2h-1l-3,3 -2,2 -2,1 -1,1v1l-5,-5 -1,-3 -1,-2v-1v-1l-1,-2 3,-1 -1,-2h-1v-1v-1l1,-2v-1M581,265h3l3,-1 10,-3 7,7 -4,5 -2,6 -10,5 -6,-15 -1,-4M653,250l1,-1h1v-1l-1,-2 3,-1h1v-1l1,-1 1,-4h2v-1l2,-1 1,-1 2,-1h1h2v1h1l2,-1v-1l1,-1h2l3,8 -14,18 -4,1M616,215l11,4v1v1l1,1 4,2 -1,1 2,1v2l4,2v1v1l-11,8 -18,-4M665,259l10,-1 8,7v7l-4,11 -6,-6 -3,-4M673,277l-4,7 3,11 -4,2 -1,1h-1l-4,2 -4,3 -7,3 2,-14 -5,-9M637,279l-11,5 -1,10 -11,6 -7,-21h8l2,-18 5,-1 3,6M587,338h1h1h2h1l2,-2 2,-1h2l1,-1h1l1,-1 1,-1 3,-1 1,-1 6,-3 5,10 -30,26M725,438l1,6 1,1 -15,6M605,412h6l28,-2 -2,-13 -2,-23 4,1 17,4 4,5 -2,11M617,337l3,4 13,24 -25,2 -9,2M587,326l20,-8 4,-2 1,11 17,-9 7,-4 5,-2 3,-2 2,18 -26,13M644,310l6,-3 1,-1M666,298l2,10 1,4 1,2M665,335l-3,-1 -13,-2 -3,-4M662,334l-9,13 -16,17 -4,1M637,364l2,11M611,412l-3,-45M528,191l5,-4h1l5,-1h1l23,7 -1,4 -34,4M719,161l-5,-2 3,-5M405,272l11,-2 2,-4 22,-1h6l5,31 -3,4 -22,7 -1,-7 -13,-7 5,-11 -1,-12M781,86l-1,17 6,4M761,126l-8,-9 -3,-7 5,-9M141,280v3v1v1l1,1 -1,2v2h-1l1,1 -1,5 2,8 1,1v1v1l1,1v3v1l-1,1 1,1v1M589,83v14l19,-2 6,3 1,9 -7,7 -5,2 -12,-8 -4,-7 2,-4M113,314l-3,-40 7,-9M697,63l-20,8 1,5 -7,-5 4,-8 6,-11 14,10M833,472l4,-7 -3,-15 19,-28M886,432l-3,23M108,122l-14,-3 -4,-1 3,-14 24,1 -1,11 -8,-3v9l-3,14h7l-1,10 7,1 -5,9 -33,-7 14,-30M120,64l-1,12 -3,1 2,17 -1,11M949,404l3,1 5,20 -15,3 -12,-1 -11,7 -1,-16h1l1,-1 2,-2M93,104l-12,-1M791,453l1,-1 12,5 8,3 4,13 5,1 -2,10M953,400h2l4,1M933,343l22,-3M684,508l-1,-9 -5,-22 2,-12 -11,-22 17,-8 13,-8 -2,12 -1,12 7,16 5,4M966,370l-11,2h-1l-1,-1M680,181l-12,3 -4,-11 1,1 16,-1 -5,-6 -1,-1v-2h-1l-1,-1v-1v-1v-1v-1l2,-2 1,-1v-1l-1,-2h1l1,-1h1l6,1 6,17 5,3M693,110l3,-18M708,110l-4,3M681,52l5,-10 8,-4h8M678,76l2,5 12,3M681,103l-4,-9 -19,-24 13,1M753,117l-14,2M637,83l5,-9 9,1 -3,8 2,4 1,4M684,153l6,-4 10,6 4,2 3,8M678,152v-1l-1,-1v-1h-1l1,-1 -1,-1v-1l-5,-1h-1h-1v-1h-1l-1,-1v-1v-2v-4l1,-3 1,-1 4,-4h3h1h1M678,130v5l12,14M710,406v1v1l1,2 1,2 2,4 -5,2 1,1 -6,3 -5,5M686,435v-13l-28,-7M353,91l-2,-12 -1,-4M637,49l19,19 -5,7M624,94v-1l-1,-8 -3,-15M741,131l-4,-8 -2,-4M700,155l8,-9 1,-7M714,159l-10,-2M674,337v1l1,7 13,12h1l6,-4 8,2 3,-9 6,-3 13,5 9,9 5,8 6,25 5,3M637,397l11,10 -1,18 -8,-2 -2,10M279,113l2,6 13,-1 2,-1 7,-6 22,-7 4,11v4l-17,-4 -10,11 -10,-1 2,-7M272,125l-4,4 -11,-4h-3l4,-24h3l10,-1 11,-2 -3,15 -8,6 1,6 6,6 -3,13 2,7 -7,14 -18,-2 2,-21 -8,-8 11,-9M326,320l-3,-25 -2,-18 -2,-12h6h4v-1l-1,-1v-1h1v-1h-1v-1v-1l-1,-1h1h1l1,-1 1,1v-1h1h1v-1v-1v-1h1h1v-1l8,-3 9,-2h1v1v1h1h1l3,-3 6,-2h1l-8,10 -1,2 -1,1 -1,2v2v1v1v1v1l-3,15 1,18v22M150,279l14,2 3,21 -3,15M268,71l3,29M261,101l-13,-22v-9M325,182l-2,-16h4v-13l4,-17h22l1,6v1l3,3 2,3M202,318v-24l35,8 -2,16M337,218M329,115l11,-2v-6l13,-16h3v3l5,2 4,6v2v2v1v1l-2,2 1,1v1v1h-1h-1l-4,1h-1v3h-1l-1,1h-1l1,9 -1,-1h-1h-1l1,6v3v1M331,136l-2,-17M262,320l6,-15 13,3 2,11M797,534l-4,5 -12,-16M289,71l6,18 1,6 -14,3M647,189l5,-1 8,10 8,1M670,200h-1l-1,1 -6,5h-4l-1,-1 -6,-4 -2,1 -3,-4M644,119l-9,12 -4,-3 -3,-2 -20,-12 -8,18 -15,4 -8,-36 10,1M668,188v-4M679,184l-1,1v1v1h-1v1l-2,2h-1l-1,1h1v1M555,265l12,-10 -2,-5 12,-2 10,16M582,269h-1h-4h-1l-14,8M176,79v1h-1v1v2l-3,2 -3,-1 -1,2v2h-2h-1v1h-1l7,4 3,4 6,-5 19,-2 1,10 9,4 12,-8 2,11 9,-2 -1,2 -27,5 -30,-6 1,-4 -1,-5M258,101l-26,4M221,96l-3,-28M666,117l3,-2h2M668,133l-9,-3 -5,3 -3,2v-17M544,82l-3,9 4,5 -11,3 -6,11 -15,-9 2,-21M563,193l1,-4 6,-2 4,-10 16,8 1,9 -6,8 -2,9 -23,-4 2,-10M614,98h5M577,100l-20,12 -1,-11 13,-6 -2,-12M649,202l-4,2h-1h-1l-13,-3 6,-7M611,166l-21,19 9,6 2,23M587,220l-4,-9M651,135v8l-9,5 -9,-10 -4,-6 1,-4h1M577,248v-7l8,-6M600,244l1,2v3l-2,2 -1,1 -1,1v1l1,1v1l-3,1v1l1,2 1,1M688,357l1,5h1h1l-1,3 1,7 -15,1 -11,-16v-22l9,2 -3,-17 -1,-3v-2v-1l12,-2 10,3 2,13 -20,10M694,328l16,1 2,4h3l-3,10M394,205l18,17 -19,2 -5,8 -3,-4 -17,-1h-1v-1v-1h1v-1v-2v-1l-6,1 -2,1h-1h-5v1h-2l-1,-2 -1,-7v-3l-1,-5h-1M695,306l-3,9M734,357l19,-7 1,5 20,31 -8,6 -2,10M734,260l-5,2M717,270l-10,6 1,-6v-1v-1v-1l1,-1v-4v-2v-2v-1h1v-1v-1v-1v-2v-1h-1h-1v-1l-3,-7M679,397l7,-7 1,-1 3,-3 3,-3 2,-6v-1v-1l-1,-1v-1v-1l-1,-3 -1,-3v-1M812,398l-2,2 -1,1 -1,2 -2,1v1h-2l-1,2 -3,1 -1,1 -1,1h-1h-1l-1,1 -4,2 -1,1h-1h-1v1h-1M754,355l16,-18M725,348l11,-11 4,-10h2l2,12 9,11M316,73l9,31M296,117v-11l6,-7 -7,-10M204,112l-3,19 -7,7 -3,-2h-1h-4l-2,-1h-1h-2l-4,-1 -1,-1 -5,-1h-3l3,-11 3,-14v-1M749,570l-5,6M191,212l-1,-3M207,210l2,29v4l-7,1 -7,6M687,287l6,-4 4,-2 6,-4v1l7,18M765,330l-16,-7 -3,-8 8,-19M716,325l-1,8M330,224l6,11 -1,18M279,255h-5h-2l-4,1h-1h-2v-1h-1l-2,-2v-2l-4,-2v-1l2,-5 2,-4 3,-3v-2v-3l-1,-1 -2,-1M261,228l1,1h-1v1l-4,4 -6,16h-3h-2l-7,-13 -9,-5v-3l31,-1 9,-13 -13,-9M370,183l22,20 -10,7 -7,13 -7,4 2,1v1l-2,2v3v2h-1h-1l1,3v2h1v1v1l-1,1 -2,1M224,172h2h1l2,-1h2l3,-1h3h2l-1,16h3h5v-1h2M246,199l2,-14h2l8,-2h2h2l3,-1v-1h2l3,-1 1,1 -2,24 -12,1 -2,-9 -9,2 -17,2 -10,2M732,324l8,3M752,446l-10,-3v-8M749,323l-7,4M731,464v-6l-2,-4 -2,-9M703,277l4,-1M669,443l-10,-1 -6,31M687,389l-23,-12 -4,7M541,267v-1v-1l-1,-1 -6,-2 -5,-10 5,-13 2,-1h1l3,-1 3,1h1l1,1v-1h4l16,12M301,186l4,-1 20,-3v1h1v1v1v1h1h-1l1,1v1v1v1v1v1l1,1v1h-1l1,1v1h-1v1h1v1v1l1,1v1h1v1v1v1v1v1v1h-1h1l-1,1h1v1v1v1l-13,1 -1,-8 -17,3 -3,-21h5M627,219l-18,16 -3,1 1,7 -7,1 -15,-9 -3,-7 5,-8h9l5,-6v7l1,-1h1h1v-1h1h1v-1h1h1h1l1,-1h3l1,-1 1,-1h1l3,-9 11,-5M644,204l-1,1h-1v1v1l1,3 1,1h-1l3,3M644,224l-7,7M560,207l-1,8h-1h-2h-3h-1h-2h-1h-2l-14,7 -2,-3 -1,-1 -1,-1 -1,-2v-2l-1,-1 -2,-1v-1h-1l-1,-2M527,125l25,4 -7,10M549,238l5,-3 1,-2 1,-4 21,12M634,184l13,5 -1,9 -10,-4 -5,-7 3,-3 5,-7h8l5,7v4M280,179h4M295,177l1,2v1v3v3M301,222l-17,2 -1,-1M677,231v1l-1,1M653,250l-2,-1h-1v-1v-1l-1,-1v-3v-1v-1h-1h-3v-1v-1h-1v-1h-1l-6,-6M679,195l5,-5M509,296l-5,2 -19,5 -8,-6 -8,-16 28,-16 8,9 13,-1 13,15v4l-15,6 -7,-2h-7l3,-22M117,241l1,-14v-6l1,-9 24,-4 3,6 1,1 1,1 2,1v1l2,1 1,1h1l2,-1h1v2h1l2,-2v-1v1v17v5h-1l-1,4M98,199l11,16 9,6M118,227l-17,2 -5,8h-13l1,-23M168,132l-1,4 -29,-6 2,-12h4v-20l15,1 2,5 14,-2M117,259v-18l10,-2 9,7 22,-1 -6,25 -1,3v3l-1,2v1l-2,-1h-1h-1l-5,2h-3l-2,-18 -19,3v-6l-25,-16 4,-6M118,94l26,2v2M140,118l-24,-2M138,130l-5,8 -11,-2 -4,11M486,221l17,-7 3,3 4,16 -1,9 -15,4h-4l-5,-24M397,322l15,-29M426,307l-1,16M395,77l-2,32 -5,1M384,110h4l4,4 -1,13 8,14 3,15 -4,3h-1l-22,-23 1,-12 8,-14 -4,-8 -15,2M150,66l-4,11 -27,-1M133,138l-2,18 -4,12 -7,-1 -4,15 -9,-1 6,-25M319,265l-2,-16 -4,1h-2h-5l-5,1 -4,1h-1l-3,1h-1h-1h-5h-2l-2,1 -3,1 -3,-24 8,-7M388,321v-14v-7v-3v-1v-2v-1v-1v-10v-3v-5M144,96l2,-19M50,252l1,18h6l-12,14 -14,-11M80,149l-3,4 -6,26 -11,-2M54,236h9l20,1M92,243l-9,14v10l-3,5 -23,-2M131,156l12,3 -7,34 -13,-4 2,-6 -9,-1M804,538l-11,1 3,23M783,563l-10,-10 -6,-11M368,243l7,-1 10,25M385,275v-8l9,-20 11,2 3,11 -3,12 -4,5 -13,-3 -1,1h-2h-1l-5,1 -5,1h-1h-2l-11,-8h-2h-1l-1,-2 -2,-1M388,232l6,15M443,118l18,-10 -1,30 7,1 -1,10M445,157l21,-8 3,8 3,18 -3,4 -16,12 -20,-18 12,-10v-6l-15,-14M83,267l11,2 6,7 10,-2M80,312l-1,-22 4,-5 -3,-13M45,284l2,7 -3,19M143,159l21,4M142,194l-6,-1M107,181l-5,5M83,182l19,4 -4,13 -2,13 -12,2v-11h-12v-6l11,-15 -12,-3M72,203h-2h-18M559,215l1,3v1l-1,2 -3,8M543,238l-9,-14 -1,-2M476,214l-20,17 -11,-23 -2,-7 10,-10M510,233l10,-7 14,-2M529,252h-12l-8,-10M494,246v2l-17,9 -3,-7 -12,2 -8,-20 2,-1M537,281l3,-5 15,15v2l1,3 -6,1 -13,-16 -6,7M518,273l-1,-21M70,203l-7,15v18M162,170l-2,9v1v4v3l-1,2v1v2l-1,2h-2l-7,-1 -3,-1 -2,-1 -2,3v2l1,6v1v2v3M167,136h1v2h1h1l-1,1v4l-2,6v3l-1,1M424,138l-22,18M239,170l12,-2 1,-5M308,150l19,3M201,131l20,-3 7,2h3l-8,36M195,157v-4l-1,-10v-2v-3M626,240l-4,20M617,261l-1,-6 -18,1M588,284h-1h-16M626,240l23,17M679,283l4,7M683,272h11l-1,11M694,272l2,-25 2,-3M641,312l-16,-18M567,320l19,-2 7,-18 20,3 -2,13M281,308l-1,-5 19,-3v1l3,18M707,121h22l8,2M708,15l3,18M694,38l-10,-14M672,35l14,7M658,70l-2,-2M237,302l2,-9 7,7 4,-4 8,4 10,-2v7M506,217l3,-14M428,108l1,-31M606,236v-1v-1l-5,-11v-2M461,107v1M477,257l-8,16 -8,2 -10,-11 11,-12M539,310h17M543,173l-2,7v1l-1,5M491,194l5,-1M504,298l5,8 -1,22M448,300l7,5 14,-5 8,-3M497,265l-3,-17M405,249l10,-4 3,21M433,173l-11,9M495,163l-26,-6M531,310v-18M483,103h1l2,1 10,4 9,3 7,3M487,132l-3,-2 -1,-25M469,281v-8M371,321l2,-21h15M230,229l-1,-28M469,300l6,24M454,324l1,-19M194,253l-4,-3h-1l-3,-2 -3,-3 5,-5 3,-5v-5v-14v-2v-2h-2l-1,-1v-2h-3l-2,-1h-1h-1h-1h-3h-4l-6,-17 -8,1M209,239l21,-3v-4M246,250l-5,5 1,5v1v1v2v1h-1h-2h-1l-20,-5 -3,-7v-7l-6,1v-4M412,222l3,23M440,265l-6,-33h20M451,264l-5,1M445,208l-19,10 -12,-30M412,222h15h5l2,10M426,218l1,4M646,112l-1,1v1v2v1h-1v2l-1,-1 -3,-2v-1v-1l2,-2h-1v-1h-2l-2,-1v-1l-1,-1h-1h-1l-2,-2h-1l-4,-3 -1,-1 -1,-1h-1l-2,-1 -2,-2h-1l5,-4 5,-12 6,1h2v8h14l15,26h-2l-9,1h-1h-3l-2,-1 -1,-1v-1l-1,-1 -1,-2M173,208l-5,3 -1,1 -1,1 -2,2 -2,2h-1l-1,1M239,293l3,-20h15l1,14 10,11M160,241l23,4M187,286l7,-33 1,-3v1l1,1 13,23 -11,15 -11,-4 -23,-5M284,253l3,21 -7,2 -22,11M257,273l1,-8 9,-9M299,301l24,-6M198,290l4,4M242,273v-8M319,265l-4,12 -19,-1 -9,-2M218,260l-9,15M296,276l3,24M586,152l18,1 2,-6 18,-1 2,6 -2,5 -9,12 -4,-3 -7,-3v-10M548,147l15,7M556,167l7,-13 11,-10 8,-2 4,10 -12,25 -9,-5 -9,-5 -12,-1M626,152l7,-14M642,148l1,11 -10,7 -9,-9M582,142l3,-6M600,132l6,15M817,404l-5,26v11l-8,16M812,460l7,-14 9,-4 6,8M892,427h6l1,1h1l1,-1 12,13 -9,12M373,300l-21,-1M556,101h-9l-2,-5M302,126l3,6 -2,16M287,150l16,-2 5,2 -3,26 -10,1 -5,1 -6,1 -1,-11 4,-18 -10,1M246,134l-10,-12 -5,-15M615,169l2,12 -4,9 -14,1M633,166l4,6 2,5M631,187l-14,-6M552,129l4,-2 18,17M675,258l4,-8 17,-3M587,284l6,16M598,279h9M614,300l-1,3M946,447v-1l2,-11 9,-5M924,451l-5,-17M912,301l2,6M652,184l7,6h8M647,177l9,-7 8,3M564,189l-3,-12 4,-5M665,174l1,-11 7,-1M656,170l2,-7 -3,-10h6l5,10M661,153l1,-2 5,-8M520,146v17l-7,16 -7,-2 -8,9v-23h-3l7,-21 7,1v-11l1,-1v-5v-1l1,-4v-1v-1l1,-5 1,-8 14,19 -3,11h1l2,2h1l2,1 4,-3h2l6,2 3,1v3l2,2 1,3 -1,2 -3,5 -2,3 -1,6 3,3 -1,7 -23,-10M637,172l21,-9M556,127l1,-15M651,143l4,10M513,106v-5M619,206l-6,-16M236,122l-8,8M198,67l1,23M714,300h4M513,183l15,8 6,4 -6,6 -5,7 -14,-5v-9l4,-11v-4M556,327v-2v-10v-1v-4v-4v-3v-4l1,-3h-1M756,425l-8,-8 -6,18 -17,3 -2,-5 -3,-16 -5,1 -1,-2M609,235M712,449l-8,-27M656,407h-8M341,210v1h-1h-1v1l-1,1 1,1h-1v1v1h-1v-1v1v1v1h-1h-1v1v1h-1v1h-1l-1,1v-1h-1l1,1h-1h1v1v1l-1,-1h-1v1v-1h-1v-1v-1h1v-1v-1h1h-1h1v-1h-1h1v-1v-1h1h-1v-1v-1h1h-1v-1h1v-1h-1v-1h-1M306,250l-5,-28 -2,-15M270,165l1,16h1l2,-1h1h1h1l3,-1 4,9 -2,13 1,22h-11l-10,6M509,194l-13,-1 2,-7M467,139l20,-7 4,-4 11,14M509,143l3,1h3l1,1h2l2,1 4,-10M333,275M555,291M541,267M555,291M693,365M541,267M557,273h1M541,267l10,-2M551,265h4M555,265l1,4M556,269l1,4M558,273h2M560,273l2,4M562,277v8M562,285l-7,6M540,276l1,-9M749,399l-32,6M717,405v-13l-7,-8 1,-9 -18,-10M693,365h-1M692,365h-1M691,365h-1M748,417l1,-18M321,277l12,-2M333,275l7,6h11"/>
  <g class="cities">
    <circle r="7" cx="672" cy="205"/>
    <text x="672" y="205">Boston</text>
    <circle r="7" cx="476" cy="239"/>
    <text x="476" y="239">Worcester</text>
    <circle r="7" cx="268" cy="296"/>
    <text x="268" y="296">Springfield</text>
  </g>
</svg>