<?xml version="1.0" encoding="utf-8"?>
<!DOCTYPE svg PUBLIC "-//W3C//DTD SVG 1.1//EN" "http://www.w3.org/Graphics/SVG/1.1/DTD/svg11.dtd">
<svg version="1.1" xmlns="http://www.w3.org/2000/svg" width="350" height="216" viewBox="0 0 350 216">
  <path class="state" transform="scale(0.1)" d="M3347,1721l-13,-5 21,-37v-36l19,-49 -14,72v40l-13,15M2557,1870l-48,15 41,-36 7,21M2792,1843l-4,27 34,-50 13,23 -15,29 10,20 48,18 8,60 30,-1 -33,-23 32,-36 18,12 -7,49 -126,-1 -113,12 -28,11 -30,42 -40,-31 -22,-27 30,-12 35,30 3,-29 52,-68 8,-29 27,-9 13,-26 52,-28 5,37M2692,1767l26,6 -33,24 -43,17 -2,21 -26,17 -15,-24 56,-44 37,-17M3345,1960l44,84 -5,44 -39,14 -94,-2 -97,-39 18,-28 97,5 63,-23 23,-25 -15,-21 -36,46 30,-76 11,21M2359,674l-22,3 10,27 -1,1 51,38 -33,20 7,49 16,-7 24,27 43,-12v34l18,1 58,-21 -21,-53 31,44 27,7 40,30 12,-16 18,36 28,20 7,50 73,107v46l-28,4 -7,27 -32,17 12,24 40,43 43,14 20,-12 45,30 -7,17 22,66 -17,43 5,18 59,56 60,25 108,9 -52,15 28,18 57,-4 37,-38 71,-25 18,3 95,-39 17,-47 -7,-64 12,-48 -23,10 -34,-16 -15,17 -5,-87 -11,-57 -24,-28 -35,-20 -28,7 -18,42 -42,-53 32,-20 88,17 60,39 63,105 43,141 -18,10 12,38 15,1 8,95 -13,-53 -22,-5 -2,34 -23,10 -3,24 46,12v36l-15,27 -38,-21 -73,10 -52,18 -53,4 -43,19 -33,-21 1,19 -36,12 -25,-12 -53,36 1,-20 -6,-15 -27,19 -10,36 -47,51 -25,5v-40l-18,36 -73,13 -33,33 -4,-27 15,-55 -10,-35 2,-45 28,-15 -30,-5 35,-19 -8,-87 -38,38 -44,-19 10,-20 -39,20 28,30 -17,3 13,36 -43,-46 5,77 -61,-4 16,19 -35,14 -21,-5 21,46 -11,17 -12,-52h-32l-18,-16 22,58 -22,-27 -20,41 15,51 -25,17 -21,-15 -5,37 -49,13 -13,-16 -7,-59 -15,-9 9,48 -9,15 -34,-39 16,53 -26,7 -12,-117 -8,-17 8,-66 -60,-19 100,-164 -10,1 -53,100 -20,20 -45,-4 -34,-49 -63,-34 -16,-54 6,-95 -40,7v-114v-42l-108,2 -28,4 -251,8 -3,-20 -252,-5 -56,-4 -368,-7 -71,3 -137,-8 -10,42 -46,5 3,-48 -223,-7 -298,-17 -113,-3 -8,-47 113,-383 127,-434 222,9 677,32 353,14 118,5 436,12 35,-49 30,-13 38,11 -5,-66 50,-39 61,18 30,-65 60,-14 32,-20 41,3 34,26 28,-11 5,60 -45,9 13,18 35,-8 15,71 24,52 -27,-16 -25,-50 13,64 64,34 -14,41h35l2,-18 45,14 -10,-15 31,-34 24,3 -2,35h23l2,33 -30,15 -23,49 -5,-31h-19l-18,39 -26,-2 -47,26 -13,-8 -79,33 -34,-16 31,31 2,27 18,-21 20,13 -50,64 -25,-8 -11,61 -5,-46 -40,30 -7,30 18,43 -30,33 -33,-23 -10,-35"/>
  <g class="counties" transform="scale(0.1)">
    <path data-fips-int="25003" data-name="Berkshire County" d="M549,233l-1,48 68,-1 -40,46 32,2 5,31 -24,106 5,19 -41,200 -50,-12v74l35,28 23,-6 -2,77 -33,134 -33,-6 8,38 -11,29 16,68 -298,-17 -113,-3 -8,-47 113,-383 127,-434Z"/>
    <path data-fips-int="25005" data-name="Bristol County" d="M2560,1625l-21,-5 21,46 -11,17 -12,-52h-32l-18,-16 22,58 -22,-27 -20,41 15,51 -25,17 -21,-15 -5,37 -49,13 -13,-16 -7,-59 -15,-9 9,48 -9,15 -34,-39 16,53 -26,7 -12,-117 -8,-17 8,-66 -60,-19 100,-164 -10,1 -53,100 -20,20 -45,-4 -34,-49 -63,-34 -16,-54 6,-95 -40,7v-114l74,-29 206,-111 28,165 52,47 20,74 -59,63 22,21 -12,25 99,-16 16,42 17,-3 40,143Z"/>
    <path data-fips-int="25011" data-name="Franklin County" d="M1195,736l-14,31 -26,18 5,-36 -22,-109 -100,14 -5,-31 -198,31 4,-57 -53,7v-18l-104,-32 -3,-70 -90,-19 24,-106 -5,-31 -32,-2 40,-46 -68,1 1,-48 677,32 10,58 39,14 1,62 -36,17 -7,26 5,58 22,24 -44,42 7,49 -28,50Z"/>
    <path data-fips-int="25013" data-name="Hampden County" d="M1235,869l45,-9 -40,55v21l58,28 2,11 59,-11 -1,164 -368,-7 -71,3 -137,-8 -10,42 -46,5 3,-48 -223,-7 -16,-68 11,-29 -8,-38 33,6 33,-134 2,-77 43,-38 55,4 9,9 3,86 -30,32 35,29 16,-30 59,5 11,46 87,22 -4,-37 32,-18 22,-58 31,-4 -23,55 27,28 176,-24 8,58 29,-4 21,-37Z"/>
    <path data-fips-int="25015" data-name="Hampshire County" d="M1195,736l28,-10 8,62 57,-10 8,24 -16,58 -45,9 -67,23 -21,37 -29,4 -8,-58 -176,24 -27,-28 23,-55 -31,4 -22,58 -32,18 4,37 -87,-22 -11,-46 -59,-5 -16,30 -35,-29 30,-32 -3,-86 -9,-9 -55,-4 -43,38 -23,6 -35,-28v-74l50,12 41,-200 -5,-19 90,19 3,70 104,32v18l53,-7 -4,57 198,-31 5,31 100,-14 22,109 -5,36 26,-18Z"/>
    <path data-fips-int="25017" data-name="Middlesex County" d="M2382,609l5,9 -28,56 -22,3 10,27 -1,1 -35,22 -25,-26 -35,15 12,38 -20,19 13,12 -25,28 -33,-46 -40,-10 -55,19 25,81 -27,-1 -11,60 -55,16 -68,40 -19,-13 -5,-31 -75,-5 -18,-27 15,-52 18,-10 57,3 18,-81 -60,2 -31,20 -37,-48 42,-46 -22,-13 42,-19 15,-61 -15,-15 25,-55 -7,-31 -73,-11 -17,34 -40,-8 14,-101 -104,-40v8l-74,4 1,-42 -38,-55 118,5 436,12 35,-49 16,89 -15,10 110,71 70,-10 23,27 -21,15 -15,52 31,7 5,24 -16,39Z"/>
    <path data-fips-int="25021" data-name="Norfolk County" d="M2567,832l40,30 -3,23 -37,26 -23,-47ZM2231,813l42,34 13,32 40,-52 45,-15 16,-7 24,27 43,-12v34l18,1 14,27 -7,85 -143,78 -206,111 -74,29v-42l-108,2 -3,-125 22,-18v-30l68,-40 55,-16 11,-60 27,1 -25,-81 55,-19 40,10ZM2256,785l-13,-12 20,-19 31,-28 9,28 -35,44Z"/>
    <path data-fips-int="25027" data-name="Worcester County" d="M1579,279l38,55 -1,42 74,-4v-8l104,40 -14,101 40,8 17,-34 73,11 7,31 -25,55 15,15 -15,61 -42,19 22,13 -42,46 37,48 31,-20 60,-2 -18,81 -57,-3 -18,10 -15,52 18,27 75,5 5,31 19,13v30l-22,18 3,125 -28,4 -251,8 -3,-20 -252,-5 -56,-4 1,-164 -59,11 -2,-11 -58,-28v-21l40,-55 16,-58 -8,-24 -57,10 -8,-62 -28,10v-71l28,-50 -7,-49 44,-42 -22,-24 -5,-58 7,-26 36,-17 -1,-62 -39,-14 -10,-58Z"/>
    <path data-fips-int="25001" data-name="Barnstable County" d="M3347,1721l-13,-5 21,-37v-36l19,-49 -14,72v40ZM2976,1627l-6,-15 -27,19 -10,36 -47,51 -25,5v-40l-18,36 -73,13 -33,33 -4,-27 15,-55 -10,-35 2,-45 28,-15 -30,-5 35,-19 -8,-87 -10,-20 62,-31 24,-30 59,56 60,25 108,9 -52,15 28,18 57,-4 37,-38 71,-25 18,3 95,-39 17,-47 -7,-64 12,-48 -23,10 -34,-16 -15,17 -5,-87 -11,-57 -24,-28 -35,-20 -28,7 -18,42 -42,-53 32,-20 88,17 60,39 63,105 43,141 -18,10 12,38 15,1 8,95 -13,-53 -22,-5 -2,34 -23,10 -3,24 46,12v36l-15,27 -38,-21 -73,10 -52,18 -53,4 -43,19 -33,-21 1,19 -36,12 -25,-12 -53,36Z"/>
    <path data-fips-int="25007" data-name="Dukes County" d="M2557,1870l-48,15 41,-36ZM2792,1843l-4,27 34,-50 13,23 -15,29 10,20 48,18 8,60 30,-1 -33,-23 32,-36 18,12 -7,49 -126,-1 -113,12 -28,11 -30,42 -40,-31 -22,-27 30,-12 35,30 3,-29 52,-68 8,-29 27,-9 13,-26 52,-28ZM2692,1767l26,6 -33,24 -43,17 -2,21 -26,17 -15,-24 56,-44Z"/>
    <path data-fips-int="25009" data-name="Essex County" d="M2421,626l-39,-17 -26,-38 16,-39 -5,-24 -31,-7 15,-52 21,-15 -23,-27 -70,10 -110,-71 15,-10 -16,-89 30,-13 38,11 -5,-66 50,-39 61,18 30,-65 60,-14 32,-20 41,3 34,26 28,-11 5,60 -45,9 13,18 35,-8 15,71 24,52 -27,-16 -25,-50 13,64 64,34 -14,41h35l2,-18 45,14 -10,-15 31,-34 24,3 -2,35h23l2,33 -30,15 -23,49 -5,-31h-19l-18,39 -26,-2 -47,26 -13,-8 -79,33 -34,-16 31,31 2,27 18,-21 20,13 -50,64 -25,-8 -11,61 -5,-46Z"/>
    <path data-fips-int="25019" data-name="Nantucket County" d="M3345,1960l44,84 -5,44 -39,14 -94,-2 -97,-39 18,-28 97,5 63,-23 23,-25 -15,-21 -36,46 30,-76Z"/>
    <path data-fips-int="25023" data-name="Plymouth County" d="M2567,832l-23,32 23,47 37,-26 3,-23 12,-16 18,36 28,20 7,50 73,107v46l-28,4 -7,27 -32,17 12,24 40,43 43,14 20,-12 45,30 -7,17 22,66 -17,43 5,18 -24,30 -62,31 10,20 -38,38 -44,-19 10,-20 -39,20 28,30 -17,3 13,36 -43,-46 5,77 -61,-4 16,19 -35,14 -1,-19 -40,-143 -17,3 -16,-42 -99,16 12,-25 -22,-21 59,-63 -20,-74 -52,-47 -28,-165 143,-78 7,-85 -14,-27 58,-21 -21,-53 31,44Z"/>
    <path data-fips-int="25025" data-name="Suffolk County" d="M2346,705l51,38 -33,20 7,49 -45,15 -40,52 -13,-32 -42,-34 25,-28 12,13 35,-44 -9,-28 -31,28 -12,-38 35,-15 25,26ZM2421,626l-7,30 18,43 -30,33 -33,-23 -10,-35 28,-56 -5,-9Z"/>
  </g>
  <path class="mesh" transform="scale(0.1)" d="M1226,265l10,58 39,14 1,62 -36,17 -7,26 5,58 22,24 -44,42 7,49 -28,50v71l-14,31 -26,18 5,-36 -22,-109 -100,14 -5,-31 -198,31 4,-57 -53,7v-18l-104,-32 -3,-70 -90,-19 5,19 -41,200 -50,-12v74l35,28 23,-6 -2,77 -33,134 -33,-6 8,38 -11,29 16,68M2056,1185l74,-29 206,-111 28,165 52,47 20,74 -59,63 22,21 -12,25 99,-16 16,42 17,-3 40,143 1,19M549,233l-1,48 68,-1 -40,46 32,2 5,31 -24,106M561,768l43,-38 55,4 9,9 3,86 -30,32 35,29 16,-30 59,5 11,46 87,22 -4,-37 32,-18 22,-58 31,-4 -23,55 27,28 176,-24 8,58 29,-4 21,-37 67,-23 45,-9 -40,55v21l58,28 2,11 59,-11 -1,164M1195,736l28,-10 8,62 57,-10 8,24 -16,58M2168,247l16,89 -15,10 110,71 70,-10 23,27 -21,15 -15,52 31,7 5,24 -16,39 26,38 5,9 -28,56M2346,705l-35,22 -25,-26 -35,15 12,38 -20,19 13,12 -25,28 -33,-46 -40,-10 -55,19 25,81 -27,-1 -11,60 -55,16 -68,40 -19,-13 -5,-31 -75,-5 -18,-27 15,-52 18,-10 57,3 18,-81 -60,2 -31,20 -37,-48 42,-46 -22,-13 42,-19 15,-61 -15,-15 25,-55 -7,-31 -73,-11 -17,34 -40,-8 14,-101 -104,-40v8l-74,4 1,-42 -38,-55M2607,862l-3,23 -37,26 -23,-47 23,-32M2231,813l42,34 13,32 40,-52 45,-15M2472,855l14,27 -7,85 -143,78M1948,1145l-3,-125 22,-18v-30M2263,754l31,-28 9,28 -35,44 -12,-13M2765,1477l-10,-20 62,-31 24,-30M2421,626l-39,-17"/>
  <g class="cities">
    <circle r="3" cx="235.1" cy="71.8"/>
    <text x="235.1" y="71.8">Boston</text>
    <circle r="3" cx="166.8" cy="84.0"/>
    <text x="166.8" y="84.0">Worcester</text>
    <circle r="3" cx="93.7" cy="103.7"/>
    <text x="93.7" y="103.7">Springfield</text>
  </g>
</svg>