<?xml version="1.0" encoding="utf-8"?>
<!DOCTYPE svg PUBLIC "-//W3C//DTD SVG 1.1//EN" "http://www.w3.org/Graphics/SVG/1.1/DTD/svg11.dtd">
<svg version="1.1" xmlns="http://www.w3.org/2000/svg" width="1000" height="527" viewBox="0 0 1000 527">
  <path class="state" d="M270,17l80,1 104,1h145l46,-1h71l94,-2v24l6,71 3,36 2,28 3,46 4,36 4,57 2,21 2,27 22,1h54l55,-1 -6,4 1,11 -16,-4 12,6 8,12 -10,16 -2,12 -11,9 1,-11 -11,6 -3,19 -10,15 -11,9 3,6 -6,11 -52,7 -8,9 -14,-6 -22,7v6l-11,6 -3,-10 7,-13 -7,3 6,-13 4,3 15,-13 -19,1 -2,-7 6,-8 15,-2 -14,-5h-15l-11,6v-14l15,-6 4,1 9,-9 -8,-1 14,-9 -19,4 -3,7 -5,-10 3,-9 12,-19 -3,-4 7,-12h-5l-2,18 -8,2 -9,13 -2,14 -14,-15 12,-4 -3,-12h-7l-9,17 4,5 -1,15 -4,2 -11,-19 -14,-7 -3,-10 -10,3 -11,-10v-7l-11,-18 1,-6h9l8,-7 5,4 5,-6 -5,-11 -6,8 -9,-23 18,5 6,-6 5,9h14l11,9 14,-7 1,-13 6,-12 -11,-7 -5,-8 3,-7 14,-11 -14,10 -4,8 5,10 10,6 -9,11 -1,10 -6,5 -13,-13 -7,1 -12,-13v-11l-6,8 -8,-8 8,-7 -11,-9 -1,9 -8,4 -1,-12 -8,15 -1,-12 7,-19 9,-5 9,7 1,9 10,11 5,-10 -9,-2v-17l6,-8 14,-2 -4,-11 -18,11 -6,-21 12,-9v-15l5,-11 24,-20 -8,-9 17,-14 -15,8 -3,8 7,4 -10,5 2,5 -20,10 5,-13 -17,25 -3,-19 -8,-6 11,-28 9,-12 2,-11h10l2,-11 19,3 20,-2 1,3 20,-5 -11,3 -13,-5 -19,-1 -1,-3 13,-11 7,-10 6,2 -2,-9 15,-9 2,-14 -12,19 -4,-2 -18,20 7,-30 -9,5 -5,-8 -8,7 -12,15 7,3 -1,12 -11,8 -14,15 -7,-3 7,-18 -5,-10 -2,15 -7,12 7,8 -8,9 -3,-23 -11,-1 -7,5h12l1,10 -8,-3 1,11 -14,2 8,11 -9,2v-6l-13,-9 10,11 2,8 10,3 -10,10 -11,-2 -8,-11 -10,-6 -9,1 13,8 -5,6 2,1 9,-1 8,16 3,-4 9,7 3,13 -7,-1 -14,6 24,9v13l-13,3 -9,-9 -8,-14 -5,7 21,16 6,11 -4,9 -14,-11 -12,-3 21,14 1,7 -11,6 1,6 9,-3 -3,14 -13,8 9,16 -1,12 4,11v29l6,14 13,12 8,19 -6,11 -9,-1 -13,-24 -17,-8 2,-4 -12,-3 -6,-28 -1,-25 -4,-1 5,12 -3,10 2,12 -5,-1 6,4 -5,9 6,1v9l19,18 18,9 3,11 5,7 14,-4 -1,15 3,10 13,16 -4,11 6,17 -6,1 -5,-9 -12,-7 -4,-16 -4,9 -15,-1 -2,-11 -18,-12 -13,-2 4,-7 -16,-1 1,7 -9,3 -7,-11 -7,-19 2,-6 -8,-9 -12,2 14,5 -2,10 6,11 -1,6 -17,-6v-6l-11,-9 -6,-22 -8,-15v10l-15,10 3,-12 -5,2 -4,15 -16,8 -8,-6 -5,-23 3,-16 16,-21 16,-9 -2,-10 9,-6 10,-3 1,-28 24,-24 -19,-21 -9,-7 -16,15 -7,-8 -18,-2 -2,-14 -20,-10 -27,-4 -3,-7 -9,-6 3,-16 10,-11 -6,-8 -12,-4 -5,-11 -16,-1 -7,-4 -17,-3 4,-14 -3,-11 -10,-3 5,-7 -4,-8 -11,-2 -7,-18 9,-1 2,-9 -11,-5v5l-11,-5 -16,4 -13,-18 -20,-8 -12,9 -9,11 -14,-5h-6l-6,8 -10,-3 7,7 -12,6 -2,15 -22,-2 -4,-4h-15l-21,-12 -3,-6 8,-5 -13,-3 1,7 -32,33 -4,12 -17,-11 -7,-1 -6,1 -3,13 -8,3 -14,14 -9,2 -7,17 -9,-2 -14,10 -6,10 -13,6 1,-59 3,-83 115,2ZM759,434l7,8 -2,7 -5,-6 -7,3ZM708,221h7l-3,17 -2,-6 -15,7 3,14 -8,4v-20l9,-25 4,-7ZM761,485l6,-6 9,13 -6,3ZM958,420l-9,33 -13,26 13,-40Z"/>
  <g class="counties">
    <path data-fips-int="24001" data-name="Allegany County" d="M270,17l4,12 -9,5 7,6h-6l-6,8 -10,-3 7,7 -12,6 -2,15 -22,-2 -4,-4h-15l-21,-12 -3,-6 8,-5 -13,-3 1,7 -32,33 -4,12 -17,-11 -7,-1 12,-23 18,-43Z"/>
    <path data-fips-int="24005" data-name="Baltimore County" d="M645,18v30l8,19 12,7 20,18 5,16 -7,5h12l1,10 -8,-3 1,11 -14,2 8,11 -9,2v-6l-13,-9 10,11 2,8 10,3 -10,10 -11,-2 -8,-11v-36h-39v26l20,11 -16,7 -21,-14v-14h-11l-8,-9 -2,-29 22,-73Z"/>
    <path data-fips-int="24011" data-name="Caroline County" d="M832,314l-12,-13 -8,2 -9,-7 -21,8 -11,-7 -5,-8 3,-7 14,-11 7,-4 -5,-13 -6,-7v-10l2,-13 20,-37 20,-12 3,46 4,36Z"/>
    <path data-fips-int="24013" data-name="Carroll County" d="M599,19l-22,73 2,29 -22,-4 -8,4 -13,-5 -18,4 4,-19 9,-20 -6,-5 -14,-18 -21,-10 7,-13 12,-10 -1,-6Z"/>
    <path data-fips-int="24015" data-name="Cecil County" d="M816,111l-14,1 -11,3 -13,-5 -19,-1 -1,-3 13,-11 7,-10 6,2 -2,-9 15,-9 2,-14 -12,19 -4,-2 -18,20 7,-30 -9,5 -5,-8 -8,7 -20,-31 -14,-17 94,-2v24Z"/>
    <path data-fips-int="24017" data-name="Charles County" d="M538,302l6,17 14,-8 17,2 10,-2 24,11 1,16 9,4 6,4 -5,9 -15,-5 -12,24 -10,10 -12,2 14,5 -2,10 6,11 -1,6 -17,-6v-6l-11,-9 -6,-22 -8,-15v10l-15,10 3,-12 -5,2 -4,15 -16,8 -8,-6 -5,-23 3,-16 16,-21 16,-9 -2,-10Z"/>
    <path data-fips-int="24021" data-name="Frederick County" d="M508,19l1,6 -12,10 -7,13 21,10 14,18 6,5 -9,20 -4,19 -26,15 -36,21 -6,-8 -12,-4 -5,-11 -16,-1 -7,-4 8,-21 5,-18 -1,-14 5,-6 5,-22 10,-4 8,-11 -4,-3 8,-10Z"/>
    <path data-fips-int="24023" data-name="Garrett County" d="M144,15l-18,43 -12,23 -6,1 -3,13 -8,3 -14,14 -9,2 -7,17 -9,-2 -14,10 -6,10 -13,6 1,-59 3,-83Z"/>
    <path data-fips-int="24025" data-name="Harford County" d="M716,18l14,17 20,31 -12,15 7,3 -1,12 -11,8 -14,15 -7,-3 7,-18 -5,-10 -2,15 -7,12 7,8 -8,9 -3,-23 -11,-1 -5,-16 -20,-18 -12,-7 -8,-19v-30Z"/>
    <path data-fips-int="24027" data-name="Howard County" d="M579,121l8,9h11v14l21,14 -16,15 -3,9 -12,6 -10,-7 -15,-1 -9,-9 -2,-11 -12,-13 -14,-4 -12,-20 4,-3 18,-4 13,5 8,-4Z"/>
    <path data-fips-int="24031" data-name="Montgomery County" d="M578,181l-22,38 -2,7 -9,-7 -16,15 -7,-8 -18,-2 -2,-14 -20,-10 -27,-4 -3,-7 -9,-6 3,-16 10,-11 36,-21 26,-15 -4,3 12,20 14,4 12,13 2,11 9,9Z"/>
    <path data-fips-int="24033" data-name="Prince George's County" d="M588,188l2,11 18,9 10,12 3,18 5,5 -10,24v12l6,7 -2,23 5,12 -3,10 2,12 -5,-1 -9,-4 -1,-16 -24,-11 -10,2 -17,-2 -14,8 -6,-17 10,-3 1,-28 24,-24 -19,-21 2,-7 22,-38Z"/>
    <path data-fips-int="24043" data-name="Washington County" d="M454,19l-8,10 4,3 -8,11 -10,4 -5,22 -5,6 1,14 -5,18 -8,21 -17,-3 4,-14 -3,-11 -10,-3 5,-7 -4,-8 -11,-2 -7,-18 9,-1 2,-9 -11,-5v5l-11,-5 -16,4 -13,-18 -20,-8 -12,9 -9,11 -14,-5 -7,-6 9,-5 -4,-12 80,1Z"/>
    <path data-fips-int="24045" data-name="Wicomico County" d="M912,363l7,26 -10,13 -1,6 -54,4 -12,-5 -5,9 -17,-5 -5,5 -19,4 -3,7 -5,-10 3,-9 12,-19 -3,-4 7,-12 -2,-8 5,-10 11,-7v-4l13,-9 2,27 22,1Z"/>
    <path data-fips-int="24003" data-name="Anne Arundel County" d="M668,241l-14,-11 -12,-3 21,14 1,7 -11,6 1,6 9,-3 -3,14 -13,8 9,16 -19,-2 -2,-12 -13,5 -6,-7v-12l10,-24 -5,-5 -3,-18 -10,-12 -18,-9 -2,-11 12,-6 3,-9 16,-15 16,-7 8,8 2,1 9,-1 8,16 3,-4 9,7 3,13 -7,-1 -14,6 24,9v13l-13,3 -9,-9 -8,-14 -5,7 21,16 6,11Z"/>
    <path data-fips-int="24009" data-name="Calvert County" d="M656,295l-1,12 4,11v29l6,14 13,12 8,19 -6,11 -9,-1 -13,-24 -17,-8 2,-4 -12,-3 -6,-28 -1,-25 -4,-1 2,-23 13,-5 2,12Z"/>
    <path data-fips-int="24019" data-name="Dorchester County" d="M734,402l-3,-10 -10,3 -11,-10v-7l-11,-18 1,-6h9l8,-7 5,4 5,-6 -5,-11 -6,8 -9,-23 18,5 6,-6 5,9h14l11,9 14,-7 1,-13 6,-12 21,-8 9,7 8,-2 12,13 2,21 -13,9v4l-11,7 -5,10 2,8h-5l-2,18 -8,2 -9,13 -2,14 -14,-15 12,-4 -3,-12h-7l-9,17 4,5 -1,15 -4,2 -11,-19ZM759,434l7,8 -2,7 -5,-6 -7,3Z"/>
    <path data-fips-int="24029" data-name="Kent County" d="M816,111l3,36 -9,1 -14,-5 -17,6 -9,-1 -15,8 -3,8 7,4 -10,5 2,5 -20,10 5,-13 -17,25 -3,-19 -8,-6 11,-28 9,-12 2,-11h10l2,-11 19,3 20,-2 1,3 20,-5Z"/>
    <path data-fips-int="24035" data-name="Queen Anne's County" d="M819,147l2,28 -20,12 -20,37 -2,13 -33,-6 -2,5 -18,11 -6,-21 12,-9v-15l5,-11 24,-20 -8,-9 17,-14 9,1 17,-6 14,5ZM708,221h7l-3,17 -2,-6 -15,7 3,14 -8,4v-20l9,-25 4,-7Z"/>
    <path data-fips-int="24037" data-name="Saint Mary's County" d="M666,403l5,7 14,-4 -1,15 3,10 13,16 -4,11 6,17 -6,1 -5,-9 -12,-7 -4,-16 -4,9 -15,-1 -2,-11 -18,-12 -13,-2 4,-7 -16,-1 1,7 -9,3 -7,-11 -7,-19 2,-6 -8,-9 10,-10 12,-24 15,5 6,1v9l19,18 18,9Z"/>
    <path data-fips-int="24039" data-name="Somerset County" d="M802,470l-2,-7 6,-8 15,-2 -14,-5h-15l-11,6v-14l15,-6 4,1 9,-9 -8,-1 14,-9 5,-5 17,5 5,-9 12,5 2,8 13,18 -7,12 8,9 -6,9h-10l-9,12 9,10 -8,9 -14,-6 -22,7v6l-11,6 -3,-10 7,-13 -7,3 6,-13 4,3 15,-13ZM761,485l6,-6 9,13 -6,3Z"/>
    <path data-fips-int="24041" data-name="Talbot County" d="M779,237v10l6,7 5,13 -7,4 -14,10 -4,8 5,10 10,6 -9,11 -1,10 -6,5 -13,-13 -7,1 -12,-13v-11l-6,8 -8,-8 8,-7 -11,-9 -1,9 -8,4 -1,-12 -8,15 -1,-12 7,-19 9,-5 9,7 1,9 10,11 5,-10 -9,-2v-17l6,-8 14,-2 -4,-11 2,-5Z"/>
    <path data-fips-int="24510" data-name="Baltimore" d="M654,150l-10,-6 -9,1 13,8 -5,6 -8,-8 -20,-11v-26h39Z"/>
    <path data-fips-int="24047" data-name="Worcester County" d="M962,377l-16,-4 12,6 8,12 -10,16 -2,12 -11,9 1,-11 -11,6 -3,19 -10,15 -11,9 3,6 -6,11 -52,7 -9,-10 9,-12h10l6,-9 -8,-9 7,-12 -13,-18 -2,-8 54,-4 1,-6 10,-13 -7,-26 55,-1 -6,4ZM958,420l-9,33 -13,26 13,-40Z"/>
  </g>
  <path class="mesh" d="M270,17l4,12 -9,5 7,6M645,18v30l8,19 12,7 20,18 5,16M654,150v-36h-39v26l20,11 -16,7 -21,-14v-14h-11l-8,-9 -2,-29 22,-73M832,314l-12,-13 -8,2 -9,-7 -21,8M783,271l7,-4 -5,-13 -6,-7v-10l2,-13 20,-37 20,-12M579,121l-22,-4 -8,4 -13,-5 -18,4 4,-19 9,-20 -6,-5 -14,-18 -21,-10 7,-13 12,-10 -1,-6M816,111l-14,1M750,66l-20,-31 -14,-17M538,302l6,17 14,-8 17,2 10,-2 24,11 1,16 9,4M620,355l-15,-5 -12,24 -10,10M114,81l12,-23 18,-43M619,158l-16,15 -3,9 -12,6 -10,-7 -15,-1 -9,-9 -2,-11 -12,-13 -14,-4 -12,-20 4,-3 -26,15 -36,21M410,128l8,-21 5,-18 -1,-14 5,-6 5,-22 10,-4 8,-11 -4,-3 8,-10M578,181l-22,38 -2,7M588,188l2,11 18,9 10,12 3,18 5,5 -10,24v12l6,7 -2,23M912,363l7,26 -10,13 -1,6 -54,4 -12,-5 -5,9 -17,-5 -5,5M807,373l-2,-8 5,-10 11,-7v-4l13,-9M656,295l-19,-2 -2,-12 -13,5M635,151l8,8M819,147l-9,1 -14,-5 -17,6 -9,-1M779,237l-33,-6 -2,5M854,412l2,8 13,18 -7,12 8,9 -6,9h-10l-9,12 9,10"/>
  <g class="cities">
    <circle r="7" cx="637" cy="137"/>
    <text x="637" y="137">Baltimore</text>
    <circle r="7" cx="467" cy="104"/>
    <text x="467" y="104">Frederick</text>
    <circle r="7" cx="522" cy="194"/>
    <text x="522" y="194">Rockville</text>
  </g>
</svg>