<?xml version="1.0" encoding="utf-8"?>
<!DOCTYPE svg PUBLIC "-//W3C//DTD SVG 1.1//EN" "http://www.w3.org/Graphics/SVG/1.1/DTD/svg11.dtd">
<svg version="1.1" xmlns="http://www.w3.org/2000/svg" width="350" height="185" viewBox="0 0 350 185">
  <g class="counties" transform="scale(0.1)">
    <path data-fips-int="24001" data-name="Allegany County" d="M944,64l1,0 -1,0 18,14 -12,68 -31,5 3,18 -40,-13 22,36 -49,6 29,36 -30,22 -77,0 -18,-16 -47,2 -51,-29 -5,-21 -32,-20 30,-9 -48,-13 -60,100 -50,41 -16,38 -54,-37 -23,-3 106,-232Z"/>
    <path data-fips-int="24005" data-name="Baltimore County" d="M2258,67l3,103 43,86 45,16 47,46 20,63 -25,12 41,8 4,33 -30,-4 6,31 -28,-7 2,68 -25,-6 -2,-29 -36,-24 33,65 23,16 -61,23 11,-60 -28,31 -10,-9 -2,-126 -134,1 1,91 68,38 -58,24 -73,-51 2,-46 -47,-3 -20,-30 -7,-30 0,-1 4,-3 6,-5 -13,-38 78,-281Z"/>
    <path data-fips-int="24011" data-name="Caroline County" d="M2911,1104l-40,-48 -10,9 -46,-25 -77,27 -36,-21 -17,-34 8,-21 49,-39 21,-10 -30,-61 -5,-46 4,-49 45,-58 40,-84 58,-28Z"/>
    <path data-fips-int="24013" data-name="Carroll County" d="M2096,69l-78,281 13,38 -6,5 -4,3 0,1 7,30 0,-1 -25,-1 -40,-12 -40,13 -58,-18 -50,16 0,-1 15,-64 23,-40 2,-35 -66,-78 -77,-37 67,-75 0,-24Z"/>
    <path data-fips-int="24015" data-name="Cecil County" d="M2858,390l-50,6 -40,9 -55,-18 -58,-2 67,-86 30,-1 48,25 -55,-51 35,-12 15,-63 -42,66 -66,39 16,-80 17,-24 -40,20 -2,16 -38,-11 -15,12 -68,-107 -35,-32 -15,-32 326,-4 3,79Z"/>
    <path data-fips-int="24017" data-name="Charles County" d="M1883,1061l22,69 22,-28 28,-10 58,6 32,-7 88,40 5,56 25,12 5,3 20,28 -19,16 -11,-12 -40,-4 -42,77 -35,41 -38,-1 48,32 -11,24 28,59 -8,6 -60,-22 11,-23 -51,-27 -8,-53 -34,-76 -6,31 -39,34 -20,-33 -15,49 -51,31 -35,-22 -15,-93 28,-70 40,-47 57,-27 -7,-38Z"/>
    <path data-fips-int="24021" data-name="Frederick County" d="M1779,70l0,24 -67,75 77,37 66,78 -2,35 -23,40 -15,64 0,1 -3,0 0,1 -206,123 -7,0 -62,-40 -18,-39 -40,2 -43,-20 28,-76 2,-34 17,-29 -5,-30 18,-40 21,-76 29,-10 28,-43 -12,-8 29,-35 1,0Z"/>
    <path data-fips-int="24023" data-name="Garrett County" d="M509,57l-106,232 -23,2 -2,26 -38,30 -12,28 -25,0 -11,21 -32,7 -28,58 -30,-2 -32,21 -46,53 -37,12 18,-495Z"/>
    <path data-fips-int="24025" data-name="Harford County" d="M2507,64l15,32 35,32 68,107 -15,7 -18,42 18,17 -6,41 -50,42 -35,-1 20,20 -24,18 -19,-16 21,-58 -7,-31 -36,12 25,13 -28,63 21,23 -18,44 -20,-84 -38,-6 -20,-63 -47,-46 -45,-16 -43,-86 -3,-103Z"/>
    <path data-fips-int="24027" data-name="Howard County" d="M2003,425l25,1 0,1 20,30 47,3 -2,46 73,51 -18,28 -30,15 -27,45 -31,18 -37,-26 -51,-4 -34,-38 -5,-31 -53,-51 -40,-11 -38,-63 10,-14 0,-1 3,0 50,-16 58,18 40,-13Z"/>
    <path data-fips-int="24031" data-name="Montgomery County" d="M1938,595l34,38 51,4 -75,132 -8,27 -30,-28 -57,57 -24,-29 -55,-6 -17,-12 2,-36 -72,-39 -93,-13 -12,-28 -30,-16 -6,-24 16,-34 15,-3 22,-37 7,0 206,-123 -10,14 38,63 40,11 53,51Z"/>
    <path data-fips-int="24033" data-name="Prince George's County" d="M2060,663l8,8 -5,26 40,21 15,8 43,44 17,70 6,40 -26,60 -2,38 22,26 -12,34 3,47 19,46 -10,30 5,42 -15,-1 -5,-3 -25,-12 -5,-56 -88,-40 -32,7 -58,-6 -28,10 -22,28 -22,-69 57,-7 -25,-10 22,-39 -19,-22 5,-29 87,-88 -70,-70 8,-27 75,-132Z"/>
    <path data-fips-int="24043" data-name="Washington County" d="M1591,70l-29,35 12,8 -28,43 -29,10 -21,76 -18,40 5,30 -17,29 -2,34 -28,76 -40,1 -22,-21 19,-41 -14,-35 -38,-13 8,-51 -34,-7 11,-20 -26,3 -12,-47 33,-5 0,-36 -38,-9 -2,17 -35,-12 -50,9 -26,-40 -48,-41 -57,-15 -58,56 -5,18 -52,-16 12,-68 -18,-14 1,0 398,3Z"/>
    <path data-fips-int="24045" data-name="Wicomico County" d="M3192,1275l19,42 -9,26 19,26 -40,42 -4,21 -186,14 -40,-19 -25,33 -53,-19 -20,19 -71,25 -22,-22 25,-62 40,-56 0,-36 3,-53 48,-31 4,-17 40,-32 6,96 125,4Z"/>
    <path data-fips-int="24003" data-name="Anne Arundel County" d="M2339,846l-53,-44 -40,-6 62,42 16,31 -36,-7 33,43 -12,47 -41,28 28,57 -67,-7 -5,-44 -45,11 -1,7 -22,-26 2,-38 26,-60 -6,-40 -17,-70 -43,-44 -15,-8 -40,-21 5,-26 -8,-8 31,-18 27,-45 30,-15 18,-28 58,-24 27,29 5,2 33,-2 24,44 54,28 2,39 -22,-4 -43,27 57,14 33,39 -58,27 -32,-30 -20,-42 -26,17 74,57 20,38Z"/>
    <path data-fips-int="24009" data-name="Calvert County" d="M2296,1037l-3,32 16,65 -3,78 20,49 83,92 -30,61 -32,-5 -24,-62 -32,-34 -25,4 -55,-44 -17,-39 -11,-145 -14,-4 -3,-47 12,-34 1,-7 45,-11 5,44Z"/>
    <path data-fips-int="24019" data-name="Dorchester County" d="M2655,1523l27,23 -23,31 -27,-11 0,-32ZM2569,1411l-10,-38 -25,-4 -12,-27 -3,45 -32,-34 -1,-27 -40,-61 3,-23 35,2 25,-27 50,-2 -25,-21 21,-9 -28,-12 -22,29 -29,-29 38,-56 23,24 25,-24 3,24 24,-2 21,24 17,-11 37,27 49,-24 4,-44 21,-44 77,-27 46,25 10,-9 40,48 9,72 -40,32 -4,17 -48,31 -3,53 -13,0 -17,43 5,18 -38,20 -27,70 2,29 -52,-68 37,-10 -7,-46 -22,0 -11,35 -32,25 28,24 -24,49 -12,-37 -30,-35Z"/>
    <path data-fips-int="24029" data-name="Kent County" d="M2858,390l7,127 -29,5 -51,-19 -55,24 -33,-7 -17,2 -45,39 19,35 -32,16 5,15 -30,25 -37,11 4,-27 -49,67 -8,-71 -26,-15 44,-116 39,-25 -19,-24 19,-17 33,10 -15,-21 18,-24 62,10 45,-11 83,11 18,-14Z"/>
    <path data-fips-int="24035" data-name="Queen Anne's County" d="M2481,776l23,1 -10,58 -18,-27 -27,-7 3,43 -15,-9 5,58 -33,10 8,-19 5,-79 40,-68ZM2865,517l10,99 -58,28 -40,84 -45,58 -4,49 -101,-21 -20,16 -70,29 -3,-47 -15,-18 50,-30 -19,-49 107,-116 -13,-42 53,-37 33,7 55,-24 51,19Z"/>
    <path data-fips-int="24037" data-name="Saint Mary's County" d="M2334,1414l17,26 45,-15 20,9 -20,38 11,40 50,76 -13,19 13,63 -28,-4 -10,-22 -50,-51 7,-56 -25,21 -9,35 -34,-29 13,24 -22,5 -16,-49 -30,-28 -72,-16 40,-45 -56,30 0,-44 -17,-18 12,45 -24,37 -23,2 -23,-26 3,-25 -30,-55 10,-21 -32,-32 35,-41 42,-77 40,4 11,12 22,4 18,52 49,41 36,12 25,22Z"/>
    <path data-fips-int="24039" data-name="Somerset County" d="M2697,1738l-4,-25 -26,-12 21,-12 29,24ZM2810,1650l13,-54 23,1 19,-32 -67,15 -50,-5 -13,18 8,-56 59,-12 34,-30 -29,-5 46,-30 20,-19 53,19 25,-33 40,19 5,28 47,76 -22,32 27,26 -2,20 -30,21 -26,-4 -32,33 30,41 -28,33 -40,-14 -19,13 -31,-11 -32,34 -38,22 -17,-21 32,-15 -15,-37 12,-32 64,-50 -11,-18 -22,35Z"/>
    <path data-fips-int="24041" data-name="Talbot County" d="M2627,814l101,21 5,46 30,61 -21,10 -47,35 -13,37 41,49 -20,31 -8,41 -40,-5 -46,-32 -27,-2 -22,-35 22,-16 23,-45 -5,-19 -58,82 -22,-63 32,10 -30,-36 -17,-2 -26,29 21,-2 -11,29 -22,-16 12,-46 -25,5 -13,55 -5,-38 31,-73 25,-22 33,61 37,33 42,-48 -40,25 -17,-19 -5,-45 27,-10 10,-28 41,-2 -13,-40Z"/>
    <path data-fips-int="24510" data-name="Baltimore" d="M2291,529l-20,-20 -48,-1 11,20 35,10 -18,24 -27,-29 -68,-38 -1,-91 134,-1Z"/>
    <path data-fips-int="24047" data-name="Worcester County" d="M3354,1474l-45,144 -22,3 22,-28 7,-46ZM3370,1321l-51,-14 33,22 -8,19 33,16 3,25 -33,47 -10,32 -28,22 -3,-30 -39,27 -11,64 -15,12 -9,50 -31,2 -20,24 11,12 -21,46 -183,22 -30,-41 32,-33 26,4 30,-21 2,-20 -27,-26 22,-32 -47,-76 -5,-28 186,-14 4,-21 40,-42 -19,-26 9,-26 -19,-42 193,-4 -20,23Z"/>
  </g>
  <g class="cities">
    <circle r="3" cx="223.0" cy="48.3"/>
    <text x="223.0" y="48.3">Baltimore</text>
    <circle r="3" cx="173.9" cy="59.7"/>
    <text x="173.9" y="59.7">Germantown</text>
    <circle r="3" cx="192.2" cy="77.2"/>
    <text x="192.2" y="77.2">Silver Spring</text>
  </g>
</svg>