<?xml version="1.0" encoding="utf-8"?>
<!DOCTYPE svg PUBLIC "-//W3C//DTD SVG 1.1//EN" "http://www.w3.org/Graphics/SVG/1.1/DTD/svg11.dtd">
<svg version="1.1" xmlns="http://www.w3.org/2000/svg" width="350" height="185" viewBox="0 0 350 185">
  <path class="state" transform="scale(0.1)" d="M2655,1523l27,23 -5,29 -27,-20 -16,11v-32l21,-11M2481,776l15,10 -10,29 -49,20 5,58 -33,10 17,-105 21,-37 5,-32 29,47M2697,1738l-4,-25 -28,-12 22,-20 30,32 -20,25M3354,1474l-45,144 -22,3 22,-28 7,-46 38,-73M3370,1321l-51,-14 33,22 -10,19 35,16 3,25 -33,47 -10,32 -28,22 2,-24 -44,21 -11,64 -15,12 -22,52 -38,24 11,12 -18,45 -186,22 -28,34 -42,-14 -17,13 -31,-11 -32,34 -38,22 -15,-12 30,-24 -13,-58 74,-60 -10,-19 -23,35 -35,-8 15,-54 23,1 30,-37 -31,21 -97,-6 -13,18 8,-56 59,-12 34,-30 -29,-5 46,-30 -71,25 -22,-22 27,-62 36,-56v-36h-11l-19,43 7,18 -40,20 -27,71 5,28 -53,-68 37,-10 -9,-46h-20l-11,34 -32,26 28,24 -6,46 -20,3 -10,-37 -30,-35 -42,-15 -11,-38 -37,-31 -3,45 -32,-34 -1,-27 -40,-61 3,-23 40,3 20,-28 50,-2 -25,-21 21,-9 -50,-18v35l-29,-29 20,-16 -19,-38 37,1 23,21 25,-24 12,32 53,3 37,27 49,-24 4,-44 23,-44 -22,-6 -36,-39 13,-31 47,-39 -47,35 -13,37 43,49 -22,31v27l-28,31 -48,-45 -45,-11 -22,-52 22,1 22,-45 -2,-19 -60,82 -20,-40 27,-13 -44,-38 -34,42 1,-39 -18,-4 -12,39 -6,-22 31,-73 22,-17 43,39 -7,17 37,33 10,-23 -25,-19 -5,-45 28,-10 7,-28 43,-2 -15,-40 -68,29 -3,-47 -15,-18 51,-30 -20,-49 22,-9 58,-91 27,-16 -13,-42 53,-37 -19,2 -43,39 17,35 -22,8 -1,23 -30,25 -39,11 17,-27 -28,-15 -14,63 -20,19 -19,-88 -15,2 44,-116 40,-25 -20,-24 55,-51 67,8 41,-10 82,11 17,-14 -39,9 -55,-18 -56,-1 -5,-11 45,-39 26,-37 29,-1 48,25 -55,-51 35,-12 13,-63 -38,66 -27,-2 -38,54 13,-93 17,-24 -95,37 -16,7 -17,42 17,17 -5,41 -50,42 -35,-1 20,20 -24,18 -19,-16 21,-58 -7,-31 -36,12 25,13 -28,63 21,23 -18,44 -20,-84 -38,-6 -27,16 43,4 4,33 -35,28 -29,1 27,23 -13,36 -25,-6 -2,-29 -36,-24 33,65 23,16 -23,28 -43,-11 5,-29 -27,-3 -32,-19 -36,-2 5,20 26,-6 15,16 -18,24 5,2 33,-2 7,30 71,42 2,39 -65,4v19l57,14 33,39 -58,27 -32,-30 -20,-42 -23,25 71,49 20,38 -13,30 -53,-44 -43,-5 43,20 -3,13 38,18 3,21 -26,6 -17,40 40,-10 -12,47 -41,30 28,55 -3,32 16,67 -3,76 20,49 75,87 5,27 -27,39 -43,-11 -7,-66 -15,11 -23,-35 -27,2 -53,-42 -15,-40 -13,-144 -14,-4 19,46 -10,30 5,42 -15,-1 20,28 -19,16 40,56 47,41 38,12 40,59 17,26 45,-15 20,9 -20,38 11,40 50,76 -13,19 13,63 -28,-4 -42,-69 -11,12 -10,-46 -15,25 -43,-24 13,24 -22,5 -16,-49 -30,-28 -72,-16 23,-15 22,-34 -61,34v-44l-17,-18 12,45 -20,3 -12,39 -38,-29 3,-25 -30,-55 10,-21 -32,-32 -38,-1 48,32 -11,25 28,58 -8,6 -60,-28 11,-17 -51,-27 -8,-53 -34,-76 -6,31 -39,34 -20,-33 -8,43 -58,37 -35,-22 -15,-93 28,-70 40,-47 57,-27 -7,-38 28,-21 57,-7 -25,-10 22,-39 -19,-22 5,-29 87,-88 -70,-70 -30,-28 -57,57 -24,-29 -55,-6 -17,-12 2,-36 -72,-39 -91,-13 -14,-28 -30,-16 -5,-24 15,-34 17,-3 20,-37 -62,-40 -20,-39 -39,2 -42,-20 -37,2 -25,-15 17,-61 -18,-27 -30,-8 18,-25 -12,-26 -36,-7 15,-20 -30,3 -10,-47 27,-1 8,-37 -42,-12 -26,9h-65l-20,-35 -48,-41 -57,-15 -58,56 -5,18 -52,-16 -31,5 3,18 -40,-13 22,36 -47,6 27,36 -32,22h-75l-18,-16 -52,1 -46,-28 -5,-21 -32,-20 29,-9 -47,-14 2,23 -22,15 -40,63 -45,37 -21,42 -54,-37 -21,-3 -25,2 -4,26 -84,79 -32,7 -25,57 -33,-1 -32,21 -45,53 -38,12 20,-495 402,7 436,7 399,3 248,3h187l317,-1 162,-2 249,-3 328,-4 1,79 22,251 8,127 9,99 23,284 15,204 5,72 8,96 125,4 141,-1 193,-4 -11,17 -22,-13 18,46"/>
  <g class="counties" transform="scale(0.1)">
    <path data-fips-int="24001" data-name="Allegany County" d="M945,64l22,27 -17,55 -31,5 3,18 -40,-13 22,36 -47,6 27,36 -32,22h-75l-18,-16 -52,1 -46,-28 -5,-21 -32,-20 29,-9 -47,-14 2,23 -22,15 -40,63 -45,37 -21,42 -54,-37 -21,-3 104,-232Z"/>
    <path data-fips-int="24005" data-name="Baltimore County" d="M2258,67l3,103 43,86 60,26 32,36 20,63 -27,16 43,4 4,33 -35,28 -29,1 27,23 -13,36 -25,-6 -2,-29 -36,-24 33,65 23,16 -23,28 -43,-11 5,-29 -27,-3 -2,-126 -134,1 1,91 68,38 -58,24 -73,-51 2,-46 -47,-3 -20,-31v-65l-8,-36 18,-27 7,-45 51,-184Z"/>
    <path data-fips-int="24011" data-name="Caroline County" d="M2913,1104l-43,-48 -25,10 -2,-20 -31,-6 -72,27 -22,-6 -36,-39 13,-31 47,-39 26,-16 -40,-101 5,-57 44,-50 35,-78 63,-34 23,284Z"/>
    <path data-fips-int="24013" data-name="Carroll County" d="M2096,69l-51,184 -7,45 -18,27 8,36v65l-80,-11 -25,11 -58,-18 -50,15 15,-64 30,-72 -48,-39 3,-18 -26,-24 -77,-39 23,-11 24,-61 20,-25Z"/>
    <path data-fips-int="24015" data-name="Cecil County" d="M2858,390l-51,6 -39,9 -55,-18 -56,-1 -5,-11 45,-39 26,-37 29,-1 48,25 -55,-51 35,-12 13,-63 -38,66 -27,-2 -38,54 13,-93 17,-24 -95,37 -68,-107 -35,-32 -15,-32 328,-4 1,79Z"/>
    <path data-fips-int="24017" data-name="Charles County" d="M1883,1061l24,71 20,-30 41,-13 45,9 32,-7 88,40 5,56 30,15 20,28 -19,16 -51,-16 -42,77 -35,41 -38,-1 48,32 -11,25 28,58 -8,6 -60,-28 11,-17 -51,-27 -8,-53 -34,-76 -6,31 -39,34 -20,-33 -8,43 -58,37 -35,-22 -15,-93 28,-70 40,-47 57,-27 -7,-38Z"/>
    <path data-fips-int="24021" data-name="Frederick County" d="M1779,70l-20,25 -24,61 -23,11 77,39 26,24 -3,18 48,39 -30,72 -15,64v1l-169,101 -47,23 -62,-40 -20,-39 -39,2 -42,-20 27,-76 5,-41 15,-22 -5,-37 16,-33 23,-76 32,-13 23,-42 -10,-6 30,-35Z"/>
    <path data-fips-int="24023" data-name="Garrett County" d="M509,57l-104,232 -25,2 -4,26 -84,79 -32,7 -25,57 -33,-1 -32,21 -45,53 -38,12 20,-495Z"/>
    <path data-fips-int="24025" data-name="Harford County" d="M2507,64l15,32 35,32 68,107 -16,7 -17,42 17,17 -5,41 -50,42 -35,-1 20,20 -24,18 -19,-16 21,-58 -7,-31 -36,12 25,13 -28,63 21,23 -18,44 -20,-84 -38,-6 -20,-63 -32,-36 -60,-26 -43,-86 -3,-103Z"/>
    <path data-fips-int="24027" data-name="Howard County" d="M2028,426l20,31 47,3 -2,46 73,51 -36,33 -30,50 -40,23 -37,-26 -43,1 -38,-35 -9,-39 -53,-51 -40,-11 -38,-70 13,-8v-1l50,-15 58,18 25,-11Z"/>
    <path data-fips-int="24031" data-name="Montgomery County" d="M2023,637l-75,132 -8,27 -30,-28 -57,57 -24,-29 -55,-6 -17,-12 2,-36 -72,-39 -91,-13 -14,-28 -30,-16 -5,-24 15,-34 17,-3 20,-37 47,-23 169,-101 -13,8 38,70 40,11 53,51 9,39 38,35Z"/>
    <path data-fips-int="24033" data-name="Prince George's County" d="M2060,663l3,27 35,29 27,7 36,44 12,67 16,14 -31,89 -2,38 22,26 -12,34 3,47 19,46 -10,30 5,42 -15,-1 -30,-15 -5,-56 -88,-40 -32,7 -45,-9 -41,13 -20,30 -24,-71 57,-7 -25,-10 22,-39 -19,-22 5,-29 87,-88 -70,-70 8,-27 75,-132Z"/>
    <path data-fips-int="24043" data-name="Washington County" d="M1592,70l-30,35 10,6 -23,42 -32,13 -23,76 -16,33 5,37 -15,22 -5,41 -27,76 -37,2 -25,-15 17,-61 -18,-27 -30,-8 18,-25 -12,-26 -36,-7 15,-20 -30,3 -10,-47 27,-1 8,-37 -42,-12 -26,9h-65l-20,-35 -48,-41 -57,-15 -58,56 -5,18 -52,-16 17,-55 -22,-27 399,3Z"/>
    <path data-fips-int="24045" data-name="Wicomico County" d="M3192,1275l19,42 -10,25 20,27 -39,42 -5,21 -186,14 -41,-19 -20,31 -60,-15 -17,17 -71,25 -22,-22 27,-62 36,-56v-36l5,-53 48,-31 9,-25 33,-24 8,96 125,4Z"/>
    <path data-fips-int="24003" data-name="Anne Arundel County" d="M2339,846l-53,-44 -43,-5 43,20 -3,13 38,18 3,21 -26,6 -17,40 40,-10 -12,47 -41,30 28,55 -67,-7 -5,-44 -46,18 -22,-26 2,-38 31,-89 -16,-14 -12,-67 -36,-44 -27,-7 -35,-29 -3,-27 40,-23 30,-50 36,-33 58,-24 27,29 5,2 33,-2 7,30 71,42 2,39 -65,4v19l57,14 33,39 -58,27 -32,-30 -20,-42 -23,25 71,49 20,38Z"/>
    <path data-fips-int="24009" data-name="Calvert County" d="M2296,1037l-3,32 16,67 -3,76 20,49 75,87 5,27 -27,39 -43,-11 -7,-66 -15,11 -23,-35 -27,2 -53,-42 -15,-40 -13,-144 -14,-4 -3,-47 12,-34 46,-18 5,44Z"/>
    <path data-fips-int="24019" data-name="Dorchester County" d="M2655,1523l27,23 -5,29 -27,-20 -16,11v-32ZM2570,1411l-11,-38 -37,-31 -3,45 -32,-34 -1,-27 -40,-61 3,-23 40,3 20,-28 50,-2 -25,-21 21,-9 -50,-18v35l-29,-29 20,-16 -19,-38 37,1 23,21 25,-24 12,32 53,3 37,27 49,-24 4,-44 23,-44 72,-27 31,6 2,20 25,-10 43,48 5,72 -33,24 -9,25 -48,31 -5,53h-11l-19,43 7,18 -40,20 -27,71 5,28 -53,-68 37,-10 -9,-46h-20l-11,34 -32,26 28,24 -6,46 -20,3 -10,-37 -30,-35Z"/>
    <path data-fips-int="24029" data-name="Kent County" d="M2858,390l8,127 -30,5 -49,-19 -59,24 -31,-7 -19,2 -43,39 17,35 -22,8 -1,23 -30,25 -39,11 17,-27 -28,-15 -14,63 -20,19 -19,-88 -15,2 44,-116 40,-25 -20,-24 55,-51 67,8 41,-10 82,11 17,-14Z"/>
    <path data-fips-int="24035" data-name="Queen Anne's County" d="M2481,776l15,10 -10,29 -49,20 5,58 -33,10 17,-105 21,-37 5,-32ZM2866,517l9,99 -63,34 -35,78 -44,50 -5,57 -109,-25 -14,20 -68,29 -3,-47 -15,-18 51,-30 -20,-49 22,-9 58,-91 27,-16 -13,-42 53,-37 31,7 59,-24 49,19Z"/>
    <path data-fips-int="24037" data-name="Saint Mary's County" d="M2334,1414l17,26 45,-15 20,9 -20,38 11,40 50,76 -13,19 13,63 -28,-4 -42,-69 -11,12 -10,-46 -15,25 -43,-24 13,24 -22,5 -16,-49 -30,-28 -72,-16 23,-15 22,-34 -61,34v-44l-17,-18 12,45 -20,3 -12,39 -38,-29 3,-25 -30,-55 10,-21 -32,-32 35,-41 42,-77 51,16 40,56 47,41 38,12Z"/>
    <path data-fips-int="24039" data-name="Somerset County" d="M2697,1738l-4,-25 -28,-12 22,-20 30,32ZM2808,1650l15,-54 23,1 30,-37 -31,21 -97,-6 -13,18 8,-56 59,-12 34,-30 -29,-5 46,-30 17,-17 60,15 20,-31 41,19 5,28 45,60 -20,48 23,46 -25,20 -29,-3 -32,33 30,40 -28,34 -42,-14 -17,13 -31,-11 -32,34 -38,22 -15,-12 30,-24 -13,-58 74,-60 -10,-19 -23,35Z"/>
    <path data-fips-int="24041" data-name="Talbot County" d="M2728,835l40,101 -26,16 -47,35 -13,37 43,49 -22,31v27l-28,31 -48,-45 -45,-11 -22,-52 22,1 22,-45 -2,-19 -60,82 -20,-40 27,-13 -44,-38 -34,42 1,-39 -18,-4 -12,39 -6,-22 31,-73 22,-17 43,39 -7,17 37,33 10,-23 -25,-19 -5,-45 28,-10 7,-28 43,-2 -15,-40 14,-20Z"/>
    <path data-fips-int="24510" data-name="Baltimore" d="M2291,529l-32,-19 -36,-2 5,20 26,-6 15,16 -18,24 -27,-29 -68,-38 -1,-91 134,-1Z"/>
    <path data-fips-int="24047" data-name="Worcester County" d="M3354,1474l-45,144 -22,3 22,-28 7,-46ZM3370,1321l-51,-14 33,22 -10,19 35,16 3,25 -33,47 -10,32 -28,22 2,-24 -44,21 -11,64 -15,12 -22,52 -38,24 11,12 -18,45 -186,22 -30,-40 32,-33 29,3 25,-20 -23,-46 20,-48 -45,-60 -5,-28 186,-14 5,-21 39,-42 -20,-27 10,-25 -19,-42 193,-4 -11,17 -22,-13Z"/>
  </g>
  <path class="mesh" transform="scale(0.1)" d="M405,289l104,-232M2258,67l3,103 43,86 60,26 32,36 20,63M2291,529l-2,-126 -134,1 1,91 68,38 -58,24 -73,-51 2,-46 -47,-3 -20,-31v-65l-8,-36 18,-27 7,-45 51,-184M2913,1104l-43,-48 -25,10 -2,-20 -31,-6 -72,27M2742,952l26,-16 -40,-101 5,-57 44,-50 35,-78 63,-34M2028,426l-80,-11 -25,11 -58,-18 -50,15 15,-64 30,-72 -48,-39 3,-18 -26,-24 -77,-39 23,-11 24,-61 20,-25M2858,390l-51,6M2625,235l-68,-107 -35,-32 -15,-32M1883,1061l24,71 20,-30 41,-13 45,9 32,-7 88,40 5,56 30,15M2169,1246l-51,-16 -42,77 -35,41M1815,423v1l-169,101 -47,23M1436,451l27,-76 5,-41 15,-22 -5,-37 16,-33 23,-76 32,-13 23,-42 -10,-6 30,-35M2166,557l-36,33 -30,50 -40,23 -37,-26 -43,1 -38,-35 -9,-39 -53,-51 -40,-11 -38,-70 13,-8M2023,637l-75,132 -8,27M945,64l22,27 -17,55M2060,663l3,27 35,29 27,7 36,44 12,67 16,14 -31,89 -2,38 22,26 -12,34 3,47M3192,1275l19,42 -10,25 20,27 -39,42 -5,21 -186,14 -41,-19 -20,31 -60,-15 -17,17M2823,1309l5,-53 48,-31 9,-25 33,-24M2296,1037l-67,-7 -5,-44 -46,18M2224,533l27,29M2866,517l-30,5 -49,-19 -59,24 -31,-7M2728,835l-109,-25 -14,20M2991,1446l5,28 45,60 -20,48 23,46 -25,20 -29,-3 -32,33 30,40"/>
  <g class="cities">
    <circle r="3" cx="223.0" cy="48.3"/>
    <text x="223.0" y="48.3">Baltimore</text>
    <circle r="3" cx="173.9" cy="59.7"/>
    <text x="173.9" y="59.7">Germantown</text>
    <circle r="3" cx="201.5" cy="112.5"/>
    <text x="201.5" y="112.5">Waldorf</text>
  </g>
</svg>