<?xml version="1.0" encoding="utf-8"?>
<!DOCTYPE svg PUBLIC "-//W3C//DTD SVG 1.1//EN" "http://www.w3.org/Graphics/SVG/1.1/DTD/svg11.dtd">
<svg version="1.1" xmlns="http://www.w3.org/2000/svg" width="350" height="185" viewBox="0 0 350 185">
  <defs>
    <pattern id="pattern-no-results" width="50" height="50" patternUnits="userSpaceOnUse">
      <rect width="50" height="50" fill="#ddd"/>
      <path d="M-5,5L5,-5M-5,55L55,-5M45,55L55,45" stroke-width="10" stroke="#666666"/>
    </pattern>
  </defs>
  <g class="counties" transform="scale(0.1)">
    <path data-fips-int="24001" data-name="Allegany County" d="M944,64l1,0 -1,0 18,14 -12,68 -28,23 -40,-13 22,36 -49,6 29,36 -30,22 -142,-14 -51,-29 -55,-63 -60,100 -50,41 -16,38 -77,-40 106,-232Z"/>
    <path data-fips-int="24005" data-name="Baltimore County" d="M2258,67l3,103 43,86 45,16 47,46 20,63 20,53 -52,20 2,68 -63,-59 56,81 -61,23 11,-60 -38,22 -2,-126 -134,1 1,91 68,38 -58,24 -73,-51 2,-46 -47,-3 -20,-30 0,-1 0,1 -7,-30 0,-1 0,1 0,-1 4,-3 6,-5 -13,-38 78,-281Z"/>
    <path data-fips-int="24011" data-name="Caroline County" d="M2911,1104l-50,-39 -46,-25 -77,27 -36,-21 -9,-55 49,-39 21,-10 -30,-61 -5,-46 4,-49 45,-58 40,-84 58,-28Z"/>
    <path data-fips-int="24013" data-name="Carroll County" d="M2096,69l-78,281 13,38 -6,5 -4,3 0,1 0,-1 0,1 7,30 0,-1 -25,-1 -40,-12 -40,13 -58,-18 -50,16 0,-1 40,-139 -66,-78 -77,-37 67,-75 0,-24Z"/>
    <path data-fips-int="24015" data-name="Cecil County" d="M2858,390l-50,6 -40,9 -55,-18 -58,-2 67,-86 78,24 -55,-51 35,-12 15,-63 -42,66 -66,39 16,-80 -78,13 -118,-171 326,-4 3,79Z"/>
    <path data-fips-int="24017" data-name="Charles County" d="M1883,1061l22,69 50,-38 90,-1 88,40 5,56 25,12 5,3 1,44 -11,-12 -40,-4 -77,118 -38,-1 48,32 -11,24 28,59 -68,-16 11,-23 -51,-27 -8,-53 -34,-76 -45,65 -20,-33 -15,49 -51,31 -35,-22 -15,-93 28,-70 40,-47 57,-27 -7,-38Z"/>
    <path data-fips-int="24021" data-name="Frederick County" d="M1779,70l0,24 -67,75 77,37 66,78 -40,139 0,1 -3,0 0,1 -213,123 -62,-40 -18,-39 -83,-18 47,-139 -5,-30 39,-116 29,-10 45,-86 1,0Z"/>
    <path data-fips-int="24023" data-name="Garrett County" d="M509,57l-106,232 -63,58 -12,28 -68,28 -28,58 -30,-2 -78,74 -37,12 18,-495Z"/>
    <path data-fips-int="24025" data-name="Harford County" d="M2507,64l118,171 -33,49 12,58 -89,79 -19,-16 21,-58 -7,-31 -39,88 21,23 -18,44 -20,-84 -38,-6 -20,-63 -47,-46 -45,-16 -43,-86 -3,-103Z"/>
    <path data-fips-int="24027" data-name="Howard County" d="M2003,425l25,1 0,1 20,30 47,3 -2,46 73,51 -106,106 -37,-26 -51,-4 -34,-38 -5,-31 -53,-51 -40,-11 -38,-63 10,-14 0,-1 3,0 0,-1 0,1 50,-16 58,18 40,-13Z"/>
    <path data-fips-int="24031" data-name="Montgomery County" d="M1938,595l34,38 51,4 -83,159 -30,-28 -57,57 -24,-29 -72,-18 2,-36 -72,-39 -93,-13 -48,-68 53,-74 213,-123 0,-1 3,0 -3,0 0,1 -10,14 38,63 40,11 53,51Z"/>
    <path data-fips-int="24033" data-name="Prince George's County" d="M2060,663l8,8 -5,26 40,21 15,8 43,44 17,70 6,40 -26,60 20,64 -9,81 19,46 -5,72 -15,-1 -5,-3 -25,-12 -5,-56 -88,-40 -90,1 -50,38 -22,-69 54,-56 -14,-51 87,-88 -70,-70 83,-159Z"/>
    <path data-fips-int="24043" data-name="Washington County" d="M1591,70l1,0 -1,0 -45,86 -29,10 -39,116 5,30 -47,139 -62,-20 19,-41 -14,-35 -38,-13 8,-51 -49,-24 -12,-47 33,-5 0,-36 -38,-9 -87,14 -74,-81 -57,-15 -63,74 -52,-16 12,-68 -18,-14 1,0Z"/>
    <path data-fips-int="24045" data-name="Wicomico County" d="M3192,1275l29,94 -44,63 -186,14 -40,-19 -25,33 -53,-19 -20,19 -71,25 -22,-22 65,-118 0,-36 3,-53 48,-31 44,-49 6,96Z"/>
    <path data-fips-int="24003" data-name="Anne Arundel County" d="M2339,846l-53,-44 -40,-6 62,42 16,31 -36,-7 33,43 -12,47 -41,28 28,57 -67,-7 -5,-44 -45,11 -1,7 -20,-64 26,-60 -6,-40 -17,-70 -43,-44 -15,-8 -40,-21 5,-26 -8,-8 106,-106 58,-24 27,29 5,2 33,-2 24,44 54,28 2,39 -65,23 57,14 33,39 -58,27 -52,-72 -26,17 74,57 20,38Z"/>
    <path data-fips-int="24009" data-name="Calvert County" d="M2296,1037l13,97 -3,78 20,49 83,92 -30,61 -32,-5 -24,-62 -112,-74 -17,-39 -11,-145 -14,-4 9,-81 1,-7 45,-11 5,44Z"/>
    <path data-fips-int="24019" data-name="Dorchester County" d="M2655,1523l27,23 -23,31 -27,-11ZM2569,1411l-10,-38 -40,14 -73,-122 63,-48 50,-2 -32,-42 -22,29 -29,-29 38,-56 23,24 25,-24 48,46 54,16 49,-24 25,-88 77,-27 46,25 50,39 9,72 -44,49 -48,31 -3,53 -25,61 -38,20 -27,70 2,29 -52,-68 37,-10 -7,-46 -65,60 28,24 -24,49 -42,-72Z"/>
    <path data-fips-int="24029" data-name="Kent County" d="M2858,390l7,127 -80,-14 -55,24 -33,-7 -62,41 19,35 -57,56 -33,-16 -49,67 -8,-71 -26,-15 44,-116 39,-25 -19,-24 55,-52 62,10 45,-11 83,11 18,-14Z"/>
    <path data-fips-int="24035" data-name="Queen Anne's County" d="M2481,776l23,1 -10,58 -45,-34 -7,92 -33,10 13,-98 40,-68ZM2865,517l10,99 -58,28 -40,84 -45,58 -4,49 -101,-21 -20,16 -70,29 -18,-65 50,-30 -19,-49 107,-116 -13,-42 53,-37 33,7 55,-24Z"/>
    <path data-fips-int="24037" data-name="Saint Mary's County" d="M2334,1414l17,26 65,-6 -20,38 11,40 50,76 -13,19 13,63 -28,-4 -60,-73 7,-56 -34,56 -43,0 -46,-77 -72,-16 40,-45 -85,50 -46,-24 -49,-133 77,-118 40,4 11,12 22,4 18,52 110,75Z"/>
    <path data-fips-int="24039" data-name="Somerset County" d="M2810,1650l13,-54 42,-31 -67,15 -50,-5 -5,-38 59,-12 34,-30 -29,-5 46,-30 20,-19 53,19 25,-33 40,19 52,104 -22,32 27,26 -32,41 -58,29 30,41 -28,33 -90,-12 -70,56 15,-36 -15,-37 43,-65Z"/>
    <path data-fips-int="24041" data-name="Talbot County" d="M2627,814l101,21 5,46 30,61 -21,10 -47,35 -13,37 41,49 -28,72 -113,-39 -22,-35 22,-16 18,-64 -58,82 -20,-89 -33,54 -22,-16 12,-46 -43,22 31,-73 25,-22 33,61 37,33 -20,-87 37,-38 41,-2 -13,-40Z"/>
    <path data-fips-int="24510" data-name="Baltimore" d="M2291,529l-68,-21 46,30 -18,24 -27,-29 -68,-38 -1,-91 134,-1Z"/>
    <path data-fips-int="24047" data-name="Worcester County" d="M3354,1474l-45,144 7,-71ZM3370,1321l-26,27 36,41 -43,79 -31,-8 -39,27 -35,126 -31,2 -30,82 -183,22 -30,-41 58,-29 32,-41 -27,-26 22,-32 -52,-104 186,-14 44,-63 -29,-94 193,-4Z"/>
  </g>
  <g class="cities">
    <circle r="3" cx="223.0" cy="48.3"/>
    <text x="223.0" y="48.3">Baltimore</text>
    <circle r="3" cx="206.0" cy="53.2"/>
    <text x="206.0" y="53.2">Columbia</text>
    <circle r="3" cx="173.9" cy="59.7"/>
    <text x="173.9" y="59.7">Germantown</text>
  </g>
</svg>