<?xml version="1.0" encoding="utf-8"?>
<!DOCTYPE svg PUBLIC "-//W3C//DTD SVG 1.1//EN" "http://www.w3.org/Graphics/SVG/1.1/DTD/svg11.dtd">
<svg version="1.1" xmlns="http://www.w3.org/2000/svg" width="655" height="1000" viewBox="0 0 655 1000">
  <path class="state" d="M22,801v-81l-1,-126 -2,-35 -3,-80 14,-6 11,4 3,16 5,3 5,-10 4,-11 -2,-15 6,-7 10,9 11,3 2,-10 -13,-13 5,-16 20,-22 26,-13 -5,-15 11,-11 12,-8 3,-10 -10,-6 1,-21 8,-7 3,-10 -9,-9 14,-32 23,-18 5,-32 4,-26 20,-29 93,-132 23,4 2,39 24,15 15,-8 25,-5 4,-8 15,-3 13,3v-10l5,-7 17,1 11,6 5,9 24,18 10,19 14,9 2,76 3,97v66l5,5 -8,11 8,10 -7,3v27l14,-1 5,11 26,9 11,1 2,16 -13,4 13,22 -2,8 -8,15 8,11 5,14 8,6 8,-5 2,-8 8,5 9,-1 12,19 -4,4 9,15 1,13 -11,-3 1,13 -9,-5 8,21 6,-19 9,9 2,-8 7,18 -13,10 -14,21 -19,9 -1,-19 -17,7 6,10 -11,6 -17,-10 -3,19 2,6 -11,1 -5,-6 -6,14h-5v-23l-7,12 -11,6 2,7 -10,15 -6,-2 -5,-16 3,20 -7,-1 -1,12 -7,5 -3,-13 -4,-2 -1,-13 -6,-8 -5,7 -1,-11 -5,13 -6,-7 -2,9 -11,-1 -12,13 2,-22 -16,22 -9,-3 7,12 -4,10 7,17 -9,-8 -23,-13 -14,4v-9l11,-16 11,10 -9,-13 -13,13 1,-10 9,-18 -2,-12 -6,-1 -5,-12 5,-12h-1l-8,21 5,-3 5,8v12l-8,13 1,-8 -14,11h-10l9,16 -12,23 -5,17 -2,-3 -5,22 9,-2 -4,10 -10,9h-9v10l-9,8 -1,-14 -9,8 -5,-15 -3,-12 -10,20 -10,29 -11,-16 -7,19 -4,-4 -1,13 -5,-7 5,-25 -3,1 3,-18 -8,16 -3,-1 -4,27 5,-7v13l-8,5 -1,-1 -4,-38 -3,-10 3,-7 5,-4 -1,-9 4,-11h-1l-10,21v8l-9,3 -6,14 8,-6 6,-7 3,8v28l5,15 -12,6 -3,-17v-22l-4,24 -2,-9 -4,12 -7,3 4,-12 -12,13 14,-24 -21,4 -29,38 6,3 4,20 -10,-2 -13,6 -5,7 3,13 -9,9 -3,10 -16,3 -9,19 2,5 -7,19 -7,11 -9,1 -16,-14 3,-17 -11,-11 -8,-15 -3,1 -4,-12 5,-17 1,-19 -4,-4ZM434,667h7l9,10 4,12 -8,10 -12,-1 2,10 -17,-1 -4,-13 2,-9 9,-7 -1,-8ZM411,726l6,-5 4,8 -6,4ZM380,703l10,12 -7,12 -12,-3 2,-13ZM383,745l6,-3 -3,15 -6,1ZM359,750h-11l-5,-15 12,8 7,-1ZM355,722l3,7h-10l-11,8 5,-9ZM225,776l-7,16 -3,-10 12,-19ZM348,681l-7,25 -2,-10 4,-16Z"/>
  <g class="counties">
    <path data-fips-int="23001" data-name="Androscoggin County" d="M175,734l-7,27 2,4 -13,15 -12,-9 -18,-20 -6,9 -7,1 -12,-9v-7l23,-30h1l10,-32 -2,-18 6,-3 17,-6 4,21 -5,4 8,16v19l13,6Z"/>
    <path data-fips-int="23003" data-name="Aroostook County" d="M506,402l-36,9 -30,7 -3,3 -24,4v-78l-2,-21v-72h-38v-3h-18l-1,-37h-56l-7,-1h-68l-44,-1 4,-26 20,-29 93,-132 23,4 2,39 24,15 15,-8 25,-5 4,-8 15,-3 13,3v-10l5,-7 17,1 11,6 5,9 24,18 10,19 14,9 2,76 3,97v66l5,5 -8,11 8,10 -7,3Z"/>
    <path data-fips-int="23007" data-name="Franklin County" d="M187,630l-3,7 -13,-2 -5,12 4,10 -13,-1 -17,6 -6,-10v-13l-41,-11 7,-2 -15,-37 -24,14 -1,-24 -6,-37h6l-6,-56 4,-11 -2,-15 6,-7 10,9 11,3 2,-10 -13,-13 5,-16 20,-22 5,27 13,84 15,-4 4,12 20,-3 7,38 -6,1 3,19 14,-2 5,40 6,-1Z"/>
    <path data-fips-int="23011" data-name="Kennebec County" d="M251,687l-2,14 -5,4 -15,-4 -1,34 -15,-4h-1l-15,-7 -7,13 -15,-3 2,-12 -13,-6v-19l-8,-16 5,-4 -4,-21 13,1 -4,-10 5,-12 13,2 3,-7 12,-2 8,9 3,-6 28,6 2,-9 -7,-17 24,-4v6l2,11 10,1 -4,19 7,1 -4,19 -7,-2Z"/>
    <path data-fips-int="23017" data-name="Oxford County" d="M54,486l6,56h-6l6,37 1,24 24,-14 15,37 -7,2 41,11v13l6,10 -6,3 2,18 -10,32h-1l-23,30v7l-10,6 -10,-10 4,-16 -5,-10 -16,7 -21,16 12,7 9,14 -4,3v13l-8,5 1,11 -32,3v-81l-1,-126 -2,-35 -3,-80 14,-6 11,4 3,16 5,3Z"/>
    <path data-fips-int="23019" data-name="Penobscot County" d="M470,411l17,79 -17,3 -38,8 6,26 -19,3 3,18 -19,3 9,47 -26,5 -5,8 -6,-4 -8,13 -10,-5h-1l-3,-4 -52,13 -4,-18 -9,1 -2,-19 -11,-56 75,-14 -4,-18 16,-3 -12,-61 -16,3 1,-14 -1,-18 20,-5 1,-40v-111h18v3h38v72l2,21v78l24,-4 3,-3Z"/>
    <path data-fips-int="23021" data-name="Piscataquis County" d="M355,251v111l-1,40 -20,5 1,18 -1,14 16,-3 12,61 -16,3 4,18 -75,14 -22,4 -3,7 -15,2 -5,-18 -8,-41h1l-9,-45 -1,-11 5,-2 6,-15 -5,-10 -7,-3v-18l9,3 2,-15 10,-6 -6,-26 -7,2v-85l3,-4v-38h68l7,1h56Z"/>
    <path data-fips-int="23025" data-name="Somerset County" d="M223,213v38l-3,4v85l7,-2 6,26 -10,6 -2,15 -9,-3v18l7,3 5,10 -6,15 -5,2 1,11 9,45h-1l8,41 5,18 15,-2 3,-7 22,-4 11,56 2,19 -9,1 -10,-7 -5,11 -7,1v-6l-24,4 7,17 -2,9 -28,-6 -3,6 -8,-9 -12,2 -4,-15 -6,1 -5,-40 -14,2 -3,-19 6,-1 -7,-38 -20,3 -4,-12 -15,4 -13,-84 -5,-27 26,-13 -5,-15 11,-11 12,-8 3,-10 -10,-6 1,-21 8,-7 3,-10 -9,-9 14,-32 23,-18 5,-32Z"/>
    <path data-fips-int="23031" data-name="York County" d="M120,858l-5,7 3,13 -9,9 -3,10 -16,3 -9,19 2,5 -7,19 -7,11 -9,1 -16,-14 3,-17 -11,-11 -8,-15 -3,1 -4,-12 5,-17 1,-19 -4,-4 -1,-46 32,-3 5,5h15l-1,18 12,4 5,-6 14,16 -6,7Z"/>
    <path data-fips-int="23005" data-name="Cumberland County" d="M102,752l12,9 7,-1 6,-9 18,20 12,9 13,-15 7,13 10,-1 8,-6 -1,11 -4,24 -2,-9 -4,12 -7,3 4,-12 -12,13 14,-24 -21,4 -29,38 6,3 4,20 -10,-2 -13,6 -22,-16 6,-7 -14,-16 -5,6 -12,-4 1,-18h-15l-5,-5 -1,-11 8,-5v-13l4,-3 -9,-14 -12,-7 21,-16 16,-7 5,10 -4,16 10,10Z"/>
    <path data-fips-int="23009" data-name="Hancock County" d="M482,653l3,20 -7,-1 -1,12 -7,5 -3,-13 -4,-2 -1,-13 -6,-8 -5,7 -1,-11 -5,13 -6,-7 -2,9 -11,-1 -12,13 2,-22 -16,22 -9,-3 7,12 -4,10 7,17 -9,-8 -23,-13 -14,4v-9l11,-16 11,10 -9,-13 -13,13 1,-10 9,-18 -2,-12 -6,-1 -5,-12 5,-12 10,5 8,-13 6,4 5,-8 26,-5 -9,-47 19,-3 -3,-18 19,-3 -6,-26 38,-8 12,63 -19,4 11,57 3,-1 4,18 -4,1ZM434,667h7l9,10 4,12 -8,10 -12,-1 2,10 -17,-1 -4,-13 2,-9 9,-7 -1,-8ZM411,726l6,-5 4,8 -6,4ZM380,703l10,12 -7,12 -12,-3 2,-13Z"/>
    <path data-fips-int="23013" data-name="Knox County" d="M383,745l6,-3 -3,15 -6,1ZM359,750h-11l-5,-15 12,8 7,-1ZM355,722l3,7h-10l-11,8 5,-9ZM324,708l-5,17 -2,-3 -5,22 9,-2 -4,10 -10,9h-9v10l-9,8 -1,-14 -9,8 -5,-15 4,2 6,-14 -8,-29 -14,-5 -2,-18 5,-3 11,4 11,-11 22,22Z"/>
    <path data-fips-int="23015" data-name="Lincoln County" d="M251,687l14,4 -5,3 2,18 14,5 8,29 -6,14 -4,-2 -3,-12 -10,20 -10,29 -11,-16 -7,19 -4,-4 -1,13 -5,-7 5,-25 -3,1 3,-18 -8,16 -3,-1 4,-14 -16,-4 5,-4 -1,-9 4,-11 15,4 1,-34 15,4 5,-4ZM225,776l-7,16 -3,-10 12,-19Z"/>
    <path data-fips-int="23029" data-name="Washington County" d="M482,653l-5,-18 4,-1 -4,-18 -3,1 -11,-57 19,-4 -12,-63 17,-3 -17,-79 36,-9 14,-1 5,11 26,9 11,1 2,16 -13,4 13,22 -2,8 -8,15 8,11 5,14 8,6 8,-5 2,-8 8,5 9,-1 12,19 -4,4 9,15 1,13 -11,-3 1,13 -9,-5 8,21 6,-19 9,9 2,-8 7,18 -13,10 -14,21 -19,9 -1,-19 -17,7 6,10 -11,6 -17,-10 -3,19 2,6 -11,1 -5,-6 -6,14h-5v-23l-7,12 -11,6 2,7 -10,15 -6,-2Z"/>
    <path data-fips-int="23027" data-name="Waldo County" d="M288,607l9,-1 4,18 52,-13 3,4 -8,21 5,-3 5,8v12l-8,13 1,-8 -14,11h-10l9,16 -12,23 -15,-2 -22,-22 -11,11 -11,-4 -14,-4 10,-25 7,2 4,-19 -7,-1 4,-19 -10,-1 -2,-11 7,-1 5,-11 10,7ZM348,681l-7,25 -2,-10 4,-16Z"/>
    <path data-fips-int="23023" data-name="Sagadahoc County" d="M209,810l-4,-38 -3,-10 3,-7 16,4 -4,14 -4,27 5,-7v13l-8,5ZM212,731l-10,21v8l-9,3 -6,14 -10,1 -7,-13 -2,-4 7,-27 15,3 7,-13ZM194,782l1,-11 6,-7 3,8v28l5,15 -12,6 -3,-17Z"/>
  </g>
  <path class="mesh" d="M212,731l-15,-7 -7,13 -15,-3 -7,27 2,4 -13,15 -12,-9 -18,-20 -6,9 -7,1 -12,-9v-7l23,-30h1l10,-32 -2,-18 6,-3 17,-6 4,21 -5,4 8,16v19l13,6 -2,12M506,402l-36,9 -30,7 -3,3 -24,4v-78l-2,-21v-72h-38v-3h-18l-1,-37h-56l-7,-1h-68l-44,-1M97,404l5,27 13,84 15,-4 4,12 20,-3 7,38 -6,1 3,19 14,-2 5,40 6,-1 4,15 -3,7 -13,-2 -5,12 4,10 -13,-1M140,662l-6,-10v-13l-41,-11 7,-2 -15,-37 -24,14 -1,-24 -6,-37h6l-6,-56M187,630l12,-2 8,9 3,-6 28,6 2,-9 -7,-17 24,-4v6l2,11 10,1 -4,19 7,1 -4,19 -7,-2 -10,25 -2,14 -5,4 -15,-4 -1,34 -15,-4M102,752l-10,6 -10,-10 4,-16 -5,-10 -16,7 -21,16 12,7 9,14 -4,3v13l-8,5 1,11 -32,3M470,411l17,79 -17,3 -38,8 6,26 -19,3 3,18 -19,3 9,47 -26,5 -5,8 -6,-4 -8,13 -10,-5M356,615l-3,-4 -52,13 -4,-18 -9,1 -2,-19 -11,-56 75,-14 -4,-18 16,-3 -12,-61 -16,3 1,-14 -1,-18 20,-5 1,-40v-111M275,532l-22,4 -3,7 -15,2 -5,-18 -8,-41h1l-9,-45 -1,-11 5,-2 6,-15 -5,-10 -7,-3v-18l9,3 2,-15 10,-6 -6,-26 -7,2v-85l3,-4v-38M288,607l-9,1 -10,-7 -5,11 -7,1M54,798l5,5h15l-1,18 12,4 5,-6 14,16 -6,7 22,16M170,765l7,13 10,-1M195,771l-1,11M470,493l12,63 -19,4 11,57 3,-1 4,18 -4,1 5,18M274,758l4,2 6,-14 -8,-29 -14,-5 -2,-18 5,-3 11,4 11,-11 22,22 15,2M251,687l14,4M217,773l4,-14 -16,-4"/>
  <g class="cities">
    <circle r="7" cx="135" cy="832"/>
    <text x="135" y="832">Portland</text>
    <circle r="7" cx="143" cy="739"/>
    <text x="143" y="739">Lewiston</text>
    <circle r="7" cx="362" cy="591"/>
    <text x="362" y="591">Bangor</text>
  </g>
</svg>