<?xml version="1.0" encoding="utf-8"?>
<!DOCTYPE svg PUBLIC "-//W3C//DTD SVG 1.1//EN" "http://www.w3.org/Graphics/SVG/1.1/DTD/svg11.dtd">
<svg version="1.1" xmlns="http://www.w3.org/2000/svg" width="229" height="350" viewBox="0 0 229 350">
  <path class="state" transform="scale(0.1)" d="M1440,2544l22,-20 12,21 -15,22 -19,-23M1329,2464l28,22 -26,21 21,15 -11,23 -43,-6 4,-32 27,-43M1426,2421l-25,1 9,-46 16,45M1519,2337l63,49 7,31 -33,30 -37,-6 7,30 -27,25 -31,-20 -16,-45 32,-80 35,-14M1340,2609l20,-10 -4,46 -26,5 10,-41M1256,2627l-27,8 -33,-41 7,-22 36,32 29,1 -12,22M1244,2529l-20,40h-41l49,-42 12,2M786,2717l-18,55 -14,-34 34,-56 -2,35M1219,2382l-24,100 -8,-45 14,-55h18M654,2722l31,-24 7,-16 22,31 -2,74 10,30 -2,44 -31,22 6,-38 -17,-25 -2,-80 -19,28 16,5 -3,50 -13,-33h-18l-51,65 53,-88h-41l-24,36 -18,-5 -50,50 -29,38 19,55 4,45 -39,-5 -45,23 -18,29 13,35 -18,38h-16l-18,40h-35l-24,21 -20,49 10,20 -26,65 -28,48 -58,-23 -28,-39 15,-56 -78,-83 -18,-44 18,-36 6,-80 -11,-17 -4,-164 -5,-508 -6,-269 -12,-353 70,-21 17,18 12,55 27,5 5,-32 15,-33 -8,-58 36,-20 22,28 39,7 6,-30 -29,-24 -19,-45 41,-68 50,-45h15l72,-48 -15,-45 25,-30 58,-40 9,-40 -37,-15 15,-23 -15,-20 5,-30 28,-28 9,-35 -27,-33 53,-120 24,-5 26,-38 19,-2 20,-120 13,-84 16,-27 381,-544 96,33 -10,29 6,98 70,50 45,-29 64,-21h36l18,-34 58,-5 45,5 6,-49 43,-5 65,28 36,36 66,57 37,70 46,23 5,363 10,292 2,183 17,20 -29,27 28,42 -24,15 -1,93 53,5 15,31 82,30 32,-13 18,20 5,55 -44,11 14,49 25,23v38l-31,45 35,67 38,45 32,-14 5,-33 28,20h38l35,65 -12,13 37,57 -12,48 -46,-20 28,30 -45,12 34,26 20,-30 23,32 -8,-42 25,14 2,29 20,29 -61,58 -33,50 -66,31 -11,-28 5,-33 -52,17 17,38 -20,30 -48,-10 -2,-19 -48,9 17,18 -5,52 -38,1v-25l-29,15 -9,39 -22,-34 6,-38 -25,52v-64l-14,30 -36,17 17,43 -17,20 -8,47 -9,-70 -19,51 -20,-59 -2,30 -20,-19 9,37 17,-8 11,38 -25,-14 -8,44 -18,18 -8,-37 -22,-16 -2,-57 -72,-43 2,-35 -17,32 36,21 -36,47 -39,-7v13l-42,32 5,-71 -24,3 5,81 -11,-53 -25,43 -30,-11 21,43 -11,32 25,38 -2,25 -58,-43 -32,-9 -31,-36 -24,30 -16,-4 34,-83 -32,30 2,-32 19,-18 13,-45 -9,-43 -18,-3 -19,-40 15,-43h-1l-23,66 31,23 -6,70 -24,18 5,-28 -51,42 -29,1 28,52 -18,45 -27,35 -37,125 30,-9 -16,34 -98,96 -11,-22 61,-89 -79,93 3,-35 -35,13 10,-33 -9,-22 -37,50 -12,53 -30,57 1,-42 -24,-11 3,50 -15,-35v-40l25,-48 -30,33 6,26 -15,45 -24,17 -3,42 -16,-40 13,-15 -5,-59 19,-58 -9,-5 -25,57h-12l-15,55 18,15 -1,40 -26,21h-6l-14,-133 -8,-15 8,-46 28,-85h-1l-40,90 -30,24 -20,49"/>
  <g class="counties" transform="scale(0.1)">
    <path data-fips-int="23001" data-name="Androscoggin County" d="M611,2569l-16,109 -45,50 -45,-33 -61,-63 -26,35 -21,-2 -41,-31 -2,-22 81,-108h6l34,-115 -3,-58 18,-13 59,-20 14,76 -15,12 28,53 -1,68 43,20Z"/>
    <path data-fips-int="23003" data-name="Aroostook County" d="M1770,1408l-126,31 -192,52 -9,-5 2,-271 -6,-73 -1,-253h-133v-9l-64,-1 -1,-132h-313l-147,-1 -155,-4 13,-84 16,-27 381,-544 96,33 -10,29 6,98 70,50 45,-29 64,-21h36l18,-34 58,-5 45,5 6,-49 43,-5 65,28 36,36 66,57 37,70 46,23 5,363 10,292 2,183 17,20 -29,27 28,42 -24,15Z"/>
    <path data-fips-int="23007" data-name="Franklin County" d="M655,2206l-13,28 -44,-11 -18,43 15,33 -46,-1 -59,20 -5,-34 -17,-1 1,-49 -143,-33 23,-12 -54,-126 -82,47 -1,-82 -23,-130 23,-3 -24,-193 15,-33 -8,-58 36,-20 22,28 39,7 6,-30 -29,-24 -19,-45 41,-68 50,-45 21,115 -6,2 47,274 59,-11 6,38 72,-10 24,133 -23,3 10,68 52,-10 19,140Z"/>
    <path data-fips-int="23011" data-name="Kennebec County" d="M879,2409l-21,58 -57,-10 -8,37 5,78 -53,-13h-1l-53,-22 -24,45 -56,-13 7,-42 -43,-20 1,-68 -28,-53 15,-12 -14,-76 46,1 -15,-33 18,-43 44,11 13,-28 43,-7 30,34 9,-24 84,24 21,-39 -29,-53 71,-13 15,20 7,35 33,5 -10,63 22,7 -13,66 -26,-5Z"/>
    <path data-fips-int="23017" data-name="Oxford County" d="M188,1702l24,193 -23,3 23,130 1,82 82,-47 54,126 -23,12 143,33 -1,49 17,1 5,34 -18,13 3,58 -34,115h-6l-81,108 2,22 -12,-9 -24,25 -18,-6 -15,-35 9,-60 -16,-20 -105,68 -20,-15 -1,23 32,15 43,62 -17,13 1,45 -30,15 8,37 -53,1 -58,14 -5,-508 -6,-269 -12,-353 70,-21 17,18 12,55 27,5Z"/>
    <path data-fips-int="23019" data-name="Penobscot County" d="M1644,1439l52,212 8,66 -61,10 -129,25 18,91 -66,14 12,63 -68,12 32,163 -90,16 -18,29 -21,-14 -29,47 -37,-18h-1l-11,-14 -184,43 -10,-63 -33,5 -10,-76 -37,-185 263,-51 -13,-62 55,-12 -44,-213 -54,10 6,-91 -4,-17 70,-21 1,-529 64,1v9h133l1,253 6,73 -2,271 9,5Z"/>
    <path data-fips-int="23021" data-name="Piscataquis County" d="M1241,879l-1,529 -70,21 4,17 -6,91 54,-10 44,213 -55,12 13,62 -263,51 -77,13 -8,22 -54,10 -17,-67 -28,-134 5,-9 -41,-188 36,-31v-50l-37,-28 -20,-39 23,-23 25,15 15,-66 30,-15 -18,-89 -24,5 1,-311 8,-8v-126l147,1h313Z"/>
    <path data-fips-int="23025" data-name="Somerset County" d="M780,746v126l-8,8 -1,311 24,-5 18,89 -30,15 -15,66 -25,-15 -23,23 20,39 37,28v50l-36,31 41,188 -5,9 28,134 17,67 54,-10 8,-22 77,-13 37,185 10,76 -33,5 -7,-25 -24,-3 -15,38 -30,7 -15,-20 -71,13 29,53 -21,39 -84,-24 -9,24 -30,-34 -43,7 -33,-50 -19,-140 -52,10 -10,-68 23,-3 -24,-133 -72,10 -6,-38 -59,11 -47,-274 6,-2 -21,-115h15l72,-48 -15,-45 25,-30 58,-40 9,-40 -37,-15 15,-23 -15,-20 5,-30 28,-28 9,-35 -27,-33 53,-120 24,-5 26,-38 19,-2 20,-120Z"/>
    <path data-fips-int="23031" data-name="York County" d="M418,3004l-18,29 13,35 -18,38h-16l-18,40h-35l-24,21 -20,49 10,20 -26,65 -28,48 -58,-23 -28,-39 15,-56 -78,-83 -18,-44 18,-36 6,-80 -11,-17 -4,-164 58,-14 53,-1 8,16 40,-8 26,38 -10,38 44,14 16,-22 47,57 -18,23Z"/>
    <path data-fips-int="23005" data-name="Cumberland County" d="M356,2634l41,31 21,2 26,-35 61,63 45,33 45,-50 28,47 31,-3 31,-24 -9,42 -19,28 16,5 -3,50 -13,-33h-18l-51,65 53,-88h-41l-24,36 -18,-5 -50,50 -29,38 19,55 4,45 -39,-5 -45,23 -74,-56 18,-23 -47,-57 -16,22 -44,-14 10,-38 -26,-38 -40,8 -8,-16 -8,-37 30,-15 -1,-45 17,-13 -43,-62 -32,-15 1,-23 20,15 105,-68 16,20 -9,60 15,35 18,6 24,-25Z"/>
    <path data-fips-int="23009" data-name="Hancock County" d="M1440,2544l22,-20 12,21 -15,22ZM1329,2464l28,22 -26,21 21,15 -11,23 -43,-6 4,-32ZM1426,2421l-25,1 9,-46ZM1519,2337l63,49 7,31 -33,30 -37,-6 7,30 -27,25 -31,-20 -16,-45 32,-80ZM1686,2288l-2,30 -20,-19 9,37 17,-8 11,38 -25,-14 -8,44 -18,18 -8,-37 -22,-16 -2,-57 -72,-43 2,-35 -17,32 36,21 -36,47 -39,-7v13l-42,32 5,-71 -24,3 5,81 -11,-53 -25,43 -30,-11 21,43 -11,32 25,38 -2,25 -58,-43 -32,-9 -31,-36 -24,30 -16,-4 34,-83 -32,30 2,-32 19,-18 13,-45 -9,-43 -18,-3 -19,-40 15,-43 37,18 29,-47 21,14 18,-29 90,-16 -32,-163 68,-12 -12,-63 66,-14 -18,-91 129,-25 21,97 21,124 -66,14 41,198 9,-2 12,61 -12,4Z"/>
    <path data-fips-int="23013" data-name="Knox County" d="M1340,2609l20,-10 -4,46 -26,5ZM1256,2627l-27,8 -33,-41 7,-22 36,32 29,1ZM1244,2529l-20,40h-41l49,-42ZM1132,2479l-37,125 30,-9 -16,34 -98,96 -11,-22 61,-89 -79,93 3,-35 -35,13 10,-33 37,-37 -28,-106 -51,-13 -10,-65 23,-12 32,15 42,-40 79,80Z"/>
    <path data-fips-int="23015" data-name="Lincoln County" d="M786,2717l-18,55 -14,-34 34,-56ZM879,2409l52,10 -23,12 10,65 51,13 28,106 -37,37 -9,-22 -37,50 -12,53 -30,57 1,-42 -24,-11 3,50 -15,-35v-40l25,-48 -30,33 6,26 -15,45 -24,17 -3,42 -16,-40 13,-15 -5,-59 19,-58 -9,-5 -25,57h-12l12,-48 -56,-15 28,-85 53,13 -5,-78 8,-37 57,10Z"/>
    <path data-fips-int="23029" data-name="Washington County" d="M1686,2288l-17,-65 12,-4 -12,-61 -9,2 -41,-198 66,-14 -21,-124 -21,-97 61,-10 -8,-66 -52,-212 126,-31 53,5 15,31 82,30 32,-13 18,20 5,55 -44,11 14,49 25,23v38l-31,45 35,67 38,45 32,-14 5,-33 28,20h38l35,65 -12,13 37,57 -12,48 -46,-20 28,30 -45,12 34,26 20,-30 23,32 -8,-42 25,14 2,29 20,29 -61,58 -33,50 -66,31 -11,-28 5,-33 -52,17 17,38 -20,30 -48,-10 -2,-19 -48,9 17,18 -5,52 -38,1v-25l-29,15 -9,39 -22,-34 6,-38 -25,52v-64l-14,30 -36,17 17,43 -17,20 -8,47 -9,-70 -19,51Z"/>
    <path data-fips-int="23027" data-name="Waldo County" d="M1219,2382l-24,100 -8,-45 14,-55ZM1008,2126l33,-5 10,63 184,-43 11,14 -23,66 31,23 -6,70 -24,18 5,-28 -51,42 -29,1 28,52 -18,45 -27,35 -48,-5 -79,-80 -42,40 -32,-15 -52,-10 33,-90 26,5 13,-66 -22,-7 10,-63 -33,-5 -7,-35 30,-7 15,-38 24,3 7,25Z"/>
    <path data-fips-int="23023" data-name="Sagadahoc County" d="M676,2740l9,-42 7,-16 22,31 -2,74 10,30 -2,44 -31,22 6,-38 -17,-25ZM737,2838h-6l-14,-133 -8,-15 8,-46 56,15 -12,48 -15,55 18,15 -1,40ZM744,2559l-40,90 -30,24 -20,49 -31,3 -28,-47 16,-109 56,13 24,-45Z"/>
  </g>
  <path class="mesh" transform="scale(0.1)" d="M1770,1408l-126,31 -192,52 -9,-5 2,-271 -6,-73 -1,-253h-133v-9l-64,-1 -1,-132h-313l-147,-1 -155,-4M341,1414l21,115 -6,2 47,274 59,-11 6,38 72,-10 24,133 -23,3 10,68 52,-10 19,140 33,50 -13,28 -44,-11 -18,43 15,33 -46,-1M490,2318l-5,-34 -17,-1 1,-49 -143,-33 23,-12 -54,-126 -82,47 -1,-82 -23,-130 23,-3 -24,-193M655,2206l43,-7 30,34 9,-24 84,24 21,-39 -29,-53 71,-13 15,20 7,35 33,5 -10,63 22,7 -13,66 -26,-5 -33,90 -21,58 -57,-10 -8,37 5,78 -53,-13M744,2559l-53,-22 -24,45 -56,-13 -16,109 -45,50 -45,-33 -61,-63 -26,35 -21,-2 -41,-31 -2,-22 81,-108h6l34,-115 -3,-58 18,-13 59,-20 14,76 -15,12 28,53 -1,68 43,20 -7,42M356,2634l-12,-9 -24,25 -18,-6 -15,-35 9,-60 -16,-20 -105,68 -20,-15 -1,23 32,15 43,62 -17,13 1,45 -30,15 8,37 -53,1 -58,14M1644,1439l52,212 8,66 -61,10 -129,25 18,91 -66,14 12,63 -68,12 32,163 -90,16 -18,29 -21,-14 -29,47 -37,-18M1246,2155l-11,-14 -184,43 -10,-63 -33,5 -10,-76 -37,-185 263,-51 -13,-62 55,-12 -44,-213 -54,10 6,-91 -4,-17 70,-21 1,-529M961,1865l-77,13 -8,22 -54,10 -17,-67 -28,-134 5,-9 -41,-188 36,-31v-50l-37,-28 -20,-39 23,-23 25,15 15,-66 30,-15 -18,-89 -24,5 1,-311 8,-8v-126M1008,2126l-33,5 -7,-25 -24,-3 -15,38 -30,7M191,2792l8,16 40,-8 26,38 -10,38 44,14 16,-22 47,57 -18,23 74,56M595,2678l28,47 31,-3M685,2698l-9,42M1643,1727l21,97 21,124 -66,14 41,198 9,-2 12,61 -12,4 17,65M960,2652l37,-37 -28,-106 -51,-13 -10,-65 23,-12 32,15 42,-40 79,80 48,5M879,2409l52,10M761,2707l12,-48 -56,-15"/>
  <g class="cities">
    <circle r="3" cx="47.3" cy="291.2"/>
    <text x="47.3" y="291.2">Portland</text>
    <circle r="3" cx="126.6" cy="206.9"/>
    <text x="126.6" y="206.9">Bangor</text>
    <circle r="3" cx="73.4" cy="243.1"/>
    <text x="73.4" y="243.1">Augusta</text>
  </g>
</svg>