<?xml version="1.0" encoding="utf-8"?>
<!DOCTYPE svg PUBLIC "-//W3C//DTD SVG 1.1//EN" "http://www.w3.org/Graphics/SVG/1.1/DTD/svg11.dtd">
<svg version="1.1" xmlns="http://www.w3.org/2000/svg" width="229" height="350" viewBox="0 0 229 350">
  <g class="counties" transform="scale(0.1)">
    <path data-fips-int="23001" data-name="Androscoggin County" d="M611,2567l-16,92 0,19 -45,52 -45,-35 -61,-66 -26,39 -21,-3 -41,-33 5,-32 74,-96 6,0 34,-115 -3,-58 18,-13 59,-20 14,76 -17,10 30,55 -1,68 43,20Z"/>
    <path data-fips-int="23003" data-name="Aroostook County" d="M1770,1408l-126,31 -192,52 -9,-5 2,-271 -6,-73 -1,-255 -133,0 0,-7 -64,-1 -1,-132 -313,0 -147,-1 -155,-2 13,-86 16,-27 381,-544 82,18 15,19 -11,25 6,98 70,50 50,-29 59,-21 36,1 18,-33 58,-8 45,8 6,-53 43,-2 65,27 36,38 66,57 37,66 46,27 3,206 12,447 2,183 17,20 -29,35 28,35 -24,15Z"/>
    <path data-fips-int="23007" data-name="Franklin County" d="M655,2206l-13,28 -43,-11 -20,43 16,33 -46,-1 -59,20 -5,-34 -17,-1 1,-49 -139,-31 19,-14 -54,-126 -82,47 -1,-82 -23,-130 23,-3 -24,-193 17,-65 -10,-26 36,-20 22,26 28,12 19,-17 -15,-35 -32,-31 -3,-19 41,-68 50,-45 21,115 -6,2 47,274 59,-11 6,38 72,-10 24,133 -23,3 10,68 52,-10 18,139Z"/>
    <path data-fips-int="23011" data-name="Kennebec County" d="M879,2409l-21,58 -56,-11 -9,38 5,78 -53,-13 -1,0 -53,-22 -24,45 -56,-15 7,-40 -43,-20 1,-68 -30,-55 17,-10 -14,-76 46,1 -16,-33 20,-43 43,11 13,-28 43,-7 30,34 9,-24 84,24 14,-14 0,-5 7,-20 -29,-53 71,-13 15,20 7,35 33,5 -10,63 22,7 -13,66 -26,-5Z"/>
    <path data-fips-int="23017" data-name="Oxford County" d="M188,1702l24,193 -23,3 23,130 1,82 82,-47 54,126 -19,14 139,31 -1,49 17,1 5,34 -18,13 3,58 -34,115 -6,0 -74,96 -5,32 -12,-7 -24,27 -18,-8 -17,-35 15,-45 -20,-35 -105,66 -20,-13 1,28 30,10 43,63 -17,12 1,43 -32,24 10,31 -53,2 -58,12 -2,-368 -5,-276 -16,-486 70,-21 17,19 12,54 27,5Z"/>
    <path data-fips-int="23019" data-name="Penobscot County" d="M1644,1439l52,213 8,65 -61,10 -129,25 18,91 -66,14 12,61 -68,14 32,163 -90,16 -18,29 -21,-14 -29,47 -37,-18 -1,0 -11,-14 -184,43 -10,-63 -33,5 -10,-76 -37,-185 263,-51 -13,-62 55,-12 -44,-213 -54,10 6,-91 -4,-18 70,-19 1,-530 64,1 0,7 133,0 1,255 6,73 -2,271 9,5Z"/>
    <path data-fips-int="23021" data-name="Piscataquis County" d="M1241,879l-1,530 -70,19 4,18 -6,91 54,-10 44,213 -55,12 13,62 -263,51 -77,13 -8,22 -54,10 -17,-67 -28,-134 5,-9 -41,-188 25,-16 17,-40 -20,-47 -23,-6 -20,-39 21,-25 2,0 25,17 8,-58 -1,-3 1,3 -10,-37 27,24 20,-10 -18,-89 -24,5 1,-311 8,-8 0,-126 147,1 313,0Z"/>
    <path data-fips-int="23025" data-name="Somerset County" d="M780,746l0,126 -8,8 -1,311 24,-5 18,89 -20,10 -27,-24 10,37 -1,-3 1,3 -8,58 -25,-17 -2,0 -21,25 20,39 23,6 20,47 -17,40 -25,16 41,188 -5,9 28,134 17,67 54,-10 8,-22 77,-13 37,185 10,76 -33,5 -7,-25 -29,0 -10,35 -30,7 -15,-20 -71,13 29,53 -7,20 0,5 -14,14 -84,-24 -9,24 -30,-34 -43,7 -34,-51 -18,-139 -52,10 -10,-68 23,-3 -24,-133 -72,10 -6,-38 -59,11 -47,-274 6,-2 -21,-115 15,0 72,-48 -15,-45 39,-43 44,-27 9,-36 -37,-19 5,-73 28,-28 9,-32 -27,-33 53,-123 24,-5 26,-37 19,-3 20,-118Z"/>
    <path data-fips-int="23031" data-name="York County" d="M264,2845l-9,31 44,14 16,-22 47,57 -18,25 74,54 -18,29 13,35 -11,28 -23,12 -18,38 -35,0 -26,28 -18,40 10,22 -26,65 -28,48 -58,-25 -28,-37 15,-58 -51,-48 -13,-35 -21,-7 -11,-36 18,-34 -8,-30 14,-51 -11,-17 -4,-164 58,-12 53,-2 8,17 40,-10 18,10Z"/>
    <path data-fips-int="23005" data-name="Cumberland County" d="M356,2632l41,33 21,3 26,-39 61,66 45,35 45,-52 28,45 31,-1 31,-22 -9,38 -19,30 18,25 -5,32 -13,-35 -31,56 11,-46 -47,46 34,-56 -6,-32 -41,39 -22,-2 -76,93 19,53 4,45 -39,-3 -45,21 -74,-54 18,-25 -47,-57 -16,22 -44,-14 9,-31 -7,-35 -18,-10 -40,10 -8,-17 -10,-31 32,-24 -1,-43 17,-12 -43,-63 -30,-10 -1,-28 20,13 105,-66 20,35 -15,45 17,35 18,8 24,-27Z"/>
    <path data-fips-int="23009" data-name="Hancock County" d="M1440,2544l22,-20 12,21 -15,20ZM1329,2464l28,22 -26,21 10,38 -28,5 -15,-23 25,-71ZM1686,2288l-2,30 -20,-19 9,37 17,-8 11,38 -25,-14 -21,59 -1,0 -12,-34 -22,-16 -2,-57 -93,-61 42,36 -17,30 -29,-41 -3,21 22,12 -9,25 -39,-7 0,13 -42,32 5,-71 -24,3 5,81 -11,-53 -25,43 -30,-11 21,43 -11,32 25,38 -2,25 -58,-43 -32,-9 -28,-31 -43,21 34,-83 -32,30 2,-32 19,-18 12,-43 -8,-45 -18,-3 -19,-40 15,-43 37,18 29,-47 21,14 18,-29 90,-16 -32,-163 68,-14 -12,-61 66,-14 -18,-91 129,-25 21,97 21,124 -66,14 41,198 9,-2 12,61 -12,4ZM1426,2421l-27,-5 14,-37ZM1459,2411l50,-79 40,7 -1,15 34,32 7,31 -33,30 -37,-6 -1,-45 -14,1 8,52 15,28 -28,19 -31,-20 -16,-45Z"/>
    <path data-fips-int="23013" data-name="Knox County" d="M1340,2610l20,-13 -6,50 -24,5ZM1256,2627l-16,5 -39,-33 -4,-19 44,20 27,7ZM1244,2529l8,26 -28,12 -33,-10ZM1132,2479l-23,46 -14,80 30,-10 -48,67 -22,3 -20,50 -24,8 -11,-20 43,-59 -24,10 -30,48 -7,-15 -32,-2 10,-31 13,5 24,-44 -28,-106 -51,-13 -10,-65 23,-12 35,15 39,-40 79,80Z"/>
    <path data-fips-int="23015" data-name="Lincoln County" d="M786,2717l-18,53 -14,-33 35,-47ZM879,2409l52,10 -23,12 10,65 51,13 28,106 -24,44 -13,-5 -10,-17 -36,43 -12,53 -30,57 -4,-32 -30,-36 -5,53 -32,3 -3,44 -17,-17 14,-82 -7,-18 10,-55 -25,55 -12,0 12,-46 -56,-15 28,-85 53,13 -5,-78 9,-38 56,11Z"/>
    <path data-fips-int="23029" data-name="Washington County" d="M2117,2000l3,48 13,2 6,-50 15,-12 23,32 -8,-42 25,14 22,58 -61,58 -35,52 -64,29 -11,-28 5,-33 -31,3 -13,20 9,33 -22,29 -46,-10 -33,-38 -5,98 -38,1 0,-25 -29,15 -9,39 -24,-45 -14,23 -21,-47 -40,142 -9,-70 -8,58 -31,-66 -17,-65 12,-4 -12,-61 -9,2 -41,-198 66,-14 -21,-124 -21,-97 61,-10 -8,-65 -52,-213 126,-31 50,-4 18,40 82,30 32,-15 20,40 3,37 -44,10 14,48 25,23 0,40 -31,45 35,67 38,45 32,-14 5,-33 28,20 38,0 35,65 -12,13 37,57 -9,50 -34,-32 13,40Z"/>
    <path data-fips-int="23027" data-name="Waldo County" d="M1219,2382l-24,100 -8,-45 14,-55ZM1008,2126l33,-5 10,63 184,-43 11,14 -23,66 31,22 -5,51 -25,38 5,-28 -51,42 -29,1 28,52 -7,32 -23,13 -15,35 -48,-5 -79,-80 -39,40 -35,-15 -52,-10 33,-90 26,5 13,-66 -22,-7 10,-63 -33,-5 -7,-35 30,-7 10,-35 29,0 7,25Z"/>
    <path data-fips-int="23023" data-name="Sagadahoc County" d="M676,2738l9,-38 7,-18 22,33 -2,70 16,70 -39,26 -8,-28 4,-103ZM737,2838l-6,0 -6,-65 -16,-83 8,-46 56,15 -12,46 -22,42 27,36 -3,34ZM744,2559l-23,38 -18,58 -27,15 -2,28 -20,24 -31,1 -28,-45 0,-19 16,-92 56,15 24,-45Z"/>
  </g>
  <g class="cities">
    <circle r="3" cx="47.3" cy="291.2"/>
    <text x="47.3" y="291.2">Portland</text>
    <circle r="3" cx="49.9" cy="258.6"/>
    <text x="49.9" y="258.6">Lewiston</text>
    <circle r="3" cx="126.6" cy="206.9"/>
    <text x="126.6" y="206.9">Bangor</text>
  </g>
</svg>