<?xml version="1.0" encoding="utf-8"?>
<!DOCTYPE svg PUBLIC "-//W3C//DTD SVG 1.1//EN" "http://www.w3.org/Graphics/SVG/1.1/DTD/svg11.dtd">
<svg version="1.1" xmlns="http://www.w3.org/2000/svg" width="655" height="1000" viewBox="0 0 655 1000">
  <path class="state" d="M22,801v-7l1,-4 -1,-2v-66l-1,-13v-113l-2,-3v-51l-1,-2v-18l-1,-4v-28l-1,-8 3,-5h7l2,-1v-5l2,1 3,1h3l1,1 2,3h2v10l1,1 1,1 1,1v4h2v1h1l2,1 2,-1 2,-1 -2,-1v-4l3,-2v-5h2l1,-1v-2l1,-2v-1l-1,-1 -1,-2v-1l1,-1v-2l1,-1 1,-1v-1l-1,-1 -1,-1 -1,-2v-2l2,-3v-1l1,-1 1,-1 2,-1h1l1,1h2l1,1 1,1 1,3h1v2l2,1h5l2,1v1l2,1h2v-3h1l1,-1v-2l-1,-2v-3l-1,-1 -1,-1v-1h-2l-2,-1 -1,-1 -1,-2v-1l-1,-2h-1l-1,-1h-1v-8l1,-2h1l1,-1v-1l2,-2v-4l2,-2v-1l3,-2 1,-2v-1l2,-1 2,-1 1,-1 1,-2h1l3,-2v-2l3,-3 1,-1h3l3,-1 1,-1v-1l3,-2 1,-1 2,-2h1v-1l1,1 4,-1 2,-2h2l1,-1 2,-1v-1h-2v-5h-1v-3l-1,-2 -1,-1v-3h3v-2l2,-1v-1l1,-1 1,-1v-2h1l2,-1v-1h1v-1h1l4,-1 1,-1 3,-2v-1l2,-2 1,-1v-1l1,-3 -1,-2v-1h1l1,-2 1,-2v-1l-1,-1h-1v-2h-2l-1,-1h-5v-2l1,-1v-1h1l1,-1v-1h1h-2v-1l-1,-1 -1,-2v-2l2,-1v-3l1,-1 1,-1 1,-1v-1h-3l-1,-1v-1l1,-1v-3l1,-1h1v-1h2v-1l2,1h1v-3l1,-1v-2l1,-3 1,-1 -2,-2 -1,-2 -1,-1 -2,-2h-1l-1,-1 -1,-1 1,-1 2,-2v-1l1,-2v-1l1,-1v-2h1v-2l1,-3v-2l1,-1 1,-1 1,-3h2v-1l1,-3 1,-1 -1,-2v-3h1l2,-1v-3h3v-1h4l1,-2h1v-1l1,-1 1,-1h2v-1l1,-2v-3h6l2,-12 1,-7 3,-15v-6l1,-3v-1l1,-2v-4l1,-5v-3l1,-2 1,-1 2,-3 1,-2 2,-2 1,-3 2,-3 5,-7 1,-1 1,-2 2,-2 3,-4 1,-2 5,-7 1,-3h1l3,-4 2,-4 2,-2 2,-2 1,-3 4,-5 2,-3 9,-12 1,-1v-2l6,-7 1,-1 2,-4 8,-11 2,-3v-1l4,-5 1,-2 2,-2 11,-16h1l2,-3 1,-4h1l3,-3 6,-9 2,-4 4,-6h11v1h3l1,1h1l1,2 1,2h6v-2h1v2h1h-1l1,2 1,-2h-1h1v3h1l1,1v2l-2,-2v2h1h-1v3h-1v2h-1v13l1,3h-1v1h1h-1v2h1v2h-1h1v4l1,2v1l1,1h1l1,1 6,4h1v2h2v1h1v1l1,-1h1v1h3v3h2v1h1v-1h5v-2l2,-1h2v-1h1l2,-1v-1h2l1,-1 2,-1h3l1,-1h1l1,-2v-1h5l2,-1 1,1h8l1,-1h2v-1l2,-2v-1l-1,-2v-1h2l1,-1v-1l2,1h1l1,1 1,-1 1,-1 1,-1h1l1,-1h2l1,1h2l1,-1 2,1v2h1l1,1 1,-1v1h1l2,-1 1,-1h3v1h1v-1l1,-1 -1,-1v-2l2,-10 1,-1h1l1,-1h3l2,1h2l2,-1 2,1 1,1h3v-1h2l1,1 1,2 1,1v-1l5,2 2,1h1v4l1,1 1,1 1,1h1l1,1v1l2,1 1,1h3l1,1v2l2,1 1,1 2,1 1,1 2,1 2,1 1,3 1,2h1l2,1 2,1 1,1v3h1v1l1,1v1l1,1v1l1,1 1,1h1l1,1v1l1,1v1h1v4l1,1v1h2l3,2h1l2,1h1l1,1v1h1l2,1v6l1,2v33l1,3v60l1,3v41l1,1v20l1,5v66l1,1v1h1v1h1v1h1l1,1v2h-1l-1,1 -1,1 -1,1 -2,1 -1,1 -1,1v2l1,1v2h1l1,1v1l1,1 1,1h1v2l2,2h-2v1h-2l-3,7 -1,3 4,8 -4,1 1,6 -2,1 2,3v1l5,-1 2,3 2,-1v-1l1,2h1v1h1v-1v1h1v-1l-1,-1v-1h-1v-3h1v2l2,-1v1l1,1v1l5,9h1l2,3 1,-1v-2l5,4h3l2,2h6l5,2 1,-1v-2h1l1,-1 2,1v-1h1l2,2 2,2 1,2v8l-1,1v2l1,1 2,2v2h-2l-1,-1h-2v1l-3,-1v2l-2,1 -2,1h-1v2l2,2v1l1,1v3h2l-2,1 2,1v3h1l2,2v1l2,1 1,3 2,2v2h-2v6l-1,1v1l-2,1v5l-2,1v2h-1l-2,1v2l2,1v2l1,1v2l2,1 2,1v3h1v2l2,1v4l2,1v1l1,1v4l4,1h1v2l2,2 1,1h3l1,-1 1,-2h2v-2h2v-1h-1v-3h1v-3h1v-1h2l1,1 2,1 1,1v1h2v1h11l2,3 3,4 5,11 -1,6 7,16v2h2v1h1h-3v-1h-1l-2,11 -8,-9h-1l1,1v1l1,14 -12,-7v1l-1,1 7,5 5,16v-15l4,8h1l1,-12 9,9 -2,-11 8,11 3,10 -7,8h-7h1l-8,13 -5,9 -20,10 -1,-18h-6l-8,4v-7l-5,1v1l8,17 -8,6 -1,-13h-2v13l-15,-7v-1l-6,4h-2l5,2v17l-11,1 -2,-9 -7,13 -7,4v-23l-3,4 -4,8 -5,-9 -4,3 -3,24 -3,-4 -1,18 -9,-6 -5,-16 -1,9 5,13 -11,8 -5,6 -1,-10 -5,-7v-1l-4,-14h-1l-4,-4h-1l-2,-2 -1,-1 -9,-6 -6,-3 11,9 -2,12 -12,-14 6,7 -2,9 -11,-1v-8v11l-12,10 2,-16 -1,-6h-1l-7,2 4,8 -1,16 -4,-15v1l-15,20 1,2 -1,2 1,-1 1,-2 2,2 -1,1 7,22 -16,-10 3,-6 -2,1 -11,-1v-1l-9,-9 -11,9v-9l11,-16 11,10v5l-3,-9 -10,-6 -9,10 6,-15 2,-10v-15l-6,-1 -5,-12 5,-12h-1l-6,14 -1,8h1l3,-4 4,11v1l-2,17 -5,-3h-1l-14,10 -5,8v1l6,7 -7,13 -5,10 -4,13v1l-4,14 -1,1 -3,5h9l-9,8 -3,9v1l-11,1v10l-9,7 -3,-8 13,-17 3,-8 -3,1v2l-15,22 -1,-8v-1l-11,7 2,-10 -3,-12 -5,8h-1l3,6 -7,7 -1,1 -9,27 -6,-10 2,-6h-1l-5,15 4,-32 1,-1v-7l-5,10v1l-3,9v1l-1,16h-1l-8,5v11l-5,-7 5,-6 -1,-2v-4l4,-14v-1l-6,3 6,-18h1l2,-8 -2,5 -12,19 -3,-1 -7,9h-1l2,5h1l3,-1 -2,14 5,-7v13l-8,5 -1,-1 1,-13 -5,-17h1l-4,-18 3,-7 5,-4 -1,-9 4,-11h-1l-6,12 -4,17 -10,6v1l-5,10v1l8,-7h1l5,-7 3,20 -3,4v1l5,-3 -2,14 5,15 -12,8 -3,-19 5,-9 -4,3 -1,-16 -6,8v1l4,3 -2,12 -13,6 8,-18 -1,-3v1l-11,20 -4,1 14,-22h-12l-20,11 -3,5h-1l-3,8v1l-9,7 2,8 -9,4h1l11,3 3,16 -10,-4 -13,8h-1l-4,8 -2,7 9,4 -11,10v-1l-5,11h-7l-8,3h-1l-8,14 1,8 -1,9 -12,19 -1,5 -16,-6 -9,-7v-12l2,-1v-3l1,-1h-1l1,-1v-4h-1v-1l-2,-1v1l-1,-1v-2h-3l-1,-2h-2v-1l-1,-1v-2h-2l-1,-2v-1h1v-2h-2v-2l-1,-1v-1h-1v-1h-1v-1h-1l1,-1h-3v1l-1,-1v-1h-2v-2l-1,-2v-1l-1,-1v-10l1,-1h1v-2h1l1,-1v-4l1,-2v-1h-2v-1h-1v-1h1v-2l1,-1v-1h1v-4h1v-2h-1v-3h1v-4h-1v-1h-1v-1h-1v-1l-1,-1v-37ZM450,693v1l-4,5 -14,-4 4,13 -4,4 -13,-5 -4,-13 3,-3v-1l3,-8 -1,-1 5,-10v-1h1l15,-3 9,10 4,12ZM411,726l6,-5 4,8 -6,4ZM380,721l6,-1 -9,9 -4,-6 -1,-7 7,-14 9,7ZM383,745l6,-3 -3,15 -6,1ZM359,750h-11l-5,-15 12,8 7,-1ZM355,722l3,7h-10l-11,8 5,-9ZM225,776l-7,16 -3,-10 12,-19ZM348,681l-7,25 -2,-10 4,-16Z"/>
  <g class="subcounties">
    <path data-geo-id="2300710740" data-name="Carrabassett Valley" d="M117,527l17,-4 7,-1 12,-2h1l2,6 2,13 -21,3 -17,3 -2,-13Z"/>
    <path data-geo-id="2301168385" data-name="Sidney" d="M213,651l5,1 7,2 -8,26 -13,-3h-2l6,-20Z"/>
    <path data-geo-id="2301701325" data-name="Andover" d="M65,610l5,9 7,14 -12,6 -7,3 -6,-11 -5,-12Z"/>
    <path data-geo-id="2301746105" data-name="Milton" d="M76,661l16,-8 1,4v6l-14,3Z"/>
    <path data-geo-id="2301754000" data-name="Norway" d="M68,702l4,-3 15,-3 3,5 6,15 -7,6 -6,3 -3,-3Z"/>
    <path data-geo-id="2302900380" data-name="Addison" d="M516,635l-2,-9 4,-1 12,-3 1,2h1l1,2v1h1v1h-1v1l1,1v1l1,1v1l-2,4 -7,13 -7,4v-23l-3,4Z"/>
    <path data-geo-id="2302909585" data-name="Calais" d="M582,513h2v-1h-1v-3h1v-3h1v-1h2l1,1 2,1 1,1v1h2v1h11l2,3 3,4v1l-17,11 -10,-16Z"/>
    <path data-geo-id="2302917355" data-name="Dennysville" d="M585,554l5,-5 8,14v1l-1,1 -9,2Z"/>
    <path data-geo-id="2302936010" data-name="Jonesport" d="M533,637l2,-4v-1l-1,-1v-1l-1,-1v-1h1v-1l7,-2v1l5,2v17l-11,1 -2,-9Z"/>
    <path data-geo-id="2302942100" data-name="Machiasport" d="M566,617l1,-11v1l8,17 -8,6 -1,-13Z"/>
    <path data-geo-id="2302953500" data-name="North Washington" d="M477,557h3l-2,-20v-1l-7,-38h-1v-5l4,-1h3l1,-1 9,-1 -4,-18 1,-1 -2,-11 -1,-1v-2l-1,-5 -2,-4v-2l-1,-2 -2,-12 -1,-2 -1,-2v-4l-1,-5 -1,-2 -1,-3v-3h2l5,-1 10,-3 -1,13 -1,2 1,4 36,-10 -9,-11 2,-1v-1l1,2h1v1h1v-1v1h1v-1l-1,-1v-1h-1v-3h1v2l2,-1v1l1,1v1l5,9h1l2,3 1,-1v-2l5,4h3l2,2h6l2,2 -2,8 16,9v1l-1,-1h-2v1l-3,-1v2l-2,1 -2,1h-1v2l2,2v1l1,1v3h2l-2,1 2,1v3h1l2,2v1l2,1 1,3 2,2v2h-2v6l-1,1v1l-2,1v5l-2,1v2h-1l-2,1v2l-5,5 -5,-15 -3,-19 -5,-26 -20,6 -19,4 6,26 3,18 5,24 17,-4 5,-4 10,20 1,6 -14,5 5,15 -15,6 5,25 -1,16 19,-6 6,17 -20,8 -3,-10 -12,-1 -1,3 -17,5 -4,1 -3,-18 -4,-18 -18,3 -4,-19Z"/>
    <path data-geo-id="2302958165" data-name="Perry" d="M601,543l12,-9 7,16v1l-3,-1 2,2 -2,11 -8,-9h-1h1h-1Z"/>
    <path data-geo-id="2302975770" data-name="Talmadge" d="M503,468l17,-5 4,19 -18,4Z"/>
    <path data-geo-id="2302524320" data-name="Fairfield" d="M210,616l8,-3 15,-1v6l1,1 1,1v2l2,1 3,3 1,1 -1,1 -2,4v2l1,1v1l-1,1h-8v-1h-3l-1,-1h-1l-5,-1 -3,-1h-1l-1,-1Z"/>
    <path data-geo-id="2302928660" data-name="Grand Lake Stream" d="M506,486l18,-4 4,24 -17,4Z"/>
    <path data-geo-id="2302935905" data-name="Jonesboro" d="M529,614l20,-8 5,12 -5,5v-1l-6,4h-2v-1l-7,2h-1v-1l-1,-2h-1l-1,-2Z"/>
    <path data-geo-id="2302941610" data-name="Lubec" d="M620,594h-1l-6,-15h1l1,-12 9,9 -2,-11 8,11 3,10 -7,8h-7Z"/>
    <path data-geo-id="2302957780" data-name="Pembroke" d="M590,549l10,-5 1,-1 7,11 1,1v1l1,14 -12,-7Z"/>
    <path data-geo-id="2302961035" data-name="Princeton" d="M547,494l12,19 -16,9 -10,-20Z"/>
    <path data-geo-id="2302951375" data-name="Northfield" d="M525,579l19,-9 7,17 -5,1 -3,1 -19,6Z"/>
    <path data-geo-id="2302941960" data-name="Machias" d="M553,605l11,-1 3,2 -1,11h-2v3h-5Z"/>
    <path data-geo-id="2303100730" data-name="Alfred" d="M51,848l5,7v1l7,6 11,19v1h-2l-10,-6 -4,-2 -5,-8Z"/>
    <path data-geo-id="2303104860" data-name="Biddeford" d="M87,866l8,-10 2,10 7,-1 9,8 9,4 -11,10 -11,-11Z"/>
    <path data-geo-id="2303109410" data-name="Buxton" d="M80,825h1l1,-1v-1h1v1l2,1 1,-1 2,-3 1,-1 1,-1v1h2v1h1v3l2,1 2,2v1h1l1,1v1l2,2 1,1 1,2h1l-1,1v1h-1v2h-2v1l-2,2 -8,13 -2,-8Z"/>
    <path data-geo-id="2303133665" data-name="Hollis" d="M77,821h2v2l1,1v1l8,22 -9,5h-1l-2,-1 -2,-4 -5,-15Z"/>
    <path data-geo-id="2303137270" data-name="Kittery" d="M59,939l11,11 -1,5 -16,-6Z"/>
    <path data-geo-id="2303148750" data-name="Newfield" d="M23,827h23l3,7v4l-15,5 -11,-4v-10Z"/>
    <path data-geo-id="2303165725" data-name="Sanford" d="M39,871h2l12,-5 5,8 4,2 10,6h2l-4,6 -9,11 -2,-7 -2,-2v-2l-10,-3Z"/>
    <path data-geo-id="2303180530" data-name="Waterboro" d="M49,834l15,-5 5,3 5,15 -11,15 -7,-6v-1l-5,-7 -2,-10Z"/>
    <path data-geo-id="2303181475" data-name="Wells" d="M61,899l9,-11 5,1h2l10,6 1,1v1h1l1,3 -8,14 -6,2h-4v-2h-2l-6,-7Z"/>
    <path data-geo-id="2300508430" data-name="Brunswick" d="M162,776l5,-7 3,-4 1,3v4h3v1l1,2h1l2,3 2,-1h1l5,2 1,-1 8,-7 2,1v2h-1v1l-1,3v2l-1,1v1l-6,8 -3,4 -1,-3v1l-1,-1h-12Z"/>
    <path data-geo-id="2300511125" data-name="Casco" d="M90,771l-2,-6 4,-7 1,-2v-2h2l2,-3 1,-1h1l3,2v2h1v1l2,1 2,1 -8,14 -7,15 -6,-8Z"/>
    <path data-geo-id="2300526525" data-name="Freeport" d="M148,794l9,-14 1,-1 1,-1 2,-3h1v1l9,15 -20,11v-2Z"/>
    <path data-geo-id="2300528240" data-name="Gorham" d="M90,819l16,-21 1,9 -1,6 10,10 -2,10 -7,8 -5,-3v-1h1v-1l1,-1h-1l-1,-2 -1,-1 -2,-2v-1l-1,-1h-1v-1l-2,-2 -2,-1v-3h-1v-1h-2Z"/>
    <path data-geo-id="2300531390" data-name="Harpswell" d="M183,791l1,1 -11,20 -4,1ZM185,794l3,-4v1l4,3 -2,12 -13,6Z"/>
    <path data-geo-id="2300531600" data-name="Harrison" d="M69,729h1l1,-1 1,-1 2,-1 3,-2 1,-1 2,-1 3,3v1h1v1l1,1v3l1,1 -1,1v1l-1,1 -1,1v5l-1,1v6h1v2l1,1v1l-7,4 -5,-10Z"/>
    <path data-geo-id="2300548085" data-name="Naples" d="M69,768l8,-12 7,-4h1v1l1,1v1l1,1 1,-1v-1l1,-1 1,2 2,3 -4,7 2,6 -4,7 -14,-6Z"/>
    <path data-geo-id="2300566775" data-name="Sebago" d="M59,778l1,-2 1,-1 2,-1 -1,-2 -2,-2 2,-2h1l2,-2 4,2 3,4 14,6 6,8 1,2 -14,6 -4,-7 -11,2 -3,-7h-1l-1,-1v-1Z"/>
    <path data-geo-id="2300573670" data-name="Standish" d="M72,802l7,-8 14,-6 7,1 6,9 -16,21 -1,1 -1,1 -2,3 -1,1 -2,-1v-1h-1v1l-1,1h-1v-1l-1,-1v-2h-7v-2h1v-2l1,-1v-1l1,-1v-2l1,-1h-1v-1l-2,-1v-1h1l1,-1 -1,-1v-3h-2v-1v1v-1Z"/>
    <path data-geo-id="2300587845" data-name="Yarmouth" d="M141,801l7,-8v1l3,6v2l-3,5Z"/>
    <path data-geo-id="2301774685" data-name="Stow" d="M21,699l7,4 2,7 2,12 -1,6 -9,6v-12l-1,-13v-9Z"/>
    <path data-geo-id="2301731670" data-name="Hartford" d="M112,668l11,-7 11,12v2l1,4 1,4 -2,3v3l-1,2 -12,1 -2,-8 -1,-6v-1l-1,-1 -4,-6Z"/>
    <path data-geo-id="2301733315" data-name="Hiram" d="M39,781l8,-4 16,-3 -2,1 -1,1 -1,2v3l1,1h1l-1,1 -1,1h-2l-2,2v-1l-2,2h-1l1,1h-2l1,1h1v5h1v1l1,1 -1,1v1h-1l-1,1h-3v-1v1h-3l-2,1 -2,-1h-2l-1,-1Z"/>
    <path data-geo-id="2301752575" data-name="North Oxford" d="M19,477h7l2,-1v-5l2,1 3,1h3l1,1 2,3h2v10l1,1 1,1 1,1v4h2v1h1l2,1 2,-1 2,-1 -2,-1v-4l3,-2v-1v5l5,37v3l1,7v3l-3,1 -3,2v1l1,2v3l1,2v4l1,5 1,1 1,4v6l1,2v6l1,23 4,7 -18,9 5,12 -13,10 1,25 -19,3v-51l15,-3v-23l5,-2 -4,-26 -1,-19 -17,2v-5l-1,-2v-18l-1,-4v-28l-1,-8Z"/>
    <path data-geo-id="2301727505" data-name="Gilead" d="M21,669l19,-3 1,2 3,7 -23,3v-8Z"/>
    <path data-geo-id="2301741365" data-name="Lovell" d="M30,710l14,-7 7,11 4,6 -18,13 -6,-5 1,-6Z"/>
    <path data-geo-id="2301778465" data-name="Upton" d="M19,591l17,1v23l-15,3v-22l-2,-3Z"/>
    <path data-geo-id="2301104475" data-name="Benton" d="M237,637h1l1,-1v-1l-1,-1v-2l2,-4 1,-1 -1,-1 19,3 2,8 -8,5 -16,-5Z"/>
    <path data-geo-id="2301774510" data-name="Stoneham" d="M56,710l-5,4 -7,-11 -14,7 -2,-7 4,-9h15Z"/>
    <path data-geo-id="2302100100" data-name="Abbot" d="M246,500l18,-4 4,17 -19,4 -3,-14Z"/>
    <path data-geo-id="2302376960" data-name="Topsham" d="M168,761l1,-1h1v-1l15,3 7,5 -5,10v1l-1,1 -5,-2h-1l-2,1 -2,-3h-1l-1,-2v-1h-3v-4l-1,-3 -2,-3 -1,-1Z"/>
    <path data-geo-id="2302501395" data-name="Anson" d="M172,576l7,-3 4,1 16,-3 -5,21 -17,3 -3,-5 -1,-3v-2l-1,-1 1,-5 -1,-1Z"/>
    <path data-geo-id="2302501885" data-name="Athens" d="M216,548l19,-3 3,20 7,-1v1l-2,1h1h-1l-2,1h1h-3l-1,1 -3,5 -1,-7 -14,1Z"/>
    <path data-geo-id="2302507380" data-name="Brighton" d="M213,529l17,-2h2v1l1,6v3l1,3v2l1,3 -19,3h-1Z"/>
    <path data-geo-id="2302509935" data-name="Canaan" d="M237,579l11,-1 2,9 5,20h-2l-2,1h-4l-1,1h-2l-4,1h-3l3,-4v-3l-2,-17Z"/>
    <path data-geo-id="2302510495" data-name="Caratunk" d="M180,493l23,-3 4,19 -24,4 -3,-2Z"/>
    <path data-geo-id="2302511820" data-name="Central Somerset" d="M158,539l19,-3 16,-3h1l5,8 -2,11 -21,4 -15,2Z"/>
    <path data-geo-id="2302517460" data-name="Detroit" d="M284,589v1l2,2v1l1,7v2l1,4v1h-2l-7,1 -1,-3 -2,-2v-1l-3,-11Z"/>
    <path data-geo-id="2302523410" data-name="Embden" d="M176,556l21,-4 2,19 -16,3 -4,-1Z"/>
    <path data-geo-id="2302517285" data-name="Dennistown" d="M118,394l18,-3 3,20 -19,3Z"/>
    <path data-geo-id="2302532895" data-name="Highland" d="M154,520l20,-4 3,20 -19,3 -2,-13 -2,-6Z"/>
    <path data-geo-id="2302535345" data-name="Jackman" d="M139,411l20,-5 3,21 -3,1 -16,3 -2,-12v-5l-2,-2Z"/>
    <path data-geo-id="2302542660" data-name="Madison" d="M199,571l16,-3 4,20 -6,5 -19,4v-5Z"/>
    <path data-geo-id="2302545110" data-name="Mercer" d="M182,619l1,1v-3h-1v-1h1v-1l10,-7 5,10 -1,4 2,6h-3l-1,1h-5l-3,1v-2l-1,-1v-2l-1,-2 -3,-3Z"/>
    <path data-geo-id="2302549835" data-name="Norridgewock" d="M194,597l19,-4 5,20 -8,3 -12,2 -5,-10Z"/>
    <path data-geo-id="2302531355" data-name="Harmony" d="M235,545h6l3,-1h2l5,-1 5,6v6l1,6 -12,3 -7,1Z"/>
    <path data-geo-id="2302556520" data-name="Palmyra" d="M262,574l20,-4 1,1v8l1,4v3l2,2 -2,1 -11,2 -9,-1 -2,-9Z"/>
    <path data-geo-id="2302559005" data-name="Pittsfield" d="M250,587l12,-6 2,9 9,1 3,11h-1v-1h-3v-1v1h-3v1h-1v3h1l-1,1 -3,2v3l-1,1h-4l-3,1v-3h-1l1,-2 -2,-1Z"/>
    <path data-geo-id="2302564850" data-name="St. Albans" d="M256,555l22,-5 1,1v4l1,3 1,5v3l1,1v3l-20,4 -5,-13Z"/>
    <path data-geo-id="2302568910" data-name="Skowhegan" d="M213,593l6,-5 19,-2 2,17v3l-3,4 -2,1h-2v1l-15,1Z"/>
    <path data-geo-id="2302569155" data-name="Smithfield" d="M198,618l12,-2 5,16 -2,-1h-3l-1,3v1l-1,2h-4v-6h-1l-4,-3 -2,-6Z"/>
    <path data-geo-id="2302559705" data-name="Pleasant Ridge" d="M174,516l9,-3 3,14 7,6 -16,3Z"/>
    <path data-geo-id="2300901185" data-name="Amherst" d="M407,571l19,-4 4,20 -19,3 -2,-10 -1,-5Z"/>
    <path data-geo-id="2300902165" data-name="Aurora" d="M426,567l19,-3 4,19 -19,4Z"/>
    <path data-geo-id="2302569505" data-name="Solon" d="M197,552l18,-4h1l4,19 -5,1 -16,3Z"/>
    <path data-geo-id="2302573845" data-name="Starks" d="M177,595l17,-3v5l-1,11 -10,7h-1l-4,1h-1v-8Z"/>
    <path data-geo-id="2302576190" data-name="The Forks" d="M183,477l2,-3 13,-3 5,19 -23,3Z"/>
    <path data-geo-id="2300782235" data-name="West Central Franklin" d="M60,579l25,-3 15,-2 4,4 6,18 -18,10 -2,-3 -1,-2 -6,-11h-1l-1,1h-1l-4,3 -5,3 -10,6 -1,-23Z"/>
    <path data-geo-id="2301180880" data-name="Wayne" d="M156,681h1l1,-1 -1,-1h3l1,-1 11,-1 2,7 -4,15v1l-6,-2v-1l-3,-5v-4l-2,-3 -2,-2 -1,-1Z"/>
    <path data-geo-id="2301104020" data-name="Belgrade" d="M190,651l14,-14h4l5,14 -5,6 -6,20 -7,-2 -1,-1Z"/>
    <path data-geo-id="2301100590" data-name="Albion" d="M250,656l3,-14 8,-5h5l-1,3v4h1l3,1h3l-1,2v4l-2,6 -1,7 -5,-1 -2,-1Z"/>
    <path data-geo-id="2301333840" data-name="Hope" d="M289,709l10,-13 2,2 1,1 2,2 1,1 1,1 2,2h1v1h1l-7,8 -5,5Z"/>
    <path data-geo-id="2300326735" data-name="Frenchville" d="M406,61v1h1l1,1 1,-1v1h1l2,-1 1,-1h3v1h1v-1l1,-1 -1,-1v-2l2,-10 1,-1h1l8,15 -15,8 -1,11h-5Z"/>
    <path data-geo-id="2300379865" data-name="Wallagrass" d="M372,80h19v21h-19Z"/>
    <path data-geo-id="2300383540" data-name="Westmanland" d="M447,118v18l-17,2 -1,-19Z"/>
    <path data-geo-id="2301901115" data-name="Alton" d="M352,528l10,-2 1,2h2l6,10v4l4,2 1,4 -19,4 -4,-15Z"/>
    <path data-geo-id="2301914380" data-name="Corinth" d="M315,545l20,-4 3,19 -6,1 -13,3Z"/>
    <path data-geo-id="2300327855" data-name="Glenwood" d="M472,365v19h-20v-19Z"/>
    <path data-geo-id="2300380285" data-name="Washburn" d="M448,157l17,-1v13l1,6 -17,1Z"/>
    <path data-geo-id="2300332685" data-name="Hersey" d="M411,315v-6l20,-1 1,19h-20Z"/>
    <path data-geo-id="2300330725" data-name="Hammond" d="M489,276l1,18 -20,1v-5l-1,-14Z"/>
    <path data-geo-id="2300332195" data-name="Haynesville" d="M472,384v-19l17,-2v18l-3,1 -3,6h-11Z"/>
    <path data-geo-id="2301934365" data-name="Hudson" d="M335,541l18,-4 4,15v4l-13,3 -6,1Z"/>
    <path data-geo-id="2300311335" data-name="Caswell" d="M483,111h1l19,-1v2l1,2v15h-21Z"/>
    <path data-geo-id="2300387215" data-name="Woodland" d="M447,136h17l1,20 -17,1Z"/>
    <path data-geo-id="2300383785" data-name="Weston" d="M489,381l17,1 -1,1 4,8 -4,1 1,6 -2,1 2,3 -9,2 -4,-1h-1v-1l-6,-20Z"/>
    <path data-geo-id="2300325755" data-name="Fort Kent" d="M372,71l1,-1 1,1h8l1,-1h2v-1l2,-2v-1l-1,-2v-1h2l1,-1v-1l2,1h1l1,1 1,-1 1,-1 1,-1h1l1,-1h2l1,1h2l1,-1 2,1v1l2,19h-36Z"/>
    <path data-geo-id="2300333385" data-name="Hodgdon" d="M490,314h18v20h-19Z"/>
    <path data-geo-id="2300335065" data-name="Island Falls" d="M432,327h19l1,20h-20v-1Z"/>
    <path data-geo-id="2301708150" data-name="Brownfield" d="M22,766l12,-4 5,-6 10,20 -2,1 -8,4h-17v-15Z"/>
    <path data-geo-id="2301708710" data-name="Buckfield" d="M106,692h15l12,-1 -2,4 -1,3v4l-1,2v1l-1,1v3l-18,-4 -3,-12Z"/>
    <path data-geo-id="2300734820" data-name="Industry" d="M159,598l7,-1 -2,-10 9,-2v2l1,3 3,5v14l-13,1Z"/>
    <path data-geo-id="2301102100" data-name="Augusta" d="M204,677l13,3 16,4 -4,17v2l-19,-5 -8,-4Z"/>
    <path data-geo-id="2301112735" data-name="China" d="M235,681l7,-23 8,-2 11,6 -1,2 -1,3 -3,6v2l-3,8v1l-1,2 -1,1 -16,-3Z"/>
    <path data-geo-id="2301113470" data-name="Clinton" d="M233,611h2l2,-1h3l4,-1h2l1,-1h4l2,-1h2l2,1 -1,2h1v3h-1v3l1,1h1l2,1h1v2h-2v3h-1l1,6 -19,-3 -3,-3 -2,-1v-2l-1,-1 -1,-1v-6Z"/>
    <path data-geo-id="2301124670" data-name="Farmingdale" d="M195,705l4,-5 11,3 1,5v2h-5Z"/>
    <path data-geo-id="2301112350" data-name="Chelsea" d="M210,698l19,5 -1,4 -1,5 -9,-2 -7,-2 -1,-5Z"/>
    <path data-geo-id="2300333980" data-name="Houlton" d="M490,304v-9h18v19h-18Z"/>
    <path data-geo-id="2300342450" data-name="Macwahoc" d="M452,404v11l-2,1 -11,4 -7,2v-18Z"/>
    <path data-geo-id="2300342520" data-name="Madawaska" d="M421,46l1,-1h3l2,1h2l2,-1 2,1 1,1h3v-1h2l1,1 1,2 1,1v-1l5,2v28h-5l-11,-15 -2,-3Z"/>
    <path data-geo-id="2300339300" data-name="Limestone" d="M483,129h21v19l-19,2Z"/>
    <path data-geo-id="2300340595" data-name="Littleton" d="M489,276v-1h18l1,5v15h-18v-1Z"/>
    <path data-geo-id="2300339965" data-name="Linneus" d="M470,326v-12h20l-1,20v1l-19,1Z"/>
    <path data-geo-id="2300300800" data-name="Allagash" d="M336,91l-1,10v19h-38v-39h19v10Z"/>
    <path data-geo-id="2300301220" data-name="Amity" d="M489,343h19v3l1,1v1h1v1h1v1h1l1,1v2h-1l-1,1 -1,1 -1,1 -2,1 -1,1 -1,1v2l1,1 -17,1Z"/>
    <path data-geo-id="2300343710" data-name="Mars Hill" d="M488,207l17,-1v4l1,3v12l-18,1Z"/>
    <path data-geo-id="2300343255" data-name="Mapleton" d="M449,176l17,-1 1,18 -18,1Z"/>
    <path data-geo-id="2300346685" data-name="Monticello" d="M488,255h19v20h-18Z"/>
    <path data-geo-id="2300301710" data-name="Ashland" d="M410,177l20,-1 1,19 -1,20 -19,1 -1,-21Z"/>
    <path data-geo-id="2300305385" data-name="Blaine" d="M487,226h1l18,-1v10l-18,1Z"/>
    <path data-geo-id="2300347175" data-name="Moro" d="M411,291h20v17l-20,1v-9Z"/>
    <path data-geo-id="2300302760" data-name="Bancroft" d="M472,388h11l3,-6 6,20v2l-5,3 -10,3 -5,1Z"/>
    <path data-geo-id="2300515430" data-name="Cumberland" d="M123,800l2,-2 4,-6 12,9 7,6h-1l-3,8v1Z"/>
    <path data-geo-id="2300311785" data-name="Central Aroostook" d="M411,281v-46h19v-20l1,-20 18,-1v21l18,-1 1,13 19,-1 1,10v19l1,20v1h-20l1,14 -19,1h-40Z"/>
    <path data-geo-id="2300355435" data-name="Orient" d="M489,363l17,-1v2h1l1,1v1l1,1 1,1h1v2l2,2h-2v1h-2l-3,7v2l-17,-1Z"/>
    <path data-geo-id="2301124950" data-name="Fayette" d="M157,656l10,1h4l3,12 -2,8 -11,1v-1l-2,-8v-5h-1l-1,-3v-1Z"/>
    <path data-geo-id="2301127085" data-name="Gardiner" d="M198,724h1l7,-14h5l1,2v16l-1,-1h-3l-4,-1 -2,-1h-3l-1,-1Z"/>
    <path data-geo-id="2300354385" data-name="Oakfield" d="M451,308h19v18l-19,1Z"/>
    <path data-geo-id="2300311020" data-name="Cary" d="M489,335v-1h19v9h-19Z"/>
    <path data-geo-id="2300307065" data-name="Bridgewater" d="M488,236l18,-1v19l1,1h-19Z"/>
    <path data-geo-id="2301130550" data-name="Hallowell" d="M202,694l8,4v5l-11,-3Z"/>
    <path data-geo-id="2300310565" data-name="Caribou" d="M464,131l19,-2 2,21v18l-20,1v-13l-1,-20Z"/>
    <path data-geo-id="2300349415" data-name="New Sweden" d="M447,118l17,-1v19h-17Z"/>
    <path data-geo-id="2301143080" data-name="Manchester" d="M189,703l5,-16 1,-12 7,2h2l-2,17 -3,6 -4,5Z"/>
    <path data-geo-id="2301146405" data-name="Monmouth" d="M164,711v-13l6,2 7,3h9l-2,6 -3,13h-5l-2,-1h-2l-3,-1h-2l-1,-1v-2h-2v-1Z"/>
    <path data-geo-id="2301154560" data-name="Oakland" d="M209,635v-1l1,-3h3l2,1 1,1h1l3,1 5,1h1l1,1 -9,16 -5,-1 -5,-14Z"/>
    <path data-geo-id="2300330690" data-name="Hamlin" d="M483,93v-5l1,1 1,1h1l1,1v1l1,1v1h1v4l1,1v1h2l3,2h1l2,1h1l1,1v1h1l2,1v4l-19,1Z"/>
    <path data-geo-id="2300364780" data-name="St. Agatha" d="M429,61l2,3 11,15 -29,1 1,-11Z"/>
    <path data-geo-id="2300315990" data-name="Cyr" d="M464,98v-5h19l1,18h-1l-19,1Z"/>
    <path data-geo-id="2300312000" data-name="Chapman" d="M449,194l18,-1v21l-18,1Z"/>
    <path data-geo-id="2300360825" data-name="Presque Isle" d="M465,169l20,-1v20l1,19 -19,1v-15l-1,-18Z"/>
    <path data-geo-id="2300365200" data-name="St. John" d="M353,79l2,-1v-1h2l1,-1 2,-1h3l1,-1h1l1,-2v-1h6v30h-19Z"/>
    <path data-geo-id="2300373472" data-name="Square Lake" d="M391,120v-19l18,-1 -1,-20h5l29,-1h22v19h-17v20l-18,1 1,19v38l-20,1 -1,-19 -8,1 -3,-15 -9,-6Z"/>
    <path data-geo-id="2300321380" data-name="Easton" d="M485,188l20,-1v19l-17,1h-2Z"/>
    <path data-geo-id="2300319210" data-name="Dyer Brook" d="M451,308v19h-19l-1,-19Z"/>
    <path data-geo-id="2300369260" data-name="Smyrna" d="M451,291l19,-1v18h-19Z"/>
    <path data-geo-id="2300325615" data-name="Fort Fairfield" d="M485,168v-18l19,-2 1,2v37l-20,1Z"/>
    <path data-geo-id="2300367790" data-name="Sherman" d="M413,347l19,-1v21l-19,-1v-17Z"/>
    <path data-geo-id="2301717250" data-name="Denmark" d="M46,746l1,2 7,4h2l1,1 2,4 1,1v1l2,2 2,2 1,2v1l-2,2h-1l-2,2 2,2 1,2 -16,3 2,-1 -10,-20Z"/>
    <path data-geo-id="2301717740" data-name="Dixfield" d="M105,631l2,1h3l10,3h1l3,1 3,1h7v2l-1,1 -2,3 -1,2 -7,11 -16,-10Z"/>
    <path data-geo-id="2301726910" data-name="Fryeburg" d="M22,734l9,-6 6,5 7,5v2l-1,1v1h1v3l2,1 -7,10 -5,6 -12,4v-32Z"/>
    <path data-geo-id="2301710005" data-name="Canton" d="M123,656l7,-11 3,1v4l5,2v2l2,7v1l-2,1v1l-3,3 1,4h-2v2l-11,-12Z"/>
    <path data-geo-id="2300378570" data-name="Van Buren" d="M464,67l1,1 2,1 1,1 2,1 2,1 1,3 1,2h1l2,1 2,1 1,1v3h1v1l1,1v1l1,1v6h-19v-14Z"/>
    <path data-geo-id="2300379270" data-name="Wade" d="M430,158l18,-1 1,19h-19Z"/>
    <path data-geo-id="2301729710" data-name="Greenwood" d="M60,677l11,-6 13,18 3,7 -15,3Z"/>
    <path data-geo-id="2301731110" data-name="Hanover" d="M57,654l13,-7 2,5 -2,4 -13,-2Z"/>
    <path data-geo-id="2300702235" data-name="Avon" d="M138,579v3l3,17 -18,7 -5,-15v-3Z"/>
    <path data-geo-id="2300719865" data-name="East Central Franklin" d="M100,536l18,-4 2,13 17,-3 4,20 14,-3v10l2,4v6l-3,1 -16,2v-3l-1,-8 -9,4 -3,-8 -21,11 -4,-4h4l-2,-18Z"/>
    <path data-geo-id="2300716165" data-name="Dallas" d="M80,539l20,-3 2,20 -19,3Z"/>
    <path data-geo-id="2300724775" data-name="Farmington" d="M143,605l8,-2 8,-5 5,12 3,18 -11,5 -10,-16Z"/>
    <path data-geo-id="2300735625" data-name="Jay" d="M131,643l2,-3 1,-1v-2l20,-3 3,22 -4,1h-4v1h-3l-1,1 -4,2 -1,1v-1l-2,-7v-2l-5,-2v-4l-3,-1Z"/>
    <path data-geo-id="2300724005" data-name="Eustis" d="M112,496l1,6v2l2,6v5l1,2 -19,2 -4,-20Z"/>
    <path data-geo-id="2301159110" data-name="Pittston" d="M212,712l6,-2 9,2v8l1,5v10l-1,-1h-3l-2,-1h-2l-4,-1 -1,-1h-3v-3Z"/>
    <path data-geo-id="2301163835" data-name="Rome" d="M185,645v-9l2,-4 1,-1 -1,-1 3,-1h5l1,-1h3l4,3h1v6l-14,14Z"/>
    <path data-geo-id="2301178745" data-name="Vassalboro" d="M225,654l17,4 -7,23v3h-2l-16,-4Z"/>
    <path data-geo-id="2301732370" data-name="Hebron" d="M108,717l2,-12 18,4v1l-1,2h-1v3h-1l-2,2v1l-2,1 -1,2 -2,3 -2,2 -1,-1v-1l-4,-6Z"/>
    <path data-geo-id="2301178190" data-name="Unity" d="M258,623l1,1h5l3,1h2l-1,1v3l-1,4 -1,4h-5l-2,-8Z"/>
    <path data-geo-id="2301745285" data-name="Mexico" d="M93,628l7,2h2l3,1 2,15h-4l-10,-6 -6,-13Z"/>
    <path data-geo-id="2301749275" data-name="Newry" d="M52,631l6,11 7,-3 5,8 -13,7 -16,14 -1,-2 -1,-25Z"/>
    <path data-geo-id="2301739422" data-name="Lincoln" d="M19,547l17,-2 1,19 -18,3v-10Z"/>
    <path data-geo-id="2301742835" data-name="Magalloway" d="M19,567l18,-3 4,26 -5,2 -17,-1v-24Z"/>
    <path data-geo-id="2302547455" data-name="Moscow" d="M183,513l24,-4 3,21 -16,3h-1l-7,-6Z"/>
    <path data-geo-id="2302582840" data-name="West Forks" d="M171,457l25,-5 -8,10 -3,12 -2,3 -2,-5 -15,3 -4,-17Z"/>
    <path data-geo-id="2302551114" data-name="Northeast Somerset" d="M158,399l8,5 10,-9 11,-1 4,-10 14,7v-1h2v1h1l2,2h-1v1v-1h-2h1l1,1v1h1l1,1v2h1v2l1,2h2l3,1v1l-1,3 1,2h1v-1h3l1,1h1l1,1v2v-1h-1l-1,-1h-1v2h1l1,2 -2,3h-1v3h1v3l-1,1h-1v2l-1,1 -1,1 -1,1 -4,1v2l1,9 1,4v4l1,2 1,2 2,14 4,19 3,21 3,15v1l1,1v3l-17,2 -3,1 -3,-21 -4,-19 -5,-19 -13,3 3,-12 8,-10 -25,5v-8l-12,-21 3,-1 -3,-21 -1,-7Z"/>
    <path data-geo-id="2300749345" data-name="New Sharon" d="M177,609v7h1l4,-1h1v1h-1v1h1v3l-1,-1v1l3,3 1,2v2l1,1v2l1,1 -1,1 -2,4 -1,1h-6l-1,-1h-1l-5,-1 -1,-3v-1h-1v-3v1v-1h-2l-3,-18Z"/>
    <path data-geo-id="2300749520" data-name="New Vineyard" d="M154,580l3,-1 15,-3v2l1,1 -1,5 1,1 -9,2 2,10 -7,1 -8,5 -2,-12 6,-3Z"/>
    <path data-geo-id="2300761875" data-name="Rangeley" d="M83,559l2,17 -25,3v-5l-1,-2v-6l-1,-4Z"/>
    <path data-geo-id="2300774825" data-name="Strong" d="M138,582l16,-2 1,8 -6,3 2,12 -8,2 -2,-6Z"/>
    <path data-geo-id="2301179025" data-name="Vienna" d="M166,646v-1h1v-2l2,-1v-2h1v-1l1,-2v-2l5,1h1l1,1h6l1,-1v9l-8,8 -6,-1v-1Z"/>
    <path data-geo-id="2301180740" data-name="Waterville" d="M227,636h3v1h7l-12,17 -7,-2Z"/>
    <path data-geo-id="2301186165" data-name="Windsor" d="M233,684h2l16,3 -1,8v3l-2,5 -3,2 -3,-1 -2,-1h-1l-7,-1 -3,-1Z"/>
    <path data-geo-id="2301186515" data-name="Winslow" d="M225,654l12,-17 16,5 -3,14 -8,2Z"/>
    <path data-geo-id="2301756310" data-name="Oxford" d="M96,716l4,6 8,-5 3,1 4,6v1l1,1 -2,2 -1,1 -3,5 -3,5 -1,1 -4,4v1l-1,1 -1,-7 -11,-17Z"/>
    <path data-geo-id="2301758270" data-name="Peru" d="M93,657l10,-11h4l16,10v5l-11,7 -15,-2 -4,-3Z"/>
    <path data-geo-id="2301760405" data-name="Porter" d="M22,781h17v17l-7,4h-1l-1,-1h-1l-3,2h-1l-2,-2h-1v-7l1,-4 -1,-2v-6Z"/>
    <path data-geo-id="2301764290" data-name="Rumford" d="M65,639l12,-6 10,-6 6,13 10,6 -10,11 -1,-4 -16,8 -4,-9 -2,-5Z"/>
    <path data-geo-id="2301704825" data-name="Bethel" d="M41,668l16,-14 13,2 2,-4 4,9 3,5 -8,5 -11,6 -11,7 -5,-9Z"/>
    <path data-geo-id="2301186970" data-name="Winthrop" d="M174,684l20,3 -5,16h-12l-7,-3v-1Z"/>
    <path data-geo-id="2301775595" data-name="Sweden" d="M37,733l18,-13 9,12 -1,1h-1l-1,1 -1,1 -2,1h-1l-1,1v1l-2,1 -1,1h-1l-1,1 -2,1 -2,-1v-1l-3,-2Z"/>
    <path data-geo-id="2301780635" data-name="Waterford" d="M51,714l5,-4 12,-8 12,20 -2,1 -1,1 -3,2 -2,1 -1,1 -1,1h-5v2l-1,1 -9,-12Z"/>
    <path data-geo-id="2300781300" data-name="Weld" d="M92,606l18,-10 8,-5 5,15 2,5 -9,5 -16,10 -2,-4Z"/>
    <path data-geo-id="2300785850" data-name="Wilton" d="M124,636l2,-7 3,-5 17,-7 10,16 -2,1 -20,3h-7Z"/>
    <path data-geo-id="2300787680" data-name="Wyman" d="M115,515l16,-4 3,12 -17,4 -1,-10Z"/>
    <path data-geo-id="2301709550" data-name="Byron" d="M61,603l10,-6 5,-3 4,-3h1l1,-1h1l6,11 1,2 2,3 -22,13 -5,-9Z"/>
    <path data-geo-id="2301755960" data-name="Otisfield" d="M82,745v-3l1,-1v-5l1,-1 1,-1v-1l1,-1 -1,-1v-3l-1,-1v-1h-1v-1l6,-3 11,17 1,7h1v6l-3,-2h-1l-1,1 -2,3h-2v2l-1,2 -2,-3 -1,-2 -1,1v1l-1,1 -1,-1v-1l-1,-1v-1h-1v-1l-1,-1v-2h-1v-3Z"/>
    <path data-geo-id="2301775035" data-name="Sumner" d="M97,666l15,2 1,2 4,6 1,1v1l1,6 2,8h-15l-7,-12Z"/>
    <path data-geo-id="2300775980" data-name="Temple" d="M123,606l18,-7 2,6 3,12 -17,7 -4,-13Z"/>
    <path data-geo-id="2300714205" data-name="Coplin" d="M97,519l19,-2 1,10 1,5 -18,4Z"/>
    <path data-geo-id="2302327295" data-name="Georgetown" d="M210,797l1,-10h1l3,-1 -2,14 5,-7v13l-8,5 -1,-1 1,-13Z"/>
    <path data-geo-id="2302709270" data-name="Burnham" d="M256,613h1l3,-1h4l1,-1v-3l3,-2 1,-1h-1v-3h1v-1h3v-1v1h3v1h1v1l2,2 1,3v14l-10,3h-2l-3,-1h-5l-1,-1h1v-3h2v-2h-1l-2,-1h-1l-1,-1v-2Z"/>
    <path data-geo-id="2302726280" data-name="Frankfort" d="M334,629l11,-3 5,3 -1,8h1l-13,4 -5,1 -2,-5Z"/>
    <path data-geo-id="2302726420" data-name="Freedom" d="M269,657l2,-6v-4l1,-2 11,2 1,2 -8,16 -8,-1Z"/>
    <path data-geo-id="2302779480" data-name="Waldo" d="M304,661h2l13,-12 3,13 -11,7Z"/>
    <path data-geo-id="2302703950" data-name="Belfast" d="M311,669l11,-7 9,-6 4,13 -5,8 -12,5 -6,-10Z"/>
    <path data-geo-id="2302735450" data-name="Jackson" d="M297,625l4,-1h2l1,-1 5,-1h2l4,-2 -3,17 -11,4Z"/>
    <path data-geo-id="2301162190" data-name="Readfield" d="M172,677l2,-8 20,5 1,1 -1,12 -20,-3Z"/>
    <path data-geo-id="2302746475" data-name="Monroe" d="M315,620h5l4,-1 1,-1 3,10 6,1 -4,8 -9,8h-2l-7,-8Z"/>
    <path data-geo-id="2302746790" data-name="Montville" d="M274,669l2,-4 8,-16 13,12 -3,6 -6,17Z"/>
    <path data-geo-id="2302752845" data-name="Northport" d="M318,682l12,-5v1l6,7 -7,13 -13,-14Z"/>
    <path data-geo-id="2302747245" data-name="Morrill" d="M294,667l3,-6h7l7,8 1,3 -10,4Z"/>
    <path data-geo-id="2302739055" data-name="Liberty" d="M268,688l6,-19 14,15 -12,10v1h-1l-2,-2v-1l-2,-1v-1Z"/>
    <path data-geo-id="2302756450" data-name="Palermo" d="M251,687l1,-1 1,-2v-1l3,-8v-2l3,-6 1,-3 1,-2 2,1 5,1 8,1 -2,4 -6,19h-1l-2,1h1l1,1 -2,1 -3,-1h-1l-2,-1h-1l-6,-1Z"/>
    <path data-geo-id="2302920960" data-name="East Machias" d="M551,587l18,-7 6,15 4,10h-7l-5,1 -3,-2Z"/>
    <path data-geo-id="2302761210" data-name="Prospect" d="M337,641l13,-4 3,-4 4,11 -17,5Z"/>
    <path data-geo-id="2302775525" data-name="Swanville" d="M319,649v-4h2l9,-8 2,5 -1,14 -9,6Z"/>
    <path data-geo-id="2302777625" data-name="Troy" d="M279,608l7,-1h3l1,-1h7l1,6v3l1,3 2,5v1l-4,1 -13,2 -5,-5Z"/>
    <path data-geo-id="2302776610" data-name="Thorndike" d="M284,627l13,-2 4,16 -17,2Z"/>
    <path data-geo-id="2302766635" data-name="Searsport" d="M332,642l5,-1 3,8 9,10 -14,10 -4,-13Z"/>
    <path data-geo-id="2302786760" data-name="Winterport" d="M325,618h4v-1h1l4,-1 5,-1 8,-2h1l4,-1 1,-1v3l2,1h1l-6,14 -5,-3 -11,3 -6,-1Z"/>
    <path data-geo-id="2302306365" data-name="Bowdoinham" d="M190,740l16,3 -4,17 -10,6v1l-7,-5Z"/>
    <path data-geo-id="2302362645" data-name="Richmond" d="M191,738v-2h1v-3l1,-4h1v-1l1,-1v-1h1l1,-1v-1h1l1,1h3l2,1 4,1h3l1,1v3l-6,12 -16,-3Z"/>
    <path data-geo-id="2302381930" data-name="West Bath" d="M194,782v-1l1,-1v-2l1,-3 4,14 -1,6 -4,3Z"/>
    <path data-geo-id="2300761840" data-name="Rangeley" d="M57,542l3,-1 20,-2 3,20 -25,3 -1,-1 -1,-5v-4l-1,-2v-3l-1,-2v-1Z"/>
    <path data-geo-id="2300758445" data-name="Phillips" d="M104,578l21,-11 3,8 9,-4 1,8 -20,9v3l-8,5Z"/>
    <path data-geo-id="2300770760" data-name="South Franklin" d="M116,616l9,-5 4,13 -3,5Z"/>
    <path data-geo-id="2302963940" data-name="Roque Bluffs" d="M549,623l5,-5 5,2h5v10l-15,-7Z"/>
    <path data-geo-id="2302974125" data-name="Steuben" d="M477,635l3,-1h1l5,-1 8,10 3,14 -1,18 -9,-6 -5,-16h-1v-1l-1,-4v-3Z"/>
    <path data-geo-id="2302976895" data-name="Topsfield" d="M516,438l7,25h-3l-17,5 -6,-26Z"/>
    <path data-geo-id="2302978675" data-name="Vanceboro" d="M548,421h3l1,-1v-2h1l1,-1 2,1v-1h1l2,2 2,2 1,2v8l-1,1v2l1,1 2,2v2l-2,-1 -16,-9Z"/>
    <path data-geo-id="2302979375" data-name="Waite" d="M520,463h3l18,-5 3,19 -20,5Z"/>
    <path data-geo-id="2302963275" data-name="Robbinston" d="M592,529l17,-11 5,10 -1,6 -12,9 -1,1Z"/>
    <path data-geo-id="2302106400" data-name="Bowerbank" d="M279,469l17,-3 5,24 4,-1 1,1 -5,1 -3,-1h-3l-12,2Z"/>
    <path data-geo-id="2302118195" data-name="Dover-Foxcroft" d="M295,490h3l3,1 3,16h5l3,19h-3l-4,1 -6,1h-7l-2,-19 -3,1 -4,-18Z"/>
    <path data-geo-id="2302151105" data-name="Northeast Piscataquis" d="M253,434l27,-5v-5h-28l4,-12 7,-4 3,-11 10,-13 26,-23 -4,-13 4,-3 -1,-26 -5,-12 1,-9 9,-8 -9,-6v-15l5,-15 -6,-2 6,-12 -5,-6 -10,-2 -14,-19 25,1h55l1,4v20l1,13v48l-1,3v100l-6,2 -5,1 -9,3 1,4v11l-1,16h1l4,-1 6,-1v-1h2l6,18 -19,4 -18,4 4,23 -15,4 -4,1 -5,-24 -17,3 -19,3 -9,2 -3,-13 9,-2Z"/>
    <path data-geo-id="2302166950" data-name="Sebec" d="M301,491l5,-1 -1,-1 15,-4 4,18 -15,4h-5Z"/>
    <path data-geo-id="2302153628" data-name="Northwest Piscataquis" d="M205,391v-1h1v-1h3v-1l1,1h1v-2h-1v-2h1v-1h1v-2v1v-1h-1h1v-1h-1h1h-2h1h-1v-1v1l-1,-1h1h-1h1v1v-1v1v-1h2v1v-1v3h1v2h5v2h1l1,-2v-3h-1l1,-1h1v-1l1,-4h1v-3l-1,-1v-2h-1v1v-1h1v1h1v-7h-1v-1h-1v-2h-1v-1h-1h3v-1h3v1h-1v1l1,1v2l1,1v1l1,1 1,-1v-2h2v1h1v-1h1l-2,-11v-2l-3,-13 -7,1v-67l1,-18v-1l2,-3v-37h50l14,19 10,2 5,6 -6,12 6,2 -5,15v15l9,6 -9,8 -1,9 5,12 1,26 -4,3 4,13 -26,23 -10,13 -3,11 -7,4 -4,12 -2,1h-1h1h-1h1l-3,-1h-1v2h-1l-2,2 3,4v2h-1l-3,-2h-5v3l1,2h1h-1l2,-1v1l2,3 -1,1 -1,2 -1,1v2l-1,1h-1l1,16 -19,4 -2,-14 -1,-2 -1,-2v-4l-1,-4 -1,-9v-2l4,-1 1,-1 1,-1 1,-1v-2h1l1,-1v-3h-1v-3h1l2,-3 -1,-2h-1v-2h1l1,1h1v1v-2l-1,-1h-1l-1,-1h-3v1h-1l-1,-2 1,-3v-1l-3,-1h-2l-1,-2v-2h-1v-2l-1,-1h-1v-1l-1,-1h-1h2v1v-1h1l-2,-2h-1v-1h-2v1Z"/>
    <path data-geo-id="2302185710" data-name="Willimantic" d="M260,472l19,-3 4,23 -19,4Z"/>
    <path data-geo-id="2302108325" data-name="Brownville" d="M334,458l3,24 -17,3 -4,-23Z"/>
    <path data-geo-id="2301501010" data-name="Alna" d="M227,734l1,1v-1l10,1 2,1 -6,14 -2,4 -7,-4 -2,-8Z"/>
    <path data-geo-id="2301506050" data-name="Boothbay" d="M231,773l7,2 -1,16h-1l-9,-2v-1l4,-14Z"/>
    <path data-geo-id="2302981685" data-name="Wesley" d="M535,548l1,3 8,19 -19,9 -5,-25Z"/>
    <path data-geo-id="2302945600" data-name="Milbridge" d="M497,657l-3,-14 -2,-12 6,-2 2,3 3,5 -3,24 -3,-4Z"/>
    <path data-geo-id="2302985185" data-name="Whiting" d="M575,595l24,-12 9,15 -22,10h-6l-1,-3Z"/>
    <path data-geo-id="2301945670" data-name="Milford" d="M381,544l20,-4 2,12 1,8 -21,5 -2,-4v-1Z"/>
    <path data-geo-id="2301955225" data-name="Old Town" d="M357,552l19,-4h5l-6,9 6,4v-1v1l2,4v3l-12,-1 -11,2 -3,-13Z"/>
    <path data-geo-id="2301944340" data-name="Maxfield" d="M358,477l15,-2 -2,4 -6,17 -3,1 -2,-7v-3Z"/>
    <path data-geo-id="2301957150" data-name="Patten" d="M393,328l19,-1 1,20h-20Z"/>
    <path data-geo-id="2301957936" data-name="Penobscot Indian Island" d="M381,548l-3,-20 3,-6 3,-2 -1,-9v-1v1l-2,-10 -1,-4v-2l3,-12 13,-14 5,-3v-1h-1h1v1l3,-5 1,-2 1,-1 1,-1 7,-6 4,-3 4,-5 1,-7 -10,-11 -4,-2 -1,2v-1l-10,-5 -5,-2v-1h-1l-6,-3 7,3v1h1h-1h1l2,-2v-2l-3,-5v-1l3,5 1,5 3,3h1l12,4 3,2 8,12 -1,4 -1,2 -11,10 -13,15 -4,3v1l-1,2h-1h1h-1l-4,2 -1,2 -1,2 -2,2h1h-1l1,1v1l-1,1v1v-1l-2,4h1h-1h1v-1v1l-1,2 -1,2v7l1,1 2,10 1,7h1l-5,9v33l-6,-4Z"/>
    <path data-geo-id="2301506855" data-name="Bremen" d="M255,760l5,-11 6,5h-1l3,6 -7,7h-1Z"/>
    <path data-geo-id="2301507485" data-name="Bristol" d="M246,760h9l5,7v1l-9,27 -6,-10 2,-6h-1l-1,-17 1,-1Z"/>
    <path data-geo-id="2301516235" data-name="Damariscotta" d="M246,754l3,-6h11v1l-5,11h-9v-6Z"/>
    <path data-geo-id="2301518475" data-name="Dresden" d="M213,731h2l1,1 4,1h2l2,1h3l-4,8 -9,16h-1l-6,-2 -2,-1 5,-4 -1,-9 4,-11Z"/>
    <path data-geo-id="2301522675" data-name="Edgecomb" d="M232,758l9,6v1l-3,9v1l-7,-2 -6,3 6,-18Z"/>
    <path data-geo-id="2301535695" data-name="Jefferson" d="M238,735l7,-30 3,-2 14,9 5,2 -1,2 -4,11 -7,-1 -6,14 -9,-4Z"/>
    <path data-geo-id="2300348575" data-name="New Canada" d="M391,80h17l1,20 -18,1Z"/>
    <path data-geo-id="2302735240" data-name="Islesboro" d="M348,681l-7,25 -2,-10 4,-16Z"/>
    <path data-geo-id="2302704125" data-name="Belmont" d="M302,676l10,-4 6,10 -2,2 -4,5Z"/>
    <path data-geo-id="2301901500" data-name="Argyle" d="M362,526l4,-1 2,-1 16,-4 -3,2 -3,6 3,20h-5l-1,-4 -4,-2v-4l-6,-10h-2l-1,-2Z"/>
    <path data-geo-id="2301906925" data-name="Brewer" d="M362,595l9,-8 3,-1 2,4 -8,14 -8,-6Z"/>
    <path data-geo-id="2300328590" data-name="Grand Isle" d="M447,52h3v4l1,1 1,1 1,1h1l1,1v1l2,1 1,1h3l1,1v2l2,1v12h-17Z"/>
    <path data-geo-id="2300341715" data-name="Ludlow" d="M470,295l20,-1v10l-20,1Z"/>
    <path data-geo-id="2300353602" data-name="Northwest Aroostook" d="M179,206l1,-3v-1l1,-2v-4l1,-5v-3l1,-2 1,-1 2,-3 1,-2 2,-2 1,-3 2,-3 5,-7 1,-1 1,-2 2,-2 3,-4 1,-2 5,-7 1,-3h1l3,-4 2,-4 2,-2 2,-2 1,-3 4,-5 2,-3 9,-12 1,-1v-2l6,-7 1,-1 2,-4 8,-11 2,-3v-1l4,-5 1,-2 2,-2 11,-16h1l2,-3 1,-4h1l3,-3 6,-9 2,-4 4,-6h11v1h3l1,1h1l1,2 1,2h6v-2h1v2h1h-1l1,2 1,-2h-1h1v3h1l1,1v2l-2,-2v2h1h-1v3h-1v2h-1v13l1,3h-1v1h1h-1v2h1v2h-1h1v4l1,2v1l1,1h1l1,1 6,4h1v2h2v1h1v1l1,-1h1v1h3v3h2v1h1v-1h2l-9,8h-20v-10h-19v39h38v-19h37v37h17l9,6 3,15h-9v37l1,20h18v19h-20v19h-18v-3h-18l-1,-13v-20l-1,-4h-55l-25,-1h-81l-8,-1h-5v-4Z"/>
    <path data-geo-id="2300348120" data-name="Nashville" d="M392,177h18v18l-18,1Z"/>
    <path data-geo-id="2300343990" data-name="Masardis" d="M411,216l19,-1v20h-19Z"/>
    <path data-geo-id="2300345180" data-name="Merrill" d="M431,291h20v17h-20Z"/>
    <path data-geo-id="2300362400" data-name="Reed" d="M452,384h20v27h-2l-5,1 -6,1 -7,2v-11Z"/>
    <path data-geo-id="2300365025" data-name="St. Francis" d="M336,91l9,-8h3v-2l2,-1h2v-1h1v22h-18Z"/>
    <path data-geo-id="2300369930" data-name="South Aroostook" d="M413,406v-40l19,1v-20h20l-1,-20 19,-1v10l19,-1v28l-17,2h-20v39h-20v18h-1l-3,1 -5,1 -1,1h-1l-5,1 -3,-2Z"/>
    <path data-geo-id="2300382770" data-name="Westfield" d="M467,208l19,-1h2v19h-1l-19,1 -1,-13Z"/>
    <path data-geo-id="2301909200" data-name="Burlington" d="M408,485l19,-5 5,21 2,6 -19,4Z"/>
    <path data-geo-id="2301910810" data-name="Carroll" d="M460,452l18,-4 2,4 1,5v2l1,1 2,11 -1,1 -10,2 -9,-4Z"/>
    <path data-geo-id="2301912105" data-name="Charleston" d="M312,526l1,-1h2l2,-1h5v-1h2l5,-1 1,-2 5,21 -20,4Z"/>
    <path data-geo-id="2300348960" data-name="New Limerick" d="M470,305l20,-1v10h-20v-6Z"/>
    <path data-geo-id="2301764185" data-name="Roxbury" d="M92,606l6,16 2,4h-1l-6,2 -6,-1 -10,6 -7,-14Z"/>
    <path data-geo-id="2302902480" data-name="Baileyville" d="M547,494l2,-2 5,-5 2,1v2l1,1v2l2,1 2,1v3h1v2l2,1v4l2,1v1l1,1v4l4,1h1v2l2,2 1,1 2,1 -6,10 -12,-16Z"/>
    <path data-geo-id="2302919870" data-name="East Central Washington" d="M536,551l18,-7 7,14 18,-8 3,2 3,2 3,13 9,-2 7,5 5,16v-15l4,8 6,15h1l-8,13 -4,-9 -9,-15 -24,12 -6,-15 -18,7 -7,-17Z"/>
    <path data-geo-id="2302931530" data-name="Harrington" d="M498,629l3,-2 13,-1 2,9 -4,8 -5,-9 -4,3 -3,-5Z"/>
    <path data-geo-id="2302943640" data-name="Marshfield" d="M551,587l13,17 -11,1 -7,-17Z"/>
    <path data-geo-id="2301783890" data-name="West Paris" d="M84,689l15,-9 7,12 1,1 -17,8 -3,-5Z"/>
    <path data-geo-id="2300102060" data-name="Auburn" d="M131,717l12,5 2,2 -4,13 8,18 -9,10 -2,-1 -1,-2 -1,-1 -1,-1h-1l-3,-4 -1,-1 -1,-2 -2,-2 1,-9Z"/>
    <path data-geo-id="2300138565" data-name="Leeds" d="M148,686l5,-4 3,-1v1l1,1 2,2 2,3v4l3,5v19l-2,-1 -13,-11Z"/>
    <path data-geo-id="2300140665" data-name="Livermore" d="M134,671h2l-1,-4 3,-3v-1l2,-1 1,-1 4,-2 1,-1 7,13v11l-5,4 -12,-3 -1,-4 -1,-4v-2Z"/>
    <path data-geo-id="2300160020" data-name="Poland" d="M101,746l1,-1v-1l4,-4 1,-1v1l2,2 1,1h1h-1h1l2,-1h2l6,-5 7,5 -1,9 -1,2 -5,7 -1,1v1l-1,-1h-2l-1,-1 -1,-1v1l-1,1h-1l-6,-4 -2,-1 -2,-1v-1h-1v-8Z"/>
    <path data-geo-id="2301548645" data-name="Newcastle" d="M234,750l6,-14 9,4v8l-3,6 -5,10 -9,-6Z"/>
    <path data-geo-id="2301549660" data-name="Nobleboro" d="M249,740l6,-14 7,1 -2,18v3h-11Z"/>
    <path data-geo-id="2301584140" data-name="Westport Island" d="M225,776l-7,16 -3,-10 12,-19Z"/>
    <path data-geo-id="2301569645" data-name="Somerville" d="M248,703l2,-5v-3l1,-8 1,1 6,1h1l2,1h1l-2,4v11l1,2v2l1,3Z"/>
    <path data-geo-id="2300140770" data-name="Livermore Falls" d="M146,658h3v-1h4l4,-1v5l1,3h1v5l2,8v1l-1,1h-3l1,1 -1,1h-1l-3,1v-11Z"/>
    <path data-geo-id="2302562995" data-name="Ripley" d="M256,549l6,-1 10,-12 3,-3v1l1,3v8h2v5l-22,5v-6Z"/>
    <path data-geo-id="2300980040" data-name="Waltham" d="M432,599l2,6 3,20h-3l-13,2 3,-19 -3,-3Z"/>
    <path data-geo-id="2302567238" data-name="Seboomook Lake" d="M118,393h2l1,-1 2,-1v-1h-2v-5h-1v-3l-1,-2 -1,-1v-3h3v-2l2,-1v-1l1,-1 1,-1v-2h1l2,-1v-1h1v-1h1l4,-1 1,-1 3,-2v-1l2,-2 1,-1v-1l1,-3 -1,-2v-1h1l1,-2 1,-2v-1l-1,-1h-1v-2h-2l-1,-1h-5v-2l1,-1v-1h1l1,-1v-1h1h-2v-1l-1,-1 -1,-2v-2l2,-1v-3l1,-1 1,-1 1,-1v-1h-3l-1,-1v-1l1,-1v-3l1,-1h1v-1h2v-1l2,1h1v-3l1,-1v-2l1,-3 1,-1 -2,-2 -1,-2 -1,-1 -2,-2h-1l-1,-1 -1,-1 1,-1 2,-2v-1l1,-2v-1l1,-1v-2h1v-2l1,-3v-2l1,-1 1,-1 1,-3h2v-1l1,-3 1,-1 -1,-2v-3h1l2,-1v-3h3v-1h4l1,-2h1v-1l1,-1 1,-1h2v-1l1,-2v-3h6l2,-12 1,-7 3,-15h5l8,1h31v37l-2,3v1l-1,18v67l7,-1 3,13v2l2,11h-1v1h-1v-1h-2v2l-1,1 -1,-1v-1l-1,-1v-2l-1,-1v-1h1v-1h-3v1h-3h1v1h1v2h1v1h1v7h-1v-1h-1v1v-1h1v2l1,1v3h-1l-1,4v1h-1l-1,1h1v3l-1,2h-1v-2h-5v-2h-1v-3v1v-1h-2v1v-1v1v-1h-1h1h-1l1,1v-1v1h1h-1h2h-1h1v1h-1h1v1v-1v2h-1v1h-1v2h1v2h-1l-1,-1v1h-3v1h-1v1l-14,-7 -4,10 -11,1 -10,9 -8,-5 -2,-12 -20,4 -18,3Z"/>
    <path data-geo-id="2300955890" data-name="Otis" d="M399,601l13,-3 4,21 -13,3Z"/>
    <path data-geo-id="2302509655" data-name="Cambridge" d="M253,537v-1h2l5,-2h6l2,-1h4l1,-1h2v1l-3,3 -10,12 -6,1 -5,-6Z"/>
    <path data-geo-id="2300907975" data-name="Brooksville" d="M377,685l-2,11v-1l-9,-9 -11,9v-9l11,-16 11,10Z"/>
    <path data-geo-id="2300917145" data-name="Deer Isle" d="M380,721l-7,2 -1,-7 7,-14 9,7Z"/>
    <path data-geo-id="2300930970" data-name="Hancock" d="M420,637l12,-2 4,6 11,9 -2,12 -12,-14h-12Z"/>
    <path data-geo-id="2300943430" data-name="Mariaville" d="M411,590l19,-3 2,12 -11,6 3,3 -3,19 -3,1 -2,-9 -4,-21Z"/>
    <path data-geo-id="2300953620" data-name="Northwest Hancock" d="M403,552l17,-4h2l4,19 -19,4 -3,-11Z"/>
    <path data-geo-id="2300911800" data-name="Central Hancock" d="M418,628l3,-1 13,-2 -2,10 -12,2Z"/>
    <path data-geo-id="2302514555" data-name="Cornville" d="M215,568l5,-1 14,-1 1,7 2,6 1,7 -19,2Z"/>
    <path data-geo-id="2302531740" data-name="Hartland" d="M235,573l3,-5 1,-1h3h-1l2,-1h1h-1l2,-1v-1l12,-3 5,13v7l-12,6 -2,-9 -11,1Z"/>
    <path data-geo-id="2302553636" data-name="Northwest Somerset" d="M100,404l3,-1 1,-1v-1l3,-2 1,-1 2,-2h1v-1l1,1 4,-1 2,-1 2,20 19,-3v1l2,2v5l2,12 16,-3 12,21v8l-9,1 4,17 15,-3 2,5 -3,16v18l3,2 -9,3 -20,4h-1l-12,2 -7,1 -3,-12 -16,4v-5l-2,-6v-2l-1,-6 -1,-3 -1,-8v-2l-5,-28v-4l-2,-9 -1,-2 2,-4 -1,-2v-3h-1v-4l-1,-3 -1,-4v-2l-1,-6 -2,-8Z"/>
    <path data-geo-id="2302547140" data-name="Moose River" d="M136,391l20,-4 2,12 1,7 -20,5Z"/>
    <path data-geo-id="2301587075" data-name="Wiscasset" d="M223,742l2,8 7,4v1l-12,19 -3,-1 1,-2h-1l1,-1v-5l1,-1v-1h1v-2h1v-2l-7,-1Z"/>
    <path data-geo-id="2301585010" data-name="Whitefield" d="M227,712l1,-5 1,-4v-2l3,1 7,1h1l2,1 3,1 -7,30 -10,-1v-9l-1,-5v-6Z"/>
    <path data-geo-id="2301974055" data-name="Stetson" d="M301,567l18,-3 3,18 -9,2 -9,2Z"/>
    <path data-geo-id="2302707870" data-name="Brooks" d="M301,641l11,-4 7,8v4l-13,12Z"/>
    <path data-geo-id="2300751400" data-name="North Franklin" d="M54,482h2l1,-1v-2l1,-2v-1l-1,-1 -1,-2v-1l1,-1v-2l1,-1 1,-1v-1l-1,-1 -1,-1 -1,-2v-2l2,-3v-1l1,-1 1,-1 2,-1h1l1,1h2l1,1 1,1 1,3h1v2l2,1h5l2,1v1l2,1h2v-3h1l1,-1v-2l-1,-2v-3l-1,-1 -1,-1v-1h-2l-2,-1 -1,-1 -1,-2v-1l-1,-2h-1l-1,-1h-1v-8l1,-2h1l1,-1v-1l2,-2v-4l2,-2v-1l3,-2 1,-2v-1l2,-1 2,-1 1,-1 1,-2h1l3,-2v-2l3,-3 1,-1 2,8 1,6v2l1,4 1,3v4h1v3l1,2 -2,4 1,2 2,9v4l5,28v2l1,8 1,3 -19,3 4,20 3,17 -20,3 -20,2v-3l-1,-7v-3l-5,-37v-9Z"/>
    <path data-geo-id="2300712595" data-name="Chesterville" d="M154,634l2,-1 11,-5h2v1v-1v3h1v1l1,3v2l-1,2v1h-1v2l-2,1v2h-1v1l5,5v3h-1v3h-3l-10,-1Z"/>
    <path data-geo-id="2300765655" data-name="Sandy River" d="M83,559l19,-3 2,18h-4l-15,2Z"/>
    <path data-geo-id="2302912175" data-name="Charlotte" d="M575,544l8,-10 9,-5 8,15 -10,5 -5,5 -3,-2 -3,-2Z"/>
    <path data-geo-id="2302913610" data-name="Codyville" d="M516,438l20,-6 5,26 -18,5Z"/>
    <path data-geo-id="2302902970" data-name="Baring" d="M571,529l6,-10 1,-1 1,-1 1,-2h2v-2l10,16 -9,5 -4,-5 -7,4Z"/>
    <path data-geo-id="2302737585" data-name="Knox" d="M283,647l1,-4 17,-2 5,20h-9l-13,-12Z"/>
    <path data-geo-id="2302778255" data-name="Unity" d="M265,644v-4l1,-3 1,-4 1,-4v-3l1,-1 10,-3 5,5v16l-1,4 -11,-2h-3l-3,-1Z"/>
    <path data-geo-id="2302766565" data-name="Searsmont" d="M294,667l8,9 10,13 -3,3 -7,7 -1,-1 -2,-2 -1,-2h-1l-1,-1v-1l-6,-6 -2,-2Z"/>
    <path data-geo-id="2302739755" data-name="Lincolnville" d="M302,699l7,-7 3,-3 4,-5 13,14 -5,10v-1l-2,-1 -1,-1 -5,1h-7v-1h-1l-2,-2 -1,-1 -1,-1Z"/>
    <path data-geo-id="2301787355" data-name="Woodstock" d="M71,671l8,-5 14,-3 4,3 2,14 -15,9Z"/>
    <path data-geo-id="2302913750" data-name="Columbia" d="M496,611l17,-5 1,-3 4,22 -4,1 -13,1Z"/>
    <path data-geo-id="2302914100" data-name="Cooper" d="M552,541l15,-7 8,10 4,6 -18,8 -7,-14Z"/>
    <path data-geo-id="2302914940" data-name="Crawford" d="M544,528l8,13 2,3 -18,7 -1,-3 -5,-15Z"/>
    <path data-geo-id="2302915920" data-name="Cutler" d="M586,608l22,-10 4,9 -5,9 -20,10 -1,-18Z"/>
    <path data-geo-id="2302156765" data-name="Parkman" d="M249,517l19,-4h3l4,19h-2l-1,1h-4l-2,1h-6l-5,2h-2l-3,-13Z"/>
    <path data-geo-id="2302916410" data-name="Danforth" d="M486,420l1,-13 5,-3v-2v1h1l4,1 9,-2v1l5,-1 2,3 9,11 -36,10 -1,-4Z"/>
    <path data-geo-id="2302303355" data-name="Bath" d="M201,789h-1l-4,-14v-1h1v-2l-2,-1h1l5,-7 3,20 -3,4Z"/>
    <path data-geo-id="2302358515" data-name="Phippsburg" d="M199,795l1,-6h1l5,-3 -2,14 5,15 -12,8 -3,-19 5,-9Z"/>
    <path data-geo-id="2302387460" data-name="Woolwich" d="M205,755l2,1 6,2h1l7,1v2h-1v2h-1v1l-1,1v5l-1,1h1l-1,2 -7,9h-1l-3,-2 -4,-18Z"/>
    <path data-geo-id="2300737025" data-name="Kingfield" d="M137,542l21,-3 3,19 -3,1h-3l-14,3Z"/>
    <path data-geo-id="2300140035" data-name="Lisbon" d="M156,746l15,3v5h-1v2h-1v1l1,1v2h-1l-1,1h-1l-13,1 -4,-3Z"/>
    <path data-geo-id="2300146160" data-name="Minot" d="M116,726l2,-2 2,-3 1,-2 2,-1v-1l2,-2h1l5,2 -3,25 -7,-5 -4,-2 -2,-4 -1,-3Z"/>
    <path data-geo-id="2300177800" data-name="Turner" d="M126,712h1l1,-2v-4l1,-1v-1l1,-2v-4l1,-3 2,-4 1,-2v-3l2,-3 12,3 1,18 -6,18 -12,-5 -5,-2Z"/>
    <path data-geo-id="2301955680" data-name="Orrington" d="M360,598l8,6 2,8 -1,2 -1,3v2l-2,1h-2l-1,-3h-1l-1,-1v-1h-1v-1l-1,1h-4l-2,-1v-3Z"/>
    <path data-geo-id="2301924110" data-name="Exeter" d="M297,548l18,-3 4,19 -18,3Z"/>
    <path data-geo-id="2301978015" data-name="Twombly Ridge" d="M427,480l19,-5 5,22h-3l-6,2 -5,1 -5,1Z"/>
    <path data-geo-id="2301973250" data-name="Springfield" d="M442,457l18,-5 4,18 -18,5Z"/>
    <path data-geo-id="2301985230" data-name="Whitney" d="M473,474l10,-2 4,18 -9,1Z"/>
    <path data-geo-id="2301326805" data-name="Friendship" d="M274,758l1,-1h1v3h2v-3h1v-4h1l1,-1v-1h2v-3l1,2 -1,11 -11,7Z"/>
    <path data-geo-id="2301301465" data-name="Appleton" d="M276,694l12,-10 2,2 6,6v1l1,1h1l1,2 -10,13 -11,-11 -2,-3Z"/>
    <path data-geo-id="2301378115" data-name="Union" d="M271,715h2v-3h3v-5l3,-3 -3,-2 2,-4 11,11 9,10 1,2 -20,3v-1l-3,-6h-5Z"/>
    <path data-geo-id="2301919868" data-name="East Central Penobscot" d="M397,515l18,-4 19,-4 2,6v6l1,1 1,7 -19,3 2,9v3l1,6h-2l-17,4 -2,-12 -4,-23Z"/>
    <path data-geo-id="2301917950" data-name="Dixmont" d="M297,606l9,-1 10,-2 3,17h-4l-4,2h-2l-5,1 -1,1h-2v-1l-2,-5 -1,-3v-3Z"/>
    <path data-geo-id="2301579550" data-name="Waldoboro" d="M260,745l2,-18 4,-11h2v1h8l3,6v1l1,2v1l2,6 -1,3v5h1l1,2v1l1,1v5l-1,-2v3h-2v1l-1,1h-1v4h-1v3h-2v-3h-1l-1,1 -3,-12 -5,8 -6,-5v-1Z"/>
    <path data-geo-id="2302912455" data-name="Cherryfield" d="M477,616l15,-4 4,-1 5,16 -3,2 -6,2 2,12 -8,-10 -5,1 -1,-3 -1,-4v-2l-1,-3 -1,-5Z"/>
    <path data-geo-id="2302913820" data-name="Columbia Falls" d="M514,603l12,1 3,10 1,8 -12,3Z"/>
    <path data-geo-id="2301351620" data-name="North Haven" d="M355,722l3,7h-10l-11,8 5,-9Z"/>
    <path data-geo-id="2301335135" data-name="Isle au Haut" d="M383,745l6,-3 -3,15 -6,1Z"/>
    <path data-geo-id="2301356135" data-name="Owls Head" d="M308,743l4,-1h9l-9,8Z"/>
    <path data-geo-id="2301363590" data-name="Rockland" d="M304,724l11,13 -3,5 -4,1 -3,-7 -6,-2Z"/>
    <path data-geo-id="2302137095" data-name="Kingsbury" d="M226,507l20,-4 3,14 1,6 -18,4h-2v-3l-1,-1v-1Z"/>
    <path data-geo-id="2302165865" data-name="Sangerville" d="M271,513l16,-3 3,-1 2,19v1h-4l-2,1h-2l-1,1h-4l-3,1h-1Z"/>
    <path data-geo-id="2301363660" data-name="Rockport" d="M303,714l17,7v1l-4,14 -1,1 -11,-13 -5,-3 -1,-2Z"/>
    <path data-geo-id="2302146580" data-name="Monson" d="M251,474l9,-2 4,24 -18,4 -4,-18 -1,-6Z"/>
    <path data-geo-id="2302146020" data-name="Milo" d="M320,485l17,-3 4,17 -14,4h-3Z"/>
    <path data-geo-id="2300710915" data-name="Carthage" d="M93,628l6,-2h1l16,-10 10,13 -2,7 -3,-1h-1l-10,-3h-3l-2,-1 -3,-1h-2l-7,-2Z"/>
    <path data-geo-id="2301365130" data-name="St. George" d="M299,753l10,6v1l-11,1v10l-9,7 -3,-8 13,-17Z"/>
    <path data-geo-id="2301372585" data-name="South Thomaston" d="M302,745l5,-2h1l4,7 -3,9 -10,-6 3,-8Z"/>
    <path data-geo-id="2301376365" data-name="Thomaston" d="M298,738l1,-4 6,2 3,7h-1l-5,2 -3,1h-2Z"/>
    <path data-geo-id="2301379130" data-name="Vinalhaven" d="M359,750h-11l-5,-15 12,8 7,-1Z"/>
    <path data-geo-id="2302181405" data-name="Wellington" d="M232,527l18,-4 3,13v1l-2,6 -5,1h-2l-3,1h-6l-1,-3v-2l-1,-3v-3l-1,-6Z"/>
    <path data-geo-id="2301380215" data-name="Warren" d="M279,724l20,-3 5,3 -5,10 -1,4 -1,8 -13,3v-4l-1,-1v-1l-1,-2h-1v-5l1,-3 -2,-6v-1l-1,-2Z"/>
    <path data-geo-id="2302103740" data-name="Beaver Cove" d="M237,433v-1h5l3,2h1v-2l-3,-4 2,-2h1v-2h1l3,1h-1h1h-1h1l2,-1h28v5l-27,5 -13,2 -2,1h1h-1l-1,-2Z"/>
    <path data-geo-id="2302144830" data-name="Medford" d="M337,482l21,-5 2,10v3l2,7 -9,2 -5,1h-2l-5,-1Z"/>
    <path data-geo-id="2301936325" data-name="Kenduskeag" d="M332,561l6,-1 6,-1 3,12 -7,2 -6,-1Z"/>
    <path data-geo-id="2301937760" data-name="Lagrange" d="M346,500h2l5,-1 9,-2 2,8 4,19 -2,1 -4,1 -10,2 -2,-10 -1,-3 -1,-2v-2l-1,-7v-1Z"/>
    <path data-geo-id="2300905700" data-name="Blue Hill" d="M389,656l17,9v1l-15,20h1l-14,-13 -3,1 10,-20Z"/>
    <path data-geo-id="2301938705" data-name="Levant" d="M319,564l13,-3 2,11 6,1 1,6 -10,2 -9,1Z"/>
    <path data-geo-id="2300907800" data-name="Brooklin" d="M387,696h1v-1l3,-5 1,-1 1,-1 2,1 -1,1 7,22 -16,-10 3,-6Z"/>
    <path data-geo-id="2300908815" data-name="Bucksport" d="M356,615h3l1,-1v1h1v1l1,1h1l1,3h2l2,-1v-2l1,-3 1,-2 1,-1 4,-4 8,12 -2,3 -18,18 -6,-1 -5,-12 5,-12h-1Z"/>
    <path data-geo-id="2300919770" data-name="Eastbrook" d="M434,605l18,-2 3,17h-3l-15,5Z"/>
    <path data-geo-id="2300916935" data-name="Dedham" d="M375,607l5,3 4,-4h1l1,-3h2l4,-1h4l3,-1 4,21 -18,3 -4,-3 2,-3Z"/>
    <path data-geo-id="2303101605" data-name="Arundel" d="M79,874l7,-8h1l13,10v15l-2,2 -10,-14 -1,-1h1l-3,-2 -3,-1Z"/>
    <path data-geo-id="2303114485" data-name="Cornish" d="M44,800l2,-1h3v-1v1h3l1,-1h2v2l2,2 -1,10 -10,7Z"/>
    <path data-geo-id="2303116725" data-name="Dayton" d="M78,852h1l9,-5 2,8 5,1 -8,10h-1l-10,-15Z"/>
    <path data-geo-id="2303122955" data-name="Eliot" d="M44,939v-6l12,-4 3,10 -6,10 -9,-7v-2Z"/>
    <path data-geo-id="2303139195" data-name="Limerick" d="M46,819l10,-7 3,-1 5,18 -15,5 -3,-7Z"/>
    <path data-geo-id="2300923200" data-name="Ellsworth" d="M385,625l18,-3 13,-3 2,9 2,9 1,11v3l-5,9 -1,-6 -25,-11 2,-6Z"/>
    <path data-geo-id="2300926350" data-name="Franklin" d="M432,635l2,-10h3l15,-5 4,20 -14,4 -6,-3Z"/>
    <path data-geo-id="2300938180" data-name="Lamoine" d="M421,648h12l6,7 -2,9 -11,-1v-8l-5,-4Z"/>
    <path data-geo-id="2300928975" data-name="Great Pond" d="M422,548l20,-3 3,19 -19,3Z"/>
    <path data-geo-id="2303139405" data-name="Limington" d="M57,802h1l3,1h1v-1h2v-1h1v-1l1,1 1,-1h2l-1,1h2v1l1,1h1v-1v1v-1v1h2v3l1,1 -1,1h-1v1l2,1v1h1l-1,1v2l-1,1v1l-1,1v2h-1v2h5l-8,11 -5,-3 -5,-18 -3,1Z"/>
    <path data-geo-id="2303141750" data-name="Lyman" d="M63,862l11,-15 2,4 10,15 -7,8 -5,7Z"/>
    <path data-geo-id="2303150325" data-name="North Berwick" d="M41,891l6,-6 10,3v2l2,2 2,7 3,8 -8,7Z"/>
    <path data-geo-id="2300947630" data-name="Mount Desert" d="M420,681h11l19,12v1l-4,5 -14,-4 -10,-2 -4,-2v-1l3,-8Z"/>
    <path data-geo-id="2300955505" data-name="Orland" d="M363,640l18,-18 4,3 7,12 -2,6 -5,2 -22,10v-15Z"/>
    <path data-geo-id="2300957920" data-name="Penobscot" d="M363,655l22,-10 4,11 -4,-2 -10,20 -1,2 -10,-6 -3,-5 2,-10Z"/>
    <path data-geo-id="2300967300" data-name="Sedgwick" d="M375,696l2,-11 -3,-9 1,-2 3,-1 14,13v2l-1,2 -3,5v1h-1l-1,1 -11,-1Z"/>
    <path data-geo-id="2303155085" data-name="Old Orchard Beach" d="M114,854l2,2 1,1h1l1,1h1h-1l-4,8 -5,-1Z"/>
    <path data-geo-id="2303156870" data-name="Parsonsfield" d="M22,801h1l2,2h1l3,-2h1l1,1h1l7,-4 1,1h2l2,1 2,19v8h-23v-17l-1,-9Z"/>
    <path data-geo-id="2303170030" data-name="South Berwick" d="M44,930l2,-1v-3l1,-1h-1l1,-1v-4h-1l10,-6 8,-7 6,7 2,2 -16,13 -12,4v-2Z"/>
    <path data-geo-id="2303136745" data-name="Kennebunkport" d="M100,876l11,11v-1l-5,11h-6l-2,-4 2,-2Z"/>
    <path data-geo-id="2303138425" data-name="Lebanon" d="M21,887v-6l1,-1h1v-2h1l1,-1v-4l1,-2v-1h-2v-1h-1v-1h1l6,6 9,-3 8,14 -6,6 -11,10v-1h-1v-1h-1l1,-1h-3v1l-1,-1v-1h-2v-2l-1,-2v-1l-1,-1v-2Z"/>
    <path data-geo-id="2300972865" data-name="Southwest Harbor" d="M422,693l10,2 4,13 -4,4Z"/>
    <path data-geo-id="2300975280" data-name="Surry" d="M385,645l5,-2 25,11h-1l-7,2 4,8 -1,16 -4,-15 -17,-9Z"/>
    <path data-geo-id="2300975455" data-name="Swans Island" d="M411,726l6,-5 4,8 -6,4Z"/>
    <path data-geo-id="2300977345" data-name="Tremont" d="M418,691l4,2 10,19 -13,-5 -4,-13 3,-3Z"/>
    <path data-geo-id="2300977415" data-name="Trenton" d="M416,660l5,-9 5,4v11l-12,10Z"/>
    <path data-geo-id="2300902865" data-name="Bar Harbor" d="M425,671l1,-1 15,-3 9,10 4,12 -4,4 -19,-12h-11l5,-10Z"/>
    <path data-geo-id="2300986655" data-name="Winter Harbor" d="M464,672l8,-2 3,13 -5,6 -1,-10 -5,-7Z"/>
    <path data-geo-id="2300955855" data-name="Osborn" d="M430,587l19,-4 3,20 -18,2 -2,-6Z"/>
    <path data-geo-id="2300974965" data-name="Sullivan" d="M442,644l14,-4 10,-3 -2,19 -4,1h-1l-4,-4h-1l-2,-2 -1,-1 -9,-6Z"/>
    <path data-geo-id="2300313900" data-name="Connor" d="M464,117v-5l19,-1v18l-19,2Z"/>
    <path data-geo-id="2300327120" data-name="Garfield" d="M392,196l18,-1 1,21h-18Z"/>
    <path data-geo-id="2300311300" data-name="Castle Hill" d="M430,176h19v18l-18,1Z"/>
    <path data-geo-id="2301939475" data-name="Lincoln" d="M388,477l4,-2h1h-1h1l1,-2v-1l4,-3 13,-15 11,7 5,19 -19,5 -8,1Z"/>
    <path data-geo-id="2301941435" data-name="Lowell" d="M396,498l3,-8 1,-2v-2l8,-1 7,26 -18,4Z"/>
    <path data-geo-id="2300502655" data-name="Baldwin" d="M51,788h2l-1,-1h1l2,-2v1l2,-2h2l1,-1 1,-1 3,7 11,-2 4,7 -7,8v1h-1l-1,-1v-1h-2l1,-1h-2l-1,1 -1,-1v1h-1v1h-2v1h-1l-3,-1h-1l-2,-2v-2h-1v-1l1,-1 -1,-1v-1h-1v-5h-1Z"/>
    <path data-geo-id="2302170655" data-name="Southeast Piscataquis" d="M327,503l14,-4 5,1 1,3v1l1,7v2l1,2 1,3h-3l-13,2h-2Z"/>
    <path data-geo-id="2301902795" data-name="Bangor" d="M350,577l9,-2 11,2 1,10 -9,8h-9Z"/>
    <path data-geo-id="2301910670" data-name="Carmel" d="M313,584l9,-2 9,-1 3,18 -18,4Z"/>
    <path data-geo-id="2301906680" data-name="Bradley" d="M383,568v-3l21,-5 3,11 1,4 -7,1 -7,11 -16,-11Z"/>
    <path data-geo-id="2301906575" data-name="Bradford" d="M330,520h4l13,-2h3l2,10 1,9 -18,4Z"/>
    <path data-geo-id="2301944270" data-name="Mattawamkeag" d="M416,426l5,-1h1l1,-1 5,-1 3,-1h1l7,-2 4,18 -6,1 -14,3 1,-4 -8,-12Z"/>
    <path data-geo-id="2301945810" data-name="Millinocket" d="M365,407l20,-5 -1,9 -11,7Z"/>
    <path data-geo-id="2301949065" data-name="Newport" d="M282,570l19,-3 3,19 -5,1 -13,1 -2,-2v-3l-1,-4v-8Z"/>
    <path data-geo-id="2301952710" data-name="North Penobscot" d="M335,423v-11l-1,-4 9,-3 5,-1 6,-2v-100l1,-3v-48h18v3h38v55h-18v38l1,19h19v40h-20l-8,-1 1,8 6,3h1v1l5,12 4,19 -12,2 -2,20 8,-1 -13,14 -12,-4 2,-4 5,-1 -5,-20 -19,4 -1,-4 -6,-18h-2v1l-6,1 -4,1h-1ZM365,407l8,11 11,-7 1,-9Z"/>
    <path data-geo-id="2301955565" data-name="Orono" d="M360,569l11,-2 12,1 -5,8 -4,5 -4,-4 -11,-2Z"/>
    <path data-geo-id="2301948505" data-name="Newburgh" d="M316,603l18,-4v17l-4,1h-1v1h-4l-1,1 -4,1h-1Z"/>
    <path data-geo-id="2300566145" data-name="Scarborough" d="M98,842l2,-2v-1h2v-1l5,3 7,-8 3,3 13,9 1,1 2,4 -13,8h-1l-1,-1h-1l-1,-1 -2,-2h-1l-1,-1 -1,-1h-1l-4,-4 -1,-1h-1h1l-2,-1 -1,-1 -2,-1v-1Z"/>
    <path data-geo-id="2300586025" data-name="Windham" d="M100,789l7,-5 18,14 -2,2 -4,12 -3,11 -10,-10 1,-6 -1,-9Z"/>
    <path data-geo-id="2300507170" data-name="Bridgton" d="M43,741l1,-1v-2l3,2v1l2,1 2,-1 1,-1h1l1,-1 2,-1v-1l1,-1h1l2,-1 1,-1 1,-1h1l1,-1 1,-1v-2h4l3,17 5,10 -8,12 -4,-2v-1l-1,-2 -2,-2 -2,-2v-1l-1,-1 -2,-4 -1,-1h-2l-7,-4 -1,-2 -2,-1v-3h-1v-1Z"/>
    <path data-geo-id="2300510180" data-name="Cape Elizabeth" d="M130,845l6,-5v-1l4,-1 3,16 -10,-4 -2,-4Z"/>
    <path data-geo-id="2300524495" data-name="Falmouth" d="M123,800l21,16 -9,7 -4,-4h-5l-5,-6 -2,-1Z"/>
    <path data-geo-id="2300528870" data-name="Gray" d="M107,784l11,-15 18,13 -7,10 -4,6Z"/>
    <path data-geo-id="2300386865" data-name="Winterville" d="M372,120h19l-2,18h-17Z"/>
    <path data-geo-id="2301912525" data-name="Chester" d="M402,448l20,-5 -4,5 -4,3 -7,6 -1,1 -1,1 -1,2 -3,5v-1h-1h1v1l-5,3 -8,1 2,-20Z"/>
    <path data-geo-id="2301914310" data-name="Corinna" d="M278,550l19,-2 4,19 -19,3v-3l-1,-1v-3l-1,-5 -1,-3v-4Z"/>
    <path data-geo-id="2301917530" data-name="Dexter" d="M275,532h1l3,-1h4l1,-1h2l2,-1h4v-1l5,20 -19,2v-5h-2v-8l-1,-3v-1Z"/>
    <path data-geo-id="2301918580" data-name="Drew" d="M452,415l7,-2 6,-1 5,-1v3l1,3 1,2 1,5v4l1,2 -18,3 -1,1 -5,-18Z"/>
    <path data-geo-id="2301913365" data-name="Clifton" d="M394,587l7,-11 7,-1 1,5 2,10 1,8 -13,3 -3,1Z"/>
    <path data-geo-id="2301957045" data-name="Passadumkeag" d="M381,501l15,-3 1,17v2l-11,2h-1l-1,-7 -2,-10Z"/>
    <path data-geo-id="2301959950" data-name="Plymouth" d="M284,589l2,-1 13,-1 7,18 -9,1h-7l-1,1h-1v-1l-1,-4v-2l-1,-7v-1l-2,-2Z"/>
    <path data-geo-id="2301960790" data-name="Prentiss" d="M456,433l18,-3 1,2 2,12 1,2v2l-18,4Z"/>
    <path data-geo-id="2301921030" data-name="East Millinocket" d="M393,406v10l-7,-3 -1,-8Z"/>
    <path data-geo-id="2300920405" data-name="East Hancock" d="M437,520l-1,-1v-6l-2,-6 -2,-6 5,-1 5,-1 6,-2h3l19,-4v5h1l7,38v1l2,20h-3l-14,3 4,19 3,14v5l1,3 2,8v2l1,6 3,-1v1l1,5 1,3v2l1,4 1,3h-1l-3,1 3,10v3l1,4v1l-11,-4v1l-6,6 2,-19 -10,3 -4,-20h3l-3,-17 -3,-20 -4,-19 -3,-19 -20,3 -1,-6v-3l-2,-9 19,-3Z"/>
    <path data-geo-id="2300928450" data-name="Gouldsboro" d="M460,657l4,-1 6,-6v-1l11,4h1l-1,9 5,13 -11,8 -3,-13 -8,2v-1l-4,-14Z"/>
    <path data-geo-id="2300144585" data-name="Mechanic Falls" d="M107,739l3,-5 3,-5 1,-1 1,3 2,4 4,2 -6,5h-2l-2,1h-1h1h-1l-1,-1 -2,-2Z"/>
    <path data-geo-id="2301922535" data-name="Eddington" d="M374,581l4,-5 16,11 2,15h-4l-4,1h-2l4,-9 -12,-7 -2,3 -2,-4Z"/>
    <path data-geo-id="2300319420" data-name="Eagle Lake" d="M372,101h19v19h-19Z"/>
    <path data-geo-id="2300548820" data-name="New Gloucester" d="M113,761h1l1,-1v-1l1,1 1,1h2l1,1v-1l1,-1 5,-7 1,-2 2,2 1,2 1,1 3,4h1l1,1 1,1 1,2 2,1 4,6 -7,10 -1,1 -18,-13Z"/>
    <path data-geo-id="2301922710" data-name="Edinburg" d="M364,505l17,-4 2,10v-1v1l1,9 -16,4Z"/>
    <path data-geo-id="2301923620" data-name="Enfield" d="M381,495v-1l1,-2 1,-2v-1v1h-1h1h-1l2,-4v1v-1l1,-1v-1l-1,-1h1h-1l2,-2 1,-2 1,-2 12,9v2l-1,2 -3,8 -15,3Z"/>
    <path data-geo-id="2301927190" data-name="Garland" d="M292,528h7l6,-1 4,-1h3l3,19 -18,3 -5,-20Z"/>
    <path data-geo-id="2301927645" data-name="Glenburn" d="M340,573l7,-2 -3,-12 13,-3 3,13 -1,6 -9,2 -9,2Z"/>
    <path data-geo-id="2301986305" data-name="Winn" d="M411,454l11,-10 1,-2 14,-3 5,18 -20,4Z"/>
    <path data-geo-id="2301987390" data-name="Woodville" d="M398,429l15,-4 10,11 -1,7 -20,5Z"/>
    <path data-geo-id="2301973600" data-name="Stacyville" d="M393,347h20v19h-19Z"/>
    <path data-geo-id="2301981055" data-name="Webster" d="M437,439l6,-1 12,-4 1,-1 4,19 -18,5Z"/>
    <path data-geo-id="2301923865" data-name="Etna" d="M299,587l5,-1 9,-2 3,19 -10,2Z"/>
    <path data-geo-id="2301967160" data-name="Seboeis" d="M354,458l19,-4 5,20 -5,1 -15,2 -2,-8Z"/>
    <path data-geo-id="2300560545" data-name="Portland" d="M126,819h5l4,4 2,8 -9,4h-7Z"/>
    <path data-geo-id="2300560685" data-name="Pownal" d="M137,781l7,-10 2,1 2,2 2,1 1,1 2,1 1,1 2,1 1,1 -9,14v-1Z"/>
    <path data-geo-id="2300553860" data-name="North Yarmouth" d="M136,782l1,-1 11,12 -7,8 -12,-9Z"/>
    <path data-geo-id="2301929185" data-name="Greenbush" d="M381,528l5,-9 11,-2 4,23 -20,4Z"/>
    <path data-geo-id="2301930795" data-name="Hampden" d="M334,599l19,-4h9l-2,3 -7,13 -1,1 -4,1h-1l-8,2 -5,1Z"/>
    <path data-geo-id="2301932510" data-name="Hermon" d="M331,581l10,-2 9,-2 3,18 -19,4Z"/>
    <path data-geo-id="2301934190" data-name="Howland" d="M362,497l3,-1 6,-17 12,4 -3,12v2l1,4 -17,4Z"/>
    <path data-geo-id="2301933490" data-name="Holden" d="M376,590l2,-3 12,7 -4,9 -1,3h-1l-4,4 -5,-3 -4,4 -1,1 -2,-8Z"/>
    <path data-geo-id="2300571990" data-name="South Portland" d="M117,836l4,-1h8l11,3 -4,1v1l-6,5Z"/>
    <path data-geo-id="2300582105" data-name="Westbrook" d="M116,823l3,-11 2,1 5,6 -5,16 -4,1 -3,-3Z"/>
    <path data-geo-id="2300561945" data-name="Raymond" d="M92,786l7,-15 8,-14 6,4 5,8 -11,15 -7,5 -7,-1Z"/>
    <path data-geo-id="2300356205" data-name="Oxbow" d="M411,235v19h-20v-19Z"/>
    <path data-geo-id="2300374405" data-name="Stockholm" d="M464,98v19l-17,1v-20Z"/>
    <path data-geo-id="2300315395" data-name="Crystal" d="M412,327h20v19l-19,1Z"/>
    <path data-geo-id="2300119105" data-name="Durham" d="M149,755l1,4 4,3 13,-1 1,1 2,3 -3,4 -5,7v-1h-1l-2,3 -1,1 -1,1 -1,-1 -2,-1 -1,-1 -2,-1 -1,-1 -2,-1 -2,-2 -2,-1 -4,-6Z"/>
    <path data-geo-id="2300129255" data-name="Greene" d="M149,704l13,11 -2,14 -2,4 -13,-9 -2,-2Z"/>
    <path data-geo-id="2300360300" data-name="Portage Lake" d="M401,159l8,-1 1,19h-18v-18Z"/>
    <path data-geo-id="2300358060" data-name="Perham" d="M430,138l17,-2 1,21 -18,1Z"/>
    <path data-geo-id="2302774475" data-name="Stockton Springs" d="M340,649l17,-5v1l-2,17 -5,-3h-1Z"/>
    <path data-geo-id="2301771755" data-name="South Oxford" d="M21,678l23,-3 5,9 11,-7 12,22 -4,3 -12,8 -9,-16h-15l-4,9 -7,-4v-19Z"/>
    <path data-geo-id="2302505000" data-name="Bingham" d="M194,533l16,-3 3,-1 2,19 -18,4 2,-11Z"/>
    <path data-geo-id="2301937075" data-name="Kingman" d="M450,416l5,18 -12,4 -4,-18Z"/>
    <path data-geo-id="2302549205" data-name="New Portland" d="M155,559h3l3,-1 15,-2 3,17 -7,3 -15,3v-6l-2,-4Z"/>
    <path data-geo-id="2300138740" data-name="Lewiston" d="M145,724l13,9 -2,13 -6,13 -1,-4 -8,-18Z"/>
    <path data-geo-id="2300164570" data-name="Sabattus" d="M158,733l2,-4 11,3 3,1v1h1l-1,1v1l-3,10v3l-15,-3Z"/>
    <path data-geo-id="2300179585" data-name="Wales" d="M162,715l2,1v1h2v2l1,1h2l3,1h2l2,1h1l-1,2h-2l-1,2 -2,6 -11,-3Z"/>
    <path data-geo-id="2302306260" data-name="Bowdoin" d="M169,756h1v-2h1v-8l3,-10v-1l1,-1h1l8,2h3l1,1h2l1,1 -1,2 -5,22 -15,-3v-1l-1,-1Z"/>
    <path data-geo-id="2301380425" data-name="Washington" d="M260,694l1,-1 1,-1 3,-1 2,-1 -1,-1h-1l2,-1h1l3,2v1l2,1v1l2,2h1l2,3 -2,4 3,2 -3,3v5h-3v3h-2v2h-3v-1h-2l1,-2 -5,-2 -1,-3v-2l-1,-2v-9Z"/>
    <path data-geo-id="2301938005" data-name="Lakeville" d="M446,475l18,-5 9,4 5,17 -1,1h-3l-4,1 -19,4Z"/>
    <path data-geo-id="2301945005" data-name="Medway" d="M393,407v-1h20v18l-12,-4h-1l-3,-3 -1,-5ZM393,417l5,2 10,5v1l1,-2 4,2 -15,4Z"/>
    <path data-geo-id="2301947560" data-name="Mount Chase" d="M411,309v6l1,12 -19,1v-19Z"/>
    <path data-geo-id="2301938530" data-name="Lee" d="M422,461l20,-4 4,18 -19,5Z"/>
    <path data-geo-id="2301315780" data-name="Cushing" d="M283,761l1,-11v-1l13,-3h2v2l-15,22 -1,-8Z"/>
    <path data-geo-id="2301309725" data-name="Camden" d="M303,714l7,-8h6l5,-1 1,1 2,1v1l-4,13Z"/>
    <path data-geo-id="2302101920" data-name="Atkinson" d="M309,507l15,-4h3l5,17h-2l-1,2 -5,1h-2v1h-5l-2,1h-2l-1,1Z"/>
    <path data-geo-id="2302105560" data-name="Blanchard" d="M223,486l19,-4 4,18v3l-20,4Z"/>
    <path data-geo-id="2302129535" data-name="Greenville" d="M237,447h1l1,-1v-2l1,-1 1,-2 1,-1 -2,-3v-1l13,-2 4,25 -9,2 -10,2Z"/>
    <path data-geo-id="2302130095" data-name="Guilford" d="M264,496l19,-4 4,18 -16,3h-3Z"/>
    <path data-geo-id="2303100275" data-name="Acton" d="M23,839l11,4 7,14v14h-2l-9,3 -6,-6v-2l1,-1v-1h1v-4h1v-2h-1v-3h1v-4h-1v-1h-1v-1h-1v-1l-1,-1v-6Z"/>
    <path data-geo-id="2303104720" data-name="Berwick" d="M30,901l11,-10 15,23 -10,6v-1l-2,-1v1l-1,-1v-2h-3l-1,-2h-2v-1l-1,-1v-2h-2l-1,-2v-1h1v-2h-2v-2l-1,-1v-1h-1Z"/>
    <path data-geo-id="2303136535" data-name="Kennebunk" d="M70,888l4,-6v-1l5,-7 3,1 3,1 3,2h-1l1,1 10,14 2,4h-1l-8,3h-1l-1,-3h-1v-1l-1,-1 -10,-6h-2Z"/>
    <path data-geo-id="2303167475" data-name="Shapleigh" d="M34,843l15,-5 2,10 2,18 -12,5v-14l-7,-14Z"/>
    <path data-geo-id="2303187985" data-name="York" d="M56,929l16,-13 11,6 -1,9 -12,19 -11,-11Z"/>
    <path data-geo-id="2303164675" data-name="Saco" d="M98,842l2,1v1l2,1 1,1 2,1h-1h1l1,1 4,4h1l1,1 1,1h1l-4,11 5,1 -2,7 -9,-8 -7,1 -2,-10 -5,-1Z"/>
    <path data-geo-id="2301182945" data-name="West Gardiner" d="M186,703h3l6,2 11,5 -7,14v-1l-15,-14Z"/>
    <path data-geo-id="2301140175" data-name="Litchfield" d="M171,732l2,-6 1,-2h2l1,-2h4l3,-13 15,14v1h-2v1l-1,1h-1v1l-1,1v1h-1l-1,4v3h-1v2l-1,-1h-2l-1,-1h-3l-8,-2h-2v-1l-3,-1Z"/>
    <path data-geo-id="2301147770" data-name="Mount Vernon" d="M170,655v-1h1v-2l6,1 8,-8 5,6 4,23 -20,-5 -3,-12h-1v-1Z"/>
    <path data-geo-id="2301756625" data-name="Paris" d="M90,701l17,-8 3,12 -2,12 -8,5 -4,-6Z"/>
    <path data-geo-id="2302168140" data-name="Shirley" d="M219,467l19,-4 10,-2 3,13 -10,2 1,6 -19,4Z"/>
    <path data-geo-id="2302137970" data-name="Lake View" d="M334,458l19,-4 1,4 2,11 2,8 -21,5Z"/>
    <path data-geo-id="2302900660" data-name="Alexander" d="M543,522l16,-9 12,16 1,4 -5,1 -15,7 -8,-13Z"/>
    <path data-geo-id="2302944760" data-name="Meddybemps" d="M567,534l5,-1 7,-4 4,5 -8,10Z"/>
    <path data-geo-id="2302916865" data-name="Deblois" d="M470,598l19,-4 3,18 -15,4 -3,1 -1,-6v-2l-2,-8Z"/>
    <path data-geo-id="2302903810" data-name="Beddington" d="M467,579l18,-3 4,18 -19,4v-5Z"/>
    <path data-geo-id="2302957082" data-name="Passamaquoddy Indian Township" d="M524,482l20,-5 5,15 -2,2 -14,8 -5,4Z"/>
    <path data-geo-id="2302985290" data-name="Whitneyville" d="M543,589l3,-1 7,17 6,15 -5,-2 -5,-12Z"/>
  </g>
  <path class="mesh" d="M548,421l-2,8 16,9M525,579l-1,16 19,-6 6,17 5,12 -5,5M171,791l-9,-15 5,-7 3,-4 1,3v4h3v1l1,2h1l2,3 2,-1h1l5,2 1,-1M368,604l2,8 -1,2 -1,3v2l-2,1h-2l-1,-3h-1l-1,-1v-1h-1v-1l-1,1h-3M370,612l1,-1 4,-4 8,12 -2,3 -18,18M115,866l-5,-1 4,-11 2,2 1,1h1l1,1h1M620,594h-1l-6,-15M421,46l8,15 -15,8 -1,11h-5l-2,-19M411,315v-6l20,-1 1,19h-20l-1,-12M472,365v19h-20v-19h20l17,-2v18l-3,1 -3,6h-11v-4M256,555l22,-5 1,1v4l1,3 1,5v3l1,1v3l19,-3 18,-3 3,18 -9,2 -9,2 -3,-19 -4,-19 18,-3 20,-4 3,19 -6,1 -13,3 -4,-19 -3,-19 1,-1h2l2,-1h5v-1h2l5,-1 1,-2 5,21 18,-4M357,552v4l-13,3 -6,1M504,129h-21v-18h1l19,-1M430,158l18,-1 17,-1v13l1,6 -17,1 -1,-19 -1,-21h17l1,20M489,381l17,1M506,402l-9,2 -4,-1h-1v-1l-6,-20M392,177h18l20,-1 1,19 -1,20 -19,1 -1,-21v-18l-1,-19 -8,1 -3,-15 -9,-6 2,-18v-19l18,-1 -1,-20h-17M372,80h19v21h-19v-30M508,334h-19l1,-20h18M432,327h19l1,20h-20v-20M39,781h-17M261,662l-1,2 -1,3 -3,6v2l-3,8v1l-1,2 -1,1 -16,-3v-3l7,-23 8,-2M111,887l-11,-11 -13,-10 8,-10 2,10 7,-1 9,8M211,710h-5l-11,-5 4,-5 11,3 1,5M229,703l-1,4 -1,5 -9,-2M210,703v-5M489,334v1l-19,1v-22h20v-19h18M447,52v27h-5l-11,-15 -2,-3M464,136v-5l19,-2M489,276l1,18 -20,1v-5l-1,-14h20v-1h18M490,295v-1M345,83l-9,8 -1,10v19h-38v-39h19v10h20M506,362l-17,1v-20h19M506,225l-18,1v-19l17,-1M489,275l-1,-20h19M506,235l-18,1 -1,-10h1M514,603l-1,3 -17,5 -4,1 -3,-18 -4,-18 -18,3 -4,-19 14,-3h3l-2,-20v-1l-7,-38h-1v-5l4,-1h3l1,-1 9,-1 -4,-18 1,-1 -2,-11 -1,-1v-2l-1,-5 -2,-4v-2l-1,-2 -2,-12 -1,-2 -1,-2v-4l-1,-5 -1,-2 -1,-3v-3h2v-23M411,291v-56h19v-20M431,195l18,-1v21l18,-1 1,13 19,-1M488,236v19M470,290l-19,1h-20M161,678v-1l-2,-8v-5h-1l-1,-3v-5l10,1h4l3,12 -2,8M212,712v16l-1,-1h-3l-4,-1 -2,-1h-3l-1,-1h1l7,-14M470,326l-19,1v-19h19v6M489,343v-8M199,700l3,-6M485,150v18l-20,1M464,98h-17v38l-17,2 -1,-19 18,-1 17,-1v14M195,705l-6,-2 5,-16 1,-12M170,700l7,3h9l-2,6 -3,13h-5l-2,-1h-2l-3,-1h-2l-1,-1v-2h-2v-19M484,111l-1,-18v-5M442,79l-29,1M483,111l-19,1v-19h19M467,193v21M485,168v20l1,19 -19,1M372,101h-19v-22M447,79h17v14M466,175l1,18 -18,1v-18h-19M485,188l20,-1M488,207h-2M470,295v13M411,309v-18h20v17h20v-17M432,347v20l-19,-1v-19l19,-1M55,720l-18,13 7,5v2l-1,1v1h1v3l2,1M133,691l-12,1 -2,-8 -1,-6v-1l-1,-1 -4,-6 -1,-2 11,-7v-5M464,79v-12M137,542l-17,3 -2,-13 -1,-5 17,-4 7,-1 12,-2h1l2,6 2,13 -21,3 4,20 14,-3v10l2,4v6l-3,1 -16,2M138,579v3l3,17 -18,7 -5,-15v-3l20,-9 -1,-8 -9,4 -3,-8 -21,11M164,610l3,18 -11,5 -10,-16 -3,-12 8,-2 8,-5M134,637l20,-3 3,22 -4,1h-4v1h-3l-1,1 -4,2 -1,1M88,847l-9,5h-1l-2,-1 -2,-4 -5,-15 8,-11h2v2l1,1v1h1l1,-1v-1h1v1l2,1 1,-1 2,-3 1,-1 1,-1v1h2v1h1v3l2,1 2,2v1h1l1,1v1l2,2 1,1 1,2h1l-1,1v1h-1v2h-2v1l-2,2 -8,13 -2,-8 -8,-22M227,712v8l1,5v10l-1,-1h-3l-2,-1h-2l-4,-1 -1,-1h-2M212,731v-3M261,637l-8,5 -16,-5 -12,17 17,4M235,684h-2M130,645l-7,11 -16,-10 -2,-15 2,1h3l10,3h1l3,1 3,1h7v2l-1,1 -2,3 -1,2 3,1v4l5,2v2l2,7v1l-2,1v1l-3,3 1,4h-2v4l1,4 1,4 -2,3v3l-1,2 -2,4 -1,3v4l-1,2v1l-1,1v4l-1,2h-1v3h-1l-2,2v1l-2,1 -1,2 -2,3 -2,2 -1,-1v-1l-4,-6 -3,-1 2,-12M258,623l1,1h5l3,1h2l-1,1v3l-1,4 -1,4M107,646h-4l-10,-6 -6,-13 6,1 7,2h2l3,1M77,633l-12,6 5,8M21,618l15,-3v-23l5,-2 -4,-26 -18,3M183,477l-2,-5 -15,3 -4,-17 9,-1 25,-5 -8,10 -3,12M53,949l6,-10 11,11M23,827h23l3,7v4l-15,5 -11,-4M74,882l-4,6 -9,11 -2,-7 -2,-2v-2l-10,-3 -8,-14h2l12,-5M306,703l2,2h1v1h1l-7,8 -5,5 -9,-10 10,-13 2,2 1,1 2,2 1,1 1,1M49,834l15,-5 5,3M74,847l-11,15M51,848l5,7v1l7,6 11,19v1h-2l-10,-6 -4,-2 -5,-8 -2,-18 -2,-10M213,529l-3,1M70,888l5,1h2l10,6 1,1v1h1l1,3M70,914l-6,-7 -3,-8M169,629v-1h-2M151,603l-2,-12 6,-3 -1,-8M60,541l-3,1 -3,2v1l1,2v3l1,2v4l1,5 1,1 25,-3 2,17M143,605l-2,-6M185,645l-8,8 -6,-1v-1l-5,-5v-1h1v-2l2,-1v-2h1v-1l1,-2v-2M262,690h-1l-2,-1h-1l-6,-1 -1,-1 -1,8v3l-2,5 -3,2 -3,-1 -2,-1h-1l-7,-1 -3,-1M72,699l15,-3 3,5 6,15 4,6 8,-5M79,666l-3,-5 16,-8 1,4 10,-11M61,782l-1,1 -1,1h-2l-2,2v-1l-2,2h-1l1,1h-2l1,1h1v5h1v1l1,1 -1,1v1h-1l-1,1h-3v-1v1h-3l-2,1 -2,-1h-2l-1,-1 -7,4h-1l-1,-1h-1l-3,2h-1l-2,-2h-1M65,639l-7,3 -6,-11 -5,-12 18,-9 5,9 7,14 10,-6M76,661l-4,-9M93,657v6l-14,3 -8,5M174,684l20,3M189,703h-3M158,680l-1,-1h3l1,-1 11,-1 2,7 -4,15v1l-6,-2v-1l-3,-5v-4l-2,-3 -2,-2 -1,-1v-1h1l1,-1M30,710l14,-7 7,11 4,6 9,12 -1,1h-1l-1,1 -1,1 -2,1h-1l-1,1v1l-2,1 -1,1h-1l-1,1 -2,1 -2,-1v-1l-3,-2M69,729h-4v2l-1,1M110,596l8,-5M124,636l2,-7 3,-5 17,-7M156,633l-2,1M115,515l16,-4 3,12M117,527l-1,-10M106,692l-7,-12 -2,-14M129,624l-4,-13M102,556l-19,3 -3,-20 20,-3 -3,-17M288,607h-2l-7,1v14l-10,3M350,637l-13,4 -5,1 -2,-5 4,-8 11,-3 5,3M272,645l11,2 1,2 -8,16 -8,-1M297,661h9l13,-12 3,13 -11,7 -7,-8M322,662l9,-6 4,13M330,677l-12,5 -6,-10 -1,-3M195,771l2,1v2h-1v1l-1,3v2l-1,1v1M174,669l20,5M188,790l-3,4M184,792l-1,-1M315,620h5l4,-1 1,-1 3,10 6,1M330,637l-9,8h-2l-7,-8M284,649l13,12 -3,6 -6,17 -14,-15 2,-4M329,698l-13,-14 2,-2M312,672l-10,4 -8,-9M299,696l-1,-2h-1l-1,-1v-1l-6,-6 -2,-2 -12,10v1h-1l-2,-2v-1l-2,-1v-1l-3,-2 6,-19M268,688h-1l-2,1h1l1,1 -2,1M564,604l-13,-17 18,-7 6,15 4,10M357,644l-17,5 -3,-8M319,649v-4M332,642l-1,14M279,608l-1,-3 -2,-2v-1l-3,-11 11,-2v1l2,2v1l1,7v2l1,4v1h1l1,-1h7l1,6v3l1,3 2,5v1M297,625l4,-1h2l1,-1 5,-1h2l4,-2 -3,17 -11,4 -4,-16 -13,2 -5,-5M306,661l-5,-20 -17,2v-16M340,649l9,10M170,765l-2,-3 -1,-1h1l1,-1h1v-1l15,3 5,-22 16,3M190,740l1,-2v-2h1v-3l1,-4h1v-1l1,-1v-1h1l1,-1v-1h1M196,775l4,14 -1,6M54,486v5l5,37v3l1,7v3l20,-2M126,629l-10,-13M554,618l5,2M482,653h-1v-1l-1,-4v-3l-3,-10 3,-1h1l5,-1 8,10 3,14M279,469l17,-3 5,24 4,-1 1,1 -5,1 -3,-1h-3l-12,2 -4,-23 -19,3 -9,2 -3,-13 9,-2 -4,-25 27,-5v-5h-28l4,-12 7,-4 3,-11 10,-13 26,-23 -4,-13 4,-3 -1,-26 -5,-12 1,-9 9,-8 -9,-6v-15l5,-15 -6,-2 6,-12 -5,-6 -10,-2 -14,-19 25,1h55l1,4v20l1,13v48l-1,3v100l-6,2 -5,1 -9,3 1,4v11l-1,16h1l4,-1 6,-1v-1h2l6,18 -19,4 -18,4 4,23 -15,4M334,458l3,24 -17,3 4,18 -15,4M151,802v-2l-3,-6 9,-14 1,-1 1,-1 2,-3h1v1M90,819l16,-21 1,9 -1,6 10,10 -2,10 -7,8 -5,-3M202,677l6,-20 5,-6M83,725l-3,-3 -12,-20M96,716l-7,6 -6,3v1h1v1l1,1v3l1,1 -1,1v1l-1,1 -1,1v5l-1,1v6h1v2l1,1v1l-7,4 -5,-10 -3,-17h1l1,-1 1,-1 2,-1 3,-2 1,-1 2,-1M86,778l-14,-6 -3,-4 8,-12M240,626l1,1 -1,1 -2,4v2l1,1v1l-1,1h-8v-1h-3l-1,-1h-1l-5,-1 -3,-1h-1l-1,-1 -2,-1h-3l-1,3v1l-1,2h-4M391,254h20M103,754v1l2,1 2,1 -8,14 -7,15 -6,-8 4,-7 -2,-6 4,-7 1,-2v-2h2l2,-3 1,-1h1l3,2v2h1M84,752h1v1l1,1v1l1,1 1,-1v-1l1,-1 1,2 2,3M39,798v-17l8,-4 16,-3 -1,-2 -2,-2 2,-2h1l2,-2 4,2M77,821h-5v-2h1v-2l1,-1v-1l1,-1v-2l1,-1h-1v-1l-2,-1v-1h1l1,-1 -1,-1v-3h-2v-1l7,-8M93,788l7,1 6,9M116,726l-2,2 -1,1 -3,5 -3,5 -1,1 -4,4v1l-1,1 -1,-7 -11,-17M57,802h1l3,1h1v-1h2v-1h1v-1l1,1 1,-1h2l-1,1h2v1l1,1h1v-1v1v-1M144,816l-21,-16 2,-2 4,-6 12,9 7,-8v1M148,807l-7,-6M21,699l7,4 2,7 2,12 -1,6 -9,6M123,661l11,12M530,622l1,2h1l1,2v1h1v1h-1v1l1,1v1l1,1v1l-2,4M609,518l-17,11 -10,-16M590,549l8,14M209,380h1v1v-1v1v-1h2v1v-1v3h1v2h5v2h1l1,-2v-3h-1l1,-1h1v-1l1,-4h1v-3l-1,-1v-2h-1v1v-1h1v1h1v-7h-1v-1h-1v-2h-1v-1h-1h3v-1h3v1h-1v1l1,1v2l1,1v1l1,1 1,-1v-2h2v1h1v-1h1l-2,-11v-2l-3,-13 -7,1v-67l1,-18v-1l2,-3v-37h50M534,627l7,-2v1M566,617l1,-11M252,424l-2,1h-1h1h-1h1l-3,-1h-1v2h-1l-2,2 3,4v2h-1l-3,-2h-5v3l1,2M185,636l-1,1h-6l-1,-1h-1l-5,-1 -1,-3v-1h-1v-3M239,437h-1l2,-1v1l2,3 -1,1 -1,2 -1,1v2l-1,1h-1l1,16 -19,4M301,491l3,16h5l3,19h-3l-4,1 -6,1h-7l-2,-19 -3,1 -4,-18 -19,4 -4,-24M228,734l10,1 2,1 -6,14M232,754l-7,-4 -2,-8 4,-8M231,773l7,2M544,528l-14,5 5,15 1,3 8,19M494,643l-2,-12 6,-2 2,3 3,5M575,595l24,-12 9,15 -22,10M416,426l8,12 -1,4 -1,2 -11,10 -13,15 -4,3v1l-1,2h-1h1h-1l-4,2 -1,2 -1,2 -2,2h1h-1l1,1v1l-1,1v1v-1l-2,4h1h-1h1v-1v1l-1,2 -1,2v7l1,1 2,10 1,7h1l-5,9v16l20,-4 2,12 1,8 -21,5 -2,-4v-17M376,548h5l-6,9 6,4v-1M383,565v3l-12,-1 -11,2 -3,-13M411,309h-18v19l19,-1 1,20h-20v-19M58,562l1,4v6l1,2v6l1,23 4,7M52,631l-13,10 1,25 -19,3M37,564l-1,-19 -17,2M398,419l-5,-2v-1h-1l-6,-3 7,3M40,666l1,2 3,7 -23,3M37,733l-6,-5M19,591l17,1M28,703l4,-9h15l9,16 -5,4M185,762l7,5M157,579l15,-3 7,-3 4,1 16,-3 -5,21 -17,3 -3,-5 -1,-3v-2l-1,-1 1,-5 -1,-1v-2M472,411l5,-1 10,-3 -1,13 -1,2 1,4 36,-10 -9,-11M260,767l-5,-7 5,-11 6,5M246,760h9M246,754l3,-6h11v1M223,742l-9,16h-1l-6,-2 -2,-1M232,758l9,6M238,735l7,-30M248,703l14,9 5,2 -1,2 -4,11 -7,-1 -6,14 -9,-4M316,684l-4,5 -10,-13M362,526l4,-1 2,-1 16,-4M374,586l2,4 -8,14 -8,-6 2,-3 9,-8M490,304l-20,1M335,101h18M372,101v37h17M401,159h-9v37l1,20h18v19h-20v19h-18v-3h-18M223,213h-31l-8,-1h-5M410,195l-18,1M470,411l-5,1 -6,1 -7,2M452,404v11l-2,1 -11,4 -7,2v-18h20v-20M393,347l1,19h19M432,422h-1l-3,1 -5,1 -1,1h-1l-5,1M483,472l-10,2 -9,-4 -4,-18 18,-4M100,626h-1l-6,2M547,494l2,-2M577,519l-6,10 -12,-16M536,551l18,-7 7,14 18,-8 3,2 3,2M612,607l-4,-9M498,629l3,-2 13,-1M553,605l-7,-17M84,689l15,-9M107,693l-17,8M126,715l5,2 12,5 2,2 -4,13 8,18 -9,10 -2,-1 -1,-2 -1,-1 -1,-1h-1l-3,-4 -1,-1 -1,-2 -2,-2 1,-9 3,-25M164,716l-2,-1 -13,-11 -1,-18 5,-4 3,-1M146,658l7,13v11M148,686l-12,-3M107,739v1l2,2 1,1h1l2,-1h2l6,-5 7,5M127,751l-1,2 -5,7 -1,1v1l-1,-1h-2l-1,-1 -1,-1v1l-1,1h-1l-6,-4M249,740v8M262,727l-2,18v3M260,694v11l1,2v2l1,3M403,552l17,-4h2l4,19 19,-3 4,19 -19,4 2,12 2,6 3,20h-3l-13,2 3,-19 -3,-3 11,-6M375,607l5,3 4,-4h1l1,-3h2l4,-1h4l3,-1 13,-3 4,21 -13,3 -4,-21M216,548h-1l-2,-19 17,-2h2v1l1,6v3l1,3v2l1,3h6l3,-1h2l5,-1 2,-6v-1h2l5,-2h6l2,-1h4l1,-1h2v1M377,685l-2,11M433,648h-12l-1,-11 12,-2 4,6M421,627l-3,1 -2,-9M412,598l-1,-8M407,571l19,-4 4,20 -19,3 -2,-10 -1,-5 -1,-4 -3,-11M434,625l-2,10M420,637l-2,-9M112,496l1,6v2l2,6v5l1,2 -19,2 -4,-20 19,-3 -1,-3 -1,-8v-2l-5,-28v-4l-2,-9 -1,-2 2,-4 -1,-2v-3h-1v-4l-1,-3 -1,-4v-2l-1,-6 -2,-8M217,773l1,-2h-1l1,-1v-5l1,-1v-1h1v-2h1v-2l-7,-1M237,610l3,-4v-3l-2,-17 -1,-7M171,652v2h-1v3M579,550l-4,-6 8,-10 9,-5M583,534l-4,-5 -7,4 -1,-4M283,647l1,-4M312,689l-3,3 -7,7M324,708v-1l-2,-1 -1,-1 -5,1h-6M549,606l-20,8 -3,-10 -12,-1 4,22M554,544l-2,-3 15,-7 8,10M533,502l10,20 1,6 8,13M292,528v1h-4l-2,1h-2l-1,1h-4l-3,1h-1M253,536l-3,-13 -1,-6M201,789h-1M161,558l-3,-19 19,-3 16,-3h1l5,8 -2,11 18,-4M197,552l-21,4 -15,2 -3,1h-3M179,573l-3,-17M118,394l18,-3 3,20 -19,3 -2,-20M154,520l20,-4 9,-3 3,14 7,6M174,516l3,20M159,406l3,21 -3,1 -16,3 -2,-12v-5l-2,-2v-1l20,-5 -1,-7 8,5 10,-9 11,-1 4,-10 14,7v-1h2v1h1l2,2h-1v1v-1h-2h1l1,1v1h1l1,1v2h1v2l1,2h2l3,1v1l-1,3 1,2h1v-1h3l1,1h1l1,1v2v-1h-1l-1,-1h-1v2h1l1,2 -2,3h-1v3h1v3l-1,1h-1v2l-1,1 -1,1 -1,1 -4,1v2l1,9 1,4v4l1,2 1,2 2,14 4,19 3,21 3,15v1l1,1v3M167,761l-13,1 -4,-3 6,-13 15,3v5h-1v2h-1v1l1,1v1M121,737l-4,-2 -2,-4 -1,-3M149,704l-6,18M197,552l2,19 16,-3 4,20 19,-2M353,611l7,-13M411,454l11,7 5,19 19,-5 5,22h-3l-6,2 -5,1 -5,1M478,491l-5,-17M219,588l-6,5 -19,4v-5M183,615l10,-7 5,10 -1,4 2,6h-3l-1,1h-5l-3,1v-2l-1,-1v-2l-1,-2 -3,-3v-1l1,1v-3h-1v-1h1v-1h-1l-4,1h-1v-21M597,565l-9,2 -3,-13 5,-5 10,-5 1,-1 12,-9M39,756l7,-10 1,2 7,4h2l1,1 2,4 1,1v1l2,2 2,2 1,2v1M608,554l-7,-11M274,758l1,-1h1v3h2v-3h1v-4h1l1,-1v-1h2v-3l1,2 -1,11M289,709l-11,-11 -2,-3M215,632l-5,-16 -12,2M193,608l1,-11M503,468l17,-5 4,19 -18,4M298,719l1,2 -20,3v-1l-3,-6h-5v-2h2v-3h3v-5l3,-3 -3,-2 2,-4M256,549v6l1,6 -12,3M401,540l-4,-23v-2l18,-4M297,606l9,-1 10,-2 3,17M266,716h2v1h3M279,724l1,2v1l2,6 -1,3v5h1l1,2v1l1,1v5M467,579l3,14v5l1,3 2,8v2l1,6 3,-1 15,-4M481,634l-1,-3 -1,-4v-2l-1,-3 -1,-5v-1M312,750l-4,-7 4,-1M302,745l5,-2h1l-3,-7 -6,-2 5,-10 11,13M226,507l20,-4M250,523l-18,4M271,513l16,-3M273,591l-9,-1 -2,-9v-7l20,-4 1,1v8l1,4v3l2,2 -2,1M303,714l17,7M304,724l-5,-3M246,500l18,-4 4,17 -19,4 -3,-14v-3l-4,-18 -1,-6 10,-2M337,482l4,17 -14,4h-3M299,753l10,6M250,587l12,-6M299,746h-2l1,-8 1,-4M297,746l-13,3M253,434l-13,2M362,497l-9,2 -5,1h-2l-5,-1M344,559l3,12 -7,2 -6,-1 -2,-11M362,497l2,8 4,19M352,528l10,-2 1,2h2l6,10v4l4,2 1,4 -19,4 -4,-15 -1,-9 -2,-10 -1,-3 -1,-2v-2l-1,-7v-1l-1,-3M392,686l-14,-13 -3,1 10,-20 4,2 17,9M340,573l1,6 -10,2 -9,1M387,696h1v-1l3,-5M434,605l18,-2 3,17h-3l-15,5M403,622l-18,3 -4,-3M100,876v15l-2,2 -10,-14 -1,-1h1l-3,-2 -3,-1 -3,-1 7,-8h1M54,798h1v2l2,2 -1,10 -10,7 -2,-19M90,855l5,1M86,866l-10,-15M44,933l12,-4 3,10M56,812l3,-1 5,18M46,827v-8M421,648v3l-5,9M415,654l-25,-11 2,-6 -7,-12M452,620l4,20 -14,4M426,655l-5,-4M434,507l2,6v6l1,1 1,7 -19,3 2,9v3l1,6 20,-3 3,19M272,601v-1v1M210,616l8,-3 15,-1v6l1,1 1,1v2l2,1 3,3 19,3 2,8h5l-1,3v4h1l3,1h3l-1,2v4l-2,6 -1,7 -5,-1 -2,-1 -11,-6 3,-14M92,786l1,2 -14,6 -4,-7 -11,2 -3,-7h-1l-1,-1v-3l1,-2 1,-1 2,-1M79,874l-5,7M64,907l-8,7 -15,-23 6,-6M420,681h11l19,12M432,695l-10,-2 -4,-2M390,643l-5,2 -22,10M385,645l4,11M375,674l-1,2M46,920l10,-6M72,916l-16,13M100,897l-2,-4M24,868l6,6 9,-3M41,891l-11,10M432,712l-10,-19M464,672l8,-2 3,13M449,583l3,20M456,640l10,-3 -2,19 -4,1M464,117v-5M408,485l19,-5 5,21 2,6 -19,4 -7,-26 -8,1 -12,-9M397,515l-1,-17 3,-8 1,-2v-2M276,602h-1v-1h-6v1h-1v3h1l-1,1 -3,2v3l-1,1h-4l-3,1h-1v3l1,1h1l2,1h1v2h-2v3h-1l1,6M350,518h-3l-13,2h-2l-5,-17M362,595h-9l-3,-18 9,-2 11,2M331,581l3,18 -18,4 -3,-19M408,575l-7,1 -7,11 -16,-11 5,-8M330,520h2M439,420l4,18 -6,1 -14,3M365,407l20,-5 -1,9 -11,7 -8,-11M304,586l-5,1 -13,1M413,406h-20l-8,-1 1,8M393,417l5,12 4,19 -12,2 -2,20 8,-1M383,483l-12,-4M373,475l5,-1 -5,-20 -19,4 -1,-4M378,576l-4,5M359,575l1,-6M334,599v17M257,613v-3h-1l1,-2 -2,-1M114,833l3,3 13,9 1,1 2,4M114,854h-1l-1,-1 -1,-1h-1l-4,-4 -1,-1h-1h1l-2,-1 -1,-1 -2,-1v-1l-2,-1M100,789l7,-5 18,14M123,800l-4,12 -3,11M130,845l6,-5v-1l4,-1M135,823l-4,-4h-5l-5,-6 -2,-1M107,784l11,-15 18,13 -7,10M372,120h19M402,448l20,-5M292,528l5,20M474,430l-18,3 -1,1 -5,-18M396,602l-2,-15M381,501l15,-3M397,517l-11,2M299,587l7,18M464,470l-18,5 -4,-18 18,-5 -4,-19M393,406v1M451,497l19,-4M481,653l-11,-4v1l-6,6M386,603l4,-9 -12,-7 -2,3M140,765l4,6 -7,10 -1,1M118,769l-5,-8M364,505l17,-4M350,577l-9,2M437,439l5,18 -20,4M398,429l15,-4M443,438l12,-4M337,482l21,-5 15,-2 -2,4 -6,17 -3,1 -2,-7v-3l-2,-10 -2,-8 -2,-11M128,835h-7l5,-16M144,771l2,1 2,2 2,1 1,1 2,1 1,1 2,1 1,1M148,793l-11,-12M334,599l19,-4M117,836l4,-1M149,755l1,4M162,715l-2,14 -2,4 -13,-9M158,733l-2,13M160,729l11,3 3,1v1h1l-1,1v1l-3,10v3M177,722l-1,2h-2l-1,2 -2,6M175,734h1l8,2h3l1,1h2l1,1M223,486l19,-4M248,461l-10,2M34,843l7,14v14M199,724v-1l-15,-14M572,533l-5,1M470,598l19,-4M208,637l5,14 5,1 7,2 -8,26 16,4 -4,17v2l-19,-5 -8,-4 2,-17M564,620h-5l-6,-15 11,-1 3,2M22,766l12,-4 5,-6 10,20 -2,1M128,709l-18,-4 -3,-12 -1,-1h15M177,609l-13,1 -5,-12 7,-1 -2,-10 9,-2M504,148l-19,2 -2,-21M492,402v2l-5,3M227,636l-9,16M430,138v38M57,654l13,-7 2,5 -2,4 -13,-2 -16,14M100,574h4l-2,-18 -2,-20 18,-4M190,651l-5,-6v-9l2,-4 1,-1 -1,-1M171,457v-8l-12,-21M60,677l-11,7 -5,-9M123,606l2,5 -9,5 -16,10 -2,-4 -6,-16 -22,13M101,746h1v6M325,618h4v-1h1l4,-1 5,-1 8,-2h1l4,-1 1,-1v3l2,1h1M523,463l18,-5M600,544l-8,-15M205,391v-1h1v-1h3v-1l1,1h1v-2h-1v-2h1v-1h1v-2v1v-1h-1h1v-1h-1h1h-2h1h-1v-1v1l-1,-1h1M217,680l-13,-3h-2l-7,-2 -1,-1 -4,-23 14,-14v-6h-1l-4,-3M516,635l-2,-9 4,-1 12,-3 -1,-8M381,548l-3,-20 3,-6 3,-2 -1,-9v-1v1l-2,-10 -1,-4v-2l3,-12 13,-14 5,-3v-1h-1h1v1l3,-5 1,-2 1,-1 1,-1 7,-6 4,-3 4,-5 1,-7 -10,-11 -4,-2 -1,2v-1l-10,-5M393,408v-1l3,5 1,5 3,3h1l12,4v-58M554,487l-5,5 -5,-15 -20,5 4,24M544,477l-3,-19 -5,-26 -20,6 7,25h-3M220,567l-4,-19 19,-3 3,20 7,-1v1l-2,1h1h-1l-2,1h1h-3l-1,1 -3,5 -1,-7 -14,1 -5,1M158,399l-2,-12 -20,4M235,573l2,6 11,-1 2,9 5,20h-2l-2,1h-4l-1,1h-2l-4,1h-3l-2,1h-2v1M516,438l-19,4 6,26 3,18 5,24 17,-4 5,-4 14,-8 12,19 -16,9M207,509l-24,4 -3,-2v-18l23,-3 4,19 3,21 -16,3M501,627l-5,-16M268,513h3l4,19M535,548l-15,6 5,25 19,-9 7,17 -5,1 -3,1M213,593l5,20M251,543l5,6 6,-1 10,-12 3,-3v1l1,3v8h2v5M278,550l19,-2M262,574l-5,-13M183,477l2,-3M185,474l13,-3 5,19M180,493l3,-16M60,579l25,-3M85,576l15,-2M100,574l4,4M104,578l6,18M110,596l-18,10M92,606l-2,-3M90,603l-1,-2M89,601l-6,-11M83,590h-1M82,590l-1,1M81,591h-1M80,591l-4,3M76,594l-5,3M71,597l-10,6M60,677l11,-6M71,671l13,18M84,689l3,7M72,699l-12,-22M112,668l-15,-2M97,666l-4,-3M56,710l12,-8M68,702l4,-3"/>
  <g class="cities">
    <circle r="7" cx="135" cy="832"/>
    <text x="135" y="832">Portland</text>
    <circle r="7" cx="143" cy="739"/>
    <text x="143" y="739">Lewiston</text>
    <circle r="7" cx="362" cy="591"/>
    <text x="362" y="591">Bangor</text>
  </g>
</svg>