<?xml version="1.0" encoding="utf-8"?>
<!DOCTYPE svg PUBLIC "-//W3C//DTD SVG 1.1//EN" "http://www.w3.org/Graphics/SVG/1.1/DTD/svg11.dtd">
<svg version="1.1" xmlns="http://www.w3.org/2000/svg" width="867" height="1000" viewBox="0 0 867 1000">
  <path class="state" d="M682,651l-4,21 4,12 24,13 23,-21 20,-37 20,-4 4,-7 13,-3 19,11 10,18 5,24 1,12 8,24 2,30 4,9 1,9 8,12 -4,13 -1,27 -4,20 -10,-2v-7l-9,-2 -10,6 2,12 -6,1 -2,16 -6,15h-5l-13,9 -4,8 -5,30 -6,15 -8,1v7l-11,11 -6,12 -28,2 -64,4 -49,3 -3,-10 -50,1 -53,1h-48h-64l22,-19 14,-34 13,-17 10,-25 5,-24 1,-28v-25l-6,-25 -18,-41 -3,-10 -8,-22 1,-8 8,-10 3,-11 -2,-18 -7,-18 14,-16 12,-28 3,-21 -3,-19 3,-9 13,-3 4,-8v-17h9l5,-10 12,4 17,-33 9,16 -8,9 4,7 -5,9 1,16 5,1 7,-17 -4,-3 8,-13 -1,19 -7,7 4,10 9,-17 5,-10 2,-27 -2,-13 5,-14 16,-10 8,1 18,-5 -1,-5 -12,-1 -5,-6 -3,-14 4,-8 13,-11 -4,-8 19,2 7,-7 25,19 15,-1 13,5 8,9 5,10h19l10,10h9l13,9 7,-1 15,11v10l7,8 1,14 -11,-1 -4,9 4,11 11,9 6,20 -3,14v17l-1,25 -9,8 -8,1 -6,17 -3,15 -6,1 -2,10h-18ZM259,218h15l15,7 14,12 1,7 15,21h6l-1,11 9,4 17,-1 9,-5 8,9 14,5 7,-6 8,10 18,-20 19,-10 13,-8 4,3 25,-6 6,2h32l24,-12 28,-3 -6,8v34l24,4 15,-5 3,10 27,-13 8,10 8,24 -5,14 13,-1 8,5 -4,6 16,18 -20,-1h-10h-2l-12,-1 -5,7 -1,-9 -12,6 -2,-9 -10,-3 -3,12 -5,1 -2,18 -25,-24 -33,-12h-20l-13,19h-21l-5,7 -10,-6h-21l-10,7 -3,18 -11,5 -12,6 -4,14 -10,-10 10,-9 8,-20 -4,-2 -7,9 -15,-3 -5,20 -13,7 -3,-24 -6,4v11l-11,9 -10,17 -18,37 -15,18 -3,10 -13,-11 4,-16 6,-7 -4,-8 -7,6h-11v-13l7,-7 2,-27 -7,-7 -2,-6 -18,-3 -9,-6 8,-8 -5,-7 -8,-5 -23,-3 -8,-7 -16,5 -1,-5h-11l-20,-12 -15,-8 -45,-15 -53,-16 -8,-25 -20,-12 6,-3 36,-10 13,-12 11,-8 35,-1 20,-10 10,-12h16l3,-4 5,-10 12,-7 11,-10 5,15 9,2v11l7,5 -1,9 -3,7 3,15 21,-21 10,-5 -8,10ZM509,387l4,4 2,15 -5,6h-8l1,-16ZM679,353l8,-10 8,-1 -4,-9 9,-1 17,15 -5,11 -4,-1ZM644,301l8,11 -4,5 -6,-8ZM642,271l6,1 -6,14 9,15 -12,-10 -6,-13ZM241,176v7l-13,10 -5,14 -6,-7 -6,-15 -9,-3 1,-12 11,-8 8,-12 19,-8 3,-4 17,-2h18l14,5v6l-24,1 1,6 -11,7 -10,12ZM203,38l15,-3 -7,14 -9,8 -17,4 -14,9 1,5 -20,8 -6,-5 5,-12 16,-8 23,-9ZM466,488l-10,-7v-7l10,2ZM607,376l21,5 -3,8 -10,-1Z"/>
  <g class="counties">
    <path data-fips-int="26001" data-name="Alcona County" d="M738,511l6,20 -3,14v17l-59,2 -2,-51Z"/>
    <path data-fips-int="26005" data-name="Allegan County" d="M488,820h25l1,51h-24l-54,1 5,-24 1,-28Z"/>
    <path data-fips-int="26009" data-name="Antrim County" d="M580,477l2,39h-46l-5,7 -10,-7 5,-10 2,-27 -2,-13h16v13Z"/>
    <path data-fips-int="26013" data-name="Baraga County" d="M259,218v20h4v14l-12,-1 -1,38 -56,-2 2,-62h12v-12h11l-3,7 3,15 21,-21 10,-5 -8,10Z"/>
    <path data-fips-int="26015" data-name="Barry County" d="M564,870l-23,1h-27l-1,-51 25,-1h26Z"/>
    <path data-fips-int="26017" data-name="Bay County" d="M682,651l-4,21 4,12 24,13v15h-13v-5h-24v-5h-12l-1,-38 -1,-25h12l1,12Z"/>
    <path data-fips-int="26019" data-name="Benzie County" d="M482,529v38h-43l-3,-19 3,-9 13,-3 4,-8Z"/>
    <path data-fips-int="26021" data-name="Berrien County" d="M441,922v45h-64l22,-19 14,-34 13,-17h15Z"/>
    <path data-fips-int="26023" data-name="Branch County" d="M592,920v45l-50,1 -1,-45Z"/>
    <path data-fips-int="26027" data-name="Cass County" d="M491,922v40l-2,5h-48v-45Z"/>
    <path data-fips-int="26031" data-name="Cheboygan County" d="M644,403h-4l2,62h-12l-38,1v-13l-1,-73 25,19 15,-1Z"/>
    <path data-fips-int="26035" data-name="Clare County" d="M583,617h25l2,49 -51,2v-51Z"/>
    <path data-fips-int="26037" data-name="Clinton County" d="M637,767l2,50 -25,2h-26l-1,-51Z"/>
    <path data-fips-int="26039" data-name="Crawford County" d="M630,515l2,51 -49,1 -1,-51Z"/>
    <path data-fips-int="26043" data-name="Dickinson County" d="M299,353v12h-8v26h-16l-2,-6 -18,-3 -9,-6 8,-8 -5,-7 1,-47 50,1Z"/>
    <path data-fips-int="26045" data-name="Eaton County" d="M588,819h26l1,50h-13l-38,1v-51Z"/>
    <path data-fips-int="26049" data-name="Genesee County" d="M733,749l2,50 -25,1 1,14 -25,1 -2,-52 -1,-12 25,-1Z"/>
    <path data-fips-int="26051" data-name="Gladwin County" d="M654,615l1,24 1,25 -21,2h-25l-2,-49 26,-1Z"/>
    <path data-fips-int="26053" data-name="Gogebic County" d="M162,299v35l-15,-8 -45,-15 -53,-16 -8,-25 -20,-12 6,-3 36,-10 13,-12 1,25h12l-2,14h39l-2,25Z"/>
    <path data-fips-int="26057" data-name="Gratiot County" d="M611,718l25,-1 1,48v2l-50,1 -1,-50Z"/>
    <path data-fips-int="26059" data-name="Hillsdale County" d="M642,918l2,54 -49,3 -3,-10v-45h11Z"/>
    <path data-fips-int="26065" data-name="Ingham County" d="M661,817l3,50 -49,2 -1,-50 25,-2Z"/>
    <path data-fips-int="26067" data-name="Ionia County" d="M587,768l1,51h-24h-26l-1,-50Z"/>
    <path data-fips-int="26069" data-name="Iosco County" d="M741,562l-1,25 -9,8 -8,1 -6,17 -33,1 -2,-50Z"/>
    <path data-fips-int="26071" data-name="Iron County" d="M194,287l56,2v25l-1,47 -8,-5 -23,-3 -8,-7 -16,5 -1,-5h-11l-20,-12v-35l1,-12Z"/>
    <path data-fips-int="26073" data-name="Isabella County" d="M611,718h-25l-26,1 -1,-51 51,-2Z"/>
    <path data-fips-int="26075" data-name="Jackson County" d="M664,867h1l2,51h-25l-39,2 -1,-51h13Z"/>
    <path data-fips-int="26077" data-name="Kalamazoo County" d="M541,871v50l-50,1 -1,-51h24Z"/>
    <path data-fips-int="26079" data-name="Kalkaska County" d="M582,516l1,51h-51l-1,-44 5,-7Z"/>
    <path data-fips-int="26081" data-name="Kent County" d="M537,769l1,50 -25,1h-25l-2,-63v-13h25l26,-1Z"/>
    <path data-fips-int="26085" data-name="Lake County" d="M459,618h23h27l1,50h-50Z"/>
    <path data-fips-int="26087" data-name="Lapeer County" d="M782,757l3,38 -12,1 -38,3 -2,-50 11,-3 -1,-12 25,-1 1,6 12,-1Z"/>
    <path data-fips-int="26091" data-name="Lenawee County" d="M708,968l-64,4 -2,-54h25l38,-2Z"/>
    <path data-fips-int="26093" data-name="Livingston County" d="M711,814l4,51 -50,2h-1l-3,-50 25,-2Z"/>
    <path data-fips-int="26095" data-name="Luce County" d="M537,241l2,74h-64v-37v-27l6,2h32Z"/>
    <path data-fips-int="26099" data-name="Macomb County" d="M816,823l-10,6 2,12 -6,1 -2,16 -23,2 -4,-64 12,-1 27,-1 1,26Z"/>
    <path data-fips-int="26101" data-name="Manistee County" d="M482,567v51h-23l-35,-2 12,-28 3,-21Z"/>
    <path data-fips-int="26105" data-name="Mason County" d="M459,618l1,50h-41l-2,-18 -7,-18 14,-16Z"/>
    <path data-fips-int="26107" data-name="Mecosta County" d="M559,668l1,51h-50v-51Z"/>
    <path data-fips-int="26109" data-name="Menominee County" d="M325,354v12h4l-1,50h6l-18,37 -15,18 -3,10 -13,-11 4,-16 6,-7 -4,-8 -7,6h-11v-13l7,-7 2,-27 -7,-7h16v-26h8v-12Z"/>
    <path data-fips-int="26111" data-name="Midland County" d="M656,664l1,38v12l-21,3 -25,1 -1,-52h25Z"/>
    <path data-fips-int="26113" data-name="Missaukee County" d="M583,567v50h-24h-26l-1,-50Z"/>
    <path data-fips-int="26117" data-name="Montcalm County" d="M560,719l26,-1 1,50 -50,1v-26l-26,1 -1,-25Z"/>
    <path data-fips-int="26119" data-name="Montmorency County" d="M680,513l-50,2v-50h12l37,-2Z"/>
    <path data-fips-int="26121" data-name="Muskegon County" d="M460,720l1,24h25v13h-12l1,13h-39l-18,-41 -3,-10Z"/>
    <path data-fips-int="26123" data-name="Newaygo County" d="M510,668v51l1,25h-25h-25l-1,-24v-52Z"/>
    <path data-fips-int="26125" data-name="Oakland County" d="M777,860l-49,3 -13,2 -4,-51 -1,-14 25,-1 38,-3Z"/>
    <path data-fips-int="26127" data-name="Oceana County" d="M460,668v52l-45,-1 -8,-22 1,-8 8,-10 3,-11Z"/>
    <path data-fips-int="26129" data-name="Ogemaw County" d="M682,564l2,50 -30,1 -20,1 -2,-50Z"/>
    <path data-fips-int="26131" data-name="Ontonagon County" d="M163,287l-1,12 -38,-2 2,-25h-39l2,-14h-12l-1,-25 11,-8 35,-1 20,-10 10,-12h16l3,-4v39h6l-1,12h-12Z"/>
    <path data-fips-int="26133" data-name="Osceola County" d="M533,617h26v51h-49l-1,-50Z"/>
    <path data-fips-int="26135" data-name="Oscoda County" d="M682,564l-50,2 -2,-51 50,-2Z"/>
    <path data-fips-int="26137" data-name="Otsego County" d="M630,465v50l-48,1 -2,-39h12v-11Z"/>
    <path data-fips-int="26139" data-name="Ottawa County" d="M486,757l2,63h-46v-25l-6,-25h39l-1,-13Z"/>
    <path data-fips-int="26141" data-name="Presque Isle County" d="M730,461l-51,2 -37,2 -2,-62h4l8,9 5,10h19l10,10h9l13,9 7,-1 15,11Z"/>
    <path data-fips-int="26143" data-name="Roscommon County" d="M632,566l2,50 -26,1h-25v-50Z"/>
    <path data-fips-int="26145" data-name="Saginaw County" d="M706,712l2,38 -25,1 1,12 -21,2h-26l-1,-48 21,-3v-12h12v5h24v5Z"/>
    <path data-fips-int="26149" data-name="Saint Joseph County" d="M541,921l1,45 -53,1 2,-5v-40Z"/>
    <path data-fips-int="26151" data-name="Sanilac County" d="M835,753l-53,4 -1,-19 -12,1 -1,-6h2l-4,-51 54,-4 1,12 8,24 2,30Z"/>
    <path data-fips-int="26153" data-name="Schoolcraft County" d="M475,278v37l1,41 -5,7 -10,-6h-21l-10,7 -3,18 -11,5v-20h-3v-38h-13v-26h25v-25Z"/>
    <path data-fips-int="26155" data-name="Shiawassee County" d="M684,763l2,52 -25,2h-22l-2,-50v-2h26Z"/>
    <path data-fips-int="26157" data-name="Tuscola County" d="M729,676l1,8 36,-2 4,51h-2l-25,1 1,12 -11,3 -25,1 -2,-38v-15Z"/>
    <path data-fips-int="26159" data-name="Van Buren County" d="M490,871l1,51h-50v-25h-15l10,-25Z"/>
    <path data-fips-int="26161" data-name="Washtenaw County" d="M730,914l-25,2 -38,2 -2,-51 50,-2 13,-2Z"/>
    <path data-fips-int="26165" data-name="Wexford County" d="M532,567l1,50 -24,1h-27v-51Z"/>
    <path data-fips-int="26003" data-name="Alger County" d="M475,278h-50v25h-25v26l-50,-1v-49l9,-5 8,9 14,5 7,-6 8,10 18,-20 19,-10 13,-8 4,3 25,-6Z"/>
    <path data-fips-int="26007" data-name="Alpena County" d="M730,461l7,8 1,14 -11,-1 -4,9 4,11 11,9 -58,2 -1,-50Z"/>
    <path data-fips-int="26011" data-name="Arenac County" d="M717,613l-3,15 -6,1 -2,10h-18l-6,12h-14l-1,-12h-12l-1,-24 30,-1Z"/>
    <path data-fips-int="26029" data-name="Charlevoix County" d="M555,443l9,12 28,-2v13v11h-12l-38,2v-13h-16l5,-14 16,-10ZM509,387l4,4 2,15 -5,6h-8l1,-16Z"/>
    <path data-fips-int="26033" data-name="Chippewa County" d="M679,353l8,-10 8,-1 -4,-9 9,-1 17,15 -5,11 -4,-1ZM652,351h-10h-2l-1,-13h-12l-1,-12 -75,2v-13h-12l-2,-74 28,-3 -6,8v34l24,4 15,-5 3,10 27,-13 8,10 8,24 -5,14 13,-1 8,5 -4,6 16,18ZM644,301l8,11 -4,5 -6,-8ZM642,271l6,1 -6,14 9,15 -12,-10 -6,-13Z"/>
    <path data-fips-int="26041" data-name="Delta County" d="M350,328l50,1h13v38h3v20l-12,6 -4,14 -10,-10 10,-9 8,-20 -4,-2 -7,9 -15,-3 -5,20 -13,7 -3,-24 -6,4v11l-11,9 -10,17h-6l1,-50h-4v-12h11l2,-26Z"/>
    <path data-fips-int="26047" data-name="Emmet County" d="M591,380l1,73 -28,2 -9,-12 18,-5 -1,-5 -12,-1 -5,-6 -3,-14 4,-8 13,-11 -4,-8 19,2Z"/>
    <path data-fips-int="26055" data-name="Grand Traverse County" d="M521,516l10,7 1,44h-50v-38h18l5,1 7,-17 -4,-3 8,-13 -1,19 -7,7 4,10Z"/>
    <path data-fips-int="26061" data-name="Houghton County" d="M241,176v7l-13,10 -5,14 -6,-7 -6,-15 -9,-3 1,-12 11,-8h21v13ZM219,213h-11v12h-12l-2,62h-31l1,-38h12l1,-12h-6v-39l5,-10 12,-7 11,-10 5,15 9,2v11l7,5Z"/>
    <path data-fips-int="26063" data-name="Huron County" d="M820,678l-54,4 -36,2 -1,-8 20,-37 20,-4 4,-7 13,-3 19,11 10,18Z"/>
    <path data-fips-int="26083" data-name="Keweenaw County" d="M279,136l14,5v6l-24,1 1,6 -11,7 -10,12 -8,3 -6,-1v-13h-21l8,-12 19,-8 3,-4 17,-2ZM203,38l15,-3 -7,14 -9,8 -17,4 -14,9 1,5 -20,8 -6,-5 5,-12 16,-8 23,-9Z"/>
    <path data-fips-int="26089" data-name="Leelanau County" d="M500,529h-18l-26,-1v-17h9l5,-10 12,4 17,-33 9,16 -8,9 4,7 -5,9ZM466,488l-10,-7v-7l10,2Z"/>
    <path data-fips-int="26097" data-name="Mackinac County" d="M640,351l-12,-1 -5,7 -1,-9 -12,6 -2,-9 -10,-3 -3,12 -5,1 -2,18 -25,-24 -33,-12h-20l-13,19h-21l-1,-41h64h12v13l75,-2 1,12h12ZM607,376l21,5 -3,8 -10,-1Z"/>
    <path data-fips-int="26103" data-name="Marquette County" d="M350,279v49h-12l-2,26h-11l-26,-1 1,-38 -50,-1v-25l1,-38 12,1v-14h-4v-20h15l15,7 14,12 1,7 15,21h6l-1,11 9,4Z"/>
    <path data-fips-int="26115" data-name="Monroe County" d="M767,920l-6,15 -8,1v7l-11,11 -6,12 -28,2 -3,-52 25,-2 27,-2Z"/>
    <path data-fips-int="26147" data-name="Saint Clair County" d="M816,823l-3,-3 -1,-26 -27,1 -3,-38 53,-4 1,9 8,12 -4,13 -1,27 -4,20 -10,-2v-7Z"/>
    <path data-fips-int="26163" data-name="Wayne County" d="M800,858l-6,15h-5l-13,9 -4,8 -5,30 -10,-8 -27,2 -2,-51 49,-3Z"/>
    <path data-fips-int="26025" data-name="Calhoun County" d="M602,869l1,51h-11l-51,1v-50l23,-1Z"/>
  </g>
  <path class="mesh" d="M741,562l-59,2 -2,-51 58,-2M442,820h46h25l1,51h-24l-54,1M526,466h16v13l38,-2 2,39h-46l-5,7 -10,-7M259,218v20h4v14l-12,-1 -1,38 -56,-2 2,-62h12v-12h11M513,820l25,-1h26v51l-23,1h-27M706,697v15h-13v-5h-24v-5h-12l-1,-38 -1,-25h12l1,12h14M456,528l26,1v38h-43M426,897h15v25v45M542,966l-1,-45 51,-1v45M441,922h50v40l-2,5M644,403h-4l2,62h-12l-38,1v-13l-1,-73M583,567v50h25l2,49 -51,2v-51h24M538,819l-1,-50 50,-1 -1,-50h25l25,-1 1,48v2l2,50 -25,2h-26l-1,-51 50,-1M249,361l1,-47 50,1 -1,38v12h-8v26h-16M614,819l1,50h-13l-38,1M564,819h24M608,617l26,-1 20,-1 1,24M76,233l1,25h12l-2,14h39l-2,25 38,2v35M592,920h11l39,-2 2,54M639,817h22l3,50 -49,2M634,616l-2,-50 50,-2M250,289v25M162,299l1,-12h31M560,719h-50v-51h49M656,664l-21,2h-25l1,52M664,867h1l2,51h-25M603,920l-1,-51M541,871v50l-50,1 -1,-51M583,567h-51l-1,-44M488,820l-2,-63v-13h25l26,-1v26M733,749l2,50 -25,1 1,14 -25,1 -2,-52 -1,-12 25,-1 25,-1 11,-3 -1,-12 25,-1 1,6 12,-1 1,19 3,38 -12,1 -38,3M667,918l38,-2 3,52M711,814l4,51 -50,2M661,817l25,-2M537,241l2,74h-64v-37v-27M800,858l-23,2 -4,-64M785,795l27,-1 1,26 3,3M482,567v51M459,618h23h27l1,50h-50l-1,-50 -35,-2M460,720v-52h-41M299,353l26,1v12h4l-1,50h6M657,702v12l-21,3M482,567h50M511,744l-1,-25M642,465l37,-2 1,50 -50,2 2,51 -49,1 -1,-51 48,-1v-50M415,719l45,1 1,24h25M486,757h-12l1,13h-39M777,860l-49,3 -13,2M684,614l-30,1M171,198v39h6l-1,12h-12l-1,38M509,618l24,-1M580,477h12v-11M730,461l-51,2M706,712l2,38M684,763l-21,2h-26M835,753l-53,4M768,733h2l-4,-51 54,-4M475,315l1,41M416,387v-20h-3v-38h-13v-26h25v-25h50M729,676l1,8 36,-2M728,863l2,51 -25,2M400,329l-50,-1v-49M555,443l9,12 28,-2M640,351l-1,-13h-12l-1,-12 -75,2v-13h-12M325,354h11l2,-26h12M482,529h18M214,162h21v13l6,1M730,914l27,-2 10,8M717,613l-33,1 -2,-50M586,718l-26,1 -1,-51M559,617h-26l-1,-50"/>
  <g class="cities">
    <circle r="7" cx="782" cy="877"/>
    <text x="782" y="877">Detroit</text>
    <circle r="7" cx="500" cy="793"/>
    <text x="500" y="793">Grand Rapids</text>
    <circle r="7" cx="619" cy="824"/>
    <text x="619" y="824">Lansing</text>
  </g>
</svg>