<?xml version="1.0" encoding="utf-8"?>
<!DOCTYPE svg PUBLIC "-//W3C//DTD SVG 1.1//EN" "http://www.w3.org/Graphics/SVG/1.1/DTD/svg11.dtd">
<svg version="1.1" xmlns="http://www.w3.org/2000/svg" width="310" height="350" viewBox="0 0 310 350">
  <path class="state" transform="scale(0.1)" d="M2356,1260M639,213M2263,1253h-35M2557,3380l-105,7 -224,17 -168,8 -7,-32 -175,2 -184,3h-166l-226,-1M1043,1705l-24,-8 -28,-48 34,-67 -14,-28 -24,23 -46,-3 9,-43 25,-33 -13,-32 21,-12 -17,-26 15,-14 -22,-26 -41,-19 -7,-18 -31,5 -21,-20 22,-21 -15,-29 -25,-16 -80,-14 -31,-23h-94l-71,-43 -37,-23 -351,-114 -28,-83 -62,-20 -7,-16 160,-325 15,-33 175,-354 50,21 225,-128 104,-28 1187,717 35,126 74,87 28,3 17,-25 50,4 5,-2 13,-20 26,2 11,5 -8,49 9,42 18,75 25,18 19,47 44,-34 23,9 36,-12 29,7 50,53 -53,88 388,228 2,15 140,654 42,204 -91,295 -6,6v2M2869,2958h-3M2846,2948h-5h5M2563,3377M2263,1253h-35M1043,1705l54,10 14,-66 33,-17 46,-50 31,-51h117l181,108 -63,53 -78,98 -41,88 -38,114 -69,266 -24,114 -15,102 -2,63 11,141 34,336 -26,114 -47,254 141,2M2869,2958l18,-22M2887,2936l10,-8 16,-80 -7,-20 10,-68M2916,2760l9,-23M2925,2737l-3,-4M2922,2733v-3M2557,3380h2M2559,3380v-1M2559,3379l4,-2M2563,3377l-1,3M2562,3380h1M2563,3380h3M2566,3380l16,-1 111,-115 -16,-42 8,-43 -4,-56 22,-42 25,-10M2728,3071l60,-22 53,-76M2841,2973l3,-5M2844,2968l22,-10"/>
  <g class="counties" transform="scale(0.1)">
    <path data-fips-int="26001" data-name="Alcona County" d="M2560,1809l20,73 -14,46v55l-201,9 -6,-175Z"/>
    <path data-fips-int="26005" data-name="Allegan County" d="M1691,2878h87l3,173 -82,2 -188,1 7,-23 16,-151Z"/>
    <path data-fips-int="26009" data-name="Antrim County" d="M2012,1694l6,130 -159,1 -13,25 -18,-25h-20l7,-18 12,-35 6,-75 -9,-48h57l2,46Z"/>
    <path data-fips-int="26013" data-name="Baraga County" d="M872,764l-35,33 53,-13 13,5 -1,71 17,4 -1,43 -43,-2 -3,132 -194,-7 6,-216 44,2v-44h36l-11,78 8,12 28,-55 7,9 40,-39Z"/>
    <path data-fips-int="26015" data-name="Barry County" d="M1956,3049l-84,2h-91l-3,-173 88,-2 87,-1Z"/>
    <path data-fips-int="26017" data-name="Bay County" d="M2365,2293l-2,25 -1,6 -10,42 14,43 27,30 -2,-17 55,29 3,56h-44l-6,-20h-80v-21h-42l-3,-129 -3,-86 44,-2 1,44Z"/>
    <path data-fips-int="26019" data-name="Benzie County" d="M1674,1870v131l-150,-1 4,-37 -13,-30 7,-28 46,-12 12,-25Z"/>
    <path data-fips-int="26021" data-name="Berrien County" d="M1530,3229l-2,156 -226,-1 57,-44 27,-28 45,-106 44,-63h53Z"/>
    <path data-fips-int="26023" data-name="Branch County" d="M2050,3224l3,156 -175,2 -3,-156Z"/>
    <path data-fips-int="26027" data-name="Cass County" d="M1700,3229l3,136 -9,20h-166l2,-156Z"/>
    <path data-fips-int="26031" data-name="Cheboygan County" d="M2159,1418l34,-4 42,19h-16l8,216h-43h-129v-43l-5,-250 83,55Z"/>
    <path data-fips-int="26035" data-name="Clare County" d="M2022,2174l88,-1 5,173 -175,5 -3,-177Z"/>
    <path data-fips-int="26037" data-name="Clinton County" d="M2209,2695l6,170 -88,6 -87,2 -3,-175Z"/>
    <path data-fips-int="26039" data-name="Crawford County" d="M2187,1822l4,175 -172,1 -1,-174Z"/>
    <path data-fips-int="26043" data-name="Dickinson County" d="M1041,1258v43h-27l-2,87h-53l-41,-19 -7,-18 -31,5 -21,-20 22,-21 -15,-29 3,-163 175,4Z"/>
    <path data-fips-int="26045" data-name="Eaton County" d="M2040,2873l87,-2 4,175 -44,2 -131,1 -3,-174Z"/>
    <path data-fips-int="26049" data-name="Genesee County" d="M2540,2630l9,175 -87,7 1,44 -86,4 -8,-177 -1,-44 85,-4Z"/>
    <path data-fips-int="26051" data-name="Gladwin County" d="M2269,2168l2,83 3,86h-72v9h-87l-5,-173 86,-2Z"/>
    <path data-fips-int="26053" data-name="Gogebic County" d="M568,1072l-3,118 -37,-23 -351,-114 -28,-83 -62,-20 -7,-16 90,-37 52,-15 45,-40h8l-4,85 43,3 -2,45 130,5 -3,87Z"/>
    <path data-fips-int="26057" data-name="Gratiot County" d="M2118,2522l87,-2 4,170v5l-172,3 -6,-174Z"/>
    <path data-fips-int="26059" data-name="Hillsdale County" d="M2222,3219l6,185 -168,8 -7,-32 -3,-156h44Z"/>
    <path data-fips-int="26065" data-name="Ingham County" d="M2290,2865l12,174 -171,7 -4,-175 88,-6Z"/>
    <path data-fips-int="26067" data-name="Ionia County" d="M2037,2698l3,175 -87,2 -87,1 -4,-176Z"/>
    <path data-fips-int="26069" data-name="Iosco County" d="M2566,1983v88l-38,34 -16,-4 -22,27 -5,33 -114,5 -6,-174Z"/>
    <path data-fips-int="26071" data-name="Iron County" d="M678,1030l194,7 -3,86 -3,163 -25,-16 -80,-14 -31,-23h-94l-71,-43 3,-118 1,-45Z"/>
    <path data-fips-int="26073" data-name="Isabella County" d="M2118,2522l-87,2 -88,1 -3,-174 175,-5Z"/>
    <path data-fips-int="26075" data-name="Jackson County" d="M2302,3039h3l4,178 -87,2 -128,5 -7,-176 44,-2Z"/>
    <path data-fips-int="26077" data-name="Kalamazoo County" d="M1872,3051l3,175 -175,3 -1,-176 82,-2Z"/>
    <path data-fips-int="26079" data-name="Kalkaska County" d="M2018,1824l1,174 -172,2 -1,-150 13,-25Z"/>
    <path data-fips-int="26081" data-name="Kent County" d="M1862,2700l4,176 -88,2h-87l-4,-219v-45h84l91,-2Z"/>
    <path data-fips-int="26085" data-name="Lake County" d="M1594,2176h80h91l3,175 -172,1 -3,-176Z"/>
    <path data-fips-int="26087" data-name="Lapeer County" d="M2710,2659l11,133 -44,3 -128,10 -9,-175 40,-5 -3,-45 85,-5 1,20h43Z"/>
    <path data-fips-int="26091" data-name="Lenawee County" d="M2452,3387l-224,17 -6,-185 87,-2 134,-8Z"/>
    <path data-fips-int="26093" data-name="Livingston County" d="M2463,2856l15,177 -173,6h-3l-12,-174 87,-5Z"/>
    <path data-fips-int="26095" data-name="Luce County" d="M1866,872l3,256 -217,4v-132v-93l35,7h90l47,-22h1Z"/>
    <path data-fips-int="26099" data-name="Macomb County" d="M2821,2881l7,10 -35,17 9,45 -21,2 -15,40v3v1l6,12 -79,5 -16,-221 44,-3 88,-7Z"/>
    <path data-fips-int="26101" data-name="Manistee County" d="M1522,2011l2,-11 150,1v175h-80h-1l-125,-7 45,-89 21,3h2l-21,-17Z"/>
    <path data-fips-int="26105" data-name="Mason County" d="M1444,2283l-20,-55 44,-59 125,7 3,176 -144,-1 -8,-60 6,-2 -6,-5Z"/>
    <path data-fips-int="26107" data-name="Mecosta County" d="M1940,2351l3,174h-174l-1,-174Z"/>
    <path data-fips-int="26109" data-name="Menominee County" d="M1128,1260v43h15l-3,175h22l-31,71h-1l-33,58 -60,78 6,20 -24,-8 -28,-48 34,-67 -14,-28 -24,23 -46,-3 9,-43 25,-33 -13,-32 21,-12 -17,-26 15,-14 -22,-26h53l2,-87h27v-43Z"/>
    <path data-fips-int="26111" data-name="Midland County" d="M2274,2337l3,129v44l-72,2v8l-87,2 -3,-176h87v-9Z"/>
    <path data-fips-int="26113" data-name="Missaukee County" d="M2019,1998l3,176h-85h-88l-2,-174Z"/>
    <path data-fips-int="26117" data-name="Montcalm County" d="M1943,2525l88,-1 6,174 -175,2v-88l-91,2 -2,-89Z"/>
    <path data-fips-int="26119" data-name="Montmorency County" d="M2359,1817l-172,5 -3,-173h43l129,-7Z"/>
    <path data-fips-int="26121" data-name="Muskegon County" d="M1596,2527v88l91,-1v45h-43v43l-133,1 -21,-58 28,-15h-3l-25,15 -15,-18 -34,-102Z"/>
    <path data-fips-int="26123" data-name="Newaygo County" d="M1768,2351l1,174 2,89h-84l-91,1v-88v-175Z"/>
    <path data-fips-int="26125" data-name="Oakland County" d="M2693,3016l-174,13 -41,4 -15,-177 -1,-44 87,-7 128,-10Z"/>
    <path data-fips-int="26127" data-name="Oceana County" d="M1596,2352v175l-155,-2 -25,-61 2,-45 23,-30 11,-38Z"/>
    <path data-fips-int="26129" data-name="Ogemaw County" d="M2365,1992l6,174 -102,2 -73,3 -5,-174Z"/>
    <path data-fips-int="26131" data-name="Ontonagon County" d="M569,1027l-1,45 -129,-5 3,-87 -130,-5 2,-45 -43,-3 4,-85h-8l36,-26 53,3 74,-8 67,-34 36,-40 56,-5 11,-11 -4,134h23l-1,44 -43,-2Z"/>
    <path data-fips-int="26133" data-name="Osceola County" d="M1849,2174h88l3,177h-172l-3,-175Z"/>
    <path data-fips-int="26135" data-name="Oscoda County" d="M2365,1992l-174,5 -4,-175 172,-5Z"/>
    <path data-fips-int="26137" data-name="Otsego County" d="M2184,1649l3,173 -169,2 -6,-130h44l-1,-45Z"/>
    <path data-fips-int="26139" data-name="Ottawa County" d="M1687,2659l4,219 -157,2 -3,-68 -3,-45 -17,-64 133,-1v-43Z"/>
    <path data-fips-int="26141" data-name="Presque Isle County" d="M2493,1569l3,-2 -3,2 38,32v33l-175,8 -129,7 -8,-216h16h2l28,31 6,27 64,7 46,36 34,7 38,21Z"/>
    <path data-fips-int="26143" data-name="Roscommon County" d="M2191,1997l5,174 -86,2 -88,1 -3,-176Z"/>
    <path data-fips-int="26145" data-name="Saginaw County" d="M2449,2507l4,128 -85,4 1,44 -160,7 -4,-170v-8l72,-2v-44h42v21h80l6,20Z"/>
    <path data-fips-int="26149" data-name="Saint Joseph County" d="M1875,3226l3,156 -184,3 9,-20 -3,-136Z"/>
    <path data-fips-int="26151" data-name="Sanilac County" d="M2841,2386l5,48 26,76 12,115 6,20 -180,14 -4,-64h-43l-1,-20h4l-10,-174Z"/>
    <path data-fips-int="26153" data-name="Schoolcraft County" d="M1652,1000v132l1,138 -19,23 -32,-17 -71,-3 -40,27 -10,58 -34,18h-3v-70h-10l2,-131h-45v-88h87v-87Z"/>
    <path data-fips-int="26155" data-name="Shiawassee County" d="M2369,2683l8,177 -87,5h-75l-6,-170v-5Z"/>
    <path data-fips-int="26157" data-name="Tuscola County" d="M2510,2386l18,-7 2,30 126,-8 10,174h-4l-85,5 3,45 -40,5 -87,5 -4,-128 -3,-56 10,-2Z"/>
    <path data-fips-int="26159" data-name="Van Buren County" d="M1699,3053l1,176h-170l-2,-86h-53l36,-89Z"/>
    <path data-fips-int="26161" data-name="Washtenaw County" d="M2530,3204l-87,5 -134,8 -4,-178 173,-6 41,-4Z"/>
    <path data-fips-int="26165" data-name="Wexford County" d="M1847,2000l2,174 -84,2h-91v-175Z"/>
    <path data-fips-int="26003" data-name="Alger County" d="M1378,972l6,55 -19,-4 -6,-43ZM1652,1000h-174v87h-87v88l-173,-2 1,-170 49,-14 15,31 38,15 29,-20 36,28 57,-66 25,-5 87,-57 20,10 37,-11 40,-7Z"/>
    <path data-fips-int="26007" data-name="Alpena County" d="M2531,1634l28,60 -3,1 3,-1 -19,8 -16,3 -14,24 2,16 7,29 41,35 -201,8 -3,-175Z"/>
    <path data-fips-int="26011" data-name="Arenac County" d="M2485,2161l-4,57h-25l-9,33 -26,-2 -11,4 -19,-5 -25,45h-1h-49l-1,-44 -44,2 -2,-83 102,-2Z"/>
    <path data-fips-int="26029" data-name="Charlevoix County" d="M1925,1571l34,45 13,-9 83,-1v43l1,45h-44l-129,1 -2,-46h-57l4,-28 43,-37ZM1780,1376l6,73 -20,19 -25,-4 3,-53 14,-37Z"/>
    <path data-fips-int="26033" data-name="Chippewa County" d="M2455,1278h-5h-1l-6,-8 -6,-2 -7,-3 -6,3 -46,7 -22,-15 -3,-7 12,-10 1,-2 -1,2v2l51,-24v-13l-10,-20 7,2 37,6 13,34 24,16 -15,32ZM2171,994h3l17,11 5,7 -3,-4 3,4 25,55 6,36 3,-15 19,-5 14,35 -17,17 -13,-27h-2l-22,39 19,16 19,-10 44,23 -14,20 16,22 42,18 -1,24v3v-3h-12h-7h-2l-50,-7h-35h-6l-3,-43h-44v-43l-262,4v-43h-44l-3,-256 99,-10 -24,30 -10,102 13,16 28,-3 44,20 62,-22 13,35 71,-41 4,-4 3,-1ZM2244,979l11,5 -24,54 25,37 -13,5 -25,-32 -18,-49 5,-2 19,-22Z"/>
    <path data-fips-int="26041" data-name="Delta County" d="M1218,1173l173,2h45l-2,131h10v70l-25,3 -20,40 -6,35 -38,-31 36,-59 28,-34 -17,-25 -24,31 -23,-3 -22,-10 -22,71 -50,5 8,-99h2l-2,-5 -33,51 7,37 -21,18 -29,27 -31,50h-22l3,-175h-15v-43h44l2,-87Z"/>
    <path data-fips-int="26047" data-name="Emmet County" d="M1958,1567l29,-26 -40,-5 -22,-24 -9,-49 62,-75 -13,-17 63,5 22,-20 5,250 -83,1 -13,9 -34,-45Z"/>
    <path data-fips-int="26055" data-name="Grand Traverse County" d="M1806,1825h2h20l18,25 1,150 -173,1v-131l62,-2 16,5 22,-53 -12,-11 32,-49 -8,69 -27,49 16,5Z"/>
    <path data-fips-int="26061" data-name="Houghton County" d="M780,653l-6,5h1h-1h-2h2v3l-2,2v-2l-3,3 -5,5v2l5,-7 3,-1 8,3 1,3 -7,25 -25,-10 -16,-5h-15l-4,-2 -6,-3v-48l39,-28h2l70,1v44h24l-4,31 -39,28 -7,30 -21,14h-3l-5,26h-36v44l-44,-2 -6,216 -109,-3 6,-130 43,2 1,-44h-23l4,-134 17,-35 41,-23 39,-37 12,15 -1,33 6,3 19,2 7,5 4,5v35h8l1,2 3,3 3,3 9,9 1,3 -1,-3 -9,-9 -3,-3 25,-60 -1,-3Z"/>
    <path data-fips-int="26063" data-name="Huron County" d="M2728,2206l59,30 35,70 18,70 1,10 -185,15 -126,8 -2,-30 28,-65 43,-63 67,-15 15,-23 34,-12Z"/>
    <path data-fips-int="26083" data-name="Keweenaw County" d="M975,506l39,13 -6,25 -67,5 3,24 -42,23 -36,40 -23,7h-24v-44l-70,-1 28,-40 76,-42 71,-12ZM765,155l-1,2 -5,5v-2h2l-3,2 11,-7 3,-3 17,-7 -20,17 -5,3 -3,2 -2,5 2,-2v-3h3v-2h1l4,-3h5l3,-5 -3,5 -9,3 -1,2 -3,3 -2,2 -23,23v2l-21,26h-1h1l-41,22 -19,-2 -65,37 34,5 -74,33 -36,-11 20,-32 -17,10 1,-7 18,-18 103,-47h5l11,-6 45,-25 -1,1v2l-2,2 -4,3 4,-3 2,-2 1,-2v-1l11,-10 7,-5 -4,5 26,-7 13,-8 5,5 1,-2 2,-3 8,-7h3h2h-2v2l2,-2 -2,2 -3,3Z"/>
    <path data-fips-int="26089" data-name="Leelanau County" d="M1608,1729l-22,-24 2,-28 27,10ZM1736,1868l-62,2 -94,-2 3,-61h29l19,-35 35,15 49,-68 18,-44 32,-26 9,17 -30,23 11,31 -6,74 -16,23Z"/>
    <path data-fips-int="26097" data-name="Mackinac County" d="M2159,1343l21,15 -14,28 -35,-7 -31,-40 56,15ZM2222,1253l2,2 -16,-2 -5,5 -12,-5 -10,2 -4,3 -8,-5 -1,23 -13,-25h10l-19,-6 -5,16 -72,-38 -4,40 -19,15 14,47 -20,5 -28,-27 -57,-55 -68,-20 -46,-22 -66,-1 -48,65h-74l-1,-138 217,-4h44v43l262,-4v43h44Z"/>
    <path data-fips-int="26103" data-name="Marquette County" d="M1108,950l10,4 10,23 9,23 82,3 -1,170h-44l-2,87h-44l-87,-2 3,-131 -175,-4 3,-86 3,-132 43,2 1,-43 -17,-4 1,-71 49,2 41,16 19,28 16,-8 28,32 8,31Z"/>
    <path data-fips-int="26115" data-name="Monroe County" d="M2653,3222l4,2v2l3,3 -29,23 7,20 -29,9v18l-16,8 -22,48 -2,-3 -9,18 2,2 -3,7 -2,1 -105,7 -9,-178 87,-5 91,-7Z"/>
    <path data-fips-int="26147" data-name="Saint Clair County" d="M2846,2948l7,-10 4,-2 8,-1 4,-9 18,10 -18,22h-3l-6,-5 -6,2 -2,1 -2,2 -3,2h-1h1l3,-2 2,-2 2,-1 6,-2 -6,-10ZM2828,2891l-7,-10 -12,-96 -88,7 -11,-133 180,-14 6,23 26,60v2v3l3,4 -9,23 -10,23 6,67 -13,66 -37,5 -5,-25Z"/>
    <path data-fips-int="26163" data-name="Wayne County" d="M2772,3011l-20,48 -24,4 -40,33 -28,93 -3,35 -4,-2 -32,-25 -91,7 -11,-175 174,-13Z"/>
    <path data-fips-int="26025" data-name="Calhoun County" d="M2087,3048l7,176h-44l-175,2 -3,-175 84,-2Z"/>
  </g>
  <path class="mesh" transform="scale(0.1)" d="M768,155h1l3,-3 2,-2 -2,2v-2h2h-2h-3l-8,7 -2,3 -1,2 -5,-5 -13,8 -26,7 4,-5 -7,5 -11,10v1l-1,2 -2,2 -4,3 4,-3 2,-2v-2l1,-1 -45,25 -11,6h-5l-103,47 -18,18 -1,7 17,-10 -20,32 36,11 74,-33 -34,-5 65,-37 19,2 41,-22h-1h1l21,-26v-2l23,-23 2,-2 3,-3 1,-2 9,-3 3,-5 -3,5h-5l-4,3h-1v2h-3v3l-2,2 2,-5 3,-2 5,-3 20,-17 -17,7 -3,3 -11,7 3,-2h-2v2l5,-5 1,-2M1866,872l3,256 -217,4v-132v-93l35,7h90l47,-22h1l41,-20 99,-10 -24,30 -10,102 13,16 28,-3 44,20 62,-22 13,35 71,-41 4,-4 3,-1M1594,2176h80h91l3,175 -172,1 -3,-176h1M2309,3217l134,-8 9,178M2369,2683l-1,-44 85,-4 87,-5 9,175 -87,7 1,44 15,177 -173,6M2721,2792l88,-7 12,96 7,10 -35,17 9,45 -21,2 -15,40v3v1l6,12 -79,5 -16,-221M1674,2001v175M1593,2176l-125,-7 45,-89 21,3h2l-21,-17 4,-50M1596,2527v-175l-144,-1 -8,-60 6,-2 -6,-5v-1l-20,-55 44,-59M1041,1258l87,2v43h15l-3,175h22l-31,71h-1l-33,58 -60,78 6,20M2274,2337h-72v9h-87l-175,5 -3,-177h-88l-2,-174M1771,2614l-2,-89M1687,2659h-43v43l-133,1 -21,-58 28,-15h-3l-25,15 -15,-18 -34,-102 155,2v88l91,-1M2693,3016l-174,13 -41,4M1441,2525l-25,-61 2,-45 23,-30 11,-38M80,934l90,-37 52,-15 45,-40 36,-26 53,3 74,-8 67,-34 36,-40 56,-5 11,-11 -4,134h23l-1,44 -43,-2 -6,130M1765,2176l84,-2M1302,3384l57,-44 27,-28 45,-106 44,-63 36,-89 7,-23 16,-151 -3,-68 -3,-45 -17,-64M2012,1694l6,130 -159,1 -13,25 -18,-25h-20l7,-18 12,-35 6,-75 -9,-48h57l2,46 129,-1M2050,1356l83,55 26,7 34,-4 42,19h2l28,31 6,27 64,7 46,36 34,7 38,21 40,7 3,-2 -3,2 38,32v33l-175,8M2662,2575h4l-10,-174 185,-15 5,48 26,76 12,115 6,20 -180,14M1652,1132l1,138 -19,23 -32,-17 -71,-3 -40,27 -10,58 -34,18h-3v-70h-10l2,-131h-45v-88h87v-87h174M2277,2466l-3,-129 -3,-86 44,-2 1,44h49l-2,25 -1,6 -10,42 14,43 27,30 -2,-17 55,29 10,-2 54,-63 18,-7 2,30 126,-8M2519,3029l11,175 -87,5M780,649v17l1,3 -25,60 3,3 9,9 1,3 -1,-3 -9,-9 -3,-3 -3,-3 -1,-2h-8v-35l-4,-5 -7,-5 -19,-2 -6,-3 1,-33 -12,-15 -39,37 -41,23 -17,35M2200,999l18,49 25,32 13,-5 -25,-37 24,-54 -11,-5 -20,-4 -19,22M2922,2728l-26,-60 -6,-23M872,764l-35,33 53,-13 13,5 -1,71 17,4 -1,43 -43,-2 -3,132 -194,-7 6,-216 44,2v-44h36l-11,78 8,12 28,-55 7,9 40,-39 36,-13M2841,2386l-1,-10 -18,-70 -35,-70 -59,-30 -13,-5 -34,12 -15,23 -67,15 -43,63 -28,65M2560,1809l20,73 -14,46v55l-201,9 -6,-175 201,-8 -41,-35 -7,-29 -2,-16 14,-24 16,-3 19,-8 -3,1 3,-1 -28,-60M2227,1649h-43h-129v-43l-5,-250 -22,20 -63,-5 13,17 -62,75 9,49 22,24 40,5 -29,26M1956,1567l-31,4 -54,13 -43,37 -4,28M2171,994h3l17,11 5,7 -3,-4 3,4 25,55 6,36 3,-15 19,-5 14,35 -17,17 -13,-27h-2l-22,39 19,16 19,-10 44,23 -14,20 16,22 42,18 -1,24v3v-3h-12h-7h-2l-50,-7M1475,3143h53l2,86 -2,156M1878,3382l-3,-156 175,-2 3,156M2228,1253h-6l2,2 -16,-2 -5,5 -12,-5 -10,2 -4,3 -8,-5 -1,23 -13,-25h10l-19,-6 -5,16 -72,-38 -4,40 -19,15 14,47 -20,5 -28,-27 -57,-55 -68,-20 -46,-22 -66,-1 -48,65h-74M1530,3229h170l3,136 -9,20M1444,1376l-25,3 -20,40 -6,35 -38,-31 36,-59 28,-34 -17,-25 -24,31 -23,-3 -22,-10 -22,71 -50,5 8,-99h2l-2,-5 -33,51 7,37 -21,18 -29,27 -31,50M1937,2174h85M2019,1998l-1,-174 169,-2 4,175 -172,1 3,176 88,-1 5,173 3,176 87,-2 4,170v5l6,170 -88,6 -87,2 -3,-175 172,-3M866,1286l3,-163 175,4 -3,131v43h-27l-2,87h-53M2127,2871l4,175 -44,2 -131,1M1953,2875l87,-2M780,653l-6,5h1h-1h-2h2v3l-2,2v-2l-3,3 -5,5v2l5,-7 3,-1 8,3 1,3 -7,25 -25,-10 -16,-5h-15l-4,-2 -6,-3v-48l39,-28h2l28,-40 76,-42 71,-12 51,2 39,13 -6,25 -67,5 3,24 -42,23 -36,40 -23,7 -4,31 -39,28 -7,30 -21,14h-3l-5,26M903,789l49,2 41,16 19,28 16,-8 28,32 8,31 44,60 10,4 10,23 9,23 82,3 49,-14 15,31 38,15 29,-20 36,28 57,-66 25,-5 87,-57 20,10 37,-11 40,-7M2566,1983v88l-38,34 -16,-4 -22,27 -5,33 -114,5 -102,2 2,83M2371,2166l-6,-174M1378,972l-19,8 6,43 19,4 -6,-55M2196,2171l73,-3M267,842h8l-4,85 43,3 -2,45 130,5 -3,87 129,5 -3,118M1866,2876l-4,-176 175,-2 -6,-174 -88,1 -3,-174M2031,2524l87,-2M2215,2865h75l12,174h3l4,178 -87,2 6,185M2050,3224h44l-7,-176M2356,1260l22,15 46,-7 6,-3 7,3 6,2 6,8h1h5h17l15,-32 -24,-16 -13,-34 -37,-6 -7,-2 10,20v13l-51,24v-2l1,-2 -1,2 -12,10 3,7M2094,3224l128,-5M2159,1343l-3,11 -56,-15 31,40 35,7 14,-28 -21,-15M1780,1376l-22,-2 -14,37 -3,53 25,4 20,-19 -6,-73M1608,1729l7,-42 -27,-10 -2,28 22,24M2866,2958l-6,-5 -6,2 -2,1 -2,2 -3,2h-1h1l3,-2 2,-2 2,-1 6,-2 -6,-10 -8,5 7,-10 4,-2 8,-1 4,-9 18,10 -18,22M2922,2730v3l3,4 -9,23 -10,23 6,67 -13,66 -37,5 -5,-25 -29,-5M2302,3039l-171,7M2772,3011l-20,48 -24,4 -40,33 -28,93 -3,35v2l3,3 -29,23 7,20 -29,9v18l-16,8 -22,48 -2,-3 -9,18 2,2 -3,7 -2,1M1391,1175l-173,-2 1,-170M1925,1571l34,45 13,-9 83,-1M2222,1253l-3,-43h-44v-43l-262,4v-43h-44M1128,1260h44l2,-87h44M1674,1870l62,-2M749,598l70,1v44h24M872,1037l-3,86M2530,3204l91,-7 32,25 4,2M1522,2011l2,-11M1943,2525h-174l-1,-174h172M1691,2878h87l88,-2 87,-1 3,174 -84,2 3,175 -175,3 -1,-176M1872,3051h-91M1778,2878l3,173 -82,2 -188,1M1808,1825h-2l-31,58 -16,-5 27,-49 8,-69 -32,49 12,11 -22,53 -16,-5 -3,-51 16,-23 6,-74 -11,-31 30,-23 -9,-17 -32,26 -18,44 -49,68 -35,-15 -19,35h-29l-3,61M2446,2451l3,56 4,128M2449,2507h-44l-6,-20h-80v-21h-42v44l-72,2v8M2235,1433h-16l8,216 129,-7 3,175 -172,5 -3,-173M2463,2856l-86,4 -8,-177 -160,7M2110,2173l86,-2 -5,-174 174,-5M2410,2253M2421,2249M2481,2218M568,1072l1,-45M569,1027l109,3M2019,1998l-172,2M1847,2000l-1,-150M1691,2878l-4,-219M1687,2659v-45M1687,2614h84M1771,2614l91,-2v88M2710,2659l11,133M2721,2792l-44,3M2677,2795l-128,10M2540,2630l40,-5 -3,-45 85,-5M2662,2575l1,20h43l4,64M2290,2865l87,-5M1534,2880l157,-2M2012,1694h44l-1,-45M1674,2001l173,-1M2365,2293h1M2366,2293l25,-45 19,5M2410,2253l11,-4M2421,2249l26,2 9,-33h25M2481,2218l4,-57M1674,1870v131M1674,2001l-150,-1M1524,2000l4,-37 -13,-30 7,-28 46,-12 12,-25M1580,1868l94,2"/>
  <g class="cities">
    <circle r="3" cx="270.9" cy="307.5"/>
    <text x="270.9" y="307.5">Detroit</text>
    <circle r="3" cx="173.3" cy="278.0"/>
    <text x="173.3" y="278.0">Grand Rapids</text>
    <circle r="3" cx="214.5" cy="289.0"/>
    <text x="214.5" y="289.0">Lansing</text>
  </g>
</svg>