<?xml version="1.0" encoding="utf-8"?>
<!DOCTYPE svg PUBLIC "-//W3C//DTD SVG 1.1//EN" "http://www.w3.org/Graphics/SVG/1.1/DTD/svg11.dtd">
<svg version="1.1" xmlns="http://www.w3.org/2000/svg" width="310" height="350" viewBox="0 0 310 350">
  <path class="state" transform="scale(0.1)" d="M711,170M975,506M2356,1260M2455,1278M2846,2948M2228,1253h35h-35M2452,3389l-224,15 -168,8 -7,-32 -175,2 -184,3h-166l-226,-1 -141,-2 47,-254 26,-115 -34,-335 -11,-141 2,-63 15,-102 24,-114 69,-266 38,-114 41,-88 78,-100 63,-51 -181,-107h-117l-31,50 -46,50 -33,19 -14,63 -54,-9 -24,-8 -28,-46 34,-69 -16,-26 -22,21 -46,-5 9,-40 25,-34 -13,-32 21,-12 -17,-26 15,-14 -22,-26 -41,-20 -7,-17 -31,7 -21,-22 21,-21 -14,-29 -25,-16h-36l-30,-22 -14,8 -31,-23 -37,15 -21,-13 -48,-5 -59,-40 -37,-23 -351,-114 -28,-83 -62,-20 -7,-16 160,-325 15,-33 175,-354 50,21 225,-128 104,-28 1187,717 35,126 74,87 28,3 17,-25 55,2 13,-20 34,2 -5,54 15,90 37,45 19,47 44,-34 23,9 36,-12 29,7 50,53 -53,90 388,228 2,13 140,654 42,204 -110,360 4,61 -16,80 -25,30 -28,10 -3,5 -53,76 -85,32 -22,40 4,58 -8,43 16,40 -111,117 -16,1h-3h-1h-5l-105,9"/>
  <g class="counties" transform="scale(0.1)">
    <path data-fips-int="26001" data-name="Alcona County" d="M2560,1809l20,73 -14,46v55l-201,9 -6,-175Z"/>
    <path data-fips-int="26005" data-name="Allegan County" d="M1691,2878h87l3,173 -82,2 -188,1 7,-23 16,-151Z"/>
    <path data-fips-int="26009" data-name="Antrim County" d="M2012,1694l6,130 -159,1 -13,25 -18,-25h-22l21,-53 6,-75 -9,-46h57l2,44Z"/>
    <path data-fips-int="26013" data-name="Baraga County" d="M903,789l-1,71 17,4 -1,43 -43,-2 -3,132 -194,-7 6,-216 44,2v-44h36l-12,60 17,8 67,-63 33,-16 -33,36Z"/>
    <path data-fips-int="26015" data-name="Barry County" d="M1956,3049l-84,2h-91l-3,-173 88,-2 87,-1Z"/>
    <path data-fips-int="26017" data-name="Bay County" d="M2366,2293l-11,91 20,33 71,34 3,56h-44l-6,-20h-80v-21h-42l-3,-129 -3,-86 44,-2 1,44Z"/>
    <path data-fips-int="26019" data-name="Benzie County" d="M1674,1870v131l-150,-1 4,-37 -13,-36 7,-22 55,-18 3,-19Z"/>
    <path data-fips-int="26021" data-name="Berrien County" d="M1530,3229l-2,156 -226,-1 51,-37 33,-36 42,-105 47,-63h53Z"/>
    <path data-fips-int="26023" data-name="Branch County" d="M2050,3224l3,156 -175,2 -3,-156Z"/>
    <path data-fips-int="26027" data-name="Cass County" d="M1700,3229l3,136 -9,20h-166l2,-156Z"/>
    <path data-fips-int="26031" data-name="Cheboygan County" d="M2237,1431h-18l8,218h-43l-129,2v-47l-5,-248 83,55 29,12 37,-7Z"/>
    <path data-fips-int="26035" data-name="Clare County" d="M2022,2174l88,-1 5,173 -175,5 -3,-177Z"/>
    <path data-fips-int="26037" data-name="Clinton County" d="M2209,2695l6,171 -88,4 -87,1 -3,-174Z"/>
    <path data-fips-int="26039" data-name="Crawford County" d="M2187,1822l4,175 -172,1 -1,-174Z"/>
    <path data-fips-int="26043" data-name="Dickinson County" d="M1041,1258v42h-27l-2,89 -53,-1 -41,-20 -7,-17 -31,7 -21,-22 21,-21 -14,-29 3,-163 175,4Z"/>
    <path data-fips-int="26045" data-name="Eaton County" d="M2040,2871l87,-1 4,174 -44,4 -131,1 -3,-174Z"/>
    <path data-fips-int="26049" data-name="Genesee County" d="M2540,2632l9,173 -87,7 1,43 -86,5 -8,-178 -1,-45 85,-2Z"/>
    <path data-fips-int="26051" data-name="Gladwin County" d="M2269,2168l2,83 3,86h-72v9h-87l-5,-173 86,-2Z"/>
    <path data-fips-int="26053" data-name="Gogebic County" d="M568,1072l-3,118 -37,-23 -351,-114 -28,-83 -62,-20 -7,-16 90,-39 41,-6 56,-49h8l-4,87 43,3 -2,45 130,5 -3,87Z"/>
    <path data-fips-int="26057" data-name="Gratiot County" d="M2118,2522l87,-2 4,170v5l-172,2 -6,-173Z"/>
    <path data-fips-int="26059" data-name="Hillsdale County" d="M2222,3219l6,185 -168,8 -7,-32 -3,-156h44Z"/>
    <path data-fips-int="26065" data-name="Ingham County" d="M2290,2865l12,176 -171,3 -4,-174 88,-4Z"/>
    <path data-fips-int="26067" data-name="Ionia County" d="M2037,2697l3,174 -87,4 -87,1 -4,-178Z"/>
    <path data-fips-int="26069" data-name="Iosco County" d="M2566,1983v88l-34,37 -27,-3 -20,56 -114,5 -6,-174Z"/>
    <path data-fips-int="26071" data-name="Iron County" d="M678,1030l194,7 -3,86 -3,163 -25,-16h-36l-30,-22 -14,8 -31,-23 -37,15 -21,-13 -48,-5 -59,-40 3,-118 1,-45Z"/>
    <path data-fips-int="26073" data-name="Isabella County" d="M2118,2522l-87,2 -88,1 -3,-174 175,-5Z"/>
    <path data-fips-int="26075" data-name="Jackson County" d="M2302,3041h3l4,175 -87,3 -128,5 -7,-176 44,-4Z"/>
    <path data-fips-int="26077" data-name="Kalamazoo County" d="M1872,3051l3,175 -175,3 -1,-176 82,-2Z"/>
    <path data-fips-int="26079" data-name="Kalkaska County" d="M2018,1824l1,174 -172,2 -1,-150 13,-25Z"/>
    <path data-fips-int="26081" data-name="Kent County" d="M1862,2698l4,178 -88,2h-87l-4,-219v-45h84l91,-2Z"/>
    <path data-fips-int="26085" data-name="Lake County" d="M1594,2176h80h91l3,175 -172,1Z"/>
    <path data-fips-int="26087" data-name="Lapeer County" d="M2710,2660l11,132 -44,1 -128,12 -9,-173 40,-7 -3,-45 85,-6 1,23 43,-2Z"/>
    <path data-fips-int="26091" data-name="Lenawee County" d="M2452,3389l-224,15 -6,-185 87,-3 134,-7Z"/>
    <path data-fips-int="26093" data-name="Livingston County" d="M2463,2855l15,178 -173,8h-3l-12,-176 87,-5Z"/>
    <path data-fips-int="26095" data-name="Luce County" d="M1866,872l3,256 -217,4v-132v-93l125,7Z"/>
    <path data-fips-int="26099" data-name="Macomb County" d="M2828,2891l-35,17 9,40 -25,8 -5,55 -79,5 -16,-223 44,-1 88,-7 9,96Z"/>
    <path data-fips-int="26101" data-name="Manistee County" d="M1674,2001v175h-80l-126,-7 47,-96 6,-58 3,-15Z"/>
    <path data-fips-int="26105" data-name="Mason County" d="M1594,2176l2,176 -144,-1 -3,-63 -5,-5 -20,-55 44,-59Z"/>
    <path data-fips-int="26107" data-name="Mecosta County" d="M1940,2351l3,174h-174l-1,-174Z"/>
    <path data-fips-int="26109" data-name="Menominee County" d="M1128,1260v43h15l-3,175h22l-65,129 -57,72 3,26 -24,-8 -28,-46 34,-69 -16,-26 -22,21 -46,-5 9,-40 25,-34 -13,-32 21,-12 -17,-26 15,-14 -22,-26 53,1 2,-89h27v-42Z"/>
    <path data-fips-int="26111" data-name="Midland County" d="M2274,2337l3,129v44l-72,2v8l-87,2 -3,-176h87v-9Z"/>
    <path data-fips-int="26113" data-name="Missaukee County" d="M2019,1998l3,176h-85h-88l-2,-174Z"/>
    <path data-fips-int="26117" data-name="Montcalm County" d="M1943,2525l88,-1 6,173 -175,1v-86l-91,2 -2,-89Z"/>
    <path data-fips-int="26119" data-name="Montmorency County" d="M2359,1817l-172,5 -3,-173h43l129,-7Z"/>
    <path data-fips-int="26121" data-name="Muskegon County" d="M1596,2527v88l91,-1v45h-43v43l-133,1 -24,-54 34,-19 -37,17 -29,-75 -14,-47Z"/>
    <path data-fips-int="26123" data-name="Newaygo County" d="M1768,2351l1,174 2,89h-84l-91,1v-88v-175Z"/>
    <path data-fips-int="26125" data-name="Oakland County" d="M2693,3016l-174,12 -41,5 -15,-178 -1,-43 87,-7 128,-12Z"/>
    <path data-fips-int="26127" data-name="Oceana County" d="M1596,2352v175l-155,-2 -25,-61 2,-45 31,-45 3,-23Z"/>
    <path data-fips-int="26129" data-name="Ogemaw County" d="M2365,1992l6,174 -102,2 -73,3 -5,-174Z"/>
    <path data-fips-int="26131" data-name="Ontonagon County" d="M569,1027l-1,45 -129,-5 3,-87 -130,-5 2,-45 -43,-3 4,-87h-8l36,-24 53,1 74,-8 67,-32 36,-40 56,-3 11,-13 -4,134h23l-1,44 -44,1Z"/>
    <path data-fips-int="26133" data-name="Osceola County" d="M1849,2174h88l3,177h-172l-3,-175Z"/>
    <path data-fips-int="26135" data-name="Oscoda County" d="M2365,1992l-174,5 -4,-175 172,-5Z"/>
    <path data-fips-int="26137" data-name="Otsego County" d="M2184,1649l3,173 -169,2 -6,-130h44l-1,-43Z"/>
    <path data-fips-int="26139" data-name="Ottawa County" d="M1687,2659l4,219 -157,2 -6,-113 -17,-64 133,-1v-43Z"/>
    <path data-fips-int="26141" data-name="Presque Isle County" d="M2531,1634l-175,8 -129,7 -8,-218h18l47,70 51,-3 55,41 20,-7 33,27 59,13 29,29Z"/>
    <path data-fips-int="26143" data-name="Roscommon County" d="M2191,1997l5,174 -86,2 -88,1 -3,-176Z"/>
    <path data-fips-int="26145" data-name="Saginaw County" d="M2449,2507l4,128 -85,2 1,45 -160,8 -4,-170v-8l72,-2v-44h42v21h80l6,20Z"/>
    <path data-fips-int="26149" data-name="Saint Joseph County" d="M1875,3226l3,156 -184,3 9,-20 -3,-136Z"/>
    <path data-fips-int="26151" data-name="Sanilac County" d="M2890,2645l-180,15 -4,-65 -43,2 -1,-23h4l-10,-173 185,-15 11,71 20,53 7,90Z"/>
    <path data-fips-int="26153" data-name="Schoolcraft County" d="M1652,1000v132l1,138 -17,25 -52,-24 -53,2 -40,25 -10,61 -37,17v-70h-10l2,-131h-45v-88h87v-87Z"/>
    <path data-fips-int="26155" data-name="Shiawassee County" d="M2369,2682l8,178 -87,5 -75,1 -6,-171v-5Z"/>
    <path data-fips-int="26157" data-name="Tuscola County" d="M2528,2379l2,30 126,-8 10,173h-4l-85,6 3,45 -40,7 -87,3 -4,-128 -3,-56 16,-5 48,-70Z"/>
    <path data-fips-int="26159" data-name="Van Buren County" d="M1699,3053l1,176h-170l-2,-86h-53l36,-89Z"/>
    <path data-fips-int="26161" data-name="Washtenaw County" d="M2530,3204l-87,5 -134,7 -4,-175 173,-8 41,-5Z"/>
    <path data-fips-int="26165" data-name="Wexford County" d="M1847,2000l2,174 -84,2h-91v-175Z"/>
    <path data-fips-int="26003" data-name="Alger County" d="M1378,972l10,53 -23,-2 -4,-44ZM1652,1000h-174v87h-87v88l-173,-2 1,-170 49,-14 15,31 38,15 29,-20 36,28 57,-66 53,-20 59,-42 20,10 77,-18Z"/>
    <path data-fips-int="26007" data-name="Alpena County" d="M2531,1634l26,33 2,27 -49,35 11,46 39,34 -201,8 -3,-175Z"/>
    <path data-fips-int="26011" data-name="Arenac County" d="M2485,2161l-4,57 -38,15 4,18 -54,-3 -27,45h-50l-1,-44 -44,2 -2,-83 102,-2Z"/>
    <path data-fips-int="26029" data-name="Charlevoix County" d="M1925,1571l34,46 13,-10 83,-3v47l1,43h-44l-129,1 -2,-44h-57l7,-35 40,-32ZM1780,1376l6,73 -20,19 -29,-9 21,-85Z"/>
    <path data-fips-int="26033" data-name="Chippewa County" d="M2455,1278l-25,-13 -27,10 -6,-4 -41,-11 59,-52 -16,-18 51,6 15,39 22,11 -27,35ZM2238,1082l17,10 -8,38 -20,-27ZM2202,999l25,-24 28,12 -22,33 26,62 -41,-34ZM2172,994l19,8 30,65 16,60 -25,10 10,26 36,-8 33,21 -14,17 16,25 42,18v25l-35,4 -37,-12h-35h-6l-3,-43h-44v-43l-262,4v-43h-44l-3,-256 99,-10 -24,30 -10,102 13,16 30,-3 35,20 69,-22 13,35Z"/>
    <path data-fips-int="26041" data-name="Delta County" d="M1218,1173l173,2h45l-2,131h10v70l-25,5 -32,42 6,31 -30,-16 -5,-30 14,-5 47,-73 -17,-25 -24,31 -23,-2 -22,-11 -22,71 -36,9 -9,16 -11,-81 20,-25 -4,-18 -35,49v40l-37,35 -37,59h-22l3,-175h-15v-43h44l2,-87Z"/>
    <path data-fips-int="26047" data-name="Emmet County" d="M2050,1356l5,248 -83,3 -13,10 -34,-46 37,-2 25,-28 -43,-9 -19,-20 -9,-49 19,-32 42,-35 -12,-25 63,5Z"/>
    <path data-fips-int="26055" data-name="Grand Traverse County" d="M1806,1825h22l18,25 1,150 -173,1v-131l62,-2 16,5 22,-53 6,-53 14,-7 -8,69 -27,49 16,5Z"/>
    <path data-fips-int="26061" data-name="Houghton County" d="M709,641l-3,33 38,10 -2,35 27,23 -5,30h-36v44l-44,-2 -6,216 -109,-3 5,-127 44,-1 1,-44h-23l4,-134 17,-37 41,-23 26,-27ZM843,643l-7,31 -36,28 -7,32 -21,12 2,-4 -2,4 -16,-17 25,-45 -1,-33 -6,41 -66,-18v-50l39,-26 72,1v44Z"/>
    <path data-fips-int="26063" data-name="Huron County" d="M2840,2377l1,9 -185,15 -126,8 -2,-30 43,-95 28,-33 67,-15 15,-23 38,-14 68,37 50,105Z"/>
    <path data-fips-int="26083" data-name="Keweenaw County" d="M975,506l39,13 8,24 -41,10 -44,-2 6,25 -38,18 -39,42 -23,7h-24v-44l-72,-1 30,-42 76,-40 71,-12ZM711,170l31,-6 30,-10 -13,6 13,-6 -35,53 -54,35 -39,5 -54,41 31,2 -71,28 -36,-11 4,-30 21,-17 100,-47Z"/>
    <path data-fips-int="26089" data-name="Leelanau County" d="M1608,1729l-22,-24 2,-28 27,10ZM1736,1868l-62,2 -94,-2 3,-61h29l19,-35 35,15 20,-18 55,-107 33,4 -24,13 5,43 -22,45 17,-7 -19,77Z"/>
    <path data-fips-int="26097" data-name="Mackinac County" d="M2102,1339l79,22 -15,25 -31,-3ZM2222,1253l-44,-5 6,25 -26,-5 8,-20 -97,-25 -4,40 -19,17 14,45 -17,5 -91,-84 -111,-40 -66,-1 -48,65h-74l-1,-138 217,-4h44v43l262,-4v43h44Z"/>
    <path data-fips-int="26103" data-name="Marquette County" d="M1108,950l17,40 36,17 58,-4 -1,170h-44l-2,87h-44l-87,-2 3,-131 -175,-4 3,-86 3,-132 43,2 1,-43 -17,-4 1,-71 49,2 56,26 4,18 44,24 5,25Z"/>
    <path data-fips-int="26115" data-name="Monroe County" d="M2657,3226l-19,46 -29,7v23l-34,33 -18,45 -105,9 -9,-180 87,-5 91,-7Z"/>
    <path data-fips-int="26147" data-name="Saint Clair County" d="M2846,2948l23,-22 21,4 -24,28ZM2828,2891l-10,-10 -9,-96 -88,7 -11,-132 180,-15 37,100 -21,38 6,57 -13,76 -37,5 -9,-26Z"/>
    <path data-fips-int="26163" data-name="Wayne County" d="M2772,3011l-4,23 -80,62 -23,70 -8,60 -36,-29 -91,7 -11,-176 174,-12Z"/>
    <path data-fips-int="26025" data-name="Calhoun County" d="M2087,3048l7,176h-44l-175,2 -3,-175 84,-2Z"/>
  </g>
  <path class="mesh" transform="scale(0.1)" d="M1302,3384l51,-37 33,-36 42,-105 47,-63h53l2,86 -2,156M1878,3382l-3,-156 175,-2 3,156M1530,3229h170l3,136 -9,20M2019,1998l3,176 88,-1 5,173 -175,5 -3,-177h85M1778,2878l88,-2 -4,-178 175,-1 -6,-173 87,-2 87,-2 4,170v5l6,171 -88,4 -87,1 -3,-174 172,-2M866,1286l3,-163 175,4 -3,131v42h-27l-2,89 -53,-1M1866,2876l87,-1 87,-4M2110,2173l86,-2 73,-3 2,83M80,934l90,-39 41,-6 56,-49h8l-4,87 43,3 -2,45 130,5 -3,87 129,5 -3,118M2050,3224h44l128,-5 6,185M2215,2866l75,-1 12,176 -171,3M1652,907l-77,18 -20,-10 -59,42 -53,20 -57,66 -36,-28 -29,20 -38,-15 -15,-31 -49,14 -58,4 -36,-17 -17,-40 -47,-66 -5,-25 -44,-24 -4,-18 -56,-26 -49,-2 -1,71 17,4 -1,43 -43,-2 -3,132 -3,86M1943,2525h-174l-1,-174h172M2274,2337h-72v9h-87l3,176M2302,3041h3l4,175 -87,3M2094,3224l-7,-176M1691,2878l-4,-219v-45h84l91,-2v86M2540,2632l9,173 -87,7 1,43 -86,5 -8,-178 -1,-45 85,-2 87,-3 40,-7 -3,-45 85,-6 1,23 43,-2 4,65 11,132 -44,1 -128,12M2309,3216l134,-7 9,180M2463,2855l15,178 -173,8M2290,2865l87,-5M2263,1253l37,12 35,-4v-25l-42,-18 -16,-25 14,-17 -33,-21 -36,8 -10,-26 25,-10 -16,-60 -30,-65 -19,-8 -81,46 -13,-35 -69,22 -35,-20 -30,3 -13,-16 10,-102 24,-30 -99,10 3,256 -217,4v-132v-93l125,7 89,-42M2721,2792l88,-7 9,96 10,10 -35,17 9,40 -25,8 -5,55 -79,5 -16,-223M1674,2001v175M1594,2176h80h91l3,175 -172,1 -2,-176 -126,-7 47,-96 6,-58 3,-15M1596,2527v-175l-144,-1 -3,-63 -5,-5 -20,-55 44,-59M1041,1258l87,2v43h15l-3,175h22l-65,129 -57,72 3,26M2277,2466v44l-72,2v8M1674,2001l173,-1M1771,2614l-2,-89M2566,1983l-201,9 -6,-175 -172,5 4,175 -172,1 -1,-174 169,-2 -3,-173M1687,2659h-43v43l-133,1 -24,-54 34,-19 -37,17 -29,-75 -14,-47 155,2v88l91,-1M2196,2171l-5,-174 174,-5M2693,3016l-174,12 -41,5M1441,2525l-25,-61 2,-45 31,-45 3,-23M2371,2166l-102,2M267,840l36,-24 53,1 74,-8 67,-32 36,-40 56,-3 11,-13 -4,134h23l-1,44 -44,1 -5,127M1765,2176l84,-2M2012,1694h44l-1,-43M1534,2880l157,-2h87l3,173 -82,2 -188,1 7,-23 16,-151 -6,-113 -17,-64M2237,1431h-18l8,218h-43l-129,2v-47l-5,-248 83,55 29,12 37,-7 38,15 47,70 51,-3 55,41 20,-7 33,27 59,13 29,29v33l-175,8M2449,2507l4,128M2369,2682l-160,8M2662,2574h4l-10,-173 185,-15 11,71 20,53 7,90 11,45 -180,15M1652,1132l1,138 -17,25 -52,-24 -53,2 -40,25 -10,61 -37,17v-70h-10l2,-131h-45v-88h87v-87h174M2446,2451l16,-5 48,-70 18,3 2,30 126,-8M2519,3028l11,176 -87,5M2557,3380l18,-45 34,-33v-23l29,-7 19,-46 8,-60 23,-70 80,-62 4,-23M2828,2891l25,4 9,26 37,-5 13,-76 -6,-57 21,-38 -37,-100M2841,2386l-1,-9 -3,-36 -50,-105 -68,-37 -38,14 -15,23 -67,15 -28,33 -43,95M2366,2293l-11,91 20,33 71,34 3,56h-44l-6,-20h-80v-21h-42l-3,-129 -3,-86 44,-2 1,44h50l27,-45 54,3 -4,-18 38,-15 4,-57M2560,1809l-39,-34 -11,-46 49,-35 -2,-27 -26,-33M1806,1825l21,-53 6,-75 -9,-46h57l2,44 129,-1 6,130 -159,1 -13,25 -18,-25h-22l-31,58 -16,-5 27,-49 8,-69 -14,7 -6,53 -22,53 -16,-5 -5,-31 19,-77 -17,7 22,-45 -5,-43 24,-13 -33,-4 -55,107 -20,18 -35,-15 -19,35h-29l-3,61M1162,1478l37,-59 37,-35v-40l35,-49 4,18 -20,25 11,81 9,-16 36,-9 22,-71 22,11 23,2 24,-31 17,25 -47,73 -14,5 5,30 30,16 -6,-31 32,-42 25,-5M1653,1270h74l48,-65 66,1 111,40 91,84 17,-5 -14,-45 19,-17 4,-40 97,25 -8,20 26,5 -6,-25 44,5h6M872,1037l-194,-7 6,-216 44,2v-44h36l5,-30 -27,-23 2,-35 -38,-10 3,-33 -25,-7 -26,27 -41,23 -17,37M711,170l-72,43 -100,47 -21,17 -4,30 36,11 71,-28 -31,-2 54,-41 39,-5 54,-35 35,-53 -13,6 13,-6 -30,10 -31,6M764,772l-12,60 17,8 67,-63 33,-16 -33,36 67,-8M2127,2870l4,174 -44,4 -131,1 -84,2 3,175 -175,3 -1,-176M1872,3051h-91M975,506l-51,-2 -71,12 -76,40 -30,42 -39,26v50l66,18 6,-41 1,33 -25,45 16,17 2,-4 -2,4 21,-12 7,-32 36,-28 7,-31 23,-7 39,-42 38,-18 -6,-25 44,2 41,-10 -8,-24 -39,-13M1378,972l-17,7 4,44 23,2 -10,-53M2202,999l16,49 41,34 -26,-62 22,-33 -28,-12 -25,24M2238,1082l-11,21 20,27 8,-38 -17,-10M1953,2875l3,174M2356,1260l41,11 6,4 27,-10 25,13 5,3 27,-35 -22,-11 -15,-39 -51,-6 16,18 -59,52M2102,1339l33,44 31,3 15,-25 -79,-22M1780,1376l-22,-2 -21,85 29,9 20,-19 -6,-73M1608,1729l7,-42 -27,-10 -2,28 22,24M2846,2948l20,10 24,-28 -21,-4 -23,22M1391,1175l-173,-2 1,-170M1925,1571l34,46 13,-10 83,-3M2222,1253l-3,-43h-44v-43l-262,4v-43h-44M1128,1260h44l2,-87h44M1674,1870v131l-150,-1 4,-37 -13,-36 7,-22 55,-18 3,-19 94,2 62,-2M747,598l72,1v44h24M2530,3204l91,-7 36,29M568,1072l1,-45 109,3M2031,2524l-88,1 -3,-174M1937,2174h-88l-2,-174M2227,1649l129,-7 3,175 201,-8 20,73 -14,46v55v88l-34,37 -27,-3 -20,56 -114,5 -6,-174M1475,3143l36,-89M2050,1356l-22,20 -63,-5 12,25 -42,35 -19,32 9,49 19,20 43,9 -25,28 -37,2 -54,13 -40,32 -7,35M2019,1998l-172,2M1847,2000l-1,-150"/>
  <g class="cities">
    <circle r="3" cx="270.9" cy="307.5"/>
    <text x="270.9" y="307.5">Detroit</text>
    <circle r="3" cx="173.3" cy="278.0"/>
    <text x="173.3" y="278.0">Grand Rapids</text>
    <circle r="3" cx="214.5" cy="289.0"/>
    <text x="214.5" y="289.0">Lansing</text>
  </g>
</svg>