<?xml version="1.0" encoding="utf-8"?>
<!DOCTYPE svg PUBLIC "-//W3C//DTD SVG 1.1//EN" "http://www.w3.org/Graphics/SVG/1.1/DTD/svg11.dtd">
<svg version="1.1" xmlns="http://www.w3.org/2000/svg" width="304" height="350" viewBox="0 0 304 350">
  <path class="state" transform="scale(0.1)" d="M2392,2279l-4,65 -10,10 21,50 75,35h12l53,-75 17,2 28,-63 42,-65 70,-15 39,-37 61,20 24,20 39,73 15,73 2,50 29,87 10,100 8,25 8,34 26,44 -17,93 6,36 -25,80 -37,-11 7,-20 -30,-7 -39,23 10,39 -32,25 4,36 -8,32 -67,40 -24,38 -16,105 -20,46 -32,14v21l-34,35 -15,43 -106,7 -227,17 -168,8 -9,-32 -176,2 -187,3h-167h-227l39,-28 46,-50 42,-103 46,-63 35,-92 9,-25 15,-149 -7,-115 -17,-67 -58,-126 -14,-52 -26,-68 3,-36 31,-49 5,-23 -13,-68 -17,-55 46,-58 44,-92 9,-81 6,-40 -13,-33 13,-25 46,-14 7,-21 1,-63 29,1 20,-36 45,11 26,-58 19,-13 23,-50 32,2 -31,29 12,29 -23,50 17,-10 -17,58 3,50 17,5 22,-53 4,-54 16,-8 -9,70 -26,50 17,5 31,-58 17,-40 9,-90 -9,-47 4,-31 61,-49 37,-3 49,-5 18,-15 -48,-17 -29,-66 18,-33 44,-40 -16,-24 68,5 22,-21 4,10 87,55 49,-5 49,18 28,32 10,31 70,5 37,33h35l39,30 40,5 39,35v32l24,35 8,45 -22,-14 -29,17 3,48 46,45 22,73 -13,45 -2,59 -1,89 -32,34 -29,-2 -20,58 -3,58 -24,-1 -10,33 -55,2ZM911,761l50,3 53,23 3,17 49,27 3,26 40,58 26,19v30l36,18 60,-3 47,-17 12,30 43,18 32,-20 34,32 56,-72 42,-11 75,-50 19,10 76,-19 124,7 94,-43 98,-7 -25,35 6,112 55,3 9,13 72,-21 13,34 87,-46 13,12 31,63 16,51 -25,17 10,28 26,-10 45,25 -16,18 59,64 -32,10 -40,-17h-35h-1h-6h-55l-10,15 -83,-45 -12,42 -17,16 -4,52 -60,-45 -27,-37 -50,-23 -39,-5 -61,-22 -37,7 -46,65 -74,-2 -17,25 -56,-23 -52,3 -38,27 -10,60 -39,16 -24,4 -33,45 4,31 -38,-35 51,-60 16,-31 -19,-27 -23,32 -46,-12 3,27 -25,43 -50,10 -7,-65 20,-21 -6,-24 -33,55 6,33 -48,44 -33,56 -22,60 -24,30 -43,77 -54,56 -29,-46 35,-72 -14,-28 -23,23 -49,-7 10,-36 26,-37 -12,-31 17,-24v-30l-23,-28 -42,-17 -8,-21 -29,10 -22,-17 23,-31 -15,-25 -26,-17h-36l-29,-20 -18,7 -31,-24 -35,15 -57,-23 -13,5 -61,-40 -35,-23 -219,-68 -137,-47 -31,-85 -36,-10 -32,-25 27,-20 107,-26 55,-47 20,-21 39,-12 32,10 69,-10 76,-37 32,-36 20,3 48,-20 11,-28 95,-70 2,52 39,10 1,36 23,23 -7,29 -12,53 10,35 22,-35 58,-50 31,-15 -34,37ZM1392,949l1,36 -13,15 -8,-46ZM1787,1356l14,18 3,54 -17,18 -29,-3 17,-90ZM2381,1236l28,-33 32,-7 -17,-31 49,3 19,42 17,3 -10,40h-19l-24,-13 -19,8ZM2258,1055l29,33 -17,15 -22,-30ZM2249,949l29,10 -24,53 29,45 -19,-4 -45,-74ZM850,614l-24,52 -21,10 -28,50 -15,-24 -6,-46 -43,-12v-48l40,-27 32,-43 72,-36 59,-14 67,2 46,17 -9,18 -78,13 8,22 -39,18 -35,38ZM716,137l55,-5 -35,28 6,13 -49,34 -42,5 -56,35 29,11 -84,32 -26,-15 15,-40 40,-23 101,-40ZM1637,1707l-35,-20 3,-28 28,10ZM2130,1318l75,20 -13,21 -38,-1ZM2876,2940l29,-22 22,3 -23,30Z"/>
  <g class="counties" transform="scale(0.1)">
    <path data-fips-int="26001" data-name="Alcona County" d="M2588,1790l22,73 -13,45 -2,59 -204,8 -6,-176Z"/>
    <path data-fips-int="26005" data-name="Allegan County" d="M1712,2873l88,-2 3,177 -84,1h-190l9,-25 15,-149Z"/>
    <path data-fips-int="26009" data-name="Antrim County" d="M2033,1675l6,132 -161,2 -13,23 -18,-23h-21l17,-40 9,-90 -9,-47h59v43Z"/>
    <path data-fips-int="26013" data-name="Baraga County" d="M911,761l-2,76h19l-2,43h-43l-3,132 -197,-5 7,-220 43,2 2,-45 33,2 -12,53 10,35 22,-35 58,-50 31,-15 -34,37Z"/>
    <path data-fips-int="26015" data-name="Barry County" d="M1980,3046l-85,2h-92l-3,-177 88,-1 88,-2Z"/>
    <path data-fips-int="26017" data-name="Bay County" d="M2392,2279l-4,65 -10,10 21,50 75,35 2,57 -43,1v-21l-87,1 -1,-21h-44l-3,-132 -1,-86 45,5v36Z"/>
    <path data-fips-int="26019" data-name="Benzie County" d="M1692,1853v134l-153,-2 6,-40 -13,-33 13,-25 46,-14 7,-21Z"/>
    <path data-fips-int="26021" data-name="Berrien County" d="M1548,3227v158h-227l39,-28 46,-50 42,-103 46,-63h54Z"/>
    <path data-fips-int="26023" data-name="Branch County" d="M2075,3219l3,161 -176,2 -3,-158Z"/>
    <path data-fips-int="26027" data-name="Cass County" d="M1722,3227l1,140 -8,18h-167v-158Z"/>
    <path data-fips-int="26031" data-name="Cheboygan County" d="M2260,1411h-16l7,218h-43h-131v-43l-6,-253 4,10 87,55 49,-5Z"/>
    <path data-fips-int="26035" data-name="Clare County" d="M2045,2161l89,-1 5,174 -178,5 -1,-178Z"/>
    <path data-fips-int="26037" data-name="Clinton County" d="M2235,2687l6,173 -90,3 -87,3 -3,-176Z"/>
    <path data-fips-int="26039" data-name="Crawford County" d="M2211,1804l4,178 -173,1 -3,-176Z"/>
    <path data-fips-int="26043" data-name="Dickinson County" d="M1052,1235l-2,45h-27l-1,89 -54,-3 -42,-17 -8,-21 -29,10 -22,-17 23,-31 -15,-25 2,-165 178,3Z"/>
    <path data-fips-int="26045" data-name="Eaton County" d="M2064,2866l87,-3 5,180h-43l-133,3 -4,-178Z"/>
    <path data-fips-int="26049" data-name="Genesee County" d="M2568,2622l10,175 -88,8 3,43 -88,5 -9,-178 -1,-45 87,-3Z"/>
    <path data-fips-int="26051" data-name="Gladwin County" d="M2294,2155l3,83 1,86 -72,2 -10,8h-77l-5,-174 87,-4Z"/>
    <path data-fips-int="26053" data-name="Gogebic County" d="M573,1048l-4,120 -35,-23 -219,-68 -137,-47 -31,-85 -36,-10 -32,-25 27,-20 107,-26 55,-47h8l-4,87 43,3 -1,43 130,5 -2,88Z"/>
    <path data-fips-int="26057" data-name="Gratiot County" d="M2141,2512l88,-2 5,172 1,5 -174,3 -8,-176Z"/>
    <path data-fips-int="26059" data-name="Hillsdale County" d="M2249,3217l6,187 -168,8 -9,-32 -3,-161h43Z"/>
    <path data-fips-int="26065" data-name="Ingham County" d="M2317,2858l12,176 -173,9 -5,-180 90,-3Z"/>
    <path data-fips-int="26067" data-name="Ionia County" d="M2061,2690l3,176 -88,2 -88,2 -3,-177Z"/>
    <path data-fips-int="26069" data-name="Iosco County" d="M2595,1967l-1,89 -32,34 -29,-2 -20,58 -117,5 -5,-176Z"/>
    <path data-fips-int="26071" data-name="Iron County" d="M683,1007l197,5 -3,88 -2,165 -26,-17h-36l-29,-20 -18,7 -31,-24 -35,15 -57,-23 -13,5 -61,-40 4,-120 2,-45Z"/>
    <path data-fips-int="26073" data-name="Isabella County" d="M2141,2512l-88,2 -87,1 -5,-176 178,-5Z"/>
    <path data-fips-int="26075" data-name="Jackson County" d="M2329,3034h3l5,182 -88,1 -131,2 -5,-176h43Z"/>
    <path data-fips-int="26077" data-name="Kalamazoo County" d="M1895,3048l4,176 -177,3 -3,-178 84,-1Z"/>
    <path data-fips-int="26079" data-name="Kalkaska County" d="M2039,1807l3,176 -174,2 -3,-153 13,-23Z"/>
    <path data-fips-int="26081" data-name="Kent County" d="M1885,2693l3,177 -88,1 -88,2 -6,-223v-45l85,-1 92,-2Z"/>
    <path data-fips-int="26085" data-name="Lake County" d="M1611,2163l81,2 93,-2 3,176 -174,2Z"/>
    <path data-fips-int="26087" data-name="Lapeer County" d="M2742,2650l9,133 -45,2 -128,12 -10,-175 40,-7 -3,-46 87,-4 1,22 45,-2Z"/>
    <path data-fips-int="26091" data-name="Lenawee County" d="M2482,3387l-227,17 -6,-187 88,-1 134,-12Z"/>
    <path data-fips-int="26093" data-name="Livingston County" d="M2493,2848l14,180 -175,6h-3l-12,-176 88,-5Z"/>
    <path data-fips-int="26095" data-name="Luce County" d="M1885,844l4,259 -220,4 -2,-133v-94l124,7Z"/>
    <path data-fips-int="26099" data-name="Macomb County" d="M2861,2883l-39,23 10,39 -32,25 4,36 -80,5 -18,-226 45,-2 92,-6 7,98Z"/>
    <path data-fips-int="26101" data-name="Manistee County" d="M1692,1987v178l-81,-2 -125,-5 44,-92 9,-81Z"/>
    <path data-fips-int="26105" data-name="Mason County" d="M1611,2163l3,178 -144,-2 -13,-68 -17,-55 46,-58Z"/>
    <path data-fips-int="26107" data-name="Mecosta County" d="M1961,2339l5,176 -176,2 -2,-178Z"/>
    <path data-fips-int="26109" data-name="Menominee County" d="M1140,1236l-2,45h16l-3,177 22,1 -22,60 -24,30 -43,77 -54,56 -29,-46 35,-72 -14,-28 -23,23 -49,-7 10,-36 26,-37 -12,-31 17,-24v-30l-23,-28 54,3 1,-89h27l2,-45Z"/>
    <path data-fips-int="26111" data-name="Midland County" d="M2298,2324l3,132 2,44 -74,2v8l-88,2 -2,-178h77l10,-8Z"/>
    <path data-fips-int="26113" data-name="Missaukee County" d="M2042,1983l3,178h-85h-91l-1,-176Z"/>
    <path data-fips-int="26117" data-name="Montcalm County" d="M1966,2515l87,-1 8,176 -176,3 -2,-91 -92,2 -1,-87Z"/>
    <path data-fips-int="26119" data-name="Montmorency County" d="M2385,1799l-174,5 -3,-175h43l131,-7Z"/>
    <path data-fips-int="26121" data-name="Muskegon County" d="M1614,2519l1,86h91v45h-43l1,43h-135l-58,-126 -14,-52Z"/>
    <path data-fips-int="26123" data-name="Newaygo County" d="M1788,2339l2,178 1,87 -85,1h-91l-1,-86v-178Z"/>
    <path data-fips-int="26125" data-name="Oakland County" d="M2724,3011l-175,13 -42,4 -14,-180 -3,-43 88,-8 128,-12Z"/>
    <path data-fips-int="26127" data-name="Oceana County" d="M1614,2341v178l-157,-4 -26,-68 3,-36 31,-49 5,-23Z"/>
    <path data-fips-int="26129" data-name="Ogemaw County" d="M2391,1975l5,176 -102,4 -73,1 -6,-174Z"/>
    <path data-fips-int="26131" data-name="Ontonagon County" d="M575,1003l-2,45 -131,-5 2,-88 -130,-5 1,-43 -43,-3 4,-87h-8l20,-21 39,-12 32,10 69,-10 76,-37 32,-36 20,3 48,-20 -3,135 23,2 -2,43 -43,-2Z"/>
    <path data-fips-int="26133" data-name="Osceola County" d="M1869,2161h91l1,178h-173l-3,-176Z"/>
    <path data-fips-int="26135" data-name="Oscoda County" d="M2391,1975l-176,7 -4,-178 174,-5Z"/>
    <path data-fips-int="26137" data-name="Otsego County" d="M2208,1629l3,175 -172,3 -6,-132h45l-1,-46Z"/>
    <path data-fips-int="26139" data-name="Ottawa County" d="M1706,2650l6,223 -159,2 -7,-115 -17,-67h135l-1,-43Z"/>
    <path data-fips-int="26141" data-name="Presque Isle County" d="M2558,1614l-176,8 -131,7 -7,-218h16l28,32 10,31 70,5 37,33h35l39,30 40,5 39,35Z"/>
    <path data-fips-int="26143" data-name="Roscommon County" d="M2215,1982l6,174 -87,4 -89,1 -3,-178Z"/>
    <path data-fips-int="26145" data-name="Saginaw County" d="M2476,2496l6,131 -87,3 1,45 -162,7 -5,-172v-8l74,-2 -2,-44h44l1,21 87,-1v21Z"/>
    <path data-fips-int="26149" data-name="Saint Joseph County" d="M1899,3224l3,158 -187,3 8,-18 -1,-140Z"/>
    <path data-fips-int="26151" data-name="Sanilac County" d="M2923,2634l-181,16 -4,-65 -45,2 -1,-22h6l-12,-178 188,-15 2,50 29,87 10,100Z"/>
    <path data-fips-int="26153" data-name="Schoolcraft County" d="M1667,974l2,133 1,139 -17,25 -56,-23 -52,3 -38,27 -10,60 -39,16v-71h-8v-131l-45,-2v-88l88,1v-89Z"/>
    <path data-fips-int="26155" data-name="Shiawassee County" d="M2396,2675l9,178 -88,5 -76,2 -6,-173 -1,-5Z"/>
    <path data-fips-int="26157" data-name="Tuscola County" d="M2556,2366l2,31 128,-10 12,178h-6l-87,4 3,46 -40,7 -86,5 -6,-131 -2,-57h12l53,-75Z"/>
    <path data-fips-int="26159" data-name="Van Buren County" d="M1719,3049l3,178h-174v-86h-54l35,-92Z"/>
    <path data-fips-int="26161" data-name="Washtenaw County" d="M2559,3201l-88,3 -134,12 -5,-182 175,-6 42,-4Z"/>
    <path data-fips-int="26165" data-name="Wexford County" d="M1868,1985l1,176 -84,2 -93,2v-178Z"/>
    <path data-fips-int="26003" data-name="Alger County" d="M1667,974h-174v89l-88,-1v88h-176l2,-171 47,-17 12,30 43,18 32,-20 34,32 56,-72 42,-11 75,-50 19,10 76,-19ZM1392,949l1,36 -13,15 -8,-46Z"/>
    <path data-fips-int="26007" data-name="Alpena County" d="M2558,1614l24,35 8,45 -22,-14 -29,17 3,48 46,45 -203,9 -3,-177Z"/>
    <path data-fips-int="26011" data-name="Arenac County" d="M2513,2146l-3,58 -24,-1 -10,33 -55,2 -29,41h-50v-36l-45,-5 -3,-83 102,-4Z"/>
    <path data-fips-int="26029" data-name="Charlevoix County" d="M1945,1549l34,47 14,-9 84,-1v43l1,46h-45h-131v-43h-59l4,-31 61,-49ZM1787,1356l14,18 3,54 -17,18 -29,-3 17,-90Z"/>
    <path data-fips-int="26033" data-name="Chippewa County" d="M2381,1236l28,-33 32,-7 -17,-31 49,3 19,42 17,3 -10,40h-19l-24,-13 -19,8ZM2213,979l31,63 16,51 -25,17 10,28 26,-10 45,25 -16,18 59,64 -32,10 -40,-17h-35h-1h-6l-3,-43 -44,1v-43l-264,4 -2,-44h-43l-4,-259 98,-7 -25,35 6,112 55,3 9,13 72,-21 13,34 87,-46ZM2258,1055l29,33 -17,15 -22,-30ZM2249,949l29,10 -24,53 29,45 -19,-4 -45,-74Z"/>
    <path data-fips-int="26041" data-name="Delta County" d="M1229,1150h176l45,2v131h8v71l-24,4 -33,45 4,31 -38,-35 51,-60 16,-31 -19,-27 -23,32 -46,-12 3,27 -25,43 -50,10 -7,-65 20,-21 -6,-24 -33,55 6,33 -48,44 -33,56 -22,-1 3,-177h-16l2,-45 43,2 1,-88Z"/>
    <path data-fips-int="26047" data-name="Emmet County" d="M2071,1333l6,253 -84,1 -14,9 -34,-47 49,-5 18,-15 -48,-17 -29,-66 18,-33 44,-40 -16,-24 68,5Z"/>
    <path data-fips-int="26055" data-name="Grand Traverse County" d="M1826,1809h21l18,23 3,153 -176,2v-134l62,-1 17,5 22,-53 4,-54 16,-8 -9,70 -26,50 17,5Z"/>
    <path data-fips-int="26061" data-name="Houghton County" d="M850,614l-24,52 -21,10 -28,50 -15,-24 -6,-46 -43,-12v-48l40,-27 74,2 -1,43ZM768,746l-33,-2 -2,45 -43,-2 -7,220 -108,-4 4,-131 43,2 2,-43 -23,-2 3,-135 11,-28 95,-70 2,52 39,10 1,36 23,23Z"/>
    <path data-fips-int="26063" data-name="Huron County" d="M2874,2372l-188,15 -128,10 -2,-31 28,-63 42,-65 70,-15 39,-37 61,20 24,20 39,73Z"/>
    <path data-fips-int="26083" data-name="Keweenaw County" d="M983,478l46,17 -9,18 -78,13 8,22 -39,18 -35,38 -26,10h-24l1,-43 -74,-2 32,-43 72,-36 59,-14ZM716,137l55,-5 -35,28 6,13 -49,34 -42,5 -56,35 29,11 -84,32 -26,-15 15,-40 40,-23 101,-40Z"/>
    <path data-fips-int="26089" data-name="Leelanau County" d="M1754,1852l-62,1 -94,-1 1,-63 29,1 20,-36 45,11 26,-58 19,-13 23,-50 32,2 -31,29 12,29 -23,50 17,-10 -17,58ZM1637,1707l-35,-20 3,-28 28,10Z"/>
    <path data-fips-int="26097" data-name="Mackinac County" d="M2245,1228h-55l-10,15 -83,-45 -12,42 -17,16 -4,52 -60,-45 -27,-37 -50,-23 -39,-5 -61,-22 -37,7 -46,65 -74,-2 -1,-139 220,-4h43l2,44 264,-4v43l44,-1ZM2130,1318l75,20 -13,21 -38,-1Z"/>
    <path data-fips-int="26103" data-name="Marquette County" d="M1231,979l-2,171h-45l-1,88 -43,-2 -88,-1 3,-132 -178,-3 3,-88 3,-132h43l2,-43h-19l2,-76 50,3 53,23 3,17 49,27 3,26 40,58 26,19v30l36,18Z"/>
    <path data-fips-int="26115" data-name="Monroe County" d="M2689,3221l-20,46 -32,14v21l-34,35 -15,43 -106,7 -11,-183 88,-3 93,-7Z"/>
    <path data-fips-int="26147" data-name="Saint Clair County" d="M2861,2883l-11,-8 -7,-98 -92,6 -9,-133 181,-16 8,34 26,44 -17,93 6,36 -25,80 -37,-11 7,-20ZM2876,2940l29,-22 22,3 -23,30Z"/>
    <path data-fips-int="26163" data-name="Wayne County" d="M2804,3006l-8,32 -67,40 -24,38 -16,105 -37,-27 -93,7 -10,-177 175,-13Z"/>
    <path data-fips-int="26025" data-name="Calhoun County" d="M2113,3043l5,176h-43l-176,5 -4,-176 85,-2Z"/>
  </g>
  <path class="mesh" transform="scale(0.1)" d="M2595,1967l-204,8 -6,-176 203,-9M1553,2875l159,-2 88,-2 3,177 -84,1h-190M1843,1632h59v43h131l6,132 -161,2 -13,23 -18,-23h-21M911,761l-2,76h19l-2,43h-43l-3,132 -197,-5 7,-220 43,2 2,-45 33,2M1800,2871l88,-1 88,-2 4,178 -85,2h-92M2474,2439l2,57 -43,1v-21l-87,1 -1,-21h-44l-3,-132 -1,-86 45,5v36h50M1598,1852l94,1v134l-153,-2M1494,3141h54v86v158M1902,3382l-3,-158 176,-5 3,161M1548,3227h174l1,140 -8,18M2260,1411h-16l7,218h-43h-131v-43l-6,-253M2042,1983l3,178 89,-1 5,174 -178,5 -1,-178h85M1888,2870l-3,-177 176,-3 -8,-176 88,-2 88,-2 5,172 1,5 6,173 -90,3 -87,3 -3,-176 174,-3M875,1265l2,-165 178,3 -3,132 -2,45h-27l-1,89 -54,-3M2151,2863l5,180h-43l-133,3M1976,2868l88,-2M2134,2160l87,-4 73,-1 3,83M268,817h8l-4,87 43,3 -1,43 130,5 -2,88 131,5 -4,120M2075,3219h43l131,-2 6,187M2241,2860l76,-2 12,176 -173,9M2221,2156l-6,-174 176,-7M880,1012l-3,88M573,1048l2,-45 108,4M1966,2515l-176,2 -2,-178h173M2298,2324l-72,2 -10,8h-77l2,178M2329,3034h3l5,182 -88,1M2118,3219l-5,-176M1895,3048l4,176 -177,3 -3,-178M2042,1983l-174,2 -3,-153M1712,2873l-6,-223v-45l85,-1 92,-2 2,91M2568,2622l10,175 -88,8 3,43 -88,5 -9,-178 -1,-45 87,-3 86,-5 40,-7 -3,-46 87,-4 1,22 45,-2 4,65 9,133 -45,2 -128,12M2337,3216l134,-12 11,183M2493,2848l14,180 -175,6M2317,2858l88,-5M1885,844l4,259 -220,4 -2,-133v-94M2804,3006l-80,5 -18,-226M2751,2783l92,-6 7,98 11,8M1692,1987v178M1611,2163l81,2 93,-2 3,176 -174,2 -3,-178 -125,-5M1614,2519v-178l-144,-2M1052,1235l88,1 -2,45h16l-3,177 22,1M2301,2456l2,44 -74,2v8M1692,1987l176,-2M1791,2604l-1,-87M2251,1629l131,-7 3,177 -174,5 4,178 -173,1 -3,-176 172,-3 -3,-175M1457,2515l157,4 1,86h91M1706,2650h-43l1,43h-135M2724,3011l-175,13 -42,4M2396,2151l-102,4M604,694l-3,135 23,2 -2,43 -43,-2 -4,131M1785,2163l84,-2M2033,1675h45l-1,-46M2558,1614l-176,8M2476,2496l6,131M2396,2675l-162,7M2923,2634l-181,16M2692,2565h6l-12,-178 188,-15M1669,1107l1,139M1458,1354v-71h-8v-131l-45,-2v-88l88,1v-89h174M2556,2366l2,31 128,-10M2549,3024l10,177 -88,3M1405,1150h-176l2,-171M1945,1549l34,47 14,-9 84,-1M2245,1228l-3,-43 -44,1v-43l-264,4 -2,-44h-43M1140,1236l43,2 1,-88h45M1692,1853l62,-1M753,569l74,2 -1,43h24M2559,3201l93,-7 37,27M2513,2146l-117,5 -5,-176M2053,2514l-87,1 -5,-176M1960,2161h-91l-1,-176"/>
  <g class="cities">
    <circle r="3" cx="274.1" cy="307.0"/>
    <text x="274.1" y="307.0">Detroit</text>
    <circle r="3" cx="175.4" cy="277.4"/>
    <text x="175.4" y="277.4">Grand Rapids</text>
    <circle r="3" cx="217.0" cy="288.4"/>
    <text x="217.0" y="288.4">Lansing</text>
  </g>
</svg>