<?xml version="1.0" encoding="utf-8"?>
<!DOCTYPE svg PUBLIC "-//W3C//DTD SVG 1.1//EN" "http://www.w3.org/Graphics/SVG/1.1/DTD/svg11.dtd">
<svg version="1.1" xmlns="http://www.w3.org/2000/svg" width="310" height="350" viewBox="0 0 310 350">
  <defs>
    <pattern id="pattern-no-results" width="50" height="50" patternUnits="userSpaceOnUse">
      <rect width="50" height="50" fill="#ddd"/>
      <path d="M-5,5L5,-5M-5,55L55,-5M45,55L55,45" stroke-width="10" stroke="#666666"/>
    </pattern>
  </defs>
  <g class="counties" transform="scale(0.1)">
    <path data-fips-int="26001" data-name="Alcona County" d="M2561,1809l10,25 0,26 1,10 9,12 -6,31 -8,20 1,21 3,15 -4,14 -83,4 -36,0 -83,4 -4,-89 -2,-86 53,-1 69,-4Z"/>
    <path data-fips-int="26005" data-name="Allegan County" d="M1691,2878l88,-1 0,49 2,60 0,65 -82,2 -42,0 -43,1 -104,0 10,-34 5,-41 3,-11 -1,-25 4,-10 4,-25 -1,-29 3,0 147,0Z"/>
    <path data-fips-int="26009" data-name="Antrim County" d="M2012,1694l1,44 2,0 1,44 2,42 -76,1 -84,1 -11,4 3,16 -4,4 -5,-8 -11,-2 -3,-14 -21,0 17,-39 6,-33 -2,-24 6,-31 -6,-17 0,-15 -4,-16 59,0 0,44 69,-1Z"/>
    <path data-fips-int="26013" data-name="Baraga County" d="M902,789l-1,74 18,0 -1,43 -43,0 -3,130 -194,-5 3,-110 1,-15 2,-92 44,1 1,-44 35,1 -10,27 -3,28 7,21 -6,2 -8,13 7,4 10,-5 6,-15 18,-21 -5,-13 10,-6 6,8 18,-20 21,-16 34,-18 4,2 -8,12 -24,18 -7,8 -10,23 -1,8 13,-22 19,-18 18,-2 16,-5Z"/>
    <path data-fips-int="26015" data-name="Barry County" d="M1956,3050l-84,1 -91,0 0,-65 -2,-60 0,-49 87,-1 87,-2 0,54 1,56Z"/>
    <path data-fips-int="26017" data-name="Bay County" d="M2366,2292l-3,25 -2,39 -10,12 7,26 13,20 16,10 8,11 -3,-12 45,17 9,11 2,56 -43,1 0,-22 -38,1 -48,0 0,-21 -43,0 -1,-79 -2,-50 -2,-86 44,-1 2,43Z"/>
    <path data-fips-int="26019" data-name="Benzie County" d="M1674,1870l-1,5 0,126 -81,0 -67,-2 4,-18 -1,-18 -12,-36 1,-16 3,-4 23,-8 10,-7 16,1 8,-7 4,-18 59,0Z"/>
    <path data-fips-int="26021" data-name="Berrien County" d="M1529,3228l0,90 -1,67 -190,0 -35,-1 27,-19 28,-22 2,-4 25,-27 12,-24 9,-27 23,-47 1,-8 13,-14 24,-33 9,-16 53,-1Z"/>
    <path data-fips-int="26023" data-name="Branch County" d="M2050,3223l3,95 0,62 -97,2 -78,1 -2,-155 0,-2 36,-1Z"/>
    <path data-fips-int="26027" data-name="Cass County" d="M1701,3229l1,54 1,82 -10,11 1,9 -166,0 1,-67 0,-90 37,1Z"/>
    <path data-fips-int="26031" data-name="Cheboygan County" d="M2237,1432l-17,1 4,98 1,70 2,10 0,37 -42,1 -52,1 -78,0 -1,-44 0,-74 -1,-50 -1,-51 -2,-76 3,11 14,5 5,6 29,14 10,2 29,27 22,1 -6,-5 6,-3 11,6 18,-5 23,10 20,5Z"/>
    <path data-fips-int="26035" data-name="Clare County" d="M2023,2174l87,-1 3,103 1,70 -73,2 -24,1 -77,1 -2,-58 0,-61 -1,-57Z"/>
    <path data-fips-int="26037" data-name="Clinton County" d="M2209,2695l2,66 2,51 1,55 0,2 -26,2 -61,0 -87,2 -2,-96 -1,-79 46,0Z"/>
    <path data-fips-int="26039" data-name="Crawford County" d="M2187,1822l2,94 2,81 -21,-1 -82,1 -68,2 -2,-77 0,-98 71,-1 43,-1Z"/>
    <path data-fips-int="26043" data-name="Dickinson County" d="M1042,1258l-1,43 -28,0 -2,88 -52,-1 -8,-15 -12,-4 -20,1 -10,-8 0,-12 -29,8 -11,-7 -1,-6 -10,-8 24,-27 -10,-3 -5,-21 1,-105 2,-58 65,1 109,3Z"/>
    <path data-fips-int="26045" data-name="Eaton County" d="M2040,2873l87,-2 0,34 2,68 2,73 -44,2 -87,0 -44,2 -2,-66 -1,-56 0,-54 39,0Z"/>
    <path data-fips-int="26049" data-name="Genesee County" d="M2539,2632l4,73 0,17 5,82 0,3 -87,5 3,44 -44,3 -43,1 -5,-81 0,-30 -3,-67 -2,-43 87,-4Z"/>
    <path data-fips-int="26051" data-name="Gladwin County" d="M2269,2168l2,83 2,86 -72,1 0,7 -87,1 -1,-70 -3,-103 87,-2Z"/>
    <path data-fips-int="26053" data-name="Gogebic County" d="M568,1071l-4,118 -34,-21 -55,-17 -103,-34 -33,-10 -117,-38 -45,-16 1,-12 -5,-6 -13,-35 -3,-14 -10,-18 -18,-2 0,-7 -15,1 3,-10 -10,-10 -5,8 -15,2 -7,-16 29,-21 11,3 10,-5 40,-14 23,-3 24,-9 17,-15 20,-14 13,-15 9,1 -2,21 -2,66 42,2 -2,44 130,5 -4,86 108,5Z"/>
    <path data-fips-int="26057" data-name="Gratiot County" d="M2117,2522l33,-1 54,-1 2,89 3,81 0,5 -126,3 -46,0 -1,-88 -4,0 -1,-87Z"/>
    <path data-fips-int="26059" data-name="Hillsdale County" d="M2223,3219l2,99 3,85 -123,6 -44,3 -1,-32 -7,0 0,-62 -3,-95 44,1 21,-2Z"/>
    <path data-fips-int="26065" data-name="Ingham County" d="M2290,2864l2,14 6,84 1,16 2,63 -83,2 0,1 -87,2 -2,-73 -2,-68 0,-34 61,0 26,-2 0,-2Z"/>
    <path data-fips-int="26067" data-name="Ionia County" d="M2037,2698l1,79 2,96 -48,1 -39,0 -87,2 -3,-71 0,-105 83,-2Z"/>
    <path data-fips-int="26069" data-name="Iosco County" d="M2567,1983l1,14 -2,30 3,9 -4,18 1,17 -11,3 -18,20 -8,14 -9,-6 -15,2 -11,15 -9,42 -59,3 -55,2 -3,-82 -3,-93 83,-4 36,0Z"/>
    <path data-fips-int="26071" data-name="Iron County" d="M678,1031l194,5 -2,87 -2,58 -1,105 -28,-16 -5,4 -9,-2 -4,-8 -16,6 -30,-21 -12,8 -14,-13 -14,2 -3,-12 -10,-2 -19,8 -3,-6 -7,14 -19,0 -4,-14 -21,-6 -11,5 -1,-9 -13,6 -11,-10 -49,-31 4,-118 2,-44Z"/>
    <path data-fips-int="26073" data-name="Isabella County" d="M2117,2522l-86,1 -88,2 -2,-109 -1,-66 77,-1 24,-1 73,-2 1,66Z"/>
    <path data-fips-int="26075" data-name="Jackson County" d="M2301,3041l4,0 2,76 0,63 2,38 -86,1 -108,3 -21,2 -1,-43 -4,-46 -2,-87 44,-2 87,-2 0,-1Z"/>
    <path data-fips-int="26077" data-name="Kalamazoo County" d="M1872,3051l2,132 2,43 -73,1 -39,1 -63,1 -2,-68 0,-108 82,-2Z"/>
    <path data-fips-int="26079" data-name="Kalkaska County" d="M2018,1824l0,98 2,77 -62,1 -111,0 0,-48 -1,-37 0,-65 4,-4 -3,-16 11,-4 84,-1Z"/>
    <path data-fips-int="26081" data-name="Kent County" d="M1863,2700l0,105 3,71 -87,1 -88,1 0,-81 -2,-46 -2,-93 0,-44 83,-1 91,-1Z"/>
    <path data-fips-int="26085" data-name="Lake County" d="M1594,2176l79,1 92,-1 2,93 1,82 -69,1 -103,0 -2,-69Z"/>
    <path data-fips-int="26087" data-name="Lapeer County" d="M2710,2660l8,80 2,50 -14,3 -29,2 -79,6 -50,3 -5,-82 0,-17 -4,-73 0,-6 40,-2 -3,-43 86,-6 1,22 43,-2Z"/>
    <path data-fips-int="26091" data-name="Lenawee County" d="M2452,3389l-147,10 -77,4 -3,-85 -2,-99 86,-1 46,-2 3,-3 84,-5 3,50 1,38Z"/>
    <path data-fips-int="26093" data-name="Livingston County" d="M2464,2856l4,60 10,116 -32,3 -97,5 -44,1 -4,0 -2,-63 -1,-16 -6,-84 -2,-14 87,-4 43,-1Z"/>
    <path data-fips-int="26095" data-name="Luce County" d="M1867,873l0,124 1,34 2,98 -100,1 -118,1 0,-88 0,-43 -1,-93 35,6 43,-1 17,2 27,0 10,-3 40,-19 2,0 -2,0 2,0 24,-14Z"/>
    <path data-fips-int="26099" data-name="Macomb County" d="M2827,2891l-19,11 0,4 -13,2 -7,10 -1,10 8,5 7,21 -17,-3 -7,5 -10,20 -2,27 6,9 -21,0 -58,5 -10,-132 -3,-33 -3,-57 29,-2 14,-3 58,-2 32,-3 8,96Z"/>
    <path data-fips-int="26101" data-name="Manistee County" d="M1673,2001l0,57 0,93 0,26 -79,-1 -53,-2 -19,-2 -53,-2 10,-17 6,-19 5,-6 9,-21 13,-19 2,-9 9,4 16,-2 -14,-10 -12,7 6,-26 -1,-28 4,-11 3,-14 67,2Z"/>
    <path data-fips-int="26105" data-name="Mason County" d="M1594,2176l0,107 2,69 -77,0 -66,-2 0,-11 -6,-25 1,-20 8,-2 -11,-9 -8,-19 -11,-18 -3,-15 3,-8 21,-16 8,-8 14,-29 53,2 19,2Z"/>
    <path data-fips-int="26107" data-name="Mecosta County" d="M1940,2350l1,66 2,109 -83,0 -2,0 -88,1 -1,-62 -1,-113 114,0Z"/>
    <path data-fips-int="26109" data-name="Menominee County" d="M1129,1259l-1,43 15,1 -3,175 22,0 -16,39 -9,12 2,9 -11,14 -6,12 -6,4 -1,10 -13,16 -3,12 -35,47 -16,14 -7,10 -5,18 8,10 -26,-7 -4,-14 -21,-19 -2,-12 5,-6 13,-42 16,-23 -3,-14 -13,-12 -21,21 -12,-3 -18,4 -11,-6 -6,2 14,-29 -4,-12 20,-19 5,-13 -5,-20 -9,-11 12,-1 9,-19 -7,-9 -9,-21 15,-10 -9,-9 -2,-8 -12,-5 52,1 2,-88 28,0 1,-43Z"/>
    <path data-fips-int="26111" data-name="Midland County" d="M2273,2337l2,50 1,79 1,44 -73,2 0,8 -54,1 -33,1 -2,-110 -1,-66 87,-1 0,-7Z"/>
    <path data-fips-int="26113" data-name="Missaukee County" d="M2020,1999l-2,51 3,51 0,29 2,44 -86,0 -89,1 -2,-91 1,-84 111,0Z"/>
    <path data-fips-int="26117" data-name="Montcalm County" d="M1943,2525l88,-2 1,87 4,0 1,88 -91,0 -83,2 -2,-88 -91,1 0,-87 88,-1 2,0Z"/>
    <path data-fips-int="26119" data-name="Montmorency County" d="M2359,1816l-92,4 -41,0 -39,2 -1,-24 0,-87 -1,-62 42,-1 86,-2 44,-3 0,28 2,58 -4,0Z"/>
    <path data-fips-int="26121" data-name="Muskegon County" d="M1596,2527l0,87 91,0 0,44 -43,0 0,44 -47,1 -86,0 -17,-41 -8,-14 4,-2 5,9 12,-4 13,-13 -2,-7 -16,10 -13,-5 3,8 -6,3 -25,-56 -6,-18 -13,-48 35,0 50,2Z"/>
    <path data-fips-int="26123" data-name="Newaygo County" d="M1768,2351l1,113 1,62 0,87 -83,1 -91,0 0,-87 -1,-105 1,-70 103,0Z"/>
    <path data-fips-int="26125" data-name="Oakland County" d="M2693,3017l-97,6 -77,6 -41,3 -10,-116 -4,-60 -3,-44 87,-5 0,-3 50,-3 79,-6 3,57 3,33Z"/>
    <path data-fips-int="26127" data-name="Oceana County" d="M1596,2352l-1,70 1,105 -69,0 -50,-2 -35,0 -5,-18 -21,-45 -3,-29 7,-17 25,-33 7,-20 1,-13 66,2Z"/>
    <path data-fips-int="26129" data-name="Ogemaw County" d="M2365,1991l3,93 3,82 -57,2 -45,0 -72,3 -6,-174 101,-3Z"/>
    <path data-fips-int="26131" data-name="Ontonagon County" d="M570,1027l-2,44 -22,0 -108,-5 4,-86 -130,-5 2,-44 -42,-2 2,-66 2,-21 -9,-1 14,-14 22,-11 38,-5 15,8 41,-10 27,2 32,-12 46,-26 14,-20 17,-15 18,4 15,-7 4,4 20,-7 10,-11 -2,78 -3,56 24,0 -1,43 -43,-2 -4,88Z"/>
    <path data-fips-int="26133" data-name="Osceola County" d="M1848,2175l89,-1 1,57 0,61 2,58 -58,1 -114,0 -1,-82 -2,-93Z"/>
    <path data-fips-int="26135" data-name="Oscoda County" d="M2365,1991l-73,3 -101,3 -2,-81 -2,-94 39,-2 41,0 92,-4 2,86Z"/>
    <path data-fips-int="26137" data-name="Otsego County" d="M2185,1649l1,62 0,87 1,24 -55,0 -43,1 -71,1 -2,-42 -1,-44 -2,0 -1,-44 43,0 0,-44 78,0Z"/>
    <path data-fips-int="26139" data-name="Ottawa County" d="M1687,2658l2,93 2,46 0,81 -7,1 -147,0 -3,0 -1,-50 -5,-60 -9,-43 -8,-23 86,0 47,-1 0,-44Z"/>
    <path data-fips-int="26141" data-name="Presque Isle County" d="M2531,1635l-46,1 -47,3 -28,0 -53,4 -44,3 -86,2 0,-37 -2,-10 -1,-70 -4,-98 17,-1 24,28 7,28 9,9 14,3 6,-4 15,3 20,-2 10,3 21,22 18,12 20,6 10,-6 7,9 24,15 20,8 11,-6 18,10 0,-11 5,7 -4,6 10,2 6,10 24,20 -3,7 -10,-1Z"/>
    <path data-fips-int="26143" data-name="Roscommon County" d="M2191,1997l6,174 -87,2 -87,1 -2,-44 0,-29 -3,-51 2,-51 68,-2 82,-1Z"/>
    <path data-fips-int="26145" data-name="Saginaw County" d="M2448,2507l4,79 2,49 -87,4 2,43 -39,2 -46,4 -75,2 -3,-81 -2,-89 0,-8 73,-2 -1,-44 43,0 0,21 48,0 38,-1 0,22Z"/>
    <path data-fips-int="26149" data-name="Saint Joseph County" d="M1876,3226l0,2 2,155 -138,2 -46,0 -1,-9 10,-11 -1,-82 -1,-54 63,-1 39,-1Z"/>
    <path data-fips-int="26151" data-name="Sanilac County" d="M2891,2645l-122,11 -59,4 -4,-65 -43,2 -1,-22 6,0 -6,-93 -6,-82 79,-6 41,-3 65,-6 5,38 -1,5 7,31 13,31 6,25 4,23 -1,17 3,8 0,13 4,19 1,22Z"/>
    <path data-fips-int="26153" data-name="Schoolcraft County" d="M1652,1000l0,43 0,88 1,139 -10,0 -10,9 0,15 -12,-9 -17,-7 -21,-6 -20,0 -10,6 -15,-5 -9,1 -5,8 -16,2 -2,8 -9,2 -8,27 3,6 -8,10 -2,22 -17,-2 -8,2 -5,16 -7,1 1,-70 -11,0 0,-44 0,-88 -44,0 1,-1 0,-86 87,0 0,-87Z"/>
    <path data-fips-int="26155" data-name="Shiawassee County" d="M2369,2682l3,67 0,30 5,81 -87,4 -76,3 -1,-55 -2,-51 -2,-66 0,-5 75,-2 46,-4Z"/>
    <path data-fips-int="26157" data-name="Tuscola County" d="M2528,2380l0,-1 0,1 1,29 109,-7 18,-2 6,82 6,93 -6,0 -86,6 3,43 -40,2 0,6 -85,3 -2,-49 -4,-79 -2,-56 12,-1 14,-16 26,-33 12,-25 4,18 6,-1Z"/>
    <path data-fips-int="26159" data-name="Van Buren County" d="M1699,3053l0,108 2,68 -135,0 -37,-1 0,-86 -53,1 17,-36 9,-22 8,-31 104,0 43,-1Z"/>
    <path data-fips-int="26161" data-name="Washtenaw County" d="M2530,3204l-88,4 -84,5 -3,3 -46,2 -2,-38 0,-63 -2,-76 44,-1 97,-5 32,-3 41,-3 4,46 3,74Z"/>
    <path data-fips-int="26165" data-name="Wexford County" d="M1847,2000l-1,84 2,91 -83,1 -92,1 0,-26 0,-93 0,-57 108,0Z"/>
    <path data-fips-int="26000" data-name="null" d="M2205,997l13,-20 10,-3 6,6 17,-2 7,13 -11,43 2,23 13,25 -5,4 2,23 6,6 -3,8 12,27 25,18 0,16 11,7 8,23 18,-2 26,-30 23,7 36,-11 30,7 50,53 -55,90 389,228 2,13 139,654 43,203 -92,297 -3,6 5,11 -6,13 -9,13 -5,20 2,16 -4,24 6,23 -5,14 1,8 -9,28 1,13 -5,15 -29,31 -13,-2 -10,12 -3,5 -52,77 -43,15 -5,4 -22,6 -16,6 -12,14 -11,27 -1,32 5,25 -8,42 16,43 -74,77 -36,38 -15,1 -3,1 -2,0 -4,0 -1,0 4,-16 5,0 -2,-12 5,5 9,18 -7,-25 2,-13 8,-4 11,-23 11,-3 6,-7 2,-15 10,-14 14,5 4,-17 -8,-8 11,3 13,-13 3,-17 4,1 -3,-23 6,-36 8,-21 2,-25 6,-4 7,-20 14,-17 18,-8 16,-12 15,-1 11,-13 10,-34 -6,-9 2,-27 10,-20 7,-5 17,3 -7,-21 -8,-5 1,-10 7,-10 13,-2 0,-4 19,-11 9,-2 10,7 12,1 1,7 -8,14 7,-1 24,5 7,6 9,-10 1,-23 7,-23 0,-10 6,-14 -6,-21 4,-23 -1,-25 5,-18 12,-15 -2,-17 0,-6 -25,-45 -8,-33 -9,-28 -1,-22 -4,-19 0,-13 -3,-8 1,-17 -4,-23 -6,-25 -13,-31 -7,-31 1,-5 -5,-38 -4,-41 -4,-7 -5,-22 -9,-18 -9,-8 -1,-12 -16,-24 -4,-13 -13,-12 -6,0 -12,-12 -22,-5 -17,-12 -9,5 -5,-3 -13,12 -11,0 -8,20 -8,4 -15,-2 -11,9 -41,8 -3,11 -9,13 -7,6 -14,3 11,7 1,7 -22,21 -3,14 -14,21 -10,24 0,1 -8,13 -6,1 -4,-18 -12,25 -26,33 -14,16 -12,1 -9,-11 -45,-17 3,12 -8,-11 -16,-10 -13,-20 -7,-26 10,-12 2,-39 3,-25 6,-8 6,-19 14,-18 11,6 14,0 6,-10 15,2 9,6 -4,-19 15,-15 10,-2 14,4 -4,-18 8,-11 -1,-29 9,-42 11,-15 15,-2 9,6 8,-14 18,-20 11,-3 -1,-17 4,-18 -3,-9 2,-30 -1,-14 4,-14 -3,-15 -1,-21 8,-20 6,-31 -9,-12 -1,-10 0,-26 -10,-25 1,-11 -14,-3 -15,-8 -3,-7 -11,-7 -4,-9 -1,-15 -7,-8 4,-7 0,-13 5,-10 20,-12 5,9 12,11 25,8 -5,-12 -14,-4 0,-17 -4,3 4,-3 4,-3 -10,-26 -2,2 -13,-15 -7,-17 -12,-25 10,1 3,-7 -24,-20 -6,-10 -10,-2 4,-6 -5,-7 0,11 -18,-10 -11,6 -20,-8 -24,-15 -7,-9 -10,6 -20,-6 -18,-12 -21,-22 -10,-3 -20,2 -15,-3 -6,4 -14,-3 -9,-9 -7,-28 -24,-28 -3,-3 -20,-5 -23,-10 -18,5 -11,-6 -6,3 6,5 -22,-1 -29,-27 -10,-2 -29,-14 -5,-6 -14,-5 -3,-11 -15,0 -6,4 5,7 -10,11 -11,1 -16,-5 -8,4 -9,-6 -19,1 16,16 0,8 -11,14 -5,0 -9,16 -21,11 -15,31 4,27 7,18 19,22 41,6 2,14 -25,13 -17,4 -21,-2 -15,-4 -15,7 -10,1 -19,20 -23,9 -4,7 -12,11 -5,16 0,14 4,16 0,15 6,17 -6,31 2,24 -6,33 -17,39 -7,18 -13,10 -2,18 -7,11 -18,-6 5,-13 1,-17 18,-15 3,-9 3,-25 1,-22 7,-3 -3,-13 -16,8 -4,20 -11,20 13,0 -2,12 -8,8 -15,46 -15,-5 2,-13 -6,-15 1,-23 9,-24 6,-5 2,-28 -13,12 -5,-4 5,-13 12,-11 4,-17 8,7 0,-9 -12,-17 -5,-18 8,-12 8,0 11,-10 3,-8 -4,-10 -6,0 -10,14 -12,-3 -19,34 -3,15 -6,8 -17,11 -11,21 0,16 -12,16 -21,4 -10,-12 -12,-3 -11,19 -3,9 -8,8 -16,-8 -11,9 2,42 -3,17 -4,18 -8,7 -16,-1 -10,7 -23,8 -3,4 -1,16 12,36 1,18 -4,18 -3,14 -4,11 1,28 -6,26 12,-7 14,10 -16,2 -9,-4 -2,9 -13,19 -9,21 -5,6 -6,19 -10,17 -14,29 -8,8 -21,16 -3,8 3,15 11,18 8,19 11,9 -8,2 -1,20 6,25 0,11 -1,13 -7,20 -25,33 -7,17 3,29 21,45 5,18 13,48 6,18 25,56 6,-3 -3,-8 13,5 16,-10 2,7 -13,13 -12,4 -5,-9 -4,2 8,14 17,41 8,23 9,43 5,60 1,50 1,29 -4,25 -4,10 1,25 -3,11 -5,41 -10,34 -8,31 -9,22 -17,36 -9,16 -24,33 -13,14 -1,8 -23,47 -9,27 -12,24 -25,27 -2,4 -28,22 -27,19 -143,-1 55,-290 20,-78 -17,-164 -17,-173 -6,-46 -6,-64 0,-31 3,-64 9,-69 5,-32 21,-99 35,-144 17,-66 20,-72 26,-79 24,-62 17,-37 13,-23 24,-37 24,-30 29,-30 63,-54 -180,-106 -118,0 -30,50 -46,49 -34,19 -13,64 -54,-10 -8,-10 5,-18 7,-10 16,-14 35,-47 3,-12 13,-16 1,-10 6,-4 6,-12 11,-14 -2,-9 9,-12 16,-39 33,-57 26,-17 21,-21 -8,-6 2,-30 7,-12 13,-6 -7,-4 16,-29 11,-2 -1,22 -14,19 -6,2 6,12 4,28 -4,26 6,8 0,9 8,-17 11,1 3,-5 11,0 12,-6 -2,-8 15,-20 0,-8 7,0 3,-8 -5,-12 3,-14 13,-1 10,10 24,5 5,-12 12,-9 5,-11 17,5 2,18 -11,13 2,6 -9,12 8,8 -21,-2 -3,15 -15,15 1,6 -7,10 -11,3 2,15 6,-1 2,10 9,7 11,1 5,9 -4,-30 13,-4 2,-20 5,-5 12,5 5,-15 -5,-4 10,-5 8,4 4,-9 5,4 7,-1 5,-16 8,-2 17,2 2,-22 8,-10 -3,-6 8,-27 9,-2 2,-8 16,-2 5,-8 9,-1 15,5 10,-6 20,0 21,6 17,7 12,9 0,-15 10,-9 10,0 8,2 9,-8 27,8 16,2 12,-4 23,-37 19,-22 10,-7 10,0 10,6 8,-9 11,3 7,10 8,-8 6,0 26,14 13,1 10,7 2,-7 8,7 9,-2 13,8 35,13 21,22 13,20 7,-2 4,7 13,8 1,8 31,20 15,-5 -8,-11 2,-7 -5,-15 8,-1 -9,-14 4,-11 14,-3 -2,-30 12,-11 16,13 17,-3 10,12 1,20 6,-3 1,-12 9,1 8,13 -2,-21 21,2 6,8 -7,6 -5,10 13,9 16,-3 -12,-12 -4,-10 13,4 -4,-7 11,-1 13,8 -2,-9 22,10 1,-4 6,0 1,0 6,5 29,-5 10,6 25,6 12,-6 11,1 6,-5 6,5 5,-13 -4,-10 -14,-9 -10,6 -3,-6 -14,-10 -3,-7 -14,-14 6,-13 8,-8 -12,-5 -10,0 -7,-6 -4,-10 -4,6 -6,-8 -17,10 -17,-5 1,-9 -6,-2 6,-13 12,-5 -1,-8 11,4 -6,-16 -9,-10 -1,-30 -12,-24 -2,-16 -15,-20 0,-7 -20,-9 -1,0 -1,0 -1,0 1,0 1,0 1,0 -6,3 -13,5 -14,10 0,10 -6,8 -8,-6 -5,7 -20,10 -9,0 -1,-14 -12,-21 -15,-1 -23,14 -26,9 -7,-1 -9,-12 -20,0 -9,-8 -7,6 -19,-3 -10,-11 -2,-14 10,-6 -4,-20 2,-57 9,-20 15,-18 -12,0 -24,8 -41,-3 -19,5 -18,5 -24,14 -2,0 2,0 -2,0 -40,19 -10,3 -27,0 -17,-2 -43,1 -35,-6 -9,0 -25,9 -3,-4 -41,13 -9,-1 -7,-8 -15,8 -63,43 -22,10 -11,-1 -13,15 -18,14 -30,42 -9,-4 1,-12 -15,2 -16,-20 -15,1 -6,8 -2,11 -20,1 -11,-15 -13,-1 -7,-24 -5,-6 -14,-4 -4,6 -18,3 -12,11 -19,-5 -2,4 -17,4 -17,0 -22,-5 -16,-10 -2,-8 5,-7 -7,-19 -11,-3 -11,-12 -2,-11 -10,-5 -9,-15 0,-7 -18,-19 -4,-13 0,-16 -15,-16 -13,-3 -4,-11 -4,8 -10,0 -5,-20 -8,2 -4,-8 -13,-8 -9,4 -12,-5 -8,-9 -27,1 -23,-3 -13,-4 -16,5 -18,2 -19,18 -13,22 1,-8 10,-23 7,-8 24,-18 8,-12 -4,-2 -34,18 -21,16 -18,20 -6,-8 -10,6 5,13 -18,21 -6,15 -10,5 -7,-4 8,-13 6,-2 -7,-21 3,-28 10,-27 5,-28 -22,-23 -7,9 5,-43 -18,-9 -11,2 -10,-6 -6,-23 8,-9 -2,-17 -19,7 -18,16 -11,14 -17,6 -10,12 -16,7 -7,13 -8,21 -10,11 -20,7 -4,-4 -15,7 -18,-4 -17,15 -14,20 -46,26 -32,12 -27,-2 -41,10 -15,-8 -38,5 -22,11 -14,14 -13,15 -20,14 -17,15 -24,9 -23,3 -40,14 -10,5 -11,-3 -29,21 9,-22 150,-303 16,-32 176,-356 49,22 21,-12 204,-116 105,-28 1185,716 36,127 73,86 28,4 10,-18 9,-6 9,0 7,-5 11,0 17,7ZM712,171l-1,5 -36,16 -5,9 -26,12 -3,-1 -12,9 -13,2 -31,15 -22,10 -25,13 -21,18 3,5 17,-11 -4,9 -22,22 10,2 5,9 10,5 15,-3 24,-11 10,-2 36,-15 3,-5 -14,5 -19,0 1,-10 18,-12 33,-16 8,-6 23,0 25,-10 8,-10 0,-1 10,-2 20,-15 -2,-15 -17,9 30,-20 9,-12 15,-8 18,-17 -18,10 -14,7 9,-6 5,-1 -2,-6 -13,13 -3,-3 -9,7 -7,-1 -17,7ZM975,508l-9,3 -20,-6 -32,0 -3,4 -32,2 -6,4 -13,0 -10,4 -5,7 -20,5 -17,12 -11,2 -20,12 -29,40 -1,0 -22,21 -18,6 3,20 -7,10 7,22 21,2 17,5 3,13 23,-3 8,-19 -7,-14 -1,-3 0,1 1,2 -1,-2 0,-1 9,-10 4,3 -7,15 2,20 -5,11 -20,15 -1,15 16,19 2,-2 -2,2 -2,9 7,-1 17,-21 7,-29 17,-10 4,-17 10,-6 3,5 5,-28 4,-4 5,-5 16,-2 14,-18 9,-4 13,-17 16,-5 27,-20 -9,-10 3,-11 25,-4 12,1 11,5 16,-4 4,-5 16,0 -3,-19 -13,-10 -15,-6ZM1045,539l13,4 4,-5 -11,-4ZM1379,972l-10,0 -9,10 3,18 6,4 -2,20 5,3 6,-10 11,8 6,-9 -1,-10 -5,7 -7,-6 6,-21ZM2205,997l-8,11 8,10 5,-7 8,36 20,14 0,15 5,4 16,2 -17,-34 -11,-12 4,-21 9,-5 3,-18 8,-7 -6,-7 -14,4 -15,-5 -12,20ZM2238,1081l-13,2 6,4 -4,16 7,6 4,12 9,10 17,-15 -9,-11 -3,-18ZM2357,1260l4,6 7,-6 5,12 6,2 3,-8 12,6 18,0 17,-6 3,-6 16,20 7,-2 15,1 9,-16 -1,-5 9,-14 -10,-4 -15,-12 -1,-11 -13,-23 -17,-7 -31,2 -3,9 20,5 -1,19 -14,-2 -7,8 -10,0 -6,14 -8,8 -7,-10 -1,-8 -6,-3 -12,19 0,11 5,-5 10,0ZM2187,1268l6,-4 -11,-14ZM2078,1310l0,9 11,6 5,-6 -9,-12ZM1776,1340l-5,-1 3,12 -4,2 13,5 -4,6 17,1 1,-8 -13,-14ZM2101,1339l0,7 13,7 21,29 20,1 5,4 9,-4 12,-22 -17,-6 -10,-2 -23,-10 -15,1ZM1830,1357l-3,-4 -8,13 12,-2ZM1779,1376l-7,2 -14,-5 2,10 -4,15 -10,12 -2,8 0,19 -4,5 -1,20 21,6 9,-2 2,-7 14,-9 0,-23 -6,-10 4,-12 -2,-14 -7,-6ZM1386,1470l-10,-8 3,21 7,-3ZM1713,1406l7,0 9,-13 -4,-10 -10,-2ZM1330,1510l10,4 0,-11 -9,-3ZM1664,1566l3,-16 -9,-14 -11,-2ZM1607,1729l14,-3 -8,-9 2,-30 -7,-8 -18,-2 -6,11 2,18ZM1558,1758l15,-4 -1,-11 5,-6 -14,-4 -6,4 -5,17ZM2845,2948l12,-8 9,13 7,3 4,-10 19,-20 -6,3 -8,-5 -12,2 -3,9 -14,3ZM2848,2926l-4,4 -2,3 -4,0 4,0 2,-3 4,-4 6,10 12,-2 5,-10 -15,-5ZM2665,3189l2,7 7,2 5,-22 -4,-26 -5,7Z"/>
    <path data-fips-int="26003" data-name="Alger County" d="M1379,972l9,14 -6,21 7,6 5,-7 1,10 -6,9 -11,-8 -6,10 -5,-3 2,-20 -6,-4 -3,-18 9,-10ZM1652,1000l-173,0 0,87 -87,0 0,86 -1,1 -12,0 -94,0 -68,-2 1,-55 1,-113 12,-11 18,-3 4,-6 14,4 5,6 7,24 13,1 11,15 20,-1 2,-11 6,-8 15,-1 16,20 15,-2 -1,12 9,4 30,-42 18,-14 13,-15 11,1 22,-10 63,-43 15,-8 7,8 9,1 41,-13 3,4 25,-9 9,0Z"/>
    <path data-fips-int="26007" data-name="Alpena County" d="M2531,1635l7,17 13,15 2,-2 10,26 -4,3 -4,3 4,-3 0,17 14,4 5,12 -25,-8 -12,-11 -5,-9 -20,12 -5,10 0,13 -4,7 7,8 1,15 4,9 11,7 3,7 15,8 14,3 -1,11 -80,2 -69,4 -53,1 -4,-87 4,0 -2,-58 0,-28 53,-4 28,0 47,-3Z"/>
    <path data-fips-int="26011" data-name="Arenac County" d="M2485,2161l1,29 -8,11 4,18 -14,-4 -10,2 -15,15 4,19 -9,-6 -15,-2 -6,10 -14,0 -11,-6 -14,18 -6,19 -6,8 -49,1 -2,-43 -44,1 -2,-83 45,0 57,-2 55,-2Z"/>
    <path data-fips-int="26029" data-name="Charlevoix County" d="M1926,1570l0,15 18,1 16,31 13,0 0,-10 81,-1 1,44 0,44 -43,0 -61,0 -69,1 0,-44 -59,0 0,-14 5,-16 12,-11 4,-7 23,-9 19,-20 10,-1 15,-7ZM1713,1406l2,-25 10,2 4,10 -9,13ZM1779,1376l-5,9 7,6 2,14 -4,12 6,10 0,23 -14,9 -2,7 -9,2 -21,-6 1,-20 4,-5 0,-19 2,-8 10,-12 4,-15 -2,-10 14,5ZM1830,1357l1,7 -12,2 8,-13ZM1776,1340l8,3 13,14 -1,8 -17,-1 4,-6 -13,-5 4,-2 -3,-12Z"/>
    <path data-fips-int="26033" data-name="Chippewa County" d="M2455,1278l-7,2 -16,-20 -3,6 -17,6 -18,0 -12,-6 -3,8 -6,-2 -5,-12 -7,6 -4,-6 3,-6 -10,0 -5,5 0,-11 12,-19 6,3 1,8 7,10 8,-8 6,-14 10,0 7,-8 14,2 1,-19 -20,-5 3,-9 31,-2 17,7 13,23 1,11 15,12 10,4 -9,14 1,5 -9,16ZM2238,1081l14,6 3,18 9,11 -17,15 -9,-10 -4,-12 -7,-6 4,-16 -6,-4ZM2205,997l3,0 12,-20 15,5 14,-4 6,7 -8,7 -3,18 -9,5 -4,21 11,12 17,34 -16,-2 -5,-4 0,-15 -20,-14 -8,-36 -5,7 -8,-10ZM2166,996l6,-3 -1,0 -1,0 -1,0 1,0 1,0 1,0 20,9 0,7 15,20 2,16 12,24 1,30 9,10 6,16 -11,-4 1,8 -12,5 -6,13 6,2 -1,9 17,5 17,-10 6,8 4,-6 4,10 7,6 10,0 12,5 -8,8 -6,13 14,14 3,7 14,10 3,6 10,-6 14,9 4,10 -5,13 -6,-5 -6,5 -11,-1 -12,6 -25,-6 -10,-6 -35,0 -1,0 -6,0 -2,-3 -1,-40 -44,0 0,-43 -58,1 -26,1 -177,3 -1,-44 -43,1 -2,-98 -1,-34 0,-124 19,-5 41,3 24,-8 12,0 -15,18 -9,20 -2,57 4,20 -10,6 2,14 10,11 19,3 7,-6 9,8 20,0 9,12 7,1 26,-9 23,-14 15,1 12,21 1,14 9,0 20,-10 5,-7 8,6 6,-8 0,-10 14,-10Z"/>
    <path data-fips-int="26041" data-name="Delta County" d="M1330,1510l1,-10 9,3 0,11ZM1386,1470l0,10 -7,3 -3,-21ZM1217,1172l68,2 94,0 12,0 44,0 0,88 0,44 11,0 -1,70 -5,-4 -4,9 -8,-4 -10,5 5,4 -5,15 -12,-5 -5,5 -2,20 -13,4 4,30 -5,-9 -11,-1 -9,-7 -2,-10 -6,1 -2,-15 11,-3 7,-10 -1,-6 15,-15 3,-15 21,2 -8,-8 9,-12 -2,-6 11,-13 -2,-18 -17,-5 -5,11 -12,9 -5,12 -24,-5 -10,-10 -13,1 -3,14 5,12 -3,8 -7,0 0,8 -15,20 2,8 -12,6 -11,0 -3,5 -11,-1 -8,17 0,-9 -6,-8 4,-26 -4,-28 -6,-12 6,-2 14,-19 1,-22 -11,2 -16,29 7,4 -13,6 -7,12 -2,30 8,6 -21,21 -26,17 -33,57 -22,0 3,-175 -15,-1 1,-43 43,1 1,-88Z"/>
    <path data-fips-int="26047" data-name="Emmet County" d="M2050,1355l2,76 1,51 1,50 0,74 -81,1 0,10 -13,0 -16,-31 -18,-1 0,-15 21,2 17,-4 25,-13 -2,-14 -41,-6 -19,-22 -7,-18 -4,-27 15,-31 21,-11 9,-16 5,0 11,-14 0,-8 -16,-16 19,-1 9,6 8,-4 16,5 11,-1 10,-11 -5,-7 6,-4Z"/>
    <path data-fips-int="26055" data-name="Grand Traverse County" d="M1806,1826l21,0 3,14 11,2 5,8 0,65 1,37 0,48 -66,1 -108,0 0,-126 1,-5 62,-1 15,5 15,-46 8,-8 2,-12 -13,0 11,-20 4,-20 16,-8 3,13 -7,3 -1,22 -3,25 -3,9 -18,15 -1,17 -5,13 18,6 7,-11 2,-18 13,-10Z"/>
    <path data-fips-int="26061" data-name="Houghton County" d="M708,642l-8,9 6,23 10,6 11,-2 18,9 -5,43 7,-9 22,23 -5,28 -35,-1 -1,44 -44,-1 -2,92 -1,15 -3,110 -108,-4 1,-43 4,-88 43,2 1,-43 -24,0 3,-56 2,-78 8,-21 7,-13 16,-7 10,-12 17,-6 11,-14 18,-16 19,-7ZM844,643l-4,4 -5,28 -3,-5 -10,6 -4,17 -17,10 -7,29 -17,21 -7,1 2,-9 2,-2 -2,2 -16,-19 1,-15 20,-15 5,-11 -2,-20 7,-15 -4,-3 -9,10 0,1 1,2 -1,-2 0,-1 1,3 7,14 -8,19 -23,3 -3,-13 -17,-5 -21,-2 -7,-22 7,-10 -3,-20 18,-6 22,-21 1,0 72,2 0,43Z"/>
    <path data-fips-int="26063" data-name="Huron County" d="M2819,2297l9,18 5,22 4,7 4,41 -65,6 -41,3 -79,6 -18,2 -109,7 -1,-29 0,-1 10,-24 14,-21 3,-14 22,-21 -1,-7 -11,-7 14,-3 7,-6 9,-13 3,-11 41,-8 11,-9 15,2 8,-4 8,-20 11,0 13,-12 5,3 9,-5 17,12 22,5 12,12 6,0 13,12 4,13 16,24 1,12Z"/>
    <path data-fips-int="26083" data-name="Keweenaw County" d="M1045,539l6,-5 11,4 -4,5ZM975,508l16,1 15,6 13,10 3,19 -16,0 -4,5 -16,4 -11,-5 -12,-1 -25,4 -3,11 9,10 -27,20 -16,5 -13,17 -9,4 -14,18 -16,2 -5,5 -24,-1 0,-43 -72,-2 -1,0 1,0 29,-40 20,-12 11,-2 17,-12 20,-5 5,-7 10,-4 13,0 6,-4 32,-2 3,-4 32,0 20,6ZM712,171l9,0 17,-7 7,1 9,-7 3,3 13,-13 2,6 -5,1 -9,6 14,-7 18,-10 -18,17 -15,8 -9,12 -30,20 17,-9 2,15 -20,15 -10,2 0,1 -8,10 -25,10 -23,0 -8,6 -33,16 -18,12 -1,10 19,0 14,-5 -3,5 -36,15 -10,2 -24,11 -15,3 -10,-5 -5,-9 -10,-2 22,-22 4,-9 -17,11 -3,-5 21,-18 25,-13 22,-10 31,-15 13,-2 12,-9 3,1 26,-12 5,-9 36,-16Z"/>
    <path data-fips-int="26089" data-name="Leelanau County" d="M1558,1758l-6,-4 5,-17 6,-4 14,4 -5,6 1,11ZM1607,1729l-21,-23 -2,-18 6,-11 18,2 7,8 -2,30 8,9ZM1736,1869l-62,1 -34,-2 -59,0 3,-17 -2,-42 11,-9 16,8 8,-8 3,-9 11,-19 12,3 10,12 21,-4 12,-16 0,-16 11,-21 17,-11 6,-8 3,-15 19,-34 12,3 10,-14 6,0 4,10 -3,8 -11,10 -8,0 -8,12 5,18 12,17 0,9 -8,-7 -4,17 -12,11 -5,13 5,4 13,-12 -2,28 -6,5 -9,24 -1,23 6,15ZM1664,1566l-17,-32 11,2 9,14Z"/>
    <path data-fips-int="26097" data-name="Mackinac County" d="M2101,1339l15,5 15,-1 23,10 10,2 17,6 -12,22 -9,4 -5,-4 -20,-1 -21,-29 -13,-7ZM2078,1310l7,-3 9,12 -5,6 -11,-6ZM2264,1253l-29,5 -6,-5 -1,0 1,0ZM2187,1268l-5,-18 11,14ZM2222,1253l-1,4 -22,-10 2,9 -13,-8 -11,1 4,7 -13,-4 4,10 12,12 -16,3 -13,-9 5,-10 7,-6 -6,-8 -21,-2 2,21 -8,-13 -9,-1 -1,12 -6,3 -1,-20 -10,-12 -17,3 -16,-13 -12,11 2,30 -14,3 -4,11 9,14 -8,1 5,15 -2,7 8,11 -15,5 -31,-20 -1,-8 -13,-8 -4,-7 -7,2 -13,-20 -21,-22 -35,-13 -13,-8 -9,2 -8,-7 -2,7 -10,-7 -13,-1 -26,-14 -6,0 -8,8 -7,-10 -11,-3 -8,9 -10,-6 -10,0 -10,7 -19,22 -23,37 -12,4 -16,-2 -27,-8 -9,8 -8,-2 -1,-139 118,-1 100,-1 43,-1 1,44 177,-3 26,-1 58,-1 0,43 44,0 1,40Z"/>
    <path data-fips-int="26103" data-name="Marquette County" d="M1219,1004l-1,113 -1,55 -44,0 -1,88 -43,-1 -87,-1 2,-131 -109,-3 -65,-1 2,-87 3,-130 43,0 1,-43 -18,0 1,-74 23,3 27,-1 8,9 12,5 9,-4 13,8 4,8 8,-2 5,20 10,0 4,-8 4,11 13,3 15,16 0,16 4,13 18,19 0,7 9,15 10,5 2,11 11,12 11,3 7,19 -5,7 2,8 16,10 22,5 17,0 17,-4 2,-4Z"/>
    <path data-fips-int="26115" data-name="Monroe County" d="M2658,3225l-3,17 -13,13 -11,-3 8,8 -4,17 -14,-5 -10,14 -2,15 -6,7 -11,3 -11,23 -8,4 -2,13 7,25 -9,-18 -5,-5 2,12 -5,0 -4,16 -105,8 -6,-93 -1,-38 -3,-50 88,-4 44,-2 0,-4 47,-2 7,10 7,0Z"/>
    <path data-fips-int="26147" data-name="Saint Clair County" d="M2845,2948l8,-10 14,-3 3,-9 12,-2 8,5 6,-3 -19,20 -4,10 -7,-3 -9,-13ZM2848,2926l8,-7 15,5 -5,10 -12,2ZM2827,2891l-9,-10 -8,-96 -32,3 -58,2 -2,-50 -8,-80 59,-4 122,-11 8,33 25,45 0,6 2,17 -12,15 -5,18 1,25 -4,23 6,21 -6,14 0,10 -7,23 -1,23 -9,10 -7,-6 -24,-5 -7,1 8,-14 -1,-7 -12,-1 -10,-7Z"/>
    <path data-fips-int="26163" data-name="Wayne County" d="M2665,3189l5,-32 5,-7 4,26 -5,22 -7,-2ZM2772,3012l-10,34 -11,13 -15,1 -16,12 -18,8 -14,17 -7,20 -6,4 -2,25 -8,21 -6,36 3,23 -4,-1 -23,-19 -7,0 -7,-10 -47,2 0,4 -44,2 -4,-55 -3,-74 -4,-46 77,-6 97,-6 58,-5Z"/>
    <path data-fips-int="26025" data-name="Calhoun County" d="M2087,3048l2,87 4,46 1,43 -44,-1 -138,2 -36,1 -2,-43 -2,-132 84,-1 44,-2Z"/>
  </g>
  <g class="cities">
    <circle r="3" cx="271.0" cy="307.5"/>
    <text x="271.0" y="307.5">Detroit</text>
    <circle r="3" cx="173.3" cy="278.0"/>
    <text x="173.3" y="278.0">Grand Rapids</text>
    <circle r="3" cx="272.1" cy="298.9"/>
    <text x="272.1" y="298.9">Warren</text>
  </g>
</svg>