<?xml version="1.0" encoding="utf-8"?>
<!DOCTYPE svg PUBLIC "-//W3C//DTD SVG 1.1//EN" "http://www.w3.org/Graphics/SVG/1.1/DTD/svg11.dtd">
<svg version="1.1" xmlns="http://www.w3.org/2000/svg" width="310" height="350" viewBox="0 0 310 350">
  <defs>
    <pattern id="pattern-no-results" width="50" height="50" patternUnits="userSpaceOnUse">
      <rect width="50" height="50" fill="#ddd"/>
      <path d="M-5,5L5,-5M-5,55L55,-5M45,55L55,45" stroke-width="10" stroke="#666666"/>
    </pattern>
  </defs>
  <g class="counties" transform="scale(0.1)">
    <path data-fips-int="26001" data-name="Alcona County" d="M2560,1809l20,73 -14,101 -201,9 -6,-175Z"/>
    <path data-fips-int="26005" data-name="Allegan County" d="M1691,2878l87,0 3,173 -82,2 -188,1 23,-174Z"/>
    <path data-fips-int="26009" data-name="Antrim County" d="M2012,1694l6,130 -159,1 -13,25 -38,-25 -2,0 2,0 7,-18 18,-110 -9,-48 57,0 2,46Z"/>
    <path data-fips-int="26013" data-name="Baraga County" d="M872,764l-35,33 53,-13 13,5 -1,71 16,47 -43,-2 -3,132 -194,-7 6,-216 44,2 0,-44 36,0 -11,78 36,-43Z"/>
    <path data-fips-int="26015" data-name="Barry County" d="M1956,3049l-84,2 -91,0 -3,-173 88,-2 87,-1Z"/>
    <path data-fips-int="26017" data-name="Bay County" d="M2365,2293l1,0 -1,0 -2,25 -1,6 -10,42 41,73 53,12 3,56 -50,-20 -80,0 -42,-21 -3,-129 -3,-86 44,-2 1,44Z"/>
    <path data-fips-int="26019" data-name="Benzie County" d="M1674,1870l0,131 -150,-1 -2,-95 58,-37Z"/>
    <path data-fips-int="26021" data-name="Berrien County" d="M1530,3229l-2,156 -226,-1 84,-72 45,-106 44,-63 53,0Z"/>
    <path data-fips-int="26023" data-name="Branch County" d="M2050,3224l3,156 -175,2 -3,-156Z"/>
    <path data-fips-int="26027" data-name="Cass County" d="M1700,3229l3,136 -9,20 -166,0 2,-156Z"/>
    <path data-fips-int="26031" data-name="Cheboygan County" d="M2159,1418l76,15 2,0 -2,0 -16,0 8,216 -43,0 -129,0 0,-43 -5,-250Z"/>
    <path data-fips-int="26035" data-name="Clare County" d="M2022,2174l88,-1 5,173 -175,5 -3,-177Z"/>
    <path data-fips-int="26037" data-name="Clinton County" d="M2209,2695l6,170 -88,6 -87,2 -3,-175Z"/>
    <path data-fips-int="26039" data-name="Crawford County" d="M2187,1822l4,175 -172,1 -1,-174Z"/>
    <path data-fips-int="26043" data-name="Dickinson County" d="M1041,1258l0,43 -27,0 -2,87 -53,0 -79,-32 -14,-70 3,-163 175,4Z"/>
    <path data-fips-int="26045" data-name="Eaton County" d="M2040,2873l87,-2 4,175 -44,2 -131,1 -3,-174Z"/>
    <path data-fips-int="26049" data-name="Genesee County" d="M2540,2630l9,175 -87,7 1,44 -86,4 -8,-177 -1,-44 85,-4Z"/>
    <path data-fips-int="26051" data-name="Gladwin County" d="M2269,2168l2,83 3,86 -159,9 -5,-173 86,-2Z"/>
    <path data-fips-int="26053" data-name="Gogebic County" d="M568,1072l-3,118 -37,-23 -351,-114 -28,-83 -69,-36 142,-52 45,-40 4,85 43,3 -2,45 130,5 -3,87Z"/>
    <path data-fips-int="26057" data-name="Gratiot County" d="M2118,2522l87,-2 4,170 0,5 -172,3 -6,-174Z"/>
    <path data-fips-int="26059" data-name="Hillsdale County" d="M2222,3219l6,185 -168,8 -7,-32 -3,-156 44,0Z"/>
    <path data-fips-int="26065" data-name="Ingham County" d="M2290,2865l12,174 -171,7 -4,-175 88,-6Z"/>
    <path data-fips-int="26067" data-name="Ionia County" d="M2037,2698l3,175 -87,2 -87,1 -4,-176Z"/>
    <path data-fips-int="26069" data-name="Iosco County" d="M2566,1983l0,88 -76,57 -5,33 -114,5 -6,-174Z"/>
    <path data-fips-int="26071" data-name="Iron County" d="M678,1030l194,7 -3,86 -3,163 -25,-16 -80,-14 -31,-23 -94,0 -71,-43 3,-118 1,-45Z"/>
    <path data-fips-int="26073" data-name="Isabella County" d="M2118,2522l-87,2 -88,1 -3,-174 175,-5Z"/>
    <path data-fips-int="26075" data-name="Jackson County" d="M2302,3039l3,0 4,178 -87,2 -128,5 -7,-176 44,-2Z"/>
    <path data-fips-int="26077" data-name="Kalamazoo County" d="M1872,3051l3,175 -175,3 -1,-176 82,-2Z"/>
    <path data-fips-int="26079" data-name="Kalkaska County" d="M2018,1824l1,174 -172,2 -1,-150 13,-25Z"/>
    <path data-fips-int="26081" data-name="Kent County" d="M1862,2700l4,176 -88,2 -87,0 -4,-219 0,-45 84,0 91,-2Z"/>
    <path data-fips-int="26085" data-name="Lake County" d="M1594,2176l80,0 91,0 3,175 -172,1 -3,-176Z"/>
    <path data-fips-int="26087" data-name="Lapeer County" d="M2710,2659l11,133 -44,3 -128,10 -9,-175 40,-5 -3,-45 85,-5 44,20Z"/>
    <path data-fips-int="26091" data-name="Lenawee County" d="M2452,3387l-224,17 -6,-185 87,-2 134,-8Z"/>
    <path data-fips-int="26093" data-name="Livingston County" d="M2463,2856l15,177 -173,6 -3,0 -12,-174 87,-5Z"/>
    <path data-fips-int="26095" data-name="Luce County" d="M1866,872l3,256 -217,4 0,-132 0,-93 125,7 47,-22 0,2 1,-2 -1,2 0,-2 1,0Z"/>
    <path data-fips-int="26099" data-name="Macomb County" d="M2821,2881l7,10 -35,17 -12,47 -15,40 0,3 0,1 6,12 -79,5 -16,-221 44,-3 88,-7Z"/>
    <path data-fips-int="26101" data-name="Manistee County" d="M1674,2001l0,175 -80,0 -1,0 -125,-7 45,-89 21,3 2,0 -2,0 2,0 -21,-17 4,-50 2,0 1,-1 -1,0 1,0 0,-2 0,-2 0,2 0,2 -1,0 0,1 -2,0 2,0 0,-1 1,-2 0,-2 2,-11Z"/>
    <path data-fips-int="26105" data-name="Mason County" d="M1593,2176l1,0 -1,0 3,176 -144,-1 -8,-60 0,-2 0,-1 0,1 0,2 6,-2 -6,-5 0,-1 0,1 0,-1 -20,-55 44,-59Z"/>
    <path data-fips-int="26107" data-name="Mecosta County" d="M1940,2351l3,174 -174,0 -1,-174Z"/>
    <path data-fips-int="26109" data-name="Menominee County" d="M1128,1260l15,43 -3,175 22,0 -31,71 -1,0 1,0 -1,0 -93,136 6,20 -52,-56 34,-67 -84,-8 34,-76 6,-84 -22,-26 53,0 2,-87 27,0 0,-43Z"/>
    <path data-fips-int="26111" data-name="Midland County" d="M2274,2337l3,129 0,44 -72,10 -87,2 -3,-176Z"/>
    <path data-fips-int="26113" data-name="Missaukee County" d="M2019,1998l3,176 -85,0 -88,0 -2,-174Z"/>
    <path data-fips-int="26117" data-name="Montcalm County" d="M1943,2525l88,-1 6,174 -175,2 0,-88 -91,2 -2,-89Z"/>
    <path data-fips-int="26119" data-name="Montmorency County" d="M2359,1817l-172,5 -3,-173 43,0 129,-7Z"/>
    <path data-fips-int="26121" data-name="Muskegon County" d="M1596,2527l0,88 91,-1 0,45 -43,0 0,43 -133,1 -21,-58 28,-15 -3,0 3,0 -3,0 -25,15 -49,-120Z"/>
    <path data-fips-int="26123" data-name="Newaygo County" d="M1768,2351l1,174 2,89 -84,0 -91,1 0,-88 0,-175Z"/>
    <path data-fips-int="26125" data-name="Oakland County" d="M2693,3016l-174,13 -41,4 -15,-177 -1,-44 87,-7 128,-10Z"/>
    <path data-fips-int="26127" data-name="Oceana County" d="M1596,2352l0,175 -155,-2 -25,-61 2,-45 34,-68Z"/>
    <path data-fips-int="26129" data-name="Ogemaw County" d="M2365,1992l6,174 -102,2 -73,3 -5,-174Z"/>
    <path data-fips-int="26131" data-name="Ontonagon County" d="M569,1027l-1,45 -129,-5 3,-87 -130,-5 2,-45 -43,-3 -4,-85 36,-26 127,-5 67,-34 36,-40 67,-16 -4,134 23,0 -1,44 -43,-2Z"/>
    <path data-fips-int="26133" data-name="Osceola County" d="M1849,2174l88,0 3,177 -172,0 -3,-175Z"/>
    <path data-fips-int="26135" data-name="Oscoda County" d="M2365,1992l-174,5 -4,-175 172,-5Z"/>
    <path data-fips-int="26137" data-name="Otsego County" d="M2184,1649l3,173 -169,2 -6,-130 44,0 -1,-45Z"/>
    <path data-fips-int="26139" data-name="Ottawa County" d="M1687,2659l4,219 -157,2 -3,-68 -20,-109 133,-1 0,-43Z"/>
    <path data-fips-int="26141" data-name="Presque Isle County" d="M2493,1569l3,-2 -3,2 38,32 0,33 -175,8 -129,7 -8,-216 16,0 2,0 34,58 64,7 46,36Z"/>
    <path data-fips-int="26143" data-name="Roscommon County" d="M2191,1997l5,174 -86,2 -88,1 -3,-176Z"/>
    <path data-fips-int="26145" data-name="Saginaw County" d="M2449,2507l4,128 -85,4 1,44 -160,7 -4,-170 72,-10 0,-44 42,21 80,0Z"/>
    <path data-fips-int="26149" data-name="Saint Joseph County" d="M1875,3226l3,156 -184,3 9,-20 -3,-136Z"/>
    <path data-fips-int="26151" data-name="Sanilac County" d="M2841,2386l31,124 18,135 -180,14 -4,-64 -44,-20 4,0 -10,-174Z"/>
    <path data-fips-int="26153" data-name="Schoolcraft County" d="M1652,1000l0,132 1,138 -19,23 -32,-17 -71,-3 -40,27 -10,58 -34,18 -3,0 -10,-70 2,-131 -45,0 0,-88 87,0 0,-87Z"/>
    <path data-fips-int="26155" data-name="Shiawassee County" d="M2369,2683l8,177 -87,5 -75,0 -6,-170 0,-5Z"/>
    <path data-fips-int="26157" data-name="Tuscola County" d="M2510,2386l18,-7 2,30 126,-8 10,174 -4,0 -85,5 3,45 -40,5 -87,5 -4,-128 -3,-56 10,-2Z"/>
    <path data-fips-int="26159" data-name="Van Buren County" d="M1699,3053l1,176 -170,0 -2,-86 -53,0 36,-89Z"/>
    <path data-fips-int="26161" data-name="Washtenaw County" d="M2530,3204l-87,5 -134,8 -4,-178 173,-6 41,-4Z"/>
    <path data-fips-int="26165" data-name="Wexford County" d="M1847,2000l2,174 -84,2 -91,0 0,-175Z"/>
    <path data-fips-int="26003" data-name="Alger County" d="M1652,1000l-174,0 0,87 -87,0 0,88 -173,-2 1,-170 49,-14 53,46 29,-20 36,28 57,-66 25,-5 87,-57 57,-1 40,-7Z"/>
    <path data-fips-int="26007" data-name="Alpena County" d="M2531,1634l28,60 -3,1 3,-1 -19,8 -16,3 -14,24 2,16 48,64 -201,8 -3,-175Z"/>
    <path data-fips-int="26011" data-name="Arenac County" d="M2485,2161l-4,57 -60,31 -11,4 -44,40 -1,0 -49,0 -1,-44 -44,2 -2,-83 102,-2Z"/>
    <path data-fips-int="26029" data-name="Charlevoix County" d="M1925,1571l34,45 96,-10 0,43 1,45 -44,0 -129,1 -2,-46 -57,0 4,-28 43,-37ZM1780,1376l6,73 -45,15 17,-90Z"/>
    <path data-fips-int="26033" data-name="Chippewa County" d="M2455,1278l-5,0 -1,0 -6,-8 -6,-2 -7,-3 -6,3 -68,-8 -3,-7 12,-10 1,-2 -1,2 0,2 51,-37 -10,-20 7,2 37,6 37,50ZM2244,979l11,5 -24,54 25,37 -38,-27 -18,-49 5,-2ZM1972,1007l44,20 62,-22 13,35 71,-41 4,-4 3,-1 2,0 3,0 -3,0 -2,0 2,0 3,0 17,11 2,3 3,4 31,91 4,5 -22,39 82,29 -14,20 58,40 -1,24 0,3 0,-3 -12,0 -7,0 -2,0 2,0 -2,0 -50,-7 -35,0 -6,0 -3,-43 -44,0 0,-43 -262,4 0,-43 -44,0 -3,-256 99,-10 -24,30 -10,102Z"/>
    <path data-fips-int="26041" data-name="Delta County" d="M1218,1173l173,2 45,0 -2,131 10,70 -45,43 -6,35 -38,-31 36,-59 28,-34 -17,-25 -47,28 -22,-10 -22,71 -50,5 8,-99 2,0 1,0 5,-5 -5,5 -1,0 -2,-5 -33,51 -14,55 -29,27 -31,50 -22,0 3,-175 -15,-43 44,0 2,-87Z"/>
    <path data-fips-int="26047" data-name="Emmet County" d="M2050,1356l5,250 -96,10 -34,-45 31,-4 2,0 -2,0 2,0 29,-26 -62,-29 -9,-49 62,-75 -13,-17 63,5Z"/>
    <path data-fips-int="26055" data-name="Grand Traverse County" d="M1806,1825l2,0 38,25 1,150 -173,1 0,-131 62,-2 16,5 10,-64 32,-49 -19,123Z"/>
    <path data-fips-int="26061" data-name="Houghton County" d="M709,641l-1,33 6,3 19,2 7,5 4,5 0,35 8,0 1,2 3,3 3,3 9,9 1,3 0,2 -5,26 -36,0 0,44 -44,-2 -6,216 -109,-3 6,-130 43,2 1,-44 -23,0 4,-134 17,-35 80,-60ZM843,643l-4,31 -67,72 -3,0 0,-2 -1,-3 -9,-9 -3,-3 25,-60 -1,-3 0,-17 0,4 0,-4 0,4 -6,5 1,0 -1,0 -2,0 2,0 0,3 -2,0 0,-3 0,3 2,0 -2,2 0,-2 -3,3 -5,5 0,2 0,-2 0,2 5,-7 3,-1 8,3 1,3 -32,15 -16,-5 -15,0 -4,-2 -6,-3 0,-48 39,-28 2,0 70,1 0,44Z"/>
    <path data-fips-int="26063" data-name="Huron County" d="M2728,2206l59,30 35,70 18,70 1,10 -185,15 -126,8 -2,-30 28,-65 43,-63 67,-15 49,-35Z"/>
    <path data-fips-int="26083" data-name="Keweenaw County" d="M975,506l39,13 -6,25 -67,5 3,24 -101,70 -24,0 0,-44 -70,-1 -2,0 2,0 28,-40 76,-42ZM711,172l3,0 26,-7 13,-8 5,5 1,-2 2,-3 8,-7 3,0 2,0 -2,0 0,2 2,-2 -2,2 -3,3 -1,0 -3,0 3,0 -3,0 -1,2 -5,5 -1,0 1,0 0,-2 2,0 0,-3 0,3 -3,2 11,-7 3,-3 17,-7 -20,17 -5,3 -3,2 -2,5 2,-2 0,-3 3,0 0,-2 1,0 4,-3 5,0 3,-5 -3,5 -9,3 -1,2 -3,3 -2,2 -23,23 0,2 -21,26 -1,0 -5,0 -1,2 -2,2 -4,1 4,-1 2,-2 1,-2 5,0 1,0 -41,22 -84,35 34,5 -74,33 -36,-11 20,-32 -17,10 1,-7 121,-65 5,0 11,-6 45,-25 -1,1 0,2 -2,2 -4,3 4,-3 2,-2 1,-2 -1,0 1,0 0,-1Z"/>
    <path data-fips-int="26089" data-name="Leelanau County" d="M1736,1868l-62,2 -94,-2 3,-61 29,0 19,-35 35,15 67,-112 22,45Z"/>
    <path data-fips-int="26097" data-name="Mackinac County" d="M2159,1343l7,43 -35,-7 -31,-40ZM2222,1253l2,2 -16,-2 -5,5 -12,-5 -10,2 -4,3 -8,-5 -1,23 -13,-25 10,0 -19,-6 -5,16 -72,-38 -23,55 14,47 -48,-22 -57,-55 -68,-20 -46,-22 -66,-1 -48,65 -74,0 -1,-138 217,-4 44,0 0,43 262,-4 0,43 44,0Z"/>
    <path data-fips-int="26103" data-name="Marquette County" d="M1108,950l10,4 10,23 9,23 82,3 -1,170 -44,0 -2,87 -44,0 -87,-2 3,-131 -175,-4 3,-86 3,-132 43,2 -16,-47 1,-71 49,2 76,36Z"/>
    <path data-fips-int="26115" data-name="Monroe County" d="M2653,3222l4,2 0,2 3,3 -29,23 -3,0 3,0 -22,47 -38,56 -2,-3 -9,18 2,2 -3,7 -2,1 -105,7 -9,-178 87,-5 91,-7Z"/>
    <path data-fips-int="26147" data-name="Saint Clair County" d="M2828,2891l-7,-10 -12,-96 -88,7 -11,-133 180,-14 6,23 26,60 0,2 0,3 3,4 -9,23 -17,156 -37,5Z"/>
    <path data-fips-int="26163" data-name="Wayne County" d="M2772,3011l-20,48 -64,37 -28,93 -3,35 0,2 0,-2 -4,-2 -32,-25 -91,7 -11,-175 174,-13Z"/>
    <path data-fips-int="26025" data-name="Calhoun County" d="M2087,3048l7,176 -44,0 -175,2 -3,-175 84,-2Z"/>
  </g>
  <g class="cities">
    <circle r="3" cx="270.9" cy="307.5"/>
    <text x="270.9" y="307.5">Detroit</text>
    <circle r="3" cx="173.3" cy="278.0"/>
    <text x="173.3" y="278.0">Grand Rapids</text>
    <circle r="3" cx="272.1" cy="299.0"/>
    <text x="272.1" y="299.0">Warren</text>
  </g>
</svg>