<?xml version="1.0" encoding="utf-8"?>
<!DOCTYPE svg PUBLIC "-//W3C//DTD SVG 1.1//EN" "http://www.w3.org/Graphics/SVG/1.1/DTD/svg11.dtd">
<svg version="1.1" xmlns="http://www.w3.org/2000/svg" width="305" height="350" viewBox="0 0 305 350">
  <path class="state" transform="scale(0.1)" d="M2941,840l30,-11 -22,63 -139,354 -268,4 -188,136 -117,82 -206,131 -32,-23h-1l-27,18 -1,-2 -10,7v2l-2,26 -33,-1 2,138 1,194 -22,34 -27,-7 -19,31 -65,22 -26,22 -22,53 -31,42 -11,6 -6,80 45,3 49,69v28l-37,58 -9,62 11,41 -24,25 16,22 6,51 -6,59 -15,49 28,19 66,61 8,19 82,6 42,57 76,28 55,40 13,58 14,20 61,38 51,52 63,15 61,85 16,36 -6,93 16,19 8,46 -210,4 -294,5 -245,3h-247l-244,-2 -248,-6 -248,-4 -245,-6 -162,-7 9,-196 7,-196 10,-245 4,-100 9,-259 -16,-57 -46,-25 -25,-1 -29,-64 -29,-38 -1,-30 71,-51 36,-47 12,-73 -3,-40 8,-47 -10,-41 -3,-85 -37,-55 -26,-118v-110l16,-63 -22,-20 4,-90 -7,-11 9,-135 -11,-22 6,-41 5,-55 -58,-157 -13,-51 -2,-50 -11,-13 -15,-59 16,-84 -16,-40 16,-34 -10,-50 26,-78 -16,-30 -6,-65 -22,-66 3,-18 306,13 401,13 63,2 4,-218 35,17 39,-9 46,44 18,99 8,15 19,100 -1,77 37,36 60,9 52,-2 16,31 148,14 20,65h56l66,-17v-23l45,-22 52,-8 45,8 49,-3 10,15 75,36 35,-1 3,21 -32,24 29,15 48,-7 19,18 -8,22 41,86 38,-16 -15,-39 18,-20 76,-4 22,21 -3,32 19,18 25,-3 36,18 33,5 5,35 23,18 30,-6 -6,33 32,-12 19,10 71,-20 42,-43 39,-20 54,-33 17,3 3,30 32,53 72,-21 2,16h66l93,-16 41,15 22,38 37,13 39,-23 76,11"/>
  <g class="counties" transform="scale(0.1)">
    <path data-fips-int="27001" data-name="Aitkin County" d="M1628,1423l-1,148 4,194v148l-149,2 3,-52 -142,2 -6,-3v-190l13,-3 1,-120 2,-128Z"/>
    <path data-fips-int="27003" data-name="Anoka County" d="M1647,2334v65v97h-83v51h-21l1,-42 -13,-21 -80,-57v-95Z"/>
    <path data-fips-int="27005" data-name="Becker County" d="M818,1344l-1,197 -3,50 -170,-4 -218,-8 4,-148h-9l5,-97h49l195,7Z"/>
    <path data-fips-int="27007" data-name="Beltrami County" d="M1112,664l-1,295 -2,226v18h-97l-195,-5 1,-259 -20,-7 -10,-37 19,-40 -132,-3 -5,-86 5,-108v-99l97,2 49,2 -3,98Z"/>
    <path data-fips-int="27009" data-name="Benton County" d="M1353,2103l1,148 -153,-2 -21,-30 -4,-61 -22,-30 -32,-28Z"/>
    <path data-fips-int="27011" data-name="Big Stone County" d="M140,2206l231,10v97l50,3 -4,96 4,35 -72,-43 -64,-13 -16,-57 -46,-25 -25,-1 -29,-64Z"/>
    <path data-fips-int="27013" data-name="Blue Earth County" d="M1249,2995h98v24l-1,197 -195,-2h-49l2,-148 -2,-88 65,35 63,28 23,-13Z"/>
    <path data-fips-int="27015" data-name="Brown County" d="M940,2868l45,33 85,35 16,37 16,5 2,88 -199,-3 -97,-4 -3,-48 2,-48 97,2 3,-122Z"/>
    <path data-fips-int="27017" data-name="Carlton County" d="M1925,1626l2,138 -296,1 -4,-194 294,-2Z"/>
    <path data-fips-int="27019" data-name="Carver County" d="M1350,2577v50h96l1,51 -41,24 2,26 -60,40v-18h-47v-25h-50v-150Z"/>
    <path data-fips-int="27021" data-name="Cass County" d="M1353,1421l-2,128 -218,-3 3,105v186l-6,6 -32,-31 -45,17 -44,-27 -30,-12 -19,-15 2,-231 49,2 3,-293 -2,-50h97v-18l31,16 84,-34 33,41v32l44,30 50,-5 -11,41 13,14Z"/>
    <path data-fips-int="27023" data-name="Chippewa County" d="M762,2472l-5,147 -92,-2 -3,78 -5,-20 -94,-86 -16,-5 -71,-82 -27,-40 158,7Z"/>
    <path data-fips-int="27025" data-name="Chisago County" d="M1716,2155l-11,6 -6,80 45,3 49,69v28l-37,58h-109v-65l-2,-81 -47,-2v-96Z"/>
    <path data-fips-int="27027" data-name="Clay County" d="M426,1334l-5,97h9l-4,148 -2,48 -42,-1 -195,-7v-110l16,-63 -22,-20 4,-90 -7,-11Z"/>
    <path data-fips-int="27029" data-name="Clearwater County" d="M817,1198l4,48 -3,98 -148,-3 5,-196 4,-98h-9l3,-147 2,-48 132,3 -19,40 10,37 20,7Z"/>
    <path data-fips-int="27033" data-name="Cottonwood County" d="M805,3011l3,48 97,4 -3,148 -240,-7h-5l5,-196Z"/>
    <path data-fips-int="27035" data-name="Crow Wing County" d="M1351,1549l-1,120 -13,3v190l6,3 -6,48 -220,-1 -9,-40 22,-29 6,-6v-186l-3,-105Z"/>
    <path data-fips-int="27037" data-name="Dakota County" d="M1648,2629l5,66 43,-5 39,18 28,19 1,48h-24v48h-51l-2,15h-46v25l-97,2v-42v-48h-16l-4,-90 32,-12 29,-44 18,-17h32Z"/>
    <path data-fips-int="27039" data-name="Dodge County" d="M1787,3019l2,195h-4l-145,2 -2,-197h3Z"/>
    <path data-fips-int="27041" data-name="Douglas County" d="M795,1933l19,2 -2,188v8l-243,-8 2,-195Z"/>
    <path data-fips-int="27043" data-name="Faribault County" d="M1346,3216h49l-2,196 -244,-2 2,-196Z"/>
    <path data-fips-int="27045" data-name="Fillmore County" d="M2032,3212l142,-3 5,195 -294,5 -2,-188 22,-9Z"/>
    <path data-fips-int="27047" data-name="Freeborn County" d="M1638,3216l2,196h-247l2,-196h98Z"/>
    <path data-fips-int="27049" data-name="Goodhue County" d="M1961,2870h-75v48l-48,3 2,97 -53,1h-146v-156v-25h46l2,-15h51v-48h24l-1,-48 66,61 8,19 82,6Z"/>
    <path data-fips-int="27051" data-name="Grant County" d="M571,1928l-2,195 -194,-5v-148l3,-50Z"/>
    <path data-fips-int="27053" data-name="Hennepin County" d="M1447,2427h4l80,57 13,21 -1,42h21l9,-2 3,72 9,12 -29,44 -32,12 -77,-7 -1,-51h-96v-50v-48l43,-73Z"/>
    <path data-fips-int="27055" data-name="Houston County" d="M2355,3206l16,36 -6,93 16,19 8,46 -210,4 -5,-195Z"/>
    <path data-fips-int="27057" data-name="Hubbard County" d="M1012,1203l2,50 -3,293 -49,-2 -145,-3 1,-197 3,-98 -4,-48Z"/>
    <path data-fips-int="27059" data-name="Isanti County" d="M1598,2155v96l47,2 2,81 -196,-2v-81v-98Z"/>
    <path data-fips-int="27061" data-name="Itasca County" d="M1618,935l-2,97h9l-3,189 6,202 -275,-2v-101l-13,-14 11,-41 -50,5 -44,-30v-32l-33,-41 -84,34 -31,-16 2,-226 243,1v-28Z"/>
    <path data-fips-int="27063" data-name="Jackson County" d="M902,3211h2l-3,193 -248,-4 9,-196Z"/>
    <path data-fips-int="27065" data-name="Kanabec County" d="M1631,1913v100h-35l2,142 -147,-2 -1,-140h32v-98Z"/>
    <path data-fips-int="27067" data-name="Kandiyohi County" d="M956,2377l-2,245 -197,-3 5,-147v-148l48,2 147,3Z"/>
    <path data-fips-int="27069" data-name="Kittson County" d="M385,290l-6,158 8,2 -5,96 -288,-12 26,-78 -16,-30 -6,-65 -22,-66 3,-18Z"/>
    <path data-fips-int="27071" data-name="Koochiching County" d="M1614,521l-3,314 7,100 -264,-3v28l-243,-1 1,-295 2,-189 52,-2 16,31 148,14 20,65h56l66,-17v-23l45,-22 52,-8Z"/>
    <path data-fips-int="27073" data-name="Lac qui Parle County" d="M421,2447l28,15 27,40 71,82 16,5v25l-45,-2 -1,48 -241,-10 9,-259 64,13Z"/>
    <path data-fips-int="27075" data-name="Lake County" d="M2387,754l9,171 6,238 -31,30 -95,122 -42,44 -34,17 -85,90 -4,-185 -2,-178 -7,-114 -3,-235 33,5 5,35 23,18 30,-6 -6,33 32,-12 19,10 71,-20 42,-43Z"/>
    <path data-fips-int="27077" data-name="Lake of the Woods County" d="M1114,475l-2,189 -294,-3 3,-98 -49,-2 3,-98 94,3 1,-118 -16,13 -40,9 -23,-40v3l-5,-30 63,2 4,-218 35,17 39,-9 46,44 18,99 8,15 19,100 -1,77 37,36Z"/>
    <path data-fips-int="27079" data-name="Le Sueur County" d="M1446,2823v196h-99v-24h-98l21,-39 13,-86 18,-37 -10,-10Z"/>
    <path data-fips-int="27081" data-name="Lincoln County" d="M416,2755l1,60 -4,186 -151,-6 10,-245Z"/>
    <path data-fips-int="27083" data-name="Lyon County" d="M614,2812l-4,196 -190,-7h-7l4,-186 -1,-60 197,5Z"/>
    <path data-fips-int="27085" data-name="McLeod County" d="M1154,2574l97,1v150l-97,-2 -1,50 -97,-1v-50v-98l1,-50Z"/>
    <path data-fips-int="27087" data-name="Mahnomen County" d="M670,1341l-195,-7 7,-194 193,5Z"/>
    <path data-fips-int="27089" data-name="Marshall County" d="M675,559v99l-5,108 -233,-7 -106,-7 -243,-10 16,-84 -16,-40 16,-34 -10,-50 288,12Z"/>
    <path data-fips-int="27091" data-name="Martin County" d="M1102,3214h49l-2,196 -248,-6 3,-193Z"/>
    <path data-fips-int="27093" data-name="Meeker County" d="M1154,2404v170h-97l-1,50 -102,-2 2,-245 151,2v25Z"/>
    <path data-fips-int="27095" data-name="Mille Lacs County" d="M1482,1915v98h-32l1,140v98h-97l-1,-148 -2,-92h-16l2,-98 6,-48 142,-2Z"/>
    <path data-fips-int="27097" data-name="Morrison County" d="M1130,1843l-22,29 9,40 220,1 -2,98h16l2,92 -231,-3 32,28 -146,-2 1,-324 44,27 45,-17Z"/>
    <path data-fips-int="27099" data-name="Mower County" d="M1785,3214v8l98,-1 2,188 -245,3 -2,-196h2Z"/>
    <path data-fips-int="27101" data-name="Murray County" d="M610,3008h52l-5,196 -240,-8h-4l7,-195Z"/>
    <path data-fips-int="27103" data-name="Nicollet County" d="M1249,2995l4,33 -23,13 -63,-28 -65,-35 -16,-5 -16,-37 -85,-35 -45,-33h64l279,2 -13,86Z"/>
    <path data-fips-int="27105" data-name="Nobles County" d="M657,3204h5l-9,196 -245,-6 9,-198Z"/>
    <path data-fips-int="27107" data-name="Norman County" d="M182,1127l31,3 269,10 -7,194h-49l-248,-9 9,-135 -11,-22Z"/>
    <path data-fips-int="27109" data-name="Olmsted County" d="M1840,3018h92l2,48h97l1,146h-127l-22,9 -98,1v-8h4l-2,-195Z"/>
    <path data-fips-int="27111" data-name="Otter Tail County" d="M814,1591v196v148l-19,-2 -224,-5 -193,-8 1,-98 -4,-53 7,-143 42,1 2,-48 218,8Z"/>
    <path data-fips-int="27113" data-name="Pennington County" d="M670,766l5,86 -2,48 -47,-5v-13l-292,-10 -5,-33 2,-87 106,7Z"/>
    <path data-fips-int="27115" data-name="Pine County" d="M1927,1764l1,194 -22,34 -27,-7 -19,31 -65,22 -26,22 -22,53 -31,42h-118l-2,-142h35v-100v-148Z"/>
    <path data-fips-int="27117" data-name="Pipestone County" d="M413,3001h7l-7,195 -158,-5 7,-196Z"/>
    <path data-fips-int="27119" data-name="Polk County" d="M331,752l-2,87 5,33 -3,65 48,2v50l194,6 2,-50 49,2 2,-52 47,5 -3,147h9l-4,98 -193,-5 -269,-10 -31,-3 5,-55 -58,-157 -13,-51 -2,-50 -11,-13 -15,-59Z"/>
    <path data-fips-int="27121" data-name="Pope County" d="M812,2131l-2,195 -48,-2 -194,-5 1,-196Z"/>
    <path data-fips-int="27123" data-name="Ramsey County" d="M1647,2496h14v131l-13,2 -13,-17h-32l-18,17 -9,-12 -3,-72 -9,2v-51Z"/>
    <path data-fips-int="27125" data-name="Red Lake County" d="M626,895l-2,52 -49,-2 -2,50 -194,-6v-50l-48,-2 3,-65 292,10Z"/>
    <path data-fips-int="27127" data-name="Redwood County" d="M866,2820l41,23 -3,122 -97,-2 -2,48 -143,-3h-52l4,-196 94,3 3,-88 44,18 59,55Z"/>
    <path data-fips-int="27129" data-name="Renville County" d="M954,2622l102,2v98h-52v146h-64l-33,-25 -41,-23 -52,-20 -59,-55 -44,-18 -49,-32 3,-78 92,2Z"/>
    <path data-fips-int="27131" data-name="Rice County" d="M1544,2823v42l97,-2v156h-3h-145h-47v-196Z"/>
    <path data-fips-int="27133" data-name="Rock County" d="M413,3196h4l-9,198 -162,-7 9,-196Z"/>
    <path data-fips-int="27135" data-name="Roseau County" d="M786,303l5,30v-3l23,40 40,-9 16,-13 -1,118 -94,-3 -3,98 -97,-2 -293,-13 5,-96 -8,-2 6,-158Z"/>
    <path data-fips-int="27137" data-name="Saint Louis County" d="M2099,754l3,235 7,114 2,178 4,185 -19,8 -96,80 31,45 -32,-23h-1l-27,18 -1,-2 -10,7v2l-2,26 -33,-1 -4,-57 -294,2 1,-148 -6,-202 3,-189h-9l2,-97 -7,-100 3,-314 49,-3 10,15 75,36 35,-1 3,21 -32,24 29,15 48,-7 19,18 -8,22 41,86 38,-16 -15,-39 18,-20 76,-4 22,21 -3,32 19,18 25,-3Z"/>
    <path data-fips-int="27139" data-name="Scott County" d="M1524,2685l4,90h16v48h-98h-155l23,-46 34,-9 60,-40 -2,-26 41,-24Z"/>
    <path data-fips-int="27141" data-name="Sherburne County" d="M1354,2251h97v81v95h-4l-13,-25 -84,-3 -110,-71 -32,-35 -7,-44Z"/>
    <path data-fips-int="27143" data-name="Sibley County" d="M1251,2725h50v25h47v18l-34,9 -23,46 10,10 -18,37 -279,-2v-146h52v50l97,1 1,-50Z"/>
    <path data-fips-int="27145" data-name="Stearns County" d="M1154,2128l22,30 4,61 21,30 7,44 32,35 -19,44 -25,22 -39,-3 -3,13h-47v-25l-151,-2 1,-48 -147,-3 2,-195v-8l196,3Z"/>
    <path data-fips-int="27147" data-name="Steele County" d="M1638,3019l2,197h-2h-145v-197Z"/>
    <path data-fips-int="27149" data-name="Stevens County" d="M568,2319l-147,-3 -50,-3v-97l4,-98 194,5Z"/>
    <path data-fips-int="27151" data-name="Swift County" d="M762,2324v148l-155,-3 -158,-7 -28,-15 -4,-35 4,-96 147,3Z"/>
    <path data-fips-int="27153" data-name="Todd County" d="M979,1790l30,12 -1,324 -196,-3 2,-188v-148Z"/>
    <path data-fips-int="27155" data-name="Traverse County" d="M375,1970v148l-4,98 -231,-10 -1,-30 71,-51 36,-47 12,-73 -3,-40Z"/>
    <path data-fips-int="27157" data-name="Wabasha County" d="M1961,2870l76,28 55,40 13,58 14,20 -90,2 2,48h-97l-2,-48h-92l-2,-97 48,-3v-48Z"/>
    <path data-fips-int="27159" data-name="Wadena County" d="M962,1544l-2,231 19,15 -165,-3v-196l3,-50Z"/>
    <path data-fips-int="27161" data-name="Waseca County" d="M1493,3019v197h-98h-49l1,-197h99Z"/>
    <path data-fips-int="27163" data-name="Washington County" d="M1756,2399l-9,62 11,41 -24,25 16,22 6,51 -6,59 -15,49 -39,-18 -43,5 -5,-66 13,-2v-131h-14v-97Z"/>
    <path data-fips-int="27165" data-name="Watonwan County" d="M1104,3066l-2,148 -198,-3h-2l3,-148Z"/>
    <path data-fips-int="27167" data-name="Wilkin County" d="M382,1626l-7,143 4,53 -1,98 -3,50 -120,-5 8,-47 -10,-41 -3,-85 -37,-55 -26,-118Z"/>
    <path data-fips-int="27169" data-name="Winona County" d="M2119,3016l61,38 51,52 63,15 61,85 -181,3 -142,3 -1,-146 -2,-48Z"/>
    <path data-fips-int="27171" data-name="Wright County" d="M1240,2328l110,71 84,3 13,25 -54,29 -43,73v48l-99,-2 -97,-1v-170l3,-13 39,3 25,-22Z"/>
    <path data-fips-int="27173" data-name="Yellow Medicine County" d="M662,2695l49,32 -3,88 -94,-3 -1,-52 -197,-5 -144,-5 4,-100 241,10 1,-48 45,2v-25l94,86Z"/>
    <path data-fips-int="27031" data-name="Cook County" d="M2941,840l-21,4 -20,28 -51,38 -39,14 -19,20 -65,21 -140,55 -67,42 -58,45 -59,56 -6,-238 -9,-171 54,-33 17,3 3,30 32,53 72,-21 2,16h66l93,-16 41,15 22,38 37,13 39,-23Z"/>
  </g>
  <path class="mesh" transform="scale(0.1)" d="M817,1198l4,48 -3,98 -1,197 -3,50 -170,-4 -218,-8 4,-148h-9l5,-97h49l195,7 148,3M140,2206l231,10v97l50,3 -4,96 4,35 -72,-43 -64,-13M1104,3066l-199,-3 -97,-4 -3,-48 2,-48 97,2 3,-122 33,25 45,33 85,35 16,37 16,5M1631,1913l-149,2 3,-52 -142,2 -6,-3v-190l13,-3 1,-120 2,-128 275,2 -1,148 294,-2 4,57M1351,1549l-218,-3 3,105v186l-6,6 -32,-31 -45,17 -44,-27 -30,-12 -19,-15 2,-231 49,2 3,-293 -2,-50M1109,1185l31,16 84,-34 33,41v32l44,30 50,-5 -11,41 13,14v101M1756,2399h-109M1647,2334v65v97h-83v51h-21l1,-42 -13,-21 -80,-57v-95l196,2 -2,-81 -47,-2v-96h118M426,1579l-2,48 -42,-1 -195,-7M178,1325l248,9M670,1341l5,-196 4,-98h-9l3,-147 2,-48M905,3063l-3,148 -240,-7h-5l5,-196 143,3M1343,1865l-6,48 -220,-1 -9,-40 22,-29M1763,2727l1,48h-24v48h-51l-2,15h-46v25l-97,2v-42v-48h-16l-4,-90 32,-12 29,-44 18,-17h32l13,17 5,66 43,-5 39,18M1961,2870h-75v48l-48,3 2,97 -53,1 2,195h-4l-145,2 -2,-197h3h146M795,1933l19,2 -2,188v8l-243,-8 2,-195 224,5M1346,3216h49l-2,196M1149,3410l2,-196M1885,3409l-2,-188 22,-9h127l142,-3 5,195M1395,3216h98h145l2,196M1641,3019v-156M762,2324l-194,-5 1,-196 -194,-5v-148l3,-50 193,8M1350,2577v50h96l1,51 -41,24 2,26 -60,40v-18h-47v-25h-50v-150l99,2v-48l43,-73 54,-29h4M1564,2547l9,-2 3,72 9,12M1524,2685l-77,-7M2174,3209l181,-3M962,1544l-145,-3M1627,1571l4,194v148v100h-35l2,142M1111,959l243,1v-28l264,3 -2,97h9l-3,189 6,202M902,3211h2l-3,193M653,3400l9,-196M762,2472l-5,147 -92,-2 -3,78 -5,-20 -94,-86 -16,-5 -71,-82 -27,-40 158,7 155,3v-148l48,2 147,3 -1,48 -2,245 -197,-3M385,290l-6,158 8,2 -5,96 -288,-12M1614,521l-3,314 7,100M1112,664l-1,295 -2,226v18h-97l-195,-5 1,-259 -20,-7 -10,-37 19,-40 -132,-3 -5,-86 5,-108v-99l97,2 49,2 -3,98 294,3 2,-189M421,2447l28,15M563,2589v25l-45,-2 -1,48 -241,-10M2387,754l9,171 6,238 -31,30 -95,122 -42,44 -34,17 -85,90 -4,-185 -2,-178 -7,-114 -3,-235M772,561l3,-98 94,3 1,-118 -16,13 -40,9 -23,-40v3l-5,-30M1249,2995h98v24l-1,197 -195,-2h-49l2,-148 -2,-88 65,35 63,28 23,-13 -4,-33 21,-39 13,-86 18,-37 -10,-10h155v196h-99M272,2750l144,5 1,60 -4,186 -151,-6M416,2755l197,5 1,52 -4,196 -190,-7h-7M1251,2725l-97,-2 -1,50 -97,-1v-50v-98l1,-50h97l97,1M475,1334l7,-194 193,5M670,766l-233,-7 -106,-7 -243,-10M382,546l293,13M904,3211l198,3M956,2377l151,2v25h47v170M1056,2624l-102,-2M1451,2251h-97M1353,2103l1,148 -153,-2 -21,-30 -4,-61 -22,-30 -32,-28 231,3 -2,-92h-16l2,-98M1154,2128l-146,-2 1,-324M1785,3214v8l98,-1M1638,3216h2M610,3008h52M657,3204l-240,-8h-4l7,-195M940,2868h64l279,2M408,3394l9,-198M182,1127l31,3 269,10M1840,3018h92l2,48h97l1,146M814,1591v196v148M378,1920l1,-98 -4,-53 7,-143M673,900l-47,-5v-13l-292,-10 -5,-33 2,-87M413,3196l-158,-5M334,872l-3,65 48,2v50l194,6 2,-50 49,2 2,-52M812,2131l-2,195M1647,2496h14v131l-13,2M614,2812l94,3 3,-88 44,18 59,55 52,20 41,23M1056,2722h-52v146M711,2727l-49,-32M1638,3019h-145h-47M1446,2823h98M2115,1466l-19,8 -96,80 31,45M1291,2823l23,-46 34,-9M1447,2427l-13,-25 -84,-3 -110,-71 -32,-35 -7,-44M1240,2328l-19,44 -25,22 -39,-3 -3,13M812,2123l196,3M1493,3216v-197M568,2319l-147,-3M371,2216l4,-98M814,1787l165,3M255,1965l120,5M2119,3016l-90,2 2,48M2402,1163l59,-56 58,-45 67,-42 140,-55 65,-21 19,-20 39,-14 51,-38 20,-28 21,-4M1927,1764l-296,1M1451,2332v-81v-98l147,2M1451,2153l-1,-140h32v-98"/>
  <g class="cities">
    <circle r="3" cx="155.0" cy="257.8"/>
    <text x="155.0" y="257.8">Minneapolis</text>
    <circle r="3" cx="187.3" cy="311.6"/>
    <text x="187.3" y="311.6">Rochester</text>
    <circle r="3" cx="199.7" cy="155.8"/>
    <text x="199.7" y="155.8">Duluth</text>
  </g>
</svg>