<?xml version="1.0" encoding="utf-8"?>
<!DOCTYPE svg PUBLIC "-//W3C//DTD SVG 1.1//EN" "http://www.w3.org/Graphics/SVG/1.1/DTD/svg11.dtd">
<svg version="1.1" xmlns="http://www.w3.org/2000/svg" width="871" height="1000" viewBox="0 0 871 1000">
  <path class="state" d="M550,464v96h-3v1h-1v2l-1,1v4h-1v1h-1v-1h-3v-1h-5v2h-1v2l-1,2h-1v2h-4v-1h-3l-1,1h-2v4h-1v1h-2v1h-3v1h-4v2h-2v1h-1v1h-1v1h-1v1h-2v1h-1v1h-1v1l-1,1v4l-1,1h-1v1h-1v1l-1,1 1,1v3h-1v1h-1v4l-1,1 -1,1h-1v1l-1,1v1h-1l-1,1h-2v1h-1v1h-1v6h-1v4l-1,1v5l1,1 -1,1v2l1,2v2l3,1h1l8,-1 5,6v3l2,1v1h1v1h1v3l1,1v1h1l3,1v10h-1l-1,1v1h-1v2h-1l-1,1v2h-1h1v4l-1,1h-1v1h-1v1h-1v1h-1v1h-2v3l1,1 -1,3v4h1v3h-1v1l-1,1v2l2,2v1l-1,1 1,1v2h1v6h-1l-3,3h-1v2l-1,1h-1v1h1l4,5v2l-1,1v7h1v1h1v2l1,1v1l-2,4v1h-1v1h-1v1h1v2h1v2l-1,1v2l1,1v2h-1v1l-1,1v2l-1,1v3h-1v2h-1v3l1,1 8,5 4,3 2,2v1l1,1 4,4h1v5h1l3,1 1,1v-1l1,1h1v1h1v1l1,1v2h1v-1h5v1h5l14,3 2,2v1l2,3v3h1v1l5,4 14,6v1l20,10v1l4,2v7l3,2v2l1,1v3l-1,2h1l1,2v2l1,1 5,3 1,1 12,8h1v3l5,2v1l8,6v1l19,6 1,2 1,2h1v1h2l1,1v1l2,1v1l1,2v1h1v1l1,1v1l4,3v3l1,1 1,1 1,1v2h2v5l1,1v1l1,1 1,1v2l-1,2v4l-1,1h-1v11l1,1v6l4,4v3l-1,1v3l1,1v1l2,3v1h-9l-19,1h-18l-14,1h-33l-7,1h-56l-14,1h-168l-15,-1h-43l-21,-1h-24l-13,-1h-37l-4,-1 -43,-1h-20l-3,-1h-22l-15,-1h-13v-43l1,-14v-19l1,-6v-12l2,-18v-2l1,-4v-6l1,-38v-11l1,-10v-6l1,-11v-44l1,-6v-3l1,-32 1,-5 -2,-2v-1l-1,-2v-3l-4,-5h-2l-1,-1h-2l-1,-1 -1,-1 -2,-2h-6v-1l-1,1 -1,-1 -4,-3v-1l-4,-5v-5h-1v-2l-1,-2 -1,-1 -2,-4v-1l-4,-5 -2,-1v-1l-2,-2 2,-2v-1l2,-2v-1h1v-2l2,-1 3,-1v-1h1l1,-1h1l7,-6 5,-2 1,-2 1,-2v-3h1l2,-1 1,-2 1,-1 1,-1 1,-1v-1l1,-11v-6h1v-3h-1v-8h-1l1,-1v-1l-1,-1v-1l2,-3v-1h2v-4h1v-1l-1,-1h1v-2h-1v-2h-2v-4l-1,-1v-2h1l-1,-1 1,-1 -1,-1h-1v-2l1,-1h-1l1,-3 -1,-1v-4h1v-1v1h-1v-14v1v-2l-1,-1h1h-2v-1h-2l-1,-1h1v-1h-1l-1,-1v-1h-1v-5h-2v-1h1v-1h-2h1l-1,-1v1h-1v-1h1v-2l-1,1v-1h1v-1h-1v1l-1,-1v-1h1h-1v-1h1v-3h-1h1h-1v-1h-2h1v-4h-1h1v-1h-1v-1l1,1v-1l-1,-1 1,-1 -1,-2 1,1v-1l-1,-1v1l1,-1h-2l1,-1v1h1l-2,-2 1,-1h-1h2l-1,-1v-1h-1h1v-1l-1,1v-1h1h-1v-2h-2v-4h-1v-1h1h-2h1l1,-1h-2l1,-1v-2l-1,-1v-3h1h-1v-1h1v-1l1,-2h-1l1,-2v-1h-1h1v-2v1v-7h2h-2v-2h-1l1,-1v-1l-1,-1v-3l1,-1v-3l2,1v-2h-2v-1h2l-2,-1h2v-3l1,-1h-1v-2l1,-3v2l1,-2v-2h-1h1l1,-1h-1l-2,1v-1h-2v1v-6l-1,1 -1,-1v-6l-2,-1v-1l2,-1 1,-1 -1,-1 1,-1h-1v-2v1v-5h1v-2h-1h1v-4l-1,-1v-6h-2h3h-1v-1h1v-2h-1v-1h1h-1h1h-1l1,-1h-1v-1v1h-2v-1l3,-1h-1v-3h-2l2,-1v-1h1v-1h-1v-1v1v-3v1v-2v1v-1h-2h2v-5l1,-1v-1h-1v-1l1,-1h-1l1,-1v-1l-1,1v-1h1v-1h-1v-2l1,-1h-1v-2h-2h3v-1h-1v1v-1h-2h2v-1h1v-3h-1h1l-1,-1v-1h-2v-1l2,-1h-2v-1h2h-2v-1h2v-1h-2l2,-1v-1h-2h2v-2l-2,-1h2v-1h-2v-1h2l-2,-1h2v-3v1h1v-1h-1v-1l1,1v-1h-1l-2,-1v-1h2v-2h1h-1v-3l1,-1 -1,1h-2l2,-1h1h-1v-2l1,-1v-1h-1l1,-1h-1v-3h-2v-4h-1h1v-4h-1l1,-1h-1l-1,-2v-1h-1v-2v1v-4l-1,1h-1v-1h2v-1h-1v-2h-1l1,-1v-1l-1,-1h1h-1v-2l-1,-1h-2v-4v1l-1,-1 -2,-1v-1v1h2v-4h1h-3h2l-2,-2v-3h-2v-2h2h-2v-9h-2v-2l-2,-1v-1h1v-1l-1,-1v-3l1,-1v-1l-1,-1 -1,-1v-1h1h-1v-7h-2v-1l-1,-1v-5l-1,-1v-2l-1,-3h1l-1,-1h-1v1h-2v-1l2,-1h1l1,-1v-1h-2l-2,-1v-1h3v-1h-1l-2,-1 2,-1 1,-1v-1h-1h1l1,-1h-1v-1h1v2v-1h1h-1v-1l-1,-1h-1v1h-2v-1h2l1,-1h1v1v-1l-1,-1h-1h1v-2h1h-2h1l1,-1v-1h-1v-1h1v-1h1v-3h-1v1v-2l1,1v-2h-1l1,-1h-1v-2v1l1,-1v-1h-2h1v-1l1,-1 -1,-1v-1l-1,-1v-1l-1,-1h2v-1h-1l-1,-1v-1h-2l2,-1h2v-1h1v-1h-1v-1v1l-1,-2h2v1v-2h-1v-1l1,1v-3v1h-2h1v-1l1,-2v-1h-1v-2l1,1v-1h-3v-2h2v-1l1,1v-1h-1v-2l1,-1v-1l-1,1v-3h1l-1,-1h-1v-1h-1v-1h3v-2h-3h2v-3l1,-2h-1v-2h1v-1h-1h2h-1l1,-1v1v-2l2,-1v1v-4h2v-1l-1,-1h1v-4h1h-2v-1l-1,-1v-1h1l-1,-2v-1h-2v-1h2v-1h-3h1v-2h-1v-3l-1,-1h1v-3h-1v-1h-1h1l1,-1v-1h-1l-1,-1h-1h1v-1h1l-1,-1v-1h1v-2h-1h1v-2h-1v-1h1v-1h-2v-1h-2l2,-1 -2,-1h3l-1,-1h-2l-1,-1v-5l-1,-1v-8h1h-1v-1h1l31,1h14l31,2h1l5,1h33l18,1h24l4,1h27l6,1h26v-61h2l1,1 2,1h1l4,3 5,-1 3,-2h3l5,3 3,2 3,3 3,2v3l3,13v2l2,13 3,2 5,38v3l-1,3v1l-1,1 2,2 -1,2 1,1v2l1,1 1,1 1,1 2,2v1h2l1,2h1l1,2 5,1v1h3l1,1h4l1,2h1l1,-2v-1h4l2,-1 2,1h7l2,1h2v2l1,1v3h1l1,2h7l1,1h11l2,1h1l2,-1v1l10,1 8,1 2,16 5,2 18,-2h1l14,-3 1,-7 3,-2h5l2,-1h1v-2l7,-2 8,-1 2,2 1,1h3l7,-1 8,1h3l3,-1 1,4 4,2h2l17,7h6l5,4v3l-1,1h-1l-1,-1v1l-5,1v4l-1,1 16,3 3,-1h2l2,2 1,1h1v1l3,3 -1,2 -2,3 3,8 2,2 3,5 1,1 1,2v3l1,1 1,2h1l1,-1 1,-1h2l1,-1h1l3,-1h1v-2l-3,-2v-1l-1,-2 1,-3 -1,-1 2,-4 3,-2 3,1h2v-1h1l1,1 2,-1v-1l1,-1h2v1h9l1,1 6,5 -2,3v2l1,1v2l1,1h1v2h1v1l1,-1v-1h1l1,1 1,1h-2v2h2l1,-1h3l1,2 3,1 1,2h5v1l3,1 2,-1v-1l1,1h2v-1l3,2v1l-1,1v1l1,-1 1,2v3l1,1 -1,2v1h-1h3v2h4v1l8,2v4l1,3 11,-3h2v1h1v1h1l3,-1 2,-1 1,-1h5v-1h4l1,-1 2,-1 2,-1v-1l3,-1 2,-3h1v-1l3,-3 1,-1v-1h1l2,-1v-1l2,-1 1,-1h3v-1h3l1,-1 1,-1v-1l4,-3 6,-2 1,-1h8v10h1v-1l2,1 1,1h1l1,1v2l-1,1v2l1,1 2,1v3l1,1h1l6,-1 5,-1 2,-2 5,-2v1l1,-1v5l5,-1h3l2,-1 1,-1 2,1 1,1 4,-1h1v1l1,1h1l2,-1h1l2,-1 2,-1h1v1h1l2,-1h2l3,-1 1,1 1,-1h2l1,-1 1,1h2l1,-1h1l1,1h3l3,1 2,1h1v1l2,2 1,1h1v1l1,1v4l1,1h1l1,1h4v2l2,1 1,1h5l1,-1v-2h3v-2h6l1,-1h1l1,1h2l1,1 2,-1h3l1,1h2v-1h3l1,1h1v1h2h-4l-22,19 -15,9 -31,11 -31,13 -25,16 -26,24 -45,54 -14,9 -23,23 -6,3 -26,22 -8,11v1l-4,11h-4l-1,1 -2,-1h-1l-2,-1v-2v1Z"/>
  <g class="subcounties">
    <path data-geo-id="2707" data-name="Congressional District 7" d="M22,83v-3h1h-1v-1h1l31,1h14l31,2h1l5,1h33l18,1h24l4,1h27l6,1h26v-61h2l1,1 2,1h1l4,3 5,-1 3,-2h3l5,3 3,2 3,3 3,2v3l3,13v2l2,13 2,18h3l3,22v3l-1,3v1l-1,1 2,2 -1,2 1,1v2l1,1 1,1 1,1 2,2v1h2l1,2h1l1,2 5,1v1h3l1,1h4l1,2h1l1,-2v-1v124h-34l-1,9h-6v11h-14v45l5,4v1h8v14h-21v-1h-20v7l-1,4v3h1v89l-1,2v19l1,3v16l-1,2v23h33l1,1h13v1h1v2h5v-2h1v2h1v11h1v7l-1,3v43l-1,1v3h1v25h14l1,46 -2,6 -5,6h-9v15h29v6h14v50h28v43h14v6h12v6h2v1h-2v-1l-2,2v-1h-2l-3,2v-1l-2,2v1h-1l-1,1h-1v1h-1l-2,2h2v1h-2v1h2l-2,2h2v2h-2v-1h-1v2h1v2h3v3l-3,3v1l-1,2 -1,1h1l-2,1h-25l-4,-1h-70l-2,-3v-1l-3,-1 -1,-1h-1l-1,-1v10l-1,2v23h-12l-3,-1h-14v14l-5,2 -2,12h9l-2,42h-46l-2,-1h-31v-1h-25l-1,-1h-28l-1,-1h-20l-2,-1h-1v-19l1,-6v-12l2,-18v-2l1,-4v-6l1,-38v-11l1,-10v-6l1,-11v-44l1,-6v-3l1,-32 1,-5 -2,-2v-1l-1,-2v-3l-4,-5h-2l-1,-1h-2l-1,-1 -1,-1 -2,-2h-6v-1l-1,1 -1,-1 -4,-3v-1l-4,-5v-5h-1v-2l-1,-2 -1,-1 -2,-4v-1l-4,-5 -2,-1v-1l-2,-2 2,-2v-1l2,-2v-1h1v-2l2,-1 3,-1v-1h1l1,-1h1l7,-6 5,-2 1,-2 1,-2v-3h1l2,-1 1,-2 1,-1 1,-1 1,-1v-1l1,-11v-6h1v-3h-1v-8h-1l1,-1v-1l-1,-1v-1l2,-3v-1h2v-4h1v-1l-1,-1h1v-2h-1v-2h-2v-4l-1,-1v-2h1l-1,-1 1,-1 -1,-1h-1v-2l1,-1h-1l1,-3 -1,-1v-4h1v-1v1h-1v-14v1v-2l-1,-1h1h-2v-1h-2l-1,-1h1v-1h-1l-1,-1v-1h-1v-5h-2v-1h1v-1h-2h1l-1,-1v1h-1v-1h1v-2l-1,1v-1h1v-1h-1v1l-1,-1v-1h1h-1v-1h1v-3h-1h1h-1v-1h-2h1v-4h-1h1v-1h-1v-1l1,1v-1l-1,-1 1,-1 -1,-2 1,1v-1l-1,-1v1l1,-1h-2l1,-1v1h1l-2,-2 1,-1h-1h2l-1,-1v-1h-1h1v-1l-1,1v-1h1h-1v-2h-2v-4h-1v-1h1h-2h1l1,-1h-2l1,-1v-2l-1,-1v-3h1h-1v-1h1v-1l1,-2h-1l1,-2v-1h-1h1v-2v1v-7h2h-2v-2h-1l1,-1v-1l-1,-1v-3l1,-1v-3l2,1v-2h-2v-1h2l-2,-1h2v-3l1,-1h-1v-2l1,-3v2l1,-2v-2h-1h1l1,-1h-1l-2,1v-1h-2v1v-6l-1,1 -1,-1v-6l-2,-1v-1l2,-1 1,-1 -1,-1 1,-1h-1v-2v1v-5h1v-2h-1h1v-4l-1,-1v-6h-2h3h-1v-1h1v-2h-1v-1h1h-1h1h-1l1,-1h-1v-1v1h-2v-1l3,-1h-1v-3h-2l2,-1v-1h1v-1h-1v-1v1v-3v1v-2v1v-1h-2h2v-5l1,-1v-1h-1v-1l1,-1h-1l1,-1v-1l-1,1v-1h1v-1h-1v-2l1,-1h-1v-2h-2h3v-1h-1v1v-1h-2h2v-1h1v-3h-1h1l-1,-1v-1h-2v-1l2,-1h-2v-1h2h-2v-1h2v-1h-2l2,-1v-1h-2h2v-2l-2,-1h2v-1h-2v-1h2l-2,-1h2v-3v1h1v-1h-1v-1l1,1v-1h-1l-2,-1v-1h2v-2h1h-1v-3l1,-1 -1,1h-2l2,-1h1h-1v-2l1,-1v-1h-1l1,-1h-1v-3h-2v-4h-1h1v-4h-1l1,-1h-1l-1,-2v-1h-1v-2v1v-4l-1,1h-1v-1h2v-1h-1v-2h-1l1,-1v-1l-1,-1h1h-1v-2l-1,-1h-2v-4v1l-1,-1 -2,-1v-1v1h2v-4h1h-3h2l-2,-2v-3h-2v-2h2h-2v-9h-2v-2l-2,-1v-1h1v-1l-1,-1v-3l1,-1v-1l-1,-1 -1,-1v-1h1h-1v-7h-2v-1l-1,-1v-5l-1,-1v-2l-1,-3h1l-1,-1h-1v1h-2v-1l2,-1h1l1,-1v-1h-2l-2,-1v-1h3v-1h-1l-2,-1 2,-1 1,-1v-1h-1h1l1,-1h-1v-1h1v2v-1h1h-1v-1l-1,-1h-1v1h-2v-1h2l1,-1h1v1v-1l-1,-1h-1h1v-2h1h-2h1l1,-1v-1h-1v-1h1v-1h1v-3h-1v1v-2l1,1v-2h-1l1,-1h-1v-2v1l1,-1v-1h-2h1v-1l1,-1 -1,-1v-1l-1,-1v-1l-1,-1h2v-1h-1l-1,-1v-1h-2l2,-1h2v-1h1v-1h-1v-1v1l-1,-2h2v1v-2h-1v-1l1,1v-3v1h-2h1v-1l1,-2v-1h-1v-2l1,1v-1h-3v-2h2v-1l1,1v-1h-1v-2l1,-1v-1l-1,1v-3h1l-1,-1h-1v-1h-1v-1h3v-2h-3h2v-3l1,-2h-1v-2h1v-1h-1h2h-1l1,-1v1v-2l2,-1v1v-4h2v-1l-1,-1h1v-4h1h-2v-1l-1,-1v-1h1l-1,-2v-1h-2v-1h2v-1h-3h1v-2h-1v-3l-1,-1h1v-3h-1v-1h-1h1l1,-1v-1h-1l-1,-1h-1h1v-1h1l-1,-1v-1h1v-2h-1h1v-2h-1v-1h1v-1h-2v-1h-2l2,-1 -2,-1h3l-1,-1h-2l-1,-1v-5l-1,-1v-5Z"/>
    <path data-geo-id="2706" data-name="Congressional District 6" d="M301,659l2,-6 -1,-46h28h-1v-1h-4v-2h-2l-3,-4h58l1,1h8v42h28v23h55v18l1,1h31h-2v3l1,1 -1,3v4h1v3h-1v1l-1,1v2l2,2v1l-1,1 1,1v2h1v3h-59v-14h-13v4h-2l-2,-1 -1,-1v-2l-2,-1h-2v-1h-4l-1,-2v-1l-1,-1h-1v1h1v1h-1v1h-1v1h-1v-1h-1v1h-2l-1,1h-2v2h-1l-1,-1 -1,1v-1l-1,1v-1h-1l1,1 -1,1v-1h-1v1h-2v2h1l1,1h1l-5,4 -1,1v1h-2v1l-1,2v1l-1,1v1l-1,1 -1,3h-2v1l-1,1h1h-1v38l19,9 -1,1h-1v3h-1l-1,1v6h1v1h-1l-1,1h-1l-2,-1 -1,1v1l-1,1 -1,1 -1,1h-1l-1,1 1,1h-2v1l-1,1h-2l-1,1h1v1h-1v-1h-2v-6h-12v-6h-14v-43h-28v-50h-14v-6h-29v-15h9Z"/>
    <path data-geo-id="2701" data-name="Congressional District 1" d="M71,933v-8l1,-14h1l2,1h20l1,1h28l1,1h25v1h31l2,1h46l2,-42h-9l2,-12 5,-2v-14h14l3,1h12v-23l1,-2v-10l1,1h1l1,1 3,1v1l2,3h70l4,1h25l2,-1h-1l1,-1 1,-2v-1l3,-3v-3h-3v-2h-1v-1h64l1,11 8,3v15h13v27h96l2,9 3,5h25v-15h24l5,3 1,1 12,8h1v3l5,2v1l8,6v1l19,6 1,2 1,2h1v1h2l1,1v1l2,1v1l1,2v1h1v1l1,1v1l4,3v3l1,1 1,1 1,1v2h2v5l1,1v1l1,1 1,1v2l-1,2v4l-1,1h-1v11l1,1v6l4,4v3l-1,1v3l1,1v1l2,3v1h-9l-19,1h-18l-14,1h-33l-7,1h-56l-14,1h-168l-15,-1h-43l-21,-1h-24l-13,-1h-37l-4,-1 -43,-1h-20l-3,-1h-22l-15,-1h-13v-20Z"/>
    <path data-geo-id="2703" data-name="Congressional District 3" d="M386,760v-38h1h-1l1,-1v-1h2l1,-3 1,-1v-1l1,-1v-1l1,-2v-1h2v-1l1,-1 5,-4h-1l-1,-1h-1v-2h2v-1h1v1l1,-1 -1,-1h1v1l1,-1v1l1,-1 1,1h1v-2h2l1,-1h2v-1h1v1h1v-1h1v-1h1v-1h-1v-1h1l1,1v1l1,2h4v1h2l2,1v2l1,1 2,1h2v-4h13v14l-3,1v-1l1,3v6h-14v20l9,13h14l-1,2v2h-1v1l-1,1h-2v2h-2l-2,1h-1v1l-5,1v1h-1v-1h-1v1h-3l-1,-1v-1h-1l-1,-1h-2l-2,-1 -1,1h-8l-3,1v1l-1,-1h-2l-1,1h-1v2h-1v1Z"/>
    <path data-geo-id="2705" data-name="Congressional District 5" d="M441,722v-6l-1,-3v1l3,-1h4v11l2,3v14l1,3v3l1,1v2h2v1h-1v1h1l-1,1h-1v1l-1,1h-14l-9,-13v-20Z"/>
    <path data-geo-id="2704" data-name="Congressional District 4" d="M447,714v-1h55v3h-1l-3,3h-1v2l-1,1h-1v1h1l4,5v2l-1,1v7h1v1h1v2l1,1v1l-2,4v1h-1v1h-1v1h1v2h1v2l-1,1h-24l-3,3v-4l-1,-2 -4,-6h-4v-1h-1v1h-3l-3,3 -3,2v-1h-2v-2l-1,-1v-3l-1,-3v-14l-2,-3v-10Z"/>
    <path data-geo-id="2708" data-name="Congressional District 8" d="M234,346v-4h20v1h21v-14h-8v-1l-5,-4v-45h14v-11h6l1,-9h34v-124h4l2,-1 2,1h7l2,1h2v2l1,1v3h1l1,2h7l1,1h11l2,1h1l2,-1v1l10,1 8,1 2,17 5,1 18,-2h1l14,-3 1,-7 3,-2h5l2,-1h1v-2l7,-2 8,-1 2,2 1,1h3l7,-1 8,1h3l3,-1 1,4 4,2h2l17,7h6l5,4v3l-1,1h-1l-1,-1v1l-5,1v4l-1,1 16,3 3,-1h2l2,2 1,1h1v1l3,3 -1,2 -2,3 3,8 2,2 3,5 1,1 1,2v3l1,1 1,2h1l1,-1 1,-1h2l1,-1h1l3,-1h1v-2l-3,-2v-1l-1,-2 1,-3 -1,-1 2,-4 3,-2 3,1h2v-1h1l1,1 2,-1v-1l1,-1h2v1h9l1,1 6,5 -2,3v2l1,1v2l1,1h1v2h1v1l1,-1v-1h1l1,1 1,1h-2v2h2l1,-1h3l1,2 3,1 1,2h5v1l3,1 2,-1v-1l1,1h2v-1l3,2v1l-1,1v1l1,-1 1,2v3l1,1 -1,2v1h-1h3v2h4v1l8,2v4l1,3 11,-3h2v1h1v1h1l3,-1 2,-1 1,-1h5v-1h4l1,-1 2,-1 2,-1v-1l3,-1 2,-3h1v-1l3,-3 1,-1v-1h1l2,-1v-1l2,-1 1,-1h3v-1h3l1,-1 1,-1v-1l4,-3 6,-2 1,-1h8v10h1v-1l2,1 1,1h1l1,1v2l-1,1v2l1,1 2,1v3l1,1h1l6,-1 5,-1 2,-2 5,-2v1l1,-1v5l5,-1h3l2,-1 1,-1 2,1 1,1 4,-1h1v1l1,1h1l2,-1h1l2,-1 2,-1h1v1h1l2,-1h2l3,-1 1,1 1,-1h2l1,-1 1,1h2l1,-1h1l1,1h3l3,1 2,1h1v1l2,2 1,1h1v1l1,1v4l1,1h1l1,1h4v2l2,1 1,1h5l1,-1v-2h3v-2h6l1,-1h1l1,1h2l1,1 2,-1h3l1,1h2v-1h3l1,1h1v1h2h-4l-22,19 -15,9 -31,11 -31,13 -25,16 -26,24 -45,54 -14,9 -23,23 -6,3 -26,22 -8,11v1l-4,11h-4l-1,1 -2,-1h-1l-2,-1v-2v97h-3v1h-1v2l-1,1v4h-1v1h-1v-1h-3v-1h-5v2h-1v2l-1,2h-1v2h-4v-1h-3l-1,1h-2v4h-1v1h-2v1h-3v1h-4v2h-2v1h-1v1h-1v1h-1v1h-2v1h-1v1h-1v1l-1,1v4l-1,1h-1v1h-1v1l-1,1 1,1v3h-1v1h-1v4l-1,1 -1,1h-1v1l-1,1v1h-1l-1,1h-2v1h-1v1h-1v6h-1v4l-1,1v5l1,1 -1,1v2l1,2v2l3,1h1l8,-1 5,6v3l2,1v1h1v1h1v3l1,1v1h1l3,1v10h-1l-1,1v1h-1v2h-1l-1,1v2h-1h1v4l-1,1h-1v1h-1v1h-1v1h-1v1h-31l-1,-1v-18h-55v-23h-28v-42h-8l-1,-1h-58l3,4h2v2h4v1h1h-42v-25h-1v-3l1,-1v-43l1,-3v-7h-1v-11h-1v-2h-1v2h-5v-2h-1v-1h-13l-1,-1h-33v-23l1,-2v-16l-1,-3v-19l1,-2v-89h-1v-3l1,-4v-2Z"/>
    <path data-geo-id="2702" data-name="Congressional District 2" d="M368,806v-1h1v1h2v-2h-2l2,-2h-2v-1h2v-1h-2l2,-2h1v-1h1l1,-1h1v-1l2,-2v1l3,-2h2v1l2,-2v1h2v-1h-2h2v1h1v-1h-1l1,-1h2l1,-1v-1h2l-1,-1 1,-1h1l1,-1 1,-1 1,-1v-1l1,-1 2,1h1l1,-1h1v-1h-1v-6l1,-1h1v-3h1l1,-1v-1h1v-2h1l1,-1h2l1,1v-1l3,-1h8l1,-1 2,1h2l1,1h1v1l1,1h3v-1h1v1h1v-1l5,-1v-1h1l2,-1h2v-2h2l1,-1v-1h1v-2l1,-2 1,-1v-1h1l1,-1h-1v-1h1l3,-2 3,-3h3v-1h1v1h4l4,6 1,2v4l3,-3h24v2l1,1v2h-1v1l-1,1v2l-1,1v3h-1v2h-1v3l1,1 8,5 4,3 2,2v1l1,1 4,4h1v5h1l3,1 1,1v-1l1,1h1v1h1v1l1,1v2h1v-1h5v1h5l14,3 2,2v1l2,3v3h1v1l5,4 14,6v1l20,10v1l4,2v7l3,2v2l1,1v3l-1,2h1l1,2v2l1,1h-24v15h-25l-3,-5 -2,-9h-96v-27h-13v-15l-8,-3 -1,-11h-64Z"/>
  </g>
  <path class="mesh" d="M317,135v124h-34l-1,9h-6v11h-14v45l5,4v1h8v14h-21v-1h-20v7l-1,4v3h1v89l-1,2v19l1,3v16l-1,2v23h33l1,1h13v1h1v2h5v-2h1v2h1v11h1v7l-1,3v43l-1,1v3h1v25h42h-1v-1h-4v-2h-2l-3,-4h58l1,1h8v42h28v23h55v18l1,1h31M368,806h64l1,11 8,3v15h13v27h96l2,9 3,5h25v-15h24M302,607l1,46 -2,6 -5,6h-9v15h29v6h14v50h28v43h14v6h12v6h2v1h-2v-1l-2,2v-1h-2l-3,2v-1l-2,2v1h-1l-1,1h-1v1h-1l-2,2h2v1h-2v1h2l-2,2h2v2h-2v-1h-1v2h1v2h3v3l-3,3v1l-1,2 -1,1h1l-2,1h-25l-4,-1h-70l-2,-3v-1l-3,-1 -1,-1h-1l-1,-1v10l-1,2v23h-12l-3,-1h-14v14l-5,2 -2,12h9l-2,42h-46l-2,-1h-31v-1h-25l-1,-1h-28l-1,-1h-20l-2,-1h-1M502,713h-59v-14h-13v4h-2l-2,-1 -1,-1v-2l-2,-1h-2v-1h-4l-1,-2v-1l-1,-1h-1v1h1v1h-1v1h-1v1h-1v-1h-1v1h-2l-1,1h-2v2h-1l-1,-1 -1,1v-1l-1,1v-1h-1l1,1 -1,1v-1h-1v1h-2v2h1l1,1h1l-5,4 -1,1v1h-2v1l-1,2v1l-1,1v1l-1,1 -1,3h-2v1l-1,1h1h-1v38l19,9 -1,1h-1v3h-1l-1,1v6h1v1h-1l-1,1h-1l-2,-1 -1,1v1l-1,1 -1,1 -1,1h-1l-1,1 1,1h-2v1l-1,1h-2l-1,1h1v1h-1v-1h-2M443,713l-3,1v-1l1,3v6h-14v20l9,13h14l-1,2v2h-1v1l-1,1h-2v2h-2l-2,1h-1v1l-5,1v1h-1v-1h-1v1h-3l-1,-1v-1h-1l-1,-1h-2l-2,-1 -1,1h-8l-3,1v1l-1,-1h-2l-1,1h-1v2h-1v1M447,713v11l2,3v14l1,3v3l1,1v2h2v1h-1v1h1l-1,1h-1v1l-1,1M499,755h-24l-3,3v-4l-1,-2 -4,-6h-4v-1h-1v1h-3l-3,3 -3,2"/>
  <g class="cities">
    <circle r="7" cx="443" cy="737"/>
    <text x="443" y="737">Minneapolis</text>
    <circle r="7" cx="536" cy="890"/>
    <text x="536" y="890">Rochester</text>
    <circle r="7" cx="571" cy="445"/>
    <text x="571" y="445">Duluth</text>
  </g>
</svg>