<?xml version="1.0" encoding="utf-8"?>
<!DOCTYPE svg PUBLIC "-//W3C//DTD SVG 1.1//EN" "http://www.w3.org/Graphics/SVG/1.1/DTD/svg11.dtd">
<svg version="1.1" xmlns="http://www.w3.org/2000/svg" width="871" height="1000" viewBox="0 0 871 1000">
  <path class="state" d="M550,464v1v1v2v1v1v2v1v1v1v1v1v1v2v1v2v2v2v3v10v2v2v7v1v3v2v2v5v1v1v4v16v2v3v4v1v1v1v1v1h-1h-1h-1v1h-1v1v1l-1,1v1v1v1v1h-1v1h-1v-1h-1h-1h-1v-1h-1h-1h-1h-1h-1v1v1h-1v1v1l-1,2h-1v1v1h-1h-2h-1v-1h-2h-1l-1,1h-1h-1v2v1v1h-1v1h-1h-1v1h-2h-1v1h-1h-1h-1h-1v2h-1h-1v1h-1v1h-1v1h-1v1h-1h-1v1h-1v1h-1v1l-1,1v1v1v1v1l-1,1h-1v1h-1v1l-1,1 1,1v1v2h-1v1h-1v1v1v1v1l-1,1 -1,1h-1v1l-1,1v1h-1l-1,1h-1h-1v1h-1v1h-1v1v1v1v1v1v1h-1v1v1v1v1l-1,1v1v2v1v1l1,1 -1,1v1v1l1,2v1v1l3,1h1l8,-1 5,6v1v1v1l2,1v1h1v1h1v2v1l1,1v1h1l3,1v1v2v1v1v1v1v1v1v1h-1l-1,1v1h-1v1v1h-1l-1,1v1v1h-1h1v1v1v1v1l-1,1h-1v1h-1v1h-1v1h-1v1h-1h-1v1v2l1,1 -1,3v4h1v1v1v1h-1v1l-1,1v1v1l2,2v1l-1,1 1,1v1v1h1v1v1v1v1v1v1h-1l-3,3h-1v1v1l-1,1h-1v1h1l4,5v1v1l-1,1v2v1v1v1v1v1h1v1h1v2l1,1v1l-2,4v1h-1v1h-1v1h1v1v1h1v1v1l-1,1v1v1l1,1v1v1h-1v1l-1,1v1v1l-1,1v1v1v1h-1v1v1h-1v2v1l1,1 8,5 4,3 2,2v1l1,1 4,4h1v1v1v1v1v1h1l3,1 1,1v-1l1,1h1v1h1v1l1,1v1v1h1v-1h3h2v1h2h1h2l14,3 2,2v1l2,3v2v1h1v1l5,4 14,6v1l20,10v1l4,2v1v1v1v1v1v1v1l3,2v1v1l1,1v1v1v1l-1,2h1l1,2v2l1,1 5,3 1,1 12,8h1v1v2l5,2v1l8,6v1l19,6 1,2 1,2h1v1h2l1,1v1l2,1v1l1,2v1h1v1l1,1v1l4,3v1v1v1l1,1 1,1 1,1v1v1h2v1v1v1v1v1l1,1v1l1,1 1,1v1v1l-1,2v1v1v1v1l-1,1h-1v1v1v2v1v4v1v1l1,1v1v2v1v2l4,4v2v1l-1,1v2v1l1,1v1l2,3v1h-3h-3h-3l-19,1h-18l-14,1h-16h-17l-7,1h-1h-1h-1h-2h-3h-26h-2h-1h-5h-1h-2h-11l-14,1h-9h-22h-1h-7h-2h-2h-10h-26h-14h-1h-2h-7h-10h-1h-1h-17h-19h-14h-3l-15,-1h-1h-6h-17h-3h-11h-1h-4l-21,-1h-7h-6h-11l-13,-1h-1h-1h-2h-8h-21h-4l-4,-1 -43,-1h-3h-1h-5h-11l-3,-1h-4h-8h-7h-3l-15,-1h-2h-11v-1v-19v-15v-5v-3l1,-14v-19l1,-6v-12l2,-18v-2l1,-4v-2v-1v-3l1,-38v-6v-5l1,-10v-5v-1l1,-11v-8v-2v-3v-18v-7v-6l1,-6v-3l1,-32 1,-5 -2,-2v-1l-1,-2v-1v-2l-4,-5h-2l-1,-1h-2l-1,-1 -1,-1 -2,-2h-1h-1h-1h-1h-1h-1v-1l-1,1 -1,-1 -4,-3v-1l-4,-5v-1v-1v-1v-1v-1h-1v-2l-1,-2 -1,-1 -2,-4v-1l-4,-5 -2,-1v-1l-2,-2 2,-2v-1l2,-2v-1h1v-1v-1l2,-1 3,-1v-1h1l1,-1h1l7,-6 5,-2 1,-2 1,-2v-1v-1v-1h1l2,-1 1,-2 1,-1 1,-1 1,-1v-1l1,-11v-1v-1v-1v-1v-2h1v-2v-1h-1v-1v-1v-2v-1v-1v-1v-1h-1l1,-1v-1l-1,-1v-1l2,-3v-1h2v-1v-1v-2h1v-1l-1,-1h1v-1v-1h-1v-2h-2v-1v-1v-1v-1l-1,-1v-1v-1h1l-1,-1 1,-1 -1,-1h-1v-1v-1l1,-1h-1l1,-3 -1,-1v-1v-2v-1h1v-1v1h-1v-1v-1v-1v-1v-1v-1v-2v-1v-1v-1v-2v-1v1v-1v-1l-1,-1h1h-1h-1v-1h-2l-1,-1h1v-1h-1l-1,-1v-1h-1v-1v-1v-1v-1v-1h-2v-1h1v-1h-1h-1h1l-1,-1v1h-1v-1h1v-1v-1l-1,1v-1h1v-1h-1v1l-1,-1v-1h1h-1v-1h1v-1v-2h-1h1h-1v-1h-1h-1h1v-1v-1v-1v-1h-1h1v-1h-1v-1l1,1v-1l-1,-1 1,-1 -1,-2 1,1v-1l-1,-1v1l1,-1h-1h-1l1,-1v1h1l-2,-2 1,-1h-1h1h1l-1,-1v-1h-1h1v-1l-1,1v-1h1h-1v-1v-1h-2v-1v-1v-1v-1h-1v-1h1h-1h-1h1l1,-1h-1h-1l1,-1v-1v-1l-1,-1v-1v-1v-1h1h-1v-1h1v-1l1,-2h-1l1,-2v-1h-1h1v-2v1v-1v-1v-1v-1v-1v-1v-1h2h-2v-1v-1h-1l1,-1v-1l-1,-1v-2v-1l1,-1v-1v-1v-1l2,1v-1v-1h-2v-1h2l-2,-1h2v-1v-1v-1l1,-1h-1v-1v-1l1,-3v2l1,-2v-1v-1h-1h1l1,-1h-1l-2,1v-1h-2v1v-2v-1v-1v-1v-1l-1,1 -1,-1v-1v-1v-1v-1v-1v-1l-2,-1v-1l2,-1 1,-1 -1,-1 1,-1h-1v-2v1v-1v-1v-1v-1v-1h1v-1v-1h-1h1v-3v-1l-1,-1v-1v-1v-1v-1v-2h-2h2h1h-1v-1h1v-1v-1h-1v-1h1h-1h1h-1l1,-1h-1v-1v1h-2v-1l3,-1h-1v-1v-1v-1h-2l2,-1v-1h1v-1h-1v-1v1v-1v-1v-1v1v-1v-1v1v-1h-2h2v-1v-1v-1v-2l1,-1v-1h-1v-1l1,-1h-1l1,-1v-1l-1,1v-1h1v-1h-1v-1v-1l1,-1h-1v-1v-1h-2h3v-1h-1v1v-1h-2h2v-1h1v-3h-1h1l-1,-1v-1h-2v-1l2,-1h-2v-1h2h-2v-1h2v-1h-2l2,-1v-1h-2h2v-1v-1l-2,-1h2v-1h-2v-1h2l-2,-1h2v-1v-1v-1v1h1v-1h-1v-1l1,1v-1h-1l-2,-1v-1h2v-2h1h-1v-2v-1l1,-1 -1,1h-2l2,-1h1h-1v-1v-1l1,-1v-1h-1l1,-1h-1v-1v-1v-1h-2v-1v-1v-2h-1h1v-1v-1v-1v-1h-1l1,-1h-1l-1,-2v-1h-1v-1v-1v1v-1v-1v-1v-1l-1,1h-1v-1h1h1v-1h-1v-1v-1h-1l1,-1v-1l-1,-1h1h-1v-1v-1l-1,-1h-2v-2v-1v-1v1l-1,-1 -2,-1v-1v1h2v-1v-3h1h-1h-2h2l-2,-2v-1v-1v-1h-2v-2h2h-2v-2v-1v-3v-1v-1v-1h-2v-1v-1l-2,-1v-1h1v-1l-1,-1v-1v-1v-1l1,-1v-1l-1,-1 -1,-1v-1h1h-1v-1v-1v-1v-1v-2v-1h-2v-1l-1,-1v-1v-1v-1v-1v-1l-1,-1v-1v-1l-1,-3h1l-1,-1h-1v1h-2v-1l2,-1h1l1,-1v-1h-1h-1l-2,-1v-1h2h1v-1h-1l-2,-1 2,-1 1,-1v-1h-1h1l1,-1h-1v-1h1v1v1v-1h1h-1v-1l-1,-1h-1v1h-2v-1h2l1,-1h1v1v-1l-1,-1h-1h1v-2h1h-1h-1h1l1,-1v-1h-1v-1h1v-1h1v-1v-1v-1h-1v1v-1v-1l1,1v-1v-1h-1l1,-1h-1v-1v-1v1l1,-1v-1h-1h-1h1v-1l1,-1 -1,-1v-1l-1,-1v-1l-1,-1h1h1v-1h-1l-1,-1v-1h-2l2,-1h1h1v-1h1v-1h-1v-1v1l-1,-2h1h1v1v-1v-1h-1v-1l1,1v-1v-1v-1v1h-1h-1h1v-1l1,-2v-1h-1v-1v-1l1,1v-1h-1h-1h-1v-2h1h1v-1l1,1v-1h-1v-2l1,-1v-1l-1,1v-1v-1v-1h1l-1,-1h-1v-1h-1v-1h1h1h1v-2h-1h-1h-1h1h1v-1v-1v-1l1,-2h-1v-2h1v-1h-1h1h1h-1l1,-1v1v-2l2,-1v1v-3v-1h1h1v-1l-1,-1h1v-1v-1v-2h1h-1h-1v-1l-1,-1v-1h1l-1,-2v-1h-2v-1h2v-1h-3h1v-1v-1h-1v-1v-1v-1l-1,-1h1v-1v-2h-1v-1h-1h1l1,-1v-1h-1l-1,-1h-1h1v-1h1l-1,-1v-1h1v-1v-1h-1h1v-1v-1h-1v-1h1v-1h-1h-1v-1h-2l2,-1 -2,-1h2h1l-1,-1h-2l-1,-1v-1v-1v-1v-1v-1l-1,-1v-2v-1v-1v-1v-1v-2h1h-1v-1h1l31,1h10h4l31,2h1l5,1h5h28l18,1h9h13h2l4,1h4h1h2h2h4h7h1h2h4l6,1h2h5h5h14v-44v-2v-6v-7v-2h1h1l1,1 2,1h1l4,3 5,-1 3,-2h1h2l5,3 3,2 3,3 3,2v3l3,13v2l2,13 3,2 5,38v1v2l-1,3v1l-1,1 2,2 -1,2 1,1v2l1,1 1,1 1,1 2,2v1h1h1l1,2h1l1,2 5,1v1h1h1h1l1,1h2h2l1,2h1l1,-2v-1h2h1h1l2,-1 2,1h1h5h1l2,1h2v2l1,1v1v1v1h1l1,2h2h2h3l1,1h3h4h2h1h1l2,1h1l2,-1v1l10,1 8,1 2,16 5,2 18,-2h1l14,-3 1,-7 3,-2h5l2,-1h1v-2l7,-2 8,-1 2,2 1,1h3l7,-1 8,1h3l3,-1 1,4 4,2h2l17,7h6l5,4v1v1v1l-1,1h-1l-1,-1v1l-5,1v3v1l-1,1 16,3 3,-1h2l2,2 1,1h1v1l3,3 -1,2 -2,3 3,8 2,2 3,5 1,1 1,2v1v1v1l1,1 1,2h1l1,-1 1,-1h1h1l1,-1h1l3,-1h1v-2l-3,-2v-1l-1,-2 1,-3 -1,-1 2,-4 3,-2 3,1h1h1v-1h1l1,1 2,-1v-1l1,-1h2v1h7h1h1l1,1 6,5 -2,3v2l1,1v2l1,1h1v2h1v1l1,-1v-1h1l1,1 1,1h-2v1v1h1h1l1,-1h2h1l1,2 3,1 1,2h3h2v1l3,1 2,-1v-1l1,1h2v-1l3,2v1l-1,1v1l1,-1 1,2v1v2l1,1 -1,2v1h-1h3v1v1h1h3v1l8,2v4l1,3 11,-3h2v1h1v1h1l3,-1 2,-1 1,-1h2h1h2v-1h1h1h2l1,-1 2,-1 2,-1v-1l3,-1 2,-3h1v-1l3,-3 1,-1v-1h1l2,-1v-1l2,-1 1,-1h3v-1h3l1,-1 1,-1v-1l4,-3 6,-2 1,-1h3h1h3h1v1v1v1v2v3v2h1v-1l2,1 1,1h1l1,1v2l-1,1v1v1l1,1 2,1v1v2l1,1h1l6,-1 5,-1 2,-2 5,-2v1l1,-1v1v2v1v1l5,-1h1h1h1l2,-1 1,-1 2,1 1,1 4,-1h1v1l1,1h1l2,-1h1l2,-1 2,-1h1v1h1l2,-1h2l3,-1 1,1 1,-1h2l1,-1 1,1h2l1,-1h1l1,1h3l3,1 2,1h1v1l2,2 1,1h1v1l1,1v1v2v1l1,1h1l1,1h2h1h1v1v1l2,1 1,1h1h3h1l1,-1v-1v-1h2h1v-2h1h2h2h1l1,-1h1l1,1h1h1l1,1 2,-1h1h1h1l1,1h2v-1h1h1h1l1,1h1v1h1h1h-4l-22,19 -15,9 -31,11 -31,13 -25,16 -26,24 -45,54 -14,9 -23,23 -6,3 -26,22 -8,11v1l-4,11h-2h-1h-1l-1,1 -2,-1h-1l-2,-1v-1v-1v1Z"/>
  <g class="subcounties">
    <path data-geo-id="2707" data-name="Congressional District 7" d="M22,83v-1v-2h1h-1v-1h1l31,1h10h4l31,2h1l5,1h5h28l18,1h9h13h2l4,1h4h1h2h2h4h7h1h2h4l6,1h2h10h14v-44v-2v-6v-7v-2h1h1l1,1 2,1h1l4,3 5,-1 3,-2h1h2l5,3 3,2 3,3 3,2v3l3,13v2l2,13 2,18h3l3,22v1v2l-1,3v1l-1,1 2,2 -1,2 1,1v2l1,1 1,1 1,1 2,2v1h1h1l1,2h1l1,2 5,1v1h1h1h1l1,1h2h2l1,2h1l1,-2v-1v1v2v1v1v1v1v4v1v1v1v2v1v1v1v1v1v5v5v1v1v1v3v1v3v2v2v1v2v1v1v1v2v2v14v5v7v2v5v6v3v2v1v2v6v3v3v1v3v1v1v3v1h-34l-1,9h-6v11h-14v45l5,4v1h8v14h-1h-1h-1h-1h-4h-2h-1h-1h-4h-1h-2h-2v-1h-1h-1h-1h-2h-1h-4h-3h-7v2v2v1v1v1l-1,4v1v1v1h1v2v1v4v1v2v2v2v2v5v3v1v3v2v1v1v1v1v1v2v1v1v3v4v1v1v2v4v1v1v2v2v2v1v1v1v6v2v1v1v1v3v1v2v1v1v2v2v1l-1,2v2v5v1v1v4v1v1v1v2v1l1,3v1v2v2v2v6v1v1v1l-1,2v1v2v3v1v1v1v1v1v1v1v1v4v3v1v1h1h1h1h1h2h4h1h3h1h6h1h1h2h2h2h1h2h1l1,1h2h1h1h1h1h1h1h2h1h2v1h1v2h1h1h2h1v-2h1v2h1v2v1v2v6h1v1v2v1v3l-1,3v1v1v2v1v1v1v2v1v1v3v1v1v3v2v1v1v1v1v1v1v1v1v2v1v1v2v2v2v1v2v1l-1,1v1v1v1h1v2v1v1v1v1v2v1v1v2v1v3v2v1v1v1v1v1v1v1h1h1h1h1h1h1h1h1h1h2h1h1h1l1,46 -2,6 -5,6h-9v10v5h1h1h1h1h3h2h3h3h4h2h1h1h5h1v2v2v1v1h1h3h3h1h3h1h2v2v1v2v1v1v1v4v1v1v1v2v2v1v2v2v1v1v2v1v3v1v1v2v2v2v1v1v1v1v1v2v2v1h2h2h3h1h1h3h2h1h1h3h3h1h1h4v2v1v1v1v1v2v4v2v1v1v1v2v3v1v2v1v2v1v2v1v1v1v3v1v1v1v1v1v1h3h1h1h1h3h1h1h2h1v1v1v1v1v1v1h5h1h1h1h4v3v2v1h2v1h-2v-1l-2,2v-1h-2l-3,2v-1l-2,2v1h-1l-1,1h-1v1h-1l-2,2h2v1h-2v1h2l-2,2h2v2h-2v-1h-1v1v1h1v1v1h2h1v2v1l-3,3v1l-1,2 -1,1h1l-2,1h-1h-3h-3h-1h-2h-2h-1h-1h-3h-2h-1h-2h-1h-1h-1l-4,-1h-2h-1h-2h-2h-1h-2h-1h-1h-1h-1h-1h-2h-3h-1h-1h-1h-1h-4h-1h-2h-1h-1h-2h-1h-1h-1h-1h-1h-1h-1h-3h-2h-1h-1h-1h-2h-1h-1h-1h-2h-2h-2h-1h-1h-1h-1h-1h-1h-3l-2,-3v-1l-3,-1 -1,-1h-1l-1,-1v5v2v2v1l-1,2v1v1v1v1v1v2v1v1v1v2v2v1v1v1v2v1v3h-2h-1h-1h-1h-1h-1h-2h-3l-3,-1h-1h-1h-2h-1h-2h-1h-2h-1h-3v1v3v1v3v3v1v2l-5,2 -2,12h9l-2,42h-1h-1h-2h-1h-4h-1h-2h-1h-2h-2h-1h-1h-1h-3h-1h-1h-1h-1h-2h-3h-2h-2h-2h-2h-1h-1h-1h-2h-1l-2,-1h-3h-2h-1h-1h-3h-2h-2h-1h-1h-1h-1h-1h-2h-1h-1h-1h-2h-2h-1h-1h-1v-1h-1h-1h-1h-1h-3h-1h-1h-1h-2h-1h-1h-3h-2h-2h-1h-1h-2l-1,-1h-2h-1h-1h-1h-1h-1h-1h-2h-1h-2h-1h-1h-1h-2h-1h-1h-1h-1h-1h-1h-1h-2h-1l-1,-1h-1h-1h-1h-1h-1h-1h-2h-1h-1h-1h-1h-1h-2h-1h-1h-1h-1h-1l-2,-1h-1v-19l1,-6v-12l2,-18v-2l1,-4v-2v-1v-3l1,-38v-6v-5l1,-10v-5v-1l1,-11v-8v-2v-3v-18v-7v-6l1,-6v-3l1,-32 1,-5 -2,-2v-1l-1,-2v-1v-2l-4,-5h-2l-1,-1h-2l-1,-1 -1,-1 -2,-2h-1h-1h-1h-1h-1h-1v-1l-1,1 -1,-1 -4,-3v-1l-4,-5v-1v-1v-1v-1v-1h-1v-2l-1,-2 -1,-1 -2,-4v-1l-4,-5 -2,-1v-1l-2,-2 2,-2v-1l2,-2v-1h1v-1v-1l2,-1 3,-1v-1h1l1,-1h1l7,-6 5,-2 1,-2 1,-2v-1v-1v-1h1l2,-1 1,-2 1,-1 1,-1 1,-1v-1l1,-11v-1v-1v-1v-1v-2h1v-2v-1h-1v-1v-1v-2v-1v-1v-1v-1h-1l1,-1v-1l-1,-1v-1l2,-3v-1h2v-1v-1v-2h1v-1l-1,-1h1v-1v-1h-1v-2h-2v-1v-1v-1v-1l-1,-1v-1v-1h1l-1,-1 1,-1 -1,-1h-1v-1v-1l1,-1h-1l1,-3 -1,-1v-1v-2v-1h1v-1v1h-1v-1v-1v-1v-1v-1v-1v-2v-1v-1v-1v-2v-1v1v-1v-1l-1,-1h1h-1h-1v-1h-2l-1,-1h1v-1h-1l-1,-1v-1h-1v-1v-1v-1v-1v-1h-2v-1h1v-1h-1h-1h1l-1,-1v1h-1v-1h1v-1v-1l-1,1v-1h1v-1h-1v1l-1,-1v-1h1h-1v-1h1v-1v-2h-1h1h-1v-1h-1h-1h1v-1v-1v-1v-1h-1h1v-1h-1v-1l1,1v-1l-1,-1 1,-1 -1,-2 1,1v-1l-1,-1v1l1,-1h-1h-1l1,-1v1h1l-2,-2 1,-1h-1h1h1l-1,-1v-1h-1h1v-1l-1,1v-1h1h-1v-1v-1h-2v-1v-1v-1v-1h-1v-1h1h-1h-1h1l1,-1h-1h-1l1,-1v-1v-1l-1,-1v-1v-1v-1h1h-1v-1h1v-1l1,-2h-1l1,-2v-1h-1h1v-2v1v-1v-1v-1v-1v-1v-1v-1h2h-2v-1v-1h-1l1,-1v-1l-1,-1v-2v-1l1,-1v-1v-1v-1l2,1v-1v-1h-2v-1h2l-2,-1h2v-1v-1v-1l1,-1h-1v-1v-1l1,-3v2l1,-2v-1v-1h-1h1l1,-1h-1l-2,1v-1h-2v1v-2v-1v-1v-1v-1l-1,1 -1,-1v-1v-1v-1v-1v-1v-1l-2,-1v-1l2,-1 1,-1 -1,-1 1,-1h-1v-2v1v-1v-1v-1v-1v-1h1v-1v-1h-1h1v-3v-1l-1,-1v-1v-1v-1v-1v-2h-2h2h1h-1v-1h1v-1v-1h-1v-1h1h-1h1h-1l1,-1h-1v-1v1h-2v-1l3,-1h-1v-1v-1v-1h-2l2,-1v-1h1v-1h-1v-1v1v-1v-1v-1v1v-1v-1v1v-1h-2h2v-1v-1v-1v-2l1,-1v-1h-1v-1l1,-1h-1l1,-1v-1l-1,1v-1h1v-1h-1v-1v-1l1,-1h-1v-1v-1h-2h3v-1h-1v1v-1h-2h2v-1h1v-3h-1h1l-1,-1v-1h-2v-1l2,-1h-2v-1h2h-2v-1h2v-1h-2l2,-1v-1h-2h2v-1v-1l-2,-1h2v-1h-2v-1h2l-2,-1h2v-1v-1v-1v1h1v-1h-1v-1l1,1v-1h-1l-2,-1v-1h2v-2h1h-1v-2v-1l1,-1 -1,1h-2l2,-1h1h-1v-1v-1l1,-1v-1h-1l1,-1h-1v-1v-1v-1h-2v-1v-1v-2h-1h1v-1v-1v-1v-1h-1l1,-1h-1l-1,-2v-1h-1v-1v-1v1v-1v-1v-1v-1l-1,1h-1v-1h1h1v-1h-1v-1v-1h-1l1,-1v-1l-1,-1h1h-1v-1v-1l-1,-1h-2v-2v-1v-1v1l-1,-1 -2,-1v-1v1h2v-1v-3h1h-1h-2h2l-2,-2v-1v-1v-1h-2v-2h2h-2v-2v-1v-3v-1v-1v-1h-2v-1v-1l-2,-1v-1h1v-1l-1,-1v-1v-1v-1l1,-1v-1l-1,-1 -1,-1v-1h1h-1v-1v-1v-1v-1v-2v-1h-2v-1l-1,-1v-1v-1v-1v-1v-1l-1,-1v-1v-1l-1,-3h1l-1,-1h-1v1h-2v-1l2,-1h1l1,-1v-1h-1h-1l-2,-1v-1h2h1v-1h-1l-2,-1 2,-1 1,-1v-1h-1h1l1,-1h-1v-1h1v1v1v-1h1h-1v-1l-1,-1h-1v1h-2v-1h2l1,-1h1v1v-1l-1,-1h-1h1v-2h1h-1h-1h1l1,-1v-1h-1v-1h1v-1h1v-1v-1v-1h-1v1v-1v-1l1,1v-1v-1h-1l1,-1h-1v-1v-1v1l1,-1v-1h-1h-1h1v-1l1,-1 -1,-1v-1l-1,-1v-1l-1,-1h1h1v-1h-1l-1,-1v-1h-2l2,-1h1h1v-1h1v-1h-1v-1v1l-1,-2h1h1v1v-1v-1h-1v-1l1,1v-1v-1v-1v1h-1h-1h1v-1l1,-2v-1h-1v-1v-1l1,1v-1h-1h-1h-1v-2h1h1v-1l1,1v-1h-1v-2l1,-1v-1l-1,1v-1v-1v-1h1l-1,-1h-1v-1h-1v-1h1h1h1v-2h-1h-1h-1h1h1v-1v-1v-1l1,-2h-1v-2h1v-1h-1h1h1h-1l1,-1v1v-2l2,-1v1v-3v-1h1h1v-1l-1,-1h1v-1v-1v-2h1h-1h-1v-1l-1,-1v-1h1l-1,-2v-1h-2v-1h2v-1h-3h1v-1v-1h-1v-1v-1v-1l-1,-1h1v-1v-2h-1v-1h-1h1l1,-1v-1h-1l-1,-1h-1h1v-1h1l-1,-1v-1h1v-1v-1h-1h1v-1v-1h-1v-1h1v-1h-1h-1v-1h-2l2,-1 -2,-1h2h1l-1,-1h-2l-1,-1v-1v-1v-1v-1v-1l-1,-1v-2v-1v-1v-1Z"/>
    <path data-geo-id="2706" data-name="Congressional District 6" d="M301,659l2,-6 -1,-46h1h1h1h1h3h1h1h1h1h1h2h1h2h1h2h1h1h1h3h1h1h-1v-1h-1h-1h-1h-1v-1v-1h-1h-1l-3,-4h1h2h1h2h1h1h1h1h1h1h3h1h1h1h4h3h1h3h2h1h1h1h3h1h1h1h1h2h3h1h1h3h1h1h1h1h2h1l1,1h1h1h1h2h3v2v2v1v1v1v1v1v4v2v6v2v8v1v3v2v1v1v3h1h1h2h1h3h1h1h2h1h1h1h1h1h1h1h1h1h1h1h1h1h1h1h1v1v1v1v2v2v1v2v2v1v1v3v2v1v1v1v1h1h1h3h1h2h2h4h1h2h1h1h1h3h3h2h1h1h1h1h2h3h1h1h5h1h1h1h2h1h4h1v1v1v1v1v1v1v2v2v2v1v2v2v1l1,1h1h1h1h1h1h1h1h1h1h1h2h1h2h1h1h2h2h1h2h1h1h1h1h2h1h-1h-1v1v2l1,1 -1,3v4h1v1v1v1h-1v1l-1,1v1v1l2,2v1l-1,1 1,1v1v1h1v1v1v1h-28h-1h-1h-1h-1h-1h-1h-1h-2h-2h-1h-1h-2h-2h-1h-1h-1h-1h-1h-1h-1h-1h-1h-1h-4v-14h-13v4h-1h-1l-2,-1 -1,-1v-2l-2,-1h-1h-1v-1h-2h-1h-1l-1,-2v-1l-1,-1h-1v1h1v1h-1v1h-1v1h-1v-1h-1v1h-1h-1l-1,1h-1h-1v1v1h-1l-1,-1 -1,1v-1l-1,1v-1h-1l1,1 -1,1v-1h-1v1h-1h-1v1v1h1l1,1h1l-5,4 -1,1v1h-2v1l-1,2v1l-1,1v1l-1,1 -1,3h-1h-1v1l-1,1h1h-1v1v1v2v1v1v2v4v3v3v1v4v1v1v1v2v10l19,9 -1,1h-1v3h-1l-1,1v1v1v1v1v1v1h1v1h-1l-1,1h-1l-2,-1 -1,1v1l-1,1 -1,1 -1,1h-1l-1,1 1,1h-1h-1v1l-1,1h-1h-1l-1,1h1v1h-1v-1h-2v-1v-2v-3h-4h-1h-1h-1h-5v-1v-1v-1v-1v-1v-1h-1h-2h-1h-1h-3h-1h-1h-1h-3v-1v-1v-1v-1v-1v-1v-3v-1v-1v-1v-2v-1v-2v-1v-2v-1v-3v-2v-1v-1v-1v-2v-4v-2v-1v-1v-1v-1v-2h-4h-1h-1h-3h-3h-1h-1h-2h-3h-1h-1h-3h-2h-2v-1v-2v-2v-1v-1v-1v-1v-1v-2v-2v-2v-1v-1v-3v-1v-2v-1v-1v-2v-2v-1v-2v-2v-1v-1v-1v-4v-1v-1v-1v-2v-1v-2h-2h-1h-3h-1h-3h-3h-1v-1v-1v-2v-2h-1h-5h-1h-1h-2h-4h-3h-3h-2h-3h-1h-1h-1h-1v-5v-10h9Z"/>
    <path data-geo-id="2701" data-name="Congressional District 1" d="M71,933v-5v-3l1,-14h1l2,1h1h1h1h1h1h2h1h1h1h1h1h2h1h1h1h1h1h1l1,1h1h2h1h1h1h1h1h1h1h2h1h1h1h2h1h2h1h1h1h1h1h1h2l1,1h2h1h1h2h2h3h1h1h2h1h1h1h3h1h1h1h1v1h1h1h1h2h2h1h1h1h2h1h1h1h1h1h2h2h3h1h1h2h3l2,1h1h2h1h1h1h2h2h2h2h3h2h1h1h1h1h3h1h1h1h2h2h1h2h1h4h1h2h1h1l2,-42h-9l2,-12 5,-2v-2v-1v-3v-3v-1v-3v-1h3h1h2h1h2h1h2h1h1l3,1h3h2h1h1h1h1h1h2v-3v-1v-2v-1v-1v-1v-2v-2v-1v-1v-1v-2v-1v-1v-1v-1v-1l1,-2v-1v-2v-2v-5l1,1h1l1,1 3,1v1l2,3h3h1h1h1h1h1h1h2h2h2h1h1h1h2h1h1h1h2h3h1h1h1h1h1h1h1h2h1h1h2h1h4h1h1h1h1h3h2h1h1h1h1h1h2h1h2h2h1h2l4,1h1h1h1h2h1h2h3h1h1h2h2h1h3h3h1l2,-1h-1l1,-1 1,-2v-1l3,-3v-1v-2h-1h-2v-1v-1h-1v-1h3h1h1h2h1h1h4h1h1h1h3h3h1h1h4h1h4h2h1h1h1h1h1h3h1h1h2h1h1h1h2h1h1h1h2h2h1h1h1h2l1,11 8,3v15h13v27h3h2h1h2h1h1h2h1h2h1h2h1h1h1h1h1h1h2h3h2h1h1h1h1h1h1h1h1h1h1h2h1h1h2h1h1h1h1h1h1h1h1h1h1h1h1h1h1h1h1h2h1h1h2h2h1h3h11h3h2h1h2h1h1l2,9 3,5h3h5h1h2h8h2h1h2h1v-3v-4v-2v-3v-1v-2h1h3h1h2h1h1h3h1h1h1h2h1h2h1h2h1l5,3 1,1 12,8h1v1v2l5,2v1l8,6v1l19,6 1,2 1,2h1v1h2l1,1v1l2,1v1l1,2v1h1v1l1,1v1l4,3v1v1v1l1,1 1,1 1,1v1v1h2v1v1v1v1v1l1,1v1l1,1 1,1v1v1l-1,2v1v1v1v1l-1,1h-1v1v1v2v1v4v1v1l1,1v1v2v1v2l4,4v2v1l-1,1v2v1l1,1v1l2,3v1h-3h-3h-3l-19,1h-18l-14,1h-16h-17l-7,1h-1h-1h-1h-2h-3h-26h-2h-1h-5h-1h-2h-11l-14,1h-9h-22h-1h-7h-2h-12h-26h-14h-1h-2h-7h-10h-1h-1h-17h-19h-14h-3l-15,-1h-1h-6h-17h-3h-11h-1h-4l-21,-1h-13h-11l-13,-1h-1h-1h-2h-8h-21h-4l-4,-1 -43,-1h-3h-1h-5h-11l-3,-1h-4h-8h-7h-3l-15,-1h-2h-11v-1v-19Z"/>
    <path data-geo-id="2703" data-name="Congressional District 3" d="M386,760v-10v-2v-1v-1v-1v-4v-1v-3v-3v-4v-2v-1v-1v-2v-1v-1h1h-1l1,-1v-1h1h1l1,-3 1,-1v-1l1,-1v-1l1,-2v-1h2v-1l1,-1 5,-4h-1l-1,-1h-1v-1v-1h1h1v-1h1v1l1,-1 -1,-1h1v1l1,-1v1l1,-1 1,1h1v-1v-1h1h1l1,-1h1h1v-1h1v1h1v-1h1v-1h1v-1h-1v-1h1l1,1v1l1,2h1h1h2v1h1h1l2,1v2l1,1 2,1h1h1v-4h13v14l-3,1v-1l1,3v1v2v3h-14v20l9,13h6h8l-1,2v2h-1v1l-1,1h-1h-1v1v1h-2l-2,1h-1v1l-5,1v1h-1v-1h-1v1h-1h-2l-1,-1v-1h-1l-1,-1h-2l-2,-1 -1,1h-1h-5h-2l-3,1v1l-1,-1h-2l-1,1h-1v2h-1v1Z"/>
    <path data-geo-id="2705" data-name="Congressional District 5" d="M441,722v-3v-2v-1l-1,-3v1l3,-1h4v1v1v1v1v1v1v1v1v1v1v1l2,3v1v1v1v1v2v1v1v1v1v1v1v1v1l1,3v1v2l1,1v1v1h1h1v1h-1v1h1l-1,1h-1v1l-1,1h-8h-6l-9,-13v-20Z"/>
    <path data-geo-id="2704" data-name="Congressional District 4" d="M447,714v-1h1h1h1h1h1h1h1h1h1h1h2h2h1h1h2h2h1h1h1h1h1h1h1h28v1v1v1h-1l-3,3h-1v1v1l-1,1h-1v1h1l4,5v1v1l-1,1v2v1v1v1v1v1h1v1h1v2l1,1v1l-2,4v1h-1v1h-1v1h1v1v1h1v1v1l-1,1h-24l-3,3v-2v-1v-1l-1,-2 -4,-6h-1h-1h-1h-1v-1h-1v1h-1h-1h-1l-3,3 -3,2v-1h-1h-1v-1v-1l-1,-1v-2v-1l-1,-3v-1v-1v-1v-1v-1v-1v-1v-1v-2v-1v-1v-1v-1l-2,-3v-1v-1v-1v-1v-1v-1v-1v-1v-1v-1Z"/>
    <path data-geo-id="2708" data-name="Congressional District 8" d="M234,346v-2v-2h7h3h4h1h2h1h1h1v1h2h2h1h4h1h1h2h4h1h1h1h1v-14h-8v-1l-5,-4v-45h14v-11h6l1,-9h34v-1v-3v-1v-1v-3v-1v-3v-3v-6v-2v-1v-2v-3v-6v-5v-2v-7v-5v-14v-2v-2v-1v-1v-1v-2v-1v-2v-2v-3v-1v-3v-1v-1v-1v-5v-5v-1v-1v-1v-1v-1v-2v-1v-1v-1v-4v-1v-1v-1v-1v-2v-1h2h1h1l2,-1 2,1h1h5h1l2,1h2v2l1,1v1v1v1h1l1,2h2h2h3l1,1h3h4h2h1h1l2,1h1l2,-1v1l10,1 8,1 2,17 5,1 18,-2h1l14,-3 1,-7 3,-2h5l2,-1h1v-2l7,-2 8,-1 2,2 1,1h3l7,-1 8,1h3l3,-1 1,4 4,2h2l17,7h6l5,4v1v1v1l-1,1h-1l-1,-1v1l-5,1v3v1l-1,1 16,3 3,-1h2l2,2 1,1h1v1l3,3 -1,2 -2,3 3,8 2,2 3,5 1,1 1,2v1v1v1l1,1 1,2h1l1,-1 1,-1h1h1l1,-1h1l3,-1h1v-2l-3,-2v-1l-1,-2 1,-3 -1,-1 2,-4 3,-2 3,1h1h1v-1h1l1,1 2,-1v-1l1,-1h2v1h7h1h1l1,1 6,5 -2,3v2l1,1v2l1,1h1v2h1v1l1,-1v-1h1l1,1 1,1h-2v1v1h1h1l1,-1h2h1l1,2 3,1 1,2h3h2v1l3,1 2,-1v-1l1,1h2v-1l3,2v1l-1,1v1l1,-1 1,2v1v2l1,1 -1,2v1h-1h3v1v1h1h3v1l8,2v4l1,3 11,-3h2v1h1v1h1l3,-1 2,-1 1,-1h2h1h2v-1h1h1h2l1,-1 2,-1 2,-1v-1l3,-1 2,-3h1v-1l3,-3 1,-1v-1h1l2,-1v-1l2,-1 1,-1h3v-1h3l1,-1 1,-1v-1l4,-3 6,-2 1,-1h3h1h3h1v1v1v1v2v3v2h1v-1l2,1 1,1h1l1,1v2l-1,1v1v1l1,1 2,1v1v2l1,1h1l6,-1 5,-1 2,-2 5,-2v1l1,-1v1v2v1v1l5,-1h1h1h1l2,-1 1,-1 2,1 1,1 4,-1h1v1l1,1h1l2,-1h1l2,-1 2,-1h1v1h1l2,-1h2l3,-1 1,1 1,-1h2l1,-1 1,1h2l1,-1h1l1,1h3l3,1 2,1h1v1l2,2 1,1h1v1l1,1v1v2v1l1,1h1l1,1h2h1h1v1v1l2,1 1,1h1h3h1l1,-1v-1v-1h2h1v-2h1h2h2h1l1,-1h1l1,1h1h1l1,1 2,-1h1h1h1l1,1h2v-1h1h1h1l1,1h1v1h1h1h-4l-22,19 -15,9 -31,11 -31,13 -25,16 -26,24 -45,54 -14,9 -23,23 -6,3 -26,22 -8,11v1l-4,11h-2h-1h-1l-1,1 -2,-1h-1l-2,-1v-1v-1v1v1v1v2v1v1v2v1v1v1v1v1v1v2v1v2v2v2v3v10v2v2v7v1v3v2v2v5v1v1v4v16v2v3v4v1v1v1v1v1h-1h-1h-1v1h-1v1v1l-1,1v1v1v1v1h-1v1h-1v-1h-1h-1h-1v-1h-1h-1h-1h-1h-1v1v1h-1v1v1l-1,2h-1v1v1h-1h-2h-1v-1h-2h-1l-1,1h-1h-1v2v1v1h-1v1h-1h-1v1h-2h-1v1h-1h-1h-1h-1v2h-1h-1v1h-1v1h-1v1h-1v1h-1h-1v1h-1v1h-1v1l-1,1v1v1v1v1l-1,1h-1v1h-1v1l-1,1 1,1v1v2h-1v1h-1v1v1v1v1l-1,1 -1,1h-1v1l-1,1v1h-1l-1,1h-1h-1v1h-1v1h-1v1v1v1v1v1v1h-1v1v1v1v1l-1,1v1v2v1v1l1,1 -1,1v1v1l1,2v1v1l3,1h1l8,-1 5,6v1v1v1l2,1v1h1v1h1v2v1l1,1v1h1l3,1v1v2v1v1v1v1v1v1v1h-1l-1,1v1h-1v1v1h-1l-1,1v1v1h-1h1v1v1v1v1l-1,1h-1v1h-1v1h-1v1h-1v1h-1h-2h-1h-1h-1h-1h-2h-1h-2h-2h-1h-1h-2h-1h-2h-1h-1h-1h-1h-1h-1h-1h-1h-1h-1l-1,-1v-1v-2v-2v-1v-2v-2v-2v-1v-1v-1v-1v-1v-1h-1h-4h-1h-2h-1h-1h-1h-5h-1h-1h-3h-2h-1h-1h-1h-1h-2h-3h-3h-1h-1h-1h-2h-1h-4h-2h-2h-1h-3h-1h-1v-1v-1v-1v-1v-2v-3v-1v-1v-2v-2v-1v-2v-2v-1v-1v-1h-1h-1h-1h-1h-1h-1h-1h-1h-1h-1h-1h-1h-1h-1h-1h-1h-2h-1h-1h-3h-1h-2h-1h-1v-3v-1v-1v-2v-3v-1v-8v-2v-6v-2v-4v-1v-1v-1v-1v-1v-2v-2h-3h-2h-1h-1h-1l-1,-1h-1h-2h-1h-1h-1h-1h-3h-1h-1h-3h-2h-1h-1h-1h-1h-3h-1h-1h-1h-2h-3h-1h-3h-4h-1h-1h-1h-3h-1h-1h-1h-1h-1h-1h-2h-1h-2h-1l3,4h1h1v1v1h1h1h1h1v1h1h-1h-1h-3h-1h-1h-1h-2h-1h-2h-1h-2h-1h-1h-1h-1h-1h-3h-1h-1h-1h-1h-1h-1h-1h-2h-1h-1h-1h-1h-1h-1h-1h-1h-1v-1v-1v-1v-1v-1v-1v-1v-2v-3v-1v-2v-1v-1v-2v-1v-1v-1v-1v-2h-1v-1v-1v-1l1,-1v-1v-2v-1v-2v-2v-2v-1v-1v-2v-1v-1v-1v-1v-1v-1v-1v-1v-2v-3v-1v-1v-3v-1v-1v-2v-1v-1v-1v-2v-1v-1l1,-3v-3v-1v-2v-1h-1v-6v-2v-1v-2h-1v-2h-1v2h-1h-2h-1h-1v-2h-1v-1h-2h-1h-2h-1h-1h-1h-1h-1h-1h-2l-1,-1h-1h-2h-1h-2h-2h-2h-1h-1h-6h-1h-3h-1h-4h-2h-1h-1h-1h-1v-1v-1v-3v-4v-1v-1v-1v-1v-1v-1v-1v-1v-3v-2v-1l1,-2v-1v-1v-1v-6v-2v-2v-2v-1l-1,-3v-1v-2v-1v-1v-1v-4v-1v-1v-5v-2l1,-2v-1v-2v-2v-1v-1v-2v-1v-3v-1v-1v-1v-2v-6v-1v-1v-1v-2v-2v-2v-1v-1v-4v-2v-1v-1v-4v-3v-1v-1v-2v-1v-1v-1v-1v-1v-2v-3v-1v-3v-5v-2v-2v-2v-2v-1v-4v-1v-2h-1v-1v-1v-1l1,-4v-1v-1Z"/>
    <path data-geo-id="2702" data-name="Congressional District 2" d="M368,806v-1h1v1h2v-2h-2l2,-2h-2v-1h2v-1h-2l2,-2h1v-1h1l1,-1h1v-1l2,-2v1l3,-2h2v1l2,-2v1h2v-1h-2h2v1h1v-1h-1l1,-1h1h1l1,-1v-1h1h1l-1,-1 1,-1h1l1,-1 1,-1 1,-1v-1l1,-1 2,1h1l1,-1h1v-1h-1v-1v-1v-1v-1v-1v-1l1,-1h1v-3h1l1,-1v-1h1v-2h1l1,-1h2l1,1v-1l3,-1h2h5h1l1,-1 2,1h2l1,1h1v1l1,1h2h1v-1h1v1h1v-1l5,-1v-1h1l2,-1h2v-1v-1h1h1l1,-1v-1h1v-2l1,-2 1,-1v-1h1l1,-1h-1v-1h1l3,-2 3,-3h1h1h1v-1h1v1h1h1h1h1l4,6 1,2v1v1v2l3,-3h24v1v1l1,1v1v1h-1v1l-1,1v1v1l-1,1v1v1v1h-1v1v1h-1v2v1l1,1 8,5 4,3 2,2v1l1,1 4,4h1v1v1v1v1v1h1l3,1 1,1v-1l1,1h1v1h1v1l1,1v1v1h1v-1h3h2v1h2h1h2l14,3 2,2v1l2,3v2v1h1v1l5,4 14,6v1l20,10v1l4,2v1v1v1v1v1v1v1l3,2v1v1l1,1v1v1v1l-1,2h1l1,2v2l1,1h-1h-2h-1h-2h-1h-2h-1h-1h-1h-3h-1h-1h-2h-1h-3h-1v2v1v3v2v4v3h-1h-2h-1h-2h-8h-2h-1h-5h-3l-3,-5 -2,-9h-1h-1h-2h-1h-2h-3h-11h-3h-1h-2h-2h-1h-1h-2h-1h-1h-1h-1h-1h-1h-1h-1h-1h-1h-1h-1h-1h-1h-1h-1h-2h-1h-1h-2h-1h-1h-1h-1h-1h-1h-1h-1h-1h-1h-2h-3h-2h-1h-1h-1h-1h-1h-1h-2h-1h-2h-1h-2h-1h-1h-2h-1h-2h-3v-27h-13v-15l-8,-3 -1,-11h-2h-1h-1h-1h-2h-2h-1h-1h-1h-2h-1h-1h-1h-2h-1h-1h-3h-1h-1h-1h-1h-1h-2h-4h-1h-4h-1h-1h-3h-3h-1h-1h-1h-4h-1h-1h-2h-1h-1h-3Z"/>
  </g>
  <path class="mesh" d="M317,135v1v2v1v1v1v1v4v1v1v1v2v1v1v1v1v1v5v5v1v1v1v3v1v3v2v2v1v2v1v1v1v2v2v14v5v7v2v5v6v3v2v1v2v6v3v3v1v3v1v1v3v1h-34l-1,9h-6v11h-14v45l5,4v1h8v14h-1h-1h-1h-1h-4h-2h-1h-1h-4h-1h-2h-2v-1h-1h-1h-1h-2h-1h-4h-3h-7v2v2v1v1v1l-1,4v1v1v1h1v2v1v4v1v2v2v2v2v5v3v1v3v2v1v1v1v1v1v2v1v1v3v4v1v1v2v4v1v1v2v2v2v1v1v1v6v2v1v1v1v3v1v2v1v1v2v2v1l-1,2v2v5v1v1v4v1v1v1v2v1l1,3v1v2v2v2v6v1v1v1l-1,2v1v2v3v1v1v1v1v1v1v1v1v4v3v1v1h1h1h1h1h2h4h1h3h1h6h1h1h2h2h2h1h2h1l1,1h2h1h1h1h1h1h1h2h1h2v1h1v2h1h1h2h1v-2h1v2h1v2v1v2v6h1v1v2v1v3l-1,3v1v1v2v1v1v1v2v1v1v3v1v1v3v2v1v1v1v1v1v1v1v1v2v1v1v2v2v2v1v2v1l-1,1v1v1v1h1v2v1v1v1v1v2v1v1v2v1v3v2v1v1v1v1v1v1v1h1h1h1h1h1h1h1h1h1h2h1h1h1h1h1h1h1h3h1h1h1h1h1h2h1h2h1h2h1h1h1h3h1h1h-1v-1h-1h-1h-1h-1v-1v-1h-1h-1l-3,-4h1h2h1h2h1h1h1h1h1h1h3h1h1h1h4h3h1h3h2h1h1h1h3h1h1h1h1h2h3h1h1h3h1h1h1h1h2h1l1,1h1h1h1h2h3v2v2v1v1v1v1v1v4v2v6v2v8v1v3v2v1v1v3h1h1h2h1h3h1h1h2h1h1h1h1h1h1h1h1h1h1h1h1h1h1h1h1v1v1v1v2v2v1v2v2v1v1v3v2v1v1v1v1h1h1h3h1h2h2h4h1h2h1h1h1h3h3h2h1h1h1h1h2h3h1h1h5h1h1h1h2h1h4h1v1v1v1v1v1v1v2v2v2v1v2v2v1l1,1h1h1h1h1h1h1h1h1h1h1h2h1h2h1h1h2h2h1h2h1h1h1h1h2h1M368,806h3h1h1h2h1h1h4h1h1h1h3h3h1h1h4h1h4h2h1h1h1h1h1h3h1h1h2h1h1h1h2h1h1h1h2h2h1h1h1h2l1,11 8,3v15h13v27h3h2h1h2h1h1h2h1h2h1h2h1h1h1h1h1h1h2h3h2h1h1h1h1h1h1h1h1h1h1h2h1h1h2h1h1h1h1h1h1h1h1h1h1h1h1h1h1h1h1h2h1h1h2h2h1h3h11h3h2h1h2h1h1l2,9 3,5h3h5h1h2h8h2h1h2h1v-3v-4v-2v-3v-1v-2h1h3h1h2h1h1h3h1h1h1h2h1h2h1h2h1M302,607l1,46 -2,6 -5,6h-9v10v5h1h1h1h1h3h2h3h3h4h2h1h1h5h1v2v2v1v1h1h3h3h1h3h1h2v2v1v2v1v1v1v4v1v1v1v2v2v1v2v2v1v1v2v1v3v1v1v2v2v2v1v1v1v1v1v2v2v1h2h2h3h1h1h3h2h1h1h3h3h1h1h4v2v1v1v1v1v2v4v2v1v1v1v2v3v1v2v1v2v1v2v1v1v1v3v1v1v1v1v1v1h3h1h1h1h3h1h1h2h1v1v1v1v1v1v1h5h1h1h1h4v3v2v1h2v1h-2v-1l-2,2v-1h-2l-3,2v-1l-2,2v1h-1l-1,1h-1v1h-1l-2,2h2v1h-2v1h2l-2,2h2v2h-2v-1h-1v1v1h1v1v1h2h1v2v1l-3,3v1l-1,2 -1,1h1l-2,1h-1h-3h-3h-1h-2h-2h-1h-1h-3h-2h-1h-2h-1h-1h-1l-4,-1h-2h-1h-2h-2h-1h-2h-1h-1h-1h-1h-1h-2h-3h-1h-1h-1h-1h-4h-1h-2h-1h-1h-2h-1h-1h-1h-1h-1h-1h-1h-3h-2h-1h-1h-1h-2h-1h-1h-1h-2h-2h-2h-1h-1h-1h-1h-1h-1h-3l-2,-3v-1l-3,-1 -1,-1h-1l-1,-1v5v2v2v1l-1,2v1v1v1v1v1v2v1v1v1v2v2v1v1v1v2v1v3h-2h-1h-1h-1h-1h-1h-2h-3l-3,-1h-1h-1h-2h-1h-2h-1h-2h-1h-3v1v3v1v3v3v1v2l-5,2 -2,12h9l-2,42h-1h-1h-2h-1h-4h-1h-2h-1h-2h-2h-1h-1h-1h-3h-1h-1h-1h-1h-2h-3h-2h-2h-2h-2h-1h-1h-1h-2h-1l-2,-1h-3h-2h-1h-1h-3h-2h-2h-1h-1h-1h-1h-1h-2h-1h-1h-1h-2h-2h-1h-1h-1v-1h-1h-1h-1h-1h-3h-1h-1h-1h-2h-1h-1h-3h-2h-2h-1h-1h-2l-1,-1h-2h-1h-1h-1h-1h-1h-1h-2h-1h-2h-1h-1h-1h-2h-1h-1h-1h-1h-1h-1h-1h-2h-1l-1,-1h-1h-1h-1h-1h-1h-1h-2h-1h-1h-1h-1h-1h-2h-1h-1h-1h-1h-1l-2,-1h-1M502,713h-28h-1h-1h-1h-1h-1h-1h-1h-2h-2h-1h-1h-2h-2h-1h-1h-1h-1h-1h-1h-1h-1h-1h-1h-4v-14h-13v4h-1h-1l-2,-1 -1,-1v-2l-2,-1h-1h-1v-1h-2h-1h-1l-1,-2v-1l-1,-1h-1v1h1v1h-1v1h-1v1h-1v-1h-1v1h-1h-1l-1,1h-1h-1v1v1h-1l-1,-1 -1,1v-1l-1,1v-1h-1l1,1 -1,1v-1h-1v1h-1h-1v1v1h1l1,1h1l-5,4 -1,1v1h-2v1l-1,2v1l-1,1v1l-1,1 -1,3h-1h-1v1l-1,1h1h-1v1v1v2v1v1v2v4v3v3v1v4v1v1v1v2v10l19,9 -1,1h-1v3h-1l-1,1v1v1v1v1v1v1h1v1h-1l-1,1h-1l-2,-1 -1,1v1l-1,1 -1,1 -1,1h-1l-1,1 1,1h-1h-1v1l-1,1h-1h-1l-1,1h1v1h-1v-1h-2M443,713l-3,1v-1l1,3v1v2v3h-14v20l9,13h6h8l-1,2v2h-1v1l-1,1h-1h-1v1v1h-2l-2,1h-1v1l-5,1v1h-1v-1h-1v1h-1h-2l-1,-1v-1h-1l-1,-1h-2l-2,-1 -1,1h-1h-5h-2l-3,1v1l-1,-1h-2l-1,1h-1v2h-1v1M447,713v1v1v1v1v1v1v1v1v1v1v1l2,3v1v1v1v1v2v1v1v1v1v1v1v1v1l1,3v1v2l1,1v1v1h1h1v1h-1v1h1l-1,1h-1v1l-1,1M499,755h-24l-3,3v-2v-1v-1l-1,-2 -4,-6h-1h-1h-1h-1v-1h-1v1h-1h-1h-1l-3,3 -3,2"/>
  <g class="cities">
    <circle r="7" cx="443" cy="737"/>
    <text x="443" y="737">Minneapolis</text>
    <circle r="7" cx="536" cy="890"/>
    <text x="536" y="890">Rochester</text>
    <circle r="7" cx="571" cy="445"/>
    <text x="571" y="445">Duluth</text>
  </g>
</svg>