<?xml version="1.0" encoding="utf-8"?>
<!DOCTYPE svg PUBLIC "-//W3C//DTD SVG 1.1//EN" "http://www.w3.org/Graphics/SVG/1.1/DTD/svg11.dtd">
<svg version="1.1" xmlns="http://www.w3.org/2000/svg" width="305" height="350" viewBox="0 0 305 350">
  <g class="counties" transform="scale(0.1)">
    <path data-fips-int="27001" data-name="Aitkin County" d="M1353,1421l28,0 85,0 67,2 20,1 75,-1 -1,147 -1,32 1,65 3,1 0,98 1,147 -102,0 -45,2 1,-7 -1,-44 -50,0 -92,1 -5,-4 0,-70 0,-118 13,-4 0,-71 2,-49Z"/>
    <path data-fips-int="27003" data-name="Anoka County" d="M1646,2334l1,65 0,97 -82,0 0,50 -22,1 1,-39 -9,-21 -17,-10 -5,-9 -8,-2 -14,-12 -4,-8 -18,-7 -6,1 -11,-12 0,-96 8,1 162,0Z"/>
    <path data-fips-int="27005" data-name="Becker County" d="M819,1345l-3,97 3,1 -2,98 -2,49 -87,-1 -30,-2 -81,-1 -51,-2 -35,-1 -63,-3 -43,-2 1,-49 3,-45 1,-52 -7,0 3,-98 49,1 62,2 27,2 29,0 80,2 89,3Z"/>
    <path data-fips-int="27007" data-name="Beltrami County" d="M1112,665l1,0 -1,131 -1,65 2,9 -1,89 -1,43 0,152 -2,31 0,19 -16,-1 -81,0 -63,-1 -34,-2 -48,-1 -50,-1 3,-147 -4,0 3,-113 -21,-7 -8,-11 -2,-18 2,-14 9,-22 9,-11 -134,-4 -4,0 3,-86 3,-108 -3,0 0,-25 2,-43 0,-30 97,2 49,1 -2,98 98,2 81,2 49,0Z"/>
    <path data-fips-int="27009" data-name="Benton County" d="M1353,2102l1,13 0,100 0,36 -15,-1 -119,0 -20,-1 -7,-15 -13,-18 2,-28 -5,-20 -5,-4 3,-9 -17,-10 -5,-18 -14,-7 -17,-20 85,0 3,1 87,0Z"/>
    <path data-fips-int="27011" data-name="Big Stone County" d="M142,2206l104,4 44,3 81,2 5,0 -3,98 49,2 -1,11 -2,56 -1,30 6,0 -2,36 -16,-10 -17,-4 -13,-12 -12,0 -9,-4 -3,-12 -33,-9 -16,1 -5,-6 -12,-1 0,-19 -5,-10 -6,-21 -15,-13 -17,-5 -20,-14 -25,-2 -5,-5 -15,-25 -9,-32 -12,-22Z"/>
    <path data-fips-int="27013" data-name="Blue Earth County" d="M1248,2994l98,1 0,25 0,65 0,130 -69,-1 -92,0 -34,0 -49,-1 0,-91 2,-56 0,-49 -1,-39 16,6 5,6 11,2 8,10 20,7 0,3 29,8 4,-1 22,18 12,4 23,-8 -10,-29Z"/>
    <path data-fips-int="27015" data-name="Brown County" d="M940,2867l5,6 9,-1 7,8 11,3 4,16 4,-4 4,7 12,-1 5,7 11,0 15,5 8,7 11,-2 18,18 6,0 5,16 12,20 16,6 1,39 0,49 -75,-1 -42,-1 -82,-1 -97,-2 0,-49 -3,0 2,-48 41,0 56,1 0,-30 3,-92 20,8 5,11Z"/>
    <path data-fips-int="27017" data-name="Carlton County" d="M1925,1625l0,35 1,104 -69,1 -80,0 -7,1 -140,0 0,-98 -3,-1 -1,-65 1,-32 107,0 50,-2 6,1 130,0 1,54Z"/>
    <path data-fips-int="27019" data-name="Carver County" d="M1350,2578l-1,50 99,0 0,46 -1,4 -21,4 -3,7 -13,9 -7,15 5,18 -8,8 -11,-1 -19,22 -22,9 1,-19 -50,-1 0,-24 -48,0 2,-99 -2,-8 1,-41Z"/>
    <path data-fips-int="27021" data-name="Cass County" d="M1284,1256 8,10 8,4 12,-11 10,-1 12,10 16,-4 1,21 -6,7 -5,15 3,7 10,3 0,104 -1,128 -123,-1 -23,-1 -73,-1 -2,65 0,33 5,0 0,130 -1,63 -5,7 -5,-12 -7,0 -4,-6 -16,-14 -15,1 -10,9 -17,6 -29,-16 -7,2 -11,-12 -27,-2 -3,-10 1,-8 -8,2 -7,-10 -4,1 1,-88 0,-45 -1,0 1,-98 49,1 1,-98 -1,0 2,-128 1,-67 -3,0 1,-49 81,0 16,1 0,-19 8,9 7,-2 19,10 81,-36 8,2 8,9 4,13 13,15 -5,5 -1,16 6,13 20,8Z"/>
    <path data-fips-int="27023" data-name="Chippewa County" d="M762,2472l-1,51 -1,32 -2,63 -93,-1 -3,77 -4,-10 -13,0 1,-7 11,-3 -8,-8 -8,-1 -1,-8 -12,-11 -8,-2 -17,-18 0,-4 -17,-16 -14,-2 -8,-16 -12,-7 -13,-2 -9,-10 1,-8 -8,-12 -7,-3 -13,-16 -33,-36 -13,-16 -9,-15 72,2 57,3 74,2 39,0Z"/>
    <path data-fips-int="27025" data-name="Chisago County" d="M1716,2154l-11,7 -4,30 -4,12 3,19 -1,18 6,6 23,3 14,-4 20,15 0,15 6,6 12,22 12,6 2,7 -2,24 -20,23 0,17 -17,18 -27,1 -81,0 -1,-65 -1,-35 0,-47 -47,-1 0,-97Z"/>
    <path data-fips-int="27027" data-name="Clay County" d="M426,1334l-3,98 7,0 -1,52 -3,45 -1,49 -1,49 -42,-1 -56,-2 -138,-6 -5,1 0,-14 4,-13 4,-26 -1,-22 -3,-8 -2,-25 7,-7 1,-16 11,-30 -1,-11 -11,4 -1,-22 -6,0 -4,-20 -3,-4 7,-25 -4,-5 4,-10 2,-17 -9,-24 44,1 135,6Z"/>
    <path data-fips-int="27029" data-name="Clearwater County" d="M817,1198l-1,49 5,0 -2,98 -57,-1 -89,-3 0,-41 3,-76 2,-79 -2,0 2,-41 2,-57 -10,0 0,-50 3,-97 1,-49 134,4 -9,11 -9,22 -2,14 2,18 8,11 21,7 -3,113 4,0Z"/>
    <path data-fips-int="27033" data-name="Cottonwood County" d="M805,3012l3,0 0,49 97,2 -1,84 -2,63 -39,0 -24,-2 -57,0 -33,-2 -88,-2 -4,0 2,-73 1,-41 2,-82 102,4Z"/>
    <path data-fips-int="27035" data-name="Crow Wing County" d="M1352,1549l-2,49 0,71 -13,4 0,118 0,70 5,4 -5,0 -1,48 -93,0 -90,-2 -37,0 4,-12 -12,-17 3,-16 13,-10 6,-12 5,-7 1,-63 0,-130 -5,0 0,-33 2,-65 73,1 23,1Z"/>
    <path data-fips-int="27037" data-name="Dakota County" d="M1648,2628l4,16 -1,13 3,13 -7,14 6,11 10,-2 17,2 16,-4 12,9 6,9 21,-1 28,18 1,48 -24,0 0,49 -51,0 0,15 -6,3 -21,-4 -21,2 0,25 -33,1 -65,-1 0,-41 1,0 0,-49 -16,0 1,-48 -4,0 -2,-41 10,-3 10,-7 12,-2 18,-18 2,-12 9,-14 9,-3 11,-14 31,0Z"/>
    <path data-fips-int="27039" data-name="Dodge County" d="M1787,3019l2,122 0,73 -5,0 -77,0 -68,1 0,-143 0,-53 2,0 105,-1Z"/>
    <path data-fips-int="27041" data-name="Douglas County" d="M815,1935l-3,98 3,0 -2,35 0,54 -1,9 -98,-3 -55,-1 -90,-3 3,-98 -5,0 3,-99 55,2 58,1Z"/>
    <path data-fips-int="27043" data-name="Faribault County" d="M1346,3215l48,0 0,134 0,63 -21,-1 -111,0 -113,-2 1,-85 0,-54 1,-56 34,0 92,0Z"/>
    <path data-fips-int="27045" data-name="Fillmore County" d="M2033,3212l142,-3 3,196 -57,0 -126,3 -110,1 -2,-69 0,-67 -1,-52 0,-8 78,0Z"/>
    <path data-fips-int="27047" data-name="Freeborn County" d="M1638,3215l1,82 0,106 0,8 -32,1 -213,0 0,-63 0,-134 10,1 89,0 93,0Z"/>
    <path data-fips-int="27049" data-name="Goodhue County" d="M1962,2871l-76,0 0,49 -48,0 1,98 -52,1 -41,-1 -105,1 0,-155 0,-25 21,-2 21,4 6,-3 0,-15 51,0 0,-49 24,0 -1,-48 31,32 10,5 5,7 -2,11 15,9 8,-1 7,10 0,9 11,-4 13,5 16,2 10,-2 11,4 18,0 15,8 6,13 0,12 13,17Z"/>
    <path data-fips-int="27051" data-name="Grant County" d="M570,1927l-3,99 5,0 -3,98 -56,-2 -114,-4 -24,-1 3,-98 -5,0 2,-50 3,-49 36,2 95,3Z"/>
    <path data-fips-int="27053" data-name="Hennepin County" d="M1448,2428l4,0 11,12 6,-1 18,7 4,8 14,12 8,2 5,9 17,10 9,21 -1,39 22,-1 7,0 1,47 3,6 -1,17 9,13 -9,14 -2,12 -18,18 -12,2 -10,7 -10,3 -20,2 -1,-7 -22,-8 -3,5 -30,1 1,-4 0,-46 -99,0 1,-50 0,-46 3,-10 12,-7 3,-14 16,-20 17,-8 -7,-13 9,-12 26,-5 14,-7Z"/>
    <path data-fips-int="27055" data-name="Houston County" d="M2356,3205l9,31 8,10 -4,25 -5,11 0,31 4,9 -3,13 17,19 -5,23 12,22 -13,1 -198,5 -3,-196 114,-2Z"/>
    <path data-fips-int="27057" data-name="Hubbard County" d="M867,1199 48,1 34,2 63,1 -1,49 3,0 -1,67 -2,128 1,0 -1,98 -49,-1 -105,-3 -40,0 2,-98 -3,-1 3,-97 2,-98 -5,0 1,-49Z"/>
    <path data-fips-int="27059" data-name="Isanti County" d="M1598,2154l0,97 47,1 0,47 1,35 -24,-1 -162,0 -8,-1 0,-81 -1,-99 43,2Z"/>
    <path data-fips-int="27061" data-name="Itasca County" d="M1617,936l-1,32 1,64 8,0 -1,31 0,94 -1,23 0,40 1,9 0,148 4,0 0,46 -75,1 -20,-1 -67,-2 -85,0 -28,0 0,-104 -10,-3 -3,-7 5,-15 6,-7 -1,-21 -16,4 -12,-10 -10,1 -12,11 -8,-4 -8,-10 -7,-9 -20,-8 -6,-13 1,-16 5,-5 -13,-15 -4,-13 -8,-9 -8,-2 -81,36 -19,-10 -7,2 -8,-9 2,-31 0,-152 1,-43 43,1 138,0 61,1 1,-30 19,1 52,0 59,2 80,0Z"/>
    <path data-fips-int="27063" data-name="Jackson County" d="M902,3210l2,0 -4,195 -24,0 -150,-3 -71,-2 1,-38 2,-50 3,-108 88,2 33,2 57,0 24,2Z"/>
    <path data-fips-int="27065" data-name="Kanabec County" d="M1631,1913l0,100 -34,0 0,19 0,93 1,29 -104,0 -43,-2 -1,-62 0,-77 34,0 0,-98 45,-2Z"/>
    <path data-fips-int="27067" data-name="Kandiyohi County" d="M956,2378l-1,49 2,7 -2,154 -1,34 -41,-2 -47,0 -108,-2 2,-63 1,-32 1,-51 2,-49 -4,0 2,-98 49,1 39,1 42,0 65,1Z"/>
    <path data-fips-int="27069" data-name="Kittson County" d="M385,289l-2,60 -2,67 -2,33 7,0 -3,61 -1,36 -25,0 -66,-3 -98,-4 -79,-4 -21,0 -4,-10 8,-4 8,-23 2,-13 9,0 -2,-6 6,-11 0,-11 -12,-25 0,-14 -5,-2 2,-16 -10,-6 6,-11 -11,-3 7,-13 0,-19 -9,-6 3,-10 -6,-4 -7,-24 -1,-19 4,-9 151,7Z"/>
    <path data-fips-int="27071" data-name="Koochiching County" d="M1613,521l-1,120 -1,97 0,98 3,0 1,50 2,10 0,40 -52,-2 -80,0 -59,-2 -52,0 -19,-1 -1,30 -61,-1 -138,0 -43,-1 1,-89 -2,-9 1,-65 1,-131 -1,0 0,-100 1,-21 0,-67 5,-6 13,0 15,5 13,-4 16,7 5,8 2,18 33,4 34,0 24,2 18,6 40,2 9,12 6,22 -5,22 9,8 20,-1 17,2 17,-1 8,-8 9,5 23,-4 28,-9 4,-12 -4,-12 12,-4 12,-8 2,3 16,-4 2,-9 35,-9 18,1 11,10Z"/>
    <path data-fips-int="27073" data-name="Lac qui Parle County" d="M422,2448l7,6 19,9 9,15 13,16 33,36 13,16 7,3 8,12 -1,8 9,10 13,2 12,7 -1,25 -44,-1 -2,48 -100,-3 -32,-2 -58,-1 -51,-2 3,-74 7,-187 12,1 5,6 16,-1 33,9 3,12 9,4 12,0 13,12 17,4Z"/>
    <path data-fips-int="27075" data-name="Lake County" d="M2387,755l2,70 2,0 2,34 0,44 3,21 1,56 1,38 0,29 4,116 -8,5 -19,24 -13,10 -15,18 -5,16 -16,16 -8,12 -35,38 -5,10 -19,15 -27,33 -10,3 -4,8 -21,10 -9,15 -7,3 -14,15 -4,10 -14,4 -18,19 -11,17 -6,2 -1,-47 0,-56 -3,-104 0,-135 -5,-67 -2,-44 -1,-49 0,-62 -2,-28 -2,-120 32,1 -3,17 7,0 3,21 -5,10 10,-4 1,8 12,-3 4,9 30,-7 -3,8 -2,25 3,4 29,-15 15,-1 5,11 18,-5 7,-7 27,-3 18,-6 41,-38 -1,-3 21,-15Z"/>
    <path data-fips-int="27077" data-name="Lake of the Woods County" d="M1113,477 0,67 -1,21 0,100 -65,-1 -49,0 -81,-2 -98,-2 2,-98 -49,-1 3,-98 66,2 27,0 2,-79 1,-37 -10,9 -16,8 -29,4 -18,-10 -8,-11 -5,-13 5,-5 1,0 -1,0 1,0 0,1 -4,-4 -3,-14 2,-11 63,1 2,-121 2,-96 14,11 21,8 16,-3 10,-6 11,-1 38,27 14,1 -4,16 10,45 -1,9 9,44 8,13 22,121 -4,18 3,7 -8,8 4,9 1,18 15,13 2,6 10,4 12,12 11,0 6,8 32,6Z"/>
    <path data-fips-int="27079" data-name="Le Sueur County" d="M1446,2823l-1,54 0,143 -99,0 0,-25 -98,-1 -4,-12 5,-9 21,-17 11,-21 -9,-7 -3,-20 6,-1 -2,-8 6,-2 4,-26 4,-3 12,-25 0,-10 -8,-10Z"/>
    <path data-fips-int="27081" data-name="Lincoln County" d="M416,2756l-2,49 5,0 -5,175 -1,20 -93,-4 -58,-1 2,-41 8,-204 56,3 25,0Z"/>
    <path data-fips-int="27083" data-name="Lyon County" d="M614,2812l0,45 -3,67 -2,83 -24,0 -50,-3 -116,-3 -6,-1 1,-20 5,-175 -5,0 2,-49 41,2 155,3 -1,50Z"/>
    <path data-fips-int="27085" data-name="McLeod County" d="M1155,2576l97,1 -1,41 2,8 -2,99 -97,-1 -1,48 -89,0 -8,-1 0,-49 1,-49 -1,-49 1,-50 45,2Z"/>
    <path data-fips-int="27087" data-name="Mahnomen County" d="M673,1341l-80,-2 -29,0 -27,-2 -62,-2 4,-110 2,-86 63,3 27,0 43,2 62,1 2,0 -2,79 -3,76Z"/>
    <path data-fips-int="27089" data-name="Marshall County" d="M675,559l0,30 -2,43 0,25 3,0 -3,108 -59,-2 -31,0 -85,-3 -35,-2 -31,0 -10,-2 -33,-1 -57,-2 -74,-3 -121,-5 -48,-2 3,-17 -4,-10 7,-3 -4,-10 8,-3 4,-20 -6,-33 -6,-12 6,-9 -8,-8 12,-6 -4,-13 7,-2 -1,-12 -11,-16 12,-4 -7,-7 8,-11 -10,-2 6,-6 -8,-4 21,0 79,4 98,4 66,3 25,0 45,1 78,4 16,0 65,5 25,0Z"/>
    <path data-fips-int="27091" data-name="Martin County" d="M1102,3213l49,1 -1,56 0,54 -1,85 -131,-1 -118,-3 4,-195Z"/>
    <path data-fips-int="27093" data-name="Meeker County" d="M1155,2404l1,26 0,44 -1,102 -53,0 -45,-2 -1,50 -102,-2 1,-34 2,-154 -2,-7 1,-49 53,1 98,1 -1,24Z"/>
    <path data-fips-int="27095" data-name="Mille Lacs County" d="M1484,1915l0,98 -34,0 0,77 1,62 1,99 -98,0 0,-36 0,-100 -1,-13 -1,-57 0,-33 -16,0 0,-99 1,-48 5,0 92,-1 50,0 1,44Z"/>
    <path data-fips-int="27097" data-name="Morrison County" d="M1130,1844l-6,12 -13,10 -3,16 12,17 -4,12 37,0 90,2 93,0 0,99 16,0 0,33 1,57 -56,-1 -87,0 -3,-1 -85,0 17,20 14,7 -45,-1 -88,0 -13,0 2,-85 -3,-4 3,-62 1,-136 -1,0 0,-37 11,12 7,-2 29,16 17,-6 10,-9 15,-1 16,14 4,6 7,0Z"/>
    <path data-fips-int="27099" data-name="Mower County" d="M1784,3214l1,8 94,0 3,-1 1,52 0,67 2,69 -91,2 -155,0 0,-8 0,-106 -1,-82 1,0 68,-1Z"/>
    <path data-fips-int="27101" data-name="Murray County" d="M609,3007l53,1 -2,82 -1,41 -2,73 -78,-2 -43,-1 -38,-2 -81,-3 -4,0 3,-109 3,-86 116,3 50,3Z"/>
    <path data-fips-int="27103" data-name="Nicollet County" d="M1248,2994l-5,10 10,29 -23,8 -12,-4 -22,-18 -4,1 -29,-8 0,-3 -20,-7 -8,-10 -11,-2 -5,-6 -16,-6 -16,-6 -12,-20 -5,-16 -6,0 -18,-18 -11,2 -8,-7 -15,-5 -11,0 -5,-7 -12,1 -4,-7 -4,4 -4,-16 -11,-3 -7,-8 -9,1 -5,-6 63,2 61,1 57,0 57,1 102,1 3,-1 -4,26 -6,2 2,8 -6,1 3,20 9,7 -11,21 -21,17 -5,9Z"/>
    <path data-fips-int="27105" data-name="Nobles County" d="M657,3204l4,0 -3,108 -2,50 -1,38 -70,-1 -175,-6 1,-48 4,-75 2,-74 81,3 38,2 43,1Z"/>
    <path data-fips-int="27107" data-name="Norman County" d="M184,1127l53,4 21,0 159,6 64,2 -2,86 -4,110 -49,-1 -69,-3 -135,-6 -44,-1 9,-8 -9,-16 6,-9 -6,-7 6,-26 -3,-23 6,-16 -6,-5 -3,-16 7,-4 0,-10 -7,-11 3,-8 -3,-14Z"/>
    <path data-fips-int="27109" data-name="Olmsted County" d="M1839,3018l82,0 12,0 0,49 98,-2 1,50 1,97 -73,1 -78,0 0,8 -3,1 -94,0 -1,-8 5,0 0,-73 -2,-122Z"/>
    <path data-fips-int="27111" data-name="Otter Tail County" d="M815,1590l0,49 2,0 -3,147 -1,50 4,0 -1,23 -1,76 -132,-5 -58,-1 -55,-2 -61,-2 -95,-3 -36,-2 3,-98 -6,0 4,-96 0,-15 3,-85 42,1 1,-49 43,2 63,3 35,1 51,2 81,1 30,2Z"/>
    <path data-fips-int="27113" data-name="Pennington County" d="M673,765l-3,86 4,0 -1,49 -48,-2 0,-16 -65,-3 -52,0 -105,-4 -69,-3 1,-33 -6,0 3,-86 57,2 33,1 10,2 31,0 35,2 85,3 31,0Z"/>
    <path data-fips-int="27115" data-name="Pine County" d="M1926,1764l1,58 0,72 2,63 -13,5 -7,13 -2,16 -7,2 -18,-8 -11,6 -11,25 -22,-6 -9,9 0,9 -24,10 -11,1 -14,14 -12,7 -12,20 -1,8 -8,7 1,16 -7,9 -2,12 -11,15 -12,7 -118,0 -1,-29 0,-93 0,-19 34,0 0,-100 -1,-147 140,0 7,-1 80,0Z"/>
    <path data-fips-int="27117" data-name="Pipestone County" d="M413,3000l6,1 -3,86 -3,109 -85,-2 -74,-3 8,-196 58,1Z"/>
    <path data-fips-int="27119" data-name="Polk County" d="M332,753l-3,86 6,0 -1,33 -3,66 50,2 -2,48 52,3 39,1 103,3 2,-49 49,1 1,-49 48,2 -3,97 0,50 10,0 -2,57 -2,41 -62,-1 -43,-2 -27,0 -63,-3 -64,-2 -159,-6 -21,0 -53,-4 -7,-16 10,-7 -3,-38 -8,-7 -1,-30 -13,-21 -4,-17 0,-16 -11,-10 4,-4 -8,-10 0,-12 -7,-7 -1,-15 -6,-3 -2,-12 5,-7 -9,-19 -6,-4 -1,-9 3,-16 -6,-16 1,-13 -11,-17 1,-14 -7,-6 -4,-18 -5,-4 10,-9 -9,-1 0,-6 48,2 121,5Z"/>
    <path data-fips-int="27121" data-name="Pope County" d="M812,2131l-2,98 3,0 -2,97 -49,-1 -47,-2 -42,0 -44,-2 -62,-1 3,-98 -3,0 2,-98 90,3 55,1Z"/>
    <path data-fips-int="27123" data-name="Ramsey County" d="M1647,2496l14,0 1,5 0,110 0,17 -14,0 -13,-16 -31,0 -11,14 -9,3 -9,-13 1,-17 -3,-6 -1,-47 -7,0 0,-50Z"/>
    <path data-fips-int="27125" data-name="Red Lake County" d="M625,898l-1,49 -49,-1 -2,49 -103,-3 -39,-1 -52,-3 2,-48 -50,-2 3,-66 69,3 105,4 52,0 65,3Z"/>
    <path data-fips-int="27127" data-name="Redwood County" d="M907,2843l-3,92 0,30 -56,-1 -41,0 -2,48 -41,0 -102,-4 -53,-1 2,-83 3,-67 0,-45 95,3 2,-89 17,3 9,19 21,-2 24,24 8,2 28,23 25,17 14,1 25,16 1,3 18,1Z"/>
    <path data-fips-int="27129" data-name="Renville County" d="M954,2622l102,2 1,49 -1,49 -53,0 -1,98 1,1 0,48 -63,-2 -8,-5 -5,-11 -20,-8 -6,-10 -18,-1 -1,-3 -25,-16 -14,-1 -25,-17 -28,-23 -8,-2 -24,-24 -21,2 -9,-19 -17,-3 -15,-8 0,-7 -18,-11 -6,2 -10,-8 3,-77 93,1 108,2 47,0Z"/>
    <path data-fips-int="27131" data-name="Rice County" d="M1543,2823l0,41 65,1 33,-1 0,155 -2,0 -66,1 -80,0 -48,0 0,-143 1,-54Z"/>
    <path data-fips-int="27133" data-name="Rock County" d="M413,3196l4,0 -2,74 -4,75 -1,48 -64,-2 -99,-4 2,-69 5,-127 74,3Z"/>
    <path data-fips-int="27135" data-name="Roseau County" d="M786,303l-2,11 3,14 4,4 0,-1 -1,0 1,0 -1,0 -5,5 5,13 8,11 18,10 29,-4 16,-8 10,-9 -1,37 -2,79 -27,0 -66,-2 -3,98 -97,-2 -64,-3 -25,0 -65,-5 -16,0 -78,-4 -45,-1 1,-36 3,-61 -7,0 2,-33 2,-67 2,-60 317,12Z"/>
    <path data-fips-int="27137" data-name="Saint Louis County" d="M2098,754l2,120 2,28 0,62 1,49 2,44 5,67 0,135 3,104 0,56 1,47 -8,8 -9,0 -7,8 -10,4 -12,13 -14,9 -16,16 -18,12 -20,18 7,18 20,26 4,1 0,1 -4,-2 -27,-35 -4,2 3,10 -1,0 -7,-7 -9,12 -11,14 -1,-1 -10,7 -1,1 2,18 -2,8 -1,4 -25,2 -8,-8 -4,-2 -1,-54 -130,0 -6,-1 -50,2 -107,0 1,-147 0,-46 -4,0 0,-148 -1,-9 0,-40 1,-23 0,-94 1,-31 -8,0 -1,-64 1,-32 0,-40 -2,-10 -1,-50 -3,0 0,-98 1,-97 1,-120 39,2 13,-4 0,12 8,1 75,38 26,-4 9,2 3,17 -3,7 -24,2 -5,18 9,12 12,4 30,-3 15,-5 11,0 12,17 7,2 0,7 -7,16 2,12 13,24 8,8 18,41 20,-11 17,-4 -9,-14 -3,-10 2,-8 -4,-7 6,-14 10,-7 21,4 23,-11 0,5 20,0 13,-2 4,14 17,7 -4,14 3,18 12,11 9,0 -3,7 24,-4 10,10 1,8 19,-4Z"/>
    <path data-fips-int="27139" data-name="Scott County" d="M1523,2685l2,41 4,0 -1,48 16,0 0,49 -1,0 -97,0 -155,0 7,-13 -2,-13 9,-10 5,0 4,-10 6,2 9,-7 10,3 7,-5 2,-1 22,-9 19,-22 11,1 8,-8 -5,-18 7,-15 13,-9 3,-7 21,-4 30,-1 3,-5 22,8 1,7Z"/>
    <path data-fips-int="27141" data-name="Sherburne County" d="M1354,2251l98,0 0,81 0,96 -4,0 -10,-8 -8,-24 -5,6 -36,-2 -7,-6 -6,4 -26,0 -14,-8 -10,-13 -16,-3 -7,-13 -11,-11 -12,-2 -3,4 -13,-12 -14,-2 -10,-11 -1,-7 -12,-2 -8,-9 0,-7 -16,-17 -3,-16 0,-20 20,1 119,0Z"/>
    <path data-fips-int="27143" data-name="Sibley County" d="M1251,2725l48,0 0,24 50,1 -1,19 -2,1 -7,5 -10,-3 -9,7 -6,-2 -4,10 -5,0 -9,10 2,13 -7,13 8,10 0,10 -12,25 -4,3 -3,1 -102,-1 -57,-1 -57,0 -61,-1 0,-48 -1,-1 1,-98 53,0 0,49 8,1 89,0 1,-48Z"/>
    <path data-fips-int="27145" data-name="Stearns County" d="M1153,2127l5,18 17,10 -3,9 5,4 5,20 -2,28 13,18 7,15 0,20 3,16 16,17 0,7 8,9 12,2 1,7 -15,23 -6,22 -11,13 -19,9 -5,-8 -26,4 -3,14 -49,0 1,-24 -98,-1 -53,-1 1,-50 -65,-1 -42,0 -39,-1 2,-97 -3,0 2,-98 1,-9 124,2 29,2 41,0 13,0 88,0Z"/>
    <path data-fips-int="27147" data-name="Steele County" d="M1639,3019l0,53 0,143 -1,0 -52,1 -93,0 0,-196 80,0Z"/>
    <path data-fips-int="27149" data-name="Stevens County" d="M567,2320l-88,-3 -57,-2 -49,-2 3,-98 -5,0 4,-98 24,1 114,4 56,2 -2,98 3,0Z"/>
    <path data-fips-int="27151" data-name="Swift County" d="M762,2325l-2,98 4,0 -2,49 -72,-2 -39,0 -74,-2 -57,-3 -72,-2 -19,-9 -7,-6 2,-36 -6,0 1,-30 2,-56 1,-11 57,2 88,3 62,1 44,2 42,0Z"/>
    <path data-fips-int="27153" data-name="Todd County" d="M979,1790l3,10 27,2 0,37 1,0 -1,136 -3,62 3,4 -2,85 -41,0 -29,-2 -124,-2 0,-54 2,-35 -3,0 3,-98 1,-76 1,-23 -4,0 1,-50 97,2 29,2Z"/>
    <path data-fips-int="27155" data-name="Traverse County" d="M375,1969l-2,50 5,0 -3,98 -4,98 -81,-2 -44,-3 -104,-4 -7,-17 6,-17 14,-10 7,-3 21,-17 10,-5 23,-16 7,-10 0,-7 20,-24 8,-14 3,-39 4,-17 -3,-13 -1,-32 41,2Z"/>
    <path data-fips-int="27157" data-name="Wabasha County" d="M1962,2871l4,6 25,8 19,4 5,4 20,5 10,9 28,13 18,18 4,12 -4,12 11,7 4,12 -1,11 7,19 7,5 -90,1 2,48 -98,2 0,-49 -12,0 -82,0 -1,-98 48,0 0,-49Z"/>
    <path data-fips-int="27159" data-name="Wadena County" d="M962,1544l-1,98 1,0 0,45 -1,88 4,-1 7,10 8,-2 -1,8 -39,0 -29,-2 -97,-2 3,-147 -2,0 0,-49 2,-49 40,0Z"/>
    <path data-fips-int="27161" data-name="Waseca County" d="M1493,3020l0,196 -89,0 -10,-1 -48,0 0,-130 0,-65 99,0Z"/>
    <path data-fips-int="27163" data-name="Washington County" d="M1755,2398l-5,4 3,16 -3,7 3,19 -6,17 6,6 -2,11 8,21 -25,28 2,10 14,13 -3,13 0,18 8,16 -3,19 -6,10 4,11 0,21 -9,26 -7,11 1,13 -21,1 -6,-9 -12,-9 -16,4 -17,-2 -10,2 -6,-11 7,-14 -3,-13 1,-13 -4,-16 14,0 0,-17 0,-110 -1,-5 -14,0 0,-97 81,0Z"/>
    <path data-fips-int="27165" data-name="Watonwan County" d="M1104,3066l-2,56 0,91 -198,-3 -2,0 2,-63 1,-84 82,1 42,1Z"/>
    <path data-fips-int="27167" data-name="Wilkin County" d="M382,1626l-3,85 0,15 -4,96 6,0 -3,98 -3,49 -80,-2 -41,-2 10,-32 -2,-22 -6,-19 2,-9 -5,-7 3,-12 -6,-24 6,-2 -6,-12 3,-10 -2,-26 -25,-26 1,-8 -9,-19 -4,3 0,-12 -5,2 2,-18 -9,-13 3,-10 -5,-16 3,-16 -16,-32 1,-7 138,6Z"/>
    <path data-fips-int="27169" data-name="Winona County" d="M2119,3016l12,8 5,8 27,16 12,2 6,14 10,3 16,20 14,7 11,13 30,3 12,7 6,-2 14,7 11,19 17,15 3,11 15,15 5,12 11,11 -67,2 -114,2 -142,3 -1,-97 -1,-50 -2,-48Z"/>
    <path data-fips-int="27171" data-name="Wright County" d="M1240,2327 10,11 14,2 13,12 3,-4 12,2 11,11 7,13 16,3 10,13 14,8 26,0 6,-4 7,6 36,2 5,-6 8,24 10,8 -5,8 -14,7 -26,5 -9,12 7,13 -17,8 -16,20 -3,14 -12,7 -3,10 0,46 -98,-1 -97,-1 1,-102 0,-44 -1,-26 3,-14 26,-4 5,8 19,-9 11,-13 6,-22Z"/>
    <path data-fips-int="27173" data-name="Yellow Medicine County" d="M662,2694l10,8 6,-2 18,11 0,7 15,8 -2,89 -95,-3 -3,-1 1,-50 -155,-3 -41,-2 -63,-3 -25,0 -56,-3 4,-98 51,2 58,1 32,2 100,3 2,-48 44,1 1,-25 8,16 14,2 17,16 0,4 17,18 8,2 12,11 1,8 8,1 8,8 -11,3 -1,7 13,0Z"/>
    <path data-fips-int="27000" data-name="null" d="M1959,1627l2,-8 -2,-18 9,12ZM1971,1594l11,-14 9,-12 7,7 -15,7 -3,11ZM2027,1598l4,2 -7,-2 -16,-18 -9,-5 -3,-10 4,-2ZM2031,1599l-4,-1 -20,-26 -7,-18 20,-18 18,-12 16,-16 14,-9 12,-13 10,-4 7,-8 9,0 8,-8 6,-2 11,-17 18,-19 14,-4 4,-10 14,-15 7,-3 9,-15 21,-10 4,-8 10,-3 27,-33 19,-15 5,-10 35,-38 8,-12 16,-16 5,-16 15,-18 13,-10 19,-24 8,-5 15,-12 45,-44 24,-18 24,-21 25,-13 24,-16 16,-8 7,-8 20,-9 13,-3 4,-5 35,-10 11,-6 38,-14 6,2 14,-11 29,-7 4,-5 17,-4 17,-7 16,-13 2,-5 50,-20 19,-14 7,-8 16,-10 -3,-7 10,-6 9,6 -5,-14 12,-10 4,10 8,-2 8,-7 18,-5 -20,2 32,-10 -162,415 -163,3 -106,1 -134,97 -55,39 -116,81 -37,25 -47,29Z"/>
    <path data-fips-int="27031" data-name="Cook County" d="M2941,841l20,-2 -18,5 -8,7 -8,2 -4,-10 -12,10 5,14 -9,-6 -10,6 3,7 -16,10 -7,8 -19,14 -50,20 -2,5 -16,13 -17,7 -17,4 -4,5 -29,7 -14,11 -6,-2 -38,14 -11,6 -35,10 -4,5 -13,3 -20,9 -7,8 -16,8 -24,16 -25,13 -24,21 -24,18 -45,44 -15,12 -4,-116 0,-29 -1,-38 -1,-56 -3,-21 0,-44 -2,-34 -2,0 -2,-70 20,-17 23,-8 10,-9 5,5 13,-2 3,37 5,-5 9,13 8,-1 -7,14 12,12 5,13 25,-6 17,-2 5,-5 23,-7 -1,9 5,6 26,-3 9,-5 9,5 13,-4 10,6 12,-1 7,-5 13,2 25,-7 31,-3 19,3 26,11 12,19 1,11 11,8 11,-1 6,10 19,5 15,-8 5,-9 22,-5 14,1 3,5 14,-1 9,3 16,-7 2,5Z"/>
  </g>
  <g class="cities">
    <circle r="1" cx="155.1" cy="257.8"/>
    <text x="155.1" y="257.8">Minneapolis</text>
    <circle r="1" cx="161.9" cy="259.8"/>
    <text x="161.9" y="259.8">Saint Paul</text>
    <circle r="1" cx="187.3" cy="311.7"/>
    <text x="187.3" y="311.7">Rochester</text>
  </g>
</svg>