<?xml version="1.0" encoding="utf-8"?>
<!DOCTYPE svg PUBLIC "-//W3C//DTD SVG 1.1//EN" "http://www.w3.org/Graphics/SVG/1.1/DTD/svg11.dtd">
<svg version="1.1" xmlns="http://www.w3.org/2000/svg" width="305" height="350" viewBox="0 0 305 350">
  <path class="state" transform="scale(0.1)" d="M1926,1626v1v2v2v6l2,5v9v1v4v1v2v2v1v2v2v1v3v4v3v5v3v4v10v5v11v2v33v12l1,28v2v3v10v7v2v3v17v3v3v3v15v54l1,6v12v8v5v5v4v3v2l-2,1h-3v2h-2h-3v2h-1h-2l-1,1 -1,2v2l-2,3 -1,3v2v2v1v2l-3,7 -6,6v-1h-4l-2,-2h-1h-5v-2h-1v-1h-2h-1l-1,-2h-2h-1h-2l-4,2 -2,1 -4,10h-1v2l-2,1v2l-1,3 -2,2h-1v2l1,1 -1,2 -2,2h-7l-4,-2 -2,-2 -5,-1h-2h-1h-2l-1,1 -3,2v2h-2l-1,3h-1v2v1l-2,7h-1h-2l-1,2h-2h-1h-2l-1,1 -1,2h-2h-1v2h-2h-1h-2h-1v1h-2l-1,2h-1l-6,2 -2,-2 -1,5h-2l-5,2h-2v1l-3,2 -3,3v2v2l-4,1 -3,2v2h-1l-5,1 -3,4v1l-1,2 -1,2v1l-5,10v2v2l-1,1v2l-2,2 -3,1 -1,2 -1,2 -3,5 1,1v2v10l-1,2v1l-3,2 -2,2 -1,11v2l-3,3 -1,2 -3,3h-2v2l-1,2v1h-2h-1l-3,4 -7,5h-2h-1l-2,1 -4,4h-1v1l-2,2v2v1v3v2v3l-1,2 -2,5v2v8l-1,2v3l-2,2h2l-2,1v2l-1,12 1,1v2v2l2,1 -2,5v4v1v2v8l2,2v2h1l12,3h1l29,-2 19,24h-1v5h1v1v2l6,5v2l1,1 2,2 1,3 2,2v2l1,1v2l4,7h2l11,10 2,6 -2,2v5v3v2v6l-1,4 -2,1h-1l-1,2 -2,2h-1v1v2l-2,2 -1,5 -2,1h-1l-2,2h-1v2h-1l-2,1v2l-1,2 1,1v4l2,1v2v2v1l-2,2 -3,5 -1,2 -2,1 -1,2 -2,2h-1v1l-1,2 -2,2h-1l-2,1 -1,2h-2v2h-1h-2l-1,1v4l3,6 1,4v1l-1,2v2l-3,3 1,12v1h2l1,5v2h-1v2l-2,1 -1,2v2l-1,1v4v3v2v1l5,7 -1,2v3l-2,2v1l2,4v1l3,9v1l1,4v1l2,2v1l-2,4 -4,3v2h-2l-2,3 -6,5v2h-2h-1l-2,3 -2,3 -2,5v2v2h2l14,15v1v4v1v2l-1,2v1h-2v4v5h2v11v2v2h1l1,1 2,2 3,13v4l-5,15h-1l-3,8v2l2,3 1,2v1l1,2 -1,2 -1,5v1l1,7v2l-1,6h-2v4v3l-1,1 -2,4v1v2v2h-1v5v1l-2,2 -1,2h-2v1l-1,2h-1v3v2l-2,2v6v2v2l2,1 28,19 21,21 1,2h3l17,13v4l3,3v2v3v2l-1,1v2l1,2v1h2h1l9,2 1,3v2h2h1h6l1,2v1h2l1,4 3,5v3h-1v2h1l5,1 1,-1h9h1l3,1h2h1l1,2 6,-2h2l8,4 51,6 1,2 3,2v1l6,13v4v5l2,3 2,5 16,13h2l3,5 42,15 75,40h1l11,12 2,5v2l2,3v3l-2,2 -1,2v1l-1,5h1l12,17 2,8 -1,4v5v1l13,20 14,10 2,3 46,32v3l19,12 1,3 24,20 1,2 70,22 2,8 3,3 3,2v2l6,5 1,1 3,2 3,3 3,4 2,1v2h1v3l1,4 8,9v2l1,2 10,10 2,1v2l1,5 3,3h2v4h1h1l3,3v2l5,5v3v2v1v2h1v5l2,2v1l1,4 1,3v2v1h2l3,4 3,5v1v2h-2v3v2l-1,3v2v2l-2,1 2,4v1v4h-2l-1,6 -2,2 -1,3v2v3v4l-1,18h1v2v1v2l3,3v2l1,2 -1,1 -2,7v2v3v1l2,4 14,13v3v9l-1,1 -2,4 -1,3v2v3l1,3 2,2 9,13 -15,5h-6h-10l-69,2h-2l-59,2h-49h-58l-57,3h-28h-2h-3h-4h-16h-16h-1l-77,2h-3h-1h-2h-1h-18h-1h-3h-2h-1h-6h-37h-2h-46h-32l-80,3h-1h-1h-22h-3h-6h-10h-32h-92h-50h-1h-10h-23h-38h-22h-32h-10l-68,-3h-47h-8h-19h-37h-2h-20h-59h-2h-10l-39,-2h-4h-13h-47l-52,-3h-2h-9h-10h-16h-22h-45h-1h-3h-6h-4l-18,-2h-11h-31l-42,-2h-13h-14h-23l-125,-5h-14h-2h-2h-15l-42,-1h-9h-13l-27,-2 -26,-2 -64,-3h-7h-36h-5l5,-70 1,-55 2,-23v-2v-21l1,-27 3,-68v-20l3,-38 1,-68 2,-5v-15v-7v-2l1,-11 3,-99 2,-34 1,-20v-2v-17l1,-33 2,-22v-3l1,-23v-12l2,-30v-8v-8l3,-67 1,-22v-16l2,-27v-7v-6l4,-108v-14v-3v-2l-3,-6 -1,-2 -2,-2v-5l-1,-3 -2,-7 -16,-18h-4v-1h-3l-10,-5 -3,-2h-1l-3,-3 -5,-4 -4,-1 -3,-2 -3,-2h-3h-3h-1h-1l-2,-1h-4v1l-7,-1 -11,-10 -1,-4 -10,-18 -3,-3v-2v-5l-2,-2v-3l-1,-2v-1v-2l-6,-10v-2l-7,-10 -1,-6 -3,-2 -15,-20v-2l-3,-3 -1,-2 -2,-6 2,-9v-1l1,-2v-2l2,-5 1,-1 3,-4h2l2,-3 2,-1 4,-4 9,-3 3,-3 6,-4 2,-1 27,-19 14,-10 1,-1 3,-5 5,-9v-1l1,-2v-3v-2h3l4,-5 8,-7 1,-5 4,-1v-2l3,-5 6,-42v-1h2v-2v-3v-2v-2l1,-8v-5v-2v-1v-2l-1,-3v-2l-2,-1v-5v-2v-3v-2v-2v-1v-5v-2v-2v-3v-5v-2l-1,-1h1v-2l3,-8v-2v-2l3,-1 1,-2v-2l2,-3v-2v-1v-4v-1v-4v-1v-2v-7l-2,-1v-5v-2h-1l-3,-3v-2l3,-3 -3,-2v-2v-3h-1v-2v-1v-2l1,-2v-1v-2v-2l-1,-6h-2l-1,-2v-2v-3l1,-3h-1l3,-4v-1l-2,-4 -1,-3 -2,-2 -1,-5v-8l1,-2h3h2v-3l-2,2 -1,-2 -2,-1 2,-2 -2,-2 -1,-1 1,-4 2,-5h-2v-3l2,-2h-2h-1h3v-1v-2h-3h-2v-2l3,-5v-3l2,-2 -2,-3v-2v-1v-2h-1h1v-2h-1l-2,-1 -3,-2 -1,-2v-1l1,-2v-2h-1h-3v-3h-1h-6h-2v-2v-1h2v-2h-2v-2h-1v-1l-2,-2v-2h-1l-3,-3v-2v-1v-4v-1v-2l-1,-2v-3h-2v-2h-3h-3l3,-1h2v-4h-5h-1h-1h1h1v-1l-2,1v-1v-2l1,-2v-1v-2l-1,-2v-1h-2l-4,1 -2,-5h2h1l-1,-1v-2l1,-3v-4l-1,-5v-1v-2v2h-2v-2l-1,-3h-2h-2l2,-2 -2,-2v-1l2,-4v-1h-2v-2v-3h2l-2,-2v-2v2l2,-2 -2,-5v2v-2l2,-1h-2v-7l2,2 -2,-7h-2v-1h2l-3,-5v-2h1v-2h2v-1v-4h-3l1,-1h-3v-2h2l3,-2 -3,-1h-2h2l1,-2 -4,-2 3,-1 -6,-4v-1v-2l-2,-3h2v-4v-1h-2v-4h-1l-4,4v-4h4h-4h-2v-1h2l3,-2v-3l-3,3h-2h-1v-3l1,-2v-3l2,-4 -2,-1h-1v-2v-3h1v-4h-1l1,-3h2l-2,-3 2,1 4,-6v-7l-1,-2h-3l3,-3h1v-2l1,-3h-1h-1l4,-5v-2h-2v-1v-2l2,-3h-3l3,-2 -2,-2h-1l1,-3v-2l2,-6 -3,-4v-3h-1h-3l4,-2v-5h-1l-3,-3v-2v-3h3l-5,-3 2,-4v-1l4,-5h3v3v-3h-2l-1,-2v-2v2h3v-3l-2,-3h2l3,3v-3v-2l1,-2h-4v-3h3h1h-1l-3,-3v-2h3v-3l1,-4v-3h5h-3v-3l1,-4h-3l3,-8 2,3v-3l2,-3v-4h-2l2,-1h2h-4v-2l4,-2 -2,-1 -7,3 -1,2h-3l3,-2 -3,-2v2v-5v-2l-2,-5h-2h1v-1v-2l-1,-3h1l1,-4h2h-2l-1,-1v1h-4h-2l-1,-1 -2,-4h2v-1v-5l-2,-2 2,-2 -2,-1v-4h2v-1l-3,-2 -3,-3v-2l3,-3 4,-2v-3v-5v-7l-1,3 1,-3 -1,-3 -2,-2 3,-3v-4l-1,-3h1v-2v-1v-2h2v-2h-2h-1l1,-1h2v-2v-8v1l-2,-1v-5l-3,-2h-1l3,-6h1v-4l-1,-1v-2h1l-3,-2 -1,-3 3,-2 1,-1v-5v-2h2l-3,-2v-1h1l2,-2h-2v-2h2v-1h-2v1v-5v-1h-1l-2,-2v2l-1,1h-3l7,-8h-1l1,-2v-1l-1,-2v-3h1h-1v-2l-2,2h-1l4,-2v-3h-1h-2h3v-2v-2l-1,-3 -2,2h-1v-2h1v-2l3,-1 -1,-4v-1h-2l-1,-2h1h2l1,-2h-1h-2l-1,2v-2l4,-1v-2h-3h-1v-2v-1h1h2v-2v-2l-2,-5v-1v-2h2l3,-5v-2l-2,-1v-2v2h-1v-2v-2l1,-1v-2v-2l5,-1 -3,-2h-2v2v-2v-2h2v-1h3l-3,-2h-2v-3h-1l-2,-2 2,-2v-1h1v-2h-1h-2h-1l1,-5h-1h-3v-2h7l2,-1h-2h-3h-1v-2h3h1v-2l-1,-1h-2l3,-2 2,-3h-2v-2l-1,-2h1v-1v-2l-1,-3 1,-2v-2l-1,2h-3l-3,-2v-1v-2h-2h-1v-2h3l3,-1h1l-4,-3 3,-2h1v2v-2h-1l-3,-2v-1h3h1v-2h-1v-2v-1v-2v-2h1l-1,-3h1h2l-2,-2v-1h-1v-2l3,-3v-2l-2,-2h-1l-3,2v-2l3,-1h1l2,-2 -2,-2h-1h-3l4,-1 3,-4v-1l-1,-2 1,-2h2l-2,-1v-4l-7,-3v-3v-2h4l3,-3v-2h-1v2l1,-4h2h-2v-6v-7l-1,2h-3v-4l3,2 1,-3v-5v-2l2,-3 -2,-2v-2l2,-1 -2,-2v-2v-1v-4h-3l-1,-1v-2h-3v-2l-2,-1 2,-2 -2,-2v-1l-1,-4 1,-1v-4v-1h-1v-2v-2v-1l1,-2v-2h-1v-1l-3,-4v-3v-3v-2l-3,-2 -1,2v-2v-1v-2v-2h-2v-1l-4,1 3,-1h1v-2v-2h-1l-3,-1h3v-2v-2h-3l-1,2v-2v-1h1h3v-2v-1h-3v-2h-1v-2v-1v-2v-2v-1v-2v-3h-3h-2l2,-2h3v-2h-3v-1v-2l3,-2h-3l-2,-1v-2l-1,-2h-3v-3l-2,-2h-2v-1l4,-2v-2h-2l-2,-1v-2l-5,-2v-1l-1,-2h-2l2,-2h1v-3v-3h3v-2h-3l-3,-8 -3,-2 3,-2 -1,-1v-2v-3v-4h-2l-1,-1h1l-1,-4h-4h-2l2,-3v-2l-2,-1h-3v-4h5l-2,-11 2,1v-1l-2,-4 2,-3 -2,-2 -3,-1 -1,-2v-2l1,-1 -1,-2v-2l-7,-3v-5v-2l-2,-5h2v-1l2,-10v-2l-4,-5v-6l2,-4h-2h-3v-1v-2v-2v-1v-4v-5v-5l-1,-1h-3v-2v-2l-2,-1 -1,-2v-2v-3h-3v-3v-4v-1l-1,-2h1v-2v-1l-1,-5h-3h-2v-4v-1l-3,-5v-2v-3h-1v-4h1h3l-3,-1h-1h-1h-3v-2l3,-3 1,-2 4,-2v-1v-4h-3l-1,4h-1l-3,-4v-3v-2h3l1,-1v-2l-1,-2h-3l3,-5h1v-3v-3l4,-4h-4v-3v-2h1l3,2v3v2h2h3v-2v-3h-3l-2,-2 -4,-1 -4,1v-1v-2l4,-3h1l3,3v2h2l3,-2h-3v-3h-2h-4v-2v-2h1v-3h-1h-1v-2h1l1,-1h3h2v-2l-2,-2v-1v-2h2h3l-3,-2 -5,-3h-1v-2h1l3,2h2l3,-2 -3,-1h4v-4v-3l-1,-2v-3h-3v3h-2v2l-3,-2 3,-5h5l1,2h3l-4,-3 -3,-3h3h1l-1,-2h-3l-2,-2v-1v-2h5h1l3,-2 -3,-1 -4,-2 -5,2v-2v-3h3h2h3v-2v-2v-3h-3l-2,-2v-1v-2h-3v-2h-1v-1l-1,-4v-1l1,-2 1,2h3v-2v-2v-1v-2h2v-2h-2l-3,2h-1v-2l-1,-1v-2v-2l-3,-1h3h1h1l3,-2v-2l2,-1h3v-2l-3,-2v-1l-2,-2v-2v2l-3,2 -1,-2v-2h1l3,-1h2l3,1 1,2 3,-2 -3,-1 -1,-2h-5v-2v-1v-2h2l3,2h1l3,-4v-1h-3v-2h-1l-5,3 -3,-1v-2h3v-2h2l4,-6v-2v-2h-1h-3h-2v-1v-2v-2v-1h2v1l4,2v-3v-2h-4l-2,2h-4l-1,-2 2,-2h3l2,-1h3v-2h-3v-2v-1l3,1v2h1v-2v-1l-1,-2h-3h-2v-2v-1v-4l9,-5v-1l-3,-2 -4,2 -2,-7h2h3v-2l-3,-1 -2,-2h-4v-2v-1v-4v-1v1h1h3h5h1l-1,-1 -3,-2h-2h-3h-1h-1l-3,-2v-1h3v-2h1h4l2,-2v-1v-2l-2,-2 -3,-1h3h2h3l1,-9h-1h-3h-2v-1h2h3l4,-5h-3h-1v-3h1l3,1h1l2,-1v-2l-3,-2h3v2l-2,-8h2h3l1,1v-8h3v-2h2v-3v-3h2v-2l-2,-2h2v-1v-5l2,-4v2v-3l-4,-4v-1h-2l-3,-2v-2v-1h3h2v-2l-5,-2v-3l-1,-5 -3,-2h-2h2v-1l3,-2 -5,-2h-1l1,-1 2,-2v-2v-1v-4h-2l-4,-1v-2v-2h3v-1l-3,-2v-2l-1,-1v-2l1,-2h3l-3,-3 -1,-3h1h-1h-3h-2l-3,-2 3,-2h2h3v-1h-3h-6v-2h1l3,-2h5h1v-1v-2h-1h-5l-3,-3h-1h-1h1v-4h1v-1l-1,-2v-2v-1h1h3v-2v-3l-3,-4h-1h1h3v-3h-3v-2v-1v-2h-1h-1l1,-2v-1h1l3,-2v-2h-3h-1h-1l-3,-3v-3v-2v-1l3,1h1v-1v-2l-1,-2h-3l-2,-1 -3,-2v-2v-3v-3l-1,-2 1,-3v-2l-4,-2v-1v-2v-2v-1h-1v-2v-5l1,-2v-3h-1h-2v-2v-1v-4v-1v-2h2v-2v-1h1l3,-2 -3,-3h-1h1l111,5 47,1h3l108,5h3h17l18,2 98,3 60,2h20h14l47,3h17h16h3l7,2h6h3h11h26l5,2h5h13h21h8l13,1h6h15l47,2 5,-153v-10v-20l1,-25v-10l2,2h1h2v3h2l2,2 4,3h3h2l5,3 12,5h3l22,-8h5h6h3l26,22 9,5 14,1 -3,7 -1,8 10,45v10l17,58 22,123 -4,4 1,3 -1,7 3,5 -5,3 -1,3 -2,5 3,20 2,5h1l6,5 4,7 3,2 3,3v2l6,5h3l4,3 3,3 3,5h1l8,2h5h2l4,7 2,1h3h2l8,2h4l6,2h3l3,1h1h1l3,-1 5,-4 1,-1 2,-2 1,-3h3h3h4l9,5 6,1 16,-3h7l3,2 3,3 2,2h2l1,3 2,3 1,5 -1,7v2l1,3h2h4l3,1h4l18,4 4,1h1h11h5l9,2h3l3,-2h1l3,2h3l6,2h3l7,-2h3l32,7v-2l30,5 7,43 2,4 -5,5 22,10h16h2h1h13h3l16,-9 4,5h2l4,-3 23,-2h4l11,-5 13,-26 2,-2 9,-2 2,-3 2,-2 3,-1h5h11l2,-2 1,-3 3,1h2v-1l21,-12 15,-3 26,6v2l3,2h10l23,-2 26,2h13l10,-5 3,13 7,2 13,6 63,30 20,-3 17,13v2v3v2h-1v2v3h-2l-1,2v-2h-3h-3l-3,3 -9,-1 -5,8 -3,7 -2,5 25,15 35,-5 7,-2h7l7,5 2,3h1v2l3,2 3,5 7,8 -3,7 -5,10 2,11 8,13 4,7v2l2,1 1,4h1h2l1,3 6,12 2,3 4,7v3h1v3l2,4 1,3 2,3 1,2 2,3h1l3,-3 1,-2h2l3,-1h1v-2h3h1l5,-2 1,-1 12,-2 4,-5 -1,-3 -7,-4 -2,-3v-3l-3,-7 3,-10 -4,-5 7,-17 22,-3h3l2,3 2,-3 1,-2h10v-4l6,-2 6,-2 1,7 25,-3h4h5l1,6h2l17,15 -4,13v7l3,10 2,3 3,2 3,5h2l1,3 2,-3 3,-3h1h1v3h3v3l-4,4 1,3h2l3,2h1l2,-4h3l4,-1h3h1h2l7,5 6,3 1,8h2l8,-1h2l7,-4 1,5 5,2h1h2l1,3 9,-1 1,-4 3,4h2h2l2,-2 10,5v3l-4,5v4v1l3,-1h2l2,1v5l-2,4 2,3v2l1,1 2,2 -2,3v4h-1l-2,3v3l2,2 3,-2h1l2,-3 3,3v4l4,1h3l4,-3 2,5 3,3 18,-3 12,-3 -3,8 -3,15 2,3 -2,7 4,3 29,-15 9,2 7,2v1h2l1,4 3,3 3,-3 12,-4 5,-3 2,-3 3,1 4,-1 2,-2h2l2,2h1h2l1,-2h5h1h1l6,-2 6,-1 10,-4 3,-5 10,-6 6,-10 6,-2 1,-2 9,-8 4,-3 2,-4 1,-3 3,-2 4,-3h2l1,-2 7,-5 3,-1 6,-4h2l1,-1h4h5l3,-2 1,-2 3,-5h4l9,-10 22,-8h1l3,-3 3,-2 6,-5 17,5v2v3v3l2,4v8l1,10 -1,5 2,2 2,-4 3,-1 3,1 3,4v1l1,5 1,2 5,-2 3,2 -2,7 -4,1 -2,4h2h1h2v3l-2,2 2,1h1l2,2h1v2l3,3v2l3,6 3,5 24,-8h16l25,-13v1h3h4l-4,9v3h3l1,3 16,-3h3h1h5l3,-3h3h1l3,-2h1l5,2h1h2l2,3 11,-5h2v2h5v3h3h1v3l3,-3h4h5h1l3,-3h3l4,-2h5h3l1,2 7,-2h5h4l9,-3h3h4l4,-2h3l4,-2 5,2 7,-2h1h3l3,2h2v2h3h8l8,1 1,2h4l3,2h3h2l2,3 5,8 1,4 3,-2v2l3,1 1,2 3,7 -3,5v1l3,2v2l2,1h3l4,4v3h7h2l3,-3 1,3 3,5 3,3 1,2 5,1h3h4l4,4 3,-4h2l4,-1 3,-2v-3h3h1l3,-2v-3v-3h1h5h3l3,-4h1h3h1l5,-1h3h3h1l3,1h4h2h3l2,4 5,3 1,-3h3h2h2h5h3l1,3h3h1l3,-3h3h2l3,-4h1v4l7,3 3,1v2h2l3,-2 -19,4 -49,55 -63,25 -17,20 -71,23 -67,30 -72,25 -88,58 -91,83 -35,33 -52,74 -81,89 -39,22 -81,85 -112,83 -45,52 2,30h-2h-7h-1h-2h-1h-3h-2h-5h-2h-1l-6,-2v-2l-1,-5h-2Z"/>
  <g class="subcounties" transform="scale(0.1)">
    <path data-geo-id="2707" data-name="Congressional District 7" d="M78,293v-1v-4v-1v-2h2v-2v-1h1l3,-2 -3,-3h-1h1l111,5 47,1h3l108,5h3h17l18,2 98,3 60,2h20h14l47,3h17h16h3l7,2h6h3h11h26l5,2h5h13h21h8l13,1h21l47,2 5,-153v-10v-20l1,-25v-10l2,2h1h2v3h2l2,2 4,3h3h2l5,3 12,5h3l22,-8h5h6h3l26,22 9,5 14,1 -3,7 -1,8 10,45v10l16,55v57h10l13,69 -4,4 1,3 -1,7 3,5 -5,3 -1,3 -2,5 3,20 2,5h1l6,5 4,7 3,2 3,3v2l6,5h3l4,3 3,3 3,5h1l8,2h5h2l4,7 2,1h3h2l8,2h4l6,2h3l3,1h1h1l3,-1 5,-4v4v3v3v4v5v5v1v2v10l-2,16v7v3v5v4v3v2v15v3v17v1v2v2v8v7v6v5v2v2v1l-1,12v5v3v2v3v4v8v3h1v18v32v15v27v1v5v22v5v7l-1,6v2v5v2v1v9v1v5v2v2v19v10h1v9v3v3v2v8v2v22v1l-123,-1v31h-23l-1,40h-50v155l8,13h14l26,5v50h-1h-2h-1h-2l-4,-2h-3h-1h-2h-1h-6h-1h-5h-7h-1h-2h-1h-2l-16,-1h-1h-4h-2h-4h-3h-2h-1h-6h-3h-1h-5h-1h-1h-2h-1h-2h-1h-7h-3l-10,-2h-8h-6h-14l-1,8v7v2v5v3v10v2v1v2v8l1,2 3,-2v10v2v2v3v3v7v2v5v10v3v3v5l-2,19v3v3v2v3v4v1v8v9v5v1v7l-1,3v4v5v3v10v3v2v2v10v1v9v5l-1,15v1l2,4v21v4v1v12v3l-1,17v3v2v6v4v8v2v1v5v2v3v4v1l-1,7v8v7v5v5v8v9l-2,3v7v5v8v5v3l3,22v2v10v5l-1,31v2v1v2v7v3v7v5v6v5v2v3v2v2h-2v1v5v2v3v2v8v7v10v7v1v2h2h2h3h5h4h3h3h3h8h2h6h7h3v2h6h8h10h6h3h2h1h1h3h2h1h2h1h3h6h3h4h1h3l9,1h1h2h3h4h2h2h2h1h2h1h2h3h1h2h4h6l1,2 2,3v2l1,2 1,1h2h4h2h1h2h1h1h2h1l2,-1v-2v-2h1h2v2v2v1h1h2l1,2v5v2v1v2v3v2v2v8v2v9h1h2h-2v4v1v4v3v5v7v3v7v5v1v2v2v6v2v3v2v2v1v7v3v2v2v10v1v5l-1,10v4v5v1v2v2v3v2v1v5v4v3v5v5v2v1v4v1v4v5v1v5v2l-1,6v2v2v1v2v2v3v5v3v2v2v1h1v2v3v2v2v1v2v2v1v2v8v7v2v1v4v5v1v4v8v8v2v2v1v2v2l-1,6v4v1v4v1h4h1h2h6h3h2h5h1h2h1h2h2h3h3h2h1h3h3h3h1h2v180h-6h-4l-15,25h-29v31v17h4h2h3h3h3h4h1h3h2h4h3h9h1h3h4h3h5h8h8h4h1h2h1h5h1h1h5h4h3l1,2v6v9v5v3h3h5h7h1h8h4h9h5h5h1v20v3v2h2v5v8v2v2v3v2v1v10v9v3v5v2v6v2v3v2v5v3v15v2v1v7v3v9v3h-2v2v1v2v5v3v9v3v2v3v2v1h3h2h5l3,2h3h2h7h1h2h3h2h2h1h3h5h3h2h3h2h3h8h2h6h4h4h9h7v5v5v5v2v1v7v5v12v8l2,5v2v1v9v3v5v3v4l-2,5v1v2v1v4v3v2v8v2v1v2v3v4v6v4v1v4v5v1v2v5h5h4h3h11h6h2h7h3h5h3v2v5v1v5v2v2v5v1v2h2h1h2h1h2h2h3h6h5h2h2h1h8h2h5h4v7v1v2v2v1v4v1h-3v2h3h2v2h-2l-3,3v-3v-2l-3,2 -4,3v-3h-1h-3h-2h-3l-5,5 -2,3h-3v-2l-1,-1 -5,1v4l-1,1 -2,2 -5,3h-2v2l-1,2v1h-5l-1,5 1,2v2v3l-1,2h-1v1l2,2v2v6l-1,4v1l-1,-1 1,-2 -1,-2 -3,2h-2v2v1v4h2l3,1v2v2h1v1h1h3v3l-3,5 3,2 -3,2v3l-1,5h-4l-2,10h-1h-2l-1,-2 -2,2 -2,3h2h2h1l-1,4 -6,1h-1h-9h-14h-2h-4h-3h-10h-2h-4h-9h-4h-2h-2h-2h-3h-3h-3h-4h-1h-5h-6h-1h-6h-1h-2h-4h-3h-1h-2h-4h-2h-5h-2h-3h-3h-5v-1h-2h-1h-3h-5h-2h-3h-3h-3h-2h-7h-3h-1h-3h-4h-10h-2h-9h-2h-6h-3h-2h-3h-8h-2h-8h-6h-6h-4h-6h-3h-6h-1h-3h-2h-2h-3h-2h-3l-3,-4h-1h-3h-1h-5h-1h-6h-3h-6h-4h-1h-3h-3h-5h-1h-4h-2h-1h-6l-6,-1 -3,-4 -3,-5 -1,-3v-2l-7,-3 -7,-3h-3l-3,-2v8v2v5l-2,8v4v5v6v2v5v3v4v1v4v5v8v2v1v2v7l-1,6v2v2v5v5v1v5v4v10h-4h-5h-1h-2h-3h-1h-6h-1h-2h-1h-6h-4h-5h-1h-7h-5h-3h-1h-3h-7l-5,-4h-5h-3h-7h-2h-3h-4h-2v5v4l-1,8v3v7v8v3v5v4v5h-1h-2h-1l-16,6 -10,42h31l-1,146h-1h-2h-3h-1h-2h-7h-7h-9h-1h-3h-2h-1h-7h-2h-1h-6h-1l-9,-1h-2h-1h-1h-2h-3h-6h-1h-7h-2h-3h-3h-2h-6h-7h-3h-3h-3h-2h-2h-3h-3l-5,-2h-1h-3h-4h-5h-7h-1h-6h-10l-34,-2h-2h-21h-1h-3h-3h-1l-10,-1h-2h-11h-2h-3h-6h-1h-4h-3h-2h-1h-5h-1h-1l-11,-4h-2h-5h-1h-2h-1h-2h-5h-2h-3h-3h-1h-10h-2h-1h-2h-1h-1h-3h-16h-2h-1h-17l-5,-1h-3h-1h-5h-2h-6h-2h-1h-6h-3h-1h-2h-1h-3h-3h-3h-3h-1l-7,-2h-5h-1h-2h-5h-2h-1h-8h-1h-1h-2h-3h-1h-5h-1h-3l-9,-2h-1h-3h-4h-2h-3h-1h-2h-1h-3h-4h-2h-3l-4,-3h-1h-2h-1h-7h-5h-1h-3h-3h-3l3,-68v-20l3,-38 1,-68 2,-5v-15v-7v-2l1,-11 3,-99 2,-34 1,-20v-2v-17l1,-33 2,-22v-3l1,-23v-12l2,-30v-8v-8l3,-67 1,-22v-16l2,-27v-7v-6l4,-108v-14v-3v-2l-3,-6 -1,-2 -2,-2v-5l-1,-3 -2,-7 -16,-18h-4v-1h-3l-10,-5 -3,-2h-1l-3,-3 -5,-4 -4,-1 -3,-2 -3,-2h-3h-3h-1h-1l-2,-1h-4v1l-7,-1 -11,-10 -1,-4 -10,-18 -3,-3v-2v-5l-2,-2v-3l-1,-2v-1v-2l-6,-10v-2l-7,-10 -1,-6 -3,-2 -15,-20v-2l-3,-3 -1,-2 -2,-6 2,-9v-1l1,-2v-2l2,-5 1,-1 3,-4h2l2,-3 2,-1 4,-4 9,-3 3,-3 6,-4 2,-1 27,-19 14,-10 1,-1 3,-5 5,-9v-1l1,-2v-3v-2h3l4,-5 8,-7 1,-5 4,-1v-2l3,-5 6,-42v-1h2v-2v-3v-2v-2l1,-8v-5v-2v-1v-2l-1,-3v-2l-2,-1v-5v-2v-3v-2v-2v-1v-5v-2v-2v-3v-5v-2l-1,-1h1v-2l3,-8v-2v-2l3,-1 1,-2v-2l2,-3v-2v-1v-4v-1v-4v-1v-2v-7l-2,-1v-5v-2h-1l-3,-3v-2l3,-3 -3,-2v-2v-3h-1v-2v-1v-2l1,-2v-1v-2v-2l-1,-6h-2l-1,-2v-2v-3l1,-3h-1l3,-4v-1l-2,-4 -1,-3 -2,-2 -1,-5v-8l1,-2h3h2v-3l-2,2 -1,-2 -2,-1 2,-2 -2,-2 -1,-1 1,-4 2,-5h-2v-3l2,-2h-2h-1h3v-1v-2h-3h-2v-2l3,-5v-3l2,-2 -2,-3v-2v-1v-2h-1h1v-2h-1l-2,-1 -3,-2 -1,-2v-1l1,-2v-2h-1h-3v-3h-1h-6h-2v-2v-1h2v-2h-2v-2h-1v-1l-2,-2v-2h-1l-3,-3v-2v-1v-4v-1v-2l-1,-2v-3h-2v-2h-3h-3l3,-1h2v-4h-5h-1h-1h1h1v-1l-2,1v-1v-2l1,-2v-1v-2l-1,-2v-1h-2l-4,1 -2,-5h2h1l-1,-1v-2l1,-3v-4l-1,-5v-1v-2v2h-2v-2l-1,-3h-2h-2l2,-2 -2,-2v-1l2,-4v-1h-2v-2v-3h2l-2,-2v-2v2l2,-2 -2,-5v2v-2l2,-1h-2v-7l2,2 -2,-7h-2v-1h2l-3,-5v-2h1v-2h2v-1v-4h-3l1,-1h-3v-2h2l3,-2 -3,-1h-2h2l1,-2 -4,-2 3,-1 -6,-4v-1v-2l-2,-3h2v-4v-1h-2v-4h-1l-4,4v-4h4h-4h-2v-1h2l3,-2v-3l-3,3h-2h-1v-3l1,-2v-3l2,-4 -2,-1h-1v-2v-3h1v-4h-1h1v-3h2l-2,-3 2,1 4,-6v-7l-1,-2h-3l3,-3h1v-2l1,-3h-1h-1l4,-5v-2h-2v-1v-2l2,-3h-3l3,-2 -2,-2h-1l1,-3v-2l2,-6 -3,-4v-3h-1h-3l4,-2v-5h-1l-3,-3v-2v-3h3l-5,-3 2,-4v-1l4,-5h3v3v-3h-2l-1,-2v-2v2h3v-3l-2,-3h2l3,3v-3v-2l1,-2h-4v-3h3h1h-1l-3,-3v-2h3v-3l1,-4v-3h5h-3v-3l1,-4h-3l3,-8 2,3v-3l2,-3v-4h-2l2,-1h2h-4v-2l4,-2 -2,-1 -7,3 -1,2h-3l3,-2 -3,-2v2v-5v-2l-2,-5h-2h1v-1v-2l-1,-3h1l1,-4h2h-2l-1,-1v1h-4h-2l-1,-1 -2,-4h2v-1v-5l-2,-2 2,-2 -2,-1v-4h2v-1l-3,-2 -3,-3v-2l3,-3 4,-2v-3v-5v-7l-1,3 1,-3 -1,-3 -2,-2 3,-3v-4l-1,-3h1v-2v-1v-2h2v-2h-2h-1l1,-1h2v-2v-8v1l-2,-1v-5l-3,-2h-1l3,-6h1v-4l-1,-1v-2h1l-3,-2 -1,-3 3,-2 1,-1v-5v-2h2l-3,-2v-1h1l2,-2h-2v-2h2v-1h-2v1v-5v-1h-1l-2,-2v2l-1,1h-3l7,-8h-1l1,-2v-1l-1,-2v-3h1h-1v-2l-2,2h-1l4,-2v-3h-1h-2h3v-2v-2l-1,-3 -2,2h-1v-2h1v-2l3,-1 -1,-4v-1h-2l-1,-2h1h2l1,-2h-1h-2l-1,2v-2l4,-1v-2h-3h-1v-2v-1h1h2v-2v-2l-2,-5v-1v-2h2l3,-5v-2l-2,-1v-2v2h-1v-2v-2l1,-1v-2v-2l5,-1 -3,-2h-2v2v-2v-2h2v-1h3l-3,-2h-2v-3h-1l-2,-2 2,-2v-1h1v-2h-1h-2h-1l1,-5h-1h-3v-2h7l2,-1h-2h-3h-1v-2h3h1v-2l-1,-1h-2l3,-2 2,-3h-2v-2l-1,-2h1v-1v-2l-1,-3 1,-2v-2l-1,2h-3l-3,-2v-1v-2h-2h-1v-2h3l3,-1h1l-4,-3 3,-2h1v2v-2h-1l-3,-2v-1h3h1v-2h-1v-2v-1v-2v-2h1l-1,-3h1h2l-2,-2v-1h-1v-2l3,-3v-2l-2,-2h-1l-3,2v-2l3,-1h1l2,-2 -2,-2h-1h-3l4,-1 3,-4v-1l-1,-2 1,-2h2l-2,-1v-4l-7,-3v-3v-2h4l3,-3v-2h-1v2l1,-4h2h-2v-6v-7l-1,2h-3v-4l3,2 1,-3v-5v-2l2,-3 -2,-2v-2l2,-1 -2,-2v-2v-1v-4h-3l-1,-1v-2h-3v-2l-2,-1 2,-2 -2,-2v-1l-1,-4 1,-1v-4v-1h-1v-2v-2v-1l1,-2v-2h-1v-1l-3,-4v-3v-3v-2l-3,-2 -1,2v-2v-1v-2v-2h-2v-1l-4,1 3,-1h1v-2v-2h-1l-3,-1h3v-2v-2h-3l-1,2v-2v-1h1h3v-2v-1h-3v-2h-1v-2v-1v-2v-2v-1v-2v-3h-3h-2l2,-2h3v-2h-3v-1v-2l3,-2h-3l-2,-1v-2l-1,-2h-3v-3l-2,-2h-2v-1l4,-2v-2h-2l-2,-1v-2l-5,-2v-1l-1,-2h-2l2,-2h1v-3v-3h3v-2h-3l-3,-8 -3,-2 3,-2 -1,-1v-2v-3v-4h-2l-1,-1h1l-1,-4h-4h-2l2,-3v-2l-2,-1h-3v-4h5l-2,-11 2,1v-1l-2,-4 2,-3 -2,-2 -3,-1 -1,-2v-2l1,-1 -1,-2v-2l-7,-3v-5v-2l-2,-5h2v-1l2,-10v-2l-4,-5v-6l2,-4h-2h-3v-1v-2v-2v-1v-4v-5v-5l-1,-1h-3v-2v-2l-2,-1 -1,-2v-2v-3h-3v-3v-4v-1l-1,-2h1v-2v-1l-1,-5h-3h-2v-4v-1l-3,-5v-2v-3h-1v-4h1h3l-3,-1h-1h-1h-3v-2l3,-3 1,-2 4,-2v-1v-4h-3l-1,4h-1l-3,-4v-3v-2h3l1,-1v-2l-1,-2h-3l3,-5h1v-3v-3l4,-4h-4v-3v-2h1l3,2v3v2h2h3v-2v-3h-3l-2,-2 -4,-1 -4,1v-1v-2l4,-3h1l3,3v2h2l3,-2h-3v-3h-2h-4v-2v-2h1v-3h-1h-1v-2h1l1,-1h3h2v-2l-2,-2v-1v-2h2h3l-3,-2 -5,-3h-1v-2h1l3,2h2l3,-2 -3,-1h4v-4v-3l-1,-2v-3h-3v3h-2v2l-3,-2 3,-5h5l1,2h3l-4,-3 -3,-3h3h1l-1,-2h-3l-2,-2v-1v-2h5h1l3,-2 -3,-1 -4,-2 -5,2v-2v-3h3h2h3v-2v-2v-3h-3l-2,-2v-1v-2h-3v-2h-1v-1l-1,-4v-1l1,-2 1,2h3v-2v-2v-1v-2h2v-2h-2l-3,2h-1v-2l-1,-1v-2v-2l-3,-1h3h1h1l3,-2v-2l2,-1h3v-2l-3,-2v-1l-2,-2v-2v2l-3,2 -1,-2v-2h1l3,-1h2l3,1 1,2 3,-2 -3,-1 -1,-2h-5v-2v-1v-2h2l3,2h1l3,-4v-1h-3v-2h-1l-5,3 -3,-1v-2h3v-2h2l4,-6v-2v-2h-1h-3h-2v-1v-2v-2v-1h2v1l4,2v-3v-2h-4l-2,2h-4l-1,-2 2,-2h3l2,-1h3v-2h-3v-2v-1l3,1v2h1v-2v-1l-1,-2h-3h-2v-2v-1v-4l9,-5v-1l-3,-2 -4,2 -2,-7h2h3v-2l-3,-1 -2,-2h-4v-2v-1v-4v-1v1h1h3h5h1l-1,-1 -3,-2h-2h-3h-1h-1l-3,-2v-1h3v-2h1h4l2,-2v-1v-2l-2,-2 -3,-1h3h2h3l1,-9h-1h-3h-2v-1h2h3l4,-5h-3h-1v-3h1l3,1h1l2,-1v-2l-3,-2h3v2l-2,-8h2h3l1,1v-8h3v-2h2v-3v-3h2v-2l-2,-2h2v-1v-5l2,-4v2v-3l-4,-4v-1h-2l-3,-2v-2v-1h3h2v-2l-5,-2v-3l-1,-5 -3,-2h-2h2v-1l3,-2 -5,-2h-1l1,-1 2,-2v-2v-1v-4h-2l-4,-1v-2v-2h3v-1l-3,-2v-2l-1,-1v-2l1,-2h3l-3,-3 -1,-3h1h-1h-3h-2l-3,-2 3,-2h2h3v-1h-3h-6v-2h1l3,-2h5h1v-1v-2h-1h-5l-3,-3h-1h-1h1v-4h1v-1l-1,-2v-2v-1h1h3v-2v-3l-3,-4h-1h1h3v-3h-3v-2v-1v-2h-1h-1l1,-2v-1h1l3,-2v-2h-3h-1h-1l-3,-3v-3v-2v-1l3,1h1v-1v-2l-1,-2h-3l-2,-1 -3,-2v-2v-3v-3l-1,-2 1,-3v-2l-4,-2v-1v-2v-2v-1h-1v-2v-5l1,-2v-3h-1h-2Z"/>
    <path data-geo-id="2706" data-name="Congressional District 6" d="M1007,2331h29l15,-25h4h6v-180h1h3h4h3h2h1h9h1h5h1h2h1h3h4h6h3h4h3h4h5h1h5h2l14,2h2h2h3v-2h-2l-1,-1h-3l-1,-2h-2l-1,-2h-3v-1l-3,-2v-2v-1v-2h-2l-3,2h-1v-2l-6,-7 -3,-5v-1h2h1h5h2h9h5h1h1h2h1h3h3l4,1h5h8h3h2h4h7h18h1h3h12h5h2h3h4h2h4h6h3h4h1h2h4h9h3h4h4h5h8h3h5h3h4h6h3h3l4,2h1h3h6h7h7l2,8v7v3v5v17v8v5v2v2v5v1v2v8v8v7v5v2v1v4v1v5v2v2v1v4v8v8v4v13h1h3h5h4h3h13h4h7h2h1h2h1h2h1h3h3h1h2h7h3h3h1h2h4h2h1h3h3h3h1h2h1h1h2v2v1v4v3v2v8v10v7v1v2v2v1v2v2v1v2v12v1v2v5v2v1v2v2v1v4h6h3h1h7h2h10h3h3h2h5h9h7h4h2h1h1h3h3h10h3h3h4h2h1h3h2h1h3h3h1h3h3h6h10h2h1h6h14h7h2h4l5,1h3h1h3h7h2h4l4,3v2v2v1v2v2v1v2v2v3v7v6v5v5v5v7v5v2v1v2h2h4h3h1h3h2h1h3h1h2h1h2h3h3h1h2h4h6h1h2h2h5h1h15h4h3h1h3h6h3h3h1h5h1h7h2h-2v2h-1h-2l-1,1v4l3,6 1,4v1l-1,2v2l-3,3 1,12v1h2l1,5v2h-1v2l-2,1 -1,2v2l-1,1v4v3v2v1l5,7 -1,2v3l-2,2v1l2,4v1l3,9v1l1,4h-95h-2h-1h-2h-1h-2h-1h-3h-3h-1h-2h-1h-2h-1h-3h-1h-3h-3h-3h-1h-5h-1h-3h-2h-1h-2h-2h-3h-9h-1h-2h-1h-3h-2h-1h-2h-1h-3h-1h-3h-2h-3h-4h-1h-2h-1h-15v-49h-39l-6,19 -2,-4 -2,-1h-1l-2,-2 -3,-2 -6,-3 -2,-5v-2v-1l-2,-2h-3h-1h-2l-3,-2h-2l-3,-1v-2h-3h-2h-1h-2h-1l-1,-2 -3,-3v-2l-3,-1v-2h-3v-2h-3l-1,2h1l1,2h2l-2,1h-1v2v2h-1v1h-2l2,2 -2,2h-1l-3,-2v-2v-1h-3v1l-3,2h-3l-1,2 -2,1h-3v2h-1h-3v2l-3,1v2h-1h-2v-2h-1h-2l-1,2v-2h-2v2h-1l-3,-2v2v2v1h-3v-1v-2h-3l-1,2v1l-2,2h-1h-2l-1,2v1v2l3,5 1,2h2l1,1 -14,14h-2l-1,1 -2,2v2l-2,1 -2,2h-3v2l-3,5v3h-1l-2,3 -1,3 -2,2v2v1l-4,9v1h-3l-3,2v-2h-1v-1h-2v1v2v2l-1,1 1,2h-1l-1,3v2v3v2v3v4v5v1v4v15v6v2v3v10v2v20v3v4v8l1,32v1v-1h-1h-2v18l70,13 -3,7 -6,1 -3,4 6,5 -2,1 -4,-3v5l-3,2v3v2v1v2h3l-3,7h3v1l3,4h-3l-3,1v4h-1h-2v1l-1,2h-2v-2h-1l-2,2h-1l-3,-2v-1l-3,1 -1,2h-2v2l-3,3 -1,3 -3,2 -3,3h-3h-1l-3,2v2l3,1v2h-3h-2h-1l-1,2 -2,1h-3v4h-3h-3h-1v1l1,2v2h-1v-2h-1l-2,-2v-1v-4v-1v-2v-2v-1v-7h-4h-5h-2h-8h-1h-2h-2h-5h-6h-3h-2h-2h-1h-2h-1h-2v-2v-1v-5v-2v-2v-5v-1v-5v-2h-3h-5h-3h-7h-2h-6h-11h-3h-4h-5v-5v-2v-1v-5v-4v-1v-4v-6v-4v-3v-2v-1v-2v-8v-2v-3v-4v-1v-2v-1l2,-5v-4v-3v-5v-3v-9v-1v-2l-2,-5v-8v-12v-5v-7v-1v-2v-5v-5v-5h-7h-9h-4h-4h-6h-2h-8h-3h-2h-3h-2h-3h-5h-3h-1h-2h-2h-3h-2h-1h-7h-2h-3l-3,-2h-5h-2h-3v-1v-2v-3v-2v-3v-9v-3v-5v-2v-1v-2h2v-3v-9v-3v-7v-1v-2v-15v-3v-5v-2v-3v-2v-6v-2v-5v-3v-9v-10v-1v-2v-3v-2v-2v-8v-5h-2v-2v-3v-20h-1h-5h-5h-9h-4h-8h-1h-7h-5h-3v-3v-5v-9v-6l-1,-2h-3h-4h-5h-1h-1h-5h-1h-2h-1h-4h-8h-8h-5h-3h-4h-3h-1h-9h-3h-4h-2h-3h-1h-4h-3h-3h-3h-2h-4v-17Z"/>
    <path data-geo-id="2701" data-name="Congressional District 1" d="M253,3262l2,-23v-2v-21l1,-27h3h3h3h1h5h7h1h2h1l4,3h3h2h4h3h1h2h1h3h2h4h3h1l9,2h3h1h5h1h3h2h1h1h8h1h2h5h2h1h5l7,2h1h3h3h3h3h1h2h1h3h6h1h2h6h2h5h1h3l5,1h17h1h2h16h3h1h1h2h1h2h10h1h3h3h2h5h2h1h2h1h5h2l11,4h1h1h5h1h2h3h4h1h6h3h2h11h2l10,1h1h3h3h1h21h2l34,2h10h6h1h7h5h4h3h1l5,2h3h3h2h2h3h3h3h7h6h2h3h3h2h7h1h6h3h2h1h1h2l9,1h1h6h1h2h7h1h2h3h1h9h7h7h2h1h3h2h1l1,-146h-31l10,-42 16,-6h1h2h1v-5v-4v-5v-3v-8v-7v-3l1,-8v-4v-5h2h4h3h2h7h3h5l5,4h7h3h1h3h5h7h1h5h4h6h1h2h1h6h1h3h2h1h5h4v-10v-4v-5v-1v-5v-5v-2v-2l1,-6v-7v-2v-1v-2v-8v-5v-4v-1v-4v-3v-5v-2v-6v-5v-4l2,-8v-5v-2v-8l3,2h3l7,3 7,3v2l1,3 3,5 3,4 6,1h6h1h2h4h1h5h3h3h1h4h6h3h6h1h5h1h3h1l3,4h3h2h3h2h2h3h1h6h3h6h4h6h6h8h2h8h3h2h3h6h2h9h2h10h4h3h1h3h7h2h3h3h3h2h5h3h1h2v1h5h3h3h2h5h2h4h2h1h3h4h2h1h6h1h6h5h1h4h3h3h3h2h2h2h4h9h4h2h10h3h4h2h14h9h1l6,-1 1,-4h-1h-2h-2l2,-3 2,-2 1,2h2h1l2,-10h4l1,-5v-3l3,-2 -3,-2 3,-5v-3h-3h-1v-1h-1v-2v-2l-3,-1h-2v-4h7h3h2h1h2h1h2h2h3h6h2h8h6h3h1h9h4h12h7h3h3h3h4h3h9h1h19h2h1h3h3h1h2h1h2h1h3h3h3h4h6h3h3h4h9h3h5h6h2h13h1h2h11l2,35 28,13v50h48v98h3h6h6h1h2h1h1h5h1h3h3h2h5h2h1h2h4h1h6h2h3h2h2h3h1h3h3h1h5h3l7,-1h6h1h2h3h5h2h1h2h1h2h2h2h1h2h1h5h1h1h2h3h3h1h2h1h4h2h1h2h1h2h3l5,1h2v-1v1l3,-1h1l3,1h1h3h2h1h6h3h4h3h2l2,-1 3,1h2l4,-1h2h1h2h1h1h2h3h1h2l3,1h1h1v-1h2h1h2h3h4h6h3h17h2h2h11h2h2h6h1h2h7h8h2h7h2h4h4h3h3h3h3h3v20v11v2v13h8h12h20h8h1h4h3h5h13h2h5h3h5h2h6v-8v-5v-8v-22v-3h3l5,-2h5h3h4h4h8h8h2h1h2h1h1h5h6h5h6h13h6l14,10 2,3 46,32v3l19,12 1,3 24,20 1,2 70,22 2,8 3,3 3,2v2l6,5 1,1 3,2 3,3 3,4 2,1v2h1v3l1,4 8,9v2l1,2 10,10 2,1v2l1,5 3,3h2v4h1h1l3,3v2l5,5v3v2v1v2h1v5l2,2v1l1,4 1,3v2v1h2l3,4 3,5v1v2h-2v3v2l-1,3v2v2l-2,1 2,4v1v4h-2l-1,6 -2,2 -1,3v2v3v4l-1,18h1v2v1v2l3,3v2l1,2 -1,1 -2,7v2v3v1l2,4 14,13v3v9l-1,1 -2,4 -1,3v2v3l1,3 2,2 9,13 -15,5h-6h-10l-69,2h-2l-59,2h-49h-58l-57,3h-28h-2h-3h-4h-16h-16h-1l-77,2h-3h-1h-2h-1h-18h-1h-3h-2h-1h-6h-37h-2h-46h-32l-80,3h-1h-1h-22h-3h-6h-10h-32h-92h-50h-1h-10h-23h-60h-32h-10l-68,-3h-47h-8h-19h-37h-2h-20h-59h-2h-10l-39,-2h-4h-13h-47l-52,-3h-11h-10h-16h-22h-45h-1h-3h-6h-4l-18,-2h-11h-31l-42,-2h-13h-14h-23l-125,-5h-14h-2h-2h-15l-42,-1h-9h-13l-27,-2 -26,-2 -64,-3h-7h-36h-5l5,-70Z"/>
    <path data-geo-id="2703" data-name="Congressional District 3" d="M1350,2659h2h1v1v-1l-1,-32v-8v-4v-3v-20v-2v-10v-3v-2v-6v-15v-4v-1v-5v-4v-3v-2v-3v-2l1,-3h1l-1,-2 1,-1v-2v-2v-1h2v1h1v2l3,-2h3v-1l4,-9v-1v-2l2,-2 1,-3 2,-3h1v-3l3,-5v-2h3l2,-2 2,-1v-2l2,-2 1,-1h2l14,-14 -1,-1h-2l-1,-2 -3,-5v-2v-1l1,-2h2h1l2,-2v-1l1,-2h3v2v1h3v-1v-2v-2l3,2h1v-2h2v2l1,-2h2h1v2h2h1v-2l3,-1v-2h3h1v-2h3l2,-1 1,-2h3l3,-2v-1h3v1v2l3,2h1l2,-2 -2,-2h2v-1h1v-2v-2h1l2,-1h-2l-1,-2h-1l1,-2h3v2h3v2l3,1v2l3,3 1,2h1h2h1h2h3v2l3,1h2l3,2h2h1h3l2,2v1v2l2,5 6,3 3,2 2,2h1l2,1 2,4 6,-19h39v49l-10,3 -3,-2 7,17v1v2v8l-47,4v71l-10,4h-2l28,8 16,32h20h27h2l-3,3 -2,8 -1,2h-3h-1v2l1,1h-1h-2l-1,4 -2,1 -3,3h-1h-3v4v1l-12,2h-1v2h-3v3h-3l-6,3h-2h-5v2l-3,2h-3v-2l-1,-2 -1,2v2h-2h-1l-2,-2h-1l-2,2h-3h-2v-4v-1v-2h-2h-3h-1l-2,-3 -3,-2h-3l-8,-2 -2,4h-1h-2h-2l-3,-2 -5,2h-1h-2v-2l-5,2v-4h-3v2v2h-5h-1l-10,3 -3,2 -1,-2h-3l-2,2h-3h-1l-3,1v5h-3h-1h-2v2h2l-70,-13Z"/>
    <path data-geo-id="2705" data-name="Congressional District 5" d="M1486,2604h2l10,-4v-71l47,-4v-8v-2v-1l-7,-17 3,2 10,-3h15v6v2v1v5v2v2v1v2v2v1v2v2v1v2l1,3v2v2v5l7,6v2v2v1v2v2v1v4v1v4v1v9v3v3v2v2v6v2v2h2l1,10v3v2v3v5l2,2 1,1h2v5h1h2l1,2v2h-1v3h1v2l-1,1 -2,2h-1l-5,5 2,2h-2h-27h-20l-16,-32Z"/>
    <path data-geo-id="2704" data-name="Congressional District 4" d="M1566,2496h1h2h1h4h3h2h3h1h3h1h2h1h2h3h1h2h1h9h3h2h2h1h2h3h1h5h1h3h3h3h1h3h1h2h1h2h1h3h3h1h2h1h2h1h2h95v1l2,2v1l-2,4 -4,3v2h-2l-2,3 -6,5v2h-2h-1l-2,3 -2,3 -2,5v2v2h2l14,15v1v4v1v2l-1,2v1h-2v4v5h2v11v2v2h1l1,1 2,2 3,13v4l-5,15h-1l-3,8v2l2,3 1,2v1l1,2 -1,2 -1,5h-86v8l-10,2v-2v-7v-1l-1,-2 -2,-10 -16,-20h-1h-2h-4h-1h-2h-3h-1v-2h-2v2h-4h-2h-5l-19,17h-3v-2l-1,-2h-2h-1v-5h-2l-1,-1 -2,-2v-5v-3v-2v-3l-1,-10h-2v-2v-2v-6v-2v-2v-3v-3v-9v-1v-4v-1v-4v-1v-2v-2v-1v-2v-2l-7,-6v-5v-2v-2l-1,-3v-2v-1v-2v-2v-1v-2v-2v-1v-2v-2v-5v-1v-2Z"/>
    <path data-geo-id="2708" data-name="Congressional District 8" d="M818,1213v-7l1,-8h14h6h8l10,2h3h7h1h2h1h2h1h1h5h1h3h6h1h2h3h4h2h4h1l16,1h2h1h2h1h7h5h1h6h1h2h1h3l4,2h2h1h2h1v-50l-26,-5h-14l-8,-13v-155h50l1,-40h23v-31l123,1v-1v-22v-2v-8v-2v-3v-3v-9h-1v-10v-19v-2v-2v-5v-1v-9v-1v-2v-5v-2l1,-6v-7v-5v-22v-5v-1v-27v-15v-32v-18h-1v-3v-8v-4v-3v-2v-3v-5l1,-12v-1v-2v-2v-5v-6v-7v-8v-2v-2v-1v-17v-3v-15v-2v-3v-4v-5v-3v-7l2,-16v-10v-2v-1v-5v-5v-4v-3v-3v-4l1,-1 2,-2 1,-3h3h3h4l9,5 6,1 16,-3h7l3,2 3,3 2,2h2l1,3 2,3 1,5 -1,7v2l1,3h2h4l3,1h4l18,4 4,1h1h11h5l9,2h3l3,-2h1l3,2h3l6,2h3l7,-2h3l32,7v-2l27,3 10,45 2,4 -5,5 22,10h16h2h1h13h3l16,-9 4,5h2l4,-3 23,-2h4l11,-5 13,-26 2,-2 9,-2 2,-3 2,-2 3,-1h5h11l2,-2 1,-3 3,1h2v-1l21,-12 15,-3 26,6v2l3,2h10l23,-2 26,2h13l10,-5 3,13 7,2 13,6 63,30 20,-3 17,13v2v3v2h-1v2v3h-2l-1,2v-2h-3h-3l-3,3 -9,-1 -5,8 -3,7 -2,5 25,15 35,-5 7,-2h7l7,5 2,3h1v2l3,2 3,5 7,8 -3,7 -5,10 2,11 8,13 4,7v2l2,1 1,4h1h2l1,3 6,12 2,3 4,7v3h1v3l2,4 1,3 2,3 1,2 2,3h1l3,-3 1,-2h2l3,-1h1v-2h3h1l5,-2 1,-1 12,-2 4,-5 -1,-3 -7,-4 -2,-3v-3l-3,-7 3,-10 -4,-5 7,-17 22,-3h3l2,3 2,-3 1,-2h10v-4l6,-2 6,-2 1,7 25,-3h4h5l1,6h2l17,15 -4,13v7l3,10 2,3 3,2 3,5h2l1,3 2,-3 3,-3h1h1v3h3v3l-4,4 1,3h2l3,2h1l2,-4h3l4,-1h3h1h2l7,5 6,3 1,8h2l8,-1h2l7,-4 1,5 5,2h1h2l1,3 9,-1 1,-4 3,4h2h2l2,-2 10,5v3l-4,5v4v1l3,-1h2l2,1v5l-2,4 2,3v2l1,1 2,2 -2,3v4h-1l-2,3v3l2,2 3,-2h1l2,-3 3,3v4l4,1h3l4,-3 2,5 3,3 18,-3 12,-3 -3,8 -3,15 2,3 -2,7 4,3 29,-15 9,2 7,2v1h2l1,4 3,3 3,-3 12,-4 5,-3 2,-3 3,1 4,-1 2,-2h2l2,2h1h2l1,-2h5h1h1l6,-2 6,-1 10,-4 3,-5 10,-6 6,-10 6,-2 1,-2 9,-8 4,-3 2,-4 1,-3 3,-2 4,-3h2l1,-2 7,-5 3,-1 6,-4h2l1,-1h4h5l3,-2 1,-2 3,-5h4l9,-10 22,-8h1l3,-3 3,-2 6,-5 17,5v2v3v3l2,4v8l1,10 -1,5 2,2 2,-4 3,-1 3,1 3,4v1l1,5 1,2 5,-2 3,2 -2,7 -4,1 -2,4h2h1h2v3l-2,2 2,1h1l2,2h1v2l3,3v2l3,6 3,5 24,-8h16l25,-13v1h3h4l-4,9v3h3l1,3 16,-3h3h1h5l3,-3h3h1l3,-2h1l5,2h1h2l2,3 11,-5h2v2h5v3h3h1v3l3,-3h4h5h1l3,-3h3l4,-2h5h3l1,2 7,-2h5h4l9,-3h3h4l4,-2h3l4,-2 5,2 7,-2h1h3l3,2h2v2h3h8l8,1 1,2h4l3,2h3h2l2,3 5,8 1,4 3,-2v2l3,1 1,2 3,7 -3,5v1l3,2v2l2,1h3l4,4v3h7h2l3,-3 1,3 3,5 3,3 1,2 5,1h3h4l4,4 3,-4h2l4,-1 3,-2v-3h3h1l3,-2v-3v-3h1h5h3l3,-4h1h3h1l5,-1h3h3h1l3,1h4h2h3l2,4 5,3 1,-3h3h2h2h5h3l1,3h3h1l3,-3h3h2l3,-4h1v4l7,3 3,1v2h2l3,-2 -19,4 -49,55 -63,25 -17,20 -71,23 -67,30 -72,25 -88,58 -91,83 -35,33 -52,74 -81,89 -39,22 -81,85 -112,83 -45,52 2,30h-2h-7h-1h-2h-1h-3h-2h-5h-2h-1l-6,-2v-2l-1,-5h-2v4v1v2v2v6l2,5v9v1v4v1v2v2v1v2v2v1v3v4v3v5v3v4v10v5v11v2v33v12l1,28v2v3v10v7v2v3v17v3v3v3v15v54l1,6v12v8v5v5v4v3v2l-2,1h-3v2h-2h-3v2h-1h-2l-1,1 -1,2v2l-2,3 -1,3v2v2v1v2l-3,7 -6,6v-1h-4l-2,-2h-1h-5v-2h-1v-1h-2h-1l-1,-2h-2h-1h-2l-4,2 -2,1 -4,10h-1v2l-2,1v2l-1,3 -2,2h-1v2l1,1 -1,2 -2,2h-7l-4,-2 -2,-2 -5,-1h-2h-1h-2l-1,1 -3,2v2h-2l-1,3h-1v2v1l-2,7h-1h-2l-1,2h-2h-1h-2l-1,1 -1,2h-2h-1v2h-2h-1h-2h-1v1h-2l-1,2h-1l-6,2 -2,-2 -1,5h-2l-5,2h-2v1l-3,2 -3,3v2v2l-4,1 -3,2v2h-1l-5,1 -3,4v1l-1,2 -1,2v1l-5,10v2v2l-1,1v2l-2,2 -3,1 -1,2 -1,2 -3,5 1,1v2v10l-1,2v1l-3,2 -2,2 -1,11v2l-3,3 -1,2 -3,3h-2v2l-1,2v1h-2h-1l-3,4 -7,5h-2h-1l-2,1 -4,4h-1v1l-2,2v2v1v3v2v3l-1,2 -2,5v2v8l-1,2v3l-2,2h2l-2,1v2l-1,12 1,1v2v2l2,1 -2,5v4v1v2v8l2,2v2h1l12,3h1l29,-2 19,24h-1v5h1v1v2l6,5v2l1,1 2,2 1,3 2,2v2l1,1v2l4,7h2l11,10 2,6 -2,2v5v3v2v6l-1,4 -2,1h-1l-1,2 -2,2h-1v1v2l-2,2 -1,5 -2,1h-1l-2,2h-1v2h-1l-2,1v2l-1,2 1,1v4l2,1v2v2v1l-2,2 -3,5 -1,2 -2,1 -1,2 -2,2h-1v1l-1,2 -2,2h-1l-2,1 -1,2h-2h-7h-1h-5h-1h-3h-3h-6h-3h-1h-3h-4h-15h-1h-5h-2h-2h-1h-6h-4h-2h-1h-3h-3h-2h-1h-2h-1h-3h-1h-2h-3h-1h-3h-4h-2v-2v-1v-2v-5v-7v-5v-5v-5v-6v-7v-3v-2v-2v-1v-2v-2v-1v-2v-2l-4,-3h-4h-2h-7h-3h-1h-3l-5,-1h-4h-2h-7h-14h-6h-1h-2h-10h-6h-3h-3h-1h-3h-3h-1h-2h-3h-1h-2h-4h-3h-3h-10h-3h-3h-1h-1h-2h-4h-7h-9h-5h-2h-3h-3h-10h-2h-7h-1h-3h-6v-4v-1v-2v-2v-1v-2v-5v-2v-1v-12v-2v-1v-2v-2v-1v-2v-2v-1v-7v-10v-8v-2v-3v-4v-1v-2h-2h-1h-1h-2h-1h-3h-3h-3h-1h-2h-4h-2h-1h-3h-3h-7h-2h-1h-3h-3h-1h-2h-1h-2h-1h-2h-7h-4h-13h-3h-4h-5h-3h-1v-13v-4v-8v-8v-4v-1v-2v-2v-5v-1v-4v-1v-2v-5v-7v-8v-8v-2v-1v-5v-2v-2v-5v-8v-17v-5v-3v-7l-2,-8h-7h-7h-6h-3h-1l-4,-2h-3h-3h-6h-4h-3h-5h-3h-8h-5h-4h-4h-3h-9h-4h-2h-1h-4h-3h-6h-4h-2h-4h-3h-2h-5h-12h-3h-1h-18h-7h-4h-2h-3h-8h-5l-4,-1h-3h-3h-1h-2h-1h-1h-5h-9h-2h-5h-1h-2v1l3,5 6,7v2h1l3,-2h2v2v1v2l3,2v1h3l1,2h2l1,2h3l1,1h2v2h-3h-2h-2l-14,-2h-2h-5h-1h-5h-4h-3h-4h-3h-6h-4h-3h-1h-2h-1h-5h-1h-9h-1h-2h-3h-4h-3h-1h-2h-1h-3h-3h-3h-1h-2h-3h-3h-2h-2h-1h-2h-1h-5h-2h-3h-6h-2h-1h-4v-1v-4v-1v-4l1,-6v-2v-2v-1v-2v-2v-8v-8v-4v-1v-5v-4v-1v-2v-7v-8v-2v-1v-2v-2v-1v-2v-2v-3v-2h-1v-1v-2v-2v-3v-5v-3v-2v-2v-1v-2v-2l1,-6v-2v-5v-1v-5v-4v-1v-4v-1v-2v-5v-5v-3v-4v-5v-1v-2v-3v-2v-2v-1v-5v-4l1,-10v-5v-1v-10v-2v-2v-3v-7v-1v-2v-2v-3v-2v-6v-2v-2v-1v-5v-7v-3v-7v-5v-3v-4v-1v-4h2h-2h-1v-9v-2v-8v-2v-2v-3v-2v-1v-2v-5l-1,-2h-2h-1v-1v-2v-2h-2h-1v2v2l-2,1h-1h-2h-1h-1h-2h-1h-2h-4h-2l-1,-1 -1,-2v-2l-2,-3 -1,-2h-6h-4h-2h-1h-3h-2h-1h-2h-1h-2h-2h-2h-4h-3h-2h-1l-9,-1h-3h-1h-4h-3h-6h-3h-1h-2h-1h-2h-3h-1h-1h-2h-3h-6h-10h-8h-6v-2h-3h-7h-6h-2h-8h-3h-3h-3h-4h-5h-3h-2h-2v-2v-1v-7v-10v-7v-8v-2v-3v-2v-5v-1h2v-2v-2v-3v-2v-5v-6v-5v-7v-3v-7v-2v-1v-2l1,-31v-5v-10v-2l-3,-22v-3v-5v-8v-5v-7l2,-3v-9v-8v-5v-5v-7v-8l1,-7v-1v-4v-3v-2v-5v-1v-2v-8v-4v-6v-2v-3l1,-17v-3v-12v-1v-4v-21l-2,-4v-1l1,-15v-5v-9v-1v-10v-2v-2v-3v-10v-3v-5v-4l1,-3v-7v-1v-5v-9v-8v-1v-4v-3v-2v-3v-3l2,-19v-5v-3v-3v-10v-5v-2v-7v-3v-3v-2v-2v-10l-3,2 -1,-2v-8v-2v-1v-2v-10v-3v-5Z"/>
    <path data-geo-id="2702" data-name="Congressional District 2" d="M1292,2822v-2h2l3,-2 1,2 -1,2 1,1v-1l1,-4v-6v-2l-2,-2v-1h1l1,-2v-3v-2l-1,-2 1,-5h5v-1l1,-2v-2h2l5,-3 2,-2 1,-1v-4l5,-1 1,1v2h3l2,-3 5,-5h3h2h3h1v3l4,-3 3,-2v2v3l3,-3h2v-2h-2h-3v-2h3l2,2h1v2h1v-2l-1,-2v-1h1h3h3v-4h3l2,-1 1,-2h1h2h3v-2l-3,-1v-2l3,-2h1h3l3,-3 3,-2 1,-3 3,-3v-2h2l1,-2 3,-1v1l3,2h1l2,-2h1v2h2l1,-2v-1h2h1v-4l3,-1h3l-3,-4v-1h-3l3,-7h-3v-2v-1v-2v-3l3,-2v-5l4,3 2,-1 -6,-5 3,-4 6,-1 3,-7h-2v-2h2h1h3v-5l3,-1h1h3l2,-2h3l1,2 3,-2 10,-3h1h5v-2v-2h3v4l5,-2v2h2h1l5,-2 3,2h2h2h1l2,-4 8,2h3l3,2 2,3h1h3h2v2v1v4h2h3l2,-2h1l2,2h1h2v-2l1,-2 1,2v2h3l3,-2v-2h5h2l6,-3h3v-3h3v-2h1l12,-2v-1v-4h3h1l3,-3 2,-1 1,-4h2h1l-1,-1v-2h1h3l1,-2 2,-8 3,-3 -2,-2 5,-5h1l2,-2 1,-1v-2h-1v-3h1h3l19,-17h5h2h4v-2h2v2h1h3h2h1h4h2h1l16,20 2,10 1,2v1v7v2l10,-2v-8h86v1l1,7v2l-1,6h-2v4v3l-1,1 -2,4v1v2v2h-1v5v1l-2,2 -1,2h-2v1l-1,2h-1v3v2l-2,2v6v2v2l2,1 28,19 21,21 1,2h3l17,13v4l3,3v2v3v2l-1,1v2l1,2v1h2h1l9,2 1,3v2h2h1h6l1,2v1h2l1,4 3,5v3h-1v2h1l5,1 1,-1h9h1l3,1h2h1l1,2 6,-2h2l8,4 51,6 1,2 3,2v1l6,13v4v5l2,3 2,5 16,13h2l3,5 42,15 75,40h1l11,12 2,5v2l2,3v3l-2,2 -1,2v1l-1,5h1l12,17 2,8 -1,4v5v1l13,20h-6h-13h-6h-5h-6h-5h-1h-1h-2h-1h-2h-8h-8h-4h-4h-3h-5l-5,2h-3v3v22v8v5v8h-6h-2h-5h-3h-5h-2h-13h-5h-3h-4h-1h-8h-20h-12h-8v-13v-2v-11v-20h-3h-3h-3h-3h-3h-4h-4h-2h-7h-2h-8h-7h-2h-1h-6h-2h-2h-11h-2h-2h-17h-3h-6h-4h-3h-2h-1h-2v1h-1h-1l-3,-1h-2h-1h-3h-2h-1h-1h-2h-1h-2l-4,1h-2l-3,-1 -2,1h-2h-3h-4h-3h-6h-1h-2h-3h-1l-3,-1h-1l-3,1v-1v1h-2l-5,-1h-3h-2h-1h-2h-1h-2h-4h-1h-2h-1h-3h-3h-2h-1h-1h-5h-1h-2h-1h-2h-2h-2h-1h-2h-1h-2h-5h-3h-2h-1h-6l-7,1h-3h-5h-1h-3h-3h-1h-3h-2h-2h-3h-2h-6h-1h-4h-2h-1h-2h-5h-2h-3h-3h-1h-5h-1h-1h-2h-1h-6h-6h-3v-98h-48v-50l-28,-13 -2,-35h-11h-2h-1h-13h-2h-6h-5h-3h-9h-4h-3h-3h-6h-4h-3h-3h-3h-1h-2h-1h-2h-1h-3h-3h-1h-2h-19h-1h-9h-3h-4h-3h-3h-3h-7h-12h-4h-9h-1h-3h-6h-8h-2h-6h-3h-2h-2h-1h-2h-1h-2h-3h-7Z"/>
  </g>
  <path class="mesh" transform="scale(0.1)" d="M1061,2126h1h3h4h3h2h1h9h1h5h1h2h1h3h4h6h3h4h3h4h5h1h5h2l14,2h2h2h3v-2h-2l-1,-1h-3l-1,-2h-2l-1,-2h-3v-1l-3,-2v-2v-1v-2h-2l-3,2h-1v-2l-6,-7 -3,-5v-1h2h1h5h2h9h5h1h1h2h1h3h3l4,1h5h8h3h2h4h7h18h1h3h12h5h2h3h4h2h4h6h3h4h1h2h4h9h3h4h4h5h8h3h5h3h4h6h3h3l4,2h1h3h6h7h7l2,8v7v3v5v17v8v5v2v2v5v1v2v8v8v7v5v2v1v4v1v5v2v2v1v4v8v8v4v13h1h3h5h4h3h13h4h7h2h1h2h1h2h1h3h3h1h2h7h3h3h1h2h4h2h1h3h3h3h1h2h1h1h2v2v1v4v3v2v8v10v7v1v2v2v1v2v2v1v2v12v1v2v5v2v1v2v2v1v4h6h3h1h7h2h10h3h3h2h5h9h7h4h2h1h1h3h3h10h3h3h4h2h1h3h2h1h3h3h1h3h3h6h10h2h1h6h14h7h2h4l5,1h3h1h3h7h2h4l4,3v2v2v1v2v2v1v2v2v3v7v6v5v5v5v7v5v2v1v2h2h4h3h1h3h2h1h3h1h2h1h2h3h3h1h2h4h6h1h2h2h5h1h15h4h3h1h3h6h3h3h1h5h1h7h2M1758,2496h-95h-2h-1h-2h-1h-2h-1h-3h-3h-1h-2h-1h-2h-1h-3h-1h-3h-3h-3h-1h-5h-1h-3h-2h-1h-2h-2h-3h-9h-1h-2h-1h-3h-2h-1h-2h-1h-3h-1h-3h-2h-3h-4h-1h-2h-1h-15v-49h-39l-6,19 -2,-4 -2,-1h-1l-2,-2 -3,-2 -6,-3 -2,-5v-2v-1l-2,-2h-3h-1h-2l-3,-2h-2l-3,-1v-2h-3h-2h-1h-2h-1l-1,-2 -3,-3v-2l-3,-1v-2h-3v-2h-3l-1,2h1l1,2h2l-2,1h-1v2v2h-1v1h-2l2,2 -2,2h-1l-3,-2v-2v-1h-3v1l-3,2h-3l-1,2 -2,1h-3v2h-1h-3v2l-3,1v2h-1h-2v-2h-1h-2l-1,2v-2h-2v2h-1l-3,-2v2v2v1h-3v-1v-2h-3l-1,2v1l-2,2h-1h-2l-1,2v1v2l3,5 1,2h2l1,1 -14,14h-2l-1,1 -2,2v2l-2,1 -2,2h-3v2l-3,5v3h-1l-2,3 -1,3 -2,2v2v1l-4,9v1h-3l-3,2v-2h-1v-1h-2v1v2v2l-1,1 1,2h-1l-1,3v2v3v2v3v4v5v1v4v15v6v2v3v10v2v20v3v4v8l1,32v1M1757,3019l3,-1h1l3,1h1h3h2h1h6h3h4h3h2l2,-1 3,1h2l4,-1h2h1h2h1h1h2h3h1h2l3,1h1h1v-1h2h1h2h3h4h6h3h17h2h2h11h2h2h6h1h2h7h8h2h7h2h4h4h3h3h3h3h3v20v11v2v13h8h12h20h8h1h4h3h5h13h2h5h3h5h2h6v-8v-5v-8v-22v-3h3l5,-2h5h3h4h4h8h8h2h1h2h1h1h5h6h5h6h13h6M1116,476v4v3v3v4v5v5v1v2v10l-2,16v7v3v5v4v3v2v15v3v17v1v2v2v8v7v6v5v2v2v1l-1,12v5v3v2v3v4v8v3h1v18v32v15v27v1v5v22v5v7l-1,6v2v5v2v1v9v1v5v2v2v19v10h1v9v3v3v2v8v2v22v1l-123,-1v31h-23l-1,40h-50v155l8,13h14l26,5v50h-1h-2h-1h-2l-4,-2h-3h-1h-2h-1h-6h-1h-5h-7h-1h-2h-1h-2l-16,-1h-1h-4h-2h-4h-3h-2h-1h-6h-3h-1h-5h-1h-1h-2h-1h-2h-1h-7h-3l-10,-2h-8h-6h-14l-1,8v7v2v5v3v10v2v1v2v8l1,2 3,-2v10v2v2v3v3v7v2v5v10v3v3v5l-2,19v3v3v2v3v4v1v8v9v5v1v7l-1,3v4v5v3v10v3v2v2v10v1v9v5l-1,15v1l2,4v21v4v1v12v3l-1,17v3v2v6v4v8v2v1v5v2v3v4v1l-1,7v8v7v5v5v8v9l-2,3v7v5v8v5v3l3,22v2v10v5l-1,31v2v1v2v7v3v7v5v6v5v2v3v2v2h-2v1v5v2v3v2v8v7v10v7v1v2h2h2h3h5h4h3h3h3h8h2h6h7h3v2h6h8h10h6h3h2h1h1h3h2h1h2h1h3h6h3h4h1h3l9,1h1h2h3h4h2h2h2h1h2h1h2h3h1h2h4h6l1,2 2,3v2l1,2 1,1h2h4h2h1h2h1h1h2h1l2,-1v-2v-2h1h2v2v2v1h1h2l1,2v5v2v1v2v3v2v2v8v2v9h1h2M1353,2659h-1h-2v18l70,13 -3,7 -6,1 -3,4 6,5 -2,1 -4,-3v5l-3,2v3v2v1v2h3l-3,7h3v1l3,4h-3l-3,1v4h-1h-2v1l-1,2h-2v-2h-1l-2,2h-1l-3,-2v-1l-3,1 -1,2h-2v2l-3,3 -1,3 -3,2 -3,3h-3h-1l-3,2v2l3,1v2h-3h-2h-1l-1,2 -2,1h-3v4h-3h-3h-1v1l1,2v2h-1v-2h-1v2h-2l-3,3v-3v-2l-3,2 -4,3v-3h-1h-3h-2h-3l-5,5 -2,3h-3v-2l-1,-1 -5,1v4l-1,1 -2,2 -5,3h-2v2l-1,2v1h-5l-1,5 1,2v2v3l-1,2h-1v1l2,2v2v6l-1,4v1l-1,-1 1,-2 -1,-2 -3,2h-2v2v1v4h2l3,1v2v2h1v1h1h3v3l-3,5 3,2 -3,2v3l-1,5h-4l-2,10h-1h-2l-1,-2 -2,2 -2,3h2h2h1l-1,4 -6,1h-1h-9h-14h-2h-4h-3h-10h-2h-4h-9h-4h-2h-2h-2h-3h-3h-3h-4h-1h-5h-6h-1h-6h-1h-2h-4h-3h-1h-2h-4h-2h-5h-2h-3h-3h-5v-1h-2h-1h-3h-5h-2h-3h-3h-3h-2h-7h-3h-1h-3h-4h-10h-2h-9h-2h-6h-3h-2h-3h-8h-2h-8h-6h-6h-4h-6h-3h-6h-1h-3h-2h-2h-3h-2h-3l-3,-4h-1h-3h-1h-5h-1h-6h-3h-6h-4h-1h-3h-3h-5h-1h-4h-2h-1h-6l-6,-1 -3,-4 -3,-5 -1,-3v-2l-7,-3 -7,-3h-3l-3,-2v8v2v5l-2,8v4v5v6v2v5v3v4v1v4v5v8v2v1v2v7l-1,6v2v2v5v5v1v5v4v10h-4h-5h-1h-2h-3h-1h-6h-1h-2h-1h-6h-4h-5h-1h-7h-5h-3h-1h-3h-7l-5,-4h-5h-3h-7h-2h-3h-4h-2v5v4l-1,8v3v7v8v3v5v4v5h-1h-2h-1l-16,6 -10,42h31l-1,146h-1h-2h-3h-1h-2h-7h-7h-9h-1h-3h-2h-1h-7h-2h-1h-6h-1l-9,-1h-2h-1h-1h-2h-3h-6h-1h-7h-2h-3h-3h-2h-6h-7h-3h-3h-3h-2h-2h-3h-3l-5,-2h-1h-3h-4h-5h-7h-1h-6h-10l-34,-2h-2h-21h-1h-3h-3h-1l-10,-1h-2h-11h-2h-3h-6h-1h-4h-3h-2h-1h-5h-1h-1l-11,-4h-2h-5h-1h-2h-1h-2h-5h-2h-3h-3h-1h-10h-2h-1h-2h-1h-1h-3h-16h-2h-1h-17l-5,-1h-3h-1h-5h-2h-6h-2h-1h-6h-3h-1h-2h-1h-3h-3h-3h-3h-1l-7,-2h-5h-1h-2h-5h-2h-1h-8h-1h-1h-2h-3h-1h-5h-1h-3l-9,-2h-1h-3h-4h-2h-3h-1h-2h-1h-3h-4h-2h-3l-4,-3h-1h-2h-1h-7h-5h-1h-3h-3h-3M1011,1838v4v1v4v3v5v7v3v7v5v1v2v2v6v2v3v2v2v1v7v3v2v2v10v1v5l-1,10v4v5v1v2v2v3v2v1v5v4v3v5v5v2v1v4v1v4v5v1v5v2l-1,6v2v2v1v2v2v3v5v3v2v2v1h1v2v3v2v2v1v2v2v1v2v8v7v2v1v4v5v1v4v8v8v2v2v1v2v2l-1,6v4v1v4v1h4h1h2h6h3h2h5h1h2h1h2h2h3h3h2h1h3h3h3h1h2v180h-6h-4l-15,25h-29v31v17h4h2h3h3h3h4h1h3h2h4h3h9h1h3h4h3h5h8h8h4h1h2h1h5h1h1h5h4h3l1,2v6v9v5v3h3h5h7h1h8h4h9h5h5h1v20v3v2h2v5v8v2v2v3v2v1v10v9v3v5v2v6v2v3v2v5v3v15v2v1v7v3v9v3h-2v2v1v2v5v3v9v3v2v3v2v1h3h2h5l3,2h3h2h7h1h2h3h2h2h1h3h5h3h2h3h2h3h8h2h6h4h4h9h7v5v5v5v2v1v7v5v12v8l2,5v2v1v9v3v5v3v4l-2,5v1v2v1v4v3v2v8v2v1v2v3v4v6v4v1v4v5v1v2v5h5h4h3h11h6h2h7h3h5h3v2v5v1v5v2v2v5v1v2h2h1h2h1h2h2h3h6h5h2h2h1h8h2h5h4v7v1v2v2v1v4v1h-3v2h3h2l-2,-2M1292,2823h7h3h2h1h2h1h2h2h3h6h2h8h6h3h1h9h4h12h7h3h3h3h4h3h9h1h19h2h1h3h3h1h2h1h2h1h3h3h3h4h6h3h3h4h9h3h5h6h2h13h1h2h11l2,35 28,13v50h48v98h3h6h6h1h2h1h1h5h1h3h3h2h5h2h1h2h4h1h6h2h3h2h2h3h1h3h3h1h5h3l7,-1h6h1h2h3h5h2h1h2h1h2h2h2h1h2h1h5h1h1h2h3h3h1h2h1h4h2h1h2h1h2h3l5,1h2v-1M1551,2496l-10,3 -3,-2 7,17v1v2v8l-47,4v71l-10,4h-2l28,8 16,32h20h27h2l-3,3 -2,8 -1,2h-3h-1v2l1,1h-1h-2l-1,4 -2,1 -3,3h-1h-3v4v1l-12,2h-1v2h-3v3h-3l-6,3h-2h-5v2l-3,2h-3v-2l-1,-2 -1,2v2h-2h-1l-2,-2h-1l-2,2h-3h-2v-4v-1v-2h-2h-3h-1l-2,-3 -3,-2h-3l-8,-2 -2,4h-1h-2h-2l-3,-2 -5,2h-1h-2v-2l-5,2v-4h-3v2v2h-5h-1l-10,3 -3,2 -1,-2h-3l-2,2h-3h-1l-3,1v5h-3h-1h-2v2h2M1566,2496v6v2v1v5v2v2v1v2v2v1v2v2v1v2l1,3v2v2v5l7,6v2v2v1v2v2v1v4v1v4v1v9v3v3v2v2v6v2v2h2l1,10v3v2v3v5l2,2 1,1h2v5h1h2l1,2v2h-1v3h1v2l-1,1 -2,2h-1l-5,5 2,2M1750,2644h-86v8l-10,2v-2v-7v-1l-1,-2 -2,-10 -16,-20h-1h-2h-4h-1h-2h-3h-1v-2h-2v2h-4h-2h-5l-19,17h-3"/>
  <g class="cities">
    <circle r="3" cx="155.2" cy="257.8"/>
    <text x="155.2" y="257.8">Minneapolis</text>
    <circle r="3" cx="187.5" cy="311.6"/>
    <text x="187.5" y="311.6">Rochester</text>
    <circle r="3" cx="199.8" cy="155.7"/>
    <text x="199.8" y="155.7">Duluth</text>
  </g>
</svg>