<?xml version="1.0" encoding="utf-8"?>
<!DOCTYPE svg PUBLIC "-//W3C//DTD SVG 1.1//EN" "http://www.w3.org/Graphics/SVG/1.1/DTD/svg11.dtd">
<svg version="1.1" xmlns="http://www.w3.org/2000/svg" width="305" height="350" viewBox="0 0 305 350">
  <path class="state" transform="scale(0.1)" d="M2404,1163l-57,60 -30,47 -81,88 -39,23 -81,85 -35,20 -78,66 -44,50 -3,30 -30,-6 2,138 2,194 -21,34 -29,-7 -19,31 -65,22 -38,38 -8,37 -32,42 -12,6 -4,82 43,1 48,64 1,33 -37,58 -7,53 10,45 -25,30 16,22 6,45 -6,65 -14,49 28,17 45,43v15l38,22 85,17 31,49 111,49 20,23 25,73 54,32 57,56 66,17 60,85 16,36 -8,67 17,41 6,49 -207,5 -294,5 -246,3h-246l-245,-2 -248,-5 -245,-6 -245,-5 -165,-7 9,-196 7,-196 10,-245 5,-98 10,-261 -10,-49 -52,-33h-21l-62,-103v-33l71,-48 38,-52 7,-65 -3,-43 9,-23 -13,-94 1,-58 -45,-63 -5,-78 -13,-30 4,-65 -7,-43 16,-65 -19,-18 1,-87 -4,-18 4,-52 -7,-93 7,-51 2,-55 -44,-137 -11,-46 -13,-17 -5,-58 -24,-72 17,-86 -14,-20 11,-72 -10,-30 27,-63 -14,-45 -9,-68 -18,-51v-32l308,15 399,13 62,2 6,-218 35,18 39,-10 45,45 19,98 8,15 22,125 -4,52 36,35 61,11 52,-3 16,31 153,17 15,62h56l64,-17v-23l46,-22 52,-8 45,8 52,-2v12l83,38 34,-1 2,23 -31,22 25,15 52,-7 20,25 -8,17 42,84 37,-15 -14,-38 16,-23 18,6 60,-9 20,19 -1,34 78,33 32,2 2,48 57,2 -6,33 33,-12 21,12 69,-23 41,-37 39,-23 55,-35 17,3 3,30 22,20 10,33 72,-20v15h68l75,-15 60,12 8,28 44,25 45,-21 69,11 -35,18 -28,39 -63,23 -4,13 -93,42 -130,45 -88,58 -91,83"/>
  <g class="counties" transform="scale(0.1)">
    <path data-fips-int="27001" data-name="Aitkin County" d="M1631,1423l-2,148 3,194 2,148 -148,2v-52l-142,2 -5,-3v-190l13,-3 1,-120 1,-128Z"/>
    <path data-fips-int="27003" data-name="Anoka County" d="M1648,2334v65v97h-82l1,49 -23,2 -9,-60 -49,-43 -33,-17v-95Z"/>
    <path data-fips-int="27005" data-name="Becker County" d="M820,1344l-1,197 -1,50 -180,-5 -213,-7 8,-146 -8,-4 3,-95h48l198,5Z"/>
    <path data-fips-int="27007" data-name="Beltrami County" d="M1113,664v295l-2,226v18h-97l-195,-5 1,-259 -30,-25 17,-59 -131,-3 -2,-86 2,-207 98,2 48,2 -2,98Z"/>
    <path data-fips-int="27009" data-name="Benton County" d="M1354,2103l2,148 -153,-2 -22,-33 -5,-61 -21,-27 -31,-28Z"/>
    <path data-fips-int="27011" data-name="Big Stone County" d="M143,2206l230,10 2,97 49,3 -6,96 6,35 -39,-16 -31,-25 -66,-15 -10,-49 -52,-33h-21Z"/>
    <path data-fips-int="27013" data-name="Blue Earth County" d="M1250,2995h97v24v197l-194,-2h-49l2,-148 -2,-88 127,63 24,-8Z"/>
    <path data-fips-int="27015" data-name="Brown County" d="M942,2868l49,32 67,23 30,48 16,7 2,88 -200,-3 -99,-2 -1,-48 1,-50 99,2 3,-124Z"/>
    <path data-fips-int="27017" data-name="Carlton County" d="M1926,1626l2,138 -296,1 -3,-194 293,-2Z"/>
    <path data-fips-int="27019" data-name="Carver County" d="M1352,2579v46l98,2 -1,50 -25,6 -19,30 6,17 -61,38v-18h-48v-25h-49v-148Z"/>
    <path data-fips-int="27021" data-name="Cass County" d="M1354,1421l-1,128 -219,-3 3,98v193l-5,6 -32,-31 -45,17 -45,-27 -29,-12 -19,-15 2,-231 49,2 1,-343h97v-18l31,16 88,-34 29,39v34l43,30 51,-5 -12,41 13,14Z"/>
    <path data-fips-int="27023" data-name="Chippewa County" d="M764,2472l-6,147 -92,-2 -3,76 -5,-18 -92,-86 -34,-29 -82,-98 158,7Z"/>
    <path data-fips-int="27025" data-name="Chisago County" d="M1718,2155l-12,6 -4,82 43,1 48,64 1,33 -37,58h-109v-65l-1,-81 -48,-2v-96Z"/>
    <path data-fips-int="27027" data-name="Clay County" d="M428,1334l-3,95 8,4 -8,146v48l-42,-1 -193,-7 4,-65 -7,-43 16,-65 -19,-18 1,-87 -4,-18Z"/>
    <path data-fips-int="27029" data-name="Clearwater County" d="M819,1198l1,146 -146,-5 5,-194 3,-98h-11l3,-147 2,-48 131,3 -17,59 30,25Z"/>
    <path data-fips-int="27033" data-name="Cottonwood County" d="M806,3013l1,48 99,2 -2,148 -241,-9h-5l5,-196Z"/>
    <path data-fips-int="27035" data-name="Crow Wing County" d="M1353,1549l-1,120 -13,3v190l5,3 -5,48 -222,-1 -7,-42 22,-27 5,-6v-193l-3,-98Z"/>
    <path data-fips-int="27037" data-name="Dakota County" d="M1650,2627v65l47,-2 40,18 28,17v48h-24l1,50h-52v13l-48,4v23l-97,2v-42l2,-50h-17l-5,-88 32,-12 29,-46 20,-15h31Z"/>
    <path data-fips-int="27039" data-name="Dodge County" d="M1789,3019l1,178 -4,17 -145,2v-197h1Z"/>
    <path data-fips-int="27041" data-name="Douglas County" d="M797,1933l19,2 -1,188v8l-243,-8 1,-195Z"/>
    <path data-fips-int="27043" data-name="Faribault County" d="M1347,3216h49l-1,196 -245,-2 3,-196Z"/>
    <path data-fips-int="27045" data-name="Fillmore County" d="M2035,3212l141,-3 5,195 -294,5 -3,-190 23,-7Z"/>
    <path data-fips-int="27047" data-name="Freeborn County" d="M1640,3216l1,196h-246l1,-196h99Z"/>
    <path data-fips-int="27049" data-name="Goodhue County" d="M1964,2871h-76v49l-49,1 2,97 -52,1h-147v-156v-23l48,-4v-13h52l-1,-50h24v-48l45,43v15l38,22 85,17Z"/>
    <path data-fips-int="27051" data-name="Grant County" d="M573,1928l-1,195 -196,-5v-148l2,-50Z"/>
    <path data-fips-int="27053" data-name="Hennepin County" d="M1450,2427h3l33,17 49,43 9,60 23,-2h7l3,72 9,10 -29,46 -32,12 -76,-8 1,-50 -98,-2v-46v-50l43,-73Z"/>
    <path data-fips-int="27055" data-name="Houston County" d="M2357,3206l16,36 -8,67 17,41 6,49 -207,5 -5,-195Z"/>
    <path data-fips-int="27057" data-name="Hubbard County" d="M1014,1203l-1,343 -49,-2 -145,-3 1,-197 -1,-146Z"/>
    <path data-fips-int="27059" data-name="Isanti County" d="M1599,2155v96l48,2 1,81 -195,-2v-81v-98Z"/>
    <path data-fips-int="27061" data-name="Itasca County" d="M1619,935l-1,80 9,17v344l4,47 -277,-2v-101l-13,-14 12,-41 -51,5 -43,-30v-34l-29,-39 -88,34 -31,-16 2,-226 243,1v-30Z"/>
    <path data-fips-int="27063" data-name="Jackson County" d="M904,3211h2l-4,194 -245,-6 6,-197Z"/>
    <path data-fips-int="27065" data-name="Kanabec County" d="M1634,1913l-2,100h-33v142l-146,-2 -2,-140h34l1,-98Z"/>
    <path data-fips-int="27067" data-name="Kandiyohi County" d="M958,2377l-3,245 -197,-3 6,-147v-148l49,2 145,5Z"/>
    <path data-fips-int="27069" data-name="Kittson County" d="M388,290l-6,151 6,9 -5,96 -289,-12 27,-63 -14,-45 -9,-68 -18,-51v-32Z"/>
    <path data-fips-int="27071" data-name="Koochiching County" d="M1615,521l-3,314 7,100 -263,-5v30l-243,-1v-295l3,-188 52,-3 16,31 153,17 15,62h56l64,-17v-23l46,-22 52,-8Z"/>
    <path data-fips-int="27073" data-name="Lac qui Parle County" d="M385,2431l39,16 17,12 9,3 82,98 34,29 -2,25 -43,-2 -3,47 -240,-7 10,-261 66,15Z"/>
    <path data-fips-int="27075" data-name="Lake County" d="M2388,756l10,169 6,238 -57,60 -30,47 -81,88 -39,23 -81,85 -5,-356 -7,-100 -4,-256 32,2 2,48 57,2 -6,33 33,-12 21,12 69,-23 41,-37Z"/>
    <path data-fips-int="27077" data-name="Lake of the Woods County" d="M1116,476l-3,188 -293,-3 2,-98 -48,-2v-98l96,2 3,-117 -58,22 -25,-38h2v1l-5,-30 62,2 6,-218 35,18 39,-10 45,45 19,98 8,15 22,125 -4,52 36,35Z"/>
    <path data-fips-int="27079" data-name="Le Sueur County" d="M1447,2823v196h-100v-24h-97l22,-40 12,-85 15,-22 -7,-25Z"/>
    <path data-fips-int="27081" data-name="Lincoln County" d="M417,2757l4,48 -6,196 -152,-6 10,-245Z"/>
    <path data-fips-int="27083" data-name="Lyon County" d="M616,2812l-5,194 -190,-5h-6l6,-196 -4,-48 197,5Z"/>
    <path data-fips-int="27085" data-name="McLeod County" d="M1156,2575l97,2v148l-97,-2 -1,50 -97,-1v-49v-99v-49Z"/>
    <path data-fips-int="27087" data-name="Mahnomen County" d="M674,1339l-198,-5 7,-194 196,5Z"/>
    <path data-fips-int="27089" data-name="Marshall County" d="M676,559l-2,207 -234,-9 -107,-5 -243,-10 17,-86 -14,-20 11,-72 -10,-30 289,12Z"/>
    <path data-fips-int="27091" data-name="Martin County" d="M1104,3214h49l-3,196 -248,-5 4,-194Z"/>
    <path data-fips-int="27093" data-name="Meeker County" d="M1156,2404v171h-98v49l-103,-2 3,-245 150,2v25Z"/>
    <path data-fips-int="27095" data-name="Mille Lacs County" d="M1486,1915l-1,98h-34l2,140v98h-97l-2,-148 -1,-92h-16l2,-98 5,-48 142,-2Z"/>
    <path data-fips-int="27097" data-name="Morrison County" d="M1132,1843l-22,27 7,42 222,1 -2,98h16l1,92 -230,-3 31,28 -146,-2 1,-324 45,27 45,-17Z"/>
    <path data-fips-int="27099" data-name="Mower County" d="M1786,3214l1,8 97,-3 3,190 -246,3 -1,-196h1Z"/>
    <path data-fips-int="27101" data-name="Murray County" d="M611,3006h52l-5,196 -240,-6h-4l7,-195Z"/>
    <path data-fips-int="27103" data-name="Nicollet County" d="M1250,2995l5,38 -24,8 -127,-63 -16,-7 -30,-48 -67,-23 -49,-32 64,2h278l-12,85Z"/>
    <path data-fips-int="27105" data-name="Nobles County" d="M658,3202h5l-6,197 -245,-5 6,-198Z"/>
    <path data-fips-int="27107" data-name="Norman County" d="M185,1127l62,5 236,8 -7,194h-48l-247,-11 4,-52 -7,-93Z"/>
    <path data-fips-int="27109" data-name="Olmsted County" d="M1841,3018h94v48h97l3,146h-128l-23,7 -97,3 -1,-8 4,-17 -1,-178Z"/>
    <path data-fips-int="27111" data-name="Otter Tail County" d="M818,1591l-2,196v148l-19,-2 -224,-5 -195,-8 5,-98h-7l7,-196 42,1v-48l213,7Z"/>
    <path data-fips-int="27113" data-name="Pennington County" d="M674,766l2,86 -2,48 -47,-3v-15l-291,-10 -8,-33 5,-87 107,5Z"/>
    <path data-fips-int="27115" data-name="Pine County" d="M1928,1764l2,194 -21,34 -29,-7 -19,31 -65,22 -38,38 -8,37 -32,42h-119v-142h33l2,-100 -2,-148Z"/>
    <path data-fips-int="27117" data-name="Pipestone County" d="M415,3001h6l-7,195 -158,-5 7,-196Z"/>
    <path data-fips-int="27119" data-name="Polk County" d="M333,752l-5,87 8,33 -3,65 49,2 -3,50 197,6 1,-50 48,2 2,-50 47,3 -3,147h11l-3,98 -196,-5 -236,-8 -62,-5 2,-55 -44,-137 -11,-46 -13,-17 -5,-58 -24,-72Z"/>
    <path data-fips-int="27121" data-name="Pope County" d="M815,2131l-2,195 -49,-2 -194,-5 2,-196Z"/>
    <path data-fips-int="27123" data-name="Ramsey County" d="M1648,2496h15l1,129 -14,2 -13,-15h-31l-20,15 -9,-10 -3,-72h-7l-1,-49Z"/>
    <path data-fips-int="27125" data-name="Red Lake County" d="M627,897l-2,50 -48,-2 -1,50 -197,-6 3,-50 -49,-2 3,-65 291,10Z"/>
    <path data-fips-int="27127" data-name="Redwood County" d="M909,2841l-3,124 -99,-2 -1,50 -143,-7h-52l5,-194 94,3v-90l29,23 19,-3 61,52Z"/>
    <path data-fips-int="27129" data-name="Renville County" d="M955,2622l103,2v99l-52,-1v148l-64,-2 -33,-27 -90,-44 -61,-52 -19,3 -29,-23 -47,-32 3,-76 92,2Z"/>
    <path data-fips-int="27131" data-name="Rice County" d="M1545,2823v42l97,-2v156h-1h-146h-48v-196Z"/>
    <path data-fips-int="27133" data-name="Rock County" d="M414,3196h4l-6,198 -165,-7 9,-196Z"/>
    <path data-fips-int="27135" data-name="Roseau County" d="M787,303l5,30v-1h-2l25,38 58,-22 -3,117 -96,-2v98l-98,-2 -293,-13 5,-96 -6,-9 6,-151Z"/>
    <path data-fips-int="27137" data-name="Saint Louis County" d="M2100,754l4,256 7,100 5,356 -35,20 -78,66 -44,50 -3,30 -30,-6 -4,-57 -293,2 2,-148 -4,-47v-344l-9,-17 1,-80 -7,-100 3,-314 52,-2v12l83,38 34,-1 2,23 -31,22 25,15 52,-7 20,25 -8,17 42,84 37,-15 -14,-38 16,-23 18,6 60,-9 20,19 -1,34Z"/>
    <path data-fips-int="27139" data-name="Scott County" d="M1525,2685l5,88h17l-2,50h-98h-155l7,-31 51,-24 61,-38 -6,-17 19,-30 25,-6Z"/>
    <path data-fips-int="27141" data-name="Sherburne County" d="M1356,2251h97v81v95h-3l-13,-21 -85,-7 -110,-71 -34,-37 -5,-42Z"/>
    <path data-fips-int="27143" data-name="Sibley County" d="M1253,2725h49v25h48v18l-51,24 -7,31 7,25 -15,22h-278v-148l52,1v49l97,1 1,-50Z"/>
    <path data-fips-int="27145" data-name="Stearns County" d="M1155,2128l21,27 5,61 22,33 5,42 34,37 -19,44 -25,22 -39,-3 -3,13h-48v-25l-150,-2v-46l-145,-5 2,-195v-8l194,3Z"/>
    <path data-fips-int="27147" data-name="Steele County" d="M1641,3019v197h-1h-145v-197Z"/>
    <path data-fips-int="27149" data-name="Stevens County" d="M570,2319l-146,-3 -49,-3 -2,-97 3,-98 196,5Z"/>
    <path data-fips-int="27151" data-name="Swift County" d="M764,2324v148l-156,-3 -158,-7 -9,-3 -17,-12 -6,-35 6,-96 146,3Z"/>
    <path data-fips-int="27153" data-name="Todd County" d="M981,1790l29,12 -1,324 -194,-3 1,-188v-148Z"/>
    <path data-fips-int="27155" data-name="Traverse County" d="M376,1970v148l-3,98 -230,-10v-33l71,-48 38,-52 7,-65 -3,-43Z"/>
    <path data-fips-int="27157" data-name="Wabasha County" d="M1964,2871l111,49 20,23 25,73 -88,2v48h-97v-48h-94l-2,-97 49,-1v-49Z"/>
    <path data-fips-int="27159" data-name="Wadena County" d="M964,1544l-2,231 19,15 -165,-3 2,-196 1,-50Z"/>
    <path data-fips-int="27161" data-name="Waseca County" d="M1495,3019v197h-99h-49v-197h100Z"/>
    <path data-fips-int="27163" data-name="Washington County" d="M1757,2399l-7,53 10,45 -25,30 16,22 6,45 -6,65 -14,49 -40,-18 -47,2v-65l14,-2 -1,-129h-15v-97Z"/>
    <path data-fips-int="27165" data-name="Watonwan County" d="M1106,3066l-2,148 -198,-3h-2l2,-148Z"/>
    <path data-fips-int="27167" data-name="Wilkin County" d="M383,1626l-7,196h7l-5,98 -2,50 -120,-5 9,-23 -13,-94 1,-58 -45,-63 -5,-78 -13,-30Z"/>
    <path data-fips-int="27169" data-name="Winona County" d="M2120,3016l54,32 57,56 66,17 60,85 -181,3 -141,3 -3,-146v-48Z"/>
    <path data-fips-int="27171" data-name="Wright County" d="M1242,2328l110,71 85,7 13,21 -55,29 -43,73v50l-99,-2 -97,-2v-171l3,-13 39,3 25,-22Z"/>
    <path data-fips-int="27173" data-name="Yellow Medicine County" d="M663,2693l47,32v90l-94,-3 -2,-50 -197,-5 -144,-7 5,-98 240,7 3,-47 43,2 2,-25 92,86Z"/>
    <path data-fips-int="27031" data-name="Cook County" d="M2404,1163l-6,-238 -10,-169 55,-35 17,3 3,30 22,20 10,33 72,-20v15h68l75,-15 60,12 8,28 44,25 45,-21 69,11 -35,18 -28,39 -63,23 -4,13 -93,42 -130,45 -88,58Z"/>
  </g>
  <path class="mesh" transform="scale(0.1)" d="M819,1198l1,146 -1,197 -1,50 -180,-5 -213,-7 8,-146 -8,-4 3,-95h48l198,5 146,5M143,2206l230,10 2,97 49,3 -6,96 6,35 -39,-16 -31,-25 -66,-15M1106,3066l-200,-3 -99,-2 -1,-48 1,-50 99,2 3,-124 33,27 49,32 67,23 30,48 16,7M1353,1549l1,-128 277,2 -2,148 293,-2 4,57M1344,1865l-5,-3v-190l13,-3 1,-120 -219,-3 3,98v193l-5,6 -32,-31 -45,17 -45,-27 -29,-12 -19,-15 2,-231 49,2 1,-343M1111,1185l31,16 88,-34 29,39v34l43,30 51,-5 -12,41 13,14v101M1757,2399h-109M1648,2334v65v97h-82l1,49 -23,2 -9,-60 -49,-43 -33,-17v-95l195,2 -1,-81 -48,-2v-96h119M425,1579v48l-42,-1 -193,-7M181,1323l247,11M674,1339l5,-194 3,-98h-11l3,-147 2,-48M906,3063l-2,148 -241,-9h-5l5,-196 143,7M1634,1913l-148,2v-52l-142,2 -5,48 -222,-1 -7,-42 22,-27M1765,2725v48h-24l1,50h-52v13l-48,4v23l-97,2v-42l2,-50h-17l-5,-88 32,-12 29,-46 20,-15h31l13,15v65l47,-2 40,18M1964,2871h-76v49l-49,1 2,97 -52,1 1,178 -4,17 -145,2v-197h1h147M797,1933l19,2 -1,188v8l-243,-8 1,-195 224,5M1347,3216h49l-1,196M1150,3410l3,-196M1887,3409l-3,-190 23,-7h128l141,-3 5,195M1396,3216h99h145l1,196M1642,3019v-156M764,2324l-194,-5 2,-196 -196,-5v-148l2,-50 195,8M1352,2579v46l98,2 -1,50 -25,6 -19,30 6,17 -61,38v-18h-48v-25h-49v-148l99,2v-50l43,-73 55,-29h3M1567,2545h7l3,72 9,10M1525,2685l-76,-8M2176,3209l181,-3M964,1544l-145,-3M1629,1571l3,194 2,148 -2,100h-33v142M1113,959l243,1v-30l263,5 -1,80 9,17v344l4,47M904,3211h2l-4,194M657,3399l6,-197M764,2472l-6,147 -92,-2 -3,76 -5,-18 -92,-86 -34,-29 -82,-98 158,7 156,3v-148l49,2 145,5v46l-3,245 -197,-3M388,290l-6,151 6,9 -5,96 -289,-12M1615,521l-3,314 7,100M1113,664v295l-2,226v18h-97l-195,-5 1,-259 -30,-25 17,-59 -131,-3 -2,-86 2,-207 98,2 48,2 -2,98 293,3 3,-188M424,2447l17,12 9,3M566,2589l-2,25 -43,-2 -3,47 -240,-7M2388,756l10,169 6,238M2116,1466l-5,-356 -7,-100 -4,-256M774,561v-98l96,2 3,-117 -58,22 -25,-38h2v1l-5,-30M1250,2995h97v24v197l-194,-2h-49l2,-148 -2,-88 127,63 24,-8 -5,-38 22,-40 12,-85 15,-22 -7,-25h155v196h-100M273,2750l144,7 4,48 -6,196 -152,-6M417,2757l197,5 2,50 -5,194 -190,-5h-6M1253,2725l-97,-2 -1,50 -97,-1v-49v-99v-49h98l97,2M476,1334l7,-194 196,5M674,766l-234,-9 -107,-5 -243,-10M383,546l293,13M906,3211l198,3M958,2377l150,2v25h48v171M1058,2624l-103,-2M1453,2251h-97M1354,2103l2,148 -153,-2 -22,-33 -5,-61 -21,-27 -31,-28 230,3 -1,-92h-16l2,-98M1155,2128l-146,-2 1,-324M1786,3214l1,8 97,-3M1640,3216h1M611,3006h52M658,3202l-240,-6h-4l7,-195M942,2868l64,2h278M412,3394l6,-198M185,1127l62,5 236,8M1841,3018h94v48h97l3,146M818,1591l-2,196v148M378,1920l5,-98h-7l7,-196M674,900l-47,-3v-15l-291,-10 -8,-33 5,-87M414,3196l-158,-5M336,872l-3,65 49,2 -3,50 197,6 1,-50 48,2 2,-50M815,2131l-2,195M1648,2496h15l1,129 -14,2M616,2812l94,3v-90l29,23 19,-3 61,52 90,44M1058,2723l-52,-1v148M710,2725l-47,-32M1641,3019h-146h-48M1447,2823h98M1292,2823l7,-31 51,-24M1450,2427l-13,-21 -85,-7 -110,-71 -34,-37 -5,-42M1242,2328l-19,44 -25,22 -39,-3 -3,13M815,2123l194,3M1495,3216v-197M570,2319l-146,-3M373,2216l3,-98M816,1787l165,3M256,1965l120,5M2120,3016l-88,2v48M1928,1764l-296,1M1453,2332v-81v-98l146,2M1453,2153l-2,-140h34l1,-98"/>
  <g class="cities">
    <circle r="3" cx="155.2" cy="257.8"/>
    <text x="155.2" y="257.8">Minneapolis</text>
    <circle r="3" cx="187.4" cy="311.6"/>
    <text x="187.4" y="311.6">Rochester</text>
    <circle r="3" cx="199.7" cy="155.8"/>
    <text x="199.7" y="155.8">Duluth</text>
  </g>
</svg>