<?xml version="1.0" encoding="utf-8"?>
<!DOCTYPE svg PUBLIC "-//W3C//DTD SVG 1.1//EN" "http://www.w3.org/Graphics/SVG/1.1/DTD/svg11.dtd">
<svg version="1.1" xmlns="http://www.w3.org/2000/svg" width="1000" height="888" viewBox="0 0 1000 888">
  <path class="state" d="M556,25l30,-1 5,11 10,2v6l14,12 -1,6 12,9 -7,21 -2,23 3,19 7,13 1,19 9,6v15l9,8 18,15 4,10 9,2 9,17 14,7 23,18 6,14 8,24 -4,10 7,18 6,12h10l13,-19 20,8h7l23,13 -1,8 -7,6 -7,9 6,19 -11,17 -4,18 -8,9 -4,8 2,21 16,17 12,11 19,11 7,8 8,-1 -5,7 6,10 14,-6 6,7 9,3 11,10 -1,6 23,11v10l6,10 -6,3 6,17 9,13 -1,9 -12,10 4,8 9,20 9,9v10l9,4 8,-2 -8,-8 9,-1 13,18 7,-3 3,8 -5,18 -6,7 10,8 -10,2 -3,6 7,9 -7,16 -8,3 -10,-12 -7,7 -5,17 -6,9 -5,-1 4,-13 -3,-7h-11l-1,8 7,10 -3,10 5,9 -5,6 -10,5 11,6v5h-22l-2,4 17,13v6l-12,9 -4,15 -37,1 -62,1 11,-21 25,-21 7,-8 2,-21 -13,-7 -1,-13h-10l-52,1 -81,2h-361l-73,-1 -79,-2 1,-50 2,-52 1,-56 2,-53v-30l2,-44 2,-76 2,-42v-26l1,-49 1,-8 -8,-4 -13,1 -12,-9 2,-7 -12,-10 5,-12 -9,-2 -7,-11 -7,-5 -8,-11v-9l9,-1 3,-15 8,-2v-9h15l-3,-16 -6,-3 -2,-12 -7,1 -13,6 -15,-8 -21,-24 -10,-5 5,-12 -12,-9v-15l-11,-2 2,-5 -10,-8 -4,-22 -5,-11 -10,-5v-9l78,2 1,1 37,1 42,3 55,1h119l93,-1 50,-1Z"/>
  <g class="counties">
    <path data-fips-int="29001" data-name="Adair County" d="M500,74v8l1,48h-72l1,-56h23Z"/>
    <path data-fips-int="29003" data-name="Andrew County" d="M185,110l-1,17v39l-40,-1 -6,-3 -2,-12 -7,1 -2,-28 -6,-3 2,-12Z"/>
    <path data-fips-int="29005" data-name="Atchison County" d="M104,25l-1,18h4l-2,41 -53,-2 2,-5 -10,-8 -4,-22 -5,-11 -10,-5v-9l78,2Z"/>
    <path data-fips-int="29007" data-name="Audrain County" d="M589,257v3h39l5,33 -31,-1v17l-5,-1h-63v-31l-29,-2 1,-18h17Z"/>
    <path data-fips-int="29009" data-name="Barry County" d="M316,698l-1,19h6l-2,59 -73,-1 3,-47 2,-33Z"/>
    <path data-fips-int="29011" data-name="Barton County" d="M251,566v10l-2,43 -78,-4 2,-53 45,2Z"/>
    <path data-fips-int="29013" data-name="Bates County" d="M255,419l-2,42 4,1 -2,32 -13,-4h-14l-53,-2 2,-76 42,2 15,5Z"/>
    <path data-fips-int="29015" data-name="Benton County" d="M397,405v27l-2,23 3,13 -1,22 -62,-1v-24l-3,-2 2,-26v-29l32,1v-5Z"/>
    <path data-fips-int="29017" data-name="Bollinger County" d="M862,657h-14l1,13 -6,4h-16l-1,-9h-16v-41h10v-43l-1,-9 41,-1 1,28v56Z"/>
    <path data-fips-int="29019" data-name="Boone County" d="M505,275l29,2v31h-3l-3,22 1,19 -2,14 -8,7 -1,15 -20,-8 1,-8 -6,-2 3,-10 -14,-14 -3,-9 -9,-9 -1,-6 8,-15 12,-30Z"/>
    <path data-fips-int="29021" data-name="Buchanan County" d="M184,166l-1,14v39l-71,-2v-9l9,-1 3,-15 8,-2v-9h15l-3,-16Z"/>
    <path data-fips-int="29023" data-name="Butler County" d="M804,695l8,14 3,13 9,13 -1,14 -4,5 -6,19 -52,1 -3,-34h-5l-1,-23h-6l-2,-21Z"/>
    <path data-fips-int="29025" data-name="Caldwell County" d="M302,176v31l-1,16 -63,-2 1,-40v-8l22,2Z"/>
    <path data-fips-int="29027" data-name="Callaway County" d="M534,308h63l5,1 -2,64 -13,-1 -20,9 -10,12 -9,5 -14,2 -14,-8 -2,-7 1,-15 8,-7 2,-14 -1,-19 3,-22Z"/>
    <path data-fips-int="29029" data-name="Camden County" d="M451,462l13,9 2,14 10,14h16l-1,29 -5,6 -17,4 -8,-16h-33l-32,-3 1,-29 1,-22 -3,-13 10,2 -1,10 37,1Z"/>
    <path data-fips-int="29031" data-name="Cape Girardeau County" d="M910,575l6,17 9,13 -1,9 -12,10 4,8 -19,4 -12,10 -8,11h-15l-1,-2v-56l-1,-28h18l15,-2Z"/>
    <path data-fips-int="29033" data-name="Carroll County" d="M370,207v24l3,8 19,4 1,6 -13,-4 -4,13 -15,4v11l-10,5v-8l-11,-5 -1,13 -10,1 -4,-5 -25,7 1,-58 1,-16Z"/>
    <path data-fips-int="29035" data-name="Carter County" d="M729,674h8v9l7,13 2,21h-41l-24,-1h-17l1,-10v-38l29,-2h9v8Z"/>
    <path data-fips-int="29037" data-name="Cass County" d="M248,348v49h7v22h-21l-15,-5 -42,-2 2,-42v-26l51,4Z"/>
    <path data-fips-int="29039" data-name="Cedar County" d="M315,533l3,16 -1,30 -66,-3v-10l2,-48 37,3 1,11Z"/>
    <path data-fips-int="29041" data-name="Chariton County" d="M429,192h23l-1,16 -1,52 -13,-3 -7,21h-11l-5,-16 -17,-4 -4,-9 -1,-6 -19,-4 -3,-8v-24l1,-16Z"/>
    <path data-fips-int="29043" data-name="Christian County" d="M396,668l24,1v3l-2,48 -57,-2h-6l1,-32 -40,-2 1,-18Z"/>
    <path data-fips-int="29045" data-name="Clark County" d="M619,91l-64,-1v-8l1,-57 30,-1 5,11 10,2v6l14,12 -1,6 12,9Z"/>
    <path data-fips-int="29047" data-name="Clay County" d="M182,233l56,2 -1,44 -13,-5 -3,7 -21,14 -4,-6 -16,6 1,-8Z"/>
    <path data-fips-int="29049" data-name="Clinton County" d="M239,181l-1,40v14l-56,-2 1,-14v-39Z"/>
    <path data-fips-int="29051" data-name="Cole County" d="M518,385l2,7 14,8 14,-2 9,-5 -9,7v14l-16,5 -5,-3 6,14 -10,4v7h-30l-1,-16h-13l11,-43 3,-15 6,2 -1,8Z"/>
    <path data-fips-int="29053" data-name="Cooper County" d="M470,325l9,9 -12,29 -5,14 -31,-1 -32,-1 1,-42 1,-9 16,-16 12,15 11,2Z"/>
    <path data-fips-int="29055" data-name="Crawford County" d="M641,463l39,1 1,6v79h-7l-1,7h-23v-16h-31v-66h-2v-11Z"/>
    <path data-fips-int="29057" data-name="Dade County" d="M317,579l-1,27 -1,26 -62,-2 -4,-11 2,-43Z"/>
    <path data-fips-int="29059" data-name="Dallas County" d="M396,519l32,3 -1,32 1,42h-33v13h-16l2,-58 -2,-13 1,-19Z"/>
    <path data-fips-int="29061" data-name="Daviess County" d="M302,111v65l-41,-1 -22,-2 1,-45h-2l1,-19Z"/>
    <path data-fips-int="29063" data-name="DeKalb County" d="M238,128h2l-1,45v8l-56,-1 1,-14v-39Z"/>
    <path data-fips-int="29065" data-name="Dent County" d="M619,540h31v16h23v20h-23v15l15,1v17l-62,-1h-16v-32h-8v-36Z"/>
    <path data-fips-int="29067" data-name="Douglas County" d="M451,673l64,1h23v48h-4l-94,-2h-22l2,-48Z"/>
    <path data-fips-int="29069" data-name="Dunklin County" d="M851,748l1,44 2,71 -62,1 11,-21 25,-21 7,-8 2,-21 -13,-7 -1,-13h-10l6,-19 4,-5Z"/>
    <path data-fips-int="29071" data-name="Franklin County" d="M698,401l9,2 24,-20v32l-6,48 -45,1 -39,-1v-67l-1,-23 8,-2 14,17 25,3Z"/>
    <path data-fips-int="29073" data-name="Gasconade County" d="M633,371l7,2 1,23v67h-24v11h-13l-3,-25v-77l14,5Z"/>
    <path data-fips-int="29075" data-name="Gentry County" d="M240,65l-1,44 -1,19 -54,-1 1,-17 2,-47h31Z"/>
    <path data-fips-int="29077" data-name="Greene County" d="M379,609h16l-1,27 2,5v27l-79,-2v-31l-2,-3 1,-26Z"/>
    <path data-fips-int="29079" data-name="Grundy County" d="M358,131v12h-56v-32l1,-23h55Z"/>
    <path data-fips-int="29081" data-name="Harrison County" d="M302,30l1,58 -1,23 -63,-2 1,-44 -2,-35Z"/>
    <path data-fips-int="29083" data-name="Henry County" d="M335,400l-1,8v29l-2,26 -27,1 -48,-2 -4,-1 2,-42v-22Z"/>
    <path data-fips-int="29085" data-name="Hickory County" d="M397,490l-1,29h-16l-1,19 -55,-2v-3l1,-16h8l2,-28Z"/>
    <path data-fips-int="29087" data-name="Holt County" d="M105,84h16v18l2,6 -2,12 6,3 2,28 -13,6 -15,-8 -21,-24 -10,-5 5,-12 -12,-9v-15l-11,-2Z"/>
    <path data-fips-int="29089" data-name="Howard County" d="M470,325h-30l-11,-2 -12,-15 -2,-8 15,-22 7,-21 13,3 39,14 -12,30 -8,15Z"/>
    <path data-fips-int="29091" data-name="Howell County" d="M602,676v47h-3l1,53h-66v-54h4v-48l31,2Z"/>
    <path data-fips-int="29093" data-name="Iron County" d="M681,549h65v16h16l-1,60v7l-26,1 -3,1v-20h-3v-41h-33l-23,3v-20l1,-7Z"/>
    <path data-fips-int="29095" data-name="Jackson County" d="M237,279l15,12 -2,42 -2,15h-18l-51,-4 1,-49 16,-6 4,6 21,-14 3,-7Z"/>
    <path data-fips-int="29097" data-name="Jasper County" d="M249,619l4,11 -2,44 -25,-1 -56,-2 1,-56Z"/>
    <path data-fips-int="29099" data-name="Jefferson County" d="M787,429l-4,8 2,21 16,17 -22,16 -22,8h-9l-2,-13 -21,-23 6,-48 15,-1 5,-6h27v8l10,1Z"/>
    <path data-fips-int="29101" data-name="Johnson County" d="M337,332v17l-2,32v19l-80,-3h-7v-49l2,-15 39,2v-5Z"/>
    <path data-fips-int="29103" data-name="Knox County" d="M555,82v8l1,37 -1,19h-54v-16l-1,-48Z"/>
    <path data-fips-int="29105" data-name="Laclede County" d="M491,528v26l24,12v9l-2,23h-62l-23,-2 -1,-42 1,-32h33l8,16 17,-4Z"/>
    <path data-fips-int="29107" data-name="Lafayette County" d="M337,329v3l-48,-2v5l-39,-2 2,-42 6,2 3,-9 8,-4 3,12 4,-8 14,-6 10,3 25,-7 4,5 10,-1 1,-13Z"/>
    <path data-fips-int="29109" data-name="Lawrence County" d="M315,632l2,3v31l-1,18v14l-65,-3v-21l2,-44Z"/>
    <path data-fips-int="29111" data-name="Lewis County" d="M619,91l-2,23 3,19 7,13h-72l1,-19 -1,-37Z"/>
    <path data-fips-int="29113" data-name="Lincoln County" d="M729,277l8,24 -4,10 7,18 -17,3 -3,8 -20,-2 -2,4h-22v-11h-12v-11h-10v-27h10l1,-16Z"/>
    <path data-fips-int="29115" data-name="Linn County" d="M429,192l-58,-1h-14l1,-48v-12l7,-1h66Z"/>
    <path data-fips-int="29117" data-name="Livingston County" d="M371,191l-1,16h-68v-64h56l-1,48Z"/>
    <path data-fips-int="29119" data-name="McDonald County" d="M249,728l-3,47 -79,-2 1,-50Z"/>
    <path data-fips-int="29121" data-name="Macon County" d="M501,130v16h8l-2,63 -56,-1 1,-16h-23l2,-62Z"/>
    <path data-fips-int="29123" data-name="Madison County" d="M819,564v8l1,9v43h-10l-49,1 1,-60Z"/>
    <path data-fips-int="29125" data-name="Maries County" d="M601,449l3,25v19h-38l-18,7h-24l1,-27h-3v-24Z"/>
    <path data-fips-int="29127" data-name="Marion County" d="M627,146l1,19 9,6v15l9,8h-57v4h-19l1,-52Z"/>
    <path data-fips-int="29129" data-name="Mercer County" d="M357,30l1,36v22h-55l-1,-58Z"/>
    <path data-fips-int="29131" data-name="Miller County" d="M479,425h13l1,16h30l-1,8v24h3l-1,27 -32,-1h-16l-10,-14 -2,-14 -13,-9v-23h8l2,-15Z"/>
    <path data-fips-int="29133" data-name="Mississippi County" d="M943,744l-29,-42 7,-12 14,-6v-5l8,-4 8,-2 -8,-8 9,-1 13,18 7,-3 3,8 -5,18 -6,7 10,8 -10,2 -3,6 7,9 -7,16 -8,3Z"/>
    <path data-fips-int="29135" data-name="Moniteau County" d="M493,367l-3,15 -11,43 -18,-1 -31,-31 1,-17 31,1 5,-14 12,-29 3,9 14,14Z"/>
    <path data-fips-int="29137" data-name="Monroe County" d="M570,198h19v59h-83l1,-48h16v-12Z"/>
    <path data-fips-int="29139" data-name="Montgomery County" d="M633,293h21v54h-21v24l-18,6 -14,-5 -1,1 2,-64v-17Z"/>
    <path data-fips-int="29141" data-name="Morgan County" d="M431,376l-1,17 31,31 -2,15h-8v23l-10,6 -37,-1 1,-10 -10,-2 2,-23v-27l2,-30Z"/>
    <path data-fips-int="29143" data-name="New Madrid County" d="M914,702l29,42 -7,7 -5,17 -6,9 -5,-1 4,-13 -3,-7h-11l-1,8 7,10 -3,10 5,9 -5,6 -7,-12 -13,1 -10,-3 -1,7h-30l-1,-44 38,-1v-42Z"/>
    <path data-fips-int="29145" data-name="Newton County" d="M251,674v21l-2,33 -81,-5 2,-52 56,2Z"/>
    <path data-fips-int="29147" data-name="Nodaway County" d="M183,29l-1,18h4l1,16 -2,47 -62,-2 -2,-6v-18h-16l2,-41h-4l1,-18 37,1Z"/>
    <path data-fips-int="29149" data-name="Oregon County" d="M665,706l-1,10h17l-1,60h-80l-1,-53h3v-18h62Z"/>
    <path data-fips-int="29151" data-name="Osage County" d="M600,373l1,-1v77h-79l1,-8v-7l10,-4 -6,-14 5,3 16,-5v-14l9,-7 10,-12 20,-9Z"/>
    <path data-fips-int="29153" data-name="Ozark County" d="M534,722v54h-96l2,-56Z"/>
    <path data-fips-int="29155" data-name="Pemiscot County" d="M913,799l-10,5 11,6v5h-22l-2,4 17,13v6l-12,9 -4,15 -37,1 -2,-71h30l1,-7 10,3 13,-1Z"/>
    <path data-fips-int="29157" data-name="Perry County" d="M910,575l-17,-6 -15,2h-18l-41,1v-8l5,-6 14,-25 10,-12 14,-6 6,7 9,3 11,10 -1,6 23,11v10l6,10Z"/>
    <path data-fips-int="29159" data-name="Pettis County" d="M400,333l-1,42 -2,30 -31,-1v5l-32,-1 1,-8v-19l2,-32v-20Z"/>
    <path data-fips-int="29161" data-name="Phelps County" d="M617,474h2v66h-40v36l-32,-1 1,-75 18,-7h38v-19Z"/>
    <path data-fips-int="29163" data-name="Pike County" d="M729,277h-64l-1,16h-31l-5,-33 -2,-24 35,-27h3l4,10 9,2 9,17 14,7 23,18Z"/>
    <path data-fips-int="29165" data-name="Platte County" d="M112,217l71,2 -1,14 -1,54 -8,-4 -13,1 -12,-9 2,-7 -12,-10 5,-12 -9,-2 -7,-11 -7,-5Z"/>
    <path data-fips-int="29167" data-name="Polk County" d="M324,533v3l55,2 2,13 -2,58 -63,-3 1,-27 1,-30 -3,-16Z"/>
    <path data-fips-int="29169" data-name="Pulaski County" d="M524,500h24l-1,75h-32v-9l-24,-12v-26l1,-29Z"/>
    <path data-fips-int="29171" data-name="Putnam County" d="M450,29l4,18 -3,12 4,3 -2,12h-23v-8h-72l-1,-36Z"/>
    <path data-fips-int="29173" data-name="Ralls County" d="M646,194l18,15h-3l-35,27 2,24h-39v-66Z"/>
    <path data-fips-int="29175" data-name="Randolph County" d="M451,208l56,1 -1,48 -1,18 -16,-1 -39,-14Z"/>
    <path data-fips-int="29177" data-name="Ray County" d="M301,223l-1,58 -10,-3 -14,6 -4,8 -3,-12 -8,4 -3,9 -6,-2 -15,-12 1,-44v-14Z"/>
    <path data-fips-int="29179" data-name="Reynolds County" d="M735,633v19l-6,5v17h-26v-8h-9l-2,-14 -6,2 -7,-7v-10h-6l-3,-28h-5v-17l-15,-1v-15h23l23,-3h33v41h3v20Z"/>
    <path data-fips-int="29181" data-name="Ripley County" d="M746,717h6l1,23h5l3,34 -81,2 1,-60 24,1Z"/>
    <path data-fips-int="29183" data-name="Saint Charles County" d="M818,351l-11,-2 -18,-13 -8,13 -9,-1 -13,25 -15,-1 -13,11 -24,20 -9,-2v-59l2,-4 20,2 3,-8 17,-3 6,12h10l13,-19 20,8h7l23,13Z"/>
    <path data-fips-int="29185" data-name="Saint Clair County" d="M332,463l3,2v24l-2,28h-8l-1,16h-9l-24,-1 -1,-11 -37,-3 2,-24 2,-32 48,2Z"/>
    <path data-fips-int="29186" data-name="Sainte Genevieve County" d="M848,521l-10,12 -14,25 -7,-4 -6,5 -38,-37 18,-21 -12,-10 22,-16 12,11 19,11 7,8 8,-1 -5,7Z"/>
    <path data-fips-int="29187" data-name="Saint Francois County" d="M779,491l12,10 -18,21 38,37 6,-5 7,4 -5,6 -57,1h-16v-79l2,13h9Z"/>
    <path data-fips-int="29189" data-name="Saint Louis County" d="M818,351l-7,6 -19,21 -2,14 9,10 -4,18 -8,9 1,-12 -10,-1v-8h-27l-5,6 -15,1v-32l13,-11 15,1 13,-25 9,1 8,-13 18,13Z"/>
    <path data-fips-int="29195" data-name="Saline County" d="M393,249l4,9 17,4 5,16h11l-15,22 2,8 -16,16 -1,9 -63,-4 3,-64 11,5v8l10,-5v-11l15,-4 4,-13Z"/>
    <path data-fips-int="29197" data-name="Schuyler County" d="M500,74h-47l2,-12 -4,-3 3,-12 -4,-18 50,-1Z"/>
    <path data-fips-int="29199" data-name="Scotland County" d="M555,82h-55v-54l56,-3Z"/>
    <path data-fips-int="29201" data-name="Scott County" d="M943,675l-8,4v5l-14,6 -7,12 -25,3v-14l-15,-26 3,-8 8,-11 12,-10 19,-4 9,20 9,9v10Z"/>
    <path data-fips-int="29203" data-name="Shannon County" d="M665,609h5l3,28h6v10l7,7 6,-2 2,14 -29,2v38l-1,-1h-62v-29l1,-68Z"/>
    <path data-fips-int="29205" data-name="Shelby County" d="M555,146h16l-1,52 -47,-1v12h-16l2,-63Z"/>
    <path data-fips-int="29207" data-name="Stoddard County" d="M862,657h15l-3,8 15,26v56l-38,1 -28,1 1,-14 -9,-13 -3,-13 -8,-14 23,-21h16l6,-4 -1,-13Z"/>
    <path data-fips-int="29209" data-name="Stone County" d="M361,718l-3,58h-39l2,-59h-6l1,-19v-14l40,2 -1,32Z"/>
    <path data-fips-int="29211" data-name="Sullivan County" d="M430,74l-1,56h-64l-7,1v-65h72Z"/>
    <path data-fips-int="29213" data-name="Taney County" d="M418,720h22l-2,56h-80l3,-58Z"/>
    <path data-fips-int="29215" data-name="Texas County" d="M547,575l32,1h8v32h16l-1,68h-33l-31,-2h-23l-2,-76 2,-23Z"/>
    <path data-fips-int="29217" data-name="Vernon County" d="M255,494l-2,24 -2,48 -33,-2 -45,-2v-30l2,-44 53,2h14Z"/>
    <path data-fips-int="29219" data-name="Warren County" d="M698,342v59l-11,-10 -25,-3 -14,-17 -8,2 -7,-2v-24h21v-27h10v11h12v11Z"/>
    <path data-fips-int="29221" data-name="Washington County" d="M725,463l21,23v63h-65v-79l-1,-6Z"/>
    <path data-fips-int="29223" data-name="Wayne County" d="M810,624v41h16l1,9 -23,21 -60,1 -7,-13v-9h-8v-17l6,-5v-19l26,-1v-7Z"/>
    <path data-fips-int="29225" data-name="Webster County" d="M428,596l23,2v39h1l-1,36 -31,-1v-3l-24,-1v-27l-2,-5 1,-27v-13Z"/>
    <path data-fips-int="29227" data-name="Worth County" d="M238,30l2,35 -22,-2h-31l-1,-16h-4l1,-18Z"/>
    <path data-fips-int="29229" data-name="Wright County" d="M513,598l2,76 -64,-1 1,-36h-1v-39Z"/>
    <path data-fips-int="29510" data-name="Saint Louis City" d="M799,402l-9,-10 2,-14 19,-21 -7,9 6,19Z"/>
  </g>
  <path class="mesh" d="M129,151l-2,-28 -6,-3 2,-12 62,2 -1,17v39l-40,-1M104,25l-1,18h4l-2,41 -53,-2M589,198v62h39l5,33 -31,-1v17l-5,-1h-63v-31l-29,-2 1,-18h83M246,775l3,-47 2,-33 65,3 -1,19h6l-2,59M173,562l45,2 33,2v10l-2,43 -78,-4M177,412l42,2 15,5h21l-2,42 4,1 -2,32 -13,-4h-14l-53,-2M916,632l-19,4 -12,10 -8,11h-29l1,13 -6,4h-16l-1,-9h-16v-41h10v-43l-1,-9 41,-1 1,28v56l1,2M534,308h-3l-3,22 1,19 -2,14 -8,7 -1,15 -20,-8 1,-8 -6,-2 3,-10 -14,-14 -3,-9 -9,-9 -1,-6 8,-15 12,-30 16,1M184,166l-1,14v39l-71,-2M761,774l-3,-34h-5l-1,-23h-6l-2,-21 60,-1 8,14 3,13 9,13 -1,14 -4,5 -6,19M239,173l1,-45h-2l1,-19 63,2v96l-1,16 -63,-2 1,-40v-8l22,2 41,1M602,309l-2,64 -13,-1 -20,9 -10,12 -9,5 -14,2 -14,-8 -2,-7M395,455l10,2 -1,10 37,1 10,-6 13,9 2,14 10,14h16l-1,29 -5,6 -17,4 -8,-16h-33l-32,-3 1,-29M860,571h18l15,-2 17,6M302,207h68v24l3,8 19,4 1,6 -13,-4 -4,13 -15,4v11l-10,5v-8l-11,-5 -1,13 -10,1 -4,-5 -25,7 1,-58M746,717h-41l-24,-1h-17l1,-10v-38l29,-2h9v8h34v9l7,13M179,344l51,4h18v49h7v22M251,566l2,-48 37,3 1,11 24,1 3,16 -1,30 -66,-3M370,207l1,-16 58,1h23l-1,16 -1,52 -13,-3 -7,21h-11l-5,-16 -17,-4 -4,-9M395,609l-1,27 2,5v27l24,1v3l-2,48 -57,-2h-6l1,-32 -40,-2 1,-18 79,2M619,91l-64,-1v-8l1,-57M181,287l1,-54 56,2 -1,44 -13,-5 -3,7 -21,14 -4,-6 -16,6M238,221v14M182,233l1,-14M183,180l56,1M557,393l-9,7v14l-16,5 -5,-3 6,14 -10,4v7h-30l-1,-16h-13l11,-43 3,-15M479,334l-12,29 -5,14 -31,-1 -32,-1 1,-42 1,-9 16,-16 12,15 11,2h30M317,579l-1,27 -1,26 -62,-2 -4,-11M428,522l-1,32 1,42h-33v13h-16l2,-58 -2,-13 1,-19h16M184,127l54,1M673,556v20h-23v15l15,1v17l-62,-1h-16v-32h-8v-36h40M420,672l31,1 64,1h23v48h-4l-94,-2h-22M823,749l28,-1 1,44 2,71M641,463l39,1 1,6v79h-7l-1,7h-23v-16h-31v-66h-2v-11h24v-67l-1,-23 8,-2 14,17 25,3 11,10 9,2 24,-20v32l-6,48 -45,1M617,474h-13l-3,-25v-77l14,5 18,-6 7,2M185,110l2,-47h31l22,2 -1,44M317,666v-31l-2,-3M316,606l63,3M302,111l1,-23h55v55h-56M302,30l1,58M240,65l-2,-35M255,397l80,3 -1,8M332,463l-27,1 -48,-2M379,538l-55,-2v-3l1,-16h8l2,-28M105,84h16v18l2,6M417,308l-2,-8 15,-22M450,260l39,14M538,674l31,2h33v47h-3l1,53M534,776v-54M681,549h65v16h16l-1,60v7l-26,1 -3,1v-20h-3v-41h-33l-23,3M237,279l15,12 -2,42 -2,15M253,630l-2,44 -25,-1 -56,-2M801,475l-22,16 -22,8h-9l-2,-13 -21,-23M731,415l15,-1 5,-6h27v8l10,1 -1,12M250,333l39,2v-5l48,2v17l-2,32v19M555,90l1,37 -1,19h-54v-16M500,82l1,48h-72l1,-56h70v8h55M491,528v26l24,12v9l-2,23h-62l-23,-2M340,265l-3,64v3M252,291l6,2 3,-9 8,-4 3,12 4,-8 14,-6 10,3M316,684v14M251,695v-21M627,146h-72M740,329l-17,3 -3,8 -20,-2 -2,4h-22v-11h-12v-11h-10v-27h10l1,-16h64M371,191h-14l1,-48M358,131l7,-1h64M431,130l-2,62M168,723l81,5M509,146l-2,63 -56,-1M762,565l57,-1v8M810,624l-49,1M604,474v19h-38l-18,7h-24l1,-27h-3v-24h79M646,194h-57v4h-19l1,-52M357,30l1,36v22M523,441l-1,8M524,500l-32,-1M451,462v-23h8l2,-15 18,1M943,744l-29,-42 7,-12 14,-6v-5l8,-4M461,424l-31,-31 1,-17M506,257l1,-48h16v-12l47,1M633,293h21M654,320v27h-21v24M601,372l-1,1M397,405v27l-2,23 3,13 -1,22 -62,-1v-24l-3,-2 2,-26v-29l32,1v-5l31,1 2,-30M913,799l-7,-12 -13,1 -10,-3 -1,7h-30M851,748l38,-1v-42l25,-3M183,29l-1,18h4l1,16M681,716l-1,60M602,705h62l1,1M438,776l2,-56M819,564l5,-6 14,-25 10,-12M337,329l63,4M579,576l-32,-1 1,-75M628,260l-2,-24 35,-27h3M315,533h9M547,575h-32M450,29l4,18 -3,12 4,3 -2,12M430,74v-8h-72M735,633v19l-6,5v17M694,666l-2,-14 -6,2 -7,-7v-10h-6l-3,-28h-5M818,351l-11,-2 -18,-13 -8,13 -9,-1 -13,25 -15,-1 -13,11M698,401v-59M253,518l2,-24M824,558l-7,-4 -6,5 -38,-37 18,-21 -12,-10M746,549v-63M811,357l-19,21 -2,14 9,10M500,28v46M889,705v-14l-15,-26 3,-8M602,676l1,-68M804,695l23,-21M361,718l-3,58M515,674l-2,-76M451,598v39h1l-1,36"/>
  <g class="cities">
    <circle r="7" cx="185" cy="298"/>
    <text x="185" y="298">Kansas City</text>
    <circle r="7" cx="807" cy="384"/>
    <text x="807" y="384">Saint Louis</text>
    <circle r="7" cx="363" cy="646"/>
    <text x="363" y="646">Springfield</text>
  </g>
</svg>