<?xml version="1.0" encoding="utf-8"?>
<!DOCTYPE svg PUBLIC "-//W3C//DTD SVG 1.1//EN" "http://www.w3.org/Graphics/SVG/1.1/DTD/svg11.dtd">
<svg version="1.1" xmlns="http://www.w3.org/2000/svg" width="350" height="311" viewBox="0 0 350 311">
  <g class="counties" transform="scale(0.1)">
    <path data-fips-int="29001" data-name="Adair County" d="M1750,261l1,27 0,56 1,10 0,103 1,1 -84,1 -42,-2 -97,0 -23,1 -5,0 1,-10 0,-83 1,-3 0,-99 84,0 78,-1 39,-1Z"/>
    <path data-fips-int="29003" data-name="Andrew County" d="M647,389l0,55 -3,80 0,61 -88,-4 -45,0 -7,-9 -10,0 -15,-14 7,-13 -3,-12 -9,-5 -20,2 1,-11 -7,-9 10,-10 -8,-23 -2,-44 -10,0 -10,-12 0,-22 6,-18 29,1 67,3Z"/>
    <path data-fips-int="29005" data-name="Atchison County" d="M365,92l-2,63 11,1 -1,56 -3,83 -111,-4 -10,-1 -62,-3 2,-15 -6,-7 -12,-2 -10,-8 -15,5 -8,-5 2,-7 10,-3 5,-11 -8,-15 -1,-14 -6,-12 1,-13 -5,-15 -12,-12 -3,-22 21,-8 4,-13 -9,-15 -12,3 -1,18 -28,1 -7,-6 2,-12 -4,-14 4,-6 57,2Z"/>
    <path data-fips-int="29007" data-name="Audrain County" d="M2063,903l0,9 77,0 61,3 16,112 -109,-2 -2,57 -28,-1 -85,0 -2,0 -86,0 -35,-1 2,-113 -52,-1 -52,-2 2,-65 100,4 57,0 32,1 60,0Z"/>
    <path data-fips-int="29009" data-name="Barry County" d="M1108,2446l-2,65 20,1 -1,35 -4,95 -2,75 -65,-2 -98,0 -91,-2 4,-80 1,-28 3,-50 -1,-1 3,-53 0,-13 2,-52 116,6 40,0Z"/>
    <path data-fips-int="29011" data-name="Barton County" d="M880,1984l-1,37 -3,54 -3,94 -95,-4 -65,-4 -41,-2 -29,-3 -43,-2 2,-62 1,-22 1,-101 132,7 25,0 77,4Z"/>
    <path data-fips-int="29013" data-name="Bates County" d="M832,1465 2,2 23,-4 14,1 8,-4 14,7 -3,44 -5,105 13,1 -6,113 -14,2 0,-5 -9,-4 -3,6 -11,-14 -30,8 -10,-4 -3,12 -9,1 -2,-12 -67,-5 -122,-6 2,-51 2,-61 2,-129 2,-25 29,1 77,3 42,3 9,8 3,-4 17,10 9,-7 20,10Z"/>
    <path data-fips-int="29015" data-name="Benton County" d="M1393,1421l-7,172 -3,47 12,1 -3,79 -30,0 -126,-5 -20,-2 -45,-1 4,-82 -9,0 -3,-7 4,-90 3,-53 -1,-14 1,-36 110,5 2,-18 47,0Z"/>
    <path data-fips-int="29017" data-name="Bollinger County" d="M3018,2301l-48,1 2,46 -19,1 0,9 -58,1 -1,-28 -57,0 -1,-146 37,1 -2,-35 0,-65 2,-47 -6,-36 51,-1 94,-3 1,65 3,78 0,42 1,4 1,53 -2,0Z"/>
    <path data-fips-int="29019" data-name="Boone County" d="M1768,964l52,2 52,1 -2,113 -10,0 -2,20 2,7 -4,22 -4,4 -5,45 -5,10 5,1 0,19 8,14 -6,9 5,3 0,11 -8,3 -2,23 -4,0 -10,18 0,7 -10,4 -3,20 -1,29 -20,-1 -18,-15 -28,-5 -5,-5 10,-14 -2,-8 -10,-10 -14,-4 -8,-12 3,-9 13,-15 -6,-14 -14,0 -12,-11 -5,-12 -13,-13 1,-19 -11,-11 -29,-31 -7,-6 6,-14 7,-20 18,-40 20,-51 19,-47Z"/>
    <path data-fips-int="29021" data-name="Buchanan County" d="M644,585l0,46 -2,91 -1,48 -195,-7 -52,-2 -6,-15 4,-12 6,-3 16,3 9,-12 -5,-16 6,-14 16,-20 16,-2 7,-7 -1,-26 7,-9 8,1 18,13 10,-1 10,-8 3,-9 -3,-11 -8,-1 -12,7 -14,-9 5,-10 17,0 7,-10 1,-9 45,0Z"/>
    <path data-fips-int="29023" data-name="Butler County" d="M2821,2437l0,8 8,12 -6,9 21,21 -3,15 10,7 3,2 -1,18 6,5 18,33 1,9 7,5 -4,10 8,10 -7,21 -15,17 -3,13 0,23 -12,3 -4,11 -1,18 -155,4 -28,0 0,-60 -10,0 0,-56 -20,0 0,-83 -18,0 0,-46 -9,0 0,-27 65,-2 74,-1 25,-1Z"/>
    <path data-fips-int="29025" data-name="Caldwell County" d="M1059,615l-2,111 -1,55 -34,-1 -86,0 -50,-3 -51,-1 2,-70 2,-70 0,-28 64,4 102,1Z"/>
    <path data-fips-int="29027" data-name="Callaway County" d="M1870,1080l35,1 86,0 2,0 85,0 28,1 0,49 -2,21 0,39 -2,118 -23,-3 -22,4 -12,11 -28,3 -21,8 -12,11 -3,9 -29,28 -18,5 -13,10 -25,8 -28,-3 -24,-9 -18,-16 -1,-14 -9,-12 1,-29 3,-20 10,-4 0,-7 10,-18 4,0 2,-23 8,-3 0,-11 -5,-3 6,-9 -8,-14 0,-19 -5,-1 5,-10 5,-45 4,-4 4,-22 -2,-7 2,-20Z"/>
    <path data-fips-int="29029" data-name="Camden County" d="M1578,1619l3,3 25,2 -1,27 18,1 0,16 4,5 0,17 5,9 9,0 0,19 9,0 0,9 9,1 0,9 10,0 -1,10 55,0 -1,104 -19,14 -3,8 -19,-3 -7,2 -5,10 -9,-1 -4,6 -13,-2 -6,-11 -12,-12 1,-7 -8,-7 -3,-19 -118,-2 -47,-2 -63,-3 5,-102 3,-79 -12,-1 3,-47 11,-8 21,19 3,13 11,6 -16,6 1,8 12,3 9,-11 6,-15 11,-1 4,10 -14,11 98,5 3,-11 12,-9Z"/>
    <path data-fips-int="29031" data-name="Cape Girardeau County" d="M3185,2015l2,18 13,27 10,15 18,19 10,26 1,9 -3,21 -10,8 -18,4 -13,16 -3,17 16,20 -17,3 -12,1 0,5 -20,0 0,4 -18,2 0,8 -15,1 1,8 -19,6 1,8 -10,1 1,18 -9,0 0,10 -19,0 -3,10 -51,1 -2,-60 2,0 -1,-53 -1,-4 0,-42 -3,-78 -1,-65 32,-4 9,8 22,-2 8,3 5,-8 19,10 4,-10 14,-3 -1,10 19,-11 5,18 6,3 13,-4 4,5Z"/>
    <path data-fips-int="29033" data-name="Carroll County" d="M1294,726l3,9 -2,7 5,11 -2,21 -7,13 8,15 -5,7 13,17 5,-7 8,0 1,13 -5,8 31,1 6,10 10,-1 10,7 0,16 4,2 1,0 -1,0 -10,4 -10,-3 -7,-14 -8,-6 -11,6 5,22 -18,26 -14,-7 -7,12 -7,6 -21,-1 -6,3 -4,13 8,15 -5,10 -20,11 -8,2 -10,-4 6,-15 -6,-8 -14,0 -10,-16 -7,0 -7,6 -2,13 4,19 -9,11 -11,1 -17,-3 -11,-14 -36,-4 -3,7 -10,3 -6,11 -11,4 -21,0 2,-130 1,-74 1,-55 98,0 2,-1 107,0Z"/>
    <path data-fips-int="29035" data-name="Carter County" d="M2553,2360l26,1 0,31 9,0 0,18 9,0 0,28 10,1 0,27 9,0 0,46 -58,1 -85,-1 -7,-2 -36,-2 -46,0 -56,0 0,-38 2,-80 0,-49 48,0 29,-3 -1,-3 26,-2 27,-1 0,28Z"/>
    <path data-fips-int="29037" data-name="Cass County" d="M871,1220l-2,43 -3,23 -3,47 7,0 -2,56 27,2 -3,46 1,30 -14,-7 -8,4 -14,-1 -23,4 -2,-2 -6,2 -20,-10 -9,7 -17,-10 -3,4 -9,-8 -42,-3 -77,-3 -29,-1 2,-84 4,-103 2,-50 47,5 63,4 59,3Z"/>
    <path data-fips-int="29039" data-name="Cedar County" d="M1107,1866l-3,55 11,1 -4,108 -26,-1 -89,-4 -20,0 -97,-4 1,-37 3,-72 -2,-3 5,-92 130,8 -2,36 46,3Z"/>
    <path data-fips-int="29041" data-name="Chariton County" d="M1501,673l83,2 -2,56 -2,0 -2,40 0,29 -2,42 -2,73 -41,-14 -24,63 -5,12 -8,-6 -16,9 -10,-3 1,-19 -20,-13 2,-14 -7,-11 -29,1 -8,-2 -16,-11 -2,-20 -6,-10 -7,-2 -1,0 -4,-2 0,-16 -10,-7 -10,1 -6,-10 -31,-1 5,-8 -1,-13 -8,0 -5,7 -13,-17 5,-7 -8,-15 7,-13 2,-21 -5,-11 2,-7 -3,-9 8,-10 -11,-14 -1,-9 10,-24 103,-1 10,1Z"/>
    <path data-fips-int="29043" data-name="Christian County" d="M1387,2342l37,0 46,3 0,9 -1,65 -3,77 0,25 -88,-3 -22,0 -92,-3 -19,0 3,-112 -91,-3 -48,-1 2,-66 73,3 87,2 58,3Z"/>
    <path data-fips-int="29045" data-name="Clark County" d="M2166,320l-51,0 -73,-2 -61,0 -36,-1 0,-29 2,-82 0,-112 105,-6 4,8 17,16 -3,9 5,6 27,6 4,3 -2,13 2,8 14,9 10,18 18,2 5,4 -4,13 6,2 -2,13 15,6 4,12 10,-3 5,6 6,-7 10,6 -12,9 -8,14 -15,41 2,10Z"/>
    <path data-fips-int="29047" data-name="Clay County" d="M640,817l63,2 82,1 48,2 -3,88 -1,70 -10,-6 -10,-13 -18,-1 -8,4 -14,28 -19,17 -9,-22 -9,1 2,18 -19,21 -11,7 -12,-19 -5,-2 -20,4 -8,10 -22,11 -5,-2 10,-18 -7,-11 3,-88Z"/>
    <path data-fips-int="29049" data-name="Clinton County" d="M839,636l-2,70 -2,70 -2,46 -48,-2 -82,-1 -63,-2 1,-47 1,-48 2,-91 44,0 46,2 53,1Z"/>
    <path data-fips-int="29051" data-name="Cole County" d="M1816,1349l9,12 1,14 18,16 24,9 28,3 25,-8 13,-10 18,-5 -16,15 -21,9 -3,7 1,14 9,15 -2,11 -15,11 -13,-1 -18,6 -12,-1 -9,-9 -11,5 5,17 15,11 7,9 -1,7 -8,9 -13,4 -11,0 -6,6 0,21 -16,0 -11,8 -17,-9 -63,-3 2,-53 -46,-2 11,-43 23,-92 16,-65 14,4 10,10 2,8 -10,14 5,5 28,5 18,15Z"/>
    <path data-fips-int="29053" data-name="Cooper County" d="M1648,1140l29,31 -20,49 -39,96 0,9 -78,-2 -33,0 -57,-2 -53,-5 4,-94 2,-56 1,-28 57,-58 1,8 12,25 16,7 14,13 29,6 11,-1 25,-7 13,6 22,-1 28,6Z"/>
    <path data-fips-int="29055" data-name="Crawford County" d="M2245,1623l4,4 88,-1 44,-1 3,129 0,88 0,4 0,76 -24,0 0,28 -3,0 -80,-1 1,-56 -93,0 -19,1 1,-4 0,-151 -1,-1 0,-77 -4,0 -1,-37Z"/>
    <path data-fips-int="29057" data-name="Dade County" d="M1111,2030l-4,93 -4,93 -63,-3 -101,-3 -53,-2 -15,-1 2,-38 3,-94 3,-54 97,4 20,0 89,4Z"/>
    <path data-fips-int="29059" data-name="Dallas County" d="M1387,1822l63,3 47,2 -2,46 -1,66 7,0 -3,75 -2,76 -82,-2 -28,0 -1,46 -56,-2 4,-99 1,-64 2,-37 -9,0 2,-47 3,-65Z"/>
    <path data-fips-int="29061" data-name="Daviess County" d="M1059,392l0,10 0,101 0,112 -54,-2 -102,-1 -64,-4 1,-49 3,-108 -7,0 2,-65 55,3 99,1Z"/>
    <path data-fips-int="29063" data-name="DeKalb County" d="M836,451l7,0 -3,108 -1,49 0,28 -52,-2 -53,-1 -46,-2 -44,0 0,-46 0,-61 3,-80 77,3 60,0Z"/>
    <path data-fips-int="29065" data-name="Dent County" d="M2166,1894l19,-1 93,0 -1,56 80,1 0,69 -37,0 -43,-1 0,56 52,1 1,55 -39,0 -94,0 -88,-2 -55,-1 0,-92 -1,-19 -27,0 1,-123 136,0Z"/>
    <path data-fips-int="29067" data-name="Douglas County" d="M1581,2357l103,3 91,1 27,1 84,2 -2,96 -1,69 -9,2 -149,-3 -185,-4 -74,-3 0,-25 3,-77 1,-65 28,2 43,0Z"/>
    <path data-fips-int="29069" data-name="Dunklin County" d="M2979,2620l-1,19 2,7 0,38 3,44 -7,45 6,1 2,45 2,82 3,84 1,37 -121,5 -96,3 13,-19 2,-11 6,-4 1,-13 8,-5 -2,-7 11,-8 2,-8 11,-3 17,-12 5,-8 -2,-10 7,-14 8,-2 8,-12 17,-6 6,-9 9,-2 0,-8 6,-15 15,-4 2,-12 7,-7 -9,-12 9,-34 -9,-17 -18,-3 -12,-5 -4,-7 6,-7 0,-10 -6,-16 -8,-2 2,-11 -34,0 1,-18 4,-11 12,-3 0,-23 3,-13 15,-17Z"/>
    <path data-fips-int="29071" data-name="Franklin County" d="M2444,1405l15,8 9,0 33,-18 13,-12 24,-9 9,-12 6,-16 6,-2 0,15 0,95 0,33 -4,31 -14,95 -1,10 -96,0 -25,2 -38,0 -44,1 -88,1 -4,-4 0,-78 -1,-52 -1,-22 -2,-161 11,3 15,-9 26,25 16,11 3,16 22,11 28,6 33,-7 15,10 6,14 9,8Z"/>
    <path data-fips-int="29073" data-name="Gasconade County" d="M2215,1304l26,6 2,161 1,22 1,52 0,78 -84,1 1,37 -49,0 -7,-1 0,-80 -1,-6 0,-265 9,1 18,13 20,3 10,-7 25,-10Z"/>
    <path data-fips-int="29075" data-name="Gentry County" d="M843,228l-1,6 -4,152 -2,65 -52,-4 -60,0 -77,-3 0,-55 8,-167 74,3 62,0Z"/>
    <path data-fips-int="29077" data-name="Greene County" d="M1329,2132l56,2 -2,92 7,1 -1,80 -2,35 -58,-1 -58,-3 -87,-2 -73,-3 0,-39 3,-77 -11,-1 4,-93 47,2 36,1 64,3Z"/>
    <path data-fips-int="29079" data-name="Grundy County" d="M1255,459l0,41 -120,1 -76,2 0,-101 0,-10 2,-83 12,0 94,0 87,1 -1,149Z"/>
    <path data-fips-int="29081" data-name="Harrison County" d="M1058,108l-1,67 5,0 -1,134 -2,83 -67,-2 -99,-1 -55,-3 4,-152 1,-6 0,-55 -8,0 1,-65 14,0Z"/>
    <path data-fips-int="29083" data-name="Henry County" d="M1171,1402l-1,28 -1,36 1,14 -3,53 -4,90 -22,-4 2,10 -85,-5 -27,0 -133,-7 -13,-1 5,-105 3,-44 -1,-30 3,-46 118,5 52,1Z"/>
    <path data-fips-int="29085" data-name="Hickory County" d="M1392,1720l-5,102 -55,-2 -3,65 -95,-3 -17,-2 -83,-3 1,-10 2,-55 29,1 5,-101 45,1 20,2 126,5Z"/>
    <path data-fips-int="29087" data-name="Holt County" d="M370,295l53,2 0,9 6,4 -5,9 -3,30 5,10 -2,9 10,13 -6,18 0,22 10,12 10,0 2,44 8,23 -10,10 7,9 -1,11 -9,-2 -6,5 -5,16 -25,3 -26,-12 -2,-15 -8,-3 -9,4 -11,-2 -3,-8 2,-16 -25,-8 -7,-12 -16,-10 -2,-13 -23,-19 -16,2 -13,-9 -2,-11 7,-10 -1,-12 9,-9 -2,-10 -16,-9 -4,-15 -10,-5 -10,-15 7,-23 -6,-12 -18,-2 -17,-11 62,3 10,1Z"/>
    <path data-fips-int="29089" data-name="Howard County" d="M1647,1120 -6,14 7,6 -16,2 -28,-6 -22,1 -13,-6 -25,7 -11,1 -29,-6 -14,-13 -16,-7 -12,-25 -1,-8 14,-15 -3,-7 -16,-6 0,-10 15,-7 5,-20 5,-8 14,-10 9,-21 5,-12 24,-63 41,14 137,47 -19,47 -20,51 -18,40Z"/>
    <path data-fips-int="29091" data-name="Howell County" d="M2106,2367l0,102 0,65 -8,0 0,30 0,86 2,0 1,68 -133,2 -97,0 1,-70 1,-76 1,-43 9,-2 1,-69 2,-96 63,0 51,3Z"/>
    <path data-fips-int="29093" data-name="Iron County" d="M2384,1922l78,0 48,2 45,-3 58,0 0,59 57,-1 0,26 -6,3 2,26 1,153 0,29 -35,1 -25,-1 -34,3 -9,1 1,-66 -12,-1 0,-139 -1,-7 -51,1 -59,0 -56,11 -29,0 0,-69 3,0 0,-28Z"/>
    <path data-fips-int="29095" data-name="Jackson County" d="M829,980l21,-3 -8,15 3,7 19,3 7,6 10,14 -7,144 -1,27 -2,27 -74,-2 -59,-3 -63,-4 -47,-5 1,-85 2,-38 1,-47 5,2 22,-11 8,-10 20,-4 5,2 12,19 11,-7 19,-21 -2,-18 9,-1 9,22 19,-17 14,-28 8,-4 18,1 10,13Z"/>
    <path data-fips-int="29097" data-name="Jasper County" d="M873,2169l-2,38 15,1 0,30 -5,124 -97,-5 -129,-3 -59,-3 1,-85 1,-27 2,-85 43,2 29,3 41,2 65,4Z"/>
    <path data-fips-int="29099" data-name="Jefferson County" d="M2757,1501l-13,34 -1,32 5,30 5,13 16,22 16,6 10,10 11,18 -5,13 -9,2 -7,11 -18,-4 -42,34 -84,27 -17,-2 -2,-24 4,-16 -15,-4 -10,-4 4,-5 -16,3 4,-6 -53,-68 1,-10 14,-95 4,-31 0,-33 2,-8 16,4 12,12 11,-3 -3,-13 10,-6 13,10 10,-19 94,-2 -2,13 -6,-2 4,16 11,5 21,-5 8,6 -6,10 0,17Z"/>
    <path data-fips-int="29101" data-name="Johnson County" d="M1181,1164l1,19 -4,91 -6,77 -1,51 -106,-5 -52,-1 -118,-5 -27,-2 2,-56 -7,0 3,-47 3,-23 2,-43 2,-27 1,-27 116,7 22,1 2,-18 21,1 111,5Z"/>
    <path data-fips-int="29103" data-name="Knox County" d="M1945,288l0,29 0,28 2,0 -2,168 -40,0 -62,-2 -62,1 -28,0 0,-54 -1,-1 0,-103 -1,-10 0,-56 63,-1 81,1Z"/>
    <path data-fips-int="29105" data-name="Laclede County" d="M1722,1851l-2,93 83,41 0,29 -1,83 -64,0 -68,-1 -21,-2 -67,-2 -86,-2 2,-76 3,-75 -7,0 1,-66 2,-46 118,2 3,19 8,7 -1,7 12,12 6,11 13,2 4,-6 9,1 5,-10 7,-2 19,3 3,-8Z"/>
    <path data-fips-int="29107" data-name="Lafayette County" d="M1181,1155l0,9 -35,-2 -111,-5 -21,-1 -2,18 -22,-1 -116,-7 7,-144 11,6 12,0 17,-13 -5,-14 2,-8 27,-10 7,5 2,10 -11,8 -4,12 13,5 7,-5 1,-9 7,-11 17,0 12,-13 13,-6 13,0 20,10 11,-4 21,0 11,-4 6,-11 10,-3 3,-7 36,4 11,14 17,3 11,-1 9,-11 -4,-19 2,-13 7,-6 -2,47 -4,61 -2,53Z"/>
    <path data-fips-int="29109" data-name="Lawrence County" d="M1103,2216l11,1 -3,77 0,39 -2,66 -1,47 -75,-4 -40,0 -116,-6 4,-74 5,-124 0,-30 53,2 101,3Z"/>
    <path data-fips-int="29111" data-name="Lewis County" d="M2166,320l-4,8 1,26 -3,9 2,16 -1,21 10,45 -2,11 14,32 16,26 -198,0 -56,-1 2,-168 -2,0 0,-28 36,1 61,0 73,2Z"/>
    <path data-fips-int="29113" data-name="Lincoln County" d="M2557,970l6,34 0,14 12,17 4,22 -10,10 -2,22 14,28 1,16 7,22 -16,0 6,10 -12,-2 -7,5 -3,-11 -11,2 -3,6 -10,-2 -13,7 -1,22 -28,-3 -4,-3 -14,2 -6,-3 -11,3 -12,-5 0,15 -64,0 -13,-2 1,-36 -40,0 0,-38 -37,0 0,-94 37,0 0,-56 106,0 25,-1Z"/>
    <path data-fips-int="29115" data-name="Linn County" d="M1501,673l-88,-4 -10,-1 -103,1 -48,0 1,-97 2,-34 0,-38 0,-41 78,-2 88,0 81,1 5,0 -5,159Z"/>
    <path data-fips-int="29117" data-name="Livingston County" d="M1300,669l-10,24 1,9 11,14 -8,10 -30,-1 -107,0 -2,1 -98,0 2,-111 0,-112 76,-2 120,-1 0,38 -2,34 -1,97Z"/>
    <path data-fips-int="29119" data-name="McDonald County" d="M872,2554l1,1 -3,50 -1,28 -4,80 -92,-2 -50,-1 -66,-1 -70,-2 3,-129 1,-42 147,9 48,4Z"/>
    <path data-fips-int="29121" data-name="Macon County" d="M1753,458l0,54 28,0 -1,51 -4,148 0,23 -1,0 -96,-1 -97,-2 2,-56 -83,-2 1,-56 5,-159 23,-1 97,0 42,2Z"/>
    <path data-fips-int="29123" data-name="Madison County" d="M2867,1976l0,27 6,36 -2,47 0,65 2,35 -37,-1 -19,0 -45,2 -105,0 -1,-153 -2,-26 6,-3 0,-26 88,-1Z"/>
    <path data-fips-int="29125" data-name="Maries County" d="M2105,1574l1,6 0,80 7,1 0,66 -35,-2 -97,2 -22,13 -2,-7 -8,4 -4,17 -28,-1 -29,0 -54,-3 1,-3 1,-89 -8,-1 1,-83 65,1 87,0 15,-3 44,1 8,2Z"/>
    <path data-fips-int="29127" data-name="Marion County" d="M2199,514l7,9 -1,12 -10,14 -2,8 6,23 29,20 7,11 -2,39 10,13 22,17 -97,0 -4,1 -101,0 0,18 -64,0 0,-78 2,-107Z"/>
    <path data-fips-int="29129" data-name="Mercer County" d="M1252,109l0,69 4,1 -1,55 -1,76 -87,-1 -94,0 -12,0 1,-134 -5,0 1,-67 87,0 42,0Z"/>
    <path data-fips-int="29131" data-name="Miller County" d="M1679,1487l46,2 -2,53 63,3 17,9 11,-8 16,0 -1,28 -1,83 8,1 -1,89 -1,3 -111,-3 -55,0 1,-10 -10,0 0,-9 -9,-1 0,-9 -9,0 0,-19 -9,0 -5,-9 0,-17 -4,-5 0,-16 -18,-1 1,-27 -25,-2 -3,-3 3,-81 28,0 2,-51 2,-2Z"/>
    <path data-fips-int="29133" data-name="Mississippi County" d="M3303,2609l-1,-9 -9,-4 -1,-9 -9,-5 -5,-18 -10,0 0,-9 -5,-8 -14,-10 -1,-9 -9,-4 0,-14 -9,1 -5,-19 -6,0 -1,-9 -9,0 0,-10 -9,1 -1,-14 9,-5 0,-19 18,-1 0,-18 18,-1 0,-9 9,0 0,-10 18,0 0,-19 14,-6 0,-4 17,-1 10,10 8,3 8,-8 2,-11 -10,-12 -16,-8 0,-12 24,2 2,-4 11,21 17,12 7,24 7,6 29,-9 11,13 0,11 -7,35 -10,27 -10,0 -10,9 1,19 6,7 19,3 7,10 -3,12 -24,-3 -14,13 -1,15 16,17 5,14 -19,28 -2,20 -3,8 -13,10 -10,1 -22,-19 -4,-12Z"/>
    <path data-fips-int="29135" data-name="Moniteau County" d="M1729,1287l-16,65 -23,92 -11,43 -66,-2 -45,-46 -62,-60 1,-56 33,0 78,2 0,-9 39,-96 20,-49 11,11 -1,19 13,13 5,12 12,11 14,0 6,14 -13,15 -3,9Z"/>
    <path data-fips-int="29137" data-name="Monroe County" d="M1999,699l64,0 0,38 2,0 0,46 -1,52 -1,68 -44,1 -60,0 -32,-1 -57,0 -100,-4 2,-28 1,-80 2,-57 1,0 55,1 1,-39 68,3Z"/>
    <path data-fips-int="29139" data-name="Montgomery County" d="M2217,1027l74,1 0,94 0,79 0,17 -75,-1 0,79 -1,8 -28,5 -25,10 -10,7 -20,-3 -18,-13 -9,-1 -3,0 2,-118 0,-39 2,-21 0,-49 2,-57Z"/>
    <path data-fips-int="29141" data-name="Morgan County" d="M1507,1323l-1,56 62,60 45,46 -2,2 -2,51 -28,0 -3,81 -20,0 -12,9 -3,11 -98,-5 14,-11 -4,-10 -11,1 -6,15 -9,11 -12,-3 -1,-8 16,-6 -11,-6 -3,-13 -21,-19 -11,8 7,-172 4,-105 53,5Z"/>
    <path data-fips-int="29143" data-name="New Madrid County" d="M3199,2460l1,14 9,-1 0,10 9,0 1,9 6,0 5,19 9,-1 0,14 9,4 1,9 14,10 5,8 0,9 10,0 5,18 9,5 1,9 9,4 1,9 -5,-1 -17,8 -7,31 -7,14 -5,27 -6,13 -14,19 -12,2 -10,-10 14,-38 -4,-17 -6,-7 -11,-4 -21,-1 -12,14 4,17 12,22 10,10 0,16 -11,14 1,7 16,24 2,7 -4,17 -13,7 -14,-22 -7,-6 -4,-13 -10,-5 -21,9 -13,-2 -10,-9 -20,-6 -4,2 -5,24 -70,2 -37,0 -6,-1 7,-45 -3,-44 0,-38 -2,-7 1,-19 55,0 77,-3 -2,-72 -4,-76 7,0 39,-2 13,-5Z"/>
    <path data-fips-int="29145" data-name="Newton County" d="M881,2362l-4,74 -2,52 0,13 -3,53 -86,-5 -48,-4 -147,-9 3,-130 2,-55 59,3 129,3Z"/>
    <path data-fips-int="29147" data-name="Nodaway County" d="M642,104l-2,63 12,0 -2,55 5,0 -8,167 -117,-4 -67,-3 -29,-1 -10,-13 2,-9 -5,-10 3,-30 5,-9 -6,-4 0,-9 -53,-2 3,-83 1,-56 -11,-1 2,-63 102,5 84,3Z"/>
    <path data-fips-int="29149" data-name="Oregon County" d="M2328,2470l0,38 56,0 -2,75 0,103 -1,31 -73,0 -46,1 -68,0 -93,0 -1,-68 -2,0 0,-86 0,-30 8,0 0,-65 3,1 215,0Z"/>
    <path data-fips-int="29151" data-name="Osage County" d="M2102,1309l3,0 0,265 -57,1 -8,-2 -44,-1 -15,3 -87,0 -65,-1 1,-28 0,-21 6,-6 11,0 13,-4 8,-9 1,-7 -7,-9 -15,-11 -5,-17 11,-5 9,9 12,1 18,-6 13,1 15,-11 2,-11 -9,-15 -1,-14 3,-7 21,-9 16,-15 29,-28 3,-9 12,-11 21,-8 28,-3 12,-11 22,-4Z"/>
    <path data-fips-int="29153" data-name="Ozark County" d="M1874,2531l-1,43 -1,76 -1,70 -31,1 -304,0 3,-165 1,-32 185,4Z"/>
    <path data-fips-int="29155" data-name="Pemiscot County" d="M3197,2800l-28,-3 -10,9 4,13 12,8 26,12 3,14 -37,6 -14,-5 -16,4 -16,-1 -2,12 15,14 31,21 11,15 1,15 -16,14 -22,8 -6,8 -4,35 -9,18 -130,5 -1,-37 -3,-84 -2,-82 -2,-45 37,0 70,-2 5,-24 4,-2 20,6 10,9 13,2 21,-9 10,5 4,13 7,6Z"/>
    <path data-fips-int="29157" data-name="Perry County" d="M3185,2015l-14,-1 -4,-5 -13,4 -6,-3 -5,-18 -19,11 1,-10 -14,3 -4,10 -19,-10 -5,8 -8,-3 -22,2 -9,-8 -32,4 -94,3 -51,1 0,-27 18,-20 29,-52 24,-45 30,-36 18,4 29,-24 24,16 4,16 25,4 11,13 24,14 6,9 -1,24 19,1 16,10 7,11 30,9 7,9 -1,31 20,23 0,9 -21,3Z"/>
    <path data-fips-int="29159" data-name="Pettis County" d="M1403,1166l-2,56 -4,94 -4,105 -64,-4 -47,0 -2,18 -110,-5 1,-28 1,-51 6,-77 4,-91 -1,-19 0,-9 33,2 95,4 22,2 50,1Z"/>
    <path data-fips-int="29161" data-name="Phelps County" d="M2162,1661l4,0 0,77 1,1 0,151 -1,4 -3,-1 -136,0 -1,123 -31,0 -49,-1 -32,0 0,-64 1,-4 2,-78 0,-116 28,1 4,-17 8,-4 2,7 22,-13 97,-2 35,2 0,-66Z"/>
    <path data-fips-int="29163" data-name="Pike County" d="M2557,970l-98,1 -25,1 -106,0 0,56 -37,0 -74,-1 -16,-112 -11,-85 41,-31 6,-3 78,-61 13,0 6,22 6,9 26,6 19,29 1,12 18,21 28,18 16,6 2,7 14,7 8,10 16,7 21,21 14,5 10,9 6,17 15,12Z"/>
    <path data-fips-int="29165" data-name="Platte County" d="M394,761l52,2 195,7 -1,47 -2,102 -3,88 -16,3 -11,-1 -1,-13 -13,-6 -14,9 -15,-1 -10,-8 -9,-16 -18,-1 -7,-8 5,-12 -4,-13 -11,-10 -14,-6 -10,-22 -1,-24 13,-7 0,-15 -8,-3 -9,6 -9,-2 -6,-15 -12,-8 -3,-12 -28,-16 -7,-25 -11,-6Z"/>
    <path data-fips-int="29167" data-name="Polk County" d="M1135,1867l-1,10 83,3 17,2 95,3 -2,47 9,0 -2,37 -1,64 -4,99 -75,-3 -64,-3 -36,-1 -47,-2 4,-93 4,-108 -11,-1 3,-55Z"/>
    <path data-fips-int="29169" data-name="Pulaski County" d="M1834,1750l54,3 29,0 0,116 -2,78 -1,4 0,64 -30,-1 -81,0 0,-29 -83,-41 2,-93 1,-104Z"/>
    <path data-fips-int="29171" data-name="Putnam County" d="M1573,105l15,18 -9,17 1,4 14,5 -6,4 -1,16 -5,1 -6,16 3,9 0,12 15,11 -4,6 6,3 -8,9 0,27 -84,0 0,-29 -62,1 -23,-1 -109,0 -55,0 1,-55 -4,-1 0,-69 75,0 147,-4 92,0Z"/>
    <path data-fips-int="29173" data-name="Ralls County" d="M2265,680l16,13 22,28 21,9 4,5 -13,0 -78,61 -6,3 -41,31 11,85 -61,-3 -77,0 0,-9 1,-68 1,-52 0,-46 -2,0 0,-38 0,-18 101,0 4,-1Z"/>
    <path data-fips-int="29175" data-name="Randolph County" d="M1582,731l97,2 96,1 -2,57 -1,80 -2,28 -2,65 -57,-2 -137,-47 2,-73 2,-42 0,-29 2,-40Z"/>
    <path data-fips-int="29177" data-name="Ray County" d="M1056,781l-1,74 -2,130 -11,4 -20,-10 -13,0 -13,6 -12,13 -17,0 -7,11 -1,9 -7,5 -13,-5 4,-12 11,-8 -2,-10 -7,-5 -27,10 -2,8 5,14 -17,13 -12,0 -11,-6 -10,-14 -7,-6 -19,-3 -3,-7 8,-15 -21,3 1,-70 3,-88 2,-46 51,1 50,3 86,0Z"/>
    <path data-fips-int="29179" data-name="Reynolds County" d="M2573,2219l0,67 -9,0 0,18 -11,1 0,55 -94,0 0,-28 -27,1 -1,-30 -9,2 0,-19 -18,5 0,-9 -10,2 0,-19 -19,3 1,-35 -18,0 0,-38 -10,1 0,-66 -18,0 -1,-55 -52,-1 0,-56 43,1 37,0 29,0 56,-11 59,0 51,-1 1,7 0,139 12,1 -1,66Z"/>
    <path data-fips-int="29181" data-name="Ripley County" d="M2616,2512l18,0 0,83 20,0 0,56 10,0 0,60 -62,1 -129,2 -92,3 1,-31 0,-103 2,-75 46,0 36,2 7,2 85,1Z"/>
    <path data-fips-int="29183" data-name="Saint Charles County" d="M2863,1231l-4,-10 -14,-5 -12,8 -10,-2 -20,-14 -13,-6 -14,-20 -18,-3 -6,7 -2,18 -9,15 -12,5 -16,-5 -11,1 -16,24 -8,25 -22,17 1,22 -4,5 -25,4 -21,-8 -21,8 -2,9 -11,7 -2,6 -12,5 -6,2 -6,16 -9,12 -24,9 -13,12 -33,18 -9,0 -15,-8 -1,-63 0,-129 1,-15 0,-15 12,5 11,-3 6,3 14,-2 4,3 28,3 1,-22 13,-7 10,2 3,-6 11,-2 3,11 7,-5 12,2 -6,-10 16,0 12,15 13,22 10,6 24,-5 12,-14 6,-15 13,-14 6,-14 9,-5 32,6 39,20 28,2 15,8 9,8 46,26 4,10Z"/>
    <path data-fips-int="29185" data-name="Saint Clair County" d="M1163,1623l3,7 9,0 -4,82 -5,101 -29,-1 -2,55 -28,-1 -47,-2 -46,-3 2,-36 -130,-8 2,-21 4,-66 6,-113 133,7 27,0 85,5 -2,-10Z"/>
    <path data-fips-int="29186" data-name="Sainte Genevieve County" d="M2968,1823l-30,36 -24,45 -29,52 -23,-17 -23,19 -20,-18 -113,-113 66,-67 -47,-38 42,-34 18,4 7,-11 9,-2 5,-13 4,10 30,23 21,5 9,5 10,19 38,19 15,19 11,3 22,-4 -2,14 -15,11 0,6 11,22Z"/>
    <path data-fips-int="29187" data-name="Saint Francois County" d="M2725,1722l47,38 -66,67 113,113 20,18 23,-19 23,17 -18,20 -109,2 -88,1 -57,1 0,-59 0,-89 0,-7 -2,-122 15,4 -4,16 2,24 17,2Z"/>
    <path data-fips-int="29189" data-name="Saint Louis County" d="M2863,1231l-3,5 -21,17 -9,-2 -2,12 -18,18 -13,6 -25,43 -3,23 -4,15 12,21 12,8 8,11 -10,34 -3,26 -27,33 -3,-12 0,-17 6,-10 -8,-6 -21,5 -11,-5 -4,-16 6,2 2,-13 -94,2 -10,19 -13,-10 -10,6 3,13 -11,3 -12,-12 -16,-4 -2,8 0,-95 0,-15 12,-5 2,-6 11,-7 2,-9 21,-8 21,8 25,-4 4,-5 -1,-22 22,-17 8,-25 16,-24 11,-1 16,5 12,-5 9,-15 2,-18 6,-7 18,3 14,20 13,6 20,14 10,2 12,-8 14,5Z"/>
    <path data-fips-int="29195" data-name="Saline County" d="M1377,875l1,0 7,2 6,10 2,20 16,11 8,2 29,-1 7,11 -2,14 20,13 -1,19 10,3 16,-9 8,6 -9,21 -14,10 -5,8 -5,20 -15,7 0,10 16,6 3,7 -14,15 -57,58 -1,28 -22,-2 -50,-1 -22,-2 -95,-4 -33,-2 4,-63 2,-53 4,-61 2,-47 7,0 10,16 14,0 6,8 -6,15 10,4 8,-2 20,-11 5,-10 -8,-15 4,-13 6,-3 21,1 7,-6 7,-12 14,7 18,-26 -5,-22 11,-6 8,6 7,14 10,3Z"/>
    <path data-fips-int="29197" data-name="Schuyler County" d="M1750,261l-45,0 -39,1 -78,1 0,-27 8,-9 -6,-3 4,-6 -15,-11 0,-12 -3,-9 6,-16 5,-1 1,-16 6,-4 -14,-5 -1,-4 9,-17 -15,-18 48,-1 70,-3 59,-1 0,137Z"/>
    <path data-fips-int="29199" data-name="Scotland County" d="M1945,288l-50,0 -81,-1 -63,1 -1,-27 0,-24 0,-137 82,-2 43,-1 72,-3 0,112Z"/>
    <path data-fips-int="29201" data-name="Scott County" d="M3302,2367l-17,1 0,4 -14,6 0,19 -18,0 0,10 -9,0 0,9 -18,1 0,18 -18,1 0,19 -9,5 -35,2 -13,5 -39,2 -3,-9 3,-37 -11,-10 -7,-27 -13,-24 -7,-4 -15,-30 10,-28 3,-10 19,0 0,-10 9,0 -1,-18 10,-1 -1,-8 19,-6 -1,-8 15,-1 0,-8 18,-2 0,-4 20,0 0,-5 12,-1 17,-3 14,0 -3,22 7,19 13,26 9,13 16,13 4,12 -4,18 4,11Z"/>
    <path data-fips-int="29203" data-name="Shannon County" d="M2330,2130l18,0 0,66 10,-1 0,38 18,0 -1,35 19,-3 0,19 10,-2 0,9 18,-5 0,19 9,-2 1,30 -26,2 1,3 -29,3 -48,0 0,49 -2,80 -4,0 -215,0 -3,-1 0,-102 1,-114 2,-18 0,-107 88,2 94,0Z"/>
    <path data-fips-int="29205" data-name="Shelby County" d="M1945,513l56,1 -2,107 0,78 -99,0 -68,-3 -1,39 -55,-1 0,-23 4,-148 1,-51 62,-1 62,2Z"/>
    <path data-fips-int="29207" data-name="Stoddard County" d="M3018,2301l51,-1 -10,28 15,30 7,4 13,24 7,27 11,10 -3,37 3,9 -7,0 4,76 2,72 -77,3 -55,0 -97,2 7,-21 -8,-10 4,-10 -7,-5 -1,-9 -18,-33 -6,-5 1,-18 -3,-2 -10,-7 3,-15 -21,-21 6,-9 -8,-12 0,-8 8,0 0,-9 10,-1 0,-18 8,0 0,-9 10,0 0,-10 9,0 0,-9 9,0 0,-22 20,0 58,-1 0,-9 19,-1 -2,-46Z"/>
    <path data-fips-int="29209" data-name="Stone County" d="M1264,2515l-2,50 -2,13 -2,95 -2,46 -30,-1 -46,0 -61,-1 2,-75 4,-95 1,-35 -20,-1 2,-65 1,-47 48,1 91,3 -3,112Z"/>
    <path data-fips-int="29211" data-name="Sullivan County" d="M1504,263l0,99 -1,3 0,83 -1,10 -81,-1 -88,0 -78,2 -2,0 1,-149 1,-76 55,0 109,0 23,1 62,-1Z"/>
    <path data-fips-int="29213" data-name="Taney County" d="M1466,2521l74,3 -1,32 -3,165 -56,-1 -95,0 -66,-1 -63,0 2,-46 2,-95 2,-13 2,-50 92,3 22,0Z"/>
    <path data-fips-int="29215" data-name="Texas County" d="M1914,2015l32,0 49,1 31,0 27,0 1,19 0,92 55,1 0,107 -2,18 -1,114 -106,0 -51,-3 -63,0 -84,-2 2,-38 0,-87 -2,0 0,-140 1,-83 81,0Z"/>
    <path data-fips-int="29217" data-name="Vernon County" d="M892,1730l-4,66 -2,21 -5,92 2,3 -3,72 -42,-4 -77,-4 -25,0 -132,-7 1,-35 3,-99 1,0 3,-126 122,6 67,5 2,12 9,-1 3,-12 10,4 30,-8 11,14 3,-6 9,4 0,5Z"/>
    <path data-fips-int="29219" data-name="Warren County" d="M2444,1198l-1,15 0,129 1,63 -19,-7 -9,-8 -6,-14 -15,-10 -33,7 -28,-6 -22,-11 -3,-16 -16,-11 -26,-25 -15,9 -11,-3 -26,-6 1,-8 0,-79 75,1 0,-17 0,-79 37,0 0,38 40,0 -1,36 13,2Z"/>
    <path data-fips-int="29221" data-name="Washington County" d="M2540,1623l53,68 -4,6 16,-3 -4,5 10,4 2,122 0,7 0,89 -58,0 -45,3 -48,-2 -78,0 0,-76 0,-4 0,-88 -3,-129 38,0 25,-2Z"/>
    <path data-fips-int="29223" data-name="Wayne County" d="M2836,2185l1,146 57,0 1,28 -20,0 0,22 -9,0 0,9 -9,0 0,10 -10,0 0,9 -8,0 0,18 -10,1 0,9 -8,0 -50,-2 -25,1 -74,1 -65,2 -10,-1 0,-28 -9,0 0,-18 -9,0 0,-31 -26,-1 0,-55 11,-1 0,-18 9,0 0,-67 34,-3 25,1 35,-1 0,-29 105,0 45,-2Z"/>
    <path data-fips-int="29225" data-name="Webster County" d="M1496,2090l86,2 -2,28 -2,111 7,1 -3,99 -1,26 -40,-1 -43,0 -28,-2 0,-9 -46,-3 -37,0 2,-35 1,-80 -7,-1 2,-92 1,-46 28,0Z"/>
    <path data-fips-int="29227" data-name="Worth County" d="M836,108l-1,65 8,0 0,55 -52,-3 -62,0 -74,-3 -5,0 2,-55 -12,0 2,-63 84,3Z"/>
    <path data-fips-int="29229" data-name="Wright County" d="M1802,2097l0,140 2,0 0,87 -2,38 -27,-1 -91,-1 -103,-3 1,-26 3,-99 -7,-1 2,-111 2,-28 67,2 21,2 68,1Z"/>
    <path data-fips-int="29510" data-name="Saint Louis City" d="M2797,1408l-8,-11 -12,-8 -12,-21 4,-15 3,-23 25,-43 13,-6 18,-18 2,-12 9,2 -10,20 -8,4 -4,17 14,21 4,20 -3,23 -6,11 -15,13Z"/>
  </g>
  <g class="cities">
    <circle r="1" cx="64.6" cy="104.6"/>
    <text x="64.6" y="104.6">Kansas City</text>
    <circle r="1" cx="282.6" cy="134.6"/>
    <text x="282.6" y="134.6">Saint Louis</text>
    <circle r="1" cx="127.0" cy="226.1"/>
    <text x="127.0" y="226.1">Springfield</text>
  </g>
</svg>