<?xml version="1.0" encoding="utf-8"?>
<!DOCTYPE svg PUBLIC "-//W3C//DTD SVG 1.1//EN" "http://www.w3.org/Graphics/SVG/1.1/DTD/svg11.dtd">
<svg version="1.1" xmlns="http://www.w3.org/2000/svg" width="350" height="311" viewBox="0 0 350 311">
  <defs>
    <pattern id="pattern-no-results" width="50" height="50" patternUnits="userSpaceOnUse">
      <rect width="50" height="50" fill="#ddd"/>
      <path d="M-5,5L5,-5M-5,55L55,-5M45,55L55,45" stroke-width="10" stroke="#666666"/>
    </pattern>
  </defs>
  <g class="counties" transform="scale(0.1)">
    <path data-fips-int="29001" data-name="Adair County" d="M1750,260l2,29 0,169 -245,0 -5,0 2,-196 82,0Z"/>
    <path data-fips-int="29003" data-name="Andrew County" d="M648,389l0,56 -5,140 -132,-4 -56,-52 -2,-46 -25,-60 7,-41Z"/>
    <path data-fips-int="29005" data-name="Atchison County" d="M365,92l10,62 -5,140 -183,-7 -32,-46 -31,-87 0,-38 -37,-5 3,-32Z"/>
    <path data-fips-int="29007" data-name="Audrain County" d="M2063,903l0,10 138,2 17,112 -110,-2 -2,56 -236,-1 2,-112 -103,-5 0,-65 161,6Z"/>
    <path data-fips-int="29009" data-name="Barry County" d="M1108,2445l-1,65 20,2 -9,205 -253,-4 7,-160 3,-116Z"/>
    <path data-fips-int="29011" data-name="Barton County" d="M880,1983l-1,37 -7,149 -271,-14 3,-186Z"/>
    <path data-fips-int="29013" data-name="Bates County" d="M792,1461l12,-2 3,0 -3,0 3,0 5,0 9,6 3,2 8,-2 7,2 1,0 -1,0 1,0 2,-2 2,0 6,0 42,3 -7,148 14,1 -7,112 0,2 -91,-12 -188,-10 6,-267 150,7Z"/>
    <path data-fips-int="29015" data-name="Benton County" d="M1393,1421l-7,173 10,47 -5,78 -220,-7 -8,-89 7,-193 111,6 0,-20Z"/>
    <path data-fips-int="29017" data-name="Bollinger County" d="M3018,2301l-48,1 1,46 -76,10 0,-28 -59,2 0,-146 37,0 -5,-182 143,-6Z"/>
    <path data-fips-int="29019" data-name="Boone County" d="M1769,963l103,5 -2,112 -17,53 -5,65 2,49 -10,25 -21,31 -4,47 -63,-21 -23,-42 8,-36 -60,-80 -30,-31 0,-1 -1,-19 66,-158Z"/>
    <path data-fips-int="29021" data-name="Buchanan County" d="M643,585l0,46 -2,137 -246,-9 43,-88 38,-43 30,12 5,-59Z"/>
    <path data-fips-int="29023" data-name="Butler County" d="M2822,2437l0,8 3,20 -2,0 8,10 47,93 8,30 0,1 0,-1 0,1 -5,6 -1,16 -20,55 -2,0 -5,10 -5,21 -2,0 -182,3 -10,-114 -19,0 -1,-84 -19,0 -8,-74Z"/>
    <path data-fips-int="29025" data-name="Caldwell County" d="M1058,615l-1,111 0,56 -222,-6 4,-141 0,-26Z"/>
    <path data-fips-int="29027" data-name="Callaway County" d="M1870,1080l236,1 -5,228 -40,-3 -76,35 -33,39 -57,23 -50,-12 -30,-41 4,-47 21,-31 10,-25 -2,-49 5,-65Z"/>
    <path data-fips-int="29029" data-name="Camden County" d="M1577,1619l29,6 20,65 49,57 49,0 -4,104 -64,36 -40,-57 -118,-3 -110,-5 3,-103 5,-78 -10,-47 15,-9 50,50 91,4Z"/>
    <path data-fips-int="29031" data-name="Cape Girardeau County" d="M3184,2014l53,105 -1,31 -40,25 11,40 -66,15 -72,69 -51,2 -7,-303 132,2Z"/>
    <path data-fips-int="29033" data-name="Carroll County" d="M1293,726l2,0 6,96 24,22 8,-3 43,34 2,0 -2,0 -32,-18 -28,53 -50,10 0,37 -41,14 -32,-40 -12,48 -76,-20 -52,25 4,-202 0,-56Z"/>
    <path data-fips-int="29035" data-name="Carter County" d="M2554,2360l53,78 8,74 -231,-5 -56,0 1,-36 0,-130 102,-8 28,27Z"/>
    <path data-fips-int="29037" data-name="Cass County" d="M870,1220l-3,170 28,1 -3,77 -42,-3 -6,0 -2,0 -2,2 -1,0 1,0 -1,0 -7,-2 -8,2 -3,-2 -9,-6 -5,0 -3,0 3,0 -3,0 -12,2 -23,-12 -150,-7 9,-235Z"/>
    <path data-fips-int="29039" data-name="Cedar County" d="M1107,1865l8,56 -5,110 -231,-11 1,-37 7,-166 130,7 1,38Z"/>
    <path data-fips-int="29041" data-name="Chariton County" d="M1499,672l85,3 -2,55 -8,186 -43,-15 -27,73 0,3 0,-3 -31,4 -27,-59 -52,-10 -16,-34 -2,0 -43,-34 -8,3 -24,-22 -6,-96 -2,0 8,-55 -1,-2Z"/>
    <path data-fips-int="29043" data-name="Christian County" d="M1388,2342l83,12 -5,167 -201,-6 -20,0 3,-112 -140,-3 2,-67Z"/>
    <path data-fips-int="29045" data-name="Clark County" d="M2166,321l-221,-4 0,-28 3,-195 105,-5 22,39 31,7 19,43 64,71Z"/>
    <path data-fips-int="29047" data-name="Clay County" d="M641,817l191,5 -3,159 -45,-19 -20,37 -63,32 -14,-18 -54,23 3,-30Z"/>
    <path data-fips-int="29049" data-name="Clinton County" d="M839,635l-4,141 -3,46 -191,-5 0,-49 2,-137Z"/>
    <path data-fips-int="29051" data-name="Cole County" d="M1815,1350l30,41 50,12 57,-23 -39,26 9,43 -77,27 23,31 -30,11 -8,28 -110,-4 5,-53 -46,-2 50,-200 23,42Z"/>
    <path data-fips-int="29053" data-name="Cooper County" d="M1647,1139l0,1 30,31 -60,154 -110,-2 -111,-7 7,-151 1,-28 55,-57 40,52Z"/>
    <path data-fips-int="29055" data-name="Crawford County" d="M2244,1623l137,2 3,296 -27,28 -79,0 0,-56 -112,0 0,-231 -5,0 0,-39Z"/>
    <path data-fips-int="29057" data-name="Dade County" d="M1110,2031l-3,93 -4,91 -216,-7 -15,-39 7,-149Z"/>
    <path data-fips-int="29059" data-name="Dallas County" d="M1388,1822l110,5 0,263 -112,-2 -2,46 -54,-2 4,-200 -4,-46 1,-65Z"/>
    <path data-fips-int="29061" data-name="Daviess County" d="M1060,392l-2,111 0,112 -219,-6 5,-160 -9,0 4,-64Z"/>
    <path data-fips-int="29063" data-name="DeKalb County" d="M835,449l9,0 -5,160 0,26 -196,-4 0,-46 5,-140Z"/>
    <path data-fips-int="29065" data-name="Dent County" d="M2166,1893l112,0 0,56 79,0 0,71 -79,-3 0,56 51,2 0,56 -219,-3 -55,0 -2,-112 -27,0 0,-123Z"/>
    <path data-fips-int="29067" data-name="Douglas County" d="M1581,2357l221,4 83,3 -2,160 -10,7 -332,-7 -75,-3 5,-167Z"/>
    <path data-fips-int="29069" data-name="Dunklin County" d="M2980,2620l1,153 9,250 -217,7 77,-122 50,-30 31,-49 -1,-51 -39,-18 -11,-53 -32,0 -2,0 2,0 5,-21 5,-10 2,0 20,-55Z"/>
    <path data-fips-int="29071" data-name="Franklin County" d="M2444,1403l35,6 60,-35 20,-31 0,107 0,5 -19,168 -159,2 -137,-2 -3,-313 25,-7 52,59 88,9Z"/>
    <path data-fips-int="29073" data-name="Gasconade County" d="M2216,1303l25,7 3,313 -83,0 0,39 -48,-2 -8,-86 0,-265 48,16Z"/>
    <path data-fips-int="29075" data-name="Gentry County" d="M842,228l-3,157 -4,64 -187,-4 0,-56 8,-167Z"/>
    <path data-fips-int="29077" data-name="Greene County" d="M1330,2132l54,2 4,208 -278,-9 3,-116 -10,-2 4,-91Z"/>
    <path data-fips-int="29079" data-name="Grundy County" d="M1255,458l0,43 -197,2 2,-111 0,-83 195,0Z"/>
    <path data-fips-int="29081" data-name="Harrison County" d="M1058,108l2,201 0,83 -221,-7 3,-157 -7,-120Z"/>
    <path data-fips-int="29083" data-name="Henry County" d="M1171,1402l-1,28 -7,193 -20,6 -244,-12 -14,-1 7,-148 3,-77Z"/>
    <path data-fips-int="29085" data-name="Hickory County" d="M1391,1719l-3,103 -57,-1 -1,65 -197,-9 2,-10 2,-55 30,0 4,-100Z"/>
    <path data-fips-int="29087" data-name="Holt County" d="M370,294l53,3 12,85 -7,41 25,60 2,46 -22,21 -85,-30 -66,-82 -34,-20 15,-35 -45,-49 10,-23 -41,-24Z"/>
    <path data-fips-int="29089" data-name="Howard County" d="M1646,1120l1,19 0,1 0,-1 -148,-7 -40,-52 -3,-27 48,-76 0,-3 27,-73 43,15 138,46Z"/>
    <path data-fips-int="29091" data-name="Howell County" d="M2106,2367l0,102 -8,65 3,185 -231,1 3,-189 10,-7 2,-160Z"/>
    <path data-fips-int="29093" data-name="Iron County" d="M2384,1921l230,0 0,59 56,-1 -3,208 0,30 -93,1 -20,-65 -2,-146 -115,1 -80,12 0,-71Z"/>
    <path data-fips-int="29095" data-name="Jackson County" d="M829,981l53,41 -8,145 -4,53 -242,-13 5,-171 54,-23 14,18 63,-32 20,-37Z"/>
    <path data-fips-int="29097" data-name="Jasper County" d="M872,2169l15,39 -7,155 -284,-12 5,-196Z"/>
    <path data-fips-int="29099" data-name="Jefferson County" d="M2755,1502l-12,33 7,69 57,62 -22,25 -62,31 -104,25 -7,-44 -12,-8 -60,-72 19,-168 0,-5 10,0 16,9 0,6 45,-34 92,-1 0,29 36,-1Z"/>
    <path data-fips-int="29101" data-name="Johnson County" d="M1181,1164l-10,238 -276,-11 -28,-1 3,-170 4,-53 138,7 1,-19Z"/>
    <path data-fips-int="29103" data-name="Knox County" d="M1945,289l0,28 0,196 -165,0 -28,-2 0,-53 0,-169Z"/>
    <path data-fips-int="29105" data-name="Laclede County" d="M1720,1851l0,93 84,41 0,28 -2,84 -221,-4 -83,-3 0,-263 118,3 40,57Z"/>
    <path data-fips-int="29107" data-name="Lafayette County" d="M1181,1155l0,9 -168,-9 -1,19 -138,-7 8,-145 67,-38 -10,34 83,-40 31,6 52,-25 76,20 12,-48Z"/>
    <path data-fips-int="29109" data-name="Lawrence County" d="M1103,2215l10,2 -3,116 -2,67 0,45 -233,-8 5,-74 7,-155Z"/>
    <path data-fips-int="29111" data-name="Lewis County" d="M2166,321l-6,64 13,81 26,48 -199,0 -55,-1 0,-196Z"/>
    <path data-fips-int="29113" data-name="Lincoln County" d="M2557,971l22,87 -12,31 20,66 -23,15 -45,22 -75,-9 0,15 -77,0 0,-38 -39,1 0,-38 -37,0 0,-95 37,0 1,-56Z"/>
    <path data-fips-int="29115" data-name="Linn County" d="M1499,672l-199,-3 -49,0 4,-168 0,-43 247,0 5,0Z"/>
    <path data-fips-int="29117" data-name="Livingston County" d="M1255,501l-4,168 49,0 1,2 -8,55 2,0 -2,0 -236,0 1,-111 0,-112Z"/>
    <path data-fips-int="29119" data-name="McDonald County" d="M872,2553l-7,160 -277,-6 3,-171Z"/>
    <path data-fips-int="29121" data-name="Macon County" d="M1752,458l0,53 28,2 -5,221 -193,-4 2,-55 -85,-3 8,-214Z"/>
    <path data-fips-int="29123" data-name="Madison County" d="M2866,1976l2,28 5,182 -37,0 -169,1 3,-208Z"/>
    <path data-fips-int="29125" data-name="Maries County" d="M2105,1574l8,86 0,66 -133,0 -63,27 -82,-3 -6,-177Z"/>
    <path data-fips-int="29127" data-name="Marion County" d="M2199,514l-6,45 43,53 -3,40 31,29 -201,0 0,18 -65,0 2,-185Z"/>
    <path data-fips-int="29129" data-name="Mercer County" d="M1253,108l2,127 0,74 -195,0 -2,-201Z"/>
    <path data-fips-int="29131" data-name="Miller County" d="M1679,1487l46,2 -5,53 110,4 -1,27 6,177 -111,-3 -49,0 -49,-57 -20,-65 -29,-6 4,-81 28,0 5,-52Z"/>
    <path data-fips-int="29133" data-name="Mississippi County" d="M3302,2608l-25,-44 -80,-90 0,-14 29,-43 75,-50 28,-37 38,58 45,6 -17,74 -20,8 -10,76 20,35 -46,62Z"/>
    <path data-fips-int="29135" data-name="Moniteau County" d="M1729,1287l-50,200 -65,-1 -108,-106 1,-57 110,2 60,-154 60,80Z"/>
    <path data-fips-int="29137" data-name="Monroe County" d="M1998,699l65,0 0,204 -133,1 -161,-6 6,-164 57,0 0,-37Z"/>
    <path data-fips-int="29139" data-name="Montgomery County" d="M2218,1027l73,1 0,95 0,94 -75,0 0,86 -63,22 -48,-16 -4,0 5,-228 2,-56Z"/>
    <path data-fips-int="29141" data-name="Morgan County" d="M1507,1323l-1,57 108,106 -5,52 -28,0 -4,81 -35,20 -91,-4 -50,-50 -15,9 7,-173 3,-105Z"/>
    <path data-fips-int="29143" data-name="New Madrid County" d="M3197,2460l0,14 80,90 25,44 -18,3 -37,103 -25,5 5,-67 -35,-7 -8,31 23,34 5,57 -15,34 -25,-41 -29,3 -37,-18 -17,28 -108,0 -1,-153 131,-3 0,-148Z"/>
    <path data-fips-int="29145" data-name="Newton County" d="M880,2363l-5,74 -3,116 -281,-17 5,-185Z"/>
    <path data-fips-int="29147" data-name="Nodaway County" d="M643,103l-2,63 15,56 -8,167 -213,-7 -12,-85 -53,-3 5,-140 -10,-62Z"/>
    <path data-fips-int="29149" data-name="Oregon County" d="M2329,2471l-1,36 56,0 -3,209 -280,3 -3,-185 8,-65Z"/>
    <path data-fips-int="29151" data-name="Osage County" d="M2101,1309l4,0 0,265 -276,-1 1,-27 8,-28 30,-11 -23,-31 77,-27 -9,-43 39,-26 33,-39 76,-35Z"/>
    <path data-fips-int="29153" data-name="Ozark County" d="M1873,2531l-3,189 -334,2 5,-198Z"/>
    <path data-fips-int="29155" data-name="Pemiscot County" d="M3143,2763l29,-3 25,41 -34,18 38,38 -80,0 43,45 8,37 -39,25 -12,51 -131,8 -9,-250 108,0 17,-28Z"/>
    <path data-fips-int="29157" data-name="Perry County" d="M3184,2014l-41,-14 -132,-2 -143,6 -2,-28 19,-21 53,-97 30,-34 46,-21 95,73 -1,23 76,34 23,62Z"/>
    <path data-fips-int="29159" data-name="Pettis County" d="M1403,1165l-7,151 -3,105 -112,-5 0,20 -111,-6 1,-28 10,-238 0,-9Z"/>
    <path data-fips-int="29161" data-name="Phelps County" d="M2161,1662l5,0 0,231 -140,0 0,123 -111,-2 2,-261 63,-27 133,0 0,-66Z"/>
    <path data-fips-int="29163" data-name="Pike County" d="M2557,971l-228,1 -1,56 -37,0 -73,-1 -17,-112 -10,-85 125,-96 12,0 38,37 30,56 136,96Z"/>
    <path data-fips-int="29165" data-name="Platte County" d="M395,759l246,9 0,49 -5,189 -78,-12 -37,-28 -35,-88 -33,-56Z"/>
    <path data-fips-int="29167" data-name="Polk County" d="M1135,1867l-2,10 197,9 4,46 -4,200 -223,-8 3,-93 5,-110 -8,-56Z"/>
    <path data-fips-int="29169" data-name="Pulaski County" d="M1835,1750l82,3 -2,261 -111,-1 0,-28 -84,-41 0,-93 4,-104Z"/>
    <path data-fips-int="29171" data-name="Putnam County" d="M1574,105l10,14 -13,6 15,6 -9,8 4,2 10,10 -5,0 -4,19 -1,3 -4,2 0,-2 4,0 -4,0 0,2 15,46 0,1 -1,0 1,0 0,-1 -1,1 -5,40 -82,0 0,-27 -249,0 -2,-127Z"/>
    <path data-fips-int="29173" data-name="Ralls County" d="M2264,681l64,53 -12,0 -125,96 10,85 -138,-2 0,-10 0,-204 0,-18Z"/>
    <path data-fips-int="29175" data-name="Randolph County" d="M1582,730l193,4 -6,164 0,65 -57,-1 -138,-46Z"/>
    <path data-fips-int="29177" data-name="Ray County" d="M1057,782l-4,202 -31,-6 -83,40 10,-34 -67,38 -53,-41 3,-159 3,-46Z"/>
    <path data-fips-int="29179" data-name="Reynolds County" d="M2574,2218l0,68 -22,19 2,55 -95,0 -28,-27 0,-29 -55,-36 -19,-35 -10,-102 -18,0 0,-56 -51,-2 0,-56 79,3 80,-12 115,-1 2,146Z"/>
    <path data-fips-int="29181" data-name="Ripley County" d="M2615,2512l19,0 1,84 19,0 10,114 -283,6 3,-209Z"/>
    <path data-fips-int="29183" data-name="Saint Charles County" d="M2863,1230l-110,-50 -8,36 -40,3 -51,94 -69,5 -26,25 -20,31 -60,35 -35,-6 0,-205 0,-15 75,9 45,-22 23,-15 30,40 30,-1 38,-58 110,24 68,41Z"/>
    <path data-fips-int="29185" data-name="Saint Clair County" d="M1163,1623l8,89 -4,100 -30,0 -2,55 -28,-2 -89,-3 -1,-38 -130,-7 5,-86 0,-2 7,-112 244,12Z"/>
    <path data-fips-int="29186" data-name="Sainte Genevieve County" d="M2968,1824l-30,34 -53,97 -45,3 -133,-128 66,-70 -50,-38 62,-31 22,-25 129,102Z"/>
    <path data-fips-int="29187" data-name="Saint Francois County" d="M2723,1722l50,38 -66,70 133,128 45,-3 -19,21 -196,3 -56,1 0,-59 -2,-218 7,44Z"/>
    <path data-fips-int="29189" data-name="Saint Louis County" d="M2863,1230l-25,23 -41,34 -32,78 32,43 -15,66 -27,28 3,-44 -36,1 0,-29 -92,1 -45,34 0,-6 -16,-9 -10,0 0,5 0,-5 0,-107 26,-25 69,-5 51,-94 40,-3 8,-36Z"/>
    <path data-fips-int="29195" data-name="Saline County" d="M1376,875l2,0 16,34 52,10 27,59 31,-4 0,3 -48,76 3,27 -55,57 -1,28 -222,-10 12,-224 32,40 41,-14 0,-37 50,-10 28,-53Z"/>
    <path data-fips-int="29197" data-name="Schuyler County" d="M1750,154l0,106 -164,2 5,-40 1,-1 0,1 -1,0 1,0 0,-1 -15,-46 0,-2 4,0 -4,0 0,2 4,-2 1,-3 4,-19 5,0 -10,-10 -4,-2 9,-8 -15,-6 13,-6 -10,-14 176,-5Z"/>
    <path data-fips-int="29199" data-name="Scotland County" d="M1945,289l-193,0 -2,-29 0,-106 0,-54 198,-6Z"/>
    <path data-fips-int="29201" data-name="Scott County" d="M3301,2367l-75,50 -29,43 -86,9 -2,-50 -40,-71 0,-49 72,-69 66,-15 57,127Z"/>
    <path data-fips-int="29203" data-name="Shannon County" d="M2329,2131l18,0 10,102 19,35 55,36 0,29 -102,8 0,130 -223,-2 0,-102 4,-239Z"/>
    <path data-fips-int="29205" data-name="Shelby County" d="M1945,513l55,1 -2,185 -166,-2 0,37 -57,0 5,-221Z"/>
    <path data-fips-int="29207" data-name="Stoddard County" d="M3018,2301l51,-2 0,49 40,71 2,50 0,148 -131,3 -100,1 1,-16 5,-6 0,-1 0,1 0,-1 -8,-30 -47,-93 -8,-10 2,0 -3,-20 0,-8 73,-79 76,-10 -1,-46Z"/>
    <path data-fips-int="29209" data-name="Stone County" d="M1265,2515l-9,204 -138,-2 9,-205 -20,-2 1,-65 0,-45 140,3 -3,112Z"/>
    <path data-fips-int="29211" data-name="Sullivan County" d="M1504,262l-2,196 -247,0 0,-149 0,-74 249,0Z"/>
    <path data-fips-int="29213" data-name="Taney County" d="M1466,2521l75,3 -5,198 -280,-3 9,-204Z"/>
    <path data-fips-int="29215" data-name="Texas County" d="M1915,2014l111,2 27,0 2,112 55,0 -4,239 -221,-3 -83,-3 0,-264 2,-84Z"/>
    <path data-fips-int="29217" data-name="Vernon County" d="M892,1731l0,-2 0,2 -5,86 -7,166 -276,-14 9,-260 188,10Z"/>
    <path data-fips-int="29219" data-name="Warren County" d="M2444,1198l0,205 -38,-32 -88,-9 -52,-59 -25,7 -25,-7 0,-86 75,0 0,-94 37,0 0,38 39,-1 0,38Z"/>
    <path data-fips-int="29221" data-name="Washington County" d="M2540,1623l60,72 12,8 2,218 -230,0 -3,-296Z"/>
    <path data-fips-int="29223" data-name="Wayne County" d="M2836,2186l0,146 59,-2 0,28 -73,79 -215,1 -53,-78 -2,-55 22,-19 0,-68 93,-1 0,-30Z"/>
    <path data-fips-int="29225" data-name="Webster County" d="M1498,2090l83,3 0,264 -110,-3 -83,-12 -4,-208 2,-46Z"/>
    <path data-fips-int="29227" data-name="Worth County" d="M835,108l7,120 -186,-6 -15,-56 2,-63Z"/>
    <path data-fips-int="29229" data-name="Wright County" d="M1802,2097l0,264 -221,-4 0,-264Z"/>
    <path data-fips-int="29510" data-name="Saint Louis City" d="M2797,1408l-32,-43 32,-78 41,-34 -21,31 18,65Z"/>
  </g>
  <g class="cities">
    <circle r="3" cx="64.6" cy="104.6"/>
    <text x="64.6" y="104.6">Kansas City</text>
    <circle r="3" cx="282.5" cy="134.6"/>
    <text x="282.5" y="134.6">Saint Louis</text>
    <circle r="3" cx="127.0" cy="226.1"/>
    <text x="127.0" y="226.1">Springfield</text>
  </g>
</svg>