<?xml version="1.0" encoding="utf-8"?>
<!DOCTYPE svg PUBLIC "-//W3C//DTD SVG 1.1//EN" "http://www.w3.org/Graphics/SVG/1.1/DTD/svg11.dtd">
<svg version="1.1" xmlns="http://www.w3.org/2000/svg" width="350" height="311" viewBox="0 0 350 311">
  <path class="state" transform="scale(0.1)" d="M1948,94l105,-5 22,39 31,7 -1,19 26,31h20l4,34 34,30 -23,72 -6,41 13,104 26,48 -6,45 10,25 33,28 -3,40 31,29 64,53 13,33 25,4 30,56 45,27 91,69 25,48 22,87 -14,31 24,66 28,40 30,-1 38,-58 27,-3 53,25 28,2 73,45 -3,25 -25,23 -21,31 18,47 -8,38 -30,39 -15,66 -25,28 -14,33 7,69 57,62 73,62 56,40 30,-3 -18,25 20,34 18,3 25,-24 57,36 41,37 -3,23 78,34v34l23,28 -23,19 3,20 50,85 -1,31 -40,25 11,40 40,80 22,25 -7,22 39,25 25,9 3,-19 -25,-28 25,1 31,31 7,27 35,-7 10,13 -17,74 -20,8 7,27 27,12 -27,9 -17,28 20,35 -23,52 -23,10 -37,-41 -18,3 -37,103 -25,5 10,-48 -5,-19 -35,-7 -8,31 23,34 -11,35 16,22 -15,34 -31,-3 -3,21 36,19v19h-78l-5,9 48,36 8,37 -39,25 -12,51 -131,8 -217,7 42,-77 30,-16 23,-43 32,-16 5,-24 26,-25 -1,-51 -39,-18 -10,-53h-35l-182,3 -283,6 -102,3h-178l-231,1 -334,2 -280,-3 -138,-2 -254,-4 -276,-6 3,-171 5,-185 5,-196 3,-186 9,-260 6,-267 9,-235 5,-171 3,-30 -22,4 -21,-20 -35,4 -37,-28 3,-23 -31,-24 -8,-41 -37,-61 -25,-12 -28,-46 1,-29 27,-6 12,-49 28,-13 12,-34 31,12 8,-28 -24,7 -5,-19 26,-19 -33,-24 -3,-29 -20,1 -22,21 -50,-9 -2,-16 -31,-5 -70,-82h-23l5,-46 -39,-50v-40l-36,-15 -5,-24 -43,-5 16,-17 -13,-68 -22,-42 24,-24 -19,-10 -8,23 -30,-9 3,-32 275,13 278,11 192,5h223h195l319,-3 178,-5Z"/>
  <g class="counties" transform="scale(0.1)">
    <path data-fips-int="29001" data-name="Adair County" d="M1750,260l2,29v169h-245h-6l3,-196h83Z"/>
    <path data-fips-int="29003" data-name="Andrew County" d="M648,389v56l-4,140 -133,-4 -33,-24 -3,-29 -20,1 -5,-91 -22,-15 7,-41Z"/>
    <path data-fips-int="29005" data-name="Atchison County" d="M365,92l-4,62h12l-3,140 -183,-7 -5,-24 -43,-5 16,-17 -13,-68 -22,-42 24,-24 -19,-10 -8,23 -30,-9 3,-32Z"/>
    <path data-fips-int="29007" data-name="Audrain County" d="M2063,903v10l138,2 17,112 -110,-2 -2,56 -236,-1 2,-112 -103,-5v-65l161,6Z"/>
    <path data-fips-int="29009" data-name="Barry County" d="M1108,2445l-1,65 20,2 -9,205 -254,-4 8,-160 5,-116Z"/>
    <path data-fips-int="29011" data-name="Barton County" d="M880,1983l-1,37 -7,149 -271,-14 3,-186Z"/>
    <path data-fips-int="29013" data-name="Bates County" d="M892,1468l-8,148 15,1 -7,112 -52,-13 -43,16 4,-13 -188,-10 6,-267 150,7 48,18 63,-8Z"/>
    <path data-fips-int="29015" data-name="Benton County" d="M1391,1421l-5,173 -2,47h12l-5,78 -220,-7 4,-81 -12,-8 7,-193 111,6v-20Z"/>
    <path data-fips-int="29017" data-name="Bollinger County" d="M3018,2301l-48,1 1,46 -18,10h-58v-28l-59,2v-146h37l-5,-182 143,-6 5,148Z"/>
    <path data-fips-int="29019" data-name="Boone County" d="M1769,963l103,5 -2,112h-10l-17,100 9,40 -12,52 -21,29 -4,49 -63,-21 -7,-37 -16,-5 8,-36 -23,-15 -37,-65 -30,-31v-20l65,-158Z"/>
    <path data-fips-int="29021" data-name="Buchanan County" d="M644,585v46l-3,137 -246,-9 1,-29 27,-6 12,-49 28,-13 12,-34 31,12 8,-28 -24,7 -5,-19 26,-19Z"/>
    <path data-fips-int="29023" data-name="Butler County" d="M2822,2437l1,35 18,12 10,46 34,48 -4,43 -16,22 -2,34 -17,30 -182,3v-61h-10v-53h-19l-3,-84h-17l-8,-74Z"/>
    <path data-fips-int="29025" data-name="Caldwell County" d="M1058,615l-1,111v56l-222,-6 4,-141v-26Z"/>
    <path data-fips-int="29027" data-name="Callaway County" d="M1870,1080l236,1 -5,228 -40,-3 -74,34 -35,40 -57,23 -50,-12 -30,-41 4,-49 21,-29 12,-52 -9,-40 17,-100Z"/>
    <path data-fips-int="29029" data-name="Camden County" d="M1577,1619l27,6 20,26 3,39 47,57h50l-2,104 -22,22 -44,14 -30,-25 -10,-32 -118,-3 -110,-5 3,-103 5,-78h-12l2,-47 13,-9 32,40 22,10 88,4Z"/>
    <path data-fips-int="29031" data-name="Cape Girardeau County" d="M3184,2014l3,20 50,85 -1,31 -40,25 11,40 -66,15 -35,22 -15,38 -22,9 -51,2 -2,-155 -5,-148 63,-3Z"/>
    <path data-fips-int="29033" data-name="Carroll County" d="M1295,726l8,41 -13,21 31,57 52,9 3,21 -40,-18 -18,53 -52,10v37l-36,17 -5,-27 -32,-16 -5,41 -23,9 -25,-18 -35,-4 -27,26 -25,-1 4,-202v-56Z"/>
    <path data-fips-int="29035" data-name="Carter County" d="M2554,2360h25v32l28,46 8,74 -121,1 -110,-6h-56l1,-36v-130l102,-8 28,-1v28Z"/>
    <path data-fips-int="29037" data-name="Cass County" d="M870,1220l-6,114 3,56 28,1 -3,77 -12,-9 -63,8 -48,-18 -150,-7 9,-235 149,10Z"/>
    <path data-fips-int="29039" data-name="Cedar County" d="M1107,1865l-4,56h12l-5,110 -231,-11 1,-37 7,-166 130,7 1,38Z"/>
    <path data-fips-int="29041" data-name="Chariton County" d="M1501,672l83,3 -2,55 -3,9 -7,177 -40,-15 -28,76 -31,1 -27,-59 -28,1 -42,-45 -3,-21 -52,-9 -31,-57 13,-21 -8,-41 5,-57h123Z"/>
    <path data-fips-int="29043" data-name="Christian County" d="M1388,2342l83,3v9l-5,167 -201,-6h-20l3,-112 -140,-3 2,-67Z"/>
    <path data-fips-int="29045" data-name="Clark County" d="M2166,321l-221,-4v-28l3,-195 105,-5 22,39 31,7 -1,19 26,31h20l4,34 34,30Z"/>
    <path data-fips-int="29047" data-name="Clay County" d="M641,817l191,5 -3,159 -43,-19 -35,47 -17,-3 -35,25 -12,-18 -54,23 3,-30Z"/>
    <path data-fips-int="29049" data-name="Clinton County" d="M839,635l-4,141 -3,46 -191,-5v-49l3,-137Z"/>
    <path data-fips-int="29051" data-name="Cole County" d="M1815,1350l30,41 50,12 57,-23 -39,26 9,43 -15,12 -62,15 23,20 -38,27v23l-108,-4 3,-53 -46,-2 50,-200 16,5 7,37Z"/>
    <path data-fips-int="29053" data-name="Cooper County" d="M1647,1140l30,31 -60,154 -110,-2 -109,-7 5,-151 1,-28 57,-57 12,31 28,22 71,-1Z"/>
    <path data-fips-int="29055" data-name="Crawford County" d="M2244,1623l137,2 3,97v199h-23l-4,28h-79v-56h-112v-231h-5v-39Z"/>
    <path data-fips-int="29057" data-name="Dade County" d="M1110,2031l-3,93 -4,91 -216,-7 -17,-2 2,-37 7,-149Z"/>
    <path data-fips-int="29059" data-name="Dallas County" d="M1388,1822l110,5 -4,112h7l-3,151 -112,-2 -2,46 -54,-2 6,-200 -6,-46 1,-65Z"/>
    <path data-fips-int="29061" data-name="Daviess County" d="M1060,392l-2,111v112l-219,-6 5,-160h-9l4,-64Z"/>
    <path data-fips-int="29063" data-name="DeKalb County" d="M835,449h9l-5,160v26l-195,-4v-46l4,-140Z"/>
    <path data-fips-int="29065" data-name="Dent County" d="M2166,1893h112v56h79v71l-79,-3v56l51,2v56l-219,-3h-55l-2,-112h-27v-123Z"/>
    <path data-fips-int="29067" data-name="Douglas County" d="M1581,2357l221,4 83,3 -2,160 -10,7 -332,-7 -75,-3 5,-167Z"/>
    <path data-fips-int="29069" data-name="Dunklin County" d="M2980,2620v153l10,250 -217,7 42,-77 30,-16 23,-43 32,-16 5,-24 26,-25 -1,-51 -39,-18 -10,-53h-35l17,-30 2,-34 16,-22Z"/>
    <path data-fips-int="29071" data-name="Franklin County" d="M2444,1403l35,6 60,-35 20,-31v112v38l-19,130 -159,2 -137,-2 -3,-313 22,-7 50,43 5,16 44,10 44,-1Z"/>
    <path data-fips-int="29073" data-name="Gasconade County" d="M2216,1303l25,7 3,313h-83v39l-48,-2h-7l-1,-86v-265l48,16Z"/>
    <path data-fips-int="29075" data-name="Gentry County" d="M840,228l-1,157 -4,64 -187,-4v-56l8,-167Z"/>
    <path data-fips-int="29077" data-name="Greene County" d="M1330,2132l54,2 -1,93 6,10 -1,105 -278,-9 3,-116 -10,-2 4,-91Z"/>
    <path data-fips-int="29079" data-name="Grundy County" d="M1255,458v43l-197,2 2,-111v-83h195Z"/>
    <path data-fips-int="29081" data-name="Harrison County" d="M1058,108l4,67 -2,134v83l-221,-7 1,-157 -5,-120Z"/>
    <path data-fips-int="29083" data-name="Henry County" d="M1171,1402l-1,28 -7,193 -20,6 -244,-12 -15,-1 8,-148 3,-77Z"/>
    <path data-fips-int="29085" data-name="Hickory County" d="M1391,1719l-3,103 -57,-1 -1,65 -197,-9 2,-10 2,-55h30l4,-100Z"/>
    <path data-fips-int="29087" data-name="Holt County" d="M370,294l53,3 -3,54 15,31 -7,41 22,15 5,91 -22,21 -50,-9 -2,-16 -31,-5 -70,-82h-23l5,-46 -39,-50v-40l-36,-15Z"/>
    <path data-fips-int="29089" data-name="Howard County" d="M1647,1120v20l-75,-8 -71,1 -28,-22 -12,-31 13,-21 -20,-18 50,-64 28,-76 40,15 140,46Z"/>
    <path data-fips-int="29091" data-name="Howell County" d="M2106,2367v102v65h-8l3,185 -231,1 3,-189 10,-7 2,-160Z"/>
    <path data-fips-int="29093" data-name="Iron County" d="M2384,1921h230v59l56,-1 -5,28v180v30l-91,1 -10,2v-67h-10l-2,-146 -115,1 -80,12v-71l4,-28Z"/>
    <path data-fips-int="29095" data-name="Jackson County" d="M829,981l53,41 -10,145 -2,53 -93,-3 -149,-10 5,-171 54,-23 12,18 35,-25 17,3 35,-47Z"/>
    <path data-fips-int="29097" data-name="Jasper County" d="M872,2169l-2,37 17,2 -7,155 -94,-6 -190,-6 5,-196Z"/>
    <path data-fips-int="29099" data-name="Jefferson County" d="M2757,1502l-14,33 7,69 57,62 -20,25 -19,-3 -43,34 -83,27 -17,-6 -13,-40 -18,-12 -54,-68 19,-130v-38l40,4 30,-28 94,-1 -3,26h33Z"/>
    <path data-fips-int="29101" data-name="Johnson County" d="M1181,1164l-10,238 -276,-11 -28,-1 -3,-56 6,-114 2,-53 140,7 1,-19Z"/>
    <path data-fips-int="29103" data-name="Knox County" d="M1945,289v28v196h-165l-28,-2v-53v-169Z"/>
    <path data-fips-int="29105" data-name="Laclede County" d="M1722,1851l-2,93 84,41v28l-2,84 -221,-4 -83,-3 3,-151h-7l4,-112 118,3 10,32 30,25 44,-14Z"/>
    <path data-fips-int="29107" data-name="Lafayette County" d="M1181,1155v9l-168,-9 -1,19 -140,-7 10,-145 25,5 8,-31 34,-12 -10,34 28,-21 55,-19 31,6 25,1 27,-26 35,4 25,18 23,-9 5,-41Z"/>
    <path data-fips-int="29109" data-name="Lawrence County" d="M1103,2215l10,2 -3,116 -2,67v45l-231,-8 3,-74 7,-155Z"/>
    <path data-fips-int="29111" data-name="Lewis County" d="M2166,321l-6,41 13,104 26,48h-199l-55,-1v-196Z"/>
    <path data-fips-int="29113" data-name="Lincoln County" d="M2557,971l22,87 -14,31 24,66 -69,15 -1,22 -67,-4 -8,10h-77v-38l-39,1v-38h-37v-95h37l1,-56Z"/>
    <path data-fips-int="29115" data-name="Linn County" d="M1501,672l-78,-3h-123h-49l4,-168v-43h246h6Z"/>
    <path data-fips-int="29117" data-name="Livingston County" d="M1300,669l-5,57h-238l1,-111v-112l197,-2 -4,168Z"/>
    <path data-fips-int="29119" data-name="McDonald County" d="M872,2553l-8,160 -276,-6 3,-171Z"/>
    <path data-fips-int="29121" data-name="Macon County" d="M1752,458v53l28,2 -5,221 -193,-4 2,-55 -83,-3 6,-214Z"/>
    <path data-fips-int="29123" data-name="Madison County" d="M2866,1976l2,28 5,182h-37l-171,1v-180l5,-28Z"/>
    <path data-fips-int="29125" data-name="Maries County" d="M2105,1574l1,86h7v66h-133l-32,11 -3,18 -28,-2 -82,-3 2,-93h-8v-84l66,3Z"/>
    <path data-fips-int="29127" data-name="Marion County" d="M2199,514l-6,45 10,25 33,28 -3,40 31,29h-201v18h-65l2,-185Z"/>
    <path data-fips-int="29129" data-name="Mercer County" d="M1253,108l2,127v74h-195l2,-134 -4,-67Z"/>
    <path data-fips-int="29131" data-name="Miller County" d="M1679,1487l46,2 -3,53 108,4 -1,27v84h8l-2,93 -111,-3h-50l-47,-57 -3,-39 -20,-26 -27,-6 4,-81h28l5,-52Z"/>
    <path data-fips-int="29133" data-name="Mississippi County" d="M3302,2608l-25,-44 -38,-40 -40,-64 27,-43 45,-39 30,-11 25,9 3,-19 -25,-28 25,1 31,31 7,27 35,-7 10,13 -17,74 -20,8 7,27 27,12 -27,9 -17,28 20,35 -23,52 -23,10Z"/>
    <path data-fips-int="29135" data-name="Moniteau County" d="M1729,1287l-50,200 -65,-1 -108,-106 1,-57 110,2 60,-154 37,65 23,15Z"/>
    <path data-fips-int="29137" data-name="Monroe County" d="M1998,699h65v204l-133,1 -161,-6 6,-164h57v-37Z"/>
    <path data-fips-int="29139" data-name="Montgomery County" d="M2218,1027l73,1v95v94h-75v86l-63,22 -48,-16h-4l5,-228 2,-56Z"/>
    <path data-fips-int="29141" data-name="Morgan County" d="M1507,1323l-1,57 108,106 -5,52h-28l-4,81 -36,20 -88,-4 -22,-10 -32,-40 -13,9 5,-173 7,-105Z"/>
    <path data-fips-int="29143" data-name="New Madrid County" d="M3199,2460l40,64 38,40 25,44 -18,3 -37,103 -25,5 10,-48 -5,-19 -35,-7 -8,31 23,34 -11,35 16,22 -15,34 -34,-47 -32,9 -33,-18 -9,28h-109v-153l131,-3 -5,-145 5,-3Z"/>
    <path data-fips-int="29145" data-name="Newton County" d="M880,2363l-3,74 -5,116 -281,-17 5,-185 190,6Z"/>
    <path data-fips-int="29147" data-name="Nodaway County" d="M643,103l-2,63 10,1 5,55 -8,167 -213,-7 -15,-31 3,-54 -53,-3 3,-140h-12l4,-62Z"/>
    <path data-fips-int="29149" data-name="Oregon County" d="M2329,2471l-1,36h56l-3,209 -102,3h-178l-3,-185h8v-65Z"/>
    <path data-fips-int="29151" data-name="Osage County" d="M2101,1309h4v265l-210,2 -66,-3 1,-27v-23l38,-27 -23,-20 62,-15 15,-12 -9,-43 39,-26 35,-40 74,-34Z"/>
    <path data-fips-int="29153" data-name="Ozark County" d="M1873,2531l-3,189 -334,2 5,-198Z"/>
    <path data-fips-int="29155" data-name="Pemiscot County" d="M3197,2801l-31,-3 -3,21 36,19v19h-78l-5,9 48,36 8,37 -39,25 -12,51 -131,8 -10,-250h109l9,-28 33,18 32,-9Z"/>
    <path data-fips-int="29157" data-name="Perry County" d="M3184,2014l-110,-19 -63,3 -143,6 -2,-28 19,-21 53,-97 30,-34 18,3 25,-24 57,36 41,37 -3,23 78,34v34l23,28Z"/>
    <path data-fips-int="29159" data-name="Pettis County" d="M1403,1165l-5,151 -7,105 -110,-5v20l-111,-6 1,-28 10,-238v-9Z"/>
    <path data-fips-int="29161" data-name="Phelps County" d="M2161,1662h5v231h-140v123l-111,-2 2,-261 28,2 3,-18 32,-11h133v-66Z"/>
    <path data-fips-int="29163" data-name="Pike County" d="M2557,971l-228,1 -1,56h-37l-73,-1 -17,-112 -10,-85 113,-90 24,-6 13,33 25,4 30,56 45,27 91,69Z"/>
    <path data-fips-int="29165" data-name="Platte County" d="M395,759l246,9v49l-5,189 -22,4 -21,-20 -35,4 -37,-28 3,-23 -31,-24 -8,-41 -37,-61 -25,-12Z"/>
    <path data-fips-int="29167" data-name="Polk County" d="M1135,1867l-2,10 197,9 6,46 -6,200 -223,-8 3,-93 5,-110h-12l4,-56Z"/>
    <path data-fips-int="29169" data-name="Pulaski County" d="M1835,1750l82,3 -2,261 -111,-1v-28l-84,-41 2,-93 2,-104Z"/>
    <path data-fips-int="29171" data-name="Putnam County" d="M1572,105l15,57 -11,38 20,27 -9,35h-83v-27h-249l-2,-127Z"/>
    <path data-fips-int="29173" data-name="Ralls County" d="M2264,681l64,53 -24,6 -113,90 10,85 -138,-2v-10v-204v-18Z"/>
    <path data-fips-int="29175" data-name="Randolph County" d="M1582,730l193,4 -6,164v65l-57,-1 -140,-46 7,-177Z"/>
    <path data-fips-int="29177" data-name="Ray County" d="M1057,782l-4,202 -31,-6 -55,19 -28,21 10,-34 -34,12 -8,31 -25,-5 -53,-41 3,-159 3,-46Z"/>
    <path data-fips-int="29179" data-name="Reynolds County" d="M2574,2218v68l-22,19 2,55h-95v-28l-28,1 -9,-47 -18,4 -28,-22v-35h-19l-10,-102h-18v-56l-51,-2v-56l79,3 80,-12 115,-1 2,146h10v67Z"/>
    <path data-fips-int="29181" data-name="Ripley County" d="M2615,2512h17l3,84h19v53h10v61l-283,6 3,-209 110,6Z"/>
    <path data-fips-int="29183" data-name="Saint Charles County" d="M2863,1230l-32,-5 -73,-46 -21,44 -32,-4 -27,50 -21,15 -3,29 -47,-4 -48,34 -20,31 -60,35 -35,-6v-205l8,-10 67,4 1,-22 69,-15 28,40 30,-1 38,-58 27,-3 53,25 28,2 73,45Z"/>
    <path data-fips-int="29185" data-name="Saint Clair County" d="M1163,1623l12,8 -4,81 -4,100h-30l-2,55 -28,-2 -89,-3 -1,-38 -130,-7 5,-88 7,-112 244,12Z"/>
    <path data-fips-int="29186" data-name="Sainte Genevieve County" d="M2968,1824l-30,34 -53,97 -22,-16 -23,19 -133,-128 66,-70 -48,-38 43,-34 19,3 20,-25 73,62 56,40 30,-3 -18,25Z"/>
    <path data-fips-int="29187" data-name="Saint Francois County" d="M2725,1722l48,38 -66,70 133,128 23,-19 22,16 -19,21 -196,3 -56,1v-59l-2,-218 13,40 17,6Z"/>
    <path data-fips-int="29189" data-name="Saint Louis County" d="M2863,1230l-25,23 -45,38 -20,37 -8,37 32,43 -15,66 -25,28 -4,-46h-33l3,-26 -94,1 -30,28 -40,-4v-112l48,-34 47,4 3,-29 21,-15 27,-50 32,4 21,-44 73,46Z"/>
    <path data-fips-int="29195" data-name="Saline County" d="M1376,875l42,45 28,-1 27,59 31,-1 -50,64 20,18 -13,21 -57,57 -1,28 -222,-10 12,-224 32,16 5,27 36,-17v-37l52,-10 18,-53Z"/>
    <path data-fips-int="29197" data-name="Schuyler County" d="M1750,260l-163,2 9,-35 -20,-27 11,-38 -15,-57 178,-5Z"/>
    <path data-fips-int="29199" data-name="Scotland County" d="M1945,289h-193l-2,-29v-160l198,-6Z"/>
    <path data-fips-int="29201" data-name="Scott County" d="M3301,2367l-30,11 -45,39 -27,43 -88,9 2,-46 -54,-96 10,-28 22,-9 15,-38 35,-22 66,-15 40,80 22,25 -7,22Z"/>
    <path data-fips-int="29203" data-name="Shannon County" d="M2329,2131h18l10,102h19v35l28,22 18,-4 9,47 -102,8v130l-223,-2v-102l4,-239Z"/>
    <path data-fips-int="29205" data-name="Shelby County" d="M1945,513l55,1 -2,185 -166,-2v37h-57l5,-221Z"/>
    <path data-fips-int="29207" data-name="Stoddard County" d="M3018,2301l51,-2 -10,28 54,96 -2,46 -5,3 5,145 -131,3 -99,1 4,-43 -34,-48 -10,-46 -18,-12 -1,-35 16,-28 57,-51h58l18,-10 -1,-46Z"/>
    <path data-fips-int="29209" data-name="Stone County" d="M1265,2515l-9,204 -138,-2 9,-205 -20,-2 1,-65v-45l140,3 -3,112Z"/>
    <path data-fips-int="29211" data-name="Sullivan County" d="M1504,262l-3,196h-246v-149v-74h249Z"/>
    <path data-fips-int="29213" data-name="Taney County" d="M1466,2521l75,3 -5,198 -280,-3 9,-204Z"/>
    <path data-fips-int="29215" data-name="Texas County" d="M1915,2014l111,2h27l2,112h55l-4,239 -221,-3 -83,-3v-264l2,-84Z"/>
    <path data-fips-int="29217" data-name="Vernon County" d="M892,1729l-5,88 -7,166 -276,-14 9,-260 188,10 -4,13 43,-16Z"/>
    <path data-fips-int="29219" data-name="Warren County" d="M2444,1198v205l-38,-32 -44,1 -44,-10 -5,-16 -50,-43 -22,7 -25,-7v-86h75v-94h37v38l39,-1v38Z"/>
    <path data-fips-int="29221" data-name="Washington County" d="M2540,1623l54,68 18,12 2,218h-230v-199l-3,-97Z"/>
    <path data-fips-int="29223" data-name="Wayne County" d="M2836,2186v146l59,-2v28l-57,51 -16,28 -215,1 -28,-46v-32h-25l-2,-55 22,-19v-68l91,-1v-30Z"/>
    <path data-fips-int="29225" data-name="Webster County" d="M1498,2090l83,3 -2,131 5,10 -3,123 -110,-3v-9l-83,-3 1,-105 -6,-10 1,-93 2,-46Z"/>
    <path data-fips-int="29227" data-name="Worth County" d="M835,108l5,120 -184,-6 -5,-55 -10,-1 2,-63Z"/>
    <path data-fips-int="29229" data-name="Wright County" d="M1802,2097v264l-221,-4 3,-123 -5,-10 2,-131Z"/>
    <path data-fips-int="29510" data-name="Saint Louis City" d="M2797,1408l-32,-43 8,-37 20,-37 45,-38 -21,31 18,47 -8,38Z"/>
  </g>
  <path class="mesh" transform="scale(0.1)" d="M455,529l-5,-91 -22,-15 7,-41 213,7v56l-4,140 -133,-4M365,92l-4,62h12l-3,140 -183,-7M2063,699v204v10l138,2 17,112 -110,-2 -2,56 -236,-1 2,-112 -103,-5v-65l161,6 133,-1M864,2713l8,-160 5,-116 231,8 -1,65 20,2 -9,205M604,1969l276,14 -1,37 -7,149 -271,-14M619,1442l150,7 48,18 63,-8 12,9 -8,148 15,1 -7,112 -52,-13 -43,16 4,-13 -188,-10M3207,2215l-66,15 -35,22 -15,38 -22,9 -51,2 -48,1 1,46 -18,10h-58v-28l-59,2v-146h37l-5,-182 143,-6 5,148 2,155M1870,1080h-10l-17,100 9,40 -12,52 -21,29 -4,49 -63,-21 -7,-37 -16,-5 8,-36 -23,-15 -37,-65 -30,-31v-20l65,-158 57,1M644,585v46l-3,137 -246,-9M2664,2710v-61h-10v-53h-19l-3,-84h-17l-8,-74 215,-1 1,35 18,12 10,46 34,48 -4,43 -16,22 -2,34 -17,30M839,609l5,-160h-9l4,-64 221,7 -2,111v112l-1,111v56l-222,-6 4,-141v-26l219,6M2106,1081l-5,228 -40,-3 -74,34 -35,40 -57,23 -50,-12 -30,-41M1386,1594l13,-9 32,40 22,10 88,4 36,-20 27,6 20,26 3,39 47,57h50l-2,104 -22,22 -44,14 -30,-25 -10,-32 -118,-3 -110,-5 3,-103M3011,1998l63,-3 110,19M1057,726h238l8,41 -13,21 31,57 52,9 3,21 -40,-18 -18,53 -52,10v37l-36,17 -5,-27 -32,-16 -5,41 -23,9 -25,-18 -35,-4 -27,26 -25,-1 4,-202M2615,2512l-121,1 -110,-6h-56l1,-36v-130l102,-8 28,-1v28h95h25v32l28,46M628,1207l149,10 93,3 -6,114 3,56 28,1 -3,77M880,1983l7,-166 130,7 1,38 89,3 -4,56h12l-5,110 -231,-11M1295,726l5,-57h123l78,3 83,3 -2,55 -3,9 -7,177 -40,-15 -28,76 -31,1 -27,-59 -28,1 -42,-45M1384,2134l-1,93 6,10 -1,105 83,3v9l-5,167 -201,-6h-20l3,-112 -140,-3 2,-67 278,9M2166,321l-221,-4v-28l3,-195M636,1006l5,-189 191,5 -3,159 -43,-19 -35,47 -17,-3 -35,25 -12,-18 -54,23M835,776l-3,46M641,817v-49M644,631l195,4M1952,1380l-39,26 9,43 -15,12 -62,15 23,20 -38,27v23l-108,-4 3,-53 -46,-2 50,-200M1677,1171l-60,154 -110,-2 -109,-7 5,-151 1,-28 57,-57 12,31 28,22 71,-1 75,8M1110,2031l-3,93 -4,91 -216,-7 -17,-2 2,-37M1498,1827l-4,112h7l-3,151 -112,-2 -2,46 -54,-2 6,-200 -6,-46 1,-65 57,1M648,445l187,4M2357,1949v71l-79,-3v56l51,2v56l-219,-3h-55l-2,-112h-27v-123h140M1471,2354l110,3 221,4 83,3 -2,160 -10,7 -332,-7 -75,-3M2881,2621l99,-1v153l10,250M2244,1623l137,2 3,97v199h-23l-4,28h-79v-56h-112v-231h-5v-39h83l-3,-313 22,-7 50,43 5,16 44,10 44,-1 38,32 35,6 60,-35 20,-31v112v38l-19,130 -159,2M2161,1662l-48,-2h-7l-1,-86v-265l48,16 63,-22 25,7M648,389l8,-167 184,6 -1,157M1110,2333l3,-116 -10,-2M1107,2124l223,8M1060,392v-83h195v149v43l-197,2M1058,108l4,67 -2,134M840,228l-5,-120M895,1391l276,11 -1,28M1163,1623l-20,6 -244,-12M1330,1886l-197,-9 2,-10 2,-55h30l4,-100M370,294l53,3 -3,54 15,31M1461,1080l13,-21 -20,-18 50,-64M1572,916l140,46M1885,2364l221,3v102v65h-8l3,185M1870,2720l3,-189M2384,1921h230v59l56,-1 -5,28v180v30l-91,1 -10,2v-67h-10l-2,-146 -115,1 -80,12M829,981l53,41 -10,145 -2,53M887,2208l-7,155 -94,-6 -190,-6M2807,1666l-20,25 -19,-3 -43,34 -83,27 -17,-6 -13,-40 -18,-12 -54,-68M2559,1455l40,4 30,-28 94,-1 -3,26h33l4,46M872,1167l140,7 1,-19 168,9 -10,238M1945,317v196h-165l-28,-2v-53M1752,289h193M1722,1851l-2,93 84,41v28l-2,84 -221,-4 -83,-3M1193,931l-12,224v9M882,1022l25,5 8,-31 34,-12 -10,34 28,-21 55,-19 31,6M1108,2400v45M877,2437l3,-74M2199,514h-199l-55,-1M2589,1155l-69,15 -1,22 -67,-4 -8,10h-77v-38l-39,1v-38h-37v-95h37l1,-56 228,-1M1300,669h-49l4,-168M1507,458h-6l3,-196h83l163,-2 2,29v169h-245l-6,214M591,2536l281,17M1780,513l-5,221 -193,-4M2670,1979l196,-3 2,28M2836,2186l-171,1M2113,1660v66h-133l-32,11 -3,18 -28,-2 -82,-3 2,-93h-8v-84l66,3 210,-2M2264,681h-201v18h-65l2,-185M1253,108l2,127v74M1830,1546l-1,27M1835,1750l-111,-3M1577,1619l4,-81h28l5,-52 65,1M3302,2608l-25,-44 -38,-40 -40,-64 27,-43 45,-39 30,-11M1614,1486l-108,-106 1,-57M1769,898l6,-164h57v-37l166,2M2218,1027l73,1M2291,1123v94h-75v86M2105,1309h-4M1391,1421l-5,173 -2,47h12l-5,78 -220,-7 4,-81 -12,-8 7,-193 111,6v-20l110,5 7,-105M3197,2801l-34,-47 -32,9 -33,-18 -9,28h-109M2980,2620l131,-3 -5,-145 5,-3 88,-9M643,103l-2,63 10,1 5,55M2384,2507l-3,209M2106,2469l223,2M1536,2722l5,-198M2866,1976l19,-21 53,-97 30,-34M1181,1155l222,10M2026,2016l-111,-2 2,-261M2201,915l-10,-85 113,-90 24,-6M1107,1865l28,2M1915,2014l-111,-1M1572,105l15,57 -11,38 20,27 -9,35M1504,262v-27h-249M2574,2218v68l-22,19 2,55M2431,2333l-9,-47 -18,4 -28,-22v-35h-19l-10,-102h-18M2863,1230l-32,-5 -73,-46 -21,44 -32,-4 -27,50 -21,15 -3,29 -47,-4 -48,34M2444,1403v-205M887,1817l5,-88M2885,1955l-22,-16 -23,19 -133,-128 66,-70 -48,-38M2614,1921l-2,-218M2838,1253l-45,38 -20,37 -8,37 32,43M1750,100v160M3111,2469l2,-46 -54,-96 10,-28M2106,2367l4,-239M2822,2437l16,-28 57,-51M1265,2515l-9,204M1802,2361v-264M1581,2093l-2,131 5,10 -3,123M1255,458h246"/>
  <g class="cities">
    <circle r="3" cx="64.6" cy="104.6"/>
    <text x="64.6" y="104.6">Kansas City</text>
    <circle r="3" cx="282.6" cy="134.7"/>
    <text x="282.6" y="134.7">Saint Louis</text>
    <circle r="3" cx="127.0" cy="226.1"/>
    <text x="127.0" y="226.1">Springfield</text>
  </g>
</svg>