<?xml version="1.0" encoding="utf-8"?>
<!DOCTYPE svg PUBLIC "-//W3C//DTD SVG 1.1//EN" "http://www.w3.org/Graphics/SVG/1.1/DTD/svg11.dtd">
<svg version="1.1" xmlns="http://www.w3.org/2000/svg" width="219" height="350" viewBox="0 0 219 350">
  <path class="state" transform="scale(0.1)" d="M60,3189l40,-86 40,-24 1,-63 55,-58 70,-37 87,-8 56,-48 83,-32 69,2 31,30 69,-5 115,30 32,43 23,66 -8,75 -55,87 7,28 -29,42 -36,25 -63,16 -36,54 -58,31 -68,15 -33,-8 -55,33 -47,15 -44,-17 -64,9 -15,-12 -74,-7 -47,-33 -30,-46 -14,-52 -2,-65M213,3204l22,-8 22,-37 33,-1 37,26 3,42 31,-14h80l36,-35 1,-31 30,-25h69l33,-25 13,-73 -66,-20 -51,-4 -53,27 -56,40 -51,15 -37,-2 -59,79 -35,26 -2,20M1741,599l8,-16 36,-4 13,24 41,6 19,-40 -24,-16 -22,-40 2,-55 28,-38 22,-12 25,-70 42,-3 8,-35 -27,-33 -24,-9 -56,57 -10,23 -41,30 -26,5 -39,32 -23,33 -34,3 4,59 -28,81 22,30 10,-12 40,12 34,-12M1312,674l185,-35 51,-58 43,-90 1,-88 10,-38 41,-70 66,-95 112,-90 50,-23 122,13 57,44 48,66 33,87 -10,41 -56,153 -6,10 -9,143 -40,32 -54,8 -8,47 -61,58 -31,13 -112,20 -14,108 -2,57 11,73 -41,136 -88,110 -28,24 -72,14 -29,64 -60,81 -61,48 -72,20 -72,4 -60,-20 -61,-48 -25,-50 -11,-45 5,-70 47,-85 25,-18 128,-68 25,-4 -52,-38 -40,-55 -28,-71 1,-70 11,-72 42,-85 89,-88M1228,1376l24,13 42,-10 33,-30 -5,-23 -87,32 -7,18M1337,944l11,11 -5,45 16,13 41,-3 19,72 38,23 -7,23 9,50h26l28,-55 26,-5 -11,-23 31,-125 -14,-25 -30,-8 -21,-60 27,-30 -5,-81 -30,-32 -62,62 -48,61 -4,30 -20,5 -15,52"/>
  <g class="counties" transform="scale(0.1)">
    <path data-fips-int="69100" data-name="Rota" d="M60,3189l40,-86 40,-24 1,-63 55,-58 70,-37 87,-8 56,-48 83,-32 69,2 31,30 69,-5 115,30 32,43 23,66 -8,75 -55,87 7,28 -29,42 -36,25 -63,16 -36,54 -58,31 -68,15 -33,-8 -55,33 -47,15 -44,-17 -64,9 -15,-12 -74,-7 -47,-33 -30,-46 -14,-52ZM213,3204l22,-8 22,-37 33,-1 37,26 3,42 31,-14h80l36,-35 1,-31 30,-25h69l33,-25 13,-73 -66,-20 -51,-4 -53,27 -56,40 -51,15 -37,-2 -59,79 -35,26Z"/>
    <path data-fips-int="69110" data-name="Saipan" d="M1730,930l-195,-156 -19,-33 -33,-22 -171,-45 185,-35 51,-58 43,-90 1,-88 10,-38 41,-70 66,-95 112,-90 50,-23 122,13 57,44 48,66 33,87 -10,41 -56,153 -6,10 -9,143 -40,32 -54,8 -8,47 -61,58 -31,13 -112,20ZM1741,599l8,-16 36,-4 13,24 41,6 19,-40 -24,-16 -22,-40 2,-55 28,-38 22,-12 25,-70 42,-3 8,-35 -27,-33 -24,-9 -56,57 -10,23 -41,30 -26,5 -39,32 -23,33 -34,3 4,59 -28,81 22,30 10,-12 40,12Z"/>
    <path data-fips-int="69120" data-name="Tinian" d="M1312,674l171,45 33,22 19,33 195,156 -2,57 11,73 -41,136 -88,110 -28,24 -72,14 -29,64 -60,81 -61,48 -72,20 -72,4 -60,-20 -61,-48 -25,-50 -11,-45 5,-70 47,-85 25,-18 128,-68 25,-4 -52,-38 -40,-55 -28,-71 1,-70 11,-72 42,-85ZM1228,1376l24,13 42,-10 33,-30 -5,-23 -87,32ZM1337,944l11,11 -5,45 16,13 41,-3 19,72 38,23 -7,23 9,50h26l28,-55 26,-5 -11,-23 31,-125 -14,-25 -30,-8 -21,-60 27,-30 -5,-81 -30,-32 -62,62 -48,61 -4,30 -20,5Z"/>
  </g>
  <path class="mesh" transform="scale(0.1)" d="M1730,930l-195,-156 -19,-33 -33,-22 -171,-45"/>
  <g class="cities">
    <circle r="3" cx="150.0" cy="107.2"/>
    <text x="150.0" y="107.2">Carolinas Heights</text>
    <circle r="3" cx="175.4" cy="45.5"/>
    <text x="175.4" y="45.5">Saipan</text>
  </g>
</svg>