<?xml version="1.0" encoding="utf-8"?>
<!DOCTYPE svg PUBLIC "-//W3C//DTD SVG 1.1//EN" "http://www.w3.org/Graphics/SVG/1.1/DTD/svg11.dtd">
<svg version="1.1" xmlns="http://www.w3.org/2000/svg" width="219" height="350" viewBox="0 0 219 350">
  <path class="state" transform="scale(0.1)" d="M60,3189l41,-86 39,-24 1,-63 54,-58 72,-37 86,-10 56,-46 83,-32h69l31,32 68,-5 116,30 32,45 23,64 -8,77 -55,85 7,28 -29,43 -35,24 -64,16 -36,52 -58,31 -68,15 -33,-6 -54,33 -47,15 -45,-17 -64,9 -15,-12 -74,-7 -47,-33 -30,-46 -14,-52 -2,NaN 159,NaN -4,28 53,-58 54,28 21,47 19,-14h79l36,-35v-29l31,-29 60,4 38,-20 17,-80 -66,-20 -51,-4 -66,35 -43,32 -51,17 -37,-4 -42,55h-1h1l-2,NaN 1484,NaN 36,-4 17,27 37,3 20,-40 -25,-16 -21,-40 1,-55 70,-83 6,-37 41,-3 8,-35 -27,-35 -24,-7 -51,52 -27,41 -58,25 -72,65h-3h3h-4l-16,2 3,57 -28,81 22,30 10,-12 40,12 19,-22 15,NaN -244,NaN 51,-58 43,-90 1,-88 10,-37 41,-71 66,-95 112,-90 50,-23 122,13 57,45 48,65 33,87 -10,41 -56,153 -6,10 -9,145 -40,28 -54,12 -8,45 -62,58 -30,13 -112,20 -15,108 -1,57 11,73 -41,136 -88,110 -27,24 -73,16 -50,97 -39,46 -62,48 -71,20 -72,4 -60,-19 -62,-51 -24,-48 -11,-47 5,-70 47,-83 25,-18 128,-68 26,-4 -53,-38 -40,-55 -28,-71 1,-70 11,-72 42,-83 90,NaN -61,NaN 42,-9 33,-30 -16,-24 -76,31 -7,NaN 124,NaN -9,36 16,13h43l17,69 38,23 -7,23 9,50 21,3 42,-63 14,-68 23,-80 -18,-28 -26,-5 -19,-67 25,-23 -5,-80 -31,-35 -108,117 -6,38 -19,5 -15,52Z"/>
  <g class="counties" transform="scale(0.1)">
    <path data-fips-int="69100" data-name="Rota" d="M60,3189l41,-86 39,-24 1,-63 54,-58 72,-37 86,-10 56,-46 83,-32h69l31,32 68,-5 116,30 32,45 23,64 -8,77 -55,85 7,28 -29,43 -35,24 -64,16 -36,52 -58,31 -68,15 -33,-6 -54,33 -47,15 -45,-17 -64,9 -15,-12 -74,-7 -47,-33 -30,-46 -14,-52ZM265,3134l-46,47 -4,28 53,-58 54,28 21,47 19,-14h79l36,-35v-29l31,-29 60,4 38,-20 17,-80 -66,-20 -51,-4 -66,35 -43,32 -51,17 -37,-4 -42,55h-1h1Z"/>
    <path data-fips-int="69110" data-name="Saipan" d="M1729,930l-194,-154 -19,-35 -32,-22 -171,-45 184,-35 51,-58 43,-90 1,-88 10,-37 41,-71 66,-95 112,-90 50,-23 122,13 57,45 48,65 33,87 -10,41 -56,153 -6,10 -9,145 -40,28 -54,12 -8,45 -62,58 -30,13 -112,20ZM1741,599l8,-16 36,-4 17,27 37,3 20,-40 -25,-16 -21,-40 1,-55 70,-83 6,-37 41,-3 8,-35 -27,-35 -24,-7 -51,52 -27,41 -58,25 -72,65h-3h3h-4l-16,2 3,57 -28,81 22,30 10,-12 40,12 19,-22Z"/>
    <path data-fips-int="69120" data-name="Tinian" d="M1313,674l171,45 32,22 19,35 194,154 -1,57 11,73 -41,136 -88,110 -27,24 -73,16 -50,97 -39,46 -62,48 -71,20 -72,4 -60,-19 -62,-51 -24,-48 -11,-47 5,-70 47,-83 25,-18 128,-68 26,-4 -53,-38 -40,-55 -28,-71 1,-70 11,-72 42,-83ZM1228,1376l24,12 42,-9 33,-30 -16,-24 -76,31ZM1337,944l15,20 -9,36 16,13h43l17,69 38,23 -7,23 9,50 21,3 42,-63 14,-68 23,-80 -18,-28 -26,-5 -19,-67 25,-23 -5,-80 -31,-35 -108,117 -6,38 -19,5Z"/>
  </g>
  <g class="cities">
    <circle r="3" cx="150.0" cy="107.2"/>
    <text x="150.0" y="107.2">Carolinas Heights</text>
    <circle r="3" cx="175.4" cy="45.5"/>
    <text x="175.4" y="45.5">Saipan</text>
  </g>
</svg>