<?xml version="1.0" encoding="utf-8"?>
<!DOCTYPE svg PUBLIC "-//W3C//DTD SVG 1.1//EN" "http://www.w3.org/Graphics/SVG/1.1/DTD/svg11.dtd">
<svg version="1.1" xmlns="http://www.w3.org/2000/svg" width="624" height="1000" viewBox="0 0 624 1000">
  <path class="state" d="M15,911l12,-25 12,-7v-18l16,-16 20,-10 25,-3 16,-13 23,-10 25,3 4,7 22,-2 31,8 8,13 7,19 -2,21 -15,25 1,8 -8,12 -10,7 -18,5 -10,15 -17,8 -20,5 -10,-3 -14,10 -14,5 -12,-5 -20,3 -4,-4 -20,-2 -14,-10 -9,-14 -4,-13ZM60,916l5,-2 10,-14 18,11 -1,10 15,-4h18l11,-10 -1,-9 7,-6h22l9,-8 5,-18 -4,-5 -32,-4 -15,7 -10,10 -19,5h-11ZM493,265v17l3,20 -12,39 -25,32 -16,10 -13,2 -14,27 -11,13 -17,14 -21,6 -21,1 -17,-5 -17,-14 -11,-28 2,-20 13,-25 44,-23 8,-2 -16,-11 -11,-16 -8,-20v-20l4,-21 11,-23 26,-26 53,-10 13,-16 13,-26v-26l3,-10 31,-47 32,-26 14,-6 35,2 16,13 15,20 8,24 -2,13 -18,44 -3,33v10l-11,9 -12,3 -11,20 -21,13 -32,6ZM496,171l11,-7 6,9h11l4,-10 -11,-17v-15l19,-19 6,-18 7,2 3,-11 -7,-9 -7,-2 -15,14 -7,13 -15,5 -19,19 -9,1 1,15 -8,25 6,6 14,3ZM381,270l3,2 -1,14 15,2 6,21 11,6 -2,9 4,13h5l7,-14 9,-4 -2,-6 8,-37 -11,-7 -7,-14v-7l8,-7 -2,-22 -8,-10 -19,18 -20,28ZM350,393l18,1 10,-7v-8l-26,9Z"/>
  <g class="counties">
    <path data-fips-int="69100" data-name="Rota" d="M15,911l12,-25 12,-7v-18l16,-16 20,-10 25,-3 16,-13 23,-10 25,3 4,7 22,-2 31,8 8,13 7,19 -2,21 -15,25 1,8 -8,12 -10,7 -18,5 -10,15 -17,8 -20,5 -10,-3 -14,10 -14,5 -12,-5 -20,3 -4,-4 -20,-2 -14,-10 -9,-14 -4,-13ZM60,916l5,-2 10,-14 18,11 -1,10 15,-4h18l11,-10 -1,-9 7,-6h22l9,-8 5,-18 -4,-5 -32,-4 -15,7 -10,10 -19,5h-11Z"/>
    <path data-fips-int="69110" data-name="Saipan" d="M493,265l-56,-44 -5,-9 -9,-8 -49,-12 53,-10 13,-16 13,-26v-26l3,-10 31,-47 32,-26 14,-6 35,2 16,13 15,20 8,24 -2,13 -18,44 -3,33v10l-11,9 -12,3 -11,20 -21,13 -32,6ZM496,171l11,-7 6,9h11l4,-10 -11,-17v-15l19,-19 6,-18 7,2 3,-11 -7,-9 -7,-2 -15,14 -7,13 -15,5 -19,19 -9,1 1,15 -8,25 6,6 14,3Z"/>
    <path data-fips-int="69120" data-name="Tinian" d="M374,192l49,12 9,8 5,9 56,44v17l3,20 -12,39 -25,32 -16,10 -13,2 -14,27 -11,13 -17,14 -21,6 -21,1 -17,-5 -17,-14 -11,-28 2,-20 13,-25 44,-23 8,-2 -16,-11 -11,-16 -8,-20v-20l4,-21 11,-23ZM381,270l3,2 -1,14 15,2 6,21 11,6 -2,9 4,13h5l7,-14 9,-4 -2,-6 8,-37 -11,-7 -7,-14v-7l8,-7 -2,-22 -8,-10 -19,18 -20,28ZM350,393l18,1 10,-7v-8l-26,9Z"/>
  </g>
  <path class="mesh" d="M493,265l-56,-44 -5,-9 -9,-8 -49,-12"/>
  <g class="cities">
    <circle r="7" cx="428" cy="306"/>
    <text x="428" y="306">Carolinas Heights</text>
    <circle r="7" cx="500" cy="130"/>
    <text x="500" y="130">Saipan</text>
  </g>
</svg>