<?xml version="1.0" encoding="utf-8"?>
<!DOCTYPE svg PUBLIC "-//W3C//DTD SVG 1.1//EN" "http://www.w3.org/Graphics/SVG/1.1/DTD/svg11.dtd">
<svg version="1.1" xmlns="http://www.w3.org/2000/svg" width="617" height="1000" viewBox="0 0 617 1000">
  <path class="state" d="M201,812h-86l-86,-1 -12,-1 10,-4 2,-9 -10,-13 6,-11 -10,-13 22,-3 3,-9 -7,-6 -5,-13 7,-4 6,14 5,-4 -7,-13 1,-17 17,-5 -2,-7 -9,3 -7,-7 4,-5 10,6 6,-2 1,-17 5,-7h8l-8,-2 4,-17 9,-2 3,9 3,-12 12,-9 3,-13 10,-1 4,-9 -11,-2 -1,-7 9,7 12,-14 5,-5 -10,-8 1,11 -19,-2 1,-13 17,-3 2,-5 11,5 1,-15 10,-2v-7l-15,-4 5,-17 -8,2 -9,-2 -6,-10 4,-10 7,10 9,-4 -13,-5 6,-6 7,-10 -4,-4 -5,7 -11,5 -5,-12 14,-9 -1,-9h-11l-1,-19 12,-10 2,-8 -4,-11 -8,1 1,9 -11,4 -2,-6 7,-15 7,-10 -12,-8 2,-6h17l-1,-17 8,-10 -7,-1 -2,9 -7,-13 1,-10 13,-14 -5,-5 -3,9 -11,4 -4,-8 11,-1 3,-7 -9,-7v9l-8,4 5,-16 -4,-3 -2,-8 16,-7 -7,-9 -8,-2 1,-8 9,-1 11,10 9,-3 -3,-9 -12,1 -1,-14 17,4 7,-6 -8,-4 -5,-9 9,-12 -10,-6v-7l10,-3 9,6 -4,-9 16,-1 3,-11 -14,-8 8,-9 13,6 1,-10 -15,-2 -2,-10 13,7 4,-13h10l3,-7 -1,-11 10,1 5,10v-13l15,-7 -3,-11 3,-10 4,-7 -7,-10v-12l11,9 9,-11 -17,-8 9,-17 -1,16 8,1 2,-19 -4,-11 8,-3 2,12 19,-7 10,-9 -2,-8 -9,-10h339l9,13 8,6 -3,49 -5,36 -6,74 -6,68 -8,89 -6,72 -6,69 -6,68 -6,66 5,90 5,86 3,52 4,76 -13,6 -16,-5 4,-9 -11,-4v8l-16,6 -30,-17 -22,1 22,2 4,4h-21l-18,5 -27,12 -16,-12 -6,6 9,4 -17,14 -4,9 -13,6 -9,-1 -7,-9 -2,-17 -10,-20v-9l-10,-7 -13,-21 -3,-23 4,-12 8,-15 -1,-8 8,-21h-18l-71,1Z"/>
  <g class="counties">
    <path data-fips-int="28001" data-name="Adams County" d="M100,691l-1,52 -20,-4 -25,10 -8,-1 -3,18 -8,-3 -10,10 -10,-13 22,-3 3,-9 -7,-6 -5,-13 7,-4 6,14 5,-4 -7,-13 1,-17 17,-5 -2,-7 -9,3 -7,-7 4,-5 10,6 6,-2 1,-17 5,-7h8l3,15 11,8h13Z"/>
    <path data-fips-int="28003" data-name="Alcorn County" d="M558,25v46l-57,1h-6v-20h-11v-27h71Z"/>
    <path data-fips-int="28005" data-name="Amite County" d="M187,743h14v69h-86v-56l-6,-8 19,-5Z"/>
    <path data-fips-int="28007" data-name="Attala County" d="M383,363h23v69h-63l-5,10 -39,1 12,-11 2,-13 10,-12 -1,-10 13,-21 8,-13h9Z"/>
    <path data-fips-int="28009" data-name="Benton County" d="M441,104h-25v3h-9v-51h-8v-31h54v27l-3,10h-9Z"/>
    <path data-fips-int="28011" data-name="Bolivar County" d="M187,224l-1,73h-17v18l-20,-1h-54l-2,-8 16,-7 -7,-9 -8,-2 1,-8 9,-1 11,10 9,-3 -3,-9 -12,1 -1,-14 17,4 7,-6 -8,-4 -5,-9 9,-12 -10,-6v-7l10,-3 9,6 -4,-9 16,-1 3,-11 -14,-8 48,1Z"/>
    <path data-fips-int="28015" data-name="Carroll County" d="M329,286v51l23,3v23h-9l-8,13 -71,-22v-17h7v-8h6v-40l-4,-3Z"/>
    <path data-fips-int="28017" data-name="Chickasaw County" d="M485,207h17l1,51h-35v12l-17,2 -25,2v-16h8v-51Z"/>
    <path data-fips-int="28019" data-name="Choctaw County" d="M443,314l1,48h-4v18h-17v17h-17v-34h-23v-29l12,-5 12,-9 21,-6Z"/>
    <path data-fips-int="28023" data-name="Clarke County" d="M554,569l-6,66 -26,9 -21,3 -26,2 -1,-78Z"/>
    <path data-fips-int="28025" data-name="Clay County" d="M503,258v26h37l-3,6 6,10 -5,11 -16,7h-10l-1,-11 -57,1 -3,-36 17,-2v-12Z"/>
    <path data-fips-int="28027" data-name="Coahoma County" d="M220,208v17l-33,-1 -1,-25 -48,-1 8,-9 13,6 1,-10 -15,-2 -2,-10 13,7 4,-13h10l3,-7 -1,-11 10,1 5,10v-13l15,-7 -3,-11 3,-10 27,19v33h-8Z"/>
    <path data-fips-int="28029" data-name="Copiah County" d="M255,606l9,29 6,2 4,20 -1,7 -20,7 -6,4h-77v-17l4,-14v-38h68Z"/>
    <path data-fips-int="28031" data-name="Covington County" d="M393,656l1,71h-31l-3,-21 -26,-13v-32l17,-2Z"/>
    <path data-fips-int="28033" data-name="DeSoto County" d="M339,25v45h-31l-7,10h-7l-7,3 -20,-11 -6,8v-28h-16l10,-9 -2,-8 -9,-10Z"/>
    <path data-fips-int="28035" data-name="Forrest County" d="M437,727v57l2,46h-35l-1,-20v-66h-17l-1,-17h9Z"/>
    <path data-fips-int="28037" data-name="Franklin County" d="M170,692h17v51h-59l-19,5 -10,-5 1,-52Z"/>
    <path data-fips-int="28039" data-name="George County" d="M558,811l3,52 -79,1 -1,-35h9v-17h59Z"/>
    <path data-fips-int="28041" data-name="Greene County" d="M553,725l5,86 -9,1h-61v-86Z"/>
    <path data-fips-int="28043" data-name="Grenada County" d="M374,248l1,29v9h-102l-2,-9v-17l35,-3v-15h26v7Z"/>
    <path data-fips-int="28049" data-name="Hinds County" d="M282,537l-15,18 -9,15 3,6 -8,5 -1,11 3,14h-81l-2,-35 7,-26 10,3 -1,-7 6,-9v-12l8,-4 5,-1 12,-12v17h34v17Z"/>
    <path data-fips-int="28051" data-name="Holmes County" d="M264,354l71,22 -13,21 1,10 -10,12 -2,13 -12,11 -61,-26h-4l-3,-7 -8,-3v-11l16,-3v-34l9,-8 -7,-5Z"/>
    <path data-fips-int="28053" data-name="Humphreys County" d="M239,359v34l-16,3v11l8,3 3,7h-14l-1,17h-33l-1,-34h-7l2,-24 -7,-3 3,-7h27v-12h16v13l14,6Z"/>
    <path data-fips-int="28055" data-name="Issaquena County" d="M143,417v13l-9,23v32h40l1,8 -2,10 -22,-1v26l-13,-2 -5,8 1,-32h-13l7,-10 -4,-4 -5,7 -11,5 -5,-12 14,-9 -1,-9h-11l-1,-19 12,-10 2,-8 -4,-11 -8,1 1,9 -11,4 -2,-6 7,-15Z"/>
    <path data-fips-int="28057" data-name="Itawamba County" d="M565,129h27l-6,74h-55l-1,-74Z"/>
    <path data-fips-int="28061" data-name="Jasper County" d="M474,571l1,78 -5,1 -63,5 -1,-29v-55Z"/>
    <path data-fips-int="28063" data-name="Jefferson County" d="M170,658v34l-70,-1v-4h-13l-11,-8 -3,-15 -8,-2 4,-17 9,-2 3,9 3,-12 40,2 27,6v9Z"/>
    <path data-fips-int="28065" data-name="Jefferson Davis County" d="M363,727h-40v9h-23v-26h-3l1,-47 36,-2v32l26,13Z"/>
    <path data-fips-int="28067" data-name="Jones County" d="M471,726l-34,1h-43l-1,-71 14,-1 63,-5Z"/>
    <path data-fips-int="28069" data-name="Kemper County" d="M560,501h-59l-28,1v-70h93Z"/>
    <path data-fips-int="28071" data-name="Lafayette County" d="M416,124v23l1,44h-44l1,-6 -35,-1v-70l9,-1h31l6,7h20Z"/>
    <path data-fips-int="28073" data-name="Lamar County" d="M363,727h22l1,17h17v66l-13,1 -8,5 -4,-6 -26,2 -1,-85Z"/>
    <path data-fips-int="28075" data-name="Lauderdale County" d="M560,501l-6,68 -80,2 -1,-69 28,-1Z"/>
    <path data-fips-int="28077" data-name="Lawrence County" d="M300,736l-13,-1v11l-13,-3h-21v-72l20,-7 25,-1 -1,47h3Z"/>
    <path data-fips-int="28079" data-name="Leake County" d="M406,432l1,70h-1l-9,1h-56l-3,-12v-49l5,-10Z"/>
    <path data-fips-int="28081" data-name="Lee County" d="M530,129l1,74 -29,1v3h-17v-57l5,-6v-20l9,-3h31Z"/>
    <path data-fips-int="28083" data-name="Leflore County" d="M271,277l2,9 4,3v40h-6v8h-7v17l-23,-8 7,5 -9,8 -6,14 -14,-6v-13l1,-96h41l4,7 -21,7 6,10 3,-7Z"/>
    <path data-fips-int="28085" data-name="Lincoln County" d="M253,743h-66v-51h-17v-17h77l6,-4Z"/>
    <path data-fips-int="28087" data-name="Lowndes County" d="M580,271l-8,89 -60,1v-43h10l16,-7 5,-11 -6,-10 18,-6 3,-3 9,-10Z"/>
    <path data-fips-int="28089" data-name="Madison County" d="M338,442v49l-9,9 -12,1 -12,14 -15,7 -8,7v8h-29v-17h-34v-17h8l13,-8 7,-9 14,-1 23,-13 15,-29Z"/>
    <path data-fips-int="28091" data-name="Marion County" d="M351,727l1,85h-31v-14h-14l-4,-12h-11l-5,-8v-43l13,1h23v-9Z"/>
    <path data-fips-int="28093" data-name="Marshall County" d="M399,25v31h8v51h9v17l-11,-4h-20l-6,-7h-31v-26h-9v-62Z"/>
    <path data-fips-int="28095" data-name="Monroe County" d="M531,203h55l-6,68h-13l-9,10 -3,3 -18,6 3,-6h-37v-26l-1,-51v-3Z"/>
    <path data-fips-int="28097" data-name="Montgomery County" d="M375,286v43h20l-12,5v29h-31v-23l-23,-3v-51Z"/>
    <path data-fips-int="28099" data-name="Neshoba County" d="M473,432v70h-66l-1,-70Z"/>
    <path data-fips-int="28101" data-name="Newton County" d="M473,502l1,69h-68v-69h1Z"/>
    <path data-fips-int="28103" data-name="Noxubee County" d="M572,360l-6,72h-76l-1,-70 23,-1Z"/>
    <path data-fips-int="28105" data-name="Oktibbeha County" d="M512,318v43l-23,1h-45l-1,-48v-6h11l57,-1Z"/>
    <path data-fips-int="28107" data-name="Panola County" d="M339,114v76h-34l-33,1v-21l-9,-7 -2,-42v-8l11,1Z"/>
    <path data-fips-int="28109" data-name="Pearl River County" d="M403,810l1,20v51h-34v27l-17,3v8h-7l-10,-7 -13,-21 -3,-23 4,-12 8,-15 -1,-8 8,-21h13l26,-2 4,6 8,-5Z"/>
    <path data-fips-int="28111" data-name="Perry County" d="M490,812v17h-9l-42,1 -2,-46v-57l34,-1h17v86Z"/>
    <path data-fips-int="28113" data-name="Pike County" d="M250,743v70l-49,-1v-69Z"/>
    <path data-fips-int="28115" data-name="Pontotoc County" d="M485,150v57h-51l-17,1v-17l-1,-44h52Z"/>
    <path data-fips-int="28117" data-name="Prentiss County" d="M558,71l5,4 2,54h-35v-8h-31v-17l2,-3v-29Z"/>
    <path data-fips-int="28119" data-name="Quitman County" d="M272,191v17h-52l1,-37h8v-33h16v-16l16,-1 2,42 9,7Z"/>
    <path data-fips-int="28121" data-name="Rankin County" d="M329,500l9,47v59h-83l-3,-14 1,-11 8,-5 -3,-6 9,-15 15,-18v-8l8,-7 15,-7 12,-14Z"/>
    <path data-fips-int="28123" data-name="Scott County" d="M338,491l3,12h56l9,-1v69l-9,1h-59v-25l-9,-47Z"/>
    <path data-fips-int="28125" data-name="Sharkey County" d="M178,400h7l1,34 -18,17v4l11,-1v14l-8,4 13,9 -10,4h-40v-32l9,-23v-31Z"/>
    <path data-fips-int="28127" data-name="Simpson County" d="M338,606h12l1,7v46l-17,2 -36,2 -25,1 1,-7 -4,-20 -6,-2 -9,-29Z"/>
    <path data-fips-int="28129" data-name="Smith County" d="M406,571v55l1,29 -14,1 -42,3v-46l-1,-7h-12v-34h59Z"/>
    <path data-fips-int="28131" data-name="Stone County" d="M404,881v-51h35l42,-1 1,35v12h-60v5Z"/>
    <path data-fips-int="28133" data-name="Sunflower County" d="M220,225v33l-1,96h-16v12h-27l-8,-1 1,-50v-18h17l1,-73Z"/>
    <path data-fips-int="28135" data-name="Tallahatchie County" d="M305,190l1,5v62l-35,3v17l-18,-2 -3,7 -6,-10 21,-7 -4,-7h-41v-50h52v-17Z"/>
    <path data-fips-int="28137" data-name="Tate County" d="M339,70v17h9v26l-9,1h-67l-11,-1 -6,-11 3,-7 -1,-10 4,-5 6,-8 20,11 7,-3h7l7,-10Z"/>
    <path data-fips-int="28139" data-name="Tippah County" d="M501,72v29l-2,3h-58v-42h9l3,-10v-27h31v27h11v20Z"/>
    <path data-fips-int="28141" data-name="Tishomingo County" d="M592,129h-27l-2,-54 -5,-4v-46h25l9,13 8,6 -3,49Z"/>
    <path data-fips-int="28143" data-name="Tunica County" d="M245,52h16v28l-4,5 1,10 -3,7 6,11v8l-16,1v16h-16l-27,-19 4,-7 -7,-10v-12l11,9 9,-11 -17,-8 9,-17 -1,16 8,1 2,-19 -4,-11 8,-3 2,12Z"/>
    <path data-fips-int="28145" data-name="Union County" d="M499,104v17l-9,3v20l-5,6 -17,-3h-52v-43h25Z"/>
    <path data-fips-int="28147" data-name="Walthall County" d="M287,746v32l5,8h11l4,12h14v14l-71,1v-70h24Z"/>
    <path data-fips-int="28149" data-name="Warren County" d="M202,516l-8,4v12l-6,9 1,7 -10,-3 -7,26 -10,9 3,5 -13,5 -11,-1v10l-19,-7 5,-5 -10,-8 1,11 -19,-2 1,-13 17,-3 2,-5 11,5 1,-15 10,-2v-7l-15,-4 5,-17 -8,2 -9,-2 -6,-10 4,-10 7,10 9,-4 -13,-5 6,-6h13l-1,32 5,-8 13,2v-26l22,1 2,-10 10,6v9l11,1Z"/>
    <path data-fips-int="28151" data-name="Washington County" d="M169,315l-1,50 8,1 -3,7 7,3 -2,24 -35,-1v18l-42,-2 7,-10 -12,-8 2,-6h17l-1,-17 8,-10 -7,-1 -2,9 -7,-13 1,-10 13,-14 -5,-5 -3,9 -11,4 -4,-8 11,-1 3,-7 -9,-7v9l-8,4 5,-16 -4,-3h54Z"/>
    <path data-fips-int="28153" data-name="Wayne County" d="M553,725l-65,1h-17l-1,-76 5,-1 26,-2 21,-3 26,-9Z"/>
    <path data-fips-int="28155" data-name="Webster County" d="M454,308h-11v6h-15l-21,6 -12,9h-20v-52l51,-1v-2l25,-2Z"/>
    <path data-fips-int="28157" data-name="Wilkinson County" d="M99,743l10,5 6,8v56l-86,-1 -12,-1 10,-4 2,-9 -10,-13 6,-11 10,-10 8,3 3,-18 8,1 25,-10Z"/>
    <path data-fips-int="28159" data-name="Winston County" d="M489,362l1,70h-84v-35h17v-17h17v-18h4Z"/>
    <path data-fips-int="28161" data-name="Yalobusha County" d="M373,191l1,57 -42,1v-7h-26v-47l-1,-5h34v-6l35,1Z"/>
    <path data-fips-int="28163" data-name="Yazoo County" d="M299,443l-15,29 -23,13 -14,1 -7,9 -13,8h-8l-12,12 -5,1 -6,-7 -11,-1v-9l-10,-6 -1,-8 10,-4 -13,-9 8,-4v-14l-11,1v-4l18,-17h33l1,-17h18Z"/>
    <path data-fips-int="28021" data-name="Claiborne County" d="M172,571l2,35v38l-4,14 -19,-1v-9l-27,-6 -40,-2 12,-9 3,-13 10,-1 4,-9 -11,-2 -1,-7 9,7 12,-14 19,7v-10l11,1 13,-5 -3,-5Z"/>
    <path data-fips-int="28045" data-name="Hancock County" d="M404,881l1,55 -6,6 9,4 -17,14 -4,9 -13,6 -9,-1 -7,-9 -2,-17 -10,-20v-9h7v-8l17,-3v-27Z"/>
    <path data-fips-int="28047" data-name="Harrison County" d="M482,876l1,48 -22,1 22,2 4,4h-21l-18,5 -27,12 -16,-12 -1,-55h18v-5Z"/>
    <path data-fips-int="28059" data-name="Jackson County" d="M561,863l4,76 -13,6 -16,-5 4,-9 -11,-4v8l-16,6 -30,-17 -1,-48v-12Z"/>
    <path data-fips-int="28013" data-name="Calhoun County" d="M417,191v17l17,-1v51h-8v18l-51,1 -1,-29 -1,-57Z"/>
  </g>
  <path class="mesh" d="M558,25v46l-57,1h-6v-20h-11v-27M115,812v-56l-6,-8 19,-5h73v69M453,25v27l-3,10h-9v42h-25v3h-9v-51h-8v-31M138,198l48,1 1,25 -1,73h-17v18l-20,-1h-54M335,376l-71,-22v-17h7v-8h6v-40l-4,-3h56v51l23,3v23M383,363h23v69h-63l-5,10 -39,1 12,-11 2,-13 10,-12 -1,-10 13,-21 8,-13h40v-29l12,-5 12,-9 21,-6h15l1,48h-4v18h-17v17h-17M548,635l-26,9 -21,3 -26,2 -1,-78 80,-2M503,258v26h37l-3,6 6,10 -5,11 -16,7h-10l-1,-11 -57,1 -3,-36M202,119l27,19v33h-8l-1,37v17l-33,-1M329,500l9,47v59h-83M339,25v45h-31l-7,10h-7l-7,3 -20,-11 -6,8v-28h-16M394,727h43v57l2,46h-35l-1,-20v-66h-17l-1,-17M100,691l70,1h17v51M561,863l-79,1 -1,-35h9v-17h59l9,-1M490,812h-2v-86l65,-1M273,286l-2,-9v-17l35,-3v-15h26v7l42,-1 1,29v9h-46M219,503h8l13,-8 7,-9 14,-1 23,-13 15,-29 -61,-26h-4l-3,-7 -8,-3v-11l16,-3v-34l9,-8 -7,-5 23,8M234,417h-14l-1,17h-33l-1,-34h-7l2,-24 -7,-3 3,-7h27v-12h16v13l14,6 6,-14M101,415l42,2v13l-9,23v32h40l1,8 -2,10 -22,-1v26l-13,-2 -5,8 1,-32h-13M586,203h-55l-1,-74h62M170,675v17M84,640l40,2 27,6v9l19,1M363,727h-40v9h-23v-26h-3l1,-47 36,-2M470,650l1,76 -34,1M393,656l1,71h-31l-3,-21 -26,-13v-32l17,-2 42,-3 14,-1M560,501h-59l-28,1v-70h93M416,107v40l1,44h-44l1,-6 -35,-1v-70l9,-1h31l6,7h20l11,4M403,810l-13,1 -8,5 -4,-6 -26,2 -1,-85M300,736l-13,-1v11l-13,-3h-21v-72M273,664l25,-1M406,432l1,70h-1l-9,1h-56l-3,-12v-49M531,203l-29,1v3M485,207h17l1,51h-35v12l-17,2 -25,2v-16h8v-51h51v-57l5,-6v-20l9,-3h31v8M219,354l1,-96h41l4,7 -21,7 6,10 3,-7 18,2M253,743h-52M572,360l-60,1v-43M109,748l-10,-5 -20,-4 -25,10 -8,-1 -3,18 -8,-3 -10,10M537,290l18,-6 3,-3 9,-10h13M338,491l-9,9 -12,1 -12,14 -15,7 -8,7v8M352,812h-13M321,812v-14h-14l-4,-12h-11l-5,-8v-32M348,113v-26h-9v-17M375,286v43h20M475,649l-5,1 -63,5 -1,-29v-55h68l-1,-69h-66M406,432h67M406,571v-69M490,432l-1,-70 23,-1M489,362h-45M443,314v-6h11M339,184v6h-34l-33,1v-21l-9,-7 -2,-42v-8l11,1h67M404,830v51h-34v27l-17,3v8h-7M481,829l-42,1M471,726h17M250,743v70M434,207l-17,1v-17M416,147h52l17,3M558,71l5,4 2,54M499,121v-17l2,-3v-29M272,191v17h-52M229,138h16v-16l16,-1M406,571l-9,1h-59M186,434l-18,17v4l11,-1v14l-8,4 13,9 -10,4M143,417v-18l35,1M338,606h12l1,7v46M220,225v33M176,366l-8,-1 1,-50M305,190l1,5v47M261,113l-6,-11 3,-7 -1,-10 4,-5M499,104h-58M172,571l-10,9 3,5 -13,5 -11,-1v10l-19,-7M175,493l10,6v9l11,1 6,7M375,277l51,-1v-2M373,191l1,57M482,864v12h-60v5h-18l1,55M482,876l1,48M73,664l3,15 11,8h13v4l-1,52M174,606l-2,-35 7,-26 10,3 -1,-7 6,-9v-12l8,-4 5,-1 12,-12v17h34v17h29l-15,18 -9,15 3,6 -8,5 -1,11 3,14 9,29 6,2 4,20 -1,7 -20,7 -6,4h-77v-17l4,-14v-38h81"/>
  <g class="cities">
    <circle r="7" cx="263" cy="558"/>
    <text x="263" y="558">Jackson</text>
    <circle r="7" cx="447" cy="937"/>
    <text x="447" y="937">Gulfport</text>
    <circle r="7" cx="293" cy="28"/>
    <text x="293" y="28">Southaven</text>
  </g>
</svg>