<?xml version="1.0" encoding="utf-8"?>
<!DOCTYPE svg PUBLIC "-//W3C//DTD SVG 1.1//EN" "http://www.w3.org/Graphics/SVG/1.1/DTD/svg11.dtd">
<svg version="1.1" xmlns="http://www.w3.org/2000/svg" width="216" height="350" viewBox="0 0 216 350">
  <defs>
    <pattern id="pattern-no-results" width="50" height="50" patternUnits="userSpaceOnUse">
      <rect width="50" height="50" fill="#ddd"/>
      <path d="M-5,5L5,-5M-5,55L55,-5M45,55L55,45" stroke-width="10" stroke="#ffffff"/>
    </pattern>
  </defs>
  <g class="counties" transform="scale(0.1)">
    <path data-fips-int="28001" data-name="Adams County" d="M256,2324l11,52 3,1 35,30 47,0 0,14 -5,179 -68,-15 -89,37 -26,-3 -1,21 -5,28 -32,22 -25,-8 -9,23 -36,-35 8,-18 45,5 27,-10 4,-25 -22,-25 -17,-38 18,-20 24,48 23,-8 -26,-40 0,-68 57,-17 -1,-27 -37,9 -20,-19 14,-23 32,23 22,-5 2,-63 16,-23Z"/>
    <path data-fips-int="28003" data-name="Alcorn County" d="M1954,87l1,166 -200,2 -19,0 0,-70 -40,0 -1,-95Z"/>
    <path data-fips-int="28005" data-name="Amite County" d="M655,2604l51,0 -2,241 -302,-4 3,-194 -14,-12 -1,-8 -6,-7 -1,0 1,0 65,-20Z"/>
    <path data-fips-int="28007" data-name="Attala County" d="M1344,1271l79,0 0,122 0,121 -235,0 -3,32 -136,5 38,-34 5,-28 39,-65 0,-36 42,-67 29,-50 31,0Z"/>
    <path data-fips-int="28009" data-name="Benton County" d="M1547,366l-89,2 0,8 -30,2 -1,-181 -31,0 0,-102 189,-3 1,95 -10,30 -30,0Z"/>
    <path data-fips-int="28011" data-name="Bolivar County" d="M655,787l-3,255 -60,0 0,60 -259,-4 -10,-20 59,-30 -23,-31 -29,-9 10,-28 25,-1 47,33 25,-10 -19,-32 -28,9 -18,-19 7,-35 79,10 -1,-21 -25,-10 -15,-29 31,-41 -40,-32 41,-26 9,23 23,-8 -15,-27 53,-3 15,-40 -48,-27 -1,0 1,0 167,2Z"/>
    <path data-fips-int="28015" data-name="Carroll County" d="M1152,1002l1,179 80,10 0,80 -31,0 -29,50 -245,-83 0,-57 23,0 0,-29 20,0 0,-100 -8,0 -1,0 1,0 -2,-44 -5,-6Z"/>
    <path data-fips-int="28017" data-name="Chickasaw County" d="M1699,726l61,-2 1,181 -120,2 0,40 -59,0 1,10 -91,2 0,-52 31,0 -2,-180Z"/>
    <path data-fips-int="28019" data-name="Choctaw County" d="M1552,1100l1,170 -11,0 1,60 -61,1 0,60 -59,2 0,-122 -79,0 -1,-101 42,-20 72,-42Z"/>
    <path data-fips-int="28023" data-name="Clarke County" d="M1942,1995l-22,229 -92,29 -164,21 -3,-274Z"/>
    <path data-fips-int="28025" data-name="Clay County" d="M1761,905l2,92 130,-2 -12,20 23,33 -10,42 -57,20 -45,5 -1,-40 -200,3 -8,-50 0,-71 -1,-10 59,0 0,-40Z"/>
    <path data-fips-int="28027" data-name="Coahoma County" d="M773,729l-1,60 -117,-2 -2,-91 -167,-2 -1,0 27,-31 41,19 11,-33 -39,0 -28,-35 49,20 11,-41 38,-9 14,-18 -9,-42 46,-1 -10,33 20,2 0,-39 53,-38 -13,-26 12,-39 95,70 0,113 -29,-1Z"/>
    <path data-fips-int="28029" data-name="Copiah County" d="M893,2123l-9,12 33,53 34,66 -16,9 28,38 -7,27 -71,23 -19,11 -269,0 1,-59 11,-40 0,-142Z"/>
    <path data-fips-int="28031" data-name="Covington County" d="M1379,2296l2,249 -31,0 -79,2 -8,-68 -92,-53 0,-113 60,-5Z"/>
    <path data-fips-int="28033" data-name="DeSoto County" d="M1187,95l0,153 -107,0 -25,32 -23,5 -35,-3 -6,0 -23,-14 -36,-3 -1,0 -14,17 0,-95 -59,0 35,-37 -1,-20 -36,-38Z"/>
    <path data-fips-int="28035" data-name="Forrest County" d="M1529,2545l2,298 5,63 -119,0 -6,-68 0,-233 -60,2 -1,-62 31,0Z"/>
    <path data-fips-int="28037" data-name="Franklin County" d="M596,2422l60,0 -1,182 -206,-4 -65,20 -1,0 -26,-15 -10,-5 5,-179Z"/>
    <path data-fips-int="28039" data-name="George County" d="M1956,2840l10,181 -279,2 -1,-118 30,0 -1,-62Z"/>
    <path data-fips-int="28041" data-name="Greene County" d="M1939,2540l17,300 -241,3 -4,0 -3,-299Z"/>
    <path data-fips-int="28043" data-name="Grenada County" d="M1311,870l1,100 0,32 -160,0 -196,0 -4,-30 0,-62 90,0 29,-11 0,-49 91,0 0,20Z"/>
    <path data-fips-int="28049" data-name="Hinds County" d="M990,1882l1,0 -1,0 -53,68 -9,8 -3,2 -16,27 6,43 -29,6 -3,44 10,43 -284,-2 -5,-121 6,-20 8,-43 1,-22 44,7 8,-49 9,-11 7,-48 21,-9 31,-10 29,-35 0,60 119,0 0,62Z"/>
    <path data-fips-int="28051" data-name="Holmes County" d="M928,1238l245,83 -42,67 0,36 -39,65 -5,28 -38,34 -211,-88 -19,-4 -13,-26 -25,-5 -1,-27 59,-27 0,-114 26,-9 -5,-33Z"/>
    <path data-fips-int="28053" data-name="Humphreys County" d="M817,1301l-5,-28 27,-13 0,114 -59,27 1,27 25,5 13,26 -49,0 -2,62 -118,-2 0,-120 -16,0 -9,0 -1,0 1,0 9,0 -9,-16 14,-53 -32,-24 10,-28 93,3 0,-41 58,0 0,43 24,22Z"/>
    <path data-fips-int="28055" data-name="Issaquena County" d="M501,1459l0,45 -29,72 -2,121 140,0 19,18 -18,14 -5,36 -76,-6 -1,81 -52,7 -7,21 0,-111 -47,0 25,-28 -15,-20 -14,26 -44,14 -13,-39 47,-30 8,-24 -42,-7 -13,-15 7,-57 45,-46 -12,-50 -28,-3 2,34 -26,19 -23,-17 30,-58Z"/>
    <path data-fips-int="28057" data-name="Itawamba County" d="M1979,455l98,-2 -23,259 -193,2 -3,-259Z"/>
    <path data-fips-int="28061" data-name="Jasper County" d="M1661,2000l3,274 -18,2 -218,17 -3,-50 -2,-242Z"/>
    <path data-fips-int="28063" data-name="Jefferson County" d="M598,2303l-1,59 -1,60 -244,-1 0,-14 -47,0 -35,-30 -3,-1 -11,-52 20,-16 -47,8 13,-58 30,-10 7,31 21,-13 -1,-25 137,7 91,25 2,30Z"/>
    <path data-fips-int="28065" data-name="Jefferson Davis County" d="M1263,2479l8,68 -40,0 -100,0 0,30 -79,0 0,-91 -10,0 1,-165 128,-8 0,113Z"/>
    <path data-fips-int="28067" data-name="Jones County" d="M1648,2544l-119,1 -148,0 -2,-249 49,-3 218,-17Z"/>
    <path data-fips-int="28069" data-name="Kemper County" d="M1963,1752l-305,5 -2,-243 59,0 268,-3Z"/>
    <path data-fips-int="28071" data-name="Lafayette County" d="M1369,416l43,0 46,22 1,80 1,148 -151,0 0,-18 -120,0 0,-250 30,0 107,0Z"/>
    <path data-fips-int="28073" data-name="Lamar County" d="M1271,2547l79,-2 1,62 60,-2 0,233 -44,0 -1,18 -29,0 -16,-23 -30,10 -59,0 -1,-296Z"/>
    <path data-fips-int="28075" data-name="Lauderdale County" d="M1963,1752l-21,243 -281,5 -3,-243Z"/>
    <path data-fips-int="28077" data-name="Lawrence County" d="M1052,2577l-48,-3 0,40 -40,-10 -80,0 1,-253 71,-23 87,-7 -1,165 10,0Z"/>
    <path data-fips-int="28079" data-name="Leake County" d="M1423,1514l2,245 -3,0 -236,0 -1,-39 0,-174 3,-32Z"/>
    <path data-fips-int="28081" data-name="Lee County" d="M1858,455l3,259 -101,0 0,10 -61,2 -1,-200 20,-20 -2,-71 31,-9 111,-3Z"/>
    <path data-fips-int="28083" data-name="Leflore County" d="M952,972l4,30 5,6 2,44 -1,0 1,0 8,0 0,100 -20,0 0,29 -23,0 0,57 -68,-20 5,33 -26,9 -27,13 5,28 -25,4 -24,-22 0,-43 3,-333 154,3 -6,34 -34,-2 -33,18 5,27 28,-22Z"/>
    <path data-fips-int="28085" data-name="Lincoln County" d="M884,2604l-9,0 -169,0 -51,0 1,-182 -60,0 1,-60 269,0 19,-11Z"/>
    <path data-fips-int="28087" data-name="Lowndes County" d="M2032,949l-28,314 -209,3 -3,-151 45,-5 57,-20 10,-42 -23,-33 15,-8 0,-2 0,2 22,-4 44,-13 26,-41Z"/>
    <path data-fips-int="28089" data-name="Madison County" d="M1185,1546l0,174 -31,32 -45,3 -19,27 -20,22 -44,18 -35,60 -1,0 -103,0 0,-62 -119,0 0,-60 3,-5 34,-3 31,-17 12,-20 102,-35 27,-14 29,-29 15,-53 17,-17 11,-16Z"/>
    <path data-fips-int="28091" data-name="Marion County" d="M1231,2547l1,296 -44,0 -64,0 0,-50 -50,0 -10,-40 -39,0 -17,-30 -4,-109 0,-40 48,3 79,0 0,-30Z"/>
    <path data-fips-int="28093" data-name="Marshall County" d="M1396,95l0,102 31,0 1,181 30,-2 0,62 -46,-22 -43,0 -43,-18 -107,0 -2,-90 -27,0 -3,-60 0,-153Z"/>
    <path data-fips-int="28095" data-name="Monroe County" d="M1861,714l193,-2 -22,237 -44,0 -26,41 -44,13 -22,4 0,-2 0,2 -15,8 12,-20 -130,2 -2,-92 -1,-181 0,-10Z"/>
    <path data-fips-int="28097" data-name="Montgomery County" d="M1312,1002l1,150 72,-2 -42,20 1,101 -111,0 0,-80 -80,-10 -1,-179Z"/>
    <path data-fips-int="28099" data-name="Neshoba County" d="M1656,1514l2,243 -233,2 -2,-245Z"/>
    <path data-fips-int="28101" data-name="Newton County" d="M1658,1757l3,243 -238,1 -1,-242 3,0Z"/>
    <path data-fips-int="28103" data-name="Noxubee County" d="M2004,1263l-21,248 -268,3 -3,-246 83,-2Z"/>
    <path data-fips-int="28105" data-name="Oktibbeha County" d="M1792,1115l3,151 -83,2 -159,2 -1,-170 0,-20 39,-2 200,-3Z"/>
    <path data-fips-int="28107" data-name="Panola County" d="M1189,398l0,250 0,18 -120,0 -116,3 1,-73 -34,-23 -2,-145 0,-30Z"/>
    <path data-fips-int="28109" data-name="Pearl River County" d="M1411,2838l6,68 1,180 -120,0 0,91 -61,10 0,30 -26,0 -31,-23 -46,-68 -1,-38 -15,-17 2,-33 31,-78 37,-117 44,0 59,0 30,-10 16,23 29,0 1,-18Z"/>
    <path data-fips-int="28111" data-name="Perry County" d="M1715,2843l1,62 -30,0 -150,1 -5,-63 -2,-298 119,-1 60,0 3,299Z"/>
    <path data-fips-int="28113" data-name="Pike County" d="M875,2604l0,241 -171,0 2,-241Z"/>
    <path data-fips-int="28115" data-name="Pontotoc County" d="M1698,526l1,200 -178,1 -60,0 -1,-61 -1,-148 180,-2 0,10Z"/>
    <path data-fips-int="28117" data-name="Prentiss County" d="M1955,253l20,10 4,192 -121,0 0,-32 -111,3 0,-60 10,-1 -2,-110Z"/>
    <path data-fips-int="28119" data-name="Quitman County" d="M953,669l0,60 -180,0 1,-131 29,1 0,-113 55,0 -1,-58 61,0 2,145 34,23Z"/>
    <path data-fips-int="28121" data-name="Rankin County" d="M1154,1752l32,161 0,92 0,120 -293,-2 -10,-43 3,-44 29,-6 -6,-43 16,-27 3,-2 9,-8 53,-68 1,0 35,-60 44,-18 20,-22 19,-27Z"/>
    <path data-fips-int="28123" data-name="Scott County" d="M1185,1720l1,39 236,0 1,242 -237,4 0,-92 -32,-161Z"/>
    <path data-fips-int="28125" data-name="Sharkey County" d="M624,1399l1,0 9,0 16,0 0,120 -60,58 0,17 37,-2 4,37 -28,5 -4,20 42,21 -8,22 -23,0 -140,0 2,-121 29,-72 0,-45 1,-63Z"/>
    <path data-fips-int="28127" data-name="Simpson County" d="M1186,2125l40,0 4,23 1,160 -60,5 -128,8 -87,7 7,-27 -28,-38 16,-9 -34,-66 -33,-53 9,-12Z"/>
    <path data-fips-int="28129" data-name="Smith County" d="M1423,2001l2,242 3,50 -49,3 -148,12 -1,-160 -4,-23 -40,0 0,-120Z"/>
    <path data-fips-int="28131" data-name="Stone County" d="M1418,3086l-1,-180 119,0 150,-1 1,118 0,41 -210,2 0,20Z"/>
    <path data-fips-int="28133" data-name="Sunflower County" d="M772,789l-1,118 -3,333 -58,0 0,41 -93,-3 -27,0 2,-176 0,-60 60,0 3,-255Z"/>
    <path data-fips-int="28135" data-name="Tallahatchie County" d="M1069,666l4,16 -2,168 0,49 -29,11 -90,0 0,62 -67,-7 -28,22 -5,-27 33,-18 34,2 6,-34 -154,-3 1,-118 1,-60 180,0 0,-60Z"/>
    <path data-fips-int="28137" data-name="Tate County" d="M1187,248l3,60 27,0 2,90 -30,0 -271,0 -20,-23 10,-40 -7,-40 5,-8 11,-5 14,-17 1,0 36,3 23,14 6,0 35,3 23,-5 25,-32Z"/>
    <path data-fips-int="28139" data-name="Tippah County" d="M1755,255l2,110 -10,1 -200,0 -1,-149 30,0 10,-30 -1,-95 110,-2 1,95 40,0 0,70Z"/>
    <path data-fips-int="28141" data-name="Tishomingo County" d="M2077,453l-98,2 -4,-192 -20,-10 -1,-166 93,0 33,58 25,12Z"/>
    <path data-fips-int="28143" data-name="Tunica County" d="M858,187l59,0 0,95 -11,5 -5,8 7,40 -10,40 20,23 0,30 -61,0 1,58 -55,0 -95,-70 15,-21 -26,-40 1,-42 15,-15 3,37 17,11 35,-34 -6,-15 -37,1 -15,-18 18,-20 -6,-25 26,12 -12,28 38,-7 -12,-35 9,-26 -14,-22 26,-15 8,35Z"/>
    <path data-fips-int="28145" data-name="Union County" d="M1747,366l0,60 -31,9 2,71 -20,20 -59,0 0,-10 -180,2 -1,-80 0,-62 0,-8 89,-2Z"/>
    <path data-fips-int="28147" data-name="Walthall County" d="M1004,2614l4,109 17,30 39,0 10,40 50,0 0,50 -249,2 0,-241 9,0 80,0Z"/>
    <path data-fips-int="28149" data-name="Warren County" d="M708,1805l-21,9 -7,48 -9,11 -8,49 -44,-7 -1,22 -8,43 -6,20 -2,6 -35,25 13,15 -21,4 -27,-4 3,20 -36,-3 -4,35 -66,-23 17,-22 -34,-25 3,40 -64,-7 -1,-43 69,-31 38,16 4,-55 36,-3 23,-47 -22,22 -53,-15 14,-60 -27,10 -36,-15 -15,-21 11,-42 27,33 28,12 -5,-25 -40,-28 21,-12 47,0 0,111 7,-21 52,-7 1,-81 76,6 5,-36 38,20 0,30 39,0Z"/>
    <path data-fips-int="28151" data-name="Washington County" d="M592,1102l-2,176 27,0 -10,28 32,24 -14,53 9,16 -9,0 -1,0 -122,-3 -1,63 -144,-3 22,-37 -42,-31 7,-22 58,2 -1,-57 28,-38 -24,0 -8,27 -25,-42 0,-33 49,-54 -6,-21 -31,46 -30,5 -14,-26 39,-7 9,-18 -27,-30 -3,33 -38,9 31,-42 -18,-22Z"/>
    <path data-fips-int="28153" data-name="Wayne County" d="M1939,2540l-231,4 -60,0 -2,-268 18,-2 164,-21 92,-29Z"/>
    <path data-fips-int="28155" data-name="Webster County" d="M1591,1078l-39,2 0,20 -95,8 -72,42 -72,2 -1,-150 0,-32 180,0 0,-11 91,-2 0,71Z"/>
    <path data-fips-int="28157" data-name="Wilkinson County" d="M347,2600l10,5 26,15 1,0 6,7 1,8 14,12 -3,194 -326,-3 30,-30 -3,-21 -35,-39 24,-43 9,-23 25,8 32,-22 5,-28 1,-21 26,3 89,-37Z"/>
    <path data-fips-int="28159" data-name="Winston County" d="M1712,1268l3,246 -59,0 -233,0 0,-121 59,-2 0,-60 61,-1 -1,-60 11,0Z"/>
    <path data-fips-int="28161" data-name="Yalobusha County" d="M1309,666l2,204 -149,0 0,-20 -91,0 2,-168 -4,-16 120,0 0,-18 120,0Z"/>
    <path data-fips-int="28163" data-name="Yazoo County" d="M1049,1551l-11,16 -17,17 -15,53 -29,29 -27,14 -102,35 -12,20 -31,17 -34,3 -3,5 -29,35 -31,10 -20,-26 -39,0 0,-30 -38,-20 18,-14 -19,-18 23,0 8,-22 -42,-21 4,-20 28,-5 -4,-37 -37,2 0,-17 60,-58 118,2 2,-62 49,0 19,4Z"/>
    <path data-fips-int="28021" data-name="Claiborne County" d="M604,2000l5,121 0,142 -11,40 -69,0 -2,-30 -91,-25 -137,-7 38,-33 10,-43 37,-5 8,-32 -34,-8 11,-22 18,22 42,-45 66,23 4,-35 36,3 -3,-20 27,4 21,-4 -13,-15 35,-25Z"/>
    <path data-fips-int="28045" data-name="Hancock County" d="M1418,3086l1,190 -23,23 34,17 -56,39 -17,49 -51,-5 -26,10 -26,-34 -14,-53 9,-6 -35,-62 -3,-37 26,0 0,-30 61,-10 0,-91Z"/>
    <path data-fips-int="28047" data-name="Harrison County" d="M1687,3064l3,173 -73,2 88,13 -2,9 -77,3 -52,12 -101,43 -26,-12 24,-11 -52,-20 -1,-190 59,0 0,-20Z"/>
    <path data-fips-int="28059" data-name="Jackson County" d="M1966,3021l17,265 -48,-10 14,20 -34,11 -35,-15 -13,-38 -15,18 -54,20 -30,-1 -17,-24 -61,-30 -3,-173 0,-41Z"/>
    <path data-fips-int="28013" data-name="Calhoun County" d="M1460,666l1,61 60,0 2,180 -31,0 0,52 0,11 -180,0 -1,-100 -2,-204Z"/>
  </g>
  <g class="cities">
    <circle r="3" cx="92.1" cy="195.2"/>
    <text x="92.1" y="195.2">Jackson</text>
    <circle r="3" cx="156.7" cy="327.9"/>
    <text x="156.7" y="327.9">Gulfport</text>
    <circle r="3" cx="102.4" cy="9.9"/>
    <text x="102.4" y="9.9">Southaven</text>
  </g>
</svg>