<?xml version="1.0" encoding="utf-8"?>
<!DOCTYPE svg PUBLIC "-//W3C//DTD SVG 1.1//EN" "http://www.w3.org/Graphics/SVG/1.1/DTD/svg11.dtd">
<svg version="1.1" xmlns="http://www.w3.org/2000/svg" width="216" height="350" viewBox="0 0 216 350">
  <path class="state" transform="scale(0.1)" d="M1690,3237l-73,2 88,13 -2,9 -77,3 -52,12 -101,43 -26,-12 24,-11 -52,-20 -23,23 34,17 -56,39 -17,49 -51,-5 -26,10 -26,-34 -14,-53 9,-6 -35,-62 -3,-37 -31,-23 -46,-68 -1,-38 -15,-17 2,-33 31,-78 37,-117h-64l-249,2h-171l-302,-4 -326,-3 30,-30 -3,-21 -35,-39 24,-43 -36,-35 8,-18 45,5 27,-10 4,-25 -22,-25 -17,-38 18,-20 24,48 23,-8 -26,-40v-68l57,-17 -1,-27 -37,9 -20,-19 14,-23 32,23 22,-5 2,-63 16,-23 31,-2 20,-16 -47,8 13,-58 30,-10 7,31 21,-13 -1,-25 38,-33 10,-43 37,-5 8,-32 -34,-8 11,-22 18,22 42,-45 17,-22 -34,-25 3,40 -64,-7 -1,-43 69,-31 38,16 4,-55 36,-3 23,-47 -22,22 -53,-15 14,-60 -27,10 -36,-15 -15,-21 11,-42 27,33 28,12 -5,-25 -40,-28 21,-12 25,-28 -15,-20 -14,26 -44,14 -13,-39 47,-30 8,-24 -42,-7 -13,-15 7,-57 45,-46 -12,-50 -28,-3 2,34 -26,19 -23,-17 30,-58 22,-37 -42,-31 7,-22 58,2 -1,-57 28,-38h-24l-8,27 -25,-42v-33l49,-54 -6,-21 -31,46 -30,5 -14,-26 39,-7 9,-18 -27,-30 -3,33 -38,9 31,-42 -18,-22 -10,-20 59,-30 -23,-31 -29,-9 10,-28 25,-1 47,33 25,-10 -19,-32 -28,9 -18,-19 7,-35 79,10 -1,-21 -25,-10 -15,-29 31,-41 -40,-32 41,-26 9,23 23,-8 -15,-27 53,-3 15,-40 -48,-27h-1l27,-31 41,19 11,-33h-39l-28,-35 49,20 11,-41 38,-9 14,-18 -9,-42 46,-1 -10,33 20,2v-39l53,-38 -13,-26 12,-39 15,-21 -26,-40 1,-42 15,-15 3,37 17,11 35,-34 -6,-15 -37,1 -15,-18 18,-20 -6,-25 26,12 -12,28 38,-7 -12,-35 9,-26 -14,-22 26,-15 8,35 67,-18 35,-37 -1,-20 -36,-38 331,3h209l189,-3 110,-2 259,-3h93l33,58 25,12 -28,296 -23,259 -22,237 -28,314 -21,248 -20,241 -21,243 -22,229 19,316 17,300 10,181 17,265 -48,-10 14,20 -34,11 -35,-15 -13,-38 -15,18 -54,20 -30,-1 -17,-24 -61,-30Z"/>
  <g class="counties" transform="scale(0.1)">
    <path data-fips-int="28001" data-name="Adams County" d="M256,2324l11,52 3,1 35,30h47v14l-5,179 -68,-15 -89,37 -26,-3 -1,21 -5,28 -32,22 -25,-8 -9,23 -36,-35 8,-18 45,5 27,-10 4,-25 -22,-25 -17,-38 18,-20 24,48 23,-8 -26,-40v-68l57,-17 -1,-27 -37,9 -20,-19 14,-23 32,23 22,-5 2,-63 16,-23Z"/>
    <path data-fips-int="28003" data-name="Alcorn County" d="M1954,87l1,166 -200,2h-19v-70h-40l-1,-95Z"/>
    <path data-fips-int="28005" data-name="Amite County" d="M655,2604h51l-2,241 -302,-4 3,-194 -14,-12 -1,-8 -6,-7 65,-20Z"/>
    <path data-fips-int="28007" data-name="Attala County" d="M1344,1271h79v122v121h-235l-3,32 -136,5 38,-34 5,-28 39,-65v-36l42,-67 29,-50h31Z"/>
    <path data-fips-int="28009" data-name="Benton County" d="M1547,366l-89,2v8l-30,2 -1,-181h-31v-102l189,-3 1,95 -10,30h-30Z"/>
    <path data-fips-int="28011" data-name="Bolivar County" d="M655,787l-3,255h-60v60l-259,-4 -10,-20 59,-30 -23,-31 -29,-9 10,-28 25,-1 47,33 25,-10 -19,-32 -28,9 -18,-19 7,-35 79,10 -1,-21 -25,-10 -15,-29 31,-41 -40,-32 41,-26 9,23 23,-8 -15,-27 53,-3 15,-40 -48,-27 167,2Z"/>
    <path data-fips-int="28015" data-name="Carroll County" d="M1152,1002l1,179 80,10v80h-31l-29,50 -245,-83v-57h23v-29h20v-100h-8l-2,-44 -5,-6Z"/>
    <path data-fips-int="28017" data-name="Chickasaw County" d="M1699,726l61,-2 1,181 -120,2v40h-59l1,10 -91,2v-52h31l-2,-180Z"/>
    <path data-fips-int="28019" data-name="Choctaw County" d="M1552,1100l1,170h-11l1,60 -61,1v60l-59,2v-122h-79l-1,-101 42,-20 72,-42Z"/>
    <path data-fips-int="28023" data-name="Clarke County" d="M1942,1995l-22,229 -92,29 -164,21 -3,-274Z"/>
    <path data-fips-int="28025" data-name="Clay County" d="M1761,905l2,92 130,-2 -12,20 23,33 -10,42 -57,20 -45,5 -1,-40 -200,3 -8,-50v-71l-1,-10h59v-40Z"/>
    <path data-fips-int="28027" data-name="Coahoma County" d="M773,729l-1,60 -117,-2 -2,-91 -167,-2h-1l27,-31 41,19 11,-33h-39l-28,-35 49,20 11,-41 38,-9 14,-18 -9,-42 46,-1 -10,33 20,2v-39l53,-38 -13,-26 12,-39 95,70v113l-29,-1Z"/>
    <path data-fips-int="28029" data-name="Copiah County" d="M893,2123l-9,12 33,53 34,66 -16,9 28,38 -7,27 -71,23 -19,11h-269l1,-59 11,-40v-142Z"/>
    <path data-fips-int="28031" data-name="Covington County" d="M1379,2296l2,249h-31l-79,2 -8,-68 -92,-53v-113l60,-5Z"/>
    <path data-fips-int="28033" data-name="DeSoto County" d="M1187,95v153h-107l-25,32 -23,5 -35,-3h-6l-23,-14 -36,-3h-1l-14,17v-95h-59l35,-37 -1,-20 -36,-38Z"/>
    <path data-fips-int="28035" data-name="Forrest County" d="M1529,2545l2,298 5,63h-119l-6,-68v-233l-60,2 -1,-62h31Z"/>
    <path data-fips-int="28037" data-name="Franklin County" d="M596,2422h60l-1,182 -206,-4 -65,20h-1l-26,-15 -10,-5 5,-179Z"/>
    <path data-fips-int="28039" data-name="George County" d="M1956,2840l10,181 -279,2 -1,-118h30l-1,-62Z"/>
    <path data-fips-int="28041" data-name="Greene County" d="M1939,2540l17,300 -241,3h-4l-3,-299Z"/>
    <path data-fips-int="28043" data-name="Grenada County" d="M1311,870l1,100v32h-160h-196l-4,-30v-62h90l29,-11v-49h91v20Z"/>
    <path data-fips-int="28049" data-name="Hinds County" d="M990,1882l-53,68 -9,8 -3,2 -16,27 6,43 -29,6 -3,44 10,43 -284,-2 -5,-121 6,-20 8,-43 1,-22 44,7 8,-49 9,-11 7,-48 21,-9 31,-10 29,-35v60h119v62Z"/>
    <path data-fips-int="28051" data-name="Holmes County" d="M928,1238l245,83 -42,67v36l-39,65 -5,28 -38,34 -211,-88 -19,-4 -13,-26 -25,-5 -1,-27 59,-27v-114l26,-9 -5,-33Z"/>
    <path data-fips-int="28053" data-name="Humphreys County" d="M817,1301l-5,-28 27,-13v114l-59,27 1,27 25,5 13,26h-49l-2,62 -118,-2v-120h-16h-9h9l-9,-16 14,-53 -32,-24 10,-28 93,3v-41h58v43l24,22Z"/>
    <path data-fips-int="28055" data-name="Issaquena County" d="M501,1459v45l-29,72 -2,121h140l19,18 -18,14 -5,36 -76,-6 -1,81 -52,7 -7,21v-111h-47l25,-28 -15,-20 -14,26 -44,14 -13,-39 47,-30 8,-24 -42,-7 -13,-15 7,-57 45,-46 -12,-50 -28,-3 2,34 -26,19 -23,-17 30,-58Z"/>
    <path data-fips-int="28057" data-name="Itawamba County" d="M1979,455l98,-2 -23,259 -193,2 -3,-259Z"/>
    <path data-fips-int="28061" data-name="Jasper County" d="M1661,2000l3,274 -18,2 -218,17 -3,-50 -2,-242Z"/>
    <path data-fips-int="28063" data-name="Jefferson County" d="M598,2303l-1,59 -1,60 -244,-1v-14h-47l-35,-30 -3,-1 -11,-52 20,-16 -47,8 13,-58 30,-10 7,31 21,-13 -1,-25 137,7 91,25 2,30Z"/>
    <path data-fips-int="28065" data-name="Jefferson Davis County" d="M1263,2479l8,68h-40h-100v30h-79v-91h-10l1,-165 128,-8v113Z"/>
    <path data-fips-int="28067" data-name="Jones County" d="M1648,2544l-119,1h-148l-2,-249 49,-3 218,-17Z"/>
    <path data-fips-int="28069" data-name="Kemper County" d="M1963,1752l-305,5 -2,-243h59l268,-3Z"/>
    <path data-fips-int="28071" data-name="Lafayette County" d="M1369,416h43l46,22 1,80 1,148h-151v-18h-120v-250h30h107Z"/>
    <path data-fips-int="28073" data-name="Lamar County" d="M1271,2547l79,-2 1,62 60,-2v233h-44l-1,18h-29l-16,-23 -30,10h-59l-1,-296Z"/>
    <path data-fips-int="28075" data-name="Lauderdale County" d="M1963,1752l-21,243 -281,5 -3,-243Z"/>
    <path data-fips-int="28077" data-name="Lawrence County" d="M1052,2577l-48,-3v40l-40,-10h-80l1,-253 71,-23 87,-7 -1,165h10Z"/>
    <path data-fips-int="28079" data-name="Leake County" d="M1423,1514l2,245h-3h-236l-1,-39v-174l3,-32Z"/>
    <path data-fips-int="28081" data-name="Lee County" d="M1858,455l3,259h-101v10l-61,2 -1,-200 20,-20 -2,-71 31,-9 111,-3Z"/>
    <path data-fips-int="28083" data-name="Leflore County" d="M952,972l4,30 5,6 2,44h8v100h-20v29h-23v57l-68,-20 5,33 -26,9 -27,13 5,28 -25,4 -24,-22v-43l3,-333 154,3 -6,34 -34,-2 -33,18 5,27 28,-22Z"/>
    <path data-fips-int="28085" data-name="Lincoln County" d="M884,2604h-9h-169h-51l1,-182h-60l1,-60h269l19,-11Z"/>
    <path data-fips-int="28087" data-name="Lowndes County" d="M2032,949l-28,314 -209,3 -3,-151 45,-5 57,-20 10,-42 -23,-33 15,-8v-2v2l22,-4 44,-13 26,-41Z"/>
    <path data-fips-int="28089" data-name="Madison County" d="M1185,1546v174l-31,32 -45,3 -19,27 -20,22 -44,18 -35,60h-1h-103v-62h-119v-60l3,-5 34,-3 31,-17 12,-20 102,-35 27,-14 29,-29 15,-53 17,-17 11,-16Z"/>
    <path data-fips-int="28091" data-name="Marion County" d="M1231,2547l1,296h-44h-64v-50h-50l-10,-40h-39l-17,-30 -4,-109v-40l48,3h79v-30Z"/>
    <path data-fips-int="28093" data-name="Marshall County" d="M1396,95v102h31l1,181 30,-2v62l-46,-22h-43l-43,-18h-107l-2,-90h-27l-3,-60v-153Z"/>
    <path data-fips-int="28095" data-name="Monroe County" d="M1861,714l193,-2 -22,237h-44l-26,41 -44,13 -22,4v-2v2l-15,8 12,-20 -130,2 -2,-92 -1,-181v-10Z"/>
    <path data-fips-int="28097" data-name="Montgomery County" d="M1312,1002l1,150 72,-2 -42,20 1,101h-111v-80l-80,-10 -1,-179Z"/>
    <path data-fips-int="28099" data-name="Neshoba County" d="M1656,1514l2,243 -233,2 -2,-245Z"/>
    <path data-fips-int="28101" data-name="Newton County" d="M1658,1757l3,243 -238,1 -1,-242h3Z"/>
    <path data-fips-int="28103" data-name="Noxubee County" d="M2004,1263l-21,248 -268,3 -3,-246 83,-2Z"/>
    <path data-fips-int="28105" data-name="Oktibbeha County" d="M1792,1115l3,151 -83,2 -159,2 -1,-170v-20l39,-2 200,-3Z"/>
    <path data-fips-int="28107" data-name="Panola County" d="M1189,398v250v18h-120l-116,3 1,-73 -34,-23 -2,-145v-30Z"/>
    <path data-fips-int="28109" data-name="Pearl River County" d="M1411,2838l6,68 1,180h-120v91l-61,10v30h-26l-31,-23 -46,-68 -1,-38 -15,-17 2,-33 31,-78 37,-117h44h59l30,-10 16,23h29l1,-18Z"/>
    <path data-fips-int="28111" data-name="Perry County" d="M1715,2843l1,62h-30l-150,1 -5,-63 -2,-298 119,-1h60l3,299Z"/>
    <path data-fips-int="28113" data-name="Pike County" d="M875,2604v241h-171l2,-241Z"/>
    <path data-fips-int="28115" data-name="Pontotoc County" d="M1698,526l1,200 -178,1h-60l-1,-61 -1,-148 180,-2v10Z"/>
    <path data-fips-int="28117" data-name="Prentiss County" d="M1955,253l20,10 4,192h-121v-32l-111,3v-60l10,-1 -2,-110Z"/>
    <path data-fips-int="28119" data-name="Quitman County" d="M953,669v60h-180l1,-131 29,1v-113h55l-1,-58h61l2,145 34,23Z"/>
    <path data-fips-int="28121" data-name="Rankin County" d="M1154,1752l32,161v92v120l-293,-2 -10,-43 3,-44 29,-6 -6,-43 16,-27 3,-2 9,-8 53,-68h1l35,-60 44,-18 20,-22 19,-27Z"/>
    <path data-fips-int="28123" data-name="Scott County" d="M1185,1720l1,39h236l1,242 -237,4v-92l-32,-161Z"/>
    <path data-fips-int="28125" data-name="Sharkey County" d="M624,1399h1h9h16v120l-60,58v17l37,-2 4,37 -28,5 -4,20 42,21 -8,22h-23h-140l2,-121 29,-72v-45l1,-63Z"/>
    <path data-fips-int="28127" data-name="Simpson County" d="M1186,2125h40l4,23 1,160 -60,5 -128,8 -87,7 7,-27 -28,-38 16,-9 -34,-66 -33,-53 9,-12Z"/>
    <path data-fips-int="28129" data-name="Smith County" d="M1423,2001l2,242 3,50 -49,3 -148,12 -1,-160 -4,-23h-40v-120Z"/>
    <path data-fips-int="28131" data-name="Stone County" d="M1418,3086l-1,-180h119l150,-1 1,118v41l-210,2v20Z"/>
    <path data-fips-int="28133" data-name="Sunflower County" d="M772,789l-1,118 -3,333h-58v41l-93,-3h-27l2,-176v-60h60l3,-255Z"/>
    <path data-fips-int="28135" data-name="Tallahatchie County" d="M1069,666l4,16 -2,168v49l-29,11h-90v62l-67,-7 -28,22 -5,-27 33,-18 34,2 6,-34 -154,-3 1,-118 1,-60h180v-60Z"/>
    <path data-fips-int="28137" data-name="Tate County" d="M1187,248l3,60h27l2,90h-30h-271l-20,-23 10,-40 -7,-40 5,-8 11,-5 14,-17h1l36,3 23,14h6l35,3 23,-5 25,-32Z"/>
    <path data-fips-int="28139" data-name="Tippah County" d="M1755,255l2,110 -10,1h-200l-1,-149h30l10,-30 -1,-95 110,-2 1,95h40v70Z"/>
    <path data-fips-int="28141" data-name="Tishomingo County" d="M2077,453l-98,2 -4,-192 -20,-10 -1,-166h93l33,58 25,12Z"/>
    <path data-fips-int="28143" data-name="Tunica County" d="M858,187h59v95l-11,5 -5,8 7,40 -10,40 20,23v30h-61l1,58h-55l-95,-70 15,-21 -26,-40 1,-42 15,-15 3,37 17,11 35,-34 -6,-15 -37,1 -15,-18 18,-20 -6,-25 26,12 -12,28 38,-7 -12,-35 9,-26 -14,-22 26,-15 8,35Z"/>
    <path data-fips-int="28145" data-name="Union County" d="M1747,366v60l-31,9 2,71 -20,20h-59v-10l-180,2 -1,-80v-62v-8l89,-2Z"/>
    <path data-fips-int="28147" data-name="Walthall County" d="M1004,2614l4,109 17,30h39l10,40h50v50l-249,2v-241h9h80Z"/>
    <path data-fips-int="28149" data-name="Warren County" d="M708,1805l-21,9 -7,48 -9,11 -8,49 -44,-7 -1,22 -8,43 -6,20 -2,6 -35,25 13,15 -21,4 -27,-4 3,20 -36,-3 -4,35 -66,-23 17,-22 -34,-25 3,40 -64,-7 -1,-43 69,-31 38,16 4,-55 36,-3 23,-47 -22,22 -53,-15 14,-60 -27,10 -36,-15 -15,-21 11,-42 27,33 28,12 -5,-25 -40,-28 21,-12h47v111l7,-21 52,-7 1,-81 76,6 5,-36 38,20v30h39Z"/>
    <path data-fips-int="28151" data-name="Washington County" d="M592,1102l-2,176h27l-10,28 32,24 -14,53 9,16h-9h-1l-122,-3 -1,63 -144,-3 22,-37 -42,-31 7,-22 58,2 -1,-57 28,-38h-24l-8,27 -25,-42v-33l49,-54 -6,-21 -31,46 -30,5 -14,-26 39,-7 9,-18 -27,-30 -3,33 -38,9 31,-42 -18,-22Z"/>
    <path data-fips-int="28153" data-name="Wayne County" d="M1939,2540l-231,4h-60l-2,-268 18,-2 164,-21 92,-29Z"/>
    <path data-fips-int="28155" data-name="Webster County" d="M1591,1078l-39,2v20l-95,8 -72,42 -72,2 -1,-150v-32h180v-11l91,-2v71Z"/>
    <path data-fips-int="28157" data-name="Wilkinson County" d="M347,2600l10,5 26,15h1l6,7 1,8 14,12 -3,194 -326,-3 30,-30 -3,-21 -35,-39 24,-43 9,-23 25,8 32,-22 5,-28 1,-21 26,3 89,-37Z"/>
    <path data-fips-int="28159" data-name="Winston County" d="M1712,1268l3,246h-59h-233v-121l59,-2v-60l61,-1 -1,-60h11Z"/>
    <path data-fips-int="28161" data-name="Yalobusha County" d="M1309,666l2,204h-149v-20h-91l2,-168 -4,-16h120v-18h120Z"/>
    <path data-fips-int="28163" data-name="Yazoo County" d="M1049,1551l-11,16 -17,17 -15,53 -29,29 -27,14 -102,35 -12,20 -31,17 -34,3 -3,5 -29,35 -31,10 -20,-26h-39v-30l-38,-20 18,-14 -19,-18h23l8,-22 -42,-21 4,-20 28,-5 -4,-37 -37,2v-17l60,-58 118,2 2,-62h49l19,4Z"/>
    <path data-fips-int="28021" data-name="Claiborne County" d="M604,2000l5,121v142l-11,40h-69l-2,-30 -91,-25 -137,-7 38,-33 10,-43 37,-5 8,-32 -34,-8 11,-22 18,22 42,-45 66,23 4,-35 36,3 -3,-20 27,4 21,-4 -13,-15 35,-25Z"/>
    <path data-fips-int="28045" data-name="Hancock County" d="M1418,3086l1,190 -23,23 34,17 -56,39 -17,49 -51,-5 -26,10 -26,-34 -14,-53 9,-6 -35,-62 -3,-37h26v-30l61,-10v-91Z"/>
    <path data-fips-int="28047" data-name="Harrison County" d="M1687,3064l3,173 -73,2 88,13 -2,9 -77,3 -52,12 -101,43 -26,-12 24,-11 -52,-20 -1,-190h59v-20Z"/>
    <path data-fips-int="28059" data-name="Jackson County" d="M1966,3021l17,265 -48,-10 14,20 -34,11 -35,-15 -13,-38 -15,18 -54,20 -30,-1 -17,-24 -61,-30 -3,-173v-41Z"/>
    <path data-fips-int="28013" data-name="Calhoun County" d="M1460,666l1,61h60l2,180h-31v52v11h-180l-1,-100 -2,-204Z"/>
  </g>
  <g class="cities">
    <circle r="3" cx="92.1" cy="195.2"/>
    <text x="92.1" y="195.2">Jackson</text>
    <circle r="3" cx="156.7" cy="327.9"/>
    <text x="156.7" y="327.9">Gulfport</text>
    <circle r="3" cx="102.4" cy="9.9"/>
    <text x="102.4" y="9.9">Southaven</text>
  </g>
</svg>