<?xml version="1.0" encoding="utf-8"?>
<!DOCTYPE svg PUBLIC "-//W3C//DTD SVG 1.1//EN" "http://www.w3.org/Graphics/SVG/1.1/DTD/svg11.dtd">
<svg version="1.1" xmlns="http://www.w3.org/2000/svg" width="216" height="350" viewBox="0 0 216 350">
  <defs>
    <pattern id="pattern-no-results" width="50" height="50" patternUnits="userSpaceOnUse">
      <rect width="50" height="50" fill="#ddd"/>
      <path d="M-5,5L5,-5M-5,55L55,-5M45,55L55,45" stroke-width="10" stroke="#666666"/>
    </pattern>
  </defs>
  <g class="counties" transform="scale(0.1)">
    <path data-fips-int="28001" data-name="Adams County" d="M256,2324l11,52 3,1 82,44 -5,179 -68,-15 -116,55 -5,28 -66,37 -28,-53 72,-5 4,-25 -39,-63 18,-20 24,48 23,-8 -26,-40 0,-68 57,-17 -38,-18 -6,-42 54,18 2,-63Z"/>
    <path data-fips-int="28003" data-name="Alcorn County" d="M1954,87l1,166 -200,2 -19,0 0,-70 -40,0 -1,-95Z"/>
    <path data-fips-int="28005" data-name="Amite County" d="M655,2604l51,0 -2,241 -302,-4 3,-194 -14,-12 -1,-8 -6,-7 -1,0 1,0 65,-20Z"/>
    <path data-fips-int="28007" data-name="Attala County" d="M1344,1271l79,0 0,122 0,121 -235,0 -3,32 -136,5 43,-62 39,-65 0,-36 42,-67 29,-50 31,0Z"/>
    <path data-fips-int="28009" data-name="Benton County" d="M1547,366l-89,10 -30,2 -1,-181 -31,0 0,-102 189,-3 1,95 -40,30Z"/>
    <path data-fips-int="28011" data-name="Bolivar County" d="M655,787l-3,255 -60,0 0,60 -259,-4 -10,-20 59,-30 -52,-40 35,-29 47,33 6,-42 -46,-10 7,-35 79,10 -41,-60 31,-41 -40,-32 58,-38 53,-3 15,-40 -48,-27 -1,0 1,0 167,2Z"/>
    <path data-fips-int="28015" data-name="Carroll County" d="M1152,1002l1,179 80,10 0,80 -31,0 -29,50 -245,-83 0,-57 43,-29 -8,-100 -1,0 1,0 -2,-44 -5,-6Z"/>
    <path data-fips-int="28017" data-name="Chickasaw County" d="M1699,726l61,-2 1,181 -120,2 0,40 -58,10 -91,2 0,-52 31,0 -2,-180Z"/>
    <path data-fips-int="28019" data-name="Choctaw County" d="M1552,1100l1,170 -10,60 -61,1 0,60 -59,2 0,-122 -79,0 -1,-101 42,-20 72,-42Z"/>
    <path data-fips-int="28023" data-name="Clarke County" d="M1942,1995l-22,229 -92,29 -164,21 -3,-274Z"/>
    <path data-fips-int="28025" data-name="Clay County" d="M1761,905l2,92 130,-2 -12,20 23,33 -10,42 -57,20 -45,5 -1,-40 -200,3 -8,-121 58,-10 0,-40Z"/>
    <path data-fips-int="28027" data-name="Coahoma County" d="M773,729l-1,60 -117,-2 -2,-91 -167,-2 -1,0 27,-31 41,19 11,-33 -39,0 -28,-35 49,20 11,-41 52,-27 -9,-42 56,-5 53,-38 -1,-65 95,70 0,113 -29,-1Z"/>
    <path data-fips-int="28029" data-name="Copiah County" d="M893,2123l24,65 34,66 5,74 -71,23 -19,11 -269,0 1,-59 11,-40 0,-142Z"/>
    <path data-fips-int="28031" data-name="Covington County" d="M1379,2296l2,249 -31,0 -79,2 -8,-68 -92,-53 0,-113 60,-5Z"/>
    <path data-fips-int="28033" data-name="DeSoto County" d="M1187,95l0,153 -107,0 -48,37 -35,-3 -6,0 -23,-14 -36,-3 -1,0 -14,17 0,-95 -59,0 35,-37 -37,-58Z"/>
    <path data-fips-int="28035" data-name="Forrest County" d="M1529,2545l2,298 5,63 -119,0 -6,-68 0,-233 -60,2 -1,-62 31,0Z"/>
    <path data-fips-int="28037" data-name="Franklin County" d="M596,2422l60,0 -1,182 -206,-4 -65,20 -1,0 -26,-15 -10,-5 5,-179Z"/>
    <path data-fips-int="28039" data-name="George County" d="M1956,2840l10,181 -279,2 -1,-118 30,0 -1,-62Z"/>
    <path data-fips-int="28041" data-name="Greene County" d="M1939,2540l17,300 -241,3 -4,0 -3,-299Z"/>
    <path data-fips-int="28043" data-name="Grenada County" d="M1311,870l1,100 0,32 -160,0 -196,0 -4,-30 0,-62 119,-11 0,-49 91,0 0,20Z"/>
    <path data-fips-int="28049" data-name="Hinds County" d="M990,1882l1,0 -1,0 -53,68 -9,8 -3,2 -10,70 -29,6 7,87 -284,-2 -5,-121 6,-20 8,-43 45,-15 8,-49 9,-11 28,-57 60,-45 0,60 119,0 0,62Z"/>
    <path data-fips-int="28051" data-name="Holmes County" d="M928,1238l245,83 -42,67 0,36 -39,65 -43,62 -211,-88 -19,-4 -39,-58 59,-27 0,-114 21,-42Z"/>
    <path data-fips-int="28053" data-name="Humphreys County" d="M817,1301l22,-41 0,114 -59,27 39,58 -49,0 -2,62 -118,-2 0,-120 -16,0 -9,0 -1,0 1,0 9,0 5,-69 -32,-24 10,-28 93,3 0,-41 58,0 0,43Z"/>
    <path data-fips-int="28055" data-name="Issaquena County" d="M501,1459l0,45 -29,72 -2,121 140,0 1,32 -5,36 -76,-6 -1,81 -52,7 -7,21 0,-111 -47,0 25,-28 -73,20 -13,-39 55,-54 -55,-22 7,-57 45,-46 -12,-50 -26,31 -49,2 30,-58Z"/>
    <path data-fips-int="28057" data-name="Itawamba County" d="M1979,455l98,-2 -23,259 -193,2 -3,-259Z"/>
    <path data-fips-int="28061" data-name="Jasper County" d="M1661,2000l3,274 -18,2 -218,17 -5,-292Z"/>
    <path data-fips-int="28063" data-name="Jefferson County" d="M598,2303l-1,59 -1,60 -244,-1 -82,-44 -3,-1 -11,-52 -27,-8 13,-58 57,-17 137,7 91,25 2,30Z"/>
    <path data-fips-int="28065" data-name="Jefferson Davis County" d="M1263,2479l8,68 -40,0 -100,0 0,30 -79,0 -10,-91 1,-165 128,-8 0,113Z"/>
    <path data-fips-int="28067" data-name="Jones County" d="M1648,2544l-119,1 -148,0 -2,-249 49,-3 218,-17Z"/>
    <path data-fips-int="28069" data-name="Kemper County" d="M1963,1752l-305,5 -2,-243 59,0 268,-3Z"/>
    <path data-fips-int="28071" data-name="Lafayette County" d="M1369,416l89,22 1,80 1,148 -151,0 0,-18 -120,0 0,-250 30,0 107,0Z"/>
    <path data-fips-int="28073" data-name="Lamar County" d="M1271,2547l79,-2 1,62 60,-2 0,233 -74,18 -16,-23 -89,10 -1,-296Z"/>
    <path data-fips-int="28075" data-name="Lauderdale County" d="M1963,1752l-21,243 -281,5 -3,-243Z"/>
    <path data-fips-int="28077" data-name="Lawrence County" d="M1052,2577l-48,-3 0,40 -120,-10 1,-253 71,-23 87,-7 -1,165Z"/>
    <path data-fips-int="28079" data-name="Leake County" d="M1423,1514l2,245 -3,0 -236,0 -1,-39 0,-174 3,-32Z"/>
    <path data-fips-int="28081" data-name="Lee County" d="M1858,455l3,259 -101,0 0,10 -61,2 -1,-200 20,-20 -2,-71 31,-9 111,-3Z"/>
    <path data-fips-int="28083" data-name="Leflore County" d="M952,972l4,30 5,6 2,44 -1,0 1,0 8,100 -43,29 0,57 -68,-20 -21,42 -22,41 -49,-18 0,-43 3,-333 154,3 -6,34 -67,16Z"/>
    <path data-fips-int="28085" data-name="Lincoln County" d="M884,2604l-9,0 -169,0 -51,0 1,-182 -60,0 1,-60 269,0 19,-11Z"/>
    <path data-fips-int="28087" data-name="Lowndes County" d="M2032,949l-28,314 -209,3 -3,-151 45,-5 57,-20 10,-42 -23,-33 15,-8 0,-2 0,2 22,-4 44,-13 26,-41Z"/>
    <path data-fips-int="28089" data-name="Madison County" d="M1185,1546l0,174 -31,32 -45,3 -19,27 -64,40 -35,60 -1,0 -103,0 0,-62 -119,0 0,-60 3,-5 34,-3 31,-17 12,-20 102,-35 27,-14 29,-29 32,-70 11,-16Z"/>
    <path data-fips-int="28091" data-name="Marion County" d="M1231,2547l1,296 -44,0 -64,0 0,-50 -50,0 -10,-40 -39,0 -17,-30 -4,-109 0,-40 48,3 79,0 0,-30Z"/>
    <path data-fips-int="28093" data-name="Marshall County" d="M1396,95l0,102 31,0 1,181 30,-2 0,62 -89,-22 -43,-18 -107,0 -2,-90 -27,0 -3,-60 0,-153Z"/>
    <path data-fips-int="28095" data-name="Monroe County" d="M1861,714l193,-2 -22,237 -44,0 -26,41 -44,13 -22,4 0,-2 0,2 -15,8 12,-20 -130,2 -2,-92 -1,-181 0,-10Z"/>
    <path data-fips-int="28097" data-name="Montgomery County" d="M1312,1002l1,150 72,-2 -42,20 1,101 -111,0 0,-80 -80,-10 -1,-179Z"/>
    <path data-fips-int="28099" data-name="Neshoba County" d="M1656,1514l2,243 -233,2 -2,-245Z"/>
    <path data-fips-int="28101" data-name="Newton County" d="M1658,1757l3,243 -238,1 -1,-242 3,0Z"/>
    <path data-fips-int="28103" data-name="Noxubee County" d="M2004,1263l-21,248 -268,3 -3,-246 83,-2Z"/>
    <path data-fips-int="28105" data-name="Oktibbeha County" d="M1792,1115l3,151 -83,2 -159,2 -1,-170 39,-22 200,-3Z"/>
    <path data-fips-int="28107" data-name="Panola County" d="M1189,398l0,250 0,18 -120,0 -116,3 1,-73 -34,-23 -2,-145 0,-30Z"/>
    <path data-fips-int="28109" data-name="Pearl River County" d="M1411,2838l6,68 1,180 -120,0 0,91 -61,10 -26,30 -31,-23 -46,-68 -14,-88 68,-195 44,0 89,-10 16,23Z"/>
    <path data-fips-int="28111" data-name="Perry County" d="M1715,2843l1,62 -30,0 -150,1 -5,-63 -2,-298 119,-1 60,0 3,299Z"/>
    <path data-fips-int="28113" data-name="Pike County" d="M875,2604l0,241 -171,0 2,-241Z"/>
    <path data-fips-int="28115" data-name="Pontotoc County" d="M1698,526l1,200 -178,1 -60,0 -1,-61 -1,-148 180,-2Z"/>
    <path data-fips-int="28117" data-name="Prentiss County" d="M1955,253l20,10 4,192 -121,0 0,-32 -111,3 0,-60 10,-1 -2,-110Z"/>
    <path data-fips-int="28119" data-name="Quitman County" d="M953,669l0,60 -180,0 1,-131 29,1 0,-113 55,0 -1,-58 61,0 2,145 34,23Z"/>
    <path data-fips-int="28121" data-name="Rankin County" d="M1154,1752l32,161 0,92 0,120 -293,-2 -7,-87 29,-6 10,-70 3,-2 9,-8 53,-68 1,0 35,-60 64,-40 19,-27Z"/>
    <path data-fips-int="28123" data-name="Scott County" d="M1185,1720l1,39 236,0 1,242 -237,4 0,-92 -32,-161Z"/>
    <path data-fips-int="28125" data-name="Sharkey County" d="M624,1399l1,0 9,0 16,0 0,120 -60,58 37,15 4,37 -32,25 42,21 -31,22 -140,0 2,-121 29,-72 0,-45 1,-63Z"/>
    <path data-fips-int="28127" data-name="Simpson County" d="M1186,2125l40,0 5,183 -60,5 -128,8 -87,7 -5,-74 -34,-66 -24,-65Z"/>
    <path data-fips-int="28129" data-name="Smith County" d="M1423,2001l5,292 -49,3 -148,12 -5,-183 -40,0 0,-120Z"/>
    <path data-fips-int="28131" data-name="Stone County" d="M1418,3086l-1,-180 119,0 150,-1 1,118 0,41 -210,2 0,20Z"/>
    <path data-fips-int="28133" data-name="Sunflower County" d="M772,789l-1,118 -3,333 -58,0 0,41 -93,-3 -27,0 2,-176 0,-60 60,0 3,-255Z"/>
    <path data-fips-int="28135" data-name="Tallahatchie County" d="M1069,666l2,184 0,49 -119,11 0,62 -100,-12 67,-16 6,-34 -154,-3 1,-118 1,-60 180,0 0,-60Z"/>
    <path data-fips-int="28137" data-name="Tate County" d="M1187,248l3,60 27,0 2,90 -30,0 -271,0 -20,-23 3,-80 5,-8 11,-5 14,-17 1,0 36,3 23,14 6,0 35,3 48,-37Z"/>
    <path data-fips-int="28139" data-name="Tippah County" d="M1755,255l2,110 -10,1 -200,0 -1,-149 40,-30 -1,-95 110,-2 1,95 40,0 0,70Z"/>
    <path data-fips-int="28141" data-name="Tishomingo County" d="M2077,453l-98,2 -4,-192 -20,-10 -1,-166 93,0 33,58 25,12Z"/>
    <path data-fips-int="28143" data-name="Tunica County" d="M858,187l59,0 0,95 -11,5 -5,8 -3,80 20,23 0,30 -61,0 1,58 -55,0 -95,-70 15,-21 -26,-40 1,-42 35,33 35,-34 -58,-32 12,-45 14,40 38,-7 -17,-83 26,-15 8,35Z"/>
    <path data-fips-int="28145" data-name="Union County" d="M1747,366l0,60 -31,9 2,71 -20,20 -59,-10 -180,2 -1,-80 0,-62 89,-10Z"/>
    <path data-fips-int="28147" data-name="Walthall County" d="M1004,2614l4,109 17,30 39,0 10,40 50,0 0,50 -249,2 0,-241 9,0Z"/>
    <path data-fips-int="28149" data-name="Warren County" d="M708,1805l-28,57 -9,11 -8,49 -45,15 -8,43 -6,20 -2,6 -22,40 -21,4 -60,13 -4,35 -66,-23 17,-22 -34,-25 3,40 -64,-7 -1,-43 69,-31 38,16 4,-55 37,-28 -53,-15 14,-60 -27,10 -51,-36 11,-42 31,-20 47,0 0,111 7,-21 52,-7 1,-81 76,6 5,-36 38,20 0,30 39,0Z"/>
    <path data-fips-int="28151" data-name="Washington County" d="M592,1102l-2,176 27,0 -10,28 32,24 -5,69 -9,0 -1,0 -122,-3 -1,63 -144,-3 22,-37 -42,-31 7,-22 58,2 -1,-57 -29,-86 12,-29 -44,-21 48,-25 -27,-30 -3,33 -38,9 31,-42 -18,-22Z"/>
    <path data-fips-int="28153" data-name="Wayne County" d="M1939,2540l-231,4 -60,0 -2,-268 18,-2 164,-21 92,-29Z"/>
    <path data-fips-int="28155" data-name="Webster County" d="M1591,1078l-39,22 -95,8 -72,42 -72,2 -1,-150 0,-32 180,0 0,-11 91,-2Z"/>
    <path data-fips-int="28157" data-name="Wilkinson County" d="M347,2600l10,5 26,15 1,0 6,7 1,8 14,12 -3,194 -326,-3 30,-30 -38,-60 24,-43 66,-37 5,-28 116,-55Z"/>
    <path data-fips-int="28159" data-name="Winston County" d="M1712,1268l3,246 -59,0 -233,0 0,-121 59,-2 0,-60 61,-1 10,-60Z"/>
    <path data-fips-int="28161" data-name="Yalobusha County" d="M1309,666l2,204 -149,0 0,-20 -91,0 -2,-184 120,0 0,-18 120,0Z"/>
    <path data-fips-int="28163" data-name="Yazoo County" d="M1049,1551l-11,16 -32,70 -29,29 -27,14 -102,35 -12,20 -31,17 -34,3 -3,5 -60,45 -20,-26 -39,0 0,-30 -38,-20 -1,-32 31,-22 -42,-21 32,-25 -4,-37 -37,-15 60,-58 118,2 2,-62 49,0 19,4Z"/>
    <path data-fips-int="28021" data-name="Claiborne County" d="M604,2000l5,121 0,142 -11,40 -69,0 -2,-30 -91,-25 -137,-7 38,-33 10,-43 37,-5 3,-40 42,-45 66,23 4,-35 60,-13 21,-4 22,-40Z"/>
    <path data-fips-int="28045" data-name="Hancock County" d="M1418,3086l1,190 -23,23 34,17 -56,39 -17,49 -77,5 -26,-34 -5,-59 -35,-62 -3,-37 26,-30 61,-10 0,-91Z"/>
    <path data-fips-int="28047" data-name="Harrison County" d="M1687,3064l3,173 -73,2 88,13 -131,24 -101,43 -2,-23 -52,-20 -1,-190 59,0 0,-20Z"/>
    <path data-fips-int="28059" data-name="Jackson County" d="M1966,3021l17,265 -68,21 -35,-15 -13,-38 -69,38 -108,-55 -3,-173 0,-41Z"/>
    <path data-fips-int="28013" data-name="Calhoun County" d="M1460,666l1,61 60,0 2,180 -31,0 0,52 0,11 -180,0 -1,-100 -2,-204Z"/>
  </g>
  <g class="cities">
    <circle r="3" cx="92.1" cy="195.2"/>
    <text x="92.1" y="195.2">Jackson</text>
    <circle r="3" cx="156.7" cy="327.9"/>
    <text x="156.7" y="327.9">Gulfport</text>
    <circle r="3" cx="102.4" cy="9.9"/>
    <text x="102.4" y="9.9">Southaven</text>
  </g>
</svg>