<?xml version="1.0" encoding="utf-8"?>
<!DOCTYPE svg PUBLIC "-//W3C//DTD SVG 1.1//EN" "http://www.w3.org/Graphics/SVG/1.1/DTD/svg11.dtd">
<svg version="1.1" xmlns="http://www.w3.org/2000/svg" width="216" height="350" viewBox="0 0 216 350">
  <g class="counties" transform="scale(0.1)">
    <path data-fips-int="28001" data-name="Adams County" d="M352,2421l-2,76 -3,104 -14,0 -6,-4 -11,-2 -1,-7 -14,-3 -15,8 0,-7 -10,3 -5,6 -8,-6 -16,8 -7,9 -26,2 -2,6 -15,2 -7,6 -26,-4 -2,23 -12,1 -3,6 11,11 -6,23 -11,0 -14,8 0,-11 -13,-6 -13,9 -9,24 -4,-9 -17,-17 -16,-10 -1,-10 10,-8 10,0 28,5 15,-2 17,-7 6,-11 1,-17 -24,-21 -2,-27 -9,5 -6,-16 5,-13 14,-9 6,5 2,23 10,16 22,4 6,-7 -5,-19 -16,-20 -7,-22 2,-33 -4,-8 6,-6 19,1 23,-9 17,-14 5,-16 -9,-6 -23,6 -16,1 -10,-7 -8,-11 0,-12 13,-11 14,15 19,7 12,1 10,-5 3,-14 -2,-35 2,-13 17,-25 30,-2 6,25 6,4 3,12 -5,12 18,6 -1,10 12,5 10,10 46,0Z"/>
    <path data-fips-int="28003" data-name="Alcorn County" d="M1954,88l0,98 1,67 -72,2 -86,0 -42,0 -19,0 -1,-70 -40,1 0,-95 179,-1Z"/>
    <path data-fips-int="28005" data-name="Amite County" d="M655,2603l50,0 0,113 -1,128 -96,0 -206,-2 2,-61 -1,-25 1,-108 -12,-6 -4,-20 -5,-2 16,-5 2,-7 8,6 17,-6 3,-7 10,9 8,0 2,-9 69,2 94,0Z"/>
    <path data-fips-int="28007" data-name="Attala County" d="M1344,1271l79,0 -1,122 0,121 -105,1 -70,1 -59,0 -3,6 0,26 -64,-1 1,4 -73,0 4,-8 14,-3 -2,-6 21,-16 8,-22 0,-16 22,-31 8,-8 -2,-14 9,-3 -2,-16 4,-9 -2,-9 16,-7 1,-25 5,-1 8,-15 1,-10 6,1 6,-14 2,-9 9,-10 3,-11 14,-17 32,0 21,-1Z"/>
    <path data-fips-int="28009" data-name="Benton County" d="M1547,366l-89,1 0,10 -30,0 -1,-180 -31,1 0,-104 189,-1 1,94 -10,0 0,30 -30,0 0,67Z"/>
    <path data-fips-int="28011" data-name="Bolivar County" d="M655,787l-2,153 -1,102 -60,0 -1,59 -64,0 -4,-1 -60,-1 -131,0 -8,-12 -2,-9 7,-6 11,-1 16,-9 13,1 10,-8 3,-9 -3,-12 -23,-17 -25,-9 -5,-7 1,-9 15,-12 24,-2 15,21 18,11 13,1 24,-9 4,-6 -7,-15 -15,-10 -16,7 -16,-2 -12,-12 0,-30 7,-9 15,9 11,-4 21,-1 16,10 15,-5 5,-6 -6,-14 -27,-11 -12,-19 -2,-9 8,-17 23,-25 -3,-13 -14,-9 -21,-5 1,-15 11,-5 11,1 17,-12 9,24 9,5 9,-2 4,-12 -10,-12 -4,-14 7,-3 20,2 24,-3 5,-4 1,-18 10,-20 -8,-8 -19,3 -16,-11 -6,-9 6,1 94,0 9,2 60,0 -1,91Z"/>
    <path data-fips-int="28015" data-name="Carroll County" d="M1152,1002l1,180 40,-1 0,10 39,0 2,81 -32,0 -14,17 -3,11 -9,10 -2,9 -73,-22 -72,-24 -100,-35 0,-57 21,0 0,-29 21,0 0,-100 -9,0 5,-1 0,-20 3,-19 -8,0 -6,-10Z"/>
    <path data-fips-int="28017" data-name="Chickasaw County" d="M1700,725l60,0 1,137 1,44 -121,0 0,40 -59,1 0,10 -90,1 1,-50 29,0 0,-80 -1,-100 109,-2Z"/>
    <path data-fips-int="28019" data-name="Choctaw County" d="M1552,1099l2,171 -12,0 0,60 -60,0 0,62 -60,1 1,-122 -79,0 -1,-102 6,-2 17,2 4,-12 15,-6 12,-8 12,1 7,-14 13,-10 18,-5 9,-7 18,1 4,-5 22,-4Z"/>
    <path data-fips-int="28023" data-name="Clarke County" d="M1942,1995l-15,154 -7,76 -88,26 -73,14 -79,8 -15,0 -2,-103 -1,-65 -1,-105Z"/>
    <path data-fips-int="28025" data-name="Clay County" d="M1762,906l1,90 128,-1 -10,13 0,8 8,4 -3,21 9,-1 9,10 -9,13 2,8 -6,4 3,14 12,11 -8,3 -12,-14 -10,-5 -2,6 -13,9 -16,5 -12,10 -41,2 0,-41 -14,0 -12,4 -8,-4 -81,2 -6,-2 -23,3 -36,-1 -20,2 0,-50 -10,1 0,-73 0,-10 59,-1 0,-40Z"/>
    <path data-fips-int="28027" data-name="Coahoma County" d="M773,729l-1,60 -117,-2 -2,0 1,-91 -60,0 -9,-2 -94,0 -6,-1 3,-11 7,-8 17,-12 8,4 16,13 10,4 10,-1 11,-10 3,-8 -4,-12 -20,-4 -21,4 -16,-11 -11,-16 3,-16 12,-1 6,12 13,10 14,4 3,-6 10,-39 13,-6 23,2 14,-18 -4,-16 -10,-10 0,-9 6,-8 13,3 22,-1 10,-3 -9,22 -1,11 9,7 9,-2 2,-8 -5,-15 5,-19 32,-15 15,-11 6,-16 -12,-22 -1,-15 5,-16 6,-8 97,71 -1,112 -29,-1Z"/>
    <path data-fips-int="28029" data-name="Copiah County" d="M894,2122l-10,12 5,9 11,1 -7,6 5,14 10,2 -1,8 11,15 -5,8 11,-1 7,11 -2,14 16,12 6,21 -3,6 -13,5 8,9 6,-2 0,9 -9,13 6,8 17,-1 2,9 -3,7 -9,0 3,10 -5,-2 -10,6 -14,5 -20,10 -12,0 -11,5 -7,9 -13,3 -58,-1 0,11 -20,-1 0,-10 -20,1 -141,0 -28,-1 1,-60 2,-30 9,-10 1,-69 1,-23 -1,-48 36,-1 91,0 4,1 77,0Z"/>
    <path data-fips-int="28031" data-name="Covington County" d="M1378,2296l2,114 0,52 1,84 -31,0 -80,1 0,-56 -6,-2 -3,-15 -7,-1 -13,-13 -21,-3 -27,-18 -10,-14 -12,1 1,-114 59,-4Z"/>
    <path data-fips-int="28033" data-name="DeSoto County" d="M1186,94l1,154 -107,0 -2,9 -22,15 -1,8 -38,9 -8,3 -12,-10 -8,1 -9,-10 -6,4 -9,-16 -9,-5 -13,1 -12,4 -5,13 -9,7 -1,-33 0,-61 -57,0 -5,-8 20,-12 6,-1 12,-13 2,-11 -3,-12 -28,-24 -7,-12 120,0 37,0Z"/>
    <path data-fips-int="28035" data-name="Forrest County" d="M1529,2545l1,130 1,36 0,132 5,1 1,62 -120,0 0,-62 -5,-7 -1,-32 0,-199 -61,1 0,-61 31,0 16,-1Z"/>
    <path data-fips-int="28037" data-name="Franklin County" d="M596,2422l61,1 -1,163 -1,17 -43,0 -94,0 -69,-2 -2,9 -8,0 -10,-9 -3,7 -17,6 -8,-6 -2,7 -16,5 -13,-3 -23,-16 3,-104 2,-76 75,0 66,1Z"/>
    <path data-fips-int="28039" data-name="George County" d="M1956,2841l3,41 8,140 -114,1 -97,2 -69,-1 -1,-120 30,0 -1,-60 38,0 62,-2Z"/>
    <path data-fips-int="28041" data-name="Greene County" d="M1938,2539l11,181 4,66 3,55 -141,1 -62,2 -38,0 -3,-1 -3,-161 0,-68 -2,-70 64,-1 114,-2 6,-1Z"/>
    <path data-fips-int="28043" data-name="Grenada County" d="M1312,871l0,100 0,31 -48,-1 -112,1 -196,0 -5,0 0,-31 1,-61 90,0 0,-10 30,1 0,-51 90,1 0,20 82,0Z"/>
    <path data-fips-int="28049" data-name="Hinds County" d="M991,1882l-6,8 -12,-2 -8,29 -31,29 7,10 -9,5 -5,-4 -7,20 -11,9 1,9 11,10 -3,9 1,9 -12,4 -2,6 -19,4 2,13 -4,25 4,18 7,11 -4,5 3,13 -76,0 -77,0 -4,-1 -91,0 -36,1 -4,-59 -2,-63 1,-11 8,-8 -8,-5 8,-2 -3,-10 7,-3 6,-17 -4,-3 3,-14 -3,-12 14,-3 30,9 -4,-24 8,-6 6,-21 8,-7 0,-8 7,-7 -5,-2 -5,-20 14,-16 15,-4 6,2 22,-12 5,-2 9,-13 10,-3 6,-6 3,-12 -1,60 16,0 101,0 3,1 0,60Z"/>
    <path data-fips-int="28051" data-name="Holmes County" d="M929,1238l100,35 72,24 73,22 -6,14 -6,-1 -1,10 -8,15 -5,1 -1,25 -16,7 2,9 -4,9 2,16 -9,3 2,14 -8,8 -22,31 0,16 -8,22 -21,16 2,6 -14,3 -4,8 -103,-43 -110,-48 -5,-7 -12,7 -11,-8 2,-14 -4,-5 -16,1 -8,-5 -2,-28 6,-1 -3,-11 7,8 10,-2 7,12 11,1 0,-7 -12,-11 7,-9 5,2 0,13 5,7 6,-6 -5,-12 6,-9 9,-1 -1,-116 14,-12 2,8 14,-18 0,-7 -8,-12 -12,0 -2,-8Z"/>
    <path data-fips-int="28053" data-name="Humphreys County" d="M838,1259l1,116 -9,1 -6,9 5,12 -6,6 -5,-7 0,-13 -5,-2 -7,9 12,11 0,7 -11,-1 -7,-12 -10,2 -7,-8 3,11 -6,1 2,28 8,5 16,-1 4,5 -2,14 11,8 -49,1 -1,59 -45,0 -73,0 -1,-120 -25,0 12,-4 0,-10 -12,-5 2,-10 6,-6 3,-20 -2,-8 5,-8 -4,-5 -27,-15 0,-24 9,-5 80,0 13,1 0,-41 59,0 -1,43 23,22 3,-7 20,3 4,-13 -6,-14 7,4 5,-15 10,-9Z"/>
    <path data-fips-int="28055" data-name="Issaquena County" d="M502,1460l-1,44 -6,22 -9,18 0,16 -11,9 -3,7 -2,121 77,2 63,0 6,14 10,0 -2,12 -12,4 2,5 -4,14 -5,2 1,15 -17,-7 -59,0 -2,92 -5,-7 -4,7 -15,-5 -9,3 -5,-5 -13,3 -8,24 0,-70 1,-43 -46,-1 21,-19 2,-14 -12,-15 -9,9 -6,18 -17,4 -24,11 -14,-14 -5,-16 3,-11 15,-15 28,-11 9,-16 2,-11 -13,-9 -32,1 -10,-14 -2,-19 2,-17 6,-18 18,-18 6,-2 16,-16 6,-14 -1,-17 -9,-13 2,-2 -4,-18 -13,-8 -15,6 2,11 -4,7 4,17 -9,16 -9,4 -20,-5 -7,-6 -3,-12 8,-20 18,-20 2,-14 116,2 0,2Z"/>
    <path data-fips-int="28057" data-name="Itawamba County" d="M1979,454l98,-1 -1,14 -14,153 -8,93 -97,0 -1,1 -96,0 -2,-88 0,-84 1,0 -1,-87 10,-1Z"/>
    <path data-fips-int="28061" data-name="Jasper County" d="M1661,2000l1,105 1,65 2,103 -19,2 -106,9 -18,1 -94,7 -1,-49 -2,0 -1,-69 -1,-172 130,-1Z"/>
    <path data-fips-int="28063" data-name="Jefferson County" d="M531,2297 -1,5 68,0 -1,60 -1,60 -103,0 -66,-1 -75,0 0,-14 -46,0 -10,-10 -12,-5 1,-10 -18,-6 5,-12 -3,-12 -6,-4 -6,-25 21,4 13,-10 -7,-8 -8,0 -29,7 -17,0 1,-17 11,-40 4,-6 26,-6 2,22 4,10 14,3 8,-15 -12,-13 1,-9 10,-4 57,2 76,5 104,25 0,16Z"/>
    <path data-fips-int="28065" data-name="Jefferson Davis County" d="M1270,2547l-39,0 -100,0 1,29 -80,0 0,-91 -10,0 1,-68 0,-96 79,-5 50,-4 -1,114 12,-1 10,14 27,18 21,3 13,13 7,1 3,15 6,2Z"/>
    <path data-fips-int="28067" data-name="Jones County" d="M1648,2545l-103,0 -16,0 -132,0 -16,1 -1,-84 0,-52 -2,-114 50,-4 94,-7 18,-1 106,-9 1,122Z"/>
    <path data-fips-int="28069" data-name="Kemper County" d="M1963,1752l-98,2 -39,1 -53,0 -21,1 -94,1 -1,-118 -1,-123 59,0 35,-1 37,0 73,-1 123,-4 -10,126Z"/>
    <path data-fips-int="28071" data-name="Lafayette County" d="M1458,438l0,79 2,151 -151,0 0,-21 -91,0 -29,0 1,-100 -2,-58 1,-20 -1,-71 30,0 4,0 105,0 11,14 9,2 9,8 13,-6 22,6 18,-6 7,5 15,3 4,5 13,2Z"/>
    <path data-fips-int="28073" data-name="Lamar County" d="M1270,2547l80,-1 0,61 61,-1 0,199 1,32 -45,1 -1,19 -29,0 0,-13 -15,0 0,-9 -30,0 0,9 -60,-1 0,-179 -1,-117Z"/>
    <path data-fips-int="28075" data-name="Lauderdale County" d="M1963,1752l-13,142 -8,101 -281,5 -3,-198 0,-45 94,-1 21,-1 53,0 39,-1Z"/>
    <path data-fips-int="28077" data-name="Lawrence County" d="M1052,2576l-10,-2 -38,-1 0,41 -7,4 -15,1 -8,-11 -10,-4 -80,0 0,-253 11,-5 12,0 20,-10 14,-5 10,-6 5,2 58,-4 29,-2 0,96 -1,68 10,0Z"/>
    <path data-fips-int="28079" data-name="Leake County" d="M1422,1514l1,50 0,75 1,120 -3,0 -101,0 -2,1 -105,0 -28,-1 0,-39 0,-172 0,-26 3,-6 59,0 70,-1Z"/>
    <path data-fips-int="28081" data-name="Lee County" d="M1858,455l1,87 -1,0 0,84 2,88 -95,0 -5,11 -60,0 -1,-68 -1,-49 0,-83 0,-20 20,0 -1,-69 30,0 0,-10 111,-2Z"/>
    <path data-fips-int="28083" data-name="Leflore County" d="M951,971l0,31 5,0 6,10 8,0 -3,19 0,20 -5,1 9,0 0,100 -21,0 0,29 -21,0 0,57 -83,-28 2,8 12,0 8,12 0,7 -14,18 -2,-8 -14,12 -4,-5 -10,9 -5,15 -7,-4 6,14 -4,13 -20,-3 -3,7 -23,-22 1,-43 1,-124 0,-44 2,-164 102,2 51,0 7,14 -3,10 -14,10 -29,-2 -25,8 -9,10 -2,14 7,13 15,3 7,-5 7,-23 13,1 5,8Z"/>
    <path data-fips-int="28085" data-name="Lincoln County" d="M884,2604l-9,0 -157,0 -13,-1 -50,0 1,-17 1,-163 -61,-1 1,-60 28,1 141,0 20,-1 0,10 20,1 0,-11 58,1 13,-3 7,-9Z"/>
    <path data-fips-int="28087" data-name="Lowndes County" d="M2032,948l-23,266 -5,49 -64,1 -84,2 -61,1 -3,-151 41,-2 12,-10 16,-5 13,-9 2,-6 10,5 12,14 8,-3 -12,-11 -3,-14 6,-4 -2,-8 9,-13 -9,-10 -9,1 3,-21 -8,-4 10,-10 23,0 18,-8 10,1 6,-15 10,6 23,-16 8,-16 -1,-9Z"/>
    <path data-fips-int="28089" data-name="Madison County" d="M1185,1548l0,172 -30,25 -1,7 -6,-3 -11,7 -15,-6 -5,6 -8,0 -6,15 -9,-2 -6,7 2,7 -16,9 -4,11 -8,0 -11,15 -12,-4 -6,10 -7,-2 -8,6 -11,16 -2,8 -9,5 -7,-2 3,13 -7,1 6,13 -104,-1 0,-60 -3,-1 -101,0 -16,0 1,-60 3,-7 9,-1 15,8 32,-26 7,5 8,-7 6,-17 9,-4 6,3 5,-13 18,2 12,-6 2,5 18,-4 5,-9 42,-17 6,2 14,-19 13,-4 9,-14 12,-33 -1,-16 13,-5 9,-23 9,-9 73,0 -1,-4Z"/>
    <path data-fips-int="28091" data-name="Marion County" d="M1231,2547l1,117 0,179 -44,1 -64,0 0,-51 -50,1 0,-10 -5,0 0,-15 -5,0 0,-15 -40,0 0,-30 -15,0 0,-40 -5,0 0,-70 0,-41 38,1 10,2 80,0 -1,-29Z"/>
    <path data-fips-int="28093" data-name="Marshall County" d="M1396,94l0,104 31,-1 1,180 30,0 0,61 -10,-7 -13,-2 -4,-5 -15,-3 -7,-5 -18,6 -22,-6 -13,6 -9,-8 -9,-2 -11,-14 -105,0 -4,0 0,-90 -30,-1 -1,-59 -1,-154 60,0 70,0Z"/>
    <path data-fips-int="28095" data-name="Monroe County" d="M1860,714l96,0 1,-1 97,0 -5,59 -4,39 -8,82 -3,20 -2,35 -44,1 1,9 -8,16 -23,16 -10,-6 -6,15 -10,-1 -18,8 -23,0 -10,10 0,-8 10,-13 -128,1 -1,-90 -1,-44 -1,-137 5,-11Z"/>
    <path data-fips-int="28097" data-name="Montgomery County" d="M1312,1002l1,149 72,0 -15,6 -4,12 -17,-2 -6,2 1,102 -89,0 -21,1 -2,-81 -39,0 0,-10 -40,1 -1,-180 112,-1Z"/>
    <path data-fips-int="28099" data-name="Neshoba County" d="M1656,1516l1,123 1,118 -55,1 -79,0 -100,1 -1,-120 0,-75 -1,-50 15,0 159,0 0,3 31,-1 0,6 20,0 0,-6Z"/>
    <path data-fips-int="28101" data-name="Newton County" d="M1658,1757l0,45 3,198 -108,1 -130,1 -1,-148 -1,-95 3,0 100,-1 79,0Z"/>
    <path data-fips-int="28103" data-name="Noxubee County" d="M2004,1263l-8,97 -13,150 -123,4 -73,1 -37,0 -35,1 -2,-90 -1,-154 0,-4 83,-1 61,-1 84,-2Z"/>
    <path data-fips-int="28105" data-name="Oktibbeha County" d="M1792,1116l3,151 -83,1 -64,1 -94,1 -2,-171 0,-20 40,0 20,-2 36,1 23,-3 6,2 81,-2 8,4 12,-4 14,0Z"/>
    <path data-fips-int="28107" data-name="Panola County" d="M1188,398l1,71 -1,20 2,58 -1,100 0,20 -82,0 -38,-1 -20,0 4,4 -100,0 0,-1 1,-72 -34,-25 0,-27 -2,0 0,-80 0,-37 0,-30 21,0Z"/>
    <path data-fips-int="28109" data-name="Pearl River County" d="M1412,2837l5,7 0,62 0,144 0,37 -20,0 -100,0 0,90 -30,0 0,10 -31,0 0,31 -25,-1 -9,-5 -2,-7 -35,-24 -7,-22 -13,-9 8,-7 -12,0 -3,-21 -6,-7 1,-26 -14,-12 5,-25 -6,-5 14,-33 -7,-10 9,-10 0,-9 13,-10 1,-7 9,1 -6,-7 14,-23 -7,-7 3,-17 10,-1 -4,-6 11,-9 -7,-15 17,-19 0,-21 44,-1 60,1 0,-9 30,0 0,9 15,0 0,13 29,0 1,-19Z"/>
    <path data-fips-int="28111" data-name="Perry County" d="M1715,2844l1,60 -30,0 -57,1 -92,1 -1,-62 -5,-1 0,-132 -1,-36 -1,-130 16,0 103,0 59,-1 2,70 0,68 3,161Z"/>
    <path data-fips-int="28113" data-name="Pike County" d="M875,2604l0,241 -128,0 -43,-1 1,-128 0,-113 13,1Z"/>
    <path data-fips-int="28115" data-name="Pontotoc County" d="M1698,525l0,83 1,49 1,68 -70,1 -109,2 -60,0 -1,-60 -2,-151 44,0 46,-1 91,0 0,10Z"/>
    <path data-fips-int="28117" data-name="Prentiss County" d="M1955,253l10,0 0,10 10,0 2,79 0,44 2,68 -111,0 -10,1 0,-31 -111,2 0,-60 10,0 -2,-111 42,0 86,0Z"/>
    <path data-fips-int="28119" data-name="Quitman County" d="M953,669l0,61 -14,-1 -166,0 1,-131 29,1 1,-112 55,0 -1,-59 60,0 0,37 0,80 2,0 0,27 34,25Z"/>
    <path data-fips-int="28121" data-name="Rankin County" d="M1154,1752l32,162 0,90 -1,60 1,60 -96,0 -25,-1 -90,0 -2,-1 -79,0 -3,-13 4,-5 -7,-11 -4,-18 4,-25 -2,-13 19,-4 2,-6 12,-4 -1,-9 3,-9 -11,-10 -1,-9 11,-9 7,-20 5,4 9,-5 -7,-10 31,-29 8,-29 12,2 6,-8 -6,-13 7,-1 -3,-13 7,2 9,-5 2,-8 11,-16 8,-6 7,2 6,-10 12,4 11,-15 8,0 4,-11 16,-9 -2,-7 6,-7 9,2 6,-15 8,0 5,-6 15,6 11,-7Z"/>
    <path data-fips-int="28123" data-name="Scott County" d="M1185,1720l0,39 28,1 105,0 2,-1 101,0 1,95 1,148 -31,1 -190,0 -16,1 0,-90 -32,-162 1,-7Z"/>
    <path data-fips-int="28125" data-name="Sharkey County" d="M625,1400l25,0 1,120 -34,33 -27,26 0,15 11,3 8,-7 5,4 10,-2 -9,18 4,9 11,8 -1,7 -9,6 -17,-5 -2,21 15,12 11,0 15,9 1,14 -6,6 -11,-4 -1,-12 -6,-2 -9,20 -63,0 -77,-2 2,-121 3,-7 11,-9 0,-16 9,-18 6,-22 1,-44 0,-62 30,2Z"/>
    <path data-fips-int="28127" data-name="Simpson County" d="M1186,2124l39,0 5,24 0,124 1,36 -59,4 -50,4 -79,5 -29,2 -58,4 -3,-10 9,0 3,-7 -2,-9 -17,1 -6,-8 9,-13 0,-9 -6,2 -8,-9 13,-5 3,-6 -6,-21 -16,-12 2,-14 -7,-11 -11,1 5,-8 -11,-15 1,-8 -10,-2 -5,-14 7,-6 -11,-1 -5,-9 10,-12 79,0 2,1 90,0 25,1Z"/>
    <path data-fips-int="28129" data-name="Smith County" d="M1423,2002l1,172 1,69 2,0 1,49 -50,4 -147,12 -1,-36 0,-124 -5,-24 -39,0 -1,-60 1,-60 16,-1 190,0Z"/>
    <path data-fips-int="28131" data-name="Stone County" d="M1417,3087l0,-37 0,-144 120,0 92,-1 57,-1 1,120 0,41 -111,1 -99,0 0,21Z"/>
    <path data-fips-int="28133" data-name="Sunflower County" d="M772,789l0,75 0,44 -2,164 0,44 -1,124 -59,0 0,41 -13,-1 -80,0 -27,0 1,-121 2,0 0,-58 -2,0 1,-59 60,0 1,-102 2,-153Z"/>
    <path data-fips-int="28135" data-name="Tallahatchie County" d="M1069,666l3,17 0,167 0,51 -30,-1 0,10 -90,0 -1,61 -47,0 -5,-8 -13,-1 -7,23 -7,5 -15,-3 -7,-13 2,-14 9,-10 25,-8 29,2 14,-10 3,-10 -7,-14 -51,0 -102,-2 0,-44 0,-75 1,-60 166,0 14,1 0,-61 0,1 100,0 -4,-4Z"/>
    <path data-fips-int="28137" data-name="Tate County" d="M1187,248l1,59 30,1 0,90 -30,0 -249,0 -21,0 -13,-20 -6,-4 -5,-26 13,-14 2,-10 -7,-10 4,-10 -7,-7 6,-11 12,-5 9,-7 5,-13 12,-4 13,-1 9,5 9,16 6,-4 9,10 8,-1 12,10 8,-3 38,-9 1,-8 22,-15 2,-9Z"/>
    <path data-fips-int="28139" data-name="Tippah County" d="M1755,255l2,111 -10,0 -189,0 -11,0 -1,-82 0,-67 30,0 0,-30 10,0 -1,-94 110,-2 0,95 40,-1 1,70Z"/>
    <path data-fips-int="28141" data-name="Tishomingo County" d="M2077,453l-98,1 -2,-68 0,-44 -2,-79 -10,0 0,-10 -10,0 -1,-67 0,-98 92,-1 14,23 13,28 15,12 17,8 -11,126 -8,75Z"/>
    <path data-fips-int="28143" data-name="Tunica County" d="M859,187l57,0 0,61 1,33 -12,5 -6,11 7,7 -4,10 7,10 -2,10 -13,14 5,26 6,4 13,20 0,30 -60,0 1,59 -55,0 -97,-71 15,-10 2,-11 -17,-21 -10,-25 3,-13 -3,-21 12,-14 8,-2 9,15 -9,11 3,19 16,1 23,-21 7,-9 3,-10 -6,-8 -28,2 -10,-1 -16,-17 2,-8 16,-11 -6,-24 3,-7 16,-4 6,16 0,8 -12,10 2,14 20,6 11,-4 7,-6 -2,-16 -8,-14 -1,-14 9,-10 -5,-15 -10,-17 0,-10 10,-10 14,3 7,14 0,18 11,6 17,-9 18,-6 4,-4 16,11Z"/>
    <path data-fips-int="28145" data-name="Union County" d="M1747,366l0,60 0,10 -30,0 1,69 -20,0 0,20 -59,1 0,-10 -91,0 -46,1 -44,0 0,-79 0,-61 0,-10 89,-1 11,0Z"/>
    <path data-fips-int="28147" data-name="Walthall County" d="M1004,2614l0,70 5,0 0,40 15,0 0,30 40,0 0,15 5,0 0,15 5,0 0,10 50,-1 0,51 -136,0 -113,1 0,-241 9,0 80,0 10,4 8,11 15,-1Z"/>
    <path data-fips-int="28149" data-name="Warren County" d="M707,1806l-15,4 -14,16 5,20 5,2 -7,7 0,8 -8,7 -6,21 -8,6 4,24 -30,-9 -14,3 3,12 -3,14 4,3 -6,17 -7,3 3,10 -8,2 8,5 -8,8 -1,11 -6,13 -9,0 2,6 -15,5 -8,9 12,15 -23,2 -3,9 -7,-1 1,-11 -11,-3 -9,12 7,1 1,9 -24,8 -13,-11 -9,24 6,1 -1,10 -23,0 -2,-14 -7,4 -13,-2 -22,-12 17,-19 -1,-13 -13,-2 -19,-11 5,15 -2,24 -16,-6 -9,2 -4,7 -8,-5 -10,0 -19,-6 -5,-18 8,-27 17,-10 14,4 11,-11 11,-1 6,6 9,-16 7,0 18,13 1,22 11,-19 5,-28 -6,-8 3,-16 8,-2 10,10 20,-15 22,-45 -8,-2 -6,16 -7,7 -40,-7 -13,-9 6,-28 16,-13 0,-8 -7,-10 -12,-1 -16,10 -16,-3 -22,-13 -13,-18 0,-10 8,-27 6,-9 13,15 7,14 11,13 21,6 8,-11 -13,-13 -23,-10 -14,-12 -3,-6 22,-14 46,1 -1,43 0,70 8,-24 13,-3 5,5 9,-3 15,5 4,-7 5,7 2,-92 59,0 17,7 -1,-15 5,-2 4,-14 -2,-5 17,0 0,20 20,0 0,30 38,0 0,10 20,0Z"/>
    <path data-fips-int="28151" data-name="Washington County" d="M591,1101l2,0 0,58 -2,0 -1,121 27,0 -9,5 0,24 27,15 4,5 -5,8 2,8 -3,20 -6,6 -2,10 12,5 0,10 -12,4 -93,0 -30,-2 0,62 -30,0 0,-2 -116,-2 2,-6 16,-7 9,-17 -4,-8 -13,-11 -12,-4 -16,-12 -2,-14 9,-11 15,0 6,7 28,0 9,-6 3,-25 -5,-30 12,-4 12,-16 4,-17 -2,-5 -15,-2 -7,6 -9,26 -16,-22 1,-6 -8,-14 0,-33 24,-28 14,-12 10,-14 1,-14 -11,-7 -9,7 -3,25 -11,13 -15,7 -15,0 -13,-6 -11,-12 5,-8 15,0 25,-8 9,-13 -7,-18 -21,-16 -6,8 4,23 -4,7 -19,6 -13,-3 0,-13 13,-8 8,-14 7,-6 -1,-8 -17,-14 131,0 60,1 4,1Z"/>
    <path data-fips-int="28153" data-name="Wayne County" d="M1938,2539l-47,1 -6,1 -114,2 -64,1 -59,1 -1,-148 -1,-122 19,-2 15,0 79,-8 73,-14 88,-26 7,127 5,82Z"/>
    <path data-fips-int="28155" data-name="Webster County" d="M1592,1079l-40,0 0,20 -52,1 -22,4 -4,5 -18,-1 -9,7 -18,5 -13,10 -7,14 -12,-1 -12,8 -72,0 -1,-149 0,-31 66,-1 95,0 19,0 0,-12 90,-1 0,73 10,-1Z"/>
    <path data-fips-int="28157" data-name="Wilkinson County" d="M347,2601l23,16 13,3 5,2 4,20 12,6 -1,108 1,25 -2,61 -37,0 -115,-2 -188,-3 32,-15 11,-12 2,-13 -4,-8 -31,-28 -1,-16 15,-19 6,-20 9,-24 13,-9 13,6 0,11 14,-8 11,0 6,-23 -11,-11 3,-6 12,-1 2,-23 26,4 7,-6 15,-2 2,-6 26,-2 7,-9 16,-8 8,6 5,-6 10,-3 0,7 15,-8 14,3 1,7 11,2 6,4Z"/>
    <path data-fips-int="28159" data-name="Winston County" d="M1712,1268l0,4 1,154 2,90 -59,0 -9,0 0,6 -20,0 0,-6 -31,1 0,-3 -159,0 -15,0 0,-121 60,-1 0,-62 60,0 0,-60 12,0 94,-1Z"/>
    <path data-fips-int="28161" data-name="Yalobusha County" d="M1309,668l0,49 2,46 1,108 -68,0 -82,0 0,-20 -90,-1 0,-167 -3,-17 38,1 82,0 0,-20 29,0 91,0Z"/>
    <path data-fips-int="28163" data-name="Yazoo County" d="M1049,1551l-9,9 -9,23 -13,5 1,16 -12,33 -9,14 -13,4 -14,19 -6,-2 -42,17 -5,9 -18,4 -2,-5 -12,6 -18,-2 -5,13 -6,-3 -9,4 -6,17 -8,7 -7,-5 -32,26 -15,-8 -9,1 -3,7 -3,12 -6,6 -10,3 -9,13 -5,2 -22,12 -6,-2 0,-17 -20,0 0,-10 -38,0 0,-30 -20,0 0,-20 -17,0 12,-4 2,-12 -10,0 -6,-14 9,-20 6,2 1,12 11,4 6,-6 -1,-14 -15,-9 -11,0 -15,-12 2,-21 17,5 9,-6 1,-7 -11,-8 -4,-9 9,-18 -10,2 -5,-4 -8,7 -11,-3 0,-15 27,-26 34,-33 73,0 45,0 1,-59 49,-1 12,-7 5,7 110,48Z"/>
    <path data-fips-int="28021" data-name="Claiborne County" d="M604,2000l2,63 4,59 1,48 -1,23 -1,69 -9,10 -2,30 -68,0 1,-5 5,-8 0,-16 -104,-25 -76,-5 -57,-2 7,-4 21,-22 11,-7 -1,-10 -6,-2 3,-17 16,-15 33,-4 18,-18 -9,-14 -34,-9 -8,-11 12,-12 6,2 11,15 9,7 11,-2 -1,-20 27,-14 3,-10 22,12 13,2 7,-4 2,14 23,0 1,-10 -6,-1 9,-24 13,11 24,-8 -1,-9 -7,-1 9,-12 11,3 -1,11 7,1 3,-9 23,-2 -12,-15 8,-9 15,-5 -2,-6 9,0Z"/>
    <path data-fips-int="28045" data-name="Hancock County" d="M1417,3087l0,133 2,56 -10,5 -12,18 10,-3 -7,8 15,-7 9,4 5,11 -3,12 -22,13 -8,10 -23,9 -5,21 -13,17 3,10 -10,8 -3,-12 -13,2 -5,6 -16,2 -6,-11 -8,0 -15,10 -7,-6 -10,-18 -10,-8 2,-12 -11,-8 0,-17 -6,-17 9,-6 -6,-23 -12,-6 -1,-9 -15,-25 3,-6 -3,-26 -4,-5 25,1 0,-31 31,0 0,-10 30,0 0,-90 100,0Z"/>
    <path data-fips-int="28047" data-name="Harrison County" d="M1655,3386l-22,2 1,-3 28,-3ZM1579,3375l-11,17 1,-8 -39,-10 3,-1 44,-1ZM1698,3267l25,8 3,9ZM1687,3065l3,172 -13,-2 -30,5 -21,-4 -1,6 -8,-2 9,10 5,-4 33,0 9,-5 6,7 6,-2 20,6 1,10 -35,-2 -51,5 -48,13 -57,25 -25,7 -15,8 -26,6 -1,-18 14,-8 -11,-10 7,-5 -19,-2 -2,-6 -18,1 -2,-56 0,-133 60,0 0,-21 99,0Z"/>
    <path data-fips-int="28059" data-name="Jackson County" d="M1924,3383l28,6 9,-5 15,2 -15,5 -14,2 -26,-8ZM1792,3357l31,10 55,9 -10,2 -35,-6 -12,0 -24,-9 -26,3 -8,-2ZM1863,3254l15,6 2,12 -3,19 -6,0 -3,-14 -5,-6 -3,7 -5,-14ZM1967,3022l4,72 3,65 6,102 -10,5 9,6 4,14 -11,5 -5,-7 -15,-1 -9,-7 -9,5 8,7 0,-9 7,1 1,15 -4,6 -15,8 -15,0 -5,-11 -14,-6 -17,-1 2,-23 10,-6 -11,0 -5,-9 -10,1 -5,-6 -11,0 4,11 -1,10 -17,13 -16,-2 -21,14 -13,0 -16,-4 -15,-13 -19,-10 16,-1 -15,-6 -22,-12 -7,-9 8,-1 -6,-6 -16,8 -4,-3 -3,-172 0,-41 69,1 97,-2Z"/>
    <path data-fips-int="28013" data-name="Calhoun County" d="M1460,668l1,60 60,0 1,100 0,80 -29,0 -1,50 0,12 -19,0 -95,0 -66,1 0,-100 -1,-108 -2,-46 0,-49Z"/>
  </g>
  <g class="cities">
    <circle r="3" cx="92.1" cy="195.1"/>
    <text x="92.1" y="195.1">Jackson</text>
    <circle r="3" cx="156.6" cy="327.9"/>
    <text x="156.6" y="327.9">Gulfport</text>
    <circle r="3" cx="102.4" cy="9.9"/>
    <text x="102.4" y="9.9">Southaven</text>
  </g>
</svg>