<?xml version="1.0" encoding="utf-8"?>
<!DOCTYPE svg PUBLIC "-//W3C//DTD SVG 1.1//EN" "http://www.w3.org/Graphics/SVG/1.1/DTD/svg11.dtd">
<svg version="1.1" xmlns="http://www.w3.org/2000/svg" width="350" height="202" viewBox="0 0 350 202">
  <defs>
    <pattern id="pattern-no-results" width="50" height="50" patternUnits="userSpaceOnUse">
      <rect width="50" height="50" fill="#ddd"/>
      <path d="M-5,5L5,-5M-5,55L55,-5M45,55L55,45" stroke-width="10" stroke="#666666"/>
    </pattern>
  </defs>
  <g class="counties" transform="scale(0.1)">
    <path data-fips-int="30001" data-name="Beaverhead County" d="M852,1360l0,1 22,18 0,1 0,-1 0,1 68,29 5,18 13,31 0,1 4,63 6,5 50,27 -2,122 35,2 -1,35 38,1 8,71 29,18 81,3 -2,29 87,2 -12,69 -53,-11 -35,20 -12,-22 -69,16 -52,-21 -30,48 -113,-19 -10,44 -47,-23 -31,-122 -40,-39 -28,13 -30,-33 5,-78 -35,-30 -52,-116 5,-44 -45,-73 9,-20 10,-11 15,9 11,-12 43,-20 9,-4 3,0 5,-8 18,-26 0,-1 40,75 52,-49Z"/>
    <path data-fips-int="30003" data-name="Big Horn County" d="M2412,1292l25,34 70,-3 0,18 67,15 18,14 -8,60 53,2 5,130 -10,70 138,-7 10,75 -564,16 -2,2 2,-2 38,-88 -169,4 15,-99 91,-1 70,-25 2,-153 46,-1 57,-60Z"/>
    <path data-fips-int="30005" data-name="Blaine County" d="M2181,107l-3,104 -15,0 -5,127 -15,-6 -2,0 0,-1 0,1 -3,188 -47,-5 -15,27 -1,0 -59,2 0,75 0,1 0,-1 -13,-22 -73,1 -53,27 -37,-5 0,-161 -3,-62 21,-65 -11,-46 3,-175Z"/>
    <path data-fips-int="30007" data-name="Broadwater County" d="M1285,1006l0,1 0,-1 0,1 18,3 5,3 61,128 27,-4 27,19 -19,55 15,30 -78,1 -16,32 0,1 0,-1 0,1 -32,71 -2,0 -5,3 -35,31 0,2 0,-2 2,-84 -35,0 3,-210 44,1 0,-70Z"/>
    <path data-fips-int="30009" data-name="Carbon County" d="M2100,1533l-15,99 169,-4 -38,88 -2,2 -440,4 0,-66 30,0 36,-80 58,-41 47,0 17,-50 81,-10Z"/>
    <path data-fips-int="30011" data-name="Carter County" d="M3384,1304l28,355 -284,19 -10,-142 16,0 -10,-175 10,-1 -6,-140 13,-1 103,-8 2,34 36,-3 2,33 71,-4Z"/>
    <path data-fips-int="30013" data-name="Cascade County" d="M1433,671l6,12 7,1 13,9 0,2 0,-2 0,2 5,2 4,0 6,-2 2,4 0,-2 0,2 3,1 63,48 -35,24 -3,107 35,0 -3,109 -2,2 -12,-10 -11,-1 -4,-12 -18,-15 -23,-29 -70,-12 -103,3 0,35 -33,-2 -35,0 1,-87 -69,-28 3,-129 20,3 15,-41 68,2 2,-35 69,1 117,2Z"/>
    <path data-fips-int="30015" data-name="Chouteau County" d="M1840,459l0,161 -31,2 -49,9 -1,69 -74,42 -28,8 -115,-2 -63,-48 -3,-1 0,-2 0,2 -2,-4 -6,2 -4,0 -5,-2 0,-2 0,2 0,-2 -13,-9 -7,-1 -6,-12 18,-36 -117,-2 2,-116 2,-58 156,0 18,-34 34,1 3,-35 208,1 0,34 32,-1 0,37Z"/>
    <path data-fips-int="30017" data-name="Custer County" d="M3171,1024l3,53 -46,3 13,139 -13,1 6,140 -10,1 -339,18 -7,-140 9,0 -5,-140 10,0 -9,-140 10,-7 0,-5 130,5 15,69 37,32 128,5 31,-32Z"/>
    <path data-fips-int="30019" data-name="Daniels County" d="M3021,71l13,140 20,34 -221,13 -58,3 -7,-105 -33,2 8,-72Z"/>
    <path data-fips-int="30021" data-name="Dawson County" d="M3236,721l25,42 15,76 -47,80 -28,3 -117,7 -85,-42 -4,-81 -24,2 -6,-140 10,-1 -5,-105 34,-2 2,35 70,-5 2,36 103,-7 25,33 5,69Z"/>
    <path data-fips-int="30023" data-name="Deer Lodge County" d="M1005,1203l-10,16 4,18 -9,4 -48,11 -30,54 -2,0 -13,29 -45,25 0,1 0,-1 -28,-11 -52,49 -40,-75 0,1 0,-1 9,0 43,-25 17,-14 1,-72 68,3 2,-18Z"/>
    <path data-fips-int="30025" data-name="Fallon County" d="M3360,998l24,306 -29,-33 -71,4 -2,-33 -36,3 -2,-34 -103,8 -13,-139 46,-3 -3,-53 33,-31 72,12Z"/>
    <path data-fips-int="30027" data-name="Fergus County" d="M2016,619l0,1 34,35 115,29 9,-7 0,1 2,108 -110,20 -5,69 37,0 -5,140 -103,2 -105,1 0,23 -98,0 -23,-43 20,-39 -2,-116 -102,-35 -23,-58 28,-8 74,-42 1,-69 49,-9 31,-2 37,5 53,-27 73,-1Z"/>
    <path data-fips-int="30029" data-name="Flathead County" d="M641,85l23,73 15,-9 52,46 -14,49 55,15 15,54 34,15 -2,44 5,8 25,47 10,0 1,0 10,11 0,-1 0,1 0,-1 5,7 5,0 4,0 1,0 7,-5 13,8 10,23 25,41 -21,11 -2,-2 0,-1 0,1 0,-1 -5,-1 -5,4 -20,8 -5,61 -3,11 -4,0 -13,58 -86,-4 -45,-2 10,-48 -15,-50 0,-14 -22,-31 -15,-13 -2,0 0,1 0,-1 0,1 -16,-29 -48,20 5,13 -122,-7 0,70 -35,-2 2,-34 -103,-6 -2,-57 2,-85 46,3 7,-140 -7,-34 57,-4 3,-49 -1,-1 -10,-81Z"/>
    <path data-fips-int="30031" data-name="Gallatin County" d="M1419,1241l79,1 -7,242 -33,25 0,71 -35,0 -4,141 -5,201 -50,-31 -41,-72 3,-240 10,-118 -51,-1 -75,-63 0,-1 0,1 5,1 36,-16 0,-2 35,-31 5,-3 2,0 32,-71 0,-1 0,1 0,-1 16,-32Z"/>
    <path data-fips-int="30033" data-name="Garfield County" d="M2682,509l41,34 9,137 -9,71 37,-3 3,71 22,-2 8,130 0,5 -174,9 0,-6 -323,15 -25,-162 13,-80 2,0 66,-84 57,11 7,-27 51,10 97,-14 81,-56Z"/>
    <path data-fips-int="30035" data-name="Glacier County" d="M1137,105l-4,210 -105,-6 -1,70 -208,-7 2,-44 -34,-15 -15,-54 -55,-15 14,-49 -52,-46 -15,9 -23,-73Z"/>
    <path data-fips-int="30037" data-name="Golden Valley County" d="M1990,1017l7,69 23,0 13,85 23,35 0,58 -40,1 -136,2 -2,35 -51,0 -15,-70 71,-1 2,-190 0,-23Z"/>
    <path data-fips-int="30039" data-name="Granite County" d="M816,971l11,16 22,23 23,1 0,186 -2,18 -68,-3 -1,72 -17,14 -43,25 -9,0 -35,-12 -43,-30 2,-62 18,-32 -21,-58 -10,-39 15,-61 46,3 0,-23 53,-11 0,-22 50,-9Z"/>
    <path data-fips-int="30041" data-name="Hill County" d="M1840,459l-51,3 0,-37 -32,1 0,-34 -208,-1 -3,35 -34,-1 7,-314 331,0 -3,175 11,46 -21,65Z"/>
    <path data-fips-int="30043" data-name="Jefferson County" d="M1221,1086l-3,210 35,0 -2,84 0,2 -36,16 -5,-1 0,-1 -27,-12 -18,-10 -7,0 -13,-3 -2,1 -1,1 -2,0 -8,1 -5,4 -2,0 2,0 -2,1 0,-1 0,1 -23,34 -67,-40 -2,-77 -28,-58 -6,-1 -4,-18 10,-16 37,-37 33,-24 12,2 5,-2 8,-5 0,-1 0,1 0,-1 32,-31 23,-20Z"/>
    <path data-fips-int="30045" data-name="Judith Basin County" d="M1657,750l23,58 102,35 2,116 -20,39 23,43 -75,-20 -12,-2 -53,16 -6,-1 -47,10 -5,3 -53,-59 3,-109 -35,0 3,-107 35,-24Z"/>
    <path data-fips-int="30047" data-name="Lake County" d="M687,499l0,-1 0,1 0,-1 2,0 15,13 22,31 0,14 15,50 -10,48 -88,-4 5,41 24,92 -1,37 -32,16 -70,-4 2,-87 -40,-15 17,-44 -10,-38 -65,-8 -2,-76 35,2 0,-70 122,7 -5,-13 48,-20Z"/>
    <path data-fips-int="30049" data-name="Lewis and Clark County" d="M925,590l0,2 7,39 10,20 23,13 60,-20 2,1 5,4 30,35 48,20 22,-1 15,1 3,-1 10,0 -3,129 69,28 -1,87 35,0 5,34 38,29 -18,-3 0,-1 0,1 0,-1 -20,11 0,70 -44,-1 -66,-1 -23,20 -32,31 0,1 0,-1 0,1 -8,5 -5,2 -12,-2 -3,-6 10,-68 -32,-39 -33,-1 1,-54 -71,-1 3,-139 -71,-4 -4,-123 -13,-47 13,-58 4,0 3,-11 5,-61 20,-8 5,-4Z"/>
    <path data-fips-int="30051" data-name="Liberty County" d="M1338,459l0,-35 36,0 5,-314 140,1 -7,314 -18,34Z"/>
    <path data-fips-int="30053" data-name="Lincoln County" d="M465,76l10,81 1,1 -3,49 -57,4 7,34 -7,140 -46,-3 -2,85 -40,-3 -10,39 -61,-10 -19,5 -46,-103 1,-12 0,-1 0,1 0,-1 -20,-28 -24,18 -34,23 -23,-28 27,-315Z"/>
    <path data-fips-int="30055" data-name="McCone County" d="M2975,445l31,3 -2,112 -34,2 5,105 -10,1 6,140 -116,6 3,35 -35,2 -1,-36 -37,2 -22,2 -3,-71 -37,3 9,-71 -9,-137 -41,-34 3,-42 43,12 105,2 0,-1 90,-39Z"/>
    <path data-fips-int="30057" data-name="Madison County" d="M1158,1374l7,0 18,10 27,12 0,1 75,63 51,1 -10,118 -3,240 -30,18 -87,-2 2,-29 -81,-3 -29,-18 -8,-71 -38,-1 1,-35 -35,-2 2,-122 -50,-27 -6,-5 -4,-63 0,-1 65,-45 77,0 23,-34 0,-1 0,1 2,-1 -2,0 2,0 5,-4 8,-1 2,0 1,-1 2,-1Z"/>
    <path data-fips-int="30059" data-name="Meagher County" d="M1489,952l18,15 4,12 11,1 12,10 2,-2 53,59 5,-3 47,-10 -4,197 0,16 -139,-5 -79,-1 -15,-30 19,-55 -27,-19 -27,4 -61,-128 -5,-3 -38,-29 -5,-34 33,2 0,-35 103,-3 70,12Z"/>
    <path data-fips-int="30061" data-name="Mineral County" d="M238,676l10,-3 32,2 80,41 0,34 46,20 5,19 75,68 9,29 -32,11 0,87 -35,2 -68,-40 3,-37 -98,-115 -2,-27 -56,-21 -58,-54 38,-21 0,-2Z"/>
    <path data-fips-int="30063" data-name="Missoula County" d="M731,654l45,2 -7,167 43,4 -5,140 -50,9 0,22 -53,11 0,23 -46,-3 -139,-7 -78,4 -13,-40 35,-2 0,-87 32,-11 -9,-29 -75,-68 -5,-19 62,9 51,31 44,26 6,-4 70,4 32,-16 1,-37 -24,-92 -5,-41Z"/>
    <path data-fips-int="30065" data-name="Musselshell County" d="M2316,1007l15,105 1,41 -41,1 -27,53 -103,14 0,41 -105,2 0,-58 -23,-35 -13,-85 -23,0 -7,-69 103,-2Z"/>
    <path data-fips-int="30067" data-name="Park County" d="M1637,1247l-3,159 20,0 -2,248 45,0 77,2 0,66 -260,4 -95,-5 4,-141 35,0 0,-71 33,-25 7,-242Z"/>
    <path data-fips-int="30069" data-name="Petroleum County" d="M2284,728l2,0 -2,0 -13,80 25,162 20,37 -223,8 5,-140 -37,0 5,-69 110,-20 -2,-108 0,-1 0,1 70,-7 35,10Z"/>
    <path data-fips-int="30071" data-name="Phillips County" d="M2461,99l-5,35 8,162 -28,13 13,70 -37,36 4,213 -7,27 -57,-11 -66,84 -2,0 -5,-47 -35,-10 -70,7 0,-1 -9,7 -115,-29 -34,-35 0,-1 0,-75 59,-2 1,0 15,-27 47,5 3,-188 0,-1 0,1 2,0 15,6 5,-127 15,0 3,-104Z"/>
    <path data-fips-int="30073" data-name="Pondera County" d="M1133,315l30,16 0,-1 2,-2 0,2 -2,0 0,1 2,0 0,-1 0,-2 2,0 16,22 87,20 -2,53 70,1 0,35 -2,58 -155,-2 -16,-42 -33,-19 -227,-7 -13,-8 -7,5 -1,0 -4,0 -5,0 -5,-7 0,1 0,-1 0,1 -10,-11 -1,0 -10,0 -25,-47 -5,-8 208,7 1,-70Z"/>
    <path data-fips-int="30075" data-name="Powder River County" d="M3124,1361l10,175 -16,0 10,142 -348,22 -10,-75 12,-70 -9,-175 12,-1Z"/>
    <path data-fips-int="30077" data-name="Powell County" d="M862,660l13,47 4,123 71,4 -3,139 71,1 -1,54 33,1 32,39 -10,68 3,6 -33,24 -37,37 -133,-6 0,-186 -23,-1 -22,-23 -11,-16 -9,-4 5,-140 -43,-4 7,-167Z"/>
    <path data-fips-int="30079" data-name="Prairie County" d="M3201,922l3,71 -33,31 -37,2 -31,32 -128,-5 -37,-32 -15,-69 -130,-5 -8,-130 37,-2 1,36 35,-2 -3,-35 116,-6 24,-2 4,81 85,42Z"/>
    <path data-fips-int="30081" data-name="Ravalli County" d="M658,1029l-15,61 10,39 21,58 -18,32 -2,62 43,30 35,12 0,1 -18,26 -5,8 -3,0 -9,4 -43,20 -11,12 -15,-9 -10,11 -9,20 -118,89 -58,-53 20,-46 -18,-32 45,-28 3,-50 -25,-27 46,-157 15,-90Z"/>
    <path data-fips-int="30083" data-name="Richland County" d="M3304,442l15,13 18,241 -21,19 -80,6 -25,0 -5,-69 -25,-33 -103,7 -2,-36 -70,5 -2,-35 2,-112 48,-3 34,-36 20,12 101,3 55,22Z"/>
    <path data-fips-int="30085" data-name="Roosevelt County" d="M3054,245l59,-4 1,35 35,-2 0,35 157,-12 13,158 -15,-13 -40,4 -55,-22 -101,-3 -20,-12 -34,36 -48,3 -31,-3 -52,-4 -90,39 0,1 0,-1 8,-83 -8,-139Z"/>
    <path data-fips-int="30087" data-name="Rosebud County" d="M2793,952l-10,7 9,140 -10,0 5,140 -9,0 7,140 -12,1 9,175 -12,70 -138,7 10,-70 -5,-130 -53,-2 8,-60 -18,-14 -5,-107 -19,2 -10,-106 -35,2 -13,-34 -150,4 -11,-5 -15,-105 -20,-37 323,-15 0,6Z"/>
    <path data-fips-int="30089" data-name="Sanders County" d="M406,770l-46,-20 0,-34 -80,-41 -32,-2 -10,3 -51,-7 0,2 -35,-28 13,-65 -26,-21 -52,-94 5,-96 23,28 34,-23 24,-18 20,28 0,1 0,-1 0,1 -1,12 46,103 19,-5 61,10 10,-39 40,3 2,57 103,6 -2,34 2,76 65,8 10,38 -17,44 40,15 -2,87 -6,4 -44,-26 -51,-31Z"/>
    <path data-fips-int="30091" data-name="Sheridan County" d="M3306,297l-157,12 0,-35 -35,2 -1,-35 -59,4 -20,-34 -13,-140 266,-19Z"/>
    <path data-fips-int="30093" data-name="Silver Bow County" d="M1102,1413l-77,0 -65,45 0,1 0,-1 -13,-31 -5,-18 -68,-29 0,-1 0,1 0,-1 -22,-18 0,-1 45,-25 13,-29 2,0 30,-54 48,-11 9,-4 6,1 28,58 2,77Z"/>
    <path data-fips-int="30095" data-name="Stillwater County" d="M2016,1265l9,181 18,29 -81,10 -17,50 -47,0 -58,41 -36,80 -30,0 -77,-2 0,-71 38,0 0,-70 105,-35 3,-106 35,-70 2,-35Z"/>
    <path data-fips-int="30097" data-name="Sweet Grass County" d="M1812,1232l15,70 51,0 -35,70 -3,106 -105,35 0,70 -38,0 0,71 -45,0 2,-248 -20,0 3,-159 0,-16Z"/>
    <path data-fips-int="30099" data-name="Teton County" d="M1336,517l-2,116 -69,-1 -2,35 -68,-2 -15,41 -20,-3 -10,0 -3,1 -15,-1 -22,1 -48,-20 -30,-35 -5,-4 -2,-1 -60,20 -23,-13 -10,-20 -7,-39 0,-2 -13,-72 5,1 0,1 0,-1 0,1 2,2 21,-11 -25,-41 -10,-23 227,7 33,19 16,42Z"/>
    <path data-fips-int="30101" data-name="Toole County" d="M1137,105l242,5 -5,314 -36,0 -70,-1 2,-53 -87,-20 -16,-22 -2,0 0,2 0,1 -2,0 0,-1 2,0 0,-2 -2,2 0,1 -30,-16Z"/>
    <path data-fips-int="30103" data-name="Treasure County" d="M2574,1356l-67,-15 0,-18 -70,3 -25,-34 10,-55 -80,-120 150,-4 13,34 35,-2 10,106 19,-2Z"/>
    <path data-fips-int="30105" data-name="Valley County" d="M2743,86l-8,72 33,-2 7,105 58,-3 8,139 -8,83 0,1 -105,-2 -43,-12 -3,42 -37,59 -81,56 -97,14 -51,-10 -4,-213 37,-36 -13,-70 28,-13 -8,-162 5,-35Z"/>
    <path data-fips-int="30107" data-name="Wheatland County" d="M1787,1041l98,0 -2,190 -71,1 -175,-1 4,-197 6,1 53,-16 12,2Z"/>
    <path data-fips-int="30109" data-name="Wibaux County" d="M3337,696l23,302 -84,7 -72,-12 -3,-71 28,-3 47,-80 -15,-76 -25,-42 80,-6Z"/>
    <path data-fips-int="30111" data-name="Yellowstone County" d="M2342,1117l80,120 -10,55 -46,1 -57,60 -46,1 -2,153 -70,25 -91,1 -57,-58 -18,-29 -9,-181 40,-1 105,-2 0,-41 103,-14 27,-53 41,-1 -1,-41Z"/>
  </g>
  <g class="cities">
    <circle r="3" cx="213.8" cy="140.4"/>
    <text x="213.8" y="140.4">Billings</text>
    <circle r="3" cx="61.8" cy="94.2"/>
    <text x="61.8" y="94.2">Missoula</text>
    <circle r="3" cx="136.3" cy="71.4"/>
    <text x="136.3" y="71.4">Great Falls</text>
  </g>
</svg>