<?xml version="1.0" encoding="utf-8"?>
<!DOCTYPE svg PUBLIC "-//W3C//DTD SVG 1.1//EN" "http://www.w3.org/Graphics/SVG/1.1/DTD/svg11.dtd">
<svg version="1.1" xmlns="http://www.w3.org/2000/svg" width="350" height="202" viewBox="0 0 350 202">
  <path class="state" transform="scale(0.1)" d="M3360,998l24,306 28,355 -284,19 -348,22 -220,8h-69l-275,8 -2,2 -236,4 -6,-3 -198,3 -260,4 -95,-5 -5,46v155l-50,-31 4,-18 -45,-54 -30,18 -12,27v42l-53,-11 -35,20 -12,-22 -69,16 -52,-21 -20,12 -10,36 -25,-14 -88,-5 -10,44 -47,-23 -6,-40 -23,-31 11,-9 -13,-42 -40,-39 -28,13 -30,-33 -10,-34 15,-4v-40l-35,-30 -29,-53 -23,-63 5,-44 -18,-1 5,-37 -20,-3 -12,-32 -118,89 -36,-45 -22,-8 20,-46 -18,-32 20,-29 25,1 3,-50 -25,-27 13,-24 -13,-27 18,1v-30l28,-77 15,-90 -38,10 -40,-6 -13,-40 -28,14 3,-25 -43,-29 3,-37 -35,-23 -5,-28 -58,-64 -2,-27 -56,-21 -4,-22 -54,-32 38,-21 -35,-28 15,-13 -2,-52 -26,-21 -52,-94 5,-96 27,-315 346,24 176,9 226,12 270,8 242,5 140,1h331l331,-4 280,-8 282,-13 278,-15 266,-19 19,245 13,158 18,241 23,302"/>
  <g class="counties" transform="scale(0.1)">
    <path data-fips-int="30001" data-name="Beaverhead County" d="M874,1380l68,29 5,18 13,31v1l4,63 6,5 38,6 12,21 -2,122 35,2 -1,35 38,1 8,71 29,18 81,3 -2,29 87,2 -12,27v42l-53,-11 -35,20 -12,-22 -69,16 -52,-21 -20,12 -10,36 -25,-14 -88,-5 -10,44 -47,-23 -6,-40 -23,-31 11,-9 -13,-42 -40,-39 -28,13 -30,-33 -10,-34 15,-4v-40l-35,-30 -29,-53 -23,-63 5,-44 -18,-1 5,-37 -20,-3 -12,-32 9,-20 10,-11 15,9 11,-12 43,-20 9,-4h3l5,-8 18,-26v-1l40,75 52,-49 28,11v1Z"/>
    <path data-fips-int="30003" data-name="Big Horn County" d="M2412,1292l24,-1 1,35 70,-3v18l35,-1v17l32,-1 18,14 -8,60 53,2 5,130h-13l3,70 138,-7 10,75 -220,8h-69l-275,8 -2,2 2,-2 15,-52 23,-36 -169,4 3,-86 12,-13 91,-1v-11l70,-14 2,-153 46,-1 23,-35 35,-1 -1,-24Z"/>
    <path data-fips-int="30005" data-name="Blaine County" d="M2181,107l-3,104h-15l-5,127 -15,-6h-2l-5,91 2,97 -47,-5 -15,27h-1l-59,2v75l-13,-22 -73,1 -53,27 -37,-5v-161l-3,-62 21,-65 -11,-46 3,-175Z"/>
    <path data-fips-int="30007" data-name="Broadwater County" d="M1325,1275l-7,45 -25,26h-2l-5,3 -35,31v2v-2l2,-84h-35l3,-210 44,1v-70ZM1325,1274l16,-32 78,-1 -15,-30 19,-55 -27,-19 -27,4 -6,-32 -20,-9 5,-38 -23,-2 -17,-47 -5,-3Z"/>
    <path data-fips-int="30009" data-name="Carbon County" d="M2100,1533l-12,13 -3,86 169,-4 -23,36 -15,52 -2,2 -236,4 -6,-3 -198,3v-66h30v-38h23l13,-42 58,-41h47l17,-50 44,-12 37,2 17,-12 -5,36 28,10Z"/>
    <path data-fips-int="30011" data-name="Carter County" d="M3384,1304l28,355 -284,19 -10,-142h16l-10,-175 10,-1 -6,-140 13,-1 103,-8 2,34 36,-3 2,33 71,-4 2,35Z"/>
    <path data-fips-int="30013" data-name="Cascade County" d="M1433,671l6,12 7,1 13,9v2l5,2h4l6,-2 2,4 3,1 28,4 -1,33 36,11v24h-35l-3,107h35l2,104 -5,5 -2,2 -12,-10 -11,-1 -4,-12 -18,-15 -23,-29 -43,-10 -4,-32h-18l-5,30 -103,3v35l-33,-2h-35l1,-87 -41,-5 -28,-23 3,-129 20,3 13,3 2,-44 68,2 2,-35 69,1 117,2Z"/>
    <path data-fips-int="30015" data-name="Chouteau County" d="M1840,459v161l-31,2 -49,9 -1,69 -74,42 -28,8 -115,-2 -36,-11 1,-33 -28,-4 -3,-1 -2,-4 -6,2h-4l-5,-2v-2l-13,-9 -7,-1 -6,-12 18,-36 -117,-2 2,-116 2,-58h156v-34h18l34,1 3,-35 208,1v34l32,-1v37Z"/>
    <path data-fips-int="30017" data-name="Custer County" d="M3171,1024l3,53 -46,3 13,139 -13,1 6,140 -10,1 -339,18 -7,-140h9l-5,-140h10l-9,-140 10,-7v-5l70,-4v11l60,-2 15,69 22,-1 15,33 58,-3v12l70,-4 35,-14 -4,-18Z"/>
    <path data-fips-int="30019" data-name="Daniels County" d="M3021,71l13,140 19,-1 1,35 -221,13 -58,3 -7,-105 -33,2 8,-72Z"/>
    <path data-fips-int="30021" data-name="Dawson County" d="M3236,721l25,42 15,76 -15,44 -32,36 -28,3 -117,7 -15,-22 -33,2 -2,-23 -35,1 -4,-81 -24,2 -6,-140 10,-1 -5,-105 34,-2 2,35 70,-5 2,36 103,-7 1,34 24,-1 5,69Z"/>
    <path data-fips-int="30023" data-name="Deer Lodge County" d="M1005,1203l-10,16 4,18 -9,4 -48,11 -2,35 -28,19h-2l-13,29 -45,25 -28,-11 -52,49 -40,-75h9l26,-29 17,4 17,-14 1,-72 68,3 2,-18Z"/>
    <path data-fips-int="30025" data-name="Fallon County" d="M3360,998l24,306 -27,2 -2,-35 -71,4 -2,-33 -36,3 -2,-34 -103,8 -13,-139 46,-3 -3,-53v-17l33,-14 52,-4 20,16Z"/>
    <path data-fips-int="30027" data-name="Fergus County" d="M2016,619v1l34,35 115,29 9,-7v1l2,108 -75,5v13l-35,2 -5,69h37v105l-5,35 -103,2 -105,1v23h-98l-3,-35 -20,-8 20,-39 -2,-116h-32v-17h-35v-18h-35v-35h-23v-23l28,-8 74,-42 1,-69 49,-9 31,-2 37,5 53,-27 73,-1Z"/>
    <path data-fips-int="30029" data-name="Flathead County" d="M687,499l-16,-29 -38,-3 -10,23 5,13 -122,-7v70l-35,-2 2,-34 -103,-6 -2,-57 2,-85 46,3 7,-140 -7,-34 57,-4 18,-34 -15,-15 -1,-1 -10,-81 176,9 23,73 15,-9 18,-2 34,48 -14,49 55,15 19,14 -4,40 34,15 -2,44 5,8 20,15 5,32h10h1ZM917,520l2,2 21,-11 -25,-41 -10,-23 -13,-8 -7,5h-1h-4h-5ZM687,498h2l15,13 22,31v14l-5,23 20,27 -10,48 45,2 86,4 -3,-52 16,-6h4l3,-11 5,-61 20,-8 5,-4Z"/>
    <path data-fips-int="30031" data-name="Gallatin County" d="M1325,1274l16,-32 78,-1 79,1 -7,242 -33,25v71h-35l-4,141 -5,46v155l-50,-31 4,-18 -45,-54 3,-240h8l2,-118 -51,-1 -35,-41 -40,-22 5,1 36,-16v-2l35,-31 5,-3h2l25,-26Z"/>
    <path data-fips-int="30033" data-name="Garfield County" d="M2682,509h15l1,36 25,-2 9,137h-10l1,71 37,-3 3,71 22,-2 8,130v5l-174,9v-6l-203,7 -120,8 -13,-10 15,-51 -9,-8 -18,-93 13,-80h2l17,-35 29,-16 20,-33 57,11 7,-27 51,10 57,-2 40,-12 -2,-17 33,-1 10,-19 40,-19 27,-68Z"/>
    <path data-fips-int="30035" data-name="Glacier County" d="M1137,105l-4,210 -105,-6 -1,70 -208,-7 2,-44 -34,-15 4,-40 -19,-14 -55,-15 14,-49 -34,-48 -18,2 -15,9 -23,-73 226,12Z"/>
    <path data-fips-int="30037" data-name="Golden Valley County" d="M1990,1017l7,69h23l13,85 23,35v58l-40,1 -136,2 -2,35h-51v-35l-15,-35 71,-1 2,-190v-23Z"/>
    <path data-fips-int="30039" data-name="Granite County" d="M816,971l11,16 22,23 23,1 3,8 -3,178 -2,18 -68,-3 -1,72 -17,14 -17,-4 -26,29h-9l-35,-12 -11,-29 -32,-1 15,-31 -13,-31 18,-32 -21,-58 -10,-39 20,-31 -5,-30 46,3v-23l53,-11v-22l50,-9Z"/>
    <path data-fips-int="30041" data-name="Hill County" d="M1840,459l-51,3v-37l-32,1v-34l-208,-1 -3,35 -34,-1 2,-255 5,-59h331l-3,175 11,46 -21,65Z"/>
    <path data-fips-int="30043" data-name="Jefferson County" d="M1100,1136l5,-24 27,-7 23,-20 66,1 -3,210h35l-2,84v2l-36,16 -5,-1v-1l-27,-12 -18,-10h-7l-13,-3 -2,1 -1,1h-2l-8,1 -5,4h-2h2l-2,1 -23,34 -67,-40 -2,-77 -28,-58 -6,-1 -4,-18 10,-16 -3,-17 40,-20 33,-24 12,2 5,-2Z"/>
    <path data-fips-int="30045" data-name="Judith Basin County" d="M1657,750v23h23v35h35v18h35v17h32l2,116 -20,39 20,8 3,35 -75,-20 -12,-2 -53,16 -6,-1 -47,10 -5,3 -28,-22 -25,-37 5,-5 -2,-104h-35l3,-107h35v-24Z"/>
    <path data-fips-int="30047" data-name="Lake County" d="M687,498h2l15,13 22,31v14l-5,23 20,27 -10,48 -88,-4 5,41 24,92 -1,37 -30,-2 -2,18 -70,-4 2,-87 -40,-15 17,-44 -24,2 14,-40 -65,-8 -2,-76 35,2v-70l122,7 -5,-13 10,-23 38,3Z"/>
    <path data-fips-int="30049" data-name="Lewis and Clark County" d="M1100,1137l-8,5 -5,2 -12,-2 -3,-6 10,-68 -32,-39 -33,-1 1,-54 -71,-1 3,-139 -71,-4 5,-123h-9l-13,-47 -3,-52 16,-6h4l3,-11 5,-61 20,-8 5,-4 15,48 -2,24v2l7,39 10,20 23,13 60,-20 2,1 5,4 30,35 48,20 22,-1 15,1 3,-1h10l-3,129 28,23 41,5 -1,87h35l5,34 38,29ZM1100,1136l5,-24 27,-7 23,-20 66,1 44,1v-70Z"/>
    <path data-fips-int="30051" data-name="Liberty County" d="M1338,459v-35h36v-101l5,-213 140,1 -5,59 -2,255h-18v34Z"/>
    <path data-fips-int="30053" data-name="Lincoln County" d="M465,76l10,81 1,1 15,15 -18,34 -57,4 7,34 -7,140 -46,-3 -2,85 -40,-3 -10,39 -28,8 -33,-18 -19,5 -13,2 -3,-41 -30,-64 1,-12v-1l-20,-28 -24,18 -34,23 -23,-28 27,-315Z"/>
    <path data-fips-int="30055" data-name="McCone County" d="M2975,445l31,3 7,80 -9,32 -34,2 5,105 -10,1 6,140 -116,6 3,35 -35,2 -1,-36 -37,2 -22,2 -3,-71 -37,3 -1,-71h10l-9,-137 -25,2 -1,-36h-15l3,-42 43,12 105,2v-1l52,-29 38,-10Z"/>
    <path data-fips-int="30057" data-name="Madison County" d="M1158,1374h7l18,10 27,12v1l40,22 35,41 51,1 -2,118h-8l-3,240 -30,18 -87,-2 2,-29 -81,-3 -29,-18 -8,-71 -38,-1 1,-35 -35,-2 2,-122 -12,-21 -38,-6 -6,-5 -4,-63v-1l65,-45h77l23,-34 2,-1h-2h2l5,-4 8,-1h2l1,-1 2,-1Z"/>
    <path data-fips-int="30059" data-name="Meagher County" d="M1489,952l18,15 4,12 11,1 12,10 2,-2 25,37 28,22 5,-3 47,-10 -4,197v16l-139,-5 -79,-1 -15,-30 19,-55 -27,-19 -27,4 -6,-32 -20,-9 5,-38 -23,-2 -17,-47 -5,-3 -38,-29 -5,-34 33,2v-35l103,-3 5,-30h18l4,32 43,10Z"/>
    <path data-fips-int="30061" data-name="Mineral County" d="M238,676l10,-3 32,2 80,41v34l46,20 5,19 50,43 4,23 21,2 9,29 -32,11v87l-35,2 -28,14 3,-25 -43,-29 3,-37 -35,-23 -5,-28 -58,-64 -2,-27 -56,-21 -4,-22 -54,-32 38,-21v-2Z"/>
    <path data-fips-int="30063" data-name="Missoula County" d="M731,654l45,2 -7,167 43,4 -5,140 -50,9v22l-53,11v23l-46,-3 -139,-7 -38,10 -40,-6 -13,-40 35,-2v-87l32,-11 -9,-29 -21,-2 -4,-23 -50,-43 -5,-19 62,9 51,31 22,26h22l6,-4 70,4 2,-18 30,2 1,-37 -24,-92 -5,-41Z"/>
    <path data-fips-int="30065" data-name="Musselshell County" d="M2316,1007l15,105 1,41 -41,1 -22,24 -5,29 -75,1 -28,13v41l-105,2v-58l-23,-35 -13,-85h-23l-7,-69 103,-2Z"/>
    <path data-fips-int="30067" data-name="Park County" d="M1637,1247l-3,159h20l2,143 -4,105h45l77,2v66l-260,4 -95,-5 4,-141h35v-71l33,-25 7,-242Z"/>
    <path data-fips-int="30069" data-name="Petroleum County" d="M2284,728l-13,80 18,93 9,8 -15,51 13,10 20,37 -223,8 5,-35v-105h-37l5,-69 35,-2v-13l75,-5 -2,-108 70,-7 35,10Z"/>
    <path data-fips-int="30071" data-name="Phillips County" d="M2461,99l-5,35 3,130 5,32 -28,13 13,70 -28,1 -9,35 4,213 -7,27 -57,-11 -20,33 -29,16 -17,35h-2l-5,-47 -35,-10 -70,7v-1l-9,7 -115,-29 -34,-35v-1v-75l59,-2h1l15,-27 47,5 -2,-97 5,-91h2l15,6 5,-127h15l3,-104Z"/>
    <path data-fips-int="30073" data-name="Pondera County" d="M870,438l-10,-11h-1h-10l-5,-32 -20,-15 -5,-8 208,7 1,-70 105,6 30,16v-1l2,-2h2l16,22 53,2 -1,17 35,1 -2,53 70,1v35l-2,58 -155,-2 -16,-42 -35,-1 2,-18 -227,-7 -13,-8 -7,5h-1h-4h-5Z"/>
    <path data-fips-int="30075" data-name="Powder River County" d="M3124,1361l10,175h-16l10,142 -348,22 -10,-75 -2,-69 14,-1 -9,-175 12,-1Z"/>
    <path data-fips-int="30077" data-name="Powell County" d="M862,660l13,47h9l-5,123 71,4 -3,139 71,1 -1,54 33,1 32,39 -10,68 3,6 -33,24 -40,20 3,17 -133,-6 3,-178 -3,-8 -23,-1 -22,-23 -11,-16 -9,-4 5,-140 -43,-4 7,-167Z"/>
    <path data-fips-int="30079" data-name="Prairie County" d="M3201,922l3,71 -33,14v17l-37,2 4,18 -35,14 -70,4v-12l-58,3 -15,-33 -22,1 -15,-69 -60,2v-11l-70,4 -8,-130 37,-2 1,36 35,-2 -3,-35 116,-6 24,-2 4,81 35,-1 2,23 33,-2 15,22Z"/>
    <path data-fips-int="30081" data-name="Ravalli County" d="M658,1029l5,30 -20,31 10,39 21,58 -18,32 13,31 -15,31 32,1 11,29 35,12v1l-18,26 -5,8h-3l-9,4 -43,20 -11,12 -15,-9 -10,11 -9,20 -118,89 -36,-45 -22,-8 20,-46 -18,-32 20,-29 25,1 3,-50 -25,-27 13,-24 -13,-27 18,1v-30l28,-77 15,-90Z"/>
    <path data-fips-int="30083" data-name="Richland County" d="M3304,442l15,13 18,241 -21,19 -80,6h-25l-5,-69 -24,1 -1,-34 -103,7 -2,-36 -70,5 -2,-35 9,-32 -7,-80 48,-3 34,-36 20,12 101,3 55,22Z"/>
    <path data-fips-int="30085" data-name="Roosevelt County" d="M3054,245l59,-4 1,35 35,-2v35l157,-12 13,158 -15,-13 -40,4 -55,-22 -101,-3 -20,-12 -34,36 -48,3 -31,-3 -52,-4 -38,10 -52,29 -3,-83h11l-8,-139Z"/>
    <path data-fips-int="30087" data-name="Rosebud County" d="M2793,952l-10,7 9,140h-10l5,140h-9l7,140 -12,1 9,175 -14,1 2,69 -138,7 -3,-70h13l-5,-130 -53,-2 8,-60 -18,-14 -5,-107 -19,2 -1,-70 -9,-36 -35,2 -13,-34 -150,4 -11,-5 -15,-105 -20,-37 120,-8 203,-7v6Z"/>
    <path data-fips-int="30089" data-name="Sanders County" d="M406,770l-46,-20v-34l-80,-41 -32,-2 -10,3 -51,-7v2l-35,-28 15,-13 -2,-52 -26,-21 -52,-94 5,-96 23,28 34,-23 24,-18 20,28v1l-1,12 30,64 3,41 13,-2 19,-5 33,18 28,-8 10,-39 40,3 2,57 103,6 -2,34 2,76 65,8 -14,40 24,-2 -17,44 40,15 -2,87 -6,4h-22l-22,-26 -51,-31Z"/>
    <path data-fips-int="30091" data-name="Sheridan County" d="M3306,297l-157,12v-35l-35,2 -1,-35 -59,4 -1,-35 -19,1 -13,-140 266,-19Z"/>
    <path data-fips-int="30093" data-name="Silver Bow County" d="M874,1379l-22,-18v-1l45,-25 13,-29h2l28,-19 2,-35 48,-11 9,-4 6,1 28,58 2,77 67,40h-77l-65,45 -13,-31 -5,-18Z"/>
    <path data-fips-int="30095" data-name="Stillwater County" d="M2016,1265l9,93v88l18,29 -37,-2 -44,12 -17,50h-47l-58,41 -13,42h-23v38h-30l-77,-2v-71h38v-70h34v-18h36v-17h35l3,-106 12,-35 23,-2v-33l2,-35Z"/>
    <path data-fips-int="30097" data-name="Sweet Grass County" d="M1812,1232l15,35v35h51v33l-23,2 -12,35 -3,106h-35v17h-36v18h-34v70h-38v71h-45l4,-105 -2,-143h-20l3,-159v-16Z"/>
    <path data-fips-int="30099" data-name="Teton County" d="M917,520l2,2 21,-11 -25,-41 -10,-23 227,7 -2,18 35,1 16,42 155,2 -2,116 -69,-1 -2,35 -68,-2 -2,44 -13,-3 -20,-3h-10l-3,1 -15,-1 -22,1 -48,-20 -30,-35 -5,-4 -2,-1 -60,20 -23,-13 -10,-20 -7,-39v-2l2,-24 -15,-48Z"/>
    <path data-fips-int="30101" data-name="Toole County" d="M1137,105l242,5 -5,213v101h-36l-70,-1 2,-53 -35,-1 1,-17 -53,-2 -16,-22h-2l-2,2v1l-30,-16Z"/>
    <path data-fips-int="30103" data-name="Treasure County" d="M2574,1356l-32,1v-17l-35,1v-18l-70,3 -1,-35 -24,1 10,-55 -80,-120 150,-4 13,34 35,-2 9,36 1,70 19,-2Z"/>
    <path data-fips-int="30105" data-name="Valley County" d="M2743,86l-8,72 33,-2 7,105 58,-3 8,139h-11l3,83v1l-105,-2 -43,-12 -3,42 -10,-9 -27,68 -40,19 -10,19 -33,1 2,17 -40,12 -57,2 -51,-10 -4,-213 9,-35 28,-1 -13,-70 28,-13 -5,-32 -3,-130 5,-35Z"/>
    <path data-fips-int="30107" data-name="Wheatland County" d="M1787,1041h98l-2,190 -71,1 -175,-1 4,-197 6,1 53,-16 12,2Z"/>
    <path data-fips-int="30109" data-name="Wibaux County" d="M3337,696l23,302 -84,7 -20,-16 -52,4 -3,-71 28,-3 32,-36 15,-44 -15,-76 -25,-42 80,-6Z"/>
    <path data-fips-int="30111" data-name="Yellowstone County" d="M2342,1117l80,120 -10,55 -46,1 1,24 -35,1 -23,35 -46,1 -2,153 -70,14v11l-91,1 -17,-24 -28,-10 5,-36 -17,12 -18,-29v-88l-9,-93 40,-1 105,-2v-41l28,-13 75,-1 5,-29 22,-24 41,-1 -1,-41Z"/>
  </g>
  <path class="mesh" transform="scale(0.1)" d="M3021,71l13,140 19,-1 1,35 -221,13 -58,3 -7,-105 -33,2 8,-72M3337,696l-21,19 -80,6 25,42 15,76 -15,44 -32,36 -28,3 -117,7 -15,-22 -33,2 -2,-23 -35,1 -4,-81 -24,2 -6,-140 10,-1 -5,-105 34,-2 2,35 70,-5 2,36 103,-7 1,34 24,-1 5,69h25M3124,1361l-339,18 -7,-140h9l-5,-140h10l-9,-140 10,-7 -174,9v-6l-203,7 -120,8 -13,-10 15,-51 -9,-8 -18,-93 13,-80h2l17,-35 29,-16 20,-33 57,11 7,-27 51,10 57,-2 40,-12 -2,-17 33,-1 10,-19 40,-19 27,-68 10,9h15l1,36 25,-2 9,137h-10l1,71 37,-3 3,71 22,-2 8,130 70,-4v11l60,-2 15,69 22,-1 15,33 58,-3v12l70,-4 35,-14 -4,-18 37,-2v-17l33,-14 52,-4 20,16 84,-7M687,499l-16,-29 -38,-3 -10,23 5,13 -122,-7v70l-35,-2 2,-34 -103,-6 -2,-57 2,-85 46,3 7,-140 -7,-34 57,-4 18,-34 -15,-15 -1,-1 -10,-81M2016,619l-13,-22 -73,1 -53,27 -37,-5v-161l-3,-62 21,-65 -11,-46 3,-175M874,1380l68,29 5,18 13,31v1l4,63 6,5 38,6 12,21 -2,122 35,2 -1,35 38,1 8,71 29,18 81,3 -2,29 87,2M641,85l23,73 15,-9 18,-2 34,48 -14,49 55,15 19,14 -4,40 34,15 -2,44 5,8 20,15 5,32h10h1l10,11M1325,1275l-7,45 -25,26h-2l-5,3 -35,31v2v-2l2,-84h-35l3,-210 44,1v-70l20,-11M917,520l2,2 21,-11 -25,-41 -10,-23 -13,-8 -7,5h-1h-4h-5l-5,-7M1325,1274l16,-32 78,-1 -15,-30 19,-55 -27,-19 -27,4 -6,-32 -20,-9 5,-38 -23,-2 -17,-47 -5,-3 -18,-3M687,498h2l15,13 22,31v14l-5,23 20,27 -10,48 45,2 86,4 -3,-52 16,-6h4l3,-11 5,-61 20,-8 5,-4 5,1M1419,1241l79,1 -7,242 -33,25v71h-35l-4,141M1323,1819l3,-240h8l2,-118 -51,-1 -35,-41 -40,-22 5,1 36,-16M1137,105l-4,210 -105,-6 -1,70 -208,-7M1990,1017l7,69h23l13,85 23,35v58l-40,1 -136,2 -2,35h-51v-35l-15,-35 71,-1 2,-190M3128,1678l-10,-142h16l-10,-175 10,-1 -6,-140 13,-1 103,-8 2,34 36,-3 2,33 71,-4 2,35 27,-2M609,1416l9,-20 10,-11 15,9 11,-12 43,-20 9,-4h3l5,-8 18,-26v-1l-35,-12 -11,-29 -32,-1 15,-31 -13,-31 18,-32 -21,-58 -10,-39 20,-31 -5,-30 46,3v-23l53,-11v-22l50,-9 9,4 11,16 22,23 23,1 3,8 -3,178M1338,459h156v-34h18l2,-255 5,-59M1100,1136l5,-24 27,-7 23,-20 66,1M732,1323l40,75 52,-49 28,11v1l22,18M1210,1397v-1l-27,-12 -18,-10h-7l-13,-3 -2,1 -1,1h-2l-8,1 -5,4h-2h2l-2,1 -23,34 -67,-40 -2,-77 -28,-58 -6,-1M1005,1203l-3,-17 40,-20 33,-24 12,2 5,-2 8,-5M1787,1041l-75,-20 -12,-2 -53,16 -6,-1 -47,10 -5,3 -28,-22 -25,-37M2214,1718l2,-2 15,-52 23,-36 -169,4 3,-86 12,-13 91,-1v-11l70,-14 2,-153 46,-1 23,-35 35,-1 -1,-24 46,-1 24,-1 1,35 70,-3v18l35,-1v17l32,-1 18,14 -8,60 53,2 5,130h-13l3,70 138,-7 10,75M731,654l-88,-4 5,41 24,92 -1,37 -30,-2 -2,18 -70,-4 2,-87 -40,-15 17,-44 -24,2 14,-40 -65,-8 -2,-76M1075,1142l-3,-6 10,-68 -32,-39 -33,-1 1,-54 -71,-1 3,-139 -71,-4 5,-123h-9l-13,-47M1433,671l6,12 7,1 13,9v2l5,2h4l6,-2 2,4 3,1 28,4 -1,33 36,11v24h-35l-3,107h35l2,104 -5,5 -2,2 -12,-10 -11,-1 -4,-12 -18,-15 -23,-29 -43,-10 -4,-32h-18l-5,30 -103,3v35l-33,-2h-35l1,-87 -41,-5 -28,-23 3,-129 20,3 13,3 2,-44 68,2 2,-35 69,1 117,2 -18,36M912,518l15,48 -2,24v2l7,39 10,20 23,13 60,-20 2,1 5,4 30,35 48,20 22,-1 15,1 3,-1h10M1260,947l5,34 38,29M1334,633l2,-116 2,-58v-35h36v-101l5,-213M368,467l-40,-3 -10,39 -28,8 -33,-18 -19,5 -13,2 -3,-41 -30,-64 1,-12v-1l-20,-28 -24,18 -34,23 -23,-28M1840,620l-31,2 -49,9 -1,69 -74,42 -28,8 -115,-2M2682,509l3,-42 43,12 105,2v-1l52,-29 38,-10 52,4 31,3 7,80 -9,32M2971,808l-116,6 3,35 -35,2 -1,-36 -37,2M960,1458l65,-45h77M1641,1034l-4,197v16l-139,-5M187,671v-2l51,7 10,-3 32,2 80,41v34l46,20 5,19 50,43 4,23 21,2 9,29 -32,11v87l-35,2M776,656l-7,167 43,4 -5,140M658,1029l-139,-7M1512,425l34,1 3,-35 208,1v34l32,-1v37l51,-3M3171,1024l3,53 -46,3 13,139M406,770l62,9 51,31 22,26h22l6,-4M2093,1015l223,-8 15,105 1,41 -41,1 -22,24 -5,29 -75,1 -28,13v41l-105,2M1637,1247l-3,159h20l2,143 -4,105h45l77,2M2296,970l20,37M2174,678l70,-7 35,10 5,47M2461,99l-5,35 3,130 5,32 -28,13 13,70 -28,1 -9,35 4,213M1133,315l30,16v-1l2,-2h2l16,22 53,2 -1,17 35,1 -2,53 70,1M1336,517l-155,-2 -16,-42 -35,-1 2,-18 -227,-7M2770,1625l-2,-69 14,-1 -9,-175 12,-1M3201,922l3,71M2793,952v-5M3006,448l48,-3 34,-36 20,12 101,3 55,22 40,-4 15,13M3054,245l59,-4 1,35 35,-2v35l157,-12M2833,480l-3,-83h11l-8,-139M2574,1356l-5,-107 -19,2 -1,-70 -9,-36 -35,2 -13,-34 -150,4 -11,-5M2016,1265l9,93v88l18,29M1697,1654v-71h38v-70h34v-18h36v-17h35l3,-106 12,-35 23,-2v-33M1637,1231l175,1M2412,1292l10,-55 -80,-120M1774,1722v-66h30v-38h23l13,-42 58,-41h47l17,-50 44,-12 37,2 17,-12 -5,36 28,10 17,24M2181,107l-3,104h-15l-5,127 -15,-6h-2l-5,91 2,97 -47,-5 -15,27h-1l-59,2v75v1l34,35 115,29 9,-7v1l2,108 -75,5v13l-35,2 -5,69h37v105l-5,35 -103,2 -105,1v23h-98l-3,-35 -20,-8 20,-39 -2,-116h-32v-17h-35v-18h-35v-35h-23v-23M995,1219M990,1241M912,1306M910,1306M741,1323M784,1298M1005,1203l-10,16M995,1219l4,18M999,1237l-9,4M990,1241l-48,11 -2,35 -28,19M912,1306h-2M910,1306l-13,29 -45,25M732,1323h9M741,1323l26,-29 17,4M784,1298l17,-14 1,-72 68,3 2,-18M872,1197l133,6"/>
  <g class="cities">
    <circle r="3" cx="213.8" cy="140.4"/>
    <text x="213.8" y="140.4">Billings</text>
    <circle r="3" cx="61.8" cy="94.2"/>
    <text x="61.8" y="94.2">Missoula</text>
    <circle r="3" cx="136.3" cy="71.4"/>
    <text x="136.3" y="71.4">Great Falls</text>
  </g>
</svg>