<?xml version="1.0" encoding="utf-8"?>
<!DOCTYPE svg PUBLIC "-//W3C//DTD SVG 1.1//EN" "http://www.w3.org/Graphics/SVG/1.1/DTD/svg11.dtd">
<svg version="1.1" xmlns="http://www.w3.org/2000/svg" width="350" height="202" viewBox="0 0 350 202">
  <path class="state" transform="scale(0.1)" d="M3360,998l24,306 28,355 -284,19 -348,22 -220,8 -69,0 -275,8 -2,2 -236,4 -6,-3 -198,3 -260,4 -95,-5 -5,46 0,155 -50,-31 4,-18 -45,-54 -30,18 -12,27 0,42 -53,-11 -35,20 -12,-22 -69,16 -52,-21 -20,12 -10,36 -25,-14 -88,-5 -10,44 -47,-23 -6,-40 -23,-31 11,-9 -13,-42 -40,-39 -28,13 -30,-33 -10,-34 15,-4 0,-40 -35,-30 -29,-53 -23,-63 5,-44 -18,-1 5,-37 -20,-3 -12,-32 -118,89 -36,-45 -22,-8 20,-46 -18,-32 20,-29 25,1 3,-50 -25,-27 13,-24 -13,-27 18,1 0,-30 28,-77 15,-90 -38,10 -40,-6 -13,-40 -28,14 3,-25 -43,-29 3,-37 -35,-23 -5,-28 -58,-64 -2,-27 -56,-21 -4,-22 -54,-32 38,-21 -35,-28 15,-13 -2,-52 -26,-21 -52,-94 5,-96 27,-315 346,24 176,9 226,12 270,8 242,5 140,1 331,0 331,-4 280,-8 282,-13 278,-15 266,-19 19,245 13,158 18,241 23,302Z"/>
  <g class="counties" transform="scale(0.1)">
    <path data-fips-int="30001" data-name="Beaverhead County" d="M874,1380l68,29 5,18 13,31 0,1 4,63 6,5 38,6 12,21 -2,122 35,2 -1,35 38,1 8,71 29,18 81,3 -2,29 87,2 -12,27 0,42 -53,-11 -35,20 -12,-22 -69,16 -52,-21 -20,12 -10,36 -25,-14 -88,-5 -10,44 -47,-23 -6,-40 -23,-31 11,-9 -13,-42 -40,-39 -28,13 -30,-33 -10,-34 15,-4 0,-40 -35,-30 -29,-53 -23,-63 5,-44 -18,-1 5,-37 -20,-3 -12,-32 9,-20 10,-11 15,9 11,-12 43,-20 9,-4 3,0 5,-8 18,-26 0,-1 40,75 52,-49 28,11 0,1Z"/>
    <path data-fips-int="30003" data-name="Big Horn County" d="M2412,1292l24,-1 1,35 70,-3 0,18 35,-1 0,17 32,-1 18,14 -8,60 53,2 5,130 -13,0 3,70 138,-7 10,75 -220,8 -69,0 -275,8 -2,2 2,-2 15,-52 23,-36 -169,4 3,-86 12,-13 91,-1 0,-11 70,-14 2,-153 46,-1 23,-35 35,-1 -1,-24Z"/>
    <path data-fips-int="30005" data-name="Blaine County" d="M2181,107l-3,104 -15,0 -5,127 -15,-6 -2,0 -5,91 2,97 -47,-5 -15,27 -1,0 -59,2 0,75 -13,-22 -73,1 -53,27 -37,-5 0,-161 -3,-62 21,-65 -11,-46 3,-175Z"/>
    <path data-fips-int="30007" data-name="Broadwater County" d="M1325,1275l-7,45 -25,26 -2,0 -5,3 -35,31 0,2 0,-2 2,-84 -35,0 3,-210 44,1 0,-70ZM1325,1274l16,-32 78,-1 -15,-30 19,-55 -27,-19 -27,4 -6,-32 -20,-9 5,-38 -23,-2 -17,-47 -5,-3Z"/>
    <path data-fips-int="30009" data-name="Carbon County" d="M2100,1533l-12,13 -3,86 169,-4 -23,36 -15,52 -2,2 -236,4 -6,-3 -198,3 0,-66 30,0 0,-38 23,0 13,-42 58,-41 47,0 17,-50 44,-12 37,2 17,-12 -5,36 28,10Z"/>
    <path data-fips-int="30011" data-name="Carter County" d="M3384,1304l28,355 -284,19 -10,-142 16,0 -10,-175 10,-1 -6,-140 13,-1 103,-8 2,34 36,-3 2,33 71,-4 2,35Z"/>
    <path data-fips-int="30013" data-name="Cascade County" d="M1433,671l6,12 7,1 13,9 0,2 5,2 4,0 6,-2 2,4 3,1 28,4 -1,33 36,11 0,24 -35,0 -3,107 35,0 2,104 -5,5 -2,2 -12,-10 -11,-1 -4,-12 -18,-15 -23,-29 -43,-10 -4,-32 -18,0 -5,30 -103,3 0,35 -33,-2 -35,0 1,-87 -41,-5 -28,-23 3,-129 20,3 13,3 2,-44 68,2 2,-35 69,1 117,2Z"/>
    <path data-fips-int="30015" data-name="Chouteau County" d="M1840,459l0,161 -31,2 -49,9 -1,69 -74,42 -28,8 -115,-2 -36,-11 1,-33 -28,-4 -3,-1 -2,-4 -6,2 -4,0 -5,-2 0,-2 -13,-9 -7,-1 -6,-12 18,-36 -117,-2 2,-116 2,-58 156,0 0,-34 18,0 34,1 3,-35 208,1 0,34 32,-1 0,37Z"/>
    <path data-fips-int="30017" data-name="Custer County" d="M3171,1024l3,53 -46,3 13,139 -13,1 6,140 -10,1 -339,18 -7,-140 9,0 -5,-140 10,0 -9,-140 10,-7 0,-5 70,-4 0,11 60,-2 15,69 22,-1 15,33 58,-3 0,12 70,-4 35,-14 -4,-18Z"/>
    <path data-fips-int="30019" data-name="Daniels County" d="M3021,71l13,140 19,-1 1,35 -221,13 -58,3 -7,-105 -33,2 8,-72Z"/>
    <path data-fips-int="30021" data-name="Dawson County" d="M3236,721l25,42 15,76 -15,44 -32,36 -28,3 -117,7 -15,-22 -33,2 -2,-23 -35,1 -4,-81 -24,2 -6,-140 10,-1 -5,-105 34,-2 2,35 70,-5 2,36 103,-7 1,34 24,-1 5,69Z"/>
    <path data-fips-int="30023" data-name="Deer Lodge County" d="M1005,1203l-10,16 4,18 -9,4 -48,11 -2,35 -28,19 -2,0 -13,29 -45,25 -28,-11 -52,49 -40,-75 9,0 26,-29 17,4 17,-14 1,-72 68,3 2,-18Z"/>
    <path data-fips-int="30025" data-name="Fallon County" d="M3360,998l24,306 -27,2 -2,-35 -71,4 -2,-33 -36,3 -2,-34 -103,8 -13,-139 46,-3 -3,-53 0,-17 33,-14 52,-4 20,16Z"/>
    <path data-fips-int="30027" data-name="Fergus County" d="M2016,619l0,1 34,35 115,29 9,-7 0,1 2,108 -75,5 0,13 -35,2 -5,69 37,0 0,105 -5,35 -103,2 -105,1 0,23 -98,0 -3,-35 -20,-8 20,-39 -2,-116 -32,0 0,-17 -35,0 0,-18 -35,0 0,-35 -23,0 0,-23 28,-8 74,-42 1,-69 49,-9 31,-2 37,5 53,-27 73,-1Z"/>
    <path data-fips-int="30029" data-name="Flathead County" d="M687,499l-16,-29 -38,-3 -10,23 5,13 -122,-7 0,70 -35,-2 2,-34 -103,-6 -2,-57 2,-85 46,3 7,-140 -7,-34 57,-4 18,-34 -15,-15 -1,-1 -10,-81 176,9 23,73 15,-9 18,-2 34,48 -14,49 55,15 19,14 -4,40 34,15 -2,44 5,8 20,15 5,32 10,0 1,0ZM917,520l2,2 21,-11 -25,-41 -10,-23 -13,-8 -7,5 -1,0 -4,0 -5,0ZM687,498l2,0 15,13 22,31 0,14 -5,23 20,27 -10,48 45,2 86,4 -3,-52 16,-6 4,0 3,-11 5,-61 20,-8 5,-4Z"/>
    <path data-fips-int="30031" data-name="Gallatin County" d="M1325,1274l16,-32 78,-1 79,1 -7,242 -33,25 0,71 -35,0 -4,141 -5,46 0,155 -50,-31 4,-18 -45,-54 3,-240 8,0 2,-118 -51,-1 -35,-41 -40,-22 5,1 36,-16 0,-2 35,-31 5,-3 2,0 25,-26Z"/>
    <path data-fips-int="30033" data-name="Garfield County" d="M2682,509l15,0 1,36 25,-2 9,137 -10,0 1,71 37,-3 3,71 22,-2 8,130 0,5 -174,9 0,-6 -203,7 -120,8 -13,-10 15,-51 -9,-8 -18,-93 13,-80 2,0 17,-35 29,-16 20,-33 57,11 7,-27 51,10 57,-2 40,-12 -2,-17 33,-1 10,-19 40,-19 27,-68Z"/>
    <path data-fips-int="30035" data-name="Glacier County" d="M1137,105l-4,210 -105,-6 -1,70 -208,-7 2,-44 -34,-15 4,-40 -19,-14 -55,-15 14,-49 -34,-48 -18,2 -15,9 -23,-73 226,12Z"/>
    <path data-fips-int="30037" data-name="Golden Valley County" d="M1990,1017l7,69 23,0 13,85 23,35 0,58 -40,1 -136,2 -2,35 -51,0 0,-35 -15,-35 71,-1 2,-190 0,-23Z"/>
    <path data-fips-int="30039" data-name="Granite County" d="M816,971l11,16 22,23 23,1 3,8 -3,178 -2,18 -68,-3 -1,72 -17,14 -17,-4 -26,29 -9,0 -35,-12 -11,-29 -32,-1 15,-31 -13,-31 18,-32 -21,-58 -10,-39 20,-31 -5,-30 46,3 0,-23 53,-11 0,-22 50,-9Z"/>
    <path data-fips-int="30041" data-name="Hill County" d="M1840,459l-51,3 0,-37 -32,1 0,-34 -208,-1 -3,35 -34,-1 2,-255 5,-59 331,0 -3,175 11,46 -21,65Z"/>
    <path data-fips-int="30043" data-name="Jefferson County" d="M1100,1136l5,-24 27,-7 23,-20 66,1 -3,210 35,0 -2,84 0,2 -36,16 -5,-1 0,-1 -27,-12 -18,-10 -7,0 -13,-3 -2,1 -1,1 -2,0 -8,1 -5,4 -2,0 2,0 -2,1 -23,34 -67,-40 -2,-77 -28,-58 -6,-1 -4,-18 10,-16 -3,-17 40,-20 33,-24 12,2 5,-2Z"/>
    <path data-fips-int="30045" data-name="Judith Basin County" d="M1657,750l0,23 23,0 0,35 35,0 0,18 35,0 0,17 32,0 2,116 -20,39 20,8 3,35 -75,-20 -12,-2 -53,16 -6,-1 -47,10 -5,3 -28,-22 -25,-37 5,-5 -2,-104 -35,0 3,-107 35,0 0,-24Z"/>
    <path data-fips-int="30047" data-name="Lake County" d="M687,498l2,0 15,13 22,31 0,14 -5,23 20,27 -10,48 -88,-4 5,41 24,92 -1,37 -30,-2 -2,18 -70,-4 2,-87 -40,-15 17,-44 -24,2 14,-40 -65,-8 -2,-76 35,2 0,-70 122,7 -5,-13 10,-23 38,3Z"/>
    <path data-fips-int="30049" data-name="Lewis and Clark County" d="M1100,1137l-8,5 -5,2 -12,-2 -3,-6 10,-68 -32,-39 -33,-1 1,-54 -71,-1 3,-139 -71,-4 5,-123 -9,0 -13,-47 -3,-52 16,-6 4,0 3,-11 5,-61 20,-8 5,-4 15,48 -2,24 0,2 7,39 10,20 23,13 60,-20 2,1 5,4 30,35 48,20 22,-1 15,1 3,-1 10,0 -3,129 28,23 41,5 -1,87 35,0 5,34 38,29ZM1100,1136l5,-24 27,-7 23,-20 66,1 44,1 0,-70Z"/>
    <path data-fips-int="30051" data-name="Liberty County" d="M1338,459l0,-35 36,0 0,-101 5,-213 140,1 -5,59 -2,255 -18,0 0,34Z"/>
    <path data-fips-int="30053" data-name="Lincoln County" d="M465,76l10,81 1,1 15,15 -18,34 -57,4 7,34 -7,140 -46,-3 -2,85 -40,-3 -10,39 -28,8 -33,-18 -19,5 -13,2 -3,-41 -30,-64 1,-12 0,-1 -20,-28 -24,18 -34,23 -23,-28 27,-315Z"/>
    <path data-fips-int="30055" data-name="McCone County" d="M2975,445l31,3 7,80 -9,32 -34,2 5,105 -10,1 6,140 -116,6 3,35 -35,2 -1,-36 -37,2 -22,2 -3,-71 -37,3 -1,-71 10,0 -9,-137 -25,2 -1,-36 -15,0 3,-42 43,12 105,2 0,-1 52,-29 38,-10Z"/>
    <path data-fips-int="30057" data-name="Madison County" d="M1158,1374l7,0 18,10 27,12 0,1 40,22 35,41 51,1 -2,118 -8,0 -3,240 -30,18 -87,-2 2,-29 -81,-3 -29,-18 -8,-71 -38,-1 1,-35 -35,-2 2,-122 -12,-21 -38,-6 -6,-5 -4,-63 0,-1 65,-45 77,0 23,-34 2,-1 -2,0 2,0 5,-4 8,-1 2,0 1,-1 2,-1Z"/>
    <path data-fips-int="30059" data-name="Meagher County" d="M1489,952l18,15 4,12 11,1 12,10 2,-2 25,37 28,22 5,-3 47,-10 -4,197 0,16 -139,-5 -79,-1 -15,-30 19,-55 -27,-19 -27,4 -6,-32 -20,-9 5,-38 -23,-2 -17,-47 -5,-3 -38,-29 -5,-34 33,2 0,-35 103,-3 5,-30 18,0 4,32 43,10Z"/>
    <path data-fips-int="30061" data-name="Mineral County" d="M238,676l10,-3 32,2 80,41 0,34 46,20 5,19 50,43 4,23 21,2 9,29 -32,11 0,87 -35,2 -28,14 3,-25 -43,-29 3,-37 -35,-23 -5,-28 -58,-64 -2,-27 -56,-21 -4,-22 -54,-32 38,-21 0,-2Z"/>
    <path data-fips-int="30063" data-name="Missoula County" d="M731,654l45,2 -7,167 43,4 -5,140 -50,9 0,22 -53,11 0,23 -46,-3 -139,-7 -38,10 -40,-6 -13,-40 35,-2 0,-87 32,-11 -9,-29 -21,-2 -4,-23 -50,-43 -5,-19 62,9 51,31 22,26 22,0 6,-4 70,4 2,-18 30,2 1,-37 -24,-92 -5,-41Z"/>
    <path data-fips-int="30065" data-name="Musselshell County" d="M2316,1007l15,105 1,41 -41,1 -22,24 -5,29 -75,1 -28,13 0,41 -105,2 0,-58 -23,-35 -13,-85 -23,0 -7,-69 103,-2Z"/>
    <path data-fips-int="30067" data-name="Park County" d="M1637,1247l-3,159 20,0 2,143 -4,105 45,0 77,2 0,66 -260,4 -95,-5 4,-141 35,0 0,-71 33,-25 7,-242Z"/>
    <path data-fips-int="30069" data-name="Petroleum County" d="M2284,728l-13,80 18,93 9,8 -15,51 13,10 20,37 -223,8 5,-35 0,-105 -37,0 5,-69 35,-2 0,-13 75,-5 -2,-108 70,-7 35,10Z"/>
    <path data-fips-int="30071" data-name="Phillips County" d="M2461,99l-5,35 3,130 5,32 -28,13 13,70 -28,1 -9,35 4,213 -7,27 -57,-11 -20,33 -29,16 -17,35 -2,0 -5,-47 -35,-10 -70,7 0,-1 -9,7 -115,-29 -34,-35 0,-1 0,-75 59,-2 1,0 15,-27 47,5 -2,-97 5,-91 2,0 15,6 5,-127 15,0 3,-104Z"/>
    <path data-fips-int="30073" data-name="Pondera County" d="M870,438l-10,-11 -1,0 -10,0 -5,-32 -20,-15 -5,-8 208,7 1,-70 105,6 30,16 0,-1 2,-2 2,0 16,22 53,2 -1,17 35,1 -2,53 70,1 0,35 -2,58 -155,-2 -16,-42 -35,-1 2,-18 -227,-7 -13,-8 -7,5 -1,0 -4,0 -5,0Z"/>
    <path data-fips-int="30075" data-name="Powder River County" d="M3124,1361l10,175 -16,0 10,142 -348,22 -10,-75 -2,-69 14,-1 -9,-175 12,-1Z"/>
    <path data-fips-int="30077" data-name="Powell County" d="M862,660l13,47 9,0 -5,123 71,4 -3,139 71,1 -1,54 33,1 32,39 -10,68 3,6 -33,24 -40,20 3,17 -133,-6 3,-178 -3,-8 -23,-1 -22,-23 -11,-16 -9,-4 5,-140 -43,-4 7,-167Z"/>
    <path data-fips-int="30079" data-name="Prairie County" d="M3201,922l3,71 -33,14 0,17 -37,2 4,18 -35,14 -70,4 0,-12 -58,3 -15,-33 -22,1 -15,-69 -60,2 0,-11 -70,4 -8,-130 37,-2 1,36 35,-2 -3,-35 116,-6 24,-2 4,81 35,-1 2,23 33,-2 15,22Z"/>
    <path data-fips-int="30081" data-name="Ravalli County" d="M658,1029l5,30 -20,31 10,39 21,58 -18,32 13,31 -15,31 32,1 11,29 35,12 0,1 -18,26 -5,8 -3,0 -9,4 -43,20 -11,12 -15,-9 -10,11 -9,20 -118,89 -36,-45 -22,-8 20,-46 -18,-32 20,-29 25,1 3,-50 -25,-27 13,-24 -13,-27 18,1 0,-30 28,-77 15,-90Z"/>
    <path data-fips-int="30083" data-name="Richland County" d="M3304,442l15,13 18,241 -21,19 -80,6 -25,0 -5,-69 -24,1 -1,-34 -103,7 -2,-36 -70,5 -2,-35 9,-32 -7,-80 48,-3 34,-36 20,12 101,3 55,22Z"/>
    <path data-fips-int="30085" data-name="Roosevelt County" d="M3054,245l59,-4 1,35 35,-2 0,35 157,-12 13,158 -15,-13 -40,4 -55,-22 -101,-3 -20,-12 -34,36 -48,3 -31,-3 -52,-4 -38,10 -52,29 -3,-83 11,0 -8,-139Z"/>
    <path data-fips-int="30087" data-name="Rosebud County" d="M2793,952l-10,7 9,140 -10,0 5,140 -9,0 7,140 -12,1 9,175 -14,1 2,69 -138,7 -3,-70 13,0 -5,-130 -53,-2 8,-60 -18,-14 -5,-107 -19,2 -1,-70 -9,-36 -35,2 -13,-34 -150,4 -11,-5 -15,-105 -20,-37 120,-8 203,-7 0,6Z"/>
    <path data-fips-int="30089" data-name="Sanders County" d="M406,770l-46,-20 0,-34 -80,-41 -32,-2 -10,3 -51,-7 0,2 -35,-28 15,-13 -2,-52 -26,-21 -52,-94 5,-96 23,28 34,-23 24,-18 20,28 0,1 -1,12 30,64 3,41 13,-2 19,-5 33,18 28,-8 10,-39 40,3 2,57 103,6 -2,34 2,76 65,8 -14,40 24,-2 -17,44 40,15 -2,87 -6,4 -22,0 -22,-26 -51,-31Z"/>
    <path data-fips-int="30091" data-name="Sheridan County" d="M3306,297l-157,12 0,-35 -35,2 -1,-35 -59,4 -1,-35 -19,1 -13,-140 266,-19Z"/>
    <path data-fips-int="30093" data-name="Silver Bow County" d="M874,1379l-22,-18 0,-1 45,-25 13,-29 2,0 28,-19 2,-35 48,-11 9,-4 6,1 28,58 2,77 67,40 -77,0 -65,45 -13,-31 -5,-18Z"/>
    <path data-fips-int="30095" data-name="Stillwater County" d="M2016,1265l9,93 0,88 18,29 -37,-2 -44,12 -17,50 -47,0 -58,41 -13,42 -23,0 0,38 -30,0 -77,-2 0,-71 38,0 0,-70 34,0 0,-18 36,0 0,-17 35,0 3,-106 12,-35 23,-2 0,-33 2,-35Z"/>
    <path data-fips-int="30097" data-name="Sweet Grass County" d="M1812,1232l15,35 0,35 51,0 0,33 -23,2 -12,35 -3,106 -35,0 0,17 -36,0 0,18 -34,0 0,70 -38,0 0,71 -45,0 4,-105 -2,-143 -20,0 3,-159 0,-16Z"/>
    <path data-fips-int="30099" data-name="Teton County" d="M917,520l2,2 21,-11 -25,-41 -10,-23 227,7 -2,18 35,1 16,42 155,2 -2,116 -69,-1 -2,35 -68,-2 -2,44 -13,-3 -20,-3 -10,0 -3,1 -15,-1 -22,1 -48,-20 -30,-35 -5,-4 -2,-1 -60,20 -23,-13 -10,-20 -7,-39 0,-2 2,-24 -15,-48Z"/>
    <path data-fips-int="30101" data-name="Toole County" d="M1137,105l242,5 -5,213 0,101 -36,0 -70,-1 2,-53 -35,-1 1,-17 -53,-2 -16,-22 -2,0 -2,2 0,1 -30,-16Z"/>
    <path data-fips-int="30103" data-name="Treasure County" d="M2574,1356l-32,1 0,-17 -35,1 0,-18 -70,3 -1,-35 -24,1 10,-55 -80,-120 150,-4 13,34 35,-2 9,36 1,70 19,-2Z"/>
    <path data-fips-int="30105" data-name="Valley County" d="M2743,86l-8,72 33,-2 7,105 58,-3 8,139 -11,0 3,83 0,1 -105,-2 -43,-12 -3,42 -10,-9 -27,68 -40,19 -10,19 -33,1 2,17 -40,12 -57,2 -51,-10 -4,-213 9,-35 28,-1 -13,-70 28,-13 -5,-32 -3,-130 5,-35Z"/>
    <path data-fips-int="30107" data-name="Wheatland County" d="M1787,1041l98,0 -2,190 -71,1 -175,-1 4,-197 6,1 53,-16 12,2Z"/>
    <path data-fips-int="30109" data-name="Wibaux County" d="M3337,696l23,302 -84,7 -20,-16 -52,4 -3,-71 28,-3 32,-36 15,-44 -15,-76 -25,-42 80,-6Z"/>
    <path data-fips-int="30111" data-name="Yellowstone County" d="M2342,1117l80,120 -10,55 -46,1 1,24 -35,1 -23,35 -46,1 -2,153 -70,14 0,11 -91,1 -17,-24 -28,-10 5,-36 -17,12 -18,-29 0,-88 -9,-93 40,-1 105,-2 0,-41 28,-13 75,-1 5,-29 22,-24 41,-1 -1,-41Z"/>
  </g>
  <g class="cities">
    <circle r="3" cx="213.8" cy="140.4"/>
    <text x="213.8" y="140.4">Billings</text>
    <circle r="3" cx="61.8" cy="94.2"/>
    <text x="61.8" y="94.2">Missoula</text>
    <circle r="3" cx="136.3" cy="71.4"/>
    <text x="136.3" y="71.4">Great Falls</text>
  </g>
</svg>