<?xml version="1.0" encoding="utf-8"?>
<!DOCTYPE svg PUBLIC "-//W3C//DTD SVG 1.1//EN" "http://www.w3.org/Graphics/SVG/1.1/DTD/svg11.dtd">
<svg version="1.1" xmlns="http://www.w3.org/2000/svg" width="1000" height="577" viewBox="0 0 1000 577">
  <path class="state" d="M370,524l-5,12 2,8 -14,-3 -12,6 -4,-7 -19,5 -16,-6 -7,13 -28,-7 -10,7 1,8 -12,-6 -9,-36 -11,-11 -9,4 -9,-10 2,-22 -10,-6 -9,-18 -2,-15 -4,-2 -1,-23 -7,-2 -3,-9h-7l-9,15 -10,1 -9,10 -16,-22 5,-9 -4,-8 4,-7h9v-15l-5,-1 5,-22 2,-24 6,-13 3,-17 -12,2 -12,-4 -3,-9 -19,-12v-9l-19,-27 -7,-6 -2,-9 -15,-5 -1,-7 -15,-11 10,-4 -10,-7 3,-4v-15l-7,-7v-8l-14,-18v-27l5,-64 3,-27 82,6 18,1 49,3 41,2 101,4 69,1 40,1 96,-1h53l41,-1 80,-2 80,-4 80,-5 76,-5 5,70 4,45 6,69 4,86 9,88 3,47 4,54 -80,6 -100,6 -56,3h-28l-78,2 -125,2 -75,1 -27,-1h-1v60l-13,-12 -9,-18 -5,-3Z"/>
  <g class="counties">
    <path data-fips-int="30001" data-name="Beaverhead County" d="M243,388l5,5 21,9 5,14 -1,17 7,6 8,-1 3,11v30h9v10h12l2,21 7,5 24,1 -1,8h26l-5,12 2,8 -14,-3 -12,6 -4,-7 -19,5 -16,-6 -7,13 -28,-7 -10,7 1,8 -12,-6 -9,-36 -11,-11 -9,4 -9,-10 2,-22 -10,-6 -9,-18 -2,-15 -4,-2 -1,-23 -7,-2 -3,-9 20,-16h8l7,-10 6,16 14,-2 3,-6Z"/>
    <path data-fips-int="30003" data-name="Big Horn County" d="M688,369l8,-1v10h20v5l19,4 6,4 -3,17h15l1,36 -3,2 1,20 40,-2 2,21 -56,3h-28l-78,2 10,-25 -47,1 1,-25 4,-3 26,-1 19,-7 1,-44h14l6,-10h10v-7Z"/>
    <path data-fips-int="30005" data-name="Blaine County" d="M623,30l-1,30h-4l-2,35h-5l-1,53 -13,-1 -1,8h-20v22l-4,-7h-26l-10,8 -10,-1v-47l-1,-17 5,-19 -3,-13 2,-50h53Z"/>
    <path data-fips-int="30007" data-name="Broadwater County" d="M372,288l5,15h8l-1,10 7,13 15,3 -6,16 6,9 -23,1 -7,13v8l-19,19v-25l-9,-1 1,-59h12l2,-24Z"/>
    <path data-fips-int="30009" data-name="Carbon County" d="M600,438l-4,3 -1,25 47,-1 -10,25 -125,2v-19h8v-11h7l4,-12 16,-12h13l5,-14 24,-3 3,6Z"/>
    <path data-fips-int="30011" data-name="Carter County" d="M967,372l3,47 4,54 -80,6 -3,-41h4l-2,-49 3,-1 -3,-40h4l30,-2v9h10l1,9 20,-1v10Z"/>
    <path data-fips-int="30013" data-name="Cascade County" d="M440,214v6h-9l-1,30h9v32l-8,-2v-8l-17,-11 -10,-2 2,-8h-7v9l-29,1 -1,9h-9h-10v-24l-12,-2 -7,-7v-36l9,1 1,-12h20v-10h20l33,1 -5,12 22,8v9Z"/>
    <path data-fips-int="30015" data-name="Chouteau County" d="M526,130v47l-23,2 -1,21 -29,14h-33l-9,-4v-9l-22,-8 5,-12 -33,-1v-33l1,-17h45v-9h5h10v-10h60v10h8v10Z"/>
    <path data-fips-int="30017" data-name="Custer County" d="M906,292l1,15 -14,1 4,40h-4l3,40 -3,1 -97,4 -2,-40h3l-2,-40h2l-2,-40 3,-2v-1l20,-1v3l17,-1 4,20h7l4,9h16v3l20,-1 11,-4 -1,-5Z"/>
    <path data-fips-int="30019" data-name="Daniels County" d="M863,19l4,41 6,10 -64,4h-16l-2,-30h-10l2,-20Z"/>
    <path data-fips-int="30021" data-name="Dawson County" d="M924,206l8,12 3,13 -2,19 -11,13h-8l-34,2 -3,-6h-10v-6h-10l-1,-23h-7l-2,-37 3,-3 -2,-30h9l1,9 20,-1v9h31l1,9h6l1,20Z"/>
    <path data-fips-int="30023" data-name="Deer Lodge County" d="M287,343l-2,10 -16,4v11l-7,-1 -6,14 -13,7 -11,-2 -3,6 -14,2 -6,-16 20,-13v-19l20,1v-6Z"/>
    <path data-fips-int="30025" data-name="Fallon County" d="M958,284l9,88 -9,1v-10l-20,1 -1,-9h-10v-9l-30,2 -4,-40 14,-1 -1,-15 -1,-5 11,-4 14,-1 5,4Z"/>
    <path data-fips-int="30027" data-name="Fergus County" d="M576,177l8,9 9,4 28,3 1,31 -22,1 -10,5 -1,20 10,-1 -1,41h-30h-30v7h-28l-1,-10 -6,-3 6,-11v-31l-9,-6h-10l-11,-5v-11l-6,-6 29,-14 1,-21 23,-2 10,1 10,-8h26Z"/>
    <path data-fips-int="30029" data-name="Flathead County" d="M182,24l4,5 1,15 12,-3 6,5 2,25 13,3 5,16 9,3v13l8,8v8l16,5 8,22 -6,-1 -8,3 2,15 -8,6v17l-25,-2 -13,-1 4,-9 -5,-6v-19l-14,-17 -13,-2 -1,10 -36,-2v20h-8v-11l-30,-1 -1,-16 1,-24 14,1 2,-40 -2,-10h16l6,-10 -6,-11 -2,-18Z"/>
    <path data-fips-int="30031" data-name="Gallatin County" d="M406,354l22,1 -2,69 -10,7v20h-10l-1,41h-1v60l-13,-12 -9,-18 -5,-3 2,-68h2v-34h-14l-10,-12 -12,-7 12,-3 19,-19v-8l7,-13Z"/>
    <path data-fips-int="30033" data-name="Garfield County" d="M765,145l6,10h8l1,33 -1,26h9l1,19h7l2,37v1l-50,3v-2l-59,3 -33,2 -4,-3 4,-15 -5,-9 -2,-32 3,-10 6,-11 8,-4 6,-9 16,3 2,-8 13,3 28,-3v-7l10,1 17,-15 1,-12Z"/>
    <path data-fips-int="30035" data-name="Glacier County" d="M324,30l-1,59 -29,-1 -1,20 -59,-2v-13l-9,-3 -5,-16 -13,-3 -2,-25 -6,-5 -12,3 -1,-15 -4,-5 41,2Z"/>
    <path data-fips-int="30037" data-name="Golden Valley County" d="M568,290l2,20h7l4,24 6,10v17h-11l-39,1 -1,10h-14l-5,-20 21,-1 -1,-31 1,-23v-7Z"/>
    <path data-fips-int="30039" data-name="Granite County" d="M249,341v6l-20,-1v19l-20,13 -10,-4 -3,-8 -9,-1 3,-10v-28l-6,-5 -1,-11 5,-17h12v-5l16,-4 5,-9h9l9,11h12Z"/>
    <path data-fips-int="30041" data-name="Hill County" d="M526,130l-16,1v-10h-8v-10h-60v10h-10v-63l1,-26 96,-1 -2,50 3,13 -5,19Z"/>
    <path data-fips-int="30043" data-name="Jefferson County" d="M349,310l-1,59 9,1v25l-12,3 -9,-6h-12l-9,11 -19,-11v-20l-11,-19 2,-10 2,-8 18,-9 10,-4 -2,-5 15,-7Z"/>
    <path data-fips-int="30045" data-name="Judith Basin County" d="M473,214l6,6v11l11,5h10l9,6v31l-6,11 6,3 1,10 -17,-7 -24,5 -5,4 -12,-1 -12,-10 -1,-6v-32h-9l1,-30h9v-6Z"/>
    <path data-fips-int="30047" data-name="Lake County" d="M208,186h-23l-1,16 8,21 -1,11 -9,4 -20,-1v-25l-11,-4 6,-12h-6l3,-11 -19,-2v-22h8v-20l36,2 1,-10 13,2 14,17v19l5,6Z"/>
    <path data-fips-int="30049" data-name="Lewis and Clark County" d="M331,201v36l7,7 12,2v24h10l1,10 11,2v6l-9,-2 -2,24h-12h-19l-15,7 2,5 -10,4 2,-24 -10,-3 1,-5 -10,-1 1,-15 -21,-1 2,-39 -21,-1 1,-33 -6,-15v-17l8,-6 -2,-15 8,-3 5,13v18l6,9 24,-3 18,16Z"/>
    <path data-fips-int="30051" data-name="Liberty County" d="M382,130v-9h11v-90l40,1 -1,26v63h-5v9Z"/>
    <path data-fips-int="30053" data-name="Lincoln County" d="M133,21l2,18 6,11 -6,10h-16l2,10 -2,40 -14,-1 -1,24 -10,-1 -3,10 -8,4 -20,-5v-11l-15,-29 -15,11 -8,-7 5,-64 3,-27 82,6Z"/>
    <path data-fips-int="30055" data-name="McCone County" d="M859,128l1,22 -3,10h-9l2,30 -3,3 2,37 -33,2v10l-10,1 -1,-10h-9h-7l-1,-19h-9l1,-26 -1,-33h-8l-6,-10v-10l44,2 16,-6 -1,-3 24,-3Z"/>
    <path data-fips-int="30057" data-name="Madison County" d="M345,398l12,7 10,12h14v34h-2l-2,68 -7,5h-26l1,-8 -24,-1 -7,-5 -2,-21h-12v-10h-9v-30l-3,-11 -8,1 -7,-6 1,-17 11,-6 4,-8 26,1 9,-11h12Z"/>
    <path data-fips-int="30059" data-name="Meagher County" d="M439,282l1,6 12,10 12,1 5,-4 -1,56v5l-40,-1 -22,-1 -6,-9 6,-16 -15,-3 -7,-13 1,-10h-8l-5,-15v-6l-11,-2 -1,-10h9l1,-9 29,-1v-9h7l-2,8 10,2 17,11v8Z"/>
    <path data-fips-int="30061" data-name="Mineral County" d="M116,220l5,10 18,14 -9,19 2,18h-11l-19,-12v-9l-19,-27 -7,-6 -2,-9 -15,-5 -1,-7 -15,-11 10,-4 14,3 14,-2 10,9 11,3v10Z"/>
    <path data-fips-int="30063" data-name="Missoula County" d="M208,186l13,1 -2,49h13l-2,40h-9l-5,9 -16,4v5h-12l-40,-2 -12,2 -12,-4 -3,-9h11l-2,-18 9,-19 -18,-14 -5,-10h12l21,11 7,8 6,-2 20,1 9,-4 1,-11 -8,-21 1,-16Z"/>
    <path data-fips-int="30065" data-name="Musselshell County" d="M660,287l5,30 1,12h-12l-8,16h-20l-9,4v11l-30,1v-17l-6,-10 -4,-24h-7l-2,-20h30Z"/>
    <path data-fips-int="30067" data-name="Park County" d="M468,356l-1,46h5l-1,70h14l22,1v19l-75,1 -27,-1 1,-41h10v-20l10,-7 2,-69Z"/>
    <path data-fips-int="30069" data-name="Petroleum County" d="M652,208l-3,10 2,32 5,9 -4,15 4,3 4,10 -62,3 1,-41 -10,1 1,-20 10,-5 22,-1 -1,-31 18,-2 12,4Z"/>
    <path data-fips-int="30071" data-name="Phillips County" d="M703,28l-1,35 1,21 -7,4 4,20h-9l-2,10 1,61 -2,8 -16,-3 -6,9 -8,4 -6,11 -1,-13 -12,-4 -18,2 -28,-3 -9,-4 -8,-9v-22h20l1,-8 13,1 1,-53h5l2,-35h4l1,-30Z"/>
    <path data-fips-int="30073" data-name="Pondera County" d="M323,89l14,4 1,7h15v5l9,1v14l20,1v9l-1,17h-44l-4,-12 -10,-6 -65,-2 -16,-5v-8l-8,-8 59,2 1,-20Z"/>
    <path data-fips-int="30075" data-name="Powder River County" d="M893,389l2,49h-4l3,41 -100,6 -2,-21 -1,-20h3l-2,-50 4,-1Z"/>
    <path data-fips-int="30077" data-name="Powell County" d="M246,189l6,15 -1,33 21,1 -2,39 21,1 -1,15 10,1 -1,5 10,3 -2,24 -18,9 -2,8 -38,-2 2,-54h-12l-9,-11 2,-40h-13l2,-49Z"/>
    <path data-fips-int="30079" data-name="Prairie County" d="M914,263l2,20 -11,4 1,5 -10,1 1,5 -11,4 -20,1v-3h-16l-4,-9h-7l-4,-20 -17,1v-3l-20,1 -2,-37h9l1,10 10,-1v-10l33,-2h7l1,23h10v6h10l3,6Z"/>
    <path data-fips-int="30081" data-name="Ravalli County" d="M188,294l-5,17 1,11 6,5v28l-3,10 9,1 3,8 10,4 -7,10h-8l-20,16h-7l-9,15 -10,1 -9,10 -16,-22 5,-9 -4,-8 4,-7h9v-15l-5,-1 5,-22 2,-24 6,-13 3,-17Z"/>
    <path data-fips-int="30083" data-name="Richland County" d="M948,129l6,69 -7,6 -23,2h-7l-1,-20h-6l-1,-9h-31v-9l-20,1 -1,-9 3,-10 -1,-22 19,-5 1,-6 19,4 10,-3 15,7 21,1Z"/>
    <path data-fips-int="30085" data-name="Roosevelt County" d="M873,70l16,-1 1,9h9l1,10 44,-4 4,45 -4,-3 -21,-1 -15,-7 -10,3 -19,-4 -1,6 -19,5 -11,-3 -24,3 1,3 -16,6 2,-24 -2,-39Z"/>
    <path data-fips-int="30087" data-name="Rosebud County" d="M798,271l-3,2 2,40h-2l2,40h-3l2,40 -4,1 2,50h-3l1,20 -40,2 -1,-20 3,-2 -1,-36h-15l3,-17 -6,-4 -1,-31 -6,1v-20l-3,-10h-9l-2,-10 -45,2 -4,-2 -5,-30 -4,-10 33,-2 59,-3v2Z"/>
    <path data-fips-int="30089" data-name="Sanders County" d="M116,220l-14,-6v-10l-11,-3 -10,-9 -14,2 -14,-3 -10,-7 3,-4v-15l-7,-7v-8l-14,-18v-27l8,7 15,-11 15,29v11l20,5 8,-4 3,-10 10,1 1,16 30,1v11v22l19,2 -3,11h6l-6,12 11,4v25l-6,2 -7,-8 -21,-11Z"/>
    <path data-fips-int="30091" data-name="Sheridan County" d="M944,84l-44,4 -1,-10h-9l-1,-9 -16,1 -6,-10 -4,-41 76,-5Z"/>
    <path data-fips-int="30093" data-name="Silver Bow County" d="M315,403l-26,-1 -4,8 -11,6 -5,-14 -21,-9 -5,-5 13,-7 6,-14 7,1v-11l16,-4 11,19v20Z"/>
    <path data-fips-int="30095" data-name="Stillwater County" d="M576,361l2,20v32l6,8 -24,3 -5,14h-13l-16,12 -4,12h-7v11h-8l-22,-1v-20h10v-20h11l9,-10h11l-1,-20 4,-21h7v-9l1,-10Z"/>
    <path data-fips-int="30097" data-name="Sweet Grass County" d="M517,352l5,20h14v9h-7l-4,21 1,20h-11l-9,10h-11v20h-10v20h-14l1,-70h-5l1,-46v-5Z"/>
    <path data-fips-int="30099" data-name="Teton County" d="M381,147v33h-20v10h-20l-1,12 -9,-1h-18l-18,-16 -24,3 -6,-9v-18l-5,-13 6,1 -8,-22 65,2 10,6 4,12Z"/>
    <path data-fips-int="30101" data-name="Toole County" d="M324,30l69,1v90h-11l-20,-1v-14l-9,-1v-5h-15l-1,-7 -14,-4Z"/>
    <path data-fips-int="30103" data-name="Treasure County" d="M735,387l-19,-4v-5h-20v-10l-8,1 4,-16 -4,-1 -19,-33 45,-2 2,10h9l3,10v20l6,-1Z"/>
    <path data-fips-int="30105" data-name="Valley County" d="M783,24l-2,20h10l2,30h16l2,39 -2,24 -44,-2v10l-6,1 -1,12 -17,15 -10,-1v7l-28,3 -13,-3 -1,-61 2,-10h9l-4,-20 7,-4 -1,-21 1,-35Z"/>
    <path data-fips-int="30107" data-name="Wheatland County" d="M510,297h28l-1,23 1,31 -21,1 -49,-1 1,-56 24,-5Z"/>
    <path data-fips-int="30109" data-name="Wibaux County" d="M954,198l4,86 -23,2 -5,-4 -14,1 -2,-20h8l11,-13 2,-19 -3,-13 -8,-12 23,-2Z"/>
    <path data-fips-int="30111" data-name="Yellowstone County" d="M669,319l19,33 4,1 -4,16h-12v7h-10l-6,10h-14l-1,44 -19,7 -26,1 -13,-11 -3,-6 -6,-8v-32l-2,-20h11l30,-1v-11l9,-4h20l8,-16h12l-1,-12Z"/>
  </g>
  <path class="mesh" d="M209,378l20,-13v-19l20,1v-6l38,2 -2,10 -16,4v11l-7,-1 -6,14 -13,7 5,5 21,9 5,14 -1,17 7,6 8,-1 3,11v30h9v10h12l2,21 7,5 24,1 -1,8h26M632,490l10,-25 -47,1 1,-25 4,-3 26,-1 19,-7 1,-44h14l6,-10h10v-7h12l8,-1v10h20v5l19,4 6,4 -3,17h15l1,36 -3,2 1,20 40,-2 2,21M623,30l-1,30h-4l-2,35h-5l-1,53 -13,-1 -1,8h-20v22l-4,-7h-26l-10,8 -10,-1v-47l-1,-17 5,-19 -3,-13 2,-50M360,270l1,10 11,2v6l5,15h8l-1,10 7,13 15,3 -6,16 6,9 -23,1 -7,13v8l-19,19v-25l-9,-1 1,-59h12l2,-24 9,2M507,492v-19h8v-11h7l4,-12 16,-12h13l5,-14 24,-3 3,6 13,11M894,479l-3,-41h4l-2,-49 3,-1 -3,-40h4l30,-2v9h10l1,9 20,-1v10l9,-1M526,177l-23,2 -1,21 -29,14h-33v6h-9l-1,30h9v32l-8,-2v-8l-17,-11 -10,-2 2,-8h-7v9l-29,1 -1,9h-9h-10v-24l-12,-2 -7,-7v-36l9,1 1,-12h20v-10h20l33,1 -5,12 22,8v9l9,4M381,180v-33l1,-17h45v-9h5h10v-10h60v10h8v10l16,-1M893,389l-97,4 -2,-40h3l-2,-40h2l-2,-40 3,-2v-1l20,-1v3l17,-1 4,20h7l4,9h16v3l20,-1 11,-4 -1,-5 10,-1 1,15 -14,1 4,40M863,19l4,41 6,10 -64,4h-16l-2,-30h-10l2,-20M954,198l-7,6 -23,2 8,12 3,13 -2,19 -11,13h-8l-34,2 -3,-6h-10v-6h-10l-1,-23h-7l-2,-37 3,-3 -2,-30h9l1,9 20,-1v9h31l1,9h6l1,20h7M906,292l-1,-5 11,-4 14,-1 5,4 23,-2M576,177l8,9 9,4 28,3 1,31 -22,1 -10,5 -1,20 10,-1 -1,41h-30h-30v7h-28l-1,-10 -6,-3 6,-11v-31l-9,-6h-10l-11,-5v-11l-6,-6M182,24l4,5 1,15 12,-3 6,5 2,25 13,3 5,16 9,3v13l8,8v8l16,5 8,22 -6,-1 -8,3 2,15 -8,6v17l-25,-2 -13,-1 4,-9 -5,-6v-19l-14,-17 -13,-2 -1,10 -36,-2v20h-8v-11l-30,-1 -1,-16 1,-24 14,1 2,-40 -2,-10h16l6,-10 -6,-11 -2,-18M406,354l22,1 -2,69 -10,7v20h-10l-1,41M377,519l2,-68h2v-34h-14l-10,-12 -12,-7 12,-3M798,271l-50,3v-2l-59,3 -33,2 -4,-3 4,-15 -5,-9 -2,-32 3,-10 6,-11 8,-4 6,-9 16,3 2,-8 13,3 28,-3v-7l10,1 17,-15 1,-12 6,-1 6,10h8l1,33 -1,26h9l1,19h7l2,37M324,30l-1,59 -29,-1 -1,20 -59,-2M568,290l2,20h7l4,24 6,10v17h-11l-39,1 -1,10h-14l-5,-20 21,-1 -1,-31 1,-23M209,378l-10,-4 -3,-8 -9,-1 3,-10v-28l-6,-5 -1,-11 5,-17h12v-5l16,-4 5,-9h9l9,11h12l-2,54M432,121v-63l1,-26M345,398l-9,-6h-12l-9,11 -19,-11v-20l-11,-19M287,343l2,-8 18,-9 10,-4 -2,-5 15,-7h19M510,297l-17,-7 -24,5 -5,4 -12,-1 -12,-10 -1,-6M208,186h-23l-1,16 8,21 -1,11 -9,4 -20,-1v-25l-11,-4 6,-12h-6l3,-11 -19,-2v-22M307,326l2,-24 -10,-3 1,-5 -10,-1 1,-15 -21,-1 2,-39 -21,-1 1,-33 -6,-15M260,148l5,13v18l6,9 24,-3 18,16h18M382,130v-9h11v-90M104,133l-10,-1 -3,10 -8,4 -20,-5v-11l-15,-29 -15,11 -8,-7M765,145v-10l44,2 16,-6 -1,-3 24,-3 11,3 1,22 -3,10M849,230l-33,2v10l-10,1 -1,-10h-9M274,416l11,-6 4,-8 26,1M469,295l-1,56v5l-40,-1M53,191l14,3 14,-2 10,9 11,3v10l14,6 5,10 18,14 -9,19 2,18h-11M221,187l-2,49h13l-2,40M188,294l-40,-2M116,220h12l21,11 7,8 6,-2M598,290l62,-3 5,30 1,12h-12l-8,16h-20l-9,4v11l-30,1M468,356l-1,46h5l-1,70h14l22,1M656,277l4,10M621,193l18,-2 12,4 1,13M703,28l-1,35 1,21 -7,4 4,20h-9l-2,10 1,61M323,89l14,4 1,7h15v5l9,1v14l20,1M381,147h-44l-4,-12 -10,-6 -65,-2M792,464l-1,-20h3l-2,-50 4,-1M914,263l2,20M859,128l19,-5 1,-6 19,4 10,-3 15,7 21,1 4,3M873,70l16,-1 1,9h9l1,10 44,-4M809,137l2,-24 -2,-39M735,387l-1,-31 -6,1v-20l-3,-10h-9l-2,-10 -45,2 -4,-2M576,361l2,20v32l6,8M485,472v-20h10v-20h11l9,-10h11l-1,-20 4,-21h7v-9M468,351l49,1M688,369l4,-16 -4,-1 -19,-33M174,404l20,-16h8l7,-10 6,16 14,-2 3,-6 11,2"/>
  <g class="cities">
    <circle r="7" cx="611" cy="401"/>
    <text x="611" y="401">Billings</text>
    <circle r="7" cx="177" cy="269"/>
    <text x="177" y="269">Missoula</text>
    <circle r="7" cx="389" cy="204"/>
    <text x="389" y="204">Great Falls</text>
  </g>
</svg>