<?xml version="1.0" encoding="utf-8"?>
<!DOCTYPE svg PUBLIC "-//W3C//DTD SVG 1.1//EN" "http://www.w3.org/Graphics/SVG/1.1/DTD/svg11.dtd">
<svg version="1.1" xmlns="http://www.w3.org/2000/svg" width="350" height="202" viewBox="0 0 350 202">
  <defs>
    <pattern id="pattern-no-results" width="50" height="50" patternUnits="userSpaceOnUse">
      <rect width="50" height="50" fill="#ddd"/>
      <path d="M-5,5L5,-5M-5,55L55,-5M45,55L55,45" stroke-width="10" stroke="#666666"/>
    </pattern>
  </defs>
  <g class="counties" transform="scale(0.1)">
    <path data-fips-int="30001" data-name="Beaverhead County" d="M852,1360l23,23 20,2 6,9 22,3 12,6 9,12 0,14 6,9 7,0 -1,17 4,4 -1,25 -5,12 4,9 0,13 24,20 18,-6 9,2 10,18 2,22 0,27 -3,76 35,1 -1,36 41,1 -1,35 7,0 -1,35 29,1 -1,17 81,3 -1,29 88,2 -4,2 4,15 -12,9 3,7 -6,8 5,17 12,4 0,6 -12,1 -11,-8 -12,-3 -7,5 -26,-5 -4,7 -14,6 -10,0 -6,7 -14,-22 -22,2 -9,8 -15,-4 -1,7 -10,-4 -12,6 -6,-6 -14,1 -12,-5 -2,-8 -17,-2 -9,11 -10,0 -4,28 -7,8 -13,-3 -11,-10 -8,7 -14,-10 -15,-3 -18,1 -15,-7 -18,7 -14,17 -3,8 5,9 0,9 -9,7 -15,-17 -14,-7 -15,-15 -6,-16 6,-14 -11,-9 3,-8 -14,-13 12,-12 -5,-21 -9,-9 0,-10 -10,-13 2,-6 -8,-3 -24,-18 -28,14 -3,-14 -7,-7 -12,-1 -15,-24 2,-6 -6,-14 15,-5 3,-19 -6,-24 -16,-12 2,-9 -11,1 -6,-7 -3,-20 -12,-15 -6,-10 -10,-10 4,-5 -16,-23 4,-24 -12,-7 4,-7 -6,-12 7,-11 -1,-16 -19,-1 5,-18 7,-7 -3,-8 -14,-9 -13,-1 3,-7 -6,-6 -4,-16 7,-1 3,-8 -4,-11 14,-13 6,11 12,-3 9,-14 13,-7 9,-10 21,2 10,-4 4,-8 12,-2 0,-10 6,-14 4,-1 19,45 0,15 8,12 9,3 5,-19 21,-4 6,-11 13,-11 10,-3 22,2Z"/>
    <path data-fips-int="30003" data-name="Big Horn County" d="M2412,1291l24,0 1,34 69,-1 1,17 35,-2 1,17 31,0 0,15 18,0 1,17 -10,0 2,42 18,2 33,-1 0,16 6,115 -12,0 3,70 105,-4 34,-3 5,0 2,75 -46,2 -111,4 -79,3 -10,-1 -61,1 -102,4 -59,1 -92,3 -4,1 8,-38 8,-3 0,-13 7,-3 -3,-8 6,-5 6,-18 9,-2 -79,2 -46,2 -46,0 -1,-54 4,-17 0,-13 11,-15 57,-2 0,2 35,-1 0,-11 35,-1 0,-12 35,-1 -2,-106 6,0 -2,-47 47,-1 -1,-12 12,0 0,-12 11,0 0,-12 34,-1 0,-23Z"/>
    <path data-fips-int="30005" data-name="Blaine County" d="M2182,107l0,32 -6,2 2,70 -16,0 2,70 -8,0 2,57 -18,-7 2,91 -6,0 2,70 0,28 -37,-1 -10,-4 -5,28 -12,0 -58,1 0,76 -16,-1 8,-7 -7,-9 2,-5 -10,-5 -18,4 -9,-3 -16,8 -15,-4 -24,0 -9,14 -20,6 -6,7 -14,1 -16,-9 -5,3 -1,-53 2,-12 -1,-95 0,-34 -5,0 0,-29 9,0 -1,-41 6,0 0,-23 9,-1 0,-29 -9,0 -3,-46 0,-85 -1,-25 5,0 -1,-35 121,-1 126,-2Z"/>
    <path data-fips-int="30007" data-name="Broadwater County" d="M1303,1010l12,8 1,24 7,1 3,17 9,-3 13,5 -1,11 3,20 -5,8 17,8 6,10 1,20 7,6 11,0 4,-7 14,-2 -1,6 17,13 -2,23 -8,2 -6,11 -2,18 13,10 5,15 -1,7 -27,2 -52,-1 -1,25 -7,4 -14,20 2,25 -13,1 -3,20 -18,10 -8,10 -13,4 -9,16 -6,6 1,-87 -34,-1 3,-150 1,-59 43,1 -2,-8 1,-60 9,-15 5,-2 20,8Z"/>
    <path data-fips-int="30009" data-name="Carbon County" d="M2099,1533l-11,15 0,13 -4,17 1,54 46,0 46,-2 79,-2 -9,2 -6,18 -6,5 3,8 -7,3 0,13 -8,3 -8,38 -216,4 -22,0 -5,-3 -88,2 -53,1 -57,0 0,-66 30,0 0,-39 24,0 -1,-17 6,0 0,-12 6,0 1,-11 12,-7 12,-17 11,0 6,-11 17,-1 0,-6 47,0 0,-24 17,0 0,-26 17,2 26,-14 12,5 12,0 13,-4 17,-11 0,11 -5,10 0,14 12,0 0,12 17,0 1,23Z"/>
    <path data-fips-int="30011" data-name="Carter County" d="M3383,1304l5,49 6,82 4,41 4,58 10,125 -129,9 -155,10 0,-10 -9,-132 15,0 -3,-37 1,-11 -3,-50 -5,-77 12,-1 -6,-96 -3,-45 15,0 102,-7 3,33 35,-2 2,33 40,-2 31,-3 3,35Z"/>
    <path data-fips-int="30013" data-name="Cascade County" d="M1439,683 12,2 13,12 16,3 1,5 26,0 -1,32 36,1 0,12 0,22 -35,0 -1,25 -5,-4 -1,23 6,7 -2,55 35,1 1,34 1,70 -5,5 -7,-1 -5,-8 -7,3 -8,-7 -2,-18 -13,-1 -13,-7 -1,-11 -15,-14 -14,-7 -30,-3 -8,-10 8,-6 -1,-17 -21,-1 -1,31 -35,-1 0,5 -69,-1 -2,35 -32,-1 -36,-1 2,-86 -24,-1 -12,-3 -15,-14 0,-6 -8,2 -1,-6 -9,-3 2,-127 34,6 1,-43 70,1 0,-35 70,1 51,2 66,0 -12,18 -8,22Z"/>
    <path data-fips-int="30015" data-name="Chouteau County" d="M1841,460l1,95 -2,12 1,53 -11,-4 -9,7 -5,-3 -15,3 -9,12 -32,-4 2,33 -5,18 1,17 -7,6 -10,2 -14,13 -15,7 -4,-2 -19,15 -14,8 -17,2 -116,0 0,-12 -36,-1 1,-32 -26,0 -1,-5 -16,-3 -13,-12 -12,-2 -8,-8 8,-22 12,-18 -66,0 -51,-2 1,-116 2,-58 157,2 0,-35 19,0 35,0 0,-35 209,1 0,34 32,0 0,35Z"/>
    <path data-fips-int="30017" data-name="Custer County" d="M3171,1024l4,53 -48,3 4,68 6,0 5,71 -15,0 3,45 6,96 -12,1 -92,6 0,-1 -106,6 -141,7 -1,-22 -7,-118 12,-1 -2,-34 -5,-84 -1,-21 9,0 -6,-140 9,-1 -1,-5 0,-6 71,-4 0,12 59,-4 2,35 12,0 2,34 23,0 1,22 12,0 1,11 58,-3 1,12 70,-4 -1,-12 35,-2 -1,-17Z"/>
    <path data-fips-int="30019" data-name="Daniels County" d="M3021,71l2,36 5,0 7,104 17,-1 2,34 -76,6 -145,8 -58,3 -1,-25 -4,-80 -34,2 -2,-35 10,0 -1,-36 148,-8Z"/>
    <path data-fips-int="30021" data-name="Dawson County" d="M3236,720l-8,15 6,0 13,11 21,36 3,24 3,-1 2,38 -6,1 2,15 -8,12 -2,12 -8,6 -2,12 -20,13 -4,6 -28,2 -117,8 0,-12 -12,-11 -35,2 -2,-23 -35,2 -5,-82 -22,1 -4,-68 -4,-71 12,-1 -7,-105 35,-3 2,36 69,-5 2,35 105,-7 2,36 22,-2 5,70Z"/>
    <path data-fips-int="30023" data-name="Deer Lodge County" d="M1004,1202l-10,11 5,8 -1,16 -10,5 -7,-4 -12,16 -27,-1 -2,35 -20,-1 -8,20 -13,-3 -5,5 4,20 -2,6 -27,21 -17,4 -3,-8 -22,-2 -10,3 -13,11 -6,11 -21,4 -5,19 -9,-3 -8,-12 0,-15 -19,-45 -4,1 11,0 6,-18 12,-2 11,-11 12,6 15,-12 3,-9 1,-31 -3,0 2,-35 68,3 1,-18Z"/>
    <path data-fips-int="30025" data-name="Fallon County" d="M3360,999l7,103 8,86 3,55 5,61 -25,2 -3,-35 -31,3 -40,2 -2,-33 -35,2 -3,-33 -102,7 -5,-71 -6,0 -4,-68 48,-3 -4,-53 -1,-17 35,-2 -1,-12 52,-4 0,6 18,-1 1,11Z"/>
    <path data-fips-int="30027" data-name="Fergus County" d="M2016,620l21,11 9,10 -2,9 6,5 12,-2 14,12 16,-2 12,5 12,-4 4,7 9,2 5,-7 10,5 0,7 9,-4 11,10 10,-7 2,109 -6,3 -70,2 1,14 -35,1 0,35 -4,0 0,34 35,0 1,48 0,57 -5,0 1,35 -105,2 -104,0 0,23 -99,1 0,-20 -3,-15 -9,0 -2,-9 -9,0 -2,-11 11,0 1,-21 10,-6 0,-88 -1,-28 -31,0 0,-18 -35,1 0,-18 -35,0 0,-35 -23,0 0,-23 17,-2 14,-8 19,-15 4,2 15,-7 14,-13 10,-2 7,-6 -1,-17 5,-18 -2,-33 32,4 9,-12 15,-3 5,3 9,-7 11,4 5,-3 16,9 14,-1 6,-7 20,-6 9,-14 24,0 15,4 16,-8 9,3 18,-4 10,5 -2,5 7,9 -8,7Z"/>
    <path data-fips-int="30029" data-name="Flathead County" d="M641,86l3,14 8,0 -8,11 7,2 3,10 -12,7 13,10 4,9 -4,5 13,6 12,-12 9,5 8,-6 9,7 5,-3 7,11 -3,8 8,19 9,13 -4,11 -7,0 4,9 -5,7 -2,17 21,11 7,-6 8,10 18,-3 8,11 11,6 0,29 -4,6 18,17 14,-1 6,14 -2,8 -14,11 10,13 6,9 8,1 2,8 13,8 0,31 14,-1 13,16 17,-4 3,10 10,-3 9,5 -3,9 15,15 -4,11 11,2 7,21 -10,13 -19,-4 -10,10 -18,3 -1,11 7,3 1,17 -4,27 -4,10 -15,1 -8,10 4,18 5,6 -5,10 0,16 -50,-2 0,-1 -38,-2 -45,-2 4,-24 7,-7 -1,-18 -10,0 -6,-10 6,-6 -7,-10 2,-12 -1,-21 2,-10 -8,-10 -5,-1 -6,-13 -19,-14 -8,1 -5,-15 0,-11 -5,-4 -38,-2 -6,12 -8,-1 4,11 6,2 0,12 -123,-6 -2,34 4,0 -2,35 -34,-2 2,-34 -69,-5 -34,0 3,-53 -5,-5 2,-50 -2,0 2,-35 46,3 4,-63 4,-77 -10,-1 2,-34 66,4 -13,-8 4,-19 15,-5 -11,-25 -16,-4 2,-8 10,-5 0,-13 -4,-7 2,-15 -3,-5 9,-13 -12,-4 2,-8 124,7Z"/>
    <path data-fips-int="30031" data-name="Gallatin County" d="M1420,1241l78,1 -2,20 -1,36 0,108 -2,0 -1,78 -17,0 -1,26 -17,0 0,71 -34,-1 -2,70 -2,0 0,71 -3,0 -2,58 0,127 1,27 -24,-11 1,-13 -14,-9 0,-6 -13,-3 -4,-15 6,-3 -22,-28 0,-5 -11,-12 -5,2 -6,-10 0,-64 2,0 1,-81 2,-96 7,0 0,-59 0,-58 -51,-1 -17,-18 -5,-12 -6,0 -6,-12 -17,0 0,-12 -12,0 1,-6 -12,0 0,-4 15,-3 7,4 8,-2 7,-13 4,0 6,-6 9,-16 13,-4 8,-10 18,-10 3,-20 13,-1 -2,-25 14,-20 7,-4 1,-25 52,1Z"/>
    <path data-fips-int="30033" data-name="Garfield County" d="M2680,510l18,-1 0,36 27,-1 4,81 3,55 -10,1 3,70 35,-2 3,70 23,-2 6,130 0,6 -132,6 -42,2 0,-6 -75,3 -130,5 1,3 -117,3 -15,-10 3,-16 13,-31 -12,-22 1,-8 -7,-8 -5,-15 8,-23 -10,-19 3,-10 -4,-4 0,-38 13,-17 0,-20 14,-3 2,-12 -4,-11 10,-13 18,-1 13,-21 3,-13 13,1 2,-9 6,7 6,-8 20,3 6,7 14,0 8,-16 0,-12 14,0 8,4 14,0 10,7 19,-1 21,-3 21,2 8,-6 17,1 13,-5 2,-21 20,-4 12,4 10,-9 0,-8 12,1 5,-10 12,3 -3,-8 13,-5 0,-12 8,-2 -3,-11 9,-2 -6,-11 10,-10 -6,-6 12,-7 4,-8Z"/>
    <path data-fips-int="30035" data-name="Glacier County" d="M1136,105l-1,80 -2,51 0,79 -18,-3 -87,-2 -2,66 -1,3 -104,-3 -102,-4 -10,-13 14,-11 2,-8 -6,-14 -14,1 -18,-17 4,-6 0,-29 -11,-6 -8,-11 -18,3 -8,-10 -7,6 -21,-11 2,-17 5,-7 -4,-9 7,0 4,-11 -9,-13 -8,-19 3,-8 -7,-11 -5,3 -9,-7 -8,6 -9,-5 -12,12 -13,-6 4,-5 -4,-9 -13,-10 12,-7 -3,-10 -7,-2 8,-11 -8,0 -3,-14 83,4 144,7 93,3Z"/>
    <path data-fips-int="30037" data-name="Golden Valley County" d="M1989,1017l1,51 7,-1 -1,19 23,0 1,35 7,0 0,15 5,0 1,35 6,0 2,18 9,6 0,11 6,0 0,59 -39,0 -92,1 -45,0 -1,36 -52,0 -1,-35 -13,0 -1,-35 71,0 -1,-12 0,-89 4,-9 -1,-82 0,-23Z"/>
    <path data-fips-int="30039" data-name="Granite County" d="M835,993 6,7 -1,9 8,0 9,8 21,-9 -3,74 0,28 -4,87 -1,18 -68,-3 -2,35 3,0 -1,31 -3,9 -15,12 -12,-6 -11,11 -12,2 -6,18 -11,0 -25,-5 -1,-9 -9,2 -5,-7 -2,-17 -5,-6 -15,-5 -5,7 -10,-3 -1,-5 16,-25 -12,-16 4,-12 -10,-5 0,-9 13,-5 9,-17 -10,-6 4,-14 -3,-5 0,-16 -9,-15 -10,-5 3,-8 -6,-28 7,-2 7,-24 5,-5 3,-18 -6,-12 44,3 1,-23 32,1 3,-11 18,1 0,-23 18,1 1,-12 31,1 3,10 12,-5 5,15Z"/>
    <path data-fips-int="30041" data-name="Hill County" d="M1841,460l-52,1 0,-35 -32,0 0,-34 -209,-1 0,35 -35,0 1,-21 0,-92 2,-44 0,-104 3,-19 0,-34 40,1 207,0 84,-1 1,35 -5,0 1,25 0,85 3,46 9,0 0,29 -9,1 0,23 -6,0 1,41 -9,0 0,29 5,0Z"/>
    <path data-fips-int="30043" data-name="Jefferson County" d="M1222,1086l-1,59 -3,150 34,1 -1,87 -4,0 -7,13 -8,2 -7,-4 -15,3 -8,-9 -12,0 -10,-4 -4,-11 -16,3 -10,-6 -24,7 -2,14 -7,14 -10,9 -6,0 -7,-8 -11,-2 -4,-8 -40,-20 -4,-7 8,-13 -8,-18 -1,-39 -8,-6 2,-20 -10,-8 -4,-11 4,-18 -10,3 -10,-2 1,-16 -5,-8 10,-11 -3,-12 12,-15 9,-2 13,5 0,-9 14,-14 14,1 12,-14 12,3 9,-4 5,-10 12,-2 -7,-9 3,-8 16,-9 6,2 14,-3 8,-7 2,-11Z"/>
    <path data-fips-int="30045" data-name="Judith Basin County" d="M1658,750l0,23 23,0 0,35 35,0 0,18 35,-1 0,18 31,0 1,28 0,88 -10,6 -1,21 -11,0 2,11 9,0 2,9 9,0 3,15 0,20 -20,0 -41,-24 -18,7 -6,-5 -18,4 -3,9 -17,-4 -5,7 -17,-1 -20,15 -7,-8 -14,6 -16,-4 -1,-5 -23,-15 1,-14 -16,0 -8,-12 -1,-9 5,-5 -1,-70 -1,-34 -35,-1 2,-55 -6,-7 1,-23 5,4 1,-25 35,0 0,-22Z"/>
    <path data-fips-int="30047" data-name="Lake County" d="M718,526 8,10 -2,10 1,21 -2,12 7,10 -6,6 6,10 10,0 1,18 -7,7 -4,24 -80,-4 2,19 -2,14 -8,17 12,12 8,23 -7,12 2,9 -5,10 16,18 4,1 -2,35 -30,-2 0,18 -70,-4 1,-17 -4,0 4,-70 -34,-2 -6,-14 4,-20 4,-12 12,0 -4,-11 -14,0 -9,5 7,-24 9,-4 -4,-20 -63,-3 2,-58 -5,-1 1,-17 34,2 2,-35 -4,0 2,-34 123,6 0,-12 -6,-2 -4,-11 8,1 6,-12 38,2 5,4 0,11 5,15 8,-1 19,14 6,13Z"/>
    <path data-fips-int="30049" data-name="Lewis and Clark County" d="M1159,703l-2,127 9,3 1,6 8,-2 0,6 15,14 12,3 24,1 -2,86 36,1 16,10 -13,18 15,16 16,1 2,-5 8,11 -1,11 -5,0 -20,-8 -5,2 -9,15 -1,60 2,8 -43,-1 -67,-2 -2,11 -8,7 -14,3 -6,-2 -16,9 -3,8 7,9 -12,2 -5,10 -9,4 -12,-3 -4,-6 6,-6 1,-26 3,-6 -6,-17 7,-13 -7,-21 -25,-1 1,-17 -35,-1 2,-54 -72,-1 2,-65 2,-37 1,-38 -65,-2 -7,-1 3,-75 2,-48 -11,0 -4,-3 -2,-28 2,-5 -6,-10 0,-16 5,-10 -5,-6 -4,-18 8,-10 15,-1 4,-10 4,-27 -1,-17 -7,-3 1,-11 18,-3 10,-10 3,17 5,2 1,11 9,22 -5,28 6,10 -4,15 6,7 10,20 9,9 11,4 13,-7 23,-1 6,-5 16,-1 4,-6 9,4 6,13 20,4 4,20 24,6 8,14 22,2 15,-4 11,3Z"/>
    <path data-fips-int="30051" data-name="Liberty County" d="M1337,459l0,-36 36,1 2,-128 2,-12 1,-116 2,-57 139,1 0,34 -3,19 0,104 -2,44 0,92 -1,21 -19,0 0,35Z"/>
    <path data-fips-int="30053" data-name="Lincoln County" d="M467,75l-2,8 12,4 -9,13 3,5 -2,15 4,7 0,13 -10,5 -2,8 16,4 11,25 -15,5 -4,19 13,8 -66,-4 -2,34 10,1 -4,77 -4,63 -46,-3 -2,35 2,0 -2,50 -40,-4 4,14 -4,8 -6,-5 -4,23 -17,0 -9,9 -10,-13 -17,6 -5,-4 1,-9 -6,0 -4,9 -8,-4 -17,3 -8,-14 5,-10 -2,-17 -8,-6 -6,-15 -7,-9 0,-22 -12,-18 7,-11 -8,-17 -14,-8 -12,16 -23,7 -7,7 -8,-1 -6,13 -14,-5 -1,-19 -8,-4 12,-168 6,-53 6,-94 155,11 93,7Z"/>
    <path data-fips-int="30055" data-name="McCone County" d="M3008,449l0,-1 0,1 5,79 -11,0 2,31 -35,3 7,105 -12,1 4,71 4,68 -117,7 2,36 -34,1 -2,-35 -35,1 -23,2 -3,-70 -35,2 -3,-70 10,-1 -3,-55 -4,-81 -27,1 0,-36 -18,1 2,-6 -5,-19 9,-19 14,8 8,-5 10,3 11,7 29,-3 -4,11 13,-3 3,-10 9,10 10,1 -4,-8 6,-3 6,5 18,5 6,-3 -2,-10 16,10 15,-6 3,-11 4,9 12,-3 5,-9 14,0 -3,-10 9,1 13,-5 8,7 11,-14 17,3 24,-4 11,6 20,-7 2,10Z"/>
    <path data-fips-int="30057" data-name="Madison County" d="M1210,1397l0,4 12,0 -1,6 12,0 0,12 17,0 6,12 6,0 5,12 17,18 51,1 0,58 0,59 -7,0 -2,96 -1,81 -2,0 0,64 -6,-1 -5,17 -8,-4 -10,5 -88,-2 1,-29 -81,-3 1,-17 -29,-1 1,-35 -7,0 1,-35 -41,-1 1,-36 -35,-1 3,-76 0,-27 -2,-22 -10,-18 -9,-2 -18,6 -24,-20 0,-13 -4,-9 5,-12 1,-25 39,-22 8,-9 0,-10 8,-11 10,7 76,0 6,0 10,-9 7,-14 2,-14 24,-7 10,6 16,-3 4,11 10,4 12,0Z"/>
    <path data-fips-int="30059" data-name="Meagher County" d="M1536,988l1,9 8,12 16,0 -1,14 23,15 1,5 16,4 14,-6 7,8 20,-15 0,89 -3,0 0,109 -1,14 -35,0 0,-3 -104,-1 -78,-1 1,-7 -5,-15 -13,-10 2,-18 6,-11 8,-2 2,-23 -17,-13 1,-6 -14,2 -4,7 -11,0 -7,-6 -1,-20 -6,-10 -17,-8 5,-8 -3,-20 1,-11 -13,-5 -9,3 -3,-17 -7,-1 -1,-24 -12,-8 1,-11 -8,-11 -2,5 -16,-1 -15,-16 13,-18 -16,-10 32,1 2,-35 69,1 0,-5 35,1 1,-31 21,1 1,17 -8,6 8,10 30,3 14,7 15,14 1,11 13,7 13,1 2,18 8,7 7,-3 5,8Z"/>
    <path data-fips-int="30061" data-name="Mineral County" d="M406,771l-1,11 7,6 17,1 -1,18 5,6 11,1 0,11 5,6 12,1 -1,12 5,0 0,11 22,1 0,18 17,1 0,6 -9,-1 0,7 -20,-8 -7,8 0,10 -5,0 -4,52 5,0 -2,35 -34,-2 0,4 -6,-1 -6,10 -15,6 -6,-7 7,-18 -16,-10 -10,-14 -8,4 -6,-10 -2,-11 -5,-2 5,-9 2,-15 -7,-4 -11,-19 -14,0 -5,-22 -14,-18 -3,-14 -6,-2 -8,-15 -12,-5 -4,-13 -11,-3 2,-15 -10,-15 -21,-3 -1,-5 -30,-11 -4,-21 -17,-14 -8,2 -3,-11 -16,-10 -11,0 4,-7 9,-4 19,0 6,-9 17,5 8,-2 4,-8 8,10 12,4 13,-7 24,6 8,-5 33,18 9,12 6,-3 14,9 18,7 2,8 -2,25 18,1 -1,6 18,1 -1,12Z"/>
    <path data-fips-int="30063" data-name="Missoula County" d="M730,654l45,2 -4,100 -3,69 45,2 -4,102 -2,38 -31,-1 -1,12 -18,-1 0,23 -18,-1 -3,11 -32,-1 -1,23 -44,-3 -139,-7 -7,-4 -27,7 -7,7 -17,-9 -12,6 -8,-2 -7,-17 7,-11 -7,-10 -7,-3 0,-4 34,2 2,-35 -5,0 4,-52 5,0 0,-10 7,-8 20,8 0,-7 9,1 0,-6 -17,-1 0,-18 -22,-1 0,-11 -5,0 1,-12 -12,-1 -5,-6 0,-11 -11,-1 -5,-6 1,-18 -17,-1 -7,-6 1,-11 25,6 6,-7 36,11 15,14 11,5 8,0 11,9 8,0 -1,14 6,4 16,11 10,-5 13,-1 70,4 0,-18 30,2 2,-35 -4,-1 -16,-18 5,-10 -2,-9 7,-12 -8,-23 -12,-12 8,-17 2,-14 -2,-19Z"/>
    <path data-fips-int="30065" data-name="Musselshell County" d="M2315,1007l5,10 -1,14 6,6 -6,14 1,6 -6,15 12,-1 1,41 4,0 1,40 -41,1 -5,12 -6,1 -5,12 -6,0 0,11 -5,0 1,18 -82,2 0,6 -11,0 0,5 -12,1 1,41 -105,3 0,-59 -6,0 0,-11 -9,-6 -2,-18 -6,0 -1,-35 -5,0 0,-15 -7,0 -1,-35 -23,0 1,-19 -7,1 -1,-51 105,-2 69,-1 30,-3 26,0Z"/>
    <path data-fips-int="30067" data-name="Park County" d="M1637,1246l0,21 -2,0 -1,63 0,77 20,0 1,3 0,173 -4,0 0,70 48,1 75,0 0,2 0,66 -89,0 -24,3 -48,-2 -11,2 -86,0 -23,-4 -74,0 0,-71 2,0 2,-70 34,1 0,-71 17,0 1,-26 17,0 1,-78 2,0 0,-108 1,-36 2,-20 104,1 0,3Z"/>
    <path data-fips-int="30069" data-name="Petroleum County" d="M2285,728l0,20 -13,17 0,38 4,4 -3,10 10,19 -8,23 5,15 7,8 -1,8 12,22 -13,31 -3,16 15,10 12,20 0,10 6,8 -96,4 -26,0 -30,3 -69,1 -1,-35 5,0 0,-57 -1,-48 -35,0 0,-34 4,0 0,-35 35,-1 -1,-14 70,-2 6,-3 -2,-109 19,1 11,-4 9,4 10,-6 18,-2 16,6 5,-3 7,8 10,0 2,19 7,7 -3,6Z"/>
    <path data-fips-int="30071" data-name="Phillips County" d="M2461,99l1,35 -7,0 5,139 4,0 0,23 -17,-1 1,13 -12,1 2,35 10,-1 2,36 -30,1 1,35 -9,0 3,100 2,40 -3,0 2,72 0,12 -8,16 -14,0 -6,-7 -20,-3 -6,8 -6,-7 -2,9 -13,-1 -3,13 -13,21 -18,1 -10,13 4,11 -2,12 -14,3 0,-15 3,-6 -7,-7 -2,-19 -10,0 -7,-8 -5,3 -16,-6 -18,2 -10,6 -9,-4 -11,4 -19,-1 -10,7 -11,-10 -9,4 0,-7 -10,-5 -5,7 -9,-2 -4,-7 -12,4 -12,-5 -16,2 -14,-12 -12,2 -6,-5 2,-9 -9,-10 -21,-11 0,-76 58,-1 12,0 5,-28 10,4 37,1 0,-28 -2,-70 6,0 -2,-91 18,7 -2,-57 8,0 -2,-70 16,0 -2,-70 6,-2 0,-32 210,-5Z"/>
    <path data-fips-int="30073" data-name="Pondera County" d="M1133,315l14,5 8,10 17,-4 12,6 0,17 52,3 -1,17 35,1 -1,52 68,1 0,36 -2,58 -68,-1 -33,0 -53,-1 1,-24 -17,0 0,-18 -34,-1 0,-18 -226,-7 -10,3 -3,-10 -17,4 -13,-16 -14,1 0,-31 -13,-8 -2,-8 -8,-1 -6,-9 102,4 104,3 1,-3 2,-66 87,2Z"/>
    <path data-fips-int="30075" data-name="Powder River County" d="M3124,1361l5,77 3,50 -1,11 3,37 -15,0 9,132 0,10 -60,4 -133,7 -56,3 -4,3 -96,5 -2,-75 -5,0 -3,-69 12,0 -2,-36 -2,-29 -2,-75 -3,-36 13,-1 141,-7 106,-6 0,1Z"/>
    <path data-fips-int="30077" data-name="Powell County" d="M863,661l6,10 -2,5 2,28 4,3 11,0 -2,48 -3,75 7,1 65,2 -1,38 -2,37 -2,65 72,1 -2,54 35,1 -1,17 25,1 7,21 -7,13 6,17 -3,6 -1,26 -6,6 4,6 -12,14 -14,-1 -14,14 0,9 -13,-5 -9,2 -12,15 3,12 -133,-5 4,-87 0,-28 3,-74 -21,9 -9,-8 -8,0 1,-9 -6,-7 -8,-6 -5,-15 -12,5 -3,-10 2,-38 4,-102 -45,-2 3,-69 4,-100 38,2 0,1Z"/>
    <path data-fips-int="30079" data-name="Prairie County" d="M3200,922l0,14 4,57 1,12 -35,2 1,17 -34,3 1,17 -35,2 1,12 -70,4 -1,-12 -58,3 -1,-11 -12,0 -1,-22 -23,0 -2,-34 -12,0 -2,-35 -59,4 0,-12 -71,4 -6,-130 35,-1 2,35 34,-1 -2,-36 117,-7 22,-1 5,82 35,-2 2,23 35,-2 12,11 0,12Z"/>
    <path data-fips-int="30081" data-name="Ravalli County" d="M659,1029l6,12 -3,18 -5,5 -7,24 -7,2 6,28 -3,8 10,5 9,15 0,16 3,5 -4,14 10,6 -9,17 -13,5 0,9 10,5 -4,12 12,16 -16,25 1,5 10,3 5,-7 15,5 5,6 2,17 5,7 9,-2 1,9 25,5 -6,14 0,10 -12,2 -4,8 -10,4 -21,-2 -9,10 -13,7 -9,14 -12,3 -6,-11 -14,13 4,11 -3,8 -7,1 -10,-3 -13,3 0,16 -15,10 -5,12 -12,4 -4,10 -14,3 -2,5 -15,-5 -1,9 -9,17 -21,8 -4,-13 -16,-8 -2,-8 -10,-15 -8,3 -8,-6 -7,5 -1,-11 6,-9 -7,-11 19,-13 -3,-7 5,-6 -2,-8 -11,-10 -5,-13 21,-30 14,-3 10,4 7,-12 -11,-23 9,-7 -2,-8 -21,-11 3,-11 -8,-1 12,-12 3,-13 -4,-8 -13,-5 3,-17 11,3 8,-2 0,-30 -4,-11 12,-5 -1,-10 6,-11 -1,-21 11,-9 1,-22 -4,-14 14,-2 2,-18 5,-8 -3,-8 6,-7 -1,-21Z"/>
    <path data-fips-int="30083" data-name="Richland County" d="M3319,455l5,57 8,113 5,70 -23,2 1,17 -79,6 -25,2 -5,-70 -22,2 -2,-36 -105,7 -2,-35 -69,5 -2,-36 -2,-31 11,0 -5,-79 0,-1 4,-15 6,11 13,-1 -1,7 12,-8 4,7 10,-5 3,-7 6,5 1,-13 10,3 5,-20 8,-3 7,8 11,4 12,-6 8,8 11,-5 8,7 14,-6 3,-11 6,5 -1,7 17,-7 6,6 12,-6 5,10 20,6 7,12 16,-3 13,7 10,-2 0,-13 10,12 8,-9 6,8 7,2 -1,12Z"/>
    <path data-fips-int="30085" data-name="Roosevelt County" d="M3054,244l58,-3 2,35 35,-2 2,34 155,-11 13,158 -15,0 1,-12 -7,-2 -6,-8 -8,9 -10,-12 0,13 -10,2 -13,-7 -16,3 -7,-12 -20,-6 -5,-10 -12,6 -6,-6 -17,7 1,-7 -6,-5 -3,11 -14,6 -8,-7 -11,5 -8,-8 -12,6 -11,-4 -7,-8 -8,3 -5,20 -10,-3 -1,13 -6,-5 -3,7 -10,5 -4,-7 -12,8 1,-7 -13,1 -6,-11 -4,15 0,1 -8,-1 -2,-10 -20,7 -11,-6 -24,4 -17,-3 -11,14 -8,-7 -13,5 -9,-1 3,10 -14,0 -5,9 -12,3 -4,-9 -3,11 -15,6 -4,-84 10,-1 -8,-138 145,-8Z"/>
    <path data-fips-int="30087" data-name="Rosebud County" d="M2792,953l1,5 -9,1 6,140 -9,0 1,21 5,84 2,34 -12,1 7,118 1,22 -13,1 3,36 2,75 2,29 2,36 -12,0 3,69 -34,3 -105,4 -3,-70 12,0 -6,-115 0,-16 -33,1 -18,-2 -2,-42 10,0 -1,-17 -18,0 0,-15 -4,-108 -19,1 -3,-69 -6,1 -1,-36 -35,1 -1,-29 -6,-5 -156,5 -12,-5 -4,0 -1,-41 -12,1 6,-15 -1,-6 6,-14 -6,-6 1,-14 -5,-10 -6,-8 0,-10 -12,-20 117,-3 -1,-3 130,-5 75,-3 0,6 42,-2Z"/>
    <path data-fips-int="30089" data-name="Sanders County" d="M406,771l-12,-1 1,-12 -18,-1 1,-6 -18,-1 2,-25 -2,-8 -18,-7 -14,-9 -6,3 -9,-12 -33,-18 -8,5 -24,-6 -13,7 -12,-4 -8,-10 -4,8 -8,2 -17,-5 -17,-4 -5,-15 5,-2 -15,-10 19,-17 -2,-13 -10,-12 3,-20 -13,-11 -4,-11 -7,2 -4,-14 0,-18 -8,-8 -10,-3 -10,-24 -8,-7 -9,-20 -4,-1 7,-96 8,4 1,19 14,5 6,-13 8,1 7,-7 23,-7 12,-16 14,8 8,17 -7,11 12,18 0,22 7,9 6,15 8,6 2,17 -5,10 8,14 17,-3 8,4 4,-9 6,0 -1,9 5,4 17,-6 10,13 9,-9 17,0 4,-23 6,5 4,-8 -4,-14 40,4 5,5 -3,53 34,0 69,5 -2,34 -1,17 5,1 -2,58 63,3 4,20 -9,4 -7,24 9,-5 14,0 4,11 -12,0 -4,12 -4,20 6,14 34,2 -4,70 4,0 -1,17 -13,1 -10,5 -16,-11 -6,-4 1,-14 -8,0 -11,-9 -8,0 -11,-5 -15,-14 -36,-11 -6,7Z"/>
    <path data-fips-int="30091" data-name="Sheridan County" d="M3306,297l-155,11 -2,-34 -35,2 -2,-35 -58,3 -2,-34 -17,1 -7,-104 -5,0 -2,-36 159,-10 107,-9 6,83Z"/>
    <path data-fips-int="30093" data-name="Silver Bow County" d="M1101,1414l-76,0 -10,-7 -8,11 0,10 -8,9 -39,22 -4,-4 1,-17 -7,0 -6,-9 0,-14 -9,-12 -12,-6 -22,-3 -6,-9 -20,-2 -23,-23 17,-4 27,-21 2,-6 -4,-20 5,-5 13,3 8,-20 20,1 2,-35 27,1 12,-16 7,4 10,-5 10,2 10,-3 -4,18 4,11 10,8 -2,20 8,6 1,39 8,18 -8,13 4,7 40,20 4,8 11,2Z"/>
    <path data-fips-int="30095" data-name="Stillwater County" d="M2017,1265l1,70 6,0 0,103 6,7 1,13 11,5 0,11 -13,4 -12,0 -12,-5 -26,14 -17,-2 0,26 -17,0 0,24 -47,0 0,6 -17,1 -6,11 -11,0 -12,17 -12,7 -1,11 -6,0 0,12 -6,0 1,17 -24,0 0,39 -30,0 0,-2 -75,0 0,-71 37,0 0,-70 34,0 0,-18 35,0 0,-17 35,0 -1,-71 5,0 -1,-35 12,0 -1,-35 24,-2 1,-33 1,-36 45,0Z"/>
    <path data-fips-int="30097" data-name="Sweet Grass County" d="M1812,1232l1,35 13,0 1,35 52,0 -1,33 -24,2 1,35 -12,0 1,35 -5,0 1,71 -35,0 0,17 -35,0 0,18 -34,0 0,70 -37,0 0,71 -48,-1 0,-70 4,0 0,-173 -1,-3 -20,0 0,-77 1,-63 2,0 0,-21 1,-14 17,0Z"/>
    <path data-fips-int="30099" data-name="Teton County" d="M1335,517l-1,116 -70,-1 0,35 -70,-1 -1,43 -34,-6 -16,3 -11,-3 -15,4 -22,-2 -8,-14 -24,-6 -4,-20 -20,-4 -6,-13 -9,-4 -4,6 -16,1 -6,5 -23,1 -13,7 -11,-4 -9,-9 -10,-20 -6,-7 4,-15 -6,-10 5,-28 -9,-22 -1,-11 -5,-2 -3,-17 19,4 10,-13 -7,-21 -11,-2 4,-11 -15,-15 3,-9 -9,-5 226,7 0,18 34,1 0,18 17,0 -1,24 53,1 33,0Z"/>
    <path data-fips-int="30101" data-name="Toole County" d="M1136,105l147,5 97,1 -2,57 -1,116 -2,12 -2,128 -36,-1 -68,-1 1,-52 -35,-1 1,-17 -52,-3 0,-17 -12,-6 -17,4 -8,-10 -14,-5 0,-79 2,-51Z"/>
    <path data-fips-int="30103" data-name="Treasure County" d="M2574,1356l-31,0 -1,-17 -35,2 -1,-17 -69,1 -1,-34 -24,0 -3,-6 12,-17 -3,-10 6,-5 -2,-16 -12,-5 0,-12 -6,0 0,-11 -12,-6 0,-12 -12,-5 0,-17 -12,-6 -1,-12 -11,-5 -1,-12 -6,1 0,-12 -6,-6 156,-5 6,5 1,29 35,-1 1,36 6,-1 3,69 19,-1Z"/>
    <path data-fips-int="30105" data-name="Valley County" d="M2743,87l1,36 -10,0 2,35 34,-2 4,80 1,25 58,-3 8,138 -10,1 4,84 -16,-10 2,10 -6,3 -18,-5 -6,-5 -6,3 4,8 -10,-1 -9,-10 -3,10 -13,3 4,-11 -29,3 -11,-7 -10,-3 -8,5 -14,-8 -9,19 5,19 -2,6 -8,-10 -4,8 -12,7 6,6 -10,10 6,11 -9,2 3,11 -8,2 0,12 -13,5 3,8 -12,-3 -5,10 -12,-1 0,8 -10,9 -12,-4 -20,4 -2,21 -13,5 -17,-1 -8,6 -21,-2 -21,3 -19,1 -10,-7 -14,0 -8,-4 -14,0 -2,-72 3,0 -2,-40 -3,-100 9,0 -1,-35 30,-1 -2,-36 -10,1 -2,-35 12,-1 -1,-13 17,1 0,-23 -4,0 -5,-139 7,0 -1,-35 118,-5 132,-6Z"/>
    <path data-fips-int="30107" data-name="Wheatland County" d="M1786,1041l99,-1 1,82 -4,9 0,89 1,12 -71,0 -157,0 -17,0 0,-109 3,0 0,-89 17,1 5,-7 17,4 3,-9 18,-4 6,5 18,-7 41,24Z"/>
    <path data-fips-int="30109" data-name="Wibaux County" d="M3337,695l4,65 8,87 11,152 -85,6 -1,-11 -18,1 0,-6 -52,4 -4,-57 0,-14 28,-2 4,-6 20,-13 2,-12 8,-6 2,-12 8,-12 -2,-15 6,-1 -2,-38 -3,1 -3,-24 -21,-36 -13,-11 -6,0 8,-15 79,-6 -1,-17Z"/>
    <path data-fips-int="30111" data-name="Yellowstone County" d="M2343,1117l6,6 0,12 6,-1 1,12 11,5 1,12 12,6 0,17 12,5 0,12 12,6 0,11 6,0 0,12 12,5 2,16 -6,5 3,10 -12,17 3,6 -46,2 0,23 -34,1 0,12 -11,0 0,12 -12,0 1,12 -47,1 2,47 -6,0 2,106 -35,1 0,12 -35,1 0,11 -35,1 0,-2 -57,2 -15,0 -1,-23 -17,0 0,-12 -12,0 0,-14 5,-10 0,-11 -17,11 0,-11 -11,-5 -1,-13 -6,-7 0,-103 -6,0 -1,-70 39,0 105,-3 -1,-41 12,-1 0,-5 11,0 0,-6 82,-2 -1,-18 5,0 0,-11 6,0 5,-12 6,-1 5,-12 41,-1 -1,-40Z"/>
  </g>
  <g class="cities">
    <circle r="3" cx="213.7" cy="140.4"/>
    <text x="213.7" y="140.4">Billings</text>
    <circle r="3" cx="61.8" cy="94.3"/>
    <text x="61.8" y="94.3">Missoula</text>
    <circle r="3" cx="136.3" cy="71.4"/>
    <text x="136.3" y="71.4">Great Falls</text>
  </g>
</svg>