<?xml version="1.0" encoding="utf-8"?>
<!DOCTYPE svg PUBLIC "-//W3C//DTD SVG 1.1//EN" "http://www.w3.org/Graphics/SVG/1.1/DTD/svg11.dtd">
<svg version="1.1" xmlns="http://www.w3.org/2000/svg" width="350" height="202" viewBox="0 0 350 202">
  <path class="state" transform="scale(0.1)" d="M1295,1837l-15,37 16,31 -68,-10 -35,20 -12,-22 -69,16 -52,-21 -20,12 -10,36 -22,-14 -93,-5 -8,44 -47,-23 -8,-40 -23,-31 11,-9 -18,-60 -33,-21 -30,10 -28,-30 -10,-34 15,-4v-40l-30,-24 -32,-56 -25,-66 -1,-72 -30,-15 -9,-30 -100,82 -24,-7 -44,-34 -8,-28 18,-33 -16,-22 20,-29 25,1 3,-50 -25,-27 13,-24 -13,-27 20,1v-30l26,-77 15,-90 -38,10 -40,-6 -13,-40 -23,15 -2,-26 -42,-29v-37l-31,-23 -13,-32 -54,-87 -55,-21 -6,-22 -53,-32 38,-21 -33,-28 19,-19 -8,-46 -26,-21 -52,-94 7,-96 23,-315 349,24 175,9 228,12 268,8 242,5 138,1h333l331,-4 280,-8 282,-13 278,-15 266,-19 19,245 13,158 18,241 23,302 24,306 28,355 -284,19 -348,22 -220,8h-69l-277,10 -236,4 -6,-3 -198,3 -258,4 -97,-5 -5,46v155l-50,-31 4,-18 -45,-54Z"/>
  <g class="counties" transform="scale(0.1)">
    <path data-fips-int="30001" data-name="Beaverhead County" d="M852,1361l20,21 70,27 18,50 -3,58 17,16h34l12,21 -2,122 35,2 -1,35 38,1 8,71 29,18 81,3 -2,29 89,2 -15,37 16,31 -68,-10 -35,20 -12,-22 -69,16 -52,-21 -20,12 -10,36 -22,-14 -93,-5 -8,44 -47,-23 -8,-40 -23,-31 11,-9 -18,-60 -33,-21 -30,10 -28,-30 -10,-34 15,-4v-40l-30,-24 -32,-56 -25,-66 -1,-72 -30,-15 -9,-30 67,-54 51,-14 4,-24 41,74 54,-49Z"/>
    <path data-fips-int="30003" data-name="Big Horn County" d="M2412,1292l24,-1 1,35 70,-3v18l35,-1v17l30,-1 20,14 -8,60 51,2 7,130h-12l4,70 138,-7 8,75 -220,8h-69l-277,10 34,-90 -163,4 3,-86 12,-13 91,-1v-11l70,-14 2,-153 46,-1 23,-35 35,-1 -1,-24Z"/>
    <path data-fips-int="30005" data-name="Blaine County" d="M2181,107l-3,104h-15l-5,126 -8,-3 -9,-1 -5,90 2,97 -47,-5 -15,27 -60,2v76l-13,-23h-91l-42,31 -30,-8v-161l-3,-62 21,-65 -11,-46 3,-175Z"/>
    <path data-fips-int="30007" data-name="Broadwater County" d="M1303,1010l23,50 20,2 -2,38 24,20v21l38,-4 17,19 -20,53 18,32 -80,1 -2,26 -21,25v27l-67,62 2,-86h-35l3,-210 44,1v-70Z"/>
    <path data-fips-int="30009" data-name="Carbon County" d="M2100,1533l-12,13 -3,86 163,-4 -34,90 -236,4 -6,-3 -198,3v-66h30v-38h23l13,-42 58,-41h47l17,-50 44,-12 37,2 8,-6 4,30 28,10Z"/>
    <path data-fips-int="30011" data-name="Carter County" d="M3384,1304l28,355 -284,19 -9,-142h15l-11,-175 13,-1 -8,-140 13,-1 103,-8 3,34 35,-3 2,33 71,-4 2,35Z"/>
    <path data-fips-int="30013" data-name="Cascade County" d="M1439,683l42,21h26l-1,33 35,11v24h-34l-3,107h35l2,104 -5,5 -55,-39 -15,-26 -45,-10 -2,-32h-20l-1,30 -105,3v35l-33,-2h-35l1,-87 -45,-12 -24,-16 3,-129 33,6 2,-44 68,2 2,-35 69,1 117,2Z"/>
    <path data-fips-int="30015" data-name="Chouteau County" d="M1840,459v161l-80,10 -1,70 -85,48 -17,2 -116,-2 -35,-11 1,-33h-26l-42,-21 12,-48 -117,-2 2,-116 2,-58h156v-34h18l35,1 2,-35 208,1v34l32,-1v37Z"/>
    <path data-fips-int="30017" data-name="Custer County" d="M3169,1024l5,53 -46,3 13,139 -13,1 8,140 -13,1 -338,18 -8,-140h11l-6,-140h10l-9,-140 9,-7v-5l71,-4v11l60,-2 15,69 23,-1 14,33 58,-3v12l71,-4 34,-14 -2,-18Z"/>
    <path data-fips-int="30019" data-name="Daniels County" d="M3021,71l7,41 6,99 19,-1 1,35 -221,13 -58,3 -5,-105 -35,2 8,-72Z"/>
    <path data-fips-int="30021" data-name="Dawson County" d="M3236,721l-7,11 32,31 15,76 -14,44 -33,36 -30,3 -115,7 -13,-22 -35,2 -2,-23 -35,1 -4,-81 -24,2 -6,-140 11,-1 -6,-105 34,-2 2,35 68,-5 4,36 104,-7 2,34 22,-1 5,69Z"/>
    <path data-fips-int="30023" data-name="Deer Lodge County" d="M1005,1203l-6,34 -57,15 -2,35 -46,22 1,26 -43,26 -26,-12 -54,49 -41,-74v-1l35,-29 35,-10 1,-72 68,3 2,-18Z"/>
    <path data-fips-int="30025" data-name="Fallon County" d="M3360,998l24,306 -27,2 -2,-35 -71,4 -2,-33 -35,3 -3,-34 -103,8 -13,-139 46,-3 -5,-53v-17l35,-14 52,-4 20,16Z"/>
    <path data-fips-int="30027" data-name="Fergus County" d="M2016,620l60,45h59l39,12 2,109 -75,5v13l-35,2 -5,69h37v105l-5,35 -103,2 -105,1v23h-98l-3,-35 -20,-8 20,-39 -2,-116h-32v-17h-36v-18h-34v-35h-23v-23l17,-2 85,-48 1,-70 80,-10 30,8 42,-31h91Z"/>
    <path data-fips-int="30029" data-name="Flathead County" d="M641,85l27,75 44,-8 19,43 -15,49 75,29 -5,40 35,15 -4,44 33,29 -3,26 58,20 32,46 -5,28 -20,-3 -28,14 6,30 -10,40 -21,6 3,52 -88,-4 -43,-2 10,-29 -19,-46 4,-45 -55,-64 -53,8 10,25 -122,-7v70l-35,-2 2,-34 -103,-6 -2,-57 2,-85 46,3 9,-140 -9,-34 67,3 -10,-27 18,-14 -30,-21 12,-13 -7,-63Z"/>
    <path data-fips-int="30031" data-name="Gallatin County" d="M1421,1241l77,1 -5,242 -35,25v71h-35l-4,141 -5,46v155l-50,-31 4,-18 -45,-54 5,-240h6l2,-118 -53,-1 -33,-41 -40,-23 41,-14 67,-62v-27l21,-25 2,-26Z"/>
    <path data-fips-int="30033" data-name="Garfield County" d="M2682,509h15v36l28,-2 5,137h-8l3,71 35,-3 2,71 25,-2 5,130v5l-173,9v-6l-203,7 -120,8 -13,-10 15,-51 -20,-52 -5,-92 13,-37 17,-35 29,-16 20,-33 57,11 7,-27 45,10 63,-2 40,-12 -2,-17 32,-1 10,-19 41,-19 12,-55Z"/>
    <path data-fips-int="30035" data-name="Glacier County" d="M1137,105l-4,210 -105,-6 -1,70 -210,-7 4,-44 -35,-15 5,-40 -75,-29 15,-49 -19,-43 -44,8 -27,-75 228,12Z"/>
    <path data-fips-int="30037" data-name="Golden Valley County" d="M1990,1017l7,69h23l13,85 23,35v58l-40,1 -136,2 -2,35h-51v-35l-15,-35 71,-1 2,-190v-23Z"/>
    <path data-fips-int="30039" data-name="Granite County" d="M872,1197l-2,18 -68,-3 -1,72 -35,10 -35,29 -35,-12 -5,-24 -38,-6 15,-27 -15,-45 13,-62 -22,-21 22,-84 -7,-13 45,3v-23l53,-11v-22l50,-9 50,50 22,-9Z"/>
    <path data-fips-int="30041" data-name="Hill County" d="M1840,459l-51,3v-37l-32,1v-34l-208,-1 -2,35 -35,-1 4,-255 1,-59h333l-3,175 11,46 -21,65Z"/>
    <path data-fips-int="30043" data-name="Jefferson County" d="M1221,1086l-3,210h35l-2,86 -41,14 -34,-23 -46,1 -28,39 -67,-40 -2,-77 -34,-59 6,-34 -3,-17 73,-44 38,-13 -8,-17 47,-14 3,-13Z"/>
    <path data-fips-int="30045" data-name="Judith Basin County" d="M1657,750v23h23v35h34v18h36v17h32l2,116 -20,39 20,8 3,35 -22,1 -41,-24 -83,16 -15,15 -39,-2 -26,-22 -25,-37 5,-5 -2,-104h-35l3,-107h34v-24Z"/>
    <path data-fips-int="30047" data-name="Lake County" d="M731,654l-82,-3 10,125 13,7 -1,37 -30,-2 -2,18 -70,-4 2,-87 -40,-15 17,-44 -24,6 12,-49 -63,-3 -2,-76 35,2v-70l122,7 -10,-25 53,-8 55,64 -4,45 19,46Z"/>
    <path data-fips-int="30049" data-name="Lewis and Clark County" d="M1160,703l-3,129 24,16 45,12 -1,87h35l15,44 28,19 -38,7v70l-44,-1 -66,-1 -3,13 -47,14 8,17 -38,13 7,-74 -32,-39 -33,-1 1,-54 -71,-1 3,-139 -71,-4 5,-123 -15,-3 -7,-44 -3,-52 21,-6 10,-40 -6,-30 28,-14 15,48v59l25,35 65,-8 43,15 35,37Z"/>
    <path data-fips-int="30051" data-name="Liberty County" d="M1338,459v-35h36v-101l5,-213 138,1 -1,59 -4,255h-18v34Z"/>
    <path data-fips-int="30053" data-name="Lincoln County" d="M466,76l7,63 -12,13 30,21 -18,14 10,27 -67,-3 9,34 -9,140 -46,-3 -2,85 -40,-3 -10,39 -95,-3 -1,-41 -20,-30 -15,-70 -83,33 -10,-25 23,-315Z"/>
    <path data-fips-int="30055" data-name="McCone County" d="M3008,448l3,80 -7,32 -34,2 6,105 -11,1 6,140 -116,6 3,35 -35,2 -1,-36 -35,2 -25,2 -2,-71 -35,3 -3,-71h8l-5,-137 -28,2v-36h-15l3,-42 43,12 49,-4 58,6 50,-30 38,-10Z"/>
    <path data-fips-int="30057" data-name="Madison County" d="M1210,1396l40,23 33,41 53,1 -2,118h-6l-5,240 -28,18 -89,-2 2,-29 -81,-3 -29,-18 -8,-71 -38,-1 1,-35 -35,-2 2,-122 -12,-21h-34l-17,-16 3,-58 65,-46h77l28,-39 46,-1Z"/>
    <path data-fips-int="30059" data-name="Meagher County" d="M1536,988l25,37 26,22 39,2 15,-15 -4,197v16l-139,-5 -77,-1 -18,-32 20,-53 -17,-19 -38,4v-21l-24,-20 2,-38 -20,-2 -23,-50 -28,-19 -15,-44 33,2v-35l105,-3 1,-30h20l2,32 45,10 15,26Z"/>
    <path data-fips-int="30061" data-name="Mineral County" d="M406,770l5,19 50,43 2,23 25,2 7,29 -32,11v87l-35,2 -23,15 -2,-26 -42,-29v-37l-31,-23 -13,-32 -54,-87 -55,-21 -6,-22 -53,-32 38,-21 48,8 45,-4 80,41 1,34Z"/>
    <path data-fips-int="30063" data-name="Missoula County" d="M731,654l43,2 -5,167 43,4 -5,140 -50,9v22l-53,11v23l-45,-3 -140,-7 -38,10 -40,-6 -13,-40 35,-2v-87l32,-11 -7,-29 -25,-2 -2,-23 -50,-43 -5,-19 64,9 48,31 23,26 28,-4 70,4 2,-18 30,2 1,-37 -13,-7 -10,-125Z"/>
    <path data-fips-int="30065" data-name="Musselshell County" d="M2316,1007l10,30 5,75 1,41 -41,1 -22,24 -5,29 -75,1 -28,13v41l-105,2v-58l-23,-35 -13,-85h-23l-7,-69 103,-2Z"/>
    <path data-fips-int="30067" data-name="Park County" d="M1637,1247l-3,159h20l2,143 -5,105h46l77,2v66l-258,4 -97,-5 4,-141h35v-71l35,-25 5,-242Z"/>
    <path data-fips-int="30069" data-name="Petroleum County" d="M2286,728l-13,37 5,92 20,52 -15,51 13,10 20,37 -223,8 5,-35v-105h-37l5,-69 35,-2v-13l75,-5 -2,-109 69,-8 36,12Z"/>
    <path data-fips-int="30071" data-name="Phillips County" d="M2461,99l-5,35 3,130 5,32 -28,13 13,70 -28,1 -9,35 4,213 -7,27 -57,-11 -20,33 -29,16 -17,35 -7,-47 -36,-12 -69,8 -39,-12h-59l-60,-45v-76l60,-2 15,-27 47,5 -2,-97 5,-90 9,1 8,3 5,-126h15l3,-104Z"/>
    <path data-fips-int="30073" data-name="Pondera County" d="M1133,315l50,35 53,2 -1,17 35,1 -2,53 70,1v35l-2,58 -155,-2 -16,-42 -35,-1 2,-18 -227,-7 -58,-20 3,-26 -33,-29 210,7 1,-70Z"/>
    <path data-fips-int="30075" data-name="Powder River County" d="M3123,1361l11,175h-15l9,142 -348,22 -8,-75 -4,-69 14,-1 -9,-175 12,-1Z"/>
    <path data-fips-int="30077" data-name="Powell County" d="M862,660l7,44 15,3 -5,123 71,4 -3,139 71,1 -1,54 33,1 32,39 -7,74 -73,44 3,17 -133,-6 7,-189 -22,9 -50,-50 5,-140 -43,-4 5,-167Z"/>
    <path data-fips-int="30079" data-name="Prairie County" d="M3199,922l5,71 -35,14v17l-33,2 2,18 -34,14 -71,4v-12l-58,3 -14,-33 -23,1 -15,-69 -60,2v-11l-71,4 -5,-130 35,-2 1,36 35,-2 -3,-35 116,-6 24,-2 4,81 35,-1 2,23 35,-2 13,22Z"/>
    <path data-fips-int="30081" data-name="Ravalli County" d="M659,1029l7,13 -22,84 22,21 -13,62 15,45 -15,27 38,6 5,24 35,12v1l-4,24 -51,14 -67,54 -100,82 -24,-7 -44,-34 -8,-28 18,-33 -16,-22 20,-29 25,1 3,-50 -25,-27 13,-24 -13,-27 20,1v-30l26,-77 15,-90Z"/>
    <path data-fips-int="30083" data-name="Richland County" d="M3319,455l18,241 -21,19 -80,6h-25l-5,-69 -22,1 -2,-34 -104,7 -4,-36 -68,5 -2,-35 7,-32 -3,-80 36,2 45,-41 14,12h64l32,-9 63,34 29,-13Z"/>
    <path data-fips-int="30085" data-name="Roosevelt County" d="M3054,245l59,-4 1,35 35,-2 2,35 155,-12 13,158 -28,-22 -29,13 -63,-34 -32,9h-64l-14,-12 -45,41 -36,-2 -85,-7 -38,10 -50,30 -5,-84h10l-7,-139Z"/>
    <path data-fips-int="30087" data-name="Rosebud County" d="M2792,952l-9,7 9,140h-10l6,140h-11l8,140 -12,1 9,175 -14,1 4,69 -138,7 -4,-70h12l-7,-130 -51,-2 8,-60 -20,-14 -2,-107 -20,2 -1,-70 -9,-36 -35,2 -13,-34 -150,4 -11,-5 -5,-75 -10,-30 -20,-37 120,-8 203,-7v6Z"/>
    <path data-fips-int="30089" data-name="Sanders County" d="M406,770l-45,-20 -1,-34 -80,-41 -45,4 -48,-8 -33,-28 19,-19 -8,-46 -26,-21 -52,-94 7,-96 10,25 83,-33 15,70 20,30 1,41 95,3 10,-39 40,3 2,57 103,6 -2,34 2,76 63,3 -12,49 24,-6 -17,44 40,15 -2,87 -28,4 -23,-26 -48,-31Z"/>
    <path data-fips-int="30091" data-name="Sheridan County" d="M3306,297l-155,12 -2,-35 -35,2 -1,-35 -59,4 -1,-35 -19,1 -6,-99 -7,-41 266,-19Z"/>
    <path data-fips-int="30093" data-name="Silver Bow County" d="M1102,1413h-77l-65,46 -18,-50 -70,-27 -20,-21 43,-26 -1,-26 46,-22 2,-35 57,-15 34,59 2,77Z"/>
    <path data-fips-int="30095" data-name="Stillwater County" d="M2016,1265l9,93v88l18,29 -37,-2 -44,12 -17,50h-47l-58,41 -13,42h-23v38h-30l-77,-2v-71h38v-70h34v-18h36v-17h35l3,-106 12,-35 23,-2v-33l2,-35Z"/>
    <path data-fips-int="30097" data-name="Sweet Grass County" d="M1812,1232l15,35v35h51v33l-23,2 -12,35 -3,106h-35v17h-36v18h-34v70h-38v71h-46l5,-105 -2,-143h-20l3,-159v-16Z"/>
    <path data-fips-int="30099" data-name="Teton County" d="M1336,517l-2,116 -69,-1 -2,35 -68,-2 -2,44 -33,-6 -65,1 -35,-37 -43,-15 -65,8 -25,-35v-59l-15,-48 20,3 5,-28 -32,-46 227,7 -2,18 35,1 16,42Z"/>
    <path data-fips-int="30101" data-name="Toole County" d="M1137,105l242,5 -5,213v101h-36l-70,-1 2,-53 -35,-1 1,-17 -53,-2 -50,-35Z"/>
    <path data-fips-int="30103" data-name="Treasure County" d="M2572,1356l-30,1v-17l-35,1v-18l-70,3 -1,-35 -24,1 10,-55 -80,-120 150,-4 13,34 35,-2 9,36 1,70 20,-2Z"/>
    <path data-fips-int="30105" data-name="Valley County" d="M2743,86l-8,72 35,-2 5,105 58,-3 7,139h-10l5,84 -58,-6 -49,4 -43,-12 -3,42 -25,4 -12,55 -41,19 -10,19 -32,1 2,17 -40,12 -63,2 -45,-10 -4,-213 9,-35 28,-1 -13,-70 28,-13 -5,-32 -3,-130 5,-35Z"/>
    <path data-fips-int="30107" data-name="Wheatland County" d="M1787,1041h98l-2,190 -71,1 -175,-1 4,-197 83,-16 41,24Z"/>
    <path data-fips-int="30109" data-name="Wibaux County" d="M3337,696l23,302 -84,7 -20,-16 -52,4 -5,-71 30,-3 33,-36 14,-44 -15,-76 -32,-31 7,-11 80,-6Z"/>
    <path data-fips-int="30111" data-name="Yellowstone County" d="M2342,1117l80,120 -10,55 -46,1 1,24 -35,1 -23,35 -46,1 -2,153 -70,14v11l-91,1 -17,-24 -28,-10 -4,-30 -8,6 -18,-29v-88l-9,-93 40,-1 105,-2v-41l28,-13 75,-1 5,-29 22,-24 41,-1 -1,-41Z"/>
  </g>
  <path class="mesh" transform="scale(0.1)" d="M2214,1718l34,-90 -163,4 3,-86 12,-13 91,-1v-11l70,-14 2,-153 46,-1 23,-35 35,-1 -1,-24 46,-1 24,-1 1,35 70,-3v18l35,-1v17l30,-1 20,14 -8,60 51,2 7,130h-12l4,70 138,-7 8,75M609,1416l67,-54 51,-14 4,-24 41,74 54,-49 26,12 20,21 70,27 18,50 -3,58 17,16h34l12,21 -2,122 35,2 -1,35 38,1 8,71 29,18 81,3 -2,29 89,2M2181,107l-3,104h-15l-5,126 -8,-3 -9,-1 -5,90 2,97 -47,-5 -15,27 -60,2v76l-13,-23h-91l-42,31 -30,-8v-161l-3,-62 21,-65 -11,-46 3,-175M1260,947l15,44 28,19 23,50 20,2 -2,38 24,20v21l38,-4 17,19 -20,53 18,32 -80,1 -2,26 -21,25v27l-67,62 2,-86h-35l3,-210 44,1v-70l38,-7M1774,1722v-66h30v-38h23l13,-42 58,-41h47l17,-50 44,-12 37,2 8,-6 4,30 28,10 17,24M3128,1678l-9,-142h15l-11,-175 13,-1 -8,-140 13,-1 103,-8 3,34 35,-3 2,33 71,-4 2,35 27,-2M1439,683l42,21h26l-1,33 35,11v24h-34l-3,107h35l2,104 -5,5 -55,-39 -15,-26 -45,-10 -2,-32h-20l-1,30 -105,3v35l-33,-2h-35l1,-87 -45,-12 -24,-16 3,-129 33,6 2,-44 68,2 2,-35 69,1 117,2 -12,48M1840,620l-80,10 -1,70 -85,48 -17,2 -116,-2M1334,633l2,-116 2,-58h156v-34h18l35,1 2,-35 208,1v34l32,-1v37l51,-3M3123,1361l-338,18 -8,-140h11l-6,-140h10l-9,-140 9,-7v-5l71,-4v11l60,-2 15,69 23,-1 14,33 58,-3v12l71,-4 34,-14 -2,-18 33,-2 5,53 -46,3 13,139M3021,71l7,41 6,99 19,-1 1,35 -221,13 -58,3 -5,-105 -35,2 8,-72M3337,696l-21,19 -80,6 -7,11 32,31 15,76 -14,44 -33,36 -30,3 -115,7 -13,-22 -35,2 -2,-23 -35,1 -4,-81 -24,2 -6,-140 11,-1 -6,-105 34,-2 2,35 68,-5 4,36 104,-7 2,34 22,-1 5,69h25M731,1324v-1l35,-29 35,-10 1,-72 68,3 2,-18 133,6 -6,34 -57,15 -2,35 -46,22 1,26 -43,26M3169,1024v-17l35,-14 52,-4 20,16 84,-7M2016,620l60,45h59l39,12 2,109 -75,5v13l-35,2 -5,69h37v105l-5,35 -103,2 -105,1v23h-98l-3,-35 -20,-8 20,-39 -2,-116h-32v-17h-36v-18h-34v-35h-23v-23M641,85l27,75 44,-8 19,43 -15,49 75,29 -5,40 35,15 -4,44 33,29 -3,26 58,20 32,46 -5,28 -20,-3 -28,14 6,30 -10,40 -21,6 3,52 -88,-4 -43,-2 10,-29 -19,-46 4,-45 -55,-64 -53,8 10,25 -122,-7v70l-35,-2 2,-34 -103,-6 -2,-57 2,-85 46,3 9,-140 -9,-34 67,3 -10,-27 18,-14 -30,-21 12,-13 -7,-63M1421,1241l77,1 -5,242 -35,25v71h-35l-4,141M1323,1819l5,-240h6l2,-118 -53,-1 -33,-41 -40,-23 41,-14M2792,952l-173,9v-6l-203,7 -120,8 -13,-10 15,-51 -20,-52 -5,-92 13,-37 17,-35 29,-16 20,-33 57,11 7,-27 45,10 63,-2 40,-12 -2,-17 32,-1 10,-19 41,-19 12,-55 25,-4h15v36l28,-2 5,137h-8l3,71 35,-3 2,71 25,-2 5,130M1137,105l-4,210 -105,-6 -1,70 -210,-7M1990,1017l7,69h23l13,85 23,35v58l-40,1 -136,2 -2,35h-51v-35l-15,-35 71,-1 2,-190M731,1323l-35,-12 -5,-24 -38,-6 15,-27 -15,-45 13,-62 -22,-21 22,-84 -7,-13 45,3v-23l53,-11v-22l50,-9 50,50 22,-9 -7,189M1512,425l4,-255 1,-59M1210,1396l-34,-23 -46,1 -28,39 -67,-40 -2,-77 -34,-59M1005,1203l-3,-17 73,-44 38,-13 -8,-17 47,-14 3,-13 66,1M1787,1041l-22,1 -41,-24 -83,16 -15,15 -39,-2 -26,-22 -25,-37M731,654l-82,-3 10,125 13,7 -1,37 -30,-2 -2,18 -70,-4 2,-87 -40,-15 17,-44 -24,6 12,-49 -63,-3 -2,-76M1075,1142l7,-74 -32,-39 -33,-1 1,-54 -71,-1 3,-139 -71,-4 5,-123 -15,-3 -7,-44M912,518l15,48v59l25,35 65,-8 43,15 35,37 65,-1M1338,459v-35h36v-101l5,-213M368,467l-40,-3 -10,39 -95,-3 -1,-41 -20,-30 -15,-70 -83,33 -10,-25M2682,509l3,-42 43,12 49,-4 58,6 50,-30 38,-10 85,7 3,80 -7,32M2971,808l-116,6 3,35 -35,2 -1,-36 -35,2M960,1459l65,-46h77M1641,1034l-4,197v16l-139,-5M187,671l48,8 45,-4 80,41 1,34 45,20 5,19 50,43 2,23 25,2 7,29 -32,11v87l-35,2M774,656l-5,167 43,4 -5,140M659,1029l-140,-7M406,770l64,9 48,31 23,26 28,-4M2093,1015l223,-8 10,30 5,75 1,41 -41,1 -22,24 -5,29 -75,1 -28,13v41l-105,2M1637,1247l-3,159h20l2,143 -5,105h46l77,2M2296,970l20,37M2174,677l69,-8 36,12 7,47M2461,99l-5,35 3,130 5,32 -28,13 13,70 -28,1 -9,35 4,213M1133,315l50,35 53,2 -1,17 35,1 -2,53 70,1M1336,517l-155,-2 -16,-42 -35,-1 2,-18 -227,-7M2772,1625l-4,-69 14,-1 -9,-175 12,-1M3199,922l5,71M3008,448l36,2 45,-41 14,12h64l32,-9 63,34 29,-13 28,22M3054,245l59,-4 1,35 35,-2 2,35 155,-12M2835,481l-5,-84h10l-7,-139M2572,1356l-2,-107 -20,2 -1,-70 -9,-36 -35,2 -13,-34 -150,4 -11,-5M2016,1265l9,93v88l18,29M1697,1654v-71h38v-70h34v-18h36v-17h35l3,-106 12,-35 23,-2v-33M1637,1231l175,1M2412,1292l10,-55 -80,-120"/>
  <g class="cities">
    <circle r="3" cx="213.8" cy="140.4"/>
    <text x="213.8" y="140.4">Billings</text>
    <circle r="3" cx="61.8" cy="94.3"/>
    <text x="61.8" y="94.3">Missoula</text>
    <circle r="3" cx="136.3" cy="71.4"/>
    <text x="136.3" y="71.4">Great Falls</text>
  </g>
</svg>