<?xml version="1.0" encoding="utf-8"?>
<!DOCTYPE svg PUBLIC "-//W3C//DTD SVG 1.1//EN" "http://www.w3.org/Graphics/SVG/1.1/DTD/svg11.dtd">
<svg version="1.1" xmlns="http://www.w3.org/2000/svg" width="350" height="134" viewBox="0 0 350 134">
  <path class="state" transform="scale(0.1)" d="M3176,747l-58,61 73,-89 15,5 -30,23M3222,36l4,25 -29,1 -8,-26h33M3400,433l12,36 -8,95 -12,75h-37l-46,21v-3l86,-43 14,-149 -9,-32M3317,314l30,37v21l-43,-57 13,-1M3282,180l-13,-7 -17,-80 -13,-9 2,-49 25,104 16,41 97,197 -17,-11 -10,-42 -26,-26 -10,-38 -19,7 -15,-87M2655,1025l-83,69h8v2l-51,64 -12,43 -13,-3 -13,-57 8,59 -5,41 -30,32 -136,3 -64,18 -35,-35 -163,-162 -148,-151 -86,-80 -90,-1 -148,-4 -181,-3 6,-54 -21,-30 -35,-49 -40,27 3,-46 -111,-9 -165,-10 -75,-5 -118,-8 -28,3 -12,-12 -71,31 -67,33 -11,-8 -85,24 -39,12 -141,-2 -196,-5 -120,-5 17,-108 23,-18 50,10 25,-20 6,-53 27,-23 27,-24 48,-20 101,2 57,-43 32,-13 66,-41 45,1 22,-41 -4,-23 35,6 18,-37 54,-28 6,46 40,-4 35,-43 23,-20 54,-18 48,27 18,-7 43,-76 42,-29 30,5v-23l13,-34 7,-55 120,7 168,8 169,7 153,4h192l136,-1 127,-1 126,-2 48,-1 157,-3 271,-7 93,-2v-4l136,-4 85,-3 101,-3 17,57 57,63 -4,25 29,71 -60,-87 -25,-34 23,25v45h-23l-42,-43 -23,-4 -17,-33 5,33 53,42 9,26 -40,12 -45,-42 20,54 -52,-17 27,20 -68,6 30,8 -37,29 -25,-1 -13,-22 -28,-2 -15,-40 15,-68 -35,-28 -62,-17 60,19 30,28 -10,24 -10,46 30,67 -5,35 58,-10 52,-21 15,22 35,2 -7,-18 42,-15h41l-3,38 23,-8 -18,29 8,85 -43,-7 46,21 10,-10 9,-42 -4,-61 35,-22 54,22 18,87 -23,5 16,23 -31,30 -25,-30 5,28 -37,26 7,14 -44,42 5,15 -56,17 -77,-34 -20,22 -23,-17 -20,-44 43,-3 -10,-27 4,16 -35,-1 -33,15 26,12 10,43 -150,-39 -44,-33 -4,4 55,50 12,-5 76,45h39l5,30 3,-25 38,5 5,46 -51,20 34,9 -23,40 -75,50 -53,-34 2,-20 -22,5 -13,-25 -17,28 -21,1h6l27,-13 26,41 32,25 53,15 25,-20 2,27 2,-32 38,-5 51,-40 2,44 60,-1 -25,41 -28,19 -30,44 -25,10 3,-26 -35,12 -30,-11 15,28 -55,-3 -71,23 -47,-37 14,35 -74,67 -21,-24 13,-23 -23,-36 -12,21 22,26 -29,9 44,32 -67,46"/>
  <g class="counties" transform="scale(0.1)">
    <path data-fips-int="37001" data-name="Alamance County" d="M1992,206l-2,134 5,35 5,14 -115,2v-26l3,-158v-3Z"/>
    <path data-fips-int="37003" data-name="Alexander County" d="M1300,417l-10,-23 -72,14 -3,-59 6,-33 24,-13 88,-8 8,40 -13,45Z"/>
    <path data-fips-int="37005" data-name="Alleghany County" d="M1383,58l-30,51 5,23 -24,12 -23,-31 -26,4 -34,30 -6,-38 -30,-59Z"/>
    <path data-fips-int="37007" data-name="Anson County" d="M1685,712l32,27 27,-14 16,33 12,62 -30,47 -148,-4 17,-175 20,19 43,-8Z"/>
    <path data-fips-int="37009" data-name="Ashe County" d="M1215,50l30,59 6,38 -38,4 -22,33 -24,19 -34,-16 -23,-34 -35,-21 13,-34 7,-55Z"/>
    <path data-fips-int="37011" data-name="Avery County" d="M1043,260l27,22 -28,46 -34,-17 -16,17 -15,23 -20,-14 -15,-75 18,-7 43,-76 4,34 30,21Z"/>
    <path data-fips-int="37013" data-name="Beaufort County" d="M2798,511l55,50 12,-5 76,45h39l5,30 -5,19 -82,11 -18,-16 -24,-20 -91,-53 5,-47ZM2891,436l79,-2 21,40 33,20 4,16 -35,-1 -33,15 26,12 10,43 -150,-39 -44,-33 -34,-50v-30l72,33Z"/>
    <path data-fips-int="37015" data-name="Bertie County" d="M2928,187l-10,46 30,67 -5,35 -23,27 -29,-7 -13,32 -18,-38 -40,20 -12,-38 -50,3 -3,-32 -48,-30 35,-18 -22,-26 -3,-18 33,-19 86,2Z"/>
    <path data-fips-int="37017" data-name="Bladen County" d="M2329,912l47,66v23l26,22 -26,26 -30,16 -42,-4 -85,-41 -63,3 -13,-9 5,-42 18,-54 -11,-12 -25,-53 21,-7 132,-5 40,48Z"/>
    <path data-fips-int="37021" data-name="Buncombe County" d="M864,444l-5,51 45,31 -25,3 -15,23 -24,-15 -11,17 -98,10 -17,-11 -30,15 -16,-21 13,-45 -43,-52 78,-24 61,-30 40,-5 23,7 4,25Z"/>
    <path data-fips-int="37023" data-name="Burke County" d="M1042,328l35,41 41,25 17,22 71,5 -64,91 -2,2 -58,-9 -27,-13 -22,15 -16,-68 -43,-40 26,-19 -8,-52 16,-17Z"/>
    <path data-fips-int="37025" data-name="Cabarrus County" d="M1604,547l-80,146 -17,-11 -44,-27 -9,-35 -25,-26 -8,-50h18Z"/>
    <path data-fips-int="37027" data-name="Caldwell County" d="M1142,259l53,26 26,31 -6,33 3,59 -12,13 -71,-5 -17,-22 -41,-25 -35,-41 28,-46 -27,-22Z"/>
    <path data-fips-int="37033" data-name="Caswell County" d="M2033,68l-3,138h-38l-104,-2 9,-135Z"/>
    <path data-fips-int="37035" data-name="Catawba County" d="M1300,417l18,32 26,4 24,38 -14,33 -212,-12 64,-91 12,-13 72,-14Z"/>
    <path data-fips-int="37037" data-name="Chatham County" d="M2081,380l42,-3 -32,119 30,13 -21,28 -30,-34 -34,-13 -21,31 -47,7 -10,12 -76,2 3,-151 115,-2 -5,-14Z"/>
    <path data-fips-int="37039" data-name="Cherokee County" d="M325,637l-15,42 -48,9 -55,64 -120,-5 17,-108 23,-18 50,10 25,-20 21,35 49,-14Z"/>
    <path data-fips-int="37043" data-name="Clay County" d="M310,679l31,2 49,71 13,5 -196,-5 55,-64Z"/>
    <path data-fips-int="37045" data-name="Cleveland County" d="M1140,514l28,67 35,39 17,35 -5,44 -165,-10 27,-81 5,-103Z"/>
    <path data-fips-int="37047" data-name="Columbus County" d="M2376,1049l36,19 -35,66 -45,5 -19,31 -42,-3 -15,51 -20,9 -2,31 -5,3 -163,-162 39,-59 38,-26 13,9 63,-3 85,41 42,4Z"/>
    <path data-fips-int="37049" data-name="Craven County" d="M2963,806l-23,23 -50,3 -29,17 -48,6 -10,-14 -5,-110 27,-13 26,41 32,25 53,15 25,-20ZM2765,572l91,53 24,20 -25,25 -5,30 15,22 -22,5 -13,-25 -17,28 -21,1 -20,-4 -108,-65 16,-14 -10,-20 23,-18 35,-18 12,12Z"/>
    <path data-fips-int="37051" data-name="Cumberland County" d="M2198,657l36,5 -6,51 -14,20 10,47 42,44 17,17 -132,5 -21,7 -22,-37 -30,-17 -22,-44 -3,-58 2,-8 65,-13 45,-21h8Z"/>
    <path data-fips-int="37057" data-name="Davidson County" d="M1697,314v41l-7,191h-43l-10,-34 -65,-62 -28,-15 -7,-39 34,-7 8,-21 -12,-38 69,-11v-13Z"/>
    <path data-fips-int="37059" data-name="Davie County" d="M1567,330l12,38 -8,21 -34,7 7,39 -50,-34 -43,-16 7,-91 73,2 8,-6Z"/>
    <path data-fips-int="37061" data-name="Duplin County" d="M2529,689l25,14 15,63 21,16 10,21 -10,95 -163,2 -31,-6 16,-76 -10,-88 2,-44 45,-3 58,15Z"/>
    <path data-fips-int="37063" data-name="Durham County" d="M2160,208v69l19,6 20,29 -21,42 -18,-5 -10,28h-27l-42,3 24,-173Z"/>
    <path data-fips-int="37065" data-name="Edgecombe County" d="M2680,305l23,44 -1,40 -15,-5 -98,73 -24,-23 -11,-45 -30,-17 46,-133 62,27 2,24Z"/>
    <path data-fips-int="37067" data-name="Forsyth County" d="M1702,200l-5,114 -61,-8v13l-69,11 -28,-40 -8,6 -5,-28 26,-13 -5,-48v-9Z"/>
    <path data-fips-int="37069" data-name="Franklin County" d="M2454,219l-88,178 -25,-35 -40,-37 -45,-20 17,-71 28,5 15,-33 26,-15 65,9 10,16Z"/>
    <path data-fips-int="37071" data-name="Gaston County" d="M1354,592l-20,63 -8,53 -111,-9 5,-44 -17,-35 -35,-39Z"/>
    <path data-fips-int="37073" data-name="Gates County" d="M2991,44l20,18 15,61 -38,13 -43,25 -35,-28 -62,-17 7,-64v-4Z"/>
    <path data-fips-int="37075" data-name="Graham County" d="M333,623l-8,14 -53,-5 -49,14 -21,-35 6,-53 27,-23 32,8 104,9 -3,28 -38,25Z"/>
    <path data-fips-int="37077" data-name="Granville County" d="M2284,70l-18,31 2,119 5,14 -17,71 -55,-24 -22,2 -19,-6v-69v-141l126,-2Z"/>
    <path data-fips-int="37079" data-name="Greene County" d="M2660,571l-78,38 -5,-15 -40,6 -8,-25v-68l45,-38 33,37 40,24Z"/>
    <path data-fips-int="37081" data-name="Guilford County" d="M1888,207l-3,158 -188,-10v-41l5,-114Z"/>
    <path data-fips-int="37083" data-name="Halifax County" d="M2720,228l22,26 -35,18 -27,33 -46,-15 -2,-24 -62,-27 -71,6 -12,-19 -33,-7 35,-83 3,-58 53,12 39,-2 38,30 -13,36 15,15 40,-11 21,53Z"/>
    <path data-fips-int="37085" data-name="Harnett County" d="M2198,537l31,27 34,66 -29,32 -36,-5 -25,-2h-8l-45,21 -65,13 -49,-35 15,-18 79,-99 21,-28Z"/>
    <path data-fips-int="37087" data-name="Haywood County" d="M638,450l43,52 -13,45 16,21 -31,47 -34,12 -80,-96 -16,-10 3,-71 -26,-13 66,-41 45,1Z"/>
    <path data-fips-int="37089" data-name="Henderson County" d="M864,552l3,35 -33,48 -5,44 -12,-12 -71,31 -10,-66 -52,-64 30,-15 17,11 98,-10 11,-17Z"/>
    <path data-fips-int="37091" data-name="Hertford County" d="M2855,52l-7,64 60,19 30,28 -10,24 -92,6 -86,-2 30,-105 12,-18 -30,-14Z"/>
    <path data-fips-int="37093" data-name="Hoke County" d="M2053,697l3,58 22,44 -58,55 -60,-2 2,-17 -4,-32 -36,-39 -4,-6 59,-62 21,-17Z"/>
    <path data-fips-int="37097" data-name="Iredell County" d="M1388,291l70,3 -7,91 -25,82 13,77h-18l-47,-4 -15,12 -5,-28 14,-33 -24,-38 -26,-4 -18,-32 28,-37 13,-45 -8,-40Z"/>
    <path data-fips-int="37099" data-name="Jackson County" d="M523,521l16,10 80,96 -6,31 -20,15v27l-29,35 19,12 -39,12 -23,-33 10,-10 -28,-32 1,-36 -23,3 -18,-47 -2,-66 32,-17Z"/>
    <path data-fips-int="37101" data-name="Johnston County" d="M2389,437l25,56 25,10 -33,77v33l-49,16 -6,13 -40,14 -28,-2 -20,-24 -34,-66 -31,-27 91,-87 77,-53Z"/>
    <path data-fips-int="37103" data-name="Jones County" d="M2792,731h6l5,110 10,14 -28,8 -28,-52 -37,-17 -15,12 -50,-24h-65l-21,-16 46,-30 35,-47 -8,-34 22,7 108,65Z"/>
    <path data-fips-int="37105" data-name="Lee County" d="M2100,537l-79,99 -31,-17 -32,-51v-28l10,-12 47,-7 21,-31 34,13Z"/>
    <path data-fips-int="37107" data-name="Lenoir County" d="M2693,610l-23,18 10,20 -16,14 -22,-7 8,34 -35,47 -46,30 -15,-63 -25,-14 8,-89 40,-6 5,15 78,-38Z"/>
    <path data-fips-int="37109" data-name="Lincoln County" d="M1354,524l5,28 -5,40 -186,-11 -28,-67 2,-2Z"/>
    <path data-fips-int="37111" data-name="McDowell County" d="M1033,507l-8,15 -50,7 -10,-13 -61,10 -45,-31 5,-51 31,-14 24,-40 58,-39 15,-23 8,52 -26,19 43,40Z"/>
    <path data-fips-int="37113" data-name="Macon County" d="M544,759l-141,-2 -13,-5 -49,-71 -31,-2 15,-42 8,-14 85,-7 45,-12 18,47 23,-3 -1,36 28,32 -10,10Z"/>
    <path data-fips-int="37115" data-name="Madison County" d="M782,316l35,75 -40,5 -61,30 -78,24 -27,-53 22,-41 -4,-23 35,6 18,-37 54,-28 6,46Z"/>
    <path data-fips-int="37117" data-name="Martin County" d="M2920,362l-29,74 -51,24 -72,-33 -66,-38 1,-40 -23,-44 27,-33 48,30 3,32 50,-3 12,38 40,-20 18,38 13,-32Z"/>
    <path data-fips-int="37119" data-name="Mecklenburg County" d="M1421,544l8,50 25,26 9,35 44,27 -84,80 -25,14 -35,-49 -40,27 3,-46 8,-53 20,-63 5,-40 15,-12Z"/>
    <path data-fips-int="37121" data-name="Mitchell County" d="M942,262l15,75 20,14 -58,39 -5,-50 -19,-38 -50,-7 -5,-28 -23,6 23,-20 54,-18Z"/>
    <path data-fips-int="37123" data-name="Montgomery County" d="M1802,543l25,118 33,42 -91,-9 -17,10 -67,8 10,-14 -18,-38 18,-54 -48,-60h43Z"/>
    <path data-fips-int="37125" data-name="Moore County" d="M2021,636l-15,18 49,35 -2,8 -55,-18 -21,17 -59,62 -28,-10h-10l-20,-45 -33,-42 -25,-118 80,-1 76,-2v28l32,51Z"/>
    <path data-fips-int="37127" data-name="Nash County" d="M2454,219l33,7 12,19 71,-6 -46,133 -135,65 -23,-40Z"/>
    <path data-fips-int="37131" data-name="Northampton County" d="M2750,191l-33,19 3,18 -35,-17 -21,-53 -40,11 -15,-15 13,-36 -38,-30 -39,2 -53,-12 -1,-17 271,-7 30,14 -12,18Z"/>
    <path data-fips-int="37135" data-name="Orange County" d="M1992,206h38l75,1 -24,173 -86,-5 -5,-35Z"/>
    <path data-fips-int="37137" data-name="Pamlico County" d="M2865,722l-15,-22 5,-30 25,-25 18,16 82,-11 5,-19 3,-25 38,5 5,46 -51,20 34,9 -23,40 -75,50 -53,-34Z"/>
    <path data-fips-int="37139" data-name="Pasquotank County" d="M3083,110l26,13 5,33 53,42 9,26 -40,12 -45,-42 -32,-16 -33,-55 -15,-61Z"/>
    <path data-fips-int="37141" data-name="Pender County" d="M2590,898l45,114 20,13 -83,69 -28,-30 -65,-4 -17,19 -50,-11 -36,-19 26,-26 -26,-22v-23l51,-78Z"/>
    <path data-fips-int="37143" data-name="Perquimans County" d="M3091,194l20,54 -52,-17 27,20 -68,6 -32,-9 -6,-62 8,-50 38,-13 33,55Z"/>
    <path data-fips-int="37145" data-name="Person County" d="M2160,67v141l-55,-1 -75,-1 3,-138Z"/>
    <path data-fips-int="37147" data-name="Pitt County" d="M2702,389l66,38v30l34,50 -4,4 -28,14 -5,47 -25,32 -12,-12 -35,18 -33,-39 -13,-41 -40,-24 -33,-37 15,-12 98,-73Z"/>
    <path data-fips-int="37149" data-name="Polk County" d="M975,684l-118,-8 -28,3 5,-44 33,-48 52,2 46,57Z"/>
    <path data-fips-int="37151" data-name="Randolph County" d="M1885,365v26l-3,151 -80,1 -112,3 7,-191Z"/>
    <path data-fips-int="37153" data-name="Richmond County" d="M1860,703l20,45h10l28,10 -45,27 7,35 -48,48 -90,-1 30,-47 -12,-62 -16,-33 -27,14 -32,-27 67,-8 17,-10Z"/>
    <path data-fips-int="37155" data-name="Robeson County" d="M2130,853l25,53 11,12 -18,54 -5,42 -38,26 -39,59 -148,-151 49,-65 -9,-26 2,-5 60,2 58,-55 30,17Z"/>
    <path data-fips-int="37157" data-name="Rockingham County" d="M1897,69l-9,135v3l-186,-7 3,-131Z"/>
    <path data-fips-int="37159" data-name="Rowan County" d="M1494,401l50,34 28,15 65,62 10,34 -43,1 -165,-3 -13,-77 25,-82Z"/>
    <path data-fips-int="37161" data-name="Rutherford County" d="M1082,505l-5,103 -27,81 -75,-5 -10,-38 -46,-57 -52,-2 -3,-35 15,-23 25,-3 61,-10 10,13 50,-7 8,-15 22,-15Z"/>
    <path data-fips-int="37163" data-name="Sampson County" d="M2351,642l53,44 -2,44 10,88 -16,76 31,6 -51,78 -47,-66 -6,-23 -40,-48 -17,-17 -42,-44 -10,-47 14,-20 6,-51 29,-32 20,24 28,2Z"/>
    <path data-fips-int="37165" data-name="Scotland County" d="M1922,764l36,39 4,32 -2,17 -2,5 9,26 -49,65 -86,-80 48,-48 -7,-35 45,-27Z"/>
    <path data-fips-int="37167" data-name="Stanly County" d="M1685,712l-11,-13 -43,8 -20,-19 -32,14 -40,-1 -15,-8 80,-146 43,-1 48,60 -18,54 18,38Z"/>
    <path data-fips-int="37169" data-name="Stokes County" d="M1705,69l-3,131 -155,-2 5,-133Z"/>
    <path data-fips-int="37171" data-name="Surry County" d="M1552,65l-5,133v9l-31,-20 -42,14 -36,-5 -47,12v-43l-33,-33 -5,-23 30,-51Z"/>
    <path data-fips-int="37173" data-name="Swain County" d="M523,521h-30l-32,17 2,66 -45,12 -85,7 -3,-18 38,-25 3,-28 -104,-9 -32,-8 27,-24 48,-20 101,2 57,-43 32,-13 26,13Z"/>
    <path data-fips-int="37175" data-name="Transylvania County" d="M746,698l-67,33 -11,-8 -85,24 -19,-12 29,-35v-27l20,-15 6,-31 34,-12 31,-47 52,64Z"/>
    <path data-fips-int="37177" data-name="Tyrrell County" d="M3146,432l-18,46 -30,-4 8,-38 -47,-1 -5,-44 20,-33 -6,-32 35,2 -7,-18 42,-15h41l-3,38 23,-8 -18,29 8,85Z"/>
    <path data-fips-int="37179" data-name="Union County" d="M1539,701l40,1 32,-14 -17,175 -181,-3 6,-54 -21,-30 25,-14 84,-80 17,11Z"/>
    <path data-fips-int="37181" data-name="Vance County" d="M2334,64l20,109 -12,18 -26,15 -15,33 -28,-5 -5,-14 -2,-119 18,-31 2,-5Z"/>
    <path data-fips-int="37183" data-name="Wake County" d="M2256,305l45,20 40,37 25,35 -77,53 -91,87 -77,-28 -30,-13 32,-119h27l10,-28 18,5 21,-42 -20,-29 22,-2Z"/>
    <path data-fips-int="37185" data-name="Warren County" d="M2491,61l1,17 -3,58 -35,83 -37,-3 -10,-16 -65,-9 12,-18 -20,-109Z"/>
    <path data-fips-int="37187" data-name="Washington County" d="M3068,326l6,32 -20,33 5,44 -89,-1 -79,2 29,-74 23,-27 58,-10 52,-21Z"/>
    <path data-fips-int="37189" data-name="Watauga County" d="M1167,203l6,17 -31,39 -99,1 -6,-26 -30,-21 -4,-34 42,-29 30,5v-23l35,21 23,34Z"/>
    <path data-fips-int="37191" data-name="Wayne County" d="M2529,507v68l8,25 -8,89 -22,9 -58,-15 -45,3 -53,-44 6,-13 49,-16v-33l33,-77 90,-2Z"/>
    <path data-fips-int="37193" data-name="Wilkes County" d="M1358,132l33,33v43l-3,83 -55,4 -88,8 -24,13 -26,-31 -53,-26 31,-39 -6,-17 24,-19 22,-33 38,-4 34,-30 26,-4 23,31Z"/>
    <path data-fips-int="37195" data-name="Wilson County" d="M2589,457l-15,12 -45,38v-6l-90,2 -25,-10 -25,-56 135,-65 30,17 11,45Z"/>
    <path data-fips-int="37197" data-name="Yadkin County" d="M1547,207l5,48 -26,13 5,28 -73,-2 -70,-3 3,-83 47,-12 36,5 42,-14Z"/>
    <path data-fips-int="37199" data-name="Yancey County" d="M919,390l-24,40 -31,14 -20,-21 -4,-25 -23,-7 -35,-75 35,-43 23,-6 5,28 50,7 19,38Z"/>
    <path data-fips-int="37019" data-name="Brunswick County" d="M2462,1079l30,42 -1,22 8,59 -5,41 -30,32 -136,3 -64,18 -35,-35 5,-3 2,-31 20,-9 15,-51 42,3 19,-31 45,-5 35,-66Z"/>
    <path data-fips-int="37029" data-name="Camden County" d="M3076,41l60,54 25,35 30,3 23,25v45h-23l-42,-43 -23,-4 -17,-33 -26,-13 -72,-48 -20,-18Z"/>
    <path data-fips-int="37031" data-name="Carteret County" d="M3176,747l-58,61 73,-89 15,5ZM3033,876l-25,10 3,-26 -35,12 -30,-11 15,28 -55,-3 -71,23 -47,-37 -3,-9 28,-8 48,-6 29,-17 50,-3 23,-23 2,-32 38,-5 51,-40 2,44 60,-1 -25,41 -28,19Z"/>
    <path data-fips-int="37041" data-name="Chowan County" d="M3018,257l30,8 -37,29 -25,-1 -13,-22 -28,-2 -15,-40 15,-68 43,-25 -8,50 6,62Z"/>
    <path data-fips-int="37053" data-name="Currituck County" d="M3222,36l4,25 -29,1 -8,-26ZM3216,167l-25,-34 -30,-3 -25,-35 -60,-54 101,-3 17,57 57,63 -4,25 29,71ZM3282,180l-13,-7 -17,-80 -13,-9 2,-49 25,104Z"/>
    <path data-fips-int="37055" data-name="Dare County" d="M3400,433l12,36 -8,95 -12,75h-37l-46,21v-3l86,-43 14,-149ZM3317,314l30,37v21l-43,-57ZM3251,455l-7,-14 -42,2 9,-42 -4,-61 35,-22 54,22 18,87 -23,5 16,23 -31,30ZM3282,180l97,197 -17,-11 -10,-42 -26,-26 -10,-38 -19,7Z"/>
    <path data-fips-int="37095" data-name="Hyde County" d="M3059,435l47,1 -8,38 30,4 18,-46 46,21 10,-10 42,-2 7,14 5,28 -37,26 7,14 -44,42 5,15 -56,17 -77,-34 -20,22 -23,-17 -20,-44 43,-3 -10,-27 -33,-20 -21,-40Z"/>
    <path data-fips-int="37129" data-name="New Hanover County" d="M2572,1094h8v2l-51,64 -12,43 -13,-3 -13,-57 1,-22 -30,-42 17,-19 65,4Z"/>
    <path data-fips-int="37133" data-name="Onslow County" d="M2757,811l28,52 3,9 14,35 -74,67 -21,-24 13,-23 -23,-36 -12,21 22,26 -29,9 44,32 -67,46 -20,-13 -45,-114 10,-95 -10,-21h65l50,24 15,-12Z"/>
  </g>
  <path class="mesh" transform="scale(0.1)" d="M3282,180M2792,731l-20,-4 -108,-65 16,-14 -10,-20 23,-18 35,-18 12,12 25,-32 5,-47 28,-14M2802,507l-34,-50v-30l72,33 51,-24 79,-2 21,40 33,20M2943,335l-23,27 -29,-7 -13,32 -18,-38 -40,20 -12,-38 -50,3 -3,-32 -48,-30 35,-18 -22,-26 -3,-18 33,-19 86,2 92,-6M2329,912l47,66v23l26,22 -26,26 -30,16 -42,-4 -85,-41 -63,3 -13,-9 5,-42 18,-54 -11,-12 -25,-53 21,-7 132,-5 40,48 6,23M1690,546l112,-3 25,118 33,42 -91,-9 -17,10 -67,8 10,-14 -18,-38 18,-54 -48,-60 -43,1 -80,146 -17,-11 -44,-27 -9,-35 -25,-26 -8,-50h18l165,3M1218,408l-3,-59 6,-33 24,-13 88,-8 8,40 -13,45 -28,37 -10,-23 -72,14 -12,13M1888,204l9,-135M1300,417l18,32 26,4 24,38 -14,33 -212,-12M2033,68l-3,138h-38l-2,134 5,35 86,5 42,-3 -32,119 30,13 -21,28 -30,-34 -34,-13 -21,31 -47,7 -10,12 -76,2 3,-151M202,611l21,35 49,-14 53,5 -15,42 -48,9 -55,64M310,679l31,2 49,71 13,5M1140,514l28,67 35,39 17,35 -5,44M1050,689l27,-81 5,-103M2376,1049l36,19 -35,66 -45,5 -19,31 -42,-3 -15,51 -20,9 -2,31 -5,3M2066,1099l39,-59 38,-26M2963,806l-23,23 -50,3 -29,17 -48,6 -10,-14 -5,-110M2985,631l-5,19 -82,11 -18,-16 -25,25 -5,30 15,22M2130,853l-22,-37 -30,-17 -22,-44 -3,-58 2,-8 65,-13 45,-21h8l25,2 36,5 -6,51 -14,20 10,47 42,44 17,17M1383,58l-30,51 5,23 -24,12 -23,-31 -26,4 -34,30 -6,-38 -30,-59M1531,296l-5,-28 26,-13 -5,-48v-9l155,2 -5,114v41l-7,191h-43l-10,-34 -65,-62 -28,-15 -7,-39 34,-7 8,-21 -12,-38 69,-11v-13l61,8M1594,863l17,-175 20,19 43,-8 11,13 32,27 27,-14 16,33 12,62 -30,47M1544,435l-50,-34 -43,-16 7,-91 73,2 8,-6 28,40M2081,380l24,-173 55,1v69l19,6 20,29 -21,42 -18,-5 -10,28h-27M2707,272l-27,33 23,44 -1,40 -15,-5 -98,73 -24,-23 -11,-45 -30,-17 46,-133 62,27 2,24 46,15M1168,581l186,11 -20,63 -8,53M2991,44l20,18 15,61 -38,13 -43,25M2848,116l7,-64M235,535l32,8 104,9 -3,28 -38,25 3,18 -8,14M2286,65l-2,5 -18,31 2,119 5,14M2256,305l-55,-24 -22,2M2160,208v-141M1885,365l-188,-10M1702,200l186,7M2570,239l-71,6 -12,-19 -33,-7 -88,178 -25,-35 -40,-37 -45,-20 17,-71 28,5 15,-33 26,-15 65,9 10,16 37,3 35,-83 3,-58 53,12 39,-2 38,30 -13,36 15,15 40,-11 21,53 35,17M2121,509l77,28 31,27 34,66 -29,32M2055,689l-49,-35 15,-18 79,-99M746,698l-10,-66 -52,-64 -31,47 -34,12 -80,-96 -16,-10 3,-71 -26,-13M611,397l27,53M864,552l3,35 -33,48 -5,44M2750,191l30,-105 12,-18 -30,-14M2078,799l-58,55 -60,-2 2,-17 -4,-32 -36,-39 -4,-6 59,-62 21,-17 55,18M1333,295l55,-4 70,3M1451,385l-25,82 13,77M1421,544l-47,-4 -15,12 -5,-28M619,627l-6,31 -20,15v27l-29,35 19,12M544,759l-23,-33 10,-10 -28,-32 1,-36 -23,3 -18,-47 -2,-66 32,-17h30M2198,537l91,-87 77,-53 23,40 25,56 25,10 -33,77v33l-49,16 -6,13 -40,14 -28,-2 -20,-24M1251,147l-38,4 -22,33 -24,19 -34,-16 -23,-34 -35,-21M2813,855l-28,8 -28,-52 -37,-17 -15,12 -50,-24h-65M2569,766l46,-30 35,-47 -8,-34 22,7M2021,636l-31,-17 -32,-51v-28M2529,689l25,14 15,63 21,16 10,21 -10,95 -163,2 -31,-6 16,-76 -10,-88 2,-44 45,-3 58,15 22,-9 8,-89M2660,571l-78,38 -5,-15 -40,6 -8,-25v-68l45,-38 33,37 40,24 13,41 33,39M1359,552l-5,40M1033,507l-8,15 -50,7 -10,-13 -61,10M333,623l85,-7 45,-12M782,316l35,75M2920,362l-29,74M2768,427l-66,-38M1507,682l-84,80 -25,14M919,390l-5,-50 -19,-38 -50,-7 -5,-28 -23,6M1918,758l-28,-10h-10l-20,-45M1802,543l80,-1M2524,372l-135,65M2492,78l-1,-17M2030,206l75,1M3011,62l72,48 26,13M3091,194l-32,-16 -33,-55M2590,898l45,114 20,13M2572,1094l-28,-30 -65,-4 -17,19 -50,-11M2376,978l51,-78M3018,257l-32,-9 -6,-62 8,-50M2574,469l15,-12M867,587l52,2 46,57 10,38M1918,758l-45,27 7,35 -48,48M1042,328l-34,-17 -16,17 -15,23 -20,-14 -15,-75M1918,948l49,-65 -9,-26 2,-5M1702,200l3,-131M2351,642l53,44M1003,179l4,34 30,21 6,26 27,22 -28,46 35,41 41,25 17,22 71,5 -64,91 -2,2 -58,-9 -27,-13 -22,15 -16,-68 -43,-40 26,-19 -8,-52M1611,688l-32,14 -40,-1 -15,-8M1547,198l5,-133M1547,207l-31,-20 -42,14 -36,-5 -47,12v-43l-33,-33M3146,432l-18,46 -30,-4 8,-38 -47,-1 -5,-44 20,-33 -6,-32M2334,64l20,109 -12,18M3059,435l-89,-1M1167,203l6,17 -31,39M2439,503l90,-2v6M1391,208l-3,83M2462,1079l30,42 -1,22M3076,41l60,54 25,35 30,3M2788,872l-3,-9M2880,645l-24,-20 -91,-53M3251,455l-7,-14 -42,2M864,444l-5,51 45,31 -25,3 -15,23 -24,-15 -11,17 -98,10 -17,-11 -30,15 -16,-21 13,-45 -43,-52 78,-24 61,-30 40,-5 23,7 4,25 20,21 31,-14 24,-40 58,-39M1995,375l5,14 -115,2M1885,391v-26M1885,365l3,-158M1888,207v-3M1888,204l104,2M1142,259l53,26 26,31M1043,260l99,-1"/>
  <g class="cities">
    <circle r="3" cx="139.8" cy="67.3"/>
    <text x="139.8" y="67.3">Charlotte</text>
    <circle r="3" cx="222.3" cy="42.1"/>
    <text x="222.3" y="42.1">Raleigh</text>
    <circle r="3" cx="179.2" cy="28.6"/>
    <text x="179.2" y="28.6">Greensboro</text>
  </g>
</svg>