<?xml version="1.0" encoding="utf-8"?>
<!DOCTYPE svg PUBLIC "-//W3C//DTD SVG 1.1//EN" "http://www.w3.org/Graphics/SVG/1.1/DTD/svg11.dtd">
<svg version="1.1" xmlns="http://www.w3.org/2000/svg" width="350" height="134" viewBox="0 0 350 134">
  <defs>
    <pattern id="pattern-no-results" width="50" height="50" patternUnits="userSpaceOnUse">
      <rect width="50" height="50" fill="#ddd"/>
      <path d="M-5,5L5,-5M-5,55L55,-5M45,55L55,45" stroke-width="10" stroke="#666666"/>
    </pattern>
  </defs>
  <g class="counties" transform="scale(0.1)">
    <path data-fips-int="37001" data-name="Alamance County" d="M1991,206l-2,153 6,15 4,15 -113,1 0,-26 0,-91 3,-66 0,-3Z"/>
    <path data-fips-int="37003" data-name="Alexander County" d="M1300,417l-6,-5 -5,-18 -23,3 -8,6 -10,-3 -17,8 -14,0 -3,-14 4,-24 -3,-20 6,-34 23,-13 28,-5 9,6 9,-4 14,-1 3,4 15,-2 10,-6 9,25 -1,18 -13,43 -14,21 0,4Z"/>
    <path data-fips-int="37005" data-name="Alleghany County" d="M1382,58l-7,15 2,4 -17,27 -5,4 10,16 -8,8 -10,10 -12,2 -6,-17 -13,-4 -6,-10 -16,12 -10,-9 -9,16 -24,15 3,-12 -7,-9 -3,-17 -8,-8 -12,-19 0,-5 -9,-13 1,-14 24,0 103,7Z"/>
    <path data-fips-int="37007" data-name="Anson County" d="M1686,713l3,13 17,11 9,2 21,-15 8,2 7,24 11,8 -10,16 13,13 -2,17 9,18 -8,13 -13,9 -4,18 -5,5 -148,-3 7,-74 9,-102 10,-6 10,24 25,3 -4,-5 6,-6 17,1Z"/>
    <path data-fips-int="37009" data-name="Ashe County" d="M1216,50l-1,14 9,13 0,5 12,19 8,8 3,17 7,9 -3,12 -19,-1 -6,-5 -12,10 -6,32 -4,3 -12,-8 -1,7 -15,11 -9,7 -28,-17 -4,2 -8,-14 -18,-22 -34,-20 -4,-10 8,-4 2,-16 7,-4 0,-17 -4,-15 12,-16 0,-8 30,1 27,4Z"/>
    <path data-fips-int="37011" data-name="Avery County" d="M1043,260l12,6 8,13 7,2 -28,48 -23,-7 -11,-11 -16,18 -8,8 4,5 -11,9 -19,-15 -9,-20 5,-17 -9,-21 -3,-16 10,-11 8,3 15,-26 29,-49 8,6 0,14 -6,7 10,18 10,-2 10,12Z"/>
    <path data-fips-int="37013" data-name="Beaufort County" d="M2799,510l18,10 12,13 -12,-6 8,9 18,10 8,18 12,-8 20,10 14,0 12,12 15,3 13,6 8,0 -1,7 -22,18 20,-12 10,0 -4,5 10,0 0,-7 12,5 11,-2 0,19 5,11 -7,19 -80,12 -19,-17 -25,-22 -88,-51 -1,-8 6,-10 -1,-29 18,-16ZM2893,437l76,-3 15,16 -1,11 5,12 12,9 11,2 15,10 8,6 -6,10 -26,4 -4,-4 -14,0 -2,3 -19,-11 1,5 13,7 -17,15 13,-6 9,11 6,3 -3,12 7,13 6,17 -8,0 -23,-8 -3,-8 -6,5 -11,-6 -19,5 -18,-9 -3,-23 -6,19 -28,-4 -27,-10 -25,-24 -18,-10 -8,-4 -12,-15 0,-7 -13,-8 -2,-13 3,-10 -7,-4 5,-18 4,-3 37,21 30,15Z"/>
    <path data-fips-int="37015" data-name="Bertie County" d="M2930,188l-10,15 0,28 11,25 -2,9 10,15 2,14 6,2 1,10 -13,10 -2,14 11,-4 -2,9 -8,4 -3,14 -9,9 -11,-2 -8,-7 -10,2 2,13 -15,18 -10,-3 -2,-21 -7,-13 -6,-1 -25,20 -15,-2 8,-12 -4,-16 -13,-5 -10,5 -38,-5 2,-8 -2,-17 -9,-10 -21,-8 -17,-10 -3,-8 5,-7 17,-5 9,1 4,-6 -7,-2 0,-10 -6,-2 0,-9 -10,-4 -2,-18 17,-5 8,1 7,-15 14,2 74,0 26,-3Z"/>
    <path data-fips-int="37017" data-name="Bladen County" d="M2375,978l-7,8 7,13 7,7 12,3 12,10 -30,30 -31,16 -40,-4 -50,-23 -9,-2 -10,-9 -22,-8 -46,5 -12,-1 -14,-9 10,-12 -4,-3 -1,-26 5,-3 4,-20 4,-8 6,-24 -18,-19 -5,-19 -14,-27 22,-6 16,-2 101,-2 7,3 8,-5 2,8 11,7 8,17 15,15 3,11 26,27 5,13 3,17 15,10Z"/>
    <path data-fips-int="37021" data-name="Buncombe County" d="M865,444l-7,9 5,8 -2,7 8,17 -11,10 15,16 11,3 19,11 -24,4 3,9 -10,18 -5,-3 -25,-16 -14,6 2,12 -19,-7 -22,13 -24,0 2,10 -6,-2 -1,-8 -9,6 -13,-7 -7,2 -17,-9 -11,1 -17,14 -14,-8 -6,-14 6,-14 3,-12 5,-6 -5,-7 5,-5 -11,-14 -7,-14 -11,5 -7,-9 -6,-20 14,-11 15,8 17,-7 4,-5 14,-1 1,-7 10,2 9,-6 47,-22 8,-5 15,3 4,-5 21,-4 18,-1 8,10 0,23 19,12Z"/>
    <path data-fips-int="37023" data-name="Burke County" d="M1042,329l11,7 0,10 10,0 2,7 13,17 26,12 3,9 11,3 17,22 40,-3 1,4 24,9 6,-5 -20,32 -31,39 -14,20 -2,2 -12,2 -10,-6 -19,4 -16,-9 -4,0 -5,-10 -13,-4 -8,8 -9,0 -1,6 -9,2 -16,-67 -43,-41 14,-8 12,-10 4,-16 -2,-16 -10,-20 16,-18 11,11Z"/>
    <path data-fips-int="37025" data-name="Cabarrus County" d="M1604,547l-69,127 -11,14 0,5 -16,-11 -44,-28 -9,-36 -18,-15 -10,-11 5,-6 -12,-35 1,-7 18,0 98,3Z"/>
    <path data-fips-int="37027" data-name="Caldwell County" d="M1141,259l14,10 18,3 5,9 8,-3 12,13 -2,4 18,9 7,12 -6,34 3,20 -4,24 3,14 -11,13 -6,5 -24,-9 -1,-4 -40,3 -17,-22 -11,-3 -3,-9 -26,-12 -13,-17 -2,-7 -10,0 0,-10 -11,-7 28,-48 -7,-2 -8,-13 -12,-6 50,-4 5,2Z"/>
    <path data-fips-int="37033" data-name="Caswell County" d="M2034,68l-4,101 -1,37 -38,0 -102,-2 1,-43 6,-91Z"/>
    <path data-fips-int="37035" data-name="Catawba County" d="M1300,417l17,22 2,10 16,0 8,5 10,13 5,12 10,11 -6,7 3,5 -7,7 -3,15 -153,-8 -61,-4 14,-20 31,-39 20,-32 11,-13 14,0 17,-8 10,3 8,-6 23,-3 5,18Z"/>
    <path data-fips-int="37037" data-name="Chatham County" d="M2082,380l40,-2 0,11 -32,107 31,12 -21,29 -10,-9 -8,-1 -10,-9 -3,-15 -6,-6 -19,-9 -11,4 -14,19 -6,1 1,9 -9,3 2,-7 -8,-2 -8,16 -11,-1 1,-7 -12,6 4,4 -15,7 -77,1 1,-38 3,-75 1,-38 113,-1 -4,-15 63,7Z"/>
    <path data-fips-int="37039" data-name="Cherokee County" d="M324,637l4,6 -14,15 6,3 -8,7 -2,11 -6,-3 -25,9 -13,-1 -21,27 -23,16 3,8 -19,17 -119,-5 16,-109 27,-19 8,12 27,3 11,-3 22,-13 5,-6 6,9 3,18 9,6 12,1 19,-5 19,-10 8,3 12,-3 13,8 17,-7Z"/>
    <path data-fips-int="37043" data-name="Clay County" d="M310,679l30,-2 6,19 8,-3 0,11 12,6 8,15 0,10 8,1 6,10 -2,3 16,8 -51,-1 0,2 -145,-6 19,-17 -3,-8 23,-16 21,-27 13,1 25,-9Z"/>
    <path data-fips-int="37045" data-name="Cleveland County" d="M1139,514l12,8 -2,11 20,48 21,31 16,11 -4,7 4,16 13,8 -4,45 -165,-10 3,-19 23,-62 4,-58 2,-45 16,9 19,-4 10,6Z"/>
    <path data-fips-int="37047" data-name="Columbus County" d="M2376,1049l8,12 10,3 3,7 15,-3 -34,66 -46,6 3,5 -20,25 -15,-5 -13,-7 -8,0 -8,10 -7,13 -2,29 -7,8 -17,8 -5,8 5,10 -9,7 4,7 -4,3 -162,-162 14,-10 4,-14 9,-6 -5,-8 17,-7 -1,-15 7,-9 16,-3 14,-13 14,9 12,1 46,-5 22,8 10,9 9,2 50,23 40,4Z"/>
    <path data-fips-int="37049" data-name="Craven County" d="M2964,806l-2,12 -23,12 -48,3 0,4 -28,5 0,7 -50,5 4,-3 10,-5 0,-7 -23,2 1,-88 -5,-22 21,-2 6,-11 21,25 5,18 15,13 33,16 15,-2 19,12 13,-6 6,-14 8,-1 11,10 -2,10ZM2767,572l88,51 25,22 -5,9 -10,2 -10,14 -5,30 15,9 1,13 -5,14 -8,0 -9,-9 -17,-29 -17,-4 13,7 6,11 -8,15 -9,3 -17,-3 -2,4 -6,7 -10,0 -5,-11 -56,-31 -43,-28 -11,-6 16,-10 2,-6 -9,-16 7,-14 14,-6 15,5 21,-23 10,3 1,7 11,-3 0,-14 14,-5Z"/>
    <path data-fips-int="37051" data-name="Cumberland County" d="M2234,662l-3,20 -8,2 8,13 -4,1 1,13 -7,8 -1,10 -5,4 6,19 4,29 13,14 15,9 10,16 12,9 8,12 -8,5 -7,-3 -101,2 -16,2 -22,6 -10,-14 -1,-13 -10,-10 -30,-18 -6,-18 -14,-21 -1,-18 -4,-16 -5,-6 6,-22 0,-8 36,-10 9,0 37,-9 20,-14 12,-2 14,2 11,-3 8,5Z"/>
    <path data-fips-int="37057" data-name="Davidson County" d="M1699,314l-2,41 0,28 -6,104 -1,59 -43,0 -1,0 -1,-7 -9,-15 0,-14 -9,-7 -9,-14 -12,-4 -6,-14 -7,-3 -3,-22 -17,4 -6,-6 -10,0 -14,-9 3,-12 -8,-6 2,-7 -2,-20 4,7 12,0 2,-10 14,2 0,-10 -10,-6 4,-5 13,3 -1,-33 -8,-8 27,-10 40,0 0,-14 24,0Z"/>
    <path data-fips-int="37059" data-name="Davie County" d="M1568,330l8,8 1,33 -13,-3 -4,5 10,6 0,10 -14,-2 -2,10 -12,0 -4,-7 2,20 -2,7 8,6 -3,12 -4,-11 -11,-7 -3,4 -9,-5 -14,-14 -14,-6 -8,-8 -13,1 -10,-9 -3,6 -3,-1 6,-91 73,2 13,-7 7,15 10,7 -2,12Z"/>
    <path data-fips-int="37061" data-name="Duplin County" d="M2529,689l24,14 8,17 2,39 6,7 20,15 2,0 -2,0 11,26 -7,48 -4,37 2,6 -41,1 -54,0 -23,3 -6,-6 -15,2 -9,1 -15,1 -8,8 -4,-6 -22,-8 19,-75 -3,-32 0,-22 -3,-29 -5,-6 3,-21 -1,-23 34,6 11,-8 9,-1 14,4 2,6 9,2 11,-4 11,12 5,-7Z"/>
    <path data-fips-int="37063" data-name="Durham County" d="M2160,208l0,67 7,9 13,-1 -1,18 12,1 8,10 -7,23 -15,18 -17,-4 -10,29 -28,0 -40,2 5,-47 17,-126Z"/>
    <path data-fips-int="37065" data-name="Edgecombe County" d="M2680,305l-1,2 25,43 -2,39 -14,-5 -8,3 -5,9 -18,3 -16,19 -54,39 -21,-23 -13,-45 -29,-17 18,-55 1,-9 24,-53 3,-16 7,-1 6,9 6,-1 6,10 13,6 24,4 2,9 -5,5 6,11 19,-1 8,4 11,11Z"/>
    <path data-fips-int="37067" data-name="Forsyth County" d="M1702,200l-1,45 -2,69 -40,-8 -24,0 0,14 -40,0 -27,10 -10,-7 2,-12 -10,-7 -7,-15 -13,7 -4,-3 -3,-18 3,-7 16,-4 10,-9 1,-17 -3,-17 4,-6 -6,-8 0,-9Z"/>
    <path data-fips-int="37069" data-name="Franklin County" d="M2455,219l-60,114 -29,64 -8,-20 -12,-14 -17,-7 -2,-10 -14,-3 -14,-18 -44,-20 1,-27 17,-44 27,5 5,-3 12,-30 15,0 10,-15 27,4 17,5 6,-4 16,4 8,16 24,-3Z"/>
    <path data-fips-int="37071" data-name="Gaston County" d="M1356,592l-11,9 4,8 6,-5 13,7 -17,4 -13,21 -5,19 0,19 5,18 -3,12 -10,4 -61,-6 -49,-3 4,-45 -13,-8 -4,-16 4,-7 -16,-11 -21,-31 147,8Z"/>
    <path data-fips-int="37073" data-name="Gates County" d="M2992,45l20,17 1,20 15,41 -40,13 -2,8 -12,6 -14,-2 -15,13 -8,-2 -12,-9 -15,-16 -17,-1 -44,-17 -4,-5 -3,-25 7,-1 4,-15 6,-8 -4,-10 0,-4 33,0Z"/>
    <path data-fips-int="37075" data-name="Graham County" d="M257,536l11,7 21,2 1,-5 11,6 15,-1 32,10 2,-7 12,8 9,-4 1,13 -4,15 -11,13 -22,7 -7,14 6,9 -10,14 -3,-5 -17,7 -13,-8 -12,3 -8,-3 -19,10 -19,5 -12,-1 -9,-6 -3,-18 -6,-9 -2,-27 12,-9 -6,-19 13,-13 15,-9 6,7 8,-8Z"/>
    <path data-fips-int="37077" data-name="Granville County" d="M2281,73l-8,4 -5,10 -2,19 1,98 2,27 4,3 -17,44 -1,27 -50,-23 -25,1 -13,1 -7,-9 0,-67 0,-66 0,-75 100,-1 25,-1Z"/>
    <path data-fips-int="37079" data-name="Greene County" d="M2660,565l0,6 -6,7 -8,-4 -9,10 -19,12 -6,-2 -12,12 -16,2 -7,-14 -29,7 -11,-1 0,-17 -8,-10 0,-66 26,-20 19,-18 7,4 28,35 7,1 11,14 21,6 -2,9Z"/>
    <path data-fips-int="37081" data-name="Guilford County" d="M1889,207l-3,66 0,91 -189,-9 2,-41 2,-69 1,-45 95,4Z"/>
    <path data-fips-int="37083" data-name="Halifax County" d="M2720,228l10,4 0,9 6,2 0,10 7,2 -4,6 -9,-1 -17,5 -5,7 -28,33 -7,0 -11,-11 -8,-4 -19,1 -6,-11 5,-5 -2,-9 -24,-4 -13,-6 -6,-10 -6,1 -6,-9 -7,1 -8,9 -7,-9 -26,8 -22,-5 -8,3 -5,-9 -8,-1 2,-6 -18,-7 -4,9 -11,-12 23,-47 10,-35 -1,-45 5,-14 15,0 18,3 13,7 12,1 12,-3 25,4 6,14 16,11 12,2 2,21 -10,7 -4,9 13,14 21,-2 19,-8 11,14 3,15 12,9 -4,12 13,10 8,0Z"/>
    <path data-fips-int="37085" data-name="Harnett County" d="M2198,537l8,8 10,2 4,12 9,5 10,18 3,10 7,4 4,12 13,12 -4,10 -16,9 0,11 -12,12 -33,-4 -8,-5 -11,3 -14,-2 -12,2 -20,14 -37,9 -9,0 -36,10 -21,-10 0,-7 -26,-18 14,-18 79,-99 21,-29Z"/>
    <path data-fips-int="37087" data-name="Haywood County" d="M638,450l6,20 7,9 11,-5 7,14 11,14 -5,5 5,7 -5,6 -3,12 -6,14 6,14 14,8 0,8 -16,11 -8,15 -10,14 -16,1 -18,10 -10,-7 -10,-21 -7,-11 -17,-10 0,-9 -13,-9 0,-7 -10,-7 -11,-1 0,-12 -17,-12 11,-17 -3,-12 -7,-9 3,-16 -8,-8 8,-10 -12,-10 -15,-2 0,-10 5,-4 21,-1 11,-16 22,-3 10,-7 14,2 13,7 14,-8 4,7 -3,13 3,4 10,-3 6,9 2,19Z"/>
    <path data-fips-int="37089" data-name="Henderson County" d="M867,553l-6,11 3,20 3,3 -17,28 -2,8 -14,13 -4,43 -7,5 -6,-16 -14,10 -6,12 -5,-6 -12,1 -19,9 -15,4 -5,-8 -5,-26 0,-19 -4,0 3,-13 -3,-8 -46,-56 17,-14 11,-1 17,9 7,-2 13,7 9,-6 1,8 6,2 -2,-10 24,0 22,-13 19,7 -2,-12 14,-6Z"/>
    <path data-fips-int="37091" data-name="Hertford County" d="M2855,52l4,10 -6,8 -4,15 -7,1 3,25 4,5 40,18 19,1 14,16 15,13 2,10 -9,14 -66,2 -26,3 -74,0 -14,-2 8,-24 19,-64 -3,-8 5,-9 10,1 10,-5 -10,-16 -12,0 -15,-13Z"/>
    <path data-fips-int="37093" data-name="Hoke County" d="M2004,681l7,7 14,1 12,11 17,-3 -6,22 5,6 4,16 1,18 14,21 6,18 -58,56 -59,-2 1,-16 -7,-39 -14,-17 -17,-12 -6,-10 47,-55 16,-12Z"/>
    <path data-fips-int="37097" data-name="Iredell County" d="M1387,291l70,3 -6,91 -24,82 12,69 0,8 -18,0 -48,-4 -13,12 -7,-7 5,-15 -3,-6 3,-15 7,-7 -3,-5 6,-7 -10,-11 -5,-12 -10,-13 -8,-5 -16,0 -2,-10 -17,-22 13,-11 0,-4 14,-21 13,-43 1,-18 -9,-25 20,-5Z"/>
    <path data-fips-int="37099" data-name="Jackson County" d="M523,521l17,12 0,12 11,1 10,7 0,7 13,9 0,9 17,10 7,11 10,21 10,7 1,9 -7,21 -9,5 -1,6 -10,7 2,8 -1,17 -20,21 -8,14 17,12 -38,11 -7,-7 -7,-18 -9,-3 10,-15 -12,-8 -4,-13 -12,-10 4,-29 -3,-7 -20,4 -6,-3 -1,-10 -7,-5 2,-7 -10,-23 3,-10 -2,-21 -8,-7 4,-25 6,-3 7,4 13,-14 19,-12Z"/>
    <path data-fips-int="37101" data-name="Johnston County" d="M2390,437l11,8 0,8 14,42 23,8 -32,77 4,14 -6,11 3,7 -24,5 -11,9 -6,-2 -9,5 -6,13 -40,14 -30,-3 -19,-23 4,-10 -13,-12 -4,-12 -7,-4 -3,-10 -10,-18 -9,-5 -4,-12 -10,-2 -8,-8 66,-64 24,-24 2,1 35,-24 41,-29 4,12 -2,9 13,17Z"/>
    <path data-fips-int="37103" data-name="Jones County" d="M2793,731l7,0 5,22 -1,88 23,-2 0,7 -10,5 -4,3 -28,5 0,4 -11,-7 0,-15 -8,-8 -1,-13 -14,-10 -7,-10 -24,-6 -13,7 -1,5 -52,-24 -50,-6 -13,5 -2,0 -20,-15 48,-30 33,-47 -7,-33 19,6 11,6 43,28 56,31 5,11 10,0Z"/>
    <path data-fips-int="37105" data-name="Lee County" d="M2100,537l-79,99 -34,-20 -6,-23 -15,-10 1,-5 -12,-16 8,-14 -5,-8 15,-7 -4,-4 12,-6 -1,7 11,1 8,-16 8,2 -2,7 9,-3 -1,-9 6,-1 14,-19 11,-4 19,9 6,6 3,15 10,9 8,1Z"/>
    <path data-fips-int="37107" data-name="Lenoir County" d="M2692,610l-14,6 -7,14 9,16 -2,6 -16,10 -19,-6 7,33 -33,47 -48,30 -6,-7 -2,-39 -8,-17 -24,-14 2,-77 6,-12 11,1 29,-7 7,14 16,-2 12,-12 6,2 19,-12 9,-10 8,4 6,-7 5,13 6,3 0,9 7,2 2,8 6,-2Z"/>
    <path data-fips-int="37109" data-name="Lincoln County" d="M1355,524l3,6 -5,15 7,7 0,14 -5,13 1,13 -40,-3 -147,-8 -20,-48 2,-11 -12,-8 2,-2 61,4Z"/>
    <path data-fips-int="37111" data-name="McDowell County" d="M1033,507l-7,15 -50,7 -10,-13 -7,6 -19,0 -30,9 -7,-6 -19,-11 -11,-3 -15,-16 11,-10 -8,-17 2,-7 -5,-8 7,-9 7,2 6,-6 18,-10 14,-20 -4,-2 14,-18 12,-12 20,-1 10,-14 9,5 6,-4 0,-13 11,-9 -4,-5 8,-8 10,20 2,16 -4,16 -12,10 -14,8 43,41Z"/>
    <path data-fips-int="37113" data-name="Macon County" d="M544,758l-142,-1 -16,-8 2,-3 -6,-10 -8,-1 0,-10 -8,-15 -12,-6 0,-11 -8,3 -6,-19 -30,2 2,-11 8,-7 -6,-3 14,-15 -4,-6 10,-14 4,-2 66,-5 10,1 15,-12 33,-1 10,23 -2,7 7,5 1,10 6,3 20,-4 3,7 -4,29 12,10 4,13 12,8 -10,15 9,3 7,18Z"/>
    <path data-fips-int="37115" data-name="Madison County" d="M783,316l9,14 -7,9 1,8 15,5 13,19 3,19 -21,4 -4,5 -15,-3 -8,5 -47,22 -9,6 -10,-2 -1,7 -14,1 -4,5 -17,7 -15,-8 -14,11 -6,-4 -2,-19 -6,-9 -10,3 -3,-4 3,-13 -4,-7 12,-21 6,-2 -2,-12 8,-2 -4,-24 6,-9 18,-2 10,13 18,-20 -3,-10 43,-28 12,-6 17,16 -8,17 0,13 12,1 8,5 2,-4Z"/>
    <path data-fips-int="37117" data-name="Martin County" d="M2922,362l-8,4 0,14 -8,10 5,8 -18,31 0,8 -53,23 -30,-15 -37,-21 -4,3 -15,-11 -14,-1 -6,-6 5,-5 -37,-15 2,-39 -25,-43 1,-2 28,-33 3,8 17,10 21,8 9,10 2,17 -2,8 38,5 10,-5 13,5 4,16 -8,12 15,2 25,-20 6,1 7,13 2,21 10,3 15,-18 -2,-13 10,-2 8,7Z"/>
    <path data-fips-int="37119" data-name="Mecklenburg County" d="M1421,544l-1,7 12,35 -5,6 10,11 18,15 9,36 44,28 -58,56 -26,23 -13,3 -12,12 -36,-49 -41,28 -8,-8 1,-9 10,-14 -6,-11 6,-5 10,-4 3,-12 -5,-18 0,-19 5,-19 13,-21 17,-4 -13,-7 -6,5 -4,-8 11,-9 -1,-13 5,-13 0,-14 13,-12Z"/>
    <path data-fips-int="37121" data-name="Mitchell County" d="M942,262l3,16 9,21 -5,17 9,20 19,15 0,13 -6,4 -9,-5 -10,14 -20,1 -12,12 -6,-7 2,-42 -10,1 -10,-10 2,-29 -21,2 2,7 -10,-6 2,-6 -12,-11 -3,7 -10,-1 -4,-27 -10,5 -9,-5 -6,5 2,-4 22,-15 6,0 18,-8 8,4 9,-4 11,-11 11,7 14,-2 6,21Z"/>
    <path data-fips-int="37123" data-name="Montgomery County" d="M1801,543l23,96 -2,12 6,12 9,3 5,21 18,16 -11,3 -11,-8 -29,1 -39,-5 -18,10 -17,-1 -28,10 -21,0 9,-14 -10,-25 -6,-6 0,-23 6,-7 5,-25 5,-6 -16,-14 0,-16 -16,-17 -14,-5 -2,-9 -1,0 1,0 43,0 63,-2Z"/>
    <path data-fips-int="37125" data-name="Moore County" d="M2021,636l-14,18 26,18 0,7 21,10 0,8 -17,3 -12,-11 -14,-1 -7,-7 -23,10 -16,12 -47,55 -15,-9 -26,-1 -5,-11 2,-16 -14,-18 -18,-16 -5,-21 -9,-3 -6,-12 2,-12 -23,-96 80,-2 77,-1 5,8 -8,14 12,16 -1,5 15,10 6,23Z"/>
    <path data-fips-int="37127" data-name="Nash County" d="M2455,219l11,12 4,-9 18,7 -2,6 8,1 5,9 8,-3 22,5 26,-8 7,9 8,-9 -3,16 -24,53 -1,9 -18,55 -6,13 -11,-5 -8,3 -41,21 -68,33 -9,-2 -13,-17 2,-9 -4,-12 29,-64Z"/>
    <path data-fips-int="37131" data-name="Northampton County" d="M2750,191l-7,15 -8,-1 -17,5 2,18 -15,-10 -8,0 -13,-10 4,-12 -12,-9 -3,-15 -11,-14 -19,8 -21,2 -13,-14 4,-9 10,-7 -2,-21 -12,-2 -16,-11 -6,-14 -25,-4 -12,3 -12,-1 -13,-7 -18,-3 -15,0 -1,-17 56,-2 52,-1 149,-3 14,-2 15,13 12,0 10,16 -10,5 -10,-1 -5,9 3,8 -19,64Z"/>
    <path data-fips-int="37135" data-name="Orange County" d="M2029,206l75,1 -17,126 -5,47 -24,1 -63,-7 -6,-15 2,-153Z"/>
    <path data-fips-int="37137" data-name="Pamlico County" d="M2866,722l-1,-13 -15,-9 5,-30 10,-14 10,-2 5,-9 19,17 80,-12 7,-19 0,-23 21,-1 7,6 14,-1 0,17 11,-2 -7,14 -11,6 9,10 -15,-7 -17,-3 24,17 -2,8 -22,-8 -13,1 7,5 -10,8 -11,-8 -9,16 -14,7 10,3 14,-14 22,5 9,-9 8,11 -6,23 -13,-2 4,8 -6,9 -11,4 -13,14 -10,4 -4,8 -15,5 -7,9 -12,5 -17,-13 -12,-4 -8,-10 -13,-3 7,-11 -12,6Z"/>
    <path data-fips-int="37139" data-name="Pasquotank County" d="M3057,93l5,6 14,0 7,11 4,6 13,2 1,9 9,-4 2,10 6,11 7,-1 -8,13 10,5 6,10 15,6 7,17 12,5 11,21 -15,10 -5,-5 -19,10 -16,-5 -17,-22 -6,-1 -7,-12 -12,-10 -22,-8 -2,-6 -25,-40 -4,-8 -15,-41 -1,-20 20,19Z"/>
    <path data-fips-int="37141" data-name="Pender County" d="M2591,898l26,65 14,40 5,9 6,-1 12,14 -26,22 -22,23 6,-10 -13,9 1,5 -15,18 -12,2 -28,-28 2,-9 -7,-5 -13,3 -9,7 -7,-5 -10,8 -14,-6 -9,6 -2,11 -14,3 -18,-3 2,-3 -19,-10 -15,5 -15,3 -3,-7 -10,-3 -8,-12 30,-30 -12,-10 -12,-3 -7,-7 -7,-13 7,-8 37,-58 16,-14 0,-6 15,-1 9,-1 15,-2 6,6 23,-3 54,0Z"/>
    <path data-fips-int="37143" data-name="Perquimans County" d="M3093,195l4,16 15,15 4,10 13,8 -8,5 -14,-3 -22,-9 -4,-5 -20,-1 -8,-12 -15,-10 -10,0 9,12 14,8 10,12 11,-1 2,5 13,4 -7,6 -19,1 -19,4 -18,-7 -5,4 -10,-4 -17,-2 -4,-5 -9,-58 9,-17 0,-35 40,-13 4,8 25,40 2,6 22,8Z"/>
    <path data-fips-int="37145" data-name="Person County" d="M2160,67l0,75 0,66 -56,-1 -75,-1 1,-37 4,-101Z"/>
    <path data-fips-int="37147" data-name="Pitt County" d="M2702,389l37,15 -5,5 6,6 14,1 15,11 -5,18 7,4 -3,10 2,13 13,8 0,7 12,15 8,4 -4,4 -10,-1 -18,16 1,29 -6,10 1,8 -3,8 -14,5 0,14 -11,3 -1,-7 -10,-3 -21,23 -15,-5 -6,-6 -6,2 -2,-8 -7,-2 0,-9 -6,-3 -5,-13 0,-6 -14,-27 2,-9 -21,-6 -11,-14 -7,-1 -28,-35 -7,-4 13,-12 54,-39 16,-19 18,-3 5,-9 8,-3Z"/>
    <path data-fips-int="37149" data-name="Polk County" d="M974,684l-97,-6 -20,-3 -12,5 -15,-1 4,-43 14,-13 2,-8 17,-28 9,-4 20,3 12,-5 17,13 22,28 17,18 2,6 10,6Z"/>
    <path data-fips-int="37151" data-name="Randolph County" d="M1886,364l0,26 -1,38 -3,75 -1,38 -80,2 -48,1 -63,2 1,-59 6,-104 0,-28Z"/>
    <path data-fips-int="37153" data-name="Richmond County" d="M1860,703l14,18 -2,16 5,11 26,1 15,9 -20,8 -23,16 -4,18 9,19 -25,27 4,7 -27,15 -90,-1 5,-5 4,-18 13,-9 8,-13 -9,-18 2,-17 -13,-13 10,-16 -11,-8 -7,-24 -8,-2 -21,15 -9,-2 -17,-11 -3,-13 21,0 28,-10 17,1 18,-10 39,5 29,-1 11,8Z"/>
    <path data-fips-int="37155" data-name="Robeson County" d="M2129,853l14,27 5,19 18,19 -6,24 -4,8 -4,20 -5,3 1,26 4,3 -10,12 -14,13 -16,3 -7,9 1,15 -17,7 5,8 -9,6 -4,14 -14,10 -149,-151 49,-65 -10,-23 4,-8 59,2 58,-56 30,18 10,10 1,13Z"/>
    <path data-fips-int="37157" data-name="Rockingham County" d="M1896,70l-6,91 -1,43 0,3 -92,-3 -95,-4 3,-131 141,0Z"/>
    <path data-fips-int="37159" data-name="Rowan County" d="M1543,435l14,9 10,0 6,6 17,-4 3,22 7,3 6,14 12,4 9,14 9,7 0,14 9,15 1,7 -42,1 -67,0 -98,-3 0,-8 -12,-69 24,-82 3,1 3,-6 10,9 13,-1 8,8 14,6 14,14 9,5 3,-4 11,7Z"/>
    <path data-fips-int="37161" data-name="Rutherford County" d="M1078,505l4,0 -2,45 -4,58 -23,62 -3,19 -76,-5 2,-32 -10,-6 -2,-6 -17,-18 -22,-28 -17,-13 -12,5 -20,-3 -9,4 -3,-3 -3,-20 6,-11 5,3 10,-18 -3,-9 24,-4 7,6 30,-9 19,0 7,-6 10,13 50,-7 7,-15 9,-2 1,-6 9,0 8,-8 13,4Z"/>
    <path data-fips-int="37163" data-name="Sampson County" d="M2351,642l22,27 32,10 -1,7 1,23 -3,21 5,6 3,29 0,22 3,32 -19,75 22,8 4,6 8,-8 0,6 -16,14 -37,58 -4,-12 -15,-10 -3,-17 -5,-13 -26,-27 -3,-11 -15,-15 -8,-17 -11,-7 -2,-8 -8,-12 -12,-9 -10,-16 -15,-9 -13,-14 -4,-29 -6,-19 5,-4 1,-10 7,-8 -1,-13 4,-1 -8,-13 8,-2 3,-20 12,-12 0,-11 16,-9 19,23 30,3Z"/>
    <path data-fips-int="37165" data-name="Scotland County" d="M1962,836l-1,16 -4,8 10,23 -49,65 -81,-80 -5,0 27,-15 -4,-7 25,-27 -9,-19 4,-18 23,-16 20,-8 6,10 17,12 14,17Z"/>
    <path data-fips-int="37167" data-name="Stanly County" d="M1647,546l2,9 14,5 16,17 0,16 16,14 -5,6 -5,25 -6,7 0,23 6,6 10,25 -9,14 -12,-14 -17,-1 -6,6 4,5 -25,-3 -10,-24 -10,6 -10,6 -20,8 -4,-6 -8,6 -18,2 -26,-11 0,-5 11,-14 69,-127 42,-1Z"/>
    <path data-fips-int="37169" data-name="Stokes County" d="M1705,69l-3,131 -154,-2 2,-80 3,-53 53,3Z"/>
    <path data-fips-int="37171" data-name="Surry County" d="M1553,65l-3,53 -2,80 0,9 -5,-8 -25,1 -2,-11 -7,-2 -15,7 -12,-8 -8,16 -10,0 -4,-7 -25,1 -8,-3 -2,8 -11,0 -23,7 2,-41 -10,-8 -3,-9 -10,-2 -3,-9 -10,-7 8,-8 -10,-16 5,-4 17,-27 -2,-4 7,-15 25,2 38,-2Z"/>
    <path data-fips-int="37173" data-name="Swain County" d="M523,521l-19,-5 -19,12 -13,14 -7,-4 -6,3 -4,25 8,7 2,21 -3,10 -33,1 -15,12 -10,-1 -66,5 -4,2 -6,-9 7,-14 22,-7 11,-13 4,-15 -1,-13 -9,4 -12,-8 -2,7 -32,-10 -15,1 -11,-6 -1,5 -21,-2 -11,-7 -8,-2 -8,8 -6,-7 16,-6 11,-19 22,-2 17,-11 3,-5 18,0 6,-3 30,2 9,-5 6,8 33,1 21,-22 9,1 24,-16 9,-8 9,5 22,-18 15,2 12,10 -8,10 8,8 -3,16 7,9 3,12Z"/>
    <path data-fips-int="37175" data-name="Transylvania County" d="M746,698l-14,2 -16,9 -8,-4 -4,9 -15,6 -12,12 -9,1 -1,-10 -85,24 -17,-12 8,-14 20,-21 1,-17 -2,-8 10,-7 1,-6 9,-5 7,-21 -1,-9 18,-10 16,-1 10,-14 8,-15 16,-11 0,-8 46,56 3,8 -3,13 4,0 0,19 5,26Z"/>
    <path data-fips-int="37177" data-name="Tyrrell County" d="M3148,432l-12,28 -1,8 -8,10 -4,-1 -25,-3 9,-38 -47,-1 -5,-43 18,-33 -11,-24 5,-8 6,-5 24,1 -10,-5 15,-11 38,-12 13,2 27,-1 18,14 -6,7 -12,-6 -3,16 -16,-13 4,6 15,14 8,-11 10,4 -10,15 0,9 -6,3 -15,-3 15,8 0,13 5,8 0,15 -11,3 -9,-15 -6,9 17,11 7,-5 4,9 -4,14 8,8 -5,11 -23,-2 0,-5 -10,-4Z"/>
    <path data-fips-int="37179" data-name="Union County" d="M1610,688l-9,102 -7,74 -181,-4 7,-53 -21,-31 12,-12 13,-3 26,-23 58,-56 16,11 26,11 18,-2 8,-6 4,6 20,-8Z"/>
    <path data-fips-int="37181" data-name="Vance County" d="M2334,64l20,109 -12,18 -10,15 -15,0 -12,30 -5,3 -27,-5 -4,-3 -2,-27 -1,-98 2,-19 5,-10 8,-4 4,-8Z"/>
    <path data-fips-int="37183" data-name="Wake County" d="M2255,305l44,20 14,18 14,3 2,10 17,7 12,14 8,20 -41,29 -35,24 -2,-1 -24,24 -66,64 -77,-29 -31,-12 32,-107 0,-11 28,0 10,-29 17,4 15,-18 7,-23 -8,-10 -12,-1 1,-18 25,-1Z"/>
    <path data-fips-int="37185" data-name="Warren County" d="M2491,61l1,17 -5,14 1,45 -10,35 -23,47 -15,-6 -24,3 -8,-16 -16,-4 -6,4 -17,-5 -27,-4 12,-18 -20,-109 71,-1Z"/>
    <path data-fips-int="37187" data-name="Washington County" d="M3067,327l-5,8 11,24 -18,33 5,43 -47,-2 -44,1 -76,3 0,-8 18,-31 -5,-8 8,-10 0,-14 8,-4 9,-9 3,-14 8,-4 4,-9 10,4 40,-5 17,-5 31,-14 11,-2 5,4Z"/>
    <path data-fips-int="37189" data-name="Watauga County" d="M1167,203l6,17 -15,28 -17,11 -43,-1 -5,-2 -50,4 -7,-26 -10,-12 -10,2 -10,-18 6,-7 0,-14 -8,-6 24,-23 22,-10 11,10 12,-1 10,3 -6,-9 -2,-17 34,20 18,22 8,14 4,-2Z"/>
    <path data-fips-int="37191" data-name="Wayne County" d="M2529,507l0,66 8,10 0,17 -6,12 -2,77 -19,7 -5,7 -11,-12 -11,4 -9,-2 -2,-6 -14,-4 -9,1 -11,8 -34,-6 1,-7 -32,-10 -22,-27 6,-13 9,-5 6,2 11,-9 24,-5 -3,-7 6,-11 -4,-14 32,-77 3,-6 23,5 65,-1Z"/>
    <path data-fips-int="37193" data-name="Wilkes County" d="M1357,132l10,7 3,9 10,2 3,9 10,8 -2,41 -4,83 -35,-1 -20,5 -10,6 -15,2 -3,-4 -14,1 -9,4 -9,-6 -28,5 -23,13 -7,-12 -18,-9 2,-4 -12,-13 -8,3 -5,-9 -18,-3 -14,-10 17,-11 15,-28 -6,-17 9,-7 15,-11 1,-7 12,8 4,-3 6,-32 12,-10 6,5 19,1 24,-15 9,-16 10,9 16,-12 6,10 13,4 6,17 12,-2Z"/>
    <path data-fips-int="37195" data-name="Wilson County" d="M2587,457l-13,12 -19,18 -26,20 0,-6 -65,1 -23,-5 -3,6 -23,-8 -14,-42 0,-8 -11,-8 68,-33 41,-21 8,-3 11,5 6,-13 29,17 13,45Z"/>
    <path data-fips-int="37197" data-name="Yadkin County" d="M1548,207l6,8 -4,6 3,17 -1,17 -10,9 -16,4 -3,7 3,18 4,3 -73,-2 -70,-3 4,-83 23,-7 11,0 2,-8 8,3 25,-1 4,7 10,0 8,-16 12,8 15,-7 7,2 2,11 25,-1Z"/>
    <path data-fips-int="37199" data-name="Yancey County" d="M859,289l12,11 -2,6 10,6 -2,-7 21,-2 -2,29 10,10 10,-1 -2,42 6,7 -14,18 4,2 -14,20 -18,10 -6,6 -7,-2 -3,-10 -19,-12 0,-23 -8,-10 -18,1 -3,-19 -13,-19 -15,-5 -1,-8 7,-9 -9,-14 17,-13 17,-30 6,-5 9,5 10,-5 4,27 10,1Z"/>
    <path data-fips-int="37019" data-name="Brunswick County" d="M2303,1289l-31,13 -7,-6 6,-4 60,-14ZM2493,1270l4,4 -4,30 -16,-6 -3,-6 7,-12 13,-1ZM2462,1079l2,6 8,0 -4,13 10,4 8,18 7,2 -2,20 -5,13 9,24 4,16 -6,30 1,18 -5,1 -9,19 -12,8 1,12 -20,-6 -39,-5 -20,1 2,-5 -14,5 -34,4 -4,-2 -3,-18 -2,16 -7,5 -56,13 -8,5 -35,-35 4,-3 -4,-7 9,-7 -5,-10 5,-8 17,-8 7,-8 2,-29 7,-13 8,-10 8,0 13,7 15,5 20,-25 -3,-5 46,-6 34,-66 15,-5 19,10 -2,3Z"/>
    <path data-fips-int="37029" data-name="Camden County" d="M3077,41l59,55 1,14 16,17 20,4 4,-6 14,8 5,17 10,-1 2,9 8,5 -7,5 9,18 -2,16 14,7 -2,5 -26,-6 -9,-4 -10,-10 -5,-11 -9,-1 -10,-15 -9,-6 -25,-4 -2,-9 6,-4 -12,-2 -7,-19 -9,4 -1,-9 -13,-2 -4,-6 -7,-11 -14,0 -5,-6 -25,-12 -20,-19 -20,-17Z"/>
    <path data-fips-int="37031" data-name="Carteret County" d="M3000,909l4,-2 12,10 12,5 -2,5 -6,-7 -18,-9 -20,-5 -7,-6ZM3007,889l21,13 -21,-6ZM2950,896l12,-5 8,9 -33,-1 -27,3 -64,14 -32,12 -6,-5 32,-10 43,-6 23,-6 6,-3 22,-1 5,-7ZM3093,836l-12,14 -34,50 -19,36 -4,9 -6,-11 10,0 15,-38 8,-5 0,-7 8,-6 2,-14 6,4 7,-18 1,5 22,-28ZM3178,747l-25,25 -24,27 -8,4 20,-21 6,-10 16,-15 4,-9 17,-17 7,-12 15,3ZM2789,872l-4,-9 0,-4 28,-5 50,-5 0,-7 28,-5 0,-4 48,-3 23,-12 2,-12 9,-7 6,-11 -13,-10 0,-6 18,-8 14,4 4,13 11,7 7,15 8,4 -10,-14 -4,-11 -12,-13 3,-9 21,-5 4,11 6,-2 -2,11 8,-12 -8,-10 7,-5 -7,-3 5,-8 8,9 1,-13 -8,-4 5,-8 10,8 2,13 -4,7 7,6 -3,18 -7,-1 -3,10 6,2 16,-11 3,12 10,-11 -5,-9 18,3 4,-3 -10,-21 10,8 18,20 -7,17 -15,-5 -8,7 8,0 -4,6 13,0 -13,16 -7,0 -10,7 0,-12 -6,3 0,16 -15,16 -8,21 -7,-6 8,-6 -4,-4 -10,7 4,11 -6,3 4,13 -13,4 -13,-1 -5,-16 8,-9 -10,3 -7,-16 -4,-3 2,26 -6,16 6,6 -8,5 -15,-5 6,-2 -3,-8 5,-8 -11,-16 -2,6 -14,-4 -9,5 3,9 8,-5 10,5 -10,12 10,-2 0,5 -54,-4 -19,3 -30,8 -18,10 -14,0 -13,8 1,-17 -10,-10 -8,-16Z"/>
    <path data-fips-int="37041" data-name="Chowan County" d="M3019,257l4,-2 11,8 15,1 -15,14 -2,7 -21,9 -23,-1 -9,-10 -6,-12 -9,11 -14,-3 -6,-11 2,-19 -6,0 -9,-19 4,-33 14,-23 -4,-13 15,-13 14,2 12,-6 2,-8 0,35 -9,17 9,58 4,5 17,2Z"/>
    <path data-fips-int="37053" data-name="Currituck County" d="M3254,138l8,4 -2,11ZM3222,36l4,5 0,21 -4,5 -13,-6 -6,6 -6,-5 6,-14 -8,-1 -7,-10ZM3216,167l2,-9 -9,-4 -3,-9 -9,0 -6,-12 -14,-8 -4,6 -20,-4 -16,-17 -1,-14 -59,-55 103,-3 4,15 -13,5 -4,-5 -4,9 16,-1 12,25 11,4 -7,4 1,7 21,22 -3,-13 8,0 -6,-9 6,-7 4,18 -4,10 12,18 7,18 10,1 -6,12 4,12 9,13 6,24 11,15 4,16 -3,3 -18,-12 -9,-13 1,-15 -5,-10 -13,-12 -4,-15ZM3282,180l-1,1 -8,-2 -4,-8 1,-11 -6,-6 -2,-25 -6,-19 -3,-17 -13,-11 5,-3 -7,-11 0,-21 -8,-8 11,-4 5,24 8,25 14,55Z"/>
    <path data-fips-int="37055" data-name="Dare County" d="M3401,433l-12,-21 1,-9 -9,-16 4,1 8,15 8,23 11,46 -7,60 0,27 -6,37 -2,27 -4,17 -15,-5 -33,8 -35,17 0,-3 13,-5 13,-15 4,6 13,-4 14,-15 28,-7 2,-39 6,-13 2,-52 -2,-13 4,-3 2,-22 -2,-19 -8,-21ZM3317,315l11,4 0,12 8,-5 12,25 0,16 -16,-2 -1,-20 -25,-25 0,-4ZM3251,454l-6,-13 -42,1 3,-4 1,-20 4,-10 1,-20 -4,-12 6,-13 -5,-11 0,-11 19,-18 5,1 8,14 15,7 -19,-19 6,-8 31,5 -17,-11 -1,-13 19,9 15,19 8,29 6,5 2,14 -4,15 7,16 5,21 -6,6 -2,-7 -12,-5 -4,9 4,10 12,9 2,9 -6,9 -12,7 4,6 -24,5 10,-7 -7,-3 -9,4 -7,-13 1,-7ZM3252,300l0,7 -11,3 -8,8 -11,-10 15,-8ZM3319,281l-5,7 -10,-4 0,-9ZM3281,181l1,-1 26,61 22,34 37,74 13,30 -17,-13 4,-4 -10,-8 -9,-19 5,-9 -17,-24 -9,-4 -6,-11 0,-9 -8,-20 -13,9 -6,-45Z"/>
    <path data-fips-int="37095" data-name="Hyde County" d="M3252,689l-22,15 -11,15 -5,-1 10,-12 2,-12 8,2 32,-19 32,-16 4,2 -18,8ZM3060,435l47,1 -9,38 25,3 4,1 8,-10 1,-8 12,-28 7,-2 14,15 14,1 3,-4 7,11 7,-3 3,-8 42,-1 6,13 -2,18 6,11 -14,6 0,10 -9,3 -6,10 -11,4 11,6 -10,4 -5,17 -6,4 3,7 -7,7 -3,-9 -13,14 -1,1 7,8 -13,10 -15,1 -7,13 -10,-6 -15,4 -2,-9 -13,-7 3,12 -5,4 -21,-14 -9,-17 -5,14 6,13 -15,-4 -4,4 -11,-4 4,-6 20,5 -1,-7 -14,-11 6,1 -4,-13 -9,-8 -2,13 -12,11 -11,-2 6,13 -10,-3 -5,-11 -3,5 -9,-8 6,-10 -17,-7 7,-8 -6,-11 -9,-8 36,1 6,-4 4,-19 -6,-9 -6,1 -15,-10 -11,-2 -12,-9 -5,-12 1,-11 -15,-16 44,-1Z"/>
    <path data-fips-int="37129" data-name="New Hanover County" d="M2501,1264l0,-2 -3,-12 9,-7 0,-36 16,-8 -14,44ZM2522,1193l9,-34 4,-6 12,-6 -9,12 -13,34ZM2573,1094l8,0 2,1 -7,6 -31,42 -5,0 -10,15 -13,45 -10,4 -2,-7 -1,-27 -8,-7 1,-9 -6,-15 2,-20 -7,-2 -8,-18 -10,-4 4,-13 -8,0 -2,-6 14,-3 2,-11 9,-6 14,6 10,-8 7,5 9,-7 13,-3 7,5 -2,9Z"/>
    <path data-fips-int="37133" data-name="Onslow County" d="M2758,952l2,1 -38,29 -4,-10 12,3 14,-9ZM2774,841l0,15 11,7 4,9 6,2 1,15 8,5 0,14 -9,8 -16,-11 12,14 -18,13 -30,34 -13,9 -8,-4 -2,-9 -20,-7 7,-4 13,-18 -14,-29 -8,-4 -2,-9 -10,4 0,18 7,-6 5,12 7,2 3,18 -8,6 -14,-4 -6,3 4,11 9,10 6,-4 14,12 -4,16 9,-17 2,12 -36,21 -30,20 -12,-14 -6,1 -5,-9 -14,-40 -26,-65 -2,-6 4,-37 7,-48 -11,-26 2,0 13,-5 50,6 52,24 1,-5 13,-7 24,6 7,10 14,10 1,13Z"/>
  </g>
  <g class="cities">
    <circle r="3" cx="139.8" cy="67.3"/>
    <text x="139.8" y="67.3">Charlotte</text>
    <circle r="3" cx="222.3" cy="42.1"/>
    <text x="222.3" y="42.1">Raleigh</text>
    <circle r="3" cx="179.3" cy="28.6"/>
    <text x="179.3" y="28.6">Greensboro</text>
  </g>
</svg>