<?xml version="1.0" encoding="utf-8"?>
<!DOCTYPE svg PUBLIC "-//W3C//DTD SVG 1.1//EN" "http://www.w3.org/Graphics/SVG/1.1/DTD/svg11.dtd">
<svg version="1.1" xmlns="http://www.w3.org/2000/svg" width="1000" height="382" viewBox="0 0 1000 382">
  <path class="state" d="M617,18h36h13l45,-2 78,-2h27l39,-2 23,-1 30,-1 2,12 18,23 8,21 -8,-1 -1,-8 -9,-10 -7,-10 7,7v13l-6,1 -13,-13 -6,-1 -5,-10 2,10 9,6 9,13 -14,3 -11,-11 9,15 -17,-5 7,6 -20,2 8,1 -5,7 -12,2 -12,-6 -3,-12 3,-20 -10,-8 -17,-5 17,6 8,8 -2,7 -3,13 7,22 -1,7 18,-3 15,-6 3,7 23,-10 12,1 3,8 -5,10 2,23 -12,-2 15,3 3,-10 -1,-20 9,-6 17,6 4,25 -6,16 -9,-1 -2,-7 -3,13 -7,3 -3,13 -13,11 -13,1 -10,-9 -20,2 -5,-14 10,1 -1,-10 1,5 -18,3 10,17 -45,-12 -12,-9v1l15,14 37,12 1,8v-6l12,1v12l-16,5 12,4 -5,11 -23,15 -14,-8v-7l-11,-2 -10,4h2l8,-4 7,13 8,6 16,5 5,-6 3,8v-8l17,-7 9,-8v15l6,-3 12,1 -6,10 -11,7 -9,14 -7,1 -3,-9 -2,13 -6,-12 -9,5 8,4h-22l-21,7 -6,-12 3,11 -20,18 -7,-6 -7,1 11,9 -18,11 -24,20h2h1l-16,18 -6,14 -5,-19 1,29 -7,12 -13,-3 -27,1 -20,5 -9,-10 -46,-46 -42,-43 -25,-23h-26l-42,-1 -51,-1 1,-15 -6,-9 -10,-14 -13,8 2,-13 -31,-3 -48,-3 -21,-1 -41,-2 -3,-3 -21,9 -19,9 -3,-2 -25,7 -12,3 -40,-1 -55,-1 -34,-2 4,-30 6,-4 12,2 11,-6 1,-16 7,-6 21,-12 18,-2 13,2 24,-16 10,-8 22,-3 8,-21 7,4 5,-9 17,-9 2,13 10,-2 10,-12 24,-10 12,7 6,-4 12,-20 8,-7 14,1 -2,-7 6,-26 34,2 47,3 49,2 44,1h55h39ZM937,50l20,42 -15,-16 -5,-25 -6,-9 -1,-14 -5,-7 1,-12ZM920,9l1,8h-7l-3,-7ZM972,123l3,9 -5,50 -10,-1 -14,7v-1l24,-12 4,-34ZM947,89l8,7 1,10 -12,-15Z"/>
  <g class="counties">
    <path data-fips-int="37001" data-name="Alamance County" d="M568,58l1,48 2,4 -33,1v-8l1,-44v-1Z"/>
    <path data-fips-int="37003" data-name="Alexander County" d="M371,118l-3,-6 -20,4 1,-27 5,-2 26,-4 3,13 -4,12Z"/>
    <path data-fips-int="37005" data-name="Alleghany County" d="M394,16l-7,15 1,6 -21,-4 -10,8 -1,-9 -9,-19Z"/>
    <path data-fips-int="37007" data-name="Anson County" d="M482,203l8,7 8,-4 5,9 3,20 -9,12 -42,-1 5,-50 6,5 6,-2Z"/>
    <path data-fips-int="37009" data-name="Ashe County" d="M347,13l9,19 1,9 -8,-1 -4,11 -11,6 -11,-5 -7,-10 -9,-5 6,-26Z"/>
    <path data-fips-int="37011" data-name="Avery County" d="M297,73l8,6 -8,14 -9,-5 -5,5 -5,7 -6,-5 -3,-21 6,-4 12,-20 3,13Z"/>
    <path data-fips-int="37013" data-name="Beaufort County" d="M826,124l22,-1 6,12 10,5 1,5 -18,3 10,17 -45,-12 -12,-9 -9,-10v-13l20,9ZM800,145l15,14 37,12 1,8 -2,6 -23,3 -7,-5 -31,-20 1,-12Z"/>
    <path data-fips-int="37015" data-name="Bertie County" d="M837,53l-3,13 7,22 -1,7 -5,8 -9,-3 -5,10 -5,-11 -12,6v-9l-17,-2 -1,-9 -12,-8 8,-3 -5,-10 8,-10Z"/>
    <path data-fips-int="37017" data-name="Bladen County" d="M679,279l-2,4 10,7 -8,9 -9,5 -12,-2 -24,-12 -17,2 -5,-3 5,-20 2,-7 -11,-19 16,-3 28,-1Z"/>
    <path data-fips-int="37021" data-name="Buncombe County" d="M246,126l-1,15 12,8 -11,8 -7,-4 -14,6 -25,-1 -4,4 -5,-9 3,-12 -9,-5 -4,-8 23,-6 17,-10 12,-1 7,2Z"/>
    <path data-fips-int="37023" data-name="Burke County" d="M297,93l10,12 16,12 21,3 -18,25 -1,1 -16,-2 -6,-4 -8,4 -4,-19 -13,-12 6,-4 -1,-16 5,-5Z"/>
    <path data-fips-int="37025" data-name="Cabarrus County" d="M458,155l-23,42 -4,-3 -13,-8 -3,-11 -7,-6 -2,-14 5,-1Z"/>
    <path data-fips-int="37027" data-name="Caldwell County" d="M326,73l14,7 9,9 -1,27 -4,4 -21,-3 -16,-12 -10,-12 8,-14 -8,-6Z"/>
    <path data-fips-int="37033" data-name="Caswell County" d="M581,19l-1,39h-12h-29l3,-39Z"/>
    <path data-fips-int="37035" data-name="Catawba County" d="M371,118l20,21 -4,10 -61,-4 18,-25 4,-4 20,-4Z"/>
    <path data-fips-int="37037" data-name="Chatham County" d="M594,108l12,-1 -9,34 9,4 -6,8 -13,-13h-6l-22,13 -22,1 1,-43 33,-1 -2,-4Z"/>
    <path data-fips-int="37039" data-name="Cherokee County" d="M92,181l-4,12 -13,2 -16,19 -34,-2 4,-30 6,-4 12,2 11,-6 5,10 12,-3Z"/>
    <path data-fips-int="37043" data-name="Clay County" d="M88,193h10l12,21 4,1 -55,-1 16,-19Z"/>
    <path data-fips-int="37045" data-name="Cleveland County" d="M325,146l9,19 10,12 4,9 -1,13 -48,-3 9,-27 1,-25Z"/>
    <path data-fips-int="37047" data-name="Columbus County" d="M679,299l10,6 -10,18 -13,2 -4,8 -11,-3 -5,14 -7,6 -3,9 -46,-46 11,-17 11,-7 5,3 17,-2 24,12 12,2Z"/>
    <path data-fips-int="37049" data-name="Craven County" d="M847,230l-8,6 -14,1 -7,5 -15,1 -2,-3v-27l-1,-5 8,-4 7,13 8,6 16,5 5,-6ZM790,163l31,20 -5,7v10l3,6 -11,-2 -10,4 -7,-1 -30,-18 8,-15 4,1 6,-7 6,3Z"/>
    <path data-fips-int="37051" data-name="Cumberland County" d="M637,189l-5,19 3,14 17,17 -28,1 -16,3 -4,-10 -11,-6 -8,-22 2,-7v-2l39,-10Z"/>
    <path data-fips-int="37057" data-name="Davidson County" d="M485,89v12l-2,54h-13l-2,-10 -14,-12v-6l-13,-3 -2,-6 12,-13 -3,-11 19,-3v-4Z"/>
    <path data-fips-int="37059" data-name="Davie County" d="M448,94l3,11 -12,13 2,6 -14,-11 -13,-4 2,-26 21,1Z"/>
    <path data-fips-int="37061" data-name="Duplin County" d="M722,196l7,5 5,17 6,5 2,6 -2,27h-47l-9,-2 5,-21 -3,-38 20,2Z"/>
    <path data-fips-int="37063" data-name="Durham County" d="M617,59v19l6,2 5,8 -6,12 -16,7 -12,1 7,-50Z"/>
    <path data-fips-int="37065" data-name="Edgecombe County" d="M765,86l7,12v12l-13,3 -19,17 -8,-8 -3,-12 -8,-5 13,-37 18,8v6Z"/>
    <path data-fips-int="37067" data-name="Forsyth County" d="M486,56l-1,33 -18,-2v4l-19,3 -11,-10 -2,-8 8,-3 -1,-15v-2Z"/>
    <path data-fips-int="37069" data-name="Franklin County" d="M701,62l-25,51 -2,-5 -17,-16 -12,-6 4,-20 9,1 11,-13 18,2Z"/>
    <path data-fips-int="37071" data-name="Gaston County" d="M388,168l-7,15 1,16 -4,3 -31,-3 1,-13 -4,-9 -10,-12Z"/>
    <path data-fips-int="37073" data-name="Gates County" d="M855,12l5,5 5,17 -11,4 -13,7 -10,-8 -17,-5 2,-18Z"/>
    <path data-fips-int="37075" data-name="Graham County" d="M95,177l-3,4h-17l-12,3 -5,-10 1,-16 7,-6 40,5Z"/>
    <path data-fips-int="37077" data-name="Granville County" d="M649,66l-4,20 -22,-6 -6,-2v-19v-41h36l-6,6v40Z"/>
    <path data-fips-int="37079" data-name="Greene County" d="M760,162l-22,11 -2,-4 -12,2 -2,-27 13,-11 21,19Z"/>
    <path data-fips-int="37081" data-name="Guilford County" d="M539,59l-1,44 -53,-2v-12l1,-33Z"/>
    <path data-fips-int="37083" data-name="Halifax County" d="M777,64l5,10 -8,3 -9,9 -13,-4v-6l-18,-8 -22,1 -11,-7 9,-21 2,-19 27,2 10,9 -1,14 13,-3 6,16Z"/>
    <path data-fips-int="37085" data-name="Harnett County" d="M627,153l6,2 12,24 -8,10 -11,-3 -39,10 -14,-10 4,-5 23,-28 6,-8Z"/>
    <path data-fips-int="37087" data-name="Haywood County" d="M181,128l4,8 9,5 -3,12 5,9 -10,13 -9,3 -18,-23 -10,-7 1,-21 -8,-3 10,-8 22,-3Z"/>
    <path data-fips-int="37089" data-name="Henderson County" d="M246,157v10l-8,14 -1,12 -3,-3 -21,9 -3,-19 -14,-18 4,-4 25,1 14,-6Z"/>
    <path data-fips-int="37091" data-name="Hertford County" d="M816,14l-2,18 17,6 8,8 -2,7 -52,1 9,-30 4,-6 -9,-4Z"/>
    <path data-fips-int="37093" data-name="Hoke County" d="M587,198l-2,7 8,22 -16,16h-17l-2,-17 -10,-10 14,-17 10,-6Z"/>
    <path data-fips-int="37097" data-name="Iredell County" d="M396,83h20l-2,26 -6,20 3,25 -5,1 -13,-2 -4,4 -2,-8 4,-10 -20,-21 8,-10 4,-12 -3,-13Z"/>
    <path data-fips-int="37099" data-name="Jackson County" d="M149,148l10,7 18,23 -8,13 1,7 -9,11 5,4 -12,3 -2,-10 -9,-11 1,-10 -8,-1 -4,-12v-19Z"/>
    <path data-fips-int="37101" data-name="Johnston County" d="M683,124l7,17 7,2 -10,20v11l-16,9 -20,3 -6,-7 -12,-24 -6,-2 22,-22 27,-18Z"/>
    <path data-fips-int="37103" data-name="Jones County" d="M798,208h2l1,5v27l2,3 -7,3 -3,-6 -9,-12 -11,2 -14,-7h-19l-6,-5 14,-9 13,-20 30,18Z"/>
    <path data-fips-int="37105" data-name="Lee County" d="M600,153l-23,28 -10,-6 -8,-14v-8l22,-13h6Z"/>
    <path data-fips-int="37107" data-name="Lenoir County" d="M769,174l-8,15 -13,20 -14,9 -5,-17 -7,-5 2,-25 12,-2 2,4 22,-11Z"/>
    <path data-fips-int="37109" data-name="Lincoln County" d="M387,149l2,8 -1,11 -54,-3 -9,-19 1,-1Z"/>
    <path data-fips-int="37111" data-name="McDowell County" d="M295,144l-2,4 -36,1 -12,-8 1,-15 9,-4 7,-12 10,-3 6,-7 5,-7 1,16 -6,4 13,12Z"/>
    <path data-fips-int="37113" data-name="Macon County" d="M154,216l-40,-1 -4,-1 -12,-21h-10l4,-12 3,-4 25,-2 12,-3 4,12 8,1 -1,10 9,11Z"/>
    <path data-fips-int="37115" data-name="Madison County" d="M223,89l1,10 9,12 -12,1 -17,10 -23,6 -7,-15 8,-21 7,4 5,-9 17,-9 2,13Z"/>
    <path data-fips-int="37117" data-name="Martin County" d="M835,103l-9,21 -15,6 -20,-9 -19,-11v-12l-7,-12 9,-9 12,8 1,9 17,2v9l12,-6 5,11 5,-10Z"/>
    <path data-fips-int="37119" data-name="Mecklenburg County" d="M406,155l2,14 7,6 3,11 13,8 -19,19 -13,8 -10,-14 -13,8 2,-13 4,-3 -1,-16 7,-15 1,-11 4,-4Z"/>
    <path data-fips-int="37121" data-name="Mitchell County" d="M269,74l3,21 6,5 -6,7 -10,3 -1,-14 -4,-10 -16,-3 -1,-7 -7,1 24,-10Z"/>
    <path data-fips-int="37123" data-name="Montgomery County" d="M513,154l7,33 11,13 -26,-2 -23,5 -3,-19 5,-12 -14,-17h13Z"/>
    <path data-fips-int="37125" data-name="Moore County" d="M577,181l-4,5 14,10v2l-15,-5 -10,6 -14,17 -14,-3 -3,-13 -11,-13 -7,-33h24l22,-1v8l8,14Z"/>
    <path data-fips-int="37127" data-name="Nash County" d="M701,62l11,7 22,-1 -13,37 -38,19 -7,-11Z"/>
    <path data-fips-int="37131" data-name="Northampton County" d="M785,54l-8,10 -10,-4 -6,-16 -13,3 1,-14 -10,-9 -27,-2 -1,-6 78,-2 9,4 -4,6Z"/>
    <path data-fips-int="37135" data-name="Orange County" d="M580,58h21l-7,50 -25,-2 -1,-48Z"/>
    <path data-fips-int="37137" data-name="Pamlico County" d="M819,206l-3,-6v-10l5,-7 7,5 23,-3 2,-6v-6l12,1v12l-16,5 12,4 -5,11 -23,15 -14,-8Z"/>
    <path data-fips-int="37139" data-name="Pasquotank County" d="M888,34l2,10 9,6 9,13 -14,3 -11,-11 -9,-5 -9,-16 -5,-17 5,5Z"/>
    <path data-fips-int="37141" data-name="Pender County" d="M740,256l12,30 7,6 -24,20 -11,-12 -21,8 -14,-3 -10,-6 8,-9 -10,-7 2,-4 14,-23Z"/>
    <path data-fips-int="37143" data-name="Perquimans County" d="M883,55l9,15 -17,-5 7,6 -20,2 -8,-3 -3,-18 3,-14 11,-4 9,16Z"/>
    <path data-fips-int="37145" data-name="Person County" d="M617,18v41l-16,-1h-21l1,-39Z"/>
    <path data-fips-int="37147" data-name="Pitt County" d="M772,110l19,11v13l9,10v1l-9,6 -1,12 -5,8 -6,-3 -6,7 -4,-1 -9,-12 -4,-10 -21,-19 5,-3 19,-17Z"/>
    <path data-fips-int="37149" data-name="Polk County" d="M278,195l-41,-2 1,-12 8,-14 12,-2 20,20Z"/>
    <path data-fips-int="37151" data-name="Randolph County" d="M538,103v8l-1,43h-24l-30,1 2,-54Z"/>
    <path data-fips-int="37153" data-name="Richmond County" d="M531,200l3,13 14,3 -14,7 3,10 -7,13 -7,1h-26l9,-12 -3,-20 -5,-9 -8,4 -8,-7 23,-5Z"/>
    <path data-fips-int="37155" data-name="Robeson County" d="M608,243l11,19 -2,7 -5,20 -11,7 -11,17 -42,-43 14,-18 -2,-9h17l16,-16 11,6Z"/>
    <path data-fips-int="37157" data-name="Rockingham County" d="M542,19l-3,39v1l-53,-3 1,-37Z"/>
    <path data-fips-int="37159" data-name="Rowan County" d="M441,124l13,3v6l14,12 2,10h-12l-47,-1 -3,-25 6,-20 13,4Z"/>
    <path data-fips-int="37161" data-name="Rutherford County" d="M309,144l-1,25 -9,27 -21,-1v-10l-20,-20 -12,2v-10l11,-8 36,-1 2,-4 8,-4Z"/>
    <path data-fips-int="37163" data-name="Sampson County" d="M671,183l15,12 3,38 -5,21 9,2 -14,23 -27,-40 -17,-17 -3,-14 5,-19 8,-10 6,7Z"/>
    <path data-fips-int="37165" data-name="Scotland County" d="M560,243l2,9 -14,18 -25,-23 7,-1 7,-13 -3,-10 14,-7 10,10Z"/>
    <path data-fips-int="37167" data-name="Stanly County" d="M482,203l-10,-4 -6,2 -6,-5 -9,4 -16,-3 23,-42h12l14,17 -5,12Z"/>
    <path data-fips-int="37169" data-name="Stokes County" d="M487,19l-1,37h-44l1,-38Z"/>
    <path data-fips-int="37171" data-name="Surry County" d="M443,18l-1,38v2l-10,-5 -23,1 -12,5v-13l-9,-9 -1,-6 7,-15Z"/>
    <path data-fips-int="37173" data-name="Swain County" d="M149,148l-17,5v19l-12,3 -25,2 11,-20 -40,-5 21,-12 18,-2 13,2 24,-16 8,3Z"/>
    <path data-fips-int="37175" data-name="Transylvania County" d="M213,199l-19,9 -3,-2 -25,7 -5,-4 9,-11 -1,-7 8,-13 9,-3 10,-13 14,18Z"/>
    <path data-fips-int="37177" data-name="Tyrrell County" d="M899,123l-4,12h-10l3,-11h-14l-1,-13 5,-8 -2,-10 23,-10 12,1 3,8 -5,10 2,23Z"/>
    <path data-fips-int="37179" data-name="Union County" d="M460,196l-5,50 -51,-1 1,-15 -6,-9 13,-8 19,-19 4,3 16,3Z"/>
    <path data-fips-int="37181" data-name="Vance County" d="M666,18l6,28 -3,8 -11,13 -9,-1 -2,-2v-40l6,-6Z"/>
    <path data-fips-int="37183" data-name="Wake County" d="M645,86l12,6 17,16 2,5 -27,18 -22,22 -21,-8 -9,-4 9,-34 16,-7 6,-12 -5,-8Z"/>
    <path data-fips-int="37185" data-name="Warren County" d="M711,16l1,6 -2,19 -9,21 -14,-6 -18,-2 3,-8 -6,-28Z"/>
    <path data-fips-int="37187" data-name="Washington County" d="M876,93l2,10 -5,8 1,13 -26,-1 -22,1 9,-21 5,-8 18,-3 15,-6Z"/>
    <path data-fips-int="37189" data-name="Watauga County" d="M334,57l1,7 -9,9h-29l-7,-10 -3,-13 8,-7 14,1 -2,-7 9,5 7,10Z"/>
    <path data-fips-int="37191" data-name="Wayne County" d="M722,144l2,27 -2,25 -16,1 -20,-2 -15,-12 16,-9v-11l10,-20Z"/>
    <path data-fips-int="37193" data-name="Wilkes County" d="M388,37l9,9v13l-1,24h-16l-26,4 -5,2 -9,-9 -14,-7 9,-9 -1,-7 11,-6 4,-11 8,1 10,-8Z"/>
    <path data-fips-int="37195" data-name="Wilson County" d="M740,130l-5,3 -13,11 -25,-1 -7,-2 -7,-17 38,-19 8,5 3,12Z"/>
    <path data-fips-int="37197" data-name="Yadkin County" d="M442,58l1,15 -8,3 2,8 -21,-1h-20l1,-24 12,-5 23,-1Z"/>
    <path data-fips-int="37199" data-name="Yancey County" d="M261,96l1,14 -7,12 -9,4 -6,-13 -7,-2 -9,-12 -1,-10 10,-12 7,-1 1,7 16,3Z"/>
    <path data-fips-int="37019" data-name="Brunswick County" d="M703,308l9,12 -1,5 1,29 -7,12 -13,-3 -27,1 -20,5 -9,-10 3,-9 7,-6 5,-14 11,3 4,-8 13,-2 10,-18Z"/>
    <path data-fips-int="37029" data-name="Camden County" d="M878,11l18,15 6,10 9,1 7,7v13l-6,1 -13,-13 -6,-1 -5,-10 -23,-12 -5,-5 -5,-5Z"/>
    <path data-fips-int="37031" data-name="Carteret County" d="M797,248l-1,-2 7,-3 15,-1 7,-5 14,-1 8,-6v-8l17,-7 9,-8v15l6,-3 12,1 -6,10 -11,7 -9,14 -7,1 -3,-9 -2,13 -6,-12 -9,5 8,4h-22l-21,7Z"/>
    <path data-fips-int="37041" data-name="Chowan County" d="M862,73l8,1 -5,7 -12,2 -12,-6 -3,-12 3,-20 13,-7 -3,14 3,18Z"/>
    <path data-fips-int="37053" data-name="Currituck County" d="M937,50v1l-6,-9 -1,-14 -5,-7 1,-12ZM918,47l-7,-10 -9,-1 -6,-10 -18,-15 30,-1 2,12 18,23 8,21 -8,-1 -1,-8ZM920,9l1,8h-7l-3,-7Z"/>
    <path data-fips-int="37055" data-name="Dare County" d="M972,123l3,9 -5,50 -10,-1 -14,7v-1l24,-12 4,-34ZM937,51v-1l20,42 -15,-16ZM947,89l8,7 1,10 -12,-15ZM929,129l-15,-3 3,-10 -1,-20 9,-6 17,6 4,25 -6,16 -9,-1Z"/>
    <path data-fips-int="37095" data-name="Hyde County" d="M874,124h14l-3,11h10l4,-12 15,3 15,3 -3,13 -7,3 -3,13 -13,11 -13,1 -10,-9 -20,2 -5,-14 10,1 -1,-10 -10,-5 -6,-12Z"/>
    <path data-fips-int="37129" data-name="New Hanover County" d="M735,312h2h1l-16,18 -6,14 -5,-19 1,-5 -9,-12 21,-8Z"/>
    <path data-fips-int="37133" data-name="Onslow County" d="M793,240l3,6 1,2 3,11 -20,18 -7,-6 -7,1 11,9 -18,11 -7,-6 -12,-30 2,-27 -2,-6h19l14,7 11,-2Z"/>
  </g>
  <path class="mesh" d="M394,16l-7,15 1,6 -21,-4 -10,8 -1,-9 -9,-19M455,246l5,-50 6,5 6,-2 10,4 8,7 8,-4 5,9 3,20 -9,12M357,41l-8,-1 -4,11 -11,6 -11,-5 -7,-10 -9,-5M287,50l3,13 7,10 8,6 -8,14 -9,-5 -5,5 -5,7 -6,-5 -3,-21M800,144l-9,-10v-13l20,9 15,-6 22,-1 6,12 10,5M853,179l-2,6 -23,3 -7,-5 -31,-20 1,-12 9,-6M840,95l-5,8 -9,-3 -5,10 -5,-11 -12,6v-9l-17,-2 -1,-9 -12,-8 8,-3 -5,-10 8,-10 52,-1M297,93l10,12 16,12 21,3 -18,25 -1,1 -16,-2 -6,-4 -8,4 -4,-19 -13,-12 6,-4 -1,-16M483,155l30,-1 7,33 11,13 -26,-2 -23,5 -3,-19 5,-12 -14,-17h-12l-23,42 -4,-3 -13,-8 -3,-11 -7,-6 -2,-14 5,-1 47,1M371,118l-3,-6 -20,4 -4,4M569,106l25,2 12,-1 -9,34 9,4 -6,8 -13,-13h-6l-22,13 -22,1 1,-43v-8l1,-44v-1l3,-39M297,73h29l14,7 9,9 5,-2 26,-4 3,13 -4,12 -8,10 20,21 -4,10 -61,-4M58,174l5,10 12,-3h17l-4,12 -13,2 -16,19M88,193h10l12,21 4,1M325,146l9,19 10,12 4,9 -1,13M299,196l9,-27 1,-25M679,299l10,6 -10,18 -13,2 -4,8 -11,-3 -5,14 -7,6 -3,9M590,313l11,-17 11,-7M847,230l-8,6 -14,1 -7,5 -15,1 -2,-3v-27l-1,-5M821,183l-5,7v10l3,6M798,208l-7,-1 -30,-18 8,-15 4,1 6,-7 6,3 5,-8M608,243l-4,-10 -11,-6 -8,-22 2,-7v-2l39,-10 11,3 -5,19 3,14 17,17M437,84l-2,-8 8,-3 -1,-15v-2h44l-1,33v12l-2,54h-13l-2,-10 -14,-12v-6l-13,-3 -2,-6 12,-13 -3,-11 19,-3v-4l18,2M441,124l-14,-11 -13,-4 2,-26 21,1 11,10M594,108l7,-50 16,1v19l6,2 5,8 -6,12 -16,7M774,77l-9,9 7,12v12l-13,3 -19,17 -8,-8 -3,-12 -8,-5 13,-37 18,8v6l13,4M334,165l54,3 -7,15 1,16 -4,3M855,12l5,5 5,17 -11,4 -13,7M814,32l2,-18M66,152l40,5 -11,20 -3,4M645,86l-22,-6M617,59v-41M653,18l-6,6v40l2,2M539,58h29M538,103l-53,-2M486,56l53,3M734,68l-22,1 -11,-7 -25,51 -2,-5 -17,-16 -12,-6 4,-20 9,1 11,-13 18,2 14,6 9,-21 2,-19 27,2 10,9 -1,14 13,-3 6,16 10,4M606,145l21,8 6,2 12,24 -8,10M587,196l-14,-10 4,-5 23,-28M213,199l-3,-19 -14,-18 -10,13 -9,3 -18,-23 -10,-7 1,-21 -8,-3M174,113l7,15M246,157v10l-8,14 -1,12M785,54l9,-30 4,-6 -9,-4M593,227l-16,16h-17l-2,-17 -10,-10 14,-17 10,-6 15,5M380,83h16h20M414,109l-6,20 3,25M406,155l-13,-2 -4,4 -2,-8M177,178l-8,13 1,7 -9,11 5,4M154,216l-2,-10 -9,-11 1,-10 -8,-1 -4,-12v-19l17,-5M627,153l22,-22 27,-18 7,11 7,17 7,2 -10,20v11l-16,9 -20,3 -6,-7M803,243l-7,3 -3,-6 -9,-12 -11,2 -14,-7h-19M734,218l14,-9 13,-20M577,181l-10,-6 -8,-14v-8M722,196l7,5 5,17 6,5 2,6 -2,27h-47l-9,-2 5,-21 -3,-38 20,2 16,-1 2,-25M760,162l-22,11 -2,-4 -12,2 -2,-27 13,-11 21,19 4,10 9,12M389,157l-1,11M295,144l-2,4 -36,1M246,126l-1,15 12,8 -11,8 -7,-4 -14,6 -25,-1 -4,4 -5,-9 3,-12 -9,-5 -4,-8 23,-6 17,-10 12,-1 7,2 6,13 9,-4 7,-12 10,-3 6,-7M95,177l25,-2 12,-3M223,89l1,10 9,12M835,103l-9,21M791,121l-19,-11M431,194l-19,19 -13,8M348,116l1,-27M262,110l-1,-14 -4,-10 -16,-3 -1,-7 -7,1M548,216l-14,-3 -3,-13M513,154h24M721,105l-38,19M712,22l-1,-6M580,58h21M883,55l-9,-5 -9,-16M860,17l5,5 23,12M740,256l12,30 7,6M735,312l-11,-12 -21,8 -14,-3M679,279l-2,4 10,7 -8,9 -9,5 -12,-2 -24,-12 -17,2 -5,-3 5,-20 2,-7 -11,-19 16,-3 28,-1 27,40 14,-23M862,73l-8,-3 -3,-18 3,-14M735,133l5,-3M246,167l12,-2 20,20v10M548,216l-14,7 3,10 -7,13 -7,1M548,270l14,-18 -2,-9M486,56l1,-37M671,183l15,12M460,196l-9,4 -16,-3M442,56l1,-38M442,58l-10,-5 -23,1 -12,5v-13l-9,-9M899,123l-4,12h-10l3,-11h-14l-1,-13 5,-8 -2,-10M666,18l6,28 -3,8M874,124l-26,-1M334,57l1,7 -9,9M697,143l25,1M397,59l-1,24M703,308l9,12 -1,5M878,11l18,15 6,10 9,1M797,248l-1,-2M937,50v1M929,129l-15,-3M581,19l-1,39h-12l1,48 2,4 -33,1"/>
  <g class="cities">
    <circle r="7" cx="400" cy="192"/>
    <text x="400" y="192">Charlotte</text>
    <circle r="7" cx="635" cy="120"/>
    <text x="635" y="120">Raleigh</text>
    <circle r="7" cx="512" cy="81"/>
    <text x="512" y="81">Greensboro</text>
  </g>
</svg>