<?xml version="1.0" encoding="utf-8"?>
<!DOCTYPE svg PUBLIC "-//W3C//DTD SVG 1.1//EN" "http://www.w3.org/Graphics/SVG/1.1/DTD/svg11.dtd">
<svg version="1.1" xmlns="http://www.w3.org/2000/svg" width="350" height="134" viewBox="0 0 350 134">
  <path class="state" transform="scale(0.1)" d="M2557,242l7,1 3,-1 3,-3 2,1 8,6h2h3h2l10,10v1l2,1 3,1 5,2h3l2,1h2M2066,1099l-148,-151 -86,-80 -90,-1 -148,-4 -183,-3 8,-54 -23,-30 -33,-49 -38,27 1,-46 -111,-9 -165,-10 -75,-5 -120,-8 -24,3 -15,-12 -70,31 -80,35v-10l-83,24 -39,12 -141,-2 -196,-5 -120,-5 17,-108 26,-19 45,11 28,-20 4,-53 28,-23 25,-24 50,-20 96,4 20,-22 57,-18 17,-18 38,-30 73,-10 22,-41 -2,-20 32,1 19,-35 54,-28 16,15 -8,31 38,-4 34,-42v-1l24,-20 54,-18 48,27 18,-7 43,-76 24,-22 56,1 -8,-26 13,-34 7,-55 120,7 168,8 169,7 153,4h192l136,-1 127,-1 126,-2 48,-1 157,-3 271,-7 91,-2 2,-4 136,-4 85,-3 101,-3 -1,21 21,43 54,56 5,31 3,7 17,58 -59,-84v-2v-1l-3,-9 -23,-24 23,24v45l-98,-48v-1l13,-8 -15,-5 2,-4 -5,-5 -2,-9 2,9 5,5 -2,4 15,5 -13,8v1l50,43 10,26 -42,12 -41,-42 36,50 -65,-12 22,19 -67,5 -1,1 1,-1 29,9 -39,29 -34,-21 -32,-4 -12,-40 12,-68 -33,-28 -62,-17 60,19 30,28 -10,24 -10,46 28,73 -3,27 58,-8 50,-21 17,21 70,-30h41l-3,38 21,-8 -16,29 8,85 -43,-7 46,21 10,-10 9,-42 -4,-61 29,-20 50,-2 20,57 8,52 -23,5 16,23 -31,30 -24,-28 -1,-2 1,2 4,26 -42,33 -10,45 -33,28 -40,8 -53,-17 -24,-30 -16,35 -25,-12 -22,-49 43,-3 -8,-27 3,16 -51,3 20,66 -32,-15 -43,-1 -77,-23 -44,-34v1l-4,4 53,50 14,-5 45,24 33,7 -23,23 60,-9 5,30 3,-25 41,6 4,43 -35,24 11,10 -18,37 -75,50 -55,-36 4,-18 -22,5 -16,-29 -7,28 -28,5h6l27,-13 28,45 28,21 55,15 17,-19 12,26 1,-32 37,-5 51,-40 -1,53 55,-32h3h-3l8,22 -40,50 -7,-14 -36,68 1,1 -1,-1 3,1h-2v1l-28,8 -18,-43 -5,54 -13,-6 3,-3v-2v-3l-67,3 -94,28 -22,-43 -2,1h-1h1l2,-1 15,32 -17,19 -3,4 -10,6 -32,34 -21,6 -2,-39 -25,-42 -10,21 22,26 -27,9 42,32 -67,46 -83,69h-2h2h8l2,2 -43,49 -7,11 -13,44 -12,7 -16,-64 8,59 -7,42 -6,7 -22,27 -42,-6 -101,7 -57,17 -35,-35M3222,36l4,25 -29,1 -8,-26h33M3400,433l12,36 -8,95 -12,75h-37l-46,21v-3l56,-35 30,-8 14,-143 -9,-38M3317,314l28,28 2,30 -43,-57 13,-1M3319,285v-4v-2v-1l-22,-11 -15,-87 -21,-33v-6l-22,-59v-2l-3,-32v-1l10,17 36,116 19,49 78,148 -15,-6 -12,-47 -33,-39M2785,863l-2,-2v2h2M2066,1099l163,162"/>
  <g class="counties" transform="scale(0.1)">
    <path data-fips-int="37001" data-name="Alamance County" d="M1992,206l-2,134 5,35 5,14 -115,2v-26l3,-158v-3Z"/>
    <path data-fips-int="37003" data-name="Alexander County" d="M1300,417l-10,-23 -72,14 -3,-59 6,-33 40,-15 72,-6 8,40 -15,48Z"/>
    <path data-fips-int="37005" data-name="Alleghany County" d="M1383,58l-29,51 4,23 -25,10 -22,-29 -26,4 -34,30 -6,-38 -30,-46v-13Z"/>
    <path data-fips-int="37007" data-name="Anson County" d="M1662,701l23,11 32,27 27,-14 16,33 12,62 -30,47 -148,-4 17,-175 20,19Z"/>
    <path data-fips-int="37009" data-name="Ashe County" d="M1191,184l-15,12 -9,7 -34,-16 -25,-36 -33,-19 13,-34 7,-55 120,7v13l30,46 6,38 -38,4Z"/>
    <path data-fips-int="37011" data-name="Avery County" d="M1010,194l-3,19 30,21 6,26 25,19 -26,49 -34,-17 -16,17 -15,23 -20,-14 -3,-30 -12,-45 18,-7 43,-76Z"/>
    <path data-fips-int="37013" data-name="Beaufort County" d="M2798,511l53,50 14,-5 45,24 33,7 -23,23 60,-9 5,30 -7,19 -78,11 -20,-16 -24,-20 -91,-53 5,-47ZM2891,436l79,-2 16,40 33,16 7,4 3,16 -51,3 20,66 -32,-15 -43,-1 -77,-23 -44,-34 -27,-32 -7,-25 -1,1 1,-23 73,33Z"/>
    <path data-fips-int="37015" data-name="Bertie County" d="M2928,187l-10,46 28,73 -3,27 -23,29 -29,-7 -13,32 -25,-40 -35,22 -8,-38 -53,3 -4,-32 -46,-30 36,-14 -23,-30 -3,-18 33,-19 88,2Z"/>
    <path data-fips-int="37017" data-name="Bladen County" d="M2153,905l-18,-42 -5,-10 21,-7 132,-5 5,9 35,39 6,23 20,22v1l23,36 4,7v23l26,22 -26,26v1l-30,15 -42,-4 -68,-34 -10,-2 -70,-2 -13,-9 10,-48 2,-4v-1l5,-19 1,-8 -6,-28 -2,-1Z"/>
    <path data-fips-int="37021" data-name="Buncombe County" d="M682,441l14,-9 21,-6 85,-32 14,-3v-1l26,8 2,25 21,21 -10,9 17,58 32,15 -25,3 -14,23 -21,-13 -28,11 -52,21 -45,-15 -13,-1 -20,13 -20,-22 15,-44 -32,-23 -11,-29v-1l43,-8Z"/>
    <path data-fips-int="37023" data-name="Burke County" d="M1078,504l-18,-14 -27,15v2l-16,-68 -43,-40 26,-19 -8,-52 16,-17 34,17 11,9 7,8 17,24 41,25 17,22 71,5 -64,91 -2,2 -27,-2 -31,-7h-2Z"/>
    <path data-fips-int="37025" data-name="Cabarrus County" d="M1602,547l-80,146 -15,-11 -43,-27 -8,-35 -28,-26 -9,-50h20Z"/>
    <path data-fips-int="37027" data-name="Caldwell County" d="M1142,259l28,15 21,7 5,14 4,-1 21,22 -6,33 3,59 -12,13 -71,-5 -17,-22 -41,-25 -17,-24 -7,-8 -11,-9 26,-49 -25,-19Z"/>
    <path data-fips-int="37033" data-name="Caswell County" d="M2033,68l-3,138h-38l-104,-2 9,-135Z"/>
    <path data-fips-int="37035" data-name="Catawba County" d="M1300,417l16,32 28,4 19,42 -7,29 -214,-12 64,-91 12,-13 72,-14Z"/>
    <path data-fips-int="37037" data-name="Chatham County" d="M2081,380l42,-3 -32,119 30,13 -21,28 -30,-34 -35,-12 -20,30 -57,19 -76,2 3,-151 115,-2 -5,-14Z"/>
    <path data-fips-int="37039" data-name="Cherokee County" d="M228,646l22,-7 20,-7h5l50,3v1v1l-15,42 -3,-2h-9l-6,5 -14,3 -3,-1 -53,42 -15,26 -120,-5 17,-108 26,-19 45,11 28,-20Z"/>
    <path data-fips-int="37043" data-name="Clay County" d="M310,679h18l23,14 44,60 1,1 7,3 -196,-5 15,-26 53,-42 3,1 14,-3 6,-5h9Z"/>
    <path data-fips-int="37045" data-name="Cleveland County" d="M1113,512l27,2 12,9 16,58 35,39 17,35 -5,44 -165,-10 27,-81 5,-103Z"/>
    <path data-fips-int="37047" data-name="Columbus County" d="M2093,1068l10,-13 2,-1 1,-6 2,-15 35,-19 13,9 70,2 10,2 68,34 42,4 30,-15 1,3h2l33,15 -35,66 -45,5 -26,28h-35l-2,10 -5,23ZM2093,1069l-8,6 -5,8v7l-9,5 -5,4 163,162 4,-3v-28l23,-14Z"/>
    <path data-fips-int="37049" data-name="Craven County" d="M2965,806l-27,24 -48,2 -29,17 -48,5 7,-8 -15,-5 -7,-110 27,-13 28,45 28,21 55,15 17,-19ZM2765,572l91,53 24,20 -27,25 -5,30 17,14v1v7l-22,5 -16,-29 -7,28 -28,5 -7,5 -123,-74 20,-14 3,-34 7,-4 35,-18 15,12Z"/>
    <path data-fips-int="37051" data-name="Cumberland County" d="M2184,655l50,7 -16,77 21,57 27,28 7,4 10,13 -132,5 -21,7 -17,-33 -35,-21 -22,-41 -3,-61 2,-8 75,-19 43,-15h10Z"/>
    <path data-fips-int="37057" data-name="Davidson County" d="M1697,313v1v41l-8,191h-42l-10,-34 -30,-25 -21,-41 -42,-11 -7,-39 30,-5 10,-23 -10,-38 67,-11v-13Z"/>
    <path data-fips-int="37059" data-name="Davie County" d="M1567,330l10,38 -10,23 -30,5 7,39 -13,-11 -37,-24 -43,-15 7,-91 73,2 13,-4Z"/>
    <path data-fips-int="37061" data-name="Duplin County" d="M2505,702l24,-13 25,14 15,63 21,16 10,21 -10,95 -111,5 -20,-5 -2,-1 -15,2 -15,1v1l-33,-7 18,-76 -10,-88 2,-44 45,-3Z"/>
    <path data-fips-int="37063" data-name="Durham County" d="M2160,208l5,72 14,3 20,27 -21,44 -18,-5 -10,28h-27l-42,3 24,-173Z"/>
    <path data-fips-int="37065" data-name="Edgecombe County" d="M2614,263h3l2,1 15,12 -4,3 4,6 1,1v4l47,15 21,44 -1,40 -15,-5 -98,73 -24,-23 -11,-45 -30,-17 43,-130 3,-3 2,1 8,6h2h3h2l10,10v1l2,1 3,1 5,2h3l2,1Z"/>
    <path data-fips-int="37067" data-name="Forsyth County" d="M1702,200l-5,113 -63,-7v13l-67,11 -23,-38 -13,4 -5,-28 26,-13v-35l-6,-13v-9Z"/>
    <path data-fips-int="37069" data-name="Franklin County" d="M2392,196l29,20 20,-3 13,6 -88,176v2v-2l-25,-33 -40,-37 -45,-20 17,-71 15,5h11l17,-33 26,-15Z"/>
    <path data-fips-int="37071" data-name="Gaston County" d="M1356,592l-23,63 -7,53 -111,-9 5,-44 -17,-35 -35,-39Z"/>
    <path data-fips-int="37073" data-name="Gates County" d="M2991,44l18,18 19,61 -40,13 -37,18h-1l-7,7 -33,-28 -62,-17 5,-64 2,-4Z"/>
    <path data-fips-int="37075" data-name="Graham County" d="M333,623l-8,12v1v-1l-50,-3h-5l-20,7 -22,7 -25,-35 4,-53 28,-23 30,8 106,9 -3,28 -40,25Z"/>
    <path data-fips-int="37077" data-name="Granville County" d="M2279,75l-6,2 -7,24 2,119 5,14 -17,71 -55,-24 -22,2 -14,-3 -5,-72v-141l126,-2 -2,4 -3,4v1Z"/>
    <path data-fips-int="37079" data-name="Greene County" d="M2659,571l-39,23 -36,15 -9,-15 -38,6 -8,-25v-68l43,-38 35,39 42,22Z"/>
    <path data-fips-int="37081" data-name="Guilford County" d="M1888,207l-3,158 -188,-10v-41v-1l5,-113Z"/>
    <path data-fips-int="37083" data-name="Halifax County" d="M2557,241l-3,-2 -22,4h-2l-28,2 -16,-19 -20,4 -5,-4 -5,-7h-2h2l33,-83 3,-58v-1l48,12 45,-1 35,28 -13,38 17,15 38,-11 23,53 35,17 23,30 -36,14 -25,33 -47,-15v-4l-1,-1 -4,-6 4,-3 -15,-12 -2,-1Z"/>
    <path data-fips-int="37085" data-name="Harnett County" d="M2184,655h-1h-10l-43,15 -75,19 -49,-35 15,-18 79,-99 21,-28 77,28 18,10 47,83 -29,32Z"/>
    <path data-fips-int="37087" data-name="Haywood County" d="M611,397l2,15 25,37v1l11,29 32,23 -15,44 20,22 -33,47 -15,2 -19,10 -5,-6 -31,-36 -60,-64 3,-71 -26,-13 38,-30Z"/>
    <path data-fips-int="37089" data-name="Henderson County" d="M852,613l-10,12 -11,54 -15,-12 -70,31 -15,-76 -45,-54 20,-13 13,1 45,15 52,-21 28,-11 21,13 2,35Z"/>
    <path data-fips-int="37091" data-name="Hertford County" d="M2853,52l-5,64 60,19 30,28 -10,24 -90,6 -88,-2 30,-105 13,-1 2,-2 2,-8 -2,-1 -2,1 -1,-4v-1l-7,-4h-8l-12,-10 -2,-1 -1,-1Z"/>
    <path data-fips-int="37093" data-name="Hoke County" d="M1962,835l-7,-38 -30,-29 -3,-4 -4,-5v-1l70,-72 10,-7 45,21 10,-3 3,61 22,41 -58,55 -60,-2Z"/>
    <path data-fips-int="37097" data-name="Iredell County" d="M1388,291l70,3 -7,91 -25,82 13,77h-20l-45,-4 -15,12 -3,-28 7,-29 -19,-42 -28,-4 -16,-32 26,-34 15,-48 -8,-40Z"/>
    <path data-fips-int="37099" data-name="Jackson County" d="M514,521h9l60,64 31,36 5,6 -25,70 -30,37 19,13 -39,12 -38,-74 -10,-35 -15,1 -18,-47 -2,-66Z"/>
    <path data-fips-int="37101" data-name="Johnston County" d="M2389,437l25,56 25,10 -33,77v33l-20,3 -35,26 -40,14 -28,-2 -20,-24 -47,-83 -18,-10 91,-87 77,-52Z"/>
    <path data-fips-int="37103" data-name="Jones County" d="M2785,736l7,-5h6l7,110 15,5 -7,8v1l-15,4 -15,2 -10,-12 -28,-50 -40,7 -50,-24h-65l-21,-16 48,-30 35,-47 -8,-34 18,7Z"/>
    <path data-fips-int="37105" data-name="Lee County" d="M2100,537l-79,99 -34,-22 -32,-51 3,-23 57,-19 20,-30 35,12Z"/>
    <path data-fips-int="37107" data-name="Lenoir County" d="M2664,583v1l28,26 -7,4 -3,34 -20,14 -18,-7 8,34 -35,47 -48,30 -15,-63 -25,-14 8,-89 38,-6 9,15 36,-15 39,-23Z"/>
    <path data-fips-int="37109" data-name="Lincoln County" d="M1142,512l214,12 3,28 -3,40 -188,-11 -16,-58 -12,-9Z"/>
    <path data-fips-int="37111" data-name="McDowell County" d="M1033,507l-8,15 -50,7 -10,-13 -61,10 -32,-15 -17,-58 10,-9 32,-14 17,-31 5,-9 58,-39 15,-23 8,52 -26,19 43,40Z"/>
    <path data-fips-int="37113" data-name="Macon County" d="M496,650l10,35 38,74 -141,-2 -7,-3 -1,-1 -44,-60 -23,-14h-18l15,-42v-1v-1l8,-12 130,-19 18,47Z"/>
    <path data-fips-int="37115" data-name="Madison County" d="M682,441h-1l-43,8 -25,-37 -2,-15 22,-41 -2,-20 32,1 19,-35 54,-28 16,15 -8,31 38,-4 5,32h2l27,42v1l-14,3 -85,32 -21,6Z"/>
    <path data-fips-int="37117" data-name="Martin County" d="M2920,363l-29,73 -50,24 -73,-33 -3,-3 -63,-35 1,-40 -21,-44 25,-33 46,30 4,32 53,-3 8,38 35,-22 25,40 13,-32 29,7Z"/>
    <path data-fips-int="37119" data-name="Mecklenburg County" d="M1419,544l9,50 28,26 8,35 43,27 -88,80 -23,14 -33,-49 -38,27 1,-46 7,-53 23,-63 3,-40 15,-12Z"/>
    <path data-fips-int="37121" data-name="Mitchell County" d="M942,262l12,45 3,30 20,14 -58,39 -4,-41 -1,-9h-7l-10,-38 -38,-12 -17,-23 -26,7v-1l24,-20 54,-18Z"/>
    <path data-fips-int="37123" data-name="Montgomery County" d="M1802,543l25,118 33,42 -58,-6 -33,-3 -40,12 -44,6 10,-14 -18,-38 7,-64 -37,-50h42Z"/>
    <path data-fips-int="37125" data-name="Moore County" d="M2021,636l-15,18 49,35 -2,8 -10,3 -45,-21 -10,7 -70,72 -38,-10h-3l-17,-45 -33,-42 -25,-118 80,-1 76,-2 -3,23 32,51Z"/>
    <path data-fips-int="37127" data-name="Nash County" d="M2557,242l7,1 3,-1 3,-3 -3,3 -43,130 -135,65 -23,-39v-1v-2l88,-176h2l5,7 5,4 20,-4 16,19 28,-2h2l22,-4Z"/>
    <path data-fips-int="37131" data-name="Northampton County" d="M2763,55l2,1 12,10h8l7,4v1l1,4 2,-1 2,1 -2,8 -2,2 -13,1 -30,105 -33,19 3,18 -35,-17 -23,-53 -38,11 -17,-15 13,-38 -35,-28 -45,1 -48,-12v1v-1l-1,-16 271,-7Z"/>
    <path data-fips-int="37135" data-name="Orange County" d="M1992,206h38l75,1 -24,173 -86,-5 -5,-35Z"/>
    <path data-fips-int="37137" data-name="Pamlico County" d="M3029,612l4,43 -35,24 11,10 -18,37 -75,50 -55,-36 4,-18v-7v-1l-17,-14 5,-30 27,-25 20,16 78,-11 7,-19 3,-25Z"/>
    <path data-fips-int="37139" data-name="Pasquotank County" d="M3081,187l-25,-18 -28,-46 -19,-61 34,25 20,12h11l35,24 2,9 5,5 -2,4 15,5 -13,8v1l50,43 10,26 -42,12 -41,-42 -7,-2Z"/>
    <path data-fips-int="37141" data-name="Pender County" d="M2479,903l111,-5 44,111 21,16 -83,69h-2v-3l-30,-39 -41,13v-2v-1v1v2l-37,14h-1l-49,-11 -33,-15h-2l-1,-3v-1l26,-26 -26,-22v-23l51,-77v-1l15,-1 15,-2 2,1Z"/>
    <path data-fips-int="37143" data-name="Perquimans County" d="M3081,187l5,5 7,2 36,50 -65,-12 22,19 -67,5 -1,1 -2,1 -30,-10 -8,-62 10,-50 40,-13 28,46Z"/>
    <path data-fips-int="37145" data-name="Person County" d="M2160,67v141l-55,-1 -75,-1 3,-138Z"/>
    <path data-fips-int="37147" data-name="Pitt County" d="M2765,573l-23,31 -15,-12 -35,18 -28,-26v-1l-5,-12 -10,-41 -42,-22 -35,-39 17,-12 98,-73 15,5 63,35 3,3 -1,23 1,-1 7,25 27,32v1l-4,4 -28,14Z"/>
    <path data-fips-int="37149" data-name="Polk County" d="M852,613l15,-26 38,-7 69,69 1,35 -120,-8 -24,3 11,-54Z"/>
    <path data-fips-int="37151" data-name="Randolph County" d="M1885,365v26l-3,151 -80,1 -113,3 8,-191Z"/>
    <path data-fips-int="37153" data-name="Richmond County" d="M1802,697l58,6 17,45h3l38,10v1l-43,23 -2,28 -16,52 -25,6 -90,-1 30,-47 -12,-62 -16,-33 -27,14 -32,-27 44,-6 40,-12Z"/>
    <path data-fips-int="37155" data-name="Robeson County" d="M2093,1069l-8,6 -5,8v7l-9,5 -5,4 -148,-151 49,-65 -7,-31 60,2 58,-55 35,21 17,33 5,10ZM2093,1068l10,-13 2,-1 1,-6 2,-15 35,-19 10,-48 2,-4v-1l5,-19 1,-8 -6,-28 -2,-1Z"/>
    <path data-fips-int="37157" data-name="Rockingham County" d="M1897,69l-9,135v3l-186,-7 3,-131Z"/>
    <path data-fips-int="37159" data-name="Rowan County" d="M1494,400l37,24 13,11 42,11 21,41 30,25 10,34 -45,1 -163,-3 -13,-77 25,-82Z"/>
    <path data-fips-int="37161" data-name="Rutherford County" d="M1078,505h2h2l-5,103 -27,81 -75,-5 -1,-35 -69,-69 -38,7 -2,-35 14,-23 25,-3 61,-10 10,13 50,-7 8,-15v-2l27,-15Z"/>
    <path data-fips-int="37163" data-name="Sampson County" d="M2351,642l21,27 32,17 -2,44 10,88 -18,76 33,7 -51,77 -4,-7 -23,-36v-1l-20,-22 -6,-23 -35,-39 -5,-9 -10,-13 -7,-4 -27,-28 -21,-57 16,-77 29,-32 20,24 28,2Z"/>
    <path data-fips-int="37165" data-name="Scotland County" d="M1962,836l-2,16 7,31 -49,65 -86,-80 25,-6 16,-52 2,-28 43,-23 4,5 3,4 30,29Z"/>
    <path data-fips-int="37167" data-name="Stanly County" d="M1684,596l-7,64 18,38 -10,14 -23,-11 -31,6 -20,-19 -30,14 -59,-9 80,-146 45,-1Z"/>
    <path data-fips-int="37169" data-name="Stokes County" d="M1705,69l-3,131 -156,-2 6,-133Z"/>
    <path data-fips-int="37171" data-name="Surry County" d="M1552,65l-6,133v9l-32,-20 -31,-1 -9,15 -38,-5 -45,12 2,-43 -35,-33 -4,-23 29,-51Z"/>
    <path data-fips-int="37173" data-name="Swain County" d="M523,521h-9l-53,17 2,66 -130,19 -5,-18 40,-25 3,-28 -106,-9 -30,-8 25,-24 50,-20 96,4 20,-22 57,-18 17,-18 26,13Z"/>
    <path data-fips-int="37175" data-name="Transylvania County" d="M746,698l-80,35v-10l-83,24 -19,-13 30,-37 25,-70 19,-10 15,-2 33,-47 45,54Z"/>
    <path data-fips-int="37177" data-name="Tyrrell County" d="M3146,432l-3,11 -10,29 -35,2 8,-38 -45,-1 -7,-44 19,-33 -5,-33 70,-30h41l-3,38 21,-8 -16,29 8,85Z"/>
    <path data-fips-int="37179" data-name="Union County" d="M1581,702l30,-14 -17,175 -183,-3 8,-54 -23,-30 23,-14 88,-80 15,11Z"/>
    <path data-fips-int="37181" data-name="Vance County" d="M2279,74h2v-1l3,-4 2,-4 48,-1 20,109 -12,18 -26,15 -17,33h-11l-15,-5 -5,-14 -2,-119 7,-24Z"/>
    <path data-fips-int="37183" data-name="Wake County" d="M2256,305l45,20 40,37 25,33v2v1l-77,52 -91,87 -77,-28 -30,-13 32,-119h27l10,-28 18,5 21,-44 -20,-27 22,-2Z"/>
    <path data-fips-int="37185" data-name="Warren County" d="M2491,61l1,16v1l-3,58 -33,83h-2l-13,-6 -20,3 -29,-20 -50,-5 12,-18 -20,-109Z"/>
    <path data-fips-int="37187" data-name="Washington County" d="M2920,363v-1l23,-29 58,-8 50,-21 17,21 5,33 -19,33 7,44 -91,-1 -79,2Z"/>
    <path data-fips-int="37189" data-name="Watauga County" d="M1167,203l6,17 -31,39 -99,1 -6,-26 -30,-21 3,-19 -7,-15 24,-22 56,1 -8,-26 33,19 25,36Z"/>
    <path data-fips-int="37191" data-name="Wayne County" d="M2529,507v68l8,25 -8,89 -24,13 -56,-19 -45,3 -32,-17 -21,-27 35,-26 20,-3v-33l33,-77 90,-2Z"/>
    <path data-fips-int="37193" data-name="Wilkes County" d="M1191,183l22,-32 38,-4 34,-30 26,-4 22,29 25,-10 35,33 -2,43 -3,83 -55,4 -72,6 -40,15 -21,-22 -4,1 -5,-14 -21,-7 -28,-15 31,-39 -6,-17 9,-7Z"/>
    <path data-fips-int="37195" data-name="Wilson County" d="M2589,457l-17,12 -43,38v-6l-90,2 -25,-10 -25,-56 135,-65 30,17 11,45Z"/>
    <path data-fips-int="37197" data-name="Yadkin County" d="M1546,207l6,13v35l-26,13 5,28 -73,-2 -70,-3 3,-83 45,-12 38,5 9,-15 31,1Z"/>
    <path data-fips-int="37199" data-name="Yancey County" d="M859,290l38,12 10,38h7l1,9 4,41 -5,9 -17,31 -32,14 -21,-21 -2,-25 -26,-8 -27,-42h-2l-5,-32 34,-42 26,-7Z"/>
    <path data-fips-int="37019" data-name="Brunswick County" d="M2263,1207l1,-7 5,-23 2,-10h35l26,-28 45,-5 35,-66 49,11h1l10,23 20,20 -1,21 8,59 -7,42 -6,7 -22,27 -42,-6 -101,7 -57,17 -35,-35 4,-3v-28l23,-14Z"/>
    <path data-fips-int="37029" data-name="Camden County" d="M3076,41l88,89 2,1h1h4l20,3 23,24v45l-98,-48v-1l13,-8 -15,-5 2,-4 -5,-5 -2,-9 -35,-24h-11l-20,-12 -34,-25 -18,-18Z"/>
    <path data-fips-int="37031" data-name="Carteret County" d="M3108,750l8,22 -40,50 -7,-14 -36,68 1,1 -1,-1 3,1h-2v1l-28,8 -18,-43 -5,54 -13,-6 3,-3v-2v-3l-67,3 -94,28 -22,-43 -2,1h-1v-1l-2,-8 -2,-2 15,-2 15,-4v-1l48,-5 29,-17 48,-2 27,-24 1,-32 37,-5 51,-40 -1,53 55,-32h3Z"/>
    <path data-fips-int="37041" data-name="Chowan County" d="M3016,258l2,-1 1,-1 29,9 -39,29 -34,-21 -32,-4 -12,-40 12,-68 7,-7h1l37,-18 -10,50 8,62Z"/>
    <path data-fips-int="37053" data-name="Currituck County" d="M3282,180l-21,-33v-6l-22,-59v-2l-3,-32v-1l10,17ZM3222,36l4,25 -29,1 -8,-26ZM3217,167l-3,-9 -23,-24 -20,-3h-4h-1l-2,-1 -88,-89 101,-3 -1,21 21,43 54,56 5,31 3,7 17,58 -59,-84v-2Z"/>
    <path data-fips-int="37055" data-name="Dare County" d="M3400,433l12,36 -8,95 -12,75h-37l-46,21v-3l56,-35 30,-8 14,-143ZM3317,314l28,28 2,30 -43,-57ZM3252,457l-1,-2 -7,-14 -42,2 9,-42 -4,-61 29,-20 50,-2 20,57 8,52 -23,5 16,23 -31,30ZM3319,285v-4v-2v-1l-22,-11 -15,-87 19,49 78,148 -15,-6 -12,-47Z"/>
    <path data-fips-int="37095" data-name="Hyde County" d="M3061,435l45,1 -8,38 35,-2 10,-29 3,-11 46,21 10,-10 42,-2 7,14 1,2 4,26 -42,33 -10,45 -33,28 -40,8 -53,-17 -24,-30 -16,35 -25,-12 -22,-49 43,-3 -8,-27 -7,-4 -33,-16 -16,-40Z"/>
    <path data-fips-int="37129" data-name="New Hanover County" d="M2570,1091v3h2h8l2,2 -43,49 -7,11 -13,44 -12,7 -16,-64 1,-21 -20,-20 -10,-23 37,-14v-2v-1v1v2l41,-13Z"/>
    <path data-fips-int="37133" data-name="Onslow County" d="M2705,806l40,-7 28,50 10,12v2h2l2,8v1h1l2,-1 15,32 -17,19 -3,4 -10,6 -32,34 -21,6 -2,-39 -25,-42 -10,21 22,26 -27,9 42,32 -67,46 -21,-16 -44,-111 10,-95 -10,-21h65Z"/>
  </g>
  <path class="mesh" transform="scale(0.1)" d="M2376,1050l-30,15 -42,-4 -68,-34 -10,-2 -70,-2 -13,-9 10,-48 2,-4v-1l5,-19 1,-8 -6,-28 -2,-1M2920,363l-29,73 79,-2 16,40 33,16 7,4M310,679l-3,-2h-9l-6,5 -14,3 -3,-1 -53,42 -15,26M203,611l25,35 22,-7 20,-7h5l50,3v1v1l-15,42h18l23,14 44,60 1,1 7,3M1003,179l7,15 -3,19 30,21 6,26 25,19 -26,49 11,9 7,8 17,24 41,25 17,22 71,5 -64,91 -2,2 12,9 16,58 35,39 17,35 -5,44M2943,333l-23,29 -29,-7 -13,32 -25,-40 -35,22 -8,-38 -53,3 -4,-32 -46,-30 36,-14 -23,-30 -3,-18 33,-19 88,2 90,-6M2153,905l-18,-42 -5,-10 21,-7 132,-5 5,9 35,39 6,23 20,22v1l23,36 4,7v23l26,22 -26,26v1l1,3h2l33,15 -35,66 -45,5 -26,28h-35l-2,10 -5,23 -1,7M2093,1069l-8,6 -5,8v7l-9,5 -5,4M2229,1261l4,-3v-28l23,-14 7,-8M2965,806l-27,24 -48,2 -29,17 -48,5 7,-8 -15,-5 -7,-110M2985,631l-7,19 -78,11 -20,-16 -27,25 -5,30 17,14v1v7M2792,731l-7,5 -123,-74 20,-14 3,-34 7,-4 35,-18 15,12 23,-31M2184,655l50,7 -16,77 21,57 27,28 7,4 10,13M2130,853l-17,-33 -35,-21 -22,-41 -3,-61 2,-8 75,-19 43,-15h10h1M1531,296l-5,-28 26,-13v-35l-6,-13v-9l156,2 -5,113v1v41l-8,191h-42l-10,-34 -30,-25 -21,-41 -42,-11 -7,-39 30,-5 10,-23 -10,-38 67,-11v-13l63,7M1544,435l-13,-11 -37,-24 -43,-15 7,-91 73,2 13,-4 23,38M2505,702l24,-13 25,14 15,63 21,16 10,21 -10,95 -111,5 -20,-5 -2,-1 -15,2 -15,1v1l-33,-7 18,-76 -10,-88 2,-44 45,-3 56,19M1383,58l-29,51 4,23 -25,10 -22,-29 -26,4 -34,30 -6,-38 -30,-46v-13M1594,863l17,-175 20,19 31,-6 23,11 32,27 27,-14 16,33 12,62 -30,47M2614,263h3l2,1 15,12 -4,3 4,6 1,1v4l47,15 21,44 -1,40 -15,-5 -98,73 -24,-23 -11,-45 -30,-17 43,-130 3,-3M2392,196l29,20 20,-3 13,6 -88,176v2v-2l-25,-33 -40,-37 -45,-20 17,-71 15,5h11l17,-33 26,-15 50,5M1168,581l188,11 -23,63 -7,53M2991,44l18,18 19,61 -40,13 -37,18h-1l-7,7M2848,116l5,-64M2279,75l-6,2 -7,24 2,119 5,14M2256,305l-55,-24 -22,2M2160,208v-141M2286,65l-2,4 -3,4v1h-2M1885,365l-188,-10M1702,200l186,7M1191,184l-15,12 -9,7 -34,-16 -25,-36 -33,-19M1251,147l-38,4 -22,32M2557,241l-3,-2 -22,4h-2l-28,2 -16,-19 -20,4 -5,-4 -5,-7h-2h2l33,-83 3,-58v-1l48,12 45,-1 35,28 -13,38 17,15 38,-11 23,53 35,17M2707,272l-25,33M1995,375l86,5 42,-3 -32,119 30,13 77,28 18,10 47,83 -29,32M2033,68l-3,138h-38l-2,134 5,35 5,14 -115,2v-26l3,-158v-3l104,2M682,441l14,-9 21,-6 85,-32 14,-3v-1l26,8 2,25 21,21 -10,9 17,58 32,15 -25,3 -14,23 -21,-13 -28,11 -52,21 -45,-15 -13,-1 -20,13 -20,-22 15,-44 -32,-23 -11,-29v-1l43,-8h1M746,698l-15,-76 -45,-54 -33,47 -15,2 -19,10 -5,-6 -31,-36 -60,-64 3,-71 -26,-13M852,613l-10,12 -11,54M865,552l2,35 -15,26M2750,191l30,-105 13,-1 2,-2 2,-8 -2,-1 -2,1 -1,-4v-1l-7,-4h-8l-12,-10 -2,-1 -1,-1M1962,835l-7,-38 -30,-29 -3,-4 -4,-5v-1l70,-72 10,-7 45,21 10,-3M2078,799l-58,55 -60,-2 2,-16M1333,295l55,-4 70,3M544,759l-38,-74 -10,-35 -15,1 -18,-47 -2,-66 53,-17h9M619,627l-25,70 -30,37 19,13M1140,514l-27,-2 -31,-7h-2h-2M2198,537l91,-87 77,-52 23,39 25,56 25,10 -33,77v33l-20,3 -35,26 -40,14 -28,-2 -20,-24M2813,854v1l-15,4 -15,2 -10,-12 -28,-50 -40,7 -50,-24h-65M2569,766l48,-30 35,-47 -8,-34 18,7M2659,571l-39,23 -36,15 -9,-15 -38,6 -8,-25v-68l43,-38 35,39 42,22 10,41 5,12v1l28,26M2529,689l8,-89M1359,552l-3,40M1033,507l-8,15 -50,7 -10,-13 -61,10M865,444l32,-14 17,-31 5,-9 58,-39M333,623l130,-19M782,316l5,32h2l27,42M1042,328l-34,-17 -16,17 -15,23 -20,-14 -3,-30 -12,-45M2768,427l-3,-3 -63,-35M2920,362v1M1507,682l-88,80 -23,14M919,390l-4,-41 -1,-9h-7l-10,-38 -38,-12 -17,-23 -26,7M1043,260l99,-1 28,15 21,7 5,14 4,-1 21,22 40,-15 72,-6 8,40 -15,48 -26,34 -10,-23 -72,14 -12,13M1888,204l9,-135M1918,758l-38,-10h-3l-17,-45M2524,372l-135,65M2366,398v-1M2492,78v-1l-1,-16M2030,206l75,1M3093,194l-7,-2 -5,-5 -25,-18 -28,-46M1300,417l16,32 28,4 19,42 -7,29 -214,-12M3009,62l34,25 20,12h11l35,24M2590,898l44,111 21,16M2121,509l-21,28 -30,-34 -35,-12 -20,30 -57,19 -76,2 3,-151M2570,1094v-3l-30,-39 -41,13v-2v-1v1v2l-37,14h-1l-49,-11M2376,978l51,-77M3018,257l-2,1 -30,-10 -8,-62 10,-50M2572,469l17,-12M867,587l38,-7 69,69 1,35M2880,645l-24,-20 -91,-53 5,-47 28,-14M1918,759l-43,23 -2,28 -16,52 -25,6M1918,948l49,-65 -7,-31M1702,200l3,-131M1689,546l113,-3 25,118 33,42 -58,-6 -33,-3 -40,12 -44,6 10,-14 -18,-38 7,-64 -37,-50 -45,1M2351,642l21,27 32,17M1611,688l-30,14 -59,-9M1546,198l6,-133M1546,207l-32,-20 -31,-1 -9,15 -38,-5 -45,12 2,-43 -35,-33M3146,432l-3,11 -10,29 -35,2 8,-38 -45,-1 -7,-44 19,-33 -5,-33M2334,64l20,109 -12,18M3061,435l-91,-1M1167,203l6,17 -31,39M2439,503l90,-2v6M1391,208l-3,83M2462,1079l10,23 20,20 -1,21M1218,408l-3,-59 6,-33M3076,41l88,89 2,1h1h4l20,3M2787,872v-1l-2,-8M2783,861M3251,455l-7,-14 -42,2M2802,506l-27,-32 -7,-25 -1,1 1,-23 73,33 50,-24M1050,689l27,-81 5,-103M2093,1068l10,-13 2,-1 1,-6 2,-15 35,-19M235,535l30,8 106,9 -3,28 -40,25 5,18 -8,12v1M2055,689l-49,-35 15,-18 79,-99M611,397l2,15 25,37M1078,504l-18,-14 -27,15v2l-16,-68 -43,-40 26,-19 -8,-52M1451,385l-25,82 13,77M1419,544h20l163,3 -80,146 -15,-11 -43,-27 -8,-35 -28,-26 -9,-50 -45,-4 -15,12 -3,-28M2021,636l-34,-22 -32,-51 3,-23M1802,543l80,-1M2165,280M2160,208l5,72M2165,280l14,3M2179,283l20,27 -21,44 -18,-5 -10,28h-27M2081,380l24,-173M2105,207l55,1"/>
  <g class="cities">
    <circle r="3" cx="139.8" cy="67.3"/>
    <text x="139.8" y="67.3">Charlotte</text>
    <circle r="3" cx="222.3" cy="42.1"/>
    <text x="222.3" y="42.1">Raleigh</text>
    <circle r="3" cx="179.2" cy="28.6"/>
    <text x="179.2" y="28.6">Greensboro</text>
  </g>
</svg>