<?xml version="1.0" encoding="utf-8"?>
<!DOCTYPE svg PUBLIC "-//W3C//DTD SVG 1.1//EN" "http://www.w3.org/Graphics/SVG/1.1/DTD/svg11.dtd">
<svg version="1.1" xmlns="http://www.w3.org/2000/svg" width="350" height="210" viewBox="0 0 350 210">
  <defs>
    <pattern id="pattern-no-results" width="50" height="50" patternUnits="userSpaceOnUse">
      <rect width="50" height="50" fill="#ddd"/>
      <path d="M-5,5L5,-5M-5,55L55,-5M45,55L55,45" stroke-width="10" stroke="#666666"/>
    </pattern>
  </defs>
  <g class="counties" transform="scale(0.1)">
    <path data-fips-int="38001" data-name="Adams County" d="M1000,1869l-2,97 -2,69 -64,-1 -119,-3 -95,-3 -165,-5 6,-144 2,-71 31,1 59,2 60,1 70,2 -2,49 157,5Z"/>
    <path data-fips-int="38003" data-name="Barnes County" d="M2765,1200l111,-3 5,130 0,37 11,0 2,42 1,61 4,80 0,39 -70,3 -84,2 -178,4 -2,-71 0,-58 -2,-27 -2,-66 -12,0 -3,-167 53,-1 107,-3Z"/>
    <path data-fips-int="38007" data-name="Billings County" d="M539,1138l29,1 -5,114 -3,108 -87,-3 -3,98 -5,126 -82,-3 -84,-4 5,-119 2,-31 2,-73 -24,-2 0,-15 5,-91 4,-117 38,3 97,4Z"/>
    <path data-fips-int="38009" data-name="Bottineau County" d="M1800,91l0,60 0,120 16,0 0,110 -56,1 -54,0 0,-56 -76,0 -68,0 -45,-2 -88,0 0,56 -165,-2 2,-111 -20,-1 2,-63 1,-116 180,3 157,1Z"/>
    <path data-fips-int="38011" data-name="Bowman County" d="M553,2023l-217,-8 -138,-7 -37,-1 -74,-4 2,-56 4,-63 4,-94 188,8 124,5 20,1 109,4 23,0 -2,71Z"/>
    <path data-fips-int="38013" data-name="Burke County" d="M1029,84l-3,122 -54,-1 -2,56 -34,-1 -3,83 0,28 -120,-3 -56,-2 -100,-3 2,-56 2,-55 -22,-1 3,-131 2,-47 129,4 203,6Z"/>
    <path data-fips-int="38015" data-name="Burleigh County" d="M1832,1160l0,221 17,0 -1,34 0,77 0,9 -1,103 -255,-1 1,-9 9,-11 -6,-8 -18,6 -10,8 -12,-5 4,-8 -8,-11 -14,3 -6,-15 12,-8 -4,-8 -17,1 -8,-13 10,-32 -6,-11 -15,-9 -1,-11 -11,-21 -9,-14 5,-13 -2,-11 -14,-15 2,-9 17,-13 7,-8 -2,-18 -21,-27 -5,-35 -8,-10 94,0 0,-109 33,1 22,0Z"/>
    <path data-fips-int="38017" data-name="Cass County" d="M2986,1194l66,-2 154,-7 49,-1 1,18 -6,9 9,4 1,14 -7,10 7,10 6,20 -3,20 3,13 -2,12 4,5 -10,11 8,4 0,21 12,2 -3,6 5,6 4,14 10,-7 2,11 -8,14 4,1 -6,21 5,13 -11,14 3,19 6,7 1,30 2,6 -4,12 4,10 -6,22 4,3 -3,12 -148,7 -64,2 -91,4 -85,2 0,-39 -4,-80 -1,-61 -2,-42 -11,0 0,-37 -5,-130 47,-1Z"/>
    <path data-fips-int="38019" data-name="Cavalier County" d="M2736,76l2,51 1,50 3,80 9,-1 3,112 -108,3 -57,1 -116,3 -160,2 0,-66 -2,-44 -12,0 -1,-27 -2,-154 156,-2 102,-3Z"/>
    <path data-fips-int="38021" data-name="Dickey County" d="M2752,1813l11,0 2,58 2,78 2,85 -143,4 -69,1 -161,2 -70,1 0,-66 -2,-153 46,-1 123,-2 97,-3 97,-2Z"/>
    <path data-fips-int="38023" data-name="Divide County" d="M644,73l-2,47 -3,131 22,1 -2,55 -101,-3 -132,-5 -92,-4 -93,-4 -72,-4 4,-86 1,-43 3,-40 2,-64 165,8 156,6Z"/>
    <path data-fips-int="38025" data-name="Dunn County" d="M855,873l5,-3 7,-18 6,-6 9,1 27,13 1,10 -14,6 2,10 10,9 -3,37 1,32 9,9 15,19 -2,61 -2,97 26,0 -5,203 -166,-4 0,19 -83,-3 -59,-1 -79,-3 3,-108 5,-114 -29,-1 3,-78 1,-39 2,-36 2,-68 34,1 162,5 1,-20 2,-75 7,11 27,18 19,-2 10,3 14,12 20,7Z"/>
    <path data-fips-int="38029" data-name="Emmons County" d="M1847,1604l72,0 0,207 1,16 17,0 0,1 0,217 -95,0 -185,-1 2,-11 -11,-25 -11,-4 -25,-38 -2,-14 1,-17 -6,-10 0,-10 16,-32 8,-8 8,-18 0,-8 -10,-16 14,-36 0,-17 -4,-15 -14,-30 -4,-15 8,-36 7,-11 -7,-27 0,-9 7,1 -1,-9 -25,-12 -16,-14Z"/>
    <path data-fips-int="38031" data-name="Foster County" d="M2527,985l0,54 4,113 -129,2 -145,3 -58,0 -2,-108 0,-58 196,-3Z"/>
    <path data-fips-int="38033" data-name="Golden Valley County" d="M293,1127l-4,117 -5,91 0,15 24,2 -2,73 -2,31 -5,119 -84,-3 -2,56 -107,-5 4,-124 3,-30 3,-69 8,-159 0,-30 4,-51 2,-41 91,5Z"/>
    <path data-fips-int="38035" data-name="Grand Forks County" d="M3096,579l-3,4 4,18 8,0 -10,10 6,4 16,32 -2,8 12,13 6,23 1,12 5,3 -3,17 3,13 17,15 -3,9 2,22 8,2 4,17 9,10 0,10 -6,2 15,10 -3,5 9,4 7,13 -1,12 7,8 -6,4 9,6 7,21 -2,2 -117,5 -128,5 -177,6 -2,-74 -1,-70 -3,-79 -10,0 -3,-111 86,-3Z"/>
    <path data-fips-int="38037" data-name="Grant County" d="M1421,1825l-4,9 -14,-3 -2,12 -6,0 2,16 -8,11 -11,7 -11,0 -2,7 -8,0 -4,19 4,9 -10,-5 -7,11 -5,-4 -12,8 -11,-2 -9,6 7,7 -18,20 -8,5 -16,-3 -8,5 -10,11 -16,2 -2,-6 -13,12 6,7 -6,4 -17,-6 4,9 -11,5 -11,-10 -5,6 -10,-3 -5,-11 -10,4 0,10 -18,0 -1,-4 -15,-6 -3,-5 -8,5 -1,-8 -8,5 -13,-2 -1,7 -23,-15 3,-11 -19,1 -6,4 -16,-7 -9,11 -6,-4 -2,5 -10,-4 2,-97 1,-50 -21,0 1,-111 1,-52 0,-59 -20,-1 2,-55 116,2 50,0 -1,57 183,3 0,54 -2,111 111,2Z"/>
    <path data-fips-int="38039" data-name="Griggs County" d="M2747,925l2,61 1,75 3,85 10,0 2,54 -59,2 -107,3 -53,1 -1,-55 -14,1 -4,-113 0,-54 -2,-54Z"/>
    <path data-fips-int="38041" data-name="Hettinger County" d="M962,1596l20,1 0,59 -1,52 -1,111 21,0 -1,50 -64,-1 -157,-5 2,-49 -70,-2 -60,-1 -59,-2 1,-60 4,-100 1,-63 104,4 127,4Z"/>
    <path data-fips-int="38043" data-name="Kidder County" d="M2106,1158l0,114 2,108 15,-1 1,76 0,143 0,5 -26,0 -179,1 -72,0 1,-103 0,-9 0,-77 1,-34 -17,0 0,-221 34,0 123,0Z"/>
    <path data-fips-int="38045" data-name="LaMoure County" d="M2745,1591l2,46 2,130 3,46 -65,2 -97,2 -97,3 -123,2 -46,1 -15,0 -2,-59 0,-46 -1,-49 -1,-68 45,-1 134,-3 83,-2Z"/>
    <path data-fips-int="38047" data-name="Logan County" d="M2124,1603l181,-2 1,68 1,49 0,46 2,59 -16,1 -294,3 -62,0 -17,0 -1,-16 0,-207 179,-1Z"/>
    <path data-fips-int="38049" data-name="McHenry County" d="M1760,382l0,99 1,12 17,0 0,223 16,0 0,112 -165,0 -166,-2 1,-111 -19,-1 2,-142 0,-81 -18,0 0,-56 0,-55 0,-56 88,0 45,2 68,0 76,0 0,56Z"/>
    <path data-fips-int="38051" data-name="McIntosh County" d="M2309,1823l15,0 2,153 0,66 -194,3 -89,0 -36,0 -70,0 0,-217 0,-1 62,0 294,-3Z"/>
    <path data-fips-int="38053" data-name="McKenzie County" d="M672,634l10,3 19,-6 9,5 0,12 -8,5 22,5 18,8 -3,18 4,5 12,2 6,-5 8,6 0,15 19,10 -9,22 -21,20 -13,19 -4,19 1,17 4,14 -2,75 -1,20 -162,-5 -34,-1 -2,68 -2,36 -1,39 -3,78 -111,-4 -97,-4 -38,-3 -72,-3 -91,-5 6,-130 4,-81 2,-35 6,-101 3,-78 8,5 7,15 11,-11 16,7 10,12 19,-6 9,-18 0,-12 12,10 2,14 6,-7 8,-15 0,-24 10,-3 10,11 16,-11 0,-6 -14,-15 12,-11 21,-8 16,8 15,-14 4,7 -9,6 8,12 17,5 -3,8 -13,11 -1,8 8,7 15,0 9,16 -4,7 19,5 6,-4 -2,-14 19,-8 20,7 27,-10 7,3 12,-15 10,2 7,-5 -2,-9 -8,-4 7,-13 13,-15 27,-2 17,-5 6,2 1,12 9,-4 17,-2 8,3 19,-3 15,10 14,0 12,-8Z"/>
    <path data-fips-int="38055" data-name="McLean County" d="M1629,828l-1,32 0,79 -37,-1 -1,7 0,94 0,1 0,119 -1,1 -33,-1 0,109 -94,0 -9,-15 -3,-12 9,-23 -4,-11 -16,-17 -15,-9 -31,-1 -25,8 -7,23 -12,-4 -14,-10 -9,-8 -30,-12 2,-10 -8,-22 2,-12 -12,-10 -6,-11 -4,-24 -12,-18 0,-9 12,-13 14,-7 5,-10 -11,-9 -14,-15 -8,-2 -14,6 -8,-1 -27,11 -33,6 -21,-7 -9,0 -15,5 -30,20 -11,2 -15,-7 -10,-1 -17,-15 -13,-6 -27,-1 3,-14 -4,-7 -13,1 -8,-3 -35,5 -19,-7 -15,-19 -9,-9 -1,-32 3,-37 -10,-9 -2,-10 14,-6 -1,-10 -27,-13 -9,-1 -6,6 -7,18 -5,3 2,-57 73,1 147,4 137,2 34,0 169,3 46,0Z"/>
    <path data-fips-int="38057" data-name="Mercer County" d="M1335,1197l0,16 -219,-4 -2,70 -1,96 -145,-3 -21,0 0,-19 5,-203 -26,0 2,-97 2,-61 19,7 35,-5 8,3 13,-1 4,7 -3,14 27,1 13,6 17,15 10,1 15,7 11,-2 30,-20 15,-5 9,0 21,7 33,-6 27,-11 8,1 14,-6 8,2 14,15 11,9 -5,10 -14,7 -12,13 0,9 12,18 4,24 6,11 12,10 -2,12 8,22 -2,10 30,12Z"/>
    <path data-fips-int="38059" data-name="Morton County" d="M1474,1379l-2,9 14,15 2,11 -5,13 9,14 11,21 1,11 15,9 6,11 -10,32 8,13 17,-1 4,8 -12,8 6,15 14,-3 8,11 -4,8 12,5 10,-8 18,-6 6,8 -9,11 -1,9 16,14 25,12 1,9 -7,-1 0,9 7,27 -7,11 -8,36 4,15 -16,1 0,4 -17,8 -4,-4 -8,10 -8,1 2,7 -8,3 -5,-6 -15,-6 -2,5 -17,3 -18,-6 -13,0 0,-9 -6,9 -10,0 -4,11 -5,1 -2,17 -8,1 -3,12 -7,0 -5,9 -9,-4 1,9 -5,18 -10,-4 0,-55 -111,-2 2,-111 0,-54 -183,-3 1,-57 -50,0 -116,-2 2,-94 2,-75 145,3 201,4Z"/>
    <path data-fips-int="38061" data-name="Mountrail County" d="M1077,821l-147,-4 -73,-1 -2,57 -12,4 -20,-7 -14,-12 -10,-3 -19,2 -27,-18 -7,-11 -4,-14 -1,-17 4,-19 13,-19 21,-20 9,-22 -19,-10 0,-15 -8,-6 -6,5 -12,-2 -4,-5 3,-18 -18,-8 -22,-5 8,-5 0,-12 -9,-5 -19,6 -10,-3 2,-40 4,-119 -24,-1 3,-111 100,3 56,2 120,3 62,2 48,0 -2,112 21,0 -3,157 -2,66 22,1 -1,78Z"/>
    <path data-fips-int="38063" data-name="Nelson County" d="M2771,590l3,111 10,0 3,79 1,70 2,74 -43,1 -222,6 -11,0 -3,-111 0,-44 -2,-68 44,-1 -2,-111 55,-1 112,-3Z"/>
    <path data-fips-int="38065" data-name="Oliver County" d="M1462,1268l8,10 5,35 21,27 2,18 -7,8 -17,13 -160,0 -201,-4 1,-96 2,-70 219,4 0,-16 14,10 12,4 7,-23 25,-8 31,1 15,9 16,17 4,11 -9,23 3,12Z"/>
    <path data-fips-int="38067" data-name="Pembina County" d="M3078,356l-3,1 -79,2 -91,4 -151,5 -3,-112 -9,1 -3,-80 -1,-50 -2,-51 123,-4 179,-7 -3,22 3,12 8,11 2,15 9,6 -4,10 10,5 2,22 -6,14 14,3 -10,7 15,12 -5,3 6,7 -4,5 8,5 0,15 12,13 -4,3 9,11 1,13 -3,20 -9,2 6,5 -14,18 2,13 -11,6Z"/>
    <path data-fips-int="38069" data-name="Pierce County" d="M2092,380l0,65 2,46 -151,2 0,160 1,63 15,0 1,111 -110,1 -56,0 0,-112 -16,0 0,-223 -17,0 -1,-12 0,-99 56,-1 166,0Z"/>
    <path data-fips-int="38071" data-name="Ramsey County" d="M2409,741l-11,14 -4,-3 7,-11ZM2589,372l3,111 11,0 3,112 -55,1 2,111 -44,1 2,68 -39,0 -7,-2 3,-11 -16,-16 -5,-24 -11,-2 -11,4 -6,12 -11,-12 -9,-2 -1,-18 -6,-10 -1,-9 -11,-2 -6,11 -18,14 -2,10 -6,-10 -7,3 1,10 -6,5 -11,-3 -14,7 1,-16 -3,-1 -4,-22 -10,1 -18,19 -2,-55 -16,1 -11,-23 -7,3 -18,-6 -4,-6 0,-40 -2,-96 98,-2 -2,-111 160,-2Z"/>
    <path data-fips-int="38073" data-name="Ransom County" d="M2899,1586l85,-2 91,-4 5,111 4,111 -296,10 -25,1 -11,0 -3,-46 -2,-130 -2,-46 84,-2Z"/>
    <path data-fips-int="38075" data-name="Renville County" d="M1429,380l0,55 -56,0 -152,-2 -124,-3 1,-62 3,-104 -76,-2 1,-56 3,-122 220,3 -1,116 -2,63 20,1 -2,111Z"/>
    <path data-fips-int="38077" data-name="Richland County" d="M3116,2023l-2,-37 -14,-4 -3,-87 -4,-93 -9,0 -4,-111 -5,-111 64,-2 148,-7 13,9 -3,6 14,15 3,29 5,18 -1,12 11,14 0,21 11,7 11,20 2,10 9,7 0,8 7,-3 14,15 0,19 4,14 -2,7 7,12 -6,5 2,13 6,12 -1,14 5,2 -1,16 10,23 2,10 0,28 -6,13 4,43 4,20 -68,2 -120,6 -21,1Z"/>
    <path data-fips-int="38079" data-name="Rolette County" d="M2076,90l1,179 14,1 1,99 0,11 -110,1 -166,0 0,-110 -16,0 0,-120 0,-60 141,0Z"/>
    <path data-fips-int="38081" data-name="Sargent County" d="M3084,1802l9,0 4,93 3,87 14,4 2,37 -89,3 -9,1 -143,5 -106,2 -2,-85 -2,-78 -2,-58 25,-1Z"/>
    <path data-fips-int="38083" data-name="Sheridan County" d="M1794,828l56,0 0,76 0,35 16,0 0,28 0,193 -34,0 -221,0 -22,0 1,-1 0,-119 0,-1 0,-94 1,-7 37,1 0,-79 1,-32Z"/>
    <path data-fips-int="38085" data-name="Sioux County" d="M1623,1735l14,30 4,15 0,17 -14,36 10,16 0,8 -8,18 -8,8 -16,32 0,10 6,10 -1,17 2,14 25,38 11,4 11,25 -2,11 -61,0 -118,-1 -65,0 -18,-1 -156,-1 -61,-2 -87,-1 -95,-3 2,-69 10,4 2,-5 6,4 9,-11 16,7 6,-4 19,-1 -3,11 23,15 1,-7 13,2 8,-5 1,8 8,-5 3,5 15,6 1,4 18,0 0,-10 10,-4 5,11 10,3 5,-6 11,10 11,-5 -4,-9 17,6 6,-4 -6,-7 13,-12 2,6 16,-2 10,-11 8,-5 16,3 8,-5 18,-20 -7,-7 9,-6 11,2 12,-8 5,4 7,-11 10,5 -4,-9 4,-19 8,0 2,-7 11,0 11,-7 8,-11 -2,-16 6,0 2,-12 14,3 4,-9 10,4 5,-18 -1,-9 9,4 5,-9 7,0 3,-12 8,-1 2,-17 5,-1 4,-11 10,0 6,-9 0,9 13,0 18,6 17,-3 2,-5 15,6 5,6 8,-3 -2,-7 8,-1 8,-10 4,4 17,-8 0,-4Z"/>
    <path data-fips-int="38087" data-name="Slope County" d="M598,1586l-1,63 -4,100 -1,60 -31,-1 -23,0 -109,-4 -20,-1 -124,-5 -188,-8 3,-57 1,-28 5,-82 107,5 2,-56 84,3 84,4 82,3Z"/>
    <path data-fips-int="38089" data-name="Stark County" d="M947,1353l0,19 21,0 -2,75 -2,94 -2,55 -133,-2 -127,-4 -104,-4 -133,-4 5,-126 3,-98 87,3 79,3 59,1 83,3 0,-19Z"/>
    <path data-fips-int="38091" data-name="Steele County" d="M2790,924l177,-6 1,51 2,40 1,40 3,91 10,-1 2,55 -63,2 -47,1 -111,3 -2,-54 -10,0 -3,-85 -1,-75 -2,-61Z"/>
    <path data-fips-int="38093" data-name="Stutsman County" d="M2199,1157l58,0 145,-3 129,-2 14,-1 1,55 3,167 12,0 2,66 2,27 0,58 2,71 -83,2 -134,3 -45,1 -181,2 0,-5 0,-143 -1,-76 -15,1 -2,-108 0,-114Z"/>
    <path data-fips-int="38095" data-name="Towner County" d="M2313,377l2,111 -98,2 -123,1 -2,-46 0,-65 0,-11 -1,-99 -14,-1 -1,-179 145,-2 75,-2 2,154 1,27 12,0 2,44Z"/>
    <path data-fips-int="38097" data-name="Traill County" d="M3255,1184l-49,1 -154,7 -66,2 -2,-55 -10,1 -3,-91 -1,-40 -2,-40 -1,-51 128,-5 117,-5 2,-2 5,1 0,13 5,21 10,7 3,10 -3,24 4,1 -8,16 4,8 8,-1 -2,11 -8,13 7,13 1,22 -3,5 10,12 -3,10 1,21 7,6 -6,14 7,8 -5,8Z"/>
    <path data-fips-int="38099" data-name="Walsh County" d="M2754,368l151,-5 91,-4 79,-2 3,-1 9,4 -4,11 1,11 9,7 -14,10 7,2 8,13 -9,7 10,-2 2,7 -9,1 8,5 -5,3 4,8 -14,10 11,13 -7,5 14,14 -6,6 10,4 -8,5 6,5 -6,12 9,5 -11,11 8,10 -8,3 0,8 10,3 -12,3 14,6 -10,7 1,6 -239,8 -86,3 -53,2 -112,3 -3,-112 -11,0 -3,-111 57,-1Z"/>
    <path data-fips-int="38101" data-name="Ward County" d="M1026,206l-1,56 76,2 -3,104 -1,62 124,3 152,2 56,0 0,56 18,0 0,81 -2,142 19,1 -1,111 -46,0 -169,-3 -34,0 -137,-2 1,-34 1,-78 -22,-1 2,-66 3,-157 -21,0 2,-112 -48,0 -62,-2 0,-28 3,-83 34,1 2,-56Z"/>
    <path data-fips-int="38103" data-name="Wells County" d="M1960,827l142,0 79,-2 1,111 14,1 1,54 0,58 2,108 -93,1 -117,2 -123,0 0,-193 0,-28 -16,0 0,-35 0,-76Z"/>
    <path data-fips-int="38105" data-name="Williams County" d="M659,307l-2,56 -3,111 24,1 -4,119 -2,40 -16,-9 -12,8 -14,0 -15,-10 -19,3 -8,-3 -17,2 -9,4 -1,-12 -6,-2 -17,5 -27,2 -13,15 -7,13 8,4 2,9 -7,5 -10,-2 -12,15 -7,-3 -27,10 -20,-7 -19,8 2,14 -6,4 -19,-5 4,-7 -9,-16 -15,0 -8,-7 1,-8 13,-11 3,-8 -17,-5 -8,-12 9,-6 -4,-7 -15,14 -16,-8 -21,8 -12,11 14,15 0,6 -16,11 -10,-11 -10,3 0,24 -8,15 -6,7 -2,-14 -12,-10 0,12 -9,18 -19,6 -10,-12 -16,-7 -11,11 -7,-15 -8,-5 10,-240 2,-81 6,-86 72,4 93,4 92,4 132,5Z"/>
    <path data-fips-int="38005" data-name="Benson County" d="M2094,491l123,-1 2,96 0,40 4,6 18,6 7,-3 11,23 16,-1 2,55 18,-19 10,-1 4,22 3,1 -1,16 14,-7 11,3 6,-5 -1,-10 7,-3 6,10 2,-10 18,-14 6,-11 11,2 1,9 6,10 1,18 9,2 11,12 6,-12 11,-4 11,2 5,24 16,16 -3,11 7,2 39,0 0,44 -8,-1 -161,4 -27,0 -75,1 -59,1 -79,2 -142,0 -1,-111 -15,0 -1,-63 0,-160ZM2409,741l-8,0 -7,11 4,3Z"/>
    <path data-fips-int="38027" data-name="Eddy County" d="M2511,820l3,111 11,0 2,54 -134,3 -196,3 -1,-54 -14,-1 -1,-111 59,-1 75,-1 27,0 161,-4Z"/>
  </g>
  <g class="cities">
    <circle r="3" cx="328.4" cy="141.4"/>
    <text x="328.4" y="141.4">Fargo</text>
    <circle r="3" cx="154.0" cy="149.2"/>
    <text x="154.0" y="149.2">Bismarck</text>
    <circle r="3" cx="315.0" cy="74.9"/>
    <text x="315.0" y="74.9">Grand Forks</text>
  </g>
</svg>