<?xml version="1.0" encoding="utf-8"?>
<!DOCTYPE svg PUBLIC "-//W3C//DTD SVG 1.1//EN" "http://www.w3.org/Graphics/SVG/1.1/DTD/svg11.dtd">
<svg version="1.1" xmlns="http://www.w3.org/2000/svg" width="350" height="210" viewBox="0 0 350 210">
  <path class="state" transform="scale(0.1)" d="M169,287l11,-233 464,19 384,10 222,4 299,3h251l275,-1 221,-3 185,-4 256,-6 301,-11 -4,22 29,58 5,53 33,68 -23,90 1,43 15,8 -10,61 19,25 -7,87 18,74 17,20 7,62 16,15 22,74 20,23 18,59 23,52 -6,39 10,20 -10,50 16,13 7,103 -2,55 12,33 -3,59 33,64 -15,54 13,63 -5,59 22,29 8,63 12,32 55,73 3,55 18,70 -1,118 -288,12 -346,11 -140,4 -304,4 -388,3 -281,-1 -238,-1 -422,-8 -285,-6 -159,-6 -153,-5 -313,-14 8,-215 9,-166 8,-194 18,-309 20,-426 19,-407"/>
  <g class="counties" transform="scale(0.1)">
    <path data-fips-int="38001" data-name="Adams County" d="M1000,1869l-3,97v69l-285,-6 -159,-6 8,-215 32,1 188,5 -2,49Z"/>
    <path data-fips-int="38003" data-name="Barnes County" d="M2765,1200l111,-3 5,167 12,3 7,219 -155,5 -178,4 -5,-222h-12l-5,-167Z"/>
    <path data-fips-int="38007" data-name="Billings County" d="M539,1138l29,1 -9,222 -86,-3 -10,224 -163,-7 8,-223 -25,-1 10,-223Z"/>
    <path data-fips-int="38009" data-name="Bottineau County" d="M1800,90v181h15l2,110 -57,1h-55v-55l-276,-2v55l-164,-3v-110h-19l4,-180 299,3Z"/>
    <path data-fips-int="38011" data-name="Bowman County" d="M553,2023l-153,-5 -313,-14 8,-215 301,14 165,5Z"/>
    <path data-fips-int="38013" data-name="Burke County" d="M1028,83l-1,124 -55,-2 -2,56 -35,-1 -3,110 -274,-7 1,-56 2,-55 -23,-1 6,-178Z"/>
    <path data-fips-int="38015" data-name="Burleigh County" d="M1832,1161v220h16l-1,223 -255,-1 4,-28 -29,14 -28,-20v-32l-25,-14 12,-30 -43,-67 -9,-47 24,-21 -35,-90h93v-108h31Z"/>
    <path data-fips-int="38017" data-name="Cass County" d="M2986,1193l268,-9 -2,55 12,33 -3,59 33,64 -15,54 13,63 -5,59 -213,9 -174,6 -7,-219 -12,-3 -5,-167Z"/>
    <path data-fips-int="38019" data-name="Cavalier County" d="M2737,76l5,181h10l3,110 -166,5 -276,5 -2,-110h-12l-3,-181 185,-4Z"/>
    <path data-fips-int="38021" data-name="Dickey County" d="M2752,1813h10l8,221 -140,4 -304,4 -2,-219Z"/>
    <path data-fips-int="38023" data-name="Divide County" d="M644,73l-6,178 23,1 -2,55 -201,-6 -289,-14 11,-233Z"/>
    <path data-fips-int="38025" data-name="Dunn County" d="M855,872l24,-26 31,15 -5,103 25,28 -5,158 27,1 -5,202 -165,-4 -1,19 -222,-7 9,-222 -29,-1 7,-222 196,7 4,-95 33,29Z"/>
    <path data-fips-int="38029" data-name="Emmons County" d="M1847,1604h73v223h17l1,218 -281,-1 -6,-33 -37,-40 -3,-71 26,-52 -10,-21 14,-52 -19,-40 12,-106 -42,-26Z"/>
    <path data-fips-int="38031" data-name="Foster County" d="M2527,984l3,168 -332,6 -2,-167Z"/>
    <path data-fips-int="38033" data-name="Golden Valley County" d="M293,1128l-10,223 25,1 -8,223 -87,-3v56l-109,-5 8,-194 18,-309Z"/>
    <path data-fips-int="38035" data-name="Grand Forks County" d="M3096,580l18,74 17,20 7,62 16,15 22,74 20,23 18,59 -249,10 -173,6 -7,-218 -10,-4 -3,-111Z"/>
    <path data-fips-int="38037" data-name="Grant County" d="M1421,1825l-18,5 -5,29 -42,25 -3,24 -42,11 -31,42 -102,37 -71,-17h-39l-3,-26 -55,10 -13,1 3,-97 2,-50 -22,-2 2,-220 -20,-1 2,-56 166,4 -2,56 185,3 -2,165 110,1Z"/>
    <path data-fips-int="38039" data-name="Griggs County" d="M2745,924l7,213 10,9 3,54 -220,6v-50l-15,-4 -3,-168 -2,-54Z"/>
    <path data-fips-int="38041" data-name="Hettinger County" d="M962,1596l20,1 -2,220 22,2 -2,50 -221,-6 2,-49 -188,-5 5,-223 241,8Z"/>
    <path data-fips-int="38043" data-name="Kidder County" d="M2106,1159l2,221h15l2,223 -205,1h-73l1,-223h-16v-220l35,-1Z"/>
    <path data-fips-int="38045" data-name="LaMoure County" d="M2745,1591l7,222 -428,10h-15l-3,-222 261,-6Z"/>
    <path data-fips-int="38047" data-name="Logan County" d="M2125,1603l181,-2 3,222 -372,4h-17v-223Z"/>
    <path data-fips-int="38049" data-name="McHenry County" d="M1760,382v111h17v223h18v112h-168l-164,-2v-112h-17v-222l-18,-1 1,-56v-55v-55l276,2v55Z"/>
    <path data-fips-int="38051" data-name="McIntosh County" d="M2309,1823h15l2,219 -388,3 -1,-218Z"/>
    <path data-fips-int="38053" data-name="McKenzie County" d="M672,633l39,4 -9,17 40,12 47,52 -47,66 4,44 -4,95 -196,-7 -7,222 -246,-10 -163,-8 20,-426 52,28 30,-24 25,-1 5,-38 33,-5 -15,-16 23,-15 37,7 25,20 -17,15 25,14 12,28 33,-28 15,9 63,-20 10,-43 53,-9Z"/>
    <path data-fips-int="38055" data-name="McLean County" d="M1627,828v110h-36l-4,222h-31v108h-93l-12,-17 8,-34 -36,-36 -55,8 -7,21 -25,-13 -40,-19 -5,-46 -13,-11 -20,-60 32,-26 -29,-30 -90,22 -23,-9 -58,29 -60,-30 -27,-22 -73,-3 -25,-28 5,-103 -31,-15 -24,26 2,-56 220,5 386,5Z"/>
    <path data-fips-int="38057" data-name="Mercer County" d="M1336,1197v15l-221,-3 -2,167 -146,-3 -20,-20 5,-202 -27,-1 5,-158 73,3 27,22 60,30 58,-29 23,9 90,-22 29,30 -32,26 20,60 13,11 5,46Z"/>
    <path data-fips-int="38059" data-name="Morton County" d="M1474,1379l9,47 43,67 -12,30 25,14v32l28,20 29,-14 -4,28 42,26 -12,106 -38,9 -12,17 -94,-7 -10,29 -47,42v-56l-110,-1 2,-165 -185,-3 2,-56 -166,-4 3,-167 146,3 170,3Z"/>
    <path data-fips-int="38061" data-name="Mountrail County" d="M1077,821l-220,-5 -2,56 -76,-15 -33,-29 -4,-44 47,-66 -47,-52 -40,-12 9,-17 -39,-4 4,-158 -23,-1 5,-111 274,7 111,3 -3,112h22l-4,223 22,1Z"/>
    <path data-fips-int="38063" data-name="Nelson County" d="M2772,590l3,111 10,4 7,218 -47,1 -220,6h-11l-2,-110 -2,-44 -1,-68 45,-1 -2,-111 52,-1Z"/>
    <path data-fips-int="38065" data-name="Oliver County" d="M1463,1268l35,90 -24,21h-191l-170,-3 2,-167 221,3v-15l25,13 7,-21 55,-8 36,36 -8,34Z"/>
    <path data-fips-int="38067" data-name="Pembina County" d="M3078,356l-323,11 -3,-110h-10l-5,-181 301,-11 -4,22 29,58 5,53 33,68Z"/>
    <path data-fips-int="38069" data-name="Pierce County" d="M2093,380v111l-150,1v224h17v111l-110,1h-55v-112h-18v-223h-17v-111l57,-1Z"/>
    <path data-fips-int="38071" data-name="Ramsey County" d="M2589,372l3,111h12v112l-52,1 2,111 -45,1 1,68h-41l-18,-49 -19,-6 -20,21 -21,-57 -49,37 -31,9 -15,-38 -20,19v-55l-57,-29 -1,-138 96,-2 -1,-111Z"/>
    <path data-fips-int="38073" data-name="Ransom County" d="M2900,1586l174,-6 10,222 -322,11h-10l-7,-222Z"/>
    <path data-fips-int="38075" data-name="Renville County" d="M1429,380v55l-332,-5 3,-166 -75,-3 2,-54 1,-124 222,4 -4,180h19v110Z"/>
    <path data-fips-int="38077" data-name="Richland County" d="M3116,2023l-15,-39 -7,-181 -10,-1 -10,-222 213,-9 22,29 8,63 12,32 55,73 3,55 18,70 -1,118Z"/>
    <path data-fips-int="38079" data-name="Rolette County" d="M2075,89l1,174 15,7 2,110 -276,1 -2,-110h-15v-181Z"/>
    <path data-fips-int="38081" data-name="Sargent County" d="M3084,1802l10,1 7,181 15,39 -346,11 -8,-221Z"/>
    <path data-fips-int="38083" data-name="Sheridan County" d="M1795,828h55v110h15l2,222 -35,1 -245,-1 4,-222h36v-110Z"/>
    <path data-fips-int="38085" data-name="Sioux County" d="M1622,1735l19,40 -14,52 10,21 -26,52 3,71 37,40 6,33 -238,-1 -422,-8v-69l13,-1 55,-10 3,26h39l71,17 102,-37 31,-42 42,-11 3,-24 42,-25 5,-29 18,-5 47,-42 10,-29 94,7 12,-17Z"/>
    <path data-fips-int="38087" data-name="Slope County" d="M598,1586l-5,223 -32,-1 -165,-5 -301,-14 9,-166 109,5v-56l87,3 163,7Z"/>
    <path data-fips-int="38089" data-name="Stark County" d="M947,1353l20,20 -3,167 -2,56 -123,-2 -241,-8 -135,-4 10,-224 86,3 222,7 1,-19Z"/>
    <path data-fips-int="38091" data-name="Steele County" d="M2792,923l173,-6 10,223h10l1,53 -110,4 -111,3 -3,-54 -10,-9 -7,-213Z"/>
    <path data-fips-int="38093" data-name="Stutsman County" d="M2198,1158l332,-6 15,4v50l5,167h12l5,222 -261,6 -181,2 -2,-223h-15l-2,-221Z"/>
    <path data-fips-int="38095" data-name="Towner County" d="M2313,377l1,111 -96,2 -125,1v-111l-2,-110 -15,-7 -1,-174 221,-3 3,181h12Z"/>
    <path data-fips-int="38097" data-name="Traill County" d="M3254,1184l-268,9 -1,-53h-10l-10,-223 249,-10 23,52 -6,39 10,20 -10,50 16,13Z"/>
    <path data-fips-int="38099" data-name="Walsh County" d="M2755,367l323,-11 1,43 15,8 -10,61 19,25 -7,87 -324,10 -168,5v-112h-12l-3,-111Z"/>
    <path data-fips-int="38101" data-name="Ward County" d="M1027,207l-2,54 75,3 -3,166 332,5 -1,56 18,1v222h17v112l-386,-5 3,-112 -22,-1 4,-223h-22l3,-112 -111,-3 3,-110 35,1 2,-56Z"/>
    <path data-fips-int="38103" data-name="Wells County" d="M1960,827l221,-1 2,110h13v55l2,167 -92,1 -239,1 -2,-222h-15v-110Z"/>
    <path data-fips-int="38105" data-name="Williams County" d="M659,307l-1,56 -5,111 23,1 -4,158 -113,-17 -53,9 -10,43 -63,20 -15,-9 -33,28 -12,-28 -25,-14 17,-15 -25,-20 -37,-7 -23,15 15,16 -33,5 -5,38 -25,1 -30,24 -52,-28 19,-407 289,14Z"/>
    <path data-fips-int="38005" data-name="Benson County" d="M2093,491l125,-1 1,138 57,29v55l20,-19 15,38 31,-9 49,-37 21,57 20,-21 19,6 18,49h41l2,44 -331,6 -221,1v-111h-17v-224Z"/>
    <path data-fips-int="38027" data-name="Eddy County" d="M2512,820l2,110h11l2,54 -331,7v-55h-13l-2,-110Z"/>
  </g>
  <path class="mesh" transform="scale(0.1)" d="M2527,984l3,168 -332,6 -2,-167 331,-7 -2,-54 220,-6 7,213 10,9 3,54 111,-3 5,167 12,3 7,219 -155,5 -178,4 -5,-222h-12l-5,-167 220,-6M1800,90v181h15l2,110 -57,1h-55v-55l-276,-2v55l-164,-3v-110h-19l4,-180M95,1789l301,14 165,5M1028,83l-1,124 -55,-2 -2,56 -35,-1 -3,110 -274,-7 1,-56 2,-55 -23,-1 6,-178M2876,1197l110,-4 268,-9M3287,1571l-213,9 -174,6M2737,76l5,181h10l3,110 -166,5 -276,5 -2,-110h-12l-3,-181M2326,2042l-2,-219 428,-10h10l8,221M659,307l-201,-6 -289,-14M539,1138l29,1 -9,222 -86,-3 -10,224 -163,-7 8,-223 -25,-1 10,-223 246,10 7,-222 196,7 4,-95 33,29 76,15 24,-26 31,15 -5,103 25,28 -5,158 27,1 -5,202 -165,-4 -1,19 -222,-7M1847,1604h73v223h17l1,218M1657,2044l-6,-33 -37,-40 -3,-71 26,-52 -10,-21 14,-52 -19,-40 12,-106 -42,-26M300,1575l-87,-3v56l-109,-5M130,1120l163,8M3214,907l-249,10 -173,6 -7,-218 -10,-4 -3,-111 324,-10M553,2023l8,-215 32,1 188,5 -2,49 221,6 -3,97v69M1000,1869l2,-50 -22,-2 2,-220 -20,-1 2,-56 166,4 -2,56 185,3 -2,165 110,1v56l-18,5 -5,29 -42,25 -3,24 -42,11 -31,42 -102,37 -71,-17h-39l-3,-26 -55,10 -13,1M2545,1206v-50l-15,-4M593,1809l5,-223 241,8 123,2M1832,1161v220h16l-1,223 -255,-1 4,-28 -29,14 -28,-20v-32l-25,-14 12,-30 -43,-67 -9,-47 24,-21 -35,-90h93v-108h31l245,1 35,-1 239,-1 2,221h15l2,223 -205,1M2745,1591l7,222M2324,1823h-15l-3,-222 261,-6M2125,1603l181,-2M2309,1823l-372,4M1760,382v111h17v223h18v112h-168l-164,-2v-112h-17v-222l-18,-1 1,-56v-55M150,694l52,28 30,-24 25,-1 5,-38 33,-5 -15,-16 23,-15 37,7 25,20 -17,15 25,14 12,28 33,-28 15,9 63,-20 10,-43 53,-9 113,17 39,4 -9,17 40,12 47,52 -47,66 4,44M1627,828v110h-36l-4,222M1463,1268l-12,-17 8,-34 -36,-36 -55,8 -7,21 -25,-13 -40,-19 -5,-46 -13,-11 -20,-60 32,-26 -29,-30 -90,22 -23,-9 -58,29 -60,-30 -27,-22 -73,-3M855,872l2,-56 220,5 386,5M1336,1197v15l-221,-3 -2,167 -146,-3 -20,-20M1622,1735l-38,9 -12,17 -94,-7 -10,29 -47,42M964,1540l3,-167M1113,1376l170,3h191M672,633l4,-158 -23,-1 5,-111M932,370l111,3 -3,112h22l-4,223 22,1 -3,112M2792,923l-47,1M2525,930h-11l-2,-110 -2,-44 -1,-68 45,-1 -2,-111 52,-1 168,-5M3078,356l-323,11M1817,381l276,-1v111l-150,1v224h17v111l-110,1h-55M2589,372l3,111h12v112M2510,776h-41l-18,-49 -19,-6 -20,21 -21,-57 -49,37 -31,9 -15,-38 -20,19v-55l-57,-29 -1,-138 96,-2 -1,-111M3074,1580l10,222 -322,11M1429,435l-332,-5 3,-166 -75,-3 2,-54M3116,2023l-15,-39 -7,-181 -10,-1M2075,89l1,174 15,7 2,110M1850,828v110h15l2,222M463,1582l135,4M2965,917l10,223h10l1,53M2106,1159l92,-1M2218,490l-125,1M1960,827l221,-1 2,110h13v55M2512,820l-331,6"/>
  <g class="cities">
    <circle r="3" cx="328.4" cy="141.4"/>
    <text x="328.4" y="141.4">Fargo</text>
    <circle r="3" cx="154.0" cy="149.2"/>
    <text x="154.0" y="149.2">Bismarck</text>
    <circle r="3" cx="315.0" cy="75.0"/>
    <text x="315.0" y="75.0">Grand Forks</text>
  </g>
</svg>