<?xml version="1.0" encoding="utf-8"?>
<!DOCTYPE svg PUBLIC "-//W3C//DTD SVG 1.1//EN" "http://www.w3.org/Graphics/SVG/1.1/DTD/svg11.dtd">
<svg version="1.1" xmlns="http://www.w3.org/2000/svg" width="350" height="210" viewBox="0 0 350 210">
  <path class="state" transform="scale(0.1)" d="M167,287l13,-233 200,9 263,9 385,12 222,3 299,3h251h275l221,-5 229,-3 212,-6 301,-10 -4,21 32,72 10,64 25,43 -23,89 1,44 19,23 -17,29 22,43 -7,86v21l35,73 8,62 17,15 15,71 25,25 16,60 25,52 -8,40 12,19 -9,50 14,13 8,103 12,82v89l26,39 -11,55 11,63 -5,59 25,36 5,56 45,84 22,14 3,63 20,69 -3,118 -288,12 -348,11 -139,4 -303,4 -388,3 -281,-1 -238,-1 -422,-8 -285,-6 -159,-6 -153,-5 -313,-14 8,-215 10,-166 9,-195 16,-308 20,-426 17,-407"/>
  <g class="counties" transform="scale(0.1)">
    <path data-fips-int="38001" data-name="Adams County" d="M1000,1869l-3,97v69l-285,-6 -159,-6 8,-215 32,1 188,5 -2,49Z"/>
    <path data-fips-int="38003" data-name="Barnes County" d="M2765,1200l111,-3 4,166 13,4 7,219 -155,5 -180,4 -3,-222h-12l-5,-167Z"/>
    <path data-fips-int="38007" data-name="Billings County" d="M539,1138l29,1 -9,221 -86,-3 -8,225 -165,-7 8,-223 -25,-1 10,-223Z"/>
    <path data-fips-int="38009" data-name="Bottineau County" d="M1800,90v181h15l2,110 -57,1h-55v-55l-277,-2v54l-163,-2v-110h-19l4,-180 299,3Z"/>
    <path data-fips-int="38011" data-name="Bowman County" d="M553,2023l-153,-5 -313,-14 8,-215 301,14 165,5Z"/>
    <path data-fips-int="38013" data-name="Burke County" d="M1028,84l-1,123 -55,-3 -2,57 -35,-2 -3,112 -274,-8v-56l3,-55 -23,-1 5,-179Z"/>
    <path data-fips-int="38015" data-name="Burleigh County" d="M1832,1161v220h16l-1,223 -255,-1 2,-28 -27,14 -28,-20v-32l-25,-10 12,-34 -19,-17 -24,-51 -9,-46 24,-20 -35,-91h91v-108h35Z"/>
    <path data-fips-int="38017" data-name="Cass County" d="M2986,1193l268,-9 12,82v89l26,39 -11,55 11,63 -5,59 -211,8 -176,7 -7,-219 -13,-4 -4,-166Z"/>
    <path data-fips-int="38019" data-name="Cavalier County" d="M2737,76l5,181h10l1,109 -164,6 -276,5 -2,-110 -13,-20 -2,-162 229,-3Z"/>
    <path data-fips-int="38021" data-name="Dickey County" d="M2752,1813h11l5,221 -139,4 -303,4 -2,-219Z"/>
    <path data-fips-int="38023" data-name="Divide County" d="M643,72l-5,179 23,1 -3,55 -200,-6 -291,-14 13,-233 200,9Z"/>
    <path data-fips-int="38025" data-name="Dunn County" d="M855,873l24,-27 31,15 -5,103 25,28 -5,158 27,1 -5,202 -165,-4 -1,19 -222,-8 9,-221 -29,-1 7,-222 195,7 5,-95 33,29Z"/>
    <path data-fips-int="38029" data-name="Emmons County" d="M1847,1604h73v223h17l1,218 -281,-1v-16l-43,-57 -8,-60 31,-62 -11,-22 15,-52 -19,-41 12,-62v-43l-42,-26Z"/>
    <path data-fips-int="38031" data-name="Foster County" d="M2527,985l3,167 -332,6 -2,-168Z"/>
    <path data-fips-int="38033" data-name="Golden Valley County" d="M293,1128l-10,223 25,1 -8,223 -85,-3 -2,56 -108,-5 9,-195 16,-308Z"/>
    <path data-fips-int="38035" data-name="Grand Forks County" d="M3096,580v21l35,73 8,62 17,15 15,71 25,25 16,60 -246,10 -174,6 -7,-217 -10,-5 -5,-111Z"/>
    <path data-fips-int="38037" data-name="Grant County" d="M1419,1825l-16,4 -7,30 -40,25 -13,26 -4,7 -33,7 2,15 -85,33 -2,11 -8,4 -3,-1 -37,7h-25v2l-3,-2 -15,-6 -23,-6h-7l-8,-2 -14,4 -5,-5 -11,-6 1,-11 4,-2 -30,3 -5,4h-35l3,-97 2,-50 -22,-1 2,-221 -20,-1 2,-56 166,4 -2,56 183,3 -1,164 109,2Z"/>
    <path data-fips-int="38039" data-name="Griggs County" d="M2707,925l40,-1 5,213 11,9 2,54 -220,6v-50l-15,-4 -3,-167 -2,-55Z"/>
    <path data-fips-int="38041" data-name="Hettinger County" d="M962,1596l20,1 -2,221 22,1 -2,50 -221,-6 2,-49 -188,-5 5,-223 241,8Z"/>
    <path data-fips-int="38043" data-name="Kidder County" d="M2106,1159l2,221h15l2,223 -205,1h-73l1,-223h-16v-220l35,-1Z"/>
    <path data-fips-int="38045" data-name="LaMoure County" d="M2745,1591l7,222 -428,10h-15l-3,-222 259,-6Z"/>
    <path data-fips-int="38047" data-name="Logan County" d="M1920,1604l205,-1 181,-2 3,222 -372,4h-17Z"/>
    <path data-fips-int="38049" data-name="McHenry County" d="M1760,382v111h17v223h18v112h-166l-166,-2 1,-112h-18l2,-222 -20,-1v-55v-57v-54l277,2v55Z"/>
    <path data-fips-int="38051" data-name="McIntosh County" d="M2309,1823h15l2,219 -388,3 -1,-218Z"/>
    <path data-fips-int="38053" data-name="McKenzie County" d="M672,633l29,-3 3,25 37,11 46,50 -43,68 2,44 -5,95 -195,-7 -7,222 -246,-10 -163,-8 20,-426 52,28 23,-9 3,-28 17,25 15,-52 20,14 2,-34 28,-17 55,28 -17,16 23,14 14,27 33,-26 20,8 58,-20 10,-43 53,-9v12l57,-5Z"/>
    <path data-fips-int="38055" data-name="McLean County" d="M1629,828v110h-38l-2,222h-35v108h-91l-14,-26 10,-24 -35,-37 -56,8 -7,21 -25,-13 -41,-19 -2,-44 -15,-13 -20,-60 32,-26 -29,-31 -76,23 -37,-9 -53,29 -65,-30 -27,-2v-20l-73,-3 -25,-28 5,-103 -31,-15 -24,27v-57l222,5 386,5Z"/>
    <path data-fips-int="38057" data-name="Mercer County" d="M1336,1197v15l-221,-3 -2,167 -146,-3 -20,-20 5,-202 -27,-1 5,-158 73,3v20l27,2 65,30 53,-29 37,9 76,-23 29,31 -32,26 20,60 15,13 2,44Z"/>
    <path data-fips-int="38059" data-name="Morton County" d="M1474,1379l9,46 24,51 19,17 -12,34 25,10v32l28,20 27,-14 -2,28 42,26v43l-12,62 -51,27 -19,-5 -64,-3 -20,31 -49,41v-56l-109,-2 1,-164 -183,-3 2,-56 -166,-4 3,-167 146,3 172,3Z"/>
    <path data-fips-int="38061" data-name="Mountrail County" d="M1077,821l-222,-5v57l-76,-16 -33,-29 -2,-44 43,-68 -46,-50 -37,-11 -3,-25 -29,3 5,-158 -23,-1 4,-111 274,8 111,1 -3,113h22l-4,223 20,7Z"/>
    <path data-fips-int="38063" data-name="Nelson County" d="M2770,590l5,111 10,5 7,217 -45,1 -40,1 -182,5h-11l-2,-110 -2,-44 -1,-68 45,-2 -2,-110 53,-1Z"/>
    <path data-fips-int="38065" data-name="Oliver County" d="M1463,1268l35,91 -24,20h-189l-172,-3 2,-167 221,3v-15l25,13 7,-21 56,-8 35,37 -10,24Z"/>
    <path data-fips-int="38067" data-name="Pembina County" d="M3078,355l-325,11 -1,-109h-10l-5,-181 301,-10 -4,21 32,72 10,64 25,43Z"/>
    <path data-fips-int="38069" data-name="Pierce County" d="M2093,379v112l-150,1v224h17v111l-57,1h-53h-55v-112h-18v-223h-17v-111l57,-1Z"/>
    <path data-fips-int="38071" data-name="Ramsey County" d="M2589,372l3,110h12l1,113 -53,1 2,110 -45,2 1,68h-41l-22,-53 -38,19v-2l-18,-55 -49,37 -31,9 -15,-39 -20,20v-55l-57,-29 -1,-139 96,-1 -1,-111Z"/>
    <path data-fips-int="38073" data-name="Ransom County" d="M2900,1586l176,-7 8,222 -321,12h-11l-7,-222Z"/>
    <path data-fips-int="38075" data-name="Renville County" d="M1428,379v57l-331,-6 3,-166 -75,-2 2,-55 1,-123 222,3 -4,180h19v110Z"/>
    <path data-fips-int="38077" data-name="Richland County" d="M3116,2023l-15,-39 -7,-181 -10,-2 -8,-222 211,-8 25,36 5,56 45,84 22,14 3,63 20,69 -3,118Z"/>
    <path data-fips-int="38079" data-name="Rolette County" d="M2075,90l1,173 15,7 2,109 -276,2 -2,-110h-15v-181Z"/>
    <path data-fips-int="38081" data-name="Sargent County" d="M3084,1801l10,2 7,181 15,39 -348,11 -5,-221Z"/>
    <path data-fips-int="38083" data-name="Sheridan County" d="M1795,828h55v110h15l2,222 -35,1 -243,-1 2,-222h38v-110Z"/>
    <path data-fips-int="38085" data-name="Sioux County" d="M1622,1734l19,41 -15,52 11,22 -31,62 8,60 43,57v16l-238,-1 -422,-8v-69h35l5,-4 30,-3 -4,2 -1,11 11,6 5,5 14,-4 8,2h7l23,6 15,6 3,2v-2h25l37,-7 3,1 8,-4 2,-11 85,-33 -2,-15 33,-7 4,-7 13,-26 40,-25 7,-30 16,-4 49,-41 20,-31 64,3 19,5Z"/>
    <path data-fips-int="38087" data-name="Slope County" d="M598,1586l-5,223 -32,-1 -165,-5 -301,-14 10,-166 108,5 2,-56 85,3 165,7Z"/>
    <path data-fips-int="38089" data-name="Stark County" d="M947,1353l20,20 -3,167 -2,56 -123,-2 -241,-8 -133,-4 8,-225 86,3 222,8 1,-19Z"/>
    <path data-fips-int="38091" data-name="Steele County" d="M2792,923l174,-6 9,223h10l1,53 -110,4 -111,3 -2,-54 -11,-9 -5,-213Z"/>
    <path data-fips-int="38093" data-name="Stutsman County" d="M2198,1158l332,-6 15,4v50l5,167h12l3,222 -259,6 -181,2 -2,-223h-15l-2,-221Z"/>
    <path data-fips-int="38095" data-name="Towner County" d="M2313,377l1,111 -96,1 -125,2v-112l-2,-109 -15,-7 -1,-173 221,-5 2,162 13,20Z"/>
    <path data-fips-int="38097" data-name="Traill County" d="M3254,1184l-268,9 -1,-53h-10l-9,-223 246,-10 25,52 -8,40 12,19 -9,50 14,13Z"/>
    <path data-fips-int="38099" data-name="Walsh County" d="M2753,366l325,-11 1,44 19,23 -17,29 22,43 -7,86 -326,10 -165,5 -1,-113h-12l-3,-110Z"/>
    <path data-fips-int="38101" data-name="Ward County" d="M1027,207l-2,55 75,2 -3,166 331,6v55l20,1 -2,222h18l-1,112 -386,-5 1,-106 -20,-7 4,-223h-22l3,-113 -111,-1 3,-112 35,2 2,-57Z"/>
    <path data-fips-int="38103" data-name="Wells County" d="M1903,828l57,-1 221,-1 2,110h13v54l2,168 -92,1 -239,1 -2,-222h-15v-110Z"/>
    <path data-fips-int="38105" data-name="Williams County" d="M658,307v56l-4,111 23,1 -5,158 -56,-10 -57,5v-12l-53,9 -10,43 -58,20 -20,-8 -33,26 -14,-27 -23,-14 17,-16 -55,-28 -28,17 -2,34 -20,-14 -15,52 -17,-25 -3,28 -23,9 -52,-28 17,-407 291,14Z"/>
    <path data-fips-int="38005" data-name="Benson County" d="M2093,491l125,-2 1,139 57,29v55l20,-20 15,39 31,-9 49,-37 18,55v2l38,-19 22,53h41l2,44 -331,6 -221,1v-111h-17v-224Z"/>
    <path data-fips-int="38027" data-name="Eddy County" d="M2512,820l2,110h11l2,55 -331,5v-54h-13l-2,-110Z"/>
  </g>
  <path class="mesh" transform="scale(0.1)" d="M1028,84l-1,123 -55,-3 -2,57 -35,-2 -3,112 -274,-8v-56l3,-55 -23,-1 5,-179M2876,1197l4,166 13,4 7,219 -155,5 -180,4 -3,-222h-12l-5,-167 220,-6 111,-3 110,-4 268,-9M2737,76l5,181h10l1,109 -164,6 -276,5 -2,-110 -13,-20 -2,-162M2326,2042l-2,-219 428,-10h11l5,221M658,307l-200,-6 -291,-14M1847,1604h73v223h17l1,218M1657,2044v-16l-43,-57 -8,-60 31,-62 -11,-22 15,-52 -19,-41 12,-62v-43l-42,-26M300,1575l8,-223 -25,-1 10,-223 246,10 29,1 -9,221 -86,-3 -8,225 -165,-7 -85,-3 -2,56 -108,-5M3212,907l-246,10 -174,6 -7,-217 -10,-5 -5,-111 326,-10M553,2023l8,-215 32,1 188,5 -2,49 221,6 -3,97v69M1000,1869l2,-50 -22,-1 2,-221 -20,-1 2,-56 166,4 -2,56 183,3 -1,164 109,2v56l-16,4 -7,30 -40,25 -13,26 -4,7 -33,7 2,15 -85,33 -2,11 -8,4 -3,-1 -37,7h-25v2l-3,-2 -15,-6 -23,-6h-7l-8,-2 -14,4 -5,-5 -11,-6 1,-11 4,-2 -30,3 -5,4h-35M2527,985l3,167 -332,6 -2,-168 331,-5 -2,-55 182,-5 40,-1 5,213 11,9 2,54M2545,1206v-50l-15,-4M593,1809l5,-223 241,8 123,2M1832,1161v220h16l-1,223 -255,-1 2,-28 -27,14 -28,-20v-32l-25,-10 12,-34 -19,-17 -24,-51 -9,-46 24,-20 -35,-91h91v-108h35l243,1 35,-1 239,-1 2,221h15l2,223 -205,1M2745,1591l7,222M2324,1823h-15l-3,-222 259,-6M2125,1603l181,-2M2309,1823l-372,4M150,694l52,28 23,-9 3,-28 17,25 15,-52 20,14 2,-34 28,-17 55,28 -17,16 23,14 14,27 33,-26 20,8 58,-20 10,-43 53,-9v12l57,-5 56,10 29,-3 3,25 37,11 46,50 -43,68 2,44M1629,828v110h-38l-2,222M1463,1268l-14,-26 10,-24 -35,-37 -56,8 -7,21 -25,-13 -41,-19 -2,-44 -15,-13 -20,-60 32,-26 -29,-31 -76,23 -37,-9 -53,29 -65,-30 -27,-2v-20l-73,-3M855,873v-57l222,5 386,5M1336,1197v15l-221,-3 -2,167 -146,-3 -20,-20M1622,1734l-51,27 -19,-5 -64,-3 -20,31 -49,41M964,1540l3,-167M1113,1376l172,3h189M672,633l5,-158 -23,-1 4,-111M932,371l111,1 -3,113h22l-4,223 20,7 -1,106M2792,923l-45,1M2525,930h-11l-2,-110 -2,-44 -1,-68 45,-2 -2,-110 53,-1 165,-5M3078,355l-325,11M1760,382h-55v-55l-277,-2v54l-163,-2v-110h-19l4,-180M1817,381l276,-2v112l-150,1v224h17v111l-57,1h-53h-55M2589,372l3,110h12l1,113M2510,776h-41l-22,-53 -38,19v-2l-18,-55 -49,37 -31,9 -15,-39 -20,20v-55l-57,-29 -1,-139 96,-1 -1,-111M3076,1579l8,222 -321,12M1428,436l-331,-6 3,-166 -75,-2 2,-55M3116,2023l-15,-39 -7,-181 -10,-2M2075,90l1,173 15,7 2,109M1850,828v110h15l2,222M465,1582l133,4M2966,917l9,223h10l1,53M2106,1159l92,-1M2218,489l-125,2M1960,827l221,-1 2,110h13v54M2512,820l-331,6M95,1789l301,14 165,5M3287,1571l-211,8 -176,7M130,1120l163,8M1800,90v181h15l2,110 -57,1v111h17v223h18v112h-166l-166,-2 1,-112h-18l2,-222 -20,-1v-55v-57M855,873l24,-27 31,15 -5,103 25,28M930,992l-5,158 27,1 -5,202M947,1353l-165,-4 -1,19 -222,-8M539,1138l7,-222 195,7 5,-95M746,828l33,29 76,16"/>
  <g class="cities">
    <circle r="3" cx="328.4" cy="141.4"/>
    <text x="328.4" y="141.4">Fargo</text>
    <circle r="3" cx="154.0" cy="149.2"/>
    <text x="154.0" y="149.2">Bismarck</text>
    <circle r="3" cx="315.0" cy="75.0"/>
    <text x="315.0" y="75.0">Grand Forks</text>
  </g>
</svg>