<?xml version="1.0" encoding="utf-8"?>
<!DOCTYPE svg PUBLIC "-//W3C//DTD SVG 1.1//EN" "http://www.w3.org/Graphics/SVG/1.1/DTD/svg11.dtd">
<svg version="1.1" xmlns="http://www.w3.org/2000/svg" width="350" height="210" viewBox="0 0 350 210">
  <defs>
    <pattern id="pattern-no-results" width="50" height="50" patternUnits="userSpaceOnUse">
      <rect width="50" height="50" fill="#ddd"/>
      <path d="M-5,5L5,-5M-5,55L55,-5M45,55L55,45" stroke-width="10" stroke="#ffffff"/>
    </pattern>
  </defs>
  <g class="counties" transform="scale(0.1)">
    <path data-fips-int="38001" data-name="Adams County" d="M1000,1869l-3,97 0,69 -285,-6 -159,-6 8,-215 32,1 188,5 -2,49Z"/>
    <path data-fips-int="38003" data-name="Barnes County" d="M2765,1200l111,-3 4,166 13,4 7,219 -155,5 -180,4 -3,-222 -12,0 -5,-167Z"/>
    <path data-fips-int="38007" data-name="Billings County" d="M539,1138l29,1 -9,221 -86,-3 -8,225 -165,-7 8,-223 -25,-1 10,-223Z"/>
    <path data-fips-int="38009" data-name="Bottineau County" d="M1800,90l0,181 15,0 2,110 -57,1 -55,0 0,-55 -277,-2 0,54 -163,-2 0,-110 -19,0 4,-180 299,3Z"/>
    <path data-fips-int="38011" data-name="Bowman County" d="M553,2023l-153,-5 -313,-14 8,-215 301,14 165,5Z"/>
    <path data-fips-int="38013" data-name="Burke County" d="M1028,84l-1,123 -55,-3 -2,57 -35,-2 -3,112 -274,-8 0,-56 3,-55 -23,-1 5,-179Z"/>
    <path data-fips-int="38015" data-name="Burleigh County" d="M1832,1161l0,220 16,0 -1,223 -255,-1 2,-28 -27,14 -28,-20 0,-32 -25,-10 12,-34 -19,-17 -24,-51 -9,-46 24,-20 -35,-91 91,0 0,-108 35,0Z"/>
    <path data-fips-int="38017" data-name="Cass County" d="M2986,1193l268,-9 12,82 0,89 26,39 -11,55 11,63 -5,59 -211,8 -176,7 -7,-219 -13,-4 -4,-166Z"/>
    <path data-fips-int="38019" data-name="Cavalier County" d="M2737,76l5,181 10,0 1,109 -164,6 -276,5 -2,-110 -13,-20 -2,-162 229,-3Z"/>
    <path data-fips-int="38021" data-name="Dickey County" d="M2752,1813l11,0 5,221 -139,4 -303,4 -2,-219Z"/>
    <path data-fips-int="38023" data-name="Divide County" d="M643,72l-5,179 23,1 -3,55 -200,-6 -291,-14 13,-233 200,9Z"/>
    <path data-fips-int="38025" data-name="Dunn County" d="M855,873l24,-27 31,15 -5,103 25,28 -5,158 27,1 -5,202 -165,-4 -1,19 -222,-8 9,-221 -29,-1 7,-222 195,7 5,-95 33,29Z"/>
    <path data-fips-int="38029" data-name="Emmons County" d="M1847,1604l73,0 0,223 17,0 1,218 -281,-1 0,-16 -43,-57 -8,-60 31,-62 -11,-22 15,-52 -19,-41 12,-62 0,-43 -42,-26Z"/>
    <path data-fips-int="38031" data-name="Foster County" d="M2527,985l3,167 -332,6 -2,-168Z"/>
    <path data-fips-int="38033" data-name="Golden Valley County" d="M293,1128l-10,223 25,1 -8,223 -85,-3 -2,56 -108,-5 9,-195 16,-308Z"/>
    <path data-fips-int="38035" data-name="Grand Forks County" d="M3096,580l0,21 35,73 8,62 17,15 15,71 25,25 16,60 -246,10 -174,6 -7,-217 -10,-5 -5,-111Z"/>
    <path data-fips-int="38037" data-name="Grant County" d="M1419,1825l-16,4 -7,30 -40,25 -13,26 -4,7 -33,7 2,15 -85,33 -2,11 -8,4 -3,-1 -37,7 -25,0 0,2 -3,-2 -15,-6 -23,-6 -7,0 -8,-2 -14,4 -5,-5 -11,-6 1,-11 4,-2 -30,3 -5,4 -35,0 3,-97 2,-50 -22,-1 2,-221 -20,-1 2,-56 166,4 -2,56 183,3 -1,164 109,2Z"/>
    <path data-fips-int="38039" data-name="Griggs County" d="M2707,925l40,-1 5,213 11,9 2,54 -220,6 0,-50 -15,-4 -3,-167 -2,-55Z"/>
    <path data-fips-int="38041" data-name="Hettinger County" d="M962,1596l20,1 -2,221 22,1 -2,50 -221,-6 2,-49 -188,-5 5,-223 241,8Z"/>
    <path data-fips-int="38043" data-name="Kidder County" d="M2106,1159l2,221 15,0 2,223 -205,1 -73,0 1,-223 -16,0 0,-220 35,-1Z"/>
    <path data-fips-int="38045" data-name="LaMoure County" d="M2745,1591l7,222 -428,10 -15,0 -3,-222 259,-6Z"/>
    <path data-fips-int="38047" data-name="Logan County" d="M1920,1604l205,-1 181,-2 3,222 -372,4 -17,0Z"/>
    <path data-fips-int="38049" data-name="McHenry County" d="M1760,382l0,111 17,0 0,223 18,0 0,112 -166,0 -166,-2 1,-112 -18,0 2,-222 -20,-1 0,-55 0,-57 0,-54 277,2 0,55Z"/>
    <path data-fips-int="38051" data-name="McIntosh County" d="M2309,1823l15,0 2,219 -388,3 -1,-218Z"/>
    <path data-fips-int="38053" data-name="McKenzie County" d="M672,633l29,-3 3,25 37,11 46,50 -43,68 2,44 -5,95 -195,-7 -7,222 -246,-10 -163,-8 20,-426 52,28 23,-9 3,-28 17,25 15,-52 20,14 2,-34 28,-17 55,28 -17,16 23,14 14,27 33,-26 20,8 58,-20 10,-43 53,-9 0,12 57,-5Z"/>
    <path data-fips-int="38055" data-name="McLean County" d="M1629,828l0,110 -38,0 -2,222 -35,0 0,108 -91,0 -14,-26 10,-24 -35,-37 -56,8 -7,21 -25,-13 -41,-19 -2,-44 -15,-13 -20,-60 32,-26 -29,-31 -76,23 -37,-9 -53,29 -65,-30 -27,-2 0,-20 -73,-3 -25,-28 5,-103 -31,-15 -24,27 0,-57 222,5 386,5Z"/>
    <path data-fips-int="38057" data-name="Mercer County" d="M1336,1197l0,15 -221,-3 -2,167 -146,-3 -20,-20 5,-202 -27,-1 5,-158 73,3 0,20 27,2 65,30 53,-29 37,9 76,-23 29,31 -32,26 20,60 15,13 2,44Z"/>
    <path data-fips-int="38059" data-name="Morton County" d="M1474,1379l9,46 24,51 19,17 -12,34 25,10 0,32 28,20 27,-14 -2,28 42,26 0,43 -12,62 -51,27 -19,-5 -64,-3 -20,31 -49,41 0,-56 -109,-2 1,-164 -183,-3 2,-56 -166,-4 3,-167 146,3 172,3Z"/>
    <path data-fips-int="38061" data-name="Mountrail County" d="M1077,821l-222,-5 0,57 -76,-16 -33,-29 -2,-44 43,-68 -46,-50 -37,-11 -3,-25 -29,3 5,-158 -23,-1 4,-111 274,8 111,1 -3,113 22,0 -4,223 20,7Z"/>
    <path data-fips-int="38063" data-name="Nelson County" d="M2770,590l5,111 10,5 7,217 -45,1 -40,1 -182,5 -11,0 -2,-110 -2,-44 -1,-68 45,-2 -2,-110 53,-1Z"/>
    <path data-fips-int="38065" data-name="Oliver County" d="M1463,1268l35,91 -24,20 -189,0 -172,-3 2,-167 221,3 0,-15 25,13 7,-21 56,-8 35,37 -10,24Z"/>
    <path data-fips-int="38067" data-name="Pembina County" d="M3078,355l-325,11 -1,-109 -10,0 -5,-181 301,-10 -4,21 32,72 10,64 25,43Z"/>
    <path data-fips-int="38069" data-name="Pierce County" d="M2093,379l0,112 -150,1 0,224 17,0 0,111 -57,1 -53,0 -55,0 0,-112 -18,0 0,-223 -17,0 0,-111 57,-1Z"/>
    <path data-fips-int="38071" data-name="Ramsey County" d="M2589,372l3,110 12,0 1,113 -53,1 2,110 -45,2 1,68 -41,0 -22,-53 -38,19 0,-2 -18,-55 -49,37 -31,9 -15,-39 -20,20 0,-55 -57,-29 -1,-139 96,-1 -1,-111Z"/>
    <path data-fips-int="38073" data-name="Ransom County" d="M2900,1586l176,-7 8,222 -321,12 -11,0 -7,-222Z"/>
    <path data-fips-int="38075" data-name="Renville County" d="M1428,379l0,57 -331,-6 3,-166 -75,-2 2,-55 1,-123 222,3 -4,180 19,0 0,110Z"/>
    <path data-fips-int="38077" data-name="Richland County" d="M3116,2023l-15,-39 -7,-181 -10,-2 -8,-222 211,-8 25,36 5,56 45,84 22,14 3,63 20,69 -3,118Z"/>
    <path data-fips-int="38079" data-name="Rolette County" d="M2075,90l1,173 15,7 2,109 -276,2 -2,-110 -15,0 0,-181Z"/>
    <path data-fips-int="38081" data-name="Sargent County" d="M3084,1801l10,2 7,181 15,39 -348,11 -5,-221Z"/>
    <path data-fips-int="38083" data-name="Sheridan County" d="M1795,828l55,0 0,110 15,0 2,222 -35,1 -243,-1 2,-222 38,0 0,-110Z"/>
    <path data-fips-int="38085" data-name="Sioux County" d="M1622,1734l19,41 -15,52 11,22 -31,62 8,60 43,57 0,16 -238,-1 -422,-8 0,-69 35,0 5,-4 30,-3 -4,2 -1,11 11,6 5,5 14,-4 8,2 7,0 23,6 15,6 3,2 0,-2 25,0 37,-7 3,1 8,-4 2,-11 85,-33 -2,-15 33,-7 4,-7 13,-26 40,-25 7,-30 16,-4 49,-41 20,-31 64,3 19,5Z"/>
    <path data-fips-int="38087" data-name="Slope County" d="M598,1586l-5,223 -32,-1 -165,-5 -301,-14 10,-166 108,5 2,-56 85,3 165,7Z"/>
    <path data-fips-int="38089" data-name="Stark County" d="M947,1353l20,20 -3,167 -2,56 -123,-2 -241,-8 -133,-4 8,-225 86,3 222,8 1,-19Z"/>
    <path data-fips-int="38091" data-name="Steele County" d="M2792,923l174,-6 9,223 10,0 1,53 -110,4 -111,3 -2,-54 -11,-9 -5,-213Z"/>
    <path data-fips-int="38093" data-name="Stutsman County" d="M2198,1158l332,-6 15,4 0,50 5,167 12,0 3,222 -259,6 -181,2 -2,-223 -15,0 -2,-221Z"/>
    <path data-fips-int="38095" data-name="Towner County" d="M2313,377l1,111 -96,1 -125,2 0,-112 -2,-109 -15,-7 -1,-173 221,-5 2,162 13,20Z"/>
    <path data-fips-int="38097" data-name="Traill County" d="M3254,1184l-268,9 -1,-53 -10,0 -9,-223 246,-10 25,52 -8,40 12,19 -9,50 14,13Z"/>
    <path data-fips-int="38099" data-name="Walsh County" d="M2753,366l325,-11 1,44 19,23 -17,29 22,43 -7,86 -326,10 -165,5 -1,-113 -12,0 -3,-110Z"/>
    <path data-fips-int="38101" data-name="Ward County" d="M1027,207l-2,55 75,2 -3,166 331,6 0,55 20,1 -2,222 18,0 -1,112 -386,-5 1,-106 -20,-7 4,-223 -22,0 3,-113 -111,-1 3,-112 35,2 2,-57Z"/>
    <path data-fips-int="38103" data-name="Wells County" d="M1903,828l57,-1 221,-1 2,110 13,0 0,54 2,168 -92,1 -239,1 -2,-222 -15,0 0,-110Z"/>
    <path data-fips-int="38105" data-name="Williams County" d="M658,307l0,56 -4,111 23,1 -5,158 -56,-10 -57,5 0,-12 -53,9 -10,43 -58,20 -20,-8 -33,26 -14,-27 -23,-14 17,-16 -55,-28 -28,17 -2,34 -20,-14 -15,52 -17,-25 -3,28 -23,9 -52,-28 17,-407 291,14Z"/>
    <path data-fips-int="38005" data-name="Benson County" d="M2093,491l125,-2 1,139 57,29 0,55 20,-20 15,39 31,-9 49,-37 18,55 0,2 38,-19 22,53 41,0 2,44 -331,6 -221,1 0,-111 -17,0 0,-224Z"/>
    <path data-fips-int="38027" data-name="Eddy County" d="M2512,820l2,110 11,0 2,55 -331,5 0,-54 -13,0 -2,-110Z"/>
  </g>
  <g class="cities">
    <circle r="3" cx="328.4" cy="141.4"/>
    <text x="328.4" y="141.4">Fargo</text>
    <circle r="3" cx="154.0" cy="149.2"/>
    <text x="154.0" y="149.2">Bismarck</text>
    <circle r="3" cx="315.0" cy="75.0"/>
    <text x="315.0" y="75.0">Grand Forks</text>
  </g>
</svg>