<?xml version="1.0" encoding="utf-8"?>
<!DOCTYPE svg PUBLIC "-//W3C//DTD SVG 1.1//EN" "http://www.w3.org/Graphics/SVG/1.1/DTD/svg11.dtd">
<svg version="1.1" xmlns="http://www.w3.org/2000/svg" width="1000" height="600" viewBox="0 0 1000 600">
  <path class="state" d="M284,581h-38l-88,-3 -133,-6 1,-61 3,-48 2,-38 4,-60 2,-45 3,-50 3,-72 2,-51v-21l2,-44v-20l4,-47 53,3 80,3 67,2h43l62,1 63,2h94l79,-1 64,-1 103,-2 22,-1 87,-3 -1,10 8,13 -1,10 4,6 8,22 -6,9 -1,14 5,24 -4,4 6,14 -2,21v8l10,17 3,20 21,49 6,11 2,17 -2,19 4,3 2,29 3,48 5,8 1,18 -3,3 4,14 -2,19 8,10 2,18 5,12 13,14 1,16 7,23 -2,15 3,18 -85,4 -80,3h-19l-47,1 -80,1 -53,1h-58l-80,-1h-76Z"/>
  <g class="counties">
    <path data-fips-int="38001" data-name="Adams County" d="M284,533v28v20h-38l-88,-3 2,-62h9l53,1v15Z"/>
    <path data-fips-int="38003" data-name="Barnes County" d="M790,343l31,-1v42l5,5 2,64 -44,1 -51,1 -1,-63h-4l-1,-48Z"/>
    <path data-fips-int="38007" data-name="Billings County" d="M154,325h7l-1,64 -25,-1 -2,63 -48,-1 3,-64h-8l3,-64Z"/>
    <path data-fips-int="38009" data-name="Bottineau County" d="M513,26v51h6v32h-16h-16v-16l-78,-1 -1,16h-47v-32h-6l1,-52 63,2Z"/>
    <path data-fips-int="38011" data-name="Bowman County" d="M158,578l-133,-6 1,-61 61,3 73,2Z"/>
    <path data-fips-int="38013" data-name="Burke County" d="M294,23l-1,36 -16,-1 -1,16h-9l-2,32 -78,-3 1,-16v-16h-6l2,-50 67,2Z"/>
    <path data-fips-int="38015" data-name="Burleigh County" d="M523,331v63h5v64h-74l4,-7 -10,3 -16,-21 2,-10 -10,-14 -3,-15 7,-6 -11,-26h27v-31h9Z"/>
    <path data-fips-int="38017" data-name="Cass County" d="M853,341l77,-3 3,48 5,8 1,18 -3,3 4,14 -2,19 -60,3 -50,2 -2,-64 -5,-5v-42Z"/>
    <path data-fips-int="38019" data-name="Cavalier County" d="M781,21l1,47 4,6 1,31 -47,1 -79,2v-26l-5,-11v-47l103,-2Z"/>
    <path data-fips-int="38021" data-name="Dickey County" d="M786,517h3l2,64 -47,1 -80,1v-63Z"/>
    <path data-fips-int="38023" data-name="Divide County" d="M184,21l-2,50h6v16l-61,-2 -80,-3v-20l4,-47 53,3Z"/>
    <path data-fips-int="38025" data-name="Dunn County" d="M244,249l4,-7 10,3v30l7,8 -1,45h8l-1,58 -48,-1v5l-63,-1 1,-64h-7l2,-64 56,2 1,-27 9,9Z"/>
    <path data-fips-int="38029" data-name="Emmons County" d="M528,458h20v64h5v62l-80,-1v-5l-13,-17 -2,-15 8,-11 -1,-14 4,-14 -5,-12 3,-30 -13,-7Z"/>
    <path data-fips-int="38031" data-name="Foster County" d="M722,281v48l-95,2v-48Z"/>
    <path data-fips-int="38033" data-name="Golden Valley County" d="M83,322l-3,64h8l-3,64 -23,-1 -1,16 -32,-2 2,-38 4,-60 2,-45Z"/>
    <path data-fips-int="38035" data-name="Grand Forks County" d="M884,165v8l10,17 3,20 21,49 -71,2 -50,2 -1,-58 -4,-9v-28Z"/>
    <path data-fips-int="38037" data-name="Grant County" d="M406,521l-7,2v9l-12,6v7l-14,5 -5,8 -19,6 -1,4 -13,1 -2,-4 -9,4 -33,-10 -3,2h-4v-28l2,-14h-7l1,-63h-5l1,-16 46,1v15l52,2v47h32Z"/>
    <path data-fips-int="38039" data-name="Griggs County" d="M784,264l2,63 4,16 -63,1 -1,-15h-4v-48v-15Z"/>
    <path data-fips-int="38041" data-name="Hettinger County" d="M275,456h5l-1,63h7l-2,14 -62,-1v-15l-53,-1 2,-63Z"/>
    <path data-fips-int="38043" data-name="Kidder County" d="M602,331v63h4v64h-58h-20v-64h-5v-63h10Z"/>
    <path data-fips-int="38045" data-name="LaMoure County" d="M784,454l1,61 1,2 -122,3h-5v-62l-1,-1 75,-2Z"/>
    <path data-fips-int="38047" data-name="Logan County" d="M606,458l52,-1 1,1v62v1l-106,1h-5v-64Z"/>
    <path data-fips-int="38049" data-name="McHenry County" d="M503,109v31h5v64h4v32h-47l-48,-1 1,-31h-6l1,-64h-5v-16v-16l1,-16 78,1v16Z"/>
    <path data-fips-int="38051" data-name="McIntosh County" d="M659,520h5v63l-53,1h-58v-62l106,-1Z"/>
    <path data-fips-int="38053" data-name="McKenzie County" d="M192,181l8,-1v7l12,3 13,15 -13,21 1,10 -1,27 -56,-2 -2,64 -71,-3 -46,-2 3,-50 3,-72 4,6 16,1 1,-9 5,6 3,-12 12,-3 -4,-4 6,-6 11,1 7,6 -4,9 7,8 35,-11 -2,-5 6,-8 14,-1Z"/>
    <path data-fips-int="38055" data-name="McLean County" d="M465,236v32h-11l-1,63h-9v31h-27l-3,-19 -7,-6 -16,2 -2,6 -8,-3 -11,-6 -2,-13 -9,-17 9,-10 -8,-9 -18,5 -16,-1 -11,6h-11l-7,-6 -10,-1 -1,-6 -21,-1 -7,-8v-30l-10,-3 -4,7v-16l63,1 60,1h50Z"/>
    <path data-fips-int="38057" data-name="Mercer County" d="M381,342v4l-63,-1 -1,48 -41,-1 -5,-6 1,-58h-8l1,-45 21,1 1,6 10,1 7,6h11l11,-6 16,1 18,-5 8,9 -9,10 9,17 2,13Z"/>
    <path data-fips-int="38059" data-name="Morton County" d="M421,394l3,15 10,14 -2,10 16,21 10,-3 -4,7 13,7 -3,30 -15,8 -27,-2 -7,13 -9,7v-16h-32v-47l-52,-2v-15l-46,-1v-48l41,1 51,1Z"/>
    <path data-fips-int="38061" data-name="Mountrail County" d="M307,234l-63,-1v16l-22,-4 -9,-9 -1,-10 13,-21 -13,-15 -12,-3v-7l-8,1 1,-43 -7,-3 1,-32 78,3h32v32h6l-1,64h6Z"/>
    <path data-fips-int="38063" data-name="Nelson County" d="M792,168v28l4,9 1,58 -13,1 -62,2h-4v-32l-1,-13v-19h12l-1,-32 16,-1Z"/>
    <path data-fips-int="38065" data-name="Oliver County" d="M417,362l11,26 -7,6h-53l-51,-1 1,-48 63,1v-4l8,3 2,-6 16,-2 7,6Z"/>
    <path data-fips-int="38067" data-name="Pembina County" d="M879,102l-92,3 -1,-31 -4,-6 -1,-47 87,-3 -1,10 8,13 -1,10 4,6 8,22 -6,9Z"/>
    <path data-fips-int="38069" data-name="Pierce County" d="M598,108v32h-43v64h5v32h-32h-16v-32h-4v-64h-5v-31h16Z"/>
    <path data-fips-int="38071" data-name="Ramsey County" d="M740,106v25l3,6 1,32 -16,1 1,32h-12v19h-13l-4,-14 -15,-3 -2,-8 -14,10 -9,3 -2,-12 -8,6v-15l-16,-8 -1,-40 28,-1v-31Z"/>
    <path data-fips-int="38073" data-name="Ransom County" d="M828,453l50,-2 3,64 -56,2h-36h-3l-1,-2 -1,-61Z"/>
    <path data-fips-int="38075" data-name="Renville County" d="M408,108v16l-94,-1 1,-48h-22v-16l1,-36 62,1 -1,52h6v32Z"/>
    <path data-fips-int="38077" data-name="Richland County" d="M890,578v-11l-5,-1 -1,-48 -3,-3 -3,-64 60,-3 8,10 2,18 5,12 13,14 1,16 7,23 -2,15 3,18Z"/>
    <path data-fips-int="38079" data-name="Rolette County" d="M592,25l1,51h4l1,32 -79,1v-32h-6v-51Z"/>
    <path data-fips-int="38081" data-name="Sargent County" d="M881,515l3,3 1,48 5,1v11l-80,3h-19l-2,-64h36Z"/>
    <path data-fips-int="38083" data-name="Sheridan County" d="M512,236h16v32l5,3v60h-10h-70l1,-63h11v-32Z"/>
    <path data-fips-int="38085" data-name="Sioux County" d="M464,495l5,12 -4,14 1,14 -8,11 2,15 13,17v5h-76l-113,-2v-20h4l3,-2 33,10 9,-4 2,4 13,-1 1,-4 19,-6 5,-8 14,-5v-7l12,-6v-9l7,-2 9,-7 7,-13 27,2Z"/>
    <path data-fips-int="38087" data-name="Slope County" d="M171,453l-2,63h-9l-73,-2 -61,-3 3,-48 32,2 1,-16 23,1 48,1Z"/>
    <path data-fips-int="38089" data-name="Stark County" d="M271,386l5,6v48l-1,16 -104,-3 -38,-2 2,-63 25,1 63,1v-5Z"/>
    <path data-fips-int="38091" data-name="Steele County" d="M797,263l50,-2 2,62 4,18 -32,1 -31,1 -4,-16 -2,-63Z"/>
    <path data-fips-int="38093" data-name="Stutsman County" d="M627,331l95,-2h4l1,15 1,48h4l1,63 -75,2 -52,1v-64h-4v-63Z"/>
    <path data-fips-int="38095" data-name="Towner County" d="M661,108v31l-28,1h-35v-32l-1,-32h-4l-1,-51 64,-1v47l5,11Z"/>
    <path data-fips-int="38097" data-name="Traill County" d="M930,338l-77,3 -4,-18 -2,-62 71,-2 6,11 2,17 -2,19 4,3Z"/>
    <path data-fips-int="38099" data-name="Walsh County" d="M787,105l92,-3 5,24 -4,4 6,14 -2,21 -92,3 -48,1 -1,-32 -3,-6v-25Z"/>
    <path data-fips-int="38101" data-name="Ward County" d="M293,59v16h22l-1,48 94,1v16h5l-1,64h6l-1,31h-50l-60,-1 1,-32h-6l1,-64h-6v-32h-32l2,-32h9l1,-16Z"/>
    <path data-fips-int="38103" data-name="Wells County" d="M560,236l63,-1v26l4,6v16v48h-25h-69v-60l-5,-3v-32Z"/>
    <path data-fips-int="38105" data-name="Williams County" d="M188,87l-1,16 -1,32 7,3 -1,43 -32,-5 -14,1 -6,8 2,5 -35,11 -7,-8 4,-9 -7,-6 -11,-1 -6,6 4,4 -12,3 -3,12 -5,-6 -1,9 -16,-1 -4,-6 2,-51v-21l2,-44 80,3Z"/>
    <path data-fips-int="38005" data-name="Benson County" d="M598,140h35l1,40 16,8v15l8,-6 2,12 9,-3 14,-10 2,8 15,3 4,14h13l1,13 -95,1 -63,1v-32h-5v-64Z"/>
    <path data-fips-int="38027" data-name="Eddy County" d="M718,234v32h4v15l-95,2v-16l-4,-6v-26Z"/>
  </g>
  <path class="mesh" d="M158,578l2,-62h9l53,1v15l62,1v28v20M722,281v48l-95,2v-48l95,-2v-15l62,-2 2,63 4,16 31,-1v42l5,5 2,64 -44,1 -51,1 -1,-63h-4l-1,-48 63,-1M513,26v51h6v32h-16h-16v-16l-78,-1 -1,16h-47v-32h-6l1,-52M26,511l61,3 73,2M294,23l-1,36 -16,-1 -1,16h-9l-2,32 -78,-3 1,-16v-16h-6l2,-50M821,342l32,-1 77,-3M938,448l-60,3 -50,2M781,21l1,47 4,6 1,31 -47,1 -79,2v-26l-5,-11v-47M664,583v-63l122,-3h3l2,64M188,87l-61,-2 -80,-3M154,325h7l-1,64 -25,-1 -2,63 -48,-1 3,-64h-8l3,-64 71,3 2,-64 56,2 1,-27 9,9 22,4 4,-7 10,3v30l7,8 -1,45h8l-1,58 -48,-1v5l-63,-1M528,458h20v64h5v62M473,583v-5l-13,-17 -2,-15 8,-11 -1,-14 4,-14 -5,-12 3,-30 -13,-7M85,450l-23,-1 -1,16 -32,-2M37,320l46,2M918,259l-71,2 -50,2 -1,-58 -4,-9v-28l92,-3M284,533l2,-14h-7l1,-63h-5l1,-16 46,1v15l52,2v47h32v16l-7,2v9l-12,6v7l-14,5 -5,8 -19,6 -1,4 -13,1 -2,-4 -9,4 -33,-10 -3,2h-4M727,344l-1,-15h-4M169,516l2,-63 104,3M523,331v63h5v64h-74l4,-7 -10,3 -16,-21 2,-10 -10,-14 -3,-15 7,-6 -11,-26h27v-31h9h70h10h69v63h4v64h-58M784,454l1,61 1,2M664,520h-5v-62l-1,-1 75,-2M606,458l52,-1M659,520v1l-106,1M503,109v31h5v64h4v32h-47l-48,-1 1,-31h-6l1,-64h-5v-16v-16M43,198l4,6 16,1 1,-9 5,6 3,-12 12,-3 -4,-4 6,-6 11,1 7,6 -4,9 7,8 35,-11 -2,-5 6,-8 14,-1 32,5 8,-1v7l12,3 13,15 -13,21 1,10M465,236v32h-11l-1,63M417,362l-3,-19 -7,-6 -16,2 -2,6 -8,-3 -11,-6 -2,-13 -9,-17 9,-10 -8,-9 -18,5 -16,-1 -11,6h-11l-7,-6 -10,-1 -1,-6 -21,-1M244,249v-16l63,1 60,1h50M381,342v4l-63,-1 -1,48 -41,-1 -5,-6M464,495l-15,8 -27,-2 -7,13 -9,7M276,440v-48M317,393l51,1h53M192,181l1,-43 -7,-3 1,-32M265,106h32v32h6l-1,64h6l-1,32M797,263l-13,1M722,266h-4v-32l-1,-13v-19h12l-1,-32 16,-1 48,-1M879,102l-92,3M519,109l79,-1v32h-43v64h5v32h-32h-16M740,106v25l3,6 1,32M717,221h-13l-4,-14 -15,-3 -2,-8 -14,10 -9,3 -2,-12 -8,6v-15l-16,-8 -1,-40 28,-1v-31M878,451l3,64 -56,2h-36M408,124l-94,-1 1,-48h-22v-16M890,578v-11l-5,-1 -1,-48 -3,-3M592,25l1,51h4l1,32M528,236v32l5,3v60M133,451l38,2M847,261l2,62 4,18M602,331h25M633,140h-35M560,236l63,-1v26l4,6v16M718,234l-95,1"/>
  <g class="cities">
    <circle r="7" cx="938" cy="404"/>
    <text x="938" y="404">Fargo</text>
    <circle r="7" cx="440" cy="426"/>
    <text x="440" y="426">Bismarck</text>
    <circle r="7" cx="900" cy="214"/>
    <text x="900" y="214">Grand Forks</text>
  </g>
</svg>