<?xml version="1.0" encoding="utf-8"?>
<!DOCTYPE svg PUBLIC "-//W3C//DTD SVG 1.1//EN" "http://www.w3.org/Graphics/SVG/1.1/DTD/svg11.dtd">
<svg version="1.1" xmlns="http://www.w3.org/2000/svg" width="1000" height="600" viewBox="0 0 1000 600">
  <path class="state" d="M284,581h-36l-2,-1h-19v-1h-32l-6,-1h-32l-3,-1h-29l-2,-1h-22l-7,-2h-38l-2,-1h-23l-6,-1v-31l1,-25v-7l1,-16v-1l2,-29 2,-33 3,-62v-1l1,-2v-35l2,-10v-11l1,-26v-12l2,-1v-4l2,-33v-16l1,-2v-19l1,-7v-40l1,-23 1,-2v-20l1,-1v-41h2v-10l1,-13v-17h1v-7l29,2h22l17,1 16,1h17l24,1 3,1h16l51,1 16,1h32l25,1h39l18,1h36l7,1h158l15,-1h33l11,-1h54l2,-1h13l46,-1h18l12,-1 54,-2h33v1l-1,1v3l1,1v1l-1,2h1v1l1,2h1l-1,1 1,1 1,1h-1l1,1v1l1,1h1v1h-1v1h1h-1l1,2h2v1h-1v1h1l1,2v1h-1l1,1 -1,2v2h-1v1h1l1,1h2l-1,1h-1l-1,1h1l1,-1 1,1h-2v1h2v4l1,1 -1,1v1h2v3h1v1l-1,1h2v2l1,1h1l-1,1v1h1v1l1,1h2l-2,1 1,2 -2,1h2l-2,4v1h1v1h-2v-1l-1,1 1,2h-1v1h-2v2h2h-1v1h-1l-1,1h2v2l-1,1 -1,-1v1h1v2l-2,1v1h4v1h-4v1l1,1h2v2h-1v2h1l1,-1 1,1 -1,1h-2l1,1v2h1l1,1h-2h1v1h-2v1h-1v1h2l2,-1v2l-1,-1h-1v1l1,1h2v1l-1,1 -1,1 -1,1h2v-1l1,1v2l-1,-1h-1v2h2l1,1h-4v1h1v-1l1,1 1,1 -1,1h-1v1h-2v1h1l-1,1h1l1,1 1,-1h1l-1,1v2h-2v2h2v1h1l-1,1v1l1,-1v1h1v2h-2v1v-1h3v1l-2,1v2h2l-1,1h2v2l-1,-2h-1l-1,2v1h1v-1l1,1 1,1 -1,1h-1l1,1h-3v1h3v1h-1l1,1v1h-1l-2,1h1l1,1h-2v1l1,1h2v1l-1,-1h-1l-1,1h-1l1,1 1,-1 3,1v1h-1v-1h-2l1,1 -1,1v2l-1,1v1h2v2h-2h1v3h1v-1h1v-1h1v2l-2,1h-1v2l1,-1h1l1,1v1h-1v1l1,1v3h2v1h1v1l-1,1 1,1v2h1v2h1v1h1l1,1v6h2v1h-1v2l1,1h1v3h-1v1h1v1h-1v1h1v3l1,1h1h-1l1,2h1l1,1 -1,1h1v1l1,1h-2h1v1l-1,1h1v2h-1h1v2h2l1,1h-1v1h1v2l1,1h-1v1h2v2l1,1v2h-2v1h2v2h1l1,-1v1l1,1h-1v1h1v2h2v1h1v1l1,1h-1l1,1v6l2,2v1h-2h2v2h1v-1l1,4h1v1l1,3v3h1v1h-1v1h1l1,1v1h2v1h-1h1v1h-1v1h1v3h-1h1v2h-2l1,1 1,-1h1v1h-2v1h2l-1,2h-1h2v1h-2h1v2h-2v1h1v1h1v1h1v-1h1v1h-1h1v1h-1v2h-1v1h-1h2v2l-1,-1 -1,1h2l-1,1v1l1,1 -1,1v1l1,-1v1h-1v1h1v1h-1v1h1l-1,1v1h1h-2v1l1,-1v1l1,2h1l1,-1v1h-1v1h1v1h-1l1,1v-1h1v3h-2l1,1h-1v1h1v-1h1l-1,1h-2l1,1h1l-1,1h1l1,1 -1,-1v2l1,1 1,1 -1,1h-1l1,1v-1h1v1h-1l1,1h-1l-1,1h1v1v-1l1,1 -1,3v4h-1h2v1h-1v1v-1h1v1h-1v1h1h-1v1h1v-1l1,1 -1,1h-1v1h1v-1l1,1v1h-2l2,1h-1v1h-1h2h-1v1l1,1 -1,1h1l1,1h-1v-1l-1,1v1h2v1h-1v1l1,1h-1h1v4h-2v1h2v1h-1l1,1v3h-1l1,1 2,2 -2,1 2,2h-2h2v2l-2,1h2h-2v3l2,1v1h-2h2v1h1v1h-3l2,1 1,1h-3v3l2,1v4h1l-1,1 1,1 1,1h1v-1v4l1,1v2h1v1v-1h1l2,-1v1h-1h2l-1,1v2l-1,1 -1,2h1v2l-1,1v2l-1,1h1v1h-1l1,1h1l-1,1 1,1h-2l1,1h-2h1l1,2h-1l-1,2h-1l1,1v1h-1h1v2h1v1l1,1h-1v1h1l-1,1h2v2h-1l-1,1h1v1l1,1 -1,-1 1,2 -1,1h1v2h-1v1h1l-1,1v1h1v2l-1,1h1v1h-2h1v1h-1l1,1 -1,1v1l1,1v4h-1l1,1 1,-1v1l-1,1h1l1,-1v1h-1v1l1,-1h1v1h-1h1v1l-1,1h1v-1l1,1 -1,1v1v-1h1v1h1l-1,1h2l-1,1h2h-1v1h-1l1,1v-1h1v1h-1h1v1l-1,1h1l-1,1h1v1h1h-1v1h1h-1v1v-1h1v2h-1h1v2h-1h1v1l1,1h-1l1,1 -1,1h1h-1h1v4v-1v1h1v1h2h-1v1h1v3h-1l1,1 -1,1 1,1h1v-1h1v1h-1v1h1v-1v3l1,-1v1h-1v1h1v-1h1v2v-1v1l1,1v1l1,1v3h1l1,1h1v3h1v-1h1v1l2,1v1h1v1h1v2l1,1v1h-1v1l1,1h-1v1h1l-1,1h1v5h1v1l1,1h-2v1l1,3v2l1,1 1,1v1l-1,1h1l-1,1v1l1,1 1,1v5l1,1v1l1,2v1h1l-1,1 1,1v9l-1,1v2l-1,1v2h1v2l-1,1 1,1v6l1,1v2l1,1v2h-31v2h-25l-3,1h-23l-3,1h-23l-7,1h-30l-1,1h-18l-1,1h-40l-2,1h-66v1h-86l-10,1h-127l-3,-1h-123l-2,-1h-48l-11,-1h-8Z"/>
  <g class="subcounties">
    <path data-geo-id="38027" data-name="State House District 27" d="M927,415l3,-11h1v4l4,9 2,2h1v1l1,1h-1v1h1l-1,1h2v2h-1l-1,1h1v1l1,1 -1,-1 1,2 -1,1h1v2h-1v1h1h-13Z"/>
    <path data-geo-id="38034" data-name="State House District 34" d="M424,421l2,-2 9,7v2l-1,2 -1,2v1h-1v1l4,5 -7,-12h-2Z"/>
    <path data-geo-id="38017" data-name="State House District 17" d="M875,213h15l3,2 5,3 3,-3v1l1,1h-2h1v1l-1,1h1v2h-1h1v2h2l1,1h-1v1h1v2l1,1 -30,1Z"/>
    <path data-geo-id="38006" data-name="State House District 6" d="M293,58v-9l1,-2v-24l25,1h39l18,1h36l7,1h94v51h6v32h-16v31h5v64h2l2,15v17h-84l-8,-1h-3v-4l1,-8v-19h-6v-30h1v-26l-5,-8v-16h-37l-13,-1h-44v-44h1v-4h-22v-17Z"/>
    <path data-geo-id="38020" data-name="State House District 20" d="M858,198l-1,16 18,-1v16l30,-1h-1v1h2v2l1,1v2h-2v1h2v2h1l1,-1v1l1,1h-1v1h1v2h2v1h1v1l1,1h-1l1,1v6l2,2v1h-2h2v2h1v-1l1,4h1v1l1,3v3h1v1h-1v1h1l1,1v1h2v1h-1h1v1h-1v1h1v3h-1h1v2h-2l1,1 1,-1h1v1h-2v1h2l-1,2h-1h2v1h-2h1v2h-2v1h1v1h1v1h1v-1h1v1h-1h1v1h-1v2h-1v1h-1h2v2l-1,-1 -1,1h2l-1,1v1l1,1 -1,1v1l1,-1v1h-1v1h1v1h-1v1h1l-1,1v1h1h-2v1l1,-1v1l1,2h1l1,-1v1h-1v1h1v1h-1l1,1v-1h1v3h-2l1,1h-1v1h1v-1h1l-1,1h-2l1,1h1l-1,1h1l1,1 -1,-1v2l1,1 1,1 -1,1h-1l1,1v-1h1v1h-1l1,1h-1l-1,1h1v1v-1l1,1 -1,3v4h-1h2v1h-1v1v-1h1v1h-1v1h1h-1v1h1v-1l1,1 -1,1h-1v1h1v-1l1,2h-2l2,1h-1v1h-1h2h-1v1l1,1 -1,1h1l1,1h-1v-1l-1,1v1h2v1h-1v1l1,1h-1h1v4h-2v1l-28,1 -47,2 -1,-16v-13l-1,-2v-1h-2l-1,-2v-23l-1,-6v-27l-1,-1v-5l-3,1 -2,-64Z"/>
    <path data-geo-id="38031" data-name="State House District 31" d="M250,455h19l1,1h5v-14h1v-2h44l1,1h1v15l2,1h30l1,1h18l12,-6v-37l37,2 8,2 3,4 1,1 1,2 -9,-7 -2,2 3,6h2l7,12h1l3,1v2l-3,1 2,5 5,-1 3,7h1l6,-4v8h1v1h2v1h1l1,1 8,4 1,2 -2,1h-2l5,8 -5,9v1l-1,1v4l-1,1h1v3h1v2h1v2l2,4v1h1v3h1v8l-1,1v1h-1v2h-1v2h-1v4h1v1l1,1v1h1v1l-1,2v1l-1,1v1l-1,1v1h-1v1h-1l-2,4 -2,2v3h-1v4h1v2h1v9l1,1v2h1l1,2h1v2l1,1h1v2h1v1h1v1h2v1l3,9h-120l-2,-1h-48l-11,-1h-8v-48h-45v-1h-1v1v-1h-16v-15h-5v-31l32,1Z"/>
    <path data-geo-id="38026" data-name="State House District 26" d="M726,519h14l3,-1h19l7,-1h32v-16h16v-16l15,-1v-16l47,-1v-3l-1,-2v-11h19v-1h13v16l26,-2 1,16 -10,1 1,32 3,-1 2,64h-14l-3,1h-23l-3,1h-23l-7,1h-30l-1,1h-18l-1,1h-40l-2,1h-41v-59Z"/>
    <path data-geo-id="38014" data-name="State House District 14" d="M454,279v-11h11v-32h47v-17l-2,-15h-2v-64h-5v-31h48l10,-1h37v32h35v18l1,1v21h2l1,1h2l1,1h1v-1h2v3h1l1,1v1h-1v1h1v1h-27l1,16h4v57l1,1v5l3,3v61h-25v63h4v64h-78v-64h-5v-63h-70v-13l1,-4v-33Z"/>
    <path data-geo-id="38007" data-name="State House District 7" d="M425,410l21,3h8v21l-5,3 -3,-15h-5l-9,-7 2,8h-1l-3,-4 -3,-6Z"/>
    <path data-geo-id="38040" data-name="State House District 40" d="M376,124h32v16l5,8v8h-29l-5,8h-3l-3,-4v-20Z"/>
    <path data-geo-id="38009" data-name="State House District 9" d="M513,77v-51h64l15,-1 1,12v39h3l1,2v28l1,2h-37l-10,1h-32v-32h-6Z"/>
    <path data-geo-id="38033" data-name="State House District 33" d="M265,300l25,2 11,3 10,-6h2l1,-1h1l2,-2 4,-2 11,-2 3,1h4l5,-1 5,-3h1l5,-1 2,-1h3l2,1 3,4h1v5l-2,1 -1,1h-1l-1,1v1h-1v1h-1v4l1,1 3,4v1l2,7 3,3v9h2l1,4 2,2 1,1 7,4h1l3,3h4l1,-5h1l9,-4 14,6 2,6 -1,1v1l-1,6 3,5v1l3,5 1,5v2l7,14 -2,2h-1v1h-1l-2,1v1h-1v1l-1,1 5,15 2,3 3,6 -8,-2 -37,-2v37l-12,6h-18l-1,-1h-30l-2,-1v-15l6,-16 7,3v-11l6,-2v-22h-34l-5,-1h-32v-5l1,-1v-38l1,-1v-18l-1,-1h-7v-16l1,-3v-7Z"/>
    <path data-geo-id="38019" data-name="State House District 19" d="M792,194v-26l-1,-32 28,-1v-31h5l1,-1h33v-1h23v2h-1v2h1l1,-1 1,1 -1,1h-2l1,1v2h1l1,1h-2h1v1h-2v1h-1v1h2l2,-1v2l-1,-1h-1v1l1,1h2v1l-1,1 -1,1 -1,1h2v-1l1,1v2l-1,-1h-1v2h2l1,1h-4v1h1v-1l1,1 1,1 -1,1h-1v1h-2v1h1l-1,1h1l1,1 1,-1h1l-1,1v2h-2v2h2v1h1l-1,1v1l1,-1v1h1v2h-2v1v-1h3v1l-2,1v2h2l-1,1h2v2l-1,-2h-1l-1,2v1h1v-1l1,1 1,1 -1,1h-1l1,1h-3v1h3v1h-1l1,1v1h-1l-2,1h1l1,1h-2v1l1,1h2v1l-1,-1h-1l-1,1h-1l1,1 1,-1 3,1v1h-1v-1h-2l1,1 -1,1v2l-1,1v1h2v2h-2h1v3h1v-1h1v-1h1v2l-2,1h-1v2l1,-1h1l1,1v1h-1v1l1,1v3h2v1h1v1l-1,1 1,1v2h1v2h1v1h1l1,1v6l-36,1h-16l2,64h-13l-5,1h-29v-28l-1,-1v-29l-1,-1v-4h-2v-3l-1,-1v-1Z"/>
    <path data-geo-id="38036" data-name="State House District 36" d="M134,403l1,-2v-13h19l3,1h3v-37l1,-2v-25h-7v-4l2,-1 45,1 8,6 -1,31 63,2v26l-1,1v5h32l5,1h34v22l-6,2v11l-7,-3 -6,16h-1l-1,-1h-44v2h-1v14h-5l-1,-1h-19l-1,32 -32,-1v31h-47l-1,-1v-23l1,-3v-34h1v-1h-1l1,-1v-1h-7v-1h-31v-23h1v-26Z"/>
    <path data-geo-id="38025" data-name="State House District 25" d="M927,433h13l-1,1v1h1v2l-1,1h1v1h-2h1v1h-1l1,1 -1,1v1l1,1v4h-1l1,1 1,-1v1l-1,1h1l1,-1v1h-1v1l1,-1h1v1h-1h1v1l-1,1h1v-1l1,1 -1,1v1v-1h1v1h1l-1,1h2l-1,1h2h-1v1h-1l1,1v-1h1v1h-1h1v1l-1,1h1l-1,1h1v1h1h-1v1h1h-1v1v-1h1v2h-1h1v2h-1h1v1l1,1h-1l1,1 -1,1h1h-1h1v4v-1v1h1v1h2h-1v1h1v3h-1l1,1 -1,1 1,1h1v-1h1v1h-1v1h1v-1v3l1,-1v1h-1v1h1v-1h1v2v-1v1l1,1v1l1,1v3h1l1,1h1v3h1v-1h1v1l2,1v1h1v1h1v2l1,1v1h-1v1l1,1h-1v1h1l-1,1h1v5h1v1l1,1h-2v1l1,3v2l1,1 1,1v1l-1,1h1l-1,1v1l1,1 1,1v5l1,1v1l1,2v1h1l-1,1 1,1v9l-1,1v2l-1,1v2h1v2l-1,1 1,1v6l1,1v2l1,1v2h-31v2h-11l-2,-64 -3,1 -1,-32 10,-1 -1,-16 -26,2v-16h-3l-1,-16Z"/>
    <path data-geo-id="38004" data-name="State House District 4" d="M192,172v-5l1,-1v-14l62,1 2,-16h-7l1,-31h14v-12l2,-2v-18h9v-7h1v-9h9l1,1h6v16h22v4h-1v44h31l-1,16h-9l-1,48 47,1h31v16h6v19l-1,8v4h-15v32h-20l-38,-1v26l-5,1h-4l-3,-1 -11,2 -4,2 -2,2h-1l-1,1h-2l-10,6 -11,-3 -25,-2v9l-1,3v16h7l1,1v18l-1,1v12l-63,-2 1,-31 -8,-6 1,-39 -8,-4 1,-15 1,-59 29,1 -1,-1h-2l-1,-1 -3,-7h-7l-4,-8h-1l-6,-1v-7h-1l-3,2h-1l-3,-1Z"/>
    <path data-geo-id="38028" data-name="State House District 28" d="M446,452l3,-15 5,-3h11v-24h63v48h115v-1l1,1 1,-1h13l1,1v31l47,-1v31h20l1,4v59h-25v1h-86l-10,1h-127l-3,-1h-3l-3,-9v-1h-2v-1h-1v-1h-1v-2h-1l-1,-1v-2h-1l-1,-2h-1v-2l-1,-1v-9h-1v-2h-1v-4h1v-3l2,-2 2,-4h1v-1h1v-1l1,-1v-1l1,-1v-1l1,-2v-1h-1v-1l-1,-1v-1h-1v-4h1v-2h1v-2h1v-1l1,-1v-8h-1v-3h-1v-1l-2,-4v-2h-1v-2h-1v-3h-1l1,-1v-4l1,-1v-1l5,-9 -5,-8h2l2,-1 -1,-2 -8,-4 -1,-1h-1v-1h-2v-1h-1v-8l-6,4h-1Z"/>
    <path data-geo-id="38038" data-name="State House District 38" d="M345,123h13l13,1h5l-3,16v20l3,4 -3,8 8,-3v19l-47,-1 1,-48h9Z"/>
    <path data-geo-id="38045" data-name="State House District 45" d="M901,355l28,-1h2v1h-1l1,1v3h-1l1,1 2,2 -2,1 2,2h-2h2v2l-2,1h2h-2v3l2,1v1h-2h2v1h1v1h-3l2,1 1,1h-3v3l2,1v4h1l-1,1 1,1 1,1h1v-1v4l1,1v2h1v1v-1h1l2,-1v1h-1h2l-1,1 -5,6 -5,3h-5l-6,-2v-16l-18,1Z"/>
    <path data-geo-id="38023" data-name="State House District 23" d="M645,188h5v15l2,-1v-2h1v-1l1,-1h3l1,2 2,4h1h-1v1h1v1h-1v3l1,-1v-1h2l1,-1h1l1,1h2l1,-1v-1l-1,-1v-1h2v-1h1v2l1,1 1,-1v-2l5,-4 1,-1h1v-2l4,1v1h-1v1l1,1v3l1,2 -1,1 1,1 1,1h1v-5v3h1v1h-1v1h2v3l-1,1h-3v2h-1v2h1v-1h1v-1h1v-2h1v1l1,-1h1v-1h1l2,-3 1,-1h5l1,2v1h-1v1h1v2l1,1v1l1,1 1,1 1,1v1h-1v1l2,2h12v-19h12v-20l-1,-4v-8h9l5,-1h39l5,-1h6v28l1,1v3h2v4l1,1v29l1,1v28h29l5,-1h13l3,-1v5l1,1v27l1,6v23l1,2h2v1l1,2v13h-25l-4,1h-20l-2,1h-40l-1,1h-34v-11l-1,-3v-1h-4v-48h-6v1h-62l-1,1h-26v-13l-3,-3v-5l-1,-1v-57h-4l-1,-16Z"/>
    <path data-geo-id="38039" data-name="State House District 39" d="M25,553v-12l1,-25v-7l1,-16v-1l2,-29 2,-33 3,-62v-1l1,-2v-35l2,-10v-11l1,-26v-12l2,-1v-4l2,-33v-16l1,-2v-17h1l1,2 1,1v2l1,1 2,-2v-1h3l2,1h1l3,4h2l1,-1 2,-1v-7l1,-1 5,3v3l2,-2 1,-1 2,-2v-2l-2,-5 2,-1 1,-1h1l5,2 2,-1 1,-1 -1,-2 -3,-2v-1l3,-3v-1h1l5,-2 2,1h1v1h3v-1h1v-1h1l1,-1 1,-1v1h1v1l-1,1h-2v2h1v1h1v1l1,1 1,1h3v1h-1v1h-1v2h-1v1h-1v1h-1v2h1v1h2v1h4v1l1,1v1l1,1 6,-1v-1l7,-1 1,1h5v-1h2v-1h3l1,-1v1h3v-4h6v-1l1,-1 -1,-1v-1h-1l-1,-1h1v-3l2,-2 1,-1v-1l2,-1h8v-1h5l1,1v3l9,-2h10v1l1,1 2,1 5,-3h1l4,3 3,1h1l3,-2h1v7l6,1h1l4,8h7l3,7 1,1h2l1,1 -29,-1 -1,59 -1,15 8,4 -1,39 -45,-1 -2,1v4h7v25l-1,2v37h-3l-3,-1h-19v13l-1,2v26h-1v23h31v1h7v1l-1,1h1v1h-1v34l-1,3v23l1,1h52v15h16v1v-1h1v1h45v48h-36l-2,-1h-19v-1h-32l-6,-1h-32l-3,-1h-29l-2,-1h-22l-7,-2h-38l-2,-1h-23l-6,-1v-16Z"/>
    <path data-geo-id="38002" data-name="State House District 2" d="M50,24v-2h1v-7l29,2h22l17,1 16,1h17l24,1 3,1h16l51,1 16,1h32v24l-1,2v10h-6l-1,-1h-9v9h-1v7h-9v18l-2,2v12h-14l-1,31h7l-2,16 -62,-1v14l-1,1v14l-4,-3h-1l-5,3 -2,-1 -1,-1v-1h-10l-9,2v-3l-1,-1h-5v1h-8l-2,1v1l-1,1 -2,2v3h-1l1,1h1v1l1,1 -1,1v1h-6v4h-3v-1l-1,1h-3v1h-2v1h-5l-1,-1 -7,1v1l-6,1 -1,-1v-1l-1,-1v-1h-4v-1h-2v-1h-1v-2h1v-1h1v-1h1v-2h1v-1h1v-1h-3l-1,-1 -1,-1v-1h-1v-1h-1v-2h2l1,-1v-1h-1v-1l-1,1 -1,1h-1v1h-1v1h-3v-1h-1l-2,-1 -5,2h-1v1l-3,3v1l3,2 1,2 -1,1 -2,1 -5,-2h-1l-1,1 -2,1 2,5v2l-2,2 -1,1 -2,2v-3l-5,-3 -1,1v7l-2,1 -1,1h-2l-3,-4h-1l-2,-1h-3v1l-2,2 -1,-1v-2l-1,-1 -1,-2h-1v-2l1,-7v-40l1,-23 1,-2v-20l1,-1v-41h2v-10l1,-13v-15Z"/>
    <path data-geo-id="38018" data-name="State House District 18" d="M858,198l36,-1h2v1h-1v2l1,1h1v3h-1v1h1v1h-1v1h1v3l1,1h1h-1l1,2h1l1,1 -1,1h1l-3,3 -1,-3 -7,-2h-15l-18,1Z"/>
    <path data-geo-id="38003" data-name="State House District 3" d="M413,156v18h-1v14h-31v-19l-2,-5 5,-8Z"/>
    <path data-geo-id="38029" data-name="State House District 29" d="M602,375v-44h25v-48h26l1,-1h62v-1h6v48h4v1l1,3v40h1v19h4v32l1,1v30h41v-1h10v24l1,4v33l1,2h-17l-7,1h-19l-3,1h-34v-31l-47,1v-31l-1,-1h-13l-1,1 -1,-1v1h-37v-64h-4v-18Z"/>
    <path data-geo-id="38010" data-name="State House District 10" d="M656,52v-28h34l2,-1h13l46,-1h18l12,-1 54,-2h33v1l-1,1v3l1,1v1l-1,2h1v1l1,2h1l-1,1 1,1 1,1h-1l1,1v1l1,1h1v1h-1v1h1h-1l1,2h2v1h-1v1h1l1,2v1h-1l1,1 -1,2v2h-1v1h1l1,1h2l-1,1h-1l-1,1h1l1,-1 1,1h-2v1h2v4l1,1 -1,1v1h2v3h1v1l-1,1h2v2l1,1h1l-1,1v1h1v1l1,1h2l-2,1 1,2 -2,1h2l-2,4v1h1v1h-2v-1l-1,1 1,2h-1v1h-2v2h2h-1v1h-1l-1,1h2v2l-1,1 -1,-1v1h1v2l-2,1v1h4v1h-4v1l1,1h-21v1h-33l-1,1h-5v31l-28,1 1,32h-6l-5,1h-37v-8l-1,-5v-11l-1,-7 -2,-7v-25h-15l-7,1h-46l-8,1h-3v-25l-1,-1v-6h-3v-4l-1,-9v-4Z"/>
    <path data-geo-id="38008" data-name="State House District 8" d="M382,267h20v-32h18l8,1h37v32h-11v46l-1,4v13h70v63h5v16h-63v24h-11v-21h-8l-21,-3 -5,-15 1,-1v-1h1v-1l2,-1h1v-1h1l2,-2 -7,-14v-2l-1,-5 -3,-5v-1l-3,-5 1,-6v-1l1,-1 -2,-6 -14,-6 -9,4h-1l-1,5h-4l-3,-3h-1l-7,-4 -1,-1 -2,-2 -1,-4h-2v-9l-3,-3 -2,-7v-1l-3,-4 -1,-1v-4h1v-1h1v-1l1,-1h1l1,-1 2,-1v-5h-1l-3,-4 -2,-1h-3l-2,1 -5,1h-1l-5,3v-26Z"/>
    <path data-geo-id="38022" data-name="State House District 22" d="M823,387l-2,-3v-42h3l4,-1h25l1,16 47,-2 1,32 18,-1v16l1,8 6,5v18l-21,1 1,16h-10v1h-21l-1,-32 -33,2 -1,-32h-18Z"/>
    <path data-geo-id="38015" data-name="State House District 15" d="M592,25h33l11,-1h20v39l1,9v4h3v6l1,1v25h3l8,-1h46l7,-1h15v25l2,7 1,7v11l1,5v8h-2l-5,1h-9v8l1,4v20h-12v19h-12l-2,-2v-1h1v-1l-1,-1 -1,-1 -1,-1v-1l-1,-1v-2h-1v-1h1v-1l-1,-2h-5l-1,1 -2,3h-1v1h-1l-1,1v-1h-1v2h-1v1h-1v1h-1v-2h1v-2h3l1,-1v-3h-2v-1h1v-1h-1v-3v5h-1l-1,-1 -1,-1 1,-1 -1,-2v-3l-1,-1v-1h1v-1l-4,-1v2h-1l-1,1 -5,4v2l-1,1 -1,-1v-2h-1v1h-2v1l1,1v1l-1,1h-2l-1,-1h-1l-1,1h-2v1l-1,1v-3h1v-1h-1v-1h1h-1l-2,-4 -1,-2h-3l-1,1v1h-1v2l-2,1v-15h-5v-1h-1v-1h1v-1l-1,-1h-1v-3h-2v1h-1l-1,-1h-2l-1,-1h-2v-21l-1,-1v-18h-35v-32l-1,-2v-28l-1,-2h-3v-39Z"/>
    <path data-geo-id="38030" data-name="State House District 30" d="M432,433h1v-1l1,-2 1,-2 7,2 -2,-4 6,-4 3,15 -3,15 1,2 -3,-7 -5,1 -2,-5 3,-1v-2l-3,-1h-1l-4,-5Z"/>
    <path data-geo-id="38024" data-name="State House District 24" d="M728,389v-16h-1v-29h34l1,-1h40l2,-1h17v42l2,3v2h18l1,32 33,-2 1,32h2v11l1,2v3l-47,1v16l-15,1v16h-16v16h-15l-1,-2v-33l-1,-4v-24h-10v1h-41v-30l-1,-1v-32h-4Z"/>
  </g>
  <path class="mesh" d="M413,156h-29l-5,8M217,517v-31l32,1 1,-32h19l1,1h5v-14h1v-2h44l1,1h1v15l2,1h30l1,1h18l12,-6v-37l37,2 8,2 3,4M606,458h37v-1l1,1 1,-1h13l1,1v31l47,-1v31h34l3,-1h19l7,-1h32v-16h16v-16l15,-1v-16l47,-1v-3l-1,-2v-11h19v-1h13v16l26,-2 1,16 -10,1 1,32 3,-1 2,64M345,123h-31v-44h1v-4h-22v-26l1,-2v-24M430,419l-3,-6 -2,-3 21,3h8v21l-5,3 -3,-15M201,321l1,-39 -8,-4 1,-15 1,-59 29,1 -1,-1h-2l-1,-1 -3,-7h-7l-4,-8h-1l-6,-1v-7h-1l-3,2h-1l-3,-1v-14l1,-1v-14l62,1 2,-16h-7l1,-31h14v-12l2,-2v-18h9v-7h1v-9h9l1,1h6M322,441l6,-16 7,3v-11l6,-2v-22h-34l-5,-1h-32v-5l1,-1v-38l1,-1v-18l-1,-1h-7v-16l1,-3v-9l25,2 11,3 10,-6h2l1,-1h1l2,-2 4,-2 11,-2 3,1h4l5,-1 5,-3h1l5,-1 2,-1h3l2,1 3,4h1v5l-2,1 -1,1h-1l-1,1v1h-1v1h-1v4l1,1 3,4v1l2,7 3,3v9h2l1,4 2,2 1,1 7,4h1l3,3h4l1,-5h1l9,-4 14,6 2,6 -1,1v1l-1,6 3,5v1l3,5 1,5v2l7,14 -2,2h-1v1h-1l-2,1v1h-1v1l-1,1 5,15M929,354l-28,1 -47,2 -1,-16v-13l-1,-2v-1h-2l-1,-2v-23l-1,-6v-27l-1,-1v-5l-3,1h-13l-5,1h-29v-28l-1,-1v-29l-1,-1v-4h-2v-3l-1,-1v-28l-1,-32 28,-1v-31h5l1,-1h33v-1h21M894,197l-36,1M284,581v-48h-45v-1h-1v1v-1h-16v-15h-52l-1,-1v-23l1,-3v-34h1v-1h-1l1,-1v-1h-7v-1h-31v-23h1v-26l1,-2v-13h19l3,1h3v-37l1,-2v-25h-7v-4l2,-1 45,1 8,6 -1,31 63,2M519,109h32l10,-1h37v32h35v18l1,1v21h2l1,1h2l1,1h1v-1h2v3h1l1,1v1h-1v1h1v1h-27l1,16h4v57l1,1v5l3,3v61h-25v63h4v64h-78v-64h-5v-63h-70v-13l1,-4v-46h11v-32h-37l-8,-1h-3v-4l1,-8v-19h-6v-30h1v-26l-5,-8v-16h-37l-13,-1h-13l-1,16h-9l-1,48 47,1h31M417,235h-15v32h-20l-38,-1v26M447,454l-1,-2 3,-15M454,434h11v-24h63M381,169v19M920,402v-16l-18,1 -1,-32M592,25l1,12v39h3l1,2v28l1,2M687,207v-5v3h1v1h-1v1M853,341h-25l-4,1h-3M930,404h1M940,433h-13v-18M436,439l-7,-12h-2l-3,-6 2,-2 9,7M844,262l-2,-64h16l-1,16 18,-1h15M898,218l3,-3M905,228l-30,1v-16M645,188h5v15l2,-1v-2h1v-1l1,-1h3l1,2 2,4h1h-1v1h1v1h-1v3l1,-1v-1h2l1,-1h1l1,1h2l1,-1v-1l-1,-1v-1h2v-1h1v2l1,1 1,-1v-2l5,-4 1,-1h1v-2l4,1v1h-1v1l1,1v3l1,2 -1,1 1,1 1,1h3v3l-1,1h-3v2h-1v2h1v-1h1v-1h1v-2h1v1l1,-1h1v-1h1l2,-3 1,-1h5l1,2v1h-1v1h1v2l1,1v1l1,1 1,1 1,1v1h-1v1l2,2h12v-19h12v-20l-1,-4v-8h9l5,-1h39l5,-1h6M744,169v-8l-1,-5v-11l-1,-7 -2,-7v-25h-15l-7,1h-46l-8,1h-3v-25l-1,-1v-6h-3v-4l-1,-9v-39M878,451h-2l-1,-32 -33,2 -1,-32h-18v-2l-2,-3v-42h-17l-2,1h-40l-1,1h-34v-11l-1,-3v-1h-4v-48h-6v1h-62l-1,1h-26M435,428l-1,2 -1,2v1h-1v1l4,5h1l3,1v2l-3,1 2,5 5,-1 3,7h1l6,-4v8h1v1h2v1h1l1,1 8,4 1,2 -2,1h-2l5,8 -5,9v1l-1,1v4l-1,1h1v3h1v2h1v2l2,4v1h1v3h1v8l-1,1v1h-1v2h-1v2h-1v4h1v1l1,1v1h1v1l-1,2v1l-1,1v1l-1,1v1h-1v1h-1l-2,4 -2,2v3h-1v4h1v2h1v9l1,1v2h1l1,2h1v2l1,1h1v2h1v1h1v1h2v1l3,9M513,26v51h6v32h-16v31h5v64h2l2,15v17h-47M43,198h1l1,2 1,1v2l1,1 2,-2v-1h3l2,1h1l3,4h2l1,-1 2,-1v-7l1,-1 5,3v3l2,-2 1,-1 2,-2v-2l-2,-5 2,-1 1,-1h1l5,2 2,-1 1,-1 -1,-2 -3,-2v-1l3,-3v-1h1l5,-2 2,1h1v1h3v-1h1v-1h1l1,-1 1,-1v1h1v1l-1,1h-2v2h1v1h1v1l1,1 1,1h3v1h-1v1h-1v2h-1v1h-1v1h-1v2h1v1h2v1h4v1l1,1v1l1,1 6,-1v-1l7,-1 1,1h5v-1h2v-1h3l1,-1v1h3v-4h6v-1l1,-1 -1,-1v-1h-1l-1,-1h1v-3l2,-2 1,-1v-1l2,-1h8v-1h5l1,1v3l9,-2h10v1l1,1 2,1 5,-3h1l4,3M727,344v29h1v19h4v32l1,1v30h41v-1h10v24l1,4v33l1,2M727,582v-59l-1,-4M376,164l-3,-4v-20l3,-16M907,450l-1,-16 21,-1"/>
  <g class="cities">
    <circle r="7" cx="938" cy="404"/>
    <text x="938" y="404">Fargo</text>
    <circle r="7" cx="440" cy="426"/>
    <text x="440" y="426">Bismarck</text>
    <circle r="7" cx="900" cy="214"/>
    <text x="900" y="214">Grand Forks</text>
  </g>
</svg>