<?xml version="1.0" encoding="utf-8"?>
<!DOCTYPE svg PUBLIC "-//W3C//DTD SVG 1.1//EN" "http://www.w3.org/Graphics/SVG/1.1/DTD/svg11.dtd">
<svg version="1.1" xmlns="http://www.w3.org/2000/svg" width="182" height="350" viewBox="0 0 182 350">
  <path class="state" transform="scale(0.1)" d="M1605,2918l-23,38 11,-5 63,-3 -23,-15 5,-63 37,5 60,51 34,40 -54,95 -21,37 1,30 -16,26 -24,-20 1,24 17,1 3,4 -3,23h-4l-3,1 -4,2h-2l-1,2 -5,3 -10,7 -2,-4 -11,-6 -3,-2 -2,-2 -1,-1 -2,-4 -2,-1h-2l-8,-5 -3,-4 -12,-3 -2,-3h-2h-2h-5h-1h-2l-9,3h-3l-3,2 -3,1 -4,2 -11,7 -5,5 -4,1 -2,2h-1l-3,2 -3,1h-6l-4,2h-1l-5,2h-3h-2l-6,1h-6l-10,4h-1l-6,1 -8,2 -3,3 -4,5 -5,5 -2,5 -3,5 -5,10v4l-3,10 -2,8 -1,5 -3,8 -2,-1 -4,-2 -18,-5 -10,-3h-2l-4,-2 -5,-2h-2h-3l-13,-5 -10,5 -5,2 -1,2h-3l-12,8 -2,2 -14,16 -1,4 -2,1v15l2,15v2l1,15v1v4l2,16 -6,-3 -5,-2h-6l-4,-1h-2l-1,-2h-5l-6,-2 -5,-1 -8,1 -12,4 -2,1h-1l-3,2 -4,5 -3,2 -6,8 -2,3 -7,12 -3,7 -8,10h-1l-6,8h-17h-4h-12h-10h-4l-1,-2h-6h-12h-3h-2h-4h-9h-2h-2l-16,-1h-13h-3h-9h-1h-7h-6h-2h-2h-7l-5,-2h-12h-10h-5h-2h-3h-5l-10,-3h-6h-16h-2h-2h-6h-3h-15h-17h-15h-10h-2h-5l-10,-2h-1h-1h-3h-6h-1h-7h-13h-7h-1l-12,-2h-11h-2h-25l-21,-1h-2h-15h-3h-13l-6,-2h-6h-7h-17l-25,-2h-23l-10,-1h-11h-1h-23l-5,-2h-1h-7h-13h-5h-16h-2l-3,-3h-12h-2h-2h-4h-1h-6h-3h-3h-2h-1l-3,-2h-12h-11h-8h-7h-17h-3h-2h-1h-4l-20,-2h-13h-1l-26,-1h-17h-3h-2l-13,-2h-12h-6h-11l-8,-2h-4h-6h-6h-3h-12l-7,-1h-14h-6l-13,-2h-18l-20,-2h-8h-8h-10l-15,-3h-6h-4l-10,-2h-9h-15h-14h-4h-1v-3l-12,-18 -2,-5 -16,-32 -3,-3h-2h-2l-9,12 -5,-9 4,-5v-3v-2l-20,-25 -5,-1 -6,-15v-4l-1,-5 -3,-8 -1,-10v-5l-6,-22 9,-41 6,-3 5,-7 3,-22 6,-3 -2,-18v-2l1,-5 -2,-15 -4,-3v-9l12,-10h3l12,-3 12,-3 6,-7 3,-2 6,5 24,-36h1l4,-9v-3v-3l-1,-2 -16,-41 9,-24 4,-5 8,-8 6,-12 -5,-28 5,-20 -5,-13 -1,-7h-1h-3h-1l-3,-2 -5,-10 1,-5 2,-1 2,-13 7,-22 9,-65 8,-40 4,-3 26,-63 -13,-20 18,-39 -20,-3 -2,-3v-22l5,-8 16,-75 1,-5v-3v-4v-3v-3l6,-17 1,-2 2,-5 1,-8v-2v-3v-3l-3,-9 -1,-1h-1l-11,-17 9,-18 8,-15v-2l-1,-6v-2v-13l1,-9 1,-1v-9l5,-6 7,-5 15,-7 2,-2 3,-3 14,-12v-1l2,-7 10,-43 3,-10 14,-70 56,-52 32,-35v-1l2,-9v-1l14,-27 4,-13 -1,-3 1,-19 2,-6v-4l-1,-13 -4,-12 1,-1 1,-4 4,-6h4h2l3,-2 2,-2 2,-1 -2,-4 -3,-6v-2l10,-10 2,-2 3,-10 35,-31v-15v-2v-3l4,-13 6,-2 1,-2 3,-5 2,-1 1,-2 1,-3 -1,-5 2,-2h2h1l1,-2 2,-1 -3,-2 -11,-3 -1,1 -5,-3v-5v-2v-13l-3,-7v-1l1,-2 6,-7 3,-1 1,-2h1l-1,-2v-3l-1,-2 1,-6 1,-2h4h1h3l1,2v3h3l-3,-3v-2l-1,-3 -1,-2 1,-3 1,-4h2h2l1,4h2h3h2v-7v-2l1,-3h1h1h2l-3,-15 1,-2 3,-1 8,-5h3l1,-2 -1,-2 -4,-1 -1,-4 1,-1 1,-2h3l2,2h2l5,-13h2l2,-4v-5h-2l-2,-1 6,-4 3,-3h2l1,3 1,2h1h2l3,-2 1,-3 -1,-2 -4,-1h-1l-2,-2 -1,-2h-1l-2,-1 1,-2h5l2,-2 5,-11 -1,-4 -8,-5 -1,4 -2,3v2l-1,3h-2l-1,-3h-2h-1l-2,-2 -1,-17v-1v-4v-1l1,-2v-2h1v2l2,-5h2l4,-2h2h1h2l1,-1 3,-9h-3l-3,-5h-1v-3v-7v-1v-4h-1l2,-8v-2v-1h-3l1,-5h-3h-2l-1,-5 -3,-2 -1,-2 -1,-3v-3l-1,-4 -1,-1 -2,-7 -5,-7 -2,-1v-2v-3l2,-7 2,-1 1,-2 2,-2 1,-3v-3v-2l-3,-3 3,-2h2l1,-2 2,-6 -1,-2 -1,-5 1,-3 1,-4 2,-5v-3l2,-2 1,-1 -1,-2 -1,-5 -2,-2 -3,-5v-1l-1,-2 -1,-3 -1,-2 -1,-7h-2v-1v-4l2,-3 1,3v-3l-1,-2 1,-1h-3l-2,1h-3v-8l7,-13 1,-2 3,-2 2,-5h3h3l1,-1 1,-2 1,-2h2h1h1l2,-3 1,-2 1,-1 2,-4v-3v-5v-2l1,-1v-2l-1,-2 1,-8h3h2h4h2h1h3h1h3l5,-2 3,-1h1v-2l8,-3 3,-2 2,-1 1,-7h1l3,-2h4l3,2h9h3l5,-2h2h7l8,4 7,-4 3,-5 4,-1 2,-5h2l9,-2h1l5,2h4l3,5h1h3l4,3 4,2 7,3h2l1,-2h2v-1h2h1l1,-2h2h2h1h3h1l1,-2 7,-5 3,-1h1l2,-2 5,-3h2h2l1,-2h1h1h3l2,-2 3,-1h2l-2,-10 -1,-2v-2l-1,-1v-2l2,-2 2,-5 -2,-1h-1v-4l1,-1v-4l1,-1 4,-2h6l-1,-10 1,-2 3,-3 2,-2 2,-3h2h7h4h1l4,-2 4,-3 6,-3 12,5 4,1h2l2,-1h1v-4l2,-5 3,-1h4h11h1h4l12,-7 4,-3 1,-2 2,-2 3,-1h1l2,-2 1,-2v-1l4,-4 2,-5v-1v-2h1l2,-2 20,-31 11,-7 -2,-1 -2,-2 -1,-2 11,-13v2l-1,3 3,3 8,-3 1,-2 2,-5 7,-3h4h3l3,-2 3,-1 1,-5 2,-2 4,-10v2h3v-2v-3h2l3,1h3l1,-3v-2l-3,-1 -1,-2 -1,-2 -2,-1 -2,-4 -5,-6v-2v-3h5l9,-7 -3,-22 -1,-1 -1,-24h1h7l14,-3 2,-3h3l3,-7 -3,-2v-6l6,3 9,-8 1,-4 -4,-1v-2l1,-1 1,-2 -1,-2h-2l-2,2 -3,2h-1l1,-4v-1v-2h-1l-6,2v-4l1,-1v-2l-8,-3h4l4,-5 -1,-5 -2,-5v-4v-3v-2l2,-5 1,2 2,2 2,1h1l-1,-5 -1,-3v-3h-4l-2,-4 -2,-1 -4,-5 2,-2 2,-3 -1,-2 -2,-5h-1v-3l-4,-5v3l-2,2h-2l-5,-5v-2v-2h-6l-3,-1 -1,-4v-3h1l2,-2 -2,-6h-1l1,-2 4,-2v-1h-1l-1,-2h-2h-1h-1l-1,-2 -4,-5h-2l2,-1v-4l-2,-5v-3v-5v-3l-3,-2 -1,-2v-1l-5,-10 -10,-17v-1l-2,-7h-2h-1l-2,-8v-2l-1,-5v-2l-4,-8h-1l32,-38 21,-29 1,-1 -1,-12 -1,-2h-2v-5v-3l2,-3h2l3,-2 2,-2 7,-10 2,-3 1,-15v-2v-3v-3l6,-12 1,-5h2l3,-1 12,-9 1,-1 3,-5 3,-4 3,-5 6,-8 2,-5 9,-12h1l4,-6v-2l-6,-5h-1l-2,-3 -8,-10 -1,-2 -2,-2 -1,-5v-1v-2l-1,-2 -2,-1h-1v-2h1l3,-2v-6v-2v-2l-2,-1v-2l2,-2 1,-6 -1,-7 -1,-3 -3,-2 -1,-2 -5,-8h-1l-2,-2 -1,-3 -1,-2 -1,-1h-2l-3,-7 2,-3 1,-7 2,-3 23,-15h1l19,7h2h2l2,-5 -18,-9 -1,-1 1,-7v-3l1,-2v-3l2,-5 3,-5v-2l1,-2v-5l-9,-6 -3,-4v-3l2,-2 4,-5 -1,-3 2,-3 1,-2v-7l8,-8 1,-3 1,-2 5,-7h1h1h6h2l1,-1 1,-4 1,-3 5,-7 1,-5h2l5,-6 1,-5v-2l1,-3h2l3,-2 2,-1 3,-4 5,-5 2,-3h1l1,-2v-1l1,-4 -1,-1v-2l-4,-7 -4,-6 1,-4 3,-5 4,-3 1,-3 2,-7v-2v-8l4,-5 1,-2 3,-6v-2v-5l1,-2 1,-1 3,-4 1,-1 3,-10 2,-4 3,-1 1,-4v-3l-1,-3 -2,-5 -3,-4h-1l-6,-3h-1l-2,-3 -2,-2 -3,-2 -4,-3 -11,-8 -3,-5 3,-4h1l11,7h1l9,-5 3,-2 5,-3h7l3,2 10,5 3,-10 5,-2 5,-3 8,-5 1,-2 1,-3v-2l-2,-3 -2,-7 6,-5 12,-5h3l2,-1 1,-4 5,-6 20,-10 13,-14h7l6,5h4l6,5 4,19 2,5 1,1h2l7,5h3l1,2 7,8 3,5v2l1,5h2h1h9h2h6l3,-2 3,-3h2h2l1,3 6,5 3,5 4,2 1,3 6,-5 2,-3 7,-2 3,-3 4,5 6,3 3,5 8,-5 12,-13 4,-8 2,-10 3,-9 3,-1h2l1,-4 1,-1v-4l-2,-5 4,-6 1,-4 4,-8 2,-2 6,-3h4h1l1,8 1,5 1,15 2,25 1,7v10l2,5v28l2,42 1,6 1,20 1,2 1,22 1,11v4l1,20 1,3 1,25 1,11v4l2,40 1,16 2,35v7v3v10l7,82 1,8 1,18 1,20v7l1,10 1,8v9l1,3v2l1,11v4l1,16 2,20v5l2,20v18l2,27v13v9l2,11 1,20 2,32 1,16v5l1,19 1,15 2,28 1,27 1,18 1,25v8v32v5l1,5v3v8l1,7v2l1,18v7v11l2,19 1,5v5v6v9v5l2,11v13l1,14v8v8l2,15 1,22v5v10v10v2v3l1,3 1,17v12l1,11 1,22 1,28v3l1,9v10l1,13v7v3l1,8v9v3v5l1,8v5v9l1,15 1,15v3v3l1,32 1,15v3l1,48 1,15v2v3v5v12v3v2v7v1l2,20 1,32v3l2,5v2v5l1,23v5v7l1,6v25l2,25v4l1,20v6v15v2v6v5v2l1,22v13l1,8v4v3v3v5v5l1,7v5v3l1,7v25v7l1,16v5v8v7v2v3l1,3v7v3v5l2,14 1,6v5v4v3v5l2,15 1,8v12v7v5v3v2v5v1l1,5v7l1,5v5v3l1,7v3l1,15v2l1,10 1,11v2v3v2l1,7v6v7l1,5v2v3v7v3l1,3v2v5v3v5l1,5v5v5v5l1,4v5l3,1h1l2,2 1,2v1v2l3,2h4v1l1,2 2,8 1,7 -1,6 -1,2h-2h-2h-2l-1,8 3,4 2,3 1,8h2v5v4l-1,1v5l1,2h-1l-2,3v4v3l-1,3 -6,4v5l-1,3 -2,3 -1,2v2l1,1v2v2v1l-2,2 -4,2 3,3h1v2h1h4l3,3 1,2 2,3 -1,3 -2,7 -1,2v1l-2,2 -1,3v2l1,7 3,1 2,4v3l-1,3 -4,2h-3v2v3v3v2l-1,3 -2,2 -1,2 -2,1h-3h-1l-2,2v2l-3,19v2l1,2 1,1h1v5l-4,5 1,5v2v2v3v2l2,3h1l2,7 4,6 1,2v2l1,3 -3,3 5,7v2v5v1l4,-1 -2,3v2l2,1 1,2h3l4,2v1l1,2 2,5h2l2,-2h2h3h1h1h4h1l3,-1h2l1,1h1h-1v2l1,2v5l4,1 3,2v2l-1,1h1v2h2l2,-2h1v2l1,2v1l4,5v2h-2l2,7 1,1h2l2,2 1,3 4,2 1,2v1h2l3,4 -1,1h-1h-2h-4v2h-1l-1,2v1v2h2l8,7h2h1l2,3 3,2 2,1 1,2v3l2,3 1,2h3h2h2l1,3v2l3,3 2,2h2l3,3 2,2 1,5 2,2 3,1 1,-1v-2v2h3h1l2,1h1l3,2 3,2v1v2v7l2,1h2h2h5l9,5 1,4h1v5l2,3 1,2 1,1 1,2v2l-1,1 -1,4v1v2l-1,2 -2,1 -2,7 -2,5v3v5v2v3v2v3h-1l-3,2h-2l-1,3v2h1v5l2,3 1,7 -1,2 -2,3v12l-1,1 -1,4 -1,3v2l-2,4 -1,2v3l2,5 1,4 -4,23 -21,-15h-1v2l-14,10 9,40 -21,13"/>
  <g class="subcounties" transform="scale(0.1)">
    <path data-geo-id="3301384900" data-name="Wilmot" d="M595,2409l1,-3 2,-2 2,-3 2,-5 30,-44 4,-5 33,89 18,-20 12,25 -30,13 35,76 -27,32 -21,-48 -23,-17 12,-23 -66,-42Z"/>
    <path data-geo-id="3301380020" data-name="Webster" d="M769,2599l65,-34 14,44 47,78 -17,8 -53,20Z"/>
    <path data-geo-id="3301327380" data-name="Franklin" d="M819,2386l39,-20v1v2l3,3 3,5 3,4 1,1 1,4 5,5 2,1 7,2h2l1,2 5,3 1,2v3l5,-2 9,-3 9,17v3l3,7 1,3h-4l2,5v3l2,4 -3,1 3,7 3,8 1,2v2l-7,1 3,47 -22,28 -21,10 -26,-37 4,-48 -11,-41Z"/>
    <path data-geo-id="3301360020" data-name="Pembroke" d="M1041,2785l-5,-17 21,-1 -4,-19 4,-6h1h-1h1l12,-22 5,-13 6,6 -12,17 55,38 -12,30 22,4 -23,31 -19,28 -25,2 -28,-38 1,-10Z"/>
    <path data-geo-id="3301319460" data-name="Dunbarton" d="M879,2831l36,-9 47,36v28l62,42 -6,10 -28,5h-10l-18,5h-2l-57,10 -14,-73 -1,-5 -7,-35Z"/>
    <path data-geo-id="3301300660" data-name="Allenstown" d="M1066,2868l1,-5 25,-2 19,-28 23,-31 70,15 -4,13 -2,6 -2,4 -1,3 -1,3 -1,2 -2,2 -4,8 -18,38Z"/>
    <path data-geo-id="3301306500" data-name="Bow" d="M939,2817l9,16 64,-33 27,25 28,38 -1,5 -42,60 -62,-42v-28l-47,-36Z"/>
    <path data-geo-id="3301306260" data-name="Boscawen" d="M834,2565l42,-18 21,-10 3,25 -1,2 17,46 32,15 4,34 -57,28 -47,-78Z"/>
    <path data-geo-id="3300768500" data-name="Second College" d="M1344,534l4,-20 82,-5 4,44 1,8 1,18 1,20v7l1,10 1,8v9l1,3v2l1,11 -117,9Z"/>
    <path data-geo-id="3300773060" data-name="Stark" d="M1042,932l69,-10 -2,-12 82,-3 8,75 -15,43 -87,50 -9,15 -7,5 -28,-20 -4,-136Z"/>
    <path data-geo-id="3300774500" data-name="Success" d="M1339,1178l34,-100v-1l49,-103 38,-2 1,25v8v32v5l1,5v3v8l1,7v2l1,18v7v11l2,19 1,5v5v6v9v5l2,11v13l1,14 -130,3Z"/>
    <path data-geo-id="3300780740" data-name="Wentworth" d="M1286,661l38,-3 117,-9v4l1,16 2,20v5l-156,7Z"/>
    <path data-geo-id="3300784420" data-name="Whitefield" d="M863,1323l72,-65 -20,-28 78,-45 17,115 -66,10 9,54 -12,-6 -3,-2 -13,-5 -14,-8 -13,-4 -4,-1 -7,-4 -6,-3 -12,-6Z"/>
    <path data-geo-id="3301312420" data-name="Chichester" d="M1081,2713l64,-86 43,32 -24,24 -40,85 -55,-38Z"/>
    <path data-geo-id="3301324900" data-name="Epsom" d="M1124,2768l40,-85 92,22h-1v2l-4,8v2l-2,5 -6,15h-1l-4,10v1l-1,2 -1,2 -7,16 -2,2 -19,45 -1,3 -3,-1 -70,-15 -22,-4Z"/>
    <path data-geo-id="3301306980" data-name="Bradford" d="M510,2700l104,-28 26,-7 40,88 -29,9 -24,6h-5l-47,15h-4l-5,2h-4l-11,-17 -4,-5 -4,-5 -12,-21v-4l-4,-33Z"/>
    <path data-geo-id="3301337540" data-name="Hopkinton" d="M766,2732l59,-17 53,-20 61,122 -24,5 -36,9 -30,9 -4,1 -3,2 -23,5h-1Z"/>
    <path data-geo-id="3301335540" data-name="Henniker" d="M651,2762l29,-9 86,-21 52,116h-1l-70,20 -43,12 -15,-32 -1,-5 -29,-61 -4,-12Z"/>
    <path data-geo-id="3301309860" data-name="Canterbury" d="M899,2564l1,-2 148,-55 16,-2 10,7 3,2 -1,35 -64,91 -5,-10 -55,29 -4,-34 -32,-15Z"/>
    <path data-geo-id="3301962340" data-name="Plainfield" d="M213,2351l8,-15v-2l-1,-6v-2v-13l1,-9 1,-1v-9l5,-6 7,-5 15,-7 2,-2 3,-3 14,-12h2h2l51,10h4l53,10h2l2,2 3,2 4,1 5,2h3l2,2 13,6 -17,29 -1,46 -23,33 -12,-5 2,-25 -33,-16 -13,16 -112,-10Z"/>
    <path data-geo-id="3301941700" data-name="Lempster" d="M349,2680l73,-13 9,38h25l-5,82 -26,6 -11,2h-4h-2l-26,5 -10,2h-6Z"/>
    <path data-geo-id="3301952580" data-name="Newport" d="M321,2484l133,38 -1,83 -36,25 -94,-30Z"/>
    <path data-geo-id="3301975060" data-name="Sunapee" d="M454,2522l11,-66 57,8 -2,7 -1,8 -1,5v3l9,13 1,2 -1,7 -1,16v15l-1,2 -1,3 -18,34 -3,6h-1l-1,2v3l-3,4 -45,11Z"/>
    <path data-geo-id="3301972740" data-name="Springfield" d="M469,2427l18,-43 -16,-5 18,-28 19,-30 2,11 55,9 8,1h3l33,7 11,2 12,1 -30,44 -2,5 -2,3 -2,2 -1,3 -16,23 -8,14 -2,3 -2,7 -2,5 -1,3 -9,5 -1,-2h-3h-1l-20,-3h-8l-57,-8Z"/>
    <path data-geo-id="3301978980" data-name="Washington" d="M425,2793l26,-6 5,-82 54,-5h17l4,33v4l12,21 4,5 4,5 11,17 -18,7h-3l8,30 -6,14 -3,7 -5,18 -43,-1h-1h-6h-5l-44,-2h-15h-2l-15,-2Z"/>
    <path data-geo-id="3301977940" data-name="Unity" d="M241,2614l17,-15 65,1 94,30 5,37 -73,13 -93,13 -20,-38Z"/>
    <path data-geo-id="3300934820" data-name="Haverhill" d="M503,1697l1,-2 3,-1 8,-5h3l1,-2 -1,-2 -4,-1 -1,-4 1,-1 1,-2h3l2,2h2l5,-13h2l2,-4v-5h-2l-2,-1 6,-4 3,-3h2l1,3 1,2h1h2l3,-2 1,-3 -1,-2 -4,-1h-1l-2,-2 -1,-2h-1l-1,-1h-1l1,-2h5l2,-2 5,-11 -1,-4 -8,-5 -1,4 -2,3v2l-1,3h-2l-1,-3h-2h-1l-2,-2 -1,-17v-1v-4v-1l1,-2v-2h1l-1,2h1l2,-5h2l4,-2h2h1h2l1,-1 3,-9h-3l-3,-5h-1v-3v-7v-1v-4h-1l2,-8h1l115,53 -46,145 -54,-28 3,20 -54,-32h-1h1h2Z"/>
    <path data-geo-id="3300941860" data-name="Lincoln" d="M825,1551l134,58 40,-110 104,38 -4,24 27,28 -3,18 -38,17 -39,32 2,44 -13,34 -40,16 -57,-40 -23,5 -12,5 -119,-59Z"/>
    <path data-geo-id="3301533460" data-name="Hampton Falls" d="M1571,3074l22,-10 23,32 2,7 32,28 5,3 11,17 -6,12 -4,-5 -17,-10 -61,-5Z"/>
    <path data-geo-id="3301543220" data-name="Londonderry" d="M1084,3114l4,-1 13,-2h3h3h2l7,-2h3l21,-3 3,-3h4h2h1l-1,-10 29,8 15,128 -15,8v2v-2v2l-1,10 -11,33 -1,-1 -5,-7 -2,-2 -6,-8 -11,-13h-9h-18l-11,-2 -4,-32 -4,-20 -1,-3 -2,-13 -2,-12 -1,-3 -1,-7v-1l-4,-24 -1,-5v-3l-1,-2v-5v-1h-1Z"/>
    <path data-geo-id="3301571140" data-name="South Hampton" d="M1491,3159l32,-5 57,-3 2,15 -9,3h-3l-3,2 -3,1 -4,2 -11,7 -5,5 -4,1 -2,2h-1l-3,2 -3,1h-6l-4,2h-1l-5,2h-3h-2l-6,1Z"/>
    <path data-geo-id="3301301460" data-name="Andover" d="M699,2441l42,-20 78,-35 24,35 11,41 -134,60 -16,8 -35,-76Z"/>
    <path data-geo-id="3301533060" data-name="Hampton" d="M1605,3061l104,23 -14,44 -17,36 -2,-1 -3,-4 -7,-8 -11,-17 -5,-3 -32,-28 -2,-7 -23,-32Z"/>
    <path data-geo-id="3300147140" data-name="Meredith" d="M1012,2176v-2l41,-38 36,4 2,1 2,2 3,3 7,7 1,2 2,1 2,2 4,3 18,18 8,9 11,8 28,28 -36,-11 -29,25 -33,1 -18,-15 -38,35 -21,5 23,59 -123,-39Z"/>
    <path data-geo-id="3300167300" data-name="Sanbornton" d="M844,2341l58,-57 123,39 8,28 -8,36 -84,32 -22,10 -1,-3 -3,-7v-3l-9,-17 -9,3 -5,2v-3l-1,-2 -5,-3 -1,-2h-2l-7,-2 -2,-1 -5,-5 -1,-4 -1,-1 -3,-4 -3,-5 -3,-3v-2v-1l1,-2 1,-2 1,-5 1,-1 -2,-4 -1,-1 -4,-2 -3,-3 -2,-2Z"/>
    <path data-geo-id="3300177060" data-name="Tilton" d="M915,2429h4l22,-10 84,-32 -35,64 -2,-2h-2l-3,-2h-2v-1h-2l-2,1 -3,4h-2h-2l-8,8 -1,2 -8,3h-2l-4,-2 -1,2v3v2h-2l-1,2 -3,1 -3,-6h-2l-4,1 -2,-1h-1h1h-1l-1,-4 -1,-1h-1h-2v-2l-1,-2 -3,-8 -3,-7 3,-1 -2,-4v-3Z"/>
    <path data-geo-id="3301773860" data-name="Strafford" d="M1273,2672l3,-5 4,-3 6,-9 11,-15 14,-18 2,-5 30,-37 6,-8 81,72 18,13 -73,108 -7,-5 -8,-8h-2l-20,-19 -15,-11 -10,-7 -8,-10 -3,-2 -16,-13 -17,-15Z"/>
    <path data-geo-id="3301314200" data-name="Concord" d="M878,2695l17,-8 57,-28 55,-29 5,10 17,33 46,34 -5,13 -12,22h-1h1h-1l-4,6 4,19 -21,1 5,17 -1,30 -1,10 -27,-25 -64,33 -9,-16Z"/>
    <path data-geo-id="3301335860" data-name="Hill" d="M740,2332l1,-3 5,-5 2,-1h5l1,-2 1,-2 1,-1 6,-4h1l5,-1h5l2,1 2,7 8,-8 3,-4 5,-6 3,1 1,2h2l1,-2h1l2,-1h1l5,3 1,-2v-1h2l1,-2h4l4,2 1,1 1,2 1,2v1h-1l1,4 5,8 2,2 6,1 1,5 2,3v4l2,3 1,2h1l6,3 2,2 3,3 4,2 1,1 2,4 -1,1 -1,5 -1,2 -1,2 -39,20 -78,35 -9,-54Z"/>
    <path data-geo-id="3301337300" data-name="Hooksett" d="M1018,2938l6,-10 42,-60 103,28 -14,35 -2,4 -2,5 -2,3 -13,32h-7h-4l-1,-2 1,2 1,1 1,5 9,33h-3l-32,-10h-2l-9,-1h-2l-5,-2 -1,-2 -1,-4v-4l-1,-3 -1,-5v-3l-1,-5 -1,-4v-1l-17,11 -2,-1 -1,-4 -5,-1h-2v-2l-1,-2v-3v-2l-3,-6h-6l-16,5Z"/>
    <path data-geo-id="3301354260" data-name="Northfield" d="M897,2537l22,-28 -3,-47 7,-1h2h1l1,1 1,4h1h-1h1l2,1 4,-1h2l3,6 3,-1 1,-2h2v-2v-3l1,-2 4,2h2l8,-3 1,-2 8,-8h2h2l3,-4 2,-1h2v1h2l3,2h2l2,2 3,1 3,2 3,3h1l1,2 4,3 7,5 5,4 2,1 12,9 1,1 11,7 2,2 19,14 -16,2 -148,55 -1,2 1,-2Z"/>
    <path data-geo-id="3301316980" data-name="Danbury" d="M636,2347l3,-5 5,-6 9,-15 6,-7v-1l20,-29 1,-1 4,-4 4,-5 5,-6 2,-2 2,-3h1l14,-15 5,16 3,7 4,13 8,24 6,20 2,4 -8,35 9,54 -42,20 -12,-25 -18,20Z"/>
    <path data-geo-id="3300575700" data-name="Swanzey" d="M245,3138l106,5 9,51 -14,67h-1l-48,-4 -30,12 -20,-8 -6,-42 -36,-2Z"/>
    <path data-geo-id="3300539300" data-name="Keene" d="M230,3053l64,-17 43,-13 2,26 28,12 -25,37 19,21 -10,24 -106,-5 -19,-20 -13,-62Z"/>
    <path data-geo-id="3300585540" data-name="Winchester" d="M123,3209l82,8 36,2 6,42 20,8 -16,17 12,91 -20,-2h-8h-8h-10l-15,-3h-6h-4l-10,-2h-9h-15h-14Z"/>
    <path data-geo-id="3300577380" data-name="Troy" d="M345,3261h1l14,-67 24,17 54,10 6,45h-33l-26,26 -21,-1 -18,-30Z"/>
    <path data-geo-id="3300536660" data-name="Hinsdale" d="M50,3202l73,7 21,161h-4h-1v-3l-12,-18 -2,-5 -16,-32 -3,-3h-2h-2l-9,12 -5,-9 4,-5v-3v-2l-20,-25 -5,-1 -6,-15v-4l-1,-5 -3,-8 -1,-10v-5Z"/>
    <path data-geo-id="3300578420" data-name="Walpole" d="M147,2941l4,-5 8,-8 6,-12 -5,-28 5,-20 -5,-13 -1,-7h-1h-3h-1l-3,-2 -5,-10 1,-5 2,-1 1,-13h1h2h2h2l11,1v15v15l15,2h6h2l11,3h3h2h3l3,2h4h7l11,88 -1,61 -93,-8 -3,-31Z"/>
    <path data-geo-id="3300575300" data-name="Surry" d="M234,3004l1,-61 46,-2 13,95 -64,17Z"/>
    <path data-geo-id="3301101700" data-name="Antrim" d="M515,3003v-2l2,-10 1,-3 1,-7 1,-10 3,-11 7,-39 56,-13 67,-15 -1,67 -18,38 -10,3 -110,18Z"/>
    <path data-geo-id="3301144580" data-name="Lyndeborough" d="M750,3088l54,-9 9,47 6,32 24,24 10,19 -32,13 -6,-28 -86,11 -23,-21 18,-13Z"/>
    <path data-geo-id="3301131940" data-name="Greenville" d="M735,3299l10,-2 19,-5 11,78 -28,5Z"/>
    <path data-geo-id="3301151940" data-name="New Ipswich" d="M661,3296l74,3 12,76 3,22h-17l-25,-2h-23l-10,-1h-11h-1h-23l-5,-2h-1v-5l-8,-53 -1,-10 -3,-15 -2,-13Z"/>
    <path data-geo-id="3300907700" data-name="Bristol" d="M764,2183l31,-17 11,12v1l-14,9 23,31 31,-13 28,23 15,-8 2,-2 -1,2h-1v2v1l3,5 3,5 -1,2 -2,2 -10,5v3v2l1,3v5l-11,5 -26,8 -1,-1 -2,-5h-9l-1,3 -1,2h-2h-3h-2h-1l-3,5v1v2l4,3 2,2 4,3 3,4v3l-7,7 -1,3 1,2 -1,3 -1,2h-1v1v-1l-1,-2 -1,-2 -1,-1 -4,-2h-4l-1,2h-2v1l-1,2 -5,-3h-1l-2,1h-1l-1,2h-2l-1,-2 -3,-1 9,-14Z"/>
    <path data-geo-id="3300961060" data-name="Piermont" d="M468,1759l1,-2 6,-7 3,-1 1,-2h1l-1,-2v-3l-1,-2 1,-6 1,-2h4h1h3h1v2v3h3l-3,-3v-2h-1v-3l-1,-2 1,-3 1,-4h2h2l1,4h2h3h2v-7v-2l1,-3h1h1l54,32 -3,-20 54,28 3,106h-11l-117,-53v-1l-1,-5 2,-2h2h1l1,-2 2,-1 -3,-2 -11,-3 -1,1 -5,-3v-5v-2v-13l-3,-7Z"/>
    <path data-geo-id="3300974740" data-name="Sugar Hill" d="M764,1404l42,24 -35,99 -29,-10 -28,-8Z"/>
    <path data-geo-id="3300907540" data-name="Bridgewater" d="M806,2179v-1l-11,-12 23,-13 69,-40 11,40 -1,2 -2,3 -1,2 1,1 -1,18h-1l-2,4v1v9v1l1,4 1,3 2,5 -1,2 -1,1v4l-1,5 -1,1 -2,2 -15,8 -28,-23 -31,13 -23,-31Z"/>
    <path data-geo-id="3300900580" data-name="Alexandria" d="M679,2140l37,10 -8,13 56,20 38,106 -9,14 -5,6 -3,4 -8,8 -2,-7 -2,-1h-5l-5,1h-1l-6,4 -1,1 -1,2 -1,2h-5l-2,1 -5,5 -1,3 -2,-4 -6,-20 -8,-24 -4,-13 -3,-7 -5,-16 -14,15 -34,-10 8,-19 -17,-40Z"/>
    <path data-geo-id="3300713220" data-name="Clarksville" d="M1041,476l2,-1h2h2l2,-5 13,-9v-8l12,-25 31,-22 32,14 71,6 -2,-10 120,24 -2,18 -13,70 -33,-5 -57,-12Z"/>
    <path data-geo-id="3300713940" data-name="Columbia" d="M939,771l1,-2 4,-8 21,-29 1,-1 -1,-12 -1,-2h-2v-5v-3l2,-3h2l3,-2 2,-2 7,-10 2,-3 1,-15v-2v-3v-3l6,-12 1,-5h2l3,-1 12,-9 1,-1 3,-5 2,-2h1l160,30 -8,43 -6,33 -76,12 -142,20Z"/>
    <path data-geo-id="3300716820" data-name="Dalton" d="M791,1235l13,5 4,1h2l2,-1h1v-4l2,-5 3,-1h4h11h1h4l12,-7 4,-3 1,-2 2,-2 3,-1h1l2,-2 1,-2v-1l4,-4 2,-5v-1v-2h1l2,-2 13,-5v-1v1l29,39 20,28 -72,65 -8,3 -2,4 -5,-10 -23,-34 -2,-3 -8,-8 -5,-12 -8,-12 -2,-3 -7,-12 -1,-1Z"/>
    <path data-geo-id="3300711220" data-name="Chandlers" d="M1149,1378l8,-4 7,37 10,47 -7,10 -14,-69Z"/>
    <path data-geo-id="3300902020" data-name="Ashland" d="M871,2075l32,-4 52,57 3,17h-5l-9,1 -10,2h-5l-4,2h-4h-2h-3h-3l-4,1h-9l-2,2 -11,-40Z"/>
    <path data-geo-id="3300756100" data-name="Northumberland" d="M957,1033h1h7l14,-3 2,-3h3l3,-7 -3,-2v-6l6,3 9,-8 1,-4 -4,-1v-2l1,-1 1,-2 -1,-2h-2l-2,2 -3,2h-1l1,-4v-1v-2h-1l-6,2v-4l1,-1v-2l-8,-3h4l4,-5 -1,-5 -2,-5v-4v-3v-2l2,-5 1,2 2,2 2,1h1l-1,-5 -1,-3v-3h-4l-2,-4 -2,-1 -4,-5 2,-2 2,-3 63,-2 7,7 4,136 28,20 -27,15 -87,-43 -8,-9 -1,-1Z"/>
    <path data-geo-id="3300761780" data-name="Pittsburg" d="M1026,413l2,-2 4,-5 -1,-3 2,-3 1,-2v-7l8,-8 1,-3 1,-2 5,-7h1h1h6h2l1,-1 1,-4 1,-3 5,-7 1,-5h2l5,-6 1,-5v-2l1,-3h2l3,-2 2,-1 3,-4 5,-5 2,-3h1l1,-3v1v-1l1,-4 -1,-1v-2l-4,-7 -4,-6 1,-4 3,-5 4,-3 1,-3 2,-7v-2v-8l4,-5 1,-2 3,-6v-2v-5l1,-2 1,-1 3,-4 1,-1 3,-10 2,-4 3,-1 1,-4v-3l-1,-3 -2,-5 -3,-4h-1l-6,-3h-1l-2,-3 -2,-2 -3,-2 -4,-3 -11,-8 -3,-5 3,-4h1l11,7h1l9,-5 3,-2 5,-3h7l3,2 10,5 3,-10 5,-2 5,-3 8,-5 1,-2 1,-3v-2l-2,-3 -2,-7 6,-5 12,-5h3l2,-1 1,-4 5,-6 20,-10 13,-14h7l6,5h4l6,5 4,19 2,5 1,1h2l7,5h3l1,2 7,8 3,5v2l1,5h2h1h9h2h6l3,-2 3,-3h2h2l1,3 6,5 3,5 4,2 1,3 6,-5 2,-3 7,-2 3,-3 4,5 6,3 3,5 8,-5 12,-13 4,-8 2,-10 3,-9 3,-1h2l1,-4 1,-1v-4l-2,-5 4,-6 1,-4 4,-8 2,-2 6,-3h4h1l1,8 1,5 1,15 2,25 1,7v10l2,5v28l2,42 1,6 1,20 1,2 1,22 1,11v4l1,20 1,3 1,25 1,11v4l2,40 1,16 2,35v7h-103l2,-18 -120,-24 2,10 -71,-6 -32,-14 -31,22 -12,25v8h-31l-1,-1 1,-7v-3l1,-2v-3l2,-5 3,-5v-2l1,-2v-5l-9,-6 -3,-4Z"/>
    <path data-geo-id="3300773380" data-name="Stewartstown" d="M995,496l2,-3 1,-7 2,-3 23,-15h1l17,8 180,35 -17,73 -186,-33 -2,-3v-2v-2l-2,-1v-2l2,-2 1,-6 -1,-7 -1,-3 -3,-2 -1,-2 -5,-8h-1l-2,-2 -1,-3 -1,-2 -1,-1h-2l-3,-7Z"/>
    <path data-geo-id="3300725180" data-name="Ervings" d="M1158,737l6,-33 22,5 1,43Z"/>
    <path data-geo-id="3300776580" data-name="Thompson and Meserves" d="M1157,1374l107,-56h13l-5,35 -1,33 -3,2 -104,23Z"/>
    <path data-geo-id="3300923860" data-name="Ellsworth" d="M757,1815l63,25 6,63 3,34 -95,-39Z"/>
    <path data-geo-id="3300905060" data-name="Benton" d="M655,1607l51,27 57,30 -26,108 -128,-20Z"/>
    <path data-geo-id="3300918740" data-name="Dorchester" d="M550,1958l109,43 -23,125 -116,-40Z"/>
    <path data-geo-id="3300908980" data-name="Canaan" d="M503,2080l17,6 116,40 -15,14 -54,86 -13,20 -128,-60Z"/>
    <path data-geo-id="3300924340" data-name="Enfield" d="M380,2279l46,-93 128,60 -46,75 -19,30 -21,-9 -6,-3v-2l11,-18 -21,-8 -13,-7 -6,-3h-3l-16,-7 -13,-6 -2,-2h-3l-5,-2 -4,-1 -3,-2 -2,-2Z"/>
    <path data-geo-id="3300905460" data-name="Bethlehem" d="M853,1330l2,-4 8,-3 6,2 12,6 6,3 7,4 4,1 13,4 14,8 13,5 3,2 12,6 5,30 2,10 1,5v2l1,5v12l12,-2h4l1,-2 21,-5h3h2h3l17,-1 1,1 1,5v2h3h3l28,-7 1,4 3,1h2l3,2 1,2 7,3 5,2 2,1 8,17 4,7 13,25h-10l5,19 7,39 -9,-4 -104,-38 -193,-71 -42,-24Z"/>
    <path data-geo-id="3300935220" data-name="Hebron" d="M716,2150l41,-60 20,6 20,9 21,48 -23,13 -31,17 -56,-20Z"/>
    <path data-geo-id="3300930820" data-name="Grafton" d="M508,2321l46,-75 13,-20 97,27 34,10h-1l-2,3 -2,2 -5,6 -4,5 -4,4 -1,1 -20,29v1l-6,7 -9,15 -5,6 -3,5 -4,5 -12,-1 -11,-2 -33,-7h-3l-8,-1 -55,-9Z"/>
    <path data-geo-id="3300932180" data-name="Groton" d="M636,2126l23,-125 119,44 -1,51 -20,-6 -41,60 -37,-10Z"/>
    <path data-geo-id="3300927300" data-name="Franconia" d="M771,1527l35,-99 193,71 -40,110 -134,-58Z"/>
    <path data-geo-id="3300942820" data-name="Livermore" d="M915,1715l23,-5 57,40 40,-16 13,-34 -2,-44 39,-32 38,-17 3,-18 -27,-28 4,-24 9,4 16,8 9,13 4,19 3,11 2,7v18l-5,9 7,20 2,6 24,12 -26,46 -8,14v1l1,2v2l2,13 1,8 -206,34Z"/>
    <path data-geo-id="3300948980" data-name="Monroe" d="M515,1401l7,-13 1,-2 3,-2 2,-5h3h3l1,-1 1,-2 1,-2h2h1h1l2,-3 1,-2 1,-1 2,-4v-3v-5v-2l1,-1v-2l-1,-2 1,-8h3h2h4h2h1h3h1h3l5,-2 3,-1h1v-2l8,-3 3,-2 2,-1 1,-7 50,26 -28,17 -49,78 -35,30v-1l-1,-2 -1,-5 1,-3 1,-4 2,-5v-3l2,-2 1,-1 -1,-2 -1,-5 -2,-2 -3,-5v-1l-1,-2 -1,-3 -1,-2 -1,-7h-2v-1v-4l2,-3 1,3v-3l-1,-2 1,-1h-3l-2,1h-3Z"/>
    <path data-geo-id="3300940660" data-name="Landaff" d="M637,1496l15,-8 62,21 28,8 -36,117 -51,-27Z"/>
    <path data-geo-id="3300936900" data-name="Holderness" d="M876,2030h2l115,-19h6l1,5v5l2,19 2,11 5,45 1,10 1,10v2l1,2 1,18 -21,3 -14,2 -19,2h-1l-3,-17 -52,-57 -32,4 -8,-22Z"/>
    <path data-geo-id="3301930500" data-name="Goshen" d="M417,2630l36,-25 45,-11v1l-10,19 1,8 21,78 -54,5h-25l-9,-38Z"/>
    <path data-geo-id="3300110660" data-name="Center Harbor" d="M959,2145l19,-2 14,-2 21,-3 -1,-18 -1,-2v-2l-1,-10 -1,-10 -5,-45 8,9 1,1 2,2 9,8 6,9 1,1h2l2,4 5,5 2,1v2l3,2 11,13h2l1,2 3,3 4,5 2,2 1,1 3,2 8,8 9,9 -36,-4 -41,38v2v-2l-31,4 -23,-33Z"/>
    <path data-geo-id="3301517460" data-name="Deerfield" d="M1169,2896l18,-38 4,-8 2,-2 1,-2 1,-3 1,-3 2,-4 2,-6 4,-13 3,1 1,-3 19,-45 2,-2 7,-16 1,-2 1,-2v-1v1l22,44 93,21 -45,68 16,5 -22,42 -16,-5Z"/>
    <path data-geo-id="3301527940" data-name="Fremont" d="M1345,3044l16,-46h65l-6,78 -5,2 -53,-2h-27Z"/>
    <path data-geo-id="3300519140" data-name="Dublin" d="M422,3123l146,5 1,6 1,7 2,17 2,16v2l2,6 1,15 -137,-5Z"/>
    <path data-geo-id="3300500820" data-name="Alstead" d="M220,2823h2h4l9,2h10l17,-8 14,-2 8,-2h5h1l3,-1h7h6l6,-2h6l6,-2h3l15,127 -61,6 -46,2 -11,-88v-5l-1,-4v-1l-1,-5v-4Z"/>
    <path data-geo-id="3300529220" data-name="Gilsum" d="M342,2935l47,-7 -5,28 -56,9 9,58 -43,13 -13,-95Z"/>
    <path data-geo-id="3300534420" data-name="Harrisville" d="M413,3071l27,-7 72,5 -1,27 53,2 1,16 1,4 2,10 -146,-5 -1,-14Z"/>
    <path data-geo-id="3300538500" data-name="Jaffrey" d="M440,3192l137,5 4,25 1,4 1,8 1,3 8,55 -109,-3 -36,-2 -3,-21 -6,-45Z"/>
    <path data-geo-id="3300526500" data-name="Fitzwilliam" d="M364,3291l21,1 26,-26h33l3,21 36,2 11,98h-3h-2h-1h-4l-20,-2h-13h-1l-26,-1h-17h-3h-2l-13,-2h-12Z"/>
    <path data-geo-id="3300545460" data-name="Marlborough" d="M351,3143l10,-24 60,-10 1,14 18,69 -2,29 -54,-10 -24,-17Z"/>
    <path data-geo-id="3300574900" data-name="Sullivan" d="M384,2956l23,2 -2,37 -2,49 -36,-1v18l-28,-12 -2,-26 -9,-58Z"/>
    <path data-geo-id="3300564420" data-name="Richmond" d="M267,3269l30,-12 48,4h1l18,30 13,91h-6h-11l-8,-2h-4h-6h-6h-3h-12l-7,-1h-14h-6l-13,-2h-18l-12,-91Z"/>
    <path data-geo-id="3300545700" data-name="Marlow" d="M327,2808h2l4,-1 33,-5h6l10,-2 26,-5h2h4l11,-2 -21,63 -15,72 -47,7Z"/>
    <path data-geo-id="3300564580" data-name="Rindge" d="M483,3289l109,3 28,4 2,13 3,15 1,10 8,53v5h-7h-13h-5h-16h-2l-3,-3h-12h-2h-2h-4h-1h-6h-3h-3h-2h-1l-3,-2h-12h-11h-8h-7h-17Z"/>
    <path data-geo-id="3300573700" data-name="Stoddard" d="M389,2928l15,-72 15,2h2h15l44,2h5h6h1l43,1h3v4l-8,56 -7,39 -3,11 -1,10 -1,7 -1,3 -2,10 -110,-6 2,-37 -23,-2Z"/>
    <path data-geo-id="3300565700" data-name="Roxbury" d="M367,3061v-18l36,1 10,27 8,38 -60,10 -19,-21Z"/>
    <path data-geo-id="3300768980" data-name="Shelburne" d="M1340,1193l130,-3v8v8l2,15 1,22v5v10v10v2v3l1,3 1,17v12l1,11h-132Z"/>
    <path data-geo-id="3301502340" data-name="Atkinson" d="M1308,3204l67,-2 20,55h-3l-13,-5 -10,5 -5,2 -1,2h-3l-12,8 -24,-5 -14,-52Z"/>
    <path data-geo-id="3301502820" data-name="Auburn" d="M1125,2975h4h7l97,23 -22,110 -33,-7 -29,-8 -1,-9v-3l-3,-13v-4l-7,-36 -2,-14 -9,-33 -1,-5 -1,-1 -1,-2Z"/>
    <path data-geo-id="3301509300" data-name="Candia" d="M1149,2943l2,-3 2,-5 2,-4 14,-35 117,27 -28,83 -25,-8 -97,-23Z"/>
    <path data-geo-id="3301521380" data-name="East Kingston" d="M1504,3078l14,1 5,75 -32,5h-11l-6,-33 -4,-23Z"/>
    <path data-geo-id="3301512100" data-name="Chester" d="M1233,2998l25,8 -7,17 94,21 -10,32 -42,-7 4,59 -86,-20Z"/>
    <path data-geo-id="3301517140" data-name="Danville" d="M1362,3076l53,2 -2,78 -8,2 -40,-2Z"/>
    <path data-geo-id="3301517940" data-name="Derry" d="M1178,3101l33,7 86,20v10l11,66 2,8 -34,7 -83,10Z"/>
    <path data-geo-id="3301524660" data-name="Epping" d="M1361,2998l18,-55 7,-22h47h1l24,-1h3h26h1v38l-1,23 4,17h-65Z"/>
    <path data-geo-id="3301525380" data-name="Exeter" d="M1487,2981l75,15 -2,33 45,30v2l-12,3 -22,10 -53,5 -14,-1h-8l-1,-12v-2v2v-2l-4,-66Z"/>
    <path data-geo-id="3301550980" data-name="New Castle" d="M1743,2928l30,-2 6,39 -32,-20 2,-7Z"/>
    <path data-geo-id="3301531700" data-name="Greenland" d="M1611,2925l28,18 32,2 7,53 3,15 -8,8 -50,-5 9,-28 -39,-37 -7,-3Z"/>
    <path data-geo-id="3301532900" data-name="Hampstead" d="M1297,3138l68,18 40,2 -19,23h-1l-10,21 -67,2Z"/>
    <path data-geo-id="3301540100" data-name="Kingston" d="M1386,3181l19,-23 8,-2 2,-78 5,-2 76,2h8l-34,25 4,23 6,33 -32,2 -19,45 -43,-25h-1Z"/>
    <path data-geo-id="3301145140" data-name="Manchester" d="M1024,2965l16,-5h6l3,6v2v3l1,2v2h2l5,1 1,4 2,1 17,-11v1l1,4 1,5v3l1,5 1,3v4l1,4 1,2 5,2h2l9,1h2l32,10h3l2,14 7,36v4l3,13v3l1,9 1,10h-1h-2h-4l-3,3 -21,3h-3l-7,2h-2h-3h-3l-13,2 -4,1 -3,4h1v1v5l1,2v3l1,5 4,24v1l1,7 -11,-17 1,-10 -7,-46 -34,-45Z"/>
    <path data-geo-id="3301159940" data-name="Pelham" d="M1163,3302h3l3,-1 2,1h1l2,5 1,2 4,8 14,4 11,3h7l26,8 11,2h1h1l1,1h3h4l1,2h2l2,2 11,15 -2,1h-1l-3,2 -4,5 -3,2 -6,8 -2,3 -7,12 -3,7 -8,10h-1l-6,8h-17h-4h-12h-10h-4l-1,-2h-6h-12h-3h-2h-4h-9h-2Z"/>
    <path data-geo-id="3301176260" data-name="Temple" d="M671,3221l8,-40 27,-5 23,21 16,100 -10,2 -74,-3 14,-52Z"/>
    <path data-geo-id="3301101300" data-name="Amherst" d="M880,3196l26,-24 -2,-63 30,-6 25,-4 11,60h-8l19,117 -46,8 -8,-40 -18,-3Z"/>
    <path data-geo-id="3301108100" data-name="Brookline" d="M836,3321l19,-2 -1,-27 46,-3 2,18 11,95h-1h-1h-3h-6h-1h-7h-13h-7h-1l-12,-2h-11h-2Z"/>
    <path data-geo-id="3301104500" data-name="Bedford" d="M926,3063l112,-15 34,45 7,46 -109,20 -11,-60 -25,4Z"/>
    <path data-geo-id="3301127140" data-name="Francestown" d="M679,2985l90,-9 21,30 14,73 -54,9 -12,-24 -45,7 -6,-32Z"/>
    <path data-geo-id="3301104900" data-name="Bennington" d="M624,3001l10,-3 18,-38 27,25 8,54 -56,9Z"/>
    <path data-geo-id="3301117780" data-name="Deering" d="M653,2893l51,-13 43,-12 22,108 -90,9 -27,-25Z"/>
    <path data-geo-id="3301129860" data-name="Goffstown" d="M903,2958l57,-10h2l18,-5h10l28,-5 6,27 14,83 -112,15 -20,-78Z"/>
    <path data-geo-id="3301146260" data-name="Mason" d="M747,3375l28,-5 -11,-78 66,-8 6,37 12,79h-25l-21,-1h-2h-15h-3h-13l-6,-2h-6h-7Z"/>
    <path data-geo-id="3301137140" data-name="Hollis" d="M902,3307l33,-23 46,-8 2,15 29,26 -16,87h-6h-3h-15h-17h-15h-10h-2h-5l-10,-2Z"/>
    <path data-geo-id="3301131540" data-name="Greenfield" d="M631,3048l56,-9 6,32 45,-7 12,24 -26,75 -18,13 -27,5 -11,-85 -48,7 14,-22Z"/>
    <path data-geo-id="3301142260" data-name="Litchfield" d="M1078,3149l11,17 1,3 2,12 2,13 1,3 4,20 4,32 5,32 -39,3 -4,-3 -16,-84Z"/>
    <path data-geo-id="3301137940" data-name="Hudson" d="M1103,3249l11,2h18h9l11,13 6,8 2,2 5,7 1,1 -4,7v3v5l1,5 -21,108h-2l-16,-1h-13h-3h-9l-1,-40 -29,-85 39,-3Z"/>
    <path data-geo-id="3301136180" data-name="Hillsborough" d="M541,2792h3l18,-7h4l5,-2h4l47,-15h5l24,-6 4,8 4,12 29,61 1,5 15,32 -51,13 -67,15 -37,-86Z"/>
    <path data-geo-id="3301133700" data-name="Hancock" d="M512,3069l1,-18 1,-13v-10v-9l110,-18 7,47 3,33 -14,22 -55,11 -1,-16 -53,-2Z"/>
    <path data-geo-id="3301147540" data-name="Merrimack" d="M970,3159l109,-20 -1,10 -29,48 16,84 -70,-5 -8,10 -4,5 -2,-15 -19,-117Z"/>
    <path data-geo-id="3301160580" data-name="Peterborough" d="M565,3114l55,-11 48,-7 11,85 -8,40 -87,16 -1,-3 -1,-8 -1,-4 -4,-25 -1,-15 -2,-6v-2l-2,-16 -2,-17 -1,-7 -1,-6 -2,-10Z"/>
    <path data-geo-id="3301150740" data-name="New Boston" d="M790,3006l116,-21 20,78 8,40 -30,6 -91,17 -9,-47Z"/>
    <path data-geo-id="3301148020" data-name="Milford" d="M821,3214l32,-13 27,-5 29,45 18,3 8,40 -33,23 -2,-18 -46,3 1,27 -19,2 -6,-37Z"/>
    <path data-geo-id="3301150260" data-name="Nashua" d="M983,3291l4,-5 8,-10 70,5 4,3 29,85 1,40h-1h-7h-6h-2h-2h-7l-5,-2h-12h-10h-5h-2h-3h-5l-10,-3h-6h-16h-2h-2l16,-87Z"/>
    <path data-geo-id="3301149140" data-name="Mont Vernon" d="M813,3126l91,-17 2,63 -26,24 -27,5 -10,-19 -24,-24Z"/>
    <path data-geo-id="3301185220" data-name="Wilton" d="M729,3197l86,-11 6,28 9,70 -66,8 -19,5Z"/>
    <path data-geo-id="3301185940" data-name="Windsor" d="M538,2865v-4h-3l5,-18 3,-7 6,-14 37,86 -56,13Z"/>
    <path data-geo-id="3301179780" data-name="Weare" d="M747,2868l70,-20h1h1l23,-5 3,-2 4,-1 30,-9 2,14 7,35 1,5 14,73 3,27 -116,21 -21,-30Z"/>
    <path data-geo-id="3301168820" data-name="Sharon" d="M584,3237l87,-16 4,23 -14,52h-41l-28,-4Z"/>
    <path data-geo-id="3301350900" data-name="Newbury" d="M498,2595v-1l3,-4v-3l1,-2h1l3,-6 18,-34 1,-3 1,-2 32,-3 56,135 -104,28 -21,-78 -1,-8Z"/>
    <path data-geo-id="3301352100" data-name="New London" d="M518,2484l1,-5 1,-8 2,-7h8l20,3h1h3l1,2 9,-5 1,-3 2,-5 2,-7 2,-3 8,-14 66,42 -12,23 23,17 -98,23 -32,3v-15l1,-16 1,-7 -1,-2 -9,-13Z"/>
    <path data-geo-id="3301361940" data-name="Pittsfield" d="M1176,2584l25,20 2,1h1l1,2 12,8 3,2 6,5 4,3 44,34h1l2,3 3,2 -4,3 -3,5 -4,3 -13,30 -92,-22 24,-24 -43,-32Z"/>
    <path data-geo-id="3301343380" data-name="Loudon" d="M1012,2640l64,-91 1,-35h1l2,1 25,19 3,1 6,5 3,2 18,13 5,4 11,6h2l23,19 -31,43 -64,86 -6,-6 -46,-34Z"/>
    <path data-geo-id="3300718420" data-name="Dixville" d="M1172,661l22,-20 10,-57 17,-73 57,12 8,138 2,40 -102,8 -22,-5Z"/>
    <path data-geo-id="3301375460" data-name="Sutton" d="M656,2514l21,48 35,88 -72,15 -26,7 -56,-135Z"/>
    <path data-geo-id="3300725140" data-name="Errol" d="M1288,701l156,-7 2,20v18l2,27v13v9l2,11 1,20 2,32 -131,5h-29Z"/>
    <path data-geo-id="3301366980" data-name="Salisbury" d="M720,2522l134,-60 -4,48 26,37 -42,18 -65,34 -45,23Z"/>
    <path data-geo-id="3300731780" data-name="Greens" d="M1272,1353h30v35h-15l-16,-2Z"/>
    <path data-geo-id="3300732420" data-name="Hadleys" d="M1164,1544l23,-13 14,78h8l-3,17 -12,8 -11,8 -7,-8v-40l-6,-25 -7,-25Z"/>
    <path data-geo-id="3300739940" data-name="Kilkenny" d="M1088,1090l9,-15 87,-50 -22,58 -37,102h8l3,46 -31,-11 -9,-55Z"/>
    <path data-geo-id="3300757860" data-name="Odell" d="M1082,749l76,-12 29,15 3,102 1,53 -82,3Z"/>
    <path data-geo-id="3300748260" data-name="Millsfield" d="M1288,701l5,148 -103,5 -3,-102 -1,-43Z"/>
    <path data-geo-id="3300761620" data-name="Pinkhams" d="M1268,1388l3,-2 16,2 -20,53h-6h-2l-5,10 -3,8 -2,-40Z"/>
    <path data-geo-id="3300763860" data-name="Randolph" d="M1133,1185l128,-5 3,138 -22,-13 -103,3 -3,-77Z"/>
    <path data-geo-id="3300738820" data-name="Jefferson" d="M993,1185l103,-20 9,55 31,11 3,77 -50,-2 -76,14 -3,-20Z"/>
    <path data-geo-id="3300747860" data-name="Milan" d="M1184,1025l15,-43 124,-5 99,-3 -49,103v1l-211,5Z"/>
    <path data-geo-id="3300730260" data-name="Gorham" d="M1261,1180l78,-2 1,15 4,123 -29,2h-38h-13Z"/>
    <path data-geo-id="3300713780" data-name="Colebrook" d="M1011,631h1v-2l3,-5 6,-8 2,-5 9,-12h1l4,-6v-2l-6,-5h-1l-2,-3 -8,-10 -1,-2 -2,-2 -1,-5v-1v-2l-1,-2 -2,-1h-1v-2h1l3,-2 2,-3 186,33 -10,57 -22,20 -160,-30Z"/>
    <path data-geo-id="3300774180" data-name="Stratford" d="M939,771l1,-2 142,-20 27,161 2,12 -69,10 -63,2 -1,-2 -2,-5h-1v-3l-4,-5v3l-2,2h-2l-5,-5v-2v-2h-6l-3,-1 -1,-4v-3h1l2,-2 -2,-6h-1l1,-2 4,-2v-1h-1l-1,-2h-2h-1h-1l-1,-2 -6,-5h2v-1v-4l-2,-5v-3v-5v-3l-3,-2 -1,-2v-1l-5,-10 -10,-17v-1l-2,-7h-2h-1l-2,-8v-2l-1,-5v-2l-4,-8h-1Z"/>
    <path data-geo-id="3300704100" data-name="Beans" d="M1153,1399l14,69 -19,63 -11,-9 -7,-34 -2,-10 -15,-19Z"/>
    <path data-geo-id="3300743620" data-name="Low and Burbanks" d="M1089,1306l50,2 103,-3 22,13 -107,56 -8,4 -47,25Z"/>
    <path data-geo-id="3300719300" data-name="Dummer" d="M1191,907l-1,-53 103,-5h29l1,128 -124,5Z"/>
    <path data-geo-id="3301378580" data-name="Warner" d="M640,2665l72,-15 -35,-88 27,-32 16,-8 4,100 45,-23 56,116 -59,17 -86,21Z"/>
    <path data-geo-id="3300767860" data-name="Sargents" d="M1164,1411l104,-23 -19,31 2,40 -5,17 -20,55 -15,45 2,1 -2,15 -2,17h-8l-14,-78 11,-42 26,-45 -36,-5 -14,19Z"/>
    <path data-geo-id="3300716100" data-name="Crawfords" d="M1102,1403l47,-25 4,21 -40,60 -26,-51Z"/>
    <path data-geo-id="3300716660" data-name="Cutts" d="M1148,1531l19,-63 7,-10 14,-19 36,5 -26,45 -11,42 -23,13h-1v-3Z"/>
    <path data-geo-id="3300708420" data-name="Cambridge" d="M1322,849l131,-5 1,16v5l1,19 1,15 2,28 1,27 1,18 -38,2 -99,3Z"/>
    <path data-geo-id="3300702420" data-name="Atkinson and Gilmanton Academy" d="M1311,528l13,-70h103v3v10l3,38 -82,5 -4,20Z"/>
    <path data-geo-id="3300705140" data-name="Berlin" d="M1162,1083l211,-5v-1v1l-34,100 -78,2 -128,5h-8Z"/>
    <path data-geo-id="3300704260" data-name="Beans" d="M1287,1388h15v-35l13,-35 29,-2h132l1,22 1,28v3l1,9v10h-31v5v6l2,20v12v15l-23,2h-4l-23,3 -38,-3 -25,-2 -17,-2 -26,-1 -27,-2Z"/>
    <path data-geo-id="3300710100" data-name="Carroll" d="M1010,1300l3,20 76,-14 13,97 -15,5 26,51 15,19 -10,3 -8,2 -13,-25 -4,-7 -8,-17 -2,-1 -5,-2 -7,-3 -1,-2 -3,-2h-2l-3,-1 -1,-4 -28,7h-3h-3v-2l-1,-5 -1,-1 -17,1h-3h-2h-3l-21,5 -1,2h-4l-12,2v-12l-1,-5v-2l-1,-5 -2,-10 -5,-30 -9,-54Z"/>
    <path data-geo-id="3300718340" data-name="Dixs" d="M1278,523l33,5 33,6 -20,124 -38,3Z"/>
    <path data-geo-id="3300314660" data-name="Conway" d="M1413,1656l69,-2 8,8 1,32v3l2,5v2v5l1,23v5v7l1,6v25l2,25v4l1,20v6v15h-52l-3,-48h-29l2,50h-18l-9,-50h-26l-15,-78 -7,-40 -3,-25Z"/>
    <path data-geo-id="3300323620" data-name="Effingham" d="M1419,2008l84,7v3l1,3v7v3v5l2,14 1,6v5v4v3v5l2,15 1,8v12v7v5v3v2v5v1l1,5v7l1,5v5l-29,7 -109,-87Z"/>
    <path data-geo-id="3300349380" data-name="Moultonborough" d="M1004,2051l186,-23 46,10 32,5 -77,107 24,16 -35,62 -3,-4 -28,-28 -11,-8 -8,-9 -18,-18 -4,-3 -2,-2 -2,-1 -1,-2 -7,-7 -3,-3 -2,-2 -2,-1 -9,-9 -8,-8 -3,-2 -1,-1 -2,-2 -4,-5 -3,-3 -1,-2h-2l-11,-13 -3,-2v-2l-2,-1 -5,-5 -2,-4h-2l-1,-1 -6,-9 -9,-8 -2,-2 -1,-1Z"/>
    <path data-geo-id="3300358740" data-name="Ossipee" d="M1236,2038l33,-50 50,-21 5,-2 1,2h1h-1h1l36,51 30,7 9,-27 18,10 -45,65 109,87 -43,54 -54,-41 -62,-13h-1l-55,-117Z"/>
    <path data-geo-id="3300323380" data-name="Eaton" d="M1398,1847h18l-2,-50h29l3,48h52v2v6v5v2l1,22v13l1,8v4l-82,28 -10,-18Z"/>
    <path data-geo-id="3301568260" data-name="Seabrook" d="M1578,3143l61,5 17,10 4,5 6,-12 7,8 3,4 2,1 -4,22h-1h-4l-3,1 -4,2h-2l-1,2 -5,3 -10,7 -2,-4 -11,-6 -3,-2 -2,-2 -1,-1 -2,-4 -2,-1h-2l-8,-5 -3,-4 -12,-3 -2,-3h-2h-2h-5h-1h-2l-2,-15Z"/>
    <path data-geo-id="3301585780" data-name="Windham" d="M1162,3289l4,-7 11,-33 1,-10v-2v2v-2l15,-8 83,-10 6,33 -45,80 -26,-8h-7l-11,-3 -14,-4 -4,-8 -1,-2 -2,-5h-1l-2,-1 -3,1h-3l-1,-5v-5Z"/>
    <path data-geo-id="3301539780" data-name="Kensington" d="M1518,3079l53,-5 7,69 2,8 -57,3Z"/>
    <path data-geo-id="3301564020" data-name="Raymond" d="M1258,3006l28,-83 16,5 77,15 -18,55 -16,46 -94,-21Z"/>
    <path data-geo-id="3300903940" data-name="Bath" d="M515,1509v-3l2,-7 2,-1 1,-2 2,-2 1,-3v-3v-2l-3,-3 3,-2h2l1,-2 2,-5 35,-30 72,39 2,13 18,111 -115,-53 -1,-2v-1h-3l1,-5h-3h-2l-1,-5 -3,-2 -1,-2 -1,-3v-3l-1,-4 -1,-1 -2,-7 -5,-7 -2,-1Z"/>
    <path data-geo-id="3300908660" data-name="Campton" d="M804,2003l25,-66 -3,-34 3,-1 34,30 17,-7 97,-13 9,48v2l3,21 4,28 -115,19h-2h-49Z"/>
    <path data-geo-id="3300933860" data-name="Hanover" d="M297,2128l27,-40 29,-12 32,-33 118,37 -77,106 -134,-45Z"/>
    <path data-geo-id="3300941300" data-name="Lebanon" d="M280,2208l3,-10 9,-57 134,45 -46,93 -53,-10h-4l-51,-10h-2h-2v-1l2,-7Z"/>
    <path data-geo-id="3300512260" data-name="Chesterfield" d="M59,3166l6,-3 5,-7 3,-22 6,-3 -2,-18v-2v-5h1l148,12 19,20 -40,79 -82,-8 -73,-7Z"/>
    <path data-geo-id="3300582660" data-name="Westmoreland" d="M72,3079l12,-10h3l12,-3 12,-3 6,-7 3,-2 6,5 24,-36h1l4,-9v-3v-3l-1,-2 -13,-10 93,8 -4,49 -17,3 13,62 -148,-12h-1l-1,-15 -4,-3Z"/>
    <path data-geo-id="3300922020" data-name="Easton" d="M742,1517l29,10 54,24 -41,110 -21,3 -57,-30Z"/>
    <path data-geo-id="3300550580" data-name="Nelson" d="M403,3044l2,-49 110,6v2l-1,16v9v10l-1,13 -1,18 -72,-5 -27,7Z"/>
    <path data-geo-id="3300942580" data-name="Littleton" d="M591,1323l3,-2h4l3,2h9h3l5,-2h2h7l8,4 7,-4 3,-5 4,-1 2,-5h2l9,-2h1l5,2h4l3,5h1h3l4,3 4,2 7,3h2l1,-2h2v-1h2h1l1,-2h2h2h1h3h1l1,-2 7,-5 3,-1h1l2,-2 5,-3h2h2l1,-2h1h1h3l2,-2 3,-1h2l-2,-10 -1,-2v-2l-1,-1v-2l2,-2 2,-5 -2,-1h-1v-4l1,-1v-4l1,-1 4,-2h6l-1,-10 1,-2 3,-3 2,-2 2,-3h2h7h4h1l4,-2 4,-3 5,-3h1l1,1 7,12 2,3 8,12 5,12 8,8 2,3 23,34 5,10 -89,74 -62,-25 -62,-30 -50,-26Z"/>
    <path data-geo-id="3300962660" data-name="Plymouth" d="M778,2045l26,-42 23,27h49h2h-2l-13,23 8,22 16,38 -69,40 -21,-48 -20,-9Z"/>
    <path data-geo-id="3300978740" data-name="Warren" d="M609,1752l128,20 29,5 -9,38 -23,83 -122,-33v-7Z"/>
    <path data-geo-id="3300944100" data-name="Lyman" d="M640,1349l62,30 -67,104 -72,-39 49,-78Z"/>
    <path data-geo-id="3300942020" data-name="Lisbon" d="M635,1483l67,-104 62,25 -50,105 -62,-21 -15,8Z"/>
    <path data-geo-id="3300958340" data-name="Orange" d="M567,2226l54,-86 15,-14 43,14 -24,54 17,40 -8,19Z"/>
    <path data-geo-id="3300965940" data-name="Rumney" d="M659,2001l75,-103 95,39 -25,66 -26,42Z"/>
    <path data-geo-id="3300944260" data-name="Lyme" d="M387,2031v-1l14,-27 4,-13 -1,-3 1,-19 2,-6v-4l-1,-13 -4,-12 1,-1 1,-4 4,-6h4h2l3,-2 2,-2 2,-1 -2,-4 131,45 -30,128 -17,-6 -118,-37v-2v-1Z"/>
    <path data-geo-id="3300958500" data-name="Orford" d="M426,1895l2,-2 3,-10 35,-46v-2v-3l4,-13 6,-2 1,-2 3,-5 2,-1 1,-2 1,-2 117,53 7,12 -58,88 -131,-45 -3,-6v-2Z"/>
    <path data-geo-id="3300976740" data-name="Thornton" d="M820,1840l33,15 50,-135 12,-5 23,69 36,104 3,19v5l-97,13 -17,7 -34,-30 -3,1Z"/>
    <path data-geo-id="3300980500" data-name="Wentworth" d="M601,1858h11v7l122,33 -75,103 -109,-43 58,-88Z"/>
    <path data-geo-id="3300979380" data-name="Waterville Valley" d="M938,1784l206,-34 1,2 1,5v3l2,17 1,7 4,28 6,40 1,8h-4h-3l-29,5 -6,2h-4l-42,8h-5l-18,3 -15,2 -11,2 -11,1 -29,4 -9,1Z"/>
    <path data-geo-id="3300987060" data-name="Woodstock" d="M737,1772l26,-108 21,-3 119,59 -50,135 -33,-15 -63,-25 9,-38Z"/>
    <path data-geo-id="3300300420" data-name="Albany" d="M1140,1724l40,-4h144l24,-1 15,78 -26,2 -40,48 -135,23 -2,-10 -1,-8 -6,-40 -4,-28 -1,-7 -2,-17v-3l-1,-5 -1,-2 -1,-8 -2,-13v-2l-1,-2Z"/>
    <path data-geo-id="3300303700" data-name="Bartlett" d="M1148,1710l26,-46h25l-5,-30 12,-8 3,-17 2,-17 2,-15 88,-3 42,15 57,3 2,60 11,4 -75,-2 3,25 -16,1 -1,40h-144l-40,4Z"/>
    <path data-geo-id="3300327700" data-name="Freedom" d="M1324,1965l72,-32 22,2 82,-28v3v3v5v5l1,7v5v3l1,7v25v7l1,16v5v8v7v2l-84,-7 -18,-10 -9,27 -30,-7 -36,-51h-1h1h-1l-1,-2Z"/>
    <path data-geo-id="3300332500" data-name="Hale's" d="M1341,1679l7,40 -24,1 1,-40Z"/>
    <path data-geo-id="3300334500" data-name="Hart's Location" d="M1100,1483h10l8,-2 10,-3 2,10 7,34 11,9 15,10v3l7,25 6,25v40l7,8 11,-8 5,30h-25l-24,-12 -2,-6 -7,-20 5,-9v-18l-2,-7 -3,-11 -4,-19 -9,-13 -16,-8 -7,-39Z"/>
    <path data-geo-id="3300338260" data-name="Jackson" d="M1211,1576l15,-45 20,-55 5,-17 3,-8 5,-10h2h6l27,2 26,1 17,2 25,2 38,3v141l-57,-3 -42,-15 -88,3Z"/>
    <path data-geo-id="3300311780" data-name="Chatham" d="M1400,1451l23,-3h4l23,-2v-15v-12l-2,-20v-6v-5h31l1,13v7v3l1,8v9v3v5l1,8v5v9l1,15 1,15v3v3l1,32 1,15v3l1,48 1,15v2v3v5v12v3v2v7v1l2,20 -8,-8 -69,2 -11,-4 -2,-60Z"/>
    <path data-geo-id="3300378180" data-name="Wakefield" d="M1436,2219l4,-5 43,-54 29,-7v3l1,7v3l1,15v2l1,10 1,11v2v3v2l1,7v6v7l1,5v2v3v7v3l1,3v2v5v3v5l1,5v5v5v5l1,4v5l3,1h1l2,2 1,2v1v2l3,2h4v1l1,2 2,8 1,7 -1,6 -1,2h-2h-2h-2h-1l-5,5 -23,32 -5,6 -14,20 -1,2 -2,2 -7,8v-3l-3,-10v-5l-1,-4v-1l-2,-4 -6,-33Z"/>
    <path data-geo-id="3300345060" data-name="Madison" d="M1363,1797h26l9,50 10,70 10,18 -22,-2 -72,32 -5,2 -22,-120 40,-48Z"/>
    <path data-geo-id="3300367780" data-name="Sandwich" d="M974,1888l9,-1 29,-4 11,-1 11,-2 15,-2 18,-3h5l42,-8h4l6,-2 29,-5h3h4l2,10 28,158 -186,23 -2,-11 -2,-19v-5l-1,-5h-6l-4,-28 -3,-21v-2l-9,-48v-5Z"/>
    <path data-geo-id="3300376100" data-name="Tamworth" d="M1162,1870l135,-23 22,120 -50,21 -33,50 -46,-10 -28,-158Z"/>
    <path data-geo-id="3300377620" data-name="Tuftonboro" d="M1268,2043l55,117h1h-1l-60,83 -30,33 -14,-13 -15,-14 -17,-13 -1,-2 -1,-1 -1,-2 -1,-2 -3,-1 35,-62 -24,-16Z"/>
    <path data-geo-id="3301769940" data-name="Somersworth" d="M1565,2698l27,-41 2,2h2h1l2,3 3,2 2,1 1,2v3l2,3 1,2h3h2h2l1,3v2l3,3 2,2h2l3,3 2,2 1,5 2,2 3,1 1,-1v-2v2h3h1l2,1h1l3,2 3,2v1v2v7l-44,25Z"/>
    <path data-geo-id="3301765540" data-name="Rollinsford" d="M1604,2737l44,-25 2,1h2h2h5l9,5 1,4h1v5l2,3 1,2 1,1 1,2v2l-1,1 -1,4v1v2l-1,2 -2,1 -2,7 -2,5v3v5v2l-47,-15Z"/>
    <path data-geo-id="3301748660" data-name="Milton" d="M1473,2409l7,-8 2,-2 1,-2 14,-20 5,-6 23,-32 5,-5h1l-1,8 3,4 2,3 1,8h2v5v4l-1,1v5v2h1l-3,3v4v3l-1,3 -6,4v5l-1,3 -2,3 -1,2v2l1,1v2v2v-2v2v1l-2,2 -4,2 3,3h1v2h1h4l3,3 1,2 2,3 -1,3 -2,7 -1,2v1l-2,2 -1,3v2l1,7 3,1 2,4v3l-1,3 -4,2h-3v2v3v3v2l-1,3 -2,2 -1,2 -2,1h-3h-1l-2,2v2l-3,19v2l1,2 1,1h1v5l-4,5 1,5v2v2v3v2v1l-4,7 -89,-63Z"/>
    <path data-geo-id="3301726020" data-name="Farmington" d="M1415,2487l2,-3 89,63 -76,97 -81,-72Z"/>
    <path data-geo-id="3300740420" data-name="Lancaster" d="M886,1190l7,-25 11,-7 -2,-1 -2,-2 -1,-2 11,-13v2l-1,3 3,3 8,-3 1,-2 2,-5 7,-3h4h3l3,-2 3,-1 1,-5 2,-2 4,-10v2h3v-2v-3h2l3,1h3l1,-3v-2l-3,-1 -1,-2 -1,-2 -2,-1 -2,-4 -5,-6v-2v-3h5l9,-7 5,-13 87,43 27,-15 7,-5 8,75 -103,20 -78,45 -29,-39Z"/>
    <path data-geo-id="3300746020" data-name="Martins" d="M1277,1318h38l-13,35h-30Z"/>
    <path data-geo-id="3301911380" data-name="Charlestown" d="M158,2795l9,-65 8,-40 4,-3 25,-62 -11,-31 52,1 -4,19 -5,41 20,38 -16,4 12,66 -68,14 8,45 -24,-4 -11,-1h-2h-2h-2h-1Z"/>
    <path data-geo-id="3301931220" data-name="Grantham" d="M373,2402l23,-33 1,-46 17,-29 16,7h3l6,3 13,7 21,8 -11,18v2l6,3 21,9 -18,28 16,5 -18,43h-30Z"/>
    <path data-geo-id="3301718820" data-name="Dover" d="M1543,2737l22,-39 39,39 15,18 47,15v3v2v3h-1l-3,2h-2l-1,3v2h1v5l2,3 1,7 -1,2 -2,3v12l-1,1 -1,4 -1,3v2l-2,4 -1,2v3l2,5 1,4 9,20 -24,-4h-2l-3,-3 -2,-2 -3,-3h-1l-96,-105Z"/>
    <path data-geo-id="3301703460" data-name="Barrington" d="M1448,2657l95,80 -8,11 -34,57 -26,43 -24,-20h-3l-2,-5 -10,-6 -49,-40 -1,-2 -1,-2h-1l-2,-3 -2,-2 -5,-3Z"/>
    <path data-geo-id="3301719700" data-name="Durham" d="M1536,2817l95,38 4,1 2,2 3,3h2h-2l-14,4 2,45 -12,11 -14,-3h-1l-2,-2 -7,-3 -8,-2h-4l-13,-1h-2h-3l-27,3 -1,3 -9,2h-2l-4,2h-1Z"/>
    <path data-geo-id="3301765140" data-name="Rochester" d="M1430,2644l76,-97 4,-7 2,2h1l2,7 4,6 1,2v2l1,3 -3,3 5,7v2v5v1l4,-1 -2,3v2l2,1 1,2h3l4,2v1l1,2 2,5h2l2,-2h2h3h1h1h4h1l3,-1h2l1,1h1h-1v2l1,2v5l4,1 3,2v2v1h-1h1v2h2l2,-2h1v2l1,2v1l4,5v2h-2l2,7 1,1h2l2,2 1,3 4,2 1,2v1h2l3,4 -1,1h-1h-2h-4v2h-1l-1,2v1v2h2l6,5 -27,41 -22,39 -95,-80Z"/>
    <path data-geo-id="3301747700" data-name="Middleton" d="M1393,2379l5,-7 4,7 4,-7 5,7 2,-8 9,1 12,-20 4,5 10,-1 5,-7h8l6,33 2,4v1l1,4v5l3,10v3l-56,75 -2,3Z"/>
    <path data-geo-id="3301744820" data-name="Madbury" d="M1501,2805l34,-57 96,105h1l3,3 2,2 -2,-2 -4,-1 -95,-38Z"/>
    <path data-geo-id="3301741460" data-name="Lee" d="M1433,2921l2,-5 5,-10 5,-6 30,-52 26,-43 35,12 -18,103h-1h-4h-25h-1h-26h-3l-24,1Z"/>
    <path data-geo-id="3301751220" data-name="New Durham" d="M1319,2372l10,-15 9,-10v-1l7,-9 8,-9v-2l6,-7 10,-13 3,-3 1,-2 4,-5v-2l1,2 2,10 3,13 1,9 2,8v5l1,15 3,15 3,8 22,108 -66,85 -21,-133 -1,-2 -4,-35 -2,-15 -2,-10Z"/>
    <path data-geo-id="3300386420" data-name="Wolfeboro" d="M1323,2160h1l62,13 54,41 -4,5 -59,75v2l-4,5 -1,2 -3,3 -10,13 -6,7v2l-8,9 -10,-6 -7,-5 -4,-3 -1,-2 -11,-8h-1l-4,8 -5,2 -45,-25 -24,-22 30,-33Z"/>
    <path data-geo-id="3301916340" data-name="Croydon" d="M361,2397l12,5 66,25h30l-4,29 -11,66 -133,-38 2,-68 23,6Z"/>
    <path data-geo-id="3301900260" data-name="Acworth" d="M256,2693l93,-13 17,122 -33,5 -4,1h-2h-3l-6,2h-6l-6,2h-6h-7l-3,1h-1h-5l-8,2 -14,2 -10,-54 -12,-66Z"/>
    <path data-geo-id="3301940900" data-name="Langdon" d="M168,2818l24,4 -8,-45 68,-14 10,54 -17,8h-10l-9,-2h-4h-2l2,13v4l1,5v1l1,4v5h-7h-4l-3,-2h-3h-2h-3l-11,-3h-2h-6l-15,-2v-15Z"/>
    <path data-geo-id="3301912900" data-name="Claremont" d="M188,2537l5,-8 12,-52 116,7 2,116 -65,-1 -17,15 4,-19 -52,-1 17,-27 -20,-5 -2,-3Z"/>
    <path data-geo-id="3301915060" data-name="Cornish" d="M204,2369l1,-7 112,10 13,-16 33,16 -2,25 -15,25 -23,-6 -2,68 -116,-7 4,-23 1,-5v-3v-4v-3v-3l6,-17 1,-2 2,-5 1,-8v-2v-3v-3l-3,-9 -1,-1h-1Z"/>
    <path data-geo-id="3300307940" data-name="Brookfield" d="M1377,2294l59,-75 25,130h-8l-5,7 -10,1 -4,-5 -12,20 -9,-1 -2,8 -5,-7 -4,7 -4,-7 -5,7 -3,-8 -3,-15 -1,-15v-5l-2,-8 -1,-9 -3,-13 -2,-10Z"/>
    <path data-geo-id="3301551380" data-name="Newfields" d="M1488,2958l94,-2 -20,40 -75,-15Z"/>
    <path data-geo-id="3300103220" data-name="Barnstead" d="M1236,2492l113,80 -6,8 -30,37 -2,5 -14,18 -11,15 -6,9 -3,-2 -2,-3h-1l-44,-34 -4,-3 -6,-5 -3,-2 -12,-8 -1,-2h-1l-2,-1 -25,-20Z"/>
    <path data-geo-id="3300104740" data-name="Belmont" d="M1025,2387l8,-36 48,31 50,30v2l-67,91 -19,-14 -2,-2 -11,-7 -1,-1 -12,-9 -2,-1 -5,-4 -7,-5 -4,-3 -1,-2h-1l-3,-3 -3,-2 -3,-1Z"/>
    <path data-geo-id="3300128740" data-name="Gilford" d="M1079,2239l33,-1 29,-25 36,11 26,153 -72,37v-2l-50,-30 -8,-40 18,-38 8,-45Z"/>
    <path data-geo-id="3300101060" data-name="Alton" d="M1177,2224l3,4 3,1 1,2 1,2 1,1 1,2 17,13 15,14 14,13 24,22 45,25 5,-2 4,-8h1l11,8 1,2 4,3 7,5 10,6 -7,9v1l-9,10 -10,15v5l2,10 2,15 4,35 1,2 21,133 -113,-80 15,-18 -33,-25 -15,-72Z"/>
    <path data-geo-id="3301557460" data-name="Nottingham" d="M1302,2928l22,-42 -16,-5 45,-68 27,-45 2,2 2,3h1l1,2 1,2 49,40 10,6 2,5h3l24,20 -30,52 -5,6 -5,10 -2,5h-47l-7,22Z"/>
    <path data-geo-id="3301551620" data-name="Newington" d="M1616,2921l12,-11 -2,-45 14,-4h2l24,4 36,30 -37,23 6,27 -32,-2 -28,-18Z"/>
    <path data-geo-id="3301554580" data-name="North Hampton" d="M1605,3059l18,-43 50,5 4,17 38,23 7,3 -13,20 -104,-23Z"/>
    <path data-geo-id="3301552900" data-name="Newton" d="M1429,3206l19,-45 32,-2h11l13,38h-6l-10,4h-1l-6,1 -8,2 -3,3 -4,5 -5,5 -2,5 -3,5 -5,10 -30,-20Z"/>
    <path data-geo-id="3301552340" data-name="Newmarket" d="M1488,2920h25h4h1h1l4,-2h2l9,-2 1,-3 27,-3h3h2l13,1h4l8,2 7,3 2,2h1l14,3 -5,4 -25,23 -4,8 -94,2Z"/>
    <path data-geo-id="3301556820" data-name="Northwood" d="M1238,2747l4,-10h1l6,-15 2,-5v-2l4,-8v-2h1l13,-30 17,15 16,13 3,2 8,10 10,7 15,11 20,19h2l8,8 7,5 5,3 -27,45 -93,-21 -22,-44Z"/>
    <path data-geo-id="3300151540" data-name="New Hampton" d="M821,2273l3,-5h1h2h3h2l1,-2 1,-3h9l2,5 1,1 26,-8 11,-5v-5l-1,-3v-2v-3l10,-5 2,-2 1,-2 -3,-5 -3,-5v-1v-2h1l1,-2 1,-1 1,-5v-4l1,-1 1,-2 -2,-5 -1,-3 -1,-4v-1v-9v-1l2,-4h1l1,-18 -1,-1 1,-2 2,-3 1,-2 2,-2h9l4,-1h3h3h2h4l4,-2h5l10,-2 9,-1h5l23,33 31,-4v2l-110,108 -58,57h-1l-1,-2 -2,-3v-4l-2,-3 -1,-5 -6,-1 -2,-2 -5,-8 -1,-4h1v-1h1l1,-2 1,-3 -1,-2 1,-3 7,-7v-3l-3,-4 -4,-3 -2,-2 -4,-3v-2Z"/>
    <path data-geo-id="3300128980" data-name="Gilmanton" d="M1064,2505l67,-91v-2v2l72,-37 15,72 33,25 -15,18 -60,92 -23,-19h-2l-11,-6 -5,-4 -18,-13 -3,-2 -6,-5 -3,-1 -25,-19 -2,-1h-1l-3,-2Z"/>
    <path data-geo-id="3300140180" data-name="Laconia" d="M1079,2239l20,20 -8,45 -18,38 8,40 -48,-31 -8,-28 -23,-59 21,-5 38,-35Z"/>
    <path data-geo-id="3301562500" data-name="Plaistow" d="M1385,3181h1l43,25 -8,11 30,20v4l-3,10 -2,8 -1,5 -3,8 -2,-1 -4,-2 -18,-5 -10,-3h-2l-4,-2 -5,-2h-2l-20,-55Z"/>
    <path data-geo-id="3301567620" data-name="Sandown" d="M1335,3076h27l3,80 -68,-18v-10l-4,-59Z"/>
    <path data-geo-id="3301566660" data-name="Salem" d="M1276,3219l34,-7 14,52 24,5 -2,2 -14,16 -1,4 -2,1v15l2,15v2l1,15v1v4l2,16 -6,-3 -5,-2h-6l-4,-1h-2l-1,-2h-5l-6,-2 -5,-1 -8,1 -12,4 -11,-15 -2,-2h-2l-1,-2h-4h-3l-1,-1h-1h-1l-11,-2 45,-80Z"/>
    <path data-geo-id="3301566180" data-name="Rye" d="M1678,2998l25,6 44,-59 32,20 64,71 26,18 -34,7 -43,-22 -6,39 -64,-14 -7,-3 -38,-23 -4,-17 8,-8Z"/>
    <path data-geo-id="3301562900" data-name="Portsmouth" d="M1702,2895l41,33 6,10 -2,7 -44,59 -25,-6 -7,-53 -6,-27Z"/>
    <path data-geo-id="3301574340" data-name="Stratham" d="M1562,2996l20,-40 4,-8 7,3 39,37 -9,28 -18,43v2v-2l-45,-30Z"/>
    <path data-geo-id="3301507220" data-name="Brentwood" d="M1426,2998h65l4,66v2v-2v2l1,12 -76,-2Z"/>
  </g>
  <path class="mesh" transform="scale(0.1)" d="M540,1554l115,53 -46,145 -54,-28 3,20 -54,-32h-1M1142,3410l21,-108h3l3,-1 2,1h1l2,5 1,2 4,8 14,4 11,3h7l26,8 11,2h1h1l1,1h3h4l1,2h2l2,2 11,15M1125,2975l-1,-2M636,2347l33,89 18,-20 12,25 -30,13 35,76 -27,32 -21,-48 -23,-17 12,-23 -66,-42 16,-23 1,-3 2,-2 2,-3 2,-5 30,-44M699,2441l42,-20 78,-35 39,-20v1v2l3,3 3,5 3,4 1,1 1,4 5,5 2,1 7,2h2l1,2 5,3 1,2v3l5,-2 9,-3 9,17v3l3,7 1,3h-4l2,5v3l2,4 -3,1 3,7 3,8 1,2v2l-7,1 3,47 -22,28 -21,10 -26,-37 4,-48 -11,-41 -24,-35M1041,2785l-5,-17 21,-1 -4,-19 4,-6h1l12,-22 5,-13 6,6 -12,17 55,38 -12,30 22,4 -23,31 -19,28 -25,2 -28,-38 1,-10 1,-30M1164,2683l92,22h-1v2l-4,8v2l-2,5 -6,15h-1l-4,10v1l-1,2 -1,2 -7,16 -2,2 -19,45 -1,3 -3,-1 -4,13 -2,6 -2,4 -1,3 -1,3 -1,2 -2,2 -4,8 -18,38 -14,35 -2,4 -2,5 -2,3 -13,32h-7h-4l1,1 1,5 9,33h-3l-32,-10h-2l-9,-1h-2l-5,-2 -1,-2 -1,-4v-4l-1,-3 -1,-5v-3l-1,-5 -1,-4v-1l-17,11 -2,-1 -1,-4 -5,-1h-2v-2l-1,-2v-3v-2l-3,-6h-6l-16,5 -6,-27 -28,5h-10l-18,5h-2l-57,10 -14,-73 -1,-5 -7,-35 -2,-14 36,-9 47,36v28l62,42 -6,10M1238,2748l22,44 93,21 -45,68 16,5 -22,42 -16,-5 -117,-27 -103,-28 1,-5M1134,2802l70,15M915,2822l24,-5 9,16 64,-33 27,25M1066,2868l-42,60M834,2565l42,-18M897,2537l3,25 -1,2 17,46 32,15 4,34 -57,28M1441,649l-117,9 20,-124 4,-20 82,-5M979,934l63,-2 69,-10 -2,-12 82,-3 8,75 -15,43 -87,50 -9,15 -7,5 -28,-20 -4,-136 -7,-7M1470,1190l-130,3 -1,-15 34,-100v-1l49,-103 38,-2M1444,694l-156,7 -2,-40 38,-3M863,1323l72,-65 -20,-28 78,-45 17,115 -66,10 9,54 -12,-6 -3,-2 -13,-5 -14,-8 -13,-4 -4,-1 -7,-4 -6,-3 -12,-6 -6,-2M1081,2713l64,-86 43,32 -24,24 -40,85M498,2594v1l-10,19 1,8 21,78 104,-28 26,-7 40,88 -29,9M456,2705l54,-5M879,2831l-30,9 -4,1 -3,2 -23,5h-1l-52,-116 59,-17M878,2695l61,122M680,2753l86,-21M899,2564l1,-2 148,-55 16,-2 10,7 3,2 -1,35 -64,91 -5,-10 -55,29M268,2259h2h2l51,10h4l53,10h2l2,2 3,2 4,1 5,2h3l2,2 13,6 -17,29 -1,46 -23,33 -12,-5 2,-25 -33,-16 -13,16 -112,-10M454,2522l11,-66 57,8M579,2432l-8,14 -2,3 -2,7 -2,5 -1,3 -9,5 -1,-2h-3h-1l-20,-3h-8l-2,7 -1,8 -1,5v3l9,13 1,2 -1,7 -1,16v15l-1,2 -1,3 -18,34 -3,6h-1l-1,2v3l-3,4 -45,11M535,2861l-43,-1h-1h-6h-5l-44,-2h-15h-2l-15,-2 21,-63M349,2680l73,-13 9,38h25l-5,82 -26,6 -11,2h-4h-2l-26,5 -10,2h-6l-17,-122 -93,13 -20,-38 5,-41 17,-15 65,1M417,2630l5,37M1149,3093l29,8 15,128 -15,8v2v-2M1504,3197l-13,-38 32,-5 57,-3 2,15M854,2462l-134,60 -16,8M1593,3064l12,-3 104,23 -14,44 -17,36 -2,-1 -3,-4 -7,-8M871,2075l-8,-22 13,-23h2l115,-19h6l1,5v5l2,19 2,11 8,9 1,1 2,2 9,8 6,9 1,1h2l2,4 5,5 2,1v2l3,2 11,13h2l1,2 3,3 4,5 2,2 1,1 3,2 8,8 9,9 2,1 2,2 3,3 7,7 1,2 2,1 2,2 4,3 18,18 8,9 11,8 28,28 -36,-11 -29,25 -33,1 -18,-15 -38,35 -21,5 23,59 -123,-39 110,-108v-2l41,-38 36,4M741,2421l-9,-54 8,-35 1,-3 5,-5 2,-1h5l1,-2 1,-2 1,-1 6,-4h1l5,-1h5l2,1 2,7 8,-8 3,-4 5,-6 3,1 1,2h2l1,-2h1l2,-1h1l5,3 1,-2v-1h2l1,-2h4l4,2 1,1 1,2 1,2v1h-1l1,4 5,8 2,2 6,1 1,5 2,3v4l2,3 1,2h1l58,-57M1025,2323l8,28 -8,36 -84,32 -22,10M858,2366l1,-2 1,-2 1,-5 1,-1 -2,-4 -1,-1 -4,-2 -3,-3 -2,-2 -6,-3M1025,2387l-35,64 -2,-2h-2l-3,-2h-2v-1h-2l-2,1 -3,4h-2h-2l-8,8 -1,2 -8,3h-2l-4,-2 -1,2v3v2h-2l-1,2 -3,1 -3,-6h-2l-4,1 -2,-1h-1l-1,-4 -1,-1h-1h-2M1349,2572l81,72 18,13 -73,108 -7,-5 -8,-8h-2l-20,-19 -15,-11 -10,-7 -8,-10 -3,-2 -16,-13 -17,-15 -13,30M1012,2640l17,33 46,34M489,2351l19,-30 2,11 55,9 8,1h3l33,7 11,2 12,1 4,-5 3,-5 5,-6 9,-15 6,-7v-1l20,-29 1,-1 4,-4 4,-5 5,-6 2,-2 2,-3h1l14,-15 5,16 3,7 4,13 8,24 6,20 2,4M245,3138l106,5 9,51 -14,67h-1l-48,-4 -30,12 -20,-8 -6,-42 -36,-2 40,-79 -19,-20 -13,-62 17,-3 64,-17 43,-13 2,26 28,12 -25,37 19,21 -10,24M144,3370l-21,-161 82,8M267,3269l-16,17 12,91M360,3194l24,17 54,10 6,45h-33l-26,26 -21,-1 -18,-30M50,3202l73,7M224,2855l11,88 -1,61 -93,-8M235,2943l46,-2 13,95M230,3053l4,-49M512,3069l1,-18 1,-13v-10v-9l1,-16v-2l2,-10 1,-3 1,-7 1,-10 3,-11 7,-39 56,-13 67,-15 -1,67 -18,38 -10,3 -110,18M634,3392v-5l-8,-53 -1,-10 -3,-15 -2,-13h41l74,3 10,-2 19,-5 11,78 -28,5 -12,-76M747,3375l3,22M793,2303l9,-14 -38,-106 31,-17 11,12v1l-14,9 23,31 31,-13 28,23 15,-8 2,-2 -1,2h-1v2v1l3,5 3,5 -1,2 -2,2 -10,5v3v2l1,3v5l-11,5 -26,8 -1,-1 -2,-5h-9l-1,3 -1,2h-2h-3h-2h-1l-3,5v1v2l4,3 2,2 4,3 3,4v3l-7,7 -1,3 1,2 -1,3 -1,2h-1M655,1607l51,27 57,30 -26,108 -128,-20 3,106h-11l-117,-53M795,2166l23,-13 69,-40 11,40 -1,2 -2,3 -1,2 1,1 -1,18h-1l-2,4v1v9v1l1,4 1,3 2,5 -1,2 -1,1v4l-1,5 -1,1M698,2263l-34,-10 8,-19 -17,-40 24,-54 37,10 -8,13 56,20M1062,461v-8l12,-25 31,-22 32,14 71,6 -2,-10 120,24 -2,18 -13,70 -33,-5 -57,-12 -180,-35M1011,631h1l160,30 -8,43 -6,33 -76,12 -142,20 -1,2M886,1191v-1M886,1191l29,39M863,1323l-8,3 -2,4 -5,-10 -23,-34 -2,-3 -8,-8 -5,-12 -8,-12 -2,-3 -7,-12 -1,-1h-1M887,2113l-16,-38 32,-4 52,57 3,17h-5l-9,1 -10,2h-5l-4,2h-4h-2h-3h-3l-4,1h-9l-2,2M1081,1095l-27,15 -87,-43M1427,458h-103M1221,511l-17,73 -186,-33M1164,704l22,5 1,43 -29,-15M1157,1374l107,-56h13l-5,35 -1,33 -3,2 -104,23M737,1772l29,5 -9,38 63,25 6,63 3,34 -95,-39 23,-83M601,1858l7,12 -58,88M679,2140l-43,-14 -15,14 -54,86 -13,20 -128,-60 77,-106 17,6M554,2246l-46,75M465,2456l4,-29 18,-43 -16,-5 18,-28 -21,-9 -6,-3v-2l11,-18 -21,-8 -13,-7 -6,-3h-3l-16,-7M953,1364l5,30 2,10 1,5v2l1,5v12l12,-2h4l1,-2 21,-5h3h2h3l17,-1 1,1 1,5v2h3h3l28,-7 1,4 3,1h2l3,2 1,2 7,3 5,2 2,1 8,17 4,7 13,25h-10l5,19 7,39 -9,-4M999,1499l-193,-71M764,1404l42,24 -35,99 -29,-10 -28,-8 50,-105 89,-74M716,2150l41,-60 20,6 20,9 21,48M567,2226l97,27M659,2001l119,44 -1,51M825,1551l134,58 40,-110 104,38 -4,24 27,28 -3,18 -38,17 -39,32 2,44 -13,34 -40,16 -57,-40 -23,5 -12,5 -119,-59 41,-110 -54,-24M1144,1750l-206,34 -23,-69M590,1323l50,26 -28,17 -49,78 -35,30M655,1607l-18,-111 15,-8 62,21M742,1517l-36,117M1012,2174l-31,4 -23,-33M1258,3006l-7,17 94,21 16,-46h65l-6,78 -5,2 -53,-2h-27l10,-32M327,2808l15,127 -61,6M342,2935l47,-7 -5,28 -56,9 9,58M422,3123l-1,-14 -8,-38 27,-7 72,5 -1,27 53,2 1,16 1,4 2,10M577,3197l-137,-5 -18,-69 146,5 1,6 1,7 2,17 2,16v2l2,6 1,15 4,25 1,4 1,8 1,3 8,55 28,4M592,3292l-109,-3 -36,-2 -3,-21M438,3221l2,-29M483,3289l11,98M377,3382l-13,-91M361,3119l60,-10M384,2956l23,2 -2,37 -2,49 -36,-1v18M150,2817h1h2h2h2l11,1v15v15l15,2h6h2l11,3h3h2h3l3,2h4h7v-5l-1,-4v-1l-1,-5v-4l-2,-13h2h4l9,2h10l17,-8 14,-2 8,-2h5h1l3,-1h7h6l6,-2h6l6,-2h3h2l4,-1 33,-5M404,2856l-15,72M818,2848h-1l-70,20 -43,12 -15,-32 -1,-5 -29,-61 -4,-12 -4,-8 -24,6h-5l-47,15h-4l-5,2h-4l-18,7h-3l8,30 -6,14 -3,7 -5,18h3v4l-8,56M515,3001l-110,-6M403,3044l10,27M1709,3084l13,-20 64,14 6,-39 43,22 34,-7M1674,3186l4,-22M1476,1316h-132l-4,-123M1348,3269l-24,-5 -14,-52 -2,-8 67,-2 20,55M1136,2975l97,23 -22,110 -33,-7M1178,3239l-1,10 -11,33 -1,-1 -5,-7 -2,-2 -6,-8 -11,-13h-9h-18l-11,-2 -4,-32 -4,-20 -1,-3 -2,-13 -2,-12 -1,-3 -1,-7v-1l-4,-24 -1,-5v-3l-1,-2v-5v-1h-1l3,-4 4,-1 13,-2h3h3h2l7,-2h3l21,-3 3,-3h4h2h1l-1,-10 -1,-9v-3l-3,-13v-4l-7,-36 -2,-14M1286,2923l-28,83 -25,-8M1491,3159h-11l-6,-33 -4,-23 34,-25 14,1 5,75M1335,3076l-42,-7 4,59 -86,-20M1415,3078l-2,78 -8,2 -40,-2 -3,-80M1297,3128v10l11,66M1310,3212l-34,7 -83,10M1361,2998l18,-55 7,-22h47h1l24,-1h3h26h1v38l-1,23 4,17h-65M1487,2981l75,15 -2,33 45,30v2M1571,3074l22,-10 23,32 2,7 32,28 5,3 11,17 -6,12 -4,-5 -17,-10 -61,-5 -7,-69 -53,5M1504,3078h-8l-1,-12v-2l-4,-66M1779,2965l-32,-20 2,-7 -6,-10M1297,3138l68,18M1405,3158l-19,23h-1l-10,21M1420,3076l76,2M1480,3159l-32,2 -19,45 -43,-25M1089,3166l-11,-17 1,-10 -7,-46 -34,-45 -14,-83M661,3296l14,-52 -4,-23 8,-40 27,-5M729,3197l16,100M853,3201l27,-5 26,-24 -2,-63 30,-6 25,-4 11,60h-8l19,117 -46,8 -8,-40 -18,-3 -29,-45M848,3400l-12,-79 19,-2 -1,-27 46,-3 2,18 11,95M934,3103l-8,-40 112,-15M1079,3139l-109,20M750,3088l54,-9 9,47 6,32 24,24 10,19 -32,13 -6,-28 -86,11 -23,-21 18,-13 26,-75 -12,-24 -45,7 -6,-32 -8,-54 90,-9 21,30 14,73M652,2960l27,25M687,3039l-56,9 -7,-47M653,2893l51,-13M747,2868l22,108M926,3063l-20,-78 -3,-27M764,3292l66,-8 6,37M902,3307l33,-23M981,3276l2,15 29,26 -16,87M679,3181l-11,-85 -48,7 14,-22 -3,-33M1103,3249l5,32 -39,3 -4,-3 -16,-84 29,-48M1166,3282l-4,7v3v5l1,5M1099,3409l-1,-40 -29,-85M586,2908l-37,-86M620,3103l-55,11M1033,2351l48,31 50,30v2l-67,91M1065,3281l-70,-5 -8,10 -4,5M671,3221l-87,16M790,3006l116,-21M904,3109l-91,17M830,3284l-9,-70M526,2540l32,-3 56,135M656,2514l-98,23M1077,2514h1l2,1 25,19 3,1 6,5 3,2 18,13 5,4 11,6h2l23,19 25,20 2,1h1l1,2 12,8 3,2 6,5 4,3 44,34h1l2,3 3,2M1172,661l22,-20 10,-57M1278,523l8,138M1453,844l-131,5h-29l-5,-148 -102,8M677,2562l35,88 -72,15M769,2599l65,-34 14,44 47,78 -17,8 -53,20 -56,-116 -45,23 -4,-100M1272,1353h30v35h-15l-16,-2M1163,1544h1l23,-13 14,78h8l-3,17 -12,8 -11,8 -7,-8v-40l-6,-25 -7,-25M1184,1025l-22,58 -37,102h8l3,46 -31,-11 -9,-55 -8,-75M1187,752l3,102 1,53M1109,910l-27,-161M1293,849l-103,5M1287,1388l-20,53h-6h-2l-5,10 -3,8 -2,-40 19,-31M1133,1185l128,-5 3,138 -22,-13 -103,3 -3,-77M993,1185l103,-20M1139,1308l-50,-2 -76,14 -3,-20M1199,982l124,-5 99,-3M1373,1078l-211,5M1261,1180l78,-2M1344,1316l-29,2h-38M1128,1478l-15,-19 40,-60M1149,1378l8,-4 7,37 10,47 -7,10 -14,-69 -4,-21 -47,25 -13,-97M1322,849l1,128M1251,1459l-5,17 -20,55 -15,45 2,1 -2,15 -2,17M1187,1531l11,-42 26,-45 -36,-5 -14,19M1113,1459l-26,-51 15,-5M1163,1544v-3l-15,-10M1344,534l-33,-6M1302,1353l13,-35M1479,1388h-31v5v6l2,20v12v15l-23,2h-4l-23,3 -38,-3 -25,-2 -17,-2 -26,-1 -27,-2M1167,1468l-19,63 -11,-9 -7,-34 -2,-10 -10,3 -8,2M1498,1845h-52l-3,-48h-29l2,50h-18l-9,-50h-26l-15,-78 -7,-40 -3,-25 75,2 69,-2 8,8M1512,2153l-29,7 -109,-87 45,-65 84,7M1236,2038l33,-50 50,-21 5,-2 1,2h1l36,51 30,7 9,-27 18,10M1483,2160l-43,54 -54,-41 -62,-13h-1l-55,-117M1500,1907l-82,28 -10,-18 -10,-70M1580,3151l-2,-8M1276,3219l6,33 -45,80M1302,2928l77,15M563,1444l72,39 2,13M876,2030h-49l-23,-27 25,-66M826,1903l3,-1 34,30 17,-7 97,-13 9,48v2l3,21 4,28M385,2043l118,37M380,2279l46,-93 -134,-45M77,3106h1l148,12M784,1661l-21,3M764,1404l-62,-25 -62,-30M778,2045l26,-42M659,2001l75,-103 -122,-33v-7M702,1379l-67,104M820,1840l33,15 50,-135M938,1784l36,104 3,19v5M1112,1541l16,8 9,13 4,19 3,11 2,7v18l-5,9 7,20 2,6 24,12 -26,46 -8,14v1l1,2v2l2,13 1,8 1,2 1,5v3l2,17 1,7 4,28 6,40 1,8h-4h-3l-29,5 -6,2h-4l-42,8h-5l-18,3 -15,2 -11,2 -11,1 -29,4 -9,1M1140,1724l40,-4h144l24,-1M1363,1797l-26,2 -40,48 -135,23 -2,-10M1174,1664h25l-5,-30M1213,1577l88,-3 42,15 57,3 2,60 11,4M1341,1679l-16,1 -1,40M1324,1965l72,-32 22,2M1400,1451v141M1531,2334h-1l-5,5 -23,32 -5,6 -14,20 -1,2 -2,2 -7,8v-3l-3,-10v-5l-1,-4v-1l-2,-4 -6,-33 -25,-130 4,-5M1319,1967l-22,-120M1162,1870l28,158M1323,2160l-60,83 -30,33M1269,2675l4,-3 3,-5 4,-3 6,-9 11,-15 14,-18 2,-5 30,-37 6,-8 -21,-133 -1,-2 -4,-35 -2,-15 -2,-10v-5l10,-15 9,-10v-1l7,-9 -10,-6 -7,-5 -4,-3 -1,-2 -11,-8h-1l-4,8 -5,2 -45,-25 -24,-22 -14,-13 -15,-14 -17,-13 -1,-2 -1,-1 -1,-2 -1,-2 -3,-1M1648,2712l-44,25 -39,-39 27,-41M1666,2770l-47,-15 -15,-18M1510,2540l-4,7 -89,-63 56,-75M1145,2627l31,-43 60,-92 113,80 66,-85 2,-3M1506,2547l-76,97M193,2594l52,1 -4,19M256,2693l-16,4 12,66 -68,14 8,45 -24,-4M469,2427h-30l-66,-25M1666,2865l-24,-4h-2l-3,-3 -2,-2 -3,-3h-1l-96,-105 8,-11 22,-39M1448,2657l95,80M1535,2748l-34,57 -26,43M1433,2921l2,-5 5,-10 5,-6 30,-52 -24,-20h-3l-2,-5 -10,-6 -49,-40 -1,-2 -1,-2h-1l-2,-3 -2,-2 -5,-3M1640,2861l-14,4 2,45 -12,11 -14,-3h-1l-2,-2 -7,-3 -8,-2h-4l-13,-1h-2h-3l-27,3 -1,3 -9,2h-2l-4,2h-1l18,-103 95,38 4,1M1415,2487l-22,-108 5,-7 4,7 4,-7 5,7 2,-8 9,1 12,-20 4,5 10,-1 5,-7h8M1536,2817l-35,-12M1518,2920h-1h-4h-25M1345,2337l8,-9v-2l6,-7 10,-13 3,-3 1,-2 4,-5v-2l1,2 2,10 3,13 1,9 2,8v5l1,15 3,15 3,8M1436,2219l-59,75M205,2477l116,7 133,38 -1,83 -36,25 -94,-30 -2,-116 2,-68 23,6 15,-25M262,2817l-10,-54M1488,2958l94,-2 -20,40M1004,2051l186,-23 46,10 32,5 -77,107 24,16 -35,62 -3,-4 26,153 -72,37M1081,2382l-8,-40 18,-38 8,-45 -20,-20M1236,2492l15,-18 -33,-25 -15,-72M1353,2813l27,-45M1702,2895l-37,23 6,27M1611,2925l28,18 32,2 7,53 3,15 -8,8 -50,-5 9,-28 -39,-37 -7,-3 25,-23 5,-4M1605,3059l18,-43M1673,3021l4,17 38,23 7,3M1451,3237l-30,-20 8,-11M1586,2948l-4,8M1678,2998l25,6 44,-59M562,2785l-11,-17 -4,-5 -4,-5 -12,-21v-4l-4,-33h-17M990,2451l3,1 3,2 3,3h1l1,2 4,3 7,5 5,4 2,1 12,9 1,1 11,7 2,2 19,14M419,1913l131,45 109,43 -23,125 -116,-40 30,-128M978,2143l-19,2M1012,2120l1,18M1011,2116v2M1004,2051l5,45M1009,2096l1,10M1010,2106l1,10M1011,2118l1,2M1013,2138l-21,3M992,2141l-14,2M959,2145h-1"/>
  <g class="cities">
    <circle r="3" cx="107.8" cy="303.2"/>
    <text x="107.8" y="303.2">Manchester</text>
    <circle r="3" cx="106.7" cy="332.6"/>
    <text x="106.7" y="332.6">Nashua</text>
    <circle r="3" cx="100.0" cy="276.2"/>
    <text x="100.0" y="276.2">Concord</text>
  </g>
</svg>