<?xml version="1.0" encoding="utf-8"?>
<!DOCTYPE svg PUBLIC "-//W3C//DTD SVG 1.1//EN" "http://www.w3.org/Graphics/SVG/1.1/DTD/svg11.dtd">
<svg version="1.1" xmlns="http://www.w3.org/2000/svg" width="182" height="350" viewBox="0 0 182 350">
  <path class="state" transform="scale(0.1)" d="M1605,2916l-23,40 46,-8 8,-78 39,5 42,28 52,62 -35,53 -20,55 -20,25 -17,55 -11,-20 -7,34 17,-4 -3,21h-3h-1l-3,3 -3,2h-1l-2,2h-1l-5,3 -10,5h-2l-12,-10h-1h-1l-2,-2 -1,-3h-2l-4,-3 -8,-7h-1l-2,-2 -12,-5h-2h-2h-7h-3h-5h-4l-5,2h-1l-5,5h-2l-11,7 -5,3 -4,3 -3,2 -3,2 -3,1h-6l-4,2h-1l-5,2h-3h-1h-1l-6,1 -6,2h-10l-7,2 -6,3 -5,3 -4,5 -5,4 -2,6 -3,5 -5,14 -3,10 -2,8 -1,3 -3,10 -2,-1 -4,-2 -10,-2 -3,-3 -5,-2 -10,-1h-2l-4,-2 -7,-2h-3l-13,-5 -10,5 -5,2 -4,3 -12,7 -2,2 -14,16 -3,4v1v17l2,13v2l1,15v1l2,20 -6,-3h-5l-4,-2 -8,-1 -1,-2h-2h-1l-8,-2 -5,-1h-2l-6,1 -12,4 -3,1 -3,2 -4,5 -3,2 -6,8 -2,2 -7,13 -3,7 -9,10 -6,8h-17h-4h-12h-14l-1,-2h-17h-1h-3h-2h-4h-11h-2l-16,-1h-13h-3h-9h-1h-6h-1h-6h-1h-1h-8h-1l-5,-4h-3h-9h-10h-7h-3h-5l-10,-1h-6h-16h-2h-2h-6h-3h-15h-17h-25h-2h-5h-1h-5l-4,-2h-1h-1h-3h-6h-1h-7h-13h-7h-1l-12,-2h-11h-27l-18,-1h-3h-2h-15h-3h-13l-6,-2h-6h-7h-6h-11l-25,-2h-23l-10,-1h-11h-1h-12h-11l-6,-2h-7h-13h-5h-16h-2l-3,-3h-12h-1h-7h-7h-3h-3h-3h-3h-12h-8h-3h-8h-3l-4,-2h-17h-3h-3h-1h-3l-20,-2h-13h-1l-26,-1h-17h-3h-2l-13,-2h-12h-6l-19,-2h-4h-6h-6h-3h-12l-7,-1h-14h-6l-13,-2h-18l-20,-3h-16h-10l-15,-2h-6h-1h-2h-1h-10h-9h-15h-3h-2l-3,-2h-10h-1l-19,-46 -28,-20 -25,-28 -17,-69 3,-40 26,-38 -7,-50 56,-21 22,-35 -15,-63 30,-42v-50l-6,-20h-1l-11,-17 1,-1 3,-13 14,-57 2,-65 25,-30 13,-41 -13,-20 18,-37 -22,-8 10,-34 12,-83 7,-25 3,-15 -4,-16h-1l-11,-17 17,-33v-32h1v-1l46,-44v-1l-3,-17 29,-68 3,-45 23,-28 41,-29 24,-30v-1l16,-37 6,-41 -4,-30 1,-4 15,-15v-16l47,-45v-15v-5l16,-25 2,-3 4,-7 -17,-10 4,-37h1v-1h1h1l1,-4h1h-1v-1v-2l-1,-2v-3v-2v-1h1l1,-2h3h1l4,-3 -1,-2 1,-3 1,-2v-2l12,4v-2v-2v-1v-2v-3h1h1h1l2,-2 1,-2v-1l-1,-4 -3,-5v-3l1,-2 3,-1 1,-4 6,-1 5,-2 -1,-2 -1,-3h-3h-1v-2l1,-1 9,-2h1l3,-10 2,-1 17,-15h1l-9,-9h-1l-2,-1 6,-2 2,-2 5,-11 -1,-4 -8,-3 -4,8h-2h-1h-2h-1l-2,-3v-2v-3l-1,-2v-1v-2v-3h-1v-2l1,-2v-3v-3v-2h1v-3h1v3l2,-3 2,-2h1h1h1l1,-2h2h2h1l1,-1v-4h1v-1h1l1,-2v-2h-3l-1,-1 -2,-2v-2h-1v-5v-1v-2v-2v-3l-1,-2v-1v-2v-2l1,-1 1,-2v-2l-3,-3 1,-3h-5l-1,-5 -4,-4 -1,-5v-1l-1,-4 -3,-10 -5,-5 -2,-3v-3l2,-7 2,-1 3,-4 1,-3v-2v-3l-3,-2 3,-3h1h1l3,-8 -2,-7 2,-7 2,-6 3,-7 -1,-2 -1,-5 -5,-5v-3l-4,-8 -2,-5v-4l2,-1 1,1v-3l-1,-3h-7v-9l7,-10 1,-3 3,-2v-1l1,-2h1l5,-2h1l1,-3h1l1,-2h3h1l6,-13 1,-8v-2l-1,-2v-3l-1,-2h1v-1h1h15h1l3,-2 8,-3h1v-2l7,-2 1,-3 3,-1h1h1l1,-7h1l3,-2 7,2h12l6,-2 16,4 14,-12 2,-2 12,-3 13,5h3l17,10 1,-2h2v-1h2h1l1,-2h8h1l1,-3 2,-2h2h3l3,-2 1,-1 2,-2 2,-2h1l2,-1h2h2l1,-2h1l6,-3 3,-2h2v-2v-1l-2,-5 -1,-2v-2l-1,-3v-2h2h1l1,-1v-2v-2l-2,-1h-1v-4l1,-1v-4v-1h1l10,-2h2v-2v-1l-3,-5v-2l1,-2 2,-1 1,-2 2,-2 1,-1 1,-2h2l26,-8 13,5h7h1l2,-7 7,-3h12l20,-10 1,-2 2,-2 3,-1 4,-4v-1l4,-4 2,-6 29,-47 10,-8 1,2 1,1 19,-13 11,-2 3,-6 9,-10v-2l9,-5v-2l-3,-1 -11,-20h5l5,-30 -9,-24 30,-3 8,-10 9,-18v-2l-7,-3v-5l-6,-2 1,-3 -3,-22 2,-10 1,2 2,2 3,1 -2,-8v-3l-12,-10 3,-7 -7,-13h-9v-4l-9,-8h2v-2l-3,-6 -6,-15 -2,-9v-3l-4,-12 -15,-28v-3l-2,-5 -5,-8v-2l-1,-7 -5,-10 52,-55v-35h1v-1l16,-32v-2l6,-19 1,-2 2,-2 22,-20 3,-5 6,-8 9,-30 -12,-15 -1,-2 -1,-10h-1l-3,-1v-2l2,-15 3,-8 -2,-10 -3,-2 -1,-2 -9,-13 -3,-3h-1l-1,-10 1,-5v-3l28,-19 21,9 -16,-14h-1v-1l1,-10 6,-15v-2l-5,-27 2,-15 8,-8 7,-10 10,-2 1,-1 32,-48 4,-5v-5v-2l-8,-13 1,-4 10,-20v-10l22,-51 -2,-5 -13,-9 -20,-18 -3,-3 15,3 38,-3 13,-13 9,-9 -3,-16 21,-9 28,-21 13,-14h7l46,57 15,3h9l14,4 53,1 20,-38 5,-23 12,-12h4l3,13 3,39 1,8 4,85 1,6 3,42 1,17 1,20 1,1 7,143 7,92 1,8 1,18 1,27 2,18v9l1,3 4,56 2,24v18l2,25v13l2,20 3,53 5,82 3,70v8v37l1,5v3v7v1l4,64 1,5v5v6v14l2,11v13l1,14v8v2v5v1l2,24 1,6v2v10v2v5v1v2v10v5l1,3 1,17v12v1l1,5v4l1,23 1,28 1,10v12l1,20 1,20 1,30 3,68 3,86v4v1v17v7v1l2,20 1,35 2,5v2v5v5v5v1v4l1,8v5v7l1,31 2,29 1,20v6v28l1,24 1,28v3v10l1,7v2v3l1,10 1,48v13v9v3l1,3v15l2,14 1,11v7v5l2,15 1,8v12v7v1v2v2v3v2v5v1l1,12 1,10 3,40 1,13v5l1,7v6v2v2v3l1,5v2v3v7v3l1,10v3v2v3l1,5v5v5v2v2l1,5v5l4,1h2l1,4 3,5h4v1l1,2 2,8 -3,15h-2h-2l4,15v5v2h1v1h2v2v2v1v4l-1,1v5l1,2 -3,3 -1,10 -6,5v2v2l-1,3 -2,8v2v2v1l-2,2h-1h-1h-2v2l3,3h1l1,2h4l4,5 2,3 -3,10 -3,30h-1h-2v2v3v3l-3,7 -1,2 -2,1h-3h-1l-5,23 1,4 1,1h1l-4,10 1,12v2l2,3h1l7,17 -2,8 5,5v5h5v3l-3,2v2l5,3h1l4,3 1,2 1,5 1,2h2h1h1v-2h2l3,-2h1l1,2 5,-2 3,-1h1h1l1,1h1v2h-1v-2l-1,2h1l1,3v2v2l7,3 -1,2 1,3h2l3,-3v3l1,2 5,6 1,2h-1h-1h-1h-1l4,10h1l3,3h1v-1h1h2v1l1,2v2h2l3,5 -1,1h-1h-2h-4v2l-2,2v1l12,10 3,2 3,2 2,1h1v5l2,5 1,2h3h4l1,1v2l3,2 2,3h2l5,5v2l1,3 2,2h3h1h6h1h2l1,1 3,5v4v5v1h1h5l14,5v2v2h1l1,1v4l2,1 1,2 1,3 1,2v2l-1,3 -1,2v1v2h-1l-3,3v4l1,1 -1,2 -3,13v7l-1,2 -3,3h-2v7l-1,33 -4,11 -1,4 2,5 -39,25 2,35 -14,16"/>
  <g class="subcounties" transform="scale(0.1)">
    <path data-geo-id="3301384900" data-name="Wilmot" d="M595,2409l-16,23 66,42 -12,23 23,17 21,48 27,-32 -35,-76 30,-13 -12,-25 -18,20 -33,-89 -4,5 -30,44 -2,5 -2,3 -2,2Z"/>
    <path data-geo-id="3301380020" data-name="Webster" d="M769,2600l56,113 53,-18 17,-8 -47,-80 -14,-40Z"/>
    <path data-geo-id="3301327380" data-name="Franklin" d="M858,2366l-39,20 24,35 11,41 -4,48 26,37 21,-10 22,-28 4,-48v-2l-1,-2 -6,-15 3,-1 -2,-4v-3l-2,-5h4l-4,-10v-3l-9,-15v-2l-14,5v-3l-7,-7 -11,-3 -16,-22Z"/>
    <path data-geo-id="3301360020" data-name="Pembroke" d="M1075,2708l-38,62 2,53 28,40 49,-27 18,-33 -22,-5 12,-28 -55,-42 12,-15Z"/>
    <path data-geo-id="3301319460" data-name="Dunbarton" d="M879,2831l2,14 5,21v2l2,12 1,5 14,73 9,-2 7,-1 41,-7h2l18,-3 10,-2 28,-5 6,-8 -62,-44v-28l-47,-36Z"/>
    <path data-geo-id="3301300660" data-name="Allenstown" d="M1066,2868l103,28 1,-3 17,-35 4,-7 2,-3 1,-2v-1l1,-2 1,-5 2,-2 2,-6 4,-12 -70,-15 -18,33 -49,27Z"/>
    <path data-geo-id="3301306500" data-name="Bow" d="M939,2817l-24,5 47,36v28l62,44 42,-62 1,-5 -28,-40 -27,-23 -64,33Z"/>
    <path data-geo-id="3301306260" data-name="Boscawen" d="M834,2567l14,40 47,80 57,-27 -4,-35h-16l-33,-61 -2,-27 -21,10Z"/>
    <path data-geo-id="3300768500" data-name="Second College" d="M1440,636l-1,-3v-9l-2,-18 -1,-27 -1,-18 -1,-8 -4,-44 -82,5 -4,20 -20,124 117,-7Z"/>
    <path data-geo-id="3300773060" data-name="Stark" d="M1042,932l7,7 4,136 28,20 7,-5 9,-15 87,-50 15,-43 -8,-75 -82,3 2,12Z"/>
    <path data-geo-id="3300774500" data-name="Success" d="M1470,1190l-1,-14v-13l-2,-11v-14v-6v-5l-1,-5 -4,-64v-1v-7v-3l-1,-5v-37v-8l-1,-25 -38,2 -49,103 -34,101 1,15Z"/>
    <path data-geo-id="3300780740" data-name="Wentworth" d="M1286,661l2,38 156,-7 -3,-41 -117,7Z"/>
    <path data-geo-id="3300784420" data-name="Whitefield" d="M863,1323l6,3 12,4 6,4 4,2 3,2 4,1 8,4 5,1 14,7 16,8 12,5 -9,-54 66,-12 -17,-113 -78,45 20,28Z"/>
    <path data-geo-id="3301312420" data-name="Chichester" d="M1081,2713l-12,15 55,42 40,-88 24,-23 -43,-32Z"/>
    <path data-geo-id="3301324900" data-name="Epsom" d="M1124,2770l-12,28 22,5 70,15 3,2 1,-5 19,-43 2,-4 6,-13 1,-2v-1l2,-4v-3h1v-2l3,-5 1,-1 6,-15 2,-5v-4l4,-5v-1l1,-2 -92,-23Z"/>
    <path data-geo-id="3301306980" data-name="Bradford" d="M510,2698h17l4,35v4l1,5 11,16 8,12 11,17 4,-2 5,-2h4l47,-13 5,-2 24,-8 29,-5 -40,-90 -26,7Z"/>
    <path data-geo-id="3301337540" data-name="Hopkinton" d="M766,2730l52,118h1l17,-3 6,-2 3,-3 4,-2 14,-2 5,-1h1l7,-2 3,-2 36,-9 24,-5 -61,-122 -53,18Z"/>
    <path data-geo-id="3301335540" data-name="Henniker" d="M651,2760v2l4,10 4,10 26,54 2,2v2l1,3 1,5v2l10,18 2,3 3,9 9,-4 10,-1 12,-5h3l9,-2 9,-3h4l11,-4h1l45,-11 1,-2 -52,-118 -86,25Z"/>
    <path data-geo-id="3301309860" data-name="Canterbury" d="M899,2564l33,61h16l4,35 55,-28 5,7 64,-90 1,-35 -3,-2 -10,-7 -16,2Z"/>
    <path data-geo-id="3301962340" data-name="Plainfield" d="M268,2259l-46,44v1h-1v32l-13,27 109,9 13,-16 33,16 -2,25 12,5 23,-33 1,-46 17,-29 -13,-6 -2,-2h-1h-2l-5,-2 -4,-1 -3,-2 -4,-2h-1h-2l-10,-3 -40,-7h-4l-42,-8 -9,-2h-2Z"/>
    <path data-geo-id="3301941700" data-name="Lempster" d="M349,2680l17,122h6l10,-2 15,-2 5,-1 6,-4h2h4l11,-1 26,-4 5,-81h-25l-9,-42Z"/>
    <path data-geo-id="3301952580" data-name="Newport" d="M321,2484l2,118 94,30 36,-28 1,-82Z"/>
    <path data-geo-id="3301975060" data-name="Sunapee" d="M454,2522l-1,82 45,-10 3,-4v-3l1,-2h1l3,-8 7,-10 2,-5 8,-15h1l1,-5 1,-2v-5v-1v-2v-5v-2l1,-16 1,-4v-3l-1,-2 -9,-13v-3l1,-5 3,-13v-2l-57,-8Z"/>
    <path data-geo-id="3301972740" data-name="Springfield" d="M469,2427l-4,29 57,8h8l20,3h1h3l1,2 7,-2 1,-1 1,-2 1,-3 2,-5 2,-7 2,-3 1,-2v-2l7,-10 16,-23 1,-3 2,-2 2,-3 2,-5 30,-44 -12,-1 -11,-2 -10,-3 -22,-4h-1h-3l-8,-1 -43,-7h-5l-9,-13 -19,30 -18,28 16,5Z"/>
    <path data-geo-id="3301978980" data-name="Washington" d="M408,2838l-4,17 15,3h2h15l18,2h1h25h5h6h1l6,1h2h35l3,-8v-2l2,-8 3,-7 6,-14 -11,-25 -1,-4 -1,-1h5h3l18,-5 -11,-17 -8,-12 -11,-16 -1,-5v-4l-4,-35h-17l-54,9 -5,81 -26,4 -15,41 -2,2Z"/>
    <path data-geo-id="3301977940" data-name="Unity" d="M241,2614l-5,41 20,38 93,-13 73,-15 -5,-33 -94,-30 -65,-2Z"/>
    <path data-geo-id="3300934820" data-name="Haverhill" d="M539,1554l-1,2 -1,1v2v2v1l1,2v3v2v2v1v5h1v2l2,2 1,1h3v2l-1,2h-1v1h-1v4l-1,1h-1h-2h-2l-1,2h-1h-1h-1l-2,2 -2,3v-3h-1v3h-1v2v3v3l-1,2v2h1v3v2v1l1,2v3v2l2,3h1h2h1h2l4,-8 8,3 1,4 -5,11 -2,2 -6,2 2,1h1l9,9h-1l-17,15 -2,1 -3,10h-1l-9,2 -1,1v2h1h3l1,3 1,2 -5,2 -6,1 -1,4 -3,1 -1,2v3l3,5 1,4v1l-1,2 -2,2h-1l55,30 -3,-20 54,28 46,-145 -115,-53Z"/>
    <path data-geo-id="3300941860" data-name="Lincoln" d="M825,1549l-41,110 119,63 12,-8 20,-9 60,45 40,-16 13,-34 -2,-44 39,-32 38,-17 3,-20 -27,-26 4,-24 -104,-36 -40,108Z"/>
    <path data-geo-id="3301533460" data-name="Hampton Falls" d="M1662,3152l1,-4 -70,-84 -22,10 7,69 47,3Z"/>
    <path data-geo-id="3301543220" data-name="Londonderry" d="M1081,3114v2v2l1,1v2v2l1,3v3l1,5 4,24 1,9h1l2,14 2,13 1,5 4,17 3,26 1,5 11,4h7h1h10h9l11,11 6,10 2,2 5,5 1,3 12,-43 15,-10 -15,-128 -29,-10 1,13h-1h-2h-4l-3,2 -21,3h-3l-7,2h-2h-2h-1h-3h-1l-8,2h-4l-4,1h-2Z"/>
    <path data-geo-id="3301571140" data-name="South Hampton" d="M1504,3197l6,-1h1h1h3l5,-2h1l4,-2h6l3,-1 3,-2 3,-2 4,-3 5,-3 11,-7h2l5,-5h1l5,-2h4h5l-2,-14h-57l-32,6Z"/>
    <path data-geo-id="3301301460" data-name="Andover" d="M699,2441l-30,13 35,76 16,-8 134,-60 -11,-41 -24,-35 -78,35Z"/>
    <path data-geo-id="3301533060" data-name="Hampton" d="M1663,3148l3,-15 11,20 17,-55 11,-14 -100,-25 -12,5Z"/>
    <path data-geo-id="3300147140" data-name="Meredith" d="M1012,2176l-110,108 123,39 -23,-59 21,-5 40,-35 16,15 33,-1 29,-25 36,11 -3,-3 -25,-25 -11,-8 -8,-9 -18,-18 -4,-3 -2,-2 -2,-1 -1,-2 -7,-7 -3,-3 -2,-2 -2,-1 -36,-4Z"/>
    <path data-geo-id="3300167300" data-name="Sanbornton" d="M844,2341l6,3 5,5 5,3h1l1,2v2l-1,1v2l-1,2v1l-2,4v3l16,22 11,3 7,7v3l14,-5v2l9,15v3l4,10 106,-42 8,-36 -8,-28 -123,-39Z"/>
    <path data-geo-id="3300177060" data-name="Tilton" d="M915,2429l2,5v3l2,4 -3,1 6,15 1,2v2h2h1l1,1h1v2v2h1l2,1h1l3,-1 6,6 3,-3h2v-2v-1v-2l1,-2h1h1h1l1,2h2v-2h2v-1h1h2h1h1h1l1,-2 2,-2 2,-1 3,-5h1h2h2l1,1 1,-1 1,-2v-2l2,-1h1h1v1l5,2h2l2,2 35,-64 -106,42Z"/>
    <path data-geo-id="3301773860" data-name="Strafford" d="M1273,2672l-4,5 17,15 16,11 3,4 8,6 10,9 15,11 20,19h2l8,8 7,5 73,-108 -18,-13 -81,-72 -6,8 -20,25 -3,4 -7,8 -2,5 -9,10 -5,7 -11,16h-1l-5,9 -4,1Z"/>
    <path data-geo-id="3301314200" data-name="Concord" d="M895,2687l-17,8 61,122 9,16 64,-33 27,23 -2,-53 38,-62 -40,-28 -23,-41 -5,-7 -55,28Z"/>
    <path data-geo-id="3301335860" data-name="Hill" d="M740,2332l-8,35 9,54 78,-35 39,-20 2,-4v-1l1,-2v-2l1,-1v-2l-1,-2h-1l-5,-3 -5,-5 -6,-3h-1l-3,-5v-2l-17,-25h1v-1l-2,-2 -5,-5h-2l-15,3 -1,2h-2l-1,-2 -3,-1 -5,6 -3,4 -8,8 -2,-7 -2,-1 -18,6 -7,4Z"/>
    <path data-geo-id="3301337300" data-name="Hooksett" d="M1018,2938v2l1,5 1,1v2l4,17 16,-4h6l1,2 1,2h1v3v2v1l1,2v2h2l1,1h1l2,2h1l1,2h1h1l17,-10v1l1,5v2l1,2v1l1,7 3,13h1l4,2h2h3h2l4,1h2l1,2 29,5 2,2h3l-1,-2 -8,-30v-1l-1,-2 -1,-3 -1,-2 5,2 1,1 6,-1 13,-32 2,-3 2,-4v-3l2,-2 14,-35 -103,-28 -42,62Z"/>
    <path data-geo-id="3301354260" data-name="Northfield" d="M897,2537l2,27 149,-57 16,-2 -10,-8 -6,-5 -3,-1 -2,-2 -8,-5 -3,-2 -1,-1 -12,-9 -2,-1 -5,-4 -7,-5 -5,-5h-1l-3,-3 -3,-2 -3,-1 -2,-2h-2l-5,-2v-1h-1h-1l-2,1v2l-1,2 -1,1 -1,-1h-2h-2h-1l-3,5 -2,1 -2,2 -1,2h-1h-1h-1h-2h-1v1h-2v2h-2l-1,-2h-1h-1h-1l-1,2v2v1v2h-2l-3,3 -6,-6 -3,1h-1l-2,-1h-1v-2v-2h-1l-1,-1h-1h-2l-4,48Z"/>
    <path data-geo-id="3301316980" data-name="Danbury" d="M636,2347l33,89 18,-20 12,25 42,-20 -9,-54 8,-35 -2,-4 -6,-20 -8,-24 -4,-13 -3,-7 -19,-1h-1l-2,3 -11,13 -4,4 -1,1v2l-7,8 -13,19v1l-10,15 -5,7 -5,6Z"/>
    <path data-geo-id="3300575700" data-name="Swanzey" d="M245,3138l-40,78 36,3 6,43 20,7 30,-12 48,4 16,-37 -1,-30 -9,-51Z"/>
    <path data-geo-id="3300539300" data-name="Keene" d="M230,3053l-17,5 13,60 19,20 106,5 10,-22 -19,-23 25,-39 -28,-10 -2,-25 -43,12Z"/>
    <path data-geo-id="3300585540" data-name="Winchester" d="M144,3370h6l3,2h2h3h15h9h10h1h2h1h6l15,2h10h16l20,3 -12,-91 16,-17 -20,-7 -6,-43 -36,-3 -82,-7Z"/>
    <path data-geo-id="3300577380" data-name="Troy" d="M345,3261l19,30 21,1 26,-28h33l-6,-43 -48,-2 -30,-25 1,30Z"/>
    <path data-geo-id="3300536660" data-name="Hinsdale" d="M50,3201v2l17,73 25,28 19,10 2,5 7,5 19,46h1h4l-21,-161Z"/>
    <path data-geo-id="3300578420" data-name="Walpole" d="M151,2817l-3,13 -1,1 11,17h1l6,20v48v2l-30,42 9,36 90,8 1,-59 -11,-90h-11l-3,-2h-3h-2h-3l-11,-2h-2h-6l-15,-1v-17v-13l-11,-2h-2h-2Z"/>
    <path data-geo-id="3300575300" data-name="Surry" d="M234,3004l-4,49 64,-17 -13,-95 -46,4Z"/>
    <path data-geo-id="3301101700" data-name="Antrim" d="M515,3003l-1,16 110,-18 28,-40 1,-68 -67,15 -56,13 -1,5v2l-5,28 -1,4 -3,11v7l-2,10 -1,5 -2,8Z"/>
    <path data-geo-id="3301144580" data-name="Lyndeborough" d="M750,3089l-26,74 -18,13 23,21 86,-13 6,32 32,-17 -13,-35 -21,-6 -6,-32 -9,-47Z"/>
    <path data-geo-id="3301131940" data-name="Greenville" d="M735,3299l12,75 28,-2 -11,-78 -19,2Z"/>
    <path data-geo-id="3301151940" data-name="New Ipswich" d="M634,3392l6,2h11h12h1h11l10,1h23l25,2h11h6l-3,-23 -12,-75 -74,-5h-41l2,15 3,15 1,10 3,21v2l4,23 1,7Z"/>
    <path data-geo-id="3300907700" data-name="Bristol" d="M764,2183l38,106 -9,14 3,1 1,2h2l1,-2 15,-3h2l5,5 2,2v1l2,-3h1l-1,-5 1,-2v-1l7,-7 -13,-17v-1l3,-5h1h5h2l11,-5 2,5 27,-7 11,-5 -1,-10v-2l13,-10 -3,-5 -3,-5v-1l2,-4 -17,10 -28,-23 -31,13 -23,-31 14,-9v-1l-11,-12Z"/>
    <path data-geo-id="3300961060" data-name="Piermont" d="M479,1745l-1,4h-1h-1v1h-1l-4,37 17,10 -4,7v1l117,53h11l-3,-106 -54,-28 3,20 -55,-30h-1h-1v3v2v1v2v2l-12,-4v2l-1,2 -1,3 1,2 -4,3h-1h-3l-1,2h-1v1v2v3l1,2v2Z"/>
    <path data-geo-id="3300974740" data-name="Sugar Hill" d="M764,1406l-50,103 28,8 29,10 35,-98Z"/>
    <path data-geo-id="3300907540" data-name="Bridgewater" d="M806,2179l-14,9 23,31 31,-13 28,23 17,-10 2,-6v-4l1,-5 -1,-3 -2,-8v-9l2,-5 1,-19 4,-7 -11,-40 -69,40 -23,13 11,12Z"/>
    <path data-geo-id="3300900580" data-name="Alexandria" d="M679,2140l-24,54 17,40 -8,19 34,10 19,1 3,7 4,13 8,24 6,20 2,4 8,-9 7,-4 18,-6 2,1 2,7 8,-8 3,-4 5,-6 9,-14 -38,-106 -56,-20 8,-13Z"/>
    <path data-geo-id="3300713220" data-name="Clarksville" d="M1041,475l180,36 57,12 33,5 13,-70 2,-18 -120,-24 2,12 -71,-8 -32,-14 -31,22 -12,33 -15,14Z"/>
    <path data-geo-id="3300713940" data-name="Columbia" d="M990,649l-2,2 -1,2 -6,19v2l-16,32v1h-1v35l-4,5v5l-21,19 143,-22 76,-12 6,-33 8,-43 -161,-30Z"/>
    <path data-geo-id="3300716820" data-name="Dalton" d="M870,1200l-2,6 -4,4v1l-4,4 -3,1 -2,2 -1,2 -20,10h-12l-7,3 -2,7h-1h-7l-13,-5 1,1 7,12 2,3 8,12 5,12 8,6 2,5 23,34 5,10 2,-2 8,-5 72,-65 -20,-28 -29,-40Z"/>
    <path data-geo-id="3300711220" data-name="Chandlers" d="M1149,1376l4,23 14,69 7,-10 -10,-47 -7,-37Z"/>
    <path data-geo-id="3300902020" data-name="Ashland" d="M871,2075l16,38 11,40 2,-2h9l4,-1h6h2h4l4,-2 15,-2 9,-1h5l-3,-17 -52,-57Z"/>
    <path data-geo-id="3300756100" data-name="Northumberland" d="M975,939l12,10v3l2,8 -3,-1 -2,-2 -1,-2 -2,10 3,22 -1,3 6,2v5l7,3v2l-9,18 -8,10 -30,3 9,24 9,10 87,43 27,-15 -28,-20 -4,-136 -7,-7 -63,2Z"/>
    <path data-geo-id="3300761780" data-name="Pittsburg" d="M1427,458l-7,-140 -1,-1 -1,-20 -1,-17 -3,-42 -1,-6 -4,-85 -1,-8 -3,-39 -3,-13h-4l-12,12 -5,23 -21,43 -52,-6 -14,-4h-9l-15,-3 -46,-57h-7l-13,14 -28,21 -21,9 3,16 -9,9 -14,16h-37l-15,-3 3,3 20,18 13,9 2,5 -22,51v10l-10,20 -1,4 8,13v2v5l-4,5 -32,48 -1,1 -10,2 -7,10 -8,8 -2,15 5,27v2l-6,15 -1,10v1h1h31l12,-33 31,-22 32,14 71,8 -2,-12 120,24 -2,18Z"/>
    <path data-geo-id="3300773380" data-name="Stewartstown" d="M1023,468l-25,17v3l-1,5 1,10h1l3,3 9,13 1,2 3,2 2,10 -3,8 4,10 186,33 17,-73 -180,-36Z"/>
    <path data-geo-id="3300725180" data-name="Ervings" d="M1158,737l29,17 -1,-47 -22,-3Z"/>
    <path data-geo-id="3300776580" data-name="Thompson and Meserves" d="M1157,1374l7,37 104,-22 3,-3 1,-33 5,-35h-13Z"/>
    <path data-geo-id="3300923860" data-name="Ellsworth" d="M757,1815l-23,83 95,39 -3,-34 -6,-63Z"/>
    <path data-geo-id="3300905060" data-name="Benton" d="M655,1607l-46,145 128,20 26,-108 -57,-30Z"/>
    <path data-geo-id="3300918740" data-name="Dorchester" d="M550,1958l-30,128 116,40 23,-125Z"/>
    <path data-geo-id="3300908980" data-name="Canaan" d="M503,2080l-77,106 128,60 13,-20 54,-86 15,-14 -116,-40Z"/>
    <path data-geo-id="3300924340" data-name="Enfield" d="M380,2279l4,2 3,2 4,1 5,2h2h1l2,2 13,6 16,7 4,2h1l4,1 13,7 17,7 -7,19v2l6,3 21,9 19,-30 46,-75 -128,-60Z"/>
    <path data-geo-id="3300905460" data-name="Bethlehem" d="M853,1330l-89,76 42,23 193,72 104,36 9,4 -7,-40 -5,-17 10,-1 -13,-25 -4,-7 -8,-17 -2,-3h-5l-7,-3 -1,-2 -3,-3h-2h-3l-1,-2 -31,5h-3v-3l-1,-2v-2l-1,-1 -17,3h-3h-1h-1h-3l-21,2 -1,3h-4l-12,2v-12l-1,-3v-5l-1,-4v-1l-2,-9 -5,-30 -12,-5 -16,-8 -14,-7 -5,-1 -8,-4 -4,-1 -3,-2 -4,-2 -6,-4 -12,-4 -6,-3 -8,5Z"/>
    <path data-geo-id="3300935220" data-name="Hebron" d="M716,2150l-8,13 56,20 31,-17 23,-13 -21,-48 -20,-9 -20,-6Z"/>
    <path data-geo-id="3300930820" data-name="Grafton" d="M508,2321l9,13h5l43,7 8,1h3h1l22,4 10,3 11,2 12,1 4,-5 3,-5 5,-6 5,-7 10,-15v-1l13,-19 7,-8v-2l1,-1 4,-4 11,-13 2,-3h1l-34,-10 -97,-27 -13,20Z"/>
    <path data-geo-id="3300932180" data-name="Groton" d="M659,2001l-23,125 43,14 37,10 41,-60 20,6 1,-51Z"/>
    <path data-geo-id="3300927300" data-name="Franconia" d="M806,1429l-35,98 54,22 134,60 40,-108Z"/>
    <path data-geo-id="3300942820" data-name="Livermore" d="M915,1714l23,70 206,-34 -1,-8 -1,-7v-1l-1,-5v-2l-1,-3 2,-4 4,-6 2,-4 26,-46h-19l-4,-10 -1,-3 -9,-24 5,-8v-20l-2,-7 -3,-11 -4,-17 -9,-15 -16,-8 -9,-4 -4,24 27,26 -3,20 -38,17 -39,32 2,44 -13,34 -40,16 -60,-45Z"/>
    <path data-geo-id="3300948980" data-name="Monroe" d="M590,1323l-1,7h-1h-1l-3,1 -1,3 -7,2v2h-1l-8,3 -3,2h-1h-15h-1v1h-1l1,2v3l1,2v2l-1,8 -6,13h-1h-3l-1,2h-1l-1,3h-1l-5,2h-1l-1,2v1l-3,2 -1,3 -7,10v9h7l1,3v3l-1,-1 -2,1v4l2,5 4,8v3l5,5 1,5 1,2 -3,7 -2,6 -2,7 2,7v1l35,-30 49,-78 28,-17Z"/>
    <path data-geo-id="3300940660" data-name="Landaff" d="M637,1494l18,113 51,27 36,-117 -28,-8 -62,-23Z"/>
    <path data-geo-id="3300936900" data-name="Holderness" d="M878,2030l-15,23 8,22 32,-4 52,57 3,17h1l13,-2h6l14,-2 21,-3 -1,-15v-2v-1l-1,-2v-2l-1,-10 -1,-10 -3,-28 -1,-3 -1,-14 -2,-11 -2,-19v-5l-1,-5h-6Z"/>
    <path data-geo-id="3301930500" data-name="Goshen" d="M417,2632l5,33 9,42h25l54,-9 -2,-5 -4,-13 -3,-15 -12,-43 -1,-8 10,-19v-1l-45,10Z"/>
    <path data-geo-id="3300110660" data-name="Center Harbor" d="M959,2145h-1l23,33 31,-2 41,-40 36,4 -9,-9 -8,-8 -2,-2h-1l-1,-1 -2,-2 -4,-5 -2,-2 -1,-1 -1,-2h-2l-6,-7 -5,-6 -3,-2v-2l-2,-1 -2,-2 -3,-3 -2,-4h-2l-1,-1 -1,-2 -5,-7 -9,-8 -2,-2 -1,-1 -8,-9 1,14 1,3 3,28 1,10 1,10v2l1,2v1v2l1,15 -21,3 -14,2h-6Z"/>
    <path data-geo-id="3301517460" data-name="Deerfield" d="M1169,2896l117,27 16,5 22,-42 -16,-3 45,-70 -93,-21 -3,-37 -19,-10v3l-2,4v1l-1,2 -6,13 -2,4 -19,43 -1,5 -3,-2 -4,12 -2,6 -2,2 -1,5 -1,2v1l-1,2 -2,3 -4,7 -17,35Z"/>
    <path data-geo-id="3301527940" data-name="Fremont" d="M1345,3043l-10,31h27l53,4 5,-4 6,-78h-65Z"/>
    <path data-geo-id="3300519140" data-name="Dublin" d="M422,3121l18,71 137,5 -1,-8v-5l-2,-8v-2l-2,-16 -2,-17 -2,-13Z"/>
    <path data-geo-id="3300500820" data-name="Alstead" d="M220,2823l2,13v2l1,7v1l1,5v4l11,90 46,-4 61,-8 -15,-126h-3l-6,1h-6l-6,4h-6h-7l-3,1h-1h-5l-8,2 -14,2 1,6v4h-1l-16,-4h-1h-10h-13Z"/>
    <path data-geo-id="3300529220" data-name="Gilsum" d="M342,2933l-61,8 13,95 43,-12 -9,-59 56,-9 5,-28Z"/>
    <path data-geo-id="3300534420" data-name="Harrisville" d="M413,3073l8,36 1,12 146,7 -2,-10 -1,-4v-1l-1,-15 -53,-2 1,-27 -72,-5Z"/>
    <path data-geo-id="3300538500" data-name="Jaffrey" d="M440,3192l-2,29 6,43 3,23 36,2 109,5 -8,-57 -1,-5 -1,-6 -1,-4 -4,-25Z"/>
    <path data-geo-id="3300526500" data-name="Fitzwilliam" d="M377,3382h12l13,2h2h3h17l26,1h1h13l20,2h3h1h3h3l-11,-98 -36,-2 -3,-23h-33l-26,28 -21,-1Z"/>
    <path data-geo-id="3300545460" data-name="Marlborough" d="M351,3143l9,51 30,25 48,2 2,-29 -18,-71 -1,-12 -60,12Z"/>
    <path data-geo-id="3300574900" data-name="Sullivan" d="M384,2956l-56,9 9,59 2,25 28,10v-16h36l2,-48 2,-37Z"/>
    <path data-geo-id="3300564420" data-name="Richmond" d="M263,3377h18l13,2h6h14l7,1h12h3h6h6h4l19,2h6l-13,-91 -19,-30 -48,-4 -30,12 -16,17Z"/>
    <path data-geo-id="3300545700" data-name="Marlow" d="M327,2807l15,126 47,-5 15,-73 4,-17v-3l2,-2 15,-41 -11,1h-4h-2l-6,4 -5,1 -15,2 -10,2h-6l-14,1 -10,2 -9,2h-4Z"/>
    <path data-geo-id="3300564580" data-name="Rindge" d="M494,3387h17l4,2h3h8h3h8h12h3h3h3h3h7h7h1h12l3,3h2h16h5h13h7v-5l-1,-7 -4,-23v-2l-3,-21 -1,-10 -3,-15 -2,-15h-28l-109,-5Z"/>
    <path data-geo-id="3300573700" data-name="Stoddard" d="M389,2928l-5,28 23,2 -2,37 110,6 2,-8 1,-5 2,-10v-7l3,-11 1,-4 5,-28v-2l1,-5 7,-51 1,-4v-5h-3h-35h-2l-6,-1h-1h-6h-5h-25h-1l-18,-2h-15h-2l-15,-3Z"/>
    <path data-geo-id="3300565700" data-name="Roxbury" d="M367,3059l-25,39 19,23 60,-12 -8,-36 -10,-30h-36Z"/>
    <path data-geo-id="3300768980" data-name="Shelburne" d="M1476,1315v-4l-1,-5v-1v-12l-1,-17 -1,-3v-5v-10v-2v-1v-5v-2v-10v-2l-1,-6 -2,-24v-1v-5v-2v-8l-130,3 4,122Z"/>
    <path data-geo-id="3301502340" data-name="Atkinson" d="M1348,3269l12,-7 4,-3 5,-2 10,-5 13,5h3l-20,-56 -67,3 2,10 14,48Z"/>
    <path data-geo-id="3301502820" data-name="Auburn" d="M1129,2975l-5,-2 1,2 1,3 1,2v1l8,30 1,2v3l1,3v2v3v2l1,2 7,36v4l1,5 2,8v3l1,7 29,10 33,5 22,-110 -97,-21 -6,1Z"/>
    <path data-geo-id="3301509300" data-name="Candia" d="M1149,2943l-13,32 97,21 25,10 28,-83 -117,-27 -14,35 -2,2v3l-2,4Z"/>
    <path data-geo-id="3301521380" data-name="East Kingston" d="M1504,3078l-34,21 10,60h11l32,-6 -5,-74Z"/>
    <path data-geo-id="3301512100" data-name="Chester" d="M1233,2996l-22,110 86,22 -4,-59 42,5 10,-31 -94,-20 7,-17Z"/>
    <path data-geo-id="3301517140" data-name="Danville" d="M1362,3074l3,80 40,4 8,-27 2,-53Z"/>
    <path data-geo-id="3301517940" data-name="Derry" d="M1178,3101l15,128 83,-10 34,-5 -2,-10 -11,-66v-10l-86,-22Z"/>
    <path data-geo-id="3301524660" data-name="Epping" d="M1361,2996h65h65l-4,-16 1,-22v-40h-1h-2h-12h-9h-3h-3l-24,3h-1h-47l-7,24Z"/>
    <path data-geo-id="3301525380" data-name="Exeter" d="M1487,2980l4,16 11,67 -6,15h8l14,1 53,-5 22,-10 12,-5 -45,-31 2,-32Z"/>
    <path data-geo-id="3301550980" data-name="New Castle" d="M1759,2953l-14,-17 2,10Z"/>
    <path data-geo-id="3301531700" data-name="Greenland" d="M1629,2937l-1,11 -35,6 39,34 -9,28 50,5 5,-25 -7,-50 -32,-1ZM1587,2948h-1Z"/>
    <path data-geo-id="3301532900" data-name="Hampstead" d="M1297,3138l11,66 67,-3 10,-20h1l19,-23 -40,-4Z"/>
    <path data-geo-id="3301540100" data-name="Kingston" d="M1386,3181l43,25 19,-45 32,-2 -10,-60 34,-21h-8l-76,-4 -5,4 -2,53 -8,27Z"/>
    <path data-geo-id="3301145140" data-name="Manchester" d="M1024,2965l14,83 34,43 7,47 -1,11 11,18 -1,-9 -4,-24 -1,-5v-3l-1,-3v-2v-2l-1,-1v-2v-2h1h2l4,-1h4l8,-2h1h3h1h2h2l7,-2h3l21,-3 3,-2h4h2h1l-1,-13 -1,-7v-3l-2,-8 -1,-5v-4l-7,-36 -1,-2v-2v-3v-2l-1,-3v-3h-3l-2,-2 -29,-5 -1,-2h-2l-4,-1h-2h-3h-2l-4,-2h-1l-3,-13 -1,-7v-1l-1,-2v-2l-1,-5v-1l-17,10h-1h-1l-1,-2h-1l-2,-2h-1l-1,-1h-2v-2l-1,-2v-1v-2v-3h-1l-1,-2 -1,-2h-6Z"/>
    <path data-geo-id="3301159940" data-name="Pelham" d="M1142,3410h11h4h2h3h1h17l1,2h14h12h4h17l6,-8 9,-10 3,-7 7,-13 2,-2 6,-8 3,-2 4,-5 3,-2 3,-1 -8,-12 -3,-2 -2,-3h-2l-1,-2h-4h-1h-1h-1l-1,-1h-1h-1l-11,-2 -15,-6h-1h-6h-4l-7,-2 -11,-3 -14,-4 -8,-15 -2,-1h-2l-1,1h-3Z"/>
    <path data-geo-id="3301176260" data-name="Temple" d="M671,3221l4,25 -14,48 74,5 10,-3 -16,-99 -23,-21 -27,5Z"/>
    <path data-geo-id="3301101300" data-name="Amherst" d="M880,3196l29,45 18,5 8,38 46,-7 -19,-118h8l-11,-60 -25,4 -30,6 2,63Z"/>
    <path data-geo-id="3301108100" data-name="Brookline" d="M848,3400h2h11l12,2h1h7h13h7h1h6h3h1h1l-11,-93 -2,-20 -46,3 1,27 -19,2Z"/>
    <path data-geo-id="3301104500" data-name="Bedford" d="M926,3063l8,40 25,-4 11,60 109,-21 -7,-47 -34,-43Z"/>
    <path data-geo-id="3301127140" data-name="Francestown" d="M679,2985l8,56 6,32 45,-9 12,25 54,-10 -14,-71 -21,-30Z"/>
    <path data-geo-id="3301104900" data-name="Bennington" d="M624,3001l7,47 56,-7 -8,-56 -27,-24Z"/>
    <path data-geo-id="3301117780" data-name="Deering" d="M653,2893l-1,68 27,24 90,-7 -22,-110 -9,2h-3l-12,5 -10,1 -9,4Z"/>
    <path data-geo-id="3301129860" data-name="Goffstown" d="M903,2958l3,27 20,78 112,-15 -14,-83 -4,-17v-2l-1,-1 -1,-5v-2l-28,5 -10,2 -18,3h-2l-41,7 -7,1Z"/>
    <path data-geo-id="3301146260" data-name="Mason" d="M750,3397h7h6l6,2h13h3h15h2h3l18,1h25l-12,-79 -6,-37 -66,10 11,78 -28,2Z"/>
    <path data-geo-id="3301137140" data-name="Hollis" d="M913,3402l4,2h5h1h5h2h25h17h15h3h6l16,-87 -29,-26 -2,-14 -46,7 -33,25Z"/>
    <path data-geo-id="3301131540" data-name="Greenfield" d="M631,3048l3,33 -14,22 48,-7 11,85 27,-5 18,-13 26,-74 -12,-25 -45,9 -6,-32Z"/>
    <path data-geo-id="3301142260" data-name="Litchfield" d="M1078,3149l-29,50 16,80 4,5 39,-5 -5,-32 -1,-5 -3,-26 -4,-17 -1,-5 -2,-13 -2,-14h-1Z"/>
    <path data-geo-id="3301137940" data-name="Hudson" d="M1099,3409h9h3h13l16,1h2l21,-108 -1,-10 4,-10 -1,-3 -5,-5 -2,-2 -6,-10 -11,-11h-9h-10h-1h-7l-11,-4 5,32 -39,5 19,42Z"/>
    <path data-geo-id="3301136180" data-name="Hillsborough" d="M536,2792l1,1 1,4 11,25 37,86 67,-15 51,-13 -3,-9 -2,-3 -10,-18v-2l-1,-5 -1,-3v-2l-2,-2 -26,-54 -4,-10 -4,-10v-2l-24,8 -5,2 -47,13h-4l-5,2 -4,2 -18,5h-3Z"/>
    <path data-geo-id="3301133700" data-name="Hancock" d="M512,3069l-1,27 53,2 1,15v1l55,-11 14,-22 -3,-33 -7,-47 -110,18v9v10l-1,13Z"/>
    <path data-geo-id="3301147540" data-name="Merrimack" d="M970,3159h-8l19,118 2,14 4,-5 8,-10 70,3 -16,-80 29,-50 1,-11Z"/>
    <path data-geo-id="3301160580" data-name="Peterborough" d="M565,3114l1,4 2,10 2,13 2,17 2,16v2l2,8v5l1,8 4,25 1,4 1,6 1,5 87,-16 8,-40 -11,-85 -48,7Z"/>
    <path data-geo-id="3301150740" data-name="New Boston" d="M790,3008l14,71 9,47 91,-17 30,-6 -8,-40 -20,-78Z"/>
    <path data-geo-id="3301148020" data-name="Milford" d="M821,3216l9,68 6,37 19,-2 -1,-27 46,-3 2,20 33,-25 -8,-38 -18,-5 -29,-45 -27,3Z"/>
    <path data-geo-id="3301150260" data-name="Nashua" d="M996,3404h2h2h16h6l10,1h5h3h7h10h9h3l5,4h1h8h1h1h6h1h6h1l-11,-83 -19,-42 -4,-5 -70,-3 -8,10 -4,5 29,26Z"/>
    <path data-geo-id="3301149140" data-name="Mont Vernon" d="M813,3126l6,32 21,6 13,35 27,-3 26,-24 -2,-63Z"/>
    <path data-geo-id="3301185220" data-name="Wilton" d="M729,3197l16,99 19,-2 66,-10 -9,-68 -6,-32Z"/>
    <path data-geo-id="3301185940" data-name="Windsor" d="M537,2870l-7,51 56,-13 -37,-86 -6,14 -3,7 -2,8v2l-3,8h3v5Z"/>
    <path data-geo-id="3301179780" data-name="Weare" d="M747,2868l22,110 21,30 116,-23 -3,-27 -14,-73 -1,-5 -2,-12v-2l-5,-21 -2,-14 -3,2 -7,2h-1l-5,1 -14,2 -4,2 -3,3 -6,2 -17,3h-1l-1,2 -45,11h-1l-11,4h-4Z"/>
    <path data-geo-id="3301168820" data-name="Sharon" d="M584,3237l8,57h28h41l14,-48 -4,-25Z"/>
    <path data-geo-id="3301350900" data-name="Newbury" d="M498,2595l-10,19 1,8 12,43 3,15 4,13 2,5 104,-26 -56,-135 -32,3 -1,2 -1,5h-1l-8,15 -2,5 -7,10 -3,8h-1l-1,2v3l-3,4Z"/>
    <path data-geo-id="3301352100" data-name="New London" d="M518,2484v3l9,13 1,2v3l-1,4 -1,16v2v5v2v1v5l32,-3 98,-23 -23,-17 12,-23 -66,-42 -7,10v2l-1,2 -2,3 -2,7 -2,5 -1,3 -1,2 -1,1 -7,2 -1,-2h-3h-1l-20,-3h-8v2l-3,13Z"/>
    <path data-geo-id="3301361940" data-name="Pittsfield" d="M1176,2584l-31,43 43,32 -24,23 92,23 2,-3 1,-5h1l1,-2 2,-5 4,-10 2,-3 4,-5 3,-7 4,-1 -3,-2 -2,-2 -1,-1 -13,-10 -9,-7 -22,-17 -4,-3 -6,-5 -3,-2 -12,-10 -1,-1h-1h-2l-2,-2Z"/>
    <path data-geo-id="3301343380" data-name="Loudon" d="M1012,2639l23,41 40,28 6,5 64,-86 31,-43 -14,-12h-1l-8,-5h-2h-1l-7,-7 -3,-1 -5,-4 -18,-13 -3,-2 -3,-3 -3,-2 -3,-1 -25,-19 -2,-1h-1l-1,35Z"/>
    <path data-geo-id="3300718420" data-name="Dixville" d="M1172,661l-8,43 22,3 102,-8 -2,-38 -8,-138 -57,-12 -17,73 -10,57Z"/>
    <path data-geo-id="3301375460" data-name="Sutton" d="M656,2514l-98,23 56,135 26,-7 72,-15 -35,-88Z"/>
    <path data-geo-id="3300725140" data-name="Errol" d="M1453,845l-3,-53 -2,-20v-13l-2,-25v-18l-2,-24 -156,7 5,150h29Z"/>
    <path data-geo-id="3301366980" data-name="Salisbury" d="M720,2522l4,100 45,-22 65,-33 42,-20 -26,-37 4,-48Z"/>
    <path data-geo-id="3300731780" data-name="Greens" d="M1272,1353l-1,33 16,3h15v-36Z"/>
    <path data-geo-id="3300732420" data-name="Hadleys" d="M1187,1531l-24,13 7,25 6,27v38l7,8 11,-6 12,-5v-4l3,-18h-8Z"/>
    <path data-geo-id="3300739940" data-name="Kilkenny" d="M1088,1090l8,75 9,55 31,11 -3,-46h-8l37,-102 22,-58 -87,50Z"/>
    <path data-geo-id="3300757860" data-name="Odell" d="M1082,749l27,161 82,-3 -1,-55 -3,-98 -29,-17Z"/>
    <path data-geo-id="3300748260" data-name="Millsfield" d="M1288,699l-102,8 1,47 3,98 103,-3Z"/>
    <path data-geo-id="3300761620" data-name="Pinkhams" d="M1268,1389l-19,30 2,42 4,-12 3,-6 1,-4h2h6l20,-50 -16,-3Z"/>
    <path data-geo-id="3300763860" data-name="Randolph" d="M1133,1185l3,46 3,77 103,-3 22,13 -3,-138Z"/>
    <path data-geo-id="3300738820" data-name="Jefferson" d="M993,1185l17,113 3,22 76,-14 50,2 -3,-77 -31,-11 -9,-55Z"/>
    <path data-geo-id="3300747860" data-name="Milan" d="M1184,1025l-22,58 211,-6 49,-103 -99,3 -124,5Z"/>
    <path data-geo-id="3300730260" data-name="Gorham" d="M1261,1180l3,138h13h38l29,-3 -4,-122 -1,-15Z"/>
    <path data-geo-id="3300713780" data-name="Colebrook" d="M1012,556v2l3,1h1l1,10 1,2 12,15 -9,30 -6,8 -3,5 -1,2 161,30 22,-20 10,-57 -186,-33Z"/>
    <path data-geo-id="3300774180" data-name="Stratford" d="M912,797l5,10 1,7v2l5,8 2,5v3l15,28 4,12v3l2,9 6,15 3,6v2h-2l9,8v4h9l7,13 1,2 63,-2 69,-10 -2,-12 -27,-161 -143,22Z"/>
    <path data-geo-id="3300704100" data-name="Beans" d="M1153,1399l-40,62 15,17 2,8 7,38 11,7 19,-63Z"/>
    <path data-geo-id="3300743620" data-name="Low and Burbanks" d="M1089,1306l13,97 47,-27 8,-2 107,-56 -22,-13 -103,3Z"/>
    <path data-geo-id="3300719300" data-name="Dummer" d="M1191,907l8,75 124,-5 -1,-128h-29l-103,3Z"/>
    <path data-geo-id="3301378580" data-name="Warner" d="M640,2665l40,90 86,-25 59,-17 -56,-113 -45,22 -4,-100 -16,8 -27,32 35,88Z"/>
    <path data-geo-id="3300767860" data-name="Sargents" d="M1164,1411l10,47 14,-19 36,5 -26,45 -11,42 14,78h8l2,-17 2,-15 -2,-1 15,-44 20,-56 5,-15 -2,-42 19,-30Z"/>
    <path data-geo-id="3300716100" data-name="Crawfords" d="M1102,1403l-15,5 26,53 40,-62 -4,-23Z"/>
    <path data-geo-id="3300716660" data-name="Cutts" d="M1148,1531l15,10v3l24,-13 11,-42 26,-45 -36,-5 -14,19 -7,10Z"/>
    <path data-geo-id="3300708420" data-name="Cambridge" d="M1460,972l-2,-45 -5,-82 -131,4 1,128 99,-3Z"/>
    <path data-geo-id="3300702420" data-name="Atkinson and Gilmanton Academy" d="M1427,461v-3h-103l-13,70 33,6 4,-20 82,-5Z"/>
    <path data-geo-id="3300705140" data-name="Berlin" d="M1162,1083l-37,102h8l128,-5 78,-2 34,-101Z"/>
    <path data-geo-id="3300704260" data-name="Beans" d="M1479,1388v-12l-1,-10 -1,-28 -1,-23h-132l-29,3 -13,35v36h-15l-20,50 27,4 26,1 17,2 63,5 23,-5h4h21h2v-15v-12l-2,-20v-8v-2Z"/>
    <path data-geo-id="3300710100" data-name="Carroll" d="M1010,1298l-66,12 9,54 5,30 2,9v1l1,4v5l1,3v12l12,-2h4l1,-3 21,-2h3h1h1h3l17,-3 1,1v2l1,2v3h3l31,-5 1,2h3h2l3,3 1,2 7,3h5l2,3 8,17 4,7 13,25 8,-2 10,-3 -15,-17 -26,-53 15,-5 -13,-97 -76,14Z"/>
    <path data-geo-id="3300718340" data-name="Dixs" d="M1278,523l8,138 38,-3 20,-124 -33,-6Z"/>
    <path data-geo-id="3300314660" data-name="Conway" d="M1498,1845v-15v-6l-1,-20 -2,-29 -1,-31v-7v-5l-1,-8v-4v-1v-5v-5v-5v-2l-2,-5 -1,-35 -8,-8 -69,2 -75,-2 3,25 7,40 15,78h26l9,50h18l-2,-50h29l3,48Z"/>
    <path data-geo-id="3300323620" data-name="Effingham" d="M1512,2153l-1,-10 -1,-12v-1v-5v-2v-3v-2v-2v-1v-7v-12l-1,-8 -2,-15v-5v-7l-1,-11 -2,-14v-15l-1,-3v-3l-84,-7 -47,63 111,89Z"/>
    <path data-geo-id="3300349380" data-name="Moultonborough" d="M1004,2051l8,9 1,1 2,2 9,8 5,7 1,2 1,1h2l2,4 3,3 2,2 2,1v2l3,2 5,6 6,7h2l1,2 1,1 2,2 4,5 2,2 1,1h1l2,2 8,8 9,9 2,1 2,2 3,3 7,7 1,2 2,1 2,2 4,3 18,18 8,9 11,8 25,25 3,3 3,4 15,-34 20,-6 -2,-25 -22,-13 77,-107 -32,-5 -46,-10Z"/>
    <path data-geo-id="3300358740" data-name="Ossipee" d="M1236,2038l32,5 56,117 62,13 54,41 43,-54 -111,-89 47,-63 -18,-10 -9,27 -30,-7 -25,-28 -1,-10 -1,-2 -11,-13 -5,2 -50,21Z"/>
    <path data-geo-id="3300323380" data-name="Eaton" d="M1500,1907l-1,-25 -1,-24v-13h-52l-3,-48h-29l2,50h-18l10,70 10,18Z"/>
    <path data-geo-id="3301568260" data-name="Seabrook" d="M1582,3167h3h7h2h2l12,5 2,2h1l8,7 4,3h2l1,3 2,2h1h1l12,10h2l10,-5 5,-3h1l2,-2h1l3,-2 3,-3h1h3l3,-21 -17,4 3,-15 -37,-6 -47,-3 2,10Z"/>
    <path data-geo-id="3301585780" data-name="Windham" d="M1166,3282l-4,10 1,10h3l1,-1h2l2,1 8,15 14,4 11,3 7,2h4h6h1l15,6 45,-80 -6,-33 -83,10 -15,10Z"/>
    <path data-geo-id="3301539780" data-name="Kensington" d="M1518,3079l5,74h57l-2,-10 -7,-69Z"/>
    <path data-geo-id="3301564020" data-name="Raymond" d="M1258,3006l-7,17 94,20 16,-47 18,-51 -77,-17 -16,-5Z"/>
    <path data-geo-id="3300903940" data-name="Bath" d="M525,1481h-1h-1l-3,3 3,2v3v2l-1,3 -3,4 -2,1 -2,7v3l2,3 5,5 3,10 1,4v1l1,5 4,4 1,5h5l-1,3 3,3 1,2 115,53 -18,-113 -2,-11 -72,-39 -35,30Z"/>
    <path data-geo-id="3300908660" data-name="Campton" d="M804,2003l23,27h51l115,-19 -4,-28 -3,-21v-2l-9,-48 -98,10 -16,10 -37,-29 3,34Z"/>
    <path data-geo-id="3300933860" data-name="Hanover" d="M382,2045l-21,26 -41,29 -23,28 -1,14 130,44 77,-106 -118,-37Z"/>
    <path data-geo-id="3300941300" data-name="Lebanon" d="M296,2142l-2,31 -10,23 -1,10 -4,2 -11,26v24v1h2h2l9,2 42,8h4l40,7 10,3h2h1l46,-93Z"/>
    <path data-geo-id="3300512260" data-name="Chesterfield" d="M76,3109l3,20 -6,9 -1,15 -17,13h-1l-2,19 -2,16 73,8 82,7 40,-78 -19,-20 -149,-12Z"/>
    <path data-geo-id="3300582660" data-name="Westmoreland" d="M144,2996l6,27 -22,35 -42,16 -9,32 149,12 -13,-60 17,-5 4,-49Z"/>
    <path data-geo-id="3300922020" data-name="Easton" d="M742,1517l-36,117 57,30 21,-5 41,-110 -54,-22Z"/>
    <path data-geo-id="3300550580" data-name="Nelson" d="M403,3043l10,30 27,-9 72,5 1,-18 1,-13v-10v-9l1,-16v-2l-110,-6Z"/>
    <path data-geo-id="3300942580" data-name="Littleton" d="M792,1235l-26,8h-2l-1,2 -1,1 -2,2 -1,2 -2,1 -1,2v2l3,5v1v2h-2l-10,2h-1v1v4l-1,1v4h1l2,1v2v2l-1,1h-1h-2v2l1,3v2l1,2 2,5v1v2h-2l-3,2 -6,3h-1l-1,2h-2h-2l-2,1h-1l-2,2 -2,2 -1,1 -3,2h-3h-2l-2,2 -1,3h-1h-8l-1,2h-1h-2v1h-2l-1,2 -17,-10h-3l-13,-5 -12,3 -2,2 -14,12 -16,-4 -6,2h-12l-7,-2 -3,2h-1l50,26 62,30 62,27 89,-76 -5,-10 -23,-34 -2,-5 -8,-6 -5,-12 -8,-12 -2,-3 -7,-12Z"/>
    <path data-geo-id="3300962660" data-name="Plymouth" d="M778,2045l-1,51 20,9 21,48 69,-40 -16,-38 -8,-22 15,-23h-51l-23,-27Z"/>
    <path data-geo-id="3300978740" data-name="Warren" d="M609,1752l3,106v7l122,33 23,-83 9,-38 -29,-5Z"/>
    <path data-geo-id="3300944100" data-name="Lyman" d="M640,1349l-28,17 -49,78 72,39 67,-104Z"/>
    <path data-geo-id="3300942020" data-name="Lisbon" d="M635,1483l2,11 15,-8 62,23 50,-103 -62,-27Z"/>
    <path data-geo-id="3300958340" data-name="Orange" d="M567,2226l97,27 8,-19 -17,-40 24,-54 -43,-14 -15,14Z"/>
    <path data-geo-id="3300965940" data-name="Rumney" d="M659,2001l119,44 26,-42 25,-66 -95,-39Z"/>
    <path data-geo-id="3300944260" data-name="Lyme" d="M419,1913l-15,15 -1,4 4,30 -6,41 -16,37v1v2l118,37 17,6 30,-128Z"/>
    <path data-geo-id="3300958500" data-name="Orford" d="M482,1807l-16,25v5v11v4l-47,45v16l131,45 58,-88 -7,-12 -117,-53Z"/>
    <path data-geo-id="3300976740" data-name="Thornton" d="M820,1840l6,63 37,29 16,-10 98,-10v-5l-3,-19 -36,-104 -23,-70 -12,8 -50,133Z"/>
    <path data-geo-id="3300980500" data-name="Wentworth" d="M601,1858l7,12 -58,88 109,43 75,-103 -122,-33v-7Z"/>
    <path data-geo-id="3300979380" data-name="Waterville Valley" d="M938,1784l36,104 9,-1 29,-4 11,-1 11,-2 15,-2 18,-3h5l42,-8h4l6,-2 29,-5h3h4l-7,-48 -4,-28 -1,-7 -2,-17 -1,-8 -1,-2Z"/>
    <path data-geo-id="3300987060" data-name="Woodstock" d="M737,1772l29,5 -9,38 63,25 33,15 50,-133 -119,-63 -21,5Z"/>
    <path data-geo-id="3300300420" data-name="Albany" d="M1140,1724l1,3v2l1,5v1l1,7 1,8 1,2 1,8 2,17 1,7 4,28 7,48 2,10 135,-23 40,-48 26,-2 -15,-78 -24,3 -144,-2Z"/>
    <path data-geo-id="3300303700" data-name="Bartlett" d="M1142,1720l-2,4 40,-4 144,2 -3,-40 20,-3 -3,-25 75,2 -11,-5 -2,-59 -57,-5 -42,-15 -88,5 -2,15 -2,17 -3,18v4l-12,5 5,28h-25l-26,46 -2,4Z"/>
    <path data-geo-id="3300327700" data-name="Freedom" d="M1503,2015v-9v-13l-1,-48 -1,-10v-3v-2l-1,-7v-10v-3v-3l-82,28 -22,-2 -72,32 11,13 1,2 1,10 25,28 30,7 9,-27 18,10Z"/>
    <path data-geo-id="3300332500" data-name="Hale's" d="M1341,1679l-20,3 3,40 24,-3Z"/>
    <path data-geo-id="3300334500" data-name="Hart's Location" d="M1100,1484l5,17 7,40 16,8 9,15 4,17 3,11 2,7v20l-5,8 9,24 1,3 4,10h19h25l-5,-28 -11,6 -7,-8v-38l-6,-27 -7,-25v-3l-15,-10 -11,-7 -7,-38 -2,-8 -10,3 -8,2Z"/>
    <path data-geo-id="3300338260" data-name="Jackson" d="M1211,1576l2,1 88,-5 42,15 57,5v-141l-63,-5 -17,-2 -26,-1 -27,-4h-6h-2l-1,4 -3,6 -4,12 -5,15 -20,56Z"/>
    <path data-geo-id="3300311780" data-name="Chatham" d="M1490,1662l-2,-20v-1v-7v-17v-1v-4l-3,-86 -3,-68 -1,-30 -1,-20 -1,-20 -31,1v2v8l2,20v12v15h-2h-21h-4l-23,5v141l2,59 11,5 69,-2Z"/>
    <path data-geo-id="3300378180" data-name="Wakefield" d="M1531,2334h2h2l3,-15 -2,-8 -1,-2v-1h-4l-3,-5 -1,-4h-2l-4,-1v-5l-1,-5v-2v-2v-5v-5l-1,-5v-3v-2v-3l-1,-10v-3v-7v-3v-2l-1,-5v-3v-2v-2v-6l-1,-7v-5l-1,-13 -3,-40 -29,7 -43,54 -4,5 25,130 6,33 3,9v5l3,10v3l7,-8 2,-2 1,-2 14,-20 5,-6 23,-32 5,-5Z"/>
    <path data-geo-id="3300345060" data-name="Madison" d="M1363,1797l-26,2 -40,48 22,120 5,-2 72,-32 22,2 -10,-18 -10,-70 -9,-50Z"/>
    <path data-geo-id="3300367780" data-name="Sandwich" d="M974,1888l3,19v5l9,48v2l3,21 4,28h6l1,5v5l2,19 2,11 186,-23 -28,-158 -2,-10h-4h-3l-29,5 -6,2h-4l-42,8h-5l-18,3 -15,2 -11,2 -11,1 -29,4Z"/>
    <path data-geo-id="3300376100" data-name="Tamworth" d="M1162,1870l28,158 46,10 33,-50 50,-21 -22,-120Z"/>
    <path data-geo-id="3300377620" data-name="Tuftonboro" d="M1268,2043l-77,107 22,13 2,25 -20,6 -15,34 3,1v2h1l1,2 1,1 1,2h1h1l30,27 14,13 30,-33 61,-83Z"/>
    <path data-geo-id="3301769940" data-name="Somersworth" d="M1648,2712v-5v-4l-3,-5 -1,-1h-2h-1h-6h-1h-3l-2,-2 -1,-3v-2l-5,-5h-2l-2,-3 -3,-2v-2l-1,-1h-4h-3l-1,-2 -2,-5v-5h-1l-2,-1 -3,-2 -3,-2 -4,-3 -27,40 39,41Z"/>
    <path data-geo-id="3301765540" data-name="Rollinsford" d="M1666,2772v-4l3,-13 1,-2 -1,-1v-4l3,-3h1v-2v-1l1,-2 1,-3v-2l-1,-2 -1,-3 -1,-2 -2,-1v-4l-1,-1h-1v-2v-2l-14,-5h-5h-1v-1l-44,26 15,19Z"/>
    <path data-geo-id="3301748660" data-name="Milton" d="M1510,2539v-2l-1,-12 4,-10h-1l-1,-1 -1,-4 5,-23h1h3l2,-1 1,-2 3,-7v-3v-3v-2h2h1l3,-30 3,-10 -2,-3 -4,-5h-4l-1,-2h-1l-3,-3v-2h2h1h1l2,-2v-1v-2v-2l2,-8 1,-3v-2v-2l6,-5 1,-10 3,-3 -1,-2v-5l1,-1v-4v-1v-2v-2h-2v-1h-1v-2v-5l-4,-15h-1l-5,5 -23,32 -5,6 -14,20 -1,2 -2,2 -7,8 -56,75 89,63 4,-7Z"/>
    <path data-geo-id="3301726020" data-name="Farmington" d="M1415,2487l-66,85 81,72 76,-97 -89,-63Z"/>
    <path data-geo-id="3300740420" data-name="Lancaster" d="M953,1087h-5l11,20 3,1v2l-9,5v2l-9,10 -3,6 -11,2 -19,13 -1,-1 -1,-2 -10,8 -13,37 29,40 78,-45 103,-20 -8,-75 -7,5 -27,15 -87,-43Z"/>
    <path data-geo-id="3300746020" data-name="Martins" d="M1277,1318l-5,35h30l13,-35Z"/>
    <path data-geo-id="3301911380" data-name="Charlestown" d="M197,2594l-2,4 7,21 3,5 -13,41 -8,10 -6,13 -8,4 -3,3 -2,65 -14,57 2,1h2h2l11,2 24,2 -8,-45 68,-15 -12,-65 16,-4 -20,-38 5,-41 4,-17Z"/>
    <path data-geo-id="3301931220" data-name="Grantham" d="M373,2402l66,25h30l18,-43 -16,-5 18,-28 -21,-9 -6,-3v-2l7,-19 -17,-7 -13,-7 -4,-1h-1l-4,-2 -16,-7 -17,29 -1,46Z"/>
    <path data-geo-id="3301718820" data-name="Dover" d="M1634,2854l22,-14 -2,-5 1,-4 4,-11 1,-33v-7h2l3,-3 1,-2v-3l-47,-15 -15,-19 -39,-41 -22,40 -8,11Z"/>
    <path data-geo-id="3301703460" data-name="Barrington" d="M1448,2657l-73,108 5,5 2,2 2,1h1l1,2 1,2 49,38 10,8 2,5h3l5,5 13,10 3,3h1l2,2 26,-43 34,-57 8,-11Z"/>
    <path data-geo-id="3301719700" data-name="Durham" d="M1604,2917l1,-1 14,-16 -2,-35 14,-9 -95,-39 -18,101h1l4,-2h2h9l1,-1 14,-4h2h3h1l3,-1h4h3h2h1l6,1 5,2h1h4l8,2 7,1h2h1Z"/>
    <path data-geo-id="3301765140" data-name="Rochester" d="M1592,2657l-8,-7v-1l2,-2v-2h4h2h1l1,-1 -3,-5h-2v-2l-1,-2v-1h-2h-1v1h-1l-3,-3h-1l-4,-10h1h1h1h1l-1,-2 -5,-6 -1,-2v-3l-3,3h-2l-1,-3 1,-2 -7,-3v-2v-2l-1,-3h-1l1,-2v2h1v-2h-1l-1,-1h-1h-1l-3,1 -5,2 -1,-2h-1l-3,2h-2v2h-1h-1h-2l-1,-2 -1,-5 -1,-2 -4,-3h-1l-5,-3v-2l3,-2v-3h-5v-5l-5,-5 2,-8 -7,-17h-1l-2,-2 -4,7 -76,97 18,13 95,80 22,-40Z"/>
    <path data-geo-id="3301747700" data-name="Middleton" d="M1393,2379l22,108 2,-3 56,-75v-3l-3,-10v-5l-3,-9 -6,-33h-8l-5,7 -10,1 -4,-5 -12,20 -9,-1 -2,8 -5,-7 -4,7 -2,-3 -1,-2 -1,-2Z"/>
    <path data-geo-id="3301744820" data-name="Madbury" d="M1631,2856l3,-2 -99,-106 -34,57 35,12Z"/>
    <path data-geo-id="3301741460" data-name="Lee" d="M1433,2921h1l24,-3h3h3h9h12h2h1h14h2h9h4h1l18,-101 -35,-12 -26,43 -2,2v1l-1,2v2l-27,43v2l-5,6 -4,7 -1,3Z"/>
    <path data-geo-id="3301751220" data-name="New Durham" d="M1319,2372l2,15 2,15 3,30 1,5 1,2v2l4,25v6l2,7v2l1,6 1,10 8,43 1,7 3,13 1,12 66,-85 -22,-108 -3,-8 -3,-15 -1,-15v-5l-1,-2 -1,-6 -1,-9 -3,-11 -2,-12 -1,-2v2l-4,5 -1,2 -3,3 -1,2 -9,11 -6,9 -8,9 -7,9v1l-9,10Z"/>
    <path data-geo-id="3300386420" data-name="Wolfeboro" d="M1324,2160l-61,83 -30,33 22,22h2l45,25 5,-2 4,-8h1l11,8 1,2 4,3 7,5 10,6 8,-9 6,-9 9,-11 1,-2 3,-3 1,-2 4,-5v-2l59,-75 4,-5 -54,-41Z"/>
    <path data-geo-id="3301916340" data-name="Croydon" d="M361,2397l-15,25 -23,-6 -2,68 133,38 11,-66 4,-29h-30l-66,-25Z"/>
    <path data-geo-id="3301900260" data-name="Acworth" d="M256,2693l-16,4 12,65 10,55 14,-2 8,-2h5h1l3,-1h7h6l6,-4h6l6,-1h3h2h4l9,-2 10,-2 14,-1 -17,-122Z"/>
    <path data-geo-id="3301940900" data-name="Langdon" d="M168,2820v13v17l15,1h6h2l11,2h3h2h3l3,2h11v-4l-1,-5v-1l-1,-7v-2l-2,-13h2h13h10h1l16,4h1v-4l-1,-6 -10,-55 -68,15 8,45Z"/>
    <path data-geo-id="3301912900" data-name="Claremont" d="M204,2482l-6,43 -10,34 22,8 -13,27 48,3 -4,17 17,-14 65,2 -2,-118 -116,-7Z"/>
    <path data-geo-id="3301915060" data-name="Cornish" d="M208,2363l-2,2 9,21h1l4,16 -3,15 -7,25 -5,35 116,7 2,-68 23,6 15,-25 2,-25 -33,-16 -13,16Z"/>
    <path data-geo-id="3300307940" data-name="Brookfield" d="M1377,2294l1,2 2,12 3,11 1,9 1,6 1,2v5l1,15 3,15 3,8 5,-7 1,2 1,2 2,3 4,-7 5,7 2,-8 9,1 12,-20 4,5 10,-1 5,-7h8l-25,-130Z"/>
    <path data-geo-id="3301551380" data-name="Newfields" d="M1488,2958l-1,22 75,16 20,-40Z"/>
    <path data-geo-id="3300103220" data-name="Barnstead" d="M1236,2492l-60,92 23,18 2,2h2h1l1,1 12,10 3,2 6,5 4,3 22,17 9,7 13,10 1,1 2,2 3,2 5,-9h1l11,-16 5,-7 9,-10 2,-5 7,-8 3,-4 20,-25 6,-8Z"/>
    <path data-geo-id="3300104740" data-name="Belmont" d="M1025,2387l-35,64 3,1 3,2 3,3h1l5,5 7,5 5,4 2,1 12,9 1,1 3,2 8,5 2,2 3,1 6,5 10,8 67,-93 -50,-30 -48,-31Z"/>
    <path data-geo-id="3300128740" data-name="Gilford" d="M1079,2239l20,20 -8,45 -18,38 8,40 50,30 72,-35 -26,-153 -36,-11 -29,25Z"/>
    <path data-geo-id="3300101060" data-name="Alton" d="M1177,2224l26,153 15,72 33,25 -15,18 113,80 -1,-12 -3,-13 -1,-7 -8,-43 -1,-10 -1,-6v-2l-2,-7v-6l-4,-25v-2l-1,-2 -1,-5 -3,-30 -2,-15 -2,-15 10,-15 9,-10v-1l7,-9 -10,-6 -7,-5 -4,-3 -1,-2 -11,-8h-1l-4,8 -5,2 -45,-25h-2l-22,-22 -14,-13 -30,-27h-1h-1l-1,-2 -1,-1 -1,-2h-1v-2l-3,-1Z"/>
    <path data-geo-id="3301557460" data-name="Nottingham" d="M1302,2928l77,17 7,-24h47l2,-5 1,-3 4,-7 5,-6v-2l27,-43v-2l1,-2v-1l2,-2 -2,-2h-1l-3,-3 -13,-10 -5,-5h-3l-2,-5 -10,-8 -49,-38 -1,-2 -1,-2h-1l-2,-1 -2,-2 -27,43 -45,70 16,3Z"/>
    <path data-geo-id="3301551620" data-name="Newington" d="M1685,2882l-10,-7 -39,-5 -7,67 10,8 32,1 -6,-30 37,-21Z"/>
    <path data-geo-id="3301554580" data-name="North Hampton" d="M1705,3084l9,-11 4,-11 -39,-21 -6,-20 -50,-5 -18,43Z"/>
    <path data-geo-id="3301552900" data-name="Newton" d="M1456,3227l3,-5 2,-6 5,-4 4,-5 5,-3 6,-3 7,-2h10l6,-2 -13,-38h-11l-32,2 -19,45 -8,10 30,21Z"/>
    <path data-geo-id="3301552340" data-name="Newmarket" d="M1587,2948l17,-31 -2,-1h-1h-2l-7,-1 -8,-2h-4h-1l-5,-2 -6,-1h-1h-2h-3h-4l-3,1h-1h-3h-2l-14,4 -1,1h-9h-2l-4,2h-1h-1h-4h-9h-2h-14v40l94,-2 4,-8Z"/>
    <path data-geo-id="3301556820" data-name="Northwood" d="M1238,2745l19,10 3,37 93,21 27,-43 -5,-5 -7,-5 -8,-8h-2l-20,-19 -15,-11 -10,-9 -8,-6 -3,-4 -16,-11 -17,-15 -2,3 -4,10 -2,5 -1,2h-1l-1,5 -2,3 -1,2v1l-4,5v4l-2,5 -6,15 -1,1 -3,5v2Z"/>
    <path data-geo-id="3300151540" data-name="New Hampton" d="M821,2273v1l13,17 -7,7v1l-1,2 1,5h-1l-2,3h-1l17,25v2l3,5h1l58,-57 110,-108 -31,2 -23,-33h-5l-9,1 -15,2 -4,2h-4h-2h-6l-4,1h-9l-2,2 -4,7 -1,19 -2,5v9l2,8 1,3 -1,5v4l-2,6 -2,4v1l3,5 3,5 -13,10v2l1,10 -11,5 -27,7 -2,-5 -11,5h-2h-5h-1Z"/>
    <path data-geo-id="3300128980" data-name="Gilmanton" d="M1064,2505l10,7 3,2h1l2,1 25,19 3,1 3,2 3,3 3,2 18,13 5,4 3,1 7,7h1h2l8,5h1l14,12 60,-92 15,-18 -33,-25 -15,-72 -72,35Z"/>
    <path data-geo-id="3300140180" data-name="Laconia" d="M1079,2239l-16,-15 -40,35 -21,5 23,59 8,28 48,31 -8,-40 18,-38 8,-45Z"/>
    <path data-geo-id="3301562500" data-name="Plaistow" d="M1395,3257l7,2 4,2h2l10,1 5,2 3,3 10,2 4,2 2,1 3,-10 1,-3 2,-8 3,-10v-4l-30,-21 8,-10 -43,-25h-1l-10,20Z"/>
    <path data-geo-id="3301567620" data-name="Sandown" d="M1335,3074l-42,-5 4,59v10l68,16 -3,-80Z"/>
    <path data-geo-id="3301566660" data-name="Salem" d="M1274,3354l12,-4 6,-1h2l5,1 8,2h1h2l1,2 8,1 4,2h5l6,3 -2,-20v-1l-1,-15v-2l-2,-13v-17v-1l3,-4 14,-16 2,-2 -24,-7 -14,-48 -34,5 6,33 -45,80 11,2h1h1l1,1h1h1h1h4l1,2h2l2,3 3,2Z"/>
    <path data-geo-id="3301566180" data-name="Rye" d="M1718,3062l16,-44 35,-53 -10,-12 -12,-7 -44,58 -25,-8 -5,25 6,20Z"/>
    <path data-geo-id="3301562900" data-name="Portsmouth" d="M1745,2936l-18,-21 -25,-20 -37,21 6,30 7,50 25,8 44,-58Z"/>
    <path data-geo-id="3301574340" data-name="Stratham" d="M1593,2954l-11,2 -20,40 -2,32 45,31 18,-43 9,-28ZM1582,2956l5,-8h-1Z"/>
    <path data-geo-id="3301507220" data-name="Brentwood" d="M1426,2996l-6,78 76,4 6,-15 -11,-67Z"/>
  </g>
  <path class="mesh" transform="scale(0.1)" d="M522,2464h8l20,3h1h3l1,2 7,-2 1,-1v-2l2,-3 2,-5 2,-7 2,-3 1,-2v-2l7,-10 66,42 -12,23 23,17 21,48 27,-32 -35,-76 30,-13 -12,-25 -18,20 -33,-88 -4,5 -30,43 -2,5 -2,3 -2,2 -1,3 -16,23M720,2522l4,100 45,-22 55,113 54,-18 17,-8 -47,-80 -14,-40 -65,33M902,2284l-58,57 6,3 5,5 5,4h1l1,1v2l-1,2v1l-1,2v2l-2,3 -39,20 24,35 11,41 -4,49 26,36 21,-10 22,-28 4,-48v-2l-1,-2 -6,-15 3,-1 -2,-4v-3l-2,-5h4l-4,-10v-3l-9,-15v-2l-14,5v-3l-7,-7 -11,-3 -16,-22v-3M824,2713l-58,17 52,118h1l17,-3 6,-2 3,-3 4,-2 14,-2 5,-1h1l7,-2 3,-2 2,14 5,21v2l2,12 1,5 14,73 9,-2 7,-2 41,-6h2l18,-4 10,-1 28,-5 6,-9 -61,-43v-28l-48,-37 -36,10M1067,2863l-1,5 103,28 1,-3 17,-35 4,-7 2,-3 1,-2v-1l1,-2 1,-5 2,-2 2,-6 4,-12 -70,-15M1039,2823l-27,-23 -64,33 -9,-17 -24,5M1024,2929l42,-61M895,2687l57,-27 -4,-35h-16l-33,-61 -2,-27M876,2547l-42,20M1430,510l-82,5 -4,20 -20,123 117,-7M1460,972l-38,2 -49,103 -34,101 1,15 130,-3M1324,658l-37,3 1,38 156,-6M793,1236l7,12 2,3 8,12 5,11 8,7 1,5 24,33 5,10 2,-1 8,-5 6,3 12,3 6,6 4,1 3,2 4,2 8,3 5,2 14,6 16,9 12,5 -9,-56 66,-11 -17,-113 -78,45 20,28 -72,65M1124,2770l40,-88 24,-24 -43,-31 -64,86M1204,2818l3,2 1,-5 19,-43 2,-4 6,-13 1,-2v-1l2,-4v-3h1v-2l3,-5 1,-1 5,-15 3,-5v-4l4,-5v-1l1,-2 -92,-23M939,2816l-61,-121M651,2760v2l4,10 4,10 26,54 2,2v2v3l2,5v2l10,18 1,3 4,9 8,-4 11,-1 12,-5h4l8,-2 9,-3h4l11,-4h1l45,-11 1,-2M766,2730l-86,25M952,2660l55,-28 5,7 64,-90 1,-35 -2,-2 -11,-6 -16,1 -149,57M207,2363l110,10 13,-17 33,17 -2,24 12,5 23,-33 1,-46 17,-29 -13,-6 -2,-2h-1h-2l-5,-2 -4,-1 -3,-2 -4,-2h-1h-1l-11,-3 -40,-7h-4l-42,-8 -9,-2h-2h-2M323,2602l-65,-2 -17,14 -5,41 20,38 93,-13 17,121h6l10,-1 15,-2 5,-2 6,-3h2h4l11,-2 26,-3 5,-81h-25l-9,-42 -73,15M453,2604l45,-10 3,-4 1,-3v-2h1l3,-8 7,-10 2,-5 8,-15h1l1,-5 1,-2v-5l1,-1v-2v-5v-2v-16l1,-3v-4l-1,-1 -9,-14v-3l1,-5 3,-13v-2l-57,-8 -11,66M632,2353l-12,-2 -11,-2 -10,-3 -22,-3h-2h-2l-8,-2 -43,-7h-5l-9,-13 -20,30 -17,28 16,5 -18,43 -4,29M425,2791l-15,42 -2,2v3l-4,17 15,3h2h15l18,2h1h25h5h6h1l6,1h2h35l3,-8v-2l2,-8 3,-7 6,-15 -11,-25 -1,-3 -1,-2h5h3l18,-4M510,2698h17l4,35v4l1,5 11,16 8,12 11,17 4,-2 5,-2h4l47,-13 5,-2 24,-8 29,-5 -40,-90 -26,7 -104,26 -54,9M422,2665l-5,-33M503,1714l55,30 -3,-20 54,28 46,-145 -115,-53M771,1528l53,21 -40,110 119,63 12,-8 20,-9 60,45 40,-16 13,-34 -2,-44 39,-32 38,-17 3,-20 -27,-26 4,-23 -104,-37 -40,108 -135,-60M1663,3148l-70,-83 -22,9 7,69 47,3 37,6M1024,2964l14,84 34,43 7,47 -1,11 11,19h1l2,13 2,13 1,5 4,17 3,26 1,5 11,4h7h1h10h9l11,11 6,10 2,2 5,5 1,3 12,-43 15,-10 -15,-128 -29,-10 1,13h-2h-1h-4l-3,2 -21,3h-3l-7,2h-2h-2h-1h-3h-1l-8,2h-4l-4,1h-2h-1v2v2l1,1v2v2l1,3v3l1,5 4,24 1,10M1582,3168l-2,-15h-56l-33,6 13,39M704,2530l16,-8 134,-60M819,2386l-78,35 -42,20M1705,3083l-100,-23 -12,5M958,2144l23,34 31,-2 -110,108 122,39 -22,-59 21,-5 40,-34 16,14 33,-1 29,-25 36,12 -3,-4 -25,-25 -11,-8 -8,-8 -18,-19 -4,-3 -2,-2 -2,-2 -1,-1 -7,-7 -3,-3 -2,-2 -2,-2 -36,-3 -41,40M919,2429l105,-42 9,-36 -9,-28M923,2461h1h2l1,1h1v2v2h1l2,1h1l3,-1 6,6 3,-3h2v-2v-1v-2l1,-2h1h1h1l1,2h2v-2h2v-1h1h2h1h1h1l2,-2 1,-2 2,-1 3,-5h1h2h2l1,1 1,-1 1,-2v-2l2,-1h1h1v1l5,2h2l2,2 34,-64M1256,2705l2,-3 1,-5h1v-2l3,-5 4,-10 2,-3 18,15 15,11 3,4 8,6 10,9 15,11 20,19h2l8,8 7,5 73,-108 -18,-13 -81,-72 -6,8 -20,25 -3,4 -7,8 -2,5 -9,10 -5,7 -11,16h-1l-5,8 -4,2 -3,7 -4,5M1075,2708l-38,62 2,53 28,40 49,-27 18,-33 -22,-5 12,-28 -55,-42 12,-15 -6,-5 -40,-28 -23,-41M844,2341h-1l-3,-5v-2l-17,-25h1v-1l-2,-2 -5,-5h-2l-15,3 -1,2h-2l-1,-2 -3,-1 -6,6 -2,4 -8,8 -2,-7 -2,-1 -18,6 -7,4 -8,10 -8,35 9,53M1064,2506l-10,-9 -6,-5 -3,-1 -2,-2 -8,-5 -3,-2 -1,-1 -12,-9 -2,-1 -5,-4 -7,-5 -5,-5h-1l-3,-3 -3,-2 -3,-1M740,2333l-1,-5 -7,-20 -8,-24 -4,-13 -3,-7 -19,-1h-1l-2,3 -11,13 -4,4 -1,1v2l-7,8 -13,19v1l-10,15 -5,7 -5,7 -3,5M351,3143l10,-22 -19,-23 25,-38 -28,-10 -2,-25 -43,11 -64,17 -17,5 13,60 19,20 -40,78 36,3 6,43 20,7 30,-12 48,4 16,-37 -1,-30 -9,-51 -106,-5M263,3377l-12,-91 16,-17M205,3216l-82,-7 21,161M345,3261l18,30 22,1 26,-28h33l-6,-43 -48,-2 -30,-25M123,3209l-73,-8M144,2996l90,9 1,-61 -11,-89h-11l-3,-2h-3h-2h-3l-11,-2h-2h-6l-15,-1v-17v-13l-11,-2h-2h-1l-3,-2M234,3005l-4,48M294,3036l-13,-95 -46,3M804,3079l-14,-71 -21,-30 -90,6 8,57 6,32 46,-8 11,24 -26,74 -18,13 23,22 86,-14 6,32 32,-17 -13,-35 -21,-6 -6,-32 -9,-47 -54,10M750,3397l-3,-23M735,3299l12,75 28,-2 -11,-78 -19,2 -10,3 -74,-5h-41l2,15 3,15 1,10 3,21v2l4,23 1,7v5M824,2309l2,-3h1l-1,-5 1,-2v-1l7,-7 -13,-17v-1l3,-5h6h2l11,-5 2,5 27,-7 11,-5 -1,-10v-2l13,-10 -3,-4 -3,-5v-2l2,-3 -17,10 -28,-24 -31,14 -23,-32 14,-8v-2l-11,-12 -31,17 38,106 -9,14M640,1350l62,30 62,26M891,2220l2,-7v-3l1,-5 -1,-4 -2,-8v-8l2,-5 1,-21 4,-6 -11,-40 -69,40 -23,13M764,2183l-56,-20 8,-14 -37,-10 -24,56 17,39 -8,19 34,10M1041,474l180,37 57,12 33,5 13,-70 2,-19 -120,-23 2,12 -72,-8 -31,-14 -30,22 -12,33M939,771l143,-22 76,-12 6,-33 8,-43 -161,-30M915,1230l-29,-40M1089,1306l13,97 47,-27 4,24 14,68 7,-10 -10,-47 -7,-36 -8,1M898,2153l2,-2h9l4,-2h6h2h3h1l4,-1 15,-2 9,-2h5l-3,-16 -52,-57 -32,4 16,38M967,1067l87,43 27,-15M1042,932l6,7 5,136 28,20 7,-5 9,-15 87,-50 15,-43 -8,-75 -82,3 2,12 -69,10 -63,2M1324,458h103M1018,551l186,33 17,-73M1158,737l29,17 -1,-46 -22,-4M1164,1411l104,-21 3,-4 1,-33 5,-35h-13l-107,57M714,1509l-62,-23 -15,8 18,113M414,2294l16,7 4,2h1l4,1 13,7 17,7 -7,20v1l6,4 20,8M508,2321l46,-75M296,2142l130,44 -46,93M806,1429l193,72M1103,1538l9,3 -7,-40 -5,-17 10,-1 -13,-25 -4,-7 -8,-17 -2,-3h-5l-7,-3 -1,-2 -3,-3h-2h-2l-2,-2 -31,5h-3v-3l-1,-2v-2l-1,-1 -17,3h-3h-1h-1h-3l-21,2 -1,3h-4l-11,2 -1,-12 -1,-3v-5l-1,-4v-1l-2,-8 -5,-30M818,2153l-21,-49 -20,-8 -20,-6 -41,59M664,2253l-97,-27M520,2086l-17,-6 -77,106 128,60 13,-20 54,-87 15,-13 43,13M612,1858v7l122,33 -75,103M915,1714l23,70 206,-34 -1,-8 -1,-7v-1l-1,-5v-2l-1,-3 2,-4 4,-6 2,-4 26,-46h-19l-4,-10 -1,-3 -9,-24 5,-8v-20l-2,-7 -3,-11 -4,-17 -9,-15 -16,-8M528,1474l35,-30 49,-78 28,-16 -50,-27M706,1634l36,-116M958,2144h1l13,-1h6l14,-2 21,-3 -1,-15v-2v-2l-1,-1v-2l-1,-10 -1,-10 -3,-28 -1,-3 -1,-14 -2,-11 -2,-19v-5l-1,-5h-6l-115,19 -15,23 8,22M510,2698l-2,-5 -4,-13 -2,-15h-1l-11,-43 -2,-8 10,-19v-1M1131,2412l72,-35 -26,-152 3,3 15,-33 20,-7 -2,-25 -22,-14 77,-106 -32,-5 -46,-10 -186,23M1018,2938v1l1,5 1,2v2l4,16 16,-3h6l1,2 1,1 1,4v1v2l1,2v1h2l1,2h1l2,2h1l1,1h1h1l17,-10v2l1,5v2l1,1v2l1,7 3,13h1l4,2h2h3h2l5,2h1l1,1 29,5 2,2h3l-1,-2 -8,-30v-2l-1,-1 -1,-4 -1,-1 5,1 1,2 6,-2 13,-31 2,-4 2,-3v-3l2,-2 14,-35 117,27 16,5 22,-42 -16,-3 45,-70 -93,-22 -3,-36 -19,-10M568,3128l-2,-10 -1,-4v-1l-2,-15 -52,-2 1,-27 -72,-4 -27,8 8,36 1,12 18,72 137,5 -1,-9 -1,-5 -1,-8v-2l-2,-16 -2,-17 -2,-13 -146,-7M281,2941l61,-8 -15,-127h-3l-6,2h-6l-6,3h-6h-7l-3,2h-1h-5l-8,2 -14,1 1,7v3h-1l-16,-3h-1h-10h-13h-2l2,13v2l1,7v1l1,5v4M337,3025l-9,-61 56,-8 6,-28 -48,5M440,3193l-2,28M444,3264l3,23 36,2 109,5 -8,-57 -1,-5 -1,-6 -1,-4 -4,-24M494,3387l-11,-98M363,3291l14,91M421,3109l-60,12M367,3060v-17h36l2,-49 2,-36 -23,-2M390,2928l14,-73M366,2801l-15,2 -9,2 -9,1h-4h-2M620,3294h-28M405,2994l110,7M530,2921l7,-51 1,-4v-5h-3M413,3073l-10,-30M1340,1193l4,121h132M1395,3257l-20,-56 -67,3 2,10 14,48 24,7M1136,3013v3v4v1l1,4v1l1,2 7,37v3l1,5 2,8v3l1,7M1178,3101l34,5 21,-110 -97,-22M1233,2996l25,10 28,-83M1524,3153l-6,-74 -14,-1 -34,21 10,60h11M1212,3106l85,22 -4,-59 42,5M1345,3043l-10,31h27l53,4 5,-4 6,-78h-65l-16,47 -94,-20 7,-17M1362,3074l3,80 40,4 8,-27 2,-53M1193,3229l83,-10 34,-5M1308,3204l-11,-66v-10M1426,2996h65l-4,-17 1,-21v-40h-1h-2h-12h-9h-3h-3l-24,3h-1h-47l-7,23 -18,52M1491,2996l11,67 -6,15h8M1518,3079l53,-5M1624,3016l-19,44 -45,-32 2,-32 -75,-17M1745,2936l3,10 11,7M1593,2954l39,34 -8,28 49,5 5,-25 -7,-50 -32,-2 -10,-7M1587,2947l-1,1h1M1375,3201l10,-20 20,-23M1365,3154l-68,-16M1385,3181l44,25 19,-45 32,-2M1496,3078l-76,-4M1273,3354l-7,-12 -3,-1 -3,-4h-1l-1,-1h-4h-1h-1h-1l-1,-2h-1h-1l-11,-2 -15,-6h-1h-6h-3l-8,-2 -11,-3 -14,-4 -8,-15 -2,-1h-2l-1,1h-3l-21,108M706,3176l-27,5 -8,40 4,25 -14,48M745,3296l-16,-98M913,3402l-11,-93 -2,-20 -46,3 1,27 -19,2 12,79M1038,3048l-112,15 8,40M970,3159l109,-21M624,3001l7,47 56,-7M679,2984l-27,-23M769,2978l-22,-110M704,2880l-51,13M903,2958l3,26 20,79M836,3321l-6,-37 -66,10M996,3404l16,-87 -29,-26 -2,-14M935,3284l-33,25M631,3048l3,33 -14,22 48,-7 11,85M1078,3149l-30,50 17,80 4,5 39,-5 -5,-32M1163,3302l-1,-10 4,-10M1069,3284l19,42 12,83M549,2821l37,87M565,3114l55,-11M514,3020l110,-19 28,-40 1,-68 -67,15 -56,13 -1,5v2l-5,28 -1,3 -3,12v7l-2,10 -1,5 -2,8v2l-1,17v8v10l-1,13 -1,18M983,3291l4,-5 8,-10 70,3M584,3237l87,-16M813,3126l91,-17M906,2984l-116,24M821,3216l9,68M880,3196l29,45 18,5 8,38 46,-7 -18,-118h7l-11,-60 -25,4 -30,6 2,64 -26,23 -27,3M614,2672l-56,-135 -32,3M558,2537l98,-23M1280,2663l-3,-1 -2,-2 -2,-2 -13,-9 -8,-7 -22,-17 -4,-3 -6,-5 -3,-2 -12,-10 -1,-1h-1h-2l-2,-2 -23,-18 -31,43M1393,2379l-3,-8 -3,-15 -1,-15 -1,-5v-2l-1,-6 -1,-9 -3,-11 -2,-12 -1,-2v2l-4,5 -1,2 -3,3 -1,2 -9,11 -6,9 -8,10 -7,8v2l-9,10 -10,15 2,14 2,15 3,30 1,5 1,2v2l4,25v6l2,7v2l1,6 1,10 8,43 1,7 3,13 1,12 -113,-80 -60,92 -14,-12h-2l-7,-5h-2h-1l-7,-7 -3,-1 -5,-4 -18,-13 -3,-2 -3,-3 -3,-2 -3,-1 -25,-19 -2,-1h-1M1287,661l-9,-138M1204,584l-10,57 -22,20M640,2665l72,-15 -35,-88M1186,708l102,-9 5,150h29l131,-3M1271,1386l16,4h15v-37h-30M1174,1458l14,-19 36,5 -26,45 -11,42 -24,13 7,25 6,27v38l7,8 11,-6 12,-5v-4l3,-18h-8l-14,-78M1088,1090l8,75 9,55 31,11 -3,-46h-8l37,-102 22,-58M1082,749l27,161M1191,907l-1,-55 -3,-98M1190,852l103,-3M1268,1390l-20,29 3,42 4,-12 3,-6 1,-4h2h6l20,-49M1136,1231l3,77 103,-4 22,14 -4,-138 -127,5M1010,1298l3,21 76,-13 50,2M1096,1165l-103,20M1162,1083l211,-6M1422,974l-99,3 -124,5M1277,1318h38l29,-4M1339,1178l-79,2M1153,1400l-40,61 15,17 2,8 7,38 11,7 19,-63M1323,977l-1,-128M1209,1609l2,-17 2,-15 -2,-1 15,-43 20,-57 5,-15M1102,1403l-15,5 26,53M1148,1531l15,10v3M1311,528l33,7M1315,1318l-13,35M1267,1439l27,4 26,1 17,2 63,5 24,-5h3h21h2v-15v-12l-2,-19v-9v-1l31,-2M1110,1483l8,-2 10,-3M1490,1662l-8,-8 -69,2 -75,-2 3,25 7,40 15,78h26l10,50h17l-2,-50h29l3,48h52M1503,2015l-84,-7 -47,63 111,88 29,-6M1268,2043l56,116 61,14 55,42 43,-56M1419,2008l-18,-10 -9,27 -30,-7 -25,-28 -1,-10 -1,-2 -11,-13 -5,1 -50,22 -33,50M1399,1847l9,70 10,18 82,-28M1578,3143l2,10M1237,3332l45,-80 -6,-33M1379,2944l-77,-16M637,1494l-2,-11 -72,-39M829,1937l-25,66 23,27h51M993,2011l-4,-28 -3,-22v-1l-9,-48 -98,10 -16,10 -37,-29M503,2080l-118,-37M226,3118l-149,-12M763,1664l21,-5M804,2003l-26,42M757,1815l-23,83 95,39 -3,-34 -6,-63 -63,-25 9,-38 -29,-5M635,1483l67,-103M550,1958l-30,128 116,40 23,-125 -109,-43 -131,-45M550,1958l58,-88 -8,-12M977,1912v-5l-3,-19 -36,-104M903,1722l-50,133 -33,-15M974,1888l9,-1 29,-4 11,-1 11,-2 14,-2 19,-3h5l42,-8h4l6,-2 29,-5h3h4l-7,-48 -4,-28 -1,-7 -2,-17 -1,-8 -1,-2M1160,1860l1,10 136,-23 40,-48 26,-2M1348,1719l-24,3 -144,-2 -40,4M1324,1722l-3,-40 20,-3M1413,1656l-11,-5 -2,-59 -57,-5 -42,-15 -88,5M1194,1636l5,28h-25M1418,1935l-22,-2 -72,32M1400,1592v-141M1440,2215l-4,5 25,129 6,33 3,9v5l3,10v3l7,-8 2,-2 1,-2 14,-20 5,-6 23,-32 5,-5h1M1297,1847l22,119M1190,2028l-29,-158M1180,2228l3,2v1h1l1,2 1,1 1,2h1h1l30,27 14,13 30,-33 61,-84M1592,2657l-27,40 39,41 44,-26M1604,2738l15,19 47,15M1473,2409l-56,75 89,63 4,-7M1430,2644l76,-97M168,2820l24,1 -8,-44 68,-15 -12,-65 16,-4M241,2614l4,-17 -48,-3M373,2402l66,25h30M1565,2697l-22,40 -8,11 98,106M1375,2765l5,5 2,2 2,1h1l1,2 1,2 49,38 10,8 2,5h3l5,5 13,10 3,3h1l2,2 26,-43 34,-57M1543,2737l-95,-80M1631,2856l-95,-40 -18,102h1l5,-2h1h9l2,-1 13,-4h2h3h1l3,-1h4h3h2h1l6,1 5,2h1h4l8,2 7,1h2h1l2,1M1461,2349h-8l-5,7 -10,2 -4,-5 -12,20 -9,-2 -2,8 -5,-6 -4,6 -2,-3 -1,-2 -1,-1 -5,6 22,108M1501,2805l35,11M1488,2918h14h2h9h4h1M1475,2848l-2,2v1l-1,2v2l-27,43v2l-5,6 -4,7 -1,3 -2,5M1233,2276l22,22h2l45,25 5,-2 4,-8h1l11,8 1,2 4,3 7,5 10,7M1377,2294l59,-74M252,2762l10,54M361,2397l-15,25 -23,-6 -2,68 2,118 94,30 36,-28 1,-82 -133,-38 -116,-7M1562,2996l20,-40 -94,2M1064,2506l67,-94 -50,-30 -48,-31M1079,2239l21,20 -9,45 -18,39 8,39M1203,2377l15,72 33,25 -15,18M1380,2770l-27,43M1671,2946l-6,-30 37,-21M1718,3062l-39,-21 -6,-20M1429,3206l-8,10 30,21M1582,2956l4,-8M1748,2946l-45,59 -25,-9M484,1805l116,53h12l-3,-106 128,20 26,-108 -57,-30 -51,-27M853,1329l-89,77 -50,103 28,9 29,10 35,-99 -42,-23M777,2096l1,-51 -119,-44M1089,2139l-9,-8 -8,-8 -2,-2h-1l-1,-2 -2,-1 -4,-5 -2,-2 -1,-2 -1,-1h-2l-6,-7 -5,-6 -3,-2v-2l-2,-1 -2,-2 -3,-3 -2,-4h-2l-1,-1 -1,-2 -5,-7 -9,-8 -2,-2 -1,-1 -8,-9M1417,2484l-2,3 -66,85"/>
  <g class="cities">
    <circle r="3" cx="107.8" cy="303.2"/>
    <text x="107.8" y="303.2">Manchester</text>
    <circle r="3" cx="161.7" cy="277.2"/>
    <text x="161.7" y="277.2">Dover</text>
    <circle r="3" cx="30.9" cy="311.0"/>
    <text x="30.9" y="311.0">Keene</text>
  </g>
</svg>