<?xml version="1.0" encoding="utf-8"?>
<!DOCTYPE svg PUBLIC "-//W3C//DTD SVG 1.1//EN" "http://www.w3.org/Graphics/SVG/1.1/DTD/svg11.dtd">
<svg version="1.1" xmlns="http://www.w3.org/2000/svg" width="182" height="350" viewBox="0 0 182 350">
  <path class="state" transform="scale(0.1)" d="M1605,2918l-23,38 11,-5 63,-3 -23,-15 5,-63 37,5 60,51 34,40 -54,95 -21,37 1,30 -16,26 -24,-20 1,24 17,1 3,4 -3,23 -4,0 -3,1 -4,2 -2,0 -1,2 -5,3 -10,7 -2,-4 -11,-6 -3,-2 -2,-2 -1,-1 -2,-4 -2,-1 -2,0 -8,-5 -3,-4 -12,-3 -2,-3 -2,0 -2,0 -5,0 -1,0 -2,0 -9,3 -3,0 -3,2 -3,1 -4,2 -11,7 -5,5 -4,1 -2,2 -1,0 -3,2 -3,1 -6,0 -4,2 -1,0 -5,2 -3,0 -2,0 -6,1 -6,0 -10,4 -1,0 -6,1 -8,2 -3,3 -4,5 -5,5 -2,5 -3,5 -5,10 0,4 -3,10 -2,8 -1,5 -3,8 -2,-1 -4,-2 -18,-5 -10,-3 -2,0 -4,-2 -5,-2 -2,0 -3,0 -13,-5 -10,5 -5,2 -1,2 -3,0 -12,8 -2,2 -14,16 -1,4 -2,1 0,15 2,15 0,2 1,15 0,1 0,4 2,16 -6,-3 -5,-2 -6,0 -4,-1 -2,0 -1,-2 -5,0 -6,-2 -5,-1 -8,1 -12,4 -2,1 -1,0 -3,2 -4,5 -3,2 -6,8 -2,3 -7,12 -3,7 -8,10 -1,0 -6,8 -17,0 -4,0 -12,0 -10,0 -4,0 -1,-2 -6,0 -12,0 -3,0 -2,0 -4,0 -9,0 -2,0 -2,0 -16,-1 -13,0 -3,0 -9,0 -1,0 -7,0 -6,0 -2,0 -2,0 -7,0 -5,-2 -12,0 -10,0 -5,0 -2,0 -3,0 -5,0 -10,-3 -6,0 -16,0 -2,0 -2,0 -6,0 -3,0 -15,0 -17,0 -15,0 -10,0 -2,0 -5,0 -10,-2 -1,0 -1,0 -3,0 -6,0 -1,0 -7,0 -13,0 -7,0 -1,0 -12,-2 -11,0 -2,0 -25,0 -21,-1 -2,0 -15,0 -3,0 -13,0 -6,-2 -6,0 -7,0 -17,0 -25,-2 -23,0 -10,-1 -11,0 -1,0 -23,0 -5,-2 -1,0 -7,0 -13,0 -5,0 -16,0 -2,0 -3,-3 -12,0 -2,0 -2,0 -4,0 -1,0 -6,0 -3,0 -3,0 -2,0 -1,0 -3,-2 -12,0 -11,0 -8,0 -7,0 -17,0 -3,0 -2,0 -1,0 -4,0 -20,-2 -13,0 -1,0 -26,-1 -17,0 -3,0 -2,0 -13,-2 -12,0 -6,0 -11,0 -8,-2 -4,0 -6,0 -6,0 -3,0 -12,0 -7,-1 -14,0 -6,0 -13,-2 -18,0 -20,-2 -8,0 -8,0 -10,0 -15,-3 -6,0 -4,0 -10,-2 -9,0 -15,0 -14,0 -4,0 -1,0 0,-3 -12,-18 -2,-5 -16,-32 -3,-3 -2,0 -2,0 -9,12 -5,-9 4,-5 0,-3 0,-2 -20,-25 -5,-1 -6,-15 0,-4 -1,-5 -3,-8 -1,-10 0,-5 -6,-22 9,-41 6,-3 5,-7 3,-22 6,-3 -2,-18 0,-2 1,-5 -2,-15 -4,-3 0,-9 12,-10 3,0 12,-3 12,-3 6,-7 3,-2 6,5 24,-36 1,0 4,-9 0,-3 0,-3 -1,-2 -16,-41 9,-24 4,-5 8,-8 6,-12 -5,-28 5,-20 -5,-13 -1,-7 -1,0 -3,0 -1,0 -3,-2 -5,-10 1,-5 2,-1 2,-13 7,-22 9,-65 8,-40 4,-3 26,-63 -13,-20 18,-39 -20,-3 -2,-3 0,-22 5,-8 16,-75 1,-5 0,-3 0,-4 0,-3 0,-3 6,-17 1,-2 2,-5 1,-8 0,-2 0,-3 0,-3 -3,-9 -1,-1 -1,0 -11,-17 9,-18 8,-15 0,-2 -1,-6 0,-2 0,-13 1,-9 1,-1 0,-9 5,-6 7,-5 15,-7 2,-2 3,-3 14,-12 0,-1 2,-7 10,-43 3,-10 14,-70 56,-52 32,-35 0,-1 2,-9 0,-1 14,-27 4,-13 -1,-3 1,-19 2,-6 0,-4 -1,-13 -4,-12 1,-1 1,-4 4,-6 4,0 2,0 3,-2 2,-2 2,-1 -2,-4 -3,-6 0,-2 10,-10 2,-2 3,-10 35,-31 0,-15 0,-2 0,-3 4,-13 6,-2 1,-2 3,-5 2,-1 1,-2 1,-3 -1,-5 2,-2 2,0 1,0 1,-2 2,-1 -3,-2 -11,-3 -1,1 -5,-3 0,-5 0,-2 0,-13 -3,-7 0,-1 1,-2 6,-7 3,-1 1,-2 1,0 -1,-2 0,-3 -1,-2 1,-6 1,-2 4,0 1,0 3,0 1,2 0,3 3,0 -3,-3 0,-2 -1,-3 -1,-2 1,-3 1,-4 2,0 2,0 1,4 2,0 3,0 2,0 0,-7 0,-2 1,-3 1,0 1,0 2,0 -3,-15 1,-2 3,-1 8,-5 3,0 1,-2 -1,-2 -4,-1 -1,-4 1,-1 1,-2 3,0 2,2 2,0 5,-13 2,0 2,-4 0,-5 -2,0 -2,-1 6,-4 3,-3 2,0 1,3 1,2 1,0 2,0 3,-2 1,-3 -1,-2 -4,-1 -1,0 -2,-2 -1,-2 -1,0 -2,-1 1,-2 5,0 2,-2 5,-11 -1,-4 -8,-5 -1,4 -2,3 0,2 -1,3 -2,0 -1,-3 -2,0 -1,0 -2,-2 -1,-17 0,-1 0,-4 0,-1 1,-2 0,-2 1,0 0,2 2,-5 2,0 4,-2 2,0 1,0 2,0 1,-1 3,-9 -3,0 -3,-5 -1,0 0,-3 0,-7 0,-1 0,-4 -1,0 2,-8 0,-2 0,-1 -3,0 1,-5 -3,0 -2,0 -1,-5 -3,-2 -1,-2 -1,-3 0,-3 -1,-4 -1,-1 -2,-7 -5,-7 -2,-1 0,-2 0,-3 2,-7 2,-1 1,-2 2,-2 1,-3 0,-3 0,-2 -3,-3 3,-2 2,0 1,-2 2,-6 -1,-2 -1,-5 1,-3 1,-4 2,-5 0,-3 2,-2 1,-1 -1,-2 -1,-5 -2,-2 -3,-5 0,-1 -1,-2 -1,-3 -1,-2 -1,-7 -2,0 0,-1 0,-4 2,-3 1,3 0,-3 -1,-2 1,-1 -3,0 -2,1 -3,0 0,-8 7,-13 1,-2 3,-2 2,-5 3,0 3,0 1,-1 1,-2 1,-2 2,0 1,0 1,0 2,-3 1,-2 1,-1 2,-4 0,-3 0,-5 0,-2 1,-1 0,-2 -1,-2 1,-8 3,0 2,0 4,0 2,0 1,0 3,0 1,0 3,0 5,-2 3,-1 1,0 0,-2 8,-3 3,-2 2,-1 1,-7 1,0 3,-2 4,0 3,2 9,0 3,0 5,-2 2,0 7,0 8,4 7,-4 3,-5 4,-1 2,-5 2,0 9,-2 1,0 5,2 4,0 3,5 1,0 3,0 4,3 4,2 7,3 2,0 1,-2 2,0 0,-1 2,0 1,0 1,-2 2,0 2,0 1,0 3,0 1,0 1,-2 7,-5 3,-1 1,0 2,-2 5,-3 2,0 2,0 1,-2 1,0 1,0 3,0 2,-2 3,-1 2,0 -2,-10 -1,-2 0,-2 -1,-1 0,-2 2,-2 2,-5 -2,-1 -1,0 0,-4 1,-1 0,-4 1,-1 4,-2 6,0 -1,-10 1,-2 3,-3 2,-2 2,-3 2,0 7,0 4,0 1,0 4,-2 4,-3 6,-3 12,5 4,1 2,0 2,-1 1,0 0,-4 2,-5 3,-1 4,0 11,0 1,0 4,0 12,-7 4,-3 1,-2 2,-2 3,-1 1,0 2,-2 1,-2 0,-1 4,-4 2,-5 0,-1 0,-2 1,0 2,-2 20,-31 11,-7 -2,-1 -2,-2 -1,-2 11,-13 0,2 -1,3 3,3 8,-3 1,-2 2,-5 7,-3 4,0 3,0 3,-2 3,-1 1,-5 2,-2 4,-10 0,2 3,0 0,-2 0,-3 2,0 3,1 3,0 1,-3 0,-2 -3,-1 -1,-2 -1,-2 -2,-1 -2,-4 -5,-6 0,-2 0,-3 5,0 9,-7 -3,-22 -1,-1 -1,-24 1,0 7,0 14,-3 2,-3 3,0 3,-7 -3,-2 0,-6 6,3 9,-8 1,-4 -4,-1 0,-2 1,-1 1,-2 -1,-2 -2,0 -2,2 -3,2 -1,0 1,-4 0,-1 0,-2 -1,0 -6,2 0,-4 1,-1 0,-2 -8,-3 4,0 4,-5 -1,-5 -2,-5 0,-4 0,-3 0,-2 2,-5 1,2 2,2 2,1 1,0 -1,-5 -1,-3 0,-3 -4,0 -2,-4 -2,-1 -4,-5 2,-2 2,-3 -1,-2 -2,-5 -1,0 0,-3 -4,-5 0,3 -2,2 -2,0 -5,-5 0,-2 0,-2 -6,0 -3,-1 -1,-4 0,-3 1,0 2,-2 -2,-6 -1,0 1,-2 4,-2 0,-1 -1,0 -1,-2 -2,0 -1,0 -1,0 -1,-2 -4,-5 -2,0 2,-1 0,-4 -2,-5 0,-3 0,-5 0,-3 -3,-2 -1,-2 0,-1 -5,-10 -10,-17 0,-1 -2,-7 -2,0 -1,0 -2,-8 0,-2 -1,-5 0,-2 -4,-8 -1,0 32,-38 21,-29 1,-1 -1,-12 -1,-2 -2,0 0,-5 0,-3 2,-3 2,0 3,-2 2,-2 7,-10 2,-3 1,-15 0,-2 0,-3 0,-3 6,-12 1,-5 2,0 3,-1 12,-9 1,-1 3,-5 3,-4 3,-5 6,-8 2,-5 9,-12 1,0 4,-6 0,-2 -6,-5 -1,0 -2,-3 -8,-10 -1,-2 -2,-2 -1,-5 0,-1 0,-2 -1,-2 -2,-1 -1,0 0,-2 1,0 3,-2 0,-6 0,-2 0,-2 -2,-1 0,-2 2,-2 1,-6 -1,-7 -1,-3 -3,-2 -1,-2 -5,-8 -1,0 -2,-2 -1,-3 -1,-2 -1,-1 -2,0 -3,-7 2,-3 1,-7 2,-3 23,-15 1,0 19,7 2,0 2,0 2,-5 -18,-9 -1,-1 1,-7 0,-3 1,-2 0,-3 2,-5 3,-5 0,-2 1,-2 0,-5 -9,-6 -3,-4 0,-3 2,-2 4,-5 -1,-3 2,-3 1,-2 0,-7 8,-8 1,-3 1,-2 5,-7 1,0 1,0 6,0 2,0 1,-1 1,-4 1,-3 5,-7 1,-5 2,0 5,-6 1,-5 0,-2 1,-3 2,0 3,-2 2,-1 3,-4 5,-5 2,-3 1,0 1,-2 0,-1 1,-4 -1,-1 0,-2 -4,-7 -4,-6 1,-4 3,-5 4,-3 1,-3 2,-7 0,-2 0,-8 4,-5 1,-2 3,-6 0,-2 0,-5 1,-2 1,-1 3,-4 1,-1 3,-10 2,-4 3,-1 1,-4 0,-3 -1,-3 -2,-5 -3,-4 -1,0 -6,-3 -1,0 -2,-3 -2,-2 -3,-2 -4,-3 -11,-8 -3,-5 3,-4 1,0 11,7 1,0 9,-5 3,-2 5,-3 7,0 3,2 10,5 3,-10 5,-2 5,-3 8,-5 1,-2 1,-3 0,-2 -2,-3 -2,-7 6,-5 12,-5 3,0 2,-1 1,-4 5,-6 20,-10 13,-14 7,0 6,5 4,0 6,5 4,19 2,5 1,1 2,0 7,5 3,0 1,2 7,8 3,5 0,2 1,5 2,0 1,0 9,0 2,0 6,0 3,-2 3,-3 2,0 2,0 1,3 6,5 3,5 4,2 1,3 6,-5 2,-3 7,-2 3,-3 4,5 6,3 3,5 8,-5 12,-13 4,-8 2,-10 3,-9 3,-1 2,0 1,-4 1,-1 0,-4 -2,-5 4,-6 1,-4 4,-8 2,-2 6,-3 4,0 1,0 1,8 1,5 1,15 2,25 1,7 0,10 2,5 0,28 2,42 1,6 1,20 1,2 1,22 1,11 0,4 1,20 1,3 1,25 1,11 0,4 2,40 1,16 2,35 0,7 0,3 0,10 7,82 1,8 1,18 1,20 0,7 1,10 1,8 0,9 1,3 0,2 1,11 0,4 1,16 2,20 0,5 2,20 0,18 2,27 0,13 0,9 2,11 1,20 2,32 1,16 0,5 1,19 1,15 2,28 1,27 1,18 1,25 0,8 0,32 0,5 1,5 0,3 0,8 1,7 0,2 1,18 0,7 0,11 2,19 1,5 0,5 0,6 0,9 0,5 2,11 0,13 1,14 0,8 0,8 2,15 1,22 0,5 0,10 0,10 0,2 0,3 1,3 1,17 0,12 1,11 1,22 1,28 0,3 1,9 0,10 1,13 0,7 0,3 1,8 0,9 0,3 0,5 1,8 0,5 0,9 1,15 1,15 0,3 0,3 1,32 1,15 0,3 1,48 1,15 0,2 0,3 0,5 0,12 0,3 0,2 0,7 0,1 2,20 1,32 0,3 2,5 0,2 0,5 1,23 0,5 0,7 1,6 0,25 2,25 0,4 1,20 0,6 0,15 0,2 0,6 0,5 0,2 1,22 0,13 1,8 0,4 0,3 0,3 0,5 0,5 1,7 0,5 0,3 1,7 0,25 0,7 1,16 0,5 0,8 0,7 0,2 0,3 1,3 0,7 0,3 0,5 2,14 1,6 0,5 0,4 0,3 0,5 2,15 1,8 0,12 0,7 0,5 0,3 0,2 0,5 0,1 1,5 0,7 1,5 0,5 0,3 1,7 0,3 1,15 0,2 1,10 1,11 0,2 0,3 0,2 1,7 0,6 0,7 1,5 0,2 0,3 0,7 0,3 1,3 0,2 0,5 0,3 0,5 1,5 0,5 0,5 0,5 1,4 0,5 3,1 1,0 2,2 1,2 0,1 0,2 3,2 4,0 0,1 1,2 2,8 1,7 -1,6 -1,2 -2,0 -2,0 -2,0 -1,8 3,4 2,3 1,8 2,0 0,5 0,4 -1,1 0,5 1,2 -1,0 -2,3 0,4 0,3 -1,3 -6,4 0,5 -1,3 -2,3 -1,2 0,2 1,1 0,2 0,2 0,1 -2,2 -4,2 3,3 1,0 0,2 1,0 4,0 3,3 1,2 2,3 -1,3 -2,7 -1,2 0,1 -2,2 -1,3 0,2 1,7 3,1 2,4 0,3 -1,3 -4,2 -3,0 0,2 0,3 0,3 0,2 -1,3 -2,2 -1,2 -2,1 -3,0 -1,0 -2,2 0,2 -3,19 0,2 1,2 1,1 1,0 0,5 -4,5 1,5 0,2 0,2 0,3 0,2 2,3 1,0 2,7 4,6 1,2 0,2 1,3 -3,3 5,7 0,2 0,5 0,1 4,-1 -2,3 0,2 2,1 1,2 3,0 4,2 0,1 1,2 2,5 2,0 2,-2 2,0 3,0 1,0 1,0 4,0 1,0 3,-1 2,0 1,1 1,0 -1,0 0,2 1,2 0,5 4,1 3,2 0,2 -1,1 1,0 0,2 2,0 2,-2 1,0 0,2 1,2 0,1 4,5 0,2 -2,0 2,7 1,1 2,0 2,2 1,3 4,2 1,2 0,1 2,0 3,4 -1,1 -1,0 -2,0 -4,0 0,2 -1,0 -1,2 0,1 0,2 2,0 8,7 2,0 1,0 2,3 3,2 2,1 1,2 0,3 2,3 1,2 3,0 2,0 2,0 1,3 0,2 3,3 2,2 2,0 3,3 2,2 1,5 2,2 3,1 1,-1 0,-2 0,2 3,0 1,0 2,1 1,0 3,2 3,2 0,1 0,2 0,7 2,1 2,0 2,0 5,0 9,5 1,4 1,0 0,5 2,3 1,2 1,1 1,2 0,2 -1,1 -1,4 0,1 0,2 -1,2 -2,1 -2,7 -2,5 0,3 0,5 0,2 0,3 0,2 0,3 -1,0 -3,2 -2,0 -1,3 0,2 1,0 0,5 2,3 1,7 -1,2 -2,3 0,12 -1,1 -1,4 -1,3 0,2 -2,4 -1,2 0,3 2,5 1,4 -4,23 -21,-15 -1,0 0,2 -14,10 9,40 -21,13Z"/>
  <g class="counties" transform="scale(0.1)">
    <path data-fips-int="33001" data-name="Belknap County" d="M1096,2146l7,7 1,2 2,1 2,2 4,3 18,18 8,9 11,8 28,28 3,4 3,1 1,2 1,2 1,1 1,2 17,13 15,14 14,13 24,22 32,6 13,19 5,-2 4,-8 1,0 11,8 1,2 4,3 7,5 10,6 -7,9 0,1 -9,10 -10,15 0,5 2,10 2,15 4,35 1,2 21,133 -6,8 -30,37 -2,5 -14,18 -11,15 -6,9 -3,-2 -2,-3 -1,0 -44,-34 -4,-3 -6,-5 -3,-2 -12,-8 -1,-2 -1,0 -2,-1 -25,-20 -23,-19 -2,0 -11,-6 -5,-4 -18,-13 -3,-2 -6,-5 -3,-1 -25,-19 -2,-1 -1,0 -3,-2 -10,-7 -19,-14 -2,-2 -11,-7 -1,-1 -12,-9 -2,-1 -5,-4 -7,-5 -4,-3 -1,-2 -1,0 -3,-3 -3,-2 -3,-1 -2,-2 -2,0 -3,-2 -2,0 0,-1 -2,0 -2,1 -3,4 -2,0 -2,0 -8,8 -1,2 -8,3 -2,0 -4,-2 -1,2 0,3 0,2 -2,0 -1,2 -3,1 -3,-6 -2,0 -4,1 -2,-1 -1,0 -1,-4 -1,-1 -1,0 -2,0 0,-2 -1,-2 -3,-8 -3,-7 3,-1 -2,-4 0,-3 -2,-5 4,0 -1,-3 -3,-7 0,-3 -9,-17 -9,3 -5,2 0,-3 -1,-2 -5,-3 -1,-2 -2,0 -7,-2 -2,-1 -5,-5 -1,-4 -1,-1 -3,-4 -3,-5 -3,-3 0,-2 1,-3 1,-2 1,-5 1,-1 -2,-4 -1,-1 -4,-2 -3,-3 -2,-2 -6,-3 -1,0 -1,-2 -2,-3 0,-4 -2,-3 -1,-5 -6,-1 -2,-2 -5,-8 -1,-4 1,0 1,-1 1,-2 1,-3 -1,-2 1,-3 7,-7 0,-3 -3,-4 -4,-3 -2,-2 -4,-3 0,-2 0,-1 3,-5 1,0 2,0 3,0 2,0 1,-2 1,-3 9,0 2,5 1,1 26,-8 11,-5 0,-5 -1,-3 0,-2 0,-3 10,-5 2,-2 1,-2 -3,-5 -3,-5 0,-1 1,-2 1,-2 1,-1 1,-5 0,-4 1,-1 1,-2 -2,-5 -1,-3 -1,-4 0,-1 0,-9 0,-1 2,-4 1,0 1,-18 -1,-1 1,-2 2,-3 3,-4 9,0 4,-1 3,0 3,0 2,0 4,0 4,-2 5,0 10,-2 9,-1 6,0 19,-2 14,-2 21,-3 -1,-18 -1,-2 0,-2 -1,-10 -1,-10 -5,-45 8,9 1,1 2,2 9,8 6,9 1,1 2,0 2,4 5,5 2,1 0,2 3,2 11,13 2,0 1,2 3,3 4,5 2,2 1,1 3,2 8,8 9,9 2,1 2,2Z"/>
    <path data-fips-int="33003" data-name="Carroll County" d="M1479,1388l1,13 0,7 0,3 1,8 0,9 0,3 0,5 1,8 0,5 0,9 1,15 1,15 0,3 0,3 1,32 1,15 0,3 1,48 1,15 0,2 0,3 0,5 0,12 0,3 0,2 0,7 0,1 2,20 1,32 0,3 2,5 0,2 0,5 1,23 0,5 0,7 1,6 0,25 2,25 0,4 1,20 0,6 0,15 0,2 0,6 0,5 0,2 1,22 0,13 1,8 0,4 0,3 0,3 0,5 0,5 1,7 0,5 0,3 1,7 0,25 0,7 1,16 0,5 0,8 0,7 0,2 0,3 1,3 0,7 0,3 0,5 2,14 1,6 0,5 0,4 0,3 0,5 2,15 1,8 0,12 0,7 0,5 0,3 0,2 0,5 0,1 1,5 0,7 1,5 0,5 0,3 1,7 0,3 1,15 0,2 1,10 1,11 0,2 0,3 0,2 1,7 0,6 0,7 1,5 0,2 0,3 0,7 0,3 1,3 0,2 0,5 0,3 0,5 1,5 0,5 0,5 0,5 1,4 0,5 3,1 1,0 2,2 1,2 0,1 0,2 3,2 4,0 0,1 1,2 2,8 1,7 -1,6 -1,2 -2,0 -2,0 -2,0 -1,0 -5,5 -23,32 -5,6 -14,20 -1,2 -2,2 -7,8 0,-3 -3,-10 0,-5 -1,-4 0,-1 -2,-4 -6,-33 -8,0 -5,7 -10,1 -4,-5 -12,20 -9,-1 -2,8 -5,-7 -4,7 -4,-7 -5,7 -3,-8 -3,-15 -1,-15 0,-5 -2,-8 -1,-9 -3,-13 -2,-10 -1,-2 0,2 -4,5 -1,2 -3,3 -10,13 -6,7 0,2 -8,9 -10,-6 -7,-5 -4,-3 -1,-2 -11,-8 -1,0 -4,8 -5,2 -13,-19 -32,-6 -24,-22 -14,-13 -15,-14 -17,-13 -1,-2 -1,-1 -1,-2 -1,-2 -3,-1 -3,-4 -28,-28 -11,-8 -8,-9 -18,-18 -4,-3 -2,-2 -2,-1 -1,-2 -7,-7 -3,-3 -2,-2 -2,-1 -9,-9 -8,-8 -3,-2 -1,-1 -2,-2 -4,-5 -3,-3 -1,-2 -2,0 -11,-13 -3,-2 0,-2 -2,-1 -5,-5 -2,-4 -2,0 -1,-1 -6,-9 -9,-8 -2,-2 -1,-1 -8,-9 -2,-11 -2,-19 0,-5 -1,-5 -6,0 -4,-28 -3,-21 0,-2 -9,-48 0,-5 -3,-19 9,-1 29,-4 11,-1 11,-2 15,-2 18,-3 5,0 42,-8 4,0 6,-2 29,-5 3,0 4,0 -1,-8 -6,-40 -4,-28 -1,-7 -2,-17 0,-3 -1,-5 -1,-2 -1,-8 -2,-13 0,-2 -1,-3 8,-14 26,-46 -24,-12 -2,-6 -7,-20 5,-9 0,-18 -2,-7 -3,-11 -4,-19 -9,-13 -16,-8 -7,-39 -5,-19 10,0 8,-2 10,-3 2,10 7,34 11,9 15,10 0,3 1,0 6,25 6,25 0,40 7,8 11,-8 12,-8 3,-17 2,-17 2,-15 -2,-1 15,-45 20,-55 5,-17 3,-8 5,-10 2,0 6,0 27,2 26,1 17,2 25,2 38,3 23,-3 4,0 23,-2 0,-15 0,-12 -2,-20 0,-6 0,-5Z"/>
    <path data-fips-int="33005" data-name="Cheshire County" d="M404,2856l15,2 2,0 15,0 44,2 5,0 6,0 1,0 43,1 3,0 0,4 -8,56 -7,39 -3,11 -1,10 -1,7 -1,3 -2,12 -1,16 0,9 0,10 -1,13 -1,18 -1,27 53,2 1,16 1,4 2,10 1,6 1,7 2,17 2,16 0,2 2,6 1,15 4,25 1,4 1,8 1,3 8,55 28,4 2,13 3,15 1,10 8,53 0,5 -7,0 -13,0 -5,0 -16,0 -2,0 -3,-3 -12,0 -2,0 -2,0 -4,0 -1,0 -6,0 -3,0 -3,0 -2,0 -1,0 -3,-2 -12,0 -11,0 -8,0 -7,0 -17,0 -3,0 -2,0 -1,0 -4,0 -20,-2 -13,0 -1,0 -26,-1 -17,0 -3,0 -2,0 -13,-2 -12,0 -6,0 -11,0 -8,-2 -4,0 -6,0 -6,0 -3,0 -12,0 -7,-1 -14,0 -6,0 -13,-2 -18,0 -20,-2 -8,0 -8,0 -10,0 -15,-3 -6,0 -4,0 -10,-2 -9,0 -15,0 -14,0 -4,0 -1,0 0,-3 -12,-18 -2,-5 -16,-32 -3,-3 -2,0 -2,0 -9,12 -5,-9 4,-5 0,-3 0,-2 -20,-25 -5,-1 -6,-15 0,-4 -1,-5 -3,-8 -1,-10 0,-5 -6,-22 9,-41 6,-3 5,-7 3,-22 6,-3 -2,-18 0,-2 1,-5 -2,-15 -4,-3 0,-9 12,-10 3,0 12,-3 12,-3 6,-7 3,-2 6,5 24,-36 1,0 4,-9 0,-3 0,-3 -1,-2 -16,-41 9,-24 4,-5 8,-8 6,-12 -5,-28 5,-20 -5,-13 -1,-7 -1,0 -3,0 -1,0 -3,-2 -5,-10 1,-5 2,-1 2,-13 2,0 2,0 2,0 11,1 0,15 0,15 15,2 6,0 2,0 11,3 3,0 2,0 3,0 3,2 4,0 7,0 0,-5 -1,-4 0,-1 -1,-5 0,-4 -2,-13 2,0 4,0 9,2 10,0 17,-8 14,-2 8,-2 5,0 1,0 3,-1 7,0 6,0 6,-2 6,0 6,-2 3,0 2,0 4,-1 33,-5 6,0 10,-2 26,-5 2,0 4,0 11,-2Z"/>
    <path data-fips-int="33007" data-name="Coos County" d="M1411,162l0,28 2,42 1,6 1,20 1,2 1,22 1,11 0,4 1,20 1,3 1,25 1,11 0,4 2,40 1,16 2,35 0,7 0,3 0,10 7,82 1,8 1,18 1,20 0,7 1,10 1,8 0,9 1,3 0,2 1,11 0,4 1,16 2,20 0,5 2,20 0,18 2,27 0,13 0,9 2,11 1,20 2,32 1,16 0,5 1,19 1,15 2,28 1,27 1,18 1,25 0,8 0,32 0,5 1,5 0,3 0,8 1,7 0,2 1,18 0,7 0,11 2,19 1,5 0,5 0,6 0,9 0,5 2,11 0,13 1,14 0,8 0,8 2,15 1,22 0,5 0,10 0,10 0,2 0,3 1,3 1,17 0,12 1,11 1,22 1,28 0,3 1,9 0,10 -31,0 0,5 0,6 2,20 0,12 0,15 -23,2 -4,0 -23,3 -38,-3 -25,-2 -17,-2 -26,-1 -27,-2 -6,0 -2,0 -5,10 -3,8 -5,17 -20,55 -15,45 2,1 -2,15 -2,17 -3,17 -12,8 -11,8 -7,-8 0,-40 -6,-25 -6,-25 -1,0 0,-3 -15,-10 -11,-9 -7,-34 -2,-10 -10,3 -8,2 -13,-25 -4,-7 -8,-17 -2,-1 -5,-2 -7,-3 -1,-2 -3,-2 -2,0 -3,-1 -1,-4 -28,7 -3,0 -3,0 0,-2 -1,-5 -1,-1 -17,1 -3,0 -2,0 -3,0 -21,5 -1,2 -4,0 -12,2 0,-12 -1,-5 0,-2 -1,-5 -2,-10 -5,-30 -12,-6 -3,-2 -13,-5 -14,-8 -13,-4 -4,-1 -7,-4 -6,-3 -12,-6 -6,-2 -8,3 -2,4 -5,-10 -23,-34 -2,-3 -8,-8 -5,-12 -8,-12 -2,-3 -7,-12 -1,-1 12,5 4,1 2,0 2,-1 1,0 0,-4 2,-5 3,-1 4,0 11,0 1,0 4,0 12,-7 4,-3 1,-2 2,-2 3,-1 1,0 2,-2 1,-2 0,-1 4,-4 2,-5 0,-1 0,-2 1,0 2,-2 20,-31 11,-7 -2,-1 -2,-2 -1,-2 11,-13 0,2 -1,3 3,3 8,-3 1,-2 2,-5 7,-3 4,0 3,0 3,-2 3,-1 1,-5 2,-2 4,-10 0,2 3,0 0,-2 0,-3 2,0 3,1 3,0 1,-3 0,-2 -3,-1 -1,-2 -1,-2 -2,-1 -2,-4 -5,-6 0,-2 0,-3 5,0 9,-7 -3,-22 -1,-1 -1,-24 1,0 7,0 14,-3 2,-3 3,0 3,-7 -3,-2 0,-6 6,3 9,-8 1,-4 -4,-1 0,-2 1,-1 1,-2 -1,-2 -2,0 -2,2 -3,2 -1,0 1,-4 0,-1 0,-2 -1,0 -6,2 0,-4 1,-1 0,-2 -8,-3 4,0 4,-5 -1,-5 -2,-5 0,-4 0,-3 0,-2 2,-5 1,2 2,2 2,1 1,0 -1,-5 -1,-3 0,-3 -4,0 -2,-4 -2,-1 -4,-5 2,-2 2,-3 -1,-2 -2,-5 -1,0 0,-3 -4,-5 0,3 -2,2 -2,0 -5,-5 0,-2 0,-2 -6,0 -3,-1 -1,-4 0,-3 1,0 2,-2 -2,-6 -1,0 1,-2 4,-2 0,-1 -1,0 -1,-2 -2,0 -1,0 -1,0 -1,-2 -4,-5 -2,0 2,-1 0,-4 -2,-5 0,-3 0,-5 0,-3 -3,-2 -1,-2 0,-1 -5,-10 -10,-17 0,-1 -2,-7 -2,0 -1,0 -2,-8 0,-2 -1,-5 0,-2 -4,-8 -1,0 32,-38 21,-29 1,-1 -1,-12 -1,-2 -2,0 0,-5 0,-3 2,-3 2,0 3,-2 2,-2 7,-10 2,-3 1,-15 0,-2 0,-3 0,-3 6,-12 1,-5 2,0 3,-1 12,-9 1,-1 3,-5 3,-4 3,-5 6,-8 2,-5 9,-12 1,0 4,-6 0,-2 -6,-5 -1,0 -2,-3 -8,-10 -1,-2 -2,-2 -1,-5 0,-1 0,-2 -1,-2 -2,-1 -1,0 0,-2 1,0 3,-2 0,-6 0,-2 0,-2 -2,-1 0,-2 2,-2 1,-6 -1,-7 -1,-3 -3,-2 -1,-2 -5,-8 -1,0 -2,-2 -1,-3 -1,-2 -1,-1 -2,0 -3,-7 2,-3 1,-7 2,-3 23,-15 1,0 19,7 2,0 2,0 2,-5 -18,-9 -1,-1 1,-7 0,-3 1,-2 0,-3 2,-5 3,-5 0,-2 1,-2 0,-5 -9,-6 -3,-4 0,-3 2,-2 4,-5 -1,-3 2,-3 1,-2 0,-7 8,-8 1,-3 1,-2 5,-7 1,0 1,0 6,0 2,0 1,-1 1,-4 1,-3 5,-7 1,-5 2,0 5,-6 1,-5 0,-2 1,-3 2,0 3,-2 2,-1 3,-4 5,-5 2,-3 1,0 1,-2 0,-1 1,-4 -1,-1 0,-2 -4,-7 -4,-6 1,-4 3,-5 4,-3 1,-3 2,-7 0,-2 0,-8 4,-5 1,-2 3,-6 0,-2 0,-5 1,-2 1,-1 3,-4 1,-1 3,-10 2,-4 3,-1 1,-4 0,-3 -1,-3 -2,-5 -3,-4 -1,0 -6,-3 -1,0 -2,-3 -2,-2 -3,-2 -4,-3 -11,-8 -3,-5 3,-4 1,0 11,7 1,0 9,-5 3,-2 5,-3 7,0 3,2 10,5 3,-10 5,-2 5,-3 8,-5 1,-2 1,-3 0,-2 -2,-3 -2,-7 6,-5 12,-5 3,0 2,-1 1,-4 5,-6 20,-10 13,-14 7,0 6,5 4,0 6,5 4,19 2,5 1,1 2,0 7,5 3,0 1,2 7,8 3,5 0,2 1,5 2,0 1,0 9,0 2,0 6,0 3,-2 3,-3 2,0 2,0 1,3 6,5 3,5 4,2 1,3 6,-5 2,-3 7,-2 3,-3 4,5 6,3 3,5 8,-5 12,-13 4,-8 2,-10 3,-9 3,-1 2,0 1,-4 1,-1 0,-4 -2,-5 4,-6 1,-4 4,-8 2,-2 6,-3 4,0 1,0 1,8 1,5 1,15 2,25 1,7 0,10Z"/>
    <path data-fips-int="33009" data-name="Grafton County" d="M793,1236l7,12 2,3 8,12 5,12 8,8 2,3 23,34 5,10 2,-4 8,-3 6,2 12,6 6,3 7,4 4,1 13,4 14,8 13,5 3,2 12,6 5,30 2,10 1,5 0,2 1,5 0,12 12,-2 4,0 1,-2 21,-5 3,0 2,0 3,0 17,-1 1,1 1,5 0,2 3,0 3,0 28,-7 1,4 3,1 2,0 3,2 1,2 7,3 5,2 2,1 8,17 4,7 13,25 -10,0 5,19 7,39 16,8 9,13 4,19 3,11 2,7 0,18 -5,9 7,20 2,6 24,12 -26,46 -8,14 1,3 0,2 2,13 1,8 1,2 1,5 0,3 2,17 1,7 4,28 6,40 1,8 -4,0 -3,0 -29,5 -6,2 -4,0 -42,8 -5,0 -18,3 -15,2 -11,2 -11,1 -29,4 -9,1 3,19 0,5 9,48 0,2 3,21 4,28 6,0 1,5 0,5 2,19 2,11 5,45 1,10 1,10 0,2 1,2 1,18 -21,3 -14,2 -19,2 -6,0 -9,1 -10,2 -5,0 -4,2 -4,0 -2,0 -3,0 -3,0 -4,1 -9,0 -3,4 -2,3 -1,2 1,1 -1,18 -1,0 -2,4 0,1 0,9 0,1 1,4 1,3 2,5 -1,2 -1,1 0,4 -1,5 -1,1 -1,2 -1,2 0,1 3,5 3,5 -1,2 -2,2 -10,5 0,3 0,2 1,3 0,5 -11,5 -26,8 -1,-1 -2,-5 -9,0 -1,3 -1,2 -2,0 -3,0 -2,0 -1,0 -3,5 0,1 0,2 4,3 2,2 4,3 3,4 0,3 -7,7 -1,3 1,2 -1,3 -1,2 -1,1 0,-1 -1,-2 -1,-2 -1,-1 -4,-2 -4,0 -1,2 -2,0 0,1 -1,2 -5,-3 -1,0 -2,1 -1,0 -1,2 -2,0 -1,-2 -3,-1 -5,6 -3,4 -8,8 -2,-7 -2,-1 -5,0 -5,1 -1,0 -6,4 -1,1 -1,2 -1,2 -5,0 -2,1 -5,5 -1,3 -2,-4 -6,-20 -8,-24 -4,-13 -3,-7 -5,-16 -14,15 -1,0 -2,3 -2,2 -5,6 -4,5 -4,4 -1,1 -20,29 0,1 -6,7 -9,15 -5,6 -3,5 -4,5 -12,-1 -11,-2 -33,-7 -3,0 -8,-1 -55,-9 -2,-11 -19,30 -21,-9 -6,-3 0,-2 11,-18 -21,-8 -13,-7 -6,-3 -3,0 -16,-7 -13,-6 -2,-2 -3,0 -5,-2 -4,-1 -3,-2 -2,-2 -2,0 -53,-10 -4,0 -51,-10 -2,0 -2,0 0,-1 2,-7 10,-43 3,-10 14,-70 56,-52 32,-35 0,-1 2,-9 0,-1 14,-27 4,-13 -1,-3 1,-19 2,-6 0,-4 -1,-13 -4,-12 1,-1 1,-4 4,-6 4,0 2,0 3,-2 2,-2 2,-1 -2,-4 -3,-6 0,-2 10,-10 2,-2 3,-10 35,-31 0,-15 0,-2 0,-3 4,-13 6,-2 1,-2 3,-5 2,-1 1,-2 1,-3 -1,-5 2,-2 2,0 1,0 1,-2 2,-1 -3,-2 -11,-3 -1,1 -5,-3 0,-5 0,-2 0,-13 -3,-7 0,-1 1,-2 6,-7 3,-1 1,-2 1,0 -1,-2 0,-3 -1,-2 1,-6 1,-2 4,0 1,0 3,0 1,2 0,3 3,0 -3,-3 0,-2 -1,-3 -1,-2 1,-3 1,-4 2,0 2,0 1,4 2,0 3,0 2,0 0,-7 0,-2 1,-3 1,0 1,0 2,0 -3,-15 1,-2 3,-1 8,-5 3,0 1,-2 -1,-2 -4,-1 -1,-4 1,-1 1,-2 3,0 2,2 2,0 5,-13 2,0 2,-4 0,-5 -2,0 -2,-1 6,-4 3,-3 2,0 1,3 1,2 1,0 2,0 3,-2 1,-3 -1,-2 -4,-1 -1,0 -2,-2 -1,-2 -1,0 -2,-1 1,-2 5,0 2,-2 5,-11 -1,-4 -8,-5 -1,4 -2,3 0,2 -1,3 -2,0 -1,-3 -2,0 -1,0 -2,-2 -1,-17 0,-1 0,-4 0,-1 1,-2 0,-2 1,0 0,2 2,-5 2,0 4,-2 2,0 1,0 2,0 1,-1 3,-9 -3,0 -3,-5 -1,0 0,-3 0,-7 0,-1 0,-4 -1,0 2,-8 0,-2 0,-1 -3,0 1,-5 -3,0 -2,0 -1,-5 -3,-2 -1,-2 -1,-3 0,-3 -1,-4 -1,-1 -2,-7 -5,-7 -2,-1 0,-2 0,-3 2,-7 2,-1 1,-2 2,-2 1,-3 0,-3 0,-2 -3,-3 3,-2 2,0 1,-2 2,-6 -1,-2 -1,-5 1,-3 1,-4 2,-5 0,-3 2,-2 1,-1 -1,-2 -1,-5 -2,-2 -3,-5 0,-1 -1,-2 -1,-3 -1,-2 -1,-7 -2,0 0,-1 0,-4 2,-3 1,3 0,-3 -1,-2 1,-1 -3,0 -2,1 -3,0 0,-8 7,-13 1,-2 3,-2 2,-5 3,0 3,0 1,-1 1,-2 1,-2 2,0 1,0 1,0 2,-3 1,-2 1,-1 2,-4 0,-3 0,-5 0,-2 1,-1 0,-2 -1,-2 1,-8 3,0 2,0 4,0 2,0 1,0 3,0 1,0 3,0 5,-2 3,-1 1,0 0,-2 8,-3 3,-2 2,-1 1,-7 1,0 3,-2 4,0 3,2 9,0 3,0 5,-2 2,0 7,0 8,4 7,-4 3,-5 4,-1 2,-5 2,0 9,-2 1,0 5,2 4,0 3,5 1,0 3,0 4,3 4,2 7,3 2,0 1,-2 2,0 0,-1 2,0 1,0 1,-2 2,0 2,0 1,0 3,0 1,0 1,-2 7,-5 3,-1 1,0 2,-2 5,-3 2,0 2,0 1,-2 1,0 1,0 3,0 2,-2 3,-1 2,0 -2,-10 -1,-2 0,-2 -1,-1 0,-2 2,-2 2,-5 -2,-1 -1,0 0,-4 1,-1 0,-4 1,-1 4,-2 6,0 -1,-10 1,-2 3,-3 2,-2 2,-3 2,0 7,0 4,0 1,0 4,-2 4,-3 6,-3Z"/>
    <path data-fips-int="33011" data-name="Hillsborough County" d="M704,2880l43,-12 70,-20 2,0 23,-5 3,-2 4,-1 30,-9 2,14 7,35 1,5 14,73 57,-10 2,0 18,-5 10,0 28,-5 6,27 16,-5 6,0 3,6 0,2 0,3 1,2 0,2 2,0 5,1 1,4 2,1 17,-11 0,1 1,4 1,5 0,3 1,5 1,3 0,4 1,4 1,2 5,2 2,0 9,1 2,0 32,10 3,0 2,14 7,36 0,4 3,13 0,3 1,9 1,10 -1,0 -2,0 -4,0 -3,3 -21,3 -3,0 -7,2 -2,0 -3,0 -3,0 -13,2 -4,1 -3,4 1,0 0,1 0,5 1,2 0,3 1,5 4,24 0,1 1,7 1,3 2,12 2,13 1,3 4,20 4,32 11,2 18,0 9,0 11,13 6,8 2,2 5,7 -3,8 0,3 0,5 4,5 3,-1 2,1 1,0 3,7 4,8 14,4 11,3 7,0 26,8 11,2 1,0 1,0 1,1 3,0 4,0 1,2 2,0 2,2 11,15 -2,1 -1,0 -3,2 -4,5 -3,2 -6,8 -2,3 -7,12 -3,7 -8,10 -1,0 -6,8 -17,0 -4,0 -12,0 -10,0 -4,0 -1,-2 -6,0 -12,0 -3,0 -2,0 -4,0 -9,0 -2,0 -2,0 -16,-1 -13,0 -3,0 -9,0 -1,0 -7,0 -6,0 -2,0 -2,0 -7,0 -5,-2 -12,0 -10,0 -5,0 -2,0 -3,0 -5,0 -10,-3 -6,0 -16,0 -2,0 -2,0 -6,0 -3,0 -15,0 -17,0 -15,0 -10,0 -2,0 -5,0 -10,-2 -1,0 -1,0 -3,0 -6,0 -1,0 -7,0 -13,0 -7,0 -1,0 -12,-2 -11,0 -2,0 -25,0 -21,-1 -2,0 -15,0 -3,0 -13,0 -6,-2 -6,0 -7,0 -17,0 -25,-2 -23,0 -10,-1 -11,0 -1,0 -23,0 -5,-2 -1,0 0,-5 -8,-53 -1,-10 -3,-15 -2,-13 -28,-4 -8,-55 -1,-3 -1,-8 -1,-4 -4,-25 -1,-15 -2,-6 0,-2 -2,-16 -2,-17 -1,-7 -1,-6 -2,-10 -1,-4 -1,-16 -53,-2 1,-27 1,-18 1,-13 0,-10 0,-9 1,-16 2,-12 1,-3 1,-7 1,-10 3,-11 7,-39 8,-56 0,-4 -3,0 5,-18 3,-7 6,-14 -8,-30 3,0 18,-7 4,0 5,-2 4,0 47,-15 5,0 24,-6 4,8 4,12 29,61 1,5Z"/>
    <path data-fips-int="33013" data-name="Merrimack County" d="M740,2332l1,-3 5,-5 2,-1 5,0 1,-2 1,-2 1,-1 6,-4 1,0 5,-1 5,0 2,1 2,7 8,-8 3,-4 5,-6 3,1 1,2 2,0 1,-2 1,0 2,-1 1,0 5,3 1,-2 0,-1 2,0 1,-2 4,0 4,2 1,1 1,2 1,2 0,1 -1,0 1,4 5,8 2,2 6,1 1,5 2,3 0,4 2,3 1,2 1,0 6,3 2,2 3,3 4,2 1,1 2,4 -1,1 -1,5 -1,2 -1,3 0,2 3,3 3,5 3,4 1,1 1,4 5,5 2,1 7,2 2,0 1,2 5,3 1,2 0,3 5,-2 9,-3 9,17 0,3 3,7 1,3 -4,0 2,5 0,3 2,4 -3,1 3,7 3,8 1,2 0,2 2,0 1,0 1,1 1,4 1,0 2,1 4,-1 2,0 3,6 3,-1 1,-2 2,0 0,-2 0,-3 1,-2 4,2 2,0 8,-3 1,-2 8,-8 2,0 2,0 3,-4 2,-1 2,0 0,1 2,0 3,2 2,0 2,2 3,1 3,2 3,3 1,0 1,2 4,3 7,5 5,4 2,1 12,9 1,1 11,7 2,2 19,14 10,7 3,2 1,0 2,1 25,19 3,1 6,5 3,2 18,13 5,4 11,6 2,0 23,19 25,20 2,1 1,0 1,2 12,8 3,2 6,5 4,3 44,34 1,0 2,3 3,2 -4,3 -3,5 -4,3 -13,30 -1,0 0,2 -4,8 0,2 -2,5 -6,15 -1,0 -4,10 0,1 -1,2 -1,2 -7,16 -2,2 -19,45 -1,3 -3,-1 -4,13 -2,6 -2,4 -1,3 -1,3 -1,2 -2,2 -4,8 -18,38 -14,35 -2,4 -2,5 -2,3 -13,32 -7,0 -5,-2 1,2 1,1 1,5 9,33 -3,0 -32,-10 -2,0 -9,-1 -2,0 -5,-2 -1,-2 -1,-4 0,-4 -1,-3 -1,-5 0,-3 -1,-5 -1,-4 0,-1 -17,11 -2,-1 -1,-4 -5,-1 -2,0 0,-2 -1,-2 0,-3 0,-2 -3,-6 -6,0 -16,5 -6,-27 -28,5 -10,0 -18,5 -2,0 -57,10 -14,-73 -1,-5 -7,-35 -2,-14 -30,9 -4,1 -3,2 -23,5 -2,0 -70,20 -43,12 -15,-32 -1,-5 -29,-61 -4,-12 -4,-8 -24,6 -5,0 -47,15 -4,0 -5,2 -4,0 -11,-17 -4,-5 -4,-5 -12,-21 0,-4 -4,-33 -17,0 -21,-78 -1,-8 10,-19 3,-5 0,-3 1,-2 1,0 3,-6 18,-34 1,-3 1,-2 0,-15 1,-16 1,-7 -1,-2 -9,-13 0,-3 1,-5 1,-8 2,-7 8,0 20,3 1,0 3,0 1,2 9,-5 1,-3 2,-5 2,-7 2,-3 8,-14 16,-23 1,-3 2,-2 2,-3 2,-5 30,-44 4,-5 3,-5 5,-6 9,-15 6,-7 0,-1 20,-29 1,-1 4,-4 4,-5 5,-6 2,-2 2,-3 1,0 14,-15 5,16 3,7 4,13 8,24 6,20Z"/>
    <path data-fips-int="33019" data-name="Sullivan County" d="M382,2279l2,2 3,2 4,1 5,2 3,0 2,2 13,6 16,7 3,0 6,3 13,7 21,8 -11,18 0,2 6,3 21,9 19,-30 2,11 55,9 8,1 3,0 33,7 11,2 12,1 -30,44 -2,5 -2,3 -2,2 -1,3 -16,23 -8,14 -2,3 -2,7 -2,5 -1,3 -9,5 -1,-2 -3,0 -1,0 -20,-3 -8,0 -2,7 -1,8 -1,5 0,3 9,13 1,2 -1,7 -1,16 0,15 -1,2 -1,3 -18,34 -3,6 -1,0 -1,2 0,3 -3,5 -10,19 1,8 21,78 17,0 4,33 0,4 12,21 4,5 4,5 11,17 -18,7 -3,0 8,30 -6,14 -3,7 -5,18 -43,-1 -1,0 -6,0 -5,0 -44,-2 -15,0 -2,0 -15,-2 21,-63 -11,2 -4,0 -2,0 -26,5 -10,2 -6,0 -33,5 -4,1 -2,0 -3,0 -6,2 -6,0 -6,2 -6,0 -7,0 -3,1 -1,0 -5,0 -8,2 -14,2 -17,8 -10,0 -9,-2 -4,0 -2,0 2,13 0,4 1,5 0,1 1,4 0,5 -7,0 -4,0 -3,-2 -3,0 -2,0 -3,0 -11,-3 -2,0 -6,0 -15,-2 0,-15 0,-15 -11,-1 -2,0 -2,0 -2,0 7,-22 9,-65 8,-40 4,-3 26,-63 -13,-20 18,-39 -20,-3 -2,-3 0,-22 5,-8 16,-75 1,-5 0,-3 0,-4 0,-3 0,-3 6,-17 1,-2 2,-5 1,-8 0,-2 0,-3 0,-3 -3,-9 -1,-1 -1,0 -11,-17 9,-18 8,-15 0,-2 -1,-6 0,-2 0,-13 1,-9 1,-1 0,-9 5,-6 7,-5 15,-7 2,-2 3,-3 14,-12 2,0 2,0 51,10 4,0 53,10Z"/>
    <path data-fips-int="33015" data-name="Rockingham County" d="M1436,2817l10,6 2,5 3,0 24,20 -30,52 -5,6 -5,10 -1,5 24,-1 3,0 26,0 1,0 25,0 4,0 2,0 4,-2 2,0 9,-2 1,-3 27,-3 3,0 2,0 13,1 4,0 8,2 7,3 2,2 1,0 3,0 -23,38 11,-5 63,-3 -23,-15 5,-63 37,5 60,51 34,40 -54,95 -21,37 1,30 -16,26 -24,-20 1,24 17,1 3,4 -3,23 -4,0 -3,1 -4,2 -2,0 -1,2 -5,3 -10,7 -2,-4 -11,-6 -3,-2 -2,-2 -1,-1 -2,-4 -2,-1 -2,0 -8,-5 -3,-4 -12,-3 -2,-3 -2,0 -2,0 -5,0 -1,0 -2,0 -9,3 -3,0 -3,2 -3,1 -4,2 -11,7 -5,5 -4,1 -2,2 -1,0 -3,2 -3,1 -6,0 -4,2 -1,0 -5,2 -3,0 -2,0 -6,1 -6,0 -10,4 -1,0 -6,1 -8,2 -3,3 -4,5 -5,5 -2,5 -3,5 -5,10 0,4 -3,10 -2,8 -1,5 -3,8 -2,-1 -4,-2 -18,-5 -10,-3 -2,0 -4,-2 -5,-2 -2,0 -3,0 -13,-5 -10,5 -5,2 -1,2 -3,0 -12,8 -2,2 -14,16 -1,4 -2,1 0,15 2,15 0,2 1,15 0,1 0,4 2,16 -6,-3 -5,-2 -6,0 -4,-1 -2,0 -1,-2 -5,0 -6,-2 -5,-1 -8,1 -12,4 -11,-15 -2,-2 -2,0 -1,-2 -4,0 -3,0 -1,-1 -1,0 -1,0 -11,-2 -26,-8 -7,0 -11,-3 -14,-4 -4,-8 -3,-7 -1,0 -2,-1 -3,1 -4,-5 0,-5 0,-3 3,-8 -5,-7 -2,-2 -6,-8 -11,-13 -9,0 -18,0 -11,-2 -4,-32 -4,-20 -1,-3 -2,-13 -2,-12 -1,-3 -1,-7 0,-1 -4,-24 -1,-5 0,-3 -1,-2 0,-5 0,-1 -1,0 3,-4 4,-1 13,-2 3,0 3,0 2,0 7,-2 3,0 21,-3 3,-3 4,0 2,0 1,0 -1,-10 -1,-9 0,-3 -3,-13 0,-4 -7,-36 -2,-14 -9,-33 -1,-5 -1,-1 -1,-2 5,2 7,0 13,-32 2,-3 2,-5 2,-4 14,-35 18,-38 4,-8 2,-2 1,-2 1,-3 1,-3 2,-4 2,-6 4,-13 3,1 1,-3 19,-45 2,-2 7,-16 1,-2 1,-2 0,-1 4,-10 1,0 6,-15 2,-5 0,-2 4,-8 0,-2 1,0 13,-30 17,15 16,13 3,2 8,10 10,7 15,11 20,19 2,0 8,8 7,5 5,3 2,2 2,3 1,0 1,2 1,2Z"/>
    <path data-fips-int="33017" data-name="Strafford County" d="M1390,2371l3,8 5,-7 4,7 4,-7 5,7 2,-8 9,1 12,-20 4,5 10,-1 5,-7 8,0 6,33 2,4 0,1 1,4 0,5 3,10 0,3 7,-8 2,-2 1,-2 14,-20 5,-6 23,-32 5,-5 1,0 -1,8 3,4 2,3 1,8 2,0 0,5 0,4 -1,1 0,5 1,2 -1,0 -2,3 0,4 0,3 -1,3 -6,4 0,5 -1,3 -2,3 -1,2 0,2 1,1 0,2 0,2 0,1 -2,2 -4,2 3,3 1,0 0,2 1,0 4,0 3,3 1,2 2,3 -1,3 -2,7 -1,2 0,1 -2,2 -1,3 0,2 1,7 3,1 2,4 0,3 -1,3 -4,2 -3,0 0,2 0,3 0,3 0,2 -1,3 -2,2 -1,2 -2,1 -3,0 -1,0 -2,2 0,2 -3,19 0,2 1,2 1,1 1,0 0,5 -4,5 1,5 0,2 0,2 0,3 0,2 2,3 1,0 2,7 4,6 1,2 0,2 1,3 -3,3 5,7 0,2 0,5 0,1 4,-1 -2,3 0,2 2,1 1,2 3,0 4,2 0,1 1,2 2,5 2,0 2,-2 2,0 3,0 1,0 1,0 4,0 1,0 3,-1 2,0 1,1 1,0 -1,0 0,2 1,2 0,5 4,1 3,2 0,2 -1,1 1,0 0,2 2,0 2,-2 1,0 0,2 1,2 0,1 4,5 0,2 -2,0 2,7 1,1 2,0 2,2 1,3 4,2 1,2 0,1 2,0 3,4 -1,1 -1,0 -2,0 -4,0 0,2 -1,0 -1,2 0,1 0,2 2,0 8,7 2,0 1,0 2,3 3,2 2,1 1,2 0,3 2,3 1,2 3,0 2,0 2,0 1,3 0,2 3,3 2,2 2,0 3,3 2,2 1,5 2,2 3,1 1,-1 0,-2 0,2 3,0 1,0 2,1 1,0 3,2 3,2 0,1 0,2 0,7 2,1 2,0 2,0 5,0 9,5 1,4 1,0 0,5 2,3 1,2 1,1 1,2 0,2 -1,1 -1,4 0,1 0,2 -1,2 -2,1 -2,7 -2,5 0,3 0,5 0,2 0,3 0,2 0,3 -1,0 -3,2 -2,0 -1,3 0,2 1,0 0,5 2,3 1,7 -1,2 -2,3 0,12 -1,1 -1,4 -1,3 0,2 -2,4 -1,2 0,3 2,5 1,4 -4,23 -21,-15 -1,0 0,2 -14,10 9,40 -21,13 -3,0 -1,0 -2,-2 -7,-3 -8,-2 -4,0 -13,-1 -2,0 -3,0 -27,3 -1,3 -9,2 -2,0 -4,2 -2,0 -4,0 -25,0 -1,0 -26,0 -3,0 -24,1 1,-5 5,-10 5,-6 30,-52 -24,-20 -3,0 -2,-5 -10,-6 -49,-40 -1,-2 -1,-2 -1,0 -2,-3 -2,-2 -5,-3 -7,-5 -8,-8 -2,0 -20,-19 -15,-11 -10,-7 -8,-10 -3,-2 -16,-13 -17,-15 4,-3 3,-5 4,-3 6,-9 11,-15 14,-18 2,-5 30,-37 6,-8 -21,-133 -1,-2 -4,-35 -2,-15 -2,-10 0,-5 10,-15 9,-10 0,-1 7,-9 8,-9 0,-2 6,-7 10,-13 3,-3 1,-2 4,-5 0,-2 1,2 2,10 3,13 1,9 2,8 0,5 1,15Z"/>
  </g>
  <g class="subcounties" transform="scale(0.1)">
    <path data-geoid="3301384900" data-name="Wilmot" d="M595,2409l1,-3 2,-2 2,-3 2,-5 30,-44 4,-5 33,89 18,-20 12,25 -30,13 35,76 -27,32 -21,-48 -23,-17 12,-23 -66,-42Z"/>
    <path data-geoid="3301380020" data-name="Webster" d="M769,2599l65,-34 14,44 47,78 -17,8 -53,20Z"/>
    <path data-geoid="3301327380" data-name="Franklin" d="M819,2386l39,-20 0,1 0,2 3,3 3,5 3,4 1,1 1,4 5,5 2,1 7,2 2,0 1,2 5,3 1,2 0,3 5,-2 9,-3 9,17 0,3 3,7 1,3 -4,0 2,5 0,3 2,4 -3,1 3,7 3,8 1,2 0,2 -7,1 3,47 -22,28 -21,10 -26,-37 4,-48 -11,-41Z"/>
    <path data-geoid="3301360020" data-name="Pembroke" d="M1041,2785l-5,-17 21,-1 -4,-19 4,-6 1,0 -1,0 1,0 12,-22 5,-13 6,6 -12,17 55,38 -12,30 22,4 -23,31 -19,28 -25,2 -28,-38 1,-10Z"/>
    <path data-geoid="3301319460" data-name="Dunbarton" d="M879,2831l36,-9 47,36 0,28 62,42 -6,10 -28,5 -10,0 -18,5 -2,0 -57,10 -14,-73 -1,-5 -7,-35Z"/>
    <path data-geoid="3301300660" data-name="Allenstown" d="M1066,2868l1,-5 25,-2 19,-28 23,-31 70,15 -4,13 -2,6 -2,4 -1,3 -1,3 -1,2 -2,2 -4,8 -18,38Z"/>
    <path data-geoid="3301306500" data-name="Bow" d="M939,2817l9,16 64,-33 27,25 28,38 -1,5 -42,60 -62,-42 0,-28 -47,-36Z"/>
    <path data-geoid="3301306260" data-name="Boscawen" d="M834,2565l42,-18 21,-10 3,25 -1,2 17,46 32,15 4,34 -57,28 -47,-78Z"/>
    <path data-geoid="3300768500" data-name="Second College" d="M1344,534l4,-20 82,-5 4,44 1,8 1,18 1,20 0,7 1,10 1,8 0,9 1,3 0,2 1,11 -117,9Z"/>
    <path data-geoid="3300773060" data-name="Stark" d="M1042,932l69,-10 -2,-12 82,-3 8,75 -15,43 -87,50 -9,15 -7,5 -28,-20 -4,-136Z"/>
    <path data-geoid="3300774500" data-name="Success" d="M1339,1178l34,-100 0,-1 49,-103 38,-2 1,25 0,8 0,32 0,5 1,5 0,3 0,8 1,7 0,2 1,18 0,7 0,11 2,19 1,5 0,5 0,6 0,9 0,5 2,11 0,13 1,14 -130,3Z"/>
    <path data-geoid="3300780740" data-name="Wentworth" d="M1286,661l38,-3 117,-9 0,4 1,16 2,20 0,5 -156,7Z"/>
    <path data-geoid="3300784420" data-name="Whitefield" d="M863,1323l72,-65 -20,-28 78,-45 17,115 -66,10 9,54 -12,-6 -3,-2 -13,-5 -14,-8 -13,-4 -4,-1 -7,-4 -6,-3 -12,-6Z"/>
    <path data-geoid="3301312420" data-name="Chichester" d="M1081,2713l64,-86 43,32 -24,24 -40,85 -55,-38Z"/>
    <path data-geoid="3301324900" data-name="Epsom" d="M1124,2768l40,-85 92,22 -1,0 0,2 -4,8 0,2 -2,5 -6,15 -1,0 -4,10 0,1 -1,2 -1,2 -7,16 -2,2 -19,45 -1,3 -3,-1 -70,-15 -22,-4Z"/>
    <path data-geoid="3301306980" data-name="Bradford" d="M510,2700l104,-28 26,-7 40,88 -29,9 -24,6 -5,0 -47,15 -4,0 -5,2 -4,0 -11,-17 -4,-5 -4,-5 -12,-21 0,-4 -4,-33Z"/>
    <path data-geoid="3301337540" data-name="Hopkinton" d="M766,2732l59,-17 53,-20 61,122 -24,5 -36,9 -30,9 -4,1 -3,2 -23,5 -1,0Z"/>
    <path data-geoid="3301335540" data-name="Henniker" d="M651,2762l29,-9 86,-21 52,116 -1,0 -70,20 -43,12 -15,-32 -1,-5 -29,-61 -4,-12Z"/>
    <path data-geoid="3301309860" data-name="Canterbury" d="M899,2564l1,-2 148,-55 16,-2 10,7 3,2 -1,35 -64,91 -5,-10 -55,29 -4,-34 -32,-15Z"/>
    <path data-geoid="3301962340" data-name="Plainfield" d="M213,2351l8,-15 0,-2 -1,-6 0,-2 0,-13 1,-9 1,-1 0,-9 5,-6 7,-5 15,-7 2,-2 3,-3 14,-12 2,0 2,0 51,10 4,0 53,10 2,0 2,2 3,2 4,1 5,2 3,0 2,2 13,6 -17,29 -1,46 -23,33 -12,-5 2,-25 -33,-16 -13,16 -112,-10Z"/>
    <path data-geoid="3301941700" data-name="Lempster" d="M349,2680l73,-13 9,38 25,0 -5,82 -26,6 -11,2 -4,0 -2,0 -26,5 -10,2 -6,0Z"/>
    <path data-geoid="3301952580" data-name="Newport" d="M321,2484l133,38 -1,83 -36,25 -94,-30Z"/>
    <path data-geoid="3301975060" data-name="Sunapee" d="M454,2522l11,-66 57,8 -2,7 -1,8 -1,5 0,3 9,13 1,2 -1,7 -1,16 0,15 -1,2 -1,3 -18,34 -3,6 -1,0 -1,2 0,3 -3,4 -45,11Z"/>
    <path data-geoid="3301972740" data-name="Springfield" d="M469,2427l18,-43 -16,-5 18,-28 19,-30 2,11 55,9 8,1 3,0 33,7 11,2 12,1 -30,44 -2,5 -2,3 -2,2 -1,3 -16,23 -8,14 -2,3 -2,7 -2,5 -1,3 -9,5 -1,-2 -3,0 -1,0 -20,-3 -8,0 -57,-8Z"/>
    <path data-geoid="3301978980" data-name="Washington" d="M425,2793l26,-6 5,-82 54,-5 17,0 4,33 0,4 12,21 4,5 4,5 11,17 -18,7 -3,0 8,30 -6,14 -3,7 -5,18 -43,-1 -1,0 -6,0 -5,0 -44,-2 -15,0 -2,0 -15,-2Z"/>
    <path data-geoid="3301977940" data-name="Unity" d="M241,2614l17,-15 65,1 94,30 5,37 -73,13 -93,13 -20,-38Z"/>
    <path data-geoid="3300934820" data-name="Haverhill" d="M503,1697l1,-2 3,-1 8,-5 3,0 1,-2 -1,-2 -4,-1 -1,-4 1,-1 1,-2 3,0 2,2 2,0 5,-13 2,0 2,-4 0,-5 -2,0 -2,-1 6,-4 3,-3 2,0 1,3 1,2 1,0 2,0 3,-2 1,-3 -1,-2 -4,-1 -1,0 -2,-2 -1,-2 -1,0 -1,-1 -1,0 1,-2 5,0 2,-2 5,-11 -1,-4 -8,-5 -1,4 -2,3 0,2 -1,3 -2,0 -1,-3 -2,0 -1,0 -2,-2 -1,-17 0,-1 0,-4 0,-1 1,-2 0,-2 1,0 -1,2 1,0 2,-5 2,0 4,-2 2,0 1,0 2,0 1,-1 3,-9 -3,0 -3,-5 -1,0 0,-3 0,-7 0,-1 0,-4 -1,0 2,-8 1,0 115,53 -46,145 -54,-28 3,20 -54,-32 -1,0 1,0 2,0Z"/>
    <path data-geoid="3300941860" data-name="Lincoln" d="M825,1551l134,58 40,-110 104,38 -4,24 27,28 -3,18 -38,17 -39,32 2,44 -13,34 -40,16 -57,-40 -23,5 -12,5 -119,-59Z"/>
    <path data-geoid="3301533460" data-name="Hampton Falls" d="M1571,3074l22,-10 23,32 2,7 32,28 5,3 11,17 -6,12 -4,-5 -17,-10 -61,-5Z"/>
    <path data-geoid="3301543220" data-name="Londonderry" d="M1084,3114l4,-1 13,-2 3,0 3,0 2,0 7,-2 3,0 21,-3 3,-3 4,0 2,0 1,0 -1,-10 29,8 15,128 -15,8 0,2 0,-2 0,2 -1,10 -11,33 -1,-1 -5,-7 -2,-2 -6,-8 -11,-13 -9,0 -18,0 -11,-2 -4,-32 -4,-20 -1,-3 -2,-13 -2,-12 -1,-3 -1,-7 0,-1 -4,-24 -1,-5 0,-3 -1,-2 0,-5 0,-1 -1,0Z"/>
    <path data-geoid="3301571140" data-name="South Hampton" d="M1491,3159l32,-5 57,-3 2,15 -9,3 -3,0 -3,2 -3,1 -4,2 -11,7 -5,5 -4,1 -2,2 -1,0 -3,2 -3,1 -6,0 -4,2 -1,0 -5,2 -3,0 -2,0 -6,1Z"/>
    <path data-geoid="3301301460" data-name="Andover" d="M699,2441l42,-20 78,-35 24,35 11,41 -134,60 -16,8 -35,-76Z"/>
    <path data-geoid="3301533060" data-name="Hampton" d="M1605,3061l104,23 -14,44 -17,36 -2,-1 -3,-4 -7,-8 -11,-17 -5,-3 -32,-28 -2,-7 -23,-32Z"/>
    <path data-geoid="3300147140" data-name="Meredith" d="M1012,2176l0,-2 41,-38 36,4 2,1 2,2 3,3 7,7 1,2 2,1 2,2 4,3 18,18 8,9 11,8 28,28 -36,-11 -29,25 -33,1 -18,-15 -38,35 -21,5 23,59 -123,-39Z"/>
    <path data-geoid="3300167300" data-name="Sanbornton" d="M844,2341l58,-57 123,39 8,28 -8,36 -84,32 -22,10 -1,-3 -3,-7 0,-3 -9,-17 -9,3 -5,2 0,-3 -1,-2 -5,-3 -1,-2 -2,0 -7,-2 -2,-1 -5,-5 -1,-4 -1,-1 -3,-4 -3,-5 -3,-3 0,-2 0,-1 1,-2 1,-2 1,-5 1,-1 -2,-4 -1,-1 -4,-2 -3,-3 -2,-2Z"/>
    <path data-geoid="3300177060" data-name="Tilton" d="M915,2429l4,0 22,-10 84,-32 -35,64 -2,-2 -2,0 -3,-2 -2,0 0,-1 -2,0 -2,1 -3,4 -2,0 -2,0 -8,8 -1,2 -8,3 -2,0 -4,-2 -1,2 0,3 0,2 -2,0 -1,2 -3,1 -3,-6 -2,0 -4,1 -2,-1 -1,0 1,0 -1,0 -1,-4 -1,-1 -1,0 -2,0 0,-2 -1,-2 -3,-8 -3,-7 3,-1 -2,-4 0,-3Z"/>
    <path data-geoid="3301773860" data-name="Strafford" d="M1273,2672l3,-5 4,-3 6,-9 11,-15 14,-18 2,-5 30,-37 6,-8 81,72 18,13 -73,108 -7,-5 -8,-8 -2,0 -20,-19 -15,-11 -10,-7 -8,-10 -3,-2 -16,-13 -17,-15Z"/>
    <path data-geoid="3301314200" data-name="Concord" d="M878,2695l17,-8 57,-28 55,-29 5,10 17,33 46,34 -5,13 -12,22 -1,0 1,0 -1,0 -4,6 4,19 -21,1 5,17 -1,30 -1,10 -27,-25 -64,33 -9,-16Z"/>
    <path data-geoid="3301335860" data-name="Hill" d="M740,2332l1,-3 5,-5 2,-1 5,0 1,-2 1,-2 1,-1 6,-4 1,0 5,-1 5,0 2,1 2,7 8,-8 3,-4 5,-6 3,1 1,2 2,0 1,-2 1,0 2,-1 1,0 5,3 1,-2 0,-1 2,0 1,-2 4,0 4,2 1,1 1,2 1,2 0,1 -1,0 1,4 5,8 2,2 6,1 1,5 2,3 0,4 2,3 1,2 1,0 6,3 2,2 3,3 4,2 1,1 2,4 -1,1 -1,5 -1,2 -1,2 -39,20 -78,35 -9,-54Z"/>
    <path data-geoid="3301337300" data-name="Hooksett" d="M1018,2938l6,-10 42,-60 103,28 -14,35 -2,4 -2,5 -2,3 -13,32 -7,0 -4,0 -1,-2 1,2 1,1 1,5 9,33 -3,0 -32,-10 -2,0 -9,-1 -2,0 -5,-2 -1,-2 -1,-4 0,-4 -1,-3 -1,-5 0,-3 -1,-5 -1,-4 0,-1 -17,11 -2,-1 -1,-4 -5,-1 -2,0 0,-2 -1,-2 0,-3 0,-2 -3,-6 -6,0 -16,5Z"/>
    <path data-geoid="3301354260" data-name="Northfield" d="M897,2537l22,-28 -3,-47 7,-1 2,0 1,0 1,1 1,4 1,0 -1,0 1,0 2,1 4,-1 2,0 3,6 3,-1 1,-2 2,0 0,-2 0,-3 1,-2 4,2 2,0 8,-3 1,-2 8,-8 2,0 2,0 3,-4 2,-1 2,0 0,1 2,0 3,2 2,0 2,2 3,1 3,2 3,3 1,0 1,2 4,3 7,5 5,4 2,1 12,9 1,1 11,7 2,2 19,14 -16,2 -148,55 -1,2 1,-2Z"/>
    <path data-geoid="3301316980" data-name="Danbury" d="M636,2347l3,-5 5,-6 9,-15 6,-7 0,-1 20,-29 1,-1 4,-4 4,-5 5,-6 2,-2 2,-3 1,0 14,-15 5,16 3,7 4,13 8,24 6,20 2,4 -8,35 9,54 -42,20 -12,-25 -18,20Z"/>
    <path data-geoid="3300575700" data-name="Swanzey" d="M245,3138l106,5 9,51 -14,67 -1,0 -48,-4 -30,12 -20,-8 -6,-42 -36,-2Z"/>
    <path data-geoid="3300539300" data-name="Keene" d="M230,3053l64,-17 43,-13 2,26 28,12 -25,37 19,21 -10,24 -106,-5 -19,-20 -13,-62Z"/>
    <path data-geoid="3300585540" data-name="Winchester" d="M123,3209l82,8 36,2 6,42 20,8 -16,17 12,91 -20,-2 -8,0 -8,0 -10,0 -15,-3 -6,0 -4,0 -10,-2 -9,0 -15,0 -14,0Z"/>
    <path data-geoid="3300577380" data-name="Troy" d="M345,3261l1,0 14,-67 24,17 54,10 6,45 -33,0 -26,26 -21,-1 -18,-30Z"/>
    <path data-geoid="3300536660" data-name="Hinsdale" d="M50,3202l73,7 21,161 -4,0 -1,0 0,-3 -12,-18 -2,-5 -16,-32 -3,-3 -2,0 -2,0 -9,12 -5,-9 4,-5 0,-3 0,-2 -20,-25 -5,-1 -6,-15 0,-4 -1,-5 -3,-8 -1,-10 0,-5Z"/>
    <path data-geoid="3300578420" data-name="Walpole" d="M147,2941l4,-5 8,-8 6,-12 -5,-28 5,-20 -5,-13 -1,-7 -1,0 -3,0 -1,0 -3,-2 -5,-10 1,-5 2,-1 1,-13 1,0 2,0 2,0 2,0 11,1 0,15 0,15 15,2 6,0 2,0 11,3 3,0 2,0 3,0 3,2 4,0 7,0 11,88 -1,61 -93,-8 -3,-31Z"/>
    <path data-geoid="3300575300" data-name="Surry" d="M234,3004l1,-61 46,-2 13,95 -64,17Z"/>
    <path data-geoid="3301101700" data-name="Antrim" d="M515,3003l0,-2 2,-10 1,-3 1,-7 1,-10 3,-11 7,-39 56,-13 67,-15 -1,67 -18,38 -10,3 -110,18Z"/>
    <path data-geoid="3301144580" data-name="Lyndeborough" d="M750,3088l54,-9 9,47 6,32 24,24 10,19 -32,13 -6,-28 -86,11 -23,-21 18,-13Z"/>
    <path data-geoid="3301131940" data-name="Greenville" d="M735,3299l10,-2 19,-5 11,78 -28,5Z"/>
    <path data-geoid="3301151940" data-name="New Ipswich" d="M661,3296l74,3 12,76 3,22 -17,0 -25,-2 -23,0 -10,-1 -11,0 -1,0 -23,0 -5,-2 -1,0 0,-5 -8,-53 -1,-10 -3,-15 -2,-13Z"/>
    <path data-geoid="3300907700" data-name="Bristol" d="M764,2183l31,-17 11,12 0,1 -14,9 23,31 31,-13 28,23 15,-8 2,-2 -1,2 -1,0 0,2 0,1 3,5 3,5 -1,2 -2,2 -10,5 0,3 0,2 1,3 0,5 -11,5 -26,8 -1,-1 -2,-5 -9,0 -1,3 -1,2 -2,0 -3,0 -2,0 -1,0 -3,5 0,1 0,2 4,3 2,2 4,3 3,4 0,3 -7,7 -1,3 1,2 -1,3 -1,2 -1,0 0,1 0,-1 -1,-2 -1,-2 -1,-1 -4,-2 -4,0 -1,2 -2,0 0,1 -1,2 -5,-3 -1,0 -2,1 -1,0 -1,2 -2,0 -1,-2 -3,-1 9,-14Z"/>
    <path data-geoid="3300961060" data-name="Piermont" d="M468,1759l1,-2 6,-7 3,-1 1,-2 1,0 -1,-2 0,-3 -1,-2 1,-6 1,-2 4,0 1,0 3,0 1,0 0,2 0,3 3,0 -3,-3 0,-2 -1,0 0,-3 -1,-2 1,-3 1,-4 2,0 2,0 1,4 2,0 3,0 2,0 0,-7 0,-2 1,-3 1,0 1,0 54,32 -3,-20 54,28 3,106 -11,0 -117,-53 0,-1 -1,-5 2,-2 2,0 1,0 1,-2 2,-1 -3,-2 -11,-3 -1,1 -5,-3 0,-5 0,-2 0,-13 -3,-7Z"/>
    <path data-geoid="3300974740" data-name="Sugar Hill" d="M764,1404l42,24 -35,99 -29,-10 -28,-8Z"/>
    <path data-geoid="3300907540" data-name="Bridgewater" d="M806,2179l0,-1 -11,-12 23,-13 69,-40 11,40 -1,2 -2,3 -1,2 1,1 -1,18 -1,0 -2,4 0,1 0,9 0,1 1,4 1,3 2,5 -1,2 -1,1 0,4 -1,5 -1,1 -2,2 -15,8 -28,-23 -31,13 -23,-31Z"/>
    <path data-geoid="3300900580" data-name="Alexandria" d="M679,2140l37,10 -8,13 56,20 38,106 -9,14 -5,6 -3,4 -8,8 -2,-7 -2,-1 -5,0 -5,1 -1,0 -6,4 -1,1 -1,2 -1,2 -5,0 -2,1 -5,5 -1,3 -2,-4 -6,-20 -8,-24 -4,-13 -3,-7 -5,-16 -14,15 -34,-10 8,-19 -17,-40Z"/>
    <path data-geoid="3300713220" data-name="Clarksville" d="M1041,476l2,-1 2,0 2,0 2,-5 13,-9 0,-8 12,-25 31,-22 32,14 71,6 -2,-10 120,24 -2,18 -13,70 -33,-5 -57,-12Z"/>
    <path data-geoid="3300713940" data-name="Columbia" d="M939,771l1,-2 4,-8 21,-29 1,-1 -1,-12 -1,-2 -2,0 0,-5 0,-3 2,-3 2,0 3,-2 2,-2 7,-10 2,-3 1,-15 0,-2 0,-3 0,-3 6,-12 1,-5 2,0 3,-1 12,-9 1,-1 3,-5 2,-2 1,0 160,30 -8,43 -6,33 -76,12 -142,20Z"/>
    <path data-geoid="3300716820" data-name="Dalton" d="M791,1235l13,5 4,1 2,0 2,-1 1,0 0,-4 2,-5 3,-1 4,0 11,0 1,0 4,0 12,-7 4,-3 1,-2 2,-2 3,-1 1,0 2,-2 1,-2 0,-1 4,-4 2,-5 0,-1 0,-2 1,0 2,-2 13,-5 0,-1 0,1 29,39 20,28 -72,65 -8,3 -2,4 -5,-10 -23,-34 -2,-3 -8,-8 -5,-12 -8,-12 -2,-3 -7,-12 -1,-1Z"/>
    <path data-geoid="3300711220" data-name="Chandlers" d="M1149,1378l8,-4 7,37 10,47 -7,10 -14,-69Z"/>
    <path data-geoid="3300902020" data-name="Ashland" d="M871,2075l32,-4 52,57 3,17 -5,0 -9,1 -10,2 -5,0 -4,2 -4,0 -2,0 -3,0 -3,0 -4,1 -9,0 -2,2 -11,-40Z"/>
    <path data-geoid="3300756100" data-name="Northumberland" d="M957,1033l1,0 7,0 14,-3 2,-3 3,0 3,-7 -3,-2 0,-6 6,3 9,-8 1,-4 -4,-1 0,-2 1,-1 1,-2 -1,-2 -2,0 -2,2 -3,2 -1,0 1,-4 0,-1 0,-2 -1,0 -6,2 0,-4 1,-1 0,-2 -8,-3 4,0 4,-5 -1,-5 -2,-5 0,-4 0,-3 0,-2 2,-5 1,2 2,2 2,1 1,0 -1,-5 -1,-3 0,-3 -4,0 -2,-4 -2,-1 -4,-5 2,-2 2,-3 63,-2 7,7 4,136 28,20 -27,15 -87,-43 -8,-9 -1,-1Z"/>
    <path data-geoid="3300761780" data-name="Pittsburg" d="M1026,413l2,-2 4,-5 -1,-3 2,-3 1,-2 0,-7 8,-8 1,-3 1,-2 5,-7 1,0 1,0 6,0 2,0 1,-1 1,-4 1,-3 5,-7 1,-5 2,0 5,-6 1,-5 0,-2 1,-3 2,0 3,-2 2,-1 3,-4 5,-5 2,-3 1,0 1,-3 0,1 0,-1 1,-4 -1,-1 0,-2 -4,-7 -4,-6 1,-4 3,-5 4,-3 1,-3 2,-7 0,-2 0,-8 4,-5 1,-2 3,-6 0,-2 0,-5 1,-2 1,-1 3,-4 1,-1 3,-10 2,-4 3,-1 1,-4 0,-3 -1,-3 -2,-5 -3,-4 -1,0 -6,-3 -1,0 -2,-3 -2,-2 -3,-2 -4,-3 -11,-8 -3,-5 3,-4 1,0 11,7 1,0 9,-5 3,-2 5,-3 7,0 3,2 10,5 3,-10 5,-2 5,-3 8,-5 1,-2 1,-3 0,-2 -2,-3 -2,-7 6,-5 12,-5 3,0 2,-1 1,-4 5,-6 20,-10 13,-14 7,0 6,5 4,0 6,5 4,19 2,5 1,1 2,0 7,5 3,0 1,2 7,8 3,5 0,2 1,5 2,0 1,0 9,0 2,0 6,0 3,-2 3,-3 2,0 2,0 1,3 6,5 3,5 4,2 1,3 6,-5 2,-3 7,-2 3,-3 4,5 6,3 3,5 8,-5 12,-13 4,-8 2,-10 3,-9 3,-1 2,0 1,-4 1,-1 0,-4 -2,-5 4,-6 1,-4 4,-8 2,-2 6,-3 4,0 1,0 1,8 1,5 1,15 2,25 1,7 0,10 2,5 0,28 2,42 1,6 1,20 1,2 1,22 1,11 0,4 1,20 1,3 1,25 1,11 0,4 2,40 1,16 2,35 0,7 -103,0 2,-18 -120,-24 2,10 -71,-6 -32,-14 -31,22 -12,25 0,8 -31,0 -1,-1 1,-7 0,-3 1,-2 0,-3 2,-5 3,-5 0,-2 1,-2 0,-5 -9,-6 -3,-4Z"/>
    <path data-geoid="3300773380" data-name="Stewartstown" d="M995,496l2,-3 1,-7 2,-3 23,-15 1,0 17,8 180,35 -17,73 -186,-33 -2,-3 0,-2 0,-2 -2,-1 0,-2 2,-2 1,-6 -1,-7 -1,-3 -3,-2 -1,-2 -5,-8 -1,0 -2,-2 -1,-3 -1,-2 -1,-1 -2,0 -3,-7Z"/>
    <path data-geoid="3300725180" data-name="Ervings" d="M1158,737l6,-33 22,5 1,43Z"/>
    <path data-geoid="3300776580" data-name="Thompson and Meserves" d="M1157,1374l107,-56 13,0 -5,35 -1,33 -3,2 -104,23Z"/>
    <path data-geoid="3300923860" data-name="Ellsworth" d="M757,1815l63,25 6,63 3,34 -95,-39Z"/>
    <path data-geoid="3300905060" data-name="Benton" d="M655,1607l51,27 57,30 -26,108 -128,-20Z"/>
    <path data-geoid="3300918740" data-name="Dorchester" d="M550,1958l109,43 -23,125 -116,-40Z"/>
    <path data-geoid="3300908980" data-name="Canaan" d="M503,2080l17,6 116,40 -15,14 -54,86 -13,20 -128,-60Z"/>
    <path data-geoid="3300924340" data-name="Enfield" d="M380,2279l46,-93 128,60 -46,75 -19,30 -21,-9 -6,-3 0,-2 11,-18 -21,-8 -13,-7 -6,-3 -3,0 -16,-7 -13,-6 -2,-2 -3,0 -5,-2 -4,-1 -3,-2 -2,-2Z"/>
    <path data-geoid="3300905460" data-name="Bethlehem" d="M853,1330l2,-4 8,-3 6,2 12,6 6,3 7,4 4,1 13,4 14,8 13,5 3,2 12,6 5,30 2,10 1,5 0,2 1,5 0,12 12,-2 4,0 1,-2 21,-5 3,0 2,0 3,0 17,-1 1,1 1,5 0,2 3,0 3,0 28,-7 1,4 3,1 2,0 3,2 1,2 7,3 5,2 2,1 8,17 4,7 13,25 -10,0 5,19 7,39 -9,-4 -104,-38 -193,-71 -42,-24Z"/>
    <path data-geoid="3300935220" data-name="Hebron" d="M716,2150l41,-60 20,6 20,9 21,48 -23,13 -31,17 -56,-20Z"/>
    <path data-geoid="3300930820" data-name="Grafton" d="M508,2321l46,-75 13,-20 97,27 34,10 -1,0 -2,3 -2,2 -5,6 -4,5 -4,4 -1,1 -20,29 0,1 -6,7 -9,15 -5,6 -3,5 -4,5 -12,-1 -11,-2 -33,-7 -3,0 -8,-1 -55,-9Z"/>
    <path data-geoid="3300932180" data-name="Groton" d="M636,2126l23,-125 119,44 -1,51 -20,-6 -41,60 -37,-10Z"/>
    <path data-geoid="3300927300" data-name="Franconia" d="M771,1527l35,-99 193,71 -40,110 -134,-58Z"/>
    <path data-geoid="3300942820" data-name="Livermore" d="M915,1715l23,-5 57,40 40,-16 13,-34 -2,-44 39,-32 38,-17 3,-18 -27,-28 4,-24 9,4 16,8 9,13 4,19 3,11 2,7 0,18 -5,9 7,20 2,6 24,12 -26,46 -8,14 0,1 1,2 0,2 2,13 1,8 -206,34Z"/>
    <path data-geoid="3300948980" data-name="Monroe" d="M515,1401l7,-13 1,-2 3,-2 2,-5 3,0 3,0 1,-1 1,-2 1,-2 2,0 1,0 1,0 2,-3 1,-2 1,-1 2,-4 0,-3 0,-5 0,-2 1,-1 0,-2 -1,-2 1,-8 3,0 2,0 4,0 2,0 1,0 3,0 1,0 3,0 5,-2 3,-1 1,0 0,-2 8,-3 3,-2 2,-1 1,-7 50,26 -28,17 -49,78 -35,30 0,-1 -1,-2 -1,-5 1,-3 1,-4 2,-5 0,-3 2,-2 1,-1 -1,-2 -1,-5 -2,-2 -3,-5 0,-1 -1,-2 -1,-3 -1,-2 -1,-7 -2,0 0,-1 0,-4 2,-3 1,3 0,-3 -1,-2 1,-1 -3,0 -2,1 -3,0Z"/>
    <path data-geoid="3300940660" data-name="Landaff" d="M637,1496l15,-8 62,21 28,8 -36,117 -51,-27Z"/>
    <path data-geoid="3300936900" data-name="Holderness" d="M876,2030l2,0 115,-19 6,0 1,5 0,5 2,19 2,11 5,45 1,10 1,10 0,2 1,2 1,18 -21,3 -14,2 -19,2 -1,0 -3,-17 -52,-57 -32,4 -8,-22Z"/>
    <path data-geoid="3301930500" data-name="Goshen" d="M417,2630l36,-25 45,-11 0,1 -10,19 1,8 21,78 -54,5 -25,0 -9,-38Z"/>
    <path data-geoid="3300110660" data-name="Center Harbor" d="M959,2145l19,-2 14,-2 21,-3 -1,-18 -1,-2 0,-2 -1,-10 -1,-10 -5,-45 8,9 1,1 2,2 9,8 6,9 1,1 2,0 2,4 5,5 2,1 0,2 3,2 11,13 2,0 1,2 3,3 4,5 2,2 1,1 3,2 8,8 9,9 -36,-4 -41,38 0,2 0,-2 -31,4 -23,-33Z"/>
    <path data-geoid="3301517460" data-name="Deerfield" d="M1169,2896l18,-38 4,-8 2,-2 1,-2 1,-3 1,-3 2,-4 2,-6 4,-13 3,1 1,-3 19,-45 2,-2 7,-16 1,-2 1,-2 0,-1 0,1 22,44 93,21 -45,68 16,5 -22,42 -16,-5Z"/>
    <path data-geoid="3301527940" data-name="Fremont" d="M1345,3044l16,-46 65,0 -6,78 -5,2 -53,-2 -27,0Z"/>
    <path data-geoid="3300519140" data-name="Dublin" d="M422,3123l146,5 1,6 1,7 2,17 2,16 0,2 2,6 1,15 -137,-5Z"/>
    <path data-geoid="3300500820" data-name="Alstead" d="M220,2823l2,0 4,0 9,2 10,0 17,-8 14,-2 8,-2 5,0 1,0 3,-1 7,0 6,0 6,-2 6,0 6,-2 3,0 15,127 -61,6 -46,2 -11,-88 0,-5 -1,-4 0,-1 -1,-5 0,-4Z"/>
    <path data-geoid="3300529220" data-name="Gilsum" d="M342,2935l47,-7 -5,28 -56,9 9,58 -43,13 -13,-95Z"/>
    <path data-geoid="3300534420" data-name="Harrisville" d="M413,3071l27,-7 72,5 -1,27 53,2 1,16 1,4 2,10 -146,-5 -1,-14Z"/>
    <path data-geoid="3300538500" data-name="Jaffrey" d="M440,3192l137,5 4,25 1,4 1,8 1,3 8,55 -109,-3 -36,-2 -3,-21 -6,-45Z"/>
    <path data-geoid="3300526500" data-name="Fitzwilliam" d="M364,3291l21,1 26,-26 33,0 3,21 36,2 11,98 -3,0 -2,0 -1,0 -4,0 -20,-2 -13,0 -1,0 -26,-1 -17,0 -3,0 -2,0 -13,-2 -12,0Z"/>
    <path data-geoid="3300545460" data-name="Marlborough" d="M351,3143l10,-24 60,-10 1,14 18,69 -2,29 -54,-10 -24,-17Z"/>
    <path data-geoid="3300574900" data-name="Sullivan" d="M384,2956l23,2 -2,37 -2,49 -36,-1 0,18 -28,-12 -2,-26 -9,-58Z"/>
    <path data-geoid="3300564420" data-name="Richmond" d="M267,3269l30,-12 48,4 1,0 18,30 13,91 -6,0 -11,0 -8,-2 -4,0 -6,0 -6,0 -3,0 -12,0 -7,-1 -14,0 -6,0 -13,-2 -18,0 -12,-91Z"/>
    <path data-geoid="3300545700" data-name="Marlow" d="M327,2808l2,0 4,-1 33,-5 6,0 10,-2 26,-5 2,0 4,0 11,-2 -21,63 -15,72 -47,7Z"/>
    <path data-geoid="3300564580" data-name="Rindge" d="M483,3289l109,3 28,4 2,13 3,15 1,10 8,53 0,5 -7,0 -13,0 -5,0 -16,0 -2,0 -3,-3 -12,0 -2,0 -2,0 -4,0 -1,0 -6,0 -3,0 -3,0 -2,0 -1,0 -3,-2 -12,0 -11,0 -8,0 -7,0 -17,0Z"/>
    <path data-geoid="3300573700" data-name="Stoddard" d="M389,2928l15,-72 15,2 2,0 15,0 44,2 5,0 6,0 1,0 43,1 3,0 0,4 -8,56 -7,39 -3,11 -1,10 -1,7 -1,3 -2,10 -110,-6 2,-37 -23,-2Z"/>
    <path data-geoid="3300565700" data-name="Roxbury" d="M367,3061l0,-18 36,1 10,27 8,38 -60,10 -19,-21Z"/>
    <path data-geoid="3301500000" data-name="County subdivisions not defined" d="M1786,3078l6,-39 43,22 34,-7 29,72 -20,7 -56,-14ZM1678,3164l17,-36 14,-44 13,-20 64,14 -28,35 -9,68 -75,5Z"/>
    <path data-geoid="3300768980" data-name="Shelburne" d="M1340,1193l130,-3 0,8 0,8 2,15 1,22 0,5 0,10 0,10 0,2 0,3 1,3 1,17 0,12 1,11 -132,0Z"/>
    <path data-geoid="3301502340" data-name="Atkinson" d="M1308,3204l67,-2 20,55 -3,0 -13,-5 -10,5 -5,2 -1,2 -3,0 -12,8 -24,-5 -14,-52Z"/>
    <path data-geoid="3301502820" data-name="Auburn" d="M1125,2975l4,0 7,0 97,23 -22,110 -33,-7 -29,-8 -1,-9 0,-3 -3,-13 0,-4 -7,-36 -2,-14 -9,-33 -1,-5 -1,-1 -1,-2Z"/>
    <path data-geoid="3301509300" data-name="Candia" d="M1149,2943l2,-3 2,-5 2,-4 14,-35 117,27 -28,83 -25,-8 -97,-23Z"/>
    <path data-geoid="3301521380" data-name="East Kingston" d="M1504,3078l14,1 5,75 -32,5 -11,0 -6,-33 -4,-23Z"/>
    <path data-geoid="3301512100" data-name="Chester" d="M1233,2998l25,8 -7,17 94,21 -10,32 -42,-7 4,59 -86,-20Z"/>
    <path data-geoid="3301517140" data-name="Danville" d="M1362,3076l53,2 -2,78 -8,2 -40,-2Z"/>
    <path data-geoid="3301517940" data-name="Derry" d="M1178,3101l33,7 86,20 0,10 11,66 2,8 -34,7 -83,10Z"/>
    <path data-geoid="3301524660" data-name="Epping" d="M1361,2998l18,-55 7,-22 47,0 1,0 24,-1 3,0 26,0 1,0 0,38 -1,23 4,17 -65,0Z"/>
    <path data-geoid="3301525380" data-name="Exeter" d="M1487,2981l75,15 -2,33 45,30 0,2 -12,3 -22,10 -53,5 -14,-1 -8,0 -1,-12 0,-2 0,2 0,-2 -4,-66Z"/>
    <path data-geoid="3301550980" data-name="New Castle" d="M1743,2928l30,-2 6,39 -32,-20 2,-7Z"/>
    <path data-geoid="3301531700" data-name="Greenland" d="M1611,2925l28,18 32,2 7,53 3,15 -8,8 -50,-5 9,-28 -39,-37 -7,-3Z"/>
    <path data-geoid="3301532900" data-name="Hampstead" d="M1297,3138l68,18 40,2 -19,23 -1,0 -10,21 -67,2Z"/>
    <path data-geoid="3301540100" data-name="Kingston" d="M1386,3181l19,-23 8,-2 2,-78 5,-2 76,2 8,0 -34,25 4,23 6,33 -32,2 -19,45 -43,-25 -1,0Z"/>
    <path data-geoid="3301145140" data-name="Manchester" d="M1024,2965l16,-5 6,0 3,6 0,2 0,3 1,2 0,2 2,0 5,1 1,4 2,1 17,-11 0,1 1,4 1,5 0,3 1,5 1,3 0,4 1,4 1,2 5,2 2,0 9,1 2,0 32,10 3,0 2,14 7,36 0,4 3,13 0,3 1,9 1,10 -1,0 -2,0 -4,0 -3,3 -21,3 -3,0 -7,2 -2,0 -3,0 -3,0 -13,2 -4,1 -3,4 1,0 0,1 0,5 1,2 0,3 1,5 4,24 0,1 1,7 -11,-17 1,-10 -7,-46 -34,-45Z"/>
    <path data-geoid="3301159940" data-name="Pelham" d="M1163,3302l3,0 3,-1 2,1 1,0 2,5 1,2 4,8 14,4 11,3 7,0 26,8 11,2 1,0 1,0 1,1 3,0 4,0 1,2 2,0 2,2 11,15 -2,1 -1,0 -3,2 -4,5 -3,2 -6,8 -2,3 -7,12 -3,7 -8,10 -1,0 -6,8 -17,0 -4,0 -12,0 -10,0 -4,0 -1,-2 -6,0 -12,0 -3,0 -2,0 -4,0 -9,0 -2,0Z"/>
    <path data-geoid="3301176260" data-name="Temple" d="M671,3221l8,-40 27,-5 23,21 16,100 -10,2 -74,-3 14,-52Z"/>
    <path data-geoid="3301101300" data-name="Amherst" d="M880,3196l26,-24 -2,-63 30,-6 25,-4 11,60 -8,0 19,117 -46,8 -8,-40 -18,-3Z"/>
    <path data-geoid="3301108100" data-name="Brookline" d="M836,3321l19,-2 -1,-27 46,-3 2,18 11,95 -1,0 -1,0 -3,0 -6,0 -1,0 -7,0 -13,0 -7,0 -1,0 -12,-2 -11,0 -2,0Z"/>
    <path data-geoid="3301104500" data-name="Bedford" d="M926,3063l112,-15 34,45 7,46 -109,20 -11,-60 -25,4Z"/>
    <path data-geoid="3301127140" data-name="Francestown" d="M679,2985l90,-9 21,30 14,73 -54,9 -12,-24 -45,7 -6,-32Z"/>
    <path data-geoid="3301104900" data-name="Bennington" d="M624,3001l10,-3 18,-38 27,25 8,54 -56,9Z"/>
    <path data-geoid="3301117780" data-name="Deering" d="M653,2893l51,-13 43,-12 22,108 -90,9 -27,-25Z"/>
    <path data-geoid="3301129860" data-name="Goffstown" d="M903,2958l57,-10 2,0 18,-5 10,0 28,-5 6,27 14,83 -112,15 -20,-78Z"/>
    <path data-geoid="3301146260" data-name="Mason" d="M747,3375l28,-5 -11,-78 66,-8 6,37 12,79 -25,0 -21,-1 -2,0 -15,0 -3,0 -13,0 -6,-2 -6,0 -7,0Z"/>
    <path data-geoid="3301137140" data-name="Hollis" d="M902,3307l33,-23 46,-8 2,15 29,26 -16,87 -6,0 -3,0 -15,0 -17,0 -15,0 -10,0 -2,0 -5,0 -10,-2Z"/>
    <path data-geoid="3301131540" data-name="Greenfield" d="M631,3048l56,-9 6,32 45,-7 12,24 -26,75 -18,13 -27,5 -11,-85 -48,7 14,-22Z"/>
    <path data-geoid="3301142260" data-name="Litchfield" d="M1078,3149l11,17 1,3 2,12 2,13 1,3 4,20 4,32 5,32 -39,3 -4,-3 -16,-84Z"/>
    <path data-geoid="3301137940" data-name="Hudson" d="M1103,3249l11,2 18,0 9,0 11,13 6,8 2,2 5,7 1,1 -4,7 0,3 0,5 1,5 -21,108 -2,0 -16,-1 -13,0 -3,0 -9,0 -1,-40 -29,-85 39,-3Z"/>
    <path data-geoid="3301136180" data-name="Hillsborough" d="M541,2792l3,0 18,-7 4,0 5,-2 4,0 47,-15 5,0 24,-6 4,8 4,12 29,61 1,5 15,32 -51,13 -67,15 -37,-86Z"/>
    <path data-geoid="3301133700" data-name="Hancock" d="M512,3069l1,-18 1,-13 0,-10 0,-9 110,-18 7,47 3,33 -14,22 -55,11 -1,-16 -53,-2Z"/>
    <path data-geoid="3301147540" data-name="Merrimack" d="M970,3159l109,-20 -1,10 -29,48 16,84 -70,-5 -8,10 -4,5 -2,-15 -19,-117Z"/>
    <path data-geoid="3301160580" data-name="Peterborough" d="M565,3114l55,-11 48,-7 11,85 -8,40 -87,16 -1,-3 -1,-8 -1,-4 -4,-25 -1,-15 -2,-6 0,-2 -2,-16 -2,-17 -1,-7 -1,-6 -2,-10Z"/>
    <path data-geoid="3301150740" data-name="New Boston" d="M790,3006l116,-21 20,78 8,40 -30,6 -91,17 -9,-47Z"/>
    <path data-geoid="3301148020" data-name="Milford" d="M821,3214l32,-13 27,-5 29,45 18,3 8,40 -33,23 -2,-18 -46,3 1,27 -19,2 -6,-37Z"/>
    <path data-geoid="3301150260" data-name="Nashua" d="M983,3291l4,-5 8,-10 70,5 4,3 29,85 1,40 -1,0 -7,0 -6,0 -2,0 -2,0 -7,0 -5,-2 -12,0 -10,0 -5,0 -2,0 -3,0 -5,0 -10,-3 -6,0 -16,0 -2,0 -2,0 16,-87Z"/>
    <path data-geoid="3301149140" data-name="Mont Vernon" d="M813,3126l91,-17 2,63 -26,24 -27,5 -10,-19 -24,-24Z"/>
    <path data-geoid="3301185220" data-name="Wilton" d="M729,3197l86,-11 6,28 9,70 -66,8 -19,5Z"/>
    <path data-geoid="3301185940" data-name="Windsor" d="M538,2865l0,-4 -3,0 5,-18 3,-7 6,-14 37,86 -56,13Z"/>
    <path data-geoid="3301179780" data-name="Weare" d="M747,2868l70,-20 1,0 1,0 23,-5 3,-2 4,-1 30,-9 2,14 7,35 1,5 14,73 3,27 -116,21 -21,-30Z"/>
    <path data-geoid="3301168820" data-name="Sharon" d="M584,3237l87,-16 4,23 -14,52 -41,0 -28,-4Z"/>
    <path data-geoid="3301350900" data-name="Newbury" d="M498,2595l0,-1 3,-4 0,-3 1,-2 1,0 3,-6 18,-34 1,-3 1,-2 32,-3 56,135 -104,28 -21,-78 -1,-8Z"/>
    <path data-geoid="3301352100" data-name="New London" d="M518,2484l1,-5 1,-8 2,-7 8,0 20,3 1,0 3,0 1,2 9,-5 1,-3 2,-5 2,-7 2,-3 8,-14 66,42 -12,23 23,17 -98,23 -32,3 0,-15 1,-16 1,-7 -1,-2 -9,-13Z"/>
    <path data-geoid="3301361940" data-name="Pittsfield" d="M1176,2584l25,20 2,1 1,0 1,2 12,8 3,2 6,5 4,3 44,34 1,0 2,3 3,2 -4,3 -3,5 -4,3 -13,30 -92,-22 24,-24 -43,-32Z"/>
    <path data-geoid="3301343380" data-name="Loudon" d="M1012,2640l64,-91 1,-35 1,0 2,1 25,19 3,1 6,5 3,2 18,13 5,4 11,6 2,0 23,19 -31,43 -64,86 -6,-6 -46,-34Z"/>
    <path data-geoid="3300718420" data-name="Dixville" d="M1172,661l22,-20 10,-57 17,-73 57,12 8,138 2,40 -102,8 -22,-5Z"/>
    <path data-geoid="3301375460" data-name="Sutton" d="M656,2514l21,48 35,88 -72,15 -26,7 -56,-135Z"/>
    <path data-geoid="3300725140" data-name="Errol" d="M1288,701l156,-7 2,20 0,18 2,27 0,13 0,9 2,11 1,20 2,32 -131,5 -29,0Z"/>
    <path data-geoid="3301366980" data-name="Salisbury" d="M720,2522l134,-60 -4,48 26,37 -42,18 -65,34 -45,23Z"/>
    <path data-geoid="3300731780" data-name="Greens" d="M1272,1353l30,0 0,35 -15,0 -16,-2Z"/>
    <path data-geoid="3300732420" data-name="Hadleys" d="M1164,1544l23,-13 14,78 8,0 -3,17 -12,8 -11,8 -7,-8 0,-40 -6,-25 -7,-25Z"/>
    <path data-geoid="3300739940" data-name="Kilkenny" d="M1088,1090l9,-15 87,-50 -22,58 -37,102 8,0 3,46 -31,-11 -9,-55Z"/>
    <path data-geoid="3300757860" data-name="Odell" d="M1082,749l76,-12 29,15 3,102 1,53 -82,3Z"/>
    <path data-geoid="3300748260" data-name="Millsfield" d="M1288,701l5,148 -103,5 -3,-102 -1,-43Z"/>
    <path data-geoid="3300761620" data-name="Pinkhams" d="M1268,1388l3,-2 16,2 -20,53 -6,0 -2,0 -5,10 -3,8 -2,-40Z"/>
    <path data-geoid="3300763860" data-name="Randolph" d="M1133,1185l128,-5 3,138 -22,-13 -103,3 -3,-77Z"/>
    <path data-geoid="3300738820" data-name="Jefferson" d="M993,1185l103,-20 9,55 31,11 3,77 -50,-2 -76,14 -3,-20Z"/>
    <path data-geoid="3300747860" data-name="Milan" d="M1184,1025l15,-43 124,-5 99,-3 -49,103 0,1 -211,5Z"/>
    <path data-geoid="3300730260" data-name="Gorham" d="M1261,1180l78,-2 1,15 4,123 -29,2 -38,0 -13,0Z"/>
    <path data-geoid="3300713780" data-name="Colebrook" d="M1011,631l1,0 0,-2 3,-5 6,-8 2,-5 9,-12 1,0 4,-6 0,-2 -6,-5 -1,0 -2,-3 -8,-10 -1,-2 -2,-2 -1,-5 0,-1 0,-2 -1,-2 -2,-1 -1,0 0,-2 1,0 3,-2 2,-3 186,33 -10,57 -22,20 -160,-30Z"/>
    <path data-geoid="3300774180" data-name="Stratford" d="M939,771l1,-2 142,-20 27,161 2,12 -69,10 -63,2 -1,-2 -2,-5 -1,0 0,-3 -4,-5 0,3 -2,2 -2,0 -5,-5 0,-2 0,-2 -6,0 -3,-1 -1,-4 0,-3 1,0 2,-2 -2,-6 -1,0 1,-2 4,-2 0,-1 -1,0 -1,-2 -2,0 -1,0 -1,0 -1,-2 -6,-5 2,0 0,-1 0,-4 -2,-5 0,-3 0,-5 0,-3 -3,-2 -1,-2 0,-1 -5,-10 -10,-17 0,-1 -2,-7 -2,0 -1,0 -2,-8 0,-2 -1,-5 0,-2 -4,-8 -1,0Z"/>
    <path data-geoid="3300704100" data-name="Beans" d="M1153,1399l14,69 -19,63 -11,-9 -7,-34 -2,-10 -15,-19Z"/>
    <path data-geoid="3300743620" data-name="Low and Burbanks" d="M1089,1306l50,2 103,-3 22,13 -107,56 -8,4 -47,25Z"/>
    <path data-geoid="3300719300" data-name="Dummer" d="M1191,907l-1,-53 103,-5 29,0 1,128 -124,5Z"/>
    <path data-geoid="3301378580" data-name="Warner" d="M640,2665l72,-15 -35,-88 27,-32 16,-8 4,100 45,-23 56,116 -59,17 -86,21Z"/>
    <path data-geoid="3300767860" data-name="Sargents" d="M1164,1411l104,-23 -19,31 2,40 -5,17 -20,55 -15,45 2,1 -2,15 -2,17 -8,0 -14,-78 11,-42 26,-45 -36,-5 -14,19Z"/>
    <path data-geoid="3300716100" data-name="Crawfords" d="M1102,1403l47,-25 4,21 -40,60 -26,-51Z"/>
    <path data-geoid="3300716660" data-name="Cutts" d="M1148,1531l19,-63 7,-10 14,-19 36,5 -26,45 -11,42 -23,13 -1,0 0,-3Z"/>
    <path data-geoid="3300708420" data-name="Cambridge" d="M1322,849l131,-5 1,16 0,5 1,19 1,15 2,28 1,27 1,18 -38,2 -99,3Z"/>
    <path data-geoid="3300702420" data-name="Atkinson and Gilmanton Academy" d="M1311,528l13,-70 103,0 0,3 0,10 3,38 -82,5 -4,20Z"/>
    <path data-geoid="3300705140" data-name="Berlin" d="M1162,1083l211,-5 0,-1 0,1 -34,100 -78,2 -128,5 -8,0Z"/>
    <path data-geoid="3300704260" data-name="Beans" d="M1287,1388l15,0 0,-35 13,-35 29,-2 132,0 1,22 1,28 0,3 1,9 0,10 -31,0 0,5 0,6 2,20 0,12 0,15 -23,2 -4,0 -23,3 -38,-3 -25,-2 -17,-2 -26,-1 -27,-2Z"/>
    <path data-geoid="3300710100" data-name="Carroll" d="M1010,1300l3,20 76,-14 13,97 -15,5 26,51 15,19 -10,3 -8,2 -13,-25 -4,-7 -8,-17 -2,-1 -5,-2 -7,-3 -1,-2 -3,-2 -2,0 -3,-1 -1,-4 -28,7 -3,0 -3,0 0,-2 -1,-5 -1,-1 -17,1 -3,0 -2,0 -3,0 -21,5 -1,2 -4,0 -12,2 0,-12 -1,-5 0,-2 -1,-5 -2,-10 -5,-30 -9,-54Z"/>
    <path data-geoid="3300718340" data-name="Dixs" d="M1278,523l33,5 33,6 -20,124 -38,3Z"/>
    <path data-geoid="3300314660" data-name="Conway" d="M1413,1656l69,-2 8,8 1,32 0,3 2,5 0,2 0,5 1,23 0,5 0,7 1,6 0,25 2,25 0,4 1,20 0,6 0,15 -52,0 -3,-48 -29,0 2,50 -18,0 -9,-50 -26,0 -15,-78 -7,-40 -3,-25Z"/>
    <path data-geoid="3300323620" data-name="Effingham" d="M1419,2008l84,7 0,3 1,3 0,7 0,3 0,5 2,14 1,6 0,5 0,4 0,3 0,5 2,15 1,8 0,12 0,7 0,5 0,3 0,2 0,5 0,1 1,5 0,7 1,5 0,5 -29,7 -109,-87Z"/>
    <path data-geoid="3300349380" data-name="Moultonborough" d="M1004,2051l186,-23 46,10 32,5 -77,107 24,16 -35,62 -3,-4 -28,-28 -11,-8 -8,-9 -18,-18 -4,-3 -2,-2 -2,-1 -1,-2 -7,-7 -3,-3 -2,-2 -2,-1 -9,-9 -8,-8 -3,-2 -1,-1 -2,-2 -4,-5 -3,-3 -1,-2 -2,0 -11,-13 -3,-2 0,-2 -2,-1 -5,-5 -2,-4 -2,0 -1,-1 -6,-9 -9,-8 -2,-2 -1,-1Z"/>
    <path data-geoid="3300358740" data-name="Ossipee" d="M1236,2038l33,-50 50,-21 5,-2 1,2 1,0 -1,0 1,0 36,51 30,7 9,-27 18,10 -45,65 109,87 -43,54 -54,-41 -62,-13 -1,0 -55,-117Z"/>
    <path data-geoid="3300323380" data-name="Eaton" d="M1398,1847l18,0 -2,-50 29,0 3,48 52,0 0,2 0,6 0,5 0,2 1,22 0,13 1,8 0,4 -82,28 -10,-18Z"/>
    <path data-geoid="3301568260" data-name="Seabrook" d="M1578,3143l61,5 17,10 4,5 6,-12 7,8 3,4 2,1 -4,22 -1,0 -4,0 -3,1 -4,2 -2,0 -1,2 -5,3 -10,7 -2,-4 -11,-6 -3,-2 -2,-2 -1,-1 -2,-4 -2,-1 -2,0 -8,-5 -3,-4 -12,-3 -2,-3 -2,0 -2,0 -5,0 -1,0 -2,0 -2,-15Z"/>
    <path data-geoid="3301585780" data-name="Windham" d="M1162,3289l4,-7 11,-33 1,-10 0,-2 0,2 0,-2 15,-8 83,-10 6,33 -45,80 -26,-8 -7,0 -11,-3 -14,-4 -4,-8 -1,-2 -2,-5 -1,0 -2,-1 -3,1 -3,0 -1,-5 0,-5Z"/>
    <path data-geoid="3301539780" data-name="Kensington" d="M1518,3079l53,-5 7,69 2,8 -57,3Z"/>
    <path data-geoid="3301564020" data-name="Raymond" d="M1258,3006l28,-83 16,5 77,15 -18,55 -16,46 -94,-21Z"/>
    <path data-geoid="3300903940" data-name="Bath" d="M515,1509l0,-3 2,-7 2,-1 1,-2 2,-2 1,-3 0,-3 0,-2 -3,-3 3,-2 2,0 1,-2 2,-5 35,-30 72,39 2,13 18,111 -115,-53 -1,-2 0,-1 -3,0 1,-5 -3,0 -2,0 -1,-5 -3,-2 -1,-2 -1,-3 0,-3 -1,-4 -1,-1 -2,-7 -5,-7 -2,-1Z"/>
    <path data-geoid="3300908660" data-name="Campton" d="M804,2003l25,-66 -3,-34 3,-1 34,30 17,-7 97,-13 9,48 0,2 3,21 4,28 -115,19 -2,0 -49,0Z"/>
    <path data-geoid="3300933860" data-name="Hanover" d="M297,2128l27,-40 29,-12 32,-33 118,37 -77,106 -134,-45Z"/>
    <path data-geoid="3300941300" data-name="Lebanon" d="M280,2208l3,-10 9,-57 134,45 -46,93 -53,-10 -4,0 -51,-10 -2,0 -2,0 0,-1 2,-7Z"/>
    <path data-geoid="3300512260" data-name="Chesterfield" d="M59,3166l6,-3 5,-7 3,-22 6,-3 -2,-18 0,-2 0,-5 1,0 148,12 19,20 -40,79 -82,-8 -73,-7Z"/>
    <path data-geoid="3300582660" data-name="Westmoreland" d="M72,3079l12,-10 3,0 12,-3 12,-3 6,-7 3,-2 6,5 24,-36 1,0 4,-9 0,-3 0,-3 -1,-2 -13,-10 93,8 -4,49 -17,3 13,62 -148,-12 -1,0 -1,-15 -4,-3Z"/>
    <path data-geoid="3300922020" data-name="Easton" d="M742,1517l29,10 54,24 -41,110 -21,3 -57,-30Z"/>
    <path data-geoid="3300550580" data-name="Nelson" d="M403,3044l2,-49 110,6 0,2 -1,16 0,9 0,10 -1,13 -1,18 -72,-5 -27,7Z"/>
    <path data-geoid="3300942580" data-name="Littleton" d="M591,1323l3,-2 4,0 3,2 9,0 3,0 5,-2 2,0 7,0 8,4 7,-4 3,-5 4,-1 2,-5 2,0 9,-2 1,0 5,2 4,0 3,5 1,0 3,0 4,3 4,2 7,3 2,0 1,-2 2,0 0,-1 2,0 1,0 1,-2 2,0 2,0 1,0 3,0 1,0 1,-2 7,-5 3,-1 1,0 2,-2 5,-3 2,0 2,0 1,-2 1,0 1,0 3,0 2,-2 3,-1 2,0 -2,-10 -1,-2 0,-2 -1,-1 0,-2 2,-2 2,-5 -2,-1 -1,0 0,-4 1,-1 0,-4 1,-1 4,-2 6,0 -1,-10 1,-2 3,-3 2,-2 2,-3 2,0 7,0 4,0 1,0 4,-2 4,-3 5,-3 1,0 1,1 7,12 2,3 8,12 5,12 8,8 2,3 23,34 5,10 -89,74 -62,-25 -62,-30 -50,-26Z"/>
    <path data-geoid="3300962660" data-name="Plymouth" d="M778,2045l26,-42 23,27 49,0 2,0 -2,0 -13,23 8,22 16,38 -69,40 -21,-48 -20,-9Z"/>
    <path data-geoid="3300978740" data-name="Warren" d="M609,1752l128,20 29,5 -9,38 -23,83 -122,-33 0,-7Z"/>
    <path data-geoid="3300944100" data-name="Lyman" d="M640,1349l62,30 -67,104 -72,-39 49,-78Z"/>
    <path data-geoid="3300942020" data-name="Lisbon" d="M635,1483l67,-104 62,25 -50,105 -62,-21 -15,8Z"/>
    <path data-geoid="3300958340" data-name="Orange" d="M567,2226l54,-86 15,-14 43,14 -24,54 17,40 -8,19Z"/>
    <path data-geoid="3300965940" data-name="Rumney" d="M659,2001l75,-103 95,39 -25,66 -26,42Z"/>
    <path data-geoid="3300944260" data-name="Lyme" d="M387,2031l0,-1 14,-27 4,-13 -1,-3 1,-19 2,-6 0,-4 -1,-13 -4,-12 1,-1 1,-4 4,-6 4,0 2,0 3,-2 2,-2 2,-1 -2,-4 131,45 -30,128 -17,-6 -118,-37 0,-2 0,-1Z"/>
    <path data-geoid="3300958500" data-name="Orford" d="M426,1895l2,-2 3,-10 35,-46 0,-2 0,-3 4,-13 6,-2 1,-2 3,-5 2,-1 1,-2 1,-2 117,53 7,12 -58,88 -131,-45 -3,-6 0,-2Z"/>
    <path data-geoid="3300976740" data-name="Thornton" d="M820,1840l33,15 50,-135 12,-5 23,69 36,104 3,19 0,5 -97,13 -17,7 -34,-30 -3,1Z"/>
    <path data-geoid="3300980500" data-name="Wentworth" d="M601,1858l11,0 0,7 122,33 -75,103 -109,-43 58,-88Z"/>
    <path data-geoid="3300979380" data-name="Waterville Valley" d="M938,1784l206,-34 1,2 1,5 0,3 2,17 1,7 4,28 6,40 1,8 -4,0 -3,0 -29,5 -6,2 -4,0 -42,8 -5,0 -18,3 -15,2 -11,2 -11,1 -29,4 -9,1Z"/>
    <path data-geoid="3300987060" data-name="Woodstock" d="M737,1772l26,-108 21,-3 119,59 -50,135 -33,-15 -63,-25 9,-38Z"/>
    <path data-geoid="3300300420" data-name="Albany" d="M1140,1724l40,-4 144,0 24,-1 15,78 -26,2 -40,48 -135,23 -2,-10 -1,-8 -6,-40 -4,-28 -1,-7 -2,-17 0,-3 -1,-5 -1,-2 -1,-8 -2,-13 0,-2 -1,-2Z"/>
    <path data-geoid="3300303700" data-name="Bartlett" d="M1148,1710l26,-46 25,0 -5,-30 12,-8 3,-17 2,-17 2,-15 88,-3 42,15 57,3 2,60 11,4 -75,-2 3,25 -16,1 -1,40 -144,0 -40,4Z"/>
    <path data-geoid="3300327700" data-name="Freedom" d="M1324,1965l72,-32 22,2 82,-28 0,3 0,3 0,5 0,5 1,7 0,5 0,3 1,7 0,25 0,7 1,16 0,5 0,8 0,7 0,2 -84,-7 -18,-10 -9,27 -30,-7 -36,-51 -1,0 1,0 -1,0 -1,-2Z"/>
    <path data-geoid="3300332500" data-name="Hale's" d="M1341,1679l7,40 -24,1 1,-40Z"/>
    <path data-geoid="3300334500" data-name="Hart's Location" d="M1100,1483l10,0 8,-2 10,-3 2,10 7,34 11,9 15,10 0,3 7,25 6,25 0,40 7,8 11,-8 5,30 -25,0 -24,-12 -2,-6 -7,-20 5,-9 0,-18 -2,-7 -3,-11 -4,-19 -9,-13 -16,-8 -7,-39Z"/>
    <path data-geoid="3300338260" data-name="Jackson" d="M1211,1576l15,-45 20,-55 5,-17 3,-8 5,-10 2,0 6,0 27,2 26,1 17,2 25,2 38,3 0,141 -57,-3 -42,-15 -88,3Z"/>
    <path data-geoid="3300311780" data-name="Chatham" d="M1400,1451l23,-3 4,0 23,-2 0,-15 0,-12 -2,-20 0,-6 0,-5 31,0 1,13 0,7 0,3 1,8 0,9 0,3 0,5 1,8 0,5 0,9 1,15 1,15 0,3 0,3 1,32 1,15 0,3 1,48 1,15 0,2 0,3 0,5 0,12 0,3 0,2 0,7 0,1 2,20 -8,-8 -69,2 -11,-4 -2,-60Z"/>
    <path data-geoid="3300378180" data-name="Wakefield" d="M1436,2219l4,-5 43,-54 29,-7 0,3 1,7 0,3 1,15 0,2 1,10 1,11 0,2 0,3 0,2 1,7 0,6 0,7 1,5 0,2 0,3 0,7 0,3 1,3 0,2 0,5 0,3 0,5 1,5 0,5 0,5 0,5 1,4 0,5 3,1 1,0 2,2 1,2 0,1 0,2 3,2 4,0 0,1 1,2 2,8 1,7 -1,6 -1,2 -2,0 -2,0 -2,0 -1,0 -5,5 -23,32 -5,6 -14,20 -1,2 -2,2 -7,8 0,-3 -3,-10 0,-5 -1,-4 0,-1 -2,-4 -6,-33Z"/>
    <path data-geoid="3300345060" data-name="Madison" d="M1363,1797l26,0 9,50 10,70 10,18 -22,-2 -72,32 -5,2 -22,-120 40,-48Z"/>
    <path data-geoid="3300367780" data-name="Sandwich" d="M974,1888l9,-1 29,-4 11,-1 11,-2 15,-2 18,-3 5,0 42,-8 4,0 6,-2 29,-5 3,0 4,0 2,10 28,158 -186,23 -2,-11 -2,-19 0,-5 -1,-5 -6,0 -4,-28 -3,-21 0,-2 -9,-48 0,-5Z"/>
    <path data-geoid="3300376100" data-name="Tamworth" d="M1162,1870l135,-23 22,120 -50,21 -33,50 -46,-10 -28,-158Z"/>
    <path data-geoid="3300377620" data-name="Tuftonboro" d="M1268,2043l55,117 1,0 -1,0 -60,83 -30,33 -14,-13 -15,-14 -17,-13 -1,-2 -1,-1 -1,-2 -1,-2 -3,-1 35,-62 -24,-16Z"/>
    <path data-geoid="3301769940" data-name="Somersworth" d="M1565,2698l27,-41 2,2 2,0 1,0 2,3 3,2 2,1 1,2 0,3 2,3 1,2 3,0 2,0 2,0 1,3 0,2 3,3 2,2 2,0 3,3 2,2 1,5 2,2 3,1 1,-1 0,-2 0,2 3,0 1,0 2,1 1,0 3,2 3,2 0,1 0,2 0,7 -44,25Z"/>
    <path data-geoid="3301765540" data-name="Rollinsford" d="M1604,2737l44,-25 2,1 2,0 2,0 5,0 9,5 1,4 1,0 0,5 2,3 1,2 1,1 1,2 0,2 -1,1 -1,4 0,1 0,2 -1,2 -2,1 -2,7 -2,5 0,3 0,5 0,2 -47,-15Z"/>
    <path data-geoid="3301748660" data-name="Milton" d="M1473,2409l7,-8 2,-2 1,-2 14,-20 5,-6 23,-32 5,-5 1,0 -1,8 3,4 2,3 1,8 2,0 0,5 0,4 -1,1 0,5 0,2 1,0 -3,3 0,4 0,3 -1,3 -6,4 0,5 -1,3 -2,3 -1,2 0,2 1,1 0,2 0,2 0,-2 0,2 0,1 -2,2 -4,2 3,3 1,0 0,2 1,0 4,0 3,3 1,2 2,3 -1,3 -2,7 -1,2 0,1 -2,2 -1,3 0,2 1,7 3,1 2,4 0,3 -1,3 -4,2 -3,0 0,2 0,3 0,3 0,2 -1,3 -2,2 -1,2 -2,1 -3,0 -1,0 -2,2 0,2 -3,19 0,2 1,2 1,1 1,0 0,5 -4,5 1,5 0,2 0,2 0,3 0,2 0,1 -4,7 -89,-63Z"/>
    <path data-geoid="3301726020" data-name="Farmington" d="M1415,2487l2,-3 89,63 -76,97 -81,-72Z"/>
    <path data-geoid="3300740420" data-name="Lancaster" d="M886,1190l7,-25 11,-7 -2,-1 -2,-2 -1,-2 11,-13 0,2 -1,3 3,3 8,-3 1,-2 2,-5 7,-3 4,0 3,0 3,-2 3,-1 1,-5 2,-2 4,-10 0,2 3,0 0,-2 0,-3 2,0 3,1 3,0 1,-3 0,-2 -3,-1 -1,-2 -1,-2 -2,-1 -2,-4 -5,-6 0,-2 0,-3 5,0 9,-7 5,-13 87,43 27,-15 7,-5 8,75 -103,20 -78,45 -29,-39Z"/>
    <path data-geoid="3300746020" data-name="Martins" d="M1277,1318l38,0 -13,35 -30,0Z"/>
    <path data-geoid="3301911380" data-name="Charlestown" d="M158,2795l9,-65 8,-40 4,-3 25,-62 -11,-31 52,1 -4,19 -5,41 20,38 -16,4 12,66 -68,14 8,45 -24,-4 -11,-1 -2,0 -2,0 -2,0 -1,0Z"/>
    <path data-geoid="3301931220" data-name="Grantham" d="M373,2402l23,-33 1,-46 17,-29 16,7 3,0 6,3 13,7 21,8 -11,18 0,2 6,3 21,9 -18,28 16,5 -18,43 -30,0Z"/>
    <path data-geoid="3301718820" data-name="Dover" d="M1543,2737l22,-39 39,39 15,18 47,15 0,3 0,2 0,3 -1,0 -3,2 -2,0 -1,3 0,2 1,0 0,5 2,3 1,7 -1,2 -2,3 0,12 -1,1 -1,4 -1,3 0,2 -2,4 -1,2 0,3 2,5 1,4 9,20 -24,-4 -2,0 -3,-3 -2,-2 -3,-3 -1,0 -96,-105Z"/>
    <path data-geoid="3301703460" data-name="Barrington" d="M1448,2657l95,80 -8,11 -34,57 -26,43 -24,-20 -3,0 -2,-5 -10,-6 -49,-40 -1,-2 -1,-2 -1,0 -2,-3 -2,-2 -5,-3Z"/>
    <path data-geoid="3301719700" data-name="Durham" d="M1536,2817l95,38 4,1 2,2 3,3 2,0 -2,0 -14,4 2,45 -12,11 -14,-3 -1,0 -2,-2 -7,-3 -8,-2 -4,0 -13,-1 -2,0 -3,0 -27,3 -1,3 -9,2 -2,0 -4,2 -1,0Z"/>
    <path data-geoid="3301765140" data-name="Rochester" d="M1430,2644l76,-97 4,-7 2,2 1,0 2,7 4,6 1,2 0,2 1,3 -3,3 5,7 0,2 0,5 0,1 4,-1 -2,3 0,2 2,1 1,2 3,0 4,2 0,1 1,2 2,5 2,0 2,-2 2,0 3,0 1,0 1,0 4,0 1,0 3,-1 2,0 1,1 1,0 -1,0 0,2 1,2 0,5 4,1 3,2 0,2 0,1 -1,0 1,0 0,2 2,0 2,-2 1,0 0,2 1,2 0,1 4,5 0,2 -2,0 2,7 1,1 2,0 2,2 1,3 4,2 1,2 0,1 2,0 3,4 -1,1 -1,0 -2,0 -4,0 0,2 -1,0 -1,2 0,1 0,2 2,0 6,5 -27,41 -22,39 -95,-80Z"/>
    <path data-geoid="3301747700" data-name="Middleton" d="M1393,2379l5,-7 4,7 4,-7 5,7 2,-8 9,1 12,-20 4,5 10,-1 5,-7 8,0 6,33 2,4 0,1 1,4 0,5 3,10 0,3 -56,75 -2,3Z"/>
    <path data-geoid="3301744820" data-name="Madbury" d="M1501,2805l34,-57 96,105 1,0 3,3 2,2 -2,-2 -4,-1 -95,-38Z"/>
    <path data-geoid="3301741460" data-name="Lee" d="M1433,2921l2,-5 5,-10 5,-6 30,-52 26,-43 35,12 -18,103 -1,0 -4,0 -25,0 -1,0 -26,0 -3,0 -24,1Z"/>
    <path data-geoid="3301751220" data-name="New Durham" d="M1319,2372l10,-15 9,-10 0,-1 7,-9 8,-9 0,-2 6,-7 10,-13 3,-3 1,-2 4,-5 0,-2 1,2 2,10 3,13 1,9 2,8 0,5 1,15 3,15 3,8 22,108 -66,85 -21,-133 -1,-2 -4,-35 -2,-15 -2,-10Z"/>
    <path data-geoid="3300386420" data-name="Wolfeboro" d="M1323,2160l1,0 62,13 54,41 -4,5 -59,75 0,2 -4,5 -1,2 -3,3 -10,13 -6,7 0,2 -8,9 -10,-6 -7,-5 -4,-3 -1,-2 -11,-8 -1,0 -4,8 -5,2 -45,-25 -24,-22 30,-33Z"/>
    <path data-geoid="3301916340" data-name="Croydon" d="M361,2397l12,5 66,25 30,0 -4,29 -11,66 -133,-38 2,-68 23,6Z"/>
    <path data-geoid="3301900260" data-name="Acworth" d="M256,2693l93,-13 17,122 -33,5 -4,1 -2,0 -3,0 -6,2 -6,0 -6,2 -6,0 -7,0 -3,1 -1,0 -5,0 -8,2 -14,2 -10,-54 -12,-66Z"/>
    <path data-geoid="3301940900" data-name="Langdon" d="M168,2818l24,4 -8,-45 68,-14 10,54 -17,8 -10,0 -9,-2 -4,0 -2,0 2,13 0,4 1,5 0,1 1,4 0,5 -7,0 -4,0 -3,-2 -3,0 -2,0 -3,0 -11,-3 -2,0 -6,0 -15,-2 0,-15Z"/>
    <path data-geoid="3301912900" data-name="Claremont" d="M188,2537l5,-8 12,-52 116,7 2,116 -65,-1 -17,15 4,-19 -52,-1 17,-27 -20,-5 -2,-3Z"/>
    <path data-geoid="3301915060" data-name="Cornish" d="M204,2369l1,-7 112,10 13,-16 33,16 -2,25 -15,25 -23,-6 -2,68 -116,-7 4,-23 1,-5 0,-3 0,-4 0,-3 0,-3 6,-17 1,-2 2,-5 1,-8 0,-2 0,-3 0,-3 -3,-9 -1,-1 -1,0Z"/>
    <path data-geoid="3300307940" data-name="Brookfield" d="M1377,2294l59,-75 25,130 -8,0 -5,7 -10,1 -4,-5 -12,20 -9,-1 -2,8 -5,-7 -4,7 -4,-7 -5,7 -3,-8 -3,-15 -1,-15 0,-5 -2,-8 -1,-9 -3,-13 -2,-10Z"/>
    <path data-geoid="3301551380" data-name="Newfields" d="M1488,2958l94,-2 -20,40 -75,-15Z"/>
    <path data-geoid="3300103220" data-name="Barnstead" d="M1236,2492l113,80 -6,8 -30,37 -2,5 -14,18 -11,15 -6,9 -3,-2 -2,-3 -1,0 -44,-34 -4,-3 -6,-5 -3,-2 -12,-8 -1,-2 -1,0 -2,-1 -25,-20Z"/>
    <path data-geoid="3300104740" data-name="Belmont" d="M1025,2387l8,-36 48,31 50,30 0,2 -67,91 -19,-14 -2,-2 -11,-7 -1,-1 -12,-9 -2,-1 -5,-4 -7,-5 -4,-3 -1,-2 -1,0 -3,-3 -3,-2 -3,-1Z"/>
    <path data-geoid="3300128740" data-name="Gilford" d="M1079,2239l33,-1 29,-25 36,11 26,153 -72,37 0,-2 -50,-30 -8,-40 18,-38 8,-45Z"/>
    <path data-geoid="3300101060" data-name="Alton" d="M1177,2224l3,4 3,1 1,2 1,2 1,1 1,2 17,13 15,14 14,13 24,22 45,25 5,-2 4,-8 1,0 11,8 1,2 4,3 7,5 10,6 -7,9 0,1 -9,10 -10,15 0,5 2,10 2,15 4,35 1,2 21,133 -113,-80 15,-18 -33,-25 -15,-72Z"/>
    <path data-geoid="3301557460" data-name="Nottingham" d="M1302,2928l22,-42 -16,-5 45,-68 27,-45 2,2 2,3 1,0 1,2 1,2 49,40 10,6 2,5 3,0 24,20 -30,52 -5,6 -5,10 -2,5 -47,0 -7,22Z"/>
    <path data-geoid="3301551620" data-name="Newington" d="M1616,2921l12,-11 -2,-45 14,-4 2,0 24,4 36,30 -37,23 6,27 -32,-2 -28,-18Z"/>
    <path data-geoid="3301554580" data-name="North Hampton" d="M1605,3059l18,-43 50,5 4,17 38,23 7,3 -13,20 -104,-23Z"/>
    <path data-geoid="3301552900" data-name="Newton" d="M1429,3206l19,-45 32,-2 11,0 13,38 -6,0 -10,4 -1,0 -6,1 -8,2 -3,3 -4,5 -5,5 -2,5 -3,5 -5,10 -30,-20Z"/>
    <path data-geoid="3301552340" data-name="Newmarket" d="M1488,2920l25,0 4,0 1,0 1,0 4,-2 2,0 9,-2 1,-3 27,-3 3,0 2,0 13,1 4,0 8,2 7,3 2,2 1,0 14,3 -5,4 -25,23 -4,8 -94,2Z"/>
    <path data-geoid="3301556820" data-name="Northwood" d="M1238,2747l4,-10 1,0 6,-15 2,-5 0,-2 4,-8 0,-2 1,0 13,-30 17,15 16,13 3,2 8,10 10,7 15,11 20,19 2,0 8,8 7,5 5,3 -27,45 -93,-21 -22,-44Z"/>
    <path data-geoid="3300151540" data-name="New Hampton" d="M821,2273l3,-5 1,0 2,0 3,0 2,0 1,-2 1,-3 9,0 2,5 1,1 26,-8 11,-5 0,-5 -1,-3 0,-2 0,-3 10,-5 2,-2 1,-2 -3,-5 -3,-5 0,-1 0,-2 1,0 1,-2 1,-1 1,-5 0,-4 1,-1 1,-2 -2,-5 -1,-3 -1,-4 0,-1 0,-9 0,-1 2,-4 1,0 1,-18 -1,-1 1,-2 2,-3 1,-2 2,-2 9,0 4,-1 3,0 3,0 2,0 4,0 4,-2 5,0 10,-2 9,-1 5,0 23,33 31,-4 0,2 -110,108 -58,57 -1,0 -1,-2 -2,-3 0,-4 -2,-3 -1,-5 -6,-1 -2,-2 -5,-8 -1,-4 1,0 0,-1 1,0 1,-2 1,-3 -1,-2 1,-3 7,-7 0,-3 -3,-4 -4,-3 -2,-2 -4,-3 0,-2Z"/>
    <path data-geoid="3300128980" data-name="Gilmanton" d="M1064,2505l67,-91 0,-2 0,2 72,-37 15,72 33,25 -15,18 -60,92 -23,-19 -2,0 -11,-6 -5,-4 -18,-13 -3,-2 -6,-5 -3,-1 -25,-19 -2,-1 -1,0 -3,-2Z"/>
    <path data-geoid="3300140180" data-name="Laconia" d="M1079,2239l20,20 -8,45 -18,38 8,40 -48,-31 -8,-28 -23,-59 21,-5 38,-35Z"/>
    <path data-geoid="3301562500" data-name="Plaistow" d="M1385,3181l1,0 43,25 -8,11 30,20 0,4 -3,10 -2,8 -1,5 -3,8 -2,-1 -4,-2 -18,-5 -10,-3 -2,0 -4,-2 -5,-2 -2,0 -20,-55Z"/>
    <path data-geoid="3301567620" data-name="Sandown" d="M1335,3076l27,0 3,80 -68,-18 0,-10 -4,-59Z"/>
    <path data-geoid="3301566660" data-name="Salem" d="M1276,3219l34,-7 14,52 24,5 -2,2 -14,16 -1,4 -2,1 0,15 2,15 0,2 1,15 0,1 0,4 2,16 -6,-3 -5,-2 -6,0 -4,-1 -2,0 -1,-2 -5,0 -6,-2 -5,-1 -8,1 -12,4 -11,-15 -2,-2 -2,0 -1,-2 -4,0 -3,0 -1,-1 -1,0 -1,0 -11,-2 45,-80Z"/>
    <path data-geoid="3301566180" data-name="Rye" d="M1678,2998l25,6 44,-59 32,20 64,71 26,18 -34,7 -43,-22 -6,39 -64,-14 -7,-3 -38,-23 -4,-17 8,-8Z"/>
    <path data-geoid="3301562900" data-name="Portsmouth" d="M1702,2895l41,33 6,10 -2,7 -44,59 -25,-6 -7,-53 -6,-27Z"/>
    <path data-geoid="3301574340" data-name="Stratham" d="M1562,2996l20,-40 4,-8 7,3 39,37 -9,28 -18,43 0,2 0,-2 -45,-30Z"/>
    <path data-geoid="3301507220" data-name="Brentwood" d="M1426,2998l65,0 4,66 0,2 0,-2 0,2 1,12 -76,-2Z"/>
  </g>
  <g class="cities">
    <circle r="3" cx="107.8" cy="303.2"/>
    <text x="107.8" y="303.2">Manchester</text>
    <circle r="3" cx="106.7" cy="332.6"/>
    <text x="106.7" y="332.6">Nashua</text>
    <circle r="3" cx="100.0" cy="276.2"/>
    <text x="100.0" y="276.2">Concord</text>
  </g>
</svg>