<?xml version="1.0" encoding="utf-8"?>
<!DOCTYPE svg PUBLIC "-//W3C//DTD SVG 1.1//EN" "http://www.w3.org/Graphics/SVG/1.1/DTD/svg11.dtd">
<svg version="1.1" xmlns="http://www.w3.org/2000/svg" width="182" height="350" viewBox="0 0 182 350">
  <g class="counties" transform="scale(0.1)">
    <path data-fips-int="33001" data-name="Belknap County" d="M1343,2337l-24,35 30,200 -69,92 -103,-80 -189,-135 -47,23 -17,-11 -18,-62 -13,5 -36,-35 5,-13 -38,-47 -3,-33 40,-5 33,-37 -3,-50 9,-34 113,-12 -9,-87 58,64 193,183 58,15Z"/>
    <path data-fips-int="33003" data-name="Carroll County" d="M1479,1388l23,574 19,336 10,36 -58,75 -11,-58 -29,1 -15,27 -25,0 -17,-83 -33,41 -30,-24 -58,-15 -193,-183 -58,-64 -30,-163 186,-28 -19,-140 32,-56 -18,0 -14,-38 -6,-72 -23,-13 -11,-58 8,0 19,-5 10,44 25,19 14,53 -1,40 29,0 6,-58 46,-132 10,-3 132,10 50,-3 -2,-60Z"/>
    <path data-fips-int="33005" data-name="Cheshire County" d="M535,2861l-20,142 -4,93 52,2 29,194 28,4 14,96 -312,-12 -185,-10 -30,-61 -38,-33 -19,-69 3,-38 27,-38 -8,-52 56,-20 27,-51 -20,-52 30,-36 3,-42 -23,-45 5,-16 18,1 0,30 56,7 -4,-32 205,-30 -22,63Z"/>
    <path data-fips-int="33007" data-name="Coos County" d="M1479,1388l-32,0 2,60 -50,3 -132,-10 -10,3 -46,132 -6,58 -29,0 1,-40 -14,-53 -25,-19 -10,-44 -19,5 -24,-49 -59,-16 -63,10 -10,-64 -90,-41 -10,7 -61,-95 47,-5 48,-44 13,-36 43,-18 19,-22 -14,-18 17,-25 -22,-24 35,-11 21,-30 -17,-8 8,-35 -15,-35 -19,-9 -12,-51 -27,-42 -2,-31 48,-47 -1,-32 22,-28 9,-36 42,-49 -18,-28 -1,-48 -22,-27 36,-35 4,-71 24,-19 36,-51 2,-35 26,-73 -36,-30 49,-5 22,-20 -3,-20 70,-45 48,65 30,-5 15,18 30,0 55,-83 8,75 16,289 22,305 13,284Z"/>
    <path data-fips-int="33009" data-name="Grafton County" d="M1109,1483l-8,0 11,58 23,13 6,72 14,38 18,0 -32,56 19,140 -186,28 30,163 9,87 -113,12 -9,34 3,50 -33,37 -40,5 3,33 -31,-6 -53,29 -29,-84 -79,104 -122,-20 -22,19 -25,-14 9,-18 -90,-40 -113,-20 -3,-23 28,-63 0,-35 29,-47 40,-20 24,-30 17,-48 -2,-60 29,-50 36,-31 0,-30 25,-27 -21,-8 -2,-28 36,-64 42,-46 -22,-40 20,-25 -29,-73 16,-67 -16,-35 31,-45 -1,-21 45,-20 50,0 19,-15 30,17 58,-30 -2,-30 46,-30 61,95 10,-7 90,41 10,64 63,-10 59,16Z"/>
    <path data-fips-int="33011" data-name="Hillsborough County" d="M1135,3014l17,89 -71,11 22,135 38,2 36,66 83,20 14,17 -46,58 -413,-12 -181,-8 -14,-96 -28,-4 -29,-194 -52,-2 4,-93 20,-142 14,-39 -13,-29 26,-8 88,-23 53,118 176,-49 25,127 113,-20 6,27 37,16 17,-11 6,31Z"/>
    <path data-fips-int="33013" data-name="Merrimack County" d="M824,2309l38,47 -5,13 36,35 13,-5 18,62 17,11 47,-23 189,135 103,80 -11,11 -135,301 1,38 -52,-13 -6,-31 -17,11 -37,-16 -6,-27 -113,20 -25,-127 -176,49 -53,-118 -88,23 -30,-43 -5,-42 -17,0 -22,-86 37,-69 -3,-81 40,5 10,-27 60,-90 79,-104 29,84 53,-29Z"/>
    <path data-fips-int="33019" data-name="Sullivan County" d="M632,2352l-60,90 -10,27 -40,-5 3,81 -37,69 22,86 17,0 5,42 30,43 -26,8 13,29 -14,39 -132,-5 22,-63 -205,30 4,32 -56,-7 0,-30 -18,-1 14,-50 4,-72 25,-28 12,-42 -12,-28 17,-32 -24,-8 12,-32 22,-118 -15,-38 16,-33 2,-42 46,-35 113,20 90,40 -9,18 25,14 22,-19Z"/>
    <path data-fips-int="33015" data-name="Rockingham County" d="M1604,2918l-26,35 49,-5 18,15 9,-22 -22,-8 6,-63 37,5 42,30 51,61 -74,132 0,30 -27,5 -7,31 11,22 -27,15 -33,-27 -42,-5 -38,23 -58,12 -31,68 -63,-20 -49,40 2,68 -58,-6 -14,-17 -83,-20 -36,-66 -38,-2 -22,-135 71,-11 -17,-89 -1,-38 135,-301 206,173 -43,73 86,-1 40,-10Z"/>
    <path data-fips-int="33017" data-name="Strafford County" d="M1531,2334l7,40 -20,40 15,15 -1,38 -20,24 -4,36 10,40 20,30 34,13 12,42 91,83 -17,47 -6,86 -11,-20 -24,17 8,40 -21,13 -46,-8 -40,10 -86,1 43,-73 -206,-173 11,-11 69,-92 -30,-200 24,-35 33,-41 17,83 25,0 15,-27 29,-1 11,58Z"/>
  </g>
  <g class="cities">
    <circle r="3" cx="107.8" cy="303.2"/>
    <text x="107.8" y="303.2">Manchester</text>
    <circle r="3" cx="106.6" cy="332.6"/>
    <text x="106.6" y="332.6">Nashua</text>
    <circle r="3" cx="100.0" cy="276.2"/>
    <text x="100.0" y="276.2">Concord</text>
  </g>
</svg>