<?xml version="1.0" encoding="utf-8"?>
<!DOCTYPE svg PUBLIC "-//W3C//DTD SVG 1.1//EN" "http://www.w3.org/Graphics/SVG/1.1/DTD/svg11.dtd">
<svg version="1.1" xmlns="http://www.w3.org/2000/svg" width="182" height="350" viewBox="0 0 182 350">
  <path class="state" transform="scale(0.1)" d="M269,2259l1,-1 1,-4 9,-46 3,-10 10,-50 1,-7 29,-50 40,-20 22,-26v-4l16,-38 2,-15 3,-21 1,-5 -4,-30v-4l5,-6h3h3l3,-2 4,-2v-1l-1,-4v-16l40,-35 7,-25v-5l9,-15 5,-7 1,-3 1,-3 -12,-17 6,-38h2l1,-4 -1,-1v-2v-2l-1,-3 2,-3 1,-2h1h6l1,5h3l-3,-17h1l9,4h1v-2v-2l2,-6h1h2l1,-2v-2l1,-1h-1v-4l10,-16h1h2v-2v-2l-2,-3h-3h-1l1,-5 7,2 2,-2h1l7,-13 -3,-10 18,-3 -9,-9 -2,-1 1,-2h6l1,-2 5,-11 -1,-4 -8,-3 -4,8h-2h-1h-1h-1l-2,-3 -1,-2v-3v-2l-1,-1 -1,-2v-3l1,-4v-3h1v-3v-2l1,-3v3h1l2,-3 4,-2 1,-2h2h3h1v-1l1,-5h1l1,-2 -1,-2h-2l-3,-3 -1,-2 -1,-5v-3v-2v-3v-2v-6l1,-2 2,-2 -4,-3 1,-2v-1h-4h-1l-1,-5 -1,-2 -3,-2 -1,-5 -2,-10 -2,-5 -3,-3 -2,-5h-1v-3l1,-2v-3l1,-2 1,-1 2,-4h1l1,-3v-2l-1,-3h1l-2,-2 2,-3h1h1l2,-13v-2l2,-7 2,-6 1,-7v-2l-1,-1 -1,-4 -4,-5 -1,-3 -4,-13h-1l2,-5 1,1v-3l-1,-3h-1h-2h-1h-1h-1v-9l1,-1 2,-7 3,-2 3,-3v-2l1,-1 1,-2h1l4,-2h2l1,-3h1l1,-2h3l3,-3 4,-10v-5v-2l1,-1v-2l-1,-2v-3h-1v-2h1l1,-1 2,-2 9,2h1h2h1l3,-2h2l2,-2 5,-1h1l1,-2 5,-2 4,-4h2h1l1,-4 1,-3h1l2,-2h2h1l4,2h12h3l9,-2 5,2 4,2 14,-12 2,-2 4,-1 23,3 6,5 11,5h2l1,-2h1l5,-3h7h1h1l1,-3 7,-2h2v-2l3,-3h1l2,-2 5,-1h1l3,-2h4l2,-3 3,-2h1h1v-2l-1,-1 -1,-5 -1,-2 1,-7 1,-1 1,-2 -1,-2 -1,-1h-1v-4l1,-1v-4l6,-3h5h1l1,-2v-1v-12l1,-2 7,-5 10,2 15,-8 18,6 2,-1h1l1,-4 1,-3v-2l18,-1h1h3l18,-12h1l1,-2 3,-1 5,-4 3,-3v-2l2,-6 2,-4 28,-41 10,-13 -1,1v2l2,3 9,-5 5,-6h7l5,-2 3,-2h1l2,-1 7,-15h4l1,-5 7,-2v-2l-4,-3 -2,-2 -8,-13v-3h4l6,-30 7,-24 15,-3h-1l7,-10 -3,-7 16,-10 -3,-3v-5l-7,2 2,-3 -1,-2 -1,-2 -5,4 -1,-4 2,-3 -9,-2 7,-11 1,-17 2,2 2,1h1l-1,-5 -1,-3 -1,-3 -11,-10 4,-5 -4,-9 -4,-6h-8v-4l-10,-5 2,-3 -2,-8 3,-7h-5l-2,-3 -4,-5v-5l-1,-4v-3l-1,-3 1,-5 -4,-4 -15,-28 -2,-8 -6,-8 1,-2 -1,-7 -4,-10 1,-3 49,-52 1,-26 -2,-4 2,-5 2,-1 16,-32 -1,-2 5,-19h1l1,-2 20,-18 3,-4 5,-5 5,-8 12,-17 3,-3v-3l-2,-4 -3,-3h-2l-11,-15 -1,-2 -1,-10 -3,-1h-1l-1,-2 6,-8 -1,-4 -2,-1v-2l3,-8 -1,-10 -5,-2 -8,-15 -4,-3h-1l-4,-7 3,-3 1,-5v-3l29,-19 20,9 13,-14h-29h-1v-1l1,-9v-1l1,-5 2,-5 3,-5v-2l1,-3 -6,-10 -6,-5 2,-4 4,-5 -1,-3 2,-12 1,-1 2,-2 5,-3 1,-2 1,-3v-4l6,-3 1,-2 10,-1v-5l3,-4 5,-8 2,-2 2,-1 4,-12 2,-3h1l7,-7 6,-6 4,-4 1,-1v-5l-8,-14 -1,-1 2,-4 1,-3 1,-2 7,-15v-5l1,-5 7,-18 2,-3 4,-7 3,-10 2,-2 3,-1 1,-10 -3,-5 -10,-7 -3,-2 -9,-8 -11,-10 -3,-3 8,-2 7,5h2l10,-7 5,-3h11l14,-1 4,-4 6,-1 5,-5 3,-4 -1,-8 -2,-8 2,-5 10,-2 8,-2h2l2,-3 6,-7 11,-8h1l7,-3 10,-14h3h3h4l9,4 7,5 10,26 8,4 2,3 7,7 2,6 1,2 7,3h4h3l2,4 4,-4 7,-1h3h2l5,5 3,1 3,7 9,-2 2,-1 7,-5h5l7,8 7,2 4,-2 8,-8 1,-4 5,-8 4,-10 3,-8v-2l5,-5v-7l2,-6 3,-9 3,-5 2,-1 7,-7h5l7,72v1l2,30 2,42 15,223v3v3l7,100 4,63v9v3l4,56 2,20 1,22 2,25v13v9l1,11 3,53 7,127 3,75v3v2v5l4,65v5v5v6l2,14v11v13l1,14 1,8v2v5v1l2,15v15v2v10v2l1,5v1v12v2v3l2,20v12v1v9l1,23 2,28 1,2v8v12v23l2,17v1v9l8,199v4l1,21v10l1,25v5v2v5l1,5v5v3l1,23v4v1l2,25 3,65v5v37l1,21v4v3v3l2,10v7l1,15v32v16l1,13v9v3v3l2,20v9l1,11 2,4v3v5l1,15v8v12v7v1v2v2v3v2l2,5v1v22l5,65v8v2l2,8v2v3v15v5v3v2l1,13v5l2,9v5l4,1 1,2 2,2v1l6,4v1l1,2 3,8v10v3l-2,2h-2h-2h-1l-2,8 5,7v7h1l1,1h2v5v4l-2,1 2,5v2l-4,3v4v3l-1,3 -5,5v2v2l-2,3 -1,3v7h1l-1,2v1l-3,2h-1h-3l4,5v2h2h4l3,3 1,2 1,3 -2,10 -3,30 -3,10 -3,5 -1,2 -3,1h-2h-1l-2,2 -4,21 3,10 -3,5v9v3v2l2,3h2l2,7 3,6v2h1v2l2,3 -3,5v2l4,3v5v3h6l-2,2 5,5 3,2 7,10v-2h3l3,-2h1l1,2 4,-2h1l2,-1 5,3 -2,-2v4l2,1v4h4l3,1v2l-1,2 1,3h1h2v-3l3,3 1,2 3,8v-2l-2,2 5,10 3,3v-1h1h2h1v3v2h2h1l3,5 -2,1h-1h-1h-3l-3,4v1l6,7 4,2v1h1h1l2,2 6,3v2l4,10h6l4,5 1,3h3l9,12h2h1h1h3h3h1h3v1l2,5v4v5l2,1h2h3h3l11,5v4l1,1v2v2l1,1 4,2 1,5 -4,7v1l-2,9 -1,3v2l-3,11v2v2l-4,8 -3,2v3v2l3,3v2l1,10 -2,3 -2,7 -1,8 -3,11v4l3,10v6l-26,2 -2,2 -12,10 8,38 -21,13 -23,40 9,-6h2l63,-2 -1,-2 -25,-30 9,-46 37,5 25,21 1,2 41,50h4l22,17 -51,93 -3,1 -9,22 -2,3 -13,35 4,9 -2,1 -5,-1 -10,25 -23,-19 3,2 -2,18v4l16,1 6,2 -1,2 -5,21 -6,3h-1l-2,2 -4,2h-1l-3,3 -3,2 -7,3h-2l-11,-8 -2,-2h-2l-1,-2 -2,-3h-2h-1l-3,-3 -7,-7 -3,-2 -13,-5h-1h-3h-7h-3h-4h-6l-4,2 -6,5 -5,3 -12,7h-2l-3,3 -3,2 -3,2 -2,1h-6l-4,2h-2l-4,2h-4h-2l-4,1 -7,2h-12l-5,2 -6,3h-2l-4,3 -4,5 -4,4 -3,6 -2,4 -1,1 -3,10 -1,4 -3,6v4l-3,8v3l-3,10 -6,-3 -10,-2 -4,-3 -5,-2 -11,-1h-1l-3,-2 -6,-2h-3h-1l-13,-5 -11,5 -3,2 -18,10h-1v2l-14,16 -1,2 -1,2v3v15v13l2,20v18l-4,-3h-6l-3,-2 -6,-1h-3l-1,-2h-1h-2l-6,-2 -6,-1h-2l-7,1 -11,4 -3,1 -3,2 -4,5 -2,2 -7,8 -2,2 -7,13 -1,2 -2,5 -8,10h-2l-5,8h-18h-3h-12h-14l-1,-2h-17h-2h-2h-2h-4h-11h-2l-15,-1h-15h-2h-9h-2h-5h-1h-6h-1h-1h-2h-8l-4,-4h-3h-9h-10h-7h-4h-4l-10,-1h-6h-17h-1h-3h-3h-6h-13h-17h-16h-10h-2h-5h-1h-5l-4,-2h-1h-1h-3h-5h-2h-8h-11h-7h-3l-11,-2h-13h-25h-8l-11,-1h-2h-3h-15h-15l-12,-2h-7h-6h-11l-25,-2h-23l-10,-1h-11h-2h-10h-11l-6,-2h-1h-6h-13h-6h-16h-2l-3,-3h-12h-1h-3h-3h-1h-7h-4h-1h-2h-5h-12h-7h-4h-7h-3l-5,-2h-20h-3h-1h-4l-20,-2h-14l-25,-1h-17h-4l-13,-2h-13h-7h-11l-6,-2h-7h-3h-8h-1h-12l-7,-1h-12h-9h-2l-10,-2h-20l-19,-3h-15l-26,-2h-6h-1h-2h-11h-9h-8h-8h-1l-6,-2h-9h-1l-1,-3 -18,-43 -29,-15v-5v-2l-23,-26 -18,-72v-5l2,-32 19,-14 6,-47 -6,-27 56,-21 28,-47 -13,-15 -3,-6 -5,-30 30,-42 3,-48 -2,-2 -6,-13 -1,-7h-2l-1,-2 -6,-29 14,-50 4,-72 25,-30 12,-40 -12,-26 5,-12 12,-20 -24,-10 19,-73 1,-8 4,-24v-5l7,-28v-2l2,-5 1,-10 1,-6 -16,-30 2,-5 14,-57Z"/>
  <g class="subcounties" transform="scale(0.1)">
    <path data-geo-id="3301384900" data-name="Wilmot" d="M594,2409l2,-3 2,-2 1,-3 4,-5 29,-44 4,-5 32,89 18,-20 12,25 -30,13 35,76 -24,32 -22,-48 -24,-17 11,-23 -64,-42Z"/>
    <path data-geo-id="3301380020" data-name="Webster" d="M769,2600l65,-33 14,40 46,80 -16,8 -53,18Z"/>
    <path data-geo-id="3301327380" data-name="Franklin" d="M858,2366l-1,3 8,8 10,14 9,3 8,7 1,3 13,-5v2l5,11 2,5 2,-1v3l2,7 1,3h-3l1,5 1,3 1,4 -3,1 7,15 1,2 1,2 -6,48 -21,28 -20,10 -28,-37 5,-48 -11,-41 -24,-35Z"/>
    <path data-geo-id="3301360020" data-name="Pembroke" d="M1075,2708l6,5 -12,15 56,42 -13,28 22,5 -32,47 -35,13 -28,-40 -2,-51 18,-2 -1,-28Z"/>
    <path data-geo-id="3301319460" data-name="Dunbarton" d="M879,2831l36,-9 47,36 2,28 59,44 -6,8 -25,5 -12,2 -18,3h-2l-19,2 -6,3 -16,2 -7,1 -8,2 -15,-73 -1,-5 -2,-12v-2l-4,-21Z"/>
    <path data-geo-id="3301300660" data-name="Allenstown" d="M1066,2868l1,-5 35,-13 32,-47 70,15 -4,12 -3,6 -1,2 -1,5 -1,2v1l-1,2 -2,3 -3,7 -18,35 -1,3Z"/>
    <path data-geo-id="3301306500" data-name="Bow" d="M939,2817l9,16 64,-33 27,23 28,40 -1,5 -43,62 -59,-44 -2,-28 -47,-36Z"/>
    <path data-geo-id="3301306260" data-name="Boscawen" d="M834,2567l43,-20 20,-10 2,27 16,43 33,18 5,35 -59,27 -46,-80Z"/>
    <path data-geo-id="3300768500" data-name="Second College" d="M1343,534l3,-20 83,-5 6,52 4,63v9v3l1,15 -116,7Z"/>
    <path data-geo-id="3300773060" data-name="Stark" d="M1042,932l69,-10 -2,-12 82,-3 7,75 -15,43 -86,50 -8,15 -8,5 -28,-20 -5,-138Z"/>
    <path data-geo-id="3300774500" data-name="Success" d="M1339,1178l34,-101 47,-103 39,-2 3,75v3v2v5l4,65v5v5v6l2,14v11v13l1,14 -130,3Z"/>
    <path data-geo-id="3300780740" data-name="Wentworth" d="M1286,661l38,-3 116,-7 3,41 -155,7Z"/>
    <path data-geo-id="3300784420" data-name="Whitefield" d="M863,1323l71,-65 -19,-28 78,-45 17,113 -66,12 9,54 -12,-5 -15,-8 -15,-7 -5,-1 -9,-4 -3,-1 -3,-2 -3,-2 -6,-4 -13,-4Z"/>
    <path data-geo-id="3301312420" data-name="Chichester" d="M1081,2713l64,-86 44,32 -24,23 -40,88 -56,-42Z"/>
    <path data-geo-id="3301324900" data-name="Epsom" d="M1125,2770l40,-88 91,23 -1,2v1l-4,9 -2,5 -6,15 -1,1 -2,5h-1v2h-1v3l-2,4 -1,1v2h-1l-5,13 -2,4 -19,43 -1,5 -3,-2 -70,-15 -22,-5Z"/>
    <path data-geo-id="3301306980" data-name="Bradford" d="M510,2698l105,-26 26,-7h1l38,90 -30,5 -22,8 -6,2 -48,13h-3l-4,2 -5,2 -12,-17 -7,-12 -11,-16 -1,-5v-4l-4,-35Z"/>
    <path data-geo-id="3301337540" data-name="Hopkinton" d="M768,2730l57,-17 53,-18 61,122 -24,5 -36,9 -9,4h-2l-5,1 -15,2 -3,2 -3,3 -23,5h-1Z"/>
    <path data-geo-id="3301335540" data-name="Henniker" d="M650,2760l30,-5 88,-25 50,118 -1,2 -46,11 -12,4h-3l-10,3 -6,2h-6l-12,5 -10,1 -9,4 -2,-9 -3,-3 -6,-13 -2,-5v-2l-3,-5v-3l-1,-2 -1,-2 -25,-54 -5,-10 -3,-10Z"/>
    <path data-geo-id="3301309860" data-name="Canterbury" d="M899,2564l149,-57 17,-2 10,7 2,2h1l-2,35 -65,90 -5,-7 -53,28 -5,-35 -33,-18Z"/>
    <path data-geo-id="3301962340" data-name="Plainfield" d="M221,2304l48,-45h2h1l9,2 41,8h5l23,5 15,2 12,3h3l3,2 5,2 8,3h1h1h1l1,2 14,6 -17,29 -1,46 -23,33 -11,-5 1,-25 -32,-16 -14,16 -110,-10v-1Z"/>
    <path data-geo-id="3301941700" data-name="Lempster" d="M347,2680l76,-15 9,42h24l-5,81 -26,4 -11,1h-4h-2l-42,9Z"/>
    <path data-geo-id="3301952580" data-name="Newport" d="M322,2484l133,38 -2,82 -35,28 -95,-30Z"/>
    <path data-geo-id="3301975060" data-name="Sunapee" d="M455,2522l10,-66 57,8v2l-3,13v5l-1,2v1h1l9,13v2v3v4l-2,16 1,2 -1,5v2v1l-1,5v2l-1,5h-1l-8,15 -2,5 -7,10 -3,8h-1l-1,2 -1,3 -2,4 -45,10Z"/>
    <path data-geo-id="3301972740" data-name="Springfield" d="M469,2427l18,-43 -16,-2 17,-31 20,-30 9,13h5l44,7 7,1h2h2l22,4 10,3 11,2 12,1 -29,44 -4,5 -1,3 -2,2 -2,3 -14,23 -8,10v2l-1,2 -2,3 -2,7 -2,5 -2,3 -1,2v1v2h-6l-2,-2h-2h-2l-20,-3h-8l-57,-8Z"/>
    <path data-geo-id="3301978980" data-name="Washington" d="M408,2838l1,-3 1,-2 15,-41 26,-4 5,-81 54,-9h17l4,35v4l1,5 11,16 7,12 12,17h-4l-8,3 -6,2h-2h-6l1,1v4l5,10 3,6 4,9 -2,5 -6,16 -3,8 -1,2 -2,8h-35h-2l-6,-1h-1h-5h-6h-25h-1l-19,-2h-14h-2l-16,-3Z"/>
    <path data-geo-id="3301977940" data-name="Unity" d="M242,2614l16,-14 65,2 95,30 5,33 -76,15 -91,13 -20,-43Z"/>
    <path data-geo-id="3300934820" data-name="Haverhill" d="M517,1689h2v-2v-2l-2,-3h-3h-1l1,-5 7,2 2,-2h1l7,-13 -3,-10 18,-3 -9,-9 -2,-1 1,-2h6l1,-2 5,-11 -1,-4 -8,-3 -4,8h-2h-1h-1h-1l-2,-3 -1,-2v-3v-2l-1,-1 -1,-2v-3l1,-4v-3h1v-3v-2l1,-3v3h1l2,-3 4,-2 1,-2h2h3h1v-1l1,-5h1l1,-2 -1,-2h-2l-3,-3 -1,-2 -1,-5v-3v-2v-3v-2v-6l1,-2h2l115,53 -46,145 -54,-28 3,20 -55,-30h2l1,-2v-2l1,-1h-1v-4l10,-16Z"/>
    <path data-geo-id="3300941860" data-name="Lincoln" d="M825,1549l134,60 40,-108 104,36 -5,22 25,45 -38,20 -41,35 4,41 -48,50 -66,-45 -19,9 -11,8 -121,-63Z"/>
    <path data-geo-id="3301533460" data-name="Hampton Falls" d="M1571,3074l21,-10 53,70h10l2,2 -2,18 -30,-8 -47,-3Z"/>
    <path data-geo-id="3301543220" data-name="Londonderry" d="M1081,3114h1h2l4,-1h4l8,-2h1h3h1h2h2l7,-2h3l21,-3 3,-2h3h2h2v-13l28,10 15,128 -16,2 1,36 -13,15v-3l-6,-7 -5,-5 -2,-5 -11,-11h-8h-19l-11,-4v-5l-5,-26 -3,-17 -1,-5 -2,-13 -2,-14 -2,-9 -3,-24 -2,-5v-3l-1,-3v-2v-2l-1,-1v-2Z"/>
    <path data-geo-id="3301571140" data-name="South Hampton" d="M1491,3159l31,-6h57l2,14h-4h-6l-4,2 -6,5 -5,3 -12,7h-2l-3,3 -3,2 -3,2 -2,1h-6l-4,2h-2l-4,2h-4h-2l-4,1h-1Z"/>
    <path data-geo-id="3301301460" data-name="Andover" d="M698,2441l43,-20 78,-35 24,35 11,41 -133,60 -18,8 -35,-76Z"/>
    <path data-geo-id="3301533060" data-name="Hampton" d="M1605,3059l98,24v1l-13,35 4,9 -6,1 -1,-1 -10,25 -23,-19h1h-10l-53,-70Z"/>
    <path data-geo-id="3300147140" data-name="Meredith" d="M1011,2176l43,-40 36,4 1,1 2,2 3,3 7,7 1,2 2,1 2,2 4,3 18,18 7,7 2,2 10,8 24,25 4,3 -35,-13 -30,27 -33,1 -16,-15 -40,35 -21,5 22,59 -122,-39Z"/>
    <path data-geo-id="3300167300" data-name="Sanbornton" d="M844,2341l58,-57 122,39 9,28 -9,36 -106,42 -1,-3 -2,-7v-3l-2,1 -2,-5 -5,-11v-2l-13,5 -1,-3 -8,-7 -9,-3 -10,-14 -8,-8 1,-3 1,-4 1,-1v-2l1,-2 1,-1 -2,-4 -3,-3 -8,-5 -4,-3Z"/>
    <path data-geo-id="3300177060" data-name="Tilton" d="M915,2429h3l106,-42 -33,64 -3,-2h-2l-3,-2h-1l-1,-1h-1h-1l-1,1h-1v2l-1,2 -1,1 -1,-1h-2h-2h-1h-1l-2,5 -1,1h-2l-1,2 -1,2h-1h-1h-1h-2l-1,1h-1l-1,2h-2l-2,-2h-2l-1,2v2v1v2h-2l-8,-3h-2l-3,1 -2,-1 -1,-2v-2h-1l-1,-1h-1h-1l-1,-2 -1,-2 -7,-15 3,-1 -1,-4 -1,-3Z"/>
    <path data-geo-id="3301773860" data-name="Strafford" d="M1273,2672l3,-7 4,-1 5,-9h1l11,-16 6,-7 7,-10 3,-5 3,-2 3,-6 4,-4 9,-13 10,-10 1,-2 6,-8 80,72 18,13 -72,108 -8,-5 -8,-8h-2l-19,-19 -15,-11 -10,-9 -8,-6 -3,-4 -15,-11 -18,-15Z"/>
    <path data-geo-id="3301314200" data-name="Concord" d="M878,2695l16,-8 59,-27 53,-28 5,7 18,36 46,33 -21,34 1,28 -18,2 2,51 -27,-23 -64,33 -9,-16Z"/>
    <path data-geo-id="3301335860" data-name="Hill" d="M740,2332l8,-9h5l2,-4 7,-5 11,-1 2,1 2,7 8,-8 2,-4 6,-6h1l2,1 1,2h1h1l1,-2 10,-1 4,-2h1h1h1l5,5 1,2 1,1h-1l17,25v2l4,5h1l4,3 8,5 3,3 2,4 -1,1 -1,2v2l-1,1 -1,4 -39,20 -78,35 -9,-54Z"/>
    <path data-geo-id="3301337300" data-name="Hooksett" d="M1017,2938l6,-8 43,-62 103,28 -10,27 -4,8 -2,2v3l-1,4 -2,3 -15,32 -1,3 -4,-2 -1,-1 -4,-2v2l1,3 1,2 1,1 6,30 1,2h-2l-2,-2 -28,-5 -1,-2h-2l-5,-1h-3h-2h-1l-4,-2h-2l-3,-10v-3l-1,-7v-1v-2v-2l-1,-5 -1,-1 -17,10h-1h-1l-1,-2h-1l-2,-2h-1l-1,-1h-1l-1,-2v-2l-1,-1v-2l-1,-3 -1,-2 -1,-2h-6l-17,4 -3,-17 -1,-2v-1l-1,-5Z"/>
    <path data-geo-id="3301354260" data-name="Northfield" d="M897,2537l21,-28 6,-48h1h1l1,1h1v2l1,2 2,1 3,-1h2l8,3h2v-2v-1v-2l1,-2h2l2,2h2l1,-2h1l1,-1h2h1h1h1l1,-2 1,-2h2l1,-1 2,-5h1h1h2h2l1,1 1,-1 1,-2v-2h1l1,-1h1h1l1,1h1l3,2h2l3,2 2,1 3,2 3,3h1l1,2 4,3 7,5 5,4 1,1 13,9 1,1 3,2 8,5 1,2 21,14 -17,2 -149,57Z"/>
    <path data-geo-id="3301316980" data-name="Danbury" d="M636,2347l3,-5 5,-6 8,-15 7,-7 1,-1 12,-19 7,-8v-2l2,-1 3,-4 4,-5 4,-6 3,-2 2,-3h1l19,1 3,7 4,13 8,24 7,20 1,4 -8,35 9,54 -43,20 -12,-25 -18,20Z"/>
    <path data-geo-id="3300575700" data-name="Swanzey" d="M245,3138l104,5 10,51 -13,67 -49,-4 -30,12 -20,-7 -5,-43 -37,-3Z"/>
    <path data-geo-id="3300539300" data-name="Keene" d="M230,3053l64,-17 43,-12 3,25 27,10 -19,32 -4,30h18l-13,22 -104,-5 -20,-20 -13,-60Z"/>
    <path data-geo-id="3300585540" data-name="Winchester" d="M123,3209l82,7 37,3 5,43 20,7 -18,17 13,91 -19,-3h-15l-26,-2h-6h-1h-2h-11h-9h-8h-8h-1l-6,-2h-5Z"/>
    <path data-geo-id="3300577380" data-name="Troy" d="M346,3261l13,-67 31,25 47,2 8,43h-34l-27,28 -20,-1Z"/>
    <path data-geo-id="3300536660" data-name="Hinsdale" d="M51,3201l72,8 22,161h-4h-1l-1,-3 -18,-43 -29,-15v-5v-2l-23,-26 -18,-72Z"/>
    <path data-geo-id="3300578420" data-name="Walpole" d="M166,2868l-6,-13 -1,-7h-2l-1,-2 -6,-29 4,1h1h2l11,2v13v17l15,1h5h3l12,2h2h2l5,2h12l11,90 -1,59 -91,-8 -3,-6 -5,-30 30,-42 3,-48Z"/>
    <path data-geo-id="3300575300" data-name="Surry" d="M234,3004l1,-59 48,-4 11,95 -64,17Z"/>
    <path data-geo-id="3301101700" data-name="Antrim" d="M515,3003v-2l2,-8 1,-5 1,-8 2,-9 2,-11 1,-4 5,-28 1,-2 1,-5 55,-13 68,-15 -2,68 -29,40 -109,18Z"/>
    <path data-geo-id="3301144580" data-name="Lyndeborough" d="M750,3089l53,-10 11,47 8,37 18,16 13,20 -33,17 -3,-32 -88,13 -23,-21Z"/>
    <path data-geo-id="3301131940" data-name="Greenville" d="M734,3299l11,-3 20,-2 11,78 -30,2Z"/>
    <path data-geo-id="3301151940" data-name="New Ipswich" d="M660,3294l74,5 12,75 4,23h-6h-11l-25,-2h-23l-10,-1h-11h-2h-10h-11l-6,-2h-1v-5l-1,-7 -3,-23v-2l-4,-21 -2,-10 -2,-15 -2,-15Z"/>
    <path data-geo-id="3300907700" data-name="Bristol" d="M765,2183l31,-17 11,12 -14,6 22,35 32,-13 28,23 16,-10h1h-1l-2,4v1l5,10 -12,10v2l1,10 -12,5 -26,7 -2,-5h-8l-3,5h-1h-6h-1l-4,5v1l15,17 -9,8v2v5l-2,2v1l-1,-1 -1,-2 -5,-5h-1h-1h-1l-4,2 -10,1 -1,2h-1h-1l-1,-2 -2,-1 8,-14Z"/>
    <path data-geo-id="3300961060" data-name="Piermont" d="M479,1749l1,-4 -1,-1v-2v-2l-1,-3 2,-3 1,-2h1h6l1,5h3l-3,-17h1l9,4h1v-2v-2l2,-6h1l55,30 -3,-20 54,28 2,106h-10l-118,-53v-1l-12,-17 6,-38Z"/>
    <path data-geo-id="3300974740" data-name="Sugar Hill" d="M764,1406l44,23 -37,98 -29,-10 -28,-8Z"/>
    <path data-geo-id="3300907540" data-name="Bridgewater" d="M807,2178l-11,-12 22,-13 70,-40 9,40 -6,31v9l3,15 -1,1v4l-1,6h-1l-16,10 -28,-23 -32,13 -22,-35Z"/>
    <path data-geo-id="3300900580" data-name="Alexandria" d="M679,2140l37,10 -8,13 57,20 37,106 -8,14h-1l-6,6 -2,4 -8,8 -2,-7 -2,-1 -11,1 -7,5 -2,4h-5l-8,9 -1,-4 -7,-20 -8,-24 -4,-13 -3,-7 -19,-1 -33,-10 -5,-72Z"/>
    <path data-geo-id="3300713220" data-name="Clarksville" d="M1042,475h5l15,-14 13,-33 30,-22 101,24 7,-12 114,22 -3,18 -12,70 -34,-5 -58,-12Z"/>
    <path data-geo-id="3300713940" data-name="Columbia" d="M964,716l-2,-4 2,-5 2,-1 16,-32 -1,-2 5,-19h1l1,-2 20,-18 3,-2 161,30 -8,43 -6,33 -76,12 -143,22 21,-19Z"/>
    <path data-geo-id="3300716820" data-name="Dalton" d="M810,1241l2,-1h1l1,-4 1,-3v-2l18,-1h1h3l18,-12h1l1,-2 3,-1 5,-4 3,-3v-2l2,-6 2,-4 15,-6 28,40 19,28 -71,65 -7,5 -3,2 -6,-10 -22,-34 -3,-5 -6,-6 -7,-12 -7,-12 -2,-3 -7,-12 -1,-1Z"/>
    <path data-geo-id="3300711220" data-name="Chandlers" d="M1149,1376l8,-2 7,37 9,47 -6,10 -14,-69Z"/>
    <path data-geo-id="3300902020" data-name="Ashland" d="M870,2075l33,-4 53,57 2,17h-3l-11,1 -15,2 -3,2h-1h-5h-2h-3h-1h-1l-13,1 -3,2 -9,-40Z"/>
    <path data-geo-id="3300756100" data-name="Northumberland" d="M965,1033l15,-3h-1l7,-10 -3,-7 16,-10 -3,-3v-5l-7,2 2,-3 -1,-2 -1,-2 -5,4 -1,-4 2,-3 -9,-2 7,-11 1,-17 2,2 2,1h1l-1,-5 -1,-3 -1,-3 -11,-10 5,-5 62,-2 6,5 5,138 28,20 -27,15 -86,-43 -10,-10Z"/>
    <path data-geo-id="3300761780" data-name="Pittsburg" d="M1032,406l-1,-3 2,-12 1,-1 2,-2 5,-3 1,-2 1,-3v-4l6,-3 1,-2 10,-1v-5l3,-4 5,-8 2,-2 2,-1 4,-12 2,-3h1l7,-7 6,-6 4,-4 1,-1v-5l-8,-14 -1,-1 2,-4 1,-3 1,-2 7,-15v-5l1,-5 7,-18 2,-3 4,-7 3,-10 2,-2 3,-1 1,-10 -3,-5 -10,-7 -3,-2 -9,-8 -11,-10 -3,-3 8,-2 7,5h2l10,-7 5,-3h11l14,-1 4,-4 6,-1 5,-5 3,-4 -1,-8 -2,-8 2,-5 10,-2 8,-2h2l2,-3 6,-7 11,-8h1l7,-3 10,-14h3h3h4l9,4 7,5 10,26 8,4 2,3 7,7 2,6 1,2 7,3h4h3l2,4 4,-4 7,-1h3h2l5,5 3,1 3,7 9,-2 2,-1 7,-5h5l7,8 7,2 4,-2 8,-8 1,-4 5,-8 4,-10 3,-8v-2l5,-5v-7l2,-6 3,-9 3,-5 2,-1 7,-7h5l7,72v1l2,30 2,42 15,223v3h-104l3,-18 -114,-22 -7,12 -101,-24 -30,22 -13,33h-2h-29h-1v-1l1,-9v-1l1,-5 2,-5 3,-5v-2l1,-3 -6,-10 -6,-5 2,-4Z"/>
    <path data-geo-id="3300773380" data-name="Stewartstown" d="M997,493l1,-5v-3l25,-17 19,7 178,36 -16,73 -187,-33v-3l-1,-4 -2,-1v-2l3,-8 -1,-10 -5,-2 -8,-15 -4,-3h-1l-4,-7Z"/>
    <path data-geo-id="3300725180" data-name="Ervings" d="M1158,737l6,-33 21,3 2,47Z"/>
    <path data-geo-id="3300776580" data-name="Thompson and Meserves" d="M1157,1374l107,-56h13l-5,35 -2,33 -1,3 -105,22Z"/>
    <path data-geo-id="3300923860" data-name="Ellsworth" d="M757,1815l63,25 6,63 3,34 -95,-39Z"/>
    <path data-geo-id="3300905060" data-name="Benton" d="M655,1607l51,27 58,30 -29,108 -126,-20Z"/>
    <path data-geo-id="3300918740" data-name="Dorchester" d="M550,1958l109,43 -23,125 -117,-40Z"/>
    <path data-geo-id="3300908980" data-name="Canaan" d="M504,2080l15,6 117,40 -15,14 -54,86 -13,20 -129,-60Z"/>
    <path data-geo-id="3300924340" data-name="Enfield" d="M380,2279l45,-93 129,60 -46,75 -20,30 -19,-9 -6,-3v-2l7,-19 -18,-7 -12,-7 -5,-1h-2v-2h-3l-16,-7 -14,-6 -1,-2h-1h-1h-1l-8,-3 -5,-2Z"/>
    <path data-geo-id="3300905460" data-name="Bethlehem" d="M853,1330l3,-2 7,-5 6,3 13,4 6,4 3,2 3,2 3,1 9,4 5,1 15,7 15,8 12,5 5,30 2,10 1,4v5l1,3 1,12 11,-2h4l1,-3 20,-2h4h1h1h3l18,-3v1v2l1,2v3h2l31,-5 2,2h3h2l3,3 1,2 8,3h4l2,3 7,17 5,7 12,25 -8,1 3,17 8,40 -9,-4 -104,-36 -191,-72 -44,-23Z"/>
    <path data-geo-id="3300935220" data-name="Hebron" d="M716,2150l41,-60 20,6 21,9 20,48 -22,13 -31,17 -57,-20Z"/>
    <path data-geo-id="3300930820" data-name="Grafton" d="M508,2321l46,-75 13,-20 98,27 33,10h-1l-2,3 -3,2 -4,6 -4,5 -3,4 -2,1v2l-7,8 -12,19 -1,1 -7,7 -8,15 -5,6 -3,5 -4,5 -12,-1 -11,-2 -10,-3 -22,-4h-2h-2l-7,-1 -44,-7h-5Z"/>
    <path data-geo-id="3300932180" data-name="Groton" d="M659,2001l120,44 -2,51 -20,-6 -41,60 -37,-10 -43,-14Z"/>
    <path data-geo-id="3300927300" data-name="Franconia" d="M808,1429l191,72 -40,108 -134,-60 -54,-22Z"/>
    <path data-geo-id="3300942820" data-name="Livermore" d="M915,1714l19,-9 66,45 48,-50 -4,-41 41,-35 38,-20 -25,-45 5,-22 9,4 16,8 10,15 3,17 3,11 2,7v20l-5,8 10,24v3l4,10h18l-25,46 -8,14 1,5 1,5v1l1,7 1,8 -206,34Z"/>
    <path data-geo-id="3300948980" data-name="Monroe" d="M516,1399l1,-1 2,-7 3,-2 3,-3v-2l1,-1 1,-2h1l4,-2h2l1,-3h1l1,-2h3l3,-3 4,-10v-5v-2l1,-1v-2l-1,-2v-3h-1v-2h1l1,-1 2,-2 9,2h1h2h1l3,-2h2l2,-2 5,-1h1l1,-2 5,-2 4,-4h2h1l1,-4 1,-3 50,26 -30,17 -49,78 -34,30 -1,-6v-2l2,-7 2,-6 1,-7v-2l-1,-1 -1,-4 -4,-5 -1,-3 -4,-13h-1l2,-5 1,1v-3l-1,-3h-1h-2h-1h-1h-1Z"/>
    <path data-geo-id="3300940660" data-name="Landaff" d="M636,1494l12,-8 66,23 28,8 -36,117 -51,-27Z"/>
    <path data-geo-id="3300936900" data-name="Holderness" d="M878,2030l115,-19h6l1,10 2,19 2,11 1,7v3v4l1,3 2,22 2,16 1,10v4v1v2l2,15 -21,3 -14,2h-5l-15,2 -2,-17 -53,-57 -33,4 -7,-22Z"/>
    <path data-geo-id="3301930500" data-name="Goshen" d="M418,2632l35,-28 45,-10v1l-10,19 1,8 11,43h1l4,15 3,13 2,5 -54,9h-24l-9,-42Z"/>
    <path data-geo-id="3300110660" data-name="Center Harbor" d="M973,2143h5l14,-2 21,-3 -2,-15v-2v-1v-4l-1,-10 -2,-16 -2,-22 -1,-3v-4v-3l-1,-7 7,9 3,1 1,2 8,8 1,2 5,5 1,2 1,1h1l3,4 4,3 1,2 2,1v2l2,2 6,6 6,7 3,2 1,1 1,2 5,5 1,2 2,1h1l2,2 8,8 9,7 1,2 -36,-4 -43,40 -30,2 -23,-33Z"/>
    <path data-geo-id="3301517460" data-name="Deerfield" d="M1169,2896l1,-3 18,-35 3,-7 2,-3 1,-2v-1l1,-2 1,-5 1,-2 3,-6 4,-12 3,2 1,-5 19,-43 2,-4 5,-13h1v-2l1,-1 2,-4v-3l19,10 3,37 93,21 -45,70 16,3 -22,42 -16,-5Z"/>
    <path data-geo-id="3301527940" data-name="Fremont" d="M1345,3043l15,-47h65l-6,78 -3,4 -54,-4h-29Z"/>
    <path data-geo-id="3300519140" data-name="Dublin" d="M423,3121l145,7 1,13 3,17 2,16v2l1,8 1,5 1,8 -137,-5Z"/>
    <path data-geo-id="3300500820" data-name="Alstead" d="M220,2823h5h10h10h1h1l13,4h3l-1,-4 -2,-6 16,-2 7,-2h1h5h2l2,-1h7h6l6,-4h6l6,-1h2l17,126 -60,8 -48,4 -11,-90 -1,-4v-5v-1l-2,-7v-2Z"/>
    <path data-geo-id="3300529220" data-name="Gilsum" d="M343,2933l46,-5 -6,28 -55,9 9,59 -43,12 -11,-95Z"/>
    <path data-geo-id="3300534420" data-name="Harrisville" d="M413,3073l28,-9 71,5 -1,27h21h2l20,2h3l9,15v1v4l2,10 -145,-7 -2,-12Z"/>
    <path data-geo-id="3300538500" data-name="Jaffrey" d="M440,3192l137,5 4,25v4l2,6v5l9,57 -110,-5 -36,-2 -1,-23 -8,-43Z"/>
    <path data-geo-id="3300526500" data-name="Fitzwilliam" d="M364,3291l20,1 27,-28h34l1,23 36,2 12,98h-3h-3h-1h-4l-20,-2h-14l-25,-1h-17h-4l-13,-2h-13Z"/>
    <path data-geo-id="3300545460" data-name="Marlborough" d="M349,3143l13,-22 59,-12 2,12 17,71 -3,29 -47,-2 -31,-25Z"/>
    <path data-geo-id="3300574900" data-name="Sullivan" d="M383,2956l24,2 -3,37 -1,48h-36v16l-27,-10 -3,-25 -9,-59Z"/>
    <path data-geo-id="3300564420" data-name="Richmond" d="M267,3269l30,-12 49,4 18,30 13,91h-7h-11l-6,-2h-7h-3h-8h-1h-12l-7,-1h-12h-9h-2l-10,-2h-20l-13,-91Z"/>
    <path data-geo-id="3300545700" data-name="Marlow" d="M326,2807h3h4l10,-2 8,-2h8h1l6,-1 42,-9h2h4l11,-1 -15,41 -1,2 -1,3 -5,17 -14,73 -46,5Z"/>
    <path data-geo-id="3300564580" data-name="Rindge" d="M482,3289l110,5h28l2,15 2,15 2,10 4,21v2l3,23 1,7v5h-6h-13h-6h-16h-2l-3,-3h-12h-1h-3h-3h-1h-7h-4h-1h-2h-5h-12h-7h-4h-7h-3l-5,-2h-17Z"/>
    <path data-geo-id="3300573700" data-name="Stoddard" d="M389,2928l14,-73 16,3h2h14l19,2h1h25h6h5h1l6,1h2h35h3l-1,5v4l-6,51 -1,5 -1,2 -5,28 -1,4 -2,11 -2,9 -1,8 -1,5 -2,8 -111,-6 3,-37 -24,-2Z"/>
    <path data-geo-id="3300565700" data-name="Roxbury" d="M348,3091l19,-32v-16h36l10,30 8,36 -59,12h-18Z"/>
    <path data-geo-id="3300768980" data-name="Shelburne" d="M1339,1193l130,-3 1,8v2v5v1l2,15v15v2v10v2l1,5v1v12v2v3l2,20v12v1v9h-132Z"/>
    <path data-geo-id="3301502340" data-name="Atkinson" d="M1308,3204l67,-3 18,56h-1l-13,-5 -11,5 -3,2 -18,10h-1l-22,-7 -14,-48Z"/>
    <path data-geo-id="3301502820" data-name="Auburn" d="M1129,2975l1,1 4,2 1,-3 98,21 -6,52 -16,58 -33,-5 -28,-10 -2,-7 -1,-3 -1,-8 -1,-5v-4l-7,-36v-2l-1,-2v-3l-1,-2v-3l-1,-3 -1,-2 -6,-30 -1,-1 -1,-2 -1,-3v-2Z"/>
    <path data-geo-id="3301509300" data-name="Candia" d="M1150,2943l2,-3 1,-4v-3l2,-2 4,-8 10,-27 117,27 -29,83 -24,-10 -98,-21Z"/>
    <path data-geo-id="3301521380" data-name="East Kingston" d="M1503,3078l15,1 4,74 -31,6h-12l-9,-60Z"/>
    <path data-geo-id="3301512100" data-name="Chester" d="M1233,2996l24,10 -6,17 94,20 -12,31 -40,-5 4,59 -86,-22 16,-58Z"/>
    <path data-geo-id="3301517140" data-name="Danville" d="M1362,3074l54,4 -4,76 -7,4 -39,-4Z"/>
    <path data-geo-id="3301517940" data-name="Derry" d="M1178,3101l33,5 86,22v10l11,66 2,10 -34,5 -83,10Z"/>
    <path data-geo-id="3301524660" data-name="Epping" d="M1360,2996l19,-51 7,-24h46l26,-3h3h4h8h12h1h2v40v22l2,16h-65Z"/>
    <path data-geo-id="3301525380" data-name="Exeter" d="M1488,2980l73,16 -2,32 46,31 -13,5 -21,10 -53,5 -15,-1h-8l7,-15 -12,-67Z"/>
    <path data-geo-id="3301531700" data-name="Greenland" d="M1655,2946h15l7,50 -3,25 -50,-5 7,-28 -39,-38 63,-2Z"/>
    <path data-geo-id="3301532900" data-name="Hampstead" d="M1297,3138l69,16 39,4 -20,23 -10,20 -67,3Z"/>
    <path data-geo-id="3301540100" data-name="Kingston" d="M1385,3181l20,-23 7,-4 4,-76 3,-4 76,4h8l-33,21 9,60 -31,2 -19,45Z"/>
    <path data-geo-id="3301145140" data-name="Manchester" d="M1023,2965l17,-4h6l1,2 1,2 1,3v2l1,1v2l1,2h1l1,1h1l2,2h1l1,2h1h1l17,-10 1,1 1,5v2v2v1l1,7v3l3,10h2l4,2h1h2h3l5,1h2l1,2 28,5 2,2h2l1,3v3l1,2v3l1,2v2l7,36v4l1,5 1,8 1,3 2,7v13h-2h-2h-3l-3,2 -21,3h-3l-7,2h-2h-2h-1h-3h-1l-8,2h-4l-4,1h-2h-1v2v2l1,1v2v2l1,3v3l2,5 3,24 2,9 -11,-18v-11l-7,-47 -34,-43Z"/>
    <path data-geo-id="3301159940" data-name="Pelham" d="M1163,3302h3l1,-1h2l10,16 14,4 11,3 7,2h4h5h1l4,3h3l10,3 10,2h1h2v1h1h1h2l4,2h1l3,3 3,2 8,12 -3,1 -3,2 -4,5 -2,2 -7,8 -2,2 -7,13 -1,2 -2,5 -8,10h-2l-5,8h-18h-3h-12h-14l-1,-2h-17h-2h-2h-2h-4h-11Z"/>
    <path data-geo-id="3301176260" data-name="Temple" d="M670,3221l9,-40 27,-5 23,21 16,99 -11,3 -74,-5 15,-53Z"/>
    <path data-geo-id="3301101300" data-name="Amherst" d="M880,3196l26,-24 -1,-63 29,-6 25,-4 11,60h-7l18,118 -45,7 -9,-37 -18,-6Z"/>
    <path data-geo-id="3301108100" data-name="Brookline" d="M835,3321l22,-2 -3,-27 46,-3 2,20 11,93h-1h-1h-3h-5h-2h-8h-11h-7h-3l-11,-2h-13h-1Z"/>
    <path data-geo-id="3301104500" data-name="Bedford" d="M926,3063l112,-15 34,43 7,47 -109,21 -11,-60 -25,4Z"/>
    <path data-geo-id="3301127140" data-name="Francestown" d="M679,2985l90,-7 21,30 13,71 -53,10 -10,-25 -48,9 -6,-32Z"/>
    <path data-geo-id="3301104900" data-name="Bennington" d="M623,3001l29,-40 27,24 7,56 -55,7Z"/>
    <path data-geo-id="3301117780" data-name="Deering" d="M654,2893l49,-13 9,-4 10,-1 12,-5h6l6,-2 23,110 -90,7 -27,-24Z"/>
    <path data-geo-id="3301129860" data-name="Goffstown" d="M904,2958l8,-2 7,-1 16,-2 6,-3 19,-2h2l18,-3 12,-2 25,-5 1,2 1,5v1l1,2 3,17 15,83 -112,15 -20,-78Z"/>
    <path data-geo-id="3301146260" data-name="Mason" d="M746,3374l30,-2 -11,-78 66,-10 4,37 12,79h-24h-8l-11,-1h-2h-3h-15h-15l-12,-2h-7Z"/>
    <path data-geo-id="3301137140" data-name="Hollis" d="M902,3309l34,-25 45,-7 2,14 29,26 -17,87h-3h-6h-13h-17h-16h-10h-2h-5h-1h-5l-4,-2Z"/>
    <path data-geo-id="3301131540" data-name="Greenfield" d="M631,3048l55,-7 6,32 48,-9 10,25 -44,87 -27,5 -13,-85 -46,7 14,-22Z"/>
    <path data-geo-id="3301142260" data-name="Litchfield" d="M1079,3149l11,18 2,14 2,13 1,5 3,17 5,26v5l6,32 -40,5 -4,-5 -17,-80Z"/>
    <path data-geo-id="3301137940" data-name="Hudson" d="M1103,3247l11,4h19h8l11,11 2,5 5,5 6,7v3l-2,20 -21,108h-2l-15,-1h-15h-2h-9l-12,-85 -18,-40 40,-5Z"/>
    <path data-geo-id="3301136180" data-name="Hillsborough" d="M536,2792h6h2l6,-2 8,-3h4l5,-2 4,-2h3l48,-13 6,-2 22,-8 2,2 3,10 5,10 25,54 1,2 1,2v3l3,5v2l2,5 6,13 3,3 2,9 -49,13 -68,15 -37,-86 -4,-9 -3,-6 -5,-10v-4Z"/>
    <path data-geo-id="3301133700" data-name="Hancock" d="M512,3069l1,-18v-13l1,-10v-2v-7l109,-18 8,47 3,33 -14,22 -54,11v-1l-9,-15h-3l-20,-2h-2h-21Z"/>
    <path data-geo-id="3301147540" data-name="Merrimack" d="M970,3159l109,-21v11l-31,50 17,80 -70,-3 -12,15 -2,-14 -18,-118Z"/>
    <path data-geo-id="3301160580" data-name="Peterborough" d="M566,3114l54,-11 46,-7 13,85 -9,40 -87,16v-5l-2,-6v-4l-4,-25 -1,-8 -1,-5 -1,-8v-2l-2,-16 -3,-17 -1,-13 -2,-10v-4Z"/>
    <path data-geo-id="3301150740" data-name="New Boston" d="M790,3008l116,-23 20,78 8,40 -29,6 -91,17 -11,-47Z"/>
    <path data-geo-id="3301148020" data-name="Milford" d="M820,3216l33,-17 27,-3 29,45 18,6 9,37 -34,25 -2,-20 -46,3 3,27 -22,2 -4,-37Z"/>
    <path data-geo-id="3301150260" data-name="Nashua" d="M983,3291l12,-15 70,3 4,5 18,40 12,85h-2h-5h-1h-6h-1h-1h-2h-8l-4,-4h-3h-9h-10h-7h-4h-4l-10,-1h-6h-17h-1h-3l17,-87Z"/>
    <path data-geo-id="3301149140" data-name="Mont Vernon" d="M814,3126l91,-17 1,63 -26,24 -27,3 -13,-20 -18,-16Z"/>
    <path data-geo-id="3301185220" data-name="Wilton" d="M729,3197l88,-13 3,32 11,68 -66,10 -20,2Z"/>
    <path data-geo-id="3301185940" data-name="Windsor" d="M537,2870v-4l1,-5h-3l2,-8 1,-2 3,-8 6,-16 2,-5 37,86 -55,13Z"/>
    <path data-geo-id="3301179780" data-name="Weare" d="M746,2868l10,-3h3l12,-4 46,-11 1,-2h1l23,-5 3,-3 3,-2 15,-2 5,-1h2l9,-4 3,14 4,21v2l2,12 1,5 15,73 2,27 -116,23 -21,-30Z"/>
    <path data-geo-id="3301168820" data-name="Sharon" d="M583,3237l87,-16 5,20 -15,53h-40h-28Z"/>
    <path data-geo-id="3301350900" data-name="Newbury" d="M498,2595v-1l2,-4 1,-3 1,-2h1l3,-8 7,-10 2,-5 8,-15h1l1,-5v-2l33,-3 57,135 -105,26 -2,-5 -3,-13 -4,-15h-1l-11,-43 -1,-8Z"/>
    <path data-geo-id="3301352100" data-name="New London" d="M518,2486l1,-2v-5l3,-13v-2h8l20,3h2h2l2,2h6v-2v-1l1,-2 2,-3 2,-5 2,-7 2,-3 1,-2v-2l8,-10 64,42 -11,23 24,17 -99,23 -33,3 1,-5v-1v-2l1,-5 -1,-2 2,-16v-4v-3v-2l-9,-13h-1Z"/>
    <path data-geo-id="3301361940" data-name="Pittsfield" d="M1177,2584l25,20h1h1l1,1h2l8,9 2,1 3,2 6,5 4,3 21,17 10,7 13,10 2,1 1,2 3,2 -4,1 -3,7 -4,5 -2,3 -4,10 -2,5 -1,2h-1l-2,5 -1,3 -91,-23 24,-23 -44,-32Z"/>
    <path data-geo-id="3301343380" data-name="Loudon" d="M1011,2639l65,-90 2,-35h1v1l26,19 3,1 2,2 5,3 2,2 18,13 5,4 2,1 9,7h1h1l7,5h2l1,2 14,10 -32,43 -64,86 -6,-5 -46,-33Z"/>
    <path data-geo-id="3300718420" data-name="Dixville" d="M1172,661l22,-20 10,-57 16,-73 58,12 8,138 2,38 -103,8 -21,-3Z"/>
    <path data-geo-id="3301375460" data-name="Sutton" d="M657,2514l22,48 32,88 -70,15 -26,7 -57,-135Z"/>
    <path data-geo-id="3300725140" data-name="Errol" d="M1288,699l155,-7 2,20 1,22 2,25v13v9l1,11 3,53 -130,4h-28Z"/>
    <path data-geo-id="3301366980" data-name="Salisbury" d="M721,2522l133,-60 -5,48 28,37 -43,20 -65,33 -45,22Z"/>
    <path data-geo-id="3300731780" data-name="Greens" d="M1272,1353h31l1,36h-17l-17,-3Z"/>
    <path data-geo-id="3300732420" data-name="Hadleys" d="M1187,1531l14,80 7,-2 -2,18v4l-1,5h-10h-1l-11,6 -7,-8 1,-38 -7,-27 -6,-25Z"/>
    <path data-geo-id="3300739940" data-name="Kilkenny" d="M1089,1090l8,-15 86,-50 -20,58 -38,102h8l2,46 -30,-11 -9,-55Z"/>
    <path data-geo-id="3300757860" data-name="Odell" d="M1082,749l76,-12 29,17 3,98 1,55 -82,3Z"/>
    <path data-geo-id="3300748260" data-name="Millsfield" d="M1288,699l6,150 -104,3 -3,-98 -2,-47Z"/>
    <path data-geo-id="3300761620" data-name="Pinkhams" d="M1269,1389l1,-3 17,3 -20,50h-6h-2l-2,4 -1,6 -5,12 -2,-42Z"/>
    <path data-geo-id="3300763860" data-name="Randolph" d="M1133,1185l128,-5 3,138 -22,-13 -103,3 -4,-77Z"/>
    <path data-geo-id="3300738820" data-name="Jefferson" d="M993,1185l103,-20 9,55 30,11 4,77 -50,-2 -76,14 -3,-22Z"/>
    <path data-geo-id="3300747860" data-name="Milan" d="M1183,1025l15,-43 125,-5 97,-3 -47,103 -210,6Z"/>
    <path data-geo-id="3300730260" data-name="Gorham" d="M1261,1180l78,-2v15l4,122 -28,3h-38h-13Z"/>
    <path data-geo-id="3300713780" data-name="Colebrook" d="M1011,631v-2l5,-5 5,-8 12,-17 3,-3v-3l-2,-4 -3,-3h-2l-11,-15 -1,-2 -1,-10 -3,-1h-1l-1,-2 6,-5 187,33 -10,57 -22,20Z"/>
    <path data-geo-id="3300774180" data-name="Stratford" d="M939,771l143,-22 27,161 2,12 -69,10 -62,2h-1l-4,-9 -4,-6h-8v-4l-10,-5 2,-3 -2,-8 3,-7h-5l-2,-3 -4,-5v-5l-1,-4v-3l-1,-3 1,-5 -4,-4 -15,-28 -2,-8 -6,-8 1,-2 -1,-7 -4,-10 1,-3Z"/>
    <path data-geo-id="3300704100" data-name="Beans" d="M1153,1399l14,69 -19,63 -10,-7 -8,-38 -2,-8 -15,-17 22,-22Z"/>
    <path data-geo-id="3300743620" data-name="Low and Burbanks" d="M1089,1306l50,2 103,-3 22,13 -107,56 -8,2 -46,27Z"/>
    <path data-geo-id="3300719300" data-name="Dummer" d="M1191,907l-1,-55 104,-3h28l1,128 -125,5Z"/>
    <path data-geo-id="3301378580" data-name="Warner" d="M641,2665l70,-15 -32,-88 24,-32 18,-8 3,100 45,-22 56,113 -57,17 -88,25 -38,-90Z"/>
    <path data-geo-id="3300767860" data-name="Sargents" d="M1164,1411l105,-22 -20,30 2,42 -5,15 -20,56 -15,44 2,1 -2,15 -3,17 -7,2 -14,-80 19,-58 18,-29 -36,-5 -15,19Z"/>
    <path data-geo-id="3300716100" data-name="Crawfords" d="M1103,1403l46,-27 4,23 -18,40 -22,22 -27,-53Z"/>
    <path data-geo-id="3300716660" data-name="Cutts" d="M1148,1531l19,-63 6,-10 15,-19 36,5 -18,29 -19,58 -23,13 -1,-3Z"/>
    <path data-geo-id="3300708420" data-name="Cambridge" d="M1322,849l130,-4 7,127 -39,2 -97,3Z"/>
    <path data-geo-id="3300702420" data-name="Atkinson and Gilmanton Academy" d="M1324,458h104v3l1,48 -83,5 -3,20 -31,-6Z"/>
    <path data-geo-id="3300705140" data-name="Berlin" d="M1163,1083l210,-6 -34,101 -78,2 -128,5h-8Z"/>
    <path data-geo-id="3300704260" data-name="Beans" d="M1287,1389h17l-1,-36 12,-35 28,-3h132l1,23 2,28 1,2v8v12l-32,1 1,2v8l1,20v12v15h-1h-20h-5l-24,5 -62,-5 -18,-2 -25,-1 -27,-4Z"/>
    <path data-geo-id="3300710100" data-name="Carroll" d="M1010,1298l3,22 76,-14 14,97 -17,5 27,53 15,17 -11,3 -8,2 -12,-25 -5,-7 -7,-17 -2,-3h-4l-8,-3 -1,-2 -3,-3h-2h-3l-2,-2 -31,5h-2v-3l-1,-2v-2v-1l-18,3h-3h-1h-1h-4l-20,2 -1,3h-4l-11,2 -1,-12 -1,-3v-5l-1,-4 -2,-10 -5,-30 -9,-54Z"/>
    <path data-geo-id="3300718340" data-name="Dixs" d="M1278,523l34,5 31,6 -19,124 -38,3Z"/>
    <path data-geo-id="3300314660" data-name="Conway" d="M1413,1656l68,-2 9,8v10l1,25v5v2v5l1,5v5v3l1,23v4v1l2,25 3,65v5h-53l-3,-48h-29l3,50h-17l-10,-50h-27l-15,-78 -7,-40 -2,-25Z"/>
    <path data-geo-id="3300323620" data-name="Effingham" d="M1418,2008l41,-2 10,14 34,-5v3v3l2,20v9l1,11 2,4v3v5l1,15v8v12v7v1v2v2v3v2l2,5v1v22l-29,7 -109,-90Z"/>
    <path data-geo-id="3300349380" data-name="Moultonborough" d="M1004,2051l186,-23 46,10 32,5 -77,107 24,16 -1,23 -34,39 -3,-4 -4,-3 -24,-25 -10,-8 -2,-2 -7,-7 -18,-18 -4,-3 -2,-2 -2,-1 -1,-2 -7,-7 -3,-3 -2,-2 -1,-1 -1,-2 -9,-7 -8,-8 -2,-2h-1l-2,-1 -1,-2 -5,-5 -1,-2 -1,-1 -3,-2 -6,-7 -6,-6 -2,-2v-2l-2,-1 -1,-2 -4,-3 -3,-4h-1l-1,-1 -1,-2 -5,-5 -1,-2 -8,-8 -1,-2 -3,-1Z"/>
    <path data-geo-id="3300358740" data-name="Ossipee" d="M1236,2038l33,-50 50,-21 5,-2 13,25v2l25,26 26,7 12,-27 18,10 -45,62 109,90 -43,54 -53,-41 -63,-13 -55,-117Z"/>
    <path data-geo-id="3300323380" data-name="Eaton" d="M1399,1847h17l-3,-50h29l3,48h53v37l1,21v4l-81,28 -10,-18Z"/>
    <path data-geo-id="3301568260" data-name="Seabrook" d="M1578,3143l47,3 30,8v4l16,1 3,2 2,2 -5,21 -6,3h-1l-2,2 -4,2h-1l-3,3 -3,2 -7,3h-2l-11,-8 -2,-2h-2l-1,-2 -2,-3h-2h-1l-3,-3 -7,-7 -3,-2 -13,-5h-1h-3h-7h-3l-2,-14Z"/>
    <path data-geo-id="3301585780" data-name="Windham" d="M1165,3282l13,-15 -1,-36 16,-2 83,-10 6,33 -44,80 -10,-3h-3l-4,-3h-1h-5h-4l-7,-2 -11,-3 -14,-4 -10,-16h-2l-1,1h-3Z"/>
    <path data-geo-id="3301539780" data-name="Kensington" d="M1518,3079l53,-5 7,69 1,10h-57Z"/>
    <path data-geo-id="3301564020" data-name="Raymond" d="M1257,3006l29,-83 16,5 77,17 -19,51 -15,47 -94,-20Z"/>
    <path data-geo-id="3300903940" data-name="Bath" d="M516,1506l1,-2v-3l1,-2 1,-1 2,-4h1l1,-3v-2l-1,-3h1l-2,-2 2,-3h1h1l3,-7 34,-30 73,39 1,11 19,113 -115,-53v-2l-4,-3 1,-2v-1h-4h-1l-1,-5 -1,-2 -3,-2 -1,-5 -2,-10 -2,-5 -3,-3 -2,-5h-1Z"/>
    <path data-geo-id="3300908660" data-name="Campton" d="M803,2003l26,-66 -3,-34 37,29 17,-10 98,-10 8,48v2l3,21 4,28 -115,19h-51Z"/>
    <path data-geo-id="3300933860" data-name="Hanover" d="M385,2043l119,37 -79,106 -131,-43v-2l29,-50 40,-20 22,-26Z"/>
    <path data-geo-id="3300941300" data-name="Lebanon" d="M283,2198l10,-50 1,-5 131,43 -45,93h-3l-12,-3 -15,-2 -23,-5h-5l-41,-8 -9,-2h-1h-2l1,-1 1,-4 9,-46Z"/>
    <path data-geo-id="3300512260" data-name="Chesterfield" d="M78,3106l147,12 20,20 -40,78 -82,-7 -72,-8v-2l2,-32 19,-14Z"/>
    <path data-geo-id="3300582660" data-name="Westmoreland" d="M143,2996l91,8 -4,49 -18,5 13,60 -147,-12 -6,-27 56,-21 28,-47 -13,-15Z"/>
    <path data-geo-id="3300922020" data-name="Easton" d="M742,1517l29,10 54,22 -42,110 -19,5 -58,-30Z"/>
    <path data-geo-id="3300550580" data-name="Nelson" d="M403,3043l1,-48 111,6v2l-1,16v7v2l-1,10v13l-1,18 -71,-5 -28,9Z"/>
    <path data-geo-id="3300942580" data-name="Littleton" d="M596,1321h1l4,2h12h3l9,-2 5,2 4,2 14,-12 2,-2 4,-1 23,3 6,5 11,5h2l1,-2h1l5,-3h7h1h1l1,-3 7,-2h2v-2l3,-3h1l2,-2 5,-1h1l3,-2h4l2,-3 3,-2h1h1v-2l-1,-1 -1,-5 -1,-2 1,-7 1,-1 1,-2 -1,-2 -1,-1h-1v-4l1,-1v-4l6,-3h5h1l1,-2v-1v-12l1,-2 7,-5 10,2 15,-8 1,1 7,12 2,3 7,12 7,12 6,6 3,5 22,34 6,10 -89,76 -62,-27 -61,-30 -50,-26h1l2,-2Z"/>
    <path data-geo-id="3300962660" data-name="Plymouth" d="M779,2045l24,-42 24,27h51l-15,23 7,22 18,38 -70,40 -20,-48 -21,-9Z"/>
    <path data-geo-id="3300978740" data-name="Warren" d="M609,1752l126,20 32,5 -10,38 -23,83 -122,-33 -1,-7Z"/>
    <path data-geo-id="3300944100" data-name="Lyman" d="M641,1349l61,30 -67,104 -73,-39 49,-78Z"/>
    <path data-geo-id="3300942020" data-name="Lisbon" d="M635,1483l67,-104 62,27 -50,103 -66,-23 -12,8Z"/>
    <path data-geo-id="3300958340" data-name="Orange" d="M567,2226l54,-86 15,-14 43,14 -19,41 5,72Z"/>
    <path data-geo-id="3300965940" data-name="Rumney" d="M659,2001l75,-103 95,39 -26,66 -24,42Z"/>
    <path data-geo-id="3300944260" data-name="Lyme" d="M401,2003l2,-15 3,-21 1,-5 -4,-30v-4l5,-6h3h3l3,-2 4,-2v-1l-1,-4 130,45 -31,128 -15,-6 -119,-37v-2Z"/>
    <path data-geo-id="3300958500" data-name="Orford" d="M467,1837v-5l9,-15 5,-7 1,-3 1,-2 118,53 6,12 -57,88 -130,-45v-16l40,-35Z"/>
    <path data-geo-id="3300976740" data-name="Thornton" d="M820,1840l33,15 51,-133 11,-8 23,70 36,104 3,19 1,5 -98,10 -17,10 -37,-29Z"/>
    <path data-geo-id="3300980500" data-name="Wentworth" d="M601,1858h10l1,7 122,33 -75,103 -109,-43 57,-88Z"/>
    <path data-geo-id="3300979380" data-name="Waterville Valley" d="M938,1784l206,-34 1,2 1,8 2,17 1,7 4,28 7,48 -37,5 -5,2h-4l-42,8h-5l-33,5 -11,2 -46,6h-3Z"/>
    <path data-geo-id="3300987060" data-name="Woodstock" d="M735,1772l29,-108 19,-5 121,63 -51,133 -33,-15 -63,-25 10,-38Z"/>
    <path data-geo-id="3300300420" data-name="Albany" d="M1140,1724l40,-4 144,2 23,-3 15,78 -25,2 -40,48 -135,23 -2,-10 -7,-48 -4,-28 -1,-7 -2,-17 -1,-8 -1,-2 -1,-8 -1,-7v-1l-1,-5Z"/>
    <path data-geo-id="3300303700" data-name="Bartlett" d="M1148,1710l25,-46h26l-4,-28h10l1,-5v-4l2,-18 3,-17 2,-15 87,-5 43,15 57,5 2,59 11,5 -75,-2 2,25 -20,3 4,40 -144,-2 -40,4Z"/>
    <path data-geo-id="3300327700" data-name="Freedom" d="M1324,1965l71,-32 23,2 81,-28v3v3l2,10v7l1,15v32v16l1,13v9l-34,5 -10,-14 -41,2 -18,-10 -12,27 -26,-7 -25,-26v-2Z"/>
    <path data-geo-id="3300332500" data-name="Hale's" d="M1340,1679l7,40 -23,3 -4,-40Z"/>
    <path data-geo-id="3300334500" data-name="Hart's Location" d="M1101,1484l8,-1 8,-2 11,-3 2,8 8,38 10,7 15,10 1,3 6,25 7,27 -1,38 7,8 11,-6h1l4,28h-26h-18l-4,-10v-3l-10,-24 5,-8v-20l-2,-7 -3,-11 -3,-17 -10,-15 -16,-8 -8,-40Z"/>
    <path data-geo-id="3300338260" data-name="Jackson" d="M1211,1576l15,-44 20,-56 5,-15 5,-12 1,-6 2,-4h2h6l27,4 25,1 18,2 62,5 1,141 -57,-5 -43,-15 -87,5Z"/>
    <path data-geo-id="3300311780" data-name="Chatham" d="M1399,1451l24,-5h5h20h1v-15v-12l-1,-20v-8l-1,-2 32,-1v23l2,17v1v9l8,199v4l1,21 -9,-8 -68,2 -11,-5 -2,-59Z"/>
    <path data-geo-id="3300378180" data-name="Wakefield" d="M1436,2219l3,-5 43,-54 29,-7 5,65v8v2l2,8v2v3v15v5v3v2l1,13v5l2,9v5l4,1 1,2 2,2v1l6,4v1l1,2 3,8v10v3l-2,2h-2h-2h-1h-2l-3,5 -24,32 -6,6 -14,20 -3,4 -6,8 -1,-3 -2,-10 -1,-5 -1,-9 -7,-33Z"/>
    <path data-geo-id="3300345060" data-name="Madison" d="M1297,1847l40,-48 25,-2h27l10,50 9,70 10,18 -23,-2 -71,32 -5,2Z"/>
    <path data-geo-id="3300367780" data-name="Sandwich" d="M974,1888h3l46,-6 11,-2 33,-5h5l42,-8h4l5,-2 37,-5 2,10 28,158 -186,23 -2,-11 -2,-19 -1,-10h-6l-4,-28 -3,-21v-2l-8,-48 -1,-5Z"/>
    <path data-geo-id="3300376100" data-name="Tamworth" d="M1162,1870l135,-23 22,120 -50,21 -33,50 -46,-10Z"/>
    <path data-geo-id="3300377620" data-name="Tuftonboro" d="M1268,2043l55,117 -74,108 -16,8 -14,-13 -30,-27h-1l-2,-2 -2,-1 -1,-2v-2l-3,-1 34,-39 1,-23 -24,-16Z"/>
    <path data-geo-id="3301769940" data-name="Somersworth" d="M1565,2697l26,-38h3v1h1h1l2,2 6,3v2l4,10h6l4,5 1,3h3l9,12h2h1h1h3h3h1h3v1l2,5v4v5l-43,26Z"/>
    <path data-geo-id="3301765540" data-name="Rollinsford" d="M1604,2738l43,-26 2,1h2h3h3l11,5v4l1,1v2v2l1,1 4,2 1,5 -4,7v1l-2,9 -1,3v2l-3,11v2v2l-47,-15Z"/>
    <path data-geo-id="3301748660" data-name="Milton" d="M1473,2409l6,-8 3,-4 14,-20 6,-6 24,-32 3,-5h2l-2,8 5,7v7h1l1,1h2v5v4l-2,1 2,5v2l-4,3v4v3l-1,3 -5,5v2v2l-2,3 -1,3v7h1l-1,2v1l-3,2h-1h-3l4,5v2h2h4l3,3 1,2 1,3 -2,10 -3,30 -3,10 -3,5 -1,2 -3,1h-2h-1l-2,2 -4,21 3,10 -3,5v9v3v2v1l-4,7 -88,-63Z"/>
    <path data-geo-id="3301726020" data-name="Farmington" d="M1415,2487l2,-3 88,63 -76,97 -80,-72Z"/>
    <path data-geo-id="3300740420" data-name="Lancaster" d="M887,1190l13,-35 10,-13 -1,1v2l2,3 9,-5 5,-6h7l5,-2 3,-2h1l2,-1 7,-15h4l1,-5 7,-2v-2l-4,-3 -2,-2 -8,-13v-3h4l16,-20 86,43 27,-15 8,-5 7,75 -103,20 -78,45Z"/>
    <path data-geo-id="3300746020" data-name="Martins" d="M1277,1318h38l-12,35h-31Z"/>
    <path data-geo-id="3301911380" data-name="Charlestown" d="M195,2594l50,3 -3,17 -6,36 20,43 -15,4 12,65 -69,15 9,45 -25,-2 -11,-2h-2h-1l-4,-1 14,-50 4,-72 25,-30 12,-40 -12,-26Z"/>
    <path data-geo-id="3301931220" data-name="Grantham" d="M373,2402l23,-33 1,-46 17,-29 16,7h3v2h2l5,1 12,7 18,7 -7,19v2l6,3 19,9 -17,31 16,2 -18,43h-30Z"/>
    <path data-geo-id="3301718820" data-name="Dover" d="M1542,2737l23,-40 39,41 14,19 47,15 -4,8 -3,2v3v2l3,3v2l1,10 -2,3 -2,7 -1,8 -3,11v4l3,10v6l-26,2 -97,-105Z"/>
    <path data-geo-id="3301703460" data-name="Barrington" d="M1447,2657l95,80 -8,11 -33,57 -26,43 -3,-2 -4,-3 -13,-10 -4,-5h-3l-3,-5 -9,-8 -50,-38v-2l-1,-2h-2l-3,-1v-2l-5,-5Z"/>
    <path data-geo-id="3301719700" data-name="Durham" d="M1535,2817l94,38 -12,10 8,38 -21,13h-3h-3l-7,-1 -7,-2h-5h-1l-4,-2 -6,-1h-1h-2h-1h-2h-1h-3l-3,1h-1h-2h-3l-24,5h-3l-4,2Z"/>
    <path data-geo-id="3301765140" data-name="Rochester" d="M1429,2644l76,-97 4,-7 2,2h2l2,7 3,6v2h1v2l2,3 -3,5v2l4,3v5v3h6l-2,2 5,5 3,2 7,10v-2h3l3,-2h1l1,2 4,-2h1l2,-1 5,3 -2,-2v4l2,1v4h4l3,1v2l-1,2 1,3h1h2v-3l3,3 1,2 3,8v-2l-2,2 5,10 3,3v-1h1h2h1v3v2h2h1l3,5 -2,1h-1h-1h-3l-3,4v1l6,7 1,2 -26,38 -23,40 -95,-80Z"/>
    <path data-geo-id="3301747700" data-name="Middleton" d="M1393,2379l4,-7 2,2v2l3,3 3,-7 5,7 3,-8 9,1 11,-20 5,5 9,-1 6,-7h8l7,33 1,9 1,5 2,10 1,3 -56,75 -2,3Z"/>
    <path data-geo-id="3301744820" data-name="Madbury" d="M1501,2805l33,-57 97,105 -2,2 -94,-38Z"/>
    <path data-geo-id="3301741460" data-name="Lee" d="M1432,2921l3,-5 1,-3 4,-7 3,-6 2,-2 25,-43 2,-2 1,-2 1,-1 1,-2 26,-43 34,12 -17,101h-2h-3h-8h-1h-2h-14h-2h-1h-12h-8h-4h-3l-26,3Z"/>
    <path data-geo-id="3301751220" data-name="New Durham" d="M1319,2372l11,-15 8,-10v-1l5,-9 9,-9 7,-9 9,-11 2,-5 3,-2 3,-5 1,-2v2l3,12 2,11 1,9 2,6 1,2v5l3,15 3,15 1,8 22,108 -66,85 -3,-12 -3,-13v-7l-7,-43 -2,-10 -1,-6v-2h-1v-7l-1,-6 -3,-25v-2l-1,-2 -5,-35 -2,-15Z"/>
    <path data-geo-id="3300386420" data-name="Wolfeboro" d="M1323,2160l63,13 53,41 -3,5 -59,75 -1,2 -3,5 -3,2 -2,5 -9,11 -7,9 -9,9 -9,-6 -6,-5 -5,-5 -10,-8h-1l-5,8 -4,2 -46,-25h-2l-22,-22 16,-8Z"/>
    <path data-geo-id="3301916340" data-name="Croydon" d="M362,2397l11,5 66,25h30l-4,29 -10,66 -133,-38 1,-68 23,6Z"/>
    <path data-geo-id="3301900260" data-name="Acworth" d="M256,2693l91,-13 19,122 -6,1h-1h-8l-8,2 -10,2h-4h-3h-2l-6,1h-6l-6,4h-6h-7l-2,1h-2h-5h-1l-7,2 -16,2 -7,-55 -12,-65Z"/>
    <path data-geo-id="3301940900" data-name="Langdon" d="M168,2820l25,2 -9,-45 69,-15 7,55 2,6 1,4h-3l-13,-4h-1h-1h-10h-10h-5l1,13v2l2,7v1v5l1,4h-12l-5,-2h-2h-2l-12,-2h-3h-5l-15,-1v-17Z"/>
    <path data-geo-id="3301912900" data-name="Claremont" d="M205,2477l117,7 1,118 -65,-2 -16,14 3,-17 -50,-3 3,-7 12,-20 -24,-10 19,-73Z"/>
    <path data-geo-id="3301915060" data-name="Cornish" d="M207,2362l110,10 14,-16 32,16 -1,25 -16,25 -23,-6 -1,68 -117,-7 1,-1 4,-24v-5l7,-28v-2l2,-5 1,-10 1,-6 -16,-30Z"/>
    <path data-geo-id="3300307940" data-name="Brookfield" d="M1377,2294l59,-75 25,130h-8l-6,7 -9,1 -5,-5 -11,20 -9,-1 -3,8 -5,-7 -3,7 -3,-3v-2l-2,-2 -4,7 -1,-8 -3,-15 -3,-15v-5l-1,-2 -2,-6 -1,-9 -2,-11 -3,-12Z"/>
    <path data-geo-id="3301551380" data-name="Newfields" d="M1488,2958l34,3 59,-5 -20,40 -73,-16Z"/>
    <path data-geo-id="3300103220" data-name="Barnstead" d="M1237,2492l112,80 -6,8 -1,2 -10,10 -9,13 -4,4 -3,6 -3,2 -3,5 -7,10 -6,7 -11,16h-1l-5,9 -3,-2 -1,-2 -2,-1 -13,-10 -10,-7 -21,-17 -4,-3 -6,-5 -3,-2 -2,-1 -8,-9h-2l-1,-1h-1h-1l-25,-20Z"/>
    <path data-geo-id="3300104740" data-name="Belmont" d="M1024,2387l9,-36 48,31 50,30 -66,93 -21,-14 -1,-2 -8,-5 -3,-2 -1,-1 -13,-9 -1,-1 -5,-4 -7,-5 -4,-3 -1,-2h-1l-3,-3 -3,-2 -2,-1Z"/>
    <path data-geo-id="3300128740" data-name="Gilford" d="M1079,2239l33,-1 30,-27 35,13 26,153 -72,35 -50,-30 -8,-40 27,-83Z"/>
    <path data-geo-id="3300101060" data-name="Alton" d="M1177,2224l3,4 3,1v2l1,2 2,1 2,2h1l30,27 14,13 22,22h2l46,25 4,-2 5,-8h1l10,8 5,5 6,5 9,6 -5,9v1l-8,10 -11,15 1,15 2,15 5,35 1,2v2l3,25 1,6v7h1v2l1,6 2,10 7,43v7l3,13 3,12 -112,-80 14,-18 -35,-28 -13,-69Z"/>
    <path data-geo-id="3301557460" data-name="Nottingham" d="M1302,2928l22,-42 -16,-3 45,-70 27,-43v2l3,1h2l1,2v2l50,38 9,8 3,5h3l4,5 13,10 4,3 3,2 -1,2 -1,1 -1,2 -2,2 -25,43 -2,2 -3,6 -4,7 -1,3 -3,5h-46l-7,24Z"/>
    <path data-geo-id="3301551620" data-name="Newington" d="M1700,2896l-36,20 6,30h-15h-1l-25,-30 9,-46 37,5 25,21Z"/>
    <path data-geo-id="3301554580" data-name="North Hampton" d="M1624,3016l50,5 3,18 37,20 -9,22 -2,2 -98,-24Z"/>
    <path data-geo-id="3301552900" data-name="Newton" d="M1429,3206l19,-45 31,-2h12l13,38 -6,2h-12l-5,2 -6,3h-2l-4,3 -4,5 -4,4 -3,6 -2,4 -1,1 -3,10 -32,-21Z"/>
    <path data-geo-id="3301552340" data-name="Newmarket" d="M1488,2918h14h2h1h8h3h2l4,-2h3l24,-5h3h2h1l3,-1h3h1h2h1h2h1l6,1 4,2h1h5l7,2 7,1h3h3l-23,40 -59,5 -34,-3Z"/>
    <path data-geo-id="3301556820" data-name="Northwood" d="M1238,2745h1v-2h1l2,-5 1,-1 6,-15 2,-5 4,-9v-1l1,-2 1,-3 2,-5h1l1,-2 2,-5 4,-10 2,-3 18,15 15,11 3,4 8,6 10,9 15,11 19,19h2l8,8 8,5 5,5 -27,43 -93,-21 -3,-37Z"/>
    <path data-geo-id="3300151540" data-name="New Hampton" d="M820,2273l4,-5h1h6h1l3,-5h8l2,5 26,-7 12,-5 -1,-10v-2l12,-10 -5,-10v-1l2,-4h1l1,-6v-4l1,-1 -3,-15v-9l6,-31 3,-2 13,-1h1h1h3h2h5h1l3,-2 15,-2 11,-1h3l23,33 30,-2 -109,108 -58,57 -4,-5v-2l-17,-25h1v-1l2,-2v-5v-2l9,-8 -15,-17Z"/>
    <path data-geo-id="3300128980" data-name="Gilmanton" d="M1131,2412l72,-35 13,69 35,28 -14,18 -60,92 -14,-10 -1,-2h-2l-7,-5h-1h-1l-9,-7 -2,-1 -5,-4 -18,-13 -2,-2 -5,-3 -2,-2 -3,-1 -26,-19v-1h-1h-1l-2,-2 -10,-7Z"/>
    <path data-geo-id="3300140180" data-name="Laconia" d="M1079,2239l21,20 -27,83 8,40 -48,-31 -9,-28 -22,-59 21,-5 40,-35Z"/>
    <path data-geo-id="3301562500" data-name="Plaistow" d="M1385,3181l44,25 -9,10 32,21 -1,4 -3,6v4l-3,8v3l-3,10 -6,-3 -10,-2 -4,-3 -5,-2 -11,-1h-1l-3,-2 -6,-2h-3l-18,-56Z"/>
    <path data-geo-id="3301567620" data-name="Sandown" d="M1333,3074h29l4,80 -69,-16v-10l-4,-59Z"/>
    <path data-geo-id="3301566660" data-name="Salem" d="M1276,3219l34,-5 14,48 22,7v2l-14,16 -1,2 -1,2v3v15v13l2,20v18l-4,-3h-6l-3,-2 -6,-1h-3l-1,-2h-1h-2l-6,-2 -6,-1h-2l-7,1 -11,4 -8,-12 -3,-2 -3,-3h-1l-4,-2h-2h-1h-1v-1h-2h-1l-10,-2 44,-80Z"/>
    <path data-geo-id="3301566180" data-name="Rye" d="M1677,2996l27,8 39,-56h3l22,17 -51,93 -3,1 -37,-20 -3,-18Z"/>
    <path data-geo-id="3301562900" data-name="Portsmouth" d="M1700,2896l1,2 41,50h1l-39,56 -27,-8 -7,-50 -6,-30Z"/>
    <path data-geo-id="3301574340" data-name="Stratham" d="M1561,2996l20,-40 9,-6h2l39,38 -7,28 -19,43 -46,-31Z"/>
    <path data-geo-id="3301507220" data-name="Brentwood" d="M1425,2996h65l12,67 -7,15 -76,-4Z"/>
  </g>
  <path class="mesh" transform="scale(0.1)" d="M863,1323l-7,5 -3,2 -6,-10 -22,-34 -3,-5 -6,-6 -7,-12 -7,-12 -2,-3 -7,-12 -1,-1M1142,3410l21,-108h3l1,-1h2l10,16 14,4 11,3 7,2h4h5h1l4,3h3l10,3 10,2h1h2v1h1h1h2l4,2h1l3,3 3,2 8,12M636,2347l32,89 18,-20 12,25 -30,13 35,76 -24,32 -22,-48 -24,-17 11,-23 -64,-42 14,-23 2,-3 2,-2 1,-3 4,-5 29,-44M1011,2639l18,36 46,33 6,5 -12,15 56,42 -13,28 22,5 -32,47 -35,13 -28,-40 -2,-51 18,-2 -1,-28 21,-34M879,2831l36,-9 47,36 2,28 59,44 -6,8 -25,5 -12,2 -18,3h-2l-19,2 -6,3 -16,2 -7,1 -8,2 -15,-73 -1,-5 -2,-12v-2l-4,-21 -3,-14M1238,2745l19,10 3,37 93,21 -45,70 16,3 -22,42 -16,-5 -117,-27 -103,-28 1,-5M915,2822l24,-5 9,16 64,-33 27,23M1066,2868l-43,62M834,2567l43,-20M897,2537l2,27 16,43 33,18 5,35 -59,27M1440,651l-116,7 19,-124 3,-20 83,-5M980,934l62,-2 69,-10 -2,-12 82,-3 7,75 -15,43 -86,50 -8,15 -8,5 -28,-20 -5,-138 -6,-5M1469,1190l-130,3v-15l34,-101 47,-103 39,-2M1443,692l-155,7 -2,-38 38,-3M863,1323l71,-65 -19,-28 78,-45 17,113 -66,12 9,54 -12,-5 -15,-8 -15,-7 -5,-1 -9,-4 -3,-1 -3,-2 -3,-2 -6,-4 -13,-4 -6,-3M1081,2713l64,-86 44,32 -24,23 -40,88M1165,2682l91,23 -1,2v1l-4,9 -2,5 -6,15 -1,1 -2,5h-1v2h-1v3l-2,4 -1,1v2h-1l-5,13 -2,4 -19,43 -1,5 -3,-2M456,2707l54,-9M879,2831l-9,4h-2l-5,1 -15,2 -3,2 -3,3 -23,5h-1l-50,-118 57,-17M878,2695l61,122M680,2755l88,-25M818,2848l-1,2 -46,11 -12,4h-3l-10,3 -6,2h-6l-12,5 -10,1 -9,4 -2,-9 -3,-3 -6,-13 -2,-5v-2l-3,-5v-3l-1,-2 -1,-2 -25,-54 -5,-10 -3,-10 -2,-2M899,2564l149,-57 17,-2 10,7 2,2h1l-2,35 -65,90 -5,-7 -53,28M269,2259h2h1l9,2 41,8h5l23,5 15,2 12,3h3l3,2 5,2 8,3h1h1h1l1,2 14,6 -17,29 -1,46 -23,33 -11,-5 1,-25 -32,-16 -14,16 -110,-10M455,2522l10,-66 57,8v2l-3,13v5l-1,2v1h1l9,13v2v3v4l-2,16 1,2 -1,5v2v1l-1,5v2l-1,5h-1l-8,15 -2,5 -7,10 -3,8h-1l-1,2 -1,3 -2,4 -45,10M580,2432l-8,10v2l-1,2 -2,3 -2,7 -2,5 -2,3 -1,2v1v2h-6l-2,-2h-2h-2l-20,-3h-8M535,2861h-35h-2l-6,-1h-1h-5h-6h-25h-1l-19,-2h-14h-2l-16,-3 5,-17 1,-3 1,-2 15,-41M347,2680l76,-15 9,42h24l-5,81 -26,4 -11,1h-4h-2l-42,9 -19,-122 -91,13 -20,-43 6,-36 16,-14 65,2M418,2632l5,33M540,1554l115,53 -46,145 -54,-28 3,20 -55,-30M1655,3154l-30,-8 -47,-3 -7,-69 21,-10 53,70h10M1504,3197l-13,-38 31,-6h57l2,14M698,2441l43,-20 78,-35M854,2462l-133,60 -18,8M1592,3064l13,-5 98,24M858,2366l-1,3 8,8 10,14 9,3 8,7 1,3 13,-5v2l5,11 2,5 2,-1v3l2,7 1,3h-3l1,5 1,3 1,4 -3,1 7,15 1,2 1,2 -6,48 -21,28 -20,10 -28,-37 5,-48 -11,-41 -24,-35 39,-20 1,-4 1,-1v-2l1,-2 1,-1 -2,-4 -3,-3 -8,-5 -4,-3h-1l58,-57M1024,2323l9,28 -9,36 -106,42M1024,2387l-33,64 -3,-2h-2l-3,-2h-1l-1,-1h-1h-1l-1,1h-1v2l-1,2 -1,1 -1,-1h-2h-2h-1h-1l-2,5 -1,1h-2l-1,2 -1,2h-1h-1h-1h-2l-1,1h-1l-1,2h-2l-2,-2h-2l-1,2v2v1v2h-2l-8,-3h-2l-3,1 -2,-1 -1,-2v-2h-1l-1,-1h-1h-1M741,2421l-9,-54 8,-35 8,-9h5l2,-4 7,-5 11,-1 2,1 2,7 8,-8 2,-4 6,-6h1l2,1 1,2h1h1l1,-2 10,-1 4,-2h1h1h1l5,5 1,2 1,1h-1l17,25v2l4,5M1134,2803l70,15 -4,12 -3,6 -1,2 -1,5 -1,2v1l-1,2 -2,3 -3,7 -18,35 -1,3 -10,27 -4,8 -2,2v3l-1,4 -2,3 -15,32 -1,3 -4,-2 -1,-1 -4,-2v2l1,3 1,2 1,1 6,30 1,2h-2l-2,-2 -28,-5 -1,-2h-2l-5,-1h-3h-2h-1l-4,-2h-2l-3,-10v-3l-1,-7v-1v-2v-2l-1,-5 -1,-1 -17,10h-1h-1l-1,-2h-1l-2,-2h-1l-1,-1h-1l-1,-2v-2l-1,-1v-2l-1,-3 -1,-2 -1,-2h-6l-17,4 -3,-17 -1,-2v-1l-1,-5 -1,-2M488,2351l20,-30 9,13h5l44,7 7,1h2h2l22,4 10,3 11,2 12,1 4,-5 3,-5 5,-6 8,-15 7,-7 1,-1 12,-19 7,-8v-2l2,-1 3,-4 4,-5 4,-6 3,-2 2,-3h1l19,1 3,7 4,13 8,24 7,20 1,4M245,3138l104,5 10,51 -13,67 -49,-4 -30,12 -20,-7 -5,-43 -37,-3 40,-78 -20,-20 -13,-60 18,-5 64,-17 43,-12 3,25 27,10 -19,32 -4,30h18l-13,22M145,3370l-22,-161 82,7M267,3269l-18,17 13,91M359,3194l31,25 47,2 8,43h-34l-27,28 -20,-1 -18,-30M51,3201l72,8M150,2817l4,1h1h2l11,2v13v17l15,1h5h3l12,2h2h2l5,2h12l11,90 -1,59 -91,-8M235,2945l48,-4 11,95M230,3053l4,-49M512,3069l1,-18v-13l1,-10v-2v-7l1,-16v-2l2,-8 1,-5 1,-8 2,-9 2,-11 1,-4 5,-28 1,-2 1,-5 55,-13 68,-15 -2,68 -29,40 -109,18M634,3392v-5l-1,-7 -3,-23v-2l-4,-21 -2,-10 -2,-15 -2,-15h40l74,5 11,-3 20,-2 11,78 -30,2 -12,-75M746,3374l4,23M796,2166l22,-13 70,-40 9,40 -6,31v9l3,15 -1,1v4l-1,6M891,2219l-2,4v1l5,10 -12,10v2l1,10 -12,5 -26,7 -2,-5h-8l-3,5h-1h-6h-1l-4,5v1l15,17 -9,8v2v5l-2,2v1M655,1607l51,27 58,30 -29,108 -126,-20 2,106h-10l-118,-53M698,2263l-33,-10 -5,-72 19,-41 37,10 -8,13 57,20M1062,461l13,-33 30,-22 101,24 7,-12 114,22 -3,18 -12,70 -34,-5 -58,-12 -178,-36M1011,631l161,30 -8,43 -6,33 -76,12 -143,22M887,1190l28,40M888,2113l-18,-38 33,-4 53,57 2,17h-3l-11,1 -15,2 -3,2h-1h-5h-2h-3h-1h-1l-13,1 -3,2M1081,1095l-27,15 -86,-43M1428,458h-104M1220,511l-16,73 -187,-33M1164,704l21,3 2,47 -29,-17M1157,1374l107,-56h13l-5,35 -2,33 -1,3 -105,22M735,1772l32,5 -10,38 63,25 6,63 3,34 -95,-39 23,-83M601,1858l6,12 -57,88M679,2140l-43,-14 -15,14 -54,86 -13,20 -129,-60 79,-106 15,6M554,2246l-46,75M465,2456l4,-29 18,-43 -16,-2 17,-31 -19,-9 -6,-3v-2l7,-19 -18,-7 -12,-7 -5,-1h-2v-2h-3l-16,-7M953,1364l5,30 2,10 1,4v5l1,3 1,12 11,-2h4l1,-3 20,-2h4h1h1h3l18,-3v1v2l1,2v3h2l31,-5 2,2h3h2l3,3 1,2 8,3h4l2,3 7,17 5,7 12,25 -8,1 3,17 8,40 -9,-4M999,1501l-191,-72M764,1406l44,23 -37,98 -29,-10 -28,-8 50,-103 89,-76M716,2150l41,-60 20,6 21,9 20,48M567,2226l98,27M659,2001l120,44 -2,51M825,1549l134,60 40,-108 104,36 -5,22 25,45 -38,20 -41,35 4,41 -48,50 -66,-45 -19,9 -11,8 -121,-63 42,-110 -54,-22M1144,1750l-206,34 -23,-70M591,1323l50,26 -30,17 -49,78 -34,30M655,1607l-19,-113 12,-8 66,23M742,1517l-36,117M1011,2176l-30,2 -23,-33M870,2075l-7,-22 15,-23 115,-19h6l1,10 2,19 2,11 7,9 3,1 1,2 8,8 1,2 5,5 1,2 1,1h1l3,4 4,3 1,2 2,1v2l2,2 6,6 6,7 3,2 1,1 1,2 5,5 1,2 2,1h1l2,2 8,8 9,7 1,2M1257,3006l-6,17 94,20 15,-47h65l-6,78 -3,4 -54,-4h-29l12,-31M326,2807l17,126 -60,8M343,2933l46,-5 -6,28 -55,9 9,59M423,3121l-2,-12 -8,-36 28,-9 71,5 -1,27h21h2l20,2h3l9,15v1v4l2,10M577,3197l-137,-5 -17,-71 145,7 1,13 3,17 2,16v2l1,8 1,5 1,8 4,25v4l2,6v5l9,57h28M592,3294l-110,-5 -36,-2 -1,-23M437,3221l3,-29M482,3289l12,98M377,3382l-13,-91M362,3121l59,-12M383,2956l24,2 -3,37 -1,48h-36v16M224,2855l-1,-4v-5v-1l-2,-7v-2l-1,-13h5h10h10h1h1l13,4h3l-1,-4 -2,-6 16,-2 7,-2h1h5h2l2,-1h7h6l6,-4h6l6,-1h2h3h4l10,-2 8,-2h8h1l6,-1M403,2855l-14,73M498,2594v1l-10,19 1,8 11,43h1l4,15 3,13 2,5 105,-26 26,-7h1l38,90 -30,5 -22,8 -6,2 -48,13h-3l-4,2 -5,2h-4l-8,3 -6,2h-2h-6l1,1v4l5,10 3,6 4,9 -2,5 -6,16 -3,8 -1,2 -2,8h3l-1,5v4l-6,51M1033,2351l48,31 50,30 -66,93M515,3001l-111,-6M403,3043l10,30M1475,1315h-132l-4,-122M1346,3269l-22,-7 -14,-48 -2,-10 67,-3 18,56M1135,2975l98,21 -6,52 -16,58 -33,-5M1150,3091l28,10 15,128 -16,2 1,36 -13,15v-3l-6,-7 -5,-5 -2,-5 -11,-11h-8h-19l-11,-4v-5l-5,-26 -3,-17 -1,-5 -2,-13 -2,-14 -2,-9 -3,-24 -2,-5v-3l-1,-3v-2v-2l-1,-1v-2v-2h1h2l4,-1h4l8,-2h1h3h1h2h2l7,-2h3l21,-3 3,-2h3h2h2v-13l-2,-7 -1,-3 -1,-8 -1,-5v-4l-7,-36v-2l-1,-2v-3l-1,-2v-3l-1,-3M1286,2923l-29,83 -24,-10M1491,3159h-12l-9,-60 33,-21 15,1 4,74M1333,3074l-40,-5 4,59 -86,-22M1416,3078l-4,76 -7,4 -39,-4 -4,-80M1297,3128v10l11,66M1310,3214l-34,5 -83,10M1360,2996l19,-51 7,-24h46l26,-3h3h4h8h12h1h2v40v22l2,16h-65M1571,3074l-53,5M1503,3078h-8l7,-15 -12,-67M1655,2946h15l7,50 -3,25 -50,-5 7,-28 -39,-38M1297,3138l69,16M1405,3158l-20,23 -10,20M1419,3074l76,4M1479,3159l-31,2 -19,45 -44,-25M1090,3167l-11,-18v-11l-7,-47 -34,-43 -15,-83M660,3294l15,-53 -5,-20 9,-40 27,-5M729,3197l16,99M853,3199l27,-3 26,-24 -1,-63 29,-6 25,-4 11,60h-7l18,118 -45,7 -9,-37 -18,-6 -29,-45M847,3400l-12,-79 22,-2 -3,-27 46,-3 2,20 11,93M934,3103l-8,-40 112,-15M1079,3138l-109,21M750,3089l53,-10 11,47 8,37 18,16 13,20 -33,17 -3,-32 -88,13 -23,-21 44,-87 -10,-25 -48,9 -6,-32 -7,-56 90,-7 21,30 13,71M652,2961l27,24M686,3041l-55,7 -8,-47M654,2893l49,-13M746,2868l23,110M926,3063l-20,-78 -2,-27M765,3294l66,-10 4,37M902,3309l34,-25M981,3277l2,14 29,26 -17,87M679,3181l-13,-85 -46,7 14,-22 -3,-33M1103,3247l6,32 -40,5 -4,-5 -17,-80 31,-50M1165,3282l-2,20M1099,3409l-12,-85 -18,-40M586,2908l-37,-86M620,3103l-54,11M1065,3279l-70,-3 -12,15M670,3221l-87,16M790,3008l116,-23M905,3109l-91,17M831,3284l-11,-68M525,2540l33,-3 57,135M657,2514l-99,23M1078,2514h1v1l26,19 3,1 2,2 5,3 2,2 18,13 5,4 2,1 9,7h1h1l7,5h2l1,2 14,10 25,20h1h1l1,1h2l8,9 2,1 3,2 6,5 4,3 21,17 10,7 13,10 2,1 1,2 3,2M1269,2677l4,-5 3,-7 4,-1 5,-9h1l11,-16 6,-7 7,-10 3,-5 3,-2 3,-6 4,-4 9,-13 10,-10 1,-2 6,-8 80,72 18,13 -72,108 -8,-5 -8,-8h-2l-19,-19 -15,-11 -10,-9 -8,-6 -3,-4 -15,-11 -18,-15 -2,3 -4,10 -2,5 -1,2h-1l-2,5 -1,3M1172,661l22,-20 10,-57M1278,523l8,138M1452,845l-130,4h-28l-6,-150 -103,8M679,2562l32,88 -70,15M769,2600l65,-33 14,40 46,80 -16,8 -53,18 -56,-113 -45,22 -3,-100M1272,1353h31l1,36h-17l-17,-3M1183,1025l-20,58 -38,102h8l2,46 -30,-11 -9,-55 -7,-75M1187,754l3,98 1,55M1109,910l-27,-161M1294,849l-104,3M1287,1389l-20,50h-6h-2l-2,4 -1,6 -5,12 -2,-42 20,-30M1133,1185l128,-5 3,138 -22,-13 -103,3 -4,-77M993,1185l103,-20M1139,1308l-50,-2 -76,14 -3,-22M1198,982l125,-5 97,-3M1373,1077l-210,6M1261,1180l78,-2M1343,1315l-28,3h-38M1128,1478l-15,-17 22,-22 18,-40M1149,1376l8,-2 7,37 9,47 -6,10 -14,-69 -4,-23 -46,27 -14,-97M1322,849l1,128M1251,1461l-5,15 -20,56 -15,44 2,1 -2,15 -3,17M1187,1531l14,80 7,-2 -2,18v4l-1,5h-10h-1l-11,6 -7,-8 1,-38 -7,-27 -6,-25 23,-13 19,-58 18,-29 -36,-5 -15,19M1113,1461l-27,-53 17,-5M1164,1544l-1,-3 -15,-10M1343,534l-31,-6M1303,1353l12,-35M1479,1388l-32,1 1,2v8l1,20v12v15h-1h-20h-5l-24,5 -62,-5 -18,-2 -25,-1 -27,-4M1167,1468l-19,63 -10,-7 -8,-38 -2,-8 -11,3 -8,2M1498,1845h-53l-3,-48h-29l3,50h-17l-10,-50h-27l-15,-78 -7,-40 -2,-25 75,2 68,-2 9,8M1511,2153l-29,7 -109,-90 45,-62 41,-2 10,14 34,-5M1236,2038l33,-50 50,-21 5,-2 13,25v2l25,26 26,7 12,-27 18,10M1482,2160l-43,54 -53,-41 -63,-13 -55,-117M1499,1907l-81,28 -10,-18 -9,-70M1579,3153l-1,-10M1276,3219l6,33 -44,80M1302,2928l77,17M562,1444l73,39 1,11M878,2030h-51l-24,-27 26,-66M826,1903l37,29 17,-10 98,-10 8,48v2l3,21 4,28M385,2043l119,37M380,2279l45,-93 -131,-43M78,3106l147,12M783,1659l-19,5M764,1406l-62,-27 -61,-30M779,2045l24,-42M659,2001l75,-103 -122,-33 -1,-7M702,1379l-67,104M820,1840l33,15 51,-133M938,1784l36,104 3,19 1,5M1112,1541l16,8 10,15 3,17 3,11 2,7v20l-5,8 10,24v3l4,10h18l-25,46 -8,14 1,5 1,5v1l1,7 1,8 1,2 1,8 2,17 1,7 4,28 7,48 -37,5 -5,2h-4l-42,8h-5l-33,5 -11,2 -46,6h-3M1140,1724l40,-4 144,2 23,-3M1362,1797l-25,2 -40,48 -135,23 -2,-10M1173,1664h26l-4,-28M1213,1577l87,-5 43,15 57,5 2,59 11,5M1340,1679l-20,3 4,40M1324,1965l71,-32 23,2M1399,1451l1,141M1531,2334h-2l-3,5 -24,32 -6,6 -14,20 -3,4 -6,8 -1,-3 -2,-10 -1,-5 -1,-9 -7,-33 -25,-130 3,-5M1319,1967l-22,-120M1162,1870l28,158M1323,2160l-74,108 -16,8M1145,2627l32,-43 60,-92 112,80 -3,-12 -3,-13v-7l-7,-43 -2,-10 -1,-6v-2h-1v-7l-1,-6 -3,-25v-2l-1,-2 -5,-35 -2,-15 -1,-15 11,-15 8,-10v-1l5,-9 -9,-6 -6,-5 -5,-5 -10,-8h-1l-5,8 -4,2 -46,-25h-2l-22,-22 -14,-13 -30,-27h-1l-2,-2 -2,-1 -1,-2v-2l-3,-1M1647,2712l-43,26 -39,-41 26,-38M1665,2772l-47,-15 -14,-19M1509,2540l-4,7 -88,-63 56,-75M1349,2572l66,-85 2,-3M1505,2547l-76,97M195,2594l50,3 -3,17M256,2693l-15,4 12,65 -69,15 9,45 -25,-2M469,2427h-30l-66,-25M1631,2853l-97,-105 8,-11 23,-40M1447,2657l95,80M1534,2748l-33,57 -26,43M1432,2921l3,-5 1,-3 4,-7 3,-6 2,-2 25,-43 2,-2 1,-2 1,-1 1,-2 -3,-2 -4,-3 -13,-10 -4,-5h-3l-3,-5 -9,-8 -50,-38v-2l-1,-2h-2l-3,-1v-2l-5,-5M1604,2916h-3h-3l-7,-1 -7,-2h-5h-1l-4,-2 -6,-1h-1h-2h-1h-2h-1h-3l-3,1h-1h-2h-3l-24,5h-3l-4,2 17,-101 94,38M1415,2487l-22,-108 4,-7 2,2v2l3,3 3,-7 5,7 3,-8 9,1 11,-20 5,5 9,-1 6,-7h8M1535,2817l-34,-12M1518,2918h-2h-3h-8h-1h-2h-14M1343,2337l9,-9 7,-9 9,-11 2,-5 3,-2 3,-5 1,-2v2l3,12 2,11 1,9 2,6 1,2v5l3,15 3,15 1,8M1436,2219l-59,75M205,2477l117,7 133,38 -2,82 -35,28 -95,-30 -1,-118 1,-68 23,6 16,-25M260,2817l-7,-55M1108,2158l4,3 18,18 7,7 2,2 10,8 24,25 4,3 -35,-13 -30,27 -33,1 -16,-15 -40,35 -21,5 22,59 -122,-39 109,-108 43,-40 36,4 1,1 2,2 3,3 7,7 1,2 2,1 2,2M1488,2958l34,3 59,-5 -20,40M1004,2051l186,-23 46,10 32,5 -77,107 24,16 -1,23 -34,39 -3,-4 26,153 -72,35M1081,2382l-8,-40 27,-83 -21,-20M1237,2492l14,-18 -35,-28 -13,-69M1353,2813l27,-43M1700,2896l-36,20 6,30M1674,3021l3,18 37,20M1488,2980l73,16 -2,32 46,31 19,-43M1452,3237l-32,-21 9,-10M1677,2996l27,8 39,-56M562,2787l-12,-17 -7,-12 -11,-16 -1,-5v-4l-4,-35h-17M991,2451l2,1 3,2 3,3h1l1,2 4,3 7,5 5,4 1,1 13,9 1,1 3,2 8,5 1,2 21,14M794,2303l8,-14 -37,-106 31,-17 11,12 -14,6 22,35 32,-13 28,23 16,-10h1M420,1913l130,45 109,43 -23,125 -117,-40 31,-128M978,2143h-5M1011,2123l2,15M1011,2120v1M1006,2068l2,22M1005,2061v4M1004,2051l1,7M1005,2058v3M1005,2065l1,3M1008,2090l2,16M1010,2106l1,10M1011,2116v4M1011,2121v2M1013,2138l-21,3M992,2141l-14,2M973,2143l-15,2"/>
  <g class="cities">
    <circle r="3" cx="107.8" cy="303.2"/>
    <text x="107.8" y="303.2">Manchester</text>
    <circle r="3" cx="161.7" cy="277.2"/>
    <text x="161.7" y="277.2">Dover</text>
    <circle r="3" cx="31.0" cy="310.9"/>
    <text x="31.0" y="310.9">Keene</text>
  </g>
</svg>