<?xml version="1.0" encoding="utf-8"?>
<!DOCTYPE svg PUBLIC "-//W3C//DTD SVG 1.1//EN" "http://www.w3.org/Graphics/SVG/1.1/DTD/svg11.dtd">
<svg version="1.1" xmlns="http://www.w3.org/2000/svg" width="182" height="350" viewBox="0 0 182 350">
  <path class="state" transform="scale(0.1)" d="M1605,2918l-23,38 11,-5 63,-3 -23,-15 5,-63 37,5 60,51 34,40 -54,95 -21,37 1,30 -16,26 -24,-20 1,24 17,1 3,4 -3,23h-4l-3,1 -4,2h-2l-1,2 -5,3 -10,7 -2,-4 -11,-6 -3,-2 -2,-2 -1,-1 -2,-4 -2,-1h-2l-8,-5 -3,-4 -12,-3 -2,-3h-2h-2h-5h-1h-2l-9,3h-3l-3,2 -3,1 -4,2 -11,7 -5,5 -4,1 -2,2h-1l-3,2 -3,1h-6l-4,2h-1l-5,2h-3h-2l-6,1h-6l-10,4h-1l-6,1 -8,2 -3,3 -4,5 -5,5 -2,5 -3,5 -5,10v4l-3,10 -2,8 -1,5 -3,8 -2,-1 -4,-2 -18,-5 -10,-3h-2l-4,-2 -5,-2h-2h-3l-13,-5 -10,5 -5,2 -1,2h-3l-12,8 -2,2 -14,16 -1,4 -2,1v15l2,15v2l1,15v1v4l2,16 -6,-3 -5,-2h-6l-4,-1h-2l-1,-2h-5l-6,-2 -5,-1 -8,1 -12,4 -2,1h-1l-3,2 -4,5 -3,2 -6,8 -2,3 -7,12 -3,7 -8,10h-1l-6,8h-17h-4h-12h-10h-4l-1,-2h-6h-12h-3h-2h-4h-9h-2h-2l-16,-1h-13h-3h-9h-1h-7h-6h-2h-2h-7l-5,-2h-12h-10h-5h-2h-3h-5l-10,-3h-6h-16h-2h-2h-6h-3h-15h-17h-15h-10h-2h-5l-10,-2h-1h-1h-3h-6h-1h-7h-13h-7h-1l-12,-2h-11h-2h-25l-21,-1h-2h-15h-3h-13l-6,-2h-6h-7h-17l-25,-2h-23l-10,-1h-11h-1h-23l-5,-2h-1h-7h-13h-5h-16h-2l-3,-3h-12h-2h-2h-4h-1h-6h-3h-3h-2h-1l-3,-2h-12h-11h-8h-7h-17h-3h-2h-1h-4l-20,-2h-13h-1l-26,-1h-17h-3h-2l-13,-2h-12h-6h-11l-8,-2h-4h-6h-6h-3h-12l-7,-1h-14h-6l-13,-2h-18l-20,-2h-8h-8h-10l-15,-3h-6h-4l-10,-2h-9h-15h-14h-4h-1v-3l-12,-18 -2,-5 -16,-32 -3,-3h-2h-2l-9,12 -5,-9 4,-5v-3v-2l-20,-25 -5,-1 -6,-15v-4l-1,-5 -3,-8 -1,-10v-5l-6,-22 9,-41 6,-3 5,-7 3,-22 6,-3 -2,-18v-2l1,-5 -2,-15 -4,-3v-9l12,-10h3l12,-3 12,-3 6,-7 3,-2 6,5 24,-36h1l4,-9v-3v-3l-1,-2 -16,-41 9,-24 4,-5 8,-8 6,-12 -5,-28 5,-20 -5,-13 -1,-7h-1h-3h-1l-3,-2 -5,-10 1,-5 2,-1 2,-13 7,-22 9,-65 8,-40 4,-3 26,-63 -13,-20 18,-39 -20,-3 -2,-3v-22l5,-8 16,-75 1,-5v-3v-4v-3v-3l6,-17 1,-2 2,-5 1,-8v-2v-3v-3l-3,-9 -1,-1h-1l-11,-17 9,-18 8,-15v-2l-1,-6v-2v-13l1,-9 1,-1v-9l5,-6 7,-5 15,-7 2,-2 3,-3 14,-12v-1l2,-7 10,-43 3,-10 14,-70 56,-52 32,-35v-1l2,-9v-1l14,-27 4,-13 -1,-3 1,-19 2,-6v-4l-1,-13 -4,-12 1,-1 1,-4 4,-6h4h2l3,-2 2,-2 2,-1 -2,-4 -3,-6v-2l10,-10 2,-2 3,-10 35,-31v-15v-2v-3l4,-13 6,-2 1,-2 3,-5 2,-1 1,-2 1,-3 -1,-5 2,-2h2h1l1,-2 2,-1 -3,-2 -11,-3 -1,1 -5,-3v-5v-2v-13l-3,-7v-1l1,-2 6,-7 3,-1 1,-2h1l-1,-2v-3l-1,-2 1,-6 1,-2h4h1h3l1,2v3h3l-3,-3v-2l-1,-3 -1,-2 1,-3 1,-4h2h2l1,4h2h3h2v-7v-2l1,-3h1h1h2l-3,-15 1,-2 3,-1 8,-5h3l1,-2 -1,-2 -4,-1 -1,-4 1,-1 1,-2h3l2,2h2l5,-13h2l2,-4v-5h-2l-2,-1 6,-4 3,-3h2l1,3 1,2h1h2l3,-2 1,-3 -1,-2 -4,-1h-1l-2,-2 -1,-2h-1l-2,-1 1,-2h5l2,-2 5,-11 -1,-4 -8,-5 -1,4 -2,3v2l-1,3h-2l-1,-3h-2h-1l-2,-2 -1,-17v-1v-4v-1l1,-2v-2h1v2l2,-5h2l4,-2h2h1h2l1,-1 3,-9h-3l-3,-5h-1v-3v-7v-1v-4h-1l2,-8v-2v-1h-3l1,-5h-3h-2l-1,-5 -3,-2 -1,-2 -1,-3v-3l-1,-4 -1,-1 -2,-7 -5,-7 -2,-1v-2v-3l2,-7 2,-1 1,-2 2,-2 1,-3v-3v-2l-3,-3 3,-2h2l1,-2 2,-6 -1,-2 -1,-5 1,-3 1,-4 2,-5v-3l2,-2 1,-1 -1,-2 -1,-5 -2,-2 -3,-5v-1l-1,-2 -1,-3 -1,-2 -1,-7h-2v-1v-4l2,-3 1,3v-3l-1,-2 1,-1h-3l-2,1h-3v-8l7,-13 1,-2 3,-2 2,-5h3h3l1,-1 1,-2 1,-2h2h1h1l2,-3 1,-2 1,-1 2,-4v-3v-5v-2l1,-1v-2l-1,-2 1,-8h3h2h4h2h1h3h1h3l5,-2 3,-1h1v-2l8,-3 3,-2 2,-1 1,-7h1l3,-2h4l3,2h9h3l5,-2h2h7l8,4 7,-4 3,-5 4,-1 2,-5h2l9,-2h1l5,2h4l3,5h1h3l4,3 4,2 7,3h2l1,-2h2v-1h2h1l1,-2h2h2h1h3h1l1,-2 7,-5 3,-1h1l2,-2 5,-3h2h2l1,-2h1h1h3l2,-2 3,-1h2l-2,-10 -1,-2v-2l-1,-1v-2l2,-2 2,-5 -2,-1h-1v-4l1,-1v-4l1,-1 4,-2h6l-1,-10 1,-2 3,-3 2,-2 2,-3h2h7h4h1l4,-2 4,-3 6,-3 12,5 4,1h2l2,-1h1v-4l2,-5 3,-1h4h11h1h4l12,-7 4,-3 1,-2 2,-2 3,-1h1l2,-2 1,-2v-1l4,-4 2,-5v-1v-2h1l2,-2 20,-31 11,-7 -2,-1 -2,-2 -1,-2 11,-13v2l-1,3 3,3 8,-3 1,-2 2,-5 7,-3h4h3l3,-2 3,-1 1,-5 2,-2 4,-10v2h3v-2v-3h2l3,1h3l1,-3v-2l-3,-1 -1,-2 -1,-2 -2,-1 -2,-4 -5,-6v-2v-3h5l9,-7 -3,-22 -1,-1 -1,-24h1h7l14,-3 2,-3h3l3,-7 -3,-2v-6l6,3 9,-8 1,-4 -4,-1v-2l1,-1 1,-2 -1,-2h-2l-2,2 -3,2h-1l1,-4v-1v-2h-1l-6,2v-4l1,-1v-2l-8,-3h4l4,-5 -1,-5 -2,-5v-4v-3v-2l2,-5 1,2 2,2 2,1h1l-1,-5 -1,-3v-3h-4l-2,-4 -2,-1 -4,-5 2,-2 2,-3 -1,-2 -2,-5h-1v-3l-4,-5v3l-2,2h-2l-5,-5v-2v-2h-6l-3,-1 -1,-4v-3h1l2,-2 -2,-6h-1l1,-2 4,-2v-1h-1l-1,-2h-2h-1h-1l-1,-2 -4,-5h-2l2,-1v-4l-2,-5v-3v-5v-3l-3,-2 -1,-2v-1l-5,-10 -10,-17v-1l-2,-7h-2h-1l-2,-8v-2l-1,-5v-2l-4,-8h-1l32,-38 21,-29 1,-1 -1,-12 -1,-2h-2v-5v-3l2,-3h2l3,-2 2,-2 7,-10 2,-3 1,-15v-2v-3v-3l6,-12 1,-5h2l3,-1 12,-9 1,-1 3,-5 3,-4 3,-5 6,-8 2,-5 9,-12h1l4,-6v-2l-6,-5h-1l-2,-3 -8,-10 -1,-2 -2,-2 -1,-5v-1v-2l-1,-2 -2,-1h-1v-2h1l3,-2v-6v-2v-2l-2,-1v-2l2,-2 1,-6 -1,-7 -1,-3 -3,-2 -1,-2 -5,-8h-1l-2,-2 -1,-3 -1,-2 -1,-1h-2l-3,-7 2,-3 1,-7 2,-3 23,-15h1l19,7h2h2l2,-5 -18,-9 -1,-1 1,-7v-3l1,-2v-3l2,-5 3,-5v-2l1,-2v-5l-9,-6 -3,-4v-3l2,-2 4,-5 -1,-3 2,-3 1,-2v-7l8,-8 1,-3 1,-2 5,-7h1h1h6h2l1,-1 1,-4 1,-3 5,-7 1,-5h2l5,-6 1,-5v-2l1,-3h2l3,-2 2,-1 3,-4 5,-5 2,-3h1l1,-2v-1l1,-4 -1,-1v-2l-4,-7 -4,-6 1,-4 3,-5 4,-3 1,-3 2,-7v-2v-8l4,-5 1,-2 3,-6v-2v-5l1,-2 1,-1 3,-4 1,-1 3,-10 2,-4 3,-1 1,-4v-3l-1,-3 -2,-5 -3,-4h-1l-6,-3h-1l-2,-3 -2,-2 -3,-2 -4,-3 -11,-8 -3,-5 3,-4h1l11,7h1l9,-5 3,-2 5,-3h7l3,2 10,5 3,-10 5,-2 5,-3 8,-5 1,-2 1,-3v-2l-2,-3 -2,-7 6,-5 12,-5h3l2,-1 1,-4 5,-6 20,-10 13,-14h7l6,5h4l6,5 4,19 2,5 1,1h2l7,5h3l1,2 7,8 3,5v2l1,5h2h1h9h2h6l3,-2 3,-3h2h2l1,3 6,5 3,5 4,2 1,3 6,-5 2,-3 7,-2 3,-3 4,5 6,3 3,5 8,-5 12,-13 4,-8 2,-10 3,-9 3,-1h2l1,-4 1,-1v-4l-2,-5 4,-6 1,-4 4,-8 2,-2 6,-3h4h1l1,8 1,5 1,15 2,25 1,7v10l2,5v28l2,42 1,6 1,20 1,2 1,22 1,11v4l1,20 1,3 1,25 1,11v4l2,40 1,16 2,35v7v3v10l7,82 1,8 1,18 1,20v7l1,10 1,8v9l1,3v2l1,11v4l1,16 2,20v5l2,20v18l2,27v13v9l2,11 1,20 2,32 1,16v5l1,19 1,15 2,28 1,27 1,18 1,25v8v32v5l1,5v3v8l1,7v2l1,18v7v11l2,19 1,5v5v6v9v5l2,11v13l1,14v8v8l2,15 1,22v5v10v10v2v3l1,3 1,17v12l1,11 1,22 1,28v3l1,9v10l1,13v7v3l1,8v9v3v5l1,8v5v9l1,15 1,15v3v3l1,32 1,15v3l1,48 1,15v2v3v5v12v3v2v7v1l2,20 1,32v3l2,5v2v5l1,23v5v7l1,6v25l2,25v4l1,20v6v15v2v6v5v2l1,22v13l1,8v4v3v3v5v5l1,7v5v3l1,7v25v7l1,16v5v8v7v2v3l1,3v7v3v5l2,14 1,6v5v4v3v5l2,15 1,8v12v7v5v3v2v5v1l1,5v7l1,5v5v3l1,7v3l1,15v2l1,10 1,11v2v3v2l1,7v6v7l1,5v2v3v7v3l1,3v2v5v3v5l1,5v5v5v5l1,4v5l3,1h1l2,2 1,2v1v2l3,2h4v1l1,2 2,8 1,7 -1,6 -1,2h-2h-2h-2l-1,8 3,4 2,3 1,8h2v5v4l-1,1v5l1,2h-1l-2,3v4v3l-1,3 -6,4v5l-1,3 -2,3 -1,2v2l1,1v2v2v1l-2,2 -4,2 3,3h1v2h1h4l3,3 1,2 2,3 -1,3 -2,7 -1,2v1l-2,2 -1,3v2l1,7 3,1 2,4v3l-1,3 -4,2h-3v2v3v3v2l-1,3 -2,2 -1,2 -2,1h-3h-1l-2,2v2l-3,19v2l1,2 1,1h1v5l-4,5 1,5v2v2v3v2l2,3h1l2,7 4,6 1,2v2l1,3 -3,3 5,7v2v5v1l4,-1 -2,3v2l2,1 1,2h3l4,2v1l1,2 2,5h2l2,-2h2h3h1h1h4h1l3,-1h2l1,1h1h-1v2l1,2v5l4,1 3,2v2l-1,1h1v2h2l2,-2h1v2l1,2v1l4,5v2h-2l2,7 1,1h2l2,2 1,3 4,2 1,2v1h2l3,4 -1,1h-1h-2h-4v2h-1l-1,2v1v2h2l8,7h2h1l2,3 3,2 2,1 1,2v3l2,3 1,2h3h2h2l1,3v2l3,3 2,2h2l3,3 2,2 1,5 2,2 3,1 1,-1v-2v2h3h1l2,1h1l3,2 3,2v1v2v7l2,1h2h2h5l9,5 1,4h1v5l2,3 1,2 1,1 1,2v2l-1,1 -1,4v1v2l-1,2 -2,1 -2,7 -2,5v3v5v2v3v2v3h-1l-3,2h-2l-1,3v2h1v5l2,3 1,7 -1,2 -2,3v12l-1,1 -1,4 -1,3v2l-2,4 -1,2v3l2,5 1,4 -4,23 -21,-15h-1v2l-14,10 9,40 -21,13"/>
  <g class="subcounties" transform="scale(0.1)">
    <path data-geo-id="3301384900" data-name="Wilmot" d="M595,2409l-16,23 66,42 -12,23 23,17 21,48 27,-32 -35,-76 30,-13 -12,-25 -18,20 -33,-89 -4,5 -30,44 -2,5 -2,3 -2,2Z"/>
    <path data-geo-id="3301380020" data-name="Webster" d="M769,2599l56,116 53,-20 17,-8 -47,-78 -14,-44Z"/>
    <path data-geo-id="3301327380" data-name="Franklin" d="M819,2386l24,35 11,41 -4,48 26,37 21,-10 22,-28 -3,-47 7,-1v-2l-1,-2 -3,-8 -3,-7 3,-1 -2,-4v-3l-2,-5h4l-1,-3 -3,-7v-3l-9,-17 -9,3 -5,2v-3l-1,-2 -5,-3 -1,-2h-2l-7,-2 -2,-1 -5,-5 -1,-4 -1,-1 -3,-4 -3,-5 -3,-3v-2v-1Z"/>
    <path data-geo-id="3301360020" data-name="Pembroke" d="M1041,2785l-1,30 -1,10 28,38 25,-2 19,-28 23,-31 -22,-4 12,-30 -55,-38 12,-17 -6,-6 -5,13 -12,22h-1l-4,6 4,19 -21,1Z"/>
    <path data-geo-id="3301319460" data-name="Dunbarton" d="M879,2831l2,14 7,35 1,5 14,73 57,-10h2l18,-5h10l28,-5 6,-10 -62,-42v-28l-47,-36Z"/>
    <path data-geo-id="3301300660" data-name="Allenstown" d="M1066,2868l103,28 18,-38 4,-8 2,-2 1,-2 1,-3 1,-3 2,-4 2,-6 4,-13 -70,-15 -23,31 -19,28 -25,2Z"/>
    <path data-geo-id="3301306500" data-name="Bow" d="M939,2817l-24,5 47,36v28l62,42 42,-60 1,-5 -28,-38 -27,-25 -64,33Z"/>
    <path data-geo-id="3301306260" data-name="Boscawen" d="M834,2565l14,44 47,78 57,-28 -4,-34 -32,-15 -17,-46 1,-2 -3,-25 -21,10Z"/>
    <path data-geo-id="3300768500" data-name="Second College" d="M1441,649l-1,-11v-2l-1,-3v-9l-1,-8 -1,-10v-7l-1,-20 -1,-18 -1,-8 -4,-44 -82,5 -4,20 -20,124Z"/>
    <path data-geo-id="3300773060" data-name="Stark" d="M1042,932l7,7 4,136 28,20 7,-5 9,-15 87,-50 15,-43 -8,-75 -82,3 2,12Z"/>
    <path data-geo-id="3300774500" data-name="Success" d="M1470,1190l-1,-14v-13l-2,-11v-5v-9v-6v-5l-1,-5 -2,-19v-11v-7l-1,-18v-2l-1,-7v-8v-3l-1,-5v-5v-32v-8l-1,-25 -38,2 -49,103v1l-34,100 1,15Z"/>
    <path data-geo-id="3300780740" data-name="Wentworth" d="M1444,694v-5l-2,-20 -1,-16v-4l-117,9 -38,3 2,40Z"/>
    <path data-geo-id="3300784420" data-name="Whitefield" d="M863,1323l6,2 12,6 6,3 7,4 4,1 13,4 14,8 13,5 3,2 12,6 -9,-54 66,-10 -17,-115 -78,45 20,28Z"/>
    <path data-geo-id="3301312420" data-name="Chichester" d="M1081,2713l-12,17 55,38 40,-85 24,-24 -43,-32Z"/>
    <path data-geo-id="3301324900" data-name="Epsom" d="M1124,2768l-12,30 22,4 70,15 3,1 1,-3 19,-45 2,-2 7,-16 1,-2 1,-2v-1l4,-10h1l6,-15 2,-5v-2l4,-8v-2h1l-92,-22Z"/>
    <path data-geo-id="3301306980" data-name="Bradford" d="M510,2700h17l4,33v4l12,21 4,5 4,5 11,17h4l5,-2h4l47,-15h5l24,-6 29,-9 -40,-88 -26,7Z"/>
    <path data-geo-id="3301337540" data-name="Hopkinton" d="M766,2732l52,116h1l23,-5 3,-2 4,-1 30,-9 36,-9 24,-5 -61,-122 -53,20Z"/>
    <path data-geo-id="3301335540" data-name="Henniker" d="M651,2762l4,8 4,12 29,61 1,5 15,32 43,-12 70,-20h1l-52,-116 -86,21Z"/>
    <path data-geo-id="3301309860" data-name="Canterbury" d="M899,2564l17,46 32,15 4,34 55,-29 5,10 64,-91 1,-35 -3,-2 -10,-7 -16,2 -148,55Z"/>
    <path data-geo-id="3301962340" data-name="Plainfield" d="M268,2259l-14,12 -3,3 -2,2 -15,7 -7,5 -5,6v9l-1,1 -1,9v13v2l1,6v2l-8,15 -6,12 110,9 13,-16 33,16 -2,25 12,5 23,-33 1,-46 17,-29 -13,-6 -2,-2h-3l-5,-2 -4,-1 -3,-2 -2,-2h-2l-53,-10h-4l-51,-10h-2Z"/>
    <path data-geo-id="3301941700" data-name="Lempster" d="M349,2680l17,122h6l10,-2 26,-5h2h4l11,-2 26,-6 5,-82h-25l-9,-38Z"/>
    <path data-geo-id="3301952580" data-name="Newport" d="M321,2484l2,116 94,30 36,-25 1,-83Z"/>
    <path data-geo-id="3301975060" data-name="Sunapee" d="M454,2522l-1,83 45,-11 3,-4v-3l1,-2h1l3,-6 18,-34 1,-3 1,-2v-15l1,-16 1,-7 -1,-2 -9,-13v-3l1,-5 1,-8 2,-7 -57,-8Z"/>
    <path data-geo-id="3301972740" data-name="Springfield" d="M469,2427l-4,29 57,8h8l20,3h1h3l1,2 9,-5 1,-3 2,-5 2,-7 2,-3 8,-14 16,-23 1,-3 2,-2 2,-3 2,-5 30,-44 -12,-1 -11,-2 -33,-7h-3l-8,-1 -55,-9 -2,-11 -19,30 -18,28 16,5Z"/>
    <path data-geo-id="3301978980" data-name="Washington" d="M425,2793l-21,63 15,2h2h15l44,2h5h6h1l43,1 5,-18 3,-7 6,-14 -8,-30h3l18,-7 -11,-17 -4,-5 -4,-5 -12,-21v-4l-4,-33h-17l-54,5 -5,82Z"/>
    <path data-geo-id="3301977940" data-name="Unity" d="M241,2614l-5,41 20,38 93,-13 73,-13 -5,-37 -94,-30 -65,-1Z"/>
    <path data-geo-id="3300934820" data-name="Haverhill" d="M539,1554l-2,8h1v4v1v7v3h1l3,5h3l-3,9 -1,1h-2h-1h-2l-4,2h-2l-2,5h-1l-1,2v1v4v1l1,17 2,2h1h2l1,3h2l1,-3v-2l2,-3 1,-4 8,5 1,4 -5,11 -2,2h-5l-1,2h1l1,1h1l1,2 2,2h1l4,1 1,2 -1,3 -3,2h-2h-1l-1,-2 -1,-3h-2l-3,3 -6,4 2,1h2v5l-2,4h-2l-5,13h-2l-2,-2h-3l-1,2 -1,1 1,4 4,1 1,2 -1,2h-3l-8,5 -3,1 -1,2 3,15h-2l54,32 -3,-20 54,28 46,-145 -115,-53ZM528,1597h-1v2Z"/>
    <path data-geo-id="3300941860" data-name="Lincoln" d="M825,1551l-41,110 119,59 12,-5 23,-5 57,40 40,-16 13,-34 -2,-44 39,-32 38,-17 3,-18 -27,-28 4,-24 -104,-38 -40,110Z"/>
    <path data-geo-id="3301533460" data-name="Hampton Falls" d="M1663,3158h-7l4,5ZM1656,3158l-1,-24 -5,-3 -32,-28 -2,-7 -23,-32 -22,10 7,69 61,5Z"/>
    <path data-geo-id="3301543220" data-name="Londonderry" d="M1084,3114l-3,4h1v1v5l1,2v3l1,5 4,24v1l1,7 1,3 2,12 2,13 1,3 4,20 4,32 11,2h18h9l11,13 6,8 2,2 5,7 1,1 11,-33 1,-10v-2l15,-8 -15,-128 -29,-8 1,10h-1h-2h-4l-3,3 -21,3h-3l-7,2h-2h-3h-3l-13,2Z"/>
    <path data-geo-id="3301571140" data-name="South Hampton" d="M1504,3197l6,-1h2h3l5,-2h1l4,-2h6l3,-1 3,-2h1l2,-2 4,-1 5,-5 11,-7 4,-2 3,-1 3,-2h3l9,-3 -2,-15 -57,3 -32,5Z"/>
    <path data-geo-id="3301301460" data-name="Andover" d="M699,2441l-30,13 35,76 16,-8 134,-60 -11,-41 -24,-35 -78,35Z"/>
    <path data-geo-id="3301533060" data-name="Hampton" d="M1676,3163l-3,-4M1655,3134l24,20 16,-26 -1,-30 8,-15 -97,-22 -12,3 23,32 2,7 32,28Z"/>
    <path data-geo-id="3300147140" data-name="Meredith" d="M1012,2176l-110,108 123,39 -23,-59 21,-5 38,-35 18,15 33,-1 29,-25 36,11 -28,-28 -11,-8 -8,-9 -18,-18 -4,-3 -2,-2 -2,-1 -1,-2 -7,-7 -3,-3 -2,-2 -2,-1 -36,-4 -41,38Z"/>
    <path data-geo-id="3300167300" data-name="Sanbornton" d="M844,2341l6,3 2,2 3,3 4,2 1,1 2,4 -1,1 -1,5 -1,2 -1,2v1v2l3,3 3,5 3,4 1,1 1,4 5,5 2,1 7,2h2l1,2 5,3 1,2v3l5,-2 9,-3 9,17v3l3,7 1,3 22,-10 84,-32 8,-36 -8,-28 -123,-39Z"/>
    <path data-geo-id="3300177060" data-name="Tilton" d="M915,2429l2,5v3l2,4 -3,1 3,7 3,8 1,2v2h2h1l1,1 1,4h1l2,1 4,-1h2l3,6 3,-1 1,-2h2v-2v-3l1,-2 4,2h2l8,-3 1,-2 8,-8h2h2l3,-4 2,-1h2v1h2l3,2h2l2,2 35,-64 -84,32 -22,10Z"/>
    <path data-geo-id="3301773860" data-name="Strafford" d="M1273,2672l-4,3 17,15 16,13 3,2 8,10 10,7 15,11 20,19h2l8,8 7,5 73,-108 -18,-13 -81,-72 -6,8 -30,37 -2,5 -14,18 -11,15 -6,9 -4,3Z"/>
    <path data-geo-id="3301314200" data-name="Concord" d="M878,2695l61,122 9,16 64,-33 27,25 1,-10 1,-30 -5,-17 21,-1 -4,-19 4,-6h1l12,-22 5,-13 -46,-34 -17,-33 -5,-10 -55,29 -57,28Z"/>
    <path data-geo-id="3301335860" data-name="Hill" d="M740,2332l-8,35 9,54 78,-35 39,-20 1,-2 1,-2 1,-5 1,-1 -2,-4 -1,-1 -4,-2 -3,-3 -2,-2 -6,-3h-1l-1,-2 -2,-3v-4l-2,-3 -1,-5 -6,-1 -2,-2 -5,-8 -1,-4h1v-1l-1,-2 -1,-2 -1,-1 -4,-2h-4l-1,2h-2v1l-1,2 -5,-3h-1l-2,1h-1l-1,2h-2l-1,-2 -3,-1 -5,6 -3,4 -8,8 -2,-7 -2,-1h-5l-5,1h-1l-6,4 -1,1 -1,2 -1,2h-5l-2,1 -5,5Z"/>
    <path data-geo-id="3301337300" data-name="Hooksett" d="M1018,2938l6,27 16,-5h6l3,6v2v3l1,2v2h2l5,1 1,4 2,1 17,-11v1l1,4 1,5v3l1,5 1,3v4l1,4 1,2 5,2h2l9,1h2l32,10h3l-9,-33 -1,-5 -1,-1h4h7l13,-32 2,-3 2,-5 2,-4 14,-35 -103,-28 -42,60Z"/>
    <path data-geo-id="3301354260" data-name="Northfield" d="M897,2537l22,-28 -3,-47 7,-1h2h1l1,1 1,4h1h-1h1l2,1 4,-1h2l3,6 3,-1 1,-2h2v-2v-3l1,-2 4,2h2l8,-3 1,-2 8,-8h2h2l3,-4 2,-1h2v1h2l3,2h2l2,2 3,1 3,2 3,3h1l1,2 4,3 7,5 5,4 2,1 12,9 1,1 11,7 2,2 19,14 -16,2 -148,55 -1,2 1,-2Z"/>
    <path data-geo-id="3301316980" data-name="Danbury" d="M636,2347l33,89 18,-20 12,25 42,-20 -9,-54 8,-35 -2,-4 -6,-20 -8,-24 -4,-13 -3,-7 -5,-16 -14,15h-1l-2,3 -2,2 -5,6 -4,5 -4,4 -1,1 -20,29v1l-6,7 -9,15 -5,6Z"/>
    <path data-geo-id="3300575700" data-name="Swanzey" d="M245,3138l-40,79 36,2 6,42 20,8 30,-12 48,4h1l14,-67 -9,-51Z"/>
    <path data-geo-id="3300539300" data-name="Keene" d="M230,3053l-17,3 13,62 19,20 106,5 10,-24 -19,-21 25,-37 -28,-12 -2,-26 -43,13Z"/>
    <path data-geo-id="3300585540" data-name="Winchester" d="M144,3370h14h15h9l10,2h4h6l15,3h10h8h8l20,2 -12,-91 16,-17 -20,-8 -6,-42 -36,-2 -82,-8Z"/>
    <path data-geo-id="3300577380" data-name="Troy" d="M346,3261l18,30 21,1 26,-26h33l-6,-45 -54,-10 -24,-17Z"/>
    <path data-geo-id="3300536660" data-name="Hinsdale" d="M51,3203l-1,2 6,24v5l1,10 3,8 1,5v4l6,15 5,1 20,25v2v3l-4,5 5,9 9,-12h2h2l3,3 16,32 2,5 12,18v3h1h4l-21,-161Z"/>
    <path data-geo-id="3300578420" data-name="Walpole" d="M151,2817l-2,13 -2,1 -1,5 5,10 3,2h1h3h1l1,7 5,13 -5,20 5,28 -6,12 -8,8 -4,5 -9,24 13,32 83,7 1,-61 -11,-88h-7h-4l-3,-2h-3h-2h-3l-11,-3h-2h-6l-15,-2v-15v-15l-11,-1h-2h-2Z"/>
    <path data-geo-id="3300575300" data-name="Surry" d="M234,3004l-4,49 64,-17 -13,-95 -46,2Z"/>
    <path data-geo-id="3301101700" data-name="Antrim" d="M515,3003l-1,16 110,-18 10,-3 18,-38 1,-67 -67,15 -56,13 -7,39 -3,11 -1,10 -1,7 -1,3 -2,10Z"/>
    <path data-geo-id="3301144580" data-name="Lyndeborough" d="M750,3088l-26,75 -18,13 23,21 86,-11 6,28 32,-13 -10,-19 -24,-24 -6,-32 -9,-47Z"/>
    <path data-geo-id="3301131940" data-name="Greenville" d="M735,3299l12,76 28,-5 -11,-78 -19,5Z"/>
    <path data-geo-id="3301151940" data-name="New Ipswich" d="M634,3392h1l5,2h23h1h11l10,1h23l25,2h17l-3,-22 -12,-76 -74,-3h-41l2,13 3,15 1,10 8,53Z"/>
    <path data-geo-id="3300907700" data-name="Bristol" d="M764,2183l31,-17 11,12v1l-14,9 23,31 31,-13 28,23 15,-8 2,-2 -1,2h-1v2v1l3,5 3,5 -1,2 -2,2 -10,5v3v2l1,3v5l-11,5 -26,8 -1,-1 -2,-5h-9l-1,3 -1,2h-2h-3h-2h-1l-3,5v1v2l4,3 2,2 4,3 3,4v3l-7,7 -1,3 1,2 -1,3 -1,2h-1v1v-1l-1,-2 -1,-2 -1,-1 -4,-2h-4l-1,2h-2v1l-1,2 -5,-3h-1l-2,1h-1l-1,2h-2l-1,-2 -3,-1 9,-14Z"/>
    <path data-geo-id="3300961060" data-name="Piermont" d="M504,1712h-1h-1l-1,3v2v7h-2h-3h-2l-1,-4h-2h-2l-1,4 -1,3 1,2 1,3v2l3,3h-3v-3l-1,-2h-3h-1h-4l-1,2 -1,6 1,2v3l1,2h-1l-1,2 -3,1 -6,7 -1,2v1l3,7v13v2v5l5,3 1,-1 11,3 3,2 -2,1 -1,2h-1h-2l-2,2 1,5v1l117,53h11l-3,-106 -54,-28 3,20Z"/>
    <path data-geo-id="3300974740" data-name="Sugar Hill" d="M764,1404l-50,105 28,8 29,10 35,-99Z"/>
    <path data-geo-id="3300907540" data-name="Bridgewater" d="M806,2179l-14,9 23,31 31,-13 28,23 15,-8 2,-2 1,-1 1,-5v-4l1,-1 1,-2 -2,-5 -1,-3 -1,-4v-1v-9v-1l2,-4h1l1,-18 -1,-1 1,-2 2,-3 1,-2 -11,-40 -69,40 -23,13 11,12Z"/>
    <path data-geo-id="3300900580" data-name="Alexandria" d="M679,2140l-24,54 17,40 -8,19 34,10 14,-15 5,16 3,7 4,13 8,24 6,20 2,4 1,-3 5,-5 2,-1h5l1,-2 1,-2 1,-1 6,-4h1l5,-1h5l2,1 2,7 8,-8 3,-4 5,-6 9,-14 -38,-106 -56,-20 8,-13Z"/>
    <path data-geo-id="3300713220" data-name="Clarksville" d="M1049,470l-2,5h-2h-2l-2,1 180,35 57,12 33,5 13,-70 2,-18 -120,-24 2,10 -71,-6 -32,-14 -31,22 -12,25v8Z"/>
    <path data-geo-id="3300713940" data-name="Columbia" d="M939,771l1,-2 4,-8 21,-29 1,-1 -1,-12 -1,-2h-2v-5v-3l2,-3h2l3,-2 2,-2 7,-10 2,-3 1,-15v-2v-3v-3l6,-12 1,-5h2l3,-1 12,-9 1,-1 3,-5 2,-2h1l160,30 -8,43 -6,33 -76,12 -142,20Z"/>
    <path data-geo-id="3300716820" data-name="Dalton" d="M873,1196l-2,2h-1v2v1l-2,5 -4,4v1l-1,2 -2,2h-1l-3,1 -2,2 -1,2 -4,3 -12,7h-4h-1h-11h-4l-3,1 -2,5v4h-1l-2,1h-2l-4,-1 -12,-5 1,1 7,12 2,3 8,12 5,12 8,8 2,3 23,34 5,10 2,-4 8,-3 72,-65 -20,-28 -29,-39Z"/>
    <path data-geo-id="3300711220" data-name="Chandlers" d="M1149,1378l4,21 14,69 7,-10 -10,-47 -7,-37Z"/>
    <path data-geo-id="3300902020" data-name="Ashland" d="M871,2075l16,38 11,40 2,-2h9l4,-1h3h3h2h4l4,-2h5l10,-2 9,-1h5l-3,-17 -52,-57Z"/>
    <path data-geo-id="3300756100" data-name="Northumberland" d="M979,934l-2,3 -2,2 4,5 2,1 2,4h4v3l1,3 1,5h-1l-2,-1 -2,-2 -1,-2 -2,5v2v3v4l2,5 1,5 -4,5h-4l8,3v2l-1,1v4l6,-2h1v2v1l-1,4h1l3,-2 2,-2h2l1,2 -1,2 -1,1v2l4,1 -1,4 -9,8 -6,-3v6l3,2 -3,7h-3l-2,3 -14,3h-7h-1l1,24 1,1 8,9 87,43 27,-15 -28,-20 -4,-136 -7,-7Z"/>
    <path data-geo-id="3300761780" data-name="Pittsburg" d="M1427,458v-7l-2,-35 -1,-16 -2,-40v-4l-1,-11 -1,-25 -1,-3 -1,-20v-4l-1,-11 -1,-22 -1,-2 -1,-20 -1,-6 -2,-42v-28l-2,-5v-10l-1,-7 -2,-25 -1,-15 -1,-5 -1,-8h-1h-4l-6,3 -2,2 -4,8 -1,4 -4,6 2,5v4l-1,1 -1,4h-2l-3,1 -3,9 -2,10 -4,8 -12,13 -8,5 -3,-5 -6,-3 -4,-5 -3,3 -7,2 -2,3 -6,5 -1,-3 -4,-2 -3,-5 -6,-5 -1,-3h-2h-2l-3,3 -3,2h-6h-2h-9h-1h-2l-1,-5v-2l-3,-5 -7,-8 -1,-2h-3l-7,-5h-2l-1,-1 -2,-5 -4,-19 -6,-5h-4l-6,-5h-7l-13,14 -20,10 -5,6 -1,4 -2,1h-3l-12,5 -6,5 2,7 2,3v2l-1,3 -1,2 -8,5 -5,3 -5,2 -3,10 -10,-5 -3,-2h-7l-5,3 -3,2 -9,5h-1l-11,-7h-1l-3,4 3,5 11,8 4,3 3,2 2,2 2,3h1l6,3h1l3,4 2,5 1,3v3l-1,4 -3,1 -2,4 -3,10 -1,1 -3,4 -1,1 -1,2v5v2l-3,6 -1,2 -4,5v8v2l-2,7 -1,3 -4,3 -3,5 -1,4 4,6 4,7v2l1,1 -1,4v1l-1,2h-1l-2,3 -5,5 -3,4 -2,1 -3,2h-2l-1,3v2l-1,5 -5,6h-2l-1,5 -5,7 -1,3 -1,4 -1,1h-2h-6h-1h-1l-5,7 -1,2 -1,3 -8,8v7l-1,2 -2,3 1,3 -4,5 -2,2v3l3,4 9,6v5l-1,2v2l-3,5 -2,5v3l-1,2v3l-1,7 1,1h31v-8l12,-25 31,-22 32,14 71,6 -2,-10 120,24 -2,18Z"/>
    <path data-geo-id="3300773380" data-name="Stewartstown" d="M1024,468h-1l-23,15 -2,3 -1,7 -2,3 3,7h2l1,1 1,2 1,3 2,2h1l5,8 1,2 3,2 1,3 1,7 -1,6 -2,2v2l2,1v2v2l2,3 186,33 17,-73 -180,-35Z"/>
    <path data-geo-id="3300725180" data-name="Ervings" d="M1158,737l29,15 -1,-43 -22,-5Z"/>
    <path data-geo-id="3300776580" data-name="Thompson and Meserves" d="M1157,1374l7,37 104,-23 3,-2 1,-33 5,-35h-13Z"/>
    <path data-geo-id="3300923860" data-name="Ellsworth" d="M757,1815l-23,83 95,39 -3,-34 -6,-63Z"/>
    <path data-geo-id="3300905060" data-name="Benton" d="M655,1607l-46,145 128,20 26,-108 -57,-30Z"/>
    <path data-geo-id="3300918740" data-name="Dorchester" d="M550,1958l-30,128 116,40 23,-125Z"/>
    <path data-geo-id="3300908980" data-name="Canaan" d="M503,2080l-77,106 128,60 13,-20 54,-86 15,-14 -116,-40Z"/>
    <path data-geo-id="3300924340" data-name="Enfield" d="M380,2279h2l2,2 3,2 4,1 5,2h3l2,2 13,6 16,7h3l6,3 13,7 21,8 -11,18v2l6,3 21,9 19,-30 46,-75 -128,-60Z"/>
    <path data-geo-id="3300905460" data-name="Bethlehem" d="M853,1330l-89,74 42,24 193,71 104,38 9,4 -7,-39 -5,-19h10l-13,-25 -4,-7 -8,-17 -2,-1 -5,-2 -7,-3 -1,-2 -3,-2h-2l-3,-1 -1,-4 -28,7h-3h-3v-2l-1,-5 -1,-1 -17,1h-3h-2h-3l-21,5 -1,2h-4l-12,2v-12l-1,-5v-2l-1,-5 -2,-10 -5,-30 -12,-6 -3,-2 -13,-5 -14,-8 -13,-4 -4,-1 -7,-4 -6,-3 -12,-6 -6,-2 -8,3Z"/>
    <path data-geo-id="3300935220" data-name="Hebron" d="M716,2150l-8,13 56,20 31,-17 23,-13 -21,-48 -20,-9 -20,-6Z"/>
    <path data-geo-id="3300930820" data-name="Grafton" d="M508,2321l2,11 55,9 8,1h3l33,7 11,2 12,1 4,-5 3,-5 5,-6 9,-15 6,-7v-1l20,-29 1,-1 4,-4 4,-5 5,-6 2,-2 2,-3h1l-34,-10 -97,-27 -13,20Z"/>
    <path data-geo-id="3300932180" data-name="Groton" d="M636,2126l43,14 37,10 41,-60 20,6 1,-51 -119,-44Z"/>
    <path data-geo-id="3300927300" data-name="Franconia" d="M771,1527l54,24 134,58 40,-110 -193,-71Z"/>
    <path data-geo-id="3300942820" data-name="Livermore" d="M915,1715l23,69 206,-34 -1,-8 -2,-13v-2l-1,-2v-1l8,-14 26,-46 -24,-12 -2,-6 -7,-20 5,-9v-18l-2,-7 -3,-11 -4,-19 -9,-13 -16,-8 -9,-4 -4,24 27,28 -3,18 -38,17 -39,32 2,44 -13,34 -40,16 -57,-40Z"/>
    <path data-geo-id="3300948980" data-name="Monroe" d="M590,1323l-1,7 -2,1 -3,2 -8,3v2h-1l-3,1 -5,2h-3h-1h-3h-1h-2h-4h-2h-3l-1,8 1,2v2l-1,1v2v5v3l-2,4 -1,1 -1,2 -2,3h-1h-1h-2l-1,2 -1,2 -1,1h-3h-3l-2,5 -3,2 -1,2 -7,13v8h3l2,-1h3l-1,1 1,2v3l-1,-3 -2,3v4v1h2l1,7 1,2 1,3 1,2v1l3,5 2,2 1,5 1,2 -1,1 -2,2v3l-2,5 -1,4 -1,3 1,5 1,2v1l35,-30 49,-78 28,-17Z"/>
    <path data-geo-id="3300940660" data-name="Landaff" d="M637,1496l18,111 51,27 36,-117 -28,-8 -62,-21Z"/>
    <path data-geo-id="3300936900" data-name="Holderness" d="M876,2030l-13,23 8,22 32,-4 52,57 3,17h1l19,-2 14,-2 21,-3 -1,-18 -1,-2v-2l-1,-10 -1,-10 -5,-45 -2,-11 -2,-19v-5l-1,-5h-6l-115,19Z"/>
    <path data-geo-id="3301930500" data-name="Goshen" d="M417,2630l5,37 9,38h25l54,-5 -21,-78 -1,-8 10,-19v-1l-45,11Z"/>
    <path data-geo-id="3300110660" data-name="Center Harbor" d="M959,2145h-1l23,33 31,-4 41,-38 36,4 -9,-9 -8,-8 -3,-2 -1,-1 -2,-2 -4,-5 -3,-3 -1,-2h-2l-11,-13 -3,-2v-2l-2,-1 -5,-5 -2,-4h-2l-1,-1 -6,-9 -9,-8 -2,-2 -1,-1 -8,-9 5,45 1,10 1,10v2l1,2 1,18 -21,3 -14,2Z"/>
    <path data-geo-id="3301517460" data-name="Deerfield" d="M1169,2896l117,27 16,5 22,-42 -16,-5 45,-68 -93,-21 -22,-44 -1,2 -1,2 -7,16 -2,2 -19,45 -1,3 -3,-1 -4,13 -2,6 -2,4 -1,3 -1,3 -1,2 -2,2 -4,8Z"/>
    <path data-geo-id="3301527940" data-name="Fremont" d="M1345,3044l-10,32h27l53,2 5,-2 6,-78h-65Z"/>
    <path data-geo-id="3300519140" data-name="Dublin" d="M422,3123l18,69 137,5 -1,-15 -2,-6v-2l-2,-16 -2,-17 -1,-7 -1,-6Z"/>
    <path data-geo-id="3300500820" data-name="Alstead" d="M220,2823l2,13v4l1,5v1l1,4v5l11,88 46,-2 61,-6 -15,-127h-3l-6,2h-6l-6,2h-6h-7l-3,1h-1h-5l-8,2 -14,2 -17,8h-10l-9,-2h-4Z"/>
    <path data-geo-id="3300529220" data-name="Gilsum" d="M342,2935l-61,6 13,95 43,-13 -9,-58 56,-9 5,-28Z"/>
    <path data-geo-id="3300534420" data-name="Harrisville" d="M413,3071l8,38 1,14 146,5 -2,-10 -1,-4 -1,-16 -53,-2 1,-27 -72,-5Z"/>
    <path data-geo-id="3300538500" data-name="Jaffrey" d="M440,3192l-2,29 6,45 3,21 36,2 109,3 -8,-55 -1,-3 -1,-8 -1,-4 -4,-25Z"/>
    <path data-geo-id="3300526500" data-name="Fitzwilliam" d="M377,3382h12l13,2h2h3h17l26,1h1h13l20,2h4h1h2h3l-11,-98 -36,-2 -3,-21h-33l-26,26 -21,-1Z"/>
    <path data-geo-id="3300545460" data-name="Marlborough" d="M351,3143l9,51 24,17 54,10 2,-29 -18,-69 -1,-14 -60,10Z"/>
    <path data-geo-id="3300574900" data-name="Sullivan" d="M384,2956l-56,9 9,58 2,26 28,12v-18l36,1 2,-49 2,-37Z"/>
    <path data-geo-id="3300564420" data-name="Richmond" d="M263,3377h18l13,2h6h14l7,1h12h3h6h6h4l8,2h11h6l-13,-91 -18,-30h-1l-48,-4 -30,12 -16,17Z"/>
    <path data-geo-id="3300545700" data-name="Marlow" d="M327,2808l15,127 47,-7 15,-72 21,-63 -11,2h-4h-2l-26,5 -10,2h-6l-33,5 -4,1Z"/>
    <path data-geo-id="3300564580" data-name="Rindge" d="M494,3387h17h7h8h11h12l3,2h1h2h3h3h6h1h4h2h2h12l3,3h2h16h5h13h7v-5l-8,-53 -1,-10 -3,-15 -2,-13 -28,-4 -109,-3Z"/>
    <path data-geo-id="3300573700" data-name="Stoddard" d="M389,2928l-5,28 23,2 -2,37 110,6 2,-10 1,-3 1,-7 1,-10 3,-11 7,-39 8,-56v-4h-3l-43,-1h-1h-6h-5l-44,-2h-15h-2l-15,-2Z"/>
    <path data-geo-id="3300565700" data-name="Roxbury" d="M367,3061l-25,37 19,21 60,-10 -8,-38 -10,-27 -36,-1Z"/>
    <path data-geo-id="3300768980" data-name="Shelburne" d="M1476,1316l-1,-11v-12l-1,-17 -1,-3v-3v-2v-10v-10v-5l-1,-22 -2,-15v-8v-8l-130,3 4,123Z"/>
    <path data-geo-id="3301502340" data-name="Atkinson" d="M1348,3269l12,-8h3l1,-2 5,-2 10,-5 13,5h3l-20,-55 -67,2 2,8 14,52Z"/>
    <path data-geo-id="3301502820" data-name="Auburn" d="M1125,2975l1,1 1,5 9,33 2,14 7,36v4l3,13v3l1,9 29,8 33,7 22,-110 -97,-23h-7Z"/>
    <path data-geo-id="3301509300" data-name="Candia" d="M1149,2943l-13,32 97,23 25,8 28,-83 -117,-27 -14,35 -2,4 -2,5Z"/>
    <path data-geo-id="3301521380" data-name="East Kingston" d="M1504,3078l-34,25 4,23 6,33h11l32,-5 -5,-75Z"/>
    <path data-geo-id="3301512100" data-name="Chester" d="M1233,2998l-22,110 86,20 -4,-59 42,7 10,-32 -94,-21 7,-17Z"/>
    <path data-geo-id="3301517140" data-name="Danville" d="M1362,3076l3,80 40,2 8,-2 2,-78Z"/>
    <path data-geo-id="3301517940" data-name="Derry" d="M1178,3101l15,128 83,-10 34,-7 -2,-8 -11,-66v-10l-86,-20Z"/>
    <path data-geo-id="3301524660" data-name="Epping" d="M1361,2998h65h65l-4,-17 1,-23v-38h-1h-26h-3l-24,1h-1h-47l-7,22Z"/>
    <path data-geo-id="3301525380" data-name="Exeter" d="M1487,2981l4,17 4,66v2l1,12h8l14,1 53,-5 22,-10 12,-3v-2l-45,-30 2,-33Z"/>
    <path data-geo-id="3301550980" data-name="New Castle" d="M1753,2948l-5,-6 -1,3Z"/>
    <path data-geo-id="3301531700" data-name="Greenland" d="M1649,2943l7,5 -63,3 39,37 -9,28 50,5 8,-8 -3,-15 -7,-53ZM1587,2948v-1l-1,1Z"/>
    <path data-geo-id="3301532900" data-name="Hampstead" d="M1297,3138l11,66 67,-2 10,-21h1l19,-23 -40,-2Z"/>
    <path data-geo-id="3301540100" data-name="Kingston" d="M1386,3181l43,25 19,-45 32,-2 -6,-33 -4,-23 34,-25h-8l-76,-2 -5,2 -2,78 -8,2Z"/>
    <path data-geo-id="3301145140" data-name="Manchester" d="M1024,2965l14,83 34,45 7,46 -1,10 11,17 -1,-7v-1l-4,-24 -1,-5v-3l-1,-2v-5v-1h-1l3,-4 4,-1 13,-2h3h3h2l7,-2h3l21,-3 3,-3h4h2h1l-1,-10 -1,-9v-3l-3,-13v-4l-7,-36 -2,-14h-3l-32,-10h-2l-9,-1h-2l-5,-2 -1,-2 -1,-4v-4l-1,-3 -1,-5v-3l-1,-5 -1,-4v-1l-17,11 -2,-1 -1,-4 -5,-1h-2v-2l-1,-2v-3v-2l-3,-6h-6Z"/>
    <path data-geo-id="3301159940" data-name="Pelham" d="M1142,3410h2h9h4h2h3h12h6l1,2h4h10h12h4h17l6,-8h1l8,-10 3,-7 7,-12 2,-3 6,-8 3,-2 4,-5 3,-2h1l2,-1 -11,-15 -2,-2h-2l-1,-2h-4h-3l-1,-1h-1h-1l-11,-2 -26,-8h-7l-11,-3 -14,-4 -4,-8 -1,-2 -2,-5h-1l-2,-1 -3,1h-3Z"/>
    <path data-geo-id="3301176260" data-name="Temple" d="M671,3221l4,23 -14,52 74,3 10,-2 -16,-100 -23,-21 -27,5Z"/>
    <path data-geo-id="3301101300" data-name="Amherst" d="M880,3196l29,45 18,3 8,40 46,-8 -19,-117h8l-11,-60 -25,4 -30,6 2,63Z"/>
    <path data-geo-id="3301108100" data-name="Brookline" d="M848,3400h2h11l12,2h1h7h13h7h1h6h3h1h1l-11,-95 -2,-18 -46,3 1,27 -19,2Z"/>
    <path data-geo-id="3301104500" data-name="Bedford" d="M926,3063l8,40 25,-4 11,60 109,-20 -7,-46 -34,-45Z"/>
    <path data-geo-id="3301127140" data-name="Francestown" d="M679,2985l8,54 6,32 45,-7 12,24 54,-9 -14,-73 -21,-30Z"/>
    <path data-geo-id="3301104900" data-name="Bennington" d="M624,3001l7,47 56,-9 -8,-54 -27,-25 -18,38Z"/>
    <path data-geo-id="3301117780" data-name="Deering" d="M653,2893l-1,67 27,25 90,-9 -22,-108 -43,12Z"/>
    <path data-geo-id="3301129860" data-name="Goffstown" d="M903,2958l3,27 20,78 112,-15 -14,-83 -6,-27 -28,5h-10l-18,5h-2Z"/>
    <path data-geo-id="3301146260" data-name="Mason" d="M750,3397h7h6l6,2h13h3h15h2l21,1h25l-12,-79 -6,-37 -66,8 11,78 -28,5Z"/>
    <path data-geo-id="3301137140" data-name="Hollis" d="M913,3402l10,2h5h2h10h15h17h15h3h6l16,-87 -29,-26 -2,-15 -46,8 -33,23Z"/>
    <path data-geo-id="3301131540" data-name="Greenfield" d="M631,3048l3,33 -14,22 48,-7 11,85 27,-5 18,-13 26,-75 -12,-24 -45,7 -6,-32Z"/>
    <path data-geo-id="3301142260" data-name="Litchfield" d="M1078,3149l-29,48 16,84 4,3 39,-3 -5,-32 -4,-32 -4,-20 -1,-3 -2,-13 -2,-12 -1,-3Z"/>
    <path data-geo-id="3301137940" data-name="Hudson" d="M1099,3409h9h3h13l16,1h2l21,-108 -1,-5v-5v-3l4,-7 -1,-1 -5,-7 -2,-2 -6,-8 -11,-13h-9h-18l-11,-2 5,32 -39,3 29,85Z"/>
    <path data-geo-id="3301136180" data-name="Hillsborough" d="M541,2792l8,30 37,86 67,-15 51,-13 -15,-32 -1,-5 -29,-61 -4,-12 -4,-8 -24,6h-5l-47,15h-4l-5,2h-4l-18,7Z"/>
    <path data-geo-id="3301133700" data-name="Hancock" d="M512,3069l-1,27 53,2 1,16 55,-11 14,-22 -3,-33 -7,-47 -110,18v9v10l-1,13Z"/>
    <path data-geo-id="3301147540" data-name="Merrimack" d="M970,3159h-8l19,117 2,15 4,-5 8,-10 70,5 -16,-84 29,-48 1,-10Z"/>
    <path data-geo-id="3301160580" data-name="Peterborough" d="M565,3114l1,4 2,10 1,6 1,7 2,17 2,16v2l2,6 1,15 4,25 1,4 1,8 1,3 87,-16 8,-40 -11,-85 -48,7Z"/>
    <path data-geo-id="3301150740" data-name="New Boston" d="M790,3006l14,73 9,47 91,-17 30,-6 -8,-40 -20,-78Z"/>
    <path data-geo-id="3301148020" data-name="Milford" d="M821,3214l9,70 6,37 19,-2 -1,-27 46,-3 2,18 33,-23 -8,-40 -18,-3 -29,-45 -27,5Z"/>
    <path data-geo-id="3301150260" data-name="Nashua" d="M996,3404h2h2h16h6l10,3h5h3h2h5h10h12l5,2h7h2h2h6h7h1l-1,-40 -29,-85 -4,-3 -70,-5 -8,10 -4,5 29,26Z"/>
    <path data-geo-id="3301149140" data-name="Mont Vernon" d="M813,3126l6,32 24,24 10,19 27,-5 26,-24 -2,-63Z"/>
    <path data-geo-id="3301185220" data-name="Wilton" d="M729,3197l16,100 19,-5 66,-8 -9,-70 -6,-28Z"/>
    <path data-geo-id="3301185940" data-name="Windsor" d="M538,2865l-8,56 56,-13 -37,-86 -6,14 -3,7 -5,18h3Z"/>
    <path data-geo-id="3301179780" data-name="Weare" d="M747,2868l22,108 21,30 116,-21 -3,-27 -14,-73 -1,-5 -7,-35 -2,-14 -30,9 -4,1 -3,2 -23,5h-1h-1Z"/>
    <path data-geo-id="3301168820" data-name="Sharon" d="M584,3237l8,55 28,4h41l14,-52 -4,-23Z"/>
    <path data-geo-id="3301350900" data-name="Newbury" d="M498,2595l-10,19 1,8 21,78 104,-28 -56,-135 -32,3 -1,2 -1,3 -18,34 -3,6h-1l-1,2v3l-3,4Z"/>
    <path data-geo-id="3301352100" data-name="New London" d="M518,2484v3l9,13 1,2 -1,7 -1,16v15l32,-3 98,-23 -23,-17 12,-23 -66,-42 -8,14 -2,3 -2,7 -2,5 -1,3 -9,5 -1,-2h-3h-1l-20,-3h-8l-2,7 -1,8Z"/>
    <path data-geo-id="3301361940" data-name="Pittsfield" d="M1176,2584l-31,43 43,32 -24,24 92,22 13,-30 4,-3 3,-5 4,-3 -3,-2 -2,-3h-1l-44,-34 -4,-3 -6,-5 -3,-2 -12,-8 -1,-2h-1l-2,-1Z"/>
    <path data-geo-id="3301343380" data-name="Loudon" d="M1012,2640l17,33 46,34 6,6 64,-86 31,-43 -23,-19h-2l-11,-6 -5,-4 -18,-13 -3,-2 -6,-5 -3,-1 -25,-19 -2,-1h-1l-1,35Z"/>
    <path data-geo-id="3300718420" data-name="Dixville" d="M1172,661l-8,43 22,5 102,-8 -2,-40 -8,-138 -57,-12 -17,73 -10,57Z"/>
    <path data-geo-id="3301375460" data-name="Sutton" d="M656,2514l-98,23 56,135 26,-7 72,-15 -35,-88Z"/>
    <path data-geo-id="3300725140" data-name="Errol" d="M1453,844l-2,-32 -1,-20 -2,-11v-9v-13l-2,-27v-18l-2,-20 -156,7 5,148h29Z"/>
    <path data-geo-id="3301366980" data-name="Salisbury" d="M720,2522l4,100 45,-23 65,-34 42,-18 -26,-37 4,-48Z"/>
    <path data-geo-id="3300731780" data-name="Greens" d="M1272,1353l-1,33 16,2h15v-35Z"/>
    <path data-geo-id="3300732420" data-name="Hadleys" d="M1164,1544h-1l7,25 6,25v40l7,8 11,-8 12,-8 3,-17h-8l-14,-78Z"/>
    <path data-geo-id="3300739940" data-name="Kilkenny" d="M1088,1090l8,75 9,55 31,11 -3,-46h-8l37,-102 22,-58 -87,50Z"/>
    <path data-geo-id="3300757860" data-name="Odell" d="M1082,749l27,161 82,-3 -1,-53 -3,-102 -29,-15Z"/>
    <path data-geo-id="3300748260" data-name="Millsfield" d="M1288,701l-102,8 1,43 3,102 103,-5Z"/>
    <path data-geo-id="3300761620" data-name="Pinkhams" d="M1268,1388l-19,31 2,40 3,-8 5,-10h2h6l20,-53 -16,-2Z"/>
    <path data-geo-id="3300763860" data-name="Randolph" d="M1133,1185l3,46 3,77 103,-3 22,13 -3,-138Z"/>
    <path data-geo-id="3300738820" data-name="Jefferson" d="M993,1185l17,115 3,20 76,-14 50,2 -3,-77 -31,-11 -9,-55Z"/>
    <path data-geo-id="3300747860" data-name="Milan" d="M1184,1025l-22,58 211,-5v-1l49,-103 -99,3 -124,5Z"/>
    <path data-geo-id="3300730260" data-name="Gorham" d="M1261,1180l3,138h13h38l29,-2 -4,-123 -1,-15Z"/>
    <path data-geo-id="3300713780" data-name="Colebrook" d="M1016,554l-3,2h-1v2h1l2,1 1,2v2v1l1,5 2,2 1,2 8,10 2,3h1l6,5v2l-4,6h-1l-9,12 -2,5 -6,8 -3,5v2l160,30 22,-20 10,-57 -186,-33Z"/>
    <path data-geo-id="3300774180" data-name="Stratford" d="M944,885h2M912,799h1l4,8v2l1,5v2l2,8h1h2l2,7v1l10,17 5,10v1l1,2 3,2v3v5v3l2,5v4v1l4,5 1,2h1h1h2l1,2h1v1l-4,2 -1,2h1l2,6 -2,2h-1v3l1,4 3,1h6v2v2l5,5h2l2,-2v-3l4,5v3h1l2,5 1,2 63,-2 69,-10 -2,-12 -27,-161 -142,20 -1,2Z"/>
    <path data-geo-id="3300704100" data-name="Beans" d="M1153,1399l-40,60 15,19 2,10 7,34 11,9 19,-63Z"/>
    <path data-geo-id="3300743620" data-name="Low and Burbanks" d="M1089,1306l13,97 47,-25 8,-4 107,-56 -22,-13 -103,3Z"/>
    <path data-geo-id="3300719300" data-name="Dummer" d="M1191,907l8,75 124,-5 -1,-128h-29l-103,5Z"/>
    <path data-geo-id="3301378580" data-name="Warner" d="M640,2665l40,88 86,-21 59,-17 -56,-116 -45,23 -4,-100 -16,8 -27,32 35,88Z"/>
    <path data-geo-id="3300767860" data-name="Sargents" d="M1164,1411l10,47 14,-19 36,5 -26,45 -11,42 14,78h8l2,-17 2,-15 -2,-1 15,-45 20,-55 5,-17 -2,-40 19,-31Z"/>
    <path data-geo-id="3300716100" data-name="Crawfords" d="M1102,1403l-15,5 26,51 40,-60 -4,-21Z"/>
    <path data-geo-id="3300716660" data-name="Cutts" d="M1148,1531l15,10v3h1l23,-13 11,-42 26,-45 -36,-5 -14,19 -7,10Z"/>
    <path data-geo-id="3300708420" data-name="Cambridge" d="M1460,972l-1,-18 -1,-27 -2,-28 -1,-15 -1,-19v-5l-1,-16 -131,5 1,128 99,-3Z"/>
    <path data-geo-id="3300702420" data-name="Atkinson and Gilmanton Academy" d="M1427,471v-10v-3h-103l-13,70 33,6 4,-20 82,-5Z"/>
    <path data-geo-id="3300705140" data-name="Berlin" d="M1162,1083l-37,102h8l128,-5 78,-2 34,-100Z"/>
    <path data-geo-id="3300704260" data-name="Beans" d="M1479,1388v-10l-1,-9v-3l-1,-28 -1,-22h-132l-29,2 -13,35v35h-15l-20,53 27,2 26,1 17,2 25,2 38,3 23,-3h4l23,-2v-15v-12l-2,-20v-6v-5Z"/>
    <path data-geo-id="3300710100" data-name="Carroll" d="M1010,1300l-66,10 9,54 5,30 2,10 1,5v2l1,5v12l12,-2h4l1,-2 21,-5h3h2h3l17,-1 1,1 1,5v2h3h3l28,-7 1,4 3,1h2l3,2 1,2 7,3 5,2 2,1 8,17 4,7 13,25 8,-2 10,-3 -15,-19 -26,-51 15,-5 -13,-97 -76,14Z"/>
    <path data-geo-id="3300718340" data-name="Dixs" d="M1278,523l8,138 38,-3 20,-124 -33,-6Z"/>
    <path data-geo-id="3300314660" data-name="Conway" d="M1498,1845v-15v-6l-1,-20v-4l-2,-25v-25l-1,-6v-7v-5l-1,-23v-5v-2l-2,-5v-3l-1,-32 -8,-8 -69,2 -75,-2 3,25 7,40 15,78h26l9,50h18l-2,-50h29l3,48Z"/>
    <path data-geo-id="3300323620" data-name="Effingham" d="M1512,2153v-5l-1,-5v-7l-1,-5v-1v-5v-2v-3v-5v-7v-12l-1,-8 -2,-15v-5v-3v-4v-5l-1,-6 -2,-14v-5v-3v-7l-1,-3v-3l-84,-7 -45,65 109,87Z"/>
    <path data-geo-id="3300349380" data-name="Moultonborough" d="M1004,2051l8,9 1,1 2,2 9,8 6,9 1,1h2l2,4 5,5 2,1v2l3,2 11,13h2l1,2 3,3 4,5 2,2 1,1 3,2 8,8 9,9 2,1 2,2 3,3 7,7 1,2 2,1 2,2 4,3 18,18 8,9 11,8 28,28 3,4 35,-62 -24,-16 77,-107 -32,-5 -46,-10Z"/>
    <path data-geo-id="3300358740" data-name="Ossipee" d="M1236,2038l32,5 55,117h1l62,13 54,41 43,-54 -109,-87 45,-65 -18,-10 -9,27 -30,-7 -36,-51h-1l-1,-2 -5,2 -50,21Z"/>
    <path data-geo-id="3300323380" data-name="Eaton" d="M1500,1907v-4l-1,-8v-13l-1,-22v-2v-5v-6v-2h-52l-3,-48h-29l2,50h-18l10,70 10,18Z"/>
    <path data-geo-id="3301568260" data-name="Seabrook" d="M1582,3166h2h1h5h2h2l2,3 12,3 3,4 8,5h2l2,1 2,4 1,1 2,2 3,2 11,6 2,4 10,-7 5,-3 1,-2h2l4,-2 3,-1h4l3,-23 -3,-4 -10,-1 -3,5 -4,-5 -17,-10 -61,-5 2,8Z"/>
    <path data-geo-id="3301585780" data-name="Windham" d="M1162,3289v3v5l1,5h3l3,-1 2,1h1l2,5 1,2 4,8 14,4 11,3h7l26,8 45,-80 -6,-33 -83,10 -15,8v2l-1,10 -11,33Z"/>
    <path data-geo-id="3301539780" data-name="Kensington" d="M1518,3079l5,75 57,-3 -2,-8 -7,-69Z"/>
    <path data-geo-id="3301564020" data-name="Raymond" d="M1258,3006l-7,17 94,21 16,-46 18,-55 -77,-15 -16,-5Z"/>
    <path data-geo-id="3300903940" data-name="Bath" d="M526,1479l-1,2h-2l-3,2 3,3v2v3l-1,3 -2,2 -1,2 -2,1 -2,7v3v2l2,1 5,7 2,7 1,1 1,4v3l1,3 1,2 3,2 1,5h2h3l-1,5h3v1l1,2 115,53 -18,-111 -2,-13 -72,-39 -35,30Z"/>
    <path data-geo-id="3300908660" data-name="Campton" d="M804,2003l23,27h49h2l115,-19 -4,-28 -3,-21v-2l-9,-48 -97,13 -17,7 -34,-30 -3,1 3,34Z"/>
    <path data-geo-id="3300933860" data-name="Hanover" d="M353,2076l-56,52 -3,14 132,44 77,-106 -118,-37Z"/>
    <path data-geo-id="3300941300" data-name="Lebanon" d="M294,2142l-11,56 -3,10 -10,43 -2,7v1h2h2l51,10h4l53,10 46,-93Z"/>
    <path data-geo-id="3300512260" data-name="Chesterfield" d="M78,3106l-1,5v2l2,18 -6,3 -3,22 -5,7 -6,3 -8,37 72,6 82,8 40,-79 -19,-20Z"/>
    <path data-geo-id="3300582660" data-name="Westmoreland" d="M151,2997l3,9 1,2v3v3l-4,9h-1l-24,36 -6,-5 -3,2 -6,7 -12,3 -12,3h-3l-12,10v9l4,3 2,15 148,12 -13,-62 17,-3 4,-49Z"/>
    <path data-geo-id="3300922020" data-name="Easton" d="M742,1517l-36,117 57,30 21,-3 41,-110 -54,-24Z"/>
    <path data-geo-id="3300550580" data-name="Nelson" d="M403,3044l10,27 27,-7 72,5 1,-18 1,-13v-10v-9l1,-16v-2l-110,-6Z"/>
    <path data-geo-id="3300942580" data-name="Littleton" d="M792,1235l-6,3 -4,3 -4,2h-1h-4h-7h-2l-2,3 -2,2 -3,3 -1,2 1,10h-6l-4,2 -1,1v4l-1,1v4h1l2,1 -2,5 -2,2v2l1,1v2l1,2 2,10h-2l-3,1 -2,2h-3h-1h-1l-1,2h-2h-2l-5,3 -2,2h-1l-3,1 -7,5 -1,2h-1h-3h-1h-2h-2l-1,2h-1h-2v1h-2l-1,2h-2l-7,-3 -4,-2 -4,-3h-3h-1l-3,-5h-4l-5,-2h-1l-9,2h-2l-2,5 -4,1 -3,5 -7,4 -8,-4h-7h-2l-5,2h-3h-9l-3,-2h-4l-3,2h-1l50,26 62,30 62,25 89,-74 -5,-10 -23,-34 -2,-3 -8,-8 -5,-12 -8,-12 -2,-3 -7,-12Z"/>
    <path data-geo-id="3300962660" data-name="Plymouth" d="M778,2045l-1,51 20,9 21,48 69,-40 -16,-38 -8,-22 13,-23h-49l-23,-27Z"/>
    <path data-geo-id="3300978740" data-name="Warren" d="M609,1752l3,106v7l122,33 23,-83 9,-38 -29,-5Z"/>
    <path data-geo-id="3300944100" data-name="Lyman" d="M640,1349l-28,17 -49,78 72,39 67,-104Z"/>
    <path data-geo-id="3300942020" data-name="Lisbon" d="M635,1483l2,13 15,-8 62,21 50,-105 -62,-25Z"/>
    <path data-geo-id="3300958340" data-name="Orange" d="M567,2226l97,27 8,-19 -17,-40 24,-54 -43,-14 -15,14Z"/>
    <path data-geo-id="3300965940" data-name="Rumney" d="M659,2001l119,44 26,-42 25,-66 -95,-39Z"/>
    <path data-geo-id="3300944260" data-name="Lyme" d="M419,1913l2,4 -2,1 -2,2 -3,2h-2h-4l-4,6 -1,4 -1,1 4,12 1,13v4l-2,6 -1,19 1,3 -4,13 -14,27v1l-2,9v1v2l118,37 17,6 30,-128Z"/>
    <path data-geo-id="3300958500" data-name="Orford" d="M483,1807l-1,2 -2,1 -3,5 -1,2 -6,2 -4,13v3v2v15l-35,31 -3,10 -2,2 -10,10v2l3,6 131,45 58,-88 -7,-12 -117,-53Z"/>
    <path data-geo-id="3300976740" data-name="Thornton" d="M820,1840l6,63 3,-1 34,30 17,-7 97,-13v-5l-3,-19 -36,-104 -23,-69 -12,5 -50,135Z"/>
    <path data-geo-id="3300980500" data-name="Wentworth" d="M601,1858l7,12 -58,88 109,43 75,-103 -122,-33v-7Z"/>
    <path data-geo-id="3300979380" data-name="Waterville Valley" d="M938,1784l36,104 9,-1 29,-4 11,-1 11,-2 15,-2 18,-3h5l42,-8h4l6,-2 29,-5h3h4l-1,-8 -6,-40 -4,-28 -1,-7 -2,-17v-3l-1,-5 -1,-2Z"/>
    <path data-geo-id="3300987060" data-name="Woodstock" d="M737,1772l29,5 -9,38 63,25 33,15 50,-135 -119,-59 -21,3Z"/>
    <path data-geo-id="3300300420" data-name="Albany" d="M1140,1724v1l1,2v2l2,13 1,8 1,2 1,5v3l2,17 1,7 4,28 6,40 1,8 2,10 135,-23 40,-48 26,-2 -15,-78 -24,1h-144Z"/>
    <path data-geo-id="3300303700" data-name="Bartlett" d="M1148,1710l-8,14 40,-4h144l1,-40 16,-1 -3,-25 75,2 -11,-4 -2,-60 -57,-3 -42,-15 -88,3 -2,15 -2,17 -3,17 -12,8 5,30h-25Z"/>
    <path data-geo-id="3300327700" data-name="Freedom" d="M1503,2015v-2v-7v-8v-5l-1,-16v-7v-25l-1,-7v-3v-5l-1,-7v-5v-5v-3v-3l-82,28 -22,-2 -72,32 1,2h1l36,51 30,7 9,-27 18,10Z"/>
    <path data-geo-id="3300332500" data-name="Hale's" d="M1341,1679l-16,1 -1,40 24,-1Z"/>
    <path data-geo-id="3300334500" data-name="Hart's Location" d="M1100,1483l5,19 7,39 16,8 9,13 4,19 3,11 2,7v18l-5,9 7,20 2,6 24,12h25l-5,-30 -11,8 -7,-8v-40l-6,-25 -7,-25v-3l-15,-10 -11,-9 -7,-34 -2,-10 -10,3 -8,2Z"/>
    <path data-geo-id="3300338260" data-name="Jackson" d="M1211,1576l2,1 88,-3 42,15 57,3v-141l-38,-3 -25,-2 -17,-2 -26,-1 -27,-2h-6h-2l-5,10 -3,8 -5,17 -20,55Z"/>
    <path data-geo-id="3300311780" data-name="Chatham" d="M1490,1662l-2,-20v-1v-7v-2v-3v-12v-5v-3v-2l-1,-15 -1,-48v-3l-1,-15 -1,-32v-3v-3l-1,-15 -1,-15v-9v-5l-1,-8v-5v-3v-9l-1,-8v-3v-7l-1,-13h-31v5v6l2,20v12v15l-23,2h-4l-23,3v141l2,60 11,4 69,-2Z"/>
    <path data-geo-id="3300378180" data-name="Wakefield" d="M1531,2334h2h2h2l1,-2 1,-6 -1,-7 -2,-8 -1,-2v-1h-4l-3,-2v-2v-1l-1,-2 -2,-2h-1l-3,-1v-5l-1,-4v-5v-5v-5l-1,-5v-5v-3v-5v-2l-1,-3v-3v-7v-3v-2l-1,-5v-7v-6l-1,-7v-2v-3v-2l-1,-11 -1,-10v-2l-1,-15v-3l-1,-7v-3l-29,7 -43,54 -4,5 25,130 6,33 2,4v1l1,4v5l3,10v3l7,-8 2,-2 1,-2 14,-20 5,-6 23,-32 5,-5Z"/>
    <path data-geo-id="3300345060" data-name="Madison" d="M1363,1797l-26,2 -40,48 22,120 5,-2 72,-32 22,2 -10,-18 -10,-70 -9,-50Z"/>
    <path data-geo-id="3300367780" data-name="Sandwich" d="M974,1888l3,19v5l9,48v2l3,21 4,28h6l1,5v5l2,19 2,11 186,-23 -28,-158 -2,-10h-4h-3l-29,5 -6,2h-4l-42,8h-5l-18,3 -15,2 -11,2 -11,1 -29,4Z"/>
    <path data-geo-id="3300376100" data-name="Tamworth" d="M1162,1870l28,158 46,10 33,-50 50,-21 -22,-120Z"/>
    <path data-geo-id="3300377620" data-name="Tuftonboro" d="M1268,2043l-77,107 24,16 -35,62 3,1 1,2 1,2 1,1 1,2 17,13 15,14 14,13 30,-33 60,-83Z"/>
    <path data-geo-id="3301769940" data-name="Somersworth" d="M1648,2712v-7v-2v-1l-3,-2 -3,-2h-1l-2,-1h-1h-3l-1,1 -3,-1 -2,-2 -1,-5 -2,-2 -3,-3h-2l-2,-2 -3,-3v-2l-1,-3h-2h-2h-3l-1,-2 -2,-3v-3l-1,-2 -2,-1 -3,-2 -2,-3h-1h-2l-2,-2 -27,41 39,39Z"/>
    <path data-geo-id="3301765540" data-name="Rollinsford" d="M1666,2770v-2v-5v-3l2,-5 2,-7 2,-1 1,-2v-2v-1l1,-4 1,-1v-2l-1,-2 -1,-1 -1,-2 -2,-3v-5h-1l-1,-4 -9,-5h-5h-2h-2l-2,-1 -44,25 15,18Z"/>
    <path data-geo-id="3301748660" data-name="Milton" d="M1537,2374h1M1510,2539v-2v-3v-2v-2l-1,-5 4,-5v-5h-1l-1,-1 -1,-2v-2l3,-19v-2l2,-2h1h3l2,-1 1,-2 2,-2 1,-3v-2v-3v-3v-2h3l4,-2 1,-3v-3l-2,-4 -3,-1 -1,-7v-2l1,-3 2,-2v-1l1,-2 2,-7 1,-3 -2,-3 -1,-2 -3,-3h-4h-1v-2h-1l-3,-3 4,-2 2,-2v-1v-2v-2l-1,-1v-2l1,-2 2,-3 1,-3v-5l6,-4 1,-3v-3v-4l2,-3v-2v-5l1,-1v-4v-5h-2l-1,-8 -2,-3 -3,-4 1,-8h-1l-5,5 -23,32 -5,6 -14,20 -1,2 -2,2 -7,8 -56,75 89,63 4,-7Z"/>
    <path data-geo-id="3301726020" data-name="Farmington" d="M1415,2487l-66,85 81,72 76,-97 -89,-63Z"/>
    <path data-geo-id="3300740420" data-name="Lancaster" d="M962,1080l-9,7h-5v3v2l5,6 2,4 2,1 1,2 1,2 3,1v2l-1,3h-3l-3,-1h-2v3v2h-3v-2l-4,10 -2,2 -1,5 -3,1 -3,2h-3h-4l-7,3 -2,5 -1,2 -8,3 -3,-3 1,-3v-2l-11,13 1,2 2,2 2,1 -11,7 -7,25v1l29,39 78,-45 103,-20 -8,-75 -7,5 -27,15 -87,-43Z"/>
    <path data-geo-id="3300746020" data-name="Martins" d="M1277,1318l-5,35h30l13,-35Z"/>
    <path data-geo-id="3301911380" data-name="Charlestown" d="M197,2594l-2,4 7,21 3,5 -26,63 -4,3 -8,40 -9,65 -7,22h2h2h2l11,1 24,4 -8,-45 68,-14 -12,-66 16,-4 -20,-38 5,-41 4,-19Z"/>
    <path data-geo-id="3301931220" data-name="Grantham" d="M373,2402l66,25h30l18,-43 -16,-5 18,-28 -21,-9 -6,-3v-2l11,-18 -21,-8 -13,-7 -6,-3h-3l-16,-7 -17,29 -1,46Z"/>
    <path data-geo-id="3301718820" data-name="Dover" d="M1631,2853h1l12,9 10,1 3,-18 -1,-4 -2,-5v-3l1,-2 2,-4v-2l1,-3 1,-4 1,-1v-12l2,-3 1,-2 -1,-7 -2,-3v-5h-1v-2l1,-3h2l3,-2h1v-3v-2v-3l-47,-15 -15,-18 -39,-39 -22,39 -8,11Z"/>
    <path data-geo-id="3301703460" data-name="Barrington" d="M1448,2657l-73,108 5,3 2,2 2,3h1l1,2 1,2 49,40 10,6 2,5h3l24,20 26,-43 34,-57 8,-11Z"/>
    <path data-geo-id="3301719700" data-name="Durham" d="M1605,2919v-1l21,-13 -9,-40 14,-10 -95,-38 -18,103h1l4,-2h2l9,-2 1,-3 27,-3h3h2l13,1h4l8,2 7,3 2,2h1Z"/>
    <path data-geo-id="3301765140" data-name="Rochester" d="M1592,2657l-6,-5h-2v-2v-1l1,-2h1v-2h4h2h1l1,-1 -3,-4h-2v-1l-1,-2 -4,-2 -1,-3 -2,-2h-2l-1,-1 -2,-7h2v-2l-4,-5v-1l-1,-2v-2h-1l-2,2h-2v-2h-1l1,-1v-2l-3,-2 -4,-1v-5l-1,-2v-2l-1,-1h-2l-3,1h-1h-4h-1h-1h-3h-2l-2,2h-2l-2,-5 -1,-2v-1l-4,-2h-3l-1,-2 -2,-1v-2l2,-3 -4,1v-1v-5v-2l-5,-7 3,-3 -1,-3v-2l-1,-2 -4,-6 -2,-7h-1l-2,-2 -4,7 -76,97 18,13 95,80 22,-39Z"/>
    <path data-geo-id="3301747700" data-name="Middleton" d="M1393,2379l22,108 2,-3 56,-75v-3l-3,-10v-5l-1,-4v-1l-2,-4 -6,-33h-8l-5,7 -10,1 -4,-5 -12,20 -9,-1 -2,8 -5,-7 -4,7 -4,-7Z"/>
    <path data-geo-id="3301744820" data-name="Madbury" d="M1501,2805l34,-57 96,105h1l3,3 2,2 -2,-2 -4,-1 -95,-38Z"/>
    <path data-geo-id="3301741460" data-name="Lee" d="M1433,2921h1l24,-1h3h26h1h25h4h1l18,-103 -35,-12 -26,43 -30,52 -5,6 -5,10Z"/>
    <path data-geo-id="3301751220" data-name="New Durham" d="M1319,2372v5l2,10 2,15 4,35 1,2 21,133 66,-85 -22,-108 -3,-8 -3,-15 -1,-15v-5l-2,-8 -1,-9 -3,-13 -2,-10 -1,-2v2l-4,5 -1,2 -3,3 -10,13 -6,7v2l-8,9 -7,9v1l-9,10Z"/>
    <path data-geo-id="3300386420" data-name="Wolfeboro" d="M1323,2160l-60,83 -30,33 24,22 45,25 5,-2 4,-8h1l11,8 1,2 4,3 7,5 10,6 8,-9v-2l6,-7 10,-13 3,-3 1,-2 4,-5v-2l59,-75 4,-5 -54,-41 -62,-13Z"/>
    <path data-geo-id="3301916340" data-name="Croydon" d="M361,2397l-15,25 -23,-6 -2,68 133,38 11,-66 4,-29h-30l-66,-25Z"/>
    <path data-geo-id="3301900260" data-name="Acworth" d="M256,2693l-16,4 12,66 10,54 14,-2 8,-2h5h1l3,-1h7h6l6,-2h6l6,-2h3h2l4,-1 33,-5 -17,-122Z"/>
    <path data-geo-id="3301940900" data-name="Langdon" d="M168,2818v15v15l15,2h6h2l11,3h3h2h3l3,2h4h7v-5l-1,-4v-1l-1,-5v-4l-2,-13h2h4l9,2h10l17,-8 -10,-54 -68,14 8,45Z"/>
    <path data-geo-id="3301912900" data-name="Claremont" d="M193,2529l-5,8v22l2,3 20,3 -1,2h1l-3,5 -10,22 48,1 -4,19 17,-15 65,1 -2,-116 -116,-7Z"/>
    <path data-geo-id="3301915060" data-name="Cornish" d="M207,2363l-3,6 11,17h1l1,1 3,9v3v3v2l-1,8 -2,5 -1,2 -6,17v3v3v4v3l-1,5 -4,23 116,7 2,-68 23,6 15,-25 2,-25 -33,-16 -13,16Z"/>
    <path data-geo-id="3300307940" data-name="Brookfield" d="M1377,2294l1,2 2,10 3,13 1,9 2,8v5l1,15 3,15 3,8 5,-7 4,7 4,-7 5,7 2,-8 9,1 12,-20 4,5 10,-1 5,-7h8l-25,-130Z"/>
    <path data-geo-id="3301551380" data-name="Newfields" d="M1488,2958l-1,23 75,15 20,-40Z"/>
    <path data-geo-id="3300103220" data-name="Barnstead" d="M1236,2492l-60,92 25,20 2,1h1l1,2 12,8 3,2 6,5 4,3 44,34h1l2,3 3,2 6,-9 11,-15 14,-18 2,-5 30,-37 6,-8Z"/>
    <path data-geo-id="3300104740" data-name="Belmont" d="M1025,2387l-35,64 3,1 3,2 3,3h1l1,2 4,3 7,5 5,4 2,1 12,9 1,1 11,7 2,2 19,14 67,-91v-2l-50,-30 -48,-31Z"/>
    <path data-geo-id="3300128740" data-name="Gilford" d="M1079,2239l20,20 -8,45 -18,38 8,40 50,30v2l72,-37 -26,-153 -36,-11 -29,25Z"/>
    <path data-geo-id="3300101060" data-name="Alton" d="M1177,2224l26,153 15,72 33,25 -15,18 113,80 -21,-133 -1,-2 -4,-35 -2,-15 -2,-10v-5l10,-15 9,-10v-1l7,-9 -10,-6 -7,-5 -4,-3 -1,-2 -11,-8h-1l-4,8 -5,2 -45,-25 -24,-22 -14,-13 -15,-14 -17,-13 -1,-2 -1,-1 -1,-2 -1,-2 -3,-1Z"/>
    <path data-geo-id="3301557460" data-name="Nottingham" d="M1302,2928l77,15 7,-22h47l2,-5 5,-10 5,-6 30,-52 -24,-20h-3l-2,-5 -10,-6 -49,-40 -1,-2 -1,-2h-1l-2,-3 -2,-2 -27,45 -45,68 16,5Z"/>
    <path data-geo-id="3301551620" data-name="Newington" d="M1700,2896l-25,-21 -37,-5 -5,63 16,10 22,2 -6,-27ZM1644,2862l9,6 1,-5Z"/>
    <path data-geo-id="3301554580" data-name="North Hampton" d="M1702,3083l13,-22 -38,-23 -4,-17 -50,-5 -18,43v2Z"/>
    <path data-geo-id="3301552900" data-name="Newton" d="M1451,3237l5,-10 3,-5 2,-5 5,-5 4,-5 3,-3 8,-2 6,-1h1l10,-4h6l-13,-38h-11l-32,2 -19,45 -8,11Z"/>
    <path data-geo-id="3301552340" data-name="Newmarket" d="M1587,2947l18,-28 -3,-1h-1l-2,-2 -7,-3 -8,-2h-4l-13,-1h-2h-3l-27,3 -1,3 -9,2h-2l-4,2h-1h-1h-4h-25v38l94,-2 4,-8Z"/>
    <path data-geo-id="3301556820" data-name="Northwood" d="M1238,2747v1l22,44 93,21 27,-45 -5,-3 -7,-5 -8,-8h-2l-20,-19 -15,-11 -10,-7 -8,-10 -3,-2 -16,-13 -17,-15 -13,30h-1v2l-4,8v2l-2,5 -6,15h-1Z"/>
    <path data-geo-id="3300151540" data-name="New Hampton" d="M821,2273v1v2l4,3 2,2 4,3 3,4v3l-7,7 -1,3 1,2 -1,3 -1,2h-1v1h-1l1,4 5,8 2,2 6,1 1,5 2,3v4l2,3 1,2h1l58,-57 110,-108v-2l-31,4 -23,-33h-5l-9,1 -10,2h-5l-4,2h-4h-2h-3h-3l-4,1h-9l-2,2 -1,2 -2,3 -1,2 1,1 -1,18h-1l-2,4v1v9v1l1,4 1,3 2,5 -1,2 -1,1v4l-1,5 -1,1 -1,2h-1v2v1l3,5 3,5 -1,2 -2,2 -10,5v3v2l1,3v5l-11,5 -26,8 -1,-1 -2,-5h-9l-1,3 -1,2h-2h-3h-2h-1Z"/>
    <path data-geo-id="3300128980" data-name="Gilmanton" d="M1064,2505l10,7 3,2h1l2,1 25,19 3,1 6,5 3,2 18,13 5,4 11,6h2l23,19 60,-92 15,-18 -33,-25 -15,-72 -72,37Z"/>
    <path data-geo-id="3300140180" data-name="Laconia" d="M1079,2239l-18,-15 -38,35 -21,5 23,59 8,28 48,31 -8,-40 18,-38 8,-45Z"/>
    <path data-geo-id="3301562500" data-name="Plaistow" d="M1395,3257h2l5,2 4,2h2l10,3 18,5 4,2 2,1 3,-8 1,-5 2,-8 3,-10v-4l-30,-20 8,-11 -43,-25h-1l-10,21Z"/>
    <path data-geo-id="3301567620" data-name="Sandown" d="M1335,3076l-42,-7 4,59v10l68,18 -3,-80Z"/>
    <path data-geo-id="3301566660" data-name="Salem" d="M1274,3354l12,-4 8,-1 5,1 6,2h5l1,2h2l4,1h6l5,2 6,3 -2,-16v-4v-1l-1,-15v-2l-2,-15v-15l2,-1 1,-4 14,-16 2,-2 -24,-5 -14,-52 -34,7 6,33 -45,80 11,2h1h1l1,1h3h4l1,2h2l2,2Z"/>
    <path data-geo-id="3301566180" data-name="Rye" d="M1715,3061l54,-95 -16,-18 -6,-3 -44,59 -25,-6 3,15 -8,8 4,17Z"/>
    <path data-geo-id="3301562900" data-name="Portsmouth" d="M1748,2942l-13,-16 -35,-30 -35,22 6,27 7,53 25,6 44,-59Z"/>
    <path data-geo-id="3301574340" data-name="Stratham" d="M1562,2996l20,-40 4,-8 7,3 39,37 -9,28 -18,43v2v-2l-45,-30Z"/>
    <path data-geo-id="3301507220" data-name="Brentwood" d="M1426,2998l-6,78 76,2 -1,-12v-2l-4,-66Z"/>
  </g>
  <path class="mesh" transform="scale(0.1)" d="M1676,3163l-3,-4M522,2464h8l20,3h2h2l1,2 9,-5 1,-3 2,-5 2,-7 2,-3 8,-14 66,42 -12,23 23,17 21,48 27,-32 -35,-76 30,-13 -12,-25 -18,20 -33,-88 -4,5 -30,43 -2,5 -2,3 -2,2 -1,3 -16,23M720,2522l4,100 45,-23 56,116 53,-20 17,-8 -47,-78 -14,-44 -65,34M825,2715l-59,17 52,116h1l23,-5 3,-2 4,-1 30,-9 2,14 7,35 1,5 14,73 57,-10h1l19,-5h10l28,-5 6,-10 -62,-42v-28l-47,-37 -36,10M1067,2863l-1,5 103,28 18,-38 4,-8 2,-2 1,-2 1,-3 1,-3 2,-4 2,-6 4,-14 -70,-15M1039,2825l28,38 25,-2 19,-28 23,-32 -22,-3 13,-30 -56,-38 12,-17 -6,-6 -5,13 -12,22h-1l-4,6 4,19 -21,1 5,17 -1,30 -1,10 -26,-25 -65,33 -9,-17 -24,5M1024,2928l42,-60M895,2687l57,-29 -4,-33 -32,-15 -17,-46 1,-2 -3,-25M876,2547l-42,18M1430,510l-82,5 -4,20 -20,123 117,-9M1460,972l-38,2 -49,103v1l-34,100 1,15 130,-3M1324,658l-38,3 2,40 156,-7M793,1236l7,12 2,3 8,12 5,11 8,9 2,3 23,33 5,10 2,-3 7,-3 7,1 12,7 7,4 6,3 4,2 13,3 14,8 13,5 3,2 12,7 -9,-56 66,-10 -17,-114 -78,45 20,28 -73,65M1125,2768l39,-85 24,-25 -43,-31 -64,86M1204,2816l3,2 1,-3 19,-45 2,-2 7,-16 1,-2 1,-2v-1l4,-10h1l6,-15 2,-5v-2l4,-8v-2h1l-92,-22M939,2816l-61,-121M650,2762l5,8 4,12 29,61 1,5 15,32 43,-12 70,-20h1M766,2732l-86,21M952,2658l55,-28 5,10 64,-91 1,-35 -3,-2 -10,-6 -16,1 -148,55M207,2363l110,10 13,-17 33,17 -2,24 12,5 23,-33 1,-46 17,-29 -13,-6 -2,-2h-3l-5,-2 -4,-1 -3,-2 -2,-2h-2l-53,-10h-4l-51,-10h-2h-2M323,2600l-65,-1 -17,15 -5,41 20,38 93,-13 17,121h6l10,-1 26,-5h2h4l11,-2 27,-6 4,-82h-25l-9,-38 -73,13M453,2605l45,-11 3,-4v-3l1,-2h1l3,-6 18,-34 1,-3v-2l1,-15 1,-16 1,-7 -1,-1 -9,-14v-3l1,-5 1,-8 2,-7 -57,-8 -11,66M632,2353l-12,-2 -11,-2 -33,-6h-3l-8,-2 -55,-8 -2,-12 -19,30 -18,28 16,5 -18,43 -4,29M425,2793l-21,63 15,2h2h15l44,2h5h6h1l43,1 5,-18 3,-7 6,-15 -8,-30h3l18,-6M510,2700h17l4,33v4l12,21 4,5 4,5 11,17h4l5,-2h4l47,-15h5l23,-6 30,-9 -40,-88 -26,7 -104,28 -54,5M422,2667l-5,-37M504,1712l54,32 -3,-20 54,28 46,-145 -115,-53M771,1528l54,23 -41,110 119,59 12,-5 23,-5 57,40 40,-16 13,-34 -2,-44 39,-32 38,-17 3,-18 -27,-28 4,-23 -104,-39 -40,110 -134,-58M1655,3134l-5,-3 -32,-28 -2,-7 -23,-31 -22,9 7,69 61,5 17,10 5,5 2,-5M1024,2964l14,84 34,45 7,46 -1,10 11,17 1,3 2,12 2,13 1,4 4,19 4,32 11,2h18h9l11,13 6,8 2,2 5,7 1,1 11,-33 1,-10v-2l15,-8 -15,-128 -29,-8 1,10h-1h-2h-4l-3,3 -21,3h-3l-7,2h-2h-3h-3l-13,2 -4,1 -3,4h1v1v5l1,2v3l1,5 4,24v1l1,7M1582,3166l-2,-15 -56,3 -33,5 13,39M704,2530l16,-8 134,-60M819,2386l24,35 11,41 -5,49 27,36 21,-10 22,-28 -3,-47 7,-1v-2l-1,-2 -3,-8 -3,-7 3,-1 -2,-4v-3l-2,-5h4l-1,-3 -3,-7v-3l-9,-17 -9,3 -5,2v-3l-1,-2 -5,-3 -1,-2h-2l-7,-2 -2,-1 -5,-5 -1,-4 -1,-1 -3,-4 -3,-4 -3,-4v-1v-2l-39,20 -78,35 -42,20M1702,3083l-97,-22 -12,4M902,2284l123,39 -23,-59 21,-5 38,-34 18,14 33,-1 29,-25 36,12 -28,-29 -11,-8 -8,-8 -18,-19 -4,-3 -2,-2 -2,-2 -1,-1 -7,-7 -3,-3 -2,-2 -2,-2 -36,-3 -41,39v1l-110,108 -58,57 5,3 3,2 3,3 4,2 1,2 2,3 -1,2 -1,5 -1,1 -1,2M919,2429l22,-10 84,-32 8,-36 -8,-28M923,2461h2h1l1,1 1,4h1l2,1 4,-1h2l3,6 3,-1 1,-2h2v-2v-3l1,-2 4,2h2l8,-3 1,-2 8,-8h2h2l3,-4 2,-1h2v1h2l3,2h2l2,2 35,-64M1256,2705l13,-30 17,15 16,13 3,2 8,10 10,7 15,11 20,19h2l8,8 7,5 73,-108 -18,-13 -81,-72 -6,8 -30,37 -2,5 -14,18 -12,15 -5,8 -4,4 -3,5 -4,3M1075,2707l-46,-34 -17,-33M844,2341h-1l-1,-2 -2,-3v-3l-2,-4 -1,-5 -6,-1 -2,-2 -5,-8 -1,-4h1v-1l-1,-2 -1,-2 -1,-1 -4,-2h-4l-1,2h-2v1l-1,2 -5,-3h-1l-2,1h-1l-1,2h-2l-1,-2 -3,-1 -5,6 -3,4 -8,8 -2,-7 -2,-1h-5l-6,1 -6,4 -1,1 -1,2 -1,2h-5l-2,1 -5,5 -1,4 -8,35 9,53M740,2333l-2,-5 -6,-20 -8,-24 -4,-13 -3,-7 -5,-16 -14,15h-1l-2,3 -2,2 -4,6 -5,5 -4,4 -1,1 -20,29v1l-6,7 -9,15 -5,7 -3,5M351,3143l10,-24 -19,-21 25,-37 -27,-11 -3,-27 -43,13 -64,17 -17,3 13,62 19,20 -40,79 36,2 6,42 20,8 30,-12 48,4h1l14,-67 -9,-51 -106,-5M263,3377l-12,-91 16,-17M205,3217l-82,-8 21,161M346,3261l18,30 21,1 26,-26h33l-6,-45 -54,-10 -24,-17M123,3209l-72,-6M151,2997l83,8 1,-62 -11,-88h-7h-4l-3,-2h-3h-2h-3l-11,-3h-2h-6l-15,-2v-15v-15l-11,-2h-2h-2h-2M234,3005l-4,48M294,3036l-13,-95 -46,2M804,3079l-14,-73 -21,-30 -90,8 8,56 6,31 45,-6 12,23 -26,75 -18,13 23,22 86,-12 6,28 32,-13 -10,-18 -24,-25 -6,-32 -9,-47 -54,9M750,3397l-3,-22M735,3299l12,76 29,-5 -12,-78 -19,5 -10,2 -74,-3h-41l2,13 3,15v10l9,53v5M793,2303l9,-14 -38,-106 31,-17 11,12v2l-14,8 23,32 31,-14 28,24 15,-9 2,-1 -1,1h-1v2v2l3,5 3,4 -1,2 -2,2 -10,5v3v2l1,3v5l-11,5 -26,8 -1,-1 -2,-5h-9l-1,3 -1,2h-2h-3h-2h-1l-3,5v1v2l4,3 2,2 4,3 3,4v3l-7,7 -1,3 1,2 -1,3 -1,2h-1M640,1350l62,30 62,24M891,2220l1,-2 1,-5v-3l1,-2 1,-2 -2,-5 -1,-3 -1,-3v-2v-8v-2l2,-3h1l1,-19 -1,-2 1,-1 2,-4 1,-1 -10,-40 -70,40 -23,13M764,2183l-56,-20 8,-14 -37,-10 -24,56 17,39 -8,19 34,10M1041,476l180,35 57,12 33,5 13,-70 2,-19 -120,-23 2,10 -71,-6 -32,-14 -31,22 -12,25v8M1012,631l160,30 -8,43 -6,33 -76,12 -142,20M915,1230l-29,-39M1089,1306l13,97 47,-25 4,22 14,68 6,-10 -9,-47 -7,-36 -8,3M898,2153l2,-2h9l4,-2h3h3h2h4l4,-1h5l10,-2 9,-2h5l-3,-16 -52,-57 -32,4 17,38M967,1067l87,43 27,-15M1042,932l7,7 4,136 28,20 7,-5 9,-15 87,-50 15,-43 -8,-75 -82,3 2,12 -69,10 -63,2M1324,458h103M1018,551l186,33 17,-73M1158,737l28,15v-43l-22,-5M1164,1411l104,-23 3,-2 1,-33 5,-35h-13l-107,57M714,1509l-62,-21 -15,8 18,111M414,2294l16,7h3l6,3 13,7 21,8 -11,19v1l6,4 21,8M508,2321l46,-75M294,2142l132,44 -46,93M806,1428l193,71M1103,1538l9,3 -7,-38 -5,-20h10l-13,-25 -4,-7 -8,-17 -2,-1 -5,-2 -7,-3 -1,-2 -3,-2h-2l-3,-1 -1,-4 -28,7h-3h-3v-2l-1,-5 -1,-1 -17,1h-3h-2h-3l-21,5 -1,2h-4l-12,2 -1,-12v-5v-2l-1,-5 -2,-9 -5,-30M818,2153l-21,-49 -20,-8 -20,-6 -41,59M664,2253l-97,-27M520,2086l-17,-6 -77,106 128,60 13,-20 54,-87 15,-13 43,13M612,1858v7l122,33 -75,103M915,1715l23,69 206,-34 -1,-8 -2,-13v-2l-1,-2v-1l8,-14 25,-46 -23,-12 -2,-6 -7,-20 5,-9v-18l-2,-7 -3,-11 -4,-19 -9,-13 -16,-8M528,1474l35,-30 49,-78 28,-16 -50,-27M706,1634l36,-116M958,2144h1l19,-1 14,-2 21,-3 -1,-19 -1,-1v-2l-1,-10 -1,-10 -5,-45 -2,-11 -2,-19v-5l-1,-5h-6l-115,19h-2l-14,23 9,22M510,2700l-21,-78 -1,-8 10,-19v-1M958,2144l23,34 31,-3M1131,2414l72,-37 -26,-152 3,3 35,-62 -24,-17 77,-106 -32,-5 -46,-10 -186,23M1018,2938l6,26 16,-5h6l3,7v2v3l1,2v1h2l5,2 1,3 2,2 17,-12v2l1,3 1,5v4l1,5 1,3v3l1,6 1,1 5,2h2l10,2h1l32,10h3l-9,-34 -1,-5 -1,-2h4h7l13,-31 2,-4 2,-5 2,-3 14,-35 116,27 17,5 22,-42 -16,-5 45,-68 -93,-22 -22,-43M568,3128l-2,-10 -1,-4 -1,-16 -53,-2 1,-27 -72,-4 -27,6 8,38 1,14 18,70 137,5 -1,-15 -2,-7v-2l-2,-16 -2,-17 -1,-7 -1,-6 -146,-5M281,2941l61,-7 -16,-126h-2l-6,2h-6l-6,1h-6h-7l-3,2h-1h-5l-8,2 -14,1 -17,9h-10l-9,-2h-4h-2l2,13v4l1,5v1l1,4v5M337,3023l-9,-59 56,-8 5,-28 -47,6M440,3193l-2,28M444,3266l3,21 36,2 109,3 -8,-55 -1,-3 -1,-8 -1,-4 -4,-24M494,3387l-11,-98M364,3291l13,91M421,3109l-60,10M367,3061v-18l36,2 2,-51 2,-36 -23,-2M389,2928l15,-72M366,2801l-33,5 -4,2h-3M620,3296l-28,-4M405,2994l110,7M530,2921l8,-56v-4h-3M413,3071l-10,-26M1340,1193l4,123h132M1395,3257l-20,-54 -67,1 2,8 14,52 24,5M1136,3015l2,13 7,37v3l3,13v3l1,9M1178,3101l34,7 21,-110 -97,-24M1233,2998l25,8 27,-83M1524,3154l-6,-75 -14,-1 -34,25 4,23 6,33h11M1212,3108l85,20 -4,-59 42,7M1345,3045l-10,31h27l53,2 5,-2 6,-78h-65l-16,47 -94,-22 7,-17M1362,3076l3,80 40,2 8,-2 2,-78M1193,3229l83,-10 34,-7M1308,3204l-11,-66v-10M1426,2998h65l-4,-17 1,-23v-38h-1h-26h-3l-24,1h-1h-47l-7,22 -18,55M1491,2998l4,67v1l1,12h8M1518,3079l53,-5M1605,3061v-1l-45,-30 2,-34 -75,-15M1748,2942v2l5,4M1593,2951l39,37 -9,28 50,5 8,-8 -3,-15 -7,-54 -22,-1M1582,2956l4,-8M1375,3203l10,-22 20,-23M1365,3156l-68,-18M1385,3181l44,25 20,-45 31,-2M1496,3078l-76,-2M1273,3354l-10,-15 -2,-2h-2l-1,-1h-4h-3l-1,-2h-1h-1l-11,-2 -26,-8h-7l-11,-3 -14,-4 -4,-8 -2,-2 -1,-5h-1l-2,-1 -3,1h-3l-21,108M706,3176l-27,5 -8,40 4,23 -14,52M745,3297l-16,-99M913,3402l-11,-95 -2,-18 -46,3 1,27 -19,2 12,79M1038,3048l-112,15 8,40M970,3159l109,-20M624,3001l7,47 56,-8M679,2984l-27,-25M769,2976l-22,-108M704,2880l-51,13M903,2958l3,26 20,79M836,3321l-6,-37 -66,8M996,3404l17,-87 -30,-26 -2,-15M935,3284l-33,23M631,3048l3,33 -14,22 48,-7 11,85M1078,3149l-29,49 16,83 4,3 39,-3 -5,-32M1163,3302l-1,-5v-5v-3l4,-7M1069,3284l29,85 2,40M549,2821l37,87M565,3114l55,-11M514,3020l110,-19 10,-3 18,-39 1,-66 -67,15 -56,13 -7,38 -3,12 -1,10 -1,7 -1,3 -2,10v2l-1,17 -1,8v10v13l-1,18M983,3291l4,-5 8,-10 70,5M584,3237l87,-16M813,3126l91,-17M906,2984l-116,22M821,3214l9,70M880,3196l29,45 18,3 8,40 46,-8 -19,-117h8l-11,-60 -25,4 -30,6 2,64 -26,23 -27,5M614,2672l-56,-135 -33,3M558,2537l98,-23M1280,2663l-3,-1 -2,-4h-2l-43,-33 -4,-3 -6,-5 -3,-2 -12,-8 -1,-2h-1l-2,-1 -25,-20 -31,43M1393,2379l-3,-8 -3,-15 -1,-15 -1,-5 -1,-8 -1,-9 -3,-13 -2,-10 -1,-2v2l-4,5 -1,2 -3,3 -10,13 -6,7v2l-8,10 -7,8v2l-9,10 -10,15v4l2,10 2,15 4,35 1,2 21,133 -112,-80 -61,92 -23,-19h-2l-11,-6 -5,-4 -18,-13 -3,-2 -6,-5 -3,-1 -25,-19 -2,-1h-1M1286,661l-8,-138M1204,584l-10,57 -22,20M640,2665l72,-15 -35,-88M1186,709l102,-8 5,148h29l131,-5M1271,1386l16,2h15v-35h-30M1148,1531l15,10v3l7,25 6,25v40l7,8 11,-8 12,-8 3,-17h-8l-15,-78 -22,13h-1M1088,1090l8,75 9,55 31,11 -3,-46h-8l37,-102 22,-58M1082,749l27,161M1191,907l-1,-53 -4,-102M1190,854l103,-5M1268,1388l-19,31 2,40 3,-8 5,-10h2h6l20,-53M1136,1231l3,77 103,-4 22,14 -3,-138 -128,5M1010,1299l3,20 76,-13 50,2M1096,1165l-103,20M1162,1083l211,-5M1422,974l-99,3 -124,5M1277,1318h38l29,-2M1339,1178l-78,2M1153,1400l-40,59 15,19 2,10 7,35 11,8 19,-63M1323,977l-1,-128M1173,1458l15,-19 37,5 -27,45 -12,42M1209,1609l2,-17 2,-15 -2,-1 15,-45 20,-55 5,-17M1102,1403l-16,5 27,51M1311,528l33,7M1315,1318l-13,35M1267,1441l27,2 26,1 17,2 25,2 38,3 24,-3h3l23,-2v-15v-12l-1,-19v-7l-1,-5h31M1110,1483l8,-2 10,-3M1490,1662l-8,-8 -69,2 -75,-2 3,25 7,40 15,78h26l9,50h18l-2,-50h29l3,48h52M1503,2015l-84,-7 -45,65 109,86 29,-6M1268,2043l55,116h1l61,14 55,42 43,-56M1419,2008l-18,-10 -9,27 -30,-7 -36,-52h-1l-1,-1 -5,1 -50,22 -33,50M1398,1847l10,70 10,18 82,-28M1578,3143l2,8M1237,3332l45,-80 -6,-33M1379,2943l-77,-15M637,1496l-2,-13 -72,-39M829,1937l-25,66 23,27h49M993,2011l-4,-28 -3,-22v-1l-9,-48 -97,13 -17,7 -34,-30 -3,1M503,2080l-118,-37M226,3118l-148,-12M763,1664l21,-3M804,2003l-26,42M757,1815l-23,83 95,39 -3,-34 -6,-63 -63,-25 9,-38 -29,-5M635,1483l67,-103M550,1958l-30,128 116,40 23,-125 -109,-43 -131,-45M550,1958l58,-88 -7,-12M977,1912v-5l-3,-19 -36,-104M903,1720l-50,135 -33,-15M974,1888l9,-1 29,-4 11,-1 11,-2 15,-2 18,-3h5l42,-8h4l6,-2 29,-5h3h4l-1,-8 -6,-40 -4,-28 -1,-7 -2,-17v-3l-1,-5 -1,-2M1160,1860l1,10h1l135,-23 40,-48 26,-2M1348,1719l-24,1h-144l-40,4M1324,1720l1,-40 16,-1M1413,1656l-11,-4 -2,-60 -57,-3 -42,-15 -88,3M1194,1634l6,30h-27M1418,1935l-22,-2 -72,32M1400,1592v-141M1440,2215l-4,5 25,129 6,33 2,4v1l1,4v5l3,10v3l7,-8 2,-2 1,-2 14,-20 5,-6 23,-32 5,-5h1M1297,1847l22,119M1190,2028l-28,-158M1180,2228l3,2 1,1 1,2 1,1 1,2 17,13 15,14 14,13 30,-33 60,-84M1592,2657l-27,41 39,39 44,-25M1604,2737l15,18 47,15M1473,2409l-56,75 89,63 4,-7M1430,2644l76,-97M168,2818l24,3 -8,-44 69,-14 -13,-66 16,-4M241,2614l4,-19 -48,-1M373,2402l66,25h30M1644,2862l10,1M1565,2698l-22,39 -8,11 96,105h1M1375,2765l5,3 2,2 2,3h1l1,2 1,2 49,39 10,7 3,5h2l24,20 26,-43 34,-57M1543,2737l-95,-80M1631,2855l-95,-39 -18,104h1l5,-2h1l9,-2 2,-3 26,-3h3h2l13,1h4l8,2 7,3 2,2h1l3,1M1461,2349h-8l-5,7 -10,2 -4,-5 -12,20 -9,-2 -3,8 -4,-6 -4,6 -5,-6 -4,6 22,108M1536,2816l-35,-11M1488,2920h25h4h1M1475,2848l-30,52 -5,6 -5,10 -2,5M1233,2276l24,22 45,25 5,-2 4,-8h1l11,8 1,2 4,3 7,5 10,7M1377,2294l59,-74M253,2763l9,53M361,2397l-15,25 -23,-6 -2,68 2,116 94,30 36,-25 1,-83 -133,-38 -116,-7M1562,2996l20,-40 -94,2M990,2451l3,1 3,2 3,3h1l1,2 4,3 8,5 4,4 2,1 12,9 1,1 11,7 2,2 19,15 67,-92v-2l-50,-30 -48,-31M1079,2239l21,20 -9,45 -18,39 8,39M1203,2377l15,72 33,25 -14,18M1380,2768l-27,45M1671,2944l-6,-26 35,-22M1715,3061l-38,-23 -4,-17M1623,3016l-18,44M1429,3206l-8,11 30,20M1748,2944l-45,61 -25,-7M484,1805l117,53h11l-3,-106 128,20 26,-108 -57,-30 -51,-27M939,771l1,-2M853,1329l-89,75 -50,105 28,9 29,10 35,-100 -42,-24M777,2096l1,-51 -119,-44M1089,2139l-9,-8 -8,-8 -3,-2 -1,-2 -2,-1 -5,-5 -2,-4 -1,-1h-2l-11,-13 -3,-2v-2l-2,-1 -5,-5 -2,-4h-2l-1,-1 -6,-9 -9,-8 -2,-2 -1,-1 -8,-9M1587,2947l-1,1M1417,2484l-2,3 -66,85"/>
  <g class="cities">
    <circle r="3" cx="107.8" cy="303.2"/>
    <text x="107.8" y="303.2">Manchester</text>
    <circle r="3" cx="106.7" cy="332.6"/>
    <text x="106.7" y="332.6">Nashua</text>
    <circle r="3" cx="100.0" cy="276.2"/>
    <text x="100.0" y="276.2">Concord</text>
  </g>
</svg>