<?xml version="1.0" encoding="utf-8"?>
<!DOCTYPE svg PUBLIC "-//W3C//DTD SVG 1.1//EN" "http://www.w3.org/Graphics/SVG/1.1/DTD/svg11.dtd">
<svg version="1.1" xmlns="http://www.w3.org/2000/svg" width="182" height="350" viewBox="0 0 182 350">
  <g class="counties" transform="scale(0.1)">
    <path data-fips-int="33001" data-name="Belknap County" d="M1345,2338l-27,34 9,68 16,100 6,32 -70,90 -27,-21 -99,-74 -75,-52 -83,-61 -13,-8 -13,5 -8,9 -13,2 -7,10 -4,-6 -14,-5 -7,-19 3,-14 -7,-10 -6,-19 -14,5 -7,-10 -15,-8 -12,-18 4,-13 -6,-7 -13,-8 -7,-17 -12,-10 0,-4 11,-18 -14,-14 4,-10 18,-5 2,5 15,4 17,-14 6,0 -2,-12 13,-9 -5,-12 5,-20 -3,-20 5,-18 -2,-7 6,-9 11,1 60,-8 42,-5 -9,-86 62,66 22,20 49,48 88,84 30,27 23,6 10,1 11,17 8,0 4,-8Z"/>
    <path data-fips-int="33003" data-name="Carroll County" d="M1479,1387l4,101 8,183 1,33 7,164 0,14 3,79 1,56 6,71 3,55 4,68 4,86 14,11 5,16 -2,10 -7,0 -21,26 -35,49 -13,-59 -6,6 -21,-3 -16,26 -4,-7 -12,6 -5,-6 -4,7 -16,-84 -32,43 -34,-25 -4,8 -8,0 -11,-17 -10,-1 -23,-6 -30,-27 -88,-84 -49,-48 -22,-20 -62,-66 -5,-41 -6,1 -19,-124 48,-7 61,-8 77,-13 -20,-137 33,-59 -18,0 -14,-37 5,-8 0,-19 -10,-46 -24,-14 -11,-57 9,-1 18,-4 10,46 25,16 13,56 0,38 7,9 11,-8 11,0 8,-58 -2,-2 47,-133 9,-1 117,9 15,1 34,-4 17,0 0,-47 -2,-11Z"/>
    <path data-fips-int="33005" data-name="Cheshire County" d="M534,2861l4,0 -9,60 2,-1 -16,82 -4,94 52,1 7,51 22,146 28,2 10,61 4,36 -50,-2 -43,-2 -91,-4 -79,-3 -77,-3 -69,-4 -87,-4 2,-4 -15,-24 -3,-16 -13,-16 -6,-1 -15,12 4,-15 -1,-7 -24,-27 -4,-7 -4,-21 -2,-23 -7,-15 3,-37 11,-7 10,-11 0,-17 6,-10 -2,-31 -7,-9 13,-14 26,-7 10,-7 7,2 13,-16 -4,-9 6,-12 9,1 5,-13 -13,-12 -3,-12 2,-16 -7,-16 19,-19 11,-15 1,-7 -7,-22 7,-8 2,-11 -8,-13 0,-9 -10,-5 -4,-12 5,-16 17,2 0,31 56,5 -4,-32 43,3 -2,-10 77,-9 48,-8 39,-6 -16,42 -5,22 50,3Z"/>
    <path data-fips-int="33007" data-name="Coos County" d="M1479,1387l-31,2 2,11 0,47 -17,0 -34,4 -15,-1 -117,-9 -9,1 -47,133 2,2 -8,58 -11,0 -11,8 -7,-9 0,-38 -13,-56 -25,-16 -10,-46 -18,4 -26,-47 -24,-14 -33,6 -1,-10 -63,11 -10,-64 -91,-41 -9,5 -28,-41 -33,-52 20,5 6,-10 16,0 20,-10 11,-10 4,-11 11,-5 7,-8 5,-21 13,-6 -6,-9 11,-9 1,7 14,-12 16,-2 7,-19 15,-5 -15,-19 8,-6 9,-18 -8,-13 -14,-11 5,-9 31,-4 7,-5 -3,-12 6,3 9,-8 -1,-13 -21,-12 7,-4 0,-23 6,4 -3,-12 -11,-11 4,-6 -8,-11 -14,-4 -5,-17 5,-4 -12,-10 -1,-22 -26,-41 1,-11 -7,-12 4,-9 8,-4 20,-25 4,-7 12,-7 5,-8 2,-16 -5,-8 4,-10 10,-7 8,-14 -3,-14 7,-19 17,-9 17,-29 13,-13 2,-9 -20,-20 -3,-30 2,-18 -21,-24 9,-24 25,-8 17,8 4,-9 10,-6 -29,1 1,-17 5,-10 -1,-13 -10,-5 6,-10 2,-16 7,-4 9,-14 10,-3 3,-9 12,-16 1,-6 19,-18 1,-6 -8,-17 9,-15 2,-15 9,-24 14,-24 -5,-14 -34,-27 3,-4 14,6 20,-11 13,10 11,-15 13,-6 1,-8 -4,-11 23,-9 5,-8 20,-12 11,-13 10,-3 4,6 13,4 6,25 14,8 8,10 4,11 16,0 14,-4 14,15 16,-10 16,10 10,-4 12,-21 5,-15 8,-11 -2,-5 6,-17 16,-9 6,70 5,80 4,59 6,99 5,81 5,89 8,103 8,119 2,56 7,129 2,65 4,67 5,85 5,105Z"/>
    <path data-fips-int="33009" data-name="Grafton County" d="M1110,1482l-9,1 11,57 24,14 10,46 0,19 -5,8 14,37 18,0 -33,59 20,137 -77,13 -61,8 -48,7 19,124 6,-1 5,41 9,86 -42,5 -60,8 -11,-1 -6,9 2,7 -5,18 3,20 -5,20 5,12 -13,9 2,12 -6,0 -17,14 -15,-4 -2,-5 -18,5 -4,10 14,14 -11,18 -7,-8 -24,2 -16,18 -4,-9 -12,3 -20,13 -1,4 -29,-85 -39,47 -40,58 -55,-10 -67,-10 -2,-11 -20,30 -27,-12 13,-19 -94,-41 -67,-11 -44,-9 2,-4 -5,-19 7,-22 7,-4 6,-24 8,-13 0,-35 29,-46 7,-1 32,-19 13,-22 13,-13 -1,-11 10,-11 8,-21 -3,-17 5,-16 -4,-27 5,-12 13,-5 -5,-11 3,-10 9,-1 3,-11 23,-21 7,-2 6,-10 0,-29 7,-4 17,-25 -20,-6 2,-18 -5,-11 11,-10 -1,-13 9,-3 3,-13 10,4 7,-14 -3,-13 15,-9 -6,-8 10,-1 8,-15 -3,-10 19,-2 -12,-10 11,-6 1,-12 -7,-4 -5,9 -5,-1 -5,-17 2,-12 18,-14 -8,-7 -1,-17 4,-8 -13,-14 -4,-16 -7,-12 6,-15 -1,-11 7,-9 -1,-12 6,-16 -13,-28 1,-12 -5,-6 7,-15 20,-14 3,-6 1,-23 21,-2 21,-12 5,-8 12,2 15,-4 12,5 9,-3 13,-12 8,-2 23,12 4,6 20,-8 18,-11 15,-4 5,-6 -3,-13 1,-17 11,-2 1,-14 8,-8 13,1 13,-8 33,52 28,41 9,-5 91,41 10,64 63,-11 1,10 33,-6 24,14Z"/>
    <path data-fips-int="33011" data-name="Hillsborough County" d="M1136,3015l15,88 -70,12 23,135 38,1 23,30 -4,5 3,16 10,0 2,14 36,10 48,11 14,16 -21,22 -10,19 -14,18 -34,0 -103,-4 -26,0 -31,-2 -49,-1 -84,-2 -86,-4 -35,0 -147,-6 -4,-36 -10,-61 -28,-2 -22,-146 -7,-51 -52,-1 4,-94 16,-82 -2,1 9,-60 -4,0 14,-40 -12,-29 26,-6 89,-25 52,118 53,-14 36,-8 87,-25 15,74 9,52 115,-20 5,27 23,-4 5,13 9,8 3,-6 14,-6 5,30Z"/>
    <path data-fips-int="33013" data-name="Merrimack County" d="M824,2309l0,4 12,10 7,17 13,8 6,7 -4,13 12,18 15,8 7,10 14,-5 6,19 7,10 -3,14 7,19 14,5 4,6 7,-10 13,-2 8,-9 13,-5 13,8 83,61 75,52 99,74 27,21 -10,14 -18,40 -44,103 -3,0 -10,26 -29,59 -12,32 -19,41 -9,-3 11,41 -54,-15 -5,-30 -14,6 -3,6 -9,-8 -5,-13 -23,4 -5,-27 -115,20 -9,-52 -15,-74 -87,25 -36,8 -53,14 -52,-118 -89,25 -30,-44 -3,-42 -19,0 -22,-86 36,-69 2,-13 2,-31 -10,-14 4,-23 39,5 11,-26 31,-48 29,-43 40,-58 39,-47 29,85 1,-4 20,-13 12,-3 4,9 16,-18 24,-2Z"/>
    <path data-fips-int="33019" data-name="Sullivan County" d="M632,2352l-29,43 -31,48 -11,26 -39,-5 -4,23 10,14 -2,31 -2,13 -36,69 22,86 19,0 3,42 30,44 -26,6 12,29 -14,40 -80,-1 -50,-3 5,-22 16,-42 -39,6 -48,8 -77,9 2,10 -43,-3 4,32 -56,-5 0,-31 -17,-2 1,-14 7,-13 -5,-13 10,-11 -1,-18 5,-22 -3,-24 3,-7 12,-7 12,-22 8,-29 6,-13 -14,-23 19,-34 -16,-2 -7,-6 1,-25 9,-9 9,-59 4,-19 -1,-11 10,-25 -2,-23 -14,-20 16,-28 0,-30 2,-15 7,-10 22,-10 18,-16 44,9 67,11 94,41 -13,19 27,12 20,-30 2,11 67,10Z"/>
    <path data-fips-int="33015" data-name="Rockingham County" d="M1765,2928l4,20 -16,-2 5,-9 -3,-8ZM1604,2918l-9,2 -9,10 0,7 -11,0 7,8 -3,7 5,5 6,-6 13,1 4,-4 20,0 7,10 14,5 -4,-5 10,-2 2,-8 -6,-12 -7,-2 0,-8 -11,7 -2,-15 5,-13 0,-23 4,-11 6,9 8,-5 9,3 13,-4 16,17 15,12 11,2 6,14 11,7 4,8 -6,4 13,5 -2,7 8,-2 -3,12 13,-6 5,14 -3,10 -12,12 -3,16 -6,2 -8,24 -13,12 -5,24 -9,10 -7,15 -6,5 -5,21 5,9 -11,1 -4,11 0,15 -6,-2 0,-10 -8,-12 -10,3 8,7 -7,12 4,12 -6,6 23,-10 -5,25 -29,14 -35,-27 -16,-5 -20,1 -8,4 -30,18 -61,13 -12,13 -10,24 -9,31 -63,-20 -32,18 -18,22 4,67 -39,-11 -20,5 -14,-16 -48,-11 -36,-10 -2,-14 -10,0 -3,-16 4,-5 -23,-30 -38,-1 -23,-135 70,-12 -15,-88 -11,-41 9,3 19,-41 12,-32 29,-59 10,-26 3,0 44,-103 18,-40 45,38 67,57 93,78 -38,65 -3,6 86,-1 42,-10 36,7Z"/>
    <path data-fips-int="33017" data-name="Strafford County" d="M1530,2334l0,9 8,15 0,16 -14,30 2,8 -7,4 10,5 4,9 -6,16 5,15 -7,11 -1,11 -10,5 -5,22 4,11 -5,6 13,34 2,20 14,11 0,5 14,-3 11,1 0,9 11,6 6,10 -1,10 16,14 -10,5 20,16 3,11 8,0 14,18 16,6 4,14 8,-2 10,6 9,18 -6,11 -4,30 -7,4 4,18 -9,36 4,17 -4,1 3,18 -13,-11 0,-25 -4,-4 2,18 -10,4 4,4 -19,8 -3,-6 -9,-2 5,10 10,2 3,10 -3,11 5,15 -12,-2 -1,11 -8,4 -7,-2 -36,-7 -42,10 -86,1 3,-6 38,-65 -93,-78 -67,-57 -45,-38 10,-14 70,-90 -6,-32 -16,-100 -9,-68 27,-34 32,-43 16,84 4,-7 5,6 12,-6 4,7 16,-26 21,3 6,-6 13,59 35,-49Z"/>
  </g>
  <g class="cities">
    <circle r="3" cx="107.8" cy="303.3"/>
    <text x="107.8" y="303.3">Manchester</text>
    <circle r="3" cx="106.6" cy="332.6"/>
    <text x="106.6" y="332.6">Nashua</text>
    <circle r="3" cx="100.0" cy="276.2"/>
    <text x="100.0" y="276.2">Concord</text>
  </g>
</svg>