<?xml version="1.0" encoding="utf-8"?>
<!DOCTYPE svg PUBLIC "-//W3C//DTD SVG 1.1//EN" "http://www.w3.org/Graphics/SVG/1.1/DTD/svg11.dtd">
<svg version="1.1" xmlns="http://www.w3.org/2000/svg" width="183" height="350" viewBox="0 0 183 350">
  <defs>
    <pattern id="pattern-no-results" width="50" height="50" patternUnits="userSpaceOnUse">
      <rect width="50" height="50" fill="#ddd"/>
      <path d="M-5,5L5,-5M-5,55L55,-5M45,55L55,45" stroke-width="10" stroke="#666666"/>
    </pattern>
  </defs>
  <g class="counties" transform="scale(0.1)">
    <path data-fips-int="34003" data-name="Bergen County" d="M1690,842l-26,-30 -62,38 -18,47 -56,-33 19,-48 14,-55 -33,-112 6,-31 -84,-20 -53,-52 60,-160 323,185 -41,161Z"/>
    <path data-fips-int="34005" data-name="Burlington County" d="M1074,1752l36,83 114,283 59,136 0,243 -25,48 -3,5 -44,14 -124,-70 -50,-38 -34,0 -5,-57 -25,-40 -55,-45 -77,-75 -99,-8 -30,-133 -45,-70 -41,-10 2,-45 -44,-16 132,-110 72,-18 37,-57 45,7 61,-37 13,-47 32,7 61,48Z"/>
    <path data-fips-int="34007" data-name="Camden County" d="M918,2314l-150,167 -28,-35 -4,-44 -36,-45 -39,-6 -46,-38 3,-20 -45,-54 -20,-79 -51,-59 4,-98 21,3 57,-49 44,16 -2,45 41,10 45,70 30,133 99,8Z"/>
    <path data-fips-int="34009" data-name="Cape May County" d="M1003,2918l40,5 -10,48 73,-63 0,23 -51,39 -71,101 -39,77 5,26 -70,98 11,-38 -53,37 -28,43 54,0 -90,78 -38,17 -69,-12 27,-115 58,-123 5,-63 -29,-27 -11,-55 30,-23 15,-95 24,-25 36,25 79,15Z"/>
    <path data-fips-int="34013" data-name="Essex County" d="M1399,712l148,104 -19,48 -14,70 46,1 -5,45 -39,20 -42,0 -23,-28 -60,-18 -51,5 -44,-29 8,-83 27,-20 15,-81 -14,-35Z"/>
    <path data-fips-int="34015" data-name="Gloucester County" d="M768,2481l-113,128 -81,-74 -145,-136 -134,-35 -52,-50 -52,-78 112,-75 40,2 159,-62 51,59 20,79 45,54 -3,20 46,38 39,6 36,45 4,44Z"/>
    <path data-fips-int="34017" data-name="Hudson County" d="M1690,842l-32,63 -11,69 -33,11 -2,47 -80,20 45,-77 -17,-40 -46,-1 14,-70 56,33 18,-47 62,-38Z"/>
    <path data-fips-int="34019" data-name="Hunterdon County" d="M929,959l3,104 20,29 -10,53 -67,110 -22,-17 52,125 -62,10 6,43 -70,10 14,42 -91,8 -24,-80 -68,-8 -32,-24 -7,-166 -38,-36 -66,9 -22,-39 47,-52 34,-10 67,-58 84,-42 81,-106 69,63 58,8Z"/>
    <path data-fips-int="34021" data-name="Mercer County" d="M1040,1431l-3,68 73,47 74,23 -2,25 1,18 -61,34 -23,39 -52,9 27,58 -37,-2 -61,-48 -32,-7 -13,47 -53,-96 -69,-44 -27,-60 -80,-66 91,-8 -14,-42 70,-10 -6,-43 62,-10 28,65 78,-20Z"/>
    <path data-fips-int="34023" data-name="Middlesex County" d="M1467,1127l-12,49 -37,10 -11,72 -36,-17 43,65 39,19 -26,21 -3,42 -135,141 -12,28 -70,42 -25,-5 2,-25 -74,-23 -73,-47 3,-68 34,-28 3,-34 58,-33 72,-65 -70,-90 11,-33 55,-25 165,-15 12,24 83,-17Z"/>
    <path data-fips-int="34025" data-name="Monmouth County" d="M1588,1772l-8,-17 -48,52 -87,-15 -41,-82 -141,-3 -124,112 -29,16 -36,-83 -27,-58 52,-9 23,-39 61,-34 -1,-18 25,5 70,-42 12,-28 135,-141 3,-42 26,-21 90,-9 68,40 76,22 -4,26 -57,29 82,-14 -48,79 49,-19 0,-141 7,93 -4,91 -60,277 -38,13Z"/>
    <path data-fips-int="34027" data-name="Morris County" d="M1399,712l-67,-1 14,35 -15,81 -27,20 -8,83 -92,88 -67,32 9,-70 -44,-75 -173,54 -44,-24 -58,-8 -69,-63 41,-22 50,-81 -5,-29 41,-38 21,-12 40,29 59,-30 14,-63 140,-163 1,61 57,-20 60,60 92,17 23,61 -12,35Z"/>
    <path data-fips-int="34031" data-name="Passaic County" d="M1547,816l-148,-104 -19,-43 12,-35 -23,-61 -92,-17 -60,-60 -57,20 -1,-61 142,-158 156,89 -60,160 53,52 84,20 -6,31 33,112Z"/>
    <path data-fips-int="34035" data-name="Somerset County" d="M1146,980l-9,70 67,-32 10,29 46,-19 -18,67 -39,28 -55,25 -11,33 70,90 -72,65 -58,33 -3,34 -34,28 -29,-23 -78,20 -28,-65 -52,-125 22,17 67,-110 10,-53 -20,-29 -3,-104 173,-54Z"/>
    <path data-fips-int="34037" data-name="Sussex County" d="M1301,297l-142,158 -140,163 -14,63 -59,30 -40,-29 -21,12 -205,-251 -12,-22 55,-35 44,-59 15,-67 39,-85 76,-71 82,-9 158,95Z"/>
    <path data-fips-int="34039" data-name="Union County" d="M1516,1000l22,18 -60,47 -11,62 -4,-12 -83,17 -12,-24 -165,15 39,-28 18,-67 -46,19 -10,-29 92,-88 44,29 51,-5 60,18 23,28Z"/>
    <path data-fips-int="34041" data-name="Warren County" d="M885,694l-41,38 5,29 -50,81 -41,22 -81,106 -84,42 -67,58 -34,10 -47,52 -10,-80 25,-32 -28,-25 23,-55 -15,-28 25,-37 41,5 50,-64 -12,-34 32,0 17,-33 -88,-145 6,-21 108,-65 13,-37 48,-38Z"/>
    <path data-fips-int="34001" data-name="Atlantic County" d="M1264,2765l25,-47 60,-6 -79,90ZM1303,2710l8,-58 46,-22 8,58ZM1255,2550l26,157 -10,30 -47,-50 -47,78 34,3 53,47 -117,66 9,-33 48,-26 -53,-37 -19,101 -88,14 -42,-20 1,38 -102,-7 -79,-15 -36,-25 4,-138 -135,-124 113,-128 150,-167 55,45 25,40 5,57 34,0 50,38 124,70Z"/>
    <path data-fips-int="34011" data-name="Cumberland County" d="M250,2840l-43,-53 -6,-2 -4,-5 2,-90 44,0 34,-50 28,-3 81,-90 164,140 11,-120 13,-32 81,74 135,124 -4,138 -24,25 -15,95 -30,23 11,55 -121,-21 6,-42 -91,17 -32,45 -31,-32 -9,-56 -71,-47 -9,-32 -66,-13 -11,-42Z"/>
    <path data-fips-int="34029" data-name="Ocean County" d="M1569,2274l24,-1 -151,279 -15,-3 55,-78 26,-65 38,-47ZM1588,1772l0,27 61,25 -39,247 -18,188 5,-173 17,-144 26,-92 -40,75 -61,20 37,32 4,59 -19,25 -19,100 -41,63 -15,69 35,10 -28,84 -30,44 -34,-2 -11,55 -22,-12 -58,70 42,33 0,32 -37,2 6,-32 -70,-2 -21,-30 25,-48 0,-243 -59,-136 -114,-283 29,-16 124,-112 141,3 41,82 87,15 48,-52Z"/>
    <path data-fips-int="34033" data-name="Salem County" d="M574,2535l-13,32 -11,120 -164,-140 -81,90 -28,3 -34,50 -44,0 -2,90 -51,-70 -75,-30 10,-43 -7,-68 32,-40 -55,-50 0,-38 84,-109 20,-66 36,-30 52,78 52,50 134,35Z"/>
  </g>
  <g class="cities">
    <circle r="3" cx="150.5" cy="93.4"/>
    <text x="150.5" y="93.4">Newark</text>
    <circle r="3" cx="160.3" cy="94.4"/>
    <text x="160.3" y="94.4">Jersey City</text>
    <circle r="3" cx="150.3" cy="68.6"/>
    <text x="150.3" y="68.6">Paterson</text>
  </g>
</svg>