<?xml version="1.0" encoding="utf-8"?>
<!DOCTYPE svg PUBLIC "-//W3C//DTD SVG 1.1//EN" "http://www.w3.org/Graphics/SVG/1.1/DTD/svg11.dtd">
<svg version="1.1" xmlns="http://www.w3.org/2000/svg" width="183" height="350" viewBox="0 0 183 350">
  <defs>
    <pattern id="pattern-no-results" width="50" height="50" patternUnits="userSpaceOnUse">
      <rect width="50" height="50" fill="#ddd"/>
      <path d="M-5,5L5,-5M-5,55L55,-5M45,55L55,45" stroke-width="10" stroke="#666666"/>
    </pattern>
  </defs>
  <g class="counties" transform="scale(0.1)">
    <path data-fips-int="34003" data-name="Bergen County" d="M1689,843l0,-7 -20,-13 -5,-11 -20,21 -25,4 -11,12 -6,1 -13,28 2,11 -9,7 -5,-18 -8,-2 -9,10 -13,-5 0,-5 -18,-12 9,-17 -1,-8 2,-18 8,-3 6,-3 3,-15 -3,-10 5,-27 12,4 -8,-24 -16,-17 1,-10 -5,-8 1,-19 3,-10 -10,-4 0,-14 -9,-11 8,-33 -32,-23 0,8 -56,-6 -24,-14 -17,-27 -9,-8 22,-56 39,-104 134,76 146,82 42,26 1,6 -8,35 -13,45 -6,35 -17,48 -13,31 -11,19 -3,19 -6,18Z"/>
    <path data-fips-int="34005" data-name="Burlington County" d="M1074,1754l36,82 26,58 18,50 66,162 40,95 23,54 0,242 -10,32 -20,6 5,10 -3,6 -9,5 -10,-3 -4,5 6,9 -4,6 -10,-12 4,-9 -10,-1 -5,14 -8,-14 -11,8 -11,-10 -8,3 -11,-17 -14,-7 -8,6 -2,-9 -24,-18 -5,-11 -24,-1 -9,-10 -3,-8 -36,-21 -9,9 -5,-11 -19,2 -7,-8 2,-18 -2,-26 -7,-24 -10,-13 -64,-52 -23,-20 -15,-9 -20,-29 -18,-17 -30,-9 -15,2 -27,10 -20,-3 -8,-11 -24,-112 -6,-19 -20,-19 -4,-15 -8,-11 -12,-2 -10,-7 9,-15 -4,-4 -15,2 -21,-8 0,-16 -7,-16 6,-16 -7,-12 -17,-10 -18,7 -5,-3 6,-16 8,-8 17,-8 13,-4 18,-13 31,-30 34,-22 17,-6 13,2 39,-16 11,-2 9,-15 11,-5 9,-10 8,-24 6,-7 39,10 22,-17 23,-3 18,-17 3,1 15,-20 2,-8 -7,-19 10,-3 4,6 18,3 7,10 -4,5 15,0 10,11 14,3 11,10 7,-2 2,11 20,6Z"/>
    <path data-fips-int="34007" data-name="Camden County" d="M530,1997l-11,-2 16,-11 12,-1ZM918,2315l-89,99 -60,67 -15,-13 -1,-10 -8,-6 -7,-16 -4,-16 -1,-21 -16,-27 -16,-14 -10,-1 -8,-6 -21,-1 -15,-9 -1,-9 -31,-19 4,-7 -2,-14 -9,-7 -19,-28 0,-10 -7,-7 -9,-1 -9,6 -2,8 -4,-9 -10,1 6,-16 9,-2 -3,-6 3,-8 -12,-12 -4,-12 6,-9 -4,-15 2,-8 -34,-32 -1,7 -15,-30 -2,-4 10,-24 2,-10 -7,-21 -2,-29 9,-14 11,2 3,8 15,-17 19,-6 9,0 -6,-10 14,-10 8,-11 18,-7 17,10 7,12 -6,16 7,16 0,16 21,8 15,-2 4,4 -9,15 10,7 12,2 8,11 4,15 20,19 6,19 24,112 8,11 20,3 27,-10 15,-2 30,9 18,17 20,29 15,9Z"/>
    <path data-fips-int="34009" data-name="Cape May County" d="M1087,2910l-19,1 1,-8 12,-2ZM1003,2918l22,-4 14,6 7,9 -6,1 -9,20 -1,19 7,-7 15,-8 -1,-4 10,-8 18,-10 28,-25 6,12 -8,12 -20,11 -19,17 -20,22 -23,33 -13,10 -16,18 -11,-1 -2,10 19,-5 10,-18 2,11 -11,10 -24,36 -19,34 -13,29 -4,-24 -7,0 4,12 -8,17 -8,0 -2,10 19,-9 13,13 -2,8 -33,35 -10,19 -36,56 -4,3 1,-14 15,-24 4,-16 -18,21 -1,10 -10,10 -8,-3 9,-12 -18,-2 7,8 -14,10 1,8 -7,0 -9,14 -17,-9 -4,3 -5,14 17,8 4,9 2,-15 16,5 8,-2 -3,-9 10,-15 -8,-3 1,-11 14,7 10,34 -6,12 -24,14 -34,33 -18,24 -10,-19 17,-17 -3,-10 -18,2 -2,10 6,9 -6,6 -23,1 -3,10 27,-6 7,8 -9,2 -32,16 -17,3 -13,-3 -24,0 -7,-2 -5,-10 9,-32 -1,-6 10,-46 5,-19 34,-69 19,-36 8,-30 4,-36 4,-6 -1,-18 -5,-5 -8,-19 -17,-4 0,-14 -10,-10 2,-13 -3,-18 3,-9 27,-14 16,-99 22,-23 1,6 24,6 14,14 26,-5 8,5 9,-3 23,14 7,-3 4,5 16,-4 11,3 7,-4 5,10 12,-4 5,7 20,-6 5,-5 4,11 2,-10 12,-1Z"/>
    <path data-fips-int="34013" data-name="Essex County" d="M1399,712l8,14 6,6 20,4 114,82 -8,3 -2,18 1,8 -9,17 -1,9 -15,27 -3,16 6,19 14,0 10,-9 16,-2 4,10 -5,30 3,10 -22,32 -19,-6 -10,-2 -33,3 -9,-5 -4,-14 -9,-9 -36,-8 -30,-12 -20,12 -12,-8 -9,3 -17,-10 -17,-15 -14,-5 12,-16 -11,-18 0,-19 3,-4 1,-19 16,-19 1,-6 12,-2 6,-11 -3,-7 7,-6 3,-16 -5,-8 5,-11 10,-7 -3,-7 -8,2 4,-12 -18,-6 1,-21 8,-19 12,0 1,7 28,-3 -1,6 8,6Z"/>
    <path data-fips-int="34015" data-name="Gloucester County" d="M769,2481l-99,110 -15,18 -25,-24 -56,-50 -73,-69 -51,-46 -21,-21 -21,7 -30,-4 -4,-16 -17,-8 -20,3 -8,-9 -12,-4 -22,-2 -10,-18 -11,-2 -3,-8 -11,-3 -7,-12 -11,-8 2,-17 -4,-11 -7,2 -7,-6 2,-13 -14,-1 5,-24 -9,-12 -20,4 31,-20 8,2 2,-6 13,-9 -5,-7 9,-7 12,-1 5,-6 15,-4 23,-17 26,-6 14,6 15,-2 0,-5 35,-9 11,-2 25,-18 6,4 5,-12 14,-8 28,2 19,-10 15,30 1,-7 34,32 -2,8 4,15 -6,9 4,12 12,12 -3,8 3,6 -9,2 -6,16 10,-1 4,9 2,-8 9,-6 9,1 7,7 0,10 19,28 9,7 2,14 -4,7 31,19 1,9 15,9 21,1 8,6 10,1 16,14 16,27 1,21 4,16 7,16 8,6 1,10Z"/>
    <path data-fips-int="34017" data-name="Hudson County" d="M1689,843l-7,22 -15,21 -9,20 1,13 -7,17 1,12 -6,25 -8,2 -9,13 -9,2 -7,-5 -9,29 11,8 -2,5 -27,-13 0,4 25,13 -2,4 -19,-9 -17,-2 14,9 5,13 -8,5 -18,-2 -13,8 -22,2 0,-7 29,-39 8,-23 8,-14 -4,0 -1,-10 10,-8 1,-18 14,-14 -13,4 -11,25 -9,3 -5,-6 1,-18 -4,-10 -16,2 -10,9 -14,0 -6,-19 3,-16 15,-27 1,-9 18,12 0,5 13,5 9,-10 8,2 5,18 9,-7 -2,-11 13,-28 6,-1 11,-12 25,-4 20,-21 5,11 20,13Z"/>
    <path data-fips-int="34019" data-name="Hunterdon County" d="M930,958l4,6 5,20 -8,18 6,4 -7,21 -6,4 3,10 8,6 -5,8 0,23 12,1 2,8 9,6 -11,12 -8,14 -3,18 11,6 -12,25 -19,18 -33,67 -24,-15 52,125 -63,10 7,43 -71,10 14,42 -80,10 -11,-3 -4,-21 -9,-31 -12,-25 -23,-15 -15,0 -23,7 -23,-15 -9,-3 -6,-7 -8,-53 5,-12 4,-19 -4,-31 0,-27 -2,-22 -10,-9 -23,-27 -19,-7 -22,-3 -32,16 -9,-1 -11,-9 -6,-14 5,-16 16,-9 1,-7 11,-10 1,-9 15,-5 0,-8 22,-10 19,-6 4,-8 8,-4 7,-10 11,-6 5,-8 13,-5 14,-14 6,1 26,-21 17,0 11,-12 11,-4 1,-6 12,0 10,-20 38,-44 10,-14 10,-6 -1,-13 15,-9 47,40 21,22 16,2 11,-2 47,16 11,9Z"/>
    <path data-fips-int="34021" data-name="Mercer County" d="M1040,1431l-5,13 -6,36 7,5 1,13 15,5 9,9 14,2 6,14 22,10 5,7 13,-1 2,4 12,-8 7,11 9,1 7,7 9,0 17,10 -3,27 3,11 -4,6 -60,34 -14,22 -7,16 -34,12 -4,-9 -14,5 27,61 -16,2 -20,-6 -2,-11 -7,2 -11,-10 -14,-3 -10,-11 -15,0 4,-5 -7,-10 -18,-3 -4,-6 -10,3 7,19 -2,8 -15,20 -3,-1 3,-10 -2,-11 -19,-24 -10,-4 -7,-8 -4,-14 -12,-23 -32,-25 -26,-12 -15,-9 -12,-23 -4,-21 -9,-16 -15,-18 -16,-12 -17,-3 -29,-29 -3,-5 11,3 80,-10 -14,-42 71,-10 -7,-43 63,-10 25,61 2,5 20,-6 29,-6 26,-10 27,9 6,7Z"/>
    <path data-fips-int="34023" data-name="Middlesex County" d="M1467,1126l-4,29 -8,21 -10,-5 -26,16 0,15 4,26 -9,12 -3,13 -6,5 -16,-1 -4,-12 -7,-4 -12,1 -17,14 -13,23 -14,5 15,-1 15,-9 13,-22 15,-2 -1,10 7,7 13,6 10,15 -2,8 7,9 18,10 7,1 14,8 -4,9 -10,0 -11,14 -1,38 -46,49 -88,91 -18,25 1,10 -70,40 -25,-4 3,-27 -17,-10 -9,0 -7,-7 -9,-1 -7,-11 -12,8 -2,-4 -13,1 -5,-7 -22,-10 -6,-14 -14,-2 -9,-9 -15,-5 -1,-13 -7,-5 6,-36 5,-13 16,-8 17,-20 2,-31 8,-7 33,-16 19,-14 6,-8 30,-27 11,-16 25,-14 -2,-10 -7,-14 -19,-10 -15,-25 -19,-18 -2,-10 -7,-2 1,-17 11,-15 12,-8 16,-3 17,-13 10,-2 6,4 117,-13 42,-6 -2,11 15,12 30,-7 4,-7 31,5 17,-7Z"/>
    <path data-fips-int="34025" data-name="Monmouth County" d="M1589,1772l-13,-18 -42,52 -6,0 -6,-11 -19,-5 -26,-1 -29,3 -10,-5 -5,-8 3,-15 -9,-19 -9,-6 -2,-25 -5,-3 -117,-2 -31,-2 -55,51 -71,62 -27,16 -36,-82 -27,-61 14,-5 4,9 34,-12 7,-16 14,-22 60,-34 4,-6 -3,-11 25,4 70,-40 -1,-10 18,-25 88,-91 46,-49 1,-38 11,-14 10,0 4,-9 16,6 1,15 17,-12 8,-17 5,-2 20,16 13,-3 8,-10 6,0 20,15 21,5 20,11 4,9 21,8 16,3 10,5 26,4 11,4 10,10 -1,22 -12,1 -8,-10 -16,2 0,8 -9,3 -27,17 -16,5 -2,10 -14,8 5,6 19,-9 13,-15 17,-2 8,-13 15,-3 20,3 10,-5 3,25 -14,11 -12,2 -8,15 -15,4 8,4 -9,24 6,-2 7,-12 2,8 9,-12 6,12 -6,16 8,-7 -3,-28 14,-4 6,3 2,-9 1,-35 -5,-49 -7,-30 -7,-5 0,-17 -6,-7 -5,2 -3,-23 -10,-11 -3,-8 11,3 7,-4 3,13 21,39 -1,26 4,28 6,55 -2,36 -3,40 -21,106 -14,55 -16,2 -5,4 1,-12 -14,-10 -3,3 9,11 -4,6 -17,-4 12,15 13,-3 15,-10 10,1 -7,26 -14,60 -5,27 -10,-7 -7,2 -21,18 -9,-1 -9,-10 -4,-21Z"/>
    <path data-fips-int="34027" data-name="Morris County" d="M1399,712l-13,2 -8,-6 1,-6 -28,3 -1,-7 -12,0 -8,19 -1,21 18,6 -4,12 8,-2 3,7 -10,7 -5,11 5,8 -3,16 -7,6 3,7 -6,11 -12,2 -1,6 -16,19 -1,19 -3,4 0,19 11,18 -12,16 -7,12 -7,8 -5,-4 -2,13 -11,-1 -13,18 -11,5 -21,21 -6,1 -3,16 -7,1 -9,7 -16,3 -8,7 -13,4 -6,12 -15,-2 -2,-16 -7,-4 9,-7 -3,-13 5,-13 10,-9 -4,-13 -9,-6 1,-7 -7,-9 3,-7 -11,-9 -9,0 -1,-18 -6,-16 -66,20 -20,6 -58,16 -32,12 -18,-7 -11,-9 -47,-16 -11,2 -16,-2 -21,-22 -47,-40 22,-11 4,-10 14,-1 4,-9 18,-20 2,-10 10,-6 -6,-10 2,-6 12,-8 1,-9 8,-4 -6,-6 0,-18 4,-6 13,-7 1,-7 23,-23 17,-3 4,-7 17,-1 19,16 0,13 18,-10 17,-3 28,-18 1,-12 16,-16 1,-14 -6,-8 2,-12 8,-9 54,-66 72,-82 6,-6 15,10 0,20 -7,3 -6,28 5,9 20,-18 32,-9 6,15 14,12 -7,20 5,0 5,-10 6,-2 12,6 7,10 11,7 10,-3 17,4 9,-4 4,14 15,-5 9,9 11,-2 8,5 12,-3 5,18 -5,11 12,0 5,16 -8,8 9,0 4,10 -4,20 -8,15 5,17 12,2Z"/>
    <path data-fips-int="34031" data-name="Passaic County" d="M1547,818l-114,-82 -20,-4 -6,-6 -8,-14 0,-24 -12,-2 -5,-17 8,-15 4,-20 -4,-10 -9,0 8,-8 -5,-16 -12,0 5,-11 -5,-18 -12,3 -8,-5 -11,2 -9,-9 -15,5 -4,-14 -9,4 -17,-4 -10,3 -11,-7 -7,-10 -12,-6 -6,2 -5,10 -5,0 7,-20 -14,-12 -6,-15 -32,9 -20,18 -5,-9 6,-28 7,-3 0,-20 -15,-10 70,-81 63,-71 9,-6 137,76 20,14 -39,104 -22,56 9,8 17,27 24,14 56,6 0,-8 32,23 -8,33 9,11 0,14 10,4 -3,10 -1,19 5,8 -1,10 16,17 8,24 -12,-4 -5,27 3,10 -3,15Z"/>
    <path data-fips-int="34035" data-name="Somerset County" d="M1204,1020l10,27 19,-15 13,9 15,-13 7,19 -16,20 -2,15 -6,10 -17,15 -24,16 -10,2 -17,13 -16,3 -12,8 -11,15 -1,17 7,2 2,10 19,18 15,25 19,10 7,14 2,10 -25,14 -11,16 -30,27 -6,8 -19,14 -33,16 -8,7 -2,31 -17,20 -16,8 1,-8 -6,-7 -27,-9 -26,10 -29,6 -20,6 -2,-5 -25,-61 -52,-125 24,15 33,-67 19,-18 12,-25 -11,-6 3,-18 8,-14 11,-12 -9,-6 -2,-8 -12,-1 0,-23 5,-8 -8,-6 -3,-10 6,-4 7,-21 -6,-4 8,-18 -5,-20 -4,-6 32,-12 58,-16 20,-6 66,-20 6,16 1,18 9,0 11,9 -3,7 7,9 -1,7 9,6 4,13 -10,9 -5,13 3,13 -9,7 7,4 2,16 15,2 6,-12 13,-4 8,-7 16,-3Z"/>
    <path data-fips-int="34037" data-name="Sussex County" d="M1301,297l-9,6 -63,71 -70,81 -6,6 -72,82 -54,66 -8,9 -2,12 6,8 -1,14 -16,16 -1,12 -28,18 -17,3 -18,10 0,-13 -19,-16 -17,1 -4,7 -17,3 -96,-115 -109,-135 -9,1 -8,7 -9,-5 8,-17 12,-13 7,0 18,-14 6,-7 20,-11 19,-25 4,-13 19,-20 11,-29 13,-24 -8,-13 0,-6 12,-24 7,-2 2,-14 9,-22 10,-15 37,-30 -3,-9 7,-8 16,-2 10,-11 2,-7 18,-12 24,-1 21,-10 26,9 154,93 49,31 102,68Z"/>
    <path data-fips-int="34039" data-name="Union County" d="M1517,1000l21,18 -11,21 -12,-6 -13,17 -11,3 -11,10 -11,24 0,21 6,11 -8,7 -4,-11 -17,7 -31,-5 -4,7 -30,7 -15,-12 2,-11 -42,6 -117,13 -6,-4 24,-16 17,-15 6,-10 2,-15 16,-20 -7,-19 -15,13 -13,-9 -19,15 -10,-27 7,-1 3,-16 6,-1 21,-21 11,-5 13,-18 11,1 2,-13 5,4 7,-8 7,-12 14,5 17,15 17,10 9,-3 12,8 20,-12 30,12 36,8 9,9 4,14 9,5 33,-3Z"/>
    <path data-fips-int="34041" data-name="Warren County" d="M885,693l-23,23 -1,7 -13,7 -4,6 0,18 6,6 -8,4 -1,9 -12,8 -2,6 6,10 -10,6 -2,10 -18,20 -4,9 -14,1 -4,10 -22,11 -15,9 1,13 -10,6 -10,14 -38,44 -10,20 -12,0 -1,6 -11,4 -11,12 -17,0 -26,21 -6,-1 -14,14 -13,5 -5,8 -11,6 -7,10 -8,4 -4,8 -19,6 -22,10 0,8 -15,5 -1,9 -11,10 -1,7 -16,9 -4,-15 -9,-15 1,-8 12,-1 2,-5 -11,-38 6,-14 10,-5 7,-16 -21,-6 -7,-13 11,-33 6,-4 6,-20 -14,-19 -1,-7 16,-12 6,-18 6,-7 38,5 15,-20 8,-2 11,-15 -1,-6 17,-23 1,-6 -12,-13 0,-14 20,-3 13,2 14,-20 0,-11 -24,-29 -6,-30 -16,-15 -23,-39 -4,-23 -10,1 -4,-10 4,-19 24,-19 13,-5 8,-10 18,-4 31,-18 16,-12 0,-8 7,-9 7,-19 6,-1 13,-13 11,-3 15,-11 2,-10 109,135Z"/>
    <path data-fips-int="34001" data-name="Atlantic County" d="M1153,2850l-6,15 -8,7 -8,-9 1,-9 20,-7ZM1224,2742l7,5 -2,7 7,11 -24,-7 2,-7 8,-5 -10,-8 14,-7 4,8ZM1259,2740l-4,12 -14,1 7,-12 4,1 0,-12ZM1264,2765l4,-6 14,1 -9,-16 22,9 -4,12 9,-5 -1,-11 -16,-8 3,-15 -6,-4 9,-4 13,15 -4,7 13,-6 7,10 3,-5 -10,-19 11,0 5,-9 22,0 -21,30 -25,28 -33,32 -10,-6 -20,-31 17,6 -2,6 8,3 4,-6ZM1307,2668l-9,0 -3,-10 11,4ZM1303,2710l5,-15 -2,-6 2,-18 15,9 3,-10 -6,3 -9,-22 14,-4 11,4 13,-5 0,-9 6,2 1,-8 11,9 -2,15 3,11 6,-12 2,12 -10,20 -8,9 -9,2 -5,-11 3,-16 -5,5 -3,15 5,7 -6,6 -15,4 -8,8ZM1255,2551l-4,6 5,13 6,8 -1,19 -6,4 8,9 2,16 14,15 18,11 -9,10 -5,-7 -16,-8 -7,13 15,11 5,15 -11,-6 -7,5 14,11 5,12 -9,4 -5,12 4,15 -9,-5 -1,-14 -19,-31 -8,2 -7,-6 -5,15 -8,0 -8,18 -3,20 -16,-2 -8,18 -1,15 15,5 9,-9 30,9 -1,7 17,7 2,7 8,4 6,16 -13,10 -18,6 -44,24 -39,26 -16,15 10,-23 8,-12 5,2 -1,-13 32,-24 4,2 14,-9 -20,2 -6,8 -7,-4 6,-9 1,-15 -11,0 -1,-8 -17,-6 -10,16 8,10 -3,21 -7,7 6,2 -14,6 5,-9 -6,1 -8,16 14,21 -4,8 -10,-1 -15,8 6,-14 -11,4 2,4 -11,12 -17,-14 -12,8 -21,6 -13,-17 -2,13 -19,-8 -4,-11 -10,-9 -8,4 -3,-11 -6,4 -14,-5 -5,3 23,7 1,8 9,-2 5,9 0,9 13,8 -6,9 -1,8 -3,-11 -12,1 -2,10 -4,-11 -5,5 -20,6 -5,-7 -12,4 -5,-10 -7,4 -11,-3 -16,4 -4,-5 -7,3 -23,-14 -9,3 -8,-5 -26,5 -14,-14 -24,-6 -1,-6 -3,-20 5,-31 6,-14 2,-16 -6,-18 6,-22 -4,-17 -136,-124 15,-18 99,-110 60,-67 89,-99 64,52 10,13 7,24 2,26 -2,18 7,8 19,-2 5,11 9,-9 36,21 3,8 9,10 24,1 5,11 24,18 2,9 8,-6 14,7 11,17 8,-3 11,10 11,-8 8,14 5,-14 10,1 -4,9 10,12 4,-6 -6,-9 4,-5 10,3Z"/>
    <path data-fips-int="34011" data-name="Cumberland County" d="M250,2839l-5,-9 -19,-8 -4,-5 -7,-25 -8,-3 -6,-4 -4,-4 -1,-10 11,-4 2,-9 -10,-2 -4,-12 11,-13 -3,-13 1,-22 -4,-5 15,-12 28,11 6,-2 13,-20 5,0 2,-13 12,-15 12,4 9,-5 74,-80 10,-12 76,63 88,77 10,-33 0,-15 -5,-13 8,-29 1,-23 -3,-6 13,-33 56,50 25,24 136,124 4,17 -6,22 6,18 -2,16 -6,14 -5,31 3,20 -22,23 -16,99 -27,14 -3,9 3,18 -2,13 10,10 0,14 -7,2 -17,-11 -33,-10 -39,1 -25,-6 6,-10 -7,-13 5,-4 1,-12 -13,-3 11,9 -3,4 -10,-7 -8,3 -3,9 -13,-1 -24,6 -23,-5 -10,6 -10,22 -16,16 -5,-8 -9,-4 -12,-17 -5,-2 8,-12 -7,-10 -3,-22 -7,-12 -14,-1 -15,-24 -8,-1 -34,-21 7,-9 -7,-3 -10,-20 -19,-4 -13,6 -5,13 -26,-25 -14,-34 1,-11 -19,-11Z"/>
    <path data-fips-int="34029" data-name="Ocean County" d="M1341,2605l-6,5 -8,-1 -2,-12 6,-2ZM1407,2555l-7,6 4,-19ZM1374,2541l2,14 10,12 -15,0 -5,-4 3,-16ZM1395,2553l-8,-8 3,-7 8,6ZM1486,2406l11,4 -4,15 -11,2ZM1569,2274l4,9 10,-20 10,10 -21,30 -18,47 -27,51 -33,55 -46,86 -16,21 -11,20 -6,5 -10,17 -16,19 -11,2 -1,-6 39,-40 9,-15 3,-17 10,-3 0,-8 8,-8 8,-13 0,-8 8,-7 20,-31 3,-10 14,-24 2,-20 7,-4 -3,-6 17,-10 18,-26 6,-12 -4,-5 10,-9 5,-17 -5,-6 3,-11 8,-2 1,-10 8,-11 -17,1 -10,-6 11,-9 9,0 -2,-20 7,6ZM1579,2234l-9,1 -5,-15 5,0ZM1589,1772l-4,0 4,26 20,21 10,1 10,-6 7,-10 15,-4 5,2 -6,22 -10,64 -17,85 -4,44 -8,47 -9,86 -2,40 -5,48 -4,22 -5,1 -3,-10 -12,-5 -1,-10 12,0 7,5 1,-11 -6,-9 8,-18 -1,-4 5,-27 3,-29 1,-34 3,-8 -5,-15 5,-29 5,-13 -6,-6 2,-16 3,-2 -5,-29 10,-6 2,-42 12,-14 -5,-6 2,-14 11,-10 7,-49 -20,14 -29,0 -14,4 -14,-12 -3,14 23,6 5,-4 11,6 8,-6 23,1 -1,15 -14,11 -12,8 6,3 -9,14 -19,-5 -4,-12 -14,2 -11,-8 6,15 19,8 -2,12 -18,5 -11,-2 -12,10 18,8 3,6 14,-13 4,3 -3,12 -7,4 13,7 -3,13 -7,6 9,8 -6,14 -19,4 -5,7 -18,-7 -1,-5 -12,-4 -11,5 -18,-5 17,15 12,-3 24,9 14,8 17,-5 11,1 -3,13 -13,12 -3,-1 -7,16 -7,23 1,11 6,6 -27,1 -1,4 28,4 -2,14 -7,-2 -6,27 -22,16 7,4 -11,16 -1,7 -10,12 -6,24 1,7 -7,15 3,17 -8,9 35,11 -6,4 4,19 -15,0 21,8 -8,10 8,4 -13,2 -5,-4 -7,13 1,9 -16,4 -1,9 7,4 -12,3 -10,6 -8,17 7,6 -5,14 -17,-6 -3,5 -14,0 0,18 -6,12 -5,-5 1,28 -6,2 -17,-13 -9,7 2,9 -10,-4 -16,15 0,10 -9,3 -2,12 -14,-2 -3,17 13,8 4,8 8,2 1,8 20,10 1,8 -2,23 -7,11 -14,3 -10,-2 -6,-10 1,-13 7,-2 -2,-15 -7,-8 -4,6 -13,-9 -27,1 -9,7 -9,1 -7,-23 -7,-3 -6,9 -2,-14 -5,-10 20,-6 10,-32 0,-242 -23,-54 -40,-95 -66,-162 -18,-50 -26,-58 27,-16 71,-62 55,-51 31,2 117,2 5,3 2,25 9,6 9,19 -3,15 5,8 10,5 29,-3 26,1 19,5 6,11 6,0 42,-52Z"/>
    <path data-fips-int="34033" data-name="Salem County" d="M244,2298l-2,17 11,8 7,12 11,3 3,8 11,2 10,18 22,2 12,4 8,9 20,-3 17,8 4,16 30,4 21,-7 21,21 51,46 73,69 -13,33 3,6 -1,23 -8,29 5,13 0,15 -10,33 -88,-77 -76,-63 -10,12 -74,80 -9,5 -12,-4 -12,15 -2,13 -5,0 -13,20 -6,2 -28,-11 -15,12 4,5 -1,22 3,13 -11,13 4,12 10,2 -2,9 -11,4 1,10 -15,-4 -32,-55 -4,-12 -12,1 -14,-14 -10,-1 -9,-14 -30,-3 -7,-13 -1,-14 2,-22 5,9 12,-4 -3,-25 3,-25 -7,-15 17,-22 6,-15 10,5 8,-14 -10,4 -5,-13 -2,4 -17,-14 2,-11 -9,5 -20,-13 -5,-11 -2,-27 19,-22 7,-2 23,-29 5,-23 1,-13 13,-9 9,-18 10,1 4,-26 16,-40 22,-24 13,-6 20,-4 9,12 -5,24 14,1 -2,13 7,6 7,-2Z"/>
  </g>
  <g class="cities">
    <circle r="3" cx="150.4" cy="93.4"/>
    <text x="150.4" y="93.4">Newark</text>
    <circle r="3" cx="160.3" cy="94.4"/>
    <text x="160.3" y="94.4">Jersey City</text>
    <circle r="3" cx="150.3" cy="68.6"/>
    <text x="150.3" y="68.6">Paterson</text>
  </g>
</svg>