<?xml version="1.0" encoding="utf-8"?>
<!DOCTYPE svg PUBLIC "-//W3C//DTD SVG 1.1//EN" "http://www.w3.org/Graphics/SVG/1.1/DTD/svg11.dtd">
<svg version="1.1" xmlns="http://www.w3.org/2000/svg" width="521" height="1000" viewBox="0 0 521 1000">
  <path class="state" d="M482,240l-10,20 -3,17 -11,11 1,7 -7,5h-15l8,-11 6,-24 -6,2 -1,11 -6,9 -6,-3 6,7 -18,14 -2,16 -4,14 -9,3v13l-4,8 -8,-5 10,19 11,5 5,6 7,-9 9,5 6,-4 23,14 20,4 2,9 -10,-2 -15,10 -1,5 14,-9 13,-2 1,7 -12,8 -1,7 13,-8v-21l-5,-17 4,1 3,30 -2,22 -10,46 -9,-4 -1,9 11,-4 -7,25 -15,11 -5,-11v7l7,7 13,-7 -10,51 -3,24 -4,45 -2,13 -6,-7 6,-2 3,-25 -1,-16 3,-16 -1,-13 6,-17 5,-22 -12,21 -18,6 11,10 -2,11 -8,3 -7,-5 -6,4 14,5 10,-1 -9,18 3,10 -16,25 -4,19 8,5 1,10 -15,15 -1,10h-10l-5,16 -4,-4 -10,8 -8,11 14,11 -3,12 -8,-2 2,-7 -8,-6 -13,3 -6,-9 -1,1 1,15 7,30 -5,9 -6,-14 -6,-1 -12,25h15l9,12 -13,6 -25,18 14,-25 -8,-7 -6,28 -11,4 -24,-3 -1,9h10l-2,14 21,-18v8l-17,12 -25,39 -14,16 8,-5 3,7 -24,32 -6,-8 -7,11 6,4 4,-8 3,9 -23,22 1,-9 -14,5 7,4 -11,6 -17,-4 8,-33 14,-27 4,-27 -8,-6 -15,-6 -19,-1 1,-12 -8,4h-18l-8,13 -10,-10 -3,-15 -20,-13 -2,-9 -10,-2 -2,6 -7,-8 -7,-15 -9,1 -12,-14 -2,-1 -1,-2h-4l-11,-20 -12,-8 -10,-1v-14l4,2 -2,-19 8,-15 -15,-12v-8l14,-17 1,-8 9,-8 5,-19 11,-8 11,-6 4,-7 17,-9 16,-2 22,-7 4,-5 15,-3 3,-11 -1,-18 5,2 17,-14 2,-9 10,-2 12,-14 12,-6 22,-5 10,-17 14,2 16,-11 -1,-9 -7,-5 -6,-13 -20,-12 -9,-20 -12,-6 -10,-11 -6,-21 -10,-6 -8,3 -10,-6 -4,-16 3,-9 -1,-23 -13,-12 -20,4 -4,-12 -3,-8 3,-5 -3,-11 7,-7 -8,-8 6,-17 -3,-5 7,-12 11,1 7,-6 8,-14 -4,-8h9l5,-6 -9,-21 -11,-14 -4,-15 13,-10 19,-10 3,-9 14,-12 -8,1 26,-24 14,-25 -2,-7 11,-21 17,-15 4,-6 15,-4 22,10 40,24 38,25 45,26 92,52 -7,36 -15,40ZM371,774l2,-17 16,-3 3,8 -18,14ZM360,790l8,-13 16,-2 -22,25 -9,-11ZM447,649h7l-6,9 -10,24 -27,47 -11,15 -8,4 12,-12 40,-71Z"/>
  <g class="counties">
    <path data-fips-int="34003" data-name="Bergen County" d="M482,240l-8,-8 -18,10 -5,13 -15,-9 5,-12 3,-16 4,-1 -7,-10v-12l-6,-10 2,-9 -32,-10 -7,-10 17,-46 92,52 -7,36 -15,40Z"/>
    <path data-fips-int="34005" data-name="Burlington County" d="M305,501l11,23 17,42 32,78v70l-7,13 -1,1 -11,4 -11,-3 -4,-6 -22,-11 -11,-9 -13,-5 -2,-17 -22,-20 -11,-8 -8,-11 -14,-5 -14,4 -4,-5 -8,-37 -14,-21 -10,-2 1,-13 -13,-4 2,-9 10,-2 12,-14 12,-6 22,-5 10,-17 14,2 16,-11 6,-13Z"/>
    <path data-fips-int="34007" data-name="Camden County" d="M261,661l-42,47 -9,-11 -7,-21 -16,-5 -12,-10 -8,-19 -12,-14 1,-12 -10,-8 -4,-8 3,-11 -1,-18 5,2 17,-14 13,4 -1,13 10,2 14,21 8,37 4,5 14,-4 14,5 8,11Z"/>
    <path data-fips-int="34009" data-name="Cape May County" d="M286,834h10l-2,14 21,-18v8l-17,12 -25,39 -14,16 8,-5 3,7 -24,32 -6,-8 -7,11 6,4 4,-8 3,9 -23,22 1,-9 -14,5 7,4 -11,6 -17,-4 8,-33 14,-27 4,-27 -8,-6 -3,-20 8,-3 5,-29 6,-6 10,7h15l25,7Z"/>
    <path data-fips-int="34013" data-name="Essex County" d="M398,203l43,31 -5,12 -5,11 1,10h13l-1,11 -6,9 -6,-3h-15l-3,-7 -20,-5 -12,2 -13,-9 2,-22 9,-8 3,-23 -4,-8 14,-4Z"/>
    <path data-fips-int="34015" data-name="Gloucester County" d="M219,708l-33,37 -23,-22 -41,-38 -15,1 -1,-5 -11,-1 -26,-17 -1,-10 -8,-6 1,-6 -8,-2 11,-6 4,-7 17,-9 16,-2 22,-7 4,-5 15,-3 4,8 10,8 -1,12 12,14 8,19 12,10 16,5 7,21Z"/>
    <path data-fips-int="34017" data-name="Hudson County" d="M482,240l-10,20 -3,17 -11,11 1,7 -7,5h-15l8,-11 6,-24 -6,2h-13l-1,-10 5,-11 15,9 5,-13 18,-10Z"/>
    <path data-fips-int="34019" data-name="Hunterdon County" d="M264,274l3,7 -3,27 7,4 -5,7 2,7 -9,12 -10,20 -6,-4 14,35 -18,3 2,13 -20,2 4,12 -26,2 -6,-21 -10,-6 -8,3 -10,-6 -4,-16 3,-9 -1,-23 -13,-12 -20,4 -4,-12 14,-15 10,-3 10,-10 33,-19 23,-30 18,18h9Z"/>
    <path data-fips-int="34021" data-name="Mercer County" d="M296,409l-1,19 11,4 9,9 7,-1 15,8v12l-19,11 -5,10 -15,3 7,17 -35,-17 -6,13 -1,-9 -7,-5 -6,-13 -20,-12 -9,-20 -12,-6 -10,-11 26,-2 -4,-12 20,-2 -2,-13 18,-3 8,19 20,-6Z"/>
    <path data-fips-int="34023" data-name="Middlesex County" d="M418,321l-4,14 -9,3v13l-4,8 -8,-5 10,19 11,5 -7,6v9l-13,17 -25,24 -7,12 -17,10h-8v-8l-15,-8 -7,1 -9,-9 -11,-4 1,-19 9,-9 1,-8 16,-9 17,-18 4,-2 -19,-26 4,-10 14,-7 10,1 38,-5 3,7 10,-4Z"/>
    <path data-fips-int="34025" data-name="Monmouth County" d="M452,506l-3,-5 -12,15 -8,-5h-18l-9,-22 -43,-1 -33,30 -10,6 -11,-23 -7,-17 15,-3 5,-10 19,-11v-4h8l17,-10 7,-12 25,-24 13,-17v-9l7,-6 5,6 7,-9 9,5 6,-4 23,14 20,4 2,9 -10,-2 -15,10 -1,5 14,-9 13,-2 1,7 -12,8 -1,7 13,-8v-21l-5,-17 4,1 3,30 -2,22 -10,46 -9,-4 -1,9 11,-4 -7,25 -15,11Z"/>
    <path data-fips-int="34027" data-name="Morris County" d="M398,203l-5,-3 -14,4 4,8 -3,23 -9,8 -2,22 -26,26 -19,9 -1,-13 4,-7 -5,-11 -10,-11 -48,16 -21,-10h-9l-18,-18 11,-6 14,-22 -1,-8 12,-12 11,-3 8,6 14,-6 6,-13 -2,-4 17,-21 24,-28 5,9 -3,12 14,-9 15,16 29,6 7,18 -3,10Z"/>
    <path data-fips-int="34031" data-name="Passaic County" d="M441,234l-43,-31 -4,-12 3,-10 -7,-18 -29,-6 -15,-16 -14,9 3,-12 -5,-9 13,-15 27,-30 45,26 -17,46 7,10 32,10 -2,9 6,10v12l7,10 -4,1Z"/>
    <path data-fips-int="34035" data-name="Somerset County" d="M343,291l2,7 14,-4 2,4 -8,16 -11,6 -14,7 -4,10 19,26 -4,2 -17,18 -16,9 -1,8 -9,9 -11,-7 -20,6 -8,-19 -14,-35 6,4 10,-20 9,-12 -2,-7 5,-7 -7,-4 3,-27 -3,-7 48,-16 10,11 5,11 -4,7 1,13Z"/>
    <path data-fips-int="34037" data-name="Sussex County" d="M370,84l-27,30 -13,15 -24,28 -17,21 2,4 -6,13 -14,6 -8,-6 -11,3 -37,-44 -22,-28 -8,1 26,-24 14,-25 -2,-7 11,-21 17,-15 4,-6 15,-4 22,10 40,24Z"/>
    <path data-fips-int="34039" data-name="Union County" d="M432,284l6,7 -18,14 -2,16 -15,-2 -10,4 -3,-7 -38,5 -10,-1 11,-6 8,-16 -2,-4 -14,4 -2,-7 26,-26 13,9 12,-2 20,5 3,7Z"/>
    <path data-fips-int="34041" data-name="Warren County" d="M252,198l-12,12 1,8 -14,22 -11,6 -23,30 -33,19 -10,10 -10,3 -14,15 -3,-8 3,-5 -3,-11 7,-7 -8,-8 6,-17 -3,-5 7,-12 11,1 7,-6 8,-14 -4,-8h9l5,-6 -9,-21 -11,-14 -4,-15 13,-10 19,-10 3,-9 14,-12 22,28Z"/>
    <path data-fips-int="34001" data-name="Atlantic County" d="M371,774l2,-17 16,-3 3,8 -18,14ZM360,790l8,-13 16,-2 -22,25 -9,-11ZM357,728l1,15 7,30 -5,9 -6,-14 -6,-1 -12,25h15l9,12 -13,6 -25,18 14,-25 -8,-7 -6,28 -11,4 -24,-3 -1,9h-13l-25,-7h-15l-10,-7 3,-23 -1,-16 -39,-36 33,-37 42,-47 22,20 2,17 13,5 11,9 22,11 4,6 11,3Z"/>
    <path data-fips-int="34011" data-name="Cumberland County" d="M70,811l-12,-14 -2,-1 -1,-2 -1,-11 5,-18 11,3 8,-14 5,1 26,-28 46,40 4,-9v-25l4,-10 23,22 39,36 1,16 -3,23 -6,6 -5,29 -8,3 3,20 -15,-6 -19,-1 1,-12 -8,4h-18l-8,13 -10,-10 -3,-15 -20,-13 -2,-9 -10,-2 -2,6 -7,-8 -7,-15Z"/>
    <path data-fips-int="34029" data-name="Ocean County" d="M452,506v7l7,7 13,-7 -10,51 -3,24 -4,45 -2,13 -6,-7 6,-2 3,-25 -1,-16 3,-16 -1,-13 6,-17 5,-22 -12,21 -18,6 11,10 -2,11 -8,3 -7,-5 -6,4 14,5 10,-1 -9,18 3,10 -16,25 -4,19 8,5 1,10 -15,15 -1,10h-10l-5,16 -4,-4 -10,8 -8,11 14,11 -3,12 -8,-2 2,-7 -8,-6 -13,3 -6,-9 7,-13v-70l-32,-78 -17,-42 10,-6 33,-30 43,1 9,22h18l8,5 12,-15ZM447,649h7l-6,9 -10,24 -27,47 -11,15 -8,4 12,-12 40,-71Z"/>
    <path data-fips-int="34033" data-name="Salem County" d="M163,723l-4,10v25l-4,9 -46,-40 -26,28 -5,-1 -8,14 -11,-3 -5,18 1,11h-4l-11,-20 -12,-8 -10,-1v-14l4,2 -2,-19 8,-15 -15,-12v-8l14,-17 1,-8 9,-8 5,-19 11,-8 8,2 -1,6 8,6 1,10 26,17 11,1 1,5 15,-1Z"/>
  </g>
  <path class="mesh" d="M482,240l-8,-8 -18,10 -5,13 -15,-9 5,-12 3,-16 4,-1 -7,-10v-12l-6,-10 2,-9 -32,-10 -7,-10 17,-46M264,497l6,-13 35,17 11,23 17,42 32,78v70l-7,13M357,728l-11,4 -11,-3 -4,-6 -22,-11 -11,-9 -13,-5 -2,-17 -22,-20 -11,-8 -8,-11 -14,-5 -14,4 -4,-5 -8,-37 -14,-21 -10,-2 1,-13 -13,-4M261,661l-42,47 -9,-11 -7,-21 -16,-5 -12,-10 -8,-19 -12,-14 1,-12 -10,-8 -4,-8M207,878l-3,-20 8,-3 5,-29 6,-6 10,7h15l25,7h13M432,284h-15l-3,-7 -20,-5 -12,2 -13,-9 2,-22 9,-8 3,-23 -4,-8 14,-4 5,3 43,31M436,246l-5,11 1,10h13M219,708l-33,37 -23,-22 -41,-38 -15,1 -1,-5 -11,-1 -26,-17 -1,-10 -8,-6 1,-6 -8,-2M126,323l14,-15 10,-3 10,-10 33,-19 23,-30 18,18h9l21,10 3,7 -3,27 7,4 -5,7 2,7 -9,12 -10,20 -6,-4 14,35 -18,3 2,13 -20,2 4,12 -26,2M257,389l8,19 20,-6 11,7 -1,19 11,4 9,9 7,-1 15,8v12l-19,11 -5,10 -15,3 7,17M414,378l-7,6v9l-13,17 -25,24 -7,12 -17,10h-8M296,409l9,-9 1,-8 16,-9 17,-18 4,-2 -19,-26 4,-10 14,-7 10,1 38,-5 3,7 10,-4 15,2M452,506l-3,-5 -12,15 -8,-5h-18l-9,-22 -43,-1 -33,30 -10,6M369,265l-26,26 -19,9 -1,-13 4,-7 -5,-11 -10,-11 -48,16M216,246l11,-6 14,-22 -1,-8 12,-12 11,-3 8,6 14,-6 6,-13 -2,-4 17,-21 24,-28 5,9 -3,12 14,-9 15,16 29,6 7,18 -3,10 4,12M330,129l13,-15 27,-30M343,291l2,7 14,-4 2,4 -8,16 -11,6M252,198l-37,-44 -22,-28M223,820l3,-23 -1,-16 -39,-36M55,794l-1,-11 5,-18 11,3 8,-14 5,1 26,-28 46,40 4,-9v-25l4,-10"/>
  <g class="cities">
    <circle r="7" cx="429" cy="267"/>
    <text x="429" y="267">Newark</text>
    <circle r="7" cx="260" cy="471"/>
    <text x="260" y="471">Trenton</text>
    <circle r="7" cx="146" cy="584"/>
    <text x="146" y="584">Camden</text>
  </g>
</svg>