<?xml version="1.0" encoding="utf-8"?>
<!DOCTYPE svg PUBLIC "-//W3C//DTD SVG 1.1//EN" "http://www.w3.org/Graphics/SVG/1.1/DTD/svg11.dtd">
<svg version="1.1" xmlns="http://www.w3.org/2000/svg" width="183" height="350" viewBox="0 0 183 350">
  <path class="state" transform="scale(0.1)" d="M1689,840l-23,44 -20,90 -33,11 -1,47 -41,-9 22,24 -59,13 -1,-8 45,-77 -18,-40 -5,45 -19,27 -19,-7 20,18 -58,47 -11,62 -14,49 -35,10 5,42 -16,30 -37,-17 42,65 41,19 29,13 16,-25 22,17 23,-15 85,49 59,12 16,37 -20,-9 -57,27 -4,23 40,-31 44,-4 3,25 -26,14 -23,40 49,-20 4,-44 -19,-103 -30,-43 20,-5 23,55 9,113 -4,71 -34,160h-51l15,15 37,-10 -27,112 -38,13 -28,-40v27l32,21 35,-16 -34,186 -11,81 -12,147 -8,23 19,-213 -7,-38 26,-62 13,-78 -16,13 -64,5 71,5 -30,52 -26,-18 -16,10 11,33v65l-24,13 34,8 -32,64 -7,61 -39,58 -17,74 36,10 4,34 -59,59 -3,35 -35,-2 -9,55 -23,-12 -33,27 -26,43 44,32 -2,31 -36,2 5,-32 -23,-8 -45,7 -22,-29 -3,5 1,52 13,30 -8,28 20,48 -19,10 -20,-30 -18,-1 -22,51 -15,-1 -9,33 54,3 32,42 -117,68 31,-80 -27,-16 -6,56 -23,12 10,31 -39,12 -17,-13 -32,15 -42,-19 1,35 40,7 -10,48 73,-63v23l-57,45 -37,63 -28,34 -39,75 5,26 -34,38 -36,60 11,-40 -53,39 -19,28 22,7 3,-34 21,42 -91,78 -38,17h-61l-8,-12 28,-115 57,-123 5,-63 -29,-25 -66,-20 -55,-3 6,-40 -27,15h-64l-32,45 -31,-32 -9,-56 -71,-47 -9,-32 -35,-5 -3,20 -27,-26 -29,-55 -27,3 -27,-20 -15,-30 -6,-3 -4,-5 -14,-3 -37,-67 -45,-28 -30,-2 -6,-50 17,5 -8,-65 45,-50 -32,-8 -36,-33v-38l49,-55 3,-27 32,-27 17,-63 39,-33 39,-17 9,-23 64,-35 40,2 92,-33 19,-20 48,-9 9,-36 -5,-62 19,7 59,-53 9,-29 33,-11 44,-42 47,-28 71,-18 26,-27 11,-30 45,7 61,-37 1,-20 -34,-32 -18,-41 -71,-45 -19,-47 -32,-41 -26,-9 -30,-31 -25,-78 -38,-15 -29,5 -32,-24 -9,-49 11,-34 -7,-80 -30,-33 -45,-13 -31,16 -21,-9v-30l-13,-30 13,-10 -10,-35 24,-42 -28,-20 23,-55 -15,-28 25,-37 41,5 50,-64 -12,-34h32l17,-33 -26,-30 -5,-27 -57,-88 10,-25 104,-61 13,-35 48,-42 -26,10 13,-31 56,-35 44,-58 23,-52 -9,-15 41,-83 58,-48 17,-25 53,-17 29,8 205,125 117,77 156,88 280,159 42,27 -24,111 -15,49ZM1303,2710l8,-60h25l20,-18 19,33 -23,32ZM1264,2765l25,-47 59,-6 -34,45 -44,45 -26,-27ZM1568,2274l25,-1 -40,78 -106,193 -58,80 -13,-2 40,-42 83,-144 3,-20 43,-57 26,-71Z"/>
  <g class="counties" transform="scale(0.1)">
    <path data-fips-int="34003" data-name="Bergen County" d="M1689,840l-25,-28 -45,25 -30,35 -27,12 -33,-20 17,-47 14,-55 -33,-111 7,-33 -32,-15 -52,-5 -27,-15 -26,-37 60,-161 280,159 42,27 -24,111 -15,49Z"/>
    <path data-fips-int="34005" data-name="Burlington County" d="M1074,1752l36,83 28,62 86,221 59,136v243l-25,48 -3,5 -32,-3 -12,17 -38,-14 -9,-16 -77,-40 -50,-38h-34l-10,-74 -75,-68 -39,-28 -41,-48 -26,-7 -57,12 -13,-12 -30,-133 -45,-70 -41,-10 -4,-60 -38,-1 9,-29 33,-11 44,-42 47,-28 71,-18 26,-27 11,-30 45,7 61,-37 18,-18 -5,-29 32,7 65,50Z"/>
    <path data-fips-int="34007" data-name="Camden County" d="M918,2314l-149,167 -30,-35 -3,-44 -23,-35 -51,-16 -47,-38 2,-22 -44,-52 -25,7 15,-33 -16,-15 6,-38 -41,-34 -10,-25 9,-36 -5,-62 19,7 59,-53 38,1 4,60 41,10 45,70 30,133 13,12 57,-12 26,7 41,48Z"/>
    <path data-fips-int="34009" data-name="Cape May County" d="M1003,2916l40,7 -10,48 73,-63v23l-57,45 -37,63 -28,34 -39,75 5,26 -34,38 -36,60 11,-40 -53,39 -19,28 22,7 3,-34 21,42 -91,78 -38,17h-61l-8,-12 28,-115 57,-123 5,-63 -29,-25 -7,-65 26,-13 15,-97 24,-26 37,26 45,-1 33,16 35,-8 21,13Z"/>
    <path data-fips-int="34013" data-name="Essex County" d="M1398,712l148,105 -17,47 -16,36 1,34 40,-10 6,11 -5,45 -19,27 -19,-7h-44l-23,-28 -60,-18 -24,11 -71,-35 8,-83 27,-20 16,-85 -17,-5 4,-35 45,-3Z"/>
    <path data-fips-int="34015" data-name="Gloucester County" d="M769,2481l-115,126 -80,-72 -145,-136 -51,3 -13,-23 -29,2 -41,-17 -52,-48 -2,-28 -28,-20 -2,-35 -20,3 39,-17 9,-23 64,-35 40,2 92,-33 19,-20 48,-9 10,25 41,34 -6,38 16,15 -15,33 25,-7 44,52 -2,22 47,38 51,16 23,35 3,44Z"/>
    <path data-fips-int="34017" data-name="Hudson County" d="M1689,840l-23,44 -20,90 -33,11 -1,47 -41,-9 22,24 -59,13 -1,-8 45,-77 -18,-40 -6,-11 -40,10 -1,-34 16,-36 33,20 27,-12 30,-35 45,-25Z"/>
    <path data-fips-int="34019" data-name="Hunterdon County" d="M929,959l10,26 -10,93 23,14 -21,43 11,8 -31,43 -35,69 -22,-17 51,123 -62,12 6,43 -70,10 13,43 -90,7 -25,-78 -38,-15 -29,5 -32,-24 -9,-49 11,-34 -7,-80 -30,-33 -45,-13 -31,16 -21,-9v-30l46,-52 34,-10 67,-58 84,-42 82,-106 68,63 59,8Z"/>
    <path data-fips-int="34021" data-name="Mercer County" d="M1040,1431l-12,45 9,23 38,15 35,32 29,-5 45,28 -2,27 -2,18 -63,37 -18,34 -52,9 27,58h-33l-65,-50 -32,-7 5,29 -18,18 1,-20 -34,-32 -18,-41 -71,-45 -19,-47 -32,-41 -26,-9 -30,-31 90,-7 -13,-43 70,-10 -6,-43 62,-12 28,68 70,-21Z"/>
    <path data-fips-int="34023" data-name="Middlesex County" d="M1468,1127l-14,49 -35,10 5,42 -16,30 -37,-17 42,65 41,19 -27,19v42l-135,140 -16,35 -69,38 -25,-3 2,-27 -45,-28 -29,5 -35,-32 -38,-15 -9,-23 12,-45 34,-28v-30l52,-30 81,-72 -70,-90 11,-33 55,-25 17,4 147,-19 14,24 35,-15Z"/>
    <path data-fips-int="34025" data-name="Monmouth County" d="M1587,1772l-8,-17 -46,52 -12,-12 -75,-3 -41,-82 -142,-5 -124,114 -29,16 -36,-83 -27,-58 52,-9 18,-34 63,-37 2,-18 25,3 69,-38 16,-35 135,-140v-42l27,-19 29,13 16,-25 22,17 23,-15 85,49 59,12 16,37 -20,-9 -57,27 -4,23 40,-31 44,-4 3,25 -26,14 -23,40 49,-20 4,-44 -19,-103 -30,-43 20,-5 23,55 9,113 -4,71 -34,160h-51l15,15 37,-10 -27,112 -38,13Z"/>
    <path data-fips-int="34027" data-name="Morris County" d="M1398,712l-20,-13 -45,3 -4,35 17,5 -16,85 -27,20 -8,83 -91,88 -67,32 -9,-18 21,-50 -18,-40 -19,-5 -10,-32 -173,54 -43,-24 -59,-8 -68,-63 40,-24 34,-43 17,-38 -4,-28 39,-39 38,-11 23,30 59,-30 17,-28 -3,-35 140,-163 15,11 -14,50 56,-20 27,37 34,23 29,-3 53,21 11,-6 23,66 -12,34Z"/>
    <path data-fips-int="34031" data-name="Passaic County" d="M1546,817l-148,-105 -17,-44 12,-34 -23,-66 -11,6 -53,-21 -29,3 -34,-23 -27,-37 -56,20 14,-50 -15,-11 142,-158 156,88 -60,161 26,37 27,15 52,5 32,15 -7,33 33,111Z"/>
    <path data-fips-int="34035" data-name="Somerset County" d="M1204,1018l10,29 46,-19 8,19 -26,48 -39,28 -55,25 -11,33 70,90 -81,72 -52,30v30l-34,28 -37,-23 -70,21 -28,-68 -51,-123 22,17 35,-69 31,-43 -11,-8 21,-43 -23,-14 10,-93 -10,-26 173,-54 10,32 19,5 18,40 -21,50 9,18Z"/>
    <path data-fips-int="34037" data-name="Sussex County" d="M1301,297l-142,158 -140,163 3,35 -17,28 -59,30 -23,-30 -38,11 -205,-251 -26,10 13,-31 56,-35 44,-58 23,-52 -9,-15 41,-83 58,-48 17,-25 53,-17 29,8 205,125Z"/>
    <path data-fips-int="34039" data-name="Union County" d="M1517,1000l20,18 -58,47 -11,62 -52,-10 -35,15 -14,-24 -147,19 -17,-4 39,-28 26,-48 -8,-19 -46,19 -10,-29 91,-88 71,35 24,-11 60,18 23,28Z"/>
    <path data-fips-int="34041" data-name="Warren County" d="M885,692l-39,39 4,28 -17,38 -34,43 -40,24 -82,106 -84,42 -67,58 -34,10 -46,52 -13,-30 13,-10 -10,-35 24,-42 -28,-20 23,-55 -15,-28 25,-37 41,5 50,-64 -12,-34h32l17,-33 -26,-30 -5,-27 -57,-88 10,-25 104,-61 13,-35 48,-42Z"/>
    <path data-fips-int="34001" data-name="Atlantic County" d="M1303,2710l8,-60h25l20,-18 19,33 -23,32ZM1264,2765l25,-47 59,-6 -34,45 -44,45 -26,-27ZM1255,2550l1,52 13,30 -8,28 20,48 -19,10 -20,-30 -18,-1 -22,51 -15,-1 -9,33 54,3 32,42 -117,68 31,-80 -27,-16 -6,56 -23,12 10,31 -39,12 -17,-13 -32,15 -42,-19 1,35h-46l-21,-13 -35,8 -33,-16 -45,1 -37,-26 -5,-19 14,-61 -4,-57 -137,-126 115,-126 149,-167 75,68 10,74h34l50,38 77,40 9,16 38,14 12,-17Z"/>
    <path data-fips-int="34011" data-name="Cumberland County" d="M249,2838l-27,-20 -15,-30 -6,-3 -4,-5 3,-88 43,-2 34,-51 28,-4 81,-88 164,140 11,-118 13,-34 80,72 137,126 4,57 -14,61 5,19 -24,26 -15,97 -26,13 7,65 -66,-20 -55,-3 6,-40 -27,15h-64l-32,45 -31,-32 -9,-56 -71,-47 -9,-32 -35,-5 -3,20 -27,-26 -29,-55Z"/>
    <path data-fips-int="34029" data-name="Ocean County" d="M1587,1772v27l32,21 35,-16 -34,186 -11,81 -12,147 -8,23 19,-213 -7,-38 26,-62 13,-78 -16,13 -64,5 71,5 -30,52 -26,-18 -16,10 11,33v65l-24,13 34,8 -32,64 -7,61 -39,58 -17,74 36,10 4,34 -59,59 -3,35 -35,-2 -9,55 -23,-12 -33,27 -26,43 44,32 -2,31 -36,2 5,-32 -23,-8 -45,7 -22,-29 25,-48v-243l-59,-136 -86,-221 -28,-62 29,-16 124,-114 142,5 41,82 75,3 12,12 46,-52ZM1568,2274l25,-1 -40,78 -106,193 -58,80 -13,-2 40,-42 83,-144 3,-20 43,-57 26,-71Z"/>
    <path data-fips-int="34033" data-name="Salem County" d="M574,2535l-13,34 -11,118 -164,-140 -81,88 -28,4 -34,51 -43,2 -3,88 -14,-3 -37,-67 -45,-28 -30,-2 -6,-50 17,5 -8,-65 45,-50 -32,-8 -36,-33v-38l49,-55 3,-27 32,-27 17,-63 39,-33 20,-3 2,35 28,20 2,28 52,48 41,17 29,-2 13,23 51,-3Z"/>
  </g>
  <path class="mesh" transform="scale(0.1)" d="M1689,840l-25,-28 -45,25 -30,35 -27,12 -33,-20 17,-47 14,-55 -33,-111 7,-33 -32,-15 -52,-5 -27,-15 -26,-37 60,-161M931,1742l18,-18 -5,-29 32,7 65,50h33l36,83 28,62 86,221 59,136v243l-25,48M1255,2550l-32,-3 -12,17 -38,-14 -9,-16 -77,-40 -50,-38h-34l-10,-74 -75,-68 -39,-28 -41,-48 -26,-7 -57,12 -13,-12 -30,-133 -45,-70 -41,-10 -4,-60 -38,-1M918,2314l-149,167 -30,-35 -3,-44 -23,-35 -51,-16 -47,-38 2,-22 -44,-52 -25,7 15,-33 -16,-15 6,-38 -41,-34 -10,-25M728,3071l-7,-65 26,-13 15,-97 24,-26 37,26 45,-1 33,16 35,-8 21,13h46M1517,1000h-44l-23,-28 -60,-18 -24,11 -71,-35 8,-83 27,-20 16,-85 -17,-5 4,-35 45,-3 20,13 148,105M1529,864l-16,36 1,34 40,-10 6,11M769,2481l-115,126 -80,-72 -145,-136 -51,3 -13,-23 -29,2 -41,-17 -52,-48 -2,-28 -28,-20 -2,-35 -20,3M446,1132l46,-52 34,-10 67,-58 84,-42 82,-106 68,63 59,8 43,24 10,26 -10,93 23,14 -21,43 11,8 -31,43 -35,69 -22,-17 51,123 -62,12 6,43 -70,10 13,43 -90,7M905,1361l28,68 70,-21 37,23 -12,45 9,23 38,15 35,32 29,-5 45,28 -2,27 -2,18 -63,37 -18,34 -52,9 27,58M1454,1325l-27,19v42l-135,140 -16,35 -69,38 -25,-3M1040,1431l34,-28v-30l52,-30 81,-72 -70,-90 11,-33 55,-25 17,4 147,-19 14,24 35,-15 52,10M1587,1772l-8,-17 -46,52 -12,-12 -75,-3 -41,-82 -142,-5 -124,114 -29,16M1295,930l-91,88 -67,32 -9,-18 21,-50 -18,-40 -19,-5 -10,-32 -173,54M759,864l40,-24 34,-43 17,-38 -4,-28 39,-39 38,-11 23,30 59,-30 17,-28 -3,-35 140,-163 15,11 -14,50 56,-20 27,37 34,23 29,-3 53,21 11,-6 23,66 -12,34 17,44M1159,455l142,-158M1204,1018l10,29 46,-19 8,19 -26,48 -39,28M885,692l-205,-251M786,2870l-5,-19 14,-61 -4,-57 -137,-126M197,2780l3,-88 43,-2 34,-51 28,-4 81,-88 164,140 11,-118 13,-34"/>
  <g class="cities">
    <circle r="3" cx="150.4" cy="93.4"/>
    <text x="150.4" y="93.4">Newark</text>
    <circle r="3" cx="91.2" cy="164.7"/>
    <text x="91.2" y="164.7">Trenton</text>
    <circle r="3" cx="51.6" cy="204.5"/>
    <text x="51.6" y="204.5">Camden</text>
  </g>
</svg>