<?xml version="1.0" encoding="utf-8"?>
<!DOCTYPE svg PUBLIC "-//W3C//DTD SVG 1.1//EN" "http://www.w3.org/Graphics/SVG/1.1/DTD/svg11.dtd">
<svg version="1.1" xmlns="http://www.w3.org/2000/svg" width="314" height="350" viewBox="0 0 314 350">
  <path class="state" transform="scale(0.1)" d="M505,3149l-6,263 -420,-10 9,-313 18,-532 7,-253 14,-535 10,-268 6,-221 7,-313 12,-296 17,-584 125,3 634,14h237l90,8 335,-2 367,-1 103,1 329,-6 135,-5h106l365,-12 7,293h-17l13,444 10,459 6,111 6,272 6,153 3,274 5,359 15,559 -325,10 -367,7h-191l-17,3 -742,2h-120l-9,78 33,40 20,8h-188l-194,-5h-90Z"/>
  <g class="counties" transform="scale(0.1)">
    <path data-fips-int="35001" data-name="Bernalillo County" d="M1485,1152v103v50h46v49h-125l-7,-20 -124,-4 -18,23 -146,-2 -20,-51 -59,-153 200,3Z"/>
    <path data-fips-int="35003" data-name="Catron County" d="M771,1517l-2,187h5l-5,129v220l-1,110 -140,-3 -3,161 -220,-3 -53,-7 -196,-3 -43,-4 14,-535 10,-268 322,11h136Z"/>
    <path data-fips-int="35005" data-name="Chaves County" d="M2598,1805l51,-1 3,154 61,-1 1,94 102,-1 1,50 -103,3 2,101h-23l6,253h-24l-284,7 -218,3 1,258 -4,2 -248,1 -1,-257h18v-100l201,-7v-91l9,-7 -6,-113 -3,-344h51l1,51 304,-2v-51Z"/>
    <path data-fips-int="35006" data-name="Cibola County" d="M978,1095l34,2 20,50 59,153 -64,-2 -4,223 -252,-4 -176,-5h-136l-322,-11 6,-221 277,8 3,-203 352,8v-25h50v25Z"/>
    <path data-fips-int="35007" data-name="Colfax County" d="M2534,99l4,158 5,299 -202,3 -203,4v-25h-223l6,-68 -14,-40 17,-27 -29,-35 12,-15 -9,-53 29,-32 40,-5 -3,-68 13,-40 -17,-26 7,-20 103,1 329,-6Z"/>
    <path data-fips-int="35009" data-name="Curry County" d="M3018,1283l6,111 6,272 -335,8 -3,-176h15v-52l98,-2v-53h51v-50l51,-2 -2,-51Z"/>
    <path data-fips-int="35011" data-name="DeBaca County" d="M2590,1499l8,306 -102,2v51l-304,2 -1,-51h-51l-2,-152 -1,-151 215,-2 -2,-51 51,-2v-52h100l3,102Z"/>
    <path data-fips-int="35013" data-name="Doña Ana County" d="M1417,3033h-120l-9,78 33,40 20,8h-188l-194,-5 4,-479 2,-103 203,2v-24l268,-133v55h-18v336Z"/>
    <path data-fips-int="35015" data-name="Eddy County" d="M2675,2457l6,260 45,-4 8,308 -367,7h-191l-6,-301 4,-2 -1,-258 218,-3Z"/>
    <path data-fips-int="35017" data-name="Grant County" d="M625,2321l70,2 4,69 -6,49 12,21 27,7v58l25,45 -9,88 63,13 -155,-1 -1,50 -151,-2 -6,255 7,1 -3,125 -153,-3 3,-127h-6l6,-254 -54,-4 2,-49 -103,-2 3,-102 -94,-3 7,-253 43,4 196,3 53,7Z"/>
    <path data-fips-int="35019" data-name="Guadalupe County" d="M2499,1186l2,213h-100v52l-51,2 2,51 -215,2 1,151 -202,2 -2,-152h11l-2,-256 -1,-101 290,-2 267,-5Z"/>
    <path data-fips-int="35021" data-name="Harding County" d="M2543,556v25l103,-2v52l202,-5 -3,50 3,153 3,198 -6,6 -116,4v-19h-42l-123,-221 -26,15 -159,2v-60l15,-47 -21,-59 -32,-64v-25Z"/>
    <path data-fips-int="35023" data-name="Hidalgo County" d="M502,3101l3,48 -6,263 -420,-10 9,-313 18,-532 94,3 -3,102 103,2 -2,49 54,4 -6,254h6l-3,127Z"/>
    <path data-fips-int="35025" data-name="Lea County" d="M3039,2093l5,359 15,559 -325,10 -8,-308 -45,4 -6,-260h24l-6,-253h23l-2,-101 103,-3Z"/>
    <path data-fips-int="35027" data-name="Lincoln County" d="M2138,1657l2,152 3,344 6,113 -9,7v91l-201,7 -3,-102h-199v-50l-73,2 -229,-2h-15v-51v-107l158,7v-103h62v-255h296v-51Z"/>
    <path data-fips-int="35028" data-name="Los Alamos County" d="M1484,712l1,19 -1,46v9l33,6 -33,43 -33,-29 -37,-12v-78Z"/>
    <path data-fips-int="35029" data-name="Luna County" d="M959,3154h-90l-364,-5 -3,-48 3,-125 -7,-1 6,-255 151,2 1,-50 155,1 152,2Z"/>
    <path data-fips-int="35031" data-name="McKinley County" d="M833,687l151,2 -3,151v188l-3,67 -153,-2v-25h-50v25l-352,-8 -3,203 -277,-8 7,-313 12,-296 455,10Z"/>
    <path data-fips-int="35033" data-name="Mora County" d="M1915,538h223v25l203,-4v25l32,64 21,59 -15,47v60l-305,10 -161,-58h-177l1,-60 33,10 39,-9 16,-23 20,-13 32,-57 6,-60Z"/>
    <path data-fips-int="35035" data-name="Otero County" d="M1939,2371v100h-18l1,257 248,-1 6,301 -17,3 -742,2 1,-225v-336h18v-55l-1,-198 229,2 73,-2v50h199Z"/>
    <path data-fips-int="35037" data-name="Quay County" d="M3008,824l10,459 -113,5 2,51 -51,2v50h-51v53l-98,2v52h-15l-102,1 -86,2 -3,-102 -2,-213 118,-69 9,8 106,-2 -3,-86 116,-4 6,-6 -3,-198Z"/>
    <path data-fips-int="35039" data-name="Rio Arriba County" d="M1600,110l15,55 -3,110 19,133 -6,70 -49,41 94,39 55,73 100,53 -16,23 -39,9 -33,-10v-15l-168,1 9,42 -93,-3 -1,-19 1,-20h-301l1,-128 -290,-3 -60,-3 3,-187 6,-154 80,-58 -3,-30 17,-25h237l90,8Z"/>
    <path data-fips-int="35041" data-name="Roosevelt County" d="M2692,1498l3,176 335,-8 6,153 3,274 -222,7 -1,-50 -102,1 -1,-94 -61,1 -3,-154 -51,1 -8,-306Z"/>
    <path data-fips-int="35043" data-name="Sandoval County" d="M1484,712l-70,4v78l37,12 33,29 1,317 -253,-2 -200,-3 -20,-50 -34,-2 3,-67v-188l3,-151 -151,-2 2,-129 60,3 290,3 -1,128h301Z"/>
    <path data-fips-int="35047" data-name="San Miguel County" d="M2379,814l159,-2 26,-15 123,221h42v19l3,86 -106,2 -9,-8 -118,69v-43l-267,5 -290,2 1,101 -203,2 -3,-161 -1,-326h177l161,58Z"/>
    <path data-fips-int="35049" data-name="Santa Fe County" d="M1737,706l-1,60 1,326 3,161 -255,2v-103l-1,-317 33,-43 -33,-6v-9l1,-46 93,3 -9,-42 168,-1Z"/>
    <path data-fips-int="35051" data-name="Sierra County" d="M1435,2219l1,198 -268,133v24l-203,-2 -2,103 -152,-2 -63,-13 9,-88 -25,-45v-58l-27,-7 -12,-21 6,-49 -4,-69 -70,-2 3,-161 140,3 228,2 222,4 202,-1v51Z"/>
    <path data-fips-int="35053" data-name="Socorro County" d="M1402,1604v106h238v255h-62v103l-158,-7v107l-202,1 -222,-4 -228,-2 1,-110v-220l5,-129h-5l2,-187 252,4 155,1 61,32Z"/>
    <path data-fips-int="35055" data-name="Taos County" d="M1967,109l-7,20 17,26 -13,40 3,68 -40,5 -29,32 9,53 -12,15 29,35 -17,27 14,40 -6,68 -32,16 -6,60 -32,57 -20,13 -100,-53 -55,-73 -94,-39 49,-41 6,-70 -19,-133 3,-110 -15,-55Z"/>
    <path data-fips-int="35057" data-name="Torrance County" d="M1943,1251l2,256h-11l2,152v51h-296h-238v-106v-47h-27l6,-204 25,1h125v-49h-46v-50l255,-2Z"/>
    <path data-fips-int="35059" data-name="Union County" d="M3008,824l-160,5 -3,-153 3,-50 -202,5v-52l-103,2v-25l-5,-299 -4,-158h106l365,-12 7,293h-17Z"/>
    <path data-fips-int="35061" data-name="Valencia County" d="M1091,1300l20,51 146,2 18,-23 124,4 7,20 -25,-1 -6,204h27v47l-163,-50 -61,-32 -155,-1 4,-223Z"/>
    <path data-fips-int="35045" data-name="San Juan County" d="M938,104l-17,25 3,30 -80,58 -6,154 -3,187 -2,129 -216,-6 -455,-10 17,-584 125,3Z"/>
  </g>
  <path class="mesh" transform="scale(0.1)" d="M137,1501l322,11h136l176,5 -2,187h5l-5,129v220l-1,110 -140,-3 -3,161 -220,-3 -53,-7 -196,-3 -43,-4M2140,1809l-2,-152 -1,-151 215,-2 -2,-51 51,-2v-52h100l3,102 86,-2 8,306 51,-1 3,154 61,-1 1,94 102,-1 1,50 -103,3 2,101h-23l6,253h-24l-284,7 -218,3 1,258 -4,2 -248,1 -1,-257h18v-100l201,-7v-91l9,-7 -6,-113 -3,-344h51l1,51 304,-2v-51l102,-2M143,1280l277,8 3,-203 352,8v-25h50v25l153,2 34,2 20,50M1091,1300l-64,-2 -4,223 -252,-4M2534,99l4,158 5,299 -202,3 -203,4v-25h-223l6,-68 -14,-40 17,-27 -29,-35 12,-15 -9,-53 29,-32 40,-5 -3,-68 13,-40 -17,-26 7,-20M3030,1666l-335,8 -3,-176h15v-52l98,-2v-53h51v-50l51,-2 -2,-51 113,-5M959,3154l4,-479 2,-103 203,2v-24l268,-133v55h-18v336l-1,225M2675,2457l6,260 45,-4 8,308M2176,3028l-6,-301M625,2321l70,2 4,69 -6,49 12,21 27,7v58l25,45 -9,88 63,13 -155,-1 -1,50 -151,-2 -6,255 7,1 -3,125 -153,-3 3,-127h-6l6,-254 -54,-4 2,-49 -103,-2 3,-102 -94,-3M2138,1657l-202,2 -2,-152h11l-2,-256 -1,-101 290,-2 267,-5v43l2,213M1740,1253l-255,2v50h46v49h-125l-7,-20 -124,-4 -18,23 -146,-2 -20,-51 -59,-153 200,3 253,2v103M2543,556v25l103,-2v52l202,-5 -3,50 3,153 3,198 -6,6 -116,4v-19h-42l-123,-221 -26,15 -159,2v-60l15,-47 -21,-59 -32,-64v-25M502,3101l3,48M2817,2100l222,-7M1939,2371l-3,-102h-199v-50l-73,2 -229,-2h-15v-51v-107l158,7v-103h62v-255h296v-51M1484,786l33,6 -33,43 -33,-29 -37,-12v-78l70,-4 1,19 -1,46M811,2673l152,2M162,671l455,10 216,6 151,2 -3,151v188l-3,67M2379,814l-305,10 -161,-58h-177l1,-60 33,10 39,-9 16,-23 20,-13 32,-57 6,-60 32,-16M1436,2417l-1,-198M2692,1498l-102,1M2499,1186l118,-69 9,8 106,-2 -3,-86M2848,829l160,-5M1600,110l15,55 -3,110 19,133 -6,70 -49,41 94,39 55,73 100,53M1737,706v-15l-168,1 9,42 -93,-3M1484,712l1,-20h-301l1,-128 -290,-3 -60,-3 3,-187 6,-154 80,-58 -3,-30 17,-25M1484,835l1,317M833,687l2,-129M1943,1251l-203,2 -3,-161 -1,-326M768,2163l228,2 222,4 202,-1M1023,1521l155,1 61,32 163,50v106h238M1402,1604v-47h-27l6,-204 25,1"/>
  <g class="cities">
    <circle r="3" cx="129.2" cy="122.8"/>
    <text x="129.2" y="122.8">Albuquerque</text>
    <circle r="3" cx="121.9" cy="285.0"/>
    <text x="121.9" y="285.0">Las Cruces</text>
    <circle r="3" cx="163.3" cy="87.6"/>
    <text x="163.3" y="87.6">Santa Fe</text>
  </g>
</svg>