<?xml version="1.0" encoding="utf-8"?>
<!DOCTYPE svg PUBLIC "-//W3C//DTD SVG 1.1//EN" "http://www.w3.org/Graphics/SVG/1.1/DTD/svg11.dtd">
<svg version="1.1" xmlns="http://www.w3.org/2000/svg" width="897" height="1000" viewBox="0 0 897 1000">
  <path class="state" d="M143,899l-1,76 -120,-3 3,-91 2,-58 1,-55 2,-39 1,-71 2,-30 1,-57 2,-29 1,-82 2,-31 2,-63 2,-51v-31l3,-93 2,-75 1,-29 2,-62 82,1 99,1 36,2h37l36,2h116h104l56,-2h62l45,-2 57,-2h31h45l2,83h-4l2,74 2,54 3,131v22l3,86 2,35 1,88v81l3,110 3,71 -94,3h-43l-62,2h-53l-21,1h-197h-34l1,13 -4,3 8,17 8,3h-91l-18,-1h-49Z"/>
  <g class="counties">
    <path data-fips-int="35001" data-name="Bernalillo County" d="M425,329v29v15h12v14h-35l-3,-6 -36,-1 -4,5h-42l-5,-13 -18,-45 9,1h93Z"/>
    <path data-fips-int="35003" data-name="Catron County" d="M221,433l-1,5v156l-1,24 -40,-1 -1,46h-43l-34,-3 -70,-2 2,-30 1,-57 2,-29 1,-82 2,-31 73,3h44Z"/>
    <path data-fips-int="35005" data-name="Chaves County" d="M742,515h14v44h18v27h29v14l-29,1 1,28h-7l3,73h-8l-60,1 -84,1 1,4v71h-1l-70,1v-60l-1,-15h4v-28h29l29,-2 1,-43v-57l-1,-59h15v15h59l29,-1v-14Z"/>
    <path data-fips-int="35006" data-name="Cibola County" d="M279,313h10l5,14 18,45 -19,-1 -1,63 -71,-1 -65,-1h-44l-73,-3 2,-63 78,2 2,-58 101,2v-7h14l-1,8Z"/>
    <path data-fips-int="35007" data-name="Colfax County" d="M724,27l2,132 -58,1h-58v-7l-64,1 3,-40 -8,-10 3,-12 -2,-9 7,-7 11,1 1,-23 3,-9 -3,-14 56,-2h62Z"/>
    <path data-fips-int="35009" data-name="Curry County" d="M862,367v22l3,86 -12,1 -84,1 -1,-49h5l-1,-16h29v-15h14v-14l15,-1v-14Z"/>
    <path data-fips-int="35011" data-name="DeBaca County" d="M739,428v36l3,51 -29,1v14l-29,1h-59v-15h-15v-43v-42l62,-1 -1,-16h14v-14l29,-1 1,30Z"/>
    <path data-fips-int="35013" data-name="Doña Ana County" d="M404,866h-34l1,13 -4,3 8,17 8,3h-91l-18,-1v-63v-74v-29l59,1v-8l48,-23 28,-15v16h-5v103Z"/>
    <path data-fips-int="35015" data-name="Eddy County" d="M763,702l3,74h12l1,8 1,79h-43l-62,2h-53l-3,-42v-44h1v-71l-1,-4 84,-1Z"/>
    <path data-fips-int="35017" data-name="Grant County" d="M178,663l20,1 1,20 -1,13 11,8v17l7,12 -3,26 18,3h-44v15l-44,-1 -1,73 1,36 -43,-1 -1,-41 2,-68h-17l1,-15h-29l1,-30 -27,-2 1,-71 70,2 34,3Z"/>
    <path data-fips-int="35019" data-name="Guadalupe County" d="M713,338l1,61 -29,1v14h-14l1,16 -62,1v42h-58v-42h3v-74l-1,-29h91l4,-1h58l6,-1Z"/>
    <path data-fips-int="35021" data-name="Harding County" d="M726,159v7l29,-1v15l58,-1v58l1,57 -5,2h-30v-5h-13l-35,-63 -6,4 -47,1 -3,-15 9,-16 -6,-18 -6,-8 -4,-16Z"/>
    <path data-fips-int="35023" data-name="Hidalgo County" d="M143,886v13l-1,76 -120,-3 3,-91 2,-58 1,-55 2,-39 27,2 -1,30h29l-1,15h17l-2,68 1,41Z"/>
    <path data-fips-int="35025" data-name="Lea County" d="M868,598v81l3,110 3,71 -94,3 -1,-79 -1,-8h-12l-3,-74h8l-3,-73h7l-1,-28 29,-1Z"/>
    <path data-fips-int="35027" data-name="Lincoln County" d="M610,473v43l1,59v57l-1,43 -29,2h-29v-29h-56v-14h-87h-3v-15v-31l44,2v-29h18v-72h84v-16Z"/>
    <path data-fips-int="35028" data-name="Los Alamos County" d="M424,203l1,6 -1,12h-5l5,3 10,2 -10,12 -10,-8h-12l1,-26Z"/>
    <path data-fips-int="35029" data-name="Luna County" d="M274,901h-49l-82,-2v-13l-1,-36 1,-73 44,1v-15h44l43,1v74Z"/>
    <path data-fips-int="35031" data-name="McKinley County" d="M238,196h42l-1,117h-44l1,-8h-14v7l-101,-2 -2,58 -78,-2 2,-51v-31l3,-93 78,3h43Z"/>
    <path data-fips-int="35033" data-name="Mora County" d="M546,154l64,-1v7h58l4,16 6,8 6,18 -9,16 3,15 -85,2 -4,3 -13,-9 -30,-10h-51l1,-18 20,1 4,-6 4,-1 11,-19 2,-18Z"/>
    <path data-fips-int="35035" data-name="Otero County" d="M552,677v28h-4l1,15v60l70,-1v44l3,42 -21,1h-197v-57v-103h5v-16v-56h87v14h56Z"/>
    <path data-fips-int="35037" data-name="Quay County" d="M859,236l3,131 -32,1v14l-15,1v14h-14v15h-29l1,16h-5h-29l-24,1 -1,-30 -1,-61 37,-21v4h30l-1,-25h30l5,-2 -1,-57Z"/>
    <path data-fips-int="35039" data-name="Rio Arriba County" d="M457,31l4,15 -1,41 3,10 2,25 -1,16 -14,10 22,9 19,22 29,17 -4,6 -20,-1v-3h-48l2,11h-25l-1,-6 1,-5h-87v-37l-1,-1h-68h-30v-47l1,-46 5,-11 18,-11 5,-16h37l36,2Z"/>
    <path data-fips-int="35041" data-name="Roosevelt County" d="M768,428l1,49 84,-1 12,-1 2,35 1,88 -65,2v-14h-29v-27h-18v-44h-14l-3,-51v-36Z"/>
    <path data-fips-int="35043" data-name="Sandoval County" d="M424,203l-21,1 -1,26h12l10,8v85l1,6 -29,-1h-93l-9,-1 -5,-14h-10l1,-117h-42l1,-36h30h68l1,1v37h87Z"/>
    <path data-fips-int="35047" data-name="San Miguel County" d="M678,233l47,-1 6,-4 35,63h13v5l1,25h-30v-4l-37,21v-12l-6,1h-58l-4,1h-91l1,29h-54l-4,1 -1,-17v-92l-1,-30h51l30,10 13,9 4,-3Z"/>
    <path data-fips-int="35049" data-name="Santa Fe County" d="M496,201l-1,18 1,30v92l1,17h-72v-29l-1,-6v-85l10,-12 -10,-2v-3l1,-12h25l-2,-11h48Z"/>
    <path data-fips-int="35051" data-name="Sierra County" d="M409,634v56l-28,15 -48,23v8l-59,-1v29l-43,-1 -18,-3 3,-26 -7,-12v-17l-11,-8 1,-13 -1,-20 -20,-1 1,-46 40,1h65l2,1 105,1 15,-1v15Z"/>
    <path data-fips-int="35053" data-name="Socorro County" d="M399,458l2,31h67v72h-18v29l-44,-2v31l-15,1 -105,-1 -2,-1h-65l1,-24v-156l1,-5 71,1h45l14,9 36,12Z"/>
    <path data-fips-int="35055" data-name="Taos County" d="M561,31l3,14 -3,9 -1,23 -11,-1 -7,7 2,9 -3,12 8,10 -3,40 -9,4 -2,18 -11,19 -4,1 -29,-17 -19,-22 -22,-9 14,-10 1,-16 -2,-25 -3,-10 1,-41 -4,-15Z"/>
    <path data-fips-int="35057" data-name="Torrance County" d="M555,357v74h-3v42v16h-84h-67l-2,-31v-13h-6l1,-58h8h35v-14h-12v-15h72l4,-1Z"/>
    <path data-fips-int="35059" data-name="Union County" d="M859,236l-46,1v-58l-58,1v-15l-29,1v-7l-2,-132 57,-2h31h45l2,83h-4l2,74Z"/>
    <path data-fips-int="35061" data-name="Valencia County" d="M312,372l5,13h42l4,-5 36,1 3,6h-8l-1,58h6v13l-12,-3 -36,-12 -14,-9h-45l1,-63Z"/>
    <path data-fips-int="35045" data-name="San Juan County" d="M268,29l-5,16 -18,11 -5,11 -1,46v47l-1,36 -71,-2h-43l-78,-3 2,-75 1,-29 2,-62 82,1 99,1Z"/>
  </g>
  <path class="mesh" d="M39,429l73,3h44l65,1 -1,5v156l-1,24 -40,-1 -1,46h-43l-34,-3 -70,-2M610,516v-43v-42l62,-1 -1,-16h14v-14l29,-1 1,30 24,-1v36l3,51h14v44h18v27h29v14l-29,1 1,28h-7l3,73h-8l-60,1 -84,1 1,4v71h-1l-70,1v-60l-1,-15h4v-28h29l29,-2 1,-43v-57l-1,-59h15v15h59l29,-1v-14l29,-1M41,366l78,2 2,-58 101,2v-7h14l-1,8h44h10l5,14M312,372l-19,-1 -1,63 -71,-1M724,27l2,132 -58,1h-58v-7l-64,1 3,-40 -8,-10 3,-12 -2,-9 7,-7 11,1 1,-23 3,-9 -3,-14M865,475l-12,1 -84,1 -1,-49h5l-1,-16h29v-15h14v-14l15,-1v-14l32,-1M274,901v-63v-74v-29l59,1v-8l48,-23 28,-15v16h-5v103v57M763,702l3,74h12l1,8 1,79M622,865l-3,-42v-44M178,663l20,1 1,20 -1,13 11,8v17l7,12 -3,26 18,3h-44v15l-44,-1 -1,73 1,36 -43,-1 -1,-41 2,-68h-17l1,-15h-29l1,-30 -27,-2M610,473h-58v-42h3v-74l-1,-29h91l4,-1h58l6,-1v12l1,61M497,358h-72v15h12v14h-35l-3,-6 -36,-1 -4,5h-42l-5,-13 -18,-45 9,1h93l29,1v29M726,159v7l29,-1v15l58,-1v58l1,57 -5,2h-30v-5h-13l-35,-63 -6,4 -47,1 -3,-15 9,-16 -6,-18 -6,-8 -4,-16M143,886v13M803,600l65,-2M552,677v-29h-56v-14h-87h-3v-15v-31l44,2v-29h18v-72h84v-16M424,224l10,2 -10,12 -10,-8h-12l1,-26 21,-1 1,6 -1,12M231,763l43,1M46,191l78,3h43l71,2h42l-1,117M678,233l-85,2 -4,3 -13,-9 -30,-10h-51l1,-18 20,1 4,-6 4,-1 11,-19 2,-18 9,-4M409,690v-56M768,428h-29M713,338l37,-21v4h30l-1,-25M813,237l46,-1M457,31l4,15 -1,41 3,10 2,25 -1,16 -14,10 22,9 19,22 29,17M496,201v-3h-48l2,11h-25M424,203l1,-5h-87v-37l-1,-1h-68h-30v-47l1,-46 5,-11 18,-11 5,-16M424,238v85l1,6M238,196l1,-36M555,357h-54l-4,1 -1,-17v-92l-1,-30M219,618h65l2,1 105,1 15,-1M292,434h45l14,9 36,12 12,3 2,31h67M399,458v-13h-6l1,-58h8"/>
  <g class="cities">
    <circle r="7" cx="369" cy="351"/>
    <text x="369" y="351">Albuquerque</text>
    <circle r="7" cx="348" cy="814"/>
    <text x="348" y="814">Las Cruces</text>
    <circle r="7" cx="467" cy="250"/>
    <text x="467" y="250">Santa Fe</text>
  </g>
</svg>