<?xml version="1.0" encoding="utf-8"?>
<!DOCTYPE svg PUBLIC "-//W3C//DTD SVG 1.1//EN" "http://www.w3.org/Graphics/SVG/1.1/DTD/svg11.dtd">
<svg version="1.1" xmlns="http://www.w3.org/2000/svg" width="314" height="350" viewBox="0 0 314 350">
  <path class="state" transform="scale(0.1)" d="M1484,777v10v-10M938,104l237,1 90,5h335l367,-1 73,1 359,-5 135,-5 471,-13 7,293h-17l13,444 12,461 4,109 6,272 6,153 3,274 5,359 16,561 -326,8 -367,7 -191,1 -17,2 -744,2h-118l2,48 -17,12 35,56 24,10h-188l-194,-3 -454,-7 -6,263 -274,-5 -146,-5 9,-311 4,-95 14,-439 6,-253 3,-135 12,-301 8,-366 8,-224 9,-359 9,-248 16,-584 263,8 498,9"/>
  <g class="counties" transform="scale(0.1)">
    <path data-fips-int="35001" data-name="Bernalillo County" d="M1487,1152v103v50h44v49h-125l-6,-20 -125,-3 -18,22 -146,-2 -20,-50 -59,-154 200,3Z"/>
    <path data-fips-int="35003" data-name="Catron County" d="M772,1517l-4,187h6l-5,129v220l-1,110 -140,-3 -3,161 -220,-3 -53,-7 -196,-3 -44,-4 3,-135 12,-301 8,-366 324,10h136Z"/>
    <path data-fips-int="35005" data-name="Chaves County" d="M2598,1805l51,-1 3,154 59,-1 3,94 102,-1 1,50 -103,3v101h-21l6,253h-24l-502,10 1,256 -4,4 -248,3 -1,-259h18v-100l201,-7v-91l9,-7 -6,-113 -3,-344h51l1,51 304,-2v-51Z"/>
    <path data-fips-int="35006" data-name="Cibola County" d="M978,1095l34,2 20,50 59,154 -64,-1 -4,221 -251,-4 -177,-5h-136l-324,-10 8,-224 277,10 3,-203 352,8v-25h50v25Z"/>
    <path data-fips-int="35007" data-name="Colfax County" d="M2534,100l4,157 5,299 -200,3h-2l-203,4v-25h-223l1,-97 8,-38 -29,-35 11,-20 -8,-48 27,-32h39v-73l13,-40 -17,-26 7,-20 73,1 359,-5Z"/>
    <path data-fips-int="35009" data-name="Curry County" d="M3020,1285l4,109 6,272 -335,8 -3,-176h15v-52l100,-2v-51l49,-2v-50l51,-2 -2,-51Z"/>
    <path data-fips-int="35011" data-name="DeBaca County" d="M2590,1499l3,193 5,113 -102,2v51l-304,2 -1,-51h-51l-2,-152 -1,-151 215,-2 -2,-53h51v-50l100,-2 3,100Z"/>
    <path data-fips-int="35013" data-name="Doña Ana County" d="M1415,3033h-118l2,48 -17,12 35,56 24,10h-188l-194,-3 4,-483 2,-99 203,1v-25l268,-133v55h-19v338Z"/>
    <path data-fips-int="35015" data-name="Eddy County" d="M2675,2457l6,260 45,-2 8,306 -367,7 -191,1 -6,-302 4,-4 -1,-256Z"/>
    <path data-fips-int="35017" data-name="Grant County" d="M625,2321l67,8 10,5 -9,8 8,107 33,22 -2,56 12,30 13,15 -7,87 61,14 -155,-1 -1,50 -151,-2 -6,255h7l-3,126 -153,-3 3,-127h-6l6,-254 -54,-2 2,-51 -102,-2 2,-102 -94,-3 6,-253 44,4 196,3 53,7Z"/>
    <path data-fips-int="35019" data-name="Guadalupe County" d="M2499,1186l2,213 -100,2v50h-51l2,53 -215,2 1,151h-202l-2,-150h11l-2,-256 -1,-101 290,-2 267,-5Z"/>
    <path data-fips-int="35021" data-name="Harding County" d="M2543,556v25l103,-2v52l201,-5 -3,51 6,152 1,198 -4,6 -118,4v-19h-42l-123,-219 -26,13 -159,2 -12,-47 27,-58 -12,-12 -12,-54 -29,-59 2,-25Z"/>
    <path data-fips-int="35023" data-name="Hidalgo County" d="M502,3101l3,48 -6,263 -274,-5 -146,-5 9,-311 4,-95 14,-439 94,3 -2,102 102,2 -2,51 54,2 -6,254h6l-3,127Z"/>
    <path data-fips-int="35025" data-name="Lea County" d="M3039,2093l5,359 16,561 -326,8 -8,-306 -45,2 -6,-260h24l-6,-253h21v-101l103,-3Z"/>
    <path data-fips-int="35027" data-name="Lincoln County" d="M2138,1657l2,152 3,344 6,113 -9,7v91l-201,7 -3,-102h-199v-50l-73,2 -229,-2h-14v-51v-107l157,7v-103h62v-255h296v-53Z"/>
    <path data-fips-int="35028" data-name="Los Alamos County" d="M1484,712l3,20 -3,45v10l34,17 -34,31 -33,-31 -37,-12v-78Z"/>
    <path data-fips-int="35029" data-name="Luna County" d="M959,3156l-454,-7 -3,-48 3,-126h-7l6,-255 151,2 1,-50 155,1h152Z"/>
    <path data-fips-int="35031" data-name="McKinley County" d="M833,687l151,2 -3,151v188l-3,67 -153,-2v-25h-50v25l-352,-8 -3,203 -277,-10 9,-359 9,-248 456,10Z"/>
    <path data-fips-int="35033" data-name="Mora County" d="M1915,538h223v25l203,-4h2l-2,25 29,59 12,54 12,12 -27,58 12,47 -305,10 -161,-57h-177l1,-61 33,8 39,-8 16,-22 20,-13 32,-57 6,-60Z"/>
    <path data-fips-int="35035" data-name="Otero County" d="M1939,2371v100h-18l1,259 248,-3 6,302 -17,2 -744,2 2,-223v-338h19v-55l-1,-198 229,2 73,-2v50h199Z"/>
    <path data-fips-int="35037" data-name="Quay County" d="M3008,824l12,461 -115,3 2,51 -51,2v50l-49,2v51l-100,2v52h-15l-102,1h-86l-3,-100 -2,-213 117,-69 10,8 106,-2 -3,-86 118,-4 4,-6 -1,-198Z"/>
    <path data-fips-int="35039" data-name="Rio Arriba County" d="M1600,110l15,55 -3,110 19,146 -6,55 -49,43 94,39 55,73 100,53 -16,22 -39,8 -33,-8v-17l-168,3 9,40h-91l-3,-20 3,-20h-303l1,-128 -290,-3 -60,-3 3,-187 6,-154 80,-60 -3,-28 17,-25 237,1 90,5Z"/>
    <path data-fips-int="35041" data-name="Roosevelt County" d="M2692,1498l3,176 335,-8 6,153 3,274 -222,7 -1,-50 -102,1 -3,-94 -59,1 -3,-154 -51,1 -5,-113 -3,-193Z"/>
    <path data-fips-int="35043" data-name="Sandoval County" d="M1484,712l-70,2v78l37,12 33,31 3,317 -255,-2 -200,-3 -20,-50 -34,-2 3,-67v-188l3,-151 -151,-2 2,-129 60,3 290,3 -1,128h303Z"/>
    <path data-fips-int="35047" data-name="San Miguel County" d="M2379,814l159,-2 26,-13 123,219h42v19l3,86 -106,2 -10,-8 -117,69v-43l-267,5 -290,2 1,101 -203,2 -3,-161 -1,-325h177l161,57Z"/>
    <path data-fips-int="35049" data-name="Santa Fe County" d="M1737,706l-1,61 1,325 3,161 -253,2v-103l-3,-317 34,-31 -34,-17v-10l3,-45h91l-9,-40 168,-3Z"/>
    <path data-fips-int="35051" data-name="Sierra County" d="M1435,2219l1,198 -268,133v25l-203,-1 -2,99h-152l-61,-14 7,-87 -13,-15 -12,-30 2,-56 -33,-22 -8,-107 9,-8 -10,-5 -67,-8 3,-161 140,3 219,2 231,4 203,-1v51Z"/>
    <path data-fips-int="35053" data-name="Socorro County" d="M1402,1606v104h238v255h-62v103l-157,-7v107l-203,1 -231,-4 -219,-2 1,-110v-220l5,-129h-6l4,-187 251,4 155,1 54,29Z"/>
    <path data-fips-int="35055" data-name="Taos County" d="M1967,109l-7,20 17,26 -13,40v73h-39l-27,32 8,48 -11,20 29,35 -8,38 -1,97 -32,16 -6,60 -32,57 -20,13 -100,-53 -55,-73 -94,-39 49,-43 6,-55 -19,-146 3,-110 -15,-55Z"/>
    <path data-fips-int="35057" data-name="Torrance County" d="M1943,1251l2,256h-11l2,150v53h-296h-238v-104v-49h-27l6,-204 25,1h125v-49h-44v-50l253,-2Z"/>
    <path data-fips-int="35059" data-name="Union County" d="M3008,824l-158,5 -6,-152 3,-51 -201,5v-52l-103,2v-25l-5,-299 -4,-157 471,-13 7,293h-17Z"/>
    <path data-fips-int="35061" data-name="Valencia County" d="M1091,1301l20,50 146,2 18,-22 125,3 6,20 -25,-1 -6,204h27v49l-170,-55 -54,-29 -155,-1 4,-221Z"/>
    <path data-fips-int="35045" data-name="San Juan County" d="M938,104l-17,25 3,28 -80,60 -6,154 -3,187 -2,129 -216,-6 -456,-10 16,-584 263,8Z"/>
  </g>
  <path class="mesh" transform="scale(0.1)" d="M1091,1301l-59,-154 200,3 255,2v103v50h44v49h-125l-6,-20 -125,-3 -18,22 -146,-2 -20,-50 -64,-1 -4,221 -251,-4 -4,187h6l-5,129v220l-1,110 -140,-3 -3,161 -220,-3 -53,-7 -196,-3 -44,-4M2140,1809l-2,-152 -1,-151 215,-2 -2,-53h51v-50l100,-2 3,100h86l3,193 5,113 51,-1 3,154 59,-1 3,94 102,-1 1,50 -103,3v101h-21l6,253h-24l-502,10 1,256 -4,4 -248,3 -1,-259h18v-100l201,-7v-91l9,-7 -6,-113 -3,-344h51l1,51 304,-2v-51l102,-2M2534,100l4,157 5,299 -200,3h-2l-203,4v-25h-223l1,-97 8,-38 -29,-35 11,-20 -8,-48 27,-32h39v-73l13,-40 -17,-26 7,-20M3030,1666l-335,8 -3,-176h15v-52l100,-2v-51l49,-2v-50l51,-2 -2,-51 115,-3M959,3156l4,-483 2,-99 203,1v-25l268,-133v55h-19v338l-2,223M2675,2457l6,260 45,-2 8,306M2176,3029l-6,-302M625,2321l67,8 10,5 -9,8 8,107 33,22 -2,56 12,30 13,15 -7,87 61,14 -155,-1 -1,50 -151,-2 -6,255h7l-3,126 -153,-3 3,-127h-6l6,-254 -54,-2 2,-51 -102,-2 2,-102 -94,-3M2138,1657h-202l-2,-150h11l-2,-256 -1,-101 290,-2 267,-5v43l2,213M2543,556v25l103,-2v52l201,-5 -3,51 6,152 1,198 -4,6 -118,4v-19h-42l-123,-219 -26,13 -159,2 -12,-47 27,-58 -12,-12 -12,-54 -29,-59 2,-25M502,3101l3,48M2817,2100l222,-7M1939,2371l-3,-102h-199v-50l-73,2 -229,-2h-14v-51v-107l157,7v-103h62v-255h296v-53M1484,787l34,17 -34,31 -33,-31 -37,-12v-78l70,-2 3,20 -3,45M811,2673h152M161,671l456,10 216,6 151,2 -3,151v188l-3,67M2379,814l-305,10 -161,-57h-177l1,-61 33,8 39,-8 16,-22 20,-13 32,-57 6,-60 32,-16M1436,2417l-1,-198M2692,1498l-102,1M2499,1186l117,-69 10,8 106,-2 -3,-86M2850,829l158,-5M1600,110l15,55 -3,110 19,146 -6,55 -49,43 94,39 55,73 100,53M1737,706v-17l-168,3 9,40h-91M1484,712l3,-20h-303l1,-128 -290,-3 -60,-3 3,-187 6,-154 80,-60 -3,-28 17,-25M1484,835l3,317M833,687l2,-129M1943,1251l-203,2 -3,-161 -1,-325M1740,1253l-253,2M768,2163l219,2 231,4 203,-1M1023,1521l155,1 54,29 170,55v104h238M1402,1606v-49h-27l6,-204 25,1M135,1502l324,10h136l177,5M143,1278l277,10 3,-203 352,8v-25h50v25l153,2 34,2 20,50"/>
  <g class="cities">
    <circle r="3" cx="129.2" cy="122.9"/>
    <text x="129.2" y="122.9">Albuquerque</text>
    <circle r="3" cx="121.9" cy="285.0"/>
    <text x="121.9" y="285.0">Las Cruces</text>
    <circle r="3" cx="163.3" cy="87.6"/>
    <text x="163.3" y="87.6">Santa Fe</text>
  </g>
</svg>