<?xml version="1.0" encoding="utf-8"?>
<!DOCTYPE svg PUBLIC "-//W3C//DTD SVG 1.1//EN" "http://www.w3.org/Graphics/SVG/1.1/DTD/svg11.dtd">
<svg version="1.1" xmlns="http://www.w3.org/2000/svg" width="314" height="350" viewBox="0 0 314 350">
  <defs>
    <pattern id="pattern-no-results" width="50" height="50" patternUnits="userSpaceOnUse">
      <rect width="50" height="50" fill="#ddd"/>
      <path d="M-5,5L5,-5M-5,55L55,-5M45,55L55,45" stroke-width="10" stroke="#666666"/>
    </pattern>
  </defs>
  <g class="counties" transform="scale(0.1)">
    <path data-fips-int="35001" data-name="Bernalillo County" d="M1486,1152l1,25 -1,77 0,51 45,0 1,48 -92,0 -34,0 0,-11 -6,-7 -60,-3 -66,0 -17,21 -90,0 -55,-2 -20,-50 -24,-63 -28,-69 -8,-22 58,1 175,2 123,0 58,1Z"/>
    <path data-fips-int="35003" data-name="Catron County" d="M773,1518l-2,42 0,77 -2,68 5,2 0,30 -3,67 0,77 -1,39 1,47 0,51 -2,52 -1,93 -10,-1 -102,0 -28,-2 -3,161 -108,-1 -32,-1 -81,-2 -45,-5 -43,-1 -40,-2 -65,-2 -45,0 -53,-2 2,-90 7,-221 3,-97 2,-82 4,-120 5,-192 31,0 159,5 105,2 22,2 142,1 47,3 42,0 22,1Z"/>
    <path data-fips-int="35005" data-name="Chaves County" d="M2598,1804l51,0 3,154 60,-1 2,95 102,-3 0,51 -71,2 -31,0 1,72 0,30 -21,1 1,85 1,7 2,89 1,71 -23,1 -29,0 -62,2 -135,2 -27,1 -38,0 -107,3 -106,1 1,43 0,87 1,42 1,87 -5,0 -57,1 -78,0 -30,2 -83,0 0,-161 -1,-98 18,0 -1,-100 12,0 90,0 9,-2 41,0 4,-4 45,0 1,-69 -1,-28 9,0 0,-52 -4,-2 -2,-248 -2,-20 -1,-137 52,0 1,52 205,0 100,-2 0,-52 75,0Z"/>
    <path data-fips-int="35006" data-name="Cibola County" d="M978,1095l34,1 12,33 8,18 8,22 28,69 24,63 -66,-1 0,93 -2,65 0,63 -36,0 -81,-2 -50,0 -36,-1 -48,0 -67,-1 -22,-1 -42,0 -47,-3 -142,-1 -22,-2 -105,-2 -159,-5 -31,0 2,-60 2,-40 4,-123 79,3 102,2 95,3 0,-26 5,-177 128,2 134,4 88,2 1,-26 51,1 -1,26 50,1Z"/>
    <path data-fips-int="35007" data-name="Colfax County" d="M2534,101l1,35 2,101 1,38 1,84 2,60 0,72 2,65 -59,1 -67,2 -76,0 -75,2 -44,0 -33,1 -50,0 -1,-25 -85,1 -131,0 -8,1 6,-9 -4,-17 3,-20 -2,-16 4,-12 -7,-34 -7,1 9,-24 7,-4 -11,-12 -3,-11 -14,-12 13,-6 -5,-19 -6,-8 4,-12 7,-3 -10,-27 17,-13 6,2 5,-15 11,-2 11,7 16,-5 3,-6 -1,-23 -4,-10 4,-8 -2,-26 13,-40 -5,-1 -11,-23 -1,-13 8,-8 25,-1 77,1 137,-2 62,-2 58,0 71,-1 23,-2Z"/>
    <path data-fips-int="35009" data-name="Curry County" d="M3020,1284l4,125 7,248 0,8 -98,2 -31,2 -101,2 -21,1 -85,1 -1,-75 -2,-101 15,0 0,-52 66,0 34,-2 -1,-50 51,-2 -1,-50 50,-2 -1,-52 24,0Z"/>
    <path data-fips-int="35011" data-name="DeBaca County" d="M2590,1499l4,160 0,34 2,14 2,97 -26,2 -75,0 0,52 -100,2 -205,0 -1,-52 -52,0 0,-43 0,-97 -1,-11 0,-98 -2,-53 52,0 34,-1 60,0 69,-1 0,-51 51,-2 -1,-50 100,-2 3,101Z"/>
    <path data-fips-int="35013" data-name="Doña Ana County" d="M1417,3033l-120,0 -10,11 9,6 -1,20 -4,6 8,3 -10,6 -6,9 8,7 -3,10 10,12 3,9 14,16 20,2 6,10 -27,-1 -79,0 -124,-1 -44,0 -109,-1 2,-46 0,-81 0,-48 1,-50 0,-55 2,-123 0,-79 1,-101 44,0 35,1 124,1 0,-25 63,-32 52,-25 62,-31 93,-45 -1,55 -17,0 -1,122 0,208 -1,84Z"/>
    <path data-fips-int="35015" data-name="Eddy County" d="M2676,2458l1,84 3,91 1,83 46,0 2,99 2,78 2,128 -185,4 -216,3 -156,2 -1,-54 -1,-93 -2,0 -2,-78 0,-79 5,0 -1,-87 -1,-42 0,-87 -1,-43 106,-1 107,-3 38,0 27,-1 135,-2 62,-2Z"/>
    <path data-fips-int="35017" data-name="Grant County" d="M625,2321l62,1 16,12 -7,7 -1,13 6,30 -2,8 6,6 -12,21 5,13 -4,10 7,6 5,14 14,4 4,6 9,-2 -1,13 5,10 -7,9 4,27 6,2 6,13 -3,11 4,10 11,10 -2,20 1,24 -4,3 1,17 -6,19 9,4 54,11 -77,-1 -79,0 -1,50 -73,0 -77,-2 -2,63 0,30 -2,72 -1,60 -1,30 7,1 -3,125 -118,-2 -35,-1 3,-126 -7,0 5,-134 0,-47 3,-75 -55,-1 1,-51 -101,-4 1,-101 -94,-2 2,-101 4,-82 2,-69 53,2 45,0 65,2 40,2 43,1 45,5 81,2 32,1Z"/>
    <path data-fips-int="35019" data-name="Guadalupe County" d="M2500,1186l1,64 0,46 -1,0 1,103 -100,2 1,50 -51,2 0,51 -69,1 -60,0 -34,1 -52,0 2,53 0,98 -124,1 -79,1 -1,-152 11,0 -1,-84 0,-73 -1,-98 -1,-102 58,-1 82,0 131,-1 140,-3 45,0 101,-2Z"/>
    <path data-fips-int="35021" data-name="Harding County" d="M2543,556l0,25 102,-1 1,51 47,-1 67,-2 89,-2 1,51 -5,1 4,130 0,21 1,51 -2,0 4,130 0,19 -5,4 -117,4 -1,-19 -42,1 -98,-174 -26,-46 -21,12 -57,1 -107,3 -4,-28 -7,-19 10,-10 2,-11 8,-9 -5,-14 11,-14 -11,-12 7,-10 -12,-10 2,-14 -9,-5 4,-11 -15,-14 -1,-14 -6,-5 5,-19 -10,-17 -5,5 2,-21 -3,-4 76,0 67,-2Z"/>
    <path data-fips-int="35023" data-name="Hidalgo County" d="M502,3101l-1,26 4,0 0,22 -1,41 -4,201 0,21 -203,-5 -72,-1 -146,-4 5,-160 1,-73 5,-98 1,-76 2,-57 2,-75 6,-203 4,-103 94,2 -1,101 101,4 -1,51 55,1 -3,75 0,47 -5,134 7,0 -3,126 35,1Z"/>
    <path data-fips-int="35025" data-name="Lea County" d="M3039,2094l1,127 2,56 1,171 1,4 4,137 10,351 2,72 -35,1 -292,8 -2,-128 -2,-78 -2,-99 -46,0 -1,-83 -3,-91 -1,-84 23,-1 -1,-71 -2,-89 -1,-7 -1,-85 21,-1 0,-30 -1,-72 31,0 71,-2 91,-2 52,-2Z"/>
    <path data-fips-int="35027" data-name="Lincoln County" d="M2138,1657l1,11 0,97 0,43 1,137 2,20 2,248 4,2 0,52 -9,0 1,28 -1,69 -45,0 -4,4 -41,0 -9,2 -90,0 -12,0 0,-47 -1,-54 -6,0 -130,0 -64,1 0,-50 -84,0 -8,1 -110,0 -101,-2 -12,0 -1,-51 0,-106 52,0 46,4 7,2 51,0 0,-103 63,0 0,-25 0,-194 0,-35 100,0 22,0 126,0 47,-1 0,-51 79,-1Z"/>
    <path data-fips-int="35028" data-name="Los Alamos County" d="M1486,712l1,20 -2,45 -13,0 13,10 13,6 23,2 -3,9 -7,3 -1,9 -13,13 -12,7 -4,-9 -12,-12 -35,-15 -11,5 -12,0 -6,-12 9,0 0,-71 6,-2 32,1 9,-5 0,-8 17,0Z"/>
    <path data-fips-int="35029" data-name="Luna County" d="M958,3157l-111,-2 -81,-1 -44,-1 -97,-2 -120,-2 0,-22 -4,0 1,-26 3,-125 -7,-1 1,-30 1,-60 2,-72 0,-30 2,-63 77,2 73,0 1,-50 79,0 77,1 152,2 0,79 -2,123 0,55 -1,50 0,48 0,81Z"/>
    <path data-fips-int="35031" data-name="McKinley County" d="M833,687l95,1 56,2 -1,40 -1,90 -1,37 0,68 0,104 -2,0 -1,66 -102,0 -50,-1 1,-26 -51,-1 -1,26 -88,-2 -134,-4 -128,-2 -5,177 0,26 -95,-3 -102,-2 -79,-3 2,-80 3,-103 1,-47 1,-41 6,-193 3,-78 2,-68 162,5 48,0 197,5 121,3 54,2Z"/>
    <path data-fips-int="35033" data-name="Mora County" d="M1914,539l8,-1 131,0 85,-1 1,25 50,0 33,-1 44,0 75,-2 3,4 -2,21 5,-5 10,17 -5,19 6,5 1,14 15,14 -4,11 9,5 -2,14 12,10 -7,10 11,12 -11,14 5,14 -8,9 -2,11 -10,10 7,19 4,28 -72,1 -71,3 -51,0 -52,3 -49,1 -15,4 -2,7 -16,-15 -4,0 -25,-16 -15,-2 -4,-4 -43,-13 -47,-17 -60,1 -116,0 1,-63 5,6 13,0 9,6 7,-3 6,-10 15,4 15,0 16,-10 2,-13 9,-3 11,-12 11,-23 21,-32 2,-16 -3,-6 12,-12 1,-17 -6,-11 21,-18Z"/>
    <path data-fips-int="35035" data-name="Otero County" d="M1938,2370l1,100 -18,0 1,98 0,161 83,0 30,-2 78,0 57,-1 0,79 2,78 2,0 1,93 1,54 -173,2 -313,0 -92,0 -94,1 -87,0 0,-146 1,-84 0,-208 1,-122 17,0 1,-55 0,-49 -2,-63 -1,-87 101,2 110,0 8,-1 84,0 0,50 64,-1 130,0 6,0 1,54Z"/>
    <path data-fips-int="35037" data-name="Quay County" d="M3008,825l4,142 3,149 2,52 3,116 -91,3 -24,0 1,52 -50,2 1,50 -51,2 1,50 -34,2 -66,0 0,52 -15,0 -102,2 -86,1 -3,-101 -1,-103 1,0 0,-46 -1,-64 69,-41 57,-32 1,12 105,-1 -2,-87 117,-4 5,-4 0,-19 -4,-130 2,0 -1,-51 68,-2 25,-1Z"/>
    <path data-fips-int="35039" data-name="Rio Arriba County" d="M1600,110l1,12 7,18 2,14 6,23 -1,26 -5,15 2,26 1,38 5,25 -8,0 10,27 6,36 0,20 4,10 2,22 -7,19 1,31 -4,14 -6,5 -31,12 -10,16 96,39 44,58 13,18 97,51 -2,13 -16,10 -15,0 -15,-4 -6,10 -7,3 -9,-6 -13,0 -5,-6 0,-15 -12,2 -156,0 8,10 0,32 -82,0 -8,-2 -1,-20 0,-20 -149,0 -5,0 -144,0 -4,0 0,-76 1,-51 -29,-1 -76,0 -59,-1 -33,-1 -94,-1 -58,-2 1,-68 1,-24 -1,-54 3,-83 1,-38 2,-7 2,-69 5,-3 4,-14 8,0 12,-13 12,2 3,-11 15,-2 7,-10 9,-2 6,-11 -4,-8 0,-13 12,-11 -1,-8 5,-9 146,3 109,0 3,4Z"/>
    <path data-fips-int="35041" data-name="Roosevelt County" d="M2692,1497l2,101 1,75 85,-1 21,-1 101,-2 31,-2 98,-2 2,77 1,10 2,78 0,41 2,113 1,110 -80,2 -52,2 -91,2 0,-51 -102,3 -2,-95 -60,1 -3,-154 -51,0 -2,-97 -2,-14 0,-34 -4,-160Z"/>
    <path data-fips-int="35043" data-name="Sandoval County" d="M1485,787l-13,-10 13,0ZM1486,712l-8,-4 -17,0 0,8 -9,5 -32,-1 -6,2 0,71 -9,0 6,12 12,0 11,-5 35,15 12,12 4,9 0,162 0,102 1,0 0,52 -40,-1 -58,-1 -123,0 -175,-2 -58,-1 -8,-18 -12,-33 -34,-1 1,-66 2,0 0,-104 0,-68 1,-37 1,-90 1,-40 -56,-2 -95,-1 3,-128 58,2 94,1 33,1 59,1 76,0 29,1 -1,51 0,76 4,0 144,0 5,0 149,0Z"/>
    <path data-fips-int="35047" data-name="San Miguel County" d="M2378,815l107,-3 57,-1 21,-12 26,46 98,174 42,-1 1,19 2,87 -105,1 -1,-12 -57,32 -69,41 -1,-43 -101,2 -45,0 -140,3 -131,1 -82,0 -58,1 1,102 -69,1 -107,0 -27,1 -1,-57 0,-97 -1,0 -1,-58 0,-109 1,-37 -2,-41 0,-87 116,0 60,-1 47,17 43,13 4,4 15,2 25,16 4,0 16,15 2,-7 15,-4 49,-1 52,-3 51,0 71,-3Z"/>
    <path data-fips-int="35049" data-name="Santa Fe County" d="M1737,705l-1,63 0,87 2,41 -1,37 0,109 1,58 1,0 0,97 1,57 -110,0 -16,0 -128,0 1,-77 -1,-25 0,-52 -1,0 0,-102 0,-162 12,-7 13,-13 1,-9 7,-3 3,-9 -23,-2 -13,-6 0,-10 2,-45 8,2 82,0 0,-32 -8,-10 156,0 12,-2Z"/>
    <path data-fips-int="35051" data-name="Sierra County" d="M1434,2219l1,87 2,63 0,49 -93,45 -62,31 -52,25 -63,32 0,25 -124,-1 -35,-1 -44,0 -1,101 -152,-2 -54,-11 -9,-4 6,-19 -1,-17 4,-3 -1,-24 2,-20 -11,-10 -4,-10 3,-11 -6,-13 -6,-2 -4,-27 7,-9 -5,-10 1,-13 -9,2 -4,-6 -14,-4 -5,-14 -7,-6 4,-10 -5,-13 12,-21 -6,-6 2,-8 -6,-30 1,-13 7,-7 -16,-12 -62,-1 3,-161 28,2 102,0 10,1 78,2 123,0 4,1 84,0 119,3 65,1 131,0 0,-2 49,0 1,51Z"/>
    <path data-fips-int="35053" data-name="Socorro County" d="M1402,1605l0,106 238,0 0,35 0,194 0,25 -63,0 0,103 -51,0 -7,-2 -46,-4 -52,0 0,106 -49,0 0,2 -131,0 -65,-1 -119,-3 -84,0 -4,-1 -123,0 -78,-2 1,-93 2,-52 0,-51 -1,-47 1,-39 0,-77 3,-67 0,-30 -5,-2 2,-68 0,-77 2,-42 48,0 36,1 50,0 81,2 36,0 8,1 139,0 8,0 59,31 15,5 110,39 20,10Z"/>
    <path data-fips-int="35055" data-name="Taos County" d="M1968,110l-8,8 1,13 11,23 5,1 -13,40 2,26 -4,8 4,10 1,23 -3,6 -16,5 -11,-7 -11,2 -5,15 -6,-2 -17,13 10,27 -7,3 -4,12 6,8 5,19 -13,6 14,12 3,11 11,12 -7,4 -9,24 7,-1 7,34 -4,12 2,16 -3,20 4,17 -6,9 -10,-4 -21,18 6,11 -1,17 -12,12 3,6 -2,16 -21,32 -11,23 -11,12 -9,3 -97,-51 -13,-18 -44,-58 -96,-39 10,-16 31,-12 6,-5 4,-14 -1,-31 7,-19 -2,-22 -4,-10 0,-20 -6,-36 -10,-27 8,0 -5,-25 -1,-38 -2,-26 5,-15 1,-26 -6,-23 -2,-14 -7,-18 -1,-12 18,0 176,0 1,0Z"/>
    <path data-fips-int="35057" data-name="Torrance County" d="M1943,1252l1,98 0,73 1,84 -11,0 1,152 0,51 -47,1 -126,0 -22,0 -100,0 -238,0 0,-106 0,-47 -25,0 0,-52 3,0 -1,-64 1,-18 1,-71 25,0 34,0 92,0 -1,-48 -45,0 0,-51 128,0 16,0 110,0 27,-1 107,0Z"/>
    <path data-fips-int="35059" data-name="Union County" d="M3008,825l-66,1 -25,1 -68,2 0,-21 -4,-130 5,-1 -1,-51 -89,2 -67,2 -47,1 -1,-51 -102,1 0,-25 -2,-65 0,-72 -2,-60 -1,-84 -1,-38 -2,-101 -1,-35 147,-5 108,-2 25,-2 72,-2 60,-2 58,-1 5,146 4,145 -18,2 1,66 5,142Z"/>
    <path data-fips-int="35061" data-name="Valencia County" d="M1092,1301l20,50 55,2 90,0 17,-21 66,0 60,3 6,7 0,11 -25,0 -1,71 -1,18 1,64 -3,0 0,52 25,0 0,47 -19,2 -20,-10 -110,-39 -15,-5 -59,-31 -8,0 -139,0 -8,-1 0,-63 2,-65 0,-93Z"/>
    <path data-fips-int="35045" data-name="San Juan County" d="M938,103l-5,9 1,8 -12,11 0,13 4,8 -6,11 -9,2 -7,10 -15,2 -3,11 -12,-2 -12,13 -8,0 -4,14 -5,3 -2,69 -2,7 -1,38 -3,83 1,54 -1,24 -1,68 -3,128 -89,-2 -54,-2 -121,-3 -197,-5 -48,0 -162,-5 2,-50 1,-81 6,-195 0,-18 5,-121 3,-118 54,3 49,0 78,3 173,3 22,2 120,0 118,4 81,0Z"/>
  </g>
  <g class="cities">
    <circle r="3" cx="129.2" cy="122.8"/>
    <text x="129.2" y="122.8">Albuquerque</text>
    <circle r="3" cx="121.9" cy="285.0"/>
    <text x="121.9" y="285.0">Las Cruces</text>
    <circle r="3" cx="128.6" cy="114.1"/>
    <text x="128.6" y="114.1">Rio Rancho</text>
  </g>
</svg>