<?xml version="1.0" encoding="utf-8"?>
<!DOCTYPE svg PUBLIC "-//W3C//DTD SVG 1.1//EN" "http://www.w3.org/Graphics/SVG/1.1/DTD/svg11.dtd">
<svg version="1.1" xmlns="http://www.w3.org/2000/svg" width="314" height="350" viewBox="0 0 314 350">
  <defs>
    <pattern id="pattern-no-results" width="50" height="50" patternUnits="userSpaceOnUse">
      <rect width="50" height="50" fill="#ddd"/>
      <path d="M-5,5L5,-5M-5,55L55,-5M45,55L55,45" stroke-width="10" stroke="#ffffff"/>
    </pattern>
  </defs>
  <g class="counties" transform="scale(0.1)">
    <path data-fips-int="35001" data-name="Bernalillo County" d="M1487,1152l0,103 0,50 44,0 0,49 -125,0 -6,-20 -125,-3 -18,22 -146,-2 -20,-50 -59,-154 200,3Z"/>
    <path data-fips-int="35003" data-name="Catron County" d="M772,1517l-4,187 6,0 -5,129 0,220 -1,110 -140,-3 -3,161 -220,-3 -53,-7 -196,-3 -44,-4 3,-135 12,-301 8,-366 324,10 136,0Z"/>
    <path data-fips-int="35005" data-name="Chaves County" d="M2598,1805l51,-1 3,154 59,-1 3,94 102,-1 1,50 -103,3 0,101 -21,0 6,253 -24,0 -502,10 1,256 -4,4 -248,3 -1,-259 18,0 0,-100 201,-7 0,-91 9,-7 -6,-113 -3,-344 51,0 1,51 304,-2 0,-51Z"/>
    <path data-fips-int="35006" data-name="Cibola County" d="M978,1095l34,2 20,50 59,154 -64,-1 -4,221 -251,-4 -177,-5 -136,0 -324,-10 8,-224 277,10 3,-203 352,8 0,-25 50,0 0,25Z"/>
    <path data-fips-int="35007" data-name="Colfax County" d="M2534,100l4,157 5,299 -200,3 -2,0 -203,4 0,-25 -223,0 1,-97 8,-38 -29,-35 11,-20 -8,-48 27,-32 39,0 0,-73 13,-40 -17,-26 7,-20 73,1 359,-5Z"/>
    <path data-fips-int="35009" data-name="Curry County" d="M3020,1285l4,109 6,272 -335,8 -3,-176 15,0 0,-52 100,-2 0,-51 49,-2 0,-50 51,-2 -2,-51Z"/>
    <path data-fips-int="35011" data-name="DeBaca County" d="M2590,1499l3,193 5,113 -102,2 0,51 -304,2 -1,-51 -51,0 -2,-152 -1,-151 215,-2 -2,-53 51,0 0,-50 100,-2 3,100Z"/>
    <path data-fips-int="35013" data-name="Doña Ana County" d="M1415,3033l-118,0 2,48 -17,12 35,56 24,10 -188,0 -194,-3 4,-483 2,-99 203,1 0,-25 268,-133 0,55 -19,0 0,338Z"/>
    <path data-fips-int="35015" data-name="Eddy County" d="M2675,2457l6,260 45,-2 8,306 -367,7 -191,1 -6,-302 4,-4 -1,-256Z"/>
    <path data-fips-int="35017" data-name="Grant County" d="M625,2321l67,8 10,5 -9,8 8,107 33,22 -2,56 12,30 13,15 -7,87 61,14 -155,-1 -1,50 -151,-2 -6,255 7,0 -3,126 -153,-3 3,-127 -6,0 6,-254 -54,-2 2,-51 -102,-2 2,-102 -94,-3 6,-253 44,4 196,3 53,7Z"/>
    <path data-fips-int="35019" data-name="Guadalupe County" d="M2499,1186l2,213 -100,2 0,50 -51,0 2,53 -215,2 1,151 -202,0 -2,-150 11,0 -2,-256 -1,-101 290,-2 267,-5Z"/>
    <path data-fips-int="35021" data-name="Harding County" d="M2543,556l0,25 103,-2 0,52 201,-5 -3,51 6,152 1,198 -4,6 -118,4 0,-19 -42,0 -123,-219 -26,13 -159,2 -12,-47 27,-58 -12,-12 -12,-54 -29,-59 2,-25 -2,0 2,0Z"/>
    <path data-fips-int="35023" data-name="Hidalgo County" d="M502,3101l3,48 -6,263 -274,-5 -146,-5 9,-311 4,-95 14,-439 94,3 -2,102 102,2 -2,51 54,2 -6,254 6,0 -3,127Z"/>
    <path data-fips-int="35025" data-name="Lea County" d="M3039,2093l5,359 16,561 -326,8 -8,-306 -45,2 -6,-260 24,0 -6,-253 21,0 0,-101 103,-3Z"/>
    <path data-fips-int="35027" data-name="Lincoln County" d="M2138,1657l2,152 3,344 6,113 -9,7 0,91 -201,7 -3,-102 -199,0 0,-50 -73,2 -229,-2 -14,0 0,-51 0,-107 157,7 0,-103 62,0 0,-255 296,0 0,-53Z"/>
    <path data-fips-int="35028" data-name="Los Alamos County" d="M1484,712l3,20 -3,45 0,10 34,17 -34,31 -33,-31 -37,-12 0,-78Z"/>
    <path data-fips-int="35029" data-name="Luna County" d="M959,3156l-454,-7 -3,-48 3,-126 -7,0 6,-255 151,2 1,-50 155,1 152,0Z"/>
    <path data-fips-int="35031" data-name="McKinley County" d="M833,687l151,2 -3,151 0,188 -3,67 -153,-2 0,-25 -50,0 0,25 -352,-8 -3,203 -277,-10 9,-359 9,-248 456,10Z"/>
    <path data-fips-int="35033" data-name="Mora County" d="M1915,538l223,0 0,25 203,-4 2,0 -2,25 29,59 12,54 12,12 -27,58 12,47 -305,10 -161,-57 -177,0 1,-61 33,8 39,-8 16,-22 20,-13 32,-57 6,-60Z"/>
    <path data-fips-int="35035" data-name="Otero County" d="M1939,2371l0,100 -18,0 1,259 248,-3 6,302 -17,2 -744,2 2,-223 0,-338 19,0 0,-55 -1,-198 229,2 73,-2 0,50 199,0Z"/>
    <path data-fips-int="35037" data-name="Quay County" d="M3008,824l12,461 -115,3 2,51 -51,2 0,50 -49,2 0,51 -100,2 0,52 -15,0 -102,1 -86,0 -3,-100 -2,-213 117,-69 10,8 106,-2 -3,-86 118,-4 4,-6 -1,-198Z"/>
    <path data-fips-int="35039" data-name="Rio Arriba County" d="M1600,110l15,55 -3,110 19,146 -6,55 -49,43 94,39 55,73 100,53 -16,22 -39,8 -33,-8 0,-17 -168,3 9,40 -91,0 -3,-20 3,-20 -303,0 1,-128 -290,-3 -60,-3 3,-187 6,-154 80,-60 -3,-28 17,-25 237,1 90,5Z"/>
    <path data-fips-int="35041" data-name="Roosevelt County" d="M2692,1498l3,176 335,-8 6,153 3,274 -222,7 -1,-50 -102,1 -3,-94 -59,1 -3,-154 -51,1 -5,-113 -3,-193Z"/>
    <path data-fips-int="35043" data-name="Sandoval County" d="M1484,712l-70,2 0,78 37,12 33,31 3,317 -255,-2 -200,-3 -20,-50 -34,-2 3,-67 0,-188 3,-151 -151,-2 2,-129 60,3 290,3 -1,128 303,0Z"/>
    <path data-fips-int="35047" data-name="San Miguel County" d="M2379,814l159,-2 26,-13 123,219 42,0 0,19 3,86 -106,2 -10,-8 -117,69 0,-43 -267,5 -290,2 1,101 -203,2 -3,-161 -1,-325 177,0 161,57Z"/>
    <path data-fips-int="35049" data-name="Santa Fe County" d="M1737,706l-1,61 1,325 3,161 -253,2 0,-103 -3,-317 34,-31 -34,-17 0,-10 3,-45 91,0 -9,-40 168,-3Z"/>
    <path data-fips-int="35051" data-name="Sierra County" d="M1435,2219l1,198 -268,133 0,25 -203,-1 -2,99 -152,0 -61,-14 7,-87 -13,-15 -12,-30 2,-56 -33,-22 -8,-107 9,-8 -10,-5 -67,-8 3,-161 140,3 219,2 231,4 203,-1 0,51Z"/>
    <path data-fips-int="35053" data-name="Socorro County" d="M1402,1606l0,104 238,0 0,255 -62,0 0,103 -157,-7 0,107 -203,1 -231,-4 -219,-2 1,-110 0,-220 5,-129 -6,0 4,-187 251,4 155,1 54,29Z"/>
    <path data-fips-int="35055" data-name="Taos County" d="M1967,109l-7,20 17,26 -13,40 0,73 -39,0 -27,32 8,48 -11,20 29,35 -8,38 -1,97 -32,16 -6,60 -32,57 -20,13 -100,-53 -55,-73 -94,-39 49,-43 6,-55 -19,-146 3,-110 -15,-55Z"/>
    <path data-fips-int="35057" data-name="Torrance County" d="M1943,1251l2,256 -11,0 2,150 0,53 -296,0 -238,0 0,-104 0,-49 -27,0 6,-204 25,1 125,0 0,-49 -44,0 0,-50 253,-2Z"/>
    <path data-fips-int="35059" data-name="Union County" d="M3008,824l-158,5 -6,-152 3,-51 -201,5 0,-52 -103,2 0,-25 -5,-299 -4,-157 471,-13 7,293 -17,0Z"/>
    <path data-fips-int="35061" data-name="Valencia County" d="M1091,1301l20,50 146,2 18,-22 125,3 6,20 -25,-1 -6,204 27,0 0,49 -170,-55 -54,-29 -155,-1 4,-221Z"/>
    <path data-fips-int="35045" data-name="San Juan County" d="M938,104l-17,25 3,28 -80,60 -6,154 -3,187 -2,129 -216,-6 -456,-10 16,-584 263,8Z"/>
  </g>
  <g class="cities">
    <circle r="3" cx="129.2" cy="122.9"/>
    <text x="129.2" y="122.9">Albuquerque</text>
    <circle r="3" cx="121.9" cy="285.0"/>
    <text x="121.9" y="285.0">Las Cruces</text>
    <circle r="3" cx="128.6" cy="114.0"/>
    <text x="128.6" y="114.0">Rio Rancho</text>
  </g>
</svg>