<?xml version="1.0" encoding="utf-8"?>
<!DOCTYPE svg PUBLIC "-//W3C//DTD SVG 1.1//EN" "http://www.w3.org/Graphics/SVG/1.1/DTD/svg11.dtd">
<svg version="1.1" xmlns="http://www.w3.org/2000/svg" width="236" height="350" viewBox="0 0 236 350">
  <defs>
    <pattern id="pattern-no-results" width="50" height="50" patternUnits="userSpaceOnUse">
      <rect width="50" height="50" fill="#ddd"/>
      <path d="M-5,5L5,-5M-5,55L55,-5M45,55L55,45" stroke-width="10" stroke="#ffffff"/>
    </pattern>
  </defs>
  <g class="counties" transform="scale(0.1)">
    <path data-fips-int="32001" data-name="Churchill County" d="M414,1167l-3,3 -45,46 9,-74 -13,-10 -6,-90 200,5 234,0 180,3 28,50 -13,58 0,9 13,61 -15,45 -24,2 -72,79 14,69 -24,18 4,38 -33,10 -3,0 -324,-6 0,-17 -50,-42 0,-13 -81,-78 2,-63 10,1 9,-101Z"/>
    <path data-fips-int="32003" data-name="Clark County" d="M2285,2532l14,308 -37,81 -44,2 -43,-53 -103,1 -43,30 10,65 24,32 -10,20 -1,63 20,42 -9,51 35,83 9,95 -26,13 17,12 -11,35 -115,-110 -381,-354 -6,-401 60,-5 365,-7 6,4Z"/>
    <path data-fips-int="32005" data-name="Douglas County" d="M227,1473l89,3 -1,43 -34,3 -16,49 11,70 21,0 5,94 -242,-228 1,-53 89,2 3,15Z"/>
    <path data-fips-int="32007" data-name="Elko County" d="M2237,977l-55,3 -293,5 -301,2 -60,2 -59,-257 -1,-158 -154,2 -154,0 0,-476 442,0 220,-5 133,-5 255,-3 11,313Z"/>
    <path data-fips-int="32009" data-name="Esmeralda County" d="M1104,2489l-290,-273 -183,-170 30,2 113,-126 136,-147 195,225Z"/>
    <path data-fips-int="32011" data-name="Eureka County" d="M1588,987l0,15 0,48 15,77 -11,46 8,65 -7,32 -27,33 3,143 -257,3 4,-101 0,-298 -4,-98 -1,-351 3,-25 154,-2 1,158 59,257Z"/>
    <path data-fips-int="32013" data-name="Humboldt County" d="M1160,100l0,476 -1,170 -82,0 -19,55 0,-75 -124,0 1,-83 -306,-2 -104,-3 0,-50 -187,-4 -7,0 1,-129 9,0 3,-85 -6,0 6,-278 222,8Z"/>
    <path data-fips-int="32015" data-name="Lander County" d="M1314,576l-3,25 1,351 4,98 0,298 -4,101 -267,-1 -164,31 -4,-38 24,-18 -14,-69 72,-79 24,-2 15,-45 -13,-61 0,-9 13,-58 -28,-50 88,-249 19,-55 82,0 1,-170Z"/>
    <path data-fips-int="32017" data-name="Lincoln County" d="M2258,1661l7,187 7,272 13,412 -269,7 -6,-4 -365,7 -60,5 -5,-574 332,-5 -5,-298Z"/>
    <path data-fips-int="32019" data-name="Lyon County" d="M415,1167l-4,3 -9,101 -10,-1 -2,63 81,78 0,13 50,42 0,17 -65,0 -33,61 -1,45 41,0 -5,208 -94,-3 -62,-59 -5,-94 -21,0 -11,-70 16,-49 34,-3 1,-43 -89,-3 -2,-54 -33,0 -22,-26 86,-39 76,-134 34,-4 45,-46Z"/>
    <path data-fips-int="32021" data-name="Mineral County" d="M845,1489l-120,33 0,40 185,213 -136,147 -113,126 -30,-2 -267,-252 94,3 5,-208 -41,0 1,-45 33,-61 65,0Z"/>
    <path data-fips-int="32023" data-name="Nye County" d="M1312,1449l257,-3 338,224 5,298 -332,5 5,574 6,401 -487,-459 1,-489 -195,-225 -185,-213 0,-40 120,-33 3,0 33,-10 164,-31Z"/>
    <path data-fips-int="32027" data-name="Pershing County" d="M1058,801l-88,249 -180,-3 -234,0 -200,-5 -40,-2 6,-248 9,0 7,-208 187,4 0,50 104,3 306,2 -1,83 124,0Z"/>
    <path data-fips-int="32029" data-name="Storey County" d="M332,1220l-76,134 -86,39 21,-39 -10,-21 -1,-68 27,5 31,-25 58,-9Z"/>
    <path data-fips-int="32031" data-name="Washoe County" d="M344,92l-6,278 6,0 -3,85 -9,0 -1,129 7,0 -7,208 -9,0 -6,248 40,2 6,90 13,10 -9,74 -34,4 -36,16 -58,9 -31,25 -27,-5 1,68 10,21 -21,39 -63,38 -46,-3 0,-72 15,-323 24,-733 7,-213Z"/>
    <path data-fips-int="32033" data-name="White Pine County" d="M2237,977l10,293 11,391 -351,9 -338,-224 -3,-143 27,-33 7,-32 -8,-65 11,-46 -15,-77 0,-48 0,-15 301,-2 293,-5Z"/>
    <path data-fips-int="32510" data-name="Carson City" d="M227,1473l-74,-2 -3,-15 -89,-2 0,-26 46,3 63,-38 22,26 33,0Z"/>
  </g>
  <g class="cities">
    <circle r="3" cx="188.0" cy="286.0"/>
    <text x="188.0" y="286.0">Las Vegas</text>
    <circle r="3" cx="13.7" cy="125.8"/>
    <text x="13.7" y="125.8">Reno</text>
    <circle r="3" cx="155.6" cy="285.0"/>
    <text x="155.6" y="285.0">Pahrump</text>
  </g>
</svg>