<?xml version="1.0" encoding="utf-8"?>
<!DOCTYPE svg PUBLIC "-//W3C//DTD SVG 1.1//EN" "http://www.w3.org/Graphics/SVG/1.1/DTD/svg11.dtd">
<svg version="1.1" xmlns="http://www.w3.org/2000/svg" width="236" height="350" viewBox="0 0 236 350">
  <path class="state" transform="scale(0.1)" d="M345,94l223,5 592,1 441,-1 221,-4 133,-5 255,-3 11,313 16,577 10,293 10,389 15,461 14,412 13,306 -37,83 -36,7 -29,-22 -22,-38 -26,8 -31,-10 -42,4 -47,31 12,24 -2,40 27,36 -13,20 -1,60 20,40 -9,53 25,50 23,100 -4,28 -26,13 17,19 -11,28 -115,-110 -381,-354 -487,-459 -473,-443 -266,-252 -63,-59 -242,-228 1,-53v-25v-71l16,-325 21,-733 9,-213Z"/>
  <g class="counties" transform="scale(0.1)">
    <path data-fips-int="32001" data-name="Churchill County" d="M970,1050l28,50 -13,70 13,60 -14,43 -23,2 -32,48 -42,31 14,69 -27,23 7,32 -33,11 -327,-5v-18l-50,-43 -27,-40 -54,-52 2,-61 10,1 4,-96 -41,41 10,-74 -13,-10 -5,-90 199,5h234Z"/>
    <path data-fips-int="32003" data-name="Clark County" d="M2286,2532l13,306 -37,83 -36,7 -29,-22 -22,-38 -26,8 -31,-10 -42,4 -47,31 12,24 -2,40 27,36 -13,20 -1,60 20,40 -9,53 25,50 23,100 -4,28 -26,13 17,19 -11,28 -115,-110 -381,-354 -6,-401 60,-5 365,-7 6,4Z"/>
    <path data-fips-int="32005" data-name="Douglas County" d="M227,1473l89,3 -1,41 -42,19 3,105h21l5,94 -242,-228 1,-53h89l3,17Z"/>
    <path data-fips-int="32007" data-name="Elko County" d="M2237,977l-55,3 -293,5 -300,2 -61,2 -59,-255 -2,-160 -154,2h-153v-476l441,-1 221,-4 133,-5 255,-3 11,313Z"/>
    <path data-fips-int="32009" data-name="Esmeralda County" d="M1104,2489l-473,-443 30,2 175,-195 74,-78 195,225Z"/>
    <path data-fips-int="32011" data-name="Eureka County" d="M1589,987l14,140 -11,46 8,70 -20,55 -14,5 3,143 -256,3 3,-103v-296l-6,-35v-414l3,-25 154,-2 2,160 59,255Z"/>
    <path data-fips-int="32013" data-name="Humboldt County" d="M1160,100v476l-1,170h-82l-19,55v-75h-124l1,-83 -306,-2 -104,-3v-50l-188,-4h-6l3,-129h7l-1,-110 5,-251 223,5Z"/>
    <path data-fips-int="32015" data-name="Lander County" d="M1313,576l-3,25v414l6,35v296l-3,103 -268,-3 -164,32 -7,-32 27,-23 -14,-69 42,-31 32,-48 23,-2 14,-43 -13,-60 13,-70 -28,-50 88,-249 19,-55h82l1,-170Z"/>
    <path data-fips-int="32017" data-name="Lincoln County" d="M2257,1659l15,461 14,412 -270,7 -6,-4 -365,7 -60,5 -5,-574 332,-5 -5,-298Z"/>
    <path data-fips-int="32019" data-name="Lyon County" d="M521,1484l-65,-1 -33,61 -1,43h41l-5,210 -93,-3 -63,-59 -5,-94h-21l-3,-105 42,-19 1,-41 -89,-3 -2,-54h-33l-22,-28 84,-37 78,-134 33,-4 41,-41 -4,96 -10,-1 -2,61 54,52 27,40 50,43Z"/>
    <path data-fips-int="32021" data-name="Mineral County" d="M848,1489l-123,33v40l185,213 -74,78 -175,195 -30,-2 -266,-252 93,3 5,-210h-41l1,-43 33,-61 65,1Z"/>
    <path data-fips-int="32023" data-name="Nye County" d="M1313,1449l256,-3 338,224 5,298 -332,5 5,574 6,401 -487,-459 1,-489 -195,-225 -185,-213v-40l123,-33 33,-11 164,-32Z"/>
    <path data-fips-int="32027" data-name="Pershing County" d="M1058,801l-88,249 -180,-3h-234l-199,-5 -41,-2 5,-246h10l6,-210 188,4v50l104,3 306,2 -1,83h124Z"/>
    <path data-fips-int="32029" data-name="Storey County" d="M332,1220l-78,134 -84,37 20,-37 -10,-23v-66l27,5 31,-25 58,-9Z"/>
    <path data-fips-int="32031" data-name="Washoe County" d="M345,94l-5,251 1,110h-7l-3,129h6l-6,210h-10l-5,246 41,2 5,90 13,10 -10,74 -33,4 -36,16 -58,9 -31,25 -27,-5v66l10,23 -20,37 -63,40 -46,-2v-71l16,-325 21,-733 9,-213Z"/>
    <path data-fips-int="32033" data-name="White Pine County" d="M2237,977l10,293 10,389 -350,11 -338,-224 -3,-143 14,-5 20,-55 -8,-70 11,-46 -14,-140 300,-2 293,-5Z"/>
    <path data-fips-int="32510" data-name="Carson City" d="M227,1473l-74,-2 -3,-17h-89v-25l46,2 63,-40 22,28h33Z"/>
  </g>
  <path class="mesh" transform="scale(0.1)" d="M1591,2948l-6,-401 60,-5 365,-7 6,4 270,-7M61,1454h89l3,17 74,2 89,3 -1,41 -42,19 3,105h21l5,94M2237,977l-55,3 -293,5 -300,2 -61,2 -59,-255 -2,-160 -154,2h-153v-476M631,2046l30,2 175,-195 74,-78 195,225 -1,489M1589,987l14,140 -11,46 8,70 -20,55 -14,5 3,143 -256,3 3,-103v-296l-6,-35v-414l3,-25M1160,576l-1,170h-82l-19,55v-75h-124l1,-83 -306,-2 -104,-3v-50l-188,-4h-6l3,-129h7l-1,-110 5,-251M1313,1449l-268,-3 -164,32 -33,11 -327,-5v-18l-50,-43 -27,-40 -54,-52 2,-61 10,1 4,-96 -41,41 10,-74 -13,-10 -5,-90 199,5h234l180,3 88,-249M1585,2547l-5,-574 332,-5 -5,-298 350,-11M521,1484l-65,-1 -33,61 -1,43h41l-5,210 -93,-3M227,1473l-2,-54h-33l-22,-28 84,-37 78,-134 33,-4M848,1489l-123,33v40l185,213M1569,1446l338,224M357,1042l-41,-2 5,-246h10l6,-210M970,1050l28,50 -13,70 13,60 -14,43 -23,2 -32,48 -42,31 14,69 -27,23 7,32M170,1391l20,-37 -10,-23v-66l27,5 31,-25 58,-9 36,-16M170,1391l-63,40 -46,-2"/>
  <g class="cities">
    <circle r="3" cx="188.1" cy="286.0"/>
    <text x="188.1" y="286.0">Las Vegas</text>
    <circle r="3" cx="13.7" cy="125.9"/>
    <text x="13.7" y="125.9">Reno</text>
    <circle r="3" cx="161.1" cy="65.3"/>
    <text x="161.1" y="65.3">Elko</text>
  </g>
</svg>