<?xml version="1.0" encoding="utf-8"?>
<!DOCTYPE svg PUBLIC "-//W3C//DTD SVG 1.1//EN" "http://www.w3.org/Graphics/SVG/1.1/DTD/svg11.dtd">
<svg version="1.1" xmlns="http://www.w3.org/2000/svg" width="236" height="350" viewBox="0 0 236 350">
  <path class="state" transform="scale(0.1)" d="M61,1428v-72l15,-323 24,-733 7,-213 237,5 222,8h594h442l220,-5 133,-5 255,-3 11,313 16,577 10,293 11,391 7,187 7,272 13,412 14,308 -37,81 -44,2 -43,-53 -103,1 -43,30 10,65 24,32 -10,20 -1,63 20,42 -9,51 35,83 9,95 -26,13 17,12 -11,35 -115,-110 -381,-354 -487,-459 -290,-273 -183,-170 -267,-252 -62,-59 -242,-228 1,-53v-26Z"/>
  <g class="counties" transform="scale(0.1)">
    <path data-fips-int="32001" data-name="Churchill County" d="M414,1167l-3,3 -45,46 9,-74 -13,-10 -6,-90 200,5h234l180,3 28,50 -13,58v9l13,61 -15,45 -24,2 -72,79 14,69 -24,18 4,38 -33,10h-3l-324,-6v-17l-50,-42v-13l-81,-78 2,-63 10,1 9,-101Z"/>
    <path data-fips-int="32003" data-name="Clark County" d="M2285,2532l14,308 -37,81 -44,2 -43,-53 -103,1 -43,30 10,65 24,32 -10,20 -1,63 20,42 -9,51 35,83 9,95 -26,13 17,12 -11,35 -115,-110 -381,-354 -6,-401 60,-5 365,-7 6,4Z"/>
    <path data-fips-int="32005" data-name="Douglas County" d="M227,1473l89,3 -1,43 -34,3 -16,49 11,70h21l5,94 -242,-228 1,-53 89,2 3,15Z"/>
    <path data-fips-int="32007" data-name="Elko County" d="M2237,977l-55,3 -293,5 -301,2 -60,2 -59,-257 -1,-158 -154,2h-154v-476h442l220,-5 133,-5 255,-3 11,313Z"/>
    <path data-fips-int="32009" data-name="Esmeralda County" d="M1104,2489l-290,-273 -183,-170 30,2 113,-126 136,-147 195,225Z"/>
    <path data-fips-int="32011" data-name="Eureka County" d="M1588,987v15v48l15,77 -11,46 8,65 -7,32 -27,33 3,143 -257,3 4,-101v-298l-4,-98 -1,-351 3,-25 154,-2 1,158 59,257Z"/>
    <path data-fips-int="32013" data-name="Humboldt County" d="M1160,100v476l-1,170h-82l-19,55v-75h-124l1,-83 -306,-2 -104,-3v-50l-187,-4h-7l1,-129h9l3,-85h-6l6,-278 222,8Z"/>
    <path data-fips-int="32015" data-name="Lander County" d="M1314,576l-3,25 1,351 4,98v298l-4,101 -267,-1 -164,31 -4,-38 24,-18 -14,-69 72,-79 24,-2 15,-45 -13,-61v-9l13,-58 -28,-50 88,-249 19,-55h82l1,-170Z"/>
    <path data-fips-int="32017" data-name="Lincoln County" d="M2258,1661l7,187 7,272 13,412 -269,7 -6,-4 -365,7 -60,5 -5,-574 332,-5 -5,-298Z"/>
    <path data-fips-int="32019" data-name="Lyon County" d="M415,1167l-4,3 -9,101 -10,-1 -2,63 81,78v13l50,42v17h-65l-33,61 -1,45h41l-5,208 -94,-3 -62,-59 -5,-94h-21l-11,-70 16,-49 34,-3 1,-43 -89,-3 -2,-54h-33l-22,-26 86,-39 76,-134 34,-4 45,-46Z"/>
    <path data-fips-int="32021" data-name="Mineral County" d="M845,1489l-120,33v40l185,213 -136,147 -113,126 -30,-2 -267,-252 94,3 5,-208h-41l1,-45 33,-61h65Z"/>
    <path data-fips-int="32023" data-name="Nye County" d="M1312,1449l257,-3 338,224 5,298 -332,5 5,574 6,401 -487,-459 1,-489 -195,-225 -185,-213v-40l120,-33h3l33,-10 164,-31Z"/>
    <path data-fips-int="32027" data-name="Pershing County" d="M1058,801l-88,249 -180,-3h-234l-200,-5 -40,-2 6,-248h9l7,-208 187,4v50l104,3 306,2 -1,83h124Z"/>
    <path data-fips-int="32029" data-name="Storey County" d="M332,1220l-76,134 -86,39 21,-39 -10,-21 -1,-68 27,5 31,-25 58,-9Z"/>
    <path data-fips-int="32031" data-name="Washoe County" d="M344,92l-6,278h6l-3,85h-9l-1,129h7l-7,208h-9l-6,248 40,2 6,90 13,10 -9,74 -34,4 -36,16 -58,9 -31,25 -27,-5 1,68 10,21 -21,39 -63,38 -46,-3v-72l15,-323 24,-733 7,-213Z"/>
    <path data-fips-int="32033" data-name="White Pine County" d="M2237,977l10,293 11,391 -351,9 -338,-224 -3,-143 27,-33 7,-32 -8,-65 11,-46 -15,-77v-48v-15l301,-2 293,-5Z"/>
    <path data-fips-int="32510" data-name="Carson City" d="M227,1473l-74,-2 -3,-15 -89,-2v-26l46,3 63,-38 22,26h33Z"/>
  </g>
  <g class="cities">
    <circle r="3" cx="188.0" cy="286.0"/>
    <text x="188.0" y="286.0">Las Vegas</text>
    <circle r="3" cx="13.7" cy="125.8"/>
    <text x="13.7" y="125.8">Reno</text>
    <circle r="3" cx="155.6" cy="285.0"/>
    <text x="155.6" y="285.0">Pahrump</text>
  </g>
</svg>