<?xml version="1.0" encoding="utf-8"?>
<!DOCTYPE svg PUBLIC "-//W3C//DTD SVG 1.1//EN" "http://www.w3.org/Graphics/SVG/1.1/DTD/svg11.dtd">
<svg version="1.1" xmlns="http://www.w3.org/2000/svg" width="236" height="350" viewBox="0 0 236 350">
  <defs>
    <pattern id="pattern-no-results" width="50" height="50" patternUnits="userSpaceOnUse">
      <rect width="50" height="50" fill="#ddd"/>
      <path d="M-5,5L5,-5M-5,55L55,-5M45,55L55,45" stroke-width="10" stroke="#666666"/>
    </pattern>
  </defs>
  <g class="counties" transform="scale(0.1)">
    <path data-fips-int="32001" data-name="Churchill County" d="M970,1050l28,50 -13,58 0,9 13,61 -15,45 -24,2 -72,79 14,69 -20,56 -33,10 -3,0 -324,-6 0,-17 -131,-133 21,-163 4,-3 -1,0 1,0 -1,0 -3,3 -45,46 9,-74 -13,-10 -6,-90 200,5Z"/>
    <path data-fips-int="32003" data-name="Clark County" d="M2285,2532l14,308 -37,81 -44,2 -43,-53 -103,1 -43,30 10,65 24,32 -11,83 20,42 -9,51 35,83 9,95 -20,60 -496,-464 -6,-401 60,-5Z"/>
    <path data-fips-int="32005" data-name="Douglas County" d="M227,1473l89,3 -1,43 -34,3 -16,49 11,70 21,0 5,94 -242,-228 1,-53 89,2 3,15Z"/>
    <path data-fips-int="32007" data-name="Elko County" d="M2237,977l-348,8 -301,2 -60,2 -59,-257 -1,-158 -154,2 -154,0 0,-476 442,0 608,-13 11,313Z"/>
    <path data-fips-int="32009" data-name="Esmeralda County" d="M1104,2489l-473,-443 30,2 249,-273 195,225Z"/>
    <path data-fips-int="32011" data-name="Eureka County" d="M1588,987l0,15 15,125 -11,46 8,65 -34,65 3,143 -257,3 4,-399 -4,-98 -1,-351 3,-25 154,-2 1,158 59,257Z"/>
    <path data-fips-int="32013" data-name="Humboldt County" d="M1160,100l0,476 -1,170 -82,0 -19,55 0,-75 -124,0 1,-83 -410,-5 0,-50 -187,-4 -7,0 13,-492 222,8Z"/>
    <path data-fips-int="32015" data-name="Lander County" d="M1314,576l-3,25 1,351 4,98 -4,399 -267,-1 -164,31 20,-56 -14,-69 72,-79 24,-2 15,-45 -13,-61 0,-9 13,-58 -28,-50 88,-249 19,-55 82,0 1,-170Z"/>
    <path data-fips-int="32017" data-name="Lincoln County" d="M2258,1661l14,459 13,412 -640,10 -60,5 -5,-574 332,-5 -5,-298Z"/>
    <path data-fips-int="32019" data-name="Lyon County" d="M521,1483l-65,0 -33,61 -1,45 41,0 -5,208 -94,-3 -62,-59 -5,-94 -21,0 -11,-70 16,-49 34,-3 1,-43 -89,-3 -2,-54 -55,-26 86,-39 76,-134 34,-4 45,-46 3,-3 1,0 -1,0 1,0 -4,3 -21,163 131,133Z"/>
    <path data-fips-int="32021" data-name="Mineral County" d="M845,1489l3,0 -3,0 -120,33 0,40 185,213 -249,273 -30,-2 -267,-252 94,3 5,-208 -41,0 1,-45 33,-61 65,0Z"/>
    <path data-fips-int="32023" data-name="Nye County" d="M1312,1449l257,-3 338,224 5,298 -332,5 5,574 6,401 -487,-459 1,-489 -195,-225 -185,-213 0,-40 120,-33 3,0 33,-10 164,-31Z"/>
    <path data-fips-int="32027" data-name="Pershing County" d="M1058,801l-88,249 -414,-3 -200,-5 -40,-2 6,-248 9,0 7,-208 187,4 0,50 410,5 -1,83 124,0Z"/>
    <path data-fips-int="32029" data-name="Storey County" d="M332,1220l-76,134 -86,39 21,-39 -11,-89Z"/>
    <path data-fips-int="32031" data-name="Washoe County" d="M344,92l-13,492 7,0 -7,208 -9,0 -6,248 40,2 6,90 13,10 -9,74 -34,4 -152,45 11,89 -21,39 -63,38 -46,-3 15,-395 31,-946Z"/>
    <path data-fips-int="32033" data-name="White Pine County" d="M2237,977l21,684 -351,9 -338,-224 -3,-143 34,-65 -8,-65 11,-46 -15,-125 0,-15 301,-2Z"/>
    <path data-fips-int="32510" data-name="Carson City" d="M227,1473l-74,-2 -3,-15 -89,-2 0,-26 46,3 63,-38 55,26Z"/>
  </g>
  <g class="cities">
    <circle r="3" cx="188.0" cy="286.0"/>
    <text x="188.0" y="286.0">Las Vegas</text>
    <circle r="3" cx="194.2" cy="292.3"/>
    <text x="194.2" y="292.3">Henderson</text>
    <circle r="3" cx="13.7" cy="125.8"/>
    <text x="13.7" y="125.8">Reno</text>
  </g>
</svg>