<?xml version="1.0" encoding="utf-8"?>
<!DOCTYPE svg PUBLIC "-//W3C//DTD SVG 1.1//EN" "http://www.w3.org/Graphics/SVG/1.1/DTD/svg11.dtd">
<svg version="1.1" xmlns="http://www.w3.org/2000/svg" width="236" height="350" viewBox="0 0 236 350">
  <defs>
    <pattern id="pattern-no-results" width="50" height="50" patternUnits="userSpaceOnUse">
      <rect width="50" height="50" fill="#ddd"/>
      <path d="M-5,5L5,-5M-5,55L55,-5M45,55L55,45" stroke-width="10" stroke="#666666"/>
    </pattern>
  </defs>
  <g class="counties" transform="scale(0.1)">
    <path data-fips-int="32001" data-name="Churchill County" d="M969,1049l15,24 9,6 5,23 -1,15 -9,16 1,18 -3,19 6,2 -4,14 9,17 -8,17 8,4 -7,17 2,9 -6,21 -10,-1 -5,4 -21,6 1,6 -10,10 -15,6 7,8 -2,11 -12,3 -8,17 -19,0 -6,12 4,24 14,32 -3,14 -8,11 -15,7 -1,12 -8,2 6,7 -4,8 10,10 -34,9 -198,-2 -91,-3 -37,0 0,-18 -14,0 0,-14 -7,-7 -7,0 0,-7 -13,-14 -9,0 1,-13 -8,0 0,-8 -13,-7 -6,-14 -9,0 -6,-7 0,-7 -14,-7 1,-8 -20,-14 -7,-7 1,-62 11,1 1,-57 4,1 1,-41 -12,14 -20,18 -6,0 -3,10 0,-23 6,0 2,-51 -7,0 0,-11 -7,0 2,-42 -7,0 2,-48 97,2 28,2 63,0 36,2 153,0 96,0 3,1Z"/>
    <path data-fips-int="32003" data-name="Clark County" d="M2286,2532l2,63 8,145 1,63 2,37 -8,7 -12,28 -8,4 3,8 -13,35 -10,-2 -15,7 -18,-4 -4,-9 -16,-6 2,-12 -25,-28 -16,-2 -13,11 -5,-6 -17,6 -3,-11 -24,0 -16,11 -6,-6 -19,16 -22,3 -7,8 9,15 -3,3 8,10 -7,8 -1,13 6,20 9,6 -1,7 19,20 -15,9 3,11 -6,10 5,9 2,14 -4,26 10,9 -4,10 16,25 -3,12 -6,3 5,7 3,16 -8,9 0,8 10,30 11,10 13,39 0,15 5,15 3,25 3,6 2,17 -4,16 -17,4 -9,9 17,13 0,5 -12,18 1,12 -85,-81 -23,-21 -64,-60 -8,-6 -121,-114 -195,-183 -2,-83 0,-43 -2,-149 -2,-124 59,-1 0,-5 87,-1 75,-2 35,0 129,-4 46,0 5,4 53,-1 22,-1 124,-3Z"/>
    <path data-fips-int="32005" data-name="Douglas County" d="M227,1472l88,3 0,45 -14,2 -20,0 -1,14 -7,0 -1,34 -6,0 -1,14 6,0 0,14 7,7 -2,36 21,-1 0,41 6,1 -1,53 -122,-114 -120,-113 1,-53 89,2 3,13Z"/>
    <path data-fips-int="32007" data-name="Elko County" d="M2237,978l-74,2 -74,1 -38,1 -51,0 -31,2 -50,0 -71,2 -182,0 -77,1 -60,1 -13,-54 -22,-97 -25,-105 -1,-157 -61,0 -93,0 -30,1 -124,0 0,-295 -1,-98 1,-81 135,0 255,-2 176,-2 126,-2 103,-5 34,0 180,-2 41,-2 5,116 3,119 2,42 2,95 1,9 3,105 2,77 0,22 3,64 1,66 1,28Z"/>
    <path data-fips-int="32009" data-name="Esmeralda County" d="M1104,2489l-78,-73 -54,-50 -119,-113 -30,-27 -191,-180 29,1 154,-169 45,-50 50,-54 45,53 79,92 42,48 0,10 8,0 21,23 0,119 -1,1 0,274Z"/>
    <path data-fips-int="32011" data-name="Eureka County" d="M1589,987l4,4 -6,9 5,18 1,17 -3,20 7,14 -1,12 6,8 -1,21 4,7 -8,19 3,8 -1,21 -7,11 3,20 -1,19 6,27 -9,17 3,6 -5,16 -9,11 0,6 -12,9 -2,-5 2,116 0,28 -35,1 -91,0 -129,2 1,-26 0,-75 1,-1 0,-244 0,-87 -4,0 0,-45 2,-59 0,-90 -2,-61 0,-86 -1,-74 4,-1 0,-25 93,0 61,0 1,157 25,105 22,97 13,54Z"/>
    <path data-fips-int="32013" data-name="Humboldt County" d="M1160,102l-1,81 1,98 0,295 0,118 -1,51 -82,0 -20,56 0,-75 -13,0 -89,0 -21,-1 1,-83 -71,0 -62,-1 -88,0 -4,-1 -80,0 -105,-2 1,-49 -47,-2 -130,-2 -11,0 -7,0 0,-42 3,-89 9,0 2,-85 -7,0 4,-84 -3,0 2,-76 2,-50 2,-65 168,4 55,2 19,-1 111,0 10,1 197,2Z"/>
    <path data-fips-int="32015" data-name="Lander County" d="M1314,575l0,25 -4,1 1,74 0,86 2,61 0,90 -2,59 0,45 4,0 0,87 0,244 -1,1 0,75 -1,26 -120,0 -3,-2 -146,0 -43,8 -120,25 -10,-10 4,-8 -6,-7 8,-2 1,-12 15,-7 8,-11 3,-14 -14,-32 -4,-24 6,-12 19,0 8,-17 12,-3 2,-11 -7,-8 15,-6 10,-10 -1,-6 21,-6 5,-4 10,1 6,-21 -2,-9 7,-17 -8,-4 8,-17 -9,-17 4,-14 -6,-2 3,-19 -1,-18 9,-16 1,-15 -5,-23 -9,-6 -15,-24 23,-63 23,-66 42,-119 20,-56 82,0 1,-51 0,-118 124,0Z"/>
    <path data-fips-int="32017" data-name="Lincoln County" d="M2258,1661l3,111 2,37 3,98 3,86 3,80 0,49 2,54 7,214 0,18 4,69 1,55 -66,2 -124,3 -22,1 -53,1 -5,-4 -46,0 -129,4 -35,0 -75,2 -87,1 0,5 -59,1 -1,-151 -1,-89 -1,-13 0,-110 -1,-39 -1,-124 0,-48 146,-2 112,-2 75,-2 -5,-204 -2,-93 68,-2 55,-2 75,-1Z"/>
    <path data-fips-int="32019" data-name="Lyon County" d="M521,1484l-65,-1 -33,61 -1,44 42,1 -1,37 -2,4 -1,62 -1,58 -1,46 -93,-2 -63,-59 1,-53 -6,-1 0,-41 -21,1 2,-36 -7,-7 0,-14 -6,0 1,-14 6,0 1,-34 7,0 1,-14 20,0 14,-2 0,-45 -88,-3 -3,-25 -4,-3 5,-24 -32,-1 -12,-8 -11,-19 26,-7 61,-32 75,-133 29,1 6,-5 3,-10 6,0 20,-18 12,-14 -1,41 -4,-1 -1,57 -11,-1 -1,62 7,7 20,14 -1,8 14,7 0,7 6,7 9,0 6,14 13,7 0,8 8,0 -1,13 9,0 13,14 0,7 7,0 7,7 0,14 14,0Z"/>
    <path data-fips-int="32021" data-name="Mineral County" d="M847,1489l-122,34 0,39 41,47 75,88 69,77 -50,54 -45,50 -154,169 -29,-1 -98,-93 -38,-35 -131,-124 93,2 1,-46 1,-58 1,-62 2,-4 1,-37 -42,-1 1,-44 33,-61 65,1 37,0 91,3Z"/>
    <path data-fips-int="32023" data-name="Nye County" d="M1313,1449l129,-2 91,0 35,-1 92,61 36,23 45,31 53,35 112,75 2,93 5,204 -75,2 -112,2 -146,2 0,48 1,124 1,39 0,110 1,13 1,89 1,151 2,124 2,149 0,43 2,83 -83,-78 -121,-113 -90,-85 -193,-182 0,-95 0,-274 1,-1 0,-119 -21,-23 -8,0 0,-10 -42,-48 -79,-92 -45,-53 -69,-77 -75,-88 -41,-47 0,-39 122,-34 34,-9 120,-25 43,-8 146,0 3,2Z"/>
    <path data-fips-int="32027" data-name="Pershing County" d="M1057,801l-42,119 -23,66 -23,63 -135,-1 -3,-1 -96,0 -153,0 -36,-2 -63,0 -28,-2 -97,-2 -42,0 3,-105 2,-61 2,-81 9,0 1,-59 5,-111 0,-39 11,0 130,2 47,2 -1,49 105,2 80,0 4,1 88,0 62,1 71,0 -1,83 21,1 89,0 13,0Z"/>
    <path data-fips-int="32029" data-name="Storey County" d="M332,1220l-75,133 -61,32 -26,7 6,-4 1,-10 6,0 1,-25 7,0 -3,-13 -6,-7 3,-14 7,0 1,-20 -14,0 1,-35 11,6 15,0 13,-16 11,-1 11,-9 22,0 4,-9 34,0Z"/>
    <path data-fips-int="32031" data-name="Washoe County" d="M345,94l-2,65 -2,50 -2,76 3,0 -4,84 7,0 -2,85 -9,0 -3,89 0,42 7,0 0,39 -5,111 -1,59 -9,0 -2,81 -2,61 -3,105 42,0 -2,48 7,0 -2,42 7,0 0,11 7,0 -2,51 -6,0 0,23 -6,5 -29,-1 -31,15 -34,0 -4,9 -22,0 -11,9 -11,1 -13,16 -15,0 -11,-6 -1,35 14,0 -1,20 -7,0 -3,14 6,7 3,13 -7,0 -1,25 -6,0 -1,10 -6,4 -15,3 -7,13 -12,3 -8,0 -14,10 -7,10 -46,-2 2,-86 7,-131 6,-179 3,-47 7,-243 8,-262 6,-181 2,-57 5,-156 78,3Z"/>
    <path data-fips-int="32033" data-name="White Pine County" d="M2237,978l3,58 0,47 3,73 3,99 6,194 1,59 3,47 2,106 -154,5 -75,1 -55,2 -68,2 -112,-75 -53,-35 -45,-31 -36,-23 -92,-61 0,-28 -2,-116 2,5 12,-9 0,-6 9,-11 5,-16 -3,-6 9,-17 -6,-27 1,-19 -3,-20 7,-11 1,-21 -3,-8 8,-19 -4,-7 1,-21 -6,-8 1,-12 -7,-14 3,-20 -1,-17 -5,-18 6,-9 -4,-4 77,-1 182,0 71,-2 50,0 31,-2 51,0 38,-1 74,-1Z"/>
    <path data-fips-int="32510" data-name="Carson City" d="M227,1472l-74,-2 -3,-13 -89,-2 0,-26 46,2 7,-10 14,-10 8,0 12,-3 7,-13 15,-3 11,19 12,8 32,1 -5,24 4,3Z"/>
  </g>
  <g class="cities">
    <circle r="3" cx="188.0" cy="286.0"/>
    <text x="188.0" y="286.0">Las Vegas</text>
    <circle r="3" cx="194.1" cy="292.3"/>
    <text x="194.1" y="292.3">Henderson</text>
    <circle r="3" cx="13.7" cy="125.9"/>
    <text x="13.7" y="125.9">Reno</text>
  </g>
</svg>