<?xml version="1.0" encoding="utf-8"?>
<!DOCTYPE svg PUBLIC "-//W3C//DTD SVG 1.1//EN" "http://www.w3.org/Graphics/SVG/1.1/DTD/svg11.dtd">
<svg version="1.1" xmlns="http://www.w3.org/2000/svg" width="674" height="1000" viewBox="0 0 674 1000">
  <path class="state" d="M97,25l49,2h184l1,2 56,-2h84l65,-1 27,-1h56h12l3,73 5,181 2,78 4,117 5,194 3,55 3,88 -10,23 -12,2 -14,-17h-22l-20,10 4,18 8,11 -5,1v21l7,12 -3,16 7,12 6,28 -6,27 -142,-134 -139,-130 -79,-75 -56,-51 -76,-73 -18,-17 -69,-64v-16v-7l2,-62 4,-72 3,-136 4,-113Z"/>
  <g class="counties">
    <path data-fips-int="32001" data-name="Churchill County" d="M277,299l7,13 -2,12 -1,39 -10,2 -12,18 -6,2 4,16 -7,11 1,11 -10,2h-58l-36,-1 -13,-21 -23,-23 3,-17 2,-28 -12,12 2,-21 -5,-15 1,-14 29,1h78l7,1Z"/>
    <path data-fips-int="32003" data-name="Clark County" d="M653,723l3,88 -10,23 -12,2 -14,-17h-22l-20,10 4,18 8,11 -5,1v21l7,12 -3,16 7,12 6,28 -6,27 -142,-134 -1,-114 23,-2 54,-1h92Z"/>
    <path data-fips-int="32005" data-name="Douglas County" d="M65,420l25,1v12l-12,5v31h7l1,26 -69,-64v-16h25l2,5Z"/>
    <path data-fips-int="32007" data-name="Elko County" d="M639,279l-29,1h-61l-1,1h-95l-17,1 -17,-71v-47h-44h-44v-135l56,-2h84l65,-1 27,-1h56h12l3,73Z"/>
    <path data-fips-int="32009" data-name="Esmeralda County" d="M315,711l-79,-75 -56,-51h8l71,-78 56,64Z"/>
    <path data-fips-int="32011" data-name="Eureka County" d="M453,281l4,31 -2,23 2,20 -3,11 -7,7 1,39 -7,1h-66v-1v-122l-1,-119 1,-7h44v47l17,71Z"/>
    <path data-fips-int="32013" data-name="Humboldt County" d="M331,29v135v49h-24l-5,15v-21h-36v-24l-55,-1h-62l1,-14 -54,-1 -2,-1v-37h3v-71v-33l49,2h184Z"/>
    <path data-fips-int="32015" data-name="Lander County" d="M375,164l-1,7 1,119v122v1h-80l-44,10 -1,-11 7,-11 -4,-16 6,-2 12,-18 10,-2 1,-39 2,-12 -7,-13 25,-71 5,-15h24v-49Z"/>
    <path data-fips-int="32017" data-name="Lincoln County" d="M645,474l5,194 3,55 -31,1h-92l-54,1 -23,2 -2,-139v-24l28,-1h54l13,-1 -2,-85 51,-1Z"/>
    <path data-fips-int="32019" data-name="Lyon County" d="M147,424h-18l-9,17v12h12l-1,58 -27,1 -18,-17 -1,-26h-7v-31l12,-5v-12l-25,-1 -1,-14 -11,-1 -5,-8 26,-12 20,-36 10,-2 12,-12 -2,28 -3,17 23,23Z"/>
    <path data-fips-int="32021" data-name="Mineral County" d="M241,425l-34,9v12l52,61 -71,78h-8l-76,-73 27,-1 1,-58h-12v-12l9,-17h18l36,1Z"/>
    <path data-fips-int="32023" data-name="Nye County" d="M375,413h66l7,-1 96,65 2,85 -13,1h-54l-28,1v24l2,139 1,114 -139,-130v-140l-56,-64 -52,-61v-12l34,-9 10,-2 44,-10Z"/>
    <path data-fips-int="32027" data-name="Pershing County" d="M302,228l-25,71h-61l-7,-1h-78l-29,-1h-12l1,-70h3l2,-60 54,1 -1,14h62l55,1v24h36Z"/>
    <path data-fips-int="32029" data-name="Storey County" d="M94,349l-20,36 -26,12 6,-10 -3,-16 3,-8 21,-10Z"/>
    <path data-fips-int="32031" data-name="Washoe County" d="M97,25v33v71h-3v37l2,1 -2,60h-3l-1,70h12l-1,14 5,15 -2,21 -10,2 -19,4 -21,10 -3,8 3,16 -6,10 -10,6 -8,6 -13,-1 2,-62 4,-72 3,-136 4,-113Z"/>
    <path data-fips-int="32033" data-name="White Pine County" d="M639,279l2,78 4,117 -50,2 -51,1 -96,-65 -1,-39 7,-7 3,-11 -2,-20 2,-23 -4,-31h95l1,-1h61Z"/>
    <path data-fips-int="32510" data-name="Carson City" d="M65,420h-21l-2,-5h-25v-7l13,1 8,-6 10,-6 5,8 11,1Z"/>
  </g>
  <path class="mesh" d="M454,841l-1,-114 23,-2 54,-1h92l31,-1M17,415h25l2,5h21l25,1v12l-12,5v31h7l1,26M639,279l-29,1h-61l-1,1h-95l-17,1 -17,-71v-47h-44h-44v-135M180,585h8l71,-78 56,64v140M453,281l4,31 -2,23 2,20 -3,11 -7,7 1,39 -7,1h-66v-1v-122l-1,-119 1,-7M331,164v49h-24l-5,15v-21h-36v-24l-55,-1h-62l1,-14 -54,-1 -2,-1v-37h3v-71v-33M375,413h-80l-44,10 -10,2h-58l-36,-1 -13,-21 -23,-23 3,-17 2,-28 -12,12 2,-21 -5,-15 1,-14 29,1h78l7,1h61l25,-71M453,727l-2,-139v-24l28,-1h54l13,-1 -2,-85 51,-1 50,-2M147,424h-18l-9,17v12h12l-1,58 -27,1M65,420l-1,-14 -11,-1 -5,-8 26,-12 20,-36 10,-2M241,425l-34,9v12l52,61M448,412l96,65M102,297h-12l1,-70h3l2,-60M48,397l6,-10 -3,-16 3,-8 21,-10 19,-4M277,299l7,13 -2,12 -1,39 -10,2 -12,18 -6,2 4,16 -7,11 1,11M48,397l-10,6 -8,6 -13,-1"/>
  <g class="cities">
    <circle r="7" cx="537" cy="817"/>
    <text x="537" y="817">Las Vegas</text>
    <circle r="7" cx="39" cy="360"/>
    <text x="39" y="360">Reno</text>
    <circle r="7" cx="460" cy="187"/>
    <text x="460" y="187">Elko</text>
  </g>
</svg>