<?xml version="1.0" encoding="utf-8"?>
<!DOCTYPE svg PUBLIC "-//W3C//DTD SVG 1.1//EN" "http://www.w3.org/Graphics/SVG/1.1/DTD/svg11.dtd">
<svg version="1.1" xmlns="http://www.w3.org/2000/svg" width="1000" height="766" viewBox="0 0 1000 766">
  <path class="state" d="M787,420l-17,70 2,5v42l-2,41 -1,27 -1,11 9,12 -29,20 9,12v8l-16,15 -1,12 -14,2 -12,16 1,-9 10,-20 1,-5 5,-22 -3,-25 -9,-7 -2,-12h-1l4,21 6,7 -2,14 3,10 -40,-23 -17,-9 -33,-19 -14,-16 -17,-2 -11,-6 -9,-18 1,-26 -3,-10 -8,-6 -15,-3 -3,-13 -9,-7h-88l-54,-1h-49l-94,-2 -66,-2 -90,-3 -83,-3v-44l18,-7 20,-13 17,-15 22,-9 12,-20 22,-12v-13l-9,-20 9,-7 -5,-8 -17,-3 3,-28 5,-3 55,-13h9h35l19,3 34,7 17,15 22,-6 33,-2 13,3 19,-5 12,-6 12,-12 12,-7 12,-10 14,2 11,-9 1,-18h-1l-4,-22 -8,-3 20,-9 -2,-28 -14,3 -2,6 -1,-8 -11,-8 9,-14 17,-6v-7l14,-8 11,-3 10,-8 11,-19 40,-41 32,-23 33,-16 13,2 80,-2 77,-3 1,15 -4,13 6,5 -4,9 -1,26 5,6 5,20 -3,8 1,21 -7,8 -5,25 4,3v16l4,18 3,3 -8,26h14l8,14v63l-1,32 -1,26 3,5ZM122,328l12,8 -7,10 -7,-7ZM708,723l1,8 -8,9 -15,6 8,-24ZM734,721l-2,11 -15,2 -5,-6 9,-21 6,-9 19,2 2,-14 19,-10 14,10 -3,-14 8,7 2,-5 14,1 14,4 5,-13h44l22,-6 27,-24 -6,11 3,7 -17,9 -11,10 16,3 15,-17 22,-2 3,-8 7,10 8,-2 10,-13 9,4 -28,12 -37,21h-15l-4,8 -28,6 -1,4 -50,9 -6,5 -18,5 -15,3 -14,8h-8l-20,6 16,-10 3,-3Z"/>
  <g class="counties">
    <path data-fips-int="36001" data-name="Albany County" d="M746,378l-2,14 -5,9 1,12 -4,16 -55,10 3,-19 -2,-7 7,-13 -1,-13 44,-9 10,-7Z"/>
    <path data-fips-int="36003" data-name="Allegany County" d="M232,419l23,2v6l15,1 -2,11 -4,65 -66,-2 2,-83Z"/>
    <path data-fips-int="36007" data-name="Broome County" d="M543,475l-1,25 7,7h-88l-1,-28 2,-14 -4,-25h32l1,23 3,4h22v8Z"/>
    <path data-fips-int="36009" data-name="Cattaraugus County" d="M182,416v3h18l-2,83 -90,-3 2,-37 1,-49 9,1 7,15h11l12,-6Z"/>
    <path data-fips-int="36011" data-name="Cayuga County" d="M417,309l1,20 -3,15h4l1,26h12l9,11 1,25h-48l-7,-17 2,-24 -2,-15 3,-9v-51l12,-12 1,27 14,-1Z"/>
    <path data-fips-int="36013" data-name="Chautauqua County" d="M111,413l-1,49 -2,37 -83,-3v-44l18,-7 20,-13 17,-15 22,-9Z"/>
    <path data-fips-int="36015" data-name="Chemung County" d="M400,461h10v20l-3,1v24h-49v-45l27,-2v7h15Z"/>
    <path data-fips-int="36017" data-name="Chenango County" d="M557,387l-4,19 -1,10 -7,8 3,17 -5,15v19h-27v-8h-22l-3,-4 -1,-23 -3,-51Z"/>
    <path data-fips-int="36019" data-name="Clinton County" d="M779,93l-15,2 -3,8 -19,8 -28,2 -3,-23 -9,-38 -3,-30 77,-3 1,15 -4,13 6,5 -4,9 -1,26Z"/>
    <path data-fips-int="36021" data-name="Columbia County" d="M772,495l-4,12 -22,-4 -26,-12 2,-8 7,-16 8,-7 -1,-31 51,-9 -17,70Z"/>
    <path data-fips-int="36023" data-name="Cortland County" d="M458,440l-15,1 -1,-35 -1,-25 45,-2 1,10 3,51Z"/>
    <path data-fips-int="36025" data-name="Delaware County" d="M658,448l2,1 -13,24 11,5 -39,25 -43,27 -15,-3 -3,-13 -9,-7 -7,-7 1,-25v-19h10l8,-8 11,-2 13,-9h4l21,-13 16,-2 11,15Z"/>
    <path data-fips-int="36027" data-name="Dutchess County" d="M772,495v42l-2,41 -48,8 -6,8 -2,-15 5,-9 1,-28 -3,-22 3,-29 26,12 22,4Z"/>
    <path data-fips-int="36029" data-name="Erie County" d="M184,328l-1,34 -1,54 -32,7 -12,6h-11l-7,-15 -9,-1 -9,-5 12,-20 22,-12v-13l-9,-20 9,-7 17,-10ZM122,328l12,8 -7,10 -7,-7Z"/>
    <path data-fips-int="36031" data-name="Essex County" d="M778,212l-7,1 -71,11 1,-8 -12,-5 -9,1 -14,-16 10,-8 -4,-24 21,-3 -6,-43 27,-5 28,-2 19,-8 3,-8 15,-2 5,20 -3,8 1,21 -7,8 -5,25 4,3v16Z"/>
    <path data-fips-int="36033" data-name="Franklin County" d="M699,22l3,30 9,38 3,23 -27,5 6,43 -21,3 -29,4 1,-12 -16,-125h-8l-1,-7Z"/>
    <path data-fips-int="36035" data-name="Fulton County" d="M691,302l6,44 -52,1 -26,-9 -1,-12 8,-9 -1,-18 20,9 24,-2 1,4 12,-1Z"/>
    <path data-fips-int="36037" data-name="Genesee County" d="M249,344l-6,21 -25,-3h-35l1,-34 1,-8 54,1 11,1 -5,14Z"/>
    <path data-fips-int="36039" data-name="Greene County" d="M722,483l-16,-6 -3,12 -25,-2 -20,-9 -11,-5 13,-24 -2,-1 24,-4 -1,-5 55,-10 1,31 -8,7Z"/>
    <path data-fips-int="36041" data-name="Hamilton County" d="M700,224l-19,3 7,58 3,17 -9,7 -12,1 -1,-4 -24,2 -20,-9 -18,-7 9,-23 -10,-96 37,-5 29,-4 4,24 -10,8 14,16 9,-1 12,5Z"/>
    <path data-fips-int="36043" data-name="Herkimer County" d="M606,173l10,96 -9,23 18,7 1,18 -8,9 1,12 3,3 -3,26 -13,-5 -3,11 -23,-13 -5,8 -8,-3 -1,-29 17,-27 -11,-6 1,-6 9,-4 -5,-46 -1,-18 -7,-60 13,8Z"/>
    <path data-fips-int="36049" data-name="Lewis County" d="M577,247l-48,31 -27,-8 -2,-35 -1,-16h-8l1,-15h10l17,-13h8l6,-18 -6,-5 11,-18 31,19 7,60Z"/>
    <path data-fips-int="36051" data-name="Livingston County" d="M288,352l3,15h-4l-3,16v14h14l-1,15 -20,-1 -7,7v10l-15,-1v-6l-23,-2 11,-28v-26l6,-21h21l-3,8Z"/>
    <path data-fips-int="36053" data-name="Madison County" d="M488,321l19,-1 13,19h7l1,18h11l1,11 22,-2v2v13l-5,6 -70,2 -1,-10 -2,-46 -2,-2h-1h-1h-1h-2l-3,-14Z"/>
    <path data-fips-int="36055" data-name="Monroe County" d="M313,300v38h-14v14h-11h-21l3,-8h-21l-4,-8 5,-14 -11,-1 1,-37 34,7 17,15Z"/>
    <path data-fips-int="36057" data-name="Montgomery County" d="M697,346l1,5v9l-20,16 -24,5 -21,-8 -14,-6 3,-26 -3,-3 26,9Z"/>
    <path data-fips-int="36065" data-name="Oneida County" d="M567,365l-5,1 -22,2 -1,-11h-11l-1,-18h-7l-13,-19 -19,1 2,-27h-3l8,-26 7,2 27,8 48,-31 5,46 -9,4 -1,6 11,6 -17,27Z"/>
    <path data-fips-int="36067" data-name="Onondaga County" d="M465,310v2l2,2 6,3h1l3,14h2h1h1h1l2,2 2,46 -45,2 -9,-11h-12l-1,-26h-4l3,-15 -1,-20h21l11,4 1,-11Z"/>
    <path data-fips-int="36069" data-name="Ontario County" d="M360,343l-1,40h-41l-6,14v15h-15l1,-15h-14v-14l3,-16h4l-3,-15h11v-14h14h27v5Z"/>
    <path data-fips-int="36071" data-name="Orange County" d="M719,570l-5,9 2,15 4,12 -4,7 -29,29 -17,-9 -33,-19 -14,-16 1,-12 33,-2 12,-14 12,-6 3,4 14,3Z"/>
    <path data-fips-int="36073" data-name="Orleans County" d="M240,284l-1,37 -54,-1 1,-39h35Z"/>
    <path data-fips-int="36077" data-name="Otsego County" d="M619,367l14,6 -3,12 5,20 -9,17 -16,2 -21,13h-4l-13,9 -11,2 -8,8h-10l5,-15 -3,-17 7,-8 1,-10 4,-19 5,-6v-13v-2l5,-1 8,3 5,-8 23,13 3,-11Z"/>
    <path data-fips-int="36079" data-name="Putnam County" d="M769,605l-52,8h-1l4,-7 -4,-12 6,-8 48,-8Z"/>
    <path data-fips-int="36083" data-name="Rensselaer County" d="M794,350l-1,26 3,5 -9,39 -51,9 4,-16 -1,-12 5,-9 2,-14v-21l6,-5Z"/>
    <path data-fips-int="36085" data-name="Richmond County" d="M708,723l1,8 -8,9 -15,6 8,-24Z"/>
    <path data-fips-int="36087" data-name="Rockland County" d="M687,642l29,-29 4,21 6,7 -2,14 3,10Z"/>
    <path data-fips-int="36089" data-name="Saint Lawrence County" d="M619,24l1,7h8l16,125 -1,12 -37,5 -24,4 -13,-8 -31,-19 -48,-29 11,-19 40,-41 32,-23 33,-16Z"/>
    <path data-fips-int="36091" data-name="Saratoga County" d="M755,293l1,12 2,29 -6,18 -6,5v21l-4,-7 -10,7 -10,-10 -2,-11 -22,-6 -1,-5 -6,-44 -3,-17 33,-6 6,24 11,1Z"/>
    <path data-fips-int="36093" data-name="Schenectady County" d="M732,378l-44,9 -9,2 -5,-5 4,-8 20,-16v-9l22,6 2,11Z"/>
    <path data-fips-int="36095" data-name="Schoharie County" d="M678,376l-4,8 5,5 9,-2 1,13 -7,13 2,7 -3,19 1,5 -24,4 -21,-11 -11,-15 9,-17 -5,-20 3,-12 21,8Z"/>
    <path data-fips-int="36097" data-name="Schuyler County" d="M400,461v5h-15v-7l-27,2 -15,1 -1,-35h14l12,5v-13l23,-1 1,42Z"/>
    <path data-fips-int="36099" data-name="Seneca County" d="M394,406l10,12h-13l-23,1v-20l-9,-16 1,-40 30,-2 -3,9 2,15 -2,24Z"/>
    <path data-fips-int="36101" data-name="Steuben County" d="M297,412h15l26,1 -1,12 5,2 1,35 15,-1v45l-94,-2 4,-65 2,-11v-10l7,-7Z"/>
    <path data-fips-int="36105" data-name="Sullivan County" d="M669,570l-12,14 -33,2 -1,12 -17,-2 -11,-6 -9,-18 1,-26 -3,-10 -8,-6 43,-27 39,22 -14,22 22,16Z"/>
    <path data-fips-int="36107" data-name="Tioga County" d="M458,440l4,25 -2,14 1,28 -54,-1v-24l3,-1v-20l14,3v-9l20,4 -1,-18Z"/>
    <path data-fips-int="36109" data-name="Tompkins County" d="M442,406l1,35 1,18 -20,-4v9l-14,-3h-10l-8,-1 -1,-42h13l-10,-12Z"/>
    <path data-fips-int="36111" data-name="Ulster County" d="M722,483l-2,8 -3,29 3,22 -1,28 -21,1 -14,-3 -3,-4 -12,6 -3,-7 -22,-16 14,-22 -39,-22 39,-25 20,9 25,2 3,-12Z"/>
    <path data-fips-int="36113" data-name="Warren County" d="M755,293l-17,11 -11,-1 -6,-24 -33,6 -7,-58 19,-3 71,-11 -4,4 -2,20 -13,14 -3,10Z"/>
    <path data-fips-int="36115" data-name="Washington County" d="M794,350l-42,2 6,-18 -2,-29 -1,-12 -6,-32 3,-10 13,-14 2,-20 4,-4 7,-1 3,3 -8,26h14l8,14v63Z"/>
    <path data-fips-int="36121" data-name="Wyoming County" d="M243,365v26l-11,28h-32h-18v-3l1,-54h35Z"/>
    <path data-fips-int="36123" data-name="Yates County" d="M368,419v13l-12,-5h-14l-5,-2 1,-12 -26,-1v-15l6,-14h41l9,16Z"/>
    <path data-fips-int="36005" data-name="Bronx County" d="M741,683l-1,12 -14,2 -1,-13 1,-5Z"/>
    <path data-fips-int="36045" data-name="Jefferson County" d="M441,183l-1,-8 -11,-8 9,-14 17,-6v-7l14,-8 11,-3 10,-8 48,29 -11,18 6,5 -6,18h-8l-17,13h-10l-1,15h8l1,16 -29,-3v7l-19,-3h-1l-4,-22 -8,-3 20,-9 -2,-28 -14,3Z"/>
    <path data-fips-int="36047" data-name="Kings County" d="M734,721l-2,11 -15,2 -5,-6 9,-21Z"/>
    <path data-fips-int="36061" data-name="New York County" d="M726,697l-12,16 1,-9 10,-20Z"/>
    <path data-fips-int="36063" data-name="Niagara County" d="M186,281l-1,39 -1,8 -31,-2 -17,10 -5,-8 -17,-3 3,-28 5,-3 55,-13Z"/>
    <path data-fips-int="36075" data-name="Oswego County" d="M500,235l2,35 -7,-2 -8,26h3l-2,27 -14,-4h-1l-6,-3 -2,-2v-2l-15,-8 -1,11 -11,-4h-21v-5l-14,1 -1,-27 12,-7 12,-10 14,2 11,-9 1,-18 19,3v-7Z"/>
    <path data-fips-int="36081" data-name="Queens County" d="M746,700l7,4 -5,18 -14,-1 -13,-14 6,-9Z"/>
    <path data-fips-int="36103" data-name="Suffolk County" d="M786,718l-5,-32 -3,-14 8,7 2,-5 14,1 14,4 5,-13h44l22,-6 27,-24 -6,11 3,7 -17,9 -11,10 16,3 15,-17 22,-2 3,-8 7,10 8,-2 10,-13 9,4 -28,12 -37,21h-15l-4,8 -28,6 -1,4 -50,9 -6,5Z"/>
    <path data-fips-int="36117" data-name="Wayne County" d="M390,341l-30,2h-20v-5h-27v-38l33,-2 13,3 19,-5 12,-6Z"/>
    <path data-fips-int="36119" data-name="Westchester County" d="M757,668l-16,15 -15,-4 5,-22 -3,-25 -9,-7 -2,-12 52,-8 -1,11 9,12 -29,20 9,12Z"/>
    <path data-fips-int="36059" data-name="Nassau County" d="M781,686l5,32 -15,3 -14,8h-8l-4,-4 3,-3 5,-18 -7,-4 2,-14 19,-10Z"/>
  </g>
  <path class="mesh" d="M441,381l1,25h-48l-7,-17 2,-24 -2,-15 3,-9v-51M358,506v-45l27,-2v7h15v-5h10v20l-3,1v24M779,93l-15,2 -3,8 -19,8 -28,2 -3,-23 -9,-38 -3,-30M658,448l24,-4 -1,-5 3,-19 -2,-7 7,-13 -1,-13 44,-9 10,-7 4,7 -2,14 -5,9 1,12 -4,16 51,-9M417,309l1,20 -3,15h4l1,26h12l9,11 45,-2 1,10M543,456h10l8,-8 11,-2 13,-9h4l21,-13 16,-2 11,15 21,11 2,1 -13,24 11,5 -39,25 -43,27M770,578l-48,8 -6,8 -2,-15 5,-9 1,-28 -3,-22 3,-29M778,212l-7,1 -71,11 1,-8 -12,-5 -9,1 -14,-16 10,-8 -4,-24 21,-3 -6,-43 27,-5M672,164l-29,4 1,-12 -16,-125h-8l-1,-7M700,224l-19,3 7,58 3,17 6,44 -52,1 -26,-9 -1,-12 8,-9 -1,-18 20,9 24,-2 1,4 12,-1 9,-7M184,328l1,-8 54,1 11,1 -5,14 4,8 -6,21 -25,-3h-35M722,483l-16,-6 -3,12 -25,-2 -20,-9M625,299l-18,-7 9,-23 -10,-96 37,-5M619,338l3,3 -3,26 -13,-5 -3,11 -23,-13 -5,8 -8,-3 -1,-29 17,-27 -11,-6 1,-6 9,-4 -5,-46 -1,-18 -7,-60 13,8 24,-4M577,247l-48,31 -27,-8 -2,-35 -1,-16h-8l1,-15h10l17,-13h8l6,-18 -6,-5 11,-18 31,19M232,419l11,-28v-26M486,379l-2,-46 -2,-2h-1h-1h-1h-2l-3,-14 14,4 19,-1 13,19h7l1,18h11l1,11 22,-2v2v13l-5,6M198,502l2,-83h32l23,2v6l15,1 -2,11 -4,65M458,440h32l-3,-51 70,-2 -4,19 -1,10 -7,8 3,17 -5,15v19l-1,25 7,7M313,300v38h-14v14h-11M239,321l1,-37M697,346l1,5v9l-20,16 -24,5 -21,-8 -14,-6M567,365l-5,1M488,321l2,-27h-3l8,-26 7,2M490,440l1,23 3,4h22v8h27M136,336l17,-10 31,2 -1,34 -1,54v3h18M108,499l2,-37 1,-49 9,1 7,15h11l12,-6 32,-7M402,278l1,27 14,-1v5h21l11,4 1,-11 15,8v2l2,2 6,3h1M313,338h27v5h20l-1,40h-41l-6,14v15h-15M716,594l4,12 -4,7 -29,29M623,598l1,-12 33,-2 12,-14 12,-6 3,4 14,3 21,-1M185,320l1,-39M633,373l-3,12 5,20 -9,17M769,605l-52,8M746,378v-21l6,-5 42,-2M538,150l-48,-29M688,285l33,-6 6,24 11,1 17,-11 1,12 2,29 -6,18M732,378l-10,-10 -2,-11 -22,-6M688,387l-9,2 -5,-5 4,-8M358,461l-15,1 -1,-35h14l12,5v-13l23,-1 1,42 8,1M394,406l10,12h-13M368,419v-20l-9,-16M360,343l30,-2M312,412l26,1 -1,12 5,2M619,503l39,22 -14,22 22,16 3,7M410,461l14,3v-9l20,4 -1,-18M771,213l-4,4 -2,20 -13,14 -3,10 6,32M726,697l-1,-13M726,679l15,4M500,235l-29,-3v7l-19,-3M721,707l13,14M746,700l7,4 -5,18M786,718l-5,-32M102,408l9,5M772,495l-4,12 -22,-4 -26,-12 2,-8 7,-16 8,-7 -1,-31 -55,10M249,344h21l-3,8h21l3,15h-4l-3,16v14h14l-1,15 -20,-1 -7,7v10M461,507l-1,-28 2,-14 -4,-25 -15,1 -1,-35"/>
  <g class="cities">
    <circle r="7" cx="719" cy="704"/>
    <text x="719" y="704">New York</text>
    <circle r="7" cx="135" cy="358"/>
    <text x="135" y="358">Buffalo</text>
    <circle r="7" cx="285" cy="319"/>
    <text x="285" y="319">Rochester</text>
  </g>
</svg>