<?xml version="1.0" encoding="utf-8"?>
<!DOCTYPE svg PUBLIC "-//W3C//DTD SVG 1.1//EN" "http://www.w3.org/Graphics/SVG/1.1/DTD/svg11.dtd">
<svg version="1.1" xmlns="http://www.w3.org/2000/svg" width="350" height="269" viewBox="0 0 350 269">
  <defs>
    <pattern id="pattern-no-results" width="50" height="50" patternUnits="userSpaceOnUse">
      <rect width="50" height="50" fill="#ddd"/>
      <path d="M-5,5L5,-5M-5,55L55,-5M45,55L55,45" stroke-width="10" stroke="#ffffff"/>
    </pattern>
  </defs>
  <g class="counties" transform="scale(0.1)">
    <path data-fips-int="36001" data-name="Albany County" d="M2617,1326l0,1 -10,45 -20,38 0,57 -10,40 -195,36 10,-49 -6,-32 28,-60 -5,-40 153,-32 28,-22Z"/>
    <path data-fips-int="36003" data-name="Allegany County" d="M814,1474l81,4 0,24 49,2 -10,128 -7,139 -233,-8 8,-293Z"/>
    <path data-fips-int="36007" data-name="Broome County" d="M1900,1669l-2,79 25,30 -309,0 -5,-104 13,-4 2,-22 -22,-100 110,-3 8,88 89,5 0,31Z"/>
    <path data-fips-int="36009" data-name="Cattaraugus County" d="M495,1498l11,-1 27,-12 13,5 2,-3 25,-11 48,-12 8,-3 5,0 4,0 0,-1 0,1 5,9 59,0 -8,293 -188,-4 -126,-6 11,-303 29,6 11,31 27,21Z"/>
    <path data-fips-int="36011" data-name="Cayuga County" d="M1463,1087l3,70 -12,0 2,56 12,-2 5,91 39,-1 34,43 3,84 -166,-1 -25,-46 -5,-49 10,-20 -9,-76 12,-35 5,-32 -7,-144 0,-2 7,13 37,-56 3,93 52,-2Z"/>
    <path data-fips-int="36013" data-name="Chautauqua County" d="M391,1450l-11,303 -223,-8 -70,-5 5,-152 100,-52 93,-71 75,-33 5,1Z"/>
    <path data-fips-int="36015" data-name="Chemung County" d="M1401,1618l33,1 0,71 -11,-1 8,60 -7,28 -169,-1 1,-157 97,-8 0,26 38,7Z"/>
    <path data-fips-int="36017" data-name="Chenango County" d="M1950,1359l-13,68 0,1 0,-1 0,1 0,19 -12,19 -17,31 9,52 -15,52 -2,68 -91,0 0,-31 -89,-5 -8,-88 -8,-173 191,-13Z"/>
    <path data-fips-int="36019" data-name="Clinton County" d="M2727,333l-52,6 -10,28 -81,28 -84,9 -26,-157 -8,1 -20,-161 272,-16 4,53 -17,43 18,20 -10,33 -1,97Z"/>
    <path data-fips-int="36021" data-name="Columbia County" d="M2702,1737l-12,41 -75,-13 -85,-40 -10,1 9,-28 23,-57 27,-26 -2,-108 176,-31 -56,244Z"/>
    <path data-fips-int="36023" data-name="Cortland County" d="M1602,1548l-50,1 -3,-121 -3,-84 156,-10 2,38 8,173Z"/>
    <path data-fips-int="36025" data-name="Delaware County" d="M2304,1574l7,3 -45,84 37,18 -137,88 -150,94 -51,-8 -5,-39 -37,-36 -25,-30 2,-79 2,-68 31,0 32,-28 27,3 43,-35 30,-5 71,-48 55,-4 38,51Z"/>
    <path data-fips-int="36027" data-name="Dutchess County" d="M2702,1737l3,0 -8,295 -170,25 -20,28 -7,-49 17,-36 3,-94 -11,-82 11,-98 10,-1 85,40 75,13Z"/>
    <path data-fips-int="36029" data-name="Erie County" d="M441,1215l-23,-33 32,-25 20,24ZM618,1150l30,2 -5,122 -5,186 0,1 -4,0 -5,0 -8,3 -48,12 -25,11 -2,3 -13,-5 -27,12 -11,1 -37,10 -27,-21 -11,-31 -29,-6 -26,-17 -5,-1 38,-65 55,-27 30,-31 -30,-115 22,-14 64,-34 55,11 2,-2Z"/>
    <path data-fips-int="36031" data-name="Essex County" d="M2722,748l-24,2 -249,40 -2,0 5,-30 -38,-16 -30,10 -50,-64 32,-26 -12,-83 75,-12 -22,-151 93,-14 84,-9 81,-28 10,-28 52,-6 20,66 -15,30 10,65 -30,38 -17,85 12,10 0,51Z"/>
    <path data-fips-int="36033" data-name="Franklin County" d="M2446,87l20,161 8,-1 26,157 -93,14 22,151 -75,12 -103,13 3,-40 -53,-439 -27,0 -6,-23 16,-4 215,1Z"/>
    <path data-fips-int="36035" data-name="Fulton County" d="M2421,1066l20,153 -183,1 -90,-33 -3,-38 23,-20 3,-13 -5,-64 73,32 85,-9 2,15 41,-5 -1,-15Z"/>
    <path data-fips-int="36037" data-name="Genesee County" d="M874,1213l-20,44 0,24 -50,-5 -161,-2 5,-122 0,-26 192,4 35,0 -20,53 20,2Z"/>
    <path data-fips-int="36039" data-name="Greene County" d="M2529,1698l-38,-27 -17,4 -13,42 -99,-9 -59,-29 -37,-18 45,-84 -7,-3 82,-15 -4,-16 195,-36 2,108 -27,26Z"/>
    <path data-fips-int="36041" data-name="Hamilton County" d="M2447,790l2,0 -2,0 -63,10 27,201 10,65 -35,4 1,15 -41,5 -2,-15 -85,9 -73,-32 -65,-29 37,-83 -35,-327 128,-19 103,-13 12,83 -32,26 50,64 30,-10 38,16Z"/>
    <path data-fips-int="36043" data-name="Herkimer County" d="M2123,613l35,327 -37,83 65,29 5,64 -3,13 -23,20 3,38 8,38 -8,65 -48,-19 -10,41 -82,-45 -15,27 -30,-13 -3,-96 56,-91 -26,-21 -2,-28 28,-16 -15,-159 0,-1 -26,-270 43,25Z"/>
    <path data-fips-int="36049" data-name="Lewis County" d="M2021,869l0,1 -173,110 -89,-28 -7,-123 -5,-56 -27,-2 4,-53 33,3 63,-52 25,2 23,-60 -25,-15 40,-65 112,68Z"/>
    <path data-fips-int="36051" data-name="Livingston County" d="M1008,1239l10,31 0,1 0,-1 0,1 2,9 0,5 -2,5 -13,0 -8,100 46,5 -1,52 -70,-4 -2,26 -25,0 -1,35 -49,-2 0,-24 -81,-4 -2,-8 7,-39 31,-35 4,-111 0,-24 20,-44 73,1 -2,24Z"/>
    <path data-fips-int="36053" data-name="Madison County" d="M1707,1129l45,-9 27,11 30,42 8,5 25,17 5,60 40,-2 3,39 78,-4 2,28 0,2 0,-2 0,2 -20,41 -55,0 -191,13 -2,-38 -8,-165 -7,-2 -3,0 -4,0 -1,0 -4,0 -3,0 0,-1 0,1 0,-1 -3,-2 0,-26 0,1 0,-1 -7,-25Z"/>
    <path data-fips-int="36055" data-name="Monroe County" d="M1030,1076l67,-21 -2,136 -47,-1 0,51 -40,-2 -63,-1 2,-24 -73,-1 1,-28 -20,-2 20,-53 -35,0 4,-130 115,25 21,26Z"/>
    <path data-fips-int="36057" data-name="Montgomery County" d="M2441,1219l3,15 3,33 -73,56 -80,16 -78,-31 -48,-18 8,-65 -8,-38 90,33Z"/>
    <path data-fips-int="36065" data-name="Oneida County" d="M2010,1073l26,21 -56,91 3,96 -15,7 -78,4 -3,-39 -40,2 -5,-60 -25,-17 -8,-5 -30,-42 -27,-11 -45,9 8,-92 -10,-4 30,-89 24,8 89,28 173,-110 0,-1 0,1 15,159 -28,16Z"/>
    <path data-fips-int="36067" data-name="Onondaga County" d="M1626,1095l3,0 -3,0 0,3 8,5 13,6 10,7 5,-3 7,25 0,1 0,-1 0,26 3,2 0,1 0,-1 0,1 3,0 4,0 1,0 4,0 3,0 7,2 8,165 -156,10 -34,-43 -39,1 -5,-91 -12,2 -2,-56 12,0 -3,-70 71,-2 10,17 32,-10 -2,-28Z"/>
    <path data-fips-int="36069" data-name="Ontario County" d="M1263,1205l-5,139 -141,0 -24,53 0,51 -51,-1 1,-52 -46,-5 8,-100 13,0 2,-5 0,-5 -2,-9 0,-1 0,1 0,-1 -10,-31 40,2 0,-51 47,1 98,-1 0,15Z"/>
    <path data-fips-int="36071" data-name="Orange County" d="M2517,2000l-17,36 7,49 15,23 -15,43 -101,102 -67,-35 -101,-64 -57,-55 2,-39 115,-7 44,-49 2,-2 25,-10 75,14 -3,-19 35,19Z"/>
    <path data-fips-int="36073" data-name="Orleans County" d="M844,1000l-4,130 -192,-4 5,-135 151,1Z"/>
    <path data-fips-int="36077" data-name="Otsego County" d="M2168,1290l48,18 -8,29 16,87 -33,60 -55,4 -71,48 -30,5 -43,35 -27,-3 -32,28 -31,0 15,-52 -9,-52 17,-31 12,-19 0,-19 0,-1 0,1 0,-1 13,-68 20,-41 0,-2 0,2 0,-2 -2,-28 15,-7 30,13 15,-27 82,45 10,-41Z"/>
    <path data-fips-int="36079" data-name="Putnam County" d="M2690,2122l-181,29 -2,0 15,-43 -15,-23 20,-28 170,-25Z"/>
    <path data-fips-int="36083" data-name="Rensselaer County" d="M2737,1232l43,0 -3,88 8,23 -32,133 -176,31 10,-40 0,-57 20,-38 10,-45 0,-1 7,-22 -12,-45 18,-21Z"/>
    <path data-fips-int="36085" data-name="Richmond County" d="M2479,2536l7,26 -29,28 -55,26 22,-72Z"/>
    <path data-fips-int="36087" data-name="Rockland County" d="M2406,2253l101,-102 13,74 22,25 -5,47 8,35Z"/>
    <path data-fips-int="36089" data-name="Saint Lawrence County" d="M2168,92l6,23 27,0 53,439 -3,40 -128,19 -85,11 -43,-25 -112,-68 -166,-104 35,-63 143,-145 78,-60 155,-80Z"/>
    <path data-fips-int="36091" data-name="Saratoga County" d="M2555,1065l14,15 15,-24 58,-24 8,56 4,85 -24,65 -18,21 12,45 -7,22 0,1 0,-1 -27,-18 -28,22 -30,-38 -12,-35 -21,8 -55,-31 -3,-15 -20,-153 -10,-65 113,-18Z"/>
    <path data-fips-int="36093" data-name="Schenectady County" d="M2562,1330l-153,32 -37,9 -15,-21 19,-27 -2,0 73,-56 -3,-33 55,31 21,-8 12,35Z"/>
    <path data-fips-int="36095" data-name="Schoharie County" d="M2374,1323l2,0 -19,27 15,21 37,-9 5,40 -28,60 6,32 -10,49 4,16 -82,15 -75,-39 -38,-51 33,-60 -16,-87 8,-29 78,31Z"/>
    <path data-fips-int="36097" data-name="Schuyler County" d="M1401,1618l-10,26 -38,-7 0,-26 -97,8 -56,-3 0,-114 48,0 0,13 42,1 -2,-45 81,-2 2,147Z"/>
    <path data-fips-int="36099" data-name="Seneca County" d="M1383,1427l31,40 -45,2 -81,2 0,-69 -30,-58 5,-139 103,-4 -12,35 9,76 -10,20 5,49Z"/>
    <path data-fips-int="36101" data-name="Steuben County" d="M1042,1447l51,1 92,2 -4,44 19,8 0,114 56,3 -1,157 -328,-5 7,-139 10,-128 1,-35 25,0 2,-26Z"/>
    <path data-fips-int="36105" data-name="Sullivan County" d="M2344,2002l-2,2 -44,49 -115,7 -2,39 -56,-6 -19,-26 -20,3 -28,-78 -3,-76 -39,-55 150,-94 138,77 -50,74 77,55Z"/>
    <path data-fips-int="36107" data-name="Tioga County" d="M1602,1548l22,100 -2,22 -13,4 5,104 -190,-1 7,-28 -8,-60 11,1 0,-71 49,10 3,-30 68,12 3,-38 -23,-10 18,-14Z"/>
    <path data-fips-int="36109" data-name="Tompkins County" d="M1549,1428l3,121 -18,14 23,10 -3,38 -68,-12 -3,30 -49,-10 -33,-1 -30,-2 -2,-147 45,-2 -31,-40Z"/>
    <path data-fips-int="36111" data-name="Ulster County" d="M2529,1698l-9,28 -11,98 11,82 -3,94 -41,6 -35,-19 3,19 -75,-14 -25,10 -2,2 2,-2 -13,-29 -77,-55 50,-74 -138,-77 137,-88 59,29 99,9 13,-42 17,-4Z"/>
    <path data-fips-int="36113" data-name="Warren County" d="M2678,824l0,13 -48,50 -3,25 15,120 -58,24 -15,24 -14,-15 -31,-82 -113,18 -27,-201 63,-10 2,0 249,-40Z"/>
    <path data-fips-int="36115" data-name="Washington County" d="M2780,1232l-43,0 -107,6 24,-65 -4,-85 -8,-56 -15,-120 3,-25 48,-50 0,-13 20,-74 24,-2 13,21 -30,77 0,27 18,6 5,-28 27,-3 5,28 22,28Z"/>
    <path data-fips-int="36121" data-name="Wyoming County" d="M854,1281l-4,111 -31,35 -7,39 2,8 -112,-4 -59,0 -5,-9 0,-1 5,-186 161,2Z"/>
    <path data-fips-int="36123" data-name="Yates County" d="M1288,1471l2,45 -42,-1 0,-13 -48,0 -19,-8 4,-44 -92,-2 0,-51 24,-53 141,0 30,58Z"/>
    <path data-fips-int="36005" data-name="Bronx County" d="M2565,2383l2,0 -2,0 2,0 27,13 -4,39 -46,11 -5,-46 5,-21Z"/>
    <path data-fips-int="36045" data-name="Jefferson County" d="M1546,647l-15,-37 0,-1 0,1 -32,-20 35,-49 37,-6 23,-39 67,-37 11,2 45,-34 166,104 -40,65 25,15 -23,60 -25,-2 -63,52 -33,-3 -4,53 27,2 5,56 -103,-10 0,22 -63,-7 -5,-1 -4,0 -15,-80 -23,-19 28,-18 10,14 32,-19 -7,-23 32,-19 -8,-16 -19,20 -31,-7 36,-32 -10,-20 -31,1 -19,9Z"/>
    <path data-fips-int="36047" data-name="Kings County" d="M2554,2509l15,12 0,6 -7,38 -55,8 -13,-20 6,-40 25,-33Z"/>
    <path data-fips-int="36061" data-name="New York County" d="M2544,2446l-44,54 4,-29 35,-71Z"/>
    <path data-fips-int="36063" data-name="Niagara County" d="M653,991l-5,135 0,26 -30,-2 -22,5 -2,2 -55,-11 -64,34 -25,-28 -50,-9 11,-28 -8,-73 138,-37 78,-15Z"/>
    <path data-fips-int="36075" data-name="Oswego County" d="M1752,829l7,123 -24,-8 -30,89 10,4 -8,92 -45,-16 -5,3 -10,-7 -13,-6 -8,-5 0,-3 3,0 -3,0 -52,-31 2,28 -32,10 -10,-17 -71,2 0,-16 -52,2 -3,-93 80,-56 54,2 35,-33 4,-48 5,-6 0,-1 0,-4 63,7 0,-22Z"/>
    <path data-fips-int="36081" data-name="Queens County" d="M2615,2453l20,16 -11,16 -4,49 -1,0 -12,8 -38,-15 0,-6 -15,-12 -29,-29 20,-31 27,17 3,-20Z"/>
    <path data-fips-int="36103" data-name="Suffolk County" d="M3038,2449l0,-1 43,-16 -33,-11 -10,18 -52,27 -148,18 -70,36 -15,-2 -18,-112 -15,-34 27,7 26,-16 83,19 22,-47 82,6 63,-4 80,-20 78,-59 20,-26 50,-14 -27,30 -5,-18 -38,39 -12,49 -40,7 -38,40 48,7 25,-13 33,-47 47,-1 7,-25 23,18 2,-23 31,30 63,-35 7,-16 35,0 -10,15 -141,70 -80,46 -33,-13 -39,40Z"/>
    <path data-fips-int="36117" data-name="Wayne County" d="M1366,1201l-103,4 -70,0 0,-15 -98,1 2,-136 108,-4 46,9 10,13 9,5 8,11 -7,-27 20,-15 73,-22 0,-2 0,2 7,144Z"/>
    <path data-fips-int="36119" data-name="Westchester County" d="M2650,2342l-56,54 -27,-13 -2,0 2,0 -2,0 -21,-4 16,-90 -5,-60 -40,-38 15,-19 -21,-21 181,-29 3,43 29,42 -103,65 31,48 -1,21Z"/>
    <path data-fips-int="36059" data-name="Nassau County" d="M2735,2406l18,112 -23,7 -2,0 0,1 -6,13 -22,5 -50,11 0,-2 0,-11 -28,16 -13,-14 10,-10 1,0 4,-49 11,-16 -20,-16 -5,-29 17,-22 27,23 5,-37 48,-15Z"/>
  </g>
  <g class="cities">
    <circle r="3" cx="251.6" cy="246.7"/>
    <text x="251.6" y="246.7">New York</text>
    <circle r="3" cx="253.1" cy="252.9"/>
    <text x="253.1" y="252.9">Brooklyn</text>
    <circle r="3" cx="259.4" cy="247.2"/>
    <text x="259.4" y="247.2">Queens</text>
  </g>
</svg>