<?xml version="1.0" encoding="utf-8"?>
<!DOCTYPE svg PUBLIC "-//W3C//DTD SVG 1.1//EN" "http://www.w3.org/Graphics/SVG/1.1/DTD/svg11.dtd">
<svg version="1.1" xmlns="http://www.w3.org/2000/svg" width="350" height="269" viewBox="0 0 350 269">
  <path class="state" transform="scale(0.1)" d="M1657,1116M2479,2536l7,27 -20,20 -64,32 22,-71 55,-8M1546,647v28l33,-34 -33,6M1579,833h2h-2M2650,2342l-56,54 -2,43 -48,7 -44,54 4,-29 35,-71 5,-21 16,-90 -5,-60 -40,-42 15,-15 -21,-21h-2l13,74 22,25 3,82 -139,-79 -45,-23 -147,-89 -33,-42 -56,-6 -9,-21 -31,-3 -14,-39 -25,-33 12,-5 -3,-76 -39,-55 -51,-8 -5,-39 -37,-36h-309l-191,-1 -168,-1 -328,-5 -235,-8 -186,-4 -126,-6 -225,-8 -68,-5 7,-152 5,-138 351,-161 13,-41 -12,-32 -31,-16 8,-40 -32,-14 15,-33 -3,-62 -55,-116 213,-94 770,18 147,-259 16,-10 33,-49 40,-6 24,-39 63,-37 13,2 45,-34 35,-63 143,-145 78,-60 155,-80 40,13 16,-4 215,2 47,-3 272,-16 2,55 -15,41 20,20 -12,32 -8,71 22,43 18,66 -15,30 13,56 -31,47 -17,85 13,10 15,121 12,21 -30,77v25l20,8 3,-28 29,-3 25,56 -2,328 -3,88 10,23 -32,133 -58,244 5,17h5l-10,295 -5,90 -2,40 32,45 -103,65 31,53v17M2735,2406l-15,-34 25,7 40,-11 51,8 30,-7 12,-34 83,6 65,-4 78,-20 95,-85 52,-14 -27,30 -5,-18 -68,90 -22,5 -33,43 57,3 44,-59 49,-1 11,-27 19,18 8,-24 30,33 55,-47 23,-9 12,17 -50,25 -148,81 -37,12 -21,-12 -37,40 -28,11 -45,-1 -52,38 -108,15 -8,12 -40,-5 -62,32 -13,-2 -33,21 -25,-9 -58,29 -17,-1 -15,-14 12,-10 -14,8 -35,-15 -8,35 -55,10 -15,-35 33,-57 24,-31 66,4 -10,-18 17,-30 30,20v-28l38,-21 23,3 22,27"/>
  <g class="counties" transform="scale(0.1)">
    <path data-fips-int="36001" data-name="Albany County" d="M2617,1327l-12,45 -18,38v57l-12,40 -193,36 10,-67 -3,-28 25,-46 -5,-40 153,-31 28,-24Z"/>
    <path data-fips-int="36003" data-name="Allegany County" d="M814,1474l81,4v24l49,2 -10,128 -7,139 -235,-8 10,-293Z"/>
    <path data-fips-int="36007" data-name="Broome County" d="M1900,1669l-2,79 25,30h-309l-5,-104 15,-26 -20,-100 110,-3 8,88 87,5v31Z"/>
    <path data-fips-int="36009" data-name="Cattaraugus County" d="M638,1460l6,10h58l-10,293 -186,-4 -126,-6 11,-303 29,6 26,50 117,-23Z"/>
    <path data-fips-int="36011" data-name="Cayuga County" d="M1463,1087l3,70h-12v56l15,-2 4,90h39l34,42 3,85 -166,-1 -27,-56 5,-60 -7,-75 12,-35 5,-32 -7,-144v-2l44,-43 3,93 52,-2Z"/>
    <path data-fips-int="36013" data-name="Chautauqua County" d="M391,1450l-11,303 -225,-8 -68,-5 7,-152 98,-52 93,-71 76,-33Z"/>
    <path data-fips-int="36015" data-name="Chemung County" d="M1399,1618l35,1v71h-11l8,59 -8,28 -168,-1 1,-157 97,-8v26l38,7Z"/>
    <path data-fips-int="36017" data-name="Chenango County" d="M1950,1358l-2,14 -10,55 -3,34 -27,32 9,56 -15,52 -2,68h-91v-31l-87,-5 -8,-88 -10,-173 191,-14Z"/>
    <path data-fips-int="36019" data-name="Clinton County" d="M2727,333l-50,5 -12,30 -81,27 -84,9 -26,-157 -8,1 -20,-161 272,-16 2,55 -15,41 20,20 -12,32 -8,71Z"/>
    <path data-fips-int="36021" data-name="Columbia County" d="M2702,1737l-12,41 -75,-13 -85,-40 -10,1 9,-28 23,-57 25,-26 -2,-108 180,-31 -58,244Z"/>
    <path data-fips-int="36023" data-name="Cortland County" d="M1604,1548l-52,1 -3,-121 -3,-85 156,-9 2,38 10,173Z"/>
    <path data-fips-int="36025" data-name="Delaware County" d="M2304,1574l7,3 -45,84 37,18 -137,88 -150,94 -51,-8 -5,-39 -37,-36 -25,-30 2,-79 2,-68 35,-1 28,-27 27,3 43,-35 30,-5 71,-48 55,-4 38,50Z"/>
    <path data-fips-int="36027" data-name="Dutchess County" d="M2702,1737h5l-10,295 -170,25 -20,28 -7,-49 17,-36 3,-94 -11,-82 11,-98 10,-1 85,40 75,13Z"/>
    <path data-fips-int="36029" data-name="Erie County" d="M430,1155l33,11 -13,49 -30,-18ZM648,1152l-4,122 -6,186 -75,23 -117,23 -26,-50 -29,-6 -30,-18 35,-65 55,-26 32,-32 -32,-115 24,-14 64,-34 50,11 25,-14Z"/>
    <path data-fips-int="36031" data-name="Essex County" d="M2723,748l-26,2 -248,40 3,-30 -45,-17 -23,11 -50,-64 32,-25 -12,-84 75,-12 -22,-151 93,-14 84,-9 81,-27 12,-30 50,-5 18,66 -15,30 13,56 -31,47 -17,85 13,10Z"/>
    <path data-fips-int="36033" data-name="Franklin County" d="M2446,87l20,161 8,-1 26,157 -93,14 22,151 -75,12 -103,13 3,-40 -53,-441h-27l-6,-21 16,-4 215,2Z"/>
    <path data-fips-int="36035" data-name="Fulton County" d="M2421,1066l20,153 -183,1 -90,-33 -3,-38 29,-33 -8,-64 73,32 85,-9 2,15 41,-5 -1,-15Z"/>
    <path data-fips-int="36037" data-name="Genesee County" d="M872,1213l-20,44v26l-48,-7 -160,-2 4,-122v-26l192,4h37l-20,53 20,2Z"/>
    <path data-fips-int="36039" data-name="Greene County" d="M2529,1698l-38,-27 -17,4 -13,42 -99,-9 -59,-29 -37,-18 45,-84 -7,-3 40,-1 42,-14 -4,-16 193,-36 2,108 -25,26Z"/>
    <path data-fips-int="36041" data-name="Hamilton County" d="M2449,790l-65,10 27,201 10,65 -35,4 1,15 -41,5 -2,-15 -85,9 -73,-32 -65,-29 37,-83 -35,-327 128,-19 103,-13 12,84 -32,25 50,64 23,-11 45,17Z"/>
    <path data-fips-int="36043" data-name="Herkimer County" d="M2123,613l35,327 -37,83 65,29 8,64 -29,33 3,38 8,38 -8,65 -48,-19 -10,40 -82,-45 -15,27 -30,-10 -3,-98 60,-98 -39,-17 27,-38 8,-3 -15,-160 -26,-270 43,25Z"/>
    <path data-fips-int="36049" data-name="Lewis County" d="M2021,869l-173,111 -89,-28 -7,-123 -7,-56 -25,-2 4,-53 33,3 63,-51 25,1 23,-60 -25,-15 40,-65 112,68Z"/>
    <path data-fips-int="36051" data-name="Livingston County" d="M1008,1239l12,46 -15,5 -8,100 46,5 -1,52 -70,-4 -2,26h-25l-1,35 -49,-2v-24l-81,-4 -8,-8 44,-74 2,-109v-26l20,-44 75,1 -2,24Z"/>
    <path data-fips-int="36053" data-name="Madison County" d="M1705,1129l47,-9 27,11 63,64 5,60 40,-2 3,40 78,-6 -3,54 -15,17h-55l-191,14 -2,-38 -8,-165 -9,-2h-3h-2l-1,-1 -5,1h-2l-2,-1v-2l9,-24 -17,-27Z"/>
    <path data-fips-int="36055" data-name="Monroe County" d="M1097,1055l-2,136 -47,-1v51l-40,-2 -63,-1 2,-24 -75,-1 5,-28 -20,-2 20,-53h-37l4,-130 96,17 73,56Z"/>
    <path data-fips-int="36057" data-name="Montgomery County" d="M2441,1219l3,15 2,33 -72,58 -80,14 -78,-32 -48,-17 8,-65 -8,-38 90,33Z"/>
    <path data-fips-int="36065" data-name="Oneida County" d="M2028,1032l-27,38 39,17 -60,98 3,98 -15,4 -78,6 -3,-40 -40,2 -5,-60 -63,-64 -27,-11 -47,9 9,-92 -9,-4 29,-87 25,6 89,28 173,-111 15,160Z"/>
    <path data-fips-int="36067" data-name="Onondaga County" d="M1631,1095l6,8 20,13 5,-3 17,27 -9,24v2l2,1h2l5,-1 1,1h2h3l9,2 8,165 -156,9 -34,-42h-39l-4,-90 -15,2v-56h12l-3,-70 89,-4 20,11v-30Z"/>
    <path data-fips-int="36069" data-name="Ontario County" d="M1263,1205l-5,140h-141l-24,52v51l-51,-1 1,-52 -46,-5 8,-100 15,-5 -12,-46 40,2v-51l47,1 98,-1v15Z"/>
    <path data-fips-int="36071" data-name="Orange County" d="M2517,2000l-17,36 7,49 15,23 -15,43 -101,102 -45,-23 -147,-89 -33,-42 2,-39 115,-7 28,-40 16,-9 27,-12 5,-5 70,19 -3,-19 35,19Z"/>
    <path data-fips-int="36073" data-name="Orleans County" d="M844,1000l-4,130 -192,-4 5,-135 151,1Z"/>
    <path data-fips-int="36077" data-name="Otsego County" d="M2168,1290l48,17 -8,46 16,71 -33,60 -55,4 -71,48 -30,5 -43,35 -27,-3 -28,27 -35,1 15,-52 -9,-56 27,-32 3,-34 10,-55 2,-14 15,-17 3,-54 15,-4 30,10 15,-27 82,45 10,-40Z"/>
    <path data-fips-int="36079" data-name="Putnam County" d="M2692,2122l-183,29h-2l15,-43 -15,-23 20,-28 170,-25Z"/>
    <path data-fips-int="36083" data-name="Rensselaer County" d="M2737,1232h43l-3,88 10,23 -32,133 -180,31 12,-40v-57l18,-38 12,-45 7,-23 -12,-45 20,-21Z"/>
    <path data-fips-int="36085" data-name="Richmond County" d="M2479,2536l7,27 -20,20 -64,32 22,-71Z"/>
    <path data-fips-int="36087" data-name="Rockland County" d="M2406,2253l101,-102 13,74 22,25 3,82Z"/>
    <path data-fips-int="36089" data-name="Saint Lawrence County" d="M2168,92l6,21h27l53,441 -3,40 -128,19 -85,11 -43,-25 -112,-68 -166,-104 35,-63 143,-145 78,-60 155,-80Z"/>
    <path data-fips-int="36091" data-name="Saratoga County" d="M2642,1032l8,51 2,90 -20,65 -20,21 12,45 -7,23 -27,-20 -28,24 -38,-48 -4,-26 -21,8 -55,-31 -3,-15 -20,-153 -10,-65 113,-18 25,53 -4,30 25,14 14,-24Z"/>
    <path data-fips-int="36093" data-name="Schenectady County" d="M2562,1331l-153,31 -37,9 -15,-18 17,-28 72,-58 -2,-33 55,31 21,-8 4,26Z"/>
    <path data-fips-int="36095" data-name="Schoharie County" d="M2374,1325l-17,28 15,18 37,-9 5,40 -25,46 3,28 -10,67 4,16 -42,14 -40,1 -75,-40 -38,-50 33,-60 -16,-71 8,-46 78,32Z"/>
    <path data-fips-int="36097" data-name="Schuyler County" d="M1399,1618l-8,26 -38,-7v-26l-97,8 -56,-3v-114h48v13l42,1 -2,-45 80,-2 3,147Z"/>
    <path data-fips-int="36099" data-name="Seneca County" d="M1383,1427l31,40 -46,2 -80,2v-69l-30,-57 5,-140 103,-4 -12,35 7,75 -5,60Z"/>
    <path data-fips-int="36101" data-name="Steuben County" d="M1042,1447l51,1 92,2 -4,44 19,8v114l56,3 -1,157 -328,-5 7,-139 10,-128 1,-35h25l2,-26Z"/>
    <path data-fips-int="36105" data-name="Sullivan County" d="M2342,2004l-16,9 -28,40 -115,7 -2,39 -56,-6 -9,-21 -31,-3 -14,-39 -25,-33 12,-5 -3,-76 -39,-55 150,-94 138,77 -50,74 77,55Z"/>
    <path data-fips-int="36107" data-name="Tioga County" d="M1604,1548l20,100 -15,26 5,104 -191,-1 8,-28 -8,-59h11v-71l50,10 2,-30 68,12 3,-38 -25,-10 20,-14Z"/>
    <path data-fips-int="36109" data-name="Tompkins County" d="M1549,1428l3,121 -20,14 25,10 -3,38 -68,-12 -2,30 -50,-10 -35,-1 -28,-2 -3,-147 46,-2 -31,-40Z"/>
    <path data-fips-int="36111" data-name="Ulster County" d="M2529,1698l-9,28 -11,98 11,82 -3,94 -41,6 -35,-19 3,19 -70,-19 -5,5 -27,12 -11,-31 -77,-55 50,-74 -138,-77 137,-88 59,29 99,9 13,-42 17,-4Z"/>
    <path data-fips-int="36113" data-name="Warren County" d="M2642,1032l-58,24 -14,24 -25,-14 4,-30 -25,-53 -113,18 -27,-201 65,-10 248,-40 -19,87 -36,47 -18,40Z"/>
    <path data-fips-int="36115" data-name="Washington County" d="M2780,1232h-43l-105,6 20,-65 -2,-90 -8,-51 -18,-108 18,-40 36,-47 19,-87 26,-2 12,21 -30,77v25l20,8 3,-28 29,-3 25,56Z"/>
    <path data-fips-int="36121" data-name="Wyoming County" d="M852,1283l-2,109 -44,74 8,8 -112,-4h-58l-6,-10 6,-186 160,2Z"/>
    <path data-fips-int="36123" data-name="Yates County" d="M1288,1471l2,45 -42,-1v-13h-48l-19,-8 4,-44 -92,-2v-51l24,-52h141l30,57Z"/>
    <path data-fips-int="36005" data-name="Bronx County" d="M2569,2382l25,14 -2,43 -48,7 -5,-46 5,-21Z"/>
    <path data-fips-int="36045" data-name="Jefferson County" d="M1546,647l-9,-28 -38,-29 33,-49 40,-6 24,-39 63,-37 13,2 45,-34 166,104 -40,65 25,15 -23,60 -25,-1 -63,51 -33,-3 -4,53 25,2 7,56 -103,-10 2,22 -65,-7 -5,-1h-2l-15,-80 -25,-9 10,-23 28,9 32,-20 -5,-25 32,-30 -45,21 -15,-10 36,-33 -8,-19 -47,5Z"/>
    <path data-fips-int="36047" data-name="Kings County" d="M2570,2527l-8,35 -55,10 -15,-35 33,-57Z"/>
    <path data-fips-int="36061" data-name="New York County" d="M2544,2446l-44,54 4,-29 35,-71Z"/>
    <path data-fips-int="36063" data-name="Niagara County" d="M653,991l-5,135v26l-34,-9 -25,14 -50,-11 -64,34 -25,-28 -50,-9 13,-31 -8,-70 179,-47Z"/>
    <path data-fips-int="36075" data-name="Oswego County" d="M1752,829l7,123 -25,-6 -29,87 9,4 -9,92 -43,-16 -5,3 -20,-13 -6,-8 -59,-31v30l-20,-11 -89,4v-16l-52,2 -3,-93 78,-56 55,2 36,-33 9,-59 65,7 -2,-22Z"/>
    <path data-fips-int="36081" data-name="Queens County" d="M2615,2453l20,16 -16,65 -14,8 -35,-15 -45,-47 24,-31Z"/>
    <path data-fips-int="36103" data-name="Suffolk County" d="M2755,2518l-20,-112 -15,-34 25,7 40,-11 51,8 30,-7 12,-34 83,6 65,-4 78,-20 95,-85 52,-14 -27,30 -5,-18 -68,90 -22,5 -33,43 57,3 44,-59 49,-1 11,-27 19,18 8,-24 30,33 55,-47 23,-9 12,17 -50,25 -148,81 -37,12 -21,-12 -37,40 -28,11 -45,-1 -52,38 -108,15 -8,12 -40,-5 -62,32Z"/>
    <path data-fips-int="36117" data-name="Wayne County" d="M1366,1201l-103,4h-70v-15l-98,1 2,-136 124,-2 52,7 91,-35v-2v2l7,144Z"/>
    <path data-fips-int="36119" data-name="Westchester County" d="M2650,2342l-56,54 -25,-14 -25,-3 16,-90 -5,-60 -40,-42 15,-15 -21,-21 183,-29 -2,40 32,45 -103,65 31,53Z"/>
    <path data-fips-int="36059" data-name="Nassau County" d="M2735,2406l20,112 -33,21 -25,-9 -58,29 -17,-1 -15,-14 12,-10 16,-65 -20,-16 -10,-18 17,-30 30,20v-28l38,-21 23,3Z"/>
  </g>
  <path class="mesh" transform="scale(0.1)" d="M1434,1619v71h-11l8,59 -8,28M2727,333l-50,5 -12,30 -81,27 -84,9 -26,-157 -8,1 -20,-161M2702,1737l-12,41 -75,-13 -85,-40 -10,1 9,-28 23,-57 25,-26 -2,-108 -193,36 10,-67 -3,-28 25,-46 -5,-40 153,-31 28,-24 27,20 -12,45 -18,38v57l-12,40 180,-31M1463,1087l3,70h-12v56l15,-2 4,90h39l34,42 156,-9 2,38M1902,1601l35,-1 28,-27 27,3 43,-35 30,-5 71,-48 55,-4 38,50 75,40 7,3 -45,84 37,18 -137,88 -150,94M2697,2032l-170,25 -20,28 -7,-49 17,-36 3,-94 -11,-82 11,-98M430,1155l33,11 -13,49 -30,-18 10,-42M2723,748l-26,2 -248,40 3,-30 -45,-17 -23,11 -50,-64 32,-25 -12,-84 75,-12 -22,-151 93,-14M2354,581l-103,13 3,-40 -53,-441h-27l-6,-21M2449,790l-65,10 27,201 10,65 20,153 -183,1 -90,-33 -3,-38 29,-33 -8,-64 73,32 85,-9 2,15 41,-5 -1,-15 35,-4M648,1152v-26l192,4h37l-20,53 20,2 -5,28 -20,44v26l-48,-7 -160,-2M2529,1698l-38,-27 -17,4 -13,42 -99,-9 -59,-29M2304,1574l40,-1 42,-14 -4,-16M2186,1052l-65,-29 37,-83 -35,-327 128,-19M2168,1187l8,38 -8,65 -48,-19 -10,40 -82,-45 -15,27 -30,-10 -3,-98 60,-98 -39,-17 27,-38 8,-3 -15,-160 -26,-270 43,25 85,-11M2021,869l-173,111 -89,-28 -7,-123 -7,-56 -25,-2 4,-53 33,3 63,-51 25,1 23,-60 -25,-15 40,-65 112,68M814,1474l81,4v24l49,2 -10,128 -7,139M872,1213l75,1 -2,24 63,1 12,46 -15,5 -8,100 46,5 -1,52 -70,-4 -2,26h-25l-1,35M692,1763l10,-293 112,4 -8,-8 44,-74 2,-109M1702,1334l-8,-165 -9,-2h-3h-2l-1,-1 -5,1h-2l-2,-1v-2l9,-24 -17,-27 43,16 47,-9 27,11 63,64 5,60 40,-2 3,40 78,-6 -3,54 -15,17M1604,1548l110,-3 -10,-173 191,-14h55l-2,14 -10,55 -3,34 -27,32 9,56 -15,52 -2,68 -2,79 25,30M1714,1545l8,88 87,5v31h91M94,1588l98,-52 93,-71 76,-33 35,-65 55,-26 32,-32 -32,-115 24,-14 64,-34 50,11 25,-14 34,9 -4,122 -6,186 6,10h58M380,1753l11,-303 29,6 26,50 117,-23 75,-23M840,1130l4,-130 96,17 73,56 84,-18 -2,136 -47,-1v51l-40,-2M2441,1219l3,15 2,33 -72,58 -80,14 -78,-32 -48,-17M1983,1283l-15,4M1705,1129l9,-92 -9,-4 29,-87 25,6M1546,1343l3,85 -166,-1 -27,-56 5,-60 -7,-75 12,-35 5,-32 -7,-144v-2l44,-43 3,93 52,-2v16l89,-4 20,11v-30l59,31 6,8 20,13 5,-3M1095,1191l98,-1v15h70l-5,140h-141l-24,52v51l-51,-1M2507,2085l15,23 -15,43 -101,102M2181,2099l2,-39 115,-7 28,-40 16,-9 27,-12 5,-5 70,19 -3,-19 35,19 41,-6M648,1126l5,-135 151,1 40,8M2216,1307l-8,46 16,71 -33,60M2692,2122l-183,29M361,1432l30,18M2617,1327l7,-23 -12,-45 20,-21 105,-6h43M1883,531l-166,-104M2411,1001l113,-18 25,53 -4,30 25,14 14,-24 58,-24 8,51 2,90 -20,65M2562,1331l-38,-48 -4,-26 -21,8 -55,-31M2409,1362l-37,9 -15,-18 17,-28M1383,1427l31,40 -46,2M1288,1471v-69l-30,-57M1263,1205l103,-4M1093,1448l92,2 -4,44 19,8M2166,1767l138,77 -50,74 77,55 11,31M1256,1619l-56,-3v-114h48v13l42,1 -2,-45 80,-2 3,147 28,2 35,1 50,10 2,-30 68,12 3,-38 -25,-10 20,-14M2697,750l-19,87 -36,47 -18,40 18,108M1499,590l38,29 9,28 11,-28 47,-5 8,19 -36,33 15,10 45,-21 -32,30 5,25 -32,20 -28,-9 -10,23 25,9 15,80M1581,833l5,1 -9,59 -36,33 -55,-2 -78,56M1364,1023v2l-91,35 -52,-7 -124,2M653,991l-69,4 -179,47 8,70 -13,31 50,9 25,28M2544,2379l25,3 25,14M2544,2446l-5,-46M1752,829l-103,-10 2,22 -65,-7M2525,2480l45,47M2615,2453l20,16 -16,65M2755,2518l-20,-112M1255,1776l1,-157 97,-8v26l38,7 8,-26M1614,1778l-5,-104 15,-26 -20,-100 -52,1 -3,-121"/>
  <g class="cities">
    <circle r="3" cx="251.6" cy="246.7"/>
    <text x="251.6" y="246.7">New York</text>
    <circle r="3" cx="47.5" cy="125.8"/>
    <text x="47.5" y="125.8">Buffalo</text>
    <circle r="3" cx="99.7" cy="112.1"/>
    <text x="99.7" y="112.1">Rochester</text>
  </g>
</svg>