<?xml version="1.0" encoding="utf-8"?>
<!DOCTYPE svg PUBLIC "-//W3C//DTD SVG 1.1//EN" "http://www.w3.org/Graphics/SVG/1.1/DTD/svg11.dtd">
<svg version="1.1" xmlns="http://www.w3.org/2000/svg" width="350" height="269" viewBox="0 0 350 269">
  <path class="state" transform="scale(0.1)" d="M2479,2536l7,26 -29,28 -55,26 22,-72 55,-8M1546,647l3,27 22,-37 -25,10M1577,833h4h-4M2650,2342l-56,54 -4,39 -46,11 -44,54 4,-29 35,-71 5,-21 16,-90 -5,-60 -40,-38 15,-19 -21,-21h-2l13,74 22,25 -5,47 8,35 -139,-79 -67,-35 -101,-64 -57,-55 -56,-6 -19,-26 -20,3 -28,-78 -3,-76 -39,-55 -51,-8 -5,-39 -37,-36h-309l-190,-1 -169,-1 -328,-5 -233,-8 -188,-4 -126,-6 -223,-8 -70,-5 5,-152 8,-138 350,-162 13,-56 -22,-17 -25,-33 12,-22 -30,-14 13,-33 -1,-62 -59,-116 215,-94 770,18 147,-259 16,-10 35,-49 37,-6 23,-39 67,-37 11,2 45,-34 35,-63 143,-145 78,-60 155,-80 40,13 16,-4 215,1 47,-2 272,-16 4,53 -17,43 18,20 -10,33 -1,97 15,16 20,66 -15,30 10,65 -30,38 -17,85 12,10v51l15,70 13,21 -30,77v27l18,6 5,-28 27,-3 5,28 22,28 -2,328 -3,88 8,23 -32,133 -56,244 5,17h3l-8,295 -7,90 3,43 29,42 -103,65 31,48 -1,21 1,1M2728,2526l-6,13 -22,5 -50,11v-2v-11l-28,16 -13,-14 10,-10 -12,8 -38,-15 -7,38 -55,8 -13,-20 6,-40 25,-33 20,-31 27,17 3,-20 40,7 -5,-29 17,-22 27,23 5,-37 48,-15 28,33 -15,-34 27,7 26,-16 83,19 22,-47 82,6 63,-4 80,-20 78,-59 20,-26 50,-14 -27,30 -5,-18 -38,39 -12,49 -40,7 -38,40 48,7 25,-13 33,-47 47,-1 7,-25 23,18 2,-23 31,30 63,-35 7,-16h35l-10,15 -141,70 -80,46 -33,-13 -39,40 -71,31 -127,60 69,-39 58,-22 43,-16 -33,-11 -10,18 -52,27 -148,18 -70,36 -15,-2 -23,7h-2h2l-2,1"/>
  <g class="counties" transform="scale(0.1)">
    <path data-fips-int="36001" data-name="Albany County" d="M2617,1326v1l-10,45 -20,38v57l-10,40 -195,36 10,-49 -6,-32 28,-60 -5,-40 153,-32 28,-22Z"/>
    <path data-fips-int="36003" data-name="Allegany County" d="M814,1474l81,4v24l49,2 -10,128 -7,139 -233,-8 8,-293Z"/>
    <path data-fips-int="36007" data-name="Broome County" d="M1900,1669l-2,79 25,30h-309l-5,-104 13,-4 2,-22 -22,-100 110,-3 8,88 89,5v31Z"/>
    <path data-fips-int="36009" data-name="Cattaraugus County" d="M495,1498l11,-1 27,-12 13,5 2,-3 25,-11 48,-12 8,-3h5h4l5,9h59l-8,293 -188,-4 -126,-6 11,-303 29,6 11,31 27,21Z"/>
    <path data-fips-int="36011" data-name="Cayuga County" d="M1463,1087l3,70h-12l2,56 12,-2 5,91 39,-1 34,43 3,84 -166,-1 -25,-46 -5,-49 10,-20 -9,-76 12,-35 5,-32 -7,-144v-2l7,13 37,-56 3,93 52,-2Z"/>
    <path data-fips-int="36013" data-name="Chautauqua County" d="M391,1450l-11,303 -223,-8 -70,-5 5,-152 100,-52 93,-71 75,-33 5,1Z"/>
    <path data-fips-int="36015" data-name="Chemung County" d="M1401,1618l33,1v71l-11,-1 8,60 -7,28 -169,-1 1,-157 97,-8v26l38,7Z"/>
    <path data-fips-int="36017" data-name="Chenango County" d="M1950,1359l-13,68v1v19l-12,19 -17,31 9,52 -15,52 -2,68h-91v-31l-89,-5 -8,-88 -8,-173 191,-13Z"/>
    <path data-fips-int="36019" data-name="Clinton County" d="M2727,333l-52,6 -10,28 -81,28 -84,9 -26,-157 -8,1 -20,-161 272,-16 4,53 -17,43 18,20 -10,33 -1,97Z"/>
    <path data-fips-int="36021" data-name="Columbia County" d="M2702,1737l-12,41 -75,-13 -85,-40 -10,1 9,-28 23,-57 27,-26 -2,-108 176,-31 -56,244Z"/>
    <path data-fips-int="36023" data-name="Cortland County" d="M1602,1548l-50,1 -3,-121 -3,-84 156,-10 2,38 8,173Z"/>
    <path data-fips-int="36025" data-name="Delaware County" d="M2304,1574l7,3 -45,84 37,18 -137,88 -150,94 -51,-8 -5,-39 -37,-36 -25,-30 2,-79 2,-68h31l32,-28 27,3 43,-35 30,-5 71,-48 55,-4 38,51Z"/>
    <path data-fips-int="36027" data-name="Dutchess County" d="M2702,1737h3l-8,295 -170,25 -20,28 -7,-49 17,-36 3,-94 -11,-82 11,-98 10,-1 85,40 75,13Z"/>
    <path data-fips-int="36029" data-name="Erie County" d="M441,1215l-23,-33 32,-25 20,24ZM618,1150l30,2 -5,122 -5,186v1h-4h-5l-8,3 -48,12 -25,11 -2,3 -13,-5 -27,12 -11,1 -37,10 -27,-21 -11,-31 -29,-6 -26,-17 -5,-1 38,-65 55,-27 30,-31 -30,-115 22,-14 64,-34 55,11 2,-2Z"/>
    <path data-fips-int="36031" data-name="Essex County" d="M2722,748l-24,2 -249,40h-2l5,-30 -38,-16 -30,10 -50,-64 32,-26 -12,-83 75,-12 -22,-151 93,-14 84,-9 81,-28 10,-28 52,-6 20,66 -15,30 10,65 -30,38 -17,85 12,10v51Z"/>
    <path data-fips-int="36033" data-name="Franklin County" d="M2446,87l20,161 8,-1 26,157 -93,14 22,151 -75,12 -103,13 3,-40 -53,-439h-27l-6,-23 16,-4 215,1Z"/>
    <path data-fips-int="36035" data-name="Fulton County" d="M2421,1066l20,153 -183,1 -90,-33 -3,-38 23,-20 3,-13 -5,-64 73,32 85,-9 2,15 41,-5 -1,-15Z"/>
    <path data-fips-int="36037" data-name="Genesee County" d="M874,1213l-20,44v24l-50,-5 -161,-2 5,-122v-26l192,4h35l-20,53 20,2Z"/>
    <path data-fips-int="36039" data-name="Greene County" d="M2529,1698l-38,-27 -17,4 -13,42 -99,-9 -59,-29 -37,-18 45,-84 -7,-3 82,-15 -4,-16 195,-36 2,108 -27,26Z"/>
    <path data-fips-int="36041" data-name="Hamilton County" d="M2447,790l-63,10 27,201 10,65 -35,4 1,15 -41,5 -2,-15 -85,9 -73,-32 -65,-29 37,-83 -35,-327 128,-19 103,-13 12,83 -32,26 50,64 30,-10 38,16Z"/>
    <path data-fips-int="36043" data-name="Herkimer County" d="M2123,613l35,327 -37,83 65,29 5,64 -3,13 -23,20 3,38 8,38 -8,65 -48,-19 -10,41 -82,-45 -15,27 -30,-13 -3,-96 56,-91 -26,-21 -2,-28 28,-16 -15,-159v-1l-26,-270 43,25Z"/>
    <path data-fips-int="36049" data-name="Lewis County" d="M2021,869v1l-173,110 -89,-28 -7,-123 -5,-56 -27,-2 4,-53 33,3 63,-52 25,2 23,-60 -25,-15 40,-65 112,68Z"/>
    <path data-fips-int="36051" data-name="Livingston County" d="M1018,1271l2,9v5l-2,5h-13l-8,100 46,5 -1,52 -70,-4 -2,26h-25l-1,35 -49,-2v-24l-81,-4 -2,-8 7,-39 31,-35 4,-111v-24l20,-44 73,1 -2,24 63,1Z"/>
    <path data-fips-int="36053" data-name="Madison County" d="M1970,1318l-20,41h-55l-191,13 -2,-38 -8,-165 -7,-2h-3h-4h-1h-4h-3v-1l-3,-2v-26l-7,-25 45,16 45,-9 27,11 30,42 8,5 25,17 5,60 40,-2 3,39 78,-4Z"/>
    <path data-fips-int="36055" data-name="Monroe County" d="M1030,1076l67,-21 -2,136 -47,-1v51l-40,-2 -63,-1 2,-24 -73,-1 1,-28 -20,-2 20,-53h-35l4,-130 115,25 21,26Z"/>
    <path data-fips-int="36057" data-name="Montgomery County" d="M2441,1219l3,15 3,33 -73,56 -80,16 -78,-31 -48,-18 8,-65 -8,-38 90,33Z"/>
    <path data-fips-int="36065" data-name="Oneida County" d="M2010,1073l26,21 -56,91 3,96 -15,7 -78,4 -3,-39 -40,2 -5,-60 -25,-17 -8,-5 -30,-42 -27,-11 -45,9 8,-92 -10,-4 30,-89 24,8 89,28 173,-110 15,159 -28,16Z"/>
    <path data-fips-int="36067" data-name="Onondaga County" d="M1626,1095v3l8,5 13,6 10,7 5,-3 7,25v26l3,2v1h3h4h1h4h3l7,2 8,165 -156,10 -34,-43 -39,1 -5,-91 -12,2 -2,-56h12l-3,-70 71,-2 10,17 32,-10 -2,-28Z"/>
    <path data-fips-int="36069" data-name="Ontario County" d="M1018,1270l-10,-31 40,2v-51l47,1 98,-1v15h70l-5,139h-141l-24,53v51l-51,-1 1,-52 -46,-5 8,-100h13l2,-5v-5l-2,-9Z"/>
    <path data-fips-int="36071" data-name="Orange County" d="M2517,2000l-17,36 7,49 15,23 -15,43 -101,102 -67,-35 -101,-64 -57,-55 2,-39 115,-7 44,-49 2,-2 25,-10 75,14 -3,-19 35,19Z"/>
    <path data-fips-int="36073" data-name="Orleans County" d="M844,1000l-4,130 -192,-4 5,-135 151,1Z"/>
    <path data-fips-int="36077" data-name="Otsego County" d="M1970,1316l-2,-28 15,-7 30,13 15,-27 82,45 10,-41 48,19 48,18 -8,29 16,87 -33,60 -55,4 -71,48 -30,5 -43,35 -27,-3 -32,28h-31l15,-52 -9,-52 17,-31 12,-19v-19v-1l13,-68 20,-41Z"/>
    <path data-fips-int="36079" data-name="Putnam County" d="M2690,2122l-181,29h-2l15,-43 -15,-23 20,-28 170,-25Z"/>
    <path data-fips-int="36083" data-name="Rensselaer County" d="M2737,1232h43l-3,88 8,23 -32,133 -176,31 10,-40v-57l20,-38 10,-45v-1l7,-22 -12,-45 18,-21Z"/>
    <path data-fips-int="36085" data-name="Richmond County" d="M2479,2536l7,26 -29,28 -55,26 22,-72Z"/>
    <path data-fips-int="36087" data-name="Rockland County" d="M2406,2253l101,-102 13,74 22,25 -5,47 8,35Z"/>
    <path data-fips-int="36089" data-name="Saint Lawrence County" d="M2168,92l6,23h27l53,439 -3,40 -128,19 -85,11 -43,-25 -112,-68 -166,-104 35,-63 143,-145 78,-60 155,-80Z"/>
    <path data-fips-int="36091" data-name="Saratoga County" d="M2555,1065l14,15 15,-24 58,-24 8,56 4,85 -24,65 -18,21 12,45 -7,22 -27,-18 -28,22 -30,-38 -12,-35 -21,8 -55,-31 -3,-15 -20,-153 -10,-65 113,-18Z"/>
    <path data-fips-int="36093" data-name="Schenectady County" d="M2562,1330l-153,32 -37,9 -15,-21 19,-27h-2l73,-56 -3,-33 55,31 21,-8 12,35Z"/>
    <path data-fips-int="36095" data-name="Schoharie County" d="M2374,1323h2l-19,27 15,21 37,-9 5,40 -28,60 6,32 -10,49 4,16 -82,15 -75,-39 -38,-51 33,-60 -16,-87 8,-29 78,31Z"/>
    <path data-fips-int="36097" data-name="Schuyler County" d="M1401,1618l-10,26 -38,-7v-26l-97,8 -56,-3v-114h48v13l42,1 -2,-45 81,-2 2,147Z"/>
    <path data-fips-int="36099" data-name="Seneca County" d="M1383,1427l31,40 -45,2 -81,2v-69l-30,-58 5,-139 103,-4 -12,35 9,76 -10,20 5,49Z"/>
    <path data-fips-int="36101" data-name="Steuben County" d="M1042,1447l51,1 92,2 -4,44 19,8v114l56,3 -1,157 -328,-5 7,-139 10,-128 1,-35h25l2,-26Z"/>
    <path data-fips-int="36105" data-name="Sullivan County" d="M2344,2002l-2,2 -44,49 -115,7 -2,39 -56,-6 -19,-26 -20,3 -28,-78 -3,-76 -39,-55 150,-94 138,77 -50,74 77,55Z"/>
    <path data-fips-int="36107" data-name="Tioga County" d="M1602,1548l22,100 -2,22 -13,4 5,104 -190,-1 7,-28 -8,-60 11,1v-71l49,10 3,-30 68,12 3,-38 -23,-10 18,-14Z"/>
    <path data-fips-int="36109" data-name="Tompkins County" d="M1549,1428l3,121 -18,14 23,10 -3,38 -68,-12 -3,30 -49,-10 -33,-1 -30,-2 -2,-147 45,-2 -31,-40Z"/>
    <path data-fips-int="36111" data-name="Ulster County" d="M2529,1698l-9,28 -11,98 11,82 -3,94 -41,6 -35,-19 3,19 -75,-14 -25,10 -2,2 2,-2 -13,-29 -77,-55 50,-74 -138,-77 137,-88 59,29 99,9 13,-42 17,-4Z"/>
    <path data-fips-int="36113" data-name="Warren County" d="M2678,824v13l-48,50 -3,25 15,120 -58,24 -15,24 -14,-15 -31,-82 -113,18 -27,-201 63,-10h2l249,-40Z"/>
    <path data-fips-int="36115" data-name="Washington County" d="M2780,1232h-43l-107,6 24,-65 -4,-85 -8,-56 -15,-120 3,-25 48,-50v-13l20,-74 24,-2 13,21 -30,77v27l18,6 5,-28 27,-3 5,28 22,28Z"/>
    <path data-fips-int="36121" data-name="Wyoming County" d="M854,1281l-4,111 -31,35 -7,39 2,8 -112,-4h-59l-5,-9v-1l5,-186 161,2Z"/>
    <path data-fips-int="36123" data-name="Yates County" d="M1288,1471l2,45 -42,-1v-13h-48l-19,-8 4,-44 -92,-2v-51l24,-53h141l30,58Z"/>
    <path data-fips-int="36005" data-name="Bronx County" d="M2565,2383h2l27,13 -4,39 -46,11 -5,-46 5,-21Z"/>
    <path data-fips-int="36045" data-name="Jefferson County" d="M1546,647l-15,-37v-1v1l-32,-20 35,-49 37,-6 23,-39 67,-37 11,2 45,-34 166,104 -40,65 25,15 -23,60 -25,-2 -63,52 -33,-3 -4,53 27,2 5,56 -103,-10v22l-63,-7 -5,-1h-4l-15,-80 -23,-19 28,-18 10,14 32,-19 -7,-23 32,-19 -8,-16 -19,20 -31,-7 36,-32 -10,-20 -31,1 -19,9Z"/>
    <path data-fips-int="36047" data-name="Kings County" d="M2554,2509l15,12v6l-7,38 -55,8 -13,-20 6,-40 25,-33Z"/>
    <path data-fips-int="36061" data-name="New York County" d="M2544,2446l-44,54 4,-29 35,-71Z"/>
    <path data-fips-int="36063" data-name="Niagara County" d="M653,991l-5,135v26l-30,-2 -22,5 -2,2 -55,-11 -64,34 -25,-28 -50,-9 11,-28 -8,-73 138,-37 78,-15Z"/>
    <path data-fips-int="36075" data-name="Oswego County" d="M1752,829l7,123 -24,-8 -30,89 10,4 -8,92 -45,-16 -5,3 -10,-7 -13,-6 -8,-5v-3l-52,-31 2,28 -32,10 -10,-17 -71,2v-16l-52,2 -3,-93 80,-56 54,2 35,-33 4,-48 5,-6v-1v-4l63,7v-22Z"/>
    <path data-fips-int="36081" data-name="Queens County" d="M2615,2453l20,16 -11,16 -4,49h-1l-12,8 -38,-15v-6l-15,-12 -29,-29 20,-31 27,17 3,-20Z"/>
    <path data-fips-int="36103" data-name="Suffolk County" d="M3038,2449l-127,60 69,-39 58,-22 43,-16 -33,-11 -10,18 -52,27 -148,18 -70,36 -15,-2 -18,-112 -15,-34 27,7 26,-16 83,19 22,-47 82,6 63,-4 80,-20 78,-59 20,-26 50,-14 -27,30 -5,-18 -38,39 -12,49 -40,7 -38,40 48,7 25,-13 33,-47 47,-1 7,-25 23,18 2,-23 31,30 63,-35 7,-16h35l-10,15 -141,70 -80,46 -33,-13 -39,40Z"/>
    <path data-fips-int="36117" data-name="Wayne County" d="M1366,1201l-103,4h-70v-15l-98,1 2,-136 108,-4 46,9 10,13 9,5 8,11 -7,-27 20,-15 73,-22v-2v2l7,144Z"/>
    <path data-fips-int="36119" data-name="Westchester County" d="M2650,2342l-56,54 -27,-13h-2l-21,-4 16,-90 -5,-60 -40,-38 15,-19 -21,-21 181,-29 3,43 29,42 -103,65 31,48 -1,21Z"/>
    <path data-fips-int="36059" data-name="Nassau County" d="M2728,2526l-6,13 -22,5 -50,11v-2v-11l-28,16 -13,-14 10,-10h1l4,-49 11,-16 -20,-16 -5,-29 17,-22 27,23 5,-37 48,-15 28,33 18,112 -23,7h-2h2Z"/>
  </g>
  <path class="mesh" transform="scale(0.1)" d="M2727,333l-52,6 -10,28 -81,28 -84,9 -26,-157 -8,1 -20,-161M2702,1737l-12,41 -75,-13 -85,-40 -10,1 9,-28 23,-57 27,-26 -2,-108 176,-31M1463,1087l3,70h-12l2,56 12,-2 5,91 39,-1 34,43 156,-10 2,38M1970,1318l-20,41 -13,68v1v19l-12,19 -17,31 9,52 -15,52h31l32,-28 27,3 43,-35 30,-5 71,-48 55,-4 38,51 75,39 7,3 -45,84 37,18 -137,88 -150,94M2697,2032l-170,25 -20,28 -7,-49 17,-36 3,-94 -11,-82 11,-98M441,1215l-23,-33 32,-25 20,24 -29,34M2722,748l-24,2 -249,40h-2l5,-30 -38,-16 -30,10 -50,-64 32,-26 -12,-83 75,-12 -22,-151 93,-14M2354,581l-103,13 3,-40 -53,-439h-27l-6,-23M2447,790l-63,10 27,201 10,65 20,153 -183,1 -90,-33 -3,-38 23,-20 3,-13 -5,-64 73,32 85,-9 2,15 41,-5 -1,-15 35,-4M648,1152v-26l192,4h35l-20,53 20,2 -1,28 -20,44v24l-50,-5 -161,-2M2529,1698l-38,-27 -17,4 -13,42 -99,-9 -59,-29M2304,1574l82,-15 -4,-16M2186,1052l-65,-29 37,-83 -35,-327 128,-19M2168,1187l8,38 -8,65 -48,-19 -10,41 -82,-45 -15,27 -30,-13 -3,-96 56,-91 -26,-21 -2,-28 28,-16 -15,-159v-1l-26,-270 43,25 85,-11M2021,870l-173,110 -89,-28 -7,-123 -5,-56 -27,-2 4,-53 33,3 63,-52 25,2 23,-60 -25,-15 40,-65 112,68M694,1763l8,-293 112,4 -2,-8 7,-39 31,-35 4,-111M874,1213l73,1 -2,24 63,1 10,31M1018,1271l2,9v5l-2,5h-13l-8,100 46,5 -1,52 -70,-4 -2,26h-25l-1,35 -10,128 -7,139M380,1753l11,-303 29,6 11,31 27,21 37,-10 11,-1 27,-12 13,5 2,-3 25,-11 48,-12 8,-3h5h4l5,9h59M1702,1334l-8,-165 -7,-2h-3h-4h-1h-4h-3v-1l-3,-2v-26l-7,-25 45,16 45,-9 27,11 30,42 8,5 25,17 5,60 40,-2 3,39 78,-4 2,28M840,1130l4,-130 115,25 21,26 50,25 67,-21 -2,136 -47,-1v51l-40,-2M2441,1219l3,15 3,33 -73,56 -80,16 -78,-31 -48,-18M1983,1281l-15,7M1707,1129l8,-92 -10,-4 30,-89 24,8M1546,1344l3,84 -166,-1 -25,-46 -5,-49 10,-20 -9,-76 12,-35 5,-32 -7,-144v-2l7,13 37,-56 3,93 52,-2v16l71,-2 10,17 32,-10 -2,-28 52,31v3l8,5 13,6 10,7 5,-3M1095,1191l98,-1v15h70l-5,139h-141l-24,53v51l-51,-1M2507,2085l15,23 -15,43 -101,102M2181,2099l2,-39 115,-7 44,-49 2,-2 25,-10 75,14 -3,-19 35,19 41,-6M648,1126l5,-135 151,1 40,8M2216,1308l-8,29 16,87 -33,60M2690,2122l-181,29M2617,1326v1l-10,45 -20,38v57l-10,40 -195,36 10,-49 -6,-32 28,-60 -5,-40 153,-32 28,-22 27,18 7,-22 -12,-45 18,-21 107,-6h43M1883,531l-166,-104M92,1588l100,-52 93,-71 75,-33 38,-65 55,-27 30,-31 -30,-115 22,-14 64,-34 55,11 2,-2 22,-5 30,2 -5,122 -5,186v1M2411,1001l113,-18 31,82 14,15 15,-24 58,-24 8,56 4,85 -24,65M2562,1330l-30,-38 -12,-35 -21,8 -55,-31M2409,1362l-37,9 -15,-21 19,-27h-2M1383,1427l31,40 -45,2M1288,1471v-69l-30,-58M1263,1205l103,-4M1093,1448l92,2 -4,44 19,8M2166,1767l138,77 -50,74 77,55 13,29 -2,2M1255,1776l1,-157 -56,-3v-114h48v13l42,1 -2,-45 81,-2 2,147 30,2 33,1 49,10 3,-30 68,12 3,-38 -23,-10 18,-14M1712,1545l8,88 89,5v31h91l-2,79 25,30M360,1432l5,1 26,17M2698,750l-20,74v13l-48,50 -3,25 15,120M1434,1619v71l-11,-1 8,60 -7,28M1499,590l32,20v-1v1l15,37 6,-23 19,-9 31,-1 10,20 -36,32 31,7 19,-20 8,16 -32,19 7,23 -32,19 -10,-14 -28,18 23,19 15,80M1256,1619l97,-8v26l38,7 10,-26M1581,833l5,1v4v1l-5,6 -4,48 -35,33 -54,-2 -80,56M1364,1023v2l-73,22 -20,15 7,27 -8,-11 -9,-5 -10,-13 -46,-9 -108,4M653,991l-34,-1 -78,15 -138,37 8,73 -11,28 50,9 25,28M2544,2379l21,4h2l27,13M2544,2446l-5,-46M1752,829l-103,-10v22l-63,-7M1614,1778l-5,-104 13,-4 2,-22 -22,-100 -50,1 -3,-121M2525,2480l29,29 15,12v6M2615,2453l20,16 -11,16 -4,49h-1M2753,2518l-18,-112M1902,1601l-2,68M1712,1545l-8,-173M1704,1372l191,-13h55M1602,1548l110,-3M814,1474l81,4v24l49,2"/>
  <g class="cities">
    <circle r="3" cx="251.6" cy="246.7"/>
    <text x="251.6" y="246.7">New York</text>
    <circle r="3" cx="47.5" cy="125.8"/>
    <text x="47.5" y="125.8">Buffalo</text>
    <circle r="3" cx="99.7" cy="112.1"/>
    <text x="99.7" y="112.1">Rochester</text>
  </g>
</svg>