<?xml version="1.0" encoding="utf-8"?>
<!DOCTYPE svg PUBLIC "-//W3C//DTD SVG 1.1//EN" "http://www.w3.org/Graphics/SVG/1.1/DTD/svg11.dtd">
<svg version="1.1" xmlns="http://www.w3.org/2000/svg" width="293" height="350" viewBox="0 0 293 350">
  <path class="state" transform="scale(0.1)" d="M2827,381l10,403 8,309 4,197 6,219 -36,23 -28,-5 -31,32 50,92 -21,73 17,11 4,44 -11,48 -25,25 -4,33 -24,33 -1,49 -21,20 8,28 -3,55 -16,23 7,33 -34,-3 9,43 -20,15 -3,45 -25,32 27,36 -23,19 -4,56 -42,12 -64,63 -37,42 -25,41 -27,7 -25,40 -22,-2 -60,40 -25,3 -17,-40 -34,-15 -62,55 -9,65 -59,-8 -22,16 3,29 -23,6 -21,30 13,59 -8,19 -38,5 3,25 29,34 -11,46 10,30 -31,-18 -46,58 -32,-15 21,-31 -25,-50h-25l-18,-32 -24,3 -8,27 -31,27 -31,56 2,47 -50,45 26,65 -5,21 9,68 -73,19 -10,73 -17,43 -58,8 -80,27 -29,-3 -21,-55 -22,-14 -54,-61 -59,-8 -19,-19 -21,-78 -6,-58 -60,25 -26,-3 -32,34 -34,19 -27,40 -51,-9 -21,7 -12,18 -54,-51 -64,-14 -51,-23 -61,25 -8,32 -38,-5 -43,-15 -11,-37 -36,-21 -11,-27 -55,-25 -72,8 -25,-3 -79,-27 -13,-25v-48l-39,-65 -15,-45 -73,-36 -8,-45 -36,15 -34,-3 -46,21 -43,-26 -40,-39 -46,35 4,-168 7,-221 10,-294 15,-368 7,-318 6,-219 4,-223 5,-147 5,-226 256,-3 326,-7 250,-6h2l7,-2h4h5h24l193,-185 27,77 242,158h180l718,-454 455,-110 2,294M1235,835h12h-12"/>
  <g class="counties" transform="scale(0.1)">
    <path data-fips-int="39001" data-name="Adams County" d="M1086,2895v334l-12,18 -54,-51 -64,-14 -51,-23 -61,25 -8,32 -38,-5 6,-97 19,-228 39,4 149,-30 46,3Z"/>
    <path data-fips-int="39003" data-name="Allen County" d="M708,1368l-2,148h-146v-15h-74l2,-23h-112l2,-112 36,2v-38h148l1,-35 72,1v-15l74,2Z"/>
    <path data-fips-int="39005" data-name="Ashland County" d="M1797,1168v60h27l3,83v190h-60l2,85 -75,10 -3,-143 -25,-2 -6,-68 -19,-7v-148h-10l-3,-61h64Z"/>
    <path data-fips-int="39007" data-name="Ashtabula County" d="M2837,784l-92,2 -212,3 -4,-180 -1,-116 55,-12 61,-30 124,-43 59,-27Z"/>
    <path data-fips-int="39009" data-name="Athens County" d="M2018,2527l-6,110 25,13 -1,27 63,1 -2,45 -21,30 -210,-8 -124,-8 6,-75 -25,-2 5,-76 6,-74 74,5 4,-76 72,3 -4,78Z"/>
    <path data-fips-int="39011" data-name="Auglaize County" d="M706,1516l-2,88 -73,3 -5,44h-216l-2,84h-61l-1,20 -13,-3 4,-276 39,2h112l-2,23h74v15Z"/>
    <path data-fips-int="39013" data-name="Belmont County" d="M2631,1920l115,-2 -1,49 -21,20 8,28 -3,55 -16,23 7,33 -34,-3 9,43 -20,15 -216,-12h-51v-69l3,-185Z"/>
    <path data-fips-int="39015" data-name="Brown County" d="M699,2695l-7,191h131l-19,228 -6,97 -43,-15 -11,-37 -36,-21 -11,-27 -55,-25 -72,8 49,-406Z"/>
    <path data-fips-int="39017" data-name="Butler County" d="M378,2401v38l21,-3 -18,214 -181,-18 -6,3h-117l7,-221 220,3v-18Z"/>
    <path data-fips-int="39019" data-name="Carroll County" d="M2491,1443l109,-4 1,73h37v35v39h-38v73l-11,38 -210,-7 1,-108 -36,-1 1,-72h49l1,-63Z"/>
    <path data-fips-int="39021" data-name="Champaign County" d="M912,1868l37,5 -7,95 -9,87 -335,-30 11,-122 6,-74 148,13 -1,11Z"/>
    <path data-fips-int="39023" data-name="Clark County" d="M933,2055l-48,203 -38,-4 -118,-23 1,-22 -74,-5v-13l-72,-7 3,-24 11,-135Z"/>
    <path data-fips-int="39025" data-name="Clermont County" d="M570,3094l-25,-3 -79,-27 -13,-25v-48l-39,-65 -15,-45 15,-129 17,-24 -30,-18 41,-38 166,15 11,1Z"/>
    <path data-fips-int="39027" data-name="Clinton County" d="M830,2441l60,6 -11,140 -122,91 -20,35 -38,-18 -80,-7 -11,-1 22,-265Z"/>
    <path data-fips-int="39029" data-name="Columbiana County" d="M2849,1290l6,219 -36,23 -28,-5 -31,32 -49,2 -1,-12 -72,-2v-35h-37l-1,-73 -109,4 -2,-147 121,-1v-25h46l1,23Z"/>
    <path data-fips-int="39031" data-name="Coshocton County" d="M2096,1687l3,63h58l-3,125 -29,-2 -1,62 -29,-2 -243,-5 -61,-5 3,-60h-9l6,-183Z"/>
    <path data-fips-int="39033" data-name="Crawford County" d="M1379,1225l67,1 -4,240 -83,-3v8l-161,2v-247Z"/>
    <path data-fips-int="39035" data-name="Cuyahoga County" d="M2287,736l2,186h-129l21,62 -77,1 -122,2v-63h-60l1,-130 68,18 33,-11 44,6 88,-61 39,-44 30,-18v52Z"/>
    <path data-fips-int="39037" data-name="Darke County" d="M344,1888v233l-39,2 -211,-3 15,-368 237,3Z"/>
    <path data-fips-int="39039" data-name="Defiance County" d="M491,1073l-73,-1v-37l-72,-2 1,-36 -221,-5 5,-147 291,5 73,2Z"/>
    <path data-fips-int="39041" data-name="Delaware County" d="M1255,1697l-1,15 61,2 -2,50 119,5 -4,63 -7,128 -263,-17 -2,-85h-49l2,-168Z"/>
    <path data-fips-int="39045" data-name="Fairfield County" d="M1407,2116l200,12 7,-3 -5,78 48,3 -5,75 25,2 -6,73 -74,-5 -4,50 -79,-5 -1,38 -73,-5v12l-74,-5 14,-198 14,-24Z"/>
    <path data-fips-int="39047" data-name="Fayette County" d="M1102,2321l-10,151 -70,117 -143,-2 11,-140 -60,-6 13,-140Z"/>
    <path data-fips-int="39049" data-name="Franklin County" d="M1421,1960l-7,121 -7,35 -13,98 -14,24 -271,-15 -6,-88 17,-12 -15,-38 -3,-62h28l4,-50h24v-30Z"/>
    <path data-fips-int="39051" data-name="Fulton County" d="M713,806l-289,-4v-23l-25,-2 2,-86h-11l2,-75 326,-7Z"/>
    <path data-fips-int="39053" data-name="Gallia County" d="M1707,2885l-1,13 150,5 -1,37 -31,56 2,47 -50,45 26,65 -5,21 9,68 -73,19 -49,-2 4,-77 -78,-5 4,-49 -11,-27 -65,-5 4,-57 1,-6 78,6 13,-159Z"/>
    <path data-fips-int="39055" data-name="Geauga County" d="M2533,789l1,130 -245,3 -2,-186 60,-2v-60l122,-2 -1,-61 61,-2Z"/>
    <path data-fips-int="39057" data-name="Greene County" d="M847,2254l-4,47 -13,140 -200,-19 -89,-8 18,-220 25,-10 72,7v13l74,5 -1,22Z"/>
    <path data-fips-int="39059" data-name="Guernsey County" d="M2408,2100l-98,1 -1,25 -49,-1v25l-74,-2 -1,50 -74,-4 2,-73 -24,-1 6,-187 29,2 1,-62 29,2 184,3 -1,35 74,2Z"/>
    <path data-fips-int="39061" data-name="Hamilton County" d="M381,2650l59,7 2,15 -41,38 30,18 -17,24 -15,129 -73,-36 -8,-45 -36,15 -34,-3 -46,21 -43,-26 -40,-39 -46,35 4,-168h117l6,-3Z"/>
    <path data-fips-int="39063" data-name="Hancock County" d="M1003,1080v146h-24l-14,72h-23l-2,75 -232,-5 1,-85 2,-208Z"/>
    <path data-fips-int="39065" data-name="Hardin County" d="M940,1373h13l-2,98 49,13v153h-65l-34,-10 -197,-15v-8l2,-88 2,-148Z"/>
    <path data-fips-int="39067" data-name="Harrison County" d="M2589,1697h49l-7,223 -220,-5 -74,-2 1,-35v-76h39l2,-112Z"/>
    <path data-fips-int="39069" data-name="Henry County" d="M713,806v61l-2,208 -220,-2 4,-221 -73,-2 2,-48Z"/>
    <path data-fips-int="39071" data-name="Highland County" d="M1022,2589l-15,89 34,32 -7,30 -23,120 -149,30 -39,-4h-131l7,-191 38,18 20,-35 122,-91Z"/>
    <path data-fips-int="39073" data-name="Hocking County" d="M1671,2356l-3,50 77,5 -1,23 68,5 -4,76 -74,-5 -6,74 -147,-10 -2,23 -76,-5v12l-75,-5 7,-85 5,-73v-12l73,5 1,-38 79,5 4,-50Z"/>
    <path data-fips-int="39075" data-name="Holmes County" d="M2132,1498l1,28 -9,26 -2,135h-26l-305,-7 3,-99 -25,5 -2,-85h60h183Z"/>
    <path data-fips-int="39077" data-name="Huron County" d="M1688,982l4,185h-64l3,61 -185,-2 -67,-1 -7,-218v-30l81,3Z"/>
    <path data-fips-int="39079" data-name="Jackson County" d="M1634,2880l-13,159 -78,-6 -1,6 -49,-3 -72,-5 4,-76 -35,-2 14,-186 14,-34 75,5 -1,12 75,7 -2,30 76,5Z"/>
    <path data-fips-int="39081" data-name="Jefferson County" d="M2760,1559l50,92 -21,73 17,11 4,44 -11,48 -25,25 -4,33 -24,33 -115,2 7,-223h-49l11,-38v-73h38v-39l72,2 1,12Z"/>
    <path data-fips-int="39083" data-name="Knox County" d="M1791,1680l-6,183 -181,-5v-16l-176,-10 4,-63 62,5 10,-148 6,-24 184,-6 75,-10 25,-5Z"/>
    <path data-fips-int="39085" data-name="Lake County" d="M2529,609l-61,2 1,61 -122,2v60l-60,2h-62v-52l31,-40 96,-71 36,-5 71,-45 69,-30Z"/>
    <path data-fips-int="39087" data-name="Lawrence County" d="M1542,3039l-4,57 65,5 11,27 -4,49 78,5 -4,77 49,2 -10,73 -17,43 -58,8 -80,27 -29,-3 -21,-55 -22,-14 -54,-61 -59,-8 50,-24 -17,-38 2,-30 39,2 5,-60h23l8,-85Z"/>
    <path data-fips-int="39089" data-name="Licking County" d="M1785,1863h9l-3,60 -7,183h-21l-1,32 -120,-7 -28,-6 -7,3 -200,-12 7,-35 7,-121 7,-128 176,10v16Z"/>
    <path data-fips-int="39091" data-name="Logan County" d="M935,1637l-23,231 -150,-15 1,-11 -148,-13 8,-34 3,-144 5,-44 73,-3v8l197,15Z"/>
    <path data-fips-int="39093" data-name="Lorain County" d="M1923,794l-1,130h60v63l-60,2v63h-63l-1,53h-60l-1,63 -105,-1 -4,-185 -4,-120 58,-7 41,-28 104,-41Z"/>
    <path data-fips-int="39095" data-name="Lucas County" d="M1166,696h1h-1l-156,1h-95l-29,40 -53,25 -11,40 -26,25 -63,40h-20v-61l5,-197 250,-6h2l7,-2h4h5l-14,32 31,-14 -1,19 48,3 11,-17 64,57Z"/>
    <path data-fips-int="39097" data-name="Madison County" d="M1134,1973l-4,50h-28l3,62 15,38 -17,12 6,88 -7,98 -259,-20 4,-47 38,4 48,-203 9,-87Z"/>
    <path data-fips-int="39099" data-name="Mahoning County" d="M2845,1093l4,197 -192,3 -1,-23h-46v25l-121,1 -2,-73h54l-1,-125Z"/>
    <path data-fips-int="39101" data-name="Marion County" d="M1359,1471l-2,50h-62v130l-37,6 -3,40 -146,-7v-53h-109v-153h74v-11h124Z"/>
    <path data-fips-int="39103" data-name="Medina County" d="M2104,985v243h-280h-27v-60l1,-63h60l1,-53h63v-63l60,-2Z"/>
    <path data-fips-int="39105" data-name="Meigs County" d="M1855,2940l1,-37 -150,-5 1,-13 10,-150 25,2 124,8 210,8 13,59 -8,19 -38,5 3,25 29,34 -11,46 10,30 -31,-18 -46,58 -32,-15 21,-31 -25,-50h-25l-18,-32 -24,3 -8,27Z"/>
    <path data-fips-int="39107" data-name="Mercer County" d="M337,1476l-4,276 13,3 -237,-3 7,-318 223,5Z"/>
    <path data-fips-int="39109" data-name="Miami County" d="M609,1903l-11,122 -11,135 -69,-5 -1,-32 -173,-2v-233h138l7,5Z"/>
    <path data-fips-int="39111" data-name="Monroe County" d="M2675,2181l-3,45 -25,32 27,36 -23,19 -4,56 -42,12 -64,63v-27l-149,-1 -11,-25v-85h-25l2,-137h50h51Z"/>
    <path data-fips-int="39113" data-name="Montgomery County" d="M587,2160l-3,24 -25,10 -18,220 -103,-12 -60,-1 -74,-2 1,-276 39,-2 173,2 1,32Z"/>
    <path data-fips-int="39115" data-name="Morgan County" d="M2110,2268l37,3 -1,73h38v65l-67,-2 -17,10 6,83 -76,-9 -12,36 -138,-7 4,-78 6,2 8,-148 -36,-2 3,-36Z"/>
    <path data-fips-int="39117" data-name="Morrow County" d="M1442,1466l65,2 3,134 -6,24 -10,148 -62,-5 -119,-5 2,-50 -61,-2 1,-15 3,-40 37,-6v-130h62l2,-50v-8Z"/>
    <path data-fips-int="39119" data-name="Muskingum County" d="M2095,1933l-6,187 24,1 -2,73 -1,74 -245,-10 1,-39 -62,-3 4,-75 -46,-3 1,-32h21l7,-183 61,5Z"/>
    <path data-fips-int="39121" data-name="Noble County" d="M2408,2100v69h-50l-2,137h25v85v11l-72,-6 -13,-25 -39,-12v53l-73,-3v-65h-38l1,-73 -37,-3 1,-74 74,4 1,-50 74,2v-25l49,1 1,-25Z"/>
    <path data-fips-int="39125" data-name="Paulding County" d="M418,1072l-4,148h-35l-257,-5 4,-223 221,5 -1,36 72,2Z"/>
    <path data-fips-int="39127" data-name="Perry County" d="M1762,2138l46,3 -4,75 62,3 -1,39 -3,36 36,2 -8,148 -6,-2 -72,-3 -68,-5 1,-23 -77,-5 3,-50 6,-73 -25,-2 5,-75 -48,-3 5,-78 28,6Z"/>
    <path data-fips-int="39129" data-name="Pickaway County" d="M1380,2238l-14,198 74,5 -5,73 -169,-10 -4,-23 -170,-9 10,-151 7,-98Z"/>
    <path data-fips-int="39131" data-name="Pike County" d="M1390,2953l-132,-8 -135,-4 1,-25 -38,-21 -29,-32 -46,-3 23,-120 370,27Z"/>
    <path data-fips-int="39133" data-name="Portage County" d="M2534,919l6,179 1,125h-54l-195,3 -3,-304Z"/>
    <path data-fips-int="39135" data-name="Preble County" d="M305,2123l-1,276v18l-220,-3 10,-294Z"/>
    <path data-fips-int="39137" data-name="Putnam County" d="M709,1283l-74,-2v15l-72,-1 -1,35h-148v-37h-35v-73h35l4,-148 73,1 220,2Z"/>
    <path data-fips-int="39139" data-name="Richland County" d="M1631,1228h10v148l19,7 6,68 25,2 3,143 -184,6 -3,-134 -65,-2 4,-240Z"/>
    <path data-fips-int="39141" data-name="Ross County" d="M1435,2514l-7,85 -10,134 -14,34 -370,-27 7,-30 -34,-32 15,-89 70,-117 170,9 4,23Z"/>
    <path data-fips-int="39145" data-name="Scioto County" d="M1390,2953l35,2 -4,76 72,5 -8,85h-23l-5,60 -39,-2 -2,30 17,38 -50,24 -19,-19 -21,-78 -6,-58 -60,25 -26,-3 -32,34 -34,19 -27,40 -51,-9 -21,7v-334l38,21 -1,25 135,4Z"/>
    <path data-fips-int="39147" data-name="Seneca County" d="M1372,1007l7,218 -181,1h-195v-146l1,-75h323Z"/>
    <path data-fips-int="39149" data-name="Shelby County" d="M626,1651l-3,144 -8,34 -6,74 -120,-10 -7,-5h-138l2,-133 1,-20h61l2,-84Z"/>
    <path data-fips-int="39151" data-name="Stark County" d="M2487,1223l2,73 2,147 -96,3 -1,63h-49h-99l-113,17 -1,-28 -1,-207 146,4 1,-69h14Z"/>
    <path data-fips-int="39153" data-name="Summit County" d="M2289,922l3,304h-14l-1,69 -146,-4v-63h-27v-243l77,-1 -21,-62Z"/>
    <path data-fips-int="39155" data-name="Trumbull County" d="M2837,784l8,309 -305,5 -6,-179 -1,-130 212,-3Z"/>
    <path data-fips-int="39157" data-name="Tuscarawas County" d="M2345,1509l-1,72 36,1 -1,108 -2,112h-39v76l-184,-3 3,-125h-58l-3,-63h26l2,-135 9,-26 113,-17Z"/>
    <path data-fips-int="39159" data-name="Union County" d="M1158,1943v30h-24l-192,-5 7,-95 -37,-5 23,-231h65h109v53l-2,168h49Z"/>
    <path data-fips-int="39161" data-name="Van Wert County" d="M414,1330v38l-36,-2 -2,112 -39,-2 2,-37 -223,-5 6,-219 257,5v73h35Z"/>
    <path data-fips-int="39163" data-name="Vinton County" d="M1728,2584l-5,76 25,2 -6,75 -25,-2 -10,150 -73,-5 7,-88 -76,-5 2,-30 -75,-7 1,-12 -75,-5 10,-134 75,5v-12l76,5 2,-23Z"/>
    <path data-fips-int="39165" data-name="Warren County" d="M541,2414l89,8 -22,265 -166,-15 -2,-15 -59,-7 18,-214 -21,3v-38l60,1Z"/>
    <path data-fips-int="39167" data-name="Washington County" d="M2381,2391l11,25 149,1v27l-37,42 -25,41 -27,7 -25,40 -22,-2 -60,40 -25,3 -17,-40 -34,-15 -62,55 -9,65 -59,-8 -22,16 3,29 -23,6 2,-45 -63,-1 1,-27 -25,-13 6,-110 12,-36 76,9 -6,-83 17,-10 67,2 73,3v-53l39,12 13,25 72,6Z"/>
    <path data-fips-int="39169" data-name="Wayne County" d="M2104,1228h27v63l1,207 -122,3h-183v-190l-3,-83Z"/>
    <path data-fips-int="39171" data-name="Williams County" d="M424,802l-2,48 -291,-5 5,-226 256,-3 -2,75h11l-2,86 25,2Z"/>
    <path data-fips-int="39173" data-name="Wood County" d="M1010,797l-6,208 -1,75 -292,-5 2,-208h20l63,-40 26,-25 11,-40 53,-25 29,-40h95Z"/>
    <path data-fips-int="39175" data-name="Wyandot County" d="M1198,1226v247h-124v11h-74l-49,-13 2,-98h-13l2,-75h23l14,-72h24Z"/>
    <path data-fips-int="39043" data-name="Erie County" d="M1684,862l4,120 -235,-2 -81,-3 -6,-118h-33l58,-37 37,25 33,-18 118,70 21,1 74,-40Z"/>
    <path data-fips-int="39123" data-name="Ottawa County" d="M1166,696h1l60,20 28,38 36,30 -85,13 127,-11 29,-25 15,-35 17,28 -8,15 62,-7 3,20 -106,27h-44l-13,18 -41,8h-12h-4h2h-2l-174,-1v-37h-47v-100Z"/>
    <path data-fips-int="39143" data-name="Sandusky County" d="M1231,835h2l36,17 17,-13 19,28 28,-8h33l6,118v30l-45,-2h-323l6,-208h47v37Z"/>
  </g>
  <path class="mesh" transform="scale(0.1)" d="M798,3211l6,-97 19,-228 39,4 149,-30 46,3 29,32v334M709,1283l2,-208 292,5v146h-24l-14,72h-23l-2,75 -232,-5 -2,148h-146v-15h-74l2,-23h-112l2,-112 36,2v-38h148l1,-35 72,1v-15l74,2 -1,85M1982,987l-60,2v63h-63l-1,53h-60l-1,63v60h27l3,83v190h-60l2,85 -75,10 -3,-143 -25,-2 -6,-68 -19,-7v-148h-10l-3,-61h64l105,1M2837,784l-92,2 -212,3 -4,-180 -1,-116 55,-12 61,-30 124,-43 59,-27M2076,2753l-210,-8 -124,-8 6,-75 -25,-2 5,-76 6,-74 74,5 4,-76 72,3 -4,78 138,7 -6,110 25,13 -1,27 63,1 -2,45M706,1516l-2,88 -73,3 -5,44h-216l-2,84h-61l-1,20 -13,-3 4,-276 39,2M2675,2181l-216,-12h-51v-69l3,-185 220,5 115,-2M570,3094l49,-406 80,7 -7,191h131M84,2414l220,3v-18l74,2v38l21,-3 -18,214 -181,-18 -6,3h-117M935,1637l-23,231 37,5 -7,95 -9,87 -335,-30 11,-122 6,-74 148,13 -1,11 150,15M933,2055l-48,203 -38,-4 -118,-23 1,-22 -74,-5v-13l-72,-7 3,-24 11,-135M399,2881l15,-129 17,-24 -30,-18 41,-38 166,15 11,1M608,2687l22,-265 200,19 60,6 -11,140 -122,91 -20,35 -38,-18M2760,1559l-49,2 -1,-12 -72,-2M2491,1443l109,-4 1,73h37v35v39h-38v73l-11,38 -210,-7 1,-108 -36,-1 1,-72h49l1,-63 96,-3 -2,-147 121,-1v-25h46l1,23 192,-3M1827,1501h183l122,-3 1,28 -9,26 -2,135h-26l3,63h58l-3,125 -29,-2 -1,62 -29,-2 -243,-5 -61,-5 3,-60h-9l6,-183 305,7M109,1752l237,3 -2,133v233l-39,2 -211,-3M131,845l291,5 73,2 -4,221 -73,-1v-37l-72,-2 1,-36 -221,-5M1359,1471l-2,50h-62v130l-37,6 -3,40 -1,15 61,2 -2,50 119,5 -4,63 -7,128 -263,-17 -2,-85h-49l2,-168 146,7M1421,1960l-7,121 -7,35 200,12 7,-3 -5,78 48,3 -5,75 25,2 -6,73 -74,-5 -4,50 -79,-5 -1,38 -73,-5v12l-74,-5 14,-198 14,-24 13,-98M830,2441l13,-140 259,20 -10,151 -70,117 -143,-2M1380,2238l-271,-15 -6,-88 17,-12 -15,-38 -3,-62h28l4,-50h24v-30M718,609l-5,197 -289,-4v-23l-25,-2 2,-86h-11l2,-75M1733,3261l-49,-2 4,-77 -78,-5 4,-49 -11,-27 -65,-5 4,-57 1,-6 78,6 13,-159 73,5 -1,13 150,5 -1,37M2487,1223l-195,3 -3,-304M2287,736l2,186h-129l21,62 -77,1 -122,2v-63h-60l1,-130 68,18 33,-11 44,6 88,-61 39,-44 30,-18v52h62l60,-2v-60l122,-2 -1,-61 61,-2M847,2254l-4,47M630,2422l-89,-8 18,-220 25,-10M2408,2100l-98,1 -1,25 -49,-1v25l-74,-2 -1,50 -74,-4 2,-73 -24,-1 6,-187M2154,1875l184,3 -1,35 74,2M381,2650l59,7 2,15M940,1373h13l-2,98 49,13v153h-65l-34,-10 -197,-15v-8M2589,1697h49l-7,223M2338,1878v-76h39l2,-112M713,806v61l-2,208 -220,-2M422,850l2,-48M1022,2589l-15,89 34,32 -7,30 -23,120M1671,2356l-3,50 77,5 -1,23 68,5M1728,2584l-147,-10 -2,23 -76,-5v12l-75,-5 7,-85 5,-73M1791,1680l3,-99 -25,5M1379,1225l67,1 -4,240 -83,-3v8l-161,2v-247l181,-1 -7,-218v-30l81,3 235,2 4,185M1631,1228l-185,-2M1542,3039l-49,-3 -72,-5 4,-76 -35,-2 14,-186 14,-34 75,5 -1,12 75,7 -2,30 76,5 -7,88M1785,1863l-181,-5v-16l-176,-10M1432,1769l62,5 10,-148 6,-24 184,-6M2225,684l31,-40 96,-71 36,-5 71,-45 69,-30M1383,3271l50,-24 -17,-38 2,-30 39,2 5,-60h23l8,-85M1791,1923l-7,183h-21l-1,32 -120,-7 -28,-6M615,1829l8,-34 3,-144M1688,982l-4,-120 58,-7 41,-28 104,-41 36,8M986,601l-14,32 31,-14 -1,19 48,3 11,-17 64,57 41,15h1h-1l-156,1h-95l-29,40 -53,25 -11,40 -26,25 -63,40h-20M1109,2223l-7,98M942,1968l192,5M2489,1296l-2,-73h54l-1,-125 305,-5M1109,1690v-53h-109M1000,1484h74v-11h124M2104,985v243h-280M1707,2885l10,-150 25,2M116,1434l223,5 -2,37M587,2160l-69,-5 -1,-32 -173,-2M344,1888h138l7,5 120,10M2541,2444v-27l-149,-1 -11,-25v-85h-25l2,-137h50M541,2414l-103,-12 -60,-1M304,2399l1,-276M1884,2442l6,2 8,-148 -36,-2 3,-36 245,10 37,3 -1,73h38v65l-67,-2 -17,10 6,83 -76,-9 -12,36M1442,1466l65,2 3,134M2111,2194l-1,74M1865,2258l1,-39 -62,-3 4,-75 -46,-3M2381,2391v11l-72,-6 -13,-25 -39,-12v53l-73,-3M418,1072l-4,148h-35l-257,-5M1435,2514l-169,-10 -4,-23 -170,-9M1390,2953l-132,-8 -135,-4 1,-25 -38,-21M1034,2740l370,27M2534,919l6,179M414,1330v-37h-35v-73M1428,2599l-10,134M1198,1226h-195M1003,1080l1,-75h323l45,2M2345,1509h-99l-113,17M2132,1498l-1,-207 146,4 1,-69h14M2131,1291v-63h-27M1010,697v100l-6,208M1684,862l-10,-2 -74,40 -21,-1 -118,-70 -33,18 -37,-25 -58,37 -28,8 -19,-28 -17,13 -36,-17h-2h4M1247,835l41,-8 13,-18h44l106,-27 -3,-20 -62,7 8,-15 -17,-28 -15,35 -29,25 -127,11 85,-13 -36,-30 -28,-38 -60,-20M1372,977l-6,-118h-33M1233,835h-2l-174,-1v-37h-47M2533,789l1,130 -245,3"/>
  <g class="cities">
    <circle r="3" cx="126.8" cy="209.8"/>
    <text x="126.8" y="209.8">Columbus</text>
    <circle r="3" cx="209.6" cy="79.8"/>
    <text x="209.6" y="79.8">Cleveland</text>
    <circle r="3" cx="26.4" cy="280.0"/>
    <text x="26.4" y="280.0">Cincinnati</text>
  </g>
</svg>