<?xml version="1.0" encoding="utf-8"?>
<!DOCTYPE svg PUBLIC "-//W3C//DTD SVG 1.1//EN" "http://www.w3.org/Graphics/SVG/1.1/DTD/svg11.dtd">
<svg version="1.1" xmlns="http://www.w3.org/2000/svg" width="919" height="1000" viewBox="0 0 919 1000">
  <path class="state" d="M341,917l-10,5 -6,-12 -22,-6 -16,-9 -22,8 -3,11 -12,-2 -13,-5 -4,-12 -8,-3 -5,-11 -20,-9 -21,4 -32,-10 -5,-6v-18l-12,-18 -5,-16 -5,-5 -18,-5v-11l-8,-6 -7,7 -9,-2 -16,7 -10,-7 -10,-12 -7,-1 -12,10 2,-52 2,-69 1,-60 1,-33 3,-58 2,-57 2,-100 2,-68 1,-67 1,-2 1,-47 1,-71h61l19,-1h48l55,-2 81,-2 -1,9 24,3 4,-5 5,7 14,10 14,5 12,2 15,16 12,9 -29,4h19l21,-2 11,-9 4,-10 4,14 15,-4 5,7 -10,4 -40,6 -1,4 -14,3h-3h-1l11,5 7,-4 5,9 9,-3 18,-12 10,9 12,-6 17,12 21,10h7l25,-12 19,-2 12,-10 31,-11 12,2 22,6 11,-4 11,3 29,-19 15,-17 7,-3 10,-13 21,-17 14,-5 28,-16 22,-9 21,-5 19,-11 19,-4 35,-15 1,47 3,79 2,97 1,62 2,68 -11,7h-12l-6,8 15,28 -3,11 3,31 -2,13 -7,6 -11,25v13l-7,8 3,6 -5,38 -10,-2 3,14 -7,4 1,12 -8,8 7,16 -7,6 -4,20h-8l-22,21 -12,13 -9,13 -8,3 -6,12h-10l-18,12h-7l-5,-12 -11,-5 -20,20 -1,17 -24,-1 -1,14 -7,2 -7,9 3,22 -14,5v5l10,10 -4,18 4,9 -13,-6 -4,11 -9,8 -8,-7 6,-11 -9,-14 -8,1 -8,-11 -15,18 -9,17 -2,18 -11,7 -4,8 6,6 1,20 4,11 -2,10h-17l-5,4 -6,34 -4,4h-15l-25,10 -13,-4 -4,-15 -11,-8 -13,-14 -18,-3 -9,-12 -4,-19 2,-11 -4,-7 -19,8h-10l-5,7 -13,7 -8,13Z"/>
  <g class="counties">
    <path data-fips-int="39001" data-name="Adams County" d="M341,812v105l-10,5 -6,-12 -22,-6 -16,-9 -22,8 -3,11 -12,-2 5,-61 3,-41 19,-1 40,-8 15,1Z"/>
    <path data-fips-int="39003" data-name="Allen County" d="M222,334l-1,46h-45v-4h-23v-8h-35v-34h12v-12h46v-11h23v-4l23,1Z"/>
    <path data-fips-int="39005" data-name="Ashland County" d="M563,271v19h9l1,25v60h-19v27l-23,4 -2,-46h-7v-16l-8,-10v-44h-3l-1,-19h19Z"/>
    <path data-fips-int="39007" data-name="Ashtabula County" d="M890,151l-29,1h-67l-1,-56 -1,-36 21,-5 19,-11 19,-4 35,-15 1,47Z"/>
    <path data-fips-int="39009" data-name="Athens County" d="M632,697l-1,31 7,8v8h20v15l-7,9 -54,-2 -51,-4 2,-22 -8,-1 2,-24 1,-23 24,1 1,-24 22,2v24Z"/>
    <path data-fips-int="39011" data-name="Auglaize County" d="M221,380v29h-23l-2,14 -68,-1 -1,28 -19,-1v6l-3,-8 1,-79h12h35v8h23v4Z"/>
    <path data-fips-int="39013" data-name="Belmont County" d="M824,507h37v13l-7,8 3,6 -5,38 -10,-2 3,14 -7,4 -83,-3v-22v-58Z"/>
    <path data-fips-int="39015" data-name="Brown County" d="M219,750l-2,60h41l-3,41 -5,61 -13,-5 -4,-12 -8,-3 -5,-11 -20,-9 -21,4 4,-45 7,-50 4,-35Z"/>
    <path data-fips-int="39017" data-name="Butler County" d="M119,658v12l6,-2 -2,35 -3,34 -30,-5 -28,-3 -2,3 -35,-1 2,-69 67,1v-6Z"/>
    <path data-fips-int="39019" data-name="Carroll County" d="M780,357l35,-1v23h12v12l-1,11h-11v23l-4,12 -32,-2h-33v-34l-11,-1v-22h15l1,-19Z"/>
    <path data-fips-int="39021" data-name="Champaign County" d="M286,490l11,2 -2,30 -2,27 -105,-9 2,-38 3,-25 46,5 -1,5Z"/>
    <path data-fips-int="39023" data-name="Clark County" d="M293,549l-16,64 -11,-2 -20,-2 -17,-5v-6l-23,-2v-4l-23,-3v-7l5,-42Z"/>
    <path data-fips-int="39025" data-name="Clermont County" d="M179,876l-32,-10 -5,-6v-18l-12,-18 -5,-16 5,-41 4,-9 -6,-6 11,-10 51,4h4l-4,35 -7,50Z"/>
    <path data-fips-int="39027" data-name="Clinton County" d="M260,670l20,2 -5,44 -42,32 -8,9 -6,-7 -25,-4h-4l7,-82Z"/>
    <path data-fips-int="39029" data-name="Columbiana County" d="M893,310l2,68 -11,7h-12l-6,8 -16,1v-3h-23v-12h-12v-23l-35,1v-45l38,-1v-8h15v8Z"/>
    <path data-fips-int="39031" data-name="Coshocton County" d="M657,433v20l19,1 -1,38h-9v19h-9l-43,-2h-52l-2,-20 2,-57Z"/>
    <path data-fips-int="39033" data-name="Crawford County" d="M432,289h21l-1,75 -26,2 -50,1v-77Z"/>
    <path data-fips-int="39035" data-name="Cuyahoga County" d="M717,136l1,58h-41l7,19 -25,1 -38,1v-20h-19v-41l22,6 11,-4 11,3 29,-19 15,-17 7,-3 1,16Z"/>
    <path data-fips-int="39037" data-name="Darke County" d="M108,497v71l-1,2h-11l-67,-1 3,-58 2,-57 74,1Z"/>
    <path data-fips-int="39039" data-name="Defiance County" d="M154,241h-23v-11l-23,-1v-11l-68,-1 1,-47 10,1h53l29,1h22Z"/>
    <path data-fips-int="39041" data-name="Delaware County" d="M393,437v5l19,1 -1,15 38,2 -3,19 -1,40 -83,-6v-25h-15l1,-54Z"/>
    <path data-fips-int="39045" data-name="Fairfield County" d="M441,568l39,3h26l-2,24 14,1v24h8l-2,24 -24,-2v16l-26,-2v11l-22,-1v4l-23,-2 3,-62 6,-10Z"/>
    <path data-fips-int="39047" data-name="Fayette County" d="M345,632l-3,48 -21,37 -46,-1 5,-44 -20,-2 4,-44 41,4Z"/>
    <path data-fips-int="39049" data-name="Franklin County" d="M445,519l-4,49 -3,28 -6,10 -38,-2 -46,-2 -2,-29 2,-8 -3,-24 9,-2 1,-15h7v-11Z"/>
    <path data-fips-int="39051" data-name="Fulton County" d="M224,158l-91,-1v-8h-8l1,-28h-4v-23h48l55,-2Z"/>
    <path data-fips-int="39053" data-name="Gallia County" d="M535,809l1,5 46,2v10l-9,17 -2,18 -11,7 -4,8 6,6 1,20 4,11 -2,10h-17l-5,4 -15,-1 1,-24 -24,-2 1,-15 -4,-8 -20,-1 1,-18h25l4,-51Z"/>
    <path data-fips-int="39055" data-name="Geauga County" d="M794,152l1,41 -15,1h-62l-1,-58 18,-1v-18l39,-1 -1,-19 20,-1Z"/>
    <path data-fips-int="39057" data-name="Greene County" d="M266,611l-2,15 -4,44 -63,-6 -28,-2 6,-69 8,-4 23,3v4l23,2v6l17,5Z"/>
    <path data-fips-int="39059" data-name="Guernsey County" d="M755,563l-31,1v7h-16v8l-22,-1 -2,15h-22v-24h-7l2,-58h9v-19h9l57,2v11h23Z"/>
    <path data-fips-int="39061" data-name="Hamilton County" d="M120,737l18,1 1,4 -11,10 6,6 -4,9 -5,41 -5,-5 -18,-5v-11l-8,-6 -7,7 -9,-2 -16,7 -10,-7 -10,-12 -7,-1 -12,10 2,-52 35,1 2,-3 28,3Z"/>
    <path data-fips-int="39063" data-name="Hancock County" d="M314,243v47h-7l-4,23h-8l-1,22h-13h-57l-2,-1v-26l1,-66Z"/>
    <path data-fips-int="39065" data-name="Hardin County" d="M294,335h5v31l15,5v47h-21l-11,-3 -61,-4v-2v-29l1,-46 2,1h57Z"/>
    <path data-fips-int="39067" data-name="Harrison County" d="M811,437h16l-3,70 -69,-2h-23v-11v-25l13,1 1,-35h33Z"/>
    <path data-fips-int="39069" data-name="Henry County" d="M224,158v19l-1,65 -69,-1 1,-69h-22v-15Z"/>
    <path data-fips-int="39071" data-name="Highland County" d="M321,717l-5,26 10,12 -2,9 -7,37 -40,8 -19,1h-41l2,-60 6,7 8,-9 42,-32Z"/>
    <path data-fips-int="39073" data-name="Hocking County" d="M524,644l-2,15 25,2v7l21,1 -1,24 -24,-1 -1,23 -47,-3 -1,7 -23,-1v4l-23,-2 2,-27 2,-23v-4l22,1v-11l26,2v-16Z"/>
    <path data-fips-int="39075" data-name="Holmes County" d="M668,374l1,9 -3,7v43h-9l-95,-1v-31l-8,1v-27h19h73Z"/>
    <path data-fips-int="39077" data-name="Huron County" d="M529,213v58h-19l1,19 -58,-1h-21l-2,-69v-9l43,2Z"/>
    <path data-fips-int="39079" data-name="Jackson County" d="M512,807l-4,51h-25l-15,-1 -23,-1v-25h-9l4,-59 5,-11 23,2 -1,4 22,1 2,11 23,2Z"/>
    <path data-fips-int="39081" data-name="Jefferson County" d="M866,393l15,28 -3,11 3,31 -2,13 -7,6 -11,25h-37l3,-70h-16l4,-12v-23h11l1,-11h23v3Z"/>
    <path data-fips-int="39083" data-name="Knox County" d="M562,432l-2,57 -57,-1 -2,-6 -55,-3 3,-19 20,1 1,-31 3,-23 58,-1 23,-4 8,-1Z"/>
    <path data-fips-int="39085" data-name="Lake County" d="M793,96l-20,1 1,19 -39,1v18l-18,1h-19l-1,-16 10,-13 21,-17 14,-5 28,-16 22,-9Z"/>
    <path data-fips-int="39087" data-name="Lawrence County" d="M483,858l-1,18 20,1 4,8 -1,15 24,2 -1,24 15,1 -6,34 -4,4h-15l-25,10 -13,-4 -4,-15 -11,-8 -13,-14 -18,-3 15,-8 -5,-12 1,-10 12,1 2,-19h7l2,-26Z"/>
    <path data-fips-int="39089" data-name="Licking County" d="M560,489l2,20 -2,54 -7,3 -1,9 -38,-2 -8,-2h-26l-39,-3 4,-49 1,-40 55,3 2,6Z"/>
    <path data-fips-int="39091" data-name="Logan County" d="M293,418l-5,53 -2,19 -48,-3 1,-5 -46,-5 2,-10 1,-44 2,-14h23v2l61,4Z"/>
    <path data-fips-int="39093" data-name="Lorain County" d="M602,154v41h19v20h-19v20h-19v17h-20v19h-34v-58l-1,-38 19,-2 12,-10 31,-11Z"/>
    <path data-fips-int="39095" data-name="Lucas County" d="M366,123h-50h-29l-10,13 -14,6 -5,15 -14,11 -20,9v-19l1,-62 81,-2 -1,9 24,3 4,-5 5,7 14,10Z"/>
    <path data-fips-int="39097" data-name="Madison County" d="M355,524l-1,15 -9,2 3,24 -2,8 2,29 -3,30 -40,-2 -41,-4 2,-15 11,2 16,-64 2,-27Z"/>
    <path data-fips-int="39099" data-name="Mahoning County" d="M892,248l1,62 -60,1v-8h-15v8l-38,1v-24h17v-38Z"/>
    <path data-fips-int="39101" data-name="Marion County" d="M426,366v15l-20,1v41l-12,1 -1,13 -45,-3v-16h-34v-47h22v-4h40Z"/>
    <path data-fips-int="39103" data-name="Medina County" d="M659,214v76h-87h-9v-19v-19h20v-17h19v-20h19Z"/>
    <path data-fips-int="39105" data-name="Meigs County" d="M582,826v-10l-46,-2 -1,-5 3,-47h8l51,4 54,2 3,22 -14,5v5l10,10 -4,18 4,9 -13,-6 -4,11 -9,8 -8,-7 6,-11 -9,-14 -8,1 -8,-11Z"/>
    <path data-fips-int="39107" data-name="Mercer County" d="M106,368l-1,79 3,8 -74,-1 2,-100 70,2Z"/>
    <path data-fips-int="39109" data-name="Miami County" d="M190,502l-2,38 -5,42 -19,-1 -2,-11h-55l1,-2v-71h43Z"/>
    <path data-fips-int="39111" data-name="Monroe County" d="M838,588l1,12 -8,8 7,16 -7,6 -4,20h-8l-22,21v-8l-47,-1 -4,-8 1,-27h-8v-42h16Z"/>
    <path data-fips-int="39113" data-name="Montgomery County" d="M183,582v7l-8,4 -6,69 -34,-4h-16l-25,-1 2,-87h11h55l2,11Z"/>
    <path data-fips-int="39115" data-name="Morgan County" d="M661,616l12,1v23h12l-1,21 -25,1 1,26 -23,-3 -5,12 -42,-2v-24l3,-6 2,-40h-12l1,-13 21,2Z"/>
    <path data-fips-int="39117" data-name="Morrow County" d="M452,364l21,1v42l-3,23 -1,31 -20,-1 -38,-2 1,-15 -19,-1v-5l1,-13 12,-1v-41l20,-1v-15Z"/>
    <path data-fips-int="39119" data-name="Muskingum County" d="M657,511l-2,58h7v24l-1,23 -56,-2 -21,-2 1,-11 -20,-1 2,-24 -15,-1 1,-9 7,-3 2,-54h52Z"/>
    <path data-fips-int="39121" data-name="Noble County" d="M755,563v22h-16v42h8l-1,27v4l-23,-2 -3,-8 -13,-3v16h-23l1,-21h-12v-23l-12,-1 1,-23h22l2,-15 22,1v-8h16v-7Z"/>
    <path data-fips-int="39125" data-name="Paulding County" d="M131,241l-1,46h-11l-81,-1 1,-67 1,-2 68,1v11l23,1Z"/>
    <path data-fips-int="39127" data-name="Perry County" d="M552,575l15,1 -2,24 20,1 -1,11 -1,13h12l-2,40 -3,6 -22,-2 -21,-1v-7l-25,-2 2,-15 2,-24h-8v-24l-14,-1 2,-24 8,2Z"/>
    <path data-fips-int="39129" data-name="Pickaway County" d="M432,606l-3,62 23,2 -2,23 -53,-3 2,-7 -37,-1 -20,-2 3,-48 3,-30 46,2Z"/>
    <path data-fips-int="39131" data-name="Pike County" d="M436,831l-37,-3 -47,-1v-8l-11,-7 -9,-10 -15,-1 7,-37 38,2 27,3 51,3Z"/>
    <path data-fips-int="39133" data-name="Portage County" d="M795,193l2,57v38h-17l-2,1h-59l-1,-24v-71h62Z"/>
    <path data-fips-int="39135" data-name="Preble County" d="M96,570l-2,87v6l-67,-1 1,-60 1,-33Z"/>
    <path data-fips-int="39137" data-name="Putnam County" d="M222,308l-23,-1v4h-23v11h-46v-11l-11,-1v-23h11l1,-46h23l69,1Z"/>
    <path data-fips-int="39139" data-name="Richland County" d="M511,290h3v44l8,10v16h7l2,46 -58,1v-42l-21,-1 1,-75Z"/>
    <path data-fips-int="39141" data-name="Ross County" d="M450,693l-2,27 -3,41 -5,11 -51,-3 -27,-3 -38,-2 2,-9 -10,-12 5,-26 21,-37 20,2 37,1 -2,7Z"/>
    <path data-fips-int="39145" data-name="Scioto County" d="M436,831h9v25l23,1 -2,26h-7l-2,19 -12,-1 -1,10 5,12 -15,8 -9,-12 -4,-19 2,-11 -4,-7 -19,8h-10l-5,7 -13,7 -8,13h-23v-105l11,7v8l47,1Z"/>
    <path data-fips-int="39147" data-name="Seneca County" d="M430,220l2,69 -56,1h-62v-47v-23Z"/>
    <path data-fips-int="39149" data-name="Shelby County" d="M196,423l-1,44 -2,10 -3,25 -39,-5h-43v-42v-6l19,1 1,-28Z"/>
    <path data-fips-int="39151" data-name="Stark County" d="M780,288v24v45l-29,2 -1,19h-15h-37l-29,5 -1,-9v-64l46,1v-19l5,-3h59Z"/>
    <path data-fips-int="39153" data-name="Summit County" d="M718,194v71l1,24 -5,3v19l-46,-1v-20h-9v-76l25,-1 -7,-19Z"/>
    <path data-fips-int="39155" data-name="Trumbull County" d="M890,151l2,97 -95,2 -2,-57 -1,-41h67Z"/>
    <path data-fips-int="39157" data-name="Tuscarawas County" d="M735,378v22l11,1v34l-1,35 -13,-1v25l-57,-2 1,-38 -19,-1v-20h9v-43l3,-7 29,-5Z"/>
    <path data-fips-int="39159" data-name="Union County" d="M362,513v11h-7l-60,-2 2,-30 -11,-2 2,-19 5,-53h21h34v16l-1,54h15Z"/>
    <path data-fips-int="39161" data-name="Van Wert County" d="M130,322v12h-12v34h-12v-12l-70,-2 2,-68 81,1v23l11,1Z"/>
    <path data-fips-int="39163" data-name="Vinton County" d="M542,715l-2,24 8,1 -2,22h-8l-3,47 -23,-2 2,-26 -23,-2 -2,-11 -22,-1 1,-4 -23,-2 3,-41 23,2v-4l23,1 1,-7Z"/>
    <path data-fips-int="39165" data-name="Warren County" d="M169,662l28,2 -7,82 -51,-4 -1,-4 -18,-1 3,-34 2,-35 -6,2v-12h16Z"/>
    <path data-fips-int="39167" data-name="Washington County" d="M746,654l4,8 47,1v8l-12,13 -9,13 -8,3 -6,12h-10l-18,12h-7l-5,-12 -11,-5 -20,20 -1,17 -24,-1 -1,14 -7,2v-15h-20v-8l-7,-8 1,-31 5,-12 23,3 -1,-26 25,-1h23v-16l13,3 3,8 23,2Z"/>
    <path data-fips-int="39169" data-name="Wayne County" d="M659,290h9v20v64l-22,1h-73v-60l-1,-25Z"/>
    <path data-fips-int="39171" data-name="Williams County" d="M133,157v15l-29,-1h-53l-10,-1 1,-71h61l19,-1v23h4l-1,28h8Z"/>
    <path data-fips-int="39173" data-name="Wood County" d="M316,154v34l-2,32v23l-91,-1 1,-65 20,-9 14,-11 5,-15 14,-6 10,-13h29Z"/>
    <path data-fips-int="39175" data-name="Wyandot County" d="M376,290v77h-40v4h-22l-15,-5v-31h-5l1,-22h8l4,-23h7Z"/>
    <path data-fips-int="39043" data-name="Erie County" d="M528,175l1,38h-56l-43,-2 -1,-37h-11l18,-12 10,9 12,-6 17,12 21,10h7Z"/>
    <path data-fips-int="39123" data-name="Ottawa County" d="M366,123l12,2 15,16 12,9 -29,4h19l21,-2 11,-9 4,-10 4,14 15,-4 5,7 -10,4 -40,6 -1,4 -14,3h-3h-1l-55,-1v-12h-15v-31Z"/>
    <path data-fips-int="39143" data-name="Sandusky County" d="M386,167l11,5 7,-4 5,9 9,-3h11l1,37v9h-116l2,-32v-34h15v12Z"/>
  </g>
  <path class="mesh" d="M222,308l1,-66 91,1v47h-7l-4,23h-8l-1,22h-13h-57l-2,-1 -1,46h-45v-4h-23v-8h-35v-34h12v-12h46v-11h23v-4l23,1v26M621,215h-19v20h-19v17h-20v19v19h9l1,25v60h-19v27l-23,4 -2,-46h-7v-16l-8,-10v-44h-3l-1,-19h19h34M890,151l-29,1h-67l-1,-56 -1,-36M651,768l-54,-2 -51,-4 2,-22 -8,-1 2,-24 1,-23 24,1 1,-24 22,2v24l42,2 -1,31 7,8v8h20v15M221,380v29h-23l-2,14 -68,-1 -1,28 -19,-1v6l-3,-8 1,-79h12M838,588l-83,-3v-22v-58l69,2h37M27,662l67,1v-6l25,1v12l6,-2 -2,35 -3,34 -30,-5 -28,-3 -2,3 -35,-1M293,418l-5,53 -2,19 11,2 -2,30 -2,27 -105,-9 2,-38 3,-25 46,5 -1,5 48,3M293,549l-16,64 -11,-2 -20,-2 -17,-5v-6l-23,-2v-4l-23,-3v-7l5,-42M125,808l5,-41 4,-9 -6,-6 11,-10 51,4h4M190,746l7,-82 63,6 20,2 -5,44 -42,32 -8,9 -6,-7M866,393l-16,1v-3h-23M780,357l35,-1v23h12v12l-1,11h-11v23l-4,12 -32,-2h-33v-34l-11,-1v-22h15l1,-19 29,-2v-45l38,-1v-8h15v8l60,-1M573,375h73l22,-1 1,9 -3,7v43h-9v20l19,1 -1,38h-9v19h-9l-43,-2h-52l-2,-20 2,-57 95,1M179,876l4,-45 7,-50 4,-35 25,4 -2,60h41l19,-1 40,-8 15,1 9,10v105M697,120l1,16h19l1,58h-41l7,19 -25,1 -38,1v-20h-19v-41M34,454l74,1v42v71l-1,2h-11l-67,-1M41,170l10,1h53l29,1h22l-1,69h-23v-11l-23,-1v-11l-68,-1M426,366v15l-20,1v41l-12,1 -1,13v5l19,1 -1,15 38,2 -3,19 -1,40 -83,-6v-25h-15l1,-54 45,3M445,519l-4,49 39,3h26l-2,24 14,1v24h8l-2,24 -24,-2v16l-26,-2v11l-22,-1v4l-23,-2 3,-62 6,-10 3,-28M260,670l4,-44 41,4 40,2 -3,48 -21,37 -46,-1M432,606l-38,-2 -46,-2 -2,-29 2,-8 -3,-24 9,-2 1,-15h7v-11M225,96l-1,62 -91,-1v-8h-8l1,-28h-4v-23M543,927l-15,-1 1,-24 -24,-2 1,-15 -4,-8 -20,-1 1,-18h25l4,-51 23,2 1,5 46,2v10M780,288l-2,1h-59l-1,-24v-71M717,136l18,-1v-18l39,-1 -1,-19 20,-1M266,611l-2,15M197,664l-28,-2 6,-69 8,-4M755,563l-31,1v7h-16v8l-22,-1 -2,15h-22v-24h-7l2,-58M675,492l57,2v11h23M120,737l18,1 1,4M294,335h5v31l15,5v47h-21l-11,-3 -61,-4v-2M811,437h16l-3,70M732,494v-25l13,1 1,-35M224,158v19l-1,65 -69,-1M133,172v-15M321,717l-5,26 10,12 -2,9 -7,37M524,644l-2,15 25,2v7l21,1M542,715l-47,-3 -1,7 -23,-1v4l-23,-2 2,-27 2,-23M562,432v-31l-8,1M432,289h21l-1,75 -26,2 -50,1v-77l56,-1 -2,-69v-9l43,2h56v58M511,290l-58,-1M483,858l-15,-1 -23,-1v-25h-9l4,-59 5,-11 23,2 -1,4 22,1 2,11 23,2 -2,26M560,489l-57,-1 -2,-6 -55,-3M449,460l20,1 1,-31 3,-23 58,-1M434,931l15,-8 -5,-12 1,-10 12,1 2,-19h7l2,-26M562,509l-2,54 -7,3 -1,9 -38,-2 -8,-2M193,477l2,-10 1,-44M529,213l-1,-38M366,123h-50h-29l-10,13 -14,6 -5,15 -14,11 -20,9M348,602l-3,30M295,522l60,2M780,312v-24h17v-38l95,-2M348,434v-16h-34M314,371h22v-4h40M659,214v76h-87M535,809l3,-47h8M250,912l5,-61 3,-41M36,354l70,2v12M183,582l-19,-1 -2,-11h-55M108,497h43l39,5M797,671v-8l-47,-1 -4,-8 1,-27h-8v-42h16M169,662l-34,-4h-16M94,657l2,-87M590,671l3,-6 2,-40h-12l1,-13 21,2 56,2 12,1v23h12l-1,21 -25,1 1,26 -23,-3 -5,12M452,364l21,1v42M662,593l-1,23M584,612l1,-11 -20,-1 2,-24 -15,-1M746,654v4l-23,-2 -3,-8 -13,-3v16h-23M131,241l-1,46h-11l-81,-1M450,693l-53,-3 2,-7 -37,-1 -20,-2M436,831l-37,-3 -47,-1v-8l-11,-7M324,764l38,2 27,3 51,3M795,193l2,57M130,322v-11l-11,-1v-23M448,720l-3,41M376,290h-62M314,243v-23h116M735,378h-37l-29,5M668,374v-64l46,1v-19l5,-3M668,310v-20h-9M316,123v31v34l-2,32M430,211l-1,-37h-11M386,167l-55,-1v-12h-15M794,152l1,41 -15,1h-62"/>
  <g class="cities">
    <circle r="7" cx="398" cy="563"/>
    <text x="398" y="563">Columbus</text>
    <circle r="7" cx="657" cy="155"/>
    <text x="657" y="155">Cleveland</text>
    <circle r="7" cx="83" cy="783"/>
    <text x="83" y="783">Cincinnati</text>
  </g>
</svg>