<?xml version="1.0" encoding="utf-8"?>
<!DOCTYPE svg PUBLIC "-//W3C//DTD SVG 1.1//EN" "http://www.w3.org/Graphics/SVG/1.1/DTD/svg11.dtd">
<svg version="1.1" xmlns="http://www.w3.org/2000/svg" width="293" height="350" viewBox="0 0 293 350">
  <path class="state" transform="scale(0.1)" d="M2828,380l10,404 7,309 4,197 7,221 -36,20 -28,-4 -32,32 52,90 -12,63 12,67 -12,48 -26,25 -6,33 -22,33 0,49 -21,20 9,28 -6,55 -15,23 5,33 -30,-3 8,43 -20,15 -6,47 -21,30 23,36 -21,24 -5,51 -41,12 -64,63 -37,42 -17,33 -39,18 -21,38 -22,-1 -60,38 -25,3 -17,-38 -34,-17 -64,64 -7,56 -59,-8 -22,16 3,29 -23,5 -21,31 13,59 -8,19 -39,7 33,57 -11,46 10,30 -31,-18 -46,60 -32,-17 21,-30 -25,-53 -25,0 -18,-32 -24,5 -8,25 -31,29 -31,58 2,46 -50,42 25,63 -4,30 12,40 -12,32 -42,-5 -22,15 -20,108 -15,13 -50,3 -80,27 -29,-3 -21,-55 -26,-17 -50,-56 -59,-10 -19,-19 -21,-78 -7,-58 -59,25 -26,-3 -24,28 -42,25 -27,38 -51,-7 -21,7 -15,20 -51,-53 -64,-15 -51,-22 -57,20 -12,38 -38,-6 -43,-15 -11,-37 -36,-20 -10,-28 -86,-27 -41,10 -1,0 -25,-1 -74,-25 -18,-30 0,-48 -39,-64 -15,-46 -73,-35 -9,-47 -44,19 -25,-5 -46,21 -43,-25 -25,-35 -21,-3 -40,32 4,-167 8,-221 10,-294 14,-368 8,-318 3,-219 7,-223 3,-148 4,-225 256,-3 328,-7 250,-6 -1,1 -2,0 2,0 3,-1 7,-2 4,0 5,0 24,0 193,-185 27,77 242,156 180,0 718,-452 454,-110 4,NaN -1590,NaN -1,1 1,-1 9,-4 -12,NaN -4,NaN 2,0Z"/>
  <g class="counties" transform="scale(0.1)">
    <path data-fips-int="39001" data-name="Adams County" d="M1086,2895l0,334 -15,20 -51,-53 -64,-15 -51,-22 -57,20 -12,38 -38,-6 6,-97 19,-226 39,2 149,-30 46,3Z"/>
    <path data-fips-int="39003" data-name="Allen County" d="M708,1368l-2,146 -146,0 0,-12 -74,0 2,-24 -113,0 1,-112 38,2 0,-37 148,0 1,-38 72,2 0,-12 74,2Z"/>
    <path data-fips-int="39005" data-name="Ashland County" d="M1797,1168l0,60 27,0 3,82 0,189 -60,0 2,87 -75,11 -3,-146 -25,0 0,-52 -27,-31 2,-140 -10,0 -3,-61 64,0Z"/>
    <path data-fips-int="39007" data-name="Ashtabula County" d="M2838,784l-92,3 -213,2 -4,-180 -1,-116 65,-17 235,-96Z"/>
    <path data-fips-int="39009" data-name="Athens County" d="M2018,2527l-6,112 25,13 -1,23 63,3 -2,44 -21,31 -210,-8 -124,-8 6,-75 -25,-3 5,-75 6,-74 74,5 4,-76 72,3 -4,78Z"/>
    <path data-fips-int="39011" data-name="Auglaize County" d="M706,1514l-1,92 -74,1 -5,45 -216,-3 -2,86 -61,0 -3,20 -11,-3 3,-276 39,2 113,0 -2,24 74,0 0,12Z"/>
    <path data-fips-int="39013" data-name="Belmont County" d="M2632,1920l114,-2 0,49 -21,20 9,28 -6,55 -15,23 5,33 -30,-3 8,43 -20,15 -136,-8 -132,-4 0,-69 3,-185Z"/>
    <path data-fips-int="39015" data-name="Brown County" d="M699,2695l-7,191 131,2 -19,226 -6,97 -43,-15 -11,-37 -36,-20 -10,-28 -86,-27 -41,10 14,-134 34,-272Z"/>
    <path data-fips-int="39017" data-name="Butler County" d="M376,2401l0,38 23,-3 -17,216 -182,-22 -7,7 -116,-2 8,-221 219,3 0,-18Z"/>
    <path data-fips-int="39019" data-name="Carroll County" d="M2491,1443l109,-2 1,71 35,0 0,34 0,40 -36,0 0,75 -13,36 -208,-5 1,-110 -36,-1 1,-72 49,0 1,-61Z"/>
    <path data-fips-int="39021" data-name="Champaign County" d="M912,1868l37,5 -7,95 -9,87 -335,-30 11,-122 6,-74 148,13 -1,11Z"/>
    <path data-fips-int="39023" data-name="Clark County" d="M933,2055l-48,203 -38,-4 -118,-23 1,-22 -75,-5 3,-13 -74,-7 3,-24 11,-135Z"/>
    <path data-fips-int="39025" data-name="Clermont County" d="M571,3094l-1,0 -25,-1 -74,-25 -18,-30 0,-48 -39,-64 -15,-46 15,-128 17,-24 -30,-18 41,-38 166,15 11,1 -34,272Z"/>
    <path data-fips-int="39027" data-name="Clinton County" d="M830,2441l60,6 -11,140 -122,91 -16,32 -23,5 -19,-20 -80,-7 -11,-1 22,-265Z"/>
    <path data-fips-int="39029" data-name="Columbiana County" d="M2849,1290l7,221 -36,20 -28,-4 -32,32 -50,2 -1,-12 -73,-3 0,-34 -35,0 -1,-71 -109,2 -2,-148 121,-2 0,-23 46,0 2,23Z"/>
    <path data-fips-int="39031" data-name="Coshocton County" d="M2096,1687l0,63 61,0 -3,125 -29,-2 -1,62 -29,-2 -304,-10 3,-60 -9,0 6,-183Z"/>
    <path data-fips-int="39033" data-name="Crawford County" d="M1379,1225l67,1 -4,240 -83,-2 0,7 -161,2 0,-247Z"/>
    <path data-fips-int="39035" data-name="Cuyahoga County" d="M2287,736l2,186 -129,0 21,62 -77,1 -122,2 0,-63 -60,0 1,-132 68,20 33,-11 44,6 29,-23 59,-38 39,-44 30,-18 0,52Z"/>
    <path data-fips-int="39037" data-name="Darke County" d="M344,1888l0,233 -39,2 -210,-3 14,-368 235,3Z"/>
    <path data-fips-int="39039" data-name="Defiance County" d="M491,1073l-73,-1 0,-37 -74,-2 3,-36 -220,-5 3,-148 292,6 73,2Z"/>
    <path data-fips-int="39041" data-name="Delaware County" d="M1255,1697l-1,15 62,3 -4,49 120,5 -4,63 -7,128 -263,-17 -2,-85 -49,0 2,-169Z"/>
    <path data-fips-int="39045" data-name="Fairfield County" d="M1407,2116l200,12 7,-3 -5,78 48,3 -5,75 25,2 -6,73 -75,-4 -3,49 -79,-5 -1,38 -73,-5 0,12 -72,-5 12,-198 14,-24Z"/>
    <path data-fips-int="39047" data-name="Fayette County" d="M1102,2321l-10,151 -70,117 -143,-2 11,-140 -60,-6 13,-140 104,10Z"/>
    <path data-fips-int="39049" data-name="Franklin County" d="M1421,1960l-7,121 -7,35 -13,98 -14,24 -271,-15 -6,-88 18,-14 -14,-26 -5,-72 28,0 4,-50 24,0 0,-30Z"/>
    <path data-fips-int="39051" data-name="Fulton County" d="M713,804l-289,-2 0,-23 -25,-2 2,-88 -11,0 0,-73 328,-7Z"/>
    <path data-fips-int="39053" data-name="Gallia County" d="M1707,2885l-1,11 150,9 -1,35 -31,58 2,46 -50,42 25,63 -4,30 12,40 -12,32 -42,-5 -22,15 -49,-2 4,-78 -78,-4 4,-49 -11,-27 -65,-5 4,-58 1,-5 78,5 13,-158Z"/>
    <path data-fips-int="39055" data-name="Geauga County" d="M2533,789l1,130 -245,3 -2,-186 60,-4 0,-58 122,-2 -1,-61 61,-2Z"/>
    <path data-fips-int="39057" data-name="Greene County" d="M847,2254l-4,47 -13,140 -200,-19 -89,-8 18,-220 25,-10 74,7 -3,13 75,5 -1,22Z"/>
    <path data-fips-int="39059" data-name="Guernsey County" d="M2408,2100l-98,1 -1,25 -49,-1 0,25 -74,-2 -1,50 -74,-4 2,-73 -24,-1 6,-187 29,2 1,-62 29,2 184,3 -1,35 74,2Z"/>
    <path data-fips-int="39061" data-name="Hamilton County" d="M382,2652l58,5 2,15 -41,38 30,18 -17,24 -15,128 -73,-35 -9,-47 -44,19 -25,-5 -46,21 -43,-25 -25,-35 -21,-3 -40,32 4,-167 116,2 7,-7Z"/>
    <path data-fips-int="39063" data-name="Hancock County" d="M1003,1080l0,146 -24,0 -14,74 -23,0 -2,73 -232,-5 1,-83 0,-210Z"/>
    <path data-fips-int="39065" data-name="Hardin County" d="M940,1373l13,0 -2,98 49,12 0,154 -65,0 -34,-8 -181,-17 -15,-6 1,-92 2,-146Z"/>
    <path data-fips-int="39067" data-name="Harrison County" d="M2587,1697l49,0 -4,223 -221,-5 -74,-2 1,-35 0,-76 39,0 2,-110Z"/>
    <path data-fips-int="39069" data-name="Henry County" d="M713,804l0,63 -4,208 -218,-2 4,-221 -73,-2 2,-48Z"/>
    <path data-fips-int="39071" data-name="Highland County" d="M1022,2589l-13,93 32,28 -7,28 -23,122 -149,30 -39,-2 -131,-2 7,-191 19,20 23,-5 16,-32 122,-91Z"/>
    <path data-fips-int="39073" data-name="Hocking County" d="M1671,2356l-3,50 77,5 -1,23 68,5 -4,76 -74,-5 -6,74 -147,-9 -2,20 -76,-3 0,12 -74,-7 6,-83 5,-73 0,-12 73,5 1,-38 79,5 3,-49Z"/>
    <path data-fips-int="39075" data-name="Holmes County" d="M2132,1498l1,28 -8,5 -3,156 -26,0 -305,-7 3,-99 -25,5 -2,-87 60,0 183,0Z"/>
    <path data-fips-int="39077" data-name="Huron County" d="M1688,982l4,185 -64,0 3,61 -185,-2 -67,-1 -8,-218 0,-30 82,3Z"/>
    <path data-fips-int="39079" data-name="Jackson County" d="M1634,2880l-13,158 -78,-5 -1,5 -49,-2 -72,-5 4,-76 -35,-2 14,-186 14,-34 75,4 -1,13 75,5 -2,30 76,8Z"/>
    <path data-fips-int="39081" data-name="Jefferson County" d="M2760,1559l52,90 -12,63 12,67 -12,48 -26,25 -6,33 -22,33 -114,2 4,-223 -49,0 13,-36 0,-75 36,0 0,-40 73,3 1,12Z"/>
    <path data-fips-int="39083" data-name="Knox County" d="M1791,1680l-6,183 -181,-5 0,-16 -176,-10 4,-63 62,5 10,-148 6,-24 184,-5 75,-11 25,-5Z"/>
    <path data-fips-int="39085" data-name="Lake County" d="M2529,609l-61,2 1,61 -122,2 0,58 -60,4 -62,0 0,-52 31,-38 96,-73 36,-5 48,-32 92,-43Z"/>
    <path data-fips-int="39087" data-name="Lawrence County" d="M1542,3038l-4,58 65,5 11,27 -4,49 78,4 -4,78 49,2 -20,108 -15,13 -50,3 -80,27 -29,-3 -21,-55 -26,-17 -50,-56 -59,-10 50,-25 -17,-37 2,-30 37,2 7,-58 23,-4 8,-83Z"/>
    <path data-fips-int="39089" data-name="Licking County" d="M1785,1863l9,0 -3,60 -6,182 -22,1 -1,32 -120,-7 -28,-6 -7,3 -200,-12 7,-35 7,-121 7,-128 176,10 0,16Z"/>
    <path data-fips-int="39091" data-name="Logan County" d="M935,1637l-23,231 -150,-15 1,-11 -148,-13 8,-34 3,-143 5,-45 74,-1 15,6 181,17Z"/>
    <path data-fips-int="39093" data-name="Lorain County" d="M1923,792l-1,132 60,0 0,63 -60,2 0,63 -63,0 -1,53 -60,0 -1,63 -105,-1 -4,-185 -4,-120 58,-7 52,-33 93,-35Z"/>
    <path data-fips-int="39095" data-name="Lucas County" d="M1166,696l-156,1 -95,0 -29,40 -53,27 -11,38 -26,25 -63,40 -20,0 0,-63 5,-195 250,-6 -1,1 -2,0 2,0 3,-1 7,-2 4,0 5,0 -15,25 79,15 14,-15 61,55Z"/>
    <path data-fips-int="39097" data-name="Madison County" d="M1134,1973l-4,50 -28,0 5,72 14,26 -18,14 6,88 -7,98 -155,-10 -104,-10 4,-47 38,4 48,-203 9,-87Z"/>
    <path data-fips-int="39099" data-name="Mahoning County" d="M2845,1093l4,197 -191,3 -2,-23 -46,0 0,23 -121,2 -2,-72 54,0 -1,-125Z"/>
    <path data-fips-int="39101" data-name="Marion County" d="M1359,1471l-2,50 -62,0 0,128 -37,8 -3,40 -146,-8 0,-52 -109,0 0,-154 74,0 0,-10 124,0Z"/>
    <path data-fips-int="39103" data-name="Medina County" d="M2104,985l0,243 -280,0 -27,0 0,-60 1,-63 60,0 1,-53 63,0 0,-63 60,-2Z"/>
    <path data-fips-int="39105" data-name="Meigs County" d="M1855,2940l1,-35 -150,-9 1,-11 10,-150 25,2 124,8 210,8 13,59 -8,19 -39,7 33,57 -11,46 10,30 -31,-18 -46,60 -32,-17 21,-30 -25,-53 -25,0 -18,-32 -24,5 -8,25Z"/>
    <path data-fips-int="39107" data-name="Mercer County" d="M336,1476l-3,276 11,3 -235,-3 8,-318 220,5Z"/>
    <path data-fips-int="39109" data-name="Miami County" d="M609,1903l-11,122 -11,135 -69,-5 -1,-32 -173,-2 0,-233 138,0 7,5Z"/>
    <path data-fips-int="39111" data-name="Monroe County" d="M2676,2181l-6,47 -21,30 23,36 -21,24 -5,51 -41,12 -64,63 0,-27 -149,-1 -11,-25 0,-85 -25,0 2,-137 50,0 132,4Z"/>
    <path data-fips-int="39113" data-name="Montgomery County" d="M587,2160l-3,24 -25,10 -18,220 -103,-12 -62,-1 -72,-2 1,-276 39,-2 173,2 1,32Z"/>
    <path data-fips-int="39115" data-name="Morgan County" d="M2110,2268l37,3 -1,73 38,0 0,65 -83,5 5,86 -76,-9 -12,36 -138,-7 4,-78 6,2 8,-148 -36,-2 3,-36Z"/>
    <path data-fips-int="39117" data-name="Morrow County" d="M1442,1466l65,2 3,134 -6,24 -10,148 -62,-5 -120,-5 4,-49 -62,-3 1,-15 3,-40 37,-8 0,-128 62,0 2,-50 0,-7Z"/>
    <path data-fips-int="39119" data-name="Muskingum County" d="M2095,1933l-6,187 24,1 -2,73 -1,74 -245,-10 1,-39 -62,-3 4,-75 -46,-3 1,-32 22,-1 6,-182Z"/>
    <path data-fips-int="39121" data-name="Noble County" d="M2408,2100l0,69 -50,0 -2,137 25,0 0,85 0,11 -72,-6 -13,-25 -39,-12 0,53 -73,-3 0,-65 -38,0 1,-73 -37,-3 1,-74 74,4 1,-50 74,2 0,-25 49,1 1,-25Z"/>
    <path data-fips-int="39125" data-name="Paulding County" d="M418,1072l-4,148 -35,0 -259,-5 7,-223 220,5 -3,36 74,2Z"/>
    <path data-fips-int="39127" data-name="Perry County" d="M1762,2138l46,3 -4,75 62,3 -1,39 -3,36 36,2 -8,148 -6,-2 -72,-3 -68,-5 1,-23 -77,-5 3,-50 6,-73 -25,-2 5,-75 -48,-3 5,-78 28,6Z"/>
    <path data-fips-int="39129" data-name="Pickaway County" d="M1380,2238l-12,198 72,5 -5,73 -169,-10 -4,-23 -170,-9 10,-151 7,-98Z"/>
    <path data-fips-int="39131" data-name="Pike County" d="M1390,2953l-132,-10 -135,-2 0,-28 -37,-18 -29,-32 -46,-3 23,-122 370,29Z"/>
    <path data-fips-int="39133" data-name="Portage County" d="M2534,919l6,179 1,125 -54,0 -195,3 -3,-304Z"/>
    <path data-fips-int="39135" data-name="Preble County" d="M305,2123l-1,276 0,18 -219,-3 10,-294Z"/>
    <path data-fips-int="39137" data-name="Putnam County" d="M709,1285l-74,-2 0,12 -72,-2 -1,38 -148,0 0,-38 -35,0 0,-73 35,0 4,-148 73,1 218,2Z"/>
    <path data-fips-int="39139" data-name="Richland County" d="M1631,1228l10,0 -2,140 27,31 0,52 25,0 3,146 -184,5 -3,-134 -65,-2 4,-240Z"/>
    <path data-fips-int="39141" data-name="Ross County" d="M1435,2514l-6,83 -11,136 -14,34 -370,-29 7,-28 -32,-28 13,-93 70,-117 170,9 4,23Z"/>
    <path data-fips-int="39145" data-name="Scioto County" d="M1086,2895l37,18 0,28 135,2 132,10 35,2 -4,76 72,5 -8,83 -23,4 -7,58 -37,-2 -2,30 17,37 -50,25 -19,-19 -21,-78 -7,-58 -59,25 -26,-3 -24,28 -42,25 -27,38 -51,-7 -21,7Z"/>
    <path data-fips-int="39147" data-name="Seneca County" d="M1371,1007l8,218 -181,1 -195,0 0,-146 1,-75 322,0Z"/>
    <path data-fips-int="39149" data-name="Shelby County" d="M626,1652l-3,143 -8,34 -6,74 -120,-10 -7,-5 -138,0 0,-133 3,-20 61,0 2,-86Z"/>
    <path data-fips-int="39151" data-name="Stark County" d="M2487,1223l2,72 2,148 -96,5 -1,61 -49,0 -99,0 -113,17 -1,-28 -1,-207 146,2 1,-67 14,0Z"/>
    <path data-fips-int="39153" data-name="Summit County" d="M2289,922l3,304 -14,0 -1,67 -146,-2 0,-63 -27,0 0,-243 77,-1 -21,-62Z"/>
    <path data-fips-int="39155" data-name="Trumbull County" d="M2838,784l7,309 -305,5 -6,-179 -1,-130 213,-2Z"/>
    <path data-fips-int="39157" data-name="Tuscarawas County" d="M2345,1509l-1,72 36,1 -1,110 -2,110 -39,0 0,76 -184,-3 3,-125 -61,0 0,-63 26,0 3,-156 8,-5 113,-17Z"/>
    <path data-fips-int="39159" data-name="Union County" d="M1158,1943l0,30 -24,0 -192,-5 7,-95 -37,-5 23,-231 65,0 109,0 0,52 -2,169 49,0Z"/>
    <path data-fips-int="39161" data-name="Van Wert County" d="M414,1331l0,37 -38,-2 -1,112 -39,-2 1,-37 -220,-5 3,-219 259,5 0,73 35,0Z"/>
    <path data-fips-int="39163" data-name="Vinton County" d="M1728,2584l-5,75 25,3 -6,75 -25,-2 -10,150 -73,-5 7,-87 -76,-8 2,-30 -75,-5 1,-13 -75,-4 11,-136 74,7 0,-12 76,3 2,-20Z"/>
    <path data-fips-int="39165" data-name="Warren County" d="M541,2414l89,8 -22,265 -166,-15 -2,-15 -58,-5 17,-216 -23,3 0,-38 62,1Z"/>
    <path data-fips-int="39167" data-name="Washington County" d="M2381,2391l11,25 149,1 0,27 -37,42 -17,33 -39,18 -21,38 -22,-1 -60,38 -25,3 -17,-38 -34,-17 -64,64 -7,56 -59,-8 -22,16 3,29 -23,5 2,-44 -63,-3 1,-23 -25,-13 6,-112 12,-36 76,9 -5,-86 83,-5 73,3 0,-53 39,12 13,25 72,6Z"/>
    <path data-fips-int="39169" data-name="Wayne County" d="M2104,1228l27,0 0,63 1,207 -122,1 -183,0 0,-189 -3,-82Z"/>
    <path data-fips-int="39171" data-name="Williams County" d="M424,802l-2,48 -292,-6 4,-225 256,-3 0,73 11,0 -2,88 25,2Z"/>
    <path data-fips-int="39173" data-name="Wood County" d="M1010,797l-6,208 -1,75 -294,-5 4,-208 20,0 63,-40 26,-25 11,-38 53,-27 29,-40 95,0Z"/>
    <path data-fips-int="39175" data-name="Wyandot County" d="M1198,1226l0,247 -124,0 0,10 -74,0 -49,-12 2,-98 -13,0 2,-73 23,0 14,-74 24,0Z"/>
    <path data-fips-int="39043" data-name="Erie County" d="M1557,885l43,14 74,-39 10,2 4,120 -235,-2 -82,-3 -3,-118 -34,0 16,-9 30,-16 21,-2 39,8 25,-1 53,28 -35,-35 50,43Z"/>
    <path data-fips-int="39123" data-name="Ottawa County" d="M1166,696l1,0 60,18 28,38 56,35 37,-10 16,-30 22,-6 -6,11 -7,7 4,0 6,-7 4,-5 -1,-6 1,5 21,20 -1,1 4,2 -3,-2 0,-1 40,-2 -8,27 -65,11 -74,9 -13,16 -41,8 -12,0 -1,0 -1,0 -2,0 -174,-1 0,-37 -47,0 0,-100Z"/>
    <path data-fips-int="39143" data-name="Sandusky County" d="M1231,835l2,0 1,0 0,7 3,-2 32,12 17,-13 20,28 28,-8 34,0 3,118 0,30 -45,-2 -322,0 6,-208 47,0 0,37Z"/>
  </g>
  <g class="cities">
    <circle r="3" cx="126.8" cy="209.8"/>
    <text x="126.8" y="209.8">Columbus</text>
    <circle r="3" cx="209.6" cy="79.8"/>
    <text x="209.6" y="79.8">Cleveland</text>
    <circle r="3" cx="26.4" cy="280.0"/>
    <text x="26.4" y="280.0">Cincinnati</text>
  </g>
</svg>