<?xml version="1.0" encoding="utf-8"?>
<!DOCTYPE svg PUBLIC "-//W3C//DTD SVG 1.1//EN" "http://www.w3.org/Graphics/SVG/1.1/DTD/svg11.dtd">
<svg version="1.1" xmlns="http://www.w3.org/2000/svg" width="322" height="350" viewBox="0 0 322 350">
  <path class="state" transform="scale(0.1)" d="M1195,3212l-17,19 -21,-10 -8,-29 -28,-18 -58,-10 -47,-30 -69,15 -27,48 -41,-6 -45,-14 -15,-43 -35,-13 -25,-47 -73,-23 -58,13 -115,-33 -13,-28 1,-47 -44,-76 -18,-50 -11,-12 -66,-20 -7,-53 -23,-10 -22,23 -35,-5 -53,24 -45,-29 -26,-36 -21,-5 -24,30 -23,6 3,-184 10,-243 5,-236 6,-87v-41l12,-290 2,-71 11,-348 4,-241 6,-245 3,-159 5,-252 279,-1 361,-9 284,-8 -4,33 33,-13 -1,20 45,5 22,-20 69,62 44,15h1l51,15 46,51 41,32 -78,11 37,4 94,-17 23,-23 -1,-28 27,8 5,31 46,-11 24,10 -15,23 -84,10 -19,12h-50l-29,26 -31,2h-12h-3l23,2 12,23 17,-20 29,28 29,-8 32,-10 32,-28 32,25 45,-19 9,10 127,67 44,-12 64,-30 58,-5 92,-50 79,-28 34,8 75,20 35,-11 55,3 104,-78 32,-37 29,-16 33,-44 107,-79 39,-5 53,-35 101,-49 70,-16 81,-37 104,-35 75,-33 10,442 10,338 4,216 6,243 -42,23 -28,-5 -34,35 31,44 24,58 -22,78 16,13 6,47 -12,55 -23,16 -9,39 -26,45 -1,53 -23,21 9,32 -5,58 -17,27 7,35 -32,-3 6,48 -23,16 3,34 -32,51 27,47 -24,16 -14,67h-29l-79,73 -42,47 -24,45 -32,8 -26,45 -25,-2 -71,43 -23,2 -31,-56 -30,1 -62,57 -10,68 -64,-7 -25,19 3,30 -24,8 -23,33 14,63 -17,29h-35l4,25 32,43 -12,46 17,19 -20,13 -21,-20 -20,13 -5,27 -32,27 -27,-20 23,-32 -28,-57 -30,-1 -17,-34 -26,5 -11,29 -32,30 -34,63 2,51 -51,35 25,85 -6,25 14,45 -14,37 -58,-4 -12,14 -22,118 -17,15 -50,1 -93,32 -41,-15 -14,-50 -28,-17 -35,-51 -24,-12 -60,-10 -21,-20 -25,-84 6,-42 -12,-23 -59,25 -36,-2 -22,30 -49,26 -28,45 -56,-8Z"/>
  <g class="counties" transform="scale(0.1)">
    <path data-fips-int="39001" data-name="Adams County" d="M1195,2845v367l-17,19 -21,-10 -8,-29 -28,-18 -58,-10 -47,-30 -69,15 -27,48 -41,-6 1,-50 26,-305 43,2 163,-31 51,1Z"/>
    <path data-fips-int="39003" data-name="Allen County" d="M778,1170l-3,161 -158,-1v-12h-81v-28h-120l1,-122h40v-40l162,2 1,-40h78v-13h83Z"/>
    <path data-fips-int="39005" data-name="Ashland County" d="M1974,950v65h30l3,92v206l-65,2 1,93 -82,13 -3,-160h-28v-56l-26,-35 -1,-155h-11l-3,-66h70Z"/>
    <path data-fips-int="39007" data-name="Ashtabula County" d="M3116,529l-334,5 -5,-198 -1,-128 70,-16 81,-37 104,-35 75,-33Z"/>
    <path data-fips-int="39009" data-name="Athens County" d="M2215,2441l-4,123 27,11 -1,29 68,1 -1,52 -23,33 -286,-13 -81,-7 6,-81 -27,-2 6,-83 6,-82 81,5 5,-83 79,5 -5,83Z"/>
    <path data-fips-int="39011" data-name="Auglaize County" d="M775,1331v100h-80l-6,50 -237,-3 -1,94h-67l-3,22 -13,-3 3,-303 45,2h120v28h81v12Z"/>
    <path data-fips-int="39013" data-name="Belmont County" d="M2890,1774h127l-1,53 -23,21 9,32 -5,58 -17,27 7,35 -32,-3 6,48 -23,16 -138,-8 -156,-5v-76l3,-203Z"/>
    <path data-fips-int="39015" data-name="Brown County" d="M770,2625l-8,210 144,1 -26,305 -1,50 -45,-14 -15,-43 -35,-13 -25,-47 -73,-23 -58,13 52,-445Z"/>
    <path data-fips-int="39017" data-name="Butler County" d="M417,2303v43l22,-5 -17,236 -32,-5 -159,-15 -15,5 -130,-3 10,-243 240,5v-20Z"/>
    <path data-fips-int="39019" data-name="Carroll County" d="M2736,1251l119,-1v78h41v40v40h-41v81l-12,40 -232,-3 3,-122 -40,-1 2,-78h53l2,-69Z"/>
    <path data-fips-int="39021" data-name="Champaign County" d="M1004,1719l40,5 -8,105 -9,93 -118,-9 -250,-23 12,-133 6,-83 163,15 -1,13Z"/>
    <path data-fips-int="39023" data-name="Clark County" d="M1027,1922l3,1 -57,223 -41,-5 -66,-8 -1,-8 -63,-9 2,-23 -83,-7 3,-13 -81,-8 3,-27 13,-148 250,23Z"/>
    <path data-fips-int="39025" data-name="Clermont County" d="M628,3064l-115,-33 -13,-28 1,-47 -44,-76 -18,-50 19,-142 17,-24 -30,-25 43,-40 180,18 12,2Z"/>
    <path data-fips-int="39027" data-name="Clinton County" d="M912,2347l67,5 -12,153 -136,102 -23,42 -38,-24 -90,-6 -12,-2 24,-291Z"/>
    <path data-fips-int="39029" data-name="Columbiana County" d="M3130,1083l6,243 -42,23 -28,-5 -34,35h-55l-1,-11h-80v-40h-41v-78l-119,1 -5,-161 135,-2v-26l52,-2 1,27Z"/>
    <path data-fips-int="39031" data-name="Coshocton County" d="M2302,1517v67l67,3 -3,138h-32l-1,65h-32l-269,-6 -64,-5 3,-65 -9,-2 6,-203 46,5Z"/>
    <path data-fips-int="39033" data-name="Crawford County" d="M1516,1012l73,1 -3,263 -93,-1v6h-176v-266h182Z"/>
    <path data-fips-int="39035" data-name="Cuyahoga County" d="M2512,475l3,206h-142l24,66 -86,2 -134,3v-70h-66l2,-143 75,20 35,-11 55,3 104,-78 32,-37 29,-16 1,55Z"/>
    <path data-fips-int="39037" data-name="Darke County" d="M381,1740v257h-43l-231,-4v-41l12,-290 2,-71 96,3h164Z"/>
    <path data-fips-int="39039" data-name="Defiance County" d="M541,845h-79v-41h-78l-3,-42 -239,-5 3,-159 321,5 80,1Z"/>
    <path data-fips-int="39041" data-name="Delaware County" d="M1380,1532v15l65,2 -1,53 130,9 -5,68 -8,140 -288,-17 -2,-97h-53l1,-183Z"/>
    <path data-fips-int="39045" data-name="Fairfield County" d="M1546,1990l220,13 8,-5 -6,87 53,5 -6,81 27,2 -6,81 -81,-6 -4,55 -87,-5 -2,39 -79,-3v13l-80,-6 14,-216 15,-27 6,-82 -12,-26Z"/>
    <path data-fips-int="39047" data-name="Fayette County" d="M1212,2216l-11,165 -77,128 -157,-4 12,-153 -67,-5 14,-154Z"/>
    <path data-fips-int="39049" data-name="Franklin County" d="M1561,1819l-15,171h-20l12,26 -6,82 -15,27 -134,-10 -164,-9 -6,-96 20,-13 -18,-35 -3,-74h30l5,-55h26v-31Z"/>
    <path data-fips-int="39051" data-name="Fulton County" d="M784,553l-316,-4v-26h-26l1,-97h-14v-81l361,-9Z"/>
    <path data-fips-int="39053" data-name="Gallia County" d="M1876,2835l-1,13 165,7 -2,40 -34,63 2,51 -51,35 25,85 -6,25 14,45 -14,37 -58,-4 -12,14 -54,-2 5,-85 -86,-6 3,-52 -11,-30 -71,-7 4,-60 2,-8 84,7 15,-175Z"/>
    <path data-fips-int="39055" data-name="Geauga County" d="M2782,534l1,142 -268,5 -3,-206h65v-67l135,-2 -2,-68 67,-2Z"/>
    <path data-fips-int="39057" data-name="Greene County" d="M932,2141l-6,52 -14,154 -220,-21 -96,-8 20,-242 27,-11 81,8 -3,13 83,7 -2,23 63,9 1,8Z"/>
    <path data-fips-int="39059" data-name="Guernsey County" d="M2644,1972l-107,1v27h-54v26l-81,-1 -2,55 -81,-4 2,-81h-26l6,-205h32l1,-65h32l202,4 -1,40h80Z"/>
    <path data-fips-int="39061" data-name="Hamilton County" d="M422,2577l64,7 2,15 -43,40 30,25 -17,24 -19,142 -11,-12 -66,-20 -7,-53 -23,-10 -22,23 -35,-5 -53,24 -45,-29 -26,-36 -21,-5 -24,30 -23,6 3,-184 130,3 15,-5 159,15Z"/>
    <path data-fips-int="39063" data-name="Hancock County" d="M1103,852v163h-27v40h-14v40h-26l-2,80 -256,-5 3,-93v-228Z"/>
    <path data-fips-int="39065" data-name="Hardin County" d="M1034,1175h14l-1,106h39l14,15v167l-72,3 -35,-12 -215,-16 -3,-7v-100l3,-161Z"/>
    <path data-fips-int="39067" data-name="Harrison County" d="M2843,1529l53,2 -6,243 -243,-5h-80l1,-40v-83h41l2,-120Z"/>
    <path data-fips-int="39069" data-name="Henry County" d="M784,553v66l-3,230 -240,-4 5,-241 -80,-1 2,-54Z"/>
    <path data-fips-int="39071" data-name="Highland County" d="M1124,2509l-10,48 6,35 -12,13 21,30 12,-11 -4,51 -25,132 -163,31 -43,-2 -144,-1 8,-210 38,24 23,-42 136,-102Z"/>
    <path data-fips-int="39073" data-name="Hocking County" d="M1836,2254l-3,54 84,5 -1,26 75,5 -5,83 -81,-5 -6,82 -162,-10 -1,25 -84,-7v13l-81,-6 4,-92 8,-80v-13l79,3 2,-39 87,5 4,-55Z"/>
    <path data-fips-int="39075" data-name="Holmes County" d="M2342,1313l1,30 -10,21 -2,153h-29l-288,-3 -46,-5 3,-106 -28,5 -1,-93 65,-2Z"/>
    <path data-fips-int="39077" data-name="Huron County" d="M1855,746l4,203h-70l3,66 -203,-2 -73,-1 -8,-240v-31l92,1Z"/>
    <path data-fips-int="39079" data-name="Jackson County" d="M1795,2828l-15,175 -84,-7 -2,8 -53,-5 -80,-4 3,-84 -36,-3 15,-205 14,2 1,-38 83,6 -2,12 83,8 -2,34 83,3Z"/>
    <path data-fips-int="39081" data-name="Jefferson County" d="M3032,1379l31,44 24,58 -22,78 16,13 6,47 -12,55 -23,16 -9,39 -26,45h-127l6,-243 -53,-2 12,-40v-81h41v-40h80l1,11Z"/>
    <path data-fips-int="39083" data-name="Knox County" d="M1968,1509l-6,203h-120l-79,-7v-16l-194,-10 5,-68 68,5 10,-165 7,-25 176,-3 26,-2 82,-13 28,-5Z"/>
    <path data-fips-int="39085" data-name="Lake County" d="M2777,336l-67,2 2,68 -135,2v67h-65h-68l-1,-55 33,-44 107,-79 39,-5 53,-35 101,-49Z"/>
    <path data-fips-int="39087" data-name="Lawrence County" d="M1694,3004l-4,60 71,7 11,30 -3,52 86,6 -5,85 54,2 -22,118 -17,15 -50,1 -93,32 -41,-15 -14,-50 -28,-17 -35,-51 -24,-12 -60,-10 55,-25 -18,-43 1,-35 42,4 6,-64 24,-3 11,-92Z"/>
    <path data-fips-int="39089" data-name="Licking County" d="M1962,1712l9,2 -3,65 -8,201h-23l-1,35 -132,-9 -30,-8 -8,5 -220,-13 15,-171 8,-140 194,10v16l79,7Z"/>
    <path data-fips-int="39091" data-name="Logan County" d="M1028,1466l-24,253 -165,-17 1,-13 -163,-15 9,-37 3,-156 6,-50h80l3,7 215,16Z"/>
    <path data-fips-int="39093" data-name="Lorain County" d="M2113,539l-2,143h66v70h-66v70h-68l-2,60h-66l-1,68 -115,-1 -4,-203 -5,-132 58,-5 92,-50 79,-28Z"/>
    <path data-fips-int="39095" data-name="Lucas County" d="M1282,430h1h-1l-171,5h-107l-29,43 -58,28 -12,43 -46,27 -22,25 -53,18v-66l6,-217 284,-8 -4,33 33,-13 -1,20 45,5 22,-20 69,62Z"/>
    <path data-fips-int="39097" data-name="Madison County" d="M1247,1833l-5,55h-30l3,74 18,35 -20,13 6,96 -7,110 -286,-23 6,-52 41,5 57,-223 -3,-1 9,-93Z"/>
    <path data-fips-int="39099" data-name="Mahoning County" d="M3126,867l4,216 -211,4 -1,-27 -52,2v26l-135,2v-80h59v-138Z"/>
    <path data-fips-int="39101" data-name="Marion County" d="M1493,1281v55l-69,2v143l-41,5 -3,46 -161,-10v-59h-119v-167l81,2v-17h136Z"/>
    <path data-fips-int="39103" data-name="Medina County" d="M2311,749v268l-307,-2h-30v-65l1,-68h66l2,-60h68v-70h66Z"/>
    <path data-fips-int="39105" data-name="Meigs County" d="M2038,2895l2,-40 -165,-7 1,-13 11,-165h27l81,7 286,13 14,63 -17,29h-35l4,25 32,43 -12,46 17,19 -20,13 -21,-20 -20,13 -5,27 -32,27 -27,-20 23,-32 -28,-57 -30,-1 -17,-34 -26,5 -11,29Z"/>
    <path data-fips-int="39107" data-name="Mercer County" d="M371,1288l-3,303 13,3h-164l-96,-3 11,-348 242,5Z"/>
    <path data-fips-int="39109" data-name="Miami County" d="M671,1757l-12,133 -13,148 -76,-7 -6,-34h-183v-257h151Z"/>
    <path data-fips-int="39111" data-name="Monroe County" d="M2938,2061l3,34 -32,51 27,47 -24,16 -14,67h-29l-79,73v-30h-164l-11,-26v-95h-27l1,-150h55l156,5Z"/>
    <path data-fips-int="39113" data-name="Montgomery County" d="M646,2038l-3,27 -27,11 -20,242 -122,-14 -57,-1 -81,-2 2,-304h43h183l6,34Z"/>
    <path data-fips-int="39115" data-name="Morgan County" d="M2318,2158l41,2 -2,79 41,2 -1,72 -70,-4 -20,10 6,93 -83,-11 -1,41 -14,-1 -150,-9 5,-83h6l9,-161 -39,-2 3,-41Z"/>
    <path data-fips-int="39117" data-name="Morrow County" d="M1586,1276l70,2 3,148 -7,25 -10,165 -68,-5 -130,-9 1,-53 -65,-2v-15l3,-46 41,-5v-143l69,-2v-55v-6Z"/>
    <path data-fips-int="39119" data-name="Muskingum County" d="M2301,1790l-6,205h26l-2,81 -1,82 -269,-13 1,-42 -69,-3 5,-82 -50,-3 1,-35h23l8,-201 64,5Z"/>
    <path data-fips-int="39121" data-name="Noble County" d="M2644,1972v76h-55l-1,150h27v95v11l-79,-6 -14,-27 -43,-15v58l-82,-1 1,-72 -41,-2 2,-79 -41,-2 1,-82 81,4 2,-55 81,1v-26h54v-27Z"/>
    <path data-fips-int="39125" data-name="Paulding County" d="M462,845l-4,162h-39l-283,-5 6,-245 239,5 3,42h78Z"/>
    <path data-fips-int="39127" data-name="Perry County" d="M1936,2015l50,3 -5,82 69,3 -1,42 -3,41 39,2 -9,161h-6l-79,-5 -75,-5 1,-26 -84,-5 3,-54 6,-81 -27,-2 6,-81 -53,-5 6,-87 30,8Z"/>
    <path data-fips-int="39129" data-name="Pickaway County" d="M1517,2125l-14,216 80,6 -8,80 -183,-11 11,-25 -202,-10 11,-165 7,-110 164,9Z"/>
    <path data-fips-int="39131" data-name="Pike County" d="M1528,2908l-133,-8 -159,-4 -2,-30 -39,-21 -32,-37 -51,-1 25,-132 406,28Z"/>
    <path data-fips-int="39133" data-name="Portage County" d="M2783,676l7,196v138h-59l-213,3 -3,-332Z"/>
    <path data-fips-int="39135" data-name="Preble County" d="M338,1997l-2,304v20l-240,-5 5,-236 6,-87Z"/>
    <path data-fips-int="39137" data-name="Putnam County" d="M781,1077h-83v13h-78l-1,40 -162,-2 1,-41h-41l2,-80h39l4,-162h79l240,4Z"/>
    <path data-fips-int="39139" data-name="Richland County" d="M1792,1015h11l1,155 26,35v56h28l3,160 -26,2 -176,3 -3,-148 -70,-2 3,-263Z"/>
    <path data-fips-int="39141" data-name="Ross County" d="M1575,2427l-4,92 -13,148 -1,38 -14,-2 -406,-28 4,-51 -12,11 -21,-30 12,-13 -6,-35 10,-48 77,-128 202,10 -11,25Z"/>
    <path data-fips-int="39145" data-name="Scioto County" d="M1528,2908l36,3 -3,84 80,4 -11,92 -24,3 -6,64 -42,-4 -1,35 18,43 -55,25 -21,-20 -25,-84 6,-42 -12,-23 -59,25 -36,-2 -22,30 -49,26 -28,45 -56,-8 -23,8v-367l39,21 2,30 159,4Z"/>
    <path data-fips-int="39147" data-name="Seneca County" d="M1508,772l8,240 -17,3h-182h-214v-163l2,-80 148,2 41,-3Z"/>
    <path data-fips-int="39149" data-name="Shelby County" d="M689,1481l-3,156 -9,37 -6,83 -139,-17h-151v-146l3,-22h67l1,-94Z"/>
    <path data-fips-int="39151" data-name="Stark County" d="M2731,1010v80l5,161 -105,5 -2,69h-53h-110l-123,18 -1,-30 -2,-228 161,5 1,-77h16Z"/>
    <path data-fips-int="39153" data-name="Summit County" d="M2515,681l3,332h-16l-1,77 -161,-5v-70l-29,2v-268l86,-2 -24,-66Z"/>
    <path data-fips-int="39155" data-name="Trumbull County" d="M3116,529l10,338 -336,5 -7,-196 -1,-142Z"/>
    <path data-fips-int="39157" data-name="Tuscarawas County" d="M2576,1325l-2,78 40,1 -3,122 -2,120h-41v83l-202,-4 3,-138 -67,-3v-67h29l2,-153 10,-21 123,-18Z"/>
    <path data-fips-int="39159" data-name="Union County" d="M1273,1802v31h-26l-211,-4 8,-105 -40,-5 24,-253 72,-3h119v59l-1,183h53Z"/>
    <path data-fips-int="39161" data-name="Van Wert County" d="M457,1128v40h-40l-1,122 -45,-2 3,-40 -242,-5 4,-241 283,5 -2,80h41Z"/>
    <path data-fips-int="39163" data-name="Vinton County" d="M1899,2504l-6,83 27,2 -6,81h-27l-11,165 -81,-7 8,-98 -83,-3 2,-34 -83,-8 2,-12 -83,-6 13,-148 81,6v-13l84,7 1,-25Z"/>
    <path data-fips-int="39165" data-name="Warren County" d="M596,2318l96,8 -24,291 -180,-18 -2,-15 -64,-7 17,-236 -22,5v-43l57,1Z"/>
    <path data-fips-int="39167" data-name="Washington County" d="M2615,2293l11,26h164v30l-42,47 -24,45 -32,8 -26,45 -25,-2 -71,43 -23,2 -31,-56 -30,1 -62,57 -10,68 -64,-7 -25,19 3,30 -24,8 1,-52 -68,-1 1,-29 -27,-11 4,-123 14,1 1,-41 83,11 -6,-93 20,-10 70,4 82,1v-58l43,15 14,27 79,6Z"/>
    <path data-fips-int="39169" data-name="Wayne County" d="M2311,1017l29,-2v70l2,228h-335v-206l-3,-92Z"/>
    <path data-fips-int="39171" data-name="Williams County" d="M468,549l-2,54 -321,-5 5,-252 279,-1v81h14l-1,97h26Z"/>
    <path data-fips-int="39173" data-name="Wood County" d="M1111,544l-6,228 -2,80 -322,-3 3,-230 53,-18 22,-25 46,-27 12,-43 58,-28 29,-43h107Z"/>
    <path data-fips-int="39175" data-name="Wyandot County" d="M1317,1015v266h-136v17l-81,-2 -14,-15h-39l1,-106h-14l2,-80h26v-40h14v-40h27Z"/>
    <path data-fips-int="39043" data-name="Erie County" d="M1850,614l5,132 -255,-4 -92,-1 -5,-130h-38l32,-10 32,-28 32,25 45,-19 9,10 127,67 44,-12Z"/>
    <path data-fips-int="39123" data-name="Ottawa County" d="M1282,430h1l51,15 46,51 41,32 -78,11 37,4 94,-17 23,-23 -1,-28 27,8 5,31 46,-11 24,10 -15,23 -84,10 -19,12h-50l-29,26 -31,2h-12h-3l-192,-2v-40h-52v-109Z"/>
    <path data-fips-int="39143" data-name="Sandusky County" d="M1355,586l23,2 12,23 17,-20 29,28 29,-8h38l5,130v31l-214,-1 -41,3 -148,-2 6,-228h52v40Z"/>
  </g>
  <path class="mesh" transform="scale(0.1)" d="M781,1077v-228l322,3v163h-27v40h-14v40h-26l-2,80 -256,-5 -3,161 -158,-1v-12h-81v-28h-120l1,-122h40v-40l162,2 1,-40h78v-13h83l-3,93M2177,752h-66v70h-68l-2,60h-66l-1,68v65h30l3,92v206l-65,2 1,93 -82,13 -3,-160h-28v-56l-26,-35 -1,-155h-11l-3,-66h70l115,1M3116,529l-334,5 -5,-198 -1,-128M2281,2690l-286,-13 -81,-7 6,-81 -27,-2 6,-83 6,-82 81,5 5,-83 79,5 -5,83 150,9 -4,123 27,11 -1,29 68,1 -1,52M775,1331v100h-80l-6,50 -237,-3 -1,94h-67l-3,22 -13,-3 3,-303 45,2M2938,2061l-138,-8 -156,-5v-76l3,-203 243,5h127M96,2316l240,5v-20l81,2v43l22,-5 -17,236 -32,-5 -159,-15 -15,5 -130,-3M1028,1466l-24,253 40,5 -8,105 -9,93 -118,-9 -250,-23 12,-133 6,-83 163,15 -1,13 165,17M1027,1922l3,1 -57,223 -41,-5 -66,-8 -1,-8 -63,-9 2,-23 -83,-7 3,-13 -81,-8 3,-27 13,-148M439,2830l19,-142 17,-24 -30,-25 43,-40 180,18 12,2M668,2617l24,-291 220,21 67,5 -12,153 -136,102 -23,42 -38,-24M3032,1379h-55l-1,-11h-80M2736,1251l119,-1v78h41v40v40h-41v81l-12,40 -232,-3 3,-122 -40,-1 2,-78h53l2,-69 105,-5 -5,-161 135,-2v-26l52,-2 1,27 211,-4M2007,1313h335l1,30 -10,21 -2,153h-29v67l67,3 -3,138h-32l-1,65h-32l-269,-6 -64,-5 3,-65 -9,-2 6,-203 46,5 288,3M628,3064l52,-445 90,6 -8,210 144,1 43,2 163,-31 51,1 32,37v367M2443,420l1,55h68l3,206h-142l24,66 -86,2 -134,3v-70h-66l2,-143M121,1591l96,3h164v146v257h-43l-231,-4M145,598l321,5 80,1 -5,241h-79v-41h-78l-3,-42 -239,-5M1493,1281v55l-69,2v143l-41,5 -3,46v15l65,2 -1,53 130,9 -5,68 -8,140 -288,-17 -2,-97h-53l1,-183 161,10M1561,1819l-15,171 220,13 8,-5 -6,87 53,5 -6,81 27,2 -6,81 -81,-6 -4,55 -87,-5 -2,39 -79,-3v13l-80,-6 14,-216 15,-27 6,-82 -12,-26h20M912,2347l14,-154 286,23 -11,165 -77,128 -157,-4M1517,2125l-134,-10 -164,-9 -6,-96 20,-13 -18,-35 -3,-74h30l5,-55h26v-31M790,336l-6,217 -316,-4v-26h-26l1,-97h-14v-81M1904,3246l-54,-2 5,-85 -86,-6 3,-52 -11,-30 -71,-7 4,-60 2,-8 84,7 15,-175 81,7 -1,13 165,7 -2,40M2731,1010l-213,3 -3,-332M2512,475h65v-67l135,-2 -2,-68 67,-2M932,2141l-6,52M692,2326l-96,-8 20,-242 27,-11M2644,1972l-107,1v27h-54v26l-81,-1 -2,55 -81,-4 2,-81h-26l6,-205M2366,1725l202,4 -1,40h80M422,2577l64,7 2,15M1034,1175h14l-1,106h39l14,15v167l-72,3 -35,-12 -215,-16 -3,-7M2843,1529l53,2 -6,243M2568,1729v-83h41l2,-120M784,553v66l-3,230 -240,-4M466,603l2,-54M1124,2509l-10,48 6,35 -12,13 21,30 12,-11 -4,51 -25,132M1836,2254l-3,54 84,5 -1,26 75,5M1899,2504l-162,-10 -1,25 -84,-7v13l-81,-6 4,-92 8,-80M1968,1509l3,-106 -28,5M1516,1012l73,1 -3,263 -93,-1v6h-176v-266h182l17,-3 -8,-240v-31l92,1 255,4 4,203M1792,1015l-203,-2M1694,3004l-53,-5 -80,-4 3,-84 -36,-3 15,-205 14,2 1,-38 83,6 -2,12 83,8 -2,34 83,3 -8,98M1962,1712h-120l-79,-7v-16l-194,-10M1574,1611l68,5 10,-165 7,-25 176,-3 26,-2M1520,3257l55,-25 -18,-43 1,-35 42,4 6,-64 24,-3 11,-92M1968,1779l-8,201h-23l-1,35 -132,-9 -30,-8M677,1674l9,-37 3,-156M1855,746l-5,-132M1283,430h-1l-171,5h-107l-29,43 -58,28 -12,43 -46,27 -22,25 -53,18M1219,2106l-7,110M1036,1829l211,4M2731,1090v-80h59v-138l336,-5M1219,1522v-59h-119M1100,1296l81,2v-17h136M2311,749v268l-307,-2M1876,2835l11,-165h27M879,3191l1,-50 26,-305M132,1243l242,5 -3,40M646,2038l-76,-7 -6,-34h-183M381,1740h151l139,17M2790,2349v-30h-164l-11,-26v-95h-27l1,-150h55M596,2318l-122,-14 -57,-1M336,2301l2,-304M2070,2349h6l9,-161 -39,-2 3,-41 269,13 41,2 -2,79 41,2 -1,72 -70,-4 -20,10 6,93 -83,-11 -1,41 -14,-1M1586,1276l70,2 3,148M2319,2076l-1,82M2049,2145l1,-42 -69,-3 5,-82 -50,-3M2615,2293v11l-79,-6 -14,-27 -43,-15v58l-82,-1M462,845l-4,162h-39l-283,-5M1575,2427l-183,-11 11,-25 -202,-10M1528,2908l-133,-8 -159,-4 -2,-30 -39,-21M1137,2675l406,28M2783,676l7,196M457,1128l1,-41h-41l2,-80M1571,2519l-13,148M1317,1015h-214M1103,852l2,-80 148,2 41,-3 214,1M2576,1325h-110l-123,18M2342,1313l-2,-228 161,5 1,-77h16M2340,1085v-70l-29,2M1111,435v109l-6,228M1508,741l-5,-130h-38M1355,586l-192,-2v-40h-52M2782,534l1,142 -268,5"/>
  <g class="cities">
    <circle r="3" cx="139.4" cy="197.1"/>
    <text x="139.4" y="197.1">Columbus</text>
    <circle r="3" cx="230.2" cy="54.4"/>
    <text x="230.2" y="54.4">Cleveland</text>
    <circle r="3" cx="29.2" cy="274.1"/>
    <text x="29.2" y="274.1">Cincinnati</text>
  </g>
</svg>