<?xml version="1.0" encoding="utf-8"?>
<!DOCTYPE svg PUBLIC "-//W3C//DTD SVG 1.1//EN" "http://www.w3.org/Graphics/SVG/1.1/DTD/svg11.dtd">
<svg version="1.1" xmlns="http://www.w3.org/2000/svg" width="293" height="350" viewBox="0 0 293 350">
  <path class="state" transform="scale(0.1)" d="M2828,380l10,404 7,309 4,197 7,221 -36,20 -28,-4 -32,32 52,90 -12,63 12,67 -12,48 -26,25 -6,33 -22,33v49l-21,20 9,28 -6,55 -15,23 5,33 -30,-3 8,43 -20,15 -6,47 -21,30 23,36 -21,24 -5,51 -41,12 -64,63 -37,42 -17,33 -39,18 -21,38 -22,-1 -60,38 -25,3 -17,-38 -34,-17 -64,64 -7,56 -59,-8 -22,16 3,29 -23,5 -21,31 13,59 -8,19 -39,7 33,57 -11,46 10,30 -31,-18 -46,60 -32,-17 21,-30 -25,-53h-25l-18,-32 -24,5 -8,25 -31,29 -31,58 2,46 -50,42 25,63 -4,30 12,40 -12,32 -42,-5 -22,15 -20,108 -15,13 -50,3 -80,27 -29,-3 -21,-55 -26,-17 -50,-56 -59,-10 -19,-19 -21,-78 -7,-58 -59,25 -26,-3 -24,28 -42,25 -27,38 -51,-7 -21,7 -15,20 -51,-53 -64,-15 -51,-22 -57,20 -12,38 -38,-6 -43,-15 -11,-37 -36,-20 -10,-28 -86,-27 -41,10h-1l-25,-1 -74,-25 -18,-30v-48l-39,-64 -15,-46 -73,-35 -9,-47 -44,19 -25,-5 -46,21 -43,-25 -25,-35 -21,-3 -40,32 4,-167 8,-221 10,-294 14,-368 8,-318 3,-219 7,-223 3,-148 4,-225 256,-3 328,-7 250,-6 -1,1h-2h2l3,-1 7,-2h4h5h24l193,-185 27,77 242,156h180l718,-452 454,-110 4,293M1235,835l3,4 -1,1 1,-1 9,-4h-12M1233,835h-2h2"/>
  <g class="counties" transform="scale(0.1)">
    <path data-fips-int="39001" data-name="Adams County" d="M1086,2895v334l-15,20 -51,-53 -64,-15 -51,-22 -57,20 -12,38 -38,-6 6,-97 19,-226 39,2 149,-30 46,3Z"/>
    <path data-fips-int="39003" data-name="Allen County" d="M708,1368l-2,146h-146v-12h-74l2,-24h-113l1,-112 38,2v-37h148l1,-38 72,2v-12l74,2Z"/>
    <path data-fips-int="39005" data-name="Ashland County" d="M1797,1168v60h27l3,82v189h-60l2,87 -75,11 -3,-146h-25v-52l-27,-31 2,-140h-10l-3,-61h64Z"/>
    <path data-fips-int="39007" data-name="Ashtabula County" d="M2838,784l-92,3 -213,2 -4,-180 -1,-116 65,-17 235,-96Z"/>
    <path data-fips-int="39009" data-name="Athens County" d="M2018,2527l-6,112 25,13 -1,23 63,3 -2,44 -21,31 -210,-8 -124,-8 6,-75 -25,-3 5,-75 6,-74 74,5 4,-76 72,3 -4,78Z"/>
    <path data-fips-int="39011" data-name="Auglaize County" d="M706,1514l-1,92 -74,1 -5,45 -216,-3 -2,86h-61l-3,20 -11,-3 3,-276 39,2h113l-2,24h74v12Z"/>
    <path data-fips-int="39013" data-name="Belmont County" d="M2632,1920l114,-2v49l-21,20 9,28 -6,55 -15,23 5,33 -30,-3 8,43 -20,15 -136,-8 -132,-4v-69l3,-185Z"/>
    <path data-fips-int="39015" data-name="Brown County" d="M699,2695l-7,191 131,2 -19,226 -6,97 -43,-15 -11,-37 -36,-20 -10,-28 -86,-27 -41,10 14,-134 34,-272Z"/>
    <path data-fips-int="39017" data-name="Butler County" d="M376,2401v38l23,-3 -17,216 -182,-22 -7,7 -116,-2 8,-221 219,3v-18Z"/>
    <path data-fips-int="39019" data-name="Carroll County" d="M2491,1443l109,-2 1,71h35v34v40h-36v75l-13,36 -208,-5 1,-110 -36,-1 1,-72h49l1,-61Z"/>
    <path data-fips-int="39021" data-name="Champaign County" d="M912,1868l37,5 -7,95 -9,87 -335,-30 11,-122 6,-74 148,13 -1,11Z"/>
    <path data-fips-int="39023" data-name="Clark County" d="M933,2055l-48,203 -38,-4 -118,-23 1,-22 -75,-5 3,-13 -74,-7 3,-24 11,-135Z"/>
    <path data-fips-int="39025" data-name="Clermont County" d="M571,3094h-1l-25,-1 -74,-25 -18,-30v-48l-39,-64 -15,-46 15,-128 17,-24 -30,-18 41,-38 166,15 11,1 -34,272Z"/>
    <path data-fips-int="39027" data-name="Clinton County" d="M830,2441l60,6 -11,140 -122,91 -16,32 -23,5 -19,-20 -80,-7 -11,-1 22,-265Z"/>
    <path data-fips-int="39029" data-name="Columbiana County" d="M2849,1290l7,221 -36,20 -28,-4 -32,32 -50,2 -1,-12 -73,-3v-34h-35l-1,-71 -109,2 -2,-148 121,-2v-23h46l2,23Z"/>
    <path data-fips-int="39031" data-name="Coshocton County" d="M2096,1687v63h61l-3,125 -29,-2 -1,62 -29,-2 -304,-10 3,-60h-9l6,-183Z"/>
    <path data-fips-int="39033" data-name="Crawford County" d="M1379,1225l67,1 -4,240 -83,-2v7l-161,2v-247Z"/>
    <path data-fips-int="39035" data-name="Cuyahoga County" d="M2287,736l2,186h-129l21,62 -77,1 -122,2v-63h-60l1,-132 68,20 33,-11 44,6 29,-23 59,-38 39,-44 30,-18v52Z"/>
    <path data-fips-int="39037" data-name="Darke County" d="M344,1888v233l-39,2 -210,-3 14,-368 235,3Z"/>
    <path data-fips-int="39039" data-name="Defiance County" d="M491,1073l-73,-1v-37l-74,-2 3,-36 -220,-5 3,-148 292,6 73,2Z"/>
    <path data-fips-int="39041" data-name="Delaware County" d="M1255,1697l-1,15 62,3 -4,49 120,5 -4,63 -7,128 -263,-17 -2,-85h-49l2,-169Z"/>
    <path data-fips-int="39045" data-name="Fairfield County" d="M1407,2116l200,12 7,-3 -5,78 48,3 -5,75 25,2 -6,73 -75,-4 -3,49 -79,-5 -1,38 -73,-5v12l-72,-5 12,-198 14,-24Z"/>
    <path data-fips-int="39047" data-name="Fayette County" d="M1102,2321l-10,151 -70,117 -143,-2 11,-140 -60,-6 13,-140 104,10Z"/>
    <path data-fips-int="39049" data-name="Franklin County" d="M1421,1960l-7,121 -7,35 -13,98 -14,24 -271,-15 -6,-88 18,-14 -14,-26 -5,-72h28l4,-50h24v-30Z"/>
    <path data-fips-int="39051" data-name="Fulton County" d="M713,804l-289,-2v-23l-25,-2 2,-88h-11v-73l328,-7Z"/>
    <path data-fips-int="39053" data-name="Gallia County" d="M1707,2885l-1,11 150,9 -1,35 -31,58 2,46 -50,42 25,63 -4,30 12,40 -12,32 -42,-5 -22,15 -49,-2 4,-78 -78,-4 4,-49 -11,-27 -65,-5 4,-58 1,-5 78,5 13,-158Z"/>
    <path data-fips-int="39055" data-name="Geauga County" d="M2533,789l1,130 -245,3 -2,-186 60,-4v-58l122,-2 -1,-61 61,-2Z"/>
    <path data-fips-int="39057" data-name="Greene County" d="M847,2254l-4,47 -13,140 -200,-19 -89,-8 18,-220 25,-10 74,7 -3,13 75,5 -1,22Z"/>
    <path data-fips-int="39059" data-name="Guernsey County" d="M2408,2100l-98,1 -1,25 -49,-1v25l-74,-2 -1,50 -74,-4 2,-73 -24,-1 6,-187 29,2 1,-62 29,2 184,3 -1,35 74,2Z"/>
    <path data-fips-int="39061" data-name="Hamilton County" d="M382,2652l58,5 2,15 -41,38 30,18 -17,24 -15,128 -73,-35 -9,-47 -44,19 -25,-5 -46,21 -43,-25 -25,-35 -21,-3 -40,32 4,-167 116,2 7,-7Z"/>
    <path data-fips-int="39063" data-name="Hancock County" d="M1003,1080v146h-24l-14,74h-23l-2,73 -232,-5 1,-83v-210Z"/>
    <path data-fips-int="39065" data-name="Hardin County" d="M940,1373h13l-2,98 49,12v154h-65l-34,-8 -181,-17 -15,-6 1,-92 2,-146Z"/>
    <path data-fips-int="39067" data-name="Harrison County" d="M2587,1697h49l-4,223 -221,-5 -74,-2 1,-35v-76h39l2,-110Z"/>
    <path data-fips-int="39069" data-name="Henry County" d="M713,804v63l-4,208 -218,-2 4,-221 -73,-2 2,-48Z"/>
    <path data-fips-int="39071" data-name="Highland County" d="M1022,2589l-13,93 32,28 -7,28 -23,122 -149,30 -39,-2 -131,-2 7,-191 19,20 23,-5 16,-32 122,-91Z"/>
    <path data-fips-int="39073" data-name="Hocking County" d="M1671,2356l-3,50 77,5 -1,23 68,5 -4,76 -74,-5 -6,74 -147,-9 -2,20 -76,-3v12l-74,-7 6,-83 5,-73v-12l73,5 1,-38 79,5 3,-49Z"/>
    <path data-fips-int="39075" data-name="Holmes County" d="M2132,1498l1,28 -8,5 -3,156h-26l-305,-7 3,-99 -25,5 -2,-87h60h183Z"/>
    <path data-fips-int="39077" data-name="Huron County" d="M1688,982l4,185h-64l3,61 -185,-2 -67,-1 -8,-218v-30l82,3Z"/>
    <path data-fips-int="39079" data-name="Jackson County" d="M1634,2880l-13,158 -78,-5 -1,5 -49,-2 -72,-5 4,-76 -35,-2 14,-186 14,-34 75,4 -1,13 75,5 -2,30 76,8Z"/>
    <path data-fips-int="39081" data-name="Jefferson County" d="M2760,1559l52,90 -12,63 12,67 -12,48 -26,25 -6,33 -22,33 -114,2 4,-223h-49l13,-36v-75h36v-40l73,3 1,12Z"/>
    <path data-fips-int="39083" data-name="Knox County" d="M1791,1680l-6,183 -181,-5v-16l-176,-10 4,-63 62,5 10,-148 6,-24 184,-5 75,-11 25,-5Z"/>
    <path data-fips-int="39085" data-name="Lake County" d="M2529,609l-61,2 1,61 -122,2v58l-60,4h-62v-52l31,-38 96,-73 36,-5 48,-32 92,-43Z"/>
    <path data-fips-int="39087" data-name="Lawrence County" d="M1542,3038l-4,58 65,5 11,27 -4,49 78,4 -4,78 49,2 -20,108 -15,13 -50,3 -80,27 -29,-3 -21,-55 -26,-17 -50,-56 -59,-10 50,-25 -17,-37 2,-30 37,2 7,-58 23,-4 8,-83Z"/>
    <path data-fips-int="39089" data-name="Licking County" d="M1785,1863h9l-3,60 -6,182 -22,1 -1,32 -120,-7 -28,-6 -7,3 -200,-12 7,-35 7,-121 7,-128 176,10v16Z"/>
    <path data-fips-int="39091" data-name="Logan County" d="M935,1637l-23,231 -150,-15 1,-11 -148,-13 8,-34 3,-143 5,-45 74,-1 15,6 181,17Z"/>
    <path data-fips-int="39093" data-name="Lorain County" d="M1923,792l-1,132h60v63l-60,2v63h-63l-1,53h-60l-1,63 -105,-1 -4,-185 -4,-120 58,-7 52,-33 93,-35Z"/>
    <path data-fips-int="39095" data-name="Lucas County" d="M1166,696l-156,1h-95l-29,40 -53,27 -11,38 -26,25 -63,40h-20v-63l5,-195 250,-6 -1,1h-2h2l3,-1 7,-2h4h5l-15,25 79,15 14,-15 61,55Z"/>
    <path data-fips-int="39097" data-name="Madison County" d="M1134,1973l-4,50h-28l5,72 14,26 -18,14 6,88 -7,98 -155,-10 -104,-10 4,-47 38,4 48,-203 9,-87Z"/>
    <path data-fips-int="39099" data-name="Mahoning County" d="M2845,1093l4,197 -191,3 -2,-23h-46v23l-121,2 -2,-72h54l-1,-125Z"/>
    <path data-fips-int="39101" data-name="Marion County" d="M1359,1471l-2,50h-62v128l-37,8 -3,40 -146,-8v-52h-109v-154h74v-10h124Z"/>
    <path data-fips-int="39103" data-name="Medina County" d="M2104,985v243h-280h-27v-60l1,-63h60l1,-53h63v-63l60,-2Z"/>
    <path data-fips-int="39105" data-name="Meigs County" d="M1855,2940l1,-35 -150,-9 1,-11 10,-150 25,2 124,8 210,8 13,59 -8,19 -39,7 33,57 -11,46 10,30 -31,-18 -46,60 -32,-17 21,-30 -25,-53h-25l-18,-32 -24,5 -8,25Z"/>
    <path data-fips-int="39107" data-name="Mercer County" d="M336,1476l-3,276 11,3 -235,-3 8,-318 220,5Z"/>
    <path data-fips-int="39109" data-name="Miami County" d="M609,1903l-11,122 -11,135 -69,-5 -1,-32 -173,-2v-233h138l7,5Z"/>
    <path data-fips-int="39111" data-name="Monroe County" d="M2676,2181l-6,47 -21,30 23,36 -21,24 -5,51 -41,12 -64,63v-27l-149,-1 -11,-25v-85h-25l2,-137h50l132,4Z"/>
    <path data-fips-int="39113" data-name="Montgomery County" d="M587,2160l-3,24 -25,10 -18,220 -103,-12 -62,-1 -72,-2 1,-276 39,-2 173,2 1,32Z"/>
    <path data-fips-int="39115" data-name="Morgan County" d="M2110,2268l37,3 -1,73h38v65l-83,5 5,86 -76,-9 -12,36 -138,-7 4,-78 6,2 8,-148 -36,-2 3,-36Z"/>
    <path data-fips-int="39117" data-name="Morrow County" d="M1442,1466l65,2 3,134 -6,24 -10,148 -62,-5 -120,-5 4,-49 -62,-3 1,-15 3,-40 37,-8v-128h62l2,-50v-7Z"/>
    <path data-fips-int="39119" data-name="Muskingum County" d="M2095,1933l-6,187 24,1 -2,73 -1,74 -245,-10 1,-39 -62,-3 4,-75 -46,-3 1,-32 22,-1 6,-182Z"/>
    <path data-fips-int="39121" data-name="Noble County" d="M2408,2100v69h-50l-2,137h25v85v11l-72,-6 -13,-25 -39,-12v53l-73,-3v-65h-38l1,-73 -37,-3 1,-74 74,4 1,-50 74,2v-25l49,1 1,-25Z"/>
    <path data-fips-int="39125" data-name="Paulding County" d="M418,1072l-4,148h-35l-259,-5 7,-223 220,5 -3,36 74,2Z"/>
    <path data-fips-int="39127" data-name="Perry County" d="M1762,2138l46,3 -4,75 62,3 -1,39 -3,36 36,2 -8,148 -6,-2 -72,-3 -68,-5 1,-23 -77,-5 3,-50 6,-73 -25,-2 5,-75 -48,-3 5,-78 28,6Z"/>
    <path data-fips-int="39129" data-name="Pickaway County" d="M1380,2238l-12,198 72,5 -5,73 -169,-10 -4,-23 -170,-9 10,-151 7,-98Z"/>
    <path data-fips-int="39131" data-name="Pike County" d="M1390,2953l-132,-10 -135,-2v-28l-37,-18 -29,-32 -46,-3 23,-122 370,29Z"/>
    <path data-fips-int="39133" data-name="Portage County" d="M2534,919l6,179 1,125h-54l-195,3 -3,-304Z"/>
    <path data-fips-int="39135" data-name="Preble County" d="M305,2123l-1,276v18l-219,-3 10,-294Z"/>
    <path data-fips-int="39137" data-name="Putnam County" d="M709,1285l-74,-2v12l-72,-2 -1,38h-148v-38h-35v-73h35l4,-148 73,1 218,2Z"/>
    <path data-fips-int="39139" data-name="Richland County" d="M1631,1228h10l-2,140 27,31v52h25l3,146 -184,5 -3,-134 -65,-2 4,-240Z"/>
    <path data-fips-int="39141" data-name="Ross County" d="M1435,2514l-6,83 -11,136 -14,34 -370,-29 7,-28 -32,-28 13,-93 70,-117 170,9 4,23Z"/>
    <path data-fips-int="39145" data-name="Scioto County" d="M1086,2895l37,18v28l135,2 132,10 35,2 -4,76 72,5 -8,83 -23,4 -7,58 -37,-2 -2,30 17,37 -50,25 -19,-19 -21,-78 -7,-58 -59,25 -26,-3 -24,28 -42,25 -27,38 -51,-7 -21,7Z"/>
    <path data-fips-int="39147" data-name="Seneca County" d="M1371,1007l8,218 -181,1h-195v-146l1,-75h322Z"/>
    <path data-fips-int="39149" data-name="Shelby County" d="M626,1652l-3,143 -8,34 -6,74 -120,-10 -7,-5h-138v-133l3,-20h61l2,-86Z"/>
    <path data-fips-int="39151" data-name="Stark County" d="M2487,1223l2,72 2,148 -96,5 -1,61h-49h-99l-113,17 -1,-28 -1,-207 146,2 1,-67h14Z"/>
    <path data-fips-int="39153" data-name="Summit County" d="M2289,922l3,304h-14l-1,67 -146,-2v-63h-27v-243l77,-1 -21,-62Z"/>
    <path data-fips-int="39155" data-name="Trumbull County" d="M2838,784l7,309 -305,5 -6,-179 -1,-130 213,-2Z"/>
    <path data-fips-int="39157" data-name="Tuscarawas County" d="M2345,1509l-1,72 36,1 -1,110 -2,110h-39v76l-184,-3 3,-125h-61v-63h26l3,-156 8,-5 113,-17Z"/>
    <path data-fips-int="39159" data-name="Union County" d="M1158,1943v30h-24l-192,-5 7,-95 -37,-5 23,-231h65h109v52l-2,169h49Z"/>
    <path data-fips-int="39161" data-name="Van Wert County" d="M414,1331v37l-38,-2 -1,112 -39,-2 1,-37 -220,-5 3,-219 259,5v73h35Z"/>
    <path data-fips-int="39163" data-name="Vinton County" d="M1728,2584l-5,75 25,3 -6,75 -25,-2 -10,150 -73,-5 7,-87 -76,-8 2,-30 -75,-5 1,-13 -75,-4 11,-136 74,7v-12l76,3 2,-20Z"/>
    <path data-fips-int="39165" data-name="Warren County" d="M541,2414l89,8 -22,265 -166,-15 -2,-15 -58,-5 17,-216 -23,3v-38l62,1Z"/>
    <path data-fips-int="39167" data-name="Washington County" d="M2381,2391l11,25 149,1v27l-37,42 -17,33 -39,18 -21,38 -22,-1 -60,38 -25,3 -17,-38 -34,-17 -64,64 -7,56 -59,-8 -22,16 3,29 -23,5 2,-44 -63,-3 1,-23 -25,-13 6,-112 12,-36 76,9 -5,-86 83,-5 73,3v-53l39,12 13,25 72,6Z"/>
    <path data-fips-int="39169" data-name="Wayne County" d="M2104,1228h27v63l1,207 -122,1h-183v-189l-3,-82Z"/>
    <path data-fips-int="39171" data-name="Williams County" d="M424,802l-2,48 -292,-6 4,-225 256,-3v73h11l-2,88 25,2Z"/>
    <path data-fips-int="39173" data-name="Wood County" d="M1010,797l-6,208 -1,75 -294,-5 4,-208h20l63,-40 26,-25 11,-38 53,-27 29,-40h95Z"/>
    <path data-fips-int="39175" data-name="Wyandot County" d="M1198,1226v247h-124v10h-74l-49,-12 2,-98h-13l2,-73h23l14,-74h24Z"/>
    <path data-fips-int="39043" data-name="Erie County" d="M1557,885l43,14 74,-39 10,2 4,120 -235,-2 -82,-3 -3,-118h-34l16,-9 30,-16 21,-2 39,8 25,-1 53,28 -35,-35 50,43Z"/>
    <path data-fips-int="39123" data-name="Ottawa County" d="M1166,696h1l60,18 28,38 56,35 37,-10 16,-30 22,-6 -6,11 -7,7h4l6,-7 4,-5 -1,-6 1,5 21,20 -1,1 4,2 -3,-2v-1l40,-2 -8,27 -65,11 -74,9 -13,16 -41,8h-12h-1h-1h-2l-174,-1v-37h-47v-100Z"/>
    <path data-fips-int="39143" data-name="Sandusky County" d="M1231,835h2h1v7l3,-2 32,12 17,-13 20,28 28,-8h34l3,118v30l-45,-2h-322l6,-208h47v37Z"/>
  </g>
  <path class="mesh" transform="scale(0.1)" d="M2533,789l-4,-180 -1,-116 65,-17 235,-96M2076,2753l-210,-8 -124,-8 6,-75 -25,-3 5,-75 6,-74 74,5 4,-76 72,3 -4,78 138,7 -6,112 25,13 -1,23 63,3 -2,44M2676,2181l-136,-8 -132,-4v-69l3,-185 221,5 114,-2M85,2414l219,3v-18l72,2v38l23,-3 -17,216 -182,-22 -7,7 -116,-2M935,1637l-23,231 37,5 -7,95 -9,87 -335,-30 11,-122 6,-74 148,13 -1,11 150,15M933,2055l-48,203 -38,-4 -118,-23 1,-22 -75,-5 3,-13 -74,-7 3,-24 11,-135M399,2880l15,-128 17,-24 -30,-18 41,-38 166,15 11,1M608,2687l22,-265 200,19 60,6 -11,140 -122,91 -16,32 -23,5 -19,-20M2760,1559l-50,2 -1,-12 -73,-3M2491,1443l109,-2 1,71h35v34v40h-36v75l-13,36 -208,-5 1,-110 -36,-1 1,-72h49l1,-61 96,-5 -2,-148 121,-2v-23h46l2,23 191,-3M1982,987l-60,2v63h-63l-1,53h-60l-1,63v60h27l3,82v189h183l122,-1 1,28 -8,5 -3,156h-26v63h61l-3,125 -29,-2 -1,62 -29,-2 -304,-10 3,-60h-9l6,-183 305,7M109,1752l235,3v133v233l-39,2 -210,-3M130,844l292,6 73,2 -4,221 -73,-1v-37l-74,-2 3,-36 -220,-5M1359,1471l-2,50h-62v128l-37,8 -3,40 -1,15 62,3 -4,49 120,5 -4,63 -7,128 -263,-17 -2,-85h-49l2,-169 146,8M1421,1960l-7,121 -7,35 200,12 7,-3 -5,78 48,3 -5,75 25,2 -6,73 -75,-4 -3,49 -79,-5 -1,38 -73,-5v12l-72,-5 12,-198 14,-24 13,-98M830,2441l13,-140 104,10 155,10 -10,151 -70,117 -143,-2M1380,2238l-271,-15 -6,-88 18,-14 -14,-26 -5,-72h28l4,-50h24v-30M718,609l-5,195 -289,-2v-23l-25,-2 2,-88h-11v-73M1733,3261l-49,-2 4,-78 -78,-4 4,-49 -11,-27 -65,-5 4,-58 1,-5 78,5 13,-158 73,5 -1,11 150,9 -1,35M2838,784l-92,3 -213,2 1,130 -245,3M2287,736l2,186h-129l21,62 -77,1 -122,2v-63h-60l1,-132 68,20 33,-11 44,6 29,-23 59,-38 39,-44 30,-18v52h62l60,-4v-58l122,-2 -1,-61 61,-2M847,2254l-4,47M630,2422l-89,-8 18,-220 25,-10M2408,2100l-98,1 -1,25 -49,-1v25l-74,-2 -1,50 -74,-4 2,-73 -24,-1 6,-187M2154,1875l184,3 -1,35 74,2M382,2652l58,5 2,15M940,1373h13l-2,98 49,12v154h-65l-34,-8 -181,-17 -15,-6M2587,1697h49l-4,223M2338,1878v-76h39l2,-110M713,804v63l-4,208 -218,-2M422,850l2,-48M1671,2356l-3,50 77,5 -1,23 68,5M1728,2584l-147,-9 -2,20 -76,-3v12l-74,-7 6,-83 5,-73M1827,1499h-60l2,87 -75,11 -3,-146h-25v-52l-27,-31 2,-140h-10l-185,-2M1542,3038l-49,-2 -72,-5 4,-76 -35,-2 14,-186 14,-34 75,4 -1,13 75,5 -2,30 76,8 -7,87M1785,1863l-181,-5v-16l-176,-10M2225,684l31,-38 96,-73 36,-5 48,-32 92,-43M1383,3271l50,-25 -17,-37 2,-30 37,2 7,-58 23,-4 8,-83M1791,1923l-6,182 -22,1 -1,32 -120,-7 -28,-6M615,1829l8,-34 3,-143M1688,982l-4,-120 58,-7 52,-33 93,-35 36,5M986,601l-15,25 79,15 14,-15 61,55 41,15 -156,1h-95l-29,40 -53,27 -11,38 -26,25 -63,40h-20M1109,2223l-7,98M942,1968l192,5M2489,1295l-2,-72h54l-1,-125 305,-5M1109,1689v-52h-109M1000,1483h74v-10h124M1707,2885l10,-150 25,2M117,1434l220,5 -1,37M587,2160l-69,-5 -1,-32 -173,-2M344,1888h138l7,5 120,10M2541,2444v-27l-149,-1 -11,-25v-85h-25l2,-137h50M541,2414l-103,-12 -62,-1M304,2399l1,-276M1884,2442l6,2 8,-148 -36,-2 3,-36 245,10 37,3 -1,73h38v65l-83,5 5,86 -76,-9 -12,36M1442,1466l65,2 3,134M2111,2194l-1,74M1865,2258l1,-39 -62,-3 4,-75 -46,-3M2381,2391v11l-72,-6 -13,-25 -39,-12v53l-73,-3M418,1072l-4,148h-35l-259,-5M1435,2514l-169,-10 -4,-23 -170,-9M1034,2738l370,29M2534,919l6,179M706,1514h-146v-12h-74l2,-24h-113l1,-112 38,2v-37v-38h-35v-73M1429,2597l-11,136M1198,1226h-195M1003,1080l1,-75h322l45,2M2345,1509h-99l-113,17M2132,1498l-1,-207 146,2 1,-67h14M2131,1291v-63h-27M1010,697v100l-6,208M414,1331h148l1,-38 72,2v-12l74,2v-210l294,5v146h-24l-14,74h-23l-2,73 -232,-5 -2,146 -1,92 -74,1 -5,45 -216,-3 -2,86h-61l-3,20 -11,-3 3,-276 39,2M709,1285l-1,83M1247,835l41,-8 13,-16 74,-9 65,-11 8,-27 -40,2v1l3,2 -4,-2 1,-1 -21,-20 -1,-5 1,6 -4,5 -6,7h-4l7,-7 6,-11 -22,6 -16,30 -37,10 -56,-35 -28,-38 -60,-18h-1M1390,2953l-132,-10 -135,-2v-28l-37,-18v334M1684,862l-10,-2 -74,39 -43,-14 -24,-10 -50,-43 35,35 -53,-28 -25,1 -39,-8 -21,2 -30,16 -16,9 -28,8 -20,-28 -17,13 -32,-12 -3,2v-7h1M1631,1228l-3,-61h64l105,1M1371,977l-3,-118h-34M1234,835h-1M1231,835l-174,-1v-37h-47M571,3094l14,-134 34,-272 80,7 -7,191 131,2M1379,1225l67,1 -4,240 -83,-2v7l-161,2v-247l181,-1 -8,-218v-30l82,3 235,2 4,185M798,3211l6,-97 19,-226 39,2 149,-30M1022,2589l-13,93 32,28 -7,28 -23,122 46,3 29,32M1791,1680l3,-99 -25,5M1432,1769l62,5 10,-148 6,-24 184,-5M2104,985v243h-280M2487,1223l-195,3 -3,-304"/>
  <g class="cities">
    <circle r="3" cx="126.8" cy="209.8"/>
    <text x="126.8" y="209.8">Columbus</text>
    <circle r="3" cx="209.6" cy="79.8"/>
    <text x="209.6" y="79.8">Cleveland</text>
    <circle r="3" cx="26.4" cy="280.0"/>
    <text x="26.4" y="280.0">Cincinnati</text>
  </g>
</svg>