<?xml version="1.0" encoding="utf-8"?>
<!DOCTYPE svg PUBLIC "-//W3C//DTD SVG 1.1//EN" "http://www.w3.org/Graphics/SVG/1.1/DTD/svg11.dtd">
<svg version="1.1" xmlns="http://www.w3.org/2000/svg" width="350" height="171" viewBox="0 0 350 171">
  <path class="state" transform="scale(0.1)" d="M3377,697l20,123 7,416 8,415 -73,-24 -20,4 -30,-24h-27l-40,-34 -6,-21h-32l-5,-19 -38,-14 -30,-11 -20,40 -67,7 -38,-5 -6,-24 -79,31 -25,19 -43,-24 -2,12 -88,27 -15,29 -36,-6 -10,34 -17,3 -31,-44 -30,2 -4,-18 -41,-12 13,-23 -25,-10 -18,30 -27,9 -16,-17 -22,9 -28,-47 -24,3 5,28 -40,38 -1,37 -24,6 -16,-18 10,-39 -17,-35 -23,26 -15,-13 -27,34 -33,-6 -2,-35 -40,3 -41,-44 -40,28 -42,42 -45,-22 14,-43 -55,-9 -13,-32 11,-30 -18,-4 -13,14 -77,-21 -18,34 -28,12 -50,-46 -60,16 -92,-46 -21,12 -57,-8 -8,-59 -20,-33 -47,-25 -10,40 -68,-22 -18,20 -29,-1 -56,-62 -33,-34 -29,8 4,-225 1,-187 4,-219 1,-296 -364,-6 -98,-2 -314,-10 -373,-14 8,-238 373,18 412,8 361,5 208,4h348h165l247,-2 272,-5 286,-7 81,-3 145,-4 151,-5 150,-7 7,159 1,76 28,164Z"/>
  <g class="counties" transform="scale(0.1)">
    <path data-fips-int="40001" data-name="Adair County" d="M3377,697l-130,5 -6,-250 89,-4Z"/>
    <path data-fips-int="40003" data-name="Alfalfa County" d="M1962,82l3,193 2,63 -165,1 -3,-64 -2,-193Z"/>
    <path data-fips-int="40005" data-name="Atoka County" d="M2926,1212l2,42 -42,2 5,166 -84,3 -163,3 -5,-125 104,-2 -1,-41 20,-1 -2,-83 83,-3 2,42Z"/>
    <path data-fips-int="40007" data-name="Beaver County" d="M1241,78l-3,195 -2,44 -364,-6 3,-163 5,-75Z"/>
    <path data-fips-int="40009" data-name="Beckham County" d="M1478,793v21v166l-17,1 -148,-2v42l-40,-1 -43,-1 1,-187 165,1 2,-40Z"/>
    <path data-fips-int="40011" data-name="Blaine County" d="M1927,480l1,210h-41v83h-120l-3,-124 -4,-168Z"/>
    <path data-fips-int="40013" data-name="Bryan County" d="M2807,1425l23,28 1,73 32,25 27,7 11,-1 -25,19 -43,-24 -2,12 -88,27 -15,29 -36,-6 -10,34 -17,3 -31,-44 -30,2 -4,-18 -41,-12 13,-23 5,-32 -18,-24 30,-27 -17,-22 53,-1 19,-22Z"/>
    <path data-fips-int="40015" data-name="Caddo County" d="M1887,773l3,84 83,-2 2,250 -206,1v-115l-2,-176v-42Z"/>
    <path data-fips-int="40017" data-name="Canadian County" d="M2135,688l3,167v18v1l-67,2 -40,-21h-58l-83,2 -3,-84v-83h41Z"/>
    <path data-fips-int="40019" data-name="Carter County" d="M2268,1269v62l124,-2 4,20h38l2,76h-15v49l-233,3 -2,-103 -2,-105Z"/>
    <path data-fips-int="40021" data-name="Cherokee County" d="M3158,455l83,-3 6,250 -126,4 -2,-82 -53,1 13,-21 -21,-25v-28l16,-11 10,-40 35,-1 -1,-42Z"/>
    <path data-fips-int="40023" data-name="Choctaw County" d="M3138,1414l3,105 -30,-11 -20,40 -67,7 -38,-5 -6,-24 -79,31 -11,1 -27,-7 -32,-25 -1,-73 -23,-28 84,-3Z"/>
    <path data-fips-int="40025" data-name="Cimarron County" d="M468,65l-8,234 -373,-14 8,-238Z"/>
    <path data-fips-int="40027" data-name="Cleveland County" d="M2344,851l3,213 -21,3 -58,-18 -4,-50 -20,-27 -63,-49 -8,-33 -35,-17v-18Z"/>
    <path data-fips-int="40029" data-name="Coal County" d="M2760,1135v41l2,83 -20,1 1,41 -104,2 -40,1 -2,-41 -2,-83 40,-1v-42Z"/>
    <path data-fips-int="40031" data-name="Comanche County" d="M1769,1106l206,-1 2,83 -20,1v82l-40,1 -20,27h-83v14l-62,7v-48h-65v-41l2,-126Z"/>
    <path data-fips-int="40033" data-name="Cotton County" d="M1957,1271l1,104 2,70 -13,14 -77,-21 -18,34 -28,12 -50,-46v-83h-22v-35l62,-7v-14h83l20,-27Z"/>
    <path data-fips-int="40035" data-name="Craig County" d="M3144,56l5,26 4,130v77l-122,4 -3,-41 -38,2 -5,-166 8,-27Z"/>
    <path data-fips-int="40037" data-name="Creek County" d="M2664,470v42l101,-2 3,104 -61,1 3,104 -166,4 -4,-144 -1,-105Z"/>
    <path data-fips-int="40039" data-name="Custer County" d="M1764,649l3,124v42l-289,-1v-21l-4,-21 2,-124Z"/>
    <path data-fips-int="40041" data-name="Delaware County" d="M3301,208l1,76 28,164 -89,4 -83,3 -5,-166v-77Z"/>
    <path data-fips-int="40043" data-name="Dewey County" d="M1764,649l-288,-1 -2,-95v-73l165,2 121,-1Z"/>
    <path data-fips-int="40045" data-name="Ellis County" d="M1391,275l-2,165 2,40h83v73l-31,3 -37,65 -23,12 -39,-8 -33,-25v-38l-18,-8 -28,44 -30,15 1,-296 2,-44Z"/>
    <path data-fips-int="40047" data-name="Garfield County" d="M2211,273l3,205h-83l-164,2v-142l-2,-63Z"/>
    <path data-fips-int="40049" data-name="Garvin County" d="M2429,1100l3,104 -83,1 -21,7 21,56 -81,1h-84v-83l-41,1 -2,-83Z"/>
    <path data-fips-int="40051" data-name="Grady County" d="M2138,874l3,230 2,83 -166,1 -2,-83 -2,-250h58l40,21Z"/>
    <path data-fips-int="40053" data-name="Grant County" d="M2209,80l2,193 -246,2 -3,-193Z"/>
    <path data-fips-int="40055" data-name="Greer County" d="M1461,981l32,36 6,87 25,17v1l-63,3 -15,41 -88,1 -20,-22 -4,-83 -61,-1v-41l40,1v-42Z"/>
    <path data-fips-int="40057" data-name="Harmon County" d="M1273,1020v41l61,1 4,83 20,22v103h-70l-33,-34 -29,8 4,-225Z"/>
    <path data-fips-int="40059" data-name="Harper County" d="M1449,82l32,57 28,28v108h-118l-153,-2 3,-195Z"/>
    <path data-fips-int="40061" data-name="Haskell County" d="M3251,852l1,59h-43l2,70 -167,6 -1,-49 -40,1 -4,-69 44,4 41,15 25,-20 -3,-23 27,-15 21,-40 18,19 42,8 2,24 20,-11Z"/>
    <path data-fips-int="40063" data-name="Hughes County" d="M2797,884v65l-39,56 2,130 -125,2v-68l-33,1 -2,-98 19,-1 -2,-83Z"/>
    <path data-fips-int="40065" data-name="Jackson County" d="M1579,1210l8,22 -31,1 -4,19 -26,56 10,45 -20,-33 -47,-25 -10,40 -68,-22 -18,20 -29,-1 -56,-62h70v-103l88,-1 15,-41 63,-3v-1v1l38,-14 -5,68 42,3Z"/>
    <path data-fips-int="40067" data-name="Jefferson County" d="M2186,1374l2,103 1,82 -41,-44 -40,28 -42,42 -45,-22 14,-43 -55,-9 -13,-32 11,-30 -18,-4 -2,-70Z"/>
    <path data-fips-int="40069" data-name="Johnston County" d="M2474,1265l123,-2 2,41 40,-1 5,125 -19,22 -53,1 -22,-26h-114l-2,-76h20l-2,-83Z"/>
    <path data-fips-int="40071" data-name="Kay County" d="M2481,75l1,103 -51,16 -17,32h-50l5,45 -158,2 -2,-193Z"/>
    <path data-fips-int="40073" data-name="Kingfisher County" d="M2131,478l4,210 -207,2 -1,-210h40Z"/>
    <path data-fips-int="40075" data-name="Kiowa County" d="M1769,991v115l-80,-1 -2,126 -68,-1v-20h-40l20,-31 -42,-3 5,-68 -38,14v-1l-25,-17 -6,-87 -32,-36 17,-1 241,1 38,-3Z"/>
    <path data-fips-int="40077" data-name="Latimer County" d="M3211,981l1,55 -28,2 3,41 -24,1 3,83 -178,5 -3,-165 59,-3v-13Z"/>
    <path data-fips-int="40081" data-name="Lincoln County" d="M2540,579l4,144v84l-202,3 -1,-124 -2,-103Z"/>
    <path data-fips-int="40083" data-name="Logan County" d="M2214,478l42,2 2,82 81,21 2,103 -206,2 -4,-210Z"/>
    <path data-fips-int="40085" data-name="Love County" d="M2421,1474l15,56 -24,3 5,28 -40,38 -1,37 -24,6 -16,-18 10,-39 -17,-35 -23,26 -15,-13 -27,34 -33,-6 -2,-35 -40,3 -1,-82Z"/>
    <path data-fips-int="40087" data-name="McClain County" d="M2347,1064l49,12 33,-29v53l-288,4 -3,-230v-1l35,17 8,33 63,49 20,27 4,50 58,18Z"/>
    <path data-fips-int="40089" data-name="McCurtain County" d="M3404,1236l8,415 -73,-24 -20,4 -30,-24h-27l-40,-34 -6,-21h-32l-5,-19 -38,-14 -3,-105v-42l41,-1 -5,-126 42,-1Z"/>
    <path data-fips-int="40091" data-name="McIntosh County" d="M3043,874l-44,-4 -54,41 -54,19 -46,2 -22,21 -26,-4v-65l-4,-42 43,-1 -1,-41 20,-2v-41l41,-1 143,-6Z"/>
    <path data-fips-int="40093" data-name="Major County" d="M1802,339l165,-1v142h-40l-167,1 -121,1 -2,-165h45l23,28 67,27 30,-4Z"/>
    <path data-fips-int="40095" data-name="Marshall County" d="M2572,1451l17,22 -30,27 18,24 -5,32 -25,-10 -18,30 -27,9 -16,-17 -22,9 -28,-47 -15,-56v-49h15h114Z"/>
    <path data-fips-int="40097" data-name="Mayes County" d="M3153,289l5,166 -40,2 1,42 -35,1 -89,3 -5,-208 41,-2Z"/>
    <path data-fips-int="40099" data-name="Murray County" d="M2432,1204v21l42,-1v41l-22,1 2,83h-20h-38l-4,-20 -124,2v-62l81,-1 -21,-56 21,-7Z"/>
    <path data-fips-int="40101" data-name="Muskogee County" d="M3066,625l53,-1 2,82v54l33,31 -21,40 -27,15 3,23 -25,20 -41,-15 -4,-124 -143,6 -1,-83h-24l-1,-62 46,-2 5,33 20,11 39,-20Z"/>
    <path data-fips-int="40103" data-name="Noble County" d="M2386,312h-9l2,83 40,-1 2,41 -84,1v42l-81,2 -42,-2 -3,-205 158,-2 52,-4 6,23Z"/>
    <path data-fips-int="40105" data-name="Nowata County" d="M2993,61l-8,27 5,166 -145,4 -7,-165 10,-28Z"/>
    <path data-fips-int="40107" data-name="Okfuskee County" d="M2710,719v42l42,-2 1,85 40,-2 4,42 -180,4 -2,-83 -16,15 -27,-9 8,28 -35,-2 -1,-30v-84Z"/>
    <path data-fips-int="40109" data-name="Oklahoma County" d="M2341,686l1,124 2,41 -206,4 -3,-167Z"/>
    <path data-fips-int="40111" data-name="Okmulgee County" d="M2768,614l83,-2 19,-1 1,62h24l1,83 -41,1v41l-20,2 1,41 -43,1 -40,2 -1,-85 -42,2v-42l-3,-104Z"/>
    <path data-fips-int="40113" data-name="Osage County" d="M2767,68l6,275 4,125 -104,2 9,-27 -43,-7 -50,-46 -17,19 -43,-62 -30,-6 3,-24 -25,-34 -50,45 -26,6 -15,-22 41,-22 -6,-23 -52,4 -5,-45h50l17,-32 51,-16 -1,-103Z"/>
    <path data-fips-int="40115" data-name="Ottawa County" d="M3301,208l-148,4 -4,-130 -5,-26 150,-7Z"/>
    <path data-fips-int="40117" data-name="Pawnee County" d="M2673,470h-9l-125,4 -77,3v-41l-41,-1 -2,-41 -40,1 -2,-83h9l15,22 26,-6 50,-45 25,34 -3,24 30,6 43,62 17,-19 50,46 43,7Z"/>
    <path data-fips-int="40119" data-name="Payne County" d="M2539,474l1,105 -201,4 -81,-21 -2,-82 81,-2v-42l84,-1 41,1v41Z"/>
    <path data-fips-int="40121" data-name="Pittsburg County" d="M3044,987v13l-59,3 3,165 2,42 -64,2 -81,3 -2,-42 -83,3v-41l-2,-130 39,-56 26,4 22,-21 46,-2 54,-19 54,-41 4,69 40,-1Z"/>
    <path data-fips-int="40123" data-name="Pontotoc County" d="M2491,1077l21,20 12,-37 18,16 27,-9 16,21 17,-18 33,-1v68v42l-40,1 2,83 -123,2v-41l-42,1v-21l-3,-104v-53l17,18 26,-10Z"/>
    <path data-fips-int="40125" data-name="Pottawatomie County" d="M2544,807l1,30 -40,-11 -19,7 5,244 -19,-22 -26,10 -17,-18 -33,29 -49,-12 -3,-213 -2,-41Z"/>
    <path data-fips-int="40127" data-name="Pushmataha County" d="M3166,1163l48,-2 2,83 -42,1 5,126 -41,1v42l-247,8 -5,-166 42,-2 -2,-42 64,-2 -2,-42Z"/>
    <path data-fips-int="40129" data-name="Roger Mills County" d="M1474,553l2,95 -2,124 4,21h-80l-2,40 -165,-1 4,-219 30,-15 28,-44 18,8v38l33,25 39,8 23,-12 37,-65Z"/>
    <path data-fips-int="40131" data-name="Rogers County" d="M3031,293l-41,2 5,208 -45,-7 -25,-33 -55,2h-22l-2,-124 -1,-83 145,-4 38,-2Z"/>
    <path data-fips-int="40133" data-name="Seminole County" d="M2617,888l2,83 -19,1 2,98 -17,18 -16,-21 -27,9 -18,-16 -12,37 -21,-20 -5,-244 19,-7 40,11 35,2 -8,-28 27,9 16,-15Z"/>
    <path data-fips-int="40135" data-name="Sequoyah County" d="M3247,702l130,-5 20,123 -20,5 3,29 -41,-9 -13,16 -57,-25 -18,16 -15,-21 -20,11 -2,-24 -42,-8 -18,-19 -33,-31v-54Z"/>
    <path data-fips-int="40137" data-name="Stephens County" d="M2143,1187l41,-1v83l2,105 -228,1 -1,-104v-82l20,-1Z"/>
    <path data-fips-int="40139" data-name="Texas County" d="M880,73l-5,75 -3,163 -98,-2 -314,-10 8,-234Z"/>
    <path data-fips-int="40141" data-name="Tillman County" d="M1687,1231v41h65v48v35h22v83l-60,16 -92,-46 -21,12 -57,-8 -8,-59 -10,-45 26,-56 4,-19 31,-1 -8,-22h40v20Z"/>
    <path data-fips-int="40143" data-name="Tulsa County" d="M2846,341l2,124h22l1,125 -20,22 -83,2 -3,-104 -101,2v-42h9l104,-2 -4,-125Z"/>
    <path data-fips-int="40145" data-name="Wagoner County" d="M2995,503l89,-3 -10,40 -16,11v28l21,25 -13,21 -86,8 -39,20 -20,-11 -5,-33 -46,2 -19,1 20,-22 -1,-125 55,-2 25,33Z"/>
    <path data-fips-int="40147" data-name="Washington County" d="M2848,65l-10,28 7,165 1,83 -73,2 -6,-275Z"/>
    <path data-fips-int="40149" data-name="Washita County" d="M1767,815l2,176 -12,-13 -38,3 -241,-1v-166Z"/>
    <path data-fips-int="40151" data-name="Woods County" d="M1797,82l2,193 3,64v29l-30,4 -67,-27 -23,-28h-45v-44l-23,-21 -15,-36 -38,-34 -35,2 -17,-17 -28,-28 -32,-57Z"/>
    <path data-fips-int="40153" data-name="Woodward County" d="M1637,317l2,165 -165,-2h-83l-2,-40 2,-165h118v-108l17,17 35,-2 38,34 15,36 23,21Z"/>
    <path data-fips-int="40079" data-name="Le Flore County" d="M3404,1236l-188,8 -2,-83 -48,2 -3,-83 24,-1 -3,-41 28,-2 -1,-55 -2,-70h43l-1,-59 18,-16 57,25 13,-16 41,9 -3,-29 20,-5Z"/>
  </g>
  <path class="mesh" transform="scale(0.1)" d="M1241,78l-3,195 -2,44M872,311l3,-163 5,-75M1231,832l165,1 2,-40h80v21v166l-17,1 -148,-2v42l-40,-1 -43,-1M3377,697l-130,5 -6,-250 89,-4M2891,1422l-84,3 23,28 1,73 32,25 27,7 11,-1M1887,773l3,84 83,-2 2,250 -206,1v-115l-2,-176v-42M1928,690l207,-2 3,167v18v1l-67,2 -40,-21h-58M2184,1269v-83l-41,1 -2,-83 288,-4 3,104 -83,1 -21,7 21,56 -81,1v62l124,-2 4,20h38l2,76h-15v49l-233,3 -2,-103 -2,-105h84M3247,702l-126,4 -2,-82 -53,1 13,-21 -21,-25v-28l16,-11 10,-40 35,-1 -1,-42 40,-2 83,-3M2572,1556l5,-32 -18,-24 30,-27 -17,-22 53,-1 19,-22 -5,-125 104,-2 -1,-41 20,-1 -2,-83 83,-3 2,42 81,-3 2,42 -42,2 5,166 247,-8 3,105M468,65l-8,234M2138,855l206,-4 3,213 -21,3 -58,-18 -4,-50 -20,-27 -63,-49 -8,-33 -35,-17M2639,1303l-40,1 -2,-41 -2,-83 40,-1v-42l125,-2v41M1975,1105l2,83 -20,1v82l-40,1 -20,27h-83v14l-62,7v-48h-65v-41l2,-126 80,1M1957,1271l1,104 2,70M1774,1438v-83h-22v-35M3144,56l5,26 4,130v77l-122,4 -3,-41 -38,2 -5,-166 8,-27M2673,470h-9v42l101,-2 3,104 -61,1 3,104 -166,4 -4,-144 -1,-105 125,-4M1767,815l-289,-1M1478,793l-4,-21 2,-124 288,1M3158,455l-5,-166M3153,212l148,-4M1476,648l-2,-95v-73l165,2 121,-1M1238,273l153,2 -2,165 2,40h83M1474,553l-31,3 -37,65 -23,12 -39,-8 -33,-25v-38l-18,-8 -28,44 -30,15M1965,275l246,-2 3,205h-83l-164,2v-142M2138,874l3,230M2143,1187l-166,1M2481,75l1,103 -51,16 -17,32h-50l5,45 -158,2M1461,981l32,36 6,87 25,17v1l-63,3 -15,41 -88,1 -20,-22 -4,-83 -61,-1v-41M1358,1167v103h-70M1962,82l3,193 2,63 -165,1 -3,-64 -2,-193M1449,82l32,57 28,28v108h-118M3397,820l-20,5 3,29 -41,-9 -13,16 -57,-25 -18,16 1,59h-43l2,70 -167,6 -1,-49 -40,1 -4,-69 44,4 41,15 25,-20 -3,-23 27,-15 21,-40 18,19 42,8 2,24 20,-11 15,21M2635,1137v-68l-33,1 -2,-98 19,-1 -2,-83 180,-4v65l-39,56 2,130M1524,1122l38,-14 -5,68 42,3 -20,31 8,22 -31,1 -4,19 -26,56 10,45M2188,1477l1,82M1958,1375l228,-1M2434,1349h20l-2,-83 22,-1 123,-2M2572,1451l-22,-26h-114M2341,686l-206,2M1927,480l1,210h-41v83h-120l-3,-124 -4,-168 167,-1h40M1687,1231l-68,-1v-20h-40M1478,980l241,1 38,-3 12,13M3211,981l1,55 -28,2 3,41 -24,1 3,83 -178,5 -3,-165 59,-3v-13M2544,723v84l-202,3 -1,-124 -2,-103 201,-4M2214,478l42,2 2,82 81,21M2421,1474l15,56M2347,1064l49,12 33,-29v53M3138,1414v-42l41,-1 -5,-126 42,-1 188,-8M2999,870l-54,41 -54,19 -46,2 -22,21 -26,-4M2797,884l-4,-42 43,-1 -1,-41 20,-2v-41l41,-1 143,-6 4,124M1639,482l-2,-165h45l23,28 67,27 30,-4v-29M3084,500l-89,3 -5,-208 41,-2M2432,1204v21l42,-1v41M3121,706v54l33,31M2896,756l-1,-83h-24l-1,-62 46,-2 5,33 20,11 39,-20 86,-8M2369,271l52,-4 6,23 -41,22h-9l2,83 40,-1 2,41 -84,1v42l-81,2M2990,254l-145,4 -7,-165 10,-28M2710,719v42l42,-2 1,85 40,-2M2617,888l-2,-83 -16,15 -27,-9 8,28 -35,-2 -1,-30M2342,810l2,41M2768,614l83,-2 19,-1M2767,68l6,275 4,125 -104,2 9,-27 -43,-7 -50,-46 -17,19 -43,-62 -30,-6 3,-24 -25,-34 -50,45 -26,6 -15,-22M2539,474l-77,3v-41l-41,-1M2988,1168l2,42 -64,2M2429,1047l17,18 26,-10 19,22 21,20 12,-37 18,16 27,-9 16,21 17,-18M2545,837l-40,-11 -19,7 5,244M3166,1163l48,-2 2,83M2995,503l-45,-7 -25,-33 -55,2h-22l-2,-124 -1,-83M2807,1425l-163,3M2870,465l1,125 -20,22M2773,343l73,-2M1637,317v-44l-23,-21 -15,-36 -38,-34 -35,2 -17,-17M2209,80l2,193M2131,478l4,210"/>
  <g class="cities">
    <circle r="3" cx="218.9" cy="80.9"/>
    <text x="218.9" y="80.9">Oklahoma City</text>
    <circle r="3" cx="277.2" cy="47.0"/>
    <text x="277.2" y="47.0">Tulsa</text>
    <circle r="3" cx="185.0" cy="122.2"/>
    <text x="185.0" y="122.2">Lawton</text>
  </g>
</svg>