<?xml version="1.0" encoding="utf-8"?>
<!DOCTYPE svg PUBLIC "-//W3C//DTD SVG 1.1//EN" "http://www.w3.org/Graphics/SVG/1.1/DTD/svg11.dtd">
<svg version="1.1" xmlns="http://www.w3.org/2000/svg" width="350" height="171" viewBox="0 0 350 171">
  <defs>
    <pattern id="pattern-no-results" width="50" height="50" patternUnits="userSpaceOnUse">
      <rect width="50" height="50" fill="#ddd"/>
      <path d="M-5,5L5,-5M-5,55L55,-5M45,55L55,45" stroke-width="10" stroke="#666666"/>
    </pattern>
  </defs>
  <g class="counties" transform="scale(0.1)">
    <path data-fips-int="40001" data-name="Adair County" d="M3376,697l-129,5 -3,-65 -2,-60 4,0 -3,-57 -2,-67 90,-5 12,62 16,91Z"/>
    <path data-fips-int="40003" data-name="Alfalfa County" d="M1961,82l2,27 0,102 0,64 2,0 1,63 -165,0 0,-62 -3,0 0,-166 -2,0 0,-27 68,0Z"/>
    <path data-fips-int="40005" data-name="Atoka County" d="M2927,1212l1,42 -42,1 2,53 1,66 2,48 -84,2 -164,5 -4,-125 105,-3 -2,-41 21,-1 -2,-83 82,-3 2,42Z"/>
    <path data-fips-int="40007" data-name="Beaver County" d="M1240,78l-2,113 0,82 -1,45 -211,-3 -153,-4 4,-166 3,-5 1,-67 81,2 70,0 52,1 116,1Z"/>
    <path data-fips-int="40009" data-name="Beckham County" d="M1479,793l0,21 -1,124 2,0 0,42 -20,1 -13,-1 -132,-1 -1,41 -41,0 -44,-1 3,-187 164,2 1,-42Z"/>
    <path data-fips-int="40011" data-name="Blaine County" d="M1926,480l1,127 1,1 0,82 -41,0 1,4 0,79 -121,1 -3,-1 0,-124 0,-41 -2,0 0,-127Z"/>
    <path data-fips-int="40013" data-name="Bryan County" d="M2807,1424l16,6 6,9 2,76 1,12 7,8 16,3 6,12 10,8 32,-1 -2,12 -14,-6 -8,1 0,10 -10,0 -5,-6 -31,-16 -3,14 -15,3 -2,-7 -7,10 -7,4 -2,-8 -8,10 -8,-1 -9,-8 -1,10 -26,11 -5,8 2,13 -13,8 -11,1 -14,-7 -12,1 -6,15 2,7 -6,12 -15,3 -3,-10 -18,-20 -6,-11 -30,3 -13,-24 -17,2 -21,-11 6,-12 9,-6 0,-7 3,-13 -5,-8 6,-10 -19,-23 18,-6 0,-13 7,-1 4,-8 -15,-22 51,-2 0,-20 19,0Z"/>
    <path data-fips-int="40015" data-name="Caddo County" d="M1888,773l2,5 1,78 82,0 0,83 2,0 0,142 0,24 -206,1 -1,-14 0,-102 1,-51 -2,0 0,-124 0,-41Z"/>
    <path data-fips-int="40017" data-name="Canadian County" d="M2135,688l1,84 1,0 1,83 0,19 -16,6 -12,-1 -8,-8 -10,4 -10,-3 -10,4 -9,-13 -13,8 -10,-5 -9,-9 -2,12 -24,-9 -1,-4 -31,0 -82,0 -1,-78 -2,-5 0,-79 -1,-4 41,0Z"/>
    <path data-fips-int="40019" data-name="Carter County" d="M2267,1269l2,62 122,-2 5,20 38,0 1,76 -14,1 1,48 -85,2 -149,1 -1,-5 -1,-99 -1,-103Z"/>
    <path data-fips-int="40021" data-name="Cherokee County" d="M3159,456l82,-3 2,67 3,57 -4,0 2,60 3,65 -124,5 -3,-83 -54,1 13,-22 0,-6 -18,-15 2,-20 -6,-10 10,-10 8,-2 3,-23 7,-1 -1,-16 35,-1 -2,-42Z"/>
    <path data-fips-int="40023" data-name="Choctaw County" d="M3137,1414l4,105 -26,-11 -13,13 2,14 -3,8 -8,-11 0,16 -13,1 -5,-5 -4,6 -27,6 -20,-2 -2,-8 -18,7 -3,-11 -13,9 -2,-14 -6,-11 -15,-3 -3,8 -15,9 -9,0 -7,8 -9,3 -12,-5 -7,2 0,9 -32,1 -10,-8 -6,-12 -16,-3 -7,-8 -1,-12 -2,-76 -6,-9 -16,-6 84,-2 99,-3Z"/>
    <path data-fips-int="40025" data-name="Cimarron County" d="M468,64l-2,69 -2,7 -1,42 -4,117 -83,-2 -185,-8 -104,-4 4,-102 3,-87 4,-49 161,8 124,5Z"/>
    <path data-fips-int="40027" data-name="Cleveland County" d="M2344,852l1,72 0,48 2,92 -21,2 -7,-8 -6,4 -6,-6 -7,3 -5,-9 -10,0 -3,5 -13,-5 0,-12 -7,-23 1,-18 -19,-5 -1,-22 -12,-7 -7,-11 -15,-14 -14,0 -4,-8 -10,-7 2,-17 -6,-14 -18,-2 -14,-15 -7,-1 0,-19Z"/>
    <path data-fips-int="40029" data-name="Coal County" d="M2760,1134l1,42 2,83 -21,1 2,41 -105,3 -42,0 0,-41 0,-42 -2,-41 42,-1 -1,-42 22,0Z"/>
    <path data-fips-int="40031" data-name="Comanche County" d="M1769,1106l206,-1 2,0 0,83 -20,0 0,84 -40,0 0,20 -21,1 -2,7 -80,0 0,13 -41,0 0,7 -21,0 0,-48 -64,0 0,-42 0,-124Z"/>
    <path data-fips-int="40033" data-name="Cotton County" d="M1957,1272l1,0 1,103 0,70 -12,14 -32,-7 -20,-2 -8,-8 -17,-3 -6,3 -8,14 1,8 -7,10 -12,1 -16,9 -20,-21 -10,-8 -5,-11 -14,-5 0,-84 -21,0 0,-35 21,0 0,-7 41,0 0,-13 80,0 2,-7 21,-1 0,-20Z"/>
    <path data-fips-int="40035" data-name="Craig County" d="M3145,56l-10,3 6,16 8,8 3,88 2,42 1,31 -2,3 2,42 -124,5 -2,-42 -39,1 -3,-68 -3,-96 9,-1 -1,-27Z"/>
    <path data-fips-int="40037" data-name="Creek County" d="M2662,470l2,42 103,-2 2,83 0,21 -62,1 3,104 -41,2 -125,2 -1,-86 -2,-58 -2,-44 -1,-60 0,-2Z"/>
    <path data-fips-int="40039" data-name="Custer County" d="M1764,649l0,124 3,1 0,41 -82,0 -96,0 -110,-1 0,-21 1,-20 -6,0 2,-125 101,1Z"/>
    <path data-fips-int="40041" data-name="Delaware County" d="M3300,208l3,81 9,50 10,59 9,50 -90,5 -82,3 -2,-37 2,-6 -4,-124 -2,-42 2,-3 -1,-31 83,-4 1,1Z"/>
    <path data-fips-int="40043" data-name="Dewey County" d="M1764,649l-187,0 -101,-1 0,-41 -2,-4 0,-50 0,-73 96,2 69,0 39,0 84,-1 0,127 2,0Z"/>
    <path data-fips-int="40045" data-name="Ellis County" d="M1390,275l-1,70 0,95 4,0 -1,39 82,1 0,73 -13,-2 -18,5 -2,6 -12,7 -6,16 0,8 -14,13 -5,17 -16,4 -6,7 -25,-5 -15,-6 -11,-10 -10,-1 -13,-21 2,-28 -3,-7 -13,-2 -10,9 -6,0 -8,10 1,17 -8,8 -16,11 -13,4 4,-295 -1,0 1,-45Z"/>
    <path data-fips-int="40047" data-name="Garfield County" d="M2211,273l1,0 1,85 0,48 2,72 -83,1 -165,1 -1,-73 0,-69 -1,-63 137,0Z"/>
    <path data-fips-int="40049" data-name="Garvin County" d="M2430,1100l2,104 -83,1 0,7 -22,0 3,13 6,0 8,21 -3,9 7,13 -81,1 -82,1 -2,-84 -41,1 0,-83 67,-1Z"/>
    <path data-fips-int="40051" data-name="Grady County" d="M2138,874l2,103 0,127 2,0 0,83 -129,1 -36,0 0,-83 -2,0 0,-24 0,-142 -2,0 0,-83 31,0 1,4 24,9 2,-12 9,9 10,5 13,-8 9,13 10,-4 10,3 10,-4 8,8 12,1Z"/>
    <path data-fips-int="40053" data-name="Grant County" d="M2209,79l0,49 2,55 0,90 -109,2 -137,0 -2,0 0,-64 0,-102 -2,-27Z"/>
    <path data-fips-int="40055" data-name="Greer County" d="M1460,981l4,10 10,5 9,19 9,1 -3,8 0,25 7,22 8,2 2,18 -8,-2 -2,8 4,7 20,10 3,7 -3,4 -59,0 -1,21 -11,0 -2,12 7,9 -96,0 0,-14 -7,-7 -14,0 0,-43 -4,0 0,-42 -61,0 1,-41 41,0 1,-41 132,1Z"/>
    <path data-fips-int="40057" data-name="Harmon County" d="M1273,1020l-1,41 61,0 0,42 4,0 0,43 14,0 7,7 0,14 -1,103 -70,0 -11,-14 -19,-19 -11,-2 -8,8 -12,0 3,-193 0,-31Z"/>
    <path data-fips-int="40059" data-name="Harper County" d="M1449,81l13,28 9,10 9,21 22,10 -1,7 9,10 0,3 -1,105 -119,0 -152,-2 0,-82 2,-113 123,2Z"/>
    <path data-fips-int="40061" data-name="Haskell County" d="M3250,852l2,58 -44,2 2,69 -73,3 -91,3 -2,-49 -41,1 1,-20 -1,-40 -3,-9 25,-5 13,3 6,7 15,-5 8,3 10,12 7,4 15,-15 2,-7 7,2 3,-8 -5,-11 7,-7 9,-2 -8,-5 9,-6 7,4 12,-16 5,-19 9,-8 10,3 1,11 9,8 9,-1 14,7 15,-1 4,11 -10,11 6,3 16,-6 8,-7 6,5 2,14Z"/>
    <path data-fips-int="40063" data-name="Hughes County" d="M2795,884l2,66 -12,5 3,10 -9,0 -13,18 -1,14 -7,2 2,70 0,65 -102,3 -22,0 -1,-68 -2,-7 -5,10 -16,-5 -11,3 -2,-98 20,-1 -2,-83Z"/>
    <path data-fips-int="40065" data-name="Jackson County" d="M1579,1209l9,8 -1,15 -6,-2 -25,3 -9,14 3,9 -8,-3 -4,20 -6,5 3,18 -5,2 0,15 -4,-4 3,19 15,16 -8,9 -12,-17 -13,-7 5,-8 -8,0 -5,-6 -8,3 -3,-6 -20,-18 -8,8 -1,13 4,2 -7,18 -9,-5 -4,6 -11,-12 -10,-2 -9,-7 -26,-1 -2,14 -6,6 -18,-4 -8,4 -12,-2 -10,-14 -18,-11 -19,-26 -2,-7 -9,-4 70,0 1,-103 96,0 -7,-9 2,-12 11,0 1,-21 59,0 3,-4 13,-2 8,-14 8,-1 8,8 0,24 -5,10 6,3 -5,10 7,20 17,3 18,-3 7,5 -5,7 -18,3Z"/>
    <path data-fips-int="40067" data-name="Jefferson County" d="M2186,1373l1,99 1,5 0,32 9,9 -9,1 1,40 -11,-1 -4,-7 4,-17 -18,-13 -15,-5 -10,5 -4,11 -10,10 -13,2 2,7 -10,3 0,11 -6,-3 -13,18 -15,5 -27,-15 -6,1 -11,-8 11,-14 -8,-9 7,-7 4,-15 -11,-8 -6,4 -20,2 -17,-4 -9,-13 9,-4 -13,-11 -2,-10 6,-8 6,-15 -8,-10 -12,4 0,-70 94,0Z"/>
    <path data-fips-int="40069" data-name="Johnston County" d="M2474,1265l123,-2 0,41 42,0 4,125 -19,0 0,20 -51,2 -10,-16 -14,-10 -10,-1 -104,1 -1,-76 20,-1 -1,-82Z"/>
    <path data-fips-int="40071" data-name="Kay County" d="M2481,75l0,103 -13,1 0,7 -13,0 0,10 -6,2 -19,-4 -12,17 -4,15 -24,-1 -18,-6 -8,7 0,17 5,5 -1,22 -156,3 -1,0 0,-90 -2,-55 0,-49 155,-2Z"/>
    <path data-fips-int="40073" data-name="Kingfisher County" d="M2132,479l1,119 1,22 1,68 -207,2 0,-82 -1,-1 -1,-127 41,0Z"/>
    <path data-fips-int="40075" data-name="Kiowa County" d="M1768,990l0,102 1,14 -81,0 0,124 -69,0 0,-21 -40,0 3,-15 18,-3 5,-7 -7,-5 -18,3 -17,-3 -7,-20 5,-10 -6,-3 5,-10 0,-24 -8,-8 -8,1 -8,14 -13,2 -3,-7 -20,-10 -4,-7 2,-8 8,2 -2,-18 -8,-2 -7,-22 0,-25 3,-8 -9,-1 -9,-19 -10,-5 -4,-10 20,-1 239,1 11,4 17,0 1,-4 14,-3Z"/>
    <path data-fips-int="40077" data-name="Latimer County" d="M3210,981l2,55 -27,2 2,41 -24,1 3,83 -168,6 -10,0 -3,-83 2,-5 -2,-78 61,-3 0,-13 91,-3Z"/>
    <path data-fips-int="40081" data-name="Lincoln County" d="M2541,579l2,58 1,86 0,84 -176,3 -25,0 -2,-124 -1,-65 0,-39 167,-3Z"/>
    <path data-fips-int="40083" data-name="Logan County" d="M2215,478l41,-1 0,3 1,83 10,-12 12,1 5,15 25,5 6,9 12,2 13,-9 0,8 0,39 1,65 -206,2 -1,-68 -1,-22 -1,-119Z"/>
    <path data-fips-int="40085" data-name="Love County" d="M2422,1474l0,28 14,0 0,28 -15,9 -2,-10 -7,4 5,28 -14,21 -9,3 -11,-10 -7,10 16,5 0,6 -12,2 -6,11 4,13 -3,15 -9,7 -8,-1 -15,-9 -13,-30 2,-11 12,-6 1,-6 -6,-22 -11,-9 -14,6 -4,19 -12,-2 -7,-10 -2,7 -10,9 4,-11 -5,0 -4,16 -10,13 -22,0 -14,-10 4,-15 -3,-15 -16,-8 -22,11 -2,-1 -1,-40 9,-1 -9,-9 0,-32 149,-1Z"/>
    <path data-fips-int="40087" data-name="McClain County" d="M2347,1064l23,1 6,5 20,5 14,-7 10,-15 10,-5 0,52 -221,3 -67,1 -2,0 0,-127 -2,-103 7,1 14,15 18,2 6,14 -2,17 10,7 4,8 14,0 15,14 7,11 12,7 1,22 19,5 -1,18 7,23 0,12 13,5 3,-5 10,0 5,9 7,-3 6,6 6,-4 7,8Z"/>
    <path data-fips-int="40089" data-name="McCurtain County" d="M3404,1236l6,294 1,70 1,51 -7,9 -12,-2 6,-6 -15,5 -5,-4 10,-6 -7,-5 -8,9 -4,-2 11,-12 -16,4 -6,-8 -9,7 -11,-13 -7,5 -10,-1 4,-9 -11,-4 3,13 -14,-9 -12,-11 10,-11 -8,-4 -10,15 -6,-16 -4,12 -14,-1 -7,-9 -12,-5 -5,-8 4,-12 -6,-5 1,10 -8,1 0,-10 -9,-4 -2,-12 -9,5 -7,-7 -16,1 -6,-21 -5,-2 -2,17 -8,-7 10,-9 -3,-4 -13,9 -6,-5 1,-11 -11,1 -4,-105 2,0 -2,-42 42,-1 -5,-126 43,-1 147,-6Z"/>
    <path data-fips-int="40091" data-name="McIntosh County" d="M3044,875l-6,-7 -13,-3 -25,5 -21,6 -3,14 -16,9 -16,13 -10,-5 -16,5 -6,8 -25,12 -30,-3 -12,3 -14,18 -8,3 -26,-3 -2,-66 0,-42 41,-1 -1,-41 20,-1 0,-42 42,-1 143,-5Z"/>
    <path data-fips-int="40093" data-name="Major County" d="M1801,338l165,0 0,69 1,73 -41,0 -164,1 -84,1 -39,0 0,-40 -2,-1 0,-124 45,1 10,17 14,10 21,2 10,14 35,12 22,-6 7,3Z"/>
    <path data-fips-int="40095" data-name="Marshall County" d="M2573,1451l15,22 -4,8 -7,1 0,13 -18,6 19,23 -6,10 5,8 -3,13 -15,1 -12,-9 -10,12 -8,17 -28,9 -16,-17 -21,9 -8,-16 -6,-26 -14,-5 0,-28 -14,0 0,-28 -1,-48 14,-1 104,-1 10,1 14,10Z"/>
    <path data-fips-int="40097" data-name="Mayes County" d="M3155,289l4,124 -2,6 2,37 -42,1 2,42 -35,1 -90,3 -2,-83 2,-1 -3,-67 -1,-57 41,-1Z"/>
    <path data-fips-int="40099" data-name="Murray County" d="M2432,1204l0,21 41,-1 1,41 -21,1 1,82 -20,1 -38,0 -5,-20 -122,2 -2,-62 81,-1 -7,-13 3,-9 -8,-21 -6,0 -3,-13 22,0 0,-7Z"/>
    <path data-fips-int="40101" data-name="Muskogee County" d="M3066,625l54,-1 3,83 1,41 -1,12 4,10 11,10 6,11 12,0 -9,8 -5,19 -12,16 -7,-4 -9,6 8,5 -9,2 -7,7 5,11 -3,8 -7,-2 -2,7 -15,15 -7,-4 -10,-12 -8,-3 -15,5 -4,-124 -143,5 -1,-49 -2,-34 -20,0 -2,-62 44,-2 6,10 0,23 14,4 7,6 9,-11 17,-3 15,-6 22,3 22,-11 8,2Z"/>
    <path data-fips-int="40103" data-name="Noble County" d="M2386,312l-9,0 1,83 42,-1 0,42 -83,1 1,42 -82,1 0,-3 -41,1 -2,-72 0,-48 -1,-85 156,-3 18,6 22,-4 13,-5 11,11 -5,12 -8,-1 -13,9 -17,4Z"/>
    <path data-fips-int="40105" data-name="Nowata County" d="M2992,61l1,27 -9,1 3,96 3,68 -145,5 -5,-164 9,-1 -1,-27Z"/>
    <path data-fips-int="40107" data-name="Okfuskee County" d="M2710,719l1,42 41,-1 2,83 41,-1 0,42 -178,4 -2,-83 -14,1 -2,14 -6,3 -18,-12 -6,3 1,14 8,3 1,10 -21,-9 -3,7 -10,-2 -1,-30 0,-84 125,-2Z"/>
    <path data-fips-int="40109" data-name="Oklahoma County" d="M2341,686l2,124 1,42 -206,3 -1,-83 -1,0 -1,-84Z"/>
    <path data-fips-int="40111" data-name="Okmulgee County" d="M2769,614l82,-2 21,-1 2,62 20,0 2,34 1,49 -42,1 0,42 -20,1 1,41 -41,1 -41,1 -2,-83 -41,1 -1,-42 -3,-104Z"/>
    <path data-fips-int="40113" data-name="Osage County" d="M2766,68l4,150 2,50 1,75 4,125 -64,2 -39,0 -1,-9 7,-6 0,-14 -18,-4 -15,2 -7,-3 -14,-15 -19,-11 -4,-14 -13,-6 -7,14 -9,5 -9,-1 -10,-8 6,-17 14,-9 -2,-11 -6,-4 -13,13 -11,-4 0,-7 -13,-13 -19,2 -12,-10 4,-16 -8,-13 0,-8 -5,-14 -12,-7 -20,13 -6,14 -14,19 -14,1 -8,7 -20,-6 -9,-9 -1,-9 3,-10 17,-4 13,-9 8,1 5,-12 -11,-11 -13,5 -22,4 -18,-6 1,-22 -5,-5 0,-17 8,-7 18,6 24,1 4,-15 12,-17 19,4 6,-2 0,-10 13,0 0,-7 13,-1 0,-103 86,-1 86,-3Z"/>
    <path data-fips-int="40115" data-name="Ottawa County" d="M3300,208l-62,2 -1,-1 -83,4 -2,-42 -3,-88 -8,-8 -6,-16 10,-3 91,-3 57,-3Z"/>
    <path data-fips-int="40117" data-name="Pawnee County" d="M2674,470l-12,0 -124,3 0,2 -76,2 0,-42 -42,1 0,-42 -42,1 -1,-83 9,0 1,9 9,9 20,6 8,-7 14,-1 14,-19 6,-14 20,-13 12,7 5,14 0,8 8,13 -4,16 12,10 19,-2 13,13 0,7 11,4 13,-13 6,4 2,11 -14,9 -6,17 10,8 9,1 9,-5 7,-14 13,6 4,14 19,11 14,15 7,3 15,-2 18,4 0,14 -7,6Z"/>
    <path data-fips-int="40119" data-name="Payne County" d="M2538,475l1,60 2,44 -34,0 -167,3 0,-8 -13,9 -12,-2 -6,-9 -25,-5 -5,-15 -12,-1 -10,12 -1,-83 82,-1 -1,-42 83,-1 42,-1 0,42Z"/>
    <path data-fips-int="40121" data-name="Pittsburg County" d="M3046,987l0,13 -61,3 2,78 -2,5 3,83 1,41 -62,2 -82,3 -2,-42 -82,3 -1,-42 0,-65 -2,-70 7,-2 1,-14 13,-18 9,0 -3,-10 12,-5 26,3 8,-3 14,-18 12,-3 30,3 25,-12 6,-8 16,-5 10,5 16,-13 16,-9 3,-14 21,-6 3,9 1,40 -1,20 41,-1Z"/>
    <path data-fips-int="40123" data-name="Pontotoc County" d="M2491,1077l8,0 5,15 8,5 11,-6 2,-11 -9,-9 7,-10 10,1 8,13 11,1 16,-8 8,1 0,7 11,14 6,-2 8,-18 11,-3 16,5 5,-10 2,7 1,68 1,42 -42,1 2,41 0,42 -123,2 -1,-41 -41,1 0,-21 -2,-104 0,-52 7,2 9,14 14,0 12,-9 9,8 0,10Z"/>
    <path data-fips-int="40125" data-name="Pottawatomie County" d="M2544,807l1,30 -2,4 -24,-5 -5,-6 -12,-2 -6,7 -11,-1 1,58 3,78 0,67 2,40 -10,-4 0,-10 -9,-8 -12,9 -14,0 -9,-14 -7,-2 -10,5 -10,15 -14,7 -20,-5 -6,-5 -23,-1 -2,-92 0,-48 -1,-72 -1,-42 25,0Z"/>
    <path data-fips-int="40127" data-name="Pushmataha County" d="M3166,1163l48,-2 3,83 -43,1 5,126 -42,1 2,42 -2,0 -147,5 -99,3 -2,-48 -1,-66 -2,-53 42,-1 -1,-42 62,-2 -1,-41 10,0Z"/>
    <path data-fips-int="40129" data-name="Roger Mills County" d="M1474,553l0,50 2,4 0,41 -2,125 6,0 -1,20 -82,-1 -1,42 -164,-2 2,-180 0,-39 13,-4 16,-11 8,-8 -1,-17 8,-10 6,0 10,-9 13,2 3,7 -2,28 13,21 10,1 11,10 15,6 25,5 6,-7 16,-4 5,-17 14,-13 0,-8 6,-16 12,-7 2,-6 18,-5Z"/>
    <path data-fips-int="40131" data-name="Rogers County" d="M3031,294l-41,1 1,57 3,67 -2,1 2,83 -50,1 6,-8 -6,-16 -14,-3 -6,-14 -55,2 -20,0 -1,-76 -1,-34 6,-1 0,-13 -7,0 -1,-41 0,-42 145,-5 39,-1Z"/>
    <path data-fips-int="40133" data-name="Seminole County" d="M2617,888l2,83 -20,1 2,98 -8,18 -6,2 -11,-14 0,-7 -8,-1 -16,8 -11,-1 -8,-13 -10,-1 -7,10 9,9 -2,11 -11,6 -8,-5 -5,-15 -8,0 -2,-40 0,-67 -3,-78 -1,-58 11,1 6,-7 12,2 5,6 24,5 2,-4 10,2 3,-7 21,9 -1,-10 -8,-3 -1,-14 6,-3 18,12 6,-3 2,-14 14,-1Z"/>
    <path data-fips-int="40135" data-name="Sequoyah County" d="M3247,702l129,-5 21,114 0,9 -14,2 -6,4 2,7 -5,11 6,10 -6,4 -8,-4 -14,1 -8,-8 -8,-1 -11,15 -18,2 -7,-14 -17,-11 -14,-1 -11,13 -8,2 -4,-3 -2,-14 -6,-5 -8,7 -16,6 -6,-3 10,-11 -4,-11 -15,1 -14,-7 -9,1 -9,-8 -1,-11 -10,-3 -12,0 -6,-11 -11,-10 -4,-10 1,-12 -1,-41Z"/>
    <path data-fips-int="40137" data-name="Stephens County" d="M2142,1187l41,-1 2,84 1,103 -133,2 -94,0 -1,-103 -1,0 0,-84 20,0 36,0Z"/>
    <path data-fips-int="40139" data-name="Texas County" d="M881,73l-1,67 -3,5 -4,166 -99,-2 -158,-4 -157,-6 4,-117 1,-42 2,-7 2,-69 49,2 180,4 129,3Z"/>
    <path data-fips-int="40141" data-name="Tillman County" d="M1688,1230l0,42 64,0 0,48 0,35 21,0 0,84 -15,-3 -17,15 -28,-1 -19,-11 -24,-3 -19,-9 -14,-15 -4,5 -10,-9 -6,6 -20,5 -8,-6 -17,5 -8,-9 -6,6 -14,-4 -3,-22 1,-9 -5,-2 -1,-25 8,-9 -15,-16 -3,-19 4,4 0,-15 5,-2 -3,-18 6,-5 4,-20 8,3 -3,-9 9,-14 25,-3 6,2 1,-15 -9,-8 40,0 0,21Z"/>
    <path data-fips-int="40143" data-name="Tulsa County" d="M2846,341l7,0 0,13 -6,1 1,34 1,76 20,0 4,125 -22,0 0,22 -82,2 0,-21 -2,-83 -103,2 -2,-42 12,0 39,0 64,-2 -4,-125Z"/>
    <path data-fips-int="40145" data-name="Wagoner County" d="M2994,503l90,-3 1,16 -7,1 -3,23 -8,2 -10,10 6,10 -2,20 18,15 0,6 -13,22 -30,1 -8,-2 -22,11 -22,-3 -15,6 -17,3 -9,11 -7,-6 -14,-4 0,-23 -6,-10 -44,2 -21,1 0,-22 22,0 -4,-125 55,-2 6,14 14,3 6,16 -6,8Z"/>
    <path data-fips-int="40147" data-name="Washington County" d="M2848,66l1,27 -9,1 5,164 0,42 1,41 -73,2 -1,-75 -2,-50 -4,-150Z"/>
    <path data-fips-int="40149" data-name="Washita County" d="M1767,815l0,124 2,0 -1,51 -6,-12 -14,3 -1,4 -17,0 -11,-4 -239,-1 0,-42 -2,0 1,-124 110,1 96,0Z"/>
    <path data-fips-int="40151" data-name="Woods County" d="M1796,83l0,27 2,0 0,166 3,0 0,62 0,32 -7,-3 -22,6 -35,-12 -10,-14 -21,-2 -14,-10 -10,-17 -45,-1 0,-43 -24,-21 0,-9 -9,-13 -4,-13 -11,-5 -4,-9 -11,-9 -4,-9 -11,-4 -32,2 -17,-10 0,-4 0,-3 -9,-10 1,-7 -22,-10 -9,-21 -9,-10 -13,-28 145,1Z"/>
    <path data-fips-int="40153" data-name="Woodward County" d="M1637,317l0,124 2,1 0,40 -69,0 -96,-2 -82,-1 1,-39 -4,0 0,-95 1,-70 119,0 1,-105 0,-3 0,3 0,4 17,10 32,-2 11,4 4,9 11,9 4,9 11,5 4,13 9,13 0,9 24,21Z"/>
    <path data-fips-int="40079" data-name="Le Flore County" d="M3404,1236l-40,2 -147,6 -3,-83 -48,2 -3,-83 24,-1 -2,-41 27,-2 -2,-55 -2,-69 44,-2 -2,-58 8,-2 11,-13 14,1 17,11 7,14 18,-2 11,-15 8,1 8,8 14,-1 8,4 6,-4 -6,-10 5,-11 -2,-7 6,-4 14,-2 1,7 1,144 2,91 1,85Z"/>
  </g>
  <g class="cities">
    <circle r="3" cx="218.9" cy="81.0"/>
    <text x="218.9" y="81.0">Oklahoma City</text>
    <circle r="3" cx="277.2" cy="47.0"/>
    <text x="277.2" y="47.0">Tulsa</text>
    <circle r="3" cx="222.0" cy="92.6"/>
    <text x="222.0" y="92.6">Norman</text>
  </g>
</svg>