<?xml version="1.0" encoding="utf-8"?>
<!DOCTYPE svg PUBLIC "-//W3C//DTD SVG 1.1//EN" "http://www.w3.org/Graphics/SVG/1.1/DTD/svg11.dtd">
<svg version="1.1" xmlns="http://www.w3.org/2000/svg" width="1000" height="486" viewBox="0 0 1000 486">
  <path class="state" d="M964,197l7,36v53h1v57l1,8 1,92 1,28 -9,-4 -18,-2 -17,-7 -12,-15 -9,-1 -13,-9 -8,-4 -6,12h-30l-1,-7 -23,9 -9,6 -11,-7 -1,4 -25,7 -3,8 -12,-1 -7,10 -8,-12 -8,1 -3,-7 -11,-2 4,-7 -7,-3 -13,12 -11,-3 -8,-14 -12,19 -5,1v11h-9l-5,-9 3,-13 -15,2 -7,9 -9,-2v-10l-12,1 -5,-10 -11,-1 -18,18 -14,-6 2,-15h-13l-6,-19 -8,4 -19,-5 -5,10 -8,2 -13,-12 -17,3 -19,-7 -4,-4 -10,2 -16,-2 -3,-17 -5,-8 -15,-7v9l-21,-6 -3,6 -12,-1 -14,-17 -9,-9 -9,2 1,-65 1,-53 1,-63 1,-84 -105,-2 -73,-1 -45,-2 -106,-4 1,-68 108,4 68,2 50,1 102,1 59,1h100h47h71l77,-1 82,-3h24l41,-2 43,-1 42,-1 2,45 1,23 9,46Z"/>
  <g class="counties">
    <path data-fips-int="40001" data-name="Adair County" d="M964,197l-37,2 -1,-71 26,-1Z"/>
    <path data-fips-int="40003" data-name="Alfalfa County" d="M560,21l1,56 1,18h-49v-18v-56Z"/>
    <path data-fips-int="40005" data-name="Atoka County" d="M836,345l1,12h-13l2,48h-25l-46,1 -1,-35 29,-1v-12h6l-1,-24h24v11Z"/>
    <path data-fips-int="40007" data-name="Beaver County" d="M354,20v56v13l-105,-2 1,-47 2,-21Z"/>
    <path data-fips-int="40009" data-name="Beckham County" d="M422,225v6v47h-5h-42v12h-12l-12,-1 1,-53h47v-11Z"/>
    <path data-fips-int="40011" data-name="Blaine County" d="M550,136v60h-11v23h-34l-1,-35 -1,-48Z"/>
    <path data-fips-int="40013" data-name="Bryan County" d="M801,405l7,5v23l12,11 9,-1 -9,6 -11,-7 -1,4 -25,7 -3,8 -12,-1 -7,10 -8,-12 -8,1 -3,-7 -11,-2 4,-7 -4,-16 8,-6 -4,-8 15,-1 5,-6Z"/>
    <path data-fips-int="40015" data-name="Caddo County" d="M539,219l1,24h24v71h-59v-32v-51v-12Z"/>
    <path data-fips-int="40017" data-name="Canadian County" d="M609,195l1,48v5l-19,1 -27,-6h-24l-1,-24v-23h11Z"/>
    <path data-fips-int="40019" data-name="Carter County" d="M647,361v18l37,-1v6h11l1,22h-5v14l-66,1v-30l-1,-30Z"/>
    <path data-fips-int="40021" data-name="Cherokee County" d="M902,128h24l1,71 -35,1 -1,-23h-15l3,-8 -6,-13 5,-4 3,-11h10l-1,-12Z"/>
    <path data-fips-int="40023" data-name="Choctaw County" d="M896,403l1,30 -8,-4 -6,12h-30l-1,-7 -23,9 -9,1 -12,-11v-23l-7,-5h25Z"/>
    <path data-fips-int="40025" data-name="Cimarron County" d="M134,16l-2,21 -1,47 -106,-4 1,-68Z"/>
    <path data-fips-int="40027" data-name="Cleveland County" d="M669,242l1,60 -23,-4 -1,-15 -15,-17 -8,-4v-8l-13,-6v-5Z"/>
    <path data-fips-int="40029" data-name="Coal County" d="M788,322v12l1,24h-6v12l-29,1h-12v-12v-23l11,-1v-12Z"/>
    <path data-fips-int="40031" data-name="Comanche County" d="M505,314h59l1,24h-6v23l-11,1 -6,8h-24v3l-18,3v-14h-18v-12v-36Z"/>
    <path data-fips-int="40033" data-name="Cotton County" d="M559,361v31l1,19 -8,4 -19,-5 -5,10 -8,2 -13,-12v-25h-7v-9l18,-3v-3h24l6,-8Z"/>
    <path data-fips-int="40035" data-name="Craig County" d="M898,14l2,45 1,22 -36,1v-12l-11,1 -1,-42 2,-14Z"/>
    <path data-fips-int="40037" data-name="Creek County" d="M761,133v12l29,-1 1,30h-18l1,30 -48,1 -1,-41v-30Z"/>
    <path data-fips-int="40039" data-name="Custer County" d="M504,184l1,35v12h-83v-6l-1,-41Z"/>
    <path data-fips-int="40041" data-name="Delaware County" d="M942,58l1,23 9,46 -26,1h-24l-1,-47 -1,-22Z"/>
    <path data-fips-int="40043" data-name="Dewey County" d="M504,184h-83v-28v-20h47h35Z"/>
    <path data-fips-int="40045" data-name="Ellis County" d="M397,77l-1,16 1,43h24v20l-9,1 -17,22 -12,-2 -9,-7v-11l-10,1 -1,7 -10,6 1,-84v-13Z"/>
    <path data-fips-int="40047" data-name="Garfield County" d="M631,76l1,2v57h-24l-46,1v-41l-1,-18Z"/>
    <path data-fips-int="40049" data-name="Garvin County" d="M694,312v31h-23l-7,2 7,16h-24h-23v-24h-12l-1,-23Z"/>
    <path data-fips-int="40051" data-name="Grady County" d="M610,248l1,66 1,23 -47,1 -1,-24v-71l27,6Z"/>
    <path data-fips-int="40053" data-name="Grant County" d="M631,21v55l-70,1 -1,-56Z"/>
    <path data-fips-int="40055" data-name="Greer County" d="M417,278l10,11 -3,9 6,7 -3,7 8,7 -18,1 -2,11h-27l-6,-6 -1,-23 -18,-1v-11h12v-12Z"/>
    <path data-fips-int="40057" data-name="Harmon County" d="M363,290v11l18,1 1,23 6,6v30h-20l-9,-9 -9,2 1,-65Z"/>
    <path data-fips-int="40059" data-name="Harper County" d="M413,21l9,17 10,8 -1,31h-34l-43,-1v-56Z"/>
    <path data-fips-int="40061" data-name="Haskell County" d="M928,242l1,16 -13,1 1,19 -47,2v-14h-12l-1,-19 13,1 11,4 8,-6 12,-21 17,14 8,-3Z"/>
    <path data-fips-int="40063" data-name="Hughes County" d="M799,251v19h-1l-11,14 1,38 -35,1v-19h-10l-1,-28h6l-2,-24Z"/>
    <path data-fips-int="40065" data-name="Jackson County" d="M443,328l2,7h10l-4,9 2,6 -10,6 -6,7 1,22 -5,-8 -15,-7v9l-21,-6 -3,6 -12,-1 -14,-17h20v-30h27l2,-11 18,-1 11,-4Z"/>
    <path data-fips-int="40067" data-name="Jefferson County" d="M625,391v30v23l-5,-10 -11,-1 -18,18 -14,-6 2,-15h-13l-6,-19 -1,-19Z"/>
    <path data-fips-int="40069" data-name="Johnston County" d="M706,360l36,-1v12h12l1,35 -5,6 -15,1 -10,-8 -29,1 -1,-22h6v-24Z"/>
    <path data-fips-int="40071" data-name="Kay County" d="M708,20v25l-6,9h-8l-4,8 -15,1 1,12 -45,1v-55Z"/>
    <path data-fips-int="40073" data-name="Kingfisher County" d="M608,135l1,2v58l-59,1v-60h12Z"/>
    <path data-fips-int="40075" data-name="Kiowa County" d="M505,282v32h-23v36h-20v-6h-11l4,-9h-10l-2,-7 3,-13 -11,4 -8,-7 3,-7 -6,-7 3,-9 -10,-11h5h68Z"/>
    <path data-fips-int="40077" data-name="Latimer County" d="M917,278v16l-7,1v11l-7,1 1,24 -51,1v-47l17,-1v-4Z"/>
    <path data-fips-int="40081" data-name="Lincoln County" d="M725,164l1,41v24l-57,1 -1,-36v-29Z"/>
    <path data-fips-int="40083" data-name="Logan County" d="M632,135l13,1v23l23,6v29l-59,1v-58l-1,-2Z"/>
    <path data-fips-int="40085" data-name="Love County" d="M691,420l5,15 -12,19 -5,1v11h-9l-5,-9 3,-13 -15,2 -7,9 -9,-2v-10l-12,1v-23Z"/>
    <path data-fips-int="40087" data-name="McClain County" d="M670,302l14,4 10,-8v14l-83,2 -1,-66 13,6v8l8,4 15,17 1,15Z"/>
    <path data-fips-int="40089" data-name="McCurtain County" d="M973,351l1,92 1,28 -9,-4 -18,-2 -17,-7 -12,-15 -9,-1 -13,-9 -1,-30 1,-12 11,-1 -1,-36h11Z"/>
    <path data-fips-int="40091" data-name="McIntosh County" d="M870,248l-13,-1 -17,12 -15,5h-10l-8,6h-8v-19v-12h11v-12h6v-12l11,-1 41,-1Z"/>
    <path data-fips-int="40093" data-name="Major County" d="M513,95h49v41h-12h-47h-35v-47h12l7,8 19,8 7,-1Z"/>
    <path data-fips-int="40095" data-name="Marshall County" d="M735,413l4,8 -8,6 4,16 -7,-3 -13,12 -11,-3 -8,-14 -5,-15v-14h5l29,-1Z"/>
    <path data-fips-int="40097" data-name="Mayes County" d="M901,81l1,47 -12,1 1,12h-10l-25,1 -2,-59 11,-1Z"/>
    <path data-fips-int="40099" data-name="Murray County" d="M694,343l1,5h11v12h-5v24h-6h-11v-6l-37,1v-18h24l-7,-16 7,-2Z"/>
    <path data-fips-int="40101" data-name="Muskogee County" d="M876,177h15l1,23v15l9,10 -12,21 -8,6 -11,-4 -2,-35 -41,1v-23h-7v-18h13l6,12 13,-6Z"/>
    <path data-fips-int="40103" data-name="Noble County" d="M682,87h-3l1,24h11v12h-24v12l-22,1 -13,-1v-57l-1,-2 45,-1h16l2,6Z"/>
    <path data-fips-int="40105" data-name="Nowata County" d="M855,15l-2,14 1,42 -41,1 -2,-47 3,-8Z"/>
    <path data-fips-int="40107" data-name="Okfuskee County" d="M774,204v12l12,-1v24h13v12l-53,1v-24l-13,4 4,7 -10,-1 -1,-9v-24Z"/>
    <path data-fips-int="40109" data-name="Oklahoma County" d="M668,194l1,36v12l-59,1 -1,-48Z"/>
    <path data-fips-int="40111" data-name="Okmulgee County" d="M791,174l24,-1h5v18h7v23l-11,1v12h-6v12h-11h-13v-24l-12,1v-12l-1,-30Z"/>
    <path data-fips-int="40113" data-name="Osage County" d="M790,17l2,79 1,36 -30,1 3,-8 -11,-1 -16,-14 -3,5 -14,-17 -8,-2 1,-7 -7,-10 -12,13 -12,1 -2,-6 12,-6 -2,-6h-16l-1,-12 15,-1 4,-8h8l6,-9v-25Z"/>
    <path data-fips-int="40115" data-name="Ottawa County" d="M942,58l-42,1 -2,-45 42,-1Z"/>
    <path data-fips-int="40117" data-name="Pawnee County" d="M763,133h-2l-36,1 -22,1v-12h-12v-12h-11l-1,-24h3l2,6 12,-1 12,-13 7,10 -1,7 8,2 14,17 3,-5 16,14 11,1Z"/>
    <path data-fips-int="40119" data-name="Payne County" d="M725,134v30l-57,1 -23,-6v-23l22,-1v-12h24h12v12Z"/>
    <path data-fips-int="40121" data-name="Pittsburg County" d="M870,280v4l-17,1v47l1,12 -18,1h-24v-11h-24v-12l-1,-38 11,-14h1h8l8,-6h10l15,-5 17,-12 1,19h12Z"/>
    <path data-fips-int="40123" data-name="Pontotoc County" d="M711,306l5,6 6,-5 21,-3h10v19v12l-11,1v23l-36,1v-12h-11l-1,-5v-31v-14l5,5 9,-2Z"/>
    <path data-fips-int="40125" data-name="Pottawatomie County" d="M726,229l1,9 -17,-2 1,70 -3,-5 -9,2 -5,-5 -10,8 -14,-4 -1,-60v-12Z"/>
    <path data-fips-int="40127" data-name="Pushmataha County" d="M904,331l13,-1 1,24h-11l1,36 -11,1 -1,12 -70,2 -2,-48h13l-1,-12 18,-1 -1,-12Z"/>
    <path data-fips-int="40129" data-name="Roger Mills County" d="M421,156v28l1,41h-23v11h-47l1,-63 10,-6 1,-7 10,-1v11l9,7 12,2 17,-22Z"/>
    <path data-fips-int="40131" data-name="Rogers County" d="M865,82l-11,1 2,59h-16l-4,-11h-17h-5l-1,-35v-24l41,-1 11,-1Z"/>
    <path data-fips-int="40133" data-name="Seminole County" d="M746,252l2,24h-6l1,28 -21,3 -6,5 -5,-6 -1,-70 17,2 10,1 -4,-7 13,-4Z"/>
    <path data-fips-int="40135" data-name="Sequoyah County" d="M927,199l37,-2 7,36 -7,2 1,8 -12,-3 -9,5 -7,-7 -9,4 -2,-6 -8,3 -17,-14 -9,-10v-15Z"/>
    <path data-fips-int="40137" data-name="Stephens County" d="M612,337h12v24l1,30 -66,1v-31v-23h6Z"/>
    <path data-fips-int="40139" data-name="Texas County" d="M252,19l-2,21 -1,47 -73,-1 -45,-2 1,-47 2,-21 68,2Z"/>
    <path data-fips-int="40141" data-name="Tillman County" d="M482,350v12h18v14v9h7v25l-17,3 -19,-7 -4,-4 -10,2 -16,-2 -3,-17 -1,-22 6,-7 10,-6 -2,-6h11v6Z"/>
    <path data-fips-int="40143" data-name="Tulsa County" d="M813,96l1,35h5l1,36 -5,6 -24,1 -1,-30 -29,1v-12h2l30,-1 -1,-36Z"/>
    <path data-fips-int="40145" data-name="Wagoner County" d="M856,142l25,-1 -3,11 -5,4 6,13 -3,8 -24,2 -13,6 -6,-12h-13h-5l5,-6 -1,-36h17l4,11Z"/>
    <path data-fips-int="40147" data-name="Washington County" d="M814,17l-3,8 2,47v24h-21l-2,-79Z"/>
    <path data-fips-int="40149" data-name="Washita County" d="M505,231v51l-15,-4h-68v-47Z"/>
    <path data-fips-int="40151" data-name="Woods County" d="M513,21v56v18v9l-7,1 -19,-8 -7,-8h-12v-13l-19,-25h-16l-1,-5 -10,-8 -9,-17Z"/>
    <path data-fips-int="40153" data-name="Woodward County" d="M468,89v47h-47h-24l-1,-43 1,-16h34l1,-31 1,5h16l19,25Z"/>
    <path data-fips-int="40079" data-name="Le Flore County" d="M973,351l-55,3 -1,-24 -13,1 -1,-24 7,-1v-11l7,-1v-16l-1,-19 13,-1 -1,-16 9,-4 7,7 9,-5 12,3 -1,-8 7,-2v53h1v57Z"/>
  </g>
  <path class="mesh" d="M561,77l1,18h-49v-18v-56M853,332l1,12 -18,1 1,12h-13l2,48h-25l-46,1 -1,-35 29,-1v-12h6l-1,-24h24v11h24M354,20v56v13M249,87l1,-47 2,-21M352,236h47v-11h23v6v47h-5h-42v12h-12l-12,-1M801,405l7,5v23l12,11 9,-1M735,443l-4,-16 8,-6 -4,-8 15,-1 5,-6M539,219l1,24h24v71h-59v-32v-51v-12M550,196l59,-1 1,48v5l-19,1 -27,-6M624,361v-24h-12l-1,-23 83,-2v31h-23l-7,2 7,16h-24v18l37,-1v6h11l1,22h-5v14l-66,1v-30l-1,-30h23M826,405l70,-2 1,30M134,16l-2,21 -1,47M610,243l59,-1 1,60 -23,-4 -1,-15 -15,-17 -8,-4v-8l-13,-6M754,371h-12v-12v-23l11,-1v-12l35,-1v12M564,314l1,24h-6v23l-11,1 -6,8h-24v3l-18,3v-14h-18v-12v-36h23M559,361v31l1,19M507,410v-25h-7v-9M898,14l2,45 1,22 -36,1v-12l-11,1 -1,-42 2,-14M763,133h-2v12l29,-1 1,30h-18l1,30 -48,1 -1,-41v-30l36,-1M505,231h-83M422,225l-1,-41h83M902,128l-1,-47M900,59l42,-1M421,184v-28v-20h47h35M354,76l43,1 -1,16 1,43h24M421,156l-9,1 -17,22 -12,-2 -9,-7v-11l-10,1 -1,7 -10,6M560,21l1,56 70,-1 1,2v57h-24l-46,1v-41M610,248l1,66M612,337l-47,1M708,20v25l-6,9h-8l-4,8 -15,1 1,12 -45,1M417,278l10,11 -3,9 6,7 -3,7 8,7 -18,1 -2,11h-27l-6,-6 -1,-23 -18,-1v-11M388,331v30h-20M413,21l9,17 10,8 -1,31h-34M971,233l-7,2 1,8 -12,-3 -9,5 -7,-7 -9,4 1,16 -13,1 1,19 -47,2v-14h-12l-1,-19 13,1 11,4 8,-6 12,-21 17,14 8,-3 2,6M753,323v-19h-10l-1,-28h6l-2,-24 53,-1v19h-1l-11,14 1,38M927,199l-1,-71 26,-1M435,319l11,-4 -3,13 2,7h10l-4,9 2,6 -10,6 -6,7 1,22M625,421v23M559,392l66,-1M695,384h6v-24h5l36,-1M735,413l-10,-8 -29,1M668,194l-59,1M550,136v60h-11v23h-34l-1,-35 -1,-48h47h12M482,350h-20v-6h-11M422,278h68l15,4M917,278v16l-7,1v11l-7,1 1,24 -51,1v-47l17,-1v-4M726,205v24l-57,1 -1,-36v-29l57,-1M632,135l13,1v23l23,6M691,420l5,15M670,302l14,4 10,-8v14M896,403l1,-12 11,-1 -1,-36h11l55,-3M857,247l-17,12 -15,5h-10l-8,6h-8M799,251v-12h11v-12h6v-12l11,-1 41,-1 2,35M468,136v-47h12l7,8 19,8 7,-1v-9M881,141l-25,1 -2,-59 11,-1M694,343l1,5h11v12M892,200v15l9,10M827,214v-23h-7v-18h13l6,12 13,-6 24,-2M676,75h16l2,6 -12,6h-3l1,24h11v12h-24v12l-22,1M854,71l-41,1 -2,-47 3,-8M774,204v12l12,-1v24h13M746,252v-24l-13,4 4,7 -10,-1 -1,-9M669,230v12M791,174l24,-1h5M790,17l2,79 1,36 -30,1 3,-8 -11,-1 -16,-14 -3,5 -14,-17 -8,-2 1,-7 -7,-10 -12,13 -12,1 -2,-6M725,134l-22,1v-12h-12M694,298l5,5 9,-2 3,5 5,6 6,-5 21,-3M727,238l-17,-2 1,70M904,331l13,-1 1,24M856,142h-16l-4,-11h-17h-5l-1,-35v-24M819,131l1,36 -5,6M792,96h21M468,89v-13l-19,-25h-16l-1,-5M964,197l-37,2 -35,1 -1,-23h-15l3,-8 -6,-13 5,-4 3,-11h10l-1,-12 12,-1h24M631,21v55M608,135l1,2v58"/>
  <g class="cities">
    <circle r="7" cx="625" cy="230"/>
    <text x="625" y="230">Oklahoma City</text>
    <circle r="7" cx="792" cy="133"/>
    <text x="792" y="133">Tulsa</text>
    <circle r="7" cx="529" cy="348"/>
    <text x="529" y="348">Lawton</text>
  </g>
</svg>