<?xml version="1.0" encoding="utf-8"?>
<!DOCTYPE svg PUBLIC "-//W3C//DTD SVG 1.1//EN" "http://www.w3.org/Graphics/SVG/1.1/DTD/svg11.dtd">
<svg version="1.1" xmlns="http://www.w3.org/2000/svg" width="350" height="263" viewBox="0 0 350 263">
  <g class="counties" transform="scale(0.1)">
    <path data-fips-int="41001" data-name="Baker County" d="M3297,757l-23,32 8,54 -38,86 -47,26 -16,45 -17,72 -31,39 -2,58 18,19 -10,22 -110,4 0,-42 -48,-38 -153,5 -41,43 -29,58 -35,10 -106,3 10,-45 23,-24 -10,-13 5,-34 19,-3 0,-39 26,-35 -12,-12 -43,-23 -28,-8 5,-26 18,-6 65,-18 -13,-48 23,-18 10,-43 -8,-10 31,-35 25,-17 44,28 21,-5 30,-35 13,4 25,35 89,-4 -2,-50 120,-5Z"/>
    <path data-fips-int="41003" data-name="Benton County" d="M714,980l32,41 -40,6 -9,29 -31,17 21,33 -6,107 13,16 -168,-1 -75,-8 -16,-36 41,-6 0,-42 52,2 5,-166Z"/>
    <path data-fips-int="41005" data-name="Clackamas County" d="M870,749l15,-34 5,-40 -43,-2 -7,-32 10,-16 40,10 2,-59 38,1 -3,-14 338,4 5,15 40,33 10,47 -10,24 -20,31 20,49 20,17 -29,29 -35,13 2,44 25,27 -268,-2 -56,-31 -22,-45 -45,-26 -28,-39Z"/>
    <path data-fips-int="41009" data-name="Columbia County" d="M887,407l-65,1 -40,-17 2,-17 -135,-3 9,-208 53,1 6,-18 35,-7 87,62 35,75 5,82Z"/>
    <path data-fips-int="41013" data-name="Crook County" d="M2141,1232l2,199 -50,1 2,150 -50,0 -150,0 0,-49 -50,0 0,-50 -153,0 0,-50 -98,-2 0,-98 -48,-3 0,-146 48,0 0,-48 67,1 0,-50 181,-1 0,73 148,-1 2,26 49,0 0,49Z"/>
    <path data-fips-int="41015" data-name="Curry County" d="M292,2131l28,2 31,-30 4,-20 48,-7 40,4 -48,80 -29,75 -11,6 -17,-3 -13,3 -10,5 -8,73 53,5 38,78 -30,45 12,27 -10,30 10,26 -165,-9 -55,-57 -10,-71 -15,-21 -5,-110 22,-68 -5,-54 -23,-44 -19,-1 -15,-61 35,-65 93,4 40,44 -3,37 5,84Z"/>
    <path data-fips-int="41017" data-name="Deschutes County" d="M1546,1184l0,146 48,3 0,98 98,2 0,50 153,0 0,50 50,0 0,49 150,0 0,51 -221,0 -375,-4 -278,-4 15,-7 -8,-19 12,-58 -5,-39 25,-49 20,3 10,-32 5,-42 28,-33 -3,-73 -9,-18 -15,-21 -1,-56 251,2Z"/>
    <path data-fips-int="41019" data-name="Douglas County" d="M1115,1724l2,0 45,46 14,51 -24,34 -24,78 -80,4 -1,41 -48,-1 -27,32 -40,-1 -20,25 -32,7 -51,56 -65,2 -27,11 -58,-3 -33,25 -18,-13 -40,-2 -34,17 -48,-12 -10,-13 -55,-2 2,-26 -40,-4 0,-118 27,0 1,-50 24,-1 3,-98 -25,0 2,-100 -22,-1 5,-48 -27,-1 4,-54 -142,-6 5,-28 30,-45 24,15 -10,-4 -4,-9 -20,-1 -18,36 25,-108 95,2 20,-25 13,-6 10,-12 50,2 33,15 37,54 25,12 50,3 0,16 86,2 -3,102 10,38 153,0 -2,62Z"/>
    <path data-fips-int="41021" data-name="Gilliam County" d="M2081,797l-284,0 -3,-8 16,-10 -8,-53 -25,-10 7,-112 13,-34 53,-20 -21,-56 -25,-27 -70,-53 38,0 30,24 106,-16 19,-23 68,-28 -2,317 52,0 0,50 48,1 2,49Z"/>
    <path data-fips-int="41023" data-name="Grant County" d="M2595,829l64,1 39,18 9,0 8,10 -10,43 -23,18 13,48 -65,18 -18,6 -5,26 28,8 43,23 12,12 -26,35 0,39 -19,3 -5,34 10,13 -23,24 -10,45 106,-3 7,124 -148,3 -93,-2 0,51 -235,5 -111,0 -2,-199 -1,-296 -9,0 -1,-98 206,-4Z"/>
    <path data-fips-int="41025" data-name="Harney County" d="M2730,1374l7,374 6,62 5,209 5,-1 10,366 10,15 4,145 -173,6 -323,6 -3,-82 -5,-350 -243,6 0,-248 16,-1 -1,-248 0,-51 50,0 -2,-150 50,-1 111,0 235,-5 0,-51 93,2Z"/>
    <path data-fips-int="41027" data-name="Hood River County" d="M1310,686l10,-24 -10,-47 -40,-33 -5,-15 -35,-33 -5,-74 46,-32 30,7 85,-16 32,16 0,101 -19,0 0,150Z"/>
    <path data-fips-int="41029" data-name="Jackson County" d="M1033,2544l-31,-3 -235,-1 -134,-5 13,-404 33,-25 58,3 27,-11 65,-2 51,-56 32,-7 20,-25 40,1 27,-32 48,1 0,76 -9,222Z"/>
    <path data-fips-int="41031" data-name="Jefferson County" d="M1847,939l-5,35 0,112 -181,1 0,50 -67,-1 0,48 -48,0 -50,-1 -251,-2 -2,-54 17,-16 1,-58 7,-39 10,-44 -17,-30 22,-7 271,5Z"/>
    <path data-fips-int="41033" data-name="Josephine County" d="M443,2080l-2,26 55,2 10,13 48,12 34,-17 40,2 18,13 -13,404 -253,-5 -10,-26 10,-30 -12,-27 30,-45 -38,-78 -53,-5 8,-73 10,-5 13,-3 17,3 11,-6 29,-75Z"/>
    <path data-fips-int="41035" data-name="Klamath County" d="M1449,1629l0,147 -6,0 -7,352 198,2 0,429 -226,-3 -375,-12 5,-268 9,-222 0,-76 1,-41 80,-4 24,-78 24,-34 -14,-51 -45,-46 -2,0 5,-70 51,-29Z"/>
    <path data-fips-int="41037" data-name="Lake County" d="M2045,1633l1,248 -16,1 0,248 243,-6 5,350 3,82 -371,3 -276,0 0,-429 -198,-2 7,-352 6,0 0,-147 375,4Z"/>
    <path data-fips-int="41039" data-name="Lane County" d="M328,1395l0,1 -1,1 -7,-3 8,-2 -8,2 -18,-2 -5,-26 16,-117 -1,-30 139,1 75,8 168,1 7,49 106,1 2,-32 15,-15 58,1 33,22 107,25 23,-23 216,1 9,18 3,73 -28,33 -5,42 -10,32 -20,-3 -25,49 5,39 -12,58 8,19 -15,7 -51,29 -5,70 -253,-4 2,-62 -153,0 -10,-38 3,-102 -86,-2 0,-16 -50,-3 -25,-12 -37,-54 -33,-15 -50,-2 -10,12 -13,6 -20,25 -95,-2 12,-85 3,22 27,5 1,-1Z"/>
    <path data-fips-int="41043" data-name="Linn County" d="M1268,1014l-7,39 -1,58 -17,16 2,54 1,56 15,21 -216,-1 -23,23 -107,-25 -33,-22 -58,-1 -15,15 -2,32 -106,-1 -7,-49 -13,-16 6,-107 -21,-33 31,-17 9,-29 40,-6 -32,-41 5,-18 42,9 26,24 73,-52 44,11 30,-8 38,21 95,3 33,35 22,-18 45,23Z"/>
    <path data-fips-int="41045" data-name="Malheur County" d="M3139,1210l32,24 10,-14 26,28 35,-8 0,24 34,14 -32,72 20,35 -35,76 5,142 10,277 22,429 8,216 -303,13 -194,6 -4,-145 -10,-15 -10,-366 -5,1 -5,-209 -6,-62 -7,-374 -7,-124 35,-10 29,-58 41,-43 153,-5 48,38 0,42Z"/>
    <path data-fips-int="41047" data-name="Marion County" d="M870,751l4,2 28,39 45,26 22,45 56,31 268,2 -10,37 -22,7 17,30 -10,44 -101,-4 -45,-23 -22,18 -33,-35 -95,-3 -38,-21 -30,8 -44,-11 -73,52 -26,-24 -42,-9 22,-36 -35,-12 30,-54 30,-11 -14,-32 4,-39 28,-22 -18,-59 18,-25 63,1 43,2 -5,40Z"/>
    <path data-fips-int="41049" data-name="Morrow County" d="M2221,307l0,181 75,0 2,48 41,0 2,223 -5,75 -206,4 -49,0 0,-41 14,-9 -2,-49 -48,-1 0,-50 -52,0 2,-317 78,-22 52,-6 28,-36 45,8Z"/>
    <path data-fips-int="41051" data-name="Multnomah County" d="M887,407l8,47 47,25 68,22 32,-2 51,16 132,-55 5,74 35,33 -338,-4 3,14 -38,-1 2,-50 -72,-68 0,-50Z"/>
    <path data-fips-int="41053" data-name="Polk County" d="M756,778l-4,39 14,32 -30,11 -30,54 35,12 -22,36 -5,18 -181,-8 -50,-11 7,-175 1,-18Z"/>
    <path data-fips-int="41055" data-name="Sherman County" d="M1794,789l-92,-1 5,-19 -61,-47 -60,-6 0,-54 23,-1 38,-46 17,-75 -23,-7 -15,-64 108,-55 70,53 25,27 21,56 -53,20 -13,34 -7,112 25,10 8,53Z"/>
    <path data-fips-int="41059" data-name="Umatilla County" d="M2798,247l4,81 0,24 -27,0 -7,76 -20,0 4,125 -32,1 0,25 -93,1 0,42 -107,9 2,50 17,0 0,35 45,-1 0,66 11,0 0,48 -259,5 5,-75 -2,-223 -41,0 -2,-48 -75,0 0,-181 72,-12 49,2 55,-40 212,-4Z"/>
    <path data-fips-int="41061" data-name="Union County" d="M3103,764l-120,5 2,50 -89,4 -25,-35 -13,-4 -30,35 -21,5 -44,-28 -25,17 -31,35 -9,0 -39,-18 -64,-1 0,-48 -11,0 0,-66 -45,1 0,-35 -17,0 -2,-50 107,-9 0,-42 93,-1 0,-25 32,-1 -4,-125 20,0 7,-76 27,0 0,-24 91,-3 2,49 -17,2 2,47 26,41 2,59 17,-2 18,103 53,37 2,32 18,27 85,-4Z"/>
    <path data-fips-int="41063" data-name="Wallowa County" d="M3297,757l-194,7 -2,-48 -85,4 -18,-27 -2,-32 -53,-37 -18,-103 -17,2 -2,-59 -26,-41 -2,-47 17,-2 -2,-49 -91,3 -4,-81 178,-3 245,-9 21,45 35,51 37,1 13,20 25,0 27,22 5,34 28,45 -25,30 -18,58 -34,75 -16,102Z"/>
    <path data-fips-int="41065" data-name="Wasco County" d="M1626,469l15,64 23,7 -17,75 -38,46 -23,1 0,54 60,6 61,47 -5,19 92,1 3,8 17,117 33,25 -293,-1 -271,-5 10,-37 -25,-27 -2,-44 35,-13 29,-29 -20,-17 -20,-49 20,-31 89,0 0,-150 19,0 0,-101 56,0 35,18 5,30 30,-1 18,-19 59,-3Z"/>
    <path data-fips-int="41067" data-name="Washington County" d="M822,408l0,50 72,68 -2,50 -2,59 -40,-10 -10,16 -39,-17 -25,-35 -35,0 -5,-18 -133,-5 10,-48 35,-17 24,-32 -48,-17 -23,-43 48,1 0,-39 135,3 -2,17Z"/>
    <path data-fips-int="41069" data-name="Wheeler County" d="M2081,797l0,41 49,0 1,98 9,0 1,296 -100,1 0,-49 -49,0 -2,-26 -148,1 0,-73 0,-112 5,-35 -33,-25 -17,-117Z"/>
    <path data-fips-int="41071" data-name="Yamhill County" d="M840,641l7,32 -63,-1 -18,25 18,59 -28,22 -265,-10 -26,-1 5,-80 129,4 4,-125 133,5 5,18 35,0 25,35Z"/>
    <path data-fips-int="41007" data-name="Clatsop County" d="M538,139l3,2 -3,-2 5,2 11,-7 9,-1 5,1 38,-26 52,55 -9,208 -135,-2 -8,-7 -96,-3 3,-72 -10,-22 23,-17 4,-61 -30,-84 60,43 0,-18 40,-5Z"/>
    <path data-fips-int="41011" data-name="Coos County" d="M265,1731l0,2 0,-2 0,-1 -5,-2 -13,-30 -30,5 36,-104 142,6 -4,54 27,1 -5,48 22,1 -2,100 25,0 -3,98 -24,1 -1,50 -27,0 0,118 -48,7 -4,20 -31,30 -28,-2 -32,7 -5,-84 3,-37 -40,-44 -93,-4 50,-174 -8,-28 40,-24 21,-33 37,31 3,-3 0,-2 -3,-2 0,1 3,3 -3,3 0,-7 -2,-1 -3,-5 5,2Z"/>
    <path data-fips-int="41041" data-name="Lincoln County" d="M490,786l-7,175 50,11 -5,166 -52,-2 0,42 -41,6 16,36 -139,-1 20,-90 -4,-37 17,-97 0,-90 26,-47 -6,-16 13,-61Z"/>
    <path data-fips-int="41057" data-name="Tillamook County" d="M649,371l0,39 -48,-1 23,43 48,17 -24,32 -35,17 -10,48 -4,125 -129,-4 -5,80 26,1 -1,18 -112,-5 22,-134 -5,-41 18,-29 -13,-33 10,-43 20,35 11,-13 -13,-33 -20,-8 15,-68 12,0 5,0 -2,-6 -3,4 0,-4 3,0 -18,6 -10,-55 96,3 8,7Z"/>
  </g>
  <g class="cities">
    <circle r="3" cx="92.1" cy="52.6"/>
    <text x="92.1" y="52.6">Portland</text>
    <circle r="3" cx="73.1" cy="136.4"/>
    <text x="73.1" y="136.4">Eugene</text>
    <circle r="3" cx="76.8" cy="85.5"/>
    <text x="76.8" y="85.5">Salem</text>
  </g>
</svg>