<?xml version="1.0" encoding="utf-8"?>
<!DOCTYPE svg PUBLIC "-//W3C//DTD SVG 1.1//EN" "http://www.w3.org/Graphics/SVG/1.1/DTD/svg11.dtd">
<svg version="1.1" xmlns="http://www.w3.org/2000/svg" width="1000" height="750" viewBox="0 0 1000 750">
  <path class="state" d="M942,215l-6,8 1,16 -10,25 -15,10 -8,31 -9,10 2,30 5,6 6,-3 9,8 9,-4v9l10,3 -9,14 4,10 -4,12 1,14 -5,1v33l3,69 4,67v21l3,68 3,47 -62,3 -81,3 -109,3h-33l-18,1h-166l-46,-1h-42l-84,-4h-52l-63,-2 -72,-2 -47,-1 -17,-18v-14l-6,-10v-41l6,-10 -2,-17 -13,-14 -2,-18 8,-17 14,-47 -2,-11 11,-4 6,-12 12,10 -6,-13 -11,7 4,-11 8,-25 9,-40 4,-23 5,-45 4,-16 1,-21 4,-21v-28l9,-39 7,-38 -2,-10 6,-9 -4,-11 3,-10 7,10 -2,-15 -5,-2 4,-20 4,1 -11,-13 3,-4 1,-22 -4,-5 8,-7v-16l-8,-20 12,8 5,-4 13,4 18,-2 11,-8 14,17h14l3,-5 11,-2 24,17 11,23 4,37 1,13 13,6 35,11h9l29,-11 9,-4 5,-8h17l23,-5 10,5 11,-1 15,6 1,9 8,1 6,-7 19,1 25,-11 5,-4 12,1 6,6 32,-6 5,-5 19,-8 20,-6 18,-2 11,-11 16,1 20,-4 15,1 21,-12 63,-1 47,-1 57,-1 62,-3 17,27h9l5,6h7l8,7 1,10 8,7 -1,9 -8,11 -12,32 -5,30Z"/>
  <g class="counties">
    <path data-fips-int="41001" data-name="Baker County" d="M942,215l-6,8 1,16 -10,25 -15,10 -8,31 -9,10 2,30 -32,1v-15l-12,-8 -45,1 -9,10 -12,19 -8,3 -33,1 4,-13 7,-6 -1,-13 6,-4 -1,-10 6,-5 -4,-12 -19,-5 -1,-6 27,-8 -2,-18h8l-2,-16 3,-8 9,-6 20,7 9,-11 5,1 7,10 26,-1 -1,-14 34,-2Z"/>
    <path data-fips-int="41003" data-name="Benton County" d="M204,279l9,11 -11,2 -11,12 5,21 -3,4 1,16 4,5 -58,-1 -11,-1 -5,-10 12,-3v-11h15l1,-47Z"/>
    <path data-fips-int="41005" data-name="Clackamas County" d="M361,161l5,10 8,4v19l-6,9 10,23 -17,9 1,12 8,8 -77,-1 -11,-6 -6,-3 -6,-13 -8,-3 -14,-16 6,-21h-13l-2,-10 3,-4 13,2v-17l9,-3h37Z"/>
    <path data-fips-int="41009" data-name="Columbia County" d="M254,116h-19l-14,-10 -35,-1 1,-59h14l3,-5 11,-2 24,17 11,23Z"/>
    <path data-fips-int="41013" data-name="Crook County" d="M611,351l1,57h-14v43h-57v-14h-14v-14h-44v-14l-28,-1v-29l-13,-1 -1,-40h14v-14h19v-15h52v21h42v8h15v13Z"/>
    <path data-fips-int="41015" data-name="Curry County" d="M114,592l12,2 -15,24 2,2 -10,19h-14l-4,22 18,3 8,14 -1,16 -6,4 4,23 -47,-1 -17,-18v-14l-6,-10v-41l6,-10 -2,-17 -13,-14 -2,-18 8,-17 28,1 13,18 -5,6 4,25 17,-3 9,-8v-6Z"/>
    <path data-fips-int="41017" data-name="Deschutes County" d="M441,338l1,40 13,1v29l28,1v14h44v14h14v14h43v14h-171l-78,-2 3,-1v-39l7,-9 6,1 5,-14 -1,-8 8,-7 -3,-28 -5,-5v-17h49Z"/>
    <path data-fips-int="41019" data-name="Douglas County" d="M318,492l9,5 7,16 2,9 -7,6 -5,25 -25,-1v12l-15,-1 -7,10h-12l-8,9 -5,-1 -15,16 -27,4h-16l-10,7 -9,-4 -17,4 -12,-2 -4,-5h-16v-7l-12,-2v-33h8v-15l7,-1 2,-27h-8l1,-29h-6l1,-14h-7l1,-16 -42,-2 9,-40h28v-5l13,-7h14l9,5 10,15 22,5v4l24,1 -1,29 4,10h43v18h35Z"/>
    <path data-fips-int="41021" data-name="Gilliam County" d="M594,227h-81l-1,-2 4,-5 -3,-14 -7,-9 3,-7v-15l4,-5v-9l14,-4 -8,-22h-4l-20,-18 12,1 6,6 32,-6 5,-5 19,-8v90l15,1v14h14v15Z"/>
    <path data-fips-int="41023" data-name="Grant County" d="M742,236l11,5 8,-5 13,5 2,16h-8l2,18 -27,8 1,6 19,5 4,12 -6,5 1,10 -6,4 1,13 -7,6 -4,13 33,-1 1,35 -70,1 1,14 -99,2 -1,-57v-84h-3v-29l59,-1Z"/>
    <path data-fips-int="41025" data-name="Harney County" d="M780,391l1,7v87l2,20 1,69 3,16 2,90h3l1,46 -109,3h-33l-2,-123 -69,2v-71h5l-1,-72v-14h14v-43h14l99,-2 -1,-14Z"/>
    <path data-fips-int="41027" data-name="Hood River County" d="M374,194v-19l-8,-4 -5,-10 -10,-10 -1,-20 5,-8h17l23,-5 10,5v30h-5l-1,42Z"/>
    <path data-fips-int="41029" data-name="Jackson County" d="M295,725h-52l-63,-2 1,-46 2,-27 1,-42 10,-7h16l27,-4 15,-16 5,1 8,-9h12l7,-10 15,1 -1,49 -2,70Z"/>
    <path data-fips-int="41031" data-name="Jefferson County" d="M528,267l-2,8v34h-52v15h-19v14h-14l-37,-2h-49v-16l6,-13 1,-18 3,-15 -6,-5 7,-4 53,2Z"/>
    <path data-fips-int="41033" data-name="Josephine County" d="M126,594v7h16l4,5 12,2 17,-4 9,4 -1,42 -2,27 -1,46 -72,-2 -4,-23 6,-4 1,-16 -8,-14 -18,-3 4,-22h14l10,-19 -2,-2Z"/>
    <path data-fips-int="41035" data-name="Klamath County" d="M413,465l1,42h-2l-1,99 56,1v123l-46,-1h-42l-84,-4 1,-42 2,-70 1,-49v-12l25,1 5,-25 7,-6 -2,-9 -7,-16 -9,-5 1,-20 16,-9Z"/>
    <path data-fips-int="41037" data-name="Lake County" d="M584,465l1,72h-5v71l69,-2 2,123 -18,1h-166v-123l-56,-1 1,-99h2l-1,-42h70Z"/>
    <path data-fips-int="41039" data-name="Lane County" d="M360,358l3,28 -8,7 1,8 -5,14 -6,-1 -7,9v39l-3,1 -16,9 -1,20 -37,-2h-35v-18h-43l-4,-10 1,-29 -24,-1v-4l-22,-5 -10,-15 -9,-5h-14l-13,7v5h-28l4,-23 5,-45 40,1 11,1 58,1 1,14 31,1 6,-14h16l17,10 20,2 9,-5Z"/>
    <path data-fips-int="41043" data-name="Linn County" d="M362,289l-1,18 -6,13v33l5,5h-62l-9,5 -20,-2 -17,-10h-16l-6,14 -31,-1 -1,-14 -4,-5 -1,-16 3,-4 -5,-21 11,-12 11,-2 -9,-11v-5h11l5,11 25,-16 13,3 9,-3 10,7h25l9,9 11,-4 11,7Z"/>
    <path data-fips-int="41045" data-name="Malheur County" d="M897,345l5,6 6,-3 9,8 9,-4v9l10,3 -9,14 4,10 -4,12 1,14 -5,1v33l3,69 4,67v21l3,68 3,47 -62,3 -81,3 -1,-46h-3l-2,-90 -3,-16 -1,-69 -2,-20v-87l-1,-7 -1,-35 8,-3 12,-19 9,-10 45,-1 12,8v15Z"/>
    <path data-fips-int="41047" data-name="Marion County" d="M241,192h13l-6,21 14,16 8,3 6,13 6,3 11,6 77,1 -4,10 -7,4 6,5 -3,15 -29,-1 -11,-7 -11,4 -9,-9h-25l-10,-7 -9,3 -13,-3 -25,16 -5,-11h-11l8,-11 -11,-3 9,-16 8,-2 -3,-8 1,-13 8,-6 -4,-5 4,-20 5,-3Z"/>
    <path data-fips-int="41049" data-name="Morrow County" d="M634,87v51h22v15l12,-1v64l-1,21 -59,1 -14,1v-12l4,-2v-15h-14v-14l-15,-1v-90l20,-6 18,-2 11,-11Z"/>
    <path data-fips-int="41051" data-name="Multnomah County" d="M254,116l1,13 13,6 35,11h9l29,-11 9,-4 1,20 10,10 -60,-1h-37l-9,3v-13l-20,-20v-14Z"/>
    <path data-fips-int="41053" data-name="Polk County" d="M216,221l-1,13 3,8 -8,2 -9,16 11,3 -8,11v5l-52,-2 -14,-3 2,-50v-6Z"/>
    <path data-fips-int="41055" data-name="Sherman County" d="M512,225h-26l1,-8 -19,-12 -16,-2 1,-16h7l7,-8 7,-18 -7,-12 -2,-17 25,-11 5,-4 20,18h4l8,22 -14,4v9l-4,5v15l-3,7 7,9 3,14Z"/>
    <path data-fips-int="41059" data-name="Umatilla County" d="M800,70v29h-7l-2,22h-6l1,36h-9v7l-27,1 1,11 -31,3 1,14 4,10h13v19h4v14l-75,1 1,-21v-64l-12,1v-15h-22v-51l20,-4 15,1 21,-12 63,-1Z"/>
    <path data-fips-int="41061" data-name="Union County" d="M886,217l-34,2 1,14 -26,1 -7,-10 -5,-1 -9,11 -20,-7 -9,6 -3,8 -13,-5 -8,5 -11,-5v-14h-4v-19h-13l-4,-10 -1,-14 31,-3 -1,-11 27,-1v-7h9l-1,-36h6l2,-22h7v-6l26,-1 1,14h-6v14l9,11 1,17h5v15l5,13 15,12v9l5,8 24,-2Z"/>
    <path data-fips-int="41063" data-name="Wallowa County" d="M942,215l-56,2 -1,-14 -24,2 -5,-8v-9l-15,-12 -5,-13v-15h-5l-1,-17 -9,-11v-14h6l-1,-14 -26,1v-23l57,-1 62,-3 17,27h9l5,6h7l8,7 1,10 8,7 -1,9 -8,11 -12,32 -5,30Z"/>
    <path data-fips-int="41065" data-name="Wasco County" d="M465,132l2,17 7,12 -7,18 -7,8h-7l-1,16 16,2 19,12 -1,8h26l1,2 2,26 13,14h-109l-53,-2 4,-10 -8,-8 -1,-12 17,-9 -10,-23 6,-9 25,1 1,-42h5v-30l11,-1 15,6 1,9 8,1 6,-7Z"/>
    <path data-fips-int="41067" data-name="Washington County" d="M235,116v14l20,20v30l-13,-2 -3,4 -11,-6 -7,-8 -12,-6 -37,-1 1,-10 7,-9 12,-9 -14,-5 -7,-12h14l1,-11 35,1Z"/>
    <path data-fips-int="41069" data-name="Wheeler County" d="M594,227v12l14,-1v29h3v84h-28v-13h-15v-8h-42v-55l2,-8 -13,-14 -2,-26Z"/>
    <path data-fips-int="41071" data-name="Yamhill County" d="M239,182l2,10 -12,-5 -5,3 -4,20 4,5 -8,6 -76,-3h-7l1,-23 37,2 1,-36 37,1 12,6 7,8Z"/>
    <path data-fips-int="41007" data-name="Clatsop County" d="M187,46l-1,59 -42,-1 -27,-3 1,-22 -4,-5 8,-7v-16l-8,-20 12,8 5,-4 13,4 18,-2 11,-8Z"/>
    <path data-fips-int="41011" data-name="Coos County" d="M114,592l-13,2v6l-9,8 -17,3 -4,-25 5,-6 -13,-18 -28,-1 14,-47 -2,-11 11,-4 6,-12 12,10 -6,-13 -11,7 4,-11 8,-25 42,2 -1,16h7l-1,14h6l-1,29h8l-2,27 -7,1v15h-8Z"/>
    <path data-fips-int="41041" data-name="Lincoln County" d="M140,224l-2,50 14,3 -1,47h-15v11l-12,3 5,10 -40,-1 4,-16 1,-21 4,-21v-28l9,-39Z"/>
    <path data-fips-int="41057" data-name="Tillamook County" d="M186,105l-1,11h-14l7,12 14,5 -12,9 -7,9 -1,10 -1,36 -37,-2 -1,23h7v6l-33,-2 7,-38 -2,-10 6,-9 -4,-11 3,-10 7,10 -2,-15 -5,-2 4,-20 4,1 -11,-13 3,-4 27,3Z"/>
  </g>
  <path class="mesh" d="M611,351l1,57h-14v43h-57v-14h-14v-14h-44v-14l-28,-1v-29l-13,-1 -1,-40h14v-14h19v-15h52v21h42v8h15v13h28v-84h-3v-29l59,-1 75,-1 11,5 8,-5 13,5 3,-8 9,-6 20,7 9,-11 5,1 7,10 26,-1 -1,-14 34,-2 56,-2M254,116h-19l-14,-10 -35,-1 1,-59M35,561l28,1 13,18 -5,6 4,25 17,-3 9,-8v-6l13,-2 12,2 -15,24 2,2 -10,19h-14l-4,22 18,3 8,14 -1,16 -6,4 4,23M584,451v14h-171l-78,-2 3,-1v-39l7,-9 6,1 5,-14 -1,-8 8,-7 -3,-28 -5,-5v-17h49l37,2M80,415h28v-5l13,-7h14l9,5 10,15 22,5v4l24,1 -1,29 4,10h43v18h35l37,2 9,5 7,16 2,9 -7,6 -5,25 -25,-1v12l-15,-1 -7,10h-12l-8,9 -5,-1 -15,16 -27,4h-16l-10,7 -9,-4 -17,4 -12,-2 -4,-5h-16v-7M114,592v-33h8v-15l7,-1 2,-27h-8l1,-29h-6l1,-14h-7l1,-16 -42,-2M569,105v90l15,1v14h14v15l-4,2h-81l-1,-2 4,-5 -3,-14 -7,-9 3,-7v-15l4,-5v-9l14,-4 -8,-22h-4l-20,-18M779,356l1,35 -70,1 1,14 -99,2M780,391l1,7v87l2,20 1,69 3,16 2,90h3l1,46M651,729l-2,-123 -69,2v-71h5l-1,-72M361,161l5,10 8,4v19l-6,9 10,23 -17,9 1,12 8,8 -77,-1 -11,-6 -6,-3 -6,-13 -8,-3 -14,-16 6,-21h-13l-2,-10 3,-4 13,2v-17l9,-3h37l60,1 -10,-10 -1,-20M405,123v30h-5l-1,42 -25,-1M180,723l1,-46 2,-27 1,-42M299,564l-1,49 -2,70 -1,42M355,336v-16l6,-13 1,-18 3,-15 -6,-5 7,-4 53,2h109l-2,8v34M413,465l1,42h-2l-1,99 56,1v123M318,492l1,-20 16,-9M89,347l40,1M198,350l1,14 31,1 6,-14h16l17,10 20,2 9,-5h62M204,279l9,11 -11,2 -11,12 5,21 -3,4 1,16 4,5 -58,-1 -11,-1 -5,-10 12,-3v-11h15l1,-47 52,2v-5h11l5,11 25,-16 13,3 9,-3 10,7h25l9,9 11,-4 11,7 29,1M370,255l-4,10M204,274l8,-11 -11,-3 9,-16 8,-2 -3,-8 1,-13 8,-6 -4,-5 4,-20 5,-3 12,5M634,87v51h22v15l12,-1v64l-1,21M608,238l-14,1v-12M255,163v-13l-20,-20v-14M152,277l-14,-3 2,-50v-6l76,3M512,225h-26l1,-8 -19,-12 -16,-2 1,-16h7l7,-8 7,-18 -7,-12 -2,-17M800,70v29h-7l-2,22h-6l1,36h-9v7l-27,1 1,11 -31,3 1,14 4,10h13v19h4v14M800,93l26,-1 1,14h-6v14l9,11 1,17h5v15l5,13 15,12v9l5,8 24,-2 1,14M513,227l2,26 13,14M140,218h-7l1,-23 37,2 1,-36M239,182l-11,-6 -7,-8 -12,-6 -37,-1 1,-10 7,-9 12,-9 -14,-5 -7,-12h14l1,-11 -42,-1 -27,-3M107,222l33,2M897,345l-32,1v-15l-12,-8 -45,1 -9,10 -12,19 -8,3 -33,1 4,-13 7,-6 -1,-13 6,-4 -1,-10 6,-5 -4,-12 -19,-5 -1,-6 27,-8 -2,-18h8l-2,-16"/>
  <g class="cities">
    <circle r="7" cx="263" cy="149"/>
    <text x="263" y="149">Portland</text>
    <circle r="7" cx="209" cy="389"/>
    <text x="209" y="389">Eugene</text>
    <circle r="7" cx="219" cy="243"/>
    <text x="219" y="243">Salem</text>
  </g>
</svg>