<?xml version="1.0" encoding="utf-8"?>
<!DOCTYPE svg PUBLIC "-//W3C//DTD SVG 1.1//EN" "http://www.w3.org/Graphics/SVG/1.1/DTD/svg11.dtd">
<svg version="1.1" xmlns="http://www.w3.org/2000/svg" width="350" height="263" viewBox="0 0 350 263">
  <path class="state" transform="scale(0.1)" d="M408,359l5,-72 -10,-16 23,-23 4,-61 -30,-84 60,43v-16l40,-7 14,18 55,-7 37,-26 52,55 54,6 4,-23 38,-7 85,62 33,75 7,82 10,49 6,47 47,25 68,22 32,-2 51,16 132,-55 46,-32 29,7 86,-16 32,16h56l35,18 8,33h22l25,-23 55,-3 8,9 107,-55h38l30,24 106,-16 19,-23 68,-28 78,-22 52,-6 28,-36 45,8 23,-8 72,-12 49,2 55,-40 262,-5 139,-5 180,-3 243,-9 21,45 37,51 28,-3 19,24h26l27,22 5,34 28,45 -25,30 -18,58 -34,75 -16,102 -23,39 -22,32 8,51 -38,89 -45,26 -18,45 -17,72 -30,33 -3,64 20,19 -13,22 23,24 26,-14 22,29 33,-9v24l34,14 -30,72 16,11 -15,94 -16,5 1,143 42,922 -303,13 -194,6 -173,6 -323,6 -371,3h-276l-226,-3 -375,-12 -31,-3 -236,-1 -133,-5 -253,-5 -167,-9 -58,-61 -5,-67 -16,-21 5,-141 15,-44 -7,-47 -25,-44 -15,-1 -17,-61 37,-65 23,-91 19,-48 6,-73 27,-9 26,-38 40,25 -21,-36 -22,5 -28,39 33,-69 23,-75 32,-144 28,-206 -1,-30 18,-86 10,-106 20,18 5,-24 -24,1 4,-117 28,-47 -8,-16 11,-61 24,-134 -5,-41 20,-29 -15,-33 6,-24 35,6 -11,-33 -22,-11 15,-68 -20,-43 5,-12"/>
  <g class="counties" transform="scale(0.1)">
    <path data-fips-int="41001" data-name="Baker County" d="M3296,757l-22,32 8,51 -38,89 -45,26 -18,45 -17,72 -30,33 -3,64 20,19 -13,22 -110,4v-42l-48,-38 -152,5 -40,43 -30,58 -33,10 -108,3 10,-45 23,-24 -5,-47 22,-9 -3,-33 26,-35 -28,-31 -55,-10 -5,-24 93,-28 -5,-64h23l-5,-55 12,-29 33,-22 54,27 21,-5 38,-35 32,39 87,-4 -4,-50 122,-5Z"/>
    <path data-fips-int="41003" data-name="Benton County" d="M716,980l30,41 -39,6 -39,46 19,33 -11,91 16,32 -166,-1 -75,-8 -15,-36 42,-6v-42l50,2 5,-166Z"/>
    <path data-fips-int="41005" data-name="Clackamas County" d="M1265,567l15,32 31,16 9,47 -9,24 -21,31 20,47 20,19 -30,29 -34,13 2,44 25,27 -268,-2 -56,-31 -22,-45 -45,-26 -32,-41 20,-76 -43,-2 -7,-32 10,-16 40,10 2,-59 38,1 -3,-14Z"/>
    <path data-fips-int="41009" data-name="Columbia County" d="M889,407l-67,1 -40,-17 2,-17 -133,-3 7,-208 54,6 4,-23 38,-7 85,62 33,75 7,82Z"/>
    <path data-fips-int="41013" data-name="Crook County" d="M2141,1232l2,199 -50,1 2,150h-50h-150v-49h-50v-50h-155v-50l-96,-2v-98l-47,-3 -1,-146h48l2,-48 63,1v-50l183,-1v73l148,-1 2,26h49v49Z"/>
    <path data-fips-int="41015" data-name="Curry County" d="M403,2076l38,4 -46,80v20l-34,61h-49l3,30 -17,24 9,24 53,5 36,78 -28,50 13,22 -11,27 10,29 -167,-9 -58,-61 -5,-67 -16,-21 5,-141 15,-44 -7,-47 -25,-44 -15,-1 -17,-61 37,-65 93,4 38,44 -3,37 7,84 60,-5 31,-30v-20Z"/>
    <path data-fips-int="41017" data-name="Deschutes County" d="M1546,1184l1,146 47,3v98l96,2v50h155v50h50v49h150v51h-221l-375,-4 -278,-4 15,-6 4,-106 -5,-27 25,-33 18,4 22,-53 -5,-22 28,-33 -3,-73 -9,-18 -15,-21 -1,-56 249,2Z"/>
    <path data-fips-int="41019" data-name="Douglas County" d="M1117,1724l28,21 25,55 10,29 -27,26 -25,78 -80,4 -1,41 -48,-1 -27,32 -40,-1 -20,25 -32,7 -51,56 -67,2 -25,11 -58,-3 -35,25 -16,-13 -40,-2 -34,17 -48,-12 -10,-13 -55,-2v-26l-38,-4 2,-118h25v-50l26,-1 2,-98h-25l3,-100 -21,-1 3,-48 -25,-1 2,-54 -142,-6 32,-144 91,1 5,-18 42,-24 50,2 33,15 37,54 25,12 50,3v16l86,2 -5,102 12,38h153l-2,62Z"/>
    <path data-fips-int="41021" data-name="Gilliam County" d="M2081,797h-284l-3,-8 16,-10 -8,-53 -25,-10 2,-54 5,-58 15,-35 51,-19 -21,-56 -25,-27 -70,-53h38l30,24 106,-16 19,-23 68,-28 -2,317h52v50l48,1 2,49Z"/>
    <path data-fips-int="41023" data-name="Grant County" d="M2597,829l65,1 46,18 5,55h-23l5,64 -93,28 5,24 55,10 28,31 -26,35 3,33 -22,9 5,47 -23,24 -10,45 108,-3 3,124 -146,3 -93,-2v51l-235,5h-111l-2,-199 -1,-296h-9l-1,-98 206,-4Z"/>
    <path data-fips-int="41025" data-name="Harney County" d="M2728,1374l5,199 15,446 5,-1 9,366h10l5,160 -173,6 -323,6 -3,-82 -5,-350 -243,6v-248l16,-1 -1,-248v-51h50l-2,-150 50,-1h111l235,-5v-51l93,2Z"/>
    <path data-fips-int="41027" data-name="Hood River County" d="M1311,686l9,-24 -9,-47 -31,-16 -15,-32 -40,-49v-58l46,-32 29,7 86,-16 32,16v101h-19v150Z"/>
    <path data-fips-int="41029" data-name="Jackson County" d="M1033,2544l-31,-3 -236,-1 -133,-5 11,-404 35,-25 58,3 25,-11 67,-2 51,-56 32,-7 20,-25 40,1 27,-32 48,1 -5,284 -4,14Z"/>
    <path data-fips-int="41031" data-name="Jefferson County" d="M1847,939l-5,35v112l-183,1v50l-63,-1 -2,48h-48l-52,-1 -249,-2 -2,-54 17,-16 8,-97 -2,-32 15,-12 -23,-20 23,-17 275,5Z"/>
    <path data-fips-int="41033" data-name="Josephine County" d="M441,2080v26l55,2 10,13 48,12 34,-17 40,2 16,13 -11,404 -253,-5 -10,-29 11,-27 -13,-22 28,-50 -36,-78 -53,-5 -9,-24 17,-24 -3,-30h49l34,-61v-20Z"/>
    <path data-fips-int="41035" data-name="Klamath County" d="M1449,1629v147h-6l-5,352 196,2v429l-226,-3 -375,-12 5,-268 4,-14 5,-284 1,-41 80,-4 25,-78 27,-26 -10,-29 -25,-55 -28,-21 -10,-4 13,-66 51,-29Z"/>
    <path data-fips-int="41037" data-name="Lake County" d="M2045,1633l1,248 -16,1v248l243,-6 5,350 3,82 -371,3h-276v-429l-196,-2 5,-352h6v-147l375,4Z"/>
    <path data-fips-int="41039" data-name="Lane County" d="M1261,1258l9,18 3,73 -28,33 5,22 -22,53 -18,-4 -25,33 5,27 -4,106 -15,6 -51,29 -13,66 10,4 -255,-4 2,-62h-153l-12,-38 5,-102 -86,-2v-16l-50,-3 -25,-12 -37,-54 -33,-15 -50,-2 -42,24 -5,18 -91,-1 28,-206 -1,-30 139,1 75,8 166,1 7,49 108,1 2,-32 17,-15 41,-2 48,25 60,19 57,5 13,-22Z"/>
    <path data-fips-int="41043" data-name="Linn County" d="M1268,1014l-8,97 -17,16 2,54 1,56 15,21 -216,-1 -13,22 -57,-5 -60,-19 -48,-25 -41,2 -17,15 -2,32 -108,-1 -7,-49 -16,-32 11,-91 -19,-33 39,-46 39,-6 -30,-41 3,-18 42,9 13,30 86,-58 44,11 30,-8 48,24h85l33,35 28,-16 70,23Z"/>
    <path data-fips-int="41045" data-name="Malheur County" d="M3138,1210l23,24 26,-14 22,29 33,-9v24l34,14 -30,72 16,11 -15,94 -16,5 1,143 42,922 -303,13 -194,6 -5,-160h-10l-9,-366 -5,1 -15,-446 -5,-199 -3,-124 33,-10 30,-58 40,-43 152,-5 48,38v42Z"/>
    <path data-fips-int="41047" data-name="Marion County" d="M847,673l43,2 -20,76 32,41 45,26 22,45 56,31 268,2 -12,37 -23,17 23,20 -15,12 2,32 -70,-2 -70,-23 -28,16 -33,-35h-85l-48,-24 -30,8 -44,-11 -86,58 -13,-30 -42,-9 22,-36 -35,-12 30,-54 26,-8 -8,-74 32,-25 -15,-61 15,-20Z"/>
    <path data-fips-int="41049" data-name="Morrow County" d="M2221,307v181h75l2,48h41l2,223 -5,75 -206,4h-49v-41l14,-9 -2,-49 -48,-1v-50h-52l2,-317 78,-22 52,-6 28,-36 45,8Z"/>
    <path data-fips-int="41051" data-name="Multnomah County" d="M889,407l6,47 47,25 68,22 32,-2 51,16 132,-55v58l40,49 -338,-4 3,14 -38,-1 2,-50 -72,-68v-50Z"/>
    <path data-fips-int="41053" data-name="Polk County" d="M754,778l8,74 -26,8 -30,54 35,12 -22,36 -3,18 -183,-8 -50,-11 7,-175 1,-18Z"/>
    <path data-fips-int="41055" data-name="Sherman County" d="M1779,662l-2,54 25,10 8,53 -16,10 -92,-1 3,-20 -59,-46 -47,1 -15,-17 2,-44 23,-1 38,-46 17,-75 -33,-25 -4,-46 107,-55 70,53 25,27 21,56 -51,19 -15,35Z"/>
    <path data-fips-int="41059" data-name="Umatilla County" d="M2798,247l5,81v24h-28l-7,76h-20l4,125 -32,1v25l-93,1 2,42 -109,9 2,50h17v35l45,-1v66h13v48l-261,5 5,-75 -2,-223h-41l-2,-48h-75v-181l72,-12 49,2 55,-40 262,-5Z"/>
    <path data-fips-int="41061" data-name="Union County" d="M3103,764l-122,5 4,50 -87,4 -32,-39 -38,35 -21,5 -54,-27 -33,22 -12,29 -46,-18 -65,-1v-48h-13v-66l-45,1v-35h-17l-2,-50 109,-9 -2,-42 93,-1v-25l32,-1 -4,-125h20l7,-76h28v-24l90,-3 2,49 -17,2 2,47 26,41 2,59 17,-2 20,103 51,37v32l20,27 85,-4Z"/>
    <path data-fips-int="41063" data-name="Wallowa County" d="M3296,757l-193,7 -2,-48 -85,4 -20,-27v-32l-51,-37 -20,-103 -17,2 -2,-59 -26,-41 -2,-47 17,-2 -2,-49 -90,3 -5,-81 180,-3 243,-9 21,45 37,51 28,-3 19,24h26l27,22 5,34 28,45 -25,30 -18,58 -34,75 -16,102Z"/>
    <path data-fips-int="41065" data-name="Wasco County" d="M1627,469l4,46 33,25 -17,75 -38,46 -23,1 -2,44 15,17 47,-1 59,46 -3,20 92,1 3,8 17,117 33,25 -291,-1 -275,-5 12,-37 -25,-27 -2,-44 34,-13 30,-29 -20,-19 -20,-47 21,-31h88v-150h19v-101h56l35,18 8,33h22l25,-23 55,-3Z"/>
    <path data-fips-int="41067" data-name="Washington County" d="M822,408v50l72,68 -2,50 -2,59 -40,-10 -10,16 -66,-52h-32l-6,-18 -133,-5 10,-48 35,-17 24,-32 -48,-17 -23,-43 48,1 2,-39 133,3 -2,17Z"/>
    <path data-fips-int="41069" data-name="Wheeler County" d="M2081,797v41h49l1,98h9l1,296 -100,1v-49h-49l-2,-26 -148,1v-73v-112l5,-35 -33,-25 -17,-117Z"/>
    <path data-fips-int="41071" data-name="Yamhill County" d="M840,641l7,32 -61,-1 -15,20 15,61 -32,25 -263,-10 -25,-1 4,-80 129,4 4,-125 133,5 6,18h32Z"/>
    <path data-fips-int="41007" data-name="Clatsop County" d="M658,163l-7,208 -137,-2 -8,-7 -98,-3 5,-72 -10,-16 23,-23 4,-61 -30,-84 60,43v-16l40,-7 14,18 55,-7 37,-26Z"/>
    <path data-fips-int="41011" data-name="Coos County" d="M403,2076l-50,7v20l-31,30 -60,5 -7,-84 3,-37 -38,-44 -93,-4 23,-91 19,-48 6,-73 27,-9 26,-38 40,25 -21,-36 -22,5 -28,39 33,-69 23,-75 142,6 -2,54 25,1 -3,48 21,1 -3,100h25l-2,98 -26,1v50h-25Z"/>
    <path data-fips-int="41041" data-name="Lincoln County" d="M490,786l-7,175 50,11 -5,166 -50,-2v42l-42,6 15,36 -139,-1 18,-86 10,-106 20,18 5,-24 -24,1 4,-117 28,-47 -8,-16 11,-61Z"/>
    <path data-fips-int="41057" data-name="Tillamook County" d="M651,371l-2,39 -48,-1 23,43 48,17 -24,32 -35,17 -10,48 -4,125 -129,-4 -4,80 25,1 -1,18 -114,-5 24,-134 -5,-41 20,-29 -15,-33 6,-24 35,6 -11,-33 -22,-11 15,-68 -20,-43 5,-12 98,3 8,7Z"/>
  </g>
  <path class="mesh" transform="scale(0.1)" d="M3138,1210l-110,4v-42l-48,-38 -152,5 -40,43 -30,58 -33,10 -108,3 10,-45 23,-24 -5,-47 22,-9 -3,-33 26,-35 -28,-31 -55,-10 -5,-24 93,-28 -5,-64h23l-5,-55 12,-29 33,-22 54,27 21,-5 38,-35 32,39 87,-4 -4,-50 122,-5 193,-7M889,407l-67,1 -40,-17 2,-17 -133,-3 7,-208M127,1969l93,4 38,44 -3,37 7,84 60,-5 31,-30v-20l50,-7 38,4 -46,80v20l-34,61h-49l3,30 -17,24 9,24 53,5 36,78 -28,50 13,22 -11,27 10,29M2045,1582v51h-221l-375,-4 -278,-4 15,-6 4,-106 -5,-27 25,-33 18,4 22,-53 -5,-22 28,-33 -3,-73 -9,-18 -15,-21 -1,-56 249,2 52,1M285,1455l91,1 5,-18 42,-24 50,2 33,15 37,54 25,12 50,3v16l86,2 -5,102 12,38h153l-2,62 255,4 28,21 25,55 10,29 -27,26 -25,78 -80,4 -1,41 -48,-1 -27,32 -40,-1 -20,25 -32,7 -51,56 -67,2 -25,11 -58,-3 -35,25 -16,-13 -40,-2 -34,17 -48,-12 -10,-13 -55,-2v-26M403,2076l2,-118h25v-50l26,-1 2,-98h-25l3,-100 -21,-1 3,-48 -25,-1 2,-54 -142,-6M1995,371l-2,317h52v50l48,1 2,49 -14,9h-284l-3,-8 16,-10 -8,-53 -25,-10 2,-54 5,-58 15,-35 51,-19 -21,-56 -25,-27 -70,-53M2141,1232l2,199 -50,1 2,150h-50h-150v-49h-50v-50h-155v-50l-96,-2v-98l-47,-3 -1,-146h48l2,-48 63,1v-50l183,-1v73l148,-1 2,26h49v49l100,-1 -1,-296h-9l-1,-98 206,-4 261,-5 65,1 46,18M2725,1250l3,124 -146,3 -93,-2v51l-235,5h-111M2728,1374l5,199 15,446 5,-1 9,366h10l5,160M2281,2556l-3,-82 -5,-350 -243,6v-248l16,-1 -1,-248M1265,567l15,32 31,16 9,47 -9,24 -21,31 20,47 20,19 -30,29 -34,13 2,44 25,27 -268,-2 -56,-31 -22,-45 -45,-26 -32,-41 20,-76 -43,-2 -7,-32 10,-16 40,10 2,-59 38,1 -3,-14 338,4 -40,-49v-58M1418,435v101h-19v150h-88M633,2535l11,-404M1047,1978l-5,284 -4,14 -5,268M1245,1181l-2,-54 17,-16 8,-97 -2,-32 15,-12 -23,-20 23,-17 275,5 291,1 -5,35v112M1449,1629v147h-6l-5,352 196,2v429M1117,1724l-10,-4 13,-66 51,-29M312,1219l139,1M692,1229l7,49 108,1 2,-32 17,-15 41,-2 48,25 60,19 57,5 13,-22 216,1M716,980l30,41 -39,6 -39,46 19,33 -11,91 16,32 -166,-1 -75,-8 -15,-36 42,-6v-42l50,2 5,-166 183,8 3,-18 42,9 13,30 86,-58 44,11 30,-8 48,24h85l33,35 28,-16 70,23 70,2M1293,896l-12,37M719,962l22,-36 -35,-12 30,-54 26,-8 -8,-74 32,-25 -15,-61 15,-20 61,1M2221,307v181h75l2,48h41l2,223 -5,75M2130,838h-49v-41M892,576l2,-50 -72,-68v-50M533,972l-50,-11 7,-175 1,-18 263,10M1794,789l-92,-1 3,-20 -59,-46 -47,1 -15,-17 2,-44 23,-1 38,-46 17,-75 -33,-25 -4,-46M2798,247l5,81v24h-28l-7,76h-20l4,125 -32,1v25l-93,1 2,42 -109,9 2,50h17v35l45,-1v66h13v48M2803,328l90,-3 2,49 -17,2 2,47 26,41 2,59 17,-2 20,103 51,37v32l20,27 85,-4 2,48M1797,797l17,117 33,25M491,768l-25,-1 4,-80 129,4 4,-125M840,641l-66,-52h-32l-6,-18 -133,-5 10,-48 35,-17 24,-32 -48,-17 -23,-43 48,1 2,-39 -137,-2 -8,-7 -98,-3M376,781l114,5"/>
  <g class="cities">
    <circle r="3" cx="92.1" cy="52.6"/>
    <text x="92.1" y="52.6">Portland</text>
    <circle r="3" cx="73.1" cy="136.4"/>
    <text x="73.1" y="136.4">Eugene</text>
    <circle r="3" cx="76.8" cy="85.5"/>
    <text x="76.8" y="85.5">Salem</text>
  </g>
</svg>