<?xml version="1.0" encoding="utf-8"?>
<!DOCTYPE svg PUBLIC "-//W3C//DTD SVG 1.1//EN" "http://www.w3.org/Graphics/SVG/1.1/DTD/svg11.dtd">
<svg version="1.1" xmlns="http://www.w3.org/2000/svg" width="350" height="263" viewBox="0 0 350 263">
  <defs>
    <pattern id="pattern-no-results" width="50" height="50" patternUnits="userSpaceOnUse">
      <rect width="50" height="50" fill="#ddd"/>
      <path d="M-5,5L5,-5M-5,55L55,-5M45,55L55,45" stroke-width="10" stroke="#666666"/>
    </pattern>
  </defs>
  <g class="counties" transform="scale(0.1)">
    <path data-fips-int="41001" data-name="Baker County" d="M3297,757l-23,32 8,54 -38,86 -47,26 -33,117 -31,39 6,99 -110,4 0,-42 -48,-38 -153,5 -41,43 -29,58 -35,10 -106,3 33,-69 -10,-13 24,-37 14,-86 -43,-23 -23,-34 18,-6 65,-18 -13,-48 23,-18 10,-43 -8,-10 31,-35 25,-17 44,28 51,-40 0,-1 0,1 13,4 25,35 89,-4 -2,-50 120,-5Z"/>
    <path data-fips-int="41003" data-name="Benton County" d="M714,980l32,41 -40,6 -40,46 21,33 -6,107 13,16 -168,-1 -75,-8 -16,-36 41,-6 0,-42 52,2 5,-166Z"/>
    <path data-fips-int="41005" data-name="Clackamas County" d="M1265,567l5,15 40,33 0,71 -20,31 40,66 -64,42 2,44 25,27 -268,-2 -56,-31 -22,-45 -73,-65 -4,-2 0,-2 0,2 0,-2 15,-34 -1,0 1,0 5,-40 -43,-2 -7,-32 50,-6 2,-59 35,-13Z"/>
    <path data-fips-int="41009" data-name="Columbia County" d="M887,407l-65,1 -38,-34 -135,-3 9,-208 53,1 41,-25 87,62 35,75Z"/>
    <path data-fips-int="41013" data-name="Crook County" d="M2141,1232l2,199 -50,1 2,150 -50,0 -150,0 0,-49 -50,0 0,-50 -153,0 0,-50 -98,-2 0,-98 -48,-3 0,-146 48,0 0,-48 67,1 0,-50 181,-1 0,73 148,-1 2,26 49,0 0,49Z"/>
    <path data-fips-int="41015" data-name="Curry County" d="M292,2131l28,2 35,-50 48,-7 40,4 -48,80 -29,75 -11,6 -17,-3 -13,3 -18,78 53,5 38,78 -30,45 12,83 -165,-9 -55,-57 -25,-92 -5,-110 22,-68 -5,-54 -42,-45 -15,-61 35,-65 93,4 40,44 2,121Z"/>
    <path data-fips-int="41017" data-name="Deschutes County" d="M1546,1184l0,146 48,3 0,98 98,2 0,50 153,0 0,50 50,0 0,49 150,0 0,51 -596,-4 -278,-4 15,-7 -1,-116 55,-78 33,-75 -12,-91 -16,-77Z"/>
    <path data-fips-int="41019" data-name="Douglas County" d="M1115,1724l2,0 45,46 14,51 -24,34 -24,78 -80,4 -1,41 -48,-1 -27,32 -40,-1 -52,32 -51,56 -150,10 -33,25 -58,-15 -34,17 -58,-25 -55,-2 2,-26 -40,-4 0,-118 27,0 1,-50 24,-1 3,-98 -25,0 2,-100 -22,-1 5,-48 -27,-1 4,-54 -142,-6 35,-73 24,15 -10,-4 -4,-9 -38,35 25,-108 95,2 20,-25 13,-6 60,-10 33,15 37,54 75,15 0,16 86,2 -3,102 10,38 153,0 -2,62Z"/>
    <path data-fips-int="41021" data-name="Gilliam County" d="M2081,797l-284,0 -3,-8 8,-63 -25,-10 7,-112 13,-34 53,-20 -21,-56 -95,-80 68,24 106,-16 19,-23 68,-28 -2,317 52,0 0,50 48,1Z"/>
    <path data-fips-int="41023" data-name="Grant County" d="M2595,829l64,1 39,18 9,0 8,10 -10,43 -23,18 13,48 -65,18 -18,6 23,34 43,23 -14,86 -24,37 10,13 -33,69 106,-3 7,124 -241,1 0,51 -346,5 -2,-199 -1,-296 -10,-98 206,-4Z"/>
    <path data-fips-int="41025" data-name="Harney County" d="M2730,1374l7,374 11,271 5,-1 10,366 10,15 4,145 -496,12 -8,-432 -243,6 0,-248 16,-1 -1,-248 0,-51 50,0 -2,-150 50,-1 346,-5 0,-51Z"/>
    <path data-fips-int="41027" data-name="Hood River County" d="M1310,686l0,-71 -40,-33 -5,-15 -35,-33 -5,-74 46,-32 30,7 85,-16 32,16 0,101 -19,0 0,150Z"/>
    <path data-fips-int="41029" data-name="Jackson County" d="M1033,2544l-400,-9 13,-404 33,-25 150,-10 51,-56 52,-32 40,1 27,-32 48,1Z"/>
    <path data-fips-int="41031" data-name="Jefferson County" d="M1847,939l-5,147 -181,1 0,50 -67,-1 0,48 -48,0 -301,-3 16,-128 7,-39 10,-44 5,-37 271,5Z"/>
    <path data-fips-int="41033" data-name="Josephine County" d="M443,2080l-2,26 55,2 58,25 34,-17 58,15 -13,404 -253,-5 -12,-83 30,-45 -38,-78 -53,-5 18,-78 13,-3 17,3 11,-6 29,-75Z"/>
    <path data-fips-int="41035" data-name="Klamath County" d="M1449,1629l-6,147 -7,352 198,2 0,429 -226,-3 -375,-12 14,-566 1,-41 80,-4 24,-78 24,-34 -14,-51 -45,-46 -2,0 5,-70 51,-29Z"/>
    <path data-fips-int="41037" data-name="Lake County" d="M2045,1633l1,248 -16,1 0,248 243,-6 8,432 -371,3 -276,0 0,-429 -198,-2 7,-352 6,-147Z"/>
    <path data-fips-int="41039" data-name="Lane County" d="M1261,1258l12,91 -33,75 -55,78 1,116 -15,7 -51,29 -5,70 2,0 -2,0 -253,-4 2,-62 -153,0 -10,-38 3,-102 -86,-2 0,-16 -75,-15 -37,-54 -33,-15 -60,10 -13,6 -20,25 -95,-2 15,-63 27,5 1,-1 0,-2 0,1 0,-1 0,-2 -8,2 -23,-28 15,-147 139,1 75,8 168,1 7,49 106,1 17,-47 58,1 33,22 107,25 23,-23Z"/>
    <path data-fips-int="41043" data-name="Linn County" d="M1268,1014l-7,39 -16,128 16,77 -216,-1 -23,23 -107,-25 -33,-22 -58,-1 -17,47 -106,-1 -7,-49 -13,-16 6,-107 -21,-33 40,-46 40,-6 -32,-41 5,-18 68,33 73,-52 74,3 38,21 95,3 33,35 22,-18 45,23Z"/>
    <path data-fips-int="41045" data-name="Malheur County" d="M3139,1210l68,38 35,-8 34,38 -32,72 20,35 -35,76 5,142 40,922 -497,19 -4,-145 -10,-15 -10,-366 -5,1 -11,-271 -7,-374 -7,-124 35,-10 29,-58 41,-43 153,-5 48,38 0,42Z"/>
    <path data-fips-int="41047" data-name="Marion County" d="M847,673l43,2 -5,40 -1,0 1,0 -15,34 0,2 0,-2 0,2 4,2 73,65 22,45 56,31 268,2 -10,37 -5,37 -10,44 -101,-4 -45,-23 -22,18 -33,-35 -95,-3 -38,-21 -74,-3 -73,52 -68,-33 22,-36 -35,-12 30,-54 30,-11 -10,-71 28,-22 -18,-59 18,-25Z"/>
    <path data-fips-int="41049" data-name="Morrow County" d="M2221,307l0,181 75,0 2,48 41,0 2,223 -5,75 -206,4 -49,0 0,-41 12,-58 -48,-1 0,-50 -52,0 2,-317 130,-28 28,-36Z"/>
    <path data-fips-int="41051" data-name="Multnomah County" d="M887,407l8,47 115,47 83,14 132,-55 5,74 35,33 -338,-4 -35,13 2,-50 -72,-68 0,-50Z"/>
    <path data-fips-int="41053" data-name="Polk County" d="M756,778l10,71 -30,11 -30,54 35,12 -22,36 -5,18 -181,-8 -50,-11 7,-175 1,-18Z"/>
    <path data-fips-int="41055" data-name="Sherman County" d="M1794,789l-92,-1 5,-19 -61,-47 -60,-6 0,-54 23,-1 38,-46 17,-75 -23,-7 -15,-64 108,-55 95,80 21,56 -53,20 -13,34 -7,112 25,10Z"/>
    <path data-fips-int="41059" data-name="Umatilla County" d="M2798,247l4,81 -27,24 -7,76 -20,0 4,125 -32,26 -93,1 0,42 -107,9 19,85 45,-1 11,114 -259,5 5,-75 -2,-223 -41,0 -2,-48 -75,0 0,-181 121,-10 55,-40Z"/>
    <path data-fips-int="41061" data-name="Union County" d="M3103,764l-120,5 2,50 -89,4 -25,-35 -13,-4 0,-1 0,1 -51,40 -44,-28 -25,17 -31,35 -9,0 -39,-18 -64,-1 -11,-114 -45,1 -19,-85 107,-9 0,-42 93,-1 32,-26 -4,-125 20,0 7,-76 27,-24 91,-3 -13,98 26,41 37,160 53,37 20,59 85,-4Z"/>
    <path data-fips-int="41063" data-name="Wallowa County" d="M3297,757l-194,7 -2,-48 -85,4 -20,-59 -53,-37 -37,-160 -26,-41 13,-98 -91,3 -4,-81 423,-12 56,96 37,1 65,42 33,79 -25,30 -52,133 -16,102Z"/>
    <path data-fips-int="41065" data-name="Wasco County" d="M1626,469l15,64 23,7 -17,75 -38,46 -23,1 0,54 60,6 61,47 -5,19 92,1 3,8 17,117 33,25 -293,-1 -271,-5 10,-37 -25,-27 -2,-44 64,-42 -40,-66 20,-31 89,0 0,-150 19,0 0,-101 56,0 40,48 48,-20Z"/>
    <path data-fips-int="41067" data-name="Washington County" d="M822,408l0,50 72,68 -2,50 -2,59 -50,6 -104,-70 -133,-5 10,-48 59,-49 -48,-17 -23,-43 48,1 0,-39 135,3Z"/>
    <path data-fips-int="41069" data-name="Wheeler County" d="M2081,797l0,41 49,0 10,98 1,296 -100,1 0,-49 -49,0 -2,-26 -148,1 0,-73 5,-147 -33,-25 -17,-117Z"/>
    <path data-fips-int="41071" data-name="Yamhill County" d="M840,641l7,32 -63,-1 -18,25 18,59 -28,22 -265,-10 -26,-1 5,-80 129,4 4,-125 133,5Z"/>
    <path data-fips-int="41007" data-name="Clatsop County" d="M538,139l3,2 2,0 11,-7 9,-1 5,1 38,-26 52,55 -9,208 -135,-2 -104,-10 20,-172 -30,-84 60,43 40,-23Z"/>
    <path data-fips-int="41011" data-name="Coos County" d="M403,2076l-48,7 -35,50 -28,-2 -32,7 -2,-121 -40,-44 -93,-4 50,-174 -8,-28 61,-57 37,31 3,-3 0,-2 -3,-2 0,-1 0,-2 0,-1 -5,-2 -43,-25 36,-104 142,6 -4,54 27,1 -5,48 22,1 -2,100 25,0 -3,98 -24,1 -1,50 -27,0Z"/>
    <path data-fips-int="41041" data-name="Lincoln County" d="M490,786l-7,175 50,11 -5,166 -52,-2 0,42 -41,6 16,36 -139,-1 20,-90 13,-134 0,-90 26,-47 7,-77Z"/>
    <path data-fips-int="41057" data-name="Tillamook County" d="M649,371l0,39 -48,-1 23,43 48,17 -59,49 -10,48 -4,125 -129,-4 -5,80 26,1 -1,18 -112,-5 35,-204 -13,-33 23,-130 12,0 5,0 -2,-6 -3,0 3,0 -18,6 -10,-55 104,10Z"/>
  </g>
  <g class="cities">
    <circle r="3" cx="92.1" cy="52.6"/>
    <text x="92.1" y="52.6">Portland</text>
    <circle r="3" cx="73.1" cy="136.4"/>
    <text x="73.1" y="136.4">Eugene</text>
    <circle r="3" cx="76.8" cy="85.5"/>
    <text x="76.8" y="85.5">Salem</text>
  </g>
</svg>