<?xml version="1.0" encoding="utf-8"?>
<!DOCTYPE svg PUBLIC "-//W3C//DTD SVG 1.1//EN" "http://www.w3.org/Graphics/SVG/1.1/DTD/svg11.dtd">
<svg version="1.1" xmlns="http://www.w3.org/2000/svg" width="350" height="222" viewBox="0 0 350 222">
  <g class="counties" transform="scale(0.1)">
    <path data-fips-int="42001" data-name="Adams County" d="M2113,2162l-266,0 -7,-167 38,-38 125,-26 28,-31 69,40 28,56 -8,29 16,34 -25,20Z"/>
    <path data-fips-int="42003" data-name="Allegheny County" d="M579,1438l0,1 0,24 -48,41 23,28 17,11 -3,78 -39,36 -13,87 3,24 -49,20 -50,-13 -7,-16 32,-13 -150,-63 -98,-111 96,-87 27,-12 0,-46Z"/>
    <path data-fips-int="42005" data-name="Armstrong County" d="M686,1204l31,5 22,-16 80,-4 36,-29 -1,103 -2,101 -138,180 -20,2 -40,-26 4,-32 -64,-58 -15,9 0,-1 9,-247 1,-127 12,90 38,11 -6,21 20,17Z"/>
    <path data-fips-int="42007" data-name="Beaver County" d="M320,1427l0,46 -27,12 -96,87 -92,-4 10,-279 205,3Z"/>
    <path data-fips-int="42009" data-name="Bedford County" d="M1391,1729l12,55 56,45 -11,32 -29,27 14,27 -29,53 -40,115 -48,76 -244,-4 30,-72 -2,-176 13,-11 49,-128 23,-63 63,30 35,34 8,-45 83,46Z"/>
    <path data-fips-int="42011" data-name="Berks County" d="M2943,1605l-92,155 -98,80 -161,-130 -166,-132 58,-16 46,-1 49,-15 56,-33 32,0 11,-47 55,-29Z"/>
    <path data-fips-int="42013" data-name="Blair County" d="M1474,1400l-46,30 -12,29 30,29 -18,46 26,12 -3,40 15,3 -15,35 -60,105 -17,41 -83,-46 -8,45 -35,-34 -63,-30 33,-35 13,-98 32,-26 27,-44 0,-34 18,1 33,-60 -7,-6Z"/>
    <path data-fips-int="42015" data-name="Bradford County" d="M2572,449l22,215 1,47 -46,4 -10,79 -308,-29 -25,-4 -35,-4 -13,-157 -17,-144Z"/>
    <path data-fips-int="42017" data-name="Bucks County" d="M3269,1894l8,-36 -11,-17 -24,-13 -271,-203 40,-53 42,-37 78,-56 3,29 57,4 15,22 3,83 53,14 15,41 50,42 12,28 41,22 32,43 -35,30 -23,-4 -22,33Z"/>
    <path data-fips-int="42019" data-name="Butler County" d="M588,1062l1,2 -1,127 -9,247 -259,-11 0,-135 -2,-108 40,-51 58,-75Z"/>
    <path data-fips-int="42021" data-name="Cambria County" d="M1341,1409l-33,60 -18,-1 0,34 -27,44 -32,26 -13,98 -33,35 -23,63 -130,-3 -22,-31 -75,-1 49,-82 36,-77 65,-168Z"/>
    <path data-fips-int="42023" data-name="Cameron County" d="M1428,741l86,108 35,1 0,79 -60,114 -81,-12 1,-71 -10,0 0,-59 -93,-1 2,-147 0,-12Z"/>
    <path data-fips-int="42025" data-name="Carbon County" d="M2855,1095l1,1 7,6 50,52 40,47 -43,27 60,101 -77,22 -2,0 -36,9 -45,31 -83,-66 -57,-63 148,-74 -21,-33 1,-31 29,-18Z"/>
    <path data-fips-int="42027" data-name="Centre County" d="M1541,1094l16,-41 20,-4 22,-31 3,53 59,-3 26,57 20,-4 77,35 -5,15 40,61 93,-17 111,-44 -75,101 -48,48 -43,17 -137,70 -50,8 -31,-18 -68,39 -97,-36 -140,3 -8,-17 37,-39 13,-29 23,-8 12,-32 53,-45 32,5 -5,-29 15,-1 -25,-88 40,-29Z"/>
    <path data-fips-int="42029" data-name="Chester County" d="M3046,1888l-30,20 -18,34 8,3 -53,44 -15,22 -22,22 0,29 -60,25 -39,63 -210,4 22,-2 31,-51 18,-46 12,-12 0,-75 30,-52 -5,-54 38,-22 98,-80 82,24 30,55 22,3 6,31 22,-7 16,26Z"/>
    <path data-fips-int="42031" data-name="Clarion County" d="M864,949l-5,189 -4,22 -36,29 -80,4 -22,16 -31,-5 -33,-1 -20,-17 6,-21 -38,-11 -12,-90 -1,-2 26,-33 0,-28 25,-16 2,-33 71,-10 0,-37 44,1 1,-37 108,6Z"/>
    <path data-fips-int="42033" data-name="Clearfield County" d="M1408,1031l81,12 32,48 -40,29 25,88 -15,1 5,29 -32,-5 -53,45 -12,32 -23,8 -13,29 -37,39 8,17 7,6 -256,-3 0,-135 3,-170 22,-52 32,1 34,-11 2,-27Z"/>
    <path data-fips-int="42035" data-name="Clinton County" d="M1541,1095l-20,-4 -32,-48 60,-114 0,-79 218,-2 2,27 33,58 35,20 1,18 69,69 15,0 89,113 12,0 0,18 -111,44 -93,17 -40,-61 5,-15 -77,-35 -20,4 -26,-57 -59,3 -3,-53 -22,31 -20,4Z"/>
    <path data-fips-int="42037" data-name="Columbia County" d="M2552,1236l-42,50 -11,62 -42,20 -15,-43 -53,7 -3,-43 -14,0 4,-63 -25,-24 -4,-40 -26,-8 -15,-68 28,-2 80,-89 22,-25 55,-1 -4,78 25,54 27,-6 0,73Z"/>
    <path data-fips-int="42039" data-name="Crawford County" d="M180,814l-50,-2 10,-270 506,15 -5,168 0,5 -120,-7 -2,16 -36,20 -18,26 -42,35 -72,6Z"/>
    <path data-fips-int="42041" data-name="Cumberland County" d="M2191,1781l-40,19 9,11 3,17 -70,13 -62,59 -28,31 -125,26 -38,38 10,-21 -36,-54 -2,-1 -13,-24 -15,-37 -15,-6 -10,-48 5,10 126,-92 13,2 -36,36 55,-26 6,19 45,-13 152,-20 33,-14 11,55Z"/>
    <path data-fips-int="42043" data-name="Dauphin County" d="M2276,1459l95,76 -80,61 65,207 -24,6 -63,50 -5,-41 -73,-37 -22,-20 -11,-55 -13,-22 -37,1 -17,-21 9,-30 36,-30 -20,-37 -5,-41 25,-44 15,15 2,2 -2,-2 100,-36Z"/>
    <path data-fips-int="42047" data-name="Elk County" d="M1308,753l-2,147 93,1 0,59 10,0 -1,71 -230,-19 -2,27 -34,11 -14,-45 -125,-76 -8,-11 -68,26 0,-63 20,-22 58,13 3,-139 265,-1 0,20Z"/>
    <path data-fips-int="42049" data-name="Erie County" d="M649,446l-3,111 -506,-15 4,-96 83,-31 116,-58 8,-13 20,-2 12,-6 48,-23 73,-44 65,-28 -5,202Z"/>
    <path data-fips-int="42051" data-name="Fayette County" d="M797,1914l-65,104 -11,33 31,30 0,24 -25,30 9,16 -301,-6 -12,-34 15,-19 -15,-42 12,-55 -22,-26 -23,2 1,-24 64,-27 8,-32 22,-20 -20,-27 74,1 60,35 27,-6 56,-38 79,55 8,23Z"/>
    <path data-fips-int="42053" data-name="Forest County" d="M1008,733l-3,139 -58,-13 -20,22 0,63 -63,5 1,-74 -108,-6 -1,37 -44,-1 2,-40 -25,-2 7,-23 1,-114 147,0Z"/>
    <path data-fips-int="42055" data-name="Franklin County" d="M1759,1804l10,48 15,6 15,37 13,24 2,1 36,54 -10,21 7,167 -368,-1 58,-82 47,-121 32,-51 56,-110 35,-41 18,-20 19,55Z"/>
    <path data-fips-int="42057" data-name="Fulton County" d="M1616,1907l-32,51 -47,121 -58,82 -163,-2 48,-76 40,-115 29,-53 -14,-27 29,-27 11,-32 35,24 87,22Z"/>
    <path data-fips-int="42059" data-name="Greene County" d="M285,1928l32,12 41,-13 5,23 28,-3 -1,24 23,-2 22,26 -12,55 15,42 -15,19 12,34 -348,-12 5,-180 18,2 37,-7 80,-34 6,14Z"/>
    <path data-fips-int="42061" data-name="Huntingdon County" d="M1720,1407l-13,38 -41,40 -37,56 15,38 -58,76 31,24 63,-9 27,86 -35,41 -56,110 -35,-32 -87,-22 -35,-24 -56,-45 -12,-55 60,-105 15,-35 -15,-3 3,-40 -26,-12 18,-46 -30,-29 12,-29 46,-30 97,36 68,-39 31,18Z"/>
    <path data-fips-int="42063" data-name="Indiana County" d="M1085,1271l0,135 -65,168 -36,77 -17,-16 -33,26 -35,8 0,-21 -64,-26 -21,10 -15,-33 -32,-11 -11,16 -30,-27 -12,-33 138,-180 2,-101Z"/>
    <path data-fips-int="42065" data-name="Jefferson County" d="M1142,1050l-32,-1 -22,52 -3,170 -231,-8 1,-103 4,-22 5,-189 63,-5 68,-26 8,11 125,76Z"/>
    <path data-fips-int="42067" data-name="Juniata County" d="M2141,1473l0,2 -5,7 -41,18 -92,17 0,19 -75,38 -128,81 -16,23 -59,58 -18,20 -27,-86 79,-84 0,-18 66,-50 0,-21 83,-49 35,-13 75,10 68,-1 17,27Z"/>
    <path data-fips-int="42069" data-name="Lackawanna County" d="M2960,711l18,287 -35,19 -22,7 -31,47 -27,-19 -3,-53 -14,-4 -5,-56 -31,-5 -53,-35 -2,-24 33,-59 -15,-13 44,-89Z"/>
    <path data-fips-int="42071" data-name="Lancaster County" d="M2753,1840l-38,22 5,54 -30,52 0,75 -12,12 -18,46 -31,51 -22,2 -58,1 -44,-63 -38,-45 -10,-35 -45,-23 -15,-40 -25,-40 -66,-11 -37,-39 63,-50 24,-6 75,-32 76,-15 85,-46Z"/>
    <path data-fips-int="42073" data-name="Lawrence County" d="M358,1133l-40,51 2,108 -205,-3 5,-204 150,2 62,12Z"/>
    <path data-fips-int="42075" data-name="Lebanon County" d="M2356,1803l-65,-207 80,-61 55,43 166,132 -85,46 -76,15Z"/>
    <path data-fips-int="42077" data-name="Lehigh County" d="M3053,1535l-42,37 -40,53 -28,-20 -210,-168 77,-46 45,-31 36,-9 2,0 3,29 27,21 18,-13 29,60 28,-13 25,34 -9,36Z"/>
    <path data-fips-int="42079" data-name="Luzerne County" d="M2890,1071l-20,27 -7,4 -7,-6 -1,-1 -28,11 -29,18 -1,31 21,33 -148,74 -15,8 -103,-34 -13,-68 0,-73 -27,6 -25,-54 4,-78 14,-52 154,-7 96,-35 2,24 53,35 31,5 5,56 14,4 3,53Z"/>
    <path data-fips-int="42081" data-name="Lycoming County" d="M2206,761l37,138 89,75 82,21 -80,89 -28,2 -52,-12 -35,-3 -50,15 -6,13 -37,-7 -8,46 -53,3 -42,12 -12,0 -89,-113 -15,0 -69,-69 -1,-18 -35,-20 -33,-58 -2,-27 0,-50 176,0 182,-6 46,-35Z"/>
    <path data-fips-int="42083" data-name="McKean County" d="M1428,456l0,285 -120,0 0,12 -35,-1 0,-20 -265,1 7,-155 18,-7 0,-117Z"/>
    <path data-fips-int="42085" data-name="Mercer County" d="M180,815l171,11 72,-6 -7,238 -58,75 -26,-34 -62,-12 -150,-2 10,-273Z"/>
    <path data-fips-int="42087" data-name="Mifflin County" d="M1905,1349l0,79 38,7 -35,13 -83,49 0,21 -66,50 0,18 -79,84 -63,9 -31,-24 58,-76 -15,-38 37,-56 41,-40 13,-38 137,-70 43,-17Z"/>
    <path data-fips-int="42089" data-name="Monroe County" d="M3234,1113l-15,39 -60,40 7,17 -52,27 -11,26 -35,30 -49,25 -49,12 -60,-101 43,-27 -40,-47 -50,-52 7,-4 20,-27 31,-47 22,-7 83,-7 130,-14 -15,77 46,6 30,45Z"/>
    <path data-fips-int="42091" data-name="Montgomery County" d="M3242,1828l-51,70 -37,-27 -26,-5 -25,30 33,31 -38,26 -27,-29 -25,-36 -17,4 -16,-26 -22,7 -6,-31 -22,-3 -30,-55 -82,-24 92,-155 28,20Z"/>
    <path data-fips-int="42093" data-name="Montour County" d="M2306,1086l15,68 26,8 4,40 25,24 -4,63 -21,-17 3,-26 -58,-20 -73,17 10,-51 21,-56 0,-62Z"/>
    <path data-fips-int="42095" data-name="Northampton County" d="M3131,1479l-78,56 -39,-30 9,-36 -25,-34 -28,13 -29,-60 -18,13 -27,-21 -3,-29 77,-22 49,-12 49,-25 35,-30 11,-26 52,-27 41,71 -43,73 -23,-2 -15,69Z"/>
    <path data-fips-int="42097" data-name="Northumberland County" d="M2254,1074l0,62 -21,56 -10,51 73,-17 58,20 -3,26 21,17 14,0 3,43 53,-7 15,43 -181,91 -25,2 -100,36 2,2 -2,-2 -15,-15 5,-7 0,-2 53,-54 -6,-51 31,-77 -23,-16 -23,-47 13,-79 -23,-50 6,-13 50,-15Z"/>
    <path data-fips-int="42099" data-name="Perry County" d="M2158,1706l-33,14 -152,20 -45,13 -6,-19 -55,26 36,-36 -13,-2 -126,92 -5,-10 -15,-13 -19,-55 59,-58 16,-23 128,-81 75,-38 0,-19 92,-17 41,-18 -25,44 5,41 20,37 -36,30 -9,30 17,21 37,-1Z"/>
    <path data-fips-int="42103" data-name="Pike County" d="M3234,1113l-17,11 -30,-45 -46,-6 15,-77 -130,14 25,-66 -18,-7 3,-30 38,2 12,-33 30,-20 63,-122 33,41 17,47 42,4 11,27 58,12 30,-7 -1,20 30,30 -39,16 -36,36 -22,47 -6,38 -24,34Z"/>
    <path data-fips-int="42105" data-name="Potter County" d="M1760,458l7,340 0,50 -218,2 -35,-1 -86,-108 0,-285 174,3Z"/>
    <path data-fips-int="42107" data-name="Schuylkill County" d="M2670,1262l57,63 83,66 -77,46 -55,29 -11,47 -32,0 -56,33 -49,15 -46,1 -58,16 -55,-43 -95,-76 181,-91 42,-20 11,-62 42,-50 103,34Z"/>
    <path data-fips-int="42109" data-name="Snyder County" d="M2219,1291l-31,77 6,51 -53,54 -38,-2 -17,-27 -68,1 -75,-10 -38,-7 0,-79 170,-48 65,-13Z"/>
    <path data-fips-int="42111" data-name="Somerset County" d="M1162,1768l-49,128 -13,11 2,176 -30,72 -336,-4 -9,-16 25,-30 0,-24 -31,-30 11,-33 65,-104 42,-55 21,3 45,-79 2,-5 3,-6 25,-39 75,1 22,31Z"/>
    <path data-fips-int="42113" data-name="Sullivan County" d="M2539,794l-34,123 -14,52 -55,1 -22,25 -82,-21 -89,-75 -37,-138 25,4Z"/>
    <path data-fips-int="42115" data-name="Susquehanna County" d="M2943,444l17,267 -143,3 -220,3 -2,-6 -1,-47 -22,-215Z"/>
    <path data-fips-int="42117" data-name="Tioga County" d="M2141,456l17,144 13,157 -46,35 -182,6 -176,0 -7,-340Z"/>
    <path data-fips-int="42119" data-name="Union County" d="M2163,1099l23,50 -13,79 23,47 23,16 -79,-3 -65,13 -170,48 -5,-29 48,-48 75,-101 0,-18 42,-12 53,-3 8,-46Z"/>
    <path data-fips-int="42121" data-name="Venango County" d="M712,905l0,37 -71,10 -2,33 -25,16 0,28 -26,33 -172,-4 7,-238 42,-35 18,-26 36,-20 2,-16 120,7 0,-5 56,1 -1,114 -7,23 25,2Z"/>
    <path data-fips-int="42123" data-name="Warren County" d="M1033,454l0,117 -18,7 -7,155 -164,-7 -147,0 -56,-1 5,-168 3,-111 308,3Z"/>
    <path data-fips-int="42125" data-name="Washington County" d="M197,1572l98,111 150,63 -32,13 7,16 50,13 3,28 -20,-2 12,27 20,27 -22,20 -8,32 -64,27 -28,3 -5,-23 -41,13 -32,-12 -52,0 -6,-14 -80,34 -37,7 -18,-2 13,-385Z"/>
    <path data-fips-int="42127" data-name="Wayne County" d="M3179,734l-63,122 -30,20 -12,33 -38,-2 -3,30 18,7 -25,66 -83,7 35,-19 -18,-287 -17,-267 66,-3 27,37 23,10 9,53 33,-4 48,18 23,22 -9,34 24,11 7,98Z"/>
    <path data-fips-int="42129" data-name="Westmoreland County" d="M714,1544l12,33 30,27 11,-16 32,11 15,33 21,-10 64,26 0,21 35,-8 33,-26 17,16 -49,82 -25,39 -3,6 -2,5 -45,79 -21,-3 -42,55 -28,-3 -8,-23 -79,-55 -56,38 -27,6 -60,-35 -74,-1 -12,-27 20,2 -3,-28 49,-20 -3,-24 13,-87 39,-36 3,-78 -17,-11 -23,-28 48,-41 0,-24 15,-9 64,58 -4,32 40,26Z"/>
    <path data-fips-int="42131" data-name="Wyoming County" d="M2817,714l-44,89 15,13 -33,59 -96,35 -154,7 34,-123 10,-79 46,-4 2,6Z"/>
    <path data-fips-int="42133" data-name="York County" d="M2269,1859l37,39 66,11 25,40 15,40 45,23 10,35 38,45 44,63 -436,7 -2,-83 25,-20 -16,-34 8,-29 -28,-56 -69,-40 62,-59 70,-13 -3,-17 -9,-11 40,-19 73,37Z"/>
    <path data-fips-int="42101" data-name="Philadelphia County" d="M3266,1841l11,17 -8,36 -55,51 -38,25 5,36 -47,26 -28,-4 10,-42 -18,-33 38,-26 -33,-31 25,-30 26,5 37,27 51,-70Z"/>
    <path data-fips-int="42045" data-name="Delaware County" d="M3071,1924l27,29 18,33 -10,42 28,4 -58,10 -62,39 -41,-18 -48,-2 -7,1 -2,0 0,-29 22,-22 15,-22 53,-44 -8,-3 18,-34 30,-20Z"/>
  </g>
  <g class="cities">
    <circle r="3" cx="316.5" cy="196.9"/>
    <text x="316.5" y="196.9">Philadelphia</text>
    <circle r="3" cx="40.4" cy="160.6"/>
    <text x="40.4" y="160.6">Pittsburgh</text>
    <circle r="3" cx="296.5" cy="148.4"/>
    <text x="296.5" y="148.4">Allentown</text>
  </g>
</svg>