<?xml version="1.0" encoding="utf-8"?>
<!DOCTYPE svg PUBLIC "-//W3C//DTD SVG 1.1//EN" "http://www.w3.org/Graphics/SVG/1.1/DTD/svg11.dtd">
<svg version="1.1" xmlns="http://www.w3.org/2000/svg" width="350" height="222" viewBox="0 0 350 222">
  <defs>
    <pattern id="pattern-no-results" width="50" height="50" patternUnits="userSpaceOnUse">
      <rect width="50" height="50" fill="#ddd"/>
      <path d="M-5,5L5,-5M-5,55L55,-5M45,55L55,45" stroke-width="10" stroke="#666666"/>
    </pattern>
  </defs>
  <g class="counties" transform="scale(0.1)">
    <path data-fips-int="42001" data-name="Adams County" d="M2113,2162l-266,0 -7,-167 38,-38 125,-26 28,-31 69,40 28,56 8,63 -25,20Z"/>
    <path data-fips-int="42003" data-name="Allegheny County" d="M579,1438l0,1 0,24 -48,41 23,28 17,11 -3,78 -39,36 -10,111 -49,20 -50,-13 25,-29 -150,-63 -98,-111 96,-87 27,-12 0,-46Z"/>
    <path data-fips-int="42005" data-name="Armstrong County" d="M686,1204l133,-15 36,-29 -1,103 -2,101 -138,180 -60,-24 4,-32 -64,-58 -15,9 0,-1 10,-374 12,90 38,11 14,38Z"/>
    <path data-fips-int="42007" data-name="Beaver County" d="M320,1427l0,46 -27,12 -96,87 -92,-4 10,-279 205,3Z"/>
    <path data-fips-int="42009" data-name="Bedford County" d="M1391,1729l12,55 56,45 -40,59 14,27 -69,168 -48,76 -244,-4 30,-72 -2,-176 13,-11 49,-128 23,-63 63,30 35,34 8,-45 83,46Z"/>
    <path data-fips-int="42011" data-name="Berks County" d="M2943,1605l-92,155 -98,80 -161,-130 -166,-132 153,-32 56,-33 32,0 11,-47 55,-29Z"/>
    <path data-fips-int="42013" data-name="Blair County" d="M1474,1400l-46,30 -12,29 30,29 -18,46 26,12 12,43 -75,140 -17,41 -83,-46 -8,45 -35,-34 -63,-30 33,-35 13,-98 32,-26 78,-137 -7,-6Z"/>
    <path data-fips-int="42015" data-name="Bradford County" d="M2572,449l23,262 -46,4 -10,79 -333,-33 -35,-4 -30,-301Z"/>
    <path data-fips-int="42017" data-name="Bucks County" d="M3269,1894l-3,-53 -24,-13 -271,-203 82,-90 78,-56 3,29 57,4 15,22 3,83 53,14 15,41 103,92 32,43 -58,26 -22,33Z"/>
    <path data-fips-int="42019" data-name="Butler County" d="M588,1062l1,2 -10,374 -259,-11 0,-135 -2,-108 40,-51 58,-75Z"/>
    <path data-fips-int="42021" data-name="Cambria County" d="M1341,1409l-78,137 -32,26 -13,98 -33,35 -23,63 -130,-3 -22,-31 -75,-1 49,-82 36,-77 65,-168Z"/>
    <path data-fips-int="42023" data-name="Cameron County" d="M1428,741l86,108 35,1 0,79 -60,114 -81,-12 -9,-130 -93,-1 2,-147 0,-12Z"/>
    <path data-fips-int="42025" data-name="Carbon County" d="M2855,1095l1,1 -1,-1 1,1 7,6 50,52 40,47 -43,27 60,101 -77,22 -2,0 -81,40 -83,-66 -57,-63 148,-74 -20,-64 29,-18Z"/>
    <path data-fips-int="42027" data-name="Centre County" d="M2023,1171l-75,101 -48,48 -180,87 -50,8 -31,-18 -68,39 -97,-36 -140,3 -8,-17 85,-108 80,-69 15,-1 -25,-88 40,-29 20,4 0,-1 0,1 0,-1 16,-41 42,-35 3,53 59,-3 26,57 20,-4 77,35 35,76 93,-17Z"/>
    <path data-fips-int="42029" data-name="Chester County" d="M3046,1888l-48,54 8,3 -53,44 -15,22 -22,51 -60,25 -39,63 -210,4 22,-2 49,-97 12,-87 30,-52 -5,-54 38,-22 98,-80 82,24 58,89Z"/>
    <path data-fips-int="42031" data-name="Clarion County" d="M864,949l-9,211 -36,29 -133,15 -33,-1 -14,-38 -38,-11 -12,-90 -1,-2 51,-77 2,-33 71,-10 0,-37 44,1 1,-37 108,6Z"/>
    <path data-fips-int="42033" data-name="Clearfield County" d="M1408,1031l81,12 32,48 -40,29 25,88 -15,1 -80,69 -85,108 8,17 7,6 -256,-3 0,-135 3,-170 22,-52 32,1 36,-38Z"/>
    <path data-fips-int="42035" data-name="Clinton County" d="M2023,1153l0,18 -111,44 -93,17 -35,-76 -77,-35 -20,4 -26,-57 -59,3 -3,-53 -42,35 -16,41 0,1 0,-1 0,1 -20,-4 -32,-48 60,-114 0,-79 218,-2 35,85 105,107 15,0 89,113Z"/>
    <path data-fips-int="42037" data-name="Columbia County" d="M2552,1236l-42,50 -11,62 -42,20 -15,-43 -53,7 -17,-43 4,-63 -29,-64 -26,-8 -15,-68 28,-2 80,-89 22,-25 55,-1 -4,78 25,54 27,-6Z"/>
    <path data-fips-int="42039" data-name="Crawford County" d="M646,557l-5,168 -120,-2 -98,97 -72,6 -171,-11 0,-1 0,1 0,-1 -50,-2 10,-270Z"/>
    <path data-fips-int="42041" data-name="Cumberland County" d="M2191,1781l-31,30 3,17 -70,13 -62,59 -28,31 -125,26 -38,38 10,-21 -36,-54 -2,-1 2,1 -2,-1 -13,-24 -15,-37 -25,-54 5,10 126,-92 -23,38 55,-26 51,6 152,-20 33,-14Z"/>
    <path data-fips-int="42043" data-name="Dauphin County" d="M2276,1459l95,76 -80,61 65,207 -87,56 -5,-41 -73,-37 -33,-75 -50,-21 -8,-51 36,-30 -25,-78 25,-44 15,15 2,2 -2,-2Z"/>
    <path data-fips-int="42047" data-name="Elk County" d="M1308,753l-2,147 93,1 9,130 -230,-19 -36,38 -14,-45 -133,-87 -68,26 0,-63 20,-22 58,13 3,-139 265,-1Z"/>
    <path data-fips-int="42049" data-name="Erie County" d="M649,446l-3,111 -506,-15 4,-96 83,-31 116,-58 8,-13 0,-1 5,-9 42,-22 -7,1 0,10 -35,11 0,7 -5,2 0,1 20,-2 12,-6 186,-95 -5,202Z"/>
    <path data-fips-int="42051" data-name="Fayette County" d="M797,1914l-76,137 31,30 -16,70 -301,-6 -12,-95 12,-55 -44,-48 64,-27 30,-52 -20,-27 74,1 60,35 83,-44Z"/>
    <path data-fips-int="42053" data-name="Forest County" d="M1008,733l-3,139 -58,-13 -20,22 0,63 -63,5 1,-74 -108,-6 -1,37 -44,-1 -16,-65 1,-114Z"/>
    <path data-fips-int="42055" data-name="Franklin County" d="M1759,1804l25,54 15,37 13,24 2,1 -2,-1 2,1 36,54 -10,21 7,167 -368,-1 58,-82 47,-121 32,-51 56,-110 35,-41 18,-20Z"/>
    <path data-fips-int="42057" data-name="Fulton County" d="M1616,1907l-32,51 -47,121 -58,82 -163,-2 48,-76 69,-168 -14,-27 40,-59 35,24 87,22Z"/>
    <path data-fips-int="42059" data-name="Greene County" d="M285,1928l73,-1 33,20 44,48 -12,55 12,95 -348,-12 5,-180 18,2 117,-41Z"/>
    <path data-fips-int="42061" data-name="Huntingdon County" d="M1720,1407l-13,38 -78,96 15,38 -58,76 31,24 63,-9 27,86 -35,41 -56,110 -35,-32 -87,-22 -35,-24 -56,-45 -12,-55 75,-140 -12,-43 -26,-12 18,-46 -30,-29 12,-29 46,-30 97,36 68,-39 31,18Z"/>
    <path data-fips-int="42063" data-name="Indiana County" d="M1085,1271l0,135 -65,168 -36,77 -17,-16 -68,34 0,-21 -100,-49 -43,5 -42,-60 138,-180 2,-101Z"/>
    <path data-fips-int="42065" data-name="Jefferson County" d="M1142,1050l-32,-1 -22,52 -3,170 -231,-8 1,-103 9,-211 63,-5 68,-26 133,87Z"/>
    <path data-fips-int="42067" data-name="Juniata County" d="M2141,1473l0,2 -5,7 -133,35 0,19 -75,38 -128,81 -75,81 -18,20 -27,-86 79,-84 0,-18 66,-50 0,-21 118,-62 143,9 17,27Z"/>
    <path data-fips-int="42069" data-name="Lackawanna County" d="M2960,711l18,287 -35,19 -53,54 -27,-19 -22,-113 -84,-40 -2,-24 33,-59 -15,-13 44,-89Z"/>
    <path data-fips-int="42071" data-name="Lancaster County" d="M2753,1840l-38,22 5,54 -30,52 -12,87 -49,97 -22,2 -58,1 -44,-63 -48,-80 -45,-23 -15,-40 -25,-40 -66,-11 -37,-39 87,-56 75,-32 76,-15 85,-46Z"/>
    <path data-fips-int="42073" data-name="Lawrence County" d="M358,1133l-40,51 2,108 -205,-3 5,-204 150,2 62,12Z"/>
    <path data-fips-int="42075" data-name="Lebanon County" d="M2356,1803l-65,-207 80,-61 55,43 166,132 -85,46 -76,15Z"/>
    <path data-fips-int="42077" data-name="Lehigh County" d="M3053,1535l-82,90 -28,-20 -210,-168 77,-46 81,-40 2,0 3,29 45,8 29,60 28,-13 25,34 -9,36Z"/>
    <path data-fips-int="42079" data-name="Luzerne County" d="M2890,1071l-20,27 -7,4 -7,-6 -1,-1 1,1 -1,-1 -28,11 -29,18 20,64 -148,74 -15,8 -103,-34 -13,-141 -27,6 -25,-54 4,-78 14,-52 154,-7 96,-35 2,24 84,40 22,113Z"/>
    <path data-fips-int="42081" data-name="Lycoming County" d="M2206,761l37,138 89,75 82,21 -80,89 -28,2 -52,-12 -85,12 -6,13 -37,-7 -8,46 -95,15 -12,0 -89,-113 -15,0 -105,-107 -35,-85 0,-50 358,-6 46,-35Z"/>
    <path data-fips-int="42083" data-name="McKean County" d="M1428,456l0,285 -120,0 0,12 -35,-21 -265,1 7,-155 18,-7 0,-117Z"/>
    <path data-fips-int="42085" data-name="Mercer County" d="M180,814l0,1 0,-1 0,1 171,11 72,-6 -7,238 -58,75 -26,-34 -62,-12 -150,-2 10,-273Z"/>
    <path data-fips-int="42087" data-name="Mifflin County" d="M1905,1349l0,79 38,7 -118,62 0,21 -66,50 0,18 -79,84 -63,9 -31,-24 58,-76 -15,-38 78,-96 13,-38 180,-87Z"/>
    <path data-fips-int="42089" data-name="Monroe County" d="M3234,1113l-15,39 -60,40 7,17 -52,27 -46,56 -98,37 -60,-101 43,-27 -40,-47 -50,-52 7,-4 20,-27 53,-54 83,-7 130,-14 -15,77 46,6 30,45Z"/>
    <path data-fips-int="42091" data-name="Montgomery County" d="M3242,1828l-51,70 -63,-32 -25,30 33,31 -38,26 -27,-29 -25,-36 -55,-15 -58,-89 -82,-24 92,-155 28,20Z"/>
    <path data-fips-int="42093" data-name="Montour County" d="M2306,1086l15,68 26,8 29,64 -4,63 -18,-43 -58,-20 -73,17 31,-107 0,-62Z"/>
    <path data-fips-int="42095" data-name="Northampton County" d="M3131,1479l-78,56 -39,-30 9,-36 -25,-34 -28,13 -29,-60 -45,-8 -3,-29 -2,0 2,0 77,-22 98,-37 46,-56 52,-27 41,71 -43,73 -23,-2 -15,69Z"/>
    <path data-fips-int="42097" data-name="Northumberland County" d="M2254,1074l0,62 -31,107 73,-17 58,20 18,43 17,43 53,-7 15,43 -181,91 -125,38 2,2 -2,-2 -15,-15 5,-7 0,-2 53,-54 -6,-51 31,-77 -46,-63 13,-79 -23,-50 6,-13Z"/>
    <path data-fips-int="42099" data-name="Perry County" d="M2158,1706l-33,14 -152,20 -51,-6 -55,26 23,-38 -126,92 -5,-10 -34,-68 75,-81 128,-81 75,-38 0,-19 133,-35 -25,44 25,78 -36,30 8,51Z"/>
    <path data-fips-int="42103" data-name="Pike County" d="M3234,1113l-17,11 -30,-45 -46,-6 15,-77 -130,14 25,-66 -15,-37 38,2 42,-53 63,-122 50,88 42,4 11,27 58,12 59,43 -75,52 -28,85Z"/>
    <path data-fips-int="42105" data-name="Potter County" d="M1760,458l7,340 0,50 -218,2 -35,-1 -86,-108 0,-285Z"/>
    <path data-fips-int="42107" data-name="Schuylkill County" d="M2670,1262l57,63 83,66 -77,46 -55,29 -11,47 -32,0 -56,33 -153,32 -55,-43 -95,-76 181,-91 42,-20 11,-62 42,-50 103,34Z"/>
    <path data-fips-int="42109" data-name="Snyder County" d="M2219,1291l-31,77 6,51 -53,54 0,2 0,-2 -38,-2 -17,-27 -143,-9 -38,-7 0,-79 235,-61Z"/>
    <path data-fips-int="42111" data-name="Somerset County" d="M1162,1768l-49,128 -13,11 2,176 -30,72 -336,-4 16,-70 -31,-30 76,-137 42,-55 21,3 45,-79 2,-5 3,-6 25,-39 75,1 22,31Z"/>
    <path data-fips-int="42113" data-name="Sullivan County" d="M2539,794l-34,123 -14,52 -55,1 -22,25 -82,-21 -89,-75 -37,-138Z"/>
    <path data-fips-int="42115" data-name="Susquehanna County" d="M2943,444l17,267 -143,3 -220,3 -2,-6 -23,-262Z"/>
    <path data-fips-int="42117" data-name="Tioga County" d="M2141,456l30,301 -46,35 -358,6 -7,-340Z"/>
    <path data-fips-int="42119" data-name="Union County" d="M2163,1099l23,50 -13,79 46,63 -79,-3 -235,61 -5,-29 48,-48 75,-101 0,-18 95,-15 8,-46Z"/>
    <path data-fips-int="42121" data-name="Venango County" d="M712,905l0,37 -71,10 -2,33 -51,77 -172,-4 7,-238 98,-97 120,2 56,1 -1,114Z"/>
    <path data-fips-int="42123" data-name="Warren County" d="M1033,454l0,117 -18,7 -7,155 -311,-7 -56,-1 5,-168 3,-111Z"/>
    <path data-fips-int="42125" data-name="Washington County" d="M197,1572l98,111 150,63 -25,29 50,13 -5,53 20,27 -30,52 -64,27 -33,-20 -73,1 -58,-14 -117,41 -18,-2 13,-385Z"/>
    <path data-fips-int="42127" data-name="Wayne County" d="M3179,734l-63,122 -42,53 -38,-2 15,37 -25,66 -83,7 35,-19 -18,-287 -17,-267 66,-3 50,47 9,53 33,-4 71,40 15,45 7,98Z"/>
    <path data-fips-int="42129" data-name="Westmoreland County" d="M714,1544l42,60 43,-5 100,49 0,21 68,-34 17,16 -49,82 -25,39 -3,6 -2,5 -45,79 -21,-3 -42,55 -115,-81 -83,44 -60,-35 -74,-1 5,-53 49,-20 10,-111 39,-36 3,-78 -17,-11 -23,-28 48,-41 0,-24 15,-9 64,58 -4,32Z"/>
    <path data-fips-int="42131" data-name="Wyoming County" d="M2817,714l-44,89 15,13 -33,59 -96,35 -154,7 34,-123 10,-79 46,-4 2,6Z"/>
    <path data-fips-int="42133" data-name="York County" d="M2269,1859l37,39 66,11 25,40 15,40 45,23 48,80 44,63 -436,7 -2,-83 25,-20 -8,-63 -28,-56 -69,-40 62,-59 70,-13 -3,-17 31,-30 73,37Z"/>
    <path data-fips-int="42101" data-name="Philadelphia County" d="M3266,1841l3,53 -93,76 5,36 -47,26 -28,-4 10,-42 -18,-33 38,-26 -33,-31 25,-30 63,32 51,-70Z"/>
    <path data-fips-int="42045" data-name="Delaware County" d="M3071,1924l27,29 18,33 -10,42 28,4 -58,10 -62,39 -89,-20 -7,1 -2,0 22,-51 15,-22 53,-44 -8,-3 48,-54Z"/>
  </g>
  <g class="cities">
    <circle r="3" cx="316.5" cy="196.9"/>
    <text x="316.5" y="196.9">Philadelphia</text>
    <circle r="3" cx="40.4" cy="160.6"/>
    <text x="40.4" y="160.6">Pittsburgh</text>
    <circle r="3" cx="296.5" cy="148.4"/>
    <text x="296.5" y="148.4">Allentown</text>
  </g>
</svg>