<?xml version="1.0" encoding="utf-8"?>
<!DOCTYPE svg PUBLIC "-//W3C//DTD SVG 1.1//EN" "http://www.w3.org/Graphics/SVG/1.1/DTD/svg11.dtd">
<svg version="1.1" xmlns="http://www.w3.org/2000/svg" width="350" height="203" viewBox="0 0 350 203">
  <path class="state" transform="scale(0.1)" d="M2111,1974l-264,1 -369,-3h-160l-246,-3 -336,-5 -301,-7 -348,-10 7,-181 10,-385 11,-279 5,-204 10,-273 9,-270 5,-96 103,-39 171,-87 48,-30 103,-49 -5,202 85,3 258,3 126,4 396,3 268,2 63,-2 381,-1 433,-5 369,-7 68,-2 28,39 19,8 10,53 26,-2 55,16 23,31 -13,21 23,7 12,106 -15,14 27,29 25,58 40,4 11,27 50,-4 38,10 -1,20 30,29 -39,15 -41,50 -23,72 -24,35 -38,34 -15,40 -60,39 7,16 41,73 -43,72 -18,-3 -20,70 5,59 7,32 49,-3 17,18 5,90 53,15 20,46 40,28 17,36 41,22 32,44 -33,29 -22,-4 -25,34 -63,28 -58,53 -34,16 4,42 -47,27 -56,6 -64,44 -41,-20 -48,-2 -7,1h-2l-60,25 -39,64 -208,5 -60,1Z"/>
  <g class="counties" transform="scale(0.1)">
    <path data-fips-int="42001" data-name="Adams County" d="M2111,1974l-264,1 -7,-167 38,-38 125,-26 28,-31 65,38 34,62 -10,31 16,28 -25,20Z"/>
    <path data-fips-int="42003" data-name="Allegheny County" d="M579,1251v25l-48,40 5,24 35,16 -3,77 -37,33 -25,104 13,10 -49,20 -55,-18 30,-23 -145,-60 -103,-115 96,-86 29,-13v-45Z"/>
    <path data-fips-int="42005" data-name="Armstrong County" d="M855,972l-3,104v101l-138,181 -25,2 -36,-30v-32l-59,-55 -15,8 9,-248 1,-126 7,4 5,86 38,10 5,35 55,-1 20,10 20,-16 27,22 5,-20 46,-5Z"/>
    <path data-fips-int="42007" data-name="Beaver County" d="M322,1240v45l-29,13 -96,86 -93,-3 11,-279 203,3Z"/>
    <path data-fips-int="42009" data-name="Bedford County" d="M1391,1542l12,55 58,45 -15,32 -27,25 12,28 -48,110 -19,59 -46,76 -246,-3 30,-73 -2,-177 13,-10 49,-129 23,-62 63,30 35,33 7,-43 84,44Z"/>
    <path data-fips-int="42011" data-name="Berks County" d="M2945,1418l-92,156 -100,79 -161,-130 -166,-132 58,-16 46,-1 84,-36 53,-14 10,-45 56,-29Z"/>
    <path data-fips-int="42013" data-name="Blair County" d="M1474,1212l-51,32 -9,30 32,26 -18,48 18,16 20,-23 -15,58h15l-15,38 -60,105 -17,40 -84,-44 -7,43 -35,-33 -63,-30 31,-32 15,-102 32,-25 27,-46v-33l16,1 35,-59 -5,-6Z"/>
    <path data-fips-int="42015" data-name="Bradford County" d="M2574,263l8,93 13,167 -46,5 -10,78 -333,-31 -35,-5 -13,-157 -17,-145Z"/>
    <path data-fips-int="42017" data-name="Bucks County" d="M3269,1707l3,-53 -30,-13 -271,-203 43,-57 39,-33 78,-56 7,32 49,-3 17,18 5,90 53,15 20,46 40,28 17,36 41,22 32,44 -33,29 -22,-4 -25,34Z"/>
    <path data-fips-int="42019" data-name="Butler County" d="M588,875l1,2 -1,126 -9,248 -257,-11 -4,-135v-108l40,-51 58,-75Z"/>
    <path data-fips-int="42021" data-name="Cambria County" d="M1341,1222l-35,59 -16,-1v33l-27,46 -32,25 -15,102 -31,32 -23,62 -114,-3 -40,-30 -73,-1 49,-82 33,-69 68,-176Z"/>
    <path data-fips-int="42023" data-name="Cameron County" d="M1429,554l85,107h35v80l-60,113 -81,-10v-69h-9v-61l-94,-1 1,-148v-11Z"/>
    <path data-fips-int="42025" data-name="Carbon County" d="M2863,914l90,99 -43,28 60,101 -77,22 -43,11 -42,29 -71,-56 -67,-73 150,-74 -23,-33 1,-31 42,-30Z"/>
    <path data-fips-int="42027" data-name="Centre County" d="M2023,984l-35,41 -40,60 -48,47 -25,9 -155,79 -50,7 -31,-18 -68,40 -97,-37 -138,4 -10,-16 53,-72 20,-5 22,-45 42,-22 46,-42v-26l-31,-59 43,-26 20,3 58,-76 3,54 57,-3 26,54h44l60,40 -10,7 40,64 99,-21Z"/>
    <path data-fips-int="42029" data-name="Chester County" d="M3046,1700l-51,55 11,8 -50,30 -36,46 -4,35 -60,25 -39,64 -208,5 20,-3 30,-46 13,-52 21,-16 -6,-57 33,-66 -7,-54 40,-21 100,-79 78,23 17,42 35,15 8,31 22,-8 15,27Z"/>
    <path data-fips-int="42031" data-name="Clarion County" d="M862,761l-3,190 -4,21 -38,30 -46,5 -5,20 -27,-22 -20,16 -20,-10 -55,1 -5,-35 -38,-10 -5,-86 -7,-4 -1,-2 25,-33 1,-27 25,-17 2,-34 71,-9v-38l42,1 3,-38 107,7Z"/>
    <path data-fips-int="42033" data-name="Clearfield County" d="M1408,844l81,10 32,49 -43,26 31,59v26l-46,42 -42,22 -22,45 -20,5 -53,72 10,16 5,6 -256,-3v-136l3,-170 22,-51 32,1 34,-11 2,-27Z"/>
    <path data-fips-int="42035" data-name="Clinton County" d="M2023,966v18l-105,41 -99,21 -40,-64 10,-7 -60,-40h-44l-26,-54 -57,3 -3,-54 -58,76 -20,-3 -32,-49 60,-113v-80l218,-1 2,28 31,55 37,23 1,17 49,53 36,17 88,113Z"/>
    <path data-fips-int="42037" data-name="Columbia County" d="M2552,1050l-42,50 -11,61 -42,20 -15,-44 -53,8 -5,-43h-12l4,-63 -25,-25 -5,-40 -25,-7 -15,-68 28,-2 80,-90 22,-25 55,-1 -4,78 25,54 27,-5v72Z"/>
    <path data-fips-int="42039" data-name="Crawford County" d="M644,369l-3,169v5l-120,-7 -2,16 -36,20 -17,27 -46,33 -69,6 -221,-13 9,-270 246,8Z"/>
    <path data-fips-int="42041" data-name="Cumberland County" d="M2191,1593l-26,4 -2,44 -72,14 -60,58 -28,31 -125,26 -38,38 10,-22 -45,-57 -16,-52 -20,-12 -10,-47 46,-18 63,-51 35,-12 -35,37 54,-27 6,19 110,-23 85,-10 35,-14 11,55Z"/>
    <path data-fips-int="42043" data-name="Dauphin County" d="M2276,1271l95,76 -80,61 65,208 -37,19 -36,16 -14,22 -8,-46 -70,-34 -22,-19 -11,-55 -13,-23 -39,2 -8,-47 38,-34 -18,-37 -3,-47 21,-38 15,15Z"/>
    <path data-fips-int="42047" data-name="Elk County" d="M1306,565l-1,148 94,1v61h9v69l-230,-19 -2,27 -34,11 -14,-46 -125,-76 -6,-12 -70,26v-61l18,-22 50,1 10,11 3,-139 42,2 223,-3v21Z"/>
    <path data-fips-int="42049" data-name="Erie County" d="M649,259l-5,110 -259,-6 -246,-8 5,-96 103,-39 171,-87 48,-30 103,-49 -5,202Z"/>
    <path data-fips-int="42051" data-name="Fayette County" d="M797,1726l-63,106 -12,32 30,28v26l-26,34 10,12 -301,-7v-50l-12,-44 12,-54 -17,-26 -33,-5 6,-18 64,-27 -4,-43 34,-10 -22,-26 76,1 34,11 20,22 31,5 10,-19 48,-28 80,54 7,24Z"/>
    <path data-fips-int="42053" data-name="Forest County" d="M1008,545l-3,139 -10,-11 -50,-1 -18,22v61l-65,6 2,-74 -107,-7 -3,38 -42,-1 2,-40h-25l7,-24 1,-114 182,1Z"/>
    <path data-fips-int="42055" data-name="Franklin County" d="M1759,1618l10,47 20,12 16,52 45,57 -10,22 7,167 -369,-3 49,-65 25,-48 30,-94 34,-45 41,-85 48,-66 20,-20Z"/>
    <path data-fips-int="42057" data-name="Fulton County" d="M1616,1720l-34,45 -30,94 -25,48 -49,65h-160l46,-76 19,-59 48,-110 -12,-28 27,-25 15,-32 32,23 88,24Z"/>
    <path data-fips-int="42059" data-name="Greene County" d="M391,1760l-6,18 33,5 17,26 -12,54 12,44v50l-348,-10 7,-181 28,7 12,-16 79,-20 79,1 26,15 40,-14 3,24Z"/>
    <path data-fips-int="42061" data-name="Huntingdon County" d="M1720,1220l-15,37 -38,41 -40,55 15,38 -55,77 55,27 38,-13 25,87 -48,66 -41,85 -35,-31 -88,-24 -32,-23 -58,-45 -12,-55 60,-105 15,-38h-15l15,-58 -20,23 -18,-16 18,-48 -32,-26 9,-30 51,-32 97,37 68,-40 31,18Z"/>
    <path data-fips-int="42063" data-name="Indiana County" d="M1085,1083v136l-68,176 -33,69 -20,-17 -27,25 -38,9 5,-17 -90,-20 -17,-34 -43,7 -30,-28 -10,-31 138,-181v-101Z"/>
    <path data-fips-int="42065" data-name="Jefferson County" d="M1142,863l-32,-1 -22,51 -3,170 -233,-7 3,-104 4,-21 3,-190 65,-6 70,-26 6,12 125,76Z"/>
    <path data-fips-int="42067" data-name="Juniata County" d="M2141,1287l-5,8 -41,18 -92,15 7,21 -67,28 -143,90 -16,24 -59,58 -20,20 -25,-87 79,-83v-18l66,-51v-22l63,-37 55,-24 78,12 65,-2 17,27Z"/>
    <path data-fips-int="42069" data-name="Lackawanna County" d="M2960,523l20,287 -35,18 -35,27 -19,29 -28,-19 -3,-53 -22,-22 2,-38 -32,-6 -50,-34 -1,-24 33,-59 -18,-13 45,-90Z"/>
    <path data-fips-int="42071" data-name="Lancaster County" d="M2753,1653l-40,21 7,54 -33,66 6,57 -21,16 -13,52 -30,46 -20,3 -60,1 -44,-66 -38,-44 -3,-28 -52,-30 -11,-44 -29,-36 -20,3 -49,-16 -34,-35 14,-22 36,-16 37,-19 75,-33 73,-13 88,-47Z"/>
    <path data-fips-int="42073" data-name="Lawrence County" d="M358,946l-40,51v108l-203,-3 5,-204 148,2 62,12Z"/>
    <path data-fips-int="42075" data-name="Lebanon County" d="M2356,1616l-65,-208 80,-61 55,44 166,132 -88,47 -73,13Z"/>
    <path data-fips-int="42077" data-name="Lehigh County" d="M3053,1348l-39,33 -43,57 -26,-20 -212,-168 75,-46 42,-29 43,-11 10,39 38,-2 24,60 31,-14 25,30 -8,36Z"/>
    <path data-fips-int="42079" data-name="Luzerne County" d="M2891,884l-28,30 -23,-7 -42,30 -1,31 23,33 -150,74 -15,8 -103,-33 -13,-70v-72l-27,5 -25,-54 4,-78 14,-52 155,-7 97,-34 1,24 50,34 32,6 -2,38 22,22 3,53Z"/>
    <path data-fips-int="42081" data-name="Lycoming County" d="M2206,575l37,137 93,76 78,19 -80,90 -28,2 -52,-12 -33,-3 -50,14 -8,14 -37,-7 -8,46 -53,2 -42,13h-12l-88,-113 -36,-17 -49,-53 -1,-17 -37,-23 -31,-55 -2,-28v-48l201,-2 157,-6 46,-34Z"/>
    <path data-fips-int="42083" data-name="McKean County" d="M1429,269v285h-123v11h-33v-21l-223,3 -42,-2 7,-155 18,-7v-117Z"/>
    <path data-fips-int="42085" data-name="Mercer County" d="M420,632l-4,239 -58,75 -28,-34 -62,-12 -148,-2 10,-273 221,13Z"/>
    <path data-fips-int="42087" data-name="Mifflin County" d="M1905,1162v79l38,6 -55,24 -63,37v22l-66,51v18l-79,83 -38,13 -55,-27 55,-77 -15,-38 40,-55 38,-41 15,-37 155,-79 25,-9Z"/>
    <path data-fips-int="42089" data-name="Monroe County" d="M3234,926l-15,40 -60,39 7,16 -52,29 -10,25 -36,31 -50,23 -48,13 -60,-101 43,-28 -90,-99 28,-30 19,-29 35,-27 79,-5 130,-14 -13,77 46,6 29,45Z"/>
    <path data-fips-int="42091" data-name="Montgomery County" d="M3242,1641l-50,70 -41,-29 -25,-4 -22,31 34,31 -40,26 -52,-66 -18,4 -15,-27 -22,8 -8,-31 -35,-15 -17,-42 -78,-23 92,-156 26,20Z"/>
    <path data-fips-int="42093" data-name="Montour County" d="M2306,899l15,68 25,7 5,40 25,25 -4,63h-13l-5,-44 -58,-19 -73,16 31,-106v-62Z"/>
    <path data-fips-int="42095" data-name="Northampton County" d="M3131,1292l-78,56 -40,-35 8,-36 -25,-30 -31,14 -24,-60 -38,2 -10,-39 77,-22 48,-13 50,-23 36,-31 10,-25 52,-29 41,73 -43,72 -18,-3 -20,70Z"/>
    <path data-fips-int="42097" data-name="Northumberland County" d="M2254,887v62l-31,106 73,-16 58,19 5,44h13h12l5,43 53,-8 15,44 -181,90 -125,39 -15,-15 5,-8 53,-56 -6,-51 31,-76 -28,-23 -18,-40 13,-80 -23,-49 8,-14 50,-14Z"/>
    <path data-fips-int="42099" data-name="Perry County" d="M2158,1519l-35,14 -85,10 -110,23 -6,-19 -54,27 35,-37 -35,12 -63,51 -46,18 -34,-69 59,-58 16,-24 143,-90 67,-28 -7,-21 92,-15 41,-18 -21,38 3,47 18,37 -38,34 8,47 39,-2Z"/>
    <path data-fips-int="42103" data-name="Pike County" d="M3234,926l-18,11 -29,-45 -46,-6 13,-77 -130,14 27,-67 -18,-6 5,-30h38l10,-32 33,-32 60,-109 27,29 25,58 40,4 11,27 50,-4 38,10 -1,20 30,29 -39,15 -41,50 -23,72 -24,35Z"/>
    <path data-fips-int="42105" data-name="Potter County" d="M1760,269l7,343v48l-218,1h-35l-85,-107v-285l268,2Z"/>
    <path data-fips-int="42107" data-name="Schuylkill County" d="M2670,1075l67,73 71,56 -75,46 -56,29 -10,45 -53,14 -84,36 -46,1 -58,16 -55,-44 -95,-76 181,-90 42,-20 11,-61 42,-50 103,33Z"/>
    <path data-fips-int="42109" data-name="Snyder County" d="M2219,1104l-31,76 6,51 -53,56 -38,-3 -17,-27 -65,2 -78,-12 -38,-6v-79l170,-48 63,-13Z"/>
    <path data-fips-int="42111" data-name="Somerset County" d="M1162,1580l-49,129 -13,10 2,177 -30,73 -336,-5 -10,-12 26,-34v-26l-30,-28 12,-32 63,-106 42,-53 21,2 75,-129 73,1 40,30Z"/>
    <path data-fips-int="42113" data-name="Sullivan County" d="M2539,606l-34,123 -14,52 -55,1 -22,25 -78,-19 -93,-76 -37,-137Z"/>
    <path data-fips-int="42115" data-name="Susquehanna County" d="M2943,256l17,267 -143,3 -220,4 -2,-7 -13,-167 -8,-93Z"/>
    <path data-fips-int="42117" data-name="Tioga County" d="M2141,268l17,145 13,157 -46,34 -157,6 -201,2 -7,-343Z"/>
    <path data-fips-int="42119" data-name="Union County" d="M2163,912l23,49 -13,80 18,40 28,23 -81,-3 -63,13 -170,48 -5,-30 48,-47 40,-60 35,-41v-18l42,-13 53,-2 8,-46Z"/>
    <path data-fips-int="42121" data-name="Venango County" d="M712,717v38l-71,9 -2,34 -25,17 -1,27 -25,33 -172,-4 4,-239 46,-33 17,-27 36,-20 2,-16 120,7v-5l56,1 -1,114 -7,24h25Z"/>
    <path data-fips-int="42123" data-name="Warren County" d="M1033,266v117l-18,7 -7,155 -129,-5 -182,-1 -56,-1 3,-169 5,-110 258,3Z"/>
    <path data-fips-int="42125" data-name="Washington County" d="M197,1384l103,115 145,60 -30,23 55,18 -7,54 22,26 -34,10 4,43 -64,27 -30,3 -3,-24 -40,14 -26,-15 -79,-1 -79,20 -12,16 -28,-7 10,-385Z"/>
    <path data-fips-int="42127" data-name="Wayne County" d="M3179,547l-60,109 -33,32 -10,32h-38l-5,30 18,6 -27,67 -79,5 35,-18 -20,-287 -17,-267 68,-2 28,39 19,8 10,53 26,-2 55,16 23,31 -13,21 23,7 12,106Z"/>
    <path data-fips-int="42129" data-name="Westmoreland County" d="M714,1358l10,31 30,28 43,-7 17,34 90,20 -5,17 38,-9 27,-25 20,17 -49,82 -75,129 -21,-2 -42,53 -28,-2 -7,-24 -80,-54 -48,28 -10,19 -31,-5 -20,-22 -34,-11 -76,-1 7,-54 49,-20 -13,-10 25,-104 37,-33 3,-77 -35,-16 -5,-24 48,-40v-25l15,-8 59,55v32l36,30Z"/>
    <path data-fips-int="42131" data-name="Wyoming County" d="M2817,526l-45,90 18,13 -33,59 -97,34 -155,7 34,-123 10,-78 46,-5 2,7Z"/>
    <path data-fips-int="42133" data-name="York County" d="M2269,1673l34,35 49,16 20,-3 29,36 11,44 52,30 3,28 38,44 44,66 -438,5v-82l25,-20 -16,-28 10,-31 -34,-62 -65,-38 60,-58 72,-14 2,-44 26,-4 70,34Z"/>
    <path data-fips-int="42101" data-name="Philadelphia County" d="M3269,1707l-58,53 -34,16 4,42 -47,27 -28,-5 13,-49 -21,-25 40,-26 -34,-31 22,-31 25,4 41,29 50,-70 30,13Z"/>
    <path data-fips-int="42045" data-name="Delaware County" d="M3098,1766l21,25 -13,49 28,5 -56,6 -64,44 -41,-20 -48,-2 -7,1h-2l4,-35 36,-46 50,-30 -11,-8 51,-55Z"/>
  </g>
  <path class="mesh" transform="scale(0.1)" d="M579,1251v25l-48,40 5,24 35,16 -3,77 -37,33 -25,104 13,10 -49,20 -55,-18 30,-23 -145,-60 -103,-115 96,-86 29,-13v-45l257,11 9,-248 1,-126 7,4 5,86 38,10 5,35 55,-1 20,10 20,-16 27,22 5,-20 46,-5 38,-30 -3,104v101l-138,181 -25,2 -36,-30v-32l-59,-55 -15,8M197,1384l-93,-3M115,1102l203,3 4,135M1072,1969l30,-73 -2,-177 13,-10 49,-129 23,-62 63,30 35,33 7,-43 84,44 17,-40 12,55 58,45 -15,32 -27,25 12,28 -48,110 -19,59 -46,76M2971,1438l-26,-20 -92,156 -100,79 -161,-130 -166,-132 58,-16 46,-1 84,-36 53,-14 10,-45 56,-29 212,168M1185,1518l31,-32 15,-102 32,-25 27,-46v-33l16,1 35,-59 -5,-6 138,-4 -51,32 -9,30 32,26 -18,48 18,16 20,-23 -15,58h15l-15,38 -60,105M2574,263l8,93 13,167 -46,5 -10,78 -333,-31 -35,-5 -13,-157 -17,-145M3269,1707l3,-53 -30,-13 -271,-203 43,-57 39,-33 78,-56M318,1105v-108l40,-51 58,-75 172,4 1,2M1162,1580l-114,-3 -40,-30 -73,-1 49,-82 33,-69 68,-176 256,3M1429,269v285l85,107h35v80l-60,113 -81,-10v-69h-9v-61l-94,-1 1,-148v-11h123M2891,884l-28,30 90,99 -43,28 60,101 -77,22 -43,11 -42,29 -71,-56 -67,-73 150,-74 -23,-33 1,-31 42,-30 23,7M1336,1216l-10,-16 53,-72 20,-5 22,-45 42,-22 46,-42v-26l-31,-59 43,-26 20,3 58,-76 3,54 57,-3 26,54h44l60,40 -10,7 40,64 99,-21 105,-41 -35,41 -40,60 -48,47 -25,9 -155,79 -50,7 -31,-18 -68,40 -97,-37M2853,1574l78,23 17,42 35,15 8,31 22,-8 15,27 18,-4 -51,55 11,8 -50,30 -36,46 -4,35M2609,1968l20,-3 30,-46 13,-52 21,-16 -6,-57 33,-66 -7,-54 40,-21M588,875l25,-33 1,-27 25,-17 2,-34 71,-9v-38l42,1 3,-38 107,7 -2,74 -3,190 -4,21M1489,854l32,49M1085,1219v-136l3,-170 22,-51 32,1 34,-11 2,-27 230,19M1549,661l218,-1 2,28 31,55 37,23 1,17 49,53 36,17 88,113h12v18M2670,1075l-15,8 -103,-33 -42,50 -11,61 -42,20 -15,-44 -53,8 -5,-43h-12l4,-63 -25,-25 -5,-40 -25,-7 -15,-68 28,-2 80,-90 22,-25 55,-1 -4,78 25,54 27,-5v72l13,70M139,355l246,8 259,6 -3,169v5l-120,-7 -2,16 -36,20 -17,27 -46,33 -69,6 -221,-13M2158,1519l-13,-23 -39,2 -8,-47 38,-34 -18,-37 -3,-47 21,-38 15,15 125,-39 95,76 -80,61 65,208 -37,19 -36,16 -14,22 -8,-46 -70,-34M1142,863l-14,-46 -125,-76 -6,-12 -70,26v-61l18,-22 50,1 10,11 3,-139 42,2 223,-3v21h33M649,259l-5,110M435,1957v-50l-12,-44 12,-54 -17,-26 -33,-5 6,-18 64,-27 -4,-43 34,-10 -22,-26 76,1 34,11 20,22 31,5 10,-19 48,-28 80,54 7,24 28,2 -63,106 -12,32 30,28v26l-26,34 10,12M927,755l-65,6M1478,1972l49,-65 25,-48 30,-94 34,-45 41,-85 48,-66 20,-20 34,69M1461,1642l32,23 88,24 35,31M94,1766l28,7 12,-16 79,-20 79,1 26,15 40,-14 3,24 30,-3M1720,1220l-15,37 -38,41 -40,55 15,38 -55,77 55,27 38,-13 25,87M984,1464l-20,-17 -27,25 -38,9 5,-17 -90,-20 -17,-34 -43,7 -30,-28 -10,-31M852,1076l233,7M1680,1482l79,-83v-18l66,-51v-22l63,-37 55,-24 78,12 65,-2 17,27 38,3 -5,8 -41,18 -92,15 7,21 -67,28 -143,90 -16,24 -59,58M2943,256l17,267 20,287 -35,18 -35,27 -19,29 -28,-19 -3,-53 -22,-22 2,-38 -32,-6 -50,-34 -1,-24 33,-59 -18,-13 45,-90 143,-3M2549,1969l-44,-66 -38,-44 -3,-28 -52,-30 -11,-44 -29,-36 -20,3 -49,-16 -34,-35M2356,1616l75,-33 73,-13 88,-47M120,898l148,2 62,12 28,34M2371,1347l55,44M2733,1250l75,-46M2893,1164l10,39 38,-2 24,60 31,-14 25,30 -8,36 40,35M2491,781l14,-52 155,-7 97,-34M2206,575l37,137 93,76 78,19M2306,899l-52,-12 -33,-3 -50,14 -8,14 -37,-7 -8,46 -53,2 -42,13M1767,660v-48l201,-2 157,-6 46,-34M712,717l2,-40h-25l7,-24 1,-114 182,1 129,5 7,-155 18,-7v-117M420,632l-4,239M1900,1132l5,30v79l38,6M3166,1021l-52,29 -10,25 -36,31 -50,23 -48,13M2945,828l79,-5 130,-14 -13,77 46,6 29,45 18,-11M1840,1808l38,-38 125,-26 28,-31 65,38 34,62 -10,31 16,28 -25,20v82M3242,1641l-50,70 -41,-29 -25,-4 -22,31 34,31 -40,26 -52,-66M2372,1102h-13l-5,-44 -58,-19 -73,16 31,-106v-62M2457,1181l-181,90M2141,1287l53,-56 -6,-51 31,-76 -28,-23 -18,-40 13,-80 -23,-49M3024,823l27,-67 -18,-6 5,-30h38l10,-32 33,-32 60,-109M1760,269l7,343M1905,1162l170,-48 63,-13 81,3M797,1726l42,-53 21,2 75,-129M2539,606l-34,123M2817,526l-220,4 -2,-7M641,538l56,1M470,1600l-7,54M3134,1845l-28,-5 13,-49 -21,-25M1847,1975l-7,-167 10,-22 -45,-57 -16,-52 -20,-12 -10,-47 46,-18 63,-51 35,-12 -35,37 54,-27 6,19 110,-23 85,-10 35,-14 11,55 22,19 -26,4 -2,44 -72,14 -60,58"/>
  <g class="cities">
    <circle r="3" cx="316.4" cy="178.2"/>
    <text x="316.4" y="178.2">Philadelphia</text>
    <circle r="3" cx="40.3" cy="141.8"/>
    <text x="40.3" y="141.8">Pittsburgh</text>
    <circle r="3" cx="296.5" cy="129.7"/>
    <text x="296.5" y="129.7">Allentown</text>
  </g>
</svg>