<?xml version="1.0" encoding="utf-8"?>
<!DOCTYPE svg PUBLIC "-//W3C//DTD SVG 1.1//EN" "http://www.w3.org/Graphics/SVG/1.1/DTD/svg11.dtd">
<svg version="1.1" xmlns="http://www.w3.org/2000/svg" width="350" height="222" viewBox="0 0 350 222">
  <path class="state" transform="scale(0.1)" d="M2916,2062l-60,26 -39,62 -208,4 -60,1 -436,7 -266,1 -369,-2 -160,-2 -246,-4 -336,-4 -301,-6 -348,-12 7,-180 10,-385 11,-279 5,-204 12,-273 7,-269 5,-96 11,-261 241,-42 178,-88 -5,185 -5,202 85,3 308,4 76,4 396,2 173,3 158,-1 381,-2 433,-6 369,-6 68,-3 25,37 22,10 10,53 50,-5 31,19 22,32 -8,24 24,11 7,98 -15,14 52,73v15l40,4 11,27 55,9 33,-4 -1,20 30,27 -39,19 -34,37 -30,84 -24,34 -38,34 -25,48 -50,31 7,17 41,72 -43,72 -23,-2 -15,60 13,16 -8,52 10,34 38,-8 25,21 5,91 53,14 17,44 48,39 12,28 41,22 32,43 -35,30 -23,-4 -22,34 -63,27 -55,51 -37,18 4,43 -47,25 -58,11 -62,40 -46,-20 -43,-1 -7,1h-2"/>
  <g class="counties" transform="scale(0.1)">
    <path data-fips-int="42001" data-name="Adams County" d="M2113,2162l-266,1 -7,-168 38,-39 125,-25 28,-31 69,41 30,59 -10,25 16,34 -25,20Z"/>
    <path data-fips-int="42003" data-name="Allegheny County" d="M579,1438v1v25l-48,40 5,23 35,15 -3,78 -39,37 -13,87 3,24 -49,21 -52,-15 23,-29 -144,-61 -100,-112 106,-95 19,-3v-47Z"/>
    <path data-fips-int="42005" data-name="Armstrong County" d="M855,1160l-3,103v101l-138,181 -25,2 -36,-27 5,-32 -64,-58 -15,9v-1l9,-247 1,-127 7,4 5,86 38,11 -6,21 20,17 81,4 5,-14 78,-3Z"/>
    <path data-fips-int="42007" data-name="Beaver County" d="M322,1427v47l-19,3 -106,95 -93,-4 11,-279 203,3Z"/>
    <path data-fips-int="42009" data-name="Bedford County" d="M1391,1729l12,55 58,45 -42,58 12,28 -25,53 -42,115 -46,76 -246,-4 30,-72 -2,-176 13,-11 49,-128 23,-63 65,31 33,33 7,-45 84,46Z"/>
    <path data-fips-int="42011" data-name="Berks County" d="M2945,1605l-92,155 -100,80 -161,-129 -166,-133 58,-16 46,-1 100,-39 37,-9 10,-47 56,-29Z"/>
    <path data-fips-int="42013" data-name="Blair County" d="M1474,1399l-58,42 -2,18 32,29 -18,46 26,11 -3,41 15,3 -75,140 -17,41 -84,-46 -7,45 -33,-33 -65,-31 31,-32 15,-101 37,-33 22,-37v-35l16,2 35,-61 -5,-6 127,-6Z"/>
    <path data-fips-int="42015" data-name="Bradford County" d="M2574,450l20,215 1,46 -46,4 -10,79 -308,-30 -25,-3 -35,-4 -30,-301Z"/>
    <path data-fips-int="42017" data-name="Bucks County" d="M3269,1894l3,-53 -30,-13 -271,-203 40,-53 42,-37 78,-56 10,34 38,-8 25,21 5,91 53,14 17,44 48,39 12,28 41,22 32,43 -35,30 -23,-4 -22,34Z"/>
    <path data-fips-int="42019" data-name="Butler County" d="M588,1062l1,2 -1,127 -9,247 -257,-11 -4,-135v-108l40,-51 58,-75Z"/>
    <path data-fips-int="42021" data-name="Cambria County" d="M1341,1408l-35,61 -16,-2v35l-22,37 -37,33 -15,101 -31,32 -23,63 -130,-3 -22,-31 -75,-1 49,-82 36,-77 65,-169Z"/>
    <path data-fips-int="42023" data-name="Cameron County" d="M1429,741l85,108 35,1v79l-60,113 -81,-11v-70h-9v-60l-94,-1 1,-147v-12Z"/>
    <path data-fips-int="42025" data-name="Carbon County" d="M2855,1095l8,7 18,8 72,91 -43,27 60,101 -79,22 -36,9 -47,32 -70,-55 -68,-75 150,-74 -23,-52 41,-41Z"/>
    <path data-fips-int="42027" data-name="Centre County" d="M2023,1171l-75,101 -48,47 -43,18 -137,70 -50,8 -31,-18 -68,39 -97,-37 -11,-3 -127,6 -10,-16 37,-39 13,-29 23,-9 12,-31 42,-30 41,-10 13,-73 -29,-43 43,-31 20,3 16,-43 20,-2 22,-31 3,54 57,-3 28,56 45,4 52,27 -5,15 40,61 93,-17Z"/>
    <path data-fips-int="42029" data-name="Chester County" d="M3046,1888l-30,20 -10,42 -50,30 -40,53v29l-60,26 -39,62 -208,4 16,-2 34,-46 31,-63 2,-75 28,-52 -7,-54 40,-22 100,-80 78,25 30,54 24,3 6,31 22,-7 15,25Z"/>
    <path data-fips-int="42031" data-name="Clarion County" d="M864,949l-5,189 -4,22 -38,30 -78,3 -5,14 -81,-4 -20,-17 6,-21 -38,-11 -5,-86 -7,-4 -1,-2 26,-33v-28l25,-16 2,-33 71,-10v-37h42l3,-36 107,6Z"/>
    <path data-fips-int="42033" data-name="Clearfield County" d="M1408,1031l81,11 32,49 -43,31 29,43 -13,73 -41,10 -42,30 -12,31 -23,9 -13,29 -37,39 10,16 5,6 -256,-3v-134l3,-170 22,-52 32,1 34,-11 2,-27Z"/>
    <path data-fips-int="42035" data-name="Clinton County" d="M2023,1153v18l-111,44 -93,17 -40,-61 5,-15 -52,-27 -45,-4 -28,-56 -57,3 -3,-54 -22,31 -20,2 -16,43 -20,-3 -32,-49 60,-113v-79l218,-2 2,27 31,56 37,22 1,17 69,70h15l89,113Z"/>
    <path data-fips-int="42037" data-name="Columbia County" d="M2552,1236l-42,51 -11,61 -42,20 -15,-43 -53,7 -3,-43h-14l4,-63 -25,-24 -4,-40 -26,-8 -15,-68 28,-2 80,-89 22,-25 55,-1 -4,78 25,54 27,-6v73Z"/>
    <path data-fips-int="42039" data-name="Crawford County" d="M644,557l-3,168v6l-120,-7 -2,15 -36,20 -17,26 -43,35 -72,6 -219,-14 7,-269Z"/>
    <path data-fips-int="42041" data-name="Cumberland County" d="M2191,1781l-26,2 -10,48 -62,10 -62,59 -28,31 -125,25 -38,39 10,-21 -45,-57 -16,-52 -29,-26 -1,-35 5,10 104,-78 32,-18 -33,42 55,-26 6,19 125,-25 72,-8 33,-14 2,39Z"/>
    <path data-fips-int="42043" data-name="Dauphin County" d="M2276,1459l95,76 -80,61 65,207 -37,19 -36,11 -14,26 -5,-41 -73,-37 -31,-36 -2,-39 -13,-22h-42l-12,-24 9,-26 36,-30 -20,-37 -1,-46 21,-39 33,14 14,-14Z"/>
    <path data-fips-int="42047" data-name="Elk County" d="M1306,753l-1,147 94,1v60h9v70l-230,-19 -2,27 -34,11 -14,-45 -125,-76 -63,5 -13,10v-63l20,-22 58,13 3,-140h265v20Z"/>
    <path data-fips-int="42049" data-name="Erie County" d="M649,446l-5,111 -505,-14 5,-96 113,-43 116,-64 57,-26 76,-46 63,-27 -5,202Z"/>
    <path data-fips-int="42051" data-name="Fayette County" d="M797,1914l-63,105 -12,33 30,29 -15,27 -1,43 -301,-6 -10,-34 13,-19 -15,-42 12,-53 -19,-28 -26,2 3,-24 62,-27 26,-66 -18,-13 76,1 62,35 25,-6 56,-38 80,55 7,23Z"/>
    <path data-fips-int="42053" data-name="Forest County" d="M1008,732l-3,140 -58,-13 -20,22v63l-63,5v-74l-107,-6 -3,36h-42l2,-40 -25,-2 7,-23 1,-114h148Z"/>
    <path data-fips-int="42055" data-name="Franklin County" d="M1759,1804l1,35 29,26 16,52 45,57 -10,21 7,168 -369,-2 59,-82 47,-121 32,-51 43,-91 46,-60 20,-20 19,55Z"/>
    <path data-fips-int="42057" data-name="Fulton County" d="M1616,1907l-32,51 -47,121 -59,82 -160,-2 46,-76 42,-115 25,-53 -12,-28 42,-58 32,23 88,23Z"/>
    <path data-fips-int="42059" data-name="Greene County" d="M393,1947l-3,24 26,-2 19,28 -12,53 15,42 -13,19 10,34 -348,-12 7,-180 28,6 103,-45 8,14h64l20,13 41,-14 3,23Z"/>
    <path data-fips-int="42061" data-name="Huntingdon County" d="M1720,1407l-15,38 -38,40 -40,56 15,38 -55,76 55,27 38,-12 25,86 -46,60 -43,91 -35,-32 -88,-23 -32,-23 -58,-45 -12,-55 75,-140 -15,-3 3,-41 -26,-11 18,-46 -32,-29 2,-18 58,-42 97,37 68,-39 31,18Z"/>
    <path data-fips-int="42063" data-name="Indiana County" d="M1085,1271v134l-65,169 -36,77 -17,-15 -33,25 -35,8v-21l-62,-26 -23,10 -17,-33 -43,5 -30,-27 -10,-32 138,-181v-101Z"/>
    <path data-fips-int="42065" data-name="Jefferson County" d="M1142,1050l-32,-1 -22,52 -3,170 -233,-8 3,-103 4,-22 5,-189 63,-5 13,-10 63,-5 125,76Z"/>
    <path data-fips-int="42067" data-name="Juniata County" d="M2141,1474l-5,8 -41,18 -92,17 7,19 -68,29 -142,90 -16,23 -59,58 -20,20 -25,-86 79,-84v-18l66,-50v-21l118,-62 75,10 68,-1 17,26Z"/>
    <path data-fips-int="42069" data-name="Lackawanna County" d="M2960,711l20,287 -35,19 -24,7 -31,47 -27,-19 -3,-53 -14,-4 -6,-56 -32,-5 -50,-35 -1,-24 33,-59 -18,-13 45,-89Z"/>
    <path data-fips-int="42071" data-name="Lancaster County" d="M2753,1840l-40,22 7,54 -28,52 -2,75 -31,63 -34,46 -16,2 -60,1 -44,-63 -38,-45 -10,-35 -45,-23 -15,-40 -25,-40 -64,-10 -39,-40 14,-26 36,-11 37,-19 80,-33 71,-14 85,-45Z"/>
    <path data-fips-int="42073" data-name="Lawrence County" d="M358,1133l-40,51v108l-203,-3 5,-204 148,2 62,12Z"/>
    <path data-fips-int="42075" data-name="Lebanon County" d="M2356,1803l-65,-207 80,-61 55,43 166,133 -85,45 -71,14Z"/>
    <path data-fips-int="42077" data-name="Lehigh County" d="M3053,1535l-42,37 -40,53 -26,-20 -212,-168 75,-45 47,-32 36,-9 5,29 27,21 18,-12 24,59 31,-13 27,34 -9,36Z"/>
    <path data-fips-int="42079" data-name="Luzerne County" d="M2890,1071l-27,31 -8,-7h-17l-41,41 23,52 -150,74 -15,8 -103,-34 -13,-68v-73l-27,6 -25,-54 4,-78 14,-52 155,-9 97,-33 1,24 50,35 32,5 6,56 14,4 3,53Z"/>
    <path data-fips-int="42081" data-name="Lycoming County" d="M2206,761l37,137 91,77 80,20 -80,89 -28,2 -52,-12 -35,-2 -50,14 -6,13 -37,-7 -8,46 -53,3 -42,12h-12l-89,-113h-15l-69,-70 -1,-17 -37,-22 -31,-56 -2,-27v-49l176,-2 182,-5 46,-35Z"/>
    <path data-fips-int="42083" data-name="McKean County" d="M1429,456v285h-123v12l-33,-1v-20h-265l7,-154 18,-7v-117Z"/>
    <path data-fips-int="42085" data-name="Mercer County" d="M423,820l-7,238 -58,75 -28,-34 -62,-12 -148,-2 12,-273 219,14Z"/>
    <path data-fips-int="42087" data-name="Mifflin County" d="M1905,1349v79l38,7 -118,62v21l-66,50v18l-79,84 -38,12 -55,-27 55,-76 -15,-38 40,-56 38,-40 15,-38 137,-70 43,-18Z"/>
    <path data-fips-int="42089" data-name="Monroe County" d="M3234,1113l-25,48 -50,31 7,17 -52,27 -40,53 -55,27 -49,13 -60,-101 43,-27 -72,-91 -18,-8 27,-31 31,-47 24,-7 79,-8 130,-13 -13,77 46,6 27,45Z"/>
    <path data-fips-int="42091" data-name="Montgomery County" d="M3242,1828l-50,69 -64,-31 -24,30 34,31 -40,26 -52,-65 -18,3 -15,-25 -22,7 -6,-31 -24,-3 -30,-54 -78,-25 92,-155 26,20Z"/>
    <path data-fips-int="42093" data-name="Montour County" d="M2306,1086l15,68 26,8 4,40 25,24 -4,63 -21,-17 3,-26 -58,-20 -73,17 10,-51 21,-56v-62Z"/>
    <path data-fips-int="42095" data-name="Northampton County" d="M3131,1479l-78,56 -39,-30 9,-36 -27,-34 -31,13 -24,-59 -18,12 -27,-21 -5,-29 79,-22 49,-13 55,-27 40,-53 52,-27 41,72 -43,72 -23,-2 -15,60 13,16Z"/>
    <path data-fips-int="42097" data-name="Northumberland County" d="M2254,1074v62l-21,56 -10,51 73,-17 58,20 -3,26 21,17h14l3,43 53,-7 15,43 -181,91 -93,23 -14,14 -33,-14 5,-8 52,-51 -5,-55 31,-78 -23,-15 -23,-47 13,-79 -23,-50 6,-13 50,-14Z"/>
    <path data-fips-int="42099" data-name="Perry County" d="M2158,1706l-33,14 -72,8 -125,25 -6,-19 -55,26 33,-42 -32,18 -104,78 -5,-10 -15,-13 -19,-55 59,-58 16,-23 142,-90 68,-29 -7,-19 92,-17 41,-18 -21,39 1,46 20,37 -36,30 -9,26 12,24h42Z"/>
    <path data-fips-int="42103" data-name="Pike County" d="M3234,1113l-20,11 -27,-45 -46,-6 13,-77 -130,13 27,-65 -25,-27 50,-9 10,-32 33,-33 60,-109 52,73v15l40,4 11,27 55,9 33,-4 -1,20 30,27 -39,19 -34,37 -30,84 -24,34Z"/>
    <path data-fips-int="42105" data-name="Potter County" d="M1760,458l7,341v49l-218,2 -35,-1 -85,-108v-285l173,3Z"/>
    <path data-fips-int="42107" data-name="Schuylkill County" d="M2670,1262l68,75 70,55 -75,45 -56,29 -10,47 -37,9 -100,39 -46,1 -58,16 -55,-43 -95,-76 181,-91 42,-20 11,-61 42,-51 103,34Z"/>
    <path data-fips-int="42109" data-name="Snyder County" d="M2219,1290l-31,78 5,55 -52,51 -38,-4 -17,-26 -68,1 -75,-10 -38,-7v-79l170,-49 65,-13Z"/>
    <path data-fips-int="42111" data-name="Somerset County" d="M1162,1768l-49,128 -13,11 2,176 -30,72 -336,-4 1,-43 15,-27 -30,-29 12,-33 63,-105 20,-36 43,-16 12,-38 38,-45 25,-46 75,1 22,31Z"/>
    <path data-fips-int="42113" data-name="Sullivan County" d="M2539,794l-34,123 -14,52 -55,1 -22,25 -80,-20 -91,-77 -37,-137 25,3Z"/>
    <path data-fips-int="42115" data-name="Susquehanna County" d="M2943,444l17,267 -143,3 -220,3 -2,-6 -1,-46 -20,-215Z"/>
    <path data-fips-int="42117" data-name="Tioga County" d="M2141,456l30,301 -46,35 -182,5 -176,2 -7,-341Z"/>
    <path data-fips-int="42119" data-name="Union County" d="M2163,1099l23,50 -13,79 23,47 23,15 -79,-3 -65,13 -170,49 -5,-30 48,-47 75,-101v-18l42,-12 53,-3 8,-46Z"/>
    <path data-fips-int="42121" data-name="Venango County" d="M712,905v37l-71,10 -2,33 -25,16v28l-26,33 -172,-4 7,-238 43,-35 17,-26 36,-20 2,-15 120,7v-6l56,1 -1,114 -7,23 25,2Z"/>
    <path data-fips-int="42123" data-name="Warren County" d="M1033,454v117l-18,7 -7,154 -163,-6h-148l-56,-1 3,-168 5,-111 308,4Z"/>
    <path data-fips-int="42125" data-name="Washington County" d="M197,1572l100,112 144,61 -23,29 52,15 3,27 -22,-2 12,27 18,13 -26,66 -62,27 -32,3 -3,-23 -41,14 -20,-13h-64l-8,-14 -103,45 -28,-6 10,-385Z"/>
    <path data-fips-int="42127" data-name="Wayne County" d="M3179,734l-60,109 -33,33 -10,32 -50,9 25,27 -27,65 -79,8 35,-19 -20,-287 -17,-267 68,-3 25,37 22,10 10,53 50,-5 31,19 22,32 -8,24 24,11 7,98Z"/>
    <path data-fips-int="42129" data-name="Westmoreland County" d="M714,1545l10,32 30,27 43,-5 17,33 23,-10 62,26v21l35,-8 33,-25 17,15 -49,82 -25,46 -38,45 -12,38 -43,16 -20,36 -28,-3 -7,-23 -80,-55 -56,38 -25,6 -62,-35 -76,-1 -12,-27 22,2 -3,-27 49,-21 -3,-24 13,-87 39,-37 3,-78 -35,-15 -5,-23 48,-40v-25l15,-9 64,58 -5,32 36,27Z"/>
    <path data-fips-int="42131" data-name="Wyoming County" d="M2817,714l-45,89 18,13 -33,59 -97,33 -155,9 34,-123 10,-79 46,-4 2,6Z"/>
    <path data-fips-int="42133" data-name="York County" d="M2269,1859l39,40 64,10 25,40 15,40 45,23 10,35 38,45 44,63 -436,7 -2,-83 25,-20 -16,-34 10,-25 -30,-59 -69,-41 62,-59 62,-10 10,-48 26,-2 73,37Z"/>
    <path data-fips-int="42101" data-name="Philadelphia County" d="M3269,1894l-55,51 -37,18 4,43 -47,25 -28,-3 15,-48 -23,-27 40,-26 -34,-31 24,-30 64,31 50,-69 30,13Z"/>
    <path data-fips-int="42045" data-name="Delaware County" d="M3098,1953l23,27 -15,48 28,3 -58,11 -62,40 -46,-20 -43,-1 -7,1h-2v-29l40,-53 50,-30 10,-42 30,-20Z"/>
  </g>
  <path class="mesh" transform="scale(0.1)" d="M579,1438v1v25l-48,40 5,23 35,15 -3,78 -39,37 -13,87 3,24 -49,21 -52,-15 23,-29 -144,-61 -100,-112 106,-95 19,-3v-47l257,11 9,-247 1,-127 7,4 5,86 38,11 -6,21 20,17 81,4 5,-14 78,-3 38,-30 -3,103v101l-138,181 -25,2 -36,-27 5,-32 -64,-58 -15,9M197,1572l-93,-4M115,1289l203,3 4,135M1072,2155l30,-72 -2,-176 13,-11 49,-128 23,-63 65,31 33,33 7,-45 84,46 17,-41 12,55 58,45 -42,58 12,28 -25,53 -42,115 -46,76M2971,1625l-26,-20 -92,155 -100,80 -161,-129 -166,-133 58,-16 46,-1 100,-39 37,-9 10,-47 56,-29 212,168M1185,1705l31,-32 15,-101 37,-33 22,-37v-35l16,2 35,-61 -5,-6 127,-6 11,3 -58,42 -2,18 32,29 -18,46 26,11 -3,41 15,3 -75,140M2574,450l20,215 1,46 -46,4 -10,79 -308,-30 -25,-3 -35,-4 -30,-301M3269,1894l3,-53 -30,-13 -271,-203 40,-53 42,-37 78,-56M318,1292v-108l40,-51 58,-75 172,4 1,2M1162,1768l-130,-3 -22,-31 -75,-1 49,-82 36,-77 65,-169 256,3M1429,456v285l85,108 35,1v79l-60,113 -81,-11v-70h-9v-60l-94,-1 1,-147v-12h123M2855,1095l8,7 18,8 72,91 -43,27 60,101 -79,22 -36,9 -47,32 -70,-55 -68,-75 150,-74 -23,-52 41,-41h17M1336,1402l-10,-16 37,-39 13,-29 23,-9 12,-31 42,-30 41,-10 13,-73 -29,-43 43,-31 20,3 16,-43 20,-2 22,-31 3,54 57,-3 28,56 45,4 52,27 -5,15 40,61 93,-17 111,-44 -75,101 -48,47 -43,18 -137,70 -50,8 -31,-18 -68,39 -97,-37M2853,1760l78,25 30,54 24,3 6,31 22,-7 15,25 18,-3 -30,20 -10,42 -50,30 -40,53v29M2609,2154l16,-2 34,-46 31,-63 2,-75 28,-52 -7,-54 40,-22M588,1062l26,-33v-28l25,-16 2,-33 71,-10v-37h42l3,-36 107,6v74l-5,189 -4,22M1489,1042l32,49M1085,1405v-134l3,-170 22,-52 32,1 34,-11 2,-27 230,19M1549,850l218,-2 2,27 31,56 37,22 1,17 69,70h15l89,113h12v18M2670,1262l-15,8 -103,-34 -42,51 -11,61 -42,20 -15,-43 -53,7 -3,-43h-14l4,-63 -25,-24 -4,-40 -26,-8 -15,-68 28,-2 80,-89 22,-25 55,-1 -4,78 25,54 27,-6v73l13,68M139,543l505,14 -3,168v6l-120,-7 -2,15 -36,20 -17,26 -43,35 -72,6 -219,-14M569,241l-63,27 -76,46 -57,26 -116,64 -113,43M2158,1706l-13,-22h-42l-12,-24 9,-26 36,-30 -20,-37 -1,-46 21,-39 33,14 14,-14 93,-23 95,76 -80,61 65,207 -37,19 -36,11 -14,26 -5,-41 -73,-37M1142,1050l-14,-45 -125,-76 -63,5 -13,10v-63l20,-22 58,13 3,-140h265v20l33,1M649,446l-5,111M435,2145l-10,-34 13,-19 -15,-42 12,-53 -19,-28 -26,2 3,-24 62,-27 26,-66 -18,-13 76,1 62,35 25,-6 56,-38 80,55 7,23 28,3 -63,105 -12,33 30,29 -15,27 -1,43M927,944l-63,5M1478,2161l59,-82 47,-121 32,-51 43,-91 46,-60 20,-20 19,55 15,13M1461,1829l32,23 88,23 35,32M94,1953l28,6 103,-45 8,14h64l20,13 41,-14 3,23 32,-3M1720,1407l-15,38 -38,40 -40,56 15,38 -55,76 55,27 38,-12 25,86M984,1651l-17,-15 -33,25 -35,8v-21l-62,-26 -23,10 -17,-33 -43,5 -30,-27 -10,-32M852,1263l233,8M1680,1670l79,-84v-18l66,-50v-21l118,-62 75,10 68,-1 17,26 38,4 -5,8 -41,18 -92,17 7,19 -68,29 -142,90 -16,23 -59,58M2943,444l17,267 20,287 -35,19 -24,7 -31,47 -27,-19 -3,-53 -14,-4 -6,-56 -32,-5 -50,-35 -1,-24 33,-59 -18,-13 45,-89 143,-3M2549,2155l-44,-63 -38,-45 -10,-35 -45,-23 -15,-40 -25,-40 -64,-10 -39,-40M2356,1803l80,-33 71,-14 85,-45M120,1085l148,2 62,12 28,34M2371,1535l55,43M2733,1437l75,-45M2891,1351l5,29 27,21 18,-12 24,59 31,-13 27,34 -9,36 39,30M2890,1071l-27,31M2491,969l14,-52 155,-9 97,-33M2206,761l37,137 91,77 80,20M2306,1086l-52,-12 -35,-2 -50,14 -6,13 -37,-7 -8,46 -53,3 -42,12M1767,848v-49l176,-2 182,-5 46,-35M712,905l2,-40 -25,-2 7,-23 1,-114h148l163,6 7,-154 18,-7v-117M423,820l-7,238M1900,1319l5,30v79l38,7M3166,1209l-52,27 -40,53 -55,27 -49,13M2945,1017l79,-8 130,-13 -13,77 46,6 27,45 20,-11M1840,1995l38,-39 125,-25 28,-31 69,41 30,59 -10,25 16,34 -25,20 2,83M3242,1828l-50,69 -64,-31 -24,30 34,31 -40,26 -52,-65M2372,1289l-21,-17 3,-26 -58,-20 -73,17 10,-51 21,-56v-62M2457,1368l-181,91M2141,1474l52,-51 -5,-55 31,-78 -23,-15 -23,-47 13,-79 -23,-50M3024,1009l27,-65 -25,-27 50,-9 10,-32 33,-33 60,-109M1760,458l7,341M1905,1349l170,-49 65,-13 79,3M797,1914l20,-36 43,-16 12,-38 38,-45 25,-46M2539,794l-34,123M2817,714l-220,3 -2,-6M641,725l56,1M470,1789l3,27 -22,-2 12,27M3134,2031l-28,-3 15,-48 -23,-27M1847,2163l-7,-168 10,-21 -45,-57 -16,-52 -29,-26 -1,-35 5,10 104,-78 32,-18 -33,42 55,-26 6,19 125,-25 72,-8 33,-14 2,39 31,36 -26,2 -10,48 -62,10 -62,59"/>
  <g class="cities">
    <circle r="3" cx="316.5" cy="196.9"/>
    <text x="316.5" y="196.9">Philadelphia</text>
    <circle r="3" cx="40.4" cy="160.6"/>
    <text x="40.4" y="160.6">Pittsburgh</text>
    <circle r="3" cx="296.5" cy="148.4"/>
    <text x="296.5" y="148.4">Allentown</text>
  </g>
</svg>