<?xml version="1.0" encoding="utf-8"?>
<!DOCTYPE svg PUBLIC "-//W3C//DTD SVG 1.1//EN" "http://www.w3.org/Graphics/SVG/1.1/DTD/svg11.dtd">
<svg version="1.1" xmlns="http://www.w3.org/2000/svg" width="350" height="222" viewBox="0 0 350 222">
  <g class="counties" transform="scale(0.1)">
    <path data-fips-int="42000" data-name="null" d="M570,241l-11,3 -20,14 -16,7 -15,2 -18,12 -15,7 -32,20 -47,26 -4,-7 -12,14 -6,0 -23,13 7,-20 10,-13 6,4 12,-1 0,-5 12,-8 -12,-1 -15,5 -16,23 -7,16 -16,12 -16,9 -16,6 -15,10 -32,16 -22,7 -25,11 -17,5 -45,19 10,-259 1,-2 241,-43 178,-87Z"/>
    <path data-fips-int="42001" data-name="Adams County" d="M2112,2161l-91,1 -173,1 -4,-98 -4,-70 39,-38 66,-15 40,-9 19,-2 9,-13 18,-18 28,14 11,16 8,5 18,4 34,61 -1,15 -9,10 6,22 6,-1 5,13 -13,7 -12,13Z"/>
    <path data-fips-int="42003" data-name="Allegheny County" d="M579,1438l0,1 2,19 -18,25 -22,9 -8,10 -2,9 6,16 22,4 13,15 -3,73 -10,8 -6,14 -20,6 -3,10 -11,58 6,8 -13,6 5,14 -11,17 11,8 -48,21 -18,0 -13,-8 -15,-5 -10,-13 4,-6 14,-2 15,-9 -152,-63 -99,-112 98,-85 6,-1 3,-10 8,3 12,-5 -1,-46 107,5 25,0 46,3 13,0 43,3Z"/>
    <path data-fips-int="42005" data-name="Armstrong County" d="M721,1209 14,-2 4,-14 8,4 0,6 12,-4 4,20 4,-6 4,-18 10,2 14,-1 11,-9 10,3 15,-15 10,-4 14,-12 4,1 -3,66 -3,37 -1,101 -25,33 -71,96 -41,52 -17,0 0,-5 -8,7 -10,-14 -8,1 -18,-14 -5,-17 8,-12 -5,-6 -9,4 -5,-9 0,-14 -12,7 0,-11 -14,-13 -2,-9 -16,-10 -15,9 0,-1 3,-52 0,-41 2,-69 3,-85 3,-128 6,5 -3,14 3,6 0,38 12,14 -6,15 17,9 20,1 -5,23 10,1 5,7 -23,5 -2,7 18,6 9,-10 6,-2 25,10 8,-7 8,5 2,-12 11,2Z"/>
    <path data-fips-int="42007" data-name="Beaver County" d="M321,1427l1,46 -12,5 -8,-3 -3,10 -6,1 -98,85 -89,-3 2,-56 2,-86 0,-16 6,-121 105,2 98,2Z"/>
    <path data-fips-int="42009" data-name="Bedford County" d="M1391,1729l12,55 57,45 -13,32 -28,27 2,13 13,7 -5,9 -9,5 1,20 -10,15 -11,32 -17,37 -18,57 -27,47 -21,29 -90,-1 -156,-2 18,-42 7,-12 6,-22 -1,-11 0,-131 0,-32 6,-13 7,4 39,-108 10,-22 8,-12 -4,-16 4,-1 5,-20 8,-13 48,25 18,6 32,32 4,-24 5,-19 40,23 42,21Z"/>
    <path data-fips-int="42011" data-name="Berks County" d="M2945,1605l-40,66 -16,29 -36,60 -26,20 -73,61 -89,-73 -72,-58 -32,-34 -15,-3 -120,-95 14,0 18,-8 26,-8 47,-2 23,-9 25,-5 8,-8 28,-13 15,-3 8,-10 8,3 4,-7 15,7 4,-7 9,-42 57,-29 57,47Z"/>
    <path data-fips-int="42013" data-name="Blair County" d="M1474,1399l-12,11 -19,9 -23,17 -6,12 5,6 -5,5 12,7 5,13 11,5 2,7 -9,16 3,9 -11,17 12,20 6,2 10,-10 7,-18 3,2 -10,27 -4,30 10,-5 4,11 -14,32 -19,29 -14,30 -12,15 -15,31 -18,40 -42,-21 -40,-23 -5,19 -4,24 -32,-32 -18,-6 -48,-25 11,-19 22,-13 7,-45 -4,-6 12,-29 -3,-8 3,-13 13,-17 18,-9 26,-44 -3,-16 4,-17 18,0 29,-49 4,-11 -5,-6 130,-7Z"/>
    <path data-fips-int="42015" data-name="Bradford County" d="M2574,450l8,81 5,77 6,58 3,44 -47,4 -2,30 -8,50 -149,-14 -93,-9 -55,-4 -36,-6 -34,-4 -4,-44 -10,-107 -4,-26 -13,-124 160,-2 160,-2Z"/>
    <path data-fips-int="42017" data-name="Bucks County" d="M3270,1894l-6,-3 2,-10 11,-11 -4,-28 -9,-1 -20,-13 -52,-38 -67,-50 -66,-48 -71,-54 -17,-13 41,-53 41,-37 32,-28 46,-28 4,12 -2,11 9,10 6,0 17,-8 22,4 18,18 5,42 -5,20 6,28 3,4 18,9 16,-4 18,8 9,19 6,23 19,18 13,3 18,22 9,23 23,11 15,11 17,27 6,3 11,15 -2,8 -9,10 -8,0 -16,11 -18,-5 -7,4 -6,17 -8,5 -4,8 -27,11 -13,1Z"/>
    <path data-fips-int="42019" data-name="Butler County" d="M587,1062l3,1 -3,128 -3,85 -2,69 0,41 -3,52 -24,0 -43,-3 -13,0 -46,-3 -25,0 -107,-5 -2,-134 0,-109 40,-51 17,-22 40,-53 97,2Z"/>
    <path data-fips-int="42021" data-name="Cambria County" d="M1341,1409l-4,11 -29,49 -18,0 -4,17 3,16 -26,44 -18,9 -13,17 -3,13 3,8 -12,29 4,6 -7,45 -22,13 -11,19 -8,13 -5,20 -4,1 4,16 -8,12 -59,0 -55,-2 -21,-4 -1,-16 -14,-4 -3,-7 -74,-1 11,-17 0,-5 11,-17 5,-2 21,-42 35,-75 25,-62 38,-104 3,-3 101,1 81,0Z"/>
    <path data-fips-int="42023" data-name="Cameron County" d="M1429,741l43,56 42,52 34,1 0,80 -59,112 -81,-11 1,-14 1,-55 -11,0 0,-61 -93,-1 1,-82 1,-22 0,-43 0,-12Z"/>
    <path data-fips-int="42025" data-name="Carbon County" d="M2865,1101l2,7 14,2 8,12 2,6 16,15 21,28 26,29 -44,28 48,78 11,23 -58,13 -18,9 -34,8 -14,6 -5,6 -15,7 -15,14 -71,-57 -45,-47 -22,-26 84,-41 -2,-5 17,-8 10,-1 40,-19 -7,-18 -9,-1 -8,-16 2,-29 7,-7 13,0 8,-12 14,-10 12,-2Z"/>
    <path data-fips-int="42027" data-name="Centre County" d="M2024,1171l0,2 -34,37 -42,62 -48,48 -30,10 -53,29 -48,25 -32,12 -16,11 -17,12 -5,-10 -28,6 -32,-18 -39,20 -28,18 -98,-36 -8,-3 -130,7 -9,-14 5,-9 8,-3 7,-22 16,-9 8,-11 5,-17 11,2 12,-11 2,-13 12,-7 -3,-8 11,-15 6,1 12,-9 14,-10 -6,-15 17,4 2,8 8,3 4,-6 18,-5 -4,-10 -6,-2 8,-7 -2,-8 7,0 9,-13 -6,-2 -1,-9 -6,-4 12,-3 -2,-14 -15,-4 2,-8 -15,-32 7,-6 8,4 1,-7 8,3 1,-8 7,1 3,-11 8,-6 12,1 6,7 4,-16 6,1 11,-11 -2,-21 8,-8 10,5 3,-12 10,-4 11,-17 3,56 58,-3 2,30 6,-3 19,29 8,-3 8,4 4,-6 8,6 15,-2 8,8 16,5 34,25 -10,8 40,63 44,-10 21,-2 28,-6Z"/>
    <path data-fips-int="42029" data-name="Chester County" d="M3048,1888l-30,18 6,11 -28,26 11,6 -51,32 4,7 -10,4 -5,15 -15,10 1,6 -15,10 -2,14 6,7 -2,8 -29,7 -24,13 -21,20 -19,27 -8,21 -49,1 -100,2 -59,2 10,-3 -1,-9 10,9 6,-7 -6,-4 10,-7 2,-10 8,1 0,-9 9,-8 11,-26 -5,-6 12,-5 -1,-17 6,2 2,-15 10,-3 0,-13 -6,-10 0,-17 8,-5 -8,-13 7,-15 27,-49 -2,-31 -4,-23 40,-21 73,-61 26,-20 8,4 6,-6 22,6 10,8 11,-8 12,28 4,3 6,-10 10,22 8,7 0,14 8,-6 8,2 -6,10 12,11 12,-3 1,10 7,20 21,-7 17,26 15,-8Z"/>
    <path data-fips-int="42031" data-name="Clarion County" d="M863,949l-4,160 0,26 -4,24 -14,12 -10,4 -15,15 -10,-3 -11,9 -14,1 -10,-2 -4,18 -4,6 -4,-20 -12,4 0,-6 -8,-4 -4,14 -14,2 -10,-9 -11,-2 -2,12 -8,-5 -8,7 -25,-10 -6,2 -9,10 -18,-6 2,-7 23,-5 -5,-7 -10,-1 5,-23 -20,-1 -17,-9 6,-15 -12,-14 0,-38 -3,-6 3,-14 -6,-5 -3,-1 3,-7 14,-5 -2,-8 12,-14 0,-26 10,0 2,-17 14,0 1,-33 35,1 1,-11 34,1 2,-38 43,1 1,-38 24,1 2,3 82,3Z"/>
    <path data-fips-int="42033" data-name="Clearfield County" d="M1408,1031l81,11 17,31 14,18 -8,6 -3,11 -7,-1 -1,8 -8,-3 -1,7 -8,-4 -7,6 15,32 -2,8 15,4 2,14 -12,3 6,4 1,9 6,2 -9,13 -7,0 2,8 -8,7 6,2 4,10 -18,5 -4,6 -8,-3 -2,-8 -17,-4 6,15 -14,10 -12,9 -6,-1 -11,15 3,8 -12,7 -2,13 -12,11 -11,-2 -5,17 -8,11 -16,9 -7,22 -8,3 -5,9 9,14 5,6 -74,-2 -81,0 -101,-1 -2,-3 0,-68 2,-64 2,-84 0,-77 1,-8 21,-50 3,-3 30,1 35,-11 1,-27 64,6 42,3Z"/>
    <path data-fips-int="42035" data-name="Clinton County" d="M2024,1153l0,18 -113,44 -28,6 -21,2 -44,10 -40,-63 10,-8 -34,-25 -16,-5 -8,-8 -15,2 -8,-6 -4,6 -8,-4 -8,3 -19,-29 -6,3 -2,-30 -58,3 -3,-56 -11,17 -10,4 -3,12 -10,-5 -8,8 2,21 -11,11 -6,-1 -4,16 -6,-7 -12,-1 -14,-18 -17,-31 59,-112 0,-80 91,-2 129,-1 0,28 7,0 5,16 7,7 12,21 1,10 8,8 14,3 15,13 1,17 10,8 5,12 9,4 16,20 12,11 17,9 -1,6 17,1 15,15 1,9 13,12 60,76Z"/>
    <path data-fips-int="42037" data-name="Columbia County" d="M2553,1237l-24,25 -19,25 -12,61 -40,20 -8,-16 -8,-27 -53,7 -5,-17 6,-3 -6,-8 1,-15 -13,0 4,-35 -4,-8 9,-4 -1,-9 -30,-31 2,-27 -5,-13 -26,-7 0,-12 -14,-57 27,-2 22,-24 58,-65 22,-25 55,-1 -4,62 0,13 24,57 28,-6 0,73Z"/>
    <path data-fips-int="42039" data-name="Crawford County" d="M646,556l-3,79 -2,90 0,5 -87,-2 0,-3 -33,-1 -2,15 -10,2 -1,8 -13,5 2,5 -14,0 0,9 -8,0 -1,9 -9,0 1,9 -11,0 0,9 -9,0 0,8 -13,0 -1,10 -9,-1 -1,8 -70,1 0,4 -123,-7 -98,-6 1,-8 8,-261 163,5 81,2 46,1 150,3 30,0Z"/>
    <path data-fips-int="42041" data-name="Cumberland County" d="M2191,1781l-6,9 -11,2 -6,-9 -8,15 -6,-2 8,13 -6,12 8,7 -16,3 -10,-3 -17,3 3,6 -14,-1 -18,6 -61,58 -18,18 -9,13 -19,2 -40,9 -66,15 -39,38 10,-21 -12,-15 -14,-13 -11,-21 -7,-8 0,-8 -7,-23 -9,-8 -3,-16 -14,-9 -11,-14 -11,-27 7,-7 6,9 27,-25 11,0 37,-26 26,-24 17,-12 22,-9 -1,7 -23,18 -11,13 -1,6 12,-1 23,-13 12,-10 10,-4 -6,11 12,8 24,-9 36,-6 28,-2 19,-6 46,-6 12,1 28,-5 33,-14 5,1 -6,22 4,16 9,16 11,6Z"/>
    <path data-fips-int="42043" data-name="Dauphin County" d="M2276,1458l96,76 -9,6 -72,55 29,95 10,29 16,57 10,27 -10,5 -13,0 -20,21 -10,-2 -8,11 -12,-5 -6,17 -8,10 -9,-10 -3,-10 8,-16 -4,-9 -27,-9 -12,-10 -31,-15 -11,-14 -11,-6 -9,-16 -4,-16 6,-22 -5,-1 -11,-21 -42,-1 -8,-6 -4,-20 8,-6 -1,-18 7,-1 12,-15 12,-6 7,-11 -3,-16 -10,-6 -8,-13 2,-20 -7,-18 5,-8 11,-7 7,-11 2,-20 8,12 26,1 0,-6 12,0 1,-7 15,1 6,-6 11,0 4,-10 5,5 22,-6 5,-5 14,1Z"/>
    <path data-fips-int="42047" data-name="Elk County" d="M1308,753l0,43 -1,22 -1,82 93,1 0,61 11,0 -1,55 -1,14 -124,-10 -42,-3 -64,-6 -1,27 -35,11 0,-21 -16,-2 2,-23 -53,-32 -71,-43 -8,-11 -10,5 -14,13 -13,-6 -6,6 -15,-2 -11,9 2,-62 16,1 1,-23 49,2 0,11 9,0 1,-47 3,-92 79,2 0,-2 80,1 17,-2 89,-1 0,21Z"/>
    <path data-fips-int="42049" data-name="Erie County" d="M649,446l-3,110 -36,-2 -30,0 -150,-3 -46,-1 -81,-2 -163,-5 4,-96 45,-19 17,-5 25,-11 22,-7 32,-16 15,-10 16,-6 16,-9 16,-12 7,-16 16,-23 15,-5 12,1 -12,8 0,5 -12,1 -6,-4 -10,13 -7,20 23,-13 6,0 12,-14 4,7 47,-26 32,-20 15,-7 18,-12 15,-2 16,-7 20,-14 11,-3 -3,124 -2,78 29,0Z"/>
    <path data-fips-int="42051" data-name="Fayette County" d="M797,1914l-22,35 -41,68 -11,35 18,14 0,5 10,7 -1,16 4,10 -9,-4 -7,8 5,10 -11,6 3,9 -9,3 9,15 -73,-1 -183,-5 -45,0 8,-17 -16,-12 -1,-20 14,-5 -6,-15 -1,-17 -8,-5 6,-9 -2,-10 8,-6 -6,-26 4,-8 -12,-19 -10,-8 -18,4 -9,-9 1,-12 6,-4 4,-20 12,-2 8,13 9,-1 17,-17 11,0 10,-11 -8,-8 6,-8 -2,-8 -8,-2 4,-6 14,2 14,-4 2,-8 -5,-15 -16,-10 5,-1 71,1 12,5 8,10 11,-4 12,14 17,11 10,-9 8,2 6,9 10,-18 20,-3 7,-14 4,3 18,-15 9,2 18,10 4,10 14,9 7,2 6,10 15,8 8,8 7,20 13,-1Z"/>
    <path data-fips-int="42053" data-name="Forest County" d="M1008,733l-3,92 -1,47 -9,0 0,-11 -49,-2 -1,23 -16,-1 -2,62 -11,12 -12,-12 -11,9 -12,1 -4,-9 -5,11 -9,-6 2,-74 -82,-3 -2,-3 -24,-1 -1,38 -43,-1 1,-41 -25,0 0,-18 6,0 3,-120 126,0 75,2Z"/>
    <path data-fips-int="42055" data-name="Franklin County" d="M1758,1805l-7,7 11,27 11,14 14,9 3,16 9,8 7,23 0,8 7,8 11,21 14,13 12,15 -10,21 4,70 4,98 -122,-1 -118,-1 -129,-1 19,-20 1,-6 22,-33 13,-16 16,-32 13,-40 -1,-7 11,-15 3,-18 8,-15 0,-8 15,-22 5,-11 11,-10 4,-3 28,-60 22,-41 26,-37 13,-11 18,-19 9,15 -9,9 2,5 9,-6 4,16 -2,12 5,3 13,-11 6,4 0,17Z"/>
    <path data-fips-int="42057" data-name="Fulton County" d="M1615,1907l-11,10 -5,11 -15,22 0,8 -8,15 -3,18 -11,15 1,7 -13,40 -16,32 -13,16 -22,33 -1,6 -19,20 -108,-1 -54,0 21,-29 27,-47 18,-57 17,-37 11,-32 10,-15 -1,-20 9,-5 5,-9 -13,-7 -2,-13 28,-27 13,-32 28,21 33,11 59,16 6,3Z"/>
    <path data-fips-int="42059" data-name="Greene County" d="M392,1947l-6,4 -1,12 9,9 18,-4 10,8 12,19 -4,8 6,26 -8,6 2,10 -6,9 8,5 1,17 6,15 -14,5 1,20 16,12 -8,17 -57,-2 -129,-4 -77,-3 -84,-2 6,-163 0,-18 24,9 3,-7 14,-3 2,-7 11,3 16,-5 4,-7 25,-8 23,-3 -1,-9 13,-1 8,5 4,9 9,-5 22,5 17,0 2,-4 28,16 25,-1 14,-14 13,10 -7,5 6,12 4,-6 10,3Z"/>
    <path data-fips-int="42061" data-name="Huntingdon County" d="M1721,1407l2,10 -14,9 -4,10 3,9 10,-5 -1,7 -36,33 -13,6 -15,16 -24,40 14,38 -7,6 -22,32 -17,23 -9,7 0,7 14,0 0,5 11,0 1,13 8,6 5,-3 14,6 6,-5 28,0 5,-7 28,85 -13,11 -26,37 -22,41 -28,60 -4,3 -29,-27 -6,-3 -59,-16 -33,-11 -28,-21 -57,-45 -12,-55 15,-31 12,-15 14,-30 19,-29 14,-32 -4,-11 -10,5 4,-30 10,-27 -3,-2 -7,18 -10,10 -6,-2 -12,-20 11,-17 -3,-9 9,-16 -2,-7 -11,-5 -5,-13 -12,-7 5,-5 -5,-6 6,-12 23,-17 19,-9 12,-11 98,36 28,-18 39,-20 32,18 28,-6 5,10Z"/>
    <path data-fips-int="42063" data-name="Indiana County" d="M1085,1271l-2,64 0,68 2,3 -3,3 -38,104 -25,62 -35,75 -8,-9 -13,-7 -11,1 -4,15 -14,11 -14,-4 -8,13 -17,-6 4,-15 -17,-4 1,-6 -22,-5 -6,2 -19,-14 -7,1 -10,10 -6,-3 2,-10 -6,-6 -11,4 -1,-19 -12,5 -8,-13 -4,11 -8,1 0,-18 -4,2 -2,15 -14,-1 -6,-13 -7,4 -6,-15 -8,4 -6,-3 -4,-24 7,-9 41,-52 71,-96 25,-33 1,-101 128,4 67,3Z"/>
    <path data-fips-int="42065" data-name="Jefferson County" d="M1142,1050l-30,-1 -3,3 -21,50 -1,8 0,77 -2,84 -37,-1 -67,-3 -128,-4 3,-37 3,-66 -4,-1 4,-24 0,-26 4,-160 9,6 5,-11 4,9 12,-1 11,-9 12,12 11,-12 11,-9 15,2 6,-6 13,6 14,-13 10,-5 8,11 71,43 53,32 -2,23 16,2Z"/>
    <path data-fips-int="42067" data-name="Juniata County" d="M2141,1474l-5,8 -42,18 -11,0 -35,7 -45,10 10,17 -18,6 -13,7 -45,21 -14,10 -50,31 -18,9 -55,37 5,17 -20,7 -24,19 -19,18 -16,20 -18,19 -28,-85 16,-21 17,-16 32,-35 14,-12 0,-18 23,-18 23,-15 20,-17 -1,-21 6,-4 50,-30 27,-14 36,-15 78,12 23,-11 9,11 15,-2 9,3 9,-3 2,15 14,-1 2,13 5,5 5,-6 24,-5Z"/>
    <path data-fips-int="42069" data-name="Lackawanna County" d="M2960,711l7,101 2,17 9,144 2,24 -18,12 -12,0 -6,8 -6,9 -7,-4 -9,2 -6,13 -7,6 -4,15 -12,5 -2,8 -6,-7 -11,2 -10,-14 -3,-53 -14,-4 -1,-18 -6,0 -3,-22 5,0 -1,-16 -32,-6 -14,-12 -27,-15 -10,-9 -2,-22 33,-59 -17,-13 18,-34 -3,-4 24,-47 6,-5 93,-1Z"/>
    <path data-fips-int="42071" data-name="Lancaster County" d="M2754,1841l-40,21 4,23 2,31 -27,49 -7,15 8,13 -8,5 0,17 6,10 0,13 -10,3 -2,15 -6,-2 1,17 -12,5 5,6 -11,26 -9,8 0,9 -8,-1 -2,10 -10,7 6,4 -6,7 -10,-9 1,9 -10,3 -60,1 -2,-10 -24,-35 -17,-19 -15,-11 -7,-19 -16,-14 -1,-17 -6,-17 -46,-23 -9,-12 -10,-30 4,-5 -16,-19 -6,-15 -23,3 -30,-6 -19,-9 -11,-10 -13,-19 -13,-9 8,-10 6,-17 12,5 8,-11 10,2 20,-21 13,0 10,-5 74,-32 74,-14 89,-47 72,58Z"/>
    <path data-fips-int="42073" data-name="Lawrence County" d="M359,1133l-40,51 0,109 -98,-2 -105,-2 0,-39 4,-82 2,-84 119,3 28,0 0,8 62,4Z"/>
    <path data-fips-int="42075" data-name="Lebanon County" d="M2356,1803l-10,-27 -16,-57 -10,-29 -29,-95 72,-55 9,-6 54,44 120,95 15,3 32,34 -89,47 -74,14Z"/>
    <path data-fips-int="42077" data-name="Lehigh County" d="M3053,1535l-41,37 -41,53 -26,-20 -153,-121 -57,-47 21,-12 8,-1 17,-10 17,-17 12,-5 15,-14 15,-7 5,-6 14,-6 34,-8 4,27 10,13 9,0 10,9 7,-11 8,2 1,11 7,15 15,21 5,10 27,-14 2,5 26,31 -3,19 -7,14Z"/>
    <path data-fips-int="42079" data-name="Luzerne County" d="M2891,1071l-2,9 -12,10 2,5 -14,6 -12,-8 -12,2 -14,10 -8,12 -13,0 -7,7 -2,29 8,16 9,1 7,18 -40,19 -10,1 -17,8 2,5 -84,41 -18,8 -46,-16 -55,-17 -14,-69 0,-73 -28,6 -24,-57 0,-13 4,-62 14,-52 118,-5 35,-3 96,-31 2,-3 2,22 10,9 27,15 14,12 32,6 1,16 -5,0 3,22 6,0 1,18 14,4 3,53 10,14 11,-2Z"/>
    <path data-fips-int="42081" data-name="Lycoming County" d="M2206,761l22,79 15,59 44,36 45,39 26,6 -1,2 28,6 29,7 -58,65 -22,24 -27,2 -22,1 -30,-13 -34,-2 -34,9 -19,6 -5,13 -36,-8 -10,46 -52,3 -25,12 -16,0 -12,0 -60,-76 -13,-12 -1,-9 -15,-15 -17,-1 1,-6 -17,-9 -12,-11 -16,-20 -9,-4 -5,-12 -10,-8 -1,-17 -15,-13 -14,-3 -8,-8 -1,-10 -12,-21 -7,-7 -5,-16 -7,0 0,-28 -2,-47 49,-1 86,-1 82,-1 54,-2 87,-3 8,-11 12,-4 2,-6 22,-6 4,-8Z"/>
    <path data-fips-int="42083" data-name="McKean County" d="M1429,456l0,285 -121,0 0,12 -35,-1 0,-21 -89,1 -17,2 -80,-1 0,2 -79,-2 7,-155 15,0 3,-7 0,-26 2,-58 -2,0 0,-33 128,1 40,-1 53,1 63,-1Z"/>
    <path data-fips-int="42085" data-name="Mercer County" d="M422,820l-1,58 -4,98 -1,82 -40,53 -17,22 -28,-34 -62,-4 0,-8 -28,0 -119,-3 3,-106 5,-111 1,-55 98,6 123,7 0,-4Z"/>
    <path data-fips-int="42087" data-name="Mifflin County" d="M1904,1349l1,79 38,6 -36,15 -27,14 -50,30 -6,4 1,21 -20,17 -23,15 -23,18 0,18 -14,12 -32,35 -17,16 -16,21 -5,7 -28,0 -6,5 -14,-6 -5,3 -8,-6 -1,-13 -11,0 0,-5 -14,0 0,-7 9,-7 17,-23 22,-32 7,-6 -14,-38 24,-40 15,-16 13,-6 36,-33 1,-7 -10,5 -3,-9 4,-10 14,-9 -2,-10 16,-11 32,-12 48,-25 53,-29 30,-10 4,2Z"/>
    <path data-fips-int="42089" data-name="Monroe County" d="M3236,1114l13,-3 0,8 -23,14 -8,21 -24,16 -10,3 -23,17 -3,13 9,6 -16,14 -16,3 -2,6 -19,7 -15,17 5,6 -19,13 -9,13 -21,8 -10,8 -27,13 -17,3 -13,5 -19,4 -11,-23 -48,-78 44,-28 -26,-29 -21,-28 -16,-15 -2,-6 -8,-12 -14,-2 -2,-7 14,-6 -2,-5 12,-10 2,-9 2,-8 12,-5 4,-15 7,-6 6,-13 9,-2 7,4 6,-9 82,-7 71,-7 60,-7 -15,77 45,6 22,39 7,6Z"/>
    <path data-fips-int="42091" data-name="Montgomery County" d="M3244,1828l-26,27 -20,26 6,4 -11,13 -40,-27 -7,9 -21,-15 -22,30 13,13 21,17 -40,27 -20,-31 -5,3 -24,-36 -3,-5 -15,8 -17,-26 -21,7 -7,-20 -1,-10 -12,3 -12,-11 6,-10 -8,-2 -8,6 0,-14 -8,-7 -10,-22 -6,10 -4,-3 -12,-28 -11,8 -10,-8 -22,-6 -6,6 -8,-4 36,-60 16,-29 40,-66 26,20 17,13 71,54 66,48 67,50Z"/>
    <path data-fips-int="42093" data-name="Montour County" d="M2307,1086l14,57 0,12 26,7 5,13 -2,27 30,31 1,9 -9,4 4,8 -4,35 -13,0 -9,-25 5,-11 -1,-7 -20,1 -21,-18 -11,2 -5,-5 -42,11 -32,6 10,-40 -2,-7 8,-13 2,-16 13,-32 1,-61 30,13Z"/>
    <path data-fips-int="42095" data-name="Northampton County" d="M3131,1479l-46,28 -32,28 -39,-32 7,-14 3,-19 -26,-31 -2,-5 -27,14 -5,-10 -15,-21 -7,-15 -1,-11 -8,-2 -7,11 -10,-9 -9,0 -10,-13 -4,-27 18,-9 58,-13 19,-4 13,-5 17,-3 27,-13 10,-8 21,-8 9,-13 19,-13 -5,-6 15,-17 19,-7 2,-6 16,-3 16,-14 0,11 16,24 8,6 4,15 13,16 -8,17 -15,0 -2,8 7,6 -10,16 -3,12 -14,13 -22,-1 -3,11 -11,8 9,14 -11,30 4,10 11,2 -3,9 -10,12 7,22 -7,1Z"/>
    <path data-fips-int="42097" data-name="Northumberland County" d="M2255,1074l-1,61 -13,32 -2,16 -8,13 2,7 -10,40 32,-6 42,-11 5,5 11,-2 21,18 20,-1 1,7 -5,11 9,25 13,0 13,0 -1,15 6,8 -6,3 5,17 53,-7 8,27 8,16 -35,16 -63,33 -28,12 -56,29 -11,4 -14,-1 -5,5 -22,6 -5,-5 -4,10 -11,0 -6,6 -15,-1 -1,7 -12,0 0,6 -26,-1 -8,-12 5,-8 15,-7 7,-8 2,-10 14,-6 14,-20 2,-7 -6,-23 -2,-25 8,-26 18,-20 8,-24 -2,-7 -12,-6 -16,-16 -15,-29 -2,-18 7,-17 1,-19 4,-14 0,-22 -16,-18 -4,-8 -3,-24 5,-13 19,-6 34,-9Z"/>
    <path data-fips-int="42099" data-name="Perry County" d="M2157,1706l-33,14 -28,5 -12,-1 -46,6 -19,6 -28,2 -36,6 -24,9 -12,-8 6,-11 -10,4 -12,10 -23,13 -12,1 1,-6 11,-13 23,-18 1,-7 -22,9 -17,12 -26,24 -37,26 -11,0 -27,25 -6,-9 5,-5 0,-17 -6,-4 -13,11 -5,-3 2,-12 -4,-16 -9,6 -2,-5 9,-9 -9,-15 16,-20 19,-18 24,-19 20,-7 -5,-17 55,-37 18,-9 50,-31 14,-10 45,-21 13,-7 18,-6 -10,-17 45,-10 35,-7 11,0 42,-18 -2,20 -7,11 -11,7 -5,8 7,18 -2,20 8,13 10,6 3,16 -7,11 -12,6 -12,15 -7,1 1,18 -8,6 4,20 8,6 42,1Z"/>
    <path data-fips-int="42103" data-name="Pike County" d="M3236,1114l-20,10 -7,-6 -22,-39 -45,-6 15,-77 -60,7 -71,7 10,-11 9,-26 -2,-7 8,-12 0,-12 -6,-7 -13,2 4,-10 -8,-10 8,-10 8,8 7,-7 8,5 17,-4 0,-9 7,-2 4,-22 32,-18 1,-14 13,-23 48,-87 12,14 4,11 8,2 8,11 -4,12 13,10 -2,9 10,1 0,15 13,7 11,-5 18,5 3,11 11,6 -4,10 22,-5 12,10 16,-9 10,15 17,-2 9,-6 4,5 -1,19 13,5 5,10 10,8 -6,10 -14,7 -18,3 -7,14 -11,1 0,9 -20,19 -15,28 -6,16 6,7 -12,30 -10,10 -12,22 -12,6 -10,12 -7,2Z"/>
    <path data-fips-int="42105" data-name="Potter County" d="M1761,457l1,99 2,45 2,167 0,32 2,47 -129,1 -91,2 -34,-1 -42,-52 -43,-56 0,-285 191,3 76,0Z"/>
    <path data-fips-int="42107" data-name="Schuylkill County" d="M2672,1262l22,26 45,47 71,57 -12,5 -17,17 -17,10 -8,1 -21,12 -57,29 -9,42 -4,7 -15,-7 -4,7 -8,-3 -8,10 -15,3 -28,13 -8,8 -25,5 -23,9 -47,2 -26,8 -18,8 -14,0 -54,-44 -96,-76 56,-29 28,-12 63,-33 35,-16 40,-20 12,-61 19,-25 24,-25 55,17 46,16Z"/>
    <path data-fips-int="42109" data-name="Snyder County" d="M2219,1291l2,7 -8,24 -18,20 -8,26 2,25 6,23 -2,7 -14,20 -14,6 -2,10 -7,8 -15,7 -3,-9 -24,5 -5,6 -5,-5 -2,-13 -14,1 -2,-15 -9,3 -9,-3 -15,2 -9,-11 -23,11 -78,-12 -38,-6 -1,-79 25,-9 70,-17 75,-22 18,10 8,-10 21,-5 17,-8 15,2 15,-3 7,3 24,-4 15,8Z"/>
    <path data-fips-int="42111" data-name="Somerset County" d="M1163,1767l-10,22 -39,108 -7,-4 -6,13 0,32 0,131 1,11 -6,22 -7,12 -18,42 -244,-3 -92,-2 -9,-15 9,-3 -3,-9 11,-6 -5,-10 7,-8 9,4 -4,-10 1,-16 -10,-7 0,-5 -18,-14 11,-35 41,-68 22,-35 15,-20 0,-6 12,-13 12,-4 3,-11 14,-4 8,6 9,-13 4,-23 12,-2 -2,-13 10,-3 1,-11 7,-5 20,-39 14,-20 74,1 3,7 14,4 1,16 21,4 55,2Z"/>
    <path data-fips-int="42113" data-name="Sullivan County" d="M2539,794l-2,12 -32,111 -14,52 -55,1 -22,25 -29,-7 -28,-6 1,-2 -26,-6 -45,-39 -44,-36 -15,-59 -22,-79 36,6 55,4 93,9Z"/>
    <path data-fips-int="42115" data-name="Susquehanna County" d="M2943,444l3,45 2,44 2,16 10,162 -50,1 -93,1 -97,0 -123,4 -1,-7 -3,-44 -6,-58 -5,-77 -8,-81 220,-3Z"/>
    <path data-fips-int="42117" data-name="Tioga County" d="M2141,456l13,124 4,26 10,107 4,44 -4,8 -22,6 -2,6 -12,4 -8,11 -87,3 -54,2 -82,1 -86,1 -49,1 0,-32 -2,-167 -2,-45 -1,-99 293,0Z"/>
    <path data-fips-int="42119" data-name="Union County" d="M2163,1100l3,24 4,8 16,18 0,22 -4,14 -1,19 -7,17 2,18 15,29 16,16 12,6 -5,3 -15,-8 -24,4 -7,-3 -15,3 -15,-2 -17,8 -21,5 -8,10 -18,-10 -75,22 -70,17 -25,9 0,-27 -4,-2 48,-48 42,-62 34,-37 0,-2 0,-18 16,0 25,-12 52,-3 10,-46Z"/>
    <path data-fips-int="42121" data-name="Venango County" d="M713,905l-2,38 -34,-1 -1,11 -35,-1 -1,33 -14,0 -2,17 -10,0 0,26 -12,14 2,8 -14,5 -3,7 -74,-2 -97,-2 1,-82 4,-98 1,-58 1,-8 9,1 1,-10 13,0 0,-8 9,0 0,-9 11,0 -1,-9 9,0 1,-9 8,0 0,-9 14,0 -2,-5 13,-5 1,-8 10,-2 2,-15 33,1 0,3 87,2 0,-5 57,1 -3,120 -6,0 0,18 25,0Z"/>
    <path data-fips-int="42123" data-name="Warren County" d="M1033,454l0,33 2,0 -2,58 0,26 -3,7 -15,0 -7,155 -109,-5 -75,-2 -126,0 -57,-1 2,-90 3,-79 3,-110 227,3 78,2Z"/>
    <path data-fips-int="42125" data-name="Washington County" d="M195,1571l99,112 152,63 -15,9 -14,2 -4,6 10,13 15,5 13,8 18,0 10,5 1,13 -9,9 -14,-3 -8,8 15,21 16,10 5,15 -2,8 -14,4 -14,-2 -4,6 8,2 2,8 -6,8 8,8 -10,11 -11,0 -17,17 -9,1 -8,-13 -12,2 -4,20 -10,3 -10,-3 -4,6 -6,-12 7,-5 -13,-10 -14,14 -25,1 -28,-16 -2,4 -17,0 -22,-5 -9,5 -4,-9 -8,-5 -13,1 1,9 -23,3 -25,8 -4,7 -16,5 -11,-3 -2,7 -14,3 -3,7 -24,-9 1,-5 4,-114 0,-63 4,-60 0,-39 2,-22 2,-82Z"/>
    <path data-fips-int="42127" data-name="Wayne County" d="M3181,734l-48,87 -13,23 -1,14 -32,18 -4,22 -7,2 0,9 -17,4 -8,-5 -7,7 -8,-8 -8,10 8,10 -4,10 13,-2 6,7 0,12 -8,12 2,7 -9,26 -10,11 -82,7 6,-8 12,0 18,-12 -2,-24 -9,-144 -2,-17 -7,-101 -10,-162 -2,-16 -2,-44 -3,-45 66,-3 12,5 3,17 10,7 4,9 11,-3 10,13 4,18 -3,14 10,10 0,12 11,-4 8,7 12,-9 8,7 11,-7 3,14 13,-3 15,8 -1,13 13,9 11,-1 -2,10 -7,0 -6,11 4,13 9,-3 11,4 4,10 -1,14 5,14 -11,2 6,11 3,12 -4,7 6,9 4,31 -8,-1Z"/>
    <path data-fips-int="42129" data-name="Westmoreland County" d="M715,1545l-7,9 4,24 6,3 8,-4 6,15 7,-4 6,13 14,1 2,-15 4,-2 0,18 8,-1 4,-11 8,13 12,-5 1,19 11,-4 6,6 -2,10 6,3 10,-10 7,-1 19,14 6,-2 22,5 -1,6 17,4 -4,15 17,6 8,-13 14,4 14,-11 4,-15 11,-1 13,7 8,9 -21,42 -5,2 -11,17 0,5 -11,17 -14,20 -20,39 -7,5 -1,11 -10,3 2,13 -12,2 -4,23 -9,13 -8,-6 -14,4 -3,11 -12,4 -12,13 0,6 -15,20 -13,-3 -13,1 -7,-20 -8,-8 -15,-8 -6,-10 -7,-2 -14,-9 -4,-10 -18,-10 -9,-2 -18,15 -4,-3 -7,14 -20,3 -10,18 -6,-9 -8,-2 -10,9 -17,-11 -12,-14 -11,4 -8,-10 -12,-5 -71,-1 -5,1 -15,-21 8,-8 14,3 9,-9 -1,-13 -10,-5 48,-21 -11,-8 11,-17 -5,-14 13,-6 -6,-8 11,-58 3,-10 20,-6 6,-14 10,-8 3,-73 -13,-15 -22,-4 -6,-16 2,-9 8,-10 22,-9 18,-25 -2,-19 15,-9 16,10 2,9 14,13 0,11 12,-7 0,14 5,9 9,-4 5,6 -8,12 5,17 18,14 8,-1 10,14 8,-7 0,5Z"/>
    <path data-fips-int="42131" data-name="Wyoming County" d="M2817,713l-6,5 -24,47 3,4 -18,34 17,13 -33,59 -2,3 -96,31 -35,3 -118,5 32,-111 2,-12 8,-50 2,-30 47,-4 1,7 123,-4Z"/>
    <path data-fips-int="42133" data-name="York County" d="M2269,1860l13,9 13,19 11,10 19,9 30,6 23,-3 6,15 16,19 -4,5 10,30 9,12 46,23 6,17 1,17 16,14 7,19 15,11 17,19 24,35 2,10 -97,1 -68,1 -186,3 -86,0 0,-82 12,-13 13,-7 -5,-13 -6,1 -6,-22 9,-10 1,-15 -34,-61 -18,-4 -8,-5 -11,-16 -28,-14 61,-58 18,-6 14,1 -3,-6 17,-3 10,3 16,-3 -8,-7 6,-12 -8,-13 6,2 8,-15 6,9 11,-2 6,-9 31,15 12,10 27,9 4,9 -8,16 3,10Z"/>
    <path data-fips-int="42101" data-name="Philadelphia County" d="M3270,1894l-23,22 -14,5 -9,8 -12,18 -18,6 -12,8 -4,9 0,14 4,18 -9,15 -27,4 -12,11 1,-5 -27,0 -2,-7 11,-21 0,-12 6,-5 -10,-8 2,-12 -11,-1 -7,-9 40,-27 -21,-17 -13,-13 22,-30 21,15 7,-9 40,27 11,-13 -6,-4 20,-26 26,-27 20,13 9,1 4,28 -11,11 -2,10Z"/>
    <path data-fips-int="42045" data-name="Delaware County" d="M3097,1952l7,9 11,1 -2,12 10,8 -6,5 0,12 -11,21 2,7 27,0 -1,5 -9,6 -13,4 -34,0 -21,9 -16,14 -24,17 -29,-15 -30,-7 -32,0 -8,2 2,-8 -6,-7 2,-14 15,-10 -1,-6 15,-10 5,-15 10,-4 -4,-7 51,-32 -11,-6 28,-26 -6,-11 30,-18 24,36 5,-3Z"/>
  </g>
  <g class="cities">
    <circle r="1" cx="316.4" cy="197.0"/>
    <text x="316.4" y="197.0">Philadelphia</text>
    <circle r="1" cx="40.3" cy="160.5"/>
    <text x="40.3" y="160.5">Pittsburgh</text>
    <circle r="1" cx="296.5" cy="148.4"/>
    <text x="296.5" y="148.4">Allentown</text>
  </g>
</svg>