<?xml version="1.0" encoding="utf-8"?>
<!DOCTYPE svg PUBLIC "-//W3C//DTD SVG 1.1//EN" "http://www.w3.org/Graphics/SVG/1.1/DTD/svg11.dtd">
<svg version="1.1" xmlns="http://www.w3.org/2000/svg" width="1000" height="244" viewBox="0 0 1000 244">
  <path class="state" d="M441,195l-4,-3 -14,12 7,1 -18,8 -5,-2h-2l-17,2 -9,4 4,4 -21,-9 -15,-7 -14,-1 -16,10 -23,-7 -12,5 -1,-13 15,-8v-5l-12,-5 2,-20 6,-5 2,-23 9,-11 -7,-11 -5,-14 -3,-9 -11,-2 -7,-8 -8,-18 11,-3 28,-14 -3,-26 8,-7 14,-3h29l22,9 20,1 21,-1 19,-2 7,4 9,3 34,-7 19,3 18,2 30,3 3,-5 21,-2 10,3 12,3 16,-2 19,5h8l10,6 8,-5 9,8 2,4 9,-3 -14,-12 12,2 18,6 12,1 3,-4 26,5 5,-3 26,11 11,6 8,-3 8,10 10,-1 3,5 16,5 12,-3 6,-7 -5,17 2,16 -3,5 3,10 12,10 -7,7 -18,1 -8,4 -2,7 -9,-4 -7,5 -10,9 -10,24v6l-14,6v15h-5l-20,12 -24,4 -15,-4 -10,10 -7,-5 -26,10 -4,4 -18,-2 12,-5 -12,-5 -13,11 -32,-17 -16,13 -17,-7 -7,-8 -17,-2 -15,5 -11,5 -13,-1 -4,-6 -18,5 -8,-4ZM940,73l16,-1 10,10 -5,5 -8,-6v9l-20,-23ZM59,151l3,12 -10,9 -8,2 -19,-11 6,-11 7,-3ZM916,135l28,5 8,-1 5,6 -24,3 -7,-2 -6,7 -20,1 5,3 -30,3 -13,4 -8,-4 -3,-10h12l30,-10 5,-4Z"/>
  <g class="counties">
    <path data-fips-int="72001" data-name="Adjuntas Municipio" d="M470,139l-7,8 -8,-1 -5,8 -14,-8h-9l-11,-14 -3,-5 1,-16 5,-1 7,1 2,-8 11,9h11l17,8 5,11Z"/>
    <path data-fips-int="72003" data-name="Aguada Municipio" d="M310,52l1,26 -18,2 -16,-13 -4,-10 28,-14 1,7Z"/>
    <path data-fips-int="72005" data-name="Aguadilla Municipio" d="M336,26l-14,9 -12,17 -8,-2 -1,-7 -3,-26 8,-7 14,-3 15,10Z"/>
    <path data-fips-int="72007" data-name="Aguas Buenas Municipio" d="M663,118l-7,3 -11,-8 -8,-13 6,-7 11,-1 12,1 10,-7 5,-2 -4,20Z"/>
    <path data-fips-int="72009" data-name="Aibonito Municipio" d="M628,142l-2,18 -12,7 -22,-18 2,-10 26,-10Z"/>
    <path data-fips-int="72011" data-name="Añasco Municipio" d="M337,82l6,7 -1,6 -14,6 -18,4 -3,-9 -16,1 -3,-9 -11,-2 16,-6 18,-2 3,-2Z"/>
    <path data-fips-int="72013" data-name="Arecibo Municipio" d="M499,52l-1,19 -6,4h-15l-23,4 -6,-12 -12,9v-44l2,-14 9,3 34,-7 19,3 2,7Z"/>
    <path data-fips-int="72015" data-name="Arroyo Municipio" d="M697,202l-10,10 -7,-5 -1,-11 -8,-9 5,-4 13,1 -1,8Z"/>
    <path data-fips-int="72017" data-name="Barceloneta Municipio" d="M518,19l3,20 -6,7 -7,-3 -9,9 3,-28 -2,-7Z"/>
    <path data-fips-int="72019" data-name="Barranquitas Municipio" d="M620,127v2l-26,10 -2,-5 -18,-3 2,-9 6,2v-17l13,-3 16,1 -2,10 3,12Z"/>
    <path data-fips-int="72021" data-name="Bayamón Municipio" d="M658,39l5,16 -7,1 2,24 -4,12 -11,1 -6,7 -4,-6 -1,-15 3,-27v-10l10,-5Z"/>
    <path data-fips-int="72023" data-name="Cabo Rojo Municipio" d="M300,139l15,15 5,2 -2,18 -3,8 2,32 -23,-7 -12,5 -1,-13 15,-8v-5l-12,-5 2,-20 6,-5 2,-23Z"/>
    <path data-fips-int="72025" data-name="Caguas Municipio" d="M696,83l-2,6 7,4v17l5,8 -10,17 -4,16 -7,2 -14,-20 -8,-15 14,-14 4,-20 8,-4Z"/>
    <path data-fips-int="72027" data-name="Camuy Municipio" d="M412,16l3,6 2,22 4,14 -4,11 -24,-9 -1,1 -1,-44Z"/>
    <path data-fips-int="72029" data-name="Canóvanas Municipio" d="M750,56l-4,1 4,30 11,7 -6,7 -9,1 -14,-7 6,-18 -6,-14v-15l7,-5 10,2Z"/>
    <path data-fips-int="72031" data-name="Carolina Municipio" d="M732,48v15l6,14 -6,18 -9,-8 1,-7 -7,-4 -14,-21 3,-10 -13,-7 -2,-8 12,1 3,-4 3,6 18,5Z"/>
    <path data-fips-int="72033" data-name="Cataño Municipio" d="M664,33l-6,6 -13,-2 10,-12Z"/>
    <path data-fips-int="72035" data-name="Cayey Municipio" d="M685,153l1,1 -1,1h-15l-10,4 2,15 -6,7 -10,-5 -12,2v-8l-8,-10 2,-18h19l11,4 12,-8 1,-5Z"/>
    <path data-fips-int="72039" data-name="Ciales Municipio" d="M543,59l3,14 -3,17 3,11 -4,4 -13,-4 -5,10 2,19 -11,5 4,-5 -2,-13 -9,-11 1,-12 -2,-9 -15,-10 6,-4 20,-5Z"/>
    <path data-fips-int="72041" data-name="Cidra Municipio" d="M663,118l8,15 -1,5 -12,8 -11,-4h-19l-8,-13v-2l10,4 2,-8 9,-3 4,-7 11,8Z"/>
    <path data-fips-int="72043" data-name="Coamo Municipio" d="M574,131l18,3 2,5 -2,10 22,18 -19,11 -7,11 -8,-8 -24,-1 -2,-15 4,-24 -9,-11 10,5Z"/>
    <path data-fips-int="72045" data-name="Comerío Municipio" d="M637,100l8,13 -4,7 -9,3 -2,8 -10,-4h-8l-3,-12 2,-10 14,-3 8,-8Z"/>
    <path data-fips-int="72047" data-name="Corozal Municipio" d="M607,74l-3,22 -9,8 -13,3 -10,-13v-7l5,-14 3,-9 13,-4 11,5Z"/>
    <path data-fips-int="72051" data-name="Dorado Municipio" d="M616,50l-18,4 2,-14 -7,-10 1,-9 16,-2 19,5 -15,5 -2,9Z"/>
    <path data-fips-int="72054" data-name="Florida Municipio" d="M515,46l4,7 -1,13 -20,5 1,-19 9,-9Z"/>
    <path data-fips-int="72055" data-name="Guánica Municipio" d="M405,211l-17,2 -9,4 4,4 -21,-9 6,-14 3,-15 25,3 8,10Z"/>
    <path data-fips-int="72057" data-name="Guayama Municipio" d="M685,155l-12,17 3,11 -5,4 8,9 1,11 -26,10 -4,4 -18,-2 12,-5 -12,-5v-19l10,-5 4,-9 10,5 6,-7 -2,-15 10,-4Z"/>
    <path data-fips-int="72059" data-name="Guayanilla Municipio" d="M436,146l1,35 10,-3 2,12 -8,5 -4,-3 -14,12 7,1 -18,8 -5,-2 5,-4 7,-38 6,-7 -3,-9 5,-7Z"/>
    <path data-fips-int="72061" data-name="Guaynabo Municipio" d="M666,37l6,20 -3,12 7,17 -10,7 -12,-1 4,-12 -2,-24 7,-1 -5,-16 6,-6Z"/>
    <path data-fips-int="72063" data-name="Gurabo Municipio" d="M723,87l9,8 -6,3 -5,12h-7l-8,8 -5,-8v-17l-7,-4 2,-6 19,-2Z"/>
    <path data-fips-int="72065" data-name="Hatillo Municipio" d="M438,18l-2,14v44h-20l1,-7 4,-11 -4,-14 -2,-22 -3,-6 19,-2Z"/>
    <path data-fips-int="72067" data-name="Hormigueros Municipio" d="M326,140l2,15 -8,1 -5,-2 -15,-15 18,-3Z"/>
    <path data-fips-int="72071" data-name="Isabela Municipio" d="M371,16l-4,12 12,15 -5,4 11,4 -7,6 -31,-6 -11,-25 -1,-9 -15,-10h29Z"/>
    <path data-fips-int="72073" data-name="Jayuya Municipio" d="M507,85l2,9 -1,12 9,11 2,13 -4,5 -2,4h-2l-16,-6 -11,7 -7,-3v-9l9,-15 1,-9 5,3 5,-16Z"/>
    <path data-fips-int="72077" data-name="Juncos Municipio" d="M729,142v-17l-8,-15 5,-12 6,-3 14,7 9,-1 -5,12 -10,8Z"/>
    <path data-fips-int="72079" data-name="Lajas Municipio" d="M362,175l9,8 -3,15 -6,14 -15,-7 -14,-1 -16,10 -2,-32 3,-8 14,-4Z"/>
    <path data-fips-int="72081" data-name="Lares Municipio" d="M417,69l-1,7v29l3,5 -5,1 -1,16 3,5h-4l-10,-6h-10l-5,-15 1,-9v-18l5,-24Z"/>
    <path data-fips-int="72083" data-name="Las Marías Municipio" d="M388,102l-1,9 5,15 -28,-7 -14,7v-6l-22,-19 14,-6 1,-6 7,4h14l3,5Z"/>
    <path data-fips-int="72085" data-name="Las Piedras Municipio" d="M764,121l-3,9 -9,7 -6,14h-16l-1,-9 11,-21 10,-8 5,-12 6,-7h4l3,4 -6,18Z"/>
    <path data-fips-int="72087" data-name="Loíza Municipio" d="M763,40l-13,16 -1,-11 -10,-2 -7,5 -5,-10 -18,-5 -3,-6 26,5 5,-3Z"/>
    <path data-fips-int="72089" data-name="Luquillo Municipio" d="M819,62l-5,13 -17,13 -8,-3 -1,3 3,-12 -7,-17 6,-6 10,-1 3,5Z"/>
    <path data-fips-int="72091" data-name="Manatí Municipio" d="M549,59h-6l-25,7 1,-13 -4,-7 6,-7 -3,-20 30,3 3,-5v28Z"/>
    <path data-fips-int="72093" data-name="Maricao Municipio" d="M392,126h10l10,6 -6,12 -11,-5h-13l-18,3 -24,-12 10,-4 14,-7Z"/>
    <path data-fips-int="72095" data-name="Maunabo Municipio" d="M756,190l-20,12 -13,-5 -2,-11 -9,-1 -4,-12 16,7 26,5Z"/>
    <path data-fips-int="72099" data-name="Moca Municipio" d="M347,51l-8,14 4,10 -6,7 -23,-6 -3,2 -1,-26 12,-17 14,-9Z"/>
    <path data-fips-int="72101" data-name="Morovis Municipio" d="M572,69l5,4 -5,14 -10,11 -16,3 -3,-11 3,-17 -3,-14h24Z"/>
    <path data-fips-int="72103" data-name="Naguabo Municipio" d="M785,92l12,9 18,1 -4,5 12,5 -2,6 -8,4 -2,7 -9,-4 -7,5 -10,-2 2,-5 -11,-4 -12,2 -2,-5 6,-18 -3,-4 11,-8Z"/>
    <path data-fips-int="72105" data-name="Naranjito Municipio" d="M632,79l1,15 -8,8 -14,3 -16,-1 9,-8 3,-22 21,-1Z"/>
    <path data-fips-int="72107" data-name="Orocovis Municipio" d="M582,107v17l-6,-2 -2,9 -15,4 -10,-5h-9l-18,9h-9l2,-4 11,-5 -2,-19 5,-10 13,4 4,-4 16,-3 10,-11v7Z"/>
    <path data-fips-int="72109" data-name="Patillas Municipio" d="M701,167l7,6 4,12 9,1 2,11 13,5 -24,4 -15,-4 -9,-10 1,-8 -13,-1 -3,-11 12,-17 1,-1 12,3Z"/>
    <path data-fips-int="72111" data-name="Peñuelas Municipio" d="M463,147l5,10 -4,23 1,17 -4,6 -20,-8 8,-5 -2,-12 -10,3 -1,-35 14,8 5,-8Z"/>
    <path data-fips-int="72113" data-name="Ponce Municipio" d="M511,139l-2,14 4,7 2,23 4,12 -4,9 -11,5 -13,-1 -4,-6 -18,5 -8,-4 4,-6 -1,-17 4,-23 -5,-10 7,-8 7,-2 7,3 11,-7Z"/>
    <path data-fips-int="72115" data-name="Quebradillas Municipio" d="M391,17l1,44 -7,-10 -11,-4 5,-4 -12,-15 4,-12Z"/>
    <path data-fips-int="72117" data-name="Rincón Municipio" d="M293,80l-16,6 -7,-8 -8,-18 11,-3 4,10Z"/>
    <path data-fips-int="72119" data-name="Río Grande Municipio" d="M790,53l-6,6 7,17 -3,12 -3,4 -9,-6 -11,8h-4l-11,-7 -4,-30 4,-1 13,-16 11,6 8,-3Z"/>
    <path data-fips-int="72121" data-name="Sabana Grande Municipio" d="M396,186l-25,-3 -9,-8 -1,-20 3,-13 18,-3 1,17 8,22Z"/>
    <path data-fips-int="72125" data-name="San Germán Municipio" d="M340,130l24,12 -3,13 1,20 -30,-5 -14,4 2,-18 8,-1 -2,-15 5,-9Z"/>
    <path data-fips-int="72129" data-name="San Lorenzo Municipio" d="M721,110l8,15v17l1,9 -6,11 -12,-2 -11,7 -3,-10 -12,-3 -1,-1 7,-2 4,-16 10,-17 8,-8Z"/>
    <path data-fips-int="72131" data-name="San Sebastián Municipio" d="M385,51l7,10 1,-1 -5,24v18l-21,-4 -3,-5h-14l-7,-4 -6,-7 6,-7 -4,-10 8,-14 31,6Z"/>
    <path data-fips-int="72135" data-name="Toa Alta Municipio" d="M635,52l-3,27 -4,-6 -21,1 -3,-9 -11,-5 5,-6 18,-4 7,-2Z"/>
    <path data-fips-int="72137" data-name="Toa Baja Municipio" d="M645,37l-10,5v10l-12,-4 -7,2 -4,-12 2,-9 15,-5h8l10,6 8,-5Z"/>
    <path data-fips-int="72139" data-name="Trujillo Alto Municipio" d="M723,87l-8,-6 -19,2 -7,-3 2,-21 12,-4 14,21 7,4Z"/>
    <path data-fips-int="72141" data-name="Utuado Municipio" d="M507,85l-10,6 -5,16 -5,-3 -1,9 -9,15v9l-7,2 2,-8 -5,-11 -17,-8h-11l-11,-9 -2,8 -7,-1 -3,-5v-29h20l12,-9 6,12 23,-4h15Z"/>
    <path data-fips-int="72143" data-name="Vega Alta Municipio" d="M594,21l-1,9 7,10 -2,14 -5,6 -13,4 -3,9 -5,-4 11,-38 -1,-13Z"/>
    <path data-fips-int="72145" data-name="Vega Baja Municipio" d="M582,18l1,13 -11,38 -5,-10h-18l2,-14v-28l21,-2Z"/>
    <path data-fips-int="72149" data-name="Villalba Municipio" d="M549,130l9,11 -4,24 -18,-2 -12,1 -4,-6 2,-19 18,-9Z"/>
    <path data-fips-int="72151" data-name="Yabucoa Municipio" d="M775,169l-14,6v15h-5l-6,-5 -26,-5 -16,-7 -7,-6 11,-7 12,2 6,-11h24l9,13Z"/>
    <path data-fips-int="72153" data-name="Yauco Municipio" d="M427,146l-5,7 3,9 -6,7 -7,38 -5,4h-2l-1,-15 -8,-10 -5,-8 -8,-22 -1,-17h13l11,5 6,-12h4Z"/>
    <path data-fips-int="72037" data-name="Ceiba Municipio" d="M831,90l3,10 12,10 -7,7 -18,1 2,-6 -12,-5 4,-5 -18,-1 -12,-9 3,-4 1,-3 13,12 7,-7Z"/>
    <path data-fips-int="72049" data-name="Culebra Municipio" d="M940,73l16,-1 10,10 -5,5 -8,-6v9l-20,-23Z"/>
    <path data-fips-int="72053" data-name="Fajardo Municipio" d="M831,90h-22l-7,7 -13,-12 8,3 17,-13 5,-13 12,-3 6,-7 -5,17 2,16Z"/>
    <path data-fips-int="72069" data-name="Humacao Municipio" d="M795,130l-10,9 -10,24v6l-12,-5 -9,-13h-8l6,-14 9,-7 3,-9 12,-2 11,4 -2,5Z"/>
    <path data-fips-int="72075" data-name="Juana Díaz Municipio" d="M522,139l-2,19 4,6 12,-1 18,2 2,15 1,9 -10,12 -17,-2 -15,5 4,-9 -4,-12 -2,-23 -4,-7 2,-14h2Z"/>
    <path data-fips-int="72097" data-name="Mayagüez Municipio" d="M328,101l22,19v6l-10,4 -9,1 -5,9 -8,-4 -18,3 -6,-6 9,-11 -7,-11 -5,-14 16,-1 3,9ZM59,151l3,12 -10,9 -8,2 -19,-11 6,-11 7,-3Z"/>
    <path data-fips-int="72123" data-name="Salinas Municipio" d="M646,176l-4,9 -10,5v19l-13,11 -32,-17 1,-14 7,-11 19,-11 12,-7 8,10v8Z"/>
    <path data-fips-int="72133" data-name="Santa Isabel Municipio" d="M588,189l-1,14 -16,13 -17,-7 -7,-8 10,-12 -1,-9 24,1Z"/>
    <path data-fips-int="72147" data-name="Vieques Municipio" d="M916,135l28,5 8,-1 5,6 -24,3 -7,-2 -6,7 -20,1 5,3 -30,3 -13,4 -8,-4 -3,-10h12l30,-10 5,-4Z"/>
    <path data-fips-int="72127" data-name="San Juan County" d="M691,30l2,8 13,7 -3,10 -12,4 -2,21 -8,4 -5,2 -7,-17 3,-12 -6,-20 9,-3 -14,-12 12,2Z"/>
  </g>
  <path class="mesh" d="M301,43l1,7 8,2 1,26 -18,2 -16,-13 -4,-10M320,7l15,10 1,9 -14,9 -12,17M681,84l8,-4 7,3 -2,6 7,4v17l5,8 -10,17 -4,16 -7,2 -14,-20 -8,-15 -7,3 -11,-8 -8,-13 6,-7 11,-1 12,1 10,-7 5,-2 -4,20 -14,14M311,78l3,-2 23,6 6,7 -1,6 -14,6 -18,4 -3,-9 -16,1M277,86l16,-6M500,17l2,7 -3,28 -1,19 -6,4h-15l-23,4 -6,-12 -12,9v-44l2,-14M680,207l-1,-11 -8,-9 5,-4 13,1 -1,8 9,10M518,19l3,20 -6,7 -7,-3 -9,9M594,139l-2,-5 -18,-3 2,-9 6,2v-17l13,-3 16,1 -2,10 3,12h8v2M637,100l-4,-6 -1,-15 3,-27v-10l10,-5 13,2 5,16 -7,1 2,24 -4,12M294,133l6,6 15,15 5,2 -2,18 -3,8 2,32M412,16l3,6 2,22 4,14 -4,11 -24,-9 -1,1 -1,-44M763,40l-13,16 -4,1 4,30 11,7 -6,7 -9,1 -14,-7 6,-18 -6,-14v-15l7,-5 10,2 1,11M732,95l-9,-8 1,-7 -7,-4 -14,-21 3,-10 -13,-7 -2,-8M706,27l3,6 18,5 5,10M664,33l-6,6M645,37l10,-12M685,153l1,1 -1,1h-15l-10,4 2,15 -6,7 -10,-5 -12,2v-8l-8,-10M628,142l-2,18 -12,7 -22,-18 2,-10 26,-10 8,13h19l11,4 12,-8 1,-5M498,71l20,-5 25,-7 3,14 -3,17 3,11 -4,4 -13,-4 -5,10 2,19 -11,5 4,-5 -2,-13 -9,-11 1,-12 -2,-9 -15,-10M620,127l10,4 2,-8 9,-3 4,-7M614,167l-19,11 -7,11 -8,-8 -24,-1 -2,-15 4,-24 -9,-11 10,5 15,-4M611,105l14,-3 8,-8M582,107l-10,-13v-7l5,-14 3,-9 13,-4 11,5 3,9 -3,22 -9,8M629,24l-15,5 -2,9 4,12 -18,4 2,-14 -7,-10 1,-9M515,46l4,7 -1,13M362,212l6,-14 3,-15 25,3 8,10 1,15M685,155l-12,17 3,11M632,209v-19l10,-5 4,-9M436,146l1,35 10,-3 2,12 -8,5M407,211l5,-4 7,-38 6,-7 -3,-9 5,-7M666,37l6,20 -3,12 7,17M732,95l-6,3 -5,12h-7l-8,8M696,83l19,-2 8,6M436,76h-20l1,-7M300,139l18,-3 8,4 2,15 -8,1M371,16l-4,12 12,15 -5,4 11,4 -7,6 -31,-6 -11,-25M515,135l-2,4h-2l-16,-6 -11,7 -7,-3v-9l9,-15 1,-9 5,3 5,-16 10,-6M755,101l-5,12 -10,8 -11,21v-17l-8,-15M318,174l14,-4 30,5 9,8M416,76v29l3,5M416,132h-4l-10,-6h-10l-5,-15 1,-9v-18l5,-24M392,126l-28,-7 -14,7v-6l-22,-19M343,89l7,4h14l3,5 21,4M761,94h4l3,4 -6,18 2,5 -3,9 -9,7 -6,14h-16l-1,-9M819,62l-5,13 -17,13 -8,-3 -1,3 3,-12 -7,-17 6,-6M551,17v28l-2,14h-6M412,132l-6,12 -11,-5h-13l-18,3 -24,-12 10,-4M736,202l-13,-5 -2,-11 -9,-1 -4,-12 16,7 26,5 6,5M347,51l-8,14 4,10 -6,7M549,59h18l5,10 5,4M572,87l-10,11 -16,3M765,94l11,-8 9,6 12,9 18,1 -4,5 12,5 -2,6M795,130l-10,-2 2,-5 -11,-4 -12,2M607,74l21,-1 4,6M549,130h-9l-18,9h-9M686,154l12,3 3,10 7,6M463,147l5,10 -4,23 1,17 -4,6M511,139l-2,14 4,7 2,23 4,12 -4,9M470,139l-7,8 -8,-1 -5,8 -14,-8h-9l-11,-14 -3,-5 1,-16 5,-1 7,1 2,-8 11,9h11l17,8 5,11 -2,8 7,-2M392,61l-7,-10M788,88l-3,4M362,175l-1,-20 3,-13M382,139l1,17 8,22 5,8M326,140l5,-9 9,-1M730,151l-6,11 -12,-2 -11,7M593,60l5,-6M616,50l7,-2 12,4M689,80l2,-21 12,-4M572,69l11,-38 -1,-13M554,165l-18,-2 -12,1 -4,-6 2,-19M746,151h8l9,13 12,5M789,85l13,12 7,-7h22M556,180l1,9 -10,12M587,203l1,-14"/>
  <g class="cities">
    <circle r="7" cx="667" cy="24"/>
    <text x="667" y="24">San Juan</text>
    <circle r="7" cx="491" cy="191"/>
    <text x="491" y="191">Ponce</text>
    <circle r="7" cx="687" cy="109"/>
    <text x="687" y="109">Caguas</text>
  </g>
</svg>