<?xml version="1.0" encoding="utf-8"?>
<!DOCTYPE svg PUBLIC "-//W3C//DTD SVG 1.1//EN" "http://www.w3.org/Graphics/SVG/1.1/DTD/svg11.dtd">
<svg version="1.1" xmlns="http://www.w3.org/2000/svg" width="350" height="86" viewBox="0 0 350 86">
  <path class="state" transform="scale(0.1)" d="M3292,259l12,-10 43,7 28,16 -5,32 -56,-20 20,36 -30,-26 -40,-58 28,NaN -3074,NaN -31,43 -35,9 -60,-39 17,-36 30,-11 68,NaN 3105,NaN 20,-8 18,22 -81,14 -27,-13 -20,26 -68,4 15,11 -31,17 -39,-13 -80,19 -29,-14 -10,-33 41,-2 35,-24 35,2 48,-13 12,-14 56,NaN -743,NaN 8,-14 82,17 26,-11 32,20 53,7 7,11 40,22 25,-11 30,37 35,-5 11,19 52,16 31,-23 37,-5 -27,50 12,16 -8,61 1,23 54,46 -24,26 -23,-31 0,34 -42,1 -40,28 -36,-4 -18,19 -47,59 -22,75 -43,25 2,39 -25,11 -72,40 -81,17 -52,-15 -35,33 -26,-18 -92,37 -13,14 -48,-9 -27,18 5,-28 37,5 10,-12 -39,-18 -46,40 -30,-21 -27,4 -33,-41 -25,-2 -58,49 -53,-26 -27,-28 -58,-8 -48,18 -57,16 -35,-2 -22,-25 -49,21 -32,-14 -68,-28 -15,-9 -40,18 -8,21 21,6 -60,27 -18,-6 -8,0 -52,7 -8,-20 -27,4 23,17 -11,21 -45,0 -28,-27 -54,-24 -51,-3 -52,35 -80,-24 -46,15 5,-56 43,-17 3,-18 -46,-15 15,-38 15,-3 -20,-30 21,-16 5,-82 34,-43 -25,-33 -17,-51 -15,-33 -31,-6 -10,-2 -47,-82 40,-16 53,-22 45,-29 0,-38 -13,-27 6,-28 42,-30 33,-2 100,2 77,29 68,7 41,-10 37,5 61,-6 27,11 67,16 45,-23 61,-6 43,12 34,-6 30,12 10,-6 71,20 35,-22 73,-5 35,8 43,11 55,-6 68,18 29,-2 35,23 26,-17 32,28 6,14 32,-19 -51,-31 43,1 63,22Z"/>
  <g class="counties" transform="scale(0.1)">
    <path data-fips-int="72001" data-name="Adjuntas Municipio" d="M1649,491l-8,29 -24,-1 -25,1 -18,22 -22,-2 -25,-27 -33,2 -26,-22 -10,-26 -7,-73 17,-3 28,-17 16,-9 27,31 82,12 13,37 22,16Z"/>
    <path data-fips-int="72003" data-name="Aguada Municipio" d="M1087,186l3,92 -65,6 -53,-47 -3,-19 -12,-14 53,-22 45,-29 2,28Z"/>
    <path data-fips-int="72005" data-name="Aguadilla Municipio" d="M1180,95l-52,30 -33,35 -8,26 -30,-5 -2,-28 0,-38 -13,-27 6,-28 42,-30 33,-2 24,29 29,13Z"/>
    <path data-fips-int="72007" data-name="Aguas Buenas Municipio" d="M2321,416l-20,15 -20,-32 -22,-1 -26,-44 16,-23 40,-4 43,3 34,-26 18,-7 -13,60 -24,44Z"/>
    <path data-fips-int="72009" data-name="Aibonito Municipio" d="M2201,502l-10,62 -40,25 -76,-64 6,-34 45,-28 35,11 8,-19 24,18Z"/>
    <path data-fips-int="72011" data-name="Añasco Municipio" d="M1183,293l18,22 -3,22 -50,22 -50,15 -23,-36 -55,5 -15,-33 -31,-6 51,-20 65,-6 10,-8Z"/>
    <path data-fips-int="72013" data-name="Arecibo Municipio" d="M1749,187l6,34 -10,32 -20,12 -56,2 -78,14 -22,-43 -42,31 0,-142 7,-61 67,16 45,-23 61,-6 43,12 9,22Z"/>
    <path data-fips-int="72015" data-name="Arroyo Municipio" d="M2442,712l-35,33 -26,-18 -2,-34 -30,-36 17,-14 30,-9 13,39Z"/>
    <path data-fips-int="72017" data-name="Barceloneta Municipio" d="M1814,71l15,60 -25,35 -25,-10 -30,31 10,-100 -9,-22 34,-6Z"/>
    <path data-fips-int="72019" data-name="Barranquitas Municipio" d="M2171,449l-2,6 -8,19 -35,-11 -45,28 -8,-17 -63,-10 6,-32 17,8 5,-63 7,1 38,-12 57,6 -5,35 10,42Z"/>
    <path data-fips-int="72021" data-name="Bayamón Municipio" d="M2304,141l15,56 -20,-2 4,90 -14,42 -40,4 -16,23 -17,-23 -13,-29 10,-22 11,-93 -1,-33 35,-21 20,12Z"/>
    <path data-fips-int="72023" data-name="Cabo Rojo Municipio" d="M1052,489l43,50 27,12 -9,62 0,141 -80,-24 -46,15 5,-56 43,-17 3,-18 -46,-15 15,-38 15,-3 -20,-30 21,-16 5,-82Z"/>
    <path data-fips-int="72025" data-name="Caguas Municipio" d="M2437,294l-10,18 27,18 -7,64 25,24 -33,55 2,24 -19,35 -21,8 -52,-71 -28,-53 26,-15 24,-44 13,-60 17,0 13,-12Z"/>
    <path data-fips-int="72027" data-name="Camuy Municipio" d="M1446,61l12,69 20,60 -19,56 -81,-30 -7,1 -3,-151 41,-10Z"/>
    <path data-fips-int="72029" data-name="Canóvanas Municipio" d="M2625,200l-6,55 11,17 -5,36 39,23 -20,27 -27,2 -53,-22 13,-2 -8,-44 13,-17 -18,-49 -2,-54 23,-17 37,5Z"/>
    <path data-fips-int="72031" data-name="Carolina Municipio" d="M2562,172l2,54 18,49 -13,17 8,44 -13,2 -30,-30 5,-20 -75,-90 8,-35 -45,-25 -8,-30 45,4 8,-14 32,33 41,5Z"/>
    <path data-fips-int="72033" data-name="Cataño Municipio" d="M2326,121l-22,20 -26,4 -20,-12 36,-40Z"/>
    <path data-fips-int="72035" data-name="Cayey Municipio" d="M2401,540l1,4 -1,4 -50,0 -43,24 11,33 -23,33 -33,-16 -44,5 2,-23 -30,-40 10,-62 62,12 63,-8 23,-37Z"/>
    <path data-fips-int="72039" data-name="Ciales Municipio" d="M1900,210l12,50 -5,37 3,59 -13,15 -42,-13 -22,30 10,28 -3,58 -36,3 13,-48 -40,-54 7,-37 -9,-34 -50,-39 20,-12 52,-5 18,-12Z"/>
    <path data-fips-int="72041" data-name="Cidra Municipio" d="M2321,416l28,53 -23,37 -63,8 -62,-12 -8,-29 -24,-18 2,-6 33,15 9,-31 30,-7 16,-28 22,1 20,32Z"/>
    <path data-fips-int="72043" data-name="Coamo Municipio" d="M2010,464l63,10 8,17 -6,34 76,64 -66,40 -24,37 -30,-27 -20,5 -64,-11 -7,-52 12,-21 -12,-23 15,-36 -32,-41 39,17Z"/>
    <path data-fips-int="72045" data-name="Comerío Municipio" d="M2233,354l26,44 -16,28 -30,7 -9,31 -33,-15 -26,0 -10,-42 5,-35 46,-12 30,-29Z"/>
    <path data-fips-int="72047" data-name="Corozal Municipio" d="M2126,263l-21,93 -22,10 -38,12 -7,-1 -40,-43 7,-25 15,-50 33,-45 23,1 37,18Z"/>
    <path data-fips-int="72051" data-name="Dorado Municipio" d="M2156,180l-20,14 -41,0 1,-64 -18,-21 3,-32 55,-6 68,18 -54,13 -7,50Z"/>
    <path data-fips-int="72054" data-name="Florida Municipio" d="M1804,166l15,27 -4,43 -18,12 -52,5 10,-32 -6,-34 30,-31Z"/>
    <path data-fips-int="72055" data-name="Guánica Municipio" d="M1418,744l-52,7 -8,-20 -27,4 23,17 -11,21 -45,0 -28,-27 23,-48 2,-54 93,10 23,34Z"/>
    <path data-fips-int="72057" data-name="Guayama Municipio" d="M2401,548l-44,59 9,36 -17,14 30,36 2,34 -92,37 -13,14 -48,-9 -27,18 5,-28 37,5 10,-12 -39,-18 0,-65 32,-16 17,-31 33,16 23,-33 -11,-33 43,-24Z"/>
    <path data-fips-int="72059" data-name="Guayanilla Municipio" d="M1527,513l10,27 -10,34 12,46 28,12 4,32 -25,23 -15,-9 -40,18 -8,21 21,6 -60,27 -18,-6 20,-14 22,-82 -9,-22 29,-56 -10,-30 16,-25Z"/>
    <path data-fips-int="72061" data-name="Guaynabo Municipio" d="M2332,135l14,37 -12,23 20,10 -12,42 15,9 9,48 -34,26 -43,-3 14,-42 -4,-90 20,2 -15,-56 22,-20Z"/>
    <path data-fips-int="72063" data-name="Gurabo Municipio" d="M2534,308l30,30 -37,34 3,13 -6,6 -24,0 -28,27 -25,-24 7,-64 -27,-18 10,-18 67,-7Z"/>
    <path data-fips-int="72065" data-name="Hatillo Municipio" d="M1534,66l-7,61 0,142 -68,3 0,-26 19,-56 -20,-60 -12,-69 61,-6Z"/>
    <path data-fips-int="72067" data-name="Hormigueros Municipio" d="M1140,495l-5,30 13,23 -26,3 -27,-12 -43,-50 76,-7Z"/>
    <path data-fips-int="72071" data-name="Isabela Municipio" d="M1300,59l-12,50 38,40 -15,21 35,11 -21,22 -89,-24 -21,2 -35,-86 -4,-25 -29,-13 -24,-29 100,2Z"/>
    <path data-fips-int="72073" data-name="Jayuya Municipio" d="M1775,304l9,34 -7,37 40,54 -13,48 -5,13 -7,1 -57,-22 -40,25 -21,-12 23,-71 7,-41 21,11 12,-59Z"/>
    <path data-fips-int="72077" data-name="Juncos Municipio" d="M2552,502l-7,-69 -21,-42 6,-6 -3,-13 37,-34 53,22 27,-2 -20,43 -32,26Z"/>
    <path data-fips-int="72079" data-name="Lajas Municipio" d="M1266,618l29,26 -2,54 -23,48 -54,-24 -51,-3 -52,35 0,-141 50,-13Z"/>
    <path data-fips-int="72081" data-name="Lares Municipio" d="M1459,246l0,26 -1,102 10,17 -17,3 7,73 -12,0 -35,-20 -40,-2 -18,-58 5,-25 -2,-64 22,-82Z"/>
    <path data-fips-int="72083" data-name="Las Marías Municipio" d="M1358,362l-5,25 18,58 -96,-25 -50,25 0,-22 -42,-33 -3,-20 -32,-11 50,-22 3,-22 24,16 80,7 16,13 13,6Z"/>
    <path data-fips-int="72085" data-name="Las Piedras Municipio" d="M2675,427l-11,33 -22,-2 -12,46 -16,29 -37,-10 -22,8 -3,-29 40,-75 32,-26 20,-43 20,-27 14,3 10,15 -16,42Z"/>
    <path data-fips-int="72087" data-name="Loíza Municipio" d="M2672,142l-47,58 -3,-40 -37,-5 -23,17 -17,-36 -41,-5 -32,-33 82,17 26,-11 32,20 53,7Z"/>
    <path data-fips-int="72089" data-name="Luquillo Municipio" d="M2865,220l-19,41 -56,54 -25,-11 -7,8 10,-43 -18,-40 17,-39 35,-5 11,19Z"/>
    <path data-fips-int="72091" data-name="Manatí Municipio" d="M1925,211l-25,-1 -85,26 4,-43 -15,-27 25,-35 -15,-60 10,-6 71,20 35,-22Z"/>
    <path data-fips-int="72093" data-name="Maricao Municipio" d="M1371,445l40,2 35,20 -23,41 -39,-18 -48,2 -61,9 -84,-42 34,-14 50,-25Z"/>
    <path data-fips-int="72095" data-name="Maunabo Municipio" d="M2647,670l-72,40 -40,-15 -13,-40 -22,-1 -21,-45 66,29 82,13Z"/>
    <path data-fips-int="72099" data-name="Moca Municipio" d="M1215,181l-25,51 13,34 -20,27 -83,-23 -10,8 -3,-92 8,-26 33,-35 52,-30Z"/>
    <path data-fips-int="72101" data-name="Morovis Municipio" d="M2005,245l15,14 -15,50 -38,40 -57,7 -3,-59 5,-37 -12,-50 25,1 27,-10 31,9Z"/>
    <path data-fips-int="72103" data-name="Naguabo Municipio" d="M2748,325l44,35 35,-9 19,37 34,7 -4,23 -40,28 -36,-4 -18,19 -32,-10 5,-18 -38,-14 -42,8 -3,-36 16,-42 -10,-15 15,-22 34,-5Z"/>
    <path data-fips-int="72105" data-name="Naranjito Municipio" d="M2213,280l-10,22 13,29 -30,29 -46,12 -57,-6 22,-10 21,-93 75,-4Z"/>
    <path data-fips-int="72107" data-name="Orocovis Municipio" d="M2038,377l-5,63 -17,-8 -6,32 -48,13 -39,-17 -71,15 -23,16 -30,-1 5,-13 36,-3 3,-58 -10,-28 22,-30 42,13 13,-15 57,-7 38,-40 -7,25Z"/>
    <path data-fips-int="72109" data-name="Patillas Municipio" d="M2452,588l27,21 21,45 22,1 13,40 40,15 -81,17 -52,-15 -33,-39 -13,-39 -30,9 -9,-36 44,-59 1,-4 40,11Z"/>
    <path data-fips-int="72111" data-name="Peñuelas Municipio" d="M1617,519l24,51 -15,48 3,79 -15,18 -68,-28 25,-23 -4,-32 -28,-12 -12,-46 10,-34 -10,-27 25,27 22,2 18,-22Z"/>
    <path data-fips-int="72113" data-name="Ponce Municipio" d="M1792,491l-12,47 17,24 7,83 15,40 -10,34 -57,16 -35,-2 -22,-25 -49,21 -32,-14 15,-18 -3,-79 15,-48 -24,-51 24,1 8,-29 25,-9 21,12 40,-25Z"/>
    <path data-fips-int="72115" data-name="Quebradillas Municipio" d="M1368,66l3,151 -25,-36 -35,-11 15,-21 -38,-40 12,-50Z"/>
    <path data-fips-int="72117" data-name="Rincón Municipio" d="M969,218l3,19 53,47 -51,20 -10,-2 -47,-82 40,-16Z"/>
    <path data-fips-int="72119" data-name="Río Grande Municipio" d="M2767,190l-17,39 18,40 -10,43 -10,13 -21,-18 -34,5 -15,22 -14,-3 -39,-23 5,-36 -11,-17 6,-55 47,-58 40,22 25,-11Z"/>
    <path data-fips-int="72121" data-name="Sabana Grande Municipio" d="M1388,654l-93,-10 -29,-26 -1,-65 18,-31 -8,-21 61,-9 12,23 -2,54 23,63Z"/>
    <path data-fips-int="72125" data-name="San Germán Municipio" d="M1191,459l84,42 8,21 -18,31 1,65 -103,-18 -50,13 9,-62 26,-3 -13,-23 5,-30 18,-31Z"/>
    <path data-fips-int="72129" data-name="San Lorenzo Municipio" d="M2524,391l21,42 7,69 3,29 -21,39 -43,-6 -39,24 -10,-33 -40,-11 -1,-4 21,-8 19,-35 -2,-24 33,-55 28,-27Z"/>
    <path data-fips-int="72131" data-name="San Sebastián Municipio" d="M1346,181l25,36 7,-1 -22,82 2,64 -24,-5 -13,-6 -16,-13 -80,-7 -24,-16 -18,-22 20,-27 -13,-34 25,-51 21,-2 89,24Z"/>
    <path data-fips-int="72135" data-name="Toa Alta Municipio" d="M2224,187l-11,93 -12,-21 -75,4 -13,-30 -37,-18 19,-21 41,0 20,-14 7,-1 16,-8Z"/>
    <path data-fips-int="72137" data-name="Toa Baja Municipio" d="M2258,133l-35,21 1,33 -45,-16 -16,8 -7,1 -13,-28 7,-50 54,-13 29,-2 35,23 26,-17Z"/>
    <path data-fips-int="72139" data-name="Trujillo Alto Municipio" d="M2534,308l-30,-21 -67,7 -23,-9 10,-29 -3,-45 43,-13 75,90Z"/>
    <path data-fips-int="72141" data-name="Utuado Municipio" d="M1775,304l-38,18 -12,59 -21,-11 -7,41 -23,71 -25,9 7,-30 -22,-16 -13,-37 -82,-12 -27,-31 -16,9 -28,17 -10,-17 1,-102 68,-3 42,-31 22,43 78,-14 56,-2Z"/>
    <path data-fips-int="72143" data-name="Vega Alta Municipio" d="M2081,77l-3,32 18,21 -1,64 -19,21 -23,-1 -33,45 -15,-14 35,-133 -2,-46Z"/>
    <path data-fips-int="72145" data-name="Vega Baja Municipio" d="M2038,66l2,46 -35,133 -22,-35 -31,-9 -27,10 5,-148 73,-5Z"/>
    <path data-fips-int="72149" data-name="Villalba Municipio" d="M1923,460l32,41 -15,36 12,23 -12,21 -28,1 -60,-18 -5,19 -27,-26 9,-66 23,-16Z"/>
    <path data-fips-int="72151" data-name="Yabucoa Municipio" d="M2713,595l-43,25 2,39 -25,11 -20,-19 -82,-13 -66,-29 -27,-21 39,-24 43,6 21,-39 22,-8 37,10 26,1 33,43Z"/>
    <path data-fips-int="72153" data-name="Yauco Municipio" d="M1468,493l26,22 -16,25 10,30 -29,56 9,22 -22,82 -20,14 -8,0 -7,-56 -23,-34 -19,-22 -23,-63 2,-54 -12,-23 48,-2 39,18 23,-41 12,0Z"/>
    <path data-fips-int="72037" data-name="Ceiba Municipio" d="M2910,319l1,23 54,46 -24,26 -23,-31 0,34 -42,1 4,-23 -34,-7 -19,-37 -35,9 -44,-35 10,-13 7,-8 18,29 27,10 26,-26 14,14 21,-16Z"/>
    <path data-fips-int="72049" data-name="Culebra Municipio" d="M3292,259l12,-10 43,7 28,16 -5,32 -56,-20 20,36 -30,-26 -40,-58Z"/>
    <path data-fips-int="72053" data-name="Fajardo Municipio" d="M2910,319l-39,-4 -21,16 -14,-14 -26,26 -27,-10 -18,-29 25,11 56,-54 19,-41 31,-23 37,-5 -27,50 12,16Z"/>
    <path data-fips-int="72069" data-name="Humacao Municipio" d="M2782,461l-47,59 -22,75 -40,-18 -33,-43 -26,-1 16,-29 12,-46 22,2 11,-33 42,-8 38,14 -5,18Z"/>
    <path data-fips-int="72075" data-name="Juana Díaz Municipio" d="M1829,491l-9,66 27,26 5,-19 60,18 28,-1 7,52 5,31 -37,45 -58,-8 -48,18 10,-34 -15,-40 -7,-83 -17,-24 12,-47 7,-1Z"/>
    <path data-fips-int="72097" data-name="Mayagüez Municipio" d="M207,535l11,26 -31,43 -35,9 -60,-39 17,-36 30,-11ZM1148,359l32,11 3,20 42,33 0,22 -34,14 -33,5 -18,31 -12,-13 -76,7 -24,-19 34,-43 -25,-33 -17,-51 55,-5 23,36Z"/>
    <path data-fips-int="72123" data-name="Salinas Municipio" d="M2263,622l-17,31 -32,16 0,65 -46,40 -30,-21 -27,4 -33,-41 -25,-2 8,-48 24,-37 66,-40 40,-25 30,40 -2,23Z"/>
    <path data-fips-int="72133" data-name="Santa Isabel Municipio" d="M2061,666l-8,48 -58,49 -53,-26 -27,-28 37,-45 -5,-31 64,11 20,-5Z"/>
    <path data-fips-int="72147" data-name="Vieques Municipio" d="M3207,476l105,23 20,-8 18,22 -81,14 -27,-13 -20,26 -68,4 15,11 -31,17 -39,-13 -80,19 -29,-14 -10,-33 41,-2 35,-24 35,2 48,-13 12,-14Z"/>
    <path data-fips-int="72127" data-name="San Juan County" d="M2419,108l8,30 45,25 -8,35 -43,13 3,45 -10,29 -13,12 -17,0 -18,7 -9,-48 -15,-9 12,-42 -20,-10 12,-23 -14,-37 32,-19 -51,-31 43,1Z"/>
  </g>
  <g class="cities">
    <circle r="3" cx="233.6" cy="8.8"/>
    <text x="233.6" y="8.8">San Juan</text>
    <circle r="3" cx="171.8" cy="67.3"/>
    <text x="171.8" y="67.3">Ponce</text>
    <circle r="3" cx="240.6" cy="38.6"/>
    <text x="240.6" y="38.6">Caguas</text>
  </g>
</svg>