<?xml version="1.0" encoding="utf-8"?>
<!DOCTYPE svg PUBLIC "-//W3C//DTD SVG 1.1//EN" "http://www.w3.org/Graphics/SVG/1.1/DTD/svg11.dtd">
<svg version="1.1" xmlns="http://www.w3.org/2000/svg" width="350" height="86" viewBox="0 0 350 86">
  <g class="counties" transform="scale(0.1)">
    <path data-fips-int="72001" data-name="Adjuntas Municipio" d="M1648,490l-8,30 -21,-1 -19,3 -4,-5 -14,14 -3,10 -5,2 -11,-7 -11,5 -12,-20 -12,-8 -8,2 -10,-7 -6,6 -10,1 -8,-9 0,-10 -18,-3 -9,-13 -2,-13 -6,-15 -4,-45 8,-7 -5,-6 12,-6 8,3 17,4 5,-4 0,-17 5,-8 15,-1 8,10 14,7 4,15 26,6 12,-6 6,6 11,0 10,5 17,0 2,7 13,10 -4,9 4,13 10,6 10,12 -8,13 -6,3 -1,12Z"/>
    <path data-fips-int="72003" data-name="Aguada Municipio" d="M1087,186l6,23 -2,24 -7,8 4,15 -4,6 5,16 -8,1 -11,-7 -19,8 -14,-3 -12,7 -8,-13 -9,-4 2,-6 -18,-7 -12,-8 -8,-26 -11,-8 -4,-8 16,-4 37,-18 12,-12 32,-17 3,27 10,0 16,11Z"/>
    <path data-fips-int="72005" data-name="Aguadilla Municipio" d="M1179,95l-21,5 -3,14 -8,1 -12,11 -8,-1 -32,36 2,6 -10,19 -4,5 -16,-11 -10,0 -3,-27 5,-11 -2,-19 -7,-22 -7,-13 -1,-12 5,-13 13,-8 13,-17 8,-5 22,-5 20,0 16,12 8,10 0,8 11,1 19,11Z"/>
    <path data-fips-int="72007" data-name="Aguas Buenas Municipio" d="M2321,416l-12,7 -11,9 -6,-12 4,-4 -9,-6 2,-17 -9,8 -13,2 -8,-5 -9,-7 -3,-22 -15,-15 17,-22 11,-2 13,-8 16,5 29,-2 15,4 17,-10 0,-8 16,-7 10,0 8,-7 -14,60 4,4 -13,14 0,9 -6,10 -15,14Z"/>
    <path data-fips-int="72009" data-name="Aibonito Municipio" d="M2201,502l-5,15 1,14 -8,5 2,28 -18,2 -3,21 -18,2 -7,-12 -12,-2 -5,-12 -6,1 -48,-40 10,-13 -5,-8 3,-12 10,-11 6,2 4,-8 26,-11 24,4 9,7 8,-19 18,12 6,11 -7,2 1,11 14,5Z"/>
    <path data-fips-int="72011" data-name="Añasco Municipio" d="M1183,293l15,8 3,13 -4,10 1,13 -16,7 -10,-5 -3,11 -10,9 -8,-5 -4,5 -5,7 -13,-5 -12,0 -19,13 -13,-4 -6,-12 4,-11 -8,-8 -10,2 -8,-4 -37,6 -6,-23 -10,-10 -31,-6 7,-11 14,0 8,-6 7,4 16,-7 12,-7 14,3 19,-8 11,7 8,-1 10,-8 12,5 15,1 27,8 18,2Z"/>
    <path data-fips-int="72013" data-name="Arecibo Municipio" d="M1749,187l0,19 7,1 -1,14 -10,32 -11,-2 -8,15 -11,-6 -10,5 -18,5 -14,-5 -14,10 -12,-5 -20,6 -9,-3 -25,9 -8,-21 3,-7 -13,-16 -5,0 -27,17 -16,14 1,-61 3,-24 -4,-17 3,-14 -1,-21 2,-38 -3,-9 6,-19 20,9 16,4 14,-2 16,5 13,-7 -2,-7 18,1 16,-10 8,2 24,-1 8,-6 22,-1 43,12 -2,14 10,8 -6,61 -7,12 -3,14Z"/>
    <path data-fips-int="72015" data-name="Arroyo Municipio" d="M2442,712l-35,33 -19,-10 -8,-8 -2,-34 -12,-13 0,-8 -16,-15 12,-8 3,-6 7,-5 23,-5 12,6 5,9 2,15 -6,11 10,7 2,6 12,5Z"/>
    <path data-fips-int="72017" data-name="Barceloneta Municipio" d="M1814,71l8,10 -5,17 7,6 -10,10 -2,9 12,10 -1,8 -21,9 2,17 -10,-2 -3,-6 -13,-3 -14,9 -9,22 -6,0 -7,-13 3,-14 7,-12 6,-61 -10,-8 2,-14 14,0 21,-6 9,1Z"/>
    <path data-fips-int="72019" data-name="Barranquitas Municipio" d="M2172,449l-2,1 -1,5 -8,19 -9,-7 -24,-4 -26,11 -4,8 -6,-2 -10,11 -10,-6 0,-11 -24,-4 -11,4 -4,-4 -23,-6 0,-14 11,-4 -4,-14 8,-2 5,9 7,-2 1,-60 14,3 14,-7 1,-5 16,-2 9,11 10,-6 21,3 17,-2 1,16 -6,19 8,15 1,27 8,3 2,-6 14,-8Z"/>
    <path data-fips-int="72021" data-name="Bayamón Municipio" d="M2304,141l-1,6 14,7 -8,15 10,29 -4,5 -14,-7 -4,5 0,17 -4,6 7,11 2,22 -7,9 0,13 8,6 -10,2 2,9 -6,31 -16,-5 -13,8 -11,2 -17,22 -3,-12 -13,-11 -13,-36 8,-2 1,-13 4,-1 3,-15 -2,-10 7,-36 -3,-6 4,-25 1,-10 -3,-20 5,-8 11,-3 15,0 4,-13 14,13Z"/>
    <path data-fips-int="72023" data-name="Cabo Rojo Municipio" d="M1052,489l11,14 2,-1 19,17 -2,7 11,12 28,13 -4,39 6,0 2,10 -9,6 -2,8 -6,16 3,5 -6,10 8,28 0,41 9,4 -6,13 -3,23 -7,-5 -8,4 -16,-6 -29,-4 -5,-9 -15,-4 -9,1 -14,16 6,14 6,5 -10,5 -2,-19 -16,-10 -6,3 -3,-13 3,-10 -4,-15 8,-18 11,-6 24,-8 3,6 13,-4 0,-5 -10,1 4,-19 -10,-6 -22,-5 -6,-6 -7,2 12,-13 -2,-15 5,-10 8,1 7,-7 -10,-12 -3,9 -7,-10 0,-14 22,-16 2,-10 -2,-23 -4,-8 9,-10 0,-20 -7,-8 6,-3 15,16Z"/>
    <path data-fips-int="72025" data-name="Caguas Municipio" d="M2438,294l-9,3 -1,17 14,6 12,10 0,11 -6,5 4,15 -5,11 9,6 -8,16 18,11 0,10 6,3 -6,2 0,23 -15,4 -1,12 -6,0 -6,14 3,9 -4,7 4,10 -7,15 -8,2 -4,16 -9,7 -12,1 -10,-4 -1,-11 -10,-16 4,-14 -17,-5 -18,-21 -13,-3 5,-15 -9,-23 -11,-12 19,-8 15,-14 6,-10 0,-9 13,-14 -4,-4 14,-60 16,-1 10,6 -4,-10 8,-7Z"/>
    <path data-fips-int="72027" data-name="Camuy Municipio" d="M1447,62l0,15 8,4 -2,17 7,5 -2,27 4,12 0,15 8,11 0,15 8,7 -6,29 -7,10 3,5 -7,12 -29,-13 -35,-4 -11,-14 -9,0 -6,2 -3,-25 3,-14 -3,-11 0,-101 42,-10 19,1Z"/>
    <path data-fips-int="72029" data-name="Canóvanas Municipio" d="M2624,200l-7,7 -3,14 4,32 8,6 5,13 -9,6 2,10 7,8 -7,12 28,19 12,5 -4,12 -16,14 -11,-3 -15,6 -19,-12 -9,1 -18,-6 -9,-6 13,-1 -1,-20 -5,-4 7,-8 -7,-13 13,-18 -8,-3 3,-17 -5,-12 -6,-3 -4,-14 5,-31 -18,-7 -3,-7 9,-10 7,2 11,-1 12,-16 7,2 29,3 -8,39Z"/>
    <path data-fips-int="72031" data-name="Carolina Municipio" d="M2563,172l-7,-2 -9,10 3,7 18,7 -5,31 4,14 6,3 5,12 -3,17 8,3 -13,18 7,13 -7,8 5,4 1,20 -13,1 -6,-3 -19,-18 -3,-8 -2,-7 6,-13 -12,-4 -10,-8 -16,-20 3,-7 -7,-6 -3,-11 -17,-17 -3,-14 -9,-4 -5,-16 14,-8 -2,-11 -19,-8 -25,-17 -4,-13 -12,-9 7,-8 15,8 10,-3 16,1 13,-16 7,5 1,12 18,6 4,10 13,-2 4,-5 26,12 8,16 7,6Z"/>
    <path data-fips-int="72033" data-name="Cataño Municipio" d="M2326,121l-22,20 -32,5 -14,-13 7,-18 11,-1 18,-21 3,14 7,9 11,4 12,-6Z"/>
    <path data-fips-int="72035" data-name="Cayey Municipio" d="M2401,540l1,4 -2,4 -19,7 -23,-7 -18,3 -8,6 -4,13 -17,-9 -3,11 7,10 4,23 -12,26 2,4 -13,3 -6,-5 -15,-3 -2,-7 -10,-2 -8,-5 -28,7 -8,4 -4,-11 5,-5 -1,-12 -5,0 -12,-15 -3,-17 -8,-3 -2,-28 8,-5 -1,-14 5,-15 12,5 6,-9 4,9 18,2 2,-9 7,13 13,1 6,-16 5,6 21,6 9,5 1,-7 23,-4 2,-7 13,-8 6,-20 18,21 17,5 -4,14 10,16 1,11Z"/>
    <path data-fips-int="72039" data-name="Ciales Municipio" d="M1901,210l-3,25 13,25 0,25 -2,11 -6,4 4,13 -6,9 0,12 5,20 4,2 1,8 -15,7 -10,-5 -32,-8 -13,18 7,7 -2,6 -12,-1 9,27 1,19 -8,1 -1,16 4,20 -22,16 -13,-10 6,-13 8,-9 -7,-10 5,-16 -6,-16 -14,-9 -8,-22 -10,-7 2,-14 8,-1 -6,-10 6,-3 -3,-12 4,-10 -9,-6 2,-9 -7,-7 -8,-13 -24,-17 -6,3 -17,-2 6,-8 8,-15 11,2 6,1 15,-7 26,3 16,-5 7,-9 18,-5 9,-9 18,-5 14,0Z"/>
    <path data-fips-int="72041" data-name="Cidra Municipio" d="M2321,416l11,12 9,23 -5,15 13,3 -6,20 -13,8 -2,7 -23,4 -1,7 -9,-5 -21,-6 -5,-6 -6,16 -13,-1 -7,-13 -2,9 -18,-2 -4,-9 -6,9 -12,-5 0,-6 -14,-5 -1,-11 7,-2 -6,-11 -18,-12 1,-5 2,-1 12,1 9,10 11,4 1,-16 8,-15 12,-1 17,-6 -3,-4 13,-12 5,-2 2,-10 8,5 13,-2 9,-8 -2,17 9,6 -4,4 6,12 11,-9Z"/>
    <path data-fips-int="72043" data-name="Coamo Municipio" d="M2010,464l23,6 4,4 11,-4 24,4 0,11 10,6 -3,12 5,8 -10,13 48,40 6,-1 5,12 12,2 7,12 -14,8 -13,1 -7,11 -15,4 -19,16 0,16 -7,3 -9,15 -6,3 -6,-9 -16,-5 0,-5 -9,-8 -19,5 -20,-9 -8,4 -37,-6 3,-9 -11,-20 5,-9 -3,-14 1,-12 9,-9 -6,-4 -4,-19 4,-3 10,-27 -1,-9 -12,-13 1,-10 -5,-10 -14,-5 19,7 6,-1 12,11 27,-4 3,-8Z"/>
    <path data-fips-int="72045" data-name="Comerío Municipio" d="M2232,354l15,15 3,22 9,7 -2,10 -5,2 -13,12 3,4 -17,6 -12,1 -8,15 -1,16 -11,-4 -9,-10 -12,-1 -4,-11 -14,8 -2,6 -8,-3 -1,-27 -8,-15 6,-19 -1,-16 19,-6 7,0 4,-7 17,0 -2,-10 9,-5 3,-10 19,-3 13,11Z"/>
    <path data-fips-int="72047" data-name="Corozal Municipio" d="M2126,263l-9,34 -2,40 -11,19 -12,3 -9,7 -16,2 -1,5 -14,7 -14,-3 -17,-23 -22,-26 6,-19 15,-50 9,3 0,-17 11,-8 -8,-12 18,2 3,-13 19,5 4,-4 8,4 10,-3 18,17Z"/>
    <path data-fips-int="72051" data-name="Dorado Municipio" d="M2157,180l-7,9 -30,6 -6,-3 -20,2 0,-35 6,-15 -3,-14 -9,0 -10,-21 3,-32 20,-2 17,6 18,-10 18,4 26,13 23,1 -20,15 -3,5 -8,-7 -11,6 -11,-5 0,31 -8,4 0,14 9,1 1,20Z"/>
    <path data-fips-int="72054" data-name="Florida Municipio" d="M1804,167l14,30 0,20 -3,19 -7,9 -16,5 -26,-3 -15,7 -6,-1 10,-32 1,-14 -7,-1 0,-19 6,0 9,-22 14,-9 13,3 3,6Z"/>
    <path data-fips-int="72055" data-name="Guánica Municipio" d="M1418,744l-5,12 -9,-9 -11,5 0,-5 -22,4 -8,-1 -4,-19 -6,2 -18,-11 6,13 14,9 2,5 -10,7 -13,2 -7,6 17,9 -7,7 -16,-8 -23,1 2,-7 -18,-15 -12,-4 22,-50 5,-53 13,-1 14,5 6,-1 25,8 7,-3 13,4 12,-2 -1,6 13,8 14,21 0,41Z"/>
    <path data-fips-int="72057" data-name="Guayama Municipio" d="M2400,548l-6,4 -3,19 -9,13 -14,5 -1,14 -9,4 3,16 -3,8 7,12 -3,6 -12,8 16,15 0,8 12,13 2,34 -17,3 -35,21 -17,3 -22,10 -14,14 0,-10 -8,5 -7,-2 -33,-2 -2,7 -24,11 8,-8 3,-10 -5,-10 11,-2 21,8 13,-8 -4,-8 -13,-3 -21,-12 1,-65 5,-6 15,-8 11,-2 17,-32 10,2 2,7 15,3 6,5 13,-3 -2,-4 12,-26 -4,-23 -7,-10 3,-11 17,9 4,-13 8,-6 18,-3 23,7Z"/>
    <path data-fips-int="72059" data-name="Guayanilla Municipio" d="M1528,513l0,10 10,20 -6,7 2,8 -6,16 4,7 -3,15 3,10 1,30 3,-10 9,-12 1,8 10,7 12,3 -6,15 10,17 -1,3 -18,5 -7,15 -7,-1 -8,-8 -7,1 -15,12 -18,5 3,11 -12,0 0,10 15,-1 10,-11 3,7 -6,10 -24,9 -12,10 -23,9 -18,-6 19,-14 1,-29 4,-10 8,-4 -4,-25 9,-3 4,-10 -8,-18 8,-17 4,-21 16,-23 -10,-29 17,-11 -1,-15 10,-1 6,-6 10,7Z"/>
    <path data-fips-int="72061" data-name="Guaynabo Municipio" d="M2332,135l12,15 -2,7 6,8 -2,7 -12,-2 -2,17 7,12 15,6 -2,14 4,9 -12,8 1,13 12,8 -1,15 5,8 0,21 5,3 -16,7 0,8 -17,10 -15,-4 -29,2 6,-31 -2,-9 10,-2 -8,-6 0,-13 7,-9 -2,-22 -7,-11 4,-6 0,-17 4,-5 14,7 4,-5 -10,-29 8,-15 -14,-7 1,-6 22,-20Z"/>
    <path data-fips-int="72063" data-name="Gurabo Municipio" d="M2535,309l3,8 19,18 6,3 -6,1 -13,10 -7,15 -7,-3 -2,15 11,9 -15,6 -24,0 -11,4 -2,7 -9,0 -6,16 -6,-3 0,-10 -18,-11 8,-16 -9,-6 5,-11 -4,-15 6,-5 0,-11 -12,-10 -14,-6 1,-17 9,-3 6,-5 10,6 27,-9 22,2 5,12 12,7Z"/>
    <path data-fips-int="72065" data-name="Hatillo Municipio" d="M1534,66l-6,19 3,9 -2,38 1,21 -3,14 4,17 -3,24 -1,61 0,6 -68,-3 2,-26 7,-12 -3,-5 7,-10 6,-29 -8,-7 0,-15 -8,-11 0,-15 -4,-12 2,-27 -7,-5 2,-17 -8,-4 0,-15 10,0 5,-5 32,-3 20,2Z"/>
    <path data-fips-int="72067" data-name="Hormigueros Municipio" d="M1141,495l-6,2 -3,15 3,13 18,12 -5,11 -22,0 -5,3 -28,-13 -11,-12 2,-7 -19,-17 -2,1 -11,-14 21,-3 7,4 9,-7 11,2 10,-5 14,5 3,-3Z"/>
    <path data-fips-int="72071" data-name="Isabela Municipio" d="M1300,59l3,16 -7,5 2,10 -10,19 8,4 2,8 14,5 5,17 10,10 -15,15 5,4 20,2 10,8 -14,1 -8,11 0,9 -11,2 -20,-11 -13,-3 -15,1 -26,-12 -26,1 -29,-67 -6,-19 -2,-25 -19,-11 -11,-1 0,-8 -8,-10 -16,-12 14,-4 28,4 20,-3 34,9 7,-3 25,11 24,13 9,-1Z"/>
    <path data-fips-int="72073" data-name="Jayuya Municipio" d="M1775,303l7,7 -2,9 9,6 -4,10 3,12 -6,3 6,10 -8,1 -2,14 10,7 8,22 14,9 6,16 -5,16 7,10 -8,9 -6,13 -6,13 -6,1 -18,-8 -9,-12 -26,-4 -20,16 -13,3 -7,-3 -2,10 -23,-10 -3,-31 12,-1 -2,-14 8,-17 10,-8 -1,-9 5,-19 0,-14 8,-3 15,14 11,-28 -4,-6 6,-8 0,-15 22,-2 5,-9 1,-12Z"/>
    <path data-fips-int="72077" data-name="Juncos Municipio" d="M2553,502l-5,-24 1,-21 4,1 -2,-26 -6,1 -17,-17 -5,-8 1,-17 15,-6 -11,-9 2,-15 7,3 7,-15 13,-10 6,-1 9,6 18,6 9,-1 19,12 15,-6 11,3 1,9 -8,7 -13,27 -16,17 -7,12 -10,-3 -8,20 -9,13 -7,19Z"/>
    <path data-fips-int="72079" data-name="Lajas Municipio" d="M1267,618l1,15 26,6 3,5 -5,53 -22,50 -2,-11 -6,-13 -12,-3 -10,3 5,11 -15,-7 5,-8 -7,-1 -5,9 -7,-5 -18,-2 -6,6 -4,-6 -23,-1 -14,8 0,11 -10,-8 -6,17 -12,7 -10,0 3,-23 6,-13 -9,-4 0,-41 -8,-28 6,-10 -3,-5 6,-16 16,-6 13,1 21,-8 14,4 5,-3 23,9 10,-3 12,4 9,-4 15,10Z"/>
    <path data-fips-int="72081" data-name="Lares Municipio" d="M1461,246l-2,26 3,6 -5,5 5,14 -7,23 1,21 4,8 -3,24 13,12 0,6 -8,-3 -12,6 5,6 -8,7 4,45 6,15 -11,0 -25,-1 -6,-5 -2,-14 -42,-2 -16,-52 0,-11 6,-12 -2,-8 2,-15 -6,-18 2,-31 15,-53 6,-27 -1,-3 9,0 11,14 35,4Z"/>
    <path data-fips-int="72083" data-name="Las Marías Municipio" d="M1359,362l2,8 -6,12 0,11 16,52 -59,-15 -14,0 0,-6 -24,-5 -14,3 -2,7 -33,16 -3,-13 2,-8 -18,-5 1,-13 -21,-12 -2,-9 -6,-7 1,-7 -22,-3 -10,-9 4,-5 8,5 10,-9 3,-11 10,5 16,-7 -1,-13 4,-10 8,0 -9,8 15,7 5,-4 6,6 14,-3 21,4 5,-5 15,9 4,12 7,-10 12,0 6,6 4,-8 3,16 10,2 3,7 5,-7 20,0Z"/>
    <path data-fips-int="72085" data-name="Las Piedras Municipio" d="M2676,427l-2,18 -6,3 -4,12 -12,-4 -10,1 0,10 -9,18 0,13 -19,35 -8,-6 -28,-4 -23,8 0,-14 4,-10 -6,-5 14,-23 7,-19 9,-13 8,-20 10,3 7,-12 16,-17 13,-27 8,-7 -1,-9 16,-14 4,-12 5,4 9,-2 11,14 -2,13 -15,30 -2,19Z"/>
    <path data-fips-int="72087" data-name="Loíza Municipio" d="M2672,142l-17,24 -13,9 -8,20 -10,5 -10,-1 8,-39 -29,-3 -7,-2 -12,16 -11,1 -2,-14 -7,-6 -8,-16 -26,-12 -4,5 -13,2 -4,-10 -18,-6 -1,-12 -7,-5 15,-2 25,10 20,5 32,4 12,-4 3,-6 19,10 12,9 31,3 23,4Z"/>
    <path data-fips-int="72089" data-name="Luquillo Municipio" d="M2866,220l-11,19 1,5 -9,17 2,8 -14,-2 -12,8 1,12 -18,4 -1,13 -16,9 -6,-9 -15,-6 -4,6 -6,7 1,-9 -5,-13 6,-14 9,-10 -8,-2 3,-16 -16,-22 -1,-12 7,-3 -4,-7 17,-13 14,6 8,-2 5,-9 9,0 1,7 12,15 13,4 26,1Z"/>
    <path data-fips-int="72091" data-name="Manatí Municipio" d="M1924,211l-23,-1 -27,7 -14,0 -18,5 -9,9 -18,5 3,-19 0,-20 -14,-30 -2,-17 21,-9 1,-8 -12,-10 2,-9 10,-10 -7,-6 5,-17 -8,-10 10,-6 16,9 20,1 18,7 31,3 10,-4 11,-18 -2,72 1,30 -10,19Z"/>
    <path data-fips-int="72093" data-name="Maricao Municipio" d="M1371,445l42,2 2,14 6,5 25,1 -9,13 -8,-3 -8,31 -16,0 -22,-18 -4,7 -17,1 -12,-10 -13,4 -32,7 -14,-3 -10,8 -7,-3 -18,-8 -4,-8 -16,-3 -5,-8 -27,-4 -12,-11 21,-11 12,-3 33,-16 2,-7 14,-3 24,5 0,6 14,0Z"/>
    <path data-fips-int="72095" data-name="Maunabo Municipio" d="M2648,670l-10,8 -14,-2 -18,24 -7,-5 -11,3 -12,12 -4,-6 -16,-1 -5,-5 -16,-4 -7,-15 -5,-2 -3,-14 3,-8 -12,-7 -12,6 -4,-11 -8,-3 2,-7 -6,-6 -4,-18 13,-2 7,10 10,-2 14,12 22,6 1,5 11,0 15,4 6,-3 23,7 11,12 14,-7 11,6Z"/>
    <path data-fips-int="72099" data-name="Moca Municipio" d="M1214,181l-14,24 -4,25 -6,3 8,23 6,8 -21,29 -12,-7 -18,-2 -27,-8 -15,-1 -12,-5 -10,8 -5,-16 4,-6 -4,-15 7,-8 2,-24 -6,-23 10,-19 -2,-6 32,-36 8,1 12,-11 8,-1 3,-14 21,-5 6,19Z"/>
    <path data-fips-int="72101" data-name="Morovis Municipio" d="M2005,245l15,14 -15,50 -8,4 -7,22 -24,14 -37,6 -19,1 -4,-2 -5,-20 0,-12 6,-9 -4,-13 6,-4 2,-11 0,-25 -13,-25 3,-25 23,1 19,0 8,-9 24,16 8,-9 7,12 5,23Z"/>
    <path data-fips-int="72103" data-name="Naguabo Municipio" d="M2748,325l6,11 10,8 18,5 10,10 11,1 0,-6 12,2 12,-5 11,11 10,-4 2,8 -11,11 5,10 21,11 16,-3 -8,14 4,8 -21,14 -11,0 -7,8 3,15 -10,-6 -10,0 -13,-8 -13,5 -13,16 -1,-10 -14,7 -18,-7 7,-18 -38,-11 -10,3 -8,-4 -16,0 -8,6 -6,-17 2,-19 15,-30 2,-13 -11,-14 15,-22 18,2 4,-8 11,1 14,16Z"/>
    <path data-fips-int="72105" data-name="Naranjito Municipio" d="M2212,280l-1,13 -8,2 13,36 -19,3 -3,10 -9,5 2,10 -17,0 -4,7 -7,0 -19,6 -17,2 -21,-3 -10,6 -9,-11 9,-7 12,-3 11,-19 2,-40 9,-34 18,0 6,-3 12,8 9,-9 11,12 13,-12 6,0 4,11Z"/>
    <path data-fips-int="72107" data-name="Orocovis Municipio" d="M2038,377l-1,60 -7,2 -5,-9 -8,2 4,14 -11,4 0,14 -19,1 -3,8 -27,4 -12,-11 -6,1 -19,-7 -32,-2 -3,7 -37,10 -10,10 -13,7 -15,-1 -12,6 -4,-7 6,-13 13,10 22,-16 -4,-20 1,-16 8,-1 -1,-19 -9,-27 12,1 2,-6 -7,-7 13,-18 32,8 10,5 15,-7 -1,-8 19,-1 37,-6 24,-14 7,-22 8,-4 -6,19 22,26Z"/>
    <path data-fips-int="72109" data-name="Patillas Municipio" d="M2453,588l0,11 13,9 13,1 4,18 6,6 -2,7 8,3 4,11 12,-6 12,7 -3,8 3,14 5,2 7,15 16,4 5,5 16,1 4,6 -13,7 -16,-1 -6,4 -23,3 -13,-5 -12,9 -9,-3 -11,-11 -19,-4 -12,3 -10,-20 -12,-5 -2,-6 -10,-7 6,-11 -2,-15 -5,-9 -12,-6 -23,5 -7,5 -7,-12 3,-8 -3,-16 9,-4 1,-14 14,-5 9,-13 3,-19 6,-4 2,-4 12,8 12,3 10,-2 14,9 -8,16Z"/>
    <path data-fips-int="72111" data-name="Peñuelas Municipio" d="M1619,519l12,15 10,36 -14,48 3,8 -5,9 4,31 -5,15 4,14 -15,20 -13,-5 -8,-11 -15,-3 -21,2 -7,4 -5,15 -8,-6 10,-12 -5,-6 5,-6 7,-15 18,-5 1,-3 -10,-17 6,-15 -12,-3 -10,-7 -1,-8 -9,12 -3,10 -1,-30 -3,-10 3,-15 -4,-7 6,-16 -2,-8 6,-7 -10,-20 0,-10 12,8 12,20 11,-5 11,7 5,-2 3,-10 14,-14 4,5Z"/>
    <path data-fips-int="72113" data-name="Ponce Municipio" d="M1822,835l3,-13 15,-11 4,5ZM1792,491l-13,11 -3,18 5,18 7,0 2,12 6,12 -8,16 13,20 -1,20 10,15 -6,12 8,20 -2,4 8,16 -12,12 5,19 -3,3 -12,0 -14,8 -19,7 -9,1 -13,-11 -15,3 -5,6 -12,-6 6,-4 -2,-7 -18,-8 -19,4 -19,14 -12,3 -8,-8 -24,-6 15,-20 -4,-14 5,-15 -4,-31 5,-9 -3,-8 14,-48 -10,-36 -12,-15 21,1 8,-30 26,-7 23,10 2,-10 7,3 13,-3 20,-16 26,4 9,12Z"/>
    <path data-fips-int="72115" data-name="Quebradillas Municipio" d="M1368,66l0,101 3,11 -3,14 3,25 -8,-1 -5,-9 -9,-4 -2,-21 -10,-8 -20,-2 -5,-4 15,-15 -10,-10 -5,-17 -14,-5 -2,-8 -8,-4 10,-19 -2,-10 7,-5 -3,-16 21,-2 25,7Z"/>
    <path data-fips-int="72117" data-name="Rincón Municipio" d="M1025,284l-16,7 -7,-4 -8,6 -14,0 -7,11 -9,-2 -17,-26 -13,-30 -12,-14 -4,-12 14,-10 25,-6 4,8 11,8 8,26 12,8 18,7 -2,6 9,4Z"/>
    <path data-fips-int="72119" data-name="Río Grande Municipio" d="M2767,190l-17,13 4,7 -7,3 1,12 16,22 -3,16 8,2 -9,10 -6,14 5,13 -1,9 -10,14 -8,-2 -14,-16 -11,-1 -4,8 -18,-2 -15,22 -9,2 -5,-4 -12,-5 -28,-19 7,-12 -7,-8 -2,-10 9,-6 -5,-13 -8,-6 -4,-32 3,-14 7,-7 10,-5 8,-20 13,-9 17,-24 8,5 11,12 14,-3 13,-12 2,6 -9,14 13,-1 15,-10 5,3 -2,14 11,4Z"/>
    <path data-fips-int="72121" data-name="Sabana Grande Municipio" d="M1387,654l-12,2 -13,-4 -7,3 -25,-8 -6,1 -14,-5 -13,1 -3,-5 -26,-6 -1,-15 3,-28 -4,-42 6,-18 10,-8 0,-14 -8,-7 7,3 10,-8 14,3 32,-7 11,32 -7,12 2,17 6,9 -4,4 6,11 6,25 6,9 6,17 14,15Z"/>
    <path data-fips-int="72125" data-name="San Germán Municipio" d="M1192,459l12,11 27,4 5,8 16,3 4,8 18,8 8,7 0,14 -10,8 -6,18 4,42 -3,28 -15,0 -15,-10 -9,4 -12,-4 -10,3 -23,-9 -5,3 -14,-4 -21,8 -13,-1 -16,6 2,-8 9,-6 -2,-10 -6,0 4,-39 5,-3 22,0 5,-11 -18,-12 -3,-13 3,-15 6,-2 2,-19 16,-12 21,0Z"/>
    <path data-fips-int="72129" data-name="San Lorenzo Municipio" d="M2524,391l-1,17 5,8 17,17 6,-1 2,26 -4,-1 -1,21 5,24 6,5 -4,10 0,14 1,18 -7,12 -15,9 -11,-4 -12,8 -20,-10 -6,7 -12,-1 -13,18 -7,0 -11,-10 8,-16 -14,-9 -10,2 -12,-3 -12,-8 -1,-4 12,-1 9,-7 4,-16 8,-2 7,-15 -4,-10 4,-7 -3,-9 6,-14 6,0 1,-12 15,-4 0,-23 6,-2 6,-16 9,0 2,-7 11,-4Z"/>
    <path data-fips-int="72131" data-name="San Sebastián Municipio" d="M1347,182l2,21 9,4 5,9 8,1 6,-2 1,3 -6,27 -15,53 -2,31 6,18 -2,15 -4,-8 -20,0 -5,7 -3,-7 -10,-2 -3,-16 -4,8 -6,-6 -12,0 -7,10 -4,-12 -15,-9 -5,5 -21,-4 -14,3 -6,-6 -5,4 -15,-7 9,-8 -8,0 -3,-13 -15,-8 21,-29 -6,-8 -8,-23 6,-3 4,-25 14,-24 26,-1 26,12 15,-1 13,3 20,11 11,-2 0,-9 8,-11Z"/>
    <path data-fips-int="72135" data-name="Toa Alta Municipio" d="M2225,187l-4,25 3,6 -7,36 2,10 -3,15 -4,1 -7,-10 -4,-11 -6,0 -13,12 -11,-12 -9,9 -12,-8 -6,3 -18,0 -14,-30 -18,-17 -10,3 -8,-4 6,-17 12,-4 20,-2 6,3 30,-6 7,-9 10,0 13,-9Z"/>
    <path data-fips-int="72137" data-name="Toa Baja Municipio" d="M2258,133l-4,13 -15,0 -11,3 -5,8 3,20 -1,10 -45,-16 -13,9 -10,0 -5,-7 -1,-20 -9,-1 0,-14 8,-4 0,-31 11,5 11,-6 8,7 3,-5 20,-15 30,-2 4,-12 10,1 -8,10 6,16 24,7 14,-10 16,-21 2,4 -7,11 -18,21 -11,1Z"/>
    <path data-fips-int="72139" data-name="Trujillo Alto Municipio" d="M2535,309l-15,-2 -12,-7 -5,-12 -22,-2 -27,9 -10,-6 -6,5 -24,-9 7,-9 2,-20 -3,-13 3,-22 -2,-10 13,-13 9,2 22,-2 9,4 3,14 17,17 3,11 7,6 -3,7 16,20 10,8 12,4 -6,13Z"/>
    <path data-fips-int="72141" data-name="Utuado Municipio" d="M1775,303l-8,-2 -1,12 -5,9 -22,2 0,15 -6,8 4,6 -11,28 -15,-14 -8,3 0,14 -5,19 1,9 -10,8 -8,17 2,14 -12,1 3,31 -26,7 -8,3 1,-12 6,-3 8,-13 -10,-12 -10,-6 -4,-13 4,-9 -13,-10 -2,-7 -17,0 -10,-5 -11,0 -6,-6 -12,6 -26,-6 -4,-15 -14,-7 -8,-10 -15,1 -5,8 0,17 -5,4 -17,-4 0,-6 -13,-12 3,-24 -4,-8 -1,-21 7,-23 -5,-14 5,-5 -3,-6 68,3 0,-6 16,-14 27,-17 5,0 13,16 -3,7 8,21 25,-9 9,3 20,-6 12,5 14,-10 14,5 18,-5 10,-5 11,6 -6,8 17,2 6,-3 24,17Z"/>
    <path data-fips-int="72143" data-name="Vega Alta Municipio" d="M2081,77l-3,32 10,21 9,0 3,14 -6,15 0,35 -12,4 -6,17 -4,4 -19,-5 -3,13 -18,-2 8,12 -11,8 0,17 -9,-3 -15,-14 6,-18 -1,-15 5,-15 6,-8 5,-25 1,-18 13,-9 -5,-2 5,-23 -1,-46 8,3 7,-5Z"/>
    <path data-fips-int="72145" data-name="Vega Baja Municipio" d="M2039,66l1,46 -5,23 5,2 -13,9 -1,18 -5,25 -6,8 -5,15 1,15 -6,18 -10,-1 -5,-23 -7,-12 -8,9 -24,-16 -8,9 -19,0 -5,-27 10,-19 -1,-30 2,-72 32,-4 10,0 6,-6 23,14 3,-9 17,7Z"/>
    <path data-fips-int="72149" data-name="Villalba Municipio" d="M1924,460l14,5 5,10 -1,10 12,13 1,9 -10,27 -4,3 4,19 6,4 -9,9 -1,12 -17,-3 -13,4 -10,-5 -26,-6 -10,-11 -16,8 5,7 -6,8 -14,-6 -8,-17 -5,-3 3,-24 4,-4 -6,-11 7,-26 13,-7 10,-10 37,-10 3,-7Z"/>
    <path data-fips-int="72151" data-name="Yabucoa Municipio" d="M2713,595l-6,13 -9,3 -9,-7 -27,12 8,4 -2,12 4,12 -5,24 -10,-4 -9,6 -11,-13 -11,-6 -14,7 -11,-12 -23,-7 -6,3 -15,-4 -11,0 -1,-5 -22,-6 -14,-12 -10,2 -7,-10 -13,2 -13,-1 -13,-9 0,-11 7,0 13,-18 12,1 6,-7 20,10 12,-8 11,4 15,-9 7,-12 -1,-18 23,-8 28,4 8,6 15,13 6,-10 12,-3 10,8 -7,17 24,19 17,2 9,14Z"/>
    <path data-fips-int="72153" data-name="Yauco Municipio" d="M1494,515l1,15 -17,11 10,29 -16,23 -4,21 -8,17 8,18 -4,10 -9,3 4,25 -8,4 -4,10 -1,29 -19,14 -9,0 -5,-14 0,-41 -14,-21 -13,-8 1,-6 -4,-11 -14,-15 -6,-17 -6,-9 -6,-25 -6,-11 4,-4 -6,-9 -2,-17 7,-12 -11,-32 13,-4 12,10 17,-1 4,-7 22,18 16,0 8,-31 8,3 9,-13 11,0 2,13 9,13 18,3 0,10Z"/>
    <path data-fips-int="72037" data-name="Ceiba Municipio" d="M2969,354l3,12 -19,-1 -1,-8ZM2909,319l12,2 -7,16 6,16 10,7 13,-12 -5,10 10,20 16,10 -5,8 -11,-6 -4,6 1,12 -8,6 -7,-22 -13,-9 -12,7 -2,14 9,1 4,16 -6,6 -5,-7 -4,7 -12,-1 -12,-9 -4,-8 8,-14 -16,3 -21,-11 -5,-10 11,-11 -2,-8 -10,4 -11,-11 -12,5 -12,-2 0,6 -11,-1 -10,-10 -18,-5 -10,-8 -6,-11 10,-14 6,-7 20,18 -1,11 7,-1 15,5 4,6 17,-9 10,-17 15,14 9,-11 11,-6 15,7Z"/>
    <path data-fips-int="72049" data-name="Culebra Municipio" d="M3282,303l-10,-9 -1,-9 7,-8 4,10ZM3409,272l2,10 -10,0 -10,-11 4,-4ZM3357,242l12,0 10,11 -14,-1ZM3293,260l5,1 6,-12 8,7 10,1 5,-6 7,7 13,-2 28,16 8,11 0,8 -18,-4 5,17 -9,4 -3,-8 -11,1 -4,-12 -29,-5 2,9 17,6 7,12 -6,9 -18,-17 -2,-9 -10,0 -10,-21 -10,-7 -20,-30 5,-3 9,14 10,4Z"/>
    <path data-fips-int="72053" data-name="Fajardo Municipio" d="M2909,319l-23,2 -15,-7 -11,6 -9,11 -15,-14 -10,17 -17,9 -4,-6 -15,-5 -7,1 1,-11 -20,-18 4,-6 15,6 6,9 16,-9 1,-13 18,-4 -1,-12 12,-8 14,2 -2,-8 9,-17 -1,-5 11,-19 15,-3 17,-20 4,12 6,0 10,-9 0,-6 10,-7 4,5 -5,21 -7,3 0,8 -14,18 12,16 -2,26 4,9 -10,14ZM2970,191l-8,0 -3,-9 9,3Z"/>
    <path data-fips-int="72069" data-name="Humacao Municipio" d="M2782,461l-3,11 -20,11 -8,8 -2,10 -15,19 -2,13 4,3 -16,22 3,11 -10,6 -3,9 3,11 -13,-2 -9,-14 -17,-2 -24,-19 7,-17 -10,-8 -12,3 -6,10 -15,-13 19,-35 0,-13 9,-18 0,-10 10,-1 12,4 4,-12 6,-3 2,-18 8,-6 16,0 8,4 10,-3 38,11 -7,18 18,7 14,-7Z"/>
    <path data-fips-int="72075" data-name="Juana Díaz Municipio" d="M1829,492l-7,26 6,11 -4,4 -3,24 5,3 8,17 14,6 6,-8 -5,-7 16,-8 10,11 26,6 10,5 13,-4 17,3 3,14 -5,9 11,20 -3,9 -1,11 5,2 0,18 -6,10 -10,3 -3,20 -7,-3 -10,15 -8,-9 -9,-2 -15,5 -5,-4 -21,2 -49,18 3,-3 -5,-19 12,-12 -8,-16 2,-4 -8,-20 6,-12 -10,-15 1,-20 -13,-20 8,-16 -6,-12 -2,-12 -7,0 -5,-18 3,-18 13,-11 6,-1 4,7 12,-6Z"/>
    <path data-fips-int="72097" data-name="Mayagüez Municipio" d="M206,535l7,5 6,21 -2,14 -10,5 -20,24 -16,7 -17,2 -10,-9 -22,-7 -17,-18 -12,-5 10,-14 6,-23 29,-10 29,9 13,-2 18,-9ZM1147,359l10,9 22,3 -1,7 6,7 2,9 21,12 -1,13 18,5 -2,8 3,13 -12,3 -21,11 -12,5 -21,0 -16,12 -2,19 -14,-13 -3,3 -14,-5 -10,5 -11,-2 -9,7 -7,-4 -21,3 -9,-3 -15,-16 13,-19 18,-16 2,-8 -6,-19 -12,-6 -7,-7 0,-17 -3,-16 -13,-19 37,-6 8,4 10,-2 8,8 -4,11 6,12 13,4 19,-13 12,0 13,5ZM670,195l-4,3 -14,-10 10,-6 10,11Z"/>
    <path data-fips-int="72123" data-name="Salinas Municipio" d="M2263,621l-17,32 -11,2 -15,8 -5,6 -1,65 -34,24 3,15 -14,-12 -6,4 2,10 -16,-8 -12,-13 -9,-1 -10,6 -6,-2 6,-9 -8,-14 -4,4 -16,1 -7,-5 -4,-18 -25,-2 -6,-11 14,-37 6,-3 9,-15 7,-3 0,-16 19,-16 15,-4 7,-11 13,-1 14,-8 18,-2 3,-21 18,-2 8,3 3,17 12,15 5,0 1,12 -5,5 4,11 8,-4 28,-7Z"/>
    <path data-fips-int="72133" data-name="Santa Isabel Municipio" d="M2062,666l-14,37 6,11 -22,16 -11,0 4,9 -9,-3 1,10 -10,-3 -2,13 -10,7 -18,-15 -16,-8 -19,-3 -15,-21 -12,-7 10,-15 7,3 3,-20 10,-3 6,-10 0,-18 -5,-2 1,-11 37,6 8,-4 20,9 19,-5 9,8 0,5 16,5Z"/>
    <path data-fips-int="72147" data-name="Vieques Municipio" d="M3207,475l20,6 8,-2 9,7 5,-3 31,10 8,-3 24,9 12,-1 8,-6 6,4 13,17 -12,-3 -15,6 -4,-9 -10,0 -2,10 -15,1 -9,7 -5,-5 -13,18 -12,-1 15,-10 -27,-12 -5,8 -10,1 -5,16 -16,-4 -4,4 -27,5 -4,6 -5,-11 -13,5 16,10 -6,6 -12,3 -3,-16 -13,0 -2,6 13,2 -1,9 -8,7 -10,-3 2,-6 -10,-5 -6,5 -14,-4 -14,1 -24,6 -18,12 -19,0 -17,-4 -15,-7 -11,-16 -1,-20 41,-2 32,-11 5,-13 9,6 23,-4 17,-8 28,-4 10,-13 53,-8Z"/>
    <path data-fips-int="72127" data-name="San Juan County" d="M2419,108l-7,8 12,9 4,13 25,17 19,8 2,11 -14,8 5,16 -22,2 -9,-2 -13,13 2,10 -3,22 3,13 -2,20 -7,9 -8,7 4,10 -10,-6 -16,1 -8,7 -10,0 -5,-3 0,-21 -5,-8 1,-15 -12,-8 -1,-13 12,-8 -4,-9 2,-14 -15,-6 -7,-12 2,-17 12,2 2,-7 -6,-8 2,-7 -12,-15 1,2 20,-12 11,-2 0,-7 -14,-4 -14,-9 0,-6 21,0 -21,-6 -15,5 -8,-11 7,-2 25,5 11,-2 14,12 36,7 10,-2Z"/>
  </g>
  <g class="cities">
    <circle r="1" cx="233.6" cy="8.8"/>
    <text x="233.6" y="8.8">San Juan</text>
    <circle r="1" cx="227.5" cy="17.5"/>
    <text x="227.5" y="17.5">Bayamón</text>
    <circle r="1" cx="251.7" cy="19.7"/>
    <text x="251.7" y="19.7">Carolina</text>
  </g>
</svg>