<?xml version="1.0" encoding="utf-8"?>
<!DOCTYPE svg PUBLIC "-//W3C//DTD SVG 1.1//EN" "http://www.w3.org/Graphics/SVG/1.1/DTD/svg11.dtd">
<svg version="1.1" xmlns="http://www.w3.org/2000/svg" width="350" height="86" viewBox="0 0 350 86">
  <path class="state" transform="scale(0.1)" d="M3292,259l12,-10 43,7 27,16 -4,32 -56,-20 20,36 -30,-26 -42,-58 30,23M207,535l13,26 -33,43 -33,9 -60,-39 15,-36 30,-11 68,8M3207,476l104,23 21,-8 18,22 -81,14 -27,-13 -20,26 -69,4 14,11 -29,17 -54,-12 -65,18 -29,-14 -10,-33 41,-2 37,-24 31,2 49,-13 15,-14 54,-4M2419,108l45,4 8,-14 82,17 26,-11 32,20 53,7 7,11 40,22 26,-11 29,37 36,-5 10,19 53,16 32,-23 35,-5 -27,50 12,51 -8,26 3,23 25,16 12,33 -9,23 -25,-31v34l-40,1 -40,28 -29,-6 -25,21 -47,59 -22,75 -43,25 2,39 -25,11 -73,40 -80,17 -52,-15 -35,33 -26,-18 -92,37 -13,14 -48,-9 -27,18 5,-28 37,5 10,-12 -39,-18 -46,40 -30,-21 -27,4 -33,-41 -25,-2 -58,49 -53,-26 -27,-28 -58,-8 -48,18 -57,16 -35,-2 -22,-25 -49,21 -32,-14 -68,-28 -15,-9 -40,18 -8,21 21,6 -60,27 -18,-6h-8l-64,8 -10,21h-46l-28,-27 -54,-24 -51,-3 -52,35 -80,-24 -46,15 5,-56 43,-17 3,-18 -46,-15 15,-38 15,-3 -20,-30 21,-16 5,-82 34,-43 -25,-33 -17,-51 -15,-33 -31,-6 -10,-2 -49,-82 42,-16 53,-22 45,-29v-38l-13,-27 6,-28 34,-27 41,-5 100,2 75,29 70,7 40,-10 38,5 61,-6 25,11 69,16 45,-23 59,-6 45,12 34,-6 30,12 10,-6 71,20 35,-22 73,-5 35,8 43,11 55,-6 68,18 29,-2 35,23 26,-17 32,28 6,14 32,-19 -51,-31 43,1 63,22"/>
  <g class="counties" transform="scale(0.1)">
    <path data-fips-int="72001" data-name="Adjuntas Municipio" d="M1649,491l-8,29 -22,-1 -27,1 -20,22 -20,-2 -25,-27 -33,2 -36,-48 -12,-61 23,-15 17,3 26,-29 27,31 80,12 15,37 22,20Z"/>
    <path data-fips-int="72003" data-name="Aguada Municipio" d="M1087,186l3,92 -65,6 -53,-47 -15,-33 53,-22 45,-29 2,28Z"/>
    <path data-fips-int="72005" data-name="Aguadilla Municipio" d="M1180,95l-52,30 -33,35 -8,26 -30,-5 -2,-28v-38l-13,-27 6,-28 34,-27 41,-5 24,29 29,13Z"/>
    <path data-fips-int="72007" data-name="Aguas Buenas Municipio" d="M2321,416l-20,15 -20,-32 -22,-1 -26,-44 16,-23 40,-4 43,3 34,-26 18,-7 -13,60 -24,44Z"/>
    <path data-fips-int="72009" data-name="Aibonito Municipio" d="M2201,502l-10,62 -40,25 -76,-64 6,-34 44,-28 36,11 8,-19 24,18Z"/>
    <path data-fips-int="72011" data-name="Añasco Municipio" d="M1183,293l18,22 -3,22 -50,22 -50,15 -15,-27 -26,-10 -37,6 -15,-33 -31,-6 51,-20 65,-6 10,-8Z"/>
    <path data-fips-int="72013" data-name="Arecibo Municipio" d="M1749,187l6,20 -10,46 -20,12 -56,2 -78,14 -4,-27 -18,-16 -42,31v-142l5,-61 69,16 45,-23 59,-6 45,12 9,22Z"/>
    <path data-fips-int="72015" data-name="Arroyo Municipio" d="M2442,712l-35,33 -26,-18 -2,-34 -30,-36 17,-14 30,-9 13,39Z"/>
    <path data-fips-int="72017" data-name="Barceloneta Municipio" d="M1814,71l-2,41 12,28 -20,26 -25,-10 -30,31 10,-100 -9,-22 34,-6Z"/>
    <path data-fips-int="72019" data-name="Barranquitas Municipio" d="M2171,449l-2,6 -8,19 -36,-11 -44,28 -8,-17 -63,-10 6,-32 20,6 2,-61 45,-11 57,6 -5,35 10,42Z"/>
    <path data-fips-int="72021" data-name="Bayamón Municipio" d="M2304,141l12,13v49l-17,-8 4,90 -14,42 -40,4 -16,23 -17,-23 -13,-29 10,-22 11,-93 -1,-33 35,-21Z"/>
    <path data-fips-int="72023" data-name="Cabo Rojo Municipio" d="M1052,489l43,50 27,12 -9,62v141l-80,-24 -46,15 5,-56 43,-17 3,-18 -46,-15 15,-38 15,-3 -20,-30 21,-16 5,-82Z"/>
    <path data-fips-int="72025" data-name="Caguas Municipio" d="M2437,294l-10,18 27,18 -7,64 25,24 -21,29 -10,50 -19,35 -21,8 -52,-71 -28,-53 26,-15 24,-44 13,-60 30,-12Z"/>
    <path data-fips-int="72027" data-name="Camuy Municipio" d="M1446,61l12,69 20,60 -17,56 -85,-30 -5,1 -3,-151 40,-10Z"/>
    <path data-fips-int="72029" data-name="Canóvanas Municipio" d="M2625,200l-8,48 15,24 -7,36 39,23 -20,27 -27,2 -53,-22 11,-2 -5,-44 12,-17 -18,-49 -2,-54 23,-17 37,5Z"/>
    <path data-fips-int="72031" data-name="Carolina Municipio" d="M2562,172l2,54 18,49 -12,17 5,44 -11,2 -30,-30 5,-20 -35,-25 -40,-65 8,-35 -45,-25 -8,-30 45,4 8,-14 33,33 40,5Z"/>
    <path data-fips-int="72033" data-name="Cataño Municipio" d="M2326,121l-22,20 -46,-8 36,-40Z"/>
    <path data-fips-int="72035" data-name="Cayey Municipio" d="M2401,540l1,4 -1,4h-50l-23,22 -19,65 -46,-13 -44,5v-28l-28,-35 10,-62 42,-2 61,14 22,-8 23,-37Z"/>
    <path data-fips-int="72039" data-name="Ciales Municipio" d="M1900,210l12,50 -5,37 3,59 -13,15 -42,-13 -22,30 10,28 -3,58 -36,3 13,-48 -40,-54 10,-33 -12,-38 -50,-39 20,-12 52,-5 18,-12Z"/>
    <path data-fips-int="72041" data-name="Cidra Municipio" d="M2321,416l28,53 -23,37 -22,8 -61,-14 -42,2 -8,-29 -24,-18 2,-6 33,15 9,-31 30,-7 16,-28 22,1 20,32Z"/>
    <path data-fips-int="72043" data-name="Coamo Municipio" d="M2010,464l63,10 8,17 -6,34 76,64 -66,40 -24,37 -30,-27 -18,5 -66,-11 -7,-52 12,-21 -12,-23 15,-36 -32,-41 39,17Z"/>
    <path data-fips-int="72045" data-name="Comerío Municipio" d="M2233,354l26,44 -16,28 -30,7 -9,31 -33,-15h-26l-10,-42 5,-35 46,-12 30,-29Z"/>
    <path data-fips-int="72047" data-name="Corozal Municipio" d="M2126,263l-11,74 -32,29 -45,11 -40,-43 7,-25 15,-50 33,-45 23,1 37,18Z"/>
    <path data-fips-int="72051" data-name="Dorado Municipio" d="M2156,180l-20,14h-41l1,-64 -18,-21 3,-32 55,-6 68,18 -54,13Z"/>
    <path data-fips-int="72054" data-name="Florida Municipio" d="M1804,166l15,27 -4,43 -18,12 -52,5 10,-46 -6,-20 30,-31Z"/>
    <path data-fips-int="72055" data-name="Guánica Municipio" d="M1418,744l-64,8 -10,21h-46l-28,-27 23,-48 3,-54 92,10 25,34Z"/>
    <path data-fips-int="72057" data-name="Guayama Municipio" d="M2401,548l-44,59 9,36 -17,14 30,36 2,34 -92,37 -13,14 -48,-9 -27,18 5,-28 37,5 10,-12 -39,-18v-65l32,-16 17,-31 46,13 19,-65 23,-22Z"/>
    <path data-fips-int="72059" data-name="Guayanilla Municipio" d="M1527,513l10,27 -10,34 5,62 14,-22 18,15 8,35 -26,23 -15,-9 -40,18 -8,21 21,6 -60,27 -18,-6 20,-14 23,-82 -8,-22 25,-56 -8,-30 16,-25Z"/>
    <path data-fips-int="72061" data-name="Guaynabo Municipio" d="M2332,135l14,37 -12,23 20,10 -12,42 17,12 7,45 -34,26 -43,-3 14,-42 -4,-90 17,8v-49l-12,-13 22,-20Z"/>
    <path data-fips-int="72063" data-name="Gurabo Municipio" d="M2534,308l30,30 -37,34 -3,19h-24l-28,27 -25,-24 7,-64 -27,-18 10,-18 63,-7Z"/>
    <path data-fips-int="72065" data-name="Hatillo Municipio" d="M1532,66l-5,61v142l-68,3 2,-26 17,-56 -20,-60 -12,-69 61,-6Z"/>
    <path data-fips-int="72067" data-name="Hormigueros Municipio" d="M1140,495l-5,30 13,23 -26,3 -27,-12 -43,-50 58,-9Z"/>
    <path data-fips-int="72071" data-name="Isabela Municipio" d="M1298,59l-10,50 40,40 -15,21 31,11 -19,22 -89,-24 -21,2 -35,-86 -4,-25 -29,-13 -24,-29 100,2Z"/>
    <path data-fips-int="72073" data-name="Jayuya Municipio" d="M1775,304l12,38 -10,33 40,54 -13,48 -5,13 -7,1 -57,-22 -40,25 -21,-12 -4,-30 27,-41 7,-41 21,11 10,-56Z"/>
    <path data-fips-int="72077" data-name="Juncos Municipio" d="M2552,502l-7,-69 -21,-42 3,-19 37,-34 53,22 27,-2 -20,43 -32,26Z"/>
    <path data-fips-int="72079" data-name="Lajas Municipio" d="M1266,618l30,26 -3,54 -23,48 -54,-24 -51,-3 -52,35v-141l50,-13Z"/>
    <path data-fips-int="72081" data-name="Lares Municipio" d="M1461,246l-2,26 -1,102 11,17 -23,15 12,61h-12l-33,-20 -42,-2 -18,-58 6,-25 -1,-64 18,-82Z"/>
    <path data-fips-int="72083" data-name="Las Marías Municipio" d="M1359,362l-6,25 18,58 -96,-25 -50,25v-22l-42,-33 -3,-20 -32,-11 50,-22 3,-22 25,16 47,-2 10,19 38,3Z"/>
    <path data-fips-int="72085" data-name="Las Piedras Municipio" d="M2677,427l-13,33 -22,-2 -10,46 -18,29 -39,-10 -20,8 -3,-29 40,-75 32,-26 20,-43 20,-27 14,3 10,15 -16,42Z"/>
    <path data-fips-int="72087" data-name="Loíza Municipio" d="M2672,142l-47,58 -3,-40 -37,-5 -23,17 -17,-36 -40,-5 -33,-33 82,17 26,-11 32,20 53,7Z"/>
    <path data-fips-int="72089" data-name="Luquillo Municipio" d="M2866,220l-20,41 -56,54 -25,-11 -7,8 4,-67 -12,-42 17,-13 36,-5 10,19Z"/>
    <path data-fips-int="72091" data-name="Manatí Municipio" d="M1925,211l-25,-1 -85,26 4,-43 -15,-27 20,-26 -12,-28 2,-41 10,-6 71,20 35,-22Z"/>
    <path data-fips-int="72093" data-name="Maricao Municipio" d="M1371,445l42,2 33,20 -23,41 -39,-18 -48,2 -61,9 -84,-42 34,-14 50,-25Z"/>
    <path data-fips-int="72095" data-name="Maunabo Municipio" d="M2647,670l-73,40 -39,-15 -13,-40 -22,-1 -21,-45 65,24 86,19Z"/>
    <path data-fips-int="72099" data-name="Moca Municipio" d="M1215,181l-25,51 13,34 -20,27 -83,-23 -10,8 -3,-92 8,-26 33,-35 52,-30Z"/>
    <path data-fips-int="72101" data-name="Morovis Municipio" d="M2005,245l15,14 -15,50 -38,40 -57,7 -3,-59 5,-37 -12,-50 25,1 27,-10 31,9Z"/>
    <path data-fips-int="72103" data-name="Naguabo Municipio" d="M2748,325l14,20 41,15 24,-9 23,15 -4,22 35,10 -5,20 -40,28 -29,-6 -25,21 -32,-10 7,-18 -40,-14 -40,8 -5,-36 16,-42 -10,-15 15,-22 34,-5Z"/>
    <path data-fips-int="72105" data-name="Naranjito Municipio" d="M2213,280l-10,22 13,29 -30,29 -46,12 -57,-6 32,-29 11,-74 75,-4Z"/>
    <path data-fips-int="72107" data-name="Orocovis Municipio" d="M2038,377l-2,61 -20,-6 -6,32 -48,13 -39,-17 -71,15 -23,16 -30,-1 5,-13 36,-3 3,-58 -10,-28 22,-30 42,13 13,-15 57,-7 38,-40 -7,25Z"/>
    <path data-fips-int="72109" data-name="Patillas Municipio" d="M2452,588l27,21 21,45 22,1 13,40 39,15 -80,17 -52,-15 -33,-39 -13,-39 -30,9 -9,-36 44,-59 1,-4 47,18Z"/>
    <path data-fips-int="72111" data-name="Peñuelas Municipio" d="M1619,519l22,51 -14,48v79l-13,18 -68,-28 26,-23 -8,-35 -18,-15 -14,22 -5,-62 10,-34 -10,-27 25,27 20,2 20,-22Z"/>
    <path data-fips-int="72113" data-name="Ponce Municipio" d="M1792,491l-12,47 17,24 7,83 15,40 -10,34 -57,16 -35,-2 -22,-25 -49,21 -32,-14 13,-18v-79l14,-48 -22,-51 22,1 8,-29 25,-9 21,12 40,-25Z"/>
    <path data-fips-int="72115" data-name="Quebradillas Municipio" d="M1368,66l3,151 -27,-36 -31,-11 15,-21 -40,-40 10,-50Z"/>
    <path data-fips-int="72117" data-name="Rincón Municipio" d="M1025,284l-51,20 -10,-2 -49,-82 42,-16 15,33Z"/>
    <path data-fips-int="72119" data-name="Río Grande Municipio" d="M2767,190l-17,13 12,42 -4,67 -10,13 -21,-18 -34,5 -15,22 -14,-3 -39,-23 7,-36 -15,-24 8,-48 47,-58 40,22 26,-11Z"/>
    <path data-fips-int="72121" data-name="Sabana Grande Municipio" d="M1388,654l-92,-10 -30,-26 -1,-65 16,-31 -6,-21 61,-9 10,23 -2,53 24,64Z"/>
    <path data-fips-int="72125" data-name="San Germán Municipio" d="M1191,459l84,42 6,21 -16,31 1,65 -103,-18 -50,13 9,-62 26,-3 -13,-23 5,-30 18,-31Z"/>
    <path data-fips-int="72129" data-name="San Lorenzo Municipio" d="M2524,391l21,42 7,69 3,29 -21,39 -42,-7 -40,25 -3,-26 -47,-18 -1,-4 21,-8 19,-35 10,-50 21,-29 28,-27Z"/>
    <path data-fips-int="72131" data-name="San Sebastián Municipio" d="M1344,181l27,36 5,-1 -18,82 1,64 -38,-11 -38,-3 -10,-19 -47,2 -25,-16 -18,-22 20,-27 -13,-34 25,-51 21,-2 89,24Z"/>
    <path data-fips-int="72135" data-name="Toa Alta Municipio" d="M2224,187l-11,93 -12,-21 -75,4 -13,-30 -37,-18 19,-21h41l20,-14 23,-9Z"/>
    <path data-fips-int="72137" data-name="Toa Baja Municipio" d="M2258,133l-35,21 1,33 -45,-16 -23,9 -6,-78 54,-13 29,-2 35,23 26,-17Z"/>
    <path data-fips-int="72139" data-name="Trujillo Alto Municipio" d="M2534,308l-34,-21 -63,7 -23,-9 10,-29 -3,-45 43,-13 40,65 35,25Z"/>
    <path data-fips-int="72141" data-name="Utuado Municipio" d="M1775,304l-40,21 -10,56 -21,-11 -7,41 -27,41 4,30 -25,9 7,-26 -22,-20 -15,-37 -80,-12 -27,-31 -26,29 -17,-3 -11,-17 1,-102 68,-3 42,-31 18,16 4,27 78,-14 56,-2Z"/>
    <path data-fips-int="72143" data-name="Vega Alta Municipio" d="M2081,77l-3,32 18,21 -1,64 -19,21 -23,-1 -33,45 -15,-14 35,-133 -2,-46Z"/>
    <path data-fips-int="72145" data-name="Vega Baja Municipio" d="M2038,66l2,46 -35,133 -22,-35 -31,-9 -27,10 5,-148 73,-5Z"/>
    <path data-fips-int="72149" data-name="Villalba Municipio" d="M1923,460l32,41 -15,36 12,23 -12,21 -28,1 -60,-18 -19,13 -13,-30 9,-56 23,-16Z"/>
    <path data-fips-int="72151" data-name="Yabucoa Municipio" d="M2713,595l-43,25 2,39 -25,11 -17,-18 -86,-19 -65,-24 -27,-21 40,-25 42,7 21,-39 20,-8 39,10Z"/>
    <path data-fips-int="72153" data-name="Yauco Municipio" d="M1494,515l-16,25 8,30 -25,56 8,22 -23,82 -20,14h-8l-5,-56 -25,-34 -20,-22 -24,-64 2,-53 -10,-23 48,-2 39,18 23,-41h12Z"/>
    <path data-fips-int="72037" data-name="Ceiba Municipio" d="M2910,319l3,23 25,16 12,33 -9,23 -25,-31v34l-40,1 5,-20 -35,-10 4,-22 -23,-15 -24,9 -41,-15 -14,-20 10,-13 7,-8 18,29 25,10 28,-26 15,14 24,-14Z"/>
    <path data-fips-int="72049" data-name="Culebra Municipio" d="M3292,259l12,-10 43,7 27,16 -4,32 -56,-20 20,36 -30,-26 -42,-58Z"/>
    <path data-fips-int="72053" data-name="Fajardo Municipio" d="M2910,319l-35,-2 -24,14 -15,-14 -28,26 -25,-10 -18,-29 25,11 56,-54 20,-41 32,-23 35,-5 -27,50 12,51Z"/>
    <path data-fips-int="72069" data-name="Humacao Municipio" d="M2782,461l-47,59 -22,75 -99,-62 18,-29 10,-46 22,2 13,-33 40,-8 40,14 -7,18Z"/>
    <path data-fips-int="72075" data-name="Juana Díaz Municipio" d="M1829,491l-9,56 13,30 19,-13 60,18 28,-1 7,52 5,31 -37,45 -58,-8 -48,18 10,-34 -15,-40 -7,-83 -17,-24 12,-47 7,-1Z"/>
    <path data-fips-int="72097" data-name="Mayagüez Municipio" d="M207,535l13,26 -33,43 -33,9 -60,-39 15,-36 30,-11ZM1148,359l32,11 3,20 42,33v22l-34,14 -33,5 -18,31 -30,-15 -58,9 -24,-19 34,-43 -25,-33 -17,-51 37,-6 26,10 15,27Z"/>
    <path data-fips-int="72123" data-name="Salinas Municipio" d="M2263,622l-17,31 -32,16v65l-46,40 -30,-21 -27,4 -33,-41 -25,-2 8,-48 24,-37 66,-40 40,-25 28,35v28Z"/>
    <path data-fips-int="72133" data-name="Santa Isabel Municipio" d="M2061,666l-8,48 -58,49 -53,-26 -27,-28 37,-45 -5,-31 66,11 18,-5Z"/>
    <path data-fips-int="72147" data-name="Vieques Municipio" d="M3207,476l104,23 21,-8 18,22 -81,14 -27,-13 -20,26 -69,4 14,11 -29,17 -54,-12 -65,18 -29,-14 -10,-33 41,-2 37,-24 31,2 49,-13 15,-14Z"/>
    <path data-fips-int="72127" data-name="San Juan County" d="M2419,108l8,30 45,25 -8,35 -43,13 3,45 -10,29 -30,12 -18,7 -7,-45 -17,-12 12,-42 -20,-10 12,-23 -14,-37 32,-19 -51,-31 43,1Z"/>
  </g>
  <path class="mesh" transform="scale(0.1)" d="M1055,153l2,28 30,5 3,92 -65,6 -53,-47 -15,-33M1123,28l24,29 29,13 4,25 -52,30 -33,35 -8,26M2384,297l30,-12 23,9 -10,18 27,18 -7,64 25,24 -21,29 -10,50 -19,35 -21,8 -52,-71 -28,-53 -20,15 -20,-32 -22,-1 -26,-44 16,-23 40,-4 43,3 34,-26 18,-7 -13,60 -24,44 -26,15M1090,278l10,-8 83,23 18,22 -3,22 -50,22 -50,15 -15,-27 -26,-10 -37,6M974,304l51,-20M1750,65l9,22 -10,100 6,20 -10,46 -20,12 -56,2 -78,14 -4,-27 -18,-16 -42,31v-142l5,-61M2381,727l-2,-34 -30,-36 17,-14 30,-9 13,39 33,39M1814,71l-2,41 12,28 -20,26 -25,-10 -30,31M2081,491l-8,-17 -63,-10 6,-32 20,6 2,-61 45,-11 57,6 -5,35 10,42h26l-2,6M2233,354l-17,-23 -13,-29 10,-22 11,-93 -1,-33 35,-21 46,8 12,13v49l-17,-8 4,90 -14,42M1028,470l24,19 43,50 27,12 -9,62v141M1446,61l12,69 20,60 -17,56 -85,-30 -5,1 -3,-151M2672,142l-47,58 -8,48 15,24 -7,36 39,23 -20,27 -27,2 -53,-22 11,-2 -5,-44 12,-17 -18,-49 -2,-54 23,-17 37,5 3,40M2564,338l-30,-30 5,-20 -35,-25 -40,-65 8,-35 -45,-25 -8,-30M2472,98l33,33 40,5 17,36M2326,121l-22,20M2258,133l36,-40M2401,540l1,4 -1,4h-50l-23,22 -19,65 -46,-13 -44,5v-28l-28,-35M2201,502l-10,62 -40,25 -76,-64 6,-34 44,-28 36,11 8,-19 24,18 8,29 42,-2 61,14 22,-8 23,-37M1745,253l52,-5 18,-12 85,-26 12,50 -5,37 3,59 -13,15 -42,-13 -22,30 10,28 -3,58 -36,3 13,-48 -40,-54 10,-33 -12,-38 -50,-39M2171,449l33,15 9,-31 30,-7 16,-28M2151,589l-66,40 -24,37 -30,-27 -18,5 -66,-11 -7,-52 12,-21 -12,-23 15,-36 -32,-41 39,17 48,-13M2140,372l46,-12 30,-29M2038,377l-40,-43 7,-25 15,-50 33,-45 23,1 37,18 13,30 -11,74 -32,29M2204,89l-54,13 6,78 -20,14h-41l1,-64 -18,-21 3,-32M1804,166l15,27 -4,43M1270,746l23,-48 3,-54 92,10 25,34 5,56M2401,548l-44,59 9,36M2214,734v-65l32,-16 17,-31M1527,513l10,27 -10,34 5,62 14,-22 18,15 8,35 -26,23M2332,135l14,37 -12,23 20,10 -12,42 17,12 7,45M2564,338l-37,34 -3,19h-24l-28,27M2437,294l63,-7 34,21M1527,269l-68,3 2,-26M1052,489l58,-9 30,15 -5,30 13,23 -26,3M1298,59l-10,50 40,40 -15,21 31,11 -19,22 -89,-24 -21,2 -35,-86M1804,477l-5,13 -7,1 -57,-22 -40,25 -21,-12 -4,-30 27,-41 7,-41 21,11 10,-56 40,-21M2644,358l-20,43 -32,26 -40,75 -7,-69 -21,-42M1113,613l50,-13 103,18 30,26M1459,272l-1,102 11,17M1426,744l20,-14 23,-82 -8,-22 25,-56 -8,-30 16,-25 -36,-48h-12l-33,-20 -42,-2 -18,-58 6,-25 -1,-64 18,-82M1371,445l-96,-25 -50,25v-22l-42,-33 -3,-20 -32,-11M1201,315l25,16 47,-2 10,19 38,3 38,11M2664,331l14,3 10,15 -16,42 5,36 -13,33 -22,-2 -10,46 -18,29 -39,-10 -20,8 -3,-29M2866,220l-20,41 -56,54 -25,-11 -7,8 4,-67 -12,-42 17,-13M1930,63l-5,148 -25,-1M1446,467l-23,41 -39,-18 -48,2 -61,9 -84,-42 34,-14M2574,710l-39,-15 -13,-40 -22,-1 -21,-45 65,24 86,19 17,18M1215,181l-25,51 13,34 -20,27M1925,211l27,-10 31,9 22,35 15,14M2005,309l-38,40 -57,7M2678,334l15,-22 34,-5 21,18 14,20 41,15 24,-9 23,15 -4,22 35,10 -5,20M2782,461l-32,-10 7,-18 -40,-14 -40,8M2126,263l75,-4 12,21M1923,460l-71,15 -23,16 -30,-1M2402,544l47,18 3,26 27,21M1619,519l22,51 -14,48v79l-13,18M1792,491l-12,47 17,24 7,83 15,40 -10,34M1649,491l25,-9M1371,217l-27,-36M2758,312l-10,13M1266,618l-1,-65 16,-31 -6,-21M1336,492l10,23 -2,53 24,64 20,22M1140,495l18,-31 33,-5M2555,531l-21,39 -42,-7 -40,25M2076,215l19,-21M2156,180l23,-9 45,16M2414,285l10,-29 -3,-45 43,-13M2005,245l35,-133 -2,-46M1940,581l-28,1 -60,-18 -19,13 -13,-30 9,-56M2614,533l99,62M2765,304l18,29 25,10 28,-26 15,14 24,-14 35,2M1947,633l5,31 -37,45M2053,714l8,-48M1458,467l-12,-61 23,-15M1469,391l17,3 26,-29 27,31 80,12 15,37 22,20 -7,26M1649,491l-8,29 -22,-1M1619,519l-27,1 -20,22 -20,-2 -25,-27M1527,513l-33,2"/>
  <g class="cities">
    <circle r="3" cx="233.6" cy="8.8"/>
    <text x="233.6" y="8.8">San Juan</text>
    <circle r="3" cx="171.8" cy="67.3"/>
    <text x="171.8" y="67.3">Ponce</text>
    <circle r="3" cx="107.7" cy="42.8"/>
    <text x="107.7" y="42.8">Mayagüez</text>
  </g>
</svg>