<?xml version="1.0" encoding="utf-8"?>
<!DOCTYPE svg PUBLIC "-//W3C//DTD SVG 1.1//EN" "http://www.w3.org/Graphics/SVG/1.1/DTD/svg11.dtd">
<svg version="1.1" xmlns="http://www.w3.org/2000/svg" width="350" height="86" viewBox="0 0 350 86">
  <defs>
    <pattern id="pattern-no-results" width="50" height="50" patternUnits="userSpaceOnUse">
      <rect width="50" height="50" fill="#ddd"/>
      <path d="M-5,5L5,-5M-5,55L55,-5M45,55L55,45" stroke-width="10" stroke="#666666"/>
    </pattern>
  </defs>
  <g class="counties" transform="scale(0.1)">
    <path data-fips-int="72001" data-name="Adjuntas Municipio" d="M1649,491l-32,28 -65,21 -25,-27 -33,2 -26,-22 -10,-26 -7,-73 17,-3 28,-17 43,22 82,12 35,53Z"/>
    <path data-fips-int="72003" data-name="Aguada Municipio" d="M1087,186l3,92 -65,6 -56,-66 -12,-14 98,-51Z"/>
    <path data-fips-int="72005" data-name="Aguadilla Municipio" d="M1180,95l-52,30 -41,61 -32,-33 -7,-93 75,-32 53,42Z"/>
    <path data-fips-int="72007" data-name="Aguas Buenas Municipio" d="M2321,416l-20,15 -42,-33 -26,-44 56,-27 43,3 34,-26 18,-7 -37,104Z"/>
    <path data-fips-int="72009" data-name="Aibonito Municipio" d="M2201,502l-10,62 -40,25 -76,-64 6,-34 88,-36Z"/>
    <path data-fips-int="72011" data-name="Añasco Municipio" d="M1183,293l18,22 -3,22 -50,22 -50,15 -23,-36 -55,5 -46,-39 51,-20 65,-6Z"/>
    <path data-fips-int="72013" data-name="Arecibo Municipio" d="M1749,187l-4,66 -20,12 -134,16 -22,-43 -42,31 7,-203 67,16 45,-23 104,6 9,22Z"/>
    <path data-fips-int="72015" data-name="Arroyo Municipio" d="M2442,712l-35,33 -26,-18 -32,-70 17,-14 30,-9Z"/>
    <path data-fips-int="72017" data-name="Barceloneta Municipio" d="M1814,71l15,60 -25,35 -25,-10 -30,31 10,-100 -9,-22Z"/>
    <path data-fips-int="72019" data-name="Barranquitas Municipio" d="M2171,449l-2,6 -88,36 -71,-27 23,-24 5,-63 7,1 38,-12 57,6 5,77Z"/>
    <path data-fips-int="72021" data-name="Bayamón Municipio" d="M2304,141l15,56 -20,-2 4,90 -14,42 -56,27 -17,-23 -3,-51 11,-93 -1,-33 35,-21 20,12Z"/>
    <path data-fips-int="72023" data-name="Cabo Rojo Municipio" d="M1052,489l70,62 -9,62 0,141 -80,-24 -46,15 5,-56 46,-35 -46,-15 10,-71 21,-16 5,-82Z"/>
    <path data-fips-int="72025" data-name="Caguas Municipio" d="M2437,294l17,36 -7,64 25,24 -33,55 -17,59 -21,8 -52,-71 -28,-53 26,-15 37,-104 17,0 13,-12Z"/>
    <path data-fips-int="72027" data-name="Camuy Municipio" d="M1446,61l32,129 -19,56 -81,-30 -7,1 -3,-151Z"/>
    <path data-fips-int="72029" data-name="Canóvanas Municipio" d="M2625,200l0,108 39,23 -20,27 -80,-20 18,-63 -20,-103 60,-12Z"/>
    <path data-fips-int="72031" data-name="Carolina Municipio" d="M2562,172l20,103 -18,63 -30,-30 5,-20 -75,-90 8,-35 -45,-25 -8,-30 53,-10 32,33 41,5Z"/>
    <path data-fips-int="72033" data-name="Cataño Municipio" d="M2326,121l-22,20 -26,4 -20,-12 36,-40Z"/>
    <path data-fips-int="72035" data-name="Cayey Municipio" d="M2401,540l1,4 -1,4 -50,0 -43,24 11,33 -23,33 -33,-16 -44,5 -28,-63 10,-62 62,12 63,-8 23,-37Z"/>
    <path data-fips-int="72039" data-name="Ciales Municipio" d="M1900,210l7,87 3,59 -55,2 -22,30 7,86 -36,3 13,-48 -40,-54 7,-37 -9,-34 -50,-39 20,-12 70,-17Z"/>
    <path data-fips-int="72041" data-name="Cidra Municipio" d="M2321,416l28,53 -23,37 -63,8 -62,-12 -32,-47 2,-6 33,15 9,-31 46,-35 42,33Z"/>
    <path data-fips-int="72043" data-name="Coamo Municipio" d="M2010,464l71,27 -6,34 76,64 -66,40 -24,37 -30,-27 -84,-6 -7,-52 15,-80 -32,-41 39,17Z"/>
    <path data-fips-int="72045" data-name="Comerío Municipio" d="M2233,354l26,44 -46,35 -9,31 -33,-15 -26,0 -5,-77 46,-12 30,-29Z"/>
    <path data-fips-int="72047" data-name="Corozal Municipio" d="M2126,263l-21,93 -22,10 -38,12 -7,-1 -40,-43 7,-25 15,-50 33,-45 23,1Z"/>
    <path data-fips-int="72051" data-name="Dorado Municipio" d="M2156,180l-61,14 1,-64 -15,-53 55,-6 68,18 -54,13Z"/>
    <path data-fips-int="72054" data-name="Florida Municipio" d="M1804,166l11,70 -70,17 4,-66 30,-31Z"/>
    <path data-fips-int="72055" data-name="Guánica Municipio" d="M1418,744l-75,29 -45,0 -28,-27 23,-48 2,-54 93,10 23,34Z"/>
    <path data-fips-int="72057" data-name="Guayama Municipio" d="M2401,548l-44,59 9,36 -17,14 32,70 -105,51 -70,-19 47,-7 -39,-18 0,-65 49,-47 33,16 23,-33 -11,-33 43,-24Z"/>
    <path data-fips-int="72059" data-name="Guayanilla Municipio" d="M1527,513l12,107 32,44 -25,23 -55,9 13,27 -78,21 20,-14 22,-82 -9,-22 29,-56 6,-55Z"/>
    <path data-fips-int="72061" data-name="Guaynabo Municipio" d="M2332,135l22,70 -12,42 24,57 -34,26 -43,-3 14,-42 -4,-90 20,2 -15,-56 22,-20Z"/>
    <path data-fips-int="72063" data-name="Gurabo Municipio" d="M2534,308l30,30 -34,47 -6,6 -52,27 -25,-24 7,-64 -17,-36 67,-7Z"/>
    <path data-fips-int="72065" data-name="Hatillo Municipio" d="M1534,66l-7,203 -68,3 0,-26 19,-56 -32,-129Z"/>
    <path data-fips-int="72067" data-name="Hormigueros Municipio" d="M1140,495l8,53 -26,3 -70,-62 76,-7Z"/>
    <path data-fips-int="72071" data-name="Isabela Municipio" d="M1300,59l-12,50 58,72 -21,22 -110,-22 -35,-86 -4,-25 -53,-42 100,2Z"/>
    <path data-fips-int="72073" data-name="Jayuya Municipio" d="M1775,304l9,34 -7,37 40,54 -13,48 -5,13 -7,1 -57,-22 -61,13 30,-112 21,11 12,-59Z"/>
    <path data-fips-int="72077" data-name="Juncos Municipio" d="M2552,502l-7,-69 -21,-42 6,-6 34,-47 80,20 -52,69Z"/>
    <path data-fips-int="72079" data-name="Lajas Municipio" d="M1266,618l29,26 -2,54 -23,48 -54,-24 -51,-3 -52,35 0,-141 50,-13Z"/>
    <path data-fips-int="72081" data-name="Lares Municipio" d="M1459,246l0,26 -1,102 10,17 -17,3 7,73 -12,0 -75,-22 -13,-83 -2,-64 22,-82Z"/>
    <path data-fips-int="72083" data-name="Las Marías Municipio" d="M1358,362l13,83 -96,-25 -50,25 0,-22 -77,-64 50,-22 3,-22 24,16 96,20 13,6Z"/>
    <path data-fips-int="72085" data-name="Las Piedras Municipio" d="M2675,427l-33,31 -28,75 -59,-2 -3,-29 40,-75 52,-69 20,-27 14,3Z"/>
    <path data-fips-int="72087" data-name="Loíza Municipio" d="M2672,142l-47,58 -3,-40 -60,12 -17,-36 -41,-5 -32,-33 82,17 26,-11Z"/>
    <path data-fips-int="72089" data-name="Luquillo Municipio" d="M2865,220l-19,41 -56,54 -25,-11 -7,8 10,-43 -18,-40 17,-39Z"/>
    <path data-fips-int="72091" data-name="Manatí Municipio" d="M1925,211l-25,-1 -85,26 -11,-70 25,-35 -15,-60 81,14 35,-22Z"/>
    <path data-fips-int="72093" data-name="Maricao Municipio" d="M1371,445l75,22 -23,41 -87,-16 -61,9 -84,-42 34,-14 50,-25Z"/>
    <path data-fips-int="72095" data-name="Maunabo Municipio" d="M2647,670l-72,40 -40,-15 -56,-86 66,29 82,13Z"/>
    <path data-fips-int="72099" data-name="Moca Municipio" d="M1215,181l-25,51 13,34 -20,27 -93,-15 -3,-92 41,-61 52,-30Z"/>
    <path data-fips-int="72101" data-name="Morovis Municipio" d="M2005,245l15,14 -15,50 -38,40 -57,7 -3,-59 -7,-87 25,1 58,-1Z"/>
    <path data-fips-int="72103" data-name="Naguabo Municipio" d="M2748,325l44,35 35,-9 49,67 -94,43 -65,-42 -42,8 3,-93 49,-27Z"/>
    <path data-fips-int="72105" data-name="Naranjito Municipio" d="M2213,280l3,51 -30,29 -46,12 -57,-6 22,-10 21,-93 75,-4Z"/>
    <path data-fips-int="72107" data-name="Orocovis Municipio" d="M2038,377l-5,63 -23,24 -48,13 -39,-17 -94,31 -30,-1 5,-13 36,-3 -7,-86 22,-30 55,-2 57,-7 38,-40 -7,25Z"/>
    <path data-fips-int="72109" data-name="Patillas Municipio" d="M2452,588l27,21 56,86 40,15 -81,17 -52,-15 -46,-78 -30,9 -9,-36 44,-59 1,-4 40,11Z"/>
    <path data-fips-int="72111" data-name="Peñuelas Municipio" d="M1617,519l24,51 -15,48 3,79 -15,18 -68,-28 25,-23 -32,-44 -12,-107 25,27Z"/>
    <path data-fips-int="72113" data-name="Ponce Municipio" d="M1792,491l-12,47 17,24 12,157 -92,14 -22,-25 -49,21 -32,-14 15,-18 -3,-79 15,-48 -24,-51 32,-28 25,-9 61,-13Z"/>
    <path data-fips-int="72115" data-name="Quebradillas Municipio" d="M1368,66l3,151 -25,-36 -58,-72 12,-50Z"/>
    <path data-fips-int="72117" data-name="Rincón Municipio" d="M969,218l56,66 -51,20 -57,-84 40,-16Z"/>
    <path data-fips-int="72119" data-name="Río Grande Municipio" d="M2767,190l-17,39 18,40 -10,43 -10,13 -21,-18 -49,27 -14,-3 -39,-23 0,-108 47,-58 40,22 25,-11Z"/>
    <path data-fips-int="72121" data-name="Sabana Grande Municipio" d="M1388,654l-93,-10 -29,-26 9,-117 61,-9 10,77Z"/>
    <path data-fips-int="72125" data-name="San Germán Municipio" d="M1191,459l84,42 -9,117 -103,-18 -50,13 9,-62 26,-3 -8,-53Z"/>
    <path data-fips-int="72129" data-name="San Lorenzo Municipio" d="M2524,391l21,42 7,69 3,29 -21,39 -43,-6 -39,24 -10,-33 -40,-11 -1,-4 21,-8 17,-59 33,-55Z"/>
    <path data-fips-int="72131" data-name="San Sebastián Municipio" d="M1346,181l25,36 7,-1 -22,82 2,64 -24,-5 -13,-6 -96,-20 -24,-16 -18,-22 20,-27 -13,-34 25,-51 110,22Z"/>
    <path data-fips-int="72135" data-name="Toa Alta Municipio" d="M2224,187l-11,93 -12,-21 -75,4 -50,-48 19,-21 61,-14 7,-1Z"/>
    <path data-fips-int="72137" data-name="Toa Baja Municipio" d="M2258,133l-35,21 1,33 -61,-8 -7,1 -6,-78 54,-13 64,21 26,-17Z"/>
    <path data-fips-int="72139" data-name="Trujillo Alto Municipio" d="M2534,308l-30,-21 -67,7 -23,-9 7,-74 43,-13 75,90Z"/>
    <path data-fips-int="72141" data-name="Utuado Municipio" d="M1775,304l-38,18 -12,59 -21,-11 -30,112 -25,9 7,-30 -35,-53 -82,-12 -43,-22 -28,17 -10,-17 1,-102 68,-3 42,-31 22,43 134,-16Z"/>
    <path data-fips-int="72143" data-name="Vega Alta Municipio" d="M2081,77l15,53 -1,64 -19,21 -23,-1 -33,45 -15,-14 35,-133 -2,-46Z"/>
    <path data-fips-int="72145" data-name="Vega Baja Municipio" d="M2038,66l2,46 -35,133 -22,-35 -58,1 5,-148Z"/>
    <path data-fips-int="72149" data-name="Villalba Municipio" d="M1923,460l32,41 -15,80 -120,-24 9,-66Z"/>
    <path data-fips-int="72151" data-name="Yabucoa Municipio" d="M2713,595l-43,25 -23,50 -20,-19 -82,-13 -66,-29 -27,-21 39,-24 43,6 21,-39 59,2 26,1 33,43Z"/>
    <path data-fips-int="72153" data-name="Yauco Municipio" d="M1468,493l26,22 -6,55 -29,56 9,22 -22,82 -20,14 -8,0 -7,-56 -23,-34 -42,-85 -10,-77 87,16 23,-41 12,0Z"/>
    <path data-fips-int="72037" data-name="Ceiba Municipio" d="M2910,319l1,23 54,46 -24,26 -65,4 -49,-67 -35,9 -44,-35 10,-13 7,-8 45,39 26,-26Z"/>
    <path data-fips-int="72049" data-name="Culebra Municipio" d="M3292,259l83,13 -5,32Z"/>
    <path data-fips-int="72053" data-name="Fajardo Municipio" d="M2910,319l-74,-2 -26,26 -45,-39 25,11 56,-54 19,-41 68,-28 -27,50Z"/>
    <path data-fips-int="72069" data-name="Humacao Municipio" d="M2782,461l-47,59 -22,75 -40,-18 -33,-43 -26,-1 28,-75 33,-31 42,-8Z"/>
    <path data-fips-int="72075" data-name="Juana Díaz Municipio" d="M1829,491l-9,66 120,24 7,52 5,31 -37,45 -58,-8 -48,18 -12,-157 -17,-24 12,-47 7,-1Z"/>
    <path data-fips-int="72097" data-name="Mayagüez Municipio" d="M207,535l11,26 -31,43 -35,9 -60,-39 47,-47ZM1148,359l77,64 0,22 -34,14 -51,36 -12,-13 -76,7 -24,-19 34,-43 -42,-84 55,-5 23,36Z"/>
    <path data-fips-int="72123" data-name="Salinas Municipio" d="M2263,622l-49,47 0,65 -46,40 -57,-17 -58,-43 8,-48 24,-37 66,-40 40,-25 28,63Z"/>
    <path data-fips-int="72133" data-name="Santa Isabel Municipio" d="M2061,666l-8,48 -58,49 -80,-54 37,-45 -5,-31 84,6Z"/>
    <path data-fips-int="72147" data-name="Vieques Municipio" d="M3207,476l143,37 -128,27 -68,4 -16,28 -39,-13 -80,19 -39,-47 41,-2 130,-49Z"/>
    <path data-fips-int="72127" data-name="San Juan County" d="M2419,108l8,30 45,25 -8,35 -43,13 -7,74 -13,12 -17,0 -18,7 -24,-57 12,-42 -22,-70 32,-19 -51,-31Z"/>
  </g>
  <g class="cities">
    <circle r="3" cx="233.6" cy="8.8"/>
    <text x="233.6" y="8.8">San Juan</text>
    <circle r="3" cx="227.5" cy="17.5"/>
    <text x="227.5" y="17.5">Bayamón</text>
    <circle r="3" cx="251.6" cy="19.7"/>
    <text x="251.6" y="19.7">Carolina</text>
  </g>
</svg>