<?xml version="1.0" encoding="utf-8"?>
<!DOCTYPE svg PUBLIC "-//W3C//DTD SVG 1.1//EN" "http://www.w3.org/Graphics/SVG/1.1/DTD/svg11.dtd">
<svg version="1.1" xmlns="http://www.w3.org/2000/svg" width="660" height="1000" viewBox="0 0 660 1000">
  <path class="state" d="M421,302l5,18 6,4 -10,11 13,15 13,4 -7,4 2,24 -5,3 -3,17 -5,6 -8,-6v-21l-3,8 -6,-1 -2,-10 -4,11 -28,-4 -7,-10 5,25v15l-6,8 1,6 7,-10 2,-9 12,-6 13,9 -17,13 12,-4 6,4 4,26 -13,5 14,6 -10,8v6l9,2v12l-23,9 -6,6 -1,-9 -6,8 -1,-11 -6,6 13,11 1,12 9,5 -5,9 7,3 8,18v18l-5,14 3,19 -1,14 -9,2 4,11 -5,13 -14,7 -6,8 3,24 -9,15 -6,5 -11,21 4,13 -15,-11 -12,-5 2,-12 9,-22v-11l-6,1 -10,34 3,11 -13,-3 -15,2 -31,8 -10,5 -20,2 -12,5 -22,7 -23,9 -19,13 -13,-1 -15,7 -12,-5 -15,3 -42,12 -19,11 -8,-4 -15,3 1,-4 21,-3 10,-18 15,-14 -7,-24 7,-17 -10,-14 1,-22 17,-8 18,4 1,-25 4,-88 3,-84 1,-47 -1,-88v-4l-1,-55 -2,-45 -2,-88 -2,-26v-96l22,-1h30l41,-3h30l27,-2h64l25,-4 99,-1v111l-2,16 2,10 35,-5 -2,34 4,6 -5,18 2,12 -5,12 6,15 -1,12 8,11 1,8 9,5 46,26 28,42v7l-12,9 -1,-19 -17,-8 14,25 9,24 -1,12 -12,4 -7,23 -6,-2v-17l-8,-7 -1,-14 -8,-1 1,10 -8,11 -1,13 -4,-6 -2,-18 4,-11 7,-7 2,-27 4,-3 -2,-25 8,3 -4,-25 -5,3 1,15 -5,9 -5,-11 -15,-7 4,7 10,4 11,13 -4,13 -5,-5 -1,14 -6,-4 -1,-11 -25,-4 -1,-9 -9,-12v-8l-14,-15 2,-5 -7,-25 -4,-2 -10,-20 11,-7 5,-11 2,-24 -8,-7 -1,31 -8,14h-10l4,16 15,14 -9,10 5,18ZM635,524l7,68 -12,2 -5,5 1,9 -8,7 -15,5 -2,12 -17,4v-31l-12,-16 4,-17 -7,-14 3,-16 -7,-3 -4,-17 7,4 2,-25 -4,-4 7,-14 -5,-7 -5,-24 9,-36 9,-17 15,3 -1,4 36,8 -2,36 -4,4v17l7,17ZM562,439l-8,1 -8,10 15,5 -17,5 -2,37 6,9 -2,16 3,9 -2,20 7,11 -15,33 1,10h6l-2,11 -6,3 1,-10 -15,-7 -8,9 -12,-9 -6,4v17l-6,16 -6,4 -9,-10 -12,11 -5,-4 -10,5 -5,-15 16,-13 5,-8v14l16,-10 -4,-12 -1,-28 -4,-4 13,-3 1,-27 13,-27 8,-6 -2,-14 11,-20 -1,-13 11,-8 8,-13h14l8,-11ZM464,424l2,6 -6,7 12,9 10,1 10,16v11l-8,20 -11,10 -6,-8 -2,-9 10,-32 -7,-6 -15,-6 -1,-14 8,-6 -6,-7 4,-7ZM443,600l5,14 -14,4 -4,-14h-4l3,21 -7,3v12l-8,5v-14l4,-4 -4,-29 14,2 3,-17 -10,-10 -1,-7 6,-18v-19l7,-17 11,1 2,24 -3,8 2,19 -4,9 7,6 -6,11ZM276,890l6,1 6,12 -10,23 2,17 7,2 8,10 -4,14 -14,4 -27,1 -10,-13 6,-24 10,-10v-9l9,18 8,2 2,-10 -6,-21 1,-21Z"/>
  <g class="counties">
    <path data-fips-int="44003" data-name="Kent County" d="M421,302l5,18 6,4 -10,11 13,15 13,4 -7,4 2,24 -5,3 -3,17 -5,6 -8,-6v-21l-3,8 -6,-1 -2,-10 -4,11 -28,-4 -7,-10 5,25v15l-6,8 1,6 7,-10 2,-9 12,-6 13,9 -17,13 -7,3 -12,19 -6,-9 -17,16 -3,22h-39l-36,3h-55l-4,2h-80l-33,2 1,-47 -1,-88v-4l40,-2 81,-1 59,-3h35l47,-2 18,-8 -1,-10 6,-12 16,-2 16,-8Z"/>
    <path data-fips-int="44007" data-name="Providence County" d="M480,289l-27,26 -14,-15 2,-5 -7,-25 -4,-2 -10,-20 11,-7 5,-11 2,-24 -8,-7 -1,31 -8,14h-10l4,16 15,14 -9,10 5,18h-5l-7,-5 -16,8 -16,2 -6,12 1,10 -18,8 -47,2h-35l-59,3 -81,1 -40,2 -1,-55 -2,-45 -2,-88 -2,-26v-96l22,-1h30l41,-3h30l27,-2h64l25,-4 99,-1v111l-2,16 2,10 35,-5 -2,34 4,6 -5,18 2,12 -5,12 6,15 -1,12 8,11 1,8Z"/>
    <path data-fips-int="44001" data-name="Bristol County" d="M453,315l27,-26 46,26 28,42v7l-12,9 -1,-19 -17,-8 14,25 9,24 -1,12 -12,4 -7,23 -6,-2v-17l-8,-7 -1,-14 -8,-1 1,10 -8,11 -1,13 -4,-6 -2,-18 4,-11 7,-7 2,-27 4,-3 -2,-25 8,3 -4,-25 -5,3 1,15 -5,9 -5,-11 -15,-7 4,7 10,4 11,13 -4,13 -5,-5 -1,14 -6,-4 -1,-11 -25,-4 -1,-9 -9,-12Z"/>
    <path data-fips-int="44005" data-name="Newport County" d="M635,524l7,68 -12,2 -5,5 1,9 -8,7 -15,5 -2,12 -17,4v-31l-12,-16 4,-17 -7,-14 3,-16 -7,-3 -4,-17 7,4 2,-25 -4,-4 7,-14 -5,-7 -5,-24 9,-36 9,-17 15,3 -1,4 36,8 -2,36 -4,4v17l7,17ZM562,439l-8,1 -8,10 15,5 -17,5 -2,37 6,9 -2,16 3,9 -2,20 7,11 -15,33 1,10h6l-2,11 -6,3 1,-10 -15,-7 -8,9 -12,-9 -6,4v17l-6,16 -6,4 -9,-10 -12,11 -5,-4 -10,5 -5,-15 16,-13 5,-8v14l16,-10 -4,-12 -1,-28 -4,-4 13,-3 1,-27 13,-27 8,-6 -2,-14 11,-20 -1,-13 11,-8 8,-13h14l8,-11ZM464,424l2,6 -6,7 12,9 10,1 10,16v11l-8,20 -11,10 -6,-8 -2,-9 10,-32 -7,-6 -15,-6 -1,-14 8,-6 -6,-7 4,-7ZM443,600l5,14 -14,4 -4,-14h-4l3,21 -7,3v12l-8,5v-14l4,-4 -4,-29 14,2 3,-17 -10,-10 -1,-7 6,-18v-19l7,-17 11,1 2,24 -3,8 2,19 -4,9 7,6 -6,11Z"/>
    <path data-fips-int="44009" data-name="Washington County" d="M97,484l33,-2h80l4,-2h55l36,-3h39l3,-22 17,-16 6,9 12,-19 7,-3 12,-4 6,4 4,26 -13,5 14,6 -10,8v6l9,2v12l-23,9 -6,6 -1,-9 -6,8 -1,-11 -6,6 13,11 1,12 9,5 -5,9 7,3 8,18v18l-5,14 3,19 -1,14 -9,2 4,11 -5,13 -14,7 -6,8 3,24 -9,15 -6,5 -11,21 4,13 -15,-11 -12,-5 2,-12 9,-22v-11l-6,1 -10,34 3,11 -13,-3 -15,2 -31,8 -10,5 -20,2 -12,5 -22,7 -23,9 -19,13 -13,-1 -15,7 -12,-5 -15,3 -42,12 -19,11 -8,-4 -15,3 1,-4 21,-3 10,-18 15,-14 -7,-24 7,-17 -10,-14 1,-22 17,-8 18,4 1,-25 4,-88ZM276,890l6,1 6,12 -10,23 2,17 7,2 8,10 -4,14 -14,4 -27,1 -10,-13 6,-24 10,-10v-9l9,18 8,2 2,-10 -6,-21 1,-21Z"/>
  </g>
  <path class="mesh" d="M389,426l-7,3 -12,19 -6,-9 -17,16 -3,22h-39l-36,3h-55l-4,2h-80l-33,2M97,345l40,-2 81,-1 59,-3h35l47,-2 18,-8 -1,-10 6,-12 16,-2 16,-8 7,5M480,289l-27,26"/>
  <g class="cities">
    <circle r="7" cx="404" cy="237"/>
    <text x="404" y="237">Providence</text>
    <circle r="7" cx="401" cy="372"/>
    <text x="401" y="372">Warwick</text>
    <circle r="7" cx="321" cy="42"/>
    <text x="321" y="42">Woonsocket</text>
  </g>
</svg>