<?xml version="1.0" encoding="utf-8"?>
<!DOCTYPE svg PUBLIC "-//W3C//DTD SVG 1.1//EN" "http://www.w3.org/Graphics/SVG/1.1/DTD/svg11.dtd">
<svg version="1.1" xmlns="http://www.w3.org/2000/svg" width="660" height="1000" viewBox="0 0 660 1000">
  <path class="state" d="M421,302l5,18 6,4 -10,11 13,15 13,4 -7,4 2,24 -5,3 -3,17 -5,6 -8,-6v-21l-3,8 -6,-1 -2,-10 -4,11 -28,-4 -7,-10 5,25v12l-6,11v6l8,-10 2,-9 12,-6 13,9 -17,13 12,-4 6,4 4,26 -13,5 14,6 -10,8v6l9,2v12l-23,9 -6,6 -1,-9 -6,8 -1,-11 -6,6 13,11 1,12 9,5 -5,9 7,3 8,18 -2,25 -1,4 -2,7 3,23 -10,8 4,11 -5,13 -14,7 -6,8 3,24 -9,15 -6,5 -11,21 4,13 -27,-17 2,-11 9,-22v-11l-2,-4 -11,26 -2,14 1,4 -5,3 -12,4 -10,-2 -31,8 -10,5 -20,2 -3,1 -9,4 -22,7 -23,9 -19,13 -3,-2 -10,1 -15,7 -12,-5 -15,3 -42,12 -19,11 -8,-4 -15,3 1,-4 21,-3 10,-18 15,-14 -2,-10v-2l-3,-1 -2,-5v-6l4,-6 1,-6v-6l-2,-10 -4,-3 -2,-3 1,-19h6l5,-2 3,-2 1,-2 1,-1 19,3v-1l1,-20v-17l3,-55v-6l1,-21v-2l1,-19v-27l2,-21v-23l1,-9v-84l-1,-3v-54l-1,-4v-25l-1,-3v-39l-1,-4v-16l-1,-9v-31l-1,-8v-11l-1,-22v-11l-1,-7v-94l23,-1h4l66,-3h30l32,-2h54l9,-2h10l2,-1 17,-1h7l22,-1h62v108l-1,22v4l1,1v2l9,-1h4l1,-1h5l1,-1h5l1,-1h5l4,-1v6l-1,2v16l2,16h1l-3,14 -2,7 2,9 -4,7 2,13 2,5v1l1,1 -1,5v4l1,5 5,5v2l2,2v6l1,2 9,5 7,4 3,2 17,9 19,11 28,42v7l-12,9 -1,-19 -17,-8 4,8 10,17 9,24 -1,12 -12,4 -7,23 -6,-2v-17l-8,-7 -1,-14 -8,-1 1,10 -8,11 -1,13 -4,-6 -2,-18 4,-11 7,-7 1,-24 1,-3 4,-3 -2,-25 8,3 -5,-25h-3v18l-5,9 -5,-11 -15,-7 4,7 10,4 11,13 -4,13 -5,-5 -1,14 -6,-4 -1,-11 -25,-4 -1,-9 -9,-12v-8l-3,6 -11,-21 2,-5 -3,-13v-2l-1,-4 -2,-2 -3,-5 -2,-1 -10,-20 11,-7 5,-11 2,-24 -5,-7h-3v5l-4,15 3,11 -8,14h-10l4,16 15,14 -3,5 -6,5 3,18h-2ZM636,527v6l1,9 3,24v11l1,4v2l1,6 -2,3 -15,7 1,9 -8,7 -15,5 -2,12 -17,4v-31l-12,-16 4,-17 -7,-14 3,-16 -5,-2 -2,-1 -4,-17 7,4 2,-25 -4,-4 7,-14 -5,-7 -5,-24 9,-36 9,-17h3l7,2 3,1 1,4 19,5h2l15,3v4l-1,3v16l-1,13 -2,2 -2,2v20l1,1 6,13 1,11 2,14v10ZM550,573l-1,2 -2,4 -1,3 -2,3v2l-1,2 -1,3 -3,3 -1,3 -1,2 1,3 2,2 2,1h2l2,4 -1,3 -1,3 -2,1 -1,1 -3,1v-3l2,-4 -4,-5 -3,-2 -3,-1 -2,-1 -4,-1 -3,2 -1,3 -1,2 -3,2 -2,-1v-2l-2,-2 -2,-2 -3,-2 -2,1 -5,1 -2,2 1,3 -1,5v9l-1,3h-3l-1,2v3l1,2 -2,3v3l-1,2 -3,2h-2l-9,-10 -12,10v1l-2,-2 -1,-1 -2,-1 -2,2h-2l-1,1 -2,2h-3l-1,-3 -1,-5 -1,-3 -2,-1v-3l2,-1 3,-3 3,-3 3,-1 2,-2 2,-2 1,-1 1,-2 1,-2 1,-3 2,-1v14l16,-10 -4,-12 -1,-28 -4,-4v-2l4,-1 1,2h2l3,-1 3,-1 1,-27 7,-15 1,-4 13,-14 -2,-14 11,-20 -1,-13 11,-8 8,-13h14l8,-11 5,6 -2,12 -6,-5 -8,10 15,5 -17,5 -2,37 6,9 -2,16 3,9 -2,20 7,11ZM464,424l2,6 -6,7 12,9 10,1 10,16v11l-8,20 -11,10 -6,-8 -2,-9 10,-32 -7,-6 -15,-6 -1,-14 8,-6 -6,-7 4,-7ZM443,600l5,14 -14,4 -4,-14h-4l3,21 -7,3v12l-8,5v-14l4,-4 -4,-29 14,2 3,-17 -10,-10 -1,-7 6,-18v-19l7,-17 11,1 2,24 -3,8 2,19 -4,9 7,6 -6,11ZM276,890l6,1 6,12 -10,23 2,17 7,2 8,10 -4,14 -14,4 -27,1 -10,-13 6,-24 10,-10v-9l9,18 8,2 2,-10 -6,-21 1,-21Z"/>
  <g class="subcounties">
    <path data-geo-id="4400925300" data-name="Exeter" d="M95,534v-21l2,-21v-8h10l1,-1h12l10,-1h77l9,-2h53l3,-1h24l12,-2h6l3,10v70l9,33 -17,-3 -43,-16 -26,-8 -6,-43 -77,10 -62,10Z"/>
    <path data-geo-id="4400914500" data-name="Charlestown" d="M154,667l9,-7 3,4 15,-3 11,-29 14,2 5,11 25,3 7,-6 12,6 -26,94h-1l-9,4 -22,7 -23,9 -19,13 -3,-2 -7,1 -1,-73 6,-7 -5,-14 3,-11Z"/>
    <path data-geo-id="4400570880" data-name="Tiverton" d="M581,399h3l7,2 3,1 1,4 19,5h2l15,3v4l-1,3v16l-1,13 -2,2 -2,2v20l1,1 6,13 1,11 2,14v7l-69,20 -1,-1 -4,-17 7,4 2,-25 -4,-4 7,-14 -5,-7 -5,-24 9,-36 9,-17Z"/>
    <path data-geo-id="4400545460" data-name="Middletown" d="M495,522l9,9 26,23 20,19 -1,1 -2,4v2h-1v2l-2,3v3l-1,2h-1v2l-1,1 -2,2v1l-1,3v1h-1l3,5h1l1,1h2l2,4v1l-1,1v1l-1,1v2h-1l-1,1 -1,1 -3,1v-4h1v-1l1,-2 -4,-5v-1l-3,-1 -2,-1 -2,-1h-1l-7,1 -1,2v2h-1l-2,3h-1l-2,-1v-2l-1,-1 -1,-1 -2,-2 -2,-2h-1l-13,-18 -8,-18 1,-27 7,-15Z"/>
    <path data-geo-id="4400977000" data-name="Westerly" d="M61,752v-2l-3,-1 -2,-5v-6l4,-6 1,-6v-6l-2,-10 -4,-3 -2,-3 1,-19h6l5,-2 3,-2 1,-2 1,-1 19,3v-1l1,26 10,6 10,-10 3,2 10,-14 21,11 1,73h-3l-15,7 -12,-5 -15,3 -42,12 -19,11 -8,-4 -15,3 1,-4 21,-3 10,-18 15,-14Z"/>
    <path data-geo-id="4400754640" data-name="Pawtucket" d="M396,178l14,-3 19,-3 -1,-11 9,-1h4l1,-1h5l1,-1h5l1,-1h5l4,-1v6l-1,2v16l2,16h1l-30,4 -2,-1h-3v1l-24,1 -7,-2Z"/>
    <path data-geo-id="4400759000" data-name="Providence" d="M354,222l32,-26 13,3 7,2 24,-1v4l-4,15 3,11 -8,14h-10l4,16 15,14 -3,5 -16,-1v5l-9,10 -8,-5 3,-10h-10l-8,-23 -17,2 -7,-19 8,-1Z"/>
    <path data-geo-id="4400720080" data-name="Cumberland" d="M366,24h62v108l-1,22v3h-9l-5,-4 3,-12 -25,-12 -2,-12 -10,-15 -15,-10 -3,-13 -19,-11 23,-31Z"/>
    <path data-geo-id="4400737720" data-name="Johnston" d="M336,188l6,11 6,8 3,14 3,1 9,15 -8,1 7,19 -3,7 -10,1 -9,7 -23,4 -12,-5 -21,4 -13,-76Z"/>
    <path data-geo-id="4400752480" data-name="North Smithfield" d="M299,29l9,-2 -8,7 7,23 11,6 24,5 1,35 -3,3 -49,8 -31,3 -14,-88h51Z"/>
    <path data-geo-id="4400967460" data-name="South Kingstown" d="M229,742l26,-94 -12,-6 9,-6 -6,-17 4,-5 -7,-10 2,-17 -5,-24 26,8 43,16 17,3 13,3 29,-2 5,-3 3,13 -4,40 -14,13 -17,10 -8,16 -2,-3 -11,26 -2,14 1,1 -5,6 -12,4 -10,-2 -31,8 -10,5 -20,2Z"/>
    <path data-geo-id="4400318640" data-name="Coventry" d="M97,345h6l10,-1h17l16,-1h19l16,-1h37l3,-1h10l21,-1h24l1,-1h27l1,74h-11l-94,4h-47l-55,2v-43l-1,-3v-27Z"/>
    <path data-geo-id="4400322240" data-name="East Greenwich" d="M305,413l27,-1h45l-6,11v6l-10,3 -2,12h-1l-1,-1v1l-1,1 -1,1 1,4 -7,4v1h-2v1l-1,1 -1,1v1h-1v3l-1,1h-1v4h2v1l1,3v6h-37l-12,2h-1l-1,-66Z"/>
    <path data-geo-id="4400764220" data-name="Scituate" d="M177,201l94,-2 13,76 9,62 2,2h-18l-1,1h-24l-21,1h-10l-3,1h-22l-9,-60Z"/>
    <path data-geo-id="4400780780" data-name="Woonsocket" d="M308,27h10l2,-1 17,-1h7l22,-1 -1,13 -23,31 -24,-5 -11,-6 -7,-23Z"/>
    <path data-geo-id="4400719180" data-name="Cranston" d="M284,275l21,-4 12,5 23,-4 9,-7 10,-1 3,-7 17,-2 8,23h10l-3,10 8,5 9,-10v-5l16,1 -6,5 3,18h-2l-4,-1 -14,-2 -1,4 -20,4 -2,5 -5,8 1,1v3l1,1v3l-1,1h-3l-4,4 -9,3 -2,1h-24l-3,1h-19l-6,1h-12l-2,-2Z"/>
    <path data-geo-id="4400741500" data-name="Lincoln" d="M340,106l3,-3 -1,-35 19,11 3,13 15,10 10,15 2,12 25,12 -3,12 5,4 -9,3 1,15 -14,3 -37,6 -6,-26 -12,-45Z"/>
    <path data-geo-id="4400173760" data-name="Warren" d="M507,308v-4l19,11 28,42v7l-12,9 -1,-19 -17,-8 4,8 1,2 -27,4 1,-2 4,-3 -2,-25 8,3 -5,-25Z"/>
    <path data-geo-id="4400109280" data-name="Bristol" d="M502,360l27,-4 9,15 9,24 -1,12 -12,4 -7,23 -6,-2v-17l-8,-7 -1,-14 -8,-1 1,10 -8,11 -1,13 -4,-6 -2,-18 4,-11 7,-7 1,-24Z"/>
    <path data-geo-id="4400105140" data-name="Barrington" d="M453,315l2,-2 1,-1v-1l2,-1v-1h1l1,-2 3,-2 3,-3 1,-1 1,-1 1,-1 1,-1 2,-2h1l1,-1 1,-1 2,-1v-1l3,-2v-1l7,4 3,2 17,9v4h-2v18l-5,9 -5,-11 -15,-7 4,7 10,4 11,13 -4,13 -5,-5 -1,14 -6,-4 -1,-11 -25,-4 -1,-9 -9,-12Z"/>
    <path data-geo-id="4400549960" data-name="Newport" d="M445,630l2,-1v-1l1,-1 1,-1h1l1,-1 2,-2h2v-1l3,-2 1,-1 1,-1v-1h1l1,-2 1,-2 2,-3 1,-1v14l16,-10 -4,-12 -1,-28 -4,-4v-2l4,-1v1l3,1h2l3,-2h1l8,18 13,18 -2,1 -5,1 -1,1v4l-1,4v10l-1,3h-1l-2,1v1h-1v4l1,1 -1,2 -1,1v4l-1,1h-1v1h-1l-1,1h-2l-9,-10 -12,10v1l-1,-1 -1,-1v-1h-3v-1l-1,1h-1v1h-2l-1,1 -2,1v1h-3v-2l-1,-1v-3l-1,-2v-1l-3,-3v-3Z"/>
    <path data-geo-id="4400542400" data-name="Little Compton" d="M566,540l69,-20v3l1,4v6l1,9 3,24v11l1,4v2l1,6 -2,3 -15,7 1,9 -8,7 -15,5 -2,12 -17,4v-31l-12,-16 4,-17 -7,-14 3,-16 -5,-2Z"/>
    <path data-geo-id="4400536820" data-name="Jamestown" d="M443,600l5,14 -14,4 -4,-14h-4l3,21 -7,3v12l-8,5v-14l4,-4 -4,-29 14,2 3,-17 -10,-10 -1,-7 6,-18v-19l7,-17 11,1 2,24 -3,8 2,19 -4,9 7,6 -6,11Z"/>
    <path data-geo-id="4400557880" data-name="Portsmouth" d="M550,573l-20,-19 -26,-23 -9,-9v-2l13,-14 -2,-14 11,-20 -1,-13 11,-8 8,-13h14l8,-11 5,6 -2,12 -6,-5 -8,10 15,5 -17,5 -2,37 6,9 -2,16 3,9 -2,20 7,11 -4,11ZM464,424l2,6 -6,7 12,9 10,1 10,16v11l-8,20 -11,10 -6,-8 -2,-9 10,-32 -7,-6 -15,-6 -1,-14 8,-6 -6,-7 4,-7Z"/>
    <path data-geo-id="4400950500" data-name="New Shoreham" d="M276,890l6,1 6,12 -10,23 2,17 7,2 8,10 -4,14 -14,4 -27,1 -10,-13 6,-24 10,-10v-9l9,18 8,2 2,-10 -6,-21 1,-21Z"/>
    <path data-geo-id="4400948340" data-name="Narragansett" d="M333,680l8,-16 17,-10 14,-13 4,-40 -3,-13 25,-2v1l-2,7 3,23 -10,8 4,11 -5,13 -14,7 -6,8 3,24 -9,15 -6,5 -11,21 4,13 -27,-17 2,-11 9,-22v-11Z"/>
    <path data-geo-id="4400935380" data-name="Hopkinton" d="M89,680l1,-20v-17l3,-55v-6l1,-21v-2l1,-19 62,-10 5,8 7,-2 4,23 6,2 -14,12 -6,9 -4,3v29l-3,19 7,4 -7,17 2,13 -6,2 -3,11 5,14 -6,7 -21,-11 -10,14 -3,-2 -10,10 -10,-6Z"/>
    <path data-geo-id="4400951580" data-name="North Kingstown" d="M314,477h31v-6l-1,-3v-1h-2v-4h1l1,-1v-3h1v-1l1,-1 1,-1v-1h2v-1l7,-4 -1,-4 1,-1 1,-1v-1l1,1h1v-1h1l1,-1v-1h1v-1l1,-1h1l10,7v-6l3,-5 2,-3 1,-1h1l6,-6 2,1 12,-4 6,4 4,26 -13,5 14,6 -10,8v6l9,2v12l-23,9 -6,6 -1,-9 -6,8 -1,-11 -6,6 13,11 1,12 9,5 -5,9 7,3 8,18 -2,25 -1,3 -25,2 -5,3 -29,2 -13,-3 -9,-33v-70l-3,-10Z"/>
    <path data-geo-id="4400961160" data-name="Richmond" d="M159,637l-7,-4 3,-19v-29l4,-3 6,-9 14,-12 -6,-2 -4,-23 -7,2 -5,-8 77,-10 6,43 5,24 -2,17 7,10 -4,5 6,17 -9,6 -7,6 -25,-3 -5,-11 -14,-2 -11,29 -15,3 -3,-4 -9,7 -2,-13Z"/>
    <path data-geo-id="4400711800" data-name="Burrillville" d="M117,34l66,-3h30l32,-2h1l14,88 -17,2 -74,1 -32,1 -47,1v-87l23,-1Z"/>
    <path data-geo-id="4400714140" data-name="Central Falls" d="M418,157h9v1l1,1v2l1,11 -19,3 -1,-15Z"/>
    <path data-geo-id="4400751760" data-name="North Providence" d="M336,188l23,-4 37,-6 3,21 -13,-3 -32,26 -3,-1 -3,-14 -6,-8 -6,-11Z"/>
    <path data-geo-id="4400766200" data-name="Smithfield" d="M260,117l31,-3 49,-8 1,7 12,45 6,26 -23,4 -65,11Z"/>
    <path data-geo-id="4400722960" data-name="East Providence" d="M435,200l30,-4 -3,14 -2,7 2,9 -4,7 2,13 2,5v1l1,1 -1,5v4l1,5 5,5v2l2,2v6l1,2 9,5v1l-3,2v1l-2,1 -1,1 -1,1h-1l-2,2 -1,1 -1,1 -1,1 -1,1 -3,3 -3,2 -1,2h-1v1l-2,1v1l-1,1 -2,2 -3,6 -11,-21 2,-5 -3,-13v-1l-2,-5 -1,-2 -3,-5 -2,-1 -10,-20 11,-7 5,-11 2,-24Z"/>
    <path data-geo-id="4400727460" data-name="Foster" d="M93,203l84,-2 10,81 9,60h-15l-16,1h-19l-16,1h-17l-10,1h-6v-26l-1,-4v-25l-1,-3v-39l-1,-4v-16l-1,-9v-2Z"/>
    <path data-geo-id="4400730340" data-name="Glocester" d="M90,122l47,-1 32,-1 74,-1 17,-2 11,82 -94,2 -84,2v-15l-1,-8v-11l-1,-22v-11l-1,-7v-7Z"/>
    <path data-geo-id="4400374300" data-name="Warwick" d="M345,337h14l2,-1 9,-3 4,-4h3l1,-1v-3l-1,-1v-3l-1,-1 5,-8 2,-5 20,-4 1,-4 14,2 4,1h-1l5,18 6,4 -10,11 13,15 13,4 -7,4 2,24 -5,3 -3,17 -5,6 -8,-6v-21l-3,8 -6,-1 -2,-10 -4,11 -28,-4 -7,-10 5,25v12h-45l-1,-37 -14,1 5,-12 10,-5ZM389,426l-2,-1 -6,6h-1l-1,1 -2,3 -3,5v6l-10,-7h-1l-1,1v1h-1v1l-1,1h-1v1l2,-12 10,-3 8,-10 2,-9 12,-6 13,9Z"/>
    <path data-geo-id="4400378440" data-name="West Warwick" d="M304,339h3l6,-1h19l3,-1h10l-13,22 -10,5 -5,12 14,-1 1,37 -27,1Z"/>
    <path data-geo-id="4400377720" data-name="West Greenwich" d="M97,472v-3l1,-9v-41l55,-2h47l94,-4 1,66h-23l-3,1h-53l-9,2h-77l-10,1h-12l-1,1h-10Z"/>
  </g>
  <path class="mesh" d="M97,484h10l1,-1h12l10,-1h77l9,-2h53l3,-1h24l12,-2h6l3,10v70l9,33 -17,-3 -43,-16 -26,-8 -6,-43 -77,10 -62,10M145,774l-1,-73 6,-7 -5,-14 3,-11 6,-2 9,-7 3,4 15,-3 11,-29 14,2 5,11 25,3 7,-6 12,6 -26,94M635,520l-69,20M495,522l9,9 26,23 20,19M507,602l-13,-18 -8,-18M89,680l1,26 10,6 10,-10 3,2 10,-14 21,11M430,200l-24,1 -7,-2 -3,-21 14,-3 19,-3 -1,-11M465,196l-30,4M427,279l-16,-1v5l-9,10 -8,-5 3,-10h-10l-8,-23 -17,2 -7,-19 8,-1 -9,-15 32,-26 13,3M427,157h-9l-5,-4 3,-12 -25,-12 -2,-12 -10,-15 -15,-10 -3,-13 -19,-11 23,-31 1,-13M362,257l-3,7 -10,1 -9,7 -23,4 -12,-5 -21,4 -13,-76 65,-11 6,11 6,8 3,14 3,1M308,27l-8,7 7,23 11,6 24,5 1,35 -3,3 -49,8 -31,3 -14,-88M243,642l9,-6 -6,-17 4,-5 -7,-10 2,-17 -5,-24M326,590l13,3 29,-2 5,-3 3,13 -4,40 -14,13 -17,10 -8,16M97,345h6l10,-1h17l16,-1h19l16,-1h37l3,-1h10l21,-1h24l1,-1h27l1,74h-11l-94,4h-47l-55,2M305,413l27,-1h45M371,429l-10,3 -2,12h-1l-1,-1v1l-1,1 -1,1 1,4 -7,4v1h-2v1l-1,1 -1,1v1h-1v3l-1,1h-1v4h2v1l1,3v6h-31M295,479l-1,-66M284,275l9,62 2,2M422,302l-4,-1 -14,-2 -1,4 -20,4 -2,5 -5,8 1,1v3l1,1v3l-1,1h-3l-4,4 -9,3 -2,1h-24l-3,1h-19l-6,1h-3M418,157l-9,3 1,15M396,178l-37,6 -6,-26 -12,-45 -1,-7M507,308v-4M529,356l-27,4M453,315l2,-2 1,-1v-1l2,-1v-1h1l1,-2 3,-2 3,-3 1,-1 1,-1 1,-1 1,-1 2,-2h1l1,-1 1,-1 2,-1v-1l3,-2v-1M373,588l25,-2M157,530l5,8 7,-2 4,23 6,2 -14,12 -6,9 -4,3v29l-3,19 7,4 -7,17 2,13M359,444v-1h1l1,-1v-1h1v-1l1,-1h1l10,7v-6l3,-5 2,-3 1,-1h1l6,-6 2,1M196,342l-9,-60 -10,-81 94,-2 -11,-82 -17,2 -74,1 -32,1 -47,1M336,188l23,-4M93,203l84,-2M332,412l-1,-37 -14,1 5,-12 10,-5 13,-22"/>
  <g class="cities">
    <circle r="7" cx="404" cy="237"/>
    <text x="404" y="237">Providence</text>
    <circle r="7" cx="401" cy="372"/>
    <text x="401" y="372">Warwick</text>
    <circle r="7" cx="321" cy="42"/>
    <text x="321" y="42">Woonsocket</text>
  </g>
</svg>