<?xml version="1.0" encoding="utf-8"?>
<!DOCTYPE svg PUBLIC "-//W3C//DTD SVG 1.1//EN" "http://www.w3.org/Graphics/SVG/1.1/DTD/svg11.dtd">
<svg version="1.1" xmlns="http://www.w3.org/2000/svg" width="231" height="350" viewBox="0 0 231 350">
  <path class="state" transform="scale(0.1)" d="M1552,2101l23,40 -55,22 -12,-43 -17,-7 12,75 -24,11 -1,40 -28,22 -1,-50 15,-13 -9,-108 42,10 11,-59 -33,-33 -3,-41 19,-49 2,-65 38,-69 22,18 10,55 -13,50 10,60 -14,39 22,37 -19,23 3,NaN 224,NaN 19,-37 11,NaN 121,NaN -16,25 55,18 -61,15 -9,106 21,64 -5,48 10,35 -5,70 21,26 -16,57 -32,70 -4,25 25,8 -6,38 -19,12 2,-35 -51,-27 -29,35 -22,-28 -24,-7 -19,17 1,58 -17,20 -4,35 -23,13 -29,-33 -43,37 -20,-10 -32,15 -21,-42 60,-56 16,-25 0,44 54,-28 -12,-48 -2,-97 -16,-13 45,-13 -3,-47 7,-46 48,-93 26,-25 -6,-45 37,-62 3,-68 35,-18 35,-42 39,0 38,-60 12,NaN -393,NaN -16,28 -16,-40 20,NaN 65,NaN -22,27 41,30 36,1 35,50 3,49 -40,88 -28,15 -24,-27 -2,-32 31,-111 -20,-23 -39,-9 -17,-21 -2,-42 22,-25 -16,-16 16,-27 18,NaN 619,NaN 6,73 -59,31 6,29 -33,30 -49,16 -8,43 -68,14 12,-80 -3,-30 -42,-55 13,-50 -21,-60 8,-56 -25,-9 -11,-61 22,13 6,-88 -15,-12 25,-51 -19,-37 -11,-66 28,-127 28,-63 54,13 0,14 124,28 -7,123 -15,18 -3,49 29,68 12,NaN -1234,NaN 16,37 -25,56 -9,50 7,33 25,5 29,47 -16,38 -78,17 -66,1 -34,-31 20,-98 32,-25 5,-42 32,62 26,8 8,-35 -17,-47 -20,5 20,-48 0,-58 22,NaN -624,NaN -5,-236 -4,-216 -12,-378 -5,-179 -3,-310 93,-6 254,-4 200,-10 251,-5 44,-8 341,-5 0,366 -8,75 8,38 122,-20 -7,120 11,26 -15,79 10,11 -20,50 20,53 -2,47 30,32 4,36 31,12 160,91 99,148 -7,32 -37,23 -5,-63 -55,-32 51,94 28,81 -7,40 -40,13 -23,80 -20,-8 -3,-55 -27,-28 -6,-49 -29,0 -4,64 -16,8 -12,40 -14,-80 12,-40 26,-23 5,-93 17,-22 -6,-76 26,6 -15,-85 -17,12 3,52 -13,29 -20,-34 -51,-25 11,25 37,10 36,49 -31,27 -5,48 -13,-1 -9,-52 -36,-12 -51,0 -6,-35 -31,-41 1,-30 -27,8 -1,-40 -21,-16 7,-44 -24,-63 -13,-6 -36,-69 38,-23 -6,-13 31,-57 -2,-56 -26,-24 -2,62 -13,10 10,35 -26,51 -35,0 19,64 45,41 -26,27 3,51 -9,20 22,65 18,12 -32,28 27,47 32,26 30,5 -25,14 7,83 -26,35 -12,55 -35,-24 1,-68 -11,25 -21,-3 -8,-33 -14,36 -90,-8 -18,-32 -12,32 17,50 0,51 -24,48 30,-34 5,-34 44,-18 45,33 0,15 -45,10 -15,17 40,-13 23,13 0,40 14,55 -44,13 46,18 -39,47 37,15 -1,41 -67,22 -31,27 -7,-29 -19,27 -4,-38 -22,36 28,10 24,29 -2,28 32,18 -20,30 24,10 30,63 0,63 -16,50 9,69 -5,46 -26,-7 7,52 -14,40 -22,27 -25,3 -23,27 9,88 -62,88 -27,56 14,40 -31,-10 -42,-40 -21,-1 6,-45 33,-75 0,-42 -22,4 -26,76 -8,43 11,42 -20,-12 -53,15 -27,-6 -106,25 -38,16 -45,4 -122,40 -100,39 -37,30 -121,24 -10,13 -38,-18 -55,10 -148,41 -66,40 -27,-15 -37,14 -12,-17 74,-10 1,-17 32,-25 0,-25 56,-46 -27,-83 25,-60 -15,-38 -21,-9 -3,-53 64,-52 67,10 26,-687Z"/>
  <g class="counties" transform="scale(0.1)">
    <path data-fips-int="44003" data-name="Kent County" d="M1472,1058l22,65 18,12 -32,28 27,47 32,26 30,5 -25,14 7,83 -26,35 -12,55 -35,-24 1,-68 -11,25 -21,-3 -8,-33 -14,36 -90,-8 -18,-32 -12,32 17,50 0,51 -24,48 30,-34 5,-34 44,-18 45,33 0,15 -45,10 -15,17 -27,13 -40,65 -21,-30 -31,22 -44,61 7,52 -105,0 -102,5 -248,1 -23,9 -279,0 -109,6 5,-251 -5,-236 118,-5 282,-7 78,0 198,-8 64,0 201,-8 43,-40 -7,-20 23,-45 68,-13 41,-20Z"/>
    <path data-fips-int="44007" data-name="Providence County" d="M1683,1012l-97,88 -27,8 -1,-40 -21,-16 7,-44 -24,-63 -13,-6 -36,-69 38,-23 -6,-13 31,-57 -2,-56 -26,-24 -2,62 -13,10 10,35 -26,51 -35,0 19,64 45,41 -26,27 3,51 -9,20 -23,-16 -41,20 -68,13 -23,45 7,20 -43,40 -201,8 -64,0 -198,8 -78,0 -282,7 -118,5 -4,-216 -12,-378 -5,-179 -3,-310 93,-6 254,-4 200,-10 251,-5 44,-8 341,-5 0,366 -8,75 8,38 122,-20 -7,120 11,26 -15,79 10,11 -20,50 20,53 -2,47 30,32 4,36Z"/>
    <path data-fips-int="44001" data-name="Bristol County" d="M1586,1100l97,-88 160,91 99,148 -7,32 -37,23 -5,-63 -55,-32 51,94 28,81 -7,40 -40,13 -23,80 -20,-8 -3,-55 -27,-28 -6,-49 -29,0 -4,64 -16,8 -12,40 -14,-80 12,-40 26,-23 5,-93 17,-22 -6,-76 26,6 -15,-85 -17,12 3,52 -13,29 -20,-34 -51,-25 11,25 37,10 36,49 -31,27 -5,48 -13,-1 -9,-52 -36,-12 -51,0 -6,-35 -31,-41Z"/>
    <path data-fips-int="44005" data-name="Newport County" d="M1552,2101l23,40 -55,22 -12,-43 -17,-7 12,75 -24,11 -1,40 -28,22 -1,-50 15,-13 -9,-108 42,10 11,-59 -33,-33 -3,-41 19,-49 2,-65 38,-69 22,18 10,55 -13,50 10,60 -14,39 22,37 -19,23ZM1806,1536l-30,3 19,-37ZM1971,1537l-44,14 -16,25 55,18 -61,15 -9,106 21,64 -5,48 10,35 -5,70 21,26 -16,57 -32,70 -4,25 25,8 -6,38 -19,12 2,-35 -51,-27 -29,35 -22,-28 -24,-7 -19,17 1,58 -17,20 -4,35 -23,13 -29,-33 -43,37 -20,-10 -32,15 -21,-42 60,-56 16,-25 0,44 54,-28 -12,-48 -2,-97 -16,-13 45,-13 -3,-47 7,-46 48,-93 26,-25 -6,-45 37,-62 3,-68 35,-18 35,-42 39,0 38,-60ZM1566,1451l12,12 -16,28 -16,-40ZM1623,1483l8,21 -22,27 41,30 36,1 35,50 3,49 -40,88 -28,15 -24,-27 -2,-32 31,-111 -20,-23 -39,-9 -17,-21 -2,-42 22,-25 -16,-16 16,-27ZM2226,1833l16,159 6,73 -59,31 6,29 -33,30 -49,16 -8,43 -68,14 12,-80 -3,-30 -42,-55 13,-50 -21,-60 8,-56 -25,-9 -11,-61 22,13 6,-88 -15,-12 25,-51 -19,-37 -11,-66 28,-127 28,-63 54,13 0,14 124,28 -7,123 -15,18 -3,49 29,68Z"/>
    <path data-fips-int="44009" data-name="Washington County" d="M969,3116l23,10 16,37 -25,56 -9,50 7,33 25,5 29,47 -16,38 -78,17 -66,1 -34,-31 20,-98 32,-25 5,-42 32,62 26,8 8,-35 -17,-47 -20,5 20,-48 0,-58ZM340,1695l109,-6 279,0 23,-9 248,-1 102,-5 105,0 -7,-52 44,-61 31,-22 21,30 40,-65 27,-13 40,-13 23,13 0,40 14,55 -44,13 46,18 -39,47 37,15 -1,41 -67,22 -31,27 -7,-29 -19,27 -4,-38 -22,36 28,10 24,29 -2,28 32,18 -20,30 24,10 30,63 0,63 -16,50 9,69 -5,46 -26,-7 7,52 -14,40 -22,27 -25,3 -23,27 9,88 -62,88 -27,56 14,40 -31,-10 -42,-40 -21,-1 6,-45 33,-75 0,-42 -22,4 -26,76 -8,43 11,42 -20,-12 -53,15 -27,-6 -106,25 -38,16 -45,4 -122,40 -100,39 -37,30 -121,24 -10,13 -38,-18 -55,10 -148,41 -66,40 -27,-15 -37,14 -12,-17 74,-10 1,-17 32,-25 0,-25 56,-46 -27,-83 25,-60 -15,-38 -21,-9 -3,-53 64,-52 67,10Z"/>
  </g>
  <g class="cities">
    <circle r="3" cx="141.2" cy="83.1"/>
    <text x="141.2" y="83.1">Providence</text>
    <circle r="3" cx="140.3" cy="130.3"/>
    <text x="140.3" y="130.3">Warwick</text>
    <circle r="3" cx="112.3" cy="14.9"/>
    <text x="112.3" y="14.9">Woonsocket</text>
  </g>
</svg>