<?xml version="1.0" encoding="utf-8"?>
<!DOCTYPE svg PUBLIC "-//W3C//DTD SVG 1.1//EN" "http://www.w3.org/Graphics/SVG/1.1/DTD/svg11.dtd">
<svg version="1.1" xmlns="http://www.w3.org/2000/svg" width="231" height="350" viewBox="0 0 231 350">
  <g class="counties" transform="scale(0.1)">
    <path data-fips-int="44003" data-name="Kent County" d="M1473,1058l8,5 11,31 12,8 -10,21 19,12 -13,22 -7,-3 -14,9 -1,13 9,2 27,40 17,12 12,7 24,-5 3,9 -9,8 -16,6 4,30 -3,34 6,18 -5,10 -12,6 -10,20 -1,36 -11,19 -9,1 -27,-23 -2,-29 4,-18 0,-24 -8,-3 -6,9 3,20 -12,4 -10,-6 1,-16 -8,-18 -11,-3 2,24 -19,0 1,6 14,5 -2,4 -20,2 -26,-8 -18,0 -10,-2 -15,0 -9,-6 4,-10 -13,-16 -14,-5 -4,5 15,16 -8,16 6,29 10,21 -5,18 5,24 0,10 -23,28 -1,19 6,0 6,-12 19,-23 4,-33 36,-9 8,-9 15,20 19,5 10,8 0,15 -15,6 -15,-1 -13,5 -14,16 -13,0 -14,12 -9,11 -16,29 -4,20 -13,8 -9,-21 -15,-11 -15,16 -13,8 2,13 -22,17 -9,3 -15,27 1,11 6,2 3,35 -3,4 -105,1 -64,2 -38,2 -101,1 -35,1 -108,0 -29,8 -268,0 -49,2 -70,4 5,-123 2,-103 -6,-261 90,-4 154,-3 96,-3 131,-2 122,-5 90,-3 52,0 148,-7 58,-1 12,-11 14,-18 13,0 4,-12 -7,-19 19,-33 4,-11 9,-5 22,1 12,-9 11,4 15,-6 8,-12 10,-4 22,-3 12,5 6,12Z"/>
    <path data-fips-int="44007" data-name="Providence County" d="M1682,1012l-54,50 -42,39 -8,-15 -3,11 -8,-3 8,31 -8,5 -9,-23 1,-25 -2,-14 -7,-11 -12,-5 8,-21 -1,-23 -6,-13 -6,-5 -3,-22 -9,-22 -14,-8 0,-8 -9,-16 -12,-8 -14,-36 28,-13 11,-10 -9,-13 7,-14 16,-15 8,-28 -1,-56 -14,-23 -12,2 1,36 -3,23 -14,10 0,29 11,7 -2,14 -12,6 -5,19 -7,12 -13,-1 -8,4 -12,-2 -2,12 4,15 7,8 0,10 9,18 12,2 27,28 5,10 0,16 -26,10 -4,12 2,17 7,13 -1,11 7,7 3,12 -5,13 -4,-14 -10,1 -6,1 -6,-12 -12,-5 -22,3 -10,4 -8,12 -15,6 -11,-4 -12,9 -22,-1 -9,5 -4,11 -19,33 7,19 -4,12 -13,0 -14,18 -12,11 -58,1 -148,7 -52,0 -90,3 -122,5 -131,2 -96,3 -154,3 -90,4 -2,-89 0,-8 -1,-77 -7,-178 -3,-128 -3,-94 -4,-192 -1,-20 0,-84 -1,-18 -2,-193 32,-3 81,-4 69,-2 67,-2 37,0 177,-6 39,-1 112,-3 117,-4 67,-3 53,-5 36,-2 254,-5 43,0 0,102 0,115 0,88 0,60 -1,21 -6,4 1,33 -4,19 7,3 -2,21 5,13 43,-8 79,-12 -9,106 4,17 9,24 -8,13 3,18 -8,26 -2,21 7,-2 3,12 -3,10 -15,25 -3,15 11,32 10,22 -5,33 2,15 10,6 20,25 -1,24 5,12 19,6Z"/>
    <path data-fips-int="44001" data-name="Bristol County" d="M1586,1101l42,-39 54,-50 134,76 28,15 33,52 65,97 3,11 -9,19 -17,17 -13,8 -7,-1 1,-38 -6,-25 -10,-2 -13,-11 -9,2 -5,-15 -6,-7 -13,2 14,31 37,62 0,16 7,21 15,27 6,17 -1,24 -5,16 -10,3 -8,-8 -14,8 -8,10 -5,19 -2,18 -12,34 -6,10 -18,-9 -8,-29 5,-19 -1,-7 -14,-13 -14,-16 -3,-14 0,-22 -13,-23 -17,11 4,32 -8,32 -7,8 -10,1 -3,33 -4,9 -4,-1 -8,-19 -4,-19 1,-21 -3,-23 1,-11 10,-28 10,0 8,-7 7,-18 3,-38 3,-17 0,-28 2,-9 13,-11 3,-10 -6,-52 -5,-7 5,-19 11,10 14,-2 -7,-22 -7,-63 -12,-1 -7,12 4,51 -7,14 0,15 -7,2 -8,-20 -10,-15 -28,-12 -16,-13 -9,0 2,7 11,17 12,7 24,4 21,33 9,3 6,14 -3,10 -8,13 -2,20 -6,-4 0,-10 -12,-4 -2,14 4,19 -6,17 -14,-2 -5,-24 4,-18 -8,-10 -18,-8 -35,-4 -32,0 -4,-10 -5,-24 -9,-11 -11,-21 -10,-9Z"/>
    <path data-fips-int="44005" data-name="Newport County" d="M1449,2069l-10,8 -4,-5 7,-25 6,-7 9,2 3,9ZM1659,2040l-4,6 -6,-7 1,-21 7,-7 7,6 3,15ZM1613,1951l-7,1 -1,-30 6,5ZM1553,2102l10,18 1,10 11,11 -8,9 -7,-3 -7,5 -21,-2 -12,14 -7,-26 -3,-18 -9,-10 -10,4 0,6 12,68 -5,15 -6,1 -10,-8 -3,3 0,32 -2,8 -15,10 -7,12 -6,0 0,-50 15,-14 0,-10 -10,-19 6,-18 -3,-32 -10,-15 3,-9 11,-2 24,0 6,11 7,-3 -5,-19 6,-22 10,-11 -1,-7 -33,-33 -3,-13 2,-28 8,-32 8,-16 -1,-27 3,-39 11,-21 7,-21 8,-15 13,-11 18,8 5,9 2,14 8,41 -1,23 -12,27 -1,11 6,22 4,27 -4,22 -10,17 5,17 16,5 1,14 -8,14 -11,11 -4,17ZM1540,1685l-9,5 12,-29 8,0 2,8ZM1805,1536l-4,4 -24,0 -4,-18 9,-6 5,-13 8,0ZM1971,1537l-8,21 -9,-18 -10,2 -27,17 -6,9 1,8 20,-1 16,11 8,-1 3,-8 6,0 1,17 -12,4 -30,2 -19,9 -1,37 -7,55 0,28 1,12 14,26 8,5 -2,7 -1,30 -4,19 0,20 10,14 -5,28 1,20 -3,11 5,19 8,8 8,1 3,8 -4,24 -20,46 -6,10 -8,28 -12,21 -5,15 1,8 12,13 14,-4 2,11 -9,28 -18,11 3,-24 -3,-12 -18,-16 -32,-9 -9,5 -5,14 -16,16 -7,-4 -13,-26 -10,-4 -14,-1 -18,16 -2,46 2,12 -6,8 -8,3 -4,9 0,16 -3,19 -13,13 -9,1 1,-11 -4,-12 -11,10 -10,-15 -8,-7 -10,7 -14,21 -17,-12 -9,4 12,6 -4,12 -11,-10 -8,-1 -13,5 -10,9 -8,2 -6,-11 -7,-27 -9,-4 1,-9 29,-25 10,-4 18,-19 12,-23 5,0 4,11 -4,18 0,14 14,-5 18,-13 5,-7 16,-3 1,-5 -3,-38 -10,-6 0,-44 -4,-19 6,-15 -4,-18 -15,-13 4,-10 9,-2 7,8 17,0 9,-8 -3,-17 -2,-31 14,-18 2,-12 -7,-8 -1,-8 13,-25 7,-19 16,-26 12,-23 17,-8 9,-16 -1,-14 -5,-11 0,-20 8,-1 2,-10 9,-8 8,-23 12,-29 2,-23 -5,-23 5,-12 19,-6 14,-14 7,-21 23,-20 14,3 22,-1 9,-3 8,-13 15,-14 8,-13 7,-20 3,10 -4,11 11,21ZM1568,1453l11,9 -5,20 -12,10 -8,-9 -8,-30ZM1625,1484l6,20 -20,14 -1,12 8,2 4,8 16,14 12,6 36,4 12,16 11,4 12,29 3,48 -13,31 -22,49 -5,8 -20,13 -8,2 -9,-6 -14,-19 -4,-34 9,-40 12,-16 0,-12 9,-20 2,-21 -7,-14 -13,-10 -34,-11 -12,0 -10,-21 -1,-40 8,-3 8,-13 8,0 -3,-11 -13,-7 -3,-8 7,-9 2,-12 8,-6 5,18 12,11ZM2227,1833l15,146 5,86 3,9 -25,0 -18,8 -17,14 5,28 -10,11 -10,-2 1,11 -13,11 -7,-3 -18,2 -12,14 -13,4 -5,11 3,28 -5,2 -35,2 -27,12 -6,0 -6,-19 1,-9 10,-2 0,-15 3,-20 4,-14 -4,-30 -22,-27 -5,-17 -15,-12 3,-19 11,-30 0,-10 -10,-10 -3,-22 -8,-18 5,-28 3,-9 0,-20 -7,1 -18,-9 -5,-9 3,-17 -3,-13 -15,-7 -2,-12 10,-4 14,11 9,3 2,-34 3,-12 0,-25 2,-15 -16,-13 3,-13 8,-14 11,-9 3,-14 -14,-24 -6,-14 -1,-26 2,-12 -13,-30 5,-10 7,-31 -1,-9 6,-31 5,-10 3,-22 5,-13 20,-38 7,-25 55,14 -1,13 125,29 -5,62 -3,60 -13,18 -4,35 4,35 5,5 20,42Z"/>
    <path data-fips-int="44009" data-name="Washington County" d="M969,3117l18,3 17,29 4,14 -3,16 -22,40 -7,23 -2,27 6,21 1,13 7,-1 18,7 5,19 8,10 13,4 3,12 -2,20 -5,12 -8,7 -24,3 -25,8 -9,-1 -20,5 -9,-3 -26,6 -32,0 -30,-24 -4,-23 4,-13 2,-21 9,-18 0,-10 5,-21 12,-7 19,-18 3,-11 4,-29 11,11 -7,20 8,2 11,11 8,16 26,8 7,-23 1,-12 -13,-11 2,-22 -7,-14 -19,6 12,-23 7,-25 -1,-49 1,-10 14,14ZM339,1695l70,-4 49,-2 268,0 29,-8 108,0 35,-1 101,-1 38,-2 64,-2 105,-1 3,-4 -3,-35 -6,-2 -1,-11 15,-27 9,-3 22,-17 -2,-13 13,-8 15,-16 15,11 9,21 13,-8 4,-20 16,-29 9,-11 14,-12 13,0 5,4 15,-13 19,-3 21,14 2,11 -1,29 4,22 10,32 -6,7 -20,-1 -17,8 5,11 17,0 11,-4 13,12 -7,21 -16,0 -11,11 -5,12 5,12 31,3 -1,44 -17,12 -49,9 -14,7 -18,20 -7,-29 -10,3 -6,12 6,6 -9,4 -6,-11 3,-16 -2,-9 -22,21 0,15 19,2 10,8 1,7 18,7 5,13 -5,14 4,15 21,9 11,9 -9,20 -8,-5 -5,15 9,9 18,1 7,23 15,14 1,14 6,14 -1,18 3,22 -2,21 -16,50 3,30 0,29 6,11 -1,35 -5,9 -14,-11 -13,6 -3,22 6,20 6,9 0,12 -9,7 -5,11 -3,18 -6,2 -13,16 -5,-5 -21,8 -23,27 3,7 1,33 7,22 -2,27 -10,17 -17,17 -2,18 -16,9 -16,26 -15,39 -13,19 3,15 12,26 -7,2 -14,-4 -7,2 -3,-12 -22,-24 -21,-16 -15,-4 -7,2 4,-16 3,-28 21,-31 12,-44 2,-42 -11,-13 -13,17 -25,76 -9,44 12,30 0,11 -21,-11 -29,1 -16,12 -8,1 -26,-7 -29,7 -11,5 -67,16 -38,14 -45,4 -22,5 -25,9 -20,12 -55,15 -80,30 -20,9 -21,13 -16,16 -31,13 -12,-4 -35,4 -44,13 -9,10 -16,-10 -23,-6 -28,3 -45,12 -30,7 -98,29 -1,-1 -66,40 -3,-13 -25,-1 -35,13 -16,-2 4,-16 52,-10 21,0 1,-16 13,-14 10,-2 10,-7 0,-27 11,-5 18,-15 20,-19 5,-12 -5,-28 -12,-10 -10,-25 2,-15 14,-19 -2,-11 11,-30 -14,-9 5,-14 -4,-14 -15,-10 -6,0 0,-21 4,-14 -7,-18 2,-18 7,-7 16,2 26,-14 10,-13 13,-4 14,3 14,9 12,0 5,5 10,-5 4,-133 3,-47 7,-171 7,-163 1,-69Z"/>
  </g>
  <g class="cities">
    <circle r="1" cx="141.3" cy="83.0"/>
    <text x="141.3" y="83.0">Providence</text>
    <circle r="1" cx="140.3" cy="130.3"/>
    <text x="140.3" y="130.3">Warwick</text>
    <circle r="1" cx="134.3" cy="99.9"/>
    <text x="134.3" y="99.9">Cranston</text>
  </g>
</svg>