<?xml version="1.0" encoding="utf-8"?>
<!DOCTYPE svg PUBLIC "-//W3C//DTD SVG 1.1//EN" "http://www.w3.org/Graphics/SVG/1.1/DTD/svg11.dtd">
<svg version="1.1" xmlns="http://www.w3.org/2000/svg" width="231" height="350" viewBox="0 0 231 350">
  <defs>
    <pattern id="pattern-no-results" width="50" height="50" patternUnits="userSpaceOnUse">
      <rect width="50" height="50" fill="#ddd"/>
      <path d="M-5,5L5,-5M-5,55L55,-5M45,55L55,45" stroke-width="10" stroke="#666666"/>
    </pattern>
  </defs>
  <g class="counties" transform="scale(0.1)">
    <path data-fips-int="44003" data-name="Kent County" d="M1472,1058l22,65 -14,40 59,73 12,102 -26,35 -12,55 -35,-24 1,-68 -32,22 -142,-5 28,81 44,-18 45,48 -60,27 -27,13 -40,65 -21,-30 -75,83 7,52 -455,6 -23,9 -279,0 -109,6 5,-251 -5,-236 118,-5 360,-7 463,-16 43,-40 16,-65 109,-33Z"/>
    <path data-fips-int="44007" data-name="Providence County" d="M1683,1012l-97,88 -27,8 -22,-56 7,-44 -24,-63 -49,-75 63,-93 -2,-56 -26,-24 -5,107 -26,51 -35,0 19,64 45,41 -26,27 -6,71 -23,-16 -109,33 -16,65 -43,40 -463,16 -360,7 -118,5 -4,-216 -17,-557 -3,-310 93,-6 254,-4 451,-15 44,-8 341,-5 0,366 -8,75 8,38 122,-20 -7,120 11,26 -25,140 20,53 -2,47 34,68Z"/>
    <path data-fips-int="44001" data-name="Bristol County" d="M1586,1100l97,-88 160,91 99,148 -7,32 -37,23 -5,-63 -55,-32 51,94 28,81 -7,40 -40,13 -23,80 -23,-63 -27,-28 -6,-49 -29,0 -4,64 -28,48 -14,-80 38,-63 5,-93 17,-22 -6,-76 26,6 -15,-85 -17,12 -10,81 13,25 -49,74 -9,-52 -87,-12 -37,-76Z"/>
    <path data-fips-int="44005" data-name="Newport County" d="M1552,2101l23,40 -55,22 -29,-50 12,75 -53,73 14,-63 -9,-108 42,10 11,-59 -33,-33 18,-155 38,-69 22,18 10,55 -13,50 10,60 -14,39 22,37ZM1971,1537l-60,39 55,18 -61,15 -9,106 21,64 0,153 21,26 -52,152 2,23 -51,-27 -29,35 -22,-28 -43,10 1,58 -44,68 -29,-33 -43,37 -52,5 -21,-42 76,-81 0,44 54,-28 -12,-48 -2,-97 29,-26 4,-93 48,-93 26,-25 -6,-45 37,-62 3,-68 70,-60 39,0 38,-60ZM1623,1483l-14,48 77,31 35,50 3,49 -40,88 -28,15 -26,-59 31,-111 -59,-32 -19,-63ZM2226,1833l22,232 -59,31 6,29 -82,46 -8,43 -68,14 9,-110 -42,-55 13,-50 -21,-60 8,-56 -25,-9 -11,-61 22,13 6,-88 -15,-12 25,-51 -30,-103 28,-127 28,-63 54,27 124,28 -7,123 -18,67 29,68Z"/>
    <path data-fips-int="44009" data-name="Washington County" d="M969,3116l39,47 -25,56 -2,83 54,52 -16,38 -144,18 -34,-31 20,-98 32,-25 5,-42 32,62 26,8 -9,-82 0,-101ZM340,1695l109,-6 279,0 23,-9 455,-6 -7,-52 75,-83 21,30 40,-65 27,-13 63,0 14,95 -44,13 46,18 -39,47 37,15 -1,41 -124,47 56,83 34,103 0,63 -16,50 4,115 -26,-7 7,52 -36,67 -48,30 9,88 -62,88 -27,56 14,40 -73,-50 -15,-46 33,-75 -22,-38 -43,149 -80,9 -189,45 -222,79 -37,30 -121,24 -48,-5 -203,51 -66,40 -76,-18 74,-10 33,-67 56,-46 -27,-83 25,-60 -36,-47 -3,-53 64,-52 67,10Z"/>
  </g>
  <g class="cities">
    <circle r="3" cx="141.2" cy="83.1"/>
    <text x="141.2" y="83.1">Providence</text>
    <circle r="3" cx="140.3" cy="130.3"/>
    <text x="140.3" y="130.3">Warwick</text>
    <circle r="3" cx="134.3" cy="99.9"/>
    <text x="134.3" y="99.9">Cranston</text>
  </g>
</svg>