<?xml version="1.0" encoding="utf-8"?>
<!DOCTYPE svg PUBLIC "-//W3C//DTD SVG 1.1//EN" "http://www.w3.org/Graphics/SVG/1.1/DTD/svg11.dtd">
<svg version="1.1" xmlns="http://www.w3.org/2000/svg" width="231" height="350" viewBox="0 0 231 350">
  <path class="state" transform="scale(0.1)" d="M1472,1058l23,65 18,12 -33,28 27,47 33,26 29,5 -26,14 9,83 -26,35 -13,55 -37,-22 3,-70 -10,25 -23,-2 -7,-34 -14,36 -90,-8 -18,-32 -11,32 16,50v51l-24,47 30,-33 6,-34 43,-18 44,33v14l-44,11 -15,17 40,-13 23,15v39l14,54 -45,13 48,20 -40,45 37,15 -1,43 -66,20 -32,27 -6,-29 -20,27 -5,-38 -21,36 28,10 24,29 -3,28 33,18 -21,30 25,10 30,63v63l-16,64 11,55 -8,46 -26,-7 8,64 -37,55 -24,3 -23,27 9,88 -30,51 -32,37 -27,56 14,42 -31,-12 -42,-40 -21,-1 6,-45 33,-75 1,-42 -23,4 -26,76 -8,43 11,42 -21,-12 -52,15 -27,-6 -106,26 -37,15 -46,4 -122,41 -100,37 -37,30 -121,26 -10,12 -38,-18 -55,10 -148,41 -66,39 -27,-15 -37,15 -12,-17 74,-10 1,-18 32,-22v-27l54,-43 -26,-86 26,-60 -14,-37 -20,-10 -4,-53 63,-52 67,10 3,-133 11,-214 12,-340 5,-226 -5,-261 -5,-216 -11,-378 -5,-179 -3,-308 93,-7 254,-5 200,-8 251,-8 44,-5 341,-7v364l-9,77 9,38 123,-20 -10,122 13,24 -15,79 11,11 -22,50 22,52 -6,35 34,45 3,36 30,12 162,91 98,148 -6,30 -37,25 -7,-63 -54,-32 50,94 28,81 -5,40 -40,13 -25,78 -17,-8 -6,-55 -26,-26 -7,-47 -28,-2 -3,64 -17,8 -11,42 -14,-82 11,-40 25,-25 8,-91 15,-22 -4,-76 23,6 -15,-85 -17,12 3,52 -13,29 -19,-34 -52,-25 12,25 38,10 34,49 -31,27 -3,48 -13,-1 -11,-52 -34,-12h-52l-7,-35 -31,-41 1,-30 -17,-7 -30,-41 5,-44 -23,-63 -13,-6 -36,-69 39,-23 -8,-13 30,-57 -1,-56 -26,-22 -2,60 -13,10 11,37 -27,49 -33,2 18,62 44,41 -27,27 15,71ZM2227,1833l16,159 4,73 -58,31 5,29 -32,30 -50,16 -6,43 -68,14 12,-80 -4,-30 -42,-55 14,-50 -22,-60 9,-56 -25,-9 -12,-61 23,13 5,-88 -14,-12 25,-50 -22,-39 -11,-65 31,-127 25,-63 57,12v15l122,28 -5,121 -15,20 -3,49 29,68ZM1970,1537l-43,12 -15,27 55,18 -63,15 -7,105 19,65 -3,48 10,35 -7,70 23,26 -16,57 -37,86 27,29 -27,38 1,-35 -51,-27 -29,35 -20,-28 -25,-7 -18,17 1,58 -20,20 -3,35 -21,13 -31,-33 -24,27h-37l-32,15 -22,-42 76,-81v44l53,-28 -11,-48 -3,-97 -16,-13 47,-13 -5,-47 9,-46 46,-93 26,-25 -4,-45 35,-62 5,-66 33,-20 30,-40 44,-4 38,-58ZM1804,1536l-28,3 17,-38ZM1623,1484l8,20 -22,27 42,30 34,3 36,48 2,47 -40,90 -28,15 -22,-27 -4,-32 33,-109 -22,-24 -40,-8 -16,-23 -1,-42 23,-25 -17,-16 17,-27ZM1568,1453l12,10 -18,30 -18,-40ZM1553,2101l15,49 -48,13 -11,-43 -19,-7 12,75 -23,11 -3,40 -27,22 -1,-50 15,-13 -7,-108 42,10 10,-59 -34,-33 -2,-41 18,-49 3,-65 24,-58 36,7 11,55 -13,50 8,60 -15,39 24,37 -19,23ZM969,3116l23,10 16,37 -25,56 -9,50 7,33 25,7 29,45 -16,38 -79,17 -66,1 -28,-23 -5,-23 20,-85 32,-23 5,-40 32,60 26,8 8,-37 -17,-46 -20,6 20,-48v-58Z"/>
  <g class="counties" transform="scale(0.1)">
    <path data-fips-int="44003" data-name="Kent County" d="M1472,1058l23,65 18,12 -33,28 27,47 33,26 29,5 -26,14 9,83 -26,35 -13,55 -37,-22 3,-70 -10,25 -23,-2 -7,-34 -14,36 -90,-8 -18,-32 -11,32 16,50v51l-24,47 30,-33 6,-34 43,-18 44,33v14l-44,11 -15,17 -27,13 -41,65 -20,-30 -31,22 2,15 -31,20 -15,26 7,52h-105l-102,5 -248,3 -23,7h-279l-109,6 5,-226 -5,-261 313,-10 165,-2 198,-8h64l200,-8 43,-40 -6,-20 23,-45 67,-13 41,-20Z"/>
    <path data-fips-int="44007" data-name="Providence County" d="M1682,1012l-97,88 -17,-7 -30,-41 5,-44 -23,-63 -13,-6 -36,-69 39,-23 -8,-13 30,-57 -1,-56 -26,-22 -2,60 -13,10 11,37 -27,49 -33,2 18,62 44,41 -27,27 15,71h-19l-24,-16 -41,20 -67,13 -23,45 6,20 -43,40 -200,8h-64l-198,8 -165,2 -313,10 -5,-216 -11,-378 -5,-179 -3,-308 93,-7 254,-5 200,-8 251,-8 44,-5 341,-7v364l-9,77 9,38 123,-20 -10,122 13,24 -15,79 11,11 -22,50 22,52 -6,35 34,45 3,36Z"/>
    <path data-fips-int="44001" data-name="Bristol County" d="M1585,1100l97,-88 162,91 98,148 -6,30 -37,25 -7,-63 -54,-32 50,94 28,81 -5,40 -40,13 -25,78 -17,-8 -6,-55 -26,-26 -7,-47 -28,-2 -3,64 -17,8 -11,42 -14,-82 11,-40 25,-25 8,-91 15,-22 -4,-76 23,6 -15,-85 -17,12 3,52 -13,29 -19,-34 -52,-25 12,25 38,10 34,49 -31,27 -3,48 -13,-1 -11,-52 -34,-12h-52l-7,-35 -31,-41Z"/>
    <path data-fips-int="44005" data-name="Newport County" d="M2227,1833l16,159 4,73 -58,31 5,29 -32,30 -50,16 -6,43 -68,14 12,-80 -4,-30 -42,-55 14,-50 -22,-60 9,-56 -25,-9 -12,-61 23,13 5,-88 -14,-12 25,-50 -22,-39 -11,-65 31,-127 25,-63 57,12v15l122,28 -5,121 -15,20 -3,49 29,68ZM1970,1537l-43,12 -15,27 55,18 -63,15 -7,105 19,65 -3,48 10,35 -7,70 23,26 -16,57 -37,86 27,29 -27,38 1,-35 -51,-27 -29,35 -20,-28 -25,-7 -18,17 1,58 -20,20 -3,35 -21,13 -31,-33 -24,27h-37l-32,15 -22,-42 76,-81v44l53,-28 -11,-48 -3,-97 -16,-13 47,-13 -5,-47 9,-46 46,-93 26,-25 -4,-45 35,-62 5,-66 33,-20 30,-40 44,-4 38,-58ZM1804,1536l-28,3 17,-38ZM1623,1484l8,20 -22,27 42,30 34,3 36,48 2,47 -40,90 -28,15 -22,-27 -4,-32 33,-109 -22,-24 -40,-8 -16,-23 -1,-42 23,-25 -17,-16 17,-27ZM1568,1453l12,10 -18,30 -18,-40ZM1553,2101l15,49 -48,13 -11,-43 -19,-7 12,75 -23,11 -3,40 -27,22 -1,-50 15,-13 -7,-108 42,10 10,-59 -34,-33 -2,-41 18,-49 3,-65 24,-58 36,7 11,55 -13,50 8,60 -15,39 24,37 -19,23Z"/>
    <path data-fips-int="44009" data-name="Washington County" d="M340,1695l109,-6h279l23,-7 248,-3 102,-5h105l-7,-52 15,-26 31,-20 -2,-15 31,-22 20,30 41,-65 27,-13 40,-13 23,15v39l14,54 -45,13 48,20 -40,45 37,15 -1,43 -66,20 -32,27 -6,-29 -20,27 -5,-38 -21,36 28,10 24,29 -3,28 33,18 -21,30 25,10 30,63v63l-16,64 11,55 -8,46 -26,-7 8,64 -37,55 -24,3 -23,27 9,88 -30,51 -32,37 -27,56 14,42 -31,-12 -42,-40 -21,-1 6,-45 33,-75 1,-42 -23,4 -26,76 -8,43 11,42 -21,-12 -52,15 -27,-6 -106,26 -37,15 -46,4 -122,41 -100,37 -37,30 -121,26 -10,12 -38,-18 -55,10 -148,41 -66,39 -27,-15 -37,15 -12,-17 74,-10 1,-18 32,-22v-27l54,-43 -26,-86 26,-60 -14,-37 -20,-10 -4,-53 63,-52 67,10 3,-133 11,-214ZM969,3116l23,10 16,37 -25,56 -9,50 7,33 25,7 29,45 -16,38 -79,17 -66,1 -28,-23 -5,-23 20,-85 32,-23 5,-40 32,60 26,8 8,-37 -17,-46 -20,6 20,-48v-58Z"/>
  </g>
  <path class="mesh" transform="scale(0.1)" d="M1362,1491l-27,13 -41,65 -20,-30 -31,22 2,15 -31,20 -15,26 7,52h-105l-102,5 -248,3 -23,7h-279l-109,6M340,1208l313,-10 165,-2 198,-8h64l200,-8 43,-40 -6,-20 23,-45 67,-13 41,-20 24,16M1682,1012l-97,88"/>
  <g class="cities">
    <circle r="3" cx="141.3" cy="83.1"/>
    <text x="141.3" y="83.1">Providence</text>
    <circle r="3" cx="140.4" cy="130.3"/>
    <text x="140.4" y="130.3">Warwick</text>
    <circle r="3" cx="112.3" cy="14.8"/>
    <text x="112.3" y="14.8">Woonsocket</text>
  </g>
</svg>