<?xml version="1.0" encoding="utf-8"?>
<!DOCTYPE svg PUBLIC "-//W3C//DTD SVG 1.1//EN" "http://www.w3.org/Graphics/SVG/1.1/DTD/svg11.dtd">
<svg version="1.1" xmlns="http://www.w3.org/2000/svg" width="350" height="282" viewBox="0 0 350 282">
  <defs>
    <pattern id="pattern-no-results" width="50" height="50" patternUnits="userSpaceOnUse">
      <rect width="50" height="50" fill="#ddd"/>
      <path d="M-5,5L5,-5M-5,55L55,-5M45,55L55,45" stroke-width="10" stroke="#666666"/>
    </pattern>
  </defs>
  <g class="counties" transform="scale(0.1)">
    <path data-fips-int="45001" data-name="Abbeville County" d="M847,749l-61,58 16,54 37,38 8,58 -13,39 -47,44 -88,2 -55,-11 -43,48 -53,-98 -25,-12 -20,-54 298,-227Z"/>
    <path data-fips-int="45003" data-name="Aiken County" d="M1559,1382l0,-1 0,1 0,-1 18,9 -129,136 -272,243 -66,-42 -10,-55 -47,-32 4,-96 -57,-56 255,-234 56,-52 45,57 33,11 32,55 33,2Z"/>
    <path data-fips-int="45005" data-name="Allendale County" d="M1559,1838l13,1 77,77 -97,62 -40,50 12,45 -55,58 -46,20 -17,-81 -20,-4 -32,-74 9,-62 -87,-74 52,-52 121,43Z"/>
    <path data-fips-int="45007" data-name="Anderson County" d="M716,581l11,47 72,58 2,2 -298,227 -8,-56 -29,-51 -30,-17 -15,-85 -28,-26 -60,2 107,-116 36,-43 208,-117 25,36 -10,60Z"/>
    <path data-fips-int="45009" data-name="Bamberg County" d="M1552,1570l24,23 78,31 90,56 11,9 95,100 -68,45 -2,53 -28,-35 -103,64 -77,-77 -23,-32 10,-203 -7,-34 0,-1Z"/>
    <path data-fips-int="45011" data-name="Barnwell County" d="M1552,1569l0,1 7,34 -10,203 23,32 -13,-1 -110,9 -121,-43 -52,52 -20,3 -76,-47 -4,-43 272,-243 53,10Z"/>
    <path data-fips-int="45021" data-name="Cherokee County" d="M1458,123l-24,22 -8,77 -40,-2 -17,90 25,85 -46,-33 -70,4 -58,-32 -30,-18 -27,-88 -53,-123Z"/>
    <path data-fips-int="45023" data-name="Chester County" d="M1779,411l26,106 -26,53 15,75 -378,-25 5,-54 -20,-19 -7,-85 -16,-51Z"/>
    <path data-fips-int="45025" data-name="Chesterfield County" d="M2515,649l-36,36 -113,0 -165,107 -27,-67 -3,-55 -30,-41 -25,-45 -21,-38 -34,-39 -53,-93 436,7 2,0 -2,0 52,109 43,24Z"/>
    <path data-fips-int="45027" data-name="Clarendon County" d="M2491,1192l-29,57 -55,42 15,39 -86,190 -20,2 -10,7 2,17 -57,18 -93,12 -57,-39 -41,-68 -27,-71 38,-60 60,-1 -3,-43 88,-17 10,-15 195,-120 16,46Z"/>
    <path data-fips-int="45031" data-name="Darlington County" d="M2515,649l15,40 30,-28 12,43 0,26 47,30 -7,32 25,47 -48,8 -15,42 -40,-5 -183,142 -60,-63 33,-58 -45,-80 -1,-33 -45,35 -25,-23 -9,-11 2,-1 165,-107 113,0Z"/>
    <path data-fips-int="45033" data-name="Dillon County" d="M3043,836l-5,4 -34,36 -31,-28 -28,27 -64,-10 -43,-22 -76,8 -47,49 -30,-44 -31,-12 123,-273Z"/>
    <path data-fips-int="45035" data-name="Dorchester County" d="M2155,1721l29,87 122,110 -10,5 0,1 0,-1 0,1 60,72 -12,35 -35,-1 -26,29 25,30 -109,-28 -69,-6 5,-29 -17,-56 20,-60 -45,-24 -98,4 -57,-39 -21,-42 -62,-22 201,-130 10,47Z"/>
    <path data-fips-int="45037" data-name="Edgefield County" d="M1255,1254l-255,234 -70,-55 14,-31 -49,-47 -3,-64 40,-54 -25,-39 -2,-44 75,-19 27,-7 80,-10 15,68 28,25Z"/>
    <path data-fips-int="45039" data-name="Fairfield County" d="M1794,645l-2,71 75,69 -38,90 -100,14 -73,24 -74,2 2,38 -95,-54 -15,-20 -56,-158 -2,-36 0,-65Z"/>
    <path data-fips-int="45041" data-name="Florence County" d="M2715,900l-17,36 40,75 0,88 17,37 120,123 -29,-13 -91,35 -211,-47 -25,-40 -28,-2 -54,-4 -16,-46 53,-34 -60,-42 -13,-8 -50,-32 183,-142 40,5 15,-42 48,-8 17,5 31,12Z"/>
    <path data-fips-int="45045" data-name="Greenville County" d="M875,91l-10,287 54,59 -65,165 1,43 -54,43 -2,-2 -72,-58 -11,-47 -17,-79 10,-60 -25,-36 5,-21 -2,0 -23,-85 -13,-32 -37,-21 2,-47 -116,-6 53,-49 159,-40 49,-28 10,26Z"/>
    <path data-fips-int="45047" data-name="Greenwood County" d="M1053,927l52,57 -10,12 -88,132 -27,7 2,-25 -112,1 -26,-32 -43,39 -14,-78 47,-44 13,-39 -8,-58 -37,-38 -16,-54 61,-58 52,68 56,26Z"/>
    <path data-fips-int="45049" data-name="Hampton County" d="M1661,1926l0,1 0,-1 0,1 56,95 62,56 51,108 -30,36 -35,28 -28,-12 2,-43 -42,-50 -188,164 -33,-3 -63,-57 18,-20 -25,-42 17,-36 46,-20 55,-58 -12,-45 40,-50 97,-62Z"/>
    <path data-fips-int="45051" data-name="Horry County" d="M3395,1192l0,2 -8,17 -95,43 -65,47 -91,98 -35,47 -67,2 -28,-74 -36,-37 0,-2 -52,-90 3,-49 -55,-65 27,-69 43,-62 5,-4 63,-120 34,-36 5,-4 352,346Z"/>
    <path data-fips-int="45055" data-name="Kershaw County" d="M2141,629l30,41 3,55 27,67 -2,1 -51,22 8,29 -48,8 -5,57 -35,48 -68,58 -27,1 2,0 -2,0 -70,26 -104,-94 30,-73 38,-90 -75,-69 93,-70 -2,42 34,-20 46,26 57,-8 -2,-56 98,-46Z"/>
    <path data-fips-int="45057" data-name="Lancaster County" d="M2008,414l53,93 34,39 21,38 -98,46 2,56 -57,8 -46,-26 -34,20 2,-42 -93,70 2,-71 -15,-75 26,-53 -26,-106 16,-13 4,-94 -12,-34 -13,-71 84,117 -10,95Z"/>
    <path data-fips-int="45059" data-name="Laurens County" d="M962,478l12,31 76,42 35,42 35,7 105,29 38,21 2,0 -2,0 -95,141 -78,52 -37,84 -98,-84 -56,-26 -52,-68 -46,-61 54,-43 -1,-43 65,-165Z"/>
    <path data-fips-int="45061" data-name="Lee County" d="M2351,1026l50,32 -123,80 -7,-44 -37,12 -56,-75 -57,0 -53,-27 0,-47 35,-48 5,-57 48,-8 -8,-29 51,-22 9,11 25,23 45,-35 1,33 45,80 -33,58Z"/>
    <path data-fips-int="45063" data-name="Lexington County" d="M1699,1200l-32,111 32,-28 58,23 -78,39 -102,45 -18,-9 0,1 0,-1 0,1 -105,-55 -33,-2 -32,-55 -33,-11 -45,-57 70,-167 57,-4 -32,-42 20,-36 47,-20 28,28 16,57 37,-3 58,28 63,64Z"/>
    <path data-fips-int="45065" data-name="McCormick County" d="M787,1040l14,78 43,-39 26,32 112,-1 -2,25 -75,19 2,44 25,39 -40,54 3,64 49,47 -14,31 -53,-24 -51,-120 -55,-58 -52,-26 -60,-58 -38,-19 -20,-49 43,-48 55,11Z"/>
    <path data-fips-int="45067" data-name="Marion County" d="M3004,876l-63,120 -5,4 -43,62 -27,69 55,65 -3,49 52,90 0,2 0,-2 -69,-8 -23,-52 -3,-16 -120,-123 -17,-37 0,-88 -40,-75 17,-36 47,-49 76,-8 43,22 64,10 28,-27Z"/>
    <path data-fips-int="45069" data-name="Marlboro County" d="M2777,571l-123,273 -17,-5 -25,-47 7,-32 -47,-30 0,-26 -12,-43 -30,28 -15,-40 24,-95 -43,-24 -52,-109 2,0 174,0Z"/>
    <path data-fips-int="45071" data-name="Newberry County" d="M1416,685l2,36 56,158 15,20 -16,34 -47,20 -20,36 32,42 -57,4 -50,-4 -65,-56 -68,-34 -35,18 -51,-12 -7,37 -52,-57 37,-84 78,-52 95,-141 2,0 61,47 7,28 31,-32Z"/>
    <path data-fips-int="45073" data-name="Oconee County" d="M433,527l10,22 -12,9 0,7 9,1 -107,116 -55,-18 -8,-26 -175,-127 -8,-40 22,-52 40,-25 16,-47 90,-53 7,-48 144,-43 -33,49 27,50 5,169 25,7Z"/>
    <path data-fips-int="45075" data-name="Orangeburg County" d="M2060,1469l41,68 57,39 93,-12 -20,121 -76,36 -89,-17 -10,-47 -201,130 -5,2 -95,-100 -11,-9 -90,-56 -78,-31 -24,-23 0,-1 -51,-33 -53,-10 129,-136 102,-45 71,81 40,-8 52,14 80,69 25,41 73,-77Z"/>
    <path data-fips-int="45077" data-name="Pickens County" d="M500,194l116,6 -2,47 37,21 13,32 23,85 2,0 -5,21 -208,117 -36,43 -9,-1 0,-7 12,-9 -10,-22 -3,-49 -25,-7 -5,-169 -27,-50 33,-49 79,-25Z"/>
    <path data-fips-int="45079" data-name="Richland County" d="M1973,1016l2,0 10,51 -28,47 18,17 -3,4 -9,28 22,96 -12,54 0,1 0,-1 -111,-12 -70,-47 -25,4 -68,-58 -24,-93 -63,-64 -58,-28 -37,3 -16,-57 -28,-28 16,-34 95,54 -2,-38 74,-2 73,-24 100,-14 -30,73 104,94Z"/>
    <path data-fips-int="45081" data-name="Saluda County" d="M1381,1035l-70,167 -56,52 -125,-43 -28,-25 -15,-68 -80,10 88,-132 10,-12 7,-37 51,12 35,-18 68,34 65,56Z"/>
    <path data-fips-int="45083" data-name="Spartanburg County" d="M1220,334l-50,61 -50,205 -35,-7 -35,-42 -76,-42 -12,-31 -43,-41 -54,-59 10,-287 235,14 53,123 27,88Z"/>
    <path data-fips-int="45085" data-name="Sumter County" d="M2401,1058l13,8 60,42 -53,34 -195,120 -10,15 -88,17 3,43 -60,1 -38,60 -66,-73 6,-11 0,-1 12,-54 -22,-96 9,-28 3,-4 -18,-17 28,-47 -10,-51 -2,0 27,-1 68,-58 0,47 53,27 57,0 56,75 37,-12 7,44Z"/>
    <path data-fips-int="45087" data-name="Union County" d="M1394,395l-16,16 16,51 7,85 20,19 -5,54 0,65 -52,8 -31,32 -7,-28 -61,-47 -2,0 -38,-21 -105,-29 50,-205 50,-61 58,32 70,-4Z"/>
    <path data-fips-int="45089" data-name="Williamsburg County" d="M2846,1246l29,13 3,16 -65,80 -11,93 -77,70 -91,159 -55,-20 -25,-37 -50,-30 -63,-65 -92,-15 -13,10 86,-190 -15,-39 55,-42 29,-57 28,2 25,40 211,47Z"/>
    <path data-fips-int="45091" data-name="York County" d="M1774,199l13,71 12,34 -4,94 -16,13 -401,0 16,-16 -25,-85 17,-90 40,2 8,-77 24,-22 227,14 -18,57 10,29 75,-51Z"/>
    <path data-fips-int="45015" data-name="Berkeley County" d="M2441,1525l63,65 50,30 25,37 55,20 163,74 0,1 -52,56 -80,16 -91,123 -20,41 -24,6 -49,83 -37,-26 2,-41 -44,8 -30,-83 -31,9 -35,-26 -122,-110 -29,-87 76,-36 20,-121 57,-18 -2,-17 10,-7 20,-2 13,-10Z"/>
    <path data-fips-int="45029" data-name="Colleton County" d="M2160,2356l-39,25 4,-56ZM1855,1787l62,22 21,42 57,39 98,-4 45,24 -20,60 17,56 -5,29 -10,47 -27,55 45,69 -20,43 -2,91 -38,0 -70,-58 -50,-24 -28,-56 -100,-36 -51,-108 -62,-56 -56,-95 0,-1 0,1 0,-1 -12,-10 103,-64 28,35 2,-53 68,-45Z"/>
    <path data-fips-int="45043" data-name="Georgetown County" d="M2970,1335l0,2 36,37 28,74 67,-2 -58,79 -37,69 -23,114 -17,-35 -48,2 18,-62 -26,19 -7,49 55,40 18,63 -30,28 -80,-12 -38,-24 0,1 0,-1 -31,-25 0,1 0,-1 -163,-74 91,-159 77,-70 11,-93 65,-80 23,52Z"/>
    <path data-fips-int="45019" data-name="Charleston County" d="M2652,1992l58,18 -51,27ZM2306,1918l35,26 31,-9 30,83 44,-8 13,131 40,2 -62,74 0,1 -18,38 -65,13 -66,36 -55,-47 0,-52 -34,60 22,-5 53,36 -36,32 -15,4 -52,25 -28,-34 -2,-66 -23,11 20,-43 -45,-69 27,-55 10,-47 69,6 109,28 -25,-30 26,-29 35,1 12,-35 -60,-72 0,-1 0,1 0,-1ZM2582,2061l2,33 -25,12 -49,23 -31,-14 7,-62 39,-14 4,-43 25,-8 20,-41 91,-123 80,-16 52,-56 0,-1 31,25 0,1 80,34 2,23 -87,41 -10,35 -36,13 -24,-25 -51,29 -22,55 -28,10 -37,50Z"/>
    <path data-fips-int="45053" data-name="Jasper County" d="M1739,2195l-2,43 28,12 35,-28 10,22 15,53 -23,19 25,74 -3,38 3,4 -5,8 -15,19 -47,21 -8,44 -48,-4 -9,51 49,96 36,21 -28,18 -2,1 -51,-19 -19,16 -54,-25 -2,-62 -28,-45 26,-35 -61,-116 8,-35 -60,-77 188,-164Z"/>
    <path data-fips-int="45013" data-name="Beaufort County" d="M1902,2549l40,46 -39,48 -74,36 33,-51 0,-40ZM2051,2495l44,9 -84,43 10,-40ZM1784,2643l-7,2 -8,13 -25,9 -49,-96 9,-51 48,4 8,-44 47,-21 43,34 28,51 -21,75 -63,47ZM1953,2358l65,6 0,29 57,8 16,32 -75,44 15,20 -56,62 -17,-3 -1,-79 -19,-6 17,-65 -27,-16ZM1888,2325l50,21 -13,16 5,161 -62,-68 -26,-79ZM2008,2302l-13,12 23,40 -138,-34 -40,42 -15,-65 -15,-53 -10,-22 30,-36 100,36 28,56Z"/>
    <path data-fips-int="45017" data-name="Calhoun County" d="M1973,1313l0,1 -6,11 66,73 27,71 -40,-4 -73,77 -25,-41 -80,-69 -52,-14 -40,8 -71,-81 78,-39 -58,-23 -32,28 32,-111 68,58 25,-4 70,47Z"/>
  </g>
  <g class="cities">
    <circle r="3" cx="168.4" cy="110.0"/>
    <text x="168.4" y="110.0">Columbia</text>
    <circle r="3" cx="246.1" cy="212.2"/>
    <text x="246.1" y="212.2">Charleston</text>
    <circle r="3" cx="242.9" cy="205.7"/>
    <text x="242.9" y="205.7">North Charleston</text>
  </g>
</svg>