<?xml version="1.0" encoding="utf-8"?>
<!DOCTYPE svg PUBLIC "-//W3C//DTD SVG 1.1//EN" "http://www.w3.org/Graphics/SVG/1.1/DTD/svg11.dtd">
<svg version="1.1" xmlns="http://www.w3.org/2000/svg" width="350" height="282" viewBox="0 0 350 282">
  <defs>
    <pattern id="pattern-no-results" width="50" height="50" patternUnits="userSpaceOnUse">
      <rect width="50" height="50" fill="#ddd"/>
      <path d="M-5,5L5,-5M-5,55L55,-5M45,55L55,45" stroke-width="10" stroke="#666666"/>
    </pattern>
  </defs>
  <g class="counties" transform="scale(0.1)">
    <path data-fips-int="45001" data-name="Abbeville County" d="M847,751l-62,55 8,16 8,3 0,13 2,23 21,17 19,29 6,27 0,23 -7,23 -12,21 -9,10 -34,29 -36,5 -52,-3 -20,-18 -11,8 -22,-1 -46,48 2,-12 -19,-17 0,-8 -14,-10 -6,-9 6,-7 -13,-12 -9,-22 -10,-8 -10,-2 -10,-9 -9,-23 1,-10 -7,-16 40,-30 35,-26 125,-94 43,-32 56,-44 0,12 20,17 6,13 6,1 4,11Z"/>
    <path data-fips-int="45003" data-name="Aiken County" d="M1578,1391l-108,113 -23,22 -64,58 -46,41 -91,83 -69,62 -8,-17 -8,-3 0,10 -8,1 -12,-5 -1,-8 -13,-4 -17,-18 13,-7 1,-15 -21,-11 3,-9 7,0 -3,-9 -7,7 -2,-9 -9,9 -1,-12 -6,-5 -11,-1 -15,-19 -8,2 2,-12 -7,-12 14,1 -6,-21 -7,-6 14,-8 11,0 -16,-10 11,-7 2,-8 -10,-19 -32,-15 -11,-12 -8,-20 -7,-10 74,-68 10,-10 101,-93 44,-42 24,-21 57,-53 5,11 11,5 10,22 20,21 8,-1 12,9 11,1 19,23 4,23 8,9 40,8 20,6 18,9 10,9 8,-2 5,6 16,8 27,18Z"/>
    <path data-fips-int="45005" data-name="Allendale County" d="M1572,1839l16,19 16,12 1,7 22,19 12,1 10,18 -34,23 -47,29 -27,22 -1,27 -7,-1 -20,13 11,44 -48,42 -7,18 -20,6 -18,12 -10,1 -4,-16 -14,-4 10,-3 -5,-5 -2,-20 7,-11 -3,-16 -7,-8 -5,3 -5,-9 -6,6 1,-25 -7,-6 -11,-1 11,-12 -11,-1 -2,-21 -14,-12 3,-7 -7,-7 -3,-11 10,2 1,-21 5,-15 -12,-9 -2,-6 -22,-13 -7,-2 -8,-13 -6,2 -9,-12 -13,-4 5,-3 -12,-14 50,-53 59,19 65,24 58,0 13,-2 15,-6 17,1 4,-3Z"/>
    <path data-fips-int="45007" data-name="Anderson County" d="M798,687l3,1 -56,44 -43,32 -125,94 -35,26 -40,30 -3,-42 -4,-13 -13,-10 -11,-22 -4,-19 -4,-9 -15,-10 -10,2 -6,-13 2,-11 -8,-12 2,-21 -6,-6 0,-23 -8,-2 -11,-17 -9,-6 -14,2 -9,-4 -11,7 -10,-7 -16,4 17,-19 42,-45 47,-53 37,-40 89,-51 120,-69 12,15 12,22 -4,12 1,9 -5,6 -3,19 5,33 -7,14 9,8 4,16 -4,0 6,24 10,11 8,23 -2,8 8,10 9,2 22,25 14,3Z"/>
    <path data-fips-int="45009" data-name="Bamberg County" d="M1850,1789l-69,44 5,11 0,10 8,6 -10,13 -4,14 -6,0 -22,-36 -77,49 -26,15 -10,-18 -12,-1 -22,-19 -1,-7 -16,-12 -16,-19 -12,-13 0,-9 -12,-16 3,-6 2,-30 0,-44 6,-117 -7,-35 12,2 12,22 8,1 25,11 7,6 19,10 20,3 2,6 22,17 7,-2 5,8 14,3 3,6 10,2 36,24 8,10 21,15 28,25 5,0 -1,15 7,15 13,1 1,11Z"/>
    <path data-fips-int="45011" data-name="Barnwell County" d="M1545,1567l7,2 7,35 -6,117 0,44 -2,30 -3,6 12,16 0,9 12,13 -14,-2 -4,3 -17,-1 -15,6 -13,2 -58,0 -65,-24 -59,-19 -50,53 -18,1 -27,-15 -19,-4 -33,-27 -11,-17 1,-15 7,-10 69,-62 91,-83 46,-41 64,-58 20,8 15,-1 7,4 11,-2 8,10 4,0 12,14 14,8Z"/>
    <path data-fips-int="45021" data-name="Cherokee County" d="M1457,123l-24,24 -4,62 -2,14 -34,-3 -7,-2 -13,19 5,19 -3,10 7,9 -12,30 3,6 10,3 -2,11 4,7 -6,15 4,6 2,18 8,25 -18,-14 2,-9 -14,-2 -8,-7 -10,5 -3,-6 -6,6 -11,-2 -21,-12 -12,8 -13,3 -9,-6 -6,-16 -10,1 -17,-12 -6,6 -11,-6 -17,-16 -13,-1 -10,-37 -16,-49 -9,0 1,-18 -23,-52 -23,-55 72,3 109,6Z"/>
    <path data-fips-int="45023" data-name="Chester County" d="M1778,412l10,22 6,7 0,20 -2,6 2,18 4,7 7,25 -11,8 -9,16 0,14 -6,16 7,15 -3,14 9,12 -1,11 8,9 -6,13 -88,-4 -41,-5 -61,-4 -85,-6 -101,-6 -3,-5 6,-20 1,-30 -18,-13 -8,-19 0,-39 -16,-1 -7,-8 3,-9 21,-15 -1,-26 -10,-9 1,-6 -13,-2 6,-7 132,0 98,1 122,0Z"/>
    <path data-fips-int="45025" data-name="Chesterfield County" d="M2516,650l-10,-1 -3,7 -10,5 0,9 -14,15 -12,1 -13,-5 -18,7 -12,0 -6,-8 -8,-3 -29,12 -14,-4 -46,30 -77,48 -44,28 3,-8 -1,-14 -8,-2 -10,-23 -8,-6 -4,-28 -1,-38 -15,-9 -2,-9 -12,-13 -3,-22 -5,-17 -10,-6 -8,-12 -7,-5 3,-7 -14,-11 2,-15 -20,-14 -16,-24 -2,-11 -8,-10 -12,-29 -9,-6 -3,-8 -8,-2 -10,-14 -3,-14 101,2 37,0 220,3 78,2 -3,4 6,29 22,20 11,22 3,14 12,21 13,6 6,8 9,-1 14,8 -3,9 8,7 -1,5 9,7 -3,6 -13,-3 -5,8 -2,20 -5,5Z"/>
    <path data-fips-int="45027" data-name="Clarendon County" d="M2490,1192l-27,56 -13,7 -7,0 -35,36 15,39 -13,15 -14,38 -24,56 -19,40 -17,40 -17,-5 0,7 -18,14 12,9 -12,7 3,7 -20,2 -5,-3 -8,7 -10,-6 2,8 -12,-2 -9,3 -2,-11 -12,4 -12,9 -7,-8 -6,6 -8,0 -13,8 -22,1 -27,-12 -31,-27 2,-9 -6,-12 -12,1 2,-8 -8,-3 0,-10 12,2 2,-12 -6,-7 -9,5 -3,-7 -16,-8 -14,-14 9,-13 -13,-8 0,-13 -13,-13 8,-5 -4,-5 23,-24 7,-20 9,-15 16,0 4,-20 12,-1 4,12 -6,10 30,-3 -4,-44 88,-16 10,-15 42,-29 43,-26 8,0 36,-26 32,-21 34,-18 17,46 4,5 32,-4Z"/>
    <path data-fips-int="45031" data-name="Darlington County" d="M2516,650l-2,14 12,9 6,16 8,-6 4,6 5,-11 8,1 0,-10 6,-8 6,3 -2,8 21,8 -3,24 -14,-1 0,25 17,17 9,20 2,-8 18,2 -3,16 10,4 -4,14 -8,-1 14,26 9,6 2,15 -9,1 -9,16 -31,-9 -16,38 2,5 -28,-4 -7,-4 -19,12 -23,20 -69,53 -25,21 -51,37 -9,-5 -7,-11 -19,-12 -18,-20 -6,-16 30,-29 1,-26 -17,-35 0,-12 -20,-17 -8,-20 -2,-30 -9,-1 -11,23 -25,13 -5,-12 -12,-9 -5,0 -10,-13 0,-2 44,-28 77,-48 46,-30 14,4 29,-12 8,3 6,8 12,0 18,-7 13,5 12,-1 14,-15 0,-9 10,-5 3,-7Z"/>
    <path data-fips-int="45033" data-name="Dillon County" d="M3042,836l-9,6 -5,14 -11,4 -1,5 -12,11 -32,-27 -28,27 -17,1 -13,-3 -9,-9 -16,-6 -9,6 -41,-22 -10,-3 -22,0 -10,5 -37,6 1,8 -12,4 -11,15 -8,4 -20,4 4,14 -9,-22 -11,-13 -17,-14 -17,-9 -6,2 44,-97 38,-84 41,-91 42,41 25,23 7,10 49,48 18,20 40,38Z"/>
    <path data-fips-int="45035" data-name="Dorchester County" d="M2155,1721l19,29 4,21 14,6 9,10 -10,16 -7,6 21,21 20,16 48,44 32,28 -8,1 -11,9 21,22 9,-13 17,11 -21,5 40,39 3,5 -12,35 -3,-6 -13,-1 -13,7 -5,-2 -10,10 4,9 -6,6 -13,-11 -2,15 17,11 3,12 7,7 -10,-1 -72,-18 -27,-9 -7,0 -64,-6 -1,-10 6,-13 6,2 -10,-14 -4,-12 5,-9 -7,-25 -8,-9 6,-22 4,-5 -2,-16 14,-12 -2,-9 -7,-8 -9,4 -7,-7 -11,6 -8,-10 -28,-2 -10,5 -17,-4 -6,-5 -10,9 -2,-3 -26,3 -26,-9 -6,-11 -27,-22 -3,-11 -9,-6 0,-7 -9,-6 1,-7 -21,-14 -14,-4 -6,3 -19,-5 -1,-4 48,-31 153,-98 4,24 -2,7 8,14 19,8 26,6 23,-2Z"/>
    <path data-fips-int="45037" data-name="Edgefield County" d="M1254,1254l-24,21 -44,42 -101,93 -10,10 -74,68 -13,-10 -11,-18 -21,-12 -10,-2 -10,-12 -6,-1 14,-31 -10,-18 -15,-3 -3,-13 -8,-1 2,-8 -14,-4 -12,-29 0,-5 13,-9 -6,-21 17,-19 6,-13 18,-23 -27,-42 -3,-14 8,-4 -5,-21 75,-20 28,-7 53,-12 26,2 8,37 8,33 5,7 20,16 7,-3 11,8 22,11Z"/>
    <path data-fips-int="45039" data-name="Fairfield County" d="M1793,645l1,13 -4,24 -12,11 14,24 27,32 7,6 12,-3 16,2 4,5 -1,15 10,10 -38,91 -94,14 -54,16 -21,0 -5,9 -4,-2 -9,8 -59,-5 5,8 3,14 -7,6 0,10 -32,-25 -18,2 -19,-23 -17,-7 -10,-1 -6,-14 -8,-7 -4,-14 2,-11 -12,-14 -8,-22 -1,-12 -8,-14 -2,-9 -7,-9 -2,-9 -14,-49 5,-11 -6,-9 -1,-10 1,-8 -3,-30 5,-23 -2,-4 101,6 85,6 61,4 41,5Z"/>
    <path data-fips-int="45041" data-name="Florence County" d="M2714,900l2,10 -3,15 -15,11 12,25 8,4 0,11 8,4 0,7 10,-1 -5,11 7,7 -2,8 -7,-3 -1,18 8,24 4,3 3,38 -5,5 13,21 12,4 -7,11 11,17 9,-1 3,10 14,9 6,9 12,5 34,42 18,0 3,8 11,1 5,12 -2,14 -6,0 -13,-4 -5,-9 -23,-2 0,7 -9,8 -9,-1 -14,6 -8,9 -12,3 -10,-2 -17,7 -96,-26 -1,-8 -11,4 -18,-1 -8,8 -6,-7 -21,-3 -10,-14 -39,0 -25,-40 -15,-7 -14,5 -16,-3 -32,4 -4,-5 -17,-46 56,-36 -14,-16 -9,0 -8,-8 -14,-3 -30,-21 -3,-8 -11,-6 -10,-13 -6,4 -20,-10 51,-37 25,-21 69,-53 23,-20 19,-12 7,4 28,4 -2,-5 16,-38 31,9 9,-16 9,-1 17,5 6,-2 17,9 17,14 11,13Z"/>
    <path data-fips-int="45045" data-name="Greenville County" d="M876,92l-1,40 -4,101 0,24 -5,117 11,15 7,5 16,20 4,11 15,12 -8,22 -38,94 -18,49 0,44 -54,42 -3,-1 -17,-22 -14,-3 -22,-25 -9,-2 -8,-10 2,-8 -8,-23 -10,-11 -6,-24 4,0 -4,-16 -9,-8 7,-14 -5,-33 3,-19 5,-6 -1,-9 4,-12 -12,-22 -12,-15 7,-7 -7,-1 0,-38 -4,-3 0,-16 -6,-6 -12,-21 2,-5 -8,-16 -2,-15 -10,-6 5,-4 5,0 -6,-14 3,-12 -25,1 -14,4 6,-20 -2,-9 -6,4 4,-20 14,-2 1,-5 -17,-1 -31,8 -16,-3 -33,3 -21,11 -6,-1 -8,-18 6,0 2,-9 9,1 9,-13 8,2 10,-6 2,4 7,-10 -5,-6 9,-11 6,9 11,-1 10,-10 10,4 11,-11 10,2 19,-6 17,-16 6,8 22,-9 6,3 6,-11 22,-1 -2,8 12,2 6,-6 4,-17 6,-7 12,-4 4,-7 7,4 3,11 -3,5 9,9 5,-8 13,-2 12,7 27,-12 20,0Z"/>
    <path data-fips-int="45047" data-name="Greenwood County" d="M1053,926l13,10 5,10 12,6 -4,9 6,5 2,9 18,9 -19,23 -3,10 -9,2 -3,12 -6,0 -16,36 -29,33 -14,27 2,1 -28,7 2,-25 -21,3 -20,-5 -3,2 -30,-4 -11,12 -22,-5 -13,-9 -18,-26 -29,29 -14,10 -14,-77 34,-29 9,-10 12,-21 7,-23 0,-23 -6,-27 -19,-29 -21,-17 -2,-23 0,-13 -8,-3 -8,-16 62,-55 1,6 11,1 -2,8 16,14 8,0 16,23 1,13 23,7 11,16 11,-1 16,7 25,27 13,6 8,12 23,7Z"/>
    <path data-fips-int="45049" data-name="Hampton County" d="M1830,2185l-8,5 -22,32 -22,32 -13,-3 -7,-9 -21,-4 -3,-10 9,-7 3,-22 -14,-7 -6,-14 -29,-33 -10,10 -91,80 -34,29 -12,6 -41,40 -6,3 -4,-8 -19,1 -23,-9 -2,-10 -16,-5 -22,-25 -6,-13 12,-2 -6,-4 14,-8 -8,-14 2,-11 -15,-17 -3,-8 8,-2 -4,-6 3,-11 7,-10 10,-1 18,-12 20,-6 7,-18 48,-42 -11,-44 20,-13 7,1 1,-27 27,-22 47,-29 34,-23 21,23 2,10 15,12 12,15 2,13 8,7 8,26 14,9 6,12 8,0 20,20 13,17 3,18 16,19 14,33 6,24Z"/>
    <path data-fips-int="45051" data-name="Horry County" d="M3102,1446l-68,1 0,-30 -5,5 -9,-1 -2,-16 -9,-12 4,-11 -5,-11 -13,2 1,-12 -4,-8 -16,-8 -7,-9 -5,-20 -16,-15 0,-7 -11,-6 -12,-25 -7,-23 6,-11 -8,-7 5,-19 -5,-22 -13,-7 -3,5 -10,-8 -5,-16 -6,-9 3,-8 -16,-9 -4,-12 5,-7 3,-20 8,4 6,-7 3,-23 12,-3 13,-7 12,-14 6,-16 -8,-10 14,-15 6,1 0,-12 11,-12 -3,-12 8,-8 2,-13 13,-9 17,-20 8,-6 6,-32 12,-11 1,-5 11,-4 5,-14 9,-6 139,137 68,66 100,98 46,44 -7,4 7,4 6,14 9,5 -13,2 -22,6 -37,15 -41,21 -55,38 -41,38 -19,22 -19,20 -24,27Z"/>
    <path data-fips-int="45055" data-name="Kershaw County" d="M2200,791l0,2 -26,17 2,4 -28,0 0,10 7,12 1,8 -20,-1 -13,9 -15,0 -10,9 4,6 2,17 -3,7 1,18 -14,22 -9,18 -10,8 -70,59 -16,-2 -10,-6 2,8 -13,2 -17,10 -31,4 -11,10 -45,-43 -40,-38 -20,-14 31,-72 38,-91 -10,-10 1,-15 -4,-5 -16,-2 -12,3 -7,-6 -27,-32 8,-6 86,-64 4,0 -6,23 4,5 -4,15 8,7 14,-6 5,-19 12,-4 9,18 12,12 9,-4 0,-7 9,1 1,9 9,-16 3,8 11,-4 1,-6 14,10 18,-3 6,-11 10,2 2,-8 -8,-17 -6,-3 -4,-19 97,-46 8,12 10,6 5,17 3,22 12,13 2,9 15,9 1,38 4,28 8,6 10,23 8,2 1,14Z"/>
    <path data-fips-int="45057" data-name="Lancaster County" d="M2009,414l3,14 10,14 8,2 3,8 9,6 12,29 8,10 2,11 16,24 20,14 -2,15 14,11 -3,7 7,5 -97,46 4,19 6,3 8,17 -2,8 -10,-2 -6,11 -18,3 -14,-10 -1,6 -11,4 -3,-8 -9,16 -1,-9 -9,-1 0,7 -9,4 -12,-12 -9,-18 -12,4 -5,19 -14,6 -8,-7 4,-15 -4,-5 6,-23 -4,0 -86,64 -8,6 -14,-24 12,-11 4,-24 -1,-13 6,-13 -8,-9 1,-11 -9,-12 3,-14 -7,-15 6,-16 0,-14 9,-16 11,-8 -7,-25 -4,-7 -2,-18 2,-6 0,-20 -6,-7 -10,-22 1,-6 15,-8 6,-10 -9,-12 1,-33 6,-6 3,-13 -6,-33 -7,-6 -7,-22 -11,-16 9,-14 -5,-12 4,-10 -6,-3 1,-9 51,69 34,49 -10,96Z"/>
    <path data-fips-int="45059" data-name="Laurens County" d="M1119,599l24,5 6,9 9,4 32,7 24,12 11,-6 7,5 9,-4 0,5 12,4 11,11 -4,14 -6,3 -32,50 -13,3 -17,23 -7,19 -15,17 -1,10 -19,14 -18,4 -12,12 1,7 -9,6 -15,3 -8,10 -6,31 -6,14 -9,13 -2,9 -13,13 -25,-29 -23,-7 -8,-12 -13,-6 -25,-27 -16,-7 -11,1 -11,-16 -23,-7 -1,-13 -16,-23 -8,0 -16,-14 2,-8 -11,-1 -1,-6 -10,-9 -4,-11 -6,-1 -6,-13 -20,-17 0,-12 54,-42 0,-44 18,-49 38,-94 8,-22 11,5 10,25 4,-5 7,10 10,-2 5,23 8,1 -2,13 7,2 35,28 2,4 23,4 0,7 13,0 17,27 12,13 10,4 4,7 6,-6 6,3 6,11Z"/>
    <path data-fips-int="45061" data-name="Lee County" d="M2352,1025l20,10 6,-4 10,13 11,6 3,8 -18,32 -29,0 -22,15 -46,30 -9,3 -6,-44 -34,10 -9,0 -7,-17 1,-6 -8,-12 -18,-4 -6,-19 -12,-15 -40,0 -11,-8 -11,7 -49,-25 1,-48 10,-8 9,-18 14,-22 -1,-18 3,-7 -2,-17 -4,-6 10,-9 15,0 13,-9 20,1 -1,-8 -7,-12 0,-10 28,0 -2,-4 26,-17 10,13 5,0 12,9 5,12 25,-13 11,-23 9,1 2,30 8,20 20,17 0,12 17,35 -1,26 -30,29 6,16 18,20 19,12 7,11Z"/>
    <path data-fips-int="45063" data-name="Lexington County" d="M1699,1200l-17,8 -1,21 -6,47 -8,15 0,21 16,2 2,-16 7,0 7,-15 26,3 10,-1 19,12 6,7 -10,3 -9,11 -18,8 -9,-2 -36,21 -30,9 -70,37 -15,-5 -27,-18 -16,-8 -5,-6 -8,2 -10,-9 -18,-9 -20,-6 -40,-8 -8,-9 -4,-23 -19,-23 -11,-1 -12,-9 -8,1 -20,-21 -10,-22 -11,-5 -5,-11 -1,-2 22,-50 11,-28 32,-70 6,-16 2,-8 18,4 5,-3 14,8 15,4 4,-7 -34,-44 24,-39 20,-1 15,-15 9,0 15,10 12,17 -10,16 27,41 12,-4 21,1 21,4 31,15 17,17 24,37 23,8 10,14 0,8 7,10 14,30 -8,16 12,5 -8,16Z"/>
    <path data-fips-int="45065" data-name="McCormick County" d="M787,1040l14,77 14,-10 29,-29 18,26 13,9 22,5 11,-12 30,4 3,-2 20,5 21,-3 -2,25 -75,20 5,21 -8,4 3,14 27,42 -18,23 -6,13 -17,19 6,21 -13,9 0,5 12,29 14,4 -2,8 8,1 3,13 15,3 10,18 -14,31 -12,6 -10,-5 -8,-12 -16,-5 -10,-12 -3,-13 0,-16 -24,-28 -1,-23 -12,-17 -1,-8 -10,-15 -18,-8 -2,-15 -10,-8 -22,-23 -11,-2 -18,-16 -10,-6 -18,-4 -18,-15 -26,-24 -10,-15 -10,-8 -23,-7 -7,-7 -20,-48 46,-48 22,1 11,-8 20,18 52,3Z"/>
    <path data-fips-int="45067" data-name="Marion County" d="M3004,876l-6,32 -8,6 -17,20 -13,9 -2,13 -8,8 3,12 -11,12 0,12 -6,-1 -14,15 8,10 -6,16 -12,14 -13,7 -12,3 -3,23 -6,7 -8,-4 -3,20 -5,7 4,12 16,9 -3,8 6,9 5,16 10,8 3,-5 13,7 5,22 -5,19 8,7 -6,11 7,23 12,25 11,6 0,7 16,15 5,20 -5,4 -36,5 6,-7 -18,1 -6,-5 2,-11 -10,5 -6,-21 1,-9 -17,-23 -6,-16 6,0 2,-14 -5,-12 -11,-1 -3,-8 -18,0 -34,-42 -12,-5 -6,-9 -14,-9 -3,-10 -9,1 -11,-17 7,-11 -12,-4 -13,-21 5,-5 -3,-38 -4,-3 -8,-24 1,-18 7,3 2,-8 -7,-7 5,-11 -10,1 0,-7 -8,-4 0,-11 -8,-4 -12,-25 15,-11 3,-15 -2,-10 -4,-14 20,-4 8,-4 11,-15 12,-4 -1,-8 37,-6 10,-5 22,0 10,3 41,22 9,-6 16,6 9,9 13,3 17,-1 28,-27Z"/>
    <path data-fips-int="45069" data-name="Marlboro County" d="M2777,572l-41,91 -38,84 -44,97 -17,-5 -2,-15 -9,-6 -14,-26 8,1 4,-14 -10,-4 3,-16 -18,-2 -2,8 -9,-20 -17,-17 0,-25 14,1 3,-24 -21,-8 2,-8 -6,-3 -6,8 0,10 -8,-1 -5,11 -4,-6 -8,6 -6,-16 -12,-9 2,-14 7,-34 5,-5 2,-20 5,-8 13,3 3,-6 -9,-7 1,-5 -8,-7 3,-9 -14,-8 -9,1 -6,-8 -13,-6 -12,-21 -3,-14 -11,-22 -22,-20 -6,-29 3,-4 106,0 69,-1 98,96Z"/>
    <path data-fips-int="45071" data-name="Newberry County" d="M1416,685l1,10 6,9 -5,11 14,49 2,9 7,9 2,9 8,14 1,12 8,22 12,14 -2,11 4,14 8,7 6,14 -18,29 3,6 -9,0 -15,15 -20,1 -24,39 34,44 -4,7 -15,-4 -14,-8 -5,3 -18,-4 -2,8 -10,-4 -15,4 -4,-5 -17,1 -6,-11 -19,-6 -11,-15 -9,3 -18,-15 -4,-11 -14,-2 -11,-6 -13,-14 -20,-3 -7,-10 -11,7 -18,4 -2,5 -9,2 -15,-8 -22,2 -9,-7 -14,9 -4,10 8,13 -2,6 -18,-9 -2,-9 -6,-5 4,-9 -12,-6 -5,-10 -13,-10 13,-13 2,-9 9,-13 6,-14 6,-31 8,-10 15,-3 9,-6 -1,-7 12,-12 18,-4 19,-14 1,-10 15,-17 7,-19 17,-23 13,-3 32,-50 6,-3 4,-14 2,5 16,2 2,10 7,-1 11,15 6,2 16,14 7,13 -4,9 8,6 39,-38 11,-3 8,6 8,-1 0,-6Z"/>
    <path data-fips-int="45073" data-name="Oconee County" d="M440,565l-47,53 -42,45 -17,19 -10,7 -10,-7 -22,-8 -5,-12 -7,2 -9,-14 -2,-12 -10,0 -17,-23 -11,-4 -3,-8 -10,-6 2,-8 -7,-2 5,-8 -45,-8 -12,-9 -3,-9 -31,-20 -9,-13 -6,1 -3,-8 -14,-3 3,-8 -11,-5 4,-6 -4,-21 6,-8 18,-15 -1,-28 16,-11 -4,-10 8,2 4,-9 8,6 6,-2 -1,-16 3,-8 10,4 -2,-10 6,0 0,-9 8,-4 -6,-5 16,0 1,-6 9,5 3,-12 12,-6 4,-9 8,-6 8,4 -2,-12 13,4 10,-11 8,3 -9,-13 7,-2 -3,-10 8,-13 9,-9 -6,-8 61,-19 85,-25 -6,13 -9,4 -1,16 4,7 -10,0 -11,9 1,13 17,8 -3,10 9,20 -2,15 5,19 -6,1 4,39 3,4 -3,17 3,12 11,16 -6,24 -8,17 3,4 15,0 10,5 2,14 -6,10 8,3 -2,16 8,11 8,23 -12,3 -4,10Z"/>
    <path data-fips-int="45075" data-name="Orangeburg County" d="M2060,1469l16,8 3,7 9,-5 6,7 -2,12 -12,-2 0,10 8,3 -2,8 12,-1 6,12 -2,9 31,27 27,12 22,-1 13,-8 8,0 6,-6 7,8 12,-9 12,-4 2,11 9,-3 -1,29 2,15 -5,6 -6,-6 -3,11 2,23 -5,9 -4,29 -14,17 -12,5 -3,7 -14,6 -22,-12 -9,6 -2,12 -21,-7 -23,2 -26,-6 -19,-8 -8,-14 2,-7 -4,-24 -153,98 -48,31 -5,3 -14,-9 -1,-11 -13,-1 -7,-15 1,-15 -5,0 -28,-25 -21,-15 -8,-10 -36,-24 -10,-2 -3,-6 -14,-3 -5,-8 -7,2 -22,-17 -2,-6 -20,-3 -19,-10 -7,-6 -25,-11 -8,-1 -12,-22 -12,-2 -7,-2 -7,0 -14,-8 -12,-14 -4,0 -8,-10 -11,2 -7,-4 -15,1 -20,-8 23,-22 108,-113 70,-37 30,-9 54,69 15,-15 3,5 0,24 14,3 27,-12 50,12 81,70 -1,13 7,5 5,11 13,13 23,-2 10,2 -9,-15 0,-8 25,-34 -15,-10 9,-5 32,-7 8,2 24,22 0,-14Z"/>
    <path data-fips-int="45077" data-name="Pickens County" d="M499,193l8,18 6,1 21,-11 33,-3 16,3 31,-8 17,1 -1,5 -14,2 -4,20 6,-4 2,9 -6,20 14,-4 25,-1 -3,12 6,14 -5,0 -5,4 10,6 2,15 8,16 -2,5 12,21 6,6 0,16 4,3 0,38 7,1 -7,7 -120,69 -89,51 -37,40 -10,0 4,-10 12,-3 -8,-23 -8,-11 2,-16 -8,-3 6,-10 -2,-14 -10,-5 -15,0 -3,-4 8,-17 6,-24 -11,-16 -3,-12 3,-17 -3,-4 -4,-39 6,-1 -5,-19 2,-15 -9,-20 3,-10 -17,-8 -1,-13 11,-9 10,0 -4,-7 1,-16 9,-4 6,-13 77,-24 6,5 -5,13Z"/>
    <path data-fips-int="45079" data-name="Richland County" d="M1975,1016l-5,9 -10,6 7,4 -3,7 10,5 11,20 -10,11 -7,19 -6,-4 -8,6 4,15 7,5 -2,8 12,1 -8,18 6,3 -10,20 8,23 -1,15 4,9 -9,9 10,9 0,18 12,11 -2,16 3,8 -5,3 0,13 -10,12 -14,-3 -12,-12 4,-9 -8,-2 -18,12 -11,-1 -7,-8 -1,8 -5,-6 -11,10 2,-9 -6,-8 -6,11 -3,-9 -7,6 -28,-6 -6,-6 -9,2 5,-7 -31,-13 -6,-11 -17,6 -11,-2 1,-19 -10,7 -8,-2 -9,-12 -8,-4 -16,-1 1,-7 -11,-5 4,-6 -4,-8 -8,-1 -6,-5 8,-16 -12,-5 8,-16 -14,-30 -7,-10 0,-8 -10,-14 -23,-8 -24,-37 -17,-17 -31,-15 -21,-4 -21,-1 -12,4 -27,-41 10,-16 -12,-17 -15,-10 -3,-6 18,-29 10,1 17,7 19,23 18,-2 32,25 0,-10 7,-6 -3,-14 -5,-8 59,5 9,-8 4,2 5,-9 21,0 54,-16 94,-14 -31,72 20,14 40,38 45,43 11,-10 31,-4 17,-10Z"/>
    <path data-fips-int="45081" data-name="Saluda County" d="M1381,1035l-6,16 -32,70 -11,28 -22,50 1,2 -57,53 -86,-27 -22,-11 -11,-8 -7,3 -20,-16 -5,-7 -8,-33 -8,-37 -26,-2 -53,12 -2,-1 14,-27 29,-33 16,-36 6,0 3,-12 9,-2 3,-10 19,-23 2,-6 -8,-13 4,-10 14,-9 9,7 22,-2 15,8 9,-2 2,-5 18,-4 11,-7 7,10 20,3 13,14 11,6 14,2 4,11 18,15 9,-3 11,15 19,6 6,11 17,-1 4,5 15,-4Z"/>
    <path data-fips-int="45083" data-name="Spartanburg County" d="M1220,333l-22,26 -28,37 -29,132 -12,28 -10,43 -6,12 -6,-11 -6,-3 -6,6 -4,-7 -10,-4 -12,-13 -17,-27 -13,0 0,-7 -23,-4 -2,-4 -35,-28 -7,-2 2,-13 -8,-1 -5,-23 -10,2 -7,-10 -4,5 -10,-25 -11,-5 -15,-12 -4,-11 -16,-20 -7,-5 -11,-15 5,-117 0,-24 4,-101 1,-40 102,6 132,7 23,55 23,52 -1,18 9,0 16,49 10,37 13,1Z"/>
    <path data-fips-int="45085" data-name="Sumter County" d="M2402,1058l30,21 14,3 8,8 9,0 14,16 -56,36 -34,18 -32,21 -36,26 -8,0 -43,26 -42,29 -10,15 -88,16 4,44 -30,3 6,-10 -4,-12 -12,1 -4,20 -16,0 -9,15 -7,20 -23,24 -23,-16 3,-14 -16,-2 -8,-7 2,-10 -16,-9 -9,-22 7,-3 10,-12 0,-13 5,-3 -3,-8 2,-16 -12,-11 0,-18 -10,-9 9,-9 -4,-9 1,-15 -8,-23 10,-20 -6,-3 8,-18 -12,-1 2,-8 -7,-5 -4,-15 8,-6 6,4 7,-19 10,-11 -11,-20 -10,-5 3,-7 -7,-4 10,-6 5,-9 -2,-8 10,6 16,2 70,-59 -1,48 49,25 11,-7 11,8 40,0 12,15 6,19 18,4 8,12 -1,6 7,17 9,0 34,-10 6,44 9,-3 46,-30 22,-15 29,0Z"/>
    <path data-fips-int="45087" data-name="Union County" d="M1393,396l-2,7 -12,8 -6,7 13,2 -1,6 10,9 1,26 -21,15 -3,9 7,8 16,1 0,39 8,19 18,13 -1,30 -6,20 3,5 2,4 -5,23 3,30 -1,8 -15,-1 0,6 -8,1 -8,-6 -11,3 -39,38 -8,-6 4,-9 -7,-13 -16,-14 -6,-2 -11,-15 -7,1 -2,-10 -16,-2 -2,-5 -11,-11 -12,-4 0,-5 -9,4 -7,-5 -11,6 -24,-12 -32,-7 -9,-4 -6,-9 -24,-5 10,-43 12,-28 29,-132 28,-37 22,-26 11,6 6,-6 17,12 10,-1 6,16 9,6 13,-3 12,-8 21,12 11,2 6,-6 3,6 10,-5 8,7 14,2 -2,9Z"/>
    <path data-fips-int="45089" data-name="Williamsburg County" d="M2874,1259l6,16 -15,6 -8,20 -12,15 -16,16 -12,21 -5,12 -2,21 -8,20 -7,25 6,16 -34,33 -7,16 -30,18 -5,9 -32,36 -3,20 -5,2 -16,24 -5,15 -14,10 -17,22 -2,14 3,11 -22,-14 -9,3 -25,-9 -11,-23 -17,-17 -45,-26 -1,-8 -12,-8 8,-2 -19,-19 -11,-1 -32,-31 -12,-7 -12,2 -8,-6 -16,0 -12,5 -5,-5 -23,0 -14,8 17,-40 19,-40 24,-56 14,-38 13,-15 -15,-39 35,-36 7,0 13,-7 27,-56 14,-5 15,7 25,40 39,0 10,14 21,3 6,7 8,-8 18,1 11,-4 1,8 96,26 17,-7 10,2 12,-3 8,-9 14,-6 9,1 9,-8 0,-7 23,2 5,9Z"/>
    <path data-fips-int="45091" data-name="York County" d="M1773,199l-1,9 6,3 -4,10 5,12 -9,14 11,16 7,22 7,6 6,33 -3,13 -6,6 -1,33 9,12 -6,10 -15,8 -1,6 -47,0 -122,0 -98,-1 -132,0 12,-8 2,-7 -8,-25 -2,-18 -4,-6 6,-15 -4,-7 2,-11 -10,-3 -3,-6 12,-30 -7,-9 3,-10 -5,-19 13,-19 7,2 34,3 2,-14 4,-62 24,-24 115,6 114,8 -7,1 -7,8 7,7 6,16 -10,10 -8,14 -1,16 11,15 7,-2 59,-42 10,-8Z"/>
    <path data-fips-int="45015" data-name="Berkeley County" d="M2634,1677l10,6 17,1 15,7 8,7 10,0 22,5 0,10 8,-4 4,9 21,8 28,12 8,-4 7,7 5,11 -2,4 -18,-1 -12,14 -4,12 -11,12 -3,14 -11,3 -11,-9 -32,10 -9,9 -9,-2 -15,10 -12,29 -10,8 -16,21 -3,8 -13,12 -5,16 -26,22 -3,15 4,8 -5,13 -18,8 -16,9 -10,-1 -6,12 0,8 -11,22 -11,-4 -19,21 1,22 -17,0 1,-13 -8,-11 -12,-2 -6,-14 1,-10 14,-15 6,1 4,-11 -8,-11 14,-12 -8,-4 8,-9 -9,-10 5,11 -6,6 1,10 -8,10 6,12 -13,5 -44,9 -21,-47 1,-23 -6,-2 -4,-12 -22,5 -8,5 -6,-4 1,-7 -8,2 -24,-18 -32,-28 -48,-44 -20,-16 -21,-21 7,-6 10,-16 -9,-10 -14,-6 -4,-21 -19,-29 2,-12 9,-6 22,12 14,-6 3,-7 12,-5 14,-17 4,-29 5,-9 -2,-23 3,-11 6,6 5,-6 -2,-15 1,-29 12,2 -2,-8 10,6 8,-7 5,3 20,-2 -3,-7 12,-7 -12,-9 18,-14 0,-7 17,5 14,-8 23,0 5,5 12,-5 16,0 8,6 12,-2 12,7 32,31 11,1 19,19 -8,2 12,8 1,8 45,26 17,17 11,23 25,9 9,-3Z"/>
    <path data-fips-int="45029" data-name="Colleton County" d="M2160,2356l-8,10 -12,-1 2,7 -8,5 -12,4 -3,-17 8,-15 -2,-24 18,6ZM2171,2358l12,2 2,-5 -8,-11 -10,-5 3,-5 19,3 0,9 24,-14 2,4 12,-4 6,-7 4,4 -18,12 -27,24 -13,9 -5,-2ZM1855,1786l1,4 19,5 6,-3 14,4 21,14 -1,7 9,6 0,7 9,6 3,11 27,22 6,11 26,9 26,-3 2,3 10,-9 6,5 17,4 10,-5 28,2 8,10 11,-6 7,7 9,-4 7,8 2,9 -14,12 2,16 -4,5 -6,22 8,9 7,25 -5,9 4,12 10,14 -6,-2 -6,13 1,10 5,12 -9,28 -20,19 3,7 -12,19 -4,15 5,10 12,5 11,22 -6,7 2,14 12,15 10,1 -11,19 -16,3 6,17 17,-10 5,4 -8,20 5,13 -4,8 -15,4 -1,10 6,10 1,23 -6,10 -16,-10 -3,7 -13,3 -19,-6 -16,-18 -12,-4 -3,-14 -10,-17 -17,1 -6,-1 5,-10 -4,-6 -13,4 -8,-8 -6,7 -7,-8 -13,-4 -9,-16 5,-9 -11,3 -4,-8 10,-2 -4,-10 -10,2 -1,-16 9,-5 -12,-3 -13,7 -1,-7 -10,-6 -5,5 -8,-7 -4,7 -13,-1 -9,-9 -23,-3 -13,-13 -13,-12 -6,-24 -14,-33 -16,-19 -3,-18 -13,-17 -20,-20 -8,0 -6,-12 -14,-9 -8,-26 -8,-7 -2,-13 -12,-15 -15,-12 -2,-10 -21,-23 26,-15 77,-49 22,36 6,0 4,-14 10,-13 -8,-6 0,-10 -5,-11 69,-44Z"/>
    <path data-fips-int="45043" data-name="Georgetown County" d="M2929,1786l8,6 -3,9 -6,-10 -10,-4 -10,4 -3,-5 9,-10 12,1ZM2950,1699l2,9 -8,-7 -2,-11ZM2969,1336l7,9 16,8 4,8 -1,12 13,-2 5,11 -4,11 9,12 2,16 9,1 5,-5 0,30 68,-1 -10,14 -5,14 -9,6 -1,7 -31,34 -10,16 -23,47 -9,26 -4,27 -10,8 -14,2 14,3 4,8 -10,43 -2,25 6,22 -4,6 -16,-50 5,-20 -7,-10 -26,0 -4,3 -18,-2 -2,-10 6,-7 8,-22 6,-22 28,-40 7,-2 19,-22 8,-14 1,-12 10,-19 18,-17 4,-9 -25,24 -9,18 -3,15 -17,24 -20,12 -4,13 -25,31 -4,10 2,-26 -2,-3 -4,24 -7,13 -2,-8 -8,-4 7,16 -5,5 -2,37 15,25 9,6 33,11 8,11 0,26 14,9 -6,16 -24,20 -6,8 -3,-24 -3,-5 -20,-11 -7,2 -7,9 -8,0 -14,-8 22,17 10,-3 12,6 10,17 0,11 -20,7 8,-8 -3,-11 -20,-7 -12,1 -14,-7 -11,2 -21,-16 -17,-7 -9,-14 -17,-13 -5,2 -5,-11 -7,-7 -8,4 -28,-12 -21,-8 -4,-9 -8,4 0,-10 -22,-5 -10,0 -8,-7 -15,-7 -17,-1 -10,-6 -3,-11 2,-14 17,-22 14,-10 5,-15 16,-24 5,-2 3,-20 32,-36 5,-9 30,-18 7,-16 34,-33 -6,-16 7,-25 8,-20 2,-21 5,-12 12,-21 16,-16 12,-15 8,-20 15,-6 17,23 -1,9 6,21 10,-5 -2,11 6,5 18,-1 -6,7 36,-5Z"/>
    <path data-fips-int="45019" data-name="Charleston County" d="M2223,2259l-12,8 -7,-5 10,-2 7,-6ZM2436,2236l9,-14 18,-6 14,-8 13,-14 3,5 -18,14 -27,14ZM2480,2200l-18,4 -3,8 -10,6 -5,-6 9,-10 13,-4 10,-11 7,2ZM2462,2196l-8,-1 5,-11 11,-12 -1,17ZM2504,2161l-13,29 -16,-6 0,-13ZM2543,2120l-2,9 -16,9 -14,-1 6,-9 18,-10ZM2550,2121l11,-16 25,-12 7,-12 6,-3 12,11 -6,6 -28,11ZM2584,2077l-10,9 -11,-1 8,-7ZM2619,2070l-10,9 -14,-5 10,-13 7,-6 10,5ZM2646,2021l9,16 -29,21 -9,-8 3,-13 6,-7 11,2 1,-5 -10,-3 13,-10ZM2675,2000l-9,-6 6,-2 3,-10 7,3 6,9ZM2656,2008l4,-5 11,4 13,-5 8,-9 19,-6 -1,22 -38,15 -14,12 -10,-12 -6,-15 8,-9ZM2446,2010l-12,15 0,13 8,17 16,8 -2,13 5,15 -3,4 7,14 -3,19 -15,-7 -12,-12 3,-20 -1,-11 -14,-12 -13,4 -7,7 -19,-15 14,18 9,2 13,-6 12,1 2,9 -6,17 2,7 14,14 -12,5 15,-1 13,12 31,1 8,4 -8,7 -4,12 -15,1 -17,9 0,13 -6,6 -2,16 -15,0 10,15 -20,13 -18,0 2,-13 9,-12 -3,-13 11,-7 -1,-20 -13,-7 -3,-25 6,-9 -5,-6 -12,3 -21,-9 -10,6 -8,-6 -12,1 20,9 14,-6 10,6 20,3 -5,9 1,16 4,11 12,4 0,17 -12,10 2,14 -13,22 -22,3 -21,14 -16,4 -16,-1 2,10 10,-7 -4,8 8,-1 4,-7 13,-3 22,-15 19,-1 17,7 7,9 -14,8 -19,-1 -21,4 -53,17 -2,9 -11,11 -11,2 -20,-22 7,-11 -15,11 -10,-20 -20,-6 3,-26 11,-1 4,-10 -5,-12 18,2 3,-7 -7,-8 12,-3 22,-15 -13,-6 -17,7 1,9 -8,10 -11,0 -11,10 2,6 8,2 -5,9 -19,-5 -4,-6 -14,-10 14,18 8,0 -6,26 -8,4 -3,-7 -12,-1 -11,7 7,8 5,-3 5,12 11,3 10,-10 6,11 18,-1 10,18 21,14 -39,27 -4,-4 -6,7 -12,4 -2,-4 -24,14 0,-9 -19,-3 -3,5 10,5 8,11 -2,5 -12,-2 0,-6 -9,-8 1,-19 -5,14 -16,-16 -19,-7 17,-15 2,-11 -7,-11 7,-17 -9,-7 -8,3 -8,10 -6,-17 16,-3 11,-19 -10,-1 -12,-15 -2,-14 6,-7 -11,-22 -12,-5 -5,-10 4,-15 12,-19 -3,-7 20,-19 9,-28 -5,-12 64,6 7,0 27,9 72,18 10,1 -7,-7 -3,-12 -17,-11 2,-15 13,11 6,-6 -4,-9 10,-10 5,2 13,-7 13,1 3,6 12,-35 -3,-5 -40,-39 21,-5 -17,-11 -9,13 -21,-22 11,-9 8,-1 24,18 8,-2 -1,7 6,4 8,-5 22,-5 4,12 6,2 -1,23 21,47ZM2836,1910l9,-1 10,9 -4,6 -22,1 5,-6 -5,-5ZM2826,1915l-8,1 -3,-8 9,-5ZM2838,1888l16,8 3,9 -8,2 -3,-5 -15,4 -9,-18ZM2875,1885l-9,22 0,-10 -6,-13 10,0 7,-13ZM2582,2060l-6,-2 -18,24 -3,7 12,9 11,-12 10,-4 -3,-8 7,2 -9,17 -36,17 -27,15 -12,2 -11,-14 -19,1 0,-25 15,-19 -7,-17 9,-5 14,-1 8,-9 8,1 -4,-7 8,-35 5,5 8,-6 17,-3 -6,-5 18,-8 5,-13 -4,-8 3,-15 26,-22 5,-16 13,-12 3,-8 16,-21 10,-8 12,-29 15,-10 9,2 9,-9 32,-10 11,9 11,-3 3,-14 11,-12 4,-12 12,-14 18,1 2,-4 5,-2 17,13 9,14 14,7 21,18 20,1 29,9 6,10 -11,13 -15,9 -23,18 -12,2 -8,10 3,14 -4,2 -33,-18 -5,5 17,24 -10,0 -2,15 -36,5 4,-24 -9,27 -16,-17 0,-7 -12,-2 -15,5 7,2 -10,5 -26,17 -2,11 -13,16 -7,13 0,15 -6,-1 -10,9 -7,-1 3,-15 -5,5 -6,20 -10,15 -11,7 -2,7 -16,19 -15,-7 -14,14Z"/>
    <path data-fips-int="45053" data-name="Jasper County" d="M1775,2712l16,-3 -17,24 -11,-7 3,-19ZM1764,2711l0,19 20,14 -16,-1 -10,-7 -21,-22 12,-3 7,-9ZM1800,2222l4,12 12,18 -2,6 9,8 3,10 -2,20 -4,11 -1,19 -7,1 -10,-12 -6,4 9,3 15,19 11,35 -5,15 -10,23 -2,13 10,1 4,4 -6,8 -4,12 -11,6 -10,9 3,4 -6,15 -10,-7 -22,1 -8,28 0,16 -40,-5 -11,0 8,9 -1,16 4,12 -17,14 2,23 16,24 19,7 10,12 -3,21 -8,-9 -4,7 8,5 -2,10 10,-3 13,-6 1,6 11,1 -12,4 0,4 22,10 0,4 -13,15 -7,-4 -14,10 -12,2 -15,-7 -4,-9 -13,-8 -22,15 -15,-3 -17,-10 -6,-9 -9,0 -9,-5 0,-24 -9,-18 9,-15 -7,-19 -12,-11 -9,-18 8,-6 3,-18 13,-4 1,-21 -6,-8 1,-21 -11,-12 -10,9 -6,-24 -10,-9 1,-14 -17,-23 -1,-20 13,-12 -9,-5 -26,-31 3,-10 -11,-2 -20,-14 -3,-17 41,-40 12,-6 34,-29 91,-80 10,-10 29,33 6,14 14,7 -3,22 -9,7 3,10 21,4 7,9 13,3Z"/>
    <path data-fips-int="45013" data-name="Beaufort County" d="M1783,2701l9,4 -16,5 -2,-10ZM1822,2666l0,9 -8,13 -18,20 -3,-7 -17,-4 7,-12 -3,-6 6,-12 10,0 10,-10 13,-5 7,5ZM1790,2647l3,2 -11,14 3,3 -9,14 -17,-5 11,-5 6,-16 7,4 0,-10ZM1902,2549l17,16 10,6 12,15 0,9 -15,14 -23,35 -17,14 -51,27 -6,-5 9,-18 16,-17 6,-22 4,-35 8,1 17,-13 -5,-13 11,-12ZM1889,2551l-7,12 2,10 -12,14 -15,0 23,-43ZM2076,2486l10,5 8,13 -18,7 -34,18 -12,10 -17,7 -8,1 1,-12 9,-7 7,-13 -1,-8 16,-6 -9,10 18,-10 10,-11ZM1894,2518l-4,4 -12,-4 -8,-15 -13,-17 10,-2 15,16ZM2053,2487l-5,10 -13,0 -3,-10 17,-7ZM2057,2487l-5,-9 15,-6 7,11ZM1745,2667l-10,3 2,-10 -8,-5 4,-7 8,9 3,-21 -10,-12 -19,-7 -16,-24 -2,-23 17,-14 -4,-12 1,-16 -8,-9 11,0 40,5 0,-16 8,-28 22,-1 10,7 6,-15 -3,-4 10,-9 10,-3 31,35 4,12 -8,12 2,11 -11,5 -19,-12 2,-6 -16,1 -5,-5 3,-10 -18,-12 10,11 2,19 11,6 10,0 18,13 13,-4 5,-20 8,-4 15,23 4,14 -4,13 -9,-1 -7,10 -6,17 7,21 -20,1 -19,-9 -22,6 10,-11 -9,-10 1,11 -6,3 -2,9 8,0 -5,15 9,-14 11,-5 42,16 -15,15 -8,3 -7,13 -15,1 -22,18 -6,-3 10,-15 -17,-4 3,10 -10,2 -7,10 -3,-6 -11,0ZM1822,2440l6,-8 6,2 10,16 6,0 9,30 -7,7 -12,-17 -12,-5 -7,-12ZM2111,2438l-5,9 5,3 -14,39 -5,4 -16,-10 -7,-15 7,0 0,-10 9,-5 17,-24ZM1824,2428l-10,-1 2,-13 10,-23 11,26 0,14ZM2060,2370l15,5 1,9 -8,7 -31,0 -6,-4 -6,-16 4,-12 12,-2ZM1953,2358l20,-4 9,2 9,10 10,3 18,-5 8,16 -1,6 -40,14 -3,12 -10,3 0,14 3,7 3,-16 7,-4 1,-11 32,-12 20,5 36,3 6,7 10,24 -7,17 -26,-3 2,6 -26,14 -17,11 14,20 -13,8 -2,9 -15,19 -1,5 -27,22 -10,0 -5,-6 2,-30 -3,-24 1,-27 15,-14 -7,3 -17,17 -10,-9 2,-10 -2,-14 2,-18 14,-22 -12,-11 -14,-4 -3,-15 3,-13 7,-9ZM1888,2325l43,15 6,12 -8,2 -5,11 1,21 -7,11 8,-4 16,4 4,16 -15,1 -2,9 8,11 -1,23 -5,8 -14,-8 21,20 9,19 -2,28 -4,3 -17,-9 -30,-38 -7,-2 -3,-8 -12,-10 -24,-51 -6,-33 15,-6 7,-27 -1,-9 14,-9ZM2008,2302l6,0 -2,11 9,-2 2,-9 8,28 15,15 -27,2 -6,-18 -17,-27 -7,-5 8,14 -5,9 -22,-9 -24,-17 3,7 29,16 13,9 11,2 10,9 6,17 -19,3 -3,-6 -17,-9 -8,0 -17,6 -16,-12 -44,-10 -11,-5 -4,-11 -7,-2 8,10 -8,11 -9,0 -7,17 1,12 -16,4 -8,-9 -6,-15 -8,-8 6,-15 -1,-19 2,-20 -3,-10 -9,-8 2,-6 -12,-18 -4,-12 22,-32 8,-5 13,13 23,3 9,9 13,1 4,-7 8,7 5,-5 10,6 1,7 13,-7 12,3 -9,5 1,16 10,-2 4,10 -10,2 4,8 11,-3 -5,9 9,16 13,4 7,8 6,-7 8,8 13,-4 4,6 -5,10Z"/>
    <path data-fips-int="45017" data-name="Calhoun County" d="M1973,1315l-7,3 9,22 16,9 -2,10 8,7 16,2 -3,14 23,16 4,5 -8,5 13,13 0,13 13,8 -9,13 14,14 -7,5 0,14 -24,-22 -8,-2 -32,7 -9,5 15,10 -25,34 0,8 9,15 -10,-2 -23,2 -13,-13 -5,-11 -7,-5 1,-13 -81,-70 -50,-12 -27,12 -14,-3 0,-24 -3,-5 -15,15 -54,-69 36,-21 9,2 18,-8 9,-11 10,-3 -6,-7 -19,-12 -10,1 -26,-3 -7,15 -7,0 -2,16 -16,-2 0,-21 8,-15 6,-47 1,-21 17,-8 8,1 4,8 -4,6 11,5 -1,7 16,1 8,4 9,12 8,2 10,-7 -1,19 11,2 17,-6 6,11 31,13 -5,7 9,-2 6,6 28,6 7,-6 3,9 6,-11 6,8 -2,9 11,-10 5,6 1,-8 7,8 11,1 18,-12 8,2 -4,9 12,12Z"/>
  </g>
  <g class="cities">
    <circle r="3" cx="168.4" cy="110.0"/>
    <text x="168.4" y="110.0">Columbia</text>
    <circle r="3" cx="246.1" cy="212.2"/>
    <text x="246.1" y="212.2">Charleston</text>
    <circle r="3" cx="242.9" cy="205.7"/>
    <text x="242.9" y="205.7">North Charleston</text>
  </g>
</svg>