<?xml version="1.0" encoding="utf-8"?>
<!DOCTYPE svg PUBLIC "-//W3C//DTD SVG 1.1//EN" "http://www.w3.org/Graphics/SVG/1.1/DTD/svg11.dtd">
<svg version="1.1" xmlns="http://www.w3.org/2000/svg" width="1000" height="803" viewBox="0 0 1000 803">
  <path class="state" d="M171,307l1,-4 -12,-12 -3,-12 -10,-5 -4,-15 -2,-15 -12,-20h-5l-3,-23 -8,-8h-18l-11,-1 -24,-30h-11l-24,-22 6,-23 9,-5 7,-14 25,-13 -2,-6 5,-11 41,-12 22,-7 4,5 14,-11 23,-6 17,-7 11,1 9,-11 3,8 18,-5 13,1 66,4 5,1 95,4 65,4v11l-6,11 5,3 21,-15 6,8 23,33 -2,29h45l126,1h49l45,44 76,75 67,66 34,33 -1,8 -23,9 -27,19 -16,17 -17,22 -4,9 -11,11 -17,38 -2,31 -5,-24 -14,-2 5,-12 -2,-6 -7,14v8l8,10 8,2 7,11 -10,13 -7,-10 -6,4 10,8 -14,-2 -17,-8 10,7 16,5 -20,15h-9l-1,13 -10,1 -12,-6 -10,8 -7,11 -21,25 -6,1 -7,11 8,-2 -21,12 -11,-5 3,-17 11,-4 2,-11 6,-4 -7,3 -4,11 -10,5 -4,6 -6,-6 1,-13 -4,10 7,4 2,16 -4,6 10,3 -8,10 -4,12 -11,5 4,4 -31,9 -7,6 -16,-14 4,-14 14,-9 -7,-2 -11,10 -4,12 -9,2 18,7 8,6 -11,9 -14,11 -5,-3 -14,-12 5,-5v-12l-6,3 4,-3v13l-4,1 1,14 -14,1 -14,-17h-5l11,14 -8,2 -38,-9 -13,11 -6,-9 2,-10 -4,9 5,19 -1,10h1l7,6 1,10 -8,-4 -2,-9 -5,6 14,10 7,14 -7,9 1,12 -19,14h-13l11,6 -4,6 -25,-1 -16,-8 1,-14 -9,-17 7,-8 -1,-13 -7,-1 -9,-20v-11l-15,-21 -10,-1 -18,-16 6,-5 -8,-12 5,-11 -4,-11 1,-11 -16,-23 1,-18 -13,-9 -10,-12 -19,-5 -12,-13 2,-7 -10,-3 -10,-10 -1,-8 -9,-15 -7,1 -1,-16 7,-8 -11,-9 -8,-12 -9,-10 -12,-6 -13,-5 -3,-12 -8,-7v-8l-12,-18 -25,-15 -20,-19 -4,-1ZM617,671l-11,8v-16ZM759,572l16,-6 -1,6 -14,8ZM728,604l14,-13 3,5ZM603,695l-6,16 -6,-6ZM593,709l5,5 -23,12 2,-12ZM558,671l19,3 -2,8 18,3 3,12 -19,8 3,7 -9,12 -12,5v-26l-5,1 3,-18 -7,-4v-9ZM588,675l2,7 -10,-2v-9ZM539,663l14,7 -4,3 2,30 4,17 -7,-3 -6,-12 -6,-1 -10,-28 6,-11ZM543,727l11,13 -12,16 -17,10 7,-25ZM521,760l-7,11 -6,-2 1,-9Z"/>
  <g class="counties">
    <path data-fips-int="45001" data-name="Abbeville County" d="M241,213l-17,16 5,5v11l9,8 4,19 -5,13 -13,10 -25,1 -4,-5 -11,1 -13,15 1,-4 -12,-12 -3,-12 -10,-5 -4,-15 40,-30 46,-34Z"/>
    <path data-fips-int="45003" data-name="Aiken County" d="M451,396l-38,38 -31,28 -46,42 -10,-3 -10,-10 -1,-8 -9,-15 -7,1 -1,-16 7,-8 -11,-9 -8,-12 23,-23 49,-45 16,-14 14,17 10,3 5,12 30,11Z"/>
    <path data-fips-int="45005" data-name="Allendale County" d="M449,524l13,15 9,7 -25,14 -6,14 -8,8 3,9 -17,17 -12,5 -4,-11 1,-11 -16,-23 1,-18 -13,-9 -10,-12 14,-16 35,13Z"/>
    <path data-fips-int="45007" data-name="Anderson County" d="M229,195l-46,34 -40,30 -2,-15 -12,-20h-5l-3,-23 -8,-8h-18l30,-33 15,-14 56,-32 6,10 -3,9v20l9,25Z"/>
    <path data-fips-int="45009" data-name="Bamberg County" d="M529,510l-20,12 3,7 -3,8 -12,-8 -26,17 -9,-7 -13,-15 -7,-11 2,-9 1,-51 -2,-7 8,8 21,8 29,20 17,13Z"/>
    <path data-fips-int="45011" data-name="Barnwell County" d="M443,446l2,7 -1,51 -2,9 7,11 -35,2 -35,-13 -14,16 -19,-5 -12,-13 2,-7 46,-42 31,-28 15,3Z"/>
    <path data-fips-int="45021" data-name="Cherokee County" d="M416,33l-7,10 -1,19 -15,2 1,12 -2,11 6,24 -5,-6 -21,-6 -7,4 -5,-7 -12,-2 -8,-5 -7,-25 -17,-36 5,1Z"/>
    <path data-fips-int="45023" data-name="Chester County" d="M508,116l4,7 3,23 -6,6v11l3,19 -107,-7 1,-15 -8,-10v-11l-6,-3 7,-6 -6,-14Z"/>
    <path data-fips-int="45025" data-name="Chesterfield County" d="M719,184l-9,9 -34,1 -48,30 -7,-16 -1,-18 -9,-9 -6,-16 -5,-11 -8,-5 -4,-10 -15,-22 126,1v10l6,5 4,12 9,9 7,2Z"/>
    <path data-fips-int="45027" data-name="Clarendon County" d="M711,339l-8,16 -16,12 5,11 -21,44 -4,11 -10,2 -3,8 -11,2 -27,4 -16,-12 -6,-11 4,-4 -10,-4 -9,-17 2,-3 10,-17 10,-7v8l7,-1 -1,-13 24,-5 15,-13 17,-7 28,-19 6,15Z"/>
    <path data-fips-int="45031" data-name="Darlington County" d="M719,184l3,11 18,-2 -6,6 8,16h4v12l7,11 -5,5 -9,-3 -4,12 -11,-2 -53,41 -16,-18 9,-8 -5,-21 -8,-8 -1,-12 -13,10 -9,-9v-1l48,-30 34,-1Z"/>
    <path data-fips-int="45033" data-name="Dillon County" d="M869,237l-11,12 -9,-8 -9,8 -19,-4 -10,-6 -23,3 -13,9v5l-2,-7 -15,-9 35,-78Z"/>
    <path data-fips-int="45035" data-name="Dorchester County" d="M615,490l6,13 7,5 -3,9 34,29 -6,4 17,16v11h-6l-12,9 7,9 -31,-9 -20,-1v-19l-3,-6 5,-19 -14,-4 -27,1 -6,-2 -20,-24 -14,-3 58,-37 3,13Z"/>
    <path data-fips-int="45037" data-name="Edgefield County" d="M358,356l-49,45 -23,23 -9,-10 -12,-6 5,-9 -14,-14 -4,-8 3,-11 11,-14 -9,-16 1,-8 22,-5 8,-3 22,-3 5,21 6,6Z"/>
    <path data-fips-int="45039" data-name="Fairfield County" d="M512,182l-4,14 3,7 10,11h8l3,9 -10,25 -49,9 -4,5 -18,-2 1,11 -9,-8 -18,-8 -16,-37 -5,-24 1,-19Z"/>
    <path data-fips-int="45041" data-name="Florence County" d="M775,256l-4,9 11,20 -3,6 8,33 21,16 4,8 11,5 -3,5 -11,-5 -10,9 -12,2 -30,-8h-16l-3,-6h-12l-6,-10 -9,-1h-14l-6,-15 15,-10 -21,-13 -14,-10 53,-41 11,2 4,-12 9,3 5,-5 5,2 15,9Z"/>
    <path data-fips-int="45045" data-name="Greenville County" d="M250,24l-4,83 16,16 -18,46v14l-15,12 -21,-17 -9,-25v-20l3,-9 -6,-10 -1,-20 -5,-4 -4,-23 -11,1 3,-15 -14,3 -22,-2 14,-11 23,-6 17,-7 11,1 9,-11 3,8 18,-5Z"/>
    <path data-fips-int="45047" data-name="Greenwood County" d="M300,263l15,16 -9,11 -6,13 -9,9 -3,8 -8,3v-8l-21,-1 -9,2 -9,-9 -13,10 -4,-22 13,-10 5,-13 -4,-19 -9,-8v-11l-5,-5 17,-16 15,13 1,6 17,8Z"/>
    <path data-fips-int="45049" data-name="Hampton County" d="M522,623l-8,10 -6,9 -13,-5 3,-10 -13,-16 -22,20 -32,27 -10,-1 -18,-16 6,-5 -8,-12 5,-11 12,-5 17,-17 -3,-9 8,-8 6,-14 25,-14 8,8 11,21 18,16 9,24Z"/>
    <path data-fips-int="45051" data-name="Horry County" d="M886,411l-19,1 -5,-8 -1,-12 -13,-13 -11,-17 -3,-23 -8,-5 -7,-18 5,-14 12,-7v-8l6,-14 16,-24 11,-12 67,66 34,33 -1,8 -23,9 -27,19 -16,17Z"/>
    <path data-fips-int="45055" data-name="Kershaw County" d="M628,224v1l-15,6 3,9 -17,4 2,14 -11,14 -19,16h-7l-21,8 -30,-27 9,-21 10,-25 -3,-9h-8l-10,-11 28,-18v13l10,-9 5,8 13,-5 10,2 5,-5 -6,-11 29,-13 6,16 9,9 1,18Z"/>
    <path data-fips-int="45057" data-name="Lancaster County" d="M573,117l15,22 4,10 8,5 5,11 -29,13 6,11 -5,5 -10,-2 -13,5 -5,-8 -10,9v-13l-28,18 -3,-7 4,-14 -3,-19v-11l6,-6 -3,-23 -4,-7 5,-5 -2,-14 2,-14 -4,-8 -2,-20 23,33 -2,29Z"/>
    <path data-fips-int="45059" data-name="Laurens County" d="M319,169l9,5 27,5 6,6 -16,19 -17,25 -17,11 -3,12 -8,11 -26,-23 -17,-8 -1,-6 -15,-13 -12,-18 15,-12v-14l18,-46 5,9 7,1 4,10 12,9 11,4 11,13Z"/>
    <path data-fips-int="45061" data-name="Lee County" d="M671,291l14,10 -4,9h-9l-22,14 -1,-13 -12,3 -4,-10 -6,-1 -4,-11h-17l-16,-7v-13l11,-14 -2,-14 17,-4 -3,-9 15,-6 9,9 13,-10 1,12 8,8 5,21 -9,8Z"/>
    <path data-fips-int="45063" data-name="Lexington County" d="M486,341l-6,2 -4,30 11,-8 14,4 -4,6 -18,8 -28,13 -18,-11 -30,-11 -5,-12 -10,-3 -14,-17 20,-48 17,-2 -10,-11 7,-11 13,-5 8,9 -3,5 6,9 17,1 13,9 5,9 10,7 8,16Z"/>
    <path data-fips-int="45065" data-name="McCormick County" d="M224,295l4,22 13,-10 9,9 9,-2 21,1v8l-22,5 -1,8 9,16 -11,14 -3,11 4,8 14,14 -5,9 -13,-5 -3,-12 -8,-7v-8l-12,-18 -25,-15 -20,-19 -4,-1 -9,-16 13,-15 11,-1 4,5Z"/>
    <path data-fips-int="45067" data-name="Marion County" d="M858,249l-16,24 -6,14v8l-12,7 -5,14 7,18 8,5 3,23 11,17 -9,4 -11,-7 -7,-14 -1,-4 3,-5 -11,-5 -4,-8 -21,-16 -8,-33 3,-6 -11,-20 4,-9v-5l13,-9 23,-3 10,6 19,4 9,-8Z"/>
    <path data-fips-int="45069" data-name="Marlboro County" d="M793,162l-35,78 -5,-2 -7,-11v-12h-4l-8,-16 6,-6 -18,2 -3,-11 6,-28 -7,-2 -9,-9 -4,-12 -6,-5v-10h49Z"/>
    <path data-fips-int="45071" data-name="Newberry County" d="M404,194l5,24 16,37 -4,10 -13,5 -7,11 10,11 -17,2 -14,-2 -30,-22 -8,-3 -10,5 -17,-1v8l-15,-16 8,-11 3,-12 17,-11 17,-25 16,-19 18,13 2,8 14,-12Z"/>
    <path data-fips-int="45073" data-name="Oconee County" d="M125,160l-30,33 -11,-1 -24,-30h-11l-24,-22 6,-23 9,-5 7,-14 25,-13 -2,-6 5,-11 41,-12 -3,12 -6,2 7,14v28l3,15 -3,5 8,3Z"/>
    <path data-fips-int="45075" data-name="Orangeburg County" d="M588,418l10,4 -4,4 6,11 16,12 27,-4 -6,35 -13,8 -9,2 -25,-5 -3,-13 -58,37v1l-11,-15 -17,-13 -29,-20 -21,-8 -8,-8 -15,-9 -15,-3 38,-38 28,-13 15,19 6,4 12,-3 15,4 21,19 8,14h9l1,-20 13,-3 8,7Z"/>
    <path data-fips-int="45077" data-name="Pickens County" d="M142,54l22,2 14,-3 -3,15 11,-1 4,23 5,4 1,20 -56,32 -15,14 -3,-25 -8,-3 3,-5 -3,-15v-28l-7,-14 6,-2 3,-12 22,-7Z"/>
    <path data-fips-int="45079" data-name="Richland County" d="M564,288l-4,6 7,13 -8,6 5,32 -3,4 6,10 -3,15 -9,-8 -10,4 -6,-4 -12,1 -16,-11 -7,1 -18,-16 -1,-11 -8,-16 -10,-7 -5,-9 -13,-9 -17,-1 -6,-9 3,-5 -8,-9 4,-10 18,8 9,8 -1,-11 18,2 4,-5 49,-9 -9,21 30,27Z"/>
    <path data-fips-int="45081" data-name="Saluda County" d="M394,294l-20,48 -16,14 -37,-12 -6,-6 -5,-21 -22,3 3,-8 9,-9 6,-13 9,-11v-8l17,1 10,-5 8,3 30,22Z"/>
    <path data-fips-int="45083" data-name="Spartanburg County" d="M348,94l-14,17 -8,38 -7,20h-7l-11,-13 -11,-4 -12,-9 -4,-10 -7,-1 -5,-9 -16,-16 4,-83 66,4 17,36 7,25Z"/>
    <path data-fips-int="45085" data-name="Sumter County" d="M650,324l22,-14h9l4,-9 21,13 -15,10 -28,19 -17,7 -15,13 -24,5 1,13 -7,1v-8l-10,7 -10,17 -17,-16v-8l3,-15 -6,-10 3,-4 -5,-32 8,-6 -7,-13 4,-6h7l19,-16v13l16,7h17l4,11 6,1 4,10 12,-3Z"/>
    <path data-fips-int="45087" data-name="Union County" d="M398,111l-5,5 6,14 -7,6 6,3v11l8,10 -1,15 -1,19h-9l-14,12 -2,-8 -18,-13 -6,-6 -27,-5 -9,-5 7,-20 8,-38 14,-17 12,2 5,7 7,-4 21,6Z"/>
    <path data-fips-int="45089" data-name="Williamsburg County" d="M820,358l1,4 -3,3 -15,22 -4,18 1,8 -11,12 -11,8 -17,26 -9,10v9l-12,-4 -11,-13 -11,-7 -6,-8 -18,-15 -26,-1 -1,3 4,-11 21,-44 -5,-11 16,-12 8,-16 9,1 6,10h12l3,6h16l30,8 12,-2 10,-9Z"/>
    <path data-fips-int="45091" data-name="York County" d="M507,55l2,20 4,8 -2,14 2,14 -5,5h-115l5,-5 -6,-24 2,-11 -1,-12 15,-2 1,-19 7,-10 65,4v11l-6,11 5,3 21,-15Z"/>
    <path data-fips-int="45015" data-name="Berkeley County" d="M752,478l24,7 5,6 16,3 2,5 -6,1 -9,15 -5,-2 -19,7 -3,8 -22,27v10l-6,1 -7,3 -4,11 -10,5 -4,6 -6,-6 1,-13 -13,3 -8,-24 -9,3 -10,-8 -34,-29 3,-9 -7,-5 -6,-13 9,-2 13,-8 6,-35 11,-2 3,-8 10,-2 1,-3 26,1 18,15 6,8 11,7 11,13Z"/>
    <path data-fips-int="45029" data-name="Colleton County" d="M617,671l-11,8v-16ZM529,509l14,3 20,24 6,2 27,-1 14,4 -5,19 3,6v27l-9,15 6,23 5,3 -5,12 4,-3v13l-4,1 1,14 -14,1 -14,-17h-5l-10,-3 -10,-10 -2,-9 -18,-4 -11,-6 -5,-8 -9,-24 -18,-16 -11,-21 -8,-8 26,-17 12,8 3,-8 -3,-7 20,-12Z"/>
    <path data-fips-int="45043" data-name="Georgetown County" d="M848,379l13,13 1,12 5,8 19,-1 -4,9 -11,11 -17,38 -2,31 -5,-24 -14,-2 5,-12 -2,-6 -7,14v8l8,10 8,2 7,11 -10,13 -7,-10 -6,4 10,8 -14,-2 -17,-8 -9,-7 -2,-5 -16,-3 -5,-6 -24,-7v-9l9,-10 17,-26 11,-8 11,-12 -1,-8 4,-18 15,-22 3,-3 7,14 11,7Z"/>
    <path data-fips-int="45019" data-name="Charleston County" d="M738,586l-7,11 8,-2 -21,12 -11,-5 3,-17 11,-4 2,-11 6,-4 6,-1v-10l22,-27 3,-8 19,-7 5,2 9,-15 6,-1 9,7 10,7 16,5 -20,15h-9l-1,13 -10,1 -12,-6 -10,8 -7,11 -21,25ZM759,572l16,-6 -1,6 -14,8ZM728,604l14,-13 3,5ZM699,572l-4,10 7,4 2,16 -4,6 10,3 -8,10 -4,12 -11,5 4,4 -31,9 -7,6 -16,-14 4,-14 14,-9 -7,-2 -11,10 -4,12 -9,2 18,7 8,6 -11,9 -19,8 -14,-12 5,-5v-12l-6,3 5,-12 -5,-3 -6,-23 9,-15v-8l20,1 31,9 -7,-9 12,-9h6v-11l-17,-16 6,-4 10,8 9,-3 8,24Z"/>
    <path data-fips-int="45053" data-name="Jasper County" d="M514,633l7,21 -4,9 5,19 -1,10h1l-2,3 -5,6 -3,7 -9,-1 -2,13 -14,-2 3,10 -5,12 12,10 1,10 11,6 -4,6 -25,-1 -16,-8 1,-14 -9,-17 7,-8 -1,-13 -7,-1 -9,-20v-11l-15,-21 32,-27 22,-20 13,16 -3,10 13,5Z"/>
    <path data-fips-int="45013" data-name="Beaufort County" d="M603,695l-6,16 -6,-6ZM593,709l5,5 -23,12 2,-12ZM558,671l19,3 -2,8 18,3 3,12 -19,8 3,7 -9,12 -12,5v-26l-5,1 3,-18 -7,-4v-9ZM588,675l2,7 -10,-2v-9ZM573,655l11,14 -8,2 -38,-9 -13,11 -6,-9 2,-10 -7,-21 8,-10 11,6 18,4 2,9 10,10ZM539,663l14,7 -4,3 2,30 4,17 -7,-3 -6,-12 -6,-1 -10,-28 6,-11ZM543,727l11,13 -12,16 -17,10 7,-25ZM498,760l-1,-10 -12,-10 5,-12 -3,-10 14,2 2,-13 9,1 3,-7 14,10 7,14 -7,9 1,12 -19,14ZM520,695l2,-3 7,6 1,10 -8,-4ZM521,760l-7,11 -6,-2 1,-9Z"/>
    <path data-fips-int="45017" data-name="Calhoun County" d="M564,374v8l17,16 -2,3 9,17 -1,6 -8,-7 -13,3 -1,20h-9l-8,-14 -21,-19 -15,-4 -12,3 -6,-4 -15,-19 18,-8 4,-6 -14,-4 -11,8 4,-30 6,-2 18,16 7,-1 16,11 12,-1 6,4 10,-4Z"/>
  </g>
  <path class="mesh" d="M286,424l23,-23 49,-45 16,-14 14,17 10,3 5,12 30,11 18,11 -38,38 -31,28 -46,42M365,529l14,-16 35,13 35,-2 13,15 9,7 -25,14 -6,14 -8,8 3,9 -17,17 -12,5M250,24l-4,83 16,16 -18,46v14l-15,12M413,434l15,3 15,9M416,33l-7,10 -1,19 -15,2 1,12 -2,11 6,24 -5,-6 -21,-6 -7,4 -5,-7 -12,-2 -8,-5 -7,-25 -17,-36M699,118v10l6,5 4,12 9,9 7,2 -6,28 -9,9 -34,1 -48,30 -7,-16 -1,-18 -9,-9 -6,-16 -5,-11 -8,-5 -4,-10 -15,-22M775,256l-4,9 11,20 -3,6 8,33 21,16 4,8 11,5 -3,5 -11,-5 -10,9 -12,2 -30,-8h-16l-3,-6h-12l-6,-10 -9,-1 -8,16 -16,12 5,11 -21,44 -4,11 -10,2 -3,8 -11,2 -27,4 -16,-12 -6,-11 4,-4 -10,-4 -9,-17 2,-3 10,-17 10,-7v8l7,-1 -1,-13 24,-5 15,-13 17,-7 28,-19 6,15h14M719,184l3,11 18,-2 -6,6 8,16h4v12l7,11 -5,5 -9,-3 -4,12 -11,-2 -53,41 -16,-18 9,-8 -5,-21 -8,-8 -1,-12 -13,10 -9,-9v-1M869,237l-11,12 -9,-8 -9,8 -19,-4 -10,-6 -23,3 -13,9v5l-2,-7 -15,-9 35,-78M643,445l-6,35 -13,8 -9,2 6,13 7,5 -3,9 34,29 -6,4 17,16v11h-6l-12,9 7,9 -31,-9 -20,-1v-19l-3,-6 5,-19 -14,-4 -27,1 -6,-2 -20,-24 -14,-3 58,-37 3,13 25,5M265,408l5,-9 -14,-14 -4,-8 3,-11 11,-14 -9,-16 1,-8 22,-5 8,-3 22,-3 5,21 6,6 37,12M512,182l-4,14 3,7 10,11h8l3,9 -10,25 -49,9 -4,5 -18,-2 1,11 -9,-8 -18,-8 -16,-37 -5,-24 1,-19M691,324l15,-10 -21,-13 -14,-10M753,238l5,2M196,114l-1,-20 -5,-4 -4,-23 -11,1 3,-15 -14,3 -22,-2M241,213l15,13 1,6 17,8 26,23 15,16 -9,11 -6,13 -9,9 -3,8M449,524l-7,-11 2,-9 1,-51 -2,-7 8,8 21,8 29,20 17,13 11,15 -20,12 3,7 -3,8 -12,-8 -26,17 8,8 11,21 18,16 9,24 5,8 -8,10 -6,9 -13,-5 3,-10 -13,-16 -22,20 -32,27M886,411l-19,1 -5,-8 -1,-12 -13,-13 -11,-17 -3,-23 -8,-5 -7,-18 5,-14 12,-7v-8l6,-14 16,-24M628,225l-15,6 3,9 -17,4 2,14 -11,14 -19,16h-7l-21,8 -30,-27 9,-21M511,203l28,-18v13l10,-9 5,8 13,-5 10,2 5,-5 -6,-11 29,-13M508,116l4,7 3,23 -6,6v11l3,19 -107,-7 1,-15 -8,-10v-11l-6,-3 7,-6 -6,-14h115l5,-5 -2,-14 2,-14 -4,-8 -2,-20M262,123l5,9 7,1 4,10 12,9 11,4 11,13h7l9,5 27,5 6,6 -16,19 -17,25 -17,11 -3,12 -8,11M280,323v-8l-21,-1 -9,2 -9,-9 -13,10 -4,-22 -25,1 -4,-5 -11,1 -13,15M685,301l-4,9h-9l-22,14 -1,-13 -12,3 -4,-10 -6,-1 -4,-11h-17l-16,-7v-13M374,342l20,-48 17,-2 -10,-11 7,-11 13,-5 8,9 -3,5 6,9 17,1 13,9 5,9 10,7 8,16 1,11 -6,2 -4,30 11,-8 14,4 -4,6 -18,8 -28,13M848,379l-9,4 -11,-7 -7,-14 -1,-4M425,255l-4,10M394,294l-14,-2 -30,-22 -8,-3 -10,5 -17,-1v8M361,185l18,13 2,8 14,-12h9M116,56l-3,12 -6,2 7,14v28l3,15 -3,5 8,3 3,25M529,509v1M479,383l15,19 6,4 12,-3 15,4 21,19 8,14h9l1,-20 13,-3 8,7 1,-6M564,288l-4,6 7,13 -8,6 5,32 -3,4 6,10 -3,15 -9,-8 -10,4 -6,-4 -12,1 -16,-11 -7,1 -18,-16M348,94l-14,17 -8,38 -7,20M581,398l-17,-16v-8M398,111l-5,5M821,362l-3,3 -15,22 -4,18 1,8 -11,12 -11,8 -17,26 -9,10v9l-12,-4 -11,-13 -11,-7 -6,-8 -18,-15 -26,-1 -1,3M752,478l24,7 5,6 16,3 2,5 -6,1 -9,15 -5,-2 -19,7 -3,8 -22,27v10l-6,1M699,572l-13,3 -8,-24 -9,3 -10,-8M608,585v8l-9,15 6,23 5,3 -5,12M573,655l-10,-3 -10,-10 -2,-9 -18,-4 -11,-6M808,506l-9,-7M514,633l7,21M522,692l-2,3M515,701l-3,7 -9,-1 -2,13 -14,-2 3,10 -5,12 12,10 1,10M143,259l40,-30 46,-34 12,18 -17,16 5,5v11l9,8 4,19 -5,13 -13,10M95,193l30,-33 15,-14 56,-32 6,10 -3,9v20l9,25 21,17"/>
  <g class="cities">
    <circle r="7" cx="481" cy="313"/>
    <text x="481" y="313">Columbia</text>
    <circle r="7" cx="703" cy="605"/>
    <text x="703" y="605">Charleston</text>
    <circle r="7" cx="483" cy="92"/>
    <text x="483" y="92">Rock Hill</text>
  </g>
</svg>