<?xml version="1.0" encoding="utf-8"?>
<!DOCTYPE svg PUBLIC "-//W3C//DTD SVG 1.1//EN" "http://www.w3.org/Graphics/SVG/1.1/DTD/svg11.dtd">
<svg version="1.1" xmlns="http://www.w3.org/2000/svg" width="350" height="218" viewBox="0 0 350 218">
  <g class="counties" transform="scale(0.1)">
    <path data-fips-int="46003" data-name="Aurora County" d="M2569,1332l6,209 -166,4 -38,1 -4,-199 -6,-61 204,-5Z"/>
    <path data-fips-int="46005" data-name="Beadle County" d="M2705,864l50,-1 5,51 5,208 -206,5 -155,3 -7,-261Z"/>
    <path data-fips-int="46007" data-name="Bennett County" d="M1318,1615l-2,233 -371,-7 2,-77 -12,-2 2,-154Z"/>
    <path data-fips-int="46009" data-name="Bon Homme County" d="M2876,1730l5,189 -18,14 -22,-16 -14,14 -27,-20 -53,61 -34,5 -54,-44 16,-24 7,-60 -9,-74 14,-38Z"/>
    <path data-fips-int="46011" data-name="Brookings County" d="M3354,892l8,207 -186,9 -102,4 -6,-208 101,-4Z"/>
    <path data-fips-int="46013" data-name="Brown County" d="M2683,88l5,207 5,206 -307,5 -4,0 -5,-206 -3,-207Z"/>
    <path data-fips-int="46015" data-name="Brule County" d="M2371,1546l-218,3 8,-17 -26,-31 -17,-46 -40,-9 27,-17 0,-46 25,-11 18,-37 -25,-26 3,-19 183,-4 52,0 6,61Z"/>
    <path data-fips-int="46017" data-name="Buffalo County" d="M2308,1131l1,155 -183,4 4,-31 -30,-30 -40,-9 -24,-26 9,-32 -15,-25 118,-2Z"/>
    <path data-fips-int="46019" data-name="Butte County" d="M608,512l-4,104 -11,258 -257,-9 -108,-5 -63,12 -3,-1 -33,4 11,-253 7,0 5,-128 219,10Z"/>
    <path data-fips-int="46021" data-name="Campbell County" d="M1963,96l2,208 -299,-1 13,-34 28,-6 12,-27 -34,-67 12,-22 -27,-13 -36,-39Z"/>
    <path data-fips-int="46023" data-name="Charles Mix County" d="M2371,1546l38,-1 2,77 15,-2 246,99 15,18 -14,38 9,74 -7,60 -16,24 -140,-61 -14,-30 -11,-25 -40,-20 -28,2 -44,-44 -38,-5 -8,-48 -40,-10 -47,-43 -41,-64 -57,-12 2,-24Z"/>
    <path data-fips-int="46025" data-name="Clark County" d="M2900,549l8,206 3,155 -151,4 -5,-51 -50,1 -3,-155 -4,-1 -3,-154Z"/>
    <path data-fips-int="46027" data-name="Clay County" d="M3241,1768l8,225 -108,-36 -38,1 -10,-15 -7,-169 103,-4Z"/>
    <path data-fips-int="46029" data-name="Codington County" d="M3011,544l145,-5 5,103 3,104 -256,9 -8,-206Z"/>
    <path data-fips-int="46031" data-name="Corson County" d="M1634,95l36,39 27,13 -12,22 34,67 -12,27 -28,6 -13,34 -22,29 13,22 32,2 15,20 -163,0 -308,-3 -221,-4 5,-281 228,5Z"/>
    <path data-fips-int="46033" data-name="Custer County" d="M641,1422l-17,14 -26,-8 -12,34 -30,7 -2,76 -455,-19 10,-225 587,23 -7,35Z"/>
    <path data-fips-int="46035" data-name="Davison County" d="M2722,1328l6,210 -63,2 -90,1 -6,-209Z"/>
    <path data-fips-int="46037" data-name="Day County" d="M3003,302l5,156 3,86 -111,5 -205,5 -2,-53 -5,-206 253,-8 2,17Z"/>
    <path data-fips-int="46039" data-name="Deuel County" d="M3342,634l12,258 -185,8 -5,-154 -3,-104Z"/>
    <path data-fips-int="46041" data-name="Dewey County" d="M1704,376l25,50 -14,37 22,47 -5,48 -20,37 17,44 -49,3 -11,20 8,57 2,24 -62,56 -28,-5 -35,-35 -10,35 -23,7 -23,-15 -42,5 -37,30 -51,-15 1,-147 -153,-1 7,-27 2,-206 8,-52 308,3Z"/>
    <path data-fips-int="46043" data-name="Douglas County" d="M2575,1541l90,-1 7,179 -246,-99 -15,2 -2,-77Z"/>
    <path data-fips-int="46045" data-name="Edmunds County" d="M2377,300l5,206 -356,4 -56,0 -2,-206Z"/>
    <path data-fips-int="46047" data-name="Fall River County" d="M554,1545l-10,283 -217,-8 -240,-12 12,-282Z"/>
    <path data-fips-int="46049" data-name="Faulk County" d="M2382,506l4,0 3,208 -251,2 -110,2 -2,-208Z"/>
    <path data-fips-int="46051" data-name="Grant County" d="M3324,427l8,14 10,193 -181,8 -5,-103 -145,5 -3,-86 93,-3 5,-20Z"/>
    <path data-fips-int="46053" data-name="Gregory County" d="M2153,1549l-2,24 57,12 41,64 47,43 40,10 8,48 38,5 44,44 28,-2 40,20 11,25 -450,7 -4,-299Z"/>
    <path data-fips-int="46055" data-name="Haakon County" d="M1368,806l-9,34 -1,206 -9,25 0,80 54,1 -2,103 -7,0 -404,-6 4,-200 5,-108 1,-1 0,-3 45,-11 37,8 25,-24 35,-12 56,12 33,-41 59,-23 43,-10Z"/>
    <path data-fips-int="46057" data-name="Hamlin County" d="M3164,746l5,154 -101,4 -157,6 -3,-155Z"/>
    <path data-fips-int="46059" data-name="Hand County" d="M2389,714l5,0 3,155 7,261 -96,1 -160,4 -2,-206 -6,-4 -2,-209Z"/>
    <path data-fips-int="46061" data-name="Hanson County" d="M2772,1328l104,-3 5,207 -153,6 -6,-210Z"/>
    <path data-fips-int="46063" data-name="Harding County" d="M628,76l-4,127 -5,8 -5,198 -6,103 -237,-8 -219,-10 20,-435 125,6Z"/>
    <path data-fips-int="46065" data-name="Hughes County" d="M1987,926l5,0 1,197 -20,20 43,20 -8,31 -60,-23 -40,9 -33,-44 20,-24 -83,-43 -67,-10 -51,-16 -9,-51 -13,-12 -55,9 -15,-11 24,-51Z"/>
    <path data-fips-int="46067" data-name="Hutchinson County" d="M2881,1532l92,-2 7,196 -104,4 -189,7 -15,-18 -7,-179 63,-2Z"/>
    <path data-fips-int="46069" data-name="Hyde County" d="M2028,718l110,-2 2,209 6,4 2,206 -118,2 -37,-14 -1,-197 -5,0 0,-208Z"/>
    <path data-fips-int="46071" data-name="Jackson County" d="M1394,1255l-1,91 -32,0 -40,36 -3,233 -381,-7 2,-52 -12,-1 0,-133 55,-4 2,-144 6,-25Z"/>
    <path data-fips-int="46073" data-name="Jerauld County" d="M2404,1130l155,-3 6,154 -204,5 -52,0 -1,-155Z"/>
    <path data-fips-int="46075" data-name="Jones County" d="M1692,1153l0,192 12,0 0,77 -15,-13 -42,9 -36,-9 -17,-18 -37,33 -8,-7 -10,7 -8,-11 -2,-2 -3,0 -37,-16 -26,-33 -30,-9 -40,-7 1,-91 7,0 2,-103Z"/>
    <path data-fips-int="46077" data-name="Kingsbury County" d="M2911,910l157,-6 6,208 -103,4 -204,6 -2,0 -5,-208Z"/>
    <path data-fips-int="46079" data-name="Lake County" d="M3074,1112l102,-4 10,206 -103,5 -103,2 -9,-205Z"/>
    <path data-fips-int="46081" data-name="Lawrence County" d="M336,865l-11,207 51,2 -1,69 -260,-12 14,-256 33,-4 3,1 63,-12Z"/>
    <path data-fips-int="46083" data-name="Lincoln County" d="M3319,1515l0,29 35,34 0,56 -22,7 7,35 41,4 12,81 -151,7 -52,2 -12,-248Z"/>
    <path data-fips-int="46085" data-name="Lyman County" d="M2030,1137l15,25 -9,32 24,26 40,9 30,30 -4,31 -3,19 25,26 -18,37 -25,11 0,46 -27,17 40,9 17,46 26,31 -8,17 -102,1 -38,0 -2,-144 -74,19 -30,24 -12,-18 -58,1 -33,4 -54,-12 -46,-2 0,-77 -12,0 0,-192 0,-16 183,-1 33,44 40,-9 60,23 8,-31 -43,-20 20,-20Z"/>
    <path data-fips-int="46087" data-name="McCook County" d="M2980,1321l103,-2 6,207 -116,4 -92,2 -5,-207Z"/>
    <path data-fips-int="46089" data-name="McPherson County" d="M2374,93l3,207 -409,4 -3,0 -2,-208Z"/>
    <path data-fips-int="46091" data-name="Marshall County" d="M2995,78l8,224 -60,2 -2,-17 -253,8 -5,-207Z"/>
    <path data-fips-int="46093" data-name="Meade County" d="M1007,627l-7,310 0,3 -1,1 -45,37 -40,10 -9,-13 -38,12 5,24 -30,52 0,39 -18,34 5,22 -454,-15 1,-69 -51,-2 11,-207 257,9 11,-258Z"/>
    <path data-fips-int="46095" data-name="Mellette County" d="M1433,1353l30,9 26,33 37,16 3,0 2,2 8,11 10,-7 8,7 37,-33 17,18 36,9 42,-9 15,13 46,2 0,140 9,52 -441,-1 3,-233 40,-36 32,0Z"/>
    <path data-fips-int="46097" data-name="Miner County" d="M2971,1116l9,205 -104,4 -104,3 -5,-206Z"/>
    <path data-fips-int="46099" data-name="Minnehaha County" d="M3372,1306l10,207 -63,2 -142,7 -83,3 -5,1 -6,-207 103,-5Z"/>
    <path data-fips-int="46101" data-name="Moody County" d="M3372,1306l-186,8 -10,-206 186,-9Z"/>
    <path data-fips-int="46103" data-name="Pennington County" d="M990,1249l-6,25 -2,144 -55,4 -12,7 -274,-7 48,-63 7,-35 -587,-23 6,-170 260,12 454,15 -5,-22 18,-34 0,-39 30,-52 -5,-24 38,-12 9,13 40,-10 45,-37 -5,108Z"/>
    <path data-fips-int="46105" data-name="Perkins County" d="M1017,88l-5,281 -5,258 -403,-11 4,-104 6,-103 5,-198 5,-8 4,-127Z"/>
    <path data-fips-int="46107" data-name="Potter County" d="M1970,510l56,0 2,208 -41,0 -310,1 -8,-57 11,-20 49,-3 -17,-44 20,-37 5,-48Z"/>
    <path data-fips-int="46109" data-name="Roberts County" d="M3324,427l-218,8 -5,20 -93,3 -5,-156 -8,-224 274,-11 -3,65 -29,48 -74,62 -5,25 39,51 35,62 29,1 50,21Z"/>
    <path data-fips-int="46111" data-name="Sanborn County" d="M2765,1122l2,0 5,206 -50,0 -153,4 -4,-51 -6,-154Z"/>
    <path data-fips-int="46113" data-name="Shannon County" d="M927,1422l0,133 12,1 -2,52 -2,154 12,2 -2,77 -401,-13 10,-283 2,-76 30,-7 12,-34 26,8 17,-14 274,7Z"/>
    <path data-fips-int="46115" data-name="Spink County" d="M2693,501l2,53 3,154 4,1 3,155 -308,5 -3,-155 -5,0 -3,-208Z"/>
    <path data-fips-int="46117" data-name="Stanley County" d="M1544,794l38,19 7,32 -13,57 50,25 -24,51 15,11 55,-9 13,12 9,51 51,16 67,10 83,43 -20,24 -183,1 0,16 -289,-1 -54,-1 0,-80 9,-25 1,-206 9,-34 51,15 37,-30 42,-5 23,15Z"/>
    <path data-fips-int="46119" data-name="Sully County" d="M1987,718l0,208 -361,1 -50,-25 13,-57 -7,-32 -38,-19 10,-35 35,35 28,5 62,-56 -2,-24Z"/>
    <path data-fips-int="46121" data-name="Todd County" d="M1759,1616l0,157 6,0 0,76 -449,-1 2,-233Z"/>
    <path data-fips-int="46123" data-name="Tripp County" d="M2051,1550l4,299 -290,0 0,-76 -6,0 0,-157 -9,-52 0,-140 54,12 33,-4 58,-1 12,18 30,-24 74,-19 2,144Z"/>
    <path data-fips-int="46125" data-name="Turner County" d="M3089,1526l5,-1 83,-3 12,248 -103,4 -2,-52 -104,4 -7,-196Z"/>
    <path data-fips-int="46127" data-name="Union County" d="M3392,1761l-20,22 2,60 -17,16 0,49 -12,2 -21,43 5,35 51,42 17,48 2,42 -39,-21 -26,5 -7,-24 -35,-33 -6,-31 -34,-2 -3,-21 -8,-225Z"/>
    <path data-fips-int="46129" data-name="Walworth County" d="M1965,304l3,0 2,206 -233,0 -22,-47 14,-37 -25,-50 -15,-20 -32,-2 -13,-22 22,-29Z"/>
    <path data-fips-int="46135" data-name="Yankton County" d="M3086,1774l7,169 -22,-3 -13,-29 -32,-6 -83,6 -33,13 -29,-5 -5,-189 104,-4 104,-4Z"/>
    <path data-fips-int="46137" data-name="Ziebach County" d="M1233,373l-8,52 -2,206 -7,27 153,1 -1,147 -35,30 -43,10 -59,23 -33,41 -56,-12 -35,12 -25,24 -37,-8 -45,11 0,3 0,-3 7,-310 5,-258Z"/>
  </g>
  <g class="cities">
    <circle r="3" cx="327.4" cy="148.9"/>
    <text x="327.4" y="148.9">Sioux Falls</text>
    <circle r="3" cx="46.8" cy="118.2"/>
    <text x="46.8" y="118.2">Rapid City</text>
    <circle r="3" cx="247.9" cy="37.4"/>
    <text x="247.9" y="37.4">Aberdeen</text>
  </g>
</svg>