<?xml version="1.0" encoding="utf-8"?>
<!DOCTYPE svg PUBLIC "-//W3C//DTD SVG 1.1//EN" "http://www.w3.org/Graphics/SVG/1.1/DTD/svg11.dtd">
<svg version="1.1" xmlns="http://www.w3.org/2000/svg" width="350" height="218" viewBox="0 0 350 218">
  <path class="state" transform="scale(0.1)" d="M2883,1919l-20,14 -22,-16 -14,14 -27,-20 -53,61 -34,5 -54,-44 -140,-61 -14,-30 -450,7h-290l-449,-1 -371,-7 -401,-13 -217,-8 -240,-12 12,-282 10,-225 8,-170 12,-256 10,-253h8l7,-128 16,-435 458,17 389,12 228,5 389,2 329,1 411,-3 309,-5 312,-10 274,-11 -5,65 -27,48 -74,62 -4,30 38,46 34,62 31,1 49,21 13,25 8,14 10,193 12,258 8,207 10,207 10,207 -63,2v29l35,34v56l-24,2 9,40 41,4 12,81 -20,22 2,60 -17,16v49l-12,2 -21,46 5,32 51,42 17,48 2,42 -39,-21 -26,5 -8,-24 -32,-33 2,-24 -44,-9 -3,-21 -108,-36 -35,2 -13,-16 -20,-3 -15,-29 -32,-6 -83,6 -33,13Z"/>
  <g class="counties" transform="scale(0.1)">
    <path data-fips-int="46003" data-name="Aurora County" d="M2567,1332l8,209 -166,4 -38,1 -4,-199 -6,-61 203,-5Z"/>
    <path data-fips-int="46005" data-name="Beadle County" d="M2705,864l52,-1 3,51 5,208 -205,5 -156,3 -7,-261Z"/>
    <path data-fips-int="46007" data-name="Bennett County" d="M1320,1615l-4,233 -371,-7 2,-77 -12,-2 2,-154Z"/>
    <path data-fips-int="46009" data-name="Bon Homme County" d="M2876,1730l7,189 -20,14 -22,-16 -14,14 -27,-20 -53,61 -34,5 -54,-44 16,-24 7,-60 -9,-19v-55l14,-38Z"/>
    <path data-fips-int="46011" data-name="Brookings County" d="M3354,892l8,207 -186,9 -102,4 -6,-208 99,-4Z"/>
    <path data-fips-int="46013" data-name="Brown County" d="M2683,88l5,207 5,206 -307,5h-4l-5,-206 -3,-207Z"/>
    <path data-fips-int="46015" data-name="Brule County" d="M2371,1546l-218,3 8,-17 -26,-31 -17,-46 -35,2 22,-28v-46l28,-16 15,-32 -25,-26 3,-19 183,-4h52l6,61Z"/>
    <path data-fips-int="46017" data-name="Buffalo County" d="M2308,1131l1,155 -183,4 4,-31 -35,-33 -35,-6 -24,-26 9,-32 -15,-25 118,-2Z"/>
    <path data-fips-int="46019" data-name="Butte County" d="M608,512l-4,104 -11,258 -257,-9 -106,-5 -50,13 -51,2 10,-253h8l7,-128 219,10Z"/>
    <path data-fips-int="46021" data-name="Campbell County" d="M1963,96l2,208 -298,-1 12,-34 26,-6 14,-27 -34,-67 12,-22 -27,-13 -36,-39Z"/>
    <path data-fips-int="46023" data-name="Charles Mix County" d="M2371,1546l38,-1 2,77 15,-2 246,99 15,18 -14,38v55l9,19 -7,60 -16,24 -140,-61 -14,-30 -11,-25 -42,-20 -26,2 -44,-44 -38,-5 -8,-48 -40,-10 -47,-43 -41,-64 -57,-12 2,-24Z"/>
    <path data-fips-int="46025" data-name="Clark County" d="M2900,549l8,206 5,155 -153,4 -3,-51 -52,1 -3,-155 -5,-1 -2,-154Z"/>
    <path data-fips-int="46027" data-name="Clay County" d="M3241,1768l8,225 -108,-36 -35,2 -13,-16 -7,-169 103,-4Z"/>
    <path data-fips-int="46029" data-name="Codington County" d="M3011,544l145,-5 5,103 3,104 -256,9 -8,-206Z"/>
    <path data-fips-int="46031" data-name="Corson County" d="M1634,95l36,39 27,13 -12,22 34,67 -14,27 -26,6 -12,34 -25,29 17,22 31,2 14,20h-163l-308,-3 -221,-4 5,-281 228,5Z"/>
    <path data-fips-int="46033" data-name="Custer County" d="M641,1422l-8,18 -35,-12 -12,34 -30,7 -2,76 -455,-19 10,-225 587,23 -4,34Z"/>
    <path data-fips-int="46035" data-name="Davison County" d="M2722,1328l6,210 -63,2 -90,1 -8,-209Z"/>
    <path data-fips-int="46037" data-name="Day County" d="M3003,302l6,156 2,86 -111,5 -205,5 -2,-53 -5,-206 253,-8 4,17Z"/>
    <path data-fips-int="46039" data-name="Deuel County" d="M3342,634l12,258 -187,8 -3,-154 -3,-104Z"/>
    <path data-fips-int="46041" data-name="Dewey County" d="M1704,376l28,55 -18,32 23,47 -5,48 -20,37 17,52 -44,-7 -16,22 8,57 5,18 -63,62 -33,-8 -32,-32 -10,35 -46,-8 -44,5 -35,30 -51,-15v-147l-152,-1 7,-27 2,-206 8,-52 308,3Z"/>
    <path data-fips-int="46043" data-name="Douglas County" d="M2575,1541l90,-1 7,179 -246,-99 -15,2 -2,-77Z"/>
    <path data-fips-int="46045" data-name="Edmunds County" d="M2377,300l5,206 -356,4h-56l-2,-206Z"/>
    <path data-fips-int="46047" data-name="Fall River County" d="M554,1545l-10,283 -217,-8 -240,-12 12,-282Z"/>
    <path data-fips-int="46049" data-name="Faulk County" d="M2382,506h4l3,208 -251,2 -110,2 -2,-208Z"/>
    <path data-fips-int="46051" data-name="Grant County" d="M3324,427l8,14 10,193 -181,8 -5,-103 -145,5 -2,-86 92,-3 5,-20Z"/>
    <path data-fips-int="46053" data-name="Gregory County" d="M2153,1549l-2,24 57,12 41,64 47,43 40,10 8,48 38,5 44,44 26,-2 42,20 11,25 -450,7 -4,-299Z"/>
    <path data-fips-int="46055" data-name="Haakon County" d="M1368,806l-9,34 -1,206 -7,25v80l52,1 -4,103h-5l-404,-6 4,-200 5,-108 1,-1 45,-14 27,9 35,-25 50,-11 41,11 33,-41 42,-30 61,-3Z"/>
    <path data-fips-int="46057" data-name="Hamlin County" d="M3164,746l3,154 -99,4 -155,6 -5,-155Z"/>
    <path data-fips-int="46059" data-name="Hand County" d="M2389,714h5l3,155 7,261 -96,1 -160,4 -2,-206 -6,-4 -2,-209Z"/>
    <path data-fips-int="46061" data-name="Hanson County" d="M2772,1328l104,-3 7,207 -155,6 -6,-210Z"/>
    <path data-fips-int="46063" data-name="Harding County" d="M628,76l-4,127 -5,8 -5,198 -6,103 -235,-8 -219,-10 16,-435Z"/>
    <path data-fips-int="46065" data-name="Hughes County" d="M1987,926h5l1,197 -20,20 43,20 -8,31 -60,-23 -40,9 -33,-44 20,-24 -83,-43 -67,-10 -51,-16 -9,-51 -13,-12 -53,9 -17,-11 24,-51h31Z"/>
    <path data-fips-int="46067" data-name="Hutchinson County" d="M2883,1532l90,-2 7,196 -104,4 -189,7 -15,-18 -7,-179 63,-2Z"/>
    <path data-fips-int="46069" data-name="Hyde County" d="M2028,718l110,-2 2,209 6,4 2,206 -118,2 -37,-14 -1,-197h-5v-208Z"/>
    <path data-fips-int="46071" data-name="Jackson County" d="M1394,1255l-3,91 -17,-3 -53,29 -1,243 -383,-7 2,-52 -12,-1v-133l55,-4 2,-144 6,-25Z"/>
    <path data-fips-int="46073" data-name="Jerauld County" d="M2404,1130l156,-3 4,154 -203,5h-52l-1,-155Z"/>
    <path data-fips-int="46075" data-name="Jones County" d="M1690,1153v192h14v77l-15,-13 -42,9 -36,-9 -15,-18 -37,33 -50,-8 -8,-25 -78,-50 -32,5 3,-91h5l4,-103Z"/>
    <path data-fips-int="46077" data-name="Kingsbury County" d="M2913,910l155,-6 6,208 -103,4 -204,6h-2l-5,-208Z"/>
    <path data-fips-int="46079" data-name="Lake County" d="M3074,1112l102,-4 10,206 -103,5 -103,2 -9,-205Z"/>
    <path data-fips-int="46081" data-name="Lawrence County" d="M336,865l-11,207 51,2 -3,69 -256,-12 12,-256 51,-2 50,-13Z"/>
    <path data-fips-int="46083" data-name="Lincoln County" d="M3319,1515v29l35,34v56l-24,2 9,40 41,4 12,81 -151,7 -52,2 -12,-248Z"/>
    <path data-fips-int="46085" data-name="Lyman County" d="M2030,1137l15,25 -9,32 24,26 35,6 35,33 -4,31 -3,19 25,26 -15,32 -28,16v46l-22,28 35,-2 17,46 26,31 -8,17 -102,1h-38l-2,-144 -74,19 -30,24 -15,-18 -32,9 -110,-16 -23,10 -23,-12v-77h-14v-192v-16l185,-1 33,44 40,-9 60,23 8,-31 -43,-20 20,-20Z"/>
    <path data-fips-int="46087" data-name="McCook County" d="M2980,1321l103,-2 6,207 -116,4 -90,2 -7,-207Z"/>
    <path data-fips-int="46089" data-name="McPherson County" d="M2374,93l3,207 -409,4h-3l-2,-208Z"/>
    <path data-fips-int="46091" data-name="Marshall County" d="M2995,78l8,224 -58,2 -4,-17 -253,8 -5,-207Z"/>
    <path data-fips-int="46093" data-name="Meade County" d="M1007,627l-7,313 -1,1 -45,44 -40,3 -9,-13 -38,12 3,32 -30,44v39l-11,17v39l-215,-6 -241,-9 3,-69 -51,-2 11,-207 257,9 11,-258Z"/>
    <path data-fips-int="46095" data-name="Mellette County" d="M1704,1422l23,12 23,-10v140l9,52 -439,-1 1,-243 53,-29 17,3 32,-5 78,50 8,25 50,8 37,-33 15,18 36,9 42,-9Z"/>
    <path data-fips-int="46097" data-name="Miner County" d="M2971,1116l9,205 -104,4 -104,3 -5,-206Z"/>
    <path data-fips-int="46099" data-name="Minnehaha County" d="M3372,1306l10,207 -63,2 -142,7 -88,4 -6,-207 103,-5Z"/>
    <path data-fips-int="46101" data-name="Moody County" d="M3372,1306l-186,8 -10,-206 186,-9Z"/>
    <path data-fips-int="46103" data-name="Pennington County" d="M990,1249l-6,25 -2,144 -55,4 -12,7 -274,-7 51,-64 4,-34 -587,-23 8,-170 256,12 241,9 215,6v-39l11,-17v-39l30,-44 -3,-32 38,-12 9,13 40,-3 45,-44 -5,108Z"/>
    <path data-fips-int="46105" data-name="Perkins County" d="M1017,88l-5,281 -5,258 -403,-11 4,-104 6,-103 5,-198 5,-8 4,-127Z"/>
    <path data-fips-int="46107" data-name="Potter County" d="M1970,510h56l2,208h-41l-310,1 -8,-57 16,-22 44,7 -17,-52 20,-37 5,-48Z"/>
    <path data-fips-int="46109" data-name="Roberts County" d="M3324,427l-218,8 -5,20 -92,3 -6,-156 -8,-224 274,-11 -5,65 -27,48 -74,62 -4,30 38,46 34,62 31,1 49,21Z"/>
    <path data-fips-int="46111" data-name="Sanborn County" d="M2765,1122h2l5,206h-50l-155,4 -3,-51 -4,-154Z"/>
    <path data-fips-int="46113" data-name="Shannon County" d="M927,1422v133l12,1 -2,52 -2,154 12,2 -2,77 -401,-13 10,-283 2,-76 30,-7 12,-34 35,12 8,-18 274,7Z"/>
    <path data-fips-int="46115" data-name="Spink County" d="M2693,501l2,53 2,154 5,1 3,155 -308,5 -3,-155h-5l-3,-208Z"/>
    <path data-fips-int="46117" data-name="Stanley County" d="M1544,794l38,19 5,32 -11,57 50,25 -24,51 17,11 53,-9 13,12 9,51 51,16 67,10 83,43 -20,24 -185,1v16l-287,-1 -52,-1v-80l7,-25 1,-206 9,-34 51,15 35,-30 44,-5Z"/>
    <path data-fips-int="46119" data-name="Sully County" d="M1987,718v208l-330,1h-31l-50,-25 11,-57 -5,-32 -38,-19 10,-35 32,32 33,8 63,-62 -5,-18Z"/>
    <path data-fips-int="46121" data-name="Todd County" d="M1759,1616v157h6v76l-449,-1 4,-233Z"/>
    <path data-fips-int="46123" data-name="Tripp County" d="M2051,1550l4,299h-290v-76h-6v-157l-9,-52v-140l110,16 32,-9 15,18 30,-24 74,-19 2,144Z"/>
    <path data-fips-int="46125" data-name="Turner County" d="M3089,1526l88,-4 12,248 -103,4 -2,-52 -104,4 -7,-196Z"/>
    <path data-fips-int="46127" data-name="Union County" d="M3392,1761l-20,22 2,60 -17,16v49l-12,2 -21,46 5,32 51,42 17,48 2,42 -39,-21 -26,5 -8,-24 -32,-33 2,-24 -44,-9 -3,-21 -8,-225Z"/>
    <path data-fips-int="46129" data-name="Walworth County" d="M1965,304h3l2,206h-233l-23,-47 18,-32 -28,-55 -14,-20 -31,-2 -17,-22 25,-29Z"/>
    <path data-fips-int="46135" data-name="Yankton County" d="M3086,1774l7,169 -20,-3 -15,-29 -32,-6 -83,6 -33,13 -27,-5 -7,-189 104,-4 104,-4Z"/>
    <path data-fips-int="46137" data-name="Ziebach County" d="M1233,373l-8,52 -2,206 -7,27 152,1v147l-34,30 -61,3 -42,30 -33,41 -41,-11 -50,11 -35,25 -27,-9 -45,14 7,-313 5,-258Z"/>
  </g>
  <path class="mesh" transform="scale(0.1)" d="M945,1841l2,-77 -12,-2 2,-154 383,7 -4,233M2659,1933l16,-24 7,-60 -9,-19v-55l14,-38 189,-7 7,189M3362,1099l-186,9 -102,4 -6,-208 99,-4 187,-8M2683,88l5,207 5,206 -307,5h-4l-5,-206 -3,-207M2409,1545l-38,1 -218,3 8,-17 -26,-31 -17,-46 -35,2 22,-28v-46l28,-16 15,-32 -25,-26 3,-19 183,-4h52M2126,1290l4,-31 -35,-33 -35,-6 -24,-26 9,-32 -15,-25 118,-2 160,-4 1,155M154,494l219,10 235,8 -4,104 -11,258 -257,-9 -106,-5 -50,13 -51,2M1963,96l2,208 -298,-1 12,-34 26,-6 14,-27 -34,-67 12,-22 -27,-13 -36,-39M2567,1332l155,-4 6,210 -63,2 -90,1 -166,4 2,77 15,-2 246,99 15,18M2055,1849l-4,-299 102,-1M2705,864l52,-1 3,51 5,208 -205,5 -156,3 -7,-261 308,-5 -3,-155 -5,-1 -2,-154 205,-5 8,206 5,155 -153,4M3093,1943l-7,-169 103,-4 52,-2 8,225M2900,549l111,-5 145,-5 5,103 3,104 -256,9M1667,303l-25,29 17,22 31,2 14,20h-163l-308,-3 -221,-4 5,-281M109,1301l587,23 -4,34 -51,64 -8,18 -35,-12 -12,34 -30,7 -2,76 -455,-19M2688,295l253,-8 4,17 58,-2 6,156 2,86M2695,554l-2,-53M3167,900l-3,-154M3161,642l181,-8M1704,376l28,55 -18,32 23,47 -5,48 -20,37 17,52 -44,-7 -16,22 8,57 5,18 -63,62 -33,-8 -32,-32 -10,35 -46,-8 -44,5 -35,30 -51,-15v-147l-152,-1 7,-27 2,-206 8,-52M2665,1540l7,179M2382,506l-356,4h-56l-2,-206 409,-4M554,1545l-10,283M2386,506l3,208 -251,2 -110,2 -2,-208M3009,458l92,-3 5,-20 218,-8M1368,806l-9,34 -1,206 -7,25v80l52,1 -4,103h-5l-404,-6 4,-200 5,-108 1,-1 45,-14 27,9 35,-25 50,-11 41,11 33,-41 42,-30 61,-3 34,-30M3068,904l-155,6M2389,714h5l3,155M2404,1130l-96,1M2148,1135l-2,-206 -6,-4 -2,-209M2722,1328h50l104,-3 7,207 -155,6M628,76l-4,127 -5,8 -5,198 -6,103M2883,1532l90,-2 7,196 -104,4M2030,1137l-37,-14M1987,926h5l1,197 -20,20 43,20 -8,31 -60,-23 -40,9 -33,-44 20,-24 -83,-43 -67,-10 -51,-16 -9,-51 -13,-12 -53,9 -17,-11 24,-51h31l330,-1v-208h41M1750,1424v140l9,52 -439,-1M937,1608l2,-52 -12,-1v-133l55,-4 2,-144 6,-25M2560,1127l4,154M1403,1152l287,1v192h14v77l-15,-13 -42,9 -36,-9 -15,-18 -37,33 -50,-8 -8,-25 -78,-50 -32,5M3074,1112l-103,4 -204,6h-2M3176,1108l10,206 -103,5 -103,2 -9,-205M336,865l-11,207 51,2 -3,69 -256,-12M3392,1761l-151,7M3189,1770l-12,-248 142,-7M2051,1550h-38l-2,-144 -74,19 -30,24 -15,-18 -32,9 -110,-16 -23,10 -23,-12M1690,1153v-16l185,-1M3083,1319l6,207 -116,4M2876,1325l104,-4M1968,304h-3M2995,78l8,224M604,616l403,11 -7,313M999,941l-45,44 -40,3 -9,-13 -38,12 3,32 -30,44v39l-11,17v39l-215,-6 -241,-9M2772,1328l-5,-206M3177,1522l-88,4M3186,1314l186,-8M927,1422l-12,7 -274,-7M1012,369l-5,258M1987,718l-310,1M1737,510h233M1544,794l38,19 5,32 -11,57 50,25M1759,1616v157h6v76M3086,1774l-2,-52 -104,4M2505,1842l-11,-25 -42,-20 -26,2 -44,-44 -38,-5 -8,-48 -40,-10 -47,-43 -41,-64 -57,-12 2,-24M1394,1255l-3,91 -17,-3 -53,29 -1,243M2371,1546l-4,-199 -6,-61M2361,1286l203,-5M2564,1281l3,51M2567,1332l8,209"/>
  <g class="cities">
    <circle r="3" cx="327.4" cy="148.9"/>
    <text x="327.4" y="148.9">Sioux Falls</text>
    <circle r="3" cx="46.8" cy="118.3"/>
    <text x="46.8" y="118.3">Rapid City</text>
    <circle r="3" cx="247.9" cy="37.4"/>
    <text x="247.9" y="37.4">Aberdeen</text>
  </g>
</svg>