<?xml version="1.0" encoding="utf-8"?>
<!DOCTYPE svg PUBLIC "-//W3C//DTD SVG 1.1//EN" "http://www.w3.org/Graphics/SVG/1.1/DTD/svg11.dtd">
<svg version="1.1" xmlns="http://www.w3.org/2000/svg" width="350" height="218" viewBox="0 0 350 218">
  <defs>
    <pattern id="pattern-no-results" width="50" height="50" patternUnits="userSpaceOnUse">
      <rect width="50" height="50" fill="#ddd"/>
      <path d="M-5,5L5,-5M-5,55L55,-5M45,55L55,45" stroke-width="10" stroke="#666666"/>
    </pattern>
  </defs>
  <g class="counties" transform="scale(0.1)">
    <path data-fips-int="46003" data-name="Aurora County" d="M2569,1332l2,105 2,62 3,43 -58,1 -108,2 -39,1 -1,-60 -2,-112 -2,-36 -4,0 -1,-52 153,-3 51,-2 1,52Z"/>
    <path data-fips-int="46005" data-name="Beadle County" d="M2705,864l52,-1 1,45 2,6 0,40 3,70 0,25 2,73 -19,1 -145,3 -40,1 -157,3 -2,-82 -2,-127 -2,0 -1,-52 151,-2 63,-2Z"/>
    <path data-fips-int="46007" data-name="Bennett County" d="M1319,1615l-1,129 -1,4 0,100 -212,-3 -161,-5 3,-77 -12,-1 0,-33 3,-122 48,2 169,4 95,0Z"/>
    <path data-fips-int="46009" data-name="Bon Homme County" d="M2877,1730l4,86 3,103 -11,5 -10,9 -5,-2 -9,-13 -7,-1 -15,14 -14,-5 -14,-14 -17,5 -9,26 -8,14 -19,15 -10,0 -16,5 -20,-6 -2,-4 -30,-24 -10,-10 -4,-6 20,-18 1,-11 -5,-8 5,-1 -2,-10 9,-27 -9,-15 1,-14 5,-2 -6,-23 0,-22 7,-10 0,-12 6,-18 135,-5Z"/>
    <path data-fips-int="46011" data-name="Brookings County" d="M3353,893l10,206 -29,2 -79,4 -78,2 -103,5 -3,-105 -4,-102 103,-5Z"/>
    <path data-fips-int="46013" data-name="Brown County" d="M2683,88l3,81 0,27 2,99 3,85 1,58 2,64 -62,1 -89,1 -45,2 -113,1 -2,0 -1,-51 -2,-70 -1,-86 -1,0 -2,-68 0,-44 -2,-95 39,-1 129,-1Z"/>
    <path data-fips-int="46015" data-name="Brule County" d="M2371,1546l-150,2 -67,1 7,-15 -5,-8 -13,-13 -8,-12 -3,-27 -5,-11 -15,-8 -18,4 -11,-2 -5,-11 7,-9 20,-9 0,-15 -5,-9 5,-21 12,-4 16,-12 3,-10 12,-20 -7,-13 -15,-10 -3,-12 3,-12 81,0 103,-3 51,-1 1,52 4,0 2,36 2,112Z"/>
    <path data-fips-int="46017" data-name="Buffalo County" d="M2308,1132l2,155 -103,3 -81,0 4,-14 0,-15 -14,-17 -24,-19 -32,-5 -12,-10 -11,-16 2,-16 7,-15 -5,-13 -11,-12 118,-3 58,-2Z"/>
    <path data-fips-int="46019" data-name="Butte County" d="M607,512l-3,103 -7,173 -1,35 -2,0 -1,51 -111,-4 -14,0 -103,-5 -29,0 -107,-5 -10,10 -18,-8 -14,9 -34,4 -12,-3 -12,4 5,-105 1,-32 3,-44 2,-73 7,0 7,-128 96,5 77,3 46,2Z"/>
    <path data-fips-int="46021" data-name="Campbell County" d="M1963,97l0,21 0,89 1,1 0,78 1,18 -5,0 -215,0 -78,0 10,-33 6,-5 24,-4 11,-14 -1,-16 -14,-27 -10,-27 -8,-9 12,-22 -4,-5 -23,-8 3,-11 -3,-10 -17,3 -19,-12 0,-9 105,1 67,1Z"/>
    <path data-fips-int="46023" data-name="Charles Mix County" d="M2371,1546l39,-1 0,77 15,-1 118,48 32,12 97,38 17,7 -3,10 -6,18 0,12 -7,10 0,22 6,23 -5,2 -1,14 9,15 -9,27 2,10 -5,1 5,8 -1,11 -20,18 4,6 -8,1 -22,-9 -13,-11 -12,-1 -21,-6 -9,-10 -33,-16 -11,1 -10,-10 -10,-18 -4,-12 -4,-13 -8,-12 -14,-11 -25,-8 -17,2 -24,-8 -19,-26 -18,-12 -27,-2 -7,-5 -4,-10 0,-28 -3,-8 -11,-5 -18,0 -17,-10 -13,-14 -21,-16 -16,-30 -9,-7 -15,-30 -14,-3 -28,0 -11,-4 -12,-10 -2,-7 6,-16 67,-1Z"/>
    <path data-fips-int="46025" data-name="Clark County" d="M2899,548l3,60 3,94 1,9 2,44 4,155 -152,4 -2,-6 -1,-45 -52,1 -1,-48 -4,-107 -2,-1 -1,-79 -2,-75 57,-1Z"/>
    <path data-fips-int="46027" data-name="Clay County" d="M3240,1768l4,97 1,37 4,91 -8,0 -11,-9 -8,1 -7,-6 -16,0 -9,9 -10,-2 1,-11 -10,-12 -19,0 -11,-5 -28,2 -8,-1 -13,-16 -4,-96 -1,-56 -2,-17 104,-4Z"/>
    <path data-fips-int="46029" data-name="Codington County" d="M3012,544l77,-2 66,-2 6,103 1,63 2,39 -111,5 -43,1 -102,4 -2,-44 -1,-9 -3,-94 -3,-60Z"/>
    <path data-fips-int="46031" data-name="Corson County" d="M1634,95l0,9 19,12 17,-3 3,10 -3,11 23,8 4,5 -12,22 8,9 10,27 14,27 1,16 -11,14 -24,4 -6,5 -10,33 -5,10 -11,7 -7,12 5,14 10,7 28,-1 8,7 9,16 -115,0 -221,-2 -135,-1 -58,-1 -98,-2 -65,-1 2,-105 4,-176 79,2 91,0 62,2 39,0 114,3Z"/>
    <path data-fips-int="46033" data-name="Custer County" d="M640,1422l-2,12 -7,6 -7,-6 -26,-6 -5,9 -1,11 -5,14 -12,2 -6,-4 -12,8 -2,77 -106,-4 -47,-2 -54,-2 -89,-4 -40,-1 -86,-5 -34,-1 0,-13 4,-74 0,-14 7,-122 77,2 52,3 177,6 105,3 171,6 5,2 -7,20 2,14 -17,19 -17,14 -3,11 -6,-1Z"/>
    <path data-fips-int="46035" data-name="Davison County" d="M2722,1329l1,44 3,70 3,95 -65,2 -42,2 -46,0 -3,-43 -2,-62 -2,-105Z"/>
    <path data-fips-int="46037" data-name="Day County" d="M3003,302l3,104 3,51 3,87 -113,4 -147,5 -57,1 -1,-52 -2,-64 -1,-58 -3,-85 125,-4 128,-4 4,17Z"/>
    <path data-fips-int="46039" data-name="Deuel County" d="M3341,634l10,206 2,53 -183,7 -3,-75 -3,-80 -2,-39 -1,-63 48,-2 39,-2Z"/>
    <path data-fips-int="46041" data-name="Dewey County" d="M1704,376l5,17 14,19 10,19 -4,15 -14,22 4,17 17,19 3,7 0,8 -7,21 -1,23 -5,12 -15,24 4,23 14,16 1,8 -15,2 -20,-7 -12,0 -14,21 4,46 4,11 5,11 -1,10 -10,11 -29,21 -17,24 -9,4 -26,-6 -10,-9 -11,-16 -15,-10 -8,4 -6,15 5,15 -25,7 1,-7 -10,4 -8,-9 -8,-2 -23,8 -2,-5 -13,2 -22,13 -14,16 -14,-2 -3,-8 -15,3 -22,-7 2,-147 -153,-2 0,-26 6,0 2,-117 2,-90 6,0 1,-51 135,1 221,2Z"/>
    <path data-fips-int="46043" data-name="Douglas County" d="M2576,1542l46,0 42,-2 4,80 0,17 4,82 -97,-38 -32,-12 -118,-48 -15,1 0,-77 108,-2Z"/>
    <path data-fips-int="46045" data-name="Edmunds County" d="M2378,300l1,0 1,86 2,70 1,51 -53,0 -145,2 -49,0 -110,2 -57,0 0,-99 0,-108 128,-1 152,-1 54,-2Z"/>
    <path data-fips-int="46047" data-name="Fall River County" d="M555,1545l-3,61 0,19 -5,119 -2,84 -219,-7 -239,-13 7,-145 0,-46 5,-91 34,1 86,5 40,1 89,4 54,2 47,2Z"/>
    <path data-fips-int="46049" data-name="Faulk County" d="M2383,507l2,0 1,94 2,24 1,88 -82,1 -61,1 -108,2 -110,1 0,-69 -2,-138 110,-2 49,0 145,-2Z"/>
    <path data-fips-int="46051" data-name="Grant County" d="M3324,427l8,14 9,193 -93,5 -39,2 -48,2 -6,-103 -66,2 -77,2 -3,-87 88,-2 4,-1 4,-18 81,-2Z"/>
    <path data-fips-int="46053" data-name="Gregory County" d="M2154,1549l-6,16 2,7 12,10 11,4 28,0 14,3 15,30 9,7 16,30 21,16 13,14 17,10 18,0 11,5 3,8 0,28 4,10 7,5 27,2 18,12 19,26 24,8 17,-2 25,8 14,11 8,12 4,13 -200,4 -147,2 -104,1 0,-14 0,-80 -1,-7 0,-76 -1,-2 0,-120Z"/>
    <path data-fips-int="46055" data-name="Haakon County" d="M1367,806l0,35 -8,-1 -1,101 -1,55 0,51 -5,0 -1,104 50,1 0,103 -8,0 -282,-4 -121,-3 2,-126 2,-81 3,0 2,-100 1,0 0,-1 6,-7 39,-7 22,7 16,0 4,-9 7,3 15,-11 -2,-4 13,-5 3,-5 11,5 7,-9 16,1 6,8 9,-2 27,4 14,-8 1,-8 12,-8 6,-16 17,-2 7,-8 15,-1 -4,-9 7,0 -1,-9 18,5 7,-5 12,2 8,-6 7,3 18,-8 6,-7 9,-2Z"/>
    <path data-fips-int="46057" data-name="Hamlin County" d="M3164,745l3,80 3,75 -103,5 -155,5 -4,-155 102,-4 43,-1Z"/>
    <path data-fips-int="46059" data-name="Hand County" d="M2389,713l5,0 3,156 1,52 2,0 2,127 2,82 -96,2 -102,1 -58,2 -1,-56 0,-50 -1,-50 0,-50 -6,-4 0,-115 -2,-93 108,-2 61,-1Z"/>
    <path data-fips-int="46061" data-name="Hanson County" d="M2772,1328l105,-3 0,44 2,22 2,50 3,92 -52,1 -103,4 -3,-95 -3,-70 -1,-44Z"/>
    <path data-fips-int="46063" data-name="Harding County" d="M628,77l-4,106 0,20 -4,0 -2,64 -2,34 -2,108 -4,0 -3,103 -234,-8 -46,-2 -77,-3 -96,-5 10,-276 4,-63 3,-96 234,10 133,5Z"/>
    <path data-fips-int="46065" data-name="Hughes County" d="M1986,926l5,0 1,63 0,115 1,19 -9,2 -11,13 6,12 16,2 21,12 5,18 -13,12 -11,-2 -41,-19 -7,-1 -30,6 -12,1 -15,-10 -16,-32 2,-8 17,-18 -3,-9 -9,-7 -15,1 -12,-3 -24,-10 -20,-14 -33,-9 -12,1 -35,-5 -27,-7 -10,-5 -6,-24 -4,-28 -10,-12 -27,-1 -29,10 -17,-11 2,-18 9,-10 11,-4 5,-8 -4,-11 70,0 155,0Z"/>
    <path data-fips-int="46067" data-name="Hutchinson County" d="M2884,1533l88,-3 3,76 5,120 -76,4 -27,0 -56,1 -135,5 3,-10 -17,-7 -4,-82 0,-17 -4,-80 65,-2 103,-4Z"/>
    <path data-fips-int="46069" data-name="Hyde County" d="M2028,718l110,-1 2,93 0,115 6,4 0,50 1,50 0,50 1,56 -118,3 -7,-7 -17,-7 -13,-1 -1,-19 0,-115 -1,-63 -5,0 0,-208Z"/>
    <path data-fips-int="46071" data-name="Jackson County" d="M1393,1255l0,91 -17,-4 -1,7 -14,-3 -2,12 -9,-6 -3,13 -10,4 -6,-5 -9,7 -1,78 -1,61 -1,105 -69,-2 -95,0 -169,-4 -48,-2 0,-52 -12,0 2,-70 2,-63 13,-1 0,11 5,-6 25,4 1,-7 8,-4 0,-66 3,-105 5,0 121,3Z"/>
    <path data-fips-int="46073" data-name="Jerauld County" d="M2404,1130l157,-3 4,154 -51,2 -153,3 -51,1 -2,-155Z"/>
    <path data-fips-int="46075" data-name="Jones County" d="M1693,1153l0,192 11,0 0,77 -13,-13 -8,8 -13,-6 0,11 -11,-9 -12,7 -8,-11 -12,4 0,-8 -16,5 1,-11 -8,1 -6,-9 -8,3 -4,11 -9,2 -9,-4 -6,6 8,4 -12,5 0,7 -16,-5 -16,-2 0,-7 -10,3 -5,-8 -7,-1 -1,-13 -11,-2 -1,5 -12,-17 -4,6 -5,-8 -10,-5 4,-7 -18,-11 -1,8 -13,-1 -8,-20 -8,7 -21,-9 -2,8 0,-91 8,0 0,-103 135,1Z"/>
    <path data-fips-int="46077" data-name="Kingsbury County" d="M2912,910l155,-5 4,102 3,105 -55,1 -47,3 -80,2 -46,2 -79,2 -2,0 -2,-73 0,-25 -3,-70 0,-40Z"/>
    <path data-fips-int="46079" data-name="Lake County" d="M3074,1112l103,-5 5,134 3,73 -103,4 -103,4 -3,-78 -4,-128 47,-3Z"/>
    <path data-fips-int="46081" data-name="Lawrence County" d="M336,865l-2,70 -4,85 -2,0 -3,52 52,2 -3,69 -169,-7 -88,-4 5,-100 7,-156 12,-4 12,3 34,-4 14,-9 18,8 10,-10Z"/>
    <path data-fips-int="46083" data-name="Lincoln County" d="M3319,1516l7,10 1,9 -7,6 4,14 10,3 2,9 18,11 -1,44 2,9 -11,8 -14,-2 2,16 13,6 -5,17 22,7 9,-4 9,1 8,46 11,12 -8,15 2,8 -153,7 -51,2 -2,-58 -3,-43 -1,-34 -5,-113Z"/>
    <path data-fips-int="46085" data-name="Lyman County" d="M2030,1138l11,12 5,13 -7,15 -2,16 11,16 12,10 32,5 24,19 14,17 0,15 -4,14 -3,12 3,12 15,10 7,13 -12,20 -3,10 -16,12 -12,4 -5,21 5,9 0,15 -20,9 -7,9 5,11 11,2 18,-4 15,8 5,11 3,27 8,12 13,13 5,8 -7,15 -102,1 -39,0 0,-26 0,-85 -1,-33 -8,4 0,-12 -11,-5 2,18 -10,3 2,-12 -4,-7 -7,7 -1,9 -7,8 -6,-2 -1,-14 -10,7 9,15 -24,0 1,5 -16,8 -16,0 1,11 -8,-4 -4,-14 -12,9 -12,-7 -3,6 -20,-12 -18,10 -15,4 -10,-5 -2,5 -9,-11 -3,4 -12,-5 -10,-1 -9,14 -9,-18 -9,6 -6,-4 -9,7 -7,-15 -15,4 0,-77 -11,0 0,-192 0,-15 121,0 62,-1 16,32 15,10 12,-1 30,-6 7,1 41,19 11,2 13,-12 -5,-18 -21,-12 -16,-2 -6,-12 11,-13 9,-2 13,1 17,7Z"/>
    <path data-fips-int="46087" data-name="McCook County" d="M2979,1322l103,-4 4,116 4,92 -118,4 -88,3 -3,-92 -2,-50 -2,-22 0,-44Z"/>
    <path data-fips-int="46089" data-name="McPherson County" d="M2374,93l2,95 0,44 2,68 -75,0 -54,2 -152,1 -128,1 -4,0 -1,-18 0,-78 -1,-1 0,-89 0,-21 197,-2 145,-2Z"/>
    <path data-fips-int="46091" data-name="Marshall County" d="M2994,78l4,86 0,33 5,105 -58,2 -4,-17 -128,4 -125,4 -2,-99 0,-27 -3,-81 187,-5 45,-3Z"/>
    <path data-fips-int="46093" data-name="Meade County" d="M1006,627l-4,201 -2,112 0,1 -1,0 -15,4 -20,25 -10,7 -2,8 -19,-6 -3,10 -12,0 -14,-10 1,-5 -14,3 -10,-3 -8,12 -6,38 -8,0 -7,10 -3,27 -6,2 -3,14 3,6 0,19 -8,16 -7,2 -4,25 5,13 -128,-4 -138,-4 -58,-2 -131,-5 3,-69 -52,-2 3,-52 2,0 4,-85 2,-70 29,0 103,5 14,0 111,4 1,-51 2,0 1,-35 7,-173 135,5 46,1Z"/>
    <path data-fips-int="46095" data-name="Mellette County" d="M1526,1411 0,7 16,2 16,5 0,-7 12,-5 -8,-4 6,-6 9,4 9,-2 4,-11 8,-3 6,9 8,-1 -1,11 16,-5 0,8 12,-4 8,11 12,-7 11,9 0,-11 13,6 8,-8 13,13 15,-4 7,15 9,-7 6,4 9,-6 0,140 8,1 0,51 -235,0 -204,-1 1,-105 1,-61 1,-78 9,-7 6,5 10,-4 3,-13 9,6 2,-12 14,3 1,-7 17,4 2,-8 21,9 8,-7 8,20 13,1 1,-8 18,11 -4,7 10,5 5,8 4,-6 12,17 1,-5 11,2 1,13 7,1 5,8Z"/>
    <path data-fips-int="46097" data-name="Miner County" d="M2972,1116l4,128 3,78 -102,3 -105,3 -5,-157 0,-49 79,-2 46,-2Z"/>
    <path data-fips-int="46099" data-name="Minnehaha County" d="M3372,1305l9,208 -62,3 -141,6 -88,4 -4,-92 -4,-116 103,-4 97,-4 65,-2Z"/>
    <path data-fips-int="46101" data-name="Moody County" d="M3372,1305l-25,3 -65,2 -97,4 -3,-73 -5,-134 78,-2 79,-4 29,-2Z"/>
    <path data-fips-int="46103" data-name="Pennington County" d="M990,1248l-5,0 -3,105 0,66 -8,4 -1,7 -25,-4 -5,6 0,-11 -13,1 -6,-3 -10,11 -32,-1 -196,-5 -46,-2 9,-20 6,1 3,-11 17,-14 17,-19 -2,-14 7,-20 -5,-2 -171,-6 -105,-3 -177,-6 -52,-3 -77,-2 7,-171 88,4 169,7 131,5 58,2 138,4 128,4 -5,-13 4,-25 7,-2 8,-16 0,-19 -3,-6 3,-14 6,-2 3,-27 7,-10 8,0 6,-38 8,-12 10,3 14,-3 -1,5 14,10 12,0 3,-10 19,6 2,-8 10,-7 20,-25 15,-4 -2,100 -3,0 -2,81Z"/>
    <path data-fips-int="46105" data-name="Perkins County" d="M1018,88l-4,176 -2,105 0,7 -2,97 -4,154 -221,-6 -46,-1 -135,-5 3,-103 3,-103 4,0 2,-108 2,-34 2,-64 4,0 0,-20 4,-106 98,3 85,2 60,2Z"/>
    <path data-fips-int="46107" data-name="Potter County" d="M1969,511l57,0 2,138 0,69 -42,0 -59,1 -250,0 -4,-11 -4,-46 14,-21 12,0 20,7 15,-2 -1,-8 -14,-16 -4,-23 15,-24 5,-12 1,-23 7,-21 0,-8 19,0Z"/>
    <path data-fips-int="46109" data-name="Roberts County" d="M3324,427l-138,7 -81,2 -4,18 -4,1 -88,2 -3,-51 -3,-104 -5,-105 0,-33 -4,-86 154,-7 121,-4 -3,62 -14,23 -10,13 1,7 -7,10 -28,24 -6,3 -21,20 -18,13 -5,13 3,19 22,23 14,21 13,34 23,29 29,1 16,9 25,8 15,11Z"/>
    <path data-fips-int="46111" data-name="Sanborn County" d="M2765,1122l2,0 0,49 5,157 -50,1 -153,3 -3,1 -1,-52 -4,-154 40,-1 145,-3Z"/>
    <path data-fips-int="46113" data-name="Shannon County" d="M930,1422l-2,63 -2,70 12,0 0,52 -3,122 0,33 12,1 -3,77 -153,-3 -174,-6 -72,-3 2,-84 5,-119 0,-19 3,-61 2,-77 12,-8 6,4 12,-2 5,-14 1,-11 5,-9 26,6 7,6 7,-6 2,-12 46,2 196,5 32,1 10,-11Z"/>
    <path data-fips-int="46115" data-name="Spink County" d="M2694,502l1,52 2,75 1,79 2,1 4,107 1,48 -94,1 -63,2 -151,2 -3,-156 -5,0 -1,-88 -2,-24 -1,-94 113,-1 45,-2 89,-1Z"/>
    <path data-fips-int="46117" data-name="Stanley County" d="M1545,793l16,15 21,6 7,18 0,11 -5,21 -8,20 2,23 13,12 31,5 3,3 4,11 -5,8 -11,4 -9,10 -2,18 17,11 29,-10 27,1 10,12 4,28 6,24 10,5 27,7 35,5 12,-1 33,9 20,14 24,10 12,3 15,-1 9,7 3,9 -17,18 -2,8 -62,1 -121,0 0,15 -157,0 -135,-1 -50,-1 1,-104 5,0 0,-51 1,-55 1,-101 8,1 0,-35 22,7 15,-3 3,8 14,2 14,-16 22,-13 13,-2 2,5 23,-8 8,2 8,9 10,-4 -1,7Z"/>
    <path data-fips-int="46119" data-name="Sully County" d="M1986,718l0,208 -136,1 -155,0 -70,0 -3,-3 -31,-5 -13,-12 -2,-23 8,-20 5,-21 0,-11 -7,-18 -21,-6 -16,-15 -5,-15 6,-15 8,-4 15,10 11,16 10,9 26,6 9,-4 17,-24 29,-21 10,-11 1,-10 -5,-11 250,0Z"/>
    <path data-fips-int="46121" data-name="Todd County" d="M1758,1616l0,98 0,58 7,0 0,78 -113,0 -138,-1 -117,-1 -80,0 0,-100 1,-4 1,-129 204,1Z"/>
    <path data-fips-int="46123" data-name="Tripp County" d="M2052,1550l0,120 1,2 0,76 1,7 0,80 0,14 -19,0 -270,1 0,-78 -7,0 0,-58 0,-98 0,-51 -8,-1 0,-140 9,18 9,-14 10,1 12,5 3,-4 9,11 2,-5 10,5 15,-4 18,-10 20,12 3,-6 12,7 12,-9 4,14 8,4 -1,-11 16,0 16,-8 -1,-5 24,0 -9,-15 10,-7 1,14 6,2 7,-8 1,-9 7,-7 4,7 -2,12 10,-3 -2,-18 11,5 0,12 8,-4 1,33 0,85 0,26Z"/>
    <path data-fips-int="46125" data-name="Turner County" d="M3090,1526l88,-4 5,113 1,34 3,43 2,58 -104,4 -1,-52 -104,4 -5,-120 -3,-76Z"/>
    <path data-fips-int="46127" data-name="Union County" d="M3393,1761l-2,11 -13,9 -9,1 -2,8 10,18 -9,15 8,14 -3,7 -14,13 2,21 -3,10 -1,22 -6,5 -6,-4 -4,18 -15,21 3,11 -7,10 6,6 1,11 11,5 17,14 4,9 8,-1 3,9 9,8 -7,11 9,-2 11,22 -6,12 9,3 0,14 -6,6 9,6 0,11 12,-1 -13,6 -15,-4 -6,-11 -16,-7 -13,10 -13,-2 -6,-9 -3,-16 -21,-14 -10,-12 -2,-12 6,-9 -2,-11 -13,-7 -17,2 -16,-4 -3,-21 -4,-91 -1,-37 -4,-97Z"/>
    <path data-fips-int="46129" data-name="Walworth County" d="M1965,304l4,0 0,108 0,99 -211,0 -19,0 -3,-7 -17,-19 -4,-17 14,-22 4,-15 -10,-19 -14,-19 -5,-17 -9,-16 -8,-7 -28,1 -10,-7 -5,-14 7,-12 11,-7 5,-10 78,0 215,0Z"/>
    <path data-fips-int="46135" data-name="Yankton County" d="M3085,1774l2,17 1,56 4,96 -19,-3 -6,-18 -12,-10 -20,0 -9,-7 -12,7 -10,1 -8,-6 -18,1 -10,12 -19,-3 -6,-6 -34,13 -7,-1 -3,-12 -15,8 -3,-103 -4,-86 27,0 76,-4 104,-4Z"/>
    <path data-fips-int="46137" data-name="Ziebach County" d="M1233,373l-1,51 -6,0 -2,90 -2,117 -6,0 0,26 153,2 -2,147 -9,16 -9,2 -6,7 -18,8 -7,-3 -8,6 -12,-2 -7,5 -18,-5 1,9 -7,0 4,9 -15,1 -7,8 -17,2 -6,16 -12,8 -1,8 -14,8 -27,-4 -9,2 -6,-8 -16,-1 -7,9 -11,-5 -3,5 -13,5 2,4 -15,11 -7,-3 -4,9 -16,0 -22,-7 -39,7 -6,7 0,1 0,-1 2,-112 4,-201 4,-154 2,-97 0,-7 65,1 98,2Z"/>
  </g>
  <g class="cities">
    <circle r="3" cx="327.4" cy="148.9"/>
    <text x="327.4" y="148.9">Sioux Falls</text>
    <circle r="3" cx="46.9" cy="118.3"/>
    <text x="46.9" y="118.3">Rapid City</text>
    <circle r="3" cx="247.9" cy="37.4"/>
    <text x="247.9" y="37.4">Aberdeen</text>
  </g>
</svg>