<?xml version="1.0" encoding="utf-8"?>
<!DOCTYPE svg PUBLIC "-//W3C//DTD SVG 1.1//EN" "http://www.w3.org/Graphics/SVG/1.1/DTD/svg11.dtd">
<svg version="1.1" xmlns="http://www.w3.org/2000/svg" width="350" height="86" viewBox="0 0 350 86">
  <path class="state" transform="scale(0.1)" d="M2319,506M2328,530v5v-5M2045,463l-7,-10 7,10M801,104l176,5 8,-15 -13,-70 83,9 -2,14h82h199l198,-3 12,9 20,-9 116,6 158,9 115,3 80,-6 186,9 200,2h95h121l7,-8h76l245,-6 81,-3 260,-9 38,-12 70,-2 -23,43 8,27 -17,26 9,29 -27,-4 -41,29 -12,19 -33,70 -39,9 -6,-20 -30,-3 -70,37 -18,38 -34,21 -23,-1 2,-34 -15,-11 -50,31 -17,38 -30,-10 -21,74 -45,2 -67,37 -15,28 -56,23 -15,21 -68,1 -44,5 -71,48 -24,25 2,53 -28,25 -45,-8 -30,29 -10,103 -176,3 -78,1 -193,4 -152,-2 -176,-2 -200,-2 -153,-4 -146,-5 -146,-3 -85,-3 -69,4 -159,-4 -158,-5 -173,-6 -258,-11 7,-21 38,4 10,-38 35,-1 -8,-23 13,-24 -32,-20 35,-57 -35,-19 38,-23 4,40 6,-3 10,-35 -6,-36 51,6 -18,-28 40,-15 -28,-13 -9,-38 52,-8 17,-22 31,-12 -25,-18 9,-17 39,2 -28,-41 18,-45 34,-19 -14,-28 -23,-33 60,2 -28,-28 40,-29 -12,-24 3,-35 24,20 50,-19 197,6 119,4"/>
  <g class="counties" transform="scale(0.1)">
    <path data-fips-int="47001" data-name="Anderson County" d="M2520,218l24,39 -57,57 13,15 -51,22 -28,40 -29,-66 -41,-42 3,-11 25,-26 28,-2 24,20 5,-32 60,6Z"/>
    <path data-fips-int="47003" data-name="Bedford County" d="M1664,528l-5,104 -58,30 -5,14 -40,-17 -30,-5 -22,-34 8,-119 37,-5 28,25 37,8 12,-16Z"/>
    <path data-fips-int="47005" data-name="Benton County" d="M1003,178l10,53 12,54 -33,47 -5,39 33,6 -15,44 -3,12 -23,-13 -57,-3 -15,-1 5,-129 52,-63 -2,-49h38Z"/>
    <path data-fips-int="47007" data-name="Bledsoe County" d="M2174,465l-73,90 -10,38v16l-13,1 -22,48 -69,-66 -7,-34 58,-69 7,-25 81,-3 4,11Z"/>
    <path data-fips-int="47009" data-name="Blount County" d="M2659,547l-44,5 -71,48 -20,-24 6,-18 -34,7 -10,-23 -30,-10 10,-33 -4,-60 2,1 50,-24 30,-12 38,16 22,-22 35,83 18,9Z"/>
    <path data-fips-int="47011" data-name="Bradley County" d="M2259,709l2,34 -28,87 -78,1 -19,-66 29,-76 33,-30Z"/>
    <path data-fips-int="47013" data-name="Campbell County" d="M2555,147l-18,11 -17,60 -24,20 -60,-6 -5,32 -24,-20 -28,2 17,-32 -12,-84 10,-23 27,-2 -2,-38h95Z"/>
    <path data-fips-int="47015" data-name="Cannon County" d="M1752,372l50,58 -38,49v36l-40,6 -45,-27 18,-119Z"/>
    <path data-fips-int="47017" data-name="Carroll County" d="M912,287l-5,129 15,1v14l-148,-7 -17,16 -38,-2 8,-128 15,-26 49,3v-18l121,6Z"/>
    <path data-fips-int="47019" data-name="Carter County" d="M3309,196l-33,70 -39,9 -6,-20 -30,-3 -14,-36 -34,-8 14,-68 45,-5 74,-53 13,16 -38,52Z"/>
    <path data-fips-int="47021" data-name="Cheatham County" d="M1408,171l-22,62 -10,55 -22,42 -48,-2 9,-67 -10,-9 13,-46 -50,-8 2,-16 60,-46 51,41Z"/>
    <path data-fips-int="47023" data-name="Chester County" d="M847,618l-2,18 -93,-1 -33,30 -12,30 -25,-1 -21,-85 66,-28 25,-46 19,1 20,35 56,12Z"/>
    <path data-fips-int="47025" data-name="Claiborne County" d="M2718,59l30,28 5,58 -15,-2 -1,5 -9,17 -81,15 -28,-4 -25,-37 -27,2 -12,6 -41,-80h121l7,-8Z"/>
    <path data-fips-int="47027" data-name="Clay County" d="M2030,101l-58,15 -22,47 -30,-33 -47,-12 -3,-11 -41,10 9,-58 115,3 80,-6Z"/>
    <path data-fips-int="47029" data-name="Cocke County" d="M2946,361l-21,74 -45,2 -67,37 -13,-31 7,-24 -17,-30 17,-89 10,-1 3,-32 18,12 2,-26Z"/>
    <path data-fips-int="47031" data-name="Coffee County" d="M1679,494l45,27 40,-6 11,35 30,29 -3,68 -10,43 -48,-26 -47,-9 -40,14 2,-37 5,-104Z"/>
    <path data-fips-int="47033" data-name="Crockett County" d="M639,433l9,7 -52,51 -18,-11 -75,-31 -33,-31 5,-30 25,-2 38,-52 18,15 8,50 55,17Z"/>
    <path data-fips-int="47035" data-name="Cumberland County" d="M2140,280l36,-2 73,77 15,39 -23,27 -15,13 -52,31 -44,7 -4,-11 -81,3v-1l-7,-10v-2l22,-56 -20,-33 6,-57h37l20,-18Z"/>
    <path data-fips-int="47037" data-name="Davidson County" d="M1471,161l12,29 48,47 18,50 12,19 -40,62 -63,-33 -55,-8 -44,29 -5,-26 22,-42 10,-55 22,-62 15,1 20,15Z"/>
    <path data-fips-int="47039" data-name="Decatur County" d="M1002,433l-25,43 -2,54 22,40 -27,33 14,16 -7,14 -15,-12 -52,16 -16,-20v-51l21,-37 7,-98v-14l57,3Z"/>
    <path data-fips-int="47041" data-name="DeKalb County" d="M1895,347l-8,20 11,42 -16,24h-2l-23,-8 -55,5 -50,-58 -17,-59 57,-15 18,11 22,-18 20,31h26Z"/>
    <path data-fips-int="47043" data-name="Dickson County" d="M1268,198l50,8 -13,46 10,9 -9,67 -10,42 -126,-18 -10,-87 16,-34 5,-40Z"/>
    <path data-fips-int="47045" data-name="Dyer County" d="M553,237l-5,84 -10,13 -38,52 -25,2 -24,-32 -90,8v9l-28,-41 18,-45 34,-19 -14,-28 55,1 2,-12Z"/>
    <path data-fips-int="47047" data-name="Fayette County" d="M418,612l111,7 -11,190 -173,-6 11,-180Z"/>
    <path data-fips-int="47049" data-name="Fentress County" d="M2241,102l28,61 -16,12 -35,35 -32,8 -10,60 -36,2 -37,7 -8,-3 13,-24 -15,-50v-50l25,-67 35,-15 33,2Z"/>
    <path data-fips-int="47051" data-name="Franklin County" d="M1792,690l15,32 3,111 -176,-2 2,-64 21,-98 40,-14 47,9Z"/>
    <path data-fips-int="47053" data-name="Gibson County" d="M727,310l-8,128 -80,-5 -20,-17 -55,-17 -8,-50 -18,-15 10,-13 5,-84 75,4v-10l43,47Z"/>
    <path data-fips-int="47055" data-name="Giles County" d="M1388,628l28,53 22,20 -4,128 -153,-4 12,-206 33,-10Z"/>
    <path data-fips-int="47057" data-name="Grainger County" d="M2753,145l40,8 12,50 -23,-1 -52,36 -3,21 -37,-2 -28,17 -12,31 -25,-39 22,-86 81,-15 9,-17 1,-5Z"/>
    <path data-fips-int="47059" data-name="Greene County" d="M3059,286l-1,27 -15,-11 -50,31 -17,38 -30,-10 -106,-108 30,-30 56,-46 87,-38 28,-5 -2,129Z"/>
    <path data-fips-int="47061" data-name="Grundy County" d="M1928,676l-58,14 7,24 -19,11 -31,-12 -20,9 -15,-32 10,-43 3,-68 24,5 81,-9 27,21v27l20,11Z"/>
    <path data-fips-int="47063" data-name="Hamblen County" d="M2870,223l-30,30 -2,26 -18,-12 -3,32 -25,-25 -64,-6 -1,-9 3,-21 52,-36 23,1 33,-28Z"/>
    <path data-fips-int="47065" data-name="Hamilton County" d="M2138,632l27,57 -29,76 19,66 -193,4 43,-43 -10,-35 61,-99 22,-48 13,-1Z"/>
    <path data-fips-int="47067" data-name="Hancock County" d="M2963,53l-47,26 -21,-9 -44,26 -24,42 -34,15 -40,-8 -5,-58 -30,-28Z"/>
    <path data-fips-int="47069" data-name="Hardeman County" d="M571,604l90,5 21,85 -6,120 -158,-5 11,-190 2,-17Z"/>
    <path data-fips-int="47071" data-name="Hardin County" d="M977,633l2,44 13,2 -3,138 -85,-3 -69,4 10,-182 2,-18 47,-1 16,20 52,-16Z"/>
    <path data-fips-int="47073" data-name="Hawkins County" d="M3044,50l4,36 -35,32 10,10 -10,11 -87,38 -56,46 -32,-48 -33,28 -12,-50 34,-15 24,-42 44,-26 21,9 47,-26Z"/>
    <path data-fips-int="47075" data-name="Haywood County" d="M470,418l33,31 75,31 -7,124 -40,-2 -2,17 -111,-7 2,-67 -12,-17 15,-7 2,-40 26,-66Z"/>
    <path data-fips-int="47077" data-name="Henderson County" d="M922,431l-7,98 -21,37v51l-47,1v-35l-56,-12 -20,-35 -19,-1 5,-95 17,-16Z"/>
    <path data-fips-int="47079" data-name="Henry County" d="M977,109l-3,28 26,38h-38l2,49 -52,63v-12l-121,-6 10,-165Z"/>
    <path data-fips-int="47081" data-name="Hickman County" d="M1296,370l-5,52 -8,59 -40,31 -47,19 -48,-18 -28,20 -33,-26 13,-83 3,-31 68,-29 -1,-12Z"/>
    <path data-fips-int="47083" data-name="Houston County" d="M1152,175l29,16 -5,40 -16,34 -55,-25 -92,-9 -10,-53 60,13 42,-18Z"/>
    <path data-fips-int="47085" data-name="Humphreys County" d="M1160,265l10,87 1,12 -68,29 -3,31h-40l-12,15 -43,-18 15,-44 -33,-6 5,-39 33,-47 -12,-54 92,9Z"/>
    <path data-fips-int="47087" data-name="Jackson County" d="M1950,163l2,47 -7,22 -42,22 -61,-13 -25,-25 7,-57 5,-42 41,-10 3,11 47,12Z"/>
    <path data-fips-int="47089" data-name="Jefferson County" d="M2727,259l1,9 64,6 25,25 -10,1 -17,89 -32,-16 -33,4 -70,-54 -6,2 1,-20 12,-31 28,-17Z"/>
    <path data-fips-int="47091" data-name="Johnson County" d="M3309,196l-48,-46 38,-52 -13,-16 20,-29 36,-24 70,-2 -23,43 8,27 -17,26 9,29 -27,-4 -41,29Z"/>
    <path data-fips-int="47093" data-name="Knox County" d="M2625,266l25,39 -1,20 8,31 -53,42 -22,22 -38,-16 -30,12 -50,24 -2,-1 -38,-42 -3,-6 28,-40 51,-22 -13,-15 57,-57 8,8Z"/>
    <path data-fips-int="47095" data-name="Lake County" d="M428,229l-2,12 -55,-1 -23,-33 60,2 -28,-28 40,-29 -12,-24 3,-35 24,20 50,-19 -7,45 -18,25 -10,45Z"/>
    <path data-fips-int="47097" data-name="Lauderdale County" d="M475,388l-5,30 -19,-3 -26,66 -2,40 -15,7 -37,-23 -56,-12 -35,20 -27,29 -18,-28 40,-15 -28,-13 -9,-38 52,-8 17,-22 31,-12 -25,-18 9,-17 39,2v-9l90,-8Z"/>
    <path data-fips-int="47099" data-name="Lawrence County" d="M1258,613l35,6 -12,206 -146,-5 13,-70 2,-116 50,-10v-18Z"/>
    <path data-fips-int="47101" data-name="Lewis County" d="M1243,512l-7,32 25,20 -3,49 -58,-7v18l-50,10 -27,-36 -26,-6 23,-59 28,-20 48,18Z"/>
    <path data-fips-int="47103" data-name="Lincoln County" d="M1556,659l-2,20 45,24 23,55 4,8 10,1 -2,64 -200,-2 4,-128 31,5 57,-34v-18Z"/>
    <path data-fips-int="47105" data-name="Loudon County" d="M2319,506l75,-78 5,-27 25,-4 38,42 4,60 -10,33 -67,-25 -55,3 -8,17 -23,-9Z"/>
    <path data-fips-int="47107" data-name="McMinn County" d="M2303,518l23,9 2,3v5l44,99 4,32 -37,22 -8,9h-58l-14,12 -61,-50 20,-46 71,-95Z"/>
    <path data-fips-int="47109" data-name="McNairy County" d="M845,636l-10,182 -159,-4 6,-120 25,1 12,-30 33,-30Z"/>
    <path data-fips-int="47111" data-name="Macon County" d="M1838,59l-9,58 -5,42 -57,-7 -73,-9 -24,-20 10,-73Z"/>
    <path data-fips-int="47113" data-name="Madison County" d="M719,438l38,2 -5,95 -25,46 -66,28 -90,-5 7,-124 18,11 52,-51 -9,-7Z"/>
    <path data-fips-int="47115" data-name="Marion County" d="M1995,757l10,35 -43,43 -152,-2 -3,-111 20,-9 31,12 19,-11 -7,-24 58,-14 62,46Z"/>
    <path data-fips-int="47117" data-name="Marshall County" d="M1494,490l18,11 -8,119 22,34v18l-57,34 -31,-5 -22,-20 -28,-53 1,-17 42,-37 15,-78 12,-5Z"/>
    <path data-fips-int="47119" data-name="Maury County" d="M1458,491l-12,5 -15,78 -42,37 -1,17 -62,-19 -33,10 -35,-6 3,-49 -25,-20 7,-32 40,-31 8,-59Z"/>
    <path data-fips-int="47121" data-name="Meigs County" d="M2289,518l-71,95 -20,46 -33,30 -27,-57 43,-21 18,-24 -6,-24h30l1,-51 19,-8 5,-36 21,23 20,-2Z"/>
    <path data-fips-int="47123" data-name="Monroe County" d="M2456,532l30,10 10,23 34,-7 -6,18 20,24 -24,25 2,53 -28,25 -45,-8 -30,29 -80,-36 37,-22 -4,-32 -44,-99v-5l-2,-3 8,-17 55,-3Z"/>
    <path data-fips-int="47125" data-name="Montgomery County" d="M1330,136l-60,46 -2,16 -87,-7 -29,-16 -17,-128h199Z"/>
    <path data-fips-int="47127" data-name="Moore County" d="M1657,669l-21,98 -10,-1 -4,-8 -23,-55 -45,-24 2,-20 40,17 5,-14 58,-30Z"/>
    <path data-fips-int="47129" data-name="Morgan County" d="M2253,175l51,65 38,13 12,19 -3,11 41,42 -38,31 -38,8 -52,30 -15,-39 -73,-77 10,-60 32,-8Z"/>
    <path data-fips-int="47131" data-name="Obion County" d="M682,100l2,44 -50,-1 -6,88v10l-75,-4 -125,-8 22,-20 10,-45 18,-25 7,-45Z"/>
    <path data-fips-int="47133" data-name="Overton County" d="M2093,160v50l15,50 -13,24 -32,-4 -83,-38 -28,-32 -2,-47 22,-47 58,-15 53,36Z"/>
    <path data-fips-int="47135" data-name="Perry County" d="M1100,424l-13,83 33,26 -23,59 -103,11 -10,16 -14,-16 27,-33 -22,-40 2,-54 25,-43 3,-12 43,18 12,-15Z"/>
    <path data-fips-int="47137" data-name="Pickett County" d="M2219,65l22,37 -55,-22 -33,-2 -35,15 -25,67 -10,-23 -53,-36 3,-45Z"/>
    <path data-fips-int="47139" data-name="Polk County" d="M2419,724l-10,103 -176,3 28,-87 -2,-34 14,-12h58l8,-9Z"/>
    <path data-fips-int="47141" data-name="Putnam County" d="M2095,284l8,3 -20,18h-37l-6,57 -35,-30 -60,-17 -50,32 -17,-25h-26l-20,-31 10,-50 61,13 42,-22 7,-22 28,32 83,38Z"/>
    <path data-fips-int="47143" data-name="Rhea County" d="M2226,434l22,34 -5,36 -19,8 -1,51h-30l6,24 -18,24 -43,21 -47,-23v-16l10,-38 73,-90Z"/>
    <path data-fips-int="47145" data-name="Roane County" d="M2319,506l-16,12h-14v-29l-20,2 -21,-23 -22,-34 15,-13 23,-27 52,-30 38,-8 38,-31 29,66 3,6 -25,4 -5,27Z"/>
    <path data-fips-int="47147" data-name="Robertson County" d="M1544,53l-28,47 -23,60h-22v1l-28,26 -20,-15 -15,-1 -27,6 -51,-41 4,-89 198,-3Z"/>
    <path data-fips-int="47149" data-name="Rutherford County" d="M1697,375l-18,119 -15,34 -38,-15 -12,16 -37,-8 -28,-25 -37,5 -18,-11 10,-38h18l-1,-84 40,-62 78,58Z"/>
    <path data-fips-int="47151" data-name="Scott County" d="M2419,67l2,38 -27,2 -10,23 12,84 -17,32 -25,26 -12,-19 -38,-13 -51,-65 16,-12 -28,-61 -22,-37Z"/>
    <path data-fips-int="47153" data-name="Sequatchie County" d="M2056,658l-61,99 -5,-35 -62,-46 29,-42 -20,-11v-27l-27,-21 18,-1 52,-16 7,34Z"/>
    <path data-fips-int="47155" data-name="Sevier County" d="M2790,389l17,30 -7,24 13,31 -15,28 -56,23 -15,21 -68,1 -2,-57 -18,-9 -35,-83 53,-42 -8,-31 6,-2 70,54 33,-4Z"/>
    <path data-fips-int="47157" data-name="Shelby County" d="M356,623l-11,180 -258,-11 7,-21 38,4 10,-38 35,-1 -8,-23 13,-24 -32,-20 35,-57 7,-2 6,-3 102,9 30,-10Z"/>
    <path data-fips-int="47159" data-name="Smith County" d="M1824,159l-7,57 25,25 -10,50 -22,18 -18,-11 -57,15 -21,-74 -9,-25 22,-29 38,-19 2,-14Z"/>
    <path data-fips-int="47161" data-name="Stewart County" d="M1135,47l17,128 -47,-2 -42,18 -60,-13 -3,-3 -26,-38 3,-28 8,-15 -13,-70 83,9 -2,14Z"/>
    <path data-fips-int="47163" data-name="Sullivan County" d="M3286,82l-74,53 -45,5 -46,-22 -68,13 -30,-3 -10,-10 35,-32 -4,-36 260,-9 38,-12 -36,24Z"/>
    <path data-fips-int="47165" data-name="Sumner County" d="M1680,50l-10,73 -14,16 -5,50 -9,16 -56,-10 -55,42 -48,-47 -12,-29v-1h22l23,-60 28,-47 20,-9Z"/>
    <path data-fips-int="47167" data-name="Tipton County" d="M192,610l-7,2 -35,-19 38,-23ZM408,528l12,17 -2,67 -62,11 -26,-17 -30,10 -102,-9 10,-35 -6,-36 51,6 27,-29 35,-20 56,12Z"/>
    <path data-fips-int="47169" data-name="Trousdale County" d="M1670,123l24,20 73,9 -2,14 -38,19 -22,29 -35,-26 -19,1 5,-50Z"/>
    <path data-fips-int="47171" data-name="Unicoi County" d="M3201,252l-70,37 -18,38 -34,21 -23,-1 2,-34 1,-27 32,-29 30,-1 32,-48 34,8Z"/>
    <path data-fips-int="47173" data-name="Union County" d="M2647,180l-22,86 -73,-1 -8,-8 -24,-39 17,-60 18,-11 12,-6 27,-2 25,37Z"/>
    <path data-fips-int="47175" data-name="Van Buren County" d="M2038,451v2l7,10v1l-7,25 -58,69 -52,16 -15,-40 -3,-84 50,-13Z"/>
    <path data-fips-int="47177" data-name="Warren County" d="M1880,433l30,17 3,84 15,40 -18,1 -81,9 -24,-5 -30,-29 -11,-35v-36l38,-49 55,-5Z"/>
    <path data-fips-int="47179" data-name="Washington County" d="M3167,140l-14,68 -32,48 -30,1 -32,29 -20,-23 2,-129 -28,5 10,-11 30,3 68,-13Z"/>
    <path data-fips-int="47181" data-name="Wayne County" d="M1097,592l26,6 27,36 -2,116 -13,70 -146,-3 3,-138 -13,-2 -2,-44 7,-14 10,-16Z"/>
    <path data-fips-int="47183" data-name="Weakley County" d="M801,104l-10,165v18l-49,-3 -15,26 -56,-32 -43,-47 6,-88 50,1 -2,-44Z"/>
    <path data-fips-int="47185" data-name="White County" d="M2040,362l20,33 -22,56 -78,-14 -50,13 -30,-17h2l16,-24 -11,-42 8,-20 50,-32 60,17Z"/>
    <path data-fips-int="47187" data-name="Williamson County" d="M1521,368l1,84h-18l-10,38 -36,1 -167,-69 5,-52 10,-42 48,2 5,26 44,-29 55,8Z"/>
    <path data-fips-int="47189" data-name="Wilson County" d="M1651,189l19,-1 35,26 9,25 21,74 17,59 -55,3 -58,-11 -78,-58 -12,-19 -18,-50 55,-42 56,10Z"/>
  </g>
  <path class="mesh" transform="scale(0.1)" d="M2038,453v-2l22,-56 -20,-33 6,-57h37l20,-18 37,-7 36,-2 73,77 15,39 -23,27 -15,13 -52,31 -73,90 -10,38v16l-13,1 -22,48 -69,-66 -7,-34 58,-69 7,-25 81,-3 4,11 44,-7M2544,600l-20,-24 6,-18 -34,7 -10,-23 -30,-10 10,-33 -4,-60 2,1 50,-24 30,-12 38,16 22,-22 35,83 18,9 2,57M2155,831l-19,-66 29,-76 33,-30 61,50 2,34 -28,87M2514,67l41,80 -18,11 -17,60 24,39 -57,57 13,15 -51,22 -28,40 -29,-66 -41,-42 3,-11 25,-26 17,-32 -12,-84 10,-23 27,-2 -2,-38M3201,252l-14,-36 -34,-8 14,-68 45,-5 74,-53 13,16 -38,52 48,46M2379,246l28,-2 24,20 5,-32 60,6 24,-20M2718,59l30,28 5,58 -15,-2 -1,5 -9,17 -81,15 -28,-4 -25,-37 -27,2 -12,6M2033,56l-3,45 -58,15 -22,47 -30,-33 -47,-12 -3,-11 -41,10 9,-58M2813,474l-13,-31 7,-24 -17,-30 17,-89 10,-1 3,-32 18,12 2,-26 106,108M1664,528l15,-34M719,438l-80,-5 9,7 -52,51 -18,-11 -75,-31 -33,-31 5,-30 25,-2 38,-52 18,15 8,50 55,17 20,17M2045,464v-1M1408,171l-22,62 -10,55 -22,42 -48,-2 9,-67 -10,-9 13,-46 -50,-8 2,-16 60,-46 51,41 27,-6 15,1 20,15 28,-26 12,29 48,47 18,50 12,19 -40,62 -63,-33 -55,-8 -44,29 -5,-26M1003,178l10,53 12,54 -33,47 -5,39 33,6 -15,44 -3,12 -25,43 -2,54 22,40 -27,33 14,16 -7,14 -15,-12 -52,16 -16,-20v-51l21,-37 7,-98M1664,528l-5,104 -58,30 -5,14 -40,-17 -30,-5 -22,-34 8,-119 37,-5 28,25 37,8 12,-16 38,15M1752,372l50,58 -38,49v36l-40,6 -45,-27 18,-119 55,-3 -17,-59 57,-15 18,11 22,-18 20,31h26l17,25 -8,20 11,42 -16,24h-2l-23,-8 -55,5M1306,328l-10,42 -126,-18 -10,-87 16,-34 5,-40 87,7M371,240l55,1 2,-12 125,8 -5,84 -10,13M475,388l-24,-32 -90,8v9M345,803l11,-180 62,-11 111,7 -11,190M2103,287l-8,-3 13,-24 -15,-50v-50l25,-67 35,-15 33,2 55,22 28,61 -16,12 -35,35 -32,8 -10,60M1792,690l15,32 3,111M1634,831l2,-64 21,-98M553,237l75,4v-10l43,47 56,32M1281,825l12,-206 33,-10 62,19 28,53 22,20 -4,128M2753,145l40,8 12,50 -23,-1 -52,36 -3,21 -37,-2 -28,17 -12,31 -25,-39 22,-86M2840,253l30,-30 56,-46 87,-38 28,-5 -2,129 20,23 -1,27M1805,579l24,5 81,-9 27,21v27l20,11 -29,42 -58,14 7,24 -19,11 -31,-12 -20,9M2817,299l-25,-25 -64,-6 -1,-9M2805,203l33,-28 32,48M2091,609l47,23 27,57M1962,835l43,-43 -10,-35 61,-99M2963,53l-47,26 -21,-9 -44,26 -24,42 -34,15M529,619l2,-17 40,2 90,5M682,694l-6,120M977,633l2,44 13,2 -3,138M835,818l10,-182M847,618l-2,18 -93,-1 -33,30 -12,30 -25,-1 -21,-85 66,-28 25,-46 19,1 20,35 56,12v35l47,-1M3044,50l4,36 -35,32 10,10 -10,11M578,480l-7,124M418,612l2,-67 -12,-17 15,-7 2,-40 26,-66 19,3M752,535l5,-95M977,109l-3,28 26,38M791,269l10,-165M1296,370l-5,52 -8,59 -40,31 -47,19 -48,-18 -28,20 -33,-26 13,-83 3,-31 68,-29 -1,-12M1002,433l-23,-13 -57,-3v14l-148,-7 -17,16 -38,-2 8,-128 15,-26 49,3v-18l121,6v12l52,-63 -2,-49h38l3,3 60,13 42,-18 47,2 29,16M1950,163l2,47 -7,22 -42,22 -61,-13 -25,-25 7,-57 5,-42M2790,389l-32,-16 -33,4 -70,-54 -6,2 1,-20M3286,82l20,-29 36,-24M2649,325l8,31 -53,42M2462,439l-38,-42 -3,-6M2544,257l8,8 73,1M485,94l-7,45 -18,25 -10,45 -22,20M408,528l-37,-23 -56,-12 -35,20 -27,29M1135,820l13,-70 2,-116 50,-10v-18l58,7 35,6M1243,512l-7,32 25,20 -3,49M1150,634l-27,-36 -26,-6 23,-59M1556,659l-2,20 45,24 23,55 4,8 10,1M1438,701l31,5 57,-34v-18M2456,532l-67,-25 -55,3 -8,17 -23,-9 16,-12 75,-78 5,-27 25,-4M2326,527l2,3M2328,535l44,99 4,32 -37,22 -8,9h-58l-14,12M2198,659l20,-46 71,-95h14M1824,159l-57,-7 -73,-9 -24,-20 10,-73M1928,676l62,46 5,35M1388,628l1,-17 42,-37 15,-78 12,-5 36,-1 18,11M1291,422l167,69M2138,632l43,-21 18,-24 -6,-24h30l1,-51 19,-8 5,-36 21,23 20,-2v29M2419,724l-80,-36M1152,175l-17,-128M1334,47l-4,89M2253,175l51,65 38,13 12,19M2392,325l-38,31 -38,8 -52,30M682,100l2,44 -50,-1 -6,88M2095,284l-32,-4 -83,-38 -28,-32M2030,101l53,36 10,23M1097,592l-103,11 -10,16M2219,65l22,37M2040,362l-35,-30 -60,-17 -50,32M1832,291l10,-50M2226,434l22,34M1544,53l-28,47 -23,60h-22v1M1494,490l10,-38h18l-1,-84M1561,306l78,58 58,11M1910,575l18,-1 52,-16M185,612l7,-2M198,607l102,9 30,-10 26,17M922,417l-15,-1 5,-129M1735,313l-21,-74 -9,-25 22,-29 38,-19 2,-14M3167,140l-46,-22 -68,13 -30,-3M1670,123l-14,16 -5,50 -9,16 -56,-10 -55,42M1705,214l-35,-26 -19,1M3059,286l32,-29 30,-1 32,-48M1928,574l-15,-40 -3,-84 50,-13 78,14M1880,433l30,17M1764,515l11,35 30,29 -3,68 -10,43 -48,-26 -47,-9 -40,14 2,-37M1160,265l-55,-25 -92,-9M1100,424h-40l-12,15 -43,-18"/>
  <g class="cities">
    <circle r="3" cx="19.2" cy="72.4"/>
    <text x="19.2" y="72.4">Memphis</text>
    <circle r="3" cx="145.8" cy="27.5"/>
    <text x="145.8" y="27.5">Nashville</text>
    <circle r="3" cx="255.6" cy="36.5"/>
    <text x="255.6" y="36.5">Knoxville</text>
  </g>
</svg>