<?xml version="1.0" encoding="utf-8"?>
<!DOCTYPE svg PUBLIC "-//W3C//DTD SVG 1.1//EN" "http://www.w3.org/Graphics/SVG/1.1/DTD/svg11.dtd">
<svg version="1.1" xmlns="http://www.w3.org/2000/svg" width="1000" height="244" viewBox="0 0 1000 244">
  <path class="state" d="M691,18h62l2,-2h22l69,-2 24,-1 72,-2 13,-4 20,-1 -5,7v14l-4,8 4,9 -15,-1 -10,12 -9,19 -11,3 -11,-6 -18,9 -10,15 -13,3 1,-10 -3,-3 -17,10 -2,9 -11,-2v10l-5,11 -22,4 -11,7 -3,8 -18,7 -4,6h-19l-13,1 -20,14 -6,7 -1,18 -7,5 -13,-3 -8,9 -3,29 -51,1h-22l-55,1h-43l-50,-1h-57l-44,-2 -42,-1 -42,-1h-44l-45,-1 -46,-1 -48,-2 -74,-3v-6l10,2 5,-12h7l5,-14 -10,-8 7,-4 3,-9 -9,-6 11,-5 1,10 2,-1 3,-10 -4,-6 7,-6 8,4 -5,-7 12,-5 -11,-9 5,-9 11,1 13,-8 -7,-7 4,-6 9,1 -7,-8 6,-17 8,-4 -3,-9 -7,-9 17,1 -7,-13h10l-1,-21 7,6 13,-6 57,2 33,1 50,2 3,-4 -4,-20 24,2v4h137l3,2 6,-2 33,1 45,3 28,1 28,-2 53,2Z"/>
  <g class="counties">
    <path data-fips-int="47001" data-name="Anderson County" d="M720,61l6,11 -16,16 4,5 -14,6 -9,11 -7,-18 -13,-12 1,-4 8,-7 15,5v-9l17,2Z"/>
    <path data-fips-int="47003" data-name="Bedford County" d="M475,150l-2,29 -22,12 -7,-4 -8,-1 -6,-9 -1,-11 3,-24 10,-1 14,10 9,-6Z"/>
    <path data-fips-int="47005" data-name="Benton County" d="M286,50l4,15 3,15 -10,13 -1,12 9,1 -4,13 -1,4 -7,-4 -17,-1 -4,-1 2,-36 12,-14 2,-18h10Z"/>
    <path data-fips-int="47007" data-name="Bledsoe County" d="M620,132l-20,26 -3,15 -10,14 -20,-19 -1,-10 16,-19 2,-8Z"/>
    <path data-fips-int="47009" data-name="Blount County" d="M759,155l-13,1 -20,14 -4,-12 -10,2 -10,-9 5,-8 -4,-6v-13l4,-6 15,-4 16,5 5,-6 11,23 5,3Z"/>
    <path data-fips-int="47011" data-name="Bradley County" d="M645,202v10l-8,24h-22l-6,-21 9,-19 9,-9Z"/>
    <path data-fips-int="47013" data-name="Campbell County" d="M729,41l-5,3 -4,17 -8,6 -17,-2v9l-15,-5 4,-9v-30l8,-3 -1,-9h27Z"/>
    <path data-fips-int="47015" data-name="Cannon County" d="M500,105l13,17 -7,10 -2,14 -12,2 -13,-8 6,-34Z"/>
    <path data-fips-int="47017" data-name="Carroll County" d="M260,81l-2,36 4,1v4l-42,-2 -4,4h-12l4,-37 4,-7 13,1 1,-5 34,1Z"/>
    <path data-fips-int="47019" data-name="Carter County" d="M945,55l-9,19 -11,3 -11,-6 -3,-10 -10,-3 4,-19 11,-1 22,-16 4,5 -8,13Z"/>
    <path data-fips-int="47021" data-name="Cheatham County" d="M403,48l-8,18 -2,16 -6,11 -14,-1 1,-16 -1,-12 3,-7 -14,-2v-4l18,-14 16,12Z"/>
    <path data-fips-int="47023" data-name="Chester County" d="M241,175v5h-26l-11,9 -1,7 -8,1 -6,-24 18,-8 8,-13 11,10 15,3Z"/>
    <path data-fips-int="47025" data-name="Claiborne County" d="M777,16l8,8 1,16 -30,10h-6l-8,-11 -13,2 -11,-23h35l2,-2Z"/>
    <path data-fips-int="47027" data-name="Clay County" d="M580,28l-17,4 -6,13 -9,-9 -14,-7 -12,3 3,-16 28,1 28,-2Z"/>
    <path data-fips-int="47029" data-name="Cocke County" d="M821,83l20,19v10l-5,11 -22,4 -11,7 -3,-2 -3,-22 7,-26 7,-13Z"/>
    <path data-fips-int="47031" data-name="Coffee County" d="M479,140l13,8 12,-2 4,12 7,6v24l-4,8 -13,-7 -13,-3 -12,4v-11l2,-29Z"/>
    <path data-fips-int="47033" data-name="Crockett County" d="M182,123l2,2 -14,14 -5,-3 -23,-10 -8,-8 2,-8 5,-1 12,-15 6,4 1,14 11,2Z"/>
    <path data-fips-int="47035" data-name="Cumberland County" d="M622,78l21,22 3,11 -10,12 -16,9 -36,-1 -2,-3v-1l6,-15 -5,-10 2,-16h10l6,-5 6,-5Z"/>
    <path data-fips-int="47037" data-name="Davidson County" d="M420,45l3,8 14,13 4,16 5,4 -12,18 -17,-9 -17,-3 -12,9 -1,-8 6,-11 2,-16 8,-18 9,4 8,-7Z"/>
    <path data-fips-int="47039" data-name="Decatur County" d="M286,123l-8,12v16l6,16 -4,9 -2,4 -20,1 -3,-6v-14l6,-11 1,-28v-4l17,1Z"/>
    <path data-fips-int="47041" data-name="DeKalb County" d="M541,98l1,18 -5,7 -11,-3 -13,2 -13,-17 -5,-17 28,-6 5,9h8Z"/>
    <path data-fips-int="47043" data-name="Dickson County" d="M362,55l14,2 -3,7 1,12 -1,16 -3,12 -35,-5 -4,-25 4,-7 2,-14Z"/>
    <path data-fips-int="47045" data-name="Dyer County" d="M158,66l-1,22 -4,6 -12,15 -5,1 -7,-9h-17l-10,4 -7,-8 6,-17 8,-4 -3,-9 16,-3Z"/>
    <path data-fips-int="47047" data-name="Fayette County" d="M119,174l32,2 -4,54 -48,-2 3,-51Z"/>
    <path data-fips-int="47049" data-name="Fentress County" d="M640,28l8,17 -4,4 -10,10h-8l-4,19 -15,-2 -6,5 -3,-1 4,-7 -4,-13v-16l8,-20 19,-2Z"/>
    <path data-fips-int="47051" data-name="Franklin County" d="M511,196l5,9 1,32 -50,-1v-18l6,-28 12,-4 13,3Z"/>
    <path data-fips-int="47053" data-name="Gibson County" d="M208,87l-4,37 -22,-1 -11,-9 -11,-2 -1,-14 -6,-4 4,-6 1,-22 21,2 1,-3 9,12Z"/>
    <path data-fips-int="47055" data-name="Giles County" d="M396,178l15,21 -1,37 -44,-2 2,-58 8,-3Z"/>
    <path data-fips-int="47057" data-name="Grainger County" d="M786,40l12,2 3,14 -11,2 -11,14h-11l-11,14 -8,-11 4,-6 3,-19Z"/>
    <path data-fips-int="47059" data-name="Greene County" d="M874,81v7l-3,-3 -17,10 -2,9 -11,-2 -20,-19 -10,-12 9,-8 25,-18 16,-7 7,-1v37Z"/>
    <path data-fips-int="47061" data-name="Grundy County" d="M550,192l-16,4 -4,10 -14,-1 -5,-9 4,-8v-24l8,2 22,-3 8,7 4,16Z"/>
    <path data-fips-int="47063" data-name="Hamblen County" d="M820,63l-9,8 -7,13 -3,-5 -22,-7 11,-14 11,-2 8,-7Z"/>
    <path data-fips-int="47065" data-name="Hamilton County" d="M610,179l8,17 -9,19 6,21 -55,1 10,-8 -1,-14 18,-28 10,-14Z"/>
    <path data-fips-int="47067" data-name="Hancock County" d="M846,14l-10,6 -9,-1 -12,7 -8,13 -9,3 -12,-2 -1,-16 -8,-8Z"/>
    <path data-fips-int="47069" data-name="Hardeman County" d="M162,171l27,2 6,24 -2,34 -46,-1 4,-54v-5Z"/>
    <path data-fips-int="47071" data-name="Hardin County" d="M278,180l5,13 -1,39h-44l3,-52v-5h14l3,6Z"/>
    <path data-fips-int="47073" data-name="Hawkins County" d="M870,13l-1,14 -6,8 -2,3 -16,7 -25,18 -11,-14 -8,7 -3,-14 9,-3 8,-13 12,-7 9,1 10,-6Z"/>
    <path data-fips-int="47075" data-name="Haywood County" d="M134,118l8,8 23,10 -3,35h-11v5l-32,-2 1,-22 -3,-2 12,-33Z"/>
    <path data-fips-int="47077" data-name="Henderson County" d="M262,122l-1,28 -6,11v14h-14v-10l-15,-3 -11,-10 1,-28 4,-4Z"/>
    <path data-fips-int="47079" data-name="Henry County" d="M278,30l-1,8 7,11h-10l-2,18 -12,14v-4l-34,-1 2,-48Z"/>
    <path data-fips-int="47081" data-name="Hickman County" d="M370,104l-2,15 -1,17 -13,9 -13,6 -13,-6 -9,6 -8,-7 3,-24 1,-9 20,-8v-4Z"/>
    <path data-fips-int="47083" data-name="Houston County" d="M329,49l8,4 -2,14 -4,7 -17,-8 -24,-1 -4,-15 12,3 17,-5Z"/>
    <path data-fips-int="47085" data-name="Humphreys County" d="M331,74l4,25v4l-20,8 -1,9h-12l-3,4 -12,-5 4,-13 -9,-1 1,-12 10,-13 -3,-15 24,1Z"/>
    <path data-fips-int="47087" data-name="Jackson County" d="M557,45v14l-7,11 -6,1 -18,-3 -7,-6 1,-18 2,-12 12,-3 14,7Z"/>
    <path data-fips-int="47089" data-name="Jefferson County" d="M779,72l22,7 3,5 -7,26 -16,-4 -24,-14v-6l11,-14Z"/>
    <path data-fips-int="47091" data-name="Johnson County" d="M945,55l-11,-15 8,-13 -4,-5 8,-10 9,-5 20,-1 -5,7v14l-4,8 4,9 -15,-1Z"/>
    <path data-fips-int="47093" data-name="Knox County" d="M749,75l8,11v6l2,9 -16,12 -5,6 -16,-5 -15,4 -4,6 -11,-12 -1,-2 9,-11 14,-6 -4,-5 16,-16Z"/>
    <path data-fips-int="47095" data-name="Lake County" d="M122,64l-16,3 -7,-9 17,1 -7,-13h10l-1,-21 7,6 13,-6 -9,31Z"/>
    <path data-fips-int="47097" data-name="Lauderdale County" d="M136,110l-2,8 -5,-1 -12,33 -16,-10h-12l-15,9 -3,5 -5,-7 12,-5 -11,-9 5,-9 11,1 13,-8 -7,-7 4,-6 9,1 10,-4h17Z"/>
    <path data-fips-int="47099" data-name="Lawrence County" d="M359,174l9,2 -2,58 -42,-1 4,-20v-33l14,-3v-5Z"/>
    <path data-fips-int="47101" data-name="Lewis County" d="M354,145l-1,8 8,10 -2,11 -17,-2v5l-14,3 -8,-10 -7,-2 6,-17 9,-6 13,6Z"/>
    <path data-fips-int="47103" data-name="Lincoln County" d="M444,187l15,16 2,15h6v18h-57l1,-37 8,2 17,-15Z"/>
    <path data-fips-int="47105" data-name="Loudon County" d="M663,143l29,-31 11,12v13l4,6 -5,8 -13,-6 -12,-2 -13,6 -6,-2Z"/>
    <path data-fips-int="47107" data-name="McMinn County" d="M658,147l6,2v3l14,28 1,9 -11,6 -19,3 -4,4 -18,-15 27,-40Z"/>
    <path data-fips-int="47109" data-name="McNairy County" d="M241,180l-3,52 -45,-1 2,-34 8,-1 1,-7 11,-9Z"/>
    <path data-fips-int="47111" data-name="Macon County" d="M525,16l-3,16 -2,12 -15,-2 -21,-2 -7,-6 3,-21Z"/>
    <path data-fips-int="47113" data-name="Madison County" d="M204,124h12l-1,28 -8,13 -18,8 -27,-2 3,-35 5,3 14,-14 -2,-2Z"/>
    <path data-fips-int="47115" data-name="Marion County" d="M569,215l1,14 -10,8h-43l-1,-32 14,1 4,-10 16,-4 14,8Z"/>
    <path data-fips-int="47117" data-name="Marshall County" d="M427,139l5,3 -3,24 1,11 6,9 -17,15 -8,-2 -15,-21v-4l14,-13 2,-20 4,-2Z"/>
    <path data-fips-int="47119" data-name="Maury County" d="M416,139l-4,2 -2,20 -14,13v4l-20,-5 -8,3 -9,-2 2,-11 -8,-10 1,-8 13,-9 1,-17Z"/>
    <path data-fips-int="47121" data-name="Meigs County" d="M654,147l-27,40 -9,9 -8,-17 17,-11 -1,-9 10,-5 -1,-9 6,-2 1,-10 12,6Z"/>
    <path data-fips-int="47123" data-name="Monroe County" d="M702,151l10,9 10,-2 4,12 -6,7 -1,18 -7,5 -13,-3 -8,9 -23,-11 11,-6 -1,-9 -14,-28v-3l13,-6 12,2Z"/>
    <path data-fips-int="47125" data-name="Montgomery County" d="M380,37l-18,14v4l-25,-2 -8,-4 -5,-37h57l-3,12Z"/>
    <path data-fips-int="47127" data-name="Moore County" d="M473,190l-6,28h-6l-2,-15 -15,-16 7,4 22,-12Z"/>
    <path data-fips-int="47129" data-name="Morgan County" d="M644,49l8,12 17,10 3,5 -1,4 13,12 -7,5 -22,8 -9,6 -3,-11 -21,-22 4,-19h8Z"/>
    <path data-fips-int="47131" data-name="Obion County" d="M195,27l1,13h-16v25l-1,3 -21,-2 -36,-2 7,-8 9,-31Z"/>
    <path data-fips-int="47133" data-name="Overton County" d="M598,44v16l4,13 -4,7 -10,-1 -26,-14 -5,-6v-14l6,-13 17,-4 9,4Z"/>
    <path data-fips-int="47135" data-name="Perry County" d="M314,120l-3,24 8,7 -6,17 -29,3 -4,5 4,-9 -6,-16v-16l8,-12 1,-4 12,5 3,-4Z"/>
    <path data-fips-int="47137" data-name="Pickett County" d="M634,17l6,11 -15,-6 -19,2 -8,20 -9,-12 -9,-4 1,-13Z"/>
    <path data-fips-int="47139" data-name="Polk County" d="M691,206l-3,29 -51,1 8,-24v-10l4,-4 19,-3Z"/>
    <path data-fips-int="47141" data-name="Putnam County" d="M598,80l3,1 -6,5h-10l-2,16 -5,-7 -22,-6 -15,9 -5,-7h-8l-5,-9 3,-14 18,3 6,-1 7,-11 5,6 26,14Z"/>
    <path data-fips-int="47143" data-name="Rhea County" d="M636,123l6,10 -1,10 -6,2 1,9 -10,5 1,9 -17,11 -13,-6 3,-15 20,-26Z"/>
    <path data-fips-int="47145" data-name="Roane County" d="M663,143l-5,4h-4v-8l-12,-6 -6,-10 10,-12 9,-6 22,-8 7,-5 7,18 1,2Z"/>
    <path data-fips-int="47147" data-name="Robertson County" d="M441,14l-9,14 -5,17h-7l-8,7 -9,-4 -7,1 -16,-12 -2,-13 3,-12h57Z"/>
    <path data-fips-int="47149" data-name="Rutherford County" d="M485,106l-6,34 -4,10 -10,-5 -9,6 -14,-10 -10,1 -5,-3 9,-18 -2,-17 12,-18 22,17Z"/>
    <path data-fips-int="47151" data-name="Scott County" d="M691,18l1,9 -8,3v30l-4,9 -8,7 -3,-5 -17,-10 -8,-12 4,-4 -8,-17 -6,-11Z"/>
    <path data-fips-int="47153" data-name="Sequatchie County" d="M587,187l-18,28 -5,-15 -14,-8 7,-6 -4,-16 -8,-7h5l16,-5 1,10Z"/>
    <path data-fips-int="47155" data-name="Sevier County" d="M781,106l16,4 3,22 3,2 -3,8 -18,7 -4,6h-19v-16l-5,-3 -11,-23 16,-12 -2,-9Z"/>
    <path data-fips-int="47157" data-name="Shelby County" d="M102,177l-3,51 -74,-3v-6l10,2 5,-12h7l5,-14 -10,-8 7,-4 3,-9 3,-1 2,-1 28,3 9,-3Z"/>
    <path data-fips-int="47159" data-name="Smith County" d="M520,44l-1,18 7,6 -3,14 -28,6 -8,-28 18,-18Z"/>
    <path data-fips-int="47161" data-name="Stewart County" d="M324,12l5,37 -14,-1 -17,5 -12,-3 -2,-1 -7,-11 1,-8 3,-4 -4,-20 24,2v4Z"/>
    <path data-fips-int="47163" data-name="Sullivan County" d="M938,22l-22,16 -11,1 -14,-7 -28,3 6,-8 1,-14 72,-2 13,-4 -9,5Z"/>
    <path data-fips-int="47165" data-name="Sumner County" d="M480,13l-3,21 -5,5 -1,14 -12,5 -5,-5 -17,13 -14,-13 -3,-8h7l5,-17 9,-14 6,-2Z"/>
    <path data-fips-int="47167" data-name="Tipton County" d="M117,150l3,2 -1,22 -17,3 -8,-5 -9,3 -28,-3 3,-10 -4,-6 7,-6 8,4 3,-5 15,-9h12ZM55,173l-3,1 -9,-6 11,-5Z"/>
    <path data-fips-int="47169" data-name="Trousdale County" d="M477,34l7,6 21,2 -18,18 -16,-7 1,-14Z"/>
    <path data-fips-int="47171" data-name="Unicoi County" d="M914,71l-18,9 -10,15 -13,3 1,-10v-7l9,-9h8l10,-14 10,3Z"/>
    <path data-fips-int="47173" data-name="Union County" d="M756,50l-3,19 -4,6 -23,-3 -6,-11 4,-17 5,-3 13,-2 8,11Z"/>
    <path data-fips-int="47175" data-name="Van Buren County" d="M582,127v1l2,3 -2,8 -16,19 -16,5 -3,-10 -2,-26 13,-2Z"/>
    <path data-fips-int="47177" data-name="Warren County" d="M537,123l8,4 2,26 3,10h-5l-22,3 -8,-2 -7,-6 -4,-12 2,-14 7,-10 13,-2Z"/>
    <path data-fips-int="47179" data-name="Washington County" d="M905,39l-4,19 -10,14h-8l-9,9 -6,-7v-37l-7,1 2,-3 28,-3Z"/>
    <path data-fips-int="47181" data-name="Wayne County" d="M313,168l7,2 8,10v33l-4,20 -42,-1 1,-39 -5,-13 2,-4 4,-5Z"/>
    <path data-fips-int="47183" data-name="Weakley County" d="M228,28l-2,48 -1,5 -13,-1 -4,7 -19,-10 -9,-12v-25h16l-1,-13Z"/>
    <path data-fips-int="47185" data-name="White County" d="M583,102l5,10 -6,15 -24,-2 -13,2 -8,-4 5,-7 -1,-18 15,-9 22,6Z"/>
    <path data-fips-int="47187" data-name="Williamson County" d="M434,104l2,17 -9,18h-11l-48,-20 2,-15 3,-12 14,1 1,8 12,-9 17,3Z"/>
    <path data-fips-int="47189" data-name="Wilson County" d="M471,53l16,7 8,28 5,17 -15,1 -17,-3 -22,-17 -5,-4 -4,-16 17,-13 5,5Z"/>
  </g>
  <path class="mesh" d="M582,128v-1l6,-15 -5,-10 2,-16h10l6,-5 6,-5 15,2 21,22 3,11 -10,12 -16,9 -20,26 -3,15 -10,14 -20,-19 -1,-10 16,-19 2,-8 36,1M726,170l-4,-12 -10,2 -10,-9 5,-8 -4,-6v-13l4,-6 15,-4 16,5 5,-6 11,23 5,3v16M615,236l-6,-21 9,-19 9,-9 18,15v10l-8,24M718,18l11,23 -5,3 -4,17 6,11 -16,16 4,5 -14,6 -9,11 -7,-18 -13,-12 1,-4 8,-7 4,-9v-30l8,-3 -1,-9M262,118v4l-42,-2 -4,4h-12l4,-37 4,-7 13,1 1,-5 34,1v4M914,71l-3,-10 -10,-3 4,-19 11,-1 22,-16 4,5 -8,13 11,15M777,16l8,8 1,16 -30,10h-6l-8,-11 -13,2M581,15l-1,13 -17,4 -6,13 -9,-9 -14,-7 -12,3 3,-16M803,134l-3,-2 -3,-22 7,-26 7,-13 10,12 20,19M504,146l4,12 7,6v24l-4,8 -13,-7 -13,-3 -12,4v-11M475,150l-2,29 -22,12 -7,-4 -8,-1 -6,-9 -1,-11 3,-24 10,-1 14,10 9,-6 10,5 4,-10M204,124l-22,-1 2,2 -14,14 -5,-3 -23,-10 -8,-8 2,-8 5,-1 12,-15 6,4 1,14 11,2 11,9M584,131M403,48l-8,18 -2,16 -6,11 -14,-1 1,-16 -1,-12 3,-7 -14,-2v-4l18,-14 16,12 7,-1 9,4 8,-7 3,8 14,13 4,16 5,4 -12,18 -17,-9 -17,-3 -12,9 -1,-8M286,123l-8,12v16l6,16 -4,9 -2,4 -20,1 -3,-6v-14l6,-11 1,-28M500,105l13,17 -7,10 -2,14 -12,2 -13,-8 6,-34 15,-1 -5,-17 28,-6 5,9h8l5,7 1,18 -5,7 -11,-3 -13,2M373,92l-3,12 -35,-5 -4,-25 4,-7 2,-14 25,2M106,67l16,-3 36,2 -1,22 -4,6M136,110l-7,-9h-17l-10,4M99,228l3,-51 17,-3 32,2 -4,54M601,81l-3,-1 4,-7 -4,-13v-16l8,-20 19,-2 15,6 8,17 -4,4 -10,10h-8l-4,19M511,196l5,9 1,32M467,236v-18l6,-28M158,66l21,2 1,-3 9,12 19,10M366,234l2,-58 8,-3 20,5 15,21 -1,37M786,40l12,2 3,14 -11,2 -11,14h-11l-11,14 -8,-11 4,-6 3,-19M811,71l9,-8 25,-18 16,-7 7,-1v37l6,7v7M515,164l8,2 22,-3 8,7 4,16 -7,6 -16,4 -4,10 -14,-1M804,84l-3,-5 -22,-7M801,56l8,-7 11,14M597,173l13,6 8,17M560,237l10,-8 -1,-14 18,-28M846,14l-10,6 -9,-1 -12,7 -8,13 -9,3M151,176v-5h11l27,2M195,197l-2,34M278,180l5,13 -1,39M238,232l3,-52M241,175v5h-26l-11,9 -1,7 -8,1 -6,-24 18,-8 8,-13 11,10 15,3v10h14M870,13l-1,14 -6,8 -2,3M165,136l-3,35M119,174l1,-22 -3,-2 12,-33 5,1M215,152l1,-28M278,30l-1,8 7,11M226,76l2,-48M370,104l-2,15 -1,17 -13,9 -13,6 -13,-6 -9,6 -8,-7 3,-24 1,-9 20,-8v-4M286,50l4,15 3,15 -10,13 -1,12 9,1 -4,13 -1,4 -7,-4 -17,-1 -4,-1 2,-36 12,-14 2,-18h10l2,1 12,3 17,-5 14,1 8,4M331,74l-17,-8 -24,-1M314,120h-12l-3,4 -12,-5M557,45v14l-7,11 -6,1 -18,-3 -7,-6 1,-18 2,-12M797,110l-16,-4 -24,-14v-6M938,22l8,-10 9,-5M757,92l2,9 -16,12M703,124l-11,-12 -1,-2M726,72l23,3M138,25l-9,31 -7,8M117,150l-16,-10h-12l-15,9 -3,5M324,233l4,-20v-33l14,-3v-5l17,2 9,2M354,145l-1,8 8,10 -2,11M328,180l-8,-10 -7,-2 6,-17M444,187l15,16 2,15h6M411,199l8,2 17,-15M702,151l-13,-6 -12,-2 -13,6 -6,-2 5,-4 29,-31M664,149v1M664,152l14,28 1,9 -11,6 -19,3 -4,4M627,187l27,-40h4M520,44l-15,-2 -21,-2 -7,-6 3,-21M550,192l14,8 5,15M396,178v-4l14,-13 2,-20 4,-2h11l5,3M368,119l48,20M610,179l17,-11 -1,-9 10,-5 -1,-9 6,-2 1,-10 12,6v8M691,206l-23,-11M329,49l-5,-37M381,12l-3,12 2,13M644,49l8,12 17,10 3,5M684,92l-7,5 -22,8 -9,6M195,27l1,13h-16v25M598,80l-10,-1 -26,-14 -5,-6M580,28l9,4 9,12M313,168l-29,3 -4,5M634,17l6,11M583,102l-5,-7 -22,-6 -15,9M523,82l3,-14M636,123l6,10M441,14l-9,14 -5,17h-7M427,139l9,-18 -2,-17M446,86l22,17 17,3M545,163h5l16,-5M52,174l3,-1M57,172l28,3 9,-3 8,5M495,88l-8,-28 18,-18M905,39l-14,-7 -28,3M477,34l-5,5 -1,14 -12,5 -5,-5 -17,13M487,60l-16,-7M874,81l9,-9h8l10,-14M680,69l15,5v-9l17,2 8,-6M550,163l-3,-10 -2,-26 13,-2 24,2M537,123l8,4"/>
  <g class="cities">
    <circle r="7" cx="55" cy="206"/>
    <text x="55" y="206">Memphis</text>
    <circle r="7" cx="730" cy="103"/>
    <text x="730" y="103">Knoxville</text>
    <circle r="7" cx="579" cy="229"/>
    <text x="579" y="229">Chattanooga</text>
  </g>
</svg>