<?xml version="1.0" encoding="utf-8"?>
<!DOCTYPE svg PUBLIC "-//W3C//DTD SVG 1.1//EN" "http://www.w3.org/Graphics/SVG/1.1/DTD/svg11.dtd">
<svg version="1.1" xmlns="http://www.w3.org/2000/svg" width="350" height="86" viewBox="0 0 350 86">
  <g class="counties" transform="scale(0.1)">
    <path data-fips-int="47001" data-name="Anderson County" d="M2520,218l-1,2 15,27 11,10 -5,3 -43,46 -10,8 14,15 -6,8 -27,16 -18,-3 0,6 -10,10 2,7 -10,-2 0,10 -10,-6 6,12 -7,4 -21,-43 -7,-23 -15,-21 -16,-6 -4,-11 -8,-5 4,-10 15,-7 3,-12 8,-7 16,4 11,-6 23,20 4,-2 1,-30 44,4 4,5 12,-3 0,-11 16,-21 2,11Z"/>
    <path data-fips-int="47003" data-name="Bedford County" d="M1664,528l1,60 -4,43 -2,1 -12,2 -2,7 -14,7 0,7 -12,1 -4,7 -15,0 -2,10 -11,2 -13,-9 -4,-10 -15,3 -22,-8 -7,2 -6,0 -7,-12 -11,-31 2,-34 8,-74 0,-9 38,3 10,5 -2,5 19,15 21,-2 0,11 5,4 11,-5 -2,-6 11,-4 4,-7 12,2 2,7 9,-1Z"/>
    <path data-fips-int="47005" data-name="Benton County" d="M1003,178l7,15 6,20 -2,18 -1,11 13,28 -4,20 -13,19 -12,14 -5,10 0,13 -9,16 4,9 13,5 20,2 -7,34 -8,9 -3,12 -22,2 0,-10 -9,-9 -13,4 -36,-3 -15,0 4,-88 1,-42 18,-19 -2,-6 13,-12 1,-9 10,-2 4,-14 7,-3 -7,-23 8,-24 36,0Z"/>
    <path data-fips-int="47007" data-name="Bledsoe County" d="M2174,464l-50,70 -22,21 -3,24 -4,-1 -7,13 11,10 -7,8 -6,6 -7,-5 -22,48 -24,-20 -45,-44 -1,-12 -11,-9 4,-15 25,-29 33,-40 1,-16 5,-9 59,-3 7,5 17,-5 3,11 40,-11Z"/>
    <path data-fips-int="47009" data-name="Blount County" d="M2626,434 -4,5 20,43 7,-1 1,10 7,4 0,52 -41,5 -3,5 -18,13 -21,3 -11,21 -19,6 7,-9 -10,-8 -7,6 -9,-14 6,-6 -1,-11 -17,6 -18,1 0,-10 -10,-13 -8,6 -6,-7 -13,-3 -2,-6 14,-8 6,-16 -10,-9 -6,-16 1,-11 7,-10 -10,-5 4,-17 10,3 1,-16 -3,-10 5,-1 5,11 17,-10 4,9 5,-8 17,-2 -9,-9 13,-6 8,10 10,-6 16,9 0,4 21,2 15,-18 7,-4 15,32Z"/>
    <path data-fips-int="47011" data-name="Bradley County" d="M2259,710l2,33 -18,41 5,2 -5,10 -10,34 -79,1 7,-13 -16,-14 3,-14 -13,-25 8,-20 -1,-7 10,-16 13,-33 7,-1 17,-18 4,-10 5,-1 14,11 6,-1 23,20 10,3 -11,2 5,9 11,-3Z"/>
    <path data-fips-int="47013" data-name="Campbell County" d="M2556,147l1,6 -8,9 -10,-6 -7,14 -1,35 -11,13 -7,-1 -2,-11 -16,21 0,11 -12,3 -4,-5 -44,-4 -1,30 -4,2 -23,-20 -11,6 -16,-4 -2,-20 18,-12 -3,-49 9,1 -13,-14 -4,-23 5,-1 0,-16 4,-5 16,3 10,-4 4,-25 -6,-1 1,-12 96,-1 12,19 22,57Z"/>
    <path data-fips-int="47015" data-name="Cannon County" d="M1752,372l8,5 32,36 10,17 -11,8 -28,43 -2,16 3,18 -10,4 -30,2 -12,-7 -9,0 -18,-18 -6,-2 0,-16 7,-12 -1,-11 4,-9 0,-14 4,-23 4,1 2,-13 5,-3 -5,-8 0,-11 3,-3 25,-2Z"/>
    <path data-fips-int="47017" data-name="Carroll County" d="M912,287l-1,42 -4,88 15,0 0,14 -150,-7 -15,16 -39,-2 10,-128 15,-1 0,-25 47,2 1,-17 22,2 99,4Z"/>
    <path data-fips-int="47019" data-name="Carter County" d="M3310,196l-10,18 -25,52 -9,-2 -2,6 -26,6 -8,-22 -14,3 -14,-5 -3,-15 -7,-8 -9,-1 4,-12 -10,-8 -14,-4 -8,4 -1,-5 6,-14 8,-34 0,-15 4,0 14,-12 24,8 30,-24 12,-5 15,-14 14,-3 5,-8 0,4 14,12 -16,19 -1,4 -23,29 13,12 11,5 7,19Z"/>
    <path data-fips-int="47021" data-name="Cheatham County" d="M1410,171l1,6 -4,18 -11,23 -10,16 -9,57 -16,17 -1,20 -5,2 -12,1 -38,-4 5,-9 0,-20 2,-27 7,-4 -15,-16 10,-11 -12,-5 15,-13 0,-16 -23,-4 -7,-8 -3,4 -16,0 2,-16 7,1 5,-11 12,-9 5,-7 10,2 0,-8 12,3 -2,-13 12,-4 35,26 9,4 7,11Z"/>
    <path data-fips-int="47023" data-name="Chester County" d="M847,618l4,5 -5,12 -61,-3 -32,3 -15,8 -8,8 -1,11 -5,-2 -9,16 -4,14 -4,5 -24,0 -5,-44 -17,-22 1,-20 10,0 54,-28 17,-22 8,-15 0,-9 20,1 5,15 15,20 16,9 20,7 20,-4Z"/>
    <path data-fips-int="47025" data-name="Claiborne County" d="M2718,59l16,11 14,18 12,34 0,13 -6,10 -12,-3 -16,16 4,6 -6,3 -11,-5 -17,13 -20,-6 -8,9 -16,8 -4,-6 -11,-9 -6,9 -9,0 -12,-25 -13,-6 -3,-11 -11,8 -11,-7 -5,2 -11,6 -7,-4 -22,-57 -12,-19 59,1 62,0 6,-9 20,1Z"/>
    <path data-fips-int="47027" data-name="Clay County" d="M2030,101l-5,5 -15,-3 -15,8 -2,11 -9,-7 -13,1 -16,23 -4,23 -14,-16 -18,-16 -34,-11 -11,0 -3,-13 -13,2 8,10 -14,-1 -5,-8 -18,8 7,-54 2,-4 115,3 80,-6 0,19 4,6Z"/>
    <path data-fips-int="47029" data-name="Cocke County" d="M2946,361l0,8 -8,0 10,23 -9,6 2,13 -6,2 -11,22 -12,9 -15,-6 -17,-1 -16,11 -15,2 -10,16 -20,2 -6,6 -6,1 -4,-10 2,-18 -6,-11 9,-14 -13,-13 2,-6 -7,-2 -1,-12 5,-2 7,-51 7,3 0,-21 7,-5 -7,-13 8,-1 -5,-18 8,0 2,-14 8,10 10,0 -6,-22 8,-2 -2,11 16,16 11,0 12,13 42,39Z"/>
    <path data-fips-int="47031" data-name="Coffee County" d="M1679,494l6,2 18,18 9,0 12,7 30,-2 10,-4 13,24 1,17 17,15 8,1 3,7 -5,30 1,38 6,0 -4,15 -6,6 -6,22 -12,-7 -19,-4 -18,-15 -46,-9 -14,9 -22,0 -4,5 6,-6 -11,-12 8,-6 -9,-1 8,-12 2,-1 4,-43 -1,-60 -1,-27Z"/>
    <path data-fips-int="47033" data-name="Crockett County" d="M638,433l3,3 6,4 -51,51 -15,-5 -3,-6 -18,-3 -12,-12 -23,-13 -22,-3 -8,-9 -8,-1 -12,-9 -5,-12 -2,-4 7,-13 1,-13 24,-2 5,-13 12,-6 16,-19 4,-14 2,6 18,9 2,34 6,16 10,2 10,7 14,-3 1,7 11,6 8,-1Z"/>
    <path data-fips-int="47035" data-name="Cumberland County" d="M2176,277l14,11 15,23 10,-1 6,14 27,29 16,41 -10,6 -13,21 -16,13 -5,0 -46,30 -4,-3 -40,11 -3,-11 -17,5 -7,-5 -59,3 1,-1 2,-9 -10,-1 2,-2 10,-8 6,-25 -2,-15 7,-8 -12,-1 -8,-25 0,-6 4,-30 4,-7 -2,-21 4,-2 32,2 8,-13 12,-5 6,2 21,-18 11,9 12,-3 14,6Z"/>
    <path data-fips-int="47037" data-name="Davidson County" d="M1470,161l10,11 2,18 19,14 3,7 9,6 1,15 17,5 15,52 5,-2 7,0 -3,13 6,6 -3,19 -9,-13 0,10 -6,-1 0,16 -19,11 2,12 -5,8 -24,-10 -12,-9 -7,-1 -22,-13 -53,-8 -35,26 -9,4 -4,-27 5,-2 1,-20 16,-17 9,-57 10,-16 11,-23 4,-18 -1,-6 6,-3 16,9 11,10 15,-5 3,-14 9,-7 0,-1Z"/>
    <path data-fips-int="47039" data-name="Decatur County" d="M1002,433l-7,24 -18,18 1,13 4,7 0,12 -7,20 13,29 10,18 -4,14 -22,11 -2,9 5,9 9,2 10,2 2,8 -6,5 -13,-1 -15,-12 -22,15 -16,-4 -14,5 -6,-14 -11,-6 -2,0 3,-50 9,-9 -3,-3 15,-26 7,-98 0,-14 36,3 13,-4 9,9 0,10Z"/>
    <path data-fips-int="47041" data-name="DeKalb County" d="M1894,347l0,-1 0,1 0,12 -6,8 0,11 6,23 -9,6 12,2 -13,13 14,1 -6,12 -12,-2 -26,-8 -14,3 -34,-1 -4,3 -10,-17 -32,-36 -8,-5 -4,-18 -5,-2 2,-11 -7,-8 -3,-20 21,2 7,-2 11,-11 10,0 14,-3 4,8 8,2 4,-12 18,-6 7,14 7,4 -2,8 9,4 11,-6 14,5 7,19Z"/>
    <path data-fips-int="47043" data-name="Dickson County" d="M1268,198l16,0 3,-4 7,8 23,4 0,16 -15,13 12,5 -10,11 15,16 -7,4 -2,27 0,20 -5,9 -8,43 -35,-5 -15,-4 -76,-9 -8,-11 4,-38 -2,-18 -6,-20 17,-34 5,-40 70,10 1,-4Z"/>
    <path data-fips-int="47045" data-name="Dyer County" d="M553,237l-6,85 -16,5 6,7 -4,14 -16,19 -12,6 -5,13 -24,2 -4,-11 -9,-6 -11,-15 -33,-1 1,6 -18,1 -8,-4 -7,6 -21,0 -6,9 -2,-9 -13,-13 -13,-10 2,-9 12,-19 5,-26 5,-5 15,-5 13,-9 -2,-18 -10,-10 54,1 2,-12Z"/>
    <path data-fips-int="47047" data-name="Fayette County" d="M417,612l15,2 97,5 -8,129 -3,61 -60,-1 -113,-5 6,-91 1,-33 4,-56 6,-6 30,-6Z"/>
    <path data-fips-int="47049" data-name="Fentress County" d="M2241,102l6,12 9,30 13,19 -10,4 -6,8 -8,-3 -6,20 -14,1 -14,19 -12,3 -4,-3 -8,11 -7,22 -7,7 5,17 -2,8 -10,6 -14,-6 -12,3 -11,-9 -21,18 -6,-2 -7,-3 13,-24 -15,-51 0,-49 7,-2 5,-42 9,-14 6,-1 4,-11 36,-14 29,5 18,10 14,11Z"/>
    <path data-fips-int="47051" data-name="Franklin County" d="M1792,690l15,31 4,2 0,110 -177,-2 1,-64 -1,-17 7,-5 -4,-10 7,-6 -3,-13 8,-3 -2,-8 12,-18 4,-14 -6,-4 4,-5 22,0 14,-9 46,9 18,15 19,4Z"/>
    <path data-fips-int="47053" data-name="Gibson County" d="M728,310l-10,128 -80,-5 -19,-16 -8,1 -11,-6 -1,-7 -14,3 -10,-7 -10,-2 -6,-16 -2,-34 -18,-9 -2,-6 -6,-7 16,-5 6,-85 74,4 1,-10 10,12 14,10 12,20 8,6 33,10 3,7Z"/>
    <path data-fips-int="47055" data-name="Giles County" d="M1387,628l14,5 2,26 6,7 -3,9 20,9 6,-9 6,12 0,14 -3,92 -1,37 -150,-6 0,-25 4,-33 6,-17 -9,-5 5,-19 -3,0 2,-43 0,-45 3,-18 18,-1 15,-9 23,11 11,1 6,7 12,3Z"/>
    <path data-fips-int="47057" data-name="Grainger County" d="M2754,145 13,-3 5,4 13,10 9,-3 -3,7 6,4 4,14 -4,11 8,13 -8,13 -10,-2 -11,-12 -11,13 -9,1 -13,15 2,7 -14,2 2,12 -7,8 -6,4 -14,-5 -15,-1 -9,12 -7,-4 0,10 -10,2 -1,18 -7,1 0,-8 -11,-1 8,14 -4,4 -8,-15 -5,2 -9,-14 -4,-12 7,-5 -5,-6 10,-9 1,-23 -2,-9 13,-34 4,6 16,-8 8,-9 20,6 17,-13 11,5 6,-3 -4,-6 16,-16Z"/>
    <path data-fips-int="47059" data-name="Greene County" d="M3060,286l7,8 -9,19 -12,-12 -14,6 -16,15 -23,11 -3,12 4,2 -17,24 -10,-11 -10,-3 -11,4 -26,-29 -42,-39 -12,-13 -11,0 -16,-16 2,-11 10,-5 10,-15 11,-10 8,-3 5,-9 11,-3 12,-11 18,-20 8,3 11,-11 17,-10 10,3 13,-12 9,2 11,-10 9,-3 26,-5 1,67 -1,62Z"/>
    <path data-fips-int="47061" data-name="Grundy County" d="M1929,676l-29,7 -14,1 -8,7 -8,-1 6,24 -18,11 -17,-3 -14,-9 -9,0 -11,8 -15,-31 6,-22 6,-6 4,-15 -6,0 -1,-38 5,-30 23,5 43,-7 37,-2 26,19 2,29 10,4 -1,7 11,0 -2,11 -7,12 -11,7Z"/>
    <path data-fips-int="47063" data-name="Hamblen County" d="M2872,223l-11,10 -10,15 -10,5 -8,2 6,22 -10,0 -8,-10 -2,14 -8,0 5,18 -6,-12 -17,-13 -32,-6 -32,0 -3,-9 7,-8 -2,-12 14,-2 -2,-7 13,-15 9,-1 11,-13 11,12 10,2 8,-13 15,-2 7,-14 8,5 -2,-12 7,-4 7,17 16,15Z"/>
    <path data-fips-int="47065" data-name="Hamilton County" d="M2138,632l-6,14 9,-2 13,11 3,22 8,12 -13,33 -10,16 1,7 -8,20 13,25 -3,14 16,14 -7,13 -146,3 -46,1 16,-10 9,-18 6,1 11,-15 1,-8 -13,-8 3,-20 55,-83 7,-16 22,-48 7,5 6,-6 9,0 3,14 14,-4Z"/>
    <path data-fips-int="47067" data-name="Hancock County" d="M2963,53l-18,9 -27,17 -4,-6 -9,6 -2,-9 -8,0 -43,26 -12,14 -1,9 -15,8 3,10 -22,13 -11,3 -9,3 -13,-10 -5,-4 -13,3 6,-10 0,-13 -12,-34 -14,-18 -16,-11 75,-3 6,2Z"/>
    <path data-fips-int="47069" data-name="Hardeman County" d="M571,604l91,5 -1,20 17,22 5,44 -5,74 0,45 -160,-5 3,-61 8,-129 2,-17Z"/>
    <path data-fips-int="47071" data-name="Hardin County" d="M977,633l-1,11 8,9 -5,8 1,16 12,2 -2,77 -2,60 -84,-2 1,6 -70,-2 11,-183 5,-12 -4,-5 45,2 1,-3 11,6 6,14 14,-5 16,4 22,-15Z"/>
    <path data-fips-int="47073" data-name="Hawkins County" d="M3047,51l-3,7 4,28 -6,2 0,9 -28,20 8,11 2,4 -10,7 -9,3 -11,10 -9,-2 -13,12 -10,-3 -17,10 -11,11 -8,-3 -18,20 -12,11 -11,3 -5,9 -8,3 -9,-16 -16,-15 -7,-17 -7,4 2,12 -8,-5 -7,14 -15,2 -8,-13 4,-11 -4,-14 -6,-4 3,-7 11,-3 22,-13 -3,-10 15,-8 1,-9 12,-14 43,-26 8,0 2,9 9,-6 4,6 27,-17 18,-9Z"/>
    <path data-fips-int="47075" data-name="Haywood County" d="M470,418l5,12 12,9 8,1 8,9 22,3 23,13 12,12 18,3 -1,23 -6,101 -40,-2 -2,17 -97,-5 -15,-2 5,-67 -6,-13 -6,-4 12,-6 4,-42 5,0 11,-30 -5,-9 16,-26Z"/>
    <path data-fips-int="47077" data-name="Henderson County" d="M922,431l-7,98 -15,26 3,3 -9,9 -3,50 2,0 -1,3 -45,-2 0,-35 -20,4 -20,-7 -16,-9 -15,-20 -5,-15 -20,-1 6,-95 15,-16Z"/>
    <path data-fips-int="47079" data-name="Henry County" d="M976,110l1,15 -3,12 8,9 12,24 6,5 -36,0 -8,24 7,23 -7,3 -4,14 -10,2 -1,9 -13,12 2,6 -18,19 0,-12 -99,-4 -22,-2 3,-41 3,-57 2,-38 1,-29 174,6Z"/>
    <path data-fips-int="47081" data-name="Hickman County" d="M1297,370l1,9 -6,42 -5,41 -3,19 -12,3 6,5 -4,5 -11,0 -8,5 -6,13 -6,-1 -9,0 -22,16 -16,5 -18,-7 -15,-1 -8,-11 -7,0 -14,9 2,4 -16,7 -7,-8 -26,-18 3,-18 11,-1 -9,-11 7,-53 4,-31 10,-5 10,0 24,-17 10,2 14,-9 0,-12 76,9 15,4Z"/>
    <path data-fips-int="47083" data-name="Houston County" d="M1151,175l2,12 28,4 -5,40 -17,34 -6,-10 -30,-2 -18,-13 -15,-6 -19,-3 -14,6 -43,-6 2,-18 -6,-20 -7,-15 12,1 21,9 27,4 26,-7 15,-12Z"/>
    <path data-fips-int="47085" data-name="Humphreys County" d="M1159,265l6,20 2,18 -4,38 8,11 0,12 -14,9 -10,-2 -24,17 -10,0 -10,5 -4,31 -39,0 -9,8 -4,8 -22,-17 -20,-2 8,-9 7,-34 -20,-2 -13,-5 -4,-9 9,-16 0,-13 5,-10 12,-14 13,-19 4,-20 -13,-28 1,-11 43,6 14,-6 19,3 15,6 18,13 30,2Z"/>
    <path data-fips-int="47087" data-name="Jackson County" d="M1951,162l0,48 -7,22 -7,-2 -3,12 -7,6 -7,-4 -14,5 -3,5 -43,-9 -14,-8 -4,4 -9,-8 -7,2 -9,-18 7,-58 5,-42 18,-8 5,8 14,1 -8,-10 13,-2 3,13 11,0 34,11 18,16Z"/>
    <path data-fips-int="47089" data-name="Jefferson County" d="M2726,259l3,9 32,0 32,6 17,13 6,12 -8,1 7,13 -7,5 0,21 -7,-3 -7,51 -5,2 -17,-10 -14,2 0,-8 -22,2 -16,1 -7,-5 -5,-11 -34,-25 -19,-12 -7,2 -15,-24 8,-2 9,6 4,-4 -8,-14 11,1 0,8 7,-1 1,-18 10,-2 0,-10 7,4 9,-12 15,1 14,5Z"/>
    <path data-fips-int="47091" data-name="Johnson County" d="M3310,196l-19,-10 -7,-19 -11,-5 -13,-12 23,-29 1,-4 16,-19 -14,-12 0,-4 7,-11 13,-11 -1,-6 21,-11 0,-5 17,-8 69,-3 -12,13 1,9 -10,16 4,11 2,21 -8,4 -1,17 -8,5 3,16 12,21 -12,-3 -10,2 -10,-5 -2,-6 -27,17 -3,7 -12,7Z"/>
    <path data-fips-int="47093" data-name="Knox County" d="M2624,266l4,12 9,14 5,-2 8,15 -9,-6 -8,2 15,24 2,14 6,17 -16,16 -16,11 -10,3 -10,12 -7,4 -15,18 -21,-2 0,-4 -16,-9 -10,6 -8,-10 -13,6 9,9 -17,2 -5,8 -4,-9 -17,10 -5,-11 -5,1 3,10 -1,16 -10,-3 -38,-43 -3,-6 7,-4 -6,-12 10,6 0,-10 10,2 -2,-7 10,-10 0,-6 18,3 27,-16 6,-8 -14,-15 10,-8 43,-46 5,-3 7,8Z"/>
    <path data-fips-int="47095" data-name="Lake County" d="M428,229l-2,12 -54,-1 -27,-24 3,-9 11,2 13,-2 9,4 28,-2 -1,-11 -28,-17 -3,-9 9,-6 20,4 10,-6 5,-12 -13,-24 10,-23 -6,-12 20,2 -2,15 11,3 16,-19 28,-1 2,13 -8,10 -4,12 3,10 -17,26 0,11 -12,32 -8,14 -14,4Z"/>
    <path data-fips-int="47097" data-name="Lauderdale County" d="M476,388l-1,13 -7,13 2,4 -17,-3 -16,26 5,9 -11,30 -5,0 -4,42 -12,6 -12,-8 -8,-4 -22,-19 -15,-2 -4,6 -12,-6 -13,3 -12,-3 -14,2 -25,24 -8,-1 -8,18 -5,4 -11,-9 -6,-11 4,-11 13,-6 8,1 15,-8 2,-12 -5,-6 -14,9 -9,-3 -12,-17 2,-21 18,-11 10,3 1,6 13,-6 9,0 9,-8 2,-10 15,-7 12,2 10,-11 -24,-19 4,-12 7,-5 19,10 12,1 4,-8 6,-9 21,0 7,-6 8,4 18,-1 -1,-6 33,1 11,15 9,6Z"/>
    <path data-fips-int="47099" data-name="Lawrence County" d="M1259,613l25,8 8,-2 -3,18 0,45 -2,43 3,0 -5,19 9,5 -6,17 -4,33 0,25 -53,-1 -96,-3 0,-15 11,1 -3,-12 0,-39 2,-1 5,-22 -3,2 1,-45 2,-55 22,0 4,-8 23,-2 1,-18 47,2 -1,4Z"/>
    <path data-fips-int="47101" data-name="Lewis County" d="M1243,511l1,12 -7,11 1,13 13,7 -1,10 11,0 6,31 -8,18 -13,-1 1,-4 -47,-2 -1,18 -23,2 -4,8 -22,0 -8,-7 -4,-11 -15,-4 0,-14 -15,0 -12,-6 3,-10 8,0 2,-22 8,-1 6,-7 -3,-19 16,-7 -2,-4 14,-9 7,0 8,11 15,1 18,7 16,-5 22,-16Z"/>
    <path data-fips-int="47103" data-name="Lincoln County" d="M1555,659l-5,10 4,10 13,3 18,10 5,10 9,2 -5,9 4,6 8,-4 7,25 2,26 7,-8 9,11 4,-2 -1,64 -79,0 -121,-1 1,-37 3,-92 31,5 19,-20 23,-11 14,-3 1,-19 7,-2Z"/>
    <path data-fips-int="47105" data-name="Loudon County" d="M2320,506l10,-22 6,0 18,-21 8,4 3,-11 12,2 3,-23 14,-7 4,-29 18,8 0,-12 8,2 38,43 -4,17 10,5 -7,10 -1,11 6,16 10,9 -6,16 -14,8 -2,-4 -22,2 0,-8 -19,-5 3,-6 -14,-4 -12,0 -2,9 -14,3 -6,-13 -17,1 1,4 -25,4 7,15 -9,-2 -8,-8 -4,5 -10,-1 0,-6 3,-7Z"/>
    <path data-fips-int="47107" data-name="McMinn County" d="M2303,518l0,6 10,1 4,-5 8,8 2,2 0,5 0,11 7,0 2,8 26,57 -4,6 7,7 0,8 7,2 0,25 4,7 -21,6 -16,16 -7,9 -59,0 -14,13 -3,-10 -11,3 -5,-9 11,-2 -10,-3 -23,-20 -6,1 -14,-11 8,-21 6,-5 8,-24 9,-5 12,-22 9,-6 12,-18 1,-8 8,-5 10,-18 8,-9Z"/>
    <path data-fips-int="47109" data-name="McNairy County" d="M846,635l-11,183 -157,-4 0,-45 5,-74 24,0 4,-5 4,-14 9,-16 5,2 1,-11 8,-8 15,-8 32,-3Z"/>
    <path data-fips-int="47111" data-name="Macon County" d="M1838,59l-2,4 -7,54 -5,42 -58,-7 -72,-9 -8,-18 -15,-2 6,-18 -4,-2 8,-52 143,8Z"/>
    <path data-fips-int="47113" data-name="Madison County" d="M718,438l39,2 -6,95 0,9 -8,15 -17,22 -54,28 -10,0 -91,-5 6,-101 1,-23 3,6 15,5 51,-51 -6,-4 -3,-3Z"/>
    <path data-fips-int="47115" data-name="Marion County" d="M1995,757l-3,20 13,8 -1,8 -11,15 -6,-1 -9,18 -16,10 -151,-2 0,-110 -4,-2 11,-8 9,0 14,9 17,3 18,-11 -6,-24 8,1 8,-7 14,-1 29,-7 0,5 24,13 20,8 17,20 5,18Z"/>
    <path data-fips-int="47117" data-name="Marshall County" d="M1494,490l5,6 13,6 -8,74 -2,34 11,31 7,12 6,0 -1,19 -14,3 -23,11 -19,20 -31,-5 0,-14 -6,-12 -6,9 -20,-9 3,-9 -6,-7 -2,-26 -14,-5 3,-17 11,-5 22,-18 12,-20 4,-18 7,-54 6,2 5,-7 14,2Z"/>
    <path data-fips-int="47119" data-name="Maury County" d="M1457,491l-5,7 -6,-2 -7,54 -4,18 -12,20 -22,18 -11,5 -3,17 -10,3 -12,-3 -6,-7 -11,-1 -23,-11 -15,9 -18,1 -8,2 -25,-8 8,-18 -6,-31 -11,0 1,-10 -13,-7 -1,-13 7,-11 -1,-12 6,1 6,-13 8,-5 11,0 4,-5 -6,-5 12,-3 3,-19 5,-41 93,39 4,-5 10,10 45,19Z"/>
    <path data-fips-int="47121" data-name="Meigs County" d="M2289,518l-8,9 -10,18 -8,5 -1,8 -12,18 -9,6 -12,22 -9,5 -8,24 -6,5 -8,21 -5,1 -4,10 -17,18 -7,1 -8,-12 -3,-22 -13,-11 -9,2 6,-14 13,-13 -2,-12 7,-2 5,9 14,3 5,-4 1,-14 13,-6 5,-8 -9,-10 3,-12 20,3 9,-7 -7,-9 13,-8 1,-7 -6,-8 2,-15 4,-2 5,-19 7,1 -2,11 6,-3 2,-13 6,-8 -4,-11 9,5 0,11 9,0 2,7 10,-10 8,6 -2,10Z"/>
    <path data-fips-int="47123" data-name="Monroe County" d="M2368,506 6,13 14,-3 2,-9 12,0 14,4 -3,6 19,5 0,8 22,-2 2,4 2,6 13,3 6,7 8,-6 10,13 0,10 18,-1 17,-6 1,11 -6,6 9,14 7,-6 10,8 -7,9 -11,11 -4,8 -8,6 6,19 -11,9 1,19 5,6 -11,14 -18,11 -10,3 -29,-1 -9,-11 -25,21 -2,9 -12,-6 -10,6 -2,-13 -55,-23 16,-16 21,-6 -4,-7 0,-25 -7,-2 0,-8 -7,-7 4,-6 -26,-57 -2,-8 -7,0 0,-11 0,-5 -2,-2 9,2 -7,-15 25,-4 -1,-4Z"/>
    <path data-fips-int="47125" data-name="Montgomery County" d="M1331,136l-12,4 2,13 -12,-3 0,8 -10,-2 -5,7 -12,9 -5,11 -7,-1 -2,16 -16,-1 -1,4 -70,-10 -28,-4 -2,-12 -12,-85 -4,-44 117,0 83,1 -7,33 -3,7 7,4 0,12 -4,30Z"/>
    <path data-fips-int="47127" data-name="Moore County" d="M1657,669l6,4 -4,14 -12,18 2,8 -8,3 3,13 -7,6 4,10 -7,5 1,17 -4,2 -9,-11 -7,8 -2,-26 -7,-25 -8,4 -4,-6 5,-9 -9,-2 -5,-10 -18,-10 -13,-3 -4,-10 5,-10 15,-3 4,10 13,9 11,-2 2,-10 15,0 4,-7 12,-1 0,-7 14,-7 2,-7 12,-2 -8,12 9,1 -8,6 11,12Z"/>
    <path data-fips-int="47129" data-name="Morgan County" d="M2253,175l30,40 6,7 14,2 4,19 4,-4 31,14 1,6 11,13 -4,10 8,5 4,11 16,6 15,21 -9,4 -7,9 -23,17 -19,2 -23,10 0,6 -20,0 -5,9 -12,3 -11,9 -16,-41 -27,-29 -6,-14 -10,1 -15,-23 -14,-11 2,-8 -5,-17 7,-7 7,-22 8,-11 4,3 12,-3 14,-19 14,-1 6,-20Z"/>
    <path data-fips-int="47131" data-name="Obion County" d="M682,100l5,15 -2,29 -10,-2 -20,9 -7,-7 -13,-2 -2,14 -5,75 -1,10 -74,-4 -125,-8 -1,-4 14,-4 8,-14 12,-32 0,-11 17,-26 -3,-10 4,-12 8,-10 -2,-13 20,-1 109,6Z"/>
    <path data-fips-int="47133" data-name="Overton County" d="M2093,160l0,49 15,51 -13,24 -33,-4 -47,-22 0,-8 -14,-1 -21,-8 -5,-10 -8,-1 -1,-13 -5,-8 -10,1 0,-48 4,-23 16,-23 13,-1 9,7 2,-11 15,-8 15,3 5,-5 6,-4 8,8 12,5 26,24 6,26Z"/>
    <path data-fips-int="47135" data-name="Perry County" d="M1099,424l-7,53 9,11 -11,1 -3,18 26,18 7,8 3,19 -6,7 -8,1 -2,22 -8,0 -3,10 -6,-4 -27,3 -10,7 -12,1 -2,-4 -21,7 -5,-3 -21,6 -10,9 2,5 -9,-2 -5,-9 2,-9 22,-11 4,-14 -10,-18 -13,-29 7,-20 0,-12 -4,-7 -1,-13 18,-18 7,-24 3,-12 20,2 22,17 4,-8 9,-8Z"/>
    <path data-fips-int="47137" data-name="Pickett County" d="M2220,65l21,37 -20,0 -14,-11 -18,-10 -29,-5 -36,14 -4,11 -6,1 -9,14 -5,42 -7,2 -5,0 -6,-26 -26,-24 -12,-5 -8,-8 -6,4 7,-20 -4,-6 0,-19 93,2 57,5Z"/>
    <path data-fips-int="47139" data-name="Polk County" d="M2418,724l-9,103 -176,3 10,-34 5,-10 -5,-2 18,-41 -2,-33 14,-13 59,0 7,-9 55,23 2,13 10,-6Z"/>
    <path data-fips-int="47141" data-name="Putnam County" d="M2095,284l7,3 -12,5 -8,13 -32,-2 -4,2 2,21 -4,7 -4,30 -18,-7 1,-18 -7,1 -11,-7 -59,-18 -20,5 -7,5 -2,8 -10,0 -13,14 0,1 -9,-8 -7,-19 -14,-5 -11,6 -9,-4 2,-8 -7,-4 -7,-14 2,-37 6,0 2,-13 4,-4 14,8 43,9 3,-5 14,-5 7,4 7,-6 3,-12 7,2 7,-22 10,-1 5,8 1,13 8,1 5,10 21,8 14,1 0,8 47,22Z"/>
    <path data-fips-int="47143" data-name="Rhea County" d="M2225,434l1,5 17,14 -8,9 2,5 12,1 4,11 -6,8 -2,13 -6,3 2,-11 -7,-1 -5,19 -4,2 -2,15 6,8 -1,7 -13,8 7,9 -9,7 -20,-3 -3,12 9,10 -5,8 -13,6 -1,14 -5,4 -14,-3 -5,-9 -7,2 2,12 -13,13 -20,-13 -14,4 -3,-14 -9,0 7,-8 -11,-10 7,-13 4,1 3,-24 22,-21 50,-70 46,-30Z"/>
    <path data-fips-int="47145" data-name="Roane County" d="M2320,506 -14,5 -3,7 -14,0 -4,-21 2,-10 -8,-6 -10,10 -2,-7 -9,0 0,-11 -9,-5 -12,-1 -2,-5 8,-9 -17,-14 -1,-5 16,-13 13,-21 10,-6 11,-9 12,-3 5,-9 20,0 0,-6 23,-10 19,-2 23,-17 7,-9 9,-4 7,23 21,43 3,6 -8,-2 0,12 -18,-8 -4,29 -14,7 -3,23 -12,-2 -3,11 -8,-4 -18,21 -6,0Z"/>
    <path data-fips-int="47147" data-name="Robertson County" d="M1544,53l-16,31 -10,12 -8,35 -10,9 -8,20 -18,-6 -4,6 0,1 -9,7 -3,14 -15,5 -11,-10 -16,-9 -6,3 -28,6 -7,-11 -9,-4 -35,-26 -3,-3 4,-30 0,-12 -7,-4 3,-7 7,-33 99,-1 100,-2Z"/>
    <path data-fips-int="47149" data-name="Rutherford County" d="M1699,375l0,11 5,8 -5,3 -2,13 -4,-1 -4,23 0,14 -4,9 1,11 -7,12 0,16 -16,7 1,27 -14,-8 -9,1 -2,-7 -12,-2 -4,7 -11,4 2,6 -11,5 -5,-4 0,-11 -21,2 -19,-15 2,-5 -10,-5 -38,-3 0,9 -13,-6 -5,-6 -5,-4 1,-16 6,1 8,-19 18,0 1,-16 5,-8 -7,-11 0,-17 -4,-4 5,-16 -1,-12 5,-8 -2,-12 19,-11 0,-16 6,1 0,-10 9,13 3,-19 17,14 31,21 24,20 28,8Z"/>
    <path data-fips-int="47151" data-name="Scott County" d="M2419,68l-1,12 6,1 -4,25 -10,4 -16,-3 -4,5 0,16 -5,1 4,23 13,14 -9,-1 3,49 -18,12 2,20 -8,7 -3,12 -15,7 -11,-13 -1,-6 -31,-14 -4,4 -4,-19 -14,-2 -6,-7 -30,-40 6,-8 10,-4 -13,-19 -9,-30 -6,-12 -21,-37 92,3 16,-1Z"/>
    <path data-fips-int="47153" data-name="Sequatchie County" d="M2057,658l-7,16 -55,83 0,-17 -5,-18 -17,-20 -20,-8 -24,-13 0,-5 8,-12 11,-7 7,-12 2,-11 -11,0 1,-7 -10,-4 -2,-29 -26,-19 20,0 4,-5 33,-2 14,-10 -4,15 11,9 1,12 45,44Z"/>
    <path data-fips-int="47155" data-name="Sevier County" d="M2736,375 22,-2 0,8 14,-2 17,10 1,12 7,2 -2,6 13,13 -9,14 6,11 -2,18 4,10 6,-1 -1,12 -13,8 -7,9 -9,-5 -12,14 -21,13 -9,0 -19,24 -33,1 -11,-8 -6,5 -15,0 0,-52 -7,-4 -1,-10 -7,1 -20,-43 4,-5 -7,-4 -15,-32 10,-12 10,-3 16,-11 16,-16 -6,-17 -2,-14 7,-2 19,12 34,25 5,11 7,5Z"/>
    <path data-fips-int="47157" data-name="Shelby County" d="M356,623l-4,56 -1,33 -6,91 -148,-6 -110,-5 7,-21 30,8 8,-5 1,-11 10,-27 15,-5 18,5 6,-5 1,-10 -15,-8 -3,-11 8,-1 10,-14 -12,-14 -13,0 -11,-13 3,-7 21,-4 0,-18 14,-19 8,-2 6,-3 44,3 57,6 1,-8 17,2 12,-4 -2,10 26,1Z"/>
    <path data-fips-int="47159" data-name="Smith County" d="M1824,159l-7,58 9,18 7,-2 9,8 -2,13 -6,0 -2,37 -18,6 -4,12 -8,-2 -4,-8 -14,3 -10,0 -11,11 -7,2 -21,-2 -2,-18 -4,-5 -23,-76 4,0 9,-19 22,-20 24,-9 1,-14Z"/>
    <path data-fips-int="47161" data-name="Stewart County" d="M1135,46l4,44 12,85 -47,-2 -15,12 -26,7 -27,-4 -21,-9 -12,-1 -3,-3 -6,-5 -12,-24 -8,-9 3,-12 -1,-15 6,-6 2,-25 -12,-55 28,2 56,7 -2,14Z"/>
    <path data-fips-int="47163" data-name="Sullivan County" d="M3286,82l-5,8 -14,3 -15,14 -12,5 -30,24 -24,-8 -14,12 -4,0 -27,-2 -6,5 4,-12 -6,-6 -18,-7 -62,13 -22,-6 -9,3 -8,-11 28,-20 0,-9 6,-2 -4,-28 3,-7 148,-7 19,0 90,-4 3,-10 36,0 -17,8 0,5 -21,11 1,6 -13,11Z"/>
    <path data-fips-int="47165" data-name="Sumner County" d="M1681,51l-8,52 4,2 -6,18 -3,17 -12,-1 -2,45 -4,5 -8,17 -10,-3 -11,4 5,-17 -7,-6 -10,13 0,10 -9,-2 -1,-9 -14,-1 -18,12 -8,15 -5,-3 -4,-18 -7,7 1,10 -4,11 -9,8 -17,-5 -1,-15 -9,-6 -3,-7 -19,-14 -2,-18 -10,-11 0,-1 4,-6 18,6 8,-20 10,-9 8,-35 10,-12 16,-31 22,-9 75,3Z"/>
    <path data-fips-int="47167" data-name="Tipton County" d="M193,610l-8,2 -13,-12 -13,1 2,14 -15,-4 4,-18 15,-9 6,-13 14,-3 5,6 -3,15 1,12ZM390,516 8,4 12,8 6,4 6,13 -5,67 -25,-1 -30,6 -6,6 -2,-6 -26,-1 2,-10 -12,4 -17,-2 -1,8 -57,-6 -44,-3 -7,-4 11,-11 5,-20 -10,-16 4,-20 17,-6 14,9 6,12 12,0 1,-9 5,-4 8,-18 8,1 25,-24 14,-2 12,3 13,-3 12,6 4,-6 15,2Z"/>
    <path data-fips-int="47169" data-name="Trousdale County" d="M1671,123l15,2 8,18 72,9 -1,14 -24,9 -22,20 -9,19 -4,0 -14,-15 -7,3 -6,-11 -14,4 -2,14 -9,-2 3,-14 -7,-4 4,-5 2,-45 12,1Z"/>
    <path data-fips-int="47171" data-name="Unicoi County" d="M3202,252l-8,11 -9,4 -8,-4 -18,10 -6,0 -22,17 -18,36 -16,15 -14,4 -6,8 -8,-5 -13,-1 2,-11 -4,-5 9,-17 -5,-1 9,-19 -7,-8 25,-26 8,-3 27,-1 7,-6 6,-14 10,-6 12,-22 8,-4 14,4 10,8 -4,12 9,1 7,8Z"/>
    <path data-fips-int="47173" data-name="Union County" d="M2648,180l-13,34 2,9 -1,23 -10,9 5,6 -7,5 -72,-1 -7,-8 -11,-10 -15,-27 1,-2 11,-13 1,-35 7,-14 10,6 8,-9 -1,-6 11,-6 5,-2 11,7 11,-8 3,11 13,6 12,25 9,0 6,-9Z"/>
    <path data-fips-int="47175" data-name="Van Buren County" d="M1969,438 34,11 37,-12 -4,6 3,8 -2,2 8,10 -1,1 -5,9 -1,16 -33,40 -25,29 -14,10 -33,2 -4,5 -15,-41 -4,-43 5,-10 0,-11 -8,-1 2,-11 2,-8 12,-5 18,7 2,-11 7,4 9,-8Z"/>
    <path data-fips-int="47177" data-name="Warren County" d="M1880,433l15,7 16,10 -2,8 -2,11 8,1 0,11 -5,10 4,43 15,41 -20,0 -37,2 -43,7 -23,-5 -3,-7 -8,-1 -17,-15 -1,-17 -13,-24 -3,-18 2,-16 28,-43 11,-8 4,-3 34,1 14,-3Z"/>
    <path data-fips-int="47179" data-name="Washington County" d="M3168,140l0,15 -8,34 -6,14 1,5 -12,22 -10,6 -6,14 -7,6 -27,1 -8,3 -25,26 -20,-23 1,-62 -1,-67 -26,5 10,-7 -2,-4 9,-3 22,6 62,-13 18,7 6,6 -4,12 6,-5Z"/>
    <path data-fips-int="47181" data-name="Wayne County" d="M1096,592l12,6 15,0 0,14 15,4 4,11 8,7 -2,55 -1,45 3,-2 -5,22 -2,1 0,39 3,12 -11,-1 0,15 -147,-4 2,-60 2,-77 -12,-2 -1,-16 5,-8 -8,-9 1,-11 13,1 6,-5 -2,-8 -10,-2 -2,-5 10,-9 21,-6 5,3 21,-7 2,4 12,-1 10,-7 27,-3Z"/>
    <path data-fips-int="47183" data-name="Weakley County" d="M800,104l-1,29 -2,38 -3,57 -3,41 -1,17 -47,-2 0,25 -15,1 -20,-14 -3,-7 -33,-10 -8,-6 -12,-20 -14,-10 -10,-12 5,-75 2,-14 13,2 7,7 20,-9 10,2 2,-29 -5,-15Z"/>
    <path data-fips-int="47185" data-name="White County" d="M2040,363l0,6 8,25 12,1 -7,8 2,15 -6,25 -10,8 -3,-8 4,-6 -37,12 -34,-11 -10,-1 -9,8 -7,-4 -2,11 -18,-7 -12,5 -16,-10 -15,-7 12,2 6,-12 -14,-1 13,-13 -12,-2 9,-6 -6,-23 0,-11 6,-8 0,-12 0,-1 13,-14 10,0 2,-8 7,-5 20,-5 59,18 11,7 7,-1 -1,18Z"/>
    <path data-fips-int="47187" data-name="Williamson County" d="M1521,368l1,12 -5,16 4,4 0,17 7,11 -5,8 -1,16 -18,0 -8,19 -6,-1 -1,16 5,4 -23,3 -14,-2 -13,-7 -45,-19 -10,-10 -4,5 -93,-39 6,-42 -1,-9 8,-43 38,4 12,-1 4,27 9,-4 35,-26 53,8 22,13 7,1 12,9Z"/>
    <path data-fips-int="47189" data-name="Wilson County" d="M1650,189l7,4 -3,14 9,2 2,-14 14,-4 6,11 7,-3 14,15 23,76 4,5 2,18 3,20 7,8 -2,11 5,2 4,18 -25,-2 -25,2 -3,3 -38,-6 -28,-8 -24,-20 -31,-21 -17,-14 -6,-6 3,-13 -7,0 -5,2 -15,-52 9,-8 4,-11 -1,-10 7,-7 4,18 5,3 8,-15 18,-12 14,1 1,9 9,2 0,-10 10,-13 7,6 -5,17 11,-4 10,3Z"/>
  </g>
  <g class="cities">
    <circle r="3" cx="19.1" cy="72.4"/>
    <text x="19.1" y="72.4">Memphis</text>
    <circle r="3" cx="145.9" cy="27.4"/>
    <text x="145.9" y="27.4">Nashville</text>
    <circle r="3" cx="255.5" cy="36.5"/>
    <text x="255.5" y="36.5">Knoxville</text>
  </g>
</svg>