<?xml version="1.0" encoding="utf-8"?>
<!DOCTYPE svg PUBLIC "-//W3C//DTD SVG 1.1//EN" "http://www.w3.org/Graphics/SVG/1.1/DTD/svg11.dtd">
<svg version="1.1" xmlns="http://www.w3.org/2000/svg" width="350" height="86" viewBox="0 0 350 86">
  <defs>
    <pattern id="pattern-no-results" width="50" height="50" patternUnits="userSpaceOnUse">
      <rect width="50" height="50" fill="#ddd"/>
      <path d="M-5,5L5,-5M-5,55L55,-5M45,55L55,45" stroke-width="10" stroke="#ffffff"/>
    </pattern>
  </defs>
  <g class="counties" transform="scale(0.1)">
    <path data-fips-int="47001" data-name="Anderson County" d="M2520,218l24,39 -29,28 -24,26 9,18 -19,18 -32,4 -28,40 -29,-66 -41,-42 3,-11 5,-1 20,-25 28,-2 24,20 5,-32 60,6Z"/>
    <path data-fips-int="47003" data-name="Bedford County" d="M1557,501l40,30 20,-13 30,4 17,6 -7,104 -56,30 -7,14 -40,-17 -28,-5 -22,-34 5,-69 -3,-3 6,-47Z"/>
    <path data-fips-int="47005" data-name="Benton County" d="M1003,178l10,53 12,54 -33,47 -5,39 33,6 -15,44 -3,12 -22,-11 -58,-5 -15,-1 5,-129 33,-46 19,-19 -5,-34 0,-12 41,-1Z"/>
    <path data-fips-int="47007" data-name="Bledsoe County" d="M2174,465l-73,90 -10,39 0,15 -13,1 -22,48 -69,-66 -7,-34 58,-69 7,-25 81,-3 5,11Z"/>
    <path data-fips-int="47009" data-name="Blount County" d="M2659,547l-44,5 -71,48 -20,-25 6,-17 -34,7 -10,-18 -30,-15 20,-18 -19,-57 5,-18 60,-34 23,0 4,3 33,12 22,-22 31,74 22,18Z"/>
    <path data-fips-int="47011" data-name="Bradley County" d="M2223,675l36,34 2,34 -28,87 -78,1 -20,-72 30,-70 33,-30Z"/>
    <path data-fips-int="47013" data-name="Campbell County" d="M2550,143l2,0 3,4 -18,11 -17,60 -24,20 -60,-6 -5,32 -24,-20 -28,2 17,-32 -7,-62 5,-44 13,0 14,-3 -2,-38 95,0Z"/>
    <path data-fips-int="47015" data-name="Cannon County" d="M1752,372l47,53 3,5 -38,49 0,36 -40,6 -45,-27 18,-119Z"/>
    <path data-fips-int="47017" data-name="Carroll County" d="M912,287l-5,129 15,1 0,14 -150,-7 -11,10 -4,6 -38,-2 8,-128 14,-26 50,3 0,-18 121,6Z"/>
    <path data-fips-int="47019" data-name="Carter County" d="M3286,86l13,14 -38,50 15,16 33,30 -33,70 -39,9 -8,-20 -27,-3 -15,-36 -33,-8 12,-68 40,-4 80,-54Z"/>
    <path data-fips-int="47021" data-name="Cheatham County" d="M1379,250l4,0 -5,38 -24,42 -48,-2 -1,-76 13,-46 -30,-11 -2,1 -18,2 3,-16 5,1 35,-34 20,-13 57,42 21,-7 -1,24 -25,55Z"/>
    <path data-fips-int="47023" data-name="Chester County" d="M804,579l43,4 0,35 -3,18 -92,-1 -33,30 -13,30 -24,-1 -19,-85 64,-28 25,-45 19,0Z"/>
    <path data-fips-int="47025" data-name="Claiborne County" d="M2550,143l-36,-76 123,0 5,-8 76,0 30,28 5,58 -16,3 -10,10 0,-2 0,2 -12,5 -13,7 -55,10 -42,-26 -11,-15 -29,2 -10,6 -3,-4Z"/>
    <path data-fips-int="47027" data-name="Clay County" d="M2030,101l-58,15 -22,47 -45,-37 -58,-17 -18,8 9,-58 115,3 80,-6Z"/>
    <path data-fips-int="47029" data-name="Cocke County" d="M2945,361l3,34 -32,46 -36,-4 -67,37 -11,-30 0,-20 0,-8 -12,-27 2,-1 6,-33 15,-58 2,0 0,1 2,1 1,-32 18,12 4,-26 1,0Z"/>
    <path data-fips-int="47031" data-name="Coffee County" d="M1675,495l4,-1 45,27 40,-6 11,35 30,29 -3,68 -10,43 -48,-26 -47,-9 -40,14 0,-37 7,-104Z"/>
    <path data-fips-int="47033" data-name="Crockett County" d="M554,349l10,50 47,17 28,17 2,3 7,4 -52,51 -18,-11 -85,-40 -7,-1 -16,-21 1,-11 5,-19 24,-2 38,-52 1,6 7,5Z"/>
    <path data-fips-int="47035" data-name="Cumberland County" d="M2135,274l5,6 36,-2 73,77 15,39 -38,40 -52,31 -43,7 -5,-11 -81,3 0,-1 -7,-10 0,-2 22,-56 -20,-33 6,-57 37,0 20,-18 23,-12Z"/>
    <path data-fips-int="47037" data-name="Davidson County" d="M1379,250l4,0 25,-55 1,-24 34,16 28,-26 20,36 13,13 27,27 21,51 9,18 -12,6 -28,56 -67,-33 -51,-8 -45,29 -4,-26 24,-42 5,-38Z"/>
    <path data-fips-int="47039" data-name="Decatur County" d="M1002,433l-25,43 -2,54 22,40 -27,33 10,16 4,-1 0,1 -7,14 -15,-12 -50,15 -18,-18 0,-1 0,-51 21,-37 7,-98 0,-14 58,5Z"/>
    <path data-fips-int="47041" data-name="DeKalb County" d="M1862,315l33,32 -5,43 8,19 -18,24 -23,-8 -55,5 -3,-5 -47,-53 -17,-59 9,0 23,-5 7,-6 58,-11 15,30Z"/>
    <path data-fips-int="47043" data-name="Dickson County" d="M1261,202l2,-2 5,-2 18,-2 2,-1 30,11 -13,46 1,76 -11,42 -125,-18 -10,-87 16,-34 5,-40Z"/>
    <path data-fips-int="47045" data-name="Dyer County" d="M534,330l4,4 -38,52 -24,2 -3,-8 -2,-3 -16,-17 -69,3 -1,-1 -25,11 -27,-41 18,-48 34,-16 -14,-28 55,1 2,-12 125,8 -5,84 -7,2 -3,1Z"/>
    <path data-fips-int="47047" data-name="Fayette County" d="M418,612l111,7 -11,190 -173,-6 11,-180Z"/>
    <path data-fips-int="47049" data-name="Fentress County" d="M2241,102l28,61 -16,12 -22,20 -40,17 -15,66 -36,2 -5,-6 -9,1 -23,12 -8,-3 13,-28 -15,-46 0,-50 12,-45 23,-28 7,-4 51,-3Z"/>
    <path data-fips-int="47051" data-name="Franklin County" d="M1792,690l15,31 0,1 3,111 -176,-2 0,-64 8,-51 15,-47 40,-14 47,9Z"/>
    <path data-fips-int="47053" data-name="Gibson County" d="M538,323l0,1 3,-1 7,-2 5,-84 75,4 0,-10 43,47 56,32 -8,128 -80,-5 -28,-17 -47,-17Z"/>
    <path data-fips-int="47055" data-name="Giles County" d="M1336,615l28,9 0,1 12,7 7,-3 5,-1 21,38 27,35 -2,128 -151,-4 10,-206Z"/>
    <path data-fips-int="47057" data-name="Grainger County" d="M2753,145l22,2 3,1 17,5 10,50 -40,4 -33,31 -5,21 -12,4 -25,-6 -38,29 -2,19 -8,-14 -5,-5 -12,-20 12,-20 8,-62 2,-4 55,-10 13,-7 12,-5 0,-2 0,2 10,-10Z"/>
    <path data-fips-int="47059" data-name="Greene County" d="M3061,286l-5,27 -12,-11 -54,36 -15,33 -30,-10 -104,-108 7,-4 23,-26 4,0 20,-14 31,-32 2,1 3,0 14,-10 63,-26 6,-3 25,-5 -1,129Z"/>
    <path data-fips-int="47061" data-name="Grundy County" d="M1928,676l-58,14 7,24 -19,11 -51,-4 -15,-31 10,-43 3,-68 5,2 100,-6 25,19 2,29 20,11Z"/>
    <path data-fips-int="47063" data-name="Hamblen County" d="M2871,223l-23,26 -7,4 -1,0 -4,26 -18,-12 -1,32 -2,-1 0,-1 -22,-23 -63,-6 -3,-9 5,-21 33,-31 40,-4 13,-3 15,-19 0,-1Z"/>
    <path data-fips-int="47065" data-name="Hamilton County" d="M2096,610l42,22 27,57 -30,70 20,72 -193,4 11,-7 32,-36 -10,-35 61,-99 22,-48 13,-1Z"/>
    <path data-fips-int="47067" data-name="Hancock County" d="M2963,53l-43,26 -25,-9 -42,25 -13,14 -15,17 -30,27 -17,-5 -3,-1 -22,-2 -5,-58 -30,-28Z"/>
    <path data-fips-int="47069" data-name="Hardeman County" d="M571,604l92,5 19,85 -5,120 -159,-5 11,-190 2,-17Z"/>
    <path data-fips-int="47071" data-name="Hardin County" d="M977,633l2,11 1,-1 12,36 -3,138 -85,-3 -69,4 9,-182 3,-18 47,0 0,-1 0,1 18,18 50,-15Z"/>
    <path data-fips-int="47073" data-name="Hawkins County" d="M3046,50l2,36 -30,36 5,6 -9,11 -6,3 -63,26 -14,10 -3,0 -2,-1 -31,32 -20,14 -4,0 -38,-43 0,1 -15,19 -13,3 -10,-50 30,-27 15,-17 13,-14 42,-25 25,9 43,-26Z"/>
    <path data-fips-int="47075" data-name="Haywood County" d="M470,418l16,21 7,1 85,40 -7,124 -40,-2 -2,17 -111,-7 3,-67 -11,-17 13,-7 0,-40 30,-66Z"/>
    <path data-fips-int="47077" data-name="Henderson County" d="M922,431l-7,98 -21,37 0,51 0,1 -47,0 0,-35 -43,-4 -33,-43 -19,0 0,-1 5,-95 4,-6 11,-10Z"/>
    <path data-fips-int="47079" data-name="Henry County" d="M977,109l-3,28 26,38 -41,1 0,12 5,34 -19,19 -33,46 0,-12 -121,-6 10,-165Z"/>
    <path data-fips-int="47081" data-name="Hickman County" d="M1295,370l-4,52 -6,59 -37,31 -5,0 -47,19 -48,-18 -28,20 -33,-26 13,-83 3,-31 68,-29 -1,-12Z"/>
    <path data-fips-int="47083" data-name="Houston County" d="M1152,175l29,16 -5,40 -16,34 -5,-6 -83,-28 -59,0 -10,-53 60,13 42,-18Z"/>
    <path data-fips-int="47085" data-name="Humphreys County" d="M1155,259l5,6 10,87 1,12 -68,29 -3,31 -40,0 -12,15 -43,-18 15,-44 -33,-6 5,-39 33,-47 -12,-54 59,0Z"/>
    <path data-fips-int="47087" data-name="Jackson County" d="M1905,126l45,37 2,47 -24,34 -25,10 -58,-17 -3,4 -9,-8 -16,-17 7,-57 5,-42 18,-8Z"/>
    <path data-fips-int="47089" data-name="Jefferson County" d="M2715,371l-2,0 -64,-46 1,-20 2,-19 38,-29 25,6 12,-4 3,9 63,6 22,23 0,1 2,1 -2,-1 0,-1 -2,0 -15,58 -6,33 -2,1 -47,-13 -6,1 -2,-2 -5,1 -2,2 -1,-1 -9,-5Z"/>
    <path data-fips-int="47091" data-name="Johnson County" d="M3309,196l-33,-30 -15,-16 38,-50 -13,-14 0,-4 30,-35 24,-15 4,-3 68,-2 -23,43 8,27 -17,26 15,37 -50,-4Z"/>
    <path data-fips-int="47093" data-name="Knox County" d="M2625,266l12,20 5,5 8,14 -1,20 8,31 -53,42 -22,22 -33,-12 -4,-3 -23,0 -60,34 -38,-42 -3,-6 28,-40 32,-4 19,-18 -9,-18 24,-26 29,-28 8,8Z"/>
    <path data-fips-int="47095" data-name="Lake County" d="M428,229l-2,12 -55,-1 -23,-33 62,2 -30,-28 41,-29 -13,-24 3,-35 24,20 50,-19 -9,44 -35,83Z"/>
    <path data-fips-int="47097" data-name="Lauderdale County" d="M455,360l16,17 2,3 3,8 -5,19 -1,11 -17,-3 -30,66 0,40 -13,7 -19,-14 0,1 -1,-1 -22,-14 -17,-5 -39,0 -37,23 -22,24 -16,-28 38,-15 -27,-13 -10,-38 52,-8 17,-22 31,-12 -23,-16 8,-19 37,2 25,-11 1,1Z"/>
    <path data-fips-int="47099" data-name="Lawrence County" d="M1258,613l35,6 -10,206 -148,-5 13,-88 2,-98 50,-10 0,-18Z"/>
    <path data-fips-int="47101" data-name="Lewis County" d="M1243,512l-7,32 25,20 -3,49 -58,-7 0,18 -50,10 -27,-36 -26,-6 23,-59 28,-20 48,18Z"/>
    <path data-fips-int="47103" data-name="Lincoln County" d="M1554,659l0,20 40,24 28,55 12,9 0,64 -200,-2 2,-128 32,5 58,-34 0,-18Z"/>
    <path data-fips-int="47105" data-name="Loudon County" d="M2319,506l75,-78 5,-27 25,-4 38,42 -5,18 19,57 -20,18 -27,-11 -40,-14 -53,3 -10,17 -23,-9Z"/>
    <path data-fips-int="47107" data-name="McMinn County" d="M2303,518l23,9 2,3 0,5 33,82 15,49 -37,22 -8,9 -58,0 -14,12 -36,-34 -25,-16 20,-46 71,-95Z"/>
    <path data-fips-int="47109" data-name="McNairy County" d="M844,636l-9,182 -158,-4 5,-120 24,1 13,-30 33,-30Z"/>
    <path data-fips-int="47111" data-name="Macon County" d="M1838,59l-9,58 -5,42 -45,-5 -12,-2 -73,-9 -24,-20 10,-73Z"/>
    <path data-fips-int="47113" data-name="Madison County" d="M719,438l38,2 -5,95 0,1 -25,45 -64,28 -92,-5 7,-124 18,11 52,-51 -7,-4 -2,-3Z"/>
    <path data-fips-int="47115" data-name="Marion County" d="M1968,700l22,22 5,35 10,35 -32,36 -11,7 -152,-2 -3,-111 0,-1 51,4 19,-11 -7,-24 58,-14Z"/>
    <path data-fips-int="47117" data-name="Marshall County" d="M1494,490l18,11 -6,47 3,3 -5,69 22,34 0,18 -58,34 -32,-5 -27,-35 -21,-38 0,-17 45,-37 13,-78 12,-5 1,2Z"/>
    <path data-fips-int="47119" data-name="Maury County" d="M1458,491l-12,5 -13,78 -45,37 0,17 -5,1 -7,3 -12,-7 0,-1 -28,-9 -43,4 -35,-6 3,-49 -25,-20 7,-32 5,0 37,-31 6,-59Z"/>
    <path data-fips-int="47121" data-name="Meigs County" d="M2289,518l-71,95 -20,46 -33,30 -27,-57 15,-29 13,14 33,-30 -6,-24 30,0 1,-51 19,-8 6,-36 -1,0 1,0 40,21Z"/>
    <path data-fips-int="47123" data-name="Monroe County" d="M2429,521l27,11 30,15 10,18 34,-7 -6,17 20,25 -24,25 2,53 -40,28 -33,-11 -30,29 -80,-36 37,-22 -15,-49 -33,-82 0,-5 -2,-3 10,-17 53,-3Z"/>
    <path data-fips-int="47125" data-name="Montgomery County" d="M1331,136l-20,13 -35,34 -5,-1 -3,16 -5,2 -2,2 -80,-11 -29,-16 -17,-128 199,0 -8,33 -5,2 4,5Z"/>
    <path data-fips-int="47127" data-name="Moore County" d="M1657,669l-15,47 -8,51 -12,-9 -28,-55 -40,-24 0,-20 40,17 7,-14 56,-30Z"/>
    <path data-fips-int="47129" data-name="Morgan County" d="M2253,175l41,44 14,23 34,11 12,19 -3,11 41,42 -55,31 -41,19 -27,15 -5,4 -15,-39 -73,-77 15,-66 40,-17Z"/>
    <path data-fips-int="47131" data-name="Obion County" d="M682,100l4,44 -52,-1 -6,88 0,10 -75,-4 -125,-8 13,-8 35,-83 9,-44Z"/>
    <path data-fips-int="47133" data-name="Overton County" d="M2038,101l45,36 10,23 0,50 15,46 -13,28 -32,-4 -83,-38 -17,-31 -11,-1 -2,-47 22,-47 58,-15Z"/>
    <path data-fips-int="47135" data-name="Perry County" d="M1100,424l-13,83 33,26 -23,59 -103,11 -10,15 -4,1 -10,-16 27,-33 -22,-40 2,-54 25,-43 3,-12 43,18 12,-15Z"/>
    <path data-fips-int="47137" data-name="Pickett County" d="M2219,65l22,37 -55,-22 -51,3 -7,4 -23,28 -12,45 -10,-23 -45,-36 -8,0 3,-45Z"/>
    <path data-fips-int="47139" data-name="Polk County" d="M2419,724l-10,103 -176,3 28,-87 -2,-34 14,-12 58,0 8,-9Z"/>
    <path data-fips-int="47141" data-name="Putnam County" d="M2095,284l8,3 -20,18 -37,0 -6,57 -35,-30 -60,-17 -23,10 -5,10 -22,12 -33,-32 -15,6 -15,-30 10,-50 3,-4 58,17 25,-10 24,-34 11,1 17,31 83,38Z"/>
    <path data-fips-int="47143" data-name="Rhea County" d="M2226,434l-2,3 24,31 1,0 -6,36 -19,8 -1,51 -30,0 6,24 -33,30 -13,-14 -15,29 -42,-22 -5,-1 0,-15 10,-39 73,-90Z"/>
    <path data-fips-int="47145" data-name="Roane County" d="M2319,506l-16,12 -14,0 0,-29 -40,-21 -1,0 -24,-31 2,-3 38,-40 5,-4 27,-15 41,-19 55,-31 29,66 3,6 -25,4 -5,27Z"/>
    <path data-fips-int="47147" data-name="Robertson County" d="M1544,53l-30,47 -20,60 -23,0 0,1 -28,26 -34,-16 -21,7 -57,-42 -6,-49 -4,-5 5,-2 8,-33 200,-3Z"/>
    <path data-fips-int="47149" data-name="Rutherford County" d="M1522,436l-1,-68 28,-56 12,-6 31,23 24,16 23,19 58,11 -18,119 -4,1 -11,33 -17,-6 -30,-4 -20,13 -40,-30 -45,0 -18,-11 10,-34 15,-16Z"/>
    <path data-fips-int="47151" data-name="Scott County" d="M2419,67l2,38 -14,3 -13,0 -5,44 7,62 -17,32 -20,25 -5,1 -12,-19 -34,-11 -14,-23 -41,-44 16,-12 -28,-61 -22,-37Z"/>
    <path data-fips-int="47153" data-name="Sequatchie County" d="M2056,658l-61,99 -5,-35 -22,-22 -40,-24 29,-42 -20,-11 -2,-29 -25,-19 18,-1 52,-16 7,34Z"/>
    <path data-fips-int="47155" data-name="Sevier County" d="M2715,371l3,1 9,5 1,1 2,-2 5,-1 2,2 6,-1 47,13 12,27 0,8 0,20 11,30 -20,29 -51,22 -20,24 -63,-2 -2,-57 -22,-18 -31,-74 53,-42 -8,-31 64,46Z"/>
    <path data-fips-int="47157" data-name="Shelby County" d="M356,623l-11,180 -258,-11 5,-21 38,4 12,-38 41,-7 -18,-28 18,-13 -33,-20 35,-57 8,-2 4,-3 103,9 28,-10Z"/>
    <path data-fips-int="47159" data-name="Smith County" d="M1779,154l45,5 -7,57 16,17 9,8 -10,50 -58,11 -7,6 -23,5 -9,0 -3,-11 -25,-88 60,-62Z"/>
    <path data-fips-int="47161" data-name="Stewart County" d="M1135,47l17,128 -47,-2 -42,18 -60,-13 -3,-3 -26,-38 3,-28 8,-15 -13,-70 83,9 -2,14Z"/>
    <path data-fips-int="47163" data-name="Sullivan County" d="M3340,32l-24,15 -30,35 -80,54 -40,4 -52,-22 -61,13 -30,-3 -5,-6 30,-36 -2,-36 258,-9 40,-12Z"/>
    <path data-fips-int="47165" data-name="Sumner County" d="M1680,50l-10,73 -14,16 -7,50 -5,16 -35,3 -23,-13 -55,42 -27,-27 -13,-13 -20,-36 0,-1 23,0 20,-60 30,-47 22,-9Z"/>
    <path data-fips-int="47167" data-name="Tipton County" d="M193,610l-8,2 -35,-19 35,-25ZM368,500l22,14 1,1 0,-1 19,14 11,17 -3,67 -62,11 -28,-17 -28,10 -103,-9 10,-35 -5,-36 51,6 22,-24 37,-23 39,0Z"/>
    <path data-fips-int="47169" data-name="Trousdale County" d="M1670,123l24,20 73,9 -60,62 -2,0 -35,-26 -13,24 -8,-23 7,-50Z"/>
    <path data-fips-int="47171" data-name="Unicoi County" d="M3202,252l-71,37 -15,33 -37,26 -25,-1 2,-34 5,-27 32,-29 26,-1 25,-27 10,-21 33,8Z"/>
    <path data-fips-int="47173" data-name="Union County" d="M2605,154l42,26 -2,4 -8,62 -12,20 -73,-1 -8,-8 -24,-39 17,-60 18,-11 10,-6 29,-2Z"/>
    <path data-fips-int="47175" data-name="Van Buren County" d="M2043,459l2,4 0,1 -7,25 -58,69 -52,16 -15,-40 -3,-71 0,-13 22,-3 45,-8 61,12 0,2 5,3Z"/>
    <path data-fips-int="47177" data-name="Warren County" d="M1880,433l30,17 0,13 3,71 15,40 -18,1 -100,6 -5,-2 -30,-29 -11,-35 0,-36 38,-49 55,-5Z"/>
    <path data-fips-int="47179" data-name="Washington County" d="M3166,140l-12,68 -10,21 -25,27 -26,1 -32,29 -23,-23 1,-129 -25,5 9,-11 30,3 61,-13Z"/>
    <path data-fips-int="47181" data-name="Wayne County" d="M1097,592l26,6 27,36 -2,98 -13,88 -146,-3 3,-138 -12,-36 -1,1 -2,-11 7,-14 0,-1 10,-15Z"/>
    <path data-fips-int="47183" data-name="Weakley County" d="M801,104l-10,165 0,18 -50,-3 -14,26 -56,-32 -43,-47 6,-88 52,1 -4,-44Z"/>
    <path data-fips-int="47185" data-name="White County" d="M2040,362l20,33 -22,56 -61,-12 -45,8 -22,3 -30,-17 18,-24 -8,-19 5,-43 22,-12 5,-10 23,-10 60,17Z"/>
    <path data-fips-int="47187" data-name="Williamson County" d="M1522,436l-3,4 -15,16 -10,34 -35,3 -1,-2 -167,-69 4,-52 11,-42 48,2 4,26 45,-29 51,8 67,33Z"/>
    <path data-fips-int="47189" data-name="Wilson County" d="M1649,189l8,23 13,-24 35,26 2,0 25,88 3,11 17,59 -55,3 -58,-11 -23,-19 -24,-16 -31,-23 -9,-18 -21,-51 55,-42 23,13 35,-3Z"/>
  </g>
  <g class="cities">
    <circle r="3" cx="19.2" cy="72.4"/>
    <text x="19.2" y="72.4">Memphis</text>
    <circle r="3" cx="145.8" cy="27.5"/>
    <text x="145.8" y="27.5">Nashville</text>
    <circle r="3" cx="255.6" cy="36.5"/>
    <text x="255.6" y="36.5">Knoxville</text>
  </g>
</svg>