<?xml version="1.0" encoding="utf-8"?>
<!DOCTYPE svg PUBLIC "-//W3C//DTD SVG 1.1//EN" "http://www.w3.org/Graphics/SVG/1.1/DTD/svg11.dtd">
<svg version="1.1" xmlns="http://www.w3.org/2000/svg" width="350" height="335" viewBox="0 0 350 335">
  <g class="counties" transform="scale(0.1)">
    <path data-fips-int="48001" data-name="Anderson County" d="M2913,1398 -1,9 -6,7 2,14 6,6 -2,14 -1,1 -1,9 7,2 4,5 3,18 5,1 1,5 1,2 7,-2 -1,5 10,7 7,12 -1,2 -1,0 1,0 -1,0 8,11 -4,5 -40,7 -55,12 2,4 -24,8 -4,-14 10,-1 0,-20 -7,-10 -7,17 -5,-5 -1,-16 -12,-7 -10,1 0,-18 -29,-8 3,-11 -6,-5 1,-11 -11,-1 4,-7 4,-1 -6,-15 -9,-5 0,-9 79,-14 78,-16Z"/>
    <path data-fips-int="48003" data-name="Andrews County" d="M1208,1275l-3,130 -19,-1 -129,-2 -67,-2 1,-11 3,-119 28,0 106,4Z"/>
    <path data-fips-int="48005" data-name="Angelina County" d="M3067,1552 9,5 1,0 -1,0 2,1 1,1 30,7 1,-1 10,3 7,1 1,-1 3,-1 2,2 9,2 5,9 3,-2 5,0 4,4 2,1 2,3 4,11 2,5 5,2 5,2 8,9 11,12 3,2 6,3 14,8 8,3 8,10 0,1 0,-1 0,1 12,6 4,4 -82,24 -1,0 -23,-6 -3,-1 -3,-2 -8,-2 -1,0 -4,-3 -19,-2 -14,-2 -14,-7 -10,-4 -3,-1 0,-7 -5,-21 -8,-3 6,-8 -6,-7 -5,-9 -3,-1 -4,0 -3,-2 -1,-12 -10,-8 -2,-2 33,-32Z"/>
    <path data-fips-int="48009" data-name="Archer County" d="M2150,886l1,73 1,37 1,21 -73,1 -59,0 -1,-21 0,-78 -1,-31Z"/>
    <path data-fips-int="48011" data-name="Armstrong County" d="M1496,487l-1,87 -1,42 -93,0 -38,-1 0,-25 3,-105 54,2Z"/>
    <path data-fips-int="48013" data-name="Atascosa County" d="M2175,2293l58,68 24,28 -61,53 0,-11 -76,1 -46,1 0,-59 -2,-73 0,-48Z"/>
    <path data-fips-int="48015" data-name="Austin County" d="M2752,1993 16,18 -8,35 6,5 -1,0 1,0 -1,0 -5,11 5,8 16,4 4,20 4,14 -10,-1 11,12 -1,5 -1,7 -17,1 -6,-6 -16,-3 -6,-6 -12,0 -9,-12 2,-6 -12,-11 -5,-13 -5,-8 -12,2 -10,-6 -3,-3 -11,-4 -13,-11 -9,-16 -14,-24 6,-8 20,1 57,-11 9,5 27,5Z"/>
    <path data-fips-int="48017" data-name="Bailey County" d="M1119,740l-3,94 -1,51 -107,-3 3,-52 3,-92Z"/>
    <path data-fips-int="48019" data-name="Bandera County" d="M1913,2142l-49,1 0,-84 85,1 25,2 66,33 36,19 -6,8 -31,39 -13,3 -1,-21 -80,0Z"/>
    <path data-fips-int="48021" data-name="Bastrop County" d="M2526,2006l-23,28 -49,53 -88,-82 39,-43 29,-63 1,-1 9,5 35,19 31,22Z"/>
    <path data-fips-int="48023" data-name="Baylor County" d="M2019,888l1,31 0,78 1,21 -105,0 -24,1 -1,-100 -1,-30 23,0Z"/>
    <path data-fips-int="48025" data-name="Bee County" d="M2311,2412 4,3 14,7 12,0 13,14 9,24 15,5 22,2 1,18 10,6 9,-1 7,8 7,-2 14,7 -42,67 -6,12 -66,-14 2,-2 -35,-63 -41,-78 22,-8 21,-9Z"/>
    <path data-fips-int="48027" data-name="Bell County" d="M2452,1642l55,86 -47,29 -14,42 -79,-33 -40,-9 -12,-1 -22,-38 0,-10 62,-40 61,-38 20,23Z"/>
    <path data-fips-int="48029" data-name="Bexar County" d="M2142,2106 17,3 8,5 7,-11 8,9 -2,16 9,3 0,11 9,7 2,8 13,5 4,-2 19,23 11,-1 0,10 -3,2 -7,8 -56,83 -6,8 -103,-40 -2,-131 6,-8 12,0 8,-6 15,-3 16,1Z"/>
    <path data-fips-int="48031" data-name="Blanco County" d="M2183,1884l58,16 -12,22 -30,95 -29,31 -46,-60 -1,-77 -1,-30 46,-2Z"/>
    <path data-fips-int="48033" data-name="Borden County" d="M1467,1279l-53,-2 -77,0 2,-21 0,-109 34,0 95,0 -1,130Z"/>
    <path data-fips-int="48035" data-name="Bosque County" d="M2360,1367l12,9 0,8 15,4 -1,-8 10,-4 4,4 -10,7 8,15 -6,7 2,12 8,4 6,-5 12,17 -14,10 8,8 12,5 -6,5 28,13 -11,11 3,9 9,5 -82,49 -23,-37 -18,12 -63,-101 36,-22 57,-37Z"/>
    <path data-fips-int="48037" data-name="Bowie County" d="M3240,1016l-4,-6 -14,-4 -1,5 -1,0 1,0 -1,0 -11,-5 -13,6 -2,16 -22,-2 -11,-3 -10,-2 -18,-6 -26,15 -15,0 -3,-5 -25,-17 -5,-111 7,4 13,-3 6,8 4,-5 12,8 8,-3 7,14 14,-8 -1,10 8,4 13,13 9,0 2,-8 7,7 10,-4 9,-10 -2,11 8,-3 0,-6 13,-3 -1,7 20,-4 10,7Z"/>
    <path data-fips-int="48041" data-name="Brazos County" d="M2731,1755 3,2 2,10 2,1 -2,0 2,0 0,1 -2,7 2,5 1,3 1,0 -1,0 1,0 0,10 -4,10 4,10 0,2 0,4 0,3 -1,5 -3,8 7,9 4,17 1,2 1,8 4,6 -1,1 1,-1 10,6 -7,7 -2,9 -6,0 -1,15 -2,-13 -5,-6 -22,12 -9,-6 0,-9 7,1 -5,-11 -13,-8 -6,-21 -6,4 -10,-5 -12,-17 -12,-6 -14,0 -9,-3 8,-16 0,-1 28,-15 8,-15 9,-21 9,-15 27,-19 10,9 -2,11Z"/>
    <path data-fips-int="48043" data-name="Brewster County" d="M1102,2009l62,53 -5,3 -10,23 -8,8 -14,-6 -14,-1 1,6 -9,6 -4,-7 -6,5 -16,4 -7,-3 -7,14 2,6 -13,13 -1,12 -17,21 -7,26 2,10 -5,13 -10,0 -7,29 10,10 -23,14 -7,-4 -9,19 -18,10 -6,9 1,9 -5,13 -12,3 -16,-6 -4,3 -20,-8 -8,-12 -4,8 -17,-8 -5,-9 -27,-26 -8,2 -6,-5 -27,-6 -10,-11 -7,-3 -2,-10 2,-65 5,-196 3,-82 94,-73 76,66 60,51 36,32Z"/>
    <path data-fips-int="48045" data-name="Briscoe County" d="M1494,616l36,0 -2,130 -23,0 -106,-1 2,-84 0,-45Z"/>
    <path data-fips-int="48047" data-name="Brooks County" d="M2229,2843l47,0 19,0 0,15 3,127 -89,0 -27,1 0,-81 -13,0 -1,-26 -6,0 -1,-27 -8,-9Z"/>
    <path data-fips-int="48049" data-name="Brown County" d="M1983,1411l49,0 66,112 -24,4 -4,23 -53,38 -8,4 -4,-5 -14,8 -19,-1 -4,3 -5,-3 0,-23 0,-125 0,-35Z"/>
    <path data-fips-int="48051" data-name="Burleson County" d="M2637,1810l0,1 -8,16 9,3 14,0 12,6 12,17 10,5 6,-4 6,21 13,8 5,11 -7,-1 0,9 -18,6 -13,6 -18,3 -8,4 -8,1 -2,0 -20,7 0,1 -2,-1 -10,-5 -17,-3 -9,-17 -29,-21 -2,-16 -6,-8 -9,-4 86,-54Z"/>
    <path data-fips-int="48053" data-name="Burnet County" d="M2315,1756l-34,37 -21,48 -17,36 6,11 -8,12 -58,-16 0,-22 -5,-5 -8,4 -4,-25 -6,-8 9,-1 -3,-8 11,-11 -14,-3 6,-20 7,-5 -12,0 0,-8 -10,-6 4,-12 7,-7 -7,-1 0,-10 -4,-9 4,-5 90,-2 45,-2Z"/>
    <path data-fips-int="48055" data-name="Caldwell County" d="M2366,2005l88,82 -1,0 -69,47 -10,-2 -2,-3 -4,-1 -4,-4 -2,0 -2,1 -1,0 1,0 -1,0 -10,-5 -4,-9 -8,-1 -3,-12 -10,-10 -3,3 -4,-17 -8,-5 -5,-8 24,-18 9,-14 13,-11Z"/>
    <path data-fips-int="48059" data-name="Callahan County" d="M1983,1411l-20,0 -109,0 0,-129 4,0 28,0 83,0 14,-1Z"/>
    <path data-fips-int="48063" data-name="Camp County" d="M3023,1087 3,7 16,13 9,5 12,12 14,10 -31,2 -76,4 -2,-32 0,-1 6,-7 4,1 1,0 1,-1 19,-13 5,0Z"/>
    <path data-fips-int="48065" data-name="Carson County" d="M1498,355l0,2 -1,14 -1,116 -76,0 -54,-2 1,-130Z"/>
    <path data-fips-int="48067" data-name="Cass County" d="M3220,1011l1,0 -1,0 1,0 1,-5 14,4 4,6 4,89 2,28 -152,8 -5,-116 3,5 15,0 26,-15 18,6 10,2 11,3 22,2 2,-16 13,-6Z"/>
    <path data-fips-int="48069" data-name="Castro County" d="M1270,743l-22,0 -107,-3 2,-75 0,-54 87,2 42,0Z"/>
    <path data-fips-int="48073" data-name="Cherokee County" d="M3022,1366l4,86 12,0 -1,5 -7,14 5,3 3,5 -6,0 1,17 3,7 0,1 1,3 0,1 1,0 -1,0 1,0 -1,2 1,4 7,16 8,1 -2,7 4,4 0,1 1,2 1,0 -1,0 1,0 1,1 0,-1 0,1 0,-1 2,1 -33,32 -8,-5 -3,-1 -6,-7 -8,-1 0,-6 -3,-10 -9,-3 0,-7 -8,-5 -22,3 -4,-5 4,-5 -8,-11 1,0 -1,0 1,0 1,-2 -7,-12 -10,-7 1,-5 -7,2 -1,-2 -1,-5 -5,-1 -3,-18 -4,-5 -7,-2 1,-9 1,-1 2,-14 -6,-6 -2,-14 6,-7 1,-9 -2,-12 -8,-15Z"/>
    <path data-fips-int="48075" data-name="Childress County" d="M1760,618l1,55 0,74 -94,0 -9,-1 1,-29 0,-99 90,0Z"/>
    <path data-fips-int="48077" data-name="Clay County" d="M2260,868l0,42 2,84 -110,2 -1,-37 -1,-73 -1,-73 6,-14 8,-9 19,7 13,-1 16,6 11,-12 9,10 -8,11 10,13 -6,1 14,12 18,-4 8,5 -2,23Z"/>
    <path data-fips-int="48079" data-name="Cochran County" d="M1115,885l1,68 1,62 -114,-2 3,-72 2,-59Z"/>
    <path data-fips-int="48081" data-name="Coke County" d="M1702,1527l-109,0 -40,-1 1,-79 0,-38 40,1 51,1 57,0Z"/>
    <path data-fips-int="48083" data-name="Coleman County" d="M1854,1411l109,0 0,35 0,125 0,23 -12,-4 -16,21 -22,-10 -11,-9 2,7 -9,6 -7,-4 -2,6 -6,-16 -18,-4 -6,7 -13,-11 5,-9 -16,-12 1,-151Z"/>
    <path data-fips-int="48085" data-name="Collin County" d="M2657,1004l1,17 22,-4 4,110 -56,2 -81,1 0,-17 -1,-107 51,0Z"/>
    <path data-fips-int="48087" data-name="Collingsworth County" d="M1760,488l0,130 -11,0 -90,0 -30,0 0,-82 0,-48Z"/>
    <path data-fips-int="48089" data-name="Colorado County" d="M2677,2060 3,3 10,6 12,-2 5,8 5,13 12,11 -2,6 9,12 12,0 6,6 -33,37 -9,31 -16,11 -59,40 -4,-5 24,-22 -62,-70 -10,1 -4,-11 -7,-6 39,-48 36,-52 9,16 13,11Z"/>
    <path data-fips-int="48091" data-name="Comal County" d="M2277,2101l-24,21 -55,27 -9,-7 0,-11 -9,-3 2,-16 -8,-9 -7,11 -8,-5 -17,-3 -15,0 -16,-1 42,-40 17,-17 29,-31 70,56Z"/>
    <path data-fips-int="48093" data-name="Comanche County" d="M2213,1456l13,23 -76,48 -8,-12 -44,8 -66,-112 65,-38 28,-18 38,63 20,32 18,-12Z"/>
    <path data-fips-int="48095" data-name="Concho County" d="M1832,1562l16,12 -5,9 13,11 6,-7 0,121 -130,0 1,-26 0,-85 0,-36Z"/>
    <path data-fips-int="48097" data-name="Cooke County" d="M2514,844l1,58 2,39 2,62 -109,-1 -26,-1 -1,-70 -2,-73 9,7 -3,15 9,6 14,0 14,-21 14,7 3,-13 14,1 5,15 -9,15 3,11 13,13 7,0 7,-7 -3,-14 11,-9 -10,-6 4,-6 7,6 15,-15 -4,-17Z"/>
    <path data-fips-int="48099" data-name="Coryell County" d="M2367,1552l16,26 33,52 -61,38 -62,40 -56,-94 -15,-22 104,-65 18,-12Z"/>
    <path data-fips-int="48101" data-name="Cottle County" d="M1658,746l9,1 94,0 0,26 -3,-5 -9,4 0,117 -116,0 0,-49 0,-94Z"/>
    <path data-fips-int="48103" data-name="Crane County" d="M1175,1534l0,136 1,33 -19,-1 -1,0 -2,-1 -3,0 -6,-15 0,-16 -10,-8 -4,-5 -4,-3 -1,-2 -10,-4 -2,-1 -8,1 -4,-1 -3,-5 -14,-10 -3,-3 -13,7 -10,2 1,-46 2,-61 34,2Z"/>
    <path data-fips-int="48105" data-name="Crockett County" d="M1176,1703l111,4 23,0 6,0 121,1 80,0 -1,6 0,107 0,24 0,83 -1,17 -79,-1 -126,-1 6,-10 9,-7 10,2 -8,-17 -11,-8 9,-10 12,-24 3,-6 -5,-9 4,-11 -15,-9 -14,0 -2,-9 -8,-6 -2,-15 -4,-2 0,-9 0,-5 -7,-20 -7,-4 4,-7 -28,-24 -6,3 -10,-7 -2,1 -21,1 -16,-12 -11,-3 -8,3 -11,-9 -7,-3 -7,-5 -1,0 -2,-1 2,1 1,0Z"/>
    <path data-fips-int="48107" data-name="Crosby County" d="M1503,1018l-120,0 -8,0 0,-130 80,0 49,1 0,108Z"/>
    <path data-fips-int="48109" data-name="Culberson County" d="M747,1418l-12,111 -5,60 -12,95 -29,17 -81,46 -70,42 -32,18 2,-48 3,-3 2,-53 -2,0 4,-57 1,-33 3,-80 2,-72 2,-52Z"/>
    <path data-fips-int="48111" data-name="Dallam County" d="M1242,92l-3,132 -123,-3 -88,-2 0,-26 3,-106 121,4Z"/>
    <path data-fips-int="48113" data-name="Dallas County" d="M2547,1130l81,-1 2,50 1,80 -1,0 -29,1 -99,2 -1,-86 -1,-44 15,-2Z"/>
    <path data-fips-int="48115" data-name="Dawson County" d="M1337,1277l-127,-2 0,-130 34,0 95,2 0,109Z"/>
    <path data-fips-int="48117" data-name="Deaf Smith County" d="M1233,484l-1,67 -2,62 -87,-2 -126,-3 2,-62 1,-68 50,2 59,0Z"/>
    <path data-fips-int="48119" data-name="Delta County" d="M2924,999l1,1 -1,0 -11,4 -24,1 -3,2 -15,4 -14,-3 -22,18 -15,1 -6,1 -5,12 -20,13 -2,-57 0,-15 19,-10 19,0 8,4 13,-4 14,3 8,6 10,-1 24,14Z"/>
    <path data-fips-int="48121" data-name="Denton County" d="M2546,1006l1,107 0,17 -32,0 -15,2 -7,1 -84,0 0,-83 1,-48 109,1 25,0Z"/>
    <path data-fips-int="48123" data-name="DeWitt County" d="M2547,2288l-84,73 -9,-9 -20,-9 -41,35 -47,-55 11,-13 24,-20 95,-84Z"/>
    <path data-fips-int="48125" data-name="Dickens County" d="M1633,889l0,130 -124,0 -6,-1 1,-21 0,-108Z"/>
    <path data-fips-int="48127" data-name="Dimmit County" d="M1921,2566l-71,0 -118,2 0,-134 58,2 126,0 3,0 1,121Z"/>
    <path data-fips-int="48129" data-name="Donley County" d="M1629,488l0,48 0,82 -14,-1 -84,0 -1,-1 -36,0 1,-42 1,-87 95,0Z"/>
    <path data-fips-int="48131" data-name="Duval County" d="M2199,2607l26,-1 1,71 1,32 2,134 -76,0 0,-23 -18,-4 0,6 -9,0 0,-6 -46,2 -1,-53 -2,-65 -1,-92 48,0Z"/>
    <path data-fips-int="48133" data-name="Eastland County" d="M2032,1411l-49,0 0,-130 4,0 131,-1 25,0 1,64 -19,11 -28,18Z"/>
    <path data-fips-int="48135" data-name="Ector County" d="M1183,1534l-8,0 -79,-1 -34,-2 -8,0 3,-129 129,2Z"/>
    <path data-fips-int="48137" data-name="Edwards County" d="M1824,1945l0,64 -42,1 -12,-2 -2,17 -4,-1 -3,39 -9,15 6,16 -6,4 3,16 -8,4 10,11 -3,4 4,11 -25,0 -124,0 -28,-1 1,-36 0,-126 0,-36 13,1 137,-1Z"/>
    <path data-fips-int="48139" data-name="Ellis County" d="M2502,1262l99,-2 29,-1 6,6 -1,12 8,14 8,3 3,14 -3,3 0,3 6,8 11,0 -60,40 -66,40 -11,7 -38,-63 -3,-84Z"/>
    <path data-fips-int="48141" data-name="El Paso County" d="M242,1578l-22,-5 -33,-25 -6,-19 -8,-7 -4,-18 -17,-33 -20,-11 -8,4 -11,-15 -11,-2 -12,-17 -3,-13 8,-6 0,-10 -5,-7 5,-7 156,8 -6,157 8,0 -1,16Z"/>
    <path data-fips-int="48143" data-name="Erath County" d="M2143,1280l102,-1 32,81 22,44 -36,22 -50,30 -12,-18 -18,12 -20,-32 -38,-63 19,-11Z"/>
    <path data-fips-int="48145" data-name="Falls County" d="M2624,1654l-57,36 -60,38 -55,-86 75,-47 43,-29 18,27Z"/>
    <path data-fips-int="48147" data-name="Fannin County" d="M2786,868l-2,3 3,110 0,15 -107,21 -22,4 -1,-17 -2,-66 0,-32 7,12 8,-3 5,-21 18,4 14,-7 2,-12 17,-7 0,-7 10,6 25,-8 2,-9Z"/>
    <path data-fips-int="48149" data-name="Fayette County" d="M2630,2005l14,24 -36,52 -39,48 -70,4 2,-6 -48,-40 1,0 49,-53 23,-28 7,2 39,-23 13,-14 7,7 13,-3 7,-6 10,6Z"/>
    <path data-fips-int="48151" data-name="Fisher County" d="M1631,1148l94,2 0,21 0,109 -129,-1 2,-131Z"/>
    <path data-fips-int="48153" data-name="Floyd County" d="M1505,746l-1,143 -49,-1 -80,0 0,-91 2,-52 22,0Z"/>
    <path data-fips-int="48155" data-name="Foard County" d="M1761,773l56,40 29,-2 18,5 8,7 4,-5 10,2 4,-6 0,75 1,30 -5,-10 -6,-1 -6,-7 -10,3 -18,-10 -10,-3 -1,8 -7,0 -6,-6 -20,1 0,-5 -40,0 -13,0 0,-117 9,-4Z"/>
    <path data-fips-int="48157" data-name="Fort Bend County" d="M2943,2132l-8,42 -23,1 2,12 -8,7 0,10 -12,10 0,6 -11,-2 -22,-7 -7,9 -4,-4 -13,14 -8,0 -4,-14 -15,-6 0,-5 -13,-24 -11,-6 -7,-6 6,-10 -2,-9 -6,-15 -6,-3 17,-1 1,-7 1,-5 -11,-12 10,1 -4,-14 16,-1 4,-4 32,-15 56,33Z"/>
    <path data-fips-int="48159" data-name="Franklin County" d="M2974,1100l-6,7 0,1 -2,6 0,2 -2,6 -34,2 -4,-91 -2,-33 1,0 11,2 34,-7 3,63Z"/>
    <path data-fips-int="48161" data-name="Freestone County" d="M2754,1425 9,5 6,15 -4,1 -4,7 11,1 -1,11 6,5 -3,11 29,8 0,18 10,-1 12,7 1,16 -33,18 -78,47 -42,-67 -28,-45 109,-68 0,2Z"/>
    <path data-fips-int="48163" data-name="Frio County" d="M2072,2301l2,73 0,59 -84,1 -71,2 -3,0 -1,-47 -1,-87 28,0 99,0Z"/>
    <path data-fips-int="48165" data-name="Gaines County" d="M1114,1143l96,2 0,130 -2,0 -80,-1 -106,-4 -28,0 4,-130Z"/>
    <path data-fips-int="48169" data-name="Garza County" d="M1502,1146l-34,1 -95,0 2,-129 8,0 120,0Z"/>
    <path data-fips-int="48171" data-name="Gillespie County" d="M2027,1882l95,-1 1,30 1,77 -85,1 -98,2 0,-45 -2,-64Z"/>
    <path data-fips-int="48173" data-name="Glasscock County" d="M1443,1408l-2,130 -129,-2 2,-48 0,-81 21,0Z"/>
    <path data-fips-int="48175" data-name="Goliad County" d="M2463,2361l1,6 12,-1 5,-5 8,2 4,13 8,9 -4,47 6,18 0,3 -55,50 -14,-7 -7,2 -7,-8 -9,1 -10,-6 -1,-18 -22,-2 -15,-5 -9,-24 -13,-14 52,-44 41,-35 20,9Z"/>
    <path data-fips-int="48177" data-name="Gonzales County" d="M2499,2133l-15,14 1,22 -9,37 -95,84 -31,-33 -33,-38 4,-7 16,-25 35,-58 2,3 10,2 69,-47 48,40Z"/>
    <path data-fips-int="48179" data-name="Gray County" d="M1629,358l0,130 -38,-1 -95,0 1,-116 1,-14 12,1 110,0Z"/>
    <path data-fips-int="48181" data-name="Grayson County" d="M2655,906l0,32 2,66 -60,2 -51,0 -2,-3 -25,0 -2,-62 -2,-39 -1,-58 11,2 8,26 14,-6 10,11 17,-6 12,-18 17,8 -10,11 14,8 11,-1 8,15 19,-1Z"/>
    <path data-fips-int="48183" data-name="Gregg County" d="M3085,1209l4,68 7,0 8,7 16,0 -5,10 -10,-3 -87,5 -2,-50 4,0 38,-19 13,-20 10,1Z"/>
    <path data-fips-int="48185" data-name="Grimes County" d="M2815,1754l12,69 10,86 0,29 -72,7 -2,2 0,-25 -7,0 -9,-7 1,-15 6,0 2,-9 7,-7 -10,-6 -1,1 1,-1 -4,-6 -1,-8 -1,-2 -4,-17 -7,-9 3,-8 1,-5 0,-3 0,-4 0,-2 -4,-10 4,-10 0,-10 -1,0 1,0 -1,0 -1,-3 -2,-5 2,-7 12,-1Z"/>
    <path data-fips-int="48187" data-name="Guadalupe County" d="M2321,2091 3,-3 10,10 3,12 8,1 4,9 10,5 1,0 -1,0 1,0 2,-1 2,0 4,4 4,1 -35,58 -16,25 -64,0 -7,4 -6,-22 3,-2 0,-10 -11,1 -19,-23 -4,2 -13,-5 -2,-8 55,-27 24,-21 12,-15 20,-17 8,5Z"/>
    <path data-fips-int="48189" data-name="Hale County" d="M1270,743l107,2 -2,52 0,91 -129,0 0,-77 2,-68Z"/>
    <path data-fips-int="48191" data-name="Hall County" d="M1629,618l30,0 0,99 -1,29 -25,0 -105,0 2,-130 1,1 84,0Z"/>
    <path data-fips-int="48193" data-name="Hamilton County" d="M2326,1527l-104,65 -23,14 -49,-79 76,-48 -13,-23 50,-30Z"/>
    <path data-fips-int="48195" data-name="Hansford County" d="M1500,96l-1,68 0,63 0,1 -130,-2 2,-132Z"/>
    <path data-fips-int="48197" data-name="Hardeman County" d="M1890,722l0,80 0,12 -4,6 -10,-2 -4,5 -8,-7 -18,-5 -29,2 -56,-40 0,-26 0,-74 17,-5 18,19 10,7 12,19 18,14 16,1 10,-3 2,-10 17,2Z"/>
    <path data-fips-int="48199" data-name="Hardin County" d="M3276,1834l1,0 -1,0 0,11 -9,22 1,0 -1,0 0,2 3,6 2,5 4,6 -4,9 0,3 -3,10 3,4 1,0 -1,0 1,0 -3,7 0,7 6,4 1,-1 -1,1 -4,12 0,1 0,-1 -9,-1 -16,-4 0,1 -1,0 1,0 -1,0 -2,3 -1,0 -1,1 -5,1 -7,-1 0,11 -4,6 -2,0 -6,1 -6,2 -2,1 -6,-1 -1,1 -1,0 1,0 -1,0 -1,1 -1,1 -4,0 -3,-2 -4,-2 -1,0 -39,3 -19,-52 -21,-59 50,-3 -3,-11 63,-2Z"/>
    <path data-fips-int="48203" data-name="Harrison County" d="M3197,1174l0,1 0,-1 5,9 2,5 12,2 6,-14 11,0 0,7 4,7 12,-2 5,90 -75,22 -9,-4 -9,-5 -15,-4 -4,-4 -6,3 -9,-6 -7,4 -16,0 -8,-7 -7,0 -4,-68 -2,-42 50,27 32,-1 24,-19Z"/>
    <path data-fips-int="48205" data-name="Hartley County" d="M1239,224l-2,127 -61,-1 -82,0 -70,-2 3,-103 1,-26 88,2Z"/>
    <path data-fips-int="48207" data-name="Haskell County" d="M1893,1150l-35,0 -94,0 0,-92 -1,-38 129,-1 0,11 0,84Z"/>
    <path data-fips-int="48209" data-name="Hays County" d="M2309,2069l-20,17 -12,15 -8,-28 -70,-56 30,-95 21,15 31,25 27,21 42,35 -13,11 -9,14 -24,18Z"/>
    <path data-fips-int="48211" data-name="Hemphill County" d="M1760,229l0,129 -131,0 1,-130 35,1Z"/>
    <path data-fips-int="48213" data-name="Henderson County" d="M2746,1311l75,-2 82,-3 -1,21 -7,14 0,1 5,13 -2,11 5,5 8,15 -78,16 -79,14 0,-2 -2,-21 -14,-3 3,-17 -15,-1 -3,-5 6,-10 -7,0 -6,0 -10,-13 -6,2 -14,-17 -18,-7 -11,0 -6,-8Z"/>
    <path data-fips-int="48215" data-name="Hidalgo County" d="M2298,2985l1,49 7,1 -3,18 -4,4 -4,27 37,3 1,25 2,83 -2,3 -25,3 -5,-4 -22,6 -4,-7 -18,7 -10,-7 -2,6 -8,-7 -23,-7 -9,-14 -13,-2 -5,-7 -11,-6 1,-7 -17,5 -11,-8 -5,3 -6,-9 26,-59 29,-64 14,-35Z"/>
    <path data-fips-int="48217" data-name="Hill County" d="M2542,1402l47,76 -53,34 -28,-46 -59,37 -9,-5 -3,-9 11,-11 -28,-13 6,-5 -12,-5 -8,-8 14,-10 -12,-17 -6,5 -8,-4 -2,-12 6,-7 -8,-15 10,-7 -4,-4 0,-2 97,-28 38,63Z"/>
    <path data-fips-int="48219" data-name="Hockley County" d="M1115,885l131,3 0,130 -129,-3 -1,-62Z"/>
    <path data-fips-int="48221" data-name="Hood County" d="M2358,1263l2,70 -43,3 -40,24 -32,-81 0,-14 48,0Z"/>
    <path data-fips-int="48223" data-name="Hopkins County" d="M2924,1000l2,33 4,91 -89,4 -1,-6 -49,2 -2,-71 20,-13 5,-12 6,-1 15,-1 22,-18 14,3 15,-4 3,-2 24,-1Z"/>
    <path data-fips-int="48225" data-name="Houston County" d="M2990,1538 0,7 9,3 3,10 0,6 8,1 6,7 3,1 8,5 2,2 10,8 -58,53 -59,51 -45,40 -5,1 -11,-18 4,-14 8,-1 -7,-12 -17,0 -11,-4 -3,-12 12,-8 -6,-14 5,-5 -1,-13 17,-15 -2,-15 -7,-1 -8,-27 -6,-12 24,-8 -2,-4 55,-12 40,-7 4,5 22,-3Z"/>
    <path data-fips-int="48227" data-name="Howard County" d="M1467,1279l-4,130 -20,-1 -108,-1 2,-130 77,0Z"/>
    <path data-fips-int="48229" data-name="Hudspeth County" d="M523,1409l-2,52 -2,72 -3,80 -1,33 -4,57 2,0 -2,53 -3,3 -2,48 -17,9 -6,-17 -14,-1 -6,-8 -21,-17 -10,-12 -11,3 -8,-10 -16,-3 -11,-6 -3,-14 -21,-16 -20,-22 -4,-18 -12,-12 -16,-7 -7,-8 -8,-1 -4,-11 -18,-27 -16,-7 -5,-17 -10,-7 10,-10 1,-16 -8,0 6,-157 44,3 158,8Z"/>
    <path data-fips-int="48231" data-name="Hunt County" d="M2789,1053l2,71 -20,1 -10,31 14,11 -35,1 -55,1 -1,-42 -4,-110 107,-21Z"/>
    <path data-fips-int="48233" data-name="Hutchinson County" d="M1499,228l-1,3 0,124 -131,0 2,-129Z"/>
    <path data-fips-int="48235" data-name="Irion County" d="M1586,1708l-69,0 -80,0 4,-134 145,3Z"/>
    <path data-fips-int="48237" data-name="Jack County" d="M2277,1004l2,129 -34,0 -92,0 0,-116 -1,-21 110,-2 0,10Z"/>
    <path data-fips-int="48239" data-name="Jackson County" d="M2632,2242l14,12 75,70 -1,86 -17,1 -3,-19 -8,9 -37,2 -1,1 -2,-7 -16,5 -3,-3 -1,0 -4,-12 -8,-10 -3,-8 0,-2 -5,-17 -17,-8 -12,-32 -26,-10 12,-12 59,-51Z"/>
    <path data-fips-int="48241" data-name="Jasper County" d="M3325,1915l-55,4 3,-7 -1,0 1,0 -1,0 -3,-4 3,-10 0,-3 4,-9 -4,-6 -2,-5 -3,-6 0,-2 1,0 -1,0 9,-22 0,-11 1,0 -4,-10 1,-17 6,-5 0,-5 -7,-3 -3,-9 -10,2 -1,-18 -6,-13 -8,-6 -4,-18 -7,-8 2,-10 -9,-7 -1,-9 0,-7 -10,-1 -5,-7 -7,6 -4,-5 -23,9 0,1 0,-1 0,1 -7,-6 1,0 82,-24 17,-5 4,-1 2,-6 32,-9 15,62 2,73Z"/>
    <path data-fips-int="48243" data-name="Jeff Davis County" d="M847,1789l36,31 -94,73 -28,-1 -89,-24 -89,-26 -93,-25 -1,-1 17,-9 32,-18 70,-42 81,-46 29,-17Z"/>
    <path data-fips-int="48245" data-name="Jefferson County" d="M3263,1941 9,1 0,1 10,9 -4,14 18,4 -1,12 20,3 7,6 16,2 7,7 1,15 -3,12 -15,13 -2,11 9,6 16,25 -37,1 -25,6 -69,35 -6,-97 -22,1 -4,-67 1,0 4,2 3,2 4,0 1,-1 1,-1 1,0 -1,0 1,0 1,-1 6,1 2,-1 6,-2 6,-1 2,0 4,-6 0,-11 7,1 5,-1 1,-1 1,0 2,-3 1,0 -1,0 1,0 0,-1Z"/>
    <path data-fips-int="48247" data-name="Jim Hogg County" d="M2153,2843l8,9 1,27 6,0 1,26 13,0 0,81 -40,1 -83,0 -19,0 -1,-144 41,0 0,-25 46,-2 0,6 9,0 0,-6 18,4Z"/>
    <path data-fips-int="48249" data-name="Jim Wells County" d="M2317,2605l15,6 2,-1 8,7 -2,6 -34,32 -1,75 -32,1 3,112 -47,0 -2,-134 -1,-32 -1,-71Z"/>
    <path data-fips-int="48251" data-name="Johnson County" d="M2490,1262l3,84 -97,28 0,2 -10,4 1,8 -15,-4 0,-8 -12,-9 0,-34 -2,-70 16,0 8,0Z"/>
    <path data-fips-int="48253" data-name="Jones County" d="M1764,1150l94,0 0,132 -4,0 0,-2 -105,0 -24,0 0,-109 0,-21Z"/>
    <path data-fips-int="48255" data-name="Karnes County" d="M2341,2422l-12,0 -14,-7 -4,-3 -8,-4 -21,9 -25,-28 -24,-28 54,-48 13,-11 50,-45 31,33 -24,20 -11,13 47,55Z"/>
    <path data-fips-int="48257" data-name="Kaufman County" d="M2740,1168l2,51 2,54 2,38 -95,3 0,-3 3,-3 -3,-14 -8,-3 -8,-14 1,-12 -6,-6 1,0 -1,-80 55,-2 0,-8Z"/>
    <path data-fips-int="48259" data-name="Kendall County" d="M2124,1988l46,60 -17,17 -42,40 -15,3 -8,6 -12,0 -36,-19 -1,-44 0,-62Z"/>
    <path data-fips-int="48263" data-name="Kent County" d="M1633,1019l-2,129 -33,0 -76,0 -20,-2 1,-128 6,1Z"/>
    <path data-fips-int="48265" data-name="Kerr County" d="M2040,2095l-66,-33 -25,-2 -85,-1 -23,0 0,-50 -17,0 0,-64 117,1 0,45 98,-2 0,62Z"/>
    <path data-fips-int="48267" data-name="Kimble County" d="M1941,1946l-117,-1 -92,0 0,-125 106,0 56,0 0,62 45,0Z"/>
    <path data-fips-int="48269" data-name="King County" d="M1749,889l13,0 1,131 -128,0 -2,-1 0,-130Z"/>
    <path data-fips-int="48271" data-name="Kinney County" d="M1733,2144l0,160 -144,0 -3,-6 -12,-7 -14,-13 3,-7 -7,-14 8,1 6,-16 -1,-11 9,-2 3,-23 0,-63 28,1Z"/>
    <path data-fips-int="48273" data-name="Kleberg County" d="M2464,2834l-4,0 2,-9 -4,-8 9,-30 16,-32 4,-13 8,2 -9,18 -14,37ZM2332,2753 136,-4 -6,25 -5,9 0,12 -9,23 -13,6 -14,12 -9,-4 16,-17 -2,-12 5,-4 -7,-10 -10,0 -1,7 9,-6 8,7 -9,7 -6,11 -19,9 -2,9 -7,-4 1,-7 -28,-31 -4,-1 12,18 12,24 -16,6 -14,-4 -10,4 -5,8 -31,4 -9,8 0,-15 -19,0 -3,-112 32,-1 14,5Z"/>
    <path data-fips-int="48275" data-name="Knox County" d="M1828,899 7,0 1,-8 10,3 18,10 10,-3 6,7 6,1 5,10 1,100 -129,1 -1,-131 40,0 0,5 20,-1Z"/>
    <path data-fips-int="48277" data-name="Lamar County" d="M2917,851l2,31 3,73 2,44 -22,-6 -24,-14 -10,1 -8,-6 -14,-3 -13,4 -8,-4 -19,0 -19,10 -3,-110 2,-3 11,-7 10,4 2,-15 16,2 11,-6 11,-11 8,2 3,14 11,-4 0,7 12,-5 11,7Z"/>
    <path data-fips-int="48279" data-name="Lamb County" d="M1248,743l-2,68 0,77 -131,-3 1,-51 3,-94 22,0Z"/>
    <path data-fips-int="48281" data-name="Lampasas County" d="M2293,1708l0,10 -45,2 -90,2 -11,-9 7,-7 -7,-10 -10,9 -6,-10 6,-13 -13,-11 2,-8 75,-55 -2,-2 23,-14 15,22Z"/>
    <path data-fips-int="48283" data-name="La Salle County" d="M2074,2433l2,74 0,81 0,20 -75,5 -79,4 -1,-51 -1,-9 -1,-121 71,-2Z"/>
    <path data-fips-int="48285" data-name="Lavaca County" d="M2569,2129l7,6 4,11 10,-1 62,70 -24,22 -59,51 -12,12 -10,-12 -71,-82 9,-37 -1,-22 15,-14Z"/>
    <path data-fips-int="48287" data-name="Lee County" d="M2547,1859 6,8 2,16 29,21 9,17 17,3 10,5 2,1 -10,14 -11,3 -4,14 -12,10 -13,14 -39,23 -7,-2 -16,-62 -31,-22 -35,-19 45,-17 49,-31Z"/>
    <path data-fips-int="48289" data-name="Leon County" d="M2839,1562l6,12 8,27 7,1 2,15 -17,15 1,13 -5,5 6,14 -12,8 3,12 -53,3 -10,7 -9,1 -8,7 -24,17 -16,6 -5,-10 3,-12 -5,-8 -7,-18 -2,-12 -4,-9 -5,-15 1,-13 0,-17 -1,-4 22,-13 78,-47 33,-18 5,5 7,-17 7,10 0,20 -10,1Z"/>
    <path data-fips-int="48291" data-name="Liberty County" d="M3109,1853l21,59 19,52 39,-3 4,67 -139,8 -5,-10 4,-12 0,-1 -4,-9 -9,-1 -19,-49 -20,-52 57,-33 23,-14 -1,-2Z"/>
    <path data-fips-int="48293" data-name="Limestone County" d="M2645,1482l28,45 42,67 -22,13 1,4 -70,43 -36,-61 -18,-27 -34,-54 53,-34Z"/>
    <path data-fips-int="48295" data-name="Lipscomb County" d="M1760,229l-95,0 -35,-1 -1,0 0,-132 131,0Z"/>
    <path data-fips-int="48297" data-name="Live Oak County" d="M2282,2417l-22,8 41,78 35,63 -2,2 -22,20 -1,8 6,9 -92,1 -26,1 -2,-80 0,-38 -1,-47 61,-53Z"/>
    <path data-fips-int="48299" data-name="Llano County" d="M2158,1754l-4,12 10,6 0,8 12,0 -7,5 -6,20 14,3 -11,11 3,8 -9,1 6,8 4,25 8,-4 5,5 0,22 -15,-5 -46,2 -95,1 -2,-126Z"/>
    <path data-fips-int="48301" data-name="Loving County" d="M924,1424l-4,103 -70,-1 -1,0 -20,-30 -7,2 -9,-1 -12,-11 -1,-23 -7,-10 -9,7 -1,-9 -8,-4 -2,-12 -5,0 -1,-12 -8,-5Z"/>
    <path data-fips-int="48303" data-name="Lubbock County" d="M1375,1018l-129,0 0,-130 129,0Z"/>
    <path data-fips-int="48305" data-name="Lynn County" d="M1373,1147l-34,0 -95,-2 1,-52 1,-75 129,0Z"/>
    <path data-fips-int="48307" data-name="McCulloch County" d="M1963,1594l5,3 4,-3 19,1 1,2 0,111 1,42 -100,1 -31,0 0,-43 0,-121 18,4 6,16 2,-6 7,4 9,-6 -2,-7 11,9 22,10 16,-21Z"/>
    <path data-fips-int="48309" data-name="McLennan County" d="M2416,1630l-33,-52 -16,-26 82,-49 59,-37 28,46 34,54 -43,29 -75,47 -16,11Z"/>
    <path data-fips-int="48311" data-name="McMullen County" d="M2196,2442l1,47 0,38 2,80 -75,1 -48,0 0,-20 0,-81 -2,-74 46,-1 76,-1Z"/>
    <path data-fips-int="48313" data-name="Madison County" d="M2838,1684l11,4 17,0 7,12 -8,1 -4,14 11,18 5,-1 0,1 -2,7 -2,1 -19,-1 -5,1 -1,0 1,0 -1,0 -19,11 -14,2 -65,14 -12,1 0,-1 -2,0 2,0 -2,-1 -2,-10 -3,-2 -5,-10 2,-11 -10,-9 16,-6 24,-17 8,-7 9,-1 10,-7Z"/>
    <path data-fips-int="48315" data-name="Marion County" d="M3249,1188l-12,2 -4,-7 0,-7 -11,0 -6,14 -12,-2 -2,-5 -5,-9 0,1 0,-1 -8,0 -24,19 -32,1 -50,-27 0,-8 6,-4 -8,-8 0,-6 13,0 152,-8Z"/>
    <path data-fips-int="48317" data-name="Martin County" d="M1337,1277l-2,130 -21,0 -109,-2 3,-130 2,0Z"/>
    <path data-fips-int="48319" data-name="Mason County" d="M1993,1750l0,6 32,0 2,126 -88,0 -45,0 0,-62 -1,-69Z"/>
    <path data-fips-int="48323" data-name="Maverick County" d="M1733,2304l0,111 -1,19 0,134 -25,0 -4,-11 -6,0 -12,-14 2,-7 -16,-27 3,-13 -9,-10 10,-7 -13,-4 -7,-10 3,-12 -13,-8 0,-9 -14,-6 -2,-24 -6,-4 0,-15 -31,-40 2,-18 -5,-25Z"/>
    <path data-fips-int="48325" data-name="Medina County" d="M2072,2253l0,48 -31,1 -99,0 -28,0 0,-86 -1,-74 32,1 80,0 1,21 13,-3 31,-39Z"/>
    <path data-fips-int="48327" data-name="Menard County" d="M1894,1820l-56,0 -106,0 0,-112 130,0 0,43 31,0Z"/>
    <path data-fips-int="48329" data-name="Midland County" d="M1314,1407l0,81 -2,48 -93,-2 -36,0 3,-130 19,1Z"/>
    <path data-fips-int="48331" data-name="Milam County" d="M2624,1801l-86,54 -49,31 -31,-81 -12,-6 14,-42 47,-29 60,-38 5,7 -2,7 8,-2 6,6 -1,13 6,0 -6,10 10,19 8,-2 3,14 14,13 8,17Z"/>
    <path data-fips-int="48333" data-name="Mills County" d="M2150,1527l49,79 2,2 -75,55 -4,-11 -12,-1 7,-5 3,-10 -11,3 -5,-4 3,-9 -5,-5 -11,10 1,-21 -8,1 0,-7 -10,16 -2,-11 -21,0 -2,-8 -18,1 -15,-8 1,-6 53,-38 4,-23 24,-4 44,-8Z"/>
    <path data-fips-int="48335" data-name="Mitchell County" d="M1594,1410l-40,-1 -91,0 4,-130 0,-2 43,0 86,2Z"/>
    <path data-fips-int="48337" data-name="Montague County" d="M2381,858l2,73 1,70 -107,3 -15,0 0,-10 -2,-84 0,-42 27,12 8,-3 18,-23 7,-1 8,-14 6,-3 10,3 11,9 -2,10 9,5Z"/>
    <path data-fips-int="48339" data-name="Montgomery County" d="M2948,1856l8,20 6,9 20,7 6,7 -3,11 15,-8 20,52 -40,40 -14,1 0,-5 -16,-9 -5,1 -9,-9 -7,2 0,1 0,-1 0,1 -3,0 -2,0 -5,-1 -1,-8 -13,-10 -4,4 -12,8 -2,-1 -10,8 -19,6 -19,2 -2,-46 0,-29 -10,-86 60,34 61,-2Z"/>
    <path data-fips-int="48341" data-name="Moore County" d="M1369,226l-2,129 -40,0 -90,-2 0,-2 2,-127 71,0Z"/>
    <path data-fips-int="48343" data-name="Morris County" d="M3064,1008l25,17 5,116 -13,0 -4,-7 -14,-10 -12,-12 -2,-113 6,12Z"/>
    <path data-fips-int="48345" data-name="Motley County" d="M1633,746l0,94 0,49 -129,0 1,-143 23,0Z"/>
    <path data-fips-int="48347" data-name="Nacogdoches County" d="M3160,1446l2,3 3,3 0,1 2,5 0,1 1,1 -1,4 2,7 2,2 0,1 0,-1 0,1 0,1 3,18 1,5 1,2 -1,1 1,0 -1,0 1,0 1,1 0,1 0,2 2,2 4,0 1,1 1,0 0,2 4,4 2,2 2,1 2,0 4,6 1,8 2,7 -1,3 1,1 -1,-1 0,1 1,0 0,2 -1,4 0,1 -2,3 1,8 0,1 0,-1 0,1 -1,4 2,3 1,1 -3,16 -1,1 0,1 2,5 1,1 0,1 0,-1 0,1 1,0 0,10 -4,15 1,4 -1,0 1,0 -1,0 3,6 -3,-2 -11,-12 -8,-9 -5,-2 -5,-2 -2,-5 -4,-11 -2,-3 -2,-1 -4,-4 -5,0 -3,2 -5,-9 -9,-2 -2,-2 -3,1 -1,1 -7,-1 -10,-3 -1,1 -30,-7 -1,-1 -2,-1 1,0 -1,0 -9,-5 -7,-6 -2,-1 0,1 0,-1 0,1 -1,-1 -1,0 1,0 -1,0 -1,-2 0,-1 -4,-4 2,-7 -8,-1 -7,-16 -1,-4 1,-2 -1,0 1,0 -1,0 0,-1 -1,-3 0,-1 -3,-7 -1,-17 6,0 -3,-5 -5,-3 7,-14 1,-5 42,-1Z"/>
    <path data-fips-int="48349" data-name="Navarro County" d="M2686,1329 14,17 6,-2 10,13 6,0 7,0 -6,10 3,5 15,1 -3,17 14,3 2,21 -109,68 -56,-4 -47,-76 66,-40 60,-40Z"/>
    <path data-fips-int="48351" data-name="Newton County" d="M3374,1912l-49,3 0,-137 -2,-73 -15,-62 78,-9 5,2 12,-6 -4,9 4,8 -3,14 12,15 -7,6 -8,0 0,13 10,2 2,9 -8,4 -1,22 3,10 -6,3 -2,11 -6,2 2,11 -4,12 -13,13 2,14 -12,6 1,15 4,1 -1,11 6,14 -15,14 -1,18 9,9 8,2Z"/>
    <path data-fips-int="48353" data-name="Nolan County" d="M1723,1411l-21,0 -57,0 -51,-1 2,-131 129,1Z"/>
    <path data-fips-int="48357" data-name="Ochiltree County" d="M1629,96l0,132 -130,-1 0,-63 1,-68Z"/>
    <path data-fips-int="48359" data-name="Oldham County" d="M1237,353l-2,53 0,27 -2,51 -104,-4 -59,0 -50,-2 4,-130 70,2 82,0 61,1Z"/>
    <path data-fips-int="48361" data-name="Orange County" d="M3374,1912l-2,8 7,19 -1,11 -7,11 8,8 -21,20 -10,32 -5,6 3,-12 -1,-15 -7,-7 -16,-2 -7,-6 -20,-3 1,-12 -18,-4 4,-14 -10,-9 0,-1 4,-12 1,-1 -1,1 -6,-4 0,-7 55,-4Z"/>
    <path data-fips-int="48363" data-name="Palo Pinto County" d="M2245,1265l0,14 -102,1 -25,0 -1,-24 -1,-107 37,0 0,-16 92,0 0,121Z"/>
    <path data-fips-int="48365" data-name="Panola County" d="M3146,1287 15,4 9,5 9,4 75,-22 6,119 8,3 -125,9 -22,1 -2,-32 4,-21 0,-17 19,-46 0,-11Z"/>
    <path data-fips-int="48367" data-name="Parker County" d="M2279,1133l94,0 0,81 1,49 -16,0 -65,2 -48,0 0,-11 0,-121Z"/>
    <path data-fips-int="48369" data-name="Parmer County" d="M1143,611l0,54 -2,75 -22,0 -105,-2 3,-130Z"/>
    <path data-fips-int="48371" data-name="Pecos County" d="M1002,1617 20,7 10,6 5,8 8,7 14,-7 10,-2 13,-7 3,3 14,10 3,5 4,1 8,-1 2,1 10,4 1,2 4,3 4,5 10,8 0,16 6,15 3,0 2,1 1,0 7,5 7,3 11,9 8,-3 11,3 16,12 21,-1 2,-1 10,7 6,-3 28,24 -4,7 7,4 7,20 0,5 0,9 4,2 2,15 8,6 2,9 -94,-2 -1,17 -52,-1 -2,90 -5,3 -53,-1 -1,69 -47,-40 -36,-32 -60,-51 -76,-66 -36,-31 47,-53 104,-123Z"/>
    <path data-fips-int="48373" data-name="Polk County" d="M3081,1663 14,7 14,2 19,2 4,3 1,0 8,2 3,2 -24,15 15,60 5,22 16,61 3,11 -50,3 -30,0 -5,-5 9,-9 -45,-10 -6,-20 -8,-9 -12,8 -3,-12 -9,-5 3,-20 -18,-12 49,-53 12,-11 25,-36Z"/>
    <path data-fips-int="48375" data-name="Potter County" d="M1367,355l-1,130 -133,-1 2,-51 0,-27 2,-53 90,2Z"/>
    <path data-fips-int="48377" data-name="Presidio County" d="M789,1893l-3,82 -5,196 -2,65 -4,-4 -31,-7 -12,-1 -14,-6 -20,-18 -15,-8 -3,-9 -8,-9 2,-8 -22,-13 -10,1 -12,-7 -6,-11 -26,-20 -8,-13 -1,-17 -16,-32 -16,-23 2,-11 -4,-25 3,-12 -2,-16 3,-13 -4,-17 -14,-11 -3,-10 -12,-15 2,-7 -11,-5 -3,-41 -10,-23 -13,-2 -1,-6 -1,-1 1,1 93,25 89,26 89,24Z"/>
    <path data-fips-int="48379" data-name="Rains County" d="M2791,1124l49,-2 1,6 10,71 -8,2 -9,-8 -22,-8 -6,2 -7,-1 -4,-2 -16,-10 -4,-7 -14,-11 10,-31Z"/>
    <path data-fips-int="48381" data-name="Randall County" d="M1366,485l-3,105 0,25 -91,-2 -42,0 2,-62 1,-67Z"/>
    <path data-fips-int="48383" data-name="Reagan County" d="M1437,1708l-121,-1 -6,0 0,-32 2,-139 129,2 0,28 0,8Z"/>
    <path data-fips-int="48385" data-name="Real County" d="M1864,2059l0,84 -62,1 -44,0 -4,-11 3,-4 -10,-11 8,-4 -3,-16 6,-4 -6,-16 9,-15 3,-39 4,1 2,-17 12,2 42,-1 17,0 0,50Z"/>
    <path data-fips-int="48387" data-name="Red River County" d="M3059,897l5,111 -9,3 -6,-12 -1,-4 -20,-6 -6,4 -24,0 -2,3 -21,-3 -5,2 -34,7 -11,-2 -1,-1 -2,-44 -3,-73 -2,-31 8,0 1,-11 6,5 -2,-10 6,-10 17,7 9,0 2,9 9,-6 -4,9 10,-3 3,11 20,1 4,13 24,20 12,2 9,-9Z"/>
    <path data-fips-int="48389" data-name="Reeves County" d="M822,1498 7,-2 20,30 1,0 7,5 12,0 5,3 1,10 -1,0 1,0 -1,0 0,2 -1,1 0,4 2,1 0,1 1,10 2,20 11,9 1,0 -1,0 1,0 8,1 12,4 4,-1 2,2 0,1 0,-1 0,1 6,-2 8,0 2,0 0,-1 0,1 0,-1 2,-1 5,11 26,8 19,0 0,-3 8,0 6,2 -104,123 -47,53 -129,-105 12,-95 5,-60 12,-111 12,0 8,5 1,12 5,0 2,12 8,4 1,9 9,-7 7,10 1,23 12,11Z"/>
    <path data-fips-int="48391" data-name="Refugio County" d="M2574,2465l13,11 8,11 6,-6 7,7 -5,8 -14,-10 -6,6 16,14 2,14 -86,16 6,11 14,8 8,1 -28,18 -8,-8 -7,4 4,8 -19,21 -4,-3 -32,-18 -5,5 -13,-3 -8,-14 -12,8 -5,-4 42,-67 55,-50 2,0 1,1 -1,-1 1,1 6,1 8,0 1,1 4,-1 2,0 6,-2 0,4 -1,0 1,0 8,5 7,5 10,-1 11,4 2,-6Z"/>
    <path data-fips-int="48393" data-name="Roberts County" d="M1629,228l1,0 -1,130 -9,0 -110,0 -12,-1 0,-2 0,-124 1,-3 0,-1Z"/>
    <path data-fips-int="48395" data-name="Robertson County" d="M2694,1628 -1,13 5,15 4,9 2,12 7,18 5,8 -3,12 5,10 -27,19 -9,15 -9,21 -8,15 -28,15 0,1 0,-1 -13,-9 2,-9 -8,-17 -14,-13 -3,-14 -8,2 -10,-19 6,-10 -6,0 1,-13 -6,-6 -8,2 2,-7 -5,-7 57,-36 70,-43Z"/>
    <path data-fips-int="48397" data-name="Rockwall County" d="M2684,1127l1,42 0,8 -55,2 -2,-50Z"/>
    <path data-fips-int="48399" data-name="Runnels County" d="M1833,1411l-1,151 -99,-1 -31,0 0,-34 0,-116 21,0Z"/>
    <path data-fips-int="48401" data-name="Rusk County" d="M3142,1283l0,11 -19,46 0,17 -4,21 2,32 22,-1 1,15 5,4 2,2 1,0 0,1 0,-1 0,1 8,15 -80,5 -42,1 -12,0 -4,-86 -4,-70 87,-5 10,3 5,-10 7,-4 9,6Z"/>
    <path data-fips-int="48403" data-name="Sabine County" d="M3308,1512 12,3 14,17 9,-2 9,4 -9,14 15,8 -3,9 8,3 2,14 -4,13 12,11 6,0 2,11 5,0 0,17 -78,9 -32,9 -2,-25 2,-10 -5,-13 1,-14 4,-7 -6,-13 14,-17 -2,-31 22,-14Z"/>
    <path data-fips-int="48405" data-name="San Augustine County" d="M3282,1522l2,31 -14,17 6,13 -4,7 -1,14 5,13 -2,10 2,25 -2,6 -4,1 -17,5 -4,-4 -12,-6 0,-1 0,1 0,-1 -8,-10 -8,-3 -14,-8 -6,-3 -3,-6 1,0 -1,0 1,0 -1,-4 4,-15 0,-10 -1,0 0,-1 0,1 0,-1 -1,-1 -2,-5 0,-1 1,-1 3,-16 -1,-1 -2,-3 1,-4 0,-1 0,1 0,-1 -1,-8 2,-3 0,-1 1,-4 0,-2 -1,0 0,-1 1,1 -1,-1 1,-3 -2,-7 -1,-8 -4,-6 -2,0 -2,-1 -2,-2 -4,-4 0,-2 -1,0 -1,-1 -4,0 -2,-2 0,-2 0,-1 77,6Z"/>
    <path data-fips-int="48407" data-name="San Jacinto County" d="M2985,1759l18,12 -3,20 9,5 3,12 12,-8 8,9 6,20 45,10 -9,9 5,5 1,2 -23,14 -57,33 -15,8 3,-11 -6,-7 -20,-7 -6,-9 -8,-20 2,-36 2,-70 3,-12 15,-3 6,6 -3,6Z"/>
    <path data-fips-int="48411" data-name="San Saba County" d="M2017,1588l-1,6 15,8 18,-1 2,8 21,0 2,11 10,-16 0,7 8,-1 -1,21 11,-10 5,5 -3,9 5,4 11,-3 -3,10 -7,5 12,1 4,11 -2,8 13,11 -6,13 6,10 10,-9 7,10 -7,7 11,9 -4,5 4,9 0,10 7,1 -7,7 -133,2 -32,0 0,-6 -1,-42 0,-111 -1,-2 14,-8 4,5Z"/>
    <path data-fips-int="48413" data-name="Schleicher County" d="M1732,1708l0,112 -67,1 -149,0 0,-107 1,-6 69,0 127,-1Z"/>
    <path data-fips-int="48415" data-name="Scurry County" d="M1598,1148l-2,131 -86,-2 -43,0 1,-130 34,-1 20,2Z"/>
    <path data-fips-int="48417" data-name="Shackelford County" d="M1987,1150l0,131 -4,0 -14,1 -83,0 -28,0 0,-132 35,0Z"/>
    <path data-fips-int="48419" data-name="Shelby County" d="M3320,1515l-12,-3 -4,-4 -22,14 -28,-14 -77,-6 -1,-1 -1,0 1,0 -1,0 1,-1 -1,-2 -1,-5 -3,-18 0,-1 0,-1 0,1 0,-1 -2,-2 -2,-7 1,-4 -1,-1 0,-1 -2,-5 0,-1 -3,-3 -2,-3 -8,-15 0,-1 0,1 0,-1 -1,0 -2,-2 -5,-4 -1,-15 125,-9 10,15 13,4 1,8 14,14 0,5 14,12 -3,9 5,12 6,1 -8,11 4,8Z"/>
    <path data-fips-int="48421" data-name="Sherman County" d="M1371,94l-2,132 -59,-2 -71,0 3,-132 31,0Z"/>
    <path data-fips-int="48423" data-name="Smith County" d="M2948,1238 4,4 19,4 3,-7 10,6 24,1 2,7 6,-7 2,50 4,70 -119,5 -5,-5 2,-11 -5,-13 0,-1 7,-14 1,-21 -12,-10 -3,-7 -9,-5 -14,-14 -3,-61 21,14 0,5 31,4 7,-2Z"/>
    <path data-fips-int="48425" data-name="Somervell County" d="M2360,1333l0,34 -4,0 -57,37 -22,-44 40,-24Z"/>
    <path data-fips-int="48427" data-name="Starr County" d="M2182,2986l27,-1 -14,35 -29,64 -26,59 -22,7 -2,-8 -20,-20 -8,1 -7,-12 -23,4 -2,-5 -21,-8 -9,2 -6,-6 -13,5 -8,-9 5,-16 -9,-13 -12,-4 0,-10 42,-31 15,-33 19,0 83,0Z"/>
    <path data-fips-int="48429" data-name="Stephens County" d="M2116,1149l1,107 1,24 -131,1 0,-131 36,-1Z"/>
    <path data-fips-int="48431" data-name="Sterling County" d="M1463,1409l91,0 0,38 -1,79 -9,-3 -2,43 -101,0 0,-28 2,-130Z"/>
    <path data-fips-int="48433" data-name="Stonewall County" d="M1763,1020l1,38 0,92 -39,0 -94,-2 2,-129 2,1Z"/>
    <path data-fips-int="48435" data-name="Sutton County" d="M1732,1945l-137,1 -13,-1 -67,0 1,-17 0,-83 0,-24 149,0 67,-1Z"/>
    <path data-fips-int="48437" data-name="Swisher County" d="M1363,615l38,1 0,45 -2,84 -22,0 -107,-2 2,-130Z"/>
    <path data-fips-int="48439" data-name="Tarrant County" d="M2373,1133l36,0 84,0 7,-1 1,44 1,86 -12,0 -108,1 -8,0 -1,-49Z"/>
    <path data-fips-int="48441" data-name="Taylor County" d="M1854,1282l0,129 -21,0 -110,0 2,-131 24,0 105,0Z"/>
    <path data-fips-int="48443" data-name="Terrell County" d="M1340,1863 -3,6 -12,24 -9,10 11,8 8,17 -10,-2 -9,7 -6,10 0,48 -1,69 -2,34 -13,-1 -10,-7 -4,3 -24,-1 -5,-6 -23,9 -12,-2 -20,-14 -32,-13 -62,-53 1,-69 53,1 5,-3 2,-90 52,1 1,-17 94,2 14,0 15,9 -4,11Z"/>
    <path data-fips-int="48445" data-name="Terry County" d="M1244,1145l-34,0 -96,-2 1,-25 2,-103 129,3 -1,75Z"/>
    <path data-fips-int="48447" data-name="Throckmorton County" d="M2023,1149l-36,1 -94,0 -1,-36 0,-84 0,-11 24,-1 105,0 0,77Z"/>
    <path data-fips-int="48449" data-name="Titus County" d="M3049,999l2,113 -9,-5 -16,-13 -3,-7 -19,0 -5,0 -19,13 -1,1 -1,0 -4,-1 -1,-42 -3,-63 5,-2 21,3 2,-3 24,0 6,-4 20,6Z"/>
    <path data-fips-int="48451" data-name="Tom Green County" d="M1553,1526l40,1 109,0 0,34 31,0 0,36 0,85 -1,26 -19,-1 -127,1 0,-131 -145,-3 0,-8 101,0 2,-43Z"/>
    <path data-fips-int="48453" data-name="Travis County" d="M2434,1899l1,-1 -1,1 -29,63 -39,43 -16,13 -42,-35 -27,-21 -31,-25 -21,-15 12,-22 8,-12 -6,-11 17,-36 15,4 8,-6 11,7 -3,12 16,5 5,23 18,12 9,-7 14,-3 2,-6 9,1 12,-8 7,0 5,7 10,-2 17,6Z"/>
    <path data-fips-int="48455" data-name="Trinity County" d="M3040,1600 3,2 4,0 3,1 5,9 6,7 -6,8 8,3 5,21 0,7 3,1 -25,36 -12,11 -49,53 -12,-12 3,-6 -6,-6 -15,3 -3,12 -18,1 1,-6 -5,-16 -6,-1 -2,-36 59,-51 58,-53Z"/>
    <path data-fips-int="48457" data-name="Tyler County" d="M3147,1682 23,6 1,0 -1,0 7,6 0,-1 0,1 0,-1 23,-9 4,5 7,-6 5,7 10,1 0,7 1,9 9,7 -2,10 7,8 4,18 8,6 6,13 1,18 10,-2 3,9 7,3 0,5 -6,5 -1,17 4,10 -1,0 -57,3 -63,2 -16,-61 -5,-22 -15,-60 24,-15Z"/>
    <path data-fips-int="48459" data-name="Upshur County" d="M3077,1134l4,7 0,6 8,8 -6,4 0,8 2,42 -4,-1 -10,-1 -13,20 -38,19 -4,0 -6,7 -2,-7 -24,-1 -10,-6 -4,-99 76,-4Z"/>
    <path data-fips-int="48461" data-name="Upton County" d="M1310,1707l-23,0 -111,-4 -1,-33 0,-136 8,0 36,0 93,2 -2,139Z"/>
    <path data-fips-int="48463" data-name="Uvalde County" d="M1758,2144l44,0 62,-1 49,-1 1,74 0,86 -96,1 -85,1 0,-160Z"/>
    <path data-fips-int="48465" data-name="Val Verde County" d="M1515,1945l67,0 0,36 0,126 -1,36 0,63 -3,23 -9,2 1,11 -6,16 -8,-1 -22,-11 -2,-9 -14,-7 -2,-5 -17,-7 -11,-26 -24,-6 -6,-11 -22,-7 5,-8 -3,-19 -7,2 1,9 -8,4 -1,-10 3,-11 -13,-4 -12,-15 -5,-13 -9,0 0,-10 -12,7 -10,1 -1,-15 -9,12 -8,-2 -10,6 -4,-5 -12,3 -14,-6 2,-34 1,-69 0,-48 126,1Z"/>
    <path data-fips-int="48467" data-name="Van Zandt County" d="M2775,1167l4,7 16,10 4,2 7,1 6,-2 22,8 9,8 8,-2 11,10 3,61 14,14 9,5 3,7 12,10 -82,3 -75,2 -2,-38 -2,-54 -2,-51Z"/>
    <path data-fips-int="48469" data-name="Victoria County" d="M2557,2300l26,10 12,32 17,8 5,17 0,2 3,8 8,10 4,12 0,6 -15,10 -34,11 -20,15 6,4 5,20 -3,-1 -2,6 -11,-4 -10,1 -7,-5 -8,-5 -1,0 1,0 0,-4 -6,2 -2,0 -4,1 -1,-1 -8,0 -6,-1 -1,-1 1,1 -1,-1 -2,0 0,-3 -6,-18 4,-47 -8,-9 -4,-13 -8,-2 -5,5 -12,1 -1,-6 84,-73Z"/>
    <path data-fips-int="48471" data-name="Walker County" d="M2935,1745 -1,6 18,-1 -2,70 -2,36 0,-1 -61,2 -60,-34 -12,-69 14,-2 19,-11 1,0 -1,0 1,0 5,-1 19,1 2,-1 2,-7 0,-1 45,-40 2,36 6,1Z"/>
    <path data-fips-int="48473" data-name="Waller County" d="M2837,1938l2,46 -3,2 -5,0 -10,-11 -4,1 -20,-12 12,29 28,81 -32,15 -4,4 -16,1 -4,-20 -16,-4 -5,-8 5,-11 1,0 -1,0 1,0 -6,-5 8,-35 -16,-18 -12,-18 7,-3 0,-20 16,-5 2,-2Z"/>
    <path data-fips-int="48475" data-name="Ward County" d="M920,1527l97,4 37,0 8,0 -2,61 -1,46 -14,7 -8,-7 -5,-8 -10,-6 -20,-7 -4,-4 -6,-2 -8,0 0,3 -19,0 -26,-8 -5,-11 -2,1 0,1 0,-1 0,1 -2,0 -8,0 -6,2 0,-1 0,1 0,-1 -2,-2 -4,1 -12,-4 -8,-1 -1,0 1,0 -1,0 -11,-9 -2,-20 -1,-10 0,-1 -2,-1 0,-4 1,-1 0,-2 1,0 -1,0 1,0 -1,-10 -5,-3 -12,0 -7,-5 -1,0 1,0Z"/>
    <path data-fips-int="48477" data-name="Washington County" d="M2747,1915l9,7 7,0 0,25 -16,5 0,20 -7,3 12,18 -3,4 -27,-5 -9,-5 -57,11 -20,-1 -6,8 -8,-30 -10,-6 -7,6 -13,3 -7,-7 12,-10 4,-14 11,-3 10,-14 0,-1 20,-7 2,0 8,-1 8,-4 18,-3 13,-6 18,-6 9,6 22,-12 5,6Z"/>
    <path data-fips-int="48479" data-name="Webb County" d="M2076,2608l1,92 2,65 1,53 0,25 -41,0 -100,0 -10,-14 -22,17 -9,2 -3,-14 -11,-4 9,-5 4,-24 -2,-11 4,-10 -12,-3 2,-17 -5,-15 -12,0 2,-5 -9,-6 -7,4 -8,-2 1,-7 -16,-3 -13,-19 -4,1 -6,-12 -8,2 -2,-9 -8,-1 0,-14 -7,-9 1,-12 -10,-7 2,-14 -16,-3 -6,-20 -11,-8 -8,-18 -32,-15 25,0 118,-2 71,0 1,51 79,-4Z"/>
    <path data-fips-int="48481" data-name="Wharton County" d="M2771,2132l6,3 6,15 2,9 -6,10 7,6 11,6 13,24 0,5 15,6 4,14 8,0 -6,11 -23,25 -59,40 -28,18 -75,-70 -14,-12 59,-40 16,-11 9,-31 33,-37 16,3Z"/>
    <path data-fips-int="48483" data-name="Wheeler County" d="M1760,358l0,130 -131,0 0,-130Z"/>
    <path data-fips-int="48485" data-name="Wichita County" d="M2149,813l1,73 -131,2 0,-112 8,9 28,7 11,7 17,0 10,-10 19,4 3,8 19,18Z"/>
    <path data-fips-int="48487" data-name="Wilbarger County" d="M2019,776l0,112 -106,1 -23,0 0,-75 0,-12 0,-80 9,7 8,-1 6,-25 14,12 8,0 4,9 9,5 1,9 7,6 4,32 16,3 13,-3 7,4 11,-6Z"/>
    <path data-fips-int="48491" data-name="Williamson County" d="M2489,1886l-45,17 -9,-5 -1,1 -19,-13 -17,-6 -10,2 -5,-7 -7,0 -12,8 -9,-1 -2,6 -14,3 -9,7 -18,-12 -5,-23 -16,-5 3,-12 -11,-7 -8,6 -15,-4 21,-48 34,-37 12,1 40,9 79,33 12,6Z"/>
    <path data-fips-int="48493" data-name="Wilson County" d="M2321,2212l-4,7 33,38 -50,45 -13,11 -54,48 -58,-68 6,-8 56,-83 7,-8 6,22 7,-4Z"/>
    <path data-fips-int="48495" data-name="Winkler County" d="M1057,1402l-3,129 -37,0 -97,-4 4,-103 66,1 0,-25Z"/>
    <path data-fips-int="48497" data-name="Wise County" d="M2384,1001l26,1 -1,48 0,83 -36,0 -94,0 -2,-129Z"/>
    <path data-fips-int="48499" data-name="Wood County" d="M2968,1108l2,32 4,99 -3,7 -19,-4 -4,-4 -27,-8 -7,2 -31,-4 0,-5 -21,-14 -11,-10 -10,-71 89,-4 34,-2 2,-6 0,-2 2,-6 0,-1Z"/>
    <path data-fips-int="48501" data-name="Yoakum County" d="M1114,1143l-116,-3 5,-127 114,2 -2,103Z"/>
    <path data-fips-int="48503" data-name="Young County" d="M2153,1017l0,116 0,16 -37,0 -93,0 -2,-54 0,-77 59,0Z"/>
    <path data-fips-int="48505" data-name="Zapata County" d="M2039,2843l1,144 -15,33 -42,31 -2,-14 -6,-11 -2,-20 -8,-7 -2,-12 -10,-21 -12,-6 0,-11 -14,-5 -4,-8 4,-5 -10,-12 -8,0 -2,-14 3,-26 4,-8 -7,-25 22,-17 10,14Z"/>
    <path data-fips-int="48507" data-name="Zavala County" d="M1914,2302l1,87 1,47 -126,0 -58,-2 1,-19 0,-111 85,-1Z"/>
    <path data-fips-int="48039" data-name="Brazoria County" d="M2997,2136 1,0 -1,0 1,0 -1,0 -3,28 50,77 -10,6 -27,-8 13,9 -4,19 -8,8 5,4 -11,10 -3,13 21,-17 -38,39 -22,20 -29,13 -16,0 -3,-9 -17,-13 -1,-10 -9,-8 -23,0 -2,-10 1,0 -1,0 -2,-12 3,-4 -9,-7 -11,-5 -2,-31 -8,-7 6,-11 13,-14 4,4 7,-9 22,7 11,2 0,-6 12,-10 0,-10 8,-7 -2,-12 23,-1 8,-42 20,-3 3,-3 18,0 4,11Z"/>
    <path data-fips-int="48061" data-name="Cameron County" d="M2513,3130l11,61 -7,-22 1,-10 -5,-17ZM2509,3193l0,7 -10,8 5,3 -5,11 24,-14 4,12 -28,8 -6,4 -19,2 -8,7 5,10 -3,10 -20,-3 -3,-10 -15,0 -10,-14 -10,0 0,-9 -14,-7 -1,-10 -8,2 -11,-5 -15,3 -11,-10 -15,3 0,-6 -2,-83 63,10 27,3 9,-11 10,4 16,-27 6,6 -2,10 13,1 -4,13 1,13 13,21 -2,11 6,9 -8,2 12,10 17,2Z"/>
    <path data-fips-int="48071" data-name="Chambers County" d="M3192,2028l22,-1 6,97 -5,2 -1,-11 -8,-1 -2,8 -14,5 -13,6 -8,-10 -17,7 -37,11 0,-5 11,-21 4,-13 1,-29 -10,-3 0,-8 -20,7 1,-11 -10,11 5,5 -11,16 -2,9 -10,4 -4,-7 -5,-10 8,-16 -1,-13 -1,-6 -5,0 -1,-1 -4,-5 -6,-7 -2,-2Z"/>
    <path data-fips-int="48201" data-name="Harris County" d="M2919,1975 5,1 2,0 3,0 0,-1 0,1 0,-1 7,-2 9,9 5,-1 16,9 0,5 14,-1 40,-40 19,49 9,1 4,9 0,1 -4,12 5,10 2,2 6,7 4,5 1,1 5,0 1,6 1,13 -8,16 5,10 -24,-10 -16,-31 -6,17 9,4 5,15 13,1 5,6 -8,14 9,9 -9,15 -12,-2 -13,16 -11,4 -15,-18 1,0 -1,0 1,0 -1,0 -9,1 -4,-11 -18,0 -3,3 -20,3 -50,-25 -56,-33 -28,-81 -12,-29 20,12 4,-1 10,11 5,0 3,-2 19,-2 19,-6 10,-8 2,1 12,-8 4,-4 13,10Z"/>
    <path data-fips-int="48261" data-name="Kenedy County" d="M2479,3020l5,14 -5,0 -10,-14 3,-7 9,18ZM2479,3020l-14,-22 -4,-24 -6,-17 3,-7 3,-3 5,25ZM2461,2947l-6,-3 -1,-30 2,-50 2,-20 2,-10 4,0 -6,35 -1,38ZM2438,2882l-9,3 -5,7 6,5 -2,8 5,7 -5,6 -15,0 -3,7 3,18 -1,25 8,3 16,24 0,11 6,18 1,12 -111,3 -26,-4 -7,-1 -1,-49 -3,-127 9,-8 31,-4 5,-8 10,-4 14,7 19,-5 7,10 20,3 34,-11Z"/>
    <path data-fips-int="48321" data-name="Matagorda County" d="M2793,2434l17,-8 -2,-10 -13,-2 -36,18 -1,-10 -8,5 -6,-8 12,-19 -3,-11 -3,14 -24,7 -5,10 -1,-10 1,-86 28,-18 59,-40 23,-25 8,7 2,31 11,5 9,7 -3,4 2,12 1,0 -1,0 2,10 23,0 9,8 1,10 17,13 3,9 16,0 -46,31 3,-8 -15,6 -14,-3 -40,20 2,7 -5,12 15,-6 28,-17 18,-9 6,0 -46,28 -34,16 -37,19 -35,24 -7,8 -4,-4 45,-32Z"/>
    <path data-fips-int="48409" data-name="San Patricio County" d="M2444,2583 5,-5 32,18 20,29 0,2 14,19 -14,24 -8,-4 -8,-11 -21,0 -37,3 -6,-4 -7,6 8,7 -14,-6 -13,2 -5,-11 -13,6 -15,-12 -12,-2 -4,-7 -8,2 -3,-9 5,-7 2,-6 -8,-7 -2,1 -15,-6 -6,-9 1,-8 22,-20 66,14 6,-12 5,4 12,-8 8,14Z"/>
    <path data-fips-int="48489" data-name="Willacy County" d="M2494,3062l-3,-2 -18,-14 9,0 -3,-12 5,0ZM2448,3060l-6,15 7,8 -5,8 14,0 -16,27 -10,-4 -9,11 -27,-3 -63,-10 -1,-25 -37,-3 4,-27 4,-4 3,-18 26,4 111,-3 8,14Z"/>
    <path data-fips-int="48167" data-name="Galveston County" d="M3125,2196l2,1 -28,23 -59,45 -12,11 7,-12 16,-11 6,-7 14,-9 0,-8 24,-20 16,-4 4,-8ZM3103,2194l10,4 -10,6ZM3081,2209l-10,-5 -27,37 -50,-77 3,-28 15,18 11,-4 13,-16 12,2 11,11 18,4 -11,22 18,0 0,28ZM3215,2126l-60,31 -21,15 -9,15 -12,2 2,-9 16,-13 6,-11 17,-4 9,-14 22,3 5,-14 14,-5 2,-8 8,1Z"/>
    <path data-fips-int="48007" data-name="Aransas County" d="M2582,2594l4,5 -17,18 -17,22 -13,22 -2,0 4,-18 8,-6 10,-24 8,2 0,-9ZM2485,2599l10,-3 13,7 -1,12 -6,10 -20,-29ZM2515,2646l-14,-19 8,-9 5,-15 20,-13 2,-8 7,3 -4,11 3,10 -14,16ZM2593,2582l-2,6 -3,7 -12,-13 6,-6ZM2589,2559l1,-3 -23,22 -9,-1 11,-21 -6,-5 6,-15 -13,14 5,7 -5,7 -1,13 -13,-5 1,-16 -8,-1 -14,-8 -6,-11 86,-16 -2,13 -2,16Z"/>
    <path data-fips-int="48355" data-name="Nueces County" d="M2495,2744l-8,-2 4,-14 8,5ZM2507,2700l22,-26 2,-9 8,2 -10,10 -21,37 -9,18 1,-20ZM2465,2703l3,15 5,-5 -1,-8 15,4 -6,5 -7,19 1,6 -7,10 -136,4 -13,-18 -14,-5 1,-75 34,-32 -5,7 3,9 8,-2 4,7 12,2 15,12 13,-6 5,11 13,-2 14,6 3,4 17,1 7,-5 -1,16 7,14Z"/>
    <path data-fips-int="48057" data-name="Calhoun County" d="M2652,2528l16,-11 23,-5 7,-19 8,9 -13,15 -29,16 -29,20 -27,23 -19,20 2,-8 2,-6 6,-10 -4,-8 6,-5 23,-3 18,-20ZM2720,2410l1,10 -9,2 -1,-7 -8,-4ZM2601,2481l-6,6 -8,-11 -13,-11 -5,-20 -6,-4 20,-15 34,-11 15,-10 14,18 0,13 24,12 9,12 -19,7 10,5 3,-6 11,-4 20,18 -42,22 -22,13 -9,-1 -9,-16 0,-5 -10,-1 -2,-8ZM2662,2422l-9,-7 6,-8 -5,-3 1,-1 37,-2 6,12 -3,7 12,7 -23,14 7,-7 -3,-12 -9,8 -9,-12Z"/>
  </g>
  <g class="cities">
    <circle r="3" cx="295.7" cy="207.7"/>
    <text x="295.7" y="207.7">Houston</text>
    <circle r="3" cx="215.2" cy="220.1"/>
    <text x="215.2" y="220.1">San Antonio</text>
    <circle r="3" cx="255.8" cy="119.1"/>
    <text x="255.8" y="119.1">Dallas</text>
  </g>
</svg>