<?xml version="1.0" encoding="utf-8"?>
<!DOCTYPE svg PUBLIC "-//W3C//DTD SVG 1.1//EN" "http://www.w3.org/Graphics/SVG/1.1/DTD/svg11.dtd">
<svg version="1.1" xmlns="http://www.w3.org/2000/svg" width="350" height="335" viewBox="0 0 350 335">
  <path class="state" transform="scale(0.1)" d="M3151,1683l3,0 7,2 10,3 81,-24 -1,-3 0,NaN -60,NaN 5,6 5,5 -4,-8 4,-14 1,-10 0,-3 -1,-1 -4,-5 0,-2 4,-12 0,NaN -2351,NaN 1474,NaN 2,1 36,34 2,0 2,0 3,1 0,2 2,0 1,1 5,4 2,0 2,0 -2,0 2,0 0,NaN 592,NaN -266,NaN 559,NaN 1,2 5,2 2,-10 2,-1 -5,-15 3,-3 0,-2 -2,-1 -3,NaN -928,NaN -15,NaN 135,NaN -2,-27 28,-64 7,2 -30,NaN -574,NaN 0,NaN 1146,NaN -2,-1 0,-2 -3,-1 -3,-2 -2,NaN -2027,NaN 18,NaN 1678,NaN 0,13 -2,1 0,5 0,11 4,11 5,13 0,3 3,15 12,NaN 459,NaN 143,NaN 45,52 -2,30 23,37 22,29 -3,71 -17,48 -23,31 8,42 -15,33 15,24 3,0 5,55 -36,59 0,2 -20,16 23,39 -60,7 -68,35 -5,1 -56,29 -45,35 26,-37 47,-16 0,-1 3,-5 -3,5 3,-5 0,-3 -25,-5 -53,18 18,-35 2,-35 -33,1 -29,24 -46,-27 0,3 8,2 8,16 14,3 1,3 -6,41 30,13 3,59 -38,32 -24,3 -1,28 1,8 4,0 -4,0 -1,-8 5,5 -55,60 -37,20 -40,25 -68,16 -30,36 2,0 0,-20 -37,19 2,-3 -5,-29 -35,19 0,-9 -17,0 -10,-10 7,30 -38,-9 -3,0 -2,-4 -2,-15 -23,-4 -2,0 0,2 0,3 0,2 15,33 25,8 30,38 -60,32 -1,1 -15,-25 -34,-13 10,2 0,38 -1,13 -4,16 -5,9 -3,0 -2,3 -5,4 -3,4 -2,2 -3,5 -28,-19 -57,42 -1,0 -4,-1 -1,-2 1,2 18,27 2,1 3,-7 37,-37 0,24 -28,38 -14,27 -13,-16 -68,10 3,1 0,2 29,0 15,35 20,6 -19,40 -18,68 -27,17 4,-31 -19,19 -28,-5 -23,17 -2,0 -2,2 -1,-2 1,2 2,-2 2,0 63,15 25,-11 -7,44 -5,26 -21,17 0,3 -2,37 27,27 6,44 7,24 -3,19 3,0 0,3 -5,10 2,0 11,0 2,0 27,89 26,8 -2,3 2,-3 0,9 -2,0 -1,-3 1,3 2,0 -8,21 1,0 17,-18 5,24 -38,0 -22,35 -40,-13 -51,-43 -42,-6 0,-3 0,3 -105,-3 -21,-25 -67,-27 -1,0 -24,6 -35,-38 -60,-13 -38,-49 -30,-84 -45,-46 -1,-73 -12,0 -5,-94 -52,-22 -43,-42 -15,-57 -20,-5 -20,-42 -33,-15 -22,-24 -28,-93 -25,-21 -15,-51 -20,-25 -8,-51 -28,-25 -7,-23 -55,-38 -11,-27 -49,-19 0,-30 -16,11 -27,-55 -88,-3 -98,-8 -45,-24 -18,33 -77,6 -33,64 -10,48 -19,31 -44,46 -12,32 -82,-19 -30,-36 -43,-8 -18,-24 -53,-14 -42,-27 -10,-29 -35,-13 -41,-35 -14,-44 -26,-40 1,-81 -41,-62 -2,-38 -26,-36 -57,-54 -47,-19 -40,-43 -8,-27 -41,-26 -24,-41 -31,-29 -55,-30 -27,-63 -36,-21 -37,-36 8,-40 157,8 271,13 224,9 12,0 165,6 66,2 0,-25 4,-131 3,-130 6,-128 5,-131 5,-144 4,-129 3,-130 3,-130 5,-129 4,-132 209,4 130,4 128,0 130,0 131,0 0,132 0,132 0,129 0,130 0,55 20,-4 55,58 55,-4 18,6 10,-26 37,35 5,37 58,0 50,25 40,-9 27,28 15,-8 11,-20 52,11 20,33 33,5 -7,29 25,9 47,-41 23,24 27,-4 28,29 15,-21 32,-4 -5,30 30,16 33,-64 21,29 57,0 63,35 50,-15 2,-15 53,-13 25,5 60,-32 25,17 48,-3 18,-25 123,71 39,3 50,38 58,-15 30,9 3,84 5,116 5,56 5,90 7,119 6,4 49,50 3,NaN -280,NaN -1,2 0,2 11,0 2,NaN -283,NaN 7,3 3,NaN -1621,NaN -4,NaN 1585,NaN -1,-2 0,-8 0,-1 0,-5 78,-14 12,-2 9,NaN -1744,NaN -4,-2 -5,-3 -1,0 -12,5 -2,0 -3,6 -5,-3 -2,0 -6,3 -7,NaN 1953,NaN -30,NaN 0,NaN -270,NaN -46,27 -63,54 0,-2 1,-5 4,-6 55,-51 3,NaN 343,NaN 8,9 -2,8 3,0 22,NaN 156,NaN -6,-6Z"/>
  <g class="counties" transform="scale(0.1)">
    <path data-fips-int="48001" data-name="Anderson County" d="M2956,1531l-95,19 -21,13 5,-23 -18,-11 -2,-22 -23,-13 0,-1 -5,-5 -2,0 -8,-3 -10,-30 -4,0 -8,0 0,-18 -3,-8 -2,2 -2,0 -5,-2 0,-11 0,-2 158,-30 0,23Z"/>
    <path data-fips-int="48003" data-name="Andrews County" d="M1208,1275l-3,129 -19,0 -129,-3 -67,0 4,-131Z"/>
    <path data-fips-int="48005" data-name="Angelina County" d="M3038,1588l-2,-2 -2,-1 0,-2 -3,-1 -3,-2 -2,-3 33,-32 4,5 6,5 7,1 18,7 5,1 20,3 4,0 3,0 2,0 3,-3 0,3 0,-3ZM3151,1683l3,0 7,2 10,3 81,-24 -1,-3ZM3066,1644l3,6 0,9 17,7 17,1 16,4 10,3 5,3 10,5Z"/>
    <path data-fips-int="48009" data-name="Archer County" d="M2150,886l3,110 0,20 -133,2 0,-130Z"/>
    <path data-fips-int="48011" data-name="Armstrong County" d="M1496,488l-2,128 -93,0 -38,-1 3,-129Z"/>
    <path data-fips-int="48013" data-name="Atascosa County" d="M2174,2293l59,68 25,27 -62,54 0,-11 -121,2 -4,-132 0,-48Z"/>
    <path data-fips-int="48015" data-name="Austin County" d="M2688,2068l-1,1 -43,-40 -15,-23 0,-2 88,-17 33,9 2,-3 13,32ZM2688,2069l15,-1 29,49 16,6 22,10 5,0 15,-11 -5,-27Z"/>
    <path data-fips-int="48017" data-name="Bailey County" d="M1118,740l-3,144 -107,-3 5,-144Z"/>
    <path data-fips-int="48019" data-name="Bandera County" d="M1913,2142l-50,0 2,-82 105,1 71,35 35,18 -6,8 -30,39 -15,-19Z"/>
    <path data-fips-int="48021" data-name="Bastrop County" d="M2525,2006l-71,81 -2,0 -86,-81 40,-45 28,-62 2,0 8,3 66,42Z"/>
    <path data-fips-int="48023" data-name="Baylor County" d="M2020,888l0,130 -128,0 -2,-99 0,-3 0,-3 0,-24Z"/>
    <path data-fips-int="48025" data-name="Bee County" d="M2342,2423l15,21 2,6 3,5 34,10 5,20 43,18 5,0 -43,68 -7,11 -65,-13 -75,-144 24,-8Z"/>
    <path data-fips-int="48027" data-name="Bell County" d="M2452,1640l55,88 -48,30 -13,41 -84,-35 -48,-8 -21,-38 1,-11 122,-76 20,22Z"/>
    <path data-fips-int="48029" data-name="Bexar County" d="M2141,2106l14,1 33,2 -9,16 19,24 15,14 8,1 7,8 3,5 3,0 5,6 4,-1 0,-2 1,2 4,1 0,7 -4,5 -70,98 -103,-40 -1,-131 6,-8 5,0 25,-8 4,-2 1,0 0,2 14,-2 8,-2Z"/>
    <path data-fips-int="48031" data-name="Blanco County" d="M2184,1883l57,18 -12,20 -30,96 -30,30 -44,-59 -4,-108Z"/>
    <path data-fips-int="48033" data-name="Borden County" d="M1468,1278l-130,-1 1,-130 34,0 95,1 0,129Z"/>
    <path data-fips-int="48035" data-name="Bosque County" d="M2361,1367l35,10 -2,47 28,10 -15,14 29,26 11,3 2,24 -82,50 -21,-35 -20,12 -63,-102 35,-22Z"/>
    <path data-fips-int="48037" data-name="Bowie County" d="M3239,1016l-2,-6 -8,0 -2,-2 2,2 0,-2 -2,0 -1,0 -4,-1 -1,1 0,2 0,-2 0,2 -12,-3 -15,9 -2,2 0,5 0,4 -15,-1 -16,-3 -12,-2 -6,-3 -2,0 -22,3 -1,3 -2,0 -28,2 0,-2 -10,-11 -7,0 -7,-5 -5,-111 39,3 50,38 58,-15 30,9Z"/>
    <path data-fips-int="48041" data-name="Brazos County" d="M2753,1880l7,3 5,3 -5,2 -5,5 0,1 0,2 -8,19 -15,-13 -22,0 5,-11 -3,-8 -25,-27 -14,-11 -34,-16 -2,-19 28,-14 17,-38 36,-33 10,12 9,24Z"/>
    <path data-fips-int="48043" data-name="Brewster County" d="M1102,2009l63,54 -18,33 -77,6 -33,64 -10,48 -19,31 -44,46 -12,32 -82,-19 -30,-36 -43,-8 -18,-24 10,-343 95,-73Z"/>
    <path data-fips-int="48045" data-name="Briscoe County" d="M1494,616l35,0 0,129 -25,0 -105,-2 2,-127Z"/>
    <path data-fips-int="48047" data-name="Brooks County" d="M2229,2842l47,0 20,13 0,3 2,127 -89,0 -28,0 0,-79 -12,0 -16,-64Z"/>
    <path data-fips-int="48049" data-name="Brown County" d="M1983,1412l48,0 67,111 -23,3 -5,24 -54,38 -23,8 -1,0 -5,-2 -4,2 -18,-3 -2,1 0,-182Z"/>
    <path data-fips-int="48051" data-name="Burleson County" d="M2547,1858l-10,-3 87,-54 13,9 2,19 34,16 14,11 25,27 3,8 -5,11 -3,0 -12,4 -25,9 -2,0 2,0 -2,2 -9,4 -15,0 -19,8 -3,0 -5,0 -17,-6Z"/>
    <path data-fips-int="48053" data-name="Burnet County" d="M2314,1756l-33,35 -22,49 -18,61 -57,-18 -16,-24 5,-53 -7,0 8,-24 -18,-27 2,0 0,-34 135,-3Z"/>
    <path data-fips-int="48055" data-name="Caldwell County" d="M2323,2091l-5,-8 -9,-14 -5,-9 47,-42 15,-12 86,81Z"/>
    <path data-fips-int="48059" data-name="Callahan County" d="M1983,1412l-20,0 -110,0 0,-131 5,0 125,0Z"/>
    <path data-fips-int="48063" data-name="Camp County" d="M3051,1112l8,8 17,14 -106,6 -2,-28 0,-2 0,-2 0,-1 7,-7 6,-1 40,-13Z"/>
    <path data-fips-int="48065" data-name="Carson County" d="M1498,356l0,1 -2,131 -130,-2 2,-130 0,-2Z"/>
    <path data-fips-int="48067" data-name="Cass County" d="M3221,1010l0,-2 0,2 0,-2 1,-1 4,1 1,0 2,0 0,2 -2,-2 2,2 8,0 2,6 5,116 -150,8 -6,-114 28,-2 2,0 1,-3 22,-3 2,0 6,3 12,2 16,3 15,1 0,-4 0,-5 2,-2 15,-9Z"/>
    <path data-fips-int="48069" data-name="Castro County" d="M1270,742l-22,0 -108,-2 3,-129 87,2 43,0Z"/>
    <path data-fips-int="48073" data-name="Cherokee County" d="M2911,1440l0,-31 0,-23 -8,-16 118,-4 2,77 15,8 -2,7 -3,9 1,7ZM2990,1545l5,2 8,9 -2,8 3,0 22,13 33,-32 -3,0 -2,-2 0,-3 -10,-16 -6,-11Z"/>
    <path data-fips-int="48075" data-name="Childress County" d="M1760,618l0,55 0,75 -103,-3 0,-127Z"/>
    <path data-fips-int="48077" data-name="Clay County" d="M2259,869l2,125 -108,2 -3,-110 0,-75 11,-20 52,11 20,33 33,5Z"/>
    <path data-fips-int="48079" data-name="Cochran County" d="M1115,884l2,131 -114,-3 5,-131Z"/>
    <path data-fips-int="48081" data-name="Coke County" d="M1702,1528l-150,-2 2,-116 40,0 108,2Z"/>
    <path data-fips-int="48083" data-name="Coleman County" d="M1853,1412l110,0 0,182 -16,3 -12,13 -32,-19 -8,16 -33,-21 -27,-23 -3,0 1,-151Z"/>
    <path data-fips-int="48085" data-name="Collin County" d="M2657,1004l23,12 3,111 -56,2 -80,2 -2,-126Z"/>
    <path data-fips-int="48087" data-name="Collingsworth County" d="M1760,488l0,130 -103,0 -28,0 0,-130Z"/>
    <path data-fips-int="48089" data-name="Colorado County" d="M2688,2069l15,-1 29,49 16,6 -30,33 -13,35 -73,51 -2,0 -3,-5 25,-20 -62,-72 -23,-16 77,-100 43,40Z"/>
    <path data-fips-int="48091" data-name="Comal County" d="M2278,2101l-29,24 -51,24 -19,-24 9,-16 -33,-2 -14,-1 -8,-4 -8,2 -14,2 0,-2 58,-57 30,-30 70,55Z"/>
    <path data-fips-int="48093" data-name="Comanche County" d="M2213,1456l13,22 -76,50 -10,-13 -42,8 -67,-111 94,-57 58,95Z"/>
    <path data-fips-int="48095" data-name="Concho County" d="M1832,1563l3,0 27,23 0,121 -130,0 2,-146Z"/>
    <path data-fips-int="48097" data-name="Cooke County" d="M2514,843l5,161 -110,-2 -25,-2 -3,-143 28,29 15,-21 32,-4 -5,30 30,16Z"/>
    <path data-fips-int="48099" data-name="Coryell County" d="M2367,1551l49,80 -122,76 -71,-116 103,-63 20,-12Z"/>
    <path data-fips-int="48101" data-name="Cottle County" d="M1657,745l103,3 0,25 -11,-1 0,117 -117,0 2,-144Z"/>
    <path data-fips-int="48103" data-name="Crane County" d="M1098,1640l-6,-6 -4,-2 -5,-3 -1,0 -12,5 -2,0 -3,6 -5,-3 2,-106 113,3 1,167 -16,0 -3,0 -4,0 -1,0 -7,-15 0,-9 0,-6 -3,-4Z"/>
    <path data-fips-int="48105" data-name="Crockett County" d="M1210,1726l-30,-8 -20,-17 16,0 134,6 126,0 81,0 -3,113 0,125 -204,-3 5,-8 21,-6 -20,-22 22,-37 -15,-35 -13,-1 0,1 -17,-32Z"/>
    <path data-fips-int="48107" data-name="Crosby County" d="M1502,1018l-128,0 0,-130 130,1Z"/>
    <path data-fips-int="48109" data-name="Culberson County" d="M747,1418l-28,265 -213,124 17,-398Z"/>
    <path data-fips-int="48111" data-name="Dallam County" d="M1241,91l-1,133 -212,-5 4,-132Z"/>
    <path data-fips-int="48113" data-name="Dallas County" d="M2547,1131l80,-2 2,51 0,79 -127,3 -2,-130Z"/>
    <path data-fips-int="48115" data-name="Dawson County" d="M1338,1277l-128,-2 1,-130 32,0 96,2Z"/>
    <path data-fips-int="48117" data-name="Deaf Smith County" d="M1233,481l-3,132 -87,-2 -126,-3 3,-130Z"/>
    <path data-fips-int="48119" data-name="Delta County" d="M2850,973l28,7 47,19 0,1 -37,5 -43,13 -14,9 -9,-1 -4,1 -28,24 -3,-55 -2,-16 20,-8Z"/>
    <path data-fips-int="48121" data-name="Denton County" d="M2545,1005l2,126 -47,1 -91,0 0,-130 110,2Z"/>
    <path data-fips-int="48123" data-name="DeWitt County" d="M2534,2299l-72,62 -1,-3 -10,-6 -5,-2 -14,-6 -38,35 -48,-56 35,-33 95,-84 71,82Z"/>
    <path data-fips-int="48125" data-name="Dickens County" d="M1632,889l0,130 -130,-1 2,-129Z"/>
    <path data-fips-int="48127" data-name="Dimmit County" d="M1920,2566l-188,3 0,-135 185,2 3,0Z"/>
    <path data-fips-int="48129" data-name="Donley County" d="M1629,488l0,130 -100,-2 -35,0 2,-128Z"/>
    <path data-fips-int="48131" data-name="Duval County" d="M2199,2606l25,0 5,236 -76,0 0,-23 -73,-2 -4,-208Z"/>
    <path data-fips-int="48133" data-name="Eastland County" d="M2031,1412l-48,0 0,-131 5,0 130,-1 25,0 2,63 -20,12Z"/>
    <path data-fips-int="48135" data-name="Ector County" d="M1183,1534l-8,0 -113,-3 -9,0 4,-130 129,3Z"/>
    <path data-fips-int="48137" data-name="Edwards County" d="M1825,1945l-1,65 -55,-3 -20,111 10,26 -27,0 -151,0 1,-199 150,0Z"/>
    <path data-fips-int="48139" data-name="Ellis County" d="M2502,1262l127,-3 0,2 6,3 2,3 17,30 0,2 0,2 1,4 -3,5 0,2 -2,1 2,0 16,10 -126,78 -12,8 -38,-62 -1,-85Z"/>
    <path data-fips-int="48141" data-name="El Paso County" d="M242,1578l-55,-30 -27,-63 -36,-21 -37,-36 8,-40 157,8Z"/>
    <path data-fips-int="48143" data-name="Erath County" d="M2143,1280l101,-2 34,83 20,43 -35,22 -50,30 -30,-6 -58,-95 20,-12Z"/>
    <path data-fips-int="48145" data-name="Falls County" d="M2625,1655l-60,35 -58,38 -55,-88 117,-76Z"/>
    <path data-fips-int="48147" data-name="Fannin County" d="M2785,869l0,111 2,16 -107,20 -23,-12 -2,-97 50,-15 2,-15 53,-13Z"/>
    <path data-fips-int="48149" data-name="Fayette County" d="M2629,2004l0,2 15,23 -77,100 -68,4 -47,-46 2,0 71,-81 2,0 57,-34 28,-1Z"/>
    <path data-fips-int="48151" data-name="Fisher County" d="M1632,1148l93,2 -1,130 -130,-2 3,-130Z"/>
    <path data-fips-int="48153" data-name="Floyd County" d="M1504,745l0,144 -130,-1 2,-145 23,0Z"/>
    <path data-fips-int="48155" data-name="Foard County" d="M1812,894l-2,-2 -50,-3 -11,0 0,-117 11,1 50,34 62,16 18,-10 0,76 0,24 -25,-13Z"/>
    <path data-fips-int="48157" data-name="Fort Bend County" d="M2812,2204l-17,-22 -15,-14 5,-19 0,-2 -7,-11 -3,-3 -5,0 5,0 15,-11 -5,-27 51,-21 107,57 -7,41 -25,3 -11,34 -5,9 -7,2 -23,-8 -27,19Z"/>
    <path data-fips-int="48159" data-name="Franklin County" d="M2975,1100l-7,7 0,1 0,2 0,2 -40,12 -3,-124 45,-6Z"/>
    <path data-fips-int="48161" data-name="Freestone County" d="M2753,1429l5,2 2,0 2,-2 3,8 0,18 8,0 4,0 10,30 8,3 2,0 5,5 0,1 23,13 2,22 -112,65 -70,-112 108,-69 0,3 0,2Z"/>
    <path data-fips-int="48163" data-name="Frio County" d="M2071,2301l4,132 -155,3 -3,0 -4,-133Z"/>
    <path data-fips-int="48165" data-name="Gaines County" d="M1115,1143l96,2 -1,130 -2,0 -214,-5 3,-130Z"/>
    <path data-fips-int="48169" data-name="Garza County" d="M1502,1147l-34,1 -95,-1 1,-129 128,0Z"/>
    <path data-fips-int="48171" data-name="Gillespie County" d="M2026,1882l95,-2 4,108 -87,2 -96,1 -2,-46 0,-63Z"/>
    <path data-fips-int="48173" data-name="Glasscock County" d="M1443,1409l-2,128 -130,0 4,-130 19,0Z"/>
    <path data-fips-int="48175" data-name="Goliad County" d="M2342,2422l52,-43 38,-35 14,6 5,2 10,6 1,3 2,3 27,-1 9,21 0,58 2,2 0,1 2,5 -2,0 2,3 -55,50 -5,0 -43,-18 -5,-20 -34,-10 -3,-5 -2,-6Z"/>
    <path data-fips-int="48177" data-name="Gonzales County" d="M2382,2134l70,-47 47,46 -15,14 -8,59 -95,84 -30,-32 -30,-46 51,-83 5,4 2,0 2,0 -2,0 2,0Z"/>
    <path data-fips-int="48179" data-name="Gray County" d="M1629,359l0,129 -133,0 2,-131Z"/>
    <path data-fips-int="48181" data-name="Grayson County" d="M2655,907l2,97 -112,1 -26,-1 -5,-161 21,29 57,0Z"/>
    <path data-fips-int="48183" data-name="Gregg County" d="M3086,1208l5,69 27,6 -10,10 -90,1 -2,-47 67,-39 1,0Z"/>
    <path data-fips-int="48185" data-name="Grimes County" d="M2737,1806l1,-21 -1,-2 0,-8 0,-1 0,-5 78,-14 12,68 11,114 -75,10 -16,-32 8,-19 0,-2 0,-1 5,-5 5,-2 -5,-3Z"/>
    <path data-fips-int="48187" data-name="Guadalupe County" d="M2323,2090l1,0 2,1 36,34 2,0 2,0 3,1 0,2 2,0 1,1 -51,83 -72,2 -5,-18 0,-1 4,-5 0,-7 -4,-1 -1,-2 0,2 -4,1 -5,-6 -3,0 -3,-5 -7,-8 -8,-1 -15,-14 51,-24 29,-24 31,-32 9,14Z"/>
    <path data-fips-int="48189" data-name="Hale County" d="M1270,742l106,1 -2,145 -128,0 2,-146Z"/>
    <path data-fips-int="48191" data-name="Hall County" d="M1629,618l28,0 0,127 -23,0 -105,0 0,-129Z"/>
    <path data-fips-int="48193" data-name="Hamilton County" d="M2326,1528l-103,63 -24,13 -49,-76 76,-50 -13,-22 50,-30Z"/>
    <path data-fips-int="48195" data-name="Hansford County" d="M1499,95l0,130 -130,0 2,-130Z"/>
    <path data-fips-int="48197" data-name="Hardeman County" d="M1890,723l0,90 -18,10 -62,-16 -50,-34 0,-25 0,-75 20,-4 55,58Z"/>
    <path data-fips-int="48199" data-name="Hardin County" d="M3196,1964l-4,-1 -5,-2 -38,3 -40,-111 49,-3 -2,-11 120,-5 0,10Z"/>
    <path data-fips-int="48203" data-name="Harrison County" d="M3146,1286l-3,-3 -2,0 -23,0 -27,-6 -5,-69 -3,-41 50,27 33,-3 31,-17 5,9 0,2 -1,-2 1,2 27,-8 8,4 12,7 5,90 -75,23 -2,0 -26,-12Z"/>
    <path data-fips-int="48205" data-name="Hartley County" d="M1240,224l-4,127 -213,-3 5,-129Z"/>
    <path data-fips-int="48207" data-name="Haskell County" d="M1893,1150l-35,0 -94,0 0,-131 128,-1Z"/>
    <path data-fips-int="48209" data-name="Hays County" d="M2309,2069l-31,32 -9,-29 -70,-55 30,-96 122,97 -47,42Z"/>
    <path data-fips-int="48211" data-name="Hemphill County" d="M1760,227l0,132 -131,0 2,-132Z"/>
    <path data-fips-int="48213" data-name="Henderson County" d="M2901,1328l-6,14 5,8 1,3 -1,5 3,12 8,16 -158,30 0,-3 -8,-19 -13,-24 -2,0 -10,-12 -3,-3 -5,-5 -15,-7 -2,0 -5,-12 -2,0 -1,0 -19,-8 -16,-10 93,-1 158,-7Z"/>
    <path data-fips-int="48215" data-name="Hidalgo County" d="M2298,2985l8,50 -12,49 38,1 0,27 2,83 0,3 -105,-3 -21,-25 -67,-27 68,-158Z"/>
    <path data-fips-int="48217" data-name="Hill County" d="M2542,1401l47,77 -54,34 -26,-48 -60,37 -2,-24 -11,-3 -29,-26 15,-14 -28,-10 2,-47 96,-30 38,62Z"/>
    <path data-fips-int="48219" data-name="Hockley County" d="M1115,884l131,4 0,130 -129,-3Z"/>
    <path data-fips-int="48221" data-name="Hood County" d="M2357,1264l2,70 -41,1 -40,26 -34,-83 0,-14Z"/>
    <path data-fips-int="48223" data-name="Hopkins County" d="M2925,1000l3,124 -87,3 -49,-3 -2,-71 0,-2 28,-24 4,-1 9,1 14,-9 43,-13Z"/>
    <path data-fips-int="48225" data-name="Houston County" d="M3038,1588l-117,103 -45,41 -15,-17 -3,-27 -3,0 -17,-3 0,-14 3,-4 4,-3 1,-27 15,-20 -8,-21 -15,-22 3,-7 -1,-4 21,-13 95,-19Z"/>
    <path data-fips-int="48227" data-name="Howard County" d="M1468,1278l-5,131 -20,0 -109,-2 4,-130Z"/>
    <path data-fips-int="48229" data-name="Hudspeth County" d="M523,1409l-17,398 -16,10 -57,-54 -47,-19 -40,-43 -8,-27 -41,-26 -24,-41 -31,-29 10,-182Z"/>
    <path data-fips-int="48231" data-name="Hunt County" d="M2765,1151l3,13 7,3 -37,2 -53,0 -2,-42 -3,-111 107,-20 3,55 0,2 2,71 -22,0Z"/>
    <path data-fips-int="48233" data-name="Hutchinson County" d="M1499,225l-1,131 -130,-2 1,-129Z"/>
    <path data-fips-int="48235" data-name="Irion County" d="M1586,1707l-69,0 -81,0 5,-133 145,3Z"/>
    <path data-fips-int="48237" data-name="Jack County" d="M2278,1004l1,128 -33,0 -93,0 0,-116 0,-20 108,-2Z"/>
    <path data-fips-int="48239" data-name="Jackson County" d="M2630,2242l2,0 90,83 -2,86 -17,0 -10,-10 -38,2 -23,-4 -2,0 -10,-22 -5,-8 4,-8 -24,-20 -11,-31 -27,-11 70,-62Z"/>
    <path data-fips-int="48241" data-name="Jasper County" d="M3271,1659l0,-1 5,-7 31,-7 15,57 2,214 -53,3 3,-3 0,-2 -2,-1ZM3271,1856l5,-12 0,-10 0,-3 1,-29 0,-4 -3,-5 -2,0 2,1 -2,0 0,-1 -3,-7 -25,-31 0,-8 -8,-34 -7,-3 0,-3Z"/>
    <path data-fips-int="48243" data-name="Jeff Davis County" d="M847,1790l37,30 -95,73 -38,-5 -261,-71 16,-10 213,-124Z"/>
    <path data-fips-int="48245" data-name="Jefferson County" d="M3264,1940l2,0 1,2 5,2 4,6 6,6 -5,7 0,1 62,29 5,33 0,2 -20,16 23,39 -60,7 -68,35 -7,-97 -20,0 -5,-67 5,2Z"/>
    <path data-fips-int="48247" data-name="Jim Hogg County" d="M2153,2842l16,64 12,0 0,79 -141,2 -2,-145 42,0 0,-25 73,2Z"/>
    <path data-fips-int="48249" data-name="Jim Wells County" d="M2318,2604l18,5 6,8 -1,2 0,4 -2,0 -35,32 0,75 -31,1 3,111 -47,0 -5,-236 90,-2 2,0Z"/>
    <path data-fips-int="48251" data-name="Johnson County" d="M2491,1262l1,85 -96,30 -35,-10 -2,-33 -2,-70 17,-2Z"/>
    <path data-fips-int="48253" data-name="Jones County" d="M1764,1150l94,0 0,131 -5,0 -129,-1 1,-130Z"/>
    <path data-fips-int="48255" data-name="Karnes County" d="M2326,2418l-43,-1 -25,-29 -25,-27 118,-103 30,32 -35,33 48,56 -52,43 -1,1Z"/>
    <path data-fips-int="48257" data-name="Kaufman County" d="M2738,1169l7,143 -93,1 -2,0 2,-1 0,-2 3,-5 -1,-4 0,-2 0,-2 -17,-30 -2,-3 -6,-3 0,-2 0,-79 56,-11Z"/>
    <path data-fips-int="48259" data-name="Kendall County" d="M2125,1988l44,59 -58,57 -1,0 -4,2 -25,8 -5,0 -35,-18 -3,-106Z"/>
    <path data-fips-int="48263" data-name="Kent County" d="M1632,1019l0,129 -35,0 -95,-1 0,-129Z"/>
    <path data-fips-int="48265" data-name="Kerr County" d="M2041,2096l-71,-35 -105,-1 -23,0 0,-50 -18,0 1,-65 115,0 2,46 96,-1Z"/>
    <path data-fips-int="48267" data-name="Kimble County" d="M1940,1945l-115,0 -93,0 0,-125 161,0 0,63 47,-1Z"/>
    <path data-fips-int="48269" data-name="King County" d="M1749,889l11,0 4,130 -132,0 0,-130Z"/>
    <path data-fips-int="48271" data-name="Kinney County" d="M1732,2144l0,160 -143,0 -28,-25 -7,-23 23,-33 4,-79Z"/>
    <path data-fips-int="48273" data-name="Kleberg County" d="M2464,2833l-3,0 -2,-27 28,-64 7,2ZM2331,2750l1,2 135,-3 -18,68 -27,17 4,-31 -19,19 -28,-5 -23,17 -2,0 -2,2 -1,-2 -22,12 -10,1 -6,2 -17,6 -20,-13 -3,-111 31,-1 19,9Z"/>
    <path data-fips-int="48275" data-name="Knox County" d="M1812,892l53,8 25,13 0,3 0,3 2,99 -128,1 -4,-130 50,3Z"/>
    <path data-fips-int="48277" data-name="Lamar County" d="M2918,851l7,148 -47,-19 -28,-7 -45,-1 -20,8 0,-111 60,-32 25,17Z"/>
    <path data-fips-int="48279" data-name="Lamb County" d="M1248,742l-2,146 -131,-4 3,-144 22,0Z"/>
    <path data-fips-int="48281" data-name="Lampasas County" d="M2294,1707l-1,11 -135,3 -32,-58 73,-59 24,-13Z"/>
    <path data-fips-int="48283" data-name="La Salle County" d="M2075,2433l1,176 -154,10 -2,-53 0,-130Z"/>
    <path data-fips-int="48285" data-name="Lavaca County" d="M2567,2129l23,16 62,72 -25,20 -70,62 -10,-11 -71,-82 8,-59 15,-14Z"/>
    <path data-fips-int="48287" data-name="Lee County" d="M2597,1923l3,0 17,6 5,0 -27,24 2,5 -13,14 -57,34 -2,0 -15,-62 -66,-42 45,-16 48,-31Z"/>
    <path data-fips-int="48289" data-name="Leon County" d="M2693,1607l22,-13 112,-65 18,11 -5,23 1,4 -3,7 15,22 8,21 -15,20 -1,27 -4,3 -3,4 0,14 -53,1Z"/>
    <path data-fips-int="48291" data-name="Liberty County" d="M3109,1853l40,111 38,-3 5,67 -138,8 -1,0 -2,-5 -2,-5 2,-8 2,-4 -34,-61 -20,-52 79,-48Z"/>
    <path data-fips-int="48293" data-name="Limestone County" d="M2695,1607l0,3 -70,45 -56,-91 -34,-52 54,-34 56,4 70,112Z"/>
    <path data-fips-int="48295" data-name="Lipscomb County" d="M1760,227l-129,0 -2,0 0,-132 131,0Z"/>
    <path data-fips-int="48297" data-name="Live Oak County" d="M2283,2417l-24,8 75,144 -21,23 1,9 2,3 -2,0 -90,2 -25,0 -3,-164 62,-54Z"/>
    <path data-fips-int="48299" data-name="Llano County" d="M2156,1755l18,27 -8,24 7,0 -5,53 16,24 -63,-3 -95,2 -1,-126Z"/>
    <path data-fips-int="48301" data-name="Loving County" d="M924,1424l-5,104 -69,-2 -1,0 -2,-3 -3,-8 0,-2 -22,-16 -1,0 1,0 -1,0 -5,0 -4,-1 -1,-2 0,-1 -7,-5 -5,-24 -17,-5 -23,-41Z"/>
    <path data-fips-int="48303" data-name="Lubbock County" d="M1374,1018l-128,0 0,-130 128,0Z"/>
    <path data-fips-int="48305" data-name="Lynn County" d="M1373,1147l-34,0 -96,-2 3,-127 128,0Z"/>
    <path data-fips-int="48307" data-name="McCulloch County" d="M1895,1607l8,-16 32,19 12,-13 16,-3 2,-1 18,3 4,-2 5,2 1,154 -100,2 -31,0 0,-45 0,-121Z"/>
    <path data-fips-int="48309" data-name="McLennan County" d="M2416,1631l-49,-80 82,-50 60,-37 26,48 34,52 -117,76 -16,13Z"/>
    <path data-fips-int="48311" data-name="McMullen County" d="M2196,2442l3,164 -123,3 -1,-176 121,-2Z"/>
    <path data-fips-int="48313" data-name="Madison County" d="M2737,1766l0,-5 -9,-24 -10,-12 67,-39 53,-1 17,3 3,0 3,27 15,17 -1,7 -2,1 -13,0 -2,0Z"/>
    <path data-fips-int="48315" data-name="Marion County" d="M3081,1143l0,-1 13,-2 150,-8 5,56 -12,-7 -8,-4 -27,8 -1,-2 1,2 0,-2 -5,-9 -31,17 -33,3 -50,-27Z"/>
    <path data-fips-int="48317" data-name="Martin County" d="M1338,1277l-4,130 -19,0 -110,-3 3,-129 2,0Z"/>
    <path data-fips-int="48319" data-name="Mason County" d="M1993,1750l32,6 1,126 -86,0 -47,1 0,-63 0,-68Z"/>
    <path data-fips-int="48323" data-name="Maverick County" d="M1732,2304l0,130 0,135 -25,0 -22,-24 -28,-93 -25,-21 -15,-51 -20,-25 -8,-51Z"/>
    <path data-fips-int="48325" data-name="Medina County" d="M2071,2253l0,48 -158,2 0,-161 112,0 15,19 30,-39Z"/>
    <path data-fips-int="48327" data-name="Menard County" d="M1893,1820l-161,0 0,-113 130,0 0,45 31,0Z"/>
    <path data-fips-int="48329" data-name="Midland County" d="M1315,1407l-4,130 -128,-3 3,-130 19,0Z"/>
    <path data-fips-int="48331" data-name="Milam County" d="M2624,1801l-87,54 -48,31 -30,-82 -13,-5 13,-41 48,-30 58,-38 19,44 35,41Z"/>
    <path data-fips-int="48333" data-name="Mills County" d="M2150,1528l49,76 -73,59 -35,-53 -50,-9 -25,-13 54,-38 5,-24 23,-3 42,-8Z"/>
    <path data-fips-int="48335" data-name="Mitchell County" d="M1594,1410l-40,0 -91,-1 5,-131 0,-1 126,1Z"/>
    <path data-fips-int="48337" data-name="Montague County" d="M2381,857l3,143 -106,4 -17,-10 -2,-125 25,9 47,-41 23,24Z"/>
    <path data-fips-int="48339" data-name="Montgomery County" d="M2948,1855l0,1 12,26 39,19 20,52 -39,43 -49,-21 -6,2 -24,-19 -25,19 -6,2 -22,4 -8,0 -2,-46 -11,-114 58,33Z"/>
    <path data-fips-int="48341" data-name="Moore County" d="M1369,225l-1,129 0,2 -132,-2 0,-3 4,-127Z"/>
    <path data-fips-int="48343" data-name="Morris County" d="M3053,1002l3,10 8,-4 7,5 7,0 10,11 0,2 6,114 -13,2 -5,-8 -17,-14 -8,-8 -2,-113Z"/>
    <path data-fips-int="48345" data-name="Motley County" d="M1634,745l-2,144 -128,0 0,-144 25,0Z"/>
    <path data-fips-int="48347" data-name="Nacogdoches County" d="M3038,1478l-4,-4 -1,-7 3,-9 2,-7 121,-4ZM3171,1604l20,14 5,6 5,5 -4,-8 4,-14 1,-10 0,-3 -1,-1 -4,-5 0,-2 4,-12ZM3036,1512l2,1 6,11 10,16 0,3 2,2 3,0 4,5 6,5 7,1 18,7 5,1 20,3 4,0 3,0 2,0 3,-3 0,3 0,-3Z"/>
    <path data-fips-int="48349" data-name="Navarro County" d="M2687,1331l1,0 2,0 5,12 2,0 15,7 5,5 3,3 10,12 2,0 13,24 8,19 -108,69 -56,-4 -47,-77 126,-78Z"/>
    <path data-fips-int="48351" data-name="Newton County" d="M3372,1912l-48,3 -2,-214 -15,-57 78,-10 22,29 -3,71 -17,48 -23,31 8,42 -15,33Z"/>
    <path data-fips-int="48353" data-name="Nolan County" d="M1724,1412l-22,0 -108,-2 0,-132 130,2Z"/>
    <path data-fips-int="48357" data-name="Ochiltree County" d="M1629,95l0,132 -130,-2 0,-130Z"/>
    <path data-fips-int="48359" data-name="Oldham County" d="M1236,354l-3,127 -213,-3 3,-130 213,3Z"/>
    <path data-fips-int="48361" data-name="Orange County" d="M3372,1912l3,0 5,55 -36,59 -5,-33 -62,-29 0,-1 5,-7 -6,-6 -4,-6 2,-10 2,-1 -5,-15 53,-3Z"/>
    <path data-fips-int="48363" data-name="Palo Pinto County" d="M2244,1264l0,14 -101,2 -25,0 -2,-130 37,0 0,-18 93,0Z"/>
    <path data-fips-int="48365" data-name="Panola County" d="M3146,1288l5,1 26,12 2,0 75,-23 7,119 6,4 -124,8 -24,1 4,-73 20,-54Z"/>
    <path data-fips-int="48367" data-name="Parker County" d="M2279,1132l93,0 2,130 -17,2 -113,0 2,-132Z"/>
    <path data-fips-int="48369" data-name="Parmer County" d="M1143,611l-3,129 -22,0 -105,-3 4,-129Z"/>
    <path data-fips-int="48371" data-name="Pecos County" d="M1293,1802l17,32 -95,-3 0,17 -52,-1 -1,95 -59,-2 -1,69 -218,-189 -37,-30 152,-177ZM1135,1663l7,4 3,4 0,6 0,9 7,15 1,0 4,0 3,0 20,17Z"/>
    <path data-fips-int="48373" data-name="Polk County" d="M3086,1666l17,1 16,4 10,3 5,3 10,5 -25,14 37,143 2,11 -49,3 -31,0 5,-11 -47,-13 -2,-22 -26,0 -7,-38 -16,-10 68,-73 16,-27Z"/>
    <path data-fips-int="48375" data-name="Potter County" d="M1368,356l-2,130 -133,-5 3,-127Z"/>
    <path data-fips-int="48377" data-name="Presidio County" d="M789,1893l-10,343 -53,-14 -42,-27 -10,-29 -35,-13 -41,-35 -14,-44 -26,-40 1,-81 -41,-62 -2,-38 -26,-36 261,71Z"/>
    <path data-fips-int="48379" data-name="Rains County" d="M2763,1151l7,-27 22,0 49,3 9,70 -23,-6 -10,-5 0,-1 -4,0Z"/>
    <path data-fips-int="48381" data-name="Randall County" d="M1366,486l-3,129 -90,-2 -43,0 3,-132Z"/>
    <path data-fips-int="48383" data-name="Reagan County" d="M1436,1707l-126,0 1,-170 130,0 0,27 0,10Z"/>
    <path data-fips-int="48385" data-name="Real County" d="M1865,2060l-2,82 -104,2 -10,-26 20,-111 55,3 18,0 0,50Z"/>
    <path data-fips-int="48387" data-name="Red River County" d="M2975,992l-5,2 -45,6 0,-1 -7,-148 18,-25 123,71 5,111 -8,4 -3,-10 -4,-3 -21,-10Z"/>
    <path data-fips-int="48389" data-name="Reeves County" d="M989,1610l10,3 -152,177 -128,-107 28,-265 12,0 23,41 17,5 5,24 7,5 0,1 1,2 4,1 5,0 1,0 -1,0 1,0 22,16 0,2 3,8 2,3 1,0Z"/>
    <path data-fips-int="48391" data-name="Refugio County" d="M2567,2469l7,-4 16,15 10,2 0,38 -85,16 19,19 10,2 -57,42 -1,0 -4,-1 -1,-2 -15,-17 -2,0 2,0 -2,3 -5,-2 -17,4 -6,-4 0,-1 -5,-5 -25,-3 43,-68 55,-50 1,0 2,0 2,0Z"/>
    <path data-fips-int="48393" data-name="Roberts County" d="M1629,227l2,0 -2,132 -131,-2 0,-1 1,-131Z"/>
    <path data-fips-int="48395" data-name="Robertson County" d="M2718,1725l-36,33 -17,38 -28,14 -13,-9 -5,-26 -35,-41 -19,-44 60,-35 70,-45 0,13 -2,1 0,5 0,11 4,11 5,13 0,3 3,15Z"/>
    <path data-fips-int="48397" data-name="Rockwall County" d="M2683,1127l2,42 -56,11 -2,-51Z"/>
    <path data-fips-int="48399" data-name="Runnels County" d="M1833,1412l-1,151 -98,-2 -32,0 0,-33 0,-116 22,0Z"/>
    <path data-fips-int="48401" data-name="Rusk County" d="M3141,1283l2,0 -20,54 -4,73 24,-1 6,20 10,18 -121,4 -15,-8 -2,-77 -3,-72 90,-1 10,-10Z"/>
    <path data-fips-int="48403" data-name="Sabine County" d="M3307,1512l12,3 45,52 -2,30 23,37 -78,10 -31,7 -5,-50 0,-31 11,-49Z"/>
    <path data-fips-int="48405" data-name="San Augustine County" d="M3182,1510l0,-3 -6,-6 73,6 33,14 -11,49 0,31 5,50 -5,7Z"/>
    <path data-fips-int="48407" data-name="San Jacinto County" d="M2985,1759l16,10 7,38 26,0 2,22 47,13 -5,11 -79,48 -39,-19 -12,-26 0,-1 3,-105 22,-14Z"/>
    <path data-fips-int="48411" data-name="San Saba County" d="M2016,1588l25,13 50,9 35,53 32,58 0,34 -2,0 -131,1 -32,-6 -1,-154 1,0Z"/>
    <path data-fips-int="48413" data-name="Schleicher County" d="M1732,1707l0,113 -218,0 3,-113 69,0Z"/>
    <path data-fips-int="48415" data-name="Scurry County" d="M1597,1148l-3,130 -126,-1 0,-129 34,-1Z"/>
    <path data-fips-int="48417" data-name="Shackelford County" d="M1987,1150l1,131 -5,0 -125,0 0,-131 35,0Z"/>
    <path data-fips-int="48419" data-name="Shelby County" d="M3161,1450l-2,-3 -10,-18 -6,-20 124,-8 49,50ZM3172,1488l4,13 73,6 33,14Z"/>
    <path data-fips-int="48421" data-name="Sherman County" d="M1371,95l-2,130 -129,-1 1,-133Z"/>
    <path data-fips-int="48423" data-name="Smith County" d="M2903,1328l0,-23 -38,-35 -4,-62 2,0 12,10 1,2 -1,-2 1,2 5,4 20,7 2,0 22,0 18,8 23,8 7,-8 43,8 2,47 3,72 -118,4 -3,-12 1,-5 -1,-3 -5,-8Z"/>
    <path data-fips-int="48425" data-name="Somervell County" d="M2359,1334l2,33 -63,37 -20,-43 40,-26Z"/>
    <path data-fips-int="48427" data-name="Starr County" d="M2181,2985l28,0 -68,158 -1,0 -24,6 -35,-38 -60,-13 -38,-49 37,-24 20,-38Z"/>
    <path data-fips-int="48429" data-name="Stephens County" d="M2116,1150l2,130 -130,1 -1,-131 36,0Z"/>
    <path data-fips-int="48431" data-name="Sterling County" d="M1463,1409l91,1 -2,116 -10,38 -101,0 0,-27 2,-128Z"/>
    <path data-fips-int="48433" data-name="Stonewall County" d="M1764,1019l0,131 -39,0 -93,-2 0,-129Z"/>
    <path data-fips-int="48435" data-name="Sutton County" d="M1732,1945l-150,0 -68,0 0,-125 218,0Z"/>
    <path data-fips-int="48437" data-name="Swisher County" d="M1363,615l38,1 -2,127 -23,0 -106,-1 3,-129Z"/>
    <path data-fips-int="48439" data-name="Tarrant County" d="M2372,1132l37,0 91,0 2,130 -11,0 -117,0Z"/>
    <path data-fips-int="48441" data-name="Taylor County" d="M1853,1281l0,131 -20,0 -109,0 0,-132Z"/>
    <path data-fips-int="48443" data-name="Terrell County" d="M1323,1834l15,35 -22,37 20,22 -21,6 -5,8 -2,153 -98,-8 -45,-24 -63,-54 1,-69 59,2 1,-95 52,1 0,-17 95,3 0,-1Z"/>
    <path data-fips-int="48445" data-name="Terry County" d="M1243,1145l-32,0 -96,-2 2,-128 129,3Z"/>
    <path data-fips-int="48447" data-name="Throckmorton County" d="M2023,1150l-36,0 -94,0 -1,-132 128,0Z"/>
    <path data-fips-int="48449" data-name="Titus County" d="M2976,992l52,-3 21,10 2,113 -30,-26 -40,13 -6,1 -5,-106Z"/>
    <path data-fips-int="48451" data-name="Tom Green County" d="M1552,1526l150,2 0,33 32,0 -2,146 -146,0 0,-130 -145,-3 0,-10 101,0Z"/>
    <path data-fips-int="48453" data-name="Travis County" d="M2406,1883l11,5 9,5 8,6 -28,62 -40,45 -15,12 -122,-97 12,-20 18,-61 29,2 25,44 21,12 48,-23Z"/>
    <path data-fips-int="48455" data-name="Trinity County" d="M3066,1644l3,6 0,9 -16,27 -68,73 -12,-23 -22,14 -13,2 -3,-7 -14,-54 117,-103 1,9 -1,2 0,2 11,0Z"/>
    <path data-fips-int="48457" data-name="Tyler County" d="M3226,1698l3,9 0,3 7,3 8,34 0,8 25,31 3,7 0,1 2,0 -2,-1 2,0 3,5 0,4 -1,29 0,3 -120,5 -37,-143 25,-14Z"/>
    <path data-fips-int="48459" data-name="Upshur County" d="M3081,1145l2,22 3,41 -2,0 -1,0 -67,39 -43,-8 -3,-99 106,-6 5,8Z"/>
    <path data-fips-int="48461" data-name="Upton County" d="M1310,1707l-134,-6 -1,-167 8,0 128,3Z"/>
    <path data-fips-int="48463" data-name="Uvalde County" d="M1759,2144l104,-2 50,0 0,161 -181,1 0,-160Z"/>
    <path data-fips-int="48465" data-name="Val Verde County" d="M1514,1945l68,0 -1,199 -4,79 -23,33 -55,-38 -11,-27 -49,-19 0,-30 -16,11 -27,-55 -88,-3 2,-153Z"/>
    <path data-fips-int="48467" data-name="Van Zandt County" d="M2812,1185l1,0 4,0 0,1 10,5 23,6 0,2 13,9 -2,0 4,62 38,35 -158,7 -7,-143 37,-2Z"/>
    <path data-fips-int="48469" data-name="Victoria County" d="M2534,2298l13,-10 10,11 27,11 11,31 24,20 -4,8 5,8 10,22 0,2 0,3 -51,24 -12,19 7,18ZM2534,2299l-72,62 2,3 27,-1 9,21 0,58 2,2 0,1 2,5 -2,0 2,3 1,0 2,0 2,0Z"/>
    <path data-fips-int="48471" data-name="Walker County" d="M2856,1739l2,1 2,0 13,0 2,-1 1,-7 45,-41 14,54 3,7 13,-2 -3,105 -63,1 -58,-33 -12,-68 12,-2Z"/>
    <path data-fips-int="48473" data-name="Waller County" d="M2767,2050l-2,-25 -13,-32 -4,-38 15,-8 75,-10 2,46 -9,4 -1,-2 -7,-6 -23,-13 36,108 -51,21Z"/>
    <path data-fips-int="48475" data-name="Ward County" d="M872,1531l-22,-5 69,2 134,3 9,0 -2,106 -2,0 -6,3Z"/>
    <path data-fips-int="48477" data-name="Washington County" d="M2710,1902l22,0 15,13 16,32 -15,8 4,38 -2,3 -33,-9 -88,17 -17,-33 -28,1 13,-14 -2,-5 27,-24 3,0 19,-8 15,0 9,-4 2,-2 -2,0 2,0 25,-9 12,-4Z"/>
    <path data-fips-int="48479" data-name="Webb County" d="M2076,2609l4,208 0,25 -42,0 -131,4 -12,0 -5,-94 -52,-22 -43,-42 -15,-57 -20,-5 -20,-42 -33,-15 25,0 188,-3 2,53Z"/>
    <path data-fips-int="48481" data-name="Wharton County" d="M2812,2206l26,25 -7,10 -26,28 -83,56 -90,-83 73,-51 13,-35 30,-33 22,10 5,0 3,3 7,11 0,2 -5,19 15,14Z"/>
    <path data-fips-int="48483" data-name="Wheeler County" d="M1760,359l0,129 -131,0 0,-129Z"/>
    <path data-fips-int="48485" data-name="Wichita County" d="M2150,811l0,75 -130,2 -2,-113 50,25 40,-9 27,28Z"/>
    <path data-fips-int="48487" data-name="Wilbarger County" d="M2018,775l2,113 -130,1 0,-76 0,-90 18,6 10,-26 37,35 5,37Z"/>
    <path data-fips-int="48491" data-name="Williamson County" d="M2489,1886l-45,16 -8,-3 -2,0 -8,-6 -9,-5 -11,-5 -24,-8 -48,23 -21,-12 -25,-44 -29,-2 22,-49 33,-35 48,8 84,35 13,5Z"/>
    <path data-fips-int="48493" data-name="Wilson County" d="M2249,2214l72,-2 30,46 -118,103 -59,-68 70,-98 0,1Z"/>
    <path data-fips-int="48495" data-name="Winkler County" d="M1057,1401l-4,130 -134,-3 5,-104 66,2 0,-25Z"/>
    <path data-fips-int="48497" data-name="Wise County" d="M2384,1000l25,2 0,130 -37,0 -93,0 -1,-128Z"/>
    <path data-fips-int="48499" data-name="Wood County" d="M2968,1112l2,28 3,99 -7,8 -23,-8 -18,-8 -22,0 -2,0 -20,-7 -5,-4 -1,-2 1,2 -1,-2 -12,-10 -13,-9 0,-2 -9,-70 87,-3Z"/>
    <path data-fips-int="48501" data-name="Yoakum County" d="M1115,1143l-118,-3 6,-128 114,3Z"/>
    <path data-fips-int="48503" data-name="Young County" d="M2153,1016l0,116 0,18 -37,0 -93,0 -3,-132Z"/>
    <path data-fips-int="48505" data-name="Zapata County" d="M2038,2842l2,145 -20,38 -37,24 -30,-84 -45,-46 -1,-73Z"/>
    <path data-fips-int="48507" data-name="Zavala County" d="M1913,2303l4,133 -185,-2 0,-130Z"/>
    <path data-fips-int="48039" data-name="Brazoria County" d="M2981,2126l17,10 0,1 -3,29 48,75 -24,3 -1,28 1,8 4,0 -4,0 -1,-8 5,5 -55,60 -37,20 -8,0 -38,-39 -25,-11 0,-1 -2,0 -15,-24 -2,-8 -1,-16 0,-2 -9,-15 7,-10 27,-19 23,8 7,-2 5,-9 11,-34 25,-3 7,-41Z"/>
    <path data-fips-int="48061" data-name="Cameron County" d="M2510,3192l2,-3 0,9 -2,0 -1,-3 1,3 2,0 -8,21 1,0 17,-18 5,24 -38,0 -22,35 -40,-13 -51,-43 -42,-6 0,-3 -2,-83 90,13 7,-6 0,-3 10,0 18,-24 2,0 27,89 26,8Z"/>
    <path data-fips-int="48071" data-name="Chambers County" d="M3068,2050l-2,0 -3,-3 -10,-11 1,0 138,-8 20,0 7,97 -5,1 -2,-11 -23,13 -25,-5 -53,18 18,-35 2,-35 -33,1 -29,24 0,-5 0,-1 0,1 0,-1Z"/>
    <path data-fips-int="48201" data-name="Harris County" d="M3069,2063l0,27 0,1 0,-1 0,1 0,5 -46,-27 0,3 8,2 8,16 14,3 1,3 -6,41 -19,5 -31,-6 -17,-10 -38,5 -107,-57 -36,-108 23,13 7,6 1,2 9,-4 8,0 22,-4 6,-2 25,-19 24,19 6,-2 49,21 39,-43 34,61 -2,4 -2,8 2,5 2,5 10,11 3,3Z"/>
    <path data-fips-int="48261" data-name="Kenedy County" d="M2437,2882l-5,26 -21,17 0,3 -2,37 27,27 6,44 -136,-1 -8,-50 -2,-127 0,-3 17,-6 6,-2 10,-1 22,-12 1,2 2,-2 2,0 63,15 25,-11Z"/>
    <path data-fips-int="48321" data-name="Matagorda County" d="M2793,2434l2,0 0,-20 -37,19 2,-3 -5,-29 -35,19 0,-9 2,-86 83,-56 26,-28 9,15 0,2 1,16 2,8 15,24 2,0 0,1 25,11 38,39 8,0 -40,25 -68,16Z"/>
    <path data-fips-int="48409" data-name="San Patricio County" d="M2431,2574l5,5 0,1 6,4 17,-4 5,2 2,-3 -2,0 2,0 15,17 1,2 18,27 2,1 12,18 -14,27 -13,-16 -68,10 3,1 -3,0 -60,-22 -2,0 -6,0 -12,-21 2,0 0,-4 1,-2 -6,-8 -18,-5 -2,0 -2,-3 -1,-9 21,-23 65,13 7,-11Z"/>
    <path data-fips-int="48489" data-name="Willacy County" d="M2449,3060l-3,19 3,0 0,3 -5,10 2,0 11,0 2,0 -2,0 -18,24 -10,0 0,3 -7,6 -90,-13 0,-27 -38,-1 12,-49 136,1Z"/>
    <path data-fips-int="48167" data-name="Galveston County" d="M3212,2115l2,11 -56,29 -45,35 26,-37 47,-16 0,-1 3,-5 -3,5 3,-5 0,-3ZM2998,2136l31,6 19,-5 30,13 3,59 -38,32 -48,-75Z"/>
    <path data-fips-int="48007" data-name="Aransas County" d="M2514,2644l-12,-18 3,-7 37,-37 0,24ZM2590,2558l-3,0 -2,3 -5,4 -3,4 -2,2 -3,5 -28,-19 -10,-2 -19,-19 85,-16 -1,13 -4,16Z"/>
    <path data-fips-int="48355" data-name="Nueces County" d="M2329,2750l-6,-11 -19,-9 0,-75 35,-32 12,21 6,0 2,0 60,22 3,0 0,2 29,0 15,35 20,6 -19,40 -135,3Z"/>
    <path data-fips-int="48057" data-name="Calhoun County" d="M2652,2528l46,-14 -46,27 -63,54 0,-2 1,-5 4,-6 55,-51ZM2700,2485l-60,32 -1,1 -15,-25 -34,-13 10,2 -10,-2 -16,-15 -7,-18 12,-19 51,-24 0,2 15,33 25,8ZM2662,2422l-3,0 -2,-4 -2,-15 38,-2 7,30Z"/>
  </g>
  <g class="cities">
    <circle r="3" cx="295.7" cy="207.8"/>
    <text x="295.7" y="207.8">Houston</text>
    <circle r="3" cx="215.2" cy="220.1"/>
    <text x="215.2" y="220.1">San Antonio</text>
    <circle r="3" cx="255.9" cy="119.1"/>
    <text x="255.9" y="119.1">Dallas</text>
  </g>
</svg>