<?xml version="1.0" encoding="utf-8"?>
<!DOCTYPE svg PUBLIC "-//W3C//DTD SVG 1.1//EN" "http://www.w3.org/Graphics/SVG/1.1/DTD/svg11.dtd">
<svg version="1.1" xmlns="http://www.w3.org/2000/svg" width="797" height="1000" viewBox="0 0 797 1000">
  <path class="state" d="M419,975h-128l-9,-1h-88l-4,-1h-57l-113,-3 3,-115 3,-103 2,-80 1,-57v-29l3,-97 3,-70 2,-93 3,-46 2,-67 3,-77 2,-111h137l4,1 123,1h92l66,-1v93l1,51v48h97l51,-2 66,-1 70,-2 3,65v50l4,110 1,59 3,88v60l1,40 1,44 3,20 3,78 1,28v46l2,69 -60,1 -39,2 -54,1h-149l-1,1Z"/>
  <g class="counties">
    <path data-fips-int="49001" data-name="Beaver County" d="M255,676l-1,12 1,8 15,9 11,16 -7,18 3,4 -12,14h-5l-41,-1h-56l-137,-4 2,-80 85,1 49,2Z"/>
    <path data-fips-int="49003" data-name="Box Elder County" d="M311,27l11,18 7,18 -2,23 6,12 2,16 8,-1 8,14 -1,9 -12,2 1,10 -10,6 -29,-1 -36,49 -44,15 -7,-1 -171,-3 3,-77 2,-111h137l4,1Z"/>
    <path data-fips-int="49005" data-name="Cache County" d="M403,138l-21,-2 -11,11 -16,-4 -5,-7 1,-9 -8,-14 -8,1 -2,-16 -6,-12 2,-23 -7,-18 -11,-18h92l5,8 -4,22 7,6 4,26 4,4 -4,16Z"/>
    <path data-fips-int="49007" data-name="Carbon County" d="M498,442h129l12,-1 -6,11 -10,4 4,5 -9,24 2,21h-58l-4,1h-92l-7,-27 -5,3 -12,-20v-21Z"/>
    <path data-fips-int="49009" data-name="Daggett County" d="M757,278h-12l-5,-7v-16l-7,-1v-15l-28,1 2,14 -12,8 -6,-1 -2,-15 -21,8 -12,-1 -16,7 -16,-8 -2,-1 -2,-35 66,-1 70,-2Z"/>
    <path data-fips-int="49011" data-name="Davis County" d="M354,191l3,23 9,11h-6l11,19 -17,7h-12l-3,-5v-14h-7l-37,28 -31,-58 42,-14h32Z"/>
    <path data-fips-int="49013" data-name="Duchesne County" d="M620,251l2,1 3,121 2,69h-129v-16h-5l-1,-83 -1,-18v-47l1,-9 9,3 10,-7h15l3,-5 11,2 29,-7 1,-5 15,-2 10,4Z"/>
    <path data-fips-int="49015" data-name="Emery County" d="M620,506v22l-7,15 4,8 -10,13 3,5 -6,9v17l16,1v8l-7,-6h-9l2,10h-7l3,12 11,17 -3,12 10,18 -2,6 11,3 -6,13 -56,1h-102l-31,1v-2l1,-31v-68l-1,-82 8,-1v-44l12,20 5,-3 7,27h92l4,-1Z"/>
    <path data-fips-int="49017" data-name="Garfield County" d="M639,755l-8,9 -4,-2 -9,14 -1,8 -10,-2 -9,13v9h-28l-6,16h-6l4,15 -6,14 -11,4 -5,13 -7,6h-59l-4,1h-194l-12,-2h-36l-1,-50h17l-2,-17h18l-1,-15 1,-32h245v-1h85Z"/>
    <path data-fips-int="49019" data-name="Grand County" d="M762,497l3,88v60l1,40 -87,3 -56,1 6,-13 -11,-3 2,-6 -10,-18 3,-12 -11,-17 -3,-12h7l-2,-10h9l7,6v-8l-16,-1v-17l6,-9 -3,-5 10,-13 -4,-8 7,-15v-21l134,-3Z"/>
    <path data-fips-int="49021" data-name="Iron County" d="M260,757l-1,32 1,15h-18l2,17h-17l1,50h-30l-4,7h-20v5l-32,-2v-9h-33v-17l-17,2 -64,-1 -5,-1 3,-103 137,4h56Z"/>
    <path data-fips-int="49023" data-name="Juab County" d="M385,442l7,6v8h-8l-11,9 1,44h-5v15h-26l-5,8 -9,4 -25,-3v-29l-3,-14h-160l-3,-1h-106l3,-70 38,2 78,1 56,2h75v-8l11,2 13,-14 11,8v8l7,6 -4,22h9l9,-6 7,-16 13,-10 12,16 -3,10Z"/>
    <path data-fips-int="49025" data-name="Kane County" d="M228,871h36l12,2h194l4,-1h59l-3,12 -13,4 9,4 -3,12 -13,10 -10,-6 5,9 -9,24 -8,10 -14,4h-18l-13,16 -8,-9v11l-16,2h-128l-9,-1h-88v-96l4,-7Z"/>
    <path data-fips-int="49027" data-name="Millard County" d="M329,536v61l-7,7h-11l-5,15 -8,3 1,25 -14,10h-24l-1,14 -5,5 -93,-1 -49,-2 -85,-1 1,-57v-29l3,-97h106l3,1h160l3,14v29Z"/>
    <path data-fips-int="49029" data-name="Morgan County" d="M439,190l-15,3 -2,8 -20,5 -10,12v7l9,1 6,19 -6,13 -16,-3 -3,-9 -11,-2 -11,-19h6l-9,-11 -3,-23v-11l15,-3 10,6 13,-11 13,2 7,-11 4,-14 13,1 10,12 -3,13 9,2Z"/>
    <path data-fips-int="49031" data-name="Piute County" d="M366,690l-12,15v52h-89l12,-14 -3,-4 7,-18 -11,-16 -15,-9 -1,-8h68v2Z"/>
    <path data-fips-int="49033" data-name="Rich County" d="M470,170l-16,14 -15,6 6,-13 -9,-2 3,-13 -10,-12 -13,-1 -13,-11 12,-29 4,-16 -4,-4 -4,-26 -7,-6 4,-22 -5,-8 66,-1v93Z"/>
    <path data-fips-int="49035" data-name="Salt Lake County" d="M371,244l11,2 3,9 5,26 8,11 -6,5 -13,9 -14,2 -3,6 -15,5 -12,9 -7,-8 -10,2 -10,-4 -1,-27 -3,-19 -9,-12 37,-28h7v14l3,5h12Z"/>
    <path data-fips-int="49039" data-name="Sanpete County" d="M442,442v65l-8,1 1,82h-70l-11,-3h-25v-51l9,-4 5,-8h26v-15h5l-1,-44 11,-9h8v-8l-7,-6Z"/>
    <path data-fips-int="49041" data-name="Sevier County" d="M435,590v68l-1,31h-67l-1,1h-44v-2h-68l1,-12 5,-5 1,-14h24l14,-10 -1,-25 8,-3 5,-15h11l7,-7v-10h25l11,3Z"/>
    <path data-fips-int="49043" data-name="Summit County" d="M470,170v48h97l51,-2 2,35 -25,1 -10,-4 -15,2 -1,5 -29,7 -11,-2 -3,5h-15l-10,7 -9,-3 -1,9 -5,1 -6,16 -10,2 -11,-2 -4,8 -32,-15 -3,-12 -13,13 -9,3 -8,-11 -5,-26 16,3 6,-13 -6,-19 -9,-1v-7l10,-12 20,-5 2,-8 15,-3 15,-6Z"/>
    <path data-fips-int="49045" data-name="Tooele County" d="M295,260l9,12 3,19 1,27 -6,1 4,25v19l5,11 -5,20v10l-13,14 -11,-2v8h-75l-56,-2 -78,-1 -38,-2 2,-93 3,-46 2,-67 171,3 7,1 44,-15Z"/>
    <path data-fips-int="49047" data-name="Uintah County" d="M757,278v50l4,110 1,59 -8,7 -134,3v-1l-2,-21 9,-24 -4,-5 10,-4 6,-11 -12,1 -2,-69 -3,-121 16,8 16,-7 12,1 21,-8 2,15 6,1 12,-8 -2,-14 28,-1v15l7,1v16l5,7Z"/>
    <path data-fips-int="49049" data-name="Utah County" d="M493,426h5v16h-131l3,-10 -12,-16 -13,10 -7,16 -9,6h-9l4,-22 -7,-6v-8l-11,-8v-10l5,-20 -5,-11v-19l-4,-25 6,-1 10,4 10,-2 7,8 12,-9 15,-5 3,-6 14,-2 13,-9 2,18 -6,5 9,18 15,4v10l20,1 13,21 -3,25 6,-1 9,12 2,7h7v9Z"/>
    <path data-fips-int="49051" data-name="Wasatch County" d="M491,278v47l1,18 1,83h-27v-9h-7l-2,-7 -9,-12 -6,1 3,-25 -13,-21 -20,-1v-10l-15,-4 -9,-18 6,-5 -2,-18 6,-5 9,-3 13,-13 3,12 32,15 4,-8 11,2 10,-2 6,-16Z"/>
    <path data-fips-int="49053" data-name="Washington County" d="M194,878v96l-4,-1h-57l-113,-3 3,-115 5,1 64,1 17,-2v17h33v9l32,2v-5Z"/>
    <path data-fips-int="49055" data-name="Wayne County" d="M623,689l4,3 -5,19 13,9 3,14 4,-2 3,14 -6,9 -49,1h-85v1h-151v-52l12,-15 1,-1h67v2l31,-1h102l56,-1Z"/>
    <path data-fips-int="49057" data-name="Weber County" d="M350,136l5,7 16,4 11,-11 21,2 13,11 -4,14 -7,11 -13,-2 -13,11 -10,-6 -15,3v11l-16,-3h-32l-42,14 36,-49 29,1 10,-6 -1,-10Z"/>
    <path data-fips-int="49037" data-name="San Juan County" d="M419,975l16,-2v-11l8,9 13,-16h18l14,-4 8,-10 9,-24 -5,-9 10,6 13,-10 3,-12 -9,-4 13,-4 3,-12 7,-6 5,-13 11,-4 6,-14 -4,-15h6l6,-16h28v-9l9,-13 10,2 1,-8 9,-14 4,2 8,-9 6,-9 -3,-14 -4,2 -3,-14 -13,-9 5,-19 -4,-3 56,-1 87,-3 1,44 3,20 3,78 1,28v46l2,69 -60,1 -39,2 -54,1h-149l-1,1Z"/>
  </g>
  <path class="mesh" d="M28,672l85,1 49,2 93,1 -1,12 1,8 15,9 11,16 -7,18 3,4 -12,14h-5l-41,-1h-56l-137,-4M311,27l11,18 7,18 -2,23 6,12 2,16 8,-1 8,14 -1,9 -12,2 1,10 -10,6 -29,-1 -36,49 -44,15 -7,-1 -171,-3M403,27l5,8 -4,22 7,6 4,26 4,4 -4,16 -12,29 -21,-2 -11,11 -16,-4 -5,-7M757,278h-12l-5,-7v-16l-7,-1v-15l-28,1 2,14 -12,8 -6,-1 -2,-15 -21,8 -12,-1 -16,7 -16,-8 -2,-1 -2,-35M622,252l3,121 2,69M498,442h129l12,-1 -6,11 -10,4 4,5 -9,24 2,21h-58l-4,1h-92l-7,-27 -5,3 -12,-20v-21h56v-16h-5l-1,-83 -1,-18v-47l1,-9 9,3 10,-7h15l3,-5 11,2 29,-7 1,-5 15,-2 10,4 25,-1M620,506v22l-7,15 4,8 -10,13 3,5 -6,9v17l16,1v8l-7,-6h-9l2,10h-7l3,12 11,17 -3,12 10,18 -2,6 11,3 -6,13 -56,1h-102l-31,1v-2l1,-31v-68l-1,-82 8,-1v-44M265,757h240v-1h85l49,-1 -8,9 -4,-2 -9,14 -1,8 -10,-2 -9,13v9h-28l-6,16h-6l4,15 -6,14 -11,4 -5,13 -7,6h-59l-4,1h-194l-12,-2h-36l-1,-50h17l-2,-17h18l-1,-15 1,-32M620,507l134,-3 8,-7M228,871h-30l-4,7h-20v5l-32,-2v-9h-33v-17l-17,2 -64,-1 -5,-1M35,419l38,2 78,1 56,2h75v-8l11,2 13,-14 11,8v8l7,6 -4,22h9l9,-6 7,-16 13,-10 12,16 -3,10h18l7,6v8h-8l-11,9 1,44h-5v15h-26l-5,8 -9,4 -25,-3v-29l-3,-14h-160l-3,-1h-106M533,872l-3,12 -13,4 9,4 -3,12 -13,10 -10,-6 5,9 -9,24 -8,10 -14,4h-18l-13,16 -8,-9v11l-16,2M194,974v-96M329,536v61l-7,7h-11l-5,15 -8,3 1,25 -14,10h-24l-1,14 -5,5M354,191l3,23 9,11h-6l11,19 -17,7h-12l-3,-5v-14h-7l-37,28 -31,-58 42,-14h32l16,3v-11l15,-3 10,6 13,-11 13,2 7,-11 4,-14 13,1 10,12 -3,13 9,2 -6,13 -15,3 -2,8 -20,5 -10,12v7l9,1 6,19 -6,13 -16,-3 -3,-9 -11,-2M254,688h68v2h44l-12,15v52M470,170l-16,14 -15,6M416,149l-13,-11M385,255l5,26 8,11 -6,5 -13,9 -14,2 -3,6 -15,5 -12,9 -7,-8 -10,2 -10,-4 -1,-27 -3,-19 -9,-12M435,590h-70l-11,-3h-25M385,442h57M434,689h-67l-1,1M491,278l-5,1 -6,16 -10,2 -11,-2 -4,8 -32,-15 -3,-12 -13,13 -9,3M308,318l-6,1 4,25v19l5,11 -5,20v10M392,297l2,18 -6,5 9,18 15,4v10l20,1 13,21 -3,25 6,-1 9,12 2,7h7v9h27M766,685l-87,3 -56,1 4,3 -5,19 13,9 3,14 4,-2 3,14 -6,9"/>
  <g class="cities">
    <circle r="7" cx="349" cy="263"/>
    <text x="349" y="263">Salt Lake City</text>
    <circle r="7" cx="383" cy="363"/>
    <text x="383" y="363">Provo</text>
    <circle r="7" cx="338" cy="176"/>
    <text x="338" y="176">Ogden</text>
  </g>
</svg>