<?xml version="1.0" encoding="utf-8"?>
<!DOCTYPE svg PUBLIC "-//W3C//DTD SVG 1.1//EN" "http://www.w3.org/Graphics/SVG/1.1/DTD/svg11.dtd">
<svg version="1.1" xmlns="http://www.w3.org/2000/svg" width="279" height="350" viewBox="0 0 279 350">
  <g class="counties" transform="scale(0.1)">
    <path data-fips-int="49001" data-name="Beaver County" d="M893,2368l-2,42 5,16 -5,4 12,18 8,3 14,13 3,13 11,2 4,-9 7,2 0,14 6,10 7,1 9,16 8,4 5,11 -7,19 -1,16 -15,24 11,12 -8,9 -12,4 -14,14 0,9 -11,13 -18,2 -136,-2 -49,-2 -66,0 -77,-1 -66,-2 -35,0 -128,-4 -86,-1 -3,-1 -129,-2 -43,-2 0,-16 4,-136 3,-129 66,2 97,2 35,1 45,0 75,1 33,2 62,0 119,4 13,-2 40,0 11,2 50,1 68,3Z"/>
    <path data-fips-int="49003" data-name="Box Elder County" d="M1090,100l7,18 7,5 8,25 7,9 10,5 16,25 3,16 9,16 -1,7 11,9 -9,13 -9,26 0,17 -4,7 11,12 8,18 3,18 0,17 7,35 5,10 15,-12 8,1 11,12 4,23 10,1 6,7 -3,8 -17,3 -2,6 18,12 -2,10 -4,6 -17,4 -14,-14 -8,8 2,18 -4,11 6,7 -32,20 -23,-1 -82,0 -36,47 -92,123 -154,49 -130,-1 -142,-3 -203,-4 -146,-4 2,-95 5,-123 2,-89 0,-24 3,-83 3,-98 1,-52 1,-20 1,-74 139,3 208,4 165,0 146,4 222,2Z"/>
    <path data-fips-int="49005" data-name="Cache County" d="M1413,482l-17,9 -4,-9 -10,-4 -5,7 -17,-3 -17,10 -8,-14 -15,7 -12,-6 8,10 -11,24 -18,4 -17,-15 -20,3 -18,-11 1,-11 -6,-4 2,-10 -18,-12 2,-6 17,-3 3,-8 -6,-7 -10,-1 -4,-23 -11,-12 -8,-1 -15,12 -5,-10 -7,-35 0,-17 -3,-18 -8,-18 -11,-12 4,-7 0,-17 9,-26 9,-13 -11,-9 1,-7 -9,-16 -3,-16 -16,-25 -10,-5 -7,-9 -8,-25 -7,-5 -7,-18 116,1 41,-1 167,0 0,8 12,9 4,12 2,18 -5,12 -14,0 9,16 -1,8 -7,6 5,11 19,21 4,16 -2,9 6,5 1,24 12,9 -4,17 0,13 5,2 7,12 -8,10 0,11 -6,3 1,26 -3,18 -4,2 0,12 -9,0 1,8 -8,10 -1,11 -6,13 -7,6Z"/>
    <path data-fips-int="49007" data-name="Carbon County" d="M1746,1548l4,-1 168,0 0,3 280,-4 43,0 -3,6 7,2 -2,7 -8,-5 -12,3 -5,26 -8,-2 -8,17 -2,-12 -11,2 -3,6 12,15 -12,4 -5,10 8,2 2,13 -6,13 -6,-1 5,12 -15,19 5,8 -9,18 6,9 -3,7 -7,2 10,7 3,16 4,5 -5,15 -62,0 -101,2 -101,1 -44,1 -78,1 -124,0 -28,1 2,-13 -6,-21 -15,-20 -9,-42 -15,12 -13,-15 -8,-25 -10,-13 -5,-16 -9,-3 0,-72 86,0 0,-1Z"/>
    <path data-fips-int="49009" data-name="Daggett County" d="M2650,974l-37,1 -1,-20 -19,1 -3,-68 -19,0 -2,-47 -96,2 1,45 -13,4 -10,14 2,5 -15,1 -8,11 -16,-9 0,-37 -9,-12 -20,10 -8,-7 -5,6 -17,0 -11,11 -11,3 -9,-4 -13,0 -7,5 -9,-5 -7,14 -12,0 -21,4 -1,6 -18,3 -13,-12 -23,-9 -18,-9 -12,-2 -2,-122 79,-2 118,-4 67,-1 122,-3 89,-3 4,109 2,81Z"/>
    <path data-fips-int="49011" data-name="Davis County" d="M1241,670l5,12 -4,4 2,25 7,36 14,14 16,28 -20,0 12,20 -2,8 7,4 5,24 12,3 4,6 -20,11 -20,4 -26,11 -35,-1 -7,-17 -5,1 -4,-20 7,-16 0,-14 -24,0 -69,48 -61,50 -8,-16 -104,-187 68,-21 83,-27 90,0 24,2 7,8 16,2Z"/>
    <path data-fips-int="49013" data-name="Duchesne County" d="M2170,879l12,2 1,110 5,189 2,130 2,82 6,154 -280,4 0,-3 -168,0 -4,1 0,-58 -18,0 0,-58 -1,-64 -3,0 -1,-230 -3,0 -1,-132 0,-32 4,-1 -5,-12 2,-9 7,-2 -4,-8 15,4 8,-4 12,11 19,-15 6,0 11,-10 13,1 6,-5 18,9 12,-3 11,-16 12,6 12,-4 11,4 7,-10 11,7 13,-4 7,-9 6,6 6,-5 15,0 4,-9 6,5 20,-3 8,-7 6,-16 10,2 14,-9 8,3 10,-4 7,4 23,5 4,-2 12,7 19,-1 14,4 25,-4 13,-6Z"/>
    <path data-fips-int="49015" data-name="Emery County" d="M2173,1770l0,5 1,0 2,23 4,5 -6,28 2,16 -5,1 -9,18 -5,-4 -1,14 6,6 -8,4 -6,13 8,5 0,13 5,11 -13,4 4,11 -4,10 -10,3 0,13 -9,10 9,12 -6,5 2,10 -6,14 -11,5 2,19 -8,17 8,4 -7,5 10,11 19,-1 0,11 20,0 0,-5 9,0 0,10 10,0 0,9 9,0 0,9 -19,0 -5,-9 -9,0 0,-9 -19,-2 -23,1 6,12 -7,9 6,2 3,12 -20,1 -2,12 10,11 -1,18 11,-4 2,6 -4,14 13,7 8,18 -8,7 8,10 8,3 3,13 -7,1 -7,12 3,12 11,2 -7,12 7,11 -2,8 8,-6 3,11 6,-4 3,11 5,-9 3,4 -6,13 3,12 -11,-3 4,10 17,-3 5,-10 9,6 1,14 -9,4 -11,-11 -8,8 -3,10 9,4 7,-4 7,11 7,-6 5,4 -9,16 7,9 -10,1 -2,8 -15,-1 10,9 -73,2 -196,2 -138,2 -79,0 -14,0 -103,0 -60,1 0,-7 0,-50 -1,-57 4,0 0,-229 -1,-10 0,-56 0,-118 -1,0 0,-110 -1,-4 28,-2 0,-96 -1,-60 9,3 5,16 10,13 8,25 13,15 15,-12 9,42 15,20 6,21 -2,13 28,-1 124,0 78,-1 44,-1 101,-1 101,-2Z"/>
    <path data-fips-int="49017" data-name="Garfield County" d="M2238,2642l0,8 -15,7 -3,9 -15,11 -7,-7 -10,9 -11,18 1,14 -11,5 -5,13 3,11 -11,7 -10,-8 -13,2 -6,12 -6,3 -5,13 -17,12 3,20 -9,16 -27,-5 -5,5 -1,12 -6,2 -3,-10 -35,-4 -22,9 2,17 -12,8 -5,8 -1,16 -19,0 -3,7 8,16 19,-5 -10,15 -2,16 -9,5 0,7 -9,7 1,19 -9,17 -7,-4 -10,15 -15,-3 -1,15 -19,10 1,13 -6,11 -13,7 -5,9 -120,1 -72,1 -94,0 -31,1 -310,0 0,2 -57,0 -114,0 -35,-2 -68,0 0,-4 -169,-2 1,-59 -1,0 0,-56 -2,0 1,-59 24,0 34,2 1,-52 -5,-6 63,1 1,-57 -7,-2 2,-111 18,-2 109,1 90,1 0,3 57,0 0,-3 57,0 108,0 115,0 0,-2 286,0 8,0 93,0 54,-2 57,0 52,-1 142,-2 39,0Z"/>
    <path data-fips-int="49019" data-name="Grand County" d="M2670,1740l6,193 0,63 3,74 1,62 0,123 4,146 -82,2 -82,3 -55,0 -65,2 -94,2 -123,2 -10,-9 15,1 2,-8 10,-1 -7,-9 9,-16 -5,-4 -7,6 -7,-11 -7,4 -9,-4 3,-10 8,-8 11,11 9,-4 -1,-14 -9,-6 -5,10 -17,3 -4,-10 11,3 -3,-12 6,-13 -3,-4 -5,9 -3,-11 -6,4 -3,-11 -8,6 2,-8 -7,-11 7,-12 -11,-2 -3,-12 7,-12 7,-1 -3,-13 -8,-3 -8,-10 8,-7 -8,-18 -13,-7 4,-14 -2,-6 -11,4 1,-18 -10,-11 2,-12 20,-1 -3,-12 -6,-2 7,-9 -6,-12 23,-1 19,2 0,9 9,0 5,9 19,0 0,-9 -9,0 0,-9 -10,0 0,-10 -9,0 0,5 -20,0 0,-11 -19,1 -10,-11 7,-5 -8,-4 8,-17 -2,-19 11,-5 6,-14 -2,-10 6,-5 -9,-12 9,-10 0,-13 10,-3 4,-10 -4,-11 13,-4 -5,-11 0,-13 -8,-5 6,-13 8,-4 -6,-6 1,-14 5,4 9,-18 5,-1 -2,-16 6,-28 -4,-5 -2,-23 -1,0 1,0 38,-1 69,-1 176,-5 28,0 157,-4 10,-19Z"/>
    <path data-fips-int="49021" data-name="Iron County" d="M910,2650l-2,111 7,2 -1,57 -63,-1 5,6 -1,52 -34,-2 -24,0 -1,59 2,0 0,56 1,0 -1,59 -53,0 -61,-1 -1,28 -72,0 0,16 -57,-1 0,-4 -56,-2 1,-32 -117,-2 1,-59 -59,-1 -1,9 -54,-1 -52,-2 -27,0 -110,-3 3,-98 2,-35 3,-137 4,-91 43,2 129,2 3,1 86,1 128,4 35,0 66,2 77,1 66,0 49,2Z"/>
    <path data-fips-int="49023" data-name="Juab County" d="M1348,1549l-1,9 9,0 0,10 20,0 0,29 -30,1 1,9 -11,0 0,5 -14,5 0,10 -15,0 2,38 0,59 1,0 0,58 -18,0 0,52 -89,0 0,10 -19,0 0,20 -29,0 0,14 -29,0 0,-10 -63,0 2,-34 -8,-7 9,-7 -1,-28 -6,-10 6,-6 3,-12 -8,-1 -2,-15 -6,-5 13,-6 -1,-9 -11,-11 -2,2 -35,0 -154,0 -101,-2 -47,0 -86,-2 -166,-3 -226,-5 0,6 -118,-3 6,-191 1,-50 51,2 127,3 135,3 63,2 28,0 64,2 111,1 55,2 99,2 78,0 55,0 4,-12 -2,-12 4,-7 10,3 4,7 17,-1 17,-14 6,-19 23,-15 10,3 13,20 12,2 8,14 -6,8 1,8 10,2 16,22 -9,15 -6,3 4,17 4,7 -5,20 -7,12 19,3 14,-4 18,-15 10,-1 6,-20 11,-12 17,-28 19,-6 17,-11 3,-15 17,10 8,22 10,6 0,8 9,8 3,7 -6,3 -2,12 -9,14 6,-1Z"/>
    <path data-fips-int="49025" data-name="Kane County" d="M798,3049l169,2 0,4 68,0 35,2 114,0 57,0 0,-2 310,0 31,-1 94,0 72,-1 120,-1 -7,9 -4,21 15,5 -14,7 -28,-3 -5,16 -9,4 12,12 13,0 -7,21 -7,2 -14,-4 0,6 16,15 -6,10 0,8 -10,-3 -2,12 -11,7 -14,1 -26,-17 -7,-2 0,15 14,6 2,14 -19,7 7,15 -2,5 -12,5 6,14 -11,9 4,11 -6,16 -11,-3 -4,16 -13,1 2,12 -6,8 -11,-2 -4,10 -12,-3 -14,5 -5,6 -9,-6 -6,4 -13,0 -10,-4 -8,13 -8,-2 -7,-9 -6,1 -21,31 -9,-8 -8,14 10,7 -10,11 -11,-22 -13,-7 -6,1 3,13 9,4 -11,6 -3,12 -11,-6 -6,6 -19,6 -19,0 -328,0 -38,0 -78,0 -162,-2 -71,-1 -41,0 -69,-1 1,-83 1,-103 2,-145 1,-28 61,1Z"/>
    <path data-fips-int="49027" data-name="Millard County" d="M1155,1878l-1,91 1,88 -3,33 -20,0 -4,4 0,21 -34,0 -1,15 -9,-1 0,19 -10,0 0,19 -9,-1 -1,10 -18,0 -3,17 0,50 5,0 0,24 -9,0 -3,10 -22,7 0,9 -14,3 0,5 -23,-1 0,-5 -48,2 -10,4 0,10 -9,10 0,29 -10,0 0,19 -7,-1 -80,0 -68,-3 -50,-1 -11,-2 -40,0 -13,2 -119,-4 -62,0 -33,-2 -75,-1 -45,0 -35,-1 -97,-2 -66,-2 3,-95 2,-47 0,-57 2,-1 2,-91 1,-40 3,-121 3,-66 3,-124 118,3 0,-6 226,5 166,3 86,2 47,0 101,2 154,0 35,0 2,-2 11,11 1,9 -13,6 6,5 2,15 8,1 -3,12 -6,6 6,10 1,28 -9,7 8,7 -2,34 63,0 0,10Z"/>
    <path data-fips-int="49029" data-name="Morgan County" d="M1536,666l-13,1 -8,8 -13,-5 -7,7 -11,-1 -7,29 -13,7 -19,-4 -6,6 -14,7 -18,3 -16,17 -2,14 -10,9 -8,3 6,21 16,5 13,0 -2,23 10,5 0,9 12,17 3,9 -19,29 3,3 -9,16 -15,4 -13,-8 -5,-9 -8,-4 -15,8 -3,-16 -10,-5 3,-9 -7,-7 -14,-4 -3,6 -15,-6 -4,-6 -12,-3 -5,-24 -7,-4 2,-8 -12,-20 20,0 -16,-28 -14,-14 -7,-36 -2,-25 4,-4 -5,-12 1,-11 -12,-10 3,-12 7,-6 20,-5 6,-7 13,-2 16,9 15,12 20,4 10,-3 8,-9 14,-6 1,-14 8,-7 29,2 4,5 16,2 2,-10 14,-11 12,-21 -4,-17 6,-5 -1,-9 7,-6 2,-10 8,-1 4,-7 7,0 7,8 10,-1 26,22 0,11 18,14 -9,9 -2,11 6,15 -6,9 14,-3 1,10 9,-3 6,4 -4,6 -1,17Z"/>
    <path data-fips-int="49031" data-name="Piute County" d="M1281,2418l-29,29 -8,19 -6,2 2,102 1,17 0,63 -57,0 0,3 -57,0 0,-3 -90,-1 -109,-1 11,-13 0,-9 14,-14 12,-4 8,-9 -11,-12 15,-24 1,-16 7,-19 -5,-11 -8,-4 -9,-16 -7,-1 -6,-10 0,-14 -7,-2 -4,9 -11,-2 -3,-13 -14,-13 -8,-3 -12,-18 5,-4 -5,-16 112,0 3,0 89,0 33,1 0,6 119,0Z"/>
    <path data-fips-int="49033" data-name="Rich County" d="M1644,594l-14,6 -13,24 -4,-5 -12,5 -4,14 -17,11 -19,8 -10,11 -15,-2 16,-22 1,-17 4,-6 -6,-4 -9,3 -1,-10 -14,3 6,-9 -6,-15 2,-11 9,-9 -18,-14 0,-11 -26,-22 -10,1 -7,-8 -7,0 -4,7 -8,1 -13,-4 -16,-12 1,-8 -11,-7 -6,-10 4,-24 7,-6 6,-13 1,-11 8,-10 -1,-8 9,0 0,-12 4,-2 3,-18 -1,-26 6,-3 0,-11 8,-10 -7,-12 -5,-2 0,-13 4,-17 -12,-9 -1,-24 -6,-5 2,-9 -4,-16 -19,-21 -5,-11 7,-6 1,-8 -9,-16 14,0 5,-12 -2,-18 -4,-12 -12,-9 0,-8 34,-1 193,-1 1,91 0,58Z"/>
    <path data-fips-int="49035" data-name="Salt Lake County" d="M1198,879 35,1 26,-11 20,-4 20,-11 15,6 3,-6 14,4 7,7 -3,9 10,5 3,16 -4,18 14,9 -2,18 15,22 -4,18 4,13 8,5 1,7 12,16 -6,16 -15,5 -6,8 -16,-2 -6,11 -5,1 -8,12 -10,-2 -12,7 -9,-4 -2,5 -9,-4 -15,10 0,11 -31,15 -2,5 -10,-7 -20,17 -7,11 -17,11 -11,2 -12,-8 -11,-15 -2,-9 -18,12 -22,-2 -17,-15 -7,6 -7,-4 -6,-31 4,-5 -1,-39 3,-16 -11,-13 2,-8 -5,-14 3,-24 -5,-15 -8,-5 -20,-33 61,-50 69,-48 24,0 0,14 -7,16 4,20 5,-1Z"/>
    <path data-fips-int="49039" data-name="Sanpete County" d="M1547,1548l0,72 1,60 0,96 -28,2 1,4 0,110 1,0 0,118 0,56 -259,0 -26,-1 2,-8 -34,1 -50,-1 -1,-88 1,-91 0,-14 29,0 0,-20 19,0 0,-10 89,0 0,-52 18,0 0,-58 -1,0 0,-59 -2,-38 15,0 0,-10 14,-5 0,-5 11,0 -1,-9 30,-1 0,-29 -20,0 0,-10 -9,0 1,-9 168,0Z"/>
    <path data-fips-int="49041" data-name="Sevier County" d="M1522,2066l1,10 0,229 -4,0 1,57 0,50 -6,0 -228,0 -5,6 -34,-1 -119,0 0,-6 -33,-1 -89,0 -3,0 -112,0 2,-42 7,1 0,-19 10,0 0,-29 9,-10 0,-10 10,-4 48,-2 0,5 23,1 0,-5 14,-3 0,-9 22,-7 3,-10 9,0 0,-24 -5,0 0,-50 3,-17 18,0 1,-10 9,1 0,-19 10,0 0,-19 9,1 1,-15 34,0 0,-21 4,-4 20,0 3,-33 50,1 34,-1 -2,8 26,1Z"/>
    <path data-fips-int="49043" data-name="Summit County" d="M1644,594l1,169 147,0 137,-2 59,0 180,-4 2,122 -13,-5 -13,6 -25,4 -14,-4 -19,1 -12,-7 -4,2 -23,-5 -7,-4 -10,4 -8,-3 -14,9 -10,-2 -6,16 -8,7 -20,3 -6,-5 -4,9 -15,0 -6,5 -6,-6 -7,9 -13,4 -11,-7 -7,10 -11,-4 -12,4 -12,-6 -11,16 -12,3 -18,-9 -6,5 -13,-1 -11,10 -6,0 -19,15 -12,-11 -8,4 -15,-4 4,8 -7,2 -2,9 5,12 -4,1 -19,5 0,9 -11,22 0,13 -7,8 -16,0 -9,11 -14,-3 -11,-8 -16,0 -8,3 -12,27 -41,-20 -10,0 -28,-18 -5,-7 -22,-8 -6,0 -10,-20 -5,-20 -6,6 -13,-3 4,13 -22,14 -7,16 -1,13 -19,-7 -13,1 -12,-16 -1,-7 -8,-5 -4,-13 4,-18 -15,-22 2,-18 -14,-9 4,-18 15,-8 8,4 5,9 13,8 15,-4 9,-16 -3,-3 19,-29 -3,-9 -12,-17 0,-9 -10,-5 2,-23 -13,0 -16,-5 -6,-21 8,-3 10,-9 2,-14 16,-17 18,-3 14,-7 6,-6 19,4 13,-7 7,-29 11,1 7,-7 13,5 8,-8 13,-1 15,2 10,-11 19,-8 17,-11 4,-14 12,-5 4,5 13,-24Z"/>
    <path data-fips-int="49045" data-name="Tooele County" d="M1035,911l20,33 8,5 5,15 -3,24 5,14 -2,8 11,13 -3,16 1,39 -4,5 6,31 -8,-1 -11,6 1,18 7,8 -3,22 6,9 -3,9 10,16 -9,5 -3,9 5,19 -2,14 6,10 0,12 6,8 9,5 -5,9 6,2 -4,16 -9,12 -2,15 13,16 -3,12 -8,2 0,11 -5,5 5,14 -4,19 -23,15 -6,19 -17,14 -17,1 -4,-7 -10,-3 -4,7 2,12 -4,12 -55,0 -78,0 -99,-2 -55,-2 -111,-1 -64,-2 -28,0 -63,-2 -135,-3 -127,-3 -51,-2 2,-38 1,-72 8,-249 3,-126 9,-239 146,4 203,4 142,3 130,1 154,-49 104,187Z"/>
    <path data-fips-int="49047" data-name="Uintah County" d="M2650,974l1,23 0,52 4,149 5,172 1,56 3,76 3,161 3,77 -18,5 -10,19 -157,4 -28,0 -176,5 -69,1 -38,1 -1,0 0,-5 5,-15 -4,-5 -3,-16 -10,-7 7,-2 3,-7 -6,-9 9,-18 -5,-8 15,-19 -5,-12 6,1 6,-13 -2,-13 -8,-2 5,-10 12,-4 -12,-15 3,-6 11,-2 2,12 8,-17 8,2 5,-26 12,-3 8,5 2,-7 -7,-2 3,-6 -43,0 -6,-154 -2,-82 -2,-130 -5,-189 -1,-110 18,9 23,9 13,12 18,-3 1,-6 21,-4 12,0 7,-14 9,5 7,-5 13,0 9,4 11,-3 11,-11 17,0 5,-6 8,7 20,-10 9,12 0,37 16,9 8,-11 15,-1 -2,-5 10,-14 13,-4 -1,-45 96,-2 2,47 19,0 3,68 19,-1 1,20Z"/>
    <path data-fips-int="49049" data-name="Utah County" d="M1728,1490l18,0 0,58 -113,-1 0,1 -86,0 -31,1 -168,0 -59,0 -6,1 9,-14 2,-12 6,-3 -3,-7 -9,-8 0,-8 -10,-6 -8,-22 -17,-10 -3,15 -17,11 -19,6 -17,28 -11,12 -6,20 -10,1 -18,15 -14,4 -19,-3 7,-12 5,-20 -4,-7 -4,-17 6,-3 9,-15 -16,-22 -10,-2 -1,-8 6,-8 -8,-14 -12,-2 -13,-20 -10,-3 4,-19 -5,-14 5,-5 0,-11 8,-2 3,-12 -13,-16 2,-15 9,-12 4,-16 -6,-2 5,-9 -9,-5 -6,-8 0,-12 -6,-10 2,-14 -5,-19 3,-9 9,-5 -10,-16 3,-9 -6,-9 3,-22 -7,-8 -1,-18 11,-6 8,1 7,4 7,-6 17,15 22,2 18,-12 2,9 11,15 12,8 11,-2 17,-11 7,-11 20,-17 10,7 2,-5 31,-15 0,-11 15,-10 9,4 2,-5 9,4 12,-7 10,2 8,-12 5,-1 6,-11 16,2 6,-8 14,20 -6,31 1,9 -10,13 -6,0 -6,11 3,11 10,2 5,12 4,0 0,14 8,3 3,16 38,0 0,6 21,21 -10,15 8,7 15,0 1,-4 19,-1 7,6 26,3 22,27 -5,14 6,11 18,23 -2,15 5,12 -10,25 3,14 -7,8 5,13 7,2 11,-8 3,11 11,10 5,17 12,2 12,12 -6,14 7,3 18,0 0,28Z"/>
    <path data-fips-int="49051" data-name="Wasatch County" d="M1719,974l0,32 1,132 3,0 1,230 3,0 1,64 0,58 -97,0 0,-28 -18,0 -7,-3 6,-14 -12,-12 -12,-2 -5,-17 -11,-10 -3,-11 -11,8 -7,-2 -5,-13 7,-8 -3,-14 10,-25 -5,-12 2,-15 -18,-23 -6,-11 5,-14 -22,-27 -26,-3 -7,-6 -19,1 -1,4 -15,0 -8,-7 10,-15 -21,-21 0,-6 -38,0 -3,-16 -8,-3 0,-14 -4,0 -5,-12 -10,-2 -3,-11 6,-11 6,0 10,-13 -1,-9 6,-31 -14,-20 15,-5 6,-16 13,-1 19,7 1,-13 7,-16 22,-14 -4,-13 13,3 6,-6 5,20 10,20 6,0 22,8 5,7 28,18 10,0 41,20 12,-27 8,-3 16,0 11,8 14,3 9,-11 16,0 7,-8 0,-13 11,-22 0,-9Z"/>
    <path data-fips-int="49053" data-name="Washington County" d="M683,3076l-2,145 -1,103 -1,83 -44,0 -51,-2 -72,0 -41,-2 -123,-2 -170,-4 -48,-1 -60,-2 0,-53 6,-214 0,-26 4,-107 110,3 27,0 52,2 54,1 1,-9 59,1 -1,59 117,2 -1,32 56,2 0,4 57,1 0,-16Z"/>
    <path data-fips-int="49055" data-name="Wayne County" d="M2183,2412 13,12 -9,24 -4,-1 13,21 -11,14 -2,7 10,5 2,7 11,-16 6,8 -5,16 10,9 6,-11 6,1 -3,10 -9,5 1,8 8,6 -1,12 10,5 -2,13 5,3 9,-7 2,12 8,16 -15,3 2,7 15,5 -8,8 9,3 -10,7 -12,18 -43,1 -39,0 -142,2 -52,1 -57,0 -54,2 -93,0 -8,0 -286,0 0,2 -115,0 -108,0 0,-63 -1,-17 -2,-102 6,-2 8,-19 29,-29 5,-6 228,0 6,0 0,7 60,-1 103,0 14,0 79,0 138,-2 196,-2 73,-2Z"/>
    <path data-fips-int="49057" data-name="Weber County" d="M1227,479l6,4 -1,11 18,11 20,-3 17,15 18,-4 11,-24 -8,-10 12,6 15,-7 8,14 17,-10 17,3 5,-7 10,4 4,9 17,-9 6,10 11,7 -1,8 16,12 13,4 -2,10 -7,6 1,9 -6,5 4,17 -12,21 -14,11 -2,10 -16,-2 -4,-5 -29,-2 -8,7 -1,14 -14,6 -8,9 -10,3 -20,-4 -15,-12 -16,-9 -13,2 -6,7 -20,5 -7,6 -3,12 12,10 -1,11 -30,2 -16,-2 -7,-8 -24,-2 -90,0 -83,27 -68,21 92,-123 36,-47 82,0 23,1 32,-20 -6,-7 4,-11 -2,-18 8,-8 14,14 17,-4Z"/>
    <path data-fips-int="49037" data-name="San Juan County" d="M1485,3411l-19,0 19,0 19,-6 6,-6 11,6 3,-12 11,-6 -9,-4 -3,-13 6,-1 13,7 11,22 10,-11 -10,-7 8,-14 9,8 21,-31 6,-1 7,9 8,2 8,-13 10,4 13,0 6,-4 9,6 5,-6 14,-5 12,3 4,-10 11,2 6,-8 -2,-12 13,-1 4,-16 11,3 6,-16 -4,-11 11,-9 -6,-14 12,-5 2,-5 -7,-15 19,-7 -2,-14 -14,-6 0,-15 7,2 26,17 14,-1 11,-7 2,-12 10,3 0,-8 6,-10 -16,-15 0,-6 14,4 7,-2 7,-21 -13,0 -12,-12 9,-4 5,-16 28,3 14,-7 -15,-5 4,-21 7,-9 5,-9 13,-7 6,-11 -1,-13 19,-10 1,-15 15,3 10,-15 7,4 9,-17 -1,-19 9,-7 0,-7 9,-5 2,-16 10,-15 -19,5 -8,-16 3,-7 19,0 1,-16 5,-8 12,-8 -2,-17 22,-9 35,4 3,10 6,-2 1,-12 5,-5 27,5 9,-16 -3,-20 17,-12 5,-13 6,-3 6,-12 13,-2 10,8 11,-7 -3,-11 5,-13 11,-5 -1,-14 11,-18 10,-9 7,7 15,-11 3,-9 15,-7 0,-8 12,-18 10,-7 -9,-3 8,-8 -15,-5 -2,-7 15,-3 -8,-16 -2,-12 -9,7 -5,-3 2,-13 -10,-5 1,-12 -8,-6 -1,-8 9,-5 3,-10 -6,-1 -6,11 -10,-9 5,-16 -6,-8 -11,16 -2,-7 -10,-5 2,-7 11,-14 -13,-21 4,1 9,-24 -13,-12 123,-2 94,-2 65,-2 55,0 82,-3 82,-2 0,24 2,56 2,69 12,72 2,127 3,44 0,31 3,96 0,24 3,99 1,103 3,116 4,104 0,29 -90,2 -25,0 -80,3 -24,0 -102,3 -31,0 -133,4 -53,0 -41,1 -72,1 -103,2 -11,-4 -76,0 -50,2 -42,0 -75,1 -66,0 -27,1Z"/>
  </g>
  <g class="cities">
    <circle r="1" cx="122.3" cy="92.1"/>
    <text x="122.3" y="92.1">Salt Lake City</text>
    <circle r="1" cx="116.7" cy="96.6"/>
    <text x="116.7" y="96.6">West Valley City</text>
    <circle r="1" cx="133.9" cy="127.0"/>
    <text x="133.9" y="127.0">Provo</text>
  </g>
</svg>