<?xml version="1.0" encoding="utf-8"?>
<!DOCTYPE svg PUBLIC "-//W3C//DTD SVG 1.1//EN" "http://www.w3.org/Graphics/SVG/1.1/DTD/svg11.dtd">
<svg version="1.1" xmlns="http://www.w3.org/2000/svg" width="279" height="350" viewBox="0 0 279 350">
  <path class="state" transform="scale(0.1)" d="M1485,3412h-20h-310l-477,-5 -396,-7 -212,-6 9,-399 7,-125 5,-238 8,-280 8,-231 11,-411 6,-242 12,-391 12,-331 13,-431 6,-228 347,8h164l412,5h324l228,-1 2,495 2,167h283l239,-4 229,-5 247,-8 6,230 8,352 12,414 9,345v159l4,157 4,149 12,67 12,406v110l8,262 -311,9 -444,6 -8,-3 -471,5"/>
  <g class="counties" transform="scale(0.1)">
    <path data-fips-int="49001" data-name="Beaver County" d="M894,2367l-2,42 1,7 1,21 40,45 13,-11 39,58 -24,51 12,19 -47,50 -17,1 -350,-5 -85,-3 -384,-10 8,-280 285,5 66,4 235,1 98,5Z"/>
    <path data-fips-int="49003" data-name="Box Elder County" d="M1090,100l23,50 32,37 13,60 -12,55 17,23 17,83 31,-5 20,45 -19,3 15,29 -44,3 4,36 -32,20 -103,-1 -130,171 -154,48 -181,-1 -439,-10 13,-431 6,-228 347,8h164Z"/>
    <path data-fips-int="49005" data-name="Cache County" d="M1412,481v2l-78,-7 -18,14 -24,28 -57,-22 -8,-16 -15,-29 19,-3 -20,-45 -31,5 -17,-83 -17,-23 12,-55 -13,-60 -32,-37 -23,-50h324l18,49 -14,24v24l24,50 17,36 8,45 -14,23 -1,40 -36,67Z"/>
    <path data-fips-int="49007" data-name="Carbon County" d="M1745,1546l182,3 271,-3h41l-37,55 -16,-10 4,55 -25,63 8,60 -352,6h-186l-28,-95 -16,12 -30,-58 -13,-13v-72Z"/>
    <path data-fips-int="49009" data-name="Daggett County" d="M2650,974l-37,1 -21,-20 -1,-68h-20l-2,-47 -96,4 1,43 -44,37 -16,-10v-39l-59,-1 -24,13 -37,-3 -8,15 -52,11 -52,-28 -12,-3 -2,-122 229,-5 247,-8Z"/>
    <path data-fips-int="49011" data-name="Davis County" d="M1240,669l11,68 14,24 16,28h-20l18,42 19,23 -59,21 -40,4 -7,-14 -4,-51h-25l-71,50 -56,46 -114,-201 152,-51 112,3Z"/>
    <path data-fips-int="49013" data-name="Duchesne County" d="M2170,879l12,3 7,409 9,255 -271,3 -182,-3v-55h-17l-4,-150v-146l-4,-57 -1,-164 4,-32 34,10 37,-25 48,5 12,-18 35,5 95,-20 14,-24 44,-8 45,13Z"/>
    <path data-fips-int="49015" data-name="Emery County" d="M1561,1634l30,58 16,-12 28,95h186l352,-6v6h1l2,72 -27,55 8,31 -21,25 -8,62 -11,3 -5,52 77,30 -74,-10 8,36h-21l15,58 31,45 -12,30 38,70 23,2 -8,35 11,23 -16,18 -324,5 -340,2v-7l2,-123v-223l-1,-289h27v-156Z"/>
    <path data-fips-int="49017" data-name="Garfield County" d="M2238,2642l-19,26 -23,2 -30,48 -2,24 -32,-4 -36,44 -5,35 -97,6 -32,73 19,-3 -31,50 -6,37 -52,31 -24,40 -192,3h-436v2l-273,-2v-3l-170,-2v-174l57,1 -4,-58h63l-4,-56 1,-112 17,-1 314,1 223,-1h379Z"/>
    <path data-fips-int="49019" data-name="Grand County" d="M2670,1740l9,345v159l4,157 -214,6 -285,5 16,-18 -11,-23 8,-35 -23,-2 -38,-70 12,-30 -31,-45 -15,-58h21l-8,-36 74,10 -77,-30 5,-52 11,-3 8,-62 21,-25 -8,-31 27,-55 -2,-72 182,-6 285,-4 17,-25Z"/>
    <path data-fips-int="49021" data-name="Iron County" d="M910,2650l-1,112 4,56h-63l4,58 -57,-1v174l-115,-1v28h-70v15l-114,-7v-30l-115,-3v-60l-59,8 -245,-4 7,-125 5,-238 384,10 85,3Z"/>
    <path data-fips-int="49023" data-name="Juab County" d="M1051,1719h-208l-332,-7 -274,-5v5l-119,-2 6,-242 426,13 441,5ZM1052,1719l1,-2 15,47 -2,101 89,13 29,-15 22,-28 87,-2 -1,-51h17l-1,-156 66,-29v-30l-28,-18 -62,2 14,-37 -45,-55 -50,50 -52,60h-33l20,-75 -26,-23 5,-17 -43,-38 -43,47h-39Z"/>
    <path data-fips-int="49025" data-name="Kane County" d="M797,3049l170,2v3l273,2v-2h436l192,-3 -8,43 -30,-3 -15,18 25,14 -27,23 17,18 -29,33 -45,-18 13,33 -20,12 -12,72 -48,43 -30,6 -69,-1 -37,55 -8,-20 -27,25 -33,8h-20h-310l-477,-5 4,-331v-28Z"/>
    <path data-fips-int="49027" data-name="Millard County" d="M1052,1719l1,-2 15,47 -2,101 89,13v178l-2,34 -26,5v20h-34l-29,61h-19l3,90 -48,35 -71,-5 -35,71h-111l-98,-5 -235,-1 -66,-4 -285,-5 8,-231 11,-411 119,2v-5l274,5 332,7Z"/>
    <path data-fips-int="49029" data-name="Morgan County" d="M1521,544l16,20 -11,49 28,5 -18,48 -48,8 -9,30 -65,17 -43,46 11,22 24,3 -3,24 24,33 -17,36 -19,22 -20,-17 -25,5 -9,-35 -39,-6 -19,-23 -18,-42h20l-16,-28 -14,-24 -11,-68 -7,-33 47,-18 50,23 27,-12 14,-26 49,10 28,-44 9,-46 14,-9Z"/>
    <path data-fips-int="49031" data-name="Piute County" d="M1281,2417l-42,52 2,181 -314,-1 47,-50 -12,-19 24,-51 -39,-58 -13,11 -40,-45 -1,-21 -1,-7h198l37,8Z"/>
    <path data-fips-int="49033" data-name="Rich County" d="M1644,594l-46,42 -48,30h-14l18,-48 -28,-5 11,-49 -16,-20 -50,-30 -14,9 -27,-27 -18,-13v-2l4,-23 36,-67 1,-40 14,-23 -8,-45 -17,-36 -24,-50v-24l14,-24 -18,-49 228,-1Z"/>
    <path data-fips-int="49035" data-name="Salt Lake County" d="M1192,865l7,14 40,-4 59,-21 39,6 9,35 25,64v35l22,28 -22,20 -41,30 -42,1 -47,39 -25,5 -40,31 -21,-20 -75,-13 -2,-92 -10,-15v-48l-32,-50 56,-46 71,-50h25Z"/>
    <path data-fips-int="49039" data-name="Sanpete County" d="M1548,1549v72v156h-27l1,289h-242l-41,-10h-84v-178l29,-15 22,-28 87,-2 -1,-51h17l-1,-156 66,-29v-30l-28,-18Z"/>
    <path data-fips-int="49041" data-name="Sevier County" d="M1522,2066v223l-2,123h-234l-5,5h-154l-37,-8h-198l2,-42 35,-71 71,5 48,-35 -3,-90h19l29,-61h34v-20l26,-5 2,-34h84l41,10Z"/>
    <path data-fips-int="49043" data-name="Summit County" d="M1644,594l2,167h283l239,-4 2,122 -83,1 -45,-13 -44,8 -14,24 -95,20 -35,-5 -12,18 -48,-5 -37,25 -34,-10 -4,32 -19,5 -11,44 -39,19 -41,-9 -15,27 -113,-55 -9,-38 -38,30 -10,31 -31,-6 -22,-28v-35l-25,-64 25,-5 20,17 19,-22 17,-36 -24,-33 3,-24 -24,-3 -11,-22 43,-46 65,-17 9,-30 48,-8h14l48,-30Z"/>
    <path data-fips-int="49045" data-name="Tooele County" d="M991,1483v3l-441,-5 -426,-13 12,-391 12,-331 439,10 181,1 154,-48 114,201 32,50v48l10,15 2,92 -21,8 10,127 21,33 2,27h-4l1,43 -16,26 1,37 -43,47h-39Z"/>
    <path data-fips-int="49047" data-name="Uintah County" d="M2650,974l8,352 12,414h-12l-17,25 -285,4 -182,6h-1v-6l-8,-60 25,-63 -4,-55 16,10 37,-55h-41l-9,-255 -7,-409 52,28 52,-11 8,-15 37,3 24,-13 59,1v39l16,10 44,-37 -1,-43 96,-4 2,47h20l1,68 21,20Z"/>
    <path data-fips-int="49049" data-name="Utah County" d="M1542,1293l16,23 -10,78 19,-1 20,38 44,32v28h97h17v55l-197,3h-202l-62,2 14,-37 -45,-55 -50,50 -52,60h-33l20,-75 -26,-23 5,-17 -43,-38 -1,-37 16,-26 -1,-43h4l-2,-27 -21,-33 -10,-127 21,-8 75,13 21,20 40,-31 25,-5 47,-39 42,-1 41,-30 12,21 -2,40 -24,20 34,62h37l21,26 -6,20 71,4 24,30Z"/>
    <path data-fips-int="49051" data-name="Wasatch County" d="M1719,974l1,164 4,57v146l4,150h-97v-28l-44,-32 -20,-38 -19,1 10,-78 -16,-23 -4,-28 -24,-30 -71,-4 6,-20 -21,-26h-37l-34,-62 24,-20 2,-40 -12,-21 22,-20 31,6 10,-31 38,-30 9,38 113,55 15,-27 41,9 39,-19 11,-44Z"/>
    <path data-fips-int="49053" data-name="Washington County" d="M682,3076l-4,331 -396,-7 -212,-6 9,-399 245,4 59,-8v60l115,3v30l114,7v-15Z"/>
    <path data-fips-int="49055" data-name="Wayne County" d="M2184,2412l12,10v44l-15,18 44,36 -7,12 41,85 -21,25 -395,7h-379l-223,1 -2,-181 42,-52 5,-5h234v7l340,-2Z"/>
    <path data-fips-int="49057" data-name="Weber County" d="M1227,480l8,16 57,22 24,-28 18,-14 78,7 18,13 27,27 -9,46 -28,44 -49,-10 -14,26 -27,12 -50,-23 -47,18 7,33 -54,-8 -112,-3 -152,51 130,-171 103,1 32,-20 -4,-36Z"/>
    <path data-fips-int="49037" data-name="San Juan County" d="M1485,3412h-20h20l33,-8 27,-25 8,20 37,-55 69,1 30,-6 48,-43 12,-72 20,-12 -13,-33 45,18 29,-33 -17,-18 27,-23 -25,-14 15,-18 30,3 8,-43 24,-40 52,-31 6,-37 31,-50 -19,3 32,-73 97,-6 5,-35 36,-44 32,4 2,-24 30,-48 23,-2 19,-26 21,-25 -41,-85 7,-12 -44,-36 15,-18v-44l-12,-10 285,-5 214,-6 4,149 12,67 12,406v110l8,262 -311,9 -444,6 -8,-3Z"/>
  </g>
  <path class="mesh" transform="scale(0.1)" d="M2650,974l-37,1 -21,-20 -1,-68h-20l-2,-47 -96,4 1,43 -44,37 -16,-10v-39l-59,-1 -24,13 -37,-3 -8,15 -52,11 -52,-28 -12,-3 -2,-122M1090,100l23,50 32,37 13,60 -12,55 17,23 17,83 31,-5 20,45 -19,3 15,29 -44,3 4,36 -32,20 -103,-1 -130,171 -154,48 -181,-1 -439,-10M1745,1546v-55h-17l-4,-150v-146l-4,-57 -1,-164 4,-32 34,10 37,-25 48,5 12,-18 35,5 95,-20 14,-24 44,-8 45,13 83,-1M2174,1775l182,-6 285,-4 17,-25h12M797,3049l-115,-1v28h-70v15l-114,-7v-30l-115,-3v-60l-59,8 -245,-4M1051,1719h-208l-332,-7 -274,-5v5l-119,-2M124,1468l426,13 441,5v-3M1414,100l18,49 -14,24v24l24,50 17,36 8,45 -14,23 -1,40 -36,67 -4,23v2l-78,-7 -18,14 -24,28 -57,-22 -8,-16M1052,1719l1,-2 15,47 -2,101 89,13 29,-15 22,-28 87,-2 -1,-51h17l-1,-156 66,-29v-30l-28,-18 -62,2 14,-37 -45,-55 -50,50 -52,60h-33l20,-75 -26,-23 5,-17 -43,-38 -43,47h-39l-1,18M1868,3051l-8,43 -30,-3 -15,18 25,14 -27,23 17,18 -29,33 -45,-18 13,33 -20,12 -12,72 -48,43 -30,6 -69,-1 -37,55 -8,-20 -27,25 -33,8h-20M678,3407l4,-331M1240,669l11,68 14,24 16,28h-20l18,42 19,23 -59,21 -40,4 -7,-14 -4,-51h-25l-71,50 -56,46 -114,-201 152,-51 112,3 54,8 -7,-33 47,-18 50,23 27,-12 14,-26 49,10 28,-44 9,-46 14,-9 50,30 16,20 -11,49 28,5 -18,48 -48,8 -9,30 -65,17 -43,46 11,22 24,3 -3,24 24,33 -17,36 -19,22 -20,-17 -25,5 -9,-35 -39,-6M892,2409h198l37,8h154l-42,52 2,181M1644,594l-46,42 -48,30h-14M927,2649l-17,1 -350,-5 -85,-3 -384,-10M1457,523l-27,-27 -18,-13M1346,895l25,64v35l22,28 -22,20 -41,30 -42,1 -47,39 -25,5 -40,31 -21,-20 -75,-13 -2,-92 -10,-15v-48l-32,-50M1522,2066h-242l-41,-10h-84M1520,2412h-234l-5,5M99,2352l285,5 66,4 235,1 98,5h111M1719,974l-19,5 -11,44 -39,19 -41,-9 -15,27 -113,-55 -9,-38 -38,30 -10,31 -31,-6M1080,1115l-21,8 10,127 21,33 2,27h-4l1,43 -16,26 1,37M2173,1769l-352,6h-186l-28,-95 -16,12 -30,-58 -13,-13v-72l197,-3 182,3 271,-3h41l-37,55 -16,-10 4,55 -25,63 8,60v6h1l2,72 -27,55 8,31 -21,25 -8,62 -11,3 -5,52 77,30 -74,-10 8,36h-21l15,58 31,45 -12,30 38,70 23,2 -8,35 11,23 -16,18 -324,5 -340,2v-7l2,-123v-223l-1,-289h27v-156M1371,1042l12,21 -2,40 -24,20 34,62h37l21,26 -6,20 71,4 24,30 4,28 16,23 -10,78 19,-1 20,38 44,32v28h97M2683,2401l-214,6 -285,5 12,10v44l-15,18 44,36 -7,12 41,85 -21,25M2182,882l7,409 9,255M1155,1878v178l-2,34 -26,5v20h-34l-29,61h-19l3,90 -48,35 -71,-5 -35,71 -2,42 1,7 1,21 40,45 13,-11 39,58 -24,51 12,19 -47,50 314,1 223,-1h379l395,-7 -19,26 -23,2 -30,48 -2,24 -32,-4 -36,44 -5,35 -97,6 -32,73 19,-3 -31,50 -6,37 -52,31 -24,40 -192,3h-436v2l-273,-2v-3l-170,-2v-174l57,1 -4,-58h63l-4,-56 1,-112M1346,1549h202"/>
  <g class="cities">
    <circle r="3" cx="122.3" cy="92.1"/>
    <text x="122.3" y="92.1">Salt Lake City</text>
    <circle r="3" cx="133.9" cy="127.0"/>
    <text x="133.9" y="127.0">Provo</text>
    <circle r="3" cx="118.2" cy="61.5"/>
    <text x="118.2" y="61.5">Ogden</text>
  </g>
</svg>