<?xml version="1.0" encoding="utf-8"?>
<!DOCTYPE svg PUBLIC "-//W3C//DTD SVG 1.1//EN" "http://www.w3.org/Graphics/SVG/1.1/DTD/svg11.dtd">
<svg version="1.1" xmlns="http://www.w3.org/2000/svg" width="279" height="350" viewBox="0 0 279 350">
  <defs>
    <pattern id="pattern-no-results" width="50" height="50" patternUnits="userSpaceOnUse">
      <rect width="50" height="50" fill="#ddd"/>
      <path d="M-5,5L5,-5M-5,55L55,-5M45,55L55,45" stroke-width="10" stroke="#666666"/>
    </pattern>
  </defs>
  <g class="counties" transform="scale(0.1)">
    <path data-fips-int="49001" data-name="Beaver County" d="M894,2367l-2,42 1,7 41,66 13,-11 39,58 -24,51 12,19 -47,50 -17,1 -350,-5 -469,-13 8,-280 351,9Z"/>
    <path data-fips-int="49003" data-name="Box Elder County" d="M1090,100l55,87 13,60 -12,55 17,23 17,83 31,-5 16,77 -44,3 4,36 -32,20 -103,-1 -130,171 -154,48 -181,-1 -439,-10 19,-659 347,8Z"/>
    <path data-fips-int="49005" data-name="Cache County" d="M1412,481l0,2 -78,-7 -18,14 -24,28 -65,-38 -16,-77 -31,5 -17,-83 -17,-23 12,-55 -13,-60 -55,-87 324,0 18,49 -14,24 24,74 25,81 -15,63Z"/>
    <path data-fips-int="49007" data-name="Carbon County" d="M1745,1546l182,3 271,-3 41,0 -37,55 -37,108 8,60 -538,6 -28,-95 -16,12 -30,-58 -13,-13 0,-72Z"/>
    <path data-fips-int="49009" data-name="Daggett County" d="M2650,974l-58,-19 -1,-68 -22,-47 -96,4 1,43 -44,37 -16,-49 -59,-1 -121,36 -52,-28 -12,-3 -2,-122 476,-13Z"/>
    <path data-fips-int="49011" data-name="Davis County" d="M1240,669l11,68 14,24 14,70 19,23 -59,21 -40,4 -7,-14 -4,-51 -25,0 -127,96 -114,-201 152,-51Z"/>
    <path data-fips-int="49013" data-name="Duchesne County" d="M2170,879l12,3 7,409 9,255 -271,3 -182,-3 -17,-55 -9,-517 4,-32 34,10 37,-25 48,5 142,-33 58,-32 45,13Z"/>
    <path data-fips-int="49015" data-name="Emery County" d="M1561,1634l30,58 16,-12 28,95 538,-6 0,6 1,0 2,72 -27,55 -37,173 77,30 -74,-10 -13,36 15,58 31,45 -12,30 53,107 -5,41 -324,5 -340,2 0,-7 2,-346 -1,-289 27,0 0,-156Z"/>
    <path data-fips-int="49017" data-name="Garfield County" d="M2238,2642l-42,28 -32,72 -32,-4 -36,44 -5,35 -97,6 -32,73 -18,84 -52,31 -24,40 -192,3 -709,0 -170,-5 0,-174 57,1 -4,-58 63,0 -3,-168 17,-1 314,1 602,-1Z"/>
    <path data-fips-int="49019" data-name="Grand County" d="M2670,1740l9,345 4,316 -499,11 5,-41 -53,-107 12,-30 -31,-45 -15,-58 13,-36 74,10 -77,-30 37,-173 27,-55 -2,-72 -1,0 1,0 467,-10 17,-25Z"/>
    <path data-fips-int="49021" data-name="Iron County" d="M910,2650l3,168 -63,0 4,58 -57,-1 0,174 -115,-1 0,28 -70,0 0,15 -114,-7 0,-30 -115,-3 0,-60 -59,8 -245,-4 12,-363 469,13Z"/>
    <path data-fips-int="49023" data-name="Juab County" d="M1074,1416l64,78 -20,75 33,0 52,-60 50,-50 45,55 -14,37 62,-2 28,48 -66,29 1,156 -16,51 -87,2 -51,43 -89,-13 2,-101 -15,-47 -1,2 -1,0 1,0 -1,0 -208,0 -606,-12 -119,3 6,-242 426,13 441,5 0,-3 0,-2 0,2 0,-2 40,-18Z"/>
    <path data-fips-int="49025" data-name="Kane County" d="M797,3049l170,5 709,0 192,-3 -8,43 -59,103 -45,-18 -19,117 -48,43 -99,5 -37,55 -8,-20 -60,33 -20,0 -310,0 -477,-5 4,-331 0,-28Z"/>
    <path data-fips-int="49027" data-name="Millard County" d="M1155,1878l0,178 -28,59 -34,0 -29,61 -19,0 3,90 -48,35 -71,-5 -35,71 -444,-6 -351,-9 19,-642 119,-3 606,12 208,0 1,0 -1,0 1,0 1,-2 15,47 -2,101Z"/>
    <path data-fips-int="49029" data-name="Morgan County" d="M1521,544l5,69 28,5 -18,48 -48,8 -9,30 -65,17 -43,46 11,22 45,60 -17,36 -19,22 -45,-12 -9,-35 -39,-6 -19,-23 -14,-70 -14,-24 -11,-68 -7,-33 47,-18 50,23 41,-38 49,10 37,-90Z"/>
    <path data-fips-int="49031" data-name="Piute County" d="M1281,2417l-42,52 2,181 -314,-1 47,-50 -12,-19 24,-51 -39,-58 -13,11 -41,-66 -1,-7 198,0 37,8Z"/>
    <path data-fips-int="49033" data-name="Rich County" d="M1644,594l-46,42 -62,30 18,-48 -28,-5 -5,-69 -64,-21 -27,-27 -18,-13 0,-2 40,-90 15,-63 -25,-81 -24,-74 14,-24 -18,-49 228,-1Z"/>
    <path data-fips-int="49035" data-name="Salt Lake County" d="M1192,865l7,14 40,-4 59,-21 39,6 9,35 47,127 -22,20 -41,30 -42,1 -47,39 -65,36 -21,-20 -75,-13 -12,-155 -32,-50 127,-96 25,0Z"/>
    <path data-fips-int="49039" data-name="Sanpete County" d="M1548,1549l0,72 0,156 -27,0 1,289 -242,0 -125,-10 0,-178 51,-43 87,-2 16,-51 -1,-156 66,-29 -28,-48Z"/>
    <path data-fips-int="49041" data-name="Sevier County" d="M1522,2066l-2,346 -234,0 -5,5 -154,0 -37,-8 -198,0 2,-42 35,-71 71,5 48,-35 -3,-90 19,0 29,-61 34,0 28,-59 125,10Z"/>
    <path data-fips-int="49043" data-name="Summit County" d="M1644,594l2,167 283,0 239,-4 2,122 -83,1 -45,-13 -58,32 -142,33 -48,-5 -37,25 -34,-10 -4,32 -30,49 -39,19 -41,-9 -15,27 -113,-55 -9,-38 -48,61 -31,-6 -47,-127 45,12 19,-22 17,-36 -45,-60 -11,-22 43,-46 65,-17 9,-30 48,-8 62,-30Z"/>
    <path data-fips-int="49045" data-name="Tooele County" d="M1036,910l32,50 12,155 -21,8 10,127 23,60 -4,0 -14,106 -43,47 -40,18 0,2 0,-2 0,2 0,3 -441,-5 -426,-13 12,-391 12,-331 439,10 181,1 154,-48Z"/>
    <path data-fips-int="49047" data-name="Uintah County" d="M2650,974l20,766 -12,0 -17,25 -467,10 -1,0 0,-6 -8,-60 37,-108 37,-55 -41,0 -9,-255 -7,-409 52,28 121,-36 59,1 16,49 44,-37 -1,-43 96,-4 22,47 1,68Z"/>
    <path data-fips-int="49049" data-name="Utah County" d="M1542,1293l16,23 -10,78 83,69 0,28 97,0 17,55 -197,3 -202,0 -62,2 14,-37 -45,-55 -50,50 -52,60 -33,0 20,-75 -64,-78 14,-106 4,0 -23,-60 -10,-127 21,-8 75,13 21,20 65,-36 47,-39 42,-1 41,-30 10,61 -24,20 34,62 37,0 15,46 71,4Z"/>
    <path data-fips-int="49051" data-name="Wasatch County" d="M1719,974l9,517 -97,0 0,-28 -83,-69 10,-78 -16,-23 -28,-58 -71,-4 -15,-46 -37,0 -34,-62 24,-20 -10,-61 22,-20 31,6 48,-61 9,38 113,55 15,-27 41,9 39,-19Z"/>
    <path data-fips-int="49053" data-name="Washington County" d="M682,3076l-4,331 -396,-7 -212,-6 9,-399 245,4 59,-8 0,60 115,3 0,30 114,7 0,-15Z"/>
    <path data-fips-int="49055" data-name="Wayne County" d="M2184,2412l-3,72 37,48 41,85 -21,25 -395,7 -602,1 -2,-181 42,-52 5,-5 234,0 0,7 340,-2Z"/>
    <path data-fips-int="49057" data-name="Weber County" d="M1227,480l65,38 24,-28 18,-14 78,7 0,-2 0,2 18,13 27,27 -37,90 -49,-10 -41,38 -50,-23 -47,18 7,33 -166,-11 -152,51 130,-171 103,1 32,-20 -4,-36Z"/>
    <path data-fips-int="49037" data-name="San Juan County" d="M1485,3412l-20,0 20,0 60,-33 8,20 37,-55 99,-5 48,-43 19,-117 45,18 59,-103 8,-43 24,-40 52,-31 18,-84 32,-73 97,-6 5,-35 36,-44 32,4 32,-72 42,-28 21,-25 -41,-85 -37,-48 3,-72 499,-11 4,149 12,67 12,406 8,372 -311,9 -444,6 -8,-3Z"/>
  </g>
  <g class="cities">
    <circle r="3" cx="122.3" cy="92.1"/>
    <text x="122.3" y="92.1">Salt Lake City</text>
    <circle r="3" cx="116.8" cy="96.6"/>
    <text x="116.8" y="96.6">West Valley City</text>
    <circle r="3" cx="133.9" cy="127.0"/>
    <text x="133.9" y="127.0">Provo</text>
  </g>
</svg>