<?xml version="1.0" encoding="utf-8"?>
<!DOCTYPE svg PUBLIC "-//W3C//DTD SVG 1.1//EN" "http://www.w3.org/Graphics/SVG/1.1/DTD/svg11.dtd">
<svg version="1.1" xmlns="http://www.w3.org/2000/svg" width="350" height="153" viewBox="0 0 350 153">
  <defs>
    <pattern id="pattern-no-results" width="50" height="50" patternUnits="userSpaceOnUse">
      <rect width="50" height="50" fill="#ddd"/>
      <path d="M-5,5L5,-5M-5,55L55,-5M45,55L55,45" stroke-width="10" stroke="#666666"/>
    </pattern>
  </defs>
  <g class="counties" transform="scale(0.1)">
    <path data-fips-int="51007" data-name="Amelia County" d="M2347,1018l32,5 3,12 15,16 -8,26 55,47 35,1 -12,15 -3,7 -42,15 -173,-49 -1,-35 30,-43 10,-1Z"/>
    <path data-fips-int="51009" data-name="Amherst County" d="M1937,914l10,1 10,11 35,65 6,2 -1,1 -9,4 -50,52 -25,17 -40,-35 -63,-28 -36,-46 8,-5 20,-9 41,-74 35,-5 0,-1 40,14Z"/>
    <path data-fips-int="51011" data-name="Appomattox County" d="M2091,1071l15,-7 -5,31 -28,44 -2,0 -20,13 -35,9 -36,-19 -42,-92 50,-52 9,-4 1,-1 17,-3 0,-1 0,1Z"/>
    <path data-fips-int="51017" data-name="Bath County" d="M1634,635l111,43 29,11 -17,35 -68,107 -60,-5 -48,-36 -50,0 51,-76 4,-40Z"/>
    <path data-fips-int="51021" data-name="Bland County" d="M1165,1113l-7,6 47,55 8,12 -23,37 -87,16 -36,-6 -64,46 -21,-29 -3,-15 6,-1 0,-1 0,1 0,-1 63,-22 -23,-30 27,-32 16,-9Z"/>
    <path data-fips-int="51023" data-name="Botetourt County" d="M1680,885l-3,50 43,34 0,1 0,-1 0,1 30,29 -33,40 -38,-15 -67,85 -90,-56 40,-60 -18,-51 40,-25 42,-51Z"/>
    <path data-fips-int="51025" data-name="Brunswick County" d="M2362,1264l12,3 12,-3 1,0 15,-2 77,47 3,90 -43,83 -111,3 6,-116 7,-121Z"/>
    <path data-fips-int="51027" data-name="Buchanan County" d="M865,1134l-18,20 -46,26 -9,5 -8,2 -2,0 -3,0 -2,0 -13,0 -50,42 -8,-1 -4,0 -1,-1 5,-11 -65,-118 138,-115 -12,36 54,90Z"/>
    <path data-fips-int="51029" data-name="Buckingham County" d="M2244,918l-3,27 -83,148 -8,1 -32,-14 -2,1 -10,-17 -15,7 -76,-81 0,-1 0,-34 41,-8 29,-48 60,-32 0,-1 11,20Z"/>
    <path data-fips-int="51031" data-name="Campbell County" d="M1938,1050l42,92 36,19 -31,91 -73,-20 -55,-18 -45,-14 -40,35 0,1 0,-1 73,-148 27,6 41,-26Z"/>
    <path data-fips-int="51033" data-name="Caroline County" d="M2595,636l83,45 2,8 2,0 1,2 -23,24 37,57 0,1 0,-1 -42,9 2,29 0,1 -63,51 -30,-9 -2,-25 -32,-20 -54,-43 0,-1 103,-128Z"/>
    <path data-fips-int="51035" data-name="Carroll County" d="M1364,1405l0,18 -61,25 3,32 -90,-2 -30,-45 0,-1 5,-6 -1,-13 0,-2 0,2 0,-2 -10,10 -43,-68 119,-33 25,-14 19,-12Z"/>
    <path data-fips-int="51036" data-name="Charles City County" d="M2688,1027l14,6 8,5 3,0 0,-1 0,1 0,-1 2,1 2,0 5,0 48,24 13,5 -1,9 -15,57 -40,-37 -24,19 -73,-23 5,-16 0,-12 0,-5 0,-1 0,1 0,-1 0,1 5,4 4,0 0,1 0,-1 0,1 5,-2 13,-54Z"/>
    <path data-fips-int="51037" data-name="Charlotte County" d="M2071,1165l37,25 3,2 20,0 37,30 -20,93 -60,96 -18,-21 10,-47 -60,-73 -35,-18 31,-91 35,-9 20,-13 2,0 -2,0Z"/>
    <path data-fips-int="51041" data-name="Chesterfield County" d="M2497,980l40,45 2,2 5,0 23,6 3,13 2,-1 2,0 -2,0 2,0 1,9 4,0 -4,0 4,0 31,8 0,39 -8,-2 -15,32 0,2 -7,3 -5,0 0,1 0,-1 5,0 7,-5 -5,-19 -2,2 -11,9 0,1 0,-1 0,1 0,-1 1,0 0,16 -11,5 -39,0 -41,-19 -35,-1 -55,-47 8,-26 79,-74Z"/>
    <path data-fips-int="51043" data-name="Clarke County" d="M2392,201l-15,26 -10,12 -25,21 -16,17 -57,-27 44,-114Z"/>
    <path data-fips-int="51045" data-name="Craig County" d="M1522,1053l-73,40 -26,-13 -44,25 -15,-54 70,-41 -10,-28 42,-31 17,6 13,9 48,-24 18,51Z"/>
    <path data-fips-int="51047" data-name="Culpeper County" d="M2382,467l52,89 40,1 7,21 -34,4 -28,-4 -30,-6 -93,37 -2,-37 -3,-13 -2,0 -3,-2 -45,-57 12,0 103,-83Z"/>
    <path data-fips-int="51049" data-name="Cumberland County" d="M2274,888l35,46 -5,8 -16,92 -10,1 -30,43 -5,4 -20,18 -22,9 0,1 0,-1 -22,-6 -14,-7 -7,-3 83,-148 3,-27Z"/>
    <path data-fips-int="51051" data-name="Dickenson County" d="M701,1227l-5,2 -32,17 -35,15 -18,-3 0,-1 0,1 0,-1 -40,-24 -3,-9 -25,-81 98,-45 65,118Z"/>
    <path data-fips-int="51053" data-name="Dinwiddie County" d="M2520,1144l39,0 0,17 20,9 3,88 -86,59 -17,-8 -77,-47 -15,2 -3,-78 38,-24 42,-15 3,-7 12,-15Z"/>
    <path data-fips-int="51057" data-name="Essex County" d="M2851,865l-26,21 -15,-30 -58,6 -19,-27 -23,-44 -13,-18 0,-1 -37,-57 23,-24 -1,-2 -2,0 -2,-8 19,-6 3,2 15,34 38,7 0,45Z"/>
    <path data-fips-int="51061" data-name="Fauquier County" d="M2461,293l-22,55 73,135 -38,44 0,30 -40,-1 -52,-89 -26,-50 -4,0 -13,-3 -16,-25 -4,-11 -21,-23 -20,-20 48,-58 16,-17Z"/>
    <path data-fips-int="51063" data-name="Floyd County" d="M1499,1202l0,-1 0,59 -8,27 -2,1 -31,37 -14,5 -1,1 -15,8 -64,66 -64,-111 34,-25 12,-13 68,-5 67,-45 2,2Z"/>
    <path data-fips-int="51065" data-name="Fluvanna County" d="M2313,811l-39,77 -30,30 -88,-32 -11,-20 0,1 0,-1 71,-105Z"/>
    <path data-fips-int="51067" data-name="Franklin County" d="M1646,1164l33,22 33,57 -18,92 -14,12 -5,2 -29,19 -4,-3 -5,-2 -86,-16 -17,18 -12,-24 -64,-16 31,-37 2,-1 8,-27 0,-59 0,1 0,-1 5,-4 35,-21 27,19 28,-32 18,-11 5,0 12,4 3,-2Z"/>
    <path data-fips-int="51071" data-name="Giles County" d="M1364,1051l15,54 -66,34 -100,47 -8,-12 -47,-55 7,-6 51,-26 -3,-41 35,29 101,-53Z"/>
    <path data-fips-int="51073" data-name="Gloucester County" d="M2876,953l2,1 2,1 30,9 1,3 40,23 -1,31 -7,42 33,49 -45,11 -83,-98 12,-6 10,-6 0,-1 0,1 0,-1 0,-4 -5,-61Z"/>
    <path data-fips-int="51075" data-name="Goochland County" d="M2417,896l65,10 -5,46 5,6 -8,18 2,1 -2,-1 -103,-61 -25,35 -37,-16 -35,-46 39,-77 44,28 19,39Z"/>
    <path data-fips-int="51077" data-name="Grayson County" d="M1137,1353l43,68 -4,0 -1,1 11,11 0,-1 0,1 30,45 -334,-21 12,-12 16,-12 34,-34 104,-25 70,-1 17,-18Z"/>
    <path data-fips-int="51079" data-name="Greene County" d="M2193,620l28,10 -32,43 -114,-45 43,-28 25,-44 8,-13 5,-13 0,-1 0,1Z"/>
    <path data-fips-int="51083" data-name="Halifax County" d="M1985,1252l35,18 60,73 -10,47 18,21 37,31 1,3 -1,-3 -39,-26 -20,17 -3,6 -2,26 -5,10 -1,15 -193,0 50,-258Z"/>
    <path data-fips-int="51085" data-name="Hanover County" d="M2469,764l7,0 0,1 54,43 32,20 2,25 30,9 8,27 5,0 28,4 22,19 8,10 3,0 7,0 7,19 -43,42 0,1 0,-1 0,1 1,1 0,2 0,-2 -70,-30 -25,-40 -3,2 -17,-8 -11,8 -2,0 -2,1 -28,-12 -65,-10 40,-140Z"/>
    <path data-fips-int="51087" data-name="Henrico County" d="M2510,918l2,-1 2,0 11,-8 17,8 3,-2 25,40 70,30 0,2 5,1 0,1 0,-1 0,1 17,19 -13,54 -5,2 0,-1 0,1 0,-1 -4,0 -5,-4 0,-1 0,1 0,-1 0,1 0,5 -6,8 0,2 0,1 0,1 -2,2 -17,-16 -31,-8 -4,0 4,0 -4,0 -1,-9 -2,0 2,0 -2,0 -2,1 -3,-13 8,-51 -16,-24 -22,9 -15,-1 -2,1 -1,5 5,5 -27,3 -21,-3 -2,-1 8,-18 -5,-6 5,-46Z"/>
    <path data-fips-int="51091" data-name="Highland County" d="M1822,563l-33,59 -44,56 -111,-43 -5,-21 46,-60 17,-80 43,20 24,47Z"/>
    <path data-fips-int="51093" data-name="Isle of Wight County" d="M2928,1291l-5,-4 -138,139 -5,-2 -5,-26 0,1 0,-1 0,1 -2,0 0,-4 0,-1 2,-4 0,-1 3,-10 19,-44 10,-21 3,-5 2,-2 -4,-19 -1,1 -10,-38 56,-32 10,-24 2,-17 5,43 71,42Z"/>
    <path data-fips-int="51095" data-name="James City County" d="M2838,1112l30,10 -8,-7 8,7 13,9 15,8 -6,24 -14,-25 -40,16 -51,-25 -3,-53 1,-9 -13,-5 3,-3 5,-24 39,-4 3,1 2,0 1,-1 2,0 -2,0 2,0 0,-2 2,-2 -2,-3 0,-1 0,1 0,-1 2,-1 0,-1 0,1 1,-1 33,43 -3,0 -3,1 -2,1 2,-1 -2,0 0,1 -2,0 -3,1 -7,26 0,3 2,0 -2,0 0,-3 -3,5 0,14Z"/>
    <path data-fips-int="51097" data-name="King and Queen County" d="M2697,772l0,1 13,18 23,44 19,27 58,-6 15,30 26,51 14,10 5,61 0,4 0,1 0,-1 0,1 -10,6 -12,6 -31,-58 -5,-10 -50,-52 -45,-11 -27,-31 -3,-14 -14,-25 -5,-1 -4,-4 1,-4 -6,-5 -2,1 0,-1 -2,-29Z"/>
    <path data-fips-int="51099" data-name="King George County" d="M2712,622l-5,4 -9,49 -1,0 -19,6 -83,-45 0,-46 120,-20Z"/>
    <path data-fips-int="51101" data-name="King William County" d="M2657,811l0,-1 0,1 2,-1 6,5 -1,4 4,4 5,1 14,25 3,14 27,31 45,11 50,52 5,10 -75,15 0,-1 0,-2 5,-18 -54,-15 -11,-5 -7,-19 -7,0 -3,0 -8,-10 -22,-19 -28,-4 -5,0 -8,-27Z"/>
    <path data-fips-int="51105" data-name="Lee County" d="M450,1339l-22,33 -52,29 -16,37 -273,-15 58,-29 160,-31 27,-55 78,-16Z"/>
    <path data-fips-int="51107" data-name="Loudoun County" d="M2587,234l-78,106 -5,0 -7,-20 -6,-2 -30,-25 -119,-33 25,-21 10,-12 15,-26 40,-95 62,9 40,35 -24,54 24,22Z"/>
    <path data-fips-int="51109" data-name="Louisa County" d="M2332,694l10,9 2,0 8,1 2,0 10,1 5,2 48,16 9,12 10,7 5,8 10,5 6,1 -40,140 -41,-18 -19,-39 -44,-28 -97,-50 37,-63 23,-3 18,-6Z"/>
    <path data-fips-int="51111" data-name="Lunenburg County" d="M2248,1201l11,18 7,1 13,15 40,18 22,-5 -7,121 -85,-14 -101,-40 20,-93 55,-11Z"/>
    <path data-fips-int="51113" data-name="Madison County" d="M2241,500l45,57 3,2 2,0 3,13 2,37 -12,16 -21,9 1,0 -43,-4 -28,-10 -37,-90 0,-1 5,-26 30,-42 2,0 6,-7Z"/>
    <path data-fips-int="51117" data-name="Mecklenburg County" d="M2249,1355l85,14 -6,116 -273,5 1,-15 5,-10 2,-26 3,-6 20,-17 39,26 1,3 -1,-3 -37,-31 60,-96Z"/>
    <path data-fips-int="51121" data-name="Montgomery County" d="M1449,1093l29,58 3,55 -67,45 -68,5 -12,13 -4,-48 -9,-5 4,-1 13,-12 0,2 0,-2 3,2 3,-6 2,0 -2,-12 -31,-48 66,-34 44,-25Z"/>
    <path data-fips-int="51125" data-name="Nelson County" d="M2070,886l15,13 -29,48 -41,8 0,34 0,1 -17,3 -1,1 1,-1 -6,-2 -35,-65 -10,-11 -10,-1 -19,-36 -40,-14 0,1 0,-1 5,-42 32,-12 28,16 55,-73 10,-10Z"/>
    <path data-fips-int="51127" data-name="New Kent County" d="M2693,946l54,15 -5,18 0,2 0,1 56,-5 29,44 1,0 -1,1 0,-1 0,1 -2,1 0,1 0,-1 0,1 2,3 -2,2 0,2 -2,0 2,0 -2,0 -1,1 -2,0 -3,-1 -39,4 -5,24 -3,3 -48,-24 -5,0 -2,0 -2,-1 0,1 0,-1 0,1 -3,0 -8,-5 -14,-6 -26,-19 -17,-19 0,-1 0,1 0,-1 -5,-1 0,-2 -1,-1 0,-1 0,1 0,-1 43,-42Z"/>
    <path data-fips-int="51135" data-name="Nottoway County" d="M2422,1162l-38,24 3,78 -1,0 -12,3 -12,-3 -21,-16 -22,5 -40,-18 -13,-15 -7,-1 -11,-18 1,-88Z"/>
    <path data-fips-int="51137" data-name="Orange County" d="M2447,582l-95,122 -8,-1 -2,0 -10,-9 -38,-5 -18,6 -23,3 -64,-25 32,-43 43,4 -1,0 21,-9 12,-16 93,-37 30,6Z"/>
    <path data-fips-int="51139" data-name="Page County" d="M2219,388l-20,66 -6,7 -2,0 -30,42 -5,26 0,1 -5,13 -8,13 -47,-19 -33,-25 18,-46 39,-66 59,-47Z"/>
    <path data-fips-int="51141" data-name="Patrick County" d="M1534,1365l-17,3 12,122 -223,-10 -3,-32 61,-25 0,-18 64,-66 15,-8 1,-1 14,-5 64,16Z"/>
    <path data-fips-int="51143" data-name="Pittsylvania County" d="M1857,1214l55,18 -50,258 -50,1 0,-10 3,-6 -6,-13 -27,-6 -30,-1 -7,9 19,15 -4,12 -96,-1 30,-155 18,-92 45,18 15,-25 0,-1 40,-35Z"/>
    <path data-fips-int="51145" data-name="Powhatan County" d="M2474,976l2,1 -79,74 -15,-16 -3,-12 -32,-5 -59,16 16,-92 5,-8 37,16 25,-35Z"/>
    <path data-fips-int="51147" data-name="Prince Edward County" d="M2116,1081l2,-1 32,14 8,-1 7,3 14,7 22,6 0,1 0,-1 22,-9 20,-18 5,-4 1,35 -1,88 -25,10 -55,11 -37,-30 -20,0 -3,-2 -37,-25 0,-26 2,0 28,-44 5,-31Z"/>
    <path data-fips-int="51149" data-name="Prince George County" d="M2604,1109l0,16 31,-17 62,-9 36,36 -3,0 -7,17 -48,45 -93,61 -3,-88 8,-37 0,-2 15,-32Z"/>
    <path data-fips-int="51155" data-name="Pulaski County" d="M1344,1187l-23,29 9,5 4,48 -34,25 -19,12 -25,14 -66,-97 23,-37 100,-47Z"/>
    <path data-fips-int="51157" data-name="Rappahannock County" d="M2298,355l21,23 4,11 16,25 13,3 4,0 -103,83 -12,0 -42,-46 20,-66 35,-11 24,-42Z"/>
    <path data-fips-int="51159" data-name="Richmond County" d="M2817,750l0,2 0,-2 0,2 53,15 10,9 40,53 -30,9 -5,5 -5,3 -34,-6 -81,-81 -15,-45 20,-22Z"/>
    <path data-fips-int="51167" data-name="Russell County" d="M844,1272l-20,14 -2,1 -41,29 -57,7 -10,26 -91,41 -27,-83 0,-1 32,-10 3,5 -2,-40 35,-15 32,-17 5,-2 1,1 4,0 8,1 50,-42 13,0 2,0 3,0 2,0 8,-2 9,-5Z"/>
    <path data-fips-int="51169" data-name="Scott County" d="M596,1306l0,1 27,83 13,56 -276,-8 16,-37 52,-29 22,-33 10,-15 5,0 10,4 25,-16Z"/>
    <path data-fips-int="51171" data-name="Shenandoah County" d="M2199,224l0,21 5,9 2,11 7,32 -34,56 -59,47 -39,66 -88,-78 32,-62 26,-8 67,-77 35,15Z"/>
    <path data-fips-int="51173" data-name="Smyth County" d="M982,1250l21,29 45,95 -104,25 -34,34 -35,-76 -53,-70 2,-1 20,-14 40,14 43,-27Z"/>
    <path data-fips-int="51175" data-name="Southampton County" d="M2807,1289l1,-1 4,19 -2,2 -3,5 -10,21 -19,44 -3,10 0,1 -2,4 7,30 5,2 -7,46 -151,7 -2,-1 -5,-1 -5,-3 -1,0 -9,1 -3,-1 -3,-25 -2,-3 -3,-9 -4,0 -1,-5 -4,-3 -10,-3 -5,0 -3,1 -5,0 -13,-9 -2,0 23,-18 187,-123 40,-26Z"/>
    <path data-fips-int="51177" data-name="Spotsylvania County" d="M2481,578l34,28 14,13 18,-1 2,1 -2,-1 2,0 0,1 30,17 -103,128 0,1 0,-1 -7,0 -12,-8 -6,-1 -10,-5 -5,-8 -10,-7 -9,-12 -48,-16 -5,-2 -10,-1 -2,0 95,-122Z"/>
    <path data-fips-int="51179" data-name="Stafford County" d="M2564,486l38,21 -7,83 0,46 -16,0 -30,-17 0,-1 -34,-12 -34,-28 -7,-21 0,-30 38,-44Z"/>
    <path data-fips-int="51181" data-name="Surry County" d="M2865,1178l-2,17 -10,24 -56,32 -40,26 -5,-54 -64,-20 -13,-6 48,-45 7,-17 3,0 82,12Z"/>
    <path data-fips-int="51183" data-name="Sussex County" d="M2688,1203l64,20 5,54 -187,123 0,-2 -8,-1 -3,-74 -63,-6 86,-59 93,-61Z"/>
    <path data-fips-int="51185" data-name="Tazewell County" d="M1068,1140l-16,9 -27,32 23,30 -63,22 0,1 0,-1 0,1 -6,1 3,15 -55,9 -43,27 -40,-14 -43,-92 46,-26 18,-20 70,18 80,-64Z"/>
    <path data-fips-int="51187" data-name="Warren County" d="M2326,277l-48,58 -24,42 -35,11 -40,-35 34,-56 -7,-32 63,-15Z"/>
    <path data-fips-int="51191" data-name="Washington County" d="M706,1423l3,5 -46,15 -7,5 -20,-2 -13,-56 91,-41 10,-26 57,-7 41,-29 53,70 35,76 -16,12 -110,-5 -88,9 13,-21 -3,-11 -4,-8 0,2 -1,0 -4,0 4,0 1,0 4,6 -2,3Z"/>
    <path data-fips-int="51197" data-name="Wythe County" d="M1190,1223l66,97 -119,33 -2,2 -17,18 -70,1 -45,-95 64,-46 36,6Z"/>
    <path data-fips-int="51550" data-name="Chesapeake City" d="M2983,1323l-5,9 0,1 -2,3 4,3 41,-9 8,-2 7,2 3,-6 7,-1 10,32 57,37 -20,13 1,58 -148,4 9,-131 16,-26Z"/>
    <path data-fips-int="51590" data-name="Danville City" d="M1809,1462l6,13 -3,6 0,10 -52,0 4,-12 -19,-15 7,-9 30,1Z"/>
    <path data-fips-int="51650" data-name="Hampton City" d="M2980,1248l-5,-3 0,2 -15,-50 15,-7 1,1 5,-3 37,4 -2,34Z"/>
    <path data-fips-int="51680" data-name="Lynchburg City" d="M1873,1032l40,35 -41,26 -27,-6 18,-55 4,-1 3,0 0,1 0,-1 0,1Z"/>
    <path data-fips-int="51700" data-name="Newport News City" d="M2960,1197l15,50 0,-2 5,3 -97,-64 7,-21 6,-24 12,-2Z"/>
    <path data-fips-int="51710" data-name="Norfolk City" d="M3064,1280l-11,44 -47,-22 0,-41Z"/>
    <path data-fips-int="51760" data-name="Richmond City" d="M2559,958l16,24 -8,51 -23,-6 -5,0 -2,-2 -40,-45 27,-3 -5,-5 1,-5 2,-1 15,1Z"/>
    <path data-fips-int="51770" data-name="Roanoke City" d="M1599,1117l-2,3 0,-1 2,-2 -2,2 -36,28 -2,1 -20,-15 3,-23Z"/>
    <path data-fips-int="51800" data-name="Suffolk City" d="M2975,1295l-4,15 -16,26 -9,131 -168,5 7,-46 138,-139 5,4Z"/>
    <path data-fips-int="51001" data-name="Accomack County" d="M3201,854l48,-55 -28,-20 41,-40 95,-15 -28,60 -2,8 0,-1 -65,145 0,1 0,2 -30,41 0,2 -31,19 5,-14 -19,-27 -41,0Z"/>
    <path data-fips-int="51003" data-name="Albemarle County" d="M2189,673l64,25 -37,63 -71,105 0,1 -60,32 -15,-13 -62,-143 3,-3 30,-77 34,-35Z"/>
    <path data-fips-int="51005" data-name="Alleghany County" d="M1629,826l60,5 -9,54 -54,-19 -42,51 -40,25 -48,24 -13,-9 -17,-6 -30,-32 53,-90 42,-39 50,0Z"/>
    <path data-fips-int="51013" data-name="Arlington County" d="M2695,338l-25,0 0,-1 -13,-14 0,-1 -8,-9 18,-20Z"/>
    <path data-fips-int="51015" data-name="Augusta County" d="M1985,615l56,48 -30,77 -3,3 -10,10 -55,73 -28,-16 -32,12 -126,-98 17,-35 -29,-11 44,-56 33,-59 35,-33Z"/>
    <path data-fips-int="51019" data-name="Bedford County" d="M1873,1032l-3,0 0,-1 0,1 0,-1 -3,0 -4,1 -18,55 -73,148 0,1 -15,25 -45,-18 -33,-57 -33,-22 -14,-10 -3,2 -12,-4 -5,0 0,-43 67,-85 38,15 33,-40 24,-41 36,46Z"/>
    <path data-fips-int="51059" data-name="Fairfax County" d="M2667,293l-18,20 -9,0 0,8 17,2 0,-1 0,1 13,14 0,1 -3,1 3,19 25,6 3,34 -61,52 -13,-25 -32,-20 -43,-33 -40,-32 78,-106 32,36Z"/>
    <path data-fips-int="51069" data-name="Frederick County" d="M2313,136l-44,114 -63,15 -2,-11 -5,-9 0,-21 -46,32 -35,-15 53,-55 -6,-44 29,-45 -3,-59Z"/>
    <path data-fips-int="51081" data-name="Greensville County" d="M2496,1317l63,6 3,74 8,1 0,2 -23,18 2,0 13,9 5,0 3,-1 5,0 10,3 4,3 1,5 4,0 3,9 2,3 3,25 3,1 9,-1 1,0 5,3 5,1 2,1 -188,3 43,-83 -3,-90Z"/>
    <path data-fips-int="51089" data-name="Henry County" d="M1664,1490l-135,0 -12,-122 17,-3 17,-18 86,16 5,2 4,3 29,-19 5,-2 14,-12Z"/>
    <path data-fips-int="51103" data-name="Lancaster County" d="M2985,935l-62,-9 -43,-80 5,-3 5,-5 30,-9 35,6 20,56 8,4Z"/>
    <path data-fips-int="51115" data-name="Mathews County" d="M2950,1021l1,-31 30,-6 47,40 -12,57Z"/>
    <path data-fips-int="51119" data-name="Middlesex County" d="M2911,967l-1,-3 -30,-9 -2,-1 -2,-1 -11,-6 -14,-10 -26,-51 26,-21 35,25 29,52 91,22 -48,26Z"/>
    <path data-fips-int="51131" data-name="Northampton County" d="M3206,987l-39,71 -11,113 -30,-34 -3,-63 26,-108 38,-6Z"/>
    <path data-fips-int="51133" data-name="Northumberland County" d="M2983,895l-8,-4 -20,-56 -35,-6 -40,-53 -10,-9 20,-25 1,-2 0,-1 37,2 91,57 2,28Z"/>
    <path data-fips-int="51153" data-name="Prince William County" d="M2491,318l6,2 7,20 5,0 40,32 43,33 32,20 -22,82 -38,-21 -52,-3 -73,-135 22,-55Z"/>
    <path data-fips-int="51161" data-name="Roanoke County" d="M1612,1109l0,43 -18,11 -28,32 -27,-19 -35,21 -5,4 0,1 -16,6 -2,-2 -3,-55 -29,-58 73,-40ZM1542,1110l-20,-1 -11,15 20,13 8,-4 20,15 2,-1 36,-28 2,-2 -2,2 0,1 2,-3Z"/>
    <path data-fips-int="51163" data-name="Rockbridge County" d="M1883,822l-5,42 0,1 -35,5 -41,74 -20,9 -8,5 -24,41 -30,-29 0,-1 0,1 0,-1 -43,-34 3,-50 9,-54 68,-107Z"/>
    <path data-fips-int="51165" data-name="Rockingham County" d="M1993,388l88,78 -18,46 33,25 47,19 -25,44 -43,28 -34,35 -56,-48 -128,-85 55,-129 33,-56Z"/>
    <path data-fips-int="51193" data-name="Westmoreland County" d="M2891,739l0,1 -1,2 -20,25 -53,-15 0,-2 0,2 0,-2 -47,-58 -20,22 -37,-5 -13,-32 -2,-2 9,-49 5,-4 25,27 93,37 38,-11 43,52Z"/>
    <path data-fips-int="51195" data-name="Wise County" d="M568,1224l3,9 40,24 0,1 0,-1 0,1 18,3 2,40 -3,-5 -32,10 0,1 0,-1 -96,6 -25,16 -10,-4 -5,0 -10,15 -40,-47 3,-42 60,-30 2,-34 68,-43Z"/>
    <path data-fips-int="51199" data-name="York County" d="M2848,1067l3,-1 2,0 0,-1 2,0 -2,1 2,-1 3,-1 3,0 24,31 91,54 -6,22 0,4 5,15 1,1 -1,-1 -15,7 -52,-60 -12,2 -15,-8 -13,-9 -8,-7 0,-13 -17,-6 -2,0 0,-3Z"/>
    <path data-fips-int="51810" data-name="Virginia Beach City" d="M3094,1463l-1,-58 20,-13 -57,-37 -10,-32 7,1 11,-44 74,-2 26,98 -26,81Z"/>
  </g>
  <g class="cities">
    <circle r="3" cx="314.6" cy="131.1"/>
    <text x="314.6" y="131.1">Virginia Beach</text>
    <circle r="3" cx="302.5" cy="131.9"/>
    <text x="302.5" y="131.9">Norfolk</text>
    <circle r="3" cx="303.0" cy="133.2"/>
    <text x="303.0" y="133.2">Chesapeake</text>
  </g>
</svg>