<?xml version="1.0" encoding="utf-8"?>
<!DOCTYPE svg PUBLIC "-//W3C//DTD SVG 1.1//EN" "http://www.w3.org/Graphics/SVG/1.1/DTD/svg11.dtd">
<svg version="1.1" xmlns="http://www.w3.org/2000/svg" width="350" height="153" viewBox="0 0 350 153">
  <g class="counties" transform="scale(0.1)">
    <path data-fips-int="51007" data-name="Amelia County" d="M2397,1050l-7,1 2,13 -4,3 2,11 8,2 6,10 16,2 -3,15 25,18 3,-9 8,-1 4,-7 5,9 10,-6 7,14 -4,12 -10,3 -1,7 -8,2 -18,13 -16,0 -15,-5 -49,-14 -109,-30 -1,-35 -3,-5 9,-7 6,-17 5,0 2,-10 6,1 12,-8 3,2 3,5 14,-7 8,3 7,-10 13,0 7,-13 4,6 20,5 5,-4 12,5 -1,10 12,-2Z"/>
    <path data-fips-int="51009" data-name="Amherst County" d="M1997,994l-11,5 2,7 -12,10 -8,-3 1,11 -11,5 -17,14 -2,7 -10,-1 1,6 -12,-1 3,16 -8,-3 -8,-6 -11,-2 -5,-11 -13,-10 -3,-6 -15,-14 0,-7 -14,6 -1,-7 -13,5 -16,-7 -10,-13 -8,-26 -13,-7 -7,3 -2,-8 14,-4 16,-12 15,-21 5,-21 18,-30 12,-8 10,11 14,-7 13,-6 9,14 10,0 8,5 1,28 14,9 18,2 7,9 3,13 25,54Z"/>
    <path data-fips-int="51011" data-name="Appomattox County" d="M2106,1064l-2,25 2,2 -14,13 -19,29 -1,6 -15,6 -5,8 -19,-3 -11,12 -6,-1 -13,-4 -2,-14 -12,-4 -10,4 -5,-19 -7,-5 -2,-12 -26,-57 2,-7 17,-14 11,-5 -1,-11 8,3 12,-10 -2,-7 11,-5 16,3 2,-9 51,52 5,10 19,8 2,13Z"/>
    <path data-fips-int="51017" data-name="Bath County" d="M1635,635l34,23 57,11 19,9 -6,5 0,9 17,-9 18,5 -22,32 4,5 -16,22 5,3 -25,37 -13,13 -17,31 -16,14 -22,-21 -24,2 -30,-6 -19,-30 -15,0 -11,-3 -10,8 -11,-4 21,-21 12,-21 7,-22 11,-13 -7,-12 8,-10 4,-18 6,-2 26,-28Z"/>
    <path data-fips-int="51021" data-name="Bland County" d="M1165,1113l-14,9 14,12 33,36 9,-6 4,7 -8,3 11,12 -16,12 -15,4 7,21 -27,9 -21,3 -32,11 -7,-7 -19,6 -16,-12 -29,15 -24,25 -11,6 -22,-29 -10,-13 26,-10 8,2 24,-8 19,-10 2,-17 -25,-7 6,-10 20,-6 -8,-22 18,-4 6,-5 24,-13 24,-9 49,-9Z"/>
    <path data-fips-int="51023" data-name="Botetourt County" d="M1681,885l-6,14 7,30 -5,6 43,34 -1,6 31,24 -8,12 -11,9 -4,-3 -10,12 0,9 -6,3 -16,-5 -8,-13 -12,4 -26,25 -24,11 9,11 6,0 -4,14 -23,17 -1,5 -7,-10 -35,-19 -43,-21 -4,-7 11,-11 15,-33 15,-16 -22,-40 3,-11 26,-19 4,-6 11,-2 10,-18 11,-7 7,-15 11,-9Z"/>
    <path data-fips-int="51025" data-name="Brunswick County" d="M2387,1264l19,-4 19,5 13,7 2,7 12,7 4,13 23,10 3,89 -42,85 -112,2 6,-116 8,-121 14,17 19,2Z"/>
    <path data-fips-int="51027" data-name="Buchanan County" d="M865,1134l-7,16 -13,7 -28,8 -3,8 -14,7 -12,8 -13,-1 -17,3 -7,18 2,8 -8,8 -19,5 -25,-2 4,-4 -2,-13 -5,-6 0,-11 -18,-23 -12,-28 -4,-29 -17,-18 -7,3 101,-82 38,-33 14,13 -26,18 4,11 19,7 -1,9 6,6 -6,14 4,12 11,13 8,0 9,14 0,9 13,4 13,-2 12,5Z"/>
    <path data-fips-int="51029" data-name="Buckingham County" d="M2244,918l-3,27 -31,53 -42,76 -11,19 -3,3 -15,2 -20,-17 -7,0 -6,-17 -14,7 -2,-13 -19,-8 -5,-10 -51,-52 4,-9 -8,-8 10,-10 -6,-10 8,-6 23,4 12,-3 -2,-12 10,-6 -1,-10 5,-2 7,9 8,-1 -5,-11 5,-15 10,-10 28,-5 14,3 6,-4 1,-16 12,18 17,10 18,1 15,10Z"/>
    <path data-fips-int="51031" data-name="Campbell County" d="M1939,1050l26,57 2,12 7,5 5,19 10,-4 12,4 2,14 13,4 -12,37 -19,54 -29,-13 -9,9 -8,-5 -14,-2 -14,-9 -8,-3 -4,-10 -29,17 -5,-10 2,-16 -7,-5 0,7 -7,0 -8,-14 -5,10 -12,4 -16,-12 -10,4 -4,10 -10,3 0,14 -16,5 39,-80 19,-40 15,-29 17,11 7,-6 8,1 17,-16 5,3 14,-13 8,3 -3,-16 12,1 -1,-6Z"/>
    <path data-fips-int="51033" data-name="Caroline County" d="M2596,636l6,5 8,-3 -1,8 7,-2 0,-10 9,-1 11,6 -11,4 4,7 -4,14 13,-6 20,17 7,-3 14,9 0,15 -10,-1 0,14 -11,8 20,22 -3,9 16,1 5,6 2,18 -30,-3 -13,11 1,29 -13,2 -11,-10 -1,16 -13,17 -18,18 -7,10 -6,-4 -4,9 -12,0 3,-12 -11,-3 -2,-24 3,-2 -13,-15 -10,5 -17,-11 -3,-7 -16,-10 -1,-7 -8,3 -21,-14 0,-6 65,-80 39,-49 10,-4Z"/>
    <path data-fips-int="51035" data-name="Carroll County" d="M1365,1405l0,1 4,2 -4,15 -24,14 -10,1 -12,-10 -6,1 -3,10 -8,10 4,31 -45,-3 -45,1 -30,-46 15,-20 -12,0 -10,10 -42,-68 75,-20 16,-2 29,-12 23,-8 2,-7 18,-11 51,89Z"/>
    <path data-fips-int="51036" data-name="Charles City County" d="M2713,1037 1,0 8,2 6,6 12,-3 6,7 10,-2 2,13 3,-8 9,4 2,6 -2,15 13,-11 0,36 -4,13 4,5 -15,14 -16,-8 -11,-13 -2,-13 -11,-4 -19,16 -5,1 0,-21 -20,6 -15,1 -15,-8 -10,0 -10,4 -5,-7 10,-17 -3,-7 0,-6 1,0 -1,0 9,6 5,-3 -5,-9 17,-43 7,7 13,2 13,15Z"/>
    <path data-fips-int="51037" data-name="Charlotte County" d="M2167,1222l-19,93 -60,97 -18,-20 10,-14 -6,-11 6,-12 -8,-6 8,-10 -12,-17 -22,-23 8,-4 -4,-34 -8,2 5,6 -10,2 0,13 -8,1 -10,-15 -21,0 -8,4 0,-11 -5,-11 19,-54 12,-37 6,1 11,-12 19,3 5,-8 15,-6 -4,22 3,5 18,0 2,12 21,14 8,-5 18,8 6,14 8,10Z"/>
    <path data-fips-int="51041" data-name="Chesterfield County" d="M2636,1065l0,8 -7,9 0,-14ZM2497,980l0,11 8,1 9,-5 4,7 7,-2 0,9 6,20 10,8 12,-4 15,8 -4,6 7,7 6,-1 8,20 20,2 6,-5 4,14 13,5 -8,17 -9,3 -8,-2 -7,1 -1,13 -8,12 0,8 -10,3 0,1 0,-1 8,-3 0,-12 6,-6 -4,-8 -22,11 4,6 1,-1 2,16 -13,5 -16,-1 -13,5 -14,-4 -4,-6 -13,-8 -5,-8 -15,3 -7,-14 -10,6 -5,-9 -4,7 -8,1 -3,9 -25,-18 3,-15 -16,-2 -6,-10 -8,-2 -2,-11 4,-3 -2,-13 7,-1 19,-4 3,-16 56,-53Z"/>
    <path data-fips-int="51043" data-name="Clarke County" d="M2393,200l-7,9 -6,17 -4,0 -8,13 -26,21 -15,17 -22,-19 -15,3 -21,-11 5,-19 13,-16 -2,-7 6,-6 2,-13 6,-10 -2,-13 5,-3 11,-27Z"/>
    <path data-fips-int="51045" data-name="Craig County" d="M1523,1053l-29,20 -21,2 -24,18 -26,-13 -10,9 -32,16 -1,-7 -15,-46 44,-28 26,-14 6,-12 -10,2 -8,-4 6,-5 -6,-9 35,-21 8,-10 6,6 14,0 9,9 23,-14 22,-17 5,7 -3,11 22,40 -15,16 -15,33Z"/>
    <path data-fips-int="51047" data-name="Culpeper County" d="M2474,557l6,11 1,10 -6,4 -5,-9 -12,9 -10,0 -27,-15 -6,8 3,6 -18,-9 -23,2 -3,-5 -8,11 -12,3 -12,7 -7,0 -14,10 -1,8 -24,1 3,-11 -8,-6 -4,-12 8,-8 0,-9 -8,-7 -1,-7 -45,-49 7,-3 9,7 8,1 32,-38 58,-49 11,-1 4,17 5,-3 5,9 -2,9 7,5 -5,5 4,6 -6,7 14,21 11,6 6,14 7,6 2,10 6,5 3,14 8,8 18,-7Z"/>
    <path data-fips-int="51049" data-name="Cumberland County" d="M2275,888l12,7 15,14 -6,17 14,7 -6,16 -16,85 -3,-2 -12,8 -6,-1 -2,10 -5,0 -6,17 -9,7 3,5 -10,4 1,8 -7,-3 -7,13 -12,7 -7,-4 -8,4 -15,0 -5,-6 -21,-8 11,-19 42,-76 31,-53 3,-27 5,-12 20,-17Z"/>
    <path data-fips-int="51051" data-name="Dickenson County" d="M701,1227l-19,5 -21,18 -11,-4 -22,14 -13,7 -7,-12 -13,-5 -20,-17 -10,-11 0,-7 -20,-34 -2,-38 46,-21 36,-9 2,-7 8,0 5,-8 7,-3 17,18 4,29 12,28 18,23 0,11 5,6 2,13Z"/>
    <path data-fips-int="51053" data-name="Dinwiddie County" d="M2559,1144l2,18 9,3 0,8 9,-4 2,9 2,59 -2,21 -86,59 -5,-5 -3,7 -8,-10 -23,-10 -4,-13 -12,-7 -2,-7 -13,-7 -19,-5 -19,4 -5,-77 13,-5 5,-6 12,-1 10,-13 16,0 18,-13 8,-2 1,-7 10,-3 4,-12 15,-3 5,8 13,8 4,6 14,4 13,-5Z"/>
    <path data-fips-int="51057" data-name="Essex County" d="M2853,865l-7,8 -8,-1 -11,15 -2,-8 -13,-12 -6,-13 -17,0 -12,7 -12,-6 -13,6 -3,-22 -9,0 -20,-7 0,-8 -9,-6 7,-3 -5,-23 -8,-2 -7,-9 0,-8 -2,-18 -5,-6 -16,-1 3,-9 -20,-22 11,-8 0,-14 10,1 0,-15 7,-5 8,10 4,-11 5,8 0,19 8,8 13,-4 8,8 21,4 5,21 -4,5 4,10 -4,8 7,6 13,0 0,10 21,24 13,2 0,5 11,22 13,20 8,7 13,3Z"/>
    <path data-fips-int="51061" data-name="Fauquier County" d="M2461,293l-9,25 -5,2 -4,22 -4,6 38,72 36,64 -14,18 -25,26 2,23 -2,6 -21,-8 -18,7 -8,-8 -3,-14 -6,-5 -2,-10 -7,-6 -6,-14 -11,-6 -14,-21 6,-7 -4,-6 5,-5 -7,-5 2,-9 -5,-9 -5,3 -4,-17 -11,1 -7,0 -23,-14 -2,-11 -6,-23 -19,-16 -8,-3 -12,-16 7,-8 20,-5 -6,-11 6,-10 8,-3 14,-21 15,-17Z"/>
    <path data-fips-int="51063" data-name="Floyd County" d="M1500,1202l1,-1 7,26 -6,8 8,15 -4,8 -8,2 5,7 -9,6 0,14 -12,-1 -10,25 -15,14 -21,7 -7,7 -15,5 0,10 -18,8 -3,26 -20,-1 -8,18 0,1 0,-1 -14,-22 -51,-89 14,-5 21,-21 10,-5 0,-8 7,11 11,-1 5,-10 20,-4 5,6 8,-5 10,0 28,-29 42,-17 10,1Z"/>
    <path data-fips-int="51065" data-name="Fluvanna County" d="M2312,811l-33,65 -4,12 -6,1 -20,17 -5,12 -38,-13 -15,-10 -18,-1 -17,-10 -12,-18 31,-43 40,-62 16,9 16,6 8,9 13,4Z"/>
    <path data-fips-int="51067" data-name="Franklin County" d="M1712,1242l-7,29 -12,64 -10,13 -10,0 -19,9 -9,11 -10,-6 -10,4 -74,-19 -6,24 -11,-6 -12,-14 2,-10 -13,-2 -54,-14 15,-14 10,-25 12,1 0,-14 9,-6 -5,-7 8,-2 4,-8 -8,-15 6,-8 -7,-26 -1,1 1,-1 8,-12 39,-12 1,8 17,10 20,-14 8,-10 0,-7 18,-13 16,5 11,-8 1,15 7,6 14,-1 8,21 13,0 11,22 12,12 -4,1 12,14Z"/>
    <path data-fips-int="51071" data-name="Giles County" d="M1365,1052l15,46 1,7 -20,16 -14,7 -35,11 -26,11 -24,12 -29,10 -19,14 -11,-12 8,-3 -4,-7 -9,6 -33,-36 -14,-12 14,-9 11,-1 21,-10 20,-15 -13,-18 8,-14 2,-9 8,2 21,16 5,11 24,-9 30,-18 29,-20 20,-6 7,12 -1,11Z"/>
    <path data-fips-int="51073" data-name="Gloucester County" d="M2909,964l1,5 16,11 28,11 -6,13 4,16 -3,17 14,4 1,16 -14,-1 0,-4 -15,-9 -2,3 13,6 -3,11 11,3 16,10 -6,9 -10,-5 2,17 4,-7 13,-2 6,10 -1,14 -14,1 -17,8 -16,2 -3,-14 -17,-10 -8,-14 -16,-13 -9,-14 -27,-27 -1,-6 15,-5 7,-12 -1,-7 -8,-12 4,-41 17,10 4,-3 11,6 0,6 9,3Z"/>
    <path data-fips-int="51075" data-name="Goochland County" d="M2417,896l5,3 29,8 21,-3 11,2 -10,34 2,11 10,8 4,11 -14,7 -20,-12 -7,1 -17,-12 -19,3 -9,-15 -8,-3 -18,-13 -3,-9 -14,3 -5,9 5,14 -4,6 -12,0 -10,-9 -13,0 -11,-7 -14,-7 6,-17 -15,-14 -12,-7 4,-12 33,-65 18,5 10,18 17,5 13,20 6,17 5,5 22,3Z"/>
    <path data-fips-int="51077" data-name="Grayson County" d="M1137,1354l42,68 -5,-3 -1,14 13,-1 30,46 -68,-3 -67,-5 -52,-3 -23,0 -63,-5 -32,-4 -29,-1 12,-11 15,-3 2,-10 15,-9 8,0 7,-18 -5,-3 18,-5 22,-2 26,-12 33,-6 14,-4 15,-1 15,4 13,-5 26,1 1,-10Z"/>
    <path data-fips-int="51079" data-name="Greene County" d="M2211,630 10,0 -31,43 -79,-29 -36,-16 4,-7 19,-7 3,-7 17,-8 3,-14 7,-3 4,-11 6,-2 6,-13 12,-27 7,13 -1,26 6,9 -2,6 18,24 7,0 12,23Z"/>
    <path data-fips-int="51083" data-name="Halifax County" d="M1985,1252l5,11 0,11 8,-4 21,0 10,15 8,-1 0,-13 10,-2 -5,-6 8,-2 4,34 -8,4 22,23 12,17 -8,10 8,6 -6,12 6,11 -10,14 18,20 9,12 27,16 -9,1 -18,-14 -11,-12 -12,3 -6,6 -6,16 1,17 -3,16 -8,9 2,7 -193,2 10,-50 17,-93 10,-49 13,-67 14,9 14,2 8,5 9,-9Z"/>
    <path data-fips-int="51085" data-name="Hanover County" d="M2475,765l0,6 21,14 8,-3 1,7 16,10 3,7 17,11 10,-5 13,15 -3,2 2,24 11,3 -3,12 12,0 4,-9 6,4 5,-2 5,11 -5,7 13,0 -6,11 10,-3 -2,8 7,4 3,-5 11,6 -1,-9 7,8 -6,7 4,7 20,-1 -1,15 10,-5 17,3 4,3 -8,8 2,5 -7,18 -12,-2 -23,25 2,5 -15,-7 -14,-4 -40,-22 -16,-36 -16,-2 -5,-9 -7,1 -18,10 -8,-4 -11,-10 -9,2 -11,-2 -21,3 -29,-8 -5,-3 21,-74 20,-65Z"/>
    <path data-fips-int="51087" data-name="Henrico County" d="M2529,908 7,-1 5,9 16,2 16,36 40,22 14,4 15,7 20,22 -17,43 5,9 -5,3 -9,-6 1,0 -1,0 0,6 -9,-1 -2,14 -8,-1 -2,-7 3,-12 -7,-4 0,9 -6,5 -20,-2 -8,-20 -6,1 -7,-7 4,-6 -2,-26 2,-9 10,6 -1,-22 -7,-1 -1,-14 -10,-3 0,-6 -16,0 -1,13 -13,-4 -7,-5 -5,9 7,7 -27,2 -22,-3 14,-7 -4,-11 -10,-8 -2,-11 10,-34 9,-2 11,10 8,4Z"/>
    <path data-fips-int="51091" data-name="Highland County" d="M1821,563l-3,5 6,10 -7,0 -11,14 -21,37 3,9 -4,9 -12,13 -11,-3 -16,21 -19,-9 -57,-11 -34,-23 1,-9 -7,-12 14,-12 4,-12 14,-2 -2,-7 6,-12 11,-16 -3,-27 6,-12 8,-4 -4,-16 9,-20 43,21 23,46Z"/>
    <path data-fips-int="51093" data-name="Isle of Wight County" d="M2928,1291l-6,-2 -92,93 -45,44 -6,-2 0,-11 -6,-6 -1,-12 3,-13 8,-7 4,-9 0,-8 8,-4 2,-26 13,-18 3,-19 -12,-9 -5,-14 2,-17 47,-27 12,-7 2,-11 6,-11 0,-17 5,4 3,17 -4,20 11,10 21,2 6,6 -4,7 -12,3 14,2 5,-5 17,9 -1,3 17,11 -6,2 2,13Z"/>
    <path data-fips-int="51095" data-name="James City County" d="M2838,1112l6,12 24,-1 -7,-8 6,1 5,11 21,1 4,11 6,12 -12,12 -4,-13 -11,-12 -19,-2 -15,6 -9,11 -10,-9 -6,-11 -10,-5 -20,1 2,-7 -6,-10 9,-7 -7,-7 -2,-32 -13,11 2,-15 5,-5 -2,-22 14,-8 13,-2 13,7 12,-4 2,-7 4,9 20,17 10,17 -27,0 -5,15 8,4 3,13 2,13 -6,2Z"/>
    <path data-fips-int="51097" data-name="King and Queen County" d="M2698,773l0,8 7,9 8,2 5,23 -7,3 9,6 0,8 20,7 9,0 3,22 13,-6 12,6 12,-7 17,0 6,13 13,12 2,8 1,11 13,23 14,20 12,7 -4,41 8,12 1,7 -7,12 -15,5 -7,-2 -7,-16 -17,-14 -2,-11 4,-7 -11,-11 2,-8 -13,-3 -3,-5 -15,-8 6,-5 -10,-11 -10,1 -4,-19 -20,3 -4,-10 -9,1 -4,-7 -10,-2 -10,-12 -12,-1 6,-10 -10,-5 -17,-34 -4,-14 -10,-5 -3,0 -1,-29 13,-11Z"/>
    <path data-fips-int="51099" data-name="King George County" d="M2711,622l-6,4 0,39 -6,10 -1,0 -4,11 -8,-10 -7,5 -14,-9 -7,3 -20,-17 -13,6 4,-14 -4,-7 11,-4 -11,-6 -9,1 0,10 -7,2 1,-8 -8,3 -6,-5 -9,-7 8,-39 16,-2 6,4 13,1 27,-8 10,-11 19,0 18,-17 10,9 2,23 -6,12 12,16Z"/>
    <path data-fips-int="51101" data-name="King William County" d="M2656,810l3,0 10,5 4,14 17,34 10,5 -6,10 12,1 10,12 10,2 4,7 9,-1 4,10 20,-3 4,19 10,-1 10,11 -6,5 15,8 3,5 13,3 -3,8 6,3 4,10 -8,10 -11,-13 -10,13 -9,-1 6,-7 2,-17 -12,1 4,11 -12,3 -2,-11 -11,4 -3,14 -11,-3 8,-11 -5,-9 -11,1 5,5 -7,5 -10,-5 -18,-15 -5,4 -4,-11 -13,-4 -2,-5 8,-8 -4,-3 -17,-3 -10,5 1,-15 -20,1 -4,-7 6,-7 -7,-8 1,9 -11,-6 -3,5 -7,-4 2,-8 -10,3 6,-11 -13,0 5,-7 -5,-11 -5,2 7,-10 18,-18 13,-17 1,-16 11,10Z"/>
    <path data-fips-int="51105" data-name="Lee County" d="M450,1339l-15,13 -9,13 2,7 -8,5 -20,7 -23,14 -17,40 -109,-4 -8,-3 -80,-2 -55,-3 -21,-3 11,-11 29,-7 19,-11 15,-2 24,3 34,-15 37,-9 25,-8 23,-1 4,-9 -2,-12 14,-13 0,-9 10,-5 1,-6 41,0 26,-8 12,-8 9,11 2,12 5,-1Z"/>
    <path data-fips-int="51107" data-name="Loudoun County" d="M2587,234l-4,3 -75,103 -7,-6 1,-11 -13,-5 -14,-19 -14,-6 -119,-33 26,-21 8,-13 4,0 6,-17 7,-9 8,-21 4,-17 9,-15 8,-27 11,-14 16,-2 23,10 20,-1 1,8 8,11 20,8 12,10 -6,18 -13,7 -6,16 4,13 13,5 9,17 16,4Z"/>
    <path data-fips-int="51109" data-name="Louisa County" d="M2352,704 15,0 6,5 22,1 20,12 5,8 10,7 15,16 13,4 -20,65 -21,74 -14,-12 -22,-3 -5,-5 -6,-17 -13,-20 -17,-5 -10,-18 -18,-5 -44,-22 -13,-4 -8,-9 -16,-6 -16,-9 20,-28 18,-35 15,2 11,-7 10,1 5,-6 22,8 16,-2 9,9Z"/>
    <path data-fips-int="51111" data-name="Lunenburg County" d="M2247,1201l4,11 11,9 11,3 2,9 42,21 25,-6 -8,121 -12,1 -22,-11 -3,6 -20,-7 -23,-2 -21,-7 -10,-11 -9,-4 -7,5 -9,-9 -12,-1 -8,3 -4,-7 -15,-1 -11,-9 19,-93 24,-5 8,-8 33,1Z"/>
    <path data-fips-int="51113" data-name="Madison County" d="M2241,500l45,49 1,7 8,7 0,9 -8,8 4,12 8,6 -3,11 0,5 -12,10 -11,0 1,8 -12,-1 2,6 -21,13 -12,-6 -2,-9 -8,-5 -10,0 -8,0 -12,-23 -7,0 -18,-24 2,-6 -6,-9 1,-26 -7,-13 4,-18 11,-18 12,-7 -1,-10 9,-15 8,-7Z"/>
    <path data-fips-int="51117" data-name="Mecklenburg County" d="M2186,1329 12,1 9,9 7,-5 9,4 10,11 21,7 23,2 20,7 3,-6 22,11 12,-1 -6,116 -87,1 -84,2 -11,1 -92,0 -2,-7 8,-9 3,-16 -1,-17 6,-16 6,-6 12,-3 11,12 18,14 9,-1 -27,-16 -9,-12 60,-97 11,9 15,1 4,7Z"/>
    <path data-fips-int="51121" data-name="Montgomery County" d="M1449,1093l1,16 26,37 5,60 -42,17 -28,29 -10,0 -8,5 -5,-6 -20,4 -5,10 -11,1 -7,-11 0,8 -10,5 -4,-12 2,-21 -3,-15 -9,-4 16,-12 14,-10 -8,-7 -8,-3 -8,-8 7,-10 13,-2 -2,-5 -18,5 -5,6 -13,-15 3,-16 35,-11 14,-7 20,-16 32,-16 10,-9Z"/>
    <path data-fips-int="51125" data-name="Nelson County" d="M2085,898l-5,15 5,11 -8,1 -7,-9 -5,2 1,10 -10,6 2,12 -12,3 -23,-4 -8,6 6,10 -10,10 8,8 -4,9 -2,9 -16,-3 -11,-1 -25,-54 -3,-13 -7,-9 -18,-2 -14,-9 -1,-28 -8,-5 -10,0 -9,-14 -13,6 6,-9 -1,-8 6,-10 -5,-17 4,1 33,-14 6,13 10,-1 6,5 9,-12 10,-5 5,-11 17,-5 3,-14 -6,-5 8,-5 5,-16 6,0 7,-9 69,143 -7,-1 -1,12 11,7Z"/>
    <path data-fips-int="51127" data-name="New Kent County" d="M2745,961l4,8 -8,12 13,3 0,-11 14,-4 0,7 13,0 -4,-12 12,0 -10,20 4,6 9,-2 10,-13 8,17 1,12 12,3 6,14 -2,7 -12,4 -13,-7 -13,2 -14,8 2,22 -5,5 -2,-6 -9,-4 -3,8 -2,-13 -10,2 -6,-7 -12,3 -6,-6 -8,-2 -1,0 -18,-4 -13,-15 -13,-2 -7,-7 -20,-22 -2,-5 23,-25 12,2 7,-18 13,4 4,11 5,-4 18,15 10,5 7,-5 -5,-5Z"/>
    <path data-fips-int="51135" data-name="Nottoway County" d="M2422,1162l-10,13 -12,1 -5,6 -13,5 5,77 -12,3 -19,-2 -14,-17 -25,6 -42,-21 -2,-9 -11,-3 -11,-9 -4,-11 0,-39 2,-49 109,30 49,14Z"/>
    <path data-fips-int="51137" data-name="Orange County" d="M2448,582l-9,19 -43,50 -13,17 -31,36 -11,-1 -9,-9 -16,2 -22,-8 -5,6 -10,-1 -11,7 -15,-2 -63,-25 31,-43 8,5 2,9 12,6 21,-13 -2,-6 12,1 -1,-8 11,0 12,-10 0,-5 24,-1 1,-8 14,-10 7,0 12,-7 12,-3 8,-11 3,5 23,-2 18,9 -3,-6 6,-8Z"/>
    <path data-fips-int="51139" data-name="Page County" d="M2219,388l-7,10 -6,1 -5,17 5,2 2,24 -9,12 -8,7 -9,15 1,10 -12,7 -11,18 -4,18 -12,27 -21,-3 -8,-9 -25,-9 -4,-15 -8,1 -14,-7 7,-18 4,-18 7,-12 6,-6 11,-29 19,-32 15,7 14,-13 23,-30 10,-10 21,19 16,6Z"/>
    <path data-fips-int="51141" data-name="Patrick County" d="M1534,1365l-21,7 3,21 -3,5 7,23 7,10 3,25 -2,33 -89,-1 -133,-8 -4,-31 8,-10 3,-10 6,-1 12,10 10,-1 24,-14 4,-15 -4,-2 0,-1 8,-18 20,1 3,-26 18,-8 0,-10 15,-5 7,-7 21,-7 54,14 13,2 -2,10Z"/>
    <path data-fips-int="51143" data-name="Pittsylvania County" d="M1911,1232l-13,67 -10,49 -17,93 -10,50 -49,0 0,-10 11,-4 4,-6 -10,0 -1,-10 -7,1 -7,-5 -1,-13 -13,-3 -10,21 -4,-4 -25,-5 -8,7 11,11 14,2 -6,9 1,9 -98,0 30,-156 12,-64 7,-29 13,4 7,-6 18,11 6,9 9,-6 -9,-6 -3,-15 19,3 16,-5 0,-14 10,-3 4,-10 10,-4 16,12 12,-4 5,-10 8,14 7,0 0,-7 7,5 -2,16 5,10 29,-17 4,10Z"/>
    <path data-fips-int="51145" data-name="Powhatan County" d="M2475,977l-56,53 -3,16 -19,4 -5,-18 -12,2 1,-10 -12,-5 -5,4 -20,-5 -4,-6 -7,13 -13,0 -7,10 -8,-3 -14,7 -3,-5 16,-85 6,-16 11,7 13,0 10,9 12,0 4,-6 -5,-14 5,-9 14,-3 3,9 18,13 8,3 9,15 19,-3 17,12 7,-1Z"/>
    <path data-fips-int="51147" data-name="Prince Edward County" d="M2119,1081 20,17 15,-2 3,-3 21,8 5,6 15,0 8,-4 7,4 12,-7 7,-13 7,3 -1,-8 10,-4 1,35 -2,49 0,39 -15,9 -33,-1 -8,8 -24,5 -15,-3 -8,-10 -6,-14 -18,-8 -8,5 -21,-14 -2,-12 -18,0 -3,-5 4,-22 1,-6 19,-29 14,-13 -2,-2 2,-25 6,17Z"/>
    <path data-fips-int="51149" data-name="Prince George County" d="M2635,1108l10,-4 1,-6 10,12 10,-1 12,-6 10,2 10,-6 4,18 14,2 14,-18 7,3 -2,8 6,15 -9,8 -6,16 -19,9 0,4 -31,33 -28,17 -67,44 2,-21 -2,-59 -2,-9 8,-4 11,3 8,-13 -13,-20 -6,-2 0,-8 8,-12 1,-13 7,-1 4,26Z"/>
    <path data-fips-int="51155" data-name="Pulaski County" d="M1343,1187l-1,8 -7,-7 -10,3 -10,9 6,16 9,4 3,15 -2,21 4,12 -21,21 -14,5 -18,11 -2,7 -23,8 -21,-30 -25,-31 -13,-13 -8,-23 -7,-21 15,-4 16,-12 19,-14 29,-10 24,-12 26,-11 -3,16 13,15 5,-6 18,-5 2,5 -13,2 -7,10 8,8Z"/>
    <path data-fips-int="51157" data-name="Rappahannock County" d="M2323,393 2,11 23,14 7,0 -58,49 -32,38 -8,-1 -9,-7 -7,3 -42,-46 9,-12 -2,-24 -5,-2 5,-17 6,-1 7,-10 16,-2 16,-7 8,-12 0,-9 19,-23 12,16 8,3 19,16Z"/>
    <path data-fips-int="51159" data-name="Richmond County" d="M2869,767l32,17 6,20 -3,11 16,9 0,5 -23,2 -4,9 -14,6 -13,-5 -1,10 -12,-13 -7,2 -17,-16 2,-7 -12,-5 -5,-15 -9,-8 -14,-3 -10,-19 -5,-7 -8,1 -4,-7 -4,-25 -10,-15 22,-22 9,15 16,17 7,0 17,13 -4,14 14,1 12,7 18,1Z"/>
    <path data-fips-int="51167" data-name="Russell County" d="M845,1273l-15,5 -7,9 -19,18 -27,13 -13,-8 -38,11 -15,13 4,14 -36,12 -43,20 -13,10 -10,-40 -17,-44 15,-8 4,3 13,-5 2,5 9,-9 -11,-32 22,-14 11,4 21,-18 19,-5 25,2 19,-5 8,-8 -2,-8 7,-18 17,-3 13,1 12,-8 4,16 24,29 9,18Z"/>
    <path data-fips-int="51169" data-name="Scott County" d="M596,1306l17,44 10,40 7,42 6,15 -69,-2 -4,-1 -79,-1 -124,-5 17,-40 23,-14 20,-7 8,-5 -2,-7 9,-13 15,-13 10,-16 22,7 15,-12 9,-16 7,-1 84,1Z"/>
    <path data-fips-int="51171" data-name="Shenandoah County" d="M2206,265l-9,15 15,17 -14,26 -1,8 -17,22 -10,10 -23,30 -14,13 -15,-7 -19,32 -11,29 -6,6 -39,-33 -50,-45 15,-25 17,-36 10,-7 9,-14 7,-4 -1,15 16,-10 12,-21 8,-7 10,9 20,-27 -8,-7 10,-12 34,14 2,-14 17,-19 16,-2 11,-2 4,12 -9,9 9,7Z"/>
    <path data-fips-int="51173" data-name="Smyth County" d="M982,1250l22,29 21,27 19,51 5,17 -14,4 -33,6 -26,12 -22,2 -18,5 5,3 -7,18 -8,0 -15,9 -5,2 -30,-78 -53,-70 7,-9 15,-5 29,-9 10,22 16,-7 26,-20 27,-6 14,-7 -3,16Z"/>
    <path data-fips-int="51175" data-name="Southampton County" d="M2810,1310 -13,18 -2,26 -8,4 0,8 -4,9 -8,7 -3,13 -16,3 2,17 21,9 6,2 2,7 -8,6 2,20 -9,10 7,3 0,4 -153,3 -6,-2 -14,0 -6,-13 2,-12 -5,-3 -6,-17 -11,-6 -19,2 -16,-10 27,-18 33,-23 70,-43 32,-21 51,-35 40,-27 -2,17 5,14 12,9Z"/>
    <path data-fips-int="51177" data-name="Spotsylvania County" d="M2481,578l7,17 12,-8 1,7 15,12 6,2 1,13 22,3 4,-6 11,13 19,5 -39,49 -65,80 -17,-8 -13,-4 -15,-16 -10,-7 -5,-8 -20,-12 -22,-1 -6,-5 -15,0 31,-36 13,-17 43,-50 9,-19 10,0 12,-9 5,9Z"/>
    <path data-fips-int="51179" data-name="Stafford County" d="M2603,507l-8,19 -2,13 7,22 -11,-12 -8,-4 3,9 25,25 -5,5 -13,-2 -12,2 16,6 -8,39 9,7 -7,-4 -10,4 -19,-5 -11,-13 -8,-17 -16,-4 -9,9 -15,-12 -1,-7 -12,8 -7,-17 -1,-10 -6,-11 2,-6 -2,-23 25,-26 14,-18 16,-18 10,6 6,-1 21,17 10,13 13,2 9,6Z"/>
    <path data-fips-int="51181" data-name="Surry County" d="M2865,1178l0,17 -6,11 -2,11 -12,7 -47,27 -40,27 -6,-32 0,-23 -9,3 -19,-10 -15,2 -3,-9 -9,1 -3,-8 -8,1 -10,-6 31,-33 0,-4 19,-9 6,-16 14,-3 10,4 21,15 12,-5 26,0 2,9 19,18 13,1 12,-25 9,13Z"/>
    <path data-fips-int="51183" data-name="Sussex County" d="M2758,1278l-51,35 -32,21 -70,43 -33,23 -24,-6 11,-71 -17,9 -17,-4 -5,4 -25,-15 86,-59 67,-44 28,-17 10,6 8,-1 3,8 9,-1 3,9 15,-2 19,10 9,-3 0,23Z"/>
    <path data-fips-int="51185" data-name="Tazewell County" d="M1068,1140l-6,5 -18,4 8,22 -20,6 -6,10 25,7 -2,17 -19,10 -24,8 -8,-2 -26,10 10,13 -18,12 3,-16 -14,7 -27,6 -26,20 -16,7 -10,-22 -29,9 -8,-30 -9,-18 -24,-29 -4,-16 14,-7 3,-8 28,-8 13,-7 7,-16 10,6 16,13 43,-1 23,-14 3,-10 6,2 19,-11 8,1 11,-23 11,-9 20,24Z"/>
    <path data-fips-int="51187" data-name="Warren County" d="M2327,277l-14,21 -8,3 -6,10 6,11 -20,5 -7,8 -19,23 0,9 -8,12 -16,7 -16,2 -2,-10 -16,-6 -21,-19 17,-22 1,-8 14,-26 -15,-17 9,-15 58,-6 5,-9 21,11 15,-3Z"/>
    <path data-fips-int="51191" data-name="Washington County" d="M706,1424l-3,-2 3,2 -16,9 -7,-1 -27,15 -20,0 -6,-15 -7,-42 13,-10 43,-20 36,-12 -4,-14 15,-13 38,-11 13,8 27,-13 19,-18 53,70 30,78 5,-2 -2,10 -15,3 -55,-2 -54,-3 -6,11 -83,-3 15,-17 2,-8 -6,-6 0,-1 0,1 -1,0 1,-1 -4,-8 3,9 -1,2Z"/>
    <path data-fips-int="51197" data-name="Wythe County" d="M1190,1223l8,23 13,13 25,31 21,30 -29,12 -16,2 -75,20 -18,9 -1,10 -26,-1 -13,5 -15,-4 -15,1 -5,-17 -19,-51 -21,-27 11,-6 24,-25 29,-15 16,12 19,-6 7,7 32,-11 21,-3Z"/>
    <path data-fips-int="51510" data-name="Alexandria City" d="M2696,338l1,0 3,4 0,21 -4,1 -10,-5 -24,1 -2,-13 12,-9 8,7 2,-8Z"/>
    <path data-fips-int="51515" data-name="Bedford City" d="M1754,1093l-6,13 -18,-4 5,-14 14,-1Z"/>
    <path data-fips-int="51530" data-name="Buena Vista City" d="M1814,886l0,12 -14,20 -4,-23Z"/>
    <path data-fips-int="51540" data-name="Charlottesville City" d="M2158,738 2,-2 -8,24 -8,-3 -11,3 3,-20 6,-7 12,1Z"/>
    <path data-fips-int="51550" data-name="Chesapeake City" d="M2985,1323l-7,12 12,14 32,-7 2,-12 12,0 4,-6 9,-2 -2,2 12,31 24,5 18,20 7,2 6,13 -21,10 2,57 -147,5 4,-72 4,-59 15,-26 8,0Z"/>
    <path data-fips-int="51570" data-name="Colonial Heights City" d="M2577,1136l0,1 -5,2 -2,-16 -1,1 -4,-6 22,-11 4,8 -6,6 0,12Z"/>
    <path data-fips-int="51580" data-name="Covington City" d="M1560,864l6,0 -5,11 5,12 -10,5 -6,-7 4,-5 0,-17Z"/>
    <path data-fips-int="51590" data-name="Danville City" d="M1809,1462 7,-1 1,10 10,0 -4,6 -11,4 0,10 -51,0 -1,-9 6,-9 -14,-2 -11,-11 8,-7 25,5 4,4 10,-21 13,3 1,13Z"/>
    <path data-fips-int="51595" data-name="Emporia City" d="M2539,1394l2,18 -19,5 -1,-19Z"/>
    <path data-fips-int="51600" data-name="Fairfax" d="M2611,329l0,11 -20,4 -6,-9 2,-6 11,-3Z"/>
    <path data-fips-int="51610" data-name="Falls Church City" d="M2648,313l8,9 -15,-1 1,-9Z"/>
    <path data-fips-int="51620" data-name="Franklin City" d="M2772,1395l1,12 6,6 0,11 -21,-9 -2,-17Z"/>
    <path data-fips-int="51630" data-name="Fredericksburg City" d="M2549,618l-4,6 -22,-3 -1,-13 -6,-2 9,-9 16,4Z"/>
    <path data-fips-int="51640" data-name="Galax City" d="M1186,1432l-13,1 1,-14 5,3 10,-10 12,0Z"/>
    <path data-fips-int="51650" data-name="Hampton City" d="M2982,1248l-7,-1 -9,-15 -6,3 -4,-9 -2,-20 6,-9 11,1 6,-7 5,-3 12,3 4,13 4,1 5,-11 5,2 10,-5 4,9 -11,41 1,-12 -9,8 -8,-2Z"/>
    <path data-fips-int="51660" data-name="Harrisonburg City" d="M1994,529l5,2 13,19 -2,8 -21,5 -2,10 -12,-1 6,-11 -4,-12 5,-10 5,2Z"/>
    <path data-fips-int="51678" data-name="Lexington City" d="M1775,870l7,2 -15,12 -3,-11Z"/>
    <path data-fips-int="51680" data-name="Lynchburg City" d="M1873,1032l3,6 13,10 5,11 11,2 8,6 -14,13 -5,-3 -17,16 -8,-1 -7,6 -17,-11 9,-19 -9,-6 5,-7 -11,-8 17,-12Z"/>
    <path data-fips-int="51683" data-name="Manassas City" d="M2539,376l0,2 4,3 -2,14 -16,4 -8,-5 4,14 -7,-4 0,-12 10,-15 8,-5Z"/>
    <path data-fips-int="51685" data-name="Manassas Park City" d="M2539,376l-7,-4 12,5 1,-6 8,10 -2,4Z"/>
    <path data-fips-int="51690" data-name="Martinsville City" d="M1615,1436 -1,0 0,-3 -1,3 1,0 -1,0 -21,-10 -4,-6 12,-16 15,6 -3,16 7,7Z"/>
    <path data-fips-int="51700" data-name="Newport News City" d="M2960,1197l-6,9 2,20 4,9 6,-3 9,15 7,1 -10,14 -7,-3 -15,-28 -26,-18 -15,-25 7,17 -5,2 -8,-9 -18,-16 8,-15 -2,-4 12,-12 -6,-12 12,-2 41,56Z"/>
    <path data-fips-int="51710" data-name="Norfolk City" d="M3040,1324l-4,6 -12,0 -2,-4 2,-5ZM3063,1279l1,8 -5,11 1,10 7,3 -8,15 -4,-2 -6,-4 -27,-1 -15,-14 5,-15 11,-1 -19,-6 2,-22 16,7 6,-9 21,13 16,4Z"/>
    <path data-fips-int="51720" data-name="Norton City" d="M521,1271 -10,7 2,10 -10,3 -5,-12 9,-13 8,0Z"/>
    <path data-fips-int="51730" data-name="Petersburg City" d="M2579,1169l-9,4 0,-8 -9,-3 -2,-18 13,-5 5,-2 0,-1 10,-3 6,2 13,20 -8,13 -11,-3Z"/>
    <path data-fips-int="51750" data-name="Radford City" d="M1337,1204 -16,12 -6,-16 10,-9 10,-3 7,7 1,-8 8,7Z"/>
    <path data-fips-int="51760" data-name="Richmond City" d="M2568,1033l-15,-8 -12,4 -10,-8 -6,-20 0,-9 -7,2 -4,-7 -9,5 -8,-1 0,-11 27,-2 -7,-7 5,-9 7,5 13,4 1,-13 16,0 0,6 10,3 1,14 7,1 1,22 -10,-6 -2,9Z"/>
    <path data-fips-int="51770" data-name="Roanoke City" d="M1538,1132l6,0 -1,-22 22,-14 3,8 22,0 8,7 0,11 -10,4 2,16 -8,10 -14,5 -16,-19 -12,4Z"/>
    <path data-fips-int="51775" data-name="Salem City" d="M1543,1110l1,22 -6,0 -6,5 -10,-2 -5,-12 -12,-3 16,-6 19,-11Z"/>
    <path data-fips-int="51790" data-name="Staunton City" d="M1937,675l2,9 -5,16 -9,7 -14,-3 -9,-6 -2,-8 6,-15 21,-2Z"/>
    <path data-fips-int="51800" data-name="Suffolk City" d="M2975,1295l1,9 -5,6 -15,26 -4,59 -4,72 -131,4 -38,1 -7,-3 9,-10 -2,-20 8,-6 -2,-7 45,-44 92,-93 6,2 13,-7 5,12 -12,4 -6,16 -14,14 12,-2 1,-4 19,-19 10,-3 6,-12Z"/>
    <path data-fips-int="51820" data-name="Waynesboro City" d="M1996,721l5,8 -6,18 -14,-1 -6,5 -3,-9 -7,-1 -1,-9 18,-14Z"/>
    <path data-fips-int="51830" data-name="Williamsburg City" d="M2838,1112l0,-1 0,1 0,-1 6,-2 -2,-13 7,13 12,-7 0,13 7,8 -24,1Z"/>
    <path data-fips-int="51840" data-name="Winchester City" d="M2263,169l11,7 -13,20 -10,1 2,-16 -4,-2 5,-13Z"/>
    <path data-fips-int="51001" data-name="Accomack County" d="M3276,946l7,4 -11,15 -12,27 -6,3 -5,-10 15,-19 -2,-5ZM3125,832l-4,3 -2,-17 6,5ZM3353,759l6,4 -7,8 -5,-6ZM3385,741l-13,20 0,11 -13,3 0,7 -8,2 8,-17ZM3201,854l4,-6 -10,-5 10,-8 2,7 8,-1 5,10 6,-11 10,3 -1,-9 -7,0 8,-22 5,7 7,-10 -9,-3 6,-7 -5,-11 7,-4 -27,5 -2,-7 12,-14 6,4 7,-6 13,3 0,-15 8,-15 95,-14 -19,15 -2,17 6,8 -6,1 10,8 -12,5 -2,8 -8,-3 -1,-6 -10,24 12,1 5,-14 13,2 -23,24 -18,30 -10,21 -7,21 -3,-5 4,-15 -3,-5 -8,22 8,15 -8,27 -1,15 -3,-11 4,-5 -9,-4 -2,-15 -6,2 -8,20 8,-1 10,24 -8,7 -8,-6 -7,5 7,12 -7,3 -2,8 -7,2 7,-10 -8,-5 1,-9 -8,4 -8,13 0,9 10,-4 8,3 -4,16 13,-7 1,15 -13,0 -3,-15 -6,4 -8,-9 -14,13 1,-14 -5,-5 6,-8 -20,-13 -17,2 -6,-4 -17,3 0,-7 9,-7 -3,-7 7,-14 2,9 8,0 13,-11 -15,5 -2,-16 7,-9 6,3 12,-8 -12,1 6,-18 13,-6 12,5 -12,-10 -11,-1 19,-10ZM3409,720l-21,40 -10,26 -15,21 -15,-12 11,-1 8,5 7,-13 -15,0 6,-10 21,-17 -4,-5 9,-11 8,-23Z"/>
    <path data-fips-int="51003" data-name="Albemarle County" d="M2190,673l63,25 -18,35 -20,28 -40,62 -31,43 -1,16 -6,4 -14,-3 -28,5 -10,10 -6,6 -11,-7 1,-12 7,1 -69,-143 18,-10 6,-8 -4,-22 5,-6 3,-17 7,-16 8,-13 18,-11 10,-3 -3,-9 36,16ZM2160,736 -2,2 -4,-4 -12,-1 -6,7 -3,20 11,-3 8,3Z"/>
    <path data-fips-int="51005" data-name="Alleghany County" d="M1690,831l15,8 -24,46 -56,-19 -11,9 -7,15 -11,7 -10,18 -11,2 -4,6 -26,19 -5,-7 -22,17 -23,14 -9,-9 -14,0 -6,-6 -22,-20 -7,-12 18,-19 -5,-4 7,-15 11,-4 -5,-8 19,-30 13,-16 3,2 26,-30 8,-4 11,4 10,-8 11,3 15,0 19,30 30,6 24,-2 22,21ZM1560,864l-6,-1 0,17 -4,5 6,7 10,-5 -5,-12 5,-11Z"/>
    <path data-fips-int="51013" data-name="Arlington County" d="M2697,338l-1,0 -14,-1 -2,8 -8,-7 -16,-16 -8,-9 19,-20 13,15 8,1 3,10 9,6 2,12Z"/>
    <path data-fips-int="51015" data-name="Augusta County" d="M2042,664l-7,16 -3,17 -5,6 4,22 -6,8 -18,10 -7,9 -6,0 -5,16 -8,5 6,5 -3,14 -17,5 -5,11 -10,5 -9,12 -6,-5 -10,1 -6,-13 -33,14 -4,-1 -12,-12 -52,-37 -64,-47 -4,-5 22,-32 -18,-5 -17,9 0,-9 6,-5 16,-21 11,3 12,-13 4,-9 -3,-9 21,-37 11,-14 7,0 -6,-10 3,-5 14,-4 15,-25 6,-4 122,86 7,-1 9,9ZM1937,675l-10,-2 -21,2 -6,15 2,8 9,6 14,3 9,-7 5,-16ZM1996,721l-14,-3 -18,14 1,9 7,1 3,9 6,-5 14,1 6,-18Z"/>
    <path data-fips-int="51019" data-name="Bedford County" d="M1873,1032l-17,3 -17,12 11,8 -5,7 9,6 -9,19 -15,29 -19,40 -39,80 -19,-3 3,15 9,6 -9,6 -6,-9 -18,-11 -7,6 -13,-4 1,-4 -12,-14 4,-1 -12,-12 -11,-22 -13,0 -8,-21 -14,1 -7,-6 -1,-15 -11,8 -16,-5 -4,-21 3,-4 1,-16 1,-5 23,-17 4,-14 -6,0 -9,-11 24,-11 26,-25 12,-4 8,13 16,5 6,-3 0,-9 10,-12 4,3 11,-9 8,-12 25,-19 -5,-2 -4,-16 8,-5 2,8 7,-3 13,7 8,26 10,13 16,7 13,-5 1,7 14,-6 0,7ZM1754,1093l-5,-6 -14,1 -5,14 18,4Z"/>
    <path data-fips-int="51059" data-name="Fairfax County" d="M2667,293l-19,20 -6,-1 -1,9 15,1 16,16 -12,9 2,13 24,-1 10,5 4,33 -5,6 -9,-1 -7,7 -13,-1 3,9 -11,3 -3,-8 -11,5 13,9 10,15 -13,-2 -2,7 -12,4 -6,-9 9,-7 -20,-9 -6,-7 -17,-12 -21,-8 -8,6 -5,-17 -11,-4 2,-7 -13,-16 -7,5 -12,-1 -6,-22 -11,-2 75,-103 4,-3 8,2 23,15 -3,10 7,12 15,4 18,0ZM2611,329l-13,-3 -11,3 -2,6 6,9 20,-4Z"/>
    <path data-fips-int="51069" data-name="Frederick County" d="M2313,136l-11,27 -5,3 2,13 -6,10 -2,13 -6,6 2,7 -13,16 -5,19 -5,9 -58,6 -4,-18 -9,-7 9,-9 -4,-12 -11,2 -16,2 -17,19 -2,14 -34,-14 19,-23 13,-6 12,-19 9,-8 -13,-16 14,-22 -7,-6 22,-31 7,-17 -10,-3 9,-15 -6,-8 4,-11 0,-19ZM2263,169l-9,-3 -5,13 4,2 -2,16 10,-1 13,-20Z"/>
    <path data-fips-int="51081" data-name="Greensville County" d="M2495,1317l25,15 5,-4 17,4 17,-9 -11,71 24,6 -27,18 16,10 19,-2 11,6 6,17 5,3 -2,12 6,13 14,0 6,2 -125,3 -61,1 42,-85 -3,-89 8,10 3,-7ZM2539,1394l-18,4 1,19 19,-5Z"/>
    <path data-fips-int="51089" data-name="Henry County" d="M1663,1491l-135,-2 2,-33 -3,-25 -7,-10 -7,-23 3,-5 -3,-21 21,-7 11,6 6,-24 74,19 10,-4 10,6 9,-11 19,-9 10,0 10,-13ZM1613,1436l1,0 -1,0 1,-3 0,3 1,0 4,-3 -7,-7 3,-16 -15,-6 -12,16 4,6Z"/>
    <path data-fips-int="51103" data-name="Lancaster County" d="M2986,935l-4,5 -11,-9 -6,1 -13,-10 -6,1 -9,-9 11,-8 -9,-12 -17,-8 12,14 1,9 -13,13 -8,-4 -4,-25 -7,-3 -12,-26 -19,-9 7,-9 14,-6 4,-9 23,-2 12,0 4,8 20,-1 0,8 7,13 14,3 2,23 -3,7 9,5 11,13 -6,6 2,15 7,-5 9,3 6,9Z"/>
    <path data-fips-int="51115" data-name="Mathews County" d="M3018,995l1,7 -16,-3 8,-13ZM2952,1020l-4,-16 6,-13 8,1 5,-10 15,2 4,7 8,2 2,7 11,1 21,24 0,26 4,-1 -12,16 2,20 -15,-7 2,-11 -13,-5 2,-15 -6,-5 -2,17 -17,-11 -5,-13 -16,-1Z"/>
    <path data-fips-int="51119" data-name="Middlesex County" d="M2909,964l-1,6 -9,-3 0,-6 -11,-6 -4,3 -17,-10 -12,-7 -14,-20 -13,-23 -1,-11 11,-15 8,1 7,-8 2,6 20,4 14,18 6,19 -2,9 21,21 40,-1 4,13 13,5 19,1 17,4 -2,5 -20,8 -19,-2 -6,15 -4,-9 -10,3 -9,-7 -9,0 -4,-9 -6,4Z"/>
    <path data-fips-int="51131" data-name="Northampton County" d="M3179,1171l-16,12 9,-15 16,-8ZM3209,1132l-7,12 -8,-2 -15,10 5,-10ZM3209,1118l-1,11 -13,4ZM3179,1091l7,4 3,11 -6,2 -7,16 0,11 8,3 -6,14 -11,-2 2,-22 -8,-8 10,-8 0,-12ZM3222,1082l2,-10 15,-16 -5,12ZM3182,1064l7,11 -7,12 -11,4 -4,-4 13,-11ZM3209,1069l1,-26 5,8ZM3260,1009l-19,39 0,-12 7,-18 -5,-6ZM3207,986l-9,14 -2,23 14,12 -15,9 -11,-5 -13,21 -10,24 2,11 -4,12 2,5 0,20 -6,7 1,32 -11,9 -3,-15 -17,-29 2,-13 -7,-13 9,-24 6,-12 -14,10 2,-12 10,-17 0,-6 8,-6 -4,-7 16,-16 -19,11 0,-10 8,-16 16,-8 5,-11 -15,14 -8,-2 4,-18 9,-16 18,2 17,-6 20,13 -6,8Z"/>
    <path data-fips-int="51133" data-name="Northumberland County" d="M2985,895l-9,-5 3,-7 -2,-23 -14,-3 -7,-13 0,-8 -20,1 -4,-8 -12,0 0,-5 -16,-9 3,-11 -6,-20 -32,-17 6,-17 12,-3 4,-5 12,-3 5,11 0,-14 23,5 4,5 -15,12 11,-4 14,1 17,13 0,16 4,2 -2,-14 18,1 33,17 -5,13 14,0 -2,26 -12,10 3,-15 -7,-6 3,16 -5,-7 -6,2 -10,-11 -12,2 -3,-7 -21,-2 19,6 2,6 15,0 12,20 -4,27 5,10 -9,-5 4,14 8,10 -12,3Z"/>
    <path data-fips-int="51153" data-name="Prince William County" d="M2508,340l11,2 6,22 12,1 7,-5 13,16 -2,7 11,4 5,17 8,-6 21,8 17,12 6,7 7,11 -7,4 -7,28 3,11 -10,11 -11,-9 11,15 -6,11 -5,2 -9,-6 -13,-2 -10,-13 -21,-17 -6,1 -10,-6 -16,18 -36,-64 -38,-72 4,-6 4,-22 5,-2 9,-25 14,6 14,19 13,5 -1,11ZM2539,378 0,-2 12,9 2,-4 -8,-10 -1,6 -12,-5 -8,5 -10,15 0,12 7,4 -4,-14 8,5 16,-4 2,-14Z"/>
    <path data-fips-int="51161" data-name="Roanoke County" d="M1612,1110l-1,16 -3,4 4,21 -18,13 0,7 -8,10 -20,14 -17,-10 -1,-8 -39,12 -8,12 -1,1 -9,5 -10,-1 -5,-60 -26,-37 -1,-16 24,-18 21,-2 29,-20 4,7 43,21 35,19ZM1543,1110l-3,-7 -19,11 -16,6 12,3 5,12 10,2 6,-5 2,10 12,-4 16,19 14,-5 8,-10 -2,-16 10,-4 0,-11 -8,-7 -22,0 -3,-8Z"/>
    <path data-fips-int="51163" data-name="Rockbridge County" d="M1884,821l5,17 -6,10 1,8 -6,9 -14,7 -10,-11 -12,8 -18,30 -5,21 -15,21 -16,12 -14,4 -8,5 4,16 5,2 -25,19 -31,-24 1,-6 -43,-34 5,-6 -7,-30 6,-14 24,-46 -15,-8 17,-31 13,-13 25,-37 -5,-3 16,-22 64,47 52,37ZM1775,870l-11,3 3,11 15,-12ZM1814,886l-18,9 4,23 14,-20Z"/>
    <path data-fips-int="51165" data-name="Rockingham County" d="M1993,388l50,45 39,33 -7,12 -4,18 -7,18 14,7 8,-1 4,15 25,9 8,9 21,3 -6,13 -6,2 -4,11 -7,3 -3,14 -17,8 -3,7 -19,7 -4,7 3,9 -10,3 -18,11 -8,13 -48,-40 -9,-9 -7,1 -122,-86 6,-7 2,-16 13,-22 10,-30 8,-15 12,0 3,-14 -3,-7 5,-17 9,-13 4,-15 7,0 3,-13 5,-3 5,-13ZM1994,529l-7,12 -5,-2 -5,10 4,12 -6,11 12,1 2,-10 21,-5 2,-8 -13,-19Z"/>
    <path data-fips-int="51193" data-name="Westmoreland County" d="M2891,742l-4,5 -12,3 -6,17 -8,-7 -18,-1 -12,-7 -14,-1 4,-14 -17,-13 -7,0 -16,-17 -9,-15 -22,22 -20,-3 -6,-11 -11,9 -7,-10 -1,-15 -6,-9 6,-10 0,-39 6,-4 19,-3 9,14 -6,6 4,10 23,8 11,11 14,4 26,-2 10,9 0,7 10,0 3,12 -13,3 14,1 4,-18 -7,-1 12,-11 17,14 4,13 2,-13 -4,-8 13,-1 3,17 26,18 7,14 -15,3 4,6 -10,1Z"/>
    <path data-fips-int="51195" data-name="Wise County" d="M628,1260l11,32 -9,9 -2,-5 -13,5 -4,-3 -15,8 1,-4 -84,-1 -7,1 -9,16 -15,12 -22,-7 -10,16 -24,-25 -5,1 -2,-12 -9,-11 0,-8 8,-10 1,-12 -4,-12 13,-5 2,-8 19,-1 14,-8 2,-9 8,0 0,-14 2,-24 36,-16 4,-5 28,-17 2,38 20,34 0,7 10,11 20,17 13,5 7,12ZM515,1266 -8,0 -9,13 5,12 10,-3 -2,-10 10,-7Z"/>
    <path data-fips-int="51199" data-name="York County" d="M2863,1064l23,31 17,16 9,1 10,13 24,13 18,-4 1,7 11,4 0,12 -5,1 -5,11 3,6 8,16 -6,7 -11,-1 -10,-4 -41,-56 -12,2 -4,-11 -21,-1 -5,-11 -6,-1 0,-13 -12,7 -7,-13 -3,-13 -8,-4 5,-15Z"/>
    <path data-fips-int="51520" data-name="Bristol City" d="M706,1424l-1,-4 1,-2 -3,-9 4,8 -1,1 1,0 0,-1 0,1 6,6 -2,8 -15,17 -40,-2 27,-15 7,1Z"/>
    <path data-fips-int="51670" data-name="Hopewell City" d="M2635,1108l-28,17 -4,-26 8,2 11,0 3,-5Z"/>
    <path data-fips-int="51735" data-name="Poquoson City" d="M2990,1162l27,17 -21,14 -8,-10 -6,5 -5,3 -8,-16 5,-11 12,8 8,-3Z"/>
    <path data-fips-int="51740" data-name="Portsmouth City" d="M3022,1326l2,4 -2,12 -32,7 -12,-14 8,-11 8,1 4,-9 12,-3ZM2985,1323l-6,-13 -8,0 5,-6 -1,-9 8,0 1,-15 12,0 2,19 4,13 -10,10Z"/>
    <path data-fips-int="51810" data-name="Virginia Beach City" d="M3157,1456l14,-3 3,7 -16,0ZM3171,1408l-6,3 -2,-13 6,-1ZM3095,1462l-2,-57 21,-10 -6,-13 -7,-2 -18,-20 -24,-5 -12,-31 2,-2 6,2 4,2 8,-15 -7,-3 -1,-10 5,-11 -1,-8 3,-4 15,3 17,7 -1,8 9,4 6,14 0,-16 -8,-12 17,-10 16,4 10,31 12,48 10,28 17,37 10,38 -13,-2 5,-6 -1,-13 -9,-11 -5,-14 2,-10 -12,-26 -10,3 6,4 -7,16 2,5 -10,14 6,25 -5,6 5,10 -13,1 1,-4 -15,-16 6,20Z"/>
  </g>
  <g class="cities">
    <circle r="3" cx="314.7" cy="131.1"/>
    <text x="314.7" y="131.1">Virginia Beach</text>
    <circle r="3" cx="302.5" cy="131.8"/>
    <text x="302.5" y="131.8">Norfolk</text>
    <circle r="3" cx="303.0" cy="133.2"/>
    <text x="303.0" y="133.2">Chesapeake</text>
  </g>
</svg>