<?xml version="1.0" encoding="utf-8"?>
<!DOCTYPE svg PUBLIC "-//W3C//DTD SVG 1.1//EN" "http://www.w3.org/Graphics/SVG/1.1/DTD/svg11.dtd">
<svg version="1.1" xmlns="http://www.w3.org/2000/svg" width="350" height="153" viewBox="0 0 350 153">
  <path class="state" transform="scale(0.1)" d="M2610,1062l19,21 -19,18 25,7 62,-9 20,20 18,-15 -5,31 45,16 33,-4 32,29 20,-27 5,29 3,43 73,42 -13,28 13,13 34,-9 20,-15 8,32 -20,11 -5,13 33,-23 8,12 22,-1 5,-1 7,1 -45,-22 -2,-41 18,-3 40,22 35,5 35,-12 25,83 35,89 -22,-29 -8,-40 -21,42 6,43 -55,2 -146,3 -171,6v3l-150,3 -188,4 -111,3 -273,5h-193l-50,1h-52l-96,-1h-135l-98,-2 -126,-8 -89,-2 -334,-21 12,-12 -110,-5 -3,10 -85,-1 -40,-1 -20,-2 -275,-9 -104,-3 -170,-11 57,-29 41,1 33,-16 87,-17 25,-54 28,2 50,-18 7,-42 58,-30v-37l70,-40 81,-30 17,-15 138,-115 -13,36 23,13v31l32,46 38,6 5,19 26,19 45,-1 50,-33 30,-31 53,52 49,-22 48,-5 51,-26 -3,-41 53,23 85,-47 13,29 70,-41 -11,-28 43,-31 -28,-32 51,-90 43,-39 22,-21 28,-55 5,-41 47,-38 -7,-21 47,-60 16,-80 45,20 24,47 63,22 35,-33 55,-129 33,-56 48,43 32,-62 26,-8 37,-40 8,8 22,-45 53,-55 -6,-44 29,-45 -3,-59 122,98 79,65 40,-96 60,8 42,37 -24,54 24,22 53,8 32,15v21l48,23 30,28v17v26l1,34 -48,22 15,21 -26,9 -15,-25 6,11 -26,71 -10,22 16,54 -15,7 35,3 83,-24 9,45 -12,8 18,-3 9,30 93,36 13,-13 63,41 -16,29h38l91,56 2,26 -26,6 9,64 -21,1 2,40 -52,-26 -12,17 -41,-80 -47,-13 -26,-42 -42,-32 -15,-45 -45,-15 -7,-24h-1l5,27 51,16v40l42,42 40,56 18,9 33,25 4,32 26,20 92,22 -45,12 -5,14 -48,-26 41,26 32,-5 40,34 -7,62 -40,-28 -26,-32 11,32 -18,10 32,25 3,24 -48,11 -80,-99 -32,-31 -6,-37 6,21 -36,10 8,-24 -45,-2 35,26 22,-11 26,45 33,43 25,31 50,38 42,14 -8,28 18,-12 28,17 -35,8 14,21 26,-16 -7,36 -34,19 -19,8 -11,-25 -65,-47 5,-21 -20,-27 -37,18 -18,-23 -28,-2 -4,-62v52l-16,14 -39,-37 -25,19v-26l-21,10 -48,-4 3,-31ZM3201,854l30,-17 11,-48 -23,-8 38,-13 5,-29 95,-15 -18,16 6,50 -36,41 -33,55v38l-15,-16 10,42 -29,32 -3,27 -33,-22 -9,35 -30,36 -13,73v40l-28,-34 -5,-63 28,-108 38,-6h-41l20,-47 33,-37Z"/>
  <g class="counties" transform="scale(0.1)">
    <path data-fips-int="51007" data-name="Amelia County" d="M2397,1051l-8,26 32,15 23,32 8,-15 27,16 -3,12 -54,25 -173,-49 -1,-35 20,-39 20,-5 26,1 30,-17 37,6Z"/>
    <path data-fips-int="51009" data-name="Amherst County" d="M1997,994l-59,56 -25,17 -40,-35 -59,-25 -17,-38 -23,-11 36,-22 38,-72 30,1 40,13 4,32 36,16 27,66Z"/>
    <path data-fips-int="51011" data-name="Appomattox County" d="M2106,1064l-3,24 -30,51 -57,22 -39,-21 -39,-90 59,-56 18,-5 51,51Z"/>
    <path data-fips-int="51017" data-name="Bath County" d="M1634,635l35,23 76,20 29,7 -17,39 -67,107 -16,14 -23,-21 -55,-5 -17,-29h-47l22,-21 28,-55 5,-41Z"/>
    <path data-fips-int="51021" data-name="Bland County" d="M1165,1113l-13,8 61,65 -30,16 7,21 -80,23 -38,-12 -69,45 -21,-29 -10,-13 76,-26 4,-17 -27,-13 27,-10 -7,-22 23,-9 49,-22Z"/>
    <path data-fips-int="51023" data-name="Botetourt County" d="M1680,885l-3,50 73,64 -33,40 -43,-12 -48,35 15,12 -29,35 -90,-56 42,-60 -20,-51 40,-25 42,-51Z"/>
    <path data-fips-int="51025" data-name="Brunswick County" d="M2387,1264l50,6 42,39 3,90 -43,83 -111,3 6,-116 7,-121 15,16Z"/>
    <path data-fips-int="51027" data-name="Buchanan County" d="M864,1134l-9,18 -54,28 -44,10 -5,26 -53,11 -2,-35 -29,-47 -4,-33 -23,-14 138,-115 -13,36 23,13v31l32,46 38,6Z"/>
    <path data-fips-int="51029" data-name="Buckingham County" d="M2244,918l-3,27 -83,148 -18,5 -34,-34 -40,-24 -51,-51 6,-44 35,2 29,-48 58,-16 2,-16 24,26Z"/>
    <path data-fips-int="51031" data-name="Campbell County" d="M1938,1050l39,90 39,21 -31,91 -73,-20 -12,-13 -35,10 2,-20 -72,-4 -23,31 73,-149 17,12 51,-32Z"/>
    <path data-fips-int="51033" data-name="Caroline County" d="M2595,636h40l5,23 37,22 -18,37 38,54 -42,9 2,29 -27,11 -36,41 -24,6 -16,-57 -15,6 -60,-41 -3,-11 103,-129Z"/>
    <path data-fips-int="51035" data-name="Carroll County" d="M1366,1405l-25,32 -31,-4 -5,47 -89,-2 -30,-46 4,-21 -4,-1 -6,11 -43,-68 119,-33 44,-26Z"/>
    <path data-fips-int="51036" data-name="Charles City County" d="M2722,1038l48,24 13,5v52l-16,14 -39,-37 -25,19v-26l-21,10 -48,-4 3,-31 27,-56Z"/>
    <path data-fips-int="51037" data-name="Charlotte County" d="M2168,1222l-20,93 -60,96 -18,-21 8,-58 -32,-30 4,-42 -22,25 -8,-15 -33,3 -2,-21 31,-91 57,-22 -5,23 42,30 31,6Z"/>
    <path data-fips-int="51041" data-name="Chesterfield County" d="M2497,980l27,12 8,31 35,10 13,31 30,-2 19,21 -19,18 -6,-2 -17,34 -10,4 -7,-14 2,16 -13,5h-44l-36,-19 -27,-16 -8,15 -23,-32 -32,-15 8,-26 79,-74Z"/>
    <path data-fips-int="51043" data-name="Clarke County" d="M2392,201l-11,25 -39,34 -16,17 -57,-27 17,-30 27,-84Z"/>
    <path data-fips-int="51045" data-name="Craig County" d="M1522,1053l-73,40 -26,-13 -42,25 -17,-54 70,-41 -11,-28 43,-31 28,15 50,-24 20,51Z"/>
    <path data-fips-int="51047" data-name="Culpeper County" d="M2474,557l7,21 -34,4 -73,-13 -78,40v-45l-55,-64 25,5 30,-38 60,-50 11,1 12,55 25,26 30,57Z"/>
    <path data-fips-int="51049" data-name="Cumberland County" d="M2274,888l29,21 6,25 -21,100 -20,5 -20,39 -34,29 -56,-14 83,-148 3,-27Z"/>
    <path data-fips-int="51051" data-name="Dickenson County" d="M699,1227l-70,34 -58,-28 -27,-52 -1,-38 81,-30 17,-15 23,14 4,33 29,47Z"/>
    <path data-fips-int="51053" data-name="Dinwiddie County" d="M2559,1144l20,26 1,88 -84,58 -17,-7 -42,-39 -50,-6 -5,-77 40,-25 54,-25 3,-12 36,19Z"/>
    <path data-fips-int="51057" data-name="Essex County" d="M2853,865l-28,21 -17,-30 -56,6 -2,-23 -25,-4 -28,-63 -38,-54 18,-37 20,-6 5,27 51,16v40l42,42 40,56Z"/>
    <path data-fips-int="51061" data-name="Fauquier County" d="M2461,293l-22,55 73,135 -35,43 -3,31 -40,-1 -30,-57 -25,-26 -12,-55 -11,-1 -25,-7 -20,-44 -33,-31 48,-58 16,-17Z"/>
    <path data-fips-int="51063" data-name="Floyd County" d="M1501,1202l5,57 -48,66 -62,37 -5,27 -25,16 -66,-111 36,-25 78,-18 25,-28 42,-17Z"/>
    <path data-fips-int="51065" data-name="Fluvanna County" d="M2313,811l-39,77 -30,30 -75,-25 -24,-26 71,-106Z"/>
    <path data-fips-int="51067" data-name="Franklin County" d="M1712,1243l-18,92 -67,31 -78,-19 -17,18 -23,-26 -51,-14 48,-66 -5,-57 38,-25 25,18 48,-43 47,16Z"/>
    <path data-fips-int="51071" data-name="Giles County" d="M1364,1051l17,54 -68,34 -80,32 -20,15 -61,-65 13,-8 51,-26 -3,-41 53,23 85,-47Z"/>
    <path data-fips-int="51073" data-name="Gloucester County" d="M2910,964l41,26 -1,31 11,32 -18,10 32,25 3,24 -48,11 -80,-99 15,-4v-73Z"/>
    <path data-fips-int="51075" data-name="Goochland County" d="M2417,896l65,10 -6,71 -119,-54 -11,27 -37,-16 -6,-25 -29,-21 39,-77 44,28 24,42Z"/>
    <path data-fips-int="51077" data-name="Grayson County" d="M1137,1353l43,68 6,11 30,46 -334,-21 12,-12 16,-12 30,-17 -5,-14 45,-7 68,-22h70Z"/>
    <path data-fips-int="51079" data-name="Greene County" d="M2221,630l-32,43 -114,-45 43,-28 25,-44 13,-27 10,56 38,45Z"/>
    <path data-fips-int="51083" data-name="Halifax County" d="M1985,1252l2,21 33,-3 8,15 22,-25 -4,42 32,30 -8,58 18,21 -22,12 -8,49 -3,18h-193l50,-258Z"/>
    <path data-fips-int="51085" data-name="Hanover County" d="M2476,765l3,11 60,41 15,-6 16,57 24,-6 63,64 31,-3 -8,18 -38,46 -70,-32 -35,-47 -30,9 -25,-11 -65,-10 40,-140Z"/>
    <path data-fips-int="51087" data-name="Henrico County" d="M2642,987l22,21 -27,56 -27,-2 -30,2 -13,-31 10,-51 -18,-24 -22,9h-8h-9l-23,13 -21,-3 6,-71 25,11 30,-9 35,47Z"/>
    <path data-fips-int="51091" data-name="Highland County" d="M1822,563l-38,64v20l-39,31 -76,-20 -35,-23 -7,-21 47,-60 16,-80 45,20 24,47Z"/>
    <path data-fips-int="51093" data-name="Isle of Wight County" d="M2928,1291l-12,4 -131,131 -5,-2 -8,-30 41,-93 -16,-50 59,-32 9,-41 3,43 73,42Z"/>
    <path data-fips-int="51095" data-name="James City County" d="M2836,1112l24,3 36,24 -6,24 -20,-27 -37,18 -18,-23 -28,-2 -4,-62 -13,-5 3,-27 55,-14 33,43 -6,2 -20,-2 5,32h3h-3Z"/>
    <path data-fips-int="51097" data-name="King and Queen County" d="M2697,772l28,63 25,4 2,23 56,-6 17,30 40,61v73l-15,4 -32,-31 -6,-37 -30,-14 -20,-37 -20,4 -54,-47 -28,-52h-3l-2,-29Z"/>
    <path data-fips-int="51099" data-name="King George County" d="M2710,622l-12,53h-1l-20,6 -37,-22 -5,-23h-40v-46l35,3 83,-24 9,45Z"/>
    <path data-fips-int="51101" data-name="King William County" d="M2657,810h3l28,52 54,47 20,-4 20,37 30,14 6,21 -36,10 8,-24 -45,-2 -20,10 -45,-30 8,-18 -31,3 -63,-64 36,-41Z"/>
    <path data-fips-int="51105" data-name="Lee County" d="M450,1339l-25,36 -49,22 -15,40 -104,-3 -170,-11 57,-29 41,1 33,-16 87,-17 25,-54 28,2 50,-18Z"/>
    <path data-fips-int="51107" data-name="Loudoun County" d="M2587,234l-78,106 -7,-19 -41,-28 -119,-33 39,-34 11,-25 40,-96 60,8 42,37 -24,54 24,22Z"/>
    <path data-fips-int="51109" data-name="Louisa County" d="M2352,704l47,6 35,39 23,7 -40,140 -36,-15 -24,-42 -44,-28 -97,-50 37,-63 40,-10Z"/>
    <path data-fips-int="51111" data-name="Lunenburg County" d="M2248,1201l6,15 57,38 30,-6 -7,121 -101,-20 -85,-34 20,-93Z"/>
    <path data-fips-int="51113" data-name="Madison County" d="M2241,500l55,64v45l-32,24 -16,17 -27,-20h-17l-38,-45 -10,-56 4,-26 23,-15 16,-34Z"/>
    <path data-fips-int="51117" data-name="Mecklenburg County" d="M2334,1369l-6,116 -273,5 3,-18 8,-49 22,-12 60,-96 85,34Z"/>
    <path data-fips-int="51121" data-name="Montgomery County" d="M1449,1093l29,58 3,55 -42,17 -25,28 -78,18 -2,-40 -13,-13 15,-13 10,-4 -2,-12 -26,-19 -5,-29 68,-34 42,-25Z"/>
    <path data-fips-int="51125" data-name="Nelson County" d="M2085,899l-29,48 -35,-2 -6,44 -18,5 -12,-2 -27,-66 -36,-16 -4,-32 -40,-13 5,-43 32,-13 28,17 65,-83 62,132Z"/>
    <path data-fips-int="51127" data-name="New Kent County" d="M2745,961l35,26 22,-11 26,45 -55,14 -3,27 -48,-24 -58,-30 -22,-21 38,-46 45,30Z"/>
    <path data-fips-int="51135" data-name="Nottoway County" d="M2422,1162l-40,25 5,77h-31l-15,-16 -30,6 -57,-38 -6,-15 1,-88Z"/>
    <path data-fips-int="51137" data-name="Orange County" d="M2447,582l-16,29 -79,93 -59,-16 -40,10 -64,-25 32,-43 27,20 16,-17 32,-24 78,-40Z"/>
    <path data-fips-int="51139" data-name="Page County" d="M2219,388l-13,10 -7,56 -16,34 -23,15 -4,26 -13,27 -25,-3 -32,-33 -23,-7 18,-47 37,-67 15,7 46,-53Z"/>
    <path data-fips-int="51141" data-name="Patrick County" d="M1532,1365l-15,3 -3,37 13,28 2,57 -98,-2 -126,-8 5,-47 31,4 25,-32 25,-16 5,-27 62,-37 51,14Z"/>
    <path data-fips-int="51143" data-name="Pittsylvania County" d="M1912,1232l-50,258 -50,1v-10l7,-4 -32,-37 -7,21h-38l18,30 -96,-1 30,-155 18,-92 45,18 -5,-29 20,4 23,-31 72,4 -2,20 35,-10Z"/>
    <path data-fips-int="51145" data-name="Powhatan County" d="M2476,977l-79,74 -16,-27 -37,-6 -30,17 -26,-1 21,-100 37,16 11,-27Z"/>
    <path data-fips-int="51147" data-name="Prince Edward County" d="M2158,1093l56,14 34,-29 1,35 -1,88 -80,21 -27,-24 -31,-6 -42,-30 5,-23 30,-51 3,-24 34,34Z"/>
    <path data-fips-int="51149" data-name="Prince George County" d="M2635,1108l62,-9 20,20 18,-15 -5,31 -55,62 -95,61 -1,-88 26,-17 -18,-20 17,-34 3,23Z"/>
    <path data-fips-int="51155" data-name="Pulaski County" d="M1344,1187l-28,10 5,19 13,13 2,40 -36,25 -44,26 -60,-76 -6,-21 -7,-21 30,-16 20,-15 80,-32 5,29Z"/>
    <path data-fips-int="51157" data-name="Rappahannock County" d="M2311,366l20,44 25,7 -60,50 -30,38 -25,-5 -42,-46 7,-56 13,-10 34,-9 25,-44Z"/>
    <path data-fips-int="51159" data-name="Richmond County" d="M2868,766l32,18 3,32 17,13 -40,17 -47,-13 -26,-42 -42,-32 -15,-45 20,-22 50,44 -2,16Z"/>
    <path data-fips-int="51167" data-name="Russell County" d="M845,1272l-23,14 -20,20 -76,15 -12,28 -48,16 -43,25 -27,-83 43,-15 -10,-31 70,-34 53,-11 5,-26 44,-10 31,50Z"/>
    <path data-fips-int="51169" data-name="Scott County" d="M596,1307l27,83 13,56 -275,-9 15,-40 49,-22 25,-36 28,-7 31,-31Z"/>
    <path data-fips-int="51171" data-name="Shenandoah County" d="M2206,265l7,32 -34,56 -46,53 -15,-7 -37,67 -88,-78 32,-62 26,-8 37,-40 8,8 22,-45 35,15 23,-37 22,-1Z"/>
    <path data-fips-int="51173" data-name="Smyth County" d="M982,1250l21,29 22,27 23,67 -68,22 -45,7 5,14 -30,17 -35,-77 -53,-70 23,-14 27,-8 12,22 41,-26Z"/>
    <path data-fips-int="51175" data-name="Southampton County" d="M2772,1394l-14,20 22,10 5,2 -8,46v3l-150,3 -25,-6 -15,-43 -43,-11 28,-18 186,-123 39,-26 16,50Z"/>
    <path data-fips-int="51177" data-name="Spotsylvania County" d="M2481,578l34,28 34,12 30,18 -103,129 -19,-9 -23,-7 -35,-39 -47,-6 79,-93 16,-29Z"/>
    <path data-fips-int="51179" data-name="Stafford County" d="M2604,507l-10,22 16,54 -15,7v46h-16l-30,-18 -34,-12 -34,-28 -7,-21 3,-31 35,-43 17,-17 41,31Z"/>
    <path data-fips-int="51181" data-name="Surry County" d="M2865,1178l-9,41 -59,32 -39,26 -6,-54 -45,-4 -32,-22 55,-62 45,16 33,-4 32,29 20,-27Z"/>
    <path data-fips-int="51183" data-name="Sussex County" d="M2758,1277l-186,123 -23,-6 10,-71 -39,10 -24,-17 84,-58 95,-61 32,22 45,4Z"/>
    <path data-fips-int="51185" data-name="Tazewell County" d="M1068,1140l-23,9 7,22 -27,10 27,13 -4,17 -76,26 10,13 -57,10 -41,26 -12,-22 -27,8 -13,-42 -31,-50 54,-28 9,-18 26,19 45,-1 50,-33 30,-31Z"/>
    <path data-fips-int="51187" data-name="Warren County" d="M2326,277l-48,58 -25,44 -34,9 -40,-35 34,-56 -7,-32 57,-5 6,-10Z"/>
    <path data-fips-int="51191" data-name="Washington County" d="M706,1423l-50,25 -20,-2 -13,-56 43,-25 48,-16 12,-28 76,-15 20,-20 53,70 35,77 -16,12 -110,-5 -3,10 -85,-1 10,-32Z"/>
    <path data-fips-int="51197" data-name="Wythe County" d="M1190,1223l6,21 60,76 -119,33 -19,20h-70l-23,-67 -22,-27 69,-45 38,12Z"/>
    <path data-fips-int="51510" data-name="Alexandria City" d="M2697,338v26l-35,-3 8,-24Z"/>
    <path data-fips-int="51550" data-name="Chesapeake City" d="M2983,1323l-5,13 10,13 33,-19 20,-6 5,-1 10,32 25,6 32,30 -22,14 3,58 -146,3 7,-130 16,-27Z"/>
    <path data-fips-int="51590" data-name="Danville City" d="M1819,1477l-7,4v10h-52l-18,-30h38l7,-21Z"/>
    <path data-fips-int="51650" data-name="Hampton City" d="M2980,1248l-4,-3 -18,-10 2,-38 18,-6 3,-3 14,21 26,-16 -7,36Z"/>
    <path data-fips-int="51660" data-name="Harrisonburg City" d="M1993,529l17,29 -33,16Z"/>
    <path data-fips-int="51680" data-name="Lynchburg City" d="M1873,1032l40,35 -51,32 -17,-12 -5,-37Z"/>
    <path data-fips-int="51700" data-name="Newport News City" d="M2960,1197l-2,38 18,10 4,3 -19,8 -11,-25 -65,-47 5,-21 6,-24 14,-2 38,55Z"/>
    <path data-fips-int="51710" data-name="Norfolk City" d="M3064,1280l-11,44 -45,-22 -2,-41 18,-3Z"/>
    <path data-fips-int="51730" data-name="Petersburg City" d="M2579,1170l-20,-26 13,-5 5,-2 10,-4 18,20Z"/>
    <path data-fips-int="51760" data-name="Richmond City" d="M2559,958l18,24 -10,51 -35,-10 -8,-31 -27,-12 23,-13h9h8Z"/>
    <path data-fips-int="51770" data-name="Roanoke City" d="M1539,1133l2,-23 23,-14 37,23 -32,39Z"/>
    <path data-fips-int="51790" data-name="Staunton City" d="M1937,675l-2,24 -33,-1 5,-23Z"/>
    <path data-fips-int="51800" data-name="Suffolk City" d="M2975,1295l-4,14 -16,27 -7,130 -171,6 8,-46 131,-131 12,-4 13,13Z"/>
    <path data-fips-int="51820" data-name="Waynesboro City" d="M1977,721h21l-1,24 -32,-5Z"/>
    <path data-fips-int="51001" data-name="Accomack County" d="M3201,854l30,-17 11,-48 -23,-8 38,-13 5,-29 95,-15 -18,16 6,50 -36,41 -33,55v38l-15,-16 10,42 -29,32 -3,27 -33,-22 -19,-27h-41l20,-47 33,-37Z"/>
    <path data-fips-int="51003" data-name="Albemarle County" d="M2189,673l64,25 -37,63 -71,106 -2,16 -58,16 -15,-24 -62,-132 22,-17 11,-62 34,-36Z"/>
    <path data-fips-int="51005" data-name="Alleghany County" d="M1690,831l14,6 -24,48 -54,-19 -42,51 -40,25 -50,24 -28,-15 -28,-32 51,-90 43,-39h47l17,29 55,5 23,21Z"/>
    <path data-fips-int="51013" data-name="Arlington County" d="M2697,338l-27,-1 -13,-15 -10,-9 20,-20 30,28Z"/>
    <path data-fips-int="51015" data-name="Augusta County" d="M2041,664l-11,62 -22,17 -65,83 -28,-17 -32,13 -126,-98 17,-39 -29,-7 39,-31v-20l38,-64 35,-33ZM1977,721l-12,19 32,5 1,-24ZM1937,675h-30l-5,23 33,1Z"/>
    <path data-fips-int="51019" data-name="Bedford County" d="M1873,1032l-33,18 5,37 -73,149 -20,-4 5,29 -45,-18 -53,-75 -47,-16v-43l29,-35 -15,-12 48,-35 43,12 33,-40 24,-16v-25l23,11 17,38Z"/>
    <path data-fips-int="51059" data-name="Fairfax County" d="M2667,293l-20,20 10,9 13,15 -8,24 35,3 1,34 -48,22 15,21 -26,9 -15,-25 -97,-61 -18,-24 78,-106 32,15v21Z"/>
    <path data-fips-int="51069" data-name="Frederick County" d="M2313,136l-27,84 -17,30 -6,10 -57,5 -8,-47 -22,1 -23,37 -35,-15 53,-55 -6,-44 29,-45 -3,-59Z"/>
    <path data-fips-int="51081" data-name="Greensville County" d="M2496,1316l24,17 39,-10 -10,71 23,6 -28,18 43,11 15,43 25,6 -188,4 43,-83 -3,-90Z"/>
    <path data-fips-int="51089" data-name="Henry County" d="M1664,1490h-135l-2,-57 -13,-28 3,-37 15,-3 17,-18 78,19 67,-31Z"/>
    <path data-fips-int="51103" data-name="Lancaster County" d="M2985,935l-52,-26 -12,17 -41,-80 40,-17 35,6 28,60Z"/>
    <path data-fips-int="51115" data-name="Mathews County" d="M2950,1021l1,-31 32,-5 40,34 -7,62 -40,-28Z"/>
    <path data-fips-int="51119" data-name="Middlesex County" d="M2910,964l-45,-17 -40,-61 28,-21 33,25 4,32 26,20 92,22 -45,12 -5,14Z"/>
    <path data-fips-int="51131" data-name="Northampton County" d="M3206,987l-9,35 -30,36 -13,73v40l-28,-34 -5,-63 28,-108 38,-6Z"/>
    <path data-fips-int="51133" data-name="Northumberland County" d="M2983,895l-28,-60 -35,-6 -17,-13 -3,-32 -32,-18 22,-24h38l91,56 2,26 -26,6 9,64Z"/>
    <path data-fips-int="51153" data-name="Prince William County" d="M2509,340l18,24 97,61 6,11 -26,71 -34,-10 -41,-31 -17,17 -73,-135 22,-55 41,28Z"/>
    <path data-fips-int="51161" data-name="Roanoke County" d="M1612,1109v43l-48,43 -25,-18 -38,25 -20,4 -3,-55 -29,-58 73,-40ZM1541,1110l-37,10 35,13 30,25 32,-39 -37,-23Z"/>
    <path data-fips-int="51163" data-name="Rockbridge County" d="M1883,822l-5,43 -30,-1 -38,72 -36,22v25l-24,16 -73,-64 3,-50 24,-48 -14,-6 67,-107Z"/>
    <path data-fips-int="51165" data-name="Rockingham County" d="M1993,388l88,78 -18,47 23,7 32,33 25,3 -25,44 -43,28 -34,36 -184,-134 55,-129 33,-56ZM1993,529l-16,45 33,-16Z"/>
    <path data-fips-int="51193" data-name="Westmoreland County" d="M2890,742l-22,24 -50,-14 2,-16 -50,-44 -20,22 -45,-15 -7,-24 12,-53 18,-3 9,30 93,36 13,-13 63,41Z"/>
    <path data-fips-int="51195" data-name="Wise County" d="M629,1261l10,31 -43,15 -87,-6 -31,31 -28,7 -42,-47 7,-42 58,-30v-37l70,-40 1,38 27,52Z"/>
    <path data-fips-int="51199" data-name="York County" d="M2855,1066l6,-2 25,31 50,38 42,14 -8,28 8,16 -18,6 -12,-5 -38,-55 -14,2 -36,-24v-13l-17,-6h-3l-5,-32Z"/>
    <path data-fips-int="51520" data-name="Bristol City" d="M706,1423v-6l-10,32 -40,-1Z"/>
    <path data-fips-int="51735" data-name="Poquoson City" d="M2988,1163l28,17 -35,8 -3,3 -8,-16Z"/>
    <path data-fips-int="51740" data-name="Portsmouth City" d="M3019,1325l2,5 -33,19 -10,-13 33,-23ZM2983,1323l-12,-14 4,-14 20,-15 8,32Z"/>
    <path data-fips-int="51810" data-name="Virginia Beach City" d="M3094,1463l-3,-58 22,-14 -32,-30 -25,-6 -10,-32 7,1 11,-44 35,5 35,-12 25,83 35,89 -22,-29 -8,-40 -21,42 6,43Z"/>
  </g>
  <path class="mesh" transform="scale(0.1)" d="M1165,1113l-13,8 61,65 -30,16 7,21 -80,23 -38,-12 -69,45 -21,-29 -10,-13 76,-26 4,-17 -27,-13 27,-10 -7,-22 23,-9M1690,831l14,6 -24,48 -3,50 73,64 -33,40 -43,-12 -48,35 15,12 -29,35 -90,-56 42,-60 -20,-51 40,-25 42,-51 54,19M2328,1485l6,-116 7,-121 15,16h31l50,6 42,39 3,90 -43,83M864,1134l-9,18 -54,28 -44,10 -5,26 -53,11 -2,-35 -29,-47 -4,-33 -23,-14M1180,1421l-43,-68 119,-33 44,-26 66,111 -25,32 -31,-4 -5,47M1216,1478l-30,-46M2637,1064l27,-56 58,30 48,24 13,5M1997,994l-59,56 -25,17 -40,-35 -59,-25 -17,-38 -23,-11 36,-22 38,-72 30,1 40,13 4,32 36,16 27,66 12,2 18,-5 6,-44 35,2 29,-48 58,-16 2,-16 24,26 75,25 -3,27 -83,148 -18,5 -34,-34 -3,24 -30,51 -5,23 42,30 31,6 27,24 -20,93 -60,96 -18,-21 8,-58 -32,-30 4,-42 -22,25 -8,-15 -33,3 -2,-21M2397,1051l79,-74 21,3 27,12 8,31 35,10 13,31 30,-2M2604,1099l-17,34 -10,4M2572,1139l-13,5h-44l-36,-19M2392,201l-11,25 -39,34 -16,17 -57,-27 17,-30 27,-84M1522,1053l-73,40 -26,-13 -42,25 -17,-54M1466,951l28,15 50,-24M2342,260l119,33 -22,55 73,135 -35,43 -3,31 7,21 -34,4 -73,-13 -78,40v-45l-55,-64 25,5 30,-38 60,-50 11,1 12,55 25,26 30,57 40,1M2248,1078l20,-39 20,-5 26,1 30,-17 37,6 16,27 -8,26 32,15 23,32 8,-15 27,16 -3,12 -54,25 -173,-49 -1,-35 -34,29 -56,-14M699,1227l-70,34 -58,-28 -27,-52 -1,-38M2559,1144l20,26 1,88 -84,58 -17,-7M2387,1264l-5,-77 40,-25M2853,865l-28,21 -17,-30 -56,6 -2,-23 -25,-4 -28,-63M2677,681l20,-6M2356,417l-25,-7 -20,-44 -33,-31 48,-58M1300,1294l36,-25 78,-18 25,-28 42,-17 20,-4 5,57 -48,66 -62,37 -5,27 -25,16M2145,867l71,-106 97,50 -39,77M1501,1202l38,-25 25,18 48,-43 47,16 53,75 -18,92 -67,31 -78,-19 -17,18 -23,-26 -51,-14M1381,1105l-68,34 -80,32 -20,15M2951,990l-1,31M2850,1024l15,-4v-73l45,17M2313,811l44,28 24,42 36,15 65,10 -6,71 -119,-54 -11,27 -37,-16M894,1445l16,-12 30,-17 -5,-14 45,-7 68,-22h70l19,-20M2296,609l-32,24 -16,17 -27,-20 -32,43 -114,-45 43,-28 25,-44 13,-27 10,56 38,45h17M2088,1411l-22,12 -8,49 -3,18M1862,1490l50,-258M2594,862l63,64 31,-3 -8,18 -38,46 -70,-32 -35,-47 -30,9 -25,-11M2417,896l40,-140 19,9M2642,987l22,21M2567,1033l10,-51 -18,-24 -22,9h-8h-9l-23,13M2928,1291l-12,4 -131,131 -5,-2M2772,1394l41,-93 -16,-50 59,-32 9,-41M2860,1115l36,24 -6,24M2770,1062l3,-27 55,-14M2861,1064l-6,2 -20,-2 5,32h3M2825,886l40,61M2812,956l-30,-14 -20,-37 -20,4 -54,-47 -28,-52h-3M2710,622l-12,53M2595,636h40l5,23 37,22 -18,37 38,54 -42,9 2,29 -27,11 -36,41 -24,6 -16,-57 -15,6 -60,-41 -3,-11 103,-129h16v-46M2745,961l-20,10 -45,-30M408,1292l42,47 -25,36 -49,22 -15,40M2587,234l-78,106 -7,-19 -41,-28M2216,761l37,-63 40,-10 59,16 47,6 35,39 23,7M2168,1222l80,-21 6,15 57,38 30,-6M2334,1369l-101,-20 -85,-34M2156,529l4,-26 23,-15 16,-34 42,46M1449,1093l29,58 3,55M1336,1269l-2,-40 -13,-13M2073,1139l-57,22 -31,91 -73,-20 -12,-13 -35,10 2,-20 -72,-4 -23,31 73,-149 17,12 51,-32M1344,1187l-26,-19 -5,-29M2016,1161l-39,-21 -39,-90M1878,865l5,-43 32,-13 28,17 65,-83 62,132 15,24M2248,1201l1,-88M2447,582l-16,29 -79,93M2253,698l-64,-25M2143,556l-25,-3 -32,-33 -23,-7 18,-47 37,-67 15,7 46,-53 40,35 -13,10 -7,56M1532,1365l-15,3 -3,37 13,28 2,57M2015,989l51,51 40,24M1812,1491v-10l7,-4 -32,-37 -7,21h-38l18,30M1664,1490l30,-155M1712,1243l45,18 -5,-29 20,4M2730,1135l-55,62 -95,61M2579,1170l26,-17 -18,-20M1256,1320l-60,-76 -6,-21M2219,388l34,-9 25,-44M2750,714l20,-22 50,44 -2,16 50,14 32,18 3,32 17,13 -40,17M801,1180l31,50 13,42 -23,14 -20,20 -76,15 -12,28 -48,16 -43,25 -27,-83 43,-15 -10,-31M623,1390l13,56M450,1339l28,-7 31,-31 87,6M2118,241l35,15 23,-37 22,-1 8,47 7,32 -34,56M2081,466l-88,-78M1003,1279l22,27 23,67M910,1433l-35,-77 -53,-70M845,1272l27,-8 12,22 41,-26 57,-10M2785,1426l-8,46M2627,1478l-25,-6 -15,-43 -43,-11 28,-18 186,-123 39,-26M2481,578l34,28M2549,618l30,18M2512,483l17,-17 41,31 34,10M2758,1277l-6,-54 -45,-4 -32,-22M2572,1400l-23,-6 10,-71 -39,10 -24,-17M2206,265l57,-5 6,-10M696,1449l10,-32v6l-50,25M2697,364l-35,-3 8,-24 27,1M2978,1336l10,13 33,-19M3046,1323l10,32 25,6 32,30 -22,14 3,58M2948,1466l7,-130 16,-27 12,14M2980,1248l-4,-3 -18,-10 2,-38 18,-6 3,-3M1993,529l17,29 -33,16 16,-45M1845,1087l-5,-37 33,-18M2896,1139l14,-2 38,55 12,5M3064,1280l-11,44M1541,1110l23,-14 37,23 -32,39 -30,-25M1937,675l-2,24 -33,-1 5,-23h30M2975,1295l-4,14M1634,635l35,23 76,20 29,7 -17,39 -67,107 -16,14 -23,-21 -55,-5 -17,-29h-47M1977,721h21l-1,24 -32,-5 12,-19M3206,987l-19,-27M2008,743l22,-17 11,-62 34,-36M2670,337l-13,-15M2647,313l20,-20M1883,822l-126,-98M1857,530l184,134M1612,1152v-43M1750,999l24,-16v-25M2624,425l-97,-61 -18,-24M2920,829l35,6 28,60M2868,766l22,-24M2970,1175l8,16M2244,918l30,-30 29,21 6,25 -21,100M1822,563l-38,64v20l-39,31"/>
  <g class="cities">
    <circle r="3" cx="314.7" cy="131.1"/>
    <text x="314.7" y="131.1">Virginia Beach</text>
    <circle r="3" cx="255.2" cy="98.1"/>
    <text x="255.2" y="98.1">Richmond</text>
    <circle r="3" cx="269.8" cy="35.7"/>
    <text x="269.8" y="35.7">Alexandria</text>
  </g>
</svg>