<?xml version="1.0" encoding="utf-8"?>
<!DOCTYPE svg PUBLIC "-//W3C//DTD SVG 1.1//EN" "http://www.w3.org/Graphics/SVG/1.1/DTD/svg11.dtd">
<svg version="1.1" xmlns="http://www.w3.org/2000/svg" width="350" height="153" viewBox="0 0 350 153">
  <path class="state" transform="scale(0.1)" d="M2861,1064vNaNl-221,NaNv2l5,NaN 65,NaN -8,-5 -14,-6 -26,-19 -17,NaN -1465,NaNh-4l-1,1 11,11v-1l5,-6 -1,NaN 1583,NaNv-4v-1l-16,21 23,9 -5,NaN 93,NaN -8,-7v-13l-17,-6h-2v-3l-3,5vNaNl-228,NaN 19,19 -19,20 -8,-2 2,10v16l31,-17 62,-9 20,20 11,-18 5,34h-3h3l45,16 37,-4 26,29 19,-27 5,29 5,43 36,14 35,28 -13,28 13,13 34,-9 21,-14 7,31 -20,11 -5,9 31,-20 10,11v2l2,5 8,-2 7,2 3,-6 7,-1 7,1 -47,-22v-41l20,-3 38,22 74,-2 21,78 35,89 -22,-29 -8,-40 -21,42 -5,39 -44,6 -148,4 -168,5v3l-151,4 -188,3 -111,3 -273,5h-193l-50,1h-52l-96,-1h-135l-96,-2 -127,-8 -90,-2 -242,-13 -92,-8 12,-12 -110,-5 -3,10 -85,-1 13,-21 -3,-11 -4,-8v2l4,6 -2,3 2,3 3,5 -46,15 -7,5 -20,-2 -276,-8 -103,-4 -170,-11 58,-29 40,1 32,-16 88,-16 27,-55 26,4 52,-20 3,-42 60,-30 2,-34 68,-43 81,-30 17,-15 138,-115 -12,36 25,27v27l29,36 38,6 6,19 25,19 45,-1 50,-33 30,-31 53,52 49,-22 48,-5 51,-26 -3,-41 35,29 101,-53 15,29 70,-41 -10,-28 42,-31 -30,-32 53,-90 42,-39 23,-21 28,-55 4,-40 48,-39 -5,-21 46,-60 17,-80 43,20 24,47 63,22 35,-33 55,-129 33,-56 48,43 32,-62 26,-8 37,-40 8,9 22,-46 53,-55 -6,-44 29,-45 -3,-59 122,98 79,65 40,-95 62,9 40,35 -24,54 24,22 53,8 32,15v21l48,23 30,28 -2,17v26l3,34 -39,28 6,15 -28,9 -13,-25 -22,82 -8,22 10,44 -9,17 35,3 85,-23 -3,52 16,-3 9,30 93,37 13,-14 22,26 3,-23 43,52 -20,12 37,2 91,57 2,28 -25,4 8,24 -21,41 2,40 -47,-20 -15,11 -43,-80 -34,-6 -38,-49 -43,-32 -15,-45 -37,-5 -13,-32 -2,-2h-1l3,2 15,34 38,7v45l98,102 35,25 4,32 25,20 91,22 -40,11 -8,15 -47,-23 -1,-3 1,3 40,23 30,-6 47,40 -12,57 -66,-60 13,32 -20,10 33,49 -45,11 -83,-98 -26,-30 -5,-28 -5,-10 5,10 -35,20 6,-24 -46,19 56,-5 29,44h1l33,43 24,31 60,42 31,12 -6,22v4v-4l18,-8 28,16 -35,9 15,21 22,-17 -2,34 -36,22 -7,14 -23,-31 -67,-47 7,-21 -14,-25 -40,16 -21,-23 -30,-2 -3,-53 1,-9 -1,9 1,43 -16,14 -40,-37 -24,19 -20,-16 -53,-7 5,-16v-12v-5vNaNl107,NaN 5,-18 -5,18vNaNl-1417,NaN 13,-12v2v-2l3,2 3,-6h2l-2,-12 -28,10 5,NaN 1208,NaN 18,-1 2,1 -2,-1h2l-34,NaN 60,NaN -8,51 -23,-6 -5,NaN 110,NaNh-9v8l17,2vNaNl489,NaN 20,-47 31,-37 4,-22 28,-17 20,-38 -28,-20 36,-11 5,-29 95,-15 -22,28 -6,32 -2,8 2,-8 -2,7 18,-1 -36,41 -47,105v1v-1v3l-30,41v2l-31,19 5,-14 -9,40 -30,31 -11,62v51l-30,-34 -3,-63 26,-108 38,NaN -667,NaNv-1l9,-6 5,2 10,-16 -4,-4 -1,-1v-1l1,2 4,4 5,-9 -17,-1 -5,6 -13,NaN 377,NaN -1,NaN -320,NaNv16l5,-2v-1h5l7,-5 -5,-19 -2,2 -11,9v1v-1l1,NaN 406,NaN 2,-3Z"/>
  <g class="counties" transform="scale(0.1)">
    <path data-fips-int="51007" data-name="Amelia County" d="M2347,1018l32,5 3,12 15,16 -8,26 32,15 23,32 8,-15 27,16 -12,15 -3,7 -42,15 -173,-49 -1,-35 30,-43 10,-1 26,1Z"/>
    <path data-fips-int="51009" data-name="Amherst County" d="M1937,914l10,1 10,11 35,65 6,2 -1,1 -9,4 -50,52 -25,17 -40,-35 -30,-22 -33,-6 -13,-35 -23,-11 8,-5 20,-9 41,-74 35,-5v-1l40,14v29Z"/>
    <path data-fips-int="51011" data-name="Appomattox County" d="M2091,1071l15,-7 -5,31 -28,44h-2l-20,13 -35,9 -36,-19 -42,-92 50,-52 9,-4 1,-1 17,-3Z"/>
    <path data-fips-int="51017" data-name="Bath County" d="M1634,635l38,22 73,21 29,11 -17,35 -68,107 -14,12 -46,-17 -32,-6 -16,-30h-50l23,-21 28,-55 4,-40Z"/>
    <path data-fips-int="51021" data-name="Bland County" d="M985,1233l63,-22 4,-17 -27,-13 27,-10v-22l16,-9 49,-22 48,-5 -7,6 47,55 8,12 -30,16 7,21 -80,23 -7,-7 -36,-6 -64,46 -21,-29 -3,-15Z"/>
    <path data-fips-int="51023" data-name="Botetourt County" d="M1720,970l30,29 -33,40 -38,-15 -35,32 -32,53 -90,-56 40,-60 -18,-51 40,-25 42,-51 54,19 -3,50Z"/>
    <path data-fips-int="51025" data-name="Brunswick County" d="M2362,1264l12,3 12,-3h1l15,-2 29,8 48,39 3,90 -43,83 -111,3 6,-116 7,-121Z"/>
    <path data-fips-int="51027" data-name="Buchanan County" d="M865,1134l-18,20 -46,26 -9,5 -8,2h-2h-3h-2h-13l-12,29 -38,13 -8,-1h-4l-1,-1 5,-11 -40,-77 -3,-30 -22,-11 138,-115 -12,36 25,27v27l29,36 38,6Z"/>
    <path data-fips-int="51029" data-name="Buckingham County" d="M2244,918l-3,27 -83,148 -8,1 -32,-14 -2,1 -10,-17 -15,7 -76,-81v-1v-34l41,-8 29,-48 58,-16 2,-16v-1l11,20Z"/>
    <path data-fips-int="51031" data-name="Campbell County" d="M1938,1050l42,92 36,19 -31,91 -43,-5 -30,-15 -12,-13 -30,17 -13,-22 -45,-14 -40,35 73,-148 27,6 41,-26Z"/>
    <path data-fips-int="51033" data-name="Caroline County" d="M2595,636l30,7 5,22 48,16 2,8h2l1,2 -23,24 37,57 -42,9 2,29v1l-27,10 -36,41 -30,-9 -2,-25 -32,-20 -51,-32 -3,-11v-1l103,-128Z"/>
    <path data-fips-int="51035" data-name="Carroll County" d="M1190,1411l-10,10 -43,-68 119,-33 25,-14 19,-12 64,111v18l-61,25 3,32 -90,-2 -30,-45v-1l5,-6Z"/>
    <path data-fips-int="51036" data-name="Charles City County" d="M2713,1037l2,1h2h5l48,24 13,5 -1,9 1,43 -16,14 -40,-37 -24,19 -20,-16 -53,-7 5,-16v-12v-5ZM2713,1038h-3l-8,-5 -14,-6 -26,-19 -13,54Z"/>
    <path data-fips-int="51037" data-name="Charlotte County" d="M2071,1165l37,25 3,2h20l37,30 -20,93 -60,96 -18,-21 10,-47 -60,-73 -30,5 -5,-23 31,-91 35,-9 20,-13Z"/>
    <path data-fips-int="51041" data-name="Chesterfield County" d="M2579,1054l31,8 19,19 -19,20 -8,-2 -15,32v2l-7,3h-5h5l7,-5 -5,-19 -2,2 -11,9v1v-1h1v16l-11,5h-39l-41,-19 -27,-16 -8,15 -23,-32 -32,-15 8,-26 79,-74 21,3 27,12 13,33Z"/>
    <path data-fips-int="51043" data-name="Clarke County" d="M2392,201l-15,26 -10,12 -25,21 -16,17 -57,-27 44,-114Z"/>
    <path data-fips-int="51045" data-name="Craig County" d="M1522,1053l-73,40 -26,-13 -44,25 -15,-54 70,-41 -10,-28 42,-31 17,6 13,9 48,-24 18,51Z"/>
    <path data-fips-int="51047" data-name="Culpeper County" d="M2382,467l52,89 40,1 7,21 -34,4 -28,-4 -30,-6 -47,13 -23,23 -23,1 -2,-37 -3,-13h-2l-3,-2 -45,-57h12l13,5 35,-43 55,-45 25,24Z"/>
    <path data-fips-int="51049" data-name="Cumberland County" d="M2274,888l29,21 6,25 -5,8 -16,92 -10,1 -30,43 -5,4 -20,18 -22,9 -22,-6 -14,-7 -7,-3 83,-148 3,-27Z"/>
    <path data-fips-int="51051" data-name="Dickenson County" d="M611,1257l-40,-24 -3,-9 -24,-43 -1,-38 81,-30 17,-15 22,11 3,30 40,77 -5,11 -5,2 -32,17 -35,15Z"/>
    <path data-fips-int="51053" data-name="Dinwiddie County" d="M2520,1144h39v17l20,9 3,88 -86,59 -17,-8 -48,-39 -29,-8 -15,2 -3,-78 38,-24 42,-15 3,-7 12,-15Z"/>
    <path data-fips-int="51057" data-name="Essex County" d="M2851,865l-26,21 -15,-30 -58,6 -19,-27 -13,-3 -10,-41 -13,-18v-1l-37,-57 23,-24 -1,-2h-2l-2,-8 19,-6 3,2 15,34 38,7v45Z"/>
    <path data-fips-int="51061" data-name="Fauquier County" d="M2461,293l-22,55 73,135 -38,44v30l-40,-1 -52,-89 -1,-26 -25,-24h-4l-13,-3 -16,-25 -4,-11 -21,-23 -20,-20 48,-58 16,-17Z"/>
    <path data-fips-int="51063" data-name="Floyd County" d="M1499,1202v-1v59l-8,27 -2,1 -31,37 -14,5 -1,1 -15,8 -32,23 -3,26 -29,17 -64,-111 34,-25 12,-13 68,-5 25,-28 42,-17 2,2Z"/>
    <path data-fips-int="51065" data-name="Fluvanna County" d="M2313,811l-39,77 -30,30 -88,-32 -11,-20 71,-105Z"/>
    <path data-fips-int="51067" data-name="Franklin County" d="M1646,1164l33,22 33,57 -18,92 -14,12 -5,2 -29,19 -4,-3 -5,-2 -86,-16 -17,18 -12,-24 -64,-16 31,-37 2,-1 8,-27v-59l5,-4 35,-21 27,19 28,-32 18,-11h5l12,4 3,-2Z"/>
    <path data-fips-int="51071" data-name="Giles County" d="M1364,1051l15,54 -66,34 -80,32 -20,15 -8,-12 -47,-55 7,-6 51,-26 -3,-41 35,29 101,-53Z"/>
    <path data-fips-int="51073" data-name="Gloucester County" d="M2876,953l2,1 2,1 30,9 1,3 40,23 -1,31 13,32 -20,10 33,49 -45,11 -83,-98 12,-6 10,-6v-1v-4l-5,-61Z"/>
    <path data-fips-int="51075" data-name="Goochland County" d="M2417,896l65,10 -5,46 5,6 -8,18 2,1 -2,-1 -70,-33 -33,-28 -25,35 -37,-16 -6,-25 -29,-21 39,-77 44,28 19,39Z"/>
    <path data-fips-int="51077" data-name="Grayson County" d="M1137,1353l43,68h-4l-1,1 11,11 30,45 -242,-13 -92,-8 12,-12 16,-12 34,-34 36,-4 68,-21 70,-1 17,-18Z"/>
    <path data-fips-int="51079" data-name="Greene County" d="M2193,620l28,10 -32,43 -114,-45 43,-28 25,-44 8,-13 5,-13 5,35Z"/>
    <path data-fips-int="51083" data-name="Halifax County" d="M1985,1252l5,23 30,-5 60,73 -10,47 18,21 37,31 1,3 -1,-3 -39,-26 -20,17 -3,6 -2,26 -5,10 -1,15h-193l50,-258 30,15Z"/>
    <path data-fips-int="51085" data-name="Hanover County" d="M2639,984l1,1 -70,-30 -25,-40 -3,2 -17,-8 -11,8h-2l-2,1 -28,-12 -65,-10 40,-140 12,8h7v1l3,11 51,32 32,20 2,25 30,9 8,27h5l28,4 22,19 8,10h3h7l7,19Z"/>
    <path data-fips-int="51087" data-name="Henrico County" d="M2559,958l-22,9 -15,-1 -2,1 -1,5 5,5 -27,3 -21,-3 -2,-1 8,-18 -5,-6 5,-46 28,12 2,-1h2l11,-8 17,8 3,-2 25,40 70,30v2ZM2644,1064l5,-2 13,-54Z"/>
    <path data-fips-int="51091" data-name="Highland County" d="M1822,563l-33,59 -5,25 -39,31 -73,-21 -38,-22 -5,-21 46,-60 17,-80 43,20 24,47Z"/>
    <path data-fips-int="51093" data-name="Isle of Wight County" d="M2775,1399h-2v-4v-1l2,-4v-1l3,-10 19,-44 10,-21 3,-5 2,-2 -4,-19 -1,1 -10,-38 56,-32 10,-24 2,-17 5,43 36,14 35,28 -13,28 -5,-4 -138,139 -5,-2Z"/>
    <path data-fips-int="51095" data-name="James City County" d="M2838,1112l30,10 -8,-7 8,7 13,9 15,8 -6,24 -14,-25 -40,16 -21,-23 -30,-2 -3,-53 1,-9 -13,-5 3,-3 5,-24 39,-4 3,1h2l1,-1h2v-2l2,-2 -2,-3v-1l2,-1 1,-1 33,43h-3l-3,1h-2v1h-2l-3,1 -7,26 -3,5Z"/>
    <path data-fips-int="51097" data-name="King and Queen County" d="M2697,772v1l13,18 10,41 13,3 19,27 58,-6 15,30 26,51 14,10 5,61v4v1l-10,6 -12,6 -26,-30 -5,-28 -5,-10 -30,-15 -20,-37 -45,-11 -27,-31 -3,-14 -14,-25 -5,-1 -4,-4 1,-4 -6,-5 -2,1v-1l-2,-29Z"/>
    <path data-fips-int="51099" data-name="King George County" d="M2712,622l-5,4 -9,49h-1l-19,6 -48,-16 -5,-22 -30,-7v-46l35,3 85,-23Z"/>
    <path data-fips-int="51101" data-name="King William County" d="M2657,811l2,-1 6,5 -1,4 4,4 5,1 14,25 3,14 27,31 45,11 20,37 30,15 5,10 -35,20 6,-24 -46,19v-1v-2l5,-18 -54,-15 -11,-5 -7,-19h-7h-3l-8,-10 -22,-19 -28,-4h-5l-8,-27 36,-41Z"/>
    <path data-fips-int="51105" data-name="Lee County" d="M450,1339l-22,33 -52,29 -16,37 -103,-4 -170,-11 58,-29 40,1 32,-16 88,-16 27,-55 26,4 52,-20Z"/>
    <path data-fips-int="51107" data-name="Loudoun County" d="M2504,340l-7,-20 -6,-2 -30,-25 -119,-33 25,-21 10,-12 15,-26 40,-95 62,9 40,35 -24,54 24,22 53,8 -78,106Z"/>
    <path data-fips-int="51109" data-name="Louisa County" d="M2332,694l10,9h2l8,1h2l10,1 5,2 48,16 9,12 10,7 5,8 10,5 6,1 -40,140 -41,-18 -19,-39 -44,-28 -97,-50 37,-63 23,-3 18,-6Z"/>
    <path data-fips-int="51111" data-name="Lunenburg County" d="M2248,1201l11,18 7,1 13,15 40,18 22,-5 -7,121 -85,-14 -35,-21 -36,-2 -30,-17 20,-93 55,-11Z"/>
    <path data-fips-int="51113" data-name="Madison County" d="M2241,500l45,57 3,2h2l3,13 2,37 -12,16 -21,9h1l-16,16 -27,-20 -28,-10 -32,-55 -5,-35v-1l5,-26 30,-42h2l6,-7Z"/>
    <path data-fips-int="51117" data-name="Mecklenburg County" d="M2249,1355l85,14 -6,116 -273,5 1,-15 5,-10 2,-26 3,-6 20,-17 39,26 1,3 -1,-3 -37,-31 60,-96 30,17 36,2Z"/>
    <path data-fips-int="51121" data-name="Montgomery County" d="M1449,1093l29,58 3,55 -42,17 -25,28 -68,5 -12,13 -4,-48 -9,-5 4,-1 13,-12v2v-2l3,2 3,-6h2l-2,-12 -34,-31 3,-17 66,-34 44,-25Z"/>
    <path data-fips-int="51125" data-name="Nelson County" d="M2070,886l15,13 -29,48 -41,8v34v1l-17,3 -1,1 1,-1 -6,-2 -35,-65 -10,-11 -10,-1 -19,-7v-29l-40,-14 5,-42 32,-12 28,16 55,-73 10,-10 57,119Z"/>
    <path data-fips-int="51127" data-name="New Kent County" d="M2639,983l43,-42 11,5 54,15 -5,18v2v1l56,-5 29,44h1l-1,1 -2,1v1l2,3 -2,2v2h-2l-1,1h-2l-3,-1 -39,4 -5,24 -3,3 -48,-24h-5h-2Z"/>
    <path data-fips-int="51135" data-name="Nottoway County" d="M2422,1162l-38,24 3,78h-1l-12,3 -12,-3 -21,-16 -22,5 -40,-18 -13,-15 -7,-1 -11,-18 1,-88Z"/>
    <path data-fips-int="51137" data-name="Orange County" d="M2447,582l-8,20 -87,102 -8,-1h-2l-10,-9 -38,-5 -18,6 -23,3 -64,-25 32,-43 27,20 16,-16h-1l21,-9 12,-16 23,-1 23,-23 47,-13 30,6Z"/>
    <path data-fips-int="51139" data-name="Page County" d="M2219,388l-13,10 -7,56 -6,7h-2l-30,42 -5,26v1l-5,13 -8,13 -47,-19 -33,-25 18,-46 39,-66 13,6 46,-53Z"/>
    <path data-fips-int="51141" data-name="Patrick County" d="M1534,1365l-17,3 -3,37 12,24 3,61 -96,-2 -127,-8 -3,-32 61,-25v-18l29,-17 3,-26 32,-23 15,-8 1,-1 14,-5 64,16Z"/>
    <path data-fips-int="51143" data-name="Pittsylvania County" d="M1745,1464l19,15 -4,12 -96,-1 30,-155 18,-92 45,18 -5,-29 20,4v-1l40,-35 45,14 13,22 30,-17 12,13 -50,258 -50,1v-10ZM1815,1475l-6,-13 -27,-6 -30,-1Z"/>
    <path data-fips-int="51145" data-name="Powhatan County" d="M2474,976l2,1 -79,74 -15,-16 -3,-12 -32,-5 -33,17 -26,-1 16,-92 5,-8 37,16 25,-35 33,28Z"/>
    <path data-fips-int="51147" data-name="Prince Edward County" d="M2116,1081l2,-1 32,14 8,-1 7,3 14,7 22,6 22,-9 20,-18 5,-4 1,35 -1,88 -25,10 -55,11 -37,-30h-20l-3,-2 -37,-25v-26h2l28,-44 5,-31Z"/>
    <path data-fips-int="51149" data-name="Prince George County" d="M2604,1109v16l31,-17 62,-9 20,20 11,-18 5,34h-3l-7,17 -48,45 -93,61 -3,-88 25,-17 -17,-20v-2l15,-32Z"/>
    <path data-fips-int="51155" data-name="Pulaski County" d="M1344,1187l-28,10 5,19 9,5 4,48 -34,25 -19,12 -25,14 -60,-76 -6,-21 -7,-21 30,-16 20,-15 80,-32 -3,17Z"/>
    <path data-fips-int="51157" data-name="Rappahannock County" d="M2298,355l21,23 4,11 16,25 13,3h4l-55,45 -35,43 -13,-5h-12l-42,-46 7,-56 13,-10 35,-11 24,-42Z"/>
    <path data-fips-int="51159" data-name="Richmond County" d="M2890,838l-5,5 -5,3 -34,-6 -38,-49 -43,-32 -15,-45 20,-22 50,47ZM2890,838l30,-9 -15,-13 -4,-32 -21,-8 -10,-9Z"/>
    <path data-fips-int="51167" data-name="Russell County" d="M844,1272l-20,14 -2,1 -41,29 -57,7 -10,26 -48,16 -43,25 -27,-83v-1l32,-10 3,5 -2,-40 35,-15 32,-17 5,-2 1,1h4l8,1 38,-13 12,-29h13h2h3h2l8,-2 9,-5 28,45Z"/>
    <path data-fips-int="51169" data-name="Scott County" d="M596,1306v1l27,83 13,56 -276,-8 16,-37 52,-29 22,-33 10,-15h5l10,4 25,-16 9,-11Z"/>
    <path data-fips-int="51171" data-name="Shenandoah County" d="M2199,224v21l5,9 2,11 7,32 -34,56 -46,53 -13,-6 -39,66 -88,-78 32,-62 26,-8 37,-40 8,9 22,-46 35,15 10,-27Z"/>
    <path data-fips-int="51173" data-name="Smyth County" d="M982,1250l21,29 19,22 26,73 -68,21 -36,4 -34,34 -35,-76 -53,-70 2,-1 20,-14 30,-8 10,22 43,-27Z"/>
    <path data-fips-int="51175" data-name="Southampton County" d="M2807,1289l1,-1 4,19 -2,2 -3,5 -10,21 -19,44 -3,10v1l-2,4 -16,21 23,9 5,2 -7,46v3l-151,4 -2,-1 -5,-1 -5,-3h-1l-9,1 -3,-1 -3,-25 -2,-3 -3,-9h-4l-1,-5 -4,-3 -10,-3h-5l-3,1h-5l-13,-9h-2l23,-18 187,-123 40,-26Z"/>
    <path data-fips-int="51177" data-name="Spotsylvania County" d="M2481,578l34,28 14,13 18,-1 2,1 -2,-1h2v1l30,17 -103,128h-7l-12,-8 -6,-1 -10,-5 -5,-8 -10,-7 -9,-12 -48,-16 -5,-2 -10,-1h-2l87,-102 8,-20Z"/>
    <path data-fips-int="51179" data-name="Stafford County" d="M2564,486l38,21 -8,22 10,44 -9,17v46h-16l-30,-17v-1l-34,-12 -34,-28 -7,-21v-30l38,-44 17,-17Z"/>
    <path data-fips-int="51181" data-name="Surry County" d="M2865,1178l-2,17 -10,24 -56,32 -40,26 -5,-54 -64,-20 -13,-6 48,-45 7,-17h3l45,16 37,-4 26,29 19,-27Z"/>
    <path data-fips-int="51183" data-name="Sussex County" d="M2688,1203l64,20 5,54 -187,123v-2l-8,-1 -13,-3 10,-71 -39,10 -24,-16 86,-59 93,-61Z"/>
    <path data-fips-int="51185" data-name="Tazewell County" d="M985,1234l-6,1 3,15 -55,9 -43,27 -10,-22 -30,8 -15,-47 -28,-45 46,-26 18,-20 25,19 45,-1 50,-33 30,-31 53,52 -16,9v22l-27,10 27,13 -4,17Z"/>
    <path data-fips-int="51187" data-name="Warren County" d="M2326,277l-48,58 -24,42 -35,11 -40,-35 34,-56 -7,-32 57,-5 6,-10Z"/>
    <path data-fips-int="51191" data-name="Washington County" d="M706,1423l3,5 -46,15 -7,5 -20,-2 -13,-56 43,-25 48,-16 10,-26 57,-7 41,-29 53,70 35,76 -16,12 -110,-5 -3,10 -85,-1 13,-21 -3,-11 -4,-8v2l4,6 -2,3Z"/>
    <path data-fips-int="51197" data-name="Wythe County" d="M1190,1223l6,21 60,76 -119,33 -2,2 -17,18 -70,1 -26,-73 -19,-22 64,-46 36,6 7,7Z"/>
    <path data-fips-int="51510" data-name="Alexandria City" d="M2695,338v26l-25,-6 -3,-19 3,-1Z"/>
    <path data-fips-int="51550" data-name="Chesapeake City" d="M2983,1323l-5,9v1l-2,3 4,3 41,4v-13l8,-2 7,2 3,-6 7,-1 10,32 25,6 32,31 -20,13 1,58 -148,4 9,-131 16,-26Z"/>
    <path data-fips-int="51590" data-name="Danville City" d="M1815,1475l-3,6v10h-52l4,-12ZM1815,1475l-6,-13 -27,-6 -30,-1Z"/>
    <path data-fips-int="51650" data-name="Hampton City" d="M2980,1248l-5,-3v2l-17,-12 2,-38 15,-7 1,1 5,-3 15,21 22,-17 -2,34Z"/>
    <path data-fips-int="51680" data-name="Lynchburg City" d="M1870,1032h3l40,35 -41,26 -27,-6 -5,-37 23,-18 4,-1Z"/>
    <path data-fips-int="51700" data-name="Newport News City" d="M2960,1197l-2,38 17,12v-2l5,3 -7,14 -23,-31 -67,-47 7,-21 6,-24 12,-2Z"/>
    <path data-fips-int="51710" data-name="Norfolk City" d="M3064,1280l-11,44 -47,-22v-41l20,-3Z"/>
    <path data-fips-int="51730" data-name="Petersburg City" d="M2579,1170l-20,-9v-17l11,-5 5,-2v-1h5l7,-3 17,20Z"/>
    <path data-fips-int="51760" data-name="Richmond City" d="M2559,958l16,24 -8,51 -23,-6ZM2559,958l-22,9 -15,-1 -2,1 -1,5 5,5 -27,3 27,12 13,33Z"/>
    <path data-fips-int="51770" data-name="Roanoke City" d="M1599,1117l-2,3v-1l2,-2 -2,2 -28,39 -8,-11 -2,1 -20,-15 3,-23 24,-14Z"/>
    <path data-fips-int="51775" data-name="Salem City" d="M1542,1110l-3,23 -8,4 -20,-13 11,-15Z"/>
    <path data-fips-int="51790" data-name="Staunton City" d="M1938,676l-13,31 -23,-9 5,-23Z"/>
    <path data-fips-int="51800" data-name="Suffolk City" d="M2975,1295l-4,15 -16,26 -9,131 -168,5 7,-46 138,-139 5,4 13,13Z"/>
    <path data-fips-int="51820" data-name="Waynesboro City" d="M1973,745l4,-24h21l-3,26Z"/>
    <path data-fips-int="51001" data-name="Accomack County" d="M3327,791l18,-1 -36,41 -47,105v1v-1v3l-30,41v2l-31,19 5,-14 -19,-27h-41l20,-47 31,-37 4,-22 28,-17 20,-38 -28,-20 36,-11 5,-29 95,-15 -22,28 -6,32 -2,8 2,-8Z"/>
    <path data-fips-int="51003" data-name="Albemarle County" d="M2189,673l64,25 -37,63 -71,105v1l-2,16 -58,16 -15,-13 -5,-24 -57,-119 3,-3 19,-14 11,-63 34,-35Z"/>
    <path data-fips-int="51005" data-name="Alleghany County" d="M1629,826l46,17 14,-12 15,6 -24,48 -54,-19 -42,51 -40,25 -48,24 -13,-9 -17,-6 -30,-32 53,-90 42,-39h50l16,30Z"/>
    <path data-fips-int="51013" data-name="Arlington County" d="M2695,338h-25v-1l-13,-14v-1l-8,-9 18,-20 30,28Z"/>
    <path data-fips-int="51015" data-name="Augusta County" d="M1985,615l56,48 -11,63 -19,14 -3,3 -10,10 -55,73 -28,-16 -32,12 -10,-12 -116,-86 17,-35 -29,-11 39,-31 5,-25 33,-59 35,-33 121,87ZM1938,676l-31,-1 -5,23 23,9ZM1973,746l22,1 3,-26h-21Z"/>
    <path data-fips-int="51019" data-name="Bedford County" d="M1870,1031h-3l-4,1 -23,18 5,37 -73,148v1l-20,-4 5,29 -45,-18 -33,-57 -33,-22 -14,-10 -3,2 -12,-4h-5v-43l32,-53 35,-32 38,15 33,-40 24,-16v-25l23,11 13,35 33,6 30,22Z"/>
    <path data-fips-int="51059" data-name="Fairfax County" d="M2667,293l-18,20h-9v8l17,2v-1v1l13,14v1l-3,1 3,19 25,6 3,34 -39,28 6,15 -28,9 -13,-25 -32,-20 -43,-33 -40,-32 78,-106 32,15v21Z"/>
    <path data-fips-int="51069" data-name="Frederick County" d="M2313,136l-44,114 -6,10 -57,5 -2,-11 -5,-9v-21l-36,5 -10,27 -35,-15 53,-55 -6,-44 29,-45 -3,-59Z"/>
    <path data-fips-int="51081" data-name="Greensville County" d="M2496,1317l24,16 39,-10 -10,71 13,3 8,1v2l-23,18h2l13,9h5l3,-1h5l10,3 4,3 1,5h4l3,9 2,3 3,25 3,1 9,-1h1l5,3 5,1 2,1 -188,3 43,-83 -3,-90Z"/>
    <path data-fips-int="51089" data-name="Henry County" d="M1664,1490h-135l-3,-61 -12,-24 3,-37 17,-3 17,-18 86,16 5,2 4,3 29,-19 5,-2 14,-12Z"/>
    <path data-fips-int="51103" data-name="Lancaster County" d="M2890,838l30,-9 35,6 20,24v32l8,4 2,40 -47,-20 -15,11 -43,-80 5,-3Z"/>
    <path data-fips-int="51115" data-name="Mathews County" d="M2950,1021l1,-31 30,-6 47,40 -12,57Z"/>
    <path data-fips-int="51119" data-name="Middlesex County" d="M2911,967l-1,-3 -30,-9 -2,-1 -2,-1 -11,-6 -14,-10 -26,-51 26,-21 35,25 4,32 25,20 91,22 -40,11 -8,15Z"/>
    <path data-fips-int="51131" data-name="Northampton County" d="M3206,987l-9,40 -30,31 -11,62v51l-30,-34 -3,-63 26,-108 38,-6Z"/>
    <path data-fips-int="51133" data-name="Northumberland County" d="M2983,895l-8,-4v-32l-20,-24 -35,-6 -15,-13 -4,-32 -21,-8 -10,-9 20,-25 1,-2v-1l37,2 91,57 2,28 -25,4 8,24Z"/>
    <path data-fips-int="51153" data-name="Prince William County" d="M2504,340h5l40,32 43,33 32,20 -22,82 -38,-21 -35,-20 -17,17 -73,-135 22,-55 30,25 6,2ZM2512,398l8,5v-1l9,-6 5,2 10,-16 -4,-4 -1,-1v-1l1,2 4,4 5,-9 -17,-1 -5,6Z"/>
    <path data-fips-int="51161" data-name="Roanoke County" d="M1612,1109v43l-18,11 -28,32 -27,-19 -35,21 -5,4v1l-16,6 -2,-2 -3,-55 -29,-58 73,-40ZM1542,1110l-20,-1 -11,15 20,13 8,-4 20,15 2,-1 8,11 28,-39 2,-2 -2,2v1l2,-3 -33,-21Z"/>
    <path data-fips-int="51163" data-name="Rockbridge County" d="M1720,969l-43,-34 3,-50 24,-48 -15,-6 68,-107 116,86 10,12 -5,42v1l-35,5 -41,74 -20,9 -8,5v25l-24,16Z"/>
    <path data-fips-int="51165" data-name="Rockingham County" d="M1993,388l88,78 -18,46 33,25 47,19 -25,44 -43,28 -34,35 -56,-48 -7,2 -121,-87 55,-129 33,-56Z"/>
    <path data-fips-int="51193" data-name="Westmoreland County" d="M2817,750l3,-11 -50,-47 -20,22 -37,-5 -13,-32 -2,-2 9,-49 5,-4 16,-3 9,30 93,37 13,-14 22,26 3,-23 43,52 -20,12v1l-1,2 -20,25Z"/>
    <path data-fips-int="51195" data-name="Wise County" d="M611,1258l18,3 2,40 -3,-5 -32,10 -87,-5 -9,11 -25,16 -10,-4h-5l-10,15 -40,-47 3,-42 60,-30 2,-34 68,-43 1,38 24,43 3,9Z"/>
    <path data-fips-int="51199" data-name="York County" d="M2848,1067l3,-1h2v-1h2l3,-1h3l24,31 60,42 31,12 -6,22v4l5,15 -15,7 -52,-60 -12,2 -15,-8 -13,-9 -8,-7v-13l-17,-6h-2v-3Z"/>
    <path data-fips-int="51735" data-name="Poquoson City" d="M2988,1163l28,16 -35,9 -5,3 -1,-1 -5,-15v-4Z"/>
    <path data-fips-int="51740" data-name="Portsmouth City" d="M3019,1323v2l2,5v13l-41,-4 -4,-3 2,-3v-1l31,-20ZM2983,1323l-12,-13 4,-15 21,-14 7,31Z"/>
    <path data-fips-int="51810" data-name="Virginia Beach City" d="M3094,1463l-1,-58 20,-13 -32,-31 -25,-6 -10,-32 7,1 11,-44 74,-2 21,78 35,89 -22,-29 -8,-40 -21,42 -5,39Z"/>
  </g>
  <g class="cities">
    <circle r="3" cx="314.6" cy="131.1"/>
    <text x="314.6" y="131.1">Virginia Beach</text>
    <circle r="3" cx="268.2" cy="31.5"/>
    <text x="268.2" y="31.5">Arlington</text>
    <circle r="3" cx="255.1" cy="98.1"/>
    <text x="255.1" y="98.1">Richmond</text>
  </g>
</svg>