<?xml version="1.0" encoding="utf-8"?>
<!DOCTYPE svg PUBLIC "-//W3C//DTD SVG 1.1//EN" "http://www.w3.org/Graphics/SVG/1.1/DTD/svg11.dtd">
<svg version="1.1" xmlns="http://www.w3.org/2000/svg" width="1000" height="438" viewBox="0 0 1000 438">
  <path class="state" d="M745,304l6,6 -6,5 8,2 18,-3 10,10 13,5 8,-1 17,9v12l11,3 10,9 -3,8 13,1 6,-4 -3,12 -2,4 7,-7 5,3h6h2h2l-15,-5v-13l18,5h21l7,28 -6,12v11l-14,2 -42,1 -48,2v1l-44,1 -53,1h-33l-77,2h-56h-14h-14h-28h-39l-29,-1 -34,-2 -26,-1 -65,-3 -30,-2 3,-4 -32,-1 -1,3 -23,-1h-12h-6l-79,-3 -77,-4 17,-9 12,1 9,-5 24,-5 7,-15h12l11,-5 1,-11 17,-10v-10l19,-12 25,-8 3,-4 40,-33 -4,9 7,5v10l9,12 11,2 1,5 7,5h14l16,-9 7,-9 15,15 13,-6 15,-2 15,-7 1,-12 7,8 27,-14 7,8 20,-12 -3,-8 11,-9 -7,-10 15,-26 11,-10 7,-6 9,-28 14,-11 -2,-6 9,-7 9,-32 12,5 7,13 18,7 10,-9 15,-38 10,-15 14,12 9,-18 21,-11 6,-13 15,-16 -2,-13 8,-13v-16l35,28 23,18 9,-26 19,1 11,11 -6,15 6,6 16,3 7,10 15,7 10,8 -1,5v7l1,10 -13,6 3,6 -7,3 -5,-8v12l-6,12 -2,6 3,13 -2,5 9,1 25,-8 -5,9 4,7 6,-1v10l15,5h15l19,11 -5,9 10,-1 4,7 19,6 5,13 -6,3 1,17 -5,-1v11l-21,-11 -11,-14 -2,1 -15,-11 -1,-5 -13,-10 -5,-13 -10,-1 -4,-10 1,8 14,4v13l29,29 10,7 8,15 26,7 -16,6 -12,-6 12,7 9,-2 13,12 -3,16 -13,-9 -6,-8 -1,10 8,16 -13,3 -23,-28 -10,-9 -1,-11 1,5 -8,4 1,-7h-13l-2,5 13,-1 7,3 6,10 10,12 7,10 16,11 6,-1 1,12 6,-4 7,5 -9,3h11l-2,11 -9,6 -27,-17 1,-8 -6,-7 -14,2 -10,-4 -1,-19v17l-7,2 -8,-10 -8,5 -5,-4 -16,-1 2,-9ZM914,244l10,-3 4,-13 -6,-8h9v-8l28,-5 -5,5 2,10 -7,1v10l-11,21 -2,10 -7,2 6,6 -13,3 -6,7 -2,12 -9,8 -4,33 -8,-9 -1,-16 8,-35 11,-1h-12l5,-13 10,-12Z"/>
  <g class="counties">
    <path data-fips-int="51007" data-name="Amelia County" d="M684,300l-1,8 8,4 7,9h10l-10,11h-6l-49,-14 -1,-10 11,-12 13,-6 14,2Z"/>
    <path data-fips-int="51009" data-name="Amherst County" d="M570,284l-17,16 -6,5 -13,-10 -6,-6 -11,-2 -4,-10 -6,-3 10,-7 11,-21 8,1 12,4v7l9,4 10,22Z"/>
    <path data-fips-int="51011" data-name="Appomattox County" d="M602,304l-1,9 -9,13 -16,6 -11,-6 -12,-26 17,-16 5,-1 15,14Z"/>
    <path data-fips-int="51017" data-name="Bath County" d="M467,181l10,7 21,6 9,2 -5,11 -19,30 -28,-3 -4,-8h-14l7,-6 9,-28Z"/>
    <path data-fips-int="51021" data-name="Bland County" d="M333,318l-4,3 18,18 -10,4 2,6 -23,7 -10,-4 -19,13 -7,-8 -3,-4 22,-7 -6,-8 7,-3 5,-9 13,-6Z"/>
    <path data-fips-int="51023" data-name="Botetourt County" d="M480,253l-1,14 21,19 -10,11 -11,-4 -9,8 -10,16 -25,-16 12,-18 -6,-14 11,-7 12,-15Z"/>
    <path data-fips-int="51025" data-name="Brunswick County" d="M682,361l14,2 12,11 1,26 -12,24h-33l2,-33 2,-34Z"/>
    <path data-fips-int="51027" data-name="Buchanan County" d="M246,324l-1,5 -17,8 -13,6v5l-16,3v-11l-8,-12 -1,-9 -8,-5 40,-33 -4,9 7,5v10l9,12 11,2Z"/>
    <path data-fips-int="51029" data-name="Buckingham County" d="M641,262l-1,9 -24,41 -8,-1 -4,-2 -2,-5 -12,-7 -15,-14v-12h12l8,-14 17,-5v-4l8,8Z"/>
    <path data-fips-int="51031" data-name="Campbell County" d="M553,300l12,26 11,6 -9,26 -22,-6 -11,1 -1,-8h-21l-6,8 21,-42 9,1 11,-7Z"/>
    <path data-fips-int="51033" data-name="Caroline County" d="M742,181l8,3 15,11 -5,11 11,15 -12,1v10l-8,3 -10,12 -7,1 -3,-14 -10,-4 -14,-12 30,-37Z"/>
    <path data-fips-int="51035" data-name="Carroll County" d="M390,402l-3,8h-14v13l-26,-1 -9,-12 -2,-4 -12,-19 35,-10 12,-7Z"/>
    <path data-fips-int="51036" data-name="Charles City County" d="M792,304h3v17l-7,2 -8,-10 -8,5 -5,-4 -16,-1 2,-9 8,-16 18,11Z"/>
    <path data-fips-int="51037" data-name="Charlotte County" d="M619,349l-6,27 -17,28 -5,-6 3,-14 -7,-14 -20,-6v-6l9,-26 16,-6 -1,7 16,6Z"/>
    <path data-fips-int="51041" data-name="Chesterfield County" d="M712,280l6,2 3,2 1,8 11,3 12,9 6,6 -6,5 -2,-1 -4,10 -3,1 -1,1 -4,1h-13l-10,-6h-10l-7,-9 -8,-4 1,-8 22,-21Z"/>
    <path data-fips-int="51043" data-name="Clarke County" d="M684,57l-15,17 -5,5 -16,-8 8,-24 5,-8Z"/>
    <path data-fips-int="51045" data-name="Craig County" d="M435,301l-22,11 -5,-3 -14,7 -4,-15 20,-12 -3,-8 11,-9 11,4 12,-7 6,14Z"/>
    <path data-fips-int="51047" data-name="Culpeper County" d="M706,159l2,6 -9,1 -23,-2 -13,10h-7v-13l-16,-18 2,-1 5,1 8,-10 17,-14 7,5 1,12 15,23Z"/>
    <path data-fips-int="51049" data-name="Cumberland County" d="M649,254l11,13 -7,29 -11,12 -9,8 -17,-4 24,-41 1,-9Z"/>
    <path data-fips-int="51051" data-name="Dickenson County" d="M199,351l-19,9 -18,-8 -8,-16v-10l25,-8 3,-4 8,5 1,9 8,12Z"/>
    <path data-fips-int="51053" data-name="Dinwiddie County" d="M731,327l6,7 1,26 -26,16 -4,-2 -12,-11 -14,-2 -1,-20 11,-9h6l10,-11 10,6Z"/>
    <path data-fips-int="51057" data-name="Essex County" d="M815,247l-8,6 -5,-9 -16,2 -7,-7 -8,-18 -11,-15 5,-11 6,-2 1,8 14,4v13Z"/>
    <path data-fips-int="51061" data-name="Fauquier County" d="M703,84l-6,17 21,37 -12,13v8h-11l-15,-23 -1,-12 -7,-5 -8,-3 -1,-11 -13,-9 8,-4 6,-13 5,-5Z"/>
    <path data-fips-int="51063" data-name="Floyd County" d="M429,343l2,14 -15,21 -18,11v7l-8,6 -19,-32 10,-7 4,-4 19,-1 7,-8 12,-5Z"/>
    <path data-fips-int="51065" data-name="Fluvanna County" d="M660,232l-11,22 -8,8 -21,-6 -8,-8 21,-31Z"/>
    <path data-fips-int="51067" data-name="Franklin County" d="M489,355l-5,27 -15,7 -26,-4 -5,5 -7,-8 -15,-4 15,-21 -2,-14 13,-7 4,5 14,-12 20,10Z"/>
    <path data-fips-int="51071" data-name="Giles County" d="M390,301l4,15 -20,10 -22,9 -5,4 -18,-18 4,-3 15,-7 1,-12 7,8 27,-14Z"/>
    <path data-fips-int="51073" data-name="Gloucester County" d="M831,276l12,7v9l-1,10 8,16 -13,3 -23,-28 5,-1v-21Z"/>
    <path data-fips-int="51075" data-name="Goochland County" d="M690,256l19,3 -3,20 -33,-15 1,6 -14,-3 -11,-13 11,-22 13,7 7,13Z"/>
    <path data-fips-int="51077" data-name="Grayson County" d="M324,387l12,19 2,4 9,12 -65,-3 -30,-2 3,-4 5,-3 7,-9 32,-9h20Z"/>
    <path data-fips-int="51079" data-name="Greene County" d="M634,180l-8,12 -34,-12 13,-8 7,-13 4,-8 4,19Z"/>
    <path data-fips-int="51083" data-name="Halifax County" d="M567,358v6l20,6 7,14 -3,14 5,6 -6,2 -3,20h-56l14,-74Z"/>
    <path data-fips-int="51085" data-name="Hanover County" d="M707,218l14,12 10,4 3,14 7,-1 5,9 20,13 -11,13 -12,-4 -19,-19h-15l-19,-3 12,-40Z"/>
    <path data-fips-int="51087" data-name="Henrico County" d="M755,282l6,6 -8,16h-8l-12,-9 4,-11 -6,-10 -9,2v2l-10,2 -6,-1 3,-20h15l19,19Z"/>
    <path data-fips-int="51091" data-name="Highland County" d="M520,161l-8,13 -2,10 -12,10 -21,-6 -10,-7 -2,-6 9,-7 9,-32 12,5 7,13Z"/>
    <path data-fips-int="51093" data-name="Isle of Wight County" d="M837,369l-7,5 -34,33h-2l-2,-8 7,-12 4,-18 -3,-11 16,-10 3,-11v12l11,3 10,9Z"/>
    <path data-fips-int="51095" data-name="James City County" d="M811,318l7,1 10,7 -2,6 -6,-7 -14,2 -10,-4 -1,-19h-3l1,-8 13,-1 2,-3 10,12h-8l2,9Z"/>
    <path data-fips-int="51097" data-name="King and Queen County" d="M771,221l8,18 7,7 16,-2 5,9 12,18v21l-5,1 -10,-9 -1,-11 -15,-14 -18,-7 -5,-13 -6,-7v-10Z"/>
    <path data-fips-int="51099" data-name="King George County" d="M775,178l-4,15 -6,2 -15,-11 -8,-3v-12l9,1 25,-8 -5,9Z"/>
    <path data-fips-int="51101" data-name="King William County" d="M759,232l6,7 5,13 18,7 15,14 1,5 -8,4 1,-7h-13l-18,-6 -20,-13 -5,-9 10,-12Z"/>
    <path data-fips-int="51105" data-name="Lee County" d="M127,383l-5,9 -15,8 -5,11 -77,-4 17,-9 12,1 9,-5 24,-5 7,-15h12l11,-5Z"/>
    <path data-fips-int="51107" data-name="Loudoun County" d="M739,67l-23,30 -13,-13 -34,-10 15,-17 9,-26 19,1 11,11 -6,15 6,6Z"/>
    <path data-fips-int="51109" data-name="Louisa County" d="M672,201l13,2 17,13 -12,40 -10,-4 -7,-13 -13,-7 -27,-15 11,-17 22,-2Z"/>
    <path data-fips-int="51111" data-name="Lunenburg County" d="M642,343l18,15 8,-1 -2,34 -22,-4 -11,-5 -20,-6 6,-27Z"/>
    <path data-fips-int="51113" data-name="Madison County" d="M640,143l16,18v13l-10,9 -12,-3 -14,-10 -4,-19 1,-7 11,-14Z"/>
    <path data-fips-int="51117" data-name="Mecklenburg County" d="M644,387l22,4 -2,33 -77,2 3,-20 6,-2 17,-28 20,6Z"/>
    <path data-fips-int="51121" data-name="Montgomery County" d="M413,312l9,16 1,17 -12,5 -7,8 -19,1 -4,4 -5,-15 8,-9 -11,-8 1,-5 20,-10 14,-7Z"/>
    <path data-fips-int="51125" data-name="Nelson County" d="M595,257l-8,14h-12v12l-5,1h-3l-10,-22 -9,-4v-7l-12,-4 2,-12 7,-3 10,4 18,-24Z"/>
    <path data-fips-int="51127" data-name="New Kent County" d="M784,275l-2,5 13,-1 7,3 6,10 -2,3 -13,1 -1,8 -13,-5 -18,-11 -6,-6 11,-13Z"/>
    <path data-fips-int="51135" data-name="Nottoway County" d="M692,332l-11,9 1,20 -14,-4 -8,1 -18,-15 1,-25Z"/>
    <path data-fips-int="51137" data-name="Orange County" d="M699,166l-2,6 -25,29 -6,-3 -22,2 -18,-8 8,-12 12,3 10,-9h7l13,-10Z"/>
    <path data-fips-int="51139" data-name="Page County" d="M634,111l-5,4 -1,15 -11,14 -1,7 -4,8 -23,-12 5,-14 11,-19 4,2 14,-15Z"/>
    <path data-fips-int="51141" data-name="Patrick County" d="M438,390l-6,2 4,17v17l-29,-1 -34,-2v-13h14l3,-8 8,-6v-7l18,-11 15,4Z"/>
    <path data-fips-int="51143" data-name="Pittsylvania County" d="M545,352l-14,74h-14l2,-9 -6,-4 -11,2 1,11h-28l9,-44 5,-27 15,4 2,-6 6,-8h21l1,8Z"/>
    <path data-fips-int="51145" data-name="Powhatan County" d="M706,279l-22,21 -4,-8 -14,-2 -13,6 7,-29 14,3 -1,-6Z"/>
    <path data-fips-int="51147" data-name="Prince Edward County" d="M604,309l4,2 8,1 17,4 9,-8 1,10 -1,25 -23,6 -12,-10 -16,-6 1,-7 9,-13 1,-9Z"/>
    <path data-fips-int="51149" data-name="Prince George County" d="M753,317l18,-3 10,10 -17,18 -26,18 -1,-26 7,-4 -5,-6 4,-10 1,7Z"/>
    <path data-fips-int="51155" data-name="Pulaski County" d="M384,339l-8,9 5,15 -10,7 -12,7 -18,-22 -2,-6 -2,-6 10,-4 5,-4 22,-9 -1,5Z"/>
    <path data-fips-int="51157" data-name="Rappahannock County" d="M672,119l-17,14 -8,10 -5,-1 -2,1 -12,-13 1,-15 5,-4 7,-1 9,-14 13,9 1,11Z"/>
    <path data-fips-int="51159" data-name="Richmond County" d="M819,219l11,8 4,10 -13,5 -2,1 -15,-11 -1,-5 -13,-10 -5,-13 7,-6 12,12v5Z"/>
    <path data-fips-int="51167" data-name="Russell County" d="M241,364l-6,4 -14,9 -17,1 -1,8 -25,11 -8,-24 12,-3 -2,-10 19,-9 16,-3v-5l13,-6 9,13Z"/>
    <path data-fips-int="51169" data-name="Scott County" d="M170,373l8,24 3,17 -79,-3 5,-11 15,-8 5,-9 11,-3 6,-8Z"/>
    <path data-fips-int="51171" data-name="Shenandoah County" d="M630,76l-2,18 -5,7 -14,15 -4,-2 -11,19 -25,-22 9,-18 21,-11 6,-13 10,4 5,-9 7,-2Z"/>
    <path data-fips-int="51173" data-name="Smyth County" d="M280,357l7,8 6,8 6,19 -32,9 -7,9 -8,-18 -17,-24 6,-4 8,-3 3,7 15,-9Z"/>
    <path data-fips-int="51175" data-name="Southampton County" d="M792,399l2,8h2l-2,14v1l-44,1 -7,-1 -3,-13 -14,-4 9,-5 53,-35 12,-7 3,11 -4,18Z"/>
    <path data-fips-int="51177" data-name="Spotsylvania County" d="M708,165l11,8 9,4 9,4 -30,37 -5,-2 -17,-13 -13,-2 25,-29 2,-6Z"/>
    <path data-fips-int="51179" data-name="Stafford County" d="M743,145l-2,6 3,13 -2,5v12h-5l-9,-4 -9,-4 -11,-8 -2,-6v-8l12,-13 6,-5 10,9Z"/>
    <path data-fips-int="51181" data-name="Surry County" d="M819,337l-3,11 -16,10 -12,7 -4,-15 -20,-8 17,-18 13,5 8,-1Z"/>
    <path data-fips-int="51183" data-name="Sussex County" d="M788,365l-53,35 -7,-3 3,-19 -12,2 -7,-4 26,-16 26,-18 20,8Z"/>
    <path data-fips-int="51185" data-name="Tazewell County" d="M305,326l-5,9 -7,3 6,8 -22,7 3,4 -13,2 -15,9 -3,-7 -8,3 -4,-14 -9,-13 17,-8 1,-5 7,5h14l16,-9 7,-9Z"/>
    <path data-fips-int="51187" data-name="Warren County" d="M664,79l-6,13 -8,4 -9,14 -7,1 -11,-10 5,-7 2,-18 18,-5Z"/>
    <path data-fips-int="51191" data-name="Washington County" d="M201,407l-14,7h-6l-3,-17 25,-11 1,-8 17,-1 14,-9 17,24 8,18 -5,3 -32,-1 -1,3 -23,-1 2,-9Z"/>
    <path data-fips-int="51197" data-name="Wythe County" d="M339,349l2,6 18,22 -35,10 -5,5h-20l-6,-19 -6,-8 19,-13 10,4Z"/>
    <path data-fips-int="51510" data-name="Alexandria City" d="M770,97v7l-10,-2 3,-5Z"/>
    <path data-fips-int="51550" data-name="Chesapeake City" d="M853,378l-2,4 3,4 9,-6 6,-2h2l3,9 6,2 10,10 -7,3 1,16 -42,1 2,-37 5,-7Z"/>
    <path data-fips-int="51590" data-name="Danville City" d="M517,426h-14l-1,-11 11,-2 6,4Z"/>
    <path data-fips-int="51650" data-name="Hampton City" d="M852,357l-7,-4 1,-11 4,-1v-1h2h11l-2,11Z"/>
    <path data-fips-int="51660" data-name="Harrisonburg City" d="M569,151l5,9 -9,4Z"/>
    <path data-fips-int="51680" data-name="Lynchburg City" d="M534,295l13,10 -11,7 -9,-1 1,-13Z"/>
    <path data-fips-int="51700" data-name="Newport News City" d="M846,342l-1,11 7,4 -27,-17 1,-8 2,-6 3,-1Z"/>
    <path data-fips-int="51710" data-name="Norfolk City" d="M876,365l-3,13 -15,-5v-13Z"/>
    <path data-fips-int="51730" data-name="Petersburg City" d="M737,334l-6,-7 4,-1 1,-1 3,-1 5,6Z"/>
    <path data-fips-int="51760" data-name="Richmond City" d="M733,295l-11,-3 -1,-8 -3,-2 -6,-2 10,-2v-2l9,-2 6,10Z"/>
    <path data-fips-int="51770" data-name="Roanoke City" d="M439,323l2,-6 6,-4 9,4 -8,14Z"/>
    <path data-fips-int="51790" data-name="Staunton City" d="M553,193l-2,8 -8,-1 1,-7Z"/>
    <path data-fips-int="51800" data-name="Suffolk City" d="M850,370l-1,5 -5,7 -2,37 -48,2 2,-14 34,-33 7,-5Z"/>
    <path data-fips-int="51001" data-name="Accomack County" d="M914,244l10,-3 4,-13 -6,-8h9v-8l28,-5 -5,5 2,10 -7,1v10l-11,21 -2,10 -7,2 6,6 -13,3 -6,7 -5,-8h-12l5,-13 10,-12Z"/>
    <path data-fips-int="51003" data-name="Albemarle County" d="M626,192l18,8 -11,17 -21,31v4l-17,5 -22,-45 7,-5 3,-17 9,-10Z"/>
    <path data-fips-int="51005" data-name="Alleghany County" d="M483,237l4,2 -7,14 -16,-6 -12,15 -11,7 -12,7 -11,-4 -7,-10 15,-26 11,-10h14l4,8Z"/>
    <path data-fips-int="51013" data-name="Arlington County" d="M770,97h-7l-4,-5 -3,-2 5,-6 10,8Z"/>
    <path data-fips-int="51015" data-name="Augusta County" d="M583,190l-3,17 -7,5 -18,24 -10,-4 -7,3 -36,-28 5,-11 -9,-2 12,-10 2,-10 8,-13 10,-9ZM553,193h-9l-1,7 8,1Z"/>
    <path data-fips-int="51019" data-name="Bedford County" d="M534,295l-6,3 -1,13 -21,42 -2,6 -15,-4 -9,-16 -20,-10v-12l10,-16 9,-8 11,4 10,-11 7,-12 6,3 4,10 11,2Z"/>
    <path data-fips-int="51059" data-name="Fairfax County" d="M761,84l-5,6 3,2 4,5 -3,5 10,2 1,10 -13,6 3,6 -7,3 -5,-8 -15,-5 -7,-12 -11,-7 23,-30 7,10Z"/>
    <path data-fips-int="51069" data-name="Frederick County" d="M661,39l-5,8 -8,24 -18,5 -3,-14 -7,2 -5,9 -10,-4 15,-16 -2,-13 8,-13v-16Z"/>
    <path data-fips-int="51081" data-name="Greensville County" d="M712,376l7,4 12,-2 -3,19 7,3 -9,5 14,4 3,13 7,1 -53,1 12,-24 -1,-26Z"/>
    <path data-fips-int="51089" data-name="Henry County" d="M475,426h-39v-17l-4,-17 6,-2 5,-5 26,4 15,-7Z"/>
    <path data-fips-int="51103" data-name="Lancaster County" d="M853,267l-21,-11 -11,-14 13,-5 10,2 9,17Z"/>
    <path data-fips-int="51115" data-name="Mathews County" d="M843,292v-9l9,-2 13,12 -3,16 -13,-9Z"/>
    <path data-fips-int="51119" data-name="Middlesex County" d="M831,276l-12,-5 -12,-18 8,-6 10,7 8,15 26,7 -16,6Z"/>
    <path data-fips-int="51131" data-name="Northampton County" d="M916,282l-2,12 -9,8 -4,33 -8,-9 -1,-16 8,-35 11,-1Z"/>
    <path data-fips-int="51133" data-name="Northumberland County" d="M853,256l-9,-17 -10,-2 -4,-10 -11,-8 6,-7 10,-1 4,7 19,6 5,13 -6,3 1,17Z"/>
    <path data-fips-int="51153" data-name="Prince William County" d="M716,97l11,7 7,12 15,5v12l-6,12 -9,-3 -10,-9 -6,5 -21,-37 6,-17Z"/>
    <path data-fips-int="51161" data-name="Roanoke County" d="M460,317v12l-14,12 -4,-5 -13,7 -6,2 -1,-17 -9,-16 22,-11ZM441,317l-11,3 9,3 9,8 8,-14 -9,-4Z"/>
    <path data-fips-int="51163" data-name="Rockbridge County" d="M538,235l-2,12 -8,-1 -11,21 -10,7 -7,12 -21,-19 1,-14 7,-14 -4,-2 19,-30Z"/>
    <path data-fips-int="51165" data-name="Rockingham County" d="M569,111l25,22 -5,14 23,12 -7,13 -13,8 -9,10 -53,-38 15,-38 10,-15ZM569,151l-4,13 9,-4Z"/>
    <path data-fips-int="51193" data-name="Westmoreland County" d="M825,212l-6,7 -15,-4v-5l-12,-12 -7,6 -10,-1 -4,-10 4,-15 6,-1v10l15,5h15l19,11Z"/>
    <path data-fips-int="51195" data-name="Wise County" d="M180,360l2,10 -12,3 -26,-1 -6,8 -11,3 -10,-14 1,-11 17,-10v-10l19,-12v10l8,16Z"/>
    <path data-fips-int="51199" data-name="York County" d="M818,304l7,10 16,11 6,-1 1,12 2,4v1l-4,1 -15,-17 -3,1 -10,-7 -6,-6 -2,-9Z"/>
    <path data-fips-int="51735" data-name="Poquoson City" d="M854,332l7,5 -9,3h-2l-2,-4Z"/>
    <path data-fips-int="51740" data-name="Portsmouth City" d="M863,378v2l-9,6 -3,-4 7,-7Z"/>
    <path data-fips-int="51810" data-name="Virginia Beach City" d="M884,418l-1,-16 7,-3 -10,-10 -6,-2 -3,-9h2l3,-13h21l7,28 -6,12v11Z"/>
  </g>
  <path class="mesh" d="M467,181l10,7 21,6 9,2 -5,11 -19,30 -28,-3 -4,-8h-14M333,318l-4,3 18,18 -10,4 2,6 -23,7 -10,-4 -19,13 -7,-8 -3,-4 22,-7 -6,-8 7,-3 5,-9M483,237l4,2 -7,14 -1,14 21,19 -10,11 -11,-4 -9,8 -10,16 -25,-16 12,-18 -6,-14 11,-7 12,-15 16,6M664,424l2,-33 2,-34 14,4 14,2 12,11 1,26 -12,24M246,324l-1,5 -17,8 -13,6v5l-16,3v-11l-8,-12 -1,-9 -8,-5M575,283v-12h12l8,-14 17,-5v-4l8,8 21,6 -1,9 -24,41 -8,-1 -4,-2 -2,-5M336,406l-12,-19 35,-10 12,-7 19,32 -3,8h-14v13M347,422l-9,-12M753,304l8,-16 18,11 13,5h3M592,326l-1,7 16,6 12,10 -6,27 -17,28 -5,-6 3,-14 -7,-14 -20,-6v-6M684,300l22,-21 6,1 6,2 3,2 1,8 11,3 12,9M743,314l-4,10 -3,1M735,326l-4,1h-13l-10,-6M684,57l-15,17 -5,5 -16,-8 8,-24 5,-8M435,301l-22,11 -5,-3 -14,7 -4,-15M418,272l11,4 12,-7M669,74l34,10 -6,17 21,37 -12,13v8l2,6 -9,1 -23,-2 -13,10h-7v-13l-16,-18 2,-1 5,1 8,-10 17,-14 7,5 1,12 15,23h11M642,308l-9,8 -17,-4M199,351l-19,9 -18,-8 -8,-16v-10M731,327l6,7 1,26 -26,16 -4,-2M682,361l-1,-20 11,-9M815,247l-8,6 -5,-9 -16,2 -7,-7 -8,-18M775,178l-4,15M672,119l-8,-3 -1,-11 -13,-9 8,-4 6,-13M371,370l10,-7 4,-4 19,-1 7,-8 12,-5 6,-2 2,14 -15,21 -18,11v7l-8,6M612,248l21,-31 27,15 -11,22M429,343l13,-7 4,5 14,-12 20,10 9,16 -5,27 -15,7 -26,-4 -5,5 -7,-8 -15,-4M394,316l-20,10 -22,9 -5,4M843,283v9M814,293l5,-1v-21l12,5M660,232l13,7 7,13 10,4 19,3 -3,20 -33,-15 1,6 -14,-3M255,413l5,-3 7,-9 32,-9h20l5,-5M656,174l-10,9 -12,-3 -8,12 -34,-12 13,-8 7,-13 4,-8 4,19 14,10M596,404l-6,2 -3,20M531,426l14,-74M741,247l5,9 20,13 -11,13 -12,-4 -19,-19h-15M690,256l12,-40 5,2M755,282l6,6M641,262l8,-8 11,13 -7,29 13,-6 14,2 4,8 -1,8 8,4 7,9h10l-10,11h-6l-49,-14 -1,-10 11,-12M733,295l4,-11 -6,-10 -9,2v2l-10,2M520,161l-8,13 -2,10 -12,10M837,369l-7,5 -34,33h-2M792,399l7,-12 4,-18 -3,-11 16,-10 3,-11M818,319l10,7 -2,6M792,304l1,-8 13,-1 2,-3M818,304h-8l2,9M807,253l12,18M803,273l-15,-14 -18,-7 -5,-13 -6,-7M742,181l8,3 15,11 -5,11 11,15 -12,1v10l-8,3 -10,12 -7,1 -3,-14 -10,-4 -14,-12 30,-37h5v-12M784,275l-18,-6M117,369l10,14 -5,9 -15,8 -5,11M739,67l-23,30 -13,-13M633,217l11,-17 22,-2 6,3 13,2 17,13M619,349l23,-6 18,15 8,-1M666,391l-22,-4 -11,-5 -20,-6M616,151l1,-7 11,-14 12,13M413,312l9,16 1,17M381,363l-5,-15M384,339l-11,-8 1,-5M570,284l-17,16 -6,5 -13,-10 -6,-6 -11,-2 -4,-10 -6,-3 10,-7 11,-21 8,1 2,-12 7,-3 10,4 18,-24 22,45M642,343l1,-25M699,166l-2,6 -25,29M644,200l-18,-8M612,159l-23,-12 5,-14 11,-19 4,2 14,-15 11,10 -5,4 -1,15M438,390l-6,2 4,17v17M517,426l2,-9 -6,-4 -11,2 1,11M475,426l9,-44M489,355l15,4 2,-6M781,324l-17,18 -26,18M737,334l7,-4 -5,-6M359,377l-18,-22 -2,-6M634,111l7,-1 9,-14M785,204l7,-6 12,12v5l15,4 11,8 4,10 -13,5M228,337l9,13 4,14 -6,4 -14,9 -17,1 -1,8 -25,11 -8,-24 12,-3 -2,-10M178,397l3,17M127,383l11,-3 6,-8 26,1M605,69l10,4 5,-9 7,-2 3,14 -2,18 -5,7M594,133l-25,-22M287,365l6,8 6,19M260,410l-8,-18 -17,-24M241,364l8,-3 3,7 15,-9 13,-2M796,407l-2,14M750,423l-7,-1 -3,-13 -14,-4 9,-5 53,-35 12,-7M708,165l11,8M728,177l9,4M718,138l6,-5 10,9 9,3M788,365l-4,-15 -20,-8M735,400l-7,-3 3,-19 -12,2 -7,-4M630,76l18,-5M770,104l-10,-2 3,-5h7M851,382l3,4 9,-6M871,378l3,9 6,2 10,10 -7,3 1,16M842,419l2,-37 5,-7M852,357l-7,-4 1,-11 4,-1v-1h2M569,151l5,9 -9,4 4,-13M527,311l1,-13 6,-3M828,326l3,-1 15,17M876,365l-3,13M441,317l6,-4 9,4 -8,14 -9,-8M553,193l-2,8 -8,-1 1,-7h9M916,282l-5,-8M573,212l7,-5 3,-17 9,-10M763,97l-4,-5M756,90l5,-6M538,235l-36,-28M530,152l53,38M460,329v-12M500,286l7,-12M749,121l-15,-5 -7,-12 -11,-7M834,237l10,2 9,17M819,219l6,-7M848,336l2,4M576,332l-9,26 -22,-6 -11,1 -1,-8h-21l-6,8 21,-42 9,1 11,-7M765,195l6,-2M536,247l12,4v7l9,4 10,22h3M602,304l-1,9 -9,13M592,326l-16,6M576,332l-11,-6 -12,-26M570,284l5,-1M575,283l15,14 12,7"/>
  <g class="cities">
    <circle r="7" cx="899" cy="375"/>
    <text x="899" y="375">Virginia Beach</text>
    <circle r="7" cx="729" cy="281"/>
    <text x="729" y="281">Richmond</text>
    <circle r="7" cx="771" cy="102"/>
    <text x="771" y="102">Alexandria</text>
  </g>
</svg>