<?xml version="1.0" encoding="utf-8"?>
<!DOCTYPE svg PUBLIC "-//W3C//DTD SVG 1.1//EN" "http://www.w3.org/Graphics/SVG/1.1/DTD/svg11.dtd">
<svg version="1.1" xmlns="http://www.w3.org/2000/svg" width="234" height="350" viewBox="0 0 234 350">
  <path class="state" transform="scale(0.1)" d="M1542,297l19,10 57,1 -1,-15 43,2 15,23 56,-3 26,15 41,46 21,-6 19,21h27l6,22 -24,13 -20,32 -26,-12 9,-45 -49,-16 -20,20v-64l-44,5 -18,65 -18,-26 -23,3 17,42 48,30 8,33 -19,65 3,41 -20,-46 -23,11 -14,-20 -23,12 1,-43 -26,-7 -48,10 -36,-28 -45,30 -33,-28 -3,56 -12,-42 -67,25 -31,-11 15,-30 -25,13 -20,-46 1,-25 49,-29 6,-48 28,30 6,-33 31,10 19,-19 34,12 54,-20 6,-33 -31,-17 20,-20 53,17ZM1288,305l-50,25 -12,-18ZM1399,2931l47,2 4,38 27,-3v-35l21,-10 39,42 21,39 41,24 27,30 43,26 38,4 28,-37 33,5 18,-32 93,2 21,-23 38,25h57l90,-5 34,26 51,-10 37,-21 71,21 2,10 -46,37 -49,-3 -63,6 -28,52 -42,2 -45,23 -29,28 -63,-7 -35,12 -20,32 -85,15 -32,23 -46,10 -27,-7 -40,29 -43,-22h-41l-20,38 -18,-26 -73,28 -8,28 -34,-23 -52,-15 -33,17 -31,-4 -161,63 -28,-28h-102l-36,10 -33,-10 -69,55 -9,-28 68,-82 12,-45 -1,-41 -42,-118 23,-74 41,-36 38,-8 58,24 71,14 75,-22 48,-25 28,-31h44l49,-22ZM2060,2911l-40,-8 15,-13 49,11ZM1159,568l-25,1 6,-40 21,-6ZM858,313l23,-1 13,29h28l70,30 90,90 -31,24h32l37,-15 22,15 -43,3 19,35 -30,-9 -8,24 -29,-29 -41,5 -20,-11 -59,13 31,57 -10,8 -65,-47 -61,5 -69,-49 -14,-39 20,-18 -34,-22 -38,4 -22,23 -39,-8 -19,33 -21,-13 -20,23 7,-35 -25,-5 -11,25 -20,-33 -2,-30 -76,-35 -30,25 -38,11 -20,-6 -50,15 -56,-40 33,-27 1,-16 110,-14 2,-20 52,24 13,-40 44,-10 57,18h65l4,-30 36,27 7,21 57,29 19,-42 -57,-53 49,21 45,40ZM994,318l76,4 4,14 -66,-1ZM831,187l-28,-10 -17,-62 42,17 24,38ZM719,473l-10,12 -26,-44 17,-5ZM667,488l-33,15 -12,48 -30,5 12,-53 50,-45ZM73,428l-14,-8 41,-37 2,30Z"/>
  <g class="counties" transform="scale(0.1)">
    <path data-fips-int="78020" data-name="Saint John (County Equivalent)" d="M1542,297l19,10 57,1 -1,-15 43,2 15,23 56,-3 26,15 41,46 21,-6 19,21h27l6,22 -24,13 -20,32 -26,-12 9,-45 -49,-16 -20,20v-64l-44,5 -18,65 -18,-26 -23,3 17,42 48,30 8,33 -19,65 3,41 -20,-46 -23,11 -14,-20 -23,12 1,-43 -26,-7 -48,10 -36,-28 -45,30 -33,-28 -3,56 -12,-42 -67,25 -31,-11 15,-30 -25,13 -20,-46 1,-25 49,-29 6,-48 28,30 6,-33 31,10 19,-19 34,12 54,-20 6,-33 -31,-17 20,-20 53,17ZM1288,305l-50,25 -12,-18Z"/>
    <path data-fips-int="78010" data-name="Saint Croix (County Equivalent)" d="M1399,2931l47,2 4,38 27,-3v-35l21,-10 39,42 21,39 41,24 27,30 43,26 38,4 28,-37 33,5 18,-32 93,2 21,-23 38,25h57l90,-5 34,26 51,-10 37,-21 71,21 2,10 -46,37 -49,-3 -63,6 -28,52 -42,2 -45,23 -29,28 -63,-7 -35,12 -20,32 -85,15 -32,23 -46,10 -27,-7 -40,29 -43,-22h-41l-20,38 -18,-26 -73,28 -8,28 -34,-23 -52,-15 -33,17 -31,-4 -161,63 -28,-28h-102l-36,10 -33,-10 -69,55 -9,-28 68,-82 12,-45 -1,-41 -42,-118 23,-74 41,-36 38,-8 58,24 71,14 75,-22 48,-25 28,-31h44l49,-22ZM2060,2911l-40,-8 15,-13 49,11Z"/>
    <path data-fips-int="78030" data-name="Saint Thomas (County Equivalent)" d="M1159,568l-25,1 6,-40 21,-6ZM858,313l23,-1 13,29h28l70,30 90,90 -31,24h32l37,-15 22,15 -43,3 19,35 -30,-9 -8,24 -29,-29 -41,5 -20,-11 -59,13 31,57 -10,8 -65,-47 -61,5 -69,-49 -14,-39 20,-18 -34,-22 -38,4 -22,23 -39,-8 -19,33 -21,-13 -20,23 7,-35 -25,-5 -11,25 -20,-33 -2,-30 -76,-35 -30,25 -38,11 -20,-6 -50,15 -56,-40 33,-27 1,-16 110,-14 2,-20 52,24 13,-40 44,-10 57,18h65l4,-30 36,27 7,21 57,29 19,-42 -57,-53 49,21 45,40ZM994,318l76,4 4,14 -66,-1ZM831,187l-28,-10 -17,-62 42,17 24,38ZM719,473l-10,12 -26,-44 17,-5ZM667,488l-33,15 -12,48 -30,5 12,-53 50,-45ZM73,428l-14,-8 41,-37 2,30Z"/>
  </g>

  <g class="cities">
    <circle r="3" cx="71.9" cy="40.5"/>
    <text x="71.9" y="40.5">Charlotte Amalie</text>
    <circle r="3" cx="169.4" cy="308.7"/>
    <text x="169.4" y="308.7">Christiansted</text>
    <circle r="3" cx="130.5" cy="45.3"/>
    <text x="130.5" y="45.3">Cruz Bay</text>
  </g>
</svg>