<?xml version="1.0" encoding="utf-8"?>
<!DOCTYPE svg PUBLIC "-//W3C//DTD SVG 1.1//EN" "http://www.w3.org/Graphics/SVG/1.1/DTD/svg11.dtd">
<svg version="1.1" xmlns="http://www.w3.org/2000/svg" width="234" height="350" viewBox="0 0 234 350">
  <path class="state" transform="scale(0.1)" d="M1288,305l-50,23 -12,-16 62,-7M1542,297l19,10 57,1 -1,-15 43,2 16,25 55,-5 26,13 41,50 21,-8 19,21h27l6,22 -24,13 -20,32 -26,-13 9,-45 -49,-14 -21,17v-60l-43,3 -18,65 -18,-25 -24,2 18,42 48,30 8,33 -19,65 3,41 -19,-46 -24,11 -15,-20 -22,12 1,-43 -26,-7 -48,10 -36,-30 -45,32 -33,-28 -3,56 -12,-42 -67,25 -33,-11 17,-32 -25,15 -20,-46 1,-24 49,-31 6,-45 28,28 6,-35 31,12 19,-20 34,15 54,-22 6,-33 -31,-17 20,-20 53,19 -19,15M1399,2931l47,2 4,38 27,-3v-35l21,-10 39,43 21,38 41,25 27,30 43,25 38,2 28,-35 33,3 18,-31 93,3 21,-23 39,25 56,1 90,-6 34,26 51,-11 36,-20 72,20 -7,23 -37,25 -79,-3 -33,5 -28,53 -43,2 -44,23 -29,28 -63,-7 -35,10 -20,35 -85,12 -32,25 -46,8 -27,-5 -40,29 -44,-24 -40,4 -20,36 -18,-26 -73,28 -8,28 -34,-23 -52,-15 -33,18 -31,-5 -161,63 -28,-30h-102l-36,12 -33,-10 -70,55 -8,-28 68,-82 13,-45 -1,-40 -43,-119 23,-75 41,-35 37,-8 59,24 70,14 76,-20 48,-27 28,-31h44l49,-20 48,11M2060,2911l-40,-6 15,-15 49,13 -24,8M1158,568l-24,1 6,-40 21,-6 -3,45M666,486l-32,17 -12,48 -30,5 12,-53 50,-45 12,28M718,473l-9,13 -26,-45 7,-11 28,43M73,428l-14,-7 41,-38 1,30 -28,15M994,318l76,2 4,16 -66,-1 -14,-17M858,313l23,-1 13,31h28l70,28 90,90 -31,24 32,1 37,-16 22,16h-43l19,37 -30,-9 -8,24 -29,-29 -41,5 -20,-11 -59,13 31,57 -11,8 -64,-47 -61,5 -69,-49 -14,-39 20,-18 -34,-22 -38,2 -22,25 -39,-7 -19,34 -21,-15 -21,23 8,-35 -25,-5 -10,25 -21,-35 -2,-28 -76,-35 -30,25 -38,13 -20,-8 -42,16 -64,-41 32,-27 2,-18 110,-12 4,-20 50,24 13,-42 44,-10 57,20h65l4,-30 34,25 10,23 56,29 19,-40 -57,-55 49,21 46,40 71,20M831,187l-28,-10 -16,-62 41,15 24,42 -21,15"/>
  <g class="counties" transform="scale(0.1)">
    <path data-fips-int="78020" data-name="Saint John (County Equivalent)" d="M1288,305l-50,23 -12,-16ZM1542,297l19,10 57,1 -1,-15 43,2 16,25 55,-5 26,13 41,50 21,-8 19,21h27l6,22 -24,13 -20,32 -26,-13 9,-45 -49,-14 -21,17v-60l-43,3 -18,65 -18,-25 -24,2 18,42 48,30 8,33 -19,65 3,41 -19,-46 -24,11 -15,-20 -22,12 1,-43 -26,-7 -48,10 -36,-30 -45,32 -33,-28 -3,56 -12,-42 -67,25 -33,-11 17,-32 -25,15 -20,-46 1,-24 49,-31 6,-45 28,28 6,-35 31,12 19,-20 34,15 54,-22 6,-33 -31,-17 20,-20 53,19Z"/>
    <path data-fips-int="78010" data-name="Saint Croix (County Equivalent)" d="M1399,2931l47,2 4,38 27,-3v-35l21,-10 39,43 21,38 41,25 27,30 43,25 38,2 28,-35 33,3 18,-31 93,3 21,-23 39,25 56,1 90,-6 34,26 51,-11 36,-20 72,20 -7,23 -37,25 -79,-3 -33,5 -28,53 -43,2 -44,23 -29,28 -63,-7 -35,10 -20,35 -85,12 -32,25 -46,8 -27,-5 -40,29 -44,-24 -40,4 -20,36 -18,-26 -73,28 -8,28 -34,-23 -52,-15 -33,18 -31,-5 -161,63 -28,-30h-102l-36,12 -33,-10 -70,55 -8,-28 68,-82 13,-45 -1,-40 -43,-119 23,-75 41,-35 37,-8 59,24 70,14 76,-20 48,-27 28,-31h44l49,-20ZM2060,2911l-40,-6 15,-15 49,13Z"/>
    <path data-fips-int="78030" data-name="Saint Thomas (County Equivalent)" d="M1158,568l-24,1 6,-40 21,-6ZM666,486l-32,17 -12,48 -30,5 12,-53 50,-45ZM718,473l-9,13 -26,-45 7,-11ZM73,428l-14,-7 41,-38 1,30ZM994,318l76,2 4,16 -66,-1ZM858,313l23,-1 13,31h28l70,28 90,90 -31,24 32,1 37,-16 22,16h-43l19,37 -30,-9 -8,24 -29,-29 -41,5 -20,-11 -59,13 31,57 -11,8 -64,-47 -61,5 -69,-49 -14,-39 20,-18 -34,-22 -38,2 -22,25 -39,-7 -19,34 -21,-15 -21,23 8,-35 -25,-5 -10,25 -21,-35 -2,-28 -76,-35 -30,25 -38,13 -20,-8 -42,16 -64,-41 32,-27 2,-18 110,-12 4,-20 50,24 13,-42 44,-10 57,20h65l4,-30 34,25 10,23 56,29 19,-40 -57,-55 49,21 46,40ZM831,187l-28,-10 -16,-62 41,15 24,42Z"/>
  </g>

  <g class="cities">
    <circle r="3" cx="71.9" cy="40.5"/>
    <text x="71.9" y="40.5">Charlotte Amalie</text>
    <circle r="3" cx="169.4" cy="308.6"/>
    <text x="169.4" y="308.6">Christiansted</text>
    <circle r="3" cx="130.5" cy="45.3"/>
    <text x="130.5" y="45.3">Cruz Bay</text>
  </g>
</svg>