<?xml version="1.0" encoding="utf-8"?>
<!DOCTYPE svg PUBLIC "-//W3C//DTD SVG 1.1//EN" "http://www.w3.org/Graphics/SVG/1.1/DTD/svg11.dtd">
<svg version="1.1" xmlns="http://www.w3.org/2000/svg" width="669" height="1000" viewBox="0 0 669 1000">
  <path class="state" d="M440,84l19,4 3,-5 15,2 2,6 15,-1 19,18 7,-3 13,7 1,6 -12,13 -7,-4 2,-13 -14,-4 -5,4v-16l-16,4 2,12 -7,3 -9,-6 5,11 14,9 2,10 -5,13v17l-5,-13 -7,2 -13,-6 2,-8 -21,1 -10,-9 -16,10 -6,-8 -2,7 -9,-5 -11,12 -1,-8 -9,2 4,-8 -8,2 -5,-13 3,-9 11,-6 -1,-11 11,6 2,-9 9,2 5,-5 10,5 15,-7 2,-10 -9,-5 6,-5 15,5ZM400,838h13l1,10h8v-10l6,-3 14,20 23,19 12,7h10l9,-9 9,1 5,-9 12,-3 14,3 6,-6 12,7h29l12,-2 13,8 22,-9 20,6 -1,7 -11,6 -23,-1 -9,2 -9,15 -3,-1 -21,8 -8,8 -18,-1 -10,3 -6,9 -24,4 -9,7 -21,1 -11,8 -22,-7 -8,11 -5,-8 -21,9 -3,8 -16,-9 -26,2 -34,11 -12,7 -4,-6 -13,-3 -36,3 -4,-2 -20,16 -2,-9 19,-23 4,-24 -13,-38 7,-17 12,-11 10,-2 17,7 24,4 17,-5 14,-8 6,-8h8l21,-7ZM588,832l-12,-2 5,-5 14,4ZM331,161l-7,1 1,-11 7,-2ZM245,89l7,-1 4,10h8l19,8 26,26 -9,6 19,-4 7,4 -12,2 5,9 -8,-3 -2,7 -12,-9 -8,3 -6,-4 -20,7 7,3 2,12 -19,-13 -17,2 -21,-12 -3,-13 6,-6 -10,-6 -17,7 -7,-2 -16,5 -10,-4 -3,6 -7,-16 -21,-11 -9,7 -17,2 -14,5 -16,-13 10,-11 17,-1 14,-4 1,-6 14,8 5,-11 11,-3 17,5h18l2,-9 13,13 16,9 6,-9 -17,-20 14,7 13,12ZM284,91l19,-1 4,6h-19ZM237,52l-8,-1 -7,-17 11,1 10,14ZM205,135l-3,3 -7,-13 5,-1ZM191,140l-10,3 -3,14 -9,2 3,-16 15,-14ZM20,122l-3,-2 11,-11v9Z"/>
  <g class="counties">
    <path data-fips-int="78020" data-name="Saint John (County Equivalent)" d="M440,84l19,4 3,-5 15,2 2,6 15,-1 19,18 7,-3 13,7 1,6 -12,13 -7,-4 2,-13 -14,-4 -5,4v-16l-16,4 2,12 -7,3 -9,-6 5,11 14,9 2,10 -5,13v17l-5,-13 -7,2 -13,-6 2,-8 -21,1 -10,-9 -16,10 -6,-8 -2,7 -9,-5 -11,12 -1,-8 -9,2 4,-8 -8,2 -5,-13 3,-9 11,-6 -1,-11 11,6 2,-9 9,2 5,-5 10,5 15,-7 2,-10 -9,-5 6,-5 15,5Z"/>
    <path data-fips-int="78010" data-name="Saint Croix (County Equivalent)" d="M400,838h13l1,10h8v-10l6,-3 14,20 23,19 12,7h10l9,-9 9,1 5,-9 12,-3 14,3 6,-6 12,7h29l12,-2 13,8 22,-9 20,6 -1,7 -11,6 -23,-1 -9,2 -9,15 -3,-1 -21,8 -8,8 -18,-1 -10,3 -6,9 -24,4 -9,7 -21,1 -11,8 -22,-7 -8,11 -5,-8 -21,9 -3,8 -16,-9 -26,2 -34,11 -12,7 -4,-6 -13,-3 -36,3 -4,-2 -20,16 -2,-9 19,-23 4,-24 -13,-38 7,-17 12,-11 10,-2 17,7 24,4 17,-5 14,-8 6,-8h8l21,-7ZM588,832l-12,-2 5,-5 14,4Z"/>
    <path data-fips-int="78030" data-name="Saint Thomas (County Equivalent)" d="M331,161l-7,1 1,-11 7,-2ZM245,89l7,-1 4,10h8l19,8 26,26 -9,6 19,-4 7,4 -12,2 5,9 -8,-3 -2,7 -12,-9 -8,3 -6,-4 -20,7 7,3 2,12 -19,-13 -17,2 -21,-12 -3,-13 6,-6 -10,-6 -17,7 -7,-2 -16,5 -10,-4 -3,6 -7,-16 -21,-11 -9,7 -17,2 -14,5 -16,-13 10,-11 17,-1 14,-4 1,-6 14,8 5,-11 11,-3 17,5h18l2,-9 13,13 16,9 6,-9 -17,-20 14,7 13,12ZM284,91l19,-1 4,6h-19ZM237,52l-8,-1 -7,-17 11,1 10,14ZM205,135l-3,3 -7,-13 5,-1ZM191,140l-10,3 -3,14 -9,2 3,-16 15,-14ZM20,122l-3,-2 11,-11v9Z"/>
  </g>

  <g class="cities">
    <circle r="7" cx="206" cy="116"/>
    <text x="206" y="116">Charlotte Amalie</text>
    <circle r="7" cx="484" cy="882"/>
    <text x="484" y="882">Christiansted</text>
    <circle r="7" cx="373" cy="129"/>
    <text x="373" y="129">Cruz Bay</text>
  </g>
</svg>