<?xml version="1.0" encoding="utf-8"?>
<!DOCTYPE svg PUBLIC "-//W3C//DTD SVG 1.1//EN" "http://www.w3.org/Graphics/SVG/1.1/DTD/svg11.dtd">
<svg version="1.1" xmlns="http://www.w3.org/2000/svg" width="234" height="350" viewBox="0 0 234 350">
  <defs>
    <pattern id="pattern-no-results" width="50" height="50" patternUnits="userSpaceOnUse">
      <rect width="50" height="50" fill="#ddd"/>
      <path d="M-5,5L5,-5M-5,55L55,-5M45,55L55,45" stroke-width="10" stroke="#666666"/>
    </pattern>
  </defs>
  <g class="counties" transform="scale(0.1)">
    <path data-fips-int="78020" data-name="Saint John (County Equivalent)" d="M1164,323l0,2 -33,11 -23,2 -1,-2 28,-12 16,-3ZM1191,318l21,3 -4,11 -17,-5 -20,-1 1,-7ZM1288,304l-21,17 -23,3 -6,6 -18,-14 5,-4 19,0 11,-6 8,2 6,-9 10,0ZM1542,297l20,9 27,-1 17,5 11,-2 0,-15 11,2 17,-4 26,10 6,9 -1,10 14,-3 41,-2 14,5 12,10 4,15 9,11 17,2 10,20 14,-2 8,-7 13,7 6,15 27,1 6,22 -9,2 -2,14 -14,-3 -5,9 -3,13 -11,9 -10,-8 -15,-4 8,-13 2,-10 -1,-22 -16,-3 -7,-12 -10,4 -4,-8 -12,5 -8,13 -12,4 -7,-13 8,-5 4,-17 -13,-12 7,-15 -14,3 -18,10 -2,-11 -11,2 -7,12 -2,24 9,10 -3,10 -14,10 -10,-4 -8,-22 -13,-3 -10,5 13,24 4,18 14,6 14,19 8,4 13,1 1,17 6,16 -4,12 -7,6 -1,12 4,12 -9,10 -2,13 11,20 -8,20 -5,-5 1,-12 -16,-15 8,-5 -8,-8 -23,12 -3,-10 -10,-1 -1,-9 -12,-1 -11,13 -6,-17 7,-27 -9,-5 -7,5 -10,-8 -11,8 -14,2 1,11 -23,-10 -37,-29 -15,4 -19,19 -10,7 -11,2 -11,-8 0,-15 -12,-7 -5,16 6,19 -4,5 0,16 -9,-6 0,-10 6,-8 -8,-17 -23,-6 -8,19 -14,3 -9,10 3,11 -11,-1 -6,-11 -1,-16 -15,14 -11,0 -5,-8 6,-9 12,-7 -2,-14 -9,1 -17,11 -6,-11 -2,-17 -11,-3 -1,-15 11,-2 7,-6 -16,-15 9,-10 39,-21 -4,-13 5,-14 -4,-10 11,-10 2,16 11,12 14,1 7,-13 -5,-12 4,-9 8,6 23,4 19,-18 21,13 13,1 18,-10 12,-10 17,5 8,-8 5,-31 -8,-10 -23,-8 -2,-14 11,-5 11,0 43,9 10,8 -4,12Z"/>
    <path data-fips-int="78010" data-name="Saint Croix (County Equivalent)" d="M1399,2932l14,2 24,-2 9,2 7,11 -2,25 17,-10 9,8 7,-11 0,-13 -7,-10 20,-11 31,39 9,4 12,26 9,12 15,12 15,6 11,8 6,10 21,19 9,0 13,14 21,12 14,-1 9,-5 15,8 8,-10 10,-4 1,-10 9,-12 16,0 17,4 7,-4 11,-26 25,3 8,-1 8,-10 17,9 11,-4 11,5 13,-1 21,-23 7,11 28,6 4,8 23,0 8,2 6,-5 19,5 10,-7 15,5 23,0 12,-2 8,-6 22,4 4,10 10,8 20,8 13,-2 6,-10 32,1 21,-8 15,-13 18,10 18,-4 13,9 23,7 2,9 -9,12 -10,2 -28,24 -12,-6 -19,8 -17,-6 -30,0 -11,6 -21,1 -15,25 -10,13 -5,13 -12,-5 -17,1 -21,15 -13,2 -11,7 -12,4 -28,28 -10,4 -18,-6 -36,-4 -34,11 -19,24 -2,10 -9,3 -14,-3 -28,4 -21,9 -13,1 -9,14 -23,9 -31,0 -16,10 -10,-8 -15,1 -12,10 -20,10 -9,8 -19,-8 -24,-14 -16,-2 -16,1 -17,11 -3,16 -9,13 -7,-17 -11,-10 -9,12 -10,-10 -13,18 -13,-10 -14,6 -15,13 -7,28 -28,-13 -6,-9 -23,-8 -12,2 -17,-8 -9,8 -8,-1 -16,8 -24,-4 -8,1 -59,22 -25,5 -8,7 -13,0 -13,6 -21,14 -9,0 -12,9 -12,-20 -16,-9 -32,-2 -44,6 -26,-4 -36,10 -10,0 -24,-9 -5,8 -46,31 -17,15 -8,-14 -1,-15 22,-28 18,-16 17,-26 10,-11 12,-31 2,-14 -1,-39 -29,-88 -14,-33 0,-12 10,-14 12,-46 30,-24 12,-14 38,-7 28,14 22,6 8,5 25,3 13,-2 33,12 30,-2 18,-9 28,-9 35,-19 13,-8 16,-25 11,-6 21,4 23,-4 27,-14 22,-6 24,2ZM2061,2912l-18,4 -22,-11 -4,-10 18,-4 26,6 14,0 9,6Z"/>
    <path data-fips-int="78030" data-name="Saint Thomas (County Equivalent)" d="M874,702l-10,4 0,-12 8,-1 7,-7 10,11ZM1176,591l5,12 -26,-2 0,-12 20,-6ZM983,554l13,7 15,1 -14,4 -14,-7ZM1159,568l-24,2 8,-17 -3,-24 21,-7 -3,14 7,7 -11,17ZM976,558l-16,-3 6,-9 -9,-23 2,-5 23,-3 -13,12 2,20ZM667,488l5,15 -14,-8 -8,5 -16,2 -7,18 -5,31 -16,10 -14,-6 4,-11 9,-7 -14,-6 5,-10 8,-3 0,-15 23,-18 9,-12 19,-16 13,10ZM720,473l-11,13 -15,-19 -2,-14 -8,-11 6,-13 10,8 3,17 11,6ZM73,428l-14,4 0,-11 11,-10 13,-15 16,-13 5,15 -3,16 -12,12ZM238,328l-3,14 -7,-1 -14,-21 7,-2 14,4ZM995,318l4,3 33,1 18,-6 20,6 5,14 -18,9 -5,-7 -26,-4 -18,1 -20,-11 -11,3 -17,-2 -5,-7 21,0 -2,-9ZM211,314l-6,14 -27,-22 1,-2 30,4ZM858,313l14,4 9,-6 11,9 4,11 -1,13 27,0 26,16 18,-1 26,13 -3,14 18,4 25,26 11,4 9,-6 8,4 -2,12 13,10 10,11 2,10 -15,8 -17,16 19,-2 13,4 17,-12 20,-5 18,6 4,11 -43,1 -3,11 14,9 8,15 -30,-8 -8,22 -10,-10 -15,-5 -4,-12 -21,-2 -20,7 -20,-12 -38,12 -21,1 -9,9 6,8 18,4 16,36 -9,8 -66,-46 -27,9 -34,-5 -8,-11 -11,-3 -35,-20 -20,-6 4,-10 -2,-13 -7,-10 -5,-15 22,-18 -4,-8 -21,-7 -10,-8 -37,6 -13,6 -10,16 -25,-8 -14,2 -8,11 -9,6 -2,16 -15,0 -6,-15 -9,30 -11,-8 6,-34 -7,-8 -8,-1 -9,5 -2,12 -7,11 -12,-29 -10,-4 -2,-29 -18,-9 -18,-1 -2,-11 -9,-8 -29,-7 -30,25 -22,6 -16,8 -20,-8 -12,5 -11,-1 -6,8 -12,4 -9,-1 -17,-18 -39,-23 0,-10 24,-8 9,-8 1,-16 35,-8 26,5 5,-4 18,-1 25,-6 5,-9 -1,-11 24,9 16,15 11,0 1,-13 8,-5 4,-22 14,-3 19,1 11,-7 20,6 10,-2 27,13 13,-7 12,3 10,-3 10,6 20,0 4,-29 23,21 12,5 9,22 14,10 42,18 9,-6 13,-22 -3,-11 -46,-40 -10,-16 23,10 24,13 16,19 20,8 11,12 41,5ZM565,230l3,13 -25,-14 -16,-23 8,-5 13,7 12,1ZM560,171l-14,6 -14,-10 3,-10 -4,-17 10,4ZM831,187l-6,8 -11,-5 -10,-12 -11,-22 0,-16 -11,-8 -5,-12 10,-5 29,9 12,8 12,16 12,23ZM837,103l-9,11 -11,-5 -8,-11 3,-11 17,3Z"/>
  </g>
  <g class="cities">
    <circle r="3" cx="71.9" cy="40.5"/>
    <text x="71.9" y="40.5">Charlotte Amalie</text>
    <circle r="3" cx="169.4" cy="308.7"/>
    <text x="169.4" y="308.7">Christiansted</text>
    <circle r="3" cx="130.5" cy="45.3"/>
    <text x="130.5" y="45.3">Cruz Bay</text>
  </g>
</svg>