<?xml version="1.0" encoding="utf-8"?>
<!DOCTYPE svg PUBLIC "-//W3C//DTD SVG 1.1//EN" "http://www.w3.org/Graphics/SVG/1.1/DTD/svg11.dtd">
<svg version="1.1" xmlns="http://www.w3.org/2000/svg" width="215" height="350" viewBox="0 0 215 350">
  <defs>
    <pattern id="pattern-no-results" width="50" height="50" patternUnits="userSpaceOnUse">
      <rect width="50" height="50" fill="#ddd"/>
      <path d="M-5,5L5,-5M-5,55L55,-5M45,55L55,45" stroke-width="10" stroke="#ffffff"/>
    </pattern>
  </defs>
  <g class="counties" transform="scale(0.1)">
    <path data-fips-int="50001" data-name="Addison County" d="M563,1326l19,-1 18,134 20,-3 161,65 -53,96 -25,37 -51,110 -9,-4 -3,-56 -78,40 -30,-10 21,80 -61,31 -12,-61 -81,3 -117,12 11,99 -163,20 12,-30 -42,-66 21,-40 -1,-42 -34,-74 -6,-75 4,-72 -29,-28 9,-48 20,-47 -4,-32 14,-18 13,-65 29,-23 20,-45 33,-37 44,7 75,-8 135,-25 55,-2 -4,-26 45,6Z"/>
    <path data-fips-int="50003" data-name="Bennington County" d="M645,2579l51,1 0,64 -31,-9 -5,82 -10,0 -7,131 -136,-7 -14,275 93,3 -12,273 -370,-12 -14,-81 14,-47 5,-149 27,-548 160,10Z"/>
    <path data-fips-int="50005" data-name="Caledonia County" d="M1721,1057l-38,20 -26,-19 -36,17 -48,-2 -54,25 1,24 -38,48 20,40 -17,78 26,48 1,0 -1,0 -134,-51 -142,13 -64,-30 54,-100 -1,-36 50,-62 46,-80 4,-33 -4,-10 -217,-118 61,-115 116,63 119,-234 59,28 -27,-95 107,73 73,-104 106,76 -73,102 69,51 -67,95 54,73 -48,60 -31,20Z"/>
    <path data-fips-int="50007" data-name="Chittenden County" d="M597,643l20,11 77,107 20,8 -22,45 28,15 -38,68 36,10 -36,72 36,18 -22,45 -31,-9 -58,120 15,9 -59,164 -24,-198 -45,-6 4,26 -55,2 -135,25 -75,8 -44,-7 -21,-134 42,-108 -11,-102 -32,-71 -24,-20 49,-12 46,-23 17,-27 3,-51 20,-10 4,-107 197,107Z"/>
    <path data-fips-int="50009" data-name="Essex County" d="M1721,1057l-100,-135 31,-20 48,-60 -54,-73 67,-95 -69,-51 73,-102 -106,-76 -34,-24 101,-131 -56,-45 31,-146 437,-12 -64,18 -7,25 25,27 2,55 22,23 -61,85 2,23 -24,32 -4,43 -51,55 5,28 28,38 12,60 26,15 14,29 -11,44 25,24 -25,28 -37,13 26,27 -21,25 18,23 -80,63 -6,27 -56,50 -32,13 -46,0 -25,27 2,38Z"/>
    <path data-fips-int="50011" data-name="Franklin County" d="M979,100l22,255 -47,75 -35,-30 -140,23 -36,67 -15,69 -56,-28 -55,95 -20,17 -118,-25 -197,-107 -30,-73 12,-35 47,-58 -5,-17 18,-65 -3,-25 -33,-13 -14,-38 51,-97 29,-3 403,0 119,3Z"/>
    <path data-fips-int="50013" data-name="Grand Isle County" d="M282,511l-4,107 -20,10 -3,51 -17,27 -46,23 -49,12 -20,-37 -9,-41 26,-115 2,-67 33,-61 0,-29 -46,-51 27,-98 16,-14 1,-71 -17,-33 14,-34 155,0 -51,97 14,38 33,13 3,25 -18,65 5,17 -47,58 -12,35Z"/>
    <path data-fips-int="50015" data-name="Lamoille County" d="M954,430l163,84 -64,129 118,61 -7,10 -61,115 -59,118 -15,-5 -95,-75 -61,118 -87,-50 -68,-28 -36,-10 38,-68 -28,-15 22,-45 -20,-8 -77,-107 -20,-11 20,-17 55,-95 56,28 15,-69 36,-67 140,-23Z"/>
    <path data-fips-int="50017" data-name="Orange County" d="M1511,1336l1,0 4,43 -17,9 23,63 -48,48 -40,75 5,35 21,2 -26,35 1,29 -37,34 -37,65 4,66 -23,57 -138,-57 -88,-26 -293,-119 -85,-29 -10,-49 53,-96 62,23 50,-110 9,2 39,-105 31,-5 121,52 25,-135 53,25 64,30 142,-13Z"/>
    <path data-fips-int="50019" data-name="Orleans County" d="M1653,99l-31,146 56,45 -101,131 34,24 -73,104 -107,-73 27,95 -59,-28 -119,234 -116,-63 7,-10 -118,-61 64,-129 -163,-84 47,-75 -22,-255 114,0 128,5 271,-1Z"/>
    <path data-fips-int="50021" data-name="Rutland County" d="M645,2579l-249,-14 -160,-10 9,-224 1,-122 -14,-21 -37,-19 -4,-64 -67,1 -35,80 -34,-26 15,-52 -11,-20 25,-80 37,-51 9,-39 163,-20 -11,-99 117,-12 81,-3 12,61 61,-31 89,-45 1,26 36,17 9,-15 35,13 15,37 -38,85 13,5 -15,38 125,50 -61,138 -15,-7 -20,140 21,25 46,13 -11,68 -22,59 -2,39 -70,-38 -29,14 -13,34Z"/>
    <path data-fips-int="50023" data-name="Washington County" d="M1324,957l-4,33 -46,80 -50,62 1,36 -54,100 -53,-25 -25,135 -121,-52 -31,5 -39,105 -9,-2 -50,110 -62,-23 -161,-65 -20,3 -18,-134 -19,1 59,-164 -15,-9 58,-120 31,9 22,-45 -36,-18 36,-72 68,28 87,50 61,-118 95,75 15,5 59,-118 217,118Z"/>
    <path data-fips-int="50025" data-name="Windham County" d="M1104,2675l-25,125 26,43 -11,28 9,25 -35,47 6,37 18,19 -31,57 -47,13 -17,19 11,50 -30,44 -4,44 14,65 52,53 37,68 -503,-20 12,-273 -93,-3 14,-275 136,7 7,-131 10,0 5,-82 31,9 137,46 140,-17Z"/>
    <path data-fips-int="50027" data-name="Windsor County" d="M1342,1897l-25,33 -44,23 -34,52 1,41 -39,110 -40,27 -2,53 -19,32 20,31 -25,150 -11,38 26,12 -21,38 16,23 -17,54 -25,28 1,33 -131,-2 -140,17 -137,-46 0,-64 -51,-1 2,-69 13,-34 29,-14 70,38 2,-39 22,-59 11,-68 -46,-13 -21,-25 20,-140 15,7 61,-138 -125,-50 15,-38 -13,-5 38,-85 -15,-37 -35,-13 -9,15 -36,-17 -1,-26 -89,45 -21,-80 30,10 78,-40 3,56 9,4 51,-110 25,-37 10,49 85,29 293,119 88,26Z"/>
  </g>
  <g class="cities">
    <circle r="3" cx="29.7" cy="87.1"/>
    <text x="29.7" y="87.1">Burlington</text>
    <circle r="3" cx="33.9" cy="88.4"/>
    <text x="33.9" y="88.4">South Burlington</text>
    <circle r="3" cx="53.7" cy="212.8"/>
    <text x="53.7" y="212.8">Rutland</text>
  </g>
</svg>