<?xml version="1.0" encoding="utf-8"?>
<!DOCTYPE svg PUBLIC "-//W3C//DTD SVG 1.1//EN" "http://www.w3.org/Graphics/SVG/1.1/DTD/svg11.dtd">
<svg version="1.1" xmlns="http://www.w3.org/2000/svg" width="215" height="350" viewBox="0 0 215 350">
  <path class="state" transform="scale(0.1)" d="M1104,2677l-25,126 26,40 -11,27 9,28 -35,45 6,37 18,19 -31,59 -47,11 -17,20 11,49 -30,46 -4,42 19,76 47,40 37,70 -503,-20 -369,-12 -15,-81 13,-47 7,-173 26,-524 10,-279v-68l-51,-39 -4,-64 -56,-4 -22,20 -22,65 -36,-30 15,-48 -11,-20 26,-80 35,-51 9,-39 6,-46 -35,-50 20,-40v-42l-34,-74 -6,-84 4,-65 -29,-26 25,-83 -1,-44 15,-20 13,-63 28,-23 15,-35 27,-17 12,-30 -20,-134 41,-108 -11,-102 -32,-70 -25,-21 -19,-39 -8,-43 26,-111 1,-67 34,-61v-24l-45,-51 25,-103 15,-12 3,-71 -17,-37 13,-32h155l30,-3h401l119,3 104,10 114,-1 128,8 271,-3 161,-5 437,-12 -62,17 -9,26 25,29 2,53 22,23 -83,138 -4,45 -51,55 5,28 31,47 10,51 25,15 14,30 -10,43 24,24 -21,26 -39,5 24,37 -21,27 18,21 -80,63 -6,25 -41,42 -95,23 -23,27 2,38 -26,12 -38,20 -26,-19 -36,17 -48,-2 -54,25 1,24 -37,48 21,46 -19,72 26,48 5,45 -17,8 4,34 20,26 -50,52 -39,71 5,37 21,2 -26,35 1,28 -38,35 -36,65 4,66 -23,57 -27,35 -42,21 -34,52 1,41 -39,110 -40,27 -2,53 -19,32 20,46 -13,32 -12,103 -11,38 26,12 -21,38 16,23 -17,54 -25,28 1,35"/>
  <g class="counties" transform="scale(0.1)">
    <path data-fips-int="50001" data-name="Addison County" d="M563,1328l19,-2 18,133 20,-5 161,67 -52,98 -25,35 -52,110 -9,-4 -3,-56 -78,40 -30,-10 21,80 -61,31 -12,-61 -82,3 -116,12 11,99 -164,20 6,-46 -35,-50 20,-40v-42l-34,-74 -6,-84 4,-65 -29,-26 25,-83 -1,-44 15,-20 13,-63 28,-23 15,-35 27,-17 12,-30 44,7 74,-8 136,-25 55,-2 -4,-26 45,6Z"/>
    <path data-fips-int="50003" data-name="Bennington County" d="M645,2577l51,3v64l-31,-9 -4,82h-11l-7,133 -137,-10 -14,276 94,5 -12,271 -369,-12 -15,-81 13,-47 7,-173 26,-524 160,12Z"/>
    <path data-fips-int="50005" data-name="Caledonia County" d="M1721,1057l-38,20 -26,-19 -36,17 -48,-2 -54,25 1,24 -37,48 21,46 -19,72 26,48 -134,-53 -142,15 -64,-30 54,-100 -1,-36 50,-62 54,-103 -7,-20 -218,-118 61,-113 116,61 119,-234 58,28 -25,-96 105,74 74,-103 107,75 -74,102 69,51 -68,95 54,71 -47,62 -31,20Z"/>
    <path data-fips-int="50007" data-name="Chittenden County" d="M597,644l20,9 77,109 19,7 -21,45 28,15 -36,66 34,12 -37,72 37,18 -22,45 -31,-9 -58,120 15,9 -59,166 -24,-200 -45,-6 4,26 -55,2 -136,25 -74,8 -44,-7 -20,-134 41,-108 -11,-102 -32,-70 -25,-21 50,-12 46,-23 17,-27 3,-51 19,-10 6,-107 196,107Z"/>
    <path data-fips-int="50009" data-name="Essex County" d="M1721,1057l-100,-135 31,-20 47,-62 -54,-71 68,-95 -69,-51 74,-102 -107,-75 -34,-26 101,-130 -56,-45 31,-146 437,-12 -62,17 -9,26 25,29 2,53 22,23 -83,138 -4,45 -51,55 5,28 31,47 10,51 25,15 14,30 -10,43 24,24 -21,26 -39,5 24,37 -21,27 18,21 -80,63 -6,25 -41,42 -95,23 -23,27 2,38Z"/>
    <path data-fips-int="50011" data-name="Franklin County" d="M979,100l22,253 -47,77 -36,-29 -139,22 -37,67 -13,69 -57,-28 -55,95 -20,18 -118,-26 -196,-107 -28,-51 9,-57 47,-53 -5,-20 18,-85 -34,-17 -16,-40 51,-98 30,-3h401l119,3Z"/>
    <path data-fips-int="50013" data-name="Grand Isle County" d="M283,511l-6,107 -19,10 -3,51 -17,27 -46,23 -50,12 -19,-39 -8,-43 26,-111 1,-67 34,-61v-24l-45,-51 25,-103 15,-12 3,-71 -17,-37 13,-32h155l-51,98 16,40 34,17 -18,85 5,20 -47,53 -9,57Z"/>
    <path data-fips-int="50015" data-name="Lamoille County" d="M954,430l163,84 -65,130 119,60 -7,12 -61,113 -59,118 -14,-5 -96,-73 -60,116 -88,-50 -68,-28 -34,-12 36,-66 -28,-15 21,-45 -19,-7 -77,-109 -20,-9 20,-18 55,-95 57,28 13,-69 37,-67 139,-22Z"/>
    <path data-fips-int="50017" data-name="Orange County" d="M1511,1336l5,45 -17,8 4,34 20,26 -50,52 -39,71 5,37 21,2 -26,35 1,28 -38,35 -36,65 4,66 -23,57 -138,-57 -88,-26 -293,-119 -85,-28 -9,-48 52,-98 62,23 50,-110 9,4 40,-108 30,-2 121,48 25,-133 53,25 64,30 142,-15Z"/>
    <path data-fips-int="50019" data-name="Orleans County" d="M1653,99l-31,146 56,45 -101,130 34,26 -74,103 -105,-74 25,96 -58,-28 -119,234 -116,-61 7,-12 -119,-60 65,-130 -163,-84 47,-77 -22,-253 114,-1 128,8 271,-3Z"/>
    <path data-fips-int="50021" data-name="Rutland County" d="M645,2577l-249,-10 -160,-12 10,-279v-68l-51,-39 -4,-64 -56,-4 -22,20 -22,65 -36,-30 15,-48 -11,-20 26,-80 35,-51 9,-39 164,-20 -11,-99 116,-12 82,-3 12,61 61,-31 89,-45 1,26 37,17 33,-5 25,40 -39,85 14,5 -15,38 125,50 -61,138 -15,-7 -20,140 21,25 47,13 -12,68 -22,59 -2,39 -69,-38 -29,14 -14,34Z"/>
    <path data-fips-int="50023" data-name="Washington County" d="M1171,1268l-53,-25 -25,133 -121,-48 -30,2 -40,108 -9,-4 -50,110 -62,-23 -161,-67 -20,5 -18,-133 -19,2 59,-166 -15,-9 58,-120 31,9 22,-45 -37,-18 37,-72 68,28 88,50 60,-116 96,73 14,5 59,-118 218,118 7,20 -54,103 -50,62 1,36Z"/>
    <path data-fips-int="50025" data-name="Windham County" d="M1104,2677l-25,126 26,40 -11,27 9,28 -35,45 6,37 18,19 -31,59 -47,11 -17,20 11,49 -30,46 -4,42 19,76 47,40 37,70 -503,-20 12,-271 -94,-5 14,-276 137,10 7,-133h11l4,-82 31,9 137,48 139,-19Z"/>
    <path data-fips-int="50027" data-name="Windsor County" d="M1342,1897l-27,35 -42,21 -34,52 1,41 -39,110 -40,27 -2,53 -19,32 20,46 -13,32 -12,103 -11,38 26,12 -21,38 16,23 -17,54 -25,28 1,35 -132,-4 -139,19 -137,-48v-64l-51,-3 2,-67 14,-34 29,-14 69,38 2,-39 22,-59 12,-68 -47,-13 -21,-25 20,-140 15,7 61,-138 -125,-50 15,-38 -14,-5 39,-85 -25,-40 -33,5 -37,-17 -1,-26 -89,45 -21,-80 30,10 78,-40 3,56 9,4 52,-110 25,-35 9,48 85,28 293,119 88,26Z"/>
  </g>
  <path class="mesh" transform="scale(0.1)" d="M189,1176l44,7 74,-8 136,-25 55,-2 -4,-26 45,6 24,200 19,-2 18,133 20,-5 161,67 -52,98 -25,35 -52,110 -9,-4 -3,-56 -78,40 -30,-10 21,80 -61,31 -12,-61 -82,3 -116,12 11,99 -164,20M236,2555l160,12 249,10 51,3v64l-31,-9 -4,82h-11l-7,133 -137,-10 -14,276 94,5 -12,271M1511,1336l-134,-53 -142,15 -64,-30 54,-100 -1,-36 50,-62 54,-103 -7,-20 -218,-118 61,-113 116,61 119,-234 58,28 -25,-96 105,74 74,-103 107,75 -74,102 69,51 -68,95 54,71 -47,62 -31,20 100,135M142,741l50,-12 46,-23 17,-27 3,-51 19,-10 6,-107 196,107 118,26 20,9 77,109 19,7 -21,45 28,15 -36,66 34,12 -37,72 37,18 -22,45 -31,-9 -58,120 15,9 -59,166M1611,446l-34,-26 101,-130 -56,-45 31,-146M979,100l22,253 -47,77 -36,-29 -139,22 -37,67 -13,69 -57,-28 -55,95 -20,18M283,511l-28,-51 9,-57 47,-53 -5,-20 18,-85 -34,-17 -16,-40 51,-98M954,430l163,84 -65,130 119,60 -7,12M1103,829l-59,118 -14,-5 -96,-73 -60,116 -88,-50 -68,-28M1342,1897l-138,-57 -88,-26 -293,-119 -85,-28 -9,-48M781,1521l62,23 50,-110 9,4 40,-108 30,-2 121,48 25,-133 53,25M553,1814l89,-45 1,26 37,17 33,-5 25,40 -39,85 14,5 -15,38 125,50 -61,138 -15,-7 -20,140 21,25 47,13 -12,68 -22,59 -2,39 -69,-38 -29,14 -14,34 -2,67M696,2644l137,48 139,-19 132,4"/>
  <g class="cities">
    <circle r="3" cx="29.7" cy="87.1"/>
    <text x="29.7" y="87.1">Burlington</text>
    <circle r="3" cx="53.7" cy="212.8"/>
    <text x="53.7" y="212.8">Rutland</text>
    <circle r="3" cx="29.1" cy="319.0"/>
    <text x="29.1" y="319.0">Bennington</text>
  </g>
</svg>