<?xml version="1.0" encoding="utf-8"?>
<!DOCTYPE svg PUBLIC "-//W3C//DTD SVG 1.1//EN" "http://www.w3.org/Graphics/SVG/1.1/DTD/svg11.dtd">
<svg version="1.1" xmlns="http://www.w3.org/2000/svg" width="215" height="350" viewBox="0 0 215 350">
  <path class="state" transform="scale(0.1)" d="M129,1918l2,-3 11,-27 -13,-25v-1l-6,-4 -1,-1 -22,-35 20,-35v-50l-35,-78 -5,-68 6,-62 -31,-38 27,-88 -3,-39 16,-26 16,-58 24,-22 15,-35 24,-17h3l12,-30 -13,-114 -9,-32 20,-30 23,-76 -11,-92 -14,-28 -23,-47h-3l-10,-6h-1l-6,-10 -2,-2 -3,-3 -2,-7 -4,-5 -5,-17 -1,-1v-22l-1,-3 -2,-10 -2,-3 -3,-2 -1,-2 18,-66h1v-19l7,-98 14,-25v-1l20,-35 -9,-35 -34,-40h-1l-3,-20v-3l6,-14 3,-1 12,-50 17,-24 3,-1 4,-73 -17,-37 13,-32h75h26h53h1l30,-3h80h21h3h13h23l29,3h1h15h4l60,-3h14h38h28h15h2h4h11h8h26h6l27,3h18h25h49h29h8l65,10h2l76,-1h38l27,1h3h3l17,4h16h4h2h25h5l26,3h25h10h4h6h9h10l25,-3h47h4h6h2h33h7h9h16h2h9h6h6h13h7h15l10,-4h20h2h16l42,-1h12h35h16h8l192,-5h13l38,-4h90h12h3l19,-3h35h6h33l-39,7 -32,23 -4,10v2l4,5 5,8 3,2h1l5,10v1h1l6,4 2,10v1l-1,7 -3,3 3,2v6l-6,9 2,1 3,2 2,12 1,1h1l13,17 7,5v3l-1,7 -3,2 -1,-2 -12,18 -6,12 -4,5 -5,3 -22,22 -1,2 -1,1 -1,2 -5,20h1l-9,31 -9,7 -2,2 -2,3 2,8 2,25 -57,57 -3,10 1,2 4,10 3,6 -2,2 6,10 2,8 1,2 18,31 4,4 -1,5 1,6v2l1,3 1,9 4,5 2,1 5,2 -3,5 2,10 -2,3 13,9v5h8l4,3 6,10 -6,5 14,13 1,4 1,3 1,5h-3l-2,-3 -4,5v1v2v3l2,8 -7,10 10,5 -2,5h7v7l7,-3v8l4,2 -16,10 2,10 -5,5 -3,6 -16,4 -25,11 17,14 -6,36 -6,-1v5l12,16 3,4 -6,3 -1,5 -5,1 -6,12 -1,5 -4,3 -3,2h-4h-3h-1l-10,10 -14,2v-2l1,-3 -12,15v1l-29,47 -4,3 1,2 -2,7 -2,1 -2,4 -9,6 -2,2 -1,2 -23,11 -22,5 -1,2 -2,5 -1,2h-7l-35,1h-7l-3,2h-1l-1,2 -3,1 -2,2 -1,2 -3,1v4v1l3,8 -1,2h-2h-3l-7,2h-1v1v4l-1,5 1,1 2,5 -1,2h-1l-2,2 1,3v2v1l1,2 2,10 -2,2 -7,3h-3h-1l-1,2h-2l-3,1h-2h-2l-2,4h-1l-1,1h-1l-2,2 -2,2 -2,1h-1l-2,2h-2l-2,2h-1l-6,1h-4h-1l-1,2 -2,2h-1l-2,1h-1l-18,-8 -29,-7 -22,17 -10,-3 -8,1h-6h-17h-1h-1l-7,2 -3,7v1l-5,4 -7,3 -7,3 -3,2 -6,2 -13,-2 -3,2 -1,1h-1v2l1,12v6l-12,17h-3v3v2h-2l-5,2 -2,1 -2,4 -2,1 -1,2 -2,5 -6,10 2,8 2,2 2,-2h3v3v2h-1l-1,5v2h-1l2,6 5,12 1,2 3,3 2,2 1,3v3l-4,14v1l-5,25h-2l-1,2 2,3v2l-4,12 -2,1v2l-1,3v2l-1,5 1,2 1,1 3,4 3,3 2,10 2,5 1,2 1,5 1,1 3,2 1,3v2l1,2h5l-2,4h3l2,2h-2v3l-1,2v2l-2,1 2,2v3v2v2v1v4v1l1,2 -1,3 1,2 3,2h2l4,5 -1,1h-2l-1,2 -3,5h-2l-3,2h-1l-2,1 -2,2 -3,3v-1l-1,1v2v3v4l-1,1h-1v4v1l1,4h1v8h1v2l2,3 1,2h2h3l13,8h-1l-1,3h-8l-3,4 14,11 -22,5 4,9 -2,3 -1,2 -6,10h-1h-7l-4,3v2v1l2,2 5,7h-1h-3l-7,5h-1l-2,1 -2,2h-1v3l5,13h-2l-2,4h-1l-1,1 -1,4v6h-2l-12,-5v2h-1v2l-2,1v4v1v2l3,10 -3,-8h-1h-2h-1h-1h-1l-1,3h-2v2v1v2h1v3v4h1l-1,5h-2h-1v1l-2,2 -2,45 12,13v2v2l-1,1 -5,9 -2,1 -9,19v6l-8,27 -51,51 6,12 -1,3 -2,2 -3,2h-3h-1l-7,8 -1,2 4,35 -1,6 -2,23 -1,14 -3,5 -17,31 -1,10v4l-25,33 -44,23 -34,52 1,41 -12,29 -3,11 -11,57 -2,2h-1l-43,29 -8,22h-1v40l-19,32 19,33v3l-3,22 -8,35 -24,126 26,12 -21,38 16,23 -17,54 -25,28 1,35 -24,120 13,20 1,5 9,76 -35,45 6,37 18,19 -31,59 -47,11 -17,20 11,49 -30,46 -4,42 14,65 13,18 20,23 2,8 35,22 19,50 -62,-2 -170,-6 -49,-4h-4l-215,-8h-3l-95,-3 -131,-4 -11,-1 -86,-2 -33,-2h-13l-15,-81 8,-48 5,1v-5l6,-141 7,-141 3,-42 1,-28 5,-95 5,-103 6,-142 1,-10v-3l1,-46v-5l3,-72 3,-68v-10l1,-12 1,-30v-23v-2v-8v-3v-10v-2l6,-10 -1,-5 -2,-8 -1,-2 -2,-2 -1,-3v-2h-1v-1v-2v-3l1,-4 1,-1h-1l-2,-2 -2,-3v-2l-2,-3 -1,-2 -3,-5 -1,-2h-1h-1v-1h-2v-2l-2,-2 -3,-1 -2,-2 -7,-3h-1l-3,-2 -2,-3 -14,1v-1l-1,-4 1,-3 3,-1v-4l-3,-1 -1,-2 1,-2v-1l3,-4v-6v-7v-2l-8,-10h-1v-1v-2l1,-5v-2v-3v-7v-1l-1,-2 -2,-2 -1,-1h-2l-1,1 -1,4h-2l-3,-2h-1l-1,-2h-2l-3,-1h-1h-3l-1,1h-2v2l-7,-3h-1l-3,1 -1,2h-3l-1,-2h-1h-1l-1,2 -3,2v3h-1h-1l-1,-2 -2,-3 -2,-2 -6,4 -5,1 -6,-1h-1v1l1,4 2,1 -4,5 -3,4v1l2,4 2,6 -1,4 -5,5 -4,3 -4,2 2,5v1h-2h-1l-1,2 -1,2 1,1 4,4v11l-3,5h-2h-2l-2,2 -1,1 1,2v2h-1l-4,3h-2l-22,-20 -4,-1v-27v-2v-11l4,-12 2,-5 -10,-27 20,-40 3,-8v-2l2,-11 1,-7 28,-46 7,-10 2,-27 1,-2Z"/>
  <g class="subcounties" transform="scale(0.1)">
    <path data-geo-id="5002517875" data-name="Dover" d="M589,3028h40l133,6 -21,92 -26,2 -130,-7Z"/>
    <path data-geo-id="5002530925" data-name="Guilford" d="M839,3264l128,7 -5,134 -117,-1 -11,-2Z"/>
    <path data-geo-id="5002528900" data-name="Grafton" d="M846,2692l75,-12 49,-5 4,-2 -3,127 -71,17 -15,13v-15l-46,8Z"/>
    <path data-geo-id="5002509475" data-name="Brookline" d="M873,2988l31,2 17,-79 32,2 -12,67 -24,79h-29l5,-36Z"/>
    <path data-geo-id="5000342850" data-name="Manchester" d="M368,2702l134,6 -3,135 -139,-5Z"/>
    <path data-geo-id="5002531150" data-name="Halifax" d="M710,3267l1,-5 128,2 -5,138 -38,-2h-4l-90,-3Z"/>
    <path data-geo-id="5000339025" data-name="Landgrove" d="M650,2577h21l13,3h11l1,64 -29,-10 -6,83h-11h-6Z"/>
    <path data-geo-id="5002543375" data-name="Marlboro" d="M715,3128l26,-2 105,2 -1,35 -6,101 -128,-2Z"/>
    <path data-geo-id="5000327962" data-name="Glastenbury" d="M352,2975l147,5 -7,136 -146,-5Z"/>
    <path data-geo-id="5002536175" data-name="Jamaica" d="M642,2850l5,-77 95,35 70,25 -28,110 -146,-7Z"/>
    <path data-geo-id="5000355000" data-name="Peru" d="M530,2590l1,-18 97,3 17,2h5l-6,140 -117,-7Z"/>
    <path data-geo-id="5000358600" data-name="Readsboro" d="M485,3257l3,-41 93,6 -1,39 -7,131 -93,-3Z"/>
    <path data-geo-id="5000357025" data-name="Pownal" d="M203,3252v-5l134,4h17l-7,134 -10,-1 -86,-2 -33,-2h-13l-15,-81 8,-48Z"/>
    <path data-geo-id="5000361000" data-name="Rupert" d="M236,2555h13l4,2 69,3h1h4l49,5 -8,137 -138,-5Z"/>
    <path data-geo-id="5000363550" data-name="Shaftsbury" d="M216,2965l136,10 -6,136 -137,-5Z"/>
    <path data-geo-id="5000575700" data-name="Walden" d="M1279,777l115,60 -61,118 -12,-8h-1l-99,-53Z"/>
    <path data-geo-id="5000583500" data-name="Wheelock" d="M1322,696l19,-38 110,56 32,-56 8,38 -27,126 -56,-13 -103,-82Z"/>
    <path data-geo-id="5000571575" data-name="Sutton" d="M1432,475l93,64 12,10 41,29 -28,128 -59,-10 -8,-38 -26,-87Z"/>
    <path data-geo-id="5002155600" data-name="Pittsford" d="M372,1922l134,-7 65,128 -77,3 -22,-1 -6,-37 -22,8 6,32 -52,3 -3,-20Z"/>
    <path data-geo-id="5002157250" data-name="Proctor" d="M494,2046l5,12 -26,52 2,18 -17,-7 -8,-73 -6,-32 22,-8 6,37Z"/>
    <path data-geo-id="5002161300" data-name="Rutland" d="M494,2046l77,-3v5l6,131 -82,5v-29l-20,-27 -2,-18 26,-52ZM496,2135l20,28 48,-10 -1,-42 -62,-11Z"/>
    <path data-geo-id="5002180875" data-name="West Haven" d="M63,2138v-2v-11l4,-12 2,-5 -10,-27 20,-40 3,-8 132,8 -23,64v1v-1l-1,-2 -2,-2 -1,-1h-2l-1,1 -1,4h-2l-3,-2h-1l-1,-2h-2l-3,-1h-1h-3l-1,1h-2v2l-7,-3h-1l-3,1 -1,2h-3l-1,-2h-1h-1l-1,2 -3,2v3h-1h-1l-1,-2 -2,-3 -2,-2 -6,4 -5,1 -6,-1h-1v1l1,4 2,1 -4,5 -3,4v1l2,4 2,6 -1,4 -5,5 -4,3 -4,2 2,5v1h-2h-1l-1,2 -1,2 1,1 4,4v11l-3,5h-2h-2l-2,2 -1,1 1,2v2h-1l-4,3h-2l-22,-20 -4,-1Z"/>
    <path data-geo-id="5002147425" data-name="Mount Tabor" d="M512,2437l124,7 25,2 -2,30 -12,34 -2,67 -17,-2 -97,-3 -1,18 -18,-20h-3Z"/>
    <path data-geo-id="5002584700" data-name="Wilmington" d="M581,3222l4,-101 130,7 -4,134 -1,5 -130,-6Z"/>
    <path data-geo-id="5002573300" data-name="Townshend" d="M784,2943l28,-110 27,-10 46,-8v15l-1,31 47,4 -10,46 -17,79 -31,-2 -98,-8Z"/>
    <path data-geo-id="5002565762" data-name="Somerset" d="M499,2980l92,6 -2,42 -4,93 -25,-2 -30,-1 -38,-2Z"/>
    <path data-geo-id="5002583950" data-name="Whitingham" d="M580,3261l130,6 -8,130 -125,-5h-3h-1Z"/>
    <path data-geo-id="5002570750" data-name="Stratton" d="M499,2980l7,-135 19,-5 79,8h7l25,2h5h1l-4,86 -9,92h-40l2,-42Z"/>
    <path data-geo-id="5000369775" data-name="Stamford" d="M354,3251l131,6 -5,132h-1l-131,-4h-1Z"/>
    <path data-geo-id="5000385675" data-name="Woodford" d="M346,3111l146,5 -4,100 -3,41 -131,-6h-17Z"/>
    <path data-geo-id="5000371425" data-name="Sunderland" d="M352,2975l8,-137 139,5 7,2 -7,135Z"/>
    <path data-geo-id="5000385075" data-name="Winhall" d="M499,2843l3,-135 25,2 117,7h6l-3,56 -5,77h-1h-5l-25,-2h-7l-79,-8 -19,5Z"/>
    <path data-geo-id="5000162575" data-name="Salisbury" d="M324,1694l17,-63 109,-15 13,-2 -4,60h11l-1,31 -58,9 -84,21Z"/>
    <path data-geo-id="5002311125" data-name="Cabot" d="M1219,892l2,2 99,53h1l-1,3h-2l-3,4 1,1 5,-3 1,-2 1,2 1,2 -2,8 2,2 1,1 -4,14 -5,10 -43,81 -115,-62Z"/>
    <path data-geo-id="5000925975" data-name="Ferdinand" d="M1696,506l50,-68 -1,-10 45,-55 25,18 37,102 4,25 43,133 -78,-57 -104,-73Z"/>
    <path data-geo-id="5001127700" data-name="Georgia" d="M432,440l47,178 -74,-40 -122,-67 17,-30 65,-76Z"/>
    <path data-geo-id="5002702725" data-name="Barnard" d="M864,1862l17,6 117,47 -56,136 -113,-43 -22,-8Z"/>
    <path data-geo-id="5002712250" data-name="Cavendish" d="M863,2357l1,-5 138,19 -10,91 -43,19 -29,29 -57,-3Z"/>
    <path data-geo-id="5002708275" data-name="Bridgewater" d="M762,2163l59,-138 8,-17 113,43 10,7 -64,146 -10,-3 -116,-38Z"/>
    <path data-geo-id="5002713675" data-name="Chester" d="M835,2692l7,-145 2,-42 19,2 57,3 65,4 -5,159h-6l-4,2 -49,5 -75,12h-11Z"/>
    <path data-geo-id="5002705800" data-name="Bethel" d="M755,1820l61,-126 4,1 127,49 9,5 -75,119 -17,-6Z"/>
    <path data-geo-id="5002576225" data-name="Wardsboro" d="M638,2936l146,7 -9,37 -13,54 -133,-6Z"/>
    <path data-geo-id="5002756050" data-name="Plymouth" d="M744,2174l3,-18 15,7 116,38 -14,151 -1,5 -69,-23 -47,-13 -18,-33Z"/>
    <path data-geo-id="5002741275" data-name="Ludlow" d="M796,2344l-2,-10 69,23v150l-19,-2 -2,42 -83,-47 1,-39Z"/>
    <path data-geo-id="5002732425" data-name="Hartland" d="M1004,2241l57,-131 8,-10 145,36v7l-2,2h-1l-52,39 1,12h-1v37l-17,28 -57,-8Z"/>
    <path data-geo-id="5002763775" data-name="Sharon" d="M1003,1918l72,-119 60,20 68,21 -89,122 -3,6 -11,-11Z"/>
    <path data-geo-id="5002760850" data-name="Royalton" d="M956,1749l119,50 -72,119 -5,-3 -117,-47Z"/>
    <path data-geo-id="5002758375" data-name="Reading" d="M878,2201l10,3 110,37 4,130 -138,-19Z"/>
    <path data-geo-id="5002756350" data-name="Pomfret" d="M942,2051l56,-136 5,3 97,39 11,11 -54,120 -91,-32 -14,2Z"/>
    <path data-geo-id="5000911800" data-name="Canaan" d="M1854,95l3,-1h1l38,-4h90h12h3l19,-3h35h6h33l-39,7 -32,23 -4,10v2l4,5 5,8 3,2h1l5,10v1h1l6,4 2,10v1l-1,7 -3,3 3,2v6l-6,9 2,1 3,2 2,12 1,1h1l13,17 7,5v3h-2l-15,5 -91,-68Z"/>
    <path data-geo-id="5000939700" data-name="Lemington" d="M1895,285l65,-110 91,68 15,-5 1,7 -3,2 -1,-2 -12,18 -6,12 -4,5 -5,3 -22,22 -1,2 -1,1 -1,2 -5,20h1l-9,31Z"/>
    <path data-geo-id="5000941425" data-name="Lunenburg" d="M1763,829l91,-50 106,78h-3h-3h-1l-10,10 -14,2v-2l1,-3 -12,15v1l-29,47 -4,3 1,2 -2,7 -2,1 -2,4 -9,6 -2,2 -1,2 -23,11 -22,4Z"/>
    <path data-geo-id="5000942475" data-name="Maidstone" d="M1856,518l120,81 13,9v5h8l4,3 6,10 -6,5 14,13 1,4 1,3 1,5h-3l-2,-3 -4,5v1v2v3l2,8 -7,10 10,5 -2,5h7v7l7,-3v8l4,2 -16,10 2,10 -5,5h-1l-80,-59 -31,-21 -43,-133Z"/>
    <path data-geo-id="5000724175" data-name="Essex" d="M352,850l64,-116 131,28 -64,120 -43,-20 -25,13 -17,-15 -22,12Z"/>
    <path data-geo-id="5000710300" data-name="Buels" d="M550,1228l45,12 -32,88Z"/>
    <path data-geo-id="5000759275" data-name="Richmond" d="M492,932l107,8 -14,68 -22,52 -81,-28 -3,-15 -49,6 34,-84Z"/>
    <path data-geo-id="5000773975" data-name="Underhill" d="M610,648l84,114 19,7 -21,45 25,20 -33,61 -52,-15 -85,-118Z"/>
    <path data-geo-id="5000780350" data-name="Westford" d="M465,634l14,-16 27,6 90,20h8l6,4 -63,114 -131,-28Z"/>
    <path data-geo-id="5000785150" data-name="Winooski" d="M338,852l-4,5h-1l-26,-12 12,-19 25,9Z"/>
    <path data-geo-id="5002548400" data-name="Newfane" d="M762,3034l13,-54 98,8 20,35 -5,36 -13,70 -29,-1 -105,-2Z"/>
    <path data-geo-id="5002560250" data-name="Rockingham" d="M971,2800l3,-127h6h3l79,2 26,2h14l-10,80 -12,40 13,20 1,5 4,13 -132,-5Z"/>
    <path data-geo-id="5002581400" data-name="Westminster" d="M941,2980l12,-67 13,-83 132,5 4,60 -36,43 10,48Z"/>
    <path data-geo-id="5002584850" data-name="Windham" d="M784,2713l-1,-16 1,-4 8,-11 -2,-5 4,1 41,14h11l-7,131 -27,10 -70,-25 10,-60Z"/>
    <path data-geo-id="5001159125" data-name="Richford" d="M904,90h8l65,10h1l20,120h-4l-137,3 -5,-10 -26,-123h49Z"/>
    <path data-geo-id="5000910075" data-name="Brunswick" d="M1826,400l102,71 1,2 1,2 4,10 3,6 -2,2 6,10 2,8 1,2 18,31 4,4 -1,5 1,6v2l1,3 1,9 4,5 2,1 5,2 -3,5 2,10 -2,3 -120,-81 -4,-25 -37,-102Z"/>
    <path data-geo-id="5002732275" data-name="Hartford" d="M1057,2088l54,-120 3,-6 124,48 -10,65 -3,11 -18,34 7,16 -145,-36Z"/>
    <path data-geo-id="5002702575" data-name="Baltimore" d="M992,2462l-7,52 -65,-4 29,-29Z"/>
    <path data-geo-id="5002701300" data-name="Andover" d="M759,2500l83,47 -7,145 -41,-14 -4,-1 -28,-12 -9,-58Z"/>
    <path data-geo-id="5002752900" data-name="Norwich" d="M1203,1840l87,35 52,22 -26,33 -43,20 -35,60 -124,-48Z"/>
    <path data-geo-id="5002760100" data-name="Rochester" d="M532,1734l28,10 80,-40 2,56 8,4 52,-110 27,-35 9,48 78,27 -61,126 -17,27 -6,-7h1l-3,-10 -4,-8 1,-2 -5,-8 -35,-15 -20,8 -24,-10 -5,-26 -10,6 -75,40Z"/>
    <path data-geo-id="5001171725" data-name="Swanton" d="M325,90h22l19,25 -11,27v2h-1h1v-2l-6,13 6,27 108,58 20,35 34,10 -6,42 14,49 -204,-103v-33l-38,-27 -9,-36Z"/>
    <path data-geo-id="5001161750" data-name="St. Albans" d="M255,425l19,-37 30,-23 17,-92 204,103 18,14 -111,50 -67,-35 -65,76 -17,30 -31,-61Z"/>
    <path data-geo-id="5001124925" data-name="Fairfax" d="M432,440l81,18 85,161 -2,2 -2,8 2,4v11l-90,-20 -27,-6Z"/>
    <path data-geo-id="5001535050" data-name="Hyde Park" d="M932,579l5,-8 121,62 -6,11 -43,87 -35,-15 -10,18 -47,-23 -6,1 -33,-25Z"/>
    <path data-geo-id="5002777500" data-name="Weathersfield" d="M992,2462l10,-91 78,13 62,10 -19,93 25,10 -17,28 -146,-11Z"/>
    <path data-geo-id="5002770375" data-name="Stockbridge" d="M738,1847l17,-27 109,42 -57,138 22,8 -8,17 -13,-7 -13,-5 -97,-38 14,-38 -13,-5Z"/>
    <path data-geo-id="5002769550" data-name="Springfield" d="M985,2514l146,11 12,37 -13,43 -28,34v38h-14l-26,-2 -79,-2h-3Z"/>
    <path data-geo-id="5002782000" data-name="Weston" d="M659,2476l31,-14 69,38 -6,107 9,58 -42,-15 -24,-6 -1,-64h-11l-13,-3h-21h-5l2,-67Z"/>
    <path data-geo-id="5002783050" data-name="West Windsor" d="M998,2241h6l81,12 -5,131 -78,-13Z"/>
    <path data-geo-id="5002785975" data-name="Woodstock" d="M888,2204l64,-146 14,-2 91,32 12,12 -8,10 -57,131h-6Z"/>
    <path data-geo-id="5002784925" data-name="Windsor" d="M1085,2253l57,8 17,40v3l-3,22 -8,35 -6,33 -62,-10Z"/>
    <path data-geo-id="5002111950" data-name="Castleton" d="M252,2160l5,-115 1,-20 137,6 3,20 9,44h-16l-5,70Z"/>
    <path data-geo-id="5002107750" data-name="Brandon" d="M346,1790h1h8l14,-1 29,-2h6l46,-3h15h14l1,8h2l10,53 14,70 -134,7 -25,-128v-4Z"/>
    <path data-geo-id="5002344500" data-name="Middlesex" d="M874,987l107,76 -24,47 -40,78 -28,-18 -80,-60 59,-73 -12,-19Z"/>
    <path data-geo-id="5002114350" data-name="Chittenden" d="M492,1845l21,-10 40,-20 75,-40 10,-6 5,26 1,53 48,95 -14,27 -22,36 -85,42v-5l-65,-128Z"/>
    <path data-geo-id="5002105200" data-name="Benson" d="M84,2020l1,-7 28,-46 7,-10 2,-27 1,-2 6,-10v-1h8h4l42,-5 33,-4 7,-1h7h2h2h1l3,-2h1h6l22,-3 -3,23 -6,100 -1,20 -43,-4 -132,-8v-2Z"/>
    <path data-geo-id="5002144800" data-name="Middletown Springs" d="M381,2234h12l22,60 9,24 -33,68h-11l-63,-50v-43h13Z"/>
    <path data-geo-id="5002175925" data-name="Wallingford" d="M483,2434l15,-70 3,-65 46,-3v15h35l1,8 61,-1 -8,126 -124,-7Z"/>
    <path data-geo-id="5002114500" data-name="Clarendon" d="M452,2296l18,-112h25l82,-5 5,132h-35v-15l-46,3Z"/>
    <path data-geo-id="5002116825" data-name="Danby" d="M379,2427l104,7 29,3 -3,133 -133,-5Z"/>
    <path data-geo-id="5002134450" data-name="Hubbardton" d="M264,1925l108,-3 23,109 -137,-6Z"/>
    <path data-geo-id="5002147200" data-name="Mount Holly" d="M644,2318l65,-5 38,8 47,13 2,10 -36,117 -1,39 -69,-38 -31,14 2,-30 -25,-2Z"/>
    <path data-geo-id="5002137685" data-name="Killington" d="M656,2006l22,-36 20,5 97,38 13,5 13,7 -59,138 -15,-7 -101,-38 44,-128Z"/>
    <path data-geo-id="5002135425" data-name="Ira" d="M386,2165l5,-70h16l20,91 43,-2 -18,112 -37,-2 -22,-60h-12Z"/>
    <path data-geo-id="5002144125" data-name="Mendon" d="M571,2048l85,-42 34,-16 -44,128 101,38 -3,18 -167,5Z"/>
    <path data-geo-id="5002154250" data-name="Pawlet" d="M237,2542l1,-46v-5l3,-72 138,8 -3,138 -49,-5h-4h-1l-69,-3 -4,-2h-13l1,-10Z"/>
    <path data-geo-id="5002165275" data-name="Shrewsbury" d="M577,2179l167,-5 -15,114 18,33 -38,-8 -65,5 -61,1 -1,-8Z"/>
    <path data-geo-id="5002161225" data-name="Rutland" d="M496,2135l5,-35 62,11 1,42 -48,10Z"/>
    <path data-geo-id="5002156875" data-name="Poultney" d="M246,2299v-23v-2v-8v-3v-10v-2l6,-10 -1,-5 -2,-8 3,-68 134,5 -5,69 -51,59h-13v43l-73,5 1,-12Z"/>
    <path data-geo-id="5002155450" data-name="Pittsfield" d="M643,1795l24,10 20,-8 35,15 5,8 -1,2 4,8 3,10h-1l6,7 -39,85 13,5 -14,38 -20,-5 14,-27 -48,-95Z"/>
    <path data-geo-id="5001546675" data-name="Morristown" d="M778,699l68,28 32,-40 33,25 6,-1 47,23 10,-18 35,15 -17,30 -60,108 -112,-67 14,-28 -78,-27Z"/>
    <path data-geo-id="5000902125" data-name="Averill" d="M1788,207l12,-20 48,-77 6,-15 106,80 -65,110Z"/>
    <path data-geo-id="5000902162" data-name="Avery's" d="M1706,188l94,-1 -12,20 -68,115 -26,-20Z"/>
    <path data-geo-id="5000908725" data-name="Brighton" d="M1576,420l55,-72 47,-58 16,12 26,20 70,51 -45,55 1,10 -50,68 -16,-11 -69,-49Z"/>
    <path data-geo-id="5000906325" data-name="Bloomfield" d="M1826,400l69,-115 103,76 -9,7 -2,2 -2,3 2,8 2,25 -57,57 -4,8Z"/>
    <path data-geo-id="5000915250" data-name="Concord" d="M1633,915l19,-13 47,-62 25,12 39,-23 60,140v1l-1,2 -2,5 -1,2h-7l-35,1h-7l-3,2h-1l-1,2 -3,1 -2,2 -1,2 -3,1v4v1l3,8 -1,2h-2h-3l-7,2h-1v1v4l-1,5 1,1 2,5 -1,2h-1l-2,2 1,3v2v1l1,2 2,10 -2,2 -7,3h-3h-1l-1,2h-2l-3,1h-2h-2l-2,4h-1l-100,-135Z"/>
    <path data-geo-id="5000929125" data-name="Granby" d="M1821,594l78,57 31,21 -76,107 -105,-80Z"/>
    <path data-geo-id="5000921250" data-name="East Haven" d="M1698,548l19,-27 104,73 -72,105 -36,-25 -71,-51Z"/>
    <path data-geo-id="5000976562" data-name="Warren's" d="M1655,192l51,-4 -12,114 -16,-12 -37,-27Z"/>
    <path data-geo-id="5001504375" data-name="Belvidere" d="M781,423l13,-3 29,-4 11,-1 19,-4 51,-8h2l31,13 -71,127 -43,-22 -40,-20Z"/>
    <path data-geo-id="5000975175" data-name="Victory" d="M1656,752l43,-56 14,-22 36,25 105,80 -91,50 -39,23 -25,-12 -54,-71Z"/>
    <path data-geo-id="5000939775" data-name="Lewis" d="M1720,322l68,-115 107,78 -69,115 -11,-9 -25,-18Z"/>
    <path data-geo-id="5000952750" data-name="Norton" d="M1652,99h1l192,-5h12l-3,1 -6,15 -48,77 -94,1 -51,4h-22Z"/>
    <path data-geo-id="5001585375" data-name="Wolcott" d="M992,761l17,-30 43,-87 13,7 4,2h2l20,11 79,40 -6,12 -57,105Z"/>
    <path data-geo-id="5001511500" data-name="Cambridge" d="M596,621l2,-2 5,7 6,-2h2l6,2 1,-2 4,-6 2,-2 3,-3h1l44,-82 13,5 44,23 59,32 -26,48 38,19 -22,41 -22,48 -16,30 -27,-8 -19,-7 -84,-114 -6,-4h-8v-11l-2,-4Z"/>
    <path data-geo-id="5000930775" data-name="Guildhall" d="M1930,672l80,59 -2,6 -16,4 -25,11 17,14 -6,36 -6,-1v5l12,16 3,4 -6,3 -1,5 -5,1 -6,12 -1,5 -4,3 -3,2h-1l-106,-78Z"/>
    <path data-geo-id="5000976337" data-name="Warner's" d="M1629,210l4,-18h22l-14,71 -20,-18Z"/>
    <path data-geo-id="5001577425" data-name="Waterville" d="M739,506l20,-55 22,-28 2,78 40,20 -35,70 -59,-32Z"/>
    <path data-geo-id="5001523500" data-name="Eden" d="M866,543l71,-127 17,14 165,84 -5,12 -56,107 -121,-62 -5,8Z"/>
    <path data-geo-id="5001537075" data-name="Johnson" d="M788,591l35,-70 43,22 66,36 -54,108 -32,40 -68,-28 22,-41 -38,-19Z"/>
    <path data-geo-id="5001523725" data-name="Elmore" d="M932,869l60,-108 115,60 -5,8 -59,118 -3,3Z"/>
    <path data-geo-id="5001570525" data-name="Stowe" d="M713,769l27,8 16,-30 78,27 -14,28 112,67 -58,118 -68,-40 -47,-25 -41,-15 -34,-12 33,-61 -25,-20Z"/>
    <path data-geo-id="5001300860" data-name="Alburgh" d="M271,90h53h1l-51,87 9,36 -18,4 -24,40 -21,81 -19,-2 -7,-36 5,-43 -30,-24 1,-1 4,-73 -17,-37 13,-32h75Z"/>
    <path data-geo-id="5001335875" data-name="Isle La Motte" d="M129,325v-3l6,-14 3,-1 12,-50 17,-24h2l30,24 -5,43 7,36 -34,49 -34,-40h-1Z"/>
    <path data-geo-id="5001329275" data-name="Grand Isle" d="M156,455l38,15 61,-45 -3,25 31,61v50l-148,18 7,-98 14,-25Z"/>
    <path data-geo-id="5001367000" data-name="South Hero" d="M134,598h1v-19l148,-18 -6,58 -21,10 -3,47 -39,45 -72,20 -2,-2 -3,-3 -2,-7 -4,-5 -5,-17 -1,-1v-22l-1,-3 -2,-10 -2,-3 -3,-2 -1,-2Z"/>
    <path data-geo-id="5001350650" data-name="North Hero" d="M167,385l34,-49 19,2 21,-81 24,-40 18,-4 38,27v33l-17,92 -30,23 -19,37 -61,45 -38,-15 20,-35Z"/>
    <path data-geo-id="5000301450" data-name="Arlington" d="M220,2895l3,-62 137,5 -8,137 -136,-10 3,-42Z"/>
    <path data-geo-id="5000362875" data-name="Sandgate" d="M230,2697l138,5 -8,136 -137,-5 2,-33Z"/>
    <path data-geo-id="5000714875" data-name="Colchester" d="M142,741l72,-20 39,-45 22,-8 39,11 102,55 -64,116 -14,2 6,-17 -25,-9 -12,19 -27,-23 -12,-30 -38,-1 -45,13 -23,-47h-3l-10,-6h-1Z"/>
    <path data-geo-id="5000762050" data-name="St. George" d="M368,979l27,10 28,36 -46,7Z"/>
    <path data-geo-id="5001980200" data-name="Westfield" d="M994,220h4h126l10,121 1,10 -134,2Z"/>
    <path data-geo-id="5001981700" data-name="Westmore" d="M1464,430l43,-60 69,50 35,26 -51,70 -23,33 -12,-10 -93,-64Z"/>
    <path data-geo-id="5000109025" data-name="Bristol" d="M440,1295l50,-14 5,53 -20,5 21,134 -11,25 -40,3 -2,-23 -31,5 -15,-129 -37,-15 -3,-34Z"/>
    <path data-geo-id="5000128600" data-name="Goshen" d="M469,1705l1,-31h62l-23,50 23,10 21,81 -40,20 -21,10 -10,-53h-2l-1,-8h1Z"/>
    <path data-geo-id="5001936325" data-name="Jay" d="M1093,99l10,1 21,120h-126l-20,-120h1l76,-1Z"/>
    <path data-geo-id="5001903550" data-name="Barton" d="M1288,471l54,-106 122,65 -32,45 25,96 -19,-10 -41,-18 -114,-58Z"/>
    <path data-geo-id="5001928075" data-name="Glover" d="M1230,588l53,-103 114,58 -54,110 -2,5 -116,-59Z"/>
    <path data-geo-id="5001900475" data-name="Albany" d="M1119,514l54,-103 115,60 -5,14 -53,103 -116,-62Z"/>
    <path data-geo-id="5001916150" data-name="Coventry" d="M1231,293l48,-95 19,15 55,42 29,23 -41,73Z"/>
    <path data-geo-id="5001909850" data-name="Brownington" d="M1341,351l41,-73 43,30 82,62 -43,60 -122,-65Z"/>
    <path data-geo-id="5001913150" data-name="Charleston" d="M1425,308l54,-73 152,113 -55,72 -69,-50Z"/>
    <path data-geo-id="5001933775" data-name="Holland" d="M1494,104l8,-4h20h2h16l42,-1h12h35h16h7l-19,93 -4,18 -149,2Z"/>
    <path data-geo-id="5001930175" data-name="Greensboro" d="M1170,704l55,-105 116,59 -19,38 -17,31 -26,50 -19,-11 -75,-39 -10,-5 -11,-6Z"/>
    <path data-geo-id="5001916300" data-name="Craftsbury" d="M1052,644l6,-11 56,-107 116,62 -5,11 -55,105 -79,-40 -20,-11h-2l-4,-2Z"/>
    <path data-geo-id="5001940525" data-name="Lowell" d="M954,430l47,-77 134,-2 -1,-10h32h28l-30,65 9,5 -54,103Z"/>
    <path data-geo-id="5001935575" data-name="Irasburg" d="M1194,341l16,-3 21,-45 110,58 1,14 -54,106 -115,-60 -9,-5Z"/>
    <path data-geo-id="5001946450" data-name="Morgan" d="M1480,212l149,-2 -8,35 20,18 37,27 -47,58 -152,-113 -31,-22Z"/>
    <path data-geo-id="5001948925" data-name="Newport" d="M1166,341l44,-237 11,3h25h10h4h6h9h10l9,-3 16,30 6,43 -18,36 -19,-15 -48,95 -21,45 -16,3Z"/>
    <path data-geo-id="5001973525" data-name="Troy" d="M1103,100h17h3h3l17,4h16h4h2h25h5h15l-44,237h-32l-10,-121Z"/>
    <path data-geo-id="5001948850" data-name="Newport" d="M1316,177l33,-13 26,23 -27,23 5,45 -55,-42Z"/>
    <path data-geo-id="5000706550" data-name="Bolton" d="M563,1060l22,-52 14,-68 33,-60 52,15 34,12 -34,72 34,18 -20,41 -2,4 -2,-2h-1h-8h-4l-4,-3 -9,-4 -28,50Z"/>
    <path data-geo-id="5000713300" data-name="Charlotte" d="M176,1062l168,-27 19,130 -54,8 -2,2h-11l-19,3h-2h-1l-28,3h-7l-50,-5Z"/>
    <path data-geo-id="5000734600" data-name="Huntington" d="M482,1032l81,28 77,23 -34,70 16,9 -27,78 -45,-12 -8,-91 -50,-15Z"/>
    <path data-geo-id="5000733475" data-name="Hinesburg" d="M344,1035l33,-3 46,-7 7,-2 49,-6 3,15 10,90 -1,26 -44,7 -16,-3 -10,1 -58,12Z"/>
    <path data-geo-id="5000736700" data-name="Jericho" d="M483,882l64,-120 85,118 -33,60 -107,-8Z"/>
    <path data-geo-id="5000108575" data-name="Bridport" d="M86,1529l151,-20 7,32 -3,96 -156,22 -5,-68Z"/>
    <path data-geo-id="5000126300" data-name="Ferrisburgh" d="M111,1280l24,-22 15,-35 24,-17h3l12,-30 50,5h7l28,-3h1h2l19,-3h11l2,-2 20,135 4,30 -42,-10 -28,-7 -3,-23 -30,5 2,17 -137,18 16,-58Z"/>
    <path data-geo-id="5000153725" data-name="Orwell" d="M120,1787l157,-20 4,30 12,103h-6h-3l-9,2h-1h-7l-22,3h-6h-1l-3,2h-1h-2h-2h-7l-7,1 -33,4 -42,5h-4h-8l2,-2 11,-27 -13,-25v-1l-6,-4 -1,-1 -22,-35Z"/>
    <path data-geo-id="5000139325" data-name="Leicester" d="M327,1735l84,-21 58,-9 11,79h-1h-14h-15l-46,3h-6l-29,2 -14,1h-8h-1Z"/>
    <path data-geo-id="5000148700" data-name="New Haven" d="M252,1431l8,-27 40,-5 -9,-71 42,10 -4,-30 28,-3 3,34 37,15 15,129 -88,11 -13,-36 -25,1Z"/>
    <path data-geo-id="5001748175" data-name="Newbury" d="M1377,1283l4,3 28,12 59,22 12,5 25,9h2l1,2h2l1,2v1l-1,2v2l-2,1 2,2v3v2v2v1v4v1l1,2 -1,3 1,2 3,2h2l4,5 -1,1h-2l-1,2 -3,5h-2l-3,2h-1l-2,1 -2,2 -3,3v-1l-1,1v2v3v4l-1,1h-1v4v1l1,4h1v8h1v2l2,3 1,2h2h3l13,8h-1l-1,3h-8l-3,4 14,11 -22,5 4,9 -2,3 -1,2 -6,10h-1h-7l-4,3v2v1l2,2 5,7h-1h-3l-7,5h-1l-2,1 -2,2h-1v3l5,13h-2l-2,4 -119,-47 -17,-6Z"/>
    <path data-geo-id="5001713525" data-name="Chelsea" d="M993,1474l38,17 126,61 -14,115 -120,-53Z"/>
    <path data-geo-id="5000561525" data-name="Ryegate" d="M1358,1162l133,29 5,12 1,2 3,3 2,2 1,3v3l-4,14v1l-5,25h-2l-1,2 2,3v2l-4,12 -2,1v2l-1,3v2l-1,5 1,2 1,1 3,4 3,3 2,10 2,5 1,2 1,5 1,1 3,2 1,3v2l1,2h5l-2,4v2l-1,-2h-2l-25,-9 -12,-5 -59,-22 -28,-12Z"/>
    <path data-geo-id="5000577125" data-name="Waterford" d="M1515,1000l106,-78 100,135 -1,1h-1l-2,2 -2,2 -2,1h-1l-2,2h-2l-2,2h-1l-6,1h-4h-1l-1,2 -2,2h-1l-2,1h-1l-18,-8 -29,-7 -22,17 -10,-3 -8,1h-6h-17h-1h-1l-7,2Z"/>
    <path data-geo-id="5000517125" data-name="Danville" d="M1318,950h2l1,-3h-1h1l12,8 61,-118 14,-28 56,13 41,163 -51,60 -7,-2 -72,-18 3,-22 -62,-14 5,-10 4,-14 -1,-1 -2,-2 2,-8 -1,-2 -1,-2 -1,2 -5,3 -1,-1Z"/>
    <path data-geo-id="5000502875" data-name="Barnet" d="M1454,1045l51,-60 10,15 53,75 -3,7v1l-5,4 -7,3 -7,3 -3,2 -6,2 -13,-2 -3,2 -1,1h-1v2l1,12v6l-12,17h-3v3v2h-2l-5,2 -2,1 -2,4 -2,1 -1,2 -2,5 -6,10 2,8 2,2 2,-2h3v3v2h-1l-1,5v2h-1l2,6 -133,-29Z"/>
    <path data-geo-id="5000710675" data-name="Burlington" d="M238,807l-8,-16 38,1 12,30 27,23 26,12h1h-1l-13,45 -44,10 -46,-86Z"/>
    <path data-geo-id="5000764300" data-name="Shelburne" d="M210,924l26,-14 40,2 13,20 1,17 65,25 13,5 9,53 -33,3 -168,27 -9,-32 20,-30Z"/>
    <path data-geo-id="5000766175" data-name="South Burlington" d="M185,804l45,-13 8,16 -8,19 46,86 44,-10 13,-45h1l4,-5 14,-2 24,22 -1,47 -11,26v9l-9,20 -65,-25 -1,-17 -13,-20 -40,-2 -26,14 -11,-92Z"/>
    <path data-geo-id="5000784475" data-name="Williston" d="M364,954v-9l11,-26 1,-47 22,-12 17,15 25,-13 43,20 9,50 -28,7 -34,84 -7,2 -28,-36 -27,-10 -13,-5Z"/>
    <path data-geo-id="5002303250" data-name="Barre" d="M994,1268l42,32 15,-4 -11,-41 -40,-4 12,-36 42,10 63,18 -24,133 -14,-5 -67,-27 -41,-16Z"/>
    <path data-geo-id="5002346225" data-name="Moretown" d="M779,1088l30,22 80,60 -46,125 -52,-37 -59,-42Z"/>
    <path data-geo-id="5002305650" data-name="Berlin" d="M843,1295l46,-125 28,18 22,22 39,13 23,-8h11l-12,36 -6,17 -23,60 -31,2Z"/>
    <path data-geo-id="5002355825" data-name="Plainfield" d="M1094,1148l110,58 -33,62 -30,-13 -7,-4 -11,-5 -6,-3 -63,-18Z"/>
    <path data-geo-id="5002311350" data-name="Calais" d="M981,1063l59,-113 3,-3 115,61 -62,115Z"/>
    <path data-geo-id="5002325825" data-name="Fayston" d="M563,1328l32,-88 27,-78 110,54 -82,123 -26,-16 -42,2Z"/>
    <path data-geo-id="5002343600" data-name="Marshfield" d="M1096,1123l62,-115 115,62 -50,62 2,36 -21,38 -110,-58Z"/>
    <path data-geo-id="5002303175" data-name="Barre" d="M1000,1251l40,4 11,41 -15,4 -42,-32Z"/>
    <path data-geo-id="5002321925" data-name="East Montpelier" d="M981,1063l115,60 -2,25 -40,77 -42,-10h-11l-4,-30 -32,-28 -8,-47Z"/>
    <path data-geo-id="5002360625" data-name="Roxbury" d="M698,1486l54,-107 142,55 -40,87 -12,25 -62,-25 -17,-9h-4Z"/>
    <path data-geo-id="5002375325" data-name="Waitsfield" d="M650,1339l82,-123 59,42 -14,50 -37,66Z"/>
    <path data-geo-id="5002350275" data-name="Northfield" d="M740,1374l37,-66 14,-50 52,37 97,35 -40,106 -6,-2 -142,-55Z"/>
    <path data-geo-id="5002346000" data-name="Montpelier" d="M917,1188l40,-78 8,47 32,28 4,30 -23,8 -39,-13 -22,-22Z"/>
    <path data-geo-id="5001917350" data-name="Derby" d="M1361,104h6h2h33h7h9h16h2h9h6h6h13h7h15h2l-14,108 -32,1 31,22 -54,73 -43,-30 -29,-23 -5,-45 27,-23 -26,-23 -33,13 -6,-43 -16,-30h16h47Z"/>
    <path data-geo-id="5002386125" data-name="Worcester" d="M932,869l108,81 -59,113 -107,-76Z"/>
    <path data-geo-id="5002385525" data-name="Woodbury" d="M1043,947l59,-118 9,5 46,25 62,33 -61,116Z"/>
    <path data-geo-id="5002376525" data-name="Warren" d="M582,1325l42,-2 26,16 90,35 12,5 -54,107 -34,-13 -57,-15 -8,1Z"/>
    <path data-geo-id="5002125375" data-name="Fair Haven" d="M191,2106v-1l23,-64 43,4 -5,115 -3,68 -1,-2 -2,-2 -1,-3v-2h-1h1l-1,-1v-2v-3l1,-4 1,-1h-1l-2,-2 -2,-3v-2l-2,-3 -1,-2 -3,-5 -1,-2h-1h-1v-1h-2v-2l-2,-2 -3,-1 -2,-2 -7,-3h-1l-3,-2 -2,-3 -14,1v-1l-1,-4 1,-3 3,-1v-4l-3,-1 -1,-2 1,-2v-1l3,-4v-6v-7v-2l-8,-10h-1v-1v-2l1,-5v-2v-3Z"/>
    <path data-geo-id="5002177950" data-name="Wells" d="M244,2341l73,-5 63,50 -1,41 -138,-8 3,-68Z"/>
    <path data-geo-id="5002172925" data-name="Tinmouth" d="M379,2427l1,-41h11l33,-68 -9,-24 37,2 49,3 -3,65 -15,70Z"/>
    <path data-geo-id="5002182300" data-name="West Rutland" d="M450,2048l8,73 17,7 20,27v29h-25l-43,2 -20,-91 -9,-44Z"/>
    <path data-geo-id="5002171050" data-name="Sudbury" d="M267,1902h7h1l9,-2h3h6l-12,-103h7l18,-2 38,-1h3l25,128 -108,3Z"/>
    <path data-geo-id="5002376975" data-name="Waterbury" d="M718,907l41,15 47,25 68,40 -18,31 12,19 -59,73 -30,-22 -18,-23 -41,-23h-24l2,-4 20,-41 -34,-18Z"/>
    <path data-geo-id="5000131525" data-name="Hancock" d="M532,1674l35,-75 36,13 99,42 -52,110 -8,-4 -2,-56 -80,40 -28,-10 -23,-10Z"/>
    <path data-geo-id="5000145550" data-name="Monkton" d="M309,1173l54,-8 58,-12 10,-1 -4,46 13,97 -83,10 -28,3Z"/>
    <path data-geo-id="5000129575" data-name="Granville" d="M608,1509l-1,-51 57,15 34,13 61,26h4l17,9 -51,98 -27,35 -99,-42Z"/>
    <path data-geo-id="5000144350" data-name="Middlebury" d="M312,1532h15l-3,-38 88,-11 31,-5 2,23 5,115 -109,15 -28,-54Z"/>
    <path data-geo-id="5000116000" data-name="Cornwall" d="M244,1541l68,-9 1,45 28,54 -17,63 -67,3 -16,-60Z"/>
    <path data-geo-id="5002318550" data-name="Duxbury" d="M640,1083l28,-50 9,4 4,3h4h8h1l2,2h24l41,23 18,23 -47,128 -110,-54 -16,-9Z"/>
    <path data-geo-id="5000174650" data-name="Vergennes" d="M263,1321l-10,15 -21,-16 -2,-17 30,-5Z"/>
    <path data-geo-id="5000159650" data-name="Ripton" d="M445,1501l40,-3 -1,9 124,2 -5,103 -36,-13 -35,75h-62h-11l4,-60 -13,2Z"/>
    <path data-geo-id="5000153950" data-name="Panton" d="M95,1338l137,-18 21,16 -12,45 -159,22 -3,-39Z"/>
    <path data-geo-id="5000165050" data-name="Shoreham" d="M85,1659l156,-22 16,60 20,70 -157,20v-50Z"/>
    <path data-geo-id="5000170075" data-name="Starksboro" d="M431,1152l16,3 44,-7 1,-26 50,15 8,91 13,100 -68,6 -5,-53 -50,14 -13,-97Z"/>
    <path data-geo-id="5000100325" data-name="Addison" d="M82,1403l159,-22 11,50 -31,27 16,51 -151,20 -31,-38Z"/>
    <path data-geo-id="5000183275" data-name="Weybridge" d="M252,1431l34,28 25,-1 13,36 3,38h-15l-68,9 -7,-32 -16,-51Z"/>
    <path data-geo-id="5000176075" data-name="Waltham" d="M253,1336l10,-15 28,7 9,71 -40,5 -8,27 -11,-50Z"/>
    <path data-geo-id="5000745250" data-name="Milton" d="M283,561v-50l122,67 74,40 -14,16 -49,100 -102,-55 -39,-11 -22,8 3,-47 21,-10Z"/>
    <path data-geo-id="5000183800" data-name="Whiting" d="M257,1697l67,-3 3,41 19,55h1v4h-3l-38,1 -18,2h-7l-4,-30Z"/>
    <path data-geo-id="5000140075" data-name="Lincoln" d="M495,1334l68,-6 19,-3 17,134 8,-1 1,51 -124,-2 1,-9 11,-25 -21,-134Z"/>
    <path data-geo-id="5001102500" data-name="Bakersfield" d="M684,350l166,-2 3,63 -19,4 -11,1 -29,4 -13,3 -22,28 -20,55 -76,-15Z"/>
    <path data-geo-id="5000569925" data-name="Stannard" d="M1279,777l26,-50 103,82 -14,28Z"/>
    <path data-geo-id="5001105425" data-name="Berkshire" d="M693,87h6h2h4h11h8h26h6l27,3h18h25l26,123 -86,10 -64,-3Z"/>
    <path data-geo-id="5001126500" data-name="Fletcher" d="M513,458l150,33 76,15 -10,53 -44,-23 -13,-5 -44,82h-1l-3,3 -2,2 -4,6 -1,2 -6,-2h-2l-6,2 -5,-7Z"/>
    <path data-geo-id="5001125225" data-name="Fairfield" d="M432,440l111,-50 -18,-14 -14,-49 6,-42 168,32 -1,33 -21,141 -150,-33Z"/>
    <path data-geo-id="5001124050" data-name="Enosburgh" d="M685,317l24,-87 -7,-2v-8l64,3 86,-10 5,10 11,127 -18,-2 -166,2Z"/>
    <path data-geo-id="5001127100" data-name="Franklin" d="M544,90l60,-3h14h38h28h9l9,133v8l-79,-21 -82,-43 -12,-74h11Z"/>
    <path data-geo-id="5001164600" data-name="Sheldon" d="M623,207l79,21 7,2 -24,87 -168,-32 -34,-10 -20,-35Z"/>
    <path data-geo-id="5001145850" data-name="Montgomery" d="M850,348l18,2 -11,-127 137,-3 7,133 -47,77 -17,-14 -31,-13h-2l-51,8Z"/>
    <path data-geo-id="5002507900" data-name="Brattleboro" d="M845,3163l153,3 -22,16 -4,44 11,45h-16l-128,-7Z"/>
    <path data-geo-id="5002518325" data-name="Dummerston" d="M846,3128l29,1 13,-70h29l90,5 4,7 -16,17 12,50 -9,28 -153,-3Z"/>
    <path data-geo-id="5002540225" data-name="Londonderry" d="M650,2717h11l6,-83 29,10 24,6 42,15 28,12 2,5 -8,11 -1,4 1,16 -32,35 -10,60 -95,-35Z"/>
    <path data-geo-id="5002557700" data-name="Putney" d="M941,2980l135,6 17,17 -23,21 -9,32 -50,15 -4,-7 -90,-5Z"/>
    <path data-geo-id="5002574800" data-name="Vernon" d="M967,3271h16l18,38 20,23 2,8 32,17 22,55 -62,-2 -53,-5Z"/>
    <path data-geo-id="5000363175" data-name="Searsburg" d="M492,3116l38,2 30,1 25,2 -4,101 -93,-6Z"/>
    <path data-geo-id="5001133025" data-name="Highgate" d="M456,87h3h13h23l29,3h1h4l12,74 82,43 -160,33 -108,-58 -6,-27 6,-13v2h-1h1v-2l11,-27 -19,-25 8,-3h80Z"/>
    <path data-geo-id="5000510450" data-name="Burke" d="M1578,578l64,45 71,51 -14,22 -43,56 -38,-15 3,-16 -71,-15Z"/>
    <path data-geo-id="5000530550" data-name="Groton" d="M1204,1206l21,-38 -2,-36 135,30 23,124 -4,-3 -22,3 -111,12h-7h-1l-65,-30Z"/>
    <path data-geo-id="5000531825" data-name="Hardwick" d="M1107,821l57,-105 11,6 10,5 75,39 19,11 -58,117 -2,-2 -62,-33 -46,-25 -9,-5Z"/>
    <path data-geo-id="5002501900" data-name="Athens" d="M885,2830l15,-13 71,-17 -5,30 -13,83 -32,-2 10,-46 -47,-4Z"/>
    <path data-geo-id="5000317725" data-name="Dorset" d="M376,2565l133,5h3l18,20 -3,120 -25,-2 -134,-6Z"/>
    <path data-geo-id="5000304825" data-name="Bennington" d="M209,3106l137,5 -9,140 -134,-4Z"/>
    <path data-geo-id="5000537900" data-name="Kirby" d="M1594,849l10,-42 14,-70 38,15 -11,17 54,71 -47,62 -19,13 -12,7Z"/>
    <path data-geo-id="5000562200" data-name="St. Johnsbury" d="M1464,822l130,27 27,73 -106,78 -10,-15Z"/>
    <path data-geo-id="5000541725" data-name="Lyndon" d="M1491,696l59,10 71,15 -3,16 -14,70 -10,42 -130,-27Z"/>
    <path data-geo-id="5000547725" data-name="Newark" d="M1537,549l23,-33 51,-70 69,49 16,11 21,15 -19,27 -56,75 -64,-45Z"/>
    <path data-geo-id="5000554400" data-name="Peacham" d="M1223,1132l50,-62 43,-81 62,14 -3,22 72,18 7,2 -96,117Z"/>
    <path data-geo-id="5000564075" data-name="Sheffield" d="M1343,653l54,-110 41,18 19,10 26,87 -32,56 -110,-56Z"/>
    <path data-geo-id="5001707600" data-name="Braintree" d="M729,1619l51,-98 62,25 47,16 -69,133 -4,-1 -78,-27Z"/>
    <path data-geo-id="5001709325" data-name="Brookfield" d="M842,1546l12,-25 40,-87 6,2 93,38 30,140 -134,-52Z"/>
    <path data-geo-id="5001753425" data-name="Orange" d="M1117,1243l6,3 11,5 7,4 30,13 65,30 -26,131 -18,-6 -99,-47Z"/>
    <path data-geo-id="5001715700" data-name="Corinth" d="M1157,1552l35,-129 18,6 128,39 17,6 -43,98 -9,22Z"/>
    <path data-geo-id="5001758075" data-name="Randolph" d="M889,1562l134,52 -67,135 -9,-5 -127,-49Z"/>
    <path data-geo-id="5001725675" data-name="Fairlee" d="M1323,1729l58,-128 70,25 -1,1 -5,9 -2,1 -9,19v6l-59,78 6,10Z"/>
    <path data-geo-id="5001770675" data-name="Strafford" d="M1143,1667l116,38 12,5 -68,130 -68,-21 -60,-20Z"/>
    <path data-geo-id="5001774950" data-name="Vershire" d="M1143,1667l14,-115 146,42 -44,111Z"/>
    <path data-geo-id="5001779975" data-name="West Fairlee" d="M1259,1705l44,-111 9,-22 69,29 -58,128 -52,-19Z"/>
    <path data-geo-id="5001773675" data-name="Tunbridge" d="M956,1749l67,-135 120,53 -68,132Z"/>
    <path data-geo-id="5001773075" data-name="Topsham" d="M1236,1298h1h7l111,-12 22,-3 -39,185 -128,-39Z"/>
    <path data-geo-id="5001772400" data-name="Thetford" d="M1271,1710l52,19 58,21v2l-1,3 -2,2 -3,2h-3h-1l-7,8 -1,2 4,35 -1,6 -2,23 -1,14 -3,5 -17,31 -1,10v4l-52,-22 -87,-35Z"/>
    <path data-geo-id="5001784175" data-name="Williamstown" d="M900,1436l40,-106 31,-2 41,16 67,27 -48,120 -38,-17Z"/>
    <path data-geo-id="5001707375" data-name="Bradford" d="M1355,1474l119,47h-1l-1,1 -1,4v6h-2l-12,-5v2h-1v2l-2,1v4v1v2l3,10 -3,-8h-1h-2h-1h-1h-1l-1,3h-2v2v1v2h1v3v4h1l-1,5h-2h-1v1l-2,2 -5,47 15,11v2v2l-70,-25 -69,-29Z"/>
    <path data-geo-id="5001776750" data-name="Washington" d="M1079,1371l14,5 99,47 -35,129 -126,-61Z"/>
  </g>
  <path class="mesh" transform="scale(0.1)" d="M1474,1521l-119,-47 -17,-6 39,-185 4,3 28,12 59,22 12,5 25,9h2l1,2M480,3389l5,-132 3,-41 93,6 -1,39 -7,131M203,3247l134,4h17l-7,134M236,2555h13l4,2 69,3h1h4l49,5 -8,137 -138,-5M337,3251l9,-140 -137,-5M1322,696l19,-38 110,56 32,-56 8,38 -27,126 -56,-13 -103,-82 17,-31M1483,658l-26,-87 -25,-96 93,64 12,10 41,29 -28,128 -59,-10M494,2046l5,12 -26,52 2,18 -17,-7 -8,-73M571,2043v5l6,131 -82,5v-29l-20,-27M496,2135l20,28 48,-10 -1,-42 -62,-11 -5,35M530,2590l-18,-20h-3l3,-133 124,7 25,2 -2,30 -12,34 -2,67M710,3267l-130,-6M873,2988l-98,-8 9,-37M354,3251l131,6M581,3222l4,-101 -25,-2 -30,-1 -38,-2 -4,100M502,2708l-3,135 7,2M499,2843l-139,-5 8,-136 134,6 25,2M1321,947l-1,3h-2l-3,4 1,1 5,-3 1,-2 1,2 1,2 -2,8 2,2 1,1 -4,14 -5,10 -43,81 -115,-62 61,-116 2,2M82,2033l132,8 -23,64v1M942,2051l10,7 -64,146 -10,-3 -116,-38 59,-138 8,-17M846,2692h-11l7,-145 2,-42 19,2M864,1862l17,6 117,47 -56,136 -113,-43 -22,-8 57,-138 -109,-42 61,-126 4,1 127,49 9,5 -75,119M775,2980l-13,54M863,2357l1,-5 138,19 -10,91 -43,19 -29,29 -57,-3v-150l-69,-23 -47,-13 -18,-33 15,-114 3,-18 15,7M878,2201l-14,151M842,2547l-83,-47 1,-39 36,-117 -2,-10M1142,2261l-57,-8 -81,-12 57,-131 8,-10 145,36M1003,1918l72,-119 60,20 68,21 -89,122 -3,6 -11,-11 -97,-39 -5,-3M1111,1968l-54,120 -91,-32 -14,2M2066,238l-15,5 -91,-68 -106,-80 3,-1M1998,361l-103,-76 65,-110M1823,969l-60,-140 91,-50 106,78M1856,518l120,81M2010,731l-80,-59 -31,-21M499,2980l-7,136 -146,-5 6,-136 147,5 92,6 -2,42h40l133,6 -21,92 -26,2 -130,-7 4,-93M253,676l22,-8 39,11 102,55 49,-100 14,-16 27,6 90,20h8l6,4 84,114 19,7 -21,45 25,20 -33,61 -52,-15 -85,-118 63,-114M352,850l64,-116 131,28 -64,120 -43,-20 -25,13 -17,-15 -22,12 -24,-22 -14,2 -4,5h-1l-26,-12 12,-19 25,9 -6,17M980,2673h3l79,2 26,2h14M834,3402l5,-138 128,7 -5,134M888,3059l5,-36 -20,-35 31,2 17,-79 32,2 13,-83M742,2808l10,-60 32,-35 -1,-16 1,-4 8,-11 -2,-5 4,1 41,14M978,100l20,120h-4l-137,3 -5,-10 -26,-123M1815,391l11,9 102,71M1114,1962l124,48M1069,2100l-12,-12M1131,2525l-146,-11M659,2476l31,-14 69,38M1023,1614l-67,135 119,50 68,-132 116,38 12,5 -68,130 87,35 52,22M755,1820l-17,27 -6,-7h1l-3,-10 -4,-8 1,-2 -5,-8 -35,-15 -20,8 -24,-10 -5,-26 -10,6 -75,40 -21,-81 28,10 80,-40 2,56 8,4 52,-110 27,-35 9,48 78,27M347,90l19,25 -11,27v2h-1h1v-2l-6,13 6,27 108,58 20,35 34,10 -6,42 14,49 -204,-103v-33l-38,-27 -9,-36 51,-87M283,511l-31,-61 3,-25 19,-37 30,-23 17,-92M525,376l18,14 -111,50 47,178 -74,-40 -122,-67 17,-30 65,-76 67,35 81,18 85,161 -2,2 -2,8 2,4v11M888,2204l110,37 4,130 78,13 62,10M821,2025l-13,-7 -13,-5 -97,-38 14,-38 -13,-5 39,-85M998,2241h6M1085,2253l-5,131M398,2051l9,44h-16l-5,70 -134,-5 5,-115 1,-20 137,6M741,3126l105,2 -1,35 -6,101M346,1790h1h8l14,-1 29,-2h6l46,-3h15h14l1,8h2l10,53 14,70M264,1925l108,-3 134,-7 65,128 -77,3 -22,-1 -6,-37 -22,8 6,32 -52,3 -3,-20 -23,-109 -25,-128v-4M492,1845l21,-10 40,-20M643,1795l1,53 48,95 -14,27 -22,36 -85,42M129,1917h8h4l42,-5 33,-4 7,-1h7h2h2h1l3,-2h1h6l22,-3 -3,23 -6,100M257,2045l-43,-4M512,2437l-29,-3 15,-70 3,-65 46,-3v15h35l1,8 61,-1 -8,126M501,2299l-49,-3 18,-112h25M744,2174l-167,5 5,132M509,2570l-133,-5 3,-138 104,7M644,2318l65,-5 38,8M678,1970l20,5M747,2156l-101,-38 44,-128 -34,16M407,2095l20,91 43,-2M452,2296l-37,-2M381,2234h12l22,60 9,24 -33,68h-11l-63,-50v-43h13l51,-59 5,-69M380,2386l-1,41M249,2228l3,-68M317,2336l-73,5M1009,731l-17,30 -60,108 -112,-67 14,-28 -78,-27 22,-48 68,28 32,-40M1826,400l69,-115 -107,-78 12,-20 48,-77 6,-15M1788,207l-68,115 -26,-20 12,-114 94,-1M1696,506l50,-68 -1,-10 45,-55 25,18 37,102 4,25 43,133 -78,-57 -104,-73 -21,-15 -16,-11 -69,-49 -35,-26 55,-72 47,-58 16,12M1720,322l70,51M1721,1057l-100,-135 12,-7 19,-13 47,-62 25,12 39,-23M1930,672l-76,107 -105,-80 72,-105M1749,699l-36,-25 -71,-51 56,-75 19,-27M1678,290l-37,-27 14,-71 51,-4M729,559l10,-53 20,-55 22,-28 13,-3 29,-4 11,-1 19,-4 51,-8h2l31,13 -71,127 -43,-22 -40,-20 -2,-78M1699,840l-54,-71 11,-17 43,-56 14,-22M1655,192h-22l19,-93M1052,644l13,7 4,2h2l20,11 79,40 -6,12 -57,105 -115,-60M598,619l5,7 6,-2h2l6,2 1,-2 4,-6 2,-2 3,-3h1l44,-82 13,5 44,23 59,32 -26,48 38,19 -22,41M756,747l-16,30 -27,-8M1641,263l-20,-18 8,-35 4,-18M823,521l-35,70M937,416l17,14 165,84 -5,12 -56,107M932,579l5,-8 121,62 -6,11 -43,87 -35,-15 -10,18 -47,-23 -6,1 -33,-25 54,-108 -66,-36M1107,821l-5,8 -59,118 -3,3 -108,-81 -58,118 107,76 -24,47 -40,78 -28,-18 -80,-60 59,-73 -12,-19 18,-31 -68,-40 -47,-25 -41,-15 -34,-12M283,213l-18,4 -24,40 -21,81 -19,-2 -7,-36 5,-43 -30,-24M201,336l-34,49M156,455l38,15 61,-45M283,511v50l-148,18M283,561l-6,58 -21,10 -3,47 -39,45 -72,20M223,2833l137,5M307,845l-27,-23 -12,-30 -38,-1 -45,13M210,924l26,-14 40,2 13,20 1,17 65,25 13,5 27,10 28,36 -46,7 -9,-53M998,220h126l10,121 1,10 -134,2 -7,-133M1432,475l32,-45 43,-60 69,50M1611,446l-51,70 -23,33M431,1152l-4,46 13,97 50,-14 5,53 -20,5 21,134 -11,25 -40,3 -2,-23 -31,5 -15,-129 -37,-15 -3,-34 83,-10M470,1674h62l-23,50 23,10M479,1784h1l-11,-79M1103,100l21,120M1457,571l-19,-10 -41,-18 -114,-58 5,-14 54,-106 122,65M1397,543l-54,110 -2,5 -116,-59 5,-11 53,-103M1119,514l54,-103 115,60M1230,588l-116,-62M1194,341l16,-3 21,-45 48,-95 19,15 55,42 29,23 -41,73 -110,-58M1382,278l43,30 82,62M1342,365l-1,-14M1425,308l54,-73 152,113M1629,210l-149,2 14,-108M1170,704l55,-105M1305,727l-26,50 115,60 -61,118 -12,-8h-1l-99,-53 58,-117 -19,-11 -75,-39 -10,-5 -11,-6M954,430l47,-77M1134,341h32h28l-30,65 9,5M1479,235l-31,-22 32,-1M1166,341l44,-237M1294,104l16,30 6,43 -18,36M1316,177l33,-13 26,23 -27,23 5,45M599,940l33,-60M718,907l-34,72 34,18 -20,41 -2,4 -2,-2h-1h-8h-4l-4,-3 -9,-4 -28,50 -77,-23M176,1062l168,-27 19,130 -54,8 -2,2h-11l-19,3h-2h-1l-28,3h-7l-50,-5M640,1083l-34,70 16,9 -27,78M550,1228l45,12 -32,88 -13,-100 -8,-91 -50,-15 -10,-90M344,1035l33,-3M423,1025l7,-2M492,1122l-1,26 -44,7 -16,-3 -10,1 -58,12M492,932l107,8 -14,68 -22,52 -81,-28 -3,-15 -49,6 34,-84 28,-7 -9,-50M86,1529l151,-20 7,32 -3,96 -156,22M309,1173l20,135 4,30 -42,-10 -28,-7 -3,-23 -30,5 2,17 -137,18M120,1787l157,-20 4,30 12,103h-6h-3l-9,2h-1h-7M346,1790l-19,-55M412,1483l-88,11 -13,-36 -25,1 -34,-28 8,-27 40,-5 -9,-71M329,1308l28,-3M644,2717l6,-140M900,1436l93,38 38,17 126,61 -14,115 -120,-53 -30,-140M1381,1286l-23,-124 133,29M1394,837l14,-28M1464,822l41,163 -51,60 -7,-2 -72,-18 3,-22 -62,-14M1505,985l10,15M1223,1132l135,30 96,-117M711,3262l4,-134M334,857h-1l-13,45 -44,10 -46,-86 8,-19 -8,-16M376,872l-1,47 -11,26v9l-9,20M1000,1251l-6,17 42,32 15,-4 -11,-41 -40,-4 12,-36 42,10 63,18 -24,133 -14,-5 -67,-27 -41,-16 23,-60M889,1170l-46,125 -52,-37 -59,-42 47,-128 30,22M917,1188l22,22 39,13 23,-8h11M971,1328l-31,2 -97,-35M1054,1225l40,-77 110,58 -33,62 -30,-13 -7,-4 -11,-5 -6,-3M1043,947l115,61 -62,115 -115,-60 59,-113M1273,1070l-50,62 2,36 -21,38M1094,1148l2,-25M1001,1215l-4,-30 -32,-28 -8,-47M791,1258l-14,50 -37,66 -90,-35M940,1330l-40,106 -6,-2M752,1379l-12,-5M1102,829l9,5 46,25 62,33M698,1486l54,-107 142,55 -40,87 -12,25 -62,-25 -17,-9h-4l-61,-26 -34,-13 -57,-15 -8,1 -17,-134M281,1797h7l18,-2 38,-1h3M779,1088l-18,-23 -41,-23h-24M532,1674l35,-75 36,13 99,42M603,1612l5,-103 -1,-51M780,1521l-51,98M341,1631l-28,-54 -1,-45h15l-3,-38M445,1501l5,115M244,1541l68,-9M324,1694l17,-63 109,-15 13,-2 -4,60h11l-1,31 -58,9 -84,21 -3,-41 -67,3 -16,-60M263,1321l-10,15 -21,-16M485,1498l-1,9 124,2M253,1336l-12,45 -159,22M257,1697l20,70M622,1162l110,54 -82,123 -26,-16 -42,2 -19,3 -68,6M241,1381l11,50 -31,27 16,51M739,506l-76,-15 21,-141 166,-2 3,63M852,213l-86,10 -64,-3 -9,-133M513,458l150,33M517,285l168,32 -1,33M685,317l24,-87 -7,-2v-8M857,223l11,127 -18,-2M702,228l-79,-21 -82,-43 -12,-74M463,240l160,-33M845,3163l153,3M983,3271h-16M917,3059l90,5 4,7M1578,578l64,45M1656,752l-38,-15 3,-16 -71,-15M1377,1283l-22,3 -111,12h-7h-1l-65,-30M650,2717h-6l-117,-7 3,-120 1,-18 97,3 17,2h5h21l13,3h11l1,64 -29,-10 -6,83h-11l-3,56 95,35 70,25 -28,110 -146,-7 4,-86 5,-77M1568,1075l-53,-75 106,-78 -27,-73 10,-42 14,-70M1464,822l130,27M842,1546l47,16 -69,133M1023,1614l-134,-52M1236,1298l-26,131 -18,-6 -99,-47M1355,1474l-43,98 -9,22 -146,-42 35,-129M1210,1429l128,39M1381,1750l-58,-21 58,-128 70,25M1303,1594l-44,111M1312,1572l69,29M1323,1729l-52,-19M1079,1371l-48,120M1098,2835l-132,-5 5,-30M216,2965l136,10 8,-137M812,2833l27,-10M638,2936l-9,92M920,2510l65,4 -5,159h-6M1076,2986l-135,-6M992,2462l-7,52M790,2677l-28,-12 -9,-58 6,-107M885,2830v-15l-46,8 7,-131 75,-12 49,-5 4,-2 -3,127 -71,17 -15,13 -1,31 47,4 -10,46M953,2913l-12,67 -24,79h-29l-13,70 -29,-1M762,2665l-42,-15 -24,-6M702,3397l8,-130 1,-5 128,2M241,2419l138,8M499,2980l7,-135M506,2845l19,-5M525,2840l79,8M604,2848h7M611,2848l25,2M636,2850h5M641,2850h1"/>
  <g class="cities">
    <circle r="3" cx="29.7" cy="87.0"/>
    <text x="29.7" y="87.0">Burlington</text>
    <circle r="3" cx="53.7" cy="212.8"/>
    <text x="53.7" y="212.8">Rutland</text>
    <circle r="3" cx="103.2" cy="127.9"/>
    <text x="103.2" y="127.9">Barre</text>
  </g>
</svg>