<?xml version="1.0" encoding="utf-8"?>
<!DOCTYPE svg PUBLIC "-//W3C//DTD SVG 1.1//EN" "http://www.w3.org/Graphics/SVG/1.1/DTD/svg11.dtd">
<svg version="1.1" xmlns="http://www.w3.org/2000/svg" width="215" height="350" viewBox="0 0 215 350">
  <g class="counties" transform="scale(0.1)">
    <path data-fips-int="50001" data-name="Addison County" d="M563,1328l19,-3 9,76 8,58 21,-3 50,19 112,46 -16,31 -37,67 -19,37 -10,4 -49,104 -9,-4 -2,-56 -31,17 -49,24 -28,-12 -1,27 8,-4 14,58 -30,17 -31,15 -10,-54 -3,-8 -132,6 1,4 -67,3 13,102 -76,9 -89,9 13,-28 -7,-19 -20,-22 -4,-15 -11,-11 -1,-8 6,-15 11,-7 4,-11 -8,-8 -1,-9 8,-23 -9,-24 -13,-18 -13,-48 4,-17 -1,-28 -6,-23 7,-41 -6,-25 -13,-8 -14,-14 7,-27 3,-25 15,-34 4,-13 -4,-30 14,-18 8,-34 -2,-9 8,-11 -1,-13 30,-24 7,-22 13,-16 1,-6 12,-8 8,0 11,-29 44,6 72,-8 82,-13 56,-12 1,6 53,-7 -3,-27 21,6 24,1 9,84 10,77Z"/>
    <path data-fips-int="50003" data-name="Bennington County" d="M645,2578l51,3 0,63 -31,-9 -2,67 -3,14 -10,0 -7,134 -136,-9 -2,14 -4,107 -3,52 -1,44 -4,57 92,6 -2,75 -1,11 -5,118 -3,68 -146,-6 -32,0 -96,-4 -95,-4 -15,-81 8,-16 -3,-10 2,-20 7,1 2,-49 4,-117 7,-132 11,-226 6,-96 2,-78 19,2 76,4 72,6 52,0 65,4 -5,20 15,0 1,-19Z"/>
    <path data-fips-int="50005" data-name="Caledonia County" d="M1722,1057l-17,10 -8,1 -15,8 -13,-11 -19,-8 -10,2 -19,16 -18,-4 -12,3 -19,-1 -6,11 -24,12 -23,2 -1,27 -13,14 -7,2 -14,23 0,10 8,-2 -3,13 14,28 -6,27 2,6 -8,13 1,11 -5,6 -2,13 9,14 4,16 15,18 -63,-23 -73,-29 -83,7 -57,6 -66,-30 54,-99 -1,-38 23,-30 25,-30 32,-59 16,-22 -2,-5 9,-18 -5,-5 -1,-14 -55,-31 -25,-13 -52,-28 -87,-46 41,-74 21,-40 116,61 54,-102 8,-19 45,-87 13,-26 59,28 -27,-96 93,64 12,10 11,-11 13,-21 51,-71 58,41 48,35 -75,101 71,52 -14,21 -19,24 -35,48 55,74 -49,60 -31,20Z"/>
    <path data-fips-int="50007" data-name="Chittenden County" d="M596,644l14,3 7,8 28,41 49,65 20,7 -22,46 28,15 -36,67 34,12 -36,70 36,19 -22,45 -8,0 -23,-9 -58,121 16,8 -28,78 -26,72 -6,16 -5,-39 -10,-77 -9,-84 -24,-1 -21,-6 3,27 -53,7 -1,-6 -56,12 -82,13 -72,8 -44,-6 3,-14 -6,-20 -8,-33 1,-34 -11,-34 2,-22 19,-23 4,-20 16,-38 3,-15 -6,-23 0,-31 -5,-14 -2,-22 -13,-17 -2,-17 -7,-6 -3,-12 -8,-11 0,-7 -17,-13 -6,-9 37,-9 31,-11 21,-11 18,-21 5,-11 -3,-31 6,-18 12,-5 7,-7 1,-37 5,-19 0,-50 35,20 90,46 71,40Z"/>
    <path data-fips-int="50009" data-name="Essex County" d="M1722,1057l-101,-135 31,-20 49,-60 -55,-74 35,-48 19,-24 14,-21 -71,-52 75,-101 -48,-35 -58,-41 -36,-24 29,-40 12,-14 7,-13 9,-6 42,-54 3,-5 -47,-34 -9,-10 3,-18 25,-118 3,-11 94,-5 84,-1 58,-1 28,-2 85,0 91,-3 -8,3 -4,12 -6,1 -15,-9 -28,8 -5,7 -8,22 25,27 2,11 -4,9 4,35 7,9 15,14 -1,9 -15,16 -15,22 -7,16 -15,5 -3,12 -6,8 3,18 -10,18 -10,8 -4,6 6,13 -2,19 -7,11 -16,9 -1,4 -22,29 -11,5 -2,9 7,16 -1,12 30,46 0,14 6,18 9,2 -5,6 0,13 16,15 5,-3 9,12 -4,7 13,13 3,13 -7,-5 -2,12 3,12 -7,12 9,0 7,12 6,-4 3,14 -10,10 -8,-3 3,13 -12,9 -30,2 -6,12 25,26 -2,10 -10,13 -8,4 18,22 -17,5 -6,22 -19,3 -7,10 -9,4 -2,-9 -11,11 6,10 -18,12 -3,20 -5,8 -14,6 -5,14 -32,22 -22,0 -6,12 -7,1 -12,-7 -19,10 -15,-1 -10,10 1,14 -13,4 2,13 -4,5 2,20Z"/>
    <path data-fips-int="50011" data-name="Franklin County" d="M979,101l22,254 -47,75 -35,-29 -66,10 -73,12 -3,14 -4,0 -3,14 -10,0 -5,38 -12,0 -13,70 -58,-28 -37,71 -17,24 -14,0 -8,-6 -2,7 2,17 -117,-27 -71,-40 -90,-46 -35,-20 -7,-20 -20,-32 -3,-27 8,-22 16,-26 12,-11 16,-7 7,-18 -5,-16 4,-29 7,-10 5,-30 0,-18 -3,-6 -14,-2 -18,-12 -9,-26 -5,-8 2,-14 9,-9 27,-48 12,-30 148,-3 83,3 49,-1 66,-2 54,2 105,1 75,1 23,3Z"/>
    <path data-fips-int="50013" data-name="Grand Isle County" d="M283,511l0,50 -5,19 -1,37 -7,7 -12,5 -6,18 3,31 -5,11 -18,21 -21,11 -31,11 -37,9 -13,-16 -1,-11 -7,-11 6,-9 -6,-24 -7,-8 4,-28 8,-5 -5,-10 5,-13 9,-9 -1,-20 1,-12 10,-15 -5,-2 1,-65 11,-18 9,-29 14,-17 -2,-28 -19,-23 -14,-10 -12,-18 0,-25 12,-14 7,-37 8,-21 14,-11 2,-7 0,-40 2,-26 -10,-12 -7,-21 12,-34 73,-2 82,0 -12,30 -27,48 -9,9 -2,14 5,8 9,26 18,12 14,2 3,6 0,18 -5,30 -7,10 -4,29 5,16 -7,18 -16,7 -12,11 -16,26 -8,22 3,27 20,32Z"/>
    <path data-fips-int="50015" data-name="Lamoille County" d="M954,430l81,43 82,42 -64,129 106,54 12,6 -7,12 -21,40 -41,74 -29,54 -12,30 -17,32 -14,-4 -12,-11 -84,-62 -17,31 -43,86 -31,-18 -61,-35 -23,-12 -41,-13 -34,-12 36,-67 -28,-15 22,-46 -20,-7 -49,-65 -28,-41 -7,-8 -14,-3 -2,-17 2,-7 8,6 14,0 17,-24 37,-71 58,28 13,-70 12,0 5,-38 10,0 3,-14 4,0 3,-14 73,-12 66,-10Z"/>
    <path data-fips-int="50017" data-name="Orange County" d="M1513,1337l-4,7 2,21 8,8 -3,9 -17,7 -2,14 3,16 9,4 7,-10 7,6 -1,12 -13,6 13,9 -2,6 -10,-3 -10,5 5,9 -9,15 -12,2 7,12 -16,7 -2,8 5,9 -7,6 -1,10 -11,-4 -4,14 -10,2 2,14 -13,14 6,12 -1,25 6,-3 16,5 -10,7 0,10 -18,17 1,30 -7,14 -29,20 -8,18 -10,2 -4,12 6,13 -15,5 -5,14 4,12 0,19 -4,21 3,16 -13,31 -7,6 1,12 -4,6 -4,-2 -136,-54 -82,-26 -44,-15 -87,-37 -60,-25 -52,-20 -54,-21 -85,-29 4,-8 -6,-3 5,-9 -11,-5 5,-9 -6,-2 4,-10 -4,-2 37,-67 16,-31 60,24 7,-13 44,-98 8,3 15,-40 18,-44 7,-22 26,10 5,-14 63,25 58,25 22,-115 3,-18 53,24 66,30 57,-6 83,-7 73,29Z"/>
    <path data-fips-int="50019" data-name="Orleans County" d="M1653,99l-3,11 -25,118 -3,18 9,10 47,34 -3,5 -42,54 -9,6 -7,13 -12,14 -29,40 36,24 -51,71 -13,21 -11,11 -12,-10 -93,-64 27,96 -59,-28 -13,26 -45,87 -8,19 -54,102 -116,-61 7,-12 -12,-6 -106,-54 64,-129 -82,-42 -81,-43 47,-75 -22,-254 15,1 52,-2 39,0 58,3 26,0 58,5 19,-2 39,0 85,-3 68,1 165,-6Z"/>
    <path data-fips-int="50021" data-name="Rutland County" d="M645,2578l-114,-6 -1,19 -15,0 5,-20 -65,-4 -52,0 -72,-6 -76,-4 -19,-2 2,-68 1,-24 8,-184 -1,-27 6,-9 -9,-38 -9,-16 -23,-17 -16,-2 5,-8 -5,-3 4,-8 1,-15 -6,-10 -5,0 1,-22 -8,1 -14,-5 -22,2 -5,7 -5,-7 -14,4 -9,16 2,13 -10,9 -5,11 5,16 -14,14 -36,-27 7,-20 0,-13 7,-17 -10,-20 1,-12 10,-11 2,-11 11,-23 1,-20 8,-7 10,-22 19,-27 0,-24 8,-14 89,-9 76,-9 -13,-102 67,-3 -1,-4 132,-6 3,8 10,54 31,-15 30,-17 89,-45 1,27 37,15 7,-14 36,14 5,19 8,4 -4,10 6,4 -38,83 13,6 -15,38 20,7 77,31 28,11 -36,84 -25,54 -15,-6 -18,131 -2,10 22,4 -2,20 21,5 26,9 3,10 -14,58 -22,58 -2,40 -69,-38 0,11 -30,2 0,34 -13,1Z"/>
    <path data-fips-int="50023" data-name="Washington County" d="M1171,1268l-53,-24 -3,18 -22,115 -58,-25 -63,-25 -5,14 -26,-10 -7,22 -18,44 -15,40 -8,-3 -44,98 -7,13 -60,-24 -112,-46 -50,-19 -21,3 -8,-58 -9,-76 -19,3 6,-16 26,-72 28,-78 -16,-8 58,-121 23,9 8,0 22,-45 -36,-19 36,-70 41,13 23,12 61,35 31,18 43,-86 17,-31 84,62 12,11 14,4 17,-32 12,-30 29,-54 87,46 52,28 25,13 55,31 1,14 5,5 -9,18 2,5 -16,22 -32,59 -25,30 -23,30 1,38Z"/>
    <path data-fips-int="50025" data-name="Windham County" d="M1103,2677l-6,26 4,13 -3,10 -10,10 6,15 -10,18 0,23 -5,7 8,17 8,3 0,10 8,10 0,17 -9,9 9,26 -1,7 -22,29 -8,5 -4,12 8,12 -2,17 4,14 14,13 -1,12 -14,4 -6,13 4,10 -13,18 -10,-2 -12,8 -29,9 -12,10 7,23 -1,14 3,14 -7,12 0,18 -11,14 -12,8 -3,10 1,25 -2,7 8,16 2,27 6,24 4,8 29,33 -4,22 6,-2 6,-10 12,0 10,10 6,11 2,15 14,20 2,11 -63,-3 -128,-4 -140,-6 -52,-2 -89,-4 -31,0 3,-68 5,-118 1,-11 2,-75 -92,-6 4,-57 1,-44 3,-52 4,-107 2,-14 136,9 7,-134 10,0 3,-14 2,-67 31,9 137,47 17,-1 131,-17 75,2Z"/>
    <path data-fips-int="50027" data-name="Windsor County" d="M1342,1896l-15,13 -11,21 -35,22 -8,1 -24,36 -6,5 -4,12 1,40 -9,16 -6,24 -6,6 -10,26 6,22 -13,16 -12,8 -22,11 -8,11 -3,17 3,29 -14,22 -6,15 11,13 9,17 -1,19 -11,28 0,13 -4,22 -9,67 -10,11 -3,9 1,16 10,9 17,3 -20,35 0,8 15,22 -7,15 -7,33 -15,25 -13,8 -4,17 4,18 -47,-2 -75,-2 -131,17 -17,1 -137,-47 0,-63 -51,-3 2,-67 13,-1 0,-34 30,-2 0,-11 69,38 2,-40 22,-58 14,-58 -3,-10 -26,-9 -21,-5 2,-20 -22,-4 2,-10 18,-131 15,6 25,-54 36,-84 -28,-11 -77,-31 -20,-7 15,-38 -13,-6 38,-83 -6,-4 4,-10 -8,-4 -5,-19 -36,-14 -7,14 -37,-15 -1,-27 -89,45 -14,-58 -8,4 1,-27 28,12 49,-24 31,-17 2,56 9,4 49,-104 10,-4 19,-37 4,2 -4,10 6,2 -5,9 11,5 -5,9 6,3 -4,8 85,29 54,21 52,20 60,25 87,37 44,15 82,26 136,54Z"/>
  </g>
  <g class="cities">
    <circle r="1" cx="29.7" cy="87.0"/>
    <text x="29.7" y="87.0">Burlington</text>
    <circle r="1" cx="33.9" cy="88.4"/>
    <text x="33.9" y="88.4">South Burlington</text>
    <circle r="1" cx="53.7" cy="212.8"/>
    <text x="53.7" y="212.8">Rutland</text>
  </g>
</svg>