<?xml version="1.0" encoding="utf-8"?>
<!DOCTYPE svg PUBLIC "-//W3C//DTD SVG 1.1//EN" "http://www.w3.org/Graphics/SVG/1.1/DTD/svg11.dtd">
<svg version="1.1" xmlns="http://www.w3.org/2000/svg" width="215" height="350" viewBox="0 0 215 350">
  <defs>
    <pattern id="pattern-no-results" width="50" height="50" patternUnits="userSpaceOnUse">
      <rect width="50" height="50" fill="#ddd"/>
      <path d="M-5,5L5,-5M-5,55L55,-5M45,55L55,45" stroke-width="10" stroke="#666666"/>
    </pattern>
  </defs>
  <g class="counties" transform="scale(0.1)">
    <path data-fips-int="50001" data-name="Addison County" d="M563,1326l19,-1 18,134 20,-3 161,65 -53,96 -76,147 -12,-60 -78,40 -30,-10 21,80 -61,31 -12,-61 -198,15 11,99 -163,20 12,-30 -42,-66 20,-82 -34,-74 -2,-147 -29,-28 29,-95 23,-115 29,-23 53,-82 44,7 210,-33 55,-2 -4,-26 45,6Z"/>
    <path data-fips-int="50003" data-name="Bennington County" d="M645,2579l51,1 0,64 -31,-9 -15,82 -7,131 -136,-7 -14,275 93,3 -12,273 -370,-12 -14,-81 14,-47 5,-149 27,-548 160,10Z"/>
    <path data-fips-int="50005" data-name="Caledonia County" d="M1721,1057l-38,20 -26,-19 -84,15 -54,25 -37,72 20,40 -17,78 26,48 1,0 -1,0 -134,-51 -142,13 -64,-30 54,-100 -1,-36 50,-62 46,-80 4,-33 -4,-10 -217,-118 61,-115 116,63 119,-234 59,28 -27,-95 107,73 73,-104 106,76 -73,102 69,51 -67,95 54,73 -79,80Z"/>
    <path data-fips-int="50007" data-name="Chittenden County" d="M597,643l20,11 77,107 20,8 -22,45 28,15 -38,68 36,10 -36,72 36,18 -22,45 -31,-9 -58,120 15,9 -59,164 -24,-198 -45,-6 4,26 -55,2 -210,33 -44,-7 -21,-134 42,-108 -11,-102 -56,-91 95,-35 20,-78 20,-10 4,-107 197,107Z"/>
    <path data-fips-int="50009" data-name="Essex County" d="M1721,1057l-100,-135 79,-80 -54,-73 67,-95 -69,-51 73,-102 -106,-76 -34,-24 101,-131 -56,-45 31,-146 437,-12 -64,18 20,107 22,23 -61,85 -26,98 -51,55 33,66 12,60 40,44 -11,44 25,24 -62,41 26,27 -3,48 -80,63 -6,27 -56,50 -78,13Z"/>
    <path data-fips-int="50011" data-name="Franklin County" d="M979,100l22,255 -47,75 -35,-30 -140,23 -36,67 -15,69 -56,-28 -75,112 -118,-25 -197,-107 -30,-73 59,-93 10,-107 -47,-51 51,-97 551,0Z"/>
    <path data-fips-int="50013" data-name="Grand Isle County" d="M282,511l-4,107 -20,10 -20,78 -95,35 -29,-78 26,-115 2,-67 33,-90 -46,-51 27,-98 16,-14 -2,-138 155,0 -51,97 47,51 -10,107 -59,93Z"/>
    <path data-fips-int="50015" data-name="Lamoille County" d="M954,430l163,84 -64,129 118,61 -7,10 -61,115 -59,118 -110,-80 -61,118 -87,-50 -68,-28 -36,-10 38,-68 -28,-15 22,-45 -20,-8 -77,-107 -20,-11 75,-112 56,28 15,-69 36,-67 140,-23Z"/>
    <path data-fips-int="50017" data-name="Orange County" d="M1511,1336l1,0 -13,52 23,63 -48,48 -40,75 26,37 -25,64 -37,34 -37,65 4,66 -23,57 -138,-57 -88,-26 -293,-119 -85,-29 -10,-49 53,-96 62,23 50,-110 9,2 39,-105 31,-5 121,52 25,-135 53,25 64,30 142,-13Z"/>
    <path data-fips-int="50019" data-name="Orleans County" d="M1653,99l-31,146 56,45 -101,131 34,24 -73,104 -107,-73 27,95 -59,-28 -119,234 -116,-63 7,-10 -118,-61 64,-129 -163,-84 47,-75 -22,-255 242,5Z"/>
    <path data-fips-int="50021" data-name="Rutland County" d="M645,2579l-249,-14 -160,-10 10,-346 -51,-40 -4,-64 -67,1 -35,80 -34,-26 4,-72 25,-80 46,-90 163,-20 -11,-99 198,-15 12,61 61,-31 89,-45 1,26 80,15 15,37 -38,85 -2,43 125,50 -61,138 -15,-7 -20,140 67,38 -35,166 -70,-38 -42,48Z"/>
    <path data-fips-int="50023" data-name="Washington County" d="M1324,957l-4,33 -46,80 -50,62 1,36 -54,100 -53,-25 -25,135 -121,-52 -31,5 -39,105 -9,-2 -50,110 -62,-23 -161,-65 -20,3 -18,-134 -19,1 59,-164 -15,-9 58,-120 31,9 22,-45 -36,-18 36,-72 68,28 87,50 61,-118 110,80 59,-118 217,118Z"/>
    <path data-fips-int="50025" data-name="Windham County" d="M1104,2675l-25,125 26,43 -2,53 -35,47 24,56 -31,57 -64,32 11,50 -30,44 10,109 52,53 37,68 -503,-20 12,-273 -93,-3 14,-275 136,7 7,-131 15,-82 31,9 137,46 140,-17Z"/>
    <path data-fips-int="50027" data-name="Windsor County" d="M1342,1897l-69,56 -34,52 1,41 -39,110 -40,27 -21,85 20,31 -36,188 26,12 -21,38 16,23 -42,82 1,33 -131,-2 -140,17 -137,-46 0,-64 -51,-1 2,-69 42,-48 70,38 35,-166 -67,-38 20,-140 15,7 61,-138 -125,-50 2,-43 38,-85 -15,-37 -80,-15 -1,-26 -89,45 -21,-80 30,10 78,-40 12,60 76,-147 10,49 85,29 293,119 88,26Z"/>
  </g>
  <g class="cities">
    <circle r="3" cx="29.7" cy="87.1"/>
    <text x="29.7" y="87.1">Burlington</text>
    <circle r="3" cx="33.9" cy="88.4"/>
    <text x="33.9" y="88.4">South Burlington</text>
    <circle r="3" cx="53.7" cy="212.8"/>
    <text x="53.7" y="212.8">Rutland</text>
  </g>
</svg>