<?xml version="1.0" encoding="utf-8"?>
<!DOCTYPE svg PUBLIC "-//W3C//DTD SVG 1.1//EN" "http://www.w3.org/Graphics/SVG/1.1/DTD/svg11.dtd">
<svg version="1.1" xmlns="http://www.w3.org/2000/svg" width="613" height="1000" viewBox="0 0 613 1000">
  <path class="state" d="M36,548v-1l3,-5 -4,-11 -1,-1h-1l-1,-1 -5,-11 5,-8v-15l-8,-21 -2,-19 2,-19 -9,-9 7,-27 -1,-10 5,-8 4,-17h1l14,-19 4,-2 4,-9 -4,-32 -1,-14 5,-5 7,-20v-2l-4,-24 -4,-8 -7,-13v-1l-3,-2 -2,-2 -1,-1 -1,-1 -1,-2 -1,-1 -1,-5v-8l-1,-2 -1,-1 -1,-1v-1l3,-10 2,-9v-5l2,-27 4,-9 6,-9 -2,-10 -10,-11v-1l-1,-6 2,-5 4,-16 5,-5 1,-22 -4,-9 3,-10h213l18,2h33l8,2h115l5,-2h32l27,-2h99l-20,8 -1,2 1,3 1,2 1,2 2,2 2,1 1,2 -1,3v2l-2,4h1l1,1v1l1,2v1l4,3 2,3v3h-1l-4,6 -2,2 -1,2h-2l-6,7v1l-2,6h1l-3,8v1l-3,1v1l-1,2 1,2v7l-16,16v4l1,2v3l2,2v1l1,2 4,8 1,2v7l2,1 1,1h2l-1,2 1,3 -2,1 4,2v2h3v1l2,3 -2,1 5,3v4h-1v-1l-1,3 1,3 -2,3 2,1v3l2,-1v1h2v1l1,1 -5,3 1,3 -1,2 -1,1 -5,1 -8,4 5,4v10l-2,1 3,5 1,1 -2,1v1h-2l-3,5v1h-2v1l-1,-1 -3,2 -3,2h-1l-2,3 -9,14h-1l-1,3 -2,1 -1,3h-2l-7,4h-5v1l-1,2 -12,1h-4v1l-1,1 -1,1v1l1,3h-2l-3,1v3l1,2 -1,1v2l1,2 -1,1h-2v1h-3v1h-1l-1,1v1h-2v1h-2v1h-3l-1,1h-1l-5,-2 -8,-2 -2,1 -8,3h-9l-2,1v2l-1,1h-1l-1,1 -1,1h-1l-1,1 -2,1 -4,-1 -2,1v5l-3,5h-1v2h-2l-1,1 -3,6v2h2v5l1,3 1,1 1,1v1h1l-1,5v1l-2,6h-1v1l1,1 -1,4h-1v1l-1,1v2l2,2 1,1v2l1,3h1l1,2v1h1v2h2l-1,1v1h-1v7h1l1,1v1h1v1h-1v1h-2l-1,1 -1,1v2l-1,1v1h-1l1,1v1l1,2v2h2l3,3v1h-2l-1,1 4,3h-1l-5,1v4l-2,3v1l-2,-1 -1,1v1l2,2h-2l-1,2h-1l-1,1v1l1,3v1h-2v4l-3,-2h-1v3l1,3 -1,-2h-3v6h-1v1l-1,12 4,5v1l-2,2 -1,1 -3,4v2l1,5 -17,18 2,4h-1l-1,1h-2l-2,3v1l2,9 -1,2 -1,7 -1,4 -4,13v1l-8,9 -13,9 -9,12 -3,20 -6,13 2,7h-1l-15,15v12l-5,10 5,8v2l-1,5 -2,10 -6,37 7,3 -7,10 5,5 -6,21 -6,5v9l-4,17 -3,20 4,3 1,2 2,22 -9,11 2,14 4,5 -9,16 -13,3 -5,5 3,13 -8,14 -2,14 8,22 6,7v3l10,4 6,16 -18,-1h-17l-32,-2h-15l-61,-3h-1l-27,-1 -38,-1h-3l-24,-1 -10,-1h-4l-4,-23 3,-13h1v-1l2,-41 2,-40v-12l1,-9 1,-26 2,-30 2,-41v-18l1,-20v-34l1,-7v-3l-1,-1 1,-2v-1l2,-3v-3l-1,-1h-1v-1l-1,-1v-6l-1,-1v-1h-1l-1,-1h-1v-1h-1v-1l-3,-1v-2h-6l2,-1v-2l-1,-1 1,-1v-5l-2,-4v1h-1v-1l1,-1v-1l-1,-2v-2h-1l-2,1 -1,-1h-3v1h-1v-1h-2l-1,1 -1,-1h-1v1l-1,1 -1,-1v-1h-1l-1,1h-2l-2,1v3l-1,1h1v3l-2,2v1h-1v2h-1v2l1,1 -1,5h-2v2l-1,1h-1v-1l-6,-5 -1,-1v-12l1,-2 1,-2 -4,-8 6,-11 1,-2 1,-1v-5l9,-13 1,-3v-8l1,-1Z"/>
  <g class="subcounties">
    <path data-geo-id="5002517875" data-name="Dover" d="M167,865h12l38,1 -6,27 -8,1 -37,-3Z"/>
    <path data-geo-id="5002530925" data-name="Guilford" d="M239,933l36,2 -1,39h-2l-32,-2h-2Z"/>
    <path data-geo-id="5002528900" data-name="Grafton" d="M240,769l22,-4 15,-2 -1,37 -20,3 -4,5v-4l-13,2Z"/>
    <path data-geo-id="5002509475" data-name="Brookline" d="M249,854h8l5,-23 9,1 -3,20 -7,23 -8,-1 1,-5Z"/>
    <path data-geo-id="5000342850" data-name="Manchester" d="M105,772l38,1 -2,39 -39,-1Z"/>
    <path data-geo-id="5002531150" data-name="Halifax" d="M202,933h37l-1,39h-13l-25,-1Z"/>
    <path data-geo-id="5000339025" data-name="Landgrove" d="M185,737h13v18l-9,-3 -1,24h-5Z"/>
    <path data-geo-id="5002543375" data-name="Marlboro" d="M203,894l8,-1 29,1v9l-1,30h-37Z"/>
    <path data-geo-id="5000327962" data-name="Glastenbury" d="M100,850l41,1 -1,39 -42,-1Z"/>
    <path data-geo-id="5002536175" data-name="Jamaica" d="M183,814l1,-22 27,10 20,7 -8,31 -42,-1Z"/>
    <path data-geo-id="5000355000" data-name="Peru" d="M150,740v-5l29,1 4,1h2l-2,39 -34,-2Z"/>
    <path data-geo-id="5000358600" data-name="Readsboro" d="M137,931l1,-12 27,1v11l-2,38 -27,-1Z"/>
    <path data-geo-id="5000357025" data-name="Pownal" d="M56,929h1v-1l38,1h5l-2,38h-3l-24,-1 -10,-1h-4l-4,-23Z"/>
    <path data-geo-id="5000361000" data-name="Rupert" d="M67,729h4l35,4 -1,39 -40,-2Z"/>
    <path data-geo-id="5000363550" data-name="Shaftsbury" d="M61,847l39,3 -2,39 -39,-2Z"/>
    <path data-geo-id="5000575700" data-name="Walden" d="M365,221l32,17 -17,34 -4,-1 -28,-16Z"/>
    <path data-geo-id="5000583500" data-name="Wheelock" d="M382,188l31,15 10,-15 2,11 -7,36 -17,-3 -29,-25Z"/>
    <path data-geo-id="5000571575" data-name="Sutton" d="M408,136l30,21 12,7 -8,37 -17,-2 -2,-11 -7,-25Z"/>
    <path data-geo-id="5002155600" data-name="Pittsford" d="M105,548l39,-1 18,37 -22,1 -6,-1 -1,-11 -7,3 2,9 -15,1 -1,-6Z"/>
    <path data-geo-id="5002157250" data-name="Proctor" d="M140,585l-6,22 -4,-1 -2,-21 -2,-9 7,-3 1,11Z"/>
    <path data-geo-id="5002161300" data-name="Rutland" d="M140,585l22,-1v1l2,38 -24,1v-9l-6,-8ZM140,609l7,9 13,-3v-12l-19,-3Z"/>
    <path data-geo-id="5002180875" data-name="West Haven" d="M17,610v-4l1,-2 1,-2 -4,-8 6,-11 1,-2 38,2 -7,19v-2h-1l-2,1 -1,-1h-3v1h-1v-1h-2l-1,1 -1,-1h-1v1l-1,1 -1,-1v-1h-1l-1,1h-2l-2,1v3l-1,1h1v3l-2,2v1h-1v2h-1v2l1,1 -1,5h-2v2l-1,1h-1v-1l-6,-5 -1,-1Z"/>
    <path data-geo-id="5002147425" data-name="Mount Tabor" d="M145,696l36,2 7,1 -1,8 -3,10 -1,20 -4,-1 -29,-1v5l-5,-6h-1Z"/>
    <path data-geo-id="5002584700" data-name="Wilmington" d="M165,920l1,-29 37,3 -1,39 -37,-2Z"/>
    <path data-geo-id="5002573300" data-name="Townshend" d="M223,840l8,-31 8,-3 13,-2v14l13,1 -3,12 -5,23h-8l-28,-2Z"/>
    <path data-geo-id="5002565762" data-name="Somerset" d="M141,851l27,2 -1,12 -1,26 -26,-1Z"/>
    <path data-geo-id="5002583950" data-name="Whitingham" d="M165,931l37,2 -2,38 -36,-2h-1Z"/>
    <path data-geo-id="5002570750" data-name="Stratton" d="M141,851l3,-39h5l22,1h1l8,1h3l-2,25 -2,26h-12l1,-12 -27,-2Z"/>
    <path data-geo-id="5000369775" data-name="Stamford" d="M100,929l37,2 -1,37 -38,-1Z"/>
    <path data-geo-id="5000385675" data-name="Woodford" d="M98,889l42,1 -2,29 -1,12 -37,-2h-5Z"/>
    <path data-geo-id="5000371425" data-name="Sunderland" d="M100,850l2,-39 39,1h3l-3,39Z"/>
    <path data-geo-id="5000385075" data-name="Winhall" d="M143,773l6,1 34,2h1v16l-1,22h-3l-8,-1h-1l-22,-1h-8Z"/>
    <path data-geo-id="5000162575" data-name="Salisbury" d="M91,484l5,-18 32,-5h3l2,16v11l-18,2 -23,6Z"/>
    <path data-geo-id="5002311125" data-name="Cabot" d="M347,255h1l28,16 -2,1h3v4l-2,6 -12,23 -33,-17Z"/>
    <path data-geo-id="5000925975" data-name="Ferdinand" d="M483,144l15,-19 -1,-4 13,-15 8,5 11,36 13,38 -22,-16 -30,-20Z"/>
    <path data-geo-id="5001127700" data-name="Georgia" d="M122,125l13,51 -55,-30 5,-10 18,-20Z"/>
    <path data-geo-id="5002702725" data-name="Barnard" d="M246,531l5,2 33,14 -16,39 -32,-13 -7,-2Z"/>
    <path data-geo-id="5002712250" data-name="Cavendish" d="M246,673v-1l39,5 -3,26 -12,5 -8,9 -16,-1Z"/>
    <path data-geo-id="5002708275" data-name="Bridgewater" d="M217,618l17,-40 2,-5 32,13 3,1 -18,42 -3,-1Z"/>
    <path data-geo-id="5002713675" data-name="Chester" d="M238,769l1,-42 1,-11h6l16,1 19,1 -2,45h-2l-15,2 -22,4h-2Z"/>
    <path data-geo-id="5002705800" data-name="Bethel" d="M215,520l17,-36h1l37,14 2,1 -21,34 -5,-2Z"/>
    <path data-geo-id="5002576225" data-name="Wardsboro" d="M181,839l42,1 -2,12 -4,14 -38,-1Z"/>
    <path data-geo-id="5002756050" data-name="Plymouth" d="M212,620v-4l5,2 33,10 -4,44v1l-20,-7 -14,-3 -5,-7Z"/>
    <path data-geo-id="5002741275" data-name="Ludlow" d="M226,669v-3l20,7v43h-6l-1,11 -23,-13 1,-11 6,-17Z"/>
    <path data-geo-id="5002732425" data-name="Hartland" d="M286,640l16,-39 3,-1 41,10v2h-1l-12,8 -3,7 -4,18 -17,-1Z"/>
    <path data-geo-id="5002763775" data-name="Sharon" d="M286,548l20,-35 37,13 -26,34 -1,2 -5,-5Z"/>
    <path data-geo-id="5002760850" data-name="Royalton" d="M272,499l34,14 -20,35 -2,-1 -33,-14Z"/>
    <path data-geo-id="5002758375" data-name="Reading" d="M250,628l3,1 31,11 1,37 -39,-5Z"/>
    <path data-geo-id="5002756350" data-name="Pomfret" d="M268,586l16,-39 2,1 25,9 5,5 -15,34 -30,-9Z"/>
    <path data-geo-id="5000911800" data-name="Canaan" d="M529,26l1,-1h67l-20,8 -1,2 1,3 1,2 1,2 2,2 2,1 1,2 -1,3v2l-2,4h1l1,1v1l1,2v1l4,3 2,3v1l-5,1 -26,-19Z"/>
    <path data-geo-id="5000939700" data-name="Lemington" d="M540,80l19,-30 26,19 5,-1v2h-1l-4,6 -2,2 -1,2h-2l-6,7v1l-2,6h1l-3,8Z"/>
    <path data-geo-id="5000941425" data-name="Lunenburg" d="M503,237l26,-15 30,22h-1v1l-1,-1 -3,2 -3,2h-1l-2,3 -9,14h-1l-1,3 -2,1 -1,3h-2l-7,4h-5Z"/>
    <path data-geo-id="5000942475" data-name="Maidstone" d="M529,147l34,24 4,2v2h3v1l2,3 -2,1 5,3v4h-1v-1l-1,3 1,3 -2,3 2,1v3l2,-1v1h2v1l1,1 -5,3 1,3 -1,2h-1l-22,-17 -9,-7Z"/>
    <path data-geo-id="5000724175" data-name="Essex" d="M100,242l18,-33 37,9 -18,34 -13,-6 -6,4 -12,-1Z"/>
    <path data-geo-id="5000710300" data-name="Buels" d="M156,351l13,3 -9,25Z"/>
    <path data-geo-id="5000759275" data-name="Richmond" d="M140,265l30,4 -10,34 -23,-8 -2,-5 -13,2 9,-24Z"/>
    <path data-geo-id="5000773975" data-name="Underhill" d="M173,184l24,34 6,1 -6,13 7,5 -10,18 -15,-4 -24,-33Z"/>
    <path data-geo-id="5000780350" data-name="Westford" d="M135,176l9,2 25,5 4,1 -18,34 -37,-9Z"/>
    <path data-geo-id="5002548400" data-name="Newfane" d="M217,866l4,-14 28,2 5,15 -1,5 -4,20h-9l-29,-1Z"/>
    <path data-geo-id="5002560250" data-name="Rockingham" d="M276,800l1,-37h5l32,1 -5,19v21h2l1,2v3l-37,-1Z"/>
    <path data-geo-id="5002581400" data-name="Westminster" d="M268,852l3,-20 4,-24 37,1 1,19 -10,11 3,14Z"/>
    <path data-geo-id="5002584850" data-name="Windham" d="M225,767v-3l6,2 6,3h3l-1,37 -8,3 -20,-7 3,-18 5,-3Z"/>
    <path data-geo-id="5001159125" data-name="Richford" d="M257,25h3l18,2h1l5,36h-40l-2,-1 -7,-37h14Z"/>
    <path data-geo-id="5000910075" data-name="Brunswick" d="M521,114l29,21h1v1l1,2v3l2,2v1l1,2 4,8 1,2v7l2,1 1,1h2l-1,2 1,3 -2,1 -34,-24 -11,-36Z"/>
    <path data-geo-id="5002732275" data-name="Hartford" d="M316,562l1,-2 36,14 -3,18 -6,11 2,7 -41,-10 -4,-4Z"/>
    <path data-geo-id="5002702575" data-name="Baltimore" d="M282,703l-1,15 -19,-1 8,-9Z"/>
    <path data-geo-id="5002701300" data-name="Andover" d="M216,714l23,13 -1,42h-1l-6,-3 -6,-2 -8,-3 -3,-16Z"/>
    <path data-geo-id="5002752900" data-name="Norwich" d="M343,526l24,8 16,8 -9,9 -12,6 -9,17 -36,-14Z"/>
    <path data-geo-id="5002760100" data-name="Rochester" d="M150,495l8,3 24,-11 3,17 15,-32 7,-10 3,14 22,8 -17,36 -5,8 -2,-2v-3l-1,-3v-1l-12,-6h-12l-1,-7 -25,12Z"/>
    <path data-geo-id="5001171725" data-name="Swanton" d="M92,25h6l6,6 -3,9 -2,4v6l16,11 16,7 6,10 10,2 -2,13 4,15 -58,-30v-9l-7,-5 -4,-3 -3,-10Z"/>
    <path data-geo-id="5001161750" data-name="St. Albans" d="M72,121l5,-12 9,-6 5,-25 58,30 5,3 -32,14 -19,-9 -18,20 -5,10 -7,-13Z"/>
    <path data-geo-id="5001124925" data-name="Fairfax" d="M122,125l24,6 24,46 -1,3v3l-25,-5 -9,-2Z"/>
    <path data-geo-id="5001535050" data-name="Hyde Park" d="M265,165l3,-2 33,17 -1,3 -13,26 -10,-5 -3,5 -13,-7 -3,1 -8,-7Z"/>
    <path data-geo-id="5002777500" data-name="Weathersfield" d="M282,703l3,-26 22,4 19,3 -6,26 7,2 -4,10 -42,-4Z"/>
    <path data-geo-id="5002770375" data-name="Stockbridge" d="M210,528l5,-8 31,11 -17,40 7,2 -2,5 -8,-3 -28,-11 1,-13Z"/>
    <path data-geo-id="5002769550" data-name="Springfield" d="M281,718l42,4 2,7 -4,17 -8,8 1,10 -32,-1h-3Z"/>
    <path data-geo-id="5002782000" data-name="Weston" d="M187,707l10,-3 19,10 -2,31 3,16 -12,-3 -7,-3v-18h-15l1,-20Z"/>
    <path data-geo-id="5002783050" data-name="West Windsor" d="M284,640h2l23,4 -2,37 -22,-4Z"/>
    <path data-geo-id="5002785975" data-name="Woodstock" d="M271,587l30,9 4,4 -3,1 -16,39h-2l-31,-11Z"/>
    <path data-geo-id="5002784925" data-name="Windsor" d="M309,644l17,1 4,12v2l-1,5 -2,10 -1,10 -19,-3Z"/>
    <path data-geo-id="5002111950" data-name="Castleton" d="M71,617l2,-33v-6l39,2 1,6 3,12h-6l-1,20Z"/>
    <path data-geo-id="5002107750" data-name="Brandon" d="M98,511h3l4,-1h10l16,-1h5l1,2 3,16 4,20 -39,1 -7,-36Z"/>
    <path data-geo-id="5002344500" data-name="Middlesex" d="M230,316l6,-4 11,-16 2,-15 30,22 -7,13 -11,23 -8,-5Z"/>
    <path data-geo-id="5002114350" data-name="Chittenden" d="M140,527l10,-5 7,-4 25,-12 1,7 1,17 13,24 -4,9 -6,10 -25,12v-1l-18,-37Z"/>
    <path data-geo-id="5002105200" data-name="Benson" d="M23,577v-2l9,-13 1,-3v-8l1,-1 2,-2h2l14,-3h14l1,-1 8,-1v6l-2,29v6l-13,-1 -38,-2 1,-1Z"/>
    <path data-geo-id="5002144800" data-name="Middletown Springs" d="M108,637h3l6,18 3,7 -9,20h-3l-19,-15 5,-12Z"/>
    <path data-geo-id="5002175925" data-name="Wallingford" d="M143,657l12,-1 10,4 18,2 -2,36 -36,-2 -8,-1Z"/>
    <path data-geo-id="5002114500" data-name="Clarendon" d="M129,656l5,-32h6l24,-1 1,37 -10,-4 -12,1Z"/>
    <path data-geo-id="5002116825" data-name="Danby" d="M107,693l30,2 8,1 -1,38 -38,-1Z"/>
    <path data-geo-id="5002134450" data-name="Hubbardton" d="M75,549l30,-1 7,32 -39,-2Z"/>
    <path data-geo-id="5002147200" data-name="Mount Holly" d="M183,662l29,1 14,3v3l-3,17 -6,17 -1,11 -19,-10 -10,3 1,-8 -7,-1Z"/>
    <path data-geo-id="5002137685" data-name="Killington" d="M187,573l6,-10 5,1 28,11 8,3 -17,40 -5,-2 -29,-11 13,-37Z"/>
    <path data-geo-id="5002135425" data-name="Ira" d="M109,618l1,-20h6l5,27 13,-1 -5,32 -12,-1 -6,-18h-3Z"/>
    <path data-geo-id="5002144125" data-name="Mendon" d="M162,585l25,-12 9,-5 -13,37 29,11v4l-48,3Z"/>
    <path data-geo-id="5002154250" data-name="Pawlet" d="M67,726v-15l1,-20 39,2 -1,40 -35,-4h-4v-3Z"/>
    <path data-geo-id="5002165275" data-name="Shrewsbury" d="M164,623l48,-3 -5,36 5,7 -29,-1 -18,-2Z"/>
    <path data-geo-id="5002161225" data-name="Rutland" d="M140,609l1,-9 19,3v12l-13,3Z"/>
    <path data-geo-id="5002156875" data-name="Poultney" d="M68,657l1,-7v-3l-1,-1 1,-2v-1l2,-3v-3l-1,-1 1,-19 38,1 -1,19 -14,18 -5,12 -21,1v-3Z"/>
    <path data-geo-id="5002155450" data-name="Pittsfield" d="M183,513h12l12,6v1l1,3v3l2,2 -11,23 -1,13 -5,-1 4,-9 -13,-24Z"/>
    <path data-geo-id="5001546675" data-name="Morristown" d="M221,199l19,8 10,-11 8,7 3,-1 13,7 3,-5 10,5 -5,9 -16,30 -33,-19 5,-9 -23,-7Z"/>
    <path data-geo-id="5000902125" data-name="Averill" d="M510,59l3,-7 16,-26 30,24 -19,30Z"/>
    <path data-geo-id="5000902162" data-name="Avery's" d="M486,54l27,-2 -3,7 -20,33 -7,-6Z"/>
    <path data-geo-id="5000908725" data-name="Brighton" d="M449,120l16,-21 13,-16 5,3 7,6 20,14 -13,15 1,4 -15,19 -23,-17Z"/>
    <path data-geo-id="5000906325" data-name="Bloomfield" d="M521,114l19,-34 30,22v1l-3,1v1l-1,2 1,2v7l-16,16 -1,3Z"/>
    <path data-geo-id="5000915250" data-name="Concord" d="M485,240l7,3 11,-6 17,39v1l-1,2 -12,1h-4v1l-1,1 -1,1v1l1,3h-2l-3,1v3l1,2 -1,1v2l1,2 -1,1h-2v1h-3v1h-1v1l-29,-40 10,-5Z"/>
    <path data-geo-id="5000929125" data-name="Granby" d="M520,169l22,16 9,7 -22,30 -30,-23Z"/>
    <path data-geo-id="5000921250" data-name="East Haven" d="M490,149l30,20 -21,30 -10,-6 -21,-15Z"/>
    <path data-geo-id="5000976562" data-name="Warren's" d="M472,54h14l-3,32 -5,-3 -10,-8Z"/>
    <path data-geo-id="5001504375" data-name="Belvidere" d="M222,121l4,-1 12,-2 5,-1 15,-3 9,5 -21,35 -12,-5 -10,-6Z"/>
    <path data-geo-id="5000975175" data-name="Victory" d="M472,215l17,-22 10,6 30,23 -26,15 -11,6 -7,-3 -16,-21Z"/>
    <path data-geo-id="5000939775" data-name="Lewis" d="M490,92l20,-33 30,21 -19,34 -3,-3 -8,-5Z"/>
    <path data-geo-id="5000952750" data-name="Norton" d="M471,27l27,-2h32l-1,1 -16,26 -27,2h-14l-7,1Z"/>
    <path data-geo-id="5001585375" data-name="Wolcott" d="M282,218l5,-9 13,-26 3,2 30,16 -2,3 -16,31Z"/>
    <path data-geo-id="5001511500" data-name="Cambridge" d="M170,177l7,-1 14,-24 16,8 17,8 -7,14 11,6 -7,11 -6,14 -5,9 -7,-3 -6,-1 -24,-34 -4,-1v-3Z"/>
    <path data-geo-id="5000930775" data-name="Guildhall" d="M551,192l22,17v1l-5,1 -8,4 5,4v10l-2,1 3,5 1,1 -2,1v1h-2l-3,5v1h-1l-30,-22Z"/>
    <path data-geo-id="5000976337" data-name="Warner's" d="M464,60l1,-5 7,-1 -4,21 -5,-5Z"/>
    <path data-geo-id="5001577425" data-name="Waterville" d="M210,144l12,-23 2,22 10,6 -10,19 -17,-8Z"/>
    <path data-geo-id="5001523500" data-name="Eden" d="M246,154l21,-35 4,3 48,25 -2,3 -16,30 -33,-17 -3,2Z"/>
    <path data-geo-id="5001537075" data-name="Johnson" d="M224,168l10,-19 12,5 19,11 -15,31 -10,11 -19,-8 7,-11 -11,-6Z"/>
    <path data-geo-id="5001523725" data-name="Elmore" d="M266,248l16,-30 33,17 -1,2 -17,33 -1,1Z"/>
    <path data-geo-id="5001570525" data-name="Stowe" d="M203,219l7,3 5,-9 23,7 -5,9 33,19 -17,33 -28,-16 -17,-7 -10,-3 10,-18 -7,-5Z"/>
    <path data-geo-id="5001300860" data-name="Alburgh" d="M77,25h15l-15,26 3,10 -7,2 -6,11 -5,22h-5l-1,-24 -9,-6 1,-22 -4,-9 3,-10h21Z"/>
    <path data-geo-id="5001335875" data-name="Isle La Motte" d="M36,92l2,-5 4,-16 5,-5 9,6 1,24 -10,14 -10,-11v-1Z"/>
    <path data-geo-id="5001329275" data-name="Grand Isle" d="M43,129l12,5 17,-13 1,12 7,13v14l-43,5 2,-27 4,-9Z"/>
    <path data-geo-id="5001367000" data-name="South Hero" d="M35,179l2,-9v-5l43,-5 -4,18 -4,2v14l-6,8 -26,10 -1,-1 -1,-1 -1,-2 -1,-1 -1,-5v-8l-1,-2 -1,-1 -1,-1v-1l3,-10Z"/>
    <path data-geo-id="5001350650" data-name="North Hero" d="M47,110l10,-14h5l5,-22 6,-11 7,-2 4,3 7,5v9l-5,25 -9,6 -5,12 -17,13 -12,-5 6,-9Z"/>
    <path data-geo-id="5000301450" data-name="Arlington" d="M62,826l1,-17 39,2 -2,39 -39,-3v-12Z"/>
    <path data-geo-id="5000362875" data-name="Sandgate" d="M65,770l40,2 -3,39 -39,-2v-9Z"/>
    <path data-geo-id="5000714875" data-name="Colchester" d="M40,212l26,-10 6,-8 6,-3 13,4 27,14 -18,33 -4,1 -6,-7 -4,5 -9,-12 -12,-3 -13,4 -7,-13v-1l-3,-2Z"/>
    <path data-geo-id="5000762050" data-name="St. George" d="M105,279l6,2 9,12 -13,2Z"/>
    <path data-geo-id="5001980200" data-name="Westfield" d="M283,63h37l3,35v3h-38Z"/>
    <path data-geo-id="5001981700" data-name="Westmore" d="M418,122l12,-17 19,15 11,7 -22,30 -30,-21Z"/>
    <path data-geo-id="5000109025" data-name="Bristol" d="M124,370l15,-4 1,15 -6,1 6,34 -2,12 -12,1v-7l-9,1 -5,-38 -10,-1 -1,-11Z"/>
    <path data-geo-id="5000128600" data-name="Goshen" d="M133,488v-11h18l-6,13 5,5 7,23 -7,4 -10,5 -3,-16 -1,-2Z"/>
    <path data-geo-id="5001936325" data-name="Jay" d="M311,27h3l6,36h-36l-5,-36h21Z"/>
    <path data-geo-id="5001903550" data-name="Barton" d="M367,134l16,-30 35,18 -10,14 8,27 -18,-9 -32,-16Z"/>
    <path data-geo-id="5001928075" data-name="Glover" d="M351,167l15,-29 32,16 -16,34 -33,-17Z"/>
    <path data-geo-id="5001900475" data-name="Albany" d="M319,147l15,-30 33,17 -1,4 -15,29 -34,-17Z"/>
    <path data-geo-id="5001916150" data-name="Coventry" d="M370,61l16,11 8,7 -12,22 -31,-18 13,-26Z"/>
    <path data-geo-id="5001909850" data-name="Brownington" d="M382,101l12,-22 12,9 24,17 -12,17 -35,-18Z"/>
    <path data-geo-id="5001913150" data-name="Charleston" d="M406,88l16,-21 43,32 -16,21 -19,-15Z"/>
    <path data-geo-id="5001933775" data-name="Holland" d="M426,29h8l5,-2h32l-6,28 -1,5 -42,1Z"/>
    <path data-geo-id="5001930175" data-name="Greensboro" d="M333,201l16,-30 33,17 -10,19 -7,14 -34,-17Z"/>
    <path data-geo-id="5001916300" data-name="Craftsbury" d="M300,183l1,-3 16,-30 34,17 -2,4 -16,30 -30,-16Z"/>
    <path data-geo-id="5001940525" data-name="Lowell" d="M271,122l14,-21h38v-3h10h-1h9l-10,18 3,1 -15,30Z"/>
    <path data-geo-id="5001935575" data-name="Irasburg" d="M341,98l10,-15 31,18 1,3 -16,30 -33,-17 -3,-1Z"/>
    <path data-geo-id="5001946450" data-name="Morgan" d="M422,61l42,-1 -1,10 5,5 10,8 -13,16 -43,-32 -9,-6Z"/>
    <path data-geo-id="5001948925" data-name="Newport" d="M333,98l12,-69h24l6,22 -5,10 -6,-4 -13,26 -10,15h-9Z"/>
    <path data-geo-id="5001973525" data-name="Troy" d="M314,27l5,2h26l-12,69h-10l-3,-35Z"/>
    <path data-geo-id="5001948850" data-name="Newport" d="M375,51l10,-4 4,13 -6,3 3,9 -16,-11Z"/>
    <path data-geo-id="5000706550" data-name="Bolton" d="M160,303l10,-34 9,-18 15,4 10,3 -10,21 10,5 -6,13h-1v-1h-7l-1,-1 -7,15Z"/>
    <path data-geo-id="5000713300" data-name="Charlotte" d="M49,303l48,-7 6,37 -15,2h-4l-5,1h-2l-24,-1Z"/>
    <path data-geo-id="5000734600" data-name="Huntington" d="M137,295l23,8 22,7 -10,20 5,2 -8,22 -13,-3 -2,-27 -14,-4Z"/>
    <path data-geo-id="5000733475" data-name="Hinesburg" d="M97,296l10,-1 13,-2 2,-1 13,-2 2,5 3,25 1,8 -14,2 -3,-2 -2,1 -3,1 -7,1 -9,2Z"/>
    <path data-geo-id="5000736700" data-name="Jericho" d="M137,252l18,-34 24,33 -9,18 -30,-4Z"/>
    <path data-geo-id="5000108575" data-name="Bridport" d="M24,436l43,-4 1,8v28l-44,6 -2,-19Z"/>
    <path data-geo-id="5000126300" data-name="Ferrisburgh" d="M31,365l14,-19 4,-2 4,-9 24,1h2l5,-1h4l5,38 1,9 -12,-3 -8,-3 -1,-5 -8,5 -39,6 4,-17Z"/>
    <path data-geo-id="5000153725" data-name="Orwell" d="M32,510l46,-5 1,8 4,30h-8l-8,1 -1,1h-14l-14,3h-2v-1l3,-5 -4,-11 -1,-1h-1l-1,-1 -5,-11Z"/>
    <path data-geo-id="5000139325" data-name="Leicester" d="M92,496l23,-6 18,-2 3,21h-5l-16,1h-10l-4,1h-3Z"/>
    <path data-geo-id="5000148700" data-name="New Haven" d="M82,379l12,3 -1,-9h8l1,11 10,1 5,38 -26,4v-9l-11,-2 -9,-7 3,-8 11,-1Z"/>
    <path data-geo-id="5001748175" data-name="Newbury" d="M393,367h1l23,9 13,5 1,1v1h-1v7h1l1,1v1h1v1h-1v1h-2l-1,1 -1,1v2l-1,1v1h-1l1,1v1l1,2v2h2l3,3v1h-2l-1,1 4,3h-1l-5,1v4l-2,3v1l-2,-1 -1,1v1l2,2h-2l-1,2h-1l-1,1v1l1,3v1h-1l-34,-13 -5,-2Z"/>
    <path data-geo-id="5001713525" data-name="Chelsea" d="M283,421l10,5 37,17 -4,33 -35,-15Z"/>
    <path data-geo-id="5000561525" data-name="Ryegate" d="M387,332l38,8 1,3 1,1 1,1v1h1l-1,5v1l-2,6h-1v1l1,1 -1,4h-1v1l-1,1v2l2,2 1,1v2l1,3h1l1,2v1h1v2l-13,-5 -23,-9Z"/>
    <path data-geo-id="5000577125" data-name="Waterford" d="M432,284l30,-22 29,40h-1v1h-2v1h-2v1h-3l-1,1h-1l-5,-2 -8,-2 -2,1 -8,3h-9l-2,1Z"/>
    <path data-geo-id="5000517125" data-name="Danville" d="M376,271l4,1 17,-34 4,-6 17,3 11,46 -14,17 -3,-1 -20,-4 1,-6 -18,-5 2,-6v-4h-3Z"/>
    <path data-geo-id="5000502875" data-name="Barnet" d="M415,298l14,-17 3,3 15,23v2l-1,1h-1l-1,1 -1,1h-1l-1,1 -2,1 -4,-1 -2,1v5l-3,5h-1v2h-2l-1,1 -3,6v2h2v5l-38,-8Z"/>
    <path data-geo-id="5000710675" data-name="Burlington" d="M65,226l12,3 9,12 5,2 3,2 -4,12 -13,3 -11,-21Z"/>
    <path data-geo-id="5000764300" data-name="Shelburne" d="M60,262l7,-4 14,4v3l1,6 19,6 4,2 2,16 -10,1 -48,7 -1,-14 5,-5 7,-20Z"/>
    <path data-geo-id="5000766175" data-name="South Burlington" d="M52,230l13,-4 1,13 11,21 13,-3 4,-12 2,-2 4,-1 6,7 -3,20v3l-2,5 -19,-6 -1,-6v-3l-14,-4 -7,4 -4,-24Z"/>
    <path data-geo-id="5000784475" data-name="Williston" d="M101,277l2,-5v-3l3,-20 12,1 6,-4 13,6 3,13 -9,3 -9,24 -2,1 -9,-12 -6,-2Z"/>
    <path data-geo-id="5002303250" data-name="Barre" d="M283,362l9,10 7,-2 -6,-13h-8l3,-10 12,3 18,5 -7,38 -4,-1 -31,-13Z"/>
    <path data-geo-id="5002346225" data-name="Moretown" d="M222,311l8,5 23,18 -13,36 -15,-11 -17,-12Z"/>
    <path data-geo-id="5002305650" data-name="Berlin" d="M240,370l13,-36 8,5 7,7 17,1h3l-3,10 -2,5 -7,17 -8,1Z"/>
    <path data-geo-id="5002355825" data-name="Plainfield" d="M312,328l31,16 -9,18 -16,-7 -18,-5Z"/>
    <path data-geo-id="5002311350" data-name="Calais" d="M279,303l17,-32 1,-1 33,18 -18,32Z"/>
    <path data-geo-id="5002325825" data-name="Fayston" d="M169,354l8,-22 31,15 -24,35 -7,-6 -12,2 -5,1Z"/>
    <path data-geo-id="5002343600" data-name="Marshfield" d="M312,320l18,-32 33,17 -15,18 1,11 -6,10 -31,-16Z"/>
    <path data-geo-id="5002303175" data-name="Barre" d="M285,357h8l6,13 -7,2 -9,-10Z"/>
    <path data-geo-id="5002321925" data-name="East Montpelier" d="M279,303l33,17v8l-12,22 -12,-3h-3l2,-4 -10,-8 -5,-19Z"/>
    <path data-geo-id="5002360625" data-name="Roxbury" d="M198,425l16,-31 40,16 -15,31 -13,-5 -4,-2Z"/>
    <path data-geo-id="5002375325" data-name="Waitsfield" d="M184,382l24,-35 17,12v6l-15,28Z"/>
    <path data-geo-id="5002350275" data-name="Northfield" d="M210,393l15,-28v-6l15,11 28,10 -12,30h-2l-40,-16Z"/>
    <path data-geo-id="5002346000" data-name="Montpelier" d="M272,316l5,19 10,8 -2,4 -17,-1 -7,-7Z"/>
    <path data-geo-id="5001917350" data-name="Derby" d="M390,29h36l-4,32h-9l9,6 -16,21 -12,-9 -8,-7 -3,-9 6,-3 -4,-13 -10,4 -6,-22h18Z"/>
    <path data-geo-id="5002386125" data-name="Worcester" d="M266,248l30,23 -17,32 -30,-22Z"/>
    <path data-geo-id="5002385525" data-name="Woodbury" d="M297,270l17,-33 33,18 -17,33Z"/>
    <path data-geo-id="5002376525" data-name="Warren" d="M165,378l12,-2 7,6 26,11 4,1 -16,31 -22,-10 -4,1h-2Z"/>
    <path data-geo-id="5002125375" data-name="Fair Haven" d="M53,602l7,-19 13,1 -2,33 -1,19h-1v-1l-1,-1v-6l-1,-1v-1h-1l-1,-1h-1v-1h-1v-1l-3,-1v-2h-6l2,-1v-2l-1,-1 1,-1v-5l-2,-4v1h-1v-1l1,-1v-1Z"/>
    <path data-geo-id="5002177950" data-name="Wells" d="M68,668l21,-1 19,15 -1,11 -39,-2v-20Z"/>
    <path data-geo-id="5002172925" data-name="Tinmouth" d="M107,693l1,-11h3l9,-20 -3,-7 12,1 14,1 -6,38Z"/>
    <path data-geo-id="5002182300" data-name="West Rutland" d="M128,585l2,21 4,1 6,8v9h-6l-13,1 -5,-27 -3,-12Z"/>
    <path data-geo-id="5002171050" data-name="Sudbury" d="M75,543h8l-4,-30h4l6,-1h9l7,36 -30,1Z"/>
    <path data-geo-id="5002376975" data-name="Waterbury" d="M204,258l17,7 28,16 -2,15 -11,16 -6,4 -8,-5 -9,-10 -15,-4 6,-13 -10,-5Z"/>
    <path data-geo-id="5000131525" data-name="Hancock" d="M151,477l10,-21 10,5 29,11 -15,32 -3,-17 -24,11 -8,-3 -5,-5Z"/>
    <path data-geo-id="5000145550" data-name="Monkton" d="M88,335l15,-2 9,-2 7,-1 3,-1 -1,13 3,28 -23,3h-8Z"/>
    <path data-geo-id="5000129575" data-name="Granville" d="M173,432l-1,-16 4,-1 22,10 24,9 -15,28 -7,10 -29,-11Z"/>
    <path data-geo-id="5000144350" data-name="Middlebury" d="M88,438l3,-11 26,-4 9,-1v7l2,32 -32,5 -8,-15Z"/>
    <path data-geo-id="5000116000" data-name="Cornwall" d="M68,440l20,-2v13l8,15 -5,18 -18,1 -5,-17Z"/>
    <path data-geo-id="5002318550" data-name="Duxbury" d="M182,310l7,-15 1,1h7v1h1l15,4 9,10 -14,36 -31,-15 -5,-2Z"/>
    <path data-geo-id="5000159650" data-name="Ripton" d="M126,429l12,-1 -1,3 36,1 -2,29 -10,-5 -10,21h-18l-2,-16h-3Z"/>
    <path data-geo-id="5000153950" data-name="Panton" d="M26,382l39,-6 6,5 -3,13 -46,6 -1,-10Z"/>
    <path data-geo-id="5000165050" data-name="Shoreham" d="M24,474l44,-6 5,17 5,20 -46,5v-15Z"/>
    <path data-geo-id="5000170075" data-name="Starksboro" d="M122,329l2,-1 3,2 14,-2 -1,-8 14,4 2,27 4,28 -20,2 -1,-15 -15,4 -3,-28Z"/>
    <path data-geo-id="5000100325" data-name="Addison" d="M22,400l46,-6 3,15 -9,7 5,16 -43,4 -9,-9Z"/>
    <path data-geo-id="5000183275" data-name="Weybridge" d="M71,409l9,7 11,2v9l-3,11 -20,2 -1,-8 -5,-16Z"/>
    <path data-geo-id="5000176075" data-name="Waltham" d="M71,381l3,-5 8,3 3,21 -11,1 -3,8 -3,-15Z"/>
    <path data-geo-id="5000745250" data-name="Milton" d="M76,178l4,-18v-14l55,30 -17,33 -27,-14 -13,-4 -6,3v-14Z"/>
    <path data-geo-id="5000183800" data-name="Whiting" d="M73,485l18,-1 1,12 6,15v1h-9l-6,1h-4l-1,-8Z"/>
    <path data-geo-id="5000140075" data-name="Lincoln" d="M140,381l20,-2 5,-1 5,38h2l1,16 -36,-1 1,-3 2,-12 -6,-34Z"/>
    <path data-geo-id="5001102500" data-name="Bakersfield" d="M194,100h48l1,17 -5,1 -12,2 -4,1 -12,23 -21,-3Z"/>
    <path data-geo-id="5000569925" data-name="Stannard" d="M365,221l7,-14 29,25 -4,6Z"/>
    <path data-geo-id="5001105425" data-name="Berkshire" d="M197,25h38l7,37 -21,1h-21Z"/>
    <path data-geo-id="5001126500" data-name="Fletcher" d="M146,131l43,10 21,3 -3,16 -16,-8 -14,24 -7,1Z"/>
    <path data-geo-id="5001125225" data-name="Fairfield" d="M122,125l32,-14 -5,-3 -4,-15 2,-13 33,8 15,2 -1,10 -5,41 -43,-10Z"/>
    <path data-geo-id="5001124050" data-name="Enosburgh" d="M195,90l5,-26v-1h21l21,-1 2,1 3,37h-53Z"/>
    <path data-geo-id="5001127100" data-name="Franklin" d="M154,25h43l3,38v1l-23,-5 -23,-13 -5,-21h5Z"/>
    <path data-geo-id="5001164600" data-name="Sheldon" d="M177,59l23,5 -5,26 -15,-2 -33,-8 -10,-2 -6,-10Z"/>
    <path data-geo-id="5001145850" data-name="Montgomery" d="M242,100h5l-3,-37h39l2,38 -14,21 -4,-3 -9,-5 -15,3Z"/>
    <path data-geo-id="5002507900" data-name="Brattleboro" d="M240,903l44,1 -5,4 -2,13 3,14h-5l-36,-2Z"/>
    <path data-geo-id="5002518325" data-name="Dummerston" d="M240,894h9l4,-20 8,1 27,3 -4,26 -44,-1Z"/>
    <path data-geo-id="5002540225" data-name="Londonderry" d="M184,776h4l1,-24 9,3 7,3 12,3 8,3v3l-6,14 -5,3 -3,18 -27,-10Z"/>
    <path data-geo-id="5002557700" data-name="Putney" d="M268,852l38,1 5,5 -9,15 -14,5 -27,-3Z"/>
    <path data-geo-id="5002574800" data-name="Vernon" d="M275,935h5l5,10 6,7v3h6l10,20 -18,-1h-15Z"/>
    <path data-geo-id="5000363175" data-name="Searsburg" d="M140,890l26,1 -1,29 -27,-1Z"/>
    <path data-geo-id="5001133025" data-name="Highgate" d="M130,25h19l5,21 23,13 -46,9 -16,-7 -16,-11v-6l2,-4 3,-9 -6,-6h25Z"/>
    <path data-geo-id="5000510450" data-name="Burke" d="M450,164l18,14 21,15 -17,22 -11,-5 2,-6 -21,-3Z"/>
    <path data-geo-id="5000530550" data-name="Groton" d="M343,344l6,-10 -1,-11 39,9 7,35h-1l-38,4h-3l-18,-9Z"/>
    <path data-geo-id="5000531825" data-name="Hardwick" d="M315,235l16,-31 34,17 -17,34h-1l-33,-18Z"/>
    <path data-geo-id="5002501900" data-name="Athens" d="M252,808l4,-5 20,-3 -1,8 -4,24 -9,-1 3,-12 -13,-1Z"/>
    <path data-geo-id="5000317725" data-name="Dorset" d="M106,733l38,1h1l5,6 -1,34 -6,-1 -38,-1Z"/>
    <path data-geo-id="5000304825" data-name="Bennington" d="M59,887l39,2 -3,40 -38,-1Z"/>
    <path data-geo-id="5000537900" data-name="Kirby" d="M455,242l6,-32 11,5 -3,4 16,21 -13,17 -10,5Z"/>
    <path data-geo-id="5000562200" data-name="St. Johnsbury" d="M418,235l37,7 7,20 -30,22 -3,-3Z"/>
    <path data-geo-id="5000541725" data-name="Lyndon" d="M425,199l17,2 21,3 -2,6 -6,32 -37,-7Z"/>
    <path data-geo-id="5000547725" data-name="Newark" d="M438,157l22,-30 23,17 7,5 -22,29 -18,-14Z"/>
    <path data-geo-id="5000554400" data-name="Peacham" d="M348,323l15,-18 12,-23 18,5 -1,6 20,4 3,1 -28,34Z"/>
    <path data-geo-id="5000564075" data-name="Sheffield" d="M398,154l18,9 7,25 -10,15 -31,-15Z"/>
    <path data-geo-id="5001707600" data-name="Braintree" d="M207,462l15,-28 4,2 13,5 14,6 -20,37h-1l-22,-8Z"/>
    <path data-geo-id="5001709325" data-name="Brookfield" d="M239,441l15,-31h2l27,11 8,40 -38,-14Z"/>
    <path data-geo-id="5001753425" data-name="Orange" d="M318,355l16,7 18,9 -7,38 -5,-2 -29,-14Z"/>
    <path data-geo-id="5001715700" data-name="Corinth" d="M340,407l5,2 36,10 5,2 -12,29 -2,5 -42,-11v-1Z"/>
    <path data-geo-id="5001758075" data-name="Randolph" d="M253,447l38,14 -19,38 -2,-1 -37,-14Z"/>
    <path data-geo-id="5001725675" data-name="Fairlee" d="M377,493l16,-36 21,7v1l-2,2 -1,1 -3,4v2l-16,23 2,3Z"/>
    <path data-geo-id="5001770675" data-name="Strafford" d="M326,476l33,11 3,2 -15,27 -4,10 -37,-13Z"/>
    <path data-geo-id="5001774950" data-name="Vershire" d="M330,443v1l42,11 -13,32 -33,-11Z"/>
    <path data-geo-id="5001779975" data-name="West Fairlee" d="M359,487l13,-32 2,-5 19,7 -16,36 -15,-4Z"/>
    <path data-geo-id="5001773675" data-name="Tunbridge" d="M272,499l19,-38 35,15 -20,37Z"/>
    <path data-geo-id="5001773075" data-name="Topsham" d="M352,371h3l38,-4 -12,52 -36,-10Z"/>
    <path data-geo-id="5001772400" data-name="Thetford" d="M362,489l15,4 17,7v1h-1l-1,1h-2l-2,3v1l2,9 -1,2 -1,7 -1,4 -4,13v1l-16,-8 -24,-8 4,-10Z"/>
    <path data-geo-id="5001784175" data-name="Williamstown" d="M256,410l12,-30 8,-1 31,13 -14,34 -10,-5Z"/>
    <path data-geo-id="5001707375" data-name="Bradford" d="M386,421l34,13h-1v4l-3,-2h-1v3l1,3 -1,-2h-3v6h-1v1l-2,13 5,4 -21,-7 -19,-7Z"/>
    <path data-geo-id="5001776750" data-name="Washington" d="M307,392l4,1 29,14 -10,36 -37,-17Z"/>
  </g>
  <path class="mesh" d="M141,851l3,-39h5l22,1h1l8,1h3l1,-22 27,10 20,7 -8,31 -42,-1 2,-25M136,968l1,-37 1,-12 27,1v11l-2,38M57,928l38,1h5l-2,38M67,729h4l35,4 -1,39 -40,-2M95,929l3,-40 -39,-2M423,188l-7,-25 -8,-27 30,21 12,7 -8,37 -17,-2M140,585l-6,22 -4,-1 -2,-21M162,584v1l2,38 -24,1v-9l-6,-8M140,609l7,9 13,-3v-12l-19,-3 -1,9M22,581l38,2 -7,19M150,740l-5,-6h-1l1,-38 36,2 7,1 -1,8 -3,10 -1,20M202,933l-37,-2M249,854l-28,-2 2,-12M100,929l37,2M165,920l1,-29 -26,-1 -2,29M143,773l-2,39h3M63,809l39,2 3,-39 38,1 6,1M183,776l-34,-2 1,-34v-5l29,1 4,1h15v18l-9,-3 -1,24h-4v16M376,271l-2,1h3v4l-2,6 -12,23 -33,-17 17,-33h1M181,839l-2,26 38,1 -6,27 29,1v9l-1,30 36,2 -1,39M268,586l3,1 -18,42 -3,-1 -33,-10 17,-40 2,-5M240,769h-2l1,-42 1,-11h6M200,971l2,-38h37M246,531l5,2 33,14 -16,39 -32,-13 -7,-2 17,-40 -31,-11 17,-36h1l37,14 2,1 -21,34M221,852l-4,14M246,673v-1l39,5 -3,26 -12,5 -8,9 -16,-1v-43l-20,-7 -14,-3 -5,-7 5,-36v-4l5,2M250,628l-4,44M239,727l-23,-13 1,-11 6,-17 3,-17v-3M326,645l-17,-1 -23,-4 16,-39 3,-1 41,10M286,548l20,-35 37,13 -26,34 -1,2 -5,-5 -25,-9 -2,-1M316,562l-15,34 -30,-9M590,68l-5,1 -26,-19 -30,-24 1,-1M570,102l-30,-22 19,-30M520,276l-17,-39 26,-15 30,22M529,147l34,24M573,209l-22,-17 -9,-7M72,194l6,-3 13,4 27,14 17,-33 9,2 25,5 4,1 24,34 6,1 -6,13 7,5 -10,18 -15,-4 -24,-33 18,-34M271,832l-3,20 -7,23 -8,-1 -4,20h-9M279,763h3l32,1M253,874l1,-5 -5,-15h8l5,-23 9,1 4,-24M211,802l3,-18 5,-3 6,-14v-3l6,2 6,3h1M279,27l5,36h-40l-2,-1 -7,-37M518,111l3,3 29,21M317,560l36,14M305,600l-4,-4M323,722l-42,-4M187,707l10,-3 19,10M291,461l-19,38 34,14 20,-37 33,11 3,2 -15,27 -4,10 24,8 16,8M215,520l-5,8 -2,-2v-3l-1,-3v-1l-12,-6h-12l-1,-7 -25,12 -7,-23 8,3 24,-11 3,17 15,-32 7,-10 3,14 22,8M98,25l6,6 -3,9 -2,4v6l16,11 16,7 6,10 10,2 -2,13 4,15 -58,-30v-9l-7,-5 -4,-3 -3,-10 15,-26M80,146l-7,-13 -1,-12 5,-12 9,-6 5,-25M149,108l5,3 -32,14 13,51 -55,-30 5,-10 18,-20 19,9 24,6 24,46 -1,3v3M253,629l31,11 1,37 22,4 19,3M234,578l-8,-3 -28,-11 1,-13 11,-23M284,640h2M309,644l-2,37M113,586l3,12h-6l-1,20 -38,-1 2,-33v-6l39,2M75,549l30,-1 39,-1 18,37 -22,1 -6,-1 -1,-11 -7,3 2,9 -15,1 -1,-6 -7,-32 -7,-36v-1h3l4,-1h10l16,-1h5l1,2 3,16 4,20M253,334l-13,36 -15,-11 -17,-12 14,-36 8,5 6,-4 11,-16 2,-15 30,22 -7,13 -11,23 -8,-5 -23,-18M140,527l10,-5 7,-4M183,513l1,17 13,24 -4,9 -6,10 -25,12M36,548h2l14,-3h14l1,-1 8,-1v6l-2,29M73,584l-13,-1M145,696l-8,-1 6,-38 12,-1 10,4 18,2 -2,36M143,657l-14,-1 5,-32h6M212,620l-48,3 1,37M144,734l-38,-1 1,-40 30,2M183,662l29,1M193,563l5,1M212,616l-29,-11 13,-37 -9,5M116,598l5,27 13,-1M129,656l-12,-1M108,637h3l6,18 3,7 -9,20h-3l-19,-15 5,-12 14,-18 1,-19M108,682l-1,11M70,636l1,-19M89,667l-21,1M287,209l-5,9 -16,30 -33,-19 5,-9 -23,-7 6,-14 19,8 10,-11M521,114l19,-34 -30,-21 3,-7 16,-26M510,59l-20,33 -7,-6 3,-32 27,-2M483,144l15,-19 -1,-4 13,-15 8,5 11,36 13,38 -22,-16 -30,-20 -7,-5 -23,-17 -11,-7 16,-21 13,-16 5,3M490,92l20,14M491,302l-29,-40 10,-5 13,-17 7,3 11,-6M551,192l-22,30 -30,-23 21,-30M499,199l-10,-6 -21,-15 22,-29M478,83l-10,-8 4,-21h14M207,160l3,-16 12,-23 4,-1 12,-2 5,-1 15,-3 9,5 -21,35 -12,-5 -10,-6 -2,-22M485,240l-16,-21 3,-4 17,-22M472,54l-7,1 6,-28M300,183l3,2 30,16 -2,3 -16,31 -33,-17M170,177l7,-1 14,-24 16,8 17,8 -7,14 11,6 -7,11M215,213l-5,9 -7,-3M468,75l-5,-5 1,-10 1,-5M234,149l-10,19M267,119l4,3 48,25 -2,3 -16,30M265,165l3,-2 33,17 -1,3 -13,26 -10,-5 -3,5 -13,-7 -3,1 -8,-7 15,-31 -19,-11M315,235l-1,2 -17,33 -1,1 -30,-23 -17,33 -28,-16 -17,-7 -10,-3M80,61l-7,2 -6,11 -5,22h-5l-1,-24 -9,-6M57,96l-10,14M43,129l12,5 17,-13M80,146v14l-43,5M80,160l-4,18 -4,2v14l-6,8 -26,10M100,242l18,-33 37,9 -18,34 -13,-6 -6,4 -12,-1 -6,-7 -4,1M86,241l-9,-12 -12,-3 -13,4M60,262l7,-4 14,4v3l1,6 19,6 4,2 6,2 9,12 -13,2 -2,-16M284,63h36l3,35v3h-38l-2,-38M408,136l10,-14 12,-17 19,15M460,127l-22,30M122,329l-1,13 3,28 15,-4 1,15 -6,1 6,34 -2,12 -12,1v-7l-9,1 -5,-38 -10,-1 -1,-11 23,-3M133,477h18l-6,13 5,5M136,509l-3,-21M314,27l6,36M416,163l-18,-9 -32,-16 1,-4 16,-30 35,18M398,154l-16,34 31,15 10,-15 2,11 -7,36 -17,-3 -29,-25 10,-19 -33,-17 2,-4 15,-29M319,147l15,-30 33,17M351,167l-34,-17M369,29l6,22 -5,10 16,11 8,7 -12,22 -31,-18 13,-26 6,4M394,79l12,9 24,17M383,104l-1,-3M406,88l16,-21 43,32M464,60l-42,1 4,-32M333,201l16,-30M372,207l-7,14 32,17 -17,34 -4,-1 -28,-16 17,-34 -34,-17M271,122l14,-21M323,98h18l-10,18 3,1M341,98l10,-15M422,67l-9,-6h9M333,98l12,-69M375,51l10,-4 4,13 -6,3 3,9M170,269l9,-18M204,258l-10,21 10,5 -6,13h-1v-1h-7l-1,-1 -7,15 -22,-7M211,893l-8,1 -37,-3 1,-26h12M49,303l48,-7 6,37 -15,2h-4l-5,1h-2l-24,-1M182,310l-10,20 5,2 -8,22M156,351l13,3 -9,25 -4,-28 -2,-27 -14,-4 -3,-25M97,296l10,-1M120,293l2,-1M140,320l1,8 -14,2 -3,-2 -2,1 -3,1 -7,1 -9,2M140,265l30,4 -10,34 -23,-8 -2,-5 -13,2 9,-24 9,-3 -3,-13M24,436l43,-4 1,8v28l-44,6M88,335l5,38 1,9 -12,-3 -8,-3M65,376l-39,6M32,510l46,-5 1,8 4,30h-8M98,511l-6,-15M93,373h8M117,423l-26,4v-9l-11,-2 -9,-7 3,-8 11,-1 -3,-21M420,434l-34,-13 -5,-2 12,-52h1l23,9 13,5M256,410l27,11 10,5 37,17 -4,33 -35,-15 -8,-40M394,367l-7,-35 38,8M397,238l4,-6M418,235l11,46 -14,17 -3,-1 -20,-4 1,-6 -18,-5M429,281l3,3M348,323l39,9 28,-34M94,245l-4,12 -13,3 -11,-21 -1,-13M106,249l-3,20v3l-2,5M285,357l-2,5 9,10 7,-2 -6,-13h-8l3,-10 12,3 18,5 -7,38 -4,-1 -31,-13 7,-17M261,339l7,7 17,1h3M276,379l-8,1 -28,-10M300,350l12,-22 31,16 -9,18 -16,-7M297,270l33,18 -18,32 -33,-17 17,-32M363,305l-15,18 1,11 -6,10M312,328v-8M285,347l2,-4 -10,-8 -5,-19M225,359v6l-15,28 -26,-11M268,380l-12,30h-2M214,394l-4,-1M314,237l33,18M198,425l16,-31 40,16 -15,31 -13,-5 -4,-2 -24,-9 -22,-10 -4,1h-2l-5,-38M79,513h4l6,-1h9M222,311l-9,-10 -15,-4M151,477l10,-21 10,5 29,11M171,461l2,-29 -1,-16M222,434l-15,28M96,466l-8,-15v-13l3,-11M126,429l2,32M68,440l20,-2M91,484l5,-18 32,-5h3l2,16v11l-18,2 -23,6 -1,-12 -18,1 -5,-17M138,428l-1,3 36,1M71,381l-3,13 -46,6M73,485l5,20M177,332l31,15 -24,35 -7,-6 -12,2 -5,1 -20,2M68,394l3,15 -9,7 5,16M210,144l-21,-3 5,-41h48l1,17M242,62l-21,1h-21l-3,-38M146,131l43,10M147,80l33,8 15,2 -1,10M195,90l5,-26v-1M244,63l3,37h-5M200,64l-23,-5 -23,-13 -5,-21M131,68l46,-9M240,903l44,1M280,935h-5M261,875l27,3M450,164l18,14M472,215l-11,-5 2,-6 -21,-3M393,367l-38,4h-3l-18,-9M447,307l-15,-23 30,-22 -7,-20 6,-32M418,235l37,7M239,441l14,6 -20,37M291,461l-38,-14M352,371l-7,38 -5,-2 -29,-14M345,409l36,10M386,421l-12,29 -2,5 -42,-11v-1l10,-36M394,500l-17,-7 16,-36 21,7M372,455l-13,32M374,450l19,7M377,493l-15,-4M307,392l-14,34M61,847l39,3 41,1 -1,39 -42,-1 2,-39 2,-39M231,809l8,-3M262,717l19,1 -2,45h-2M238,972l1,-39M312,809l-37,-1 1,-8M306,853l-38,-1M282,703l-1,15M225,764l-8,-3 -3,-16 2,-31M252,808v-4l-13,2 1,-37 22,-4 15,-2 -1,37 -20,3 -4,5v10l13,1 -3,12M141,812l-39,-1M217,761l-12,-3 -7,-3M68,691l39,2M202,933M184,776h-1M183,776l2,-39M202,933l1,-39M141,851l27,2 -1,12"/>
  <g class="cities">
    <circle r="7" cx="84" cy="249"/>
    <text x="84" y="249">Burlington</text>
    <circle r="7" cx="153" cy="608"/>
    <text x="153" y="608">Rutland</text>
    <circle r="7" cx="294" cy="365"/>
    <text x="294" y="365">Barre</text>
  </g>
</svg>