<?xml version="1.0" encoding="utf-8"?>
<!DOCTYPE svg PUBLIC "-//W3C//DTD SVG 1.1//EN" "http://www.w3.org/Graphics/SVG/1.1/DTD/svg11.dtd">
<svg version="1.1" xmlns="http://www.w3.org/2000/svg" width="215" height="350" viewBox="0 0 215 350">
  <path class="state" transform="scale(0.1)" d="M1103,2677l-10,80 -12,40 -1,1 15,20 8,73 -35,47 10,50 15,13 -35,57 -59,23 7,57 -28,45 -4,44 16,67 34,43 35,29 18,44h-7l-493,-18h-3l-99,-3 -52,-2 -48,-3 -104,-3h-54l-12,-2 -11,-60 -2,-23 4,-10v-2l1,-3 -1,-7h-1l-1,-2 1,-10 1,-10h8l4,-84 1,-35v-10l1,-17 7,-163 1,-5 1,-15 1,-28 5,-112 4,-71 1,-15v-18l2,-24 2,-46v-4l1,-8v-12v-28v-2v-5l3,-48v-3v-3v-5v-4v-3l1,-10v-3v-4v-5l1,-31v-5v-2v-5l2,-25v-7l1,-8v-3l1,-25v-10l1,-12v-33v-20v-2v-8v-3v-10l2,-2 3,-7 2,-1v-2l-2,-5v-5v-2h-1l-2,-5h-2v-5h-1v-1v-2v-3l1,-4v-1h-1l-1,-2 -3,-3v-2l-2,-3v-2l-4,-6h-1h-1l-2,-2 -1,-2 -1,-1h-1h-2h-1v-2v-2l-7,-3h-2h-1l-1,2 -2,-2v-2v-3h-1l-2,-2h-9h-1l-1,4 -1,-2 -1,-3 2,-4 2,-1 -1,-4 -1,-1h-2v-2l1,-2 1,-1 2,-5v-5v-7v-2v-1v-2l-3,-5 -2,-2 -2,-1h-2v1h-1v-1l1,-9 -1,-13 -1,-2 -1,-1h-2l-1,1 -2,4h-2h-1h-1v-2h-1l-2,-2 -3,-1h-2h-1h-2l-2,1 -1,2h-4l-2,-2v-1h-1h-1l-3,1 -1,2 -3,2v-2l-1,-2h-1h-1l-3,4v1l-1,2h-1h-2v-2l-3,-5h-2l-3,2 -1,2h-8l-1,-2 -5,3 1,2 3,3 -4,5 -1,2 -1,2 -2,1v2h3l1,8v2v2l-6,5 -2,3 -4,2 1,6h-1h-3l-1,2v2v1l1,2 4,2v11l-1,2 -3,3h-1h-2h-2l-1,2v2v3l-5,3h-1l-2,-1h-2l-29,-25 12,-50 2,-2 -2,-2v-1l-1,-2 -8,-20v-2l20,-41h1v-2l4,-16 11,-25 26,-40v-2v-10v-13l1,-2 2,-3 6,-9 6,-13 5,-12 -2,-6 -12,-25v-2h-1l-4,-1v-2l-3,-3 -3,-4h-1v-3v-3l-3,-9 -6,-6 -1,-2 -2,-2 -2,-1 3,-22 1,-3 5,-4 2,-1h2h1l1,-2 3,-5 -3,-10 4,-38 -20,-34 -16,-48 -4,-68 8,-58 -8,-15 -3,-3h-3l-7,-9 -2,-1 -4,-4 6,-60 15,-38v-42l19,-59h4l5,-20 4,-2h1l6,-8 3,-2h1l4,-7 2,-1h1l2,-2 4,-8v-2h1v-2l3,-3 1,-2 5,-10 4,-8 1,-2h1l2,-1h1l1,-7h4l1,-2h1l2,-1 2,-4h1l1,-1h2h1l2,1h2l5,-10 7,-19 -21,-135 16,-40 26,-63 -11,-107 -4,-6h-1l-2,-4 -2,-3h-1l-1,-2h-1l-5,-21v-4h-2h-2l-6,-15 -5,-11v-2l-3,-5h-1l-1,-2h-2l-6,-5h-1h-1l-1,-1h-2h-1v-2h-1v-3l-3,-4 -1,-3 -7,-7 -6,-8v-2l-1,-5 -4,-18 2,-2v-5h2l-2,-3 -2,-5 -1,-5 -2,-1v-5v-2l-6,-13 3,-14v-5v-3l1,-2 4,-3 3,-3 -5,-7v-3h2l5,-14 1,-1 2,-5h2l2,-5v-17l3,-2v-5l-1,-1 -1,-2v-2l2,-1 2,-2 1,-2 1,-3 1,-2v-1v-4h-1l-1,-1 -1,-5v-2v-12l1,-18v-5v-15l2,-13v-2l2,-1 1,-2 1,-2 1,-1 2,-2 2,-5 1,-3v-4l2,-1 1,-4 1,-3v-2l2,-5v-1l4,-5 2,-4 1,-1h1l1,-2 4,-3 1,-2 2,-5v-2v-15l-1,-3v-3v-2l-1,-2 -4,-1v-2l-2,-2v-1l-1,-2 -1,-2 -1,-1 -2,-2 -1,-2h-2l-2,-1v-2l-1,-2 -3,-3v-2h-1h-1l-3,-1 -1,-4h-1l-3,-1 -5,-5 -2,-2 -1,-2v-3l-4,-3h-1l-2,-10 -2,-7 3,-13 2,-2v-3h2v-2l5,-5 4,-15 11,-41 2,-5 7,-5 4,-2 1,-2 5,-10 -1,-20 1,-23 1,-21 -2,-2 -4,-5 -1,-2 -9,-13 2,-18 2,-2 1,-2 1,-5v-1l5,-17h36h12h1h2l84,-2h21l102,-1h7l23,-2h3l12,2 72,1 139,-1h18l126,1h3h26h11l45,2 33,3h2l32,7 115,-2 49,4h6h14l119,3h3l76,-3h6h25h10h7h25h12h11l66,-2 130,-3 100,-4 38,-1 207,-4 56,-1h1h6l32,-2 -17,17 -21,-10 -32,23v2l-1,6 1,10h2h1l3,7v2l2,1h2l4,10 2,2 3,2 -1,21 4,7 -6,10 3,3h2l3,13 14,17 7,5v3l-4,7h-1l-24,35 -24,25 -2,2 -1,1 -6,20 -17,40h-1l-3,7 4,31 -59,67 6,18v2l8,20 16,30 6,15v1l1,2 12,32v3l8,12h2l-1,5h9l9,11 9,20 2,4 1,3 1,5h-4l-2,-5 -4,12v1l18,32v8l-13,18 3,4 -49,26 24,27 -19,20 15,27 -7,6 -1,4 -14,19h-1l-9,2 -14,8 -11,7v-2l-2,-5 2,-1 -27,53 -19,13v2l-2,8 -2,2 -1,2 -10,8 -3,2 -19,13 -3,-2 -20,2 -5,10 -1,2 -52,1 -1,2 -2,2 -2,1 -2,2 -1,2 -2,1 -2,4v1l4,5 1,2 -1,2 -1,1 -12,2h-1v2v3l-1,3v2l1,2 2,1v2v1l-1,2h-1l-2,2v3l1,2v1l1,2 2,5v2v1v2l-2,2 -3,1 -7,2h-1l-1,2h-2l-2,1h-2h-3l-2,4h-1l-1,1h-1l-2,2 -4,2 -1,1h-1l-1,2h-2l-2,2h-1l-10,1h-1l-1,2 -2,2h-1l-2,1 -22,-10 -29,-1 -57,11h-5l-7,2 -1,7 -2,1 -1,2 -3,2 -7,3h-1l-1,2h-2l-4,1 -3,2 -5,2 -18,1h-1l-1,4v1l1,2 1,3 -1,2v2v6l-4,14 -4,1 -5,2 -3,5 -5,2h-1l-1,1 -2,4 -2,1 -1,2 -7,15v8h1l1,2 7,-2h-1l1,4 -1,1 -2,5 1,2 5,16 5,7 2,5 1,3 -1,4 -3,10 -1,3 -1,2 1,11 -2,7 -1,2h-1l-2,1 -1,2 1,3v2l1,3 -1,4 -1,1 -1,2 -4,3 -1,2v2v1l-1,2v2v3h1l10,20 2,7 5,8 2,3 4,4 -2,3 5,2h1v1l-1,2h-1l-2,3v4v1v2l2,2v1l-2,2h2v5v3v3h1l1,2 2,3h1l3,2v2v1h-1l-1,2 -1,3 -1,4 -3,-4 -3,4h-3v1h-1l-2,2 -1,3h-1v-1h-1l-1,1v2v2v5l-1,1 -1,2v2l1,1v2l1,3 1,2v2v3l1,2 2,1 1,4h2h1l8,-10 7,3 1,2v5l-1,5 -1,3h-2l-1,2 -10,5 1,1 13,10 -17,10 -2,7 -2,2 -4,10 -1,1 -12,2 -1,2v1l2,2h4h2l1,3 -6,4 -7,5h-2l-3,1 -1,4v1l3,9h1v3v2l-1,1h-1l-2,2h-1l-1,2 -1,1v2h1v3l-1,3 -11,-6 -1,3h-1l-1,2v1l-1,4v1l6,12 -9,-10h-1l-2,3h-1l-1,2h-1l-1,2v1l1,4 1,1v4l1,1 -1,2 -1,2h-1h-1l-1,1 -3,2 -2,43 13,20 -5,7 -13,22 -7,31 -50,53 6,14h-1l-7,5 -11,8h-1l5,37 -2,6 -5,42 -18,41v4l-27,35 -43,21 -33,52 1,41 -12,29 -19,43 5,25 -1,2h-1l-44,30 -8,21h-1v40l-19,35 14,18 1,37 -1,2 -6,30v1l-13,90 -11,38 26,12 -21,38 16,23 -18,57 -25,25 1,35"/>
  <g class="subcounties" transform="scale(0.1)">
    <path data-geo-id="5002517875" data-name="Dover" d="M589,3028l-5,93 131,5h25l22,-93 -133,-5Z"/>
    <path data-geo-id="5002530925" data-name="Guilford" d="M834,3402l128,4 6,-135 -128,-5Z"/>
    <path data-geo-id="5002528900" data-name="Grafton" d="M846,2692l-6,131 46,-8 -2,15 39,-23 49,-7 2,-126 -53,6Z"/>
    <path data-geo-id="5002509475" data-name="Brookline" d="M874,2988l20,52 -5,19 28,2 24,-80 12,-68 -32,-2 -18,79Z"/>
    <path data-geo-id="5000342850" data-name="Manchester" d="M368,2700l-8,138 139,5 3,-134Z"/>
    <path data-geo-id="5002531150" data-name="Halifax" d="M801,3400l33,2 6,-136 -130,-4v5l-7,128Z"/>
    <path data-geo-id="5000339025" data-name="Landgrove" d="M650,2579l-7,138h7h11l6,-85 28,12v-65h-12h-12Z"/>
    <path data-geo-id="5002543375" data-name="Marlboro" d="M715,3126l-5,136 130,4 3,-103 3,-37h-106Z"/>
    <path data-geo-id="5000327962" data-name="Glastenbury" d="M354,2975l-9,136 148,3 6,-133v-3Z"/>
    <path data-geo-id="5002536175" data-name="Jamaica" d="M641,2850l-3,86 147,7 27,-110 -70,-23 -95,-37Z"/>
    <path data-geo-id="5000355000" data-name="Peru" d="M529,2590l-3,120 117,7 7,-138h-5l-17,-2 -99,-5Z"/>
    <path data-geo-id="5000358600" data-name="Readsboro" d="M484,3257l-6,132 96,3 5,-131 1,-40 -93,-3Z"/>
    <path data-geo-id="5000357025" data-name="Pownal" d="M205,3247l-1,5h-8l-1,10 -1,10 1,2h1l1,7 -1,3v2l-4,10 2,23 11,60 12,2h54l76,2 8,-132h-18Z"/>
    <path data-geo-id="5000361000" data-name="Rupert" d="M235,2555v2v28v12l-1,8v4l-2,46 -2,24v18l138,3 7,-135 -52,-5h-2l-72,-5Z"/>
    <path data-geo-id="5000363550" data-name="Shaftsbury" d="M216,2966l-6,140 135,5 9,-136Z"/>
    <path data-geo-id="5000575700" data-name="Walden" d="M1279,777l-58,117 93,50 6,3 13,8 62,-119Z"/>
    <path data-geo-id="5000583500" data-name="Wheelock" d="M1340,658l-34,68 103,85 56,11 27,-126 -10,-38 -30,56Z"/>
    <path data-geo-id="5000571575" data-name="Sutton" d="M1431,476l27,95 24,87 10,38 57,10 28,-128 -40,-29 -13,-10Z"/>
    <path data-geo-id="5002155600" data-name="Pittsford" d="M371,1922l23,110 5,19 52,-3 -6,-31 23,10 27,19 76,-3 -64,-128Z"/>
    <path data-geo-id="5002157250" data-name="Proctor" d="M468,2027l-23,-10 6,31 7,73 16,5 25,-56 -4,-24Z"/>
    <path data-geo-id="5002161300" data-name="Rutland" d="M495,2046l4,24 -25,56 22,29 -1,30 82,-5 -5,-132 -1,-5ZM497,2135l4,-35 62,11 1,42 -48,10Z"/>
    <path data-geo-id="5002180875" data-name="West Haven" d="M81,2033l-1,5v2h-1l-20,41v2l8,20 1,2v1l2,2 -2,2 -11,47 28,28h2l2,1h1l5,-3v-3v-2l1,-2h2h2h1l3,-3 1,-2v-11l-4,-2 -1,-2v-1v-2l1,-2h3h1l-1,-6 4,-2 2,-3 6,-5v-2v-2l-1,-8h-3v-2l2,-1 1,-2 1,-2 4,-5 -3,-3 -1,-2 5,-3 1,2h8l1,-2 3,-2h2l3,5v2h2h1l1,-2v-1l3,-4h1h1l1,2v2l3,-2 1,-2 3,-1h1h1v1l2,2h4l1,-2 2,-1h2h1h2l3,1 2,2h1v2h1h1h2l2,-4 1,-1h2l1,1 1,2v3l25,-65Z"/>
    <path data-geo-id="5002147425" data-name="Mount Tabor" d="M513,2437l-4,133h3l17,20v-18l99,5 17,2 2,-68 13,-35 1,-30 -24,-2Z"/>
    <path data-geo-id="5002584700" data-name="Wilmington" d="M580,3221l-1,40 131,6v-5l5,-136 -131,-5Z"/>
    <path data-geo-id="5002573300" data-name="Townshend" d="M785,2943l-10,38 99,7 29,2 18,-79 10,-46 -48,-5 1,-30 2,-15 -46,8 -28,10Z"/>
    <path data-geo-id="5002565762" data-name="Somerset" d="M499,2981l-6,133 36,4 55,3 5,-93 2,-42Z"/>
    <path data-geo-id="5002583950" data-name="Whitingham" d="M574,3392h3l126,3 7,-128 -131,-6Z"/>
    <path data-geo-id="5002570750" data-name="Stratton" d="M499,2978v3l92,5 -2,42h40l9,-92 3,-86h-5h-4l-27,-2 -3,-3 -77,-3 -19,1Z"/>
    <path data-geo-id="5000369775" data-name="Stamford" d="M347,3383l28,1 48,3 52,2h3l6,-132 -129,-6Z"/>
    <path data-geo-id="5000385675" data-name="Woodford" d="M345,3111l-8,140h18l129,6 3,-39 6,-104Z"/>
    <path data-geo-id="5000371425" data-name="Sunderland" d="M354,2975l145,3 7,-135h-7l-139,-5Z"/>
    <path data-geo-id="5000385075" data-name="Winhall" d="M499,2843h7l19,-1 77,3 3,3 27,2h4h5l6,-77 3,-56h-7l-117,-7 -24,-1Z"/>
    <path data-geo-id="5000162575" data-name="Salisbury" d="M323,1694l-9,25 13,16 84,-21 57,-7 2,-33h-12l5,-60 -12,2 -111,15Z"/>
    <path data-geo-id="5002311125" data-name="Cabot" d="M1219,892l-61,117 115,61 43,-81 5,-10 5,-14h-1l-1,-1 -2,-2v-2l2,-5v-1l-1,-2h-1v-2h-1v2h-1l-5,2 2,-4h1h2l1,-1 -1,-2 -6,-3 -93,-50Z"/>
    <path data-geo-id="5000925975" data-name="Ferdinand" d="M1696,506l21,15 105,73 77,57 -44,-133 -4,-28 -36,-99 -25,-18 -45,55 1,10Z"/>
    <path data-geo-id="5001127700" data-name="Georgia" d="M431,440l-65,-35 -66,76 -19,30 105,55 21,12 71,40Z"/>
    <path data-geo-id="5002702725" data-name="Barnard" d="M862,1862l-56,138 24,8 112,43 56,-136 -116,-47Z"/>
    <path data-geo-id="5002712250" data-name="Cavendish" d="M862,2358v148l59,5 28,-30 43,-19 9,-91 -139,-18Z"/>
    <path data-geo-id="5002708275" data-name="Bridgewater" d="M762,2163l116,38 10,4 63,-147 -9,-7 -112,-43 -9,17Z"/>
    <path data-geo-id="5002713675" data-name="Chester" d="M837,2692h9l75,-12 53,-6h6l5,-160 -64,-3 -59,-5h-19l-1,41Z"/>
    <path data-geo-id="5002705800" data-name="Bethel" d="M755,1820l107,42 20,6 73,-119 -12,-5 -31,-14 -92,-34 -4,-2Z"/>
    <path data-geo-id="5002576225" data-name="Wardsboro" d="M638,2936l-9,92 133,5 13,-52 10,-38Z"/>
    <path data-geo-id="5002756050" data-name="Plymouth" d="M744,2175l-14,113 17,33 24,7 23,6 68,24v-5l16,-152 -116,-38 -16,-7Z"/>
    <path data-geo-id="5002741275" data-name="Ludlow" d="M796,2344l-13,58 -24,59v40l83,46 1,-41h19v-148l-68,-24Z"/>
    <path data-geo-id="5002732425" data-name="Hartland" d="M1159,2233v-37h1l8,-21 7,-5 1,-2 36,-23h1l1,-2 -2,-7 -144,-36 -8,10 -57,131 82,12 57,8Z"/>
    <path data-geo-id="5002763775" data-name="Sharon" d="M1003,1917l93,36 15,15 3,-6 90,-122 -129,-41Z"/>
    <path data-geo-id="5002760850" data-name="Royalton" d="M955,1749l-73,119 116,47 5,2 72,-118Z"/>
    <path data-geo-id="5002758375" data-name="Reading" d="M878,2201l-16,152 139,18 -3,-130 -110,-36Z"/>
    <path data-geo-id="5002756350" data-name="Pomfret" d="M942,2051l9,7 13,-2 92,32 55,-120 -15,-15 -93,-36 -5,-2Z"/>
    <path data-geo-id="5000911800" data-name="Canaan" d="M2068,238v-3l-7,-5 -14,-17 -3,-13h-2l-3,-3 6,-10 -4,-7 1,-21 -3,-2 -2,-2 -4,-10h-2l-2,-1v-2l-3,-7h-1h-2l-1,-10 1,-6v-2l28,-22 2,1 2,-2 21,10 17,-17 -32,2h-6h-1l-56,1 -141,4 -3,3 104,76 93,70 16,-5Z"/>
    <path data-geo-id="5000939700" data-name="Lemington" d="M1994,357l12,-29 6,-20 1,-1 2,-2 24,-25 24,-35h1l3,-7 -16,5 -93,-70 -63,112Z"/>
    <path data-geo-id="5000941425" data-name="Lunenburg" d="M1825,967l20,-2 3,2 19,-13 3,-2 10,-8 1,-2 2,-2 2,-8v-2l19,-13 25,-50 2,3v2l11,-7 14,-8h3l-105,-78 -92,50 62,140Z"/>
    <path data-geo-id="5000942475" data-name="Maidstone" d="M2007,731l10,-5 -3,-4 13,-18v-8l-18,-32v-1l4,-12 2,5h4l-1,-5 -1,-3 -2,-4 -9,-20 -9,-11h-9l1,-5h-2l-10,-9 -122,-81 44,133 32,22Z"/>
    <path data-geo-id="5000724175" data-name="Essex" d="M354,850l17,-18 4,40 41,3 23,-13 44,20 64,-118 -131,-32Z"/>
    <path data-geo-id="5000710300" data-name="Buels" d="M550,1228l13,98 32,-86 -45,-14Z"/>
    <path data-geo-id="5000759275" data-name="Richmond" d="M430,1023l48,-6 3,15 82,28 21,-51 16,-69 -107,-8 -29,7Z"/>
    <path data-geo-id="5000773975" data-name="Underhill" d="M610,648l-63,116 84,116 52,17 35,-68 -26,-17 22,-43 -20,-7Z"/>
    <path data-geo-id="5000780350" data-name="Westford" d="M478,618l-62,114 131,32 63,-116 -14,-4 -89,-20Z"/>
    <path data-geo-id="5002548400" data-name="Newfane" d="M762,3033l-22,93h106l30,3 13,-70 5,-19 -20,-52 -99,-7Z"/>
    <path data-geo-id="5002560250" data-name="Rockingham" d="M1097,2833v-3l-17,-32 1,-1 11,-40 9,-80 -39,-3h-28h-7h-36h-6h-1h-4h-6l-2,126 -8,30Z"/>
    <path data-geo-id="5002581400" data-name="Westminster" d="M1075,2928l26,-34 -2,-39 -2,-22 -133,-3 -11,83 -12,68 135,5 -9,-48Z"/>
    <path data-geo-id="5002584850" data-name="Windham" d="M791,2684l-6,28 -33,36 -10,62 70,23 28,-10 6,-131h-9l-26,-8 -18,-5 -3,-2Z"/>
    <path data-geo-id="5001159125" data-name="Richford" d="M979,102l-32,-7h-2l-33,-3 -45,-2h-11h-26h-3l24,123 6,10 137,-3h3Z"/>
    <path data-geo-id="5000910075" data-name="Brunswick" d="M1979,596v-3l-12,-32 -1,-2v-1l-6,-15 -16,-30 -8,-20v-2l-6,-18 -1,-2 -102,-71 -12,-9 36,99 4,28 122,81Z"/>
    <path data-geo-id="5002732275" data-name="Hartford" d="M1212,2136l-3,-18 4,-10v-15l15,-18 10,-65 -124,-48 -3,6 -55,120 12,12Z"/>
    <path data-geo-id="5002702575" data-name="Baltimore" d="M992,2462l-43,19 -28,30 64,3Z"/>
    <path data-geo-id="5002701300" data-name="Andover" d="M759,2501l-5,108 8,58 28,10 3,2 18,5 26,8 5,-145Z"/>
    <path data-geo-id="5002752900" data-name="Norwich" d="M1114,1962l124,48 -1,-17 36,-43 35,-15 34,-38 -17,-9 -121,-48Z"/>
    <path data-geo-id="5002760100" data-name="Rochester" d="M531,1734l22,81 62,-35 23,-10 4,25 25,10 20,-8 40,22h1l-2,3 5,8 3,10h-1l4,7 18,-27 61,-126 -78,-27 -8,-48 -27,35 -52,110 -10,-4 -2,-56 -79,40h-2Z"/>
    <path data-geo-id="5001171725" data-name="Swanton" d="M346,90h-21h-1l-50,87 9,36 37,27 1,33 204,105 -14,-51 7,-42 -36,-10 -19,-35 -105,-57 -8,-28 6,-13 10,-27Z"/>
    <path data-geo-id="5001161750" data-name="St. Albans" d="M256,425v38l25,48 19,-30 66,-76 65,35 113,-50 -19,-12 -204,-105 -21,95 -27,20ZM415,390l2,-17 33,2 -9,25Z"/>
    <path data-geo-id="5001124925" data-name="Fairfax" d="M431,440l47,178 29,6 89,20 -1,-8 1,-3 1,-2 -2,-2 1,-8 2,-2 -84,-161Z"/>
    <path data-geo-id="5001535050" data-name="Hyde Park" d="M934,579l-55,108 38,24 46,21 12,-16 33,16 44,-88 6,-11 -120,-62Z"/>
    <path data-geo-id="5002777500" data-name="Weathersfield" d="M1149,2498l-19,-8 -7,-3 19,-95 -62,-8 -79,-13 -9,91 -7,52 147,12Z"/>
    <path data-geo-id="5002770375" data-name="Stockbridge" d="M737,1847l-39,85 14,5 -14,38 73,28 24,10 4,2 22,10 9,-17 -24,-8 56,-138 -107,-42Z"/>
    <path data-geo-id="5002769550" data-name="Springfield" d="M1142,2556l-13,-19 4,-8 -1,-3 -147,-12 -5,160h4h1h6h36h7h28l39,3 -4,-30 33,-40 13,-48Z"/>
    <path data-geo-id="5002782000" data-name="Weston" d="M660,2476l-13,35 -2,68h5h21h12h12v65l24,8 43,15 -8,-58 5,-108 -34,-19 -35,-20Z"/>
    <path data-geo-id="5002783050" data-name="West Windsor" d="M998,2241l3,130 79,13 5,-131 -82,-12Z"/>
    <path data-geo-id="5002785975" data-name="Woodstock" d="M888,2205l110,36h5l57,-131 8,-10 -12,-12 -92,-32 -13,2Z"/>
    <path data-geo-id="5002784925" data-name="Windsor" d="M1148,2359v-1l6,-30 1,-2 -1,-37 -14,-18 4,-7 -2,-3 -57,-8 -5,131 62,8Z"/>
    <path data-geo-id="5002111950" data-name="Castleton" d="M250,2160l136,5 4,-70h17l-8,-44 -5,-19 -135,-7 -1,18Z"/>
    <path data-geo-id="5002107750" data-name="Brandon" d="M345,1790l1,4 25,128 136,-7 -14,-70 -11,-53h-1h-1h-2v-7l-73,2h-6l-43,3Z"/>
    <path data-geo-id="5002344500" data-name="Middlesex" d="M809,1110l80,60 27,18 41,-80 24,-46 -107,-77 -18,34 11,18Z"/>
    <path data-geo-id="5002114350" data-name="Chittenden" d="M493,1845l14,70 64,128 1,5 85,-41 21,-37 14,-27 -49,-94 -1,-54 -4,-25 -23,10 -62,35 -24,12 -5,3Z"/>
    <path data-geo-id="5002105200" data-name="Benson" d="M131,1917l-1,1 -6,9 -2,3 -1,2v13v10v2l-26,40 -11,25 -3,11 133,8 44,2 1,-18 6,-100 1,-23 -21,3h-6h-2h-2l-1,2h-2l-17,1 -32,4h-4l-42,5Z"/>
    <path data-geo-id="5002144800" data-name="Middletown Springs" d="M380,2234l-50,59h-12l-1,43 63,50h11l32,-67 -8,-25 -23,-60Z"/>
    <path data-geo-id="5002175925" data-name="Wallingford" d="M483,2434l30,3 124,7 6,-128 -61,3 -1,-8h-34v-15l-45,3 -4,65Z"/>
    <path data-geo-id="5002114500" data-name="Clarendon" d="M453,2296l49,3 45,-3v15h34l-4,-131 -82,5h-24Z"/>
    <path data-geo-id="5002116825" data-name="Danby" d="M378,2427l-3,138 32,2 102,3 4,-133 -30,-3Z"/>
    <path data-geo-id="5002134450" data-name="Hubbardton" d="M265,1925l-6,100 135,7 -23,-110Z"/>
    <path data-geo-id="5002147200" data-name="Mount Holly" d="M643,2316l-6,128 24,2 -1,30 30,-14 35,20 34,19v-40l24,-59 13,-58 -2,-10 -23,-6 -24,-7 -39,-8Z"/>
    <path data-geo-id="5002137685" data-name="Killington" d="M657,2007l33,-14 -45,123 101,40 16,7 59,-138 -22,-10 -4,-2 -24,-10 -73,-28 -20,-5Z"/>
    <path data-geo-id="5002135425" data-name="Ira" d="M386,2165l-6,69h12l23,60 38,2 18,-111 -45,1 -19,-91h-17Z"/>
    <path data-geo-id="5002144125" data-name="Mendon" d="M572,2048l5,132 167,-5 2,-19 -101,-40 45,-123 -33,14Z"/>
    <path data-geo-id="5002154250" data-name="Pawlet" d="M239,2471v3l-1,10v3v4v5v3v3l-3,48v5h14l72,5h2l52,5 3,-138 -138,-8v5v2v5l-1,31v5Z"/>
    <path data-geo-id="5002165275" data-name="Shrewsbury" d="M577,2180l4,131 1,8 61,-3 65,-3 39,8 -17,-33 14,-113Z"/>
    <path data-geo-id="5002161225" data-name="Rutland" d="M497,2135l19,28 48,-10 -1,-42 -62,-11Z"/>
    <path data-geo-id="5002156875" data-name="Poultney" d="M248,2227l1,2h1v2v5l2,5v2l-2,1 -3,7 -2,2v10v3v8v2v20v33l-1,12 73,-5 1,-43h12l50,-59 6,-69 -136,-5Z"/>
    <path data-geo-id="5002155450" data-name="Pittsfield" d="M642,1795l1,54 49,94 -14,27 20,5 14,-38 -14,-5 39,-85 -4,-7h1l-3,-10 -5,-8 2,-3h-1l-40,-22 -20,8Z"/>
    <path data-geo-id="5001546675" data-name="Morristown" d="M757,746l78,26 -16,32 115,65 59,-110 15,-27 -33,-16 -12,16 -46,-21 -38,-24 -34,39 -66,-25Z"/>
    <path data-geo-id="5000902125" data-name="Averill" d="M1788,207l107,78 63,-112 -104,-76 -7,13 -47,77Z"/>
    <path data-geo-id="5000902162" data-name="Avery's" d="M1706,187l-12,115 26,20 68,-115 12,-20Z"/>
    <path data-geo-id="5000908725" data-name="Brighton" d="M1575,421l36,25 85,60 50,-68 -1,-10 45,-55 -70,-51 -26,-20 -17,-12 -48,58 -3,5Z"/>
    <path data-geo-id="5000906325" data-name="Bloomfield" d="M1979,418l9,-11 -3,-32 3,-7h1l5,-11 -99,-72 -68,115 102,71 40,-48Z"/>
    <path data-geo-id="5000915250" data-name="Concord" d="M1721,1057h1l2,-4h3h2l2,-1h2l1,-2h1l7,-2 3,-1 2,-2v-2v-1v-2l-2,-5 -1,-2v-1l-1,-2v-3l2,-2h1l1,-2v-1v-2l-2,-1 -1,-2v-2l1,-3v-3v-2h1l12,-2 1,-1 1,-2 -1,-2 -4,-5v-1l2,-4 2,-1 1,-2 2,-2 2,-1 2,-2 1,-2 52,-1 1,-2 4,-8 -62,-140 -38,23 -24,-10 -54,65 -17,10 -8,5Z"/>
    <path data-geo-id="5000929125" data-name="Granby" d="M1822,594l-73,105 105,80 77,-106 -32,-22Z"/>
    <path data-geo-id="5000921250" data-name="East Haven" d="M1643,623l69,51 37,25 73,-105 -105,-73 -19,27 -32,45Z"/>
    <path data-geo-id="5000976562" data-name="Warren's" d="M1655,190l-14,73 13,10 23,17 17,12 12,-115Z"/>
    <path data-geo-id="5001504375" data-name="Belvidere" d="M783,423l1,78 39,20 43,22 72,-127 -34,-13 -51,8 -19,4 -13,1 -28,5Z"/>
    <path data-geo-id="5000975175" data-name="Victory" d="M1656,752l-10,17 54,73 24,10 38,-23 92,-50 -105,-80 -37,-25Z"/>
    <path data-geo-id="5000939775" data-name="Lewis" d="M1720,322l70,51 25,18 12,9 68,-115 -107,-78Z"/>
    <path data-geo-id="5000952750" data-name="Norton" d="M1791,94l-38,1 -100,4 -21,94 23,-3 51,-3h94l47,-77 7,-13 3,-3Z"/>
    <path data-geo-id="5001585375" data-name="Wolcott" d="M993,759l113,60 58,-103 6,-12 -79,-40 -20,-11 -1,-2h-2h-3l-13,-7 -44,88Z"/>
    <path data-geo-id="5001511500" data-name="Cambridge" d="M596,621l-1,8 2,2 -1,2 -1,3 1,8 14,4 84,114 20,7 25,8 18,-31 22,-45 21,-43 -38,-19 25,-48 -57,-32 -46,-23 -12,-5 -44,82h-1l-3,3 -7,10 -6,-2h-1l-12,-5Z"/>
    <path data-geo-id="5000930775" data-name="Guildhall" d="M1959,857l6,-2h1l14,-19 1,-4 7,-6 -15,-27 19,-20 -19,-21 -6,-6 6,-13 29,-5 5,-3 -76,-58 -77,106Z"/>
    <path data-geo-id="5000976337" data-name="Warner's" d="M1629,210l-8,35 20,18 14,-73 -23,3Z"/>
    <path data-geo-id="5001577425" data-name="Waterville" d="M739,508l-9,51 57,32 36,-70 -39,-20 -1,-78 -24,28Z"/>
    <path data-geo-id="5001523500" data-name="Eden" d="M866,543l68,36 4,-8 120,62 56,-107 6,-12 -166,-84h-1l-15,-14Z"/>
    <path data-geo-id="5001537075" data-name="Johnson" d="M787,591l-25,48 38,19 -21,43 66,25 34,-39 55,-108 -68,-36 -43,-22Z"/>
    <path data-geo-id="5001523725" data-name="Elmore" d="M934,869l107,81 2,-3 59,-116 4,-12 -113,-60Z"/>
    <path data-geo-id="5001570525" data-name="Stowe" d="M714,769l-22,43 26,17 -35,68 35,12 68,26 20,12 68,38 60,-116 -115,-65 16,-32 -78,-26 -18,31Z"/>
    <path data-geo-id="5001300860" data-name="Alburgh" d="M324,90h-20l-84,2h-2h-1h-12h-36l-5,17v1l-1,5 -1,2 -2,2 -2,18 9,13 1,2 4,5 2,2 -1,21 -1,23 1,20 -5,10 31,24 -5,43 6,35 20,3 20,-81 24,-40 19,-4 -9,-36Z"/>
    <path data-geo-id="5001335875" data-name="Isle La Motte" d="M168,233l-1,2 -4,2 -7,5 -2,5 -11,41 -4,15 -5,5v2h-2v3l-2,2 -3,13 2,7 2,10h1l4,3v3l1,2 2,2 5,5 3,1h1l1,4 3,1h1h1v2l3,3 1,2v2l2,1h2l1,2 2,2 1,1 1,2 1,2 32,-50 -6,-35 5,-43Z"/>
    <path data-geo-id="5001329275" data-name="Grand Isle" d="M156,455l-2,1v4l-1,3 -2,5 -2,2 -1,1 -1,2 -1,2 -2,1v2l-2,13v15v5l-1,18v12v2l1,5 1,1h1v4v1l-1,2 -1,3 -1,2 -2,2 -2,1v2l1,2 1,1v5l-3,2v3l147,-18 -2,-50 -25,-48v-38l-67,45Z"/>
    <path data-geo-id="5001367000" data-name="South Hero" d="M136,579v14l-2,5h-2l-2,5 -1,1 -5,14h-2v3l5,7 -3,3 -4,3 -1,2v3v5l-3,14 6,13v2v5l2,1 1,5 2,5 2,3h-2v5l-2,2 4,18 1,5v2l6,8 7,7 71,-20 41,-41 1,-49 15,-5 12,-63Z"/>
    <path data-geo-id="5001350650" data-name="North Hero" d="M168,385v1l2,2v2l4,1 1,2v2v3l1,3v15v2l-2,5 -1,2 -4,3 -1,2h-1l-1,1 -2,4 -4,5v1l-2,5v2l-1,3 -1,4 33,15 67,-45 17,-37 27,-20 21,-95 -1,-33 -37,-27 -19,4 -24,40 -20,81 -20,-3Z"/>
    <path data-geo-id="5000301450" data-name="Arlington" d="M220,2895l-1,28 -1,15 -1,5 -1,23 138,9 6,-137 -136,-6Z"/>
    <path data-geo-id="5000362875" data-name="Sandgate" d="M230,2697l-1,15 -4,71 -1,49 136,6 8,-138Z"/>
    <path data-geo-id="5000714875" data-name="Colchester" d="M143,739l71,-20 41,-41 60,1 101,53 -62,118h-15v2v-2l-21,-24 -10,20 -39,-35 -4,-19 -35,-1 -46,13 -2,-8v-4h-2h-2l-6,-15 -5,-11v-2l-3,-5h-1l-1,-2h-2l-6,-5h-1h-1l-1,-1h-2h-1v-2h-1v-3l-3,-4Z"/>
    <path data-geo-id="5000762050" data-name="St. George" d="M368,979l8,53 46,-7 -25,-33Z"/>
    <path data-geo-id="5001980200" data-name="Westfield" d="M994,220l6,135 135,-4 -1,-10 -10,-121h-127Z"/>
    <path data-geo-id="5001981700" data-name="Westmore" d="M1464,430l-33,46 93,63 13,10 24,-33 50,-70 -36,-25 -69,-53Z"/>
    <path data-geo-id="5000109025" data-name="Bristol" d="M439,1295l-81,10 3,36 36,12 15,130 30,-4 3,24 40,-5 11,-25 -22,-135 22,-3 -8,-52Z"/>
    <path data-geo-id="5000128600" data-name="Goshen" d="M468,1707l10,78v7h2h1h1l11,53 31,-15 5,-3 24,-12 -22,-81 -22,-10 23,-50h-62Z"/>
    <path data-geo-id="5001936325" data-name="Jay" d="M1094,100l-115,2 18,118h127l-22,-118Z"/>
    <path data-geo-id="5001903550" data-name="Barton" d="M1288,471l-5,14 116,58 59,28 -27,-95 33,-46 -122,-65Z"/>
    <path data-geo-id="5001928075" data-name="Glover" d="M1230,588l-5,11 115,59 3,-7 56,-108 -116,-58Z"/>
    <path data-geo-id="5001900475" data-name="Albany" d="M1120,514l-6,12 116,62 53,-103 5,-14 -115,-60Z"/>
    <path data-geo-id="5001916150" data-name="Coventry" d="M1231,293l110,58 41,-73 -28,-23 -55,-42 -20,-16Z"/>
    <path data-geo-id="5001909850" data-name="Brownington" d="M1341,351l1,14 122,65 42,-62 -82,-60 -42,-30Z"/>
    <path data-geo-id="5001913150" data-name="Charleston" d="M1424,308l82,60 69,53 51,-68 3,-5 -150,-111Z"/>
    <path data-geo-id="5001933775" data-name="Holland" d="M1653,99l-130,3 -29,1 -14,107h149l3,-17Z"/>
    <path data-geo-id="5001930175" data-name="Greensboro" d="M1170,704l-6,12 11,6 10,4 75,40 17,10 2,1 27,-51 34,-68 -115,-59Z"/>
    <path data-geo-id="5001916300" data-name="Craftsbury" d="M1052,644l13,7h3h2l1,2 20,11 79,40 55,-105 5,-11 -116,-62 -56,107Z"/>
    <path data-geo-id="5001940525" data-name="Lowell" d="M953,430h1l166,84 53,-103 -9,-5 30,-65h-28h-32l1,10 -135,4Z"/>
    <path data-geo-id="5001935575" data-name="Irasburg" d="M1194,341l-30,65 9,5 115,60 54,-106 -1,-14 -110,-58 -21,45Z"/>
    <path data-geo-id="5001946450" data-name="Morgan" d="M1480,210l-32,3 31,24 150,111 48,-58 -23,-17 -13,-10 -20,-18 8,-35Z"/>
    <path data-geo-id="5001948925" data-name="Newport" d="M1295,107h-10h-3l-72,-2 -44,236h28l16,-3 21,-45 48,-96 20,16 16,-36 -5,-43Z"/>
    <path data-geo-id="5001973525" data-name="Troy" d="M1163,104h-14h-6l-41,-2 22,118 10,121h32l44,-236Z"/>
    <path data-geo-id="5001948850" data-name="Newport" d="M1315,177l-16,36 55,42 -5,-45 25,-23 -23,-22Z"/>
    <path data-geo-id="5000706550" data-name="Bolton" d="M563,1060l77,23 26,-50h2l7,4h2l7,3 7,2 2,-2h1l2,2 2,-4 20,-41 -35,-18 35,-70 -35,-12 -52,-17 -31,60 -16,69Z"/>
    <path data-geo-id="5000713300" data-name="Charlotte" d="M186,1157l3,20 44,6 4,-1h8l30,-4h1h2l17,-3h13l2,-2 54,-8 -21,-130 -167,27Z"/>
    <path data-geo-id="5000734600" data-name="Huntington" d="M481,1032l13,90 48,15 8,91v-2l45,14 27,-78 -16,-9 34,-70 -77,-23Z"/>
    <path data-geo-id="5000733475" data-name="Hinesburg" d="M343,1035l21,130 29,-5 28,-7 9,-1h6l12,3 9,-2 33,-5 4,-26 -13,-90 -3,-15 -48,6 -8,2 -46,7Z"/>
    <path data-geo-id="5000736700" data-name="Jericho" d="M483,882l10,50 107,8 31,-60 -84,-116Z"/>
    <path data-geo-id="5000108575" data-name="Bridport" d="M87,1529l1,2 -8,55 5,74v1l155,-24 3,-95 -6,-33Z"/>
    <path data-geo-id="5000126300" data-name="Ferrisburgh" d="M189,1177l-7,19 -5,10h-2l-2,-1h-1h-2l-1,1h-1l-2,4 -2,1h-1l-1,2h-4l-1,7h-1l-2,1h-1l-1,2 -4,8 -5,10 -1,2 -3,3v2h-1v2l-4,8 -2,2h-1l-2,1 -4,7h-1l-3,2 -6,8h-1l-4,2 -5,20h-4l-6,38 135,-18 -1,-17 31,-5 3,23 27,5 43,12 -4,-30 -19,-135 -2,2h-13l-17,3h-2h-1l-30,4h-8l-4,1Z"/>
    <path data-geo-id="5000153725" data-name="Orwell" d="M119,1787l-3,5 -1,2h-1h-2l-2,1 -5,4 -1,3 -3,22 2,1 2,2 1,2 6,6 3,9v3v3h1l3,4 3,3v2l4,1h1v2l12,25 2,6 -5,12 -5,12h6l42,-5h4l32,-4 17,-1h2l1,-2h2h2h6l21,-3h7h2l8,-2h3l7,-2 -12,-101 -2,-10 -3,-20Z"/>
    <path data-geo-id="5000139325" data-name="Leicester" d="M327,1735l18,55h11l43,-3h6l73,-2 -10,-78 -57,7Z"/>
    <path data-geo-id="5000148700" data-name="New Haven" d="M260,1391l-8,40 34,28 39,12 -2,23 89,-11 -15,-130 -36,-12 -3,-36 -29,3 4,30 -43,-12 9,75Z"/>
    <path data-geo-id="5001748175" data-name="Newbury" d="M1473,1521l2,-2h1l1,-1v-2v-3h-1l-3,-9v-1l1,-4 3,-1h2l7,-5 6,-4 -1,-3h-2h-4l-2,-2v-1l1,-2 12,-2 1,-1 4,-10 2,-2 2,-7 17,-10 -13,-10 -1,-1 10,-5 1,-2h2l1,-3 1,-5v-5l-1,-2 -7,-3 -8,10h-1h-2l-1,-4 -2,-1 -1,-2v-3v-2l-1,-2 -1,-3v-2l-1,-1v-2l1,-2 1,-1v-5v-2v-2l1,-1h1v1h1l1,-3 2,-2h1v-1h3l3,-4 3,4 1,-4 1,-3 1,-2h1v-1v-2l-3,-2h-1l-2,-3 -1,-2h-1v-3v-3v-5h-2l2,-2v-1l-2,-2v-2v-1v-4l2,-3h1l-3,-2h-1l-1,-1h-1l-53,-20 -13,-5 -31,-12 -28,-13h-4l-39,183 17,5Z"/>
    <path data-geo-id="5001713525" data-name="Chelsea" d="M994,1473l29,141 120,53 14,-115 -125,-61Z"/>
    <path data-geo-id="5000561525" data-name="Ryegate" d="M1507,1333l2,-3 -4,-4 -2,-3 -5,-8 -2,-7 -10,-20h-1v-3v-2l1,-2v-1v-2l1,-2 4,-3 1,-2 1,-1 1,-4 -1,-3v-2l-1,-3 1,-2 2,-1h1l1,-2 2,-7 -1,-11 1,-2 1,-3 3,-10 1,-4 -1,-3 -2,-5 -5,-7 -4,-10 -134,-29 23,123 28,13 31,12 13,5 53,20h1l1,1Z"/>
    <path data-geo-id="5000577125" data-name="Waterford" d="M1569,1075l6,-2h5l57,-11 29,1 22,10 2,-1h1l2,-2 1,-2h1l10,-1h1l2,-2h2l1,-2h1l1,-1 4,-2 2,-2h1l1,-1 -100,-135 -106,78Z"/>
    <path data-geo-id="5000517125" data-name="Danville" d="M1315,954l5,-2h1v-2h1v2h1l1,2v1l-2,5v2l2,2 1,1h1l-5,14 -5,10 62,16 -3,20 73,18 7,2 50,-60 -40,-163 -56,-11 -14,25 -62,119 -13,-8 1,2 -1,1h-2h-1Z"/>
    <path data-geo-id="5000502875" data-name="Barnet" d="M1491,1185l-1,-2 2,-5 1,-1 -1,-4 -6,2 -1,-2h-1v-8l7,-15 1,-2 2,-1 2,-4 1,-1h1l5,-2 3,-5 5,-2 4,-1 4,-14v-6v-2l1,-2 -1,-3 -1,-2v-1l1,-4h1l18,-1 5,-2 3,-2 4,-1h2l1,-2h1l7,-3 3,-2 1,-2 2,-1 1,-7h1l-54,-75 -10,-15 -50,60 -97,117 134,29Z"/>
    <path data-geo-id="5000710675" data-name="Burlington" d="M230,791v35l2,3 44,83 41,-12 16,-43 -25,-11 -39,-35 -4,-19Z"/>
    <path data-geo-id="5000764300" data-name="Shelburne" d="M209,929l1,10 -26,63 -13,32 5,28 167,-27 33,-3 -8,-53 -12,-5 -67,-25 -1,-17 -12,-20 -41,-2 -24,14Z"/>
    <path data-geo-id="5000766175" data-name="South Burlington" d="M187,817h1l1,2h1l2,3 2,4h1l4,6 12,92 24,-14 41,2 -44,-83 -2,-3v-35l-46,13ZM276,912l12,20 1,17 67,25 8,-20 1,-5v-10l1,-2 7,-10 2,-55 -4,-40 -17,18h-15v2l-6,5 -16,43Z"/>
    <path data-geo-id="5000784475" data-name="Williston" d="M364,954l-8,20 12,5 29,13 25,33 8,-2 34,-84 29,-7 -10,-50 -44,-20 -23,13 -41,-3 -2,55 -7,10 -1,2v10Z"/>
    <path data-geo-id="5002303250" data-name="Barre" d="M995,1268l-23,58 40,19 68,26 13,7 24,-135 -63,-18 -41,-10 -14,36 43,4 8,41 -12,7Z"/>
    <path data-geo-id="5002346225" data-name="Moretown" d="M733,1215l58,43 51,37 47,-125 -80,-60 -30,-23Z"/>
    <path data-geo-id="5002305650" data-name="Berlin" d="M842,1295l99,36 31,-5 23,-58 4,-17 14,-36h-13l-21,8 -39,-13 -24,-22 -27,-18Z"/>
    <path data-geo-id="5002355825" data-name="Plainfield" d="M1096,1148l-42,77 63,18 24,12 30,13 6,-10 27,-52Z"/>
    <path data-geo-id="5002311350" data-name="Calais" d="M981,1062l115,61 62,-114 -115,-62 -2,3Z"/>
    <path data-geo-id="5002325825" data-name="Fayston" d="M563,1326l18,-1 43,-2 26,15 83,-123 -111,-53 -27,78Z"/>
    <path data-geo-id="5002343600" data-name="Marshfield" d="M1096,1123v25l108,58 21,-38 -2,-36 50,-62 -115,-61Z"/>
    <path data-geo-id="5002303175" data-name="Barre" d="M999,1251l-4,17 43,35 12,-7 -8,-41Z"/>
    <path data-geo-id="5002321925" data-name="East Montpelier" d="M981,1062l-24,46 7,49 32,28 4,30h13l41,10 42,-77v-25Z"/>
    <path data-geo-id="5002360625" data-name="Roxbury" d="M698,1486l64,27 18,8 62,25 42,-93 9,-20 -141,-55Z"/>
    <path data-geo-id="5002375325" data-name="Waitsfield" d="M650,1338l89,36 39,-66 13,-50 -58,-43Z"/>
    <path data-geo-id="5002350275" data-name="Northfield" d="M739,1374l13,4 141,55 6,3 42,-105 -99,-36 -51,-37 -13,50Z"/>
    <path data-geo-id="5002346000" data-name="Montpelier" d="M916,1188l24,22 39,13 21,-8 -4,-30 -32,-28 -7,-49Z"/>
    <path data-geo-id="5001917350" data-name="Derby" d="M1494,103l-37,1h-11h-12h-25h-7h-10h-25h-6l-66,3 15,27 5,43 36,-12 23,22 -25,23 5,45 28,23 42,30 55,-71 -31,-24 32,-3Z"/>
    <path data-geo-id="5002386125" data-name="Worcester" d="M934,869l-60,116 107,77 60,-112Z"/>
    <path data-geo-id="5002385525" data-name="Woodbury" d="M1043,947l115,62 61,-117 -108,-60 -9,-1Z"/>
    <path data-geo-id="5002376525" data-name="Warren" d="M581,1325l18,134 8,-1 23,1 34,14 34,13 54,-108 -13,-4 -89,-36 -26,-15Z"/>
    <path data-geo-id="5002125375" data-name="Fair Haven" d="M189,2106l1,10 -1,9v1h1v-1h2l2,1 2,2 3,5v2v1v2v7v5l-2,5 -1,1 -1,2v2h2l1,1 1,4 -2,1 -2,4 1,3 1,2 1,-4h1h9l2,2h1v3v2l2,2 1,-2h1h2l7,3v2v2h1h2h1l1,1 1,2 2,2h1h1l4,6v2l2,3v2l3,3 1,2h1v1l-1,4v3v2v1h1v5h2l1,3 2,-67 8,-117 -44,-2Z"/>
    <path data-geo-id="5002177950" data-name="Wells" d="M244,2341v10l-1,25v3l-1,8v7l-2,25 138,8 2,-41 -63,-50Z"/>
    <path data-geo-id="5002172925" data-name="Tinmouth" d="M378,2427l105,7 15,-70 4,-65 -49,-3 -38,-2 8,25 -32,67h-11Z"/>
    <path data-geo-id="5002182300" data-name="West Rutland" d="M451,2048l-52,3 8,44 19,91 45,-1h24l1,-30 -22,-29 -16,-5Z"/>
    <path data-geo-id="5002171050" data-name="Sudbury" d="M266,1902l-1,23 106,-3 -25,-128h-2l-56,3h-7l12,101 -7,2h-3l-8,2h-2Z"/>
    <path data-geo-id="5002376975" data-name="Waterbury" d="M718,909l-35,70 35,18 -20,41 -2,4h23l60,45 30,23 58,-73 -11,-18 18,-34 -68,-38 -20,-12Z"/>
    <path data-geo-id="5000131525" data-name="Hancock" d="M532,1674l-23,50 22,10 27,10h2l79,-40 2,56 10,4 52,-110 -100,-42 -36,-13Z"/>
    <path data-geo-id="5000145550" data-name="Monkton" d="M310,1173l19,135 29,-3 81,-10 -13,-97 4,-46 -9,1 -28,7 -29,5Z"/>
    <path data-geo-id="5000129575" data-name="Granville" d="M608,1511l-5,101 100,42 27,-35 50,-98 -18,-8 -64,-27 -34,-13 -34,-14 -23,-1Z"/>
    <path data-geo-id="5000144350" data-name="Middlebury" d="M313,1532v45l27,54 111,-15 -6,-113 -3,-24 -30,4 -89,11 3,38Z"/>
    <path data-geo-id="5000116000" data-name="Cornwall" d="M243,1542l-3,95 18,62 65,-5 17,-63 -27,-54v-45Z"/>
    <path data-geo-id="5002318550" data-name="Duxbury" d="M640,1083l-34,70 16,9 111,53 46,-128 -60,-45h-23l-2,-2h-1l-2,2 -7,-2 -7,-3h-2l-7,-4h-2Z"/>
    <path data-geo-id="5000174650" data-name="Vergennes" d="M263,1321l-3,-23 -31,5 1,17 22,16Z"/>
    <path data-geo-id="5000159650" data-name="Ripton" d="M445,1503l6,113 12,-2 -5,60h12h62l35,-75 36,13 5,-101 -124,-3 1,-10Z"/>
    <path data-geo-id="5000153950" data-name="Panton" d="M82,1359v42l-1,2 159,-24 12,-43 -22,-16 -135,18Z"/>
    <path data-geo-id="5000165050" data-name="Shoreham" d="M85,1661l15,44 20,34 -4,38 3,10 157,-20 -18,-68 -18,-62Z"/>
    <path data-geo-id="5000170075" data-name="Starksboro" d="M430,1152l-4,46 13,97 49,-12 8,52 67,-9 -13,-98 -8,-91 -48,-15 -4,26 -33,5 -9,2 -12,-3Z"/>
    <path data-geo-id="5000100325" data-name="Addison" d="M81,1403l-14,36 -6,60 4,4 2,1 7,9h3l3,3 7,13 150,-20 -17,-51 32,-27 -12,-52Z"/>
    <path data-geo-id="5000183275" data-name="Weybridge" d="M252,1431l-32,27 17,51 6,33 70,-10h13l-3,-38 2,-23 -39,-12Z"/>
    <path data-geo-id="5000176075" data-name="Waltham" d="M252,1336l-12,43 12,52 8,-40 39,10 -9,-75 -27,-5Z"/>
    <path data-geo-id="5000745250" data-name="Milton" d="M271,624l-15,5 -1,49 60,1 101,53 62,-114 -71,-40 -21,-12 -105,-55 2,50Z"/>
    <path data-geo-id="5000183800" data-name="Whiting" d="M258,1699l18,68 3,20 2,10h7l56,-3h2l-1,-4 -18,-55 -13,-16 9,-25Z"/>
    <path data-geo-id="5000140075" data-name="Lincoln" d="M496,1335l-22,3 22,135 -11,25 -1,10 124,3 -1,-53 -8,1 -18,-134 -18,1Z"/>
    <path data-geo-id="5001102500" data-name="Bakersfield" d="M683,348l-20,143 76,17 20,-57 24,-28 10,-2 28,-5 13,-1 19,-4 -2,-63Z"/>
    <path data-geo-id="5000569925" data-name="Stannard" d="M1279,777l116,59 14,-25 -103,-85Z"/>
    <path data-geo-id="5001105425" data-name="Berkshire" d="M827,90l-126,-1h-8l10,131 45,3 103,-10Z"/>
    <path data-geo-id="5001126500" data-name="Fletcher" d="M514,458l84,161 12,5h1l6,2 7,-10 3,-3h1l44,-82 12,5 46,23 9,-51 -76,-17Z"/>
    <path data-geo-id="5001125225" data-name="Fairfield" d="M431,440l83,18 149,33 20,-143 3,-31 -168,-32 -7,42 14,51 19,12Z"/>
    <path data-geo-id="5001124050" data-name="Enosburgh" d="M686,317l-3,31h168h17l-6,-60 -5,-65 -6,-10 -103,10 -45,-3v7l6,3Z"/>
    <path data-geo-id="5001127100" data-name="Franklin" d="M693,89h-10l-139,1h-16l12,74 83,43 80,20v-7Z"/>
    <path data-geo-id="5001161675" data-name="St. Albans" d="M415,390l26,10 9,-25 -33,-2Z"/>
    <path data-geo-id="5001164600" data-name="Sheldon" d="M623,207l-160,33 19,35 36,10 168,32 23,-87 -6,-3Z"/>
    <path data-geo-id="5001145850" data-name="Montgomery" d="M851,348l2,63 51,-8 34,13 15,14 47,-75 -6,-135 -137,3 5,65 6,60Z"/>
    <path data-geo-id="5002507900" data-name="Brattleboro" d="M982,3176l6,-10 -145,-3 -3,103 128,5h16l-12,-45 5,-47Z"/>
    <path data-geo-id="5002518325" data-name="Dummerston" d="M988,3166l17,-27 -9,-55 3,-2v-1h1l10,-10 -1,-7 -92,-3 -28,-2 -13,70 -30,-3 -3,37Z"/>
    <path data-geo-id="5002540225" data-name="Londonderry" d="M650,2717l-3,56 95,37 10,-62 33,-36 6,-28 -1,-7 -28,-10 -43,-15 -24,-8 -28,-12 -6,85Z"/>
    <path data-geo-id="5002557700" data-name="Putney" d="M1059,3057l2,-4 9,-28 21,-20 2,-3 -17,-16 -135,-5 -24,80 92,3 1,7Z"/>
    <path data-geo-id="5002574800" data-name="Vernon" d="M962,3406l108,4h7l-20,-46 -33,-27 -32,-36 -2,-7 -2,-8 -4,-15h-16Z"/>
    <path data-geo-id="5000363175" data-name="Searsburg" d="M493,3114l-6,104 93,3 4,-100 -55,-3Z"/>
    <path data-geo-id="5001133025" data-name="Highgate" d="M472,89l-12,-2h-3l-23,2h-7l-81,1 20,25 -10,27 -6,13 8,28 105,57 160,-33 -83,-43 -12,-74Z"/>
    <path data-geo-id="5000510450" data-name="Burke" d="M1577,578l-28,128 72,13 -2,18 37,15 56,-78 -69,-51Z"/>
    <path data-geo-id="5000530550" data-name="Groton" d="M1177,1258l-6,10 65,30h8l112,-13h21h4l-23,-123 -135,-30 2,36 -21,38Z"/>
    <path data-geo-id="5000531825" data-name="Hardwick" d="M1106,819l-4,12 9,1 108,60 2,2 58,-117 -2,-1 -17,-10 -75,-40 -10,-4 -11,-6Z"/>
    <path data-geo-id="5002501900" data-name="Athens" d="M884,2830l-1,30 48,5 -10,46 32,2 11,-83 8,-30 -49,7Z"/>
    <path data-geo-id="5000317725" data-name="Dorset" d="M375,2565l-7,135 134,9 24,1 3,-120 -17,-20h-3l-102,-3Z"/>
    <path data-geo-id="5000304825" data-name="Bennington" d="M210,3106l-1,17v10l-1,35 -3,79 132,4 8,-140Z"/>
    <path data-geo-id="5000537900" data-name="Kirby" d="M1595,849l26,73 8,-5 17,-10 54,-65 -54,-73 10,-17 -37,-15Z"/>
    <path data-geo-id="5000562200" data-name="St. Johnsbury" d="M1465,822l40,163 10,15 106,-78 -26,-73Z"/>
    <path data-geo-id="5000541725" data-name="Lyndon" d="M1492,696l-27,126 130,27 24,-112 2,-18 -72,-13Z"/>
    <path data-geo-id="5000547725" data-name="Newark" d="M1537,549l40,29 66,45 23,-30 32,-45 19,-27 -21,-15 -85,-60 -50,70Z"/>
    <path data-geo-id="5000554400" data-name="Peacham" d="M1223,1132l135,30 97,-117 -7,-2 -73,-18 3,-20 -62,-16 -43,81Z"/>
    <path data-geo-id="5000564075" data-name="Sheffield" d="M1343,651l-3,7 112,56 30,-56 -24,-87 -59,-28Z"/>
    <path data-geo-id="5001707600" data-name="Braintree" d="M730,1619l8,48 78,27 4,2 70,-134 -48,-16 -62,-25Z"/>
    <path data-geo-id="5001709325" data-name="Brookfield" d="M842,1546l48,16 133,52 -29,-141 -95,-37 -6,-3 -9,20Z"/>
    <path data-geo-id="5001753425" data-name="Orange" d="M1117,1243l-24,135 99,46 18,5 26,-131 -65,-30 -30,-13Z"/>
    <path data-geo-id="5001715700" data-name="Corinth" d="M1157,1552l147,40 9,-18 42,-101 -17,-5 -128,-39 -18,-5Z"/>
    <path data-geo-id="5001758075" data-name="Randolph" d="M890,1562l-70,134 92,34 31,14 12,5 68,-135Z"/>
    <path data-geo-id="5001725675" data-name="Fairlee" d="M1381,1750l-5,-10 -1,-3 52,-54 6,-27 13,-22 5,-7 -2,-3 -69,-23 -58,126Z"/>
    <path data-geo-id="5001770675" data-name="Strafford" d="M1143,1667l-68,132 129,41 67,-130 -12,-5Z"/>
    <path data-geo-id="5001774950" data-name="Vershire" d="M1143,1667l116,38 45,-113 -147,-40Z"/>
    <path data-geo-id="5001779975" data-name="West Fairlee" d="M1259,1705l12,5 51,17 58,-126 -67,-27 -9,18Z"/>
    <path data-geo-id="5001773675" data-name="Tunbridge" d="M955,1749l120,50 68,-132 -120,-53Z"/>
    <path data-geo-id="5001773075" data-name="Topsham" d="M1236,1298l-26,131 128,39 39,-183h-21l-112,13Z"/>
    <path data-geo-id="5001772400" data-name="Thetford" d="M1342,1897v-4l18,-41 5,-42 2,-6 -5,-37h1l11,-8 7,-5h1l-1,-4 -59,-23 -51,-17 -67,130 121,48Z"/>
    <path data-geo-id="5001784175" data-name="Williamstown" d="M899,1436l95,37 38,18 48,-120 -68,-26 -40,-19 -31,5Z"/>
    <path data-geo-id="5001707375" data-name="Bradford" d="M1449,1624l-3,-5 -10,-8 4,-47 3,-2 1,-1h1h1l1,-2 1,-2 -1,-1v-4l-1,-1 -1,-4v-1l1,-2h1l1,-2h1l2,-3h1l9,10 -6,-12v-1l1,-4v-1l1,-2h1l1,-3 11,6 1,-3v-3h-1v-2l1,-1 1,-2h1l-118,-48 -42,101 67,27Z"/>
    <path data-geo-id="5001776750" data-name="Washington" d="M1080,1371l-48,120 125,61 35,-128 -99,-46Z"/>
  </g>
  <path class="mesh" transform="scale(0.1)" d="M962,3406l6,-135 -128,-5 -6,136M862,2506h-19l-1,41 -5,145h9l-6,131 46,-8 -2,15 39,-23 49,-7 2,-126 -53,6 -75,12M785,2943l-9,38 97,7 21,52 -5,19 28,2 24,-80 12,-68 -32,-1 -18,78 -30,-2M840,3266l-130,-3v5l-7,128M715,3126l-5,137M840,3266l3,-103 3,-37h-106M650,2579l-7,138h7h11l6,-85 28,12v-65h-13h-11h-21h-5l-17,-2 -99,-5v18l-3,120 117,7M574,3392l5,-131 1,-40 -93,-4 -3,41 -6,131M346,3383l9,-132h-18l-132,-3M230,2697l138,3 -8,138 139,5 3,-135 -134,-8 7,-134 -52,-5h-2l-72,-5h-14M360,2838l-6,137 -9,136 147,3 7,-133v-3l-145,-3 -138,-9M1492,696l57,10 28,-128 -40,-29 -13,-10 -93,-63 27,95 24,87M451,2048l7,73 16,5 25,-56 -4,-24M474,2126l22,29 -1,30 82,-5 -5,-132 -1,-5M497,2135l4,-35 62,11 1,42 -48,10 -19,-28M189,2106l25,-65 -133,-8M645,2579l2,-68 13,-36 1,-29 -24,-2 -124,-7 -4,134h3l17,19M579,3261l131,7M487,3217l5,-103 37,4 56,3 -5,100M921,2912l10,-47 -48,-5 1,-30M840,2823l-28,10M589,3028l-4,93 130,5h25l22,-93 -133,-5h-40l2,-42 -92,-5M629,3028l9,-92M641,2850l-3,86 147,7 27,-110 -70,-23 -95,-37 -6,77h-5h-4l-27,-2 -3,-3 -77,-4 -19,2 -7,135M484,3258l-129,-7M210,3106l135,5 -8,140M506,2843h-7M647,2773l3,-56M526,2710l-24,-2M240,1637l17,62 66,-5 -9,25 13,16 84,-21 57,-7 2,-33h-12l5,-60 -12,2 -111,15 -17,63M1221,894l-2,-2 -61,116 115,62 43,-82 5,-10 5,-13h-1l-1,-2 -2,-1v-2l2,-5v-1l-1,-2h-1v-2h-1v2h-1l-5,2 2,-4h1h2l1,-1 -1,-2M1694,302l-17,-12 -48,58 -3,5 -51,68 36,25 85,60 21,15 104,73 78,57 -44,-133 -4,-28 -36,-99 -25,-18 -45,55 1,10 -50,68M882,1869l73,-120 -12,-5 -31,-14 -92,-35 -4,-1 -61,126 107,42 -56,138 24,8 112,43 56,-136 -116,-46 -20,-7M762,2163l-16,-7 -2,19 -14,113 17,33 24,7 23,6 68,23v149l59,5 28,-31 43,-18 9,-91 -139,-18v4M830,2008l-9,17 -59,138 116,38 10,4 63,-147 -9,-7M974,2674h6l5,-160 -64,-3M762,3033l14,-52M862,2353l16,-152M794,2334l2,10 -13,58 -24,59v40l83,46M1212,2136l-144,-36 -8,10 -57,131 82,12 57,8M998,1915l5,2 93,36 15,15 3,-6 90,-122 -129,-41 -72,118M1142,2392l-62,-8 -79,-13 -3,-130 -110,-36M951,2058l14,-2 91,32 55,-120M1857,94l-3,3 104,76 93,70 16,-5M1958,173l-63,112 99,72M1959,857l-105,-78 -92,50 61,139M1977,599l-122,-81M1899,651l32,22 76,58M481,1032l12,90 49,15 8,91 13,98 32,-86 -45,-14v2M254,678l61,1 101,53M846,3126l30,3 13,-70M1101,2677l-40,-3h-27h-7h-36h-6h-1h-4M972,2800l-7,30 132,3M965,2830l-12,83M941,2981l135,5M837,2692l-26,-8 -18,-5 -3,-2 1,7 -6,28 -33,36 -10,62M827,90l24,123 6,10 137,-3h3l-18,-118M1929,471l-102,-71 -12,-9M1238,2010l-124,-48M1056,2088l12,12M985,2514l7,-52M759,2501l-5,108 8,58 28,10M816,1694l-78,-27 -8,-48 -27,35 -52,110 -10,-3 -2,-57 -79,40h-2l-27,-10 22,81 62,-35 23,-9 4,24 25,10 20,-8 40,22h1l-2,3 5,8 3,10h-1l4,7 18,-27M324,90l-50,87 9,36 37,27 1,33 204,105 -14,-51 7,-42 -36,-10 -19,-35 -105,-57 -8,-28 6,-13 10,-27 -20,-25M136,579l147,-18 -2,-50M596,644l-1,-8 1,-4 1,-1 -2,-2 1,-8 2,-2 -84,-161 -83,-18 -65,-35 -66,76 -19,30 105,55 21,12 71,39 -47,-177 113,-50 -19,-12M415,390l2,-17 33,2 -9,25 -26,-10M866,543l68,36 -55,109 38,23 46,21 12,-16 33,16 44,-88 6,-12 -120,-61 -4,8M985,2514l147,12M737,1847l-39,85 14,5 -14,38 73,28 24,10 4,2 22,10M695,2644l24,8 43,15M759,2501l-34,-19 -35,-20 -30,13M1080,2384l5,-131M1003,2241h-5M395,2031l-136,-6 -2,18 -7,117 136,5 4,-70h17l-8,-44M572,2048l85,-42 21,-36 14,-27 -49,-94 -1,-54M553,1815l-24,12 -5,3 -32,15M214,2041l43,2M259,2025l6,-100 1,-23 -21,3h-6h-2h-2l-1,2h-2l-17,1 -32,4h-4l-42,5h-6M386,2165l-6,70 -50,58h-12l-1,43 63,50h11l32,-67 -8,-25 -23,-59h-12M637,2444l6,-128 -61,3 -1,-8h-34v-15l-45,3 -4,65 -15,70 30,3M495,2185h-24l-18,111 49,3M483,2434l-105,-7 -3,139 32,1 102,4M507,1915l-15,-70 -10,-53h-1h-1h-2v-7l-73,2h-6l-43,3h-11l1,4 25,128 24,109 4,20 52,-3 -7,-32 24,10 27,20 76,-3 -64,-128 -136,7 -106,3M747,2321l-39,-8 -65,3M657,2006l33,-13 -45,123 101,40M698,1975l-20,-5M415,2294l38,2M471,2185l-45,1 -19,-91M581,2311l-4,-131 167,-5M378,2427l-138,-8M244,2341l73,-5M250,2160l-2,67M879,688l-34,38 -66,-25 -22,45 78,26 -16,32 115,65 59,-110 15,-27M1800,187h-94l-12,115 26,20 68,-115M1790,373l-70,-51M1854,97l-7,13 -47,77 -12,20 107,78 -68,115M1762,829l-38,23 -24,-10 -54,65 -17,10 -8,5 100,135M1821,594l-72,105 105,80 77,-106M1717,521l-19,27 -32,45 -23,29 69,52 37,25M1706,187l-51,3 -14,73 13,10 23,17M1712,674l-56,78 -10,17 54,73M1653,99l-22,94 24,-3M993,759l113,60 58,-103 6,-12 -79,-40 -20,-11 -1,-2h-2h-3l-13,-7M714,769l25,8 18,-31M779,701l21,-43 -38,-19 25,-48 -57,-32 -47,-23 -11,-5 -44,81h-1l-3,4 -7,10 -6,-2h-1l-12,-5M1631,193l-2,17 -8,35 20,18M783,423l1,78 40,20 42,22 72,-127 -34,-13 -51,8 -19,4 -13,1 -28,5 -10,2 -24,28 -20,57 -9,51M787,591l37,-70M1058,632l56,-106 6,-12 -166,-84h-1l-15,-14M682,897l36,12 68,26 20,12 67,38 61,-116 107,81 2,-3 59,-116 4,-12M168,233l31,24 -5,43 6,35 20,3 20,-81 24,-40 19,-4M168,385l32,-50M255,425l-66,45 -33,-15M143,739l71,-20 40,-41 1,-49 16,-5 12,-63M360,2838l-136,-7M354,850l17,-18 4,40 41,3 23,-13 44,20 64,-118 -131,-32 -62,118h-15v2M308,845l-39,-34 -4,-19 -35,-1 -46,13M994,220l6,135 135,-3 -1,-10 -10,-122h-127M1575,421l-69,-53 -42,62 -33,46M1537,549l24,-33 50,-70M468,1707l10,78M531,1734l-22,-10 23,-50h-62M1124,220l-22,-118M1464,430l-122,-65 -54,106 -5,14 116,58 59,28M1283,485l-53,103 -5,11 115,59 -34,68 103,85 56,11 27,-126 -10,-38 -30,56 -112,-56 3,-7 56,-108M1114,526l116,62M1288,471l-115,-60 -53,103M1341,352l1,13M1506,368l-82,-60 -42,-30M1629,348l-150,-111 -55,71M1494,103l-14,107h149M1164,716l11,7 10,3 75,40 17,10 2,1 -58,117 93,50 6,3 13,8 62,-119 -116,-59 27,-51M1225,599l-55,105M1173,411l-9,-5 30,-64h-28h-32M1000,355l-47,75M1231,293l110,59 41,-74 -28,-23 -56,-42 -19,-16 -48,96 -21,45 -16,4M1480,210l-32,3 31,24M1210,105l-44,237M1298,213l17,-36 -5,-43 -15,-27M1354,255l-5,-45 25,-23 -23,-22 -36,12M563,1060l77,23 26,-49h2l7,3h2l6,3 8,2 2,-2h1l2,2 2,-3 20,-42 -36,-19 36,-69M631,880l-31,60M189,1177l44,6 4,-1h8l30,-4h1h2l17,-3h13l2,-2 54,-8 -21,-130 -167,27M595,1240l27,-78 -16,-9 34,-70M364,1165l30,-5 27,-7 9,-1h6l12,3 9,-2 33,-5 3,-26M430,1024l48,-7 3,15 82,28 22,-52 15,-68 -108,-8 -28,7 -34,85 -8,1M376,1032l-33,3M483,882l9,50M85,1660l155,-23 3,-95 -6,-33 -150,20M95,1338l135,-19 -1,-16 31,-5 3,23 27,5 43,12 -4,-30 -19,-135M266,1902h7h2l8,-2h3l7,-2 -12,-101 -2,-10 -3,-20 -157,20M327,1735l18,55M290,1326l9,75 -39,-10 -8,40 34,28 39,12 -2,23 89,-11M358,1305l-29,3M1508,1336l-1,-2h-1l-53,-20 -13,-5 -31,-11 -28,-13h-4l-39,183 17,5 118,48M1492,1191l-134,-29 23,123M1619,737l-24,112 26,73 -106,78 54,75M1595,849l-130,-27M1409,811l-14,25M1515,1000l-10,-15M230,791v35l2,3 44,83 41,-12 16,-43M368,978l8,54 46,-7 -25,-33 -29,-14 -12,-5 -67,-24 -1,-17 -12,-20 -41,-2 -24,14M356,973l8,-19 1,-5v-10l1,-2 7,-10 2,-55M809,1110l80,60 27,18 41,-80 24,-46 -108,-77 -17,34 11,18 -58,73 -30,-23 -46,128 58,43 51,37 47,-125M842,1295l99,36 31,-5M995,1268l-23,58 41,18 67,27 13,7 24,-135 -63,-18 -40,-10 -15,36 43,4 8,41 -12,7 -43,-35 4,-17M1014,1215h-14l-21,8 -39,-13 -24,-22M1117,1243l24,12 30,13 6,-10 27,-52 -108,-58 -42,77M1041,950l-60,112 115,61 62,-115 -115,-61M496,1334l67,-8 18,-2 43,-1 26,15 83,-123 -111,-53M1096,1123v25M1204,1206l21,-38 -2,-36 50,-62M957,1108l8,49 31,28 4,30M581,1324l18,135 8,-1 23,1 34,14 34,13 64,27 18,8 62,25 42,-93 9,-20 -141,-55 -54,108M650,1338l89,36 39,-66 13,-50M739,1374l13,4M893,1433l6,3 42,-105M1219,892l-108,-60 -9,-1M378,2427l2,-41M346,1794h-2l-56,3h-7M696,1042h23l60,45M703,1654l-100,-42 -36,-13 -35,75M439,1295l-81,10 3,36 36,12 15,130 30,-4 2,24 41,-5 11,-25 -22,-135 22,-4 -8,-51 -49,12 -13,-97 4,-46M607,1458l1,53 -5,101M730,1619l50,-98M323,1494l3,39h-13v44l27,54M451,1616l-7,-113M313,1533l-70,9M230,1319l22,17 11,-15M608,1511l-124,-3 1,-10M81,1403l159,-24 12,-43M276,1767l-19,-68M237,1509l-17,-51 32,-27 -12,-52M853,411l-2,-63h-169l-19,143 76,17M693,89l10,131 45,3 103,-10M663,491l-149,-33M682,348l4,-31 -168,-32M851,348h17l-6,-60 -5,-65M703,220v7l6,3 -23,87M528,90l12,73 83,44 80,20M623,207l-160,33M989,3166l-146,-3M968,3271h16M1011,3071l-2,-7 -92,-3M1549,706l72,13 -2,18 37,15M1643,622l-66,-44M1171,1268l65,30h8l112,-13h21M1455,1045l-97,117 -135,-30M820,1695l70,-133 -48,-16M1342,1897l-17,-8 -121,-49 67,-130 -12,-5 -116,-38 -68,132 -120,-50 68,-135M994,1473l29,141 120,53 14,-115 -125,-61 -38,-18 -95,-37M1093,1378l99,46 18,5 26,-131M1192,1424l-35,128 147,40 9,-18 42,-101M1338,1468l-128,-39M1449,1624l-69,-23 -58,126 59,23M1259,1705l45,-113M1271,1710l51,17M1380,1601l-67,-27M1032,1491l48,-120M610,648l-63,116 84,116 51,17 36,-68 -26,-17 22,-43 -20,-7 -84,-114 -14,-4 -89,-20 -29,-7 -62,115M321,273l-21,95 -27,20 -18,37v38l26,48M1316,988l62,17 -3,20 73,19 7,1 50,-60 -40,-163M890,1562l133,52"/>
  <g class="cities">
    <circle r="3" cx="29.7" cy="87.1"/>
    <text x="29.7" y="87.1">Burlington</text>
    <circle r="3" cx="53.7" cy="212.8"/>
    <text x="53.7" y="212.8">Rutland</text>
    <circle r="3" cx="29.2" cy="319.0"/>
    <text x="29.2" y="319.0">Bennington</text>
  </g>
</svg>