<?xml version="1.0" encoding="utf-8"?>
<!DOCTYPE svg PUBLIC "-//W3C//DTD SVG 1.1//EN" "http://www.w3.org/Graphics/SVG/1.1/DTD/svg11.dtd">
<svg version="1.1" xmlns="http://www.w3.org/2000/svg" width="350" height="230" viewBox="0 0 350 230">
  <path class="state" transform="scale(0.1)" d="M1040,1080l27,14 -62,31 3,-71 17,-38 18,28 -3,36M855,1156l12,48 -15,18 -20,-37 3,-28 20,-1M1003,898l19,41 -15,36 -22,-13 12,-80 6,16M368,1634l15,14 -2,34 -20,-23 7,-25M950,340l10,16 -23,15 -5,-27 18,-4M944,650l1,53 -21,-18 20,-35M1065,556l10,-30 -10,-19 -52,-30 -10,-33 -38,9 -5,-46 29,-22 38,41 13,-62 20,-28 -25,-27 -10,-49 13,-18 -31,-18 -37,39 2,-35 -23,-20 -4,-28 -31,-29 20,-23 -30,-15 26,-31 233,6 175,6h371l371,-2 454,-7 259,-9 316,-13 162,-6 18,389 5,205 27,489 24,519 -6,49 16,7 32,60 13,62 -8,38 20,50 -245,10 -51,1 -171,5 -94,5 -334,8 -60,44 -56,-3 -100,23 -50,-8 -30,41 -85,13 -41,7 -90,41 -18,23 -70,15 -55,2 -25,-24 -32,-4 -26,18 -70,27 -29,20 -53,-12 -45,31 -23,-4 -7,-32 -54,-24 -27,7 -53,-20 -77,17 -48,-7 -28,9 -24,28 -141,59 -98,-22 -87,-25 -31,-19 -12,-27 7,-31 -15,-47 6,-23 -11,-66 -37,-81 -91,-67 -40,7 -48,7 -67,-73 -62,7 -43,-21 -33,3 -32,25 -58,-48 -30,27 12,-52 5,-69 -2,-109 18,36 -5,84 5,47 54,-34 -22,-26 22,-47 -25,-40 16,-38 27,-16 18,9 -33,-41 -35,6 3,19 -49,-20 -2,-35 -13,-70 18,28 20,-21 96,-35 -75,-18 -10,-32 -39,-7 -14,9 7,50 -18,10 3,-125 -22,-103 -16,-8 -22,-63 -5,-81 -22,-127 -25,-51 -49,-43 -24,-59 -3,-77 -17,-46 37,-100 -28,-32 40,-2 31,16 72,53 55,15 78,58 28,9 85,9 28,-7 52,22 88,17h53l47,-21 31,25 4,34 20,22 -10,-36 44,-8 -5,19 39,13 -24,-21 24,-35 35,-3 -24,34 35,63 17,11 17,66 -49,35 -11,73h-24l19,-60 -7,-44 -40,105 -40,49 -30,61 -25,27 -21,68h56l48,-20 30,-29 -56,23 -23,23 -39,-21 44,-79 48,-63 68,-27 2,-32 28,-48 33,-36 17,24 -8,-61 31,23 2,53 13,31 -36,-1 -12,35 -10,76 -20,-16 -13,-35 -9,30 35,21 -31,26 38,-12 25,-24 2,40 18,5 -25,68 -8,47 8,30 -15,16 -40,-21 23,-72h-3l-38,40 -12,36 8,39 -20,31 -23,-50 20,-37 -8,-34 -17,30 -35,17 -16,70 -27,9 -23,34 31,-27 35,-8 -41,58 35,-27 11,38 2,-58 40,-22 10,32 38,19 35,-41 37,-68 -2,-27 41,36 10,-36 37,-14 2,-35 -17,-36 -20,-75 33,-18 -38,-35 23,-29 -5,-43 24,-42 15,-63 33,-14 -2,-37 -23,-16 -30,-44v-57l-12,-8 -23,-3 -12,28 14,35 -29,-1 -6,-74 28,-12 25,14M990,463l-1,25 34,37 -64,10 -2,24 25,22 18,55 7,61 6,-47 62,43 10,38 -12,27 -23,6 -20,-48h-25l-26,-26 -2,-79 -63,-40 46,-113 30,5M872,362v31l27,52 -54,-30 10,-51 17,-2M837,336l27,9 -20,20 -27,-25 20,-4M762,315l55,42 7,60 -52,-20 -21,-44 11,-38M867,262l63,33 -36,38 -37,-55 23,52h-46l-22,-18 37,-47 18,-3"/>
  <g class="counties" transform="scale(0.1)">
    <path data-fips-int="53001" data-name="Adams County" d="M2931,1157l9,215 -4,29 -28,62 -22,-4 -50,25 -261,11 -233,4 -1,-110 164,-3 -5,-217 84,-3Z"/>
    <path data-fips-int="53003" data-name="Asotin County" d="M3345,1659l-6,49 16,7 32,60 13,62 -8,38 20,50 -245,10 -1,-78 25,-1 -7,-163 27,-18 53,-3 -2,-31 9,20Z"/>
    <path data-fips-int="53005" data-name="Benton County" d="M2308,1536l21,42 63,70 -1,74 8,37 -8,27 28,24 72,25 29,33 15,70 -18,16 -60,44 -56,-3 -100,23 -50,-8 -30,41 -85,13v-127l-6,-150 -2,-217 116,-19 35,-45Z"/>
    <path data-fips-int="53007" data-name="Chelan County" d="M1772,386l20,-3 8,41 -16,12 10,33 36,24 -11,24 31,6 18,27 49,31 -4,38 64,49 31,13 33,59h79l-19,58 -18,12 -17,44 -78,11 -15,17 10,25 -15,64 -28,45 -5,40 25,46 55,10 16,15 -1,49 -127,1 -53,-37 -61,-13 -60,-48 -47,-4 -33,-57 -22,-10 -28,-39 -3,-55 23,-13 -23,-46 20,-25 -30,-14 -14,-38 7,-34 20,-28 -15,-24 62,-24 21,-17 -5,-22 25,-13 -25,-30 -15,-52 -28,-15 12,-17 -12,-28 15,-65 35,-2 51,-30 24,24Z"/>
    <path data-fips-int="53011" data-name="Clark County" d="M1107,1925l-5,128 -2,188 -98,-22 -87,-25 -31,-19 -12,-27 7,-31 -15,-47 6,-23 29,-13 -9,-26 37,-9 78,-35 63,17 19,-54Z"/>
    <path data-fips-int="53013" data-name="Columbia County" d="M3116,1936l-171,5 -2,-129 -57,2v-54l-53,2 -6,-165 4,-21 7,2 22,21 93,-26 23,3 17,-25 -2,95 53,-2 12,46 18,36 29,-1 3,135Z"/>
    <path data-fips-int="53015" data-name="Cowlitz County" d="M1112,1718l-5,207 -20,2 -19,54 -63,-17 -78,35 -37,9 9,26 -29,13 -11,-66 -37,-81 -91,-67 -40,7 1,-132Z"/>
    <path data-fips-int="53017" data-name="Douglas County" d="M2489,733l-50,1 -8,27 -37,20 2,54 -35,46v36l-17,36h-26l-54,55v54l-143,4 -18,46 -37,28v63l-23,-3 -13,-24 1,-49 -16,-15 -55,-10 -25,-46 5,-40 28,-45 15,-64 -10,-25 15,-17 78,-11 17,-44 18,-12 19,-58 -10,-60 50,-29 34,6 -1,41 30,18 48,-54 68,19 15,-41 22,7 48,-31 45,24 10,41 23,16Z"/>
    <path data-fips-int="53019" data-name="Ferry County" d="M2793,76l-6,39 5,39 41,84 2,102 -33,72 33,128 -22,26v42l-21,13 5,41 -42,9 -18,18 16,29 5,48 -18,42 -30,-30h-37l4,-24 -68,-14 -14,29 -38,-15 -13,-20 1,-18 -6,-309 -12,-11 -2,-96h14l-5,-215Z"/>
    <path data-fips-int="53021" data-name="Franklin County" d="M2836,1484l-16,5 25,68 -7,21 -7,-2 -54,-3 -15,13 -34,-10 -63,63 -3,55 -45,33 -12,42 -36,27 -50,10 -28,29 -72,-25 -28,-24 8,-27 -8,-37 1,-74 -63,-70 -21,-42h34v-37l233,-4Z"/>
    <path data-fips-int="53023" data-name="Garfield County" d="M3262,1641l2,31 -53,3 -27,18 7,163 -25,1 1,78 -51,1 -10,-76 -3,-135 -29,1 -18,-36 -12,-46 -53,2 2,-95h18l28,-47 35,-4 22,16 62,-18 34,50 60,44Z"/>
    <path data-fips-int="53025" data-name="Grant County" d="M2489,733l5,11 2,186 4,239 5,217 -164,3 1,110v37h-34l-29,-30 -35,45 -116,19 -35,-35 -8,-32 20,-48 -19,-27v-54l-31,-85 15,-31 -4,-55v-63l37,-28 18,-46 143,-4v-54l54,-55h26l17,-36v-36l35,-46 -2,-54 37,-20 8,-27Z"/>
    <path data-fips-int="53033" data-name="King County" d="M1040,1080l27,14 -62,31 3,-71 17,-38 18,28ZM1596,855l23,46 -23,13 3,55 -42,17 -41,56 -48,35 -19,34 14,48 38,5 -8,37 16,5 8,45 -43,14 12,22h-28l-27,-23h-37l-11,-19 -70,-15 -25,19 -38,3 -70,-40 -15,-36 -83,-2 -34,-39 37,-14 2,-35 -17,-36 -20,-75 33,-18 -38,-35 23,-29 -5,-43 122,4Z"/>
    <path data-fips-int="53037" data-name="Kittitas County" d="M1599,969l28,39 22,10 33,57 47,4 60,48 61,13 53,37 127,-1 13,24 23,3 4,55 -15,31 31,85v54l19,27 -20,48 -230,1v-53l-53,-2v-53h-166l-29,-49 -55,-47 -16,-11 -50,-2 -12,-22 43,-14 -8,-45 -16,-5 8,-37 -38,-5 -14,-48 19,-34 48,-35 41,-56Z"/>
    <path data-fips-int="53039" data-name="Klickitat County" d="M2136,1937v127l-41,7 -90,41 -18,23 -70,15 -55,2 -25,-24 -32,-4 -26,18 -70,27 -29,20 -53,-12 -45,31 -23,-4 -7,-32 -54,-24 -27,7 -53,-20 -7,-30 -32,-6v-163h39l186,2Z"/>
    <path data-fips-int="53041" data-name="Lewis County" d="M724,1455v19l409,9 158,24 32,-33 130,2 10,27 28,10 -23,45 13,8 -12,50 -18,31 25,74h-55l-309,-3 -420,-10 -59,-1 1,-254Z"/>
    <path data-fips-int="53043" data-name="Lincoln County" d="M2544,734l13,20 38,15 14,-29 68,14 -4,24h37l30,30 18,-42 55,-32 57,88 31,-21 29,5 20,-17 28,14 12,351 -59,3 -347,9 -84,3 -4,-239 -2,-186Z"/>
    <path data-fips-int="53045" data-name="Mason County" d="M855,1156l12,48 -15,18 -20,-37 3,-28ZM812,951l-30,61 -25,27 -21,68h56l48,-20 30,-29 -56,23 -23,23 -39,-21 44,-79 93,3 -2,72 -3,27 -17,30 -35,17 -16,70 -27,9 -23,34 -54,8 -121,-4 2,-100 -5,-9 5,-162 3,-55Z"/>
    <path data-fips-int="53047" data-name="Okanogan County" d="M2534,85l5,215h-14l2,96 12,11 6,309 -1,18 -50,10 -5,-11 13,-36 -23,-16 -10,-41 -45,-24 -48,31 -22,-7 -15,41 -68,-19 -48,54 -30,-18 1,-41 -34,-6 -50,29 10,60h-79l-33,-59 -31,-13 -64,-49 4,-38 -49,-31 -18,-27 -31,-6 11,-24 -36,-24 -10,-33 16,-12 -8,-41 -20,3 7,-21 -30,-9 -14,-29 15,-20 30,-24v-24l-23,-30v-49l-12,-7 -8,-53 -23,13 -17,-18 12,-21 371,-2Z"/>
    <path data-fips-int="53051" data-name="Pend Oreille County" d="M3294,651l-163,6 -2,-53h-26l-14,-325 -53,3 -3,-54 26,-1 -1,-59h26l-1,-56h28l-2,-49 162,-6 18,389Z"/>
    <path data-fips-int="53053" data-name="Pierce County" d="M1313,1230l70,15 11,19h37l27,23h28l-13,54 -19,12 -1,35 -30,31 30,57 -130,-2 -32,33 -158,-24 -46,-18 -7,-33 -38,-1 -32,-14 -2,-27 -29,-36 -29,-7 -26,-55 3,-21 35,-41 37,-68 -2,-27 41,36 10,-36 34,39 83,2 15,36 70,40 38,-3ZM960,1081h32l-8,47 8,30 -15,16 -40,-21ZM884,1106l3,-27 70,2 -38,40 -12,36 8,39 -20,31 -23,-50 20,-37Z"/>
    <path data-fips-int="53059" data-name="Skamania County" d="M1421,1721l-3,215h-39v163l32,6 7,30 -77,17 -48,-7 -28,9 -24,28 -141,59 2,-188 5,-128 5,-207Z"/>
    <path data-fips-int="53063" data-name="Spokane County" d="M3131,657l163,-6 27,489 -331,14 -12,-351 13,7 50,-46 3,29 27,22 27,1 -9,-157Z"/>
    <path data-fips-int="53065" data-name="Stevens County" d="M3109,63l2,49h-28l1,56h-26l1,59 -26,1 3,54 53,-3 14,325h26l2,53 -42,2 9,157 -27,-1 -27,-22 -3,-29 -50,46 -13,-7 -28,-14 -20,17 -29,-5 -31,21 -57,-88 -55,32 -5,-48 -16,-29 18,-18 42,-9 -5,-41 21,-13v-42l22,-26 -33,-128 33,-72 -2,-102 -41,-84 -5,-39 6,-39Z"/>
    <path data-fips-int="53071" data-name="Walla Walla County" d="M2831,1576l-4,21 6,165 53,-2v54l57,-2 2,129 -94,5 -334,8 18,-16 -15,-70 -29,-33 28,-29 50,-10 36,-27 12,-42 45,-33 3,-55 63,-63 34,10 15,-13Z"/>
    <path data-fips-int="53073" data-name="Whatcom County" d="M1709,94l-12,21 17,18 23,-13 8,53 12,7v49l23,30v24l-30,24 -65,2v9h-139l-511,-9 -10,-49 13,-18 -31,-18 -37,39 2,-35 -23,-20 -4,-28 -31,-29 20,-23 -30,-15 26,-31 233,6 175,6Z"/>
    <path data-fips-int="53075" data-name="Whitman County" d="M2990,1154l331,-14 24,519 -74,2 -9,-20 -10,-49 -60,-44 -34,-50 -62,18 -22,-16 -35,4 -28,47h-18l-17,25 -23,-3 -93,26 -22,-21 7,-21 -25,-68 16,-5 50,-25 22,4 28,-62 4,-29 -9,-215Z"/>
    <path data-fips-int="53077" data-name="Yakima County" d="M1552,1300l55,47 29,49h166v53l53,2v53l230,-1 8,32 35,35 2,217 6,150 -532,1 -186,-2 3,-215h55l-25,-74 18,-31 12,-50 -13,-8 23,-45 -28,-10 -10,-27 -30,-57 30,-31 1,-35 19,-12 13,-54 50,2Z"/>
    <path data-fips-int="53009" data-name="Clallam County" d="M845,665h-10l-3,123 -234,-6 1,-9 -460,-19 -24,-59 -3,-77 -17,-46 37,-100 -28,-32 40,-2 31,16 72,53 55,15 78,58 28,9 85,9 28,-7 52,22 88,17h53l47,-21 31,25 4,34 20,22 -10,-36 44,-8Z"/>
    <path data-fips-int="53027" data-name="Grays Harbor County" d="M593,999l-5,162 5,9 -2,100 121,4 -1,54 18,1 -5,126 -90,-2 -309,-12 -13,-70 18,28 20,-21 96,-35 -75,-18 -10,-32 -39,-7 -14,9 7,50 -18,10 3,-125 -22,-103 -16,-8 -22,-63 -5,-81 130,6v9Z"/>
    <path data-fips-int="53035" data-name="Kitsap County" d="M1003,898l19,41 -15,36 -22,-13 12,-80ZM992,1081h-32h-3l-70,-2 2,-72 -93,-3 48,-63 68,-27 2,-32 28,-48 33,-36 17,24 -8,-61 31,23 2,53 13,31 -36,-1 -12,35 -10,76 -20,-16 -13,-35 -9,30 35,21 -31,26 38,-12 25,-24 2,40 18,5Z"/>
    <path data-fips-int="53049" data-name="Pacific County" d="M368,1634l15,14 -2,34 -20,-23ZM634,1453l-1,254 -158,-6 -4,59 -33,3 -32,25 -58,-48 -30,27 12,-52 5,-69 -2,-109 18,36 -5,84 5,47 54,-34 -22,-26 22,-47 -25,-40 16,-38 27,-16 18,9 -33,-41 -35,6 3,19 -49,-20 -2,-35Z"/>
    <path data-fips-int="53067" data-name="Thurston County" d="M927,1271l-3,21 26,55 29,7 29,36 2,27 32,14 38,1 7,33 46,18 -409,-9v-19l5,-126 -18,-1 1,-54 54,-8 31,-27 35,-8 -41,58 35,-27 11,38 2,-58 40,-22 10,32Z"/>
    <path data-fips-int="53069" data-name="Wahkiakum County" d="M633,1707l59,1 -1,132 -48,7 -67,-73 -62,7 -43,-21 4,-59Z"/>
    <path data-fips-int="53057" data-name="Skagit County" d="M950,340l10,16 -23,15 -5,-27ZM965,453l-5,-46 29,-22 38,41 13,-62 20,-28 -25,-27 511,9h139v-9l65,-2 -15,20 14,29 30,9 -7,21 -28,15 -24,-24 -51,30 -35,2 -15,65 12,28 -12,17 28,15 -211,-1 -361,-7 -10,-19 -52,-30 -10,-33Z"/>
    <path data-fips-int="53031" data-name="Jefferson County" d="M944,650l1,53 -21,-18ZM812,951l-216,-7 -3,55 -228,-9v-9l-130,-6 -22,-127 -25,-51 -49,-43 460,19 -1,9 234,6 3,-123h10l39,13 -24,-21 24,-35 35,-3 -24,34 35,63 17,11 17,66 -49,35 -11,73h-24l19,-60 -7,-44 -40,105Z"/>
    <path data-fips-int="53061" data-name="Snohomish County" d="M1647,534l15,52 25,30 -25,13 5,22 -21,17 -62,24 15,24 -20,28 -7,34 14,38 30,14 -20,25 -411,-1 -122,-4 24,-42 15,-63 33,-14 -2,-37 -23,-16 -30,-44v-57l-12,-8 -3,-13 10,-30 361,7Z"/>
    <path data-fips-int="53029" data-name="Island County" d="M1065,556l3,13 -23,-3 -12,28 14,35 -29,-1 -6,-74 28,-12ZM990,463l-1,25 34,37 -64,10 -2,24 25,22 18,55 7,61 6,-47 62,43 10,38 -12,27 -23,6 -20,-48h-25l-26,-26 -2,-79 -63,-40 46,-113Z"/>
    <path data-fips-int="53055" data-name="San Juan County" d="M872,362v31l27,52 -54,-30 10,-51ZM837,336l27,9 -20,20 -27,-25ZM762,315l55,42 7,60 -52,-20 -21,-44ZM867,262l63,33 -36,38 -37,-55 23,52h-46l-22,-18 37,-47Z"/>
  </g>
  <path class="mesh" transform="scale(0.1)" d="M3167,1935l-1,-78 25,-1 -7,-163 27,-18 53,-3 -2,-31 9,20 74,-2M2136,2064v-127l-6,-150 -2,-217 116,-19 35,-45 29,30 21,42 63,70 -1,74 8,37 -8,27 28,24 72,25 29,33 15,70 -18,16M870,2047l29,-13 -9,-26 37,-9 78,-35 63,17 19,-54 20,-2 -5,128 -2,188M2945,1941l-2,-129 -57,2v-54l-53,2 -6,-165 4,-21 7,2 22,21 93,-26 23,3 17,-25 -2,95 53,-2 12,46 18,36 29,-1 3,135 10,76M691,1840l1,-132 420,10 -5,207M2120,740l-10,-60 50,-29 34,6 -1,41 30,18 48,-54 68,19 15,-41 22,7 48,-31 45,24 10,41 23,16 -13,36 -50,1 -8,27 -37,20 2,54 -35,46v36l-17,36h-26l-54,55v54l-143,4 -18,46 -37,28v63l-23,-3 -13,-24M2793,76l-6,39 5,39 41,84 2,102 -33,72 33,128 -22,26v42l-21,13 5,41 -42,9 -18,18 16,29 5,48 -18,42 -30,-30h-37l4,-24 -68,-14 -14,29 -38,-15 -13,-20 1,-18 -6,-309 -12,-11 -2,-96h14l-5,-215M2308,1536h34v-37l-1,-110 164,-3 -5,-217 84,-3 347,-9 9,215 -4,29 -28,62 -22,-4 -50,25 -16,5 25,68 -7,21M2831,1576l-54,-3 -15,13 -34,-10 -63,63 -3,55 -45,33 -12,42 -36,27 -50,10 -28,29M2993,1551h18l28,-47 35,-4 22,16 62,-18 34,50 60,44 10,49M2489,733l5,11 2,186 4,239M2128,1570l-35,-35 -8,-32 20,-48 -19,-27v-54l-31,-85 15,-31 -4,-55M1599,969l-42,17 -41,56 -48,35 -19,34 14,48 38,5 -8,37 16,5 8,45 -43,14 12,22h-28l-27,-23h-37l-11,-19 -70,-15 -25,19 -38,3 -70,-40 -15,-36 -83,-2 -34,-39M1063,850l122,4 411,1M2836,1484l-261,11 -233,4M1418,2135l-7,-30 -32,-6v-163h39l186,2 532,-1M692,1708l-59,-1 1,-254 90,2v19l409,9 158,24 32,-33 130,2 10,27 28,10 -23,45 13,8 -12,50 -18,31 25,74h-55l-309,-3M2758,766l55,-32 57,88 31,-21 29,5 20,-17 28,14 12,351 -59,3M2494,744l50,-10M796,1004l93,3 -2,72 -3,27M766,1266l-54,8 -121,-4 2,-100 -5,-9 5,-162 3,-55 216,7M1772,386l20,-3 8,41 -16,12 10,33 36,24 -11,24 31,6 18,27 49,31 -4,38 64,49 31,13 33,59h79l-19,58 -18,12 -17,44 -78,11 -15,17 10,25 -15,64 -28,45 -5,40 25,46 55,10 16,15 -1,49 -127,1 -53,-37 -61,-13 -60,-48 -47,-4 -33,-57 -22,-10 -28,-39 -3,-55 23,-13 -23,-46 20,-25 -30,-14 -14,-38 7,-34 20,-28 -15,-24 62,-24 21,-17 -5,-22 25,-13 -25,-30 -15,-52 -28,-15 12,-17 -12,-28 15,-65 35,-2 51,-30 24,24 28,-15 7,-21 -30,-9 -14,-29 15,-20 30,-24v-24l-23,-30v-49l-12,-7 -8,-53 -23,13 -17,-18 12,-21M3294,651l-163,6 -2,-53h-26l-14,-325 -53,3 -3,-54 26,-1 -1,-59h26l-1,-56h28l-2,-49M2085,1503l-230,1v-53l-53,-2v-53h-166l-29,-49 -55,-47 -16,-11 -50,-2 -13,54 -19,12 -1,35 -30,31 30,57M1133,1483l-46,-18 -7,-33 -38,-1 -32,-14 -2,-27 -29,-36 -29,-7 -26,-55 3,-21M960,1081h32M887,1079l70,2M1421,1721l-3,215M3321,1140l-331,14M2978,803l13,7 50,-46 3,29 27,22 27,1 -9,-157 42,-2M1750,307l-65,2v9h-139l-511,-9M845,665h-10l-3,123 -234,-6 1,-9 -460,-19M712,1274l-1,54 18,1 -5,126M634,1453l-309,-12M235,975l130,6v9l228,9M633,1707l-158,-6 -4,59M1647,534l-211,-1 -361,-7M1068,569l-3,-13"/>
  <g class="cities">
    <circle r="3" cx="108.7" cy="95.8"/>
    <text x="108.7" y="95.8">Seattle</text>
    <circle r="3" cx="314.6" cy="89.9"/>
    <text x="314.6" y="89.9">Spokane</text>
    <circle r="3" cx="92.1" cy="218.1"/>
    <text x="92.1" y="218.1">Vancouver</text>
  </g>
</svg>