<?xml version="1.0" encoding="utf-8"?>
<!DOCTYPE svg PUBLIC "-//W3C//DTD SVG 1.1//EN" "http://www.w3.org/Graphics/SVG/1.1/DTD/svg11.dtd">
<svg version="1.1" xmlns="http://www.w3.org/2000/svg" width="350" height="230" viewBox="0 0 350 230">
  <defs>
    <pattern id="pattern-no-results" width="50" height="50" patternUnits="userSpaceOnUse">
      <rect width="50" height="50" fill="#ddd"/>
      <path d="M-5,5L5,-5M-5,55L55,-5M45,55L55,45" stroke-width="10" stroke="#ffffff"/>
    </pattern>
  </defs>
  <g class="counties" transform="scale(0.1)">
    <path data-fips-int="53001" data-name="Adams County" d="M2931,1157l9,215 -22,63 -10,28 -22,-4 -50,25 -63,5 -268,7 -163,3 -1,-110 164,-3 -5,-217 84,-3Z"/>
    <path data-fips-int="53003" data-name="Asotin County" d="M3345,1659l-6,49 16,7 49,101 -22,57 17,10 13,42 -243,10 -3,-78 25,-1 -9,-163 29,-18 55,-3 -2,-31 7,20Z"/>
    <path data-fips-int="53005" data-name="Benton County" d="M2308,1536l21,42 58,54 4,90 8,37 -8,27 28,24 72,25 29,33 15,70 -18,16 -60,44 -56,-3 -100,23 -50,-8 -30,41 -85,13 0,-127 -6,-150 -2,-217 116,-19 35,-45Z"/>
    <path data-fips-int="53007" data-name="Chelan County" d="M1772,386l20,-3 8,41 -16,12 10,33 35,17 -10,31 31,6 28,33 39,25 -4,38 30,17 87,73 11,31 79,0 -20,61 -17,9 -17,44 -78,11 -15,17 10,30 -15,59 -28,45 -5,40 25,46 55,10 18,18 -3,46 -127,1 -45,-34 -13,-10 -56,-6 -60,-48 -29,3 -84,-84 -17,-29 -5,-55 23,-13 -20,-46 20,-28 -31,-11 -12,-27 3,-45 22,-26 -15,-26 62,-24 16,-39 25,-13 -25,-30 -15,-52 -30,-15 14,-17 -10,-28 13,-65 23,-3 63,-29 15,26Z"/>
    <path data-fips-int="53011" data-name="Clark County" d="M1107,1926l-5,127 -2,188 -98,-22 -87,-25 -41,-35 5,-52 -9,-60 22,-13 -2,-26 20,-16 40,1 55,-29 50,21 43,-61Z"/>
    <path data-fips-int="53013" data-name="Columbia County" d="M3116,1936l-173,5 0,-129 -55,2 -2,-54 -53,2 -6,-165 4,-21 7,2 22,21 85,-26 30,3 16,-25 0,95 55,-2 8,46 22,36 27,-1 5,135Z"/>
    <path data-fips-int="53015" data-name="Cowlitz County" d="M1112,1718l-5,207 0,1 -9,-2 -43,61 -50,-21 -55,29 -40,-1 -20,16 2,26 -22,13 -11,-66 -37,-81 -91,-67 -42,7 3,-132Z"/>
    <path data-fips-int="53017" data-name="Douglas County" d="M2489,733l-50,1 -8,27 -37,20 2,54 -35,46 -17,72 -26,0 -54,55 0,54 -143,4 -18,46 -37,28 0,63 -23,-3 -13,-24 3,-46 -18,-18 -55,-10 -25,-46 5,-40 28,-45 15,-59 -10,-30 15,-17 78,-11 17,-44 17,-9 20,-61 -10,-60 50,-29 34,6 -1,41 30,18 48,-54 68,19 15,-41 22,7 40,-28 36,3 17,18 10,41 23,16Z"/>
    <path data-fips-int="53019" data-name="Ferry County" d="M2795,76l-8,10 5,68 18,28 35,99 -12,53 -31,78 31,128 -20,26 0,42 -18,11 2,43 -44,9 -16,18 16,29 5,48 -20,42 -33,-32 -32,2 2,-24 -65,-14 -15,29 -38,-15 -13,-20 0,-128 -5,-199 -10,0 -4,-107 14,0 -5,-215Z"/>
    <path data-fips-int="53021" data-name="Franklin County" d="M2836,1484l-18,5 27,68 -7,21 -7,-2 -39,-7 -29,17 -33,-10 -63,63 -5,55 -45,33 -13,45 -35,22 -50,12 -28,29 -72,-25 -28,-24 8,-27 -8,-37 -4,-90 -58,-54 -21,-42 34,0 0,-37 163,-3 268,-7Z"/>
    <path data-fips-int="53023" data-name="Garfield County" d="M3264,1641l2,31 -55,3 -29,18 9,163 -25,1 3,78 -53,1 -8,-76 -5,-135 -27,1 -22,-36 -8,-46 -55,2 0,-95 20,0 27,-47 38,-4 20,16 62,-18 34,50 60,44Z"/>
    <path data-fips-int="53025" data-name="Grant County" d="M2489,733l5,11 2,186 4,239 5,217 -164,3 1,110 0,37 -34,0 -29,-30 -35,45 -116,19 -32,-29 -11,-38 20,-48 -19,-27 0,-54 -31,-85 15,-31 -4,-55 0,-63 37,-28 18,-46 143,-4 0,-54 54,-55 26,0 17,-72 35,-46 -2,-54 37,-20 8,-27Z"/>
    <path data-fips-int="53033" data-name="King County" d="M1040,1080l27,14 -50,33 -15,-40 23,-71 18,28ZM1597,855l20,46 -23,13 5,55 -47,18 -31,48 -48,42 -24,34 19,51 34,2 -11,37 18,5 10,45 -45,14 12,22 -28,0 -44,-24 -31,-18 -42,0 -23,-14 -45,12 -72,-13 -21,-18 -15,-36 -83,-2 -34,-39 37,-14 3,-22 -38,-124 28,5 4,-3 1,-20 -38,-35 23,-29 -5,-43 122,4Z"/>
    <path data-fips-int="53037" data-name="Kittitas County" d="M1599,969l17,29 84,84 29,-3 60,48 56,6 13,10 45,34 127,-1 13,24 23,3 4,55 -15,31 31,85 0,54 19,27 -20,48 -230,1 0,-53 -53,-2 0,-53 -168,0 -27,-49 -55,-47 -25,-14 -41,1 -12,-22 45,-14 -10,-45 -18,-5 11,-37 -34,-2 -19,-51 24,-34 48,-42 31,-48Z"/>
    <path data-fips-int="53039" data-name="Klickitat County" d="M2136,1937l0,127 -41,7 -90,41 -18,23 -70,15 -55,2 -25,-24 -32,-4 -26,18 -70,27 -29,20 -54,-12 -40,29 -27,-2 -7,-32 -54,-24 -27,7 -53,-20 -7,-30 -32,-6 0,-163 39,0 188,2Z"/>
    <path data-fips-int="53041" data-name="Lewis County" d="M724,1455l0,19 409,9 70,16 13,-8 74,16 33,-33 128,2 12,27 25,8 -7,25 -13,80 -17,31 28,58 -3,16 -57,0 -307,-3 -420,-10 -59,-1 1,-254Z"/>
    <path data-fips-int="53043" data-name="Lincoln County" d="M2544,734l13,20 38,15 15,-29 65,14 -2,24 32,-2 33,32 20,-42 55,-32 28,36 9,33 31,22 22,-24 30,4 18,-16 25,14 14,351 -59,3 -347,9 -84,3 -4,-239 -2,-186Z"/>
    <path data-fips-int="53045" data-name="Mason County" d="M855,1156l12,42 -15,29 -20,-42 3,-28ZM812,951l-68,124 -8,32 56,0 48,-20 30,-29 -56,23 -23,23 -39,-21 44,-79 91,3 0,72 -2,27 -13,22 -40,25 -5,48 -61,65 -54,8 -121,-4 2,-100 -5,-9 5,-162 3,-55Z"/>
    <path data-fips-int="53047" data-name="Okanogan County" d="M2534,85l5,215 -14,0 4,107 10,0 5,199 0,128 -50,10 -5,-11 13,-36 -23,-16 -10,-41 -17,-18 -36,-3 -40,28 -22,-7 -15,41 -68,-19 -48,54 -30,-18 1,-41 -34,-6 -50,29 10,60 -79,0 -11,-31 -87,-73 -30,-17 4,-38 -39,-25 -28,-33 -31,-6 10,-31 -35,-17 -10,-33 16,-12 -8,-41 -20,3 7,-21 -30,-9 -14,-26 15,-23 9,-4 21,-20 0,-24 -23,-30 0,-49 -12,-7 -11,-53 -15,13 -22,-18 12,-21 371,-2Z"/>
    <path data-fips-int="53051" data-name="Pend Oreille County" d="M3296,651l-165,6 -2,-53 -26,0 -15,-325 -52,3 -3,-54 28,-1 -5,-59 28,0 -1,-56 28,0 -2,-49 162,-6 18,389Z"/>
    <path data-fips-int="53053" data-name="Pierce County" d="M1458,1357l-4,26 -31,36 13,8 15,49 -128,-2 -33,33 -74,-16 -13,8 -70,-16 -46,-18 -7,-33 -38,-1 -32,-14 0,-24 -31,-38 -7,-2 -12,-1 -25,-29 -8,-52 35,-41 38,-72 -3,-23 46,37 5,-37 34,39 83,2 15,36 21,18 72,13 45,-12 23,14 42,0 31,18 44,24 28,0 -13,54ZM960,1081l32,0 -10,48 10,24 -15,21 -40,-21ZM885,1106l2,-27 70,2 -38,40 -12,36 10,39 -20,31 -25,-47 20,-40Z"/>
    <path data-fips-int="53059" data-name="Skamania County" d="M1419,1721l-1,215 -39,0 0,163 32,6 7,30 -77,17 -48,-7 -28,9 -47,40 -118,47 2,-188 5,-127 0,-1 5,-207Z"/>
    <path data-fips-int="53063" data-name="Spokane County" d="M3131,657l165,-6 25,489 -331,14 -14,-351 15,7 37,-29 41,34 29,1 -7,-157Z"/>
    <path data-fips-int="53065" data-name="Stevens County" d="M3109,63l2,49 -28,0 1,56 -28,0 5,59 -28,1 3,54 52,-3 15,325 26,0 2,53 -40,2 7,157 -29,-1 -41,-34 -37,29 -15,-7 -25,-14 -18,16 -30,-4 -22,24 -31,-22 -9,-33 -28,-36 -55,32 -5,-48 -16,-29 16,-18 44,-9 -2,-43 18,-11 0,-42 20,-26 -31,-128 31,-78 12,-53 -35,-99 -18,-28 -5,-68 8,-10Z"/>
    <path data-fips-int="53071" data-name="Walla Walla County" d="M2831,1576l-4,21 6,165 53,-2 2,54 55,-2 0,129 -93,5 -333,8 18,-16 -15,-70 -29,-33 28,-29 50,-12 35,-22 13,-45 45,-33 5,-55 63,-63 33,10 29,-17Z"/>
    <path data-fips-int="53073" data-name="Whatcom County" d="M1709,94l-12,21 22,18 15,-13 11,53 12,7 0,49 23,30 0,24 -21,20 -9,4 -65,2 0,9 -139,0 -511,-9 -10,-49 13,-16 -31,-20 -38,39 3,-35 -23,-20 -4,-28 -31,-29 20,-23 -30,-15 26,-31 233,6 175,6Z"/>
    <path data-fips-int="53075" data-name="Whitman County" d="M2990,1154l331,-14 24,519 -74,2 -7,-20 -12,-49 -60,-44 -34,-50 -62,18 -20,-16 -38,4 -27,47 -20,0 -16,25 -30,-3 -85,26 -22,-21 7,-21 -27,-68 18,-5 50,-25 22,4 10,-28 22,-63 -9,-215Z"/>
    <path data-fips-int="53077" data-name="Yakima County" d="M1458,1355l15,-14 13,-54 41,-1 25,14 55,47 27,49 168,0 0,53 53,2 0,53 230,-1 11,38 32,29 2,217 6,150 -530,1 -188,-2 1,-215 57,0 3,-16 -28,-58 17,-31 13,-80 7,-25 -25,-8 -12,-27 -15,-49 -13,-8 31,-36Z"/>
    <path data-fips-int="53009" data-name="Clallam County" d="M844,665l-9,0 -3,123 -234,-6 1,-9 -460,-19 -25,-71 -4,-79 -15,-32 20,-30 19,-66 -30,-36 31,-5 40,19 60,44 58,30 9,-6 78,58 30,9 83,9 28,-7 52,22 88,17 53,0 47,-23 28,23 7,38 20,22 -12,-36 46,-8Z"/>
    <path data-fips-int="53027" data-name="Grays Harbor County" d="M593,999l-5,162 5,9 -2,100 121,4 -1,54 18,1 -5,126 -90,-2 -309,-12 -13,-70 16,19 15,9 27,-29 73,-25 -37,-18 -35,-2 -11,-32 -40,-7 -12,9 7,50 -18,10 3,-125 -22,-103 -18,-8 -22,-63 -1,-81 128,6 0,9Z"/>
    <path data-fips-int="53035" data-name="Kitsap County" d="M1003,898l14,0 5,41 -12,37 -25,-14 -5,-44ZM992,1081l-32,0 -3,0 -70,-2 0,-72 -91,-3 44,-59 72,-31 2,-32 28,-48 48,-48 -10,-29 35,27 2,53 13,31 -36,-1 -27,61 12,7 -7,43 -35,-51 -7,30 35,21 -31,26 38,-12 25,-24 -2,38 22,11Z"/>
    <path data-fips-int="53049" data-name="Pacific County" d="M368,1634l15,14 -3,34 -20,-23ZM634,1453l-1,254 -158,-6 -4,59 -33,3 -32,25 -60,-48 -28,27 10,-52 7,-69 -2,-109 18,36 -5,47 2,81 23,0 25,-35 -13,-22 23,-40 -26,-63 53,-49 -20,-18 -38,3 3,22 -51,-23 -2,-35Z"/>
    <path data-fips-int="53067" data-name="Thurston County" d="M927,1271l8,52 25,29 12,1 7,2 31,38 0,24 32,14 38,1 7,33 46,18 -409,-9 0,-19 5,-126 -18,-1 1,-54 54,-8 18,-4 40,-39 8,8 -41,58 33,-27 11,38 4,-58 40,-22 8,32Z"/>
    <path data-fips-int="53069" data-name="Wahkiakum County" d="M633,1707l59,1 -3,132 -46,7 -62,-72 -67,6 -43,-21 4,-59Z"/>
    <path data-fips-int="53057" data-name="Skagit County" d="M950,340l10,16 -23,15 -5,-27ZM965,453l0,-29 -20,-21 44,-18 41,39 5,-60 25,-28 -25,-27 511,9 139,0 0,-9 65,-2 -15,23 14,26 30,9 -7,21 -37,17 -15,-26 -63,29 -23,3 -13,65 10,28 -14,17 30,15 -211,-1 -361,-7 -10,-19 -47,-31 -15,-29 -34,9 -2,0Z"/>
    <path data-fips-int="53031" data-name="Jefferson County" d="M927,692l0,-38 17,-10 1,59ZM927,692l20,35 17,66 -49,39 -11,69 -24,0 19,-60 -14,-4 -33,53 -5,37 -35,24 -216,-7 -3,55 -228,-9 0,-9 -128,-6 -27,-136 -23,-42 -48,-43 460,19 -1,9 234,6 3,-123 9,0 43,17 -27,-25 24,-35 35,-3 -22,34Z"/>
    <path data-fips-int="53061" data-name="Snohomish County" d="M1647,534l15,52 25,30 -25,13 -16,39 -62,24 15,26 -22,26 -3,45 12,27 31,11 -20,28 -412,-1 -122,-4 24,-42 15,-63 33,-14 -2,-37 -23,-16 -30,-44 5,-39 -17,-26 -3,-13 10,-30 361,7Z"/>
    <path data-fips-int="53029" data-name="Island County" d="M1065,556l3,13 -23,-3 -12,28 14,35 -29,-1 -6,-74 28,-12ZM967,456l2,0 23,8 -5,23 36,29 -64,19 -2,24 25,22 18,55 7,65 11,-13 -5,-38 62,43 10,38 -12,27 -23,6 -20,-48 -25,0 -26,-25 -2,-80 -63,-40 20,-53Z"/>
    <path data-fips-int="53055" data-name="San Juan County" d="M824,372l8,2 0,1 -16,7 8,35 -17,2 -46,-33 -10,-33 13,-36 55,40ZM874,362l11,68 -41,-15 11,-51ZM867,262l63,33 -36,38 -42,4 -40,-25 40,-49Z"/>
  </g>
  <g class="cities">
    <circle r="3" cx="108.7" cy="95.8"/>
    <text x="108.7" y="95.8">Seattle</text>
    <circle r="3" cx="314.6" cy="89.9"/>
    <text x="314.6" y="89.9">Spokane</text>
    <circle r="3" cx="103.6" cy="117.7"/>
    <text x="103.6" y="117.7">Tacoma</text>
  </g>
</svg>