<?xml version="1.0" encoding="utf-8"?>
<!DOCTYPE svg PUBLIC "-//W3C//DTD SVG 1.1//EN" "http://www.w3.org/Graphics/SVG/1.1/DTD/svg11.dtd">
<svg version="1.1" xmlns="http://www.w3.org/2000/svg" width="1000" height="658" viewBox="0 0 1000 658">
  <path class="state" d="M955,474l-1,14 3,2 10,15 3,17 -1,14 6,14 -70,3h-16l-49,2 -122,3 -16,13 -18,-1 -28,7 -14,-3 -8,11 -25,5 -11,2 -26,10 -5,7 -33,7 -9,-8 -10,-1 -27,13 -28,4 -9,7 -6,-2 -2,-9 -11,-5 -12,1 -15,-7 -22,6 -12,-2 -12,4 -3,5 -42,19 -16,-6 -12,-1 -26,-7 -10,-8 1,-19 -3,-15 -2,-18 -11,-24 -27,-19 -12,2 -14,1 -17,-20 -24,1 -7,-5 -10,1 -10,7 -10,-12h-13l4,-17v-44l5,10v38l7,2 6,-15 -4,-3 7,-14 -4,-3 1,-19 10,-8 -9,-5 -11,8 -11,-8v-9l-4,-20 10,8 3,-7 25,-10 -21,-4 -6,-11 -11,1 2,15 -6,4 1,-29 -5,-37 -11,-13 -2,-31 -6,-37 -7,-13 -14,-12 -9,-20v-23l-5,-10 11,-22 -8,-16 20,4 21,16 15,4 22,15 22,7 20,-2 15,6 23,5h16l16,-7 11,14 11,-3v6l11,11 1,-7 -8,-6 7,-10 8,-1 -3,11 13,20v8l8,7 -11,3 2,7 -9,4 -2,20 -5,2 4,-18 -8,-8 -5,25 -12,13 -20,37 -2,9h16l15,-8 7,-8 -21,12 -12,-3 12,-23 13,-18 20,-10v-8l9,-13 12,-10v-10l9,6 3,25 -9,-1 -4,10 -3,25 7,-7v12l6,1 -7,20 -4,27 -12,-7 2,-10 5,-10 -14,11 -2,14 4,2 -6,15 -7,-13 5,-9 -1,-13 -5,8 -10,5 -2,15 -18,18 20,-10 -9,9 11,9 -1,-15 10,-4 5,7 9,5 15,-14 6,-18 -1,-7 13,10 3,-10 12,-5 -11,-41 9,4 1,-8 -10,-6 6,-15 -3,-10 8,-12 4,-18 9,-4 1,-8 -16,-18 1,-12 -5,-8 -7,-1 -3,10 14,22 -13,-14 -5,-1 -2,-21 8,-3 7,4 3,-8 -23,-25 -8,4 -3,-15 7,-5 4,10 11,1v-20l7,-6 -6,-7 -3,-13 3,-6 -10,-4 -9,8v-10l-6,-3 -1,-9 -10,-8 7,-5 -10,-3 8,-11 74,1 37,2h209l108,-2 29,-1 76,-3 89,-3 48,-2 1,84 4,44 1,42 1,48 5,54 1,38 3,78 3,20ZM297,309l-11,12 2,-21 5,-10 4,8ZM244,330l2,12 -3,9 -5,-12v-9ZM286,257l4,-2 1,20 -10,1 2,-22ZM282,131l-1,7 12,11 -19,4v6l-8,5 11,-1 5,6 5,31 3,-14 17,11 3,15 -8,7 -9,-15 -7,4 -6,-9v-21l-9,-3 -11,-11 14,-33ZM248,75l15,12 -10,4 -4,-13 -5,2 7,15 -9,1 -2,-6h-8l10,-15ZM250,103l2,20 -11,-3 3,-16ZM218,90l20,16 -11,12 -11,-10Z"/>
  <g class="counties">
    <path data-fips-int="53001" data-name="Adams County" d="M838,330l1,62v9l-8,17 -7,-1 -14,7 -76,4h-66v-31l47,-1 -1,-62 70,-1Z"/>
    <path data-fips-int="53003" data-name="Asotin County" d="M955,474l-1,14 3,2 10,15 3,17 -1,14 6,14 -70,3 -2,-22h9l-3,-47 7,-6h17v-9l2,7Z"/>
    <path data-fips-int="53005" data-name="Benton County" d="M659,439l5,11 18,16v44l8,7 20,7 11,11 2,19 -5,4 -16,13 -18,-1 -28,7 -14,-3 -8,11 -25,5v-37l-2,-31 -1,-73 20,-4 11,1 12,-15Z"/>
    <path data-fips-int="53007" data-name="Chelan County" d="M506,111l5,-1v25l12,4 -4,9 28,18v13l18,12 7,2 12,19 22,-1 -14,30 -12,6 -7,-3 -9,8 2,9 -5,17 -9,20 2,14 25,9v15h-33l-20,-12 -15,-2 -8,-9 -24,-7 -3,-8 -15,-13 -5,-8 -1,-16 7,-3 -6,-14 6,-8 -10,-3 -2,-17 6,-12 -4,-6 17,-7 12,-14 -11,-18v-6l-8,-4 4,-6 -2,-23 11,-4 1,-5 12,-1 11,5Z"/>
    <path data-fips-int="53011" data-name="Clark County" d="M315,550l-1,91 -16,-6 -12,-1 -26,-7 -10,-8 1,-19 -3,-15 12,-16 11,1 10,-8 24,4 5,-16Z"/>
    <path data-fips-int="53013" data-name="Columbia County" d="M889,553l-49,2 -1,-38 -14,2 -1,-16 -15,1 -2,-42 2,-12 2,1 5,6 24,-8 10,2 4,-8v28l15,-1 9,23h8l1,33Z"/>
    <path data-fips-int="53015" data-name="Cowlitz County" d="M317,491l-2,59h-5l-5,16 -24,-4 -10,8 -11,-1 -12,16 -2,-18 -11,-24 -27,-19 -12,2 2,-38 91,2Z"/>
    <path data-fips-int="53017" data-name="Douglas County" d="M710,209h-14l-2,9 -11,5 1,16 -10,13 -6,21h-6l-16,15v15l-40,1 -6,14 -10,8v18l-9,-1 -2,-7v-15l-25,-9 -2,-14 9,-20 5,-17 -2,-9 9,-8 7,3 12,-6 14,-30 -5,-16 15,-9 11,2 -1,12 8,4 13,-12 8,-3 13,5v-8l10,-1 12,-9 14,7 3,11 8,5Z"/>
    <path data-fips-int="53019" data-name="Ferry County" d="M798,21l-1,22 8,18 7,20 -7,26 -5,9 9,40 -6,6v11l-5,5v11l-17,8 4,8 2,14 -2,10 -22,-6 -3,-10 -14,-1 -3,7 -13,-3 -5,-7 -1,-93 -2,-3v-27h2l-2,-62Z"/>
    <path data-fips-int="53021" data-name="Franklin County" d="M810,424l1,27 -2,-1 -11,-2 -8,5 -9,-2 -10,5 -10,12 -4,17 -12,9 -2,12 -11,8 -14,2 -8,8 -20,-7 -8,-7v-44l-18,-16 -5,-11h9v-11h66Z"/>
    <path data-fips-int="53023" data-name="Garfield County" d="M933,469v9h-17l-7,6 3,47h-9l2,22h-16l-2,-27 -1,-33h-8l-9,-23 -15,1v-28l8,-2 5,-11 29,2 5,-4 15,20 12,5Z"/>
    <path data-fips-int="53025" data-name="Grant County" d="M710,209l1,4 1,30 2,91 1,62 -47,1v42h-9l-10,-8 -12,15 -11,-1 -20,4 -9,-11 -3,-9 6,-10 -5,-10v-16l-8,-23 4,-10 -1,-16v-18l10,-8 6,-14 40,-1v-15l16,-15h6l6,-21 10,-13 -1,-16 11,-5 2,-9Z"/>
    <path data-fips-int="53033" data-name="King County" d="M456,244l6,14 -7,3 1,16 -13,5 -9,14 -15,12 -5,8 4,15h9l-1,12 7,6v10h-11l2,9 -12,-5 -14,-2 -4,-5 -21,-4 -3,4 -15,2 -18,-10 -4,-12h-24l-10,-12 12,-5 -11,-41 9,4 1,-8 -10,-6 6,-15 -3,-10 22,1ZM297,309l-11,12 2,-21 5,-10 4,8Z"/>
    <path data-fips-int="53037" data-name="Kittitas County" d="M456,277l5,8 15,13 3,8 24,7 8,9 15,2 20,12h33l2,7 9,1 1,16 -4,10 8,23v16l5,10 -6,10 -65,1v-16h-15v-15h-47l-15,-20 -15,-11h-13l-2,-9h11v-10l-7,-6 1,-12h-9l-4,-15 5,-8 15,-12 9,-14Z"/>
    <path data-fips-int="53039" data-name="Klickitat County" d="M609,553v37l-11,2 -26,10 -5,7 -33,7 -9,-8 -10,-1 -27,13 -28,4 -9,7 -6,-2 -2,-9 -11,-5 -12,1 -15,-7 -2,-8 -9,-2v-46h11l51,1h150Z"/>
    <path data-fips-int="53041" data-name="Lewis County" d="M207,416l-1,5 61,2 56,1 24,2 21,5 8,-10 38,1 11,10 -6,14 4,2 -9,18 7,26h-15l-89,-1 -28,-1 -91,-2h-18v-70l1,-3Z"/>
    <path data-fips-int="53043" data-name="Lincoln County" d="M725,209l5,7 13,3 3,-7 14,1 3,10 22,6 2,-10 16,-10 16,26 11,-7 11,-2 9,3 2,26 1,75h-15l-54,3 -70,1 -2,-91 -1,-30Z"/>
    <path data-fips-int="53045" data-name="Mason County" d="M232,271l-20,37 -2,9h16l15,-8 7,-8 -21,12 -12,-3 12,-23h27l-1,21v8l-5,8 -10,5 -2,15 -18,18 -15,2 -35,-1 1,-77 1,-17ZM244,330l2,12 -3,9 -5,-12v-9Z"/>
    <path data-fips-int="53047" data-name="Okanogan County" d="M722,24l2,62h-2v27l2,3 1,93 -14,4 -1,-4 5,-10 -8,-5 -3,-11 -14,-7 -12,9 -10,1v8l-13,-5 -8,3 -13,12 -8,-4 1,-12 -11,-2 -15,9 5,16 -22,1 -12,-19 -7,-2 -18,-12v-13l-28,-18 4,-9 -12,-4v-25l-5,1 2,-8 -12,-4 4,-11 9,-7 -7,-15v-15l-4,-1 1,-14 -8,2 -6,-5 4,-6h96l108,-2Z"/>
    <path data-fips-int="53051" data-name="Pend Oreille County" d="M941,186l-47,2v-15h-8l-5,-93 -15,1v-16h7v-17h7v-15l7,-2v-13l48,-2 1,84 4,44Z"/>
    <path data-fips-int="53053" data-name="Pierce County" d="M424,368l-3,15 -6,13 -7,5 6,21 -38,-1 -8,10 -21,-5 -24,-2 -12,-5v-7l-22,-7 -10,-17 -8,-3 -8,-16v-6l15,-14 6,-18 -1,-7 13,10 3,-10 10,12h24l4,12 18,10 15,-2 3,-4 21,4 4,5 14,2ZM274,309h9l-4,27 -12,-7 2,-10ZM253,316v-8l21,1 -14,11 -2,14 4,2 -6,15 -7,-13 5,-9Z"/>
    <path data-fips-int="53059" data-name="Skamania County" d="M406,492l-1,61h-11v46l9,2 2,8 -22,6 -12,-2 -12,4 -3,5 -42,19 1,-91 2,-59Z"/>
    <path data-fips-int="53063" data-name="Spokane County" d="M894,188l47,-2 1,48 5,54 1,38 -95,4 -1,-75 -2,-26 4,2 13,-13 2,8 15,7 -3,-45Z"/>
    <path data-fips-int="53065" data-name="Stevens County" d="M887,18v13l-7,2v15h-7v17h-7v16l15,-1 5,93h8v15h-13l3,45 -15,-7 -2,-8 -13,13 -4,-2 -9,-3 -11,2 -11,7 -16,-26 -16,10 -2,-14 -4,-8 17,-8v-11l5,-5v-11l6,-6 -9,-40 5,-9 7,-26 -7,-20 -8,-18 1,-22Z"/>
    <path data-fips-int="53071" data-name="Walla Walla County" d="M809,450l-2,12 2,42 15,-1 1,16 14,-2 1,38 -122,3 5,-4 -2,-19 -11,-11 8,-8 14,-2 11,-8 2,-12 12,-9 4,-17 10,-12 10,-5 9,2 8,-5Z"/>
    <path data-fips-int="53073" data-name="Whatcom County" d="M489,27l-4,6 6,5 8,-2 -1,14 4,1v15l7,15 -9,7 -19,2h-71l-62,-1 -52,-1 -3,-13 3,-6 -10,-4 -9,8v-10l-6,-3 -1,-9 -10,-8 7,-5 -10,-3 8,-11 74,1 37,2Z"/>
    <path data-fips-int="53075" data-name="Whitman County" d="M853,330l95,-4 3,78 3,20 1,50 -20,2 -2,-7 -5,-16 -12,-5 -15,-20 -5,4 -29,-2 -5,11 -8,2 -4,8 -10,-2 -24,8 -5,-6 -1,-27 14,-7 7,1 8,-17v-9l-1,-62Z"/>
    <path data-fips-int="53077" data-name="Yakima County" d="M594,429l3,9 9,11 1,73 2,31 -3,1h-150l-51,-1 1,-61h15l-7,-26 9,-18 -4,-2 6,-14 -11,-10 -6,-21 7,-5 6,-13 3,-15h13l15,11 15,20h47v15h15v16Z"/>
    <path data-fips-int="53009" data-name="Clallam County" d="M241,190h-3v36l-67,-3 -14,-2 -117,-5 -9,-20v-23l-5,-10 11,-22 -8,-16 20,4 21,16 15,4 22,15 22,7 20,-2 15,6 23,5h16l16,-7 11,14 11,-3Z"/>
    <path data-fips-int="53027" data-name="Grays Harbor County" d="M169,286l-1,77 35,1v15l5,1 -1,36 -26,-1 -89,-3 -4,-20 10,8 3,-7 25,-10 -21,-4 -6,-11 -11,1 2,15 -6,4 1,-29 -5,-37 -11,-13 -2,-31 37,1v4Z"/>
    <path data-fips-int="53035" data-name="Kitsap County" d="M283,309h-9l-21,-1 1,-21h-27l13,-18 20,-10v-8l9,-13 12,-10v-10l9,6 3,25 -9,-1 -4,10 -3,25 7,-7v12l6,1ZM286,257l4,-2 1,20 -10,1 2,-22Z"/>
    <path data-fips-int="53049" data-name="Pacific County" d="M181,415l-1,3v70l-45,-2 -1,17 -10,1 -10,7 -10,-12h-13l4,-17v-44l5,10v38l7,2 6,-15 -4,-3 7,-14 -4,-3 1,-19 10,-8 -9,-5 -11,8 -11,-8v-9Z"/>
    <path data-fips-int="53067" data-name="Thurston County" d="M263,363v6l8,16 8,3 10,17 22,7v7l12,5 -56,-1 -61,-2 1,-5 1,-36 -5,-1v-15l15,-2 20,-10 -9,9 11,9 -1,-15 10,-4 5,7Z"/>
    <path data-fips-int="53069" data-name="Wahkiakum County" d="M180,488h18l-2,38 -14,1 -17,-20 -24,1 -7,-5 1,-17Z"/>
    <path data-fips-int="53057" data-name="Skagit County" d="M276,130l-3,-15 7,-5 4,10 11,1v-20l7,-6 -6,-7 52,1 62,1h71l19,-2 -4,11 12,4 -2,8 -7,4 -11,-5 -12,1 -1,5 -11,4 2,23 -4,6 8,4 -68,-2h-95l-23,-25Z"/>
    <path data-fips-int="53031" data-name="Jefferson County" d="M232,271l-62,-2 -1,17 -65,-3v-4l-37,-1 -6,-37 -7,-13 -14,-12 117,5 14,2 67,3v-36h3l11,11 1,-7 -8,-6 7,-10 8,-1 -3,11 13,20v8l8,7 -11,3 2,7 -9,4 -2,20 -5,2 4,-18 -8,-8 -5,25Z"/>
    <path data-fips-int="53061" data-name="Snohomish County" d="M470,153v6l11,18 -12,14 -17,7 4,6 -6,12 2,17 10,3 -6,8h-131l-22,-1 8,-12 4,-18 9,-4 1,-8 -16,-18 1,-12 -5,-8 -1,-4 3,-8h95Z"/>
    <path data-fips-int="53029" data-name="Island County" d="M282,131l-1,7 12,11 -19,4v6l-8,5 11,-1 5,6 5,31 3,-14 17,11 3,15 -8,7 -9,-15 -7,4 -6,-9v-21l-9,-3 -11,-11 14,-33ZM304,159l1,4 -7,-1 -3,10 14,22 -13,-14 -5,-1 -2,-21 8,-3Z"/>
    <path data-fips-int="53055" data-name="San Juan County" d="M248,75l15,12 -10,4 -4,-13 -5,2 7,15 -9,1 -2,-6h-8l10,-15ZM250,103l2,20 -11,-3 3,-16ZM218,90l20,16 -11,12 -11,-10Z"/>
  </g>
  <path class="mesh" d="M787,219l16,-10 16,26 11,-7 11,-2 9,3 2,26 1,75h-15l1,62v9l-8,17 -7,-1 -14,7 -76,4h-66v-31l47,-1 -1,-62 70,-1 54,-3M905,553l-2,-22h9l-3,-47 7,-6h17v-9l2,7 20,-2M609,590v-37l-2,-31 -1,-73 20,-4 11,1 12,-15 10,8 5,11 18,16v44l8,7 20,7 11,11 2,19 -5,4M248,585l12,-16 11,1 10,-8 24,4 5,-16h5l-1,91M840,555l-1,-38 -14,2 -1,-16 -15,1 -2,-42 2,-12 2,1 5,6 24,-8 10,2 4,-8v28l15,-1 9,23h8l1,33 2,27M196,526l2,-38 91,2 28,1 -2,59M606,211l-5,-16 15,-9 11,2 -1,12 8,4 13,-12 8,-3 13,5v-8l10,-1 12,-9 14,7 3,11 8,5 -5,10h-14l-2,9 -11,5 1,16 -10,13 -6,21h-6l-16,15v15l-40,1 -6,14 -10,8v18l-9,-1 -2,-7M798,21l-1,22 8,18 7,20 -7,26 -5,9 9,40 -6,6v11l-5,5v11l-17,8 4,8 2,14 -2,10 -22,-6 -3,-10 -14,-1 -3,7 -13,-3 -5,-7 -1,-93 -2,-3v-27h2l-2,-62M810,424l1,27M809,450l-11,-2 -8,5 -9,-2 -10,5 -10,12 -4,17 -12,9 -2,12 -11,8 -14,2 -8,8M659,439h9v-11M854,443l8,-2 5,-11 29,2 5,-4 15,20 12,5 5,16M710,209l1,4 1,30 2,91M606,449l-9,-11 -3,-9 6,-10 -5,-10v-16l-8,-23 4,-10 -1,-16M456,277l-13,5 -9,14 -15,12 -5,8 4,15h9l-1,12 7,6v10h-11l2,9 -12,-5 -14,-2 -4,-5 -21,-4 -3,4 -15,2 -18,-10 -4,-12h-24l-10,-12M303,243l22,1h131M405,609l-2,-8 -9,-2v-46h11l51,1h150l3,-1M198,488h-18v-70l1,-3 26,1 -1,5 61,2 56,1 24,2 21,5 8,-10 38,1 11,10 -6,14 4,2 -9,18 7,26h-15l-89,-1M711,213l14,-4M227,287h27l-1,21v8M218,362l-15,2 -35,-1 1,-77 1,-17 62,2M506,111l5,-1v25l12,4 -4,9 28,18v13l18,12 7,2 12,19 22,-1 -14,30 -12,6 -7,-3 -9,8 2,9 -5,17 -9,20 2,14 25,9v15h-33l-20,-12 -15,-2 -8,-9 -24,-7 -3,-8 -15,-13 -5,-8 -1,-16 7,-3 -6,-14 6,-8 -10,-3 -2,-17 6,-12 -4,-6 17,-7 12,-14 -11,-18v-6l-8,-4 4,-6 -2,-23 11,-4 1,-5 12,-1 11,5 7,-4 2,-8 -12,-4 4,-11 9,-7 -7,-15v-15l-4,-1 1,-14 -8,2 -6,-5 4,-6M941,186l-47,2v-15h-8l-5,-93 -15,1v-16h7v-17h7v-15l7,-2v-13M594,429l-65,1v-16h-15v-15h-47l-15,-20 -15,-11h-13l-3,15 -6,13 -7,5 6,21M323,424l-12,-5v-7l-22,-7 -10,-17 -8,-3 -8,-16v-6M253,308l21,1h9M406,492l-1,61M948,326l-95,4M850,229l4,2 13,-13 2,8 15,7 -3,-45h13M500,88l-19,2h-71l-62,-1 -52,-1M241,190h-3v36l-67,-3 -14,-2 -117,-5M203,364v15l5,1 -1,36M181,415l-89,-3M67,278l37,1v4l65,3M180,488l-45,-2 -1,17M470,153l-68,-2h-95M305,163l-1,-4"/>
  <g class="cities">
    <circle r="7" cx="311" cy="274"/>
    <text x="311" y="274">Seattle</text>
    <circle r="7" cx="899" cy="257"/>
    <text x="899" y="257">Spokane</text>
    <circle r="7" cx="263" cy="624"/>
    <text x="263" y="624">Vancouver</text>
  </g>
</svg>