<?xml version="1.0" encoding="utf-8"?>
<!DOCTYPE svg PUBLIC "-//W3C//DTD SVG 1.1//EN" "http://www.w3.org/Graphics/SVG/1.1/DTD/svg11.dtd">
<svg version="1.1" xmlns="http://www.w3.org/2000/svg" width="350" height="230" viewBox="0 0 350 230">
  <defs>
    <pattern id="pattern-no-results" width="50" height="50" patternUnits="userSpaceOnUse">
      <rect width="50" height="50" fill="#ddd"/>
      <path d="M-5,5L5,-5M-5,55L55,-5M45,55L55,45" stroke-width="10" stroke="#666666"/>
    </pattern>
  </defs>
  <g class="counties" transform="scale(0.1)">
    <path data-fips-int="53001" data-name="Adams County" d="M2931,1157l9,215 -22,63 -82,49 -63,5 -431,10 -1,-110 164,-3 -5,-217Z"/>
    <path data-fips-int="53003" data-name="Asotin County" d="M3345,1659l10,56 49,101 -22,57 30,52 -243,10 -3,-78 25,-1 -9,-163 84,-21 -2,-31 7,20Z"/>
    <path data-fips-int="53005" data-name="Benton County" d="M2308,1536l21,42 58,54 4,154 28,24 72,25 29,33 15,70 -18,16 -60,44 -56,-3 -100,23 -50,-8 -30,41 -85,13 0,-127 -6,-150 -2,-217 116,-19 35,-45Z"/>
    <path data-fips-int="53007" data-name="Chelan County" d="M1772,386l20,-3 2,86 35,17 -10,31 59,39 39,25 -4,38 117,90 11,31 79,0 -54,114 -78,11 -20,106 -33,85 25,46 73,28 -3,46 -127,1 -45,-34 -69,-16 -60,-48 -29,3 -84,-84 -17,-29 -5,-55 23,-13 -20,-46 20,-28 -31,-11 -2,-124 62,-24 41,-52 -40,-82 -30,-15 17,-110 23,-3 63,-29 15,26Z"/>
    <path data-fips-int="53011" data-name="Clark County" d="M1107,1926l0,-1 0,1 -7,315 -185,-47 -41,-35 -4,-112 40,-55 40,1 55,-29 50,21 43,-61Z"/>
    <path data-fips-int="53013" data-name="Columbia County" d="M3116,1936l-173,5 0,-129 -55,2 -2,-54 -53,2 -2,-186 7,2 22,21 131,-48 0,95 55,-2 30,82 27,-1Z"/>
    <path data-fips-int="53015" data-name="Cowlitz County" d="M1112,1718l-5,207 0,1 -9,-2 -43,61 -50,-21 -55,29 -40,-1 -40,55 -11,-66 -37,-81 -91,-67 -42,7 3,-132Z"/>
    <path data-fips-int="53017" data-name="Douglas County" d="M2489,733l-50,1 -45,47 2,54 -35,46 -17,72 -26,0 -54,55 0,54 -143,4 -18,46 -37,28 0,63 -36,-27 3,-46 -73,-28 -25,-46 33,-85 20,-106 78,-11 54,-114 -10,-60 50,-29 34,6 -1,41 30,18 48,-54 68,19 15,-41 98,-18 50,75Z"/>
    <path data-fips-int="53019" data-name="Ferry County" d="M2795,76l-8,10 5,68 53,127 -12,53 -31,78 31,128 -38,79 2,43 -60,27 21,77 -20,42 -63,-54 -65,-14 -15,29 -51,-35 -5,-327 -10,0 -4,-107 14,0 -5,-215Z"/>
    <path data-fips-int="53021" data-name="Franklin County" d="M2836,1484l-18,5 20,89 -7,-2 -101,0 -63,63 -5,55 -45,33 -13,45 -85,34 -28,29 -72,-25 -28,-24 -4,-154 -58,-54 -21,-42 34,0 0,-37 431,-10Z"/>
    <path data-fips-int="53023" data-name="Garfield County" d="M3264,1641l2,31 -84,21 9,163 -25,1 3,78 -53,1 -13,-211 -27,1 -30,-82 -55,2 0,-95 47,-47 58,12 62,-18 34,50 60,44Z"/>
    <path data-fips-int="53025" data-name="Grant County" d="M2489,733l5,11 6,425 5,217 -164,3 1,110 0,37 -34,0 -29,-30 -35,45 -116,19 -43,-67 20,-48 -50,-166 11,-86 0,-63 37,-28 18,-46 143,-4 0,-54 54,-55 26,0 17,-72 35,-46 -2,-54 45,-47Z"/>
    <path data-fips-int="53033" data-name="King County" d="M1040,1080l27,14 -50,33 -15,-40 23,-71ZM1597,855l20,46 -23,13 5,55 -47,18 -31,48 -48,42 -24,34 19,51 34,2 17,87 -45,14 12,22 -72,-24 -96,-32 -45,12 -72,-13 -36,-54 -83,-2 -34,-39 40,-36 -38,-124 28,5 2,1 2,-1 0,-3 -37,-55 23,-29 -5,-43 122,4Z"/>
    <path data-fips-int="53037" data-name="Kittitas County" d="M1599,969l17,29 84,84 29,-3 60,48 69,16 45,34 127,-1 36,27 -11,86 50,166 -20,48 -230,1 0,-53 -53,-2 0,-53 -168,0 -27,-49 -55,-47 -66,-13 -12,-22 45,-14 -17,-87 -34,-2 -19,-51 24,-34 48,-42 31,-48Z"/>
    <path data-fips-int="53039" data-name="Klickitat County" d="M2136,1937l0,127 -131,48 -18,23 -125,17 -57,-28 -125,65 -54,-12 -40,29 -34,-34 -54,-24 -80,-13 -39,-36 0,-163 39,0 188,2Z"/>
    <path data-fips-int="53041" data-name="Lewis County" d="M724,1455l0,19 409,9 157,24 33,-33 128,2 37,35 -7,25 -13,80 -17,31 25,74 -57,0 -307,-3 -420,-10 -59,-1 1,-254Z"/>
    <path data-fips-int="53043" data-name="Lincoln County" d="M2544,734l51,35 15,-29 65,14 63,54 20,-42 55,-32 37,69 31,22 70,-36 25,14 14,351 -59,3 -431,12 -6,-425Z"/>
    <path data-fips-int="53045" data-name="Mason County" d="M812,951l-68,124 -8,32 56,0 -40,-24 44,-79 91,3 0,72 -2,27 -13,22 -40,25 -5,48 -61,65 -54,8 -121,-4 -3,-109 5,-162 3,-55Z"/>
    <path data-fips-int="53047" data-name="Okanogan County" d="M2534,85l5,215 -14,0 4,107 10,0 5,327 -50,10 -5,-11 13,-36 -50,-75 -98,18 -15,41 -68,-19 -48,54 -30,-18 1,-41 -34,-6 -50,29 10,60 -79,0 -11,-31 -117,-90 4,-38 -39,-25 -59,-39 10,-31 -35,-17 -2,-86 -20,3 7,-21 -44,-35 15,-23 9,-4 21,-44 -23,-30 0,-49 -23,-60 -25,-26 371,-2Z"/>
    <path data-fips-int="53051" data-name="Pend Oreille County" d="M3296,651l-165,6 -2,-53 -26,0 -15,-325 -52,3 -3,-54 28,-1 -5,-59 28,0 -1,-56 28,0 -2,-49 162,-6 18,389Z"/>
    <path data-fips-int="53053" data-name="Pierce County" d="M1048,1135l34,39 83,2 36,54 72,13 45,-12 96,32 72,24 -28,68 0,2 0,-2 0,2 -35,62 28,57 -128,-2 -33,33 -157,-24 -46,-18 -7,-33 -70,-15 -31,-62 -7,-2 -12,-1 -25,-29 -8,-52 73,-113 43,14ZM960,1081l32,0 -15,93 -40,-21ZM885,1106l2,-27 70,2 -38,40 -2,75 -20,31 -25,-47Z"/>
    <path data-fips-int="53059" data-name="Skamania County" d="M1419,1721l-1,215 -39,0 0,163 39,36 -77,17 -48,-7 -75,49 -118,47 7,-315 0,-1 5,-207Z"/>
    <path data-fips-int="53063" data-name="Spokane County" d="M3131,657l165,-6 25,489 -331,14 -14,-351 52,-22 70,35 -7,-157Z"/>
    <path data-fips-int="53065" data-name="Stevens County" d="M3109,63l2,49 -28,0 1,56 -28,0 5,59 -28,1 3,54 52,-3 15,325 26,0 2,53 -40,2 7,157 -70,-35 -52,22 -25,-14 -70,36 -31,-22 -37,-69 -55,32 -21,-77 60,-27 -2,-43 38,-79 -31,-128 31,-78 12,-53 -53,-127 -5,-68 8,-10Z"/>
    <path data-fips-int="53071" data-name="Walla Walla County" d="M2831,1576l2,186 53,-2 2,54 55,-2 0,129 -426,13 18,-16 -15,-70 -29,-33 28,-29 85,-34 13,-45 45,-33 5,-55 63,-63Z"/>
    <path data-fips-int="53073" data-name="Whatcom County" d="M1709,94l25,26 23,60 0,49 23,30 -21,44 -9,4 -65,11 -139,0 -511,-9 -28,-85 -38,39 3,-35 -58,-77 -10,-38 26,-31 408,12Z"/>
    <path data-fips-int="53075" data-name="Whitman County" d="M2990,1154l331,-14 24,519 -74,2 -7,-20 -12,-49 -60,-44 -34,-50 -62,18 -58,-12 -47,47 -131,48 -22,-21 -20,-89 18,-5 82,-49 22,-63 -9,-215Z"/>
    <path data-fips-int="53077" data-name="Yakima County" d="M1552,1300l55,47 27,49 168,0 0,53 53,2 0,53 230,-1 43,67 2,217 6,150 -530,1 -188,-2 1,-215 57,0 -25,-74 17,-31 13,-80 7,-25 -37,-35 -28,-57 35,-62 0,-2 0,2 0,-2 28,-68Z"/>
    <path data-fips-int="53009" data-name="Clallam County" d="M844,665l-9,0 -3,123 -234,-6 1,-9 -460,-19 -25,-71 -19,-111 39,-96 -30,-36 31,-5 245,145 193,33 141,17 47,-23 43,47Z"/>
    <path data-fips-int="53027" data-name="Grays Harbor County" d="M593,999l-5,162 3,109 121,4 -1,54 18,1 -5,126 -90,-2 -309,-12 3,-51 42,-20 73,-25 -72,-20 -11,-32 -52,2 -11,60 3,-125 -22,-103 -40,-71 -1,-81 128,6 0,9Z"/>
    <path data-fips-int="53035" data-name="Kitsap County" d="M1003,898l19,41 -12,37 -25,-14 -5,-44ZM992,1081l-32,0 -3,0 -70,-2 0,-72 -91,-3 44,-59 72,-31 30,-80 48,-48 25,-2 15,84 -36,-1 -27,61 5,50 -35,-51 -7,30 42,35 25,-24 20,49Z"/>
    <path data-fips-int="53049" data-name="Pacific County" d="M634,1453l-1,254 -158,-6 -4,59 -65,28 -60,-48 -28,27 17,-121 -2,-109 18,36 -3,128 48,-35 -13,-22 23,-40 -26,-63 53,-49 -58,-15 3,22 -51,-23 -2,-35Z"/>
    <path data-fips-int="53067" data-name="Thurston County" d="M927,1271l8,52 25,29 12,1 7,2 31,62 70,15 7,33 46,18 -409,-9 0,-19 5,-126 -18,-1 1,-54 54,-8 58,-43 -33,66 88,-69 8,32Z"/>
    <path data-fips-int="53069" data-name="Wahkiakum County" d="M633,1707l59,1 -3,132 -46,7 -62,-72 -67,6 -43,-21 4,-59Z"/>
    <path data-fips-int="53057" data-name="Skagit County" d="M965,453l-20,-50 44,-18 41,39 5,-60 25,-28 -25,-27 511,9 139,0 65,-11 -15,23 44,35 -7,21 -37,17 -15,-26 -63,29 -23,3 -17,110 30,15 -572,-8 -72,-79 -34,9 -2,0Z"/>
    <path data-fips-int="53031" data-name="Jefferson County" d="M927,692l37,101 -49,39 -11,69 -24,0 19,-60 -47,49 -5,37 -35,24 -216,-7 -3,55 -228,-9 0,-9 -128,-6 -27,-136 -23,-42 -48,-43 460,19 -1,9 234,6 3,-123 9,0 40,-43 35,-3 -22,34Z"/>
    <path data-fips-int="53061" data-name="Snohomish County" d="M1647,534l40,82 -41,52 -62,24 2,124 31,11 -20,28 -412,-1 -122,-4 39,-105 33,-14 -2,-37 -53,-60 -12,-65 -3,-13 10,-30Z"/>
    <path data-fips-int="53029" data-name="Island County" d="M1065,556l3,13 -50,59 -6,-74ZM967,456l2,0 54,60 -64,19 41,101 75,57 10,38 -35,33 -20,-48 -51,-25 -2,-80 -63,-40Z"/>
    <path data-fips-int="53055" data-name="San Juan County" d="M874,362l11,68 -41,-15ZM824,372l8,2 0,1 -25,44 -46,-33 3,-69ZM867,262l63,33 -36,38 -42,4 -40,-25Z"/>
  </g>
  <g class="cities">
    <circle r="3" cx="108.7" cy="95.8"/>
    <text x="108.7" y="95.8">Seattle</text>
    <circle r="3" cx="314.6" cy="89.9"/>
    <text x="314.6" y="89.9">Spokane</text>
    <circle r="3" cx="103.6" cy="117.7"/>
    <text x="103.6" y="117.7">Tacoma</text>
  </g>
</svg>