<?xml version="1.0" encoding="utf-8"?>
<!DOCTYPE svg PUBLIC "-//W3C//DTD SVG 1.1//EN" "http://www.w3.org/Graphics/SVG/1.1/DTD/svg11.dtd">
<svg version="1.1" xmlns="http://www.w3.org/2000/svg" width="350" height="230" viewBox="0 0 350 230">
  <defs>
    <pattern id="pattern-no-results" width="50" height="50" patternUnits="userSpaceOnUse">
      <rect width="50" height="50" fill="#ddd"/>
      <path d="M-5,5L5,-5M-5,55L55,-5M45,55L55,45" stroke-width="10" stroke="#666666"/>
    </pattern>
  </defs>
  <g class="counties" transform="scale(0.1)">
    <path data-fips-int="53001" data-name="Adams County" d="M2932,1156l0,11 8,204 -4,0 0,30 -14,13 5,6 -2,11 -9,4 2,19 -4,-2 -8,12 -21,-6 -12,12 -13,1 -3,9 -11,-3 -9,8 -71,3 -55,2 -75,3 -75,2 -95,1 -124,2 -2,-108 130,-2 35,-1 -3,-127 -1,-91 72,-1 26,-2 146,-3 58,-3 89,-2Z"/>
    <path data-fips-int="53003" data-name="Asotin County" d="M3345,1659l3,9 -5,22 -5,7 3,13 14,5 2,13 16,13 -2,10 9,8 8,21 -5,14 22,27 -6,6 1,9 -7,9 -3,16 -10,5 2,7 10,3 7,8 10,27 3,14 -117,3 -93,4 -33,3 -4,-78 26,-1 -4,-98 -2,-22 -1,-43 9,-1 0,-8 18,-1 -1,-9 55,-2 -1,-32 10,9 -4,11 7,6 20,-7 28,7 9,-7Z"/>
    <path data-fips-int="53005" data-name="Benton County" d="M2307,1536l2,7 15,8 3,21 16,23 20,13 9,14 16,11 5,19 -3,7 3,26 -4,39 9,32 0,11 -7,17 13,10 15,16 18,5 15,1 11,4 27,15 11,10 19,23 3,15 12,25 -2,19 3,10 -9,5 -11,13 -9,13 -22,13 -13,11 -15,6 -30,4 -27,-7 -28,5 -18,7 -37,4 -16,7 -16,-1 -21,-11 -13,4 -10,11 -19,29 -44,7 -13,-1 -29,8 0,-42 0,-86 -2,-99 -3,-9 -1,-29 0,-111 -2,-21 0,-97 19,2 21,-6 14,-1 12,-8 13,0 13,5 12,-3 22,-19 26,-34 8,3 21,22Z"/>
    <path data-fips-int="53007" data-name="Chelan County" d="M1771,386l21,-3 -2,19 12,6 -10,6 4,12 -11,11 7,9 2,25 11,-2 9,9 13,5 3,9 -10,15 0,12 16,8 14,-4 19,27 15,11 18,7 4,13 10,0 3,12 -6,17 0,8 18,21 12,-3 32,31 30,9 -2,17 11,4 16,12 1,11 7,10 -3,5 9,6 75,-1 4,12 -22,25 3,14 -4,10 -18,11 -1,10 -15,31 -13,2 -22,8 -20,-7 -26,12 -10,13 -2,10 10,17 -1,9 -14,31 0,22 -11,24 -10,9 -7,13 -5,31 3,24 10,25 13,6 24,4 15,5 15,1 17,15 1,6 -2,38 -2,5 -124,2 -7,-8 -9,0 -9,-12 -36,-24 2,10 -14,6 -7,-19 -17,-5 -20,1 -12,-11 -11,-5 -6,-15 -20,-4 -9,-14 -11,-1 -6,8 -12,-3 -8,-7 -14,-4 0,-10 -12,-8 2,-6 -20,-21 0,-8 -9,-2 -25,-18 -6,-11 -1,-11 -8,-7 0,-15 -6,-4 -2,-12 4,-11 -3,-7 16,-18 10,-2 -8,-11 2,-11 -15,-23 20,-30 -3,-4 -18,1 -5,-7 -9,-1 3,-6 -4,-17 -8,-3 -2,-20 8,-17 -1,-7 19,-25 0,-5 -14,-22 8,-2 7,-8 35,-13 7,2 14,-12 4,-9 11,-3 -7,-13 4,-11 20,-7 -6,-18 -18,-12 2,-10 -19,-25 -3,-10 4,-7 -29,-14 5,-18 7,0 1,-10 -10,-18 4,-13 6,0 0,-21 -8,-6 2,-16 9,-9 34,-2 -1,-15 6,-5 15,4 7,-9 10,6 2,-13 12,1 8,12 -4,5 12,9 25,-7Z"/>
    <path data-fips-int="53011" data-name="Clark County" d="M1106,1925l-1,117 -2,0 -3,119 -1,79 -28,2 -10,-5 -8,-11 -9,-3 -18,4 -17,-1 -7,-7 -30,-9 -16,-6 -31,-5 -15,-8 -13,-10 -15,-7 -8,-16 -1,-10 4,-16 1,-33 -13,-29 5,-23 22,-12 6,3 -6,-11 -1,-19 5,-1 4,-10 10,-5 14,5 22,-2 15,-11 8,2 11,-16 10,-4 6,3 10,-5 12,3 6,9 15,-1 17,9 11,-3 6,-13 0,-17 12,-20 6,-7Z"/>
    <path data-fips-int="53013" data-name="Columbia County" d="M3115,1936l-83,3 -87,3 1,-31 -4,-99 -53,2 -2,-55 -54,3 -5,-147 -1,-18 6,-1 -1,-21 6,3 16,17 6,4 20,-2 11,-12 10,0 14,-7 21,-2 12,-3 18,3 14,-2 6,-20 7,-4 1,41 -4,0 2,56 54,-3 0,18 9,0 1,28 9,-1 0,9 10,1 0,28 28,-2 5,135 4,0Z"/>
    <path data-fips-int="53015" data-name="Cowlitz County" d="M1112,1719l0,29 -2,76 -3,16 0,85 -1,0 -15,-1 -6,7 -12,20 0,17 -6,13 -11,3 -17,-9 -15,1 -6,-9 -12,-3 -10,5 -6,-3 -10,4 -11,16 -8,-2 -15,11 -22,2 -14,-5 -10,5 -4,10 -5,1 1,19 6,11 -6,-3 -22,12 -1,-14 -5,-8 -4,-20 0,-24 -15,-22 -10,-21 -3,-17 -10,-21 -23,-11 -20,-21 -29,-17 -19,-17 -21,-2 -20,7 0,-38 2,-35 0,-57 44,-1 39,2 78,2 67,2 52,0 44,2 43,1 6,1Z"/>
    <path data-fips-int="53017" data-name="Douglas County" d="M2489,732l-51,2 1,8 -9,1 0,19 -9,0 1,9 -19,0 1,9 -10,1 2,54 -10,0 1,18 -9,0 0,19 -9,0 0,9 -9,0 1,36 -9,1 0,26 -9,0 1,10 -27,0 0,8 -9,0 1,9 -10,0 1,10 -9,-1 0,9 -9,0 0,10 -9,0 0,9 -9,0 1,53 -82,3 -63,2 1,18 -9,1 0,8 -9,1 0,18 -9,0 0,9 -9,1 0,8 -9,0 0,9 -9,1 1,61 -2,1 -8,-4 -16,2 -11,-11 -2,-13 2,-5 2,-38 -1,-6 -17,-15 -15,-1 -15,-5 -24,-4 -13,-6 -10,-25 -3,-24 5,-31 7,-13 10,-9 11,-24 0,-22 14,-31 1,-9 -10,-17 2,-10 10,-13 26,-12 20,7 22,-8 13,-2 15,-31 1,-10 18,-11 4,-10 -3,-14 22,-25 -4,-12 -6,-10 5,-15 0,-11 -10,-18 2,-6 33,-20 15,1 2,-10 14,4 11,7 10,-5 6,18 -9,20 3,5 19,15 9,0 11,-15 10,-7 21,-19 6,-13 26,3 10,12 9,5 22,0 5,-10 1,-21 10,-10 20,7 22,-14 10,-3 9,-10 12,-4 9,7 19,1 14,17 2,18 9,24 21,13 -5,23Z"/>
    <path data-fips-int="53019" data-name="Ferry County" d="M2795,76l-9,19 5,3 -4,16 10,17 -7,15 7,13 2,16 10,7 6,22 8,9 6,-4 -3,16 10,52 9,4 -4,20 -8,12 -2,11 4,16 -8,14 -6,20 -8,2 1,12 -8,10 -5,18 2,15 14,38 5,42 11,18 1,11 -9,15 -12,12 0,41 -20,13 2,40 -9,10 -14,3 -18,-3 -14,8 -4,10 8,22 10,8 -2,26 6,22 -4,7 -1,26 -15,8 -20,-7 -8,-9 0,-12 -4,-4 -13,6 -14,0 -6,-9 3,-18 -16,-10 -32,6 -6,-7 -10,-3 -8,7 0,16 -11,4 -20,-9 -14,-3 -6,-7 -2,-13 -7,-2 2,-27 -3,-99 -2,-90 0,-29 -2,-82 -11,0 -3,-107 14,0 -3,-108 0,-39 -3,-69Z"/>
    <path data-fips-int="53021" data-name="Franklin County" d="M2837,1485l-16,3 14,34 -5,14 7,15 7,5 -6,22 -6,-3 -7,-4 -17,6 -11,-8 -21,5 -13,12 -14,-1 -19,-10 -14,17 -12,4 -14,20 -12,6 -11,16 0,19 -7,23 2,14 -12,6 -4,10 -10,6 -3,12 -17,-1 -13,28 4,13 -16,4 -12,6 -12,19 -26,6 -22,3 -21,14 -8,15 -27,-15 -11,-4 -15,-1 -18,-5 -15,-16 -13,-10 7,-17 0,-11 -9,-32 4,-39 -3,-26 3,-7 -5,-19 -16,-11 -9,-14 -20,-13 -16,-23 -3,-21 -15,-8 -2,-7 36,0 -1,-38 124,-2 95,-1 75,-2 75,-3 55,-2Z"/>
    <path data-fips-int="53023" data-name="Garfield County" d="M3264,1640l1,32 -55,2 1,9 -18,1 0,8 -9,1 1,43 2,22 4,98 -26,1 4,78 -54,1 -3,-76 -4,0 -5,-135 -28,2 0,-28 -10,-1 0,-9 -9,1 -1,-28 -9,0 0,-18 -54,3 -2,-56 4,0 -1,-41 22,-1 9,-9 6,-14 4,-17 27,-11 20,5 7,9 11,4 24,-5 15,0 13,-14 10,5 3,10 9,11 16,1 3,4 1,21 12,8 5,10 15,1 26,22 11,26 -3,19Z"/>
    <path data-fips-int="53025" data-name="Grant County" d="M2489,732l4,12 1,71 3,127 0,39 2,55 0,41 2,92 1,91 3,127 -35,1 -130,2 2,108 1,38 -36,0 2,-5 -21,-22 -8,-3 -26,34 -22,19 -12,3 -13,-5 -13,0 -12,8 -14,1 -21,6 -19,-2 -10,-3 -10,-15 -11,-9 -13,-31 0,-10 1,-9 9,-10 10,-19 0,-9 -17,-27 -1,-53 -16,-33 0,-10 -6,-19 -10,-17 8,-24 8,-17 -4,-20 3,-15 -3,-18 2,-1 -1,-61 9,-1 0,-9 9,0 0,-8 9,-1 0,-9 9,0 0,-18 9,-1 0,-8 9,-1 -1,-18 63,-2 82,-3 -1,-53 9,0 0,-9 9,0 0,-10 9,0 0,-9 9,1 -1,-10 10,0 -1,-9 9,0 0,-8 27,0 -1,-10 9,0 0,-26 9,-1 -1,-36 9,0 0,-9 9,0 0,-19 9,0 -1,-18 10,0 -2,-54 10,-1 -1,-9 19,0 -1,-9 9,0 0,-19 9,-1 -1,-8Z"/>
    <path data-fips-int="53033" data-name="King County" d="M1041,1080l17,5 9,7 -28,15 -6,13 -9,-3 6,-16 3,2 9,-11 -2,-10 -11,2 6,11 -8,-3 -7,6 -3,29 -14,-4 -1,-10 6,-14 -5,-14 7,-16 -1,-15 7,-17 8,-5 2,-16 9,4 -3,11 11,13 -4,7 5,20ZM1598,855l15,23 -2,11 8,11 -10,2 -16,18 3,7 -4,11 2,12 6,4 0,15 -3,3 -13,-2 -9,3 1,8 -8,5 -12,0 -7,5 -4,16 -15,8 -15,28 -10,1 -5,7 -13,6 -2,12 -18,8 0,20 -7,3 2,8 -9,-1 -2,12 13,12 -5,15 5,11 38,8 4,16 -12,10 -2,10 17,5 5,5 3,13 -5,8 8,14 -7,11 -9,0 -12,-5 -13,6 -5,8 1,12 10,8 -13,-2 -13,4 -13,-10 -7,-11 -15,-5 -25,4 -16,-20 -18,-6 -8,6 -14,-1 -12,-9 -21,-5 -18,17 -28,-7 -14,11 -6,-9 -9,-3 -16,-12 -16,3 -7,-10 -13,-5 -9,-13 0,-10 -10,-17 -82,-2 0,-4 -34,-36 34,-12 5,-4 0,-29 -8,-13 -4,-17 -11,-5 6,-5 2,-19 -14,-18 3,-4 -3,-20 -9,-13 15,-12 17,23 3,-28 -11,-13 -20,-10 -9,-13 11,-7 3,-15 10,-8 3,-11 -2,-19 -6,-13 31,1 84,3 118,1 72,1 89,0 0,-1 61,1Z"/>
    <path data-fips-int="53037" data-name="Kittitas County" d="M1600,969l8,7 1,11 6,11 25,18 9,2 0,8 20,21 -2,6 12,8 0,10 14,4 8,7 12,3 6,-8 11,1 9,14 20,4 6,15 11,5 12,11 20,-1 17,5 7,19 14,-6 -2,-10 36,24 9,12 9,0 7,8 124,-2 2,13 11,11 16,-2 8,4 3,18 -3,15 4,20 -8,17 -8,24 10,17 6,19 0,10 16,33 1,53 17,27 0,9 -10,19 -9,10 -1,9 -12,0 -53,3 -163,-1 0,-54 -54,0 0,-55 -59,2 -108,-1 -18,-23 0,-6 -9,-7 0,-14 -14,-5 -4,-10 -14,-13 -10,-4 -28,-24 -11,-5 -13,8 -15,-2 -5,6 -9,-11 -10,-8 -1,-12 5,-8 13,-6 12,5 9,0 7,-11 -8,-14 5,-8 -3,-13 -5,-5 -17,-5 2,-10 12,-10 -4,-16 -38,-8 -5,-11 5,-15 -13,-12 2,-12 9,1 -2,-8 7,-3 0,-20 18,-8 2,-12 13,-6 5,-7 10,-1 15,-28 15,-8 4,-16 7,-5 12,0 8,-5 -1,-8 9,-3 13,2Z"/>
    <path data-fips-int="53039" data-name="Klickitat County" d="M2136,1936l0,86 0,42 -17,5 -25,3 -50,27 -27,7 -11,6 -19,23 -30,2 -41,13 -46,4 -8,-2 -24,-23 -12,-5 -22,-1 -12,7 -14,12 -33,14 -39,15 -11,11 -14,7 -8,-10 -20,4 -26,-5 -16,4 -11,8 -16,17 -16,4 -9,-8 -3,-25 -4,-6 -33,-13 -6,-6 -15,-5 -16,0 -10,8 -27,-6 -28,-15 1,-15 -7,-15 10,-6 -41,-1 1,-55 -2,-17 1,-91 39,1 171,0 16,2 105,1 87,0 147,-1 74,0Z"/>
    <path data-fips-int="53041" data-name="Lewis County" d="M724,1455l0,18 65,2 48,2 150,4 25,1 121,2 10,4 18,2 10,4 13,-3 19,7 11,-6 12,5 9,-5 14,8 26,7 15,1 14,-19 18,-15 130,1 12,16 -2,11 10,8 16,1 4,9 -8,5 0,11 -13,1 -3,21 12,9 -1,12 -8,9 1,13 -8,7 5,7 -3,9 -13,6 -3,12 3,8 11,7 -5,6 8,17 3,15 10,13 -4,13 -55,0 -193,-1 -61,-2 0,1 -55,0 -47,-1 -6,-1 -43,-1 -44,-2 -52,0 -67,-2 -78,-2 -39,-2 -44,1 -60,-1 2,-57 1,-53 -3,-2 2,-47 0,-59 0,-37 72,1Z"/>
    <path data-fips-int="53043" data-name="Lincoln County" d="M2544,734l7,2 2,13 6,7 14,3 20,9 11,-4 0,-16 8,-7 10,3 6,7 32,-6 16,10 -3,18 6,9 14,0 13,-6 4,4 0,12 8,9 20,7 15,-8 1,-26 4,-7 9,-2 0,-7 30,-23 16,0 19,25 2,11 7,-1 10,18 1,14 9,6 9,13 11,1 16,-4 9,-19 23,6 9,-8 12,-2 0,-5 22,7 5,5 5,100 0,31 4,123 1,38 3,60 -58,2 -40,2 -89,2 -58,3 -146,3 -26,2 -72,1 -2,-92 0,-41 -2,-55 0,-39 -3,-127 -1,-71 8,1Z"/>
    <path data-fips-int="53045" data-name="Mason County" d="M839,1205l6,16 -2,3 -11,-16 1,-19ZM856,1155l3,7 -4,14 12,22 -8,24 -8,6 -5,-26 -14,-19 4,-12 0,-14 27,-12ZM812,951l-13,26 -9,11 -10,28 -22,28 -13,27 -9,26 0,11 7,6 12,0 3,-10 15,6 21,-3 20,-15 26,-5 30,-29 -9,2 -64,33 -7,11 -21,-10 -14,-1 -2,-10 17,-34 18,-24 8,-21 33,-1 60,3 -2,73 -1,28 -6,-12 0,-17 -6,18 2,17 -8,22 -36,19 -1,21 -5,3 2,22 -27,3 -1,-3 -26,0 -2,-7 9,-5 1,-9 13,-11 -15,7 -6,10 -14,12 15,5 21,-1 5,5 11,-3 14,3 -11,17 -16,3 -5,7 -15,-1 -16,11 4,2 12,-12 12,1 -4,18 -13,0 -13,11 4,3 0,9 -53,-2 -80,-1 -41,-2 3,-109 -7,0 2,-72 4,-90 2,-56 123,5 47,1Z"/>
    <path data-fips-int="53047" data-name="Okanogan County" d="M2533,84l3,69 0,39 3,108 -14,0 3,107 11,0 2,82 0,29 2,90 3,99 -2,27 -43,11 -8,-1 -4,-12 7,-13 5,-23 -21,-13 -9,-24 -2,-18 -14,-17 -19,-1 -9,-7 -12,4 -9,10 -10,3 -22,14 -20,-7 -10,10 -1,21 -5,10 -22,0 -9,-5 -10,-12 -26,-3 -6,13 -21,19 -10,7 -11,15 -9,0 -19,-15 -3,-5 9,-20 -6,-18 -10,5 -11,-7 -14,-4 -2,10 -15,-1 -33,20 -2,6 10,18 0,11 -5,15 6,10 -75,1 -9,-6 3,-5 -7,-10 -1,-11 -16,-12 -11,-4 2,-17 -30,-9 -32,-31 -12,3 -18,-21 0,-8 6,-17 -3,-12 -10,0 -4,-13 -18,-7 -15,-11 -19,-27 -14,4 -16,-8 0,-12 10,-15 -3,-9 -13,-5 -9,-9 -11,2 -2,-25 -7,-9 11,-11 -4,-12 10,-6 -12,-6 2,-19 -21,3 -3,-5 10,-19 -14,-15 -10,10 -9,-4 -8,-10 -1,-15 14,-20 13,-4 7,-21 11,1 -1,-11 10,-6 -10,-8 -12,-22 -11,-9 0,-48 -13,-9 2,-14 -4,-15 7,-6 -5,-13 -13,-3 -8,11 -7,1 -5,-10 -14,-6 -2,-6 10,-3 4,-13 105,0 128,-1 100,0 297,-5Z"/>
    <path data-fips-int="53051" data-name="Pend Oreille County" d="M3296,651l-55,3 -110,3 -2,-54 -27,1 -2,-39 0,-32 -3,-79 -8,-155 0,-19 -53,2 -2,-54 27,-1 -3,-59 26,-1 -2,-53 29,-2 -2,-48 113,-5 48,-2 6,117 4,73 2,79 2,17 8,207 1,46Z"/>
    <path data-fips-int="53053" data-name="Pierce County" d="M937,1230l-4,14 -6,-3 -1,13 -17,-16 8,-7 -3,-4 10,-12 11,5ZM936,1188l4,10 9,0 2,10 -16,4 -15,-5 -4,-5 10,-14ZM945,1160l15,10 14,15 -6,11 -26,-32ZM1485,1286l3,19 -12,14 2,9 -5,13 -16,11 -5,11 3,18 -4,8 -16,8 -12,22 12,6 2,11 8,10 -1,6 13,16 -5,7 -130,-1 -18,15 -14,19 -15,-1 -26,-7 -14,-8 -9,5 -12,-5 -11,6 -19,-7 -13,3 -10,-4 -18,-2 -10,-4 -16,-10 -12,6 -11,-8 -8,-11 5,-6 -1,-13 -9,-1 -2,-9 -5,4 -13,-5 -16,2 -22,-15 -12,-1 -1,-24 -14,-13 -15,-7 -5,-21 -15,-5 0,5 -11,-6 3,-13 -10,-3 -11,-16 0,-14 -8,-8 -2,-13 4,-8 7,-1 11,-18 11,-6 8,-19 13,-10 2,-17 14,-29 8,-13 -4,-23 15,11 11,13 18,13 14,-11 -5,-10 -13,-4 7,-12 5,-1 34,36 0,4 82,2 10,17 0,10 9,13 13,5 7,10 16,-3 16,12 9,3 6,9 14,-11 28,7 18,-17 21,5 12,9 14,1 8,-6 18,6 16,20 25,-4 15,5 7,11 13,10 13,-4ZM960,1081l32,1 6,16 -15,31 -5,-10 8,24 6,13 -8,13 -8,6 -6,-7 4,-10 -12,6 -4,-4 -22,-6 -6,3 3,-18 15,-15 -6,-6 20,-18ZM886,1107l1,-28 71,2 -2,12 -24,14 -14,14 -2,11 -9,16 -1,9 -7,6 13,3 6,30 -10,7 2,4 -6,17 -7,3 -3,-11 -6,-2 -6,-16 4,-4 -10,-8 -4,-8 10,-23 8,-7 0,-28 12,-1 -13,-3Z"/>
    <path data-fips-int="53059" data-name="Skamania County" d="M1421,1721l-1,13 0,77 -1,8 0,117 -39,-1 -1,91 2,17 -1,55 41,1 -10,6 7,15 -1,15 -53,12 -12,0 -11,6 -29,-3 -20,-5 -11,2 -22,11 -12,20 -17,4 -5,6 -16,10 -18,5 -31,16 -14,1 -15,8 -32,12 1,-79 3,-119 2,0 1,-117 1,0 0,-85 3,-16 2,-76 0,-29 55,0 0,-1 61,2Z"/>
    <path data-fips-int="53063" data-name="Spokane County" d="M3131,657l110,-3 55,-3 2,64 4,71 2,43 2,23 4,102 4,45 2,69 4,73 -133,5 -58,3 -103,4 -36,1 -3,-60 -1,-38 -4,-123 0,-31 -5,-100 13,9 6,-12 12,0 20,-18 1,-18 12,2 1,19 6,9 13,4 10,17 8,4 8,-5 10,2 -1,-33 -3,-51 -2,-72Z"/>
    <path data-fips-int="53065" data-name="Stevens County" d="M3109,64l2,48 -29,2 2,53 -26,1 3,59 -27,1 2,54 53,-2 0,19 8,155 3,79 0,32 2,39 27,-1 2,54 -40,2 2,72 3,51 1,33 -10,-2 -8,5 -8,-4 -10,-17 -13,-4 -6,-9 -1,-19 -12,-2 -1,18 -20,18 -12,0 -6,12 -13,-9 -5,-5 -22,-7 0,5 -12,2 -9,8 -23,-6 -9,19 -16,4 -11,-1 -9,-13 -9,-6 -1,-14 -10,-18 -7,1 -2,-11 -19,-25 -16,0 -30,23 0,7 -9,2 -6,-22 2,-26 -10,-8 -8,-22 4,-10 14,-8 18,3 14,-3 9,-10 -2,-40 20,-13 0,-41 12,-12 9,-15 -1,-11 -11,-18 -5,-42 -14,-38 -2,-15 5,-18 8,-10 -1,-12 8,-2 6,-20 8,-14 -4,-16 2,-11 8,-12 4,-20 -9,-4 -10,-52 3,-16 -6,4 -8,-9 -6,-22 -10,-7 -2,-16 -7,-13 7,-15 -10,-17 4,-16 -5,-3 9,-19 173,-6Z"/>
    <path data-fips-int="53071" data-name="Walla Walla County" d="M2832,1575l1,21 -6,1 1,18 5,147 54,-3 2,55 53,-2 4,99 -1,31 -99,3 -307,9 -23,1 11,-13 9,-5 -3,-10 2,-19 -12,-25 -3,-15 -19,-23 -11,-10 8,-15 21,-14 22,-3 26,-6 12,-19 12,-6 16,-4 -4,-13 13,-28 17,1 3,-12 10,-6 4,-10 12,-6 -2,-14 7,-23 0,-19 11,-16 12,-6 14,-20 12,-4 14,-17 19,10 14,1 13,-12 21,-5 11,8 17,-6Z"/>
    <path data-fips-int="53073" data-name="Whatcom County" d="M987,267l-5,10 -12,-11ZM957,262l7,12 15,12 7,25 -10,-8 -18,-21 -4,-15 -12,-5 2,-20 10,9ZM817,80l5,16 -26,3 -1,-19ZM1709,94l-4,13 -10,3 2,6 14,6 5,10 7,-1 8,-11 13,3 5,13 -7,6 4,15 -2,14 13,9 0,48 11,9 12,22 10,8 -10,6 1,11 -11,-1 -7,21 -13,4 -65,0 0,11 -130,-1 -126,-2 -121,-2 -12,-1 -78,-1 -29,-1 -102,-1 -52,-2 -6,-7 6,-14 -3,-14 -4,3 -4,-11 11,-17 0,-8 -7,-2 -10,-12 -11,-1 -13,4 -16,17 -8,17 -8,-19 10,-16 0,-7 -13,-12 -11,-1 -4,-30 -12,-8 -18,-19 18,-12 2,-11 -10,-7 -6,5 -16,-7 12,-20 20,12 6,-9 -11,-14 1,-4 99,2 91,1 112,3 114,4 89,-1 111,0 64,1Z"/>
    <path data-fips-int="53075" data-name="Whitman County" d="M2990,1154l36,-1 103,-4 58,-3 133,-5 4,85 7,125 3,67 2,28 4,96 5,117 -11,0 -9,7 -28,-7 -20,7 -7,-6 4,-11 -10,-9 -5,-5 3,-19 -11,-26 -26,-22 -15,-1 -5,-10 -12,-8 -1,-21 -3,-4 -16,-1 -9,-11 -3,-10 -10,-5 -13,14 -15,0 -24,5 -11,-4 -7,-9 -20,-5 -27,11 -4,17 -6,14 -9,9 -22,1 -7,4 -6,20 -14,2 -18,-3 -12,3 -21,2 -14,7 -10,0 -11,12 -20,2 -6,-4 -16,-17 6,-22 -7,-5 -7,-15 5,-14 -14,-34 16,-3 9,-8 11,3 3,-9 13,-1 12,-12 21,6 8,-12 4,2 -2,-19 9,-4 2,-11 -5,-6 14,-13 0,-30 4,0 -8,-204 0,-11Z"/>
    <path data-fips-int="53077" data-name="Yakima County" d="M2084,1502l0,10 13,31 11,9 10,15 10,3 0,97 2,21 0,111 1,29 3,9 2,99 -117,2 -74,0 -147,1 -87,0 -105,-1 -16,-2 -171,0 0,-117 1,-8 0,-77 1,-13 55,0 4,-13 -10,-13 -3,-15 -8,-17 5,-6 -11,-7 -3,-8 3,-12 13,-6 3,-9 -5,-7 8,-7 -1,-13 8,-9 1,-12 -12,-9 3,-21 13,-1 0,-11 8,-5 -4,-9 -16,-1 -10,-8 2,-11 -12,-16 5,-7 -13,-16 1,-6 -8,-10 -2,-11 -12,-6 12,-22 16,-8 4,-8 -3,-18 5,-11 16,-11 5,-13 -2,-9 12,-14 -3,-19 9,11 5,-6 15,2 13,-8 11,5 28,24 10,4 14,13 4,10 14,5 0,14 9,7 0,6 18,23 108,1 59,-2 0,55 54,0 0,54 163,1 53,-3Z"/>
    <path data-fips-int="53009" data-name="Clallam County" d="M845,666l-9,-1 -1,46 -2,31 0,46 -62,-1 -26,0 -147,-5 0,-9 -172,-7 -82,-3 -100,-5 -34,-2 -71,-2 -9,-9 -3,-24 -7,-9 -7,-34 2,-7 -3,-26 -3,-11 4,-18 -15,-45 12,-8 6,-19 -6,-15 8,-9 4,-14 -2,-6 9,-8 4,-14 -3,-10 -13,-3 -7,-16 -7,-6 7,-9 4,3 21,-2 9,3 7,13 8,-3 13,4 9,10 7,2 43,31 14,12 10,-1 8,7 14,4 12,10 12,-5 41,24 18,8 -3,10 19,10 5,6 29,9 12,0 16,4 13,0 7,4 15,-3 4,3 16,1 30,-7 20,6 12,13 15,4 15,-10 9,4 10,9 20,0 16,10 11,2 32,2 13,-4 16,3 14,-7 13,-12 24,-4 18,18 8,6 9,20 -2,18 10,17 9,5 -5,-20 2,-9 -6,-8 19,-9 26,1Z"/>
    <path data-fips-int="53027" data-name="Grays Harbor County" d="M593,999l-4,90 -2,72 7,0 -3,109 41,2 80,1 -1,55 18,0 -1,31 -4,96 -18,-1 -72,-1 -69,-3 -106,-4 -31,0 -18,-1 -86,-5 -2,-26 -6,-28 -5,-16 8,-4 11,10 -5,9 3,12 12,7 -2,7 11,-7 9,10 6,-2 -14,-15 -8,0 7,-17 17,-7 7,-8 14,-1 35,-12 23,-8 15,-13 -23,10 -13,-7 -30,1 12,-7 -12,-3 -21,1 -10,-6 7,-8 -10,-17 -14,-9 -24,0 -10,4 -4,7 5,13 -1,18 3,17 10,1 -1,6 -18,-7 -3,10 -8,1 5,-35 1,-38 -4,-45 -8,-63 -9,-42 -11,-14 -7,1 -7,-28 -9,-5 -3,-27 -4,-5 0,-50 -3,-30 50,3 80,3 -1,9 74,4Z"/>
    <path data-fips-int="53035" data-name="Kitsap County" d="M1003,898l10,-6 4,9 -3,10 4,11 -8,4 12,13 -16,9 12,2 0,11 -9,1 16,8 -18,5 -10,-18 -9,8 -3,-5 -1,-28 -4,-10 12,-10 0,-23 5,-5ZM992,1082l-32,-1 -2,0 -71,-2 2,-73 -60,-3 -33,1 17,-23 8,-16 18,-8 4,-15 17,-7 9,-9 11,-4 -3,11 18,-11 17,-7 3,-9 -1,-23 12,-18 3,-12 11,-7 3,-14 27,-22 6,-12 10,1 -2,18 3,8 6,-4 -4,-21 1,-12 -5,-24 -12,-8 -1,-8 15,11 13,1 10,5 5,19 3,31 9,10 -7,18 7,5 4,10 -1,10 -6,2 -30,-5 4,10 -18,27 -6,-9 -15,-14 -4,-12 -5,12 20,29 -1,20 10,7 -3,22 2,6 -7,15 -19,-14 -2,-16 -8,-5 3,-7 -5,-9 -10,14 0,13 9,0 -2,13 12,-8 3,7 12,10 0,6 -13,5 -18,16 38,-11 17,-23 6,-4 1,13 7,3 -6,26 10,0 12,9 -16,23 -1,26Z"/>
    <path data-fips-int="53049" data-name="Pacific County" d="M369,1633l1,7 13,8 -2,34 -10,0 1,-14 -10,-9 -2,-22 4,-10ZM634,1453l0,37 0,59 -2,47 3,2 -1,53 -2,57 -61,-2 -97,-5 -3,59 -10,0 -5,9 -15,-6 -35,26 -15,-4 -15,-16 -10,-15 1,-5 -22,-9 -13,9 -1,11 -13,7 9,-35 5,-51 2,-34 0,-52 -2,-33 0,-26 6,-7 8,16 -6,-4 0,10 11,23 -2,43 -4,9 1,28 3,10 0,30 3,10 14,-5 11,9 0,-19 13,-14 -4,-6 0,-16 4,5 0,11 16,2 13,10 2,-4 -17,-9 -6,0 -4,-16 -9,-5 -2,-12 7,-5 2,-10 13,-2 0,-22 -11,-11 -3,-14 -11,-14 0,-16 6,10 14,5 -9,-7 -3,-12 8,-3 5,-19 4,0 23,-14 15,13 -9,-15 0,-7 -16,-7 -4,-14 -12,3 0,12 -16,-1 -12,-8 -6,15 9,4 -11,2 -9,-11 -4,3 -30,-19 2,-8 -1,-23 86,5 18,1 31,0 106,4Z"/>
    <path data-fips-int="53067" data-name="Thurston County" d="M926,1271l-4,8 2,13 8,8 0,14 11,16 10,3 -3,13 11,6 0,-5 15,5 5,21 15,7 14,13 1,24 12,1 22,15 16,-2 13,5 5,-4 2,9 9,1 1,13 -5,6 8,11 11,8 12,-6 16,10 -121,-2 -25,-1 -150,-4 -48,-2 -65,-2 0,-18 4,-96 1,-31 -18,0 1,-55 53,2 0,-9 6,-6 15,1 13,-16 0,-7 8,5 18,-22 9,0 -3,10 -14,13 -4,14 3,5 -11,3 -10,17 24,-15 6,-6 -2,-12 7,-11 1,22 -6,18 7,7 3,16 8,-9 -4,-11 6,-23 -7,-15 24,-16 5,8 -4,14 8,12 2,-33 2,-8 14,21 0,10 25,16 0,5Z"/>
    <path data-fips-int="53069" data-name="Wahkiakum County" d="M612,1828l14,5 6,14 3,-2 11,11 -26,-4 -7,-8 -14,-10 1,-16ZM632,1708l60,1 0,57 -2,35 0,38 -22,13 -9,2 -19,-9 -14,-17 -22,-18 -2,-13 -19,-21 -14,-1 -28,6 -22,0 -22,-5 -6,-4 -2,-21 -13,-3 -5,12 3,-59 97,5Z"/>
    <path data-fips-int="53057" data-name="Skagit County" d="M990,364l6,3 3,13 -9,-5 -19,6 -5,-6 4,-14 -3,-9 3,-10 6,11ZM950,340l10,15 -11,8 3,7 -14,2 1,-14 -7,-4 0,-11 10,-14ZM963,322l3,6 -10,0 -7,-8 9,-3ZM965,453l-9,-9 -2,-10 10,-10 -4,-17 -14,-5 7,-11 5,4 24,-12 11,35 6,2 -2,-14 8,-8 8,21 15,5 13,-8 -6,-12 2,-18 -10,-28 -13,-7 -8,2 2,-9 7,7 16,0 4,13 11,1 9,-14 6,-14 -10,-14 -7,-3 -9,-12 52,2 102,1 29,1 78,1 12,1 121,2 126,2 130,1 0,-11 65,0 -14,20 1,15 8,10 9,4 10,-10 14,15 -10,19 3,5 -11,9 -25,7 -12,-9 4,-5 -8,-12 -12,-1 -2,13 -10,-6 -7,9 -15,-4 -6,5 1,15 -34,2 -9,9 -2,16 8,6 0,21 -6,0 -4,13 10,18 -1,10 -7,0 -5,18 29,14 -103,-1 -111,-1 -24,-2 -187,-1 -148,-3 -9,-17 -16,-10 -20,-17 2,-3 -18,-3 1,-6 -10,-26 4,-11 -10,-2 -4,12 -12,3 -2,6Z"/>
    <path data-fips-int="53031" data-name="Jefferson County" d="M944,649l2,32 6,8 0,9 -8,6 -15,-12 -7,-14 6,-23 10,40 5,-6 -5,-8 2,-9 -7,-20 -7,-1 15,-7ZM812,951l-47,-2 -47,-1 -123,-5 -2,56 -154,-5 -74,-4 1,-9 -80,-3 -50,-3 -5,-40 -9,-43 -5,-13 -7,-40 -17,-14 -8,-32 -18,-9 -7,-18 -14,-10 -7,-2 71,2 34,2 100,5 82,3 172,7 0,9 147,5 26,0 62,1 0,-46 2,-31 1,-46 9,1 4,4 18,7 6,19 -8,15 11,-1 7,-9 3,-24 -11,-11 -15,-7 6,-12 -3,-6 21,-19 20,-3 14,0 -3,8 5,7 -14,9 -8,11 14,18 -2,5 8,14 6,-4 6,26 7,11 9,2 0,30 -9,6 9,0 8,-10 2,16 12,10 -4,14 -24,-1 2,21 -14,13 -10,2 -2,20 -6,19 -7,8 -4,17 5,10 -17,5 -8,-7 8,-14 2,-20 5,-7 6,-29 -9,-18 1,-13 -8,20 2,14 -4,9 -11,3 4,-16 -2,-11 -8,9 2,24 5,6 -1,14 -8,-4 -5,8 -3,25 -9,16 2,12 -10,-3 -7,12 -16,9Z"/>
    <path data-fips-int="53061" data-name="Snohomish County" d="M1647,534l-4,7 3,10 19,25 -2,10 18,12 6,18 -20,7 -4,11 7,13 -11,3 -4,9 -14,12 -7,-2 -35,13 -7,8 -8,2 14,22 0,5 -19,25 1,7 -8,17 2,20 8,3 4,17 -3,6 9,1 5,7 18,-1 3,4 -20,30 -80,0 -61,-1 0,1 -89,0 -72,-1 -118,-1 -84,-3 -31,-1 0,-15 18,-23 6,-4 3,-20 5,-21 5,-7 2,-15 23,-6 14,-17 0,-16 12,-2 -7,-9 12,0 -14,-9 -9,9 -16,-13 -20,-20 -2,-8 -12,-14 -4,-11 -1,-19 7,-14 -6,-6 -2,-16 -8,-5 -4,-13 3,0 6,-18 0,-11 148,3 187,1 24,2 111,1Z"/>
    <path data-fips-int="53029" data-name="Island County" d="M1065,555l4,13 -12,1 -3,-5 -10,5 4,13 -15,11 2,14 12,22 7,4 19,22 9,21 -12,-5 -3,-10 -11,-13 -10,-5 -9,-14 -10,6 -8,-8 0,-9 -9,-22 -1,-12 3,-29 14,-4 8,3 5,-11ZM973,459l9,-6 10,11 2,13 -8,11 17,7 17,16 4,14 -12,9 -10,0 -7,-8 -17,0 -6,16 -10,-10 0,22 -10,6 -22,4 3,11 13,-5 27,2 15,21 3,17 5,8 4,18 -6,10 10,19 -2,12 5,2 -2,20 9,-2 5,-14 -3,-12 3,-8 -6,-13 14,1 18,28 19,10 10,1 1,21 8,11 2,14 -5,14 -7,8 0,12 -8,-4 4,-8 -12,7 -13,-10 2,-15 -12,-21 -7,-2 -23,13 -4,-6 5,-10 -7,-8 -10,-2 -10,-14 6,-15 -8,-11 7,-25 -6,-28 -15,-4 -13,3 -2,-11 -10,-11 -20,-13 -4,-7 8,-22 9,-12 5,-17 6,-5 16,-29 3,-24Z"/>
    <path data-fips-int="53055" data-name="San Juan County" d="M908,381l4,9 -7,9 -17,-11 6,-7ZM875,362l-1,5 10,6 -4,3 -5,17 7,12 -1,17 4,8 11,-10 -6,-6 6,-5 0,13 8,6 -6,17 -10,-6 -9,-1 2,7 -16,-1 13,-12 -12,-6 -7,2 -14,-13 1,-16 5,-16 4,9 4,-7 -4,-17 14,-10ZM906,344l12,13 -1,7 -16,11 -7,-14 0,-15ZM838,336l11,7 15,2 -7,9 -13,3 0,8 -7,-5 -14,-17ZM747,330l0,8 -7,-5 5,-10 6,-3ZM763,315l17,2 3,14 10,5 11,14 17,10 -4,11 7,6 6,-6 4,10 -4,4 -15,-3 -2,16 6,14 9,6 10,-2 -2,9 -31,-7 -10,-9 1,-10 -13,5 -16,-12 -12,-24 2,-6 -7,-8 4,-18 7,-5ZM780,309l-5,0 -17,-9 15,3ZM734,273l23,15 -8,5 -17,-12ZM867,261l26,10 18,15 20,10 -11,12 -12,6 -5,10 3,6 -12,3 1,-9 -8,-5 -14,-21 2,-15 -5,-10 -11,3 4,23 10,10 7,22 -9,9 -25,-6 -4,-22 -13,-6 4,25 -12,-10 -6,5 -3,-13 9,-15 12,-14 8,-3 9,-15 -3,-3ZM822,256l1,19 -15,9 3,-9 -14,-6 12,-10Z"/>
  </g>
  <g class="cities">
    <circle r="3" cx="108.8" cy="95.8"/>
    <text x="108.8" y="95.8">Seattle</text>
    <circle r="3" cx="314.7" cy="90.0"/>
    <text x="314.7" y="90.0">Spokane</text>
    <circle r="3" cx="103.6" cy="117.7"/>
    <text x="103.6" y="117.7">Tacoma</text>
  </g>
</svg>