<?xml version="1.0" encoding="utf-8"?>
<!DOCTYPE svg PUBLIC "-//W3C//DTD SVG 1.1//EN" "http://www.w3.org/Graphics/SVG/1.1/DTD/svg11.dtd">
<svg version="1.1" xmlns="http://www.w3.org/2000/svg" width="326" height="350" viewBox="0 0 326 350">
  <path class="state" transform="scale(0.1)" d="M2699,1842l14,-23 6,-37 44,-68 26,-25 49,-4 25,-28 28,37 -14,-47 40,-98 20,-5 20,-90 36,9 26,-27v-37l19,-8 3,-32 44,-1 5,38 -9,22 -22,-14 -1,90 -8,22 -31,8 -6,40 -26,35 12,25 -25,18 8,24 -28,16 -29,47 -26,85 -47,98 -20,119 -12,37 20,90 -14,33 -57,42 -39,153 5,60 15,35 -1,56 -45,92v10l-5,58 -38,76 -13,95 11,28 -5,47 21,37 -16,44 28,39 5,65 7,21 37,42 -23,83 -6,30 9,98 -265,2 -252,8 -315,-3 -252,-5h-317l-113,-2 2,-13 -37,-80 -142,-47 -42,-31 -22,-100 -24,-22 -5,-58 -11,-52 2,-51 63,-93 -34,-48 -40,-19v-53l-14,-22 8,-46 -13,-17 7,-31 -20,-52 7,-52 8,-34 -19,-54 -74,-101 -18,-18 -50,-14 -46,-28 -37,-50 -40,-18 -39,-35 -22,-95 -16,-20 -65,-37 -78,-28 -26,-28 -15,-43 -54,-20 -64,-4 -11,-28 -83,-85 -34,-23 23,-62 -3,-20 14,-58 -5,-63 -18,-32 29,-23 -4,-75v-58l34,-31v-19l27,-30v-38l-37,-45 -21,-40 -57,-5v-51l10,-54 33,-16 26,-45 -2,-18 30,-45 34,-29 48,-11 12,-22 29,8 24,-38 34,12 15,-38 17,-5 3,-60 11,-371 43,13 54,-68 48,50 97,-5 129,-43 92,-27 70,-50 14,13 46,-6 68,-62 26,7 24,-22 33,20 25,33 -43,75 -25,30 16,37 -27,20 -23,55 11,5 70,-29 32,-25 19,2 68,55 18,-7 59,44 31,-14 7,25 48,10 22,35 28,87 95,28v8v-8l418,113 83,48 76,40 51,2 6,18h28l6,-22 48,-3 4,18 39,10 22,-8 43,28 23,-10 74,29 17,36 -31,35 39,32 34,-12 12,27 33,-2 44,33 17,29 -23,8 23,33v35h-24l21,47 -34,50 8,23 -20,37h70l32,-32 23,32 -23,41 -25,68 43,65 34,8 -13,34v45l-70,18 -40,30 6,31 -34,44 -17,50 -25,28v28h-1l-20,83 15,22 33,2 43,-65ZM1357,90l-6,40 -28,19 15,-59ZM1290,192l-58,21 4,-26 58,-17ZM1247,235l22,22 -51,18 6,25 -34,5 -29,20 -3,-23 30,-12ZM1193,177l14,30 -20,1 -14,-26ZM3110,1281l36,-10 12,10 -15,47h-34l-13,-32Z"/>
  <g class="counties" transform="scale(0.1)">
    <path data-fips-int="55001" data-name="Adams County" d="M1691,2143l64,2 2,191v246l-99,2 -42,-105 -51,-62 -3,-91 -18,-8 -11,-59 28,-35 1,-23 25,8 11,-68Z"/>
    <path data-fips-int="55005" data-name="Barron County" d="M520,1118l248,9 -6,249 -1,63 -64,-3 -248,-7v-61l9,-251Z"/>
    <path data-fips-int="55011" data-name="Buffalo County" d="M694,1880l65,2 -6,253 -31,20 -12,31 24,22 14,33 -14,53 -46,-28 -37,-50 -40,-18 -39,-35 -22,-95 -16,-20 -65,-37 23,-74 8,-54 13,-8Z"/>
    <path data-fips-int="55013" data-name="Burnett County" d="M521,742l-4,127h9l-6,249 -62,-1 1,-62 -190,-8 -1,63 -182,-8 10,-54 33,-16 26,-45 -2,-18 30,-45 34,-29 48,-11 12,-22 29,8 24,-38 34,12 15,-38 17,-5 3,-60Z"/>
    <path data-fips-int="55015" data-name="Calumet County" d="M2485,2138h78l6,253 -63,1v-33l-127,2 -4,-221Z"/>
    <path data-fips-int="55017" data-name="Chippewa County" d="M1077,1383l-1,188 -2,126 -375,-7 3,-191 -5,-63 64,3 1,-63Z"/>
    <path data-fips-int="55019" data-name="Clark County" d="M1385,1825l-2,190 -250,-2v-63h-62v-63l3,-190 2,-126 159,1h153Z"/>
    <path data-fips-int="55021" data-name="Columbia County" d="M2067,2587l2,251 -187,5v-10l-188,2 -2,-18 25,-32 40,-13v-130l-70,-7 8,-18 -31,-13 -6,-20 99,-2 185,-2h62v9Z"/>
    <path data-fips-int="55023" data-name="Crawford County" d="M1195,2738l-2,183 -40,35 -54,32 -48,8 -12,17 -54,35 -53,3 -11,-52 2,-51 63,-93 -34,-48 -40,-19v-53Z"/>
    <path data-fips-int="55025" data-name="Dane County" d="M2069,2838v63v253l-188,5v-8h-249v-253l14,-23h24l24,-40 188,-2v10Z"/>
    <path data-fips-int="55027" data-name="Dodge County" d="M2386,2647l1,126h-8l2,127h-62l-250,1v-63l-2,-251 64,-2 255,-1Z"/>
    <path data-fips-int="55033" data-name="Dunn County" d="M697,1436l5,63 -3,191 -3,127 -247,-7 3,-128 3,-189h-11l5,-64Z"/>
    <path data-fips-int="55035" data-name="Eau Claire County" d="M1074,1697l-3,190 -125,-2 -187,-3 -65,-2 2,-63 3,-127Z"/>
    <path data-fips-int="55037" data-name="Florence County" d="M2531,1022v48l-186,-2 -126,2 -2,-188 -4,-23 6,18h28l6,-22 48,-3 4,18 39,10 22,-8 43,28 23,-10 74,29 17,36 -31,35Z"/>
    <path data-fips-int="55039" data-name="Fond du Lac County" d="M2506,2392l6,253 -126,2v-63l-255,1 -2,-189 252,-2 -2,-33 127,-2Z"/>
    <path data-fips-int="55041" data-name="Forest County" d="M2213,859l4,23 2,188 126,-2 4,250 -127,2 -127,1 2,-63h-64l-3,-311 -1,-63h57v-67l76,40Z"/>
    <path data-fips-int="55043" data-name="Grant County" d="M1318,2901v281l-3,222 -113,-2 2,-13 -37,-80 -142,-47 -42,-31 -22,-100 -24,-22 -5,-58 53,-3 54,-35 12,-17 48,-8 54,-32 40,-35 68,-28Z"/>
    <path data-fips-int="55045" data-name="Green County" d="M1881,3159l3,250 -252,-5v-222v-31h249Z"/>
    <path data-fips-int="55047" data-name="Green Lake County" d="M2128,2332l1,64 2,189 -64,2 -63,2v-9h-62l-1,-89h23h8h4l-11,-32v-48h16v-77Z"/>
    <path data-fips-int="55049" data-name="Iowa County" d="M1442,2928h77l26,-22 51,5 36,-13v253v31h-314v-281l73,-5Z"/>
    <path data-fips-int="55053" data-name="Jackson County" d="M1071,1887v63h62v63l250,2 2,126v68l-62,-5h-247l-36,30v34l-93,-2v-7l2,-121 -6,-10 3,-243Z"/>
    <path data-fips-int="55055" data-name="Jefferson County" d="M2319,2900l2,254 -125,4 -127,-4v-253Z"/>
    <path data-fips-int="55057" data-name="Juneau County" d="M1598,2141l-11,68 -25,-8 -1,23 -28,35 11,59 18,8 3,91 51,62 42,105 -275,-2v-65l2,-308v-68Z"/>
    <path data-fips-int="55059" data-name="Kenosha County" d="M2713,3274l-6,30 9,98 -265,2 -2,-82 63,-1 -1,-44Z"/>
    <path data-fips-int="55061" data-name="Kewaunee County" d="M2899,1814l-47,98 -20,119 -12,37 -116,3 -5,-229 14,-23Z"/>
    <path data-fips-int="55063" data-name="La Crosse County" d="M947,2259v7l93,2h31l-1,251 -183,-4 8,-34 -19,-54 -74,-101 56,2 -14,-25 22,-34 48,5Z"/>
    <path data-fips-int="55065" data-name="Lafayette County" d="M1632,3182v222h-317l3,-222Z"/>
    <path data-fips-int="55067" data-name="Langlade County" d="M2033,1258h64l-2,63 127,-1v124h22v63l-175,2v63l-124,4v-67h-103l-2,-251Z"/>
    <path data-fips-int="55069" data-name="Lincoln County" d="M1840,1258l2,251h-318l1,-188v-126h314Z"/>
    <path data-fips-int="55071" data-name="Manitowoc County" d="M2704,2071l116,-3 20,90 -14,33 -57,42 -39,153 -161,5 -6,-253 81,-2 -2,-63Z"/>
    <path data-fips-int="55073" data-name="Marathon County" d="M1524,1509h318h103v67l2,251 -111,-2 -209,2 -242,-2 3,-253h58v-63Z"/>
    <path data-fips-int="55077" data-name="Marquette County" d="M1981,2334v77h-16v48l11,32h-4h-8h-23l1,89 -185,2v-246Z"/>
    <path data-fips-int="55078" data-name="Menominee County" d="M2244,1507h80v190h-127l-1,-61 -125,1 -2,-65v-63Z"/>
    <path data-fips-int="55079" data-name="Milwaukee County" d="M2659,2896l-5,47 21,37 -16,44 28,39 5,65 7,21 -128,2 -2,-253Z"/>
    <path data-fips-int="55081" data-name="Monroe County" d="M1385,2209l-2,308 -52,3 -261,-1 1,-251h-31v-34l36,-30h247Z"/>
    <path data-fips-int="55083" data-name="Oconto County" d="M2349,1318h61l2,126 62,2v61l37,2v62h91v20h94l-3,18 -40,30 6,31 -34,44 -17,50 -25,28v28h-1l-128,2 -7,-125h-123v-190h-80v-63h-22v-124Z"/>
    <path data-fips-int="55085" data-name="Oneida County" d="M2030,947l3,311h-193l-1,-63h-314l2,-248 344,-2 31,-1v28l63,3 -1,-31Z"/>
    <path data-fips-int="55087" data-name="Outagamie County" d="M2267,1890h187l27,-2 4,250 -110,2 -173,3 -3,-253Z"/>
    <path data-fips-int="55089" data-name="Ozaukee County" d="M2704,2639l-5,58 -38,76 -13,95 11,28 -90,2 -4,-126h12l-1,-128Z"/>
    <path data-fips-int="55091" data-name="Pepin County" d="M696,1817l-2,63 -181,-5 -13,8 -8,54 -23,74 -78,-28 -26,-28 -15,-43 94,3 5,-105Z"/>
    <path data-fips-int="55093" data-name="Pierce County" d="M452,1682l-3,128 -5,105 -94,-3 -54,-20 -64,-4 -11,-28 -83,-85 -34,-23 23,-62 -3,-20 165,4Z"/>
    <path data-fips-int="55095" data-name="Polk County" d="M458,1117l-9,251v61l-309,-10v-58l34,-31v-19l27,-30v-38l-37,-45 -21,-40 -57,-5v-51l182,8 1,-63 190,8Z"/>
    <path data-fips-int="55097" data-name="Portage County" d="M1947,1827l3,318h-195l-64,-2 -2,-191h-62v-125l209,-2Z"/>
    <path data-fips-int="55099" data-name="Price County" d="M1525,884l2,63 -2,248v126l-165,2 -156,-2 1,-188 4,-249h186Z"/>
    <path data-fips-int="55101" data-name="Racine County" d="M2699,3149l37,42 -23,83 -202,3 1,44 -63,1 -3,-169 125,-2Z"/>
    <path data-fips-int="55103" data-name="Richland County" d="M1442,2928l-51,-32 -73,5 -57,-8 -68,28 2,-183 -2,-93h190h60Z"/>
    <path data-fips-int="55105" data-name="Rock County" d="M2069,3154l127,4 3,254 -315,-3 -3,-250Z"/>
    <path data-fips-int="55107" data-name="Rusk County" d="M1205,1133l-1,188 -127,-1v63l-315,-7 6,-249 312,3Z"/>
    <path data-fips-int="55109" data-name="Saint Croix County" d="M449,1429l-5,64h11l-3,189 -163,-8 -165,-4 14,-58 -5,-63 -18,-32 29,-23 -4,-75Z"/>
    <path data-fips-int="55111" data-name="Sauk County" d="M1658,2584l6,20 31,13 -8,18 70,7v130l-40,13 -25,32 2,18 -24,40h-24l-14,23 -36,13 -51,-5 -26,22h-77l1,-283h-60v-63Z"/>
    <path data-fips-int="55113" data-name="Sawyer County" d="M1085,757l-2,125 126,2 -4,249 -125,-3 -312,-3 5,-250 -5,-2 3,-124 176,1Z"/>
    <path data-fips-int="55115" data-name="Shawano County" d="M2069,1572l2,65 125,-1 1,61h127h123l7,125v68h-187v-63h-320l-2,-251Z"/>
    <path data-fips-int="55117" data-name="Sheboygan County" d="M2730,2386l5,60 15,35 -1,56 -45,92v10l-128,5 -64,1 -6,-253 63,-1Z"/>
    <path data-fips-int="55119" data-name="Taylor County" d="M1525,1321l-1,188h-78v63h-58h-153l-159,-1 1,-188v-63l127,1 156,2Z"/>
    <path data-fips-int="55121" data-name="Trempealeau County" d="M946,1885l-3,243 6,10 -2,121 -33,15 -48,-5 -22,34 14,25 -56,-2 -18,-18 -50,-14 14,-53 -14,-33 -24,-22 12,-31 31,-20 6,-253Z"/>
    <path data-fips-int="55123" data-name="Vernon County" d="M1383,2582v63h-190l2,93 -283,-3 -14,-22 8,-46 -13,-17 7,-31 -20,-52 7,-52 183,4 261,1 52,-3Z"/>
    <path data-fips-int="55125" data-name="Vilas County" d="M2030,947l-66,-3 1,31 -63,-3v-28l-31,1 -344,2 -2,-63h60v-220v-8l418,113 83,48v67h-57Z"/>
    <path data-fips-int="55127" data-name="Walworth County" d="M2321,3154l125,-1 3,169 2,82 -252,8 -3,-254Z"/>
    <path data-fips-int="55129" data-name="Washburn County" d="M771,751l-3,124 5,2 -5,250 -248,-9 6,-249h-9l4,-127Z"/>
    <path data-fips-int="55131" data-name="Washington County" d="M2512,2645l64,-1 1,128h-12l4,126 -188,2 -2,-127h8l-1,-126Z"/>
    <path data-fips-int="55133" data-name="Waukesha County" d="M2381,2900l188,-2 2,253 -125,2 -125,1 -2,-254Z"/>
    <path data-fips-int="55135" data-name="Waupaca County" d="M2267,1890h-68l3,253 -77,2h-175l-3,-318h320Z"/>
    <path data-fips-int="55137" data-name="Waushara County" d="M1950,2145h175l3,187 -147,2 -224,2 -2,-191Z"/>
    <path data-fips-int="55139" data-name="Winnebago County" d="M2375,2140l4,221 2,33 -252,2 -1,-64 -3,-187 77,-2Z"/>
    <path data-fips-int="55141" data-name="Wood County" d="M1627,1827v125h62l2,191 -93,-2h-213l-2,-126 2,-190Z"/>
    <path data-fips-int="55003" data-name="Ashland County" d="M1277,448l-4,248 64,1 -2,64 60,-2v125h-186l-126,-2 2,-125 3,-124v-188l70,-29 32,-25 19,2ZM1357,90l-6,40 -28,19 15,-59ZM1290,192l-58,21 4,-26 58,-17ZM1247,235l22,22 -51,18 6,25 -34,5 -29,20 -3,-23 30,-12ZM1193,177l14,30 -20,1 -14,-26Z"/>
    <path data-fips-int="55007" data-name="Bayfield County" d="M1088,445v188l-3,124 -138,-5 -176,-1 5,-321 5,-113 92,-27 70,-50 14,13 46,-6 68,-62 26,7 24,-22 33,20 25,33 -43,75 -25,30 16,37 -27,20 -23,55Z"/>
    <path data-fips-int="55009" data-name="Brown County" d="M2454,1822l128,-2 -20,83 15,22 33,2 43,-65 46,-20 5,229 -62,2 2,63 -81,2h-78l-4,-250 -27,2Z"/>
    <path data-fips-int="55029" data-name="Door County" d="M3110,1281l36,-10 12,10 -15,47h-34l-13,-32ZM2899,1814l-186,5 6,-37 44,-68 26,-25 49,-4 25,-28 28,37 -14,-47 40,-98 20,-5 20,-90 36,9 26,-27v-37l19,-8 3,-32 44,-1 5,38 -9,22 -22,-14 -1,90 -8,22 -31,8 -6,40 -26,35 12,25 -25,18 8,24 -28,16 -29,47Z"/>
    <path data-fips-int="55031" data-name="Douglas County" d="M781,317l-5,113 -5,321 -250,-9 -122,-1 11,-371 43,13 54,-68 48,50 97,-5Z"/>
    <path data-fips-int="55075" data-name="Marinette County" d="M2693,1609l3,-18h-94v-20h-91v-62l-37,-2v-61l-62,-2 -2,-126h-61l-4,-250 186,2v-48l34,-12 12,27 33,-2 44,33 17,29 -23,8 23,33v35h-24l21,47 -34,50 8,23 -20,37h70l32,-32 23,32 -23,41 -25,68 43,65 34,8 -13,34v45Z"/>
    <path data-fips-int="55051" data-name="Iron County" d="M1585,656v8v220h-60h-130v-125l-60,2 2,-64 -64,-1 4,-248 18,-7 59,44 31,-14 7,25 48,10 22,35 28,87Z"/>
  </g>
  <path class="mesh" transform="scale(0.1)" d="M399,741l122,1 -4,127h9l-6,249 248,9 -6,249 -1,63 -64,-3 -248,-7v-61l9,-251 62,1M469,2011l23,-74 8,-54 13,-8 181,5 65,2 -6,253 -31,20 -12,31 24,22 14,33 -14,53M458,1117l1,-62 -190,-8 -1,63 -182,-8M2375,2140l-173,3 -3,-253h68h187l27,-2 4,250h78l6,253 -63,1v-33l-127,2 -4,-221 110,-2M762,1376l315,7 -1,188 -2,126 -375,-7 3,-191 -5,-63M1076,1571l159,1h153l-3,253 -2,190 -250,-2v-63h-62v-63l3,-190M912,2735l283,3 -2,183 -40,35 -54,32 -48,8 -12,17 -54,35 -53,3M2069,2838v63v253l-188,5v-8h-249v-253l14,-23h24l24,-40M2067,2587l64,-2 255,-1v63l1,126h-8l2,127h-62l-250,1M1071,1887l-125,-2 -187,-3M694,1880l2,-63M2531,1022v48l-186,-2 -126,2 -2,-188 -4,-23M2506,2392l6,253 -126,2M2131,2585l-2,-189 252,-2 -2,-33M2345,1068l4,250 -127,2 -127,1 2,-63h-64l-3,-311 -1,-63h57v-67M1193,2921l68,-28 57,8v281l-3,222M1881,3159l3,250M1632,3404v-222v-31M1942,2580l-1,-89h23h8h4l-11,-32v-48h16v-77l147,-2 1,64M1757,2582l-99,2 -42,-105 -51,-62 -3,-91 -18,-8 -11,-59 28,-35 1,-23 25,8 11,-68 93,2 64,2 2,191v246M1318,2901l73,-5 51,32h77l26,-22 51,5 36,-13M1632,3182h-314M1383,2015l2,126v68l-62,-5h-247l-36,30v34l-93,-2v-7l2,-121 -6,-10 3,-243M2319,2900l2,254 -125,4 -127,-4M1757,2582l185,-2h62v9l63,-2 2,251 -187,5v-10l-188,2 -2,-18 25,-32 40,-13v-130l-70,-7 8,-18 -31,-13 -6,-20 -275,-2v-65l2,-308M1385,2141h213M2451,3404l-2,-82 63,-1 -1,-44 202,-3M2820,2068l-116,3 -5,-229M2713,1819l186,-5M1040,2268h31l-1,251 -183,-4M802,2326l56,2 -14,-25 22,-34 48,5 33,-15M2222,1320v124h22v63l-175,2v63l-124,4v-67h-103l-2,-251h193M1842,1509h-318l1,-188v-126h314l1,63M2730,2386l-161,5M2563,2138l81,-2 -2,-63 62,-2M1945,1576l2,251 -111,-2 -209,2 -242,-2M1388,1572h58v-63h78M1757,2336l224,-2M2244,1507h80v190h-127l-1,-61 -125,1 -2,-65M2699,3149l-128,2 -2,-253 90,-2M1383,2517l-52,3 -261,-1M2349,1318h61l2,126 62,2v61l37,2v62h91v20h94l-3,18M2582,1820l-128,2 -7,-125h-123M1525,1195l2,-248 344,-2 31,-1v28l63,3 -1,-31 66,3M2569,2898l-4,-126h12l-1,-128 128,-5M350,1912l94,3 5,-105M124,1670l165,4 163,8M699,1690l-3,127 -247,-7 3,-128 3,-189h-11l5,-64 -309,-10M2267,1890v-63h-320l3,318h-195M1691,2143l-2,-191h-62v-125M1525,1321l-165,2 -156,-2 1,-188 4,-249h186h130l2,63M2449,3322l-3,-169 125,-2M1195,2738l-2,-93h190h60l-1,283M2196,3158l3,254M1204,1321l-127,-1v63M768,1127l312,3 125,3M1383,2645v-63M768,1127l5,-250 -5,-2 3,-124 176,1 138,5 -2,125 126,2M2454,1822v68M2576,2644l-64,1M1525,884h60v-220M2321,3154l125,-1M2569,2898l-188,2M2202,2143l-77,2h-175M2125,2145l3,187M1277,448l-4,248 64,1 -2,64 60,-2v125M1085,757l3,-124v-188M521,742l250,9 5,-321 5,-113"/>
  <g class="cities">
    <circle r="3" cx="265.5" cy="300.8"/>
    <text x="265.5" y="300.8">Milwaukee</text>
    <circle r="3" cx="186.3" cy="299.4"/>
    <text x="186.3" y="299.4">Madison</text>
    <circle r="3" cx="257.1" cy="193.6"/>
    <text x="257.1" y="193.6">Green Bay</text>
  </g>
</svg>