<?xml version="1.0" encoding="utf-8"?>
<!DOCTYPE svg PUBLIC "-//W3C//DTD SVG 1.1//EN" "http://www.w3.org/Graphics/SVG/1.1/DTD/svg11.dtd">
<svg version="1.1" xmlns="http://www.w3.org/2000/svg" width="339" height="350" viewBox="0 0 339 350">
  <path class="state" transform="scale(0.1)" d="M923,398l0,NaN 1541,NaN 2,NaN -2079,NaN -38,-32 -12,-43 -14,-12 -100,-10 -10,-26 -78,-82 -34,-23 22,-77 12,-51 -4,-62 -19,-30 32,-31 -6,-65 0,-48 29,-30 1,-24 26,-26 3,-37 -58,-83 -53,-8 2,-47 9,-50 42,-30 12,-46 29,-44 37,-25 41,-13 12,-20 30,7 26,-35 29,10 8,-32 19,-8 4,-58 12,-353 42,8 8,-24 2,0 1,-4 -1,4 0,-4 -3,4 48,-37 34,32 259,-150 149,-93 239,-155 331,12 -222,499 13,21 27,-13 8,25 49,12 17,31 28,83 90,25 239,68 161,44 78,45 56,35 18,-7 45,12 33,16 7,-20 45,-1 39,23 19,-5 43,26 23,-8 74,32 11,35 -29,30 37,28 32,-12 15,27 42,2 46,54 -19,9 23,51 -26,12 18,58 -31,37 6,21 -17,34 62,3 34,-30 21,30 -19,32 -26,71 44,60 19,5 88,15 15,-88 45,-28 61,-70 39,-72 162,-5 253,135 -105,100 -66,91 -51,107 -45,141 -60,249 -51,257 -16,123 -9,96 -3,87 12,96 78,559 -399,12 -256,3 -239,5 -301,-3 -240,-5 -299,-2 -110,-3 -9,-44 -24,-46 -124,-35 -57,-47 -14,-88 -26,-21 -3,-55 -8,-97 29,-46 32,-34 -21,-45 -51,-28 0,-50 -12,-20 8,-43 -22,-68 3,-78 10,-35 -16,-45 -73,-102 -5,-11 -59,-19 -13,-1 -66,-73 -47,-24 -29,-28 -22,-93 -19,-22 -57,-30Z"/>
  <g class="counties" transform="scale(0.1)">
    <path data-fips-int="55001" data-name="Adams County" d="M1612,2201l62,2 0,181 0,235 -93,1 -2,0 -27,-81 -61,-80 0,-83 -19,-9 -12,-58 28,-23 1,-30 34,-7 2,-50Z"/>
    <path data-fips-int="55005" data-name="Barron County" d="M500,1221l238,9 -7,238 -1,59 -61,-5 -238,-8 9,-294Z"/>
    <path data-fips-int="55011" data-name="Buffalo County" d="M666,1947l59,1 -5,236 -5,10 -17,14 -2,0 -3,0 -18,36 21,12 2,0 -2,0 2,2 16,33 -13,51 -13,-1 -66,-73 -47,-24 -29,-28 -22,-93 -19,-22 -57,-30 23,-71 8,-52 13,-6Z"/>
    <path data-fips-int="55013" data-name="Burnett County" d="M503,864l-5,120 8,0 -6,237 -60,-1 2,-60 -179,-8 -3,59 -172,-8 9,-50 42,-30 12,-46 29,-44 37,-25 41,-13 12,-20 30,7 26,-35 29,10 8,-32 19,-8 4,-58Z"/>
    <path data-fips-int="55015" data-name="Calumet County" d="M2370,2199l74,0 4,242 -59,0 0,-32 -121,2 -3,-212Z"/>
    <path data-fips-int="55017" data-name="Chippewa County" d="M1031,1474l-3,180 -2,120 -356,-5 0,-2 4,-181 -5,-64 61,5 1,-59Z"/>
    <path data-fips-int="55019" data-name="Clark County" d="M1322,1897l-2,179 -238,0 0,-61 -59,0 1,-60 2,-181 2,-120 159,3 138,-1Z"/>
    <path data-fips-int="55021" data-name="Columbia County" d="M1970,2625l0,240 -178,3 0,-8 -177,1 -2,0 21,-48 37,-11 3,-127 -66,-5 7,-20 -29,-10 -5,-20 93,-1 177,0Z"/>
    <path data-fips-int="55023" data-name="Crawford County" d="M1137,2767l-2,174 -37,32 -53,31 -46,9 -8,15 -54,33 -51,2 -8,-97 29,-46 32,-34 -21,-45 -51,-28 0,-50Z"/>
    <path data-fips-int="55025" data-name="Dane County" d="M1970,2865l0,61 0,240 -180,5 0,-8 -238,-2 2,-240 14,-25 26,0 21,-35 177,-1 0,8Z"/>
    <path data-fips-int="55027" data-name="Dodge County" d="M2275,2683l0,119 -8,0 1,123 -59,0 -239,1 0,-61 0,-240 60,-1 243,0Z"/>
    <path data-fips-int="55033" data-name="Dunn County" d="M669,1522l5,64 -4,181 0,2 -3,118 -238,-7 2,-120 8,-183 -10,-3 2,-60Z"/>
    <path data-fips-int="55035" data-name="Eau Claire County" d="M1026,1774l-2,181 -120,-3 -179,-4 -59,-1 1,-60 3,-118Z"/>
    <path data-fips-int="55037" data-name="Florence County" d="M2416,1135l2,46 -177,-3 -121,2 -2,-180 -4,-21 33,16 7,-20 45,-1 39,23 19,-5 43,26 23,-8 74,32 11,35 -29,30Z"/>
    <path data-fips-int="55039" data-name="Fond du Lac County" d="M2389,2441l5,241 -119,1 -2,-59 -243,0 -2,-180 242,-2 -2,-31 121,-2Z"/>
    <path data-fips-int="55041" data-name="Forest County" d="M2114,979l4,21 2,180 121,-2 1,238 -120,2 -121,0 0,-55 -60,-5 -1,-296 0,-60 55,0 0,-63 56,35 18,-7Z"/>
    <path data-fips-int="55043" data-name="Grant County" d="M1256,2921l-2,270 -1,211 -110,-3 -9,-44 -24,-46 -124,-35 -57,-47 -14,-88 -26,-21 -3,-55 51,-2 54,-33 8,-15 46,-9 53,-31 37,-32 60,-28Z"/>
    <path data-fips-int="55045" data-name="Green County" d="M1790,3171l2,238 -240,-5 0,-213 0,-30 238,2Z"/>
    <path data-fips-int="55047" data-name="Green Lake County" d="M1880,2534l8,-30 -14,0 0,-47 14,0 0,-73 140,-2 0,62 2,180 -60,1 -119,-6 0,-24 -1,-61Z"/>
    <path data-fips-int="55049" data-name="Iowa County" d="M1373,2948l2,0 53,2 11,10 33,-32 46,5 36,-12 -2,240 0,30 -298,0 2,-270 69,-3Z"/>
    <path data-fips-int="55053" data-name="Jackson County" d="M1024,1955l-1,60 59,0 0,61 238,0 2,123 -2,64 -122,-5 -172,0 -35,21 1,39 -88,-2 0,-7 1,-116 -6,0 5,-241Z"/>
    <path data-fips-int="55055" data-name="Jefferson County" d="M2209,2925l1,241 -120,3 -120,-3 0,-240Z"/>
    <path data-fips-int="55057" data-name="Juneau County" d="M1525,2199l-2,50 -34,7 -1,30 -28,23 12,58 19,9 0,83 61,80 27,81 -263,-1 3,-64 1,-292 2,-64Z"/>
    <path data-fips-int="55059" data-name="Kenosha County" d="M2585,3282l-8,42 11,80 -256,3 -1,-80 61,-3 -2,-38Z"/>
    <path data-fips-int="55061" data-name="Kewaunee County" d="M2767,1890l-47,93 -19,122 -11,28 -110,3 -3,-219 11,-22Z"/>
    <path data-fips-int="55063" data-name="La Crosse County" d="M904,2309l0,7 88,2 31,0 -4,239 -175,-3 10,-35 -16,-45 -73,-102 53,2 -11,-22 21,-34 42,10 8,-24Z"/>
    <path data-fips-int="55065" data-name="Lafayette County" d="M1552,3191l0,213 -299,-2 1,-211Z"/>
    <path data-fips-int="55067" data-name="Langlade County" d="M1941,1358l60,5 0,55 121,0 0,119 21,0 -2,60 -166,2 0,62 -117,0 -2,-62 -98,0 0,-243Z"/>
    <path data-fips-int="55069" data-name="Lincoln County" d="M1758,1356l0,243 -301,-2 2,-181 0,-121 297,3Z"/>
    <path data-fips-int="55071" data-name="Manitowoc County" d="M2580,2136l110,-3 19,66 -11,47 -57,43 -38,147 -155,5 -4,-242 77,-1 -2,-60Z"/>
    <path data-fips-int="55073" data-name="Marathon County" d="M1457,1597l301,2 98,0 2,62 0,241 -110,-4 -194,0 -232,-1 3,-241 57,1 1,-60Z"/>
    <path data-fips-int="55077" data-name="Marquette County" d="M1879,2534l-29,0 1,61 0,24 -177,0 0,-235 214,0 0,73 -14,0 0,47 14,0Z"/>
    <path data-fips-int="55078" data-name="Menominee County" d="M2141,1597l77,0 0,180 -122,2 0,-60 -111,0 -10,-58 0,-62Z"/>
    <path data-fips-int="55079" data-name="Milwaukee County" d="M2532,2921l2,0 -4,49 20,33 -15,46 26,32 -2,47 13,35 -124,1 -1,-241Z"/>
    <path data-fips-int="55081" data-name="Monroe County" d="M1320,2263l-1,292 -32,4 -268,-2 4,-239 -31,0 -1,-39 35,-21 172,0Z"/>
    <path data-fips-int="55083" data-name="Oconto County" d="M2242,1416l60,2 0,119 59,2 0,60 34,0 0,58 87,0 0,22 87,0 3,15 0,1 -29,10 -3,39 -34,48 -13,38 -27,37 -2,26 2,4 -2,0 0,-4 -1,4 -118,5 -4,-5 -10,-120 -113,0 0,-180 -77,0 2,-60 -21,0 0,-119Z"/>
    <path data-fips-int="55085" data-name="Oneida County" d="M1940,1062l1,296 -183,-2 -2,-58 -297,-3 3,-235 327,0 29,-2 0,29 61,1 -2,-28Z"/>
    <path data-fips-int="55087" data-name="Outagamie County" d="M2162,1962l179,1 25,-1 4,237 -105,0 -166,4 -1,-241Z"/>
    <path data-fips-int="55089" data-name="Ozaukee County" d="M2577,2678l-3,55 -31,52 0,2 -21,101 10,33 -85,2 -2,-121 11,0 -1,-120Z"/>
    <path data-fips-int="55091" data-name="Pepin County" d="M667,1887l-1,60 -174,-5 -13,6 -8,52 -23,71 -61,-21 -38,-32 -12,-43 89,5 3,-100Z"/>
    <path data-fips-int="55093" data-name="Pierce County" d="M431,1760l-2,120 -3,100 -89,-5 -14,-12 -100,-10 -10,-26 -78,-82 -34,-23 22,-77 193,7Z"/>
    <path data-fips-int="55095" data-name="Polk County" d="M440,1220l-9,294 -293,-8 0,-48 29,-30 1,-24 26,-26 3,-37 -58,-83 -53,-8 2,-47 172,8 3,-59 179,8Z"/>
    <path data-fips-int="55097" data-name="Portage County" d="M1858,1902l1,301 -185,0 -62,-2 0,-183 -58,0 0,-120 194,0Z"/>
    <path data-fips-int="55099" data-name="Price County" d="M1460,1002l2,58 -3,235 0,121 -151,2 -157,-2 2,-180 5,-237 177,3Z"/>
    <path data-fips-int="55101" data-name="Racine County" d="M2572,3163l32,41 -19,78 -195,4 2,38 -61,3 -2,-161 119,-2Z"/>
    <path data-fips-int="55103" data-name="Richland County" d="M1375,2948l-2,0 -48,-30 -69,3 -61,-8 -60,28 2,-174 0,-92 179,3 61,0Z"/>
    <path data-fips-int="55105" data-name="Rock County" d="M1970,3166l120,3 3,243 -301,-3 -2,-238Z"/>
    <path data-fips-int="55107" data-name="Rusk County" d="M1153,1236l-2,180 -120,-5 0,63 -300,-6 7,-238Z"/>
    <path data-fips-int="55109" data-name="Saint Croix County" d="M431,1514l-2,60 10,3 -8,183 -115,-8 -193,-7 12,-51 -4,-62 -19,-30 32,-31 -6,-65Z"/>
    <path data-fips-int="55111" data-name="Sauk County" d="M1579,2620l2,0 5,20 29,10 -7,20 66,5 -3,127 -37,11 -21,48 2,0 -21,35 -26,0 -14,25 -36,12 -46,-5 -33,32 -11,-10 -53,-2 2,-270 -61,0 0,-59Z"/>
    <path data-fips-int="55113" data-name="Sawyer County" d="M1040,875l-1,124 119,0 -5,237 -415,-6 3,-360Z"/>
    <path data-fips-int="55115" data-name="Shawano County" d="M1975,1661l10,58 111,0 0,60 122,-2 113,0 10,120 0,66 -179,-1 0,-62 -304,2 0,-241Z"/>
    <path data-fips-int="55117" data-name="Sheboygan County" d="M2603,2436l1,51 17,35 0,58 -36,69 -8,29 -122,4 -61,0 -5,-241 59,0Z"/>
    <path data-fips-int="55119" data-name="Taylor County" d="M1459,1416l-2,181 -74,0 -1,60 -57,-1 -138,1 -159,-3 3,-180 0,-63 120,5 157,2Z"/>
    <path data-fips-int="55121" data-name="Trempealeau County" d="M904,1952l-5,241 6,0 -1,116 -26,-5 -8,24 -42,-10 -21,34 11,22 -53,-2 -5,-11 -59,-19 13,-51 -16,-33 -2,-2 2,0 -2,0 -21,-12 18,-36 3,0 2,0 17,-14 5,-10 5,-236Z"/>
    <path data-fips-int="55123" data-name="Vernon County" d="M1316,2619l0,59 -179,-3 0,92 -270,-4 -12,-20 8,-43 -22,-68 3,-78 175,3 268,2 32,-4Z"/>
    <path data-fips-int="55125" data-name="Vilas County" d="M1940,1062l-63,-2 2,28 -61,-1 0,-29 -29,2 -327,0 -2,-58 57,0 0,-220 239,68 161,44 78,45 0,63 -55,0Z"/>
    <path data-fips-int="55127" data-name="Walworth County" d="M2210,3166l119,0 2,161 1,80 -239,5 -3,-243Z"/>
    <path data-fips-int="55129" data-name="Washburn County" d="M741,870l-3,360 -238,-9 6,-237 -8,0 5,-120Z"/>
    <path data-fips-int="55131" data-name="Washington County" d="M2394,2682l61,0 1,120 -11,0 2,121 -179,2 -1,-123 8,0 0,-119Z"/>
    <path data-fips-int="55133" data-name="Waukesha County" d="M2268,2925l179,-2 1,241 -119,2 -119,0 -1,-241Z"/>
    <path data-fips-int="55135" data-name="Waupaca County" d="M2162,1962l-64,0 1,241 -72,0 -168,0 -1,-301 304,-2Z"/>
    <path data-fips-int="55137" data-name="Waushara County" d="M1859,2203l168,0 1,179 -140,2 -214,0 0,-181Z"/>
    <path data-fips-int="55139" data-name="Winnebago County" d="M2265,2199l3,212 2,31 -242,2 0,-62 -1,-179 72,0Z"/>
    <path data-fips-int="55141" data-name="Wood County" d="M1554,1898l0,120 58,0 0,183 -87,-2 -203,0 -2,-123 2,-179Z"/>
    <path data-fips-int="55003" data-name="Ashland County" d="M1172,543l4,3 6,7 -6,-7 6,7 6,5 -1,0 -2,0 2,1 1,-1 36,26 -5,237 61,1 -1,60 59,0 -3,120 -177,-3 -119,0 1,-124 4,-134 0,-160 13,-2 94,-51ZM1164,423l2,8 -2,-8 2,0 0,8 -55,34 2,-24 58,-33 21,-25 24,20ZM1145,325l14,26 -20,4 -13,-23ZM1238,340l-56,20 5,-25 51,-17ZM1301,245l-5,35 -30,22 8,-49Z"/>
    <path data-fips-int="55007" data-name="Bayfield County" d="M1119,375l-5,28 -37,42 -11,16 15,45 -31,25 -18,38 12,12 0,160 -4,134 -299,-5 5,-286 5,-129 88,-22 66,-48 13,6 5,7 2,0 38,-7 63,-58 27,7 23,-20 34,18Z"/>
    <path data-fips-int="55009" data-name="Brown County" d="M2341,1897l4,5 118,-5 -8,31 14,27 -19,3 -13,17 19,25 0,3 0,-3 39,-5 10,-30 25,-30 47,-18 3,219 -61,2 2,60 -77,1 -74,0 -4,-237 -25,1Z"/>
    <path data-fips-int="55029" data-name="Door County" d="M2917,1599l-36,18 -6,39 -23,24 8,32 -19,13 3,27 -27,17 -26,45 -24,76 -179,5 7,-33 54,-82 21,7 31,-20 29,-25 26,42 -12,-52 31,-75 48,-81 2,-30 30,15 4,-25 22,-5 5,-48 16,-20 44,-5 1,53 -29,-7 7,57 -28,1ZM2966,1419l-6,-46 53,15 -13,40Z"/>
    <path data-fips-int="55031" data-name="Douglas County" d="M508,475l9,10 7,1 40,18 68,-8 99,-41 20,0 -5,129 -5,286 -238,-6 -117,-5 12,-353 42,8 11,-28 5,10Z"/>
    <path data-fips-int="55075" data-name="Marinette County" d="M2640,1599l14,17 -17,21 0,43 -13,7 0,-2 0,2 -52,7 -3,-15 -87,0 0,-22 -87,0 0,-58 -34,0 0,-60 -59,-2 0,-119 -60,-2 -1,-238 177,3 -2,-46 32,-12 15,27 42,2 46,54 -19,9 23,51 -26,12 18,58 -31,37 6,21 -17,34 62,3 34,-30 21,30 -19,32 -26,71 44,60Z"/>
    <path data-fips-int="55051" data-name="Iron County" d="M1285,598l13,21 27,-13 8,25 49,12 17,31 28,83 90,25 0,220 -57,0 -125,0 3,-120 -59,0 1,-60 -61,-1 5,-237 18,-5Z"/>
  </g>
  <g class="cities">
    <circle r="3" cx="252.9" cy="302.8"/>
    <text x="252.9" y="302.8">Milwaukee</text>
    <circle r="3" cx="177.5" cy="301.3"/>
    <text x="177.5" y="301.3">Madison</text>
    <circle r="3" cx="245.2" cy="200.7"/>
    <text x="245.2" y="200.7">Green Bay</text>
  </g>
</svg>