<?xml version="1.0" encoding="utf-8"?>
<!DOCTYPE svg PUBLIC "-//W3C//DTD SVG 1.1//EN" "http://www.w3.org/Graphics/SVG/1.1/DTD/svg11.dtd">
<svg version="1.1" xmlns="http://www.w3.org/2000/svg" width="339" height="350" viewBox="0 0 339 350">
  <defs>
    <pattern id="pattern-no-results" width="50" height="50" patternUnits="userSpaceOnUse">
      <rect width="50" height="50" fill="#ddd"/>
      <path d="M-5,5L5,-5M-5,55L55,-5M45,55L55,45" stroke-width="10" stroke="#666666"/>
    </pattern>
  </defs>
  <g class="counties" transform="scale(0.1)">
    <path data-fips-int="55001" data-name="Adams County" d="M1612,2201l62,2 0,181 0,235 -93,1 -2,0 -27,-81 -61,-80 0,-83 -19,-9 -12,-58 29,-53 34,-7 2,-50Z"/>
    <path data-fips-int="55005" data-name="Barron County" d="M500,1221l238,9 -7,238 -1,59 -61,-5 -238,-8 9,-294Z"/>
    <path data-fips-int="55011" data-name="Buffalo County" d="M666,1947l59,1 -5,236 -5,10 -17,14 -2,0 -3,0 3,48 2,0 -2,0 2,2 0,-2 0,2 16,33 -13,51 -79,-74 -76,-52 -22,-93 -76,-52 31,-123 13,-6Z"/>
    <path data-fips-int="55013" data-name="Burnett County" d="M503,864l3,120 -6,237 -60,-1 2,-60 -179,-8 -3,59 -172,-8 9,-50 42,-30 41,-90 120,-51 26,-35 29,10 27,-40 4,-58Z"/>
    <path data-fips-int="55015" data-name="Calumet County" d="M2370,2199l74,0 4,242 -59,0 0,-32 -121,2 -3,-212Z"/>
    <path data-fips-int="55017" data-name="Chippewa County" d="M1031,1474l-3,180 -2,120 -356,-5 0,-2 4,-181 -5,-64 61,5 1,-59Z"/>
    <path data-fips-int="55019" data-name="Clark County" d="M1322,1897l-2,179 -238,0 0,-61 -59,0 1,-60 2,-181 2,-120 297,2Z"/>
    <path data-fips-int="55021" data-name="Columbia County" d="M1970,2625l0,240 -178,3 0,-8 -177,1 -2,0 21,-48 37,-11 3,-127 -66,-5 -27,-50 93,-1 177,0Z"/>
    <path data-fips-int="55023" data-name="Crawford County" d="M1137,2767l-2,174 -90,63 -46,9 -62,48 -51,2 -8,-97 61,-80 -21,-45 -51,-28 0,-50Z"/>
    <path data-fips-int="55025" data-name="Dane County" d="M1970,2865l0,61 0,240 -180,5 0,-8 -238,-2 2,-240 61,-60 -2,0 2,0 177,-1 0,8Z"/>
    <path data-fips-int="55027" data-name="Dodge County" d="M2275,2683l-8,119 1,123 -59,0 -239,1 0,-61 0,-240 60,-1 243,0Z"/>
    <path data-fips-int="55033" data-name="Dunn County" d="M669,1522l5,64 -4,181 0,2 -3,118 -238,-7 2,-120 8,-183 -8,-63Z"/>
    <path data-fips-int="55035" data-name="Eau Claire County" d="M1026,1774l-2,181 -120,-3 -179,-4 -59,-1 1,-60 3,-118 0,-2 0,2Z"/>
    <path data-fips-int="55037" data-name="Florence County" d="M2416,1135l2,46 -177,-3 -121,2 -6,-201 85,-5 101,44 23,-8 74,32 11,35 -29,30Z"/>
    <path data-fips-int="55039" data-name="Fond du Lac County" d="M2389,2441l5,241 -119,1 -2,-59 -243,0 -2,-180 242,-2 -2,-31 121,-2Z"/>
    <path data-fips-int="55041" data-name="Forest County" d="M2114,979l6,201 121,-2 1,238 -120,2 -121,0 0,-55 -60,-5 -1,-296 0,-60 55,0 0,-63 56,35Z"/>
    <path data-fips-int="55043" data-name="Grant County" d="M1256,2921l-2,270 -1,211 -110,-3 -33,-90 -124,-35 -57,-47 -14,-88 -26,-21 -3,-55 51,-2 62,-48 46,-9 90,-63 60,-28Z"/>
    <path data-fips-int="55045" data-name="Green County" d="M1790,3171l2,238 -240,-5 0,-213 0,-30 238,2Z"/>
    <path data-fips-int="55047" data-name="Green Lake County" d="M2028,2382l0,62 2,180 -60,1 -119,-6 0,-24 -1,-61 29,0 1,0 -1,0 1,0 8,-30 0,-120Z"/>
    <path data-fips-int="55049" data-name="Iowa County" d="M1373,2948l2,0 64,12 33,-32 82,-7 -2,240 0,30 -298,0 2,-270 69,-3Z"/>
    <path data-fips-int="55053" data-name="Jackson County" d="M1024,1955l-1,60 59,0 0,61 238,0 2,123 -2,64 -294,-5 -35,21 1,39 -88,-9 -5,-116 5,-241Z"/>
    <path data-fips-int="55055" data-name="Jefferson County" d="M2209,2925l1,241 -120,3 -120,-3 0,-240Z"/>
    <path data-fips-int="55057" data-name="Juneau County" d="M1525,2199l-2,50 -34,7 -29,53 12,58 19,9 0,83 61,80 27,81 2,0 -2,0 -263,-1 3,-64 1,-292 2,-64Z"/>
    <path data-fips-int="55059" data-name="Kenosha County" d="M2585,3282l3,122 -256,3 -1,-80 61,-3 -2,-38Z"/>
    <path data-fips-int="55061" data-name="Kewaunee County" d="M2767,1890l-47,93 -30,150 -110,3 -3,-219 11,-22Z"/>
    <path data-fips-int="55063" data-name="La Crosse County" d="M904,2309l88,9 31,0 -4,239 -175,-3 -6,-80 -73,-102 53,2 10,-56 42,10Z"/>
    <path data-fips-int="55065" data-name="Lafayette County" d="M1552,3191l0,213 -299,-2 1,-211Z"/>
    <path data-fips-int="55067" data-name="Langlade County" d="M1941,1358l60,5 0,55 121,0 0,119 21,0 -2,60 -166,2 0,62 -117,0 -2,-62 -98,0 0,-243Z"/>
    <path data-fips-int="55069" data-name="Lincoln County" d="M1758,1356l0,243 -301,-2 2,-181 0,-121 297,3Z"/>
    <path data-fips-int="55071" data-name="Manitowoc County" d="M2580,2136l110,-3 19,66 -11,47 -57,43 -38,147 -155,5 -4,-242 77,-1 -2,-60Z"/>
    <path data-fips-int="55073" data-name="Marathon County" d="M1457,1597l301,2 98,0 2,62 0,241 -304,-4 -232,-1 3,-241 57,1 1,-60Z"/>
    <path data-fips-int="55077" data-name="Marquette County" d="M1888,2384l0,120 -8,30 -1,0 1,0 -1,0 -29,0 1,61 0,24 -177,0 0,-235Z"/>
    <path data-fips-int="55078" data-name="Menominee County" d="M2141,1597l77,0 0,180 -122,2 0,-60 -111,0 -10,-58 0,-62Z"/>
    <path data-fips-int="55079" data-name="Milwaukee County" d="M2532,2921l2,0 -4,49 20,33 -15,46 26,32 11,82 -124,1 -1,-241Z"/>
    <path data-fips-int="55081" data-name="Monroe County" d="M1320,2263l-1,292 -300,2 4,-239 -31,0 -1,-39 35,-21Z"/>
    <path data-fips-int="55083" data-name="Oconto County" d="M2242,1416l60,2 0,119 59,2 0,60 34,0 0,58 87,0 0,22 87,0 3,15 0,1 -29,10 -3,39 -74,123 -2,26 2,4 -2,0 0,-4 -1,4 -122,0 -10,-120 -113,0 0,-180 -77,0 2,-60 -21,0 0,-119Z"/>
    <path data-fips-int="55085" data-name="Oneida County" d="M1940,1062l1,296 -183,-2 -2,-58 -297,-3 3,-235 356,-2 0,29 61,1 -2,-28Z"/>
    <path data-fips-int="55087" data-name="Outagamie County" d="M2162,1962l179,1 25,-1 4,237 -105,0 -166,4 -1,-241Z"/>
    <path data-fips-int="55089" data-name="Ozaukee County" d="M2577,2678l-3,55 -31,52 0,2 -21,101 10,33 2,0 -2,0 -85,2 -2,-121 11,0 -1,-120Z"/>
    <path data-fips-int="55091" data-name="Pepin County" d="M667,1887l-1,60 -174,-5 -13,6 -31,123 -61,-21 -38,-32 -12,-43 89,5 3,-100Z"/>
    <path data-fips-int="55093" data-name="Pierce County" d="M431,1760l-2,120 -3,100 -89,-5 -14,-12 -100,-10 -10,-26 -112,-105 22,-77Z"/>
    <path data-fips-int="55095" data-name="Polk County" d="M440,1220l-9,294 -293,-8 0,-48 56,-80 3,-37 -58,-83 -53,-8 2,-47 172,8 3,-59 179,8Z"/>
    <path data-fips-int="55097" data-name="Portage County" d="M1858,1902l1,301 -185,0 -62,-2 0,-183 -58,0 0,-120Z"/>
    <path data-fips-int="55099" data-name="Price County" d="M1460,1002l2,58 -3,235 0,121 -308,0 2,-180 5,-237 177,3Z"/>
    <path data-fips-int="55101" data-name="Racine County" d="M2572,3163l32,41 -19,78 -195,4 2,38 -61,3 -2,-161 119,-2Z"/>
    <path data-fips-int="55103" data-name="Richland County" d="M1375,2948l-2,0 -48,-30 -69,3 -61,-8 -60,28 2,-174 0,-92 179,3 61,0Z"/>
    <path data-fips-int="55105" data-name="Rock County" d="M1970,3166l120,3 3,243 -301,-3 -2,-238Z"/>
    <path data-fips-int="55107" data-name="Rusk County" d="M1153,1236l-2,180 -120,-5 0,63 -300,-6 7,-238Z"/>
    <path data-fips-int="55109" data-name="Saint Croix County" d="M431,1514l8,63 -8,183 -308,-15 8,-113 -19,-30 32,-31 -6,-65Z"/>
    <path data-fips-int="55111" data-name="Sauk County" d="M1579,2620l2,0 27,50 66,5 -3,127 -37,11 -21,48 2,0 -61,60 -82,7 -33,32 -64,-12 -2,0 2,0 2,-270 -61,0 0,-59Z"/>
    <path data-fips-int="55113" data-name="Sawyer County" d="M1040,875l-1,124 119,0 -5,237 -415,-6 3,-360Z"/>
    <path data-fips-int="55115" data-name="Shawano County" d="M1975,1661l10,58 111,0 0,60 122,-2 113,0 10,120 0,66 -179,-1 0,-62 -304,2 0,-241Z"/>
    <path data-fips-int="55117" data-name="Sheboygan County" d="M2603,2436l18,86 0,58 -44,98 -122,4 -61,0 -5,-241 59,0Z"/>
    <path data-fips-int="55119" data-name="Taylor County" d="M1459,1416l-2,181 -74,0 -1,60 -57,-1 -297,-2 3,-180 0,-63 120,5Z"/>
    <path data-fips-int="55121" data-name="Trempealeau County" d="M904,1952l-5,241 5,116 -34,19 -42,-10 -10,56 -53,-2 -64,-30 13,-51 -16,-33 0,-2 0,2 -2,-2 2,0 -2,0 -3,-48 3,0 2,0 17,-14 5,-10 5,-236Z"/>
    <path data-fips-int="55123" data-name="Vernon County" d="M1316,2619l0,59 -179,-3 0,92 -270,-4 -4,-63 -22,-68 3,-78 175,3 300,-2Z"/>
    <path data-fips-int="55125" data-name="Vilas County" d="M1940,1062l-63,-2 2,28 -61,-1 0,-29 -356,2 -2,-58 57,0 0,-220 400,112 78,45 0,63 -55,0Z"/>
    <path data-fips-int="55127" data-name="Walworth County" d="M2210,3166l119,0 2,161 1,80 -239,5 -3,-243Z"/>
    <path data-fips-int="55129" data-name="Washburn County" d="M741,870l-3,360 -238,-9 6,-237 -3,-120Z"/>
    <path data-fips-int="55131" data-name="Washington County" d="M2394,2682l61,0 1,120 -11,0 2,121 -179,2 -1,-123 8,-119Z"/>
    <path data-fips-int="55133" data-name="Waukesha County" d="M2268,2925l179,-2 1,241 -119,2 -119,0 -1,-241Z"/>
    <path data-fips-int="55135" data-name="Waupaca County" d="M2162,1962l-64,0 1,241 -72,0 -168,0 -1,-301 304,-2Z"/>
    <path data-fips-int="55137" data-name="Waushara County" d="M1859,2203l168,0 1,179 -140,2 -214,0 0,-181Z"/>
    <path data-fips-int="55139" data-name="Winnebago County" d="M2265,2199l3,212 2,31 -242,2 0,-62 -1,-179 72,0Z"/>
    <path data-fips-int="55141" data-name="Wood County" d="M1554,1898l0,120 58,0 0,183 -87,-2 -203,0 -2,-123 2,-179Z"/>
    <path data-fips-int="55003" data-name="Ashland County" d="M1172,543l4,3 6,7 -6,-7 6,7 6,5 -1,0 -2,0 2,1 0,-1 0,1 1,-1 36,26 -5,237 61,1 -1,60 59,0 -3,120 -177,-3 -119,0 1,-124 4,-294 13,-2 94,-51ZM1164,423l2,8 -2,-8 2,0 0,8 -55,34 2,-24 79,-58 24,20ZM1238,340l-56,20 5,-25 51,-17Z"/>
    <path data-fips-int="55007" data-name="Bayfield County" d="M1119,375l-42,70 4,61 -31,25 -6,50 -4,294 -299,-5 10,-415 88,-22 66,-48 13,6 5,7 2,0 -2,0 2,0 38,-7 63,-58 50,-13 34,18Z"/>
    <path data-fips-int="55009" data-name="Brown County" d="M2341,1897l122,0 6,58 -19,3 6,42 0,3 0,-3 39,-5 10,-30 72,-48 3,219 -61,2 2,60 -77,1 -74,0 -4,-237 -25,1Z"/>
    <path data-fips-int="55029" data-name="Door County" d="M2917,1599l-36,18 -29,63 8,32 -69,102 -24,76 -179,5 7,-33 54,-82 21,7 31,-20 43,-35 31,-75 48,-81 58,-45 21,-68 44,-5 1,53 -29,-7 7,57 -28,1ZM2966,1419l-6,-46 53,15 -13,40Z"/>
    <path data-fips-int="55031" data-name="Douglas County" d="M751,455l-10,415 -238,-6 -117,-5 12,-353 42,8 11,-28 5,10 0,4 0,-4 0,4 2,0 0,-9 2,-1 -2,1 -2,-5 0,-1 0,1 0,-1 5,-2 0,3 -1,4 1,0 -1,0 1,0 2,0 0,1 1,2 -1,-2 0,-1 0,-4 0,-1 0,1 1,0 4,0 0,-1 0,1 0,-1 0,-2 1,-2 10,-16 1,-5 -1,5 1,-5 4,-2 1,3 5,-1 2,0 0,1 0,-1 0,1 1,0 0,-1 0,1 2,0 2,2 0,-2 -2,0 -2,-1 4,1 4,4 7,8 0,2 0,-2 0,2 9,10 7,1 40,18 68,-8Z"/>
    <path data-fips-int="55075" data-name="Marinette County" d="M2640,1599l14,17 -30,71 0,-2 0,-1 0,1 0,2 -52,7 0,1 0,-1 -3,-15 -87,0 0,-22 -87,0 0,-58 -34,0 0,-60 -59,-2 0,-119 -60,-2 -1,-238 177,3 -2,-46 32,-12 15,27 42,2 46,54 -19,9 23,51 -26,12 18,58 -31,37 -11,55 62,3 34,-30 21,30 -45,103 44,60Z"/>
    <path data-fips-int="55051" data-name="Iron County" d="M1285,598l48,33 49,12 45,114 90,25 0,220 -57,0 -125,0 3,-120 -59,0 1,-60 -61,-1 5,-237Z"/>
  </g>
  <g class="cities">
    <circle r="3" cx="252.9" cy="302.8"/>
    <text x="252.9" y="302.8">Milwaukee</text>
    <circle r="3" cx="177.5" cy="301.3"/>
    <text x="177.5" y="301.3">Madison</text>
    <circle r="3" cx="245.2" cy="200.7"/>
    <text x="245.2" y="200.7">Green Bay</text>
  </g>
</svg>