<?xml version="1.0" encoding="utf-8"?>
<!DOCTYPE svg PUBLIC "-//W3C//DTD SVG 1.1//EN" "http://www.w3.org/Graphics/SVG/1.1/DTD/svg11.dtd">
<svg version="1.1" xmlns="http://www.w3.org/2000/svg" width="339" height="350" viewBox="0 0 339 350">
  <g class="counties" transform="scale(0.1)">
    <path data-fips-int="55001" data-name="Adams County" d="M1612,2201l63,1 0,182 0,114 -1,5 0,116 -61,-1 -32,2 -1,0 0,-17 -12,-9 -7,-15 -9,-29 0,-11 -11,-18 -13,-12 -13,-14 0,-8 -10,-12 -8,-5 -4,-11 2,-19 -3,-19 3,-23 -4,-21 -19,-11 4,-7 -3,-11 -7,-6 -5,-32 4,-9 7,-1 -3,-10 10,-7 9,2 2,-28 15,2 3,7 6,-5 -1,-12 9,1 -2,-21 -5,-9 13,-6 -4,-15Z"/>
    <path data-fips-int="55005" data-name="Barron County" d="M501,1221l62,3 91,2 83,3 0,50 -4,104 -2,85 -3,59 -59,-3 -119,-3 -120,-5 2,-79 3,-49 6,-169Z"/>
    <path data-fips-int="55011" data-name="Buffalo County" d="M666,1947l59,2 -1,71 -3,58 -2,112 -11,9 -3,6 -11,2 -15,14 6,12 -8,7 5,6 6,8 11,3 9,18 0,12 5,5 -3,14 -15,27 5,9 -12,-1 -10,-14 -19,-11 -17,-25 -14,-6 -1,-10 -9,-9 -13,-3 -8,-7 -22,-13 -6,-10 -22,-17 -8,-20 3,-16 -5,-17 -12,-7 6,-15 -6,-16 -9,-7 -6,-11 -24,-15 -14,-6 -10,-11 -14,-3 2,-18 12,-23 -1,-5 10,-27 -2,-8 5,-15 0,-12 5,-15 13,-7 84,3Z"/>
    <path data-fips-int="55013" data-name="Burnett County" d="M503,863l-3,54 0,26 -2,40 8,1 -2,122 -3,115 -60,-2 2,-59 -102,-3 -78,-5 -3,59 -88,-3 -84,-5 9,-35 1,-15 28,-16 14,-14 5,-18 9,-11 -3,-13 3,-8 10,-6 0,-11 17,-23 15,-7 18,-18 13,0 5,-4 25,-6 1,-11 12,-11 25,8 16,-29 17,-7 17,10 10,-2 3,-18 8,-16 18,-6 1,-56Z"/>
    <path data-fips-int="55015" data-name="Calumet County" d="M2370,2199l74,0 0,60 5,156 0,25 -60,1 0,-32 -38,1 -83,1 0,-44 -2,-72 0,-96Z"/>
    <path data-fips-int="55017" data-name="Chippewa County" d="M1030,1474l-1,38 -1,142 -1,67 0,53 -162,-2 -54,-2 -30,0 -66,-2 -45,0 0,-25 4,-158 -7,-1 2,-60 59,3 3,-59 33,1 96,1 5,1Z"/>
    <path data-fips-int="55019" data-name="Clark County" d="M1322,1897l0,10 0,109 -2,61 -23,1 -98,0 -101,-2 -17,-1 1,-59 -60,-1 2,-60 1,-85 1,-36 1,-60 0,-53 1,-67 73,1 40,1 46,0 40,1 58,0 40,-1 -2,73 1,37 -2,61Z"/>
    <path data-fips-int="55021" data-name="Columbia County" d="M1970,2624l0,70 2,77 0,34 -2,0 1,60 -36,2 -67,0 -29,2 -46,0 0,-9 -80,0 -1,1 -99,0 -3,-5 2,-13 24,-30 10,2 19,-8 8,-8 1,-121 -7,-6 -13,3 -15,-7 -9,4 -21,-2 -3,-8 9,-12 -11,0 -12,-4 -8,-15 -3,-11 32,-2 61,1 142,0 35,-1 59,0 0,8Z"/>
    <path data-fips-int="55023" data-name="Crawford County" d="M1138,2767l0,30 0,63 -2,27 0,53 -12,0 -15,15 -12,19 -28,9 -15,16 -10,6 -18,2 -15,7 -10,-2 -9,14 -18,13 -9,1 -10,11 -16,4 -5,6 -19,-6 -18,1 -10,7 -7,-27 -4,-28 3,-46 17,-15 11,-28 20,-18 10,-12 3,-8 -8,-6 1,-7 -17,-29 -15,-11 -22,-12 -11,-3 -6,-12 10,-19 -4,-19 85,1 48,0 41,1 56,0Z"/>
    <path data-fips-int="55025" data-name="Dane County" d="M1971,2865l0,61 -1,38 0,204 -62,0 -38,1 -80,1 0,-8 -33,1 -94,-2 -110,0 0,-106 0,-4 0,-130 0,-1 17,-22 24,-1 12,-11 10,-14 -3,-11 99,0 1,-1 80,0 0,9 46,0 29,-2 67,0Z"/>
    <path data-fips-int="55027" data-name="Dodge County" d="M2274,2684l1,119 -8,0 0,62 2,59 -59,0 -170,0 -69,2 0,-61 -1,-60 2,0 0,-34 -2,-77 0,-70 61,0 81,0 0,-2 161,0Z"/>
    <path data-fips-int="55033" data-name="Dunn County" d="M669,1524l-2,60 7,1 -4,158 0,25 0,40 -3,79 -35,-1 -111,-3 -92,-3 3,-120 3,-53 1,-80 2,-49 -10,-1 2,-61 120,5Z"/>
    <path data-fips-int="55035" data-name="Eau Claire County" d="M1027,1774l-1,60 -1,36 -1,85 -43,-2 -50,0 -27,-1 -53,-1 -57,0 -69,-2 -59,-2 1,-60 3,-79 0,-40 45,0 66,2 30,0 54,2Z"/>
    <path data-fips-int="55037" data-name="Florence County" d="M2417,1135l0,47 -79,-4 -98,0 -121,1 0,-51 -1,-54 0,-74 -4,0 0,-22 5,6 1,12 17,2 11,-4 4,-18 7,8 11,-8 11,2 7,-6 11,2 3,16 11,2 3,-6 15,7 11,11 14,-6 3,-6 26,18 17,10 21,-10 6,11 16,1 3,-5 13,9 12,2 11,11 13,3 -5,7 4,18 14,4 -16,21 -15,14 4,11 9,2 2,8 15,8Z"/>
    <path data-fips-int="55039" data-name="Fond du Lac County" d="M2389,2441l3,83 0,65 2,28 0,65 -50,0 -70,2 -1,-62 -161,0 0,2 -81,0 -2,-181 100,0 1,-1 139,0 -1,-31 83,-1 38,-1Z"/>
    <path data-fips-int="55041" data-name="Forest County" d="M2114,978l0,22 4,0 0,74 1,54 0,51 121,-1 0,46 2,53 0,46 1,54 -1,40 -19,0 -102,0 -120,2 1,-60 -60,0 -1,-59 0,-100 -1,-44 0,-95 -1,-59 55,0 0,-64 40,23 16,11 10,0 5,-6 1,11 20,-7 8,1 3,8 6,-3Z"/>
    <path data-fips-int="55043" data-name="Grant County" d="M1255,2922l0,43 0,116 -1,2 0,107 -1,148 -1,63 -109,-2 2,-5 -4,-20 -8,-17 -8,-8 -14,-37 -5,-4 -31,-10 -38,-8 -22,-8 -11,-7 -13,1 -17,-9 -7,-11 -19,-10 -4,-9 -8,1 -6,-11 -8,-54 -6,0 2,-14 -4,-22 -23,-18 -2,-22 3,-12 -5,-22 10,-7 18,-1 19,6 5,-6 16,-4 10,-11 9,-1 18,-13 9,-14 10,2 15,-7 18,-2 10,-6 15,-16 28,-9 12,-19 15,-15 12,0 29,-8 11,-11 21,-7 8,3 19,1 15,4Z"/>
    <path data-fips-int="55045" data-name="Green County" d="M1790,3170l0,45 1,49 2,144 -40,0 -85,-2 -30,-1 -86,-1 1,-47 0,-166 0,-30 110,0 94,2 33,-1Z"/>
    <path data-fips-int="55047" data-name="Green Lake County" d="M2028,2382l1,61 2,181 -61,0 -60,2 0,-8 -59,0 0,-85 28,0 10,1 0,-31 -12,4 -3,-6 0,-44 14,0 0,-73Z"/>
    <path data-fips-int="55049" data-name="Iowa County" d="M1374,2948l7,5 11,-7 18,4 22,2 9,10 5,-3 1,-12 12,-11 14,-8 26,1 21,4 14,-6 8,1 11,-7 0,-1 0,1 0,130 0,4 0,106 0,30 -58,1 -110,-2 -131,0 0,-107 1,-2 0,-116 0,-43 12,0 28,-6 28,2 9,10 10,-3 20,17Z"/>
    <path data-fips-int="55053" data-name="Jackson County" d="M1024,1955l-2,60 60,1 -1,59 17,1 101,2 98,0 23,-1 -2,122 4,0 -2,64 -58,-4 -140,0 -96,-2 -8,8 -13,0 -15,12 3,8 -1,32 -89,-2 1,-5 1,-117 -6,0 1,-70 2,-43 1,-87 1,-41 27,1 50,0Z"/>
    <path data-fips-int="55055" data-name="Jefferson County" d="M2210,2924l-2,22 0,171 2,52 -99,0 -20,1 -58,-2 -63,0 0,-204 1,-38 69,-2Z"/>
    <path data-fips-int="55057" data-name="Juneau County" d="M1524,2199l4,15 -13,6 5,9 2,21 -9,-1 1,12 -6,5 -3,-7 -15,-2 -2,28 -9,-2 -10,7 3,10 -7,1 -4,9 5,32 7,6 3,11 -4,7 19,11 4,21 -3,23 3,19 -2,19 4,11 8,5 10,12 0,8 13,14 13,12 11,18 0,11 9,29 7,15 12,9 0,17 1,0 -1,0 -99,0 -67,-2 -97,0 1,-62 1,-135 0,-3 0,-83 1,-72 2,-64 86,0Z"/>
    <path data-fips-int="55059" data-name="Kenosha County" d="M2584,3283l-4,23 -2,18 5,14 0,40 4,26 -218,1 -36,2 -2,-80 61,-1 -1,-41 94,-2Z"/>
    <path data-fips-int="55061" data-name="Kewaunee County" d="M2766,1891l-11,29 -18,21 -7,22 -8,15 -6,27 0,10 -8,38 0,7 -7,24 1,14 -13,36 -109,2 -2,-92 -1,-38 -1,-89 13,-23 57,0 64,-1Z"/>
    <path data-fips-int="55063" data-name="La Crosse County" d="M904,2310l-1,5 89,2 30,0 0,125 -2,56 -1,59 -98,-2 -19,-1 -56,-1 1,-14 7,-20 -7,-9 -6,-15 -6,-25 -13,-15 -5,-15 -9,-7 -8,-13 -4,-14 -10,-12 -10,-7 -9,-15 51,2 -3,-12 -8,-11 4,-15 15,-18 13,3 9,-7 9,11 11,2 4,-9 8,-7 0,-7 16,-1Z"/>
    <path data-fips-int="55065" data-name="Lafayette County" d="M1553,3191l0,166 -1,47 -53,0 -147,-3 -100,0 1,-63 1,-148 131,0 110,2Z"/>
    <path data-fips-int="55067" data-name="Langlade County" d="M1942,1359l60,0 -1,60 120,-2 0,120 21,0 -1,61 -34,0 -87,0 -45,1 0,61 -98,0 -19,1 -1,-62 -98,0 0,-59 0,-178 0,-4 29,-3 62,2 54,0Z"/>
    <path data-fips-int="55069" data-name="Lincoln County" d="M1759,1358l0,4 0,178 0,59 -53,-1 -198,0 -51,0 0,-94 0,-59 2,-28 0,-120 263,0 35,1Z"/>
    <path data-fips-int="55071" data-name="Manitowoc County" d="M2580,2136l109,-2 3,24 16,39 2,17 -9,27 -22,21 -24,14 -13,13 -4,16 1,16 -13,23 -7,26 -1,17 -8,13 -7,36 -63,2 -90,2 -1,0 0,-25 -5,-156 0,-60 76,-2 0,-60Z"/>
    <path data-fips-int="55073" data-name="Marathon County" d="M1457,1598l51,0 198,0 53,1 98,0 1,62 0,129 0,16 0,95 -60,0 -67,-3 -59,1 -119,0 -61,-1 -76,0 -4,-1 -90,0 0,-70 2,-61 -1,-37 2,-73 57,1 1,-60Z"/>
    <path data-fips-int="55077" data-name="Marquette County" d="M1888,2384l0,73 -14,0 0,44 3,6 12,-4 0,31 -10,-1 -28,0 0,85 -35,1 -142,0 0,-116 1,-5 0,-114 152,0Z"/>
    <path data-fips-int="55078" data-name="Menominee County" d="M2141,1598l77,0 -1,36 0,144 -106,0 -14,0 -1,-59 -111,0 -9,1 -1,-60 0,-61 45,-1 87,0Z"/>
    <path data-fips-int="55079" data-name="Milwaukee County" d="M2533,2922l7,14 -10,24 4,16 9,10 6,20 -15,19 2,24 7,10 12,11 6,11 0,24 3,8 -4,17 11,33 -88,0 -35,2 0,-39 0,-106 -1,0 0,-97Z"/>
    <path data-fips-int="55081" data-name="Monroe County" d="M1320,2263l-1,72 0,83 0,3 -1,135 -60,3 -40,0 -74,-2 -85,0 -40,0 1,-59 2,-56 0,-125 -30,0 1,-32 -3,-8 15,-12 13,0 8,-8 96,2 140,0Z"/>
    <path data-fips-int="55083" data-name="Oconto County" d="M2242,1417l60,0 0,111 0,9 58,1 1,10 0,50 35,1 0,60 86,0 0,19 30,-1 0,2 60,-1 -1,17 -28,12 -8,13 -2,12 8,15 -8,11 -11,25 -16,10 -18,49 -15,13 -7,15 0,26 -2,0 -2,1 -67,1 -27,3 -22,1 -6,-5 -1,-22 -5,-35 2,-62 -119,0 0,-144 1,-36 -77,0 1,-61 -21,0 0,-120 102,0Z"/>
    <path data-fips-int="55085" data-name="Oneida County" d="M1940,1061l0,95 1,44 0,100 1,59 -38,-2 -54,0 -62,-2 -29,3 -2,-60 -35,-1 -263,0 2,-121 -1,-71 1,-44 40,-1 287,0 30,-2 0,28 41,0 19,3 -1,-30 27,3Z"/>
    <path data-fips-int="55087" data-name="Outagamie County" d="M2163,1961l119,0 58,2 27,-1 1,134 2,68 0,35 -104,0 -67,2 -40,0 -59,1 0,-145 -2,-95Z"/>
    <path data-fips-int="55089" data-name="Ozaukee County" d="M2578,2678l-2,24 3,11 -10,29 -20,30 -7,15 -6,20 -3,36 -6,16 -4,20 2,18 6,11 2,14 -86,1 -1,-120 11,-1 -2,-71 -1,-51 62,-1Z"/>
    <path data-fips-int="55091" data-name="Pepin County" d="M667,1887l-1,60 -90,-2 -84,-3 -13,7 -5,15 0,12 -5,15 2,8 -10,27 1,5 -12,23 -2,18 -14,-6 -4,-5 -23,-5 -22,-8 -10,-6 -27,-27 -5,-11 0,-11 -6,-18 23,2 66,2 3,-99 92,3 111,3Z"/>
    <path data-fips-int="55093" data-name="Pierce County" d="M432,1760l-3,120 -3,99 -66,-2 -23,-2 -6,-7 -18,-6 -14,1 -16,-6 -15,2 -18,-4 -12,-7 -10,5 -6,-2 1,-8 -9,-16 -9,3 -6,-9 -10,-1 0,-18 -5,-7 -13,-8 -14,-18 -20,-21 -34,-22 -2,-9 3,-12 11,-15 0,-8 9,-18 -2,-18 58,1 14,2 122,3 57,6Z"/>
    <path data-fips-int="55095" data-name="Polk County" d="M441,1219l-6,169 -3,49 -2,79 -74,-2 -219,-8 5,-6 -5,-22 6,-11 -5,-16 12,-7 17,-17 3,-13 -3,-9 14,-10 4,-12 9,-5 4,-32 -4,-9 -7,-3 -11,-11 -3,-11 -12,-18 1,-16 -22,-20 -24,4 -22,-5 -8,-7 2,-47 84,5 88,3 3,-59 78,5 102,3Z"/>
    <path data-fips-int="55097" data-name="Portage County" d="M1858,1901l1,10 0,100 1,10 0,92 -1,5 0,81 1,4 -152,0 -33,-1 -63,-1 0,-134 -1,-48 -58,0 0,-120 119,0 59,-1 67,3Z"/>
    <path data-fips-int="55099" data-name="Price County" d="M1461,1002l0,59 -1,44 1,71 -2,121 0,120 -137,0 -71,2 -41,-2 -60,0 2,-38 0,-85 1,-58 1,-30 1,-99 1,-34 0,-35 2,-38 53,0 44,1 82,1 109,0Z"/>
    <path data-fips-int="55101" data-name="Racine County" d="M2571,3163l18,24 18,16 -8,9 -3,15 2,19 -3,14 -11,23 -99,0 -94,2 1,41 -61,1 0,-52 -2,-48 0,-60 30,0 60,-2 29,0 35,-2Z"/>
    <path data-fips-int="55103" data-name="Richland County" d="M1374,2948l-12,-6 -20,-17 -10,3 -9,-10 -28,-2 -28,6 -12,0 -16,0 -15,-4 -19,-1 -8,-3 -21,7 -11,11 -29,8 0,-53 2,-27 0,-63 0,-30 -1,-89 45,0 136,0 58,0 0,78 0,133Z"/>
    <path data-fips-int="55105" data-name="Rock County" d="M1970,3168l63,0 58,2 -1,68 2,50 1,124 -100,-2 -92,0 -108,-2 -2,-144 -1,-49 0,-45 80,-1 38,-1Z"/>
    <path data-fips-int="55107" data-name="Rusk County" d="M1153,1236l-1,58 0,85 -2,38 -72,-2 -47,-2 -1,61 -165,-3 -5,-1 -96,-1 -33,-1 2,-85 4,-104 0,-50 41,1 170,2 73,2 68,2Z"/>
    <path data-fips-int="55109" data-name="Saint Croix County" d="M430,1516l-2,61 10,1 -2,49 -1,80 -3,53 -59,-2 -57,-6 -122,-3 -14,-2 -58,-1 4,-9 -4,-18 7,-6 4,-13 0,-17 -7,-12 -1,-20 6,-14 -2,-8 -14,-13 -3,-14 32,-29 -8,-30 4,-13 -7,-11 4,-13 219,8Z"/>
    <path data-fips-int="55111" data-name="Sauk County" d="M1580,2620l1,0 3,11 8,15 12,4 11,0 -9,12 3,8 21,2 9,-4 15,7 13,-3 7,6 -1,121 -8,8 -19,8 -10,-2 -24,30 -2,13 3,5 3,11 -10,14 -12,11 -24,1 -17,22 0,1 -11,7 -8,-1 -14,6 -21,-4 -26,-1 -14,8 -12,11 -1,12 -5,3 -9,-10 -22,-2 -18,-4 -11,7 -7,-5 2,-59 0,-133 0,-78 -58,0 -1,-60 97,0 67,2Z"/>
    <path data-fips-int="55113" data-name="Sawyer County" d="M1040,878l-1,96 -1,24 24,1 96,1 -2,38 0,35 -1,34 -1,99 -1,30 -64,0 -68,-2 -73,-2 -170,-2 -41,-1 2,-89 1,-47 2,-102 -5,-1 3,-67 0,-53 85,3 43,0 55,1 22,2Z"/>
    <path data-fips-int="55115" data-name="Shawano County" d="M1975,1660l1,60 9,-1 111,0 1,59 14,0 106,0 119,0 -2,62 5,35 1,22 -5,0 1,14 4,-1 0,53 -58,-2 -119,0 -1,-60 -138,0 -146,0 -20,0 0,-95 0,-16 0,-129 19,-1Z"/>
    <path data-fips-int="55117" data-name="Sheboygan County" d="M2603,2436l-1,16 4,12 1,28 16,33 -7,16 5,35 -18,40 -23,44 -2,18 -62,1 -62,1 -60,2 0,-65 -2,-28 0,-65 -3,-83 60,-1 1,0 90,-2Z"/>
    <path data-fips-int="55119" data-name="Taylor County" d="M1459,1417l-2,28 0,59 0,94 -74,-1 -1,60 -57,-1 -40,1 -58,0 -40,-1 -46,0 -40,-1 -73,-1 1,-142 1,-38 1,-61 47,2 72,2 60,0 41,2 71,-2Z"/>
    <path data-fips-int="55121" data-name="Trempealeau County" d="M904,1952l-1,41 -1,87 -2,43 -1,70 6,0 -1,117 -8,-7 -16,1 0,7 -8,7 -4,9 -11,-2 -9,-11 -9,7 -13,-3 -15,18 -4,15 8,11 3,12 -51,-2 -8,-12 -13,-6 -6,2 -15,-9 -25,-5 -5,-9 15,-27 3,-14 -5,-5 0,-12 -9,-18 -11,-3 -6,-8 -5,-6 8,-7 -6,-12 15,-14 11,-2 3,-6 11,-9 2,-112 3,-58 1,-71 69,2 57,0Z"/>
    <path data-fips-int="55123" data-name="Vernon County" d="M1317,2618l1,60 -136,0 -45,0 1,89 -40,-2 -56,0 -41,-1 -48,0 -85,-1 -12,-16 -2,-8 10,-19 0,-20 -9,-9 -4,-18 5,-9 1,-12 -18,-22 4,-19 -5,-10 2,-38 6,-10 56,1 19,1 98,2 40,0 85,0 74,2 40,0 60,-3Z"/>
    <path data-fips-int="55125" data-name="Vilas County" d="M1940,1061l-36,1 -27,-3 1,30 -19,-3 -41,0 0,-28 -30,2 -287,0 -40,1 0,-59 56,0 0,-166 0,-45 0,-8 73,20 114,32 161,45 52,14 77,44 0,64 -55,0Z"/>
    <path data-fips-int="55127" data-name="Walworth County" d="M2210,3169l119,-2 0,60 2,48 0,52 2,80 -107,2 -54,0 -79,3 -1,-124 -2,-50 1,-68 20,-1Z"/>
    <path data-fips-int="55129" data-name="Washburn County" d="M740,870l0,53 -3,67 5,1 -2,102 -1,47 -2,89 -83,-3 -91,-2 -62,-3 3,-115 2,-122 -8,-1 2,-40 0,-26 3,-54 33,2 100,2 21,1Z"/>
    <path data-fips-int="55131" data-name="Washington County" d="M2394,2682l60,-2 1,51 2,71 -11,1 1,120 -171,2 -7,-1 -2,-59 0,-62 8,0 -1,-119 70,-2Z"/>
    <path data-fips-int="55133" data-name="Waukesha County" d="M2269,2924l7,1 171,-2 0,97 1,0 0,106 0,39 -29,0 -60,2 -30,0 -119,2 -2,-52 0,-171 2,-22Z"/>
    <path data-fips-int="55135" data-name="Waupaca County" d="M2163,1961l-65,1 2,95 0,145 -73,1 -167,0 -1,-4 0,-81 1,-5 0,-92 -1,-10 0,-100 -1,-10 20,0 146,0 138,0Z"/>
    <path data-fips-int="55137" data-name="Waushara County" d="M1860,2203l167,0 1,91 0,88 -140,2 -61,0 -152,0 0,-182 33,1Z"/>
    <path data-fips-int="55139" data-name="Winnebago County" d="M2266,2199l0,96 2,72 0,44 1,31 -139,0 -1,1 -100,0 -1,-61 0,-88 -1,-91 73,-1 59,-1 40,0Z"/>
    <path data-fips-int="55141" data-name="Wood County" d="M1553,1899l0,120 58,0 1,48 0,134 -88,-2 -116,0 -86,0 -4,0 2,-122 2,-61 0,-109 0,-10 90,0 4,1 76,0Z"/>
    <path data-fips-int="55003" data-name="Ashland County" d="M1223,585l-1,175 -3,61 61,1 -1,60 59,0 -1,42 1,14 0,42 -1,22 -82,-1 -44,-1 -53,0 -96,-1 -24,-1 1,-24 1,-96 1,-63 -1,-32 2,-14 2,-56 0,-92 0,-40 9,2 16,-13 25,-13 20,-6 14,-14 13,-8 -18,0 7,-6 16,2 9,7 -14,-18 -20,-18 1,-3 24,26 30,29 27,23ZM1127,412l-2,-1 6,-20 9,-8 5,5 -8,16ZM1197,383l20,19 -7,4 -18,3 -26,11 -6,11 16,7 -2,4 -21,4 -10,-1 -7,10 -13,10 -11,0 3,-11 -4,-10 29,-12 7,-12 29,-16 10,-14ZM1162,378l-8,-4 12,-6 3,6ZM1266,377l-15,9 -9,-4 9,-6 22,-10ZM1145,324l4,0 10,18 1,10 -22,3 -9,-13 -4,-11 9,-10ZM1238,341l-10,5 3,13 -14,-11 -12,7 -4,-5 -6,7 -14,2 -4,-7 8,-15 29,-12 12,-1 10,-6 10,8ZM1170,330l-4,-4 17,-17 3,8ZM1156,307l-6,-4 8,-13 12,7ZM1197,291l4,8 -6,4 -5,-8ZM1133,293l-10,-1 -3,-13 9,-8 8,11ZM1222,299l-7,-26 14,12ZM1166,265l6,0 -6,18 -6,-2 1,-14ZM1300,245l0,12 -5,14 -3,16 -13,11 -11,2 3,-17 0,-22 9,-14Z"/>
    <path data-fips-int="55007" data-name="Bayfield County" d="M1044,581l0,40 0,92 -2,56 -2,14 1,32 -1,63 -95,-2 -22,-2 -55,-1 -43,0 -85,-3 3,-115 0,-30 3,-85 0,-28 3,-84 2,-71 19,-1 9,-6 13,-2 18,-7 9,-10 19,1 15,-16 12,-7 27,-7 15,-18 9,-2 8,16 8,2 2,-8 16,-10 -1,8 18,-2 2,-14 12,3 11,-4 5,-14 17,-7 17,-20 20,10 6,-7 12,-7 2,-4 10,-4 12,5 1,13 8,4 3,-4 8,4 3,14 8,3 7,9 -9,9 -9,21 1,6 -6,12 -19,24 -13,6 1,9 -11,8 4,16 11,25 -15,19 -15,6 -3,21 -15,20 3,9ZM1049,301l-4,7 0,12 -15,-1 -7,-8 0,-7 20,-6Z"/>
    <path data-fips-int="55009" data-name="Brown County" d="M2340,1897l6,5 22,-1 27,-3 67,-1 -7,23 3,18 11,12 -5,-1 -10,-16 -1,26 -16,16 6,1 15,15 19,8 19,-5 14,-25 -6,-5 12,-9 14,-20 11,-1 15,-12 20,-5 1,89 1,38 2,92 -60,1 0,60 -76,2 -74,0 0,-35 -2,-68 -1,-134 -27,1 0,-53 -4,1 -1,-14Z"/>
    <path data-fips-int="55029" data-name="Door County" d="M2775,1529l1,26 -20,-12 0,-13ZM2766,1891l-56,2 -64,1 -57,0 8,-11 0,-24 5,-5 10,-18 9,-11 15,-28 12,-15 14,-10 15,-1 -7,15 5,4 7,-5 4,-14 8,1 16,-4 8,-13 15,-14 -2,9 10,4 15,30 29,16 -6,-8 -18,-10 -5,-41 -10,-8 5,-15 9,-19 7,-24 9,-17 5,-3 5,-16 10,-10 8,4 1,-20 8,-6 1,-19 5,-14 4,2 -1,-16 7,-16 2,6 14,2 7,10 5,-5 -3,-13 4,-7 10,-5 12,0 -1,-23 6,-24 16,2 -2,-8 5,-20 8,5 14,-1 2,-8 20,5 3,7 -6,18 6,7 -6,5 2,13 -11,4 -9,-14 -8,5 3,5 -5,34 1,9 8,8 -9,7 -10,-14 -8,8 4,12 9,2 5,10 -7,22 -9,-12 -7,5 9,14 -6,9 -5,-10 -9,1 -2,20 -5,18 -14,9 -10,22 0,15 9,13 -20,13 -2,9 6,9 0,9 -26,16 -5,6 -5,20 -11,6 -7,16 1,8 -8,18 -1,10 -7,21ZM2969,1385l8,-7 23,-5 13,16 -5,14 -7,4 -3,22 -15,0 -7,-12 -17,10 -2,-9 5,0 -5,-21 5,-24 5,-3ZM3029,1377l-12,2 -1,-16 10,3Z"/>
    <path data-fips-int="55031" data-name="Douglas County" d="M751,457l-2,71 -3,84 0,28 -3,85 0,30 -3,115 -83,-2 -21,-1 -100,-2 -33,-2 -118,-3 4,-91 2,-74 3,-85 4,-103 10,12 31,0 1,-5 5,-1 11,-20 1,8 6,0 -3,-12 21,-30 4,4 7,-8 16,18 19,15 7,13 16,-2 14,5 27,-7 31,2 14,-3 18,-9 25,-9 26,-7 23,-13Z"/>
    <path data-fips-int="55075" data-name="Marinette County" d="M2640,1600l15,9 -12,8 -6,21 1,30 -1,11 -15,7 -51,9 1,-17 -60,1 0,-2 -30,1 0,-19 -86,0 0,-60 -35,-1 0,-50 -1,-10 -58,-1 0,-9 0,-111 -60,0 1,-40 -1,-54 0,-46 -2,-53 0,-46 98,0 79,4 0,-47 9,-6 23,-5 5,14 9,12 28,-2 2,4 15,2 8,17 23,12 -1,5 10,8 4,10 -21,8 0,11 6,4 8,15 8,4 1,18 -4,3 -2,14 -19,-3 -2,5 15,15 1,15 6,12 -6,18 -27,28 7,20 -12,16 2,7 -8,13 11,-6 8,13 7,-7 39,0 6,-4 16,-21 9,-3 15,15 5,20 -6,13 -12,14 -9,24 -2,19 -6,5 -1,15 -7,8 3,17 30,25 -1,4 8,15Z"/>
    <path data-fips-int="55051" data-name="Iron County" d="M1286,597l11,23 12,-6 9,3 7,-11 11,10 -3,15 16,-1 11,12 14,-6 8,8 10,25 7,5 0,11 5,-1 7,28 16,29 -1,16 91,26 0,8 0,45 0,166 -56,0 -15,0 -109,0 1,-22 0,-42 -1,-14 1,-42 -59,0 1,-60 -61,-1 3,-61 1,-175 21,-5 31,21Z"/>
    <path data-fips-int="55000" data-name="null" d="M2587,3404l-4,-26 0,-40 -5,-14 2,-18 4,-23 11,-23 3,-14 -2,-19 3,-15 8,-9 -18,-16 -18,-24 -11,-33 4,-17 -3,-8 0,-24 -6,-11 -12,-11 -7,-10 -2,-24 15,-19 -6,-20 -9,-10 -4,-16 10,-24 -7,-14 -2,-14 -6,-11 -2,-18 4,-20 6,-16 3,-36 6,-20 7,-15 20,-30 10,-29 -3,-11 2,-24 2,-18 23,-44 18,-40 -5,-35 7,-16 -16,-33 -1,-28 -4,-12 1,-16 7,-36 8,-13 1,-17 7,-26 13,-23 -1,-16 4,-16 13,-13 24,-14 22,-21 9,-27 -2,-17 -16,-39 -3,-24 13,-36 -1,-14 7,-24 0,-7 8,-38 0,-10 6,-27 8,-15 7,-22 18,-21 11,-29 10,-18 7,-21 1,-10 8,-18 -1,-8 7,-16 11,-6 5,-20 5,-6 26,-16 0,-9 -6,-9 2,-9 20,-13 -9,-13 0,-15 10,-22 14,-9 5,-18 2,-20 9,-1 5,10 6,-9 -9,-14 7,-5 9,12 7,-22 -5,-10 -9,-2 -4,-12 8,-8 10,14 9,-7 -8,-8 -1,-9 5,-34 -3,-5 8,-5 9,14 11,-4 -2,-13 6,-5 -6,-7 6,-18 -3,-7 -20,-5 -2,8 -14,1 -8,-5 -5,20 2,8 -16,-2 -6,24 1,23 -12,0 -10,5 -4,7 3,13 -5,5 -7,-10 -14,-2 -2,-6 -7,16 1,16 -4,-2 -5,14 -1,19 -8,6 -1,20 -8,-4 -10,10 -5,16 -5,3 -9,17 -7,24 -9,19 -5,15 10,8 5,41 18,10 6,8 -29,-16 -15,-30 -10,-4 2,-9 -15,14 -8,13 -16,4 -8,-1 -4,14 -7,5 -5,-4 7,-15 -15,1 -14,10 -12,15 -15,28 -9,11 -10,18 -5,5 0,24 -8,11 -13,23 -20,5 -15,12 -11,1 -14,20 -12,9 6,5 -14,25 -19,5 -19,-8 -15,-15 -6,-1 16,-16 1,-26 10,16 5,1 -11,-12 -3,-18 7,-23 2,-1 2,0 0,-26 7,-15 15,-13 18,-49 16,-10 11,-25 8,-11 -8,-15 2,-12 8,-13 28,-12 51,-9 15,-7 1,-11 -1,-30 6,-21 12,-8 -15,-9 51,8 37,5 14,-87 47,-28 59,-71 39,-70 162,-7 131,71 123,65 -85,78 -37,43 -30,42 -18,28 -14,24 -27,57 -25,68 -31,99 -15,56 -24,101 -20,91 -17,88 -13,60 -20,111 -12,79 -6,43 -8,96 -2,43 0,46 3,40 6,55 5,35 8,39 36,261 32,222ZM3029,1377l-3,-11 -10,-3 1,16ZM2969,1385l-2,-15 -5,3 -5,24 5,21 -5,0 2,9 17,-10 7,12 15,0 3,-22 7,-4 5,-14 -13,-16 -23,5ZM2775,1529l-19,1 0,13 20,12Z"/>
    <path data-fips-int="55000" data-name="null" d="M1286,597l-11,4 -31,-21 -21,5 -20,-14 -27,-23 -30,-29 -24,-26 -1,3 20,18 14,18 -9,-7 -16,-2 -7,6 18,0 -13,8 -14,14 -20,6 -25,13 -16,13 -9,-2 -8,-2 -3,-9 15,-20 3,-21 15,-6 15,-19 -11,-25 -4,-16 11,-8 -1,-9 13,-6 19,-24 6,-12 -1,-6 9,-21 9,-9 -7,-9 -8,-3 -3,-14 -8,-4 -3,4 -8,-4 -1,-13 -12,-5 -10,4 -2,4 -12,7 -6,7 -20,-10 -17,20 -17,7 -5,14 -11,4 -12,-3 -2,14 -18,2 1,-8 -16,10 -2,8 -8,-2 -8,-16 -9,2 -15,18 -27,7 -12,7 -15,16 -19,-1 -9,10 -18,7 -13,2 -9,6 -19,1 -23,1 -23,13 -26,7 -25,9 -18,9 -14,3 -31,-2 -27,7 -14,-5 -16,2 -7,-13 -19,-15 -16,-18 -7,8 -4,-4 -21,30 3,12 -6,0 -1,-8 -11,20 -5,1 -1,-5 13,-11 0,-7 -11,-4 6,-10 9,-4 11,2 5,-14 19,-9 6,3 25,27 8,2 155,-89 58,-33 47,-28 147,-92 239,-155 130,4 201,7 -20,46 -189,424ZM1300,245l-20,2 -9,14 0,22 -3,17 11,-2 13,-11 3,-16 5,-14ZM1197,291l-7,4 5,8 6,-4ZM1156,307l14,-10 -12,-7 -8,13ZM1170,330l16,-13 -3,-8 -17,17ZM1238,341l8,-15 -10,-8 -10,6 -12,1 -29,12 -8,15 4,7 14,-2 6,-7 4,5 12,-7 14,11 -3,-13ZM1145,324l-11,-3 -9,10 4,11 9,13 22,-3 -1,-10 -10,-18ZM1049,301l-6,-3 -20,6 0,7 7,8 15,1 0,-12ZM1133,293l4,-11 -8,-11 -9,8 3,13ZM1166,265l-5,2 -1,14 6,2 6,-18ZM1222,299l7,-14 -14,-12ZM1266,377l7,-11 -22,10 -9,6 9,4ZM1197,383l-11,7 -10,14 -29,16 -7,12 -29,12 4,10 -3,11 11,0 13,-10 7,-10 10,1 21,-4 2,-4 -16,-7 6,-11 26,-11 18,-3 7,-4ZM1127,412l10,-8 8,-16 -5,-5 -9,8 -6,20ZM1162,378l7,-4 -3,-6 -12,6Z"/>
  </g>
  <g class="cities">
    <circle r="3" cx="252.9" cy="302.8"/>
    <text x="252.9" y="302.8">Milwaukee</text>
    <circle r="3" cx="177.4" cy="301.3"/>
    <text x="177.4" y="301.3">Madison</text>
    <circle r="3" cx="245.2" cy="200.6"/>
    <text x="245.2" y="200.6">Green Bay</text>
  </g>
</svg>