<?xml version="1.0" encoding="utf-8"?>
<!DOCTYPE svg PUBLIC "-//W3C//DTD SVG 1.1//EN" "http://www.w3.org/Graphics/SVG/1.1/DTD/svg11.dtd">
<svg version="1.1" xmlns="http://www.w3.org/2000/svg" width="339" height="350" viewBox="0 0 339 350">
  <path class="state" transform="scale(0.1)" d="M923,398M2466,1897h-2h2M448,2071l-61,-21 -38,-32 -12,-43 -14,-12 -100,-10 -10,-26 -78,-82 -34,-23 22,-77 12,-51 -4,-62 -19,-30 32,-31 -6,-65v-48l29,-30 1,-24 26,-26 3,-37 -58,-83 -53,-8 2,-47 9,-50 42,-30 12,-46 29,-44 37,-25 41,-13 12,-20 30,7 26,-35 29,10 8,-32 19,-8 4,-58 12,-353 42,8 8,-24h2l1,-4 -1,4v-4l-3,4 48,-37 34,32 259,-150 149,-93 239,-155 331,12 -222,499 13,21 27,-13 8,25 49,12 17,31 28,83 90,25 239,68 161,44 78,45 56,35 18,-7 45,12 33,16 7,-20 45,-1 39,23 19,-5 43,26 23,-8 74,32 11,35 -29,30 37,28 32,-12 15,27 42,2 46,54 -19,9 23,51 -26,12 18,58 -31,37 6,21 -17,34 62,3 34,-30 21,30 -19,32 -26,71 44,60 19,5 88,15 15,-88 45,-28 61,-70 39,-72 162,-5 253,135 -105,100 -66,91 -51,107 -45,141 -60,249 -51,257 -16,123 -9,96 -3,87 12,96 78,559 -399,12 -256,3 -239,5 -301,-3 -240,-5 -299,-2 -110,-3 -9,-44 -24,-46 -124,-35 -57,-47 -14,-88 -26,-21 -3,-55 -8,-97 29,-46 32,-34 -21,-45 -51,-28v-50l-12,-20 8,-43 -22,-68 3,-78 10,-35 -16,-45 -73,-102 -5,-11 -59,-19 -13,-1 -66,-73 -47,-24 -29,-28 -22,-93 -19,-22 -57,-30"/>
  <g class="counties" transform="scale(0.1)">
    <path data-fips-int="55001" data-name="Adams County" d="M1612,2201l62,2v181v235l-93,1h-2l-27,-81 -61,-80v-83l-19,-9 -12,-58 28,-23 1,-30 34,-7 2,-50Z"/>
    <path data-fips-int="55005" data-name="Barron County" d="M500,1221l238,9 -7,238 -1,59 -61,-5 -238,-8 9,-294Z"/>
    <path data-fips-int="55011" data-name="Buffalo County" d="M666,1947l59,1 -5,236 -5,10 -17,14h-2h-3l-18,36 21,12h2h-2l2,2 16,33 -13,51 -13,-1 -66,-73 -47,-24 -29,-28 -22,-93 -19,-22 -57,-30 23,-71 8,-52 13,-6Z"/>
    <path data-fips-int="55013" data-name="Burnett County" d="M503,864l-5,120h8l-6,237 -60,-1 2,-60 -179,-8 -3,59 -172,-8 9,-50 42,-30 12,-46 29,-44 37,-25 41,-13 12,-20 30,7 26,-35 29,10 8,-32 19,-8 4,-58Z"/>
    <path data-fips-int="55015" data-name="Calumet County" d="M2370,2199h74l4,242h-59v-32l-121,2 -3,-212Z"/>
    <path data-fips-int="55017" data-name="Chippewa County" d="M1031,1474l-3,180 -2,120 -356,-5v-2l4,-181 -5,-64 61,5 1,-59Z"/>
    <path data-fips-int="55019" data-name="Clark County" d="M1322,1897l-2,179h-238v-61h-59l1,-60 2,-181 2,-120 159,3 138,-1Z"/>
    <path data-fips-int="55021" data-name="Columbia County" d="M1970,2625v240l-178,3v-8l-177,1h-2l21,-48 37,-11 3,-127 -66,-5 7,-20 -29,-10 -5,-20 93,-1h177Z"/>
    <path data-fips-int="55023" data-name="Crawford County" d="M1137,2767l-2,174 -37,32 -53,31 -46,9 -8,15 -54,33 -51,2 -8,-97 29,-46 32,-34 -21,-45 -51,-28v-50Z"/>
    <path data-fips-int="55025" data-name="Dane County" d="M1970,2865v61v240l-180,5v-8l-238,-2 2,-240 14,-25h26l21,-35 177,-1v8Z"/>
    <path data-fips-int="55027" data-name="Dodge County" d="M2275,2683v119h-8l1,123h-59l-239,1v-61v-240l60,-1h243Z"/>
    <path data-fips-int="55033" data-name="Dunn County" d="M669,1522l5,64 -4,181v2l-3,118 -238,-7 2,-120 8,-183 -10,-3 2,-60Z"/>
    <path data-fips-int="55035" data-name="Eau Claire County" d="M1026,1774l-2,181 -120,-3 -179,-4 -59,-1 1,-60 3,-118Z"/>
    <path data-fips-int="55037" data-name="Florence County" d="M2416,1135l2,46 -177,-3 -121,2 -2,-180 -4,-21 33,16 7,-20 45,-1 39,23 19,-5 43,26 23,-8 74,32 11,35 -29,30Z"/>
    <path data-fips-int="55039" data-name="Fond du Lac County" d="M2389,2441l5,241 -119,1 -2,-59h-243l-2,-180 242,-2 -2,-31 121,-2Z"/>
    <path data-fips-int="55041" data-name="Forest County" d="M2114,979l4,21 2,180 121,-2 1,238 -120,2h-121v-55l-60,-5 -1,-296v-60h55v-63l56,35 18,-7Z"/>
    <path data-fips-int="55043" data-name="Grant County" d="M1256,2921l-2,270 -1,211 -110,-3 -9,-44 -24,-46 -124,-35 -57,-47 -14,-88 -26,-21 -3,-55 51,-2 54,-33 8,-15 46,-9 53,-31 37,-32 60,-28Z"/>
    <path data-fips-int="55045" data-name="Green County" d="M1790,3171l2,238 -240,-5v-213v-30l238,2Z"/>
    <path data-fips-int="55047" data-name="Green Lake County" d="M1880,2534l8,-30h-14v-47h14v-73l140,-2v62l2,180 -60,1 -119,-6v-24l-1,-61Z"/>
    <path data-fips-int="55049" data-name="Iowa County" d="M1373,2948h2l53,2 11,10 33,-32 46,5 36,-12 -2,240v30h-298l2,-270 69,-3Z"/>
    <path data-fips-int="55053" data-name="Jackson County" d="M1024,1955l-1,60h59v61h238l2,123 -2,64 -122,-5h-172l-35,21 1,39 -88,-2v-7l1,-116h-6l5,-241Z"/>
    <path data-fips-int="55055" data-name="Jefferson County" d="M2209,2925l1,241 -120,3 -120,-3v-240Z"/>
    <path data-fips-int="55057" data-name="Juneau County" d="M1525,2199l-2,50 -34,7 -1,30 -28,23 12,58 19,9v83l61,80 27,81 -263,-1 3,-64 1,-292 2,-64Z"/>
    <path data-fips-int="55059" data-name="Kenosha County" d="M2585,3282l-8,42 11,80 -256,3 -1,-80 61,-3 -2,-38Z"/>
    <path data-fips-int="55061" data-name="Kewaunee County" d="M2767,1890l-47,93 -19,122 -11,28 -110,3 -3,-219 11,-22Z"/>
    <path data-fips-int="55063" data-name="La Crosse County" d="M904,2309v7l88,2h31l-4,239 -175,-3 10,-35 -16,-45 -73,-102 53,2 -11,-22 21,-34 42,10 8,-24Z"/>
    <path data-fips-int="55065" data-name="Lafayette County" d="M1552,3191v213l-299,-2 1,-211Z"/>
    <path data-fips-int="55067" data-name="Langlade County" d="M1941,1358l60,5v55h121v119h21l-2,60 -166,2v62h-117l-2,-62h-98v-243Z"/>
    <path data-fips-int="55069" data-name="Lincoln County" d="M1758,1356v243l-301,-2 2,-181v-121l297,3Z"/>
    <path data-fips-int="55071" data-name="Manitowoc County" d="M2580,2136l110,-3 19,66 -11,47 -57,43 -38,147 -155,5 -4,-242 77,-1 -2,-60Z"/>
    <path data-fips-int="55073" data-name="Marathon County" d="M1457,1597l301,2h98l2,62v241l-110,-4h-194l-232,-1 3,-241 57,1 1,-60Z"/>
    <path data-fips-int="55077" data-name="Marquette County" d="M1879,2534h-29l1,61v24h-177v-235h214v73h-14v47h14Z"/>
    <path data-fips-int="55078" data-name="Menominee County" d="M2141,1597h77v180l-122,2v-60h-111l-10,-58v-62Z"/>
    <path data-fips-int="55079" data-name="Milwaukee County" d="M2532,2921h2l-4,49 20,33 -15,46 26,32 -2,47 13,35 -124,1 -1,-241Z"/>
    <path data-fips-int="55081" data-name="Monroe County" d="M1320,2263l-1,292 -32,4 -268,-2 4,-239h-31l-1,-39 35,-21h172Z"/>
    <path data-fips-int="55083" data-name="Oconto County" d="M2242,1416l60,2v119l59,2v60h34v58h87v22h87l3,15v1l-29,10 -3,39 -34,48 -13,38 -27,37 -2,26 2,4h-2v-4l-1,4 -118,5 -4,-5 -10,-120h-113v-180h-77l2,-60h-21v-119Z"/>
    <path data-fips-int="55085" data-name="Oneida County" d="M1940,1062l1,296 -183,-2 -2,-58 -297,-3 3,-235h327l29,-2v29l61,1 -2,-28Z"/>
    <path data-fips-int="55087" data-name="Outagamie County" d="M2162,1962l179,1 25,-1 4,237h-105l-166,4 -1,-241Z"/>
    <path data-fips-int="55089" data-name="Ozaukee County" d="M2577,2678l-3,55 -31,52v2l-21,101 10,33 -85,2 -2,-121h11l-1,-120Z"/>
    <path data-fips-int="55091" data-name="Pepin County" d="M667,1887l-1,60 -174,-5 -13,6 -8,52 -23,71 -61,-21 -38,-32 -12,-43 89,5 3,-100Z"/>
    <path data-fips-int="55093" data-name="Pierce County" d="M431,1760l-2,120 -3,100 -89,-5 -14,-12 -100,-10 -10,-26 -78,-82 -34,-23 22,-77 193,7Z"/>
    <path data-fips-int="55095" data-name="Polk County" d="M440,1220l-9,294 -293,-8v-48l29,-30 1,-24 26,-26 3,-37 -58,-83 -53,-8 2,-47 172,8 3,-59 179,8Z"/>
    <path data-fips-int="55097" data-name="Portage County" d="M1858,1902l1,301h-185l-62,-2v-183h-58v-120h194Z"/>
    <path data-fips-int="55099" data-name="Price County" d="M1460,1002l2,58 -3,235v121l-151,2 -157,-2 2,-180 5,-237 177,3Z"/>
    <path data-fips-int="55101" data-name="Racine County" d="M2572,3163l32,41 -19,78 -195,4 2,38 -61,3 -2,-161 119,-2Z"/>
    <path data-fips-int="55103" data-name="Richland County" d="M1375,2948h-2l-48,-30 -69,3 -61,-8 -60,28 2,-174v-92l179,3h61Z"/>
    <path data-fips-int="55105" data-name="Rock County" d="M1970,3166l120,3 3,243 -301,-3 -2,-238Z"/>
    <path data-fips-int="55107" data-name="Rusk County" d="M1153,1236l-2,180 -120,-5v63l-300,-6 7,-238Z"/>
    <path data-fips-int="55109" data-name="Saint Croix County" d="M431,1514l-2,60 10,3 -8,183 -115,-8 -193,-7 12,-51 -4,-62 -19,-30 32,-31 -6,-65Z"/>
    <path data-fips-int="55111" data-name="Sauk County" d="M1579,2620h2l5,20 29,10 -7,20 66,5 -3,127 -37,11 -21,48h2l-21,35h-26l-14,25 -36,12 -46,-5 -33,32 -11,-10 -53,-2 2,-270h-61v-59Z"/>
    <path data-fips-int="55113" data-name="Sawyer County" d="M1040,875l-1,124h119l-5,237 -415,-6 3,-360Z"/>
    <path data-fips-int="55115" data-name="Shawano County" d="M1975,1661l10,58h111v60l122,-2h113l10,120v66l-179,-1v-62l-304,2v-241Z"/>
    <path data-fips-int="55117" data-name="Sheboygan County" d="M2603,2436l1,51 17,35v58l-36,69 -8,29 -122,4h-61l-5,-241h59Z"/>
    <path data-fips-int="55119" data-name="Taylor County" d="M1459,1416l-2,181h-74l-1,60 -57,-1 -138,1 -159,-3 3,-180v-63l120,5 157,2Z"/>
    <path data-fips-int="55121" data-name="Trempealeau County" d="M904,1952l-5,241h6l-1,116 -26,-5 -8,24 -42,-10 -21,34 11,22 -53,-2 -5,-11 -59,-19 13,-51 -16,-33 -2,-2h2h-2l-21,-12 18,-36h3h2l17,-14 5,-10 5,-236Z"/>
    <path data-fips-int="55123" data-name="Vernon County" d="M1316,2619v59l-179,-3v92l-270,-4 -12,-20 8,-43 -22,-68 3,-78 175,3 268,2 32,-4Z"/>
    <path data-fips-int="55125" data-name="Vilas County" d="M1940,1062l-63,-2 2,28 -61,-1v-29l-29,2h-327l-2,-58h57v-220l239,68 161,44 78,45v63h-55Z"/>
    <path data-fips-int="55127" data-name="Walworth County" d="M2210,3166h119l2,161 1,80 -239,5 -3,-243Z"/>
    <path data-fips-int="55129" data-name="Washburn County" d="M741,870l-3,360 -238,-9 6,-237h-8l5,-120Z"/>
    <path data-fips-int="55131" data-name="Washington County" d="M2394,2682h61l1,120h-11l2,121 -179,2 -1,-123h8v-119Z"/>
    <path data-fips-int="55133" data-name="Waukesha County" d="M2268,2925l179,-2 1,241 -119,2h-119l-1,-241Z"/>
    <path data-fips-int="55135" data-name="Waupaca County" d="M2162,1962h-64l1,241h-72h-168l-1,-301 304,-2Z"/>
    <path data-fips-int="55137" data-name="Waushara County" d="M1859,2203h168l1,179 -140,2h-214v-181Z"/>
    <path data-fips-int="55139" data-name="Winnebago County" d="M2265,2199l3,212 2,31 -242,2v-62l-1,-179h72Z"/>
    <path data-fips-int="55141" data-name="Wood County" d="M1554,1898v120h58v183l-87,-2h-203l-2,-123 2,-179Z"/>
    <path data-fips-int="55003" data-name="Ashland County" d="M1172,543l4,3 6,7 -6,-7 6,7 6,5h-1h-2l2,1 1,-1 36,26 -5,237 61,1 -1,60h59l-3,120 -177,-3h-119l1,-124 4,-134v-160l13,-2 94,-51ZM1164,423l2,8 -2,-8h2v8l-55,34 2,-24 58,-33 21,-25 24,20ZM1145,325l14,26 -20,4 -13,-23ZM1238,340l-56,20 5,-25 51,-17ZM1301,245l-5,35 -30,22 8,-49Z"/>
    <path data-fips-int="55007" data-name="Bayfield County" d="M1119,375l-5,28 -37,42 -11,16 15,45 -31,25 -18,38 12,12v160l-4,134 -299,-5 5,-286 5,-129 88,-22 66,-48 13,6 5,7h2l38,-7 63,-58 27,7 23,-20 34,18Z"/>
    <path data-fips-int="55009" data-name="Brown County" d="M2341,1897l4,5 118,-5 -8,31 14,27 -19,3 -13,17 19,25v3v-3l39,-5 10,-30 25,-30 47,-18 3,219 -61,2 2,60 -77,1h-74l-4,-237 -25,1Z"/>
    <path data-fips-int="55029" data-name="Door County" d="M2917,1599l-36,18 -6,39 -23,24 8,32 -19,13 3,27 -27,17 -26,45 -24,76 -179,5 7,-33 54,-82 21,7 31,-20 29,-25 26,42 -12,-52 31,-75 48,-81 2,-30 30,15 4,-25 22,-5 5,-48 16,-20 44,-5 1,53 -29,-7 7,57 -28,1ZM2966,1419l-6,-46 53,15 -13,40Z"/>
    <path data-fips-int="55031" data-name="Douglas County" d="M508,475l9,10 7,1 40,18 68,-8 99,-41h20l-5,129 -5,286 -238,-6 -117,-5 12,-353 42,8 11,-28 5,10Z"/>
    <path data-fips-int="55075" data-name="Marinette County" d="M2640,1599l14,17 -17,21v43l-13,7v-2v2l-52,7 -3,-15h-87v-22h-87v-58h-34v-60l-59,-2v-119l-60,-2 -1,-238 177,3 -2,-46 32,-12 15,27 42,2 46,54 -19,9 23,51 -26,12 18,58 -31,37 6,21 -17,34 62,3 34,-30 21,30 -19,32 -26,71 44,60Z"/>
    <path data-fips-int="55051" data-name="Iron County" d="M1285,598l13,21 27,-13 8,25 49,12 17,31 28,83 90,25v220h-57h-125l3,-120h-59l1,-60 -61,-1 5,-237 18,-5Z"/>
  </g>
  <path class="mesh" transform="scale(0.1)" d="M440,514l11,-28 5,10M2265,2199l-166,4 -1,-241h64l179,1 25,-1 4,237h74l4,242h-59v-32l-121,2 -3,-212h105M1028,1654l159,3 138,-1 -3,241 -2,179h-238v-61h-59l1,-60 2,-181M867,2763l270,4 -2,174 -37,32 -53,31 -46,9 -8,15 -54,33 -51,2M1970,2865v61v240l-180,5v-8l-238,-2 2,-240 14,-25h26l21,-35M1970,2625l60,-1h243l2,59v119h-8l1,123h-59l-239,1M666,1947l1,-60M2416,1135l2,46 -177,-3 -121,2 -2,-180 -4,-21M2389,2441l5,241 -119,1M2030,2624l-2,-180 242,-2 -2,-31M2241,1178l1,238 -120,2h-121v-55l-60,-5 -1,-296v-60h55v-63M1135,2941l60,-28 61,8 -2,270 -1,211M1790,3171l2,238M1552,3404v-213v-30M1880,2534l8,-30h-14v-47h14v-73l140,-2v62M1851,2619v-24l-1,-61h29M1256,2921l69,-3 48,30h2l53,2 11,10 33,-32 46,5 36,-12M1552,3191h-298M1320,2076l2,123 -2,64 -122,-5h-172l-35,21 1,39 -88,-2v-7l1,-116h-6l5,-241M2209,2925l1,241 -120,3 -120,-3M1674,2619l-93,1h-2l-263,-1 3,-64 1,-292M2332,3407l-1,-80 61,-3 -2,-38 195,-4 -8,42 11,80M2588,1895l7,-33 54,-82 21,7 31,-20 29,-25 26,42 -12,-52 31,-75 48,-81 2,-30 30,15 4,-25 22,-5 5,-48 16,-20 44,-5 1,53 -29,-7 7,57 -28,1 20,37 -36,18 -6,39 -23,24 8,32 -19,13 3,27 -27,17 -26,45 -24,76 -47,93 -19,122 -11,28 -110,3 -3,-219 11,-22 179,-5M992,2318h31l-4,239 -175,-3M765,2372l53,2 -11,-22 21,-34 42,10 8,-24 26,5M2122,1418v119h21l-2,60 -166,2v62h-117l-2,-62h-98v-243l183,2M1758,1599l-301,-2 2,-181v-121l297,3 2,58M2690,2133l19,66 -11,47 -57,43 -38,147 -155,5M2444,2199l77,-1 -2,-60 61,-2M1858,1661v241l-110,-4h-194l-232,-1M1325,1656l57,1 1,-60h74M1612,2201l62,2v181h214M2141,1597h77v180l-122,2v-60h-111l-10,-58M2447,2923l-2,-121h11l-1,-120 122,-4 -3,55 -31,52v2l-21,101 10,33h2l-4,49 20,33 -15,46 26,32 -2,47 13,35 -124,1 -1,-241 85,-2M1319,2555l-32,4 -268,-2M2242,1416l60,2v119l59,2v60h34v58h87v22h87l3,15v1l-29,10 -3,39 -34,48 -13,38 -27,37 -2,26 2,4M2464,1897v-4l-1,4 -118,5 -4,-5 -10,-120h-113M1459,1295l3,-235h327l29,-2v29l61,1 -2,-28 63,2M337,1975l89,5 3,-100M123,1745l193,7 115,8M731,1468l-1,59 -61,-5 -238,-8 -293,-8M1322,2199h203l87,2v-183h-58v-120M1459,1416l-151,2 -157,-2 2,-180 5,-237 177,3h125l2,58M2572,3163l32,41 -19,78M2331,3327l-2,-161 119,-2M1137,2767v-92l179,3h61l-2,270M2090,3169l3,243M1151,1416l-120,-5v63M738,1230l415,6M1316,2678v-59M738,1230l3,-360 299,5 -1,124h119M2341,1897v66M2603,2436l1,51 17,35v58l-36,69 -8,29M2455,2682h-61M1460,1002h57v-220M2210,3166h119M2447,2923l-179,2M2099,2203h-72h-168M2027,2203l1,179M431,1514l9,-294 60,1 238,9 -7,238 300,6 -3,180 -2,120 -356,-5v-2l4,-181 -5,-64M1040,875l4,-134v-160l13,-2 94,-51 21,15 4,3 6,7 -6,-7 6,7 6,5h-1h-2l2,1 1,-1 36,26 -5,237 61,1 -1,60h59l-3,120M1164,423l2,8 -2,-8h2v8l-55,34 2,-24 58,-33 21,-25 24,20 -52,20M1145,325l14,26 -20,4 -13,-23 19,-7M1238,340l-56,20 5,-25 51,-17v22M1301,245l-5,35 -30,22 8,-49 27,-8M386,859l117,5 238,6 5,-286 5,-129 88,-22 66,-48 13,6 5,7h2l38,-7 63,-58 27,7 23,-20 34,18 9,37 -5,28 -37,42 -11,16 15,45 -31,25 -18,38 12,12M1579,2620l-27,-81 -61,-80v-83l-19,-9 -12,-58 28,-23 1,-30 34,-7 2,-50M2463,1897l-8,31 14,27 -19,3 -13,17 19,25v3v-3l39,-5 10,-30 25,-30 47,-18M2966,1419l-6,-46 53,15 -13,40 -34,-9M448,2071l23,-71 8,-52 13,-6 174,5 59,1 -5,236 -5,10 -17,14h-2h-3l-18,36 21,12h2h-2l2,2 16,33 -13,51M503,864l-5,120h8l-6,237M508,475l9,10 7,1 40,18 68,-8 99,-41h20M440,1220l2,-60 -179,-8 -3,59 -172,-8M2640,1599l14,17 -17,21v43l-13,7v-2v2l-52,7M1224,584l18,-5 43,19M670,1769l-3,118 -238,-7 2,-120 8,-183 -10,-3 2,-60M1024,1955l-120,-3 -179,-4M2162,1962v-62l-304,2 1,301h-185M1674,2384v235h177l119,6v240l-178,3v-8l-177,1h-2l21,-48 37,-11 3,-127 -66,-5 7,-20 -29,-10 -5,-20"/>
  <g class="cities">
    <circle r="3" cx="252.9" cy="302.8"/>
    <text x="252.9" y="302.8">Milwaukee</text>
    <circle r="3" cx="177.5" cy="301.3"/>
    <text x="177.5" y="301.3">Madison</text>
    <circle r="3" cx="245.2" cy="200.7"/>
    <text x="245.2" y="200.7">Green Bay</text>
  </g>
</svg>