<?xml version="1.0" encoding="utf-8"?>
<!DOCTYPE svg PUBLIC "-//W3C//DTD SVG 1.1//EN" "http://www.w3.org/Graphics/SVG/1.1/DTD/svg11.dtd">
<svg version="1.1" xmlns="http://www.w3.org/2000/svg" width="350" height="313" viewBox="0 0 350 313">
  <path class="state" transform="scale(0.1)" d="M967,1199l88,-41 15,3 25,-41 40,-21 17,-30 103,-96 40,-11 11,-60 24,-27 -25,-40 28,-25 1,-45 25,-28 -11,-31 35,4 -7,-34 15,-19 5,-54 -5,-37 25,-22 2,-48 13,-24 18,-49 25,-19 12,-47 -3,-46 -15,-20 10,-7 11,-67 -46,-89 25,-30 31,5 42,-22v207l-2,207v124l-2,256h65h439l192,-2 -4,260v187l32,-10 33,-46 35,-25 32,1 11,-27 9,-26 28,-6 12,-23 36,-13 27,-39 -2,-19 37,-9 56,36 17,-37 70,-73 25,-37v-25l38,12 -27,17 14,18 68,39 43,-3 18,15 65,1 19,-21 -9,-43 32,9 -17,-38 39,10 11,-27 58,18 9,-21 56,-46 49,14 48,50 10,15 50,-16 69,14 -4,32 -34,6 17,35 28,-1v21l18,11 -3,38 33,10 14,31 -15,45 25,16 -30,53 -37,109 -141,-112 -132,-106 -81,-63 -8,52 15,45 -14,31 -36,50 13,15 -25,39 23,27 -38,47 -32,22 -41,51 15,10 -33,48 -14,-15 -40,50 -26,17 1,-27 -55,59 -44,94 -85,-74 -42,77 -12,13 -11,76 -25,3 -18,55 -29,50 -6,36 -47,64 -23,7 -110,-38 -42,-81 -74,-34 -14,27 4,36 -24,23 5,52 -35,69 -11,-5 -35,46 15,31 -30,18 -57,54 -20,49 14,20 -24,36 -28,62 -110,103 -11,30 -50,63v33l-32,33 53,55 -11,18 -62,37 20,49 -121,72 -25,-50 -35,9 -52,38 -91,46 -10,-17 -50,-32h-2l-16,38 23,32 -70,45 -20,-6 -128,32 -42,26 -93,-91 -26,22 -12,33h-22l-78,57 -78,2 -47,-32 -11,-31 -65,-14 -17,-37 -33,-24 -5,-71 -38,-19 1,-21 45,-22 -36,-27 -58,5 -7,-17h-33l-40,-62 -17,1 -20,-32 -38,-8 -3,-34 -24,-31 17,-19 -62,-43 -8,-38 -2,-25 -56,-47 20,-18 -9,-36h-18l-21,-62 -24,-34 -35,-26 -3,-28h22l11,-34 -10,-25 19,-6 10,-62 -17,-23 3,-67 17,15 45,-4 65,-22 58,-5 15,-38 10,-75 25,-18 25,6 30,-10 -4,-95 -23,-68 42,-27 15,-34 -5,-27 38,-68 36,-43 24,-3 15,31 31,6 22,46 -22,34 15,13 42,-19 12,-37 46,19 -15,-35 13,-49 -23,-23 -6,-29 43,-14 -5,-72 21,-30 24,-9 3,-37 52,-5 26,9 12,-66 75,-57 48,60"/>
  <g class="counties" transform="scale(0.1)">
    <path data-fips-int="54001" data-name="Barbour County" d="M1955,1240l20,9 8,34 28,16 -18,88 8,12 -14,18 -34,105 -124,24 21,-25 -2,-54h-49l-27,-44 -40,-23 2,-49 40,-60 89,-5 49,-21 13,-23Z"/>
    <path data-fips-int="54003" data-name="Berkeley County" d="M3201,946l10,15 50,-16 69,14 -4,32 -34,6 17,35 28,-1v21l-13,38 -63,68 -17,6 -13,42 -25,27 -5,20 -132,-106 57,-177 28,10Z"/>
    <path data-fips-int="54005" data-name="Boone County" d="M892,2370l-58,15 -20,35 3,76 30,18 3,25 -38,24 -26,-22 -27,-37 -52,17 -39,-50 16,-13 -13,-45 -55,-13 -33,-24 -47,-8 33,-35 -26,-21 5,-36 23,-52 37,12 -7,-26 25,-5 13,-31 10,22 23,-40 20,28 22,-20 55,3 5,43 22,-3 21,32 35,23 -15,29 33,9 20,36Z"/>
    <path data-fips-int="54007" data-name="Braxton County" d="M1478,1582l8,38h43l35,24 -5,31 27,18 -9,33 -36,80 -97,102 -50,-7 -18,9 -25,-26 -63,41 -20,-49 -80,-91 32,-43 194,-140 40,-6 22,-14Z"/>
    <path data-fips-int="54009" data-name="Brooke County" d="M1541,288l-2,207 -108,-23 18,-49 25,-19 12,-47 -3,-46 -15,-20Z"/>
    <path data-fips-int="54011" data-name="Cabell County" d="M385,1838l108,104 3,86 -33,5 -13,21 -45,10 -29,18 -30,70 -24,-11 3,-77 -32,19 -106,-93 65,-22 58,-5 15,-38 10,-75 25,-18Z"/>
    <path data-fips-int="54015" data-name="Clay County" d="M1288,1925l43,25 -63,55 -220,129 -13,-98 -20,-83 62,-48 48,-37 28,-36 35,-47 80,91Z"/>
    <path data-fips-int="54017" data-name="Doddridge County" d="M1521,1127l6,64 -49,61 38,40 -12,15 27,21 -47,26 -45,24 -25,42 -18,-5 -60,-12 -65,-142 19,-18 33,-37 71,-51 25,-25 52,-21Z"/>
    <path data-fips-int="54019" data-name="Fayette County" d="M1286,2275l-8,24 32,20 26,-8 -10,28 18,3 17,34 -28,33 41,71 -38,-2 -96,42 -12,-9 -63,-3 5,-18 -30,2 13,-23 -151,-11v-48l-35,-30 -23,6 38,-184 12,-1 54,-67 54,34 13,-7 37,34 28,-40 13,20 25,-5 27,26 1,33 39,16Z"/>
    <path data-fips-int="54021" data-name="Gilmer County" d="M1396,1415l7,77 73,90 -22,14 -40,6 -194,140 -9,-28 -26,-11 -10,-25 35,-47 -2,-104 -18,-39 28,-9 120,-65 -2,-11Z"/>
    <path data-fips-int="54023" data-name="Grant County" d="M2567,1289l-35,80 -35,94 5,32 25,61 -25,34 2,18 -35,49 -146,-123 -5,-6 24,-33 14,-62 -38,-10 14,-54 29,-35 -12,-20 -108,29 -12,-15v-8l32,-10 33,-46 35,-25 32,1 11,-27 99,15Z"/>
    <path data-fips-int="54025" data-name="Greenbrier County" d="M1913,2309l-28,62 -110,103 -11,30 -50,63v33l-32,33h-58l-7,-24 -33,27 -43,-3 -110,-36 -2,-30 -55,-60 -38,-29 38,2 -41,-71 28,-33 -17,-34 -18,-3 10,-28 -26,8 -32,-20 8,-24 113,21 125,-103 63,-59 54,36 -2,98 66,57 70,9 39,-16Z"/>
    <path data-fips-int="54027" data-name="Hampshire County" d="M2906,1041l82,43 -8,52 15,45 -14,31 -36,50 13,15 -25,39 23,27 -38,47 -32,22 -35,-35 -28,-8 -13,18 -45,-22 -35,-3 -108,-40 -55,-33 63,-79 25,-4 50,-100 25,-14 50,-64 43,-3 18,15Z"/>
    <path data-fips-int="54029" data-name="Hancock County" d="M1541,288l-73,3 10,-7 11,-67 -46,-89 25,-30 31,5 42,-22Z"/>
    <path data-fips-int="54031" data-name="Hardy County" d="M2886,1412l-41,51 15,10 -33,48 -14,-15 -40,50 -26,17 1,-27 -55,59 -44,94 -85,-74 -42,77 -53,-45 35,-49 -2,-18 25,-34 -25,-61 -5,-32 35,-94 35,-80 55,33 108,40 35,3 45,22 13,-18 28,8Z"/>
    <path data-fips-int="54033" data-name="Harrison County" d="M1752,1160l-3,99 25,32 -40,60 -2,49 -50,9 -110,-37h-48l-40,-18 47,-26 -27,-21 12,-15 -38,-40 49,-61 -6,-64 33,-34 141,30Z"/>
    <path data-fips-int="54035" data-name="Jackson County" d="M821,1470l31,18 -12,33 32,44 -17,14 4,68 -7,62 -12,64 15,55 -74,49 -42,-62 -35,-51 -17,3 -26,-30 15,-16 -68,-105 -9,-23 42,-19 12,-37 46,19 -15,-35 13,-49 -23,-23 -6,-29 43,-14Z"/>
    <path data-fips-int="54037" data-name="Jefferson County" d="M3201,1253l5,-20 25,-27 13,-42 17,-6 63,-68 13,-38 18,11 -3,38 33,10 14,31 -15,45 25,16 -30,53 -37,109Z"/>
    <path data-fips-int="54039" data-name="Kanawha County" d="M855,1828l34,58 114,12 20,12 54,-5 -62,48 20,83 13,98 -54,67 -12,1 -38,184 -39,2 -13,-18 -2,-34 -20,-36 -33,-9 15,-29 -35,-23 -21,-32 -22,3 -5,-43 -55,-3 -22,20 -20,-28 -23,40 -10,-22 22,-12 -13,-18 13,-29 -10,-33 -65,-9 10,-61 45,-28 75,-33 -10,-43 -7,-64 40,-29 42,62Z"/>
    <path data-fips-int="54041" data-name="Lewis County" d="M1682,1409l-12,81v47l-46,73 -15,90 10,36 -42,-10 9,-33 -27,-18 5,-31 -35,-24h-43l-8,-38h-2l-73,-90 -7,-77 18,5 25,-42 45,-24 40,18h48Z"/>
    <path data-fips-int="54043" data-name="Lincoln County" d="M496,2028l-1,73 38,20 53,-48 65,9 10,33 -13,29 13,18 -22,12 -13,31 -25,5 7,26 -37,-12 -23,52 -5,36 26,21 -78,7 -100,33 -79,25 79,-89 -50,-55 -11,-30 16,-72 30,-70 29,-18 45,-10 13,-21Z"/>
    <path data-fips-int="54045" data-name="Logan County" d="M569,2333l-33,35 47,8 33,24 55,13 13,45 -16,13 39,50 52,-17 27,37 -94,19 -13,12 42,43 -70,34 -42,-16 -26,15 -7,-17 -60,15 -26,-37h-30l-19,-43 7,-40 -20,-11 -5,-28 18,-7 -5,-40 -23,-8 -22,-59 100,-33Z"/>
    <path data-fips-int="54047" data-name="McDowell County" d="M985,2858l-35,76 -26,22 -12,33h-22l-78,57 -78,2 -47,-32 -11,-31 -65,-14 -17,-37 -33,-24 -5,-71 -38,-19 1,-21 45,-22 49,-31 25,37 78,10 11,-15 50,-6 9,23 73,19 28,-8 3,20 47,1Z"/>
    <path data-fips-int="54049" data-name="Marion County" d="M1619,948l30,20 133,3 12,20 106,104 25,13 -58,44 -42,12 -21,-12 -52,8 -57,-37 -141,-30 18,-30 -23,-52 15,-29 20,1 12,-38Z"/>
    <path data-fips-int="54051" data-name="Marshall County" d="M1537,875h-207l-25,-40 28,-25 1,-45 25,-28 -11,-31 35,4 -7,-34 15,-19 5,-54 143,16Z"/>
    <path data-fips-int="54053" data-name="Mason County" d="M599,1593l9,23 68,105 -15,16 26,30 -124,18 -73,42 3,115 -108,-104 30,-10 -4,-95 -23,-68 42,-27 15,-34 -5,-27 38,-68 36,-43 24,-3 15,31 31,6 22,46 -22,34Z"/>
    <path data-fips-int="54055" data-name="Mercer County" d="M1137,2719l159,139 -16,38 23,32 -70,45 -20,-6 -128,32 -42,26 -93,-91 35,-76 20,3 -16,-34 59,-41 17,-57 37,-19Z"/>
    <path data-fips-int="54057" data-name="Mineral County" d="M2780,1028l-50,64 -25,14 -50,100 -25,4 -63,79 -96,-61 -99,-15 9,-26 28,-6 12,-23 36,-13 27,-39 -2,-19 37,-9 56,36 17,-37 70,-73 25,-37v-25l38,12 -27,17 14,18Z"/>
    <path data-fips-int="54059" data-name="Mingo County" d="M651,2649l5,27 -43,70 -49,31 -36,-27 -58,5 -7,-17h-33l-40,-62 -17,1 -20,-32 -38,-8 -3,-34 -24,-31 17,-19 -62,-43 -8,-38 77,-74 79,-25 22,59 23,8 5,40 -18,7 5,28 20,11 -7,40 19,43h30l26,37 60,-15 7,17 26,-15Z"/>
    <path data-fips-int="54061" data-name="Monongalia County" d="M2041,875l-16,84 -73,122 3,42 -30,-15 -25,-13 -106,-104 -12,-20 -133,-3 -30,-20 -3,-61 -14,-12Z"/>
    <path data-fips-int="54063" data-name="Monroe County" d="M1682,2633l53,55 -11,18 -62,37 20,49 -121,72 -25,-50 -35,9 -52,38 -91,46 -10,-17 -50,-32 50,-96 83,-146v-19l110,36 43,3 33,-27 7,24Z"/>
    <path data-fips-int="54065" data-name="Morgan County" d="M3201,946l-47,34 -28,-10 -57,177 -81,-63 -82,-43 19,-21 -9,-43 32,9 -17,-38 39,10 11,-27 58,18 9,-21 56,-46 49,14Z"/>
    <path data-fips-int="54067" data-name="Nicholas County" d="M1444,1908l-18,21 25,68 -13,11 23,50 28,9 98,67 -63,59 -125,103 -113,-21 -1,-30 -39,-16 -1,-33 -27,-26 -25,5 -13,-20 -28,40 -37,-34 -13,7 -54,-34 220,-129 63,-55 -43,-25 63,-41 25,26 18,-9Z"/>
    <path data-fips-int="54069" data-name="Ohio County" d="M1539,495v124l-143,-16 -5,-37 25,-22 2,-48 13,-24Z"/>
    <path data-fips-int="54071" data-name="Pendleton County" d="M2469,1657l53,45 -12,13 -11,76 -25,3 -18,55 -29,50 -6,36 -47,64 -23,7 -110,-38 -42,-81 -74,-34 18,-28 -5,-36 45,-46 35,-72 -22,-34 18,-24 -5,-23 49,-5 -7,-27 60,4 12,-28Z"/>
    <path data-fips-int="54073" data-name="Pleasants County" d="M1210,1193l-108,38 -35,-3 -14,36 -13,-21 -43,-7 -30,-37 88,-41 15,3 25,-41 40,-21 40,-15 23,11Z"/>
    <path data-fips-int="54075" data-name="Pocahontas County" d="M2138,1789l5,36 -18,28 -14,27 4,36 -24,23 5,52 -35,69 -11,-5 -35,46 15,31 -30,18 -57,54 -20,49 14,20 -24,36 -99,9 -39,16 -70,-9 -66,-57 2,-98 6,-103 15,8 57,-45 88,-74 60,12 111,-81 12,-69 16,-21 27,-71 30,22v30l40,11 12,-22Z"/>
    <path data-fips-int="54077" data-name="Preston County" d="M2229,1320v8l-15,-17 -121,-47 -82,35 -28,-16 -8,-34 -20,-9v-117l-3,-42 73,-122 16,-84 192,-2 -4,260Z"/>
    <path data-fips-int="54079" data-name="Putnam County" d="M739,1815l-40,29 7,64 10,43 -75,33 -45,28 -10,61 -53,48 -38,-20 1,-73 -3,-86 -3,-115 73,-42 124,-18 17,-3Z"/>
    <path data-fips-int="54081" data-name="Raleigh County" d="M892,2370l13,18 39,-2 23,-6 35,30v48l151,11 -13,23 30,-2 -5,18 63,3 12,9 35,39 -19,32 17,9 12,39 -44,-30 -81,61 -3,30 -20,19 -35,-9 -37,19 -17,57 -63,-39 2,-28 -77,-143 -30,-31 -30,-6 -3,-25 -30,-18 -3,-76 20,-35Z"/>
    <path data-fips-int="54083" data-name="Randolph County" d="M2318,1528l5,6 -12,28 -60,-4 7,27 -49,5 5,23 -18,24 22,34 -35,72 -45,46 -23,-22 -12,22 -40,-11v-30l-30,-22 -27,71 -16,21 -12,69 -111,81 -60,-12 -88,74 41,-122 -65,-144 30,-43 75,-1 19,-82 -7,-50 17,-42 124,-24 34,-105 14,-18 32,27v41l183,51h50Z"/>
    <path data-fips-int="54085" data-name="Ritchie County" d="M1290,1243l-19,18 65,142 2,11 -120,65 -28,9h-28l-27,-28 -32,10 -60,-7 -8,-60 -43,-40 21,-28 24,-68 16,-3 14,-36 35,3 108,-38 33,10 13,-40 34,22Z"/>
    <path data-fips-int="54087" data-name="Roane County" d="M1023,1568l27,31 15,49 -8,29 35,41 10,86 51,28 -28,36 -48,37 -54,5 -20,-12 -114,-12 -34,-58 -15,-55 12,-64 7,-62 -4,-68 17,-14 38,-21 67,41Z"/>
    <path data-fips-int="54089" data-name="Summers County" d="M1431,2597v19l-83,146 -50,96h-2l-159,-139 20,-19 3,-30 81,-61 44,30 -12,-39 -17,-9 19,-32 -35,-39 96,-42 38,29 55,60Z"/>
    <path data-fips-int="54091" data-name="Taylor County" d="M1955,1123v117l-30,2 -13,23 -49,21 -89,5 -25,-32 3,-99 52,-8 21,12 42,-12 58,-44Z"/>
    <path data-fips-int="54093" data-name="Tucker County" d="M2229,1328l12,15 108,-29 12,20 -29,35 -14,54 38,10 -14,62 -24,33 -52,-10h-50l-183,-51v-41l-32,-27 -8,-12 18,-88 82,-35 121,47Z"/>
    <path data-fips-int="54095" data-name="Tyler County" d="M1471,1109l-52,21 -25,25 -71,51 -33,37v-58l-34,-22 -13,40 -33,-10 -12,-98 -23,-11 -40,15 17,-30 103,-96 36,22 24,-18 46,58 28,19 17,33 40,5Z"/>
    <path data-fips-int="54097" data-name="Upshur County" d="M1732,1400l40,23 27,44h49l2,54 -21,25 -17,42 7,50 -19,82 -75,1 -30,43 -25,9 -11,-31 -40,-6 -10,-36 15,-90 46,-73v-47l12,-81Z"/>
    <path data-fips-int="54099" data-name="Wayne County" d="M187,1990l106,93 32,-19 -3,77 24,11 -16,72 11,30 50,55 -79,89 -77,74 -2,-25 -56,-47 20,-18 -9,-36h-18l-21,-62 -24,-34 -35,-26 -3,-28h22l11,-34 -10,-25 19,-6 10,-62 -17,-23 3,-67 17,15Z"/>
    <path data-fips-int="54101" data-name="Webster County" d="M1619,1736l40,6 11,31 25,-9 65,144 -41,122 -57,45 -15,-8 -6,103 -54,-36 -98,-67 -28,-9 -23,-50 13,-11 -25,-68 18,-21 97,-102 36,-80Z"/>
    <path data-fips-int="54103" data-name="Wetzel County" d="M1537,875h65l14,12 3,61 -23,-3 -12,38 -20,-1 -15,29 23,52 -18,30 -33,34 -50,-18 -25,-17 -40,-5 -17,-33 -28,-19 -46,-58 -24,18 -36,-22 40,-11 11,-60 24,-27Z"/>
    <path data-fips-int="54105" data-name="Wirt County" d="M1103,1470l-75,80 -5,18 -46,17 -67,-41 -38,21 -32,-44 12,-33 -31,-18 106,-93h17l69,-42 -21,28 43,40 8,60Z"/>
    <path data-fips-int="54107" data-name="Wood County" d="M967,1199l30,37 43,7 13,21 -16,3 -24,68 -69,42h-17l-106,93 -110,-64 -5,-72 21,-30 24,-9 3,-37 52,-5 26,9 12,-66 75,-57Z"/>
    <path data-fips-int="54109" data-name="Wyoming County" d="M1048,2786l-59,41 16,34 -20,-3 -48,-31 -47,-1 -3,-20 -28,8 -73,-19 -9,-23 -50,6 -11,15 -78,-10 -25,-37 43,-70 -5,-27 70,-34 -42,-43 13,-12 94,-19 26,22 38,-24 30,6 30,31 77,143 -2,28Z"/>
    <path data-fips-int="54013" data-name="Calhoun County" d="M1190,1488l18,39 2,104 -35,47 10,25 26,11 9,28 -32,43 -35,47 -51,-28 -10,-86 -35,-41 8,-29 -15,-49 -27,-31 5,-18 75,-80 32,-10 27,28Z"/>
  </g>
  <path class="mesh" transform="scale(0.1)" d="M3337,1052l-13,38 -63,68 -17,6 -13,42 -25,27 -5,20M3069,1147l57,-177 28,10 47,-34M944,2386l-39,2 -13,-18 -58,15 -20,35 3,76 30,18 3,25 -38,24 -26,-22 -27,-37 -52,17 -39,-50 16,-13 -13,-45 -55,-13 -33,-24 -47,-8 33,-35 -26,-21 5,-36 23,-52 37,12 -7,-26 25,-5 13,-31 10,22 23,-40 20,28 22,-20 55,3 5,43 22,-3 21,32 35,23 -15,29 33,9 20,36 2,34M1478,1582l8,38h43l35,24 -5,31 27,18 -9,33 -36,80 -97,102 -50,-7 -18,9 -25,-26 -63,41 -20,-49 -80,-91 32,-43 194,-140 40,-6 22,-14h2M1539,495l-108,-23M1468,291l73,-3M385,1838l108,104 3,86 -33,5 -13,21 -45,10 -29,18 -30,70 -24,-11 3,-77 -32,19 -106,-93M1288,1925l43,25 -63,55 -220,129 -13,-98 -20,-83 62,-48 48,-37 28,-36 35,-47M1396,1415l7,77 73,90M1220,1742l-9,-28 -26,-11 -10,-25 35,-47 -2,-104 -18,-39 28,-9 120,-65 -2,-11M2372,1213l99,15 96,61 -35,80 -35,94 5,32 25,61 -25,34 2,18 -35,49 -146,-123 -5,-6 24,-33 14,-62 -38,-10 14,-54 29,-35 -12,-20 -108,29 -12,-15v-8M1682,2633h-58l-7,-24 -33,27 -43,-3 -110,-36 -2,-30 -55,-60 -38,-29M1286,2275l-8,24 32,20 26,-8 -10,28 18,3 17,34 -28,33 41,71 -38,-2 -96,42 -12,-9 -63,-3 5,-18 -30,2 13,-23 -151,-11v-48l-35,-30 -23,6 38,-184 12,-1 54,-67 54,34 13,-7 37,34 28,-40 13,20 25,-5 27,26 1,33 39,16 1,30 113,21 125,-103 63,-59 54,36 -2,98 66,57 70,9 39,-16 99,-9M2906,1041l82,43M2886,1412l-35,-35 -28,-8 -13,18 -45,-22 -35,-3 -108,-40 -55,-33 63,-79 25,-4 50,-100 25,-14 50,-64M2522,1702l-53,-45M1521,1127l6,64 -49,61 38,40 -12,15 27,21 -47,26 -45,24 -25,42 -18,-5 -60,-12 -65,-142 19,-18 33,-37 71,-51 25,-25 52,-21 50,18 33,-34 141,30 57,37 -3,99 25,32M1732,1400l-50,9 -110,-37h-48l-40,-18M711,1406l110,64 31,18 -12,33 32,44 -17,14 4,68 -7,62 -12,64 15,55 -74,49 -42,-62 -35,-51 -17,3 -26,-30 15,-16 -68,-105 -9,-23M855,1828l34,58 114,12 20,12 54,-5M639,2174l22,-12 -13,-18 13,-29 -10,-33 -65,-9 10,-61 45,-28 75,-33 -10,-43 -7,-64 40,-29M1682,1409l-12,81v47l-46,73 -15,90 10,36 -42,-10M496,2028l-1,73 38,20 53,-48M569,2333l-78,7 -100,33 -79,25 79,-89 -50,-55 -11,-30 16,-72M786,2541l-94,19 -13,12 42,43 -70,34 -42,-16 -26,15 -7,-17 -60,15 -26,-37h-30l-19,-43 7,-40 -20,-11 -5,-28 18,-7 -5,-40 -23,-8 -22,-59M564,2777l49,-31 25,37 78,10 11,-15 50,-6 9,23 73,19 28,-8 3,20 47,1 48,31 -35,76M1554,1093l18,-30 -23,-52 15,-29 20,1 12,-38 23,3 30,20 133,3 12,20 106,104 25,13 -58,44 -42,12 -21,-12 -52,8M1537,875h-207M1396,603l143,16M687,1767l-124,18 -73,42 3,115M985,2858l20,3 -16,-34 59,-41 17,-57 37,-19 35,9 159,139M651,2649l5,27 -43,70M235,2472l77,-74M2041,875l-16,84 -73,122 3,42 -30,-15M1619,948l-3,-61 -14,-12M1298,2858l50,-96 83,-146v-19M1444,1908l-18,21 25,68 -13,11 23,50 28,9 98,67M2125,1853l18,-28 -5,-36 45,-46 35,-72 -22,-34 18,-24 -5,-23 49,-5 -7,-27 60,4 12,-28M1135,1099l40,-15 23,11 12,98 -108,38 -35,-3 -14,36 -13,-21 -43,-7 -30,-37M1641,2170l6,-103 15,8 57,-45 88,-74 60,12 111,-81 12,-69 16,-21 27,-71 30,22v30l40,11 12,-22 23,22M2229,1328l-15,-17 -121,-47 -82,35M1955,1240v-117M1240,2520l35,39 -19,32 17,9 12,39 -44,-30 -81,61 -3,30 -20,19M1048,2786l-63,-39 2,-28 -77,-143 -30,-31 -30,-6M1719,2030l41,-122 -65,-144 30,-43 75,-1 19,-82 -7,-50 17,-42M2001,1399l-14,18 -34,105 -124,24 21,-25 -2,-54h-49l-27,-44 -40,-23 2,-49 40,-60 89,-5 49,-21 13,-23 30,-2 20,9 8,34 28,16 -18,88 8,12 32,27v41l183,51h50l52,10M1190,1488h-28l-27,-28 -32,10 -60,-7 -8,-60 -43,-40 21,-28 24,-68 16,-3M1210,1193l33,10 13,-40 34,22v58M872,1565l38,-21 67,41 46,-17 27,31 15,49 -8,29 35,41 10,86 51,28M1255,973l36,22 24,-18 46,58 28,19 17,33 40,5 25,17M1695,1764l-25,9 -11,-31 -40,-6M1103,1470l-75,80 -5,18M821,1470l106,-93h17l69,-42"/>
  <g class="cities">
    <circle r="3" cx="77.8" cy="205.6"/>
    <text x="77.8" y="205.6">Charleston</text>
    <circle r="3" cx="22.7" cy="198.4"/>
    <text x="22.7" y="198.4">Huntington</text>
    <circle r="3" cx="83.8" cy="126.3"/>
    <text x="83.8" y="126.3">Parkersburg</text>
  </g>
</svg>