<?xml version="1.0" encoding="utf-8"?>
<!DOCTYPE svg PUBLIC "-//W3C//DTD SVG 1.1//EN" "http://www.w3.org/Graphics/SVG/1.1/DTD/svg11.dtd">
<svg version="1.1" xmlns="http://www.w3.org/2000/svg" width="1000" height="893" viewBox="0 0 1000 893">
  <path class="state" d="M547,659l-3,9 -16,19 -19,17 -19,28 -1,12 -8,7 13,16 -5,8 -15,8 6,14 -34,20 -12,-13 -36,22 -10,4 -17,-14h-1l-5,11 7,9 -12,9 -43,8 -20,9 -20,-17 -6,-8 -11,16 -18,6 -11,10 -23,1 -20,-20 -14,-1 -3,-11 -13,-10v-17l-11,-7 1,-5 12,-7 -7,-9 -14,5 -7,-6h-11v-10l-6,-7 -11,-2 -3,-8 -13,-6 -3,-18 -11,-12 -7,-14 -1,-7 -12,-8v-20h-7l-4,-18 -18,-18v-8h6l6,-18 2,-20 -4,-5v-17l18,1 20,-6 15,-1 5,-13 3,-21 14,-1 9,-5 -4,-37 -5,-8 16,-13 -1,-12 11,-21 18,-12 4,9 9,2 6,15 -6,5 4,6 11,-4 5,-12 13,5 -4,-8 3,-15 -9,-8v-8l12,-3 2,-12 -3,-9 6,-8 8,-3 3,-12 20,2 2,-18 19,-16 9,3 7,13h5l18,-11 7,1 10,-14 9,-4 5,-8 29,-28 12,-3 3,-19 6,-6 -6,-13 8,-6v-14l7,-3 -3,-13 8,3v-12l5,-5v-15l-1,-10 7,-6v-11l5,-11 6,-15 7,-5 3,-11 -2,-15 -4,-5 7,-20 -14,-27 7,-8 10,1 11,-6v59l-1,59v36v73h19h21h91h13h55l-1,14v113l8,-3 10,-13 9,-7h10l4,-8 2,-7 24,-15 5,-15 12,-1 14,10 2,-6 15,-14 6,-11 15,-19 -2,10 23,16 36,4 3,-19h10l-7,-8 11,3 7,-7 14,4 6,-14 9,-5 15,3 17,15 2,5 35,-1 -2,10 -10,1 5,10 9,-2 -1,7 6,1 1,12 7,4 4,10 -6,11 6,8 -16,44 -40,-32 -38,-30 -23,-18 -4,26 6,4 -15,21 3,5 -6,10 6,8 -10,13 -10,6 -11,15 4,3 -8,12 -8,-3 -9,15 -7,-3 -13,12 -15,32 -25,-22 -12,22 -7,15 1,11 -8,1 -7,20 -14,30 -14,10 -31,-11 -12,-23 -22,-9 -2,17 -7,8 1,16 -15,22 -8,6 3,10 -24,22 -5,12 4,6Z"/>
  <g class="counties">
    <path data-fips-int="54001" data-name="Barbour County" d="M558,353l7,3 2,10 7,4 -5,26 2,3 -4,5 -9,31 -36,5 7,-7 -1,-15h-15l-7,-12 -12,-6v-15l13,-18 26,-1Z"/>
    <path data-fips-int="54003" data-name="Berkeley County" d="M915,269l2,5 35,-1 -2,10 -10,1 5,10 9,-2 -1,7 -4,12 -15,17h-4l-15,29 -38,-30 15,-50 10,1Z"/>
    <path data-fips-int="54005" data-name="Boone County" d="M255,676l-17,4 -3,5 -1,27 8,5 1,8 -13,7 -6,-7 -11,-11 -9,6 -14,-16 6,-8 -6,-9 -14,-2 -23,-12 9,-8 -7,-5 7,-25 11,3 -1,-7 7,-2 3,-9 14,-4 23,2v11l8,1 11,13 5,2 -4,9 9,2 6,8Z"/>
    <path data-fips-int="54007" data-name="Braxton County" d="M422,451l3,12 13,-1 9,6 4,24 -11,23 -28,29 -19,1 -6,-9 -19,13 -10,-19 -7,-2 -1,-9 -11,-10 9,-12 41,-29 15,-11 11,-1Z"/>
    <path data-fips-int="54009" data-name="Brooke County" d="M440,81l-1,59 -14,-4 -16,-3 6,-15 7,-5 3,-11 -2,-15 -4,-5Z"/>
    <path data-fips-int="54011" data-name="Cabell County" d="M110,525l31,29v25l-10,2 -22,12 -10,21 -9,-6 1,-11 6,-2 -8,-7 -7,5 -29,-26 20,-6 15,-1 5,-13 3,-21Z"/>
    <path data-fips-int="54015" data-name="Clay County" d="M368,549l12,7 -18,16 -63,36 -3,-27 -6,-24 17,-14 13,-9 9,-11 10,-14 11,10 1,9 7,2Z"/>
    <path data-fips-int="54017" data-name="Doddridge County" d="M434,320l1,20 -12,16 14,19v4l-13,7 -6,7h-7l-7,12 -6,-2 -16,-3 -18,-39 4,-7 16,-15 13,-10 4,-9 8,2 11,-6Z"/>
    <path data-fips-int="54019" data-name="Fayette County" d="M367,648l-2,8 6,5 11,-2 6,21 -7,7 12,21 -12,-1 -27,12 -22,-3 -3,-12 -43,-3 -1,-15 -8,-7 -7,2 10,-50 19,-23 14,11 3,-3 15,10v-4l17,-3 7,17 12,5Z"/>
    <path data-fips-int="54021" data-name="Gilmer County" d="M398,403l2,22 22,26 -7,5 -11,1 -15,11 -41,29 -13,-20 8,-6 2,-36 -6,-11 25,-9 17,-10 1,-5Z"/>
    <path data-fips-int="54023" data-name="Grant County" d="M734,367l-11,22 -10,28 9,25 -7,17 -10,14 -41,-36 -2,-2h3l8,-27 -11,-2 4,-16 7,-9 -3,-7 -30,9 -3,-4v-3l8,-3 10,-13 9,-7h10l4,-8 25,4Z"/>
    <path data-fips-int="54025" data-name="Greenbrier County" d="M547,659l-3,9 -16,19 -19,17 -19,28 -1,12 -8,7 -17,1 -2,-7 -13,8 -11,-2 -29,-10v-7l-15,-17 -13,-10 12,1 -12,-21 7,-7 -6,-21 -11,2 -6,-5 2,-8 33,7 30,-25 23,-22 16,11v28l19,17 19,2 15,-6Z"/>
    <path data-fips-int="54027" data-name="Hampshire County" d="M830,297l24,12 -4,26 6,4 -15,21 3,5 -6,10 6,8 -10,13 -10,6 -10,-10 -12,3 -13,-6 -12,-2 -28,-10 -15,-10 18,-22 11,-9 9,-20 9,-5 13,-18Z"/>
    <path data-fips-int="54029" data-name="Hancock County" d="M440,81l-21,1 7,-20 -14,-27 7,-8 10,1 11,-6Z"/>
    <path data-fips-int="54031" data-name="Hardy County" d="M824,402l-11,15 4,3 -8,12 -8,-3 -9,15 -7,-3 -13,12 -15,32 -25,-22 -12,22 -15,-12 10,-14 7,-17 -9,-25 10,-28 11,-22 15,10 28,10 12,2 13,6 12,-3Z"/>
    <path data-fips-int="54033" data-name="Harrison County" d="M500,330l-1,29 8,8 -13,18v15l-13,1 -32,-11h-14l-11,-4 13,-7v-4l-14,-19 12,-16 -1,-20 10,-9 41,9Z"/>
    <path data-fips-int="54035" data-name="Jackson County" d="M235,419l9,5 -4,12 9,10 -5,4 1,24 -5,37 4,10 -22,15 -11,-18 -10,-15 -5,1 -7,-8 4,-5 -20,-30 -2,-7 11,-4 5,-12 13,5 -4,-8 3,-15 -9,-8v-8l12,-3Z"/>
    <path data-fips-int="54037" data-name="Jefferson County" d="M915,357l15,-29h4l15,-17 4,-12 6,1 1,12 7,4 4,10 -6,11 6,8 -16,44Z"/>
    <path data-fips-int="54039" data-name="Kanawha County" d="M244,521l10,17 31,3 7,4 15,-2 -17,14 6,24 3,27 -19,23 -10,50 -15,-5 -1,-12 -6,-8 -9,-2 4,-9 -5,-2 -11,-13 -8,-1v-11l-23,-2 -14,4 7,-2 -3,-24 -19,-2 3,-19 35,-16 -6,-14v-14l12,-11 11,18Z"/>
    <path data-fips-int="54041" data-name="Lewis County" d="M481,401l-4,23v14l-9,18 -3,-2 -6,31 3,10 -11,-3 -4,-24 -9,-6 -13,1 -3,-12 -22,-26 -2,-22 6,2 7,-12h7l6,-7 11,4h14Z"/>
    <path data-fips-int="54043" data-name="Lincoln County" d="M141,579v21l11,5 15,-13 19,2 3,24 -7,2 -3,9 -7,2 1,7 -11,-3 -7,25 7,5 -17,1 -33,10 -23,8 20,-19v-11l-11,-11 -3,-7 4,-22 10,-21 22,-12Z"/>
    <path data-fips-int="54045" data-name="Logan County" d="M162,665l-9,8 23,12 14,2 6,9 -6,8 14,16 9,-6 11,11 -26,6 -4,3 9,10 -4,6 -13,6 -7,-3 -14,2 -1,-5 -12,3 -5,7 -8,-16 -8,1 -6,-13 3,-11 -8,-11 6,-3 -3,-12 -6,-2 -5,-17 33,-10Z"/>
    <path data-fips-int="54047" data-name="McDowell County" d="M281,816l-10,21 -11,16 -18,6 -11,10 -23,1 -20,-20 -14,-1 -3,-11 -13,-10v-17l-11,-7 1,-5 12,-7 14,-9 7,11 27,1v-3l15,2 2,5 17,3 10,-1 5,8Z"/>
    <path data-fips-int="54049" data-name="Marion County" d="M462,270l9,6 38,1 40,39 -28,16 -6,-4 -15,2 -15,-10 -41,-9 4,-3 -4,-20 11,-19Z"/>
    <path data-fips-int="54051" data-name="Marshall County" d="M439,249h-60l-6,-13 8,-6v-14l7,-3 -3,-13 8,3v-12l5,-5v-15l41,5Z"/>
    <path data-fips-int="54053" data-name="Mason County" d="M171,454l2,7 20,30 -4,5 7,8 -36,5 -20,12 1,33 -31,-29 9,-5 -4,-37 -5,-8 16,-13 -1,-12 11,-21 18,-12 4,9 9,2 6,15 -6,5Z"/>
    <path data-fips-int="54055" data-name="Mercer County" d="M324,776l46,40 -5,11 7,9 -12,9 -43,8 -20,9 -20,-17 -6,-8 10,-21 1,-9 9,-9 8,-3 5,-16 12,-6Z"/>
    <path data-fips-int="54057" data-name="Mineral County" d="M794,293l-13,18 -9,5 -9,20 -11,9 -18,22 -31,-18 -25,-4 2,-7 24,-15 5,-15 12,-1 14,10 2,-6 15,-14 6,-11 15,-19 -2,10Z"/>
    <path data-fips-int="54059" data-name="Mingo County" d="M186,756v11l-12,16 -14,9 -7,-9 -14,5 -7,-6h-11v-10l-6,-7 -11,-2 -3,-8 -13,-6 -3,-18 -11,-12 -7,-14 22,-21 23,-8 5,17 6,2 3,12 -6,3 8,11 -3,11 6,13 8,-1 8,16 5,-7 12,-3 1,5 14,-2Z"/>
    <path data-fips-int="54061" data-name="Monongalia County" d="M583,249l-5,24 -21,35 1,12 -9,-4 -40,-39 -38,-1 -9,-6 -1,-20 -3,-1h21h91Z"/>
    <path data-fips-int="54063" data-name="Monroe County" d="M481,751l13,16 -5,8 -15,8 6,14 -34,20 -12,-13 -36,22 -10,4 -17,-14 8,-18 25,-42 5,-15 29,10 11,2 13,-8 2,7Z"/>
    <path data-fips-int="54065" data-name="Morgan County" d="M915,269l-13,9 -10,-1 -15,50 -23,-18 -24,-12 3,-19h10l-7,-8 11,3 7,-7 14,4 6,-14 9,-5 15,3Z"/>
    <path data-fips-int="54067" data-name="Nicholas County" d="M412,544l-4,6 6,20 -3,3 9,13 33,22 -23,22 -30,25 -33,-7v-7l-12,-5 -7,-17 -17,3v4l-15,-10 -3,3 -14,-11 63,-36 18,-16 -12,-7 19,-13 6,9Z"/>
    <path data-fips-int="54069" data-name="Ohio County" d="M439,140v36l-41,-5 -1,-10 7,-6v-11l5,-11 16,3Z"/>
    <path data-fips-int="54071" data-name="Pendleton County" d="M705,473l15,12 -7,15 1,11 -8,1 -7,20 -14,30 -14,10 -31,-11 -12,-23 -22,-9 6,-9 -2,-10h7l16,-34 -6,-9 4,-14 14,-2 -1,-7 15,2 5,-9Z"/>
    <path data-fips-int="54073" data-name="Pleasants County" d="M345,340l-7,5 -32,6 -5,9 -5,-7 -11,-1 -10,-11h5l18,-11 7,1 10,-14 9,-4 18,-2Z"/>
    <path data-fips-int="54075" data-name="Pocahontas County" d="M610,510l2,10 -6,9 -2,17 -7,8 1,16 -15,22 -8,6 3,10 -24,22 -5,12 4,6 -6,11 -25,1 -15,6 -19,-2 -19,-17v-28l1,-29 4,2 16,-13 25,-21 18,3 33,-24 2,-18 14,-27 7,7 -1,8 14,-2Z"/>
    <path data-fips-int="54077" data-name="Preston County" d="M637,376v3l-6,-6 -33,-13 -24,10 -7,-4 -2,-10 -7,-3v-33l-1,-12 21,-35 5,-24h55l-1,14Z"/>
    <path data-fips-int="54079" data-name="Putnam County" d="M211,518l-12,11v14l6,14 -35,16 -3,19 -15,13 -11,-5v-21v-25l-1,-33 20,-12 36,-5 5,-1Z"/>
    <path data-fips-int="54081" data-name="Raleigh County" d="M255,676l15,5 7,-2 8,7 1,15 43,3 3,12 22,3 10,13 -6,3 9,18 -13,-8 -24,18 -6,13 -8,-3 -12,6 -5,16 -18,-11 1,-7 -28,-50 -11,-2 -1,-8 -8,-5 1,-27 3,-5Z"/>
    <path data-fips-int="54083" data-name="Randolph County" d="M633,435l14,-2 15,2 2,2 -5,9 -15,-2 1,7 -14,2 -4,14 6,9 -16,34h-7l-8,-5 -14,2 1,-8 -7,-7 -14,27 -2,18 -33,24 -18,-3 -25,21 13,-35 -18,-41 7,-12h22l5,-24 -2,-14 5,-13 36,-5 9,-31 4,-5 11,9 -2,10Z"/>
    <path data-fips-int="54085" data-name="Ritchie County" d="M368,354l-4,7 18,39 -1,5 -17,10 -25,9 -11,-1 -4,-7 -9,3 -14,-1 -5,-16 -13,-13 7,-9 6,-18 5,-2 5,-9 32,-6 7,-5 10,1 3,-9 9,2Z"/>
    <path data-fips-int="54087" data-name="Roane County" d="M292,447l10,16 1,15 10,13 -1,16 3,8 12,1 2,7 -9,11 -13,9 -15,2 -7,-4 -31,-3 -10,-17 -4,-10 5,-37 -1,-24 5,-4 8,-6 23,11Z"/>
    <path data-fips-int="54089" data-name="Summers County" d="M409,741l-5,15 -25,42 -8,18h-1l-46,-40 6,-13 24,-18 13,8 -9,-18 6,-3 -10,-13 27,-12 13,10 15,17Z"/>
    <path data-fips-int="54091" data-name="Taylor County" d="M558,320v33l-25,13 -26,1 -8,-8 1,-29 15,-2 6,4 28,-16Z"/>
    <path data-fips-int="54093" data-name="Tucker County" d="M637,379l3,4 30,-9 3,7 -7,9 -4,16 11,2 -8,27h-3l-15,-2 -14,2 -53,-17 2,-10 -11,-9 -2,-3 5,-26 24,-10 33,13Z"/>
    <path data-fips-int="54095" data-name="Tyler County" d="M420,316l-11,6 -8,-2 -4,9 -13,10 -16,15 -1,-20 -9,-2 -3,9 -10,-1 -3,-29 -18,2 5,-8 29,-28 11,6 6,-5 14,16 7,5 5,11 9,-1Z"/>
    <path data-fips-int="54097" data-name="Upshur County" d="M494,400l12,6 7,12h15l1,15 -7,7 -5,13 2,14 -5,24h-22l-7,12 -5,3 -10,-12 -8,1 -3,-10 6,-31 3,2 9,-18v-14l4,-23Z"/>
    <path data-fips-int="54099" data-name="Wayne County" d="M53,567l29,26 7,-5 8,7 -6,2 -1,11 9,6 -4,22 3,7 11,11v11l-20,19 -22,21 -1,-7 -12,-8v-20h-7l-4,-18 -18,-18v-8h6l6,-18 2,-20 -4,-5v-17Z"/>
    <path data-fips-int="54101" data-name="Webster County" d="M462,495l8,-1 10,12 5,-3 18,41 -13,35 -16,13 -4,-2 -1,29 -16,-11 -33,-22 -9,-13 3,-3 -6,-20 4,-6 28,-29 11,-23Z"/>
    <path data-fips-int="54103" data-name="Wetzel County" d="M439,249h19l3,1 1,20 -7,-1 -11,19 4,20 -4,3 -10,9 -14,-4 -10,-7 -9,1 -5,-11 -7,-5 -14,-16 -6,5 -11,-6 12,-3 3,-19 6,-6Z"/>
    <path data-fips-int="54105" data-name="Wirt County" d="M315,419l-20,21 -3,7 -12,4 -23,-11 -8,6 -9,-10 4,-12 -9,-5 22,-22 33,-17 -7,9 13,13 5,16Z"/>
    <path data-fips-int="54107" data-name="Wood County" d="M275,341l10,11 11,1 5,7 -5,2 -6,18 -33,17 -22,22 -33,-18 2,-12 -3,-9 6,-8 8,-3 3,-12 20,2 2,-18 19,-16 9,3Z"/>
    <path data-fips-int="54109" data-name="Wyoming County" d="M299,795l-8,3 -9,9 -1,9 -24,-7 -5,-8 -10,1 -17,-3 -2,-5 -15,-2v3l-27,-1 -7,-11 12,-16v-11l13,-6 4,-6 -9,-10 4,-3 26,-6 6,7 13,-7 11,2 28,50 -1,7Z"/>
    <path data-fips-int="54013" data-name="Calhoun County" d="M339,424l6,11 -2,36 -8,6 13,20 -9,12 -10,14 -2,-7 -12,-1 -3,-8 1,-16 -10,-13 -1,-15 -10,-16 3,-7 20,-21 9,-3 4,7Z"/>
  </g>
  <path class="mesh" d="M953,299l-4,12 -15,17h-4l-15,29M877,327l15,-50 10,1 13,-9M270,681l-15,-5 -17,4 -3,5 -1,27 8,5 1,8 -13,7 -6,-7 -11,-11 -9,6 -14,-16 6,-8 -6,-9 -14,-2 -23,-12 9,-8 -7,-5 7,-25 11,3 -1,-7 7,-2 3,-9 14,-4 23,2v11l8,1 11,13 5,2 -4,9 9,2 6,8 1,12M398,403l2,22 22,26 3,12 13,-1 9,6 4,24 -11,23 -28,29 -19,1 -6,-9 -19,13 -10,-19 -7,-2 -1,-9 -11,-10 9,-12 41,-29 15,-11 11,-1 7,-5M439,140l-14,-4 -16,-3M419,82l21,-1M110,525l31,29v25l-10,2 -22,12 -10,21 -9,-6 1,-11 6,-2 -8,-7 -7,5 -29,-26M368,549l12,7 -18,16 -63,36 -3,-27 -6,-24 17,-14 13,-9 9,-11 10,-14M348,497l-13,-20 8,-6 2,-36 -6,-11 25,-9 17,-10 1,-5M678,345l25,4 31,18 -11,22 -10,28 9,25 -7,17 -10,14 -41,-36 -2,-2h3l8,-27 -11,-2 4,-16 7,-9 -3,-7 -30,9 -3,-4v-3M481,751l-17,1 -2,-7 -13,8 -11,-2 -29,-10v-7l-15,-17 -13,-10M367,648l-2,8 6,5 11,-2 6,21 -7,7 12,21 -12,-1 -27,12 -22,-3 -3,-12 -43,-3 -1,-15 -8,-7 -7,2 10,-50 19,-23 14,11 3,-3 15,10v-4l17,-3 7,17 12,5v7l33,7 30,-25 23,-22 16,11v28l19,17 19,2 15,-6 25,-1M830,297l24,12M824,402l-10,-10 -12,3 -13,-6 -12,-2 -28,-10 -15,-10 18,-22 11,-9 9,-20 9,-5 13,-18M720,485l-15,-12M434,320l1,20 -12,16 14,19v4l-13,7 -6,7h-7l-7,12 -6,-2 -16,-3 -18,-39 4,-7 16,-15 13,-10 4,-9 8,2 11,-6 14,4 10,-9 41,9 15,10 -1,29 8,8M494,400l-13,1 -32,-11h-14l-11,-4M202,401l33,18 9,5 -4,12 9,10 -5,4 1,24 -5,37 4,10 -22,15 -11,-18 -10,-15 -5,1 -7,-8 4,-5 -20,-30 -2,-7M244,521l10,17 31,3 7,4 15,-2M182,620l7,-2 -3,-24 -19,-2 3,-19 35,-16 -6,-14v-14l12,-11M481,401l-4,23v14l-9,18 -3,-2 -6,31 3,10 -11,-3M141,579v21l11,5 15,-13M162,665l-17,1 -33,10 -23,8 20,-19v-11l-11,-11 -3,-7 4,-22M224,725l-26,6 -4,3 9,10 -4,6 -13,6 -7,-3 -14,2 -1,-5 -12,3 -5,7 -8,-16 -8,1 -6,-13 3,-11 -8,-11 6,-3 -3,-12 -6,-2 -5,-17M160,792l14,-9 7,11 27,1v-3l15,2 2,5 17,3 10,-1 5,8 24,7 -10,21M444,311l4,-3 -4,-20 11,-19 7,1 9,6 38,1 40,39 -28,16 -6,-4 -15,2M439,249h-60M398,171l41,5M196,504l-36,5 -20,12 1,33M281,816l1,-9 9,-9 8,-3 5,-16 12,-6 8,3 46,40M186,756v11l-12,16M67,705l22,-21M583,249l-5,24 -21,35 1,12 -9,-4M462,270l-1,-20 -3,-1M371,816l8,-18 25,-42 5,-15M412,544l-4,6 6,20 -3,3 9,13 33,22M606,529l6,-9 -2,-10h7l16,-34 -6,-9 4,-14 14,-2 -1,-7 15,2 5,-9M324,313l18,-2 3,29 -7,5 -32,6 -5,9 -5,-7 -11,-1 -10,-11M469,619l1,-29 4,2 16,-13 25,-21 18,3 33,-24 2,-18 14,-27 7,7 -1,8 14,-2 8,5M558,353v-33M354,719l10,13 -6,3 9,18 -13,-8 -24,18 -6,13M299,795l-18,-11 1,-7 -28,-50 -11,-2M637,379l-6,-6 -33,-13 -24,10 -5,26 2,3 -4,5 -9,31 -36,5 7,-7 -1,-15h-15l-7,-12 -12,-6v-15l13,-18 26,-1 25,-13 7,3 2,10 7,4M571,399l11,9 -2,10 53,17 14,-2 15,2M490,579l13,-35 -18,-41 7,-12h22l5,-24 -2,-14 5,-13M339,424l-11,-1 -4,-7 -9,3 -14,-1 -5,-16 -13,-13 7,-9 6,-18 5,-2M345,340l10,1 3,-9 9,2 1,20M249,446l8,-6 23,11 12,-4 10,16 1,15 10,13 -1,16 3,8 12,1 2,7M358,277l11,6 6,-5 14,16 7,5 5,11 9,-1 10,7M485,503l-5,3 -10,-12 -8,1M315,419l-20,21 -3,7M235,419l22,-22 33,-17"/>
  <g class="cities">
    <circle r="7" cx="222" cy="587"/>
    <text x="222" y="587">Charleston</text>
    <circle r="7" cx="65" cy="566"/>
    <text x="65" y="566">Huntington</text>
    <circle r="7" cx="240" cy="360"/>
    <text x="240" y="360">Parkersburg</text>
  </g>
</svg>