<?xml version="1.0" encoding="utf-8"?>
<!DOCTYPE svg PUBLIC "-//W3C//DTD SVG 1.1//EN" "http://www.w3.org/Graphics/SVG/1.1/DTD/svg11.dtd">
<svg version="1.1" xmlns="http://www.w3.org/2000/svg" width="350" height="313" viewBox="0 0 350 313">
  <defs>
    <pattern id="pattern-no-results" width="50" height="50" patternUnits="userSpaceOnUse">
      <rect width="50" height="50" fill="#ddd"/>
      <path d="M-5,5L5,-5M-5,55L55,-5M45,55L55,45" stroke-width="10" stroke="#666666"/>
    </pattern>
  </defs>
  <g class="counties" transform="scale(0.1)">
    <path data-fips-int="54001" data-name="Barbour County" d="M1955,1240l56,59 -10,100 -48,123 -124,24 19,-25 0,-54 -49,0 -27,-44 -40,-23 2,-49 40,-60 89,-5Z"/>
    <path data-fips-int="54003" data-name="Berkeley County" d="M3202,946l12,16 116,-3 -31,33 38,60 -13,38 -80,82 -42,81 -133,-106 57,-177 32,7 43,-32Z"/>
    <path data-fips-int="54005" data-name="Boone County" d="M892,2370l-58,15 -18,40 16,83 18,31 -43,24 -20,-22 -50,-37 -31,17 -37,-53 15,-34 -36,-33 -107,-30 28,-38 -26,-21 28,-88 30,-10 38,-40 33,-18 22,28 20,-20 55,3 -5,31 32,9 58,55 -19,29 35,9Z"/>
    <path data-fips-int="54007" data-name="Braxton County" d="M1478,1582l10,38 78,24 20,49 -9,33 -33,72 -100,110 -66,2 -22,-29 -70,44 -18,-49 -80,-91 32,-43 191,-138 65,-22Z"/>
    <path data-fips-int="54009" data-name="Brooke County" d="M1541,288l-2,207 -108,-23 43,-68 14,-47 -20,-66Z"/>
    <path data-fips-int="54011" data-name="Cabell County" d="M386,1838l107,104 3,86 -1,0 -89,33 -60,91 -29,-46 8,-42 -40,13 -98,-87 65,-22 58,-5 26,-117Z"/>
    <path data-fips-int="54015" data-name="Clay County" d="M1286,1925l45,25 -63,55 -220,129 -33,-181 62,-48 76,-73 35,-47 80,91Z"/>
    <path data-fips-int="54017" data-name="Doddridge County" d="M1521,1127l6,64 -48,57 52,80 -48,26 -87,61 -58,-12 -67,-142 19,-18 129,-113 52,-21Z"/>
    <path data-fips-int="54019" data-name="Fayette County" d="M1285,2275l-7,24 60,12 21,69 -26,29 41,71 -40,-2 -94,42 -75,-12 -12,-39 -151,-11 0,-48 -58,-24 38,-184 66,-68 25,25 42,2 45,34 20,-28 38,3 28,59 39,16Z"/>
    <path data-fips-int="54021" data-name="Gilmer County" d="M1396,1415l7,77 73,90 2,0 -2,0 -65,22 -191,138 -24,-34 -21,-30 35,-47 0,-100 -20,-43 20,2 129,-76 -1,-11Z"/>
    <path data-fips-int="54023" data-name="Grant County" d="M2569,1289l-72,174 30,93 -58,101 -146,-123 -5,-6 24,-33 14,-62 -38,-10 31,-109 -106,29 -14,-15 0,-8 32,-10 68,-71 43,-26 99,15Z"/>
    <path data-fips-int="54025" data-name="Greenbrier County" d="M1913,2309l-28,62 -110,103 -91,159 -67,-24 -65,22 -119,-34 -5,-30 -94,-89 40,2 -41,-71 26,-29 -21,-69 -60,-12 7,-24 116,21 188,-162 52,36 -2,98 66,57 70,9 39,-16Z"/>
    <path data-fips-int="54027" data-name="Hampshire County" d="M2906,1041l82,43 7,97 -52,81 -10,54 23,27 -70,69 -36,-35 -40,10 -190,-65 -51,-33 60,-77 26,-6 50,-100 75,-78Z"/>
    <path data-fips-int="54029" data-name="Hancock County" d="M1541,288l-73,3 21,-58 -46,-105 25,-30 73,-17Z"/>
    <path data-fips-int="54031" data-name="Hardy County" d="M2886,1412l-41,51 15,10 -33,48 -14,-15 -40,50 -25,-10 -55,59 -44,94 -85,-74 -42,77 -53,-45 58,-101 -30,-93 72,-174 51,33 190,65 40,-10Z"/>
    <path data-fips-int="54033" data-name="Harrison County" d="M1752,1160l-3,99 25,32 -40,60 -2,49 -48,9 -201,-55 48,-26 -52,-80 48,-57 -6,-64 33,-34 141,30Z"/>
    <path data-fips-int="54035" data-name="Jackson County" d="M821,1470l33,18 -12,33 30,44 -17,14 4,68 -19,126 15,55 -73,49 -43,-62 -52,-48 -13,-46 -75,-128 40,-16 15,-40 43,19 -11,-35 11,-49 -31,-52 45,-14Z"/>
    <path data-fips-int="54037" data-name="Jefferson County" d="M3202,1253l42,-81 80,-82 13,-38 15,49 47,41 -15,45 25,16 -30,53 -37,109Z"/>
    <path data-fips-int="54039" data-name="Kanawha County" d="M855,1828l32,58 190,19 -62,48 33,181 -66,68 -38,184 -49,-7 -3,-9 -22,-70 -35,-9 19,-29 -58,-55 -32,-9 5,-31 -55,-3 -20,20 -22,-28 -33,18 10,-13 4,-79 -67,-9 10,-61 121,-61 -20,-49 4,-47 38,-40 43,62Z"/>
    <path data-fips-int="54041" data-name="Lewis County" d="M1684,1409l-14,128 -18,15 -28,58 -15,90 12,36 -12,3 -10,-4 -22,-9 9,-33 -20,-49 -78,-24 -10,-38 -2,0 -73,-90 -7,-77 87,-61Z"/>
    <path data-fips-int="54043" data-name="Lincoln County" d="M495,2028l1,0 10,82 27,11 53,-48 67,9 -4,79 -10,13 -38,40 -30,10 -28,88 26,21 -78,7 -100,33 -79,25 79,-89 -63,-85 18,-72 60,-91Z"/>
    <path data-fips-int="54045" data-name="Logan County" d="M569,2333l-28,38 107,30 36,33 -15,34 37,53 31,-17 50,37 -91,22 -17,9 42,43 -72,34 -73,-18 -60,15 -53,-34 -18,-58 3,-27 -28,-37 23,-12 -52,-105 100,-33Z"/>
    <path data-fips-int="54047" data-name="McDowell County" d="M654,2781l60,12 63,-21 10,26 100,20 27,12 71,28 -35,76 -38,55 -22,0 -78,57 -80,2 -48,-54 -73,-23 -50,-61 -5,-71 -37,-40 45,-22 49,-31Z"/>
    <path data-fips-int="54049" data-name="Marion County" d="M1621,948l28,20 133,3 118,124 25,13 -58,44 -115,8 -57,-37 -141,-30 17,-30 -20,-52 46,-66Z"/>
    <path data-fips-int="54051" data-name="Marshall County" d="M1537,875l-207,0 -24,-33 27,-32 0,-45 26,-28 -11,-31 35,4 13,-107 143,16Z"/>
    <path data-fips-int="54053" data-name="Mason County" d="M599,1593l75,128 13,46 -124,18 -73,42 3,115 -107,-104 27,-10 -2,-95 -23,-68 42,-27 10,-61 74,-111 70,34 22,46Z"/>
    <path data-fips-int="54055" data-name="Mercer County" d="M1137,2719l159,139 -16,38 21,32 -68,45 -20,-6 -128,32 -42,26 -93,-91 35,-76 4,-31 59,-41 17,-57Z"/>
    <path data-fips-int="54057" data-name="Mineral County" d="M2780,1028l-75,78 -50,100 -26,6 -60,77 -98,-61 -99,-15 94,-80 16,-46 37,-9 56,36 15,-37 97,-110 0,-25 40,17 -27,15Z"/>
    <path data-fips-int="54059" data-name="Mingo County" d="M448,2527l-3,27 18,58 53,34 60,-15 73,18 7,24 -43,73 -49,31 -36,-27 -57,5 -58,-30 -23,-54 -70,-40 -32,-59 17,-19 -62,-43 -8,-38 77,-74 79,-25 52,105 -23,12Z"/>
    <path data-fips-int="54061" data-name="Monongalia County" d="M2041,875l-16,84 -73,122 3,42 -30,-15 -25,-13 -118,-124 -133,-3 -28,-20 -19,-73Z"/>
    <path data-fips-int="54063" data-name="Monroe County" d="M1552,2631l65,-22 67,24 51,55 -73,55 18,49 -119,72 -25,-50 -178,93 -60,-49 50,-96 85,-146 0,-19Z"/>
    <path data-fips-int="54065" data-name="Morgan County" d="M3201,945l1,1 -1,-1 -43,32 -32,-7 -57,177 -81,-63 -82,-43 42,-55 -17,-38 39,10 6,-25 62,16 65,-67 50,14Z"/>
    <path data-fips-int="54067" data-name="Nicholas County" d="M1444,1908l-18,21 33,129 30,9 100,67 -188,162 -116,-21 0,-30 -39,-16 -28,-59 -38,-3 -20,28 -45,-34 -42,-2 -25,-25 220,-129 63,-55 -45,-25 70,-44 22,29Z"/>
    <path data-fips-int="54069" data-name="Ohio County" d="M1539,495l0,124 -143,-16 35,-131Z"/>
    <path data-fips-int="54071" data-name="Pendleton County" d="M2469,1657l53,45 -23,89 -25,3 -53,141 -47,64 -23,7 -110,-38 -42,-81 -74,-34 13,-62 0,-2 63,-74 17,-44 -22,-34 13,-47 49,-5 -7,-27 60,4 12,-28Z"/>
    <path data-fips-int="54073" data-name="Pleasants County" d="M1210,1193l-19,1 -59,30 -65,4 -14,36 -54,-27 -32,-38 80,-41 23,3 25,-41 40,-21 63,-4Z"/>
    <path data-fips-int="54075" data-name="Pocahontas County" d="M2138,1791l0,-2 0,2 -13,62 -10,63 -22,20 3,55 -35,69 -46,41 15,31 -87,72 -30,105 -99,9 -39,16 -70,-9 -66,-57 2,-98 6,-103 15,8 57,-45 88,-74 60,12 111,-81 14,-66 41,-95 30,52 52,-11Z"/>
    <path data-fips-int="54077" data-name="Preston County" d="M2229,1320l0,8 -15,-17 -121,-47 -82,35 -56,-59 0,-117 -3,-42 73,-122 16,-84 192,-2Z"/>
    <path data-fips-int="54079" data-name="Putnam County" d="M739,1815l-38,40 -4,47 20,49 -121,61 -10,61 -53,48 -27,-11 -10,-82 -3,-86 -3,-115 73,-42 124,-18Z"/>
    <path data-fips-int="54081" data-name="Raleigh County" d="M892,2370l3,9 49,7 58,24 0,48 151,11 12,39 75,12 35,39 -20,23 30,57 -44,-30 -86,64 -18,46 -72,10 -17,57 -63,-39 2,-28 -77,-143 -60,-37 -18,-31 -16,-83 18,-40Z"/>
    <path data-fips-int="54083" data-name="Randolph County" d="M2318,1528l5,6 -12,28 -60,-4 7,27 -49,5 -13,47 22,34 -17,44 -63,74 0,2 -23,-24 -52,11 -30,-52 -41,95 -14,66 -111,81 -60,-12 -88,74 41,-122 -65,-144 30,-43 75,-1 19,-82 -7,-42 17,-50 124,-24 48,-123 32,27 0,41 183,51Z"/>
    <path data-fips-int="54085" data-name="Ritchie County" d="M1290,1243l-19,18 67,142 1,11 -129,76 -20,-2 -55,-28 -32,10 -11,-9 -50,2 -4,-49 -46,-51 18,-28 3,0 20,-64 20,-7 14,-36 65,-4 59,-30 19,-1 3,8 30,2 15,-42 35,24Z"/>
    <path data-fips-int="54087" data-name="Roane County" d="M1023,1568l34,55 3,58 35,43 7,80 51,28 -76,73 -190,-19 -32,-58 -15,-55 19,-126 -4,-68 17,-14 38,-21 67,41 46,-17Z"/>
    <path data-fips-int="54089" data-name="Summers County" d="M1433,2597l0,19 -85,146 -50,96 -2,0 -159,-139 18,-46 86,-64 44,30 -30,-57 20,-23 -35,-39 94,-42 94,89Z"/>
    <path data-fips-int="54091" data-name="Taylor County" d="M1955,1123l0,117 -92,46 -89,5 -25,-32 3,-99 115,-8 58,-44Z"/>
    <path data-fips-int="54093" data-name="Tucker County" d="M2229,1328l14,15 106,-29 -31,109 38,10 -14,62 -24,33 -102,-10 -183,-51 0,-41 -32,-27 10,-100 82,-35 121,47Z"/>
    <path data-fips-int="54095" data-name="Tyler County" d="M1471,1109l-52,21 -129,113 3,-58 -35,-24 -15,42 -30,-2 -3,-8 -12,-98 -63,4 18,-31 102,-95 38,22 22,-18 89,110Z"/>
    <path data-fips-int="54097" data-name="Upshur County" d="M1732,1400l40,23 27,44 49,0 0,54 -19,25 -17,50 7,42 -19,82 -75,1 -30,43 -74,-28 -12,-36 15,-90 28,-58 18,-15 14,-128Z"/>
    <path data-fips-int="54099" data-name="Wayne County" d="M187,1990l98,87 40,-13 -8,42 29,46 -18,72 63,85 -79,89 -77,74 -2,-25 -56,-47 20,-18 -48,-98 -59,-60 39,-93 10,-62 -15,-23 0,-67Z"/>
    <path data-fips-int="54101" data-name="Webster County" d="M1599,1735l10,4 12,-3 74,28 65,144 -41,122 -57,45 -15,-8 -6,103 -52,-36 -100,-67 -30,-9 -33,-129 18,-21 100,-110 33,-72Z"/>
    <path data-fips-int="54103" data-name="Wetzel County" d="M1537,875l65,0 19,73 -24,-3 -46,66 20,52 -17,30 -33,34 -50,-18 -67,-22 -89,-110 -22,18 -38,-22 46,-18 29,-80Z"/>
    <path data-fips-int="54105" data-name="Wirt County" d="M1010,1335l-18,28 46,51 4,49 50,-2 11,9 -80,98 -46,17 -67,-41 -38,21 -30,-44 12,-33 -33,-18 106,-93 83,-42 3,0Z"/>
    <path data-fips-int="54107" data-name="Wood County" d="M967,1199l32,38 54,27 -20,7 -20,64 -3,0 -83,42 -106,93 -110,-64 -5,-72 45,-39 5,-37 76,4 12,-66 75,-57Z"/>
    <path data-fips-int="54109" data-name="Wyoming County" d="M1048,2786l-59,41 -4,31 -71,-28 -27,-12 -100,-20 -10,-26 -63,21 -60,-12 -41,-35 43,-73 -7,-24 72,-34 -42,-43 17,-9 91,-22 20,22 43,-24 60,37 77,143 -2,28Z"/>
    <path data-fips-int="54013" data-name="Calhoun County" d="M1190,1488l20,43 0,100 -35,47 21,30 24,34 -32,43 -35,47 -51,-28 -7,-80 -35,-43 -3,-58 -34,-55 80,-98 32,-10Z"/>
  </g>
  <g class="cities">
    <circle r="3" cx="77.8" cy="205.6"/>
    <text x="77.8" y="205.6">Charleston</text>
    <circle r="3" cx="22.7" cy="198.4"/>
    <text x="22.7" y="198.4">Huntington</text>
    <circle r="3" cx="83.8" cy="126.3"/>
    <text x="83.8" y="126.3">Parkersburg</text>
  </g>
</svg>