<?xml version="1.0" encoding="utf-8"?>
<!DOCTYPE svg PUBLIC "-//W3C//DTD SVG 1.1//EN" "http://www.w3.org/Graphics/SVG/1.1/DTD/svg11.dtd">
<svg version="1.1" xmlns="http://www.w3.org/2000/svg" width="1000" height="768" viewBox="0 0 1000 768">
  <path class="state" d="M962,449l5,93v18l4,77 4,102 -117,3 -50,2 -99,3h-116l-23,1h-194l-10,-1 -94,-1 -112,-2 -46,-2 -89,-3 1,-74 3,-31 2,-42 4,-114 5,-107 3,-49 1,-45 3,-78v-24l3,-49 1,-46 1,-61 34,1 12,3h48l18,1 32,-1 22,1 84,2 2,1h59l90,1h230l11,-1 14,-1 105,-2 58,-1 73,-3 3,53 4,93 3,85 1,37 4,73Z"/>
  <g class="subcounties">
    <path data-geo-id="51025" data-name="Albany County, Natrona County" d="M800,487l2,62 3,37v40l3,118 -99,3h-43l-1,-70 35,-1 -2,-93 -2,-47v-47l68,-1 -2,10h-5l3,14h29l5,-25ZM557,298l87,1 48,-1 1,17v60l2,42v72l-53,1h-141l-1,-62h6v-62h-2v-62l-2,-6Z"/>
    <path data-geo-id="51026" data-name="Campbell County, Johnson County" d="M700,298h-8l-48,1 -87,-1 -1,-56h-2v-63h-3v-29l-5,-5 -1,-17 -14,-2 1,-9 -10,-9h82l52,-2 41,-1 -1,-52 -2,-26 14,-1 105,-2v18l3,3 -1,45 2,22v38l2,22 1,94 1,28Z"/>
    <path data-geo-id="51027" data-name="Converse County, Niobrara County" d="M845,293l110,-5 4,73 3,88 -79,3 -31,1 -52,2v32h-6l-5,25h-29l-3,-14h5l2,-10 -68,1h-1v-72l-2,-42v-60l-1,-17h8l121,-4Z"/>
    <path data-geo-id="51028" data-name="Crook County, Weston County" d="M819,172l-2,-22v-38l-2,-22 1,-45 -3,-3v-18l58,-1 73,-3 3,53 4,93 3,85 1,37 -110,5 -24,1 -1,-28Z"/>
    <path data-geo-id="51029" data-name="Fremont County, Park County" d="M176,202l1,-22 -10,-1 2,-12 -4,-15 -7,-4 -4,-13 -7,-8 2,-19 -13,-10 -36,-2 1,-16h-50l1,-61 34,1 12,3h48l18,1 32,-1 22,1 84,2 2,1h59v24h4l-1,63h2v63h3l-1,16h-31l-1,16h-15v15h-24v16l-28,-1 18,22 -1,14h27l20,2v7h16l-1,8h16v5h15v6l39,3v-2h73v-6h9l2,6v62h2v62h-6l1,62h2v31h-101l-1,-1h-101l1,-31h-4l1,-47h-8l1,-9 -7,-2 -19,-21 -5,-14 -24,-14v-12l-13,-15 -3,-9 1,-18 -3,-11 -7,2 1,-18 -39,-1Z"/>
    <path data-geo-id="51030" data-name="Goshen County, Platte County" d="M883,452l79,-3 5,93v18l4,77 -81,3 -1,-17 -30,2 -54,1v-40l-3,-37 -2,-62v-32l52,-2Z"/>
    <path data-geo-id="51031" data-name="Hot Springs County, Washakie County" d="M370,193l1,-16 25,1h148l7,1h3v63h2l1,56h-64v6h-73v2l-39,-3v-6h-15v-5h-16l1,-8h-16v-7l-20,-2h-27l1,-14 -18,-22 28,1v-16h24v-15h15l1,-16Z"/>
    <path data-geo-id="51032" data-name="Laramie County" d="M889,623l1,17 81,-3 4,102 -117,3 -50,2 -3,-118 54,-1Z"/>
    <path data-geo-id="51033" data-name="Big Horn County, Sheridan County" d="M453,28h230l11,-1 2,26 1,52 -41,1 -52,2h-82l10,9 -1,9 14,2 1,17 5,5v29l-7,-1h-148l-25,-1h-3v-63h-2l1,-63h-4v-24Z"/>
    <path data-geo-id="51034" data-name="Carbon County, Sweetwater County" d="M300,520h101l1,1h101v-31h139l53,-1h1v47l2,47 2,93 -35,1 1,70h-73l-23,1h-194l-10,-1 -94,-1 -112,-2 1,-63 2,-42 2,-46v-60l1,-19 29,3Z"/>
    <path data-geo-id="51035" data-name="Sublette County, Teton County" d="M176,202l-3,98 39,1 -1,18 7,-2 3,11 -1,18 3,9 13,15v12l24,14 5,14 19,21 7,2 -1,9h8l-1,47h4l-1,31 -105,-3 -29,-3 -64,-3v-30l-6,-1 2,-47h-5l1,-12h5l2,-63 1,-19 -31,-1v-15l-28,-1 1,-45 3,-78v-24l3,-49 1,-46h50l-1,16 36,2 13,10 -2,19 7,8 4,13 7,4 4,15 -2,12 10,1Z"/>
    <path data-geo-id="51036" data-name="Lincoln County, Uinta County" d="M29,634l2,-42 4,-114 5,-107 3,-49 28,1v15l31,1 -1,19 -2,63h-5l-1,12h5l-2,47 6,1v30l64,3 -1,19v60l-2,46 -2,42 -1,63 -46,-2 -89,-3 1,-74Z"/>
  </g>
  <path class="mesh" d="M666,747l-1,-70 35,-1 -2,-93 -2,-47v-47l68,-1 -2,10h-5l3,14h29l5,-25h6l2,62 3,37v40l3,118M363,27v24h4l-1,63h2v63h3l25,1h148l7,1v-29l-5,-5 -1,-17 -14,-2 1,-9 -10,-9h82l52,-2 41,-1 -1,-52 -2,-26M962,449l-79,3 -31,1 -52,2v32M813,24v18l3,3 -1,45 2,22v38l2,22 1,94 1,28 -121,4h-8l1,17v60l2,42v72M557,298l87,1 48,-1M371,177l-1,16h-31l-1,16h-15v15h-24v16l-28,-1 18,22 -1,14h27l20,2v7h16l-1,8h16v5h15v6l39,3v-2h73v-6h64l-1,-56h-2v-63h-3M971,637l-81,3 -1,-17 -30,2 -54,1M160,744l1,-63 2,-42 2,-46v-60l1,-19 -64,-3v-30l-6,-1 2,-47h-5l1,-12h5l2,-63 1,-19 -31,-1v-15l-28,-1M821,294l24,-1 110,-5M696,489h-1l-53,1h-139v31h-101l-1,-1h-101l1,-31h-4l1,-47h-8l1,-9 -7,-2 -19,-21 -5,-14 -24,-14v-12l-13,-15 -3,-9 1,-18 -3,-11 -7,2 1,-18 -39,-1 3,-98 1,-22 -10,-1 2,-12 -4,-15 -7,-4 -4,-13 -7,-8 2,-19 -13,-10 -36,-2 1,-16h-50M166,514l29,3 105,3M503,490h-2l-1,-62h6v-62h-2v-62l-2,-6"/>
  <g class="cities">
    <circle r="7" cx="870" cy="718"/>
    <text x="870" y="718">Cheyenne</text>
    <circle r="7" cx="661" cy="416"/>
    <text x="661" y="416">Casper</text>
    <circle r="7" cx="765" cy="690"/>
    <text x="765" y="690">Laramie</text>
  </g>
</svg>