<?xml version="1.0" encoding="utf-8"?>
<!DOCTYPE svg PUBLIC "-//W3C//DTD SVG 1.1//EN" "http://www.w3.org/Graphics/SVG/1.1/DTD/svg11.dtd">
<svg version="1.1" xmlns="http://www.w3.org/2000/svg" width="1000" height="768" viewBox="0 0 1000 768">
  <path class="state" d="M962,449l5,93v18l4,77 4,102 -117,3 -50,2 -99,3h-43h-73l-23,1h-120h-74l-10,-1 -94,-1 -112,-2 -46,-2 -89,-3 1,-74 3,-31 2,-42 4,-114 5,-107 3,-49 1,-45 3,-78v-24l3,-49 1,-46 1,-61 34,1 12,3h48l18,1 32,-1 22,1 84,2 2,1h59l90,1h230l11,-1 14,-1 105,-2 58,-1 73,-3 3,53 4,93 3,85 1,37 4,73Z"/>
  <g class="counties">
    <path data-fips-int="56001" data-name="Albany County" d="M800,487l2,62 3,37v40l3,118 -99,3h-43l-1,-70 35,-1 -2,-93 -2,-47v-47l68,-1 -2,10h-5l3,14h29l5,-25Z"/>
    <path data-fips-int="56003" data-name="Big Horn County" d="M453,28l4,2 2,21 7,10 -2,4 8,4 2,11 19,3 10,6 -1,4 19,8 1,7 10,9 -1,9 14,2 1,17 5,5v29l-7,-1h-148l-25,-1h-3v-63h-2l1,-63h-4v-24Z"/>
    <path data-fips-int="56005" data-name="Campbell County" d="M813,24v18l3,3 -1,45 2,22v38l2,22 1,94 1,28 -121,4 -1,-21v-95l-2,-18v-59l-1,-52 -2,-26 14,-1Z"/>
    <path data-fips-int="56007" data-name="Carbon County" d="M695,489h1v47l2,47 2,93 -35,1 1,70h-73l-23,1h-120v-71l-1,-47 56,1 1,-16v-63h-3v-31v-31h139Z"/>
    <path data-fips-int="56009" data-name="Converse County" d="M852,453l-52,2v32h-6l-5,25h-29l-3,-14h5l2,-10 -68,1h-1v-72l-2,-42v-60l-1,-17h8l121,-4 24,-1 4,91v33Z"/>
    <path data-fips-int="56011" data-name="Crook County" d="M951,166l-78,3 -54,3 -2,-22v-38l-2,-22 1,-45 -3,-3v-18l58,-1 73,-3 3,53Z"/>
    <path data-fips-int="56013" data-name="Fremont County" d="M271,239l18,22 -1,14h27l20,2v7h16l-1,8h16v5h15v6l39,3v-2h73v-6h9l2,6v62h2v62h-6l1,62h2v31h-101l-1,-1h-101l1,-31h-4l1,-47h-8l1,-9 -7,-2 -19,-21 -5,-14 -24,-14v-12l-13,-15 -3,-9 1,-18 -3,-11 -7,2 1,-18 -39,-1 3,-98 6,11 18,-1 4,13 -4,11 8,4 16,-6 4,-15 13,-7 10,3Z"/>
    <path data-fips-int="56015" data-name="Goshen County" d="M962,449l5,93v18l4,77 -81,3 -1,-17 -2,-44 -2,-77 -2,-50Z"/>
    <path data-fips-int="56017" data-name="Hot Springs County" d="M370,193h8v16h7v16h16v11h16l2,5h28v14h30v17h16v26v6h-73v2l-39,-3v-6h-15v-5h-16l1,-8h-16v-7l-20,-2h-27l1,-14 -18,-22 28,1v-16h24v-15h15l1,-16Z"/>
    <path data-fips-int="56019" data-name="Johnson County" d="M700,298h-8l-48,1 -87,-1 -1,-56h-2v-63h-3v-29l-5,-5 -1,-17 -14,-2 1,-9 -10,-9h82l52,-2 41,-1v59l2,18v95Z"/>
    <path data-fips-int="56021" data-name="Laramie County" d="M889,623l1,17 81,-3 4,102 -117,3 -50,2 -3,-118 54,-1Z"/>
    <path data-fips-int="56023" data-name="Lincoln County" d="M102,339l-1,19 -2,63h-5l-1,12h5l-2,47 6,1v30l64,3 -1,19v60l-2,46 -114,-3 -20,-2 2,-42 4,-114 5,-107 3,-49 28,1v15Z"/>
    <path data-fips-int="56025" data-name="Natrona County" d="M557,298l87,1 48,-1 1,17v60l2,42v72l-53,1h-139h-2l-1,-62h6v-62h-2v-62l-2,-6Z"/>
    <path data-fips-int="56027" data-name="Niobrara County" d="M962,449l-79,3 -31,1 -3,-36v-33l-4,-91 110,-5 4,73Z"/>
    <path data-fips-int="56029" data-name="Park County" d="M363,27v24h4l-1,63h2v63h3l-1,16h-31l-1,16h-15v15h-24v16l-28,-1 -20,-24 -10,-3 -13,7 -4,15 -16,6 -8,-4 4,-11 -4,-13 -18,1 -6,-11 1,-22 -10,-1 2,-12 -4,-15 -7,-4 -4,-13 -7,-8 2,-19 -13,-10 -36,-2 1,-16h-50l1,-61 34,1 12,3h48l18,1 32,-1 22,1 84,2 2,1Z"/>
    <path data-fips-int="56031" data-name="Platte County" d="M883,452l2,50 2,77 2,44 -30,2 -54,1v-40l-3,-37 -2,-62v-32l52,-2Z"/>
    <path data-fips-int="56033" data-name="Sheridan County" d="M694,27l2,26 1,52 -41,1 -52,2h-82l-1,-7 -19,-8 1,-4 -10,-6 -19,-3 -2,-11 -8,-4 2,-4 -7,-10 -2,-21 -4,-2h230Z"/>
    <path data-fips-int="56035" data-name="Sublette County" d="M300,520l-105,-3 -29,-3 -64,-3v-30l-6,-1 2,-47h-5l1,-12h5l2,-63 1,-19 1,-10 31,1v-15h38l1,-15 39,1 -1,18 7,-2 3,11 -1,18 3,9 13,15v12l24,14 5,14 19,21 7,2 -1,9h8l-1,47h4Z"/>
    <path data-fips-int="56037" data-name="Sweetwater County" d="M300,520h101l1,1h101v31h3v63l-1,16 -56,-1 1,47v71h-74l-10,-1 -94,-1 -112,-2 1,-63 2,-42 2,-46v-60l1,-19 29,3Z"/>
    <path data-fips-int="56039" data-name="Teton County" d="M176,202l-3,98 -1,15h-38v15l-31,-1 -1,10 -31,-1v-15l-28,-1 1,-45 3,-78v-24l3,-49 1,-46h50l-1,16 36,2 13,10 -2,19 7,8 4,13 7,4 4,15 -2,12 10,1Z"/>
    <path data-fips-int="56041" data-name="Uinta County" d="M163,639l-2,42 -1,63 -46,-2 -89,-3 1,-74 3,-31 20,2Z"/>
    <path data-fips-int="56043" data-name="Washakie County" d="M551,179h3v63h2l1,56h-55h-9v-26h-16v-17h-30v-14h-28l-2,-5h-16v-11h-16v-16h-7v-16h-8l1,-16 25,1h148Z"/>
    <path data-fips-int="56045" data-name="Weston County" d="M951,166l3,85 1,37 -110,5 -24,1 -1,-28 -1,-94 54,-3Z"/>
  </g>
  <path class="mesh" d="M666,747l-1,-70 35,-1 -2,-93 -2,-47v-47l68,-1 -2,10h-5l3,14h29l5,-25h6l2,62 3,37v40l3,118M453,28l4,2 2,21 7,10 -2,4 8,4 2,11 19,3 10,6 -1,4 19,8 1,7 10,9 -1,9 14,2 1,17 5,5v29l-7,-1h-148l-25,-1h-3v-63h-2l1,-63h-4v-24M813,24v18l3,3 -1,45 2,22v38l2,22 1,94 1,28 -121,4 -1,-21v-95l-2,-18v-59l-1,-52 -2,-26M450,748v-71l-1,-47 56,1 1,-16v-63h-3v-31v-31h139l53,-1h1M821,294l24,-1 4,91v33l3,36 -52,2v32M695,489v-72l-2,-42v-60l-1,-17h8M951,166l-78,3 -54,3M503,521h-101l-1,-1h-101l1,-31h-4l1,-47h-8l1,-9 -7,-2 -19,-21 -5,-14 -24,-14v-12l-13,-15 -3,-9 1,-18 -3,-11 -7,2 1,-18 -39,-1 3,-98 6,11 18,-1 4,13 -4,11 8,4 16,-6 4,-15 13,-7 10,3 20,24 18,22 -1,14h27l20,2v7h16l-1,8h16v5h15v6l39,3v-2h73v-6h9l2,6v62h2v62h-6l1,62h2M971,637l-81,3 -1,-17 -2,-44 -2,-77 -2,-50 79,-3M271,239l28,1v-16h24v-15h15l1,-16h31h8v16h7v16h16v11h16l2,5h28v14h30v17h16v26M692,298l-48,1 -87,-1 -1,-56h-2v-63h-3M522,108h82l52,-2 41,-1M805,626l54,-1 30,-2M43,322l28,1v15l31,1 -1,19 -2,63h-5l-1,12h5l-2,47 6,1v30l64,3 -1,19v60l-2,46 -114,-3 -20,-2M502,298h55M883,452l-31,1M845,293l110,-5M371,177l-1,16M176,202l1,-22 -10,-1 2,-12 -4,-15 -7,-4 -4,-13 -7,-8 2,-19 -13,-10 -36,-2 1,-16h-50M300,520l-105,-3 -29,-3M102,339l1,-10 31,1v-15h38l1,-15M160,744l1,-63 2,-42"/>
  <g class="cities">
    <circle r="7" cx="870" cy="718"/>
    <text x="870" y="718">Cheyenne</text>
    <circle r="7" cx="661" cy="416"/>
    <text x="661" y="416">Casper</text>
    <circle r="7" cx="765" cy="690"/>
    <text x="765" y="690">Laramie</text>
  </g>
</svg>