<?xml version="1.0" encoding="utf-8"?>
<!DOCTYPE svg PUBLIC "-//W3C//DTD SVG 1.1//EN" "http://www.w3.org/Graphics/SVG/1.1/DTD/svg11.dtd">
<svg version="1.1" xmlns="http://www.w3.org/2000/svg" width="350" height="269" viewBox="0 0 350 269">
  <defs>
    <pattern id="pattern-no-results" width="50" height="50" patternUnits="userSpaceOnUse">
      <rect width="50" height="50" fill="#ddd"/>
      <path d="M-5,5L5,-5M-5,55L55,-5M45,55L55,45" stroke-width="10" stroke="#ffffff"/>
    </pattern>
  </defs>
  <g class="counties" transform="scale(0.1)">
    <path data-fips-int="56001" data-name="Albany County" d="M2803,1706l7,216 2,0 8,175 -2,97 5,229 7,186 -434,9 -62,0 -5,-249 120,-3 -12,-505 -1,-148 241,-3 -9,33 -18,0 9,51 104,2 15,-90Z"/>
    <path data-fips-int="56003" data-name="Big Horn County" d="M1589,101l12,8 10,76 20,34 -9,13 40,24 0,18 33,30 24,-13 45,25 28,33 32,7 6,23 33,36 -1,28 45,9 5,60 20,15 0,99 -291,0 -345,-3 -8,-17 2,-205 -10,0 1,-209 -10,-14 0,-79Z"/>
    <path data-fips-int="56005" data-name="Campbell County" d="M2846,85l12,298 7,222 8,228 5,198 -168,6 -261,7 -3,-206 3,0 -2,-166 -6,-99 0,-203 -5,-185 -7,-86 50,-5 268,-5Z"/>
    <path data-fips-int="56007" data-name="Carbon County" d="M2434,1713l2,0 1,148 12,505 -120,3 5,249 -760,1 2,-249 -5,0 0,-164 198,2 1,-272 -10,0 0,-108 0,-110 489,0Z"/>
    <path data-fips-int="56009" data-name="Converse County" d="M2981,1589l-183,8 5,109 -25,0 -15,90 -104,-2 -9,-51 18,0 9,-33 -241,3 -2,0 -2,-263 -5,-139 0,-128 -5,-139 27,0 261,-7 168,-6 82,-2 8,190 3,235Z"/>
    <path data-fips-int="56011" data-name="Crook County" d="M3329,586l-251,9 -213,10 -7,-222 -12,-298 298,-9 162,-5Z"/>
    <path data-fips-int="56013" data-name="Fremont County" d="M702,764l15,26 -15,23 12,16 17,13 23,-14 35,-11 10,-48 43,-24 35,10 42,41 3,17 27,28 35,32 28,41 -2,51 108,1 0,10 55,0 0,19 53,0 0,28 54,0 0,20 54,0 0,17 55,11 82,0 2,-7 256,0 0,-18 28,0 8,18 0,217 7,0 0,219 -20,0 0,218 8,0 0,110 -276,-2 -431,-6 2,-107 -12,0 2,-165 -28,0 0,-25 -7,-6 -31,-12 -32,-54 -25,-47 -43,-32 -32,-26 -28,-26 0,-32 -23,-23 -22,-50 0,-66 -15,-36 -20,5 3,-61 -136,-5 10,-343 28,39 58,-4Z"/>
    <path data-fips-int="56015" data-name="Goshen County" d="M3370,1572l15,392 12,268 -283,11 -1,-55 -15,-348 -7,-255Z"/>
    <path data-fips-int="56017" data-name="Hot Springs County" d="M1296,679l29,0 0,56 26,3 0,53 53,0 0,36 57,0 3,18 100,1 0,54 108,0 0,55 57,0 0,91 0,18 -256,0 -2,7 -82,0 -55,-11 0,-17 -54,0 0,-20 -54,0 0,-28 -53,0 0,-19 -55,0 0,-10 -108,-1 2,-51 -28,-41 -35,-32 99,0 2,-55 82,1 -2,-55 56,2 2,-56Z"/>
    <path data-fips-int="56019" data-name="Johnson County" d="M2449,1044l-27,0 -236,6 -201,0 -35,-4 -2,-199 -6,0 -2,-221 -8,0 0,-99 -20,-15 -5,-60 -45,-9 1,-28 -33,-36 386,0 50,-5 175,-4 0,203 6,99 2,166 -3,0Z"/>
    <path data-fips-int="56021" data-name="Laramie County" d="M3113,2188l1,55 283,-11 15,354 -409,18 -173,5 -7,-186 -5,-229Z"/>
    <path data-fips-int="56023" data-name="Lincoln County" d="M358,1188l-5,69 -7,218 -19,3 0,41 16,0 -7,164 22,2 -2,107 155,6 72,7 -5,166 3,0 -8,270 -281,-10 -190,-9 15,-379 5,-152 10,-145 17,-417 106,6 -3,49Z"/>
    <path data-fips-int="56025" data-name="Natrona County" d="M1950,1046l35,4 201,0 236,-6 5,139 0,128 5,139 2,263 -185,5 -489,0 -8,0 0,-218 20,0 0,-219 -7,0 0,-217 -8,-18Z"/>
    <path data-fips-int="56027" data-name="Niobrara County" d="M3370,1572l-279,13 -110,4 -10,-135 -3,-235 -8,-190 114,-7 271,-10 9,203Z"/>
    <path data-fips-int="56029" data-name="Park County" d="M1271,99l0,79 10,14 -1,209 10,0 -2,205 8,17 0,56 -108,-1 -2,56 -56,-2 2,55 -82,-1 -2,55 -99,0 -27,-28 -3,-17 -42,-41 -35,-10 -43,24 -10,48 -35,11 -23,14 -17,-13 -12,-16 15,-23 -15,-26 0,-20 -58,4 -28,-39 2,-77 -32,-13 0,-1 3,-29 -13,-60 -23,-10 -10,-44 -29,-32 10,-59 -43,-41 -130,-4 2,-52 -175,-8 10,-210 120,2 35,8 198,6 98,-2 160,6 258,1 13,5Z"/>
    <path data-fips-int="56031" data-name="Platte County" d="M3091,1585l7,255 15,348 -295,6 2,-97 -8,-175 -2,0 -7,-216 -5,-109 183,-8Z"/>
    <path data-fips-int="56033" data-name="Sheridan County" d="M2429,99l7,86 5,185 -175,4 -50,5 -386,0 -6,-23 -32,-7 -28,-33 -45,-25 -24,13 -33,-30 0,-18 -40,-24 9,-13 -20,-34 -10,-76 -12,-8 294,0 65,1 261,0Z"/>
    <path data-fips-int="56035" data-name="Sublette County" d="M796,1265l23,23 0,32 28,26 32,26 43,32 25,47 32,54 31,12 7,6 0,25 28,0 -2,165 12,0 -2,107 -214,-4 -256,-11 -72,-7 -155,-6 2,-107 -22,-2 7,-164 -16,0 0,-41 19,-3 7,-218 5,-69 3,-34 107,3 3,-54 132,3 3,-54 136,5 -3,61 20,-5 15,36 0,66Z"/>
    <path data-fips-int="56037" data-name="Sweetwater County" d="M1053,1820l431,6 276,2 0,108 10,0 -1,272 -198,-2 0,164 5,0 -2,249 -529,-2 -484,-11 12,-365 8,-270 -3,0 5,-166 256,11Z"/>
    <path data-fips-int="56039" data-name="Teton County" d="M576,529l13,60 -3,29 0,1 32,13 -2,77 -10,343 -3,54 -132,-3 -3,54 -107,-3 -3,34 -106,-4 3,-49 -106,-6 13,-317 2,-141 9,-208 5,-184 175,8 -2,52 130,4 43,41 -10,59 29,32 10,44Z"/>
    <path data-fips-int="56041" data-name="Uinta County" d="M573,2241l-12,365 -254,-7 -220,-11 15,-366 190,9Z"/>
    <path data-fips-int="56043" data-name="Washakie County" d="M1932,626l8,0 2,221 6,0 2,199 -193,0 -28,0 0,-91 -57,0 0,-55 -108,0 0,-54 -100,-1 -3,-18 -57,0 0,-36 -53,0 0,-53 -26,-3 0,-56 -29,0 0,-56 345,3Z"/>
    <path data-fips-int="56045" data-name="Weston County" d="M3329,586l16,426 -271,10 -114,7 -82,2 -5,-198 -8,-228 213,-10Z"/>
  </g>
  <g class="cities">
    <circle r="3" cx="304.5" cy="251.4"/>
    <text x="304.5" y="251.4">Cheyenne</text>
    <circle r="3" cx="231.5" cy="145.7"/>
    <text x="231.5" y="145.7">Casper</text>
    <circle r="3" cx="267.7" cy="241.5"/>
    <text x="267.7" y="241.5">Laramie</text>
  </g>
</svg>