<?xml version="1.0" encoding="utf-8"?>
<!DOCTYPE svg PUBLIC "-//W3C//DTD SVG 1.1//EN" "http://www.w3.org/Graphics/SVG/1.1/DTD/svg11.dtd">
<svg version="1.1" xmlns="http://www.w3.org/2000/svg" width="350" height="269" viewBox="0 0 350 269">
  <defs>
    <pattern id="pattern-no-results" width="50" height="50" patternUnits="userSpaceOnUse">
      <rect width="50" height="50" fill="#ddd"/>
      <path d="M-5,5L5,-5M-5,55L55,-5M45,55L55,45" stroke-width="10" stroke="#666666"/>
    </pattern>
  </defs>
  <g class="counties" transform="scale(0.1)">
    <path data-fips-int="56001" data-name="Albany County" d="M2803,1706l3,69 1,65 3,82 3,0 2,51 1,12 3,83 1,72 -3,0 2,54 2,115 2,50 0,38 2,40 4,142 2,29 -186,5 -200,4 -111,1 -2,-64 -2,-185 54,0 66,-2 -4,-101 0,-28 -4,-155 0,-33 -2,-92 -2,-53 0,-44 -1,-74 0,-40 -1,-34 107,-1 100,-2 33,0 0,15 -8,0 0,18 -18,1 1,46 7,4 30,1 4,4 71,-3 -2,-18 9,0 -3,-37 5,0 -1,-17 5,0 4,-17Z"/>
    <path data-fips-int="56003" data-name="Big Horn County" d="M1588,100l14,10 2,15 -2,19 12,12 1,7 -6,18 14,18 0,13 7,9 -7,7 24,17 11,1 5,18 -3,12 21,11 10,1 -2,8 7,8 9,-8 12,0 4,-6 26,14 3,8 12,4 -6,7 3,9 15,-5 7,15 9,6 34,9 6,22 8,11 8,2 4,10 12,12 0,29 10,-1 0,6 16,8 18,-5 1,29 10,-3 4,8 -2,10 5,4 -10,7 -2,6 7,8 13,8 -1,99 -45,-1 -90,0 -36,1 -84,0 -47,-1 -169,-1 -53,-1 -53,0 -57,-1 -11,0 4,-222 -9,0 0,-61 2,-38 0,-60 1,-62 -12,0 0,-81 0,-1 95,2 183,0Z"/>
    <path data-fips-int="56005" data-name="Campbell County" d="M2846,85l2,76 7,0 0,59 -4,0 5,163 2,11 2,117 2,56 3,38 4,113 0,52 2,54 2,9 0,41 2,58 1,67 2,32 -387,12 -41,1 -1,-54 -2,-54 -1,-98 4,0 -3,-112 0,-39 -3,-69 -2,0 -2,-129 0,-80 2,-12 -1,-27 -2,-81 -2,-9 -1,-95 -4,-7 -3,-78 43,-2 7,-4 105,-1 67,-3 83,-1Z"/>
    <path data-fips-int="56007" data-name="Carbon County" d="M2435,1713l1,0 1,34 0,40 1,74 0,44 2,53 2,92 0,33 4,155 0,28 4,101 -66,2 -54,0 2,185 2,64 -26,-1 -49,0 -160,2 -138,0 -8,1 -131,0 -25,0 -223,0 2,-249 -6,0 0,-121 1,-44 85,1 112,1 0,-53 2,0 0,-109 1,-8 0,-102 -9,0 0,-109 0,-109 64,0 316,0 38,0 73,-1 60,-2 90,-1Z"/>
    <path data-fips-int="56009" data-name="Converse County" d="M2981,1589l-29,1 -67,2 -26,2 -60,2 4,83 0,27 -23,1 -4,17 -5,0 1,17 -5,0 3,37 -9,0 2,18 -71,3 -4,-4 -30,-1 -7,-4 -1,-46 18,-1 0,-18 8,0 0,-15 -33,0 -100,2 -107,1 -1,0 -1,-53 -1,-12 -1,-127 -2,-25 2,0 0,-57 -4,-144 0,-67 -2,-74 -2,-96 -2,-13 28,-1 41,-1 387,-12 82,-3 4,82 0,43 4,98 3,108 3,63 0,35 3,22 4,92Z"/>
    <path data-fips-int="56011" data-name="Crook County" d="M3328,585l-86,4 -59,1 -141,6 -177,9 -3,-38 -2,-56 -2,-117 -2,-11 -5,-163 4,0 0,-59 -7,0 -2,-76 88,-3 101,-2 107,-3 163,-6 3,52 1,30 5,91 6,158Z"/>
    <path data-fips-int="56013" data-name="Fremont County" d="M705,764 2,12 -5,4 11,4 8,9 -8,6 8,6 -15,5 -4,16 30,17 11,-11 20,-10 6,1 20,-7 -3,-14 9,-10 0,-13 6,-10 12,-3 6,-13 6,6 10,-9 12,-5 4,8 12,7 7,-6 8,3 0,8 13,1 3,11 10,2 6,15 11,7 3,21 14,1 6,4 4,13 2,6 16,6 5,14 15,10 14,30 11,8 -1,50 109,3 0,9 54,0 -1,19 55,1 -1,27 55,1 0,18 54,1 0,18 54,0 0,9 83,1 0,-6 129,0 18,0 110,0 0,-19 27,0 0,18 8,0 1,38 0,126 -1,53 7,0 1,55 0,163 -20,0 0,99 1,11 0,109 9,0 0,109 -99,0 -7,0 -114,0 -86,-1 -29,-1 -159,-1 -84,-1 -52,-2 -79,-1 2,-107 -12,0 0,-68 2,-96 -29,-2 2,-25 -14,-9 -8,-2 -7,-11 -7,-1 -4,7 -8,-7 4,-12 -19,-23 -4,-13 -17,-7 -6,-12 0,-13 -7,-16 -11,-16 -14,3 -4,-10 -11,-8 -9,-1 -2,-11 -15,-6 -5,-9 -23,-2 2,-16 -7,-8 6,-5 -8,-26 -11,-12 -12,-5 -3,-24 -7,1 -4,-8 -2,-17 -7,-8 3,-9 -3,-13 -7,-10 6,-6 -2,-5 6,-18 -10,-9 -3,-9 4,-17 -7,-5 -21,4 1,-61 -57,-3 -78,-2 4,-130 2,-70 0,-48 4,-94 9,4 5,22 8,0 5,12 14,-10 17,13 13,0 16,-7 0,10 -7,9Z"/>
    <path data-fips-int="56015" data-name="Goshen County" d="M3370,1572l11,279 6,113 1,47 9,221 -100,5 -46,1 -53,2 -83,3 -2,-56 -4,-106 -4,-112 0,-24 -6,-113 -2,-80 -1,-20 -5,-147 20,0 75,-3 16,-2 80,-4Z"/>
    <path data-fips-int="56017" data-name="Hot Springs County" d="M1297,679l27,0 -1,56 29,0 -1,56 54,0 0,36 55,0 -5,13 11,5 99,1 -1,53 12,1 98,0 0,55 55,0 0,13 0,78 0,19 -110,0 -18,0 -129,0 0,6 -83,-1 0,-9 -54,0 0,-18 -54,-1 0,-18 -55,-1 1,-27 -55,-1 1,-19 -54,0 0,-9 -109,-3 1,-50 -11,-8 -14,-30 -15,-10 -5,-14 -16,-6 -2,-6 19,0 82,1 0,-55 82,1 0,-54 55,0 1,-55Z"/>
    <path data-fips-int="56019" data-name="Johnson County" d="M2450,1044l-28,1 -103,2 -78,1 -52,2 -104,0 -4,1 -103,0 -28,0 0,-5 -1,-35 -1,-70 0,-86 -7,-8 -1,-112 0,-108 -9,0 1,-99 -13,-8 -7,-8 2,-6 10,-7 -5,-4 2,-10 -4,-8 -10,3 -1,-29 -18,5 -16,-8 0,-6 -10,1 0,-29 -12,-12 -4,-10 -8,-2 -8,-11 29,0 114,0 8,0 159,0 113,-1 0,-4 112,-1 4,-2 72,-1 1,27 -2,12 0,80 2,129 2,0 3,69 0,39 3,112 -4,0 1,98 2,54Z"/>
    <path data-fips-int="56021" data-name="Laramie County" d="M3113,2187l2,56 83,-3 53,-2 46,-1 100,-5 10,231 5,123 -190,9 -150,5 -2,1 -227,7 -12,0 -2,-29 -4,-142 -2,-40 0,-38 -2,-50 -2,-115 76,-2 150,-2Z"/>
    <path data-fips-int="56023" data-name="Lincoln County" d="M360,1189l-2,68 -4,0 -4,66 -1,57 -3,96 -17,-1 -1,44 15,0 -5,100 -1,65 22,0 -3,47 -1,61 55,1 2,2 50,3 50,0 -1,4 72,2 -2,70 -3,77 0,19 3,0 -3,103 -1,63 -4,105 -96,-3 -137,-6 -145,-5 -92,-4 6,-165 4,-101 1,-31 4,-100 9,-191 1,-22 7,-146 8,-197 6,-140 105,4 -3,51Z"/>
    <path data-fips-int="56025" data-name="Natrona County" d="M1950,1046l0,5 28,0 103,0 4,-1 104,0 52,-2 78,-1 103,-2 2,13 2,96 2,74 0,67 4,144 0,57 -2,0 2,25 1,127 1,12 1,53 -32,1 -90,1 -60,2 -73,1 -38,0 -316,0 -64,0 -9,0 0,-109 -1,-11 0,-99 20,0 0,-163 -1,-55 -7,0 1,-53 0,-126 -1,-38 -8,0 0,-18 36,0 103,0Z"/>
    <path data-fips-int="56027" data-name="Niobrara County" d="M3370,1572l-88,4 -80,4 -16,2 -75,3 -20,0 -101,3 -9,1 0,-18 -4,-92 -3,-22 0,-35 -3,-63 -3,-108 -4,-98 0,-43 -4,-82 95,-5 74,-2 24,-2 75,-2 117,-6 4,82 1,26 7,163Z"/>
    <path data-fips-int="56029" data-name="Park County" d="M1272,98l0,1 0,81 12,0 -1,62 0,60 -2,38 0,61 9,0 -4,222 11,0 0,56 -110,-1 -1,55 -55,0 0,54 -82,-1 0,55 -82,-1 -19,0 -4,-13 -6,-4 -14,-1 -3,-21 -11,-7 -6,-15 -10,-2 -3,-11 -13,-1 0,-8 -8,-3 -7,6 -12,-7 -4,-8 -12,5 -10,9 -6,-6 -6,13 -12,3 -6,10 0,13 -9,10 3,14 -20,7 -6,-1 -20,10 -11,11 -30,-17 4,-16 15,-5 -8,-6 8,-6 -8,-9 -11,-4 5,-4 -2,-12 -9,-1 7,-9 0,-10 -16,7 -13,0 -17,-13 -14,10 -5,-12 -8,0 -5,-22 -9,-4 2,-78 -30,-2 -3,-7 2,-19 7,-7 -7,-12 -6,-20 3,-8 -7,-13 4,-3 -5,-12 -9,-7 -13,-2 -1,-8 2,-5 -10,-6 -2,-25 -10,-9 -1,-10 -14,-9 -4,-8 4,-12 -1,-13 8,-29 -10,-8 4,-7 -9,-9 -9,3 -13,-2 -11,-9 4,-11 -55,-1 -76,-3 2,-53 -93,-3 -80,-4 5,-138 3,-72 70,2 51,1 36,8 19,1 115,3 17,-4 40,4 35,1 40,-3 137,5 101,3 63,0 81,0 65,2 10,4 100,2Z"/>
    <path data-fips-int="56031" data-name="Platte County" d="M3091,1585l5,147 1,20 2,80 6,113 0,24 4,112 4,106 -68,3 -150,2 -76,2 -2,-54 3,0 -1,-72 -3,-83 -1,-12 -2,-51 -3,0 -3,-82 -1,-65 -3,-69 0,-27 -4,-83 60,-2 26,-2 67,-2 29,-1 9,-1Z"/>
    <path data-fips-int="56033" data-name="Sheridan County" d="M2429,100l3,78 4,7 1,95 2,9 2,81 -72,1 -4,2 -112,1 0,4 -113,1 -159,0 -8,0 -114,0 -29,0 -6,-22 -34,-9 -9,-6 -7,-15 -15,5 -3,-9 6,-7 -12,-4 -3,-8 -26,-14 -4,6 -12,0 -9,8 -7,-8 2,-8 -10,-1 -21,-11 3,-12 -5,-18 -11,-1 -24,-17 7,-7 -7,-9 0,-13 -14,-18 6,-18 -1,-7 -12,-12 2,-19 -2,-15 -14,-10 30,1 153,0 97,-1 67,1 19,2 134,0 101,0 70,-1 93,-1Z"/>
    <path data-fips-int="56035" data-name="Sublette County" d="M1053,1820l-86,-2 -95,-2 -30,0 -51,-3 -44,-1 -164,-8 -72,-2 1,-4 -50,0 -50,-3 -2,-2 -55,-1 1,-61 3,-47 -22,0 1,-65 5,-100 -15,0 1,-44 17,1 3,-96 1,-57 4,-66 4,0 2,-68 2,-36 107,4 2,-54 33,0 98,4 1,-54 3,-1 78,2 57,3 -1,61 21,-4 7,5 -4,17 3,9 10,9 -6,18 2,5 -6,6 7,10 3,13 -3,9 7,8 2,17 4,8 7,-1 3,24 12,5 11,12 8,26 -6,5 7,8 -2,16 23,2 5,9 15,6 2,11 9,1 11,8 4,10 14,-3 11,16 7,16 0,13 6,12 17,7 4,13 19,23 -4,12 8,7 4,-7 7,1 7,11 8,2 14,9 -2,25 29,2 -2,96 0,68 12,0Z"/>
    <path data-fips-int="56037" data-name="Sweetwater County" d="M1053,1820l79,1 52,2 84,1 159,1 29,1 86,1 114,0 7,0 99,0 0,109 9,0 0,102 -1,8 0,109 -2,0 0,53 -112,-1 -85,-1 -1,44 0,121 6,0 -2,249 -253,-1 -156,-1 -129,-3 -297,-5 -176,-4 -2,0 4,-100 0,-46 4,-110 2,-82 2,-27 4,-105 1,-63 3,-103 -3,0 0,-19 3,-77 2,-70 164,8 44,1 51,3 30,0 95,2Z"/>
    <path data-fips-int="56039" data-name="Teton County" d="M553,512 1,8 13,2 9,7 5,12 -4,3 7,13 -3,8 6,20 7,12 -7,7 -2,19 3,7 30,2 -2,78 -4,94 0,48 -2,70 -4,130 -3,1 -1,54 -98,-4 -33,0 -2,54 -107,-4 -2,36 -109,-4 3,-51 -105,-4 1,-49 4,-107 7,-163 2,-53 6,-197 8,-167 0,-57 2,-58 80,4 93,3 -2,53 76,3 55,1 -4,11 11,9 13,2 9,-3 9,9 -4,7 10,8 -8,29 1,13 -4,12 4,8 14,9 1,10 10,9 2,25 10,6Z"/>
    <path data-fips-int="56041" data-name="Uinta County" d="M573,2241l-2,27 -2,82 -4,110 0,46 -4,100 -66,-1 -82,-2 -326,-15 4,-103 3,-57 9,-205 92,4 145,5 137,6Z"/>
    <path data-fips-int="56043" data-name="Washakie County" d="M1931,627l9,0 0,108 1,112 7,8 0,86 1,70 1,35 -55,0 -103,0 -36,0 -27,0 0,-78 0,-13 -55,0 0,-55 -98,0 -12,-1 1,-53 -99,-1 -11,-5 5,-13 -55,0 0,-36 -54,0 1,-56 -29,0 1,-56 -27,0 0,-56 57,1 53,0 53,1 169,1 47,1 84,0 36,-1 90,0Z"/>
    <path data-fips-int="56045" data-name="Weston County" d="M3328,585l3,63 4,115 2,36 3,90 5,122 -117,6 -75,2 -24,2 -74,2 -95,5 -82,3 -2,-32 -1,-67 -2,-58 0,-41 -2,-9 -2,-54 0,-52 -4,-113 177,-9 141,-6 59,-1Z"/>
  </g>
  <g class="cities">
    <circle r="3" cx="304.5" cy="251.3"/>
    <text x="304.5" y="251.3">Cheyenne</text>
    <circle r="3" cx="231.4" cy="145.7"/>
    <text x="231.4" y="145.7">Casper</text>
    <circle r="3" cx="267.7" cy="241.6"/>
    <text x="267.7" y="241.6">Laramie</text>
  </g>
</svg>