<?xml version="1.0" encoding="utf-8"?>
<!DOCTYPE svg PUBLIC "-//W3C//DTD SVG 1.1//EN" "http://www.w3.org/Graphics/SVG/1.1/DTD/svg11.dtd">
<svg version="1.1" xmlns="http://www.w3.org/2000/svg" width="350" height="269" viewBox="0 0 350 269">
  <defs>
    <pattern id="pattern-no-results" width="50" height="50" patternUnits="userSpaceOnUse">
      <rect width="50" height="50" fill="#ddd"/>
      <path d="M-5,5L5,-5M-5,55L55,-5M45,55L55,45" stroke-width="10" stroke="#666666"/>
    </pattern>
  </defs>
  <g class="counties" transform="scale(0.1)">
    <path data-fips-int="56001" data-name="Albany County" d="M2803,1706l17,391 -2,97 12,415 -496,9 -5,-249 120,-3 -13,-653 241,-3 -27,33 9,51 104,2 15,-90Z"/>
    <path data-fips-int="56003" data-name="Big Horn County" d="M1589,101l12,8 21,123 40,24 33,48 24,-13 45,25 66,63 32,64 45,9 5,60 20,15 0,99 -291,0 -345,-3 -8,-17 2,-205 -10,0 1,-209 -10,-93Z"/>
    <path data-fips-int="56005" data-name="Campbell County" d="M2846,85l19,520 13,426 -429,13 -2,-372 -6,-99 0,-203 -12,-271 50,-5Z"/>
    <path data-fips-int="56007" data-name="Carbon County" d="M2434,1713l2,0 13,653 -120,3 5,249 -760,1 2,-249 -5,-164 198,2 1,-272 -10,-108 0,-110 489,0Z"/>
    <path data-fips-int="56009" data-name="Converse County" d="M2981,1589l-183,8 5,109 -25,0 -15,90 -104,-2 -9,-51 27,-33 -241,3 -2,0 -2,-263 -10,-406 27,0 429,-13 82,-2 8,190 3,235Z"/>
    <path data-fips-int="56011" data-name="Crook County" d="M3329,586l-464,19 -19,-520 460,-14Z"/>
    <path data-fips-int="56013" data-name="Fremont County" d="M702,764l15,26 -3,39 40,-1 35,-11 10,-48 43,-24 35,10 45,58 27,28 63,73 -2,51 108,1 55,10 0,19 53,0 0,28 54,0 0,20 109,28 84,-7 256,0 0,-18 28,0 8,18 0,217 7,0 0,219 -20,0 0,218 8,0 0,110 -276,-2 -431,-6 2,-107 -12,0 2,-165 -28,-25 -7,-6 -31,-12 -32,-54 -25,-47 -43,-32 -32,-26 -28,-26 -23,-55 -22,-50 0,-66 -35,-31 3,-61 -136,-5 10,-343 28,39 58,-4Z"/>
    <path data-fips-int="56015" data-name="Goshen County" d="M3370,1572l27,660 -283,11 -1,-55 -22,-603Z"/>
    <path data-fips-int="56017" data-name="Hot Springs County" d="M1296,679l29,0 0,56 26,3 0,53 53,0 0,36 57,0 3,18 100,1 0,54 108,0 0,55 57,0 0,91 0,18 -256,0 -84,7 -109,-28 0,-20 -54,0 0,-28 -53,0 0,-19 -55,-10 -108,-1 2,-51 -63,-73 99,0 2,-55 82,1 -2,-55 56,2 2,-56Z"/>
    <path data-fips-int="56019" data-name="Johnson County" d="M2449,1044l-27,0 -236,6 -236,-4 -2,-199 -6,0 -2,-221 -8,0 0,-99 -20,-15 -5,-60 -45,-9 -32,-64 386,0 225,-9 0,203 6,99Z"/>
    <path data-fips-int="56021" data-name="Laramie County" d="M3113,2188l1,55 283,-11 15,354 -409,18 -173,5 -12,-415Z"/>
    <path data-fips-int="56023" data-name="Lincoln County" d="M358,1188l-5,69 -17,426 22,2 -2,107 227,13 -10,436 -471,-19 30,-676 17,-417 106,6 -3,49Z"/>
    <path data-fips-int="56025" data-name="Natrona County" d="M1950,1046l236,4 236,-6 10,406 2,263 -185,5 -489,0 -8,0 0,-218 20,0 0,-219 -7,0 0,-217 -8,-18Z"/>
    <path data-fips-int="56027" data-name="Niobrara County" d="M3370,1572l-279,13 -110,4 -10,-135 -3,-235 -8,-190 385,-17Z"/>
    <path data-fips-int="56029" data-name="Park County" d="M1271,99l10,93 -1,209 10,0 -2,205 8,17 0,56 -108,-1 -2,56 -56,-2 2,55 -82,-1 -2,55 -99,0 -27,-28 -45,-58 -35,-10 -43,24 -10,48 -35,11 -40,1 3,-39 -15,-26 0,-20 -58,4 -28,-39 2,-77 -32,-13 0,-1 0,1 0,-1 -10,-89 -62,-86 10,-59 -43,-41 -130,-4 2,-52 -175,-8 10,-210 155,10 198,6 98,-2 160,6 258,1Z"/>
    <path data-fips-int="56031" data-name="Platte County" d="M3091,1585l22,603 -295,6 2,-97 -17,-391 -5,-109 183,-8Z"/>
    <path data-fips-int="56033" data-name="Sheridan County" d="M2429,99l12,271 -225,9 -386,0 -66,-63 -45,-25 -24,13 -33,-48 -40,-24 -21,-123 -12,-8 620,1Z"/>
    <path data-fips-int="56035" data-name="Sublette County" d="M796,1265l23,55 28,26 32,26 43,32 25,47 32,54 31,12 7,6 28,25 -2,165 12,0 -2,107 -214,-4 -256,-11 -227,-13 2,-107 -22,-2 17,-426 5,-69 3,-34 107,3 3,-54 132,3 3,-54 136,5 -3,61 35,31 0,66Z"/>
    <path data-fips-int="56037" data-name="Sweetwater County" d="M1053,1820l431,6 276,2 10,108 -1,272 -198,-2 5,164 -2,249 -529,-2 -484,-11 12,-365 10,-436 256,11Z"/>
    <path data-fips-int="56039" data-name="Teton County" d="M576,529l10,89 0,1 0,-1 0,1 32,13 -2,77 -10,343 -3,54 -132,-3 -3,54 -107,-3 -3,34 -106,-4 3,-49 -106,-6 24,-666 5,-184 175,8 -2,52 130,4 43,41 -10,59Z"/>
    <path data-fips-int="56041" data-name="Uinta County" d="M573,2241l-12,365 -474,-18 15,-366Z"/>
    <path data-fips-int="56043" data-name="Washakie County" d="M1932,626l8,0 2,221 6,0 2,199 -193,0 -28,0 0,-91 -57,0 0,-55 -108,0 0,-54 -100,-1 -3,-18 -57,0 0,-36 -53,0 0,-53 -26,-3 0,-56 -29,0 0,-56 345,3Z"/>
    <path data-fips-int="56045" data-name="Weston County" d="M3329,586l16,426 -385,17 -82,2 -13,-426Z"/>
  </g>
  <g class="cities">
    <circle r="3" cx="304.5" cy="251.4"/>
    <text x="304.5" y="251.4">Cheyenne</text>
    <circle r="3" cx="231.5" cy="145.7"/>
    <text x="231.5" y="145.7">Casper</text>
    <circle r="3" cx="267.7" cy="241.5"/>
    <text x="267.7" y="241.5">Laramie</text>
  </g>
</svg>