<?xml version="1.0" encoding="utf-8"?>
<!DOCTYPE svg PUBLIC "-//W3C//DTD SVG 1.1//EN" "http://www.w3.org/Graphics/SVG/1.1/DTD/svg11.dtd">
<svg version="1.1" xmlns="http://www.w3.org/2000/svg" width="350" height="199" viewBox="0 0 350 199">
  <path class="state" transform="scale(0.1)" d="M1942,1520l-50,85 -51,57h-83l-17,38 34,-9v38l-51,9 -50,-19 -50,29 -33,9h-117l-34,19v-57h51l100,-47 16,-48 101,-9v-28l83,-48 34,-132 -67,-67 -134,29v-133l-50,-9 -50,9v-38l-50,-38 17,-66 -51,-19v-66l51,-67 33,-19 17,-56 50,28 33,-28v-29l50,19 34,-76 -50,-28 -51,19 -16,-29 -34,10 -83,-10 -34,-94 -33,-19 17,-29 117,-66h66l17,-38 -33,-19 16,-19 -33,-47 -50,-28v-95l67,9 33,-38v-47l134,-76 17,-38h66l17,-38 34,-9 66,47h67l17,38 50,-19h100l84,29 33,-29h50l67,29 34,94v67l33,57v56l33,67v57l17,56v67l84,180v57l33,66 17,95h50l17,-29 133,85 50,-9v-57l34,-28 33,38 117,66 100,66 51,57 117,9v38l33,19v76l-134,76h-50v-38l-83,-66 -117,-67v-19l-67,-75 -50,-10 -50,-47 -101,-10 -16,-19 -134,-9 -100,57v-38l-67,-10 -67,38v29h-83l-17,47 -100,57 -84,9v38l-33,19 -17,57h-34l-16,38 -50,28ZM87,1558l33,-9 34,47h-50ZM1156,1899v-19l67,-28v-19h84v-38l133,-10 -16,29 -50,-10v29l-84,28h-67v29ZM638,1861h84l33,29 117,-10v29h-150l-84,9 -33,-19 -17,-47ZM1357,1160l83,-19v67v19l-66,-29ZM1206,800l84,-9 17,28 50,19v29l-67,9 -17,-47h-50ZM2008,1482l84,-75 33,-86 51,38 -17,48v66l-84,57v38Z"/>
<text x="175" y="99">AK</text>
</svg>