<?xml version="1.0" encoding="utf-8"?>
<!DOCTYPE svg PUBLIC "-//W3C//DTD SVG 1.1//EN" "http://www.w3.org/Graphics/SVG/1.1/DTD/svg11.dtd">
<svg version="1.1" xmlns="http://www.w3.org/2000/svg" width="350" height="198" viewBox="0 0 350 198">
  <path class="state" transform="scale(0.1)" d="M1340,1813l-33,38h-17l17,-57 33,19M2142,1361l17,19 -67,28v-18l50,-19v-10M2092,1484l-17,56 -50,-38v-47l50,-18 -16,-19h66l17,19 17,28 -67,19M3095,1230l-34,-29 17,-37 50,47 -17,47 -16,-28M3145,1267l33,-19v29l-17,28 -16,-38M3178,1333l84,9v38l16,19 34,19v-10l16,38 -66,-38 -84,-75M2075,138l67,-10 50,10h101l16,-10 17,-9 50,19h33l34,47 50,179 33,178h17v123l67,122v57l50,122 17,94 33,10 50,-38 34,38 83,65 50,-28 17,-75 50,9 50,57h34l33,37 67,38 33,47 51,38 117,9v38l33,19v56l-33,28 -17,-75 -84,-28v47l-16,-66 -34,-19v-9v9l-50,-37h-33v-57l-101,-19 -16,-47 -34,-9 34,75 -34,-9v-10l-33,47 -50,-9 -50,-47 -67,-10 -34,-9v-9l-167,-10 -67,19 -33,-28v-10l-17,10 -33,-19 -50,9v-37l-50,28v9l-17,-37 -33,56 33,-9v75l-67,19 -17,47 -33,28 -50,10v-104l33,-85h67l-67,-28 -50,38 -17,75 -33,66h-33v56l16,10 -33,75 -34,28 -16,38 -50,9 -17,66 -67,57h-33l-34,56 -67,10 -16,28 -84,9 -50,47 -33,-28 50,-19 33,-56 84,-10 33,-65 67,-10 17,-56 33,-10v-75v-66v19l-50,-10 17,-37 -34,28h-16l33,28 -33,10 -17,-47 -84,9v-9l-50,18 34,-37h-34v-85v-47l-50,57 -50,-10 -17,-66 50,-28 -66,-19v-37l-51,-10v-9l51,-104 66,-19v19v-38h17v-9v-9l33,9 17,-47 84,-9v-132l-84,47 -33,-19 -117,-9v-85l-50,-9 -17,-29 33,-9 84,-47 67,-10v47h83l67,-56h-67v-38l-67,-9v-47l-50,-57 -33,-9v-75h83l17,-29 34,-75 16,-19 50,-18h34v-38l33,-10h50l17,-56 84,56 50,-18h16l17,28 50,9v10M1507,1710l17,47 -33,-10 -51,19v-47l67,-9"/>
<text x="175" y="99">AK</text>
</svg>