<?xml version="1.0" encoding="utf-8"?>
<!DOCTYPE svg PUBLIC "-//W3C//DTD SVG 1.1//EN" "http://www.w3.org/Graphics/SVG/1.1/DTD/svg11.dtd">
<svg version="1.1" xmlns="http://www.w3.org/2000/svg" width="350" height="198" viewBox="0 0 350 198">
  <path class="state" transform="scale(0.1)" d="M2259,1032l-67,28 -50,38 -17,75 -66,66v56l16,47 -33,38 -34,28 -16,38 -50,9 -17,66 -84,29 -16,65 -67,19 -100,47 -34,-19v38l-83,28v-28l50,-19 33,-56 84,9v-47l33,-37 67,-10 17,-56 33,-10v-75v-66v19l-50,-10 17,-37 -34,28h-16l33,28 -33,10 -17,-47 -84,9v-9l-50,18 34,-37h-34v-85v-28l-50,38 -50,-10 -17,-56v-10h17v-9h-17l67,-28 -83,-10v-37l-51,-10v-9l51,-104 66,-19v19v-38h17v-9v-9l33,9 17,-47 34,9 50,-18v-132l-84,47 -33,-19 -117,-9v-85l-50,-9v-38h16v-10l84,-37 33,-19 34,38v18l83,10v-10l34,-9v9v-9v-38l33,10v-19l-33,9 -34,-9v-38l-50,-9h-17v-47l-33,-28 -67,-57 17,-56h83l17,-47 34,-38 16,-38 50,-18h34v-38l33,-10h50l17,-56 84,56 50,-18h16l17,28 50,9v10h17v-10h50l50,10h101l16,-10 17,-9 50,19h33l34,47 17,47 16,132h17l17,122 33,56v123l67,122v57l50,122 17,94 33,10 50,-38v38l50,9 67,56 50,-28 17,-75 50,9 50,57 67,19 67,56 50,66 34,19 117,9v38l33,19 -17,75 -16,9 -17,-56v-10l-50,-37 -34,47 -16,-66 -34,-19v-9v9l-50,-37h-33v-48l-84,-28 -33,-28v-19h-17l17,66 -34,-9v-10l-16,-37v47l-17,37 -50,-9 -50,-47 -67,-10 -34,-9v-9l-167,-10 -67,19 -33,-28v-10h-17v10l-33,9 -17,-28 -17,9 -16,-37 -50,28v9l-17,-37 -33,56 33,-9v75l-67,19 -33,38 -17,37 -50,10v-104h17l16,-85h67l-33,-18ZM1507,1710l17,47 -33,-10 -51,19v-47ZM1173,1898l17,-38 67,-9ZM1440,1154v57h-33l-33,-47ZM2142,1361l17,19 -34,28 -33,-9 33,-28v-10v10h17v-10ZM2125,1418l17,19 17,28 -67,19 -17,56 -33,-9 -17,-76 34,-9 16,9 -16,-18 16,-10 17,10v-10ZM3362,1361l-50,10 -34,-29 34,-37 33,9ZM3095,1182l33,29 -17,47 -16,-28 -34,-29ZM3095,1314l-17,-9v9l-17,-28v-9v-10l-17,10 34,-29ZM2994,1239l-16,-19 16,-28 17,9v10l17,-29 33,19 -33,19 50,19 -84,9v-9ZM1240,787l17,10 100,56 -50,9 -34,-47h-50ZM3228,1333l34,28v19h16v19l34,9v10v-10l16,10 -16,28v-9l-34,-10 -16,-19h-34l34,-9 -34,-19 -17,-28 -33,-19Z"/>
<text x="175" y="99">AK</text>
</svg>