<?xml version="1.0" encoding="utf-8"?>
<!DOCTYPE svg PUBLIC "-//W3C//DTD SVG 1.1//EN" "http://www.w3.org/Graphics/SVG/1.1/DTD/svg11.dtd">
<svg version="1.1" xmlns="http://www.w3.org/2000/svg" width="1000" height="564" viewBox="0 0 1000 564">
  <path class="state" d="M450,482l9,-14 27,-4 11,-18 19,-6 15,-23 9,-39 -18,8 -13,-6 4,8 -30,-10 -10,-7 -9,-32 -28,9 -3,-20 10,-11 -18,-3 -9,-13v-1l4,-20 24,-22 28,-14 17,-8 -2,-35 -20,11 -30,1 -18,-9 3,-18 -19,-11 46,-24 6,15 1,1 21,2 10,-2 1,-3 9,-8 -18,-6 3,-11 -24,-3 -3,-15 -25,-24 6,-15 21,1 24,-34 22,-4 -1,-9 21,-6 11,-14 20,13 23,5 16,2 1,1 -1,1v2l18,-5 16,4 34,-3 2,-2 30,7 72,262 27,-1 29,16 16,-2 8,-24 34,21 52,45 35,4 8,32 -15,-11 -10,-15 -13,16v-15l-12,-10h-1v1l-22,-6 -9,-17 -28,-16 -2,-4 4,17 -13,-3v-1l-1,-2 -7,12 -50,-19 -6,-3 -45,-4 -17,8 -16,-9 -29,-10 -14,6 -7,28 -25,14 -22,12 6,-39 12,-15 -17,2 -17,39 -15,14 12,15 -16,22 -30,22 -9,17 -20,8 -1,13 -23,6 -35,20ZM607,403l5,12 -21,23 -13,-22ZM351,219l34,21 -12,8Z"/>
<text x="500" y="282">AK</text>
</svg>