<?xml version="1.0" encoding="utf-8"?>
<!DOCTYPE svg PUBLIC "-//W3C//DTD SVG 1.1//EN" "http://www.w3.org/Graphics/SVG/1.1/DTD/svg11.dtd">
<svg version="1.1" xmlns="http://www.w3.org/2000/svg" width="222" height="350" viewBox="0 0 222 350">
  <path class="state" transform="scale(0.1)" d="M57,2376v-184l32,-167 11,-167 21,-100 10,-184 21,-83 11,-184h11v-101h10l11,-167 10,-100 32,-184 11,-150 21,-100v-84l21,-83 10,-184 -52,-67h391l21,17h1068l21,200 32,100v67l21,50v51l21,66 53,301v67l21,50 43,251 10,117h11l21,150 63,134v50l22,17 42,83v100h32l10,50 -32,34h-31l-21,33v101l-43,66v117l43,67v151l-22,167 32,16 32,50v51h-264l-11,16h-1269l-11,101 43,33 21,50 53,34v66l-22,17 22,100h-22v34l-84,33 10,34 -52,16h-106l10,-16h64v-17l-64,-34 -10,-50h-53v-200l-11,-34 -31,17 -53,100 -11,50v101l-53,16 -10,-50h-64h-42l-11,-67v-401l-21,-16v-334v-84"/>
<text x="111" y="175">AL</text>
</svg>