<?xml version="1.0" encoding="utf-8"?>
<!DOCTYPE svg PUBLIC "-//W3C//DTD SVG 1.1//EN" "http://www.w3.org/Graphics/SVG/1.1/DTD/svg11.dtd">
<svg version="1.1" xmlns="http://www.w3.org/2000/svg" width="1000" height="877" viewBox="0 0 1000 877">
  <path class="state" d="M728,590l17,8 -6,15 -36,10 13,11 -10,22 16,12 -30,5 13,26 -17,-12 -12,9 19,18 -20,9 23,27 -18,9 12,7 2,19 12,18 -1,18 -22,9 16,11 -10,12h-209l-361,-5 2,-126 -22,-9 -47,10 -18,-24 10,-237 10,-180 -29,-260 126,2 170,4h362l191,-4 5,21 13,5 -3,28 -27,21 -28,45 128,-5 12,19 -19,5 8,15 -22,20 -25,5 1,15 17,11 -16,7 8,19 -17,-10 -13,37 -8,-17 -12,15 19,8 -17,20 18,17 -2,25 -17,2 -6,21 -18,-4 11,31 -31,19 -14,-12 5,31 -13,30 -12,-11 9,28 -9,14 2,20 -34,11 3,15 -18,8 -3,15 -14,-9 11,26Z"/>
<text x="500" y="438">AR</text>
</svg>