<?xml version="1.0" encoding="utf-8"?>
<!DOCTYPE svg PUBLIC "-//W3C//DTD SVG 1.1//EN" "http://www.w3.org/Graphics/SVG/1.1/DTD/svg11.dtd">
<svg version="1.1" xmlns="http://www.w3.org/2000/svg" width="350" height="307" viewBox="0 0 350 307">
  <path class="state" transform="scale(0.1)" d="M2543,2069l67,15 -17,58h-67l17,59 -33,-30 -17,30 17,44 -34,14v44l50,29v30l-100,-15v59h67l17,29 -67,15 -34,-44 -50,14 17,30 50,14v44l-67,15 34,73h-34l17,44 33,-15v-44l34,15v44l-67,15 33,29 67,-15 -50,15v73h67v44l-33,15 16,58 -16,15 -67,-15v29l50,30 -34,44h-1086h-66h-819l-17,-15v-439l-117,-29v29h-150l-34,-73v-191v-14v-352h34v-351v-322h17v-322h-17v-161v-132l-34,-15v-132v-14v-132h-16v-161h-17v-73h301h2656l17,88 67,14 -33,117 -84,59v44h-67l-17,88h318h100v44l67,29 -84,14v30l34,29h-34l-16,59 -101,14v59h51v44l-51,14v44h-83l17,103h-17v-59l-33,59h-51v44l67,-30v88h-50v44h67l-17,73 17,30 -84,14v74l-50,-30 -33,59 67,29v44h-67l33,44 -100,15 -33,-15v102h-34v-73l-17,59v44h51v29l-51,29v-58l-16,14 16,118 -16,14 16,59 -16,44 -100,44v43l-67,15v59l-67,-30 17,44h50l-17,44 -17,-29Z"/>
<text x="175" y="153">AR</text>
</svg>