<?xml version="1.0" encoding="utf-8"?>
<!DOCTYPE svg PUBLIC "-//W3C//DTD SVG 1.1//EN" "http://www.w3.org/Graphics/SVG/1.1/DTD/svg11.dtd">
<svg version="1.1" xmlns="http://www.w3.org/2000/svg" width="860" height="1000" viewBox="0 0 860 1000">
  <path class="state" d="M802,24h9l7,247 19,698 -88,3 -201,2 -183,-68 -111,-40 -233,-90 2,-22 16,-20 17,3 16,-18 -7,-32 -22,-3 2,-35 -6,-25 11,-1 16,-22 6,-26 -5,-41 17,-26 22,-10 17,-22 -33,-25 -11,-44 -22,-27 2,-42 9,-11 -14,-55 -2,-56 -5,-40 33,-9 19,2 16,22 13,-2 15,-28 2,-136 114,4h298l116,-2Z"/>
<text x="430" y="500">AZ</text>
</svg>