<?xml version="1.0" encoding="utf-8"?>
<!DOCTYPE svg PUBLIC "-//W3C//DTD SVG 1.1//EN" "http://www.w3.org/Graphics/SVG/1.1/DTD/svg11.dtd">
<svg version="1.1" xmlns="http://www.w3.org/2000/svg" width="301" height="350" viewBox="0 0 301 350">
  <path class="state" transform="scale(0.1)" d="M2804,87h28v434h29v535h14v485l15,16v502l14,16v502l14,16v535h15v267h-460l-14,17h-531l-158,-50 -100,-50h-43l-58,-34 -129,-50 -86,-17 -86,-50 -86,-16 -101,-50h-43l-144,-67h-28l-187,-84 -129,-50 -72,-17 -100,-67h-72l-230,-100v-67l58,-66h71l43,-51v-83l-14,-34 -100,-16 28,-84 -28,-50v-83h57v-34l43,-50v-234l58,-33v-50l57,-34h43l43,-67 -14,-50h-29l-43,-33 -29,-17v-50l-28,-33v-51l-58,-50 -29,-50v-150h29v-100l-29,-67 -14,-34 14,-83 -14,-34v-83l14,-34 -28,-83v-67l28,-17 87,17 57,-17 29,50 57,34 29,-67 43,-33v-485l29,17h1981l14,-17Z"/>
<text x="150" y="175">AZ</text>
</svg>