<?xml version="1.0" encoding="utf-8"?>
<!DOCTYPE svg PUBLIC "-//W3C//DTD SVG 1.1//EN" "http://www.w3.org/Graphics/SVG/1.1/DTD/svg11.dtd">
<svg version="1.1" xmlns="http://www.w3.org/2000/svg" width="300" height="350" viewBox="0 0 300 350">
  <path class="state" transform="scale(0.1)" d="M622,1574h-15v-83h157l-28,-17h-129l-43,-34v117l-100,-33v-33h-42l14,-84 -29,-50 -171,-184v-100h-14v-117l14,-84 -14,-33 -57,-50 -15,-50 -57,-50v-117l57,-67h15v-151v-183l-15,-17 15,-67h185v17h471v16h429v1036l57,84h14l143,134 43,16 85,101 72,50 43,50 114,83 171,167 186,151 14,33 71,50 329,301 85,67 86,83v51l114,150 29,17v50l-29,16h-43l-14,101v117l-57,83 14,17v83h57l15,67 -15,34 -57,16h-100l-14,17h-114l-29,17h-100l-28,17h-114l-15,16h-114l-71,17 -29,-84 -43,-150 -85,-83h-29l-43,-51h-14l-57,-50h-43l-28,17 -15,-67 -28,-50h-143l-71,-50v-34l-86,-50h-129v-16h-142l-43,-34v-200l-57,-17 -29,-100h-28l-29,-67h-43v-50l-43,-34v-33l-57,-50 -14,-34 -43,-33 -14,-33v-84h43v-83l-29,-34h-57l-28,-33 -43,-34v-83l-29,-34v-100l43,17 -14,33 57,34 14,16v-67ZM1635,3095h29l57,50h-57v-34ZM1635,3228l57,84h-28ZM1264,2877l14,17h86l-86,33ZM1221,2894l14,33 -57,17 -14,-33Z"/>
<text x="150" y="175">CA</text>
</svg>