<?xml version="1.0" encoding="utf-8"?>
<!DOCTYPE svg PUBLIC "-//W3C//DTD SVG 1.1//EN" "http://www.w3.org/Graphics/SVG/1.1/DTD/svg11.dtd">
<svg version="1.1" xmlns="http://www.w3.org/2000/svg" width="855" height="1000" viewBox="0 0 855 1000">
  <path class="state" d="M209,422l-23,3 -20,-12 -8,31 -41,-17 6,-18 -58,-80 -5,-39 5,-18 -4,-31 -37,-45v-25l15,-28 12,-58 -7,-60 166,6 147,3 -1,9 -2,290 242,217 192,172v13l28,41 16,13 -31,39 4,24 -17,28 7,37h13l5,19 -13,12 -209,27 -18,-58 -15,-20 -33,-28 -3,-1 -17,-14 -23,3 -9,-29 -25,2 -34,-13 -3,-11 -27,-17 -35,-5 -36,1 -16,-13 3,-52 -23,-16 2,-19 -29,-21 -53,-83 13,-33 -9,-17 -16,2 -22,-24 -9,-33 2,-27 10,20 22,15 -5,-23 -12,-12 -4,-21Z"/>
<text x="427" y="500">CA</text>
</svg>