<?xml version="1.0" encoding="utf-8"?>
<!DOCTYPE svg PUBLIC "-//W3C//DTD SVG 1.1//EN" "http://www.w3.org/Graphics/SVG/1.1/DTD/svg11.dtd">
<svg version="1.1" xmlns="http://www.w3.org/2000/svg" width="300" height="350" viewBox="0 0 300 350">
  <path class="state" transform="scale(0.1)" d="M1264,2877l14,17h86l-86,33 -14,-50M764,1491l-43,-17h-114l-43,-34v117l-100,-33v-33h-42l14,-67 -29,-67 -171,-184v-100h-14v-117h14l-14,-117 -57,-50 -15,-50 -57,-50v-117l57,-67h15v-151v-183l-15,-17 15,-67h185v17h471v16h429v1036l57,84h14l143,134 43,16 85,101 72,50 43,50 57,33 228,217 186,151 14,33 71,50 272,251 142,117 86,83v51l57,50v33l57,84h29v50l-29,16h-43l-14,101v117l-57,83 14,17v83l72,17 -15,84 -57,16h-100l-14,17h-114l-29,17h-100l-28,17h-114l-15,16h-114l-71,17 -15,-50h-28v-100l-29,-84 -85,-83h-29l-43,-51h-14l-57,-50 -71,17 -15,-67 -28,-50h-143l-71,-50v-34l-86,-50h-129v-16h-142l-43,-34v-200l-57,-17 -29,-50 29,-34 -57,-16 -29,-67h-43v-50l-43,-34v-33l-57,-50 -14,-34 -43,-33 -14,-33v-84h43v-83l-29,-34h-57l-71,-67v-83l-29,-34v-100l43,17 -14,33 57,34 14,16v-67l-43,-33v-67l29,-16h128"/>
</svg>