<?xml version="1.0" encoding="utf-8"?>
<!DOCTYPE svg PUBLIC "-//W3C//DTD SVG 1.1//EN" "http://www.w3.org/Graphics/SVG/1.1/DTD/svg11.dtd">
<svg version="1.1" xmlns="http://www.w3.org/2000/svg" width="350" height="255" viewBox="0 0 350 255">
  <path class="state" transform="scale(0.1)" d="M455,940v-61l16,-12v-207v-24v-195l34,-24v-183l16,-60v-110h218h16h268l16,12h268l16,25h335v85l83,-12 17,-73h167h200h17h184h33h769v24h251v207l16,12v389h17v645h-17v134h-67v109l17,61 -67,36 -33,-48 -34,48 -116,-48 -17,73 -34,-12 -50,12 -67,-12 -16,-25v-121l-17,-12v-98h-17l17,98v182l-33,24h-51l-16,-36 -34,12 -16,-37 -34,25v73l-50,-37 -83,49h-101l-16,-49 16,-73h-33l-34,-48v-73l-66,-12 -17,-61v73h67l16,36 -16,37 67,73 -17,24v61l-34,24h67l-50,24 -50,-12v-24l-50,12 -50,-12 -17,24h-50l-17,25 -50,-13 -17,37 -50,-49h-150l-67,25v36l-17,-36 -33,12 -67,-25 -67,13 -16,-13 -67,13 -17,36h-50l-17,-49v-85l-67,49v49h-16l-34,60 -33,-12v37l-34,36 -66,-12 -34,37h-33l-17,48h-33l16,-48v-86l-16,13v85l-17,36 33,12 17,37 -67,12 -67,-36 -16,-25 -50,49 -34,12 -67,61 -16,-24 -117,60h-50l-17,37 -34,-12v48l-50,13v24h-67v49l-83,-13 17,25 -101,36 -50,-12 -50,37 -33,-13 -17,37v-73l-50,-24v-37l-34,-24v-61l-33,-24 150,-110 101,-61 100,-48 67,-61 -34,-61 -67,-85v-268l17,-12v-182l17,-25v-170l17,-49v-170"/>
<text x="175" y="127">CT</text>
</svg>