<?xml version="1.0" encoding="utf-8"?>
<!DOCTYPE svg PUBLIC "-//W3C//DTD SVG 1.1//EN" "http://www.w3.org/Graphics/SVG/1.1/DTD/svg11.dtd">
<svg version="1.1" xmlns="http://www.w3.org/2000/svg" width="1000" height="729" viewBox="0 0 1000 729">
  <path class="state" d="M444,28h30l-2,26 25,-3 6,-23 71,3 37,-2 191,2 31,2 132,1 10,229 -3,168 -22,3 6,46 -15,12 -10,-15 -19,11 -24,-13 -17,28 -31,-5 -8,-17 -8,-63 -3,27 8,48 -10,15 -46,-8v18l-23,-9 -4,10 -34,5 -9,-16 2,-19 -24,-18 20,24 -3,20 -15,20 -7,-13h-26l-44,20 -13,-12 -46,-2 -14,17 -29,-14 -33,13 -3,-12 -34,14 -5,-33 -48,47 -6,11 -15,-4 -42,42 -25,-18 -39,36 -13,-6 -27,9 -45,38 -31,4 -39,27 -12,-7 -13,10 -15,-9 -34,-57 119,-71 -31,-55 21,-290 10,-143 4,-59h33l197,9Z"/>
<text x="500" y="364">CT</text>
</svg>