<?xml version="1.0" encoding="utf-8"?>
<!DOCTYPE svg PUBLIC "-//W3C//DTD SVG 1.1//EN" "http://www.w3.org/Graphics/SVG/1.1/DTD/svg11.dtd">
<svg version="1.1" xmlns="http://www.w3.org/2000/svg" width="1000" height="1000" viewBox="0 0 1000 1000">
  <path class="state" d="M382,783l5,16 35,17 11,18h31l9,-14 -12,-4 21,-29 32,-5 53,7 38,-5 5,29 21,1 11,34 -24,28 -51,21h-48v-25l-38,-13 -18,12 3,10 -40,-8 -31,-28 14,-29 -27,-17ZM704,564l-22,51 -12,-11 10,-29ZM930,677l-19,45 -31,51 -44,53 -47,37 -41,16 4,-11 46,-41 40,-52 -17,-21 54,-91 17,-1 24,-34 2,13 16,-23 1,21 -12,21 -12,44 32,-60ZM954,513l10,20 2,37 -4,31 -16,64 11,-60 -8,15 6,-56 -8,-55ZM938,486l-13,61 4,-59ZM891,540l-22,-74 19,33ZM922,484l-6,45 -12,-7 -3,-26 15,-53 6,10ZM783,158l37,38 9,24ZM492,258l12,28 -16,3 -4,-20ZM376,172l-13,12 -41,6 -14,13 1,20 -12,13 29,-13 21,-19 11,20 -12,38 -29,-2 -8,21 -42,11 -19,22 -25,14 -16,32 6,-27 -28,-12 -15,12 -14,27v27l27,-13 -15,29 13,11 -6,20 6,16 21,-8 44,5 19,23 16,4 7,25 61,24 3,16 -13,20 -5,45 -19,11 -6,45 -9,7v57l9,2 12,32 -13,-2 -23,-22 -26,-44 -31,-95 -25,-16 -24,-53 2,-31 11,-16 -7,-22 -17,-15 -2,-19 -27,-33 -6,-24 12,-48 19,-44 -8,6 -20,52 9,-38 38,-66 25,-28 69,-47 36,-20 66,-31 20,-22 3,6 43,-5 -7,10 25,3 -16,12 -48,14 -4,11 -27,18v22ZM400,168l-11,37 -22,11 -4,-13 17,-11 5,-22ZM499,92v-9l3,-7 78,4 3,-5 49,6 -14,5 -45,-3 44,13 25,15 43,17v-11l27,10 40,25 43,44 10,33 48,38 18,40 2,34 -5,26 13,17 11,29 -6,26 -11,-23 -6,17 16,33 -6,7 -16,-59 -11,-23 -29,-27 -16,47 5,31 -6,14 -32,-69 -6,4 -21,-20 -40,2 -29,-12 22,25 12,-13 18,16 -2,18 -18,18 -32,16 -7,-22 -36,-44 -13,-7 25,32 13,27 25,24 23,-8 -6,31 -38,47 3,46 -28,24 -2,18 -32,34 -33,6 -14,-34 -11,-44 10,-19 -7,-30 -13,-18 4,-18 -24,-14 -52,8 -19,-12 -20,-33 4,-26 18,-28 15,-10 15,-23 55,-7 8,16 31,12 8,-12 46,4v-23l-28,2 -7,-11 26,-14 21,-4 -41,-12 -19,42 -12,-20 -25,-14 15,26 -28,-22 -19,7 -17,26 -25,-1 1,-25 25,-1 1,-21 30,-21 34,-8 4,-7 -15,-19 -12,27 -24,-23 22,-30 13,-7 28,6 -1,15 28,-31v-15l-19,-41 12,5 3,-20 -23,-7 -25,-22ZM662,310l7,17 16,-1 -13,-20 -24,-7ZM461,161l-42,6 -1,-6 31,-8ZM482,169l7,8 -19,24 -22,17 -29,5 -22,18 -8,-9 12,-23 20,-17 13,-25Z"/>
<text x="500" y="500">DA</text>
</svg>