<?xml version="1.0" encoding="utf-8"?>
<!DOCTYPE svg PUBLIC "-//W3C//DTD SVG 1.1//EN" "http://www.w3.org/Graphics/SVG/1.1/DTD/svg11.dtd">
<svg version="1.1" xmlns="http://www.w3.org/2000/svg" width="307" height="350" viewBox="0 0 307 350">
  <path class="state" transform="scale(0.1)" d="M2700,1607l88,117 43,17 162,184 -118,117 -87,50 -132,167 -44,34 -30,50 -44,16 -73,101h-29l-132,150 -44,33 -88,101h-15l-117,133h-15l-87,101 -30,16 -88,101h-14l-88,83 -74,84 -29,50 -102,83 -88,17 -44,-33 -30,-101v-117l15,-33v-84l29,-66v-51l30,-133 44,-134 14,-67 59,-67 58,-33 44,-50 15,-50 44,-67 117,33 44,-50 88,-33 103,-67h44l117,-150 59,-134 -15,-67 -29,100 -74,101 -44,83 -88,50 -117,50 -73,51 -117,-17 -59,17 -88,133 -102,50v-100v-117l-88,-117 -103,-50 44,67 59,50 44,100v151l-15,50 -117,-217 -118,-151 -102,-67 -117,-133v-34l-30,-133 -58,-17 -103,-50 -88,-34 -88,34 -44,-34 -132,-50 -14,34 -103,-101v-33l-58,-117 -44,-33 -88,-101 -30,-100 59,-50 44,-67 88,-67 14,-33 44,-34 162,-167 102,-83 103,-117h14l132,-151 118,-100v-33l88,-50v-17l117,-117 117,84 117,150 74,33 14,67 73,34 59,83 103,84 132,167 44,16 73,67 73,84v17l88,83h15l146,167 59,34 88,100 58,50 88,100ZM1000,2092l88,117 -30,33 -44,-83 -58,-34 -15,17 -73,-117 -15,-50h15l88,117ZM926,1942l-14,16 -59,-50 -29,-67v-50l73,17Z"/>
<text x="153" y="175">DC</text>
</svg>