<?xml version="1.0" encoding="utf-8"?>
<!DOCTYPE svg PUBLIC "-//W3C//DTD SVG 1.1//EN" "http://www.w3.org/Graphics/SVG/1.1/DTD/svg11.dtd">
<svg version="1.1" xmlns="http://www.w3.org/2000/svg" width="878" height="1000" viewBox="0 0 878 1000">
  <path class="state" d="M769,461l85,87 -333,334 -90,90 -24,3 -22,-32 6,-71 14,-63 30,-80 23,-17 30,-46 38,3 30,-22 48,-22 37,-52 5,-37 -11,24 -39,59 -32,11 -39,27 -35,-8 -16,7 -23,38 -28,13 -4,-63 -37,-38 -11,-2 23,27 14,37 -3,48 -42,-76 -38,-32 -35,-36 -19,-35 -4,-28 -45,-19 -52,-4 -54,-24 -2,10 -27,-28 -21,-43 -22,-25 -22,-41 84,-82 92,-93 136,-135 109,107 214,218ZM284,604l26,27 -12,6 -15,-26 -22,-5 -18,-39h12ZM262,555l-11,-1 -16,-27v-15l20,4Z"/>
<text x="439" y="500">DC</text>
</svg>