<?xml version="1.0" encoding="utf-8"?>
<!DOCTYPE svg PUBLIC "-//W3C//DTD SVG 1.1//EN" "http://www.w3.org/Graphics/SVG/1.1/DTD/svg11.dtd">
<svg version="1.1" xmlns="http://www.w3.org/2000/svg" width="145" height="350" viewBox="0 0 145 350">
  <path class="state" transform="scale(0.1)" d="M84,1390l-14,-334 -27,-234v-133l-7,-101v-234h28l13,-33 63,-100 76,-67 55,-34 104,-33h159v17h69l42,16h35v34l-63,67 -111,234 -48,66 -62,17 -28,67 -7,67 35,17 48,66v84l-48,67v67l34,83 63,34 41,100v33l42,34v50h20l-13,-34 62,34 28,33 7,50 55,50 14,117 14,67 -28,50 14,234 14,67 62,33 48,51 42,83 7,50 -14,67 21,50 27,17 83,100v17l83,83 14,17 70,67h110l7,-67 28,100v84l28,150v134l-28,-67 14,-33 -14,-101 -21,34h-90l28,100h-35l21,34h48l21,33 -111,17 -13,33h-35l-48,34 90,16 34,-33h49v33l48,17 28,-84h27l7,167 14,101v100h-886l-7,-17h-318l-21,-217v-217h-7l-14,-368 -41,-585v-116l-28,-368 -7,-134"/>
<text x="72" y="175">DE</text>
</svg>