<?xml version="1.0" encoding="utf-8"?>
<!DOCTYPE svg PUBLIC "-//W3C//DTD SVG 1.1//EN" "http://www.w3.org/Graphics/SVG/1.1/DTD/svg11.dtd">
<svg version="1.1" xmlns="http://www.w3.org/2000/svg" width="145" height="350" viewBox="0 0 145 350">
  <path class="state" transform="scale(0.1)" d="M555,1240l7,50 83,17 28,33 7,50 55,50 14,134 14,50 -28,50v101l14,66 7,117 117,101 49,117 -14,83 21,50 69,67 41,67 83,83 14,17 70,67h110l7,-67 28,100v84l28,150v134l-28,-67 14,-33 -14,-101 -21,34h-90l28,100 -35,-17 21,51h48l21,33 -111,17 -13,33h-70l28,50h49l34,-33h49v33l48,17 28,-84h27l7,167 14,101v100h-886l-7,-17h-318l-7,-217h-14v-217h-7l-14,-368 -41,-585v-116l-14,-134 -7,-217 -7,-17 -14,-334 -34,-501 -7,-101v-234h28l34,-83 42,-50 76,-67 55,-34 97,-16 7,-17h159v17h69l42,16h35v34l-63,67 -111,234 -48,66 -62,17 -42,100 90,117v84l-48,67v67l34,83 63,34Z"/>
<text x="72" y="175">DE</text>
</svg>