<?xml version="1.0" encoding="utf-8"?>
<!DOCTYPE svg PUBLIC "-//W3C//DTD SVG 1.1//EN" "http://www.w3.org/Graphics/SVG/1.1/DTD/svg11.dtd">
<svg version="1.1" xmlns="http://www.w3.org/2000/svg" width="415" height="1000" viewBox="0 0 415 1000">
  <path class="state" d="M158,353l32,28 23,43 6,34 -8,21v34l7,48 27,23 17,36 -1,29 69,86 27,13 23,-13 14,89 1,42 -9,-25 1,-34 -32,9 7,26 15,16 -66,25 21,1 -6,13 31,-20 21,15 19,-24 6,106h-158l-124,-2 -63,-4 -12,-202 -24,-416 -3,-66 -9,-128 1,-52h8l14,-29 23,-26 51,-23 43,-1 52,21 -25,17 -28,58 -19,27 -13,6 -15,20 1,15 26,26 -15,63 26,34Z"/>
<text x="207" y="500">DE</text>
</svg>