<?xml version="1.0" encoding="utf-8"?>
<!DOCTYPE svg PUBLIC "-//W3C//DTD SVG 1.1//EN" "http://www.w3.org/Graphics/SVG/1.1/DTD/svg11.dtd">
<svg version="1.1" xmlns="http://www.w3.org/2000/svg" width="350" height="343" viewBox="0 0 350 343">
  <path class="state" transform="scale(0.1)" d="M2694,252l50,16v49h-34v33h17v49h-67l17,49h-34v163h34v82l33,33 -50,16 17,66h-34l17,32v115l17,49h33v-66l-50,-32v-66l-17,-32h51v-66l16,-81h-16v-50l-34,-16v-147l17,-33h67l16,33v65v66l50,49v65l34,49v33l33,49 34,114 33,66h17v65h33v33l34,49v32l33,17 34,65v-49l33,82 -17,49v49h-33v-98l-34,-17v-32h34l-50,-49v65h16l17,115 17,49 33,32 17,82 33,16v49l84,147 33,147 67,115 17,16v16l17,17 -17,49h33v98l17,16v131h-17v180h-16v98h-17v65l-34,16v49l-50,50v98l-16,32 16,49 -100,-32 -17,49h-66l-34,-17 -17,33h-83l-34,-33v-65h34l17,33v16h66l-16,-16 -17,-33h-33l-17,-16 -34,-33v-33l-33,-16 50,-33v17h34l-51,-33v33h-33l-33,-66 33,-33h-33l-17,33 -17,-82 -100,-16 -17,-16 -50,-33 -17,-33 -16,-32v-66l-50,-98h-17l-50,-32v-229l-50,33v-33h-34l34,33v49h-51l-33,-82 -50,-33v-33l-17,-65h-16v-49l-34,-49h-33l50,-49 17,-82 66,-49v-32l-50,-33 -16,49v-65l-84,-17 17,49h33v66l-17,32 -50,-16v-16v-33h-33l17,-49v-131l50,-114v-164l-17,-65h33l-33,-16 -17,-66 -33,-16v-49h-100l-17,-49h-34v-49l-33,-33h-33l-34,-32v-82h-50l-33,-49 -34,-82h-33l-84,-33 -16,-49h-134l-33,17 -51,49h51l16,33 -67,-17 -50,17 -16,32h-34l-33,33h-67l-34,33h-133v-98l-34,-33 -100,-66h50l-33,-32h-50v-33l67,-33h-134l33,33v49l-16,-49 -67,-16 -67,-49 -50,-17h-100v-16h100l67,16 -17,-49h-201l17,33h-200l16,-33v-49l-16,33 -67,-49v65v33l-50,33h-67v-131l17,-49 -51,-33v-32l-33,-17 17,-81h300h819l17,65v65l33,33h101l16,16h268v17h267v16h251l16,16h217v82l17,33h67v-229h84l50,16h67ZM2760,399v33v81h34v66h-34v-66ZM3278,3014v-17v-49l50,-32v32l-50,17Z"/>
<text x="175" y="171">FL</text>
</svg>