<?xml version="1.0" encoding="utf-8"?>
<!DOCTYPE svg PUBLIC "-//W3C//DTD SVG 1.1//EN" "http://www.w3.org/Graphics/SVG/1.1/DTD/svg11.dtd">
<svg version="1.1" xmlns="http://www.w3.org/2000/svg" width="350" height="343" viewBox="0 0 350 343">
  <path class="state" transform="scale(0.1)" d="M2760,481l-16,-82h16v114h34v98l-34,-32v-98M2242,1167l-33,-16 -17,-66 -33,-16v-49h-100l-17,-49h-34v-49l-33,-33h-33l-34,-32v-82h-50l-67,-131h-33l-84,-33 -16,-49h-134l-33,17 -51,49 34,16 -84,17 -16,32 -67,33h-67l-34,33h-133v-98l-34,-33 -100,-66h67l-50,-32h-50v-33l67,-33h-134l33,33v49l-16,-49 -67,-16 -67,-49 -50,-17h-100v-16h100l67,16 -17,-49h-201l17,33h-200l16,-33v-49l-16,33 -67,-49v65v33l-117,33v-131l17,-49 -51,-33v-32l-33,-17 17,-81h300h819l17,65v65l33,33h101l16,16h268v17h267v16h251l16,16h217v82l17,33h67v-229h84l50,16h67v33l50,16v49h-34v33h17v49h-67l17,49h-34v163h34v82l17,49h-34l17,66h-34l17,32v115l17,49h33v-66l-50,-32v-66l-17,-32h51v-66l33,-16 -33,-65v-50l-34,-16v-147l50,-49 50,49v65l34,115h16v65l34,49v33l33,49 34,114 50,66v65h33v33l34,49v32l33,17v32h34l50,49 -17,66h-17v49h-33v-82l17,-16 -51,-17v-32l34,-17 -50,-32v65l50,115v49l100,179v66l67,65v65l33,98 34,33v33l33,49 17,16v16l33,66v98l17,16v131h-17v180h-16v98h-17v65l-34,16v49l-50,50v98l-16,32 16,49 -100,-32 -17,49h-66l-34,-17 -17,33h-83l-34,-33v-65h34l17,49h66l-66,-49 -17,-16 -34,-33v-33h-33l50,-49v17h-50l-33,-66h50l-17,-33h-33l-17,33 -17,-82 -67,-16h-50l-50,-49 -17,-33 -16,-32v-66h-17l-33,-98 -67,-32v-229l-50,33v-33h-34l34,33v49h-51l-33,-82 -50,-33 -17,-98 -50,-98h-33l50,-49v-49l50,-65 33,-17v-32l-50,-33 -16,49v-65l-84,-17 17,49h33v66l-17,32 -50,-16v-16v-49l-33,16 17,-49v-131l50,-114v-180l-17,-49h33"/>
<text x="175" y="171">FL</text>
</svg>