<?xml version="1.0" encoding="utf-8"?>
<!DOCTYPE svg PUBLIC "-//W3C//DTD SVG 1.1//EN" "http://www.w3.org/Graphics/SVG/1.1/DTD/svg11.dtd">
<svg version="1.1" xmlns="http://www.w3.org/2000/svg" width="1000" height="979" viewBox="0 0 1000 979">
  <path class="state" d="M966,752l-25,53v29l-13,14h-17l-20,14 -8,-5 -35,8 -14,-13 3,-17 29,18 -5,-18 -24,-7 -27,-61 -46,-19 -14,-21 -7,-48 -24,-12 -2,-49 -25,10 -26,-35 -17,-51 -12,-9 35,-50 -35,-29 -7,14 16,14 -7,20 -11,-8 -14,-16 9,-27 -3,-18 17,-39 -2,-60 -17,-30v-12l-31,-1 -2,-15 -20,-22 -20,-11 -1,-22 -17,-8 -18,-29 -41,-25 -43,6 3,23 -15,-5 -55,28 -56,10 7,-21 -28,-45 -24,-9 5,-9 -20,-7 12,18 -76,-31h31l-19,-15 -22,-1 -21,11h-49l-19,-28v24l-29,15 2,-52 -27,-25 4,-22 181,6h137l17,42 167,8 158,11 2,26 20,3v-51l10,-16 49,20 15,-2 -2,41h-18l-9,25 -2,29 11,11 7,25 -15,27 2,40 9,17 9,-15 -19,-19 -1,-22 20,-28 -19,-36 5,-50 21,2 18,75 29,68 36,75 30,33 -16,32 -4,-50 -14,-10 5,25 20,57 36,72 15,48 34,72 2,45Z"/>
<text x="500" y="489">FL</text>
</svg>