<?xml version="1.0" encoding="utf-8"?>
<!DOCTYPE svg PUBLIC "-//W3C//DTD SVG 1.1//EN" "http://www.w3.org/Graphics/SVG/1.1/DTD/svg11.dtd">
<svg version="1.1" xmlns="http://www.w3.org/2000/svg" width="300" height="350" viewBox="0 0 300 350">
  <path class="state" transform="scale(0.1)" d="M2692,2409l15,51h-43l43,50v33h-72l29,50 -43,17 43,100h-115l29,50 -14,50v51h-29l-28,-51v51l71,33 -29,17v50l-28,17 43,16 -29,17v134h-100l-86,-50 -100,-17 -42,50v100h14v117l-14,67h-86l-14,-17v-83l-29,-50h-86l-14,-34h-257h-243l-14,-17h-243v-33h-243h-271l-15,-17h-228l-43,-50v-100l-43,-50v-67l-57,-84v-66h14v-101l15,-50v-100l-29,-33v-117l14,-67 15,-34v-117l57,-50h43l-15,-67 -43,-33 29,-17 -14,-100 -57,-33 -15,-84v-67l-43,-67v-83h-14v-84l-14,-16v-84l-14,-33v-67l-15,-17v-100h-28v-84v-16v-84l-29,-17v-100v-83l-28,-17v-100h-15v-84l-14,-17v-83h-14v-100h-15v-84h-14v-100v-67h557l72,17h614l57,-17h171l-14,33 -71,34v50l-43,33 -29,34 72,83h43l28,67 43,34h86l28,16v67l29,34 43,50 14,67 57,66v67l57,17 29,33 114,84 29,33 14,67 29,34h42l100,100v83l43,17 15,67h42v50l43,33h43l72,67 14,100 43,17v117l14,67 57,17 57,33 15,100 28,17 14,50 -28,17 28,33v67l43,50 57,117 -42,17 -72,-50h-43v33l43,17v100ZM2578,2994l-29,151v-101l-14,-33ZM2821,2176l43,33 -15,50h-28ZM2749,2326l43,17v50l-57,33 -14,-67ZM2607,2727l57,17v50l-29,-34 -14,84h-43v-84ZM2749,2443v67l-28,33v-67ZM2707,2543l14,50 -29,50 -57,17v-67h43Z"/>
<text x="150" y="175">GA</text>
</svg>