<?xml version="1.0" encoding="utf-8"?>
<!DOCTYPE svg PUBLIC "-//W3C//DTD SVG 1.1//EN" "http://www.w3.org/Graphics/SVG/1.1/DTD/svg11.dtd">
<svg version="1.1" xmlns="http://www.w3.org/2000/svg" width="300" height="350" viewBox="0 0 300 350">
  <path class="state" transform="scale(0.1)" d="M2749,2443v67l-28,33v-67l28,-33M2707,2543l14,50 -29,50 -57,17v-67h43l29,-50M2578,2994l-29,151v-101l-14,-33 43,-17M2607,2727l57,17v50l-29,-50 -14,100h-43v-84l29,-33M2692,2409l15,51h-43l43,50v33h-72l29,50 -43,17 43,100h-86l-14,-16 14,66h-14v101h-29l-28,-67v67l71,33h-43l14,67 -28,17 43,16 -29,17v134h-100l-86,-34v-16l-100,-17v33l-42,-16v133h14v117l-14,67h-86l-14,-17v-83l-29,-50h-86l-14,-34h-257h-243l-14,-17h-243v-33h-243h-271l-15,-17h-228l-43,-50v-100l-43,-50v-67l-57,-84v-66h14v-101l15,-50v-100l-29,-33v-117l14,-67 15,-34v-117l57,-50h43l-15,-67 -43,-16 29,-34 -14,-100 -57,-33 -15,-151 -43,-67v-83h-14v-84l-14,-16v-84l-14,-33v-67l-15,-17v-100h-28v-84v-16v-84l-29,-17v-100v-83l-28,-17v-100h-15v-84l-14,-17v-83h-14v-100h-15v-84h-14v-100v-67h557l72,17h614l57,-17h171l-14,33 -71,34v50l-43,33 -29,34 72,83h43l28,67 43,34h86l28,16v67l29,34 43,50 14,67 57,66v67l57,17 29,33 86,50 57,67 14,67 29,34 100,50 42,50v83l58,34v50h42v50l72,33h28l58,67 14,100 43,17v117l14,67 57,17 57,33 15,100 28,17 14,50 -28,17 28,33 15,101h43l-15,33 57,67v33h-85l-29,-33h-43v33l43,17v100l-43,-17M2749,2326l43,17v50l-43,33 -28,-17v-50l28,-33"/>
</svg>