<?xml version="1.0" encoding="utf-8"?>
<!DOCTYPE svg PUBLIC "-//W3C//DTD SVG 1.1//EN" "http://www.w3.org/Graphics/SVG/1.1/DTD/svg11.dtd">
<svg version="1.1" xmlns="http://www.w3.org/2000/svg" width="855" height="1000" viewBox="0 0 855 1000">
  <path class="state" d="M768,690l7,7 -22,11 20,10 -23,24v24l9,9 -30,-3 11,17 -12,15 7,30 -14,16 2,47 -10,3 -59,-22 -24,8 -3,28 6,10 -6,50 -21,1 -7,-12 -2,-32 -59,-3 -287,-20 -117,-7 -14,-13 -1,-24 -12,-34 -15,-22 6,-64 6,-15 -15,-29 -1,-41 13,-15 3,-36 27,-24 -19,-17 8,-17 -18,-33 -8,-40 -7,-6 -14,-87 -52,-359 253,2 166,-2 -1,13 -34,28 -5,25 29,15 21,25h25l9,26 16,17 3,20 36,47 42,35 15,30 22,10 23,22v20l39,52 17,3 20,18 2,26 11,10 1,42 22,11 29,47 -5,20 8,25 13,8 5,24 14,9 -9,11 -39,-12 12,13ZM738,855l-12,41 -5,-31ZM804,622l14,11 -8,14 -13,-17ZM784,666l16,6 -16,20 -8,-19ZM742,777l19,4 -3,16 -16,17 -7,-23ZM773,731l-11,31 -12,-19Z"/>
<text x="427" y="500">GA</text>
</svg>