<?xml version="1.0" encoding="utf-8"?>
<!DOCTYPE svg PUBLIC "-//W3C//DTD SVG 1.1//EN" "http://www.w3.org/Graphics/SVG/1.1/DTD/svg11.dtd">
<svg version="1.1" xmlns="http://www.w3.org/2000/svg" width="828" height="1000" viewBox="0 0 828 1000">
  <path class="state" d="M20,492l8,-34 31,-43 55,-41 48,-8 33,4 58,-25 53,-4 43,-37 26,-55 23,-30 6,-47 11,-43 52,-73 30,-21 33,-11 39,5 26,9 31,21 59,66 48,6 24,11 38,42 11,49 -3,19 -31,61 -28,79 -28,39 -29,20 -16,3 -31,35 -28,14 -30,31 -21,13 -23,26 -23,13 -30,27 -11,88 3,49 -6,43 -30,56 -33,29 -22,36 -19,19 -35,19 -59,7h-32l-83,15 -27,-2 -44,-30 -19,-43 5,-47 27,-37 -10,-45 -29,-28 -15,-35v-30l11,-54 15,-30 -33,-33 -15,-34ZM117,493l10,18 24,13 9,23 23,6 14,28 -21,38 1,11 -24,54 24,25 -3,13 21,66v27l27,29 53,14 19,-8 7,8 18,-13 10,-24 22,-10 23,-24 15,-30 -3,-62 -27,-2 -10,18 -21,1 -17,30h-25l-13,16 -18,-5 -16,9 -27,-54 59,-28 2,-24 28,1v-56l-37,-54 -16,13 -17,-6 -11,-25 -17,-16v-16l-76,-16ZM273,450l8,66 24,-15 40,14 1,-16 -17,-27 6,-17 -33,-16ZM381,436l56,-16 38,-32 -23,-70 -11,16 5,38 -23,19 -20,-7 -14,6 -4,18 8,11Z"/>
<text x="414" y="500">GU</text>
</svg>