<?xml version="1.0" encoding="utf-8"?>
<!DOCTYPE svg PUBLIC "-//W3C//DTD SVG 1.1//EN" "http://www.w3.org/Graphics/SVG/1.1/DTD/svg11.dtd">
<svg version="1.1" xmlns="http://www.w3.org/2000/svg" width="350" height="229" viewBox="0 0 350 229">
  <path class="state" transform="scale(0.1)" d="M612,59l31,11 30,33 -30,76v55l-62,65 -122,-21 -15,-44 -77,-11v-65l31,-11v-44h46l46,-44h122M1913,725l45,21h77l61,11h123v11l-46,66h-92l-61,-22h-169l62,-87M1438,408l61,33 16,55 30,11v65l16,22 61,22v32l30,22 -15,33h-61l-107,-44 -107,22v-44l-61,-65v-55l-16,-21 107,-11 46,-77M2754,1346l77,22 76,65h61l61,22 62,44h30l77,54 30,77v54h46l31,66 76,65h31l-15,55 -62,32v22l-61,33h-15l-61,33 -46,11 -31,-11 -137,109 -31,11v43l-46,66 -107,-55h-46l-15,-33v-239l-31,-33 -30,-87 -31,-44v-65l31,-44h45l16,-55 46,-32v-33l-46,-44v-109h15M2295,845l46,21 31,66h45l62,-22h46l30,44h31l15,32 77,22v55l-31,32 -61,22 -46,-11 -15,22 -92,22 -31,-22v-76l-15,-44 -107,-11 -31,-43v-66l46,-43M2326,1128v55l-77,11v-33h31l46,-33"/>
<text x="175" y="114">HI</text>
</svg>