<?xml version="1.0" encoding="utf-8"?>
<!DOCTYPE svg PUBLIC "-//W3C//DTD SVG 1.1//EN" "http://www.w3.org/Graphics/SVG/1.1/DTD/svg11.dtd">
<svg version="1.1" xmlns="http://www.w3.org/2000/svg" width="1000" height="653" viewBox="0 0 1000 653">
  <path class="state" d="M789,383l46,27 27,5 42,23 20,19v25l16,-1 3,18 31,21 -29,33 -37,17 -19,-1 -35,24 -31,43 -43,-37 5,-41 -19,-57 -12,-16 14,-23 26,-25 -13,-34ZM597,214l41,6 -28,19 -33,-10 -43,1 9,-23ZM416,115l27,34 -3,12 18,10 16,21 -23,8 -19,-13 -38,5 -21,-35 -4,-18h24ZM173,17l14,7 -4,43 -19,16 -30,-6 -24,-14 -5,-17 10,-14 26,-15ZM54,58v19l-23,22 -5,-19ZM657,242l22,24 40,-7 23,21 19,5 -6,26 -44,14 -26,-4 -4,-35 -12,3 -26,-19 -1,-14ZM664,321l4,17 -26,-5ZM590,261l16,3 16,20 -15,13 -16,-2 -13,-31Z"/>
<text x="500" y="326">HI</text>
</svg>