<?xml version="1.0" encoding="utf-8"?>
<!DOCTYPE svg PUBLIC "-//W3C//DTD SVG 1.1//EN" "http://www.w3.org/Graphics/SVG/1.1/DTD/svg11.dtd">
<svg version="1.1" xmlns="http://www.w3.org/2000/svg" width="350" height="229" viewBox="0 0 350 229">
  <path class="state" transform="scale(0.1)" d="M2760,1346h34l117,87h50l134,55 83,55 50,65v76h50v66l50,11 34,43 50,11 -17,55 -167,120h-83l-184,109v43l-84,88v-22l-117,-44 -33,-54 17,-44v-153l-17,-54 -33,-44v-43l-51,-55v-54l34,-33 50,-11 17,-66 16,-10v-66l-16,-11 -17,-98ZM2092,757l50,11 84,-11v33l-50,44h-84l-67,-33 -50,11h-117v-33l50,-22 -16,-32h50l16,21h117ZM1440,408l51,11v44l50,44v65l50,33v-33l33,44v32l34,33 -67,22 -67,-22v-22l-50,11h-100v-44l-34,-10v-44l-33,-11 -17,-65 100,-11 34,-66ZM605,59l33,22 34,66 -34,32v55l-50,54 -117,-10 -16,-33 -101,-33v-54l50,-55 67,-44ZM171,212v66l-51,10v66l-33,-11 17,-76ZM2293,845l50,21v33l33,33h50l17,-22h83l17,33 84,32v22h50v66l-84,54h-67l-33,22h-84l-16,-22v-109h-84l-67,-65v-44ZM2326,1128l17,55 -84,11 34,-55ZM2075,921h50l51,54v33l-34,33h-67l-16,-76 -34,-11v-33Z"/>
<text x="175" y="114">HI</text>
</svg>