<?xml version="1.0" encoding="utf-8"?>
<!DOCTYPE svg PUBLIC "-//W3C//DTD SVG 1.1//EN" "http://www.w3.org/Graphics/SVG/1.1/DTD/svg11.dtd">
<svg version="1.1" xmlns="http://www.w3.org/2000/svg" width="1000" height="657" viewBox="0 0 1000 657">
  <path class="state" d="M110,413l-14,-6 -3,-31 9,-22 -12,-14 4,-19 -23,-18 -8,-22 3,-18 -12,-17 6,-26 -14,-3 -8,-34 -13,-22 13,-13 6,-41 12,-14 -4,-21 -14,-3 8,-31 -11,-22 85,3 293,6h173l222,-4 3,29 22,20 -16,23 4,45 14,30 16,13 34,7 11,33 35,28 5,20 35,21 4,23 -5,38 -19,14 -3,30 -57,30 -47,8 -8,35 25,28 -3,35 -18,20 -2,29 -36,14v40l-24,-1 -15,-25 -17,-14 -34,2 -178,7 -212,1 -182,-7 -18,-26 7,-12 3,-41 -11,-40 -1,-56Z"/>
<text x="500" y="328">IA</text>
</svg>