<?xml version="1.0" encoding="utf-8"?>
<!DOCTYPE svg PUBLIC "-//W3C//DTD SVG 1.1//EN" "http://www.w3.org/Graphics/SVG/1.1/DTD/svg11.dtd">
<svg version="1.1" xmlns="http://www.w3.org/2000/svg" width="350" height="230" viewBox="0 0 350 230">
  <path class="state" transform="scale(0.1)" d="M388,1451l-50,-22v-153l16,-44 -33,-33v-77l-50,-44h-17v-66l-33,-22v-109l-50,-22 33,-99h-50v-99l-34,-44 -33,-11 17,-77 16,-11v-65h34v-66l50,-66 -33,-66h-51l34,-55v-77h-34v-66h134l67,11h301l50,11h534h84h936h584l34,44v55l67,44v44l-50,55v99h16v66l34,21v66l67,66 133,22v33l34,33 -17,44 100,55 34,44v55l66,54 51,11 33,88v99l-17,55 -67,44 -16,55v65l-34,22 -100,11 -33,55h-101l-16,22h-67l-17,33v66l-17,44 34,44 50,22v142l-50,33 -34,154 -100,22 -67,55 50,22 -16,66 16,22 -66,11 -17,-55h-33l-17,-55 -50,-11 -17,-44 -33,11h-218v11h-317v11h-1203v-11h-267l-67,-11 -34,-44 -16,-11 -34,-55 34,-11v-252l-34,-44v-66l34,-22 -51,-11 17,-22v-77h-67Z"/>
<text x="175" y="115">IA</text>
</svg>