<?xml version="1.0" encoding="utf-8"?>
<!DOCTYPE svg PUBLIC "-//W3C//DTD SVG 1.1//EN" "http://www.w3.org/Graphics/SVG/1.1/DTD/svg11.dtd">
<svg version="1.1" xmlns="http://www.w3.org/2000/svg" width="642" height="1000" viewBox="0 0 642 1000">
  <path class="state" d="M442,652l8,-17 33,6 9,-15h79l-3,-20 15,-6 11,20 18,14 13,334 -238,7 -200,-1 -163,-5 10,-248 14,-42 -7,-13 -23,-6v-27l18,-35 11,-4 10,-33 11,-16 6,-23 22,-40 -7,-17 -21,-11 -16,-34 3,-14 -10,-33 7,-214 7,-134 87,1 -4,139 29,37 7,34 -11,2 21,19 19,5 35,50 1,10 27,15 1,11 25,-4 -10,67 -7,1 13,38 -18,14v29l21,14 39,-32 12,13 7,37 28,36 -5,15 16,22 19,1 13,44Z"/>
<text x="321" y="500">ID</text>
</svg>