<?xml version="1.0" encoding="utf-8"?>
<!DOCTYPE svg PUBLIC "-//W3C//DTD SVG 1.1//EN" "http://www.w3.org/Graphics/SVG/1.1/DTD/svg11.dtd">
<svg version="1.1" xmlns="http://www.w3.org/2000/svg" width="560" height="1000" viewBox="0 0 560 1000">
  <path class="state" d="M31,494l-10,-20 -6,-62 19,-28 2,-35 30,-10 4,-25 19,-23 1,-26 -20,-24 8,-29 50,-8 41,-21 4,-25 17,-14 6,-31 -3,-22 -28,-16 -4,-20 -28,-30 171,1 188,-1 -3,37 22,40 7,33 12,23 8,407 -16,37 18,26 5,34 -32,63 -30,38 8,6 -14,25v36l-18,25 14,30 -53,13 -8,20 12,25 -6,14 -61,-26 -13,2 -23,26 -27,4 -19,-42 13,-18 -14,-33 1,-18 -43,-37 -8,5 -62,-59 -2,-20 27,-51 -5,-14 14,-23 -19,-13 -29,-7 -20,14 -11,-28 -3,-37 -43,-37 -5,-13 -34,-30Z"/>
<text x="280" y="500">IL</text>
</svg>