<?xml version="1.0" encoding="utf-8"?>
<!DOCTYPE svg PUBLIC "-//W3C//DTD SVG 1.1//EN" "http://www.w3.org/Graphics/SVG/1.1/DTD/svg11.dtd">
<svg version="1.1" xmlns="http://www.w3.org/2000/svg" width="213" height="350" viewBox="0 0 213 350">
  <path class="state" transform="scale(0.1)" d="M53,1440l10,-33 31,-50h20v-117l31,-34h71l30,-33v-50l51,-84h20l11,-117 -21,-50 -51,-16 21,-117 40,-17h143v-33h61l81,-51v-50l30,-67h31l10,-50v-150l-20,-50h-61l-31,-50 10,-50 -50,-51h-41l-10,-33h498v17h762l346,-17 -31,134 -40,300 -143,17v401h11v668h10v368l-31,17 10,83h-20v67h20l31,84 10,150h-30l-31,50v67h-41v50l-50,50v34l-41,-17 -20,33 20,67 -41,17 21,33h-31l10,84 -20,17 20,33 -20,67 -41,17v50l21,16 20,67h-91l-31,34h-61l-30,83 40,34v83h-71l-30,-33h-41l-20,-34 -41,-16h-71l-41,16v50l-41,34v50l-30,-50 -10,33 -51,-16v-51l-31,-16 -10,-84h-30l10,-50h30l11,-17 -51,-83 10,-100h-31l-71,-84 -40,-17 -21,-33 -40,33v-67h-41l-163,-150v-83l41,-34 10,-67 41,-50 -10,-83h20l10,-67 -41,-34h-40l-31,-33h-40l-21,50 -40,17 -31,-34 -20,-200 -20,-34 -61,-33 -82,-67 -10,-50h-30l-51,-83 -41,-34v-67h-30l10,-50 -21,-17 -20,-83v-84"/>
<text x="106" y="175">IL</text>
</svg>