<?xml version="1.0" encoding="utf-8"?>
<!DOCTYPE svg PUBLIC "-//W3C//DTD SVG 1.1//EN" "http://www.w3.org/Graphics/SVG/1.1/DTD/svg11.dtd">
<svg version="1.1" xmlns="http://www.w3.org/2000/svg" width="196" height="350" viewBox="0 0 196 350">
  <path class="state" transform="scale(0.1)" d="M115,1724l-47,-50v-50l-18,-100v-84l37,-83h28l10,-84 -28,-33 46,-34h66l28,-16 9,-100 65,-51 10,-117 -19,-50 -56,-16 19,-117h65l19,-17h103l37,-50 28,17 75,-51v-33l37,-84h28l9,-50v-150l-18,-50h-66l-18,-100 -94,-51 -9,-33h570l37,17h383v-17h271l-9,150 75,117 28,117 37,67 9,100v435h10v585h9v317l-28,33 9,67 -28,50 38,17 28,67 -19,67 28,33 -9,67h-38l-9,50 -56,117 -37,34 -19,50 -37,-17 -19,50 37,17 -28,83h-28v50l-18,51 18,66 -56,51v50l38,33v50h-94l-28,34h-65l-19,66 47,67 -19,67h-56l-28,-33h-56l-56,-50h-75l-37,66 -38,34v50l-28,-50 -9,33 -56,-16 -66,-151 47,-67 -47,-83v-100h-28l-46,-67 -103,-50 -28,16 -9,-67 -28,-16 -94,-50 -19,-50 -46,-34v-83l37,-34 9,-67 38,-33 9,-50 -19,-17 47,-100 -47,-34h-46l-75,-33 -28,50 -37,17 -38,-84 -9,-150 -56,-67 -84,-33 -66,-117 -84,-67Z"/>
<text x="98" y="175">IL</text>
</svg>