<?xml version="1.0" encoding="utf-8"?>
<!DOCTYPE svg PUBLIC "-//W3C//DTD SVG 1.1//EN" "http://www.w3.org/Graphics/SVG/1.1/DTD/svg11.dtd">
<svg version="1.1" xmlns="http://www.w3.org/2000/svg" width="651" height="1000" viewBox="0 0 651 1000">
  <path class="state" d="M622,224l2,125v115l3,193 -14,13 12,18 -8,13 17,11 -5,21 -34,2 -30,22 -16,-11h-34l-5,9 8,36 -14,19 -21,7 -13,34 -28,5 -15,28 -8,37 -50,-5 -11,-10 -2,-22 -27,9 -6,19 -11,2 -1,28 -39,6 -14,-25 -41,20 -10,29 -61,-37 -18,8 -15,-16 -2,21 -15,14v-18l-31,6 -19,-4 6,20 -8,9 -28,-33 15,5 -3,-39 21,-26 -11,-12 40,-38 6,-25 18,-6 6,-33 19,-13 5,-21 -10,-22 7,-17 -12,-9 1,-17 -16,-18 16,-18 -6,-16 15,-16 1,-190 3,-79 1,-203 3,-91 27,20 22,2 40,-13 34,-21h205l154,-1Z"/>
<text x="325" y="500">IN</text>
</svg>