<?xml version="1.0" encoding="utf-8"?>
<!DOCTYPE svg PUBLIC "-//W3C//DTD SVG 1.1//EN" "http://www.w3.org/Graphics/SVG/1.1/DTD/svg11.dtd">
<svg version="1.1" xmlns="http://www.w3.org/2000/svg" width="228" height="350" viewBox="0 0 228 350">
  <path class="state" transform="scale(0.1)" d="M2167,789v250h22v1203v51l-22,33h-32l54,100 -22,50h55v34l-33,16v17h-54v34h-66l-21,33h-33l-22,33h-54l-11,-33h-131v117v67h-10l-22,50h-55l-32,33 -22,84 -33,33h-87v34l-54,67v116l-65,17 -22,34 -33,-51h-76l-32,-33v-83l-66,-34v34h33v33h-87l22,50h-65l10,100h-54v67l-43,17v-84l-55,34 -43,-84h-44l-11,50h-87l-54,134h-22l-22,-50h-32l-44,-50h-32l-22,-34h-65h-55l-11,-50h-21l11,84 -11,50h-66l22,-50h-65l-44,16 -43,-50 -33,50 33,34 -11,33h-65l-55,-83 55,-50v-84l43,-33h-43l32,-34h33l-43,-83h21l11,-50h76v-51l55,-33 11,-50 76,-100 11,-84 54,-17v-117l-22,-16 22,-50 -33,-67v-50l-54,-34v-50l54,-33v-50h-21l10,-84h44v-718l11,-17v-685h11v-552l11,34h65l-22,17 33,33h130l65,-33 131,-67h674l33,-17h576v384Z"/>
<text x="114" y="175">IN</text>
</svg>