<?xml version="1.0" encoding="utf-8"?>
<!DOCTYPE svg PUBLIC "-//W3C//DTD SVG 1.1//EN" "http://www.w3.org/Graphics/SVG/1.1/DTD/svg11.dtd">
<svg version="1.1" xmlns="http://www.w3.org/2000/svg" width="350" height="152" viewBox="0 0 350 152">
  <path class="state" transform="scale(0.1)" d="M1942,263l50,7v22l50,-7 17,-29 100,-29 17,-51 -51,-101 51,-29 83,29 67,-22v36l50,7 33,58v51l67,36h101l33,58 67,15v-29l67,-8 66,37h67l50,-58 67,-22 17,101h50l67,73v145l-17,29 50,36 17,65 33,22v44l51,21v51l66,29v29l84,7 -33,44 -51,29 -66,80 -84,29v14l-83,44 -17,65 -50,14v58l-101,22v51l-133,43h-50l-67,58h-401l-184,-14h-418l-150,-15h-685l-17,-29h-67v102l-117,-8h-167l-16,-7h-151l-150,-7v-65l50,21h50v-94l17,8v-58l33,-66 -33,-14v-44l83,-79 84,21 17,29 66,15 17,29h50v-80l-16,-7v-80l16,-22 50,8 34,-29 83,-8v-43l-33,-15v-58l33,-29v-29l67,15 34,-58 83,-22v51l34,-7 -17,-66 33,22 67,-22 100,66 17,36 33,-15v-65l67,-7 34,-29 33,58 34,-22v51l33,-51h33v-65h34l-34,-44h84l-33,-36 50,22v58l33,22 100,7 34,-44v-72l16,-36h67l34,-95h33l50,-43v-73l-16,-29Z"/>
<text x="175" y="76">KY</text>
</svg>