<?xml version="1.0" encoding="utf-8"?>
<!DOCTYPE svg PUBLIC "-//W3C//DTD SVG 1.1//EN" "http://www.w3.org/Graphics/SVG/1.1/DTD/svg11.dtd">
<svg version="1.1" xmlns="http://www.w3.org/2000/svg" width="1000" height="434" viewBox="0 0 1000 434">
  <path class="state" d="M556,75l23,7 17,-13 23,-2 2,-17 -13,-26 18,-14 16,12 17,-7 19,13 14,35 32,3 36,24 18,-12 26,15 17,-3 16,-18 18,-5 3,21 32,23 5,34 -7,18 19,21 -1,10 23,24 4,17 15,2 16,27 -35,34 -47,24 1,12 -18,11 -2,14 -23,6 -6,17 -51,14 -20,14 -137,-1 -64,-3 -26,2 -126,-6h-170l-25,-7v28l-171,-6 6,-19 13,9 23,-61 -10,-14 20,-24 14,-2 49,26 12,-11 -11,-25 5,-14 53,-14 -12,-29 18,-21 10,5 4,-24 29,5 10,-12 12,11 14,-4 31,24 11,-18 28,-15 12,17 27,-5 -1,-19 27,-18 13,24h31l12,-41 20,-4 7,-21 25,-16 -3,-31Z"/>
<text x="500" y="217">KY</text>
</svg>