<?xml version="1.0" encoding="utf-8"?>
<!DOCTYPE svg PUBLIC "-//W3C//DTD SVG 1.1//EN" "http://www.w3.org/Graphics/SVG/1.1/DTD/svg11.dtd">
<svg version="1.1" xmlns="http://www.w3.org/2000/svg" width="350" height="321" viewBox="0 0 350 321">
  <path class="state" transform="scale(0.1)" d="M3028,2377l-17,31h33h34v31l-50,15 50,30 -84,-15 17,46 -17,15 34,31h-34v-31l-33,-15h-84l17,77h-17l-33,30 17,77h33v30l33,-15 17,77h117l-17,30h84l17,31 16,-31h17l33,61h17v92h50l-16,31 -84,30 -33,-30v30l-50,31 -51,61v-46h34v-46h33v-61l17,-61h-33v61l-34,-30v-31l-50,31v-46h-67l50,-16v-46l-50,-30 -33,15v-30h-117l-34,-31v-31l-16,16h-84l-33,-46 -84,-16 34,-30v-61l-34,-16v77l-33,15v46l33,31h84l-17,46h33l-16,45 -17,16 -17,-16v77l34,31 -50,30 -34,31 -33,15 -17,-46h-17v-76l-67,-31v46h-16v-46l-34,-46v46h-66l-17,31 -17,15h-17v31l-50,46h-67h-50l-16,-46 66,-46h-66l16,-62h-67l-16,31 67,15 -17,31 -34,-15 -33,15v46l-50,-46v-46h50l17,-46h-50l33,46h-50v-31l-67,-30v-61h-17v-46l-33,30 -67,-46 -83,16v-107h-51v-62h-100l-33,31h-34l34,-92h-100v31l-67,15 -17,31 -50,-16v31h67l-17,61h50l-33,31h-67l-34,30h-100v-15h-100v-15h-67v-31h-67v-30h-67v-16l-116,-46 -67,-15 -17,-15h-251v15h-100l-50,15 -50,31v-31l-34,-46v-45l51,-16 33,-76 50,-31 17,-61v-153l-34,-15 17,-77h17v-31v-91l33,-31v-31h34v-61l16,-30v-92h50l-50,-31v-30l50,-16 -16,-30v-77h-34v-46l-50,-46v-107l-33,-15v-46l-50,-15v-199h-50v-46l-51,-46v-31l-33,-15v-367h17v-398h334l17,15h651l50,15h736l-34,62h67l-17,-46 50,15v61l-50,31v61h50v61l-50,16v30h50l34,-30v30l-34,31v30l50,31h-33l-33,-46 -17,46 17,31h83l-17,76h51l-17,46 -34,-15 17,30 -17,46 -33,-15h-67l-16,46 83,30v-30h33l-50,76 -16,46h-34l-50,46 34,15 -117,62v46h66v15h-66l-17,15v77h-84v30l67,-15 -17,46h-50v76l34,31 -34,31 -16,-46 -34,30 50,46 -16,46 -67,-15v15l33,31 -17,76 51,46 -34,31h1186l-16,46v61l-34,31v168v31l84,45v46l33,46v61l17,46 33,16v30h-50l-16,62 -101,15 -16,61 16,31 50,-16v31l34,31h50l33,-46v-62l51,-15v-30l50,15 -17,15ZM1440,2622h34l17,31 66,15 -50,31v30l-167,-61 17,-46ZM2844,2791l50,15 -17,61 -16,-15h-101l50,-16ZM2025,2913l17,46h-50l16,-46ZM1858,2806v46h50l-16,46h33v15h-84l-50,-61h34Z"/>
<text x="175" y="160">LA</text>
</svg>