<?xml version="1.0" encoding="utf-8"?>
<!DOCTYPE svg PUBLIC "-//W3C//DTD SVG 1.1//EN" "http://www.w3.org/Graphics/SVG/1.1/DTD/svg11.dtd">
<svg version="1.1" xmlns="http://www.w3.org/2000/svg" width="1000" height="916" viewBox="0 0 1000 916">
  <path class="state" d="M863,678l5,8 14,6 -18,13 14,5 -18,8 -2,14 -13,-15 -24,2 18,19 -15,2 -1,5 -16,5 9,16 23,12v17h34l-2,9 37,1 20,32 -5,24 -26,4 -26,21 20,-28 -3,-26 -26,6 -12,-13 6,-12 -24,-9 -2,-10 -31,3 -5,-6 -12,-7 -56,-23 12,-10 -12,-17 3,24 -12,12 33,18v23l-6,5 6,19 -10,14 -25,12 -4,-11 -16,-38 -12,21 -3,-27 -28,23 -6,7 -4,-3 -14,20 -23,-2 -20,-5 23,-15 -21,-4 -22,14 -16,-21 20,-13 -22,-2 -29,-29 -41,-11 -6,-20 -16,2 5,-23 -48,-1 10,-18 -29,6 -28,14 -14,-4 30,36h-21l-20,10 -66,-10 -73,-33 -36,-12 -41,2 -56,6 -18,10 -15,-27 14,-11 12,-26 17,-14v-49l-11,-8 13,-23 -5,-30 8,-5 24,-46 7,-43 -1,-34 -11,4 -14,-30 -7,-45 -13,-3 -8,-17 8,-20 -23,-45 -20,-18 4,-218 352,8 161,1 -8,18 21,-14 5,17 -14,16 -1,19 16,7 -16,13 10,21v20l23,7 -7,13 16,4 -12,9 -1,20 -10,-8 -22,10v13l21,2 -18,16 -21,42 -15,1 -9,48 -21,2 20,8 -20,9 2,35 -12,-13 10,32 -25,7 12,14 -7,13 11,16 -13,8h206l141,-3 -10,39 -8,9 -1,27 9,23 20,18 7,36 13,22 -25,34 -18,-4 -9,11 9,13 29,15 13,-6 4,-20 23,-17 -6,15ZM409,745l35,17 -22,18 -37,-19ZM812,799l17,6 -10,8 -25,-1ZM530,803l15,9 -2,19 -32,-14Z"/>
<text x="500" y="458">LA</text>
</svg>