<?xml version="1.0" encoding="utf-8"?>
<!DOCTYPE svg PUBLIC "-//W3C//DTD SVG 1.1//EN" "http://www.w3.org/Graphics/SVG/1.1/DTD/svg11.dtd">
<svg version="1.1" xmlns="http://www.w3.org/2000/svg" width="1000" height="616" viewBox="0 0 1000 616">
  <path class="state" d="M850,464l-10,1 -15,25 -50,9 10,-16 -3,-52 -21,-7 -7,31 -21,10 -23,-5 -7,45 -23,6 -5,-22 -17,22 -4,-58 -17,-5 -17,-27 -18,-10 -3,-42 -12,1v-44l-111,3v-5l-253,-6 -16,14 1,-14 -182,-8 -1,-14 68,-233 326,14 190,6 11,-15 19,1 -2,-20 15,-10 16,5 9,-18 34,-11 22,6 15,80 32,-16 14,19 -16,16 -56,20 7,9 -40,38 7,6 -21,32 24,18 24,-10 27,9 18,38 15,20 -6,27 -12,1 13,18 30,10 5,44 33,21 31,3 9,7 17,-13 37,-10 14,-12 -4,-34h-15l-5,-43 -16,-12 -15,14 -11,-16 15,-5 34,14 19,29 14,46 5,31 -11,-10 -8,20 14,2 -4,20 -11,-7 -63,15ZM798,526l6,12 28,7 6,17 -90,8 22,-37 26,-18ZM955,558l15,30 -14,12 -28,-1 -30,-13 8,-6 29,6 23,-18Z"/>
<text x="500" y="308">MA</text>
</svg>