<?xml version="1.0" encoding="utf-8"?>
<!DOCTYPE svg PUBLIC "-//W3C//DTD SVG 1.1//EN" "http://www.w3.org/Graphics/SVG/1.1/DTD/svg11.dtd">
<svg version="1.1" xmlns="http://www.w3.org/2000/svg" width="350" height="216" viewBox="0 0 350 216">
  <path class="state" transform="scale(0.1)" d="M3345,1958l50,124 -33,20h-117l-84,-31v-41h101l16,21 50,-31 34,-41 -34,-11v31l-50,31 67,-72M2978,1629h-34v31l-33,52 -167,20v-133l16,-31v-93l-66,31v-41l-51,20 34,31v41l-34,-20v62h-66v30l-84,-10 -17,31v92h-50v31l-50,10 -50,-30v30l-33,-41v-154l-67,-20 67,-72 16,-93h-16v72l-17,31 -50,31 -34,-21 -16,-41 -84,-51v-134l-33,10v-154h-234v11h-151v-21h-284v-10h-518l-83,-11 -34,42 -33,10v-52h-150l-17,-10h-201v-10h-183l-67,-10 -17,-41 17,-83 16,-61v-52l34,-61 17,-113h33v-62l33,-52v-61l34,-113 33,-113 17,-52 83,11h234v10h184l50,10h201v10h217v11h251l16,10h284v10h301v-20l50,-41 50,10 -16,-62 33,-31 84,11 16,-62 67,-10 34,-31h50l16,31h34l17,51h-67l16,21h51v82l-17,-21v62l17,-10 33,72h84l16,-31 34,-10v30h16v31l-16,21v31l-34,20 17,-41 -33,10 -17,41 -100,11 -17,20 -67,11 17,51 33,-31v41l-33,10v31l-34,-10 -67,62 34,82 -34,-21v31l-50,-31 34,113 33,21 34,-21 -17,42 67,-21v-62l16,41 51,11 83,61v41l84,114v61h-34v41h-33l33,62 50,21h50l34,30v144l67,62 67,20h100v21l-50,-10v20h83l17,-31 50,-30h67l100,-62 -17,-51v-62l-16,-41 -50,-10v-103l-17,-31 -67,-21 -17,52 -33,-21 -17,-41 67,-10 84,31 50,41v31l50,61 17,52v82l33,62v51l-33,-21v31l-34,10 50,31v62l-16,-10h-117l-34,20h-50l-50,21 -33,-10 -84,30h-33M2694,1763l-51,72 -66,10 117,-82M2794,1845l33,-20v72l100,30v41h-167l-117,31v31h-33l-33,-31v-31l66,21v-41l51,-51v-31l33,-31 67,-31v41"/>
<text x="175" y="108">MA</text>
</svg>