<?xml version="1.0" encoding="utf-8"?>
<!DOCTYPE svg PUBLIC "-//W3C//DTD SVG 1.1//EN" "http://www.w3.org/Graphics/SVG/1.1/DTD/svg11.dtd">
<svg version="1.1" xmlns="http://www.w3.org/2000/svg" width="350" height="185" viewBox="0 0 350 185">
  <path class="state" transform="scale(0.1)" d="M2476,771v61l-50,9 17,53 -34,17v-79l34,-44 17,-61 16,44M2326,1412l17,27 66,-9 -16,61 50,62 -17,114 -17,-44h-33v-96l-33,61h-50l-17,-61 -100,-27h-84l-17,-52v-62l-33,-18 17,80 -101,-53v-53l-33,-35 -67,26 -50,44 -50,-9 -17,-26v-123l17,-26h50v-53l50,-9v-61l67,-27v-97l83,-70 -83,-105h-33l-34,44 -17,-18 -83,-9v-52l-84,-36 -83,-8 -50,-71 16,-35 34,-9v-44l-50,-17 -17,-44 -134,-18v-96l-50,-44 34,-18 -67,-9 -34,-70h34v-35h-117l-17,-53 -67,-26 -50,-18 -33,26 -17,53 -33,-17 -101,17 34,27h-50l16,43 -16,-17v44l-167,-18 -67,-52 16,-36 -33,-26 -17,79 -33,44 -84,53 -117,-18v44l-16,44 -84,18v44l-83,26 -84,88v-211l17,-106v-184h250h568v17h1721v-17h167l34,17v247h17v228l16,9v193h17v220h17v211l16,9v88h452l-17,52 -17,44h34l-34,62v44l-83,26v53l-34,53 -50,26v53l-17,17 -183,18v26l-101,-8 -67,44v-88l51,-18v-26h-51v-53l67,-9v-26l-67,17 -66,-8v-36l66,-8v-53h-50v-70l50,-18v-44h-16v35l-50,35v62l-50,-53 33,-9v-44l-33,-8v35l-51,35 34,9 -17,52 -17,-43 -66,-36 -34,-44 -17,-26v44l-33,-18 -50,-114 100,-26v-53l-67,9 17,-44 84,-18 16,35 50,18 67,-18 -133,-52 -34,-53h50v-35l-50,53 -33,-44 33,-9 -17,-44 -50,61v-61l-33,44v-44l33,-62 50,18v35l17,26 67,-44 -67,18v-61v-27h67l-67,-61h-33v-44h33v-71l67,-61 -67,17v-52v61l-33,35v-70l-34,-9 34,-61 16,-71 17,-8v-36h50v-52h101l-34,-9 50,-79 50,-9v18h50l-66,-27 50,-53 -34,-26v53h-33l-33,35 16,-88 -67,9v17l-66,36 33,26v44l-67,26v27l-33,26v-105l-34,96 17,35 -33,9v-70h-34l-17,79 -50,-9 34,35 -17,71h-50l-33,-44 -84,-9 50,18 34,35v44l66,17 -16,79 50,44 -67,27 -33,-27v-35l-34,18 67,35 17,88 -34,-18 17,44 -17,79 -33,27 17,44v79h16v140l100,106 -16,53 -50,-9 -34,-71 -67,-17 -33,-27 -17,-52v-79h-16v61l16,9v61l17,27 117,70v35M3362,1474l-34,53v61l-16,-44 16,-44 34,-26"/>
<text x="175" y="92">MD</text>
</svg>