<?xml version="1.0" encoding="utf-8"?>
<!DOCTYPE svg PUBLIC "-//W3C//DTD SVG 1.1//EN" "http://www.w3.org/Graphics/SVG/1.1/DTD/svg11.dtd">
<svg version="1.1" xmlns="http://www.w3.org/2000/svg" width="1000" height="527" viewBox="0 0 1000 527">
  <path class="state" d="M962,377l3,19 -11,23 -21,4 -3,19 -21,24 -3,17 -74,10 -31,10 -5,-11 25,-23 -19,1 5,-22 -26,-8 29,-12 -22,-11 15,-28 -14,7 -9,25 -13,-16 12,-4 -12,-14 -9,40 -24,-25 -24,-17 -9,-21 29,-28 -14,6 -4,-19 52,8 -58,-39 -9,3 6,-31 11,-5 17,27 -3,-29 20,-10h-22l-6,-21 13,-10 -4,-16 23,-21 -33,21 -11,-25 22,-51 29,-15 23,-31 -17,14 7,-30 -27,6v26l-26,25 -2,-30 -12,26 -15,-8 6,16 -21,10 8,11 -10,19 -9,-16 -28,-1 38,34 3,11 -17,4 24,18 -18,8 2,20 -15,13 11,5 -17,20 9,12 3,56 27,40 -15,15 -13,-24 -27,-15 -6,-36 1,38 37,27 3,11 19,3 2,25 15,23v21l-23,-15 -4,-16 -19,8 -2,-11 -27,-21 -37,-3 -30,-20 -14,-27 -36,23 -9,-6 -5,-31 19,-29 15,-7 2,-16 15,-8 2,-25 24,-24 -27,-29 -17,17 -25,-11 -2,-14 -20,-10 -27,-4 -12,-13 13,-29 -23,-21 -40,-8 1,-25 -20,-20 -7,-18 11,-10 -38,-1 -13,-18 -20,-8 -21,17 -36,3 -7,28 -41,-6 -28,-19 -32,33 -4,12 -31,-10 -5,15 -28,16 -49,41 4,-142 189,3 216,3h128l248,-3v24l13,157 13,165h131ZM708,221l2,11 -20,5 13,-32Z"/>
<text x="500" y="263">MD</text>
</svg>