<?xml version="1.0" encoding="utf-8"?>
<!DOCTYPE svg PUBLIC "-//W3C//DTD SVG 1.1//EN" "http://www.w3.org/Graphics/SVG/1.1/DTD/svg11.dtd">
<svg version="1.1" xmlns="http://www.w3.org/2000/svg" width="229" height="350" viewBox="0 0 229 350">
  <path class="state" transform="scale(0.1)" d="M1325,2460l33,16 -11,67h-44l-11,-50 33,-33M735,2844l-11,-100h-22v-101l-22,34 22,17v116v67l-22,-16v-101l-44,84v-34l-43,34 32,-50v-34l-76,34 -11,16h-33l-11,67 -33,34 33,16 -11,67h-65l-22,34 22,50 -55,33v34h-44l-32,33v84l-33,16 -11,67 -88,-33 11,-84 -43,-67 -44,-16 11,-67v-100h-11v-736l-11,-16v-401l-11,-17v-134l77,-16 32,83h22l22,-150 44,33h44v-33l-44,-34 33,-117h21l33,-33 88,-33 -11,-67 33,-34 43,-16v-67h-22v-84l33,-16 -22,-67 55,-117 66,-34 32,-234 99,-133h11l98,-151 33,-33 153,-234 87,17v100l11,50 55,17h87v-17h77v-33l76,-17 44,17 -11,-67h22h76l44,67 77,50 43,83h44v318h11v451h11v100l-22,167 44,17 43,33 44,34h77v67h-44l44,83 -11,50 -22,34 87,117 22,-50h44l54,50 11,67 22,16v50h-54v84l54,-67 33,33 -11,67h-22l-22,50 -87,67 -22,-16v-51l-44,17 11,50 -65,17 -33,-33v83h-77v34l-43,-51h-33v67l-33,-16 -11,66 -22,-50h-32l32,34 -54,66 -22,-50v-50l-66,-33 -32,50h-33l-33,33v-66l-22,16v67l-55,-17v84l11,33h-32l-11,-33h-33l-22,-34 -44,17 22,-33 -11,-84 11,-16v-51h-22v84h-65l-33,17 22,33v67l-44,33 -22,50 11,67 -33,67h-43v50h-44l11,-33h-98v50l-22,33 -44,-16 -11,-50v100h-44v-100l-32,16 -22,50h32l-32,84M1216,2376l-22,117v-100l22,-17M1259,2627h-43l10,-50 33,50M1336,2610l22,-17v50l-22,17v-50"/>
</svg>