<?xml version="1.0" encoding="utf-8"?>
<!DOCTYPE svg PUBLIC "-//W3C//DTD SVG 1.1//EN" "http://www.w3.org/Graphics/SVG/1.1/DTD/svg11.dtd">
<svg version="1.1" xmlns="http://www.w3.org/2000/svg" width="229" height="350" viewBox="0 0 229 350">
  <path class="state" transform="scale(0.1)" d="M735,2844l-11,-100h-22v-101l-22,34 22,17v116v67l-22,-16v-101l-44,84 -11,-84h-65l-22,50h-33l-11,67 -33,17 44,67 -22,33h-65l-22,67 22,17 -55,33v34h-44l-32,33v84l-33,16 -11,67h-44l-44,-33v-101l-32,-33v-17l-44,-16 -11,-34 22,-33v-100h-11v-736l-11,-16v-401l-11,-17v-134l77,-16 32,83h22l11,-134 33,-16 22,33h44v-33l-44,-34 33,-117 54,-33 66,-17 11,-83 33,-34 43,-16 11,-51 -33,-16v-84l33,-16 -22,-51 55,-133 66,-34 21,-117 11,-117 66,-66 142,-218 33,-33 153,-234 87,17 11,150 55,17h87v-17h77v-33l43,-17 77,17 -11,-67h22h76l44,67 77,50 43,83h44v318h11v451h11v184l-22,33 22,34 -22,16 33,34 33,-17 10,33 55,34h77v67h-44l44,83 -11,50h-22l87,151 22,-50h44l54,50 11,67 22,16v50h-54v84l32,-50 33,-17 22,33 -11,67 -44,17v33l-87,67 -22,-16v-51h-33l-11,84 -32,-50 11,50h-33l-33,-33v83h-77v34l-43,-51v-33l-33,33v67l-33,-16 -22,66 -11,-50h-32l32,34 -54,66 -33,-116 -33,16v-33l-54,50h-33l-33,33v-66l-33,50 -44,16v84l11,33h-32l-11,-33h-33l-22,-34 -44,17 22,-33 -11,-84 11,-16v-51h-22v84h-65l-33,17 22,33v67l-44,33 -22,50 11,67 -33,67h-43v50h-44l11,-33h-98v50l-22,33 -11,-16h-33l-11,-50 -11,100h-33v-100l-54,50 32,66ZM1522,2343h32l33,50 -11,50h-54v50h-33l-33,-50 11,-67 22,-33ZM1325,2460l33,16 -11,67h-44l-11,-50ZM1336,2610l22,-17v50l-22,17ZM1259,2627h-43l10,-50ZM1216,2376l-11,84 -22,33 11,-100Z"/>
<text x="114" y="175">ME</text>
</svg>