<?xml version="1.0" encoding="utf-8"?>
<!DOCTYPE svg PUBLIC "-//W3C//DTD SVG 1.1//EN" "http://www.w3.org/Graphics/SVG/1.1/DTD/svg11.dtd">
<svg version="1.1" xmlns="http://www.w3.org/2000/svg" width="655" height="1000" viewBox="0 0 655 1000">
  <path class="state" d="M210,811l-1,-1 -12,11 -9,-24 -19,16 14,-23h-12l-38,41 10,23 -28,11 3,13 -12,19 -16,3 -21,54 -25,-13 3,-21 -26,-33 4,-9 -3,-75 -1,-209 -5,-115 25,-2 8,19 13,-43 21,12 -11,-27 25,-34 23,-11 -2,-17 23,-19 -6,-37 11,-17 -9,-9 14,-32 22,-16 10,-60 113,-161 23,4 2,39 21,16 47,-22h28l5,-17 17,1 40,33 24,28 5,239 -2,56 19,10 34,5 5,21 -13,4 13,22 -10,22 21,32 10,-13 17,4 12,19 6,32 -19,4 8,22 6,-19 16,7 -24,42 -20,10 -1,-19 -17,7 -2,16 -20,-11 -2,27 -15,-6 -11,14v-23l-26,40 -8,-18 -12,35 -11,-27 -12,-12 -5,13 -19,1 -12,13 2,-22 -22,41 7,17 -35,-26 -11,9 10,-43 -7,-11 -6,18 -25,10 8,23 -18,30 -8,38 -20,19 -18,-33 -21,50 -8,-20 -12,17 -2,-35 -12,17ZM434,667l20,22 -35,18 -4,-13Z"/>
<text x="327" y="500">ME</text>
</svg>