<?xml version="1.0" encoding="utf-8"?>
<!DOCTYPE svg PUBLIC "-//W3C//DTD SVG 1.1//EN" "http://www.w3.org/Graphics/SVG/1.1/DTD/svg11.dtd">
<svg version="1.1" xmlns="http://www.w3.org/2000/svg" width="304" height="350" viewBox="0 0 304 350">
  <path class="state" transform="scale(0.1)" d="M2395,2276l-14,117 116,33 72,-67v-33l44,-33 28,-67h58l15,-34h72l44,34 14,100h29v100l29,50 15,67v84l43,83 -14,34v117l-15,66 -87,-66 -29,50 -14,50v67l-58,33 -44,50v84l-29,83 -72,50v51h-87l-29,16h-246l-29,17h-116v-33h-752l72,-67 29,-117 58,-50 43,-117v-101h15v-150l-44,-150 -58,-50v-101l-43,-16v-51l43,-33v-100l-14,-67 43,-33v-34l73,-67 -15,-33v-117l-14,-33 72,-34v-83l44,-17h57v-34l44,-33v-33l43,-17 -14,33v101h-15v83l29,-33v-67l29,-17 -29,117 58,-83v-184l44,-34h87l28,-16 -57,-34 -15,-33 15,-67 43,-17v-33l101,-17 44,50h101l29,17 29,67h72l15,33h58l29,34h58l29,33v50l14,17 -29,50v67l58,17v284l-29,33 -58,17v100h-43l-15,33h-43ZM875,739l-43,33h174l14,33 43,17 29,84 44,16v51h116l29,-17 29,50h101v-33l101,-51 44,-33h246l72,-50h102l-15,17v133h116l29,-16 14,33h44v-33h43l44,66 -15,101 44,-17 29,17v50l57,16 -14,34h-87l-58,-17 -130,-17v84h-29l-29,-33 -101,-67h-116l-15,-17 -29,67h-72l-14,17h-145l-29,33v50l-87,34v33h-44l29,-67h15l29,-50h-101l14,50 -72,50v-50l-29,-50v84l-58,33 -29,84 -44,50v33l-72,117 -43,-33v-51l29,-66 -87,16 29,-50v-133l-44,-17 -14,-34 -44,17 -14,-50 14,-33h-58l-29,-34h-115l-58,-17 -73,-66h-58l-43,-34 -217,-67h-44l-29,-117h-72l14,-33 102,-17 101,-83h145l58,-50 43,-34h58l15,-50 58,-17 72,17 14,50v34v100v-34ZM1787,1357h15v83h-44v-50ZM2381,1240l58,-50 -15,-34 58,17 29,67 -29,17 -29,-17ZM2251,956h14v100l-43,-67ZM977,471l58,17v33h-87v34l-44,33 -58,17 -14,50h-29l-15,67 -29,-17 29,-50h-72v-67l101,-67 29,-33 58,-17ZM716,137h43l-43,50 -58,17 -58,33 15,34 -87,17 14,-67 116,-34 15,-33ZM1643,1708h-29l-15,-50h29ZM2135,1323h58l14,34h-58Z"/>
<text x="152" y="175">MI</text>
</svg>