<?xml version="1.0" encoding="utf-8"?>
<!DOCTYPE svg PUBLIC "-//W3C//DTD SVG 1.1//EN" "http://www.w3.org/Graphics/SVG/1.1/DTD/svg11.dtd">
<svg version="1.1" xmlns="http://www.w3.org/2000/svg" width="310" height="350" viewBox="0 0 310 350">
  <path class="state" transform="scale(0.1)" d="M80,939l325,-668 29,-50 74,16 192,-117 104,-33 1196,718 30,117 73,101 45,-34 59,17 44,-33v100l15,67 59,66 103,-33 74,67 -59,67 399,250v17l133,652 44,200 -88,301 -15,33v84l-15,83 -118,117 -104,67v117l15,34 -88,83 -30,34h-103l-15,16h-236v17h-163v-33h-901l44,-251 30,-117 -30,-334 -14,-50v-151l14,-100 74,-317 74,-234 59,-84 104,-117 -74,-33 -104,-50h-118l-29,50 -74,67 -15,50h-74l-29,-34v-50l29,-67 -74,17v-50l30,-17v-100l-59,-50h-59l14,-50 -14,-34 -118,-33h-89l-74,-50 -162,-50 -104,-50h-59l-89,-51 -14,-66 -74,-34"/>
</svg>