<?xml version="1.0" encoding="utf-8"?>
<!DOCTYPE svg PUBLIC "-//W3C//DTD SVG 1.1//EN" "http://www.w3.org/Graphics/SVG/1.1/DTD/svg11.dtd">
<svg version="1.1" xmlns="http://www.w3.org/2000/svg" width="867" height="1000" viewBox="0 0 867 1000">
  <path class="state" d="M682,651l-4,21 8,15 21,11 22,-21 20,-38 30,-14 19,5 17,24 14,60 2,30 13,30 -9,60 -29,-5 -12,44 -22,17 -4,33 -15,13 -13,28 -30,4 -115,7v-10l-73,2h-145l22,-19 14,-34 14,-17 11,-34 4,-29 -4,-60 -20,-45 -10,-40 11,-26 -9,-31 26,-44 3,-49 17,-8v-20l26,-6 17,-33 2,58 7,2 18,-26v-46l21,-18h19l-14,-30 17,-19 -4,-8 35,2 16,12 28,2 13,21 58,18 15,11 10,36 -17,3 19,28 -2,69 -21,15 -3,27 -28,10ZM250,210l-9,8h33l29,19 8,20 22,23 31,-5 35,17 14,-16 33,-22 67,-1 29,-14 17,7v34l48,9 24,-12 18,45 23,30 -50,-4 -12,6 -12,-12 -10,31 -25,-24 -33,-12h-20l-13,17 -57,3 -13,25 -33,14 14,-23 -26,-1 -5,20 -13,7 2,-36 -11,27 -19,21 -20,42 -18,28 -13,-11 10,-23 -25,-3 10,-19 2,-27 -9,-13 -27,-9 -5,-20 -31,-10 -16,5 -42,-24 -100,-32 -11,-25 -19,-6 5,-9 36,-10 28,-21h31l30,-22h16l8,-14 23,-17 21,33 -7,35ZM679,353l21,-21 17,15 -9,10ZM279,136l14,11 -23,7 -29,23 -18,30 -20,-37 19,-20 22,-12ZM203,38l15,-3 -16,22 -50,26 -1,-17Z"/>
<text x="433" y="500">MI</text>
</svg>