<?xml version="1.0" encoding="utf-8"?>
<!DOCTYPE svg PUBLIC "-//W3C//DTD SVG 1.1//EN" "http://www.w3.org/Graphics/SVG/1.1/DTD/svg11.dtd">
<svg version="1.1" xmlns="http://www.w3.org/2000/svg" width="871" height="1000" viewBox="0 0 871 1000">
  <path class="state" d="M550,464v95l-5,8 -35,17 -23,33 -2,23 13,1 14,19 -12,25v75l-5,13 30,29 24,1 12,18 37,19 4,16 34,31 19,5 23,35 4,44 -170,4h-173l-148,-3 -120,-4 8,-200 2,-92 -25,-17 -17,-36 32,-31 5,-41 -5,-41 -13,-23 -6,-29 4,-40 -3,-20v-83l-20,-66 -9,-38 5,-15 -3,-46 8,-21 -12,-50 105,4 116,3v-61l32,10 11,36 5,52 15,13 75,12 5,18 35,-5v-7l27,-8 28,2 23,14 2,13 22,2 15,36 12,-21 22,-1 5,13 31,12 16,23 39,-9 34,-24 16,24 70,-5 26,18 26,-5 -12,17 -24,14 -62,23 -25,16 -41,39 -30,38Z"/>
<text x="435" y="500">MN</text>
</svg>