<?xml version="1.0" encoding="utf-8"?>
<!DOCTYPE svg PUBLIC "-//W3C//DTD SVG 1.1//EN" "http://www.w3.org/Graphics/SVG/1.1/DTD/svg11.dtd">
<svg version="1.1" xmlns="http://www.w3.org/2000/svg" width="305" height="350" viewBox="0 0 305 350">
  <path class="state" transform="scale(0.1)" d="M78,271l73,17h421h277v-201h14h87l29,33v84l44,150v84l29,33h131v34h102h58v83h58l73,-16v-34l29,-33h145l58,33 44,50v34h87l15,100 72,17 -14,-67h101l15,67 102,16 14,50h58v34l102,-17 58,-67h44l58,-33 29,83h73l43,-16h146l29,50h145l-58,67 -73,16 -14,17 -87,34 -44,33h-44l-58,50 -58,17 -29,50h-29l-73,100 -43,34 -58,83 -117,84 -43,67h-29l-88,83 -29,50h-29v334l-14,34h-58l-29,50 -73,17v66l-44,34v83h44v51l43,16 -14,67 -29,17v334h29l58,83h87l15,51 102,33 58,50 14,50 29,50h44l14,51 88,16 87,117v117l14,50h-159l-44,17h-1337l-44,-17h-552v-300l14,-34v-317l15,-17v-384l-88,-34 -14,-50 -44,-50v-33l87,-51 30,-50v-300l-44,-51 -15,-66v-234h-14v-401l-58,-134v-84l-44,-16v-84l29,17v-234h15l-15,-100h-29v-117"/>
<text x="152" y="175">MN</text>
</svg>