<?xml version="1.0" encoding="utf-8"?>
<!DOCTYPE svg PUBLIC "-//W3C//DTD SVG 1.1//EN" "http://www.w3.org/Graphics/SVG/1.1/DTD/svg11.dtd">
<svg version="1.1" xmlns="http://www.w3.org/2000/svg" width="350" height="311" viewBox="0 0 350 311">
  <path class="state" transform="scale(0.1)" d="M104,79h133h318l17,15h1152v-15h335l33,59v30l67,15 17,133h-17v104l17,74 33,15 -17,74 50,30 -16,29 100,119 50,15 33,74h34l117,104v74h17v119l33,44h50l17,-59h50l33,30h50l51,29v45l-34,29v104l-33,30v59l-50,59v89l50,30 50,74h33l50,60h34v59l67,-30 83,74v30l67,15v89v59l50,15 17,59 -67,30v44l84,89v45l66,30 17,-45 17,59 33,-14 17,59 -33,30v44l33,15 -50,15 17,59 -17,45 -84,-30 -16,74 -34,30v-74h-50l33,74 -33,14 33,60h-50v29l50,15h-83v45l50,29v30l-50,15v59h-134v15h-234l84,-89v-30l83,-74v-74h-33l-17,-74h-217v30h-1871l-34,-30h-167v-386h17v-622h17v-579h16v-104l-33,-14 -50,14v-44l-84,-30 34,-59 -84,-59 -33,-75h33v-59l84,-30 -34,-133 -67,44 -16,-44 -67,-15 -17,-44 -50,-15v-45l-33,-59v-44h-50l-51,-89v-119l-33,44 17,-44"/>
</svg>