<?xml version="1.0" encoding="utf-8"?>
<!DOCTYPE svg PUBLIC "-//W3C//DTD SVG 1.1//EN" "http://www.w3.org/Graphics/SVG/1.1/DTD/svg11.dtd">
<svg version="1.1" xmlns="http://www.w3.org/2000/svg" width="350" height="311" viewBox="0 0 350 311">
  <path class="state" transform="scale(0.1)" d="M1942,79h117l33,59v30l67,15 17,74 -17,59v104l17,74 33,15 -17,74 50,30 -16,44 33,15 67,89 50,15 33,74h34l117,104v74h17v119l33,44h50l17,-59h50l33,30h50l51,29v45l-34,29v104l-33,30 -34,118h-16v89l50,30v30l50,44 117,60v59l83,-15 101,89 33,15v89v59l50,15 17,44 -67,45v44l84,89v45l66,30 17,-45 17,59 33,-14 17,59 -33,30v103l-17,75 -84,-30 -16,74 -34,30v-74h-50l33,148h-50v29l50,15h-83v45l50,29v30l-50,15v59h-134v15h-234v-30l84,-89 83,-74v-74h-33l-17,-74h-217v30h-1871l-34,-30h-167v-386h17v-622h17v-579h16v-104l-33,-14 -50,14 -84,-74v-89l-50,-29 -33,-45 33,-30v-59l84,-30 -34,-133 -67,44 -50,-59 -50,-15v-29l-50,-15v-45l-33,-59v-44h-50l-51,-89v-119l-33,44v-44h150h318l17,15h1152v-15Z"/>
<text x="175" y="155">MO</text>
</svg>