<?xml version="1.0" encoding="utf-8"?>
<!DOCTYPE svg PUBLIC "-//W3C//DTD SVG 1.1//EN" "http://www.w3.org/Graphics/SVG/1.1/DTD/svg11.dtd">
<svg version="1.1" xmlns="http://www.w3.org/2000/svg" width="1000" height="888" viewBox="0 0 1000 888">
  <path class="state" d="M556,25l30,-1 40,46 -9,44 9,42 11,30 40,35 9,17 43,32 12,63 15,8 13,-19 50,21 -15,23 6,19 -27,52 2,21 34,28 34,36 9,-7 48,37v25l15,28 -13,19 22,47 14,8 4,-15 23,23 -14,41 7,9 -15,19 -10,-12 -23,32 1,-20h-11l4,59 -24,4 17,13 -16,30 -99,2 11,-21 32,-29 2,-21 -14,-20 -217,3h-254l-185,-3 8,-268 2,-107 4,-111 -31,-9 -16,-34 -23,-29 21,-34h15l-11,-31 -20,7 -45,-35 4,-14 -31,-39 -9,-37 -10,-10 192,8h186Z"/>
<text x="500" y="444">MO</text>
</svg>