<?xml version="1.0" encoding="utf-8"?>
<!DOCTYPE svg PUBLIC "-//W3C//DTD SVG 1.1//EN" "http://www.w3.org/Graphics/SVG/1.1/DTD/svg11.dtd">
<svg version="1.1" xmlns="http://www.w3.org/2000/svg" width="624" height="1000" viewBox="0 0 624 1000">
  <path class="state" d="M15,911l24,-50 36,-26 25,-3 39,-23 82,16 15,32 -2,21 -14,33 -18,19 -18,5 -10,15 -37,13 -10,-3 -28,15 -56,-8 -23,-24ZM60,916l15,-16 17,21 33,-4 17,-25 31,-8 1,-23 -32,-4 -25,17 -30,5ZM385,190l42,-8 26,-42 3,-36 31,-47 46,-32 35,2 31,33 8,24 -20,57 -3,43 -23,12 -11,20 -21,13 -32,6 -4,47 3,20 -12,39 -25,32 -29,12 -14,27 -28,27 -42,7 -34,-19 -11,-28 2,-20 13,-25 52,-25 -16,-11 -19,-36 4,-41 11,-23 26,-26ZM496,171l11,-7 17,9 4,-10 -11,-32 35,-46 -14,-11 -22,27 -34,24 -16,41ZM381,270l2,16 15,2 6,21 18,28 14,-24 8,-37 -18,-28 8,-7 -10,-32 -39,46Z"/>
<text x="312" y="500">MP</text>
</svg>