<?xml version="1.0" encoding="utf-8"?>
<!DOCTYPE svg PUBLIC "-//W3C//DTD SVG 1.1//EN" "http://www.w3.org/Graphics/SVG/1.1/DTD/svg11.dtd">
<svg version="1.1" xmlns="http://www.w3.org/2000/svg" width="219" height="350" viewBox="0 0 219 350">
  <path class="state" transform="scale(0.1)" d="M1058,1357l21,-67 31,-50 156,-84 -31,-33 -62,-117 10,-167 42,-84 93,-83h32l166,-50 73,-117v-101l52,-133 63,-67 73,-50 72,-67h94l104,33 42,51 42,100v33l-42,134 -31,33v151l-42,50 -52,17 -31,66 -63,50h-62l-63,17 -21,167 11,101 -42,100 -62,100 -73,50h-52l-21,67 -62,84 -63,50 -73,16h-73l-93,-33 -53,-84 -10,-83M1631,588l21,17h62v-17l125,17 10,-50h-20l-21,-50 10,-67 73,-50v-50h42v-67l-52,-17 -63,67v33h-62l-63,84h-31v83l-31,67M1339,939v67h63l10,67 42,33v67h41l11,-50h31l-10,-50 31,-100 -11,-34h-31l-21,-67 21,-16v-101l-41,-16 -11,16 -41,34 -42,50v33h-31l-11,67M1225,1374l104,-17v-50l-104,67M58,3178l42,-67 42,-33v-67l52,-50 104,-50h52l94,-67 52,-34h62l31,51h105l10,16 73,17 31,33 21,67v67l-21,50 -42,50v17l-52,84 -62,16 -63,67 -135,17 -104,50 -42,-17 -62,17 -52,-17 -94,-50 -42,-83v-84M215,3211l31,-50h62l21,17v50l21,-17h104l31,-83 42,-17h73l21,-100h-73l-52,-17 -52,50h-32l-31,34h-83l-42,83 -41,17v33"/>
</svg>