<?xml version="1.0" encoding="utf-8"?>
<!DOCTYPE svg PUBLIC "-//W3C//DTD SVG 1.1//EN" "http://www.w3.org/Graphics/SVG/1.1/DTD/svg11.dtd">
<svg version="1.1" xmlns="http://www.w3.org/2000/svg" width="617" height="1000" viewBox="0 0 617 1000">
  <path class="state" d="M201,812h-106l-78,-2 12,-13 -3,-24 -11,-13 22,-3 -9,-28 18,8 -6,-32 17,-5 -18,-11 20,-1 10,-43 27,-14 3,-13 28,-31 -28,1 1,-13 30,-3 11,-24 -15,-4 5,-17 -23,-10 18,-20 -18,3 -5,-12 14,-9 -12,-9 -1,-19 12,-10 -22,-11 14,-25 -10,-14h17l-8,-42 4,-22 -18,-21 16,-7 -15,-11 15,-10 -1,-14 24,1 -13,-16 9,-11 -12,-9 36,-23 -14,-11h21l1,-28 12,-18 30,-9 8,-41 9,-11 1,-27 35,-18 -11,-18h234h105l17,19 -25,280 -12,138 -15,170 13,219 4,88 -29,1 -1,-11 -22,12 -26,-17 -74,25 3,-12 -29,32 -22,5 -19,-54 -26,-39 2,-25 17,-44Z"/>
<text x="308" y="500">MS</text>
</svg>