<?xml version="1.0" encoding="utf-8"?>
<!DOCTYPE svg PUBLIC "-//W3C//DTD SVG 1.1//EN" "http://www.w3.org/Graphics/SVG/1.1/DTD/svg11.dtd">
<svg version="1.1" xmlns="http://www.w3.org/2000/svg" width="216" height="350" viewBox="0 0 216 350">
  <path class="state" transform="scale(0.1)" d="M703,2844h-649l52,-34 -31,-50 20,-66 -41,-34h72l10,-50 -30,-33 20,-34 21,50 20,-50 -31,-17v-50l62,-16v-34l-41,17v-34h41l21,-83h72v-17h-62l11,-50 30,-17v34h31l-10,-34 41,-33 11,-50h51v-34h-41v-33l41,33v-33h31l21,-50 -31,17h-72l10,-51 93,-16 10,-34 51,-16 -61,-34 20,-50h-51l-31,-33 10,-50 21,33 41,17 -10,-34h-31l-11,-33 42,-17h-93l21,-67h30v-50h-51v-50l62,-33 -11,-67h-30v50h-42v-33l42,-84 -42,-33h72v-67l-20,-17 -10,-67 51,-67h-21l-20,50h-31l-21,-33h52v-33h-41l-21,-67 62,-17 -10,-33 -52,-17 31,-33 31,33h51l-10,-33h-51v-51l92,17 -10,-33h-31l10,-101 -31,-16 62,-34h62v-66h-41v-17l72,17 10,-51h-51l-21,-33 52,33 10,-50h41v-67h41v34l21,-50h41l11,-34 -21,-33 31,-34 -21,-50v-50l21,50 41,-50h-41v-67l21,-16v50h20l10,-67 -20,-50h31v50l41,-33 31,33v-50h31v-34l-31,-33h1195l11,33 41,34 -10,67v100h-11v100h-10v117l-10,17v83l-11,34v83h-10v117h-10v117h-10v117l-11,17v117h-10v117h-10v117h-11v117h-10v133h-10v117h-11v117h-10v101l-10,16v101h-11v133h11v167h10v167l10,17v150h11v201h10v167l10,84 -41,50 -62,-34 -10,-50 -21,50h-82l-62,-50v34h-93l-10,16 -134,34 -10,-34h-52l21,50 -41,17 -31,50 -73,17 -41,-67 11,-67h-31v-50l-83,-83 -10,-151 31,-16v-67h20l11,-67Z"/>
<text x="108" y="175">MS</text>
</svg>