<?xml version="1.0" encoding="utf-8"?>
<!DOCTYPE svg PUBLIC "-//W3C//DTD SVG 1.1//EN" "http://www.w3.org/Graphics/SVG/1.1/DTD/svg11.dtd">
<svg version="1.1" xmlns="http://www.w3.org/2000/svg" width="1000" height="577" viewBox="0 0 1000 577">
  <path class="state" d="M370,524v20l-68,-5 -7,13 -28,-7 -12,16 -12,-10 -8,-38 -27,-12 2,-22 -22,-31 -4,-33 -17,-11 -28,26 -16,-12 14,-34 -5,-16 7,-46 10,-29 -25,-3 -50,-72 -31,-23 3,-30 -21,-33 8,-118 190,12 152,5 147,1 132,-2 105,-4 180,-12 35,459 -192,13 -168,5 -182,2 -28,-1v60l-22,-30Z"/>
<text x="500" y="288">MT</text>
</svg>