<?xml version="1.0" encoding="utf-8"?>
<!DOCTYPE svg PUBLIC "-//W3C//DTD SVG 1.1//EN" "http://www.w3.org/Graphics/SVG/1.1/DTD/svg11.dtd">
<svg version="1.1" xmlns="http://www.w3.org/2000/svg" width="350" height="134" viewBox="0 0 350 134">
  <path class="state" transform="scale(0.1)" d="M3228,35l17,51 17,102 66,77h-50v-70l-33,-39 -17,-121M3211,169l-33,38 -50,-57 33,70h-50l-83,45v25l-101,-13v-44v-38v-51v178h117l84,-25h50v140l33,13v-115l67,-13 34,38v64l-34,57 -50,-25v45l-17,6v57l-50,26 -100,-7 -33,-25 -17,19 -17,-51 34,-13 -84,-6 50,38 -67,19 -66,-25 -51,-7 17,32 117,26 17,38 67,-19v64h-84l50,38 -67,64 -100,-45v32l67,32 67,-13 83,-51v45l67,-26 -16,64h-51v32l-16,38 -34,-19 -33,32 -100,-13 -117,57 -34,32v-19v-64h-33l33,51 -33,13 33,32 -33,19 -84,64v25l-67,58v51l-33,-32v83l-17,32 -33,-13 -184,13 -167,-134 -67,-102 -67,-58 -33,-44 -84,-77 -117,-6h-250l-67,-6 17,-45 -17,-38 -50,-45 -34,19v-44l-183,-20 -318,-6 -67,6 -66,39 -84,6 -33,19h-335h-150l17,-115 100,-12v-64l50,-45 67,-25h100l50,-32 34,-32 50,-25 50,6 33,-83 34,13 17,-51h66l-16,38h16l67,-64 50,-19 50,19 51,-12 50,-90 50,-6 17,-115 150,7 134,19h167v6h802v-6h284v-7h217l150,-19h151l33,70 50,7v76l-17,-19"/>
</svg>