<?xml version="1.0" encoding="utf-8"?>
<!DOCTYPE svg PUBLIC "-//W3C//DTD SVG 1.1//EN" "http://www.w3.org/Graphics/SVG/1.1/DTD/svg11.dtd">
<svg version="1.1" xmlns="http://www.w3.org/2000/svg" width="1000" height="382" viewBox="0 0 1000 382">
  <path class="state" d="M918,47l-10,16 -55,20 -8,10 28,-7 3,7 32,-10 3,42 10,-33 17,-2 8,31 -6,16 -11,-8 -13,29 -26,12 -18,-13 -6,9 -58,-15 60,30 -20,13 8,12 -23,15 6,7 34,-21 1,13h17l-25,32 -12,-11 -8,12 -45,2 -24,26 -35,23 -30,32 -7,30 -40,-2 -20,5 -120,-122 -121,-2 1,-15 -27,-29 -134,-9 -22,3 -68,21 -129,-4 4,-30 30,-9v-15l28,-18h31l34,-24 18,-1 12,-23 27,-14 9,14 36,-25 21,3 13,-22 19,-5 6,-32 161,8 172,-1 122,-3 140,-5 28,61Z"/>
<text x="500" y="191">NC</text>
</svg>