<?xml version="1.0" encoding="utf-8"?>
<!DOCTYPE svg PUBLIC "-//W3C//DTD SVG 1.1//EN" "http://www.w3.org/Graphics/SVG/1.1/DTD/svg11.dtd">
<svg version="1.1" xmlns="http://www.w3.org/2000/svg" width="350" height="134" viewBox="0 0 350 134">
  <path class="state" transform="scale(0.1)" d="M3211,169l-33,38 -50,-57 33,70h-50l17,32 -100,6v32l-101,-13v-82v127h84l17,-19 67,19 33,-25h50v57l-33,45h33l-33,44 66,7v-115l51,-32 50,57v64l-34,57 -50,-25v45l-17,25v38h-50l-33,32 -100,-38 -17,19 -17,-51 34,-13 -84,-6 50,38 -67,19 -66,-25 -51,-7 17,32 84,7 50,44 67,-6v64h-84l67,38 -84,38v26l-100,-45 67,64 150,-64v45l67,-26 -16,64h-51v32l-16,38 -34,-19 -33,32 -100,-13v13l-67,25 -84,51v-19v-64l-33,-6 33,57 -33,13 33,32 -117,83v25l-67,58v51l-33,-32v83l-17,19h-117l-100,13 -167,-134 -67,-102 -33,-19 -67,-83 -84,-77 -117,-6h-250l-67,-6 17,-51 -67,-77 -34,19v-44l-183,-20 -318,-6 -100,32 -134,32 -16,6h-335h-150l17,-115 100,-12v-64l50,-45 67,-25h100l50,-32 34,-32 50,-25 50,6 33,-83 34,13 17,-51h66l-16,38 66,-19 17,-45 100,-19 51,7 33,-77 67,-19 17,-115 150,7 134,19h167v6h802v-6h284v-7h217l150,-19h151l16,38 67,26v96ZM3228,35l17,51 67,179h-34v-70l-33,-39Z"/>
<text x="175" y="67">NC</text>
</svg>