<?xml version="1.0" encoding="utf-8"?>
<!DOCTYPE svg PUBLIC "-//W3C//DTD SVG 1.1//EN" "http://www.w3.org/Graphics/SVG/1.1/DTD/svg11.dtd">
<svg version="1.1" xmlns="http://www.w3.org/2000/svg" width="350" height="210" viewBox="0 0 350 210">
  <path class="state" transform="scale(0.1)" d="M989,2035h-184l-16,-10h-318v-10h-234v-10h-150v-170h17v-350h16v-350v-321h34v-380v-10v-360l17,-10h100v10h234l16,10h284l17,10h485v10h869l16,-10h451l17,-10h284l100,-10v60l17,60h17v60h17v70h-17v90l17,-10v230l33,40 33,140 50,80 17,50v70v181h34v170l16,20v220h34v70l33,70 34,10v60l16,10v70l17,10v110l-17,10h-217l-17,10h-267v10h-434l-17,10h-1203v-10Z"/>
<text x="175" y="105">ND</text>
</svg>