<?xml version="1.0" encoding="utf-8"?>
<!DOCTYPE svg PUBLIC "-//W3C//DTD SVG 1.1//EN" "http://www.w3.org/Graphics/SVG/1.1/DTD/svg11.dtd">
<svg version="1.1" xmlns="http://www.w3.org/2000/svg" width="518" height="1000" viewBox="0 0 518 1000">
  <path class="state" d="M75,645l8,-35 32,-41 3,-26 12,-12 2,-28 22,-35 -8,-36v-33l9,-16 57,-11 5,-18h14l42,-37 4,-55 -18,-34 20,-38 15,-19 -11,-29 12,-32 16,-18 12,-41 25,-26 14,19h27l10,-19 15,219 7,129 7,200 5,82 4,4 -3,78 43,44 -5,38 -23,20 20,7 -2,-27 10,1 27,27 -36,67 -13,-9 -35,9 -9,21 -18,-6 -15,12 2,18 -15,-3 -15,19 -85,-2 -227,-10 -22,-32 2,-50 17,-7 2,-31 9,-9 -5,-21 5,-42 12,-22 -6,-18 12,-78Z"/>
<text x="259" y="500">NH</text>
</svg>