<?xml version="1.0" encoding="utf-8"?>
<!DOCTYPE svg PUBLIC "-//W3C//DTD SVG 1.1//EN" "http://www.w3.org/Graphics/SVG/1.1/DTD/svg11.dtd">
<svg version="1.1" xmlns="http://www.w3.org/2000/svg" width="183" height="350" viewBox="0 0 183 350">
  <path class="state" transform="scale(0.1)" d="M249,2844l-26,-50 -53,-34 -17,-50 -52,-33h-35l17,-100 18,-34v-33l-44,-17 -9,-50 53,-50 52,-134 43,-17 35,-50 61,-33h78l44,-17 26,-50h61v-84l61,-16 26,-67 61,-17 61,-67h61l35,-33 17,-33h61l52,-34 -52,-117 -78,-17 -35,-83 -44,-17 -61,-117h-60l-44,-50 17,-50 -17,-100 -26,-34 -87,17 -26,-167 26,-50 -9,-50 26,-34h52l35,-50 -8,-33 43,-34 -35,-83 -43,-50 8,-50 79,-34 104,-150h26l53,-84v-50l43,-100h35l35,-50 78,-17 87,67 218,117 139,83 113,84 96,33 17,34 105,33 26,34 -26,117 -35,100v33l-44,50h-17l-9,101 -69,50 17,33h-61l44,-83 -26,-34v50l-44,67 -43,17 -9,100h-35l-9,84 -43,-17 43,33v34h53h95l52,33 27,34h52l26,50 -61,67 61,-17v-84l-35,-100 35,50 9,151 -70,300 -61,17 17,17 35,-17 -8,134 -27,133 -8,-16 8,-101 27,-50v-50h-79h79l-27,67 -78,33h35l9,84 -35,50 9,33 -53,117v51h26v50l-60,83h-35l-9,34 -52,33 -35,50 52,34 -9,50 -34,-17 -18,-67 -17,34 -44,-34v84l35,33 -43,34h-35l-9,50 -26,16h61l17,50 -78,34v-50h-35v50l-35,50h-104l35,50 43,-17 -52,84 -35,17 -26,83 -52,34 35,16 -44,67h-26l-17,50h-44l-26,34h70l-70,67h-61l9,33h-79v-67l27,-67 34,-50 26,-67 9,-66 -96,-51h-52l-8,-50 -18,34h-78l-9,33 -43,-17 8,-33 -61,-67h-26l-9,-50 -52,17 -43,-101 -26,34M1563,2276h35l-79,117v33l-43,50 43,-83 44,-117M1302,2710l9,-67h34l18,51 -61,16M1267,2760l44,-50h26l-26,50 -53,34 9,-34"/>
<text x="91" y="175">NJ</text>
</svg>