<?xml version="1.0" encoding="utf-8"?>
<!DOCTYPE svg PUBLIC "-//W3C//DTD SVG 1.1//EN" "http://www.w3.org/Graphics/SVG/1.1/DTD/svg11.dtd">
<svg version="1.1" xmlns="http://www.w3.org/2000/svg" width="521" height="1000" viewBox="0 0 521 1000">
  <path class="state" d="M70,811l-19,-17 -11,-20 -22,-9 2,-31 8,-15 -15,-20 24,-33 5,-19 43,-30 56,-15 8,-29 53,-45 22,-5 10,-17 31,-10 -15,-26 -20,-12 -9,-20 -22,-18 -6,-20 -28,-9 -2,-48 -13,-12 -24,1 -4,-48 10,-34 11,1 25,-34 -25,-43 2,-9 31,-18 9,-20 26,-24 23,-53 21,-21 22,-4 85,55 145,82 -7,36 -31,79 -16,22 -16,1 11,-28 -28,33 -4,27 -11,6 -2,35 38,3 43,18 -23,17 26,-6 -12,22 13,7 -16,72 -13,82 -6,58 4,-79 11,-39 -12,21 -18,6 12,27 -26,72 11,13 -55,58 -24,4 9,44 -17,-6 -12,25 24,12 -36,21 18,-21 -14,-8 -6,28 -35,1 6,23 22,-18 -48,67 3,10 -24,40 -24,24h-33l8,-33 14,-27 4,-27 -23,-12 -19,-1 1,-12 -26,4 -8,13 -13,-25 -40,-24ZM360,790l8,-13 16,-2 -22,25Z"/>
<text x="260" y="500">NJ</text>
</svg>