<?xml version="1.0" encoding="utf-8"?>
<!DOCTYPE svg PUBLIC "-//W3C//DTD SVG 1.1//EN" "http://www.w3.org/Graphics/SVG/1.1/DTD/svg11.dtd">
<svg version="1.1" xmlns="http://www.w3.org/2000/svg" width="236" height="350" viewBox="0 0 236 350">
  <path class="state" transform="scale(0.1)" d="M60,1440v-133l12,-17v-251l11,-50v-250l11,-284 11,-151v-217h248l67,17h1440l11,-17h338l11,84v384h11v401h11v351h12v367h11v368h11v367h11v268l12,17v150l-23,17 -11,66h-45l-45,-66 -146,33 22,117v67l23,33 -12,50 34,67 11,134h-22v50l-169,-184h-11l-113,-83 -101,-101v-16l-78,-50v-17l-102,-84 -101,-117 -79,-50 -225,-217 -78,-84 -180,-150 -124,-134 -101,-83 -124,-117 -56,-67 -34,-17 -180,-183 -169,-151v-67"/>
</svg>