<?xml version="1.0" encoding="utf-8"?>
<!DOCTYPE svg PUBLIC "-//W3C//DTD SVG 1.1//EN" "http://www.w3.org/Graphics/SVG/1.1/DTD/svg11.dtd">
<svg version="1.1" xmlns="http://www.w3.org/2000/svg" width="236" height="350" viewBox="0 0 236 350">
  <path class="state" transform="scale(0.1)" d="M342,87l78,17h1440l11,-17h338l11,84v384h11v401h11v351h12v367h11v368h11v367h11v268l12,17v150l-23,17 -11,66h-45l-45,-50 -56,-16 -90,33v50l22,67v67l23,33 -12,67 34,50 11,134h-22v50l-113,-134 -67,-50 -113,-83 -101,-101v-16l-78,-50v-17l-124,-117 -158,-134 -225,-217 -78,-84 -180,-150 -124,-134 -101,-83 -124,-117 -56,-67 -34,-17 -180,-183 -169,-151v-200l12,-17v-251l11,-50v-250l11,-284 11,-151v-217Z"/>
<text x="118" y="175">NV</text>
</svg>