<?xml version="1.0" encoding="utf-8"?>
<!DOCTYPE svg PUBLIC "-//W3C//DTD SVG 1.1//EN" "http://www.w3.org/Graphics/SVG/1.1/DTD/svg11.dtd">
<svg version="1.1" xmlns="http://www.w3.org/2000/svg" width="1000" height="766" viewBox="0 0 1000 766">
  <path class="state" d="M757,668l-43,45 13,-48 -90,-51 -11,-16 -31,-8 -10,-21 -1,-33 -23,-9 -11,-20h-119l-173,-3 -123,-3 -110,-5v-44l77,-42 12,-22 22,-12 -7,-48 -15,-3 2,-29 61,-15 68,3 29,7 17,15 19,-6 53,1 29,-11 34,-29 25,-7 -4,-40 12,-12 -2,-28 -16,9 -12,-16 9,-14 42,-24 21,-27 40,-41 32,-23 33,-16 87,2 83,-5 -2,68 9,13 -1,42 -7,8 -2,91 22,14 -1,113 2,13 -26,109 3,5 -5,121 9,12 -29,20ZM708,723l-7,17 -15,6 8,-24ZM734,721l-17,13 -5,-12 11,-22 12,3 13,-17 19,-10 49,3 5,-13h44l22,-6 27,-24 -3,18 -27,19 15,3 15,-17h32l-38,22 -11,-3 -17,15 -28,10 -42,5 -16,9 -52,13Z"/>
<text x="500" y="383">NY</text>
</svg>