<?xml version="1.0" encoding="utf-8"?>
<!DOCTYPE svg PUBLIC "-//W3C//DTD SVG 1.1//EN" "http://www.w3.org/Graphics/SVG/1.1/DTD/svg11.dtd">
<svg version="1.1" xmlns="http://www.w3.org/2000/svg" width="350" height="269" viewBox="0 0 350 269">
  <path class="state" transform="scale(0.1)" d="M2643,2349l-50,38v50l-67,13 17,-38v-63v-127v13v88l-67,-38 -50,-12 -17,-26 -50,-12 -16,-26 -117,-50 -34,-63h-67l-50,-38 -16,-64v-88l-34,-51h-67l-16,-76h-752l-84,-12h-501v-13h-368v-13h-150v-152l17,-139 351,-164 16,-51 -50,-38 -17,-50v-101l-50,-114 218,-102 768,26 151,-253 50,-64h33l17,-37 33,-38h50l67,-64 34,-63h16l167,-190 84,-25 17,-38 33,-13h518h100v241l34,25v165l-34,25v164l17,13v101h-17v76l50,-51v51v519v25v63h-16v64h-17v75h-17v241l-16,12v304l16,38 -83,38 16,89M2526,2475l84,-25v-26h50v-37l67,-26 33,13 50,-13v26l51,-13v-38h183l51,-13 116,-88 -50,63v25l-66,26 66,25v-38h17l33,-51 134,13 17,-38h50l-17,25 -133,51 -34,38 -117,25v25h-67l-33,38h-84l-50,26 -183,38 -51,38 -50,-38 -50,12v38h-33l-17,-50 33,-51"/>
</svg>