<?xml version="1.0" encoding="utf-8"?>
<!DOCTYPE svg PUBLIC "-//W3C//DTD SVG 1.1//EN" "http://www.w3.org/Graphics/SVG/1.1/DTD/svg11.dtd">
<svg version="1.1" xmlns="http://www.w3.org/2000/svg" width="919" height="1000" viewBox="0 0 919 1000">
  <path class="state" d="M341,917l-54,-22 -31,19 -19,-7 -17,-26 -20,-9 -25,4 -28,-10 -5,-24 -22,-39 -18,-5 -3,-17 -37,12 -27,-20 -12,10 6,-229 5,-84 8,-371 128,-1 136,-4 -1,9 28,-2 19,17 32,11 32,23 15,-19 4,14 17,6 -61,12 7,10 27,-3 11,-10 22,3 37,22 95,-35 34,8 22,-1 29,-19 53,-50 65,-31 20,-4 73,-30 9,353 -29,15 15,28v42l-20,43 -9,66 -10,-2 -11,44 7,10 -11,26 -31,22 -34,40 -28,12 -23,-17 -20,20 -1,17 -24,-1 -14,25 2,22 -14,5 10,15 -4,27 -9,-6 -13,19 -11,-32 -16,-10 -24,35 -11,39 3,41 -23,4 -9,38 -40,10 -41,-41 -27,-15 -6,-37 -29,8 -26,27Z"/>
<text x="459" y="500">OH</text>
</svg>