<?xml version="1.0" encoding="utf-8"?>
<!DOCTYPE svg PUBLIC "-//W3C//DTD SVG 1.1//EN" "http://www.w3.org/Graphics/SVG/1.1/DTD/svg11.dtd">
<svg version="1.1" xmlns="http://www.w3.org/2000/svg" width="322" height="350" viewBox="0 0 322 350">
  <path class="state" transform="scale(0.1)" d="M1525,471l15,34h62l-16,33h-61v17h-107l15,67 77,-17v-33h30v33l77,-17 31,34h46l15,16h77l46,-33h92l61,-50 46,-17h93v17h153l31,-34 46,-16 107,-101 15,-50 93,-50 76,-33 46,-34h46l31,-33h77l61,-50 138,-34 46,-33v267l31,34v635h15v284l-15,33h-61l-46,34 61,66v234h-31v67l-30,34 -16,66v117l-15,50 -31,-16v67l-15,33 -31,50 15,17 -15,50v67h-46l-46,67 -77,66 -15,34 -46,17v33h-46l-77,50 -30,-67h-47v34l-61,33v67l-61,-17 -31,17v33l-31,34v83h-46v50h31v117h-61l-16,51h-30l-16,-34 31,-17 -31,-66h-30l-16,-51 -77,84v33l-46,17v84l-30,16 30,84v100h-30h-62v117l-15,34h-77l-61,33h-46l-15,-50 -46,-34 -47,-66h-76l-16,-34v-50l-15,-17v-66l-61,16h-62v34h-30l-62,66h-76l-31,17 -16,-50 -92,-33h-107l-15,33h-62l-61,-17v-33h-15l-31,-50 -15,-17h-154v-17h-61l-31,-33v-84l-61,-50v-67h-62l-15,-66 -31,-17 -15,33h-62h-61l-31,-50h-46v34h-30v-251l15,-17v-451l15,-17v-384v-601h31v-669h77l15,-16h829l30,16h93l46,67 30,17h77v17l77,66 -16,17h46l46,-17v-50Z"/>
<text x="161" y="175">OH</text>
</svg>