<?xml version="1.0" encoding="utf-8"?>
<!DOCTYPE svg PUBLIC "-//W3C//DTD SVG 1.1//EN" "http://www.w3.org/Graphics/SVG/1.1/DTD/svg11.dtd">
<svg version="1.1" xmlns="http://www.w3.org/2000/svg" width="350" height="171" viewBox="0 0 350 171">
  <path class="state" transform="scale(0.1)" d="M3328,469h17v97l17,8v82l17,8v89h16v463h17v446l-33,-32 -101,-8 -50,-41v-16l-67,-16v-33l-33,-8 -17,32 -83,17 -50,-33 -84,25 17,16h-101l-66,24v25l-84,40 -17,-49 -150,-40 -33,8 -17,-41h-34v49l-33,-8v73l-50,-41 17,-48h-34l-50,32h-33v-40l-50,8v-33l-34,-8 -50,65 -67,-8v-49l-50,-8v-73l-17,16 -100,-16v33l-50,8 -17,-41 -83,8 -50,-32 -117,-8 -17,-90 -50,-8 -34,25 -16,-25 -34,25 -50,-9 -67,-65 -16,-32 -34,8v-349l17,-57v-519h-368l-50,-8h-267v-9h-201l-267,-16v-187l17,-48 284,16h184v8h434v8h1470v-8h334v-8h251v-8h217v-8v243h34v98h16Z"/>
<text x="175" y="85">OK</text>
</svg>