<?xml version="1.0" encoding="utf-8"?>
<!DOCTYPE svg PUBLIC "-//W3C//DTD SVG 1.1//EN" "http://www.w3.org/Graphics/SVG/1.1/DTD/svg11.dtd">
<svg version="1.1" xmlns="http://www.w3.org/2000/svg" width="1000" height="486" viewBox="0 0 1000 486">
  <path class="state" d="M953,135l18,96 4,240 -50,-18 -6,-10 -30,-14 -3,10 -33,2 -1,-7 -84,26 -37,-10 -16,2 -24,-14 -12,28 -11,-22h-46l-13,-11 -18,18 -14,-6 2,-15h-13l-1,-18 -32,-2 -13,12 -17,-13 -13,4 -23,-11h-26l-9,-26 -50,2 -23,-26 -9,2 4,-265 -178,-3 -151,-6 1,-68 101,4 300,5h201l234,-6 78,-2 3,68Z"/>
<text x="500" y="243">OK</text>
</svg>