<?xml version="1.0" encoding="utf-8"?>
<!DOCTYPE svg PUBLIC "-//W3C//DTD SVG 1.1//EN" "http://www.w3.org/Graphics/SVG/1.1/DTD/svg11.dtd">
<svg version="1.1" xmlns="http://www.w3.org/2000/svg" width="350" height="263" viewBox="0 0 350 263">
  <path class="state" transform="scale(0.1)" d="M271,1734l-34,-50 17,-125 17,-25v-151l33,13v-150h17v-113l17,-13v-200h16v-75v-88h34v-87h16v-163l34,25 -17,-75v-75l-17,-50 17,-38 -17,-50 34,-12 -17,-38v-62l50,12v-37l67,37 17,-12 50,-25 33,50h51l33,-13h33l101,75 16,125v113l101,25 83,38h34l150,-63v-25h234l50,38 33,-13 67,13 134,-63 33,25h67l67,-37 67,-13 16,-25 117,-13 34,-37 33,12 67,-25h100l34,-50h301h16h401v-12h117v62l50,13 50,50 51,12v38l33,25v38l-33,25 -34,125 -17,12v63l-16,50 -34,25v113h-16l-34,62h-50v100l-33,38v150h83v38h50l-16,50v75h-34v62v176v25v375h34v388l16,13v87l-150,13h-267l-17,12h-351l-100,13h-1053l-33,-13h-435l-16,-12h-502v-13h-150v-25l-50,-37v-75h-34v-163h34v-88l-50,-37 -17,-63 33,-75 34,-50v-63v-87l67,-25v-25Z"/>
<text x="175" y="131">OR</text>
</svg>