<?xml version="1.0" encoding="utf-8"?>
<!DOCTYPE svg PUBLIC "-//W3C//DTD SVG 1.1//EN" "http://www.w3.org/Graphics/SVG/1.1/DTD/svg11.dtd">
<svg version="1.1" xmlns="http://www.w3.org/2000/svg" width="350" height="263" viewBox="0 0 350 263">
  <path class="state" transform="scale(0.1)" d="M555,132l33,-25 50,25v25h51l33,-13h33l84,50 33,75v88v12v88l101,25 33,25 33,-12 51,25 150,-63v-25h234l50,38 33,-13 50,13 151,-63 33,25h67l67,-37 67,-13 16,-25 117,-13 34,-37 17,12 83,-25h100l34,-50h301h16h401v-12h117v62l50,13 50,50 51,12v38l33,25v38l-33,25 -34,125 -17,12v63l-16,50 -34,25v113h-16l-34,62h-50v100l-33,38v150h83v38h50l-50,50 34,25 -34,50v62v176v25v375h34v388l16,13v87l-150,13h-267l-17,12h-351l-100,13h-1053l-33,-13h-435l-16,-12h-502v-13h-150v-25l-50,-37v-75h-34v-163h34v-88l-50,-37 -17,-63 33,-75 34,-50v-63v-87l67,-25v-25l50,25 -17,-38 -33,13 33,-88v-62l50,-38 -33,13v-51v-100l33,13v-150h17v-113l17,-13v-200h16v-75v-88h34v-87h16l17,-88 -17,-62 34,12 -17,-75v-75h-17v-138l34,-12 -17,-38v-62l117,12 17,-12"/>
<text x="175" y="131">OR</text>
</svg>