<?xml version="1.0" encoding="utf-8"?>
<!DOCTYPE svg PUBLIC "-//W3C//DTD SVG 1.1//EN" "http://www.w3.org/Graphics/SVG/1.1/DTD/svg11.dtd">
<svg version="1.1" xmlns="http://www.w3.org/2000/svg" width="1000" height="750" viewBox="0 0 1000 750">
  <path class="state" d="M942,215l-7,34 -23,25 -8,31 -9,10 2,31 39,18 -13,51v33l13,272 -203,8 -174,2h-115l-148,-5 -175,-3 -60,-2 -17,-18 -6,-24 4,-68 -17,-29 15,-29 16,-56 14,-31 9,-36 14,-98 5,-70 7,-14 13,-82 -4,-16 7,-32 -7,-14 8,-52 -5,-19 15,9 30,-4 11,-8 14,17 28,-7 24,17 11,23 3,46 15,10 35,11 38,-11 14,-12 40,-5 36,10 1,9 31,-6 37,-15 13,8 32,-5 28,-16 54,-14 42,-5 21,-12 63,-1 166,-5 17,27 29,13 9,17 -21,52Z"/>
<text x="500" y="375">OR</text>
</svg>