<?xml version="1.0" encoding="utf-8"?>
<!DOCTYPE svg PUBLIC "-//W3C//DTD SVG 1.1//EN" "http://www.w3.org/Graphics/SVG/1.1/DTD/svg11.dtd">
<svg version="1.1" xmlns="http://www.w3.org/2000/svg" width="350" height="203" viewBox="0 0 350 203">
  <path class="state" transform="scale(0.1)" d="M2092,1975h-869v-9h-635v-10h-351v-10h-150v-241l17,-10v-473l16,-67v-454v-10v-435l101,-19 200,-96 134,-87h17v202h217v10h802l16,10h117l17,-10h936l33,-10h318l16,39v58h84l50,77 -17,29 67,174 34,29 100,10 17,58h-34l-33,58v48l-84,77 -17,68 -66,19 66,106 -50,49 -33,19v145h50l33,19v97h34l17,58 66,28 84,116 -67,10v29l-67,10 -117,87v58l-100,19 -50,48 -17,-19h-100l-84,48v39h-434v9Z"/>
<text x="175" y="101">PA</text>
</svg>