<?xml version="1.0" encoding="utf-8"?>
<!DOCTYPE svg PUBLIC "-//W3C//DTD SVG 1.1//EN" "http://www.w3.org/Graphics/SVG/1.1/DTD/svg11.dtd">
<svg version="1.1" xmlns="http://www.w3.org/2000/svg" width="1000" height="578" viewBox="0 0 1000 578">
  <path class="state" d="M602,562l-123,1 -285,-3 -170,-5 5,-148 2,-90 9,-244 31,-12 91,-46 -1,57 133,3 142,1 239,-1 184,-4 17,29 31,10 5,40 10,31 33,11 15,13 -15,8 -20,41 -34,32 15,25 -23,37 2,28h15l6,28 59,57 -68,45 1,13 -48,21 -35,-4 -23,24Z"/>
<text x="500" y="289">PA</text>
</svg>