<?xml version="1.0" encoding="utf-8"?>
<!DOCTYPE svg PUBLIC "-//W3C//DTD SVG 1.1//EN" "http://www.w3.org/Graphics/SVG/1.1/DTD/svg11.dtd">
<svg version="1.1" xmlns="http://www.w3.org/2000/svg" width="1000" height="244" viewBox="0 0 1000 244">
  <path class="state" d="M441,195l-29,18h-24l-5,8 -36,-16 -27,9 -39,-15 15,-13 -12,-5 8,-47 11,-12 -15,-34 -14,-3 -12,-25 39,-17 -3,-26 27,-11 66,11 40,-3 16,7 34,-7 57,9 14,-6 85,7 28,14 -4,-16 33,10 13,-6 75,17 12,12 37,4 8,58 -39,8 -15,14 -10,30 -14,6 1,14 -50,17 -15,-4 -47,19 -31,-1 -32,-17 -18,14 -25,-19 -40,11 -17,-7 -18,5ZM59,151l3,12 -18,11 -19,-11 13,-14ZM916,135l41,10 -95,19 -11,-14Z"/>
<text x="500" y="122">PR</text>
</svg>