<?xml version="1.0" encoding="utf-8"?>
<!DOCTYPE svg PUBLIC "-//W3C//DTD SVG 1.1//EN" "http://www.w3.org/Graphics/SVG/1.1/DTD/svg11.dtd">
<svg version="1.1" xmlns="http://www.w3.org/2000/svg" width="350" height="86" viewBox="0 0 350 86">
  <path class="state" transform="scale(0.1)" d="M1541,688l-50,4 16,21 -33,28 -117,8 -67,17 -33,-45h-101l-33,32 -100,-24 -34,16v-57l50,-8 -33,-33v-89l17,-8v-82l33,-24 -50,-135 -50,-8 -34,-85 134,-62 -17,-89 51,-33 116,-4 51,25 117,12 117,-8 66,20 151,-24 83,4 17,16 84,12 33,-20 83,-4 134,8 34,20 183,37 -16,-37 117,29 16,-21 67,17 34,-8 83,24 17,24h67l16,37 50,-4v20l67,13 50,-25 -16,33v122l33,4v61l-33,-32v36l-67,13v24l-50,-12 -67,77 -17,90 -33,-8v61l-34,4 -66,45 -101,12 -33,-12 -34,28 -50,-12 -83,49 -50,-8 33,-17 -50,-12 -50,25 -117,-45 -34,41 -66,-25 -34,-37h-50l-100,33 -50,-4v-20l-50,16ZM3278,260l67,-4 34,33h-101ZM204,533l17,41 -67,41 -50,-37v-41ZM3211,476l67,21h67l-33,20 -84,4v21l-50,-5 -17,25 -66,-4 -67,20 -34,-8 -16,-41h50l33,-20Z"/>
<text x="175" y="43">PR</text>
</svg>