<?xml version="1.0" encoding="utf-8"?>
<!DOCTYPE svg PUBLIC "-//W3C//DTD SVG 1.1//EN" "http://www.w3.org/Graphics/SVG/1.1/DTD/svg11.dtd">
<svg version="1.1" xmlns="http://www.w3.org/2000/svg" width="660" height="1000" viewBox="0 0 660 1000">
  <path class="state" d="M421,302l11,22 -10,11 19,23 2,24 -13,26 -8,-27 -15,8 -28,-4 2,25 25,3 -17,13h18l5,37 -10,8 9,20 -36,14 16,23 10,30 -5,32 2,33 -9,2 -1,24 -20,15 3,24 -26,41 4,13 -27,-16 11,-34 -6,-10 -10,34 -10,8 -76,17 -57,21 -19,13 -28,6 -12,-5 -77,18 25,-32 -7,-24 7,-17 -10,-14 1,-22 17,-8 18,4 9,-244 -2,-147 -6,-159v-96l239,-10 99,-1v137l35,-5 2,40 -8,42 14,46 55,31 28,42 -12,16 -1,-19 -17,-8 23,49 -13,16 -7,23 -15,-40 -20,27 -2,-18 11,-18 4,-44 -12,23 -5,-16 -25,-4 -18,-28 -11,-46 -14,-22 11,-7 7,-35 -8,-7 -1,31 -18,14 19,30ZM635,524l7,68 -39,28 -2,12 -17,4v-31l-12,-16 4,-17 -11,-33 8,-56 -10,-31 18,-53 50,15 -6,57 7,17ZM562,439l-16,11 -4,47 6,9 -1,45 7,11 -15,33 5,21 -20,-14 -8,9 -12,-9 -18,41 -9,-10 -27,12 -5,-15 21,-21v14l16,-10 -5,-40 9,-7 1,-27 21,-33 8,-47 19,-21 22,-11ZM464,424l-4,13 22,10 10,16 -8,31 -11,10 -8,-17 10,-32 -22,-12ZM443,600l5,14 -14,4 -20,27 4,-18 -4,-29 14,2 3,-17 -11,-17 13,-54 11,1 4,66ZM276,890l12,13 -8,40 15,12 -4,14 -41,5 -10,-13 16,-43 9,18 10,-8 -6,-21Z"/>
<text x="330" y="500">RI</text>
</svg>