<?xml version="1.0" encoding="utf-8"?>
<!DOCTYPE svg PUBLIC "-//W3C//DTD SVG 1.1//EN" "http://www.w3.org/Graphics/SVG/1.1/DTD/svg11.dtd">
<svg version="1.1" xmlns="http://www.w3.org/2000/svg" width="231" height="350" viewBox="0 0 231 350">
  <path class="state" transform="scale(0.1)" d="M973,3111l33,34v33l-33,50v50l66,84 -22,33 -44,17h-111l-22,-17 11,-117 45,-16v-51l33,67h33l-22,-67v-100h33M2218,1825l11,100v100l22,50 -66,17 -22,67 -66,17v33l-66,17v-34l11,-33 -11,-67 -23,-17v-67l-11,-50 11,-66h-33v-51l22,-33 -22,-84 33,-50 -33,-16v-67l22,-117 34,-67 165,33v134l-11,17v67l33,50v117M1623,1491v66h66l33,50v67l-55,84 -44,-17v-83l33,-67 -66,-34 -22,-50 33,-67 22,51M345,1674v-518h-11v-401l-22,-16v-535v-84h418l11,-16h397l11,-17h353v384l-22,84h143l-22,50 22,67 -22,167 22,33v50l33,84 88,33 66,51h11l110,133 11,50 -55,34v-67l-44,-17 66,134v50l-55,33v51l-11,33 -22,-17v-67h-33v-66h-33l-11,117h-22v-101l33,-50v-83l22,-17v-67l11,-17 -33,-83v100l-33,-50 -55,-17 22,34h33l33,66v34l-66,-34h-66l-33,-66v-50l-33,16 -22,-50v-50l-11,-67 -55,-67 66,-117v-33l-55,33 22,67 -33,34h-34v50l67,50 -33,33v84l33,67 -33,16 33,67 33,17v67l-11,67v50l-55,-17v-50h-133l-22,-50 -11,50 11,50 -11,100 33,-67v-16l77,16 22,151 -55,16 55,17 -33,50h33l-22,67h-66l-11,34 -22,-51 -33,51 55,16v34l22,16 -11,51h33l22,33v117l-22,83 22,51h-55l11,66 -11,51h-33l-33,33v83l-55,101 -11,83 -88,-50 33,-67 11,-100 -55,84 11,83h-132l-110,50h-89l-55,34h-33l-55,33 -66,17 -22,33h-66l-44,17h-143l-56,33h-55l-55,34 -77,16 -11,-16 77,-34 33,-50 55,-33 -22,-50 11,-134 -33,-17v-83l55,-17h67l11,17v-134v-234l22,-17v-300l11,-34M1975,1541h-33l-33,33h33l-55,50v117l22,34v167h33l-66,150 33,67 -33,17v-51l-55,-33 -33,50v-50l-44,33v67l-22,50h-33l-33,-33v33h-66l-22,-33 22,-33 99,-17 -33,-100 11,-34 -11,-50h33v-83l33,-67 55,-50v-67l33,-34v-83h33l11,-50h55l33,-50 33,50"/>
</svg>