<?xml version="1.0" encoding="utf-8"?>
<!DOCTYPE svg PUBLIC "-//W3C//DTD SVG 1.1//EN" "http://www.w3.org/Graphics/SVG/1.1/DTD/svg11.dtd">
<svg version="1.1" xmlns="http://www.w3.org/2000/svg" width="350" height="282" viewBox="0 0 350 282">
  <path class="state" transform="scale(0.1)" d="M2577,2060l-34,54h-67l17,-67 -33,13v67l33,40h-33l-17,54 -67,14 50,26h-67l-50,41h-33l-67,53 -84,-40v40l-117,-13h-83l-84,-14 -16,27v54l16,80v41l34,-14 -34,81 -16,40h-50v67h-117l-34,-27v-80l-33,-14 16,-67 -33,-94h-17l-16,-80 -117,-67v-81h-17v-120l-50,-81v-80l-84,-41 -16,-27 -67,-13 -17,-80 -17,13 -50,-40v-54l-67,-40 17,-107h-50v-41l-67,-53 -67,-14v-40l-33,-27v-54l-100,-93 -67,-27 -17,-41h-33l-17,-67 -33,-26 -34,-54 -33,-40v-81l-34,-40v-27l-50,-40 -17,-81h-116l-17,-40 -50,-40v-27h-50l-17,-27 -67,-40 33,-121h34l17,-40 83,-40v-67l217,-54h50l51,-40h50l16,-40h51l83,-14h134l16,14h234h34h217l17,26h217l50,14 -17,67 17,13 67,-53 83,147v94h335h83h368l16,54 134,94v26l100,81 84,80 50,68 100,67 17,53 117,108 83,67 67,67v40l-67,13 -133,81v40l-50,27 -34,67 -50,67h-17l-50,107v81l-33,-27 -34,14v-68h-16v81l50,27 17,67 -101,53 -100,81 -17,-27 -66,14 -17,80h-34l-33,54ZM2109,2436v40l-34,13v-40ZM2075,2489v27l-50,14v-27ZM1942,2355l83,14 -33,27h83l17,53 -67,14 -17,67 -66,26v-80v-80l-17,-41ZM1892,2328l33,27v81h17v94l-101,-81v-80v-41ZM1892,2543l50,54 -50,67 -51,-27v-54h51Z"/>
<text x="175" y="141">SC</text>
</svg>