<?xml version="1.0" encoding="utf-8"?>
<!DOCTYPE svg PUBLIC "-//W3C//DTD SVG 1.1//EN" "http://www.w3.org/Graphics/SVG/1.1/DTD/svg11.dtd">
<svg version="1.1" xmlns="http://www.w3.org/2000/svg" width="350" height="282" viewBox="0 0 350 282">
  <path class="state" transform="scale(0.1)" d="M1942,2355l83,14 -17,27h67l17,53 -67,14 -17,67 -66,26v-80v-80l-17,-41h17M2109,2436v40l-34,13v-40l34,-13M2075,2489v27l-50,14v-27l50,-14M1892,2543l50,54 -50,67 -67,13 16,-40v-54h51v-40M2577,2060l-34,54h-67l17,-67 -33,13v67l33,14 -33,26 -17,54 -67,14 50,26h-67l-50,41h-33l-67,53 -84,-40 17,-54 -33,41 16,53 -117,-13h-83l-84,-14 -16,27v54l16,80v41l34,-14 -34,81 -16,40h-50v67h-117l-34,-27v-80h-17v-81l-33,-107 -33,-67 -117,-67v-81h-17v-120l-50,-81v-80l-84,-41 -16,-27 -67,-13 -17,-80 -17,13 -50,-40v-54h-33l-17,-54v-93h-50v-41l-100,-67h-34v-40l-33,-27v-54l-100,-93 -67,-27 -17,-41h-33l-17,-67 -33,-26 -34,-54 -33,-40v-81l-34,-40v-27l-50,-40 -17,-81h-116l-17,-40 -50,-40v-27h-50l-51,-54 -33,-13 33,-121h34l17,-40 83,-40v-67l217,-54 34,13 67,-53h50l16,-40h51l83,-14h134l16,14h234h34h217l17,26h217l33,14 17,80 67,-53 83,147v94h335h83h368l16,54 134,94v26l67,54 117,107 50,68 100,67 17,53 117,108 83,67 67,67v40l-67,13 -50,27 -83,94 -50,27 -67,121 -34,13 -50,107v81l-50,-27 -17,14v-68h-16v81l50,27 17,67h-51l-16,40 -134,94 -17,-27 -66,14 -17,80h-34l-33,54 -33,13"/>
</svg>