<?xml version="1.0" encoding="utf-8"?>
<!DOCTYPE svg PUBLIC "-//W3C//DTD SVG 1.1//EN" "http://www.w3.org/Graphics/SVG/1.1/DTD/svg11.dtd">
<svg version="1.1" xmlns="http://www.w3.org/2000/svg" width="1000" height="803" viewBox="0 0 1000 803">
  <path class="state" d="M738,586l-26,25 -21,32 -41,12 -27,21 -17,-7 -30,2 -38,-9 -20,14 18,48 -6,22 -25,26 -41,-9 -8,-31 7,-8 -17,-45 -18,-23 -25,-15v-50l-16,-23 1,-18 -23,-21 -29,-13v-12l-37,-35 6,-24 -28,-31 -25,-11 -23,-45 -49,-35 -23,-44 -10,-5 -6,-30 -17,-20 -11,-31 -21,2 -32,-33h-11l-24,-29 22,-35 25,-13 3,-17 127,-40 35,-5 244,14 -1,25 21,-13 29,39 -2,29 187,2 33,-1 62,60 160,158 -67,53 -37,50 -11,26 -3,35 -5,-24 -18,2 23,23 -13,17 -35,28 -22,-5ZM558,671l35,14 3,12 -19,8 -18,24ZM539,663l10,10 6,47 -19,-16 -10,-28ZM543,727l11,13 -29,26Z"/>
<text x="500" y="401">SC</text>
</svg>