<?xml version="1.0" encoding="utf-8"?>
<!DOCTYPE svg PUBLIC "-//W3C//DTD SVG 1.1//EN" "http://www.w3.org/Graphics/SVG/1.1/DTD/svg11.dtd">
<svg version="1.1" xmlns="http://www.w3.org/2000/svg" width="1000" height="621" viewBox="0 0 1000 621">
  <path class="state" d="M823,547h-29l-17,16 -17,-12 -38,-15 -6,-12 -141,3h-143l-179,-3 -146,-5 -82,-4 15,-339 3,-6 4,-155 229,9 140,2h219l184,-3 115,-6 -1,21 -30,30 -1,9 21,30 25,9 4,9 14,306 -18,1 10,17 -3,30 16,15 -20,72 15,13 2,25 -14,-3 -12,-24 -34,-17 -21,-2 -13,-14Z"/>
<text x="500" y="310">SD</text>
</svg>