<?xml version="1.0" encoding="utf-8"?>
<!DOCTYPE svg PUBLIC "-//W3C//DTD SVG 1.1//EN" "http://www.w3.org/Graphics/SVG/1.1/DTD/svg11.dtd">
<svg version="1.1" xmlns="http://www.w3.org/2000/svg" width="350" height="218" viewBox="0 0 350 218">
  <path class="state" transform="scale(0.1)" d="M104,1530v-280h16v-373v-259h34v-331v-228h117v10h284v10h317h602v21h735l17,-21h568h284l17,-10h167v83l-17,21 -84,62v52l50,41 17,52h34l66,31v93l17,73v310l17,11v331l17,73v207l-51,10v52l34,11v51h-34l51,83 16,52 -33,10v135l-34,21v62l51,21 16,31v62h-67v-31l-50,-21v-41h-33v-31l-67,-21 -83,-10 -34,-42 -100,11 -67,-11 -33,21 -101,-21v31l-16,31h-50l-17,-20 -117,-73 -50,-10v-31h-201l-50,10h-952l-201,-10h-317l-34,-11h-234l-66,-10h-201l-83,-10h-84v-197h17v-83"/>
<text x="175" y="109">SD</text>
</svg>