<?xml version="1.0" encoding="utf-8"?>
<!DOCTYPE svg PUBLIC "-//W3C//DTD SVG 1.1//EN" "http://www.w3.org/Graphics/SVG/1.1/DTD/svg11.dtd">
<svg version="1.1" xmlns="http://www.w3.org/2000/svg" width="1000" height="244" viewBox="0 0 1000 244">
  <path class="state" d="M691,18h62l189,-7 33,-5 -5,38 -21,5 -13,25 -22,-3 -41,27 -2,-13 -29,16 -6,22 -15,1 -43,31 -32,1 -26,21 -1,18 -28,8 -3,32 -116,2 -164,-1 -151,-5 1,2 -129,-3 -104,-5 22,-16 -5,-22 10,-13 -9,-6 35,-26 -6,-18 24,-7 -7,-7 21,-38 -11,-14 17,1 2,-34 160,5 -1,-24 24,6h168l84,5 26,-2Z"/>
<text x="500" y="122">TN</text>
</svg>