<?xml version="1.0" encoding="utf-8"?>
<!DOCTYPE svg PUBLIC "-//W3C//DTD SVG 1.1//EN" "http://www.w3.org/Graphics/SVG/1.1/DTD/svg11.dtd">
<svg version="1.1" xmlns="http://www.w3.org/2000/svg" width="350" height="86" viewBox="0 0 350 86">
  <path class="state" transform="scale(0.1)" d="M2426,69h217l84,-12h184l133,-12 268,-4v-13l83,4v127l-67,4 -50,45v57l-50,-9 -83,17 -34,61 -50,16v-41l-67,21v28h-50l-17,82 -83,8 -34,45 -83,40v17l-84,-4 -66,24 -51,41 -16,85 -84,4 -17,33v94l-334,8h-267l-17,-4h-367l-284,-13h-351l-34,-4 -250,-4 -351,-16h-67v-24l33,8v-41l51,-4 -17,-61 17,-61 -17,-12 17,-33 33,33v-66l33,4 34,-48 -34,-9v-36l67,-8 34,-25 -17,-41 33,9 -16,-62 50,-69 -50,-36h66l-50,-41 67,-4 -17,-49 51,-25 518,17 16,-49 -16,-37 83,8v13h201h367l201,16 300,-4 51,8Z"/>
<text x="175" y="43">TN</text>
</svg>