<?xml version="1.0" encoding="utf-8"?>
<!DOCTYPE svg PUBLIC "-//W3C//DTD SVG 1.1//EN" "http://www.w3.org/Graphics/SVG/1.1/DTD/svg11.dtd">
<svg version="1.1" xmlns="http://www.w3.org/2000/svg" width="1000" height="955" viewBox="0 0 1000 955">
  <path class="state" d="M761,691l11,18 -30,17 -2,4 -26,3 12,10 -11,19 -25,-5 13,14 6,1 -13,50 -8,12 12,39v7l-2,2 19,29 4,9 -28,7 -22,-15 -35,-1 -41,-23 -22,-3 -14,-38 -14,-19 -5,-43 -28,-18 -16,-31 -41,-64 -2,-18 -28,-29 -15,-6 -11,-21 -52,-3 -41,3 -19,47 -15,18 -24,-6 -25,-20 -19,-4 -34,-29 -11,-25 1,-23 -14,-31 -19,-20 -17,-8 -41,-48 -17,-8 -8,-22 -19,-11v-12l157,7 100,3 7,-168 6,-214 111,1h97v166l20,15 22,-6 15,21 72,7 23,22 10,-12 32,10 6,12 19,-19 38,19 29,-18 24,-5 23,5 3,-8 27,18 33,14 25,-1 7,131 17,19v16l24,33 1,30 -14,38 7,22 -16,28 7,12 -21,2 -26,14 -20,-1 4,-19 -21,7 7,33 -18,10 -6,19 -58,35 -18,-8Z"/>
<text x="500" y="477">TX</text>
</svg>