<?xml version="1.0" encoding="utf-8"?>
<!DOCTYPE svg PUBLIC "-//W3C//DTD SVG 1.1//EN" "http://www.w3.org/Graphics/SVG/1.1/DTD/svg11.dtd">
<svg version="1.1" xmlns="http://www.w3.org/2000/svg" width="350" height="335" viewBox="0 0 350 335">
  <path class="state" transform="scale(0.1)" d="M2526,3198v32h-50v32h-33l-34,-48 -50,-16h-133l-50,-48h-84l-33,-48h-67l16,-32 -33,-32 -17,-79 -50,-32v-80h-16v-96l-101,-64 -16,-63 -34,-16v-48h-67l-16,-112 -34,-16v-48l-33,-32v-63h-34v-32l-50,-32 -16,-32h-51v-48l-50,-48h-167l-17,-32h-50l-16,32h-67v32l-50,48v80l-67,32v32h-84l-16,-48 -67,-16 -34,-32h-33l-33,-32h-17l-34,-48h-16l-34,-32v-48l-33,-32v-95l-34,-32v-64l-50,-16v-32h-16l-17,-32 -84,-32 -16,-32v-31l-67,-16v-32l-34,-64h-66l-17,-96h-34l-33,-48v-16h184l150,16h334h67h167v-271l17,-32v-415l17,-15v-591h401h16h318v591h33l34,47h83l34,-32 16,80h67l34,32h150l17,32h33l17,48 50,-48h33v32l101,-16v64l16,-48h101l33,-16v32h33h67v-16h100v-16h117l17,-16 67,16v32h50l67,48 83,-16 17,48v303h34v127l66,80v64l51,16v80h16v143h-16v208l-51,47 17,48h-67l-50,48h-100v-64h-33v32h-34l-33,-32v32l33,16 -17,32h34v64l-67,48 -33,79 -51,16 -33,32 -134,80 34,-32 -34,-32 -66,32 -34,-16 34,80h-101v48v16h-16h-84l33,48 -16,63 -17,-15h-84l51,47h16l-16,96 -84,16 -17,32h84v16l-34,64v48l34,15v48v48l33,16v48l34,48h16"/>
<text x="175" y="167">TX</text>
</svg>