<?xml version="1.0" encoding="utf-8"?>
<!DOCTYPE svg PUBLIC "-//W3C//DTD SVG 1.1//EN" "http://www.w3.org/Graphics/SVG/1.1/DTD/svg11.dtd">
<svg version="1.1" xmlns="http://www.w3.org/2000/svg" width="350" height="153" viewBox="0 0 350 153">
  <path class="state" transform="scale(0.1)" d="M2994,936l-83,-22 -17,-58 -84,-29v29l84,29v44l100,29 -33,37 67,21v59h-34l-50,-37 17,73 -34,8v-22l-66,-29v29l83,36v44l50,-14v43l34,15 -67,22 -67,-44 -33,-66 -51,22v-22l-83,-7v-29l-100,7 100,7 17,37h66l51,29v51l66,37v36l84,-36 33,22 84,-8 17,52 -17,116 -117,22h-251v8h-167l-16,7h-385v7h-768l-117,-14h-167v-8h-151l-83,-7 -34,-15h-351v-7h-200v-7h-167l-67,-8 33,-36h51l50,-15 83,-14 17,-44 83,-15 17,-58 50,-15v-51l50,-14 168,-95v-15l66,-51 34,73 67,36 16,44h67l67,-65 50,36 134,-15 16,-65 51,22 100,-44v29l83,-44 -16,-29 50,-37 -34,-14v-73l51,-8 16,-51 50,-29 17,-73 100,-131v-88l67,22 34,51 66,15 17,-95 50,-30v-43l67,-15 117,-102v-37l67,-36 17,-88h16v-80l184,153 33,-14 17,-73 100,36 -16,37 16,51 67,7 34,44 67,29v95l-51,44 -16,-15v37l-34,73 17,51 100,-37v66l34,44h66v36l17,-29 84,37 16,51 84,22 17,44h-34ZM3178,856l50,-15 17,-102 100,-7v51l-33,65 -50,8v58l-84,81v36l-33,29v117l-17,-29v-102v-81l17,-51 33,-7Z"/>
<text x="175" y="76">VA</text>
</svg>