<?xml version="1.0" encoding="utf-8"?>
<!DOCTYPE svg PUBLIC "-//W3C//DTD SVG 1.1//EN" "http://www.w3.org/Graphics/SVG/1.1/DTD/svg11.dtd">
<svg version="1.1" xmlns="http://www.w3.org/2000/svg" width="1000" height="438" viewBox="0 0 1000 438">
  <path class="state" d="M853,267l-17,-2 -10,-18 -35,-25 34,32 6,15 34,24 -5,16 -19,-9 9,18 -13,3 -33,-37 21,30 29,18 7,19 -12,9 -24,-20 -5,-15 -29,-1 23,12 5,13 21,12 -3,15 21,-16 39,5 7,28 -11,25 -156,5 -124,3 -206,-1 -185,-10 -87,-3 -110,-5 17,-9 45,-9 7,-15 23,-4 18,-32 44,-20 43,-37 -4,9 16,27 33,12 23,-18 15,15 37,-11 41,-22 7,8 20,-12 8,-16 -7,-11 15,-26 18,-16 9,-28 15,-11 15,-45 19,18 18,7 10,-9 25,-53 14,12 51,-58 6,-42 58,46 9,-26 30,12 -6,15 29,13 26,23 -1,20 -20,9 -10,31 10,16 25,-8 5,21 49,20 9,15 19,6ZM914,244l10,-3 7,-29 28,-5 -21,47 -3,18 -13,3 -17,27 -4,33 -9,-25 12,-49Z"/>
<text x="500" y="219">VA</text>
</svg>