<?xml version="1.0" encoding="utf-8"?>
<!DOCTYPE svg PUBLIC "-//W3C//DTD SVG 1.1//EN" "http://www.w3.org/Graphics/SVG/1.1/DTD/svg11.dtd">
<svg version="1.1" xmlns="http://www.w3.org/2000/svg" width="234" height="350" viewBox="0 0 234 350">
  <path class="state" transform="scale(0.1)" d="M1543,304h79l33,-33 22,50h67l45,33 78,34 -56,67v-51l-22,-16 -45,16v-66l-55,16v50l-23,-16 -11,50 56,33 -22,67 11,67 -34,-50h-56v-50l-67,16 -33,-50 -56,50 -11,-50 -56,34 -33,33 -34,-67 -11,34 -22,-34v-50l67,-33 22,-34h78l56,-16 11,-34 -33,-33h67ZM1398,2927h45l11,34 45,-34 56,84 67,33 22,34 67,17 22,-51 34,17 22,-33h301l12,16h67l33,-33 78,33 -44,51 -79,-17 -33,17 -34,50 -11,-17 -67,33 -33,17h-101l-11,50h-56l-44,34 -157,16h-67l-122,34v33l-56,-33h-45l-178,67 -34,-17h-201l-56,50 -11,-33 78,-101v-67l-44,-116 22,-67 78,-50 67,33h112l78,-33 22,-34 67,-17ZM863,321l133,33 34,67h33l56,100h-111l-23,-16 -67,16 45,51 -11,16 -67,-50h-56l-78,-33 -11,-50 11,-17 -22,-34 -67,34h-45l-34,33 -22,-50 -22,34 -23,-67 -78,-34 -22,34 -123,16 -44,-50 33,-33h89l34,-50 44,33 12,-33h78h22l67,-17 34,50 78,17 11,-50 -45,-17 11,-17 56,34ZM996,321h79v17h-67ZM829,171h-22l-11,-51h22l33,34ZM662,471l-45,84 -22,-34 55,-66Z"/>
<text x="117" y="175">VI</text>
</svg>