<?xml version="1.0" encoding="utf-8"?>
<!DOCTYPE svg PUBLIC "-//W3C//DTD SVG 1.1//EN" "http://www.w3.org/Graphics/SVG/1.1/DTD/svg11.dtd">
<svg version="1.1" xmlns="http://www.w3.org/2000/svg" width="669" height="1000" viewBox="0 0 669 1000">
  <path class="state" d="M440,84l54,6 40,28 -12,13 -5,-17h-19v-16l-16,4 2,12 -16,-3 19,20 -3,40 -23,-25 -31,-8 -16,10 -17,-6 -11,12 -19,-25 26,-29 24,2ZM400,838l22,10 6,-13 14,20 35,26 33,-17 85,-1 13,8 22,-9 20,6 -12,13 -32,1 -9,15 -32,15 -28,2 -6,9 -65,20 -22,-7 -34,12 -45,1 -46,18 -17,-9 -40,1 -20,16 -2,-9 19,-23 4,-24 -13,-38 7,-17 22,-13 41,11 66,-28ZM245,89l38,17 36,43 -10,4 -26,-10 -47,11 -21,-12 3,-19 -10,-6 -53,12 -7,-16 -21,-11 -40,14 -16,-13 10,-11 46,-3 16,-14 35,5 2,-9 29,22 6,-9 -17,-20 27,19Z"/>
<text x="334" y="500">VI</text>
</svg>