<?xml version="1.0" encoding="utf-8"?>
<!DOCTYPE svg PUBLIC "-//W3C//DTD SVG 1.1//EN" "http://www.w3.org/Graphics/SVG/1.1/DTD/svg11.dtd">
<svg version="1.1" xmlns="http://www.w3.org/2000/svg" width="613" height="1000" viewBox="0 0 613 1000">
  <path class="state" d="M36,548l-9,-30 5,-23 -9,-22 1,-37 -9,-9 15,-62 24,-33 -7,-35 13,-33 -4,-26 -18,-28 -6,-22 7,-48 10,-28 -13,-14 12,-35 -1,-38h208l88,4 131,-2 121,-2 -16,4 11,38 -39,69 19,39 2,36 -10,1 5,25 -33,35 -31,8 -6,19 -17,8 -31,-1 -26,27v35l11,36 -25,45v30l-21,28 1,18 -14,26 -22,21 -11,44 -12,9v37l-9,49 7,3 -14,41 -7,46 7,27 -9,11 6,19 -9,16 -18,8 -5,27 3,32 25,34 -250,-10 4,-126 5,-91 3,-105 -15,-23 -1,-19 -22,5 -6,19 -10,-9 8,-43Z"/>
<text x="306" y="500">VT</text>
</svg>