<?xml version="1.0" encoding="utf-8"?>
<!DOCTYPE svg PUBLIC "-//W3C//DTD SVG 1.1//EN" "http://www.w3.org/Graphics/SVG/1.1/DTD/svg11.dtd">
<svg version="1.1" xmlns="http://www.w3.org/2000/svg" width="215" height="350" viewBox="0 0 215 350">
  <path class="state" transform="scale(0.1)" d="M127,1925l10,-67 -41,-50 21,-17v-67l-41,-50v-150l-21,-17 11,-83 10,-17v-50h20v-84h31l31,-67 20,-16 -10,-184h10l31,-67v-67l-31,-83 -51,-67 -10,-84 20,-33v-134l41,-50 -10,-67 -41,-16 21,-84 20,-17 -10,-117 10,-33h758l20,17h779l20,-17h338v17h-61l20,50v67l21,33 -51,50 -21,50v50l-31,17 -30,50 41,84 20,67 21,16v51h20l-20,50h-41l20,16 -20,101 -62,16v50l-61,51h-62l-41,33v50l-30,17h-144l-51,17 -10,50h-21l11,66 -11,101h21l10,133 -41,51 -41,66v117l-61,50 -11,117 -41,84 -51,17 -31,50v50l-30,50v50l-51,34 -11,66v134l-30,117h30l-20,33 10,51 -41,66v84l-20,33v50h20v101l-31,16 21,67 -31,67h-41l-10,84 -31,33v50l31,100 41,17 31,67h-195l-41,-17h-430l-10,-16h-195l-10,-17v-134h10v-217l10,-17v-150l11,-50v-184l10,-17v-267h10v-100l-10,-34 -41,-16 -21,-84h-61l-21,84 -20,16 -21,-33 11,-100 51,-84Z"/>
<text x="107" y="175">VT</text>
</svg>