<?xml version="1.0" encoding="utf-8"?>
<!DOCTYPE svg PUBLIC "-//W3C//DTD SVG 1.1//EN" "http://www.w3.org/Graphics/SVG/1.1/DTD/svg11.dtd">
<svg version="1.1" xmlns="http://www.w3.org/2000/svg" width="350" height="230" viewBox="0 0 350 230">
  <path class="state" transform="scale(0.1)" d="M973,452l-17,-54h50l33,32 17,-76 -33,-77v-55l-50,22 -34,-22v-121l-17,-22 51,11h1537v-11h351l16,-11h251l17,-11h133v352v10v396h34v318l16,11v329h17v242l34,22v66l16,22 17,98h-134v11h-284v11h-334l-17,11h-133l-50,44 -101,11h-100l-33,44 -134,11v11l-184,77h-50l-33,-33 -67,22 -50,33h-84l-33,33h-34v-33l-33,-22h-84l-16,-22 -67,22 -84,-11 -16,33 -67,22 -84,44 -100,-11 -84,-33 -50,-33v-143l-50,-121 -33,-32 -100,-33 -51,22 -50,-77h-117v-33l-83,44 -34,-44 -33,-33 17,-11v-143h16v143l34,-33v-88l33,-110 -67,22 -33,-22v-77l33,-32 84,-11 -17,-22h-67v-33l-50,-11v-66h-33v-88l-17,-11 -17,-44v-154h-16v-76l-50,-22v-33l-51,-33v-33v-77l-16,-11v-77l16,-11v-88l-16,-33 50,11 83,66 84,33 100,55h134l83,33h84l33,-22 34,44h50l33,22v-44l50,-11 -16,55 33,44v44l34,33h-34l-67,99v-44l-16,22v43l-67,66v33l-50,55 50,-33v-33l50,-55 33,-11 50,-32v-55l67,-44v-44l34,22v88l-50,33v65h33v99h-17v99l-50,-11 17,-55h-34l-16,33v99h-34v-132l-33,44 -17,77 -33,11v33l50,22v-44l33,-11 34,44 50,-22 33,-88h67l-17,-33 51,-11 -34,-99v-55l34,22v-33l-34,-11 17,-54v-77l17,-55 50,-33 -17,-55 -50,-33 17,-55 -51,-11v55l-33,-22v-55h67v-44l-34,-33h-33v-44ZM1039,1078l34,11 -67,44v-88l33,-22ZM1006,903l17,-11v87l-34,-22v-76ZM989,463v33l34,33h-67v33l33,22v55l34,55v-44l67,66v33l-51,11v-44l-66,-22 16,-44 -16,-44h-34l-17,-44 34,-99ZM872,266l50,22 -50,44 -50,-11v-33ZM872,365v33l34,43 -67,-22ZM755,310l67,44 17,33 -17,32 -67,-32Z"/>
<text x="175" y="115">WA</text>
</svg>