<?xml version="1.0" encoding="utf-8"?>
<!DOCTYPE svg PUBLIC "-//W3C//DTD SVG 1.1//EN" "http://www.w3.org/Graphics/SVG/1.1/DTD/svg11.dtd">
<svg version="1.1" xmlns="http://www.w3.org/2000/svg" width="350" height="230" viewBox="0 0 350 230">
  <path class="state" transform="scale(0.1)" d="M880,365v65l-17,11 -16,-54 33,-22M863,1155v66h-16l-17,-66h33M963,452v-54l67,11v-44l33,-11 -33,-44v-77h-50l-50,-55v-55h-33l33,-44 50,11h1532v-11h350v-11h267v-11h133v362h33v407h17v318h17v329v11v231l50,22v66l16,11v66v43h-100l-33,11h-266v11h-350v11h-134l-50,44h-100l-66,22 -50,-11 -17,44 -133,11 -100,66 -83,22h-50l-34,-33 -50,11 -66,44h-100l-50,33 -17,-33 -50,-33 -50,11 -16,-22 -84,22 -50,-11 -50,22v22l-133,55h-50l-33,-22 -117,-22 -33,-22v-88h-17v-110l-33,-44v-33l-83,-54 -67,-11 -33,22 -50,-44v-33h-100v-33l-84,44 -33,-11 -17,-44 -33,11v-220h17v176h33v-77h17v-110l33,-11 -17,-33 -83,11v-88l33,-32 67,-11v-22h-67v-33l-50,-11 -16,66v-176l-17,-55 -33,-33v-88h-17v-109l-17,-55 -49,-77 -50,-44v-286l66,22 100,77h50l50,55 50,11h117l16,22 67,11h100l33,-22 50,44h34l33,44 -17,-55 50,-22v77l50,55v44l-50,33 -16,44v-66l-34,11v77h-16l-34,76 -33,22v33l-33,33v44l50,11 66,-44 -100,33v-55l34,-22v-33l50,-33v-22l66,-22v-43l100,-110v66l17,44 -67,22 17,87 16,-11v154l-16,33h-50l33,-66 -50,33v99l-33,-11 17,-99 -67,44v143h17v-66l16,44 83,-11 34,-44 16,-77 50,33v-44l34,-11v-66l-17,-11v-66l17,-33 -17,-33v-87l33,-22v-55l34,-11 16,-66h-33l-33,-22v-77l-34,-11 -33,66v-77h50v-55l-50,-22v-44l-50,22"/>
<text x="175" y="115">WA</text>
</svg>