<?xml version="1.0" encoding="utf-8"?>
<!DOCTYPE svg PUBLIC "-//W3C//DTD SVG 1.1//EN" "http://www.w3.org/Graphics/SVG/1.1/DTD/svg11.dtd">
<svg version="1.1" xmlns="http://www.w3.org/2000/svg" width="1000" height="658" viewBox="0 0 1000 658">
  <path class="state" d="M276,130l4,-20 15,11 1,-52 -19,-6 -20,-28 8,-11 111,3h209l217,-6 133,-5 7,218 5,54 8,195 17,36 3,31 -257,8 -16,13 -46,6 -58,15 -31,17 -35,6 -17,-8 -34,19 -30,5 -19,-16 -27,-6 -46,8 -45,24 -54,-14 -10,-8 -4,-52 -11,-24 -27,-19 -22,5 -24,-22 -21,-4 -27,8 -23,-12 4,-61 5,48 7,2 9,-32 -8,-10 15,-20 -31,-5v-17l34,-21 -21,-4 -20,-20 -5,-37 -11,-13 -3,-41 -12,-40 -17,-15 -6,-54 6,-25 13,-4 20,15 46,23 38,2 34,10 31,-7 33,28 5,-13 21,35 -21,18 -8,-8 -9,36 20,-10 9,-21 21,-14 -13,55 13,10 -11,47 -21,-6 -2,21 -8,-27 -22,28 12,18 13,-21 11,14 16,-14 8,-20 25,-10 -13,-56 17,-50 10,-5 -16,-25 -2,-21 -16,17 -2,-21 18,-8 -20,-26ZM282,131l11,18 -19,4 16,33 17,11 -5,22 -22,-20v-21l-20,-14 14,-33ZM248,75l15,12 -21,9 -10,-6ZM218,90l20,16 -11,12 -11,-10Z"/>
<text x="500" y="329">WA</text>
</svg>