<?xml version="1.0" encoding="utf-8"?>
<!DOCTYPE svg PUBLIC "-//W3C//DTD SVG 1.1//EN" "http://www.w3.org/Graphics/SVG/1.1/DTD/svg11.dtd">
<svg version="1.1" xmlns="http://www.w3.org/2000/svg" width="339" height="350" viewBox="0 0 339 350">
  <path class="state" transform="scale(0.1)" d="M86,1206v-66h33l16,-67 64,-67 97,-17 17,-33h48l32,-84v-351h49l16,-50 48,-16 17,16 161,-83 113,-50 146,-101 65,-33 161,-117h129l211,17 -227,501 49,33h48l33,101 48,16 97,34 65,33h64v17h65l65,33h113l16,50 97,34v17h81v16h129l49,34h80l17,16v101h64l81,33 -16,50 32,17 -16,50v67l-32,17v50h64l49,-17v33l-32,34 -17,83 65,34v16h81l16,-83 49,-33 64,-67 33,-67h161l259,134 -81,50 -16,50 -33,16 -16,51 -48,16v34l-49,117 -16,100 -65,200v51l-48,200v67l-16,100 -16,67v150l16,50v101l16,16 65,468 -404,17h-1100l-32,-17h-323l-16,-83 -49,-34h-64l-49,-16 -32,-34 -16,-100h-17v-67h-16v-100l49,-50v-67l-49,-34 -16,-16v-134l-32,-17v-167l-16,-16 -17,-67 -64,-50h-49l-64,-84 -81,-50 -33,-117 -64,-17v-16l-113,-34v-67h-130v-33h-32v-33l-81,-67 16,-34v-200h17v-151h48v-33l32,-33v-34l-32,-33 -32,-50h-49v-51"/>
</svg>