<?xml version="1.0" encoding="utf-8"?>
<!DOCTYPE svg PUBLIC "-//W3C//DTD SVG 1.1//EN" "http://www.w3.org/Graphics/SVG/1.1/DTD/svg11.dtd">
<svg version="1.1" xmlns="http://www.w3.org/2000/svg" width="326" height="350" viewBox="0 0 326 350">
  <path class="state" transform="scale(0.1)" d="M2708,1841l15,-100 47,-17v-50h62l31,-16 16,50v-117l77,-84v-67h62v-50l47,-33h15l-15,50v67l-47,50v50l-46,17v83h-16l-31,50v51l-46,33v33l-16,17 -31,50v67h-15v217l-47,34 -31,100h-16v150h16v67h-16v67h-15v84h-31v66h-16v284l16,17v84l46,33v84l-15,16v101l15,16h-139l-16,17h-1257v-17h-108l-47,-117h-62h-62l-15,-50 -47,-17v-66l-47,-34v-67v-100v-33l63,-34 -16,-67 -62,-16v-134l-47,-50v-84h31v-66h-31v-67l-31,-17 -31,-67 -31,-16h-62l-46,-51v-33h-47l-46,-50 -16,-100 -47,-17 -15,-34 -93,-16 -31,-34v-33l-31,-33h-109v-34h-31v-33l-93,-67 16,-84h15v-133l-15,-34 31,-16v-134l31,-17 15,-83 -46,-101h-62v-83l15,-34h31l31,-100 62,-67h47v-16l31,16 15,-33h47l31,-34v-217l15,-16v-184l78,-34v-33l62,33h47h77l62,-33h62l47,-17 15,-33h62l31,-50v33l78,-17 16,-66 93,-17 31,50v50l-62,67 15,33 -31,34 -15,50 108,-34v-50l31,34v33h31l31,34h47l62,50h15l63,33v50l31,17v33h62h62l108,51h47v33h78v17h46l31,16h93l31,50 78,34v17h171v16h77l47,34h62l31,67 -31,16 15,34 62,16h62l31,34 -31,50 47,17 -16,50v67h-31v50h78h15v100h-15v67h15v33l47,17v67l-31,16h-62l-16,67 -46,50v34l-31,17v66l-16,17v67h47l15,-67ZM1296,171v33h-62l31,-50ZM1249,237l16,34h-47l16,33 -78,17 31,-50h31Z"/>
<text x="163" y="175">WI</text>
</svg>