<?xml version="1.0" encoding="utf-8"?>
<!DOCTYPE svg PUBLIC "-//W3C//DTD SVG 1.1//EN" "http://www.w3.org/Graphics/SVG/1.1/DTD/svg11.dtd">
<svg version="1.1" xmlns="http://www.w3.org/2000/svg" width="1000" height="893" viewBox="0 0 1000 893">
  <path class="state" d="M547,659l-3,9 -35,36 -28,47 13,16 -20,16 6,14 -34,20 -12,-13 -46,26 -15,-13 -1,19 -12,9 -43,8 -20,9 -26,-25 -11,16 -29,16 -23,1 -20,-20 -14,-1 -27,-45 4,-19 -17,1 -19,-21 -26,-13 -4,-24 -19,-30 -12,-8v-20l-29,-36 12,-26 -2,-42 53,-6 8,-34 20,-2 3,-12 -9,-37 16,-13 10,-33 18,-12 13,11 9,28 23,-36 -9,-15 14,-8 -3,-17 17,-23 20,2 2,-18 19,-16 15,16 41,-24 46,-43 12,-4 7,-21 -7,-13 21,-34 10,-58 18,-31 4,-51 -14,-27 28,-13 -1,227h199l-1,127 37,-23 6,-15 24,-15 5,-15 26,9 38,-50 2,14 19,12 37,3 1,-15 20,-16 16,5 15,-19 15,3 19,20 35,-1 -12,11 19,16 12,26v19l-16,44 -101,-80 2,30 -15,21 3,23 -31,34 -4,15 -37,21 -15,32 -25,-22 -26,49 -21,50 -14,10 -31,-11 -12,-23 -22,-9 -7,39 -24,30 3,10 -24,22Z"/>
<text x="500" y="446">WV</text>
</svg>