<?xml version="1.0" encoding="utf-8"?>
<!DOCTYPE svg PUBLIC "-//W3C//DTD SVG 1.1//EN" "http://www.w3.org/Graphics/SVG/1.1/DTD/svg11.dtd">
<svg version="1.1" xmlns="http://www.w3.org/2000/svg" width="350" height="313" viewBox="0 0 350 313">
  <path class="state" transform="scale(0.1)" d="M120,1990l101,-15h83l17,-30v-60l17,-59h66v-135l-16,-30 50,-29v-60l67,-119h50l50,74 -17,60 34,15 16,-60 51,15v-60v-44l-17,-30 50,-30v-90h33v-44h84v-60l67,-60h33v45l50,15 17,-30 67,-15 33,-44 117,-105 34,-59h50l16,-90 -16,-30 33,-15v-104h50v-149l34,-15v-75l16,-44 34,-15 17,-75h-17v-89h17l-51,-164h101v790h685v447h33l34,-59 66,-15 17,-60 100,-59v-45h50l51,30 33,-60 67,-45 17,-89 33,30 -17,29 50,30 67,30h84l33,-30v-59l34,-30 66,30 34,-60h67l66,60h117l-50,29 50,75h34v60h33v134l-33,30 -17,89 -67,-60 -100,-44 -33,-60 -84,-45 -67,-74v119l-33,30 -17,89 17,30 -34,45h-50l-33,119h-50l-34,60 -66,30 -51,89 -66,-59 -34,15 -17,59 -33,45v45l-33,15v44l-34,75 -50,74 -134,-29 -16,-45 -50,-60 -51,-15 -33,75v74l-17,45 -67,45 17,45 -83,59 -17,90 -33,89 -117,90 -67,104 -34,75 50,45 -66,59 16,30 -67,60h-66v-30l-67,30 -50,44 -67,15 -50,-59 -34,59 34,30 -67,45h-84l-100,45h-33l-67,-90 -34,15v30l-66,30 -34,44h-100l-33,-74h-84v-30l-50,-30v-74l-34,-45 34,-15 -17,-30 -117,-30 -17,-44 -100,-60 -33,-90 -34,-14 -16,-90 -67,-15 17,-59 -17,-60 -67,-60 33,-45v-59v-75v-74v15"/>
</svg>