<?xml version="1.0" encoding="utf-8"?>
<!DOCTYPE svg PUBLIC "-//W3C//DTD SVG 1.1//EN" "http://www.w3.org/Graphics/SVG/1.1/DTD/svg11.dtd">
<svg version="1.1" xmlns="http://www.w3.org/2000/svg" viewBox="0 0 420 250"><path d="M521.8,274.9L526.3,289.4L532.9,311L538.5,320.7L535.8,328.8L537.7,338.4L539.9,343L532.5,344L501.5,347.7L505.9,357.3L504,360.3L497.8,358.5L495.7,353.8L494.8,360.3L490.9,360.1L487.2,333.6L487,280.6L485.3,278.9L497.5,277.6Z" data-state-code="AL" transform="matrix(0.5647,0,0,0.5647,0,0)"/><path d="M-7.2,-145.7L-4.3,-140.9L-2.1,-128.8L-4.2,-120.9L-7.7,-124.4L-13.9,-123.1L-16.5,-133.4L-12.1,-135.3L-13.4,-139.2L-12,-151L-7.5,-149.2ZM-4.7,-160.3L0,-152.4L-2.7,-150.4L-10.8,-152.9L-9.3,-163.7ZM-16.7,-159.9L-12.9,-162.6L-10.3,-158.2L-16.1,-148.6L-18.7,-148.1L-15,-155.2ZM-24.1,-162.3L-25.7,-165.1L-23.5,-170.6L-24.8,-174.9L-21,-176.6L-16.2,-171.9L-18.7,-161L-22.1,-152.6ZM-6,-180.8L-5.1,-174.4L-7.8,-167.6L-15.9,-165.1L-12.3,-177.6L-12,-184.1ZM-28.3,-169.6L-26.2,-174.5L-24.6,-170.8ZM-15.7,-178.1L-15.7,-173.2L-21.7,-178.7L-24.8,-174.9L-29.1,-186.2L-25.6,-190.7L-19.8,-188.9L-13.4,-180.8ZM-105.4,-264.8L-112.3,-262.4L-113.8,-264.9L-106.4,-266.6ZM-106.9,-272.5L-111.5,-267.3L-112.8,-269.3ZM-26,-384.5L-18.6,-377.7L-12.3,-376.6L-4.7,-371.4L6.1,-360.3L-52.8,-238.9L-44.9,-233L-35.9,-231.8L-39,-228.4L-30,-209.9L-31,-204.3L-19.5,-205.9L-15.7,-210.3L-7.5,-209.8L-6.6,-202.9L0.6,-188L7.7,-156.1L5.7,-153.9L18.2,-136.6L21.2,-134.9L17.7,-121.6L7.8,-115.3L5.7,-117.3L6.5,-124L-0.4,-132.1L-3.2,-145.7L0.8,-146.3L3.2,-151.5L-5.4,-163.6L-3,-169.7L-5.6,-180.9L-9,-182.9L-12.2,-189.3L-9.3,-200.1L-11.5,-198.4L-14,-185L-17.2,-190.2L-27.9,-190.8L-36.1,-204.1L-36,-208.7L-40.5,-212.5L-47.2,-222.3L-44.1,-227.2L-51,-227.4L-56,-230.8L-63.3,-238.9L-70.5,-243.8L-80.1,-247.2L-85,-253.6L-84.8,-257.7L-89.3,-257.4L-97.2,-270.1L-96.6,-274.7L-109.9,-277.1L-114.6,-266.3L-126.9,-273.5L-129.3,-271.5L-142,-272.8L-146,-271.1L-153.9,-276.4L-148.2,-277L-148.6,-282.8L-138.8,-287.9L-137.1,-293.2L-126.4,-292.3L-121.2,-288.9L-126,-296.8L-142.9,-296.3L-152.5,-292.8L-154.5,-289.2L-170.6,-289.6L-173.9,-285.9L-168.2,-280.4L-170.8,-277.1L-175.6,-278.3L-180.9,-274.2L-190.1,-276.7L-196.6,-276.7L-200.1,-274.3L-205.2,-276.5L-212.4,-272L-220.3,-274.8L-225,-273.3L-231.9,-275.9L-232.8,-272.7L-238.6,-270.5L-246.8,-274.5L-251.2,-271.8L-250.2,-276.8L-266.9,-279.1L-267.5,-285.1L-277,-280.9L-290.3,-286.2L-305,-289.4L-305.4,-294.3L-299.1,-295.3L-282.5,-288L-272.2,-290L-266.2,-289.6L-257.4,-285.2L-260.2,-283.4L-254.1,-279.7L-255.2,-283.1L-251.4,-285.6L-233.3,-284.4L-215.7,-286.8L-205.6,-297.1L-199.5,-299.9L-208.9,-302.2L-210.8,-309.2L-215.5,-304L-219.3,-305.5L-218.3,-315.2L-222.1,-314.9L-222.6,-321.2L-238.9,-323.4L-232.6,-334.7L-229.3,-334.9L-227.6,-345.5L-236.8,-348L-244.3,-354.9L-244.7,-369.9L-239.7,-372L-241.9,-382.1L-232.3,-390.7L-221.4,-391.5L-215.3,-395.6L-209.5,-393.8L-204.4,-385.5L-195.2,-386.4L-186.8,-380.1L-181.8,-381.1L-177.5,-391.4L-173.2,-392.2L-173.9,-396.6L-187.6,-400L-190.7,-398.7L-194.5,-406.3L-205,-412.8L-212.9,-423.4L-211.5,-428.9L-206.8,-431.8L-212.6,-438.2L-213.9,-444.8L-193.4,-438.5L-181.1,-432.8L-176.9,-429L-181.7,-423.7L-168.9,-412.7L-161.2,-412.2L-166.7,-416.9L-165.1,-420.9L-159.7,-423.1L-167.7,-429.5L-171.8,-435.1L-170,-440.7L-174.1,-452L-180.3,-464.2L-177.4,-462.9L-172.4,-466.8L-159.7,-456.8L-148.5,-454.9L-143.4,-458L-132.9,-457.8L-126.2,-453.1L-115.2,-451.8L-104.5,-444.3L-93.5,-443.3L-86.2,-436.6L-91.2,-434.6L-82.7,-433.6L-79.6,-425.8L-72.2,-423.3L-66.1,-418.3L-69,-416.5L-61.9,-408.7L-49.1,-402.8L-38.8,-392.2ZM-163.2,-264.5L-164.6,-262.4L-173,-264.6L-175.7,-267.7L-165.9,-270.9ZM-183.7,-266.2L-171.4,-263.8L-169.9,-260.8L-173.4,-254.1L-178.6,-255.4L-180.3,-252.8L-185.8,-255.1L-193.5,-254.1L-195,-257.2L-191.7,-267.9ZM-263.1,-276.6L-259.4,-273.4L-263.5,-271.8ZM-251.1,-368.9L-253.6,-365.3L-259.1,-365L-265.5,-377.2L-264.5,-379.3L-253.2,-373.3ZM-323.2,-293.1L-325.9,-291.6L-341.8,-296L-342.3,-298.4L-334.7,-295.8L-329.4,-300.5L-325.3,-298.8ZM-342,-299.3L-353.7,-300.4L-352.1,-303.3L-341.3,-303ZM-248.2,-436.6L-248.5,-433L-241.4,-422.4L-247.4,-425.1L-251.6,-424.4L-254.5,-437.2L-259.3,-439.8L-260.3,-444.4L-257.1,-445.9L-253.6,-439.6ZM-412.1,-337.7L-410.4,-335.5L-403.3,-335.8L-406.4,-332.2ZM-432.8,-347.4L-431.2,-350.4L-425.5,-345.9ZM-485.1,-447.9L-486.1,-444.3L-489.8,-447.4L-488.1,-452Z" data-state-code="AK" transform="matrix(0.1712,-0.1271,0.0988,0.2201,96.0055,271.0744)"/><path d="M101.3,308.1L104,304.6L108,303.1L105,299.2L105.7,292.5L109.2,290.6L110.3,284L117,278.7L113.9,275.6L111.7,267.5L112,265.4L113.5,263.2L112.6,256.2L114,245.9L123.6,246L126,232.1L174.2,239.1L193.9,241.9L182.3,340.7L153.1,337L136.1,328.1Z" data-state-code="AZ" transform="matrix(0.5647,0,0,0.5647,0,0)"/><path d="M455.7,255.3L456.9,258.5L453.4,264L462.4,263.3L462.2,266.7L457.7,273.5L456.8,280.9L455.8,281.6L456.4,283.1L452.2,288.7L452.5,292L447.8,297.6L444.4,307.9L447,315.1L446.1,317.6L410.5,319.4L404.2,319.6L403.9,310.2L399.2,310.7L397.6,308.9L396.9,278.1L393.7,258.6L395.7,258.5Z" data-state-code="AR" transform="matrix(0.5647,0,0,0.5647,0,0)"/><path d="M65.9,130.1L53.8,181.3L79.4,219.2L98.2,245.4L112,265.4L111.7,267.5L113.9,275.6L117,278.7L110.3,284L109.2,290.6L105.7,292.5L105,299.2L108,303.1L104,304.6L68.8,301.3L67.8,290.5L63.1,282L55.6,275.1L53.9,271L49.7,270.7L41.3,261.2L28.8,258L26.9,255L29.1,246.1L27.1,239.3L22.6,234.1L17.1,221.1L20.7,213.1L14.3,205.8L14.2,198.5L17.4,194.3L10.3,188.3L10.4,180.4L4.8,169.6L7.6,154.2L3.1,145.6L3.2,141.8L10,133.3L12.4,126.7L12.9,116.3L52.3,126.8Z" data-state-code="CA" transform="matrix(0.5647,0,0,0.5647,0,0)"/><path d="M267.7,178L293.5,179.4L292.8,196.8L291,249.7L277.6,249L259.2,247.9L224.6,245.1L216.6,244.4L193.9,241.9L196.3,221.2L196.5,219.4L202.1,172L217.5,173.7L245.6,176.4Z" data-state-code="CO" transform="matrix(0.5647,0,0,0.5647,0,0)"/><path d="M680.1,116.6L682.8,126.3L682.4,128.3L669.5,132.5L661.3,140.1L661.3,134.4L658.9,121.8L664.3,120.3L679.9,116Z" data-state-code="CT" transform="matrix(0.5647,0,0,0.5647,0,0)"/><path d="M651.2,182.1L654.6,187.8L646,189.6L639.6,168.8L641.3,165.9L643.8,165.9L643.5,168.5L642.3,169.7L647.4,178.6Z" data-state-code="DE" transform="matrix(0.5647,0,0,0.5647,0,0)"/><path d="M626.7,188.1L625.2,185.9L626,184.8L628.2,185.9Z" data-state-code="DC" transform="matrix(0.5647,0,0,0.5647,0,0)"/><path d="M539.9,343L542.8,347.8L582,344.2L585.3,347.4L585.5,339L593.3,339.8L598.8,355.2L605.1,365.4L613.7,375.9L614.3,382.2L626.8,402.9L628.5,421.2L624.6,431.4L615.8,434.5L609.2,423.2L604,423.8L600.5,416.5L596.5,413.2L595.5,407.3L593,409.5L583.8,399.1L587.7,391.5L582.6,395.1L580.4,391.7L581.6,382.1L580.9,374.2L567.8,365L563,359.2L556.6,356.5L551.9,358.1L545.1,364.6L538.2,366.2L536.5,362.1L522.1,356.6L513,357.4L504,360.3L505.9,357.3L501.5,347.7L532.5,344Z" data-state-code="FL" transform="matrix(0.5647,0,0,0.5647,0,0)"/><path d="M554.5,275.5L560.1,278.3L567.7,286.7L578.3,293.3L578.1,295.5L585.9,300.3L588,306.5L597.2,315.7L592.5,332.2L593.3,339.8L585.5,339L585.3,347.4L582,344.2L542.8,347.8L539.9,343L537.7,338.4L535.8,328.8L538.5,320.7L532.9,311L526.3,289.4L521.8,274.9L540,272.1L549.6,271L557.1,269.5L554.7,273.6Z" data-state-code="GA" transform="matrix(0.5647,0,0,0.5647,0,0)"/><path d="M-570.3,252.9L-564.6,261.8L-562.4,273.6L-572,272.4L-580,273.3L-582.7,269.6L-578,258.6L-572.1,256.6ZM-566.7,244.6L-568.6,246.2L-574.5,243.1L-574.9,236.3L-569.6,239.3ZM-587.4,218.6L-591.1,216.6L-589.3,212.1L-584.2,213.2ZM-597.6,192.2L-603,195.5L-603.5,189.2Z" data-state-code="HI" transform="matrix(0.4356,-0.5191,0.5191,0.4356,262.6033,-169.4215)"/><path d="M135.5,38L138.3,43.8L137.5,48.2L148.1,64L151.6,64.6L147.2,74.5L148.4,77.5L145.3,82.5L147.2,84.7L152.7,81.3L156.7,97.1L160.5,99.2L160.8,105.4L177.9,105.9L181.6,102.7L183.3,106L185.3,108.1L179.3,151.3L165.1,149.2L140.8,145.3L103.5,138.3L109.8,107L111.9,101.2L108.7,96.5L114.1,90.5L122.6,77.3L119.4,73L118.2,70.3L118.9,66.7L118.2,63.5L118.4,62.3L127.4,18.4L138.8,20.7Z" data-state-code="ID" transform="matrix(0.5647,0,0,0.5647,0,0)"/><path d="M476.7,147L476.6,150.4L481.9,160.2L486.5,201.6L485.4,205.1L488.1,211.5L482,228.5L482.6,229.4L481,232.3L482.7,235.2L477.5,237.3L477.1,242.9L469.9,241.1L468.2,244.3L468.8,245.2L466.8,245.4L463.4,240.5L462.8,233.5L450.2,225.3L452.7,213.7L445.4,213.1L444,207.7L439.4,203.7L434.7,199.5L432.2,190.8L433.5,188.2L433.2,184.9L436.9,182.8L438.7,175.3L436.9,169.6L445.9,165.8L447.5,156.2L444,153.1L440.5,150.3L464.4,148.3Z" data-state-code="IL" transform="matrix(0.5647,0,0,0.5647,0,0)"/><path d="M516.4,155L516.6,156.2L520,177L522.9,201.6L522.1,202.4L523.7,207.1L515.6,209.1L516.1,212.8L511.4,217.7L510.5,222.4L502.9,224.9L498.8,224.2L494.9,228.3L491.2,226.3L483.9,227.7L482.6,229.4L482,228.5L488.1,211.5L485.4,205.1L486.5,201.6L481.9,160.2L487.1,160.9L491.1,158.3L501.7,157Z" data-state-code="IN" transform="matrix(0.5647,0,0,0.5647,0,0)"/><path d="M434.5,137.7L433.3,139.6L435.1,146.2L439.4,148L440.5,150.3L444,153.1L447.5,156.2L445.9,165.8L436.9,169.6L438.7,175.3L436.9,182.8L433.2,184.9L433.5,188.2L432,187.7L427.5,184.6L391.2,187.1L376,187.2L374.5,184.8L373.8,172L368.9,162L366.5,153.8L364.1,150.2L365.4,144.1L364.4,136.5L366.2,136.1L430.1,133.4L432.4,133.2L432.6,136Z" data-state-code="IA" transform="matrix(0.5647,0,0,0.5647,0,0)"/><path d="M382.5,197.4L383.9,198.9L388.3,200L385.1,205.3L389.1,211.3L392,211.8L393.4,250L317.8,250.5L291,249.7L292.8,196.8L295.2,196.9Z" data-state-code="KS" transform="matrix(0.5647,0,0,0.5647,0,0)"/><path d="M539.5,207.6L541.2,206.1L546.7,206.5L549.7,203.5L552.2,206.8L554.5,208.9L554.8,214.1L563.8,222.9L565.3,223L561.2,228.3L556.2,231.9L551.8,239.1L544.8,243L544.9,243.3L520.1,246.2L504.6,247.2L487.3,249.8L484.2,249.2L484.6,252.5L467.6,253.9L465.6,254.4L466.4,251.9L468.5,252.6L468.8,245.2L468.2,244.3L469.9,241.1L477.1,242.9L477.5,237.3L482.7,235.2L481,232.3L482.6,229.4L483.9,227.7L491.2,226.3L494.9,228.3L498.8,224.2L502.9,224.9L510.5,222.4L511.4,217.7L516.1,212.8L515.6,209.1L523.7,207.1L522.1,202.4L522.9,201.6L528.2,200.9L531.8,205.3L536.2,205.6Z" data-state-code="KY" transform="matrix(0.5647,0,0,0.5647,0,0)"/><path d="M446.1,317.6L447.3,319.3L446.6,324L449.7,331.1L443,341.6L441.6,353L469.5,350.8L468.9,356.7L474.5,364.7L469.8,367.6L473.4,370.3L472.8,376.8L483.7,381.5L481.8,384.8L470.4,380.3L465.2,384.1L460.1,381.8L456.5,385.4L449.5,379.8L445,378.6L439.2,373.5L433,379.4L419.1,375.9L409.9,377.8L408.2,376.1L411.8,369.9L410.9,362.3L413.1,351.9L405,337.6L404.2,319.6L410.5,319.4Z" data-state-code="LA" transform="matrix(0.5647,0,0,0.5647,0,0)"/><path d="M686.6,94.4L686.1,92.7L683.7,90.8L676.4,69.2L672.8,58.2L679.6,45.8L677.8,42.9L678.5,31.6L683.2,16L688.3,19.4L695.1,14.1L701.6,17.3L709.2,40.3L713.3,40.2L714.7,45.8L719.6,46.4L723.7,51.8L713.6,63.8L704.2,66.8L701.1,75.1L695.3,80.7L692.4,79L688.2,94.9Z" data-state-code="ME" transform="matrix(0.5647,0,0,0.5647,0,0)"/><path d="M639.6,168.8L646,189.6L654.6,187.8L653.6,196L651.7,196.4L648.2,198.5L645.4,199.8L642.1,192.1L639.1,194.1L637.9,184.9L635.3,180.2L637.8,171.7L633.6,177.1L633.5,187.2L638.7,198.9L626.5,196L626.4,191.3L626.7,188.1L628.2,185.9L626,184.8L625.2,185.9L623,184.9L618.2,180.9L615.8,181.1L613.3,176.6L608.7,175.7L605.2,179.9L601.2,179.5L593.1,188L591.4,179.3Z" data-state-code="MD" transform="matrix(0.5647,0,0,0.5647,0,0)"/><path d="M687.7,98.2L691.3,108.6L696.5,115L703.9,115.3L691,122.7L689.2,119.7L688.6,119.3L686.9,118.5L685,115.2L683.2,115.7L680.1,116.6L679.9,116L664.3,120.3L658.9,121.8L658.1,120.7L658.4,109L668.7,106.8L682.8,102.8L686.3,98.3Z" data-state-code="MA" transform="matrix(0.5647,0,0,0.5647,0,0)"/><path d="M516.4,155L501.7,157L491.1,158.3L496.5,145.6L495.7,135.6L490.9,126.1L489.9,117.6L492.5,113L491.7,106.7L498.6,97.8L499.5,104.1L501,95.7L505.1,93L503.8,89.5L508.1,85.2L516.1,89L523.9,90.3L528.3,100.9L528.4,108L522.4,119.1L526.4,121.2L530.3,113.8L534.4,111.3L538.6,114.7L543.8,129.3L543.5,136.1L539.8,136.1L534,153.1L516.6,156.2ZM468.4,89.8L466.9,87.8L461.5,86.9L459.8,87.6L454.7,85.1L441.9,82.9L438.1,79L454.2,70.3L460.4,63L465.9,62.1L460.7,69.9L470.9,71.9L474.4,76.1L482.8,76.9L488.8,72.5L501.4,68.8L502.5,73.5L513.2,71.7L514,77.4L521.6,80.8L512,81.9L507.9,84L497.8,81.4L489.8,84.3L488.4,87.5L479.9,89.8L474.5,101.3L470.5,97.2L471.2,91.6Z" data-state-code="MI" transform="matrix(0.5647,0,0,0.5647,0,0)"/><path d="M417.6,77.4L415.5,79.3L416.1,89.3L411.9,91.9L409.2,98.5L412.4,100.7L410.8,112.7L422.4,119.6L428.6,124.9L431.3,131.2L432.4,133.2L430.1,133.4L366.2,136.1L365.7,104.8L360.8,99.4L363.8,95.8L364.2,93.6L363.7,86.7L361,81.3L360.4,64.4L356.9,55.4L356.4,48.5L357.2,46.1L355.5,40.4L379.7,40L379.5,33.7L383.3,34.8L385.3,43.7L395.9,47.8L402.5,45.4L411.1,48.5L412.6,52L416.2,49.4L422.5,54.7L430.7,50.8L431.8,53.2L438.9,52L445,54.5L432.8,61.2L426.1,69.3L417.5,76.8L418.5,78.5Z" data-state-code="MN" transform="matrix(0.5647,0,0,0.5647,0,0)"/><path d="M485.3,278.9L487,280.6L487.2,333.6L490.9,360.1L483.8,359.9L474.5,364.7L468.9,356.7L469.5,350.8L441.6,353L443,341.6L449.7,331.1L446.6,324L447.3,319.3L446.1,317.6L447,315.1L444.4,307.9L447.8,297.6L452.5,292L452.2,288.7L456.4,283.1L455.8,281.6L481.7,279.3Z" data-state-code="MS" transform="matrix(0.5647,0,0,0.5647,0,0)"/><path d="M439.4,203.7L444,207.7L445.4,213.1L452.7,213.7L450.2,225.3L462.8,233.5L463.4,240.5L466.8,245.4L468.8,245.2L468.5,252.6L466.4,251.9L465.6,254.4L464.1,254.5L464.5,258.8L462.4,263.3L453.4,264L456.9,258.5L455.7,255.3L395.7,258.5L393.7,258.6L393.4,250L392,211.8L389.1,211.3L385.1,205.3L388.3,200L383.9,198.9L382.5,197.4L379,193.2L376,187.2L391.2,187.1L427.5,184.6L432,187.7L433.5,188.2L432.2,190.8L434.7,199.5Z" data-state-code="MO" transform="matrix(0.5647,0,0,0.5647,0,0)"/><path d="M273.2,91.4L272.2,107.7L249.2,106L210.3,102.1L186.5,99.1L185.3,108.1L183.3,106L181.6,102.7L177.9,105.9L160.8,105.4L160.5,99.2L156.7,97.1L152.7,81.3L147.2,84.7L145.3,82.5L148.4,77.5L147.2,74.5L151.6,64.6L148.1,64L137.5,48.2L138.3,43.8L135.5,38L138.8,20.7L190.6,29.9L214.3,32.5L276.6,38.2Z" data-state-code="MT" transform="matrix(0.5647,0,0,0.5647,0,0)"/><path d="M340.3,145.1L340.8,146L347.2,149.1L356.8,147.8L364.2,153.8L366.5,153.8L368.9,162L373.8,172L374.5,184.8L376,187.2L379,193.2L382.5,197.4L295.2,196.9L292.8,196.8L293.5,179.4L267.7,178L270,142.7L279.1,143.2L300.5,144.2Z" data-state-code="NE" transform="matrix(0.5647,0,0,0.5647,0,0)"/><path d="M126,232.1L123.6,246L114,245.9L112.6,256.2L113.5,263.2L112,265.4L98.2,245.4L79.4,219.2L53.8,181.3L65.9,130.1L82.1,133.8L103.5,138.3L140.8,145.3Z" data-state-code="NV" transform="matrix(0.5647,0,0,0.5647,0,0)"/><path d="M683.7,90.8L686.1,92.7L686.6,94.4L688.2,94.9L687.7,98.2L686.3,98.3L682.8,102.8L668.7,106.8L666.9,105.4L665.5,91.9L667.1,82.3L665.9,78.2L669.8,75.2L670.7,72.1L668.6,69.5L669.2,65L669.5,59.8L672.8,58.2L676.4,69.2Z" data-state-code="NH" transform="matrix(0.5647,0,0,0.5647,0,0)"/><path d="M657.9,146L655.7,150.7L659.7,150.9L661.3,162.8L655.7,177.8L653.5,175.2L643.9,172.2L643.5,168.5L643.8,165.9L647.2,163.5L650.5,157L643.4,152.2L642.7,145.4L645.4,138.8L646.5,137.2L653.3,139.3L658.1,140.9Z" data-state-code="NJ" transform="matrix(0.5647,0,0,0.5647,0,0)"/><path d="M224.6,245.1L259.2,247.9L277.6,249L277.2,257.6L276.7,257.6L274.3,301.2L271.9,336.8L220.1,333L220.8,336.8L195.9,334.3L195.1,342.2L182.3,340.7L193.9,241.9L216.6,244.4Z" data-state-code="NM" transform="matrix(0.5647,0,0,0.5647,0,0)"/><path d="M650.3,87.5L652.9,92.1L655.3,95.6L658,107.5L658.4,109L658.1,120.7L658.9,121.8L661.3,134.4L661.3,140.1L667.2,140.4L674.9,136.4L677.7,132.5L680.8,134.8L668.4,144.8L659.6,148.4L657.9,146L658.1,140.9L653.3,139.3L646.5,137.2L645.8,136.2L635.7,128.3L580.4,140.3L579.5,135.5L586.3,129.5L589,124.3L584.7,117.1L591.3,113.3L600.4,112L604,113.7L613.7,109L618.7,104.7L617.9,97.1L614.7,93.5L619.4,89.6L624.7,79.2L629.7,75.5L647.3,71L650.7,83.6Z" data-state-code="NY" transform="matrix(0.5647,0,0,0.5647,0,0)"/><path d="M602.1,233.9L651.4,222.9L654.5,229.4L642.4,235.1L655,233.4L656.9,237.3L652.5,245L647.7,249.2L652,252L650.1,257.4L640.3,260.6L633.5,270.2L632.6,276L625,277.6L605.5,264.4L589.9,267.1L585.3,262L568.1,264L564.3,265.6L561.5,267.6L557.1,269.5L549.6,271L540,272.1L539.9,268.1L546.1,261.3L550.1,260.4L572.2,242.9L572,238.6L581.9,237.4L591.3,236Z" data-state-code="NC" transform="matrix(0.5647,0,0,0.5647,0,0)"/><path d="M356.4,48.5L356.9,55.4L360.4,64.4L361,81.3L363.7,86.7L364.2,93.6L273.2,91.4L276.6,38.2L355.5,40.4L357.2,46.1Z" data-state-code="ND" transform="matrix(0.5647,0,0,0.5647,0,0)"/><path d="M575.2,165.6L573,166.9L574.8,171.5L574,182.6L569.7,188.9L563.9,192.1L562.8,199.5L559.9,197.2L557.7,207.8L554.5,208.9L552.2,206.8L549.7,203.5L546.7,206.5L541.2,206.1L539.5,207.6L536.2,205.6L531.8,205.3L528.2,200.9L522.9,201.6L520,177L516.6,156.2L534,153.1L547.4,157.1L556.8,153.7L564.9,145.7L570.9,142.8Z" data-state-code="OH" transform="matrix(0.5647,0,0,0.5647,0,0)"/><path d="M393.4,250L393.7,258.6L396.9,278.1L397.6,308.9L391.8,307.3L386.5,303.8L373.1,306.2L370.5,308.7L362.2,304.3L358.6,308.3L351.3,303.7L341.5,300.7L339.4,302.5L328.7,296.3L322.5,296.5L317.9,293.4L318.7,259.1L293.6,258.4L277.2,257.6L277.6,249L291,249.7L317.8,250.5Z" data-state-code="OK" transform="matrix(0.5647,0,0,0.5647,0,0)"/><path d="M47.8,59.4L53.6,63.1L59.5,61.5L66.3,65.1L73.3,64.3L93.9,64.5L118.2,70.3L119.4,73L122.6,77.3L114.1,90.5L108.7,96.5L111.9,101.2L109.8,107L103.5,138.3L82.1,133.8L65.9,130.1L52.3,126.8L12.9,116.3L13,100.8L22.5,85.8L31.4,64L35.9,48L41.7,46.7L48.8,54Z" data-state-code="OR" transform="matrix(0.5647,0,0,0.5647,0,0)"/><path d="M580.4,140.3L635.7,128.3L645.8,136.2L646.5,137.2L645.4,138.8L642.7,145.4L643.4,152.2L650.5,157L647.2,163.5L643.8,165.9L641.3,165.9L639.6,168.8L591.4,179.3L578.2,181.8L575.2,165.6L570.9,142.8L579.5,135.5Z" data-state-code="PA" transform="matrix(0.5647,0,0,0.5647,0,0)"/><path d="M691,122.7L689.2,119.7ZM686.9,118.5L688.6,119.3L687.2,126.3L682.4,128.3L682.8,126.3L680.1,116.6L683.2,115.7L685,115.2Z" data-state-code="RI" transform="matrix(0.5647,0,0,0.5647,0,0)"/><path d="M564.3,265.6L568.1,264L585.3,262L589.9,267.1L605.5,264.4L625,277.6L620.2,282.4L616.2,294.7L613.2,295.3L597.2,315.7L588,306.5L585.9,300.3L578.1,295.5L578.3,293.3L567.7,286.7L560.1,278.3L554.5,275.5L554.7,273.6L557.1,269.5L561.5,267.6Z" data-state-code="SC" transform="matrix(0.5647,0,0,0.5647,0,0)"/><path d="M364.2,93.6L363.8,95.8L360.8,99.4L365.7,104.8L366.2,136.1L364.4,136.5L365.4,144.1L364.1,150.2L366.5,153.8L364.2,153.8L356.8,147.8L347.2,149.1L340.8,146L340.3,145.1L300.5,144.2L279.1,143.2L270,142.7L272.2,107.7L273.2,91.4Z" data-state-code="SD" transform="matrix(0.5647,0,0,0.5647,0,0)"/><path d="M484.2,249.2L487.3,249.8L504.6,247.2L520.1,246.2L544.9,243.3L544.8,243L572,238.6L572.2,242.9L550.1,260.4L546.1,261.3L539.9,268.1L540,272.1L521.8,274.9L497.5,277.6L485.3,278.9L481.7,279.3L455.8,281.6L456.8,280.9L457.7,273.5L462.2,266.7L462.4,263.3L464.5,258.8L464.1,254.5L465.6,254.4L467.6,253.9L484.6,252.5Z" data-state-code="TN" transform="matrix(0.5647,0,0,0.5647,0,0)"/><path d="M318.7,259.1L317.9,293.4L322.5,296.5L328.7,296.3L339.4,302.5L341.5,300.7L351.3,303.7L358.6,308.3L362.2,304.3L370.5,308.7L373.1,306.2L386.5,303.8L391.8,307.3L397.6,308.9L399.2,310.7L403.9,310.2L404.2,319.6L405,337.6L413.1,351.9L410.9,362.3L411.8,369.9L408.2,376.1L409.9,377.8L399.7,380.7L396.2,376.6L392,380.6L393.8,384.8L386.9,392.9L377.6,397.7L369.9,397.8L371,400.8L365.5,401.5L358.4,414L353.4,428.8L359.2,443.4L354.1,445.3L352.3,442.9L343.8,442.3L327.9,433.8L324.1,425.3L323.7,417.4L317.6,411.9L311.1,403.3L306,388.6L294.9,377.1L281.3,374.4L276.3,376.6L268.5,389.2L253.1,381.3L247.9,376.7L243.6,360L236.5,354.3L220.8,336.8L220.1,333L271.9,336.8L274.3,301.2L276.7,257.6L277.2,257.6L293.6,258.4Z" data-state-code="TX" transform="matrix(0.5647,0,0,0.5647,0,0)"/><path d="M179.3,151.3L176.9,168.8L202.1,172L196.5,219.4L196.3,221.2L193.9,241.9L174.2,239.1L126,232.1L140.8,145.3L165.1,149.2Z" data-state-code="UT" transform="matrix(0.5647,0,0,0.5647,0,0)"/><path d="M670.7,72.1L669.8,75.2L665.9,78.2L667.1,82.3L665.5,91.9L666.9,105.4L668.7,106.8L658.4,109L658,107.5L655.3,95.6L652.9,92.1L650.3,87.5L650.7,83.6L647.3,71L669.2,65L668.6,69.5Z" data-state-code="VT" transform="matrix(0.5647,0,0,0.5647,0,0)"/><path d="M653.6,196L651.1,200.3L649.8,211.7L646.2,211.6L648.2,198.5L651.7,196.4ZM615.8,181.1L618.2,180.9L623,184.9L625.2,185.9L626.7,188.1L626.4,191.3L624.3,194.9L630,198L634.9,197.9L641.2,201.1L640.5,206.6L642.5,217.8L648,217.1L651.4,222.9L602.1,233.9L591.3,236L581.9,237.4L572,238.6L544.8,243L551.8,239.1L556.2,231.9L561.2,228.3L565.3,223L565.5,224.2L572.1,227.7L588.2,219.2L587.6,216.2L593.1,203L599.3,199.5L607.4,185.7L607.3,180.4L615.1,184.7Z" data-state-code="VA" transform="matrix(0.5647,0,0,0.5647,0,0)"/><path d="M118.4,62.3L118.2,63.5L118.9,66.7L118.2,70.3L93.9,64.5L73.3,64.3L66.3,65.1L59.5,61.5L53.6,63.1L47.8,59.4L48.8,54L41.7,46.7L35.7,43.8L37.3,36.7L38.2,19.4L37.1,10.7L39.2,8.2L45.1,13.6L54.6,15.9L61.5,24.6L64.8,8.4L62.8,3.2L127.4,18.4Z" data-state-code="WA" transform="matrix(0.5647,0,0,0.5647,0,0)"/><path d="M591.4,179.3L593.1,188L601.2,179.5L605.2,179.9L608.7,175.7L613.3,176.6L615.8,181.1L615.1,184.7L607.3,180.4L607.4,185.7L599.3,199.5L593.1,203L587.6,216.2L588.2,219.2L572.1,227.7L565.5,224.2L565.3,223L563.8,222.9L554.8,214.1L554.5,208.9L557.7,207.8L559.9,197.2L562.8,199.5L563.9,192.1L569.7,188.9L574,182.6L574.8,171.5L573,166.9L575.2,165.6L578.2,181.8Z" data-state-code="WV" transform="matrix(0.5647,0,0,0.5647,0,0)"/><path d="M459.8,87.6L461.5,86.9L466.9,87.8L468.4,89.8L471.2,91.6L470.5,97.2L474.5,101.3L470.4,108.5L471.6,111.4L481.3,98.4L476.5,114.9L475.9,126.3L474,134.1L476.7,147L464.4,148.3L440.5,150.3L439.4,148L435.1,146.2L433.3,139.6L434.5,137.7L432.6,136L432.4,133.2L431.3,131.2L428.6,124.9L422.4,119.6L410.8,112.7L412.4,100.7L409.2,98.5L411.9,91.9L416.1,89.3L415.5,79.3L417.6,77.4L418.5,78.5L432.4,72.7L432.2,76.4L438.1,79L441.9,82.9L454.7,85.1Z" data-state-code="WI" transform="matrix(0.5647,0,0,0.5647,0,0)"/><path d="M249.2,106L272.2,107.7L270,142.7L267.7,178L245.6,176.4L217.5,173.7L202.1,172L176.9,168.8L179.3,151.3L185.3,108.1L186.5,99.1L210.3,102.1Z" data-state-code="WY" transform="matrix(0.5647,0,0,0.5647,0,0)"/></svg>
