<?xml version="1.0" encoding="utf-8"?>
<!-- Generator: Adobe Illustrator 15.0.0, SVG Export Plug-In . SVG Version: 6.00 Build 0)  -->
<!DOCTYPE svg PUBLIC "-//W3C//DTD SVG 1.1//EN" "http://www.w3.org/Graphics/SVG/1.1/DTD/svg11.dtd">
<svg version="1.1" id="Layer_1" xmlns="http://www.w3.org/2000/svg" xmlns:xlink="http://www.w3.org/1999/xlink" x="0px" y="0px"
	 width="46.5px" height="37.501px" viewBox="11.452 13.701 46.5 37.501" enable-background="new 11.452 13.701 46.5 37.501"
	 xml:space="preserve">
<g id="Maps">
</g>
<g id="HuffPost_Logos">
</g>
<g>
	<path fill="#FFFFFF" d="M19.243,27.904l0.65,2.409h32.424c-0.893-1.096-2.321-1.973-4.609-1.973c-3.713,0-5.57,0.618-8.667,0.618
		c-3.999,0-8.046-0.714-9.856-3.618c-0.188-0.334-1.665-2.905-2-3.476c-0.523-0.953-1.047-5.047-1.522-6.047
		c-0.307-0.649-1.22-1.299-1.606-1.728c-0.32-0.354-0.362,0.141-0.362,0.141l-0.781,4.481c0,0-0.025,0.493-0.213,0.074
		c-0.267-0.602-1.127-1.892-1.753-2.443c-0.544-0.478-1.916-0.845-2.618-1.112C17.767,15.018,18,15.521,18,15.521
		s1.341,3.775,1.412,3.988c0.072,0.213-0.272,0.36-0.272,0.36l-6.812,3.996c-0.283,0.188-0.474,0.521-0.426,0.903l0.381,1.334
		c0.047,0.332,0.333,0.618,0.667,0.713c0,0,5.616,0.457,5.896,0.508C19.124,27.371,19.243,27.904,19.243,27.904z"/>
	<path fill="#FFFFFF" d="M57.494,43.286c0.201-0.151-0.297-0.28-0.43-0.479c-0.132-0.2,0.078-0.172-0.172-0.323
		c-0.25-0.149-0.45-0.199-0.651-0.4c-0.12-0.12-0.824-2.043-1.37-3.565H21.092c0,3.776,0,12.038,0,12.297
		c0,0.334,0.334,0.276,0.334,0.276h1.7c0,0,0.314,0.082,0.406-0.343c0.081-0.387,1.337-7.891,1.571-9.29
		c0.023-0.144,0.064-0.195,0.195-0.224c0.401,0,0.908-0.019,1.295,0c0.173,0.008,0.214,0.08,0.215,0.228
		c0.013,1.394,0.086,8.752,0.09,9.218c0.003,0.514,0.322,0.362,0.322,0.362h1.769c0,0,0.335,0.063,0.352-0.363
		c0.016-0.388,1.294-7.885,1.524-9.237c0.023-0.135,0.035-0.215,0.273-0.209c0,0,13.017,0,13.142,0s0.158,0.158,0.158,0.158
		s0.851,9.223,0.866,9.387c0.028,0.318,0.277,0.264,0.277,0.264h1.811c0,0,0.173,0.059,0.189-0.221
		c0.018-0.279,0.734-9.439,0.734-9.439s-0.017-0.143,0.119-0.146c0.135-0.002,1.219,0,1.364,0s0.177,0.209,0.177,0.209
		s1.338,9.188,1.372,9.416c0.032,0.229,0.344,0.183,0.344,0.183h1.852c0,0,0.236,0.039,0.262-0.179
		c0.018-0.16,0.009-7.842,0.004-11.837l0.152,0.001c0,0,0.976,3.257,1.628,3.858c-0.251,0.4-0.4,0.45,0,0.901
		c0.4,0.452,0.7,0.752,1.002,0.752c0.301,0,0.509-0.024,0.801,0c0.382,0.032,0.452-0.25,0.253-0.551
		C57.443,43.688,57.295,43.438,57.494,43.286z"/>
</g>
<polygon fill="#FFFFFF" points="45.759,30.969 44.64,33.237 42.136,33.601 43.948,35.366 43.521,37.861 45.759,36.684 
	47.998,37.861 47.572,35.366 49.383,33.601 46.879,33.237 "/>
<polygon fill="#FFFFFF" points="36.507,30.969 35.387,33.237 32.883,33.601 34.696,35.366 34.268,37.861 36.507,36.684 
	38.747,37.861 38.319,35.366 40.13,33.601 37.626,33.237 "/>
<polygon fill="#FFFFFF" points="27.254,30.969 26.135,33.237 23.631,33.601 25.443,35.366 25.016,37.861 27.254,36.684 
	29.494,37.861 29.066,35.366 30.878,33.601 28.375,33.237 "/>
</svg>
