<?xml version="1.0" encoding="utf-8"?>
<!-- Generator: Adobe Illustrator 15.0.0, SVG Export Plug-In . SVG Version: 6.00 Build 0)  -->
<!DOCTYPE svg PUBLIC "-//W3C//DTD SVG 1.1//EN" "http://www.w3.org/Graphics/SVG/1.1/DTD/svg11.dtd">
<svg version="1.1" id="Layer_1" xmlns="http://www.w3.org/2000/svg" xmlns:xlink="http://www.w3.org/1999/xlink" x="0px" y="0px"
	 width="128px" height="128px" viewBox="0 0 128 128" enable-background="new 0 0 128 128" xml:space="preserve">
<path fill="#FFFFFF" d="M112,0H16C7.2,0,0,7.2,0,16v96c0,8.8,7.2,16,16,16h52.877V78.188h-17.78V60.425h17.784V44.029
	c0-16.537,9.764-26.279,24.514-26.279c7.068,0,12.834,0.756,14.605,0.991v18.573l-11.874-0.005c-8.022,0-9.522,3.979-9.522,9.572
	v13.544h20.557l-2.904,17.763H86.604V128H112c8.8,0,16-7.2,16-16V16C128,7.2,120.8,0,112,0z"/>
</svg>
