<?xml version="1.0" encoding="utf-8"?>
<!-- Generator: Adobe Illustrator 16.0.0, SVG Export Plug-In . SVG Version: 6.00 Build 0)  -->
<!DOCTYPE svg PUBLIC "-//W3C//DTD SVG 1.1//EN" "http://www.w3.org/Graphics/SVG/1.1/DTD/svg11.dtd">
<svg version="1.1" id="Layer_1" xmlns="http://www.w3.org/2000/svg" xmlns:xlink="http://www.w3.org/1999/xlink" x="0px" y="0px"
	 width="40px" height="30px" viewBox="4.312 1.146 40 30" enable-background="new 4.312 1.146 40 30" xml:space="preserve">
<g id="Maps">
</g>
<g id="HuffPost_Logos">
</g>
<g>
	<g>
		<path fill="#FFFFFF" d="M36.006,10.648c-1.363-6.839-4.694-9.515-15.396-9.502C6.132,1.162,4.494,8.1,4.37,10.648H36.006z"/>
		<path fill="#FFFFFF" d="M4.341,20.487C4.329,25.607,4.312,30.58,4.312,30.58c0,0.283,0.236,0.52,0.52,0.52h7.085
			c0.284,0,0.521-0.188,0.521-0.474l-0.048-4.028c0.049-0.427,0.378-0.709,0.756-0.709l9.872,0.045c0.425,0,0.756,0.334,0.756,0.759
			v3.934c0,0.285,0.237,0.521,0.519,0.521h6.945c0.285,0,0.473-0.188,0.52-0.472v-3.508c-0.047-1.849,1.607-2.703,2.883-0.948
			c1.324,1.85,3.306,1.707,4.486,1.66c3.922-0.14,5.148-7.11,5.148-7.11c0.096-0.097,0-0.285-0.191-0.333l-2.786-0.569
			c-0.093,0-0.142,0.047-0.188,0.096c0,0-0.568,3.269-1.702,3.647c-0.85,0.286-2.172,0.145-2.267-1.135
			c-0.091-1.436-0.173-2.783-0.262-4.051H4.37"/>
	</g>
	<polygon fill="#FFFFFF" points="29.321,11.269 28.265,13.419 25.899,13.763 27.611,15.436 27.208,17.801 29.321,16.685 
		31.437,17.801 31.035,15.436 32.745,13.763 30.382,13.419 	"/>
	<polygon fill="#FFFFFF" points="20.584,11.269 19.527,13.419 17.162,13.763 18.874,15.436 18.47,17.801 20.584,16.685 22.7,17.801 
		22.296,15.436 24.006,13.763 21.641,13.419 	"/>
	<polygon fill="#FFFFFF" points="11.846,11.269 10.789,13.419 8.424,13.763 10.136,15.436 9.732,17.801 11.846,16.685 
		13.961,17.801 13.558,15.436 15.268,13.763 12.904,13.419 	"/>
</g>
</svg>
