<?xml version="1.0" encoding="utf-8"?>
<!-- Generator: Adobe Illustrator 16.0.0, SVG Export Plug-In . SVG Version: 6.00 Build 0)  -->
<!DOCTYPE svg PUBLIC "-//W3C//DTD SVG 1.1//EN" "http://www.w3.org/Graphics/SVG/1.1/DTD/svg11.dtd">
<svg version="1.1" id="Layer_1" xmlns="http://www.w3.org/2000/svg" xmlns:xlink="http://www.w3.org/1999/xlink" x="0px" y="0px"
	 width="68.238px" height="68.238px" viewBox="0 0 68.238 68.238" style="enable-background:new 0 0 68.238 68.238;"
	 xml:space="preserve">
<g id="Maps">
</g>
<g id="HuffPost_Logos">
</g>
<g>
	<g>
		<polygon style="fill:#CA3D29;" points="34.119,1.319 29.492,4.905 23.984,2.924 20.692,7.764 14.84,7.583 13.205,13.205 
			7.583,14.84 7.765,20.69 2.924,23.983 4.906,29.492 1.319,34.118 4.906,38.746 2.924,44.254 7.765,47.548 7.583,53.398 
			13.205,55.033 14.84,60.654 20.692,60.473 23.984,65.314 29.492,63.333 34.119,66.919 38.746,63.333 44.254,65.314 47.547,60.473 
			53.398,60.654 55.033,55.033 60.654,53.398 60.472,47.548 65.314,44.254 63.332,38.746 66.92,34.118 63.332,29.492 65.314,23.983 
			60.472,20.69 60.654,14.84 55.033,13.205 53.398,7.583 47.547,7.764 44.254,2.924 38.746,4.905 		"/>
		<path style="fill:#952B20;" d="M34.119,68.238l-4.813-3.73l-5.729,2.061l-3.425-5.035l-6.087,0.188l-1.701-5.847l-5.848-1.701
			l0.189-6.087l-5.036-3.425l2.062-5.73L0,34.118l3.731-4.812l-2.062-5.73l5.036-3.426l-0.189-6.086l5.848-1.701l1.701-5.848
			l6.087,0.189l3.425-5.035l5.729,2.061L34.119,0l4.812,3.73l5.73-2.061l3.424,5.035l6.088-0.189l1.701,5.848l5.848,1.701
			l-0.189,6.086l5.035,3.426l-2.061,5.73l3.73,4.812l-3.73,4.813l2.061,5.73l-5.035,3.425l0.189,6.087l-5.849,1.701l-1.7,5.847
			l-6.088-0.188l-3.424,5.035l-5.73-2.061L34.119,68.238z M29.678,62.158l4.441,3.441l4.441-3.441l5.287,1.901l3.159-4.646
			l5.616,0.175l1.569-5.396l5.396-1.569l-0.174-5.615l4.646-3.161l-1.901-5.286l3.441-4.442l-3.441-4.44l1.901-5.286l-4.646-3.161
			l0.174-5.615l-5.396-1.569l-1.568-5.396l-5.616,0.175l-3.159-4.646L38.56,6.08l-4.441-3.441L29.678,6.08l-5.287-1.901l-3.16,4.646
			l-5.616-0.175l-1.57,5.396L8.65,15.615l0.174,5.615l-4.646,3.161l1.902,5.286l-3.442,4.44L6.08,38.56l-1.902,5.286l4.646,3.161
			L8.65,52.623l5.396,1.569l1.57,5.396l5.616-0.175l3.16,4.646L29.678,62.158z"/>
	</g>
	<g>
		<path style="fill:#E6E7E8;" d="M15.823,32.932c0,0-1.177,3.066-2.402,4.36c-0.565,0.602,0.001,0.815,0.523,0.468
			c0.918-0.612,3.028-3.083,3.344-3.395"/>
		<path style="fill:#E6E7E8;" d="M57.937,37.594c0,0-1.3,7.354-5.451,7.503c-1.25,0.049-3.35,0.2-4.751-1.751
			c-1.351-1.852-3.101-0.951-3.052,1v3.701c-0.049,0.301-0.249,0.499-0.55,0.499h-7.353c-0.299,0-0.549-0.249-0.549-0.55v-4.151
			c0-0.449-0.35-0.8-0.802-0.8l-10.452-0.049c-0.4,0-0.75,0.299-0.8,0.749l0.049,4.251c0,0.301-0.251,0.501-0.55,0.501h-7.502
			c-0.301,0-0.551-0.25-0.551-0.55c0,0,0.05-15.505,0.05-20.656c0-2.301,1.101-10.403,17.207-10.403
			c19.604,0,16.454,5.901,17.503,22.506c0.101,1.352,1.501,1.501,2.401,1.2c1.2-0.4,1.801-3.851,1.801-3.851
			c0.05-0.05,0.1-0.1,0.199-0.1l2.951,0.6C57.937,37.294,58.038,37.494,57.937,37.594z"/>
		<rect x="14.862" y="26.916" style="fill:#CA3D29;" width="36.515" height="8.203"/>
		<polygon style="fill:#E6E7E8;" points="42.104,27.571 40.985,29.84 38.481,30.203 40.293,31.969 39.866,34.464 42.104,33.286 
			44.343,34.464 43.917,31.969 45.728,30.203 43.224,29.84 		"/>
		<polygon style="fill:#E6E7E8;" points="32.852,27.571 31.732,29.84 29.228,30.203 31.041,31.969 30.613,34.464 32.852,33.286 
			35.092,34.464 34.664,31.969 36.475,30.203 33.971,29.84 		"/>
		<polygon style="fill:#E6E7E8;" points="23.599,27.571 22.48,29.84 19.976,30.203 21.788,31.969 21.361,34.464 23.599,33.286 
			25.839,34.464 25.411,31.969 27.223,30.203 24.72,29.84 		"/>
	</g>
</g>
</svg>
