<?xml version="1.0" encoding="utf-8"?>
<!-- Generator: Adobe Illustrator 15.0.0, SVG Export Plug-In . SVG Version: 6.00 Build 0)  -->
<!DOCTYPE svg PUBLIC "-//W3C//DTD SVG 1.1//EN" "http://www.w3.org/Graphics/SVG/1.1/DTD/svg11.dtd">
<svg version="1.1" id="Layer_1" xmlns="http://www.w3.org/2000/svg" xmlns:xlink="http://www.w3.org/1999/xlink" x="0px" y="0px"
	 width="48.625px" height="32.292px" viewBox="9.619 16.453 48.625 32.292" enable-background="new 9.619 16.453 48.625 32.292"
	 xml:space="preserve">
<g id="Maps">
</g>
<g id="HuffPost_Logos">
</g>
<g>
	<path fill="#FFFFFF" d="M49.182,26.916c-1.444-7.218-4.971-10.041-16.303-10.028c-15.33,0.018-17.065,7.338-17.196,10.028H49.182z"
		/>
	<path fill="#FFFFFF" d="M57.735,37.243l-2.951-0.601c-0.099,0-0.149,0.051-0.199,0.101c0,0-0.601,3.45-1.801,3.851
		c-0.9,0.301-2.3,0.152-2.401-1.199c-0.096-1.514-0.183-2.936-0.275-4.275H13.731c-0.82,1.798-2.079,4.26-3.373,5.626
		c-1.012,1.079,0.001,1.461,0.938,0.838c1.048-0.698,2.959-2.745,4.357-4.286c-0.014,5.403-0.031,10.65-0.031,10.65
		c0,0.3,0.25,0.55,0.551,0.55h7.502c0.3,0,0.551-0.2,0.551-0.501l-0.05-4.251c0.051-0.45,0.4-0.749,0.801-0.749l10.452,0.049
		c0.451,0,0.802,0.352,0.802,0.8v4.151c0,0.301,0.25,0.55,0.549,0.55h7.353c0.302,0,0.501-0.198,0.551-0.499v-3.701
		c-0.05-1.951,1.7-2.852,3.052-1c1.401,1.951,3.501,1.801,4.751,1.752c4.151-0.149,5.451-7.504,5.451-7.504
		C58.038,37.494,57.937,37.294,57.735,37.243z"/>
</g>
<polygon fill="#FFFFFF" points="42.104,27.571 40.985,29.84 38.481,30.203 40.293,31.969 39.866,34.464 42.104,33.286 
	44.343,34.464 43.917,31.969 45.728,30.203 43.224,29.84 "/>
<polygon fill="#FFFFFF" points="32.852,27.571 31.732,29.84 29.228,30.203 31.041,31.969 30.613,34.464 32.852,33.286 
	35.092,34.464 34.664,31.969 36.475,30.203 33.971,29.84 "/>
<polygon fill="#FFFFFF" points="23.599,27.571 22.48,29.84 19.976,30.203 21.788,31.969 21.361,34.464 23.599,33.286 25.839,34.464 
	25.411,31.969 27.223,30.203 24.72,29.84 "/>
</svg>
