<?xml version="1.0" encoding="utf-8"?>
<!-- Generator: Adobe Illustrator 15.0.0, SVG Export Plug-In . SVG Version: 6.00 Build 0)  -->
<!DOCTYPE svg PUBLIC "-//W3C//DTD SVG 1.1//EN" "http://www.w3.org/Graphics/SVG/1.1/DTD/svg11.dtd">
<svg version="1.1" id="Layer_1" xmlns="http://www.w3.org/2000/svg" xmlns:xlink="http://www.w3.org/1999/xlink" x="0px" y="0px"
	 width="24.3px" height="19.719px" viewBox="0 0 24.3 19.719" enable-background="new 0 0 24.3 19.719" xml:space="preserve">
<g>
	<path fill="#FFFFFF" d="M24.243,2.349c-0.892,0.396-1.851,0.663-2.856,0.783c1.026-0.616,1.815-1.59,2.187-2.751
		c-0.961,0.57-2.025,0.984-3.158,1.207c-0.907-0.967-2.199-1.57-3.63-1.57c-2.747,0-4.974,2.226-4.974,4.973
		c0,0.39,0.044,0.77,0.129,1.133C7.807,5.917,4.142,3.937,1.689,0.927c-0.428,0.735-0.674,1.588-0.674,2.5
		c0,1.726,0.878,3.248,2.213,4.141c-0.815-0.026-1.582-0.25-2.253-0.622c0,0.021,0,0.042,0,0.062c0,2.41,1.714,4.42,3.989,4.878
		C4.546,12,4.107,12.061,3.653,12.061c-0.32,0-0.632-0.031-0.936-0.09c0.633,1.977,2.47,3.414,4.646,3.454
		c-1.702,1.334-3.847,2.129-6.177,2.129c-0.401,0-0.797-0.023-1.187-0.069c2.201,1.411,4.815,2.234,7.625,2.234
		c9.148,0,14.151-7.578,14.151-14.151c0-0.216-0.005-0.431-0.015-0.644C22.733,4.222,23.577,3.346,24.243,2.349z"/>
</g>
</svg>
